<?xml version="1.0" encoding="UTF-8" standalone="no"?>
<svg xmlns:xlink="http://www.w3.org/1999/xlink" height="8.1px" width="8.3px" xmlns="http://www.w3.org/2000/svg">
  <g transform="matrix(1.0, 0.0, 0.0, 1.0, -0.5, 0.35)">
    <path d="M7.75 4.85 Q8.55 5.3 8.5 6.4 8.55 7.45 7.7 7.6 L4.85 7.75 1.65 7.6 Q0.5 7.45 0.5 6.4 0.5 5.3 1.7 4.85 L1.85 4.8 4.95 4.45 7.75 4.85" fill="#000000" fill-rule="evenodd" stroke="none"/>
    <path d="M1.85 4.8 L1.85 1.15 Q1.85 0.65 2.1 0.3 2.4 0.0 2.85 0.0 L8.45 0.0 7.75 4.85 4.95 4.45 1.85 4.8" fill="#ff0000" fill-rule="evenodd" stroke="none"/>
    <path d="M1.85 4.8 L1.85 1.15 Q1.85 0.65 2.1 0.3 2.4 0.0 2.85 0.0 L8.45 0.0 7.75 4.85" fill="none" stroke="#000000" stroke-linecap="round" stroke-linejoin="round" stroke-width="0.75"/>
  </g>
</svg>
