<?xml version="1.0" encoding="UTF-8" standalone="no"?>
<svg xmlns:xlink="http://www.w3.org/1999/xlink" height="20.05px" width="14.3px" xmlns="http://www.w3.org/2000/svg">
  <g transform="matrix(1.0, 0.0, 0.0, 1.0, 0.35, 0.35)">
    <path d="M13.25 1.9 L13.6 2.7 13.6 18.2 Q13.6 18.7 13.25 19.0 12.9 19.35 12.4 19.35 L1.15 19.35 Q0.65 19.35 0.3 19.0 0.0 18.7 0.0 18.2 L0.0 2.7 Q0.0 2.2 0.3 1.85 0.65 1.55 1.15 1.55 L6.75 0.0 12.4 1.55 Q12.9 1.55 13.25 1.9" fill="#ff0000" fill-rule="evenodd" stroke="none"/>
    <path d="M13.25 1.9 L13.6 2.7 13.6 18.2 Q13.6 18.7 13.25 19.0 12.9 19.35 12.4 19.35 L1.15 19.35 Q0.65 19.35 0.3 19.0 0.0 18.7 0.0 18.2 L0.0 2.7 Q0.0 2.2 0.3 1.85 0.65 1.55 1.15 1.55 L6.75 0.0 12.4 1.55 Q12.9 1.55 13.25 1.9 Z" fill="none" stroke="#000000" stroke-linecap="round" stroke-linejoin="round" stroke-width="0.75"/>
  </g>
</svg>
