<?xml version="1.0" encoding="UTF-8" standalone="no"?>
<svg xmlns:xlink="http://www.w3.org/1999/xlink" height="12.85px" width="4.2px" xmlns="http://www.w3.org/2000/svg">
  <g transform="matrix(1.0, 0.0, 0.0, 1.0, 0.35, 0.35)">
    <path d="M0.65 9.9 L0.45 9.75 Q0.05 9.3 0.0 7.75 L0.1 4.45 0.45 1.95 Q0.8 0.9 1.5 0.4 2.2 -0.1 3.05 0.05 L3.3 1.95 3.5 5.0 3.5 8.0 3.25 9.75 3.05 10.0 1.95 10.3 0.65 9.9" fill="#ff0000" fill-rule="evenodd" stroke="none"/>
    <path d="M0.65 9.9 L1.95 10.3 3.05 10.0 3.3 10.75 2.85 11.7 Q2.45 12.1 1.8 12.15 L0.7 11.75 Q0.3 11.35 0.3 10.75 0.3 10.2 0.65 9.9" fill="#e0b38c" fill-rule="evenodd" stroke="none"/>
    <path d="M3.05 10.0 L3.25 9.75 3.5 8.0 3.5 5.0 3.3 1.95 3.05 0.05 Q2.2 -0.1 1.5 0.4 0.8 0.9 0.45 1.95 L0.1 4.45 0.0 7.75 Q0.05 9.3 0.45 9.75 L0.65 9.9 1.95 10.3 3.05 10.0 3.3 10.75 2.85 11.7 Q2.45 12.1 1.8 12.15 L0.7 11.75 Q0.3 11.35 0.3 10.75 0.3 10.2 0.65 9.9" fill="none" stroke="#000000" stroke-linecap="round" stroke-linejoin="round" stroke-width="0.75"/>
  </g>
</svg>
