<?xml version="1.0" encoding="UTF-8" standalone="no"?>
<svg xmlns:xlink="http://www.w3.org/1999/xlink" height="29.65px" width="29.3px" xmlns="http://www.w3.org/2000/svg">
  <g transform="matrix(1.0, 0.0, 0.0, 1.0, 0.75, 0.5)">
    <path d="M3.0 17.7 Q2.85 16.25 3.1 15.2 3.25 13.95 3.55 13.1 L4.3 11.5 5.7 12.6 6.6 10.35 8.1 11.55 8.95 9.5 11.45 11.45 12.25 9.4 12.95 9.95 13.3 9.05 15.7 10.85 16.1 9.85 17.35 11.45 18.65 9.65 19.35 11.9 21.1 10.8 21.7 12.75 23.15 11.8 Q23.6 11.3 24.25 14.0 24.15 17.65 23.75 18.15 L24.1 18.15 22.5 22.45 Q20.05 28.15 13.65 28.8 7.45 28.3 4.9 23.0 3.55 20.15 3.0 17.7 M19.75 23.05 Q14.8 25.95 11.05 24.65 7.3 23.35 7.1 22.95 7.3 23.35 11.05 24.65 14.8 25.95 19.75 23.05" fill="#e0b38c" fill-rule="evenodd" stroke="none"/>
    <path d="M3.0 17.7 L3.0 18.0 Q0.3 16.65 -0.1 16.75 L1.4 13.5 -0.75 11.4 1.05 9.6 0.75 6.65 3.05 6.85 2.35 3.55 4.9 4.15 4.9 1.6 7.25 2.25 7.95 -0.25 10.05 1.45 10.85 -0.5 12.5 1.45 15.7 -0.25 16.05 2.05 18.2 0.75 19.15 2.9 21.35 1.25 21.5 4.05 24.4 3.25 23.9 5.9 27.2 6.1 26.35 8.85 28.55 9.3 26.1 11.6 27.15 14.65 24.95 15.55 26.55 18.25 24.1 18.15 23.75 18.15 Q24.15 17.65 24.25 14.0 23.6 11.3 23.15 11.8 L21.7 12.75 21.1 10.8 19.35 11.9 18.65 9.65 17.35 11.45 16.1 9.85 15.7 10.85 13.3 9.05 12.95 9.95 12.25 9.4 11.45 11.45 8.95 9.5 8.1 11.55 6.6 10.35 5.7 12.6 4.3 11.5 3.55 13.1 Q3.25 13.95 3.1 15.2 2.85 16.25 3.0 17.7 M4.45 9.0 L4.8 8.95 4.7 8.9 4.45 9.0 M21.95 8.65 L21.9 8.7 21.95 8.7 21.95 8.65" fill="#000000" fill-rule="evenodd" stroke="none"/>
    <path d="M24.1 18.15 L22.5 22.45 Q20.05 28.15 13.65 28.8 7.45 28.3 4.9 23.0 3.55 20.15 3.0 17.7 M7.1 22.95 Q7.3 23.35 11.05 24.65 14.8 25.95 19.75 23.05" fill="none" stroke="#000000" stroke-linecap="round" stroke-linejoin="round" stroke-width="0.75"/>
  </g>
</svg>
