<?xml version="1.0" encoding="UTF-8" standalone="no"?>
<svg xmlns:xlink="http://www.w3.org/1999/xlink" height="24.45px" width="24.85px" xmlns="http://www.w3.org/2000/svg">
  <g transform="matrix(1.0, 0.0, 0.0, 1.0, -0.85, -3.2)">
    <path d="M2.15 15.75 Q1.8 14.5 2.55 9.8 3.4 4.3 13.65 3.55 23.2 4.45 24.15 9.85 L24.25 10.4 24.55 12.3 Q24.9 14.65 24.6 14.35 L24.5 14.2 24.45 13.9 24.5 14.2 24.6 14.35 24.35 17.45 Q24.25 20.1 25.35 20.95 24.0 21.8 22.85 21.15 22.4 22.9 24.45 23.95 23.4 25.5 21.65 24.9 L20.1 24.3 Q21.4 22.9 22.25 20.95 24.05 16.65 24.45 13.9 24.2 12.9 23.1 14.05 21.85 15.35 21.3 13.45 20.8 11.6 19.45 13.0 18.1 14.45 17.8 12.7 17.45 11.05 15.65 12.7 13.8 14.35 13.3 12.55 12.9 10.75 11.3 12.8 9.75 14.85 9.3 13.1 8.9 11.25 7.35 12.95 5.8 14.6 5.5 13.45 5.2 12.15 3.85 13.95 L2.6 15.65 2.3 16.1 2.15 15.75 2.3 16.1 2.6 15.65 Q3.15 18.3 4.65 21.5 6.05 24.4 8.55 25.85 4.8 25.95 2.55 24.7 4.25 23.8 4.45 22.5 2.55 23.05 1.2 22.15 2.25 21.1 2.2 19.4 L2.15 15.75" fill="#f3e016" fill-rule="evenodd" stroke="none"/>
    <path d="M2.6 15.65 L3.85 13.95 Q5.2 12.15 5.5 13.45 5.8 14.6 7.35 12.95 8.9 11.25 9.3 13.1 9.75 14.85 11.3 12.8 12.9 10.75 13.3 12.55 13.8 14.35 15.65 12.7 17.45 11.05 17.8 12.7 18.1 14.45 19.45 13.0 20.8 11.6 21.3 13.45 21.85 15.35 23.1 14.05 24.2 12.9 24.45 13.9 24.05 16.65 22.25 20.95 21.4 22.9 20.1 24.3 17.6 26.85 13.4 27.3 10.6 27.05 8.55 25.85 6.05 24.4 4.65 21.5 3.15 18.3 2.6 15.65" fill="#e0b38c" fill-rule="evenodd" stroke="none"/>
    <path d="M24.6 14.35 Q24.9 14.65 24.55 12.3 L24.25 10.4 24.15 9.85 Q23.2 4.45 13.65 3.55 3.4 4.3 2.55 9.8 1.8 14.5 2.15 15.75 L2.3 16.1 2.6 15.65 3.85 13.95 Q5.2 12.15 5.5 13.45 5.8 14.6 7.35 12.95 8.9 11.25 9.3 13.1 9.75 14.85 11.3 12.8 12.9 10.75 13.3 12.55 13.8 14.35 15.65 12.7 17.45 11.05 17.8 12.7 18.1 14.45 19.45 13.0 20.8 11.6 21.3 13.45 21.85 15.35 23.1 14.05 24.2 12.9 24.45 13.9 L24.5 14.2 24.6 14.35 24.35 17.45 Q24.25 20.1 25.35 20.95 24.0 21.8 22.85 21.15 22.4 22.9 24.45 23.95 23.4 25.5 21.65 24.9 L20.1 24.3 Q17.6 26.85 13.4 27.3 10.6 27.05 8.55 25.85 4.8 25.95 2.55 24.7 4.25 23.8 4.45 22.5 2.55 23.05 1.2 22.15 2.25 21.1 2.2 19.4 L2.15 15.75 M20.1 24.3 Q21.4 22.9 22.25 20.95 24.05 16.65 24.45 13.9 M8.55 25.85 Q6.05 24.4 4.65 21.5 3.15 18.3 2.6 15.65" fill="none" stroke="#000000" stroke-linecap="round" stroke-linejoin="round" stroke-width="0.75"/>
    <path d="M6.85 21.4 Q7.05 21.8 10.8 23.1 14.55 24.4 19.5 21.5" fill="none" stroke="#000000" stroke-linecap="round" stroke-linejoin="round" stroke-width="0.75"/>
  </g>
</svg>
