<?xml version="1.0" encoding="UTF-8" standalone="no"?>
<svg xmlns:xlink="http://www.w3.org/1999/xlink" height="26.55px" width="27.4px" xmlns="http://www.w3.org/2000/svg">
  <g transform="matrix(1.0, 0.0, 0.0, 1.0, 1.4, -2.05)">
    <path d="M18.3 10.0 L20.5 12.3 24.3 16.0 Q23.75 18.45 22.3 21.9 19.85 27.6 13.45 28.25 7.25 27.75 4.7 22.45 3.15 19.2 2.65 16.5 L9.1 14.25 Q14.6 12.4 18.3 10.0 M2.35 14.2 L2.3 13.9 2.35 14.2 M19.55 22.65 Q14.6 25.55 10.85 24.25 7.1 22.95 6.9 22.55 7.1 22.95 10.85 24.25 14.6 25.55 19.55 22.65" fill="#e0b38c" fill-rule="evenodd" stroke="none"/>
    <path d="M18.3 10.0 L20.25 8.6 20.45 8.45 Q22.1 9.75 23.75 12.25 L25.25 14.4 23.75 12.25 Q22.1 9.75 20.45 8.45 L20.25 8.6 18.3 10.0 Q14.6 12.4 9.1 14.25 L2.65 16.5 1.35 16.85 2.2 14.8 0.05 15.2 2.35 14.2 4.95 12.85 Q7.4 11.6 8.8 10.15 L11.45 8.9 17.4 5.55 11.45 8.9 8.8 10.15 Q7.4 11.6 4.95 12.85 L2.35 14.2 2.3 13.9 Q2.15 12.85 2.4 11.65 L0.8 11.65 2.5 11.05 3.15 8.9 2.8 9.1 -1.0 11.35 Q2.45 6.5 5.85 4.55 L2.5 4.85 Q10.15 1.7 14.9 2.7 L15.05 2.75 15.35 2.8 17.9 3.4 18.65 3.6 17.9 3.4 15.35 2.8 15.05 2.75 17.35 3.05 18.65 3.6 Q19.8 3.9 19.85 4.1 L19.8 4.15 21.2 4.95 25.15 10.9 25.15 10.95 Q25.6 12.75 25.6 15.0 L25.25 14.4 Q25.15 16.15 24.85 16.45 L24.3 16.0 20.5 12.3 18.3 10.0 M20.45 8.45 Q23.25 6.1 19.8 4.15 23.25 6.1 20.45 8.45 M13.65 5.6 Q11.15 4.3 7.05 4.5 L5.85 4.55 7.05 4.5 Q11.15 4.3 13.65 5.6 M17.9 3.4 L16.5 2.9 15.35 2.8 16.5 2.9 17.9 3.4 M17.7 7.55 L11.25 11.25 Q6.5 13.8 2.2 14.8 6.5 13.8 11.25 11.25 L17.7 7.55 M2.4 11.65 Q5.55 11.4 8.8 10.15 5.55 11.4 2.4 11.65 M3.15 8.9 Q6.3 7.25 9.7 6.95 7.95 8.75 5.05 10.0 3.5 10.65 2.5 11.05 3.5 10.65 5.05 10.0 7.95 8.75 9.7 6.95 6.3 7.25 3.15 8.9 M10.65 5.8 L9.7 6.95 10.65 5.8" fill="#bfa14a" fill-rule="evenodd" stroke="none"/>
    <path d="M2.65 16.5 Q3.15 19.2 4.7 22.45 7.25 27.75 13.45 28.25 19.85 27.6 22.3 21.9 23.75 18.45 24.3 16.0 M2.3 13.9 L2.35 14.2 M6.9 22.55 Q7.1 22.95 10.85 24.25 14.6 25.55 19.55 22.65" fill="none" stroke="#000000" stroke-linecap="round" stroke-linejoin="round" stroke-width="0.75"/>
    <path d="M25.25 14.4 L23.75 12.25 Q22.1 9.75 20.45 8.45 L20.25 8.6 18.3 10.0 20.5 12.3 24.3 16.0 24.85 16.45 Q25.15 16.15 25.25 14.4 L25.6 15.0 Q25.6 12.75 25.15 10.95 L25.15 10.9 21.2 4.95 19.8 4.15 Q23.25 6.1 20.45 8.45 M19.85 4.1 Q19.8 3.9 18.65 3.6 L17.9 3.4 15.35 2.8 15.05 2.75 14.9 2.7 Q10.15 1.7 2.5 4.85 L5.85 4.55 7.05 4.5 Q11.15 4.3 13.65 5.6 M18.65 3.6 L17.35 3.05 15.05 2.75 M15.35 2.8 L16.5 2.9 17.9 3.4 M2.2 14.8 Q6.5 13.8 11.25 11.25 L17.7 7.55 M17.4 5.55 L11.45 8.9 8.8 10.15 Q7.4 11.6 4.95 12.85 L2.35 14.2 0.05 15.2 2.2 14.8 1.35 16.85 2.65 16.5 9.1 14.25 Q14.6 12.4 18.3 10.0 M2.3 13.9 Q2.15 12.85 2.4 11.65 L0.8 11.65 2.5 11.05 3.15 8.9 2.8 9.1 -1.0 11.35 Q2.45 6.5 5.85 4.55 M2.5 11.05 Q3.5 10.65 5.05 10.0 7.95 8.75 9.7 6.95 6.3 7.25 3.15 8.9 M8.8 10.15 Q5.55 11.4 2.4 11.65 M2.35 14.2 L2.3 13.9 M9.7 6.95 L10.65 5.8" fill="none" stroke="#000000" stroke-linecap="round" stroke-linejoin="round" stroke-width="0.8500000000000001"/>
  </g>
</svg>
