<?xml version="1.0" encoding="UTF-8" standalone="no"?>
<svg xmlns:xlink="http://www.w3.org/1999/xlink" height="42.8px" width="126.65px" xmlns="http://www.w3.org/2000/svg">
  <g transform="matrix(1.0, 0.0, 0.0, 1.0, 63.3, 21.4)">
    <path d="M29.3 21.4 L-10.65 21.4 -46.3 21.4 -61.7 21.4 Q-62.15 20.75 -63.1 13.1 -64.05 5.45 -60.0 -1.15 -55.9 -7.8 -41.3 -5.4 -38.25 -11.7 -33.0 -16.35 -27.75 -21.0 -21.95 -21.4 -14.45 -21.35 -9.4 -16.1 -4.35 -10.85 -2.65 -3.95 6.1 -10.15 16.2 -9.65 26.3 -9.2 31.85 -4.75 37.45 -0.3 32.7 5.5 36.85 3.75 46.5 3.3 56.15 2.9 61.45 6.7 66.7 10.5 57.6 21.4 L29.3 21.4" fill="#ccecf4" fill-rule="evenodd" stroke="none"/>
  </g>
</svg>
