<?xml version="1.0" encoding="UTF-8" standalone="no"?>
<svg xmlns:xlink="http://www.w3.org/1999/xlink" height="51.75px" width="40.3px" xmlns="http://www.w3.org/2000/svg">
  <g transform="matrix(1.0, 0.0, 0.0, 1.0, 20.15, 25.85)">
    <path d="M-6.1 -25.55 Q-1.75 -24.8 5.7 -22.25 13.15 -19.65 13.95 -4.85 13.65 4.4 9.35 8.65 5.05 12.9 0.15 14.15 L-6.75 15.6 9.1 17.85 Q16.5 18.9 19.85 20.8 L16.7 21.0 14.65 21.25 16.2 23.25 12.0 23.35 Q14.15 24.35 14.9 25.6 5.1 25.0 -6.15 22.95 -17.35 20.85 -19.85 16.75 -13.4 14.3 -10.25 10.9 -7.05 7.55 -13.8 5.65 L-6.1 -25.55" fill="#4c8335" fill-rule="evenodd" stroke="none"/>
    <path d="M-13.8 5.65 Q-7.05 7.55 -10.25 10.9 -13.4 14.3 -19.85 16.75 -17.35 20.85 -6.15 22.95 5.1 25.0 14.9 25.6 14.15 24.35 12.0 23.35 L16.2 23.25 14.65 21.25 16.7 21.0 19.85 20.8 Q16.5 18.9 9.1 17.85 L-6.75 15.6 0.15 14.15 Q5.05 12.9 9.35 8.65 13.65 4.4 13.95 -4.85 13.15 -19.65 5.7 -22.25 -1.75 -24.8 -6.1 -25.55" fill="none" stroke="#000000" stroke-linecap="round" stroke-linejoin="round" stroke-width="0.6000000000000001"/>
  </g>
</svg>
