<?xml version="1.0" encoding="UTF-8" standalone="no"?>
<svg xmlns:xlink="http://www.w3.org/1999/xlink" height="114.45px" width="118.5px" xmlns="http://www.w3.org/2000/svg">
  <g transform="matrix(1.0, 0.0, 0.0, 1.0, 59.25, 57.2)">
    <path d="M33.1 -36.95 L28.2 -22.25 -14.85 49.8 -48.8 55.05 -44.7 49.05 -39.3 51.35 -36.95 45.15 -28.8 46.15 -29.0 40.1 -23.4 40.7 -24.55 34.1 -18.35 34.3 -18.15 28.9 -13.7 27.15 -16.2 20.75 -11.15 17.8 -15.8 11.05 -9.2 8.3 -12.5 1.15 -5.55 -0.4 -8.05 -8.15 -1.05 -7.2 -0.9 -15.15 5.5 -13.0 5.9 -22.15 14.45 -20.2 13.45 -26.4 20.65 -24.65 18.3 -30.65 24.9 -28.9 22.95 -34.8 28.55 -34.0 27.25 -38.7 30.3 -38.7 27.55 -43.65 30.25 -45.3 26.85 -48.1 30.05 -50.55 33.1 -36.95" fill="#f3e016" fill-rule="evenodd" stroke="none"/>
    <path d="M33.1 -36.95 L28.2 -22.25 -14.85 49.8 -48.8 55.05 -44.7 49.05 -39.3 51.35 -36.95 45.15 -28.8 46.15 -29.0 40.1 -23.4 40.7 -24.55 34.1 -18.35 34.3 -18.15 28.9 -13.7 27.15 -16.2 20.75 -11.15 17.8 -15.8 11.05 -9.2 8.3 -12.5 1.15 -5.55 -0.4 -8.05 -8.15 -1.05 -7.2 -0.9 -15.15 5.5 -13.0 5.9 -22.15 14.45 -20.2 13.45 -26.4 20.65 -24.65 18.3 -30.65 24.9 -28.9 22.95 -34.8 28.55 -34.0 27.25 -38.7 30.3 -38.7 27.55 -43.65 30.25 -45.3 26.85 -48.1 30.05 -50.55 33.1 -36.95 Z" fill="none" stroke="#000000" stroke-linecap="round" stroke-linejoin="round" stroke-width="0.6000000000000001"/>
    <path d="M39.25 -55.5 Q38.15 -54.3 39.1 -44.8 40.05 -35.25 46.75 -22.0 47.35 -21.6 52.15 -12.35 56.95 -3.15 58.65 9.8 60.35 22.7 51.55 34.3 42.8 45.95 16.3 51.15 11.5 51.65 6.75 50.45 2.05 49.25 -6.2 49.55 -14.4 49.85 -29.7 54.9 -42.3 57.9 -50.5 56.5 -58.65 55.1 -58.95 54.65 L-49.3 53.8 Q-40.2 52.55 -29.25 45.25 -18.35 38.0 -12.35 20.35 -9.45 5.75 -4.65 -2.1 0.1 -9.95 6.95 -15.25 L22.75 -27.45 Q28.7 -33.05 29.5 -38.7 30.35 -44.35 30.5 -48.3 L31.95 -51.4 Q33.35 -54.25 35.35 -56.1 37.35 -58.0 39.25 -55.5" fill="#4c8335" fill-rule="evenodd" stroke="none"/>
    <path d="M39.25 -55.5 Q38.15 -54.3 39.1 -44.8 40.05 -35.25 46.75 -22.0 47.35 -21.6 52.15 -12.35 56.95 -3.15 58.65 9.8 60.35 22.7 51.55 34.3 42.8 45.95 16.3 51.15 11.5 51.65 6.75 50.45 2.05 49.25 -6.2 49.55 -14.4 49.85 -29.7 54.9 -42.3 57.9 -50.5 56.5 -58.65 55.1 -58.95 54.65 L-49.3 53.8 Q-40.2 52.55 -29.25 45.25 -18.35 38.0 -12.35 20.35 -9.45 5.75 -4.65 -2.1 0.1 -9.95 6.95 -15.25 L22.75 -27.45 Q28.7 -33.05 29.5 -38.7 30.35 -44.35 30.5 -48.3 L31.95 -51.4 Q33.35 -54.25 35.35 -56.1 37.35 -58.0 39.25 -55.5 Z" fill="none" stroke="#000000" stroke-linecap="round" stroke-linejoin="round" stroke-width="0.6000000000000001"/>
  </g>
</svg>
