<?xml version="1.0" encoding="UTF-8" standalone="no"?>
<svg xmlns:xlink="http://www.w3.org/1999/xlink" height="79.6px" width="50.85px" xmlns="http://www.w3.org/2000/svg">
  <g transform="matrix(1.0, 0.0, 0.0, 1.0, 25.4, 39.8)">
    <path d="M17.7 -27.65 Q20.75 -24.85 23.45 -14.55 26.15 -4.25 24.6 8.2 23.05 20.65 13.35 29.8 3.6 39.0 -18.25 39.5 -25.1 27.55 -25.1 13.8 -25.1 0.05 -20.7 -11.05 -16.3 -22.2 -10.05 -26.4 -4.2 -30.7 -1.1 -34.95 2.05 -39.2 6.1 -39.5 9.9 -39.5 10.95 -36.6 12.0 -33.7 17.7 -27.65" fill="#f3e016" fill-rule="evenodd" stroke="none"/>
    <path d="M17.7 -27.65 Q12.0 -33.7 10.95 -36.6 9.9 -39.5 6.1 -39.5 2.05 -39.2 -1.1 -34.95 -4.2 -30.7 -10.05 -26.4 -16.3 -22.2 -20.7 -11.05 -25.1 0.05 -25.1 13.8 -25.1 27.55 -18.25 39.5 3.6 39.0 13.35 29.8 23.05 20.65 24.6 8.2 26.15 -4.25 23.45 -14.55 20.75 -24.85 17.7 -27.65 Z" fill="none" stroke="#000000" stroke-linecap="round" stroke-linejoin="round" stroke-width="0.6000000000000001"/>
    <path d="M17.0 16.0 Q17.5 16.35 17.2 17.85 16.85 19.3 16.25 19.2 15.75 18.85 16.05 17.35 16.45 15.95 17.0 16.0" fill="#000000" fill-rule="evenodd" stroke="none"/>
  </g>
</svg>
