<?xml version="1.0" encoding="UTF-8" standalone="no"?>
<svg xmlns:xlink="http://www.w3.org/1999/xlink" height="63.25px" width="33.25px" xmlns="http://www.w3.org/2000/svg">
  <g transform="matrix(1.0, 0.0, 0.0, 1.0, 16.65, 18.5)">
    <path d="M16.15 31.8 L-2.7 43.95 Q-4.85 45.05 -8.45 44.6 L-14.3 43.65 Q-16.75 43.2 -16.6 42.25 L-16.6 39.15 -15.0 39.15 -15.0 39.2 2.75 29.6 Q4.85 28.5 8.5 29.0 L14.3 28.05 15.05 28.25 15.05 27.85 16.6 27.85 16.6 31.1 Q16.65 31.45 16.15 31.8" fill="#000000" fill-rule="evenodd" stroke="none"/>
    <path d="M-8.5 41.3 L-14.3 40.35 Q-17.65 39.7 -16.2 38.5 L2.7 26.35 Q4.8 25.25 8.45 25.7 L14.25 26.65 Q17.55 27.3 16.1 28.55 L-2.75 40.7 Q-4.85 41.8 -8.5 41.3" fill="#404040" fill-rule="evenodd" stroke="none"/>
    <path d="M4.95 -17.25 L4.95 34.0 Q5.15 34.75 0.45 35.55 -5.05 34.8 -4.5 33.9 L-4.5 -17.25 4.95 -17.25" fill="#bb060a" fill-rule="evenodd" stroke="none"/>
    <path d="M-4.6 -17.05 Q-4.2 -18.4 0.1 -18.5 4.35 -18.4 4.8 -17.05 4.4 -15.75 0.1 -15.6 -4.2 -15.75 -4.6 -17.05" fill="#ff0000" fill-rule="evenodd" stroke="none"/>
  </g>
</svg>
