<?xml version="1.0" encoding="UTF-8" standalone="no"?>
<svg xmlns:xlink="http://www.w3.org/1999/xlink" height="28.25px" width="25.2px" xmlns="http://www.w3.org/2000/svg">
  <g transform="matrix(1.0, 0.0, 0.0, 1.0, 12.6, 14.15)">
    <path d="M2.5 -2.95 L2.5 13.7 Q2.25 14.05 1.0 14.1 L-0.5 13.7 -0.5 -2.95 2.5 -2.95" fill="#000000" fill-rule="evenodd" stroke="none"/>
    <path d="M6.9 -11.3 Q7.15 -13.9 9.75 -14.15 12.35 -13.9 12.6 -11.3 12.35 -8.7 9.75 -8.45 7.15 -8.7 6.9 -11.3" fill="#bb060a" fill-rule="evenodd" stroke="none"/>
    <path d="M-9.9 -4.4 L8.55 -13.85 11.7 -9.25 -5.5 4.05 -9.9 -4.4" fill="#bb060a" fill-rule="evenodd" stroke="none"/>
    <path d="M-12.6 -0.15 Q-12.2 -4.5 -7.85 -4.9 -3.5 -4.5 -3.05 -0.15 -3.45 4.2 -7.85 4.65 -12.2 4.25 -12.6 -0.15" fill="#ff0000" fill-rule="evenodd" stroke="none"/>
  </g>
</svg>
