<?xml version="1.0" encoding="UTF-8" standalone="no"?>
<svg xmlns:xlink="http://www.w3.org/1999/xlink" height="15.9px" width="32.7px" xmlns="http://www.w3.org/2000/svg">
  <g transform="matrix(1.0, 0.0, 0.0, 1.0, 16.35, 7.95)">
    <path d="M8.1 2.95 L8.9 3.15 9.1 3.2 8.9 3.15 8.1 2.95 M-8.75 -7.65 Q-4.5 -3.75 0.6 -1.15 5.65 1.45 9.55 2.1 16.4 4.05 16.05 4.8 L9.1 3.2 10.55 3.6 Q12.75 4.3 14.05 5.9 12.1 4.95 10.1 4.65 L8.0 4.35 9.9 5.15 Q11.65 5.95 12.95 7.65 10.0 5.9 6.85 5.25 L-8.55 0.05 -16.05 -2.55 -8.75 -7.65" fill="#4c8335" fill-rule="evenodd" stroke="none"/>
    <path d="M9.1 3.2 L8.9 3.15 8.1 2.95 M-16.05 -2.55 L-8.55 0.05 6.85 5.25 Q10.0 5.9 12.95 7.65 11.65 5.95 9.9 5.15 L8.0 4.35 10.1 4.65 Q12.1 4.95 14.05 5.9 12.75 4.3 10.55 3.6 L9.1 3.2 16.05 4.8 Q16.4 4.05 9.55 2.1 5.65 1.45 0.6 -1.15 -4.5 -3.75 -8.75 -7.65" fill="none" stroke="#000000" stroke-linecap="round" stroke-linejoin="round" stroke-width="0.6000000000000001"/>
  </g>
</svg>
