<?xml version="1.0" encoding="UTF-8" standalone="no"?>
<svg xmlns:xlink="http://www.w3.org/1999/xlink" height="9.35px" width="15.65px" xmlns="http://www.w3.org/2000/svg">
  <g transform="matrix(1.0, 0.0, 0.0, 1.0, 0.0, 0.0)">
    <path d="M15.55 3.95 Q15.85 5.85 15.1 7.3 14.4 8.7 13.05 9.0 11.65 9.2 10.55 8.1 9.4 6.95 9.05 5.05 8.75 3.15 9.45 1.75 10.15 0.3 11.5 0.0 12.9 -0.15 14.05 0.95 15.15 2.05 15.55 3.95" fill="#ffffff" fill-rule="evenodd" stroke="none"/>
    <path d="M15.55 3.95 Q15.85 5.85 15.1 7.3 14.4 8.7 13.05 9.0 11.65 9.2 10.55 8.1 9.4 6.95 9.05 5.05 8.75 3.15 9.45 1.75 10.15 0.3 11.5 0.0 12.9 -0.15 14.05 0.95 15.15 2.05 15.55 3.95 Z" fill="none" stroke="#223c17" stroke-linecap="round" stroke-linejoin="round" stroke-width="0.05"/>
    <path d="M13.65 5.95 L13.5 6.7 12.9 7.1 Q12.0 7.15 11.75 6.25 11.7 5.85 11.9 5.5 12.15 5.2 12.55 5.1 L13.25 5.3 13.65 5.95" fill="#000000" fill-rule="evenodd" stroke="none"/>
    <path d="M6.6 5.15 Q6.4 7.05 5.35 8.25 4.3 9.45 2.9 9.35 1.5 9.2 0.7 7.85 -0.15 6.45 0.0 4.55 0.2 2.6 1.25 1.4 2.3 0.2 3.7 0.3 5.1 0.45 5.9 1.85 6.7 3.2 6.6 5.15" fill="#ffffff" fill-rule="evenodd" stroke="none"/>
    <path d="M6.6 5.15 Q6.4 7.05 5.35 8.25 4.3 9.45 2.9 9.35 1.5 9.2 0.7 7.85 -0.15 6.45 0.0 4.55 0.2 2.6 1.25 1.4 2.3 0.2 3.7 0.3 5.1 0.45 5.9 1.85 6.7 3.2 6.6 5.15 Z" fill="none" stroke="#223c17" stroke-linecap="round" stroke-linejoin="round" stroke-width="0.05"/>
    <path d="M4.65 6.6 Q4.45 7.5 3.6 7.5 3.2 7.45 2.95 7.15 L2.75 6.4 Q2.9 5.5 3.8 5.5 L4.4 5.85 4.65 6.6" fill="#000000" fill-rule="evenodd" stroke="none"/>
  </g>
</svg>
