<?xml version="1.0" encoding="UTF-8" standalone="no"?>
<svg xmlns:xlink="http://www.w3.org/1999/xlink" height="76.65px" width="266.5px" xmlns="http://www.w3.org/2000/svg">
  <g transform="matrix(1.0, 0.0, 0.0, 1.0, 133.25, 38.3)">
    <path d="M133.25 36.6 L109.1 36.8 50.3 37.2 -22.75 37.75 -89.7 38.15 -130.15 38.35 Q-137.15 22.7 -128.3 13.2 -119.45 3.7 -104.7 1.1 -89.95 -1.45 -79.2 3.7 -77.25 -12.7 -67.0 -22.3 -56.75 -31.85 -44.1 -35.55 -31.5 -39.25 -22.55 -37.95 -3.75 -35.05 14.8 -23.4 33.35 -11.75 42.6 5.4 62.85 -8.2 79.5 -6.05 96.1 -3.95 108.1 5.85 120.15 15.65 126.65 24.9 133.15 34.2 133.25 34.9 L133.25 36.6" fill="#e6f6f9" fill-rule="evenodd" stroke="none"/>
  </g>
</svg>
