<?xml version="1.0" encoding="UTF-8" standalone="no"?>
<svg xmlns:xlink="http://www.w3.org/1999/xlink" height="151.55px" width="166.8px" xmlns="http://www.w3.org/2000/svg">
  <g transform="matrix(1.0, 0.0, 0.0, 1.0, -66.4, 159.85)">
    <path d="M157.15 -158.8 Q185.9 -154.35 210.55 -129.3 235.15 -104.25 233.05 -79.9 230.95 -55.55 215.15 -39.95 199.35 -24.35 157.1 -15.85 114.8 -7.35 79.95 -8.45 L68.35 -9.5 66.75 -8.95 66.6 -8.9 66.4 -8.85 66.55 -9.05 66.65 -9.1 66.85 -9.25 67.1 -9.3 67.6 -9.65 67.8 -9.7 69.25 -10.45 67.2 -30.35 Q65.3 -48.9 76.7 -91.2 88.0 -133.55 108.2 -148.4 128.35 -163.3 157.15 -158.8" fill="#ff0000" fill-rule="evenodd" stroke="none"/>
  </g>
</svg>
