<?xml version="1.0" encoding="UTF-8" standalone="no"?>
<svg xmlns:xlink="http://www.w3.org/1999/xlink" height="151.35px" width="168.25px" xmlns="http://www.w3.org/2000/svg">
  <g transform="matrix(1.0, 0.0, 0.0, 1.0, 84.1, 80.1)">
    <path d="M60.9 -50.85 Q85.7 -24.75 84.05 -0.35 82.35 24.05 65.6 39.65 48.85 55.2 6.6 63.7 -35.7 72.2 -70.55 71.1 L-82.15 70.05 -83.75 70.6 -83.9 70.65 -84.1 70.7 -83.95 70.5 -83.85 70.45 -83.65 70.3 -83.4 70.25 -82.9 69.9 -82.7 69.85 -81.25 69.1 Q-81.4 67.8 -80.75 49.25 -80.05 30.65 -72.85 -6.9 -65.7 -44.45 -45.55 -63.45 -25.4 -82.5 5.3 -79.75 36.0 -77.0 60.9 -50.85" fill="#ff0000" fill-rule="evenodd" stroke="none"/>
  </g>
</svg>
