<?xml version="1.0" encoding="UTF-8" standalone="no"?>
<svg xmlns:xlink="http://www.w3.org/1999/xlink" height="74.8px" width="139.9px" xmlns="http://www.w3.org/2000/svg">
  <g transform="matrix(1.0, 0.0, 0.0, 1.0, 69.95, 37.4)">
    <path d="M-3.75 37.4 L-12.1 37.4 -12.1 1.75 -3.75 1.75 -3.75 37.4" fill="#5a3d1b" fill-rule="evenodd" stroke="none"/>
    <path d="M-10.75 37.4 L-14.75 37.4 -14.75 1.75 -10.75 1.75 -10.75 37.4" fill="#6f4c22" fill-rule="evenodd" stroke="none"/>
    <path d="M-14.7 37.4 L-16.2 37.4 -16.2 1.75 -14.7 1.75 -14.7 37.4" fill="#995e27" fill-rule="evenodd" stroke="none"/>
    <path d="M48.7 -34.95 L43.35 4.35 -62.7 9.85 -66.2 7.6 -69.95 -35.55 43.8 -37.4 48.7 -34.95" fill="#d8a426" fill-rule="evenodd" stroke="none"/>
    <path d="M69.95 -13.4 L48.25 6.8 -62.7 10.05 -66.45 -33.1 48.7 -34.95 69.95 -13.4" fill="#ffff00" fill-rule="evenodd" stroke="none"/>
    <path d="M-3.95 34.1 L-8.1 8.5 -3.75 8.35 -3.95 34.1" fill="#4a3217" fill-rule="evenodd" stroke="none"/>
  </g>
</svg>
