<?xml version="1.0" encoding="UTF-8" standalone="no"?>
<svg xmlns:xlink="http://www.w3.org/1999/xlink" height="110.75px" width="169.5px" xmlns="http://www.w3.org/2000/svg">
  <g transform="matrix(1.0, 0.0, 0.0, 1.0, 84.75, 35.5)">
    <path d="M84.75 -16.25 Q84.35 -12.4 80.5 -12.05 L29.55 -12.05 Q25.7 -12.4 25.35 -16.25 L25.35 -31.3 Q25.7 -35.15 29.55 -35.5 L80.5 -35.5 Q84.35 -35.15 84.75 -31.3 L84.75 -16.25" fill="#ff0000" fill-rule="evenodd" stroke="none"/>
    <path d="M62.0 -20.95 L62.15 -27.65 69.25 -27.4 69.35 -32.85 78.8 -23.85 70.6 -14.85 69.8 -21.4 62.0 -20.95" fill="#ffffff" fill-rule="evenodd" stroke="none"/>
    <path d="M84.75 43.75 Q84.35 47.6 80.5 47.95 L29.55 47.95 Q25.7 47.6 25.35 43.75 L25.35 28.7 Q25.7 24.85 29.55 24.5 L80.5 24.5 Q84.35 24.85 84.75 28.7 L84.75 43.75" fill="#ff0000" fill-rule="evenodd" stroke="none"/>
    <path d="M62.0 39.05 L62.15 32.4 69.25 32.65 69.35 27.2 78.8 36.2 70.6 45.2 69.8 38.65 62.0 39.05" fill="#ffffff" fill-rule="evenodd" stroke="none"/>
    <path d="M84.75 71.05 Q84.4 74.9 80.55 75.25 L19.15 75.25 Q15.3 74.9 14.95 71.05 L14.95 56.0 Q15.3 52.15 19.15 51.8 L80.55 51.8 Q84.4 52.15 84.75 56.0 L84.75 71.05" fill="#ff0000" fill-rule="evenodd" stroke="none"/>
    <path d="M62.0 66.35 L62.15 59.65 69.25 59.9 69.35 54.45 78.8 63.45 70.6 72.45 69.8 65.9 62.0 66.35" fill="#ffffff" fill-rule="evenodd" stroke="none"/>
    <path d="M-29.6 75.25 L-80.55 75.25 Q-84.4 74.9 -84.75 71.05 L-84.75 56.0 Q-84.4 52.15 -80.55 51.8 L-29.6 51.8 Q-25.75 52.15 -25.4 56.0 L-25.4 71.05 Q-25.75 74.9 -29.6 75.25" fill="#ff0000" fill-rule="evenodd" stroke="none"/>
    <path d="M-62.5 66.5 L-70.3 66.05 -71.1 72.6 -79.3 63.6 -69.9 54.6 -69.75 60.05 -62.65 59.8 -62.5 66.5" fill="#ffffff" fill-rule="evenodd" stroke="none"/>
    <path d="M-29.6 47.95 L-80.55 47.95 Q-84.4 47.6 -84.75 43.75 L-84.75 28.7 Q-84.4 24.85 -80.55 24.5 L-29.6 24.5 Q-25.75 24.85 -25.4 28.7 L-25.4 43.75 Q-25.75 47.6 -29.6 47.95" fill="#ff0000" fill-rule="evenodd" stroke="none"/>
    <path d="M-62.5 39.2 L-70.3 38.75 -71.1 45.3 -79.3 36.3 -69.9 27.3 -69.75 32.75 -62.65 32.5 -62.5 39.2" fill="#ffffff" fill-rule="evenodd" stroke="none"/>
    <path d="M-19.15 -12.05 L-80.55 -12.05 Q-84.4 -12.4 -84.75 -16.25 L-84.75 -31.3 Q-84.4 -35.15 -80.55 -35.5 L-19.15 -35.5 Q-15.35 -35.15 -14.95 -31.3 L-14.95 -16.25 Q-15.3 -12.4 -19.15 -12.05" fill="#ff0000" fill-rule="evenodd" stroke="none"/>
    <path d="M-62.5 -20.8 L-70.3 -21.25 -71.1 -14.7 -79.3 -23.7 -69.9 -32.7 -69.75 -27.25 -62.65 -27.5 -62.5 -20.8" fill="#ffffff" fill-rule="evenodd" stroke="none"/>
  </g>
</svg>
