<?xml version="1.0" encoding="UTF-8" standalone="no"?>
<svg xmlns:xlink="http://www.w3.org/1999/xlink" height="99.35px" width="197.0px" xmlns="http://www.w3.org/2000/svg">
  <g transform="matrix(1.0, 0.0, 0.0, 1.0, 0.0, 0.0)">
    <path d="M61.7 28.4 L64.15 29.6 63.05 37.0 60.75 50.6 Q59.5 57.45 58.65 57.95 55.85 57.05 55.3 56.1 L61.7 28.4" fill="#9c5715" fill-rule="evenodd" stroke="none"/>
    <path d="M85.8 28.05 L92.2 55.75 Q91.65 56.7 88.85 57.6 88.05 57.1 86.75 50.25 85.45 43.4 84.45 36.65 L83.35 29.25 85.8 28.05" fill="#9c5715" fill-rule="evenodd" stroke="none"/>
    <path d="M76.25 29.8 L76.95 52.0 Q76.25 52.55 73.3 52.5 72.6 51.95 72.75 46.55 L73.25 35.8 73.65 30.1 76.25 29.8" fill="#73420d" fill-rule="evenodd" stroke="none"/>
    <path d="M91.65 26.95 L91.7 27.4 Q91.55 29.35 86.6 30.65 81.65 31.9 74.25 31.95 66.85 31.9 61.9 30.65 57.0 29.35 56.8 27.4 L56.85 27.2 56.8 27.2 56.8 23.6 65.2 23.6 74.25 22.95 83.35 23.6 91.65 23.6 91.65 26.95" fill="#9c5715" fill-rule="evenodd" stroke="none"/>
    <path d="M91.7 24.0 Q91.55 25.95 86.6 27.25 81.75 28.5 74.25 28.55 66.85 28.5 61.9 27.25 57.0 25.95 56.8 24.0 57.0 22.15 61.9 20.9 66.85 19.6 74.25 19.55 81.65 19.6 86.6 20.9 91.55 22.15 91.7 24.0" fill="#f37d19" fill-rule="evenodd" stroke="none"/>
    <path d="M151.05 86.85 L144.4 86.85 Q148.2 77.0 145.8 69.4 143.45 61.75 142.8 61.35 143.1 60.95 146.8 60.3 150.5 59.75 154.3 63.8 155.95 67.5 153.7 76.65 L151.05 86.85" fill="#51330e" fill-rule="evenodd" stroke="none"/>
    <path d="M163.15 78.65 L156.5 78.65 Q160.3 68.8 157.9 61.2 155.55 53.55 154.9 53.15 155.2 52.75 158.9 52.1 162.6 51.55 166.4 55.6 168.05 59.3 165.8 68.45 L163.15 78.65" fill="#51330e" fill-rule="evenodd" stroke="none"/>
    <path d="M181.4 81.05 Q180.9 79.95 178.7 70.85 176.45 61.75 178.05 58.0 181.8 53.9 184.9 54.3 187.95 54.65 188.15 55.05 188.45 56.05 188.15 58.2 186.65 60.95 185.65 67.1 184.7 73.2 188.05 81.05 L181.4 81.05" fill="#51330e" fill-rule="evenodd" stroke="none"/>
    <path d="M174.65 59.75 Q174.95 60.75 174.65 62.9 173.15 65.9 172.1 73.8 171.1 81.75 174.4 89.85 L167.75 89.85 166.35 83.6 Q165.05 77.7 164.2 71.3 163.35 64.85 164.6 62.7 168.4 58.6 171.45 59.0 174.55 59.35 174.65 59.75" fill="#51330e" fill-rule="evenodd" stroke="none"/>
    <path d="M194.9 33.6 Q191.2 45.85 189.45 47.6 188.0 48.3 182.15 48.6 L170.8 48.95 164.9 49.0 Q164.05 48.25 159.5 37.4 154.95 26.65 156.5 15.05 158.05 3.4 175.5 0.2 193.1 -1.35 195.8 10.0 198.6 21.2 194.9 33.6" fill="#ab300d" fill-rule="evenodd" stroke="none"/>
    <path d="M167.65 45.0 Q167.05 44.4 163.6 35.85 160.25 27.3 161.35 18.2 162.4 9.05 175.4 6.6 188.45 5.65 190.55 14.8 192.65 23.95 189.95 33.85 187.3 43.75 186.0 45.1 L176.25 45.45 167.65 45.0" fill="#e8290a" fill-rule="evenodd" stroke="none"/>
    <path d="M188.45 53.2 Q189.85 56.65 184.2 61.25 178.5 65.85 156.95 65.45 140.75 64.55 142.1 61.4 L142.1 54.7 149.15 54.7 149.15 56.15 Q153.85 54.1 157.95 52.75 L162.4 51.25 169.1 51.25 Q175.35 51.25 181.4 51.4 L181.4 47.35 188.45 47.35 188.45 53.2" fill="#e8290a" fill-rule="evenodd" stroke="none"/>
    <path d="M162.4 44.95 L168.55 44.95 180.35 45.1 187.65 45.45 Q188.8 45.95 188.45 49.5 188.1 53.1 181.4 56.4 174.7 59.6 156.95 59.15 139.85 58.15 142.25 54.75 144.55 51.35 152.9 48.3 161.3 45.15 162.4 44.95" fill="#ab300d" fill-rule="evenodd" stroke="none"/>
    <path d="M100.8 53.75 L107.1 53.05 Q107.25 75.9 113.4 85.8 119.55 95.7 120.5 95.5 120.0 96.25 109.75 98.6 99.5 100.9 85.45 96.0 100.8 81.7 101.35 68.2 101.95 54.75 100.8 53.75" fill="#ffffff" fill-rule="evenodd" stroke="none"/>
    <path d="M103.7 53.6 Q106.6 55.35 107.1 55.9 L107.4 62.0 Q107.65 67.65 108.7 72.45 107.95 75.8 105.45 77.5 102.85 79.1 99.45 76.65 L100.95 70.05 Q102.2 63.8 101.15 56.2 100.75 51.85 103.7 53.6" fill="#bebebe" fill-rule="evenodd" stroke="none"/>
    <path d="M138.3 44.9 L138.4 49.05 Q137.8 51.8 128.05 53.8 118.2 55.85 103.45 56.25 88.5 56.6 78.55 55.0 68.55 53.4 68.15 50.6 L68.15 50.4 67.9 50.4 67.85 46.2 74.6 46.05 74.7 46.6 Q84.8 43.85 103.1 43.25 121.2 42.9 131.55 45.25 L131.55 45.0 138.3 44.9" fill="#7c7c7d" fill-rule="evenodd" stroke="none"/>
    <path d="M138.25 44.75 Q137.95 47.5 128.1 49.55 118.2 51.65 103.25 52.05 L78.4 50.8 Q68.4 49.2 68.0 46.4 68.3 43.6 78.2 41.6 88.05 39.5 103.0 39.05 117.95 38.8 127.85 40.4 137.85 41.95 138.25 44.75" fill="#ffffff" fill-rule="evenodd" stroke="none"/>
    <path d="M15.9 88.5 Q15.65 91.85 12.2 92.2 8.75 91.95 8.45 88.5 8.8 85.05 12.2 84.75 15.55 85.1 15.9 88.5" fill="#000000" fill-rule="evenodd" stroke="none"/>
    <path d="M37.25 89.7 Q37.0 93.05 33.55 93.4 30.1 93.15 29.8 89.7 30.15 86.25 33.55 85.95 36.9 86.3 37.25 89.7" fill="#000000" fill-rule="evenodd" stroke="none"/>
    <path d="M40.25 78.6 Q39.9 81.6 36.9 81.95 33.85 81.6 33.55 78.6 33.85 75.55 36.9 75.25 39.9 75.55 40.25 78.6" fill="#000000" fill-rule="evenodd" stroke="none"/>
    <path d="M19.75 76.15 Q19.4 79.15 16.4 79.5 13.35 79.15 13.05 76.15 13.35 73.1 16.4 72.8 19.4 73.1 19.75 76.15" fill="#000000" fill-rule="evenodd" stroke="none"/>
    <path d="M27.65 79.7 L22.5 79.7 22.5 64.85 27.65 64.85 27.65 79.7" fill="#3b3b3b" fill-rule="evenodd" stroke="none"/>
    <path d="M45.9 61.55 L46.05 62.15 Q45.85 64.35 40.2 65.8 34.55 67.25 26.1 67.35 17.55 67.25 11.9 65.8 6.25 64.35 6.05 62.15 L6.1 61.8 6.05 61.8 6.05 57.75 15.7 57.75 26.1 57.0 36.5 57.75 45.9 57.75 45.9 61.55" fill="#182c61" fill-rule="evenodd" stroke="none"/>
    <path d="M46.05 58.2 Q45.85 60.4 40.2 61.85 34.55 63.3 26.1 63.4 17.55 63.3 11.9 61.85 6.25 60.4 6.05 58.2 6.25 56.0 11.9 54.6 17.55 53.1 26.1 53.05 34.55 53.1 40.2 54.6 45.85 56.0 46.05 58.2" fill="#224ea0" fill-rule="evenodd" stroke="none"/>
    <path d="M9.55 55.25 L10.2 45.35 15.0 44.7 15.05 47.9 15.15 53.9 Q10.05 54.9 9.55 55.25" fill="#3b3b3b" fill-rule="evenodd" stroke="none"/>
    <path d="M27.1 39.5 Q26.8 44.25 23.05 45.45 L7.75 48.5 Q0.85 49.2 0.0 42.3 L0.0 36.2 Q0.85 29.15 7.75 28.95 L23.05 30.05 Q26.8 30.75 27.1 35.5 L27.1 39.5" fill="#182c61" fill-rule="evenodd" stroke="none"/>
    <path d="M27.2 39.5 Q26.95 44.25 23.6 45.45 L9.85 48.5 Q3.7 49.2 2.95 42.3 L2.95 36.2 Q3.65 29.15 9.85 28.95 L23.6 30.05 Q26.95 30.75 27.2 35.5 L27.2 39.5" fill="#224ea0" fill-rule="evenodd" stroke="none"/>
    <path d="M25.9 77.2 L35.55 73.65 38.75 75.6 28.15 79.25 37.35 87.4 32.4 88.8 24.9 80.75 11.6 87.0 7.95 83.75 21.9 78.45 13.9 72.25 20.85 72.75 25.9 77.2" fill="#3b3b3b" fill-rule="evenodd" stroke="none"/>
  </g>
</svg>
