<?xml version="1.0" encoding="UTF-8" standalone="no"?>
<svg xmlns:xlink="http://www.w3.org/1999/xlink" height="14.95px" width="52.05px" xmlns="http://www.w3.org/2000/svg">
  <g transform="matrix(1.0, 0.0, 0.0, 1.0, -79.05, -30.7)">
    <path d="M117.25 32.0 L131.1 32.0 127.85 44.55 Q127.45 45.2 124.15 45.25 120.8 45.2 120.4 44.55 L117.25 32.0" fill="#e8290a" fill-rule="evenodd" stroke="none"/>
    <path d="M131.1 31.95 Q130.45 33.15 124.15 33.2 117.8 33.15 117.25 31.95 117.8 30.85 124.15 30.7 130.45 30.85 131.1 31.95" fill="#ab300d" fill-rule="evenodd" stroke="none"/>
    <path d="M79.05 32.4 L92.9 32.4 89.65 44.95 Q89.25 45.6 85.95 45.65 82.6 45.6 82.2 44.95 L79.05 32.4" fill="#f7f62e" fill-rule="evenodd" stroke="none"/>
    <path d="M92.9 32.4 Q92.25 33.6 85.95 33.65 79.6 33.6 79.05 32.4 79.6 31.3 85.95 31.15 92.25 31.3 92.9 32.4" fill="#fbd413" fill-rule="evenodd" stroke="none"/>
  </g>
</svg>
