<?xml version="1.0" encoding="UTF-8" standalone="no"?>
<svg xmlns:xlink="http://www.w3.org/1999/xlink" height="19.95px" width="31.8px" xmlns="http://www.w3.org/2000/svg">
  <g transform="matrix(1.0, 0.0, 0.0, 1.0, -87.9, -30.3)">
    <path d="M119.7 43.65 Q118.6 49.5 107.3 50.05 96.1 49.5 95.05 43.65 96.1 37.8 107.3 37.25 118.6 37.8 119.7 43.65" fill="#9c5715" fill-rule="evenodd" stroke="none"/>
    <path d="M97.5 42.45 Q98.55 48.25 109.75 48.85 114.4 48.75 117.65 47.35 114.15 50.15 107.3 50.25 96.1 49.75 95.05 43.85 95.25 40.8 99.45 38.95 97.6 40.45 97.5 42.45" fill="#73420d" fill-rule="evenodd" stroke="none"/>
    <path d="M118.95 42.45 Q118.1 47.0 109.25 47.45 100.4 47.1 99.5 42.45 100.4 37.8 109.25 37.35 118.1 37.8 118.95 42.45" fill="#b76a14" fill-rule="evenodd" stroke="none"/>
    <path d="M116.9 42.1 Q116.1 46.4 107.9 46.75 99.65 46.4 98.85 42.1 99.65 37.7 107.9 37.35 116.1 37.8 116.9 42.1" fill="#9c5715" fill-rule="evenodd" stroke="none"/>
    <path d="M100.55 41.2 Q101.15 37.85 107.55 37.5 114.05 37.85 114.65 41.2 114.05 44.5 107.55 44.85 101.15 44.5 100.55 41.2" fill="#b76a14" fill-rule="evenodd" stroke="none"/>
    <path d="M102.0 41.0 Q102.55 37.85 108.55 37.6 114.55 37.85 115.05 41.0 114.55 44.1 108.55 44.45 102.55 44.1 102.0 41.0" fill="#9c5715" fill-rule="evenodd" stroke="none"/>
    <path d="M104.5 41.7 L103.8 41.45 104.15 40.75 104.75 41.1 104.5 41.7" fill="#ffffff" fill-rule="evenodd" stroke="none"/>
    <path d="M106.7 39.9 L106.0 39.65 106.35 38.95 106.95 39.3 106.7 39.9" fill="#ffffff" fill-rule="evenodd" stroke="none"/>
    <path d="M108.2 41.45 L107.5 41.2 107.85 40.5 108.45 40.85 108.2 41.45" fill="#ffffff" fill-rule="evenodd" stroke="none"/>
    <path d="M111.0 39.9 L110.3 39.65 110.65 38.95 111.25 39.3 111.0 39.9" fill="#ffffff" fill-rule="evenodd" stroke="none"/>
    <path d="M112.0 42.25 L111.3 42.0 111.65 41.3 112.25 41.65 112.0 42.25" fill="#ffffff" fill-rule="evenodd" stroke="none"/>
    <path d="M110.55 43.45 L109.85 43.2 110.2 42.5 110.8 42.85 110.55 43.45" fill="#ffffff" fill-rule="evenodd" stroke="none"/>
    <path d="M109.5 42.4 L108.8 42.15 109.15 41.45 109.75 41.8 109.5 42.4" fill="#ffffff" fill-rule="evenodd" stroke="none"/>
    <path d="M108.7 39.55 L108.0 39.3 108.35 38.6 108.95 38.95 108.7 39.55" fill="#ffffff" fill-rule="evenodd" stroke="none"/>
    <path d="M109.55 40.7 L108.85 40.45 109.2 39.75 109.8 40.1 109.55 40.7" fill="#ffffff" fill-rule="evenodd" stroke="none"/>
    <path d="M107.1 42.6 L106.4 42.35 106.75 41.65 107.35 42.0 107.1 42.6" fill="#ffffff" fill-rule="evenodd" stroke="none"/>
    <path d="M112.75 40.5 L112.05 40.25 112.4 39.55 113.0 39.9 112.75 40.5" fill="#ffffff" fill-rule="evenodd" stroke="none"/>
    <path d="M108.5 32.1 Q111.0 37.45 102.15 44.55 92.8 50.6 88.5 46.5 85.85 41.15 94.7 34.15 104.2 28.0 108.5 32.1" fill="#9c5715" fill-rule="evenodd" stroke="none"/>
    <path d="M89.75 44.0 Q94.05 48.1 103.4 42.0 107.2 39.25 109.0 36.2 107.7 40.6 102.25 44.6 92.9 50.75 88.6 46.65 86.95 44.0 89.3 40.05 88.6 42.4 89.75 44.0" fill="#73420d" fill-rule="evenodd" stroke="none"/>
    <path d="M106.9 31.6 Q108.9 35.9 102.0 41.45 94.55 46.25 91.15 43.0 89.1 38.7 96.05 33.2 103.55 28.35 106.9 31.6" fill="#b76a14" fill-rule="evenodd" stroke="none"/>
    <path d="M95.15 33.95 Q102.05 29.4 105.2 32.5 107.05 36.4 100.65 41.6 93.65 46.05 90.6 43.1 88.65 39.15 95.15 33.95" fill="#9c5715" fill-rule="evenodd" stroke="none"/>
    <path d="M91.35 41.35 Q89.95 38.3 94.95 34.25 100.4 30.75 102.85 33.1 104.3 36.2 99.25 40.2 93.9 43.7 91.35 41.35" fill="#b76a14" fill-rule="evenodd" stroke="none"/>
    <path d="M92.45 40.35 Q91.15 37.45 95.8 33.7 100.8 30.45 103.05 32.65 104.45 35.5 99.7 39.2 94.75 42.55 92.45 40.35" fill="#9c5715" fill-rule="evenodd" stroke="none"/>
    <path d="M94.95 39.45 L94.15 39.65 94.05 38.85 94.75 38.75 94.95 39.45" fill="#ffffff" fill-rule="evenodd" stroke="none"/>
    <path d="M95.55 36.65 L94.75 36.85 94.65 36.05 95.35 35.95 95.55 36.65" fill="#ffffff" fill-rule="evenodd" stroke="none"/>
    <path d="M97.7 37.05 L96.9 37.25 96.8 36.45 97.5 36.35 97.7 37.05" fill="#ffffff" fill-rule="evenodd" stroke="none"/>
    <path d="M99.1 34.1 L98.3 34.3 98.2 33.5 98.9 33.4 99.1 34.1" fill="#ffffff" fill-rule="evenodd" stroke="none"/>
    <path d="M101.3 35.5 L100.5 35.7 100.4 34.9 101.1 34.8 101.3 35.5" fill="#ffffff" fill-rule="evenodd" stroke="none"/>
    <path d="M100.85 37.3 L100.05 37.5 99.95 36.7 100.65 36.6 100.85 37.3" fill="#ffffff" fill-rule="evenodd" stroke="none"/>
    <path d="M99.45 37.05 L98.65 37.25 98.55 36.45 99.25 36.35 99.45 37.05" fill="#ffffff" fill-rule="evenodd" stroke="none"/>
    <path d="M97.0 35.3 L96.2 35.5 96.1 34.7 96.8 34.6 97.0 35.3" fill="#ffffff" fill-rule="evenodd" stroke="none"/>
    <path d="M98.5 35.7 L97.7 35.9 97.6 35.1 98.3 35.0 98.5 35.7" fill="#ffffff" fill-rule="evenodd" stroke="none"/>
    <path d="M97.6 38.55 L96.8 38.75 96.7 37.95 97.4 37.85 97.6 38.55" fill="#ffffff" fill-rule="evenodd" stroke="none"/>
    <path d="M100.85 33.75 L100.05 33.95 99.95 33.15 100.65 33.05 100.85 33.75" fill="#ffffff" fill-rule="evenodd" stroke="none"/>
  </g>
</svg>
