<?xml version="1.0" encoding="UTF-8" standalone="no"?>
<svg xmlns:xlink="http://www.w3.org/1999/xlink" height="183.5px" width="386.95px" xmlns="http://www.w3.org/2000/svg">
  <g transform="matrix(1.0, 0.0, 0.0, 1.0, 1.5, 5.0)">
    <path d="M57.5 -0.75 L57.25 -0.75 Q54.0 -0.65 52.1 5.7 50.2 12.15 49.9 14.0 L64.75 14.0 59.0 1.0 57.5 -0.75 M119.15 -0.1 L118.2 0.95 117.0 2.35 114.0 14.05 126.75 14.0 Q125.2 5.95 120.65 1.15 L119.8 -0.05 119.15 -0.1 M190.5 8.6 Q189.95 10.85 189.5 13.75 L201.25 13.8 Q201.8 13.25 200.95 13.25 200.15 13.15 199.7 9.75 L198.85 4.4 Q198.55 3.35 197.75 2.25 197.05 1.1 193.9 -0.45 192.3 0.8 191.6 2.55 L190.5 8.6 M336.5 -0.5 L336.4 -0.4 Q335.25 0.6 334.25 2.15 L333.35 5.6 333.25 8.2 Q331.7 10.45 331.65 11.9 331.6 13.3 332.45 13.65 L336.05 13.9 339.8 13.9 Q342.65 13.9 342.8 13.3 342.95 12.65 343.85 10.7 344.7 8.75 342.7 5.45 341.35 3.15 339.55 0.95 338.4 -0.55 336.5 -0.5 M265.1 -0.95 L264.95 -0.45 Q263.4 0.6 261.75 2.75 L261.75 9.05 Q261.7 11.15 260.55 13.8 L262.55 13.95 270.35 13.85 268.8 13.8 269.0 13.55 270.25 11.6 Q271.05 10.3 270.8 8.7 270.4 5.95 269.2 3.75 267.7 0.95 265.1 -0.95 M385.45 178.5 L-1.5 178.5 -1.5 -5.0 385.45 -5.0 385.45 178.5" fill="#000000" fill-opacity="0.2901961" fill-rule="evenodd" stroke="none"/>
  </g>
</svg>
