<?xml version="1.0" encoding="UTF-8" standalone="no"?>
<svg xmlns:xlink="http://www.w3.org/1999/xlink" height="139.25px" width="50.6px" xmlns="http://www.w3.org/2000/svg">
  <g transform="matrix(1.0, 0.0, 0.0, 1.0, 17.25, 0.0)">
    <path d="M8.75 1.4 L9.6 1.7 Q13.05 6.65 12.4 15.8 11.75 24.95 9.1 34.75 6.55 44.2 4.1 50.9 2.75 50.4 1.4 50.4 L2.1 47.8 Q3.95 41.2 5.85 31.75 7.75 22.25 8.1 13.45 8.3 8.05 7.25 4.25 8.2 2.75 9.35 1.65 L8.75 1.4" fill="#bf1f0b" fill-rule="evenodd" stroke="none"/>
    <path d="M7.25 4.25 Q4.85 8.0 3.6 14.45 1.75 23.45 1.35 33.6 0.95 43.3 1.1 50.4 L-0.4 50.5 -0.75 47.5 Q-1.6 40.6 -1.85 30.9 -2.15 21.2 -0.6 12.55 0.9 3.85 5.5 0.0 L7.65 0.95 8.75 1.4 9.35 1.65 Q8.2 2.75 7.25 4.25" fill="#f72d1e" fill-rule="evenodd" stroke="none"/>
    <path d="M9.0 92.55 Q9.4 92.55 13.3 95.2 17.25 97.9 19.95 103.55 22.7 109.2 19.55 118.05 17.05 124.65 18.7 128.85 20.35 133.05 23.8 135.3 27.2 137.6 30.2 138.45 L33.35 139.25 30.0 138.7 Q26.8 138.15 23.2 136.0 19.55 133.9 17.9 129.4 16.25 124.9 19.05 117.1 21.8 109.1 19.2 103.65 16.6 98.2 13.0 95.4 L9.0 92.55" fill="#ffffff" fill-rule="evenodd" stroke="none"/>
    <path d="M13.5 104.45 Q13.6 105.25 12.15 106.0 10.7 106.8 8.4 107.25 L4.45 107.5 Q2.8 107.3 2.6 106.55 2.5 105.8 3.95 105.0 5.4 104.2 7.7 103.75 L11.7 103.5 Q13.3 103.7 13.5 104.45" fill="#85825a" fill-rule="evenodd" stroke="none"/>
    <path d="M13.5 104.6 L2.6 106.7 1.5 101.0 12.4 98.9 13.5 104.6" fill="#85825a" fill-rule="evenodd" stroke="none"/>
    <path d="M22.35 96.1 Q22.6 98.2 18.45 100.45 14.3 102.65 7.65 104.0 1.0 105.2 -3.65 104.7 -8.35 104.2 -8.95 102.15 -9.15 100.1 -5.0 97.9 -0.85 95.65 5.8 94.35 12.45 93.1 17.1 93.6 21.8 94.1 22.35 96.1" fill="#ffffff" fill-rule="evenodd" stroke="none"/>
    <path d="M14.05 52.85 L22.45 96.25 -8.85 102.3 -17.25 58.9 14.05 52.85" fill="#ffffff" fill-rule="evenodd" stroke="none"/>
    <path d="M14.1 52.9 Q14.35 55.1 10.2 57.35 6.05 59.65 -0.6 61.0 L-11.95 61.65 Q-16.65 61.05 -17.25 58.95 -17.45 56.75 -13.3 54.45 -9.2 52.2 -2.55 50.85 L8.85 50.2 Q13.55 50.75 14.1 52.9" fill="#cccccc" fill-rule="evenodd" stroke="none"/>
    <path d="M12.05 53.15 Q12.25 55.05 8.6 57.05 5.0 59.05 -0.8 60.25 L-10.75 60.8 Q-14.9 60.3 -15.4 58.45 -15.65 56.55 -12.0 54.55 -8.35 52.55 -2.55 51.35 L7.4 50.8 Q11.5 51.3 12.05 53.15 Z" fill="none" stroke="#ffffff" stroke-linecap="round" stroke-linejoin="round" stroke-width="1.0"/>
    <path d="M7.8 53.5 Q7.95 55.1 4.95 56.75 1.9 58.45 -2.95 59.4 L-11.3 59.9 Q-14.7 59.5 -15.15 57.9 -15.35 56.3 -12.3 54.65 -9.25 53.0 -4.4 52.0 L3.95 51.5 Q7.35 51.95 7.8 53.5 Z" fill="none" stroke="#ffffff" stroke-linecap="round" stroke-linejoin="round" stroke-width="0.8500000000000001"/>
    <path d="M5.5 56.35 Q2.65 57.95 -1.85 58.85 L-9.6 59.3 Q-12.75 58.9 -13.15 57.45 -13.35 55.95 -10.5 54.4 -7.7 52.85 -3.15 51.95 L4.55 51.5 Q7.75 51.9 8.15 53.35 8.3 54.8 5.5 56.35 Z" fill="none" stroke="#ffffff" stroke-linecap="round" stroke-linejoin="round" stroke-width="0.8"/>
    <path d="M14.95 58.15 Q13.55 59.95 9.65 61.7 5.75 63.4 0.35 64.5 L-9.75 65.35 Q-14.2 65.15 -15.95 63.75 -13.4 64.65 -9.1 64.65 L0.35 63.7 Q10.3 61.6 14.95 58.15" fill="#cccccc" fill-rule="evenodd" stroke="none"/>
    <path d="M15.55 61.05 Q14.15 62.85 10.25 64.6 6.35 66.3 0.95 67.4 L-9.15 68.25 Q-13.6 68.05 -15.35 66.65 -12.8 67.55 -8.5 67.55 L0.95 66.6 Q10.9 64.5 15.55 61.05" fill="#cccccc" fill-rule="evenodd" stroke="none"/>
    <path d="M16.1 63.9 Q14.7 65.7 10.8 67.45 6.9 69.15 1.5 70.25 L-8.6 71.1 Q-13.05 70.9 -14.8 69.5 -12.25 70.4 -7.95 70.4 L1.5 69.45 Q11.45 67.35 16.1 63.9" fill="#cccccc" fill-rule="evenodd" stroke="none"/>
    <path d="M16.7 66.75 Q15.3 68.55 11.4 70.3 7.5 72.0 2.1 73.1 L-8.0 73.95 Q-12.45 73.75 -14.2 72.35 -11.65 73.25 -7.35 73.25 L2.1 72.3 Q12.05 70.2 16.7 66.75" fill="#cccccc" fill-rule="evenodd" stroke="none"/>
    <path d="M17.2 69.7 Q15.8 71.5 11.9 73.25 8.0 74.95 2.6 76.05 L-7.5 76.9 Q-11.95 76.7 -13.7 75.3 -11.15 76.2 -6.85 76.2 L2.6 75.25 Q12.55 73.15 17.2 69.7" fill="#cccccc" fill-rule="evenodd" stroke="none"/>
    <path d="M17.75 72.55 Q16.35 74.35 12.45 76.1 8.55 77.8 3.15 78.9 L-6.95 79.75 Q-11.4 79.55 -13.15 78.15 -10.6 79.05 -6.3 79.05 L3.15 78.1 Q13.1 76.0 17.75 72.55" fill="#cccccc" fill-rule="evenodd" stroke="none"/>
    <path d="M18.35 75.45 Q16.95 77.25 13.05 79.0 9.15 80.7 3.75 81.8 L-6.35 82.65 Q-10.8 82.45 -12.55 81.05 -10.0 81.95 -5.7 81.95 L3.75 81.0 Q13.7 78.9 18.35 75.45" fill="#cccccc" fill-rule="evenodd" stroke="none"/>
    <path d="M18.85 78.35 Q17.45 80.15 13.55 81.9 9.65 83.6 4.25 84.7 L-5.85 85.55 Q-10.3 85.35 -12.05 83.95 -9.5 84.85 -5.2 84.85 L4.25 83.9 Q14.2 81.8 18.85 78.35" fill="#cccccc" fill-rule="evenodd" stroke="none"/>
    <path d="M19.45 81.25 Q18.05 83.05 14.15 84.8 10.25 86.5 4.85 87.6 L-5.25 88.45 Q-9.7 88.25 -11.45 86.85 -8.9 87.75 -4.6 87.75 L4.85 86.8 Q14.8 84.7 19.45 81.25" fill="#cccccc" fill-rule="evenodd" stroke="none"/>
    <path d="M20.0 84.1 Q18.6 85.9 14.7 87.65 10.8 89.35 5.4 90.45 L-4.7 91.3 Q-9.15 91.1 -10.9 89.7 -8.35 90.6 -4.05 90.6 L5.4 89.65 Q15.35 87.55 20.0 84.1" fill="#cccccc" fill-rule="evenodd" stroke="none"/>
    <path d="M20.6 87.0 Q19.2 88.8 15.3 90.55 11.4 92.25 6.0 93.35 L-4.1 94.2 Q-8.55 94.0 -10.3 92.6 -7.75 93.5 -3.45 93.5 L6.0 92.55 Q15.95 90.45 20.6 87.0" fill="#cccccc" fill-rule="evenodd" stroke="none"/>
    <path d="M21.1 89.9 Q19.7 91.7 15.8 93.45 11.9 95.15 6.5 96.25 L-3.6 97.1 Q-8.05 96.9 -9.8 95.5 -7.25 96.4 -2.95 96.4 L6.5 95.45 Q16.45 93.35 21.1 89.9" fill="#cccccc" fill-rule="evenodd" stroke="none"/>
    <path d="M21.65 92.75 Q20.25 94.55 16.35 96.3 12.45 98.0 7.05 99.1 L-3.05 99.95 Q-7.5 99.75 -9.25 98.35 -6.7 99.25 -2.4 99.25 L7.05 98.3 Q17.0 96.2 21.65 92.75" fill="#cccccc" fill-rule="evenodd" stroke="none"/>
    <path d="M22.25 95.65 Q20.85 97.45 16.95 99.2 13.05 100.9 7.65 102.0 L-2.45 102.85 Q-6.9 102.65 -8.65 101.25 -6.1 102.15 -1.8 102.15 L7.65 101.2 Q17.6 99.1 22.25 95.65" fill="#cccccc" fill-rule="evenodd" stroke="none"/>
    <path d="M21.6 93.7 Q20.3 95.6 16.5 97.45 12.7 99.4 7.35 100.7 1.65 102.05 -2.75 102.05 -7.2 102.0 -9.0 100.75 L-2.1 101.3 Q2.15 101.1 7.3 99.9 17.15 97.35 21.6 93.7" fill="#cccccc" fill-rule="evenodd" stroke="none"/>
    <path d="M21.2 90.9 Q19.9 92.8 16.1 94.65 12.3 96.6 6.95 97.9 1.25 99.25 -3.15 99.25 -7.6 99.2 -9.4 97.95 L-2.5 98.5 Q1.75 98.3 6.9 97.1 16.75 94.55 21.2 90.9" fill="#cccccc" fill-rule="evenodd" stroke="none"/>
    <path d="M20.85 88.1 Q19.55 90.0 15.75 91.85 11.95 93.8 6.6 95.1 0.9 96.45 -3.5 96.45 -7.95 96.4 -9.75 95.15 L-2.85 95.7 Q1.4 95.5 6.55 94.3 16.4 91.75 20.85 88.1" fill="#cccccc" fill-rule="evenodd" stroke="none"/>
    <path d="M20.45 85.35 Q19.15 87.25 15.35 89.1 11.55 91.05 6.2 92.35 0.5 93.7 -3.9 93.7 -8.35 93.65 -10.15 92.4 L-3.25 92.95 Q1.0 92.75 6.15 91.55 16.0 89.0 20.45 85.35" fill="#cccccc" fill-rule="evenodd" stroke="none"/>
    <path d="M20.1 82.6 Q18.8 84.5 15.0 86.35 11.2 88.3 5.85 89.6 0.15 90.95 -4.25 90.95 -8.7 90.9 -10.5 89.65 L-3.6 90.2 Q0.65 90.0 5.8 88.8 15.65 86.25 20.1 82.6" fill="#cccccc" fill-rule="evenodd" stroke="none"/>
    <path d="M19.7 79.85 Q18.4 81.75 14.6 83.6 10.8 85.55 5.45 86.85 -0.25 88.2 -4.65 88.2 -9.1 88.15 -10.9 86.9 L-4.0 87.45 Q0.25 87.25 5.4 86.05 15.25 83.5 19.7 79.85" fill="#cccccc" fill-rule="evenodd" stroke="none"/>
    <path d="M19.3 77.05 Q18.0 78.95 14.2 80.8 10.4 82.75 5.05 84.05 -0.65 85.4 -5.05 85.4 -9.5 85.35 -11.3 84.1 L-4.4 84.65 Q-0.15 84.45 5.0 83.25 14.85 80.7 19.3 77.05" fill="#cccccc" fill-rule="evenodd" stroke="none"/>
    <path d="M18.95 74.3 Q17.65 76.2 13.85 78.05 10.05 80.0 4.7 81.3 -1.0 82.65 -5.4 82.65 -9.85 82.6 -11.65 81.35 L-4.75 81.9 Q-0.5 81.7 4.65 80.5 14.5 77.95 18.95 74.3" fill="#cccccc" fill-rule="evenodd" stroke="none"/>
    <path d="M17.3 70.55 Q16.0 72.45 12.2 74.3 8.4 76.25 3.05 77.55 -2.65 78.9 -7.05 78.9 -11.5 78.85 -13.3 77.6 L-6.4 78.15 Q-2.15 77.95 3.0 76.75 12.85 74.2 17.3 70.55" fill="#cccccc" fill-rule="evenodd" stroke="none"/>
    <path d="M16.8 67.5 Q15.55 69.4 11.8 71.4 8.0 73.35 2.7 74.8 -2.95 76.2 -7.4 76.3 -11.8 76.4 -13.65 75.1 L-6.75 75.55 Q-2.5 75.25 2.65 73.95 12.45 71.25 16.8 67.5" fill="#cccccc" fill-rule="evenodd" stroke="none"/>
    <path d="M16.25 64.75 Q15.0 66.65 11.25 68.65 7.45 70.6 2.15 72.05 -3.5 73.45 -7.95 73.55 -12.35 73.65 -14.2 72.35 L-7.3 72.8 Q-3.05 72.5 2.1 71.2 11.9 68.5 16.25 64.75" fill="#cccccc" fill-rule="evenodd" stroke="none"/>
    <path d="M15.55 61.9 Q14.3 63.8 10.55 65.8 6.75 67.75 1.45 69.2 -4.2 70.6 -8.65 70.7 -13.05 70.8 -14.9 69.5 L-8.0 69.95 Q-3.75 69.65 1.4 68.35 11.2 65.65 15.55 61.9" fill="#cccccc" fill-rule="evenodd" stroke="none"/>
    <path d="M15.3 58.2 Q14.05 60.1 10.3 62.1 6.5 64.05 1.2 65.5 -4.45 66.9 -8.9 67.0 -13.3 67.1 -15.15 65.8 L-8.25 66.25 Q-4.0 65.95 1.15 64.65 10.95 61.95 15.3 58.2" fill="#cccccc" fill-rule="evenodd" stroke="none"/>
    <path d="M14.3 55.3 Q13.05 57.2 9.3 59.2 5.5 61.15 0.2 62.6 -5.45 64.0 -9.9 64.1 -14.3 64.2 -16.15 62.9 L-9.25 63.35 Q-5.0 63.05 0.15 61.75 9.95 59.05 14.3 55.3" fill="#cccccc" fill-rule="evenodd" stroke="none"/>
    <path d="M3.6 53.45 Q3.7 54.25 2.25 55.0 0.8 55.8 -1.5 56.25 L-5.45 56.5 Q-7.1 56.3 -7.3 55.55 -7.4 54.8 -5.95 54.0 -4.5 53.2 -2.2 52.75 L1.8 52.5 Q3.4 52.7 3.6 53.45" fill="#85825a" fill-rule="evenodd" stroke="none"/>
    <path d="M3.65 53.6 L-7.25 55.7 -8.35 50.0 2.55 47.9 3.65 53.6" fill="#85825a" fill-rule="evenodd" stroke="none"/>
    <path d="M2.55 48.0 Q2.65 48.8 1.2 49.55 -0.25 50.35 -2.55 50.8 L-6.5 51.05 Q-8.15 50.85 -8.35 50.1 -8.45 49.35 -7.0 48.55 -5.55 47.75 -3.25 47.3 L0.75 47.05 Q2.35 47.25 2.55 48.0" fill="#656243" fill-rule="evenodd" stroke="none"/>
  </g>
</svg>
