<?xml version="1.0" encoding="UTF-8" standalone="no"?>
<svg xmlns:xlink="http://www.w3.org/1999/xlink" height="165.85px" width="48.75px" xmlns="http://www.w3.org/2000/svg">
  <g transform="matrix(1.0, 0.0, 0.0, 1.0, 24.35, 0.0)">
    <path d="M0.8 4.2 Q1.75 2.75 2.9 1.65 L2.1 1.35 3.15 1.7 Q6.65 6.65 5.95 15.8 5.3 24.95 2.65 34.7 0.0 44.5 -2.5 51.35 L-3.8 55.0 -5.25 54.7 -5.3 51.45 -4.3 47.8 Q-2.5 41.2 -0.55 31.75 1.35 22.25 1.65 13.45 1.85 8.05 0.8 4.2 M-0.85 0.05 L-0.95 0.0 -0.85 0.05" fill="#bf1f0b" fill-rule="evenodd" stroke="none"/>
    <path d="M2.1 1.35 L2.9 1.65 Q1.75 2.75 0.8 4.2 -1.6 8.0 -2.9 14.45 -4.7 23.45 -5.1 33.6 -5.55 43.8 -5.35 51.1 L-5.3 51.45 -5.25 54.7 -6.3 54.55 -7.25 47.45 Q-8.05 40.6 -8.3 30.9 -8.6 21.2 -7.05 12.55 -5.55 3.85 -1.0 0.0 L-0.95 0.0 -0.85 0.05 Q0.45 0.7 1.2 0.95 L2.1 1.35" fill="#f72d1e" fill-rule="evenodd" stroke="none"/>
    <path d="M-5.25 54.7 L-3.8 55.0 Q-2.6 55.4 -2.05 55.9 L-1.7 56.35 Q-1.35 57.55 -2.6 58.55 -3.85 59.6 -5.8 59.95 -7.75 60.2 -9.1 59.55 -10.3 58.95 -10.65 58.0 L-10.75 57.65 Q-10.85 56.4 -9.75 55.45 -8.65 54.45 -6.75 54.5 L-6.3 54.55 -5.25 54.7 M16.65 150.9 L15.8 150.9 Q16.5 150.85 19.25 149.7 L22.45 148.35 22.8 148.4 23.1 148.45 Q23.65 148.55 23.0 149.5 21.45 150.55 18.75 150.75 L16.65 150.9" fill="#000000" fill-rule="evenodd" stroke="none"/>
    <path d="M-2.05 55.9 L-0.25 56.8 0.0 57.05 0.1 57.1 1.75 59.1 2.75 60.75 2.75 60.85 3.9 63.05 4.45 64.3 6.7 76.45 Q6.3 100.9 1.15 115.8 L-0.8 121.1 -1.65 123.05 -1.7 123.2 Q-5.85 132.75 -11.0 138.3 -17.95 145.8 -23.8 147.9 -24.95 142.05 -23.7 137.7 -22.5 133.4 -22.2 133.2 -16.7 124.25 -14.1 111.75 -11.5 99.25 -10.85 87.0 -10.15 74.7 -10.4 66.5 L-10.7 58.0 -10.65 58.0 Q-10.3 58.95 -9.1 59.55 -7.75 60.2 -5.8 59.95 -3.85 59.6 -2.6 58.55 -1.35 57.55 -1.7 56.35 L-2.05 55.9" fill="#fbe121" fill-rule="evenodd" stroke="none"/>
    <path d="M-0.25 56.8 Q1.9 57.95 4.8 62.35 L5.45 63.5 5.75 64.0 Q7.95 68.35 9.35 76.2 11.25 100.6 7.55 116.0 5.25 125.5 2.05 132.25 L2.05 132.3 1.45 133.4 Q-0.3 136.9 -2.35 139.55 -8.6 147.7 -14.25 150.35 -19.9 153.0 -21.85 151.9 -23.5 150.85 -23.8 147.9 -17.95 145.8 -11.0 138.3 -5.85 132.75 -1.7 123.2 L-1.65 123.05 -0.8 121.1 1.15 115.8 Q6.3 100.9 6.7 76.45 L4.45 64.3 3.95 63.05 2.8 60.85 2.8 60.8 1.75 59.1 0.1 57.1 0.0 57.05 -0.25 56.8 M23.4 148.15 Q24.2 164.25 24.4 164.5 L21.15 165.85 15.35 151.2 15.6 151.3 16.65 150.9 18.75 150.75 Q21.45 150.55 23.0 149.5 23.65 148.55 23.1 148.45 L22.8 148.4 23.4 148.15" fill="#f5d01d" fill-rule="evenodd" stroke="none"/>
    <path d="M5.45 63.5 L7.6 67.15 Q10.55 74.0 12.55 85.9 14.55 97.75 16.1 110.8 17.7 123.9 19.35 134.15 21.05 144.45 23.4 148.15 L22.8 148.4 22.45 148.35 19.25 149.7 Q16.5 150.85 15.8 150.9 L16.65 150.9 15.6 151.3 15.35 151.2 14.95 151.05 14.4 151.3 Q14.25 151.45 11.6 149.55 8.9 147.6 5.2 141.45 3.25 138.25 1.45 133.4 L2.05 132.3 Q5.5 141.55 8.95 145.55 13.2 150.55 14.95 151.05 L15.0 151.05 21.15 148.65 22.2 148.2 Q19.95 144.5 18.35 134.2 L18.3 133.9 15.4 110.8 12.15 86.15 12.1 85.8 Q10.25 73.9 7.35 67.05 L5.75 64.0 5.45 63.5 M2.8 60.8 L2.8 60.85 2.75 60.85 2.75 60.75 2.8 60.8" fill="#e8c518" fill-rule="evenodd" stroke="none"/>
    <path d="M2.8 60.85 L3.95 63.05 4.45 64.3 3.9 63.05 2.75 60.85 2.8 60.85 M5.75 64.0 L7.35 67.05 Q10.25 73.9 12.1 85.8 L12.15 86.15 15.4 110.8 18.3 133.9 18.35 134.2 Q19.95 144.5 22.2 148.2 L21.15 148.65 15.0 151.05 Q13.2 150.55 8.95 145.55 5.5 141.5 2.05 132.25 5.25 125.5 7.55 116.0 11.25 100.6 9.35 76.2 7.95 68.35 5.75 64.0" fill="#f4e18d" fill-rule="evenodd" stroke="none"/>
  </g>
</svg>
