<?xml version="1.0" encoding="UTF-8" standalone="no"?>
<svg xmlns:xlink="http://www.w3.org/1999/xlink" height="112.05px" width="26.4px" xmlns="http://www.w3.org/2000/svg">
  <g transform="matrix(1.0, 0.0, 0.0, 1.0, 18.05, 0.0)">
    <path d="M-5.6 51.45 L-4.6 47.8 Q-2.8 41.2 -0.85 31.75 1.05 22.25 1.35 13.45 1.55 8.05 0.55 4.25 1.5 2.75 2.6 1.65 L2.0 1.4 2.85 1.7 Q6.35 6.65 5.7 15.8 5.0 24.95 2.35 34.75 -0.3 44.5 -2.75 51.35 L-3.95 54.55 -5.0 57.4 -5.45 56.7 -5.6 51.45" fill="#bf1f0b" fill-rule="evenodd" stroke="none"/>
    <path d="M-5.6 51.45 L-5.45 56.7 -6.05 55.7 -6.65 54.25 -6.95 52.15 -7.5 47.5 Q-8.3 40.6 -8.6 30.9 -8.85 21.2 -7.35 12.55 -5.8 3.85 -1.25 0.0 L0.9 0.95 2.0 1.4 2.6 1.65 Q1.5 2.75 0.55 4.25 -1.85 8.0 -3.15 14.45 -5.0 23.45 -5.4 33.6 -5.85 43.8 -5.65 51.1 L-5.6 51.45" fill="#f72d1e" fill-rule="evenodd" stroke="none"/>
    <path d="M-11.1 51.05 L-11.0 51.05 -11.1 51.1 -11.1 51.05" fill="#843908" fill-rule="evenodd" stroke="none"/>
    <path d="M-3.55 54.9 L-1.0 58.45 2.0 62.7 3.45 64.8 6.65 69.55 Q7.8 71.6 7.85 73.15 L7.8 74.7 6.55 81.35 4.25 92.3 4.05 92.0 Q2.35 89.15 1.2 86.5 L0.75 85.45 1.0 83.7 5.0 83.35 3.05 77.3 3.25 75.6 Q3.3 75.2 2.85 75.1 L2.15 75.0 2.25 73.1 Q2.3 70.95 0.4 67.6 L-1.85 63.7 -1.95 63.5 -2.8 61.95 -5.1 57.65 -5.45 56.95 -5.9 56.15 -6.5 54.9 -6.55 54.85 -6.65 54.6 -7.25 53.25 -6.65 54.6 -6.55 54.85 -6.5 54.9 -5.9 56.15 -5.45 56.95 -5.1 57.65 -2.8 61.95 -1.95 63.5 -1.85 63.7 0.4 67.6 Q2.3 70.95 2.25 73.1 L2.15 75.0 1.8 74.95 Q1.35 74.9 1.25 75.35 L1.0 77.3 Q0.95 77.7 1.35 77.85 L1.25 78.25 -6.35 107.5 -4.35 106.9 -4.3 106.95 -4.1 107.45 -3.9 107.3 -2.8 108.4 -2.45 106.25 -0.2 104.45 1.6 103.0 0.2 107.45 Q-1.7 111.85 -4.35 111.55 -6.7 111.25 -8.15 109.3 L-8.55 108.65 -8.75 107.9 -8.65 108.15 Q-9.05 107.0 -8.8 105.75 L-6.85 95.25 -4.25 81.15 -2.95 74.05 -2.8 72.3 Q-2.75 70.65 -3.4 68.85 L-5.3 64.6 -5.3 64.55 -8.4 57.7 -9.95 54.1 Q-10.05 53.8 -10.7 53.25 L-10.85 53.15 -7.25 53.25 -7.1 53.3 -7.05 53.3 -6.8 53.85 -7.1 52.05 -7.0 52.1 -6.95 52.15 -6.65 54.25 -6.05 55.7 -5.0 57.4 -3.95 54.55 -3.6 55.45 -3.55 54.9 M2.95 80.15 L3.9 82.65 1.35 82.95 1.75 80.4 2.95 80.15 M-8.15 109.3 L-8.25 109.05 -8.65 108.15 -8.25 109.05 -8.15 109.3" fill="#843908" fill-rule="evenodd" stroke="none"/>
    <path d="M2.15 75.0 L2.85 75.1 Q3.3 75.2 3.25 75.6 L3.05 77.3 5.0 83.35 1.0 83.7 0.4 83.8 1.25 78.25 1.35 77.85 Q0.95 77.7 1.0 77.3 L1.25 75.35 Q1.35 74.9 1.8 74.95 L2.15 75.0 M2.95 80.15 L1.75 80.4 1.35 82.95 3.9 82.65 2.95 80.15" fill="#000000" fill-rule="evenodd" stroke="none"/>
    <path d="M1.0 83.7 L0.75 85.45 0.0 83.6 -0.4 85.7 -5.3 104.6 -4.3 106.95 -4.35 106.9 -6.35 107.5 1.25 78.25 0.4 83.8 1.0 83.7 M-3.9 107.3 L-2.45 106.25 -2.8 108.4 -3.9 107.3" fill="#4e1e09" fill-rule="evenodd" stroke="none"/>
    <path d="M0.75 85.45 L1.2 86.5 Q2.35 89.15 4.05 92.0 L4.25 92.3 Q5.8 94.85 7.35 95.45 L5.0 98.35 Q3.6 96.9 2.5 94.35 1.15 91.05 0.45 88.2 L-0.25 85.2 -0.4 85.7 0.0 83.6 0.75 85.45" fill="#376b19" fill-rule="evenodd" stroke="none"/>
    <path d="M5.0 98.35 L5.8 99.05 1.6 103.0 -0.2 104.45 -2.45 106.25 -3.9 107.3 -4.1 107.45 -4.3 106.95 -5.3 104.6 -0.4 85.7 -0.25 85.2 0.45 88.2 Q1.15 91.05 2.5 94.35 3.6 96.9 5.0 98.35" fill="#42811f" fill-rule="evenodd" stroke="none"/>
    <path d="M-8.75 107.9 L-16.85 90.1 -17.3 88.75 Q-17.7 87.4 -17.4 85.0 L-16.4 78.2 -14.55 67.0 -14.45 66.5 Q-13.35 60.1 -12.25 55.45 -11.8 53.8 -11.35 53.35 L-11.25 53.25 -10.85 53.15 -10.7 53.25 Q-10.05 53.8 -9.95 54.1 L-8.4 57.7 -5.3 64.55 -5.3 64.6 -3.4 68.85 Q-2.75 70.65 -2.8 72.3 L-2.95 74.05 -4.25 81.15 -6.85 95.25 -8.8 105.75 Q-9.05 107.0 -8.65 108.15 L-8.75 107.9" fill="#9e5010" fill-rule="evenodd" stroke="none"/>
    <path d="M4.25 92.3 L6.55 81.35 7.8 74.7 7.85 73.15 Q7.8 71.6 6.65 69.55 L3.45 64.8 2.0 62.7 -1.0 58.45 -3.55 54.9 M-7.05 53.3 L-7.1 53.3 -7.25 53.25 -6.65 54.6 -6.55 54.85 -6.5 54.9 -5.9 56.15 -5.45 56.95 -5.1 57.65 -2.8 61.95 -1.95 63.5 -1.85 63.7 0.4 67.6 Q2.3 70.95 2.25 73.1 L2.15 75.0 M1.0 83.7 L0.75 85.45 M1.6 103.0 L0.2 107.45 Q-1.7 111.85 -4.35 111.55 -6.7 111.25 -8.15 109.3 L-8.55 108.65 -8.75 107.9 -16.85 90.1 -17.3 88.75 Q-17.7 87.4 -17.4 85.0 L-16.4 78.2 -14.55 67.0 -14.45 66.5 Q-13.35 60.1 -12.25 55.45 -11.8 53.8 -11.35 53.35 L-11.25 53.25 -10.85 53.15 -7.25 53.25 M-10.85 53.15 L-10.7 53.25 Q-10.05 53.8 -9.95 54.1 L-8.4 57.7 -5.3 64.55 -5.3 64.6 -3.4 68.85 Q-2.75 70.65 -2.8 72.3 L-2.95 74.05 -4.25 81.15 -6.85 95.25 -8.8 105.75 Q-9.05 107.0 -8.65 108.15 L-8.25 109.05 -8.15 109.3 M-8.65 108.15 L-8.75 107.9 M-3.9 107.3 L-2.8 108.4 -2.45 106.25 M-4.3 106.95 L-4.35 106.9 -6.35 107.5 1.25 78.25" fill="none" stroke="#000000" stroke-linecap="round" stroke-linejoin="round" stroke-width="1.0"/>
  </g>
</svg>
