<?xml version="1.0" encoding="UTF-8" standalone="no"?>
<svg xmlns:xlink="http://www.w3.org/1999/xlink" height="140.35px" width="61.9px" xmlns="http://www.w3.org/2000/svg">
  <g transform="matrix(1.0, 0.0, 0.0, 1.0, 37.45, 0.0)">
    <path d="M-3.75 54.0 L-3.05 54.05 1.15 54.7 2.95 54.6 5.55 54.95 Q12.5 56.25 16.0 61.55 19.45 66.8 20.65 73.2 21.6 78.3 21.75 82.35 23.75 83.1 23.95 84.0 23.7 85.85 15.45 87.15 L-5.6 85.9 -27.55 87.25 -30.7 86.75 -30.75 92.55 Q-30.55 92.9 -32.2 93.45 -33.05 93.45 -33.4 92.75 L-33.7 91.95 -33.9 86.15 -33.9 86.0 Q-36.75 85.1 -36.95 84.05 L-36.95 84.0 Q-36.75 82.9 -33.65 81.95 -33.25 78.0 -32.0 73.35 -30.1 66.05 -24.4 60.35 -18.7 54.7 -7.35 54.05 L-6.25 54.0 -6.15 54.45 -6.25 54.75 -5.45 55.05 -5.0 55.25 Q-14.65 55.95 -20.0 60.9 -26.0 66.45 -28.25 73.75 -29.45 77.7 -30.05 81.2 L-28.0 80.85 -6.5 79.5 14.95 80.85 19.7 81.7 Q19.3 77.95 18.35 73.3 16.95 66.85 13.3 61.7 9.6 56.5 2.55 55.5 L0.15 55.2 -1.2 55.3 -0.55 55.1 -2.5 55.15 -4.2 55.2 -3.75 54.0" fill="#000000" fill-rule="evenodd" stroke="none"/>
    <path d="M-36.95 84.05 Q-36.75 85.1 -33.9 86.0 L-33.9 86.15 -33.7 91.95 -33.4 92.75 Q-33.05 93.45 -32.2 93.45 -30.55 92.9 -30.75 92.55 L-30.7 86.75 -27.55 87.25 -6.5 88.5 15.45 87.15 Q23.7 85.85 23.95 84.0 L21.3 98.7 Q18.7 113.0 13.65 136.35 1.2 140.35 -8.1 139.8 -17.35 139.25 -22.5 137.35 -27.6 135.4 -27.7 135.15 L-36.95 84.05" fill="url(#gradient0)" fill-rule="evenodd" stroke="none"/>
    <path d="M-27.55 87.25 L-5.6 85.9 15.45 87.15 -6.5 88.5 -27.55 87.25" fill="#ffffff" fill-rule="evenodd" stroke="none"/>
    <path d="M-3.75 54.0 L-4.2 55.2 -4.25 55.3 -4.55 48.95 -4.3 47.85 Q-2.4 41.2 -0.45 31.75 1.45 22.3 1.8 13.5 2.0 8.05 1.0 4.2 1.95 2.75 3.05 1.65 L2.3 1.35 3.3 1.7 Q6.8 6.6 6.25 15.3 5.7 24.0 3.2 33.2 0.65 42.35 -1.75 48.7 L-3.75 54.0 M-5.45 55.05 L-6.25 54.75 -6.15 54.45 -6.1 54.7 -5.45 55.05 M-0.55 0.1 L-0.75 0.0 -0.8 0.0 -0.55 0.1" fill="#bf1f0b" fill-rule="evenodd" stroke="none"/>
    <path d="M-5.0 55.25 L-5.45 55.05 -6.1 54.7 -6.15 54.45 -6.25 54.0 -7.05 47.45 Q-7.85 40.6 -8.15 30.9 -8.4 21.2 -6.9 12.55 -5.35 3.85 -0.8 0.0 L-0.75 0.0 -0.55 0.1 1.35 0.95 2.3 1.35 3.05 1.65 Q1.95 2.75 1.0 4.2 -1.35 7.85 -2.6 13.95 -4.3 22.5 -4.6 32.05 -4.9 41.65 -4.6 48.45 L-4.55 48.95 -4.25 55.3 -4.25 55.6 -5.0 55.25" fill="#f72d1e" fill-rule="evenodd" stroke="none"/>
    <path d="M-36.95 84.0 L-36.95 84.05 M23.95 84.0 L21.3 98.7 Q18.7 113.0 13.65 136.35 1.2 140.35 -8.1 139.8 -17.35 139.25 -22.5 137.35 -27.6 135.4 -27.7 135.15 L-36.95 84.05" fill="none" stroke="#000000" stroke-linecap="round" stroke-linejoin="round" stroke-width="1.0"/>
  </g>
  <defs>
    <linearGradient gradientTransform="matrix(0.0375, 0.0137, -0.0137, 0.0375, -10.35, 106.65)" gradientUnits="userSpaceOnUse" id="gradient0" spreadMethod="pad" x1="-819.2" x2="819.2">
      <stop offset="0.0" stop-color="#cccccc"/>
      <stop offset="1.0" stop-color="#424242"/>
    </linearGradient>
  </defs>
</svg>
