<?xml version="1.0" encoding="UTF-8" standalone="no"?>
<svg xmlns:xlink="http://www.w3.org/1999/xlink" height="204.4px" width="64.5px" xmlns="http://www.w3.org/2000/svg">
  <g transform="matrix(1.0, 0.0, 0.0, 1.0, 28.75, 57.5)">
    <path d="M5.55 80.2 Q7.75 67.95 2.85 49.05 -2.35 30.75 -0.45 32.95 1.5 35.15 5.5 55.65 8.65 75.7 6.75 84.3 4.85 92.8 4.35 92.6 L5.65 96.35 Q6.7 99.75 5.5 102.3 4.65 98.5 4.25 97.8 L1.9 103.8 1.5 98.2 -1.75 101.65 Q-1.9 98.65 0.25 95.85 L2.7 92.85 Q3.4 92.4 5.55 80.2" fill="#7c4806" fill-rule="evenodd" stroke="none"/>
    <path d="M5.55 80.2 Q3.4 92.4 2.7 92.85 L0.25 95.85 Q-1.9 98.65 -1.75 101.65 L1.5 98.2 1.9 103.8 4.25 97.8 Q4.65 98.5 5.5 102.3 6.7 99.75 5.65 96.35 L4.35 92.6 Q4.85 92.8 6.75 84.3 8.65 75.7 5.5 55.65 1.5 35.15 -0.45 32.95 -2.35 30.75 2.85 49.05 7.75 67.95 5.55 80.2 Z" fill="none" stroke="#000000" stroke-linecap="round" stroke-linejoin="round" stroke-width="1.0"/>
    <path d="M15.3 -33.95 L22.35 -5.65 23.2 75.35 Q23.6 75.95 24.6 81.05 25.65 86.2 23.2 88.8 22.9 91.7 23.0 100.0 L23.3 115.85 23.55 123.85 27.95 133.95 19.15 137.65 16.8 133.95 16.9 121.8 16.95 98.45 16.8 83.45 14.6 72.2 10.75 56.0 8.7 47.75 -5.75 48.05 -7.1 57.45 Q-8.55 66.3 -12.5 76.7 -12.0 81.05 -11.8 92.4 L-11.5 113.8 -11.45 124.5 -9.8 133.95 -15.15 136.65 -19.45 131.75 -19.45 122.05 -19.6 103.2 Q-19.75 93.5 -20.25 90.8 -22.85 82.8 -21.25 80.4 -19.65 78.1 -19.2 78.35 L-21.9 26.15 -15.15 -32.45 -6.45 -45.6 -6.45 -57.0 10.45 -57.0 11.6 -44.9 15.3 -33.95" fill="#73420d" fill-rule="evenodd" stroke="none"/>
    <path d="M15.3 -33.95 L22.35 -5.65 23.2 75.35 Q23.6 75.95 24.6 81.05 25.65 86.2 23.2 88.8 22.9 91.7 23.0 100.0 L23.3 115.85 23.55 123.85 27.95 133.95 19.15 137.65 16.8 133.95 16.9 121.8 16.95 98.45 16.8 83.45 14.6 72.2 10.75 56.0 8.7 47.75 -5.75 48.05 -7.1 57.45 Q-8.55 66.3 -12.5 76.7 -12.0 81.05 -11.8 92.4 L-11.5 113.8 -11.45 124.5 -9.8 133.95 -15.15 136.65 -19.45 131.75 -19.45 122.05 -19.6 103.2 Q-19.75 93.5 -20.25 90.8 -22.85 82.8 -21.25 80.4 -19.65 78.1 -19.2 78.35 L-21.9 26.15 -15.15 -32.45 -6.45 -45.6 -6.45 -57.0 10.45 -57.0 11.6 -44.9 15.3 -33.95 Z" fill="none" stroke="#000000" stroke-linecap="round" stroke-linejoin="round" stroke-width="1.0"/>
    <path d="M-10.75 45.95 L15.65 46.0 Q-0.7 52.65 -10.75 45.95" fill="#73420d" fill-rule="evenodd" stroke="none"/>
    <path d="M-10.75 45.95 Q-0.7 52.65 15.65 46.0" fill="none" stroke="#000000" stroke-linecap="round" stroke-linejoin="round" stroke-width="1.0"/>
    <path d="M-10.0 132.4 Q-7.85 133.45 -10.55 136.9 -11.7 138.9 -11.1 140.05 -10.6 141.25 -14.05 144.15 -19.1 147.45 -21.8 146.8 -24.55 146.2 -24.6 145.85 -25.0 145.3 -22.85 142.35 L-28.75 143.85 Q-26.5 135.15 -22.85 133.25 -19.25 131.35 -18.9 131.7 L-15.4 131.5 Q-12.2 131.4 -10.0 132.4" fill="#000000" fill-rule="evenodd" stroke="none"/>
    <path d="M30.5 142.7 L33.1 145.95 Q33.0 146.3 29.55 146.8 26.15 147.4 21.0 144.1 17.55 141.2 18.1 140.0 18.65 138.85 17.5 136.85 14.8 133.4 16.95 132.35 19.15 131.35 22.35 131.45 L25.85 131.65 Q26.25 131.3 29.85 133.2 33.4 135.1 35.75 143.8 L30.5 142.7" fill="#000000" fill-rule="evenodd" stroke="none"/>
  </g>
</svg>
