<?xml version="1.0" encoding="UTF-8" standalone="no"?>
<svg xmlns:xlink="http://www.w3.org/1999/xlink" height="51.05px" width="19.95px" xmlns="http://www.w3.org/2000/svg">
  <g transform="matrix(1.0, 0.0, 0.0, 1.0, 9.95, 25.55)">
    <path d="M-9.45 -25.05 Q-8.6 -23.3 -7.25 -22.15 -5.85 -20.95 -4.75 -18.5 -4.0 -16.35 -3.6 -13.1 -3.15 -9.8 -2.4 -7.5 -0.85 -3.75 1.0 -1.45 2.85 0.9 4.15 4.9 7.4 17.95 7.1 18.8 L8.45 20.65 Q9.15 21.7 9.5 22.95 7.35 23.55 5.65 24.65 L5.15 25.0 5.0 24.65 3.15 19.0 -1.7 4.7 Q-4.6 -3.5 -7.35 -10.3 L-9.45 -25.05" fill="#73420d" fill-rule="evenodd" stroke="none"/>
    <path d="M-9.45 -25.05 Q-8.6 -23.3 -7.25 -22.15 -5.85 -20.95 -4.75 -18.5 -4.0 -16.35 -3.6 -13.1 -3.15 -9.8 -2.4 -7.5 -0.85 -3.75 1.0 -1.45 2.85 0.9 4.15 4.9 7.4 17.95 7.1 18.8 L8.45 20.65 Q9.15 21.7 9.5 22.95 M5.15 25.0 L5.0 24.65 3.15 19.0 -1.7 4.7 Q-4.6 -3.5 -7.35 -10.3" fill="none" stroke="#000000" stroke-linecap="round" stroke-linejoin="round" stroke-width="1.0"/>
  </g>
</svg>
