<?xml version="1.0" encoding="UTF-8" standalone="no"?>
<svg xmlns:xlink="http://www.w3.org/1999/xlink" height="53.5px" width="46.45px" xmlns="http://www.w3.org/2000/svg">
  <g transform="matrix(1.0, 0.0, 0.0, 1.0, 21.15, 50.85)">
    <path d="M-11.15 -6.8 L-6.75 -10.8 Q-2.5 -14.3 2.9 -14.8 8.35 -15.3 12.25 -6.8 6.75 2.65 1.4 2.1 -3.95 1.55 -7.5 -2.35 L-11.15 -6.8" fill="#73420d" fill-rule="evenodd" stroke="none"/>
    <path d="M-11.15 -6.8 L-7.5 -2.35 Q-3.95 1.55 1.4 2.1 6.75 2.65 12.25 -6.8 8.35 -15.3 2.9 -14.8 -2.5 -14.3 -6.75 -10.8 L-11.15 -6.8 Z" fill="none" stroke="#000000" stroke-linecap="round" stroke-linejoin="round" stroke-width="1.0"/>
    <path d="M-8.35 -7.95 L-4.85 -12.2 Q-1.5 -15.95 2.85 -16.7 7.15 -17.45 10.3 -8.95 6.45 -1.0 2.15 -1.2 -2.15 -1.45 -5.15 -4.45 L-8.35 -7.95" fill="#fb0f0c" fill-rule="evenodd" stroke="none"/>
    <path d="M-8.35 -7.95 L-5.15 -4.45 Q-2.15 -1.45 2.15 -1.2 6.45 -1.0 10.3 -8.95 7.15 -17.45 2.85 -16.7 -1.5 -15.95 -4.85 -12.2 L-8.35 -7.95 Z" fill="none" stroke="#000000" stroke-linecap="round" stroke-linejoin="round" stroke-width="1.0"/>
    <path d="M3.25 -1.85 L-7.9 -1.25 Q-13.3 0.0 -16.4 -0.2 -20.65 -1.7 -20.65 -8.2 -20.6 -14.7 -19.4 -17.2 -18.05 -19.1 -14.55 -21.2 L-10.65 -23.45 -10.9 -26.45 -11.15 -32.95 Q-11.2 -38.25 -10.6 -43.0 -10.05 -47.75 -9.2 -49.0 -8.0 -50.15 -3.45 -50.3 L5.65 -49.95 Q10.2 -49.4 11.4 -48.55 12.35 -47.25 12.8 -41.35 L13.45 -29.75 13.6 -23.7 18.15 -21.5 Q22.2 -19.45 23.9 -17.55 26.1 -8.1 23.0 -4.4 19.9 -0.7 19.25 -0.85 18.75 -0.1 3.25 -1.85" fill="#73420d" fill-rule="evenodd" stroke="none"/>
    <path d="M3.25 -1.85 L-7.9 -1.25 Q-13.3 0.0 -16.4 -0.2 -20.65 -1.7 -20.65 -8.2 -20.6 -14.7 -19.4 -17.2 -18.05 -19.1 -14.55 -21.2 L-10.65 -23.45 -10.9 -26.45 -11.15 -32.95 Q-11.2 -38.25 -10.6 -43.0 -10.05 -47.75 -9.2 -49.0 -8.0 -50.15 -3.45 -50.3 L5.65 -49.95 Q10.2 -49.4 11.4 -48.55 12.35 -47.25 12.8 -41.35 L13.45 -29.75 13.6 -23.7 18.15 -21.5 Q22.2 -19.45 23.9 -17.55 26.1 -8.1 23.0 -4.4 19.9 -0.7 19.25 -0.85 18.75 -0.1 3.25 -1.85 Z" fill="none" stroke="#000000" stroke-linecap="round" stroke-linejoin="round" stroke-width="1.0"/>
  </g>
</svg>
