<?xml version="1.0" encoding="UTF-8" standalone="no"?>
<svg xmlns:xlink="http://www.w3.org/1999/xlink" height="48.95px" width="46.9px" xmlns="http://www.w3.org/2000/svg">
  <g transform="matrix(1.0, 0.0, 0.0, 1.0, 21.6, 50.85)">
    <path d="M23.9 -17.55 Q26.1 -8.1 23.0 -4.4 21.7 -2.85 17.65 -3.45 L8.7 -5.35 Q-1.7 -7.4 -6.4 -4.45 -11.15 -1.5 -16.35 -2.8 -21.55 -4.1 -21.05 -9.4 -20.6 -14.7 -19.4 -17.2 -18.05 -19.1 -14.55 -21.2 L-10.65 -23.45 -10.9 -26.45 -11.15 -32.95 Q-11.2 -38.25 -10.6 -43.0 -10.05 -47.75 -9.2 -49.0 -8.0 -50.15 -3.45 -50.3 L5.65 -49.95 Q10.2 -49.4 11.4 -48.55 12.35 -47.25 12.8 -41.35 L13.45 -29.75 13.6 -23.7 18.15 -21.5 Q22.2 -19.45 23.9 -17.55" fill="#73420d" fill-rule="evenodd" stroke="none"/>
    <path d="M23.9 -17.55 Q22.2 -19.45 18.15 -21.5 L13.6 -23.7 13.45 -29.75 12.8 -41.35 Q12.35 -47.25 11.4 -48.55 10.2 -49.4 5.65 -49.95 L-3.45 -50.3 Q-8.0 -50.15 -9.2 -49.0 -10.05 -47.75 -10.6 -43.0 -11.2 -38.25 -11.15 -32.95 L-10.9 -26.45 -10.65 -23.45 -14.55 -21.2 Q-18.05 -19.1 -19.4 -17.2 -20.6 -14.7 -21.05 -9.4 -21.55 -4.1 -16.35 -2.8 -11.15 -1.5 -6.4 -4.45 -1.7 -7.4 8.7 -5.35 L17.65 -3.45 Q21.7 -2.85 23.0 -4.4 26.1 -8.1 23.9 -17.55 Z" fill="none" stroke="#000000" stroke-linecap="round" stroke-linejoin="round" stroke-width="1.0"/>
  </g>
</svg>
