<?xml version="1.0" encoding="UTF-8" standalone="no"?>
<svg xmlns:xlink="http://www.w3.org/1999/xlink" height="20.9px" width="32.55px" xmlns="http://www.w3.org/2000/svg">
  <g transform="matrix(1.0, 0.0, 0.0, 1.0, 15.05, 10.7)">
    <path d="M2.4 -8.25 Q8.3 -7.9 17.0 -5.2 6.75 10.25 1.4 9.7 -3.95 9.15 -7.5 5.25 L-14.55 -2.95 Q-13.65 -2.75 -8.6 -5.7 -3.55 -8.65 2.4 -8.25" fill="#73420d" fill-rule="evenodd" stroke="none"/>
    <path d="M2.4 -8.25 Q-3.55 -8.65 -8.6 -5.7 -13.65 -2.75 -14.55 -2.95 L-7.5 5.25 Q-3.95 9.15 1.4 9.7 6.75 10.25 17.0 -5.2 8.3 -7.9 2.4 -8.25 Z" fill="none" stroke="#000000" stroke-linecap="round" stroke-linejoin="round" stroke-width="1.0"/>
    <path d="M3.1 -10.1 Q8.25 -10.85 12.45 -5.0 6.45 6.6 2.15 6.4 -2.15 6.15 -5.15 3.15 L-10.9 -2.45 Q-10.6 -5.7 -6.3 -7.55 -2.05 -9.4 3.1 -10.1" fill="#fb0f0c" fill-rule="evenodd" stroke="none"/>
    <path d="M3.1 -10.1 Q-2.05 -9.4 -6.3 -7.55 -10.6 -5.7 -10.9 -2.45 L-5.15 3.15 Q-2.15 6.15 2.15 6.4 6.45 6.6 12.45 -5.0 8.25 -10.85 3.1 -10.1 Z" fill="none" stroke="#000000" stroke-linecap="round" stroke-linejoin="round" stroke-width="1.0"/>
  </g>
</svg>
