<?xml version="1.0" encoding="UTF-8" standalone="no"?>
<svg xmlns:xlink="http://www.w3.org/1999/xlink" height="40.5px" width="67.55px" xmlns="http://www.w3.org/2000/svg">
  <g transform="matrix(1.0, 0.0, 0.0, 1.0, 34.9, 71.45)">
    <path d="M-27.7 -58.75 L-23.7 -58.45 Q-19.9 -58.05 -19.35 -56.2 -19.95 -54.3 -24.25 -53.7 L-29.2 -53.15 -29.3 -52.65 -28.7 -44.95 Q-28.0 -40.2 -24.1 -37.8 -20.25 -35.45 -16.55 -34.65 L-12.55 -33.95 -12.1 -33.25 Q-11.85 -32.6 -13.25 -31.45 -26.35 -32.6 -29.95 -37.7 -33.6 -42.8 -33.15 -43.5 L-34.0 -48.8 Q-34.7 -53.8 -34.15 -59.8 -33.65 -65.8 -30.15 -69.15 -27.3 -70.5 -22.6 -70.25 -17.9 -70.05 -17.25 -68.6 -17.65 -66.35 -22.7 -65.6 L-27.95 -64.85 -23.05 -64.55 Q-18.25 -64.2 -17.25 -62.5 -17.6 -60.75 -22.45 -59.75 L-27.7 -58.75 -28.0 -58.75 -27.7 -58.75 M-28.5 -64.85 L-27.95 -64.85 -28.5 -64.85" fill="#e6b98a" fill-rule="evenodd" stroke="none"/>
    <path d="M-27.95 -64.85 L-22.7 -65.6 Q-17.65 -66.35 -17.25 -68.6 -17.9 -70.05 -22.6 -70.25 -27.3 -70.5 -30.15 -69.15 -33.65 -65.8 -34.15 -59.8 -34.7 -53.8 -34.0 -48.8 L-33.15 -43.5 Q-33.6 -42.8 -29.95 -37.7 -26.35 -32.6 -13.25 -31.45 -11.85 -32.6 -12.1 -33.25 L-12.55 -33.95 -16.55 -34.65 Q-20.25 -35.45 -24.1 -37.8 -28.0 -40.2 -28.7 -44.95 L-29.3 -52.65 -29.2 -53.15 -24.25 -53.7 Q-19.95 -54.3 -19.35 -56.2 -19.9 -58.05 -23.7 -58.45 L-27.7 -58.75 -28.0 -58.75 M-27.7 -58.75 L-22.45 -59.75 Q-17.6 -60.75 -17.25 -62.5 -18.25 -64.2 -23.05 -64.55 L-27.95 -64.85 -28.5 -64.85" fill="none" stroke="#000000" stroke-linecap="round" stroke-linejoin="round" stroke-width="1.0"/>
    <path d="M31.75 -50.25 Q31.0 -43.4 30.65 -42.2 30.6 -40.6 25.95 -36.4 21.3 -32.25 8.1 -32.05 6.75 -33.3 7.1 -33.9 L7.55 -34.55 11.85 -34.8 Q15.85 -35.15 20.1 -37.05 24.3 -39.0 25.35 -43.65 L26.5 -51.35 26.5 -51.85 21.25 -52.6 Q16.65 -53.4 16.1 -55.3 16.7 -57.2 20.3 -57.85 L24.3 -58.45 18.95 -59.45 Q14.2 -60.4 13.9 -62.15 15.0 -63.85 19.8 -64.2 L23.4 -64.45 20.35 -64.55 Q16.1 -64.75 15.95 -66.85 16.25 -68.45 19.15 -70.0 22.1 -71.55 27.35 -70.6 31.2 -70.25 31.85 -63.7 32.5 -57.1 31.75 -50.25 M25.25 -64.5 L23.4 -64.45 25.25 -64.5" fill="#e6b98a" fill-rule="evenodd" stroke="none"/>
    <path d="M31.75 -50.25 Q31.0 -43.4 30.65 -42.2 30.6 -40.6 25.95 -36.4 21.3 -32.25 8.1 -32.05 6.75 -33.3 7.1 -33.9 L7.55 -34.55 11.85 -34.8 Q15.85 -35.15 20.1 -37.05 24.3 -39.0 25.35 -43.65 L26.5 -51.35 26.5 -51.85 21.25 -52.6 Q16.65 -53.4 16.1 -55.3 16.7 -57.2 20.3 -57.85 L24.3 -58.45 18.95 -59.45 Q14.2 -60.4 13.9 -62.15 15.0 -63.85 19.8 -64.2 L23.4 -64.45 20.35 -64.55 Q16.1 -64.75 15.95 -66.85 16.25 -68.45 19.15 -70.0 22.1 -71.55 27.35 -70.6 31.2 -70.25 31.85 -63.7 32.5 -57.1 31.75 -50.25 M23.4 -64.45 L25.25 -64.5" fill="none" stroke="#000000" stroke-linecap="round" stroke-linejoin="round" stroke-width="1.0"/>
  </g>
</svg>
