<?xml version="1.0" encoding="UTF-8" standalone="no"?>
<svg xmlns:xlink="http://www.w3.org/1999/xlink" height="86.4px" width="67.55px" xmlns="http://www.w3.org/2000/svg">
  <g transform="matrix(1.0, 0.0, 0.0, 1.0, 33.75, 43.2)">
    <path d="M9.45 -5.7 Q10.4 -4.4 10.85 1.5 L11.5 13.1 11.65 19.15 16.2 21.35 Q20.25 23.4 21.95 25.3 24.15 34.75 21.05 38.45 17.95 42.15 17.3 42.0 L1.3 41.0 Q-4.45 40.35 -9.85 41.6 -15.25 42.85 -18.35 42.65 -22.6 41.15 -22.6 34.65 -22.55 28.15 -21.35 25.65 -20.0 23.75 -16.5 21.65 L-12.6 19.4 -12.85 16.4 -13.1 9.9 Q-13.15 4.6 -12.55 -0.15 -12.0 -4.9 -11.15 -6.15 -9.95 -7.3 -5.4 -7.45 L3.7 -7.1 Q8.25 -6.55 9.45 -5.7" fill="#73420d" fill-rule="evenodd" stroke="none"/>
    <path d="M9.45 -5.7 Q10.4 -4.4 10.85 1.5 L11.5 13.1 11.65 19.15 16.2 21.35 Q20.25 23.4 21.95 25.3 24.15 34.75 21.05 38.45 17.95 42.15 17.3 42.0 L1.3 41.0 Q-4.45 40.35 -9.85 41.6 -15.25 42.85 -18.35 42.65 -22.6 41.15 -22.6 34.65 -22.55 28.15 -21.35 25.65 -20.0 23.75 -16.5 21.65 L-12.6 19.4 -12.85 16.4 -13.1 9.9 Q-13.15 4.6 -12.55 -0.15 -12.0 -4.9 -11.15 -6.15 -9.95 -7.3 -5.4 -7.45 L3.7 -7.1 Q8.25 -6.55 9.45 -5.7 Z" fill="none" stroke="#000000" stroke-linecap="round" stroke-linejoin="round" stroke-width="1.0"/>
    <path d="M-26.8 -36.6 L-21.9 -36.3 Q-17.1 -35.95 -16.1 -34.25 -16.45 -32.5 -21.3 -31.5 L-26.55 -30.5 -22.55 -30.2 Q-18.75 -29.8 -18.2 -27.95 -18.8 -26.05 -23.1 -25.45 L-28.05 -24.9 -28.15 -24.4 -27.55 -16.7 Q-26.85 -11.95 -22.95 -9.55 -19.1 -7.2 -15.4 -6.4 L-11.4 -5.7 -10.95 -5.0 Q-10.7 -4.35 -12.1 -3.2 -25.2 -4.35 -28.8 -9.45 -32.45 -14.55 -32.0 -15.25 L-32.85 -20.55 Q-33.55 -25.55 -33.0 -31.55 -32.5 -37.55 -29.0 -40.9 -26.15 -42.25 -21.45 -42.0 -16.75 -41.8 -16.1 -40.35 -16.5 -38.1 -21.55 -37.35 L-26.8 -36.6 -27.35 -36.6 -26.8 -36.6 M-26.85 -30.5 L-26.55 -30.5 -26.85 -30.5" fill="#e6b98a" fill-rule="evenodd" stroke="none"/>
    <path d="M-26.55 -30.5 L-21.3 -31.5 Q-16.45 -32.5 -16.1 -34.25 -17.1 -35.95 -21.9 -36.3 L-26.8 -36.6 -27.35 -36.6 M-26.8 -36.6 L-21.55 -37.35 Q-16.5 -38.1 -16.1 -40.35 -16.75 -41.8 -21.45 -42.0 -26.15 -42.25 -29.0 -40.9 -32.5 -37.55 -33.0 -31.55 -33.55 -25.55 -32.85 -20.55 L-32.0 -15.25 Q-32.45 -14.55 -28.8 -9.45 -25.2 -4.35 -12.1 -3.2 -10.7 -4.35 -10.95 -5.0 L-11.4 -5.7 -15.4 -6.4 Q-19.1 -7.2 -22.95 -9.55 -26.85 -11.95 -27.55 -16.7 L-28.15 -24.4 -28.05 -24.9 -23.1 -25.45 Q-18.8 -26.05 -18.2 -27.95 -18.75 -29.8 -22.55 -30.2 L-26.55 -30.5 -26.85 -30.5" fill="none" stroke="#000000" stroke-linecap="round" stroke-linejoin="round" stroke-width="1.0"/>
    <path d="M32.9 -22.0 Q32.15 -15.15 31.8 -13.95 31.75 -12.35 27.1 -8.15 22.45 -4.0 9.25 -3.8 7.9 -5.05 8.25 -5.65 L8.7 -6.3 13.0 -6.55 Q17.0 -6.9 21.25 -8.8 25.45 -10.75 26.5 -15.4 L27.65 -23.1 27.65 -23.6 22.4 -24.35 Q17.8 -25.15 17.25 -27.05 17.85 -28.95 21.45 -29.6 L25.45 -30.2 20.1 -31.2 Q15.35 -32.15 15.05 -33.9 16.15 -35.6 20.95 -35.95 L24.55 -36.2 21.5 -36.3 Q17.25 -36.5 17.1 -38.6 17.4 -40.2 20.3 -41.75 23.25 -43.3 28.5 -42.35 32.35 -42.0 33.0 -35.45 33.65 -28.85 32.9 -22.0 M26.4 -36.25 L24.55 -36.2 26.4 -36.25" fill="#e6b98a" fill-rule="evenodd" stroke="none"/>
    <path d="M32.9 -22.0 Q32.15 -15.15 31.8 -13.95 31.75 -12.35 27.1 -8.15 22.45 -4.0 9.25 -3.8 7.9 -5.05 8.25 -5.65 L8.7 -6.3 13.0 -6.55 Q17.0 -6.9 21.25 -8.8 25.45 -10.75 26.5 -15.4 L27.65 -23.1 27.65 -23.6 22.4 -24.35 Q17.8 -25.15 17.25 -27.05 17.85 -28.95 21.45 -29.6 L25.45 -30.2 20.1 -31.2 Q15.35 -32.15 15.05 -33.9 16.15 -35.6 20.95 -35.95 L24.55 -36.2 21.5 -36.3 Q17.25 -36.5 17.1 -38.6 17.4 -40.2 20.3 -41.75 23.25 -43.3 28.5 -42.35 32.35 -42.0 33.0 -35.45 33.65 -28.85 32.9 -22.0 M24.55 -36.2 L26.4 -36.25" fill="none" stroke="#000000" stroke-linecap="round" stroke-linejoin="round" stroke-width="1.0"/>
  </g>
</svg>
