<?xml version="1.0" encoding="UTF-8" standalone="no"?>
<svg xmlns:xlink="http://www.w3.org/1999/xlink" height="226.75px" width="64.5px" xmlns="http://www.w3.org/2000/svg">
  <g transform="matrix(1.0, 0.0, 0.0, 1.0, -6.55, -61.45)">
    <path d="M40.85 221.5 Q43.05 209.25 38.15 190.35 32.95 172.05 34.85 174.25 36.8 176.45 40.8 196.95 43.95 217.0 42.05 225.6 40.15 234.1 39.65 233.9 L40.95 237.65 Q42.0 241.05 40.8 243.6 39.95 239.8 39.55 239.1 L37.2 245.1 36.8 239.5 33.55 242.95 Q33.4 239.95 35.55 237.15 37.65 234.35 38.0 234.15 38.7 233.7 40.85 221.5" fill="#7c4806" fill-rule="evenodd" stroke="none"/>
    <path d="M40.85 221.5 Q38.7 233.7 38.0 234.15 37.65 234.35 35.55 237.15 33.4 239.95 33.55 242.95 L36.8 239.5 37.2 245.1 39.55 239.1 Q39.95 239.8 40.8 243.6 42.0 241.05 40.95 237.65 L39.65 233.9 Q40.15 234.1 42.05 225.6 43.95 217.0 40.8 196.95 36.8 176.45 34.85 174.25 32.95 172.05 38.15 190.35 43.05 209.25 40.85 221.5 Z" fill="none" stroke="#000000" stroke-linecap="round" stroke-linejoin="round" stroke-width="1.0"/>
    <path d="M51.5 62.85 L46.95 96.45 50.6 107.4 57.65 135.7 58.55 216.65 59.95 222.35 Q60.95 227.5 58.55 230.15 58.2 233.0 58.3 241.3 58.4 249.6 58.65 257.15 L58.85 265.15 63.25 275.25 54.5 278.95 52.1 275.25 52.2 263.1 52.25 239.8 52.1 224.75 49.9 213.55 46.05 197.3 44.7 191.8 44.0 189.05 29.55 189.35 29.3 191.8 28.25 198.75 Q26.75 207.6 22.85 218.0 23.3 222.35 23.55 233.7 L23.8 255.1 23.85 265.8 25.55 275.25 20.15 277.95 15.9 273.05 15.9 263.35 15.7 244.5 Q15.55 234.8 15.05 232.15 12.45 224.1 14.05 221.7 15.65 219.4 16.1 219.65 L13.4 167.5 20.15 108.9 28.85 95.75 25.4 61.95 51.5 62.85" fill="#73420d" fill-rule="evenodd" stroke="none"/>
    <path d="M51.5 62.85 L46.95 96.45 50.6 107.4 57.65 135.7 58.55 216.65 59.95 222.35 Q60.95 227.5 58.55 230.15 58.2 233.0 58.3 241.3 58.4 249.6 58.65 257.15 L58.85 265.15 63.25 275.25 54.5 278.95 52.1 275.25 52.2 263.1 52.25 239.8 52.1 224.75 49.9 213.55 46.05 197.3 44.7 191.8 44.0 189.05 29.55 189.35 29.3 191.8 28.25 198.75 Q26.75 207.6 22.85 218.0 23.3 222.35 23.55 233.7 L23.8 255.1 23.85 265.8 25.55 275.25 20.15 277.95 15.9 273.05 15.9 263.35 15.7 244.5 Q15.55 234.8 15.05 232.15 12.45 224.1 14.05 221.7 15.65 219.4 16.1 219.65 L13.4 167.5 20.15 108.9 28.85 95.75 25.4 61.95" fill="none" stroke="#000000" stroke-linecap="round" stroke-linejoin="round" stroke-width="1.0"/>
    <path d="M24.55 187.25 L50.95 187.3 Q34.6 193.95 24.55 187.25" fill="#73420d" fill-rule="evenodd" stroke="none"/>
    <path d="M24.55 187.25 Q34.6 193.95 50.95 187.3" fill="none" stroke="#000000" stroke-linecap="round" stroke-linejoin="round" stroke-width="1.0"/>
    <path d="M25.3 273.7 Q27.45 274.75 24.75 278.2 23.6 280.2 24.2 281.35 24.7 282.55 21.25 285.45 16.2 288.75 13.5 288.1 10.75 287.5 10.7 287.15 10.3 286.6 12.45 283.65 L6.55 285.15 Q8.8 276.45 12.45 274.55 16.05 272.65 16.4 273.0 L19.9 272.8 Q23.1 272.7 25.3 273.7" fill="#000000" fill-rule="evenodd" stroke="none"/>
    <path d="M65.8 284.0 L68.4 287.25 64.85 288.1 Q61.45 288.7 56.3 285.4 52.85 282.5 53.4 281.3 53.95 280.15 52.8 278.15 50.1 274.7 52.25 273.65 54.45 272.65 57.65 272.75 L61.15 272.95 Q61.55 272.6 65.15 274.5 68.7 276.4 71.05 285.1 L65.8 284.0" fill="#000000" fill-rule="evenodd" stroke="none"/>
    <path d="M46.55 95.85 Q47.45 97.75 48.9 99.0 50.4 100.25 51.6 102.9 52.4 105.2 52.85 108.75 53.35 112.3 54.15 114.8 55.8 118.8 57.8 121.3 59.8 123.85 61.2 128.15 64.7 142.2 64.4 143.15 L65.85 145.15 Q66.6 146.25 66.95 147.6 64.65 148.25 62.85 149.45 L62.25 149.85 62.15 149.45 60.15 143.35 58.1 137.3 58.1 135.7 57.55 135.7 54.9 127.95 Q51.75 119.1 48.8 111.75 L46.55 95.85" fill="#73420d" fill-rule="evenodd" stroke="none"/>
    <path d="M46.55 95.85 Q47.45 97.75 48.9 99.0 50.4 100.25 51.6 102.9 52.4 105.2 52.85 108.75 53.35 112.3 54.15 114.8 55.8 118.8 57.8 121.3 59.8 123.85 61.2 128.15 64.7 142.2 64.4 143.15 L65.85 145.15 Q66.6 146.25 66.95 147.6 M62.25 149.85 L62.15 149.45 60.15 143.35 58.1 137.3" fill="none" stroke="#000000" stroke-linecap="round" stroke-linejoin="round" stroke-width="1.0"/>
  </g>
</svg>
