<?xml version="1.0" encoding="UTF-8" standalone="no"?>
<svg xmlns:xlink="http://www.w3.org/1999/xlink" height="134.15px" width="86.5px" xmlns="http://www.w3.org/2000/svg">
  <g transform="matrix(1.0, 0.0, 0.0, 1.0, 0.0, 0.0)">
    <path d="M86.4 72.85 Q86.0 82.05 83.45 91.1 80.95 100.15 75.75 108.15 L73.15 111.8 Q68.5 117.65 62.0 122.4 53.5 128.6 41.1 132.15 28.7 135.75 13.4 132.9 9.9 132.7 8.35 129.4 4.85 122.2 2.95 114.45 L2.35 111.8 Q0.15 101.85 0.0 91.6 -0.1 80.05 1.9 69.15 2.9 63.8 4.25 58.8 L4.85 56.8 5.15 55.8 7.55 48.9 Q10.9 40.3 15.2 33.8 L15.9 32.7 Q20.6 25.9 25.85 22.5 31.05 19.05 34.75 15.15 L41.25 7.85 43.1 5.8 Q45.05 3.7 47.05 2.25 49.95 0.05 53.65 0.0 56.6 0.0 58.2 0.8 59.8 1.6 60.85 3.2 L62.45 5.8 63.2 7.2 Q64.5 9.65 66.9 12.95 69.3 16.25 73.6 20.4 L75.0 21.9 76.2 23.7 78.1 27.15 Q80.45 32.1 82.5 39.25 84.55 46.4 85.65 55.0 L85.75 55.8 85.9 56.8 86.1 58.8 Q86.7 65.65 86.4 72.85 M70.8 97.75 Q70.55 98.9 70.65 99.8 70.75 100.7 71.15 100.9 71.6 101.05 72.05 100.4 L72.8 98.6 Q73.05 97.4 72.9 96.55 72.8 95.65 72.4 95.45 71.95 95.3 71.5 95.95 71.05 96.6 70.8 97.75" fill="#f7df15" fill-rule="evenodd" stroke="none"/>
    <path d="M70.8 97.75 Q71.05 96.6 71.5 95.95 71.95 95.3 72.4 95.45 72.8 95.65 72.9 96.55 73.05 97.4 72.8 98.6 L72.05 100.4 Q71.6 101.05 71.15 100.9 70.75 100.7 70.65 99.8 70.55 98.9 70.8 97.75" fill="#000000" fill-rule="evenodd" stroke="none"/>
    <path d="M86.4 72.85 Q86.7 65.65 86.1 58.8 L85.9 56.8 85.75 55.8 85.65 55.0 Q84.55 46.4 82.5 39.25 80.45 32.1 78.1 27.15 L76.2 23.7 75.0 21.9 73.6 20.4 Q69.3 16.25 66.9 12.95 64.5 9.65 63.2 7.2 L62.45 5.8 60.85 3.2 Q59.8 1.6 58.2 0.8 56.6 0.0 53.65 0.0 49.95 0.05 47.05 2.25 45.05 3.7 43.1 5.8 L41.25 7.85 34.75 15.15 Q31.05 19.05 25.85 22.5 20.6 25.9 15.9 32.7 L15.2 33.8 Q10.9 40.3 7.55 48.9 L5.15 55.8 4.85 56.8 4.25 58.8 Q2.9 63.8 1.9 69.15 -0.1 80.05 0.0 91.6 0.15 101.85 2.35 111.8 L2.95 114.45 Q4.85 122.2 8.35 129.4 9.9 132.7 13.4 132.9 28.7 135.75 41.1 132.15 53.5 128.6 62.0 122.4 68.5 117.65 73.15 111.8 L75.75 108.15 Q80.95 100.15 83.45 91.1 86.0 82.05 86.4 72.85 Z" fill="none" stroke="#2d4e1f" stroke-linecap="round" stroke-linejoin="round" stroke-width="0.05"/>
  </g>
</svg>
