<?xml version="1.0" encoding="UTF-8" standalone="no"?>
<svg xmlns:xlink="http://www.w3.org/1999/xlink" height="42.5px" width="30.1px" xmlns="http://www.w3.org/2000/svg">
  <g transform="matrix(1.0, 0.0, 0.0, 1.0, 0.0, 0.0)">
    <path d="M22.0 10.4 L9.5 42.5 1.65 37.0 8.65 33.0 0.0 27.85 6.65 24.65 5.65 23.6 3.2 20.8 0.0 16.85 3.9 17.55 6.15 17.35 7.9 17.0 Q5.8 15.45 4.6 12.95 3.45 10.45 3.15 7.5 5.1 9.7 6.7 10.35 8.35 11.0 9.3 10.9 L10.3 10.75 9.95 8.85 Q9.7 7.05 10.05 4.6 10.45 2.1 12.3 0.0 12.35 3.1 13.15 4.5 13.95 5.9 14.7 6.25 L15.55 6.55 16.15 5.65 Q16.8 4.85 18.35 3.75 19.95 2.65 22.8 1.85 25.7 1.0 30.1 1.0 26.4 2.75 24.65 4.45 22.85 6.1 22.3 7.45 21.8 8.8 21.85 9.6 L22.0 10.4" fill="#f7df15" fill-rule="evenodd" stroke="none"/>
    <path d="M22.0 10.4 L9.5 42.5 1.65 37.0 8.65 33.0 0.0 27.85 6.65 24.65 5.65 23.6 3.2 20.8 0.0 16.85 3.9 17.55 6.15 17.35 7.9 17.0 Q5.8 15.45 4.6 12.95 3.45 10.45 3.15 7.5 5.1 9.7 6.7 10.35 8.35 11.0 9.3 10.9 L10.3 10.75 9.95 8.85 Q9.7 7.05 10.05 4.6 10.45 2.1 12.3 0.0 12.35 3.1 13.15 4.5 13.95 5.9 14.7 6.25 L15.55 6.55 16.15 5.65 Q16.8 4.85 18.35 3.75 19.95 2.65 22.8 1.85 25.7 1.0 30.1 1.0 26.4 2.75 24.65 4.45 22.85 6.1 22.3 7.45 21.8 8.8 21.85 9.6 L22.0 10.4 Z" fill="none" stroke="#2d4e1f" stroke-linecap="round" stroke-linejoin="round" stroke-width="0.05"/>
  </g>
</svg>
