<?xml version="1.0" encoding="UTF-8" standalone="no"?>
<svg xmlns:xlink="http://www.w3.org/1999/xlink" height="51.1px" width="59.4px" xmlns="http://www.w3.org/2000/svg">
  <g transform="matrix(1.0, 0.0, 0.0, 1.0, 14.6, 25.7)">
    <path d="M1.6 10.95 L1.65 10.95 1.4 11.4 1.65 10.95 1.35 11.55 1.4 11.4 1.6 10.95 M6.55 5.5 L6.25 5.1 6.0 5.35 5.65 4.35 5.0 3.7 6.55 5.5" fill="#648e4c" fill-rule="evenodd" stroke="none"/>
    <path d="M7.15 9.05 Q7.0 9.7 6.1 9.6 4.45 9.4 2.75 6.45 1.25 3.85 1.25 2.55 1.25 2.25 1.55 2.0 3.3 2.5 4.15 3.05 L4.3 3.15 4.35 3.2 5.0 3.7 5.65 4.35 6.0 5.35 6.85 7.3 Q7.3 8.5 7.15 9.05 M39.7 -5.1 Q42.0 -4.3 40.65 -0.1 39.3 4.15 36.95 3.4 34.7 2.7 36.05 -1.6 37.45 -5.85 39.7 -5.1 M21.15 6.2 Q18.9 6.65 18.15 2.65 17.25 -1.4 19.5 -1.85 21.7 -2.3 22.5 1.75 23.3 5.75 21.15 6.2" fill="#000000" fill-rule="evenodd" stroke="none"/>
    <path d="M39.95 5.65 Q38.0 12.75 35.75 14.1 35.95 11.8 34.75 8.95 L34.35 8.15 35.2 8.25 37.3 8.05 39.95 5.65 M21.75 11.3 L21.95 11.25 20.7 13.65 Q19.5 16.5 19.7 18.8 18.25 17.95 16.8 15.1 17.6 14.8 18.45 14.1 L21.0 11.85 21.75 11.3" fill="#ffffff" fill-rule="evenodd" stroke="none"/>
    <path d="M16.6 -6.5 Q15.35 -5.75 14.2 -4.7 15.35 -5.75 16.6 -6.5 22.5 -10.3 30.2 -8.75 34.65 -10.8 37.25 -10.95 39.0 -11.05 41.25 -10.15 45.85 -8.4 44.45 -2.4 43.4 2.0 39.95 5.65 L37.3 8.05 35.2 8.25 34.35 8.15 31.7 7.9 Q26.55 7.75 21.75 11.3 L21.0 11.85 18.45 14.1 Q17.6 14.8 16.8 15.1 L15.75 15.35 Q12.5 15.5 7.75 7.6 L7.7 7.45 6.55 5.5 5.0 3.7 4.35 3.2 4.3 3.15 4.15 3.05 Q3.3 2.5 1.55 2.0 1.25 2.25 1.25 2.55 1.25 3.85 2.75 6.45 4.45 9.4 6.1 9.6 7.0 9.7 7.15 9.05 8.6 11.7 8.2 11.8 6.55 10.7 5.1 10.1 L2.5 10.05 1.65 10.95 1.6 10.95 2.0 9.85 -11.85 25.4 Q-11.2 15.3 -12.75 7.55 -14.45 1.0 -14.55 -1.6 -15.25 -20.55 -8.4 -24.15 -3.9 -26.85 0.0 -24.8 4.2 -22.65 9.6 -14.1 13.15 -8.35 16.6 -6.5 M-9.75 -5.85 Q-5.8 0.1 0.15 1.6 L1.55 2.0 0.15 1.6 Q-5.8 0.1 -9.75 -5.85 M39.7 -5.1 Q37.45 -5.85 36.05 -1.6 34.7 2.7 36.95 3.4 39.3 4.15 40.65 -0.1 42.0 -4.3 39.7 -5.1 M21.15 6.2 Q23.3 5.75 22.5 1.75 21.7 -2.3 19.5 -1.85 17.25 -1.4 18.15 2.65 18.9 6.65 21.15 6.2" fill="#4c8335" fill-rule="evenodd" stroke="none"/>
    <path d="M14.2 -4.7 Q15.35 -5.75 16.6 -6.5 13.15 -8.35 9.6 -14.1 4.2 -22.65 0.0 -24.8 -3.9 -26.85 -8.4 -24.15 -15.25 -20.55 -14.55 -1.6 -14.45 1.0 -12.75 7.55 -11.2 15.3 -11.85 25.4 M1.65 10.95 L2.5 10.05 5.1 10.1 Q6.55 10.7 8.2 11.8 8.6 11.7 7.15 9.05 M1.55 2.0 L0.15 1.6 Q-5.8 0.1 -9.75 -5.85 M16.6 -6.5 Q22.5 -10.3 30.2 -8.75 34.65 -10.8 37.25 -10.95 39.0 -11.05 41.25 -10.15 45.85 -8.4 44.45 -2.4 43.4 2.0 39.95 5.65 38.0 12.75 35.75 14.1 35.95 11.8 34.75 8.95 L34.35 8.15 31.7 7.9 Q26.55 7.75 21.75 11.3 L21.0 11.85 18.45 14.1 Q17.6 14.8 16.8 15.1 L15.75 15.35 Q12.5 15.5 7.75 7.6 L7.7 7.45 6.55 5.5 5.0 3.7 4.35 3.2 M21.95 11.25 L20.7 13.65 Q19.5 16.5 19.7 18.8 18.25 17.95 16.8 15.1 M39.95 5.65 L37.3 8.05 35.2 8.25 34.35 8.15 M4.3 3.15 L4.15 3.05 Q3.3 2.5 1.55 2.0 M1.4 11.4 L1.65 10.95 M1.35 11.55 L1.4 11.4" fill="none" stroke="#000000" stroke-linecap="round" stroke-linejoin="round" stroke-width="0.05"/>
  </g>
</svg>
