<?xml version="1.0" encoding="UTF-8" standalone="no"?>
<svg xmlns:xlink="http://www.w3.org/1999/xlink" height="51.1px" width="59.4px" xmlns="http://www.w3.org/2000/svg">
  <g transform="matrix(1.0, 0.0, 0.0, 1.0, 14.6, 25.7)">
    <path d="M7.3 9.5 Q6.95 10.0 6.1 9.9 4.55 9.7 2.3 6.3 L-0.2 2.05 Q-0.55 1.5 -0.2 1.25 L0.3 1.35 Q3.2 1.95 4.4 2.65 5.6 3.35 6.65 4.75 6.75 5.6 7.4 7.75 7.65 8.95 7.3 9.5 M39.7 -6.1 Q42.0 -5.3 40.65 -1.1 39.3 3.15 36.95 2.4 34.7 1.7 36.05 -2.6 37.45 -6.85 39.7 -6.1 M21.15 5.2 Q18.9 5.65 18.15 1.65 17.25 -2.4 19.5 -2.85 21.7 -3.3 22.5 0.75 23.3 4.75 21.15 5.2" fill="#000000" fill-rule="evenodd" stroke="none"/>
    <path d="M39.95 4.65 Q38.0 11.75 35.75 13.1 35.95 10.8 34.75 7.95 L34.35 7.15 35.2 7.25 37.3 7.05 39.95 4.65 M21.75 10.3 L21.95 10.25 20.7 12.65 Q19.5 15.5 19.7 17.8 18.3 17.0 16.9 14.3 L18.5 13.15 21.0 10.85 21.75 10.3" fill="#ffffff" fill-rule="evenodd" stroke="none"/>
    <path d="M16.15 -7.2 L14.2 -5.7 16.15 -7.2 Q22.15 -11.4 30.2 -9.75 34.65 -11.8 37.25 -11.95 39.0 -12.05 41.25 -11.15 45.85 -9.4 44.45 -3.4 43.4 1.0 39.95 4.65 L37.3 7.05 35.2 7.25 34.35 7.15 31.7 6.9 Q26.55 6.75 21.75 10.3 L21.0 10.85 18.5 13.15 16.9 14.3 16.1 14.6 15.9 14.6 Q12.75 14.95 8.05 7.1 L6.65 4.75 Q5.6 3.35 4.4 2.65 3.2 1.95 0.3 1.35 L-0.2 1.25 Q-0.55 1.5 -0.2 2.05 L2.3 6.3 Q4.55 9.7 6.1 9.9 6.95 10.0 7.3 9.5 8.15 12.2 7.8 12.3 L4.9 10.35 Q2.25 8.9 1.25 11.8 L1.85 10.05 -11.85 25.4 Q-11.2 15.3 -12.75 7.55 -14.45 1.0 -14.55 -1.6 -15.25 -20.55 -8.4 -24.15 -3.9 -26.85 0.0 -24.8 4.2 -22.65 9.6 -14.1 12.8 -8.9 16.15 -7.2 M-9.75 -5.85 Q-5.95 -0.15 -0.2 1.25 -5.95 -0.15 -9.75 -5.85 M39.7 -6.1 Q37.45 -6.85 36.05 -2.6 34.7 1.7 36.95 2.4 39.3 3.15 40.65 -1.1 42.0 -5.3 39.7 -6.1 M21.15 5.2 Q23.3 4.75 22.5 0.75 21.7 -3.3 19.5 -2.85 17.25 -2.4 18.15 1.65 18.9 5.65 21.15 5.2" fill="#4c8335" fill-rule="evenodd" stroke="none"/>
    <path d="M14.2 -5.7 L16.15 -7.2 Q12.8 -8.9 9.6 -14.1 4.2 -22.65 0.0 -24.8 -3.9 -26.85 -8.4 -24.15 -15.25 -20.55 -14.55 -1.6 -14.45 1.0 -12.75 7.55 -11.2 15.3 -11.85 25.4 M1.25 11.8 Q2.25 8.9 4.9 10.35 L7.8 12.3 Q8.15 12.2 7.3 9.5 M-0.2 1.25 Q-5.95 -0.15 -9.75 -5.85 M16.15 -7.2 Q22.15 -11.4 30.2 -9.75 34.65 -11.8 37.25 -11.95 39.0 -12.05 41.25 -11.15 45.85 -9.4 44.45 -3.4 43.4 1.0 39.95 4.65 38.0 11.75 35.75 13.1 35.95 10.8 34.75 7.95 L34.35 7.15 31.7 6.9 Q26.55 6.75 21.75 10.3 L21.0 10.85 18.5 13.15 16.9 14.3 16.1 14.6 15.9 14.6 Q12.75 14.95 8.05 7.1 L6.65 4.75 Q5.6 3.35 4.4 2.65 3.2 1.95 0.3 1.35 L-0.2 1.25 M21.95 10.25 L20.7 12.65 Q19.5 15.5 19.7 17.8 18.3 17.0 16.9 14.3 M39.95 4.65 L37.3 7.05 35.2 7.25 34.35 7.15" fill="none" stroke="#000000" stroke-linecap="round" stroke-linejoin="round" stroke-width="0.05"/>
  </g>
</svg>
