<?xml version="1.0" encoding="UTF-8" standalone="no"?>
<svg xmlns:xlink="http://www.w3.org/1999/xlink" height="103.75px" width="117.85px" xmlns="http://www.w3.org/2000/svg">
  <g transform="matrix(1.0, 0.0, 0.0, 1.0, 58.9, 51.85)">
    <path d="M0.6 -11.6 L-7.7 -12.1 Q-15.2 -12.15 -19.75 -5.9 -21.35 -2.6 -20.7 2.0 L-19.5 6.75 Q-16.85 14.5 -10.0 20.45 -3.15 26.35 6.9 25.75 16.65 24.35 19.8 18.45 22.9 12.5 22.7 6.9 22.55 1.3 22.25 0.9 22.95 0.5 26.85 -5.35 30.7 -11.2 29.25 -17.4 24.1 -28.7 17.1 -28.8 10.1 -28.95 9.4 -28.1 9.35 -28.6 4.7 -31.35 0.05 -34.1 -8.1 -32.6 -18.4 -29.2 -20.8 -23.45 -22.95 -18.15 -22.8 -17.2 -23.25 -17.9 -27.7 -19.15 -32.6 -20.5 -41.6 -13.75 -47.0 -8.8 -46.9 -4.15 -46.8 0.45 -44.75 3.45 L-42.4 6.6 Q-43.3 7.05 -44.35 15.0 L-44.4 17.15 -44.35 15.0 Q-43.3 7.05 -42.4 6.6 L-44.75 3.45 Q-46.8 0.45 -46.9 -4.15 -47.0 -8.8 -41.6 -13.75 -32.6 -20.5 -27.7 -19.15 -23.25 -17.9 -22.8 -17.2 -22.95 -18.15 -20.8 -23.45 -18.4 -29.2 -8.1 -32.6 0.05 -34.1 4.7 -31.35 9.35 -28.6 9.4 -28.1 10.1 -28.95 17.1 -28.8 24.1 -28.7 29.25 -17.4 30.7 -11.2 26.85 -5.35 22.95 0.5 22.25 0.9 22.55 1.3 22.7 6.9 22.9 12.5 19.8 18.45 16.65 24.35 6.9 25.75 -3.15 26.35 -10.0 20.45 -16.85 14.5 -19.5 6.75 L-20.7 2.0 Q-21.35 -2.6 -19.75 -5.9 -15.2 -12.15 -7.7 -12.1 L0.6 -11.6 M-44.6 17.25 Q-44.9 17.25 -48.6 14.85 -52.35 12.4 -55.55 7.7 -58.75 2.95 -57.6 -4.1 -54.45 -14.6 -46.95 -19.85 -39.5 -25.1 -38.6 -25.1 -38.8 -25.65 -37.0 -31.8 -35.15 -37.95 -28.4 -42.9 -19.9 -47.6 -14.35 -46.6 -8.8 -45.6 -8.6 -45.1 -8.45 -45.9 -1.2 -49.25 6.05 -52.6 18.9 -48.9 31.1 -43.9 33.55 -38.25 35.95 -32.7 35.45 -32.1 36.1 -32.7 42.4 -33.05 48.85 -33.4 54.75 -25.9 59.25 -18.5 57.45 -13.15 55.65 -7.85 52.25 -5.0 48.8 -2.1 48.4 -2.1 48.95 -1.7 49.7 5.2 50.5 12.15 45.4 20.9 37.0 32.15 29.4 33.45 L21.25 34.1 19.25 38.25 Q17.25 42.1 13.1 46.1 8.9 50.15 2.4 50.9 -4.05 51.05 -8.05 46.95 -12.0 42.85 -13.8 38.55 L-15.6 33.9 Q-16.25 34.4 -23.15 35.55 -30.1 36.7 -35.6 32.9 -44.1 24.25 -44.4 17.15 L-44.6 17.25" fill="#506072" fill-rule="evenodd" stroke="none"/>
    <path d="M-44.4 17.15 L-44.35 15.0 Q-43.3 7.05 -42.4 6.6 L-44.75 3.45 Q-46.8 0.45 -46.9 -4.15 -47.0 -8.8 -41.6 -13.75 -32.6 -20.5 -27.7 -19.15 -23.25 -17.9 -22.8 -17.2 -22.95 -18.15 -20.8 -23.45 -18.4 -29.2 -8.1 -32.6 0.05 -34.1 4.7 -31.35 9.35 -28.6 9.4 -28.1 10.1 -28.95 17.1 -28.8 24.1 -28.7 29.25 -17.4 30.7 -11.2 26.85 -5.35 22.95 0.5 22.25 0.9 22.55 1.3 22.7 6.9 22.9 12.5 19.8 18.45 16.65 24.35 6.9 25.75 -3.15 26.35 -10.0 20.45 -16.85 14.5 -19.5 6.75 L-20.7 2.0 Q-21.35 -2.6 -19.75 -5.9 -15.2 -12.15 -7.7 -12.1 L0.6 -11.6 M-44.6 17.25 Q-44.9 17.25 -48.6 14.85 -52.35 12.4 -55.55 7.7 -58.75 2.95 -57.6 -4.1 -54.45 -14.6 -46.95 -19.85 -39.5 -25.1 -38.6 -25.1 -38.8 -25.65 -37.0 -31.8 -35.15 -37.95 -28.4 -42.9 -19.9 -47.6 -14.35 -46.6 -8.8 -45.6 -8.6 -45.1 -8.45 -45.9 -1.2 -49.25 6.05 -52.6 18.9 -48.9 31.1 -43.9 33.55 -38.25 35.95 -32.7 35.45 -32.1 36.1 -32.7 42.4 -33.05 48.85 -33.4 54.75 -25.9 59.25 -18.5 57.45 -13.15 55.65 -7.85 52.25 -5.0 48.8 -2.1 48.4 -2.1 48.95 -1.7 49.7 5.2 50.5 12.15 45.4 20.9 37.0 32.15 29.4 33.45 L21.25 34.1 19.25 38.25 Q17.25 42.1 13.1 46.1 8.9 50.15 2.4 50.9 -4.05 51.05 -8.05 46.95 -12.0 42.85 -13.8 38.55 L-15.6 33.9 Q-16.25 34.4 -23.15 35.55 -30.1 36.7 -35.6 32.9 -44.1 24.25 -44.4 17.15 Z" fill="none" stroke="#95b2bb" stroke-linecap="round" stroke-linejoin="round" stroke-width="2.0"/>
  </g>
</svg>
