<?xml version="1.0" encoding="UTF-8" standalone="no"?>
<svg xmlns:xlink="http://www.w3.org/1999/xlink" height="57.35px" width="65.6px" xmlns="http://www.w3.org/2000/svg">
  <g transform="matrix(1.0, 0.0, 0.0, 1.0, 0.0, 0.0)">
    <path d="M60.55 30.4 Q58.25 29.7 56.9 33.9 55.45 38.1 57.8 38.85 60.05 39.6 61.5 35.4 62.85 31.15 60.55 30.4 M45.45 26.15 L49.1 26.4 49.95 26.55 50.6 26.65 51.05 26.75 Q55.45 24.7 58.1 24.55 59.8 24.45 62.1 25.35 66.65 27.1 65.25 33.05 64.25 37.45 60.75 41.15 L58.15 43.5 56.05 43.75 55.2 43.65 52.55 43.4 52.4 43.4 51.95 43.4 51.7 43.4 51.6 43.4 51.55 43.4 51.45 43.4 51.25 43.45 51.2 43.45 Q46.8 43.7 42.7 46.7 L42.65 46.7 41.8 47.35 41.25 47.8 41.15 47.85 41.0 47.95 40.75 48.15 38.4 49.5 37.5 49.8 37.35 49.85 36.55 49.9 36.45 49.9 36.25 49.85 Q32.8 49.2 27.95 41.15 L27.8 40.8 27.6 40.45 26.9 40.45 27.45 40.2 27.5 39.25 Q27.55 38.5 27.2 37.45 26.2 35.05 24.2 34.55 L22.5 34.45 22.2 34.5 21.9 34.55 21.3 34.8 Q19.45 35.55 20.45 38.15 21.4 40.8 23.7 41.1 L25.05 41.1 25.2 41.1 25.3 41.1 Q23.5 41.9 22.9 43.55 L22.7 42.0 9.05 57.35 Q9.6 48.75 8.55 41.85 L8.15 39.5 6.9 34.05 6.5 31.7 6.35 30.35 6.3 24.85 6.35 24.35 Q6.45 20.25 7.1 17.15 L7.25 16.5 Q8.0 13.1 9.35 10.9 L10.1 9.8 Q11.15 8.5 12.5 7.8 14.0 6.9 15.45 6.55 L15.55 6.5 Q18.35 5.8 20.9 7.15 L22.15 7.9 Q25.9 10.55 30.5 17.85 34.95 25.05 37.7 27.35 L38.3 27.85 38.35 27.85 38.45 27.75 39.1 27.45 43.85 26.25 45.45 26.15 M41.95 41.7 Q44.15 41.25 43.35 37.25 42.45 33.2 40.3 33.65 38.15 34.1 38.95 38.1 39.75 42.15 41.95 41.7 M37.9 28.05 L37.55 28.25 Q36.4 28.9 35.4 29.75 36.4 28.9 37.55 28.25 L37.9 28.05 38.3 27.85 38.2 27.9 37.9 28.05 M27.8 40.8 L27.45 40.2 27.8 40.8" fill="#4c8335" fill-rule="evenodd" stroke="none"/>
    <path d="M60.55 30.4 Q62.85 31.15 61.5 35.4 60.05 39.6 57.8 38.85 55.45 38.1 56.9 33.9 58.25 29.7 60.55 30.4 M26.9 40.45 Q26.3 40.95 25.2 41.1 L25.05 41.1 23.7 41.1 Q21.4 40.8 20.45 38.15 19.45 35.55 21.3 34.8 L21.9 34.55 22.2 34.5 22.5 34.45 24.2 34.55 Q26.2 35.05 27.2 37.45 27.55 38.5 27.5 39.25 L27.35 39.8 27.1 40.25 26.9 40.45 M41.95 41.7 Q39.75 42.15 38.95 38.1 38.15 34.1 40.3 33.65 42.45 33.2 43.35 37.25 44.15 41.25 41.95 41.7" fill="#000000" fill-rule="evenodd" stroke="none"/>
    <path d="M51.45 43.4 L51.3 43.45 51.25 43.45 51.45 43.4 M51.2 43.45 L51.1 43.45 51.0 43.45 50.75 43.5 50.5 43.5 50.4 43.55 50.25 43.55 49.45 43.7 49.35 43.7 43.25 46.35 43.15 46.4 43.05 46.45 42.7 46.7 43.05 46.45 42.7 46.7 42.65 46.7 42.7 46.7 Q46.8 43.7 51.2 43.45 M37.7 49.75 L37.5 49.8 38.4 49.5 37.7 49.75 M43.85 26.25 L44.7 26.2 45.15 26.15 45.45 26.15 43.85 26.25 M37.9 28.05 L38.2 27.9 38.3 27.85 37.9 28.05" fill="#648e4c" fill-rule="evenodd" stroke="none"/>
    <path d="M60.75 41.15 Q58.85 48.2 56.6 49.6 56.8 47.3 55.6 44.45 L55.2 43.65 56.05 43.75 58.15 43.5 60.75 41.15 M42.7 46.7 L42.75 46.7 41.5 49.1 Q40.3 51.95 40.5 54.25 39.15 53.45 37.7 49.75 L38.4 49.5 40.75 48.15 41.0 47.95 41.15 47.85 41.25 47.8 41.8 47.35 42.65 46.7 42.7 46.7" fill="#ffffff" fill-rule="evenodd" stroke="none"/>
    <path d="M8.55 41.85 L1.65 37.0 6.9 34.05 8.15 39.5 8.55 41.85 M6.5 31.7 L0.0 27.85 6.3 24.85 6.35 30.35 6.5 31.7 M6.35 24.35 L5.65 23.6 3.2 20.8 0.0 16.85 3.9 17.55 6.15 17.35 7.1 17.15 Q6.45 20.25 6.35 24.35 M7.25 16.5 Q5.6 15.05 4.6 12.95 3.45 10.45 3.15 7.5 5.1 9.7 6.7 10.35 8.35 11.0 9.3 10.9 L9.35 10.9 Q8.0 13.1 7.25 16.5 M10.1 9.8 L9.95 8.85 Q9.7 7.05 10.05 4.6 10.45 2.1 12.3 0.0 12.35 3.1 13.15 4.5 13.95 5.9 14.7 6.25 L15.45 6.55 Q14.0 6.9 12.5 7.8 11.15 8.5 10.1 9.8 M15.55 6.5 L16.15 5.65 Q16.8 4.85 18.35 3.75 19.95 2.65 22.8 1.85 25.7 1.0 30.1 1.0 26.4 2.75 24.65 4.45 22.85 6.1 22.3 7.45 L22.15 7.9 20.9 7.15 Q18.35 5.8 15.55 6.5" fill="#f7df15" fill-rule="evenodd" stroke="none"/>
    <path d="M45.45 26.15 L49.1 26.4 49.95 26.55 50.6 26.65 51.05 26.75 Q55.45 24.7 58.1 24.55 59.8 24.45 62.1 25.35 66.65 27.1 65.25 33.05 64.25 37.45 60.75 41.15 58.85 48.2 56.6 49.6 56.8 47.3 55.6 44.45 L55.2 43.65 52.55 43.4 52.4 43.4 51.95 43.4 51.7 43.4 51.6 43.4 51.55 43.4 51.45 43.4 51.25 43.45 51.2 43.45 51.1 43.45 51.0 43.45 50.75 43.5 50.5 43.5 50.4 43.55 50.25 43.55 49.45 43.7 49.35 43.7 43.25 46.35 43.05 46.45 42.7 46.7 42.65 46.7 41.8 47.35 41.25 47.8 41.15 47.85 41.0 47.95 40.75 48.15 38.4 49.5 37.5 49.8 37.35 49.85 36.55 49.9 36.45 49.9 36.25 49.85 Q32.8 49.2 27.95 41.15 L27.8 40.8 27.6 40.45 26.9 40.45 M42.75 46.7 L41.5 49.1 Q40.3 51.95 40.5 54.25 39.15 53.45 37.7 49.75 M25.3 41.1 Q23.5 41.9 22.9 43.55 M9.05 57.35 Q9.6 48.75 8.55 41.85 M6.9 34.05 L6.5 31.7 M6.3 24.85 L6.35 24.35 M7.1 17.15 L7.25 16.5 M9.35 10.9 L10.1 9.8 M15.45 6.55 L15.55 6.5 M22.15 7.9 Q25.9 10.55 30.5 17.85 34.95 25.05 37.7 27.35 L38.3 27.85 38.45 27.75 39.1 27.45 43.85 26.25 44.7 26.2 45.15 26.15 45.45 26.15 43.85 26.25 M43.25 46.35 L43.15 46.4 M60.75 41.15 L58.15 43.5 56.05 43.75 55.2 43.65 M51.2 43.45 Q46.8 43.7 42.7 46.7 M22.15 7.9 L20.9 7.15 Q18.35 5.8 15.55 6.5 M15.45 6.55 Q14.0 6.9 12.5 7.8 11.15 8.5 10.1 9.8 M7.1 17.15 Q6.45 20.25 6.35 24.35 M9.35 10.9 Q8.0 13.1 7.25 16.5 M6.3 24.85 L6.35 30.35 6.5 31.7 M6.9 34.05 L8.15 39.5 8.55 41.85 M38.3 27.85 L38.35 27.85 38.45 27.75 M35.4 29.75 Q36.4 28.9 37.55 28.25 L37.9 28.05 38.2 27.9 38.3 27.85 37.9 28.05 M27.45 40.2 L27.8 40.8" fill="none" stroke="#000000" stroke-linecap="round" stroke-linejoin="round" stroke-width="0.05"/>
    <path d="M8.55 41.85 L1.65 37.0 6.9 34.05 M6.5 31.7 L0.0 27.85 6.3 24.85 M6.35 24.35 L5.65 23.6 3.2 20.8 0.0 16.85 3.9 17.55 6.15 17.35 7.1 17.15 M7.25 16.5 Q5.6 15.05 4.6 12.95 3.45 10.45 3.15 7.5 5.1 9.7 6.7 10.35 8.35 11.0 9.3 10.9 L9.35 10.9 M10.1 9.8 L9.95 8.85 Q9.7 7.05 10.05 4.6 10.45 2.1 12.3 0.0 12.35 3.1 13.15 4.5 13.95 5.9 14.7 6.25 L15.45 6.55 M15.55 6.5 L16.15 5.65 Q16.8 4.85 18.35 3.75 19.95 2.65 22.8 1.85 25.7 1.0 30.1 1.0 26.4 2.75 24.65 4.45 22.85 6.1 22.3 7.45 L22.15 7.9" fill="none" stroke="#2d4e1f" stroke-linecap="round" stroke-linejoin="round" stroke-width="0.05"/>
  </g>
</svg>
