<?xml version="1.0" encoding="UTF-8" standalone="no"?>
<svg xmlns:xlink="http://www.w3.org/1999/xlink" height="166.6px" width="150.45px" xmlns="http://www.w3.org/2000/svg">
  <g transform="matrix(1.0, 0.0, 0.0, 1.0, 162.55, 14.9)">
    <path d="M-127.8 6.35 Q-124.2 4.9 -123.95 -2.4 -123.95 -12.15 -134.7 -8.15 L-134.05 -9.8 -133.2 -10.85 -130.65 -12.65 Q-123.05 -16.75 -113.5 -13.4 -103.4 -8.25 -102.25 -1.15 L-101.8 2.15 -102.1 6.85 Q-102.55 9.2 -106.35 17.85 L-106.8 22.6 Q-106.45 27.25 -105.85 27.85 L-102.75 32.3 -100.75 34.25 -99.45 34.95 -68.65 47.55 Q-61.2 50.7 -51.6 58.75 -39.85 70.2 -33.85 89.4 -29.45 83.45 -24.7 83.0 -19.95 82.7 -20.1 86.5 L-15.4 87.15 -13.2 88.45 -12.4 89.4 -12.1 90.45 -12.35 92.5 -13.3 93.95 -13.4 94.1 -12.85 95.25 -12.75 96.55 -13.7 98.65 -14.95 99.5 Q-21.3 101.5 -30.5 96.3 L-32.8 94.95 -33.65 94.95 -37.45 100.55 -40.55 103.9 Q-36.85 113.1 -39.05 116.1 -42.35 118.25 -49.2 109.2 L-55.85 111.45 -55.95 111.5 -57.5 112.85 -59.4 112.95 -59.85 112.65 -59.9 112.65 -71.55 115.6 -79.45 116.55 -71.55 115.6 Q-68.25 116.7 -67.5 121.45 L-67.8 122.1 -73.25 121.45 -77.3 122.65 -78.35 122.75 -79.1 122.45 -79.5 121.6 -80.6 118.25 -79.45 116.55 -82.65 116.75 Q-123.75 113.75 -127.35 95.6 -133.1 82.55 -130.35 71.75 -131.0 68.25 -118.4 41.55 L-117.55 37.75 -117.45 33.25 Q-118.45 22.8 -127.9 14.5 L-128.1 13.85 -127.8 11.95 -126.5 8.65 -126.5 8.55 -124.4 7.2 -123.85 6.1 -124.15 5.9 Q-127.05 6.95 -127.8 6.35 M-102.0 70.65 L-86.7 88.0 -81.15 96.3 Q-70.3 116.75 -70.5 96.3 L-70.05 96.0 -69.65 96.3 -68.85 97.3 -62.05 110.8 -59.9 112.65 -62.05 110.8 -68.85 97.3 -69.65 96.3 -70.05 96.0 -70.5 96.3 Q-70.3 116.75 -81.15 96.3 L-86.7 88.0 -102.0 70.65 M-24.35 89.0 Q-13.45 91.4 -13.3 93.95 -13.45 91.4 -24.35 89.0 M-26.45 86.0 L-20.1 86.5 -26.45 86.0 M-33.2 91.75 L-33.3 90.25 -33.85 89.4 -33.3 90.25 -33.2 91.75 M-40.55 103.9 L-44.6 96.3 -48.55 90.25 -53.0 85.35 Q-55.65 82.9 -62.7 79.05 L-72.4 74.35 -87.55 68.1 Q-92.45 65.7 -93.5 63.4 L-93.7 63.0 -93.5 63.4 Q-92.45 65.7 -87.55 68.1 L-72.4 74.35 -62.7 79.05 Q-55.65 82.9 -53.0 85.35 L-48.55 90.25 -44.6 96.3 -40.55 103.9 M-55.95 111.5 L-55.45 108.9 -56.2 101.55 -56.1 100.05 -55.7 99.8 -54.95 100.5 -49.2 109.2 -54.95 100.5 -55.7 99.8 -56.1 100.05 -56.2 101.55 -55.45 108.9 -55.95 111.5" fill="#ffffff" fill-rule="evenodd" stroke="none"/>
    <path d="M-130.65 -12.65 L-133.2 -10.85 -134.05 -9.8 -134.7 -8.15 Q-123.95 -12.15 -123.95 -2.4 -124.2 4.9 -127.8 6.35 -134.9 7.75 -137.8 0.8 L-137.8 0.0 Q-135.55 1.45 -137.15 -2.4 L-137.45 -2.4 -138.0 -1.45 -138.1 -1.75 -138.1 -1.9 -138.0 -2.4 -138.0 -2.85 -138.0 -2.95 -138.0 -2.85 -138.0 -2.4 -138.1 -1.9 -138.1 -1.75 -138.25 -1.9 -138.1 -1.9 -138.25 -1.9 -138.55 -3.25 -138.1 -2.95 -138.0 -2.95 -137.4 -4.75 -137.9 -5.95 -138.3 -5.95 -138.75 -5.4 -138.7 -5.6 Q-137.15 -13.3 -130.65 -12.65 M-134.7 -8.15 L-136.6 -6.25 -137.4 -4.75 -136.6 -6.25 -134.7 -8.15 M-138.0 -2.85 L-138.1 -2.95 -138.0 -2.85" fill="#ff7a16" fill-rule="evenodd" stroke="none"/>
    <path d="M-138.75 -5.4 L-138.3 -5.95 -137.9 -5.95 -137.4 -4.75 -138.0 -2.95 -138.1 -2.95 -138.55 -3.25 -138.65 -3.45 -138.75 -3.7 -138.85 -4.95 -138.75 -5.2 -138.75 -5.4 M-138.0 -1.45 L-137.45 -2.4 -137.15 -2.4 Q-135.55 1.45 -137.8 0.0 L-137.9 -0.3 -137.9 -0.4 -138.0 -1.45" fill="#000000" fill-rule="evenodd" stroke="none"/>
    <path d="M-127.8 6.35 Q-127.05 6.95 -124.15 5.9 L-123.85 6.1 -124.4 7.2 -126.5 8.55 -126.5 8.65 -147.25 14.5 Q-164.0 18.45 -162.4 16.45 -162.0 15.05 -141.1 3.45 L-137.8 0.8 Q-134.9 7.75 -127.8 6.35 M-82.65 116.75 L-79.45 116.55 -80.6 118.25 -79.5 121.6 -79.1 122.45 -78.35 122.75 -78.25 126.15 -78.45 127.1 -79.65 128.8 Q-80.4 130.15 -87.95 132.55 L-95.7 137.0 -97.0 137.45 -97.75 137.2 -96.15 133.1 -102.1 132.3 -103.6 131.8 -103.4 130.95 -97.85 128.25 -97.9 128.25 -100.5 126.9 -101.15 126.35 -100.95 125.7 -97.0 125.2 -83.5 125.65 -82.4 124.75 -81.8 123.7 -82.65 116.75 M-97.9 128.25 L-97.55 128.05 -97.9 128.25 M-73.25 121.45 L-74.4 127.75 -74.4 129.45 -73.45 134.8 -73.15 139.55 -73.7 141.4 -76.05 143.6 Q-82.5 145.45 -92.1 151.5 L-94.15 151.7 -94.15 151.0 Q-91.9 147.65 -92.2 147.35 -99.75 146.6 -100.1 145.85 L-99.75 145.1 -93.7 141.9 -96.7 139.75 -97.2 138.9 Q-94.35 137.45 -80.35 139.7 L-78.05 138.85 -76.9 137.2 Q-78.4 130.4 -77.3 122.65 L-73.25 121.45" fill="#fa410f" fill-rule="evenodd" stroke="none"/>
    <path d="M-126.5 8.65 L-127.8 11.95 -128.1 13.85 -127.9 14.5 -131.2 15.15 -144.6 14.85 -147.25 14.5 -126.5 8.65" fill="#fa420e" fill-rule="evenodd" stroke="none"/>
    <path d="M-130.65 -12.65 L-133.2 -10.85 -134.05 -9.8 -134.7 -8.15 Q-123.95 -12.15 -123.95 -2.4 -124.2 4.9 -127.8 6.35 -127.05 6.95 -124.15 5.9 L-123.85 6.1 -124.4 7.2 -126.5 8.55 -126.5 8.65 -127.8 11.95 -128.1 13.85 -127.9 14.5 Q-118.45 22.8 -117.45 33.25 L-117.55 37.75 -118.4 41.55 Q-131.0 68.25 -130.35 71.75 -133.1 82.55 -127.35 95.6 -123.75 113.75 -82.65 116.75 L-79.45 116.55 -71.55 115.6 -59.9 112.65 -62.05 110.8 -68.85 97.3 -69.65 96.3 -70.05 96.0 -70.5 96.3 Q-70.3 116.75 -81.15 96.3 L-86.7 88.0 -102.0 70.65 M-137.4 -4.75 L-136.6 -6.25 -134.7 -8.15 M-138.75 -5.4 L-138.3 -5.95 -137.9 -5.95 -137.4 -4.75 -138.0 -2.95 -138.0 -2.85 -138.0 -2.4 -138.1 -1.9 -138.1 -1.75 -138.0 -1.45 -137.45 -2.4 -137.15 -2.4 Q-135.55 1.45 -137.8 0.0 L-137.8 0.8 Q-134.9 7.75 -127.8 6.35 M-138.7 -5.6 L-138.85 -6.05 M-138.75 -5.4 L-138.7 -5.6 Q-137.15 -13.3 -130.65 -12.65 -123.05 -16.75 -113.5 -13.4 -103.4 -8.25 -102.25 -1.15 L-101.8 2.15 -102.1 6.85 Q-102.55 9.2 -106.35 17.85 L-106.8 22.6 Q-106.45 27.25 -105.85 27.85 L-102.75 32.3 -100.75 34.25 -99.45 34.95 -68.65 47.55 Q-61.2 50.7 -51.6 58.75 -39.85 70.2 -33.85 89.4 -29.45 83.45 -24.7 83.0 -19.95 82.7 -20.1 86.5 L-15.4 87.15 -13.2 88.45 -12.4 89.4 -12.1 90.45 -12.35 92.5 -13.3 93.95 -13.4 94.1 -12.85 95.25 -12.75 96.55 -13.7 98.65 -14.95 99.5 Q-21.3 101.5 -30.5 96.3 L-32.8 94.95 -33.65 94.95 -37.45 100.55 -40.55 103.9 Q-36.85 113.1 -39.05 116.1 -42.35 118.25 -49.2 109.2 L-55.85 111.45 -55.95 111.5 -57.5 112.85 -59.4 112.95 -59.85 112.65 -59.9 112.65 M-138.55 -3.25 L-138.65 -3.45 -138.75 -3.7 -138.85 -4.95 -138.75 -5.2 -138.75 -5.4 M-138.1 -1.9 L-138.25 -1.9 -138.1 -1.75 M-138.0 -2.95 L-138.1 -2.95 -138.0 -2.85 M-137.8 0.0 L-137.9 -0.3 -137.9 -0.4 -138.0 -1.45 M-138.1 -2.95 L-138.55 -3.25 -138.25 -1.9 M-93.7 63.0 L-93.5 63.4 Q-92.45 65.7 -87.55 68.1 L-72.4 74.35 -62.7 79.05 Q-55.65 82.9 -53.0 85.35 L-48.55 90.25 -44.6 96.3 -40.55 103.9 M-33.85 89.4 L-33.3 90.25 -33.2 91.75 M-20.1 86.5 L-26.45 86.0 M-13.3 93.95 Q-13.45 91.4 -24.35 89.0 M-147.25 14.5 Q-164.0 18.45 -162.4 16.45 -162.0 15.05 -141.1 3.45 L-137.8 0.8 M-127.9 14.5 L-131.2 15.15 -144.6 14.85 -147.25 14.5 -126.5 8.65 M-78.35 122.75 L-78.25 126.15 -78.45 127.1 -79.65 128.8 Q-80.4 130.15 -87.95 132.55 L-95.7 137.0 -97.0 137.45 -97.75 137.2 -96.15 133.1 -102.1 132.3 -103.6 131.8 -103.4 130.95 -97.85 128.25 -97.9 128.25 -100.5 126.9 -101.15 126.35 -100.95 125.7 -97.0 125.2 -83.5 125.65 -82.4 124.75 -81.8 123.7 -82.65 116.75 M-97.55 128.05 L-97.9 128.25 M-73.25 121.45 L-74.4 127.75 -74.4 129.45 -73.45 134.8 -73.15 139.55 -73.7 141.4 -76.05 143.6 Q-82.5 145.45 -92.1 151.5 L-94.15 151.7 -94.15 151.0 Q-91.9 147.65 -92.2 147.35 -99.75 146.6 -100.1 145.85 L-99.75 145.1 -93.7 141.9 -96.7 139.75 -97.2 138.9 Q-94.35 137.45 -80.35 139.7 L-78.05 138.85 -76.9 137.2 Q-78.4 130.4 -77.3 122.65 L-78.35 122.75 -79.1 122.45 -79.5 121.6 -80.6 118.25 -79.45 116.55 M-49.2 109.2 L-54.95 100.5 -55.7 99.8 -56.1 100.05 -56.2 101.55 -55.45 108.9 -55.95 111.5 M-73.25 121.45 L-77.3 122.65 M-71.55 115.6 Q-68.25 116.7 -67.5 121.45 L-67.8 122.1 -73.25 121.45" fill="none" stroke="#000000" stroke-linecap="round" stroke-linejoin="round" stroke-width="0.05"/>
  </g>
</svg>
