<?xml version="1.0" encoding="UTF-8" standalone="no"?>
<svg xmlns:xlink="http://www.w3.org/1999/xlink" height="159.4px" width="158.7px" xmlns="http://www.w3.org/2000/svg">
  <g transform="matrix(1.0, 0.0, 0.0, 1.0, 169.35, 7.5)">
    <path d="M-137.05 14.95 L-136.4 14.65 -135.75 13.65 -135.45 12.7 -135.05 8.55 Q-135.35 -3.55 -146.35 2.05 L-145.75 0.15 -143.75 -2.4 -141.45 -4.25 Q-125.65 -12.25 -114.25 -0.6 -111.7 2.85 -111.7 3.85 L-110.85 7.4 Q-110.15 11.75 -112.65 22.4 L-112.05 26.2 Q-111.15 30.1 -110.0 31.25 L-105.85 35.4 -102.55 37.45 -71.15 48.5 Q-64.4 50.95 -56.45 56.4 -42.45 65.0 -32.85 90.25 -29.35 83.85 -23.0 82.6 -18.7 82.5 -18.8 86.1 L-14.35 86.2 -12.95 86.65 -11.7 87.5 -11.05 88.15 -10.65 89.5 -11.05 91.65 -12.25 93.15 -12.35 93.25 -11.55 94.3 -11.25 95.45 -11.35 96.75 -11.9 97.8 -13.2 98.85 Q-23.0 101.2 -30.2 96.3 L-31.5 95.65 -32.35 95.65 -36.05 101.15 -39.15 104.55 -36.9 109.0 Q-35.55 112.3 -35.55 115.5 L-36.25 117.1 Q-38.85 119.95 -48.2 110.05 L-48.3 110.1 -53.55 111.85 -53.55 112.0 Q-53.35 114.75 -55.8 115.9 -58.85 116.2 -60.7 114.0 L-71.2 116.55 -79.75 117.75 -71.2 116.55 -68.55 118.4 Q-66.9 121.0 -67.15 122.45 L-67.5 122.85 -73.15 122.3 -74.75 122.5 -77.3 123.5 -78.25 123.6 Q-79.25 123.5 -80.5 119.45 L-80.15 118.25 -79.75 117.75 -82.4 117.85 Q-120.5 114.6 -125.1 103.35 -133.55 88.65 -132.15 80.75 L-130.85 70.95 -128.3 63.1 -122.9 50.4 -121.05 43.8 -121.0 39.45 Q-121.4 29.6 -135.05 22.4 L-135.45 21.95 -135.65 20.8 -135.35 17.0 -133.65 15.05 -133.55 14.2 -134.05 14.0 -135.45 14.85 -137.05 14.95 M-103.8 73.65 L-103.1 74.35 -98.7 79.7 -90.4 88.55 -77.1 107.3 Q-72.05 113.5 -70.55 107.3 -73.45 91.9 -65.35 107.3 L-62.7 111.55 -60.7 114.0 -62.7 111.55 -65.35 107.3 Q-73.45 91.9 -70.55 107.3 -72.05 113.5 -77.1 107.3 L-90.4 88.55 -98.7 79.7 -103.1 74.35 -103.8 73.65 M-23.5 89.4 L-15.6 90.9 Q-12.8 92.1 -12.25 93.15 -12.8 92.1 -15.6 90.9 L-23.5 89.4 M-32.25 92.4 L-32.35 91.85 -32.45 90.75 -32.85 90.25 -32.45 90.75 -32.35 91.85 -32.25 92.4 M-25.95 86.3 L-21.7 86.45 -18.8 86.1 -21.7 86.45 -25.95 86.3 M-39.15 104.55 L-45.35 96.3 Q-51.95 88.85 -53.0 88.65 L-58.35 85.35 -73.15 78.1 -82.3 74.35 Q-93.1 70.5 -95.3 66.0 -93.1 70.5 -82.3 74.35 L-73.15 78.1 -58.35 85.35 -53.0 88.65 Q-51.95 88.85 -45.35 96.3 L-39.15 104.55 M-53.55 112.0 L-54.5 107.3 Q-57.1 98.3 -50.7 107.3 L-48.3 110.1 -50.7 107.3 Q-57.1 98.3 -54.5 107.3 L-53.55 112.0" fill="#ffffff" fill-rule="evenodd" stroke="none"/>
    <path d="M-141.45 -4.25 L-143.75 -2.4 -145.75 0.15 -146.35 2.05 Q-135.35 -3.55 -135.05 8.55 L-135.45 12.7 -135.75 13.65 -136.4 14.65 -137.05 14.95 Q-143.8 17.8 -148.25 11.75 L-148.9 10.15 -148.9 9.3 -148.25 10.15 -147.9 10.05 -147.5 8.55 -147.9 6.95 -148.55 6.95 -148.95 7.8 -149.1 6.95 Q-152.3 -3.45 -141.45 -4.25 M-147.25 3.0 L-147.8 2.8 -148.45 3.35 -148.95 3.2 -149.3 4.7 -149.3 5.35 -148.9 5.9 -147.25 3.0 -146.35 2.05 -147.25 3.0 M-148.9 5.9 L-149.1 6.95 -148.9 5.9" fill="#ff7a16" fill-rule="evenodd" stroke="none"/>
    <path d="M-137.05 14.95 L-135.45 14.85 -134.05 14.0 -133.55 14.2 -133.65 15.05 -135.35 17.0 -154.4 26.2 -160.4 29.0 -165.95 30.9 Q-169.35 32.15 -169.35 31.45 L-169.0 30.7 -164.65 26.35 -152.8 16.55 Q-148.95 13.2 -148.25 11.75 -143.8 17.8 -137.05 14.95 M-82.4 117.85 L-79.75 117.75 -80.15 118.25 -80.5 119.45 Q-79.25 123.5 -78.25 123.6 L-78.35 127.0 Q-79.3 128.85 -80.7 129.65 L-88.05 132.55 Q-92.6 135.65 -96.9 137.45 L-97.65 137.45 -97.85 137.15 -96.25 133.3 -96.25 133.15 Q-96.85 132.5 -102.3 132.3 L-103.8 131.7 -103.3 130.8 -97.95 128.2 -101.05 126.55 -101.25 125.9 -100.95 125.7 -87.2 126.15 -84.2 125.9 -83.05 125.5 -81.8 123.9 -82.4 117.85 M-96.25 133.3 L-96.15 133.15 -96.25 133.15 -96.15 133.15 -96.25 133.3 M-97.95 128.2 L-97.65 128.05 -97.95 128.2 M-73.15 122.3 L-74.3 129.45 Q-72.05 139.0 -73.75 141.8 L-76.55 144.05 Q-80.7 144.65 -92.5 151.7 -96.1 152.8 -92.2 147.35 L-98.9 146.5 -100.1 145.95 -99.75 145.1 -94.2 142.45 -93.7 141.9 -96.9 139.7 -97.2 139.25 -97.1 138.7 Q-94.3 137.7 -79.75 139.75 L-77.8 138.9 -76.75 137.35 -76.75 136.3 -77.6 130.5 -77.3 123.5 -74.75 122.5 -73.15 122.3" fill="#fa410f" fill-rule="evenodd" stroke="none"/>
    <path d="M-135.35 17.0 L-135.65 20.8 -135.45 21.95 -135.05 22.4 -138.45 23.65 Q-147.05 24.55 -149.75 25.7 L-154.4 26.2 -135.35 17.0" fill="#fa420e" fill-rule="evenodd" stroke="none"/>
    <path d="M-148.9 9.3 L-148.95 7.8 -148.55 6.95 -147.9 6.95 -147.5 8.55 -147.9 10.05 -148.25 10.15 -148.9 9.3 M-147.25 3.0 L-148.9 5.9 -149.3 5.35 -149.3 4.7 -148.95 3.2 -148.45 3.35 -147.8 2.8 -147.25 3.0" fill="#000000" fill-rule="evenodd" stroke="none"/>
    <path d="M-141.45 -4.25 L-143.75 -2.4 -145.75 0.15 -146.35 2.05 Q-135.35 -3.55 -135.05 8.55 L-135.45 12.7 -135.75 13.65 -136.4 14.65 -137.05 14.95 -135.45 14.85 -134.05 14.0 -133.55 14.2 -133.65 15.05 -135.35 17.0 -135.65 20.8 -135.45 21.95 -135.05 22.4 Q-121.4 29.6 -121.0 39.45 L-121.05 43.8 -122.9 50.4 -128.3 63.1 -130.85 70.95 -132.15 80.75 Q-133.55 88.65 -125.1 103.35 -120.5 114.6 -82.4 117.85 L-79.75 117.75 -71.2 116.55 -60.7 114.0 -62.7 111.55 -65.35 107.3 Q-73.45 91.9 -70.55 107.3 -72.05 113.5 -77.1 107.3 L-90.4 88.55 -98.7 79.7 -103.1 74.35 -103.8 73.65 M-141.45 -4.25 Q-125.65 -12.25 -114.25 -0.6 -111.7 2.85 -111.7 3.85 L-110.85 7.4 Q-110.15 11.75 -112.65 22.4 L-112.05 26.2 Q-111.15 30.1 -110.0 31.25 L-105.85 35.4 -102.55 37.45 -71.15 48.5 Q-64.4 50.95 -56.45 56.4 -42.45 65.0 -32.85 90.25 -29.35 83.85 -23.0 82.6 -18.7 82.5 -18.8 86.1 L-14.35 86.2 -12.95 86.65 -11.7 87.5 -11.05 88.15 -10.65 89.5 -11.05 91.65 -12.25 93.15 -12.35 93.25 -11.55 94.3 -11.25 95.45 -11.35 96.75 -11.9 97.8 -13.2 98.85 Q-23.0 101.2 -30.2 96.3 L-31.5 95.65 -32.35 95.65 -36.05 101.15 -39.15 104.55 -36.9 109.0 Q-35.55 112.3 -35.55 115.5 L-36.25 117.1 Q-38.85 119.95 -48.2 110.05 L-48.3 110.1 -53.55 111.85 -53.55 112.0 Q-53.35 114.75 -55.8 115.9 -58.85 116.2 -60.7 114.0 M-95.3 66.0 Q-93.1 70.5 -82.3 74.35 L-73.15 78.1 -58.35 85.35 -53.0 88.65 Q-51.95 88.85 -45.35 96.3 L-39.15 104.55 M-18.8 86.1 L-21.7 86.45 -25.95 86.3 M-32.85 90.25 L-32.45 90.75 -32.35 91.85 -32.25 92.4 M-12.25 93.15 Q-12.8 92.1 -15.6 90.9 L-23.5 89.4 M-135.05 22.4 L-138.45 23.65 Q-147.05 24.55 -149.75 25.7 L-154.4 26.2 -160.4 29.0 -165.95 30.9 Q-169.35 32.15 -169.35 31.45 L-169.0 30.7 -164.65 26.35 -152.8 16.55 Q-148.95 13.2 -148.25 11.75 L-148.9 10.15 -148.9 9.3 -148.95 7.8 -149.1 6.95 Q-152.3 -3.45 -141.45 -4.25 M-147.25 3.0 L-147.8 2.8 -148.45 3.35 -148.95 3.2 -149.3 4.7 -149.3 5.35 -148.9 5.9 -147.25 3.0 -146.35 2.05 M-148.95 7.8 L-148.55 6.95 -147.9 6.95 -147.5 8.55 -147.9 10.05 -148.25 10.15 -148.9 9.3 M-149.1 6.95 L-148.9 5.9 M-135.35 17.0 L-154.4 26.2 M-137.05 14.95 Q-143.8 17.8 -148.25 11.75 M-78.25 123.6 L-78.35 127.0 Q-79.3 128.85 -80.7 129.65 L-88.05 132.55 Q-92.6 135.65 -96.9 137.45 L-97.65 137.45 -97.85 137.15 -96.25 133.3 -96.25 133.15 Q-96.85 132.5 -102.3 132.3 L-103.8 131.7 -103.3 130.8 -97.95 128.2 -101.05 126.55 -101.25 125.9 -100.95 125.7 -87.2 126.15 -84.2 125.9 -83.05 125.5 -81.8 123.9 -82.4 117.85 M-97.65 128.05 L-97.95 128.2 M-96.25 133.15 L-96.15 133.15 -96.25 133.3 M-73.15 122.3 L-74.3 129.45 Q-72.05 139.0 -73.75 141.8 L-76.55 144.05 Q-80.7 144.65 -92.5 151.7 -96.1 152.8 -92.2 147.35 L-98.9 146.5 -100.1 145.95 -99.75 145.1 -94.2 142.45 -93.7 141.9 -96.9 139.7 -97.2 139.25 -97.1 138.7 Q-94.3 137.7 -79.75 139.75 L-77.8 138.9 -76.75 137.35 -76.75 136.3 -77.6 130.5 -77.3 123.5 -78.25 123.6 Q-79.25 123.5 -80.5 119.45 L-80.15 118.25 -79.75 117.75 M-48.3 110.1 L-50.7 107.3 Q-57.1 98.3 -54.5 107.3 L-53.55 112.0 M-73.15 122.3 L-74.75 122.5 -77.3 123.5 M-71.2 116.55 L-68.55 118.4 Q-66.9 121.0 -67.15 122.45 L-67.5 122.85 -73.15 122.3" fill="none" stroke="#000000" stroke-linecap="round" stroke-linejoin="round" stroke-width="0.05"/>
  </g>
</svg>
