<?xml version="1.0" encoding="UTF-8" standalone="no"?>
<svg xmlns:xlink="http://www.w3.org/1999/xlink" height="151.25px" width="164.75px" xmlns="http://www.w3.org/2000/svg">
  <g transform="matrix(1.0, 0.0, 0.0, 1.0, 174.3, -0.8)">
    <path d="M-37.7 105.05 L-43.5 99.5 -47.55 96.3 Q-49.6 94.4 -56.3 90.7 L-84.65 78.0 -94.75 72.15 Q-97.3 69.9 -97.0 68.95 -97.3 69.9 -94.75 72.15 L-84.65 78.0 -56.3 90.7 Q-49.6 94.4 -47.55 96.3 L-43.5 99.5 -37.7 105.05 -34.35 109.65 Q-31.6 115.25 -32.25 115.85 L-32.65 117.2 -33.3 117.6 Q-34.8 120.25 -47.3 111.05 L-47.35 111.0 -51.75 112.5 -54.1 107.3 -54.3 106.3 -53.85 106.05 -51.85 107.3 -47.3 111.05 -51.85 107.3 -53.85 106.05 -54.3 106.3 -54.1 107.3 -51.75 112.5 Q-50.35 115.45 -51.55 117.75 L-53.0 119.0 -54.6 119.25 Q-58.35 118.65 -61.2 115.2 L-61.35 115.2 -70.8 117.55 -70.9 117.55 -79.95 118.8 -70.9 117.55 -70.8 117.55 -70.65 117.65 -68.25 119.1 Q-66.4 122.4 -66.85 123.15 L-67.15 123.6 -72.9 123.05 -77.1 124.2 -78.15 124.35 Q-79.1 124.5 -80.5 120.1 L-79.95 118.8 -82.3 118.9 Q-118.05 117.0 -125.45 105.6 -133.45 93.35 -133.35 84.8 L-132.35 74.35 -131.3 70.0 Q-124.7 52.2 -124.9 51.5 L-124.4 48.5 -124.6 44.75 Q-126.25 34.5 -142.15 30.7 L-142.5 30.5 -143.55 28.9 -144.3 26.15 Q-141.45 21.6 -146.2 24.45 L-145.55 23.6 -145.45 22.75 -145.9 19.55 Q-147.85 7.0 -157.85 13.45 L-157.9 13.15 -157.4 11.0 -155.8 8.55 -153.15 5.9 -153.0 5.75 -153.15 5.9 -153.15 5.75 -153.0 5.75 Q-139.6 -2.8 -128.3 3.35 L-125.1 5.55 Q-123.3 7.0 -121.6 9.95 L-120.85 11.55 -120.0 14.95 -119.8 24.65 -119.05 27.3 -116.1 33.15 Q-115.45 34.35 -110.95 37.5 L-108.0 39.2 -100.3 41.25 -99.95 41.35 Q-67.8 50.05 -56.5 57.75 -45.85 61.8 -31.95 90.95 L-31.95 91.0 -31.75 91.25 -31.6 91.4 -31.55 91.55 -31.35 92.6 -31.15 93.25 -31.35 92.6 -31.55 91.55 -31.6 91.4 -31.75 91.25 -31.95 91.0 Q-21.55 76.2 -17.75 85.25 L-17.65 85.25 -17.75 85.35 -18.15 85.35 -22.35 86.45 -25.2 86.65 -22.35 86.45 -18.15 85.35 -17.75 85.35 -17.65 85.25 Q-10.95 84.1 -9.75 87.05 L-9.55 88.85 -9.85 89.85 -11.65 92.1 -11.7 92.2 Q-8.55 95.4 -11.15 97.6 -20.9 101.4 -30.0 96.3 L-31.3 96.45 Q-35.15 102.95 -37.7 105.05 M-22.75 89.7 L-15.1 90.35 -11.65 92.1 -15.1 90.35 -22.75 89.7 M-17.75 85.35 L-17.75 85.25 -17.75 85.35 M-31.55 91.55 L-31.75 91.25 -31.55 91.55 M-105.65 76.65 L-89.25 96.3 -81.15 107.3 Q-68.4 122.65 -71.2 107.3 L-71.65 106.1 -71.65 103.9 -70.35 104.55 -61.35 115.2 -70.35 104.55 -71.65 103.9 -71.65 106.1 -71.2 107.3 Q-68.4 122.65 -81.15 107.3 L-89.25 96.3 -105.65 76.65 M-70.65 117.65 L-70.9 117.55 -70.65 117.65" fill="#ffffff" fill-rule="evenodd" stroke="none"/>
    <path d="M-153.15 5.9 L-155.8 8.55 -157.4 11.0 -157.9 13.15 -159.55 13.65 -159.85 14.5 -159.85 15.5 -159.55 15.8 -159.4 15.8 -157.85 13.45 Q-147.85 7.0 -145.9 19.55 L-145.45 22.75 -145.55 23.6 -146.2 24.45 Q-149.7 28.45 -158.05 24.0 L-159.75 21.45 -159.95 19.6 -159.1 20.6 -158.45 19.55 -158.7 17.6 -159.3 17.4 -159.95 18.35 -159.95 17.05 -159.95 16.85 -159.85 16.85 -159.95 17.05 -159.85 16.85 -159.95 16.85 Q-162.75 7.25 -153.15 5.75 L-153.15 5.9 M-159.85 16.85 L-159.4 15.9 -159.55 15.8 -159.4 15.9 -159.4 15.8 -159.4 15.9 -159.85 16.85" fill="#ff7a16" fill-rule="evenodd" stroke="none"/>
    <path d="M-157.9 13.15 L-157.85 13.45 -159.4 15.8 -159.55 15.8 -159.85 15.5 -159.85 14.5 -159.55 13.65 -157.9 13.15 M-159.95 18.35 L-159.3 17.4 -158.7 17.6 -158.45 19.55 -159.1 20.6 -159.95 19.6 -159.95 18.35" fill="#000000" fill-rule="evenodd" stroke="none"/>
    <path d="M-144.3 26.15 L-143.55 28.9 -142.5 30.5 -142.15 30.7 -145.25 32.6 Q-151.3 34.15 -156.2 36.8 L-160.4 37.95 -144.3 26.15" fill="#fa420e" fill-rule="evenodd" stroke="none"/>
    <path d="M-146.2 24.45 Q-141.45 21.6 -144.3 26.15 L-160.4 37.95 -168.15 43.2 -173.25 45.8 -174.1 46.15 -174.3 45.6 -171.7 41.35 -160.05 27.3 -158.05 24.0 Q-149.7 28.45 -146.2 24.45 M-82.3 118.9 L-79.95 118.8 -80.5 120.1 Q-79.1 124.5 -78.15 124.35 L-78.15 126.35 -78.45 127.4 -79.65 128.9 Q-87.3 131.6 -96.25 137.2 L-97.85 137.35 Q-98.25 137.05 -96.25 133.15 L-97.4 132.75 Q-102.6 132.5 -103.7 131.9 L-103.95 131.7 -103.5 130.95 -97.95 128.25 -98.0 128.25 -101.05 126.55 -101.4 126.25 -101.15 125.7 -85.5 126.15 -82.95 125.5 -81.8 124.0 -82.3 118.9 M-98.0 128.25 L-97.65 128.05 -98.0 128.25 M-72.9 123.05 Q-75.3 125.9 -72.9 139.9 L-73.55 141.8 -75.45 143.5 Q-82.8 145.85 -92.0 151.6 L-93.35 152.05 -93.9 152.05 -94.35 151.6 -92.3 147.55 Q-99.7 146.6 -100.2 145.95 L-99.9 145.2 -93.8 142.1 Q-93.7 141.45 -96.55 140.0 L-97.35 139.05 Q-97.3 137.45 -82.1 140.0 L-79.85 140.0 -78.05 139.35 -76.65 137.65 Q-78.15 131.55 -77.1 124.2 L-72.9 123.05" fill="#fa410f" fill-rule="evenodd" stroke="none"/>
    <path d="M-97.0 68.95 Q-97.3 69.9 -94.75 72.15 L-84.65 78.0 -56.3 90.7 Q-49.6 94.4 -47.55 96.3 L-43.5 99.5 -37.7 105.05 Q-35.15 102.95 -31.3 96.45 L-30.0 96.3 Q-20.9 101.4 -11.15 97.6 -8.55 95.4 -11.7 92.2 L-11.65 92.1 -15.1 90.35 -22.75 89.7 M-31.95 91.0 L-31.75 91.25 -31.6 91.4 -31.55 91.55 -31.35 92.6 -31.15 93.25 M-31.95 91.0 L-31.95 90.95 Q-45.85 61.8 -56.5 57.75 -67.8 50.05 -99.95 41.35 L-100.3 41.25 -108.0 39.2 -110.95 37.5 Q-115.45 34.35 -116.1 33.15 L-119.05 27.3 -119.8 24.65 -120.0 14.95 -120.85 11.55 -121.6 9.95 Q-123.3 7.0 -125.1 5.55 L-128.3 3.35 Q-139.6 -2.8 -153.0 5.75 L-153.15 5.9 -155.8 8.55 -157.4 11.0 -157.9 13.15 -157.85 13.45 Q-147.85 7.0 -145.9 19.55 L-145.45 22.75 -145.55 23.6 -146.2 24.45 Q-141.45 21.6 -144.3 26.15 L-143.55 28.9 -142.5 30.5 -142.15 30.7 Q-126.25 34.5 -124.6 44.75 L-124.4 48.5 -124.9 51.5 Q-124.7 52.2 -131.3 70.0 L-132.35 74.35 -133.35 84.8 Q-133.45 93.35 -125.45 105.6 -118.05 117.0 -82.3 118.9 L-79.95 118.8 -70.9 117.55 -70.8 117.55 -61.35 115.2 -70.35 104.55 -71.65 103.9 -71.65 106.1 -71.2 107.3 Q-68.4 122.65 -81.15 107.3 L-89.25 96.3 -105.65 76.65 M-31.75 91.25 L-31.55 91.55 M-17.65 85.25 L-17.75 85.35 -18.15 85.35 -22.35 86.45 -25.2 86.65 M-17.75 85.25 L-17.75 85.35 M-17.65 85.25 L-17.75 85.25 Q-21.55 76.2 -31.95 91.0 M-11.65 92.1 L-9.85 89.85 -9.55 88.85 -9.75 87.05 Q-10.95 84.1 -17.65 85.25 M-153.0 5.75 L-153.15 5.75 -153.15 5.9 M-157.9 13.15 L-159.55 13.65 -159.85 14.5 -159.85 15.5 -159.55 15.8 -159.4 15.8 -157.85 13.45 M-159.95 17.05 L-159.95 18.35 -159.3 17.4 -158.7 17.6 -158.45 19.55 -159.1 20.6 -159.95 19.6 -159.75 21.45 -158.05 24.0 Q-149.7 28.45 -146.2 24.45 M-159.95 16.85 L-159.95 17.05 -159.85 16.85 -159.95 16.85 Q-162.75 7.25 -153.15 5.75 M-159.55 15.8 L-159.4 15.9 -159.4 15.8 M-159.4 15.9 L-159.85 16.85 M-159.95 19.6 L-159.95 18.35 M-160.4 37.95 L-144.3 26.15 M-160.4 37.95 L-156.2 36.8 Q-151.3 34.15 -145.25 32.6 L-142.15 30.7 M-158.05 24.0 L-160.05 27.3 -171.7 41.35 -174.3 45.6 -174.1 46.15 -173.25 45.8 -168.15 43.2 -160.4 37.95 M-78.15 124.35 L-78.15 126.35 -78.45 127.4 -79.65 128.9 Q-87.3 131.6 -96.25 137.2 L-97.85 137.35 Q-98.25 137.05 -96.25 133.15 L-97.4 132.75 Q-102.6 132.5 -103.7 131.9 L-103.95 131.7 -103.5 130.95 -97.95 128.25 -98.0 128.25 -101.05 126.55 -101.4 126.25 -101.15 125.7 -85.5 126.15 -82.95 125.5 -81.8 124.0 -82.3 118.9 M-97.65 128.05 L-98.0 128.25 M-72.9 123.05 Q-75.3 125.9 -72.9 139.9 L-73.55 141.8 -75.45 143.5 Q-82.8 145.85 -92.0 151.6 L-93.35 152.05 -93.9 152.05 -94.35 151.6 -92.3 147.55 Q-99.7 146.6 -100.2 145.95 L-99.9 145.2 -93.8 142.1 Q-93.7 141.45 -96.55 140.0 L-97.35 139.05 Q-97.3 137.45 -82.1 140.0 L-79.85 140.0 -78.05 139.35 -76.65 137.65 Q-78.15 131.55 -77.1 124.2 L-78.15 124.35 Q-79.1 124.5 -80.5 120.1 L-79.95 118.8 M-47.3 111.05 Q-34.8 120.25 -33.3 117.6 L-32.65 117.2 -32.25 115.85 Q-31.6 115.25 -34.35 109.65 L-37.7 105.05 M-51.75 112.5 L-47.35 111.0 -47.3 111.05 -51.85 107.3 -53.85 106.05 -54.3 106.3 -54.1 107.3 -51.75 112.5 Q-50.35 115.45 -51.55 117.75 L-53.0 119.0 -54.6 119.25 Q-58.35 118.65 -61.2 115.2 L-61.35 115.2 M-70.8 117.55 L-70.65 117.65 -68.25 119.1 Q-66.4 122.4 -66.85 123.15 L-67.15 123.6 -72.9 123.05 -77.1 124.2 M-70.9 117.55 L-70.65 117.65" fill="none" stroke="#000000" stroke-linecap="round" stroke-linejoin="round" stroke-width="0.05"/>
  </g>
</svg>
