<?xml version="1.0" encoding="UTF-8" standalone="no"?>
<svg xmlns:xlink="http://www.w3.org/1999/xlink" height="157.75px" width="150.65px" xmlns="http://www.w3.org/2000/svg">
  <g transform="matrix(1.0, 0.0, 0.0, 1.0, 167.65, 26.15)">
    <path d="M-153.15 -15.6 L-153.0 -15.95 -152.95 -16.05 Q-150.15 -22.6 -140.65 -25.55 -135.35 -27.2 -127.9 -24.35 -121.8 -21.95 -118.85 -16.05 L-117.25 -11.05 Q-116.7 -9.85 -116.7 0.15 L-116.3 2.05 -113.4 9.2 -112.05 11.25 -107.15 15.8 -105.5 16.85 Q-67.15 32.25 -57.05 42.75 -49.7 45.15 -37.7 80.55 -34.8 74.05 -29.8 71.8 -25.4 70.55 -24.55 74.3 -21.8 73.45 -20.3 73.75 L-18.6 74.35 -17.55 75.45 -17.0 76.95 -17.1 78.4 Q-17.2 79.45 -18.7 81.1 L-18.7 81.15 -17.85 82.4 -17.45 84.6 -17.95 86.0 -19.35 87.3 -21.6 88.2 -27.25 88.85 -30.45 88.55 Q-32.1 88.3 -36.5 86.0 L-37.15 86.2 -39.45 89.5 -43.45 85.35 -53.3 78.75 -67.7 70.65 -86.35 57.95 Q-90.1 55.2 -92.5 52.45 L-95.0 49.35 -95.85 47.1 -95.0 49.35 -92.5 52.45 Q-90.1 55.2 -86.35 57.95 L-67.7 70.65 -53.3 78.75 -43.45 85.35 -39.45 89.5 Q-34.25 96.5 -36.85 99.3 -38.15 101.0 -46.05 96.75 L-48.35 98.15 -53.0 99.7 -54.3 96.3 Q-63.25 84.6 -46.65 96.3 L-46.05 96.75 -46.65 96.3 Q-63.25 84.6 -54.3 96.3 L-53.0 99.7 -52.9 101.4 -53.45 102.7 -54.15 103.45 -55.85 104.2 Q-59.4 104.35 -62.2 101.75 L-62.4 101.8 -75.4 103.55 -83.25 103.55 -75.4 103.55 -75.8 104.1 -74.2 105.5 -73.95 105.75 -73.8 105.95 -73.6 106.2 Q-72.85 107.2 -72.5 108.35 L-72.3 109.1 -72.3 110.05 -72.6 110.5 -73.55 110.5 -77.75 109.3 -80.7 109.85 -80.8 109.85 -83.15 110.15 -83.7 109.85 -84.4 107.8 -84.4 107.3 -85.05 106.45 -84.95 105.6 -83.25 103.55 -86.25 103.45 -89.1 103.15 Q-106.25 100.45 -116.7 95.65 -117.6 95.6 -123.1 91.1 L-126.15 86.45 Q-132.25 73.8 -131.2 64.7 -132.45 59.2 -121.5 28.35 L-121.05 24.85 -121.25 21.95 Q-123.8 9.6 -137.6 6.2 L-138.0 6.0 -139.15 4.0 -139.95 0.45 -138.95 -2.4 -139.4 -3.15 -140.35 -2.4 -140.8 -1.7 -141.85 -1.45 -141.45 -2.4 Q-140.9 -4.1 -142.05 -8.95 L-144.0 -13.4 Q-146.5 -18.7 -153.45 -13.5 L-153.55 -13.5 -153.65 -13.5 -153.45 -14.1 -153.45 -14.45 -153.15 -15.6 M-104.45 54.35 L-88.4 85.35 -83.7 92.7 -78.35 98.85 Q-76.4 100.65 -75.05 100.8 -72.25 101.1 -73.45 96.3 -79.25 80.75 -67.95 96.3 L-62.4 101.8 -67.95 96.3 Q-79.25 80.75 -73.45 96.3 -72.25 101.1 -75.05 100.8 -76.4 100.65 -78.35 98.85 L-83.7 92.7 -88.4 85.35 -104.45 54.35 M-31.8 76.05 L-28.75 75.65 -24.9 74.35 -24.55 74.3 -24.9 74.35 -28.75 75.65 -31.8 76.05 M-29.6 78.85 L-22.35 79.05 Q-19.55 79.9 -18.7 81.1 -19.55 79.9 -22.35 79.05 L-29.6 78.85 M-37.05 82.8 L-37.15 81.85 -37.7 80.55 -37.15 81.85 -37.05 82.8" fill="#ffffff" fill-rule="evenodd" stroke="none"/>
    <path d="M-153.45 -14.45 L-153.45 -14.1 -153.65 -13.5 -153.85 -13.4 -153.8 -13.05 -155.05 -10.5 -155.15 -10.5 -155.25 -12.65 -154.65 -14.1 -153.8 -14.9 -153.45 -14.45 M-155.05 -7.75 L-155.15 -9.0 -154.3 -10.3 Q-152.7 -7.7 -154.65 -7.0 L-155.05 -7.75" fill="#000000" fill-rule="evenodd" stroke="none"/>
    <path d="M-153.15 -15.6 L-153.45 -14.45 -153.8 -14.9 -153.15 -15.6 M-153.65 -13.5 L-153.55 -13.5 -153.45 -13.5 Q-146.5 -18.7 -144.0 -13.4 L-142.05 -8.95 Q-140.9 -4.1 -141.45 -2.4 L-141.85 -1.45 Q-144.95 2.45 -152.7 -1.7 L-152.8 -1.75 -152.7 -1.7 -152.8 -1.7 -152.8 -1.75 Q-154.8 -3.8 -155.25 -6.25 L-155.15 -10.3 -155.15 -10.5 -155.05 -10.5 -153.8 -13.05 -153.85 -13.4 -153.65 -13.5 M-153.45 -13.4 L-153.8 -13.05 -153.45 -13.4 -153.55 -13.5 -153.45 -13.4 -153.45 -13.5 -153.45 -13.4 M-155.05 -10.5 L-155.05 -10.4 -155.15 -10.3 -155.05 -10.4 -155.05 -10.5 M-155.05 -7.75 L-154.65 -7.0 Q-152.7 -7.7 -154.3 -10.3 L-155.15 -9.0 -155.05 -7.75" fill="#ff7a16" fill-rule="evenodd" stroke="none"/>
    <path d="M-141.85 -1.45 L-140.8 -1.7 -140.35 -2.4 -139.4 -3.15 -138.95 -2.4 -139.95 0.45 -147.4 6.95 -147.65 7.2 -147.9 7.4 -155.5 14.2 -161.05 18.75 -166.85 22.5 -167.65 22.6 -167.65 22.2 Q-167.8 20.45 -152.8 -1.7 L-152.7 -1.7 Q-144.95 2.45 -141.85 -1.45 M-89.1 103.15 L-86.25 103.45 -85.9 104.6 -84.95 105.6 -85.05 106.45 -84.4 107.3 -84.4 107.8 -83.7 109.85 -83.15 110.15 -80.8 109.85 -86.25 113.8 Q-86.9 114.3 -85.4 118.25 L-85.4 118.45 -85.4 118.25 Q-86.9 114.3 -86.25 113.8 L-80.8 109.85 -80.7 109.85 Q-76.9 114.65 -85.4 118.45 -83.35 126.1 -86.9 127.55 L-89.75 128.7 Q-93.1 128.3 -104.8 131.6 L-106.5 131.45 -106.7 130.8 -104.35 127.95 -110.75 125.85 -111.8 125.3 -112.1 124.55 Q-111.0 123.7 -105.95 122.85 L-106.15 122.5 Q-112.95 117.6 -103.7 119.95 L-99.45 121.25 -103.7 119.95 -98.7 116.75 Q-103.75 115.15 -101.05 114.4 L-96.15 113.55 -89.45 113.8 -88.8 111.85 -85.85 109.0 -88.4 106.1 -89.1 104.4 -89.1 103.15 M-84.4 107.8 L-85.85 109.0 -84.4 107.8 M-98.2 116.35 L-98.7 116.75 -98.2 116.35 M-99.45 121.25 L-97.2 122.1 -97.1 122.2 -93.15 123.15 -97.1 122.2 -97.2 122.1 -97.1 122.1 -97.0 121.35 -99.45 121.25 M-105.5 122.65 L-105.95 122.85 -105.5 122.65 M-97.1 122.1 L-97.1 122.2 -97.1 122.1 M-88.7 120.3 L-89.45 113.8 -88.7 120.3 -93.15 123.15 Q-88.2 124.8 -88.7 120.3" fill="#fa410f" fill-rule="evenodd" stroke="none"/>
    <path d="M-139.95 0.45 L-139.15 4.0 -138.0 6.0 -137.6 6.2 -140.15 8.1 Q-150.05 11.75 -150.15 12.4 L-155.5 14.2 -147.9 7.4 -147.65 7.2 -147.4 6.95 -139.95 0.45" fill="#fa420e" fill-rule="evenodd" stroke="none"/>
    <path d="M-37.7 80.55 Q-49.7 45.15 -57.05 42.75 -67.15 32.25 -105.5 16.85 L-107.15 15.8 -112.05 11.25 -113.4 9.2 -116.3 2.05 -116.7 0.15 Q-116.7 -9.85 -117.25 -11.05 L-118.85 -16.05 Q-121.8 -21.95 -127.9 -24.35 -135.35 -27.2 -140.65 -25.55 -150.15 -22.6 -152.95 -16.05 L-153.0 -15.95 -153.15 -15.6 -153.45 -14.45 -153.45 -14.1 -153.65 -13.5 -153.55 -13.5 -153.45 -13.5 Q-146.5 -18.7 -144.0 -13.4 L-142.05 -8.95 Q-140.9 -4.1 -141.45 -2.4 L-141.85 -1.45 -140.8 -1.7 -140.35 -2.4 -139.4 -3.15 -138.95 -2.4 -139.95 0.45 -139.15 4.0 -138.0 6.0 -137.6 6.2 Q-123.8 9.6 -121.25 21.95 L-121.05 24.85 -121.5 28.35 Q-132.45 59.2 -131.2 64.7 -132.25 73.8 -126.15 86.45 L-123.1 91.1 Q-117.6 95.6 -116.7 95.65 -106.25 100.45 -89.1 103.15 L-86.25 103.45 -83.25 103.55 -75.4 103.55 -62.4 101.8 -67.95 96.3 Q-79.25 80.75 -73.45 96.3 -72.25 101.1 -75.05 100.8 -76.4 100.65 -78.35 98.85 L-83.7 92.7 -88.4 85.35 -104.45 54.35 M-153.8 -14.9 L-154.65 -14.1 -155.25 -12.65 -155.15 -10.5 -155.05 -10.5 -153.8 -13.05 -153.85 -13.4 -153.65 -13.5 M-153.8 -14.9 L-153.45 -14.45 M-153.55 -13.5 L-153.45 -13.4 -153.45 -13.5 M-153.8 -13.05 L-153.45 -13.4 M-153.15 -15.6 L-153.8 -14.9 M-155.15 -10.3 L-155.05 -10.4 -155.05 -10.5 M-155.15 -10.5 L-155.15 -10.3 -155.25 -6.25 Q-154.8 -3.8 -152.8 -1.75 L-152.7 -1.7 Q-144.95 2.45 -141.85 -1.45 M-155.05 -7.75 L-154.65 -7.0 Q-152.7 -7.7 -154.3 -10.3 L-155.15 -9.0 -155.05 -7.75 M-152.8 -1.75 L-152.8 -1.7 -152.7 -1.7 M-53.0 99.7 L-48.35 98.15 -46.05 96.75 -46.65 96.3 Q-63.25 84.6 -54.3 96.3 L-53.0 99.7 -52.9 101.4 -53.45 102.7 -54.15 103.45 -55.85 104.2 Q-59.4 104.35 -62.2 101.75 L-62.4 101.8 M-39.45 89.5 L-43.45 85.35 -53.3 78.75 -67.7 70.65 -86.35 57.95 Q-90.1 55.2 -92.5 52.45 L-95.0 49.35 -95.85 47.1 M-18.7 81.1 Q-19.55 79.9 -22.35 79.05 L-29.6 78.85 M-24.55 74.3 L-24.9 74.35 -28.75 75.65 -31.8 76.05 M-39.45 89.5 L-37.15 86.2 -36.5 86.0 Q-32.1 88.3 -30.45 88.55 L-27.25 88.85 -21.6 88.2 -19.35 87.3 -17.95 86.0 -17.45 84.6 -17.85 82.4 -18.7 81.15 -18.7 81.1 Q-17.2 79.45 -17.1 78.4 L-17.0 76.95 -17.55 75.45 -18.6 74.35 -20.3 73.75 Q-21.8 73.45 -24.55 74.3 -25.4 70.55 -29.8 71.8 -34.8 74.05 -37.7 80.55 L-37.15 81.85 -37.05 82.8 M-155.5 14.2 L-150.15 12.4 Q-150.05 11.75 -140.15 8.1 L-137.6 6.2 M-155.5 14.2 L-161.05 18.75 -166.85 22.5 -167.65 22.6 -167.65 22.2 Q-167.8 20.45 -152.8 -1.7 M-139.95 0.45 L-147.4 6.95 -147.65 7.2 -147.9 7.4 -155.5 14.2 M-89.1 103.15 L-89.1 104.4 -88.4 106.1 -85.85 109.0 -84.4 107.8 -84.4 107.3 -85.05 106.45 -84.95 105.6 -85.9 104.6 -86.25 103.45 M-80.8 109.85 L-83.15 110.15 -83.7 109.85 -84.4 107.8 M-84.95 105.6 L-83.25 103.55 M-98.7 116.75 L-98.2 116.35 M-97.2 122.1 L-99.45 121.25 -103.7 119.95 Q-112.95 117.6 -106.15 122.5 L-105.95 122.85 -105.5 122.65 M-93.15 123.15 L-97.1 122.2 -97.2 122.1 -97.1 122.1 -97.0 121.35 -99.45 121.25 M-97.1 122.2 L-97.1 122.1 M-89.45 113.8 L-96.15 113.55 -101.05 114.4 Q-103.75 115.15 -98.7 116.75 L-103.7 119.95 M-85.85 109.0 L-88.8 111.85 -89.45 113.8 -88.7 120.3 Q-88.2 124.8 -93.15 123.15 L-88.7 120.3 M-85.4 118.45 L-85.4 118.25 Q-86.9 114.3 -86.25 113.8 L-80.8 109.85 -80.7 109.85 -77.75 109.3 -73.55 110.5 -72.6 110.5 -72.3 110.05 -72.3 109.1 -72.5 108.35 Q-72.85 107.2 -73.6 106.2 L-73.8 105.95 -73.95 105.75 -74.2 105.5 -75.8 104.1 -75.4 103.55 M-105.95 122.85 Q-111.0 123.7 -112.1 124.55 L-111.8 125.3 -110.75 125.85 -104.35 127.95 -106.7 130.8 -106.5 131.45 -104.8 131.6 Q-93.1 128.3 -89.75 128.7 L-86.9 127.55 Q-83.35 126.1 -85.4 118.45 -76.9 114.65 -80.7 109.85 M-46.05 96.75 Q-38.15 101.0 -36.85 99.3 -34.25 96.5 -39.45 89.5" fill="none" stroke="#000000" stroke-linecap="round" stroke-linejoin="round" stroke-width="0.05"/>
  </g>
</svg>
