<?xml version="1.0" encoding="UTF-8" standalone="no"?>
<svg xmlns:xlink="http://www.w3.org/1999/xlink" height="184.9px" width="130.85px" xmlns="http://www.w3.org/2000/svg">
  <g transform="matrix(1.0, 0.0, 0.0, 1.0, 157.4, 73.9)">
    <path d="M-140.8 -64.85 Q-132.95 -81.05 -113.8 -68.25 L-110.4 -64.2 Q-109.45 -63.1 -107.75 -57.9 L-107.0 -52.8 Q-108.75 -34.4 -107.85 -35.15 L-106.05 -26.8 -103.5 -22.15 -100.75 -18.3 -98.5 -16.05 Q-80.5 -1.8 -76.1 1.0 L-70.25 5.9 -62.8 13.8 Q-58.35 19.25 -56.45 23.15 L-54.5 27.2 -51.6 35.15 -49.7 42.4 -45.45 63.7 -45.0 65.1 -44.95 65.1 -44.15 64.15 -44.05 64.05 Q-41.4 57.45 -36.6 56.8 L-35.0 57.25 -34.25 57.9 -33.65 59.05 -30.95 58.4 -28.4 58.75 Q-26.15 60.4 -26.6 63.4 L-26.9 65.0 -27.65 66.2 -27.65 66.25 -27.05 68.1 -27.05 69.8 -27.65 71.3 -29.9 73.2 Q-39.0 76.45 -44.15 71.4 L-44.3 71.4 -43.85 73.2 -44.15 75.85 -44.8 76.5 -45.85 76.85 -48.2 76.2 -50.05 78.65 Q-53.45 81.85 -54.3 81.95 -55.45 84.8 -76.75 83.9 L-77.4 83.9 -78.6 83.85 -79.5 83.8 -80.35 83.75 -80.95 84.15 -78.25 89.6 -78.15 91.2 -78.45 91.65 -83.15 89.5 -85.9 89.6 -87.85 89.7 -88.4 89.4 -88.9 87.35 -88.25 85.35 -88.4 85.0 -89.1 85.15 -88.6 84.3 -88.6 84.15 -88.45 84.15 -87.6 83.25 -87.6 82.7 -88.05 82.45 -91.15 81.4 Q-114.45 75.6 -123.3 62.8 -131.7 38.4 -122.75 15.15 -123.2 15.55 -124.45 12.6 L-124.7 12.6 -124.8 12.6 -125.1 19.75 Q-125.45 22.1 -126.15 23.05 L-126.95 23.15 -127.6 22.8 -128.65 19.55 -128.85 18.35 -129.1 18.15 -129.15 18.15 -130.15 24.3 -131.95 31.1 -133.85 34.95 -134.5 35.5 -135.55 35.5 Q-137.45 20.5 -133.4 6.65 -127.95 -6.4 -115.85 -6.15 -111.35 -25.4 -127.9 -37.15 L-127.9 -37.7 -128.45 -38.3 -128.95 -45.85 -127.65 -48.85 -127.65 -50.25 -128.45 -50.15 -129.5 -48.65 -130.65 -48.35 -129.9 -49.4 -129.6 -50.9 -129.8 -57.3 Q-131.65 -70.35 -140.65 -64.85 L-140.8 -64.85 M-124.7 12.6 L-125.75 8.75 -124.7 12.6 M-129.1 18.15 L-129.35 16.35 -130.0 15.05 -129.35 16.35 -129.1 18.15 M-38.1 63.0 L-33.7 62.85 -30.5 63.4 -28.75 64.7 -27.65 66.25 -28.75 64.7 -30.5 63.4 -33.7 62.85 -38.1 63.0 M-40.25 60.65 L-37.25 60.3 -33.65 59.05 -37.25 60.3 -40.25 60.65 M-48.2 76.2 L-50.75 74.35 Q-54.95 71.35 -60.35 66.0 L-62.2 64.8 -62.5 65.2 -62.4 66.0 -59.3 74.35 Q-60.3 86.05 -69.65 74.35 L-77.8 61.1 -78.25 61.1 -78.35 61.6 -78.25 63.4 -77.1 70.65 Q-76.75 73.45 -77.75 74.35 L-78.8 74.7 -79.2 74.35 Q-80.9 75.15 -86.55 63.4 L-88.45 59.25 -101.25 20.6 -88.45 59.25 -86.55 63.4 Q-80.9 75.15 -79.2 74.35 L-78.8 74.7 -77.75 74.35 Q-76.75 73.45 -77.1 70.65 L-78.25 63.4 -78.35 61.6 -78.25 61.1 -77.8 61.1 -69.65 74.35 Q-60.3 86.05 -59.3 74.35 L-62.4 66.0 -62.5 65.2 -62.2 64.8 -60.35 66.0 Q-54.95 71.35 -50.75 74.35 L-48.2 76.2 M-44.6 67.9 L-44.6 67.25 -44.95 65.1 -44.6 67.25 -44.6 67.9 M-44.3 71.4 L-45.45 67.7 -47.7 63.4 Q-49.8 60.1 -51.6 58.5 L-57.9 52.45 -66.25 45.55 -85.6 25.95 -90.5 19.55 -92.85 15.5 -93.3 13.45 -92.85 15.5 -90.5 19.55 -85.6 25.95 -66.25 45.55 -57.9 52.45 -51.6 58.5 Q-49.8 60.1 -47.7 63.4 L-45.45 67.7 -44.3 71.4 M-95.3 79.9 L-94.35 80.1 -93.8 80.3 -87.95 81.95 -87.8 82.1 -87.6 82.15 -87.5 82.2 -87.3 82.25 -87.0 82.25 -87.3 82.25 -87.5 82.2 -87.6 82.15 -87.8 82.1 -87.95 81.95 -93.8 80.3 -94.35 80.1 -95.3 79.9 M-88.45 84.15 L-88.6 84.3 -88.45 84.15 M-122.75 15.15 L-115.85 -6.15 -122.75 15.15" fill="#ffffff" fill-rule="evenodd" stroke="none"/>
    <path d="M-140.55 -51.2 L-140.55 -51.3 -142.05 -54.15 -142.9 -58.55 -142.9 -59.4 -142.8 -59.4 -141.95 -62.8 -141.2 -64.2 -141.1 -64.3 -140.8 -64.75 -140.8 -64.85 -140.65 -64.85 Q-131.65 -70.35 -129.8 -57.3 L-129.6 -50.9 -129.9 -49.4 -130.65 -48.35 -131.7 -47.7 -133.75 -47.35 -134.05 -47.35 Q-136.5 -47.3 -137.8 -48.4 L-140.45 -51.2 -140.55 -51.2 M-142.9 -58.55 L-142.8 -59.2 -142.8 -59.4 -142.8 -59.2 -142.9 -58.55 M-140.8 -64.75 L-140.65 -64.85 -140.8 -64.75 M-140.45 -51.2 L-140.45 -51.3 -140.55 -51.3 -140.45 -51.3 -140.45 -51.2 M-141.0 -58.45 L-141.0 -59.95 -141.45 -61.0 Q-143.6 -59.9 -141.85 -57.3 L-141.65 -57.3 -141.0 -58.45" fill="#ff7a16" fill-rule="evenodd" stroke="none"/>
    <path d="M-142.9 -59.4 Q-143.55 -63.0 -141.2 -64.2 L-141.95 -62.8 -142.8 -59.4 -142.9 -59.4 M-141.0 -58.45 L-141.65 -57.3 -141.85 -57.3 Q-143.6 -59.9 -141.45 -61.0 L-141.0 -59.95 -141.0 -58.45" fill="#000000" fill-rule="evenodd" stroke="none"/>
    <path d="M-85.9 89.6 Q-79.65 91.25 -81.0 97.7 L-82.95 100.35 Q-84.8 100.8 -96.25 110.6 L-97.1 111.0 -97.75 110.8 -96.35 106.55 -97.1 106.55 -103.3 107.5 -103.7 107.2 -103.4 106.45 -101.7 104.95 -106.35 103.15 Q-112.5 102.25 -114.6 101.15 L-115.0 100.8 -115.1 100.05 -113.65 98.9 -113.6 98.85 -117.35 96.25 -119.35 94.3 -119.5 93.55 -119.05 93.35 -115.5 93.65 -116.95 91.65 -116.8 91.0 -115.95 91.0 -111.05 93.1 -106.15 96.3 Q-98.65 100.65 -98.6 98.65 L-97.75 97.5 -95.7 88.55 -94.75 87.05 -93.8 86.5 -91.9 85.85 -91.15 81.4 -88.05 82.45 -88.6 84.15 -88.6 84.3 -89.1 85.15 -88.4 85.0 -88.25 85.35 -88.9 87.35 -88.4 89.4 -91.0 89.7 -92.75 89.7 -93.35 90.35 -94.45 98.35 Q-86.95 97.75 -84.75 94.8 L-84.75 94.2 Q-84.95 93.75 -85.4 93.65 L-89.25 91.55 -91.0 89.7 -88.4 89.4 -87.85 89.7 -85.9 89.6 M-146.0 -32.45 L-153.15 -27.75 -157.05 -25.95 -157.4 -26.2 -157.3 -26.8 Q-154.75 -32.35 -142.8 -46.95 L-140.55 -51.2 -140.45 -51.2 -137.8 -48.4 Q-136.5 -47.3 -134.05 -47.35 L-133.75 -47.35 -131.7 -47.7 -130.65 -48.35 -129.5 -48.65 -128.45 -50.15 -127.65 -50.25 -127.65 -48.85 -128.95 -45.85 -143.6 -34.45 -143.65 -34.4 -144.95 -33.3 -145.1 -33.15 -145.35 -33.0 -146.0 -32.45 M-115.5 93.65 L-113.2 94.1 -115.5 93.65 M-113.65 98.9 L-112.75 98.45 -113.65 98.9 M-91.9 85.85 L-89.1 85.15 -91.9 85.85 M-101.7 104.95 Q-96.15 106.55 -94.45 98.35 -96.15 106.55 -101.7 104.95 M-96.35 106.55 L-96.25 106.25 -96.35 106.55" fill="#fa410f" fill-rule="evenodd" stroke="none"/>
    <path d="M-127.9 -37.15 L-130.85 -35.55 Q-145.5 -32.0 -146.0 -32.45 L-145.35 -33.0 -145.1 -33.15 -144.95 -33.3 -143.65 -34.4 -143.6 -34.45 -128.95 -45.85 -128.45 -38.3 -127.9 -37.7 -127.9 -37.15" fill="#fa420e" fill-rule="evenodd" stroke="none"/>
    <path d="M-140.8 -64.85 Q-132.95 -81.05 -113.8 -68.25 L-110.4 -64.2 Q-109.45 -63.1 -107.75 -57.9 L-107.0 -52.8 Q-108.75 -34.4 -107.85 -35.15 L-106.05 -26.8 -103.5 -22.15 -100.75 -18.3 -98.5 -16.05 Q-80.5 -1.8 -76.1 1.0 L-70.25 5.9 -62.8 13.8 Q-58.35 19.25 -56.45 23.15 L-54.5 27.2 -51.6 35.15 -49.7 42.4 -45.45 63.7 -45.0 65.1 -44.95 65.1 -44.15 64.15 -44.05 64.05 Q-41.4 57.45 -36.6 56.8 L-35.0 57.25 -34.25 57.9 -33.65 59.05 -30.95 58.4 -28.4 58.75 Q-26.15 60.4 -26.6 63.4 L-26.9 65.0 -27.65 66.2 -27.65 66.25 -27.05 68.1 -27.05 69.8 -27.65 71.3 -29.9 73.2 Q-39.0 76.45 -44.15 71.4 L-44.3 71.4 -43.85 73.2 -44.15 75.85 -44.8 76.5 -45.85 76.85 -48.2 76.2 -50.05 78.65 Q-53.45 81.85 -54.3 81.95 -55.45 84.8 -76.75 83.9 L-77.4 83.9 -78.6 83.85 -79.5 83.8 -80.35 83.75 -80.95 84.15 -78.25 89.6 -78.15 91.2 -78.45 91.65 -83.15 89.5 -85.9 89.6 Q-79.65 91.25 -81.0 97.7 L-82.95 100.35 Q-84.8 100.8 -96.25 110.6 L-97.1 111.0 -97.75 110.8 -96.35 106.55 -97.1 106.55 -103.3 107.5 -103.7 107.2 -103.4 106.45 -101.7 104.95 -106.35 103.15 Q-112.5 102.25 -114.6 101.15 L-115.0 100.8 -115.1 100.05 -113.65 98.9 -113.6 98.85 -117.35 96.25 -119.35 94.3 -119.5 93.55 -119.05 93.35 -115.5 93.65 -116.95 91.65 -116.8 91.0 -115.95 91.0 -111.05 93.1 -106.15 96.3 Q-98.65 100.65 -98.6 98.65 L-97.75 97.5 -95.7 88.55 -94.75 87.05 -93.8 86.5 -91.9 85.85 -91.15 81.4 Q-114.45 75.6 -123.3 62.8 -131.7 38.4 -122.75 15.15 -123.2 15.55 -124.45 12.6 L-124.7 12.6 -124.8 12.6 -125.1 19.75 Q-125.45 22.1 -126.15 23.05 L-126.95 23.15 -127.6 22.8 -128.65 19.55 -128.85 18.35 -129.1 18.15 -129.15 18.15 -130.15 24.3 -131.95 31.1 -133.85 34.95 -134.5 35.5 -135.55 35.5 Q-137.45 20.5 -133.4 6.65 -127.95 -6.4 -115.85 -6.15 -111.35 -25.4 -127.9 -37.15 L-130.85 -35.55 Q-145.5 -32.0 -146.0 -32.45 L-153.15 -27.75 -157.05 -25.95 -157.4 -26.2 -157.3 -26.8 Q-154.75 -32.35 -142.8 -46.95 L-140.55 -51.2 -140.55 -51.3 -142.05 -54.15 -142.9 -58.55 -142.9 -59.4 Q-143.55 -63.0 -141.2 -64.2 L-141.1 -64.3 -140.8 -64.75 -140.8 -64.85 -140.65 -64.85 Q-131.65 -70.35 -129.8 -57.3 L-129.6 -50.9 -129.9 -49.4 -130.65 -48.35 -129.5 -48.65 -128.45 -50.15 -127.65 -50.25 -127.65 -48.85 -128.95 -45.85 -128.45 -38.3 -127.9 -37.7 -127.9 -37.15 M-141.2 -64.2 L-141.95 -62.8 -142.8 -59.4 -142.8 -59.2 -142.9 -58.55 M-142.8 -59.4 L-142.9 -59.4 M-140.65 -64.85 L-140.8 -64.75 M-130.65 -48.35 L-131.7 -47.7 -133.75 -47.35 -134.05 -47.35 Q-136.5 -47.3 -137.8 -48.4 L-140.45 -51.2 -140.55 -51.2 M-140.55 -51.3 L-140.45 -51.3 -140.45 -51.2 M-141.0 -58.45 L-141.0 -59.95 -141.45 -61.0 Q-143.6 -59.9 -141.85 -57.3 L-141.65 -57.3 -141.0 -58.45 M-146.0 -32.45 L-145.35 -33.0 -145.1 -33.15 -144.95 -33.3 -143.65 -34.4 -143.6 -34.45 -128.95 -45.85 M-93.3 13.45 L-92.85 15.5 -90.5 19.55 -85.6 25.95 -66.25 45.55 -57.9 52.45 -51.6 58.5 Q-49.8 60.1 -47.7 63.4 L-45.45 67.7 -44.3 71.4 M-44.95 65.1 L-44.6 67.25 -44.6 67.9 M-101.25 20.6 L-88.45 59.25 -86.55 63.4 Q-80.9 75.15 -79.2 74.35 L-78.8 74.7 -77.75 74.35 Q-76.75 73.45 -77.1 70.65 L-78.25 63.4 -78.35 61.6 -78.25 61.1 -77.8 61.1 -69.65 74.35 Q-60.3 86.05 -59.3 74.35 L-62.4 66.0 -62.5 65.2 -62.2 64.8 -60.35 66.0 Q-54.95 71.35 -50.75 74.35 L-48.2 76.2 M-33.65 59.05 L-37.25 60.3 -40.25 60.65 M-27.65 66.25 L-28.75 64.7 -30.5 63.4 -33.7 62.85 -38.1 63.0 M-130.0 15.05 L-129.35 16.35 -129.1 18.15 M-125.75 8.75 L-124.7 12.6 M-112.75 98.45 L-113.65 98.9 M-113.2 94.1 L-115.5 93.65 M-88.6 84.15 L-88.45 84.15 -87.6 83.25 -87.6 82.7 -88.05 82.45 -88.6 84.15 -88.6 84.3 -88.45 84.15 M-87.0 82.25 L-87.3 82.25 -87.5 82.2 -87.6 82.15 -87.8 82.1 -87.95 81.95 -93.8 80.3 -94.35 80.1 -95.3 79.9 M-89.1 85.15 L-88.6 84.3 M-88.4 89.4 L-88.9 87.35 -88.25 85.35 -88.4 85.0 -89.1 85.15 -91.9 85.85 M-93.35 90.35 L-94.45 98.35 Q-86.95 97.75 -84.75 94.8 L-84.75 94.2 Q-84.95 93.75 -85.4 93.65 L-89.25 91.55 -91.0 89.7 -92.75 89.7 -93.35 90.35 M-88.4 89.4 L-91.0 89.7 M-85.9 89.6 L-87.85 89.7 -88.4 89.4 M-88.05 82.45 L-91.15 81.4 M-96.25 106.25 L-96.35 106.55 M-94.45 98.35 Q-96.15 106.55 -101.7 104.95 M-115.85 -6.15 L-122.75 15.15" fill="none" stroke="#000000" stroke-linecap="round" stroke-linejoin="round" stroke-width="0.05"/>
  </g>
</svg>
