<?xml version="1.0" encoding="UTF-8" standalone="no"?>
<svg xmlns:xlink="http://www.w3.org/1999/xlink" height="209.45px" width="117.85px" xmlns="http://www.w3.org/2000/svg">
  <g transform="matrix(1.0, 0.0, 0.0, 1.0, 149.8, 118.45)">
    <path d="M-127.9 -113.1 L-128.2 -112.1 -128.2 -108.2 -127.6 -105.0 Q-128.5 -106.5 -128.8 -107.85 L-128.9 -108.25 Q-129.5 -110.95 -127.9 -113.1 M-127.8 -112.1 L-127.6 -112.1 -127.45 -112.55 -127.05 -112.65 -126.75 -112.1 Q-125.7 -107.1 -127.15 -107.75 L-127.65 -108.4 -127.9 -109.5 -127.8 -112.1" fill="#000000" fill-rule="evenodd" stroke="none"/>
    <path d="M-127.6 -105.0 L-128.2 -108.2 -128.2 -112.1 -127.9 -113.1 -126.75 -114.9 -125.25 -115.65 Q-117.85 -116.8 -115.65 -112.1 -113.85 -110.4 -114.6 -102.45 L-116.95 -101.15 Q-117.65 -101.0 -118.5 -98.5 L-119.05 -95.65 -118.5 -98.5 Q-117.65 -101.0 -116.95 -101.15 L-114.6 -102.45 -112.05 -102.55 Q-109.45 -102.0 -108.7 -101.15 -103.05 -97.75 -104.35 -90.2 -107.8 -80.55 -117.0 -87.4 L-118.7 -91.35 -119.05 -95.65 Q-123.35 -96.3 -125.9 -101.15 L-126.6 -102.45 -127.45 -104.8 -127.6 -104.9 -127.6 -105.0 M-127.8 -112.1 L-127.9 -109.5 -127.65 -108.4 -127.15 -107.75 Q-125.7 -107.1 -126.75 -112.1 L-127.05 -112.65 -127.45 -112.55 -127.6 -112.1 -127.8 -112.1" fill="#ff7a16" fill-rule="evenodd" stroke="none"/>
    <path d="M-126.6 -102.45 L-125.9 -101.15 Q-123.35 -96.3 -119.05 -95.65 L-118.7 -91.35 -136.4 -85.6 -136.55 -85.6 -136.95 -85.45 -137.0 -85.45 -138.9 -84.95 -138.95 -84.95 -139.45 -84.8 -139.6 -84.75 -141.2 -84.55 -141.3 -84.55 -148.55 -84.0 -148.45 -85.05 Q-147.35 -87.5 -130.65 -98.2 L-126.6 -102.45 M-94.45 56.8 L-92.05 57.75 -92.0 57.75 -91.9 58.1 -92.95 59.6 -92.45 59.65 -92.45 60.2 -93.5 62.35 -93.35 63.4 -93.15 64.15 -92.85 64.55 -91.45 64.8 -91.35 65.4 -90.4 66.4 -83.9 69.05 -82.4 70.75 -82.0 72.05 -81.85 74.15 -82.2 75.45 -83.7 78.35 Q-87.6 81.0 -95.4 89.5 L-97.55 91.0 -97.85 90.75 -97.85 90.15 -96.7 86.65 -96.8 86.65 -103.3 88.55 -103.95 88.35 -103.6 87.5 -98.8 82.9 -100.75 82.7 -101.15 82.45 -101.15 82.05 Q-101.2 80.5 -90.4 76.65 L-87.0 74.15 -86.05 73.0 -86.1 72.05 Q-91.95 69.55 -92.45 68.85 L-93.7 67.05 -94.15 64.05 -96.7 63.4 -97.65 63.3 -98.4 63.85 -103.15 74.35 -104.85 76.2 -105.7 76.65 -107.55 76.7 -109.9 76.0 Q-113.5 71.8 -118.85 68.55 L-120.35 67.05 -120.65 66.25 -120.2 65.4 -120.1 65.2 -123.2 61.6 -123.95 60.45 -124.25 59.15 -123.55 58.95 -122.35 59.45 -122.3 59.45 -122.05 58.75 -120.65 59.05 Q-114.9 62.9 -109.55 68.75 L-107.15 70.3 -106.05 70.3 -104.55 69.6 -101.4 63.1 -99.35 60.1 -97.75 59.45 -94.45 59.45 -94.45 56.8 M-94.45 59.45 L-92.95 59.6 -94.45 59.45 M-118.5 61.7 L-122.3 59.45 -118.5 61.7 M-96.8 86.65 L-96.55 86.2 -96.8 86.65 M-98.8 82.9 L-97.95 81.85 -98.8 82.9 M-120.2 65.4 L-118.2 65.1 -120.2 65.4 M-94.15 64.05 L-93.15 64.15 -94.15 64.05" fill="#fa410f" fill-rule="evenodd" stroke="none"/>
    <path d="M-114.6 -102.45 Q-113.85 -110.4 -115.65 -112.1 -117.85 -116.8 -125.25 -115.65 -107.55 -124.0 -96.7 -107.55 -94.55 -103.75 -94.15 -101.15 L-93.35 -96.15 -93.5 -91.35 -93.9 -88.7 Q-94.3 -85.6 -98.25 -74.95 L-98.9 -69.85 Q-99.3 -66.6 -98.6 -61.1 L-95.9 -53.45 -93.8 -49.7 -70.8 -23.05 Q-63.5 -13.45 -60.25 -6.15 L-56.85 1.95 -54.7 9.3 Q-53.1 12.8 -50.7 41.1 L-50.7 41.35 -48.95 46.8 Q-47.3 42.2 -41.15 41.9 L-39.7 42.85 -38.85 43.85 -38.85 43.9 Q-32.9 43.05 -32.0 46.9 L-31.95 49.85 -32.8 52.0 -32.85 52.15 Q-32.35 54.9 -33.1 55.95 L-34.25 57.55 -35.85 58.4 -39.45 58.95 -44.35 58.5 Q-46.15 58.2 -49.8 54.35 L-50.35 54.35 Q-57.45 67.3 -72.4 63.4 L-76.05 62.8 -85.4 60.3 Q-83.6 65.05 -83.55 67.05 L-83.55 67.45 Q-83.6 68.05 -83.9 68.3 -83.7 69.0 -88.15 65.2 L-91.45 64.8 -92.85 64.55 -93.15 64.15 -93.35 63.4 -93.5 62.35 -92.45 60.2 -92.45 59.65 -92.95 59.6 -91.9 58.1 -92.0 57.75 -92.05 57.75 -94.45 56.8 -95.2 56.4 -96.8 55.6 -95.2 56.4 -96.35 56.25 -96.8 55.6 -96.9 55.55 Q-117.8 44.8 -124.15 30.9 -129.8 4.6 -120.1 -18.75 L-113.2 -36.6 -120.1 -18.75 Q-121.05 -18.6 -124.15 -15.1 L-127.8 -9.85 -128.45 -9.55 -129.5 -10.1 -129.9 -13.4 -129.5 -17.95 -129.5 -19.25 -129.6 -19.2 -129.8 -19.15 Q-133.75 -9.2 -135.95 -6.25 L-136.95 -5.6 Q-139.55 -5.15 -138.1 -13.4 L-137.6 -17.55 -137.7 -17.55 -137.9 -17.55 -141.0 -11.55 Q-144.65 -5.7 -146.1 -4.65 -149.15 -1.85 -149.8 -4.75 -149.15 -16.8 -137.15 -34.5 -127.85 -42.6 -113.2 -36.6 -107.45 -50.0 -109.35 -62.25 -110.55 -68.2 -112.1 -72.2 L-117.45 -82.1 -117.0 -87.4 Q-107.8 -80.55 -104.35 -90.2 -103.05 -97.75 -108.7 -101.15 -109.45 -102.0 -112.05 -102.55 L-114.6 -102.45 M-85.05 60.0 L-85.5 60.0 -85.4 60.3 -85.5 60.0 -85.05 60.0 M-32.8 52.0 Q-33.5 46.45 -43.5 46.05 -33.5 46.45 -32.8 52.0 M-45.35 44.1 L-41.6 44.35 -38.85 43.85 -41.6 44.35 -45.35 44.1 M-48.95 46.8 L-48.55 49.0 -48.75 52.45 Q-51.1 55.0 -53.0 52.45 L-55.65 50.1 -65.15 38.7 -65.6 39.0 -65.15 41.5 -63.55 47.3 Q-62.95 49.2 -63.55 52.45 -66.75 57.1 -69.95 52.45 L-72.85 48.15 -75.9 41.5 Q-82.0 22.9 -79.95 41.5 -80.1 47.9 -81.85 46.45 L-83.05 45.55 -85.25 41.5 -87.55 36.0 -89.25 30.5 -91.8 19.55 -93.7 8.55 -98.7 -13.9 -93.7 8.55 -91.8 19.55 -89.25 30.5 -87.55 36.0 -85.25 41.5 -83.05 45.55 -81.85 46.45 Q-80.1 47.9 -79.95 41.5 -82.0 22.9 -75.9 41.5 L-72.85 48.15 -69.95 52.45 Q-66.75 57.1 -63.55 52.45 -62.95 49.2 -63.55 47.3 L-65.15 41.5 -65.6 39.0 -65.15 38.7 -55.65 50.1 -53.0 52.45 Q-51.1 55.0 -48.75 52.45 L-48.55 49.0 -48.95 46.8 M-50.7 41.1 L-53.65 35.3 -57.05 30.5 -69.4 15.35 -81.85 -2.4 -86.55 -9.8 -90.3 -17.75 -90.6 -20.1 -90.3 -17.75 -86.55 -9.8 -81.85 -2.4 -69.4 15.35 -57.05 30.5 -53.65 35.3 -50.7 41.1 M-137.7 -17.55 L-137.7 -19.9 -137.7 -17.55 M-129.6 -19.2 L-129.6 -20.75 -129.6 -19.2" fill="#ffffff" fill-rule="evenodd" stroke="none"/>
    <path d="M-117.0 -87.4 L-117.45 -82.1 Q-116.5 -80.15 -136.4 -85.6 L-118.7 -91.35 -117.0 -87.4" fill="#fa420e" fill-rule="evenodd" stroke="none"/>
    <path d="M-127.6 -105.0 L-128.2 -108.2 -128.2 -112.1 -127.9 -113.1 Q-129.5 -110.95 -128.9 -108.25 L-128.8 -107.85 Q-128.5 -106.5 -127.6 -105.0 L-127.6 -104.9 -127.45 -104.8 -126.6 -102.45 -125.9 -101.15 Q-123.35 -96.3 -119.05 -95.65 L-118.5 -98.5 Q-117.65 -101.0 -116.95 -101.15 L-114.6 -102.45 Q-113.85 -110.4 -115.65 -112.1 -117.85 -116.8 -125.25 -115.65 L-126.75 -114.9 -127.9 -113.1 M-127.8 -112.1 L-127.9 -109.5 -127.65 -108.4 -127.15 -107.75 Q-125.7 -107.1 -126.75 -112.1 L-127.05 -112.65 -127.45 -112.55 -127.6 -112.1 -127.8 -112.1 M-114.6 -102.45 L-112.05 -102.55 Q-109.45 -102.0 -108.7 -101.15 -103.05 -97.75 -104.35 -90.2 -107.8 -80.55 -117.0 -87.4 L-117.45 -82.1 -112.1 -72.2 Q-110.55 -68.2 -109.35 -62.25 -107.45 -50.0 -113.2 -36.6 L-120.1 -18.75 Q-129.8 4.6 -124.15 30.9 -117.8 44.8 -96.9 55.55 L-96.8 55.6 -95.2 56.4 -94.45 56.8 -92.05 57.75 -92.0 57.75 -91.9 58.1 -92.95 59.6 -92.45 59.65 -92.45 60.2 -93.5 62.35 -93.35 63.4 -93.15 64.15 -92.85 64.55 -91.45 64.8 -88.15 65.2 Q-83.7 69.0 -83.9 68.3 -83.6 68.05 -83.55 67.45 L-83.55 67.05 Q-83.6 65.05 -85.4 60.3 L-85.5 60.0 -85.05 60.0 M-125.25 -115.65 Q-107.55 -124.0 -96.7 -107.55 -94.55 -103.75 -94.15 -101.15 L-93.35 -96.15 -93.5 -91.35 -93.9 -88.7 Q-94.3 -85.6 -98.25 -74.95 L-98.9 -69.85 Q-99.3 -66.6 -98.6 -61.1 L-95.9 -53.45 -93.8 -49.7 -70.8 -23.05 Q-63.5 -13.45 -60.25 -6.15 L-56.85 1.95 -54.7 9.3 Q-53.1 12.8 -50.7 41.1 L-50.7 41.35 -48.95 46.8 Q-47.3 42.2 -41.15 41.9 L-39.7 42.85 -38.85 43.85 -38.85 43.9 Q-32.9 43.05 -32.0 46.9 L-31.95 49.85 -32.8 52.0 -32.85 52.15 Q-32.35 54.9 -33.1 55.95 L-34.25 57.55 -35.85 58.4 -39.45 58.95 -44.35 58.5 Q-46.15 58.2 -49.8 54.35 L-50.35 54.35 Q-57.45 67.3 -72.4 63.4 L-76.05 62.8 -85.4 60.3 M-117.0 -87.4 L-118.7 -91.35 -136.4 -85.6 Q-116.5 -80.15 -117.45 -82.1 M-118.7 -91.35 L-119.05 -95.65 M-136.4 -85.6 L-136.55 -85.6 -136.95 -85.45 -137.0 -85.45 -138.9 -84.95 -138.95 -84.95 -139.45 -84.8 -139.6 -84.75 -141.2 -84.55 -141.3 -84.55 -148.55 -84.0 -148.45 -85.05 Q-147.35 -87.5 -130.65 -98.2 L-126.6 -102.45 M-120.1 -18.75 Q-121.05 -18.6 -124.15 -15.1 L-127.8 -9.85 -128.45 -9.55 -129.5 -10.1 -129.9 -13.4 -129.5 -17.95 -129.5 -19.25 -129.6 -19.2 -129.8 -19.15 Q-133.75 -9.2 -135.95 -6.25 L-136.95 -5.6 Q-139.55 -5.15 -138.1 -13.4 L-137.6 -17.55 -137.7 -17.55 -137.9 -17.55 -141.0 -11.55 Q-144.65 -5.7 -146.1 -4.65 -149.15 -1.85 -149.8 -4.75 -149.15 -16.8 -137.15 -34.5 -127.85 -42.6 -113.2 -36.6 M-129.6 -20.75 L-129.6 -19.2 M-137.7 -19.9 L-137.7 -17.55 M-90.6 -20.1 L-90.3 -17.75 -86.55 -9.8 -81.85 -2.4 -69.4 15.35 -57.05 30.5 -53.65 35.3 -50.7 41.1 M-98.7 -13.9 L-93.7 8.55 -91.8 19.55 -89.25 30.5 -87.55 36.0 -85.25 41.5 -83.05 45.55 -81.85 46.45 Q-80.1 47.9 -79.95 41.5 -82.0 22.9 -75.9 41.5 L-72.85 48.15 -69.95 52.45 Q-66.75 57.1 -63.55 52.45 -62.95 49.2 -63.55 47.3 L-65.15 41.5 -65.6 39.0 -65.15 38.7 -55.65 50.1 -53.0 52.45 Q-51.1 55.0 -48.75 52.45 L-48.55 49.0 -48.95 46.8 M-38.85 43.85 L-41.6 44.35 -45.35 44.1 M-43.5 46.05 Q-33.5 46.45 -32.8 52.0 M-91.45 64.8 L-91.35 65.4 -90.4 66.4 -83.9 69.05 -82.4 70.75 -82.0 72.05 -81.85 74.15 -82.2 75.45 -83.7 78.35 Q-87.6 81.0 -95.4 89.5 L-97.55 91.0 -97.85 90.75 -97.85 90.15 -96.7 86.65 -96.8 86.65 -103.3 88.55 -103.95 88.35 -103.6 87.5 -98.8 82.9 -100.75 82.7 -101.15 82.45 -101.15 82.05 Q-101.2 80.5 -90.4 76.65 L-87.0 74.15 -86.05 73.0 -86.1 72.05 Q-91.95 69.55 -92.45 68.85 L-93.7 67.05 -94.15 64.05 -96.7 63.4 -97.65 63.3 -98.4 63.85 -103.15 74.35 -104.85 76.2 -105.7 76.65 -107.55 76.7 -109.9 76.0 Q-113.5 71.8 -118.85 68.55 L-120.35 67.05 -120.65 66.25 -120.2 65.4 -120.1 65.2 -123.2 61.6 -123.95 60.45 -124.25 59.15 -123.55 58.95 -122.35 59.45 -122.3 59.45 -122.05 58.75 -120.65 59.05 Q-114.9 62.9 -109.55 68.75 L-107.15 70.3 -106.05 70.3 -104.55 69.6 -101.4 63.1 -99.35 60.1 -97.75 59.45 -94.45 59.45 -94.45 56.8 M-92.95 59.6 L-94.45 59.45 M-95.2 56.4 L-96.35 56.25 -96.8 55.6 M-93.15 64.15 L-94.15 64.05 M-118.2 65.1 L-120.2 65.4 M-97.95 81.85 L-98.8 82.9 M-96.55 86.2 L-96.8 86.65 M-122.3 59.45 L-118.5 61.7" fill="none" stroke="#000000" stroke-linecap="round" stroke-linejoin="round" stroke-width="0.05"/>
  </g>
</svg>
