<?xml version="1.0" encoding="UTF-8" standalone="no"?>
<svg xmlns:xlink="http://www.w3.org/1999/xlink" height="216.9px" width="126.0px" xmlns="http://www.w3.org/2000/svg">
  <g transform="matrix(1.0, 0.0, 0.0, 1.0, 160.9, 154.65)">
    <path d="M-97.4 -154.0 Q-82.2 -153.3 -78.05 -138.9 -77.3 -137.25 -76.95 -130.65 L-77.95 -123.2 -78.9 -120.15 -80.7 -116.15 Q-81.4 -114.2 -87.85 -106.6 L-89.95 -101.8 -91.45 -94.85 -90.95 -88.7 -89.95 -84.4 -88.6 -81.15 -68.25 -50.25 -62.5 -39.45 -58.2 -28.8 Q-52.2 -16.15 -53.25 25.35 L-52.05 24.95 Q-50.1 22.75 -49.2 22.95 L-46.7 22.95 -44.7 23.35 -43.1 24.3 -42.25 25.45 -42.15 25.6 -39.05 26.55 -36.5 28.15 -35.4 29.55 -34.9 31.55 Q-36.1 40.25 -39.8 39.65 -41.8 39.8 -44.8 38.9 L-49.7 37.0 -51.55 35.4 -53.95 31.9 -54.35 31.65 -53.85 31.55 -54.35 31.65 -54.5 31.55 Q-63.5 39.15 -66.75 38.15 -69.5 39.8 -89.75 30.6 -88.2 37.6 -89.1 37.85 L-89.75 37.65 -93.3 33.9 -94.45 33.45 -95.9 33.05 -97.85 32.4 -98.4 30.5 -97.55 28.8 -97.55 28.35 -98.05 28.25 -96.8 27.1 -96.85 26.95 -96.9 26.85 -102.3 23.15 -102.45 23.05 -102.3 23.15 -96.9 26.85 -98.8 26.2 -101.25 25.6 -101.8 23.65 -102.45 23.15 -102.45 23.05 Q-121.0 8.55 -126.6 -6.05 -129.7 -21.7 -124.25 -42.15 L-121.0 -51.0 -113.8 -65.05 -121.0 -51.0 -124.25 -42.15 Q-134.05 -36.25 -141.0 -38.2 L-141.65 -39.25 -141.3 -40.95 Q-141.3 -41.7 -136.2 -46.4 L-135.55 -48.2 -145.9 -46.5 Q-151.35 -46.8 -151.65 -47.8 -154.2 -50.45 -153.0 -53.65 L-151.5 -55.6 Q-145.95 -58.15 -146.1 -59.4 -162.2 -63.5 -160.8 -66.55 -158.8 -78.05 -132.9 -68.25 L-128.3 -67.15 -113.8 -65.05 Q-95.2 -96.0 -105.1 -122.05 L-104.65 -122.45 -104.65 -123.1 Q-103.2 -128.05 -100.8 -130.8 -101.15 -128.9 -100.3 -125.95 L-98.8 -123.1 Q-93.35 -115.25 -85.9 -123.1 -82.6 -129.75 -86.25 -134.05 -94.45 -140.4 -98.8 -135.05 L-99.55 -134.95 -99.9 -134.9 -100.8 -135.45 Q-96.0 -137.7 -93.5 -145.05 -91.75 -152.1 -97.4 -154.0 M-97.65 25.5 L-96.5 26.35 -96.85 26.95 -96.5 26.35 -97.65 25.5 M-86.1 -31.95 L-85.6 -29.45 -85.6 -24.7 -85.9 -23.7 -86.35 -23.05 -87.95 -22.0 -87.75 -21.3 -86.9 -20.75 -85.25 -20.75 -80.3 -22.6 -80.95 -21.15 -86.75 -13.4 Q-89.7 -9.35 -86.9 -7.85 -86.8 -6.7 -79.0 -11.5 L-77.8 -11.7 -83.25 -2.4 -86.05 4.2 -86.9 8.55 Q-87.4 16.6 -79.85 8.55 L-74.6 2.3 -68.45 -7.65 Q-66.9 -10.5 -66.45 -13.4 -65.6 -16.05 -65.6 -19.15 L-65.9 -24.35 -67.5 -31.4 -69.0 -35.35 -72.2 -41.75 -75.6 -46.3 -80.35 -51.0 Q-86.25 -54.5 -88.25 -57.3 L-88.8 -58.0 -88.25 -57.3 Q-86.25 -54.5 -80.35 -51.0 L-75.6 -46.3 -72.2 -41.75 -69.0 -35.35 -67.5 -31.4 -65.9 -24.35 -65.6 -19.15 Q-65.6 -16.05 -66.45 -13.4 -66.9 -10.5 -68.45 -7.65 L-74.6 2.3 -79.85 8.55 Q-87.4 16.6 -86.9 8.55 L-86.05 4.2 -83.25 -2.4 -77.8 -11.7 -79.0 -11.5 Q-86.8 -6.7 -86.9 -7.85 -89.7 -9.35 -86.75 -13.4 L-80.95 -21.15 -80.3 -22.6 -85.25 -20.75 -86.9 -20.75 -87.75 -21.3 -87.95 -22.0 -86.35 -23.05 -85.9 -23.7 -85.6 -24.7 -85.6 -29.45 -86.1 -31.95 M-36.05 35.5 L-36.25 33.05 -37.45 30.5 Q-37.7 29.65 -40.45 27.95 L-46.3 25.3 -40.45 27.95 Q-37.7 29.65 -37.45 30.5 L-36.25 33.05 -36.05 35.5 M-77.75 -12.0 L-77.8 -11.7 -77.75 -12.0 M-80.3 -22.6 L-79.75 -24.05 -80.3 -22.6 M-86.7 -33.3 L-86.9 -34.05 -86.7 -33.3 M-87.1 -34.35 L-87.55 -35.35 -95.0 -47.8 -87.55 -35.35 -87.1 -34.35 M-48.55 23.25 L-42.25 25.45 -48.55 23.25 M-53.25 27.5 L-53.25 25.35 -53.25 27.5 M-102.45 23.15 L-102.3 23.15 -102.45 23.15 M-89.95 30.5 L-90.3 29.55 -89.85 29.55 -90.3 29.55 -89.95 30.5" fill="#ffffff" fill-rule="evenodd" stroke="none"/>
    <path d="M-108.05 -149.95 Q-105.4 -152.7 -106.3 -149.6 -108.05 -146.6 -108.3 -149.3 L-108.3 -149.4 -108.05 -149.8 -108.05 -149.95 -108.05 -149.8 -108.3 -149.4 -108.3 -149.3 -108.85 -148.1 -108.6 -145.15 -109.15 -145.05 -109.9 -144.85 Q-111.2 -148.65 -108.2 -150.05 L-108.05 -149.95" fill="#000000" fill-rule="evenodd" stroke="none"/>
    <path d="M-97.4 -154.0 Q-91.75 -152.1 -93.5 -145.05 -96.0 -137.7 -100.8 -135.45 -106.3 -136.9 -108.6 -145.05 L-108.6 -145.15 -108.85 -148.1 -108.3 -149.3 Q-108.05 -146.6 -106.3 -149.6 -105.4 -152.7 -108.05 -149.95 L-108.2 -150.05 Q-104.4 -156.4 -97.4 -154.0 M-98.8 -135.05 Q-94.45 -140.4 -86.25 -134.05 -82.6 -129.75 -85.9 -123.1 -93.35 -115.25 -98.8 -123.1 L-100.3 -125.95 Q-101.15 -128.9 -100.8 -130.8 L-100.6 -132.05 -99.55 -134.05 -98.8 -135.05" fill="#ff7a16" fill-rule="evenodd" stroke="none"/>
    <path d="M-100.8 -135.45 L-99.9 -134.9 -99.55 -134.95 -98.8 -135.05 -99.55 -134.05 -100.6 -132.05 -116.6 -134.0 -128.3 -137.85 -129.5 -138.25 -130.3 -138.6 -129.9 -138.75 -129.8 -138.7 -130.15 -138.9 -130.35 -138.95 -130.4 -139.0 -130.55 -139.0 -130.9 -139.15 -131.05 -139.3 -131.4 -139.3 -131.9 -139.45 -131.4 -139.3 -131.05 -139.3 -130.9 -139.15 -130.55 -139.0 -130.4 -139.0 -130.35 -138.95 -130.15 -138.9 -129.8 -138.7 -129.6 -138.7 -129.5 -138.7 -129.3 -138.55 -128.75 -138.45 -128.3 -138.25 -128.75 -138.45 -129.3 -138.55 -129.5 -138.7 -129.6 -138.7 -129.8 -138.7 -129.9 -138.75 -130.3 -138.6 -131.25 -139.1 -131.65 -139.3 -131.9 -139.45 -132.6 -139.75 -132.8 -139.9 -135.05 -141.0 -136.55 -141.75 -136.6 -141.75 -136.95 -141.9 -137.4 -142.15 -138.55 -142.7 -138.75 -143.0 -138.45 -143.35 Q-138.65 -144.45 -114.15 -143.65 L-109.9 -144.85 -109.15 -145.05 -108.6 -145.15 -108.6 -145.05 Q-106.3 -136.9 -100.8 -135.45 M-96.9 26.85 L-96.85 26.95 -96.8 27.1 -98.05 28.25 -97.55 28.35 -97.55 28.8 -98.4 30.5 -97.85 32.4 -95.9 33.05 -94.45 33.45 Q-96.55 35.0 -86.05 40.5 L-85.05 41.9 -84.65 43.4 -84.65 45.3 -85.2 47.25 -86.25 49.25 Q-88.8 50.65 -98.7 61.3 L-100.1 62.25 -100.5 62.0 -100.5 61.15 -99.45 58.3 -99.5 58.35 -104.25 60.2 -106.3 60.45 -105.95 59.35 -101.9 55.2 -103.3 55.1 -103.6 55.0 -103.7 54.35 -100.2 51.5 -92.95 47.95 -90.1 45.6 -88.8 43.8 -89.25 42.55 Q-93.7 40.3 -95.3 38.8 L-96.5 37.1 -97.55 32.95 -102.65 31.9 -103.4 32.2 -104.25 33.15 -109.35 40.5 Q-110.95 42.45 -112.25 42.95 -116.25 44.0 -119.15 38.7 L-119.25 38.6 -119.35 38.35 -119.5 38.3 -126.1 30.05 -126.45 28.4 -126.5 28.15 Q-130.2 23.0 -129.8 21.9 L-129.5 21.75 -128.9 21.8 Q-126.35 22.45 -119.15 30.5 L-115.95 34.45 -113.8 36.35 -112.9 36.65 -111.7 36.6 -110.2 35.75 Q-106.35 30.0 -104.25 28.35 L-103.15 28.05 -98.6 28.25 -98.8 26.2 -96.9 26.85 M-127.35 -137.9 L-127.65 -137.9 -127.85 -137.95 -128.3 -137.85 -127.85 -137.95 -127.65 -137.9 -127.35 -137.9 M-136.75 -141.95 L-136.6 -141.75 -136.75 -141.95 -136.95 -141.9 -136.75 -141.95 -136.95 -142.05 -137.4 -142.15 -136.95 -142.05 -136.75 -141.95 M-135.05 -141.0 L-134.4 -140.9 -135.1 -141.25 -135.15 -141.25 -135.55 -141.45 -136.55 -141.75 -135.55 -141.45 -135.15 -141.25 -135.1 -141.25 -134.4 -140.9 -133.85 -140.6 -133.55 -140.5 -133.2 -140.35 -133.1 -140.3 -132.5 -139.85 -132.25 -139.8 -131.95 -139.75 -132.25 -139.8 -132.5 -139.85 -133.1 -140.3 -133.2 -140.35 -133.55 -140.5 -133.85 -140.6 -134.4 -140.9 -135.05 -141.0 M-132.25 -139.8 L-132.6 -139.75 -132.25 -139.8 M-132.8 -139.9 L-132.5 -139.85 -132.8 -139.9 M-131.25 -139.1 L-130.9 -139.15 -131.25 -139.1 M-101.05 -134.5 L-100.75 -134.5 -100.3 -134.6 -99.55 -134.95 -100.3 -134.6 -100.75 -134.5 -101.05 -134.5 M-131.4 -139.3 L-131.65 -139.3 -131.4 -139.3 M-103.5 -134.05 L-103.1 -134.05 -103.5 -134.05 M-101.9 -134.25 L-101.45 -134.25 -101.9 -134.25 M-119.15 38.7 L-119.15 38.6 -119.25 38.6 -119.15 38.6 -119.15 38.7 M-101.9 55.2 L-100.6 53.7 -101.9 55.2 M-99.5 58.35 L-99.35 57.55 -99.5 58.35 M-123.2 26.8 L-127.35 22.95 -123.2 26.8 M-126.45 28.4 L-125.95 28.15 -123.95 28.55 -125.95 28.15 -126.45 28.4 M-95.9 33.05 L-97.55 32.95 -95.9 33.05 M-98.05 28.25 L-98.6 28.25 -98.05 28.25" fill="#fa410f" fill-rule="evenodd" stroke="none"/>
    <path d="M-100.8 -130.8 Q-103.2 -128.05 -104.65 -123.1 L-104.65 -122.45 -105.1 -122.05 -108.7 -123.6 Q-109.8 -125.3 -124.45 -134.4 L-123.95 -134.85 -122.3 -134.85 -116.95 -134.05 -116.6 -134.0 -100.6 -132.05 -100.8 -130.8" fill="#fa420e" fill-rule="evenodd" stroke="none"/>
    <path d="M-53.25 25.35 Q-52.2 -16.15 -58.2 -28.8 L-62.5 -39.45 -68.25 -50.25 -88.6 -81.15 -89.95 -84.4 -90.95 -88.7 -91.45 -94.85 -89.95 -101.8 -87.85 -106.6 Q-81.4 -114.2 -80.7 -116.15 L-78.9 -120.15 -77.95 -123.2 -76.95 -130.65 Q-77.3 -137.25 -78.05 -138.9 -82.2 -153.3 -97.4 -154.0 -91.75 -152.1 -93.5 -145.05 -96.0 -137.7 -100.8 -135.45 L-99.9 -134.9 -99.55 -134.95 -98.8 -135.05 Q-94.45 -140.4 -86.25 -134.05 -82.6 -129.75 -85.9 -123.1 -93.35 -115.25 -98.8 -123.1 L-100.3 -125.95 Q-101.15 -128.9 -100.8 -130.8 -103.2 -128.05 -104.65 -123.1 L-104.65 -122.45 -105.1 -122.05 Q-95.2 -96.0 -113.8 -65.05 L-121.0 -51.0 -124.25 -42.15 Q-129.7 -21.7 -126.6 -6.05 -121.0 8.55 -102.45 23.05 L-102.3 23.15 -96.9 26.85 -96.85 26.95 -96.5 26.35 -97.65 25.5 M-108.3 -149.3 Q-108.05 -146.6 -106.3 -149.6 -105.4 -152.7 -108.05 -149.95 L-108.05 -149.8 -108.3 -149.4 -108.3 -149.3 -108.85 -148.1 -108.6 -145.15 -108.6 -145.05 Q-106.3 -136.9 -100.8 -135.45 M-108.05 -149.95 L-108.2 -150.05 Q-111.2 -148.65 -109.9 -144.85 L-109.15 -145.05 -108.6 -145.15 M-108.2 -150.05 Q-104.4 -156.4 -97.4 -154.0 M-131.9 -139.45 L-131.4 -139.3 -131.05 -139.3 -130.9 -139.15 -130.55 -139.0 -130.4 -139.0 -130.35 -138.95 -130.15 -138.9 -129.8 -138.7 -129.6 -138.7 -129.5 -138.7 -129.3 -138.55 -128.75 -138.45 -128.3 -138.25 M-130.3 -138.6 L-129.5 -138.25 -128.3 -137.85 -127.85 -137.95 -127.65 -137.9 -127.35 -137.9 M-129.8 -138.7 L-129.9 -138.75 -130.3 -138.6 -131.25 -139.1 -131.65 -139.3 -131.9 -139.45 -132.6 -139.75 -132.8 -139.9 -135.05 -141.0 -136.55 -141.75 -136.6 -141.75 -136.95 -141.9 -137.4 -142.15 -138.55 -142.7 -138.75 -143.0 -138.45 -143.35 Q-138.65 -144.45 -114.15 -143.65 L-109.9 -144.85 M-130.9 -139.15 L-131.25 -139.1 M-136.95 -141.9 L-136.75 -141.95 -136.95 -142.05 -137.4 -142.15 M-136.55 -141.75 L-135.55 -141.45 -135.15 -141.25 -135.1 -141.25 -134.4 -140.9 -133.85 -140.6 -133.55 -140.5 -133.2 -140.35 -133.1 -140.3 -132.5 -139.85 -132.25 -139.8 -131.95 -139.75 M-132.5 -139.85 L-132.8 -139.9 M-132.6 -139.75 L-132.25 -139.8 M-134.4 -140.9 L-135.05 -141.0 M-136.6 -141.75 L-136.75 -141.95 M-105.1 -122.05 L-108.7 -123.6 Q-109.8 -125.3 -124.45 -134.4 L-123.95 -134.85 -122.3 -134.85 -116.95 -134.05 -116.6 -134.0 -128.3 -137.85 M-131.65 -139.3 L-131.4 -139.3 M-99.55 -134.95 L-100.3 -134.6 -100.75 -134.5 -101.05 -134.5 M-100.6 -132.05 L-99.55 -134.05 -98.8 -135.05 M-100.6 -132.05 L-100.8 -130.8 M-101.45 -134.25 L-101.9 -134.25 M-103.1 -134.05 L-103.5 -134.05 M-116.6 -134.0 L-100.6 -132.05 M-88.8 -58.0 L-88.25 -57.3 Q-86.25 -54.5 -80.35 -51.0 L-75.6 -46.3 -72.2 -41.75 -69.0 -35.35 -67.5 -31.4 -65.9 -24.35 -65.6 -19.15 Q-65.6 -16.05 -66.45 -13.4 -66.9 -10.5 -68.45 -7.65 L-74.6 2.3 -79.85 8.55 Q-87.4 16.6 -86.9 8.55 L-86.05 4.2 -83.25 -2.4 -77.8 -11.7 -79.0 -11.5 Q-86.8 -6.7 -86.9 -7.85 -89.7 -9.35 -86.75 -13.4 L-80.95 -21.15 -80.3 -22.6 -85.25 -20.75 -86.9 -20.75 -87.75 -21.3 -87.95 -22.0 -86.35 -23.05 -85.9 -23.7 -85.6 -24.7 -85.6 -29.45 -86.1 -31.95 M-124.25 -42.15 Q-134.05 -36.25 -141.0 -38.2 L-141.65 -39.25 -141.3 -40.95 Q-141.3 -41.7 -136.2 -46.4 L-135.55 -48.2 -145.9 -46.5 Q-151.35 -46.8 -151.65 -47.8 -154.2 -50.45 -153.0 -53.65 L-151.5 -55.6 Q-145.95 -58.15 -146.1 -59.4 -162.2 -63.5 -160.8 -66.55 -158.8 -78.05 -132.9 -68.25 L-128.3 -67.15 -113.8 -65.05 M-95.0 -47.8 L-87.55 -35.35 -87.1 -34.35 M-86.9 -34.05 L-86.7 -33.3 M-79.75 -24.05 L-80.3 -22.6 M-77.8 -11.7 L-77.75 -12.0 M-46.3 25.3 L-40.45 27.95 Q-37.7 29.65 -37.45 30.5 L-36.25 33.05 -36.05 35.5 M-54.35 31.65 L-53.95 31.9 -51.55 35.4 -49.7 37.0 -44.8 38.9 Q-41.8 39.8 -39.8 39.65 -36.1 40.25 -34.9 31.55 L-35.4 29.55 -36.5 28.15 -39.05 26.55 -42.15 25.6 -42.25 25.45 -48.55 23.25 M-42.25 25.45 L-43.1 24.3 -44.7 23.35 -46.7 22.95 -49.2 22.95 Q-50.1 22.75 -52.05 24.95 L-53.25 25.35 -53.25 27.5 M-54.35 31.65 L-53.85 31.55 M-94.45 33.45 L-93.3 33.9 -89.75 37.65 -89.1 37.85 Q-88.2 37.6 -89.75 30.6 -69.5 39.8 -66.75 38.15 -63.5 39.15 -54.5 31.55 L-54.35 31.65 M-98.8 26.2 L-101.25 25.6 -101.8 23.65 -102.45 23.15 -102.45 23.05 M-102.3 23.15 L-102.45 23.15 M-94.45 33.45 Q-96.55 35.0 -86.05 40.5 L-85.05 41.9 -84.65 43.4 -84.65 45.3 -85.2 47.25 -86.25 49.25 Q-88.8 50.65 -98.7 61.3 L-100.1 62.25 -100.5 62.0 -100.5 61.15 -99.45 58.3 -99.5 58.35 -104.25 60.2 -106.3 60.45 -105.95 59.35 -101.9 55.2 -103.3 55.1 -103.6 55.0 -103.7 54.35 -100.2 51.5 -92.95 47.95 -90.1 45.6 -88.8 43.8 -89.25 42.55 Q-93.7 40.3 -95.3 38.8 L-96.5 37.1 -97.55 32.95 -102.65 31.9 -103.4 32.2 -104.25 33.15 -109.35 40.5 Q-110.95 42.45 -112.25 42.95 -116.25 44.0 -119.15 38.7 L-119.25 38.6 -119.35 38.35 -119.5 38.3 -126.1 30.05 -126.45 28.4 -126.5 28.15 Q-130.2 23.0 -129.8 21.9 L-129.5 21.75 -128.9 21.8 Q-126.35 22.45 -119.15 30.5 L-115.95 34.45 -113.8 36.35 -112.9 36.65 -111.7 36.6 -110.2 35.75 Q-106.35 30.0 -104.25 28.35 L-103.15 28.05 -98.6 28.25 -98.8 26.2 -96.9 26.85 M-119.25 38.6 L-119.15 38.6 -119.15 38.7 M-89.85 29.55 L-90.3 29.55 -89.95 30.5 M-96.85 26.95 L-96.8 27.1 -98.05 28.25 -97.55 28.35 -97.55 28.8 -98.4 30.5 -97.85 32.4 -95.9 33.05 -94.45 33.45 M-98.6 28.25 L-98.05 28.25 M-97.55 32.95 L-95.9 33.05 M-123.95 28.55 L-125.95 28.15 -126.45 28.4 M-127.35 22.95 L-123.2 26.8 M-99.35 57.55 L-99.5 58.35 M-100.6 53.7 L-101.9 55.2" fill="none" stroke="#000000" stroke-linecap="round" stroke-linejoin="round" stroke-width="0.05"/>
  </g>
</svg>
