<?xml version="1.0" encoding="UTF-8" standalone="no"?>
<svg xmlns:xlink="http://www.w3.org/1999/xlink" height="219.55px" width="119.8px" xmlns="http://www.w3.org/2000/svg">
  <g transform="matrix(1.0, 0.0, 0.0, 1.0, 158.75, 192.35)">
    <path d="M-71.65 -184.7 Q-69.45 -180.8 -71.4 -177.95 -76.95 -171.3 -82.95 -170.4 -86.25 -171.75 -87.1 -177.95 L-87.1 -180.5 -86.55 -183.2 -85.9 -183.9 Q-86.2 -181.45 -84.2 -183.8 -82.7 -187.0 -85.2 -185.2 -77.7 -192.1 -71.65 -184.7 M-68.45 -167.0 Q-64.05 -163.75 -66.65 -156.0 -69.6 -150.25 -75.7 -150.45 -80.75 -151.8 -81.85 -156.0 -83.65 -163.75 -79.65 -167.0 -73.3 -171.45 -68.45 -167.0" fill="#ff7a16" fill-rule="evenodd" stroke="none"/>
    <path d="M-82.95 -170.4 Q-76.95 -171.3 -71.4 -177.95 -69.45 -180.8 -71.65 -184.7 -57.8 -177.65 -62.25 -154.85 L-63.95 -149.8 -66.65 -145.25 -69.65 -141.95 -71.2 -140.65 -78.9 -136.2 -80.3 -134.85 Q-81.75 -133.35 -83.8 -128.85 L-84.55 -125.75 -84.65 -120.35 -84.0 -115.45 -83.05 -112.9 -78.9 -105.85 -65.45 -79.45 -61.2 -69.3 -57.15 -56.45 Q-51.55 -40.7 -56.5 -1.05 L-51.85 -1.45 -49.25 0.15 Q-37.25 10.2 -39.25 13.65 -39.15 16.2 -41.95 16.8 -43.55 17.1 -46.05 16.85 -57.35 12.25 -58.85 4.3 L-66.95 7.5 -72.5 7.7 Q-77.3 7.4 -92.85 -2.4 L-94.35 -3.15 Q-93.1 2.25 -93.8 3.0 L-94.35 3.0 Q-96.85 -1.15 -99.1 -2.3 L-99.25 -2.4 -102.1 -3.6 Q-103.35 -4.4 -102.65 -6.65 L-103.3 -6.65 -103.3 -7.0 -102.45 -7.65 -103.15 -7.85 -105.85 -9.2 -106.15 -10.3 -106.8 -10.85 -106.55 -11.55 -105.95 -12.1 Q-124.45 -30.4 -129.05 -47.15 -130.3 -69.9 -122.75 -84.75 L-117.25 -94.65 -111.25 -103.15 -117.25 -94.65 -122.75 -84.75 Q-135.85 -82.4 -140.55 -85.3 -143.35 -86.6 -142.3 -89.1 -133.95 -93.5 -135.1 -94.45 -149.95 -96.4 -151.95 -100.4 L-152.95 -102.95 -152.95 -104.65 -152.4 -106.05 -151.5 -107.0 -150.45 -107.55 -145.15 -108.4 -144.4 -109.35 Q-159.65 -118.65 -158.7 -121.5 -159.35 -124.55 -153.55 -125.25 L-149.1 -124.8 -145.15 -123.1 Q-137.6 -119.0 -127.45 -111.8 L-111.25 -103.15 Q-89.5 -128.75 -91.35 -159.0 L-90.75 -159.4 Q-91.25 -160.15 -87.95 -163.6 L-83.8 -167.1 -79.3 -168.25 -78.9 -169.0 Q-79.05 -169.7 -82.5 -169.85 L-82.95 -170.4 M-101.25 -9.65 L-100.75 -9.25 -100.7 -9.2 -101.6 -8.35 -105.95 -12.1 -101.6 -8.35 -100.7 -9.2 -100.75 -9.25 -101.25 -9.65 M-68.45 -167.0 Q-73.3 -171.45 -79.65 -167.0 -83.65 -163.75 -81.85 -156.0 -80.75 -151.8 -75.7 -150.45 -69.6 -150.25 -66.65 -156.0 -64.05 -163.75 -68.45 -167.0 M-90.45 -61.05 L-89.3 -61.55 -90.45 -61.05 -90.4 -61.0 Q-101.2 -61.15 -105.95 -57.3 -112.9 -51.25 -90.8 -48.55 -79.4 -48.0 -75.8 -57.3 L-74.3 -61.2 -74.2 -62.4 -73.45 -66.0 -73.35 -68.25 -73.55 -74.1 -74.95 -79.25 -77.6 -84.75 Q-78.8 -86.75 -82.5 -90.2 L-84.65 -92.3 -85.4 -93.7 -84.65 -92.3 -82.5 -90.2 Q-78.8 -86.75 -77.6 -84.75 L-74.95 -79.25 -73.55 -74.1 -73.35 -68.25 -73.45 -66.0 -74.2 -62.4 -74.3 -61.2 -75.8 -57.3 Q-79.4 -48.0 -90.8 -48.55 -112.9 -51.25 -105.95 -57.3 -101.2 -61.15 -90.4 -61.0 L-90.45 -61.05 Q-99.3 -67.25 -95.6 -68.25 L-93.9 -68.45 -88.6 -67.85 -89.25 -68.25 -90.15 -69.5 -90.6 -71.55 -90.3 -71.55 -89.25 -70.3 -88.7 -73.75 Q-89.1 -76.65 -90.4 -79.25 L-93.15 -85.7 -90.4 -79.25 Q-89.1 -76.65 -88.7 -73.75 L-89.25 -70.3 -90.3 -71.55 -90.6 -71.55 -90.15 -69.5 -89.25 -68.25 -88.6 -67.85 -93.9 -68.45 -95.6 -68.25 Q-99.3 -67.25 -90.45 -61.05 M-88.45 -67.7 L-88.6 -67.85 -88.45 -67.7 -88.45 -68.15 -88.9 -69.45 -88.45 -69.5 -88.9 -69.45 -88.45 -68.15 -88.45 -67.7 -87.3 -67.8 -86.7 -68.25 -85.9 -68.55 -85.5 -69.2 -85.9 -68.55 -86.7 -68.25 -87.3 -67.8 -88.45 -67.7 M-89.3 -69.2 L-89.1 -69.45 -89.3 -69.5 -89.25 -70.3 -89.3 -69.5 -89.1 -69.45 -88.9 -69.45 -89.1 -69.45 -89.3 -69.2 M-102.45 -7.65 L-101.65 -8.35 -101.6 -8.35 -101.65 -8.35 -102.45 -7.65 M-106.15 -10.3 L-106.15 -10.95 -106.15 -10.3 M-58.85 4.3 L-58.2 4.4 -58.85 4.3 M-53.75 12.1 L-53.3 12.4 -53.75 12.1 M-41.95 16.8 Q-38.8 13.6 -41.4 8.55 L-44.15 5.15 -49.4 0.65 -44.15 5.15 -41.4 8.55 Q-38.8 13.6 -41.95 16.8 M-94.35 -3.15 L-94.55 -5.2 -94.35 -5.3 -94.55 -5.2 -94.35 -3.15 M-56.75 0.35 L-56.5 -1.05 -56.75 0.35" fill="#ffffff" fill-rule="evenodd" stroke="none"/>
    <path d="M-87.1 -180.5 L-87.1 -177.95 Q-86.25 -171.75 -82.95 -170.4 L-82.5 -169.85 Q-79.05 -169.7 -78.9 -169.0 L-79.3 -168.25 -83.8 -167.1 -90.95 -171.15 -99.65 -175.4 Q-105.35 -179.4 -110.05 -183.75 L-110.1 -183.85 -110.2 -183.9 -113.25 -187.6 -113.35 -187.7 -114.6 -189.15 -114.65 -189.2 -114.65 -189.25 -114.6 -189.15 -114.65 -189.25 -114.85 -189.45 -115.3 -190.05 -115.65 -190.45 -115.8 -190.6 -116.1 -191.05 -116.5 -191.45 -116.95 -192.0 -116.95 -192.35 -116.5 -192.35 -115.3 -192.2 -95.6 -182.75 Q-93.75 -181.65 -88.7 -180.7 L-87.1 -180.5 M-99.1 -2.3 L-99.55 -2.1 -98.9 1.85 -98.25 2.9 Q-87.35 8.8 -89.85 13.25 L-91.15 16.0 -92.3 17.4 -97.95 21.05 -104.25 26.0 Q-106.35 27.65 -106.9 27.0 L-105.95 24.3 -106.05 24.3 -110.55 25.8 -112.1 26.0 -112.45 25.8 -111.9 24.65 -108.6 21.65 -109.75 21.45 -109.35 20.4 -105.5 17.85 -98.5 14.95 -95.05 12.6 -94.15 11.55 -93.9 10.8 -94.45 9.75 Q-98.65 7.4 -100.5 5.35 L-101.6 3.35 -102.55 -2.0 -102.55 -2.1 -107.2 -2.6 -108.5 -2.3 -117.65 4.85 -118.95 5.35 -121.5 4.9 -123.2 3.75 -124.45 2.05 Q-129.15 -5.35 -132.2 -11.95 -133.9 -15.6 -135.1 -19.0 L-134.5 -19.0 -134.4 -19.0 -134.2 -18.85 -132.65 -17.4 -131.6 -16.2 -129.2 -13.45 -129.15 -13.4 -126.9 -10.8 -126.1 -9.85 -125.8 -9.4 Q-122.75 -4.6 -120.65 -2.4 L-119.7 -1.45 -118.85 -1.15 -116.5 -1.05 Q-109.05 -6.85 -108.85 -6.45 L-103.3 -6.65 -102.65 -6.65 Q-103.35 -4.4 -102.1 -3.6 L-99.25 -2.4 -99.1 -2.3 M-103.3 -7.0 L-103.15 -7.85 -102.45 -7.65 -103.3 -7.0 M-112.75 -187.45 L-113.8 -188.5 -113.85 -188.6 -113.8 -188.95 -114.15 -189.25 -114.8 -189.95 -114.95 -190.15 -115.2 -190.45 -115.25 -190.3 -115.3 -190.05 -115.25 -190.3 -115.2 -190.45 -114.95 -190.15 -114.8 -189.95 -114.15 -189.25 -113.8 -188.95 -113.85 -188.6 -113.8 -188.5 -112.75 -187.45 M-112.25 -187.1 L-111.7 -186.7 -112.25 -187.1 M-114.95 -190.15 L-115.25 -190.3 -114.95 -190.15 M-114.65 -189.25 L-114.8 -189.95 -114.65 -189.25 M-113.85 -188.6 L-114.05 -188.95 -114.2 -189.1 -114.15 -189.25 -114.2 -189.1 -114.05 -188.95 -113.85 -188.6 M-86.1 -170.7 L-85.85 -170.7 -85.5 -170.6 -85.2 -170.5 -82.5 -169.85 -85.2 -170.5 -85.5 -170.6 -85.85 -170.7 -86.1 -170.7 M-129.15 -13.4 L-127.6 -11.05 -129.15 -13.4 M-126.95 -10.3 L-126.9 -10.8 -126.95 -10.3 M-129.15 -11.7 L-131.4 -12.95 -132.15 -12.85 -132.25 -12.3 -132.2 -11.95 -132.25 -12.3 -132.15 -12.85 -131.4 -12.95 -129.15 -11.7 M-132.65 -17.4 L-132.25 -16.9 -131.6 -16.2 -132.25 -16.9 -132.65 -17.4 M-134.2 -18.85 L-134.5 -19.0 -134.2 -18.85 M-102.45 -2.0 L-102.55 -2.1 -102.45 -2.0 -99.55 -2.1 -102.45 -2.0 -102.55 -2.0 -102.45 -2.0 M-105.95 24.3 L-105.4 23.05 -105.95 24.3 M-108.6 21.65 L-106.55 19.85 -108.6 21.65" fill="#fa410f" fill-rule="evenodd" stroke="none"/>
    <path d="M-85.2 -185.2 Q-82.7 -187.0 -84.2 -183.8 -86.2 -181.45 -85.9 -183.9 L-85.5 -184.9 -85.2 -185.2 M-86.55 -183.2 L-87.1 -180.5 -88.7 -180.7 -88.15 -182.0 -86.55 -183.2" fill="#000000" fill-rule="evenodd" stroke="none"/>
    <path d="M-83.8 -167.1 L-87.95 -163.6 Q-91.25 -160.15 -90.75 -159.4 L-91.35 -159.0 Q-100.1 -170.8 -108.85 -178.05 L-107.45 -178.3 -99.65 -175.4 -90.95 -171.15 -83.8 -167.1" fill="#fa420e" fill-rule="evenodd" stroke="none"/>
    <path d="M-82.95 -170.4 Q-76.95 -171.3 -71.4 -177.95 -69.45 -180.8 -71.65 -184.7 -77.7 -192.1 -85.2 -185.2 -82.7 -187.0 -84.2 -183.8 -86.2 -181.45 -85.9 -183.9 L-86.55 -183.2 -87.1 -180.5 -87.1 -177.95 Q-86.25 -171.75 -82.95 -170.4 L-82.5 -169.85 Q-79.05 -169.7 -78.9 -169.0 L-79.3 -168.25 -83.8 -167.1 -87.95 -163.6 Q-91.25 -160.15 -90.75 -159.4 L-91.35 -159.0 Q-89.5 -128.75 -111.25 -103.15 L-117.25 -94.65 -122.75 -84.75 Q-130.3 -69.9 -129.05 -47.15 -124.45 -30.4 -105.95 -12.1 L-101.6 -8.35 -100.7 -9.2 -100.75 -9.25 -101.25 -9.65 M-71.65 -184.7 Q-57.8 -177.65 -62.25 -154.85 L-63.95 -149.8 -66.65 -145.25 -69.65 -141.95 -71.2 -140.65 -78.9 -136.2 -80.3 -134.85 Q-81.75 -133.35 -83.8 -128.85 L-84.55 -125.75 -84.65 -120.35 -84.0 -115.45 -83.05 -112.9 -78.9 -105.85 -65.45 -79.45 -61.2 -69.3 -57.15 -56.45 Q-51.55 -40.7 -56.5 -1.05 L-51.85 -1.45 -49.25 0.15 Q-37.25 10.2 -39.25 13.65 -39.15 16.2 -41.95 16.8 -43.55 17.1 -46.05 16.85 -57.35 12.25 -58.85 4.3 L-66.95 7.5 -72.5 7.7 Q-77.3 7.4 -92.85 -2.4 L-94.35 -3.15 Q-93.1 2.25 -93.8 3.0 L-94.35 3.0 Q-96.85 -1.15 -99.1 -2.3 L-99.55 -2.1 -98.9 1.85 -98.25 2.9 Q-87.35 8.8 -89.85 13.25 L-91.15 16.0 -92.3 17.4 -97.95 21.05 -104.25 26.0 Q-106.35 27.65 -106.9 27.0 L-105.95 24.3 -106.05 24.3 -110.55 25.8 -112.1 26.0 -112.45 25.8 -111.9 24.65 -108.6 21.65 -109.75 21.45 -109.35 20.4 -105.5 17.85 -98.5 14.95 -95.05 12.6 -94.15 11.55 -93.9 10.8 -94.45 9.75 Q-98.65 7.4 -100.5 5.35 L-101.6 3.35 -102.55 -2.0 -102.55 -2.1 -107.2 -2.6 -108.5 -2.3 -117.65 4.85 -118.95 5.35 -121.5 4.9 -123.2 3.75 -124.45 2.05 Q-129.15 -5.35 -132.2 -11.95 -133.9 -15.6 -135.1 -19.0 L-134.5 -19.0 -134.4 -19.0 -134.2 -18.85 -132.65 -17.4 -131.6 -16.2 -129.2 -13.45 -129.15 -13.4 -126.9 -10.8 -126.1 -9.85 -125.8 -9.4 Q-122.75 -4.6 -120.65 -2.4 L-119.7 -1.45 -118.85 -1.15 -116.5 -1.05 Q-109.05 -6.85 -108.85 -6.45 L-103.3 -6.65 -103.3 -7.0 -103.15 -7.85 -105.85 -9.2 -106.15 -10.3 -106.8 -10.85 -106.55 -11.55 -105.95 -12.1 M-68.45 -167.0 Q-64.05 -163.75 -66.65 -156.0 -69.6 -150.25 -75.7 -150.45 -80.75 -151.8 -81.85 -156.0 -83.65 -163.75 -79.65 -167.0 -73.3 -171.45 -68.45 -167.0 M-85.9 -183.9 L-85.5 -184.9 -85.2 -185.2 M-87.1 -180.5 L-88.7 -180.7 Q-93.75 -181.65 -95.6 -182.75 L-115.3 -192.2 -116.5 -192.35 -116.95 -192.35 -116.95 -192.0 -116.5 -191.45 -116.1 -191.05 -115.8 -190.6 -115.65 -190.45 -115.3 -190.05 -115.25 -190.3 -115.2 -190.45 -114.95 -190.15 -114.8 -189.95 -114.15 -189.25 -113.8 -188.95 -113.85 -188.6 -113.8 -188.5 -112.75 -187.45 M-88.7 -180.7 L-88.15 -182.0 -86.55 -183.2 M-99.65 -175.4 Q-105.35 -179.4 -110.05 -183.75 L-110.1 -183.85 -110.2 -183.9 -113.25 -187.6 -113.35 -187.7 -114.6 -189.15 -114.65 -189.2 -114.85 -189.45 -115.3 -190.05 M-114.65 -189.25 L-114.65 -189.2 M-114.6 -189.15 L-114.65 -189.25 -114.85 -189.45 M-114.15 -189.25 L-114.2 -189.1 -114.05 -188.95 -113.85 -188.6 M-114.8 -189.95 L-114.65 -189.25 M-115.25 -190.3 L-114.95 -190.15 M-111.7 -186.7 L-112.25 -187.1 M-91.35 -159.0 Q-100.1 -170.8 -108.85 -178.05 L-107.45 -178.3 -99.65 -175.4 -90.95 -171.15 -83.8 -167.1 M-82.5 -169.85 L-85.2 -170.5 -85.5 -170.6 -85.85 -170.7 -86.1 -170.7 M-122.75 -84.75 Q-135.85 -82.4 -140.55 -85.3 -143.35 -86.6 -142.3 -89.1 -133.95 -93.5 -135.1 -94.45 -149.95 -96.4 -151.95 -100.4 L-152.95 -102.95 -152.95 -104.65 -152.4 -106.05 -151.5 -107.0 -150.45 -107.55 -145.15 -108.4 -144.4 -109.35 Q-159.65 -118.65 -158.7 -121.5 -159.35 -124.55 -153.55 -125.25 L-149.1 -124.8 -145.15 -123.1 Q-137.6 -119.0 -127.45 -111.8 L-111.25 -103.15 M-85.4 -93.7 L-84.65 -92.3 -82.5 -90.2 Q-78.8 -86.75 -77.6 -84.75 L-74.95 -79.25 -73.55 -74.1 -73.35 -68.25 -73.45 -66.0 -74.2 -62.4 -74.3 -61.2 -75.8 -57.3 Q-79.4 -48.0 -90.8 -48.55 -112.9 -51.25 -105.95 -57.3 -101.2 -61.15 -90.4 -61.0 L-90.45 -61.05 Q-99.3 -67.25 -95.6 -68.25 L-93.9 -68.45 -88.6 -67.85 -89.25 -68.25 -90.15 -69.5 -90.6 -71.55 -90.3 -71.55 -89.25 -70.3 -88.7 -73.75 Q-89.1 -76.65 -90.4 -79.25 L-93.15 -85.7 M-88.45 -69.5 L-88.9 -69.45 -88.45 -68.15 -88.45 -67.7 -87.3 -67.8 -86.7 -68.25 -85.9 -68.55 -85.5 -69.2 M-89.25 -70.3 L-89.3 -69.5 -89.1 -69.45 -88.9 -69.45 M-89.1 -69.45 L-89.3 -69.2 M-88.6 -67.85 L-88.45 -67.7 M-89.3 -61.55 L-90.45 -61.05 M-134.5 -19.0 L-134.2 -18.85 M-131.6 -16.2 L-132.25 -16.9 -132.65 -17.4 M-132.2 -11.95 L-132.25 -12.3 -132.15 -12.85 -131.4 -12.95 -129.15 -11.7 M-126.9 -10.8 L-126.95 -10.3 M-127.6 -11.05 L-129.15 -13.4 M-106.15 -10.95 L-106.15 -10.3 M-101.6 -8.35 L-101.65 -8.35 -102.45 -7.65 -103.3 -7.0 M-102.45 -7.65 L-103.15 -7.85 M-99.1 -2.3 L-99.25 -2.4 -102.1 -3.6 Q-103.35 -4.4 -102.65 -6.65 L-103.3 -6.65 M-99.55 -2.1 L-102.45 -2.0 -102.55 -2.0 M-102.55 -2.1 L-102.45 -2.0 M-94.35 -5.3 L-94.55 -5.2 -94.35 -3.15 M-49.4 0.65 L-44.15 5.15 -41.4 8.55 Q-38.8 13.6 -41.95 16.8 M-53.3 12.4 L-53.75 12.1 M-58.2 4.4 L-58.85 4.3 M-106.55 19.85 L-108.6 21.65 M-105.4 23.05 L-105.95 24.3 M-56.5 -1.05 L-56.75 0.35" fill="none" stroke="#000000" stroke-linecap="round" stroke-linejoin="round" stroke-width="0.05"/>
  </g>
</svg>
