<?xml version="1.0" encoding="UTF-8" standalone="no"?>
<svg xmlns:xlink="http://www.w3.org/1999/xlink" height="205.2px" width="105.85px" xmlns="http://www.w3.org/2000/svg">
  <g transform="matrix(1.0, 0.0, 0.0, 1.0, 151.1, 199.85)">
    <path d="M-79.5 -178.5 Q-80.5 -178.7 -86.1 -191.3 L-92.3 -199.8 Q-89.5 -200.1 -88.6 -199.15 L-83.5 -196.05 -83.35 -195.95 -74.75 -188.95 -70.5 -184.45 -75.25 -182.2 Q-78.7 -180.05 -79.5 -178.5" fill="#fa420e" fill-rule="evenodd" stroke="none"/>
    <path d="M-70.5 -184.45 L-74.75 -188.95 -83.35 -195.95 -83.5 -196.05 -83.35 -196.05 -85.7 -199.65 -85.5 -199.8 -80.8 -199.8 -73.75 -199.8 -71.15 -198.3 -70.25 -197.9 Q-71.4 -195.75 -71.0 -191.5 L-70.15 -188.95 -69.0 -187.3 -68.8 -187.25 -70.35 -187.75 -73.55 -190.45 -70.35 -187.75 -68.8 -187.25 Q-61.1 -183.9 -70.5 -184.45 M-102.45 -26.4 L-105.3 -25.55 -106.5 -21.6 -106.15 -20.2 -105.1 -19.45 -99.9 -17.3 -97.75 -15.55 -97.1 -13.6 -97.4 -11.05 -98.7 -9.0 -100.95 -7.45 -115.1 -3.45 -115.95 -3.6 -116.15 -3.9 -115.3 -5.4 -118.3 -5.2 -120.65 -5.3 -121.4 -5.6 -121.25 -6.35 -118.5 -7.85 -118.55 -7.95 -118.65 -8.5 -118.2 -9.0 Q-118.0 -9.6 -112.65 -10.95 L-105.95 -11.7 -102.65 -12.75 -100.95 -13.85 Q-111.85 -17.15 -108.5 -25.1 -124.25 -22.55 -123.55 -21.3 L-125.9 -21.35 Q-128.6 -22.8 -128.95 -23.7 L-134.4 -34.5 -134.5 -34.55 -136.75 -39.35 -136.85 -39.55 -139.5 -45.25 Q-140.4 -48.05 -138.9 -46.9 L-138.65 -46.65 -138.25 -46.3 -138.1 -46.1 -137.9 -45.85 -137.55 -45.45 -137.4 -45.25 -137.05 -44.8 -136.95 -44.7 -134.95 -42.1 -134.75 -41.9 -130.9 -36.9 -130.8 -36.75 -130.35 -36.15 -130.15 -35.85 -129.95 -35.6 Q-127.1 -31.6 -126.5 -30.1 L-124.4 -27.9 Q-120.4 -26.15 -120.0 -26.7 L-107.75 -29.7 -107.45 -31.1 -107.45 -30.65 -106.8 -30.0 -106.75 -29.95 Q-106.25 -28.55 -102.25 -26.5 L-102.45 -26.4 M-107.35 -31.15 L-107.2 -31.8 -107.0 -31.7 -107.35 -31.15 M-80.5 -199.4 L-80.8 -199.8 -80.5 -199.4 M-74.1 -190.95 L-74.4 -191.35 -74.1 -190.95 M-83.35 -195.95 L-83.35 -196.05 -83.35 -195.95 M-130.35 -36.15 L-130.8 -36.25 -130.85 -36.35 -130.8 -36.75 -130.85 -36.35 -130.8 -36.25 -130.35 -36.15 M-131.9 -37.85 L-132.0 -37.95 -131.7 -37.6 -131.4 -37.3 -131.1 -36.95 -130.9 -36.9 -131.1 -36.95 -131.4 -37.3 -131.7 -37.6 -132.0 -37.95 -132.15 -38.1 -132.15 -38.15 -132.35 -38.25 -132.5 -38.45 -132.7 -38.75 -132.95 -38.95 -132.7 -38.75 -132.5 -38.45 -132.35 -38.25 -132.15 -38.15 -132.15 -38.1 -132.0 -37.95 -131.9 -37.85 -132.15 -38.1 -131.9 -37.85 -131.7 -37.6 -131.9 -37.85 M-132.7 -38.75 L-132.55 -38.6 -132.5 -38.45 -132.55 -38.6 -132.7 -38.75 M-136.85 -39.55 L-136.85 -39.6 -137.05 -40.95 -136.3 -41.3 -133.65 -39.25 -136.3 -41.3 -137.05 -40.95 -136.85 -39.6 -136.75 -39.35 -136.85 -39.6 -136.85 -39.55 M-107.75 -29.7 L-106.8 -30.0 -107.75 -29.7 M-115.3 -5.4 L-114.15 -7.0 -115.3 -5.4 M-118.55 -7.95 L-115.1 -9.45 -118.55 -7.95 M-108.5 -25.1 L-105.3 -25.55 -108.5 -25.1" fill="#fa410f" fill-rule="evenodd" stroke="none"/>
    <path d="M-71.15 -198.3 L-69.95 -198.95 -70.25 -197.9 -71.15 -198.3 M-69.0 -199.8 L-68.45 -199.8 -67.8 -199.8 -68.45 -199.3 -68.65 -199.15 -69.0 -199.8 M-68.45 -199.3 L-68.45 -199.8 -68.45 -199.3" fill="#000000" fill-rule="evenodd" stroke="none"/>
    <path d="M-69.95 -198.95 L-69.4 -199.8 -69.0 -199.8 -68.65 -199.15 -68.45 -199.3 -67.8 -199.8 -55.0 -199.8 -54.7 -198.3 Q-52.6 -192.35 -60.7 -188.95 L-65.35 -187.3 -66.95 -187.1 -69.0 -187.3 -70.15 -188.95 -71.0 -191.5 Q-71.4 -195.75 -70.25 -197.9 L-69.95 -198.95 M-60.45 -185.1 Q-52.85 -183.15 -53.1 -177.95 -52.6 -170.45 -59.7 -167.0 -63.45 -165.7 -65.45 -167.0 -70.95 -168.95 -69.4 -177.95 -65.6 -186.15 -60.45 -185.1" fill="#ff7a16" fill-rule="evenodd" stroke="none"/>
    <path d="M-79.5 -178.5 Q-78.7 -180.05 -75.25 -182.2 L-70.5 -184.45 Q-61.1 -183.9 -68.8 -187.25 L-69.0 -187.3 -66.95 -187.1 -65.35 -187.3 -60.7 -188.95 Q-52.6 -192.35 -54.7 -198.3 -45.25 -186.65 -51.95 -165.4 L-54.4 -160.9 -58.0 -156.85 -62.6 -154.3 Q-74.15 -152.5 -74.0 -151.1 -76.3 -149.3 -77.5 -147.2 L-78.65 -144.05 -79.3 -139.95 -79.45 -135.7 -78.6 -132.25 -74.0 -123.0 Q-71.55 -115.9 -63.1 -96.8 L-59.5 -86.15 Q-57.55 -80.0 -55.8 -69.95 L-54.5 -58.0 Q-54.2 -47.35 -54.7 -44.1 L-55.45 -38.4 Q-59.85 -19.75 -59.5 -18.3 -53.3 -17.95 -49.7 -10.5 -44.1 -2.7 -45.55 2.3 -47.75 8.1 -52.7 2.9 L-60.05 -5.3 -61.2 -7.1 -61.85 -8.7 Q-62.45 -13.4 -62.75 -14.0 L-62.9 -14.05 -72.05 -12.85 -76.45 -13.4 Q-81.2 -13.95 -97.65 -26.4 -96.75 -16.35 -101.15 -25.2 L-101.15 -25.35 -101.3 -25.45 -101.45 -25.55 -102.45 -26.4 -102.25 -26.5 Q-106.25 -28.55 -106.75 -29.95 L-106.5 -30.45 -106.5 -31.15 -106.5 -30.45 -106.75 -29.95 -106.8 -30.0 -107.45 -30.65 -107.45 -31.1 -107.35 -31.15 -107.0 -31.7 -105.55 -32.75 -105.5 -32.8 -104.15 -33.7 -105.5 -32.8 -105.55 -32.75 -107.0 -31.7 -107.2 -31.8 -109.85 -33.7 Q-111.25 -35.3 -108.9 -36.3 -127.2 -57.65 -130.8 -75.05 -131.8 -100.4 -116.8 -118.95 L-129.6 -122.25 Q-132.65 -123.1 -135.05 -125.35 L-135.55 -126.5 -135.55 -127.6 -135.05 -128.65 Q-126.8 -132.65 -128.5 -133.0 -129.25 -133.7 -137.4 -135.15 L-141.75 -136.75 -143.35 -138.1 -144.0 -139.1 -144.3 -140.45 -143.85 -142.5 -142.35 -144.0 -136.1 -146.0 -135.25 -146.75 -135.35 -146.95 Q-152.25 -154.4 -151.0 -157.3 -151.05 -161.85 -142.35 -161.05 L-135.9 -159.4 -128.1 -156.0 Q-123.75 -155.5 -105.3 -131.1 -84.35 -150.2 -79.5 -178.5 M-60.45 -185.1 Q-65.6 -186.15 -69.4 -177.95 -70.95 -168.95 -65.45 -167.0 -63.45 -165.7 -59.7 -167.0 -52.6 -170.45 -53.1 -177.95 -52.85 -183.15 -60.45 -185.1 M-116.8 -118.95 L-105.3 -131.1 -116.8 -118.95 M-83.5 -115.55 L-83.8 -116.5 -83.5 -115.55 M-89.1 -118.65 L-90.15 -117.85 -91.25 -116.3 -95.9 -112.1 -98.9 -108.85 -99.8 -106.95 -97.75 -108.2 -99.8 -106.95 -99.9 -106.7 -102.3 -105.1 -104.25 -104.35 -105.1 -103.7 -105.4 -102.55 -103.8 -103.4 -102.75 -104.6 -103.8 -103.4 -105.4 -102.55 -105.1 -103.7 -104.25 -104.35 -102.3 -105.1 -99.9 -106.7 -99.8 -106.95 -98.9 -108.85 -95.9 -112.1 -91.25 -116.3 -90.15 -117.85 -89.1 -118.65 M-105.4 -102.55 L-108.2 -101.15 Q-129.55 -93.75 -109.35 -91.25 -102.55 -89.3 -88.45 -101.15 -83.75 -104.65 -83.05 -112.1 L-83.05 -114.65 -83.05 -112.1 Q-83.75 -104.65 -88.45 -101.15 -102.55 -89.3 -109.35 -91.25 -129.55 -93.75 -108.2 -101.15 L-105.4 -102.55 M-100.75 -24.9 L-101.15 -25.35 -100.75 -24.9 -99.25 -22.45 -100.75 -24.9 -101.15 -25.2 -100.75 -24.9 M-97.65 -26.4 L-97.95 -29.15 -97.65 -26.4 M-109.85 -33.7 L-109.7 -34.7 -109.85 -33.7 M-101.3 -25.45 L-101.55 -25.65 -102.25 -26.5 -101.55 -25.65 -101.3 -25.45 M-101.45 -25.55 L-101.55 -25.65 -101.45 -25.55 M-105.5 -32.8 L-108.9 -36.3 -105.5 -32.8 M-59.2 -5.1 L-56.75 -2.4 Q-49.9 7.65 -45.65 0.45 -49.9 7.65 -56.75 -2.4 L-59.2 -5.1 M-59.4 -17.95 L-59.5 -18.3 -59.4 -17.95 M-59.9 -17.3 L-59.7 -17.85 -59.9 -17.3 M-62.75 -14.0 L-62.25 -13.9 -62.75 -14.0" fill="#ffffff" fill-rule="evenodd" stroke="none"/>
    <path d="M-83.5 -196.05 L-88.6 -199.15 Q-89.5 -200.1 -92.3 -199.8 L-86.1 -191.3 Q-80.5 -178.7 -79.5 -178.5 -78.7 -180.05 -75.25 -182.2 L-70.5 -184.45 -74.75 -188.95 -83.35 -195.95 -83.5 -196.05 -83.35 -196.05 -85.7 -199.65 -85.5 -199.8 -80.8 -199.8 -73.75 -199.8 -71.15 -198.3 -69.95 -198.95 -69.4 -199.8 -69.0 -199.8 -68.45 -199.8 -67.8 -199.8 -55.0 -199.8 -54.7 -198.3 Q-45.25 -186.65 -51.95 -165.4 L-54.4 -160.9 -58.0 -156.85 -62.6 -154.3 Q-74.15 -152.5 -74.0 -151.1 -76.3 -149.3 -77.5 -147.2 L-78.65 -144.05 -79.3 -139.95 -79.45 -135.7 -78.6 -132.25 -74.0 -123.0 Q-71.55 -115.9 -63.1 -96.8 L-59.5 -86.15 Q-57.55 -80.0 -55.8 -69.95 L-54.5 -58.0 Q-54.2 -47.35 -54.7 -44.1 L-55.45 -38.4 Q-59.85 -19.75 -59.5 -18.3 -53.3 -17.95 -49.7 -10.5 -44.1 -2.7 -45.55 2.3 -47.75 8.1 -52.7 2.9 L-60.05 -5.3 -61.2 -7.1 -61.85 -8.7 Q-62.45 -13.4 -62.75 -14.0 L-62.9 -14.05 -72.05 -12.85 -76.45 -13.4 Q-81.2 -13.95 -97.65 -26.4 -96.75 -16.35 -101.15 -25.2 L-101.15 -25.35 -101.3 -25.45 -101.45 -25.55 -102.45 -26.4 -105.3 -25.55 -106.5 -21.6 -106.15 -20.2 -105.1 -19.45 -99.9 -17.3 -97.75 -15.55 -97.1 -13.6 -97.4 -11.05 -98.7 -9.0 -100.95 -7.45 -115.1 -3.45 -115.95 -3.6 -116.15 -3.9 -115.3 -5.4 -118.3 -5.2 -120.65 -5.3 -121.4 -5.6 -121.25 -6.35 -118.5 -7.85 -118.55 -7.95 -118.65 -8.5 -118.2 -9.0 Q-118.0 -9.6 -112.65 -10.95 L-105.95 -11.7 -102.65 -12.75 -100.95 -13.85 Q-111.85 -17.15 -108.5 -25.1 -124.25 -22.55 -123.55 -21.3 L-125.9 -21.35 Q-128.6 -22.8 -128.95 -23.7 L-134.4 -34.5 -134.5 -34.55 -136.75 -39.35 -136.85 -39.55 -139.5 -45.25 Q-140.4 -48.05 -138.9 -46.9 L-138.65 -46.65 -138.25 -46.3 -138.1 -46.1 -137.9 -45.85 -137.55 -45.45 -137.4 -45.25 -137.05 -44.8 -136.95 -44.7 -134.95 -42.1 -134.75 -41.9 -130.9 -36.9 -130.8 -36.75 -130.35 -36.15 -130.15 -35.85 -129.95 -35.6 Q-127.1 -31.6 -126.5 -30.1 L-124.4 -27.9 Q-120.4 -26.15 -120.0 -26.7 L-107.75 -29.7 -107.45 -31.1 -107.35 -31.15 -107.2 -31.8 -109.85 -33.7 Q-111.25 -35.3 -108.9 -36.3 -127.2 -57.65 -130.8 -75.05 -131.8 -100.4 -116.8 -118.95 L-129.6 -122.25 Q-132.65 -123.1 -135.05 -125.35 L-135.55 -126.5 -135.55 -127.6 -135.05 -128.65 Q-126.8 -132.65 -128.5 -133.0 -129.25 -133.7 -137.4 -135.15 L-141.75 -136.75 -143.35 -138.1 -144.0 -139.1 -144.3 -140.45 -143.85 -142.5 -142.35 -144.0 -136.1 -146.0 -135.25 -146.75 -135.35 -146.95 Q-152.25 -154.4 -151.0 -157.3 -151.05 -161.85 -142.35 -161.05 L-135.9 -159.4 -128.1 -156.0 Q-123.75 -155.5 -105.3 -131.1 -84.35 -150.2 -79.5 -178.5 M-80.8 -199.8 L-80.5 -199.4 M-68.45 -199.8 L-68.45 -199.3 -67.8 -199.8 M-68.45 -199.3 L-68.65 -199.15 -69.0 -199.8 M-60.45 -185.1 Q-65.6 -186.15 -69.4 -177.95 -70.95 -168.95 -65.45 -167.0 -63.45 -165.7 -59.7 -167.0 -52.6 -170.45 -53.1 -177.95 -52.85 -183.15 -60.45 -185.1 M-68.8 -187.25 L-69.0 -187.3 -70.15 -188.95 -71.0 -191.5 Q-71.4 -195.75 -70.25 -197.9 L-71.15 -198.3 M-69.0 -187.3 L-66.95 -187.1 -65.35 -187.3 -60.7 -188.95 Q-52.6 -192.35 -54.7 -198.3 M-68.8 -187.25 L-70.35 -187.75 -73.55 -190.45 M-74.4 -191.35 L-74.1 -190.95 M-70.5 -184.45 Q-61.1 -183.9 -68.8 -187.25 M-83.35 -196.05 L-83.35 -195.95 M-97.75 -108.2 L-99.8 -106.95 -99.9 -106.7 -102.3 -105.1 -104.25 -104.35 -105.1 -103.7 -105.4 -102.55 -103.8 -103.4 -102.75 -104.6 M-83.05 -114.65 L-83.05 -112.1 Q-83.75 -104.65 -88.45 -101.15 -102.55 -89.3 -109.35 -91.25 -129.55 -93.75 -108.2 -101.15 L-105.4 -102.55 M-99.8 -106.95 L-98.9 -108.85 -95.9 -112.1 -91.25 -116.3 -90.15 -117.85 -89.1 -118.65 M-83.8 -116.5 L-83.5 -115.55 M-105.3 -131.1 L-116.8 -118.95 M-133.65 -39.25 L-136.3 -41.3 -137.05 -40.95 -136.85 -39.6 -136.75 -39.35 M-136.85 -39.6 L-136.85 -39.55 M-130.9 -36.9 L-131.1 -36.95 -131.4 -37.3 -131.7 -37.6 -132.0 -37.95 -132.15 -38.1 -132.15 -38.15 -132.35 -38.25 -132.5 -38.45 -132.7 -38.75 -132.95 -38.95 M-132.5 -38.45 L-132.55 -38.6 -132.7 -38.75 M-132.15 -38.1 L-131.9 -37.85 -131.7 -37.6 M-132.0 -37.95 L-131.9 -37.85 M-130.8 -36.75 L-130.85 -36.35 -130.8 -36.25 -130.35 -36.15 M-99.25 -22.45 L-100.75 -24.9 -101.15 -25.2 M-97.95 -29.15 L-97.65 -26.4 M-101.15 -25.35 L-100.75 -24.9 M-104.15 -33.7 L-105.5 -32.8 -105.55 -32.75 -107.0 -31.7 -107.35 -31.15 M-109.7 -34.7 L-109.85 -33.7 M-107.0 -31.7 L-107.2 -31.8 M-106.5 -31.15 L-106.5 -30.45 -106.75 -29.95 Q-106.25 -28.55 -102.25 -26.5 L-101.55 -25.65 -101.3 -25.45 M-106.75 -29.95 L-106.8 -30.0 -107.75 -29.7 M-106.8 -30.0 L-107.45 -30.65 -107.45 -31.1 M-101.55 -25.65 L-101.45 -25.55 M-102.45 -26.4 L-102.25 -26.5 M-108.9 -36.3 L-105.5 -32.8 M-105.3 -25.55 L-108.5 -25.1 M-115.1 -9.45 L-118.55 -7.95 M-114.15 -7.0 L-115.3 -5.4 M-62.25 -13.9 L-62.75 -14.0 M-59.7 -17.85 L-59.9 -17.3 M-59.5 -18.3 L-59.4 -17.95 M-45.65 0.45 Q-49.9 7.65 -56.75 -2.4 L-59.2 -5.1 M-69.95 -198.95 L-70.25 -197.9" fill="none" stroke="#000000" stroke-linecap="round" stroke-linejoin="round" stroke-width="0.05"/>
  </g>
</svg>
