<?xml version="1.0" encoding="UTF-8" standalone="no"?>
<svg xmlns:xlink="http://www.w3.org/1999/xlink" height="199.4px" width="102.75px" xmlns="http://www.w3.org/2000/svg">
  <g transform="matrix(1.0, 0.0, 0.0, 1.0, 143.6, 199.8)">
    <path d="M-71.15 -184.75 Q-71.6 -184.25 -75.7 -196.9 L-77.3 -199.8 -70.35 -199.8 -65.35 -194.75 -61.4 -189.15 -67.15 -187.45 Q-69.7 -186.45 -71.15 -184.75" fill="#fa420e" fill-rule="evenodd" stroke="none"/>
    <path d="M-61.4 -189.15 L-65.35 -194.75 -70.35 -199.8 -66.25 -199.8 -66.1 -199.8 -60.55 -199.8 Q-62.1 -195.25 -59.7 -191.7 L-59.6 -191.6 -56.65 -189.45 -58.0 -188.6 -61.4 -189.15 M-105.95 -39.9 L-111.9 -39.25 -114.35 -37.35 -114.25 -36.9 -107.35 -34.05 Q-105.2 -32.4 -105.2 -31.4 -105.2 -27.35 -108.7 -26.7 L-110.6 -26.6 -112.1 -26.9 -124.05 -30.55 -124.7 -31.1 -124.6 -31.8 -128.65 -33.65 -129.7 -34.8 -128.65 -35.35 -125.9 -35.35 -123.95 -35.35 -119.75 -34.7 -119.35 -34.55 Q-116.75 -33.9 -114.35 -32.65 L-110.0 -32.15 Q-117.45 -34.2 -115.95 -38.75 L-123.75 -37.9 -127.15 -36.4 -128.85 -36.4 -130.2 -36.9 Q-132.95 -38.75 -133.35 -40.1 L-138.25 -49.4 -138.55 -49.9 -138.55 -50.05 -138.65 -50.15 -139.0 -50.9 -139.8 -52.7 -139.95 -52.8 -139.95 -52.9 -140.0 -53.0 -140.0 -53.1 -140.15 -53.25 -140.15 -53.3 -140.25 -53.45 -140.45 -53.85 Q-145.9 -65.65 -141.85 -61.0 L-141.65 -60.8 -141.25 -60.3 -138.95 -57.3 -136.4 -54.05 -136.25 -53.8 -135.95 -53.4 -135.25 -52.45 -134.0 -50.85 Q-131.25 -47.2 -130.2 -45.35 L-127.8 -42.9 Q-123.35 -41.05 -123.1 -41.6 L-112.55 -43.45 -110.85 -45.65 -110.0 -45.25 -110.2 -44.7 -109.55 -44.1 -109.5 -44.05 -108.5 -42.8 -105.0 -40.35 -105.65 -40.05 -105.95 -39.9 M-65.9 -199.4 L-66.15 -199.65 -66.25 -199.6 -66.25 -199.8 -66.25 -199.6 -66.15 -199.65 -66.1 -199.8 -66.15 -199.65 -65.9 -199.4 M-64.3 -196.6 L-64.2 -196.25 -63.95 -195.95 -63.35 -195.35 -62.4 -193.85 -59.7 -191.7 -62.4 -193.85 -63.35 -195.35 -63.95 -195.95 -64.2 -196.25 -64.3 -196.6 M-64.5 -196.8 L-64.6 -197.1 -64.5 -196.8 M-124.6 -31.8 L-122.45 -32.85 -124.6 -31.8 M-140.45 -53.85 Q-141.9 -59.0 -137.4 -54.3 -141.9 -59.0 -140.45 -53.85 M-135.9 -52.9 L-135.8 -52.6 -135.45 -52.3 -134.0 -50.85 -135.45 -52.3 -135.8 -52.6 -135.9 -52.9 -135.95 -53.4 -135.9 -52.9 -135.25 -52.45 -135.9 -52.9 M-138.25 -49.4 L-138.45 -49.9 -138.55 -49.9 -138.45 -49.9 -138.25 -49.4 M-138.55 -50.05 L-139.0 -50.9 -138.55 -50.05 M-136.85 -53.55 L-137.05 -53.9 -136.85 -53.55 M-125.9 -35.35 L-121.05 -34.7 -125.9 -35.35 M-109.55 -44.1 L-112.55 -43.45 -109.55 -44.1 M-110.0 -32.15 L-108.2 -31.5 -107.85 -31.1 -108.2 -31.5 -110.0 -32.15 M-115.95 -38.75 L-111.9 -39.25 -115.95 -38.75" fill="#fa410f" fill-rule="evenodd" stroke="none"/>
    <path d="M-60.55 -199.8 L-44.6 -199.8 -44.6 -198.95 -45.35 -195.2 -46.2 -193.9 -47.25 -193.2 Q-54.1 -190.4 -59.6 -191.6 L-59.7 -191.7 Q-62.1 -195.25 -60.55 -199.8 M-58.0 -188.6 L-56.65 -189.45 Q-52.5 -191.45 -48.75 -188.95 -43.95 -185.05 -46.85 -177.95 -49.05 -172.75 -53.95 -173.05 -57.35 -173.8 -59.6 -177.95 -64.3 -183.7 -58.0 -188.6" fill="#ff7a16" fill-rule="evenodd" stroke="none"/>
    <path d="M-71.15 -184.75 Q-69.7 -186.45 -67.15 -187.45 L-61.4 -189.15 -58.0 -188.6 Q-64.3 -183.7 -59.6 -177.95 -57.35 -173.8 -53.95 -173.05 -49.05 -172.75 -46.85 -177.95 -43.95 -185.05 -48.75 -188.95 -52.5 -191.45 -56.65 -189.45 L-59.6 -191.6 Q-54.1 -190.4 -47.25 -193.2 L-46.2 -193.9 -45.35 -195.2 -44.6 -198.95 Q-36.7 -186.9 -45.45 -166.35 -49.45 -160.0 -54.1 -158.7 -56.55 -157.4 -66.65 -157.9 L-70.05 -156.45 Q-73.55 -153.6 -73.25 -153.25 L-74.4 -150.4 -75.45 -144.4 -75.05 -140.6 -71.0 -131.3 Q-69.1 -124.6 -61.65 -105.1 L-58.15 -93.05 -55.8 -81.45 Q-53.2 -62.3 -55.0 -51.6 L-57.15 -42.6 Q-62.45 -28.6 -61.95 -27.1 -61.4 -26.25 -57.9 -24.25 L-55.55 -21.3 Q-50.2 -8.5 -51.85 -5.95 L-52.25 -4.65 -53.25 -3.8 -53.25 -3.65 -53.75 -1.9 -54.8 -0.7 -57.15 -0.4 -58.35 -0.9 -60.35 -3.4 -62.6 -8.8 Q-64.5 -10.0 -65.25 -12.85 L-66.2 -17.1 -66.3 -17.65 Q-65.8 -21.0 -66.2 -23.9 L-66.25 -24.05 -75.45 -24.5 -79.2 -25.35 Q-85.05 -27.2 -95.3 -35.35 L-100.4 -39.25 -100.4 -39.2 Q-100.2 -33.7 -101.25 -34.7 L-102.15 -35.65 -102.75 -36.3 -104.15 -38.75 -104.65 -38.55 -105.55 -39.5 -105.95 -39.9 -105.65 -40.05 -105.0 -40.35 -108.5 -42.8 -109.5 -44.05 -109.55 -44.1 -110.2 -44.7 -110.0 -45.25 -110.85 -45.65 Q-115.2 -48.35 -111.2 -49.7 -123.3 -63.25 -131.3 -86.25 -135.05 -92.95 -125.95 -118.0 L-126.1 -118.0 Q-136.75 -110.3 -133.75 -118.5 -125.3 -134.0 -113.2 -141.3 -124.9 -147.35 -123.4 -148.45 L-123.1 -150.05 -121.85 -151.3 -116.8 -153.35 -116.15 -154.1 Q-129.75 -156.95 -130.0 -159.55 L-130.2 -160.8 -129.9 -161.95 -128.3 -163.45 -121.6 -165.6 -121.0 -166.25 Q-134.85 -170.75 -136.75 -176.45 -137.35 -181.3 -121.5 -177.95 -111.25 -175.15 -107.55 -170.0 -101.55 -163.15 -97.0 -147.05 -78.65 -161.7 -71.15 -184.75 M-125.95 -118.0 L-119.1 -124.2 -118.5 -124.7 -115.45 -126.5 -118.5 -124.7 -119.1 -124.2 -119.5 -123.1 Q-121.4 -115.9 -113.95 -123.1 L-110.65 -126.55 -113.95 -123.1 Q-121.4 -115.9 -119.5 -123.1 L-119.1 -124.2 -125.95 -118.0 M-100.75 -144.05 Q-105.6 -144.65 -113.2 -141.3 -105.6 -144.65 -100.75 -144.05 L-97.0 -147.05 -100.75 -144.05 Q-91.15 -144.2 -85.85 -134.05 L-83.8 -131.85 -81.65 -130.8 -83.8 -131.85 -85.85 -134.05 Q-91.15 -144.2 -100.75 -144.05 M-90.4 -122.45 L-91.25 -123.1 -94.2 -124.45 -98.4 -125.55 -102.85 -125.65 -109.7 -123.4 -110.6 -124.45 -110.65 -126.55 -110.6 -126.6 -107.65 -127.9 -110.6 -126.6 -110.65 -126.55 -110.6 -124.45 -109.7 -123.4 -102.85 -125.65 -98.4 -125.55 -94.2 -124.45 -91.25 -123.1 -90.4 -122.45 M-121.0 -166.25 L-120.65 -166.55 -121.0 -166.25 M-106.7 -47.55 L-108.4 -46.5 -108.6 -46.85 -111.2 -49.7 -108.6 -46.85 -108.4 -46.5 -106.7 -47.55 M-100.75 -42.45 L-100.5 -39.45 -100.4 -39.2 -100.5 -39.45 -100.75 -42.45 M-109.35 -45.0 L-109.5 -44.05 -109.35 -45.0 M-104.15 -38.75 L-104.85 -40.1 -105.0 -40.35 -104.85 -40.1 -103.3 -38.2 -102.15 -35.65 -103.3 -38.2 -104.85 -40.1 -104.15 -38.75 M-110.0 -45.25 L-108.85 -46.3 -108.4 -46.5 -108.85 -46.3 -110.0 -45.25 M-112.35 -47.15 L-112.35 -48.35 -112.35 -47.15 M-105.55 -39.5 L-105.65 -40.05 -105.55 -39.5 M-62.6 -8.8 L-66.2 -17.1 -62.6 -8.8 M-66.2 -23.9 L-65.45 -23.7 -66.2 -23.9 M-64.2 -14.75 L-63.35 -13.4 Q-58.4 -0.65 -53.25 -3.65 -58.4 -0.65 -63.35 -13.4 L-64.2 -14.75" fill="#ffffff" fill-rule="evenodd" stroke="none"/>
    <path d="M-70.35 -199.8 L-77.3 -199.8 -75.7 -196.9 Q-71.6 -184.25 -71.15 -184.75 -69.7 -186.45 -67.15 -187.45 L-61.4 -189.15 -65.35 -194.75 -70.35 -199.8 -66.25 -199.8 -66.1 -199.8 -60.55 -199.8 -44.6 -199.8 -44.6 -198.95 Q-36.7 -186.9 -45.45 -166.35 -49.45 -160.0 -54.1 -158.7 -56.55 -157.4 -66.65 -157.9 L-70.05 -156.45 Q-73.55 -153.6 -73.25 -153.25 L-74.4 -150.4 -75.45 -144.4 -75.05 -140.6 -71.0 -131.3 Q-69.1 -124.6 -61.65 -105.1 L-58.15 -93.05 -55.8 -81.45 Q-53.2 -62.3 -55.0 -51.6 L-57.15 -42.6 Q-62.45 -28.6 -61.95 -27.1 -61.4 -26.25 -57.9 -24.25 L-55.55 -21.3 Q-50.2 -8.5 -51.85 -5.95 L-52.25 -4.65 -53.25 -3.8 -53.25 -3.65 -53.75 -1.9 -54.8 -0.7 -57.15 -0.4 -58.35 -0.9 -60.35 -3.4 -62.6 -8.8 Q-64.5 -10.0 -65.25 -12.85 L-66.2 -17.1 -66.3 -17.65 Q-65.8 -21.0 -66.2 -23.9 L-66.25 -24.05 -75.45 -24.5 -79.2 -25.35 Q-85.05 -27.2 -95.3 -35.35 L-100.4 -39.25 -100.4 -39.2 Q-100.2 -33.7 -101.25 -34.7 L-102.15 -35.65 -102.75 -36.3 -104.15 -38.75 -104.65 -38.55 -105.55 -39.5 -105.95 -39.9 -111.9 -39.25 -114.35 -37.35 -114.25 -36.9 -107.35 -34.05 Q-105.2 -32.4 -105.2 -31.4 -105.2 -27.35 -108.7 -26.7 L-110.6 -26.6 -112.1 -26.9 -124.05 -30.55 -124.7 -31.1 -124.6 -31.8 -128.65 -33.65 -129.7 -34.8 -128.65 -35.35 -125.9 -35.35 -123.95 -35.35 -119.75 -34.7 -119.35 -34.55 Q-116.75 -33.9 -114.35 -32.65 L-110.0 -32.15 Q-117.45 -34.2 -115.95 -38.75 L-123.75 -37.9 -127.15 -36.4 -128.85 -36.4 -130.2 -36.9 Q-132.95 -38.75 -133.35 -40.1 L-138.25 -49.4 -138.55 -49.9 -138.55 -50.05 -138.65 -50.15 -139.0 -50.9 -139.8 -52.7 -139.95 -52.8 -139.95 -52.9 -140.0 -53.0 -140.0 -53.1 -140.15 -53.25 -140.15 -53.3 -140.25 -53.45 -140.45 -53.85 Q-145.9 -65.65 -141.85 -61.0 L-141.65 -60.8 -141.25 -60.3 -138.95 -57.3 -136.4 -54.05 -136.25 -53.8 -135.95 -53.4 -135.25 -52.45 -134.0 -50.85 Q-131.25 -47.2 -130.2 -45.35 L-127.8 -42.9 Q-123.35 -41.05 -123.1 -41.6 L-112.55 -43.45 -110.85 -45.65 Q-115.2 -48.35 -111.2 -49.7 -123.3 -63.25 -131.3 -86.25 -135.05 -92.95 -125.95 -118.0 L-126.1 -118.0 Q-136.75 -110.3 -133.75 -118.5 -125.3 -134.0 -113.2 -141.3 -124.9 -147.35 -123.4 -148.45 L-123.1 -150.05 -121.85 -151.3 -116.8 -153.35 -116.15 -154.1 Q-129.75 -156.95 -130.0 -159.55 L-130.2 -160.8 -129.9 -161.95 -128.3 -163.45 -121.6 -165.6 -121.0 -166.25 Q-134.85 -170.75 -136.75 -176.45 -137.35 -181.3 -121.5 -177.95 -111.25 -175.15 -107.55 -170.0 -101.55 -163.15 -97.0 -147.05 -78.65 -161.7 -71.15 -184.75 M-66.25 -199.8 L-66.25 -199.6 -66.15 -199.65 -66.1 -199.8 M-66.15 -199.65 L-65.9 -199.4 M-56.65 -189.45 L-59.6 -191.6 -59.7 -191.7 -62.4 -193.85 -63.35 -195.35 -63.95 -195.95 -64.2 -196.25 -64.3 -196.6 M-58.0 -188.6 L-56.65 -189.45 Q-52.5 -191.45 -48.75 -188.95 -43.95 -185.05 -46.85 -177.95 -49.05 -172.75 -53.95 -173.05 -57.35 -173.8 -59.6 -177.95 -64.3 -183.7 -58.0 -188.6 L-61.4 -189.15 M-59.6 -191.6 Q-54.1 -190.4 -47.25 -193.2 L-46.2 -193.9 -45.35 -195.2 -44.6 -198.95 M-64.6 -197.1 L-64.5 -196.8 M-120.65 -166.55 L-121.0 -166.25 M-107.65 -127.9 L-110.6 -126.6 -110.65 -126.55 -110.6 -124.45 -109.7 -123.4 -102.85 -125.65 -98.4 -125.55 -94.2 -124.45 -91.25 -123.1 -90.4 -122.45 M-97.0 -147.05 L-100.75 -144.05 Q-91.15 -144.2 -85.85 -134.05 L-83.8 -131.85 -81.65 -130.8 M-115.45 -126.5 L-118.5 -124.7 -119.1 -124.2 -119.5 -123.1 Q-121.4 -115.9 -113.95 -123.1 L-110.65 -126.55 M-113.2 -141.3 Q-105.6 -144.65 -100.75 -144.05 M-119.1 -124.2 L-125.95 -118.0 M-137.05 -53.9 L-136.85 -53.55 M-139.0 -50.9 L-138.55 -50.05 M-138.55 -49.9 L-138.45 -49.9 -138.25 -49.4 M-135.95 -53.4 L-135.9 -52.9 -135.25 -52.45 M-134.0 -50.85 L-135.45 -52.3 -135.8 -52.6 -135.9 -52.9 M-137.4 -54.3 Q-141.9 -59.0 -140.45 -53.85 M-122.45 -32.85 L-124.6 -31.8 M-100.4 -39.2 L-100.5 -39.45 -100.75 -42.45 M-111.2 -49.7 L-108.6 -46.85 -108.4 -46.5 -106.7 -47.55 M-109.55 -44.1 L-110.2 -44.7 -110.0 -45.25 -110.85 -45.65 M-109.5 -44.05 L-109.35 -45.0 M-109.55 -44.1 L-109.5 -44.05 -108.5 -42.8 -105.0 -40.35 -104.85 -40.1 -103.3 -38.2 -102.15 -35.65 M-108.4 -46.5 L-108.85 -46.3 -110.0 -45.25 M-104.85 -40.1 L-104.15 -38.75 M-105.95 -39.9 L-105.65 -40.05 -105.0 -40.35 M-105.65 -40.05 L-105.55 -39.5 M-112.35 -48.35 L-112.35 -47.15 M-111.9 -39.25 L-115.95 -38.75 M-107.85 -31.1 L-108.2 -31.5 -110.0 -32.15 M-112.55 -43.45 L-109.55 -44.1 M-121.05 -34.7 L-125.9 -35.35 M-53.25 -3.65 Q-58.4 -0.65 -63.35 -13.4 L-64.2 -14.75 M-65.45 -23.7 L-66.2 -23.9 M-66.2 -17.1 L-62.6 -8.8 M-60.55 -199.8 Q-62.1 -195.25 -59.7 -191.7" fill="none" stroke="#000000" stroke-linecap="round" stroke-linejoin="round" stroke-width="0.05"/>
  </g>
</svg>
