<?xml version="1.0" encoding="UTF-8" standalone="no"?>
<svg xmlns:xlink="http://www.w3.org/1999/xlink" height="194.9px" width="116.6px" xmlns="http://www.w3.org/2000/svg">
  <g transform="matrix(1.0, 0.0, 0.0, 1.0, 151.95, 199.8)">
    <path d="M-64.1 -199.8 L-59.6 -199.8 -59.5 -199.35 -59.3 -199.15 -59.3 -198.75 -59.3 -199.15 -59.5 -199.35 -59.6 -199.8 -53.65 -199.8 Q-55.8 -194.9 -53.65 -190.95 L-53.6 -190.9 -52.15 -189.65 -51.1 -188.95 -50.9 -188.3 -51.3 -187.95 -53.65 -188.1 -55.55 -188.6 -55.65 -188.95 -59.05 -194.5 -64.1 -199.8 M-57.6 -195.65 L-56.95 -194.55 -53.65 -190.95 -56.95 -194.55 -57.6 -195.65 M-108.4 -47.5 L-113.5 -47.05 Q-111.55 -43.65 -115.3 -41.5 -118.0 -40.0 -123.2 -46.3 L-125.75 -46.2 -130.0 -44.6 -131.4 -44.6 -133.4 -45.35 -135.35 -46.95 -141.45 -57.05 -141.5 -57.15 -141.5 -57.3 -141.65 -57.35 -141.65 -57.5 -141.75 -57.6 -143.9 -62.0 -144.05 -62.25 -146.75 -67.8 Q-147.9 -70.75 -145.75 -68.95 L-145.5 -68.75 -144.9 -68.25 -139.35 -60.95 -139.3 -60.9 -138.7 -60.2 -138.45 -59.9 -131.85 -51.95 -130.45 -51.0 -126.3 -49.7 -129.1 -52.85 -129.4 -53.15 -130.3 -54.25 Q-138.0 -63.15 -131.1 -58.8 L-130.85 -58.65 -128.85 -57.3 -125.1 -54.4 -121.0 -50.35 -119.05 -50.55 Q-123.55 -58.6 -114.8 -55.9 L-114.35 -55.8 -114.45 -54.8 -114.15 -54.1 -112.25 -52.8 -112.25 -52.25 -111.7 -51.6 -111.5 -51.45 Q-107.15 -48.45 -107.1 -47.9 L-107.2 -47.8 -108.0 -47.6 -108.4 -47.5 M-58.2 -196.7 L-58.55 -197.55 -58.2 -196.7 M-118.7 -53.95 L-116.1 -51.0 -113.2 -51.4 -114.8 -51.85 -118.65 -53.95 -118.7 -53.95 M-119.05 -54.3 L-119.25 -54.5 -119.05 -54.3 M-119.05 -50.55 L-116.1 -51.0 -119.05 -50.55 M-111.7 -51.6 L-113.2 -51.4 -111.7 -51.6 M-130.3 -54.25 L-130.35 -55.45 -129.9 -55.65 -127.45 -55.05 -129.9 -55.65 -130.35 -55.45 -130.3 -54.25 M-138.9 -60.4 L-139.35 -60.95 -138.9 -60.4 -138.7 -60.2 -138.9 -60.4 -138.45 -59.9 -138.9 -60.4 M-141.45 -57.05 L-141.45 -57.15 -141.5 -57.15 -141.45 -57.15 -141.45 -57.05 M-141.5 -57.3 L-141.5 -57.35 -141.65 -57.35 -141.5 -57.35 -141.5 -57.3 M-144.05 -62.25 L-144.3 -64.2 -143.75 -64.3 -140.65 -61.95 -143.75 -64.3 -144.3 -64.2 -144.05 -62.25 M-123.2 -46.3 L-116.4 -46.8 -113.5 -47.05 -116.4 -46.8 -115.85 -46.3 -115.65 -45.65 -115.5 -45.35 -115.65 -45.65 -115.85 -46.3 -116.4 -46.8 -123.2 -46.3 M-126.3 -49.7 L-121.0 -50.35 -126.3 -49.7 M-59.0 -198.4 L-59.0 -197.95 -59.0 -198.4" fill="#fa410f" fill-rule="evenodd" stroke="none"/>
    <path d="M-64.1 -199.8 L-59.05 -194.5 -55.65 -188.95 -55.55 -188.6 -60.45 -187.75 Q-63.35 -186.8 -65.35 -185.1 L-65.45 -185.1 Q-69.2 -198.05 -70.9 -199.8 L-64.1 -199.8" fill="#fa420e" fill-rule="evenodd" stroke="none"/>
    <path d="M-53.65 -188.1 L-51.3 -187.95 -50.9 -188.3 -51.1 -188.95 -52.15 -189.65 -50.95 -190.2 -52.25 -190.2 -53.65 -190.95 Q-55.8 -194.9 -53.65 -199.8 L-38.6 -199.8 -38.4 -196.2 Q-37.0 -190.65 -46.85 -190.2 L-45.2 -189.45 -44.9 -188.95 -44.5 -187.1 -43.75 -187.1 -44.05 -184.9 -45.2 -184.75 -45.45 -185.75 -47.05 -185.2 Q-47.3 -186.5 -52.6 -186.45 L-52.9 -187.0 -53.75 -187.1 -53.65 -188.1 M-46.85 -190.2 L-49.5 -190.45 -50.95 -190.2 -49.5 -190.45 -46.85 -190.2" fill="#ff7a16" fill-rule="evenodd" stroke="none"/>
    <path d="M-55.55 -188.6 L-53.65 -188.1 -53.75 -187.1 -52.9 -187.0 -52.6 -186.45 Q-47.3 -186.5 -47.05 -185.2 L-45.45 -185.75 -45.2 -184.75 -44.05 -184.9 -43.75 -187.1 -44.5 -187.1 -44.9 -188.95 -45.2 -189.45 -46.85 -190.2 Q-37.0 -190.65 -38.4 -196.2 -31.35 -179.2 -40.65 -164.5 L-43.3 -161.35 Q-44.55 -159.95 -48.55 -158.25 L-50.7 -157.7 -54.95 -157.5 -61.75 -158.45 -64.2 -158.25 Q-67.2 -157.25 -68.85 -155.6 L-70.8 -152.6 Q-72.5 -147.45 -72.5 -145.5 L-72.2 -142.8 -69.1 -135.15 -58.65 -102.1 -56.1 -90.4 -54.6 -79.5 Q-53.85 -73.0 -54.1 -64.55 L-55.0 -55.15 -56.75 -49.0 Q-64.05 -33.4 -63.9 -31.6 -55.65 -26.15 -57.8 -9.8 L-58.45 -8.5 -59.5 -7.45 -61.1 -7.1 -61.2 -7.1 -62.05 -5.8 -63.25 -4.95 -65.8 -4.9 -67.1 -5.6 -68.0 -6.8 -68.55 -8.35 -68.85 -13.25 -68.95 -13.3 Q-70.35 -14.5 -70.55 -17.0 L-70.25 -23.2 Q-68.4 -27.0 -68.55 -29.4 L-68.55 -29.45 Q-84.55 -29.8 -102.25 -46.3 -102.05 -40.35 -104.2 -42.95 L-106.15 -46.1 -106.3 -46.1 -106.55 -45.65 -106.9 -45.8 -107.6 -46.6 -108.4 -47.5 -108.0 -47.6 -107.2 -47.8 -106.3 -46.3 -106.3 -46.1 -106.3 -46.3 -107.2 -47.8 -107.1 -47.9 Q-107.15 -48.45 -111.5 -51.45 L-111.7 -51.6 -112.25 -52.25 -112.25 -52.8 -114.15 -54.1 -114.45 -54.8 -114.35 -55.8 -114.8 -55.9 -114.05 -56.65 -112.95 -57.05 Q-125.2 -71.4 -132.5 -94.0 L-133.2 -99.35 -132.7 -105.75 Q-129.9 -119.8 -123.45 -129.0 L-123.4 -129.1 Q-127.45 -130.0 -124.25 -134.05 L-121.05 -137.8 -121.0 -138.0 -121.25 -138.0 Q-124.7 -137.55 -131.5 -134.25 L-135.75 -133.65 -136.75 -133.85 -137.8 -134.7 Q-138.95 -135.1 -137.25 -138.65 L-131.4 -144.95 Q-151.4 -138.95 -151.95 -145.9 -148.3 -152.3 -131.65 -157.85 -124.7 -160.9 -114.8 -158.15 L-114.45 -159.75 -113.5 -160.5 Q-112.65 -161.1 -107.65 -161.45 L-106.8 -162.1 Q-106.7 -162.75 -115.95 -166.8 L-118.85 -169.35 -119.15 -171.35 -118.65 -172.3 -117.45 -173.15 -115.95 -173.45 -109.75 -173.7 -109.1 -174.2 -109.05 -174.25 -115.95 -178.7 Q-117.85 -179.9 -121.5 -184.05 -124.5 -189.65 -118.95 -188.95 -90.4 -184.7 -89.95 -154.0 L-89.85 -154.0 Q-74.15 -165.35 -65.45 -185.0 L-65.45 -185.1 -65.35 -185.1 Q-63.35 -186.8 -60.45 -187.75 L-55.55 -188.6 M-52.15 -189.65 L-53.6 -190.9 -53.65 -190.95 -52.25 -190.2 -50.95 -190.2 -52.15 -189.65 M-79.85 -135.9 Q-84.75 -135.8 -93.15 -145.05 L-97.9 -149.15 -97.95 -149.1 Q-101.35 -152.3 -109.15 -156.0 L-114.8 -158.15 -109.15 -156.0 Q-101.35 -152.3 -97.95 -149.1 L-97.9 -149.15 -89.95 -153.85 -89.95 -154.0 -89.95 -153.85 -97.9 -149.15 -93.15 -145.05 Q-84.75 -135.8 -79.85 -135.9 M-123.45 -129.0 Q-102.25 -134.2 -88.7 -127.05 -102.25 -134.2 -123.45 -129.0 M-118.85 -138.1 L-121.0 -138.0 -118.85 -138.1 M-131.4 -144.95 L-131.05 -145.05 -129.15 -145.05 -131.05 -145.05 -131.4 -144.95 M-89.95 -153.85 L-89.85 -153.85 -89.85 -154.0 -89.85 -153.85 -89.95 -153.85 M-106.55 -162.3 L-106.8 -162.1 -106.55 -162.3 M-109.1 -174.2 L-108.7 -174.3 -109.1 -174.2 M-65.45 -185.0 L-65.35 -185.1 -65.45 -185.0 M-111.4 -52.8 L-111.5 -51.45 -111.4 -52.8 M-110.55 -54.15 L-112.95 -57.05 -110.55 -54.15 -108.7 -54.95 -110.55 -54.15 -110.6 -54.15 -112.25 -52.8 -110.6 -54.15 -110.55 -54.15 M-102.65 -49.9 L-102.45 -46.75 -102.65 -46.3 -102.45 -46.75 -102.65 -49.9 M-106.15 -46.1 L-106.15 -46.3 -106.3 -46.3 -106.15 -46.3 -106.15 -46.1 M-107.6 -46.6 L-108.0 -47.6 -107.6 -46.6 M-107.1 -47.9 L-105.7 -46.3 -104.2 -42.95 -105.7 -46.3 -107.1 -47.9 M-68.95 -13.3 L-69.0 -19.25 -69.7 -22.55 -69.0 -19.25 -68.95 -13.3 M-61.1 -7.1 Q-65.2 -7.8 -66.65 -13.4 L-68.25 -20.75 -66.65 -13.4 Q-65.2 -7.8 -61.1 -7.1 M-68.55 -29.4 L-67.95 -29.15 -68.55 -29.4" fill="#ffffff" fill-rule="evenodd" stroke="none"/>
    <path d="M-59.6 -199.8 L-64.1 -199.8 -59.05 -194.5 -55.65 -188.95 -55.55 -188.6 -53.65 -188.1 -51.3 -187.95 -50.9 -188.3 -51.1 -188.95 -52.15 -189.65 -53.6 -190.9 -53.65 -190.95 -56.95 -194.55 -57.6 -195.65 M-64.1 -199.8 L-70.9 -199.8 Q-69.2 -198.05 -65.45 -185.1 L-65.35 -185.1 Q-63.35 -186.8 -60.45 -187.75 L-55.55 -188.6 M-59.6 -199.8 L-59.5 -199.35 -59.3 -199.15 -59.3 -198.75 M-53.65 -199.8 L-59.6 -199.8 M-38.4 -196.2 L-38.6 -199.8 -53.65 -199.8 Q-55.8 -194.9 -53.65 -190.95 L-52.25 -190.2 -50.95 -190.2 -49.5 -190.45 -46.85 -190.2 Q-37.0 -190.65 -38.4 -196.2 -31.35 -179.2 -40.65 -164.5 L-43.3 -161.35 Q-44.55 -159.95 -48.55 -158.25 L-50.7 -157.7 -54.95 -157.5 -61.75 -158.45 -64.2 -158.25 Q-67.2 -157.25 -68.85 -155.6 L-70.8 -152.6 Q-72.5 -147.45 -72.5 -145.5 L-72.2 -142.8 -69.1 -135.15 -58.65 -102.1 -56.1 -90.4 -54.6 -79.5 Q-53.85 -73.0 -54.1 -64.55 L-55.0 -55.15 -56.75 -49.0 Q-64.05 -33.4 -63.9 -31.6 -55.65 -26.15 -57.8 -9.8 L-58.45 -8.5 -59.5 -7.45 -61.1 -7.1 -61.2 -7.1 -62.05 -5.8 -63.25 -4.95 -65.8 -4.9 -67.1 -5.6 -68.0 -6.8 -68.55 -8.35 -68.85 -13.25 -68.95 -13.3 Q-70.35 -14.5 -70.55 -17.0 L-70.25 -23.2 Q-68.4 -27.0 -68.55 -29.4 L-68.55 -29.45 Q-84.55 -29.8 -102.25 -46.3 -102.05 -40.35 -104.2 -42.95 L-106.15 -46.1 -106.3 -46.1 -106.55 -45.65 -106.9 -45.8 -107.6 -46.6 -108.4 -47.5 -113.5 -47.05 Q-111.55 -43.65 -115.3 -41.5 -118.0 -40.0 -123.2 -46.3 L-125.75 -46.2 -130.0 -44.6 -131.4 -44.6 -133.4 -45.35 -135.35 -46.95 -141.45 -57.05 -141.5 -57.15 -141.5 -57.3 -141.65 -57.35 -141.65 -57.5 -141.75 -57.6 -143.9 -62.0 -144.05 -62.25 -146.75 -67.8 Q-147.9 -70.75 -145.75 -68.95 L-145.5 -68.75 -144.9 -68.25 -139.35 -60.95 -139.3 -60.9 -138.7 -60.2 -138.45 -59.9 -131.85 -51.95 -130.45 -51.0 -126.3 -49.7 -129.1 -52.85 -129.4 -53.15 -130.3 -54.25 Q-138.0 -63.15 -131.1 -58.8 L-130.85 -58.65 -128.85 -57.3 -125.1 -54.4 -121.0 -50.35 -119.05 -50.55 Q-123.55 -58.6 -114.8 -55.9 L-114.05 -56.65 -112.95 -57.05 Q-125.2 -71.4 -132.5 -94.0 L-133.2 -99.35 -132.7 -105.75 Q-129.9 -119.8 -123.45 -129.0 L-123.4 -129.1 Q-127.45 -130.0 -124.25 -134.05 L-121.05 -137.8 -121.0 -138.0 -121.25 -138.0 Q-124.7 -137.55 -131.5 -134.25 L-135.75 -133.65 -136.75 -133.85 -137.8 -134.7 Q-138.95 -135.1 -137.25 -138.65 L-131.4 -144.95 Q-151.4 -138.95 -151.95 -145.9 -148.3 -152.3 -131.65 -157.85 -124.7 -160.9 -114.8 -158.15 L-114.45 -159.75 -113.5 -160.5 Q-112.65 -161.1 -107.65 -161.45 L-106.8 -162.1 Q-106.7 -162.75 -115.95 -166.8 L-118.85 -169.35 -119.15 -171.35 -118.65 -172.3 -117.45 -173.15 -115.95 -173.45 -109.75 -173.7 -109.1 -174.2 -109.05 -174.25 -115.95 -178.7 Q-117.85 -179.9 -121.5 -184.05 -124.5 -189.65 -118.95 -188.95 -90.4 -184.7 -89.95 -154.0 L-89.85 -154.0 Q-74.15 -165.35 -65.45 -185.0 L-65.45 -185.1 M-46.85 -190.2 L-45.2 -189.45 -44.9 -188.95 -44.5 -187.1 -43.75 -187.1 -44.05 -184.9 -45.2 -184.75 -45.45 -185.75 -47.05 -185.2 Q-47.3 -186.5 -52.6 -186.45 L-52.9 -187.0 -53.75 -187.1 -53.65 -188.1 M-58.55 -197.55 L-58.2 -196.7 M-52.15 -189.65 L-50.95 -190.2 M-65.35 -185.1 L-65.45 -185.0 M-108.7 -174.3 L-109.1 -174.2 M-106.8 -162.1 L-106.55 -162.3 M-114.8 -158.15 L-109.15 -156.0 Q-101.35 -152.3 -97.95 -149.1 L-97.9 -149.15 -89.95 -153.85 -89.95 -154.0 M-89.85 -154.0 L-89.85 -153.85 -89.95 -153.85 M-129.15 -145.05 L-131.05 -145.05 -131.4 -144.95 M-121.0 -138.0 L-118.85 -138.1 M-88.7 -127.05 Q-102.25 -134.2 -123.45 -129.0 M-97.9 -149.15 L-93.15 -145.05 Q-84.75 -135.8 -79.85 -135.9 M-111.7 -51.6 L-112.25 -52.25 -112.25 -52.8 -114.15 -54.1 -114.45 -54.8 -114.35 -55.8 -114.8 -55.9 M-118.7 -53.95 L-116.1 -51.0 -113.2 -51.4 -114.8 -51.85 -118.65 -53.95 -118.7 -53.95 M-119.25 -54.5 L-119.05 -54.3 M-111.7 -51.6 L-111.5 -51.45 -111.4 -52.8 M-113.2 -51.4 L-111.7 -51.6 M-116.1 -51.0 L-119.05 -50.55 M-108.7 -54.95 L-110.55 -54.15 -110.6 -54.15 -112.25 -52.8 M-112.95 -57.05 L-110.55 -54.15 M-140.65 -61.95 L-143.75 -64.3 -144.3 -64.2 -144.05 -62.25 M-138.7 -60.2 L-138.9 -60.4 -138.45 -59.9 M-141.65 -57.35 L-141.5 -57.35 -141.5 -57.3 M-141.5 -57.15 L-141.45 -57.15 -141.45 -57.05 M-139.35 -60.95 L-138.9 -60.4 M-127.45 -55.05 L-129.9 -55.65 -130.35 -55.45 -130.3 -54.25 M-102.65 -46.3 L-102.45 -46.75 -102.65 -49.9 M-106.3 -46.1 L-106.3 -46.3 -107.2 -47.8 -108.0 -47.6 -107.6 -46.6 M-106.3 -46.3 L-106.15 -46.3 -106.15 -46.1 M-107.2 -47.8 L-107.1 -47.9 Q-107.15 -48.45 -111.5 -51.45 M-108.4 -47.5 L-108.0 -47.6 M-104.2 -42.95 L-105.7 -46.3 -107.1 -47.9 M-113.5 -47.05 L-116.4 -46.8 -115.85 -46.3 -115.65 -45.65 -115.5 -45.35 M-121.0 -50.35 L-126.3 -49.7 M-116.4 -46.8 L-123.2 -46.3 M-67.95 -29.15 L-68.55 -29.4 M-68.25 -20.75 L-66.65 -13.4 Q-65.2 -7.8 -61.1 -7.1 M-69.7 -22.55 L-69.0 -19.25 -68.95 -13.3 M-59.0 -197.95 L-59.0 -198.4" fill="none" stroke="#000000" stroke-linecap="round" stroke-linejoin="round" stroke-width="0.05"/>
  </g>
</svg>
