<?xml version="1.0" encoding="UTF-8" standalone="no"?>
<svg xmlns:xlink="http://www.w3.org/1999/xlink" height="191.3px" width="123.2px" xmlns="http://www.w3.org/2000/svg">
  <g transform="matrix(1.0, 0.0, 0.0, 1.0, 154.85, 199.8)">
    <path d="M-62.2 -183.4 Q-63.05 -184.6 -66.0 -194.7 L-69.2 -199.8 -63.05 -199.8 -61.0 -197.95 -60.9 -197.9 -55.55 -192.35 -52.15 -186.6 -56.75 -185.95 Q-59.8 -185.1 -62.2 -183.4" fill="#fa420e" fill-rule="evenodd" stroke="none"/>
    <path d="M-52.15 -186.6 L-55.55 -192.35 -60.9 -197.9 -61.0 -197.95 -60.9 -197.95 -61.0 -199.8 -56.65 -199.8 -51.3 -199.8 -50.1 -198.2 -50.05 -197.95 Q-52.35 -191.45 -50.1 -188.95 L-50.1 -188.8 Q-42.8 -183.6 -52.15 -186.6 M-109.9 -51.3 L-122.45 -50.35 -128.0 -50.25 -131.7 -48.65 -134.05 -48.75 Q-136.7 -49.4 -138.25 -51.75 L-144.05 -60.5 -144.2 -60.55 -146.85 -65.2 Q-151.85 -74.35 -148.8 -71.8 L-148.6 -71.65 -147.9 -71.0 -147.6 -70.7 -146.8 -69.9 -146.6 -69.65 -146.15 -69.2 -145.95 -69.0 -145.55 -68.55 -145.35 -68.35 -145.25 -68.25 -142.5 -64.7 -142.35 -64.5 -142.1 -64.25 -141.9 -64.0 -141.85 -63.95 -141.8 -63.95 -141.65 -63.75 -140.35 -62.3 -139.85 -61.75 -139.35 -61.2 -137.15 -58.85 -133.35 -55.25 -128.5 -53.65 -125.75 -53.9 -127.15 -55.6 -130.8 -64.5 -131.8 -67.05 -133.95 -72.6 -134.5 -74.5 -135.35 -77.75 -135.1 -78.9 -134.5 -78.65 -133.75 -77.8 -127.9 -68.25 -125.65 -63.35 Q-122.0 -56.8 -121.9 -57.8 L-121.8 -57.9 -121.25 -58.35 -119.7 -64.55 -118.65 -66.55 -118.5 -66.55 -117.35 -64.75 -117.35 -64.6 -118.1 -58.65 -119.25 -54.75 -112.95 -55.45 -112.9 -55.4 Q-108.65 -52.45 -108.6 -51.8 L-108.6 -51.75 -109.5 -51.45 -109.9 -51.3 M-56.5 -198.8 L-56.65 -199.4 -56.65 -199.8 -56.65 -199.4 -56.5 -198.8 M-60.9 -197.9 L-60.9 -197.95 -60.9 -197.9 M-54.5 -194.5 L-54.1 -193.3 -53.1 -192.15 -52.6 -191.05 -50.35 -188.95 -50.1 -188.8 -50.35 -188.95 -52.6 -191.05 -53.1 -192.15 -54.1 -193.3 -54.5 -194.5 M-115.5 -60.15 L-116.6 -63.55 -116.35 -63.45 -114.05 -60.35 -115.2 -59.95 -115.5 -60.15 M-146.85 -65.2 L-147.2 -67.15 -146.35 -67.3 -143.45 -65.15 -146.35 -67.3 -147.2 -67.15 -146.85 -65.2 M-133.85 -73.55 L-134.2 -74.4 -134.5 -74.5 -134.2 -74.4 -133.85 -73.55 M-125.75 -53.9 L-119.25 -54.75 -125.75 -53.9 M-131.8 -67.05 L-131.55 -67.6 -131.55 -67.7 -131.55 -67.75 -131.65 -68.25 Q-134.65 -77.0 -129.8 -70.8 -134.65 -77.0 -131.65 -68.25 L-131.55 -67.75 -131.55 -67.7 -131.55 -67.6 -131.4 -66.95 -131.55 -67.6 -131.8 -67.05 M-121.7 -57.3 L-121.8 -57.9 -121.7 -57.3 M-141.65 -63.75 L-141.2 -63.15 -140.35 -62.3 -141.2 -63.15 -141.65 -63.75 M-133.55 -72.7 L-133.75 -73.25 -133.55 -72.7 M-132.1 -69.1 L-132.15 -68.65 -132.05 -69.0 -132.1 -69.1 -132.55 -70.05 -132.7 -70.5 -132.9 -70.7 -133.0 -71.35 -133.4 -72.4 -133.0 -71.35 -132.9 -70.7 -132.7 -70.5 -132.55 -70.05 -132.1 -69.1 -132.05 -69.0 -132.15 -68.65 -132.1 -69.1 M-130.8 -64.5 L-130.8 -65.05 -130.95 -65.65 -130.95 -65.7 -131.2 -66.65 -131.2 -66.25 -131.35 -66.55 -131.2 -66.25 -131.2 -66.65 -131.4 -66.95 -131.35 -66.55 -131.4 -66.95 -131.2 -66.65 -130.95 -65.7 -130.95 -65.65 -130.8 -65.05 -130.8 -64.5" fill="#fa410f" fill-rule="evenodd" stroke="none"/>
    <path d="M-50.1 -198.2 L-49.6 -198.4 -50.05 -197.95 -50.1 -198.2 M-48.65 -199.45 L-48.55 -199.8 -46.7 -199.8 -48.35 -198.6 -48.75 -198.8 -48.65 -199.45" fill="#000000" fill-rule="evenodd" stroke="none"/>
    <path d="M-49.6 -198.4 L-48.65 -199.45 -48.75 -198.8 -48.35 -198.6 -46.7 -199.8 -36.0 -199.65 Q-34.7 -197.6 -34.8 -193.3 L-35.55 -190.3 -35.85 -189.65 -37.05 -188.95 Q-43.9 -186.65 -50.1 -188.8 L-50.1 -188.95 Q-52.35 -191.45 -50.05 -197.95 L-49.6 -198.4" fill="#ff7a16" fill-rule="evenodd" stroke="none"/>
    <path d="M-62.2 -183.4 Q-59.8 -185.1 -56.75 -185.95 L-52.15 -186.6 Q-42.8 -183.6 -50.1 -188.8 -43.9 -186.65 -37.05 -188.95 L-35.85 -189.65 -35.55 -190.3 -34.8 -193.3 Q-27.45 -180.15 -37.15 -162.95 -40.55 -158.65 -41.8 -158.35 L-45.55 -156.65 Q-48.55 -155.3 -60.9 -157.3 L-64.95 -155.7 Q-67.25 -154.55 -68.45 -151.65 L-70.25 -145.5 -70.15 -142.6 -67.5 -135.45 Q-56.4 -99.05 -56.5 -97.1 L-54.5 -84.15 Q-53.45 -73.6 -53.65 -67.3 -53.95 -60.7 -54.8 -56.65 L-56.1 -52.15 Q-55.45 -51.95 -64.2 -36.4 L-65.15 -33.7 Q-65.7 -33.75 -61.95 -28.6 L-60.9 -25.35 Q-60.45 -24.55 -61.4 -17.0 L-62.5 -13.2 -63.65 -11.25 -64.8 -10.3 -66.0 -9.85 -67.6 -10.3 -68.65 -9.35 -70.25 -8.7 -71.55 -8.5 -72.7 -8.7 -74.75 -10.4 -75.15 -11.8 -75.15 -13.6 -74.2 -16.9 -75.05 -18.8 -74.85 -21.9 -72.85 -27.45 Q-70.1 -30.55 -70.55 -30.65 L-70.5 -30.75 -70.1 -32.25 -70.05 -32.35 -70.25 -32.45 Q-87.8 -36.0 -98.7 -46.3 L-103.8 -50.15 Q-103.9 -45.35 -105.0 -46.2 L-105.4 -46.95 -105.65 -47.1 -106.3 -47.5 -107.65 -49.9 -107.75 -49.9 -108.0 -49.5 -108.5 -49.6 -109.0 -50.25 -109.9 -51.3 -109.5 -51.45 -108.6 -51.75 -108.6 -51.8 Q-108.65 -52.45 -112.9 -55.4 L-112.95 -55.45 -113.75 -56.2 -113.75 -56.65 -115.9 -58.3 -116.35 -58.65 -116.6 -59.2 -116.35 -59.65 -115.5 -60.15 -115.2 -59.95 -114.05 -60.35 -116.35 -63.45 -116.6 -63.55 -116.6 -63.65 -117.25 -64.6 -117.35 -64.6 -117.35 -64.75 -118.5 -66.55 -118.65 -66.55 -118.65 -66.65 Q-131.9 -86.85 -133.85 -100.95 -136.3 -107.8 -125.25 -129.5 -138.25 -132.05 -138.45 -135.55 L-138.3 -136.3 -137.7 -137.05 -136.4 -137.7 -129.3 -139.6 -128.15 -140.45 -128.1 -140.45 -141.95 -145.05 Q-148.0 -148.1 -148.65 -149.6 -151.25 -154.25 -148.65 -156.15 L-146.75 -157.0 -145.25 -157.2 -138.55 -157.05 -137.65 -157.6 -137.6 -157.6 -150.6 -167.5 Q-154.85 -171.25 -154.85 -173.7 -154.8 -178.3 -143.0 -175.6 -140.05 -174.7 -136.2 -172.3 L-128.5 -167.0 -115.45 -157.0 -101.9 -148.55 -104.85 -153.35 Q-112.45 -160.95 -111.05 -160.8 L-110.6 -162.2 -109.45 -162.95 -103.1 -163.15 -102.55 -163.45 -102.55 -163.55 -102.65 -163.8 Q-114.05 -170.55 -113.95 -172.95 L-113.8 -174.1 -113.3 -174.95 -112.05 -175.75 -109.9 -175.8 -104.15 -175.2 -103.3 -175.5 -103.5 -175.75 -110.6 -181.9 Q-113.95 -185.05 -115.1 -188.5 -114.85 -193.65 -105.4 -188.95 -96.05 -184.1 -90.95 -177.3 -87.0 -173.55 -86.45 -155.15 L-86.35 -155.15 Q-69.9 -166.4 -62.2 -183.4 M-100.95 -147.95 L-101.15 -147.9 -101.8 -148.45 -101.9 -148.55 -101.8 -148.45 -101.15 -147.9 -100.95 -147.95 -100.3 -148.1 Q-93.4 -151.6 -86.45 -155.05 L-86.35 -155.15 -86.45 -155.05 Q-93.4 -151.6 -100.3 -148.1 L-100.95 -147.95 -96.25 -145.05 Q-85.3 -136.65 -78.6 -137.6 -85.3 -136.65 -96.25 -145.05 L-100.95 -147.95 M-125.25 -129.5 L-118.5 -128.75 Q-92.3 -130.05 -87.55 -128.3 -92.3 -130.05 -118.5 -128.75 L-125.25 -129.5 M-128.15 -140.45 L-127.05 -139.95 -128.15 -140.45 M-137.65 -157.6 L-136.95 -157.0 -137.65 -157.6 M-86.45 -155.15 L-86.45 -155.05 -86.45 -155.15 M-102.25 -163.8 L-102.55 -163.55 -102.25 -163.8 M-103.3 -175.5 L-102.85 -175.95 -103.3 -175.5 M-118.5 -66.55 L-118.5 -66.65 -118.65 -66.65 -118.5 -66.65 -118.5 -66.55 M-117.25 -64.6 L-117.35 -64.75 -117.25 -64.6 M-116.6 -63.65 L-116.35 -63.45 -116.6 -63.65 M-115.9 -58.3 L-115.75 -59.5 -115.9 -58.3 M-114.05 -60.35 L-112.05 -58.0 -113.2 -57.3 -113.75 -56.65 -113.2 -57.3 -112.05 -58.0 -114.05 -60.35 M-110.0 -58.8 L-112.05 -58.0 -110.0 -58.8 M-103.8 -50.15 L-103.95 -53.55 -103.8 -50.15 M-108.6 -51.75 L-107.65 -50.05 -107.65 -49.9 -107.65 -50.05 -107.75 -49.9 -107.65 -50.05 -108.6 -51.75 M-108.6 -51.8 L-107.0 -49.9 -105.65 -47.1 -107.0 -49.9 -108.6 -51.8 M-109.0 -50.25 L-109.5 -51.45 -109.0 -50.25 M-112.9 -55.4 L-112.9 -56.75 -112.9 -55.4 M-72.4 -25.95 L-72.3 -24.35 -72.6 -21.7 -74.2 -16.9 -72.6 -21.7 -72.3 -24.35 -72.4 -25.95 M-71.15 -24.35 L-71.15 -16.6 -70.9 -15.1 -69.2 -11.7 -67.6 -10.3 -69.2 -11.7 -70.9 -15.1 -71.15 -16.6 -71.15 -24.35 M-70.5 -30.75 L-70.5 -30.65 -70.55 -30.65 -70.5 -30.65 -70.5 -30.75 M-69.4 -31.95 L-70.1 -32.25 -69.4 -31.95" fill="#ffffff" fill-rule="evenodd" stroke="none"/>
    <path d="M-61.0 -197.95 L-63.05 -199.8 -69.2 -199.8 -66.0 -194.7 Q-63.05 -184.6 -62.2 -183.4 -59.8 -185.1 -56.75 -185.95 L-52.15 -186.6 -55.55 -192.35 -60.9 -197.9 -61.0 -197.95 -60.9 -197.95 -61.0 -199.8 -56.65 -199.8 -51.3 -199.8 -50.1 -198.2 -49.6 -198.4 -48.65 -199.45 -48.55 -199.8 -46.7 -199.8 -36.0 -199.65 Q-34.7 -197.6 -34.8 -193.3 -27.45 -180.15 -37.15 -162.95 -40.55 -158.65 -41.8 -158.35 L-45.55 -156.65 Q-48.55 -155.3 -60.9 -157.3 L-64.95 -155.7 Q-67.25 -154.55 -68.45 -151.65 L-70.25 -145.5 -70.15 -142.6 -67.5 -135.45 Q-56.4 -99.05 -56.5 -97.1 L-54.5 -84.15 Q-53.45 -73.6 -53.65 -67.3 -53.95 -60.7 -54.8 -56.65 L-56.1 -52.15 Q-55.45 -51.95 -64.2 -36.4 L-65.15 -33.7 Q-65.7 -33.75 -61.95 -28.6 L-60.9 -25.35 Q-60.45 -24.55 -61.4 -17.0 L-62.5 -13.2 -63.65 -11.25 -64.8 -10.3 -66.0 -9.85 -67.6 -10.3 -68.65 -9.35 -70.25 -8.7 -71.55 -8.5 -72.7 -8.7 -74.75 -10.4 -75.15 -11.8 -75.15 -13.6 -74.2 -16.9 -75.05 -18.8 -74.85 -21.9 -72.85 -27.45 Q-70.1 -30.55 -70.55 -30.65 L-70.5 -30.75 -70.1 -32.25 -70.05 -32.35 -70.25 -32.45 Q-87.8 -36.0 -98.7 -46.3 L-103.8 -50.15 Q-103.9 -45.35 -105.0 -46.2 L-105.4 -46.95 -105.65 -47.1 -106.3 -47.5 -107.65 -49.9 -107.75 -49.9 -108.0 -49.5 -108.5 -49.6 -109.0 -50.25 -109.9 -51.3 -122.45 -50.35 -128.0 -50.25 -131.7 -48.65 -134.05 -48.75 Q-136.7 -49.4 -138.25 -51.75 L-144.05 -60.5 -144.2 -60.55 -146.85 -65.2 Q-151.85 -74.35 -148.8 -71.8 L-148.6 -71.65 -147.9 -71.0 -147.6 -70.7 -146.8 -69.9 -146.6 -69.65 -146.15 -69.2 -145.95 -69.0 -145.55 -68.55 -145.35 -68.35 -145.25 -68.25 -142.5 -64.7 -142.35 -64.5 -142.1 -64.25 -141.9 -64.0 -141.8 -63.95 -141.15 -63.3 -139.35 -61.2 -137.15 -58.85 -133.35 -55.25 -128.5 -53.65 -125.75 -53.9 -127.15 -55.6 -130.8 -64.5 -131.8 -67.05 -133.95 -72.6 -134.5 -74.5 -135.35 -77.75 -135.1 -78.9 -134.5 -78.65 -133.75 -77.8 -127.9 -68.25 -125.65 -63.35 Q-122.0 -56.8 -121.9 -57.8 L-121.8 -57.9 -121.25 -58.35 -119.7 -64.55 -118.65 -66.55 -118.65 -66.65 Q-131.9 -86.85 -133.85 -100.95 -136.3 -107.8 -125.25 -129.5 -138.25 -132.05 -138.45 -135.55 L-138.3 -136.3 -137.7 -137.05 -136.4 -137.7 -129.3 -139.6 -128.15 -140.45 -128.1 -140.45 -141.95 -145.05 Q-148.0 -148.1 -148.65 -149.6 -151.25 -154.25 -148.65 -156.15 L-146.75 -157.0 -145.25 -157.2 -138.55 -157.05 -137.65 -157.6 -137.6 -157.6 -150.6 -167.5 Q-154.85 -171.25 -154.85 -173.7 -154.8 -178.3 -143.0 -175.6 -140.05 -174.7 -136.2 -172.3 L-128.5 -167.0 -115.45 -157.0 -101.9 -148.55 -104.85 -153.35 Q-112.45 -160.95 -111.05 -160.8 L-110.6 -162.2 -109.45 -162.95 -103.1 -163.15 -102.55 -163.45 -102.55 -163.55 -102.65 -163.8 Q-114.05 -170.55 -113.95 -172.95 L-113.8 -174.1 -113.3 -174.95 -112.05 -175.75 -109.9 -175.8 -104.15 -175.2 -103.3 -175.5 -103.5 -175.75 -110.6 -181.9 Q-113.95 -185.05 -115.1 -188.5 -114.85 -193.65 -105.4 -188.95 -96.05 -184.1 -90.95 -177.3 -87.0 -173.55 -86.45 -155.15 L-86.35 -155.15 Q-69.9 -166.4 -62.2 -183.4 M-56.65 -199.8 L-56.65 -199.4 -56.5 -198.8 M-46.7 -199.8 L-48.35 -198.6 -48.75 -198.8 -48.65 -199.45 M-50.1 -188.8 Q-43.9 -186.65 -37.05 -188.95 L-35.85 -189.65 -35.55 -190.3 -34.8 -193.3 M-50.1 -188.8 Q-42.8 -183.6 -52.15 -186.6 M-50.05 -197.95 Q-52.35 -191.45 -50.1 -188.95 L-50.1 -188.8 -50.35 -188.95 -52.6 -191.05 -53.1 -192.15 -54.1 -193.3 -54.5 -194.5 M-60.9 -197.95 L-60.9 -197.9 M-102.85 -175.95 L-103.3 -175.5 M-102.55 -163.55 L-102.25 -163.8 M-86.35 -155.15 L-86.45 -155.05 Q-93.4 -151.6 -100.3 -148.1 L-100.95 -147.95 -96.25 -145.05 Q-85.3 -136.65 -78.6 -137.6 M-86.45 -155.05 L-86.45 -155.15 M-136.95 -157.0 L-137.65 -157.6 M-127.05 -139.95 L-128.15 -140.45 M-87.55 -128.3 Q-92.3 -130.05 -118.5 -128.75 L-125.25 -129.5 M-101.9 -148.55 L-101.8 -148.45 -101.15 -147.9 -100.95 -147.95 M-117.35 -64.6 L-117.35 -64.75 -118.5 -66.55 -118.65 -66.55 M-118.65 -66.65 L-118.5 -66.65 -118.5 -66.55 M-116.6 -63.55 L-116.6 -63.65 -117.25 -64.6 -117.35 -64.6 -118.1 -58.65 -119.25 -54.75 -112.95 -55.45 -113.75 -56.2 -113.75 -56.65 -115.9 -58.3 -116.35 -58.65 -116.6 -59.2 -116.35 -59.65 -115.5 -60.15 -116.6 -63.55 -116.35 -63.45 -116.6 -63.65 M-117.35 -64.75 L-117.25 -64.6 M-115.5 -60.15 L-115.2 -59.95 -114.05 -60.35 -116.35 -63.45 M-113.75 -56.65 L-113.2 -57.3 -112.05 -58.0 -114.05 -60.35 M-115.75 -59.5 L-115.9 -58.3 M-109.9 -51.3 L-109.5 -51.45 -108.6 -51.75 -108.6 -51.8 Q-108.65 -52.45 -112.9 -55.4 L-112.95 -55.45 M-112.9 -56.75 L-112.9 -55.4 M-109.5 -51.45 L-109.0 -50.25 M-105.65 -47.1 L-107.0 -49.9 -108.6 -51.8 M-107.65 -49.9 L-107.65 -50.05 -107.75 -49.9 M-107.65 -50.05 L-108.6 -51.75 M-103.95 -53.55 L-103.8 -50.15 M-112.05 -58.0 L-110.0 -58.8 M-134.5 -74.5 L-134.2 -74.4 -133.85 -73.55 M-143.45 -65.15 L-146.35 -67.3 -147.2 -67.15 -146.85 -65.2 M-141.9 -64.0 L-141.85 -63.95 -141.8 -63.95 -141.65 -63.75 -140.35 -62.3 -139.85 -61.75 -139.35 -61.2 M-131.35 -66.55 L-131.2 -66.25 -131.2 -66.65 -131.4 -66.95 -131.35 -66.55 M-129.8 -70.8 Q-134.65 -77.0 -131.65 -68.25 L-131.55 -67.75 -131.55 -67.7 -131.55 -67.6 -131.4 -66.95 M-131.2 -66.65 L-130.95 -65.7 -130.95 -65.65 -130.8 -65.05 -130.8 -64.5 M-133.4 -72.4 L-133.0 -71.35 -132.9 -70.7 -132.7 -70.5 -132.55 -70.05 -132.1 -69.1 -132.05 -69.0 -132.15 -68.65 -132.1 -69.1 M-133.75 -73.25 L-133.55 -72.7 M-140.35 -62.3 L-141.2 -63.15 -141.65 -63.75 M-121.8 -57.9 L-121.7 -57.3 M-131.55 -67.6 L-131.8 -67.05 M-119.25 -54.75 L-125.75 -53.9 M-70.1 -32.25 L-69.4 -31.95 M-70.55 -30.65 L-70.5 -30.65 -70.5 -30.75 M-67.6 -10.3 L-69.2 -11.7 -70.9 -15.1 -71.15 -16.6 -71.15 -24.35 M-74.2 -16.9 L-72.6 -21.7 -72.3 -24.35 -72.4 -25.95 M-50.1 -198.2 L-50.05 -197.95 -49.6 -198.4" fill="none" stroke="#000000" stroke-linecap="round" stroke-linejoin="round" stroke-width="0.05"/>
  </g>
</svg>
