<?xml version="1.0" encoding="UTF-8" standalone="no"?>
<svg xmlns:xlink="http://www.w3.org/1999/xlink" height="188.55px" width="122.0px" xmlns="http://www.w3.org/2000/svg">
  <g transform="matrix(1.0, 0.0, 0.0, 1.0, 152.2, 199.8)">
    <path d="M-47.55 -198.4 L-47.5 -197.55 -46.4 -197.9 -45.15 -199.15 -44.9 -199.8 -36.0 -199.65 Q-33.1 -195.95 -33.65 -192.35 L-33.95 -190.3 -34.55 -188.95 Q-37.7 -185.3 -49.15 -187.75 L-49.2 -187.75 -49.2 -187.8 -49.7 -188.95 -50.1 -191.7 Q-50.25 -194.05 -49.05 -196.4 L-48.75 -197.1 -47.55 -198.4 M-49.15 -187.75 L-49.2 -187.8 -49.15 -187.75" fill="#ff7a16" fill-rule="evenodd" stroke="none"/>
    <path d="M-44.9 -199.8 L-45.15 -199.15 -46.4 -197.9 -47.5 -197.55 -47.55 -198.4 -46.65 -199.65 -44.9 -199.8 M-48.75 -197.1 L-49.05 -196.4 -49.5 -196.8 -48.75 -197.1" fill="#000000" fill-rule="evenodd" stroke="none"/>
    <path d="M-61.0 -181.9 Q-61.75 -182.55 -65.45 -193.0 L-70.55 -199.8 -65.65 -199.8 Q-61.95 -197.75 -60.05 -195.85 L-55.65 -191.9 -53.25 -188.95 -50.95 -185.3 -55.65 -184.55 Q-60.05 -183.15 -61.0 -181.9" fill="#fa420e" fill-rule="evenodd" stroke="none"/>
    <path d="M-49.05 -196.4 Q-50.25 -194.05 -50.1 -191.7 L-49.7 -188.95 -49.2 -187.8 -49.2 -187.75 -48.95 -187.55 Q-41.6 -182.2 -50.95 -185.3 L-53.25 -188.95 -55.65 -191.9 -60.05 -195.85 -60.45 -199.8 -51.4 -199.8 Q-50.9 -198.1 -49.5 -196.8 L-49.05 -196.4 M-110.85 -53.0 L-122.75 -51.95 -128.0 -51.95 Q-129.35 -52.05 -133.0 -50.05 L-135.65 -50.15 Q-138.1 -50.95 -139.3 -52.4 L-145.35 -60.25 -145.55 -60.5 -149.2 -66.15 Q-154.85 -75.35 -149.85 -71.0 L-148.85 -70.05 -147.7 -69.0 -147.25 -68.55 -146.95 -68.25 -144.5 -65.7 -142.95 -64.15 -141.5 -62.65 -138.0 -59.05 -134.2 -56.2 -128.95 -55.05 -113.8 -57.05 -110.2 -54.4 -109.35 -53.55 -109.4 -53.5 -109.55 -53.3 -110.3 -53.15 -110.85 -53.0 M-116.1 -61.95 L-116.7 -64.2 -116.35 -63.95 -114.9 -61.95 -115.75 -61.75 -116.1 -61.95 M-118.65 -66.95 Q-127.55 -56.05 -130.65 -61.55 L-131.7 -63.1 -132.55 -65.45 -135.05 -82.3 -135.1 -85.0 -135.15 -86.45 -135.15 -87.55 Q-135.05 -90.8 -134.5 -89.65 L-133.95 -89.05 -131.25 -81.0 -130.65 -79.25 -127.65 -66.95 -126.6 -65.15 Q-126.45 -63.35 -120.1 -69.2 L-119.35 -68.25 -118.65 -66.95 M-53.65 -193.05 L-53.55 -192.65 -51.75 -189.85 -49.2 -187.8 -51.75 -189.85 -53.55 -192.65 -53.65 -193.05 M-145.35 -60.25 L-145.35 -60.35 -145.55 -60.5 -145.35 -60.35 -145.35 -60.25 M-142.95 -64.15 L-143.4 -64.35 -144.5 -65.7 -143.4 -64.35 -142.95 -64.15 M-143.2 -64.0 L-142.8 -63.75 -143.2 -64.1 -143.2 -64.0 -143.85 -64.4 -143.2 -64.0 -143.2 -64.1 -142.8 -63.75 -142.75 -63.7 -142.55 -63.55 -142.5 -63.5 -141.5 -62.65 -142.5 -63.5 -142.55 -63.55 -142.75 -63.7 -142.8 -63.75 -143.2 -64.0 M-149.2 -66.15 L-149.3 -67.5 -148.45 -67.6 -145.45 -65.7 -148.45 -67.6 -149.3 -67.5 -149.2 -66.15 M-133.65 -74.75 L-133.75 -75.2 -133.8 -75.45 -133.75 -76.1 -133.8 -76.25 -133.85 -76.65 -133.85 -76.95 -134.2 -78.45 -134.2 -79.75 -134.5 -81.65 -134.5 -82.1 -134.5 -81.65 -134.2 -79.75 -134.2 -78.45 -133.85 -76.95 -133.85 -76.65 -133.8 -76.25 -133.75 -76.1 -133.8 -75.45 -133.65 -75.9 -133.75 -76.65 -133.75 -77.1 -133.65 -77.5 -133.75 -77.1 -133.75 -76.65 -133.65 -75.9 -133.8 -75.45 -133.75 -75.2 -133.65 -74.75 M-133.8 -76.25 L-133.85 -76.45 -133.85 -76.65 -133.85 -76.45 -133.8 -76.25 M-133.65 -77.8 L-133.65 -79.25 Q-134.2 -87.7 -131.25 -81.0 -134.2 -87.7 -133.65 -79.25 L-133.65 -77.8 M-134.6 -82.5 L-134.6 -83.15 -134.75 -83.75 -134.9 -85.2 -134.8 -85.85 -134.9 -85.2 -134.75 -83.75 -134.6 -83.15 -134.6 -82.5" fill="#fa410f" fill-rule="evenodd" stroke="none"/>
    <path d="M-49.15 -187.75 Q-37.7 -185.3 -34.55 -188.95 L-33.95 -190.3 -33.65 -192.35 Q-26.65 -176.65 -33.95 -164.5 -41.6 -152.4 -54.4 -156.0 -68.4 -157.6 -69.0 -142.7 -59.5 -108.8 -59.0 -108.7 L-56.1 -97.35 -54.15 -85.0 Q-53.05 -74.7 -53.45 -66.45 -53.65 -61.3 -54.7 -56.3 L-56.1 -52.05 Q-57.45 -48.4 -64.1 -38.55 L-65.8 -34.9 Q-66.7 -35.2 -63.55 -29.7 L-62.6 -26.5 -62.7 -23.5 Q-64.3 -16.7 -65.05 -15.85 L-66.25 -14.05 -68.55 -12.1 -70.25 -11.9 -71.55 -12.35 -71.75 -12.4 -73.25 -11.55 -74.6 -11.25 -76.55 -11.35 -77.75 -11.9 -78.65 -12.85 -79.3 -14.45 -79.2 -16.4 -77.75 -19.15 -77.8 -19.45 -78.05 -20.45 -77.95 -22.65 -75.8 -27.1 Q-73.7 -30.7 -72.0 -31.5 L-71.0 -33.7 Q-86.85 -36.85 -104.55 -51.85 L-105.1 -48.1 -105.65 -47.8 -106.35 -48.75 -106.5 -48.85 -107.15 -49.05 -108.4 -51.55 -108.5 -51.55 -109.25 -51.2 -109.85 -51.9 -110.85 -53.0 -110.3 -53.15 -109.55 -53.3 -109.4 -53.5 -109.35 -53.55 -110.2 -54.4 -113.8 -57.05 -113.9 -57.1 -114.6 -57.7 -114.65 -58.35 Q-116.25 -59.25 -116.95 -59.9 -118.4 -61.35 -116.1 -61.95 L-115.75 -61.75 -114.9 -61.95 -116.35 -63.95 -116.35 -64.1 -116.7 -64.3 -116.7 -64.4 -116.8 -64.55 -118.65 -66.95 -119.35 -68.25 -120.1 -69.2 Q-130.75 -85.25 -134.25 -99.75 L-134.8 -105.75 Q-134.35 -111.2 -132.35 -116.15 -128.9 -127.9 -120.65 -135.75 -134.25 -140.15 -136.95 -144.2 L-137.45 -145.05 -137.45 -146.35 -136.6 -147.25 -135.35 -147.7 -127.65 -148.1 -126.3 -148.65 -126.2 -148.9 -126.15 -148.95 -126.6 -149.3 -130.65 -151.45 Q-144.5 -157.65 -146.85 -164.25 -147.45 -168.95 -144.0 -169.35 -144.05 -170.15 -134.9 -167.7 L-133.4 -168.15 Q-151.6 -186.5 -149.1 -186.45 -150.45 -192.55 -139.95 -188.95 L-136.55 -187.45 -130.65 -183.2 -122.35 -175.1 Q-113.1 -164.35 -109.35 -161.25 L-107.55 -161.75 Q-101.6 -161.55 -102.0 -162.2 L-101.9 -162.4 -103.6 -163.65 -110.75 -167.65 Q-112.2 -168.4 -113.4 -170.4 L-113.5 -172.2 -112.05 -173.6 Q-109.15 -174.05 -103.7 -173.45 L-103.1 -173.9 Q-117.15 -183.75 -115.0 -187.95 -106.35 -190.25 -92.2 -177.95 -85.3 -170.75 -85.6 -154.1 -68.55 -164.5 -61.0 -181.9 -60.05 -183.15 -55.65 -184.55 L-50.95 -185.3 Q-41.6 -182.2 -48.95 -187.55 L-49.2 -187.75 -49.15 -187.75 -48.95 -187.55 -49.15 -187.75 M-116.7 -64.2 L-116.7 -64.3 -116.35 -64.1 -116.35 -63.95 -116.7 -64.2 M-77.3 -136.85 Q-85.15 -138.1 -91.45 -145.05 L-96.3 -149.35 -96.35 -149.3 -109.35 -161.25 -96.35 -149.3 -96.3 -149.35 -85.6 -154.1 -96.3 -149.35 -91.45 -145.05 Q-85.15 -138.1 -77.3 -136.85 M-120.65 -135.75 L-113.6 -134.25 -101.9 -132.55 Q-91.05 -130.55 -87.0 -128.65 -91.05 -130.55 -101.9 -132.55 L-113.6 -134.25 -120.65 -135.75 M-126.2 -148.9 L-125.65 -148.55 -126.2 -148.9 M-101.6 -162.6 L-101.9 -162.4 -101.6 -162.6 M-103.1 -173.9 L-102.55 -174.1 -103.1 -173.9 M-116.7 -64.4 L-116.7 -64.55 -116.8 -64.55 -116.7 -64.55 -116.7 -64.4 M-110.75 -60.55 L-110.85 -60.25 -112.95 -59.6 -114.9 -61.95 -112.95 -59.6 -110.85 -60.25 -110.75 -60.55 M-116.95 -59.9 L-116.7 -61.0 -116.95 -59.9 M-114.65 -58.35 L-114.25 -58.85 -112.9 -59.5 -112.95 -59.6 -112.9 -59.5 -114.25 -58.85 -114.65 -58.35 M-113.9 -57.1 L-113.8 -58.2 -113.9 -57.1 M-104.65 -55.15 L-104.85 -52.25 -104.55 -51.85 -104.85 -52.25 -104.65 -55.15 M-108.6 -51.75 L-109.55 -53.3 -108.6 -51.75 -108.4 -51.55 -108.6 -51.75 -108.5 -51.55 -108.6 -51.75 M-109.4 -53.5 L-108.0 -51.75 -106.5 -48.85 -108.0 -51.75 -109.4 -53.5 M-109.85 -51.9 L-110.3 -53.15 -109.85 -51.9 M-71.55 -12.35 L-72.3 -13.4 Q-74.0 -16.2 -74.0 -18.1 L-72.7 -26.7 -74.0 -18.1 Q-74.0 -16.2 -72.3 -13.4 L-71.55 -12.35 M-70.05 -33.2 L-71.0 -33.7 -70.05 -33.2 M-74.0 -28.1 L-74.0 -26.9 -74.75 -24.35 -75.4 -22.85 -77.8 -19.45 -75.4 -22.85 -74.75 -24.35 -74.0 -26.9 -74.0 -28.1" fill="#ffffff" fill-rule="evenodd" stroke="none"/>
    <path d="M-44.9 -199.8 L-45.15 -199.15 -46.4 -197.9 -47.5 -197.55 -47.55 -198.4 -48.75 -197.1 -49.05 -196.4 Q-50.25 -194.05 -50.1 -191.7 L-49.7 -188.95 -49.2 -187.8 -49.15 -187.75 Q-37.7 -185.3 -34.55 -188.95 L-33.95 -190.3 -33.65 -192.35 Q-33.1 -195.95 -36.0 -199.65 L-44.9 -199.8 -46.65 -199.65 -47.55 -198.4 M-61.0 -181.9 Q-61.75 -182.55 -65.45 -193.0 L-70.55 -199.8 -65.65 -199.8 Q-61.95 -197.75 -60.05 -195.85 L-60.45 -199.8 -51.4 -199.8 Q-50.9 -198.1 -49.5 -196.8 L-48.75 -197.1 M-33.65 -192.35 Q-26.65 -176.65 -33.95 -164.5 -41.6 -152.4 -54.4 -156.0 -68.4 -157.6 -69.0 -142.7 -59.5 -108.8 -59.0 -108.7 L-56.1 -97.35 -54.15 -85.0 Q-53.05 -74.7 -53.45 -66.45 -53.65 -61.3 -54.7 -56.3 L-56.1 -52.05 Q-57.45 -48.4 -64.1 -38.55 L-65.8 -34.9 Q-66.7 -35.2 -63.55 -29.7 L-62.6 -26.5 -62.7 -23.5 Q-64.3 -16.7 -65.05 -15.85 L-66.25 -14.05 -68.55 -12.1 -70.25 -11.9 -71.55 -12.35 -71.75 -12.4 -73.25 -11.55 -74.6 -11.25 -76.55 -11.35 -77.75 -11.9 -78.65 -12.85 -79.3 -14.45 -79.2 -16.4 -77.75 -19.15 -77.8 -19.45 -78.05 -20.45 -77.95 -22.65 -75.8 -27.1 Q-73.7 -30.7 -72.0 -31.5 L-71.0 -33.7 Q-86.85 -36.85 -104.55 -51.85 L-105.1 -48.1 -105.65 -47.8 -106.35 -48.75 -106.5 -48.85 -107.15 -49.05 -108.4 -51.55 -108.5 -51.55 -109.25 -51.2 -109.85 -51.9 -110.85 -53.0 -122.75 -51.95 -128.0 -51.95 Q-129.35 -52.05 -133.0 -50.05 L-135.65 -50.15 Q-138.1 -50.95 -139.3 -52.4 L-145.35 -60.25 -145.55 -60.5 -149.2 -66.15 Q-154.85 -75.35 -149.85 -71.0 L-148.85 -70.05 -147.7 -69.0 -147.25 -68.55 -146.95 -68.25 -144.5 -65.7 -142.95 -64.15 -141.5 -62.65 -138.0 -59.05 -134.2 -56.2 -128.95 -55.05 -113.8 -57.05 -113.9 -57.1 -114.6 -57.7 -114.65 -58.35 Q-116.25 -59.25 -116.95 -59.9 -118.4 -61.35 -116.1 -61.95 L-116.7 -64.2 -116.7 -64.3 -116.7 -64.4 -116.8 -64.55 -118.65 -66.95 Q-127.55 -56.05 -130.65 -61.55 L-131.7 -63.1 -132.55 -65.45 -135.05 -82.3 -135.1 -85.0 -135.15 -86.45 -135.15 -87.55 Q-135.05 -90.8 -134.5 -89.65 L-133.95 -89.05 -131.25 -81.0 -130.65 -79.25 -127.65 -66.95 -126.6 -65.15 Q-126.45 -63.35 -120.1 -69.2 -130.75 -85.25 -134.25 -99.75 L-134.8 -105.75 Q-134.35 -111.2 -132.35 -116.15 -128.9 -127.9 -120.65 -135.75 -134.25 -140.15 -136.95 -144.2 L-137.45 -145.05 -137.45 -146.35 -136.6 -147.25 -135.35 -147.7 -127.65 -148.1 -126.3 -148.65 -126.2 -148.9 -126.15 -148.95 -126.6 -149.3 -130.65 -151.45 Q-144.5 -157.65 -146.85 -164.25 -147.45 -168.95 -144.0 -169.35 -144.05 -170.15 -134.9 -167.7 L-133.4 -168.15 Q-151.6 -186.5 -149.1 -186.45 -150.45 -192.55 -139.95 -188.95 L-136.55 -187.45 -130.65 -183.2 -122.35 -175.1 Q-113.1 -164.35 -109.35 -161.25 L-107.55 -161.75 Q-101.6 -161.55 -102.0 -162.2 L-101.9 -162.4 -103.6 -163.65 -110.75 -167.65 Q-112.2 -168.4 -113.4 -170.4 L-113.5 -172.2 -112.05 -173.6 Q-109.15 -174.05 -103.7 -173.45 L-103.1 -173.9 Q-117.15 -183.75 -115.0 -187.95 -106.35 -190.25 -92.2 -177.95 -85.3 -170.75 -85.6 -154.1 -68.55 -164.5 -61.0 -181.9 -60.05 -183.15 -55.65 -184.55 L-50.95 -185.3 -53.25 -188.95 -55.65 -191.9 -60.05 -195.85 M-49.5 -196.8 L-49.05 -196.4 M-49.15 -187.75 L-49.2 -187.75 -48.95 -187.55 -49.15 -187.75 M-49.2 -187.75 L-49.2 -187.8 -51.75 -189.85 -53.55 -192.65 -53.65 -193.05 M-48.95 -187.55 Q-41.6 -182.2 -50.95 -185.3 M-102.55 -174.1 L-103.1 -173.9 M-101.9 -162.4 L-101.6 -162.6 M-109.35 -161.25 L-96.35 -149.3 -96.3 -149.35 -85.6 -154.1 M-125.65 -148.55 L-126.2 -148.9 M-87.0 -128.65 Q-91.05 -130.55 -101.9 -132.55 L-113.6 -134.25 -120.65 -135.75 M-96.3 -149.35 L-91.45 -145.05 Q-85.15 -138.1 -77.3 -136.85 M-118.65 -66.95 L-119.35 -68.25 -120.1 -69.2 M-116.8 -64.55 L-116.7 -64.55 -116.7 -64.4 M-116.35 -63.95 L-114.9 -61.95 -112.95 -59.6 -110.85 -60.25 -110.75 -60.55 M-116.7 -64.3 L-116.35 -64.1 -116.35 -63.95 -116.7 -64.2 M-113.8 -58.2 L-113.9 -57.1 M-112.95 -59.6 L-112.9 -59.5 -114.25 -58.85 -114.65 -58.35 M-116.7 -61.0 L-116.95 -59.9 M-110.85 -53.0 L-110.3 -53.15 -109.55 -53.3 -109.4 -53.5 -109.35 -53.55 -110.2 -54.4 -113.8 -57.05 M-108.4 -51.55 L-108.6 -51.75 -108.5 -51.55 M-110.3 -53.15 L-109.85 -51.9 M-106.5 -48.85 L-108.0 -51.75 -109.4 -53.5 M-109.55 -53.3 L-108.6 -51.75 M-104.55 -51.85 L-104.85 -52.25 -104.65 -55.15 M-116.1 -61.95 L-115.75 -61.75 -114.9 -61.95 M-134.8 -85.85 L-134.9 -85.2 -134.75 -83.75 -134.6 -83.15 -134.6 -82.5 M-134.5 -82.1 L-134.5 -81.65 -134.2 -79.75 -134.2 -78.45 -133.85 -76.95 -133.85 -76.65 -133.8 -76.25 -133.75 -76.1 -133.8 -75.45 -133.65 -75.9 -133.75 -76.65 -133.75 -77.1 -133.65 -77.5 M-131.25 -81.0 Q-134.2 -87.7 -133.65 -79.25 L-133.65 -77.8 M-133.85 -76.65 L-133.85 -76.45 -133.8 -76.25 M-133.8 -75.45 L-133.75 -75.2 -133.65 -74.75 M-145.45 -65.7 L-148.45 -67.6 -149.3 -67.5 -149.2 -66.15 M-143.85 -64.4 L-143.2 -64.0 -143.2 -64.1 -142.8 -63.75 -142.75 -63.7 -142.55 -63.55 -142.5 -63.5 -141.5 -62.65 M-142.8 -63.75 L-143.2 -64.0 M-144.5 -65.7 L-143.4 -64.35 -142.95 -64.15 M-145.55 -60.5 L-145.35 -60.35 -145.35 -60.25 M-77.8 -19.45 L-75.4 -22.85 -74.75 -24.35 -74.0 -26.9 -74.0 -28.1 M-71.0 -33.7 L-70.05 -33.2 M-72.7 -26.7 L-74.0 -18.1 Q-74.0 -16.2 -72.3 -13.4 L-71.55 -12.35" fill="none" stroke="#000000" stroke-linecap="round" stroke-linejoin="round" stroke-width="0.05"/>
  </g>
</svg>
