<?xml version="1.0" encoding="UTF-8" standalone="no"?>
<svg xmlns:xlink="http://www.w3.org/1999/xlink" height="187.45px" width="122.8px" xmlns="http://www.w3.org/2000/svg">
  <g transform="matrix(1.0, 0.0, 0.0, 1.0, 153.55, 199.8)">
    <path d="M-120.65 -69.85 Q-137.35 -98.05 -135.05 -106.35 -131.5 -130.55 -112.35 -142.05 -126.6 -148.8 -132.8 -157.2 L-133.4 -158.9 -133.35 -160.25 -132.15 -161.05 Q-120.15 -158.35 -121.25 -160.05 L-133.65 -171.25 Q-138.45 -176.0 -138.95 -180.95 -138.65 -185.4 -135.45 -185.2 L-132.15 -184.35 -126.3 -181.05 -124.8 -180.95 -125.0 -182.1 -131.65 -192.55 -135.45 -199.8 -122.15 -199.8 Q-118.5 -195.45 -114.6 -188.95 L-112.05 -184.7 Q-101.65 -182.9 -92.3 -175.1 -87.1 -170.6 -85.85 -153.45 L-85.7 -153.45 Q-68.15 -164.0 -62.05 -181.9 -60.05 -183.65 -58.0 -184.35 L-52.15 -185.95 Q-42.8 -183.75 -49.4 -187.95 -46.85 -187.05 -38.95 -188.95 -36.8 -189.25 -35.65 -190.85 L-35.0 -194.35 Q-26.6 -182.6 -34.8 -165.1 -39.55 -158.3 -44.05 -157.4 -45.2 -156.8 -49.4 -156.55 L-58.55 -156.75 -61.2 -155.7 -63.55 -154.3 Q-65.8 -152.6 -66.75 -150.05 L-68.35 -144.85 -68.55 -142.35 -68.25 -140.65 Q-66.0 -134.9 -61.2 -116.1 L-58.65 -108.2 -56.0 -97.55 -53.95 -84.35 Q-52.85 -71.55 -53.25 -67.3 L-54.3 -58.15 Q-54.25 -56.75 -56.1 -51.95 -55.45 -51.5 -64.6 -38.0 L-66.1 -34.7 Q-62.65 -28.35 -63.25 -24.35 L-64.6 -19.8 -66.3 -16.05 -68.8 -13.4 -70.55 -12.65 -72.0 -12.65 -73.15 -13.2 -73.25 -13.25 -75.15 -12.4 -77.2 -12.35 -78.6 -12.65 -79.5 -13.25 -80.35 -14.35 -80.8 -15.6 -80.8 -17.0 -80.15 -18.6 -78.9 -20.2 -78.9 -20.3 -79.1 -22.75 -78.35 -25.0 -75.25 -29.45 -73.25 -31.15 -73.15 -31.3 -72.3 -31.95 -71.25 -33.95 -71.2 -34.05 Q-87.2 -37.7 -104.45 -51.95 L-105.1 -52.25 -105.3 -48.75 -105.95 -48.2 -106.55 -49.05 -106.8 -49.15 -107.45 -49.5 -108.7 -51.95 -108.85 -51.95 -109.25 -51.55 -109.55 -51.6 -110.2 -52.3 -111.05 -53.3 -110.6 -53.45 -109.75 -53.75 -109.8 -53.8 -110.6 -54.95 -113.6 -56.85 -113.8 -57.3 -114.05 -57.35 -114.2 -57.5 -114.9 -58.15 -115.0 -58.65 -117.0 -60.2 Q-118.8 -61.8 -117.15 -61.95 L-116.7 -61.75 -115.2 -62.4 -120.65 -69.85 M-111.05 -60.9 L-111.2 -60.55 -113.25 -60.0 -113.2 -60.05 -115.2 -62.4 -113.2 -60.05 -113.25 -60.0 -111.2 -60.55 -111.05 -60.9 M-114.05 -58.85 L-114.05 -58.55 -114.2 -57.5 -114.05 -58.55 -114.05 -58.85 M-115.0 -58.65 L-113.5 -59.85 -113.25 -60.0 -113.5 -59.85 -115.0 -58.65 M-76.55 -135.75 Q-82.4 -137.55 -87.1 -145.05 L-91.15 -150.95 -91.25 -150.9 -104.55 -171.55 -104.0 -171.9 -104.55 -171.55 -91.25 -150.9 -91.15 -150.95 -85.85 -153.35 -85.85 -153.45 -85.85 -153.35 -91.15 -150.95 -87.1 -145.05 Q-82.4 -137.55 -76.55 -135.75 M-86.9 -128.75 Q-87.1 -129.5 -90.75 -131.65 L-104.0 -138.65 -112.1 -141.95 -104.0 -138.65 -90.75 -131.65 Q-87.1 -129.5 -86.9 -128.75 M-104.55 -171.55 L-112.05 -184.7 -104.55 -171.55 M-85.85 -153.35 L-85.7 -153.45 -85.85 -153.35 M-105.1 -52.25 L-105.0 -55.45 -105.1 -52.25 M-110.2 -52.3 L-110.6 -53.45 -110.2 -52.3 M-108.85 -52.05 L-109.75 -53.75 -108.85 -52.05 -108.7 -51.95 -108.85 -52.05 -108.85 -51.95 -108.85 -52.05 M-109.8 -53.8 L-108.3 -52.15 -106.8 -49.15 -108.3 -52.15 -109.8 -53.8 M-117.0 -60.2 L-117.15 -60.9 -116.95 -61.4 -117.15 -60.9 -117.0 -60.2 M-73.15 -13.2 Q-76.45 -16.85 -73.9 -24.35 L-73.25 -27.45 -73.9 -24.35 Q-76.45 -16.85 -73.15 -13.2 M-71.25 -33.95 L-70.7 -33.65 -71.25 -33.95 M-74.55 -28.75 L-74.6 -27.25 -75.9 -24.35 -78.9 -20.3 -75.9 -24.35 -74.6 -27.25 -74.55 -28.75" fill="#ffffff" fill-rule="evenodd" stroke="none"/>
    <path d="M-62.05 -181.9 Q-66.75 -192.8 -67.6 -193.0 L-74.0 -199.8 -69.0 -199.6 Q-66.0 -198.6 -61.85 -195.65 L-55.85 -191.05 -52.15 -185.95 -58.0 -184.35 Q-60.05 -183.65 -62.05 -181.9" fill="#fa420e" fill-rule="evenodd" stroke="none"/>
    <path d="M-61.85 -195.65 L-62.6 -199.25 -62.6 -199.8 -58.45 -199.8 -57.9 -199.8 -53.1 -199.8 -51.55 -197.75 -50.9 -197.1 Q-52.55 -190.4 -50.55 -188.95 L-50.35 -188.5 Q-50.0 -188.15 -49.4 -187.95 -42.8 -183.75 -52.15 -185.95 L-55.85 -191.05 -61.85 -195.65 M-111.05 -53.3 L-124.25 -51.95 -128.5 -51.95 Q-129.5 -52.2 -133.4 -49.85 L-135.9 -49.85 Q-139.1 -50.9 -139.3 -51.55 L-146.2 -59.3 -146.35 -59.4 -149.4 -63.55 -150.45 -65.35 -153.55 -70.7 -153.25 -71.2 -152.15 -70.9 -149.2 -68.25 -148.1 -67.2 -147.55 -66.7 -145.7 -64.9 -145.1 -64.35 -144.45 -63.8 -143.75 -63.1 -143.3 -62.7 -143.05 -62.5 -142.65 -62.1 -142.55 -62.0 -142.3 -61.8 -141.8 -61.3 -141.6 -61.1 Q-134.0 -54.25 -134.2 -55.8 -129.7 -54.65 -127.8 -55.15 L-114.05 -57.35 -113.8 -57.3 -113.6 -56.85 -110.6 -54.95 -109.8 -53.8 -109.75 -53.75 -110.6 -53.45 -111.05 -53.3 M-117.15 -61.95 L-118.85 -65.9 -120.0 -66.65 -122.25 -66.25 Q-126.3 -64.1 -129.05 -63.65 L-130.85 -63.65 -132.5 -64.3 -134.2 -66.3 Q-135.3 -68.35 -135.35 -69.95 L-135.8 -78.6 -135.95 -82.2 -136.3 -88.7 -136.0 -91.4 Q-135.05 -97.5 -133.65 -90.2 L-132.6 -85.85 Q-131.2 -79.15 -130.45 -71.45 L-129.7 -69.2 Q-129.55 -66.55 -120.65 -69.85 L-115.2 -62.4 -116.7 -61.75 -117.15 -61.95 M-57.8 -199.4 L-57.9 -199.8 -57.8 -199.4 M-58.35 -199.45 L-58.45 -199.8 -58.35 -199.45 M-50.35 -188.15 L-51.3 -188.95 -54.5 -192.15 -55.25 -193.3 -55.35 -193.6 -55.25 -193.3 -54.5 -192.15 -51.3 -188.95 -50.35 -188.15 M-146.2 -59.3 L-146.2 -59.4 -146.35 -59.4 -146.2 -59.4 -146.2 -59.3 M-143.3 -62.7 L-144.15 -63.1 -143.1 -62.5 -143.05 -62.5 -143.1 -62.5 -142.65 -62.1 -143.1 -62.5 -144.15 -63.1 -144.2 -63.35 -143.75 -63.1 -144.2 -63.35 -144.15 -63.1 -143.3 -62.7 M-144.85 -63.45 L-144.3 -63.45 -145.15 -64.2 -144.45 -63.8 -145.15 -64.2 -144.3 -63.45 -144.85 -63.45 M-150.45 -65.35 L-150.35 -66.3 -149.8 -66.45 -146.4 -64.6 -149.8 -66.45 -150.35 -66.3 -150.45 -65.35 M-135.7 -80.4 L-135.8 -82.95 -135.95 -82.2 -135.8 -82.95 -135.9 -89.1 -135.8 -82.95 -135.7 -80.4 -135.45 -82.2 -135.4 -83.15 Q-134.85 -92.25 -132.9 -86.15 L-132.6 -85.85 -132.9 -86.15 Q-134.85 -92.25 -135.4 -83.15 L-135.45 -82.2 -135.7 -80.4 -135.65 -79.25 -135.8 -78.6 -135.65 -79.25 -135.7 -80.4 M-135.9 -89.55 L-135.75 -90.2 -136.0 -91.4 -135.75 -90.2 -135.9 -89.55" fill="#fa410f" fill-rule="evenodd" stroke="none"/>
    <path d="M-50.25 -198.3 L-48.95 -199.8 Q-49.85 -197.9 -47.25 -199.8 L-36.4 -199.8 Q-34.95 -197.45 -35.0 -194.35 L-35.65 -190.85 Q-36.8 -189.25 -38.95 -188.95 -46.85 -187.05 -49.4 -187.95 -50.0 -188.15 -50.35 -188.5 L-50.55 -188.95 Q-52.55 -190.4 -50.9 -197.1 L-50.25 -198.3" fill="#ff7a16" fill-rule="evenodd" stroke="none"/>
    <path d="M-51.55 -197.75 L-50.25 -198.3 -50.9 -197.1 -51.55 -197.75 M-48.95 -199.8 L-47.25 -199.8 Q-49.85 -197.9 -48.95 -199.8" fill="#000000" fill-rule="evenodd" stroke="none"/>
    <path d="M-120.65 -69.85 Q-137.35 -98.05 -135.05 -106.35 -131.5 -130.55 -112.35 -142.05 -126.6 -148.8 -132.8 -157.2 L-133.4 -158.9 -133.35 -160.25 -132.15 -161.05 Q-120.15 -158.35 -121.25 -160.05 L-133.65 -171.25 Q-138.45 -176.0 -138.95 -180.95 -138.65 -185.4 -135.45 -185.2 L-132.15 -184.35 -126.3 -181.05 -124.8 -180.95 -125.0 -182.1 -131.65 -192.55 -135.45 -199.8 -122.15 -199.8 Q-118.5 -195.45 -114.6 -188.95 L-112.05 -184.7 Q-101.65 -182.9 -92.3 -175.1 -87.1 -170.6 -85.85 -153.45 L-85.7 -153.45 Q-68.15 -164.0 -62.05 -181.9 -66.75 -192.8 -67.6 -193.0 L-74.0 -199.8 -69.0 -199.6 Q-66.0 -198.6 -61.85 -195.65 L-62.6 -199.25 -62.6 -199.8 -58.45 -199.8 -57.9 -199.8 -53.1 -199.8 -51.55 -197.75 -50.25 -198.3 -48.95 -199.8 -47.25 -199.8 -36.4 -199.8 Q-34.95 -197.45 -35.0 -194.35 -26.6 -182.6 -34.8 -165.1 -39.55 -158.3 -44.05 -157.4 -45.2 -156.8 -49.4 -156.55 L-58.55 -156.75 -61.2 -155.7 -63.55 -154.3 Q-65.8 -152.6 -66.75 -150.05 L-68.35 -144.85 -68.55 -142.35 -68.25 -140.65 Q-66.0 -134.9 -61.2 -116.1 L-58.65 -108.2 -56.0 -97.55 -53.95 -84.35 Q-52.85 -71.55 -53.25 -67.3 L-54.3 -58.15 Q-54.25 -56.75 -56.1 -51.95 -55.45 -51.5 -64.6 -38.0 L-66.1 -34.7 Q-62.65 -28.35 -63.25 -24.35 L-64.6 -19.8 -66.3 -16.05 -68.8 -13.4 -70.55 -12.65 -72.0 -12.65 -73.15 -13.2 -73.25 -13.25 -75.15 -12.4 -77.2 -12.35 -78.6 -12.65 -79.5 -13.25 -80.35 -14.35 -80.8 -15.6 -80.8 -17.0 -80.15 -18.6 -78.9 -20.2 -78.9 -20.3 -79.1 -22.75 -78.35 -25.0 -75.25 -29.45 -73.25 -31.15 -73.15 -31.3 -72.3 -31.95 -71.25 -33.95 -71.2 -34.05 Q-87.2 -37.7 -104.45 -51.95 L-105.1 -52.25 -105.3 -48.75 -105.95 -48.2 -106.55 -49.05 -106.8 -49.15 -107.45 -49.5 -108.7 -51.95 -108.85 -51.95 -109.25 -51.55 -109.55 -51.6 -110.2 -52.3 -111.05 -53.3 -124.25 -51.95 -128.5 -51.95 Q-129.5 -52.2 -133.4 -49.85 L-135.9 -49.85 Q-139.1 -50.9 -139.3 -51.55 L-146.2 -59.3 -146.35 -59.4 -149.4 -63.55 -150.45 -65.35 -153.55 -70.7 -153.25 -71.2 -152.15 -70.9 -149.2 -68.25 -148.1 -67.2 -147.55 -66.7 -145.7 -64.9 -145.1 -64.35 -144.45 -63.8 -143.75 -63.1 -143.3 -62.7 -143.05 -62.5 -142.65 -62.1 -142.55 -62.0 -142.3 -61.8 -141.8 -61.3 -141.6 -61.1 Q-134.0 -54.25 -134.2 -55.8 -129.7 -54.65 -127.8 -55.15 L-114.05 -57.35 -114.2 -57.5 -114.9 -58.15 -115.0 -58.65 -117.0 -60.2 Q-118.8 -61.8 -117.15 -61.95 L-118.85 -65.9 -120.0 -66.65 -122.25 -66.25 Q-126.3 -64.1 -129.05 -63.65 L-130.85 -63.65 -132.5 -64.3 -134.2 -66.3 Q-135.3 -68.35 -135.35 -69.95 L-135.8 -78.6 -135.95 -82.2 -136.3 -88.7 -136.0 -91.4 Q-135.05 -97.5 -133.65 -90.2 L-132.6 -85.85 Q-131.2 -79.15 -130.45 -71.45 L-129.7 -69.2 Q-129.55 -66.55 -120.65 -69.85 L-115.2 -62.4 -113.2 -60.05 -113.25 -60.0 -111.2 -60.55 -111.05 -60.9 M-57.9 -199.8 L-57.8 -199.4 M-47.25 -199.8 Q-49.85 -197.9 -48.95 -199.8 M-58.45 -199.8 L-58.35 -199.45 M-35.0 -194.35 L-35.65 -190.85 Q-36.8 -189.25 -38.95 -188.95 -46.85 -187.05 -49.4 -187.95 -42.8 -183.75 -52.15 -185.95 L-58.0 -184.35 Q-60.05 -183.65 -62.05 -181.9 M-50.9 -197.1 Q-52.55 -190.4 -50.55 -188.95 L-50.35 -188.5 Q-50.0 -188.15 -49.4 -187.95 M-51.55 -197.75 L-50.9 -197.1 -50.25 -198.3 M-52.15 -185.95 L-55.85 -191.05 -61.85 -195.65 M-55.35 -193.6 L-55.25 -193.3 -54.5 -192.15 -51.3 -188.95 -50.35 -188.15 M-104.0 -171.9 L-104.55 -171.55 -91.25 -150.9 -91.15 -150.95 -85.85 -153.35 -85.85 -153.45 M-85.7 -153.45 L-85.85 -153.35 M-112.05 -184.7 L-104.55 -171.55 M-112.1 -141.95 L-104.0 -138.65 -90.75 -131.65 Q-87.1 -129.5 -86.9 -128.75 M-91.15 -150.95 L-87.1 -145.05 Q-82.4 -137.55 -76.55 -135.75 M-113.25 -60.0 L-113.5 -59.85 -115.0 -58.65 M-114.2 -57.5 L-114.05 -58.55 -114.05 -58.85 M-111.05 -53.3 L-110.6 -53.45 -109.75 -53.75 -109.8 -53.8 -110.6 -54.95 -113.6 -56.85 -113.8 -57.3 -114.05 -57.35 M-116.95 -61.4 L-117.15 -60.9 -117.0 -60.2 M-108.7 -51.95 L-108.85 -52.05 -108.85 -51.95 M-106.8 -49.15 L-108.3 -52.15 -109.8 -53.8 M-109.75 -53.75 L-108.85 -52.05 M-110.6 -53.45 L-110.2 -52.3 M-105.0 -55.45 L-105.1 -52.25 M-117.15 -61.95 L-116.7 -61.75 -115.2 -62.4 M-136.0 -91.4 L-135.75 -90.2 -135.9 -89.55 M-135.95 -82.2 L-135.8 -82.95 -135.9 -89.1 M-132.6 -85.85 L-132.9 -86.15 Q-134.85 -92.25 -135.4 -83.15 L-135.45 -82.2 -135.7 -80.4 -135.65 -79.25 -135.8 -78.6 M-135.8 -82.95 L-135.7 -80.4 M-146.4 -64.6 L-149.8 -66.45 -150.35 -66.3 -150.45 -65.35 M-144.45 -63.8 L-145.15 -64.2 -144.3 -63.45 -144.85 -63.45 M-143.05 -62.5 L-143.1 -62.5 -142.65 -62.1 M-143.1 -62.5 L-144.15 -63.1 -144.2 -63.35 -143.75 -63.1 M-144.15 -63.1 L-143.3 -62.7 M-146.35 -59.4 L-146.2 -59.4 -146.2 -59.3 M-78.9 -20.3 L-75.9 -24.35 -74.6 -27.25 -74.55 -28.75 M-70.7 -33.65 L-71.25 -33.95 M-73.25 -27.45 L-73.9 -24.35 Q-76.45 -16.85 -73.15 -13.2" fill="none" stroke="#000000" stroke-linecap="round" stroke-linejoin="round" stroke-width="0.05"/>
  </g>
</svg>
