<?xml version="1.0" encoding="UTF-8" standalone="no"?>
<svg xmlns:xlink="http://www.w3.org/1999/xlink" height="188.95px" width="121.75px" xmlns="http://www.w3.org/2000/svg">
  <g transform="matrix(1.0, 0.0, 0.0, 1.0, 154.2, 199.8)">
    <path d="M-119.25 -67.5 L-119.15 -67.5 Q-138.65 -97.75 -133.85 -111.8 -125.3 -140.35 -101.6 -146.85 L-102.85 -148.65 -105.0 -150.8 Q-106.65 -152.2 -109.35 -153.15 L-110.85 -154.65 -110.55 -156.2 -109.9 -156.85 -106.7 -158.15 -109.75 -161.25 Q-119.25 -163.0 -114.8 -167.1 -117.1 -172.15 -114.45 -172.4 -128.75 -181.25 -114.9 -181.25 -122.1 -187.45 -118.85 -191.5 L-117.65 -192.15 -115.5 -192.2 -107.0 -189.6 -105.65 -189.65 -105.5 -190.1 Q-114.05 -199.55 -113.6 -199.8 L-97.1 -199.8 Q-94.0 -196.95 -89.65 -188.95 -85.4 -179.8 -81.65 -155.75 L-81.65 -155.7 Q-69.7 -164.2 -63.9 -183.05 -62.7 -184.5 -59.4 -186.15 L-54.3 -187.95 -49.4 -187.55 -48.75 -188.1 -49.6 -188.95 -52.45 -190.2 -52.5 -190.35 -52.7 -190.75 Q-51.4 -188.7 -39.9 -192.75 -38.35 -193.7 -37.9 -195.2 L-37.55 -198.2 Q-27.95 -186.75 -36.4 -167.5 L-39.6 -163.45 -42.9 -161.05 Q-45.2 -158.9 -58.75 -158.15 -61.6 -156.95 -63.75 -155.05 L-65.8 -152.5 -67.6 -147.5 -68.25 -144.4 -68.15 -141.3 Q-59.6 -109.05 -58.85 -108.3 L-56.65 -99.25 -55.0 -90.3 -53.75 -74.85 -53.85 -65.45 Q-53.9 -61.75 -55.45 -55.05 L-58.65 -47.5 -65.15 -37.55 -66.75 -33.95 Q-66.85 -32.85 -64.1 -28.1 L-63.55 -25.75 Q-63.3 -23.7 -64.1 -21.35 L-66.0 -15.4 Q-67.05 -13.45 -68.65 -12.1 L-69.95 -11.5 -71.4 -11.35 -72.6 -12.0 -75.4 -10.85 -77.5 -10.85 -78.65 -11.35 -79.75 -12.4 -80.35 -14.7 -80.05 -16.4 -78.65 -18.75 -78.7 -18.8 -79.0 -20.0 -78.8 -22.65 -75.8 -28.2 Q-71.95 -31.35 -71.85 -33.1 L-71.85 -33.2 Q-87.75 -36.6 -105.3 -52.05 L-105.3 -52.0 -105.7 -48.65 -106.3 -48.0 -106.7 -48.2 -107.15 -49.0 -107.25 -49.05 -108.05 -49.6 -109.15 -51.85 -109.25 -51.85 -109.7 -51.4 -110.2 -51.6 -110.6 -52.15 -111.45 -53.25 -111.05 -53.35 -110.2 -53.65 Q-110.6 -54.85 -114.15 -57.3 L-114.25 -57.3 -114.4 -57.45 -115.3 -58.35 -115.3 -58.65 -114.65 -59.4 -113.75 -59.85 -113.6 -60.0 -111.45 -60.7 -113.6 -60.0 -113.75 -59.85 -114.65 -59.4 -115.3 -58.65 -116.35 -59.2 -116.6 -59.4 -116.8 -59.5 -117.25 -60.15 -117.15 -61.55 -115.5 -62.4 -118.95 -67.15 -119.25 -67.5 M-119.15 -67.5 L-118.95 -67.15 -119.15 -67.5 M-87.0 -130.15 L-87.3 -131.7 -97.8 -148.3 -101.6 -146.85 -97.8 -148.3 -97.75 -148.35 -106.7 -158.15 -97.75 -148.35 -97.8 -148.3 -87.3 -131.7 -87.0 -130.15 M-109.75 -161.25 L-112.75 -164.45 -114.6 -167.0 -114.8 -167.1 -114.6 -167.0 -112.75 -164.45 -109.75 -161.25 M-114.45 -172.4 L-112.65 -172.6 -111.05 -172.4 -106.7 -171.35 -105.2 -171.35 -104.55 -171.7 Q-103.8 -171.6 -107.75 -175.3 L-114.9 -181.25 -107.75 -175.3 Q-103.8 -171.6 -104.55 -171.7 L-105.2 -171.35 -106.7 -171.35 -111.05 -172.4 -112.65 -172.6 -114.45 -172.4 M-75.25 -133.85 L-75.6 -134.05 Q-78.25 -135.45 -80.05 -145.05 L-81.65 -155.7 -80.05 -145.05 Q-78.25 -135.45 -75.6 -134.05 L-75.25 -133.85 M-115.5 -62.4 L-113.5 -60.05 -113.6 -60.0 -113.5 -60.05 -115.5 -62.4 M-114.35 -58.45 L-114.4 -57.45 -114.35 -58.45 M-105.3 -55.35 L-105.3 -52.05 -105.3 -55.35 M-110.15 -53.65 L-108.5 -51.75 -107.25 -49.05 -108.5 -51.75 -110.15 -53.65 -109.25 -51.95 -109.25 -51.85 -109.25 -51.95 -110.15 -53.65 -110.2 -53.65 -110.15 -53.65 M-109.25 -51.95 L-109.15 -51.85 -109.25 -51.95 M-110.6 -52.15 L-110.6 -52.6 -111.05 -53.35 -110.6 -52.6 -110.6 -52.15 M-78.7 -18.8 L-76.3 -22.45 -75.6 -24.35 -74.95 -27.25 -75.6 -24.35 -76.3 -22.45 -78.7 -18.8 M-71.85 -33.1 L-71.35 -32.8 -71.85 -33.1 M-72.6 -12.0 L-73.7 -13.4 Q-76.1 -15.15 -73.9 -24.35 L-73.7 -25.95 -73.7 -26.4 -73.7 -25.95 -73.9 -24.35 Q-76.1 -15.15 -73.7 -13.4 L-72.6 -12.0" fill="#ffffff" fill-rule="evenodd" stroke="none"/>
    <path d="M-63.9 -183.05 Q-69.1 -192.7 -70.5 -193.7 L-77.3 -199.8 -71.75 -199.8 Q-67.4 -198.35 -64.75 -196.7 L-58.35 -192.65 -55.0 -188.95 -54.3 -187.95 -59.4 -186.15 Q-62.7 -184.5 -63.9 -183.05" fill="#fa420e" fill-rule="evenodd" stroke="none"/>
    <path d="M-64.75 -196.7 L-65.65 -199.65 -65.45 -199.8 -60.9 -199.8 -60.75 -199.8 -59.4 -199.8 -54.3 -199.8 -53.75 -199.4 Q-55.4 -194.1 -52.7 -190.75 L-52.5 -190.35 -52.45 -190.2 -49.6 -188.95 -48.75 -188.1 -49.4 -187.55 -54.3 -187.95 -55.0 -188.95 -58.35 -192.65 -64.75 -196.7 M-111.45 -53.25 L-123.75 -51.75 -129.6 -51.55 Q-131.55 -50.5 -133.55 -49.4 L-135.95 -49.25 Q-138.35 -49.85 -139.4 -50.75 L-146.85 -58.65 -150.35 -63.25 -151.0 -64.25 -154.2 -69.45 -154.1 -70.05 -153.35 -70.05 -150.9 -68.25 -150.6 -67.9 -150.0 -67.25 -149.6 -66.85 -148.85 -66.15 -148.7 -66.0 -148.4 -65.7 -147.35 -64.75 -147.0 -64.5 -146.35 -63.95 -146.0 -63.6 -145.85 -63.5 -145.75 -63.4 -145.65 -63.3 -145.6 -63.3 -145.5 -63.3 -145.35 -63.1 -145.05 -62.8 -144.65 -62.5 -144.45 -62.3 -144.15 -62.05 -143.9 -61.85 -143.85 -61.8 -143.5 -61.5 -143.3 -61.35 -143.05 -61.15 -137.8 -56.95 -134.5 -55.35 -128.85 -54.75 -114.25 -57.3 -114.15 -57.3 Q-110.6 -54.85 -110.2 -53.65 L-111.05 -53.35 -111.45 -53.25 M-115.3 -58.35 L-116.35 -59.2 -115.3 -58.65 -115.3 -58.35 M-117.25 -60.15 L-120.85 -64.4 -121.85 -64.95 Q-135.2 -64.15 -135.25 -66.55 -137.2 -69.5 -137.25 -71.75 L-137.65 -81.45 -137.8 -84.75 -137.8 -85.0 -137.8 -85.4 -137.8 -92.5 -137.65 -94.45 Q-137.05 -98.45 -135.1 -90.2 -132.95 -81.2 -132.25 -72.4 L-131.65 -70.7 -129.6 -68.85 -121.7 -68.55 -119.25 -67.5 -118.95 -67.15 -115.5 -62.4 -117.15 -61.55 -117.25 -60.15 M-60.75 -199.8 L-60.9 -199.6 -60.9 -199.8 -60.9 -199.6 -60.75 -199.8 M-59.2 -199.45 L-59.4 -199.8 -59.2 -199.45 M-59.05 -196.6 L-59.2 -196.9 -59.05 -196.6 M-52.5 -190.35 L-55.35 -192.15 -57.5 -194.35 -57.6 -194.7 -58.2 -195.55 -57.6 -194.7 -57.5 -194.35 -55.35 -192.15 -52.5 -190.35 M-145.6 -63.3 L-145.6 -63.25 -145.65 -63.3 -145.6 -63.25 -145.6 -63.3 M-151.0 -64.25 L-151.0 -65.25 -150.45 -65.4 -147.2 -63.75 -150.45 -65.4 -151.0 -65.25 -151.0 -64.25 M-137.4 -85.6 L-137.4 -85.05 -137.65 -81.45 -137.4 -85.05 -137.4 -85.6 M-137.25 -82.95 L-136.95 -88.15 -136.3 -90.2 -136.95 -88.15 -137.25 -82.95 M-137.45 -92.75 L-137.65 -94.45 -137.45 -92.75 M-137.8 -84.75 L-137.6 -90.2 -137.8 -92.5 -137.6 -90.2 -137.8 -84.75 M-134.8 -87.6 L-135.45 -89.65 -135.95 -90.2 -135.45 -89.65 -134.8 -87.6 M-144.25 -62.0 L-143.9 -61.85 -144.25 -62.0 -143.85 -61.8 -144.25 -62.0 -144.75 -62.45 -144.25 -62.0 M-145.6 -63.25 L-145.35 -63.05 -145.35 -63.1 -145.35 -63.05 -145.05 -62.8 -144.9 -62.7 -145.35 -62.6 -144.9 -62.7 -145.05 -62.8 -145.35 -63.05 -145.6 -63.25 M-144.45 -62.3 L-144.75 -62.45 -144.9 -62.5 -144.65 -62.5 -144.9 -62.5 -144.75 -62.45 -144.45 -62.3" fill="#fa410f" fill-rule="evenodd" stroke="none"/>
    <path d="M-54.3 -199.8 L-53.55 -199.8 -53.75 -199.4 -54.3 -199.8" fill="#000000" fill-rule="evenodd" stroke="none"/>
    <path d="M-53.55 -199.8 L-37.75 -199.8 -37.55 -198.2 -37.9 -195.2 Q-38.35 -193.7 -39.9 -192.75 -51.4 -188.7 -52.7 -190.75 -55.4 -194.1 -53.75 -199.4 L-53.55 -199.8" fill="#ff7a16" fill-rule="evenodd" stroke="none"/>
    <path d="M-119.25 -67.5 L-119.15 -67.5 Q-138.65 -97.75 -133.85 -111.8 -125.3 -140.35 -101.6 -146.85 L-102.85 -148.65 -105.0 -150.8 Q-106.65 -152.2 -109.35 -153.15 L-110.85 -154.65 -110.55 -156.2 -109.9 -156.85 -106.7 -158.15 -109.75 -161.25 Q-119.25 -163.0 -114.8 -167.1 -117.1 -172.15 -114.45 -172.4 -128.75 -181.25 -114.9 -181.25 -122.1 -187.45 -118.85 -191.5 L-117.65 -192.15 -115.5 -192.2 -107.0 -189.6 -105.65 -189.65 -105.5 -190.1 Q-114.05 -199.55 -113.6 -199.8 L-97.1 -199.8 Q-94.0 -196.95 -89.65 -188.95 -85.4 -179.8 -81.65 -155.75 L-81.65 -155.7 Q-69.7 -164.2 -63.9 -183.05 -69.1 -192.7 -70.5 -193.7 L-77.3 -199.8 -71.75 -199.8 Q-67.4 -198.35 -64.75 -196.7 L-65.65 -199.65 -65.45 -199.8 -60.9 -199.8 -60.75 -199.8 -59.4 -199.8 -54.3 -199.8 -53.55 -199.8 -37.75 -199.8 -37.55 -198.2 Q-27.95 -186.75 -36.4 -167.5 L-39.6 -163.45 -42.9 -161.05 Q-45.2 -158.9 -58.75 -158.15 -61.6 -156.95 -63.75 -155.05 L-65.8 -152.5 -67.6 -147.5 -68.25 -144.4 -68.15 -141.3 Q-59.6 -109.05 -58.85 -108.3 L-56.65 -99.25 -55.0 -90.3 -53.75 -74.85 -53.85 -65.45 Q-53.9 -61.75 -55.45 -55.05 L-58.65 -47.5 -65.15 -37.55 -66.75 -33.95 Q-66.85 -32.85 -64.1 -28.1 L-63.55 -25.75 Q-63.3 -23.7 -64.1 -21.35 L-66.0 -15.4 Q-67.05 -13.45 -68.65 -12.1 L-69.95 -11.5 -71.4 -11.35 -72.6 -12.0 -75.4 -10.85 -77.5 -10.85 -78.65 -11.35 -79.75 -12.4 -80.35 -14.7 -80.05 -16.4 -78.65 -18.75 -78.7 -18.8 -79.0 -20.0 -78.8 -22.65 -75.8 -28.2 Q-71.95 -31.35 -71.85 -33.1 L-71.85 -33.2 Q-87.75 -36.6 -105.3 -52.05 L-105.3 -52.0 -105.7 -48.65 -106.3 -48.0 -106.7 -48.2 -107.15 -49.0 -107.25 -49.05 -108.05 -49.6 -109.15 -51.85 -109.25 -51.85 -109.7 -51.4 -110.2 -51.6 -110.6 -52.15 -111.45 -53.25 -123.75 -51.75 -129.6 -51.55 Q-131.55 -50.5 -133.55 -49.4 L-135.95 -49.25 Q-138.35 -49.85 -139.4 -50.75 L-146.85 -58.65 -150.35 -63.25 -151.0 -64.25 -154.2 -69.45 -154.1 -70.05 -153.35 -70.05 -150.9 -68.25 -150.6 -67.9 -150.0 -67.25 -149.6 -66.85 -148.85 -66.15 -148.7 -66.0 -148.4 -65.7 -147.35 -64.75 -147.0 -64.5 -146.35 -63.95 -146.0 -63.6 -145.85 -63.5 -145.75 -63.4 -145.5 -63.3 -145.35 -63.1 -145.05 -62.8 -144.65 -62.5 -144.45 -62.3 -144.15 -62.05 -143.9 -61.85 -143.85 -61.8 -143.5 -61.5 -143.3 -61.35 -143.05 -61.15 -137.8 -56.95 -134.5 -55.35 -128.85 -54.75 -114.25 -57.3 -114.4 -57.45 -115.3 -58.35 -116.35 -59.2 -116.6 -59.4 -116.8 -59.5 -117.25 -60.15 -120.85 -64.4 -121.85 -64.95 Q-135.2 -64.15 -135.25 -66.55 -137.2 -69.5 -137.25 -71.75 L-137.65 -81.45 -137.8 -84.75 -137.8 -85.0 -137.8 -85.4 -137.8 -92.5 -137.65 -94.45 Q-137.05 -98.45 -135.1 -90.2 -132.95 -81.2 -132.25 -72.4 L-131.65 -70.7 -129.6 -68.85 -121.7 -68.55 -119.25 -67.5 -118.95 -67.15 -119.15 -67.5 M-60.9 -199.8 L-60.9 -199.6 -60.75 -199.8 M-53.55 -199.8 L-53.75 -199.4 Q-55.4 -194.1 -52.7 -190.75 -51.4 -188.7 -39.9 -192.75 -38.35 -193.7 -37.9 -195.2 L-37.55 -198.2 M-53.75 -199.4 L-54.3 -199.8 M-59.4 -199.8 L-59.2 -199.45 M-52.7 -190.75 L-52.5 -190.35 -52.45 -190.2 -49.6 -188.95 -48.75 -188.1 -49.4 -187.55 -54.3 -187.95 -59.4 -186.15 Q-62.7 -184.5 -63.9 -183.05 M-58.2 -195.55 L-57.6 -194.7 -57.5 -194.35 -55.35 -192.15 -52.5 -190.35 M-59.2 -196.9 L-59.05 -196.6 M-54.3 -187.95 L-55.0 -188.95 -58.35 -192.65 -64.75 -196.7 M-81.65 -155.7 L-80.05 -145.05 Q-78.25 -135.45 -75.6 -134.05 L-75.25 -133.85 M-114.9 -181.25 L-107.75 -175.3 Q-103.8 -171.6 -104.55 -171.7 L-105.2 -171.35 -106.7 -171.35 -111.05 -172.4 -112.65 -172.6 -114.45 -172.4 M-114.8 -167.1 L-114.6 -167.0 -112.75 -164.45 -109.75 -161.25 M-101.6 -146.85 L-97.8 -148.3 -97.75 -148.35 -106.7 -158.15 M-97.8 -148.3 L-87.3 -131.7 -87.0 -130.15 M-117.25 -60.15 L-117.15 -61.55 -115.5 -62.4 -118.95 -67.15 M-111.45 -60.7 L-113.6 -60.0 -113.75 -59.85 -114.65 -59.4 -115.3 -58.65 -115.3 -58.35 M-113.6 -60.0 L-113.5 -60.05 -115.5 -62.4 M-111.45 -53.25 L-111.05 -53.35 -110.2 -53.65 Q-110.6 -54.85 -114.15 -57.3 L-114.25 -57.3 M-114.4 -57.45 L-114.35 -58.45 M-115.3 -58.65 L-116.35 -59.2 M-109.25 -51.85 L-109.25 -51.95 -110.15 -53.65 -110.2 -53.65 M-111.05 -53.35 L-110.6 -52.6 -110.6 -52.15 M-109.15 -51.85 L-109.25 -51.95 M-107.25 -49.05 L-108.5 -51.75 -110.15 -53.65 M-105.3 -52.05 L-105.3 -55.35 M-135.95 -90.2 L-135.45 -89.65 -134.8 -87.6 M-137.8 -92.5 L-137.6 -90.2 -137.8 -84.75 M-137.65 -94.45 L-137.45 -92.75 M-136.3 -90.2 L-136.95 -88.15 -137.25 -82.95 M-137.65 -81.45 L-137.4 -85.05 -137.4 -85.6 M-147.2 -63.75 L-150.45 -65.4 -151.0 -65.25 -151.0 -64.25 M-145.65 -63.3 L-145.6 -63.25 -145.6 -63.3 -145.65 -63.3 -145.75 -63.4 -145.6 -63.3 -145.5 -63.3 M-145.35 -63.1 L-145.35 -63.05 -145.05 -62.8 -144.9 -62.7 -145.35 -62.6 M-144.65 -62.5 L-144.9 -62.5 -144.75 -62.45 -144.45 -62.3 M-145.35 -63.05 L-145.6 -63.25 M-143.85 -61.8 L-144.25 -62.0 -144.75 -62.45 M-143.9 -61.85 L-144.25 -62.0 M-73.7 -26.4 L-73.7 -25.95 -73.9 -24.35 Q-76.1 -15.15 -73.7 -13.4 L-72.6 -12.0 M-71.35 -32.8 L-71.85 -33.1 M-74.95 -27.25 L-75.6 -24.35 -76.3 -22.45 -78.7 -18.8" fill="none" stroke="#000000" stroke-linecap="round" stroke-linejoin="round" stroke-width="0.05"/>
  </g>
</svg>
