<?xml version="1.0" encoding="UTF-8" standalone="no"?>
<svg xmlns:xlink="http://www.w3.org/1999/xlink" height="193.5px" width="121.6px" xmlns="http://www.w3.org/2000/svg">
  <g transform="matrix(1.0, 0.0, 0.0, 1.0, 154.85, 200.1)">
    <path d="M-66.65 -197.1 L-67.5 -199.8 -55.85 -199.8 Q-56.8 -194.85 -54.1 -192.35 -53.75 -192.0 -53.0 -191.9 -46.0 -188.8 -55.45 -189.35 -60.15 -194.3 -60.55 -194.05 L-66.65 -197.1 M-112.9 -52.8 L-125.1 -51.6 -129.6 -51.75 -131.4 -51.3 Q-134.25 -49.3 -135.1 -49.4 L-136.95 -49.4 -138.45 -49.85 -141.0 -51.55 Q-148.9 -59.9 -150.8 -62.9 L-151.8 -64.55 -154.85 -69.7 Q-154.65 -70.95 -153.1 -69.9 L-152.7 -69.6 -151.8 -68.85 -151.25 -68.3 -151.25 -68.25 -150.55 -67.6 -150.0 -67.1 -149.95 -67.05 -149.6 -66.7 -149.3 -66.4 -148.5 -65.7 -147.2 -64.5 -146.7 -64.05 -146.1 -63.5 -145.8 -63.2 -145.6 -63.0 -145.45 -62.9 -145.25 -62.7 -144.95 -62.45 -144.55 -62.1 -144.25 -61.8 -143.95 -61.55 -143.75 -61.35 -143.55 -61.2 Q-137.05 -55.5 -135.95 -55.65 L-131.0 -54.75 -116.6 -56.85 -123.75 -60.8 -132.7 -65.05 -135.1 -65.7 -136.4 -66.45 -137.15 -67.4 Q-138.2 -68.2 -138.95 -72.6 L-139.55 -82.4 -139.6 -83.7 -139.7 -85.5 -139.7 -85.6 -139.7 -85.7 -139.7 -86.15 -139.55 -92.0 -139.5 -92.6 -139.45 -92.85 -139.45 -93.05 -139.4 -93.8 -139.4 -94.0 -139.3 -94.65 Q-138.65 -100.65 -136.85 -90.2 -134.85 -80.5 -134.05 -72.9 L-133.4 -71.15 Q-131.8 -68.4 -129.9 -67.6 L-118.1 -61.95 -117.85 -61.85 -118.3 -61.1 -118.3 -60.15 -116.35 -58.45 -115.45 -57.3 -115.4 -57.2 -115.3 -57.05 -111.25 -53.55 -111.35 -53.35 -111.45 -53.1 -112.45 -52.9 -112.9 -52.8 M-59.85 -196.4 L-59.5 -195.85 -55.85 -192.75 -53.85 -191.8 -55.85 -192.75 -59.5 -195.85 -59.85 -196.4 M-60.25 -196.7 L-60.45 -197.05 -60.25 -196.7 M-116.6 -56.85 L-115.3 -57.05 -116.6 -56.85 M-144.5 -61.65 L-143.95 -61.55 -144.5 -61.65 M-145.6 -62.75 L-145.0 -62.3 -144.55 -62.1 -145.0 -62.3 -144.25 -61.8 -145.0 -62.3 -145.6 -62.75 -145.75 -62.8 -145.6 -63.0 -145.75 -62.8 -145.6 -62.75 -144.95 -62.45 -145.6 -62.75 M-145.8 -63.2 L-146.75 -63.9 -146.1 -63.5 -146.75 -63.9 -145.8 -63.2 M-151.8 -64.55 L-151.75 -65.6 -151.1 -65.7 -147.7 -63.95 -151.1 -65.7 -151.75 -65.6 -151.8 -64.55 M-139.55 -83.85 L-139.5 -89.75 -139.55 -92.0 -139.5 -89.75 -139.4 -90.2 -139.5 -92.6 -139.4 -90.2 -139.5 -89.75 -139.55 -83.85 -139.55 -82.4 -139.55 -83.85 -139.6 -85.3 -139.55 -83.85 M-139.7 -85.5 L-139.6 -85.3 -139.6 -83.7 -139.6 -85.3 -139.7 -85.5 M-139.1 -84.55 L-139.1 -85.05 -139.1 -84.55 M-139.1 -85.5 L-138.65 -90.2 -138.3 -90.95 -137.9 -91.05 -137.25 -90.2 -136.75 -88.4 -137.25 -90.2 -137.9 -91.05 -138.3 -90.95 -138.65 -90.2 -139.1 -85.5" fill="#fa410f" fill-rule="evenodd" stroke="none"/>
    <path d="M-77.1 -199.8 L-73.15 -199.4 Q-70.05 -198.8 -66.65 -197.1 L-60.55 -194.05 Q-60.15 -194.3 -55.45 -189.35 L-61.1 -186.7 Q-63.5 -185.35 -64.8 -183.5 -70.5 -193.45 -74.85 -195.55 L-77.1 -199.8" fill="#fa420e" fill-rule="evenodd" stroke="none"/>
    <path d="M-55.85 -199.8 L-39.15 -199.8 -39.9 -197.1 Q-40.25 -196.15 -42.65 -194.9 -50.4 -191.6 -53.0 -191.9 -53.75 -192.0 -54.1 -192.35 -56.8 -194.85 -55.85 -199.8" fill="#ff7a16" fill-rule="evenodd" stroke="none"/>
    <path d="M-39.15 -199.8 Q-36.65 -201.95 -33.5 -188.6 -32.35 -179.55 -36.4 -170.9 L-39.7 -166.15 -43.0 -163.25 -47.55 -161.1 Q-59.2 -159.5 -58.85 -158.45 L-63.1 -155.05 -65.15 -151.95 Q-66.25 -150.15 -67.3 -143.75 L-67.1 -139.95 -57.3 -98.7 Q-55.2 -87.1 -55.0 -75.9 L-55.45 -63.65 Q-55.95 -58.2 -57.5 -52.9 L-60.05 -46.7 Q-67.7 -35.4 -69.0 -31.5 -69.25 -30.9 -65.9 -26.25 L-64.95 -23.0 -65.15 -17.95 Q-65.75 -13.25 -66.5 -11.7 L-67.8 -9.45 -68.8 -8.5 -69.95 -7.95 -71.85 -8.15 -72.05 -8.15 Q-72.5 -7.3 -75.05 -6.6 L-76.9 -6.65 -78.25 -7.5 -79.0 -8.5 -79.45 -10.1 -79.3 -11.7 -78.35 -15.0 -79.2 -16.9 -79.1 -19.45 -76.95 -25.35 Q-74.65 -27.5 -74.0 -30.3 -85.0 -33.8 -89.95 -37.05 L-99.05 -44.1 -106.8 -51.1 -106.9 -51.1 Q-107.25 -43.55 -110.55 -51.3 L-110.6 -51.3 Q-110.75 -49.85 -111.95 -51.45 L-112.9 -52.8 -112.45 -52.9 -111.45 -53.1 -111.35 -53.35 -111.25 -53.55 -115.3 -57.05 -115.4 -57.2 -115.45 -57.3 -116.35 -58.45 -115.65 -59.3 -114.65 -59.8 -114.6 -59.85 -116.5 -62.5 Q-134.9 -92.05 -133.85 -107.85 -128.6 -137.45 -101.4 -146.35 L-104.0 -149.3 Q-111.8 -152.3 -110.2 -152.7 -111.25 -154.75 -103.4 -158.05 -118.4 -159.35 -116.5 -161.45 -118.2 -163.9 -107.7 -167.2 L-107.65 -167.2 Q-120.4 -169.35 -123.55 -174.45 -125.05 -178.7 -112.05 -177.95 L-107.55 -177.45 -101.15 -175.95 -100.6 -177.5 -99.45 -178.15 -97.0 -177.95 -90.8 -175.6 -90.1 -175.8 -89.95 -176.35 Q-106.45 -194.85 -100.95 -196.6 L-99.45 -197.35 -97.65 -197.25 Q-94.55 -196.25 -90.15 -193.3 L-87.95 -192.85 -87.85 -193.6 -88.45 -194.9 -91.8 -199.8 -77.1 -199.8 -74.85 -195.55 Q-69.95 -188.1 -71.85 -165.3 L-71.75 -165.3 Q-70.1 -167.4 -67.8 -173.45 L-64.8 -183.5 Q-63.5 -185.35 -61.1 -186.7 L-55.45 -189.35 Q-46.0 -188.8 -53.0 -191.9 -50.4 -191.6 -42.65 -194.9 -40.25 -196.15 -39.9 -197.1 L-39.15 -199.8 M-118.1 -61.95 L-116.5 -62.5 -114.6 -59.85 -114.65 -59.8 -112.45 -60.35 -114.65 -59.8 -115.65 -59.3 -116.35 -58.45 -118.3 -60.15 -118.3 -61.1 -117.85 -61.85 -118.1 -61.95 M-107.65 -167.2 L-106.7 -167.95 -107.65 -167.2 M-74.1 -131.5 L-75.05 -133.4 -75.25 -136.95 -74.75 -145.05 -71.85 -165.1 -71.85 -165.3 -71.85 -165.1 -71.75 -165.3 -71.85 -165.1 -74.75 -145.05 -75.25 -136.95 -75.05 -133.4 -74.1 -131.5 M-89.65 -150.7 L-101.4 -146.35 -89.65 -150.7 -91.25 -156.0 -94.85 -163.6 -100.1 -172.1 Q-101.25 -174.05 -101.15 -175.95 -101.25 -174.05 -100.1 -172.1 L-94.85 -163.6 -91.25 -156.0 -89.65 -150.7 -88.25 -145.05 -85.6 -130.65 -88.25 -145.05 -89.65 -150.7 M-103.4 -158.05 L-102.75 -158.55 -103.4 -158.05 M-115.45 -58.65 L-115.4 -57.2 -115.45 -58.65 M-111.95 -51.45 L-112.45 -52.9 -111.95 -51.45 M-111.45 -53.1 L-110.6 -51.4 -110.55 -51.3 -110.6 -51.4 -110.6 -51.3 -110.6 -51.4 -111.45 -53.1 M-111.35 -53.35 L-110.0 -51.55 -108.6 -48.35 -110.0 -51.55 -111.35 -53.35 M-106.9 -51.1 L-106.55 -54.75 -106.9 -51.1 M-78.35 -15.0 Q-77.15 -17.65 -76.55 -21.3 L-76.55 -24.05 -76.55 -21.3 Q-77.15 -17.65 -78.35 -15.0 M-71.85 -8.15 Q-74.0 -9.75 -74.4 -10.95 L-75.25 -13.4 -75.25 -22.65 -75.25 -13.4 -74.4 -10.95 Q-74.0 -9.75 -71.85 -8.15 M-73.45 -30.0 L-74.0 -30.3 -73.45 -30.0" fill="#ffffff" fill-rule="evenodd" stroke="none"/>
    <path d="M-66.65 -197.1 L-67.5 -199.8 -55.85 -199.8 -39.15 -199.8 Q-36.65 -201.95 -33.5 -188.6 -32.35 -179.55 -36.4 -170.9 L-39.7 -166.15 -43.0 -163.25 -47.55 -161.1 Q-59.2 -159.5 -58.85 -158.45 L-63.1 -155.05 -65.15 -151.95 Q-66.25 -150.15 -67.3 -143.75 L-67.1 -139.95 -57.3 -98.7 Q-55.2 -87.1 -55.0 -75.9 L-55.45 -63.65 Q-55.95 -58.2 -57.5 -52.9 L-60.05 -46.7 Q-67.7 -35.4 -69.0 -31.5 -69.25 -30.9 -65.9 -26.25 L-64.95 -23.0 -65.15 -17.95 Q-65.75 -13.25 -66.5 -11.7 L-67.8 -9.45 -68.8 -8.5 -69.95 -7.95 -71.85 -8.15 -72.05 -8.15 Q-72.5 -7.3 -75.05 -6.6 L-76.9 -6.65 -78.25 -7.5 -79.0 -8.5 -79.45 -10.1 -79.3 -11.7 -78.35 -15.0 -79.2 -16.9 -79.1 -19.45 -76.95 -25.35 Q-74.65 -27.5 -74.0 -30.3 -85.0 -33.8 -89.95 -37.05 L-99.05 -44.1 -106.8 -51.1 -106.9 -51.1 Q-107.25 -43.55 -110.55 -51.3 L-110.6 -51.3 Q-110.75 -49.85 -111.95 -51.45 L-112.9 -52.8 -125.1 -51.6 -129.6 -51.75 -131.4 -51.3 Q-134.25 -49.3 -135.1 -49.4 L-136.95 -49.4 -138.45 -49.85 -141.0 -51.55 Q-148.9 -59.9 -150.8 -62.9 L-151.8 -64.55 -154.85 -69.7 Q-154.65 -70.95 -153.1 -69.9 L-152.7 -69.6 -151.8 -68.85 -151.25 -68.3 -151.25 -68.25 -150.55 -67.6 -150.0 -67.1 -149.95 -67.05 -149.6 -66.7 -149.3 -66.4 -148.5 -65.7 -147.2 -64.5 -146.7 -64.05 -146.1 -63.5 -145.8 -63.2 -145.6 -63.0 -145.45 -62.9 -145.25 -62.7 -144.95 -62.45 -144.55 -62.1 -144.25 -61.8 -143.95 -61.55 -143.75 -61.35 -143.55 -61.2 Q-137.05 -55.5 -135.95 -55.65 L-131.0 -54.75 -116.6 -56.85 -123.75 -60.8 -132.7 -65.05 -135.1 -65.7 -136.4 -66.45 -137.15 -67.4 Q-138.2 -68.2 -138.95 -72.6 L-139.55 -82.4 -139.6 -83.7 -139.7 -85.5 -139.7 -85.6 -139.7 -85.7 -139.7 -86.15 -139.55 -92.0 -139.5 -92.6 -139.45 -92.85 -139.45 -93.05 -139.4 -93.8 -139.4 -94.0 -139.3 -94.65 Q-138.65 -100.65 -136.85 -90.2 -134.85 -80.5 -134.05 -72.9 L-133.4 -71.15 Q-131.8 -68.4 -129.9 -67.6 L-118.1 -61.95 -116.5 -62.5 Q-134.9 -92.05 -133.85 -107.85 -128.6 -137.45 -101.4 -146.35 L-104.0 -149.3 Q-111.8 -152.3 -110.2 -152.7 -111.25 -154.75 -103.4 -158.05 -118.4 -159.35 -116.5 -161.45 -118.2 -163.9 -107.7 -167.2 L-107.65 -167.2 Q-120.4 -169.35 -123.55 -174.45 -125.05 -178.7 -112.05 -177.95 L-107.55 -177.45 -101.15 -175.95 -100.6 -177.5 -99.45 -178.15 -97.0 -177.95 -90.8 -175.6 -90.1 -175.8 -89.95 -176.35 Q-106.45 -194.85 -100.95 -196.6 L-99.45 -197.35 -97.65 -197.25 Q-94.55 -196.25 -90.15 -193.3 L-87.95 -192.85 -87.85 -193.6 -88.45 -194.9 -91.8 -199.8 -77.1 -199.8 -73.15 -199.4 Q-70.05 -198.8 -66.65 -197.1 L-60.55 -194.05 Q-60.15 -194.3 -55.45 -189.35 -46.0 -188.8 -53.0 -191.9 -53.75 -192.0 -54.1 -192.35 -56.8 -194.85 -55.85 -199.8 M-53.0 -191.9 Q-50.4 -191.6 -42.65 -194.9 -40.25 -196.15 -39.9 -197.1 L-39.15 -199.8 M-60.45 -197.05 L-60.25 -196.7 M-53.85 -191.8 L-55.85 -192.75 -59.5 -195.85 -59.85 -196.4 M-74.85 -195.55 Q-69.95 -188.1 -71.85 -165.3 L-71.75 -165.3 Q-70.1 -167.4 -67.8 -173.45 L-64.8 -183.5 Q-70.5 -193.45 -74.85 -195.55 L-77.1 -199.8 M-64.8 -183.5 Q-63.5 -185.35 -61.1 -186.7 L-55.45 -189.35 M-71.85 -165.3 L-71.85 -165.1 -71.75 -165.3 M-71.85 -165.1 L-74.75 -145.05 -75.25 -136.95 -75.05 -133.4 -74.1 -131.5 M-106.7 -167.95 L-107.65 -167.2 -107.7 -167.2 M-102.75 -158.55 L-103.4 -158.05 M-101.15 -175.95 Q-101.25 -174.05 -100.1 -172.1 L-94.85 -163.6 -91.25 -156.0 -89.65 -150.7 -88.25 -145.05 -85.6 -130.65 M-101.4 -146.35 L-89.65 -150.7 M-116.5 -62.5 L-114.6 -59.85 -114.65 -59.8 -112.45 -60.35 M-114.65 -59.8 L-115.65 -59.3 -116.35 -58.45 -115.45 -57.3 -115.4 -57.2 -115.45 -58.65 M-115.3 -57.05 L-115.4 -57.2 M-116.35 -58.45 L-118.3 -60.15 -118.3 -61.1 -117.85 -61.85 -118.1 -61.95 M-112.45 -52.9 L-111.95 -51.45 M-112.9 -52.8 L-112.45 -52.9 -111.45 -53.1 -111.35 -53.35 -111.25 -53.55 -115.3 -57.05 -116.6 -56.85 M-110.55 -51.3 L-110.6 -51.4 -110.6 -51.3 M-106.55 -54.75 L-106.9 -51.1 M-108.6 -48.35 L-110.0 -51.55 -111.35 -53.35 M-110.6 -51.4 L-111.45 -53.1 M-139.55 -92.0 L-139.5 -89.75 -139.4 -90.2 -139.5 -92.6 M-136.75 -88.4 L-137.25 -90.2 -137.9 -91.05 -138.3 -90.95 -138.65 -90.2 -139.1 -85.5 M-139.1 -85.05 L-139.1 -84.55 M-139.6 -83.7 L-139.6 -85.3 -139.7 -85.5 M-139.55 -82.4 L-139.55 -83.85 -139.6 -85.3 M-139.5 -89.75 L-139.55 -83.85 M-147.7 -63.95 L-151.1 -65.7 -151.75 -65.6 -151.8 -64.55 M-146.1 -63.5 L-146.75 -63.9 -145.8 -63.2 M-145.6 -63.0 L-145.75 -62.8 -145.6 -62.75 -144.95 -62.45 M-144.55 -62.1 L-145.0 -62.3 -144.25 -61.8 M-145.0 -62.3 L-145.6 -62.75 M-143.95 -61.55 L-144.5 -61.65 M-74.0 -30.3 L-73.45 -30.0 M-75.25 -22.65 L-75.25 -13.4 -74.4 -10.95 Q-74.0 -9.75 -71.85 -8.15 M-76.55 -24.05 L-76.55 -21.3 Q-77.15 -17.65 -78.35 -15.0" fill="none" stroke="#000000" stroke-linecap="round" stroke-linejoin="round" stroke-width="0.05"/>
  </g>
</svg>
