<?xml version="1.0" encoding="UTF-8" standalone="no"?>
<svg xmlns:xlink="http://www.w3.org/1999/xlink" height="199.0px" width="122.9px" xmlns="http://www.w3.org/2000/svg">
  <g transform="matrix(1.0, 0.0, 0.0, 1.0, 155.5, 199.8)">
    <path d="M-67.6 -199.8 L-63.75 -199.8 -63.1 -199.8 -63.05 -199.8 -55.65 -199.8 -55.85 -196.5 -55.25 -194.15 -55.45 -193.3 -54.6 -191.8 -54.5 -191.75 -51.2 -190.65 Q-47.05 -189.35 -52.25 -188.95 L-54.95 -188.7 -55.0 -188.95 -59.6 -192.75 -64.95 -195.0 -67.6 -199.8 M-115.2 -52.05 L-128.3 -51.85 -132.5 -52.15 -136.3 -50.25 -137.7 -50.15 -139.4 -50.55 Q-140.25 -50.5 -142.8 -52.9 L-148.65 -60.35 -148.9 -60.55 -152.6 -66.4 Q-157.65 -74.65 -153.9 -71.7 L-153.0 -70.95 -152.1 -70.15 -151.1 -69.2 -150.55 -68.6 -150.25 -68.35 -150.2 -68.3 -150.15 -68.25 -149.9 -68.0 -149.45 -67.45 -149.0 -67.0 -148.35 -66.35 -146.85 -64.75 -146.4 -64.3 -145.9 -63.8 -145.45 -63.35 -145.35 -63.25 -144.95 -62.85 -144.75 -62.65 -144.6 -62.5 -144.15 -62.1 Q-139.2 -57.2 -137.6 -56.65 L-132.8 -55.35 -119.05 -56.45 -125.9 -60.55 Q-135.7 -66.4 -136.95 -65.7 L-138.65 -67.4 -139.6 -69.3 -140.35 -72.2 -141.2 -82.65 -141.2 -82.0 -141.2 -82.8 -141.45 -91.15 -140.9 -94.9 Q-139.8 -100.85 -138.55 -90.2 L-138.25 -88.5 -135.95 -74.75 Q-135.45 -71.75 -134.5 -70.6 L-132.15 -67.95 -119.9 -61.4 -119.7 -59.4 -118.0 -57.9 -117.55 -57.3 -117.15 -56.85 -117.0 -56.75 -117.0 -56.65 -119.05 -56.45 -117.0 -56.65 -114.15 -53.9 -113.3 -52.7 -113.35 -52.65 -113.6 -52.4 -114.65 -52.15 -115.2 -52.05 M-62.4 -198.5 L-62.5 -198.8 -62.8 -199.4 -62.5 -198.8 -62.4 -198.5 M-63.05 -199.8 L-63.1 -199.6 -63.1 -199.8 -63.1 -199.6 -63.05 -199.8 M-63.65 -199.45 L-63.75 -199.8 -63.65 -199.45 M-58.0 -193.85 L-57.7 -193.7 -56.5 -192.65 -54.6 -191.8 -56.5 -192.65 -57.7 -193.7 -58.0 -193.85 M-59.6 -195.4 L-60.45 -196.25 -59.6 -195.4 M-58.45 -194.15 L-58.15 -194.05 -58.45 -194.15 M-145.45 -63.35 L-145.55 -63.4 -145.35 -63.25 -145.55 -63.4 -146.15 -63.85 -146.25 -64.05 -146.6 -64.4 -146.85 -64.55 -146.6 -64.4 -146.85 -64.55 -146.6 -64.4 -146.25 -64.05 -146.15 -63.85 -145.55 -63.4 -145.45 -63.35 M-146.25 -64.05 L-145.9 -63.8 -146.25 -64.05 M-146.4 -64.3 L-146.85 -64.55 -147.25 -64.75 -147.75 -65.55 -148.05 -65.8 -148.35 -66.35 -148.05 -65.8 -147.75 -65.55 -146.85 -64.75 -147.75 -65.55 -147.25 -64.75 -146.85 -64.55 -146.4 -64.3 M-140.85 -92.75 L-140.85 -93.6 -140.85 -92.75 M-140.85 -83.55 L-140.25 -90.2 -139.95 -91.05 -139.5 -91.15 -138.85 -90.2 -138.25 -88.5 -138.85 -90.2 -139.5 -91.15 -139.95 -91.05 -140.25 -90.2 -140.85 -83.55 M-141.15 -87.1 L-141.2 -82.8 -141.2 -82.65 -141.1 -86.7 -141.15 -87.1 -141.0 -92.1 -141.15 -87.1 -141.1 -86.7 -141.2 -82.65 -141.2 -82.8 -141.15 -87.1 M-140.8 -93.95 L-140.9 -94.9 -140.8 -93.95 M-152.6 -66.4 L-152.6 -67.6 -152.1 -67.7 -148.65 -65.7 -152.1 -67.7 -152.6 -67.6 -152.6 -66.4" fill="#fa410f" fill-rule="evenodd" stroke="none"/>
    <path d="M-39.15 -199.8 L-36.25 -199.8 -34.15 -195.1 -32.8 -188.95 Q-31.9 -179.15 -35.4 -171.45 L-38.2 -167.0 -42.35 -162.95 Q-45.6 -160.45 -55.45 -158.15 L-59.6 -154.85 Q-62.7 -151.7 -63.25 -149.6 L-64.75 -144.2 -65.25 -140.9 -65.25 -138.55 Q-60.1 -106.3 -58.55 -100.0 L-57.5 -91.8 Q-56.55 -83.1 -56.85 -73.35 L-57.5 -64.2 Q-57.05 -49.9 -72.9 -27.25 L-72.85 -26.4 -72.2 -25.4 -69.4 -21.9 -68.25 -19.15 Q-67.5 -14.65 -67.6 -9.45 L-68.35 -5.4 -70.15 -3.05 -71.85 -2.75 Q-73.0 -2.25 -74.3 -0.85 -78.05 -0.45 -78.8 -2.85 L-79.45 -5.95 -79.3 -9.2 -79.45 -9.45 -80.6 -11.5 -80.8 -14.45 -80.1 -18.85 -79.85 -20.3 -78.35 -23.5 -78.25 -23.6 -77.95 -25.35 -77.95 -25.4 -78.6 -25.75 Q-95.6 -30.65 -106.35 -46.3 L-109.15 -49.5 Q-109.75 -45.85 -110.55 -46.2 L-111.05 -47.15 -111.8 -47.55 -112.75 -50.25 -112.9 -50.25 -114.25 -50.3 -115.2 -52.05 -114.65 -52.15 -113.6 -52.4 -113.35 -52.65 -113.3 -52.7 -114.15 -53.9 -117.0 -56.65 -117.0 -56.75 -117.15 -56.85 -117.55 -57.3 -118.0 -57.9 -119.7 -59.4 -119.9 -61.4 -117.85 -62.05 Q-133.45 -91.85 -132.35 -109.05 -125.1 -138.35 -100.4 -145.05 L-101.15 -146.1 -103.6 -147.9 -108.0 -149.3 -108.7 -150.45 Q-109.1 -152.6 -102.45 -156.0 -117.6 -156.15 -115.5 -158.75 -116.15 -161.2 -107.15 -164.65 -123.35 -166.8 -123.75 -172.3 -119.15 -176.85 -103.1 -174.3 -95.85 -173.75 -91.15 -167.0 -85.65 -158.0 -85.2 -150.05 L-83.05 -150.9 -82.95 -150.9 -83.25 -155.6 -84.75 -161.65 Q-84.8 -162.9 -89.3 -171.15 L-89.75 -173.4 -89.3 -174.55 -88.7 -175.2 -87.2 -175.5 Q-86.0 -175.8 -80.3 -172.85 L-79.1 -173.05 -79.0 -173.05 -79.1 -174.05 -79.75 -175.1 -87.6 -185.4 Q-89.95 -189.3 -89.3 -190.95 -88.9 -193.8 -85.05 -193.0 L-77.5 -188.95 -76.3 -188.6 -75.8 -188.8 -75.7 -188.8 -76.05 -189.85 Q-81.9 -198.8 -81.8 -199.8 L-67.6 -199.8 -64.95 -195.0 -62.25 -188.95 -61.35 -185.0 Q-60.7 -185.95 -54.95 -188.7 L-52.25 -188.95 Q-47.05 -189.35 -51.2 -190.65 L-49.4 -192.2 Q-37.25 -197.2 -39.15 -199.8 M-113.9 -59.8 L-116.35 -59.4 -116.3 -59.4 -117.85 -62.05 -116.3 -59.4 -116.35 -59.4 -113.9 -59.8 M-85.2 -150.05 L-100.4 -145.05 -85.2 -150.05 M-83.5 -129.15 L-83.05 -134.05 -82.95 -150.9 -83.05 -134.05 -83.5 -129.15 M-107.15 -164.65 L-106.15 -165.7 -107.15 -164.65 M-101.7 -156.65 L-102.1 -156.0 -101.7 -156.65 M-72.2 -127.8 L-72.6 -128.75 -72.6 -130.55 -72.0 -134.05 -68.55 -145.05 -64.6 -156.0 -62.6 -163.35 -60.9 -174.9 -60.9 -182.75 -61.35 -185.0 -60.9 -182.75 -60.9 -174.9 -62.6 -163.35 -64.6 -156.0 -68.55 -145.05 -72.0 -134.05 -72.6 -130.55 -72.6 -128.75 -72.2 -127.8 M-117.15 -56.85 L-117.0 -56.85 -117.15 -57.3 -117.0 -58.45 -117.15 -57.3 -117.0 -56.85 -117.0 -56.75 -117.0 -56.85 -117.15 -56.85 M-118.0 -57.9 L-118.0 -58.35 -117.35 -59.0 -116.35 -59.4 -117.35 -59.0 -118.0 -58.35 -118.0 -57.9 M-109.15 -49.5 L-109.05 -52.9 -108.7 -53.55 -109.05 -52.9 -109.15 -49.5 M-113.35 -52.65 L-112.1 -50.35 -111.05 -47.15 -112.1 -50.35 -113.35 -52.65 M-112.9 -50.25 L-112.9 -50.45 -113.6 -52.4 -112.9 -50.45 -112.75 -50.25 -112.9 -50.45 -112.9 -50.25 M-114.25 -50.3 L-114.25 -51.0 -114.65 -52.15 -114.25 -51.0 -114.25 -50.3 M-71.85 -2.75 Q-77.2 -3.15 -77.8 -13.4 -77.2 -3.15 -71.85 -2.75 M-80.1 -18.85 L-79.85 -18.4 -79.2 -13.4 -79.45 -9.45 -79.2 -13.4 -79.85 -18.4 -80.1 -18.85 M-77.8 -13.85 L-78.35 -16.6 -77.8 -13.85 M-78.35 -23.5 L-78.25 -23.5 -78.25 -23.6 -78.25 -23.5 -78.35 -23.5 M-77.95 -25.35 L-77.3 -25.0 -77.95 -25.35" fill="#ffffff" fill-rule="evenodd" stroke="none"/>
    <path d="M-55.65 -199.8 L-39.15 -199.8 Q-37.25 -197.2 -49.4 -192.2 L-52.4 -192.55 Q-54.35 -192.85 -55.25 -194.15 -54.35 -192.85 -52.4 -192.55 L-49.4 -192.2 -51.2 -190.65 -54.5 -191.75 -54.6 -191.8 -55.45 -193.3 -55.25 -194.15 -55.85 -196.5 -55.65 -199.8" fill="#ff7a16" fill-rule="evenodd" stroke="none"/>
    <path d="M-64.95 -195.0 L-59.6 -192.75 -55.0 -188.95 -54.95 -188.7 Q-60.7 -185.95 -61.35 -185.0 L-62.25 -188.95 -64.95 -195.0" fill="#fa420e" fill-rule="evenodd" stroke="none"/>
    <path d="M-67.6 -199.8 L-63.75 -199.8 -63.1 -199.8 -63.05 -199.8 -55.65 -199.8 -39.15 -199.8 -36.25 -199.8 -34.15 -195.1 -32.8 -188.95 Q-31.9 -179.15 -35.4 -171.45 L-38.2 -167.0 -42.35 -162.95 Q-45.6 -160.45 -55.45 -158.15 L-59.6 -154.85 Q-62.7 -151.7 -63.25 -149.6 L-64.75 -144.2 -65.25 -140.9 -65.25 -138.55 Q-60.1 -106.3 -58.55 -100.0 L-57.5 -91.8 Q-56.55 -83.1 -56.85 -73.35 L-57.5 -64.2 Q-57.05 -49.9 -72.9 -27.25 L-72.85 -26.4 -72.2 -25.4 -69.4 -21.9 -68.25 -19.15 Q-67.5 -14.65 -67.6 -9.45 L-68.35 -5.4 -70.15 -3.05 -71.85 -2.75 Q-73.0 -2.25 -74.3 -0.85 -78.05 -0.45 -78.8 -2.85 L-79.45 -5.95 -79.3 -9.2 -79.45 -9.45 -80.6 -11.5 -80.8 -14.45 -80.1 -18.85 -79.85 -20.3 -78.35 -23.5 -78.25 -23.6 -77.95 -25.35 -77.95 -25.4 -78.6 -25.75 Q-95.6 -30.65 -106.35 -46.3 L-109.15 -49.5 Q-109.75 -45.85 -110.55 -46.2 L-111.05 -47.15 -111.8 -47.55 -112.75 -50.25 -112.9 -50.25 -114.25 -50.3 -115.2 -52.05 -128.3 -51.85 -132.5 -52.15 -136.3 -50.25 -137.7 -50.15 -139.4 -50.55 Q-140.25 -50.5 -142.8 -52.9 L-148.65 -60.35 -148.9 -60.55 -152.6 -66.4 Q-157.65 -74.65 -153.9 -71.7 L-153.0 -70.95 -152.1 -70.15 -151.1 -69.2 -150.55 -68.6 -150.25 -68.35 -150.2 -68.3 -150.15 -68.25 -149.9 -68.0 -149.45 -67.45 -149.0 -67.0 -148.35 -66.35 -146.85 -64.75 -146.4 -64.3 -145.9 -63.8 -145.45 -63.35 -145.35 -63.25 -144.95 -62.85 -144.75 -62.65 -144.6 -62.5 -144.5 -62.5 -144.15 -62.1 Q-139.2 -57.2 -137.6 -56.65 L-132.8 -55.35 -119.05 -56.45 -125.9 -60.55 Q-135.7 -66.4 -136.95 -65.7 L-138.65 -67.4 -139.6 -69.3 -140.35 -72.2 -141.2 -82.65 -141.2 -82.0 -141.2 -82.8 -141.45 -91.15 -140.9 -94.9 Q-139.8 -100.85 -138.55 -90.2 L-138.25 -88.5 -135.95 -74.75 Q-135.45 -71.75 -134.5 -70.6 L-132.15 -67.95 -119.9 -61.4 -117.85 -62.05 Q-133.45 -91.85 -132.35 -109.05 -125.1 -138.35 -100.4 -145.05 L-101.15 -146.1 -103.6 -147.9 -108.0 -149.3 -108.7 -150.45 Q-109.1 -152.6 -102.45 -156.0 -117.6 -156.15 -115.5 -158.75 -116.15 -161.2 -107.15 -164.65 -123.35 -166.8 -123.75 -172.3 -119.15 -176.85 -103.1 -174.3 -95.85 -173.75 -91.15 -167.0 -85.65 -158.0 -85.2 -150.05 L-83.05 -150.9 -82.95 -150.9 -83.25 -155.6 -84.75 -161.65 Q-84.8 -162.9 -89.3 -171.15 L-89.75 -173.4 -89.3 -174.55 -88.7 -175.2 -87.2 -175.5 Q-86.0 -175.8 -80.3 -172.85 L-79.1 -173.05 -79.0 -173.05 -79.1 -174.05 -79.75 -175.1 -87.6 -185.4 Q-89.95 -189.3 -89.3 -190.95 -88.9 -193.8 -85.05 -193.0 L-77.5 -188.95 -76.3 -188.6 -75.8 -188.8 -75.7 -188.8 -76.05 -189.85 Q-81.9 -198.8 -81.8 -199.8 L-67.6 -199.8 -64.95 -195.0 -59.6 -192.75 -55.0 -188.95 -54.95 -188.7 -52.25 -188.95 Q-47.05 -189.35 -51.2 -190.65 L-54.5 -191.75 -54.6 -191.8 -56.5 -192.65 -57.7 -193.7 -58.0 -193.85 M-63.75 -199.8 L-63.65 -199.45 M-63.1 -199.8 L-63.1 -199.6 -63.05 -199.8 M-62.8 -199.4 L-62.5 -198.8 -62.4 -198.5 M-55.25 -194.15 Q-54.35 -192.85 -52.4 -192.55 L-49.4 -192.2 Q-37.25 -197.2 -39.15 -199.8 M-54.6 -191.8 L-55.45 -193.3 -55.25 -194.15 -55.85 -196.5 -55.65 -199.8 M-58.15 -194.05 L-58.45 -194.15 M-60.45 -196.25 L-59.6 -195.4 M-51.2 -190.65 L-49.4 -192.2 M-64.95 -195.0 L-62.25 -188.95 -61.35 -185.0 Q-60.7 -185.95 -54.95 -188.7 M-61.35 -185.0 L-60.9 -182.75 -60.9 -174.9 -62.6 -163.35 -64.6 -156.0 -68.55 -145.05 -72.0 -134.05 -72.6 -130.55 -72.6 -128.75 -72.2 -127.8 M-102.1 -156.0 L-101.7 -156.65 M-106.15 -165.7 L-107.15 -164.65 M-82.95 -150.9 L-83.05 -134.05 -83.5 -129.15 M-100.4 -145.05 L-85.2 -150.05 M-117.85 -62.05 L-116.3 -59.4 -116.35 -59.4 -113.9 -59.8 M-117.0 -56.65 L-117.0 -56.75 -117.15 -56.85 -117.55 -57.3 -118.0 -57.9 -119.7 -59.4 -119.9 -61.4 M-117.0 -58.45 L-117.15 -57.3 -117.0 -56.85 -117.0 -56.75 M-116.35 -59.4 L-117.35 -59.0 -118.0 -58.35 -118.0 -57.9 M-117.0 -56.85 L-117.15 -56.85 M-117.0 -56.65 L-119.05 -56.45 M-115.2 -52.05 L-114.65 -52.15 -113.6 -52.4 -113.35 -52.65 -113.3 -52.7 -114.15 -53.9 -117.0 -56.65 M-114.65 -52.15 L-114.25 -51.0 -114.25 -50.3 M-113.6 -52.4 L-112.9 -50.45 -112.75 -50.25 M-112.9 -50.45 L-112.9 -50.25 M-111.05 -47.15 L-112.1 -50.35 -113.35 -52.65 M-108.7 -53.55 L-109.05 -52.9 -109.15 -49.5 M-140.9 -94.9 L-140.8 -93.95 M-141.0 -92.1 L-141.15 -87.1 -141.1 -86.7 -141.2 -82.65 -141.2 -82.8 -141.15 -87.1 M-138.25 -88.5 L-138.85 -90.2 -139.5 -91.15 -139.95 -91.05 -140.25 -90.2 -140.85 -83.55 M-140.85 -93.6 L-140.85 -92.75 M-148.35 -66.35 L-148.05 -65.8 -147.75 -65.55 -146.85 -64.75 M-147.75 -65.55 L-147.25 -64.75 -146.85 -64.55 -146.4 -64.3 M-145.35 -63.25 L-145.55 -63.4 -146.15 -63.85 -146.25 -64.05 -146.6 -64.4 -146.85 -64.55 -146.6 -64.4 M-145.9 -63.8 L-146.25 -64.05 M-145.55 -63.4 L-145.45 -63.35 M-144.15 -62.1 L-144.6 -62.5 M-148.65 -65.7 L-152.1 -67.7 -152.6 -67.6 -152.6 -66.4 M-77.3 -25.0 L-77.95 -25.35 M-78.25 -23.6 L-78.25 -23.5 -78.35 -23.5 M-78.35 -16.6 L-77.8 -13.85 M-79.45 -9.45 L-79.2 -13.4 -79.85 -18.4 -80.1 -18.85 M-77.8 -13.4 Q-77.2 -3.15 -71.85 -2.75" fill="none" stroke="#000000" stroke-linecap="round" stroke-linejoin="round" stroke-width="0.05"/>
  </g>
</svg>
