<?xml version="1.0" encoding="UTF-8" standalone="no"?>
<svg xmlns:xlink="http://www.w3.org/1999/xlink" height="206.4px" width="126.0px" xmlns="http://www.w3.org/2000/svg">
  <g transform="matrix(1.0, 0.0, 0.0, 1.0, 155.75, 199.8)">
    <path d="M-63.1 -190.75 L-67.3 -199.8 -63.35 -199.8 -63.1 -199.8 -56.85 -199.8 Q-55.4 -198.1 -53.45 -197.25 L-52.45 -196.7 -52.8 -194.15 Q-53.1 -191.2 -52.25 -190.3 L-53.0 -188.95 -53.1 -188.4 -52.6 -188.05 -51.6 -187.45 -53.75 -186.05 -56.45 -188.15 -63.1 -190.75 M-118.3 -51.2 Q-125.25 -52.4 -129.15 -52.25 L-133.85 -53.3 -135.45 -53.25 -138.3 -51.95 -140.0 -51.95 -141.3 -52.4 Q-143.55 -53.5 -144.5 -55.25 L-150.05 -63.9 -150.35 -64.6 -150.45 -64.75 -152.8 -69.45 Q-158.1 -80.2 -153.9 -75.55 L-153.6 -75.25 -153.25 -74.8 -153.05 -74.6 -148.35 -68.35 -148.25 -68.25 -148.2 -68.2 -148.05 -68.0 -147.7 -67.6 -147.3 -67.15 -146.9 -66.65 -146.85 -66.6 -146.65 -66.35 -146.1 -65.7 -142.6 -61.55 -139.4 -58.65 -134.9 -56.75 -133.75 -56.5 -122.35 -56.0 -128.0 -60.15 -131.4 -62.05 -134.25 -64.3 -138.45 -65.9 -140.15 -67.6 Q-142.15 -69.65 -142.5 -81.45 L-142.5 -82.2 -142.55 -83.05 -142.55 -83.8 -142.6 -85.7 -142.6 -86.55 -142.6 -86.75 -142.6 -90.2 -142.15 -92.75 -142.05 -92.85 -142.0 -93.6 -141.95 -94.15 -141.9 -94.65 -141.85 -95.1 -141.8 -95.45 -141.75 -95.95 Q-141.35 -98.4 -140.85 -97.95 L-140.45 -97.4 -139.3 -88.6 -137.45 -74.75 Q-136.8 -71.55 -135.9 -70.6 -134.25 -68.0 -132.8 -67.3 L-122.15 -60.7 -121.7 -60.35 -121.7 -59.0 -119.55 -56.0 -119.25 -56.0 -119.1 -55.95 -118.85 -55.9 -115.95 -51.4 -115.95 -51.3 -116.35 -51.2 -117.65 -51.2 -118.3 -51.2 M-63.1 -199.8 L-62.9 -199.25 -63.35 -199.8 -62.9 -199.25 -63.1 -199.8 M-54.6 -189.15 L-54.3 -189.0 -53.55 -188.4 -52.6 -188.05 -53.55 -188.4 -54.3 -189.0 -54.6 -189.15 M-56.85 -191.15 L-57.35 -191.7 -56.85 -191.15 M-122.35 -56.0 L-119.55 -56.0 -122.35 -56.0 M-149.3 -69.0 L-152.5 -71.55 -153.25 -71.45 -152.8 -69.45 -153.25 -71.45 -152.5 -71.55 -149.3 -69.0 M-146.65 -66.35 L-146.35 -65.85 -146.15 -65.75 -146.1 -65.7 -146.15 -65.75 -146.35 -65.85 -146.65 -66.35 M-148.05 -68.0 L-147.8 -67.7 -147.7 -67.6 -147.8 -67.7 -147.3 -67.15 -147.8 -67.7 -148.05 -68.0 M-148.9 -68.35 L-149.1 -68.65 -148.9 -68.35 M-141.95 -92.3 L-142.15 -90.2 -142.15 -89.95 -142.6 -86.75 -142.15 -89.95 -142.15 -90.2 -141.95 -92.3 M-142.55 -83.05 L-142.3 -85.5 -142.05 -85.9 -142.05 -86.35 -141.5 -90.2 -141.1 -91.8 -140.55 -92.0 -139.7 -90.2 -139.6 -89.05 -139.3 -88.6 -139.6 -89.05 -139.7 -90.2 -140.55 -92.0 -141.1 -91.8 -141.5 -90.2 -142.05 -86.35 -142.05 -85.9 -142.3 -85.5 -142.55 -83.05" fill="#fa410f" fill-rule="evenodd" stroke="none"/>
    <path d="M-53.45 -197.25 L-52.4 -199.15 -51.95 -199.6 -51.75 -199.8 -51.6 -199.8 -51.2 -199.8 -52.45 -196.7 -53.45 -197.25 M-51.95 -199.6 L-51.6 -199.8 -51.95 -199.6" fill="#000000" fill-rule="evenodd" stroke="none"/>
    <path d="M-51.2 -199.8 L-35.85 -199.6 Q-34.0 -195.35 -40.45 -191.05 L-40.1 -190.5 -40.45 -188.95 Q-41.25 -186.2 -42.25 -185.95 L-49.05 -181.9 Q-53.5 -180.2 -54.3 -182.75 L-54.3 -184.35 -53.75 -186.05 -51.6 -187.45 -52.6 -188.05 -53.1 -188.4 -53.0 -188.95 -52.25 -190.3 Q-53.1 -191.2 -52.8 -194.15 L-52.45 -196.7 -51.2 -199.8 M-52.25 -190.3 Q-48.6 -191.7 -40.45 -191.05 -48.6 -191.7 -52.25 -190.3" fill="#ff7a16" fill-rule="evenodd" stroke="none"/>
    <path d="M-35.85 -199.6 Q-27.65 -193.85 -30.5 -173.6 L-32.35 -168.05 Q-33.2 -165.75 -37.15 -160.8 L-39.6 -158.7 -42.15 -157.2 Q-41.5 -157.0 -51.2 -153.8 L-53.65 -151.95 Q-57.6 -148.25 -58.55 -146.35 L-60.25 -142.3 -61.85 -135.45 -61.75 -128.2 -58.2 -85.0 -58.45 -73.05 -59.7 -61.35 -62.25 -50.15 -66.1 -39.9 -69.3 -34.3 Q-78.75 -21.8 -79.0 -20.0 L-78.65 -19.15 Q-74.2 -15.05 -74.0 -13.25 L-72.0 -3.9 -72.05 0.8 -74.15 3.9 Q-80.3 11.45 -82.95 -2.1 L-83.05 -2.3 -83.1 -2.4 Q-85.2 -6.6 -85.3 -10.7 L-85.3 -11.15 Q-85.3 -14.6 -83.8 -18.0 L-83.8 -18.1 Q-100.7 -23.15 -111.8 -46.3 L-112.5 -47.25 -112.55 -47.25 -113.1 -45.35 -113.95 -44.6 -114.25 -45.35 -114.35 -45.45 -115.1 -46.0 -115.75 -48.85 -115.85 -48.85 Q-116.45 -47.15 -117.3 -48.7 -117.8 -49.5 -118.3 -51.2 L-117.65 -51.2 -116.35 -51.2 -115.95 -51.3 -115.95 -51.4 -118.85 -55.9 -119.1 -55.95 -119.25 -57.3 -119.05 -58.0 -119.25 -57.3 -119.1 -55.95 -119.25 -56.0 -119.55 -56.0 -121.7 -59.0 -121.7 -60.35 -122.15 -60.7 -121.4 -61.1 -119.55 -61.35 Q-132.25 -95.0 -129.7 -110.75 -119.05 -139.4 -98.25 -142.05 L-100.75 -144.2 Q-107.25 -146.2 -106.05 -147.05 -107.4 -148.45 -99.95 -152.5 -113.15 -152.7 -112.9 -155.15 -114.2 -158.05 -104.8 -161.35 -119.25 -162.9 -121.5 -169.35 -119.05 -173.0 -105.5 -171.75 -95.3 -170.8 -91.9 -167.0 -85.4 -161.3 -82.7 -145.55 L-77.4 -147.2 -76.45 -147.6 -76.45 -147.9 -76.75 -152.15 -77.4 -154.0 -78.8 -156.0 -81.35 -157.9 -81.65 -158.7 -81.45 -159.85 -80.8 -160.6 -79.0 -161.35 -73.75 -161.65 -72.3 -162.3 -72.6 -162.5 -74.1 -163.8 Q-83.6 -168.25 -84.1 -170.3 -85.2 -173.05 -82.85 -174.1 L-81.45 -174.45 -73.7 -174.25 -72.3 -174.85 -72.3 -174.9 Q-83.1 -181.75 -86.45 -190.95 -87.05 -198.35 -75.05 -192.0 L-69.85 -188.95 -63.35 -184.05 Q-60.95 -181.95 -59.2 -179.2 L-56.2 -181.8 -54.3 -182.75 Q-53.5 -180.2 -49.05 -181.9 L-42.25 -185.95 Q-41.25 -186.2 -40.45 -188.95 L-40.1 -190.5 -40.45 -191.05 Q-34.0 -195.35 -35.85 -199.6 M-69.5 -121.9 L-69.7 -123.1 -67.95 -129.15 -60.45 -145.05 -58.0 -151.1 -55.8 -162.8 -55.65 -167.0 Q-55.45 -169.5 -56.5 -174.05 L-58.35 -177.95 -59.2 -179.2 -58.35 -177.95 -56.5 -174.05 Q-55.45 -169.5 -55.65 -167.0 L-55.8 -162.8 -58.0 -151.1 -60.45 -145.05 -67.95 -129.15 -69.7 -123.1 -69.5 -121.9 M-80.15 -125.1 L-78.35 -134.05 -76.45 -147.6 -78.35 -134.05 -80.15 -125.1 M-72.0 -161.9 L-72.3 -162.3 -72.0 -161.9 M-72.3 -174.85 L-71.15 -173.45 -72.3 -174.85 M-98.25 -142.05 L-82.7 -145.55 -98.25 -142.05 M-99.1 -153.25 L-99.95 -152.5 -99.1 -153.25 M-104.8 -161.35 L-103.8 -162.3 -104.8 -161.35 M-114.35 -45.45 L-115.95 -51.3 -114.35 -45.45 M-118.5 -58.65 L-118.5 -59.0 -119.55 -61.35 -118.5 -59.0 -118.5 -58.65 -115.95 -59.0 -118.5 -58.65 -118.5 -58.55 -119.15 -58.55 -120.0 -58.0 -120.0 -57.3 -119.25 -56.0 -120.0 -57.3 -120.0 -58.0 -119.15 -58.55 -118.5 -58.55 -118.5 -58.65 M-117.3 -48.7 L-117.65 -51.2 -117.3 -48.7 M-112.5 -47.25 L-111.6 -51.75 -112.5 -47.25 M-121.5 -60.55 L-121.7 -60.35 -121.5 -60.55 M-83.55 -8.35 L-81.8 -2.4 Q-80.3 4.85 -74.15 3.9 -80.3 4.85 -81.8 -2.4 L-83.55 -8.35 M-85.3 -10.7 L-83.1 -2.4 -85.3 -10.7 M-82.95 -2.1 L-82.95 -2.3 -83.05 -2.3 -82.95 -2.3 -82.95 -2.1 M-83.25 -17.75 L-83.8 -18.0 -83.25 -17.75 M-115.75 -48.85 L-115.85 -49.05 -115.85 -48.85 -115.85 -49.05 -116.35 -51.2 -115.85 -49.05 -115.75 -48.85" fill="#ffffff" fill-rule="evenodd" stroke="none"/>
    <path d="M-75.05 -192.0 L-69.1 -192.15 Q-64.6 -191.55 -63.1 -190.75 L-56.45 -188.15 -53.75 -186.05 -54.3 -184.35 -54.3 -182.75 -56.2 -181.8 -59.2 -179.2 Q-60.95 -181.95 -63.35 -184.05 L-69.85 -188.95 -75.05 -192.0" fill="#fa420e" fill-rule="evenodd" stroke="none"/>
    <path d="M-63.1 -190.75 L-67.3 -199.8 -63.35 -199.8 -63.1 -199.8 -56.85 -199.8 Q-55.4 -198.1 -53.45 -197.25 L-52.4 -199.15 -51.95 -199.6 -51.75 -199.8 -51.6 -199.8 -51.2 -199.8 -35.85 -199.6 Q-27.65 -193.85 -30.5 -173.6 L-32.35 -168.05 Q-33.2 -165.75 -37.15 -160.8 L-39.6 -158.7 -42.15 -157.2 Q-41.5 -157.0 -51.2 -153.8 L-53.65 -151.95 Q-57.6 -148.25 -58.55 -146.35 L-60.25 -142.3 -61.85 -135.45 -61.75 -128.2 -58.2 -85.0 -58.45 -73.05 -59.7 -61.35 -62.25 -50.15 -66.1 -39.9 -69.3 -34.3 Q-78.75 -21.8 -79.0 -20.0 L-78.65 -19.15 Q-74.2 -15.05 -74.0 -13.25 L-72.0 -3.9 -72.05 0.8 -74.15 3.9 Q-80.3 11.45 -82.95 -2.1 L-83.05 -2.3 -83.1 -2.4 Q-85.2 -6.6 -85.3 -10.7 L-85.3 -11.15 Q-85.3 -14.6 -83.8 -18.0 L-83.8 -18.1 Q-100.7 -23.15 -111.8 -46.3 L-112.5 -47.25 -112.55 -47.25 -113.1 -45.35 -113.95 -44.6 -114.25 -45.35 -114.35 -45.45 -115.1 -46.0 -115.75 -48.85 -115.85 -48.85 Q-116.45 -47.15 -117.3 -48.7 -117.8 -49.5 -118.3 -51.2 -125.25 -52.4 -129.15 -52.25 L-133.85 -53.3 -135.45 -53.25 -138.3 -51.95 -140.0 -51.95 -141.3 -52.4 Q-143.55 -53.5 -144.5 -55.25 L-150.05 -63.9 -150.35 -64.6 -150.45 -64.75 -152.8 -69.45 Q-158.1 -80.2 -153.9 -75.55 L-153.6 -75.25 -153.25 -74.8 -153.05 -74.6 -148.35 -68.35 -148.25 -68.25 -148.2 -68.2 -148.05 -68.0 -147.7 -67.6 -147.3 -67.15 -146.9 -66.65 -146.85 -66.6 -146.65 -66.35 -146.1 -65.7 -142.6 -61.55 -139.4 -58.65 -134.9 -56.75 -133.75 -56.5 -122.35 -56.0 -128.0 -60.15 -131.4 -62.05 -134.25 -64.3 -138.45 -65.9 -140.15 -67.6 Q-142.15 -69.65 -142.5 -81.45 L-142.5 -82.2 -142.55 -83.05 -142.55 -83.8 -142.6 -85.7 -142.6 -86.55 -142.6 -86.75 -142.6 -90.2 -142.15 -92.75 -142.05 -92.85 -142.0 -93.6 -141.95 -94.15 -141.9 -94.65 -141.85 -95.1 -141.8 -95.45 -141.75 -95.95 Q-141.35 -98.4 -140.85 -97.95 L-140.45 -97.4 -139.3 -88.6 -137.45 -74.75 Q-136.8 -71.55 -135.9 -70.6 -134.25 -68.0 -132.8 -67.3 L-122.15 -60.7 -121.4 -61.1 -119.55 -61.35 Q-132.25 -95.0 -129.7 -110.75 -119.05 -139.4 -98.25 -142.05 L-100.75 -144.2 Q-107.25 -146.2 -106.05 -147.05 -107.4 -148.45 -99.95 -152.5 -113.15 -152.7 -112.9 -155.15 -114.2 -158.05 -104.8 -161.35 -119.25 -162.9 -121.5 -169.35 -119.05 -173.0 -105.5 -171.75 -95.3 -170.8 -91.9 -167.0 -85.4 -161.3 -82.7 -145.55 L-77.4 -147.2 -76.45 -147.6 -76.45 -147.9 -76.75 -152.15 -77.4 -154.0 -78.8 -156.0 -81.35 -157.9 -81.65 -158.7 -81.45 -159.85 -80.8 -160.6 -79.0 -161.35 -73.75 -161.65 -72.3 -162.3 -72.6 -162.5 -74.1 -163.8 Q-83.6 -168.25 -84.1 -170.3 -85.2 -173.05 -82.85 -174.1 L-81.45 -174.45 -73.7 -174.25 -72.3 -174.85 -72.3 -174.9 Q-83.1 -181.75 -86.45 -190.95 -87.05 -198.35 -75.05 -192.0 L-69.1 -192.15 Q-64.6 -191.55 -63.1 -190.75 L-56.45 -188.15 -53.75 -186.05 -51.6 -187.45 -52.6 -188.05 -53.55 -188.4 -54.3 -189.0 -54.6 -189.15 M-63.35 -199.8 L-62.9 -199.25 -63.1 -199.8 M-51.6 -199.8 L-51.95 -199.6 M-35.85 -199.6 Q-34.0 -195.35 -40.45 -191.05 L-40.1 -190.5 -40.45 -188.95 Q-41.25 -186.2 -42.25 -185.95 L-49.05 -181.9 Q-53.5 -180.2 -54.3 -182.75 L-56.2 -181.8 -59.2 -179.2 -58.35 -177.95 -56.5 -174.05 Q-55.45 -169.5 -55.65 -167.0 L-55.8 -162.8 -58.0 -151.1 -60.45 -145.05 -67.95 -129.15 -69.7 -123.1 -69.5 -121.9 M-53.45 -197.25 L-52.45 -196.7 -51.2 -199.8 M-52.6 -188.05 L-53.1 -188.4 -53.0 -188.95 -52.25 -190.3 Q-53.1 -191.2 -52.8 -194.15 L-52.45 -196.7 M-57.35 -191.7 L-56.85 -191.15 M-54.3 -182.75 L-54.3 -184.35 -53.75 -186.05 M-75.05 -192.0 L-69.85 -188.95 -63.35 -184.05 Q-60.95 -181.95 -59.2 -179.2 M-71.15 -173.45 L-72.3 -174.85 M-72.3 -162.3 L-72.0 -161.9 M-76.45 -147.6 L-78.35 -134.05 -80.15 -125.1 M-40.45 -191.05 Q-48.6 -191.7 -52.25 -190.3 M-103.8 -162.3 L-104.8 -161.35 M-99.95 -152.5 L-99.1 -153.25 M-82.7 -145.55 L-98.25 -142.05 M-119.05 -58.0 L-119.25 -57.3 -119.1 -55.95 -118.85 -55.9 -115.95 -51.4 -115.95 -51.3 -114.35 -45.45 M-119.1 -55.95 L-119.25 -56.0 -119.55 -56.0 -122.35 -56.0 M-115.95 -59.0 L-118.5 -58.65 -118.5 -58.55 -119.15 -58.55 -120.0 -58.0 -120.0 -57.3 -119.25 -56.0 M-119.55 -61.35 L-118.5 -59.0 -118.5 -58.65 M-118.3 -51.2 L-117.65 -51.2 -116.35 -51.2 -115.95 -51.3 M-139.3 -88.6 L-139.6 -89.05 -139.7 -90.2 -140.55 -92.0 -141.1 -91.8 -141.5 -90.2 -142.05 -86.35 -142.05 -85.9 -142.3 -85.5 -142.55 -83.05 M-142.6 -86.75 L-142.15 -89.95 -142.15 -90.2 -141.95 -92.3 M-149.1 -68.65 L-148.9 -68.35 M-147.7 -67.6 L-147.8 -67.7 -147.3 -67.15 M-147.8 -67.7 L-148.05 -68.0 M-146.1 -65.7 L-146.15 -65.75 -146.35 -65.85 -146.65 -66.35 M-152.8 -69.45 L-153.25 -71.45 -152.5 -71.55 -149.3 -69.0 M-119.55 -56.0 L-121.7 -59.0 -121.7 -60.35 -122.15 -60.7 M-115.85 -48.85 L-115.85 -49.05 -116.35 -51.2 M-115.85 -49.05 L-115.75 -48.85 M-83.8 -18.0 L-83.25 -17.75 M-83.05 -2.3 L-82.95 -2.3 -82.95 -2.1 M-83.1 -2.4 L-85.3 -10.7 M-74.15 3.9 Q-80.3 4.85 -81.8 -2.4 L-83.55 -8.35 M-121.7 -60.35 L-121.5 -60.55 M-111.6 -51.75 L-112.5 -47.25 M-117.65 -51.2 L-117.3 -48.7" fill="none" stroke="#000000" stroke-linecap="round" stroke-linejoin="round" stroke-width="0.05"/>
  </g>
</svg>
