<?xml version="1.0" encoding="UTF-8" standalone="no"?>
<svg xmlns:xlink="http://www.w3.org/1999/xlink" height="215.6px" width="130.55px" xmlns="http://www.w3.org/2000/svg">
  <g transform="matrix(1.0, 0.0, 0.0, 1.0, 154.7, 199.8)">
    <path d="M-63.75 -199.8 L-63.65 -199.8 -63.8 -199.35 -63.65 -199.8 -62.9 -199.8 -58.55 -199.8 -58.35 -199.45 -54.8 -194.75 -48.4 -187.75 -46.7 -186.8 -46.05 -186.45 -46.7 -183.5 -46.2 -180.0 -47.25 -177.95 -47.15 -177.65 -48.35 -176.15 -50.75 -177.95 -56.75 -180.3 Q-57.75 -181.5 -62.9 -195.85 L-63.8 -199.35 -63.85 -199.6 -63.75 -199.8 -63.85 -199.6 -63.9 -199.8 -63.75 -199.8 M-121.25 -49.85 Q-126.95 -52.2 -130.85 -52.8 L-136.2 -55.05 Q-137.8 -55.2 -140.35 -54.3 L-142.6 -55.05 Q-143.45 -55.15 -145.55 -58.2 L-150.45 -69.1 -150.8 -69.85 -150.9 -70.3 -151.0 -70.35 -151.0 -70.6 -151.25 -71.0 -152.05 -73.25 -154.7 -81.65 -154.65 -82.7 -154.0 -82.65 -151.75 -79.25 -148.35 -72.85 -147.8 -71.85 -147.65 -71.6 -147.65 -71.55 -147.5 -71.3 -147.25 -70.95 -147.2 -70.9 -147.05 -70.65 -147.0 -70.55 -146.85 -70.3 -146.8 -70.25 -146.65 -70.0 -146.4 -69.6 -146.25 -69.35 -146.1 -69.15 -145.95 -68.9 Q-141.05 -61.15 -140.8 -61.55 L-135.9 -58.35 -125.95 -55.9 -136.3 -65.05 Q-140.95 -66.85 -141.1 -68.35 -143.15 -70.75 -142.9 -83.8 L-142.9 -84.3 -142.9 -84.75 -142.9 -85.2 -142.9 -85.4 -142.85 -85.6 -142.85 -85.7 -142.85 -86.15 -142.85 -86.45 -142.8 -87.0 -142.8 -87.2 -142.8 -87.35 -142.8 -87.6 -142.8 -87.85 -142.5 -91.9 -141.95 -94.0 -141.95 -94.15 -141.85 -94.2 -141.7 -95.3 -141.6 -95.75 -141.5 -96.5 -141.4 -96.95 Q-140.9 -99.65 -140.35 -99.35 L-139.95 -98.6 -139.4 -90.2 -138.75 -78.8 Q-138.2 -72.8 -136.95 -71.2 -135.1 -67.95 -134.25 -67.6 L-124.05 -59.4 -123.55 -59.0 -123.5 -58.85 -123.1 -57.3 -122.15 -55.05 -121.25 -54.8 Q-117.85 -50.05 -119.15 -49.5 L-120.6 -49.7 -121.25 -49.85 M-62.8 -198.8 L-62.8 -199.2 -62.9 -199.65 -62.9 -199.8 -62.9 -199.65 -62.8 -199.2 -62.8 -198.8 M-48.2 -178.5 L-47.8 -178.15 -47.25 -177.95 -47.8 -178.15 -48.2 -178.5 M-142.9 -85.2 L-142.85 -85.6 -142.9 -85.2 M-142.5 -85.7 L-142.6 -86.15 -142.6 -86.35 -142.8 -87.35 -142.6 -86.35 -142.6 -86.15 -142.5 -85.7 M-142.75 -87.8 L-142.8 -87.85 -142.75 -87.8 -142.35 -90.1 -142.35 -90.2 -141.85 -93.2 -141.95 -94.0 -141.85 -93.2 -142.35 -90.2 -142.35 -90.1 -142.75 -87.8 -142.7 -87.6 -142.8 -87.6 -142.7 -87.6 -142.75 -87.8 M-142.3 -87.1 L-142.3 -87.55 -142.3 -87.1 M-142.15 -87.85 L-142.15 -88.25 -141.75 -90.2 Q-140.1 -96.65 -139.4 -90.2 -140.1 -96.65 -141.75 -90.2 L-142.15 -88.25 -142.15 -87.85 M-150.75 -69.8 L-150.8 -69.85 -150.75 -69.8 -150.9 -70.3 -150.75 -69.8 -150.65 -69.7 -150.45 -69.1 -150.65 -69.7 -150.75 -69.8 M-148.35 -72.85 L-148.55 -72.9 -149.2 -73.7 Q-153.3 -80.05 -152.4 -74.55 L-152.15 -74.2 -152.05 -73.25 -152.15 -74.2 -152.4 -74.55 Q-153.3 -80.05 -149.2 -73.7 L-148.55 -72.9 -148.35 -72.85 M-122.15 -55.05 L-125.95 -55.9 -122.15 -55.05" fill="#fa410f" fill-rule="evenodd" stroke="none"/>
    <path d="M-43.95 -190.5 L-43.95 -190.65 -40.9 -193.6 -38.55 -194.55 -39.05 -194.25 -38.75 -193.7 -36.5 -193.9 -35.65 -194.7 -36.25 -195.0 Q-29.65 -193.9 -30.0 -190.45 L-29.8 -188.95 Q-29.1 -184.8 -33.7 -181.5 L-33.1 -180.65 -32.25 -177.95 Q-32.05 -172.3 -36.9 -170.6 -49.2 -165.15 -49.05 -171.75 L-48.75 -175.2 -48.35 -176.15 -47.15 -177.65 -47.25 -177.95 -46.2 -180.0 -46.7 -183.5 -46.05 -186.45 -45.0 -188.95 -43.95 -190.5 M-33.7 -181.5 Q-39.85 -185.0 -46.2 -180.0 -39.85 -185.0 -33.7 -181.5" fill="#ff7a16" fill-rule="evenodd" stroke="none"/>
    <path d="M-30.0 -190.45 Q-20.95 -181.25 -25.95 -160.7 -27.2 -157.0 -29.05 -154.1 L-31.7 -150.6 -33.4 -148.9 -36.85 -146.55 -45.35 -143.2 -47.8 -141.45 Q-52.45 -137.0 -53.45 -134.9 L-55.35 -130.45 -57.3 -123.55 -59.0 -72.6 Q-59.25 -66.9 -61.85 -53.75 -65.05 -34.25 -87.0 -10.2 L-83.5 -6.65 -82.1 -4.3 -79.45 4.6 Q-78.9 6.15 -79.2 10.05 -80.5 17.05 -84.75 15.55 -87.95 12.65 -87.85 11.95 L-90.3 6.2 -90.6 5.75 -91.45 4.2 -91.8 2.7 -91.9 2.3 -92.3 1.3 -92.95 -1.9 -91.8 -7.45 -91.8 -8.5 -91.8 -8.7 -99.55 -13.7 -103.7 -17.75 Q-108.05 -22.25 -115.95 -44.15 L-115.95 -44.1 Q-117.1 -41.0 -117.95 -43.0 -118.45 -44.2 -118.85 -46.95 L-118.95 -46.95 Q-119.7 -44.35 -120.45 -46.4 -120.9 -47.45 -121.25 -49.85 L-120.6 -49.7 -119.15 -49.5 Q-117.85 -50.05 -121.25 -54.8 L-121.9 -56.45 -121.4 -57.3 -120.4 -57.35 -120.4 -57.7 -121.05 -59.85 Q-129.15 -94.75 -125.3 -111.5 -117.8 -132.05 -94.85 -136.1 L-95.9 -137.25 Q-103.5 -140.95 -101.8 -141.5 -102.95 -143.25 -95.6 -146.2 L-98.8 -147.25 Q-102.2 -147.25 -106.15 -148.55 L-107.45 -149.3 -108.2 -150.15 -108.4 -151.0 Q-108.7 -153.9 -100.1 -155.9 -113.3 -159.1 -116.3 -164.95 -116.95 -169.3 -102.25 -167.0 L-97.65 -165.95 -92.65 -164.1 Q-85.9 -168.0 -69.95 -167.0 -59.8 -166.4 -57.05 -154.55 L-54.7 -167.0 Q-54.35 -166.75 -51.2 -170.5 L-49.05 -171.75 Q-49.2 -165.15 -36.9 -170.6 -32.05 -172.3 -32.25 -177.95 L-33.1 -180.65 -33.7 -181.5 Q-29.1 -184.8 -29.8 -188.95 L-30.0 -190.45 M-124.05 -59.4 L-122.9 -59.95 -121.05 -59.85 -120.4 -57.7 -120.4 -57.35 -118.65 -57.3 -117.8 -57.15 -118.65 -57.3 -120.4 -57.35 -121.4 -57.3 -121.9 -56.45 -121.25 -54.8 -122.15 -55.05 -123.1 -57.3 -123.5 -58.85 -123.55 -59.0 -124.05 -59.4 M-71.55 -145.9 L-72.0 -146.4 -74.0 -146.65 -72.0 -146.4 -71.55 -145.9 M-65.45 -113.2 L-65.9 -114.25 -65.65 -116.4 -63.9 -123.1 -57.8 -140.15 -57.05 -145.05 -57.05 -154.55 -57.05 -145.05 -57.8 -140.15 -63.9 -123.1 -65.65 -116.4 -65.9 -114.25 -65.45 -113.2 M-74.1 -154.3 L-74.95 -154.7 -76.9 -154.95 -74.95 -154.7 -74.1 -154.3 M-79.3 -142.5 L-77.6 -144.3 -74.0 -146.65 -75.25 -146.75 -80.15 -146.1 -79.3 -142.5 -79.85 -140.65 -79.65 -140.25 -79.0 -140.05 -79.65 -140.25 -79.85 -140.65 -79.3 -142.5 M-74.65 -137.7 L-74.6 -137.7 Q-75.65 -140.15 -79.0 -140.05 L-78.65 -137.15 -74.65 -137.7 -74.2 -134.05 -75.9 -116.6 -74.2 -134.05 -74.65 -137.7 M-82.2 -151.95 Q-90.05 -146.4 -80.15 -146.1 -90.05 -146.4 -82.2 -151.95 -79.75 -152.8 -76.9 -154.95 L-83.9 -155.6 -82.2 -151.95 M-92.65 -164.1 Q-97.3 -160.1 -85.5 -156.0 L-83.9 -155.6 -85.5 -156.0 Q-97.3 -160.1 -92.65 -164.1 M-94.75 -146.75 L-95.6 -146.2 -94.75 -146.75 M-99.05 -156.75 L-100.1 -155.9 -99.05 -156.75 M-94.85 -136.1 L-78.65 -137.15 -94.85 -136.1 M-120.85 -54.75 L-121.2 -55.45 -121.05 -56.3 -120.85 -56.85 -121.05 -56.3 -121.2 -55.45 -120.85 -54.75 M-118.85 -46.95 L-118.95 -47.25 -119.15 -49.5 -118.95 -47.25 -118.85 -46.95 M-123.2 -59.5 L-123.5 -58.85 -123.2 -59.5 M-91.35 -8.3 L-91.8 -8.5 -91.35 -8.3 M-118.65 -49.5 L-118.1 -46.3 -117.95 -43.0 -118.1 -46.3 -118.65 -49.5 M-118.95 -46.95 L-118.95 -47.25 -118.95 -46.95 M-114.45 -49.05 L-115.45 -46.4 -115.95 -44.1 -115.45 -46.4 -114.45 -49.05 M-120.45 -46.4 L-120.6 -49.7 -120.45 -46.4 M-91.25 1.85 L-88.45 8.55 Q-84.95 16.8 -79.85 11.65 -84.95 16.8 -88.45 8.55 L-91.25 1.85 M-91.65 2.7 L-91.9 2.3 -91.65 2.7 -90.5 5.75 -90.6 5.75 -90.5 5.75 -91.65 2.7 -91.8 2.7 -91.65 2.7 M-90.3 6.2 L-90.4 5.9 -90.5 5.75 -90.4 5.9 -90.3 6.2" fill="#ffffff" fill-rule="evenodd" stroke="none"/>
    <path d="M-46.7 -186.8 L-45.55 -189.0 -44.3 -190.5 -43.95 -190.5 -45.0 -188.95 -46.05 -186.45 -46.7 -186.8 M-38.55 -194.55 L-36.25 -195.0 -35.65 -194.7 -36.5 -193.9 -38.75 -193.7 -39.05 -194.25 -38.55 -194.55" fill="#000000" fill-rule="evenodd" stroke="none"/>
    <path d="M-54.7 -167.0 Q-61.2 -177.7 -69.85 -180.95 -63.0 -182.8 -56.75 -180.3 L-50.75 -177.95 -48.35 -176.15 -48.75 -175.2 -49.05 -171.75 -51.2 -170.5 Q-54.35 -166.75 -54.7 -167.0" fill="#fa420e" fill-rule="evenodd" stroke="none"/>
    <path d="M-63.65 -199.8 L-63.75 -199.8 -63.85 -199.6 -63.8 -199.35 -63.65 -199.8 -62.9 -199.8 -58.55 -199.8 -58.35 -199.45 -54.8 -194.75 -48.4 -187.75 -46.7 -186.8 -45.55 -189.0 -44.3 -190.5 -43.95 -190.5 -43.95 -190.65 -40.9 -193.6 -38.55 -194.55 -36.25 -195.0 Q-29.65 -193.9 -30.0 -190.45 -20.95 -181.25 -25.95 -160.7 -27.2 -157.0 -29.05 -154.1 L-31.7 -150.6 -33.4 -148.9 -36.85 -146.55 -45.35 -143.2 -47.8 -141.45 Q-52.45 -137.0 -53.45 -134.9 L-55.35 -130.45 -57.3 -123.55 -59.0 -72.6 Q-59.25 -66.9 -61.85 -53.75 -65.05 -34.25 -87.0 -10.2 L-83.5 -6.65 -82.1 -4.3 -79.45 4.6 Q-78.9 6.15 -79.2 10.05 -80.5 17.05 -84.75 15.55 -87.95 12.65 -87.85 11.95 L-90.3 6.2 -90.6 5.75 -91.45 4.2 -91.8 2.7 -91.9 2.3 -92.3 1.3 -92.95 -1.9 -91.8 -7.45 -91.8 -8.5 -91.8 -8.7 -99.55 -13.7 -103.7 -17.75 Q-108.05 -22.25 -115.95 -44.15 L-115.95 -44.1 Q-117.1 -41.0 -117.95 -43.0 -118.45 -44.2 -118.85 -46.95 L-118.95 -46.95 Q-119.7 -44.35 -120.45 -46.4 -120.9 -47.45 -121.25 -49.85 -126.95 -52.2 -130.85 -52.8 L-136.2 -55.05 Q-137.8 -55.2 -140.35 -54.3 L-142.6 -55.05 Q-143.45 -55.15 -145.55 -58.2 L-150.45 -69.1 -150.8 -69.85 -150.9 -70.3 -151.0 -70.35 -151.0 -70.6 -151.25 -71.0 -152.05 -73.25 -154.7 -81.65 -154.65 -82.7 -154.0 -82.65 -151.75 -79.25 -148.35 -72.85 -147.8 -71.85 -147.65 -71.6 -147.65 -71.55 -147.5 -71.3 -147.25 -70.95 -147.2 -70.9 -147.05 -70.65 -147.0 -70.55 -146.85 -70.3 -146.8 -70.25 -146.65 -70.0 -146.4 -69.6 -146.25 -69.35 -146.1 -69.15 -145.95 -68.9 Q-141.05 -61.15 -140.8 -61.55 L-135.9 -58.35 -125.95 -55.9 -136.3 -65.05 Q-140.95 -66.85 -141.1 -68.35 -143.15 -70.75 -142.9 -83.8 L-142.9 -84.3 -142.9 -84.75 -142.9 -85.2 -142.9 -85.4 -142.85 -86.15 -142.85 -86.45 -142.8 -87.0 -142.8 -87.2 -142.8 -87.35 -142.8 -87.6 -142.8 -87.85 -142.5 -91.9 -141.95 -94.0 -141.95 -94.15 -141.85 -94.2 -141.7 -95.3 -141.6 -95.75 -141.5 -96.5 -141.4 -96.95 Q-140.9 -99.65 -140.35 -99.35 L-139.95 -98.6 -139.4 -90.2 -138.75 -78.8 Q-138.2 -72.8 -136.95 -71.2 -135.1 -67.95 -134.25 -67.6 L-124.05 -59.4 -122.9 -59.95 -121.05 -59.85 Q-129.15 -94.75 -125.3 -111.5 -117.8 -132.05 -94.85 -136.1 L-95.9 -137.25 Q-103.5 -140.95 -101.8 -141.5 -102.95 -143.25 -95.6 -146.2 L-98.8 -147.25 Q-102.2 -147.25 -106.15 -148.55 L-107.45 -149.3 -108.2 -150.15 -108.4 -151.0 Q-108.7 -153.9 -100.1 -155.9 -113.3 -159.1 -116.3 -164.95 -116.95 -169.3 -102.25 -167.0 L-97.65 -165.95 -92.65 -164.1 Q-85.9 -168.0 -69.95 -167.0 -59.8 -166.4 -57.05 -154.55 L-54.7 -167.0 Q-61.2 -177.7 -69.85 -180.95 -63.0 -182.8 -56.75 -180.3 -57.75 -181.5 -62.9 -195.85 L-63.8 -199.35 M-63.75 -199.8 L-63.9 -199.8 -63.85 -199.6 M-62.9 -199.8 L-62.9 -199.65 -62.8 -199.2 -62.8 -198.8 M-33.7 -181.5 Q-29.1 -184.8 -29.8 -188.95 L-30.0 -190.45 M-36.25 -195.0 L-35.65 -194.7 -36.5 -193.9 -38.75 -193.7 -39.05 -194.25 -38.55 -194.55 M-33.7 -181.5 L-33.1 -180.65 -32.25 -177.95 Q-32.05 -172.3 -36.9 -170.6 -49.2 -165.15 -49.05 -171.75 L-51.2 -170.5 Q-54.35 -166.75 -54.7 -167.0 M-46.7 -186.8 L-46.05 -186.45 -45.0 -188.95 -43.95 -190.5 M-56.75 -180.3 L-50.75 -177.95 -48.35 -176.15 -47.15 -177.65 -47.25 -177.95 -47.8 -178.15 -48.2 -178.5 M-46.2 -180.0 L-47.25 -177.95 M-49.05 -171.75 L-48.75 -175.2 -48.35 -176.15 M-46.05 -186.45 L-46.7 -183.5 -46.2 -180.0 Q-39.85 -185.0 -33.7 -181.5 M-76.9 -154.95 L-74.95 -154.7 -74.1 -154.3 M-57.05 -154.55 L-57.05 -145.05 -57.8 -140.15 -63.9 -123.1 -65.65 -116.4 -65.9 -114.25 -65.45 -113.2 M-74.0 -146.65 L-72.0 -146.4 -71.55 -145.9 M-80.15 -146.1 L-75.25 -146.75 -74.0 -146.65 -77.6 -144.3 -79.3 -142.5 -79.85 -140.65 -79.65 -140.25 -79.0 -140.05 Q-75.65 -140.15 -74.6 -137.7 L-74.65 -137.7 -74.2 -134.05 -75.9 -116.6 M-79.3 -142.5 L-80.15 -146.1 Q-90.05 -146.4 -82.2 -151.95 L-83.9 -155.6 -85.5 -156.0 Q-97.3 -160.1 -92.65 -164.1 M-78.65 -137.15 L-79.0 -140.05 M-74.65 -137.7 L-78.65 -137.15 -94.85 -136.1 M-100.1 -155.9 L-99.05 -156.75 M-95.6 -146.2 L-94.75 -146.75 M-121.05 -59.85 L-120.4 -57.7 -120.4 -57.35 -118.65 -57.3 -117.8 -57.15 M-120.4 -57.35 L-121.4 -57.3 -121.9 -56.45 -121.25 -54.8 Q-117.85 -50.05 -119.15 -49.5 L-118.95 -47.25 -118.85 -46.95 M-120.85 -56.85 L-121.05 -56.3 -121.2 -55.45 -120.85 -54.75 M-121.25 -49.85 L-120.6 -49.7 -119.15 -49.5 M-139.4 -90.2 Q-140.1 -96.65 -141.75 -90.2 L-142.15 -88.25 -142.15 -87.85 M-141.95 -94.0 L-141.85 -93.2 -142.35 -90.2 -142.35 -90.1 -142.75 -87.8 -142.7 -87.6 -142.8 -87.6 M-142.3 -87.55 L-142.3 -87.1 M-142.8 -87.85 L-142.75 -87.8 M-142.8 -87.35 L-142.6 -86.35 -142.6 -86.15 -142.5 -85.7 M-142.85 -85.6 L-142.9 -85.2 M-142.85 -86.15 L-142.85 -85.7 -142.85 -85.6 -142.9 -85.4 M-152.05 -73.25 L-152.15 -74.2 -152.4 -74.55 Q-153.3 -80.05 -149.2 -73.7 L-148.55 -72.9 -148.35 -72.85 M-150.9 -70.3 L-150.75 -69.8 -150.65 -69.7 -150.45 -69.1 M-150.8 -69.85 L-150.75 -69.8 M-123.5 -58.85 L-123.2 -59.5 M-125.95 -55.9 L-122.15 -55.05 -123.1 -57.3 -123.5 -58.85 -123.55 -59.0 -124.05 -59.4 M-115.95 -44.1 L-115.45 -46.4 -114.45 -49.05 M-118.95 -47.25 L-118.95 -46.95 M-117.95 -43.0 L-118.1 -46.3 -118.65 -49.5 M-91.8 -8.5 L-91.35 -8.3 M-121.25 -54.8 L-122.15 -55.05 M-120.6 -49.7 L-120.45 -46.4 M-82.2 -151.95 Q-79.75 -152.8 -76.9 -154.95 L-83.9 -155.6 M-90.6 5.75 L-90.5 5.75 -91.65 2.7 -91.8 2.7 M-90.5 5.75 L-90.4 5.9 -90.3 6.2 M-91.9 2.3 L-91.65 2.7 M-79.85 11.65 Q-84.95 16.8 -88.45 8.55 L-91.25 1.85" fill="none" stroke="#000000" stroke-linecap="round" stroke-linejoin="round" stroke-width="0.05"/>
  </g>
</svg>
