<?xml version="1.0" encoding="UTF-8" standalone="no"?>
<svg xmlns:xlink="http://www.w3.org/1999/xlink" height="217.85px" width="134.1px" xmlns="http://www.w3.org/2000/svg">
  <g transform="matrix(1.0, 0.0, 0.0, 1.0, 151.15, 190.0)">
    <path d="M-26.2 -175.75 L-25.6 -175.3 -25.6 -174.9 -26.25 -174.55 -27.9 -174.45 -28.6 -174.75 -28.75 -175.2 -27.45 -175.8 -26.7 -175.8 -26.25 -175.75 -26.2 -175.75 M-35.1 -171.7 L-36.6 -169.55 -37.55 -167.2 -38.3 -167.65 -37.9 -168.5 -37.75 -168.55 -36.7 -170.4 -34.9 -172.0 -35.1 -171.7" fill="#000000" fill-rule="evenodd" stroke="none"/>
    <path d="M-27.45 -175.8 L-28.75 -175.2 -28.6 -174.75 -27.9 -174.45 -26.25 -174.55 -25.6 -174.9 -25.6 -175.3 -26.2 -175.75 Q-23.3 -175.8 -22.15 -170.05 L-22.2 -167.0 -22.85 -164.3 Q-23.3 -162.9 -26.25 -160.8 -29.75 -167.2 -38.1 -161.25 -29.75 -167.2 -26.25 -160.8 L-25.75 -159.1 -25.75 -156.0 Q-25.85 -151.05 -35.75 -147.7 -40.4 -145.65 -41.8 -151.85 L-41.4 -156.0 -40.95 -157.4 -39.45 -159.85 -38.1 -161.25 -38.3 -164.1 -37.7 -167.0 -37.55 -167.2 -36.6 -169.55 -35.1 -171.7 -34.25 -172.55 -35.1 -171.7 -34.9 -172.0 -34.5 -172.4 -34.25 -172.55 Q-34.0 -173.35 -30.5 -175.2 L-27.45 -175.8" fill="#ff7a16" fill-rule="evenodd" stroke="none"/>
    <path d="M-26.25 -160.8 Q-23.3 -162.9 -22.85 -164.3 L-22.2 -167.0 -22.15 -170.05 Q-13.05 -158.25 -20.2 -137.9 L-22.35 -133.85 -26.4 -129.1 -30.3 -126.4 Q-40.65 -123.0 -39.9 -122.55 -43.85 -119.35 -46.5 -116.15 L-48.65 -112.45 -51.4 -105.65 -52.05 -103.15 -59.05 -58.45 Q-61.15 -46.2 -65.6 -34.8 -73.7 -14.75 -96.25 1.85 -96.7 2.0 -92.45 6.55 L-89.95 14.3 -89.0 19.55 -89.15 22.2 Q-89.4 25.6 -89.85 25.7 -91.85 29.85 -96.15 25.95 -103.55 12.45 -102.25 8.9 L-102.1 8.75 -101.0 3.2 -100.95 3.0 -108.05 -4.05 Q-109.25 -4.9 -111.8 -10.0 -114.7 -14.4 -118.85 -39.2 L-118.95 -39.2 -119.15 -39.2 -119.7 -38.3 -120.35 -38.3 -120.55 -39.05 -121.05 -39.4 -121.05 -43.2 -121.2 -43.2 -122.45 -41.75 -122.9 -42.35 -123.3 -42.9 -123.55 -44.3 -123.3 -46.95 -121.0 -45.8 -120.35 -45.8 -120.35 -46.3 -121.6 -51.4 -121.7 -51.45 -122.25 -51.75 -122.55 -53.9 -121.3 -54.3 -121.25 -54.3 -121.5 -56.1 -122.45 -70.9 -122.35 -86.25 -122.25 -86.7 Q-122.35 -105.75 -116.1 -112.45 -101.55 -127.7 -89.75 -125.05 L-90.95 -126.4 Q-95.1 -126.85 -94.55 -129.35 L-95.6 -130.85 -95.6 -131.95 -95.2 -132.7 -93.35 -133.75 -89.25 -134.5 -89.3 -134.6 -89.55 -135.15 -90.5 -135.75 Q-113.8 -141.65 -94.2 -146.65 -105.05 -151.5 -107.55 -159.1 -105.3 -162.35 -90.75 -156.0 L-85.4 -153.15 Q-82.7 -151.8 -79.65 -147.4 -63.5 -146.55 -61.65 -121.85 -49.05 -125.45 -46.7 -147.8 L-45.65 -148.45 -45.0 -149.55 -41.8 -151.85 Q-40.4 -145.65 -35.75 -147.7 -25.85 -151.05 -25.75 -156.0 L-25.75 -159.1 -26.25 -160.8 M-60.75 -99.25 L-61.75 -101.15 -62.5 -104.6 -62.4 -112.1 -61.65 -121.85 -62.4 -112.1 -62.5 -104.6 -61.75 -101.15 -60.75 -99.25 M-71.2 -99.9 L-74.75 -110.2 -75.7 -112.1 -77.6 -115.0 Q-78.75 -116.3 -82.2 -118.0 L-86.75 -119.55 -87.4 -120.35 -87.55 -121.3 -86.45 -123.1 -84.75 -124.6 -84.65 -124.6 -81.85 -126.5 -79.95 -126.1 -79.1 -125.55 -79.95 -126.1 -81.85 -126.5 -84.65 -124.6 -84.75 -124.6 -86.45 -123.1 -87.55 -121.3 -87.4 -120.35 -86.75 -119.55 -82.2 -118.0 Q-78.75 -116.3 -77.6 -115.0 L-75.7 -112.1 -74.75 -110.2 -71.2 -99.9 M-124.8 -56.3 L-123.75 -56.85 -121.5 -56.1 -121.25 -54.3 -121.3 -54.3 -122.55 -53.9 -122.25 -51.75 -123.4 -52.4 -124.15 -55.6 -124.8 -56.3 M-121.3 -54.3 L-118.4 -53.1 -121.3 -54.3 M-79.65 -147.4 L-87.3 -147.4 -94.2 -146.65 -87.3 -147.4 -79.65 -147.4 M-89.75 -125.05 L-84.75 -124.6 -89.75 -125.05 M-81.85 -126.5 L-81.8 -126.5 -90.95 -126.4 -81.8 -126.5 -81.85 -126.5 M-90.5 -135.75 L-86.35 -135.35 -84.0 -134.9 -83.15 -134.4 -84.0 -134.9 -86.35 -135.35 -92.75 -131.85 Q-94.2 -130.95 -94.55 -129.35 -94.2 -130.95 -92.75 -131.85 L-86.35 -135.35 -90.5 -135.75 M-89.3 -134.6 L-88.4 -135.05 -89.3 -134.6 M-123.6 -56.45 L-124.15 -55.6 -123.6 -56.45 M-120.55 -39.05 L-120.2 -42.35 -120.35 -45.8 -120.2 -42.35 -120.55 -39.05 M-121.7 -53.45 L-121.9 -52.8 -121.7 -51.45 -121.9 -52.8 -121.7 -53.45 M-121.05 -43.2 L-121.05 -43.5 -121.0 -45.8 -121.05 -43.5 -121.05 -43.2 M-122.9 -42.35 L-122.55 -46.3 -122.9 -42.35 M-102.1 8.75 L-102.1 8.9 -102.25 8.9 -102.1 8.9 -102.1 8.75 M-101.0 3.2 L-100.5 3.55 -101.0 3.2 M-89.15 22.2 Q-94.2 31.15 -98.8 19.55 L-100.95 14.1 -98.8 19.55 Q-94.2 31.15 -89.15 22.2 M-121.2 -43.2 L-121.05 -43.5 -121.2 -43.2 M-118.95 -39.2 L-118.65 -40.1 -116.35 -44.1 -118.65 -40.1 -118.95 -39.2" fill="#ffffff" fill-rule="evenodd" stroke="none"/>
    <path d="M-37.55 -167.2 L-37.7 -167.0 -38.3 -164.1 -38.1 -161.25 -39.45 -159.85 -40.95 -157.4 -43.3 -159.0 -48.0 -161.1 -50.75 -168.8 Q-51.55 -176.2 -53.1 -182.1 L-53.25 -183.8 -53.25 -183.95 -53.35 -184.7 -53.4 -185.3 -53.45 -185.6 -53.5 -186.05 -53.75 -188.55 -53.85 -190.0 -53.1 -189.8 -52.4 -188.95 -44.9 -177.5 -42.45 -171.75 -41.3 -170.0 Q-39.2 -167.8 -38.3 -167.65 L-37.55 -167.2 M-52.45 -183.2 L-52.8 -184.7 -52.8 -185.1 -52.8 -185.2 -53.0 -185.7 -53.0 -185.75 -53.05 -185.8 -53.25 -186.8 -53.25 -186.9 -53.4 -188.05 -53.75 -188.55 -53.4 -188.05 -53.25 -186.9 -53.25 -186.8 -53.05 -185.8 -53.0 -185.75 -53.0 -185.7 -52.8 -185.2 -52.8 -185.1 -52.8 -184.7 -52.45 -183.2 M-52.8 -185.1 L-53.0 -185.7 -52.8 -185.1 M-123.3 -46.95 Q-128.65 -50.85 -132.25 -52.4 L-136.55 -55.65 -141.1 -56.1 -143.45 -58.0 Q-145.05 -59.35 -148.05 -70.35 L-148.35 -71.85 -148.45 -72.3 -148.55 -72.8 -148.6 -72.95 -148.7 -73.5 -148.75 -73.7 -148.95 -74.5 -149.05 -75.05 -150.9 -83.35 -151.0 -84.55 -151.05 -85.0 Q-151.75 -93.2 -147.05 -79.25 L-146.35 -76.95 -146.15 -76.45 -142.35 -67.7 -139.8 -62.9 -135.45 -58.65 -128.65 -55.15 -136.75 -64.6 -139.6 -66.55 -140.45 -67.8 -141.2 -69.95 Q-142.35 -73.2 -141.5 -83.35 L-141.45 -83.9 -141.45 -84.0 -141.45 -84.4 -141.4 -84.55 -141.35 -85.25 -141.3 -85.7 -141.3 -85.9 -141.25 -86.25 -141.2 -86.55 -141.15 -87.0 -141.1 -87.6 -141.05 -87.95 -140.8 -90.4 -139.6 -94.6 Q-136.25 -106.0 -137.55 -90.75 L-137.6 -90.2 -137.7 -78.05 -136.85 -71.55 Q-134.85 -66.9 -134.05 -66.45 L-124.8 -56.3 -124.15 -55.6 -123.4 -52.4 -122.25 -51.75 -121.7 -51.45 -121.6 -51.4 -120.35 -46.3 -120.35 -45.8 -121.0 -45.8 -123.3 -46.95 M-128.65 -55.15 L-126.75 -53.9 -123.4 -52.4 -126.75 -53.9 -128.65 -55.15 M-148.45 -72.4 L-148.55 -72.8 -148.45 -72.4 -148.35 -71.85 -148.45 -72.4 -148.45 -72.3 -148.45 -72.4 M-148.75 -73.7 L-148.75 -73.9 -148.95 -74.6 -149.05 -75.2 -148.95 -75.6 -149.75 -79.25 Q-150.2 -85.0 -147.5 -79.25 L-146.35 -76.95 -147.5 -79.25 Q-150.2 -85.0 -149.75 -79.25 L-148.95 -75.6 -149.05 -75.2 -148.95 -74.6 -148.75 -73.9 -148.7 -73.6 -148.6 -72.95 -148.7 -73.6 -148.75 -73.9 -148.75 -73.7 M-148.7 -73.5 L-148.7 -73.6 -148.7 -73.5 M-149.05 -75.05 L-149.05 -75.2 -149.05 -75.05 M-148.95 -74.6 L-148.95 -74.5 -148.95 -74.6 M-141.2 -86.45 L-141.2 -86.55 -141.2 -86.45 -141.1 -87.0 -141.0 -87.55 -139.6 -93.7 -139.55 -94.15 -139.6 -94.6 -139.55 -94.15 -139.6 -93.7 -141.0 -87.55 -141.1 -87.0 -141.2 -86.45 -141.25 -86.25 -141.2 -86.45 M-141.0 -87.55 L-141.05 -87.95 -141.0 -87.55 M-141.1 -87.0 L-141.1 -87.6 -141.1 -87.0 M-140.25 -88.7 L-139.8 -90.2 Q-137.55 -96.75 -137.55 -90.75 -137.55 -96.75 -139.8 -90.2 L-140.25 -88.7" fill="#fa410f" fill-rule="evenodd" stroke="none"/>
    <path d="M-41.8 -151.85 L-45.0 -149.55 -45.65 -148.45 -46.7 -147.8 Q-52.25 -157.1 -53.55 -157.4 L-60.7 -162.3 -56.1 -162.95 -55.65 -162.95 Q-51.8 -162.85 -48.0 -161.1 L-43.3 -159.0 -40.95 -157.4 -41.4 -156.0 -41.8 -151.85" fill="#fa420e" fill-rule="evenodd" stroke="none"/>
    <path d="M-27.45 -175.8 L-28.75 -175.2 -28.6 -174.75 -27.9 -174.45 -26.25 -174.55 -25.6 -174.9 -25.6 -175.3 -26.2 -175.75 -26.25 -175.75 -26.7 -175.8 -27.45 -175.8 -30.5 -175.2 Q-34.0 -173.35 -34.25 -172.55 L-35.1 -171.7 -36.6 -169.55 -37.55 -167.2 -37.7 -167.0 -38.3 -164.1 -38.1 -161.25 Q-29.75 -167.2 -26.25 -160.8 -23.3 -162.9 -22.85 -164.3 L-22.2 -167.0 -22.15 -170.05 Q-23.3 -175.8 -26.2 -175.75 M-34.9 -172.0 L-34.5 -172.4 -34.25 -172.55 M-35.1 -171.7 L-34.9 -172.0 -36.7 -170.4 -37.75 -168.55 -37.9 -168.5 -38.3 -167.65 -37.55 -167.2 M-26.25 -160.8 L-25.75 -159.1 -25.75 -156.0 Q-25.85 -151.05 -35.75 -147.7 -40.4 -145.65 -41.8 -151.85 L-45.0 -149.55 -45.65 -148.45 -46.7 -147.8 Q-49.05 -125.45 -61.65 -121.85 L-62.4 -112.1 -62.5 -104.6 -61.75 -101.15 -60.75 -99.25 M-40.95 -157.4 L-39.45 -159.85 -38.1 -161.25 M-38.3 -167.65 Q-39.2 -167.8 -41.3 -170.0 L-42.45 -171.75 -44.9 -177.5 -52.4 -188.95 -53.1 -189.8 -53.85 -190.0 -53.75 -188.55 -53.4 -188.05 -53.25 -186.9 -53.25 -186.8 -53.05 -185.8 -53.0 -185.75 -53.0 -185.7 -52.8 -185.2 -52.8 -185.1 -52.8 -184.7 -52.45 -183.2 M-53.75 -188.55 L-53.5 -186.05 -53.45 -185.6 -53.4 -185.3 -53.35 -184.7 -53.25 -183.95 -53.25 -183.8 -53.1 -182.1 Q-51.55 -176.2 -50.75 -168.8 L-48.0 -161.1 -43.3 -159.0 -40.95 -157.4 -41.4 -156.0 -41.8 -151.85 M-53.0 -185.7 L-52.8 -185.1 M-46.7 -147.8 Q-52.25 -157.1 -53.55 -157.4 L-60.7 -162.3 -56.1 -162.95 -55.65 -162.95 Q-51.8 -162.85 -48.0 -161.1 M-79.1 -125.55 L-79.95 -126.1 -81.85 -126.5 -84.65 -124.6 -84.75 -124.6 -86.45 -123.1 -87.55 -121.3 -87.4 -120.35 -86.75 -119.55 -82.2 -118.0 Q-78.75 -116.3 -77.6 -115.0 L-75.7 -112.1 -74.75 -110.2 -71.2 -99.9 M-124.8 -56.3 L-123.75 -56.85 -121.5 -56.1 -122.45 -70.9 -122.35 -86.25 -122.25 -86.7 Q-122.35 -105.75 -116.1 -112.45 -101.55 -127.7 -89.75 -125.05 L-90.95 -126.4 Q-95.1 -126.85 -94.55 -129.35 L-95.6 -130.85 -95.6 -131.95 -95.2 -132.7 -93.35 -133.75 -89.25 -134.5 -89.3 -134.6 -89.55 -135.15 -90.5 -135.75 Q-113.8 -141.65 -94.2 -146.65 -105.05 -151.5 -107.55 -159.1 -105.3 -162.35 -90.75 -156.0 L-85.4 -153.15 Q-82.7 -151.8 -79.65 -147.4 -63.5 -146.55 -61.65 -121.85 M-22.15 -170.05 Q-13.05 -158.25 -20.2 -137.9 L-22.35 -133.85 -26.4 -129.1 -30.3 -126.4 Q-40.65 -123.0 -39.9 -122.55 -43.85 -119.35 -46.5 -116.15 L-48.65 -112.45 -51.4 -105.65 -52.05 -103.15 -59.05 -58.45 Q-61.15 -46.2 -65.6 -34.8 -73.7 -14.75 -96.25 1.85 -96.7 2.0 -92.45 6.55 L-89.95 14.3 -89.0 19.55 -89.15 22.2 Q-89.4 25.6 -89.85 25.7 -91.85 29.85 -96.15 25.95 -103.55 12.45 -102.25 8.9 L-102.1 8.75 -101.0 3.2 -100.95 3.0 -108.05 -4.05 Q-109.25 -4.9 -111.8 -10.0 -114.7 -14.4 -118.85 -39.2 L-118.95 -39.2 -119.15 -39.2 -119.7 -38.3 -120.35 -38.3 -120.55 -39.05 -121.05 -39.4 -121.05 -43.2 -121.2 -43.2 -122.45 -41.75 -122.9 -42.35 -123.3 -42.9 -123.55 -44.3 -123.3 -46.95 Q-128.65 -50.85 -132.25 -52.4 L-136.55 -55.65 -141.1 -56.1 -143.45 -58.0 Q-145.05 -59.35 -148.05 -70.35 L-148.35 -71.85 -148.45 -72.3 -148.55 -72.8 -148.6 -72.95 -148.7 -73.5 -148.75 -73.7 -148.95 -74.5 -149.05 -75.05 -150.9 -83.35 -151.0 -84.55 -151.05 -85.0 Q-151.75 -93.2 -147.05 -79.25 L-146.35 -76.95 -146.15 -76.45 -142.35 -67.7 -139.8 -62.9 -135.45 -58.65 -128.65 -55.15 -136.75 -64.6 -139.6 -66.55 -140.45 -67.8 -141.2 -69.95 Q-142.35 -73.2 -141.5 -83.35 L-141.45 -83.9 -141.45 -84.0 -141.45 -84.4 -141.4 -84.55 -141.35 -85.25 -141.3 -85.7 -141.3 -85.9 -141.25 -86.25 -141.2 -86.55 -141.15 -87.0 -141.1 -87.6 -141.05 -87.95 -140.8 -90.4 -139.6 -94.6 Q-136.25 -106.0 -137.55 -90.75 L-137.6 -90.2 -137.7 -78.05 -136.85 -71.55 Q-134.85 -66.9 -134.05 -66.45 L-124.8 -56.3 -124.15 -55.6 -123.6 -56.45 M-83.15 -134.4 L-84.0 -134.9 -86.35 -135.35 -92.75 -131.85 Q-94.2 -130.95 -94.55 -129.35 M-88.4 -135.05 L-89.3 -134.6 M-86.35 -135.35 L-90.5 -135.75 M-90.95 -126.4 L-81.8 -126.5 -81.85 -126.5 M-84.75 -124.6 L-89.75 -125.05 M-94.2 -146.65 L-87.3 -147.4 -79.65 -147.4 M-122.25 -51.75 L-122.55 -53.9 -121.3 -54.3 -121.25 -54.3 -121.5 -56.1 M-118.4 -53.1 L-121.3 -54.3 M-139.6 -94.6 L-139.55 -94.15 -139.6 -93.7 -141.0 -87.55 -141.1 -87.0 -141.2 -86.45 -141.25 -86.25 M-137.55 -90.75 Q-137.55 -96.75 -139.8 -90.2 L-140.25 -88.7 M-141.1 -87.6 L-141.1 -87.0 M-141.05 -87.95 L-141.0 -87.55 M-141.2 -86.55 L-141.2 -86.45 M-146.35 -76.95 L-147.5 -79.25 Q-150.2 -85.0 -149.75 -79.25 L-148.95 -75.6 -149.05 -75.2 -148.95 -74.6 -148.75 -73.9 -148.7 -73.6 -148.6 -72.95 M-148.95 -74.5 L-148.95 -74.6 M-149.05 -75.2 L-149.05 -75.05 M-148.7 -73.6 L-148.7 -73.5 M-148.75 -73.9 L-148.75 -73.7 M-148.35 -71.85 L-148.45 -72.4 -148.45 -72.3 M-148.55 -72.8 L-148.45 -72.4 M-123.4 -52.4 L-126.75 -53.9 -128.65 -55.15 M-121.7 -51.45 L-121.6 -51.4 -120.35 -46.3 -120.35 -45.8 -120.2 -42.35 -120.55 -39.05 M-122.25 -51.75 L-121.7 -51.45 -121.9 -52.8 -121.7 -53.45 M-124.15 -55.6 L-123.4 -52.4 -122.25 -51.75 M-122.55 -46.3 L-122.9 -42.35 M-121.0 -45.8 L-121.05 -43.5 -121.05 -43.2 M-120.35 -45.8 L-121.0 -45.8 -123.3 -46.95 M-116.35 -44.1 L-118.65 -40.1 -118.95 -39.2 M-121.05 -43.5 L-121.2 -43.2 M-100.95 14.1 L-98.8 19.55 Q-94.2 31.15 -89.15 22.2 M-100.5 3.55 L-101.0 3.2 M-102.25 8.9 L-102.1 8.9 -102.1 8.75" fill="none" stroke="#000000" stroke-linecap="round" stroke-linejoin="round" stroke-width="0.05"/>
  </g>
</svg>
