<?xml version="1.0" encoding="UTF-8" standalone="no"?>
<svg xmlns:xlink="http://www.w3.org/1999/xlink" height="205.65px" width="134.6px" xmlns="http://www.w3.org/2000/svg">
  <g transform="matrix(1.0, 0.0, 0.0, 1.0, 144.9, 160.7)">
    <path d="M-40.45 -159.55 L-40.45 -160.7 -39.05 -159.55 -37.25 -156.0 Q-36.25 -156.3 -36.25 -147.8 L-34.8 -143.2 -32.35 -138.3 -29.8 -135.9 -29.65 -135.75 -28.95 -135.35 -29.8 -131.3 -32.15 -129.1 -33.65 -126.6 -38.95 -129.95 -41.75 -140.15 Q-42.7 -145.95 -42.35 -148.1 -42.65 -148.1 -42.0 -150.75 L-41.75 -151.0 -41.6 -151.45 -41.4 -151.85 -41.55 -152.35 -41.4 -151.85 -41.6 -151.45 -41.75 -151.0 -42.0 -150.75 -41.55 -152.35 -40.55 -155.9 -40.45 -159.55 -40.45 -159.1 -40.25 -158.6 -40.0 -157.4 -40.15 -154.45 -40.45 -153.15 -40.15 -154.45 -40.0 -157.4 -40.25 -158.6 -40.45 -159.1 -40.45 -159.55 M-123.3 -38.85 Q-125.45 -41.95 -130.55 -46.3 L-134.5 -51.1 -138.25 -52.4 -140.35 -54.6 -141.95 -58.65 -143.8 -70.9 -143.85 -71.2 -144.0 -72.05 -144.05 -72.6 -144.2 -73.45 -144.4 -74.75 -144.4 -74.85 -144.8 -81.15 -144.85 -82.0 -144.85 -82.5 -144.9 -84.2 -144.9 -85.4 Q-144.7 -91.5 -141.95 -79.25 L-141.35 -76.25 -138.3 -64.55 -138.55 -70.9 -137.25 -81.25 -137.05 -82.0 -135.55 -87.4 Q-135.05 -87.85 -134.4 -89.05 L-132.8 -93.15 -132.05 -93.7 -131.85 -93.35 -132.7 -86.45 -134.05 -75.5 Q-134.55 -71.95 -134.05 -66.45 L-131.95 -60.5 -123.6 -47.7 -122.95 -46.6 -122.75 -46.3 -122.7 -44.3 -129.3 -50.35 -122.7 -44.3 -121.25 -43.1 -121.2 -43.0 -120.55 -42.5 -120.4 -42.35 -120.0 -36.5 -120.1 -36.5 -120.75 -36.6 -120.85 -36.6 -120.85 -36.7 -122.55 -38.15 -123.3 -38.85 M-41.1 -148.75 L-41.15 -150.45 -41.1 -148.75 M-40.95 -150.7 L-40.75 -151.65 -40.75 -152.15 -40.75 -151.65 -40.95 -150.7 M-138.3 -64.4 L-138.3 -64.55 -138.3 -64.4 -138.25 -64.1 -138.1 -64.1 -138.3 -64.4 M-143.8 -70.9 L-143.85 -71.35 -143.85 -71.2 -143.85 -71.35 -144.0 -73.35 -144.05 -73.15 -144.05 -73.05 -144.0 -72.05 -144.05 -73.05 -144.05 -73.15 -144.0 -73.35 -143.85 -71.35 -143.8 -70.9 M-144.05 -73.05 L-144.05 -72.6 -144.05 -73.05 M-144.0 -73.35 L-144.0 -73.7 -144.25 -74.3 -144.4 -74.75 -144.25 -74.3 -144.0 -73.7 -143.95 -75.2 -144.0 -73.7 -144.0 -73.35 M-141.35 -76.25 L-142.35 -79.25 -143.35 -81.0 -143.85 -80.8 -143.95 -75.2 -144.35 -76.75 -144.6 -79.2 -144.7 -80.15 -144.7 -80.7 -144.8 -81.15 -144.7 -80.7 -144.7 -80.15 -144.6 -79.2 -144.35 -76.75 -143.95 -75.2 -143.85 -80.8 -143.35 -81.0 -142.35 -79.25 -141.35 -76.25 M-135.45 -84.15 Q-132.85 -90.8 -132.7 -86.45 -132.85 -90.8 -135.45 -84.15 M-136.95 -81.35 L-136.95 -81.8 -137.05 -82.0 -136.95 -81.8 -134.4 -89.05 -136.95 -81.8 -136.95 -81.35 M-138.1 -63.95 L-138.1 -64.1 -138.1 -63.95 -138.25 -63.95 -138.1 -63.65 -138.1 -63.95 M-137.9 -63.25 L-138.0 -63.25 -138.0 -63.45 -138.1 -63.65 -138.0 -63.45 -138.0 -63.25 -137.9 -63.25 -138.0 -63.25 Q-138.05 -60.6 -133.65 -54.5 L-129.3 -50.35 -133.65 -57.8 Q-137.9 -61.5 -137.9 -63.25 M-138.25 -64.1 L-138.25 -63.95 -138.25 -64.1 M-144.25 -74.3 L-144.2 -73.45 -144.25 -74.3 M-120.75 -36.6 L-120.75 -36.7 -120.85 -36.7 -120.75 -36.7 -120.75 -36.6" fill="#fa410f" fill-rule="evenodd" stroke="none"/>
    <path d="M-38.95 -129.95 L-33.65 -126.6 -34.5 -123.1 -34.35 -119.55 Q-37.65 -117.85 -37.7 -117.0 L-38.6 -116.7 -42.9 -124.8 -44.15 -126.5 -50.75 -132.05 -50.9 -132.5 -49.9 -132.65 -49.25 -132.7 -48.95 -132.7 -48.0 -132.7 -47.15 -132.7 Q-43.35 -132.35 -38.95 -129.95" fill="#fa420e" fill-rule="evenodd" stroke="none"/>
    <path d="M-14.65 -136.75 Q-6.35 -125.4 -13.9 -104.45 L-17.25 -99.05 -20.65 -95.7 Q-24.05 -93.15 -33.4 -90.75 L-39.8 -85.6 -42.05 -82.85 -46.5 -74.4 -60.45 -29.15 Q-63.0 -20.9 -69.95 -8.6 -75.35 3.9 -105.2 18.35 L-101.9 24.3 -100.3 33.9 -100.7 40.1 Q-101.3 43.85 -102.55 44.1 -107.65 48.45 -111.45 31.1 -112.45 27.25 -112.1 25.6 L-109.85 18.65 -109.75 18.35 -116.15 7.9 -118.0 2.7 Q-118.8 1.45 -119.4 -5.5 L-119.45 -5.9 -120.2 -19.35 -120.2 -19.8 -120.55 -29.15 -121.2 -29.05 -121.25 -29.45 -121.4 -29.75 -122.05 -30.95 -121.25 -34.7 -123.1 -32.85 -123.55 -33.0 -123.55 -33.65 -124.05 -33.95 -124.15 -35.0 -123.3 -38.85 -122.55 -38.15 -120.85 -36.7 -120.85 -36.6 -120.75 -36.6 -120.1 -36.5 -120.0 -36.5 -120.4 -42.35 -120.55 -42.5 -121.2 -43.0 -121.25 -43.1 -122.7 -44.3 -122.75 -46.3 -122.95 -46.6 -123.6 -47.7 -123.3 -48.2 -122.55 -48.35 -122.0 -47.95 -120.1 -46.65 -119.25 -57.9 -116.95 -74.1 -116.8 -74.2 -116.8 -74.75 -116.7 -74.85 -116.7 -75.25 -116.6 -75.5 -116.6 -75.9 -116.5 -76.25 -116.5 -76.45 -116.35 -76.9 -116.35 -77.1 -116.3 -77.5 -116.3 -77.6 -114.65 -85.6 -112.35 -92.45 -112.25 -92.5 -112.25 -92.65 -112.1 -92.75 -112.1 -92.85 -112.05 -92.95 -112.05 -93.05 -111.9 -93.15 -111.25 -94.45 -111.2 -94.55 Q-108.4 -100.65 -98.9 -104.15 L-98.9 -104.25 -103.95 -110.0 Q-107.1 -115.65 -106.15 -116.6 -105.45 -120.0 -102.1 -119.55 -100.6 -119.5 -95.4 -116.4 L-94.15 -116.3 Q-109.95 -143.85 -93.6 -134.05 L-91.0 -132.05 -87.3 -127.35 -83.8 -126.6 -83.15 -126.7 -83.05 -126.75 Q-97.5 -139.95 -94.65 -144.2 -87.55 -144.2 -76.95 -134.05 -66.25 -126.65 -66.5 -98.25 -44.05 -83.3 -38.6 -116.7 L-37.7 -117.0 Q-37.65 -117.85 -34.35 -119.55 -32.35 -115.25 -28.3 -117.15 -28.15 -116.6 -22.65 -120.35 L-20.4 -123.1 -19.65 -125.05 -19.65 -126.8 Q-13.85 -130.25 -14.65 -134.05 L-14.65 -136.75 M-66.5 -98.25 L-73.95 -101.95 -74.1 -102.0 -74.55 -102.65 -82.1 -118.0 -87.3 -127.35 -82.1 -118.0 -74.55 -102.65 -74.1 -102.0 -73.95 -101.95 -66.5 -98.25 M-116.35 -77.1 L-116.3 -77.2 -116.3 -77.5 -116.3 -77.2 -116.35 -77.1 M-65.8 -72.05 L-68.65 -74.55 -77.3 -79.25 -88.25 -84.35 Q-91.8 -86.1 -96.55 -90.2 L-101.4 -95.0 Q-103.5 -97.9 -103.15 -99.05 -101.95 -101.4 -93.8 -99.05 L-98.9 -104.15 -93.8 -99.05 -91.9 -96.9 -93.8 -99.05 Q-101.95 -101.4 -103.15 -99.05 -103.5 -97.9 -101.4 -95.0 L-96.55 -90.2 Q-91.8 -86.1 -88.25 -84.35 L-77.3 -79.25 -68.65 -74.55 -65.8 -72.05 M-93.35 -114.45 L-94.15 -116.3 -93.35 -114.45 M-81.55 -126.8 L-83.15 -126.7 -81.55 -126.8 M-122.95 -46.6 L-122.7 -47.55 -122.0 -47.95 -122.7 -47.55 -122.95 -46.6 M-117.0 -43.0 L-120.1 -45.25 -121.2 -45.15 -121.2 -43.1 -121.25 -43.1 -121.2 -43.1 -121.2 -45.15 -120.1 -45.25 -120.1 -46.65 -120.1 -45.25 -117.0 -43.0 M-121.2 -43.0 L-121.2 -43.1 -121.2 -43.0 M-120.55 -42.5 L-120.55 -44.15 -120.0 -44.7 -120.55 -44.15 -120.55 -42.5 M-122.55 -38.15 L-123.55 -33.65 -122.55 -38.15 M-121.25 -34.7 L-121.25 -34.8 -121.2 -34.8 -121.2 -35.0 -121.05 -35.35 -120.85 -36.6 -121.05 -35.35 -121.2 -35.0 -121.2 -34.8 -121.25 -34.8 -121.25 -34.7 M-111.05 29.85 L-109.15 37.65 Q-108.4 40.35 -107.35 41.5 -106.3 44.65 -101.8 41.5 L-100.7 40.1 -101.8 41.5 Q-106.3 44.65 -107.35 41.5 -108.4 40.35 -109.15 37.65 L-111.05 29.85 M-109.45 19.0 L-109.85 18.65 -109.45 19.0 M-56.2 -74.6 L-62.5 -81.65 -66.95 -90.2 -73.95 -101.95 -66.95 -90.2 -62.5 -81.65 -56.2 -74.6 M-55.35 -74.1 L-55.55 -74.35 -55.35 -74.1 M-116.8 -33.65 L-120.2 -29.25 -116.8 -33.65 M-121.4 -29.75 L-120.2 -35.35 -120.1 -36.5 -120.2 -35.35 -121.4 -29.75 M-121.2 -35.0 L-121.25 -34.8 -121.2 -35.0" fill="#ffffff" fill-rule="evenodd" stroke="none"/>
    <path d="M-28.95 -135.35 L-29.65 -135.75 -29.8 -135.9 -29.65 -135.9 -27.65 -139.15 -26.2 -140.45 -25.4 -140.65 -27.25 -138.65 -28.95 -135.35 M-18.3 -142.5 L-16.9 -141.45 -17.0 -140.65 -18.6 -141.1 -19.35 -142.3 -18.3 -142.5 M-29.65 -135.75 L-29.65 -135.9 -29.65 -135.75" fill="#000000" fill-rule="evenodd" stroke="none"/>
    <path d="M-33.65 -126.6 L-32.15 -129.1 -29.8 -131.3 -28.95 -135.35 -27.25 -138.65 -25.4 -140.65 -25.3 -140.8 -25.2 -140.8 -25.0 -141.0 Q-21.1 -143.85 -18.3 -142.5 L-19.35 -142.3 -18.6 -141.1 -17.0 -140.65 -16.9 -141.45 -15.55 -139.95 -14.65 -136.75 -14.65 -134.05 Q-13.85 -130.25 -19.65 -126.8 L-19.65 -125.05 -20.4 -123.1 -22.65 -120.35 Q-28.15 -116.6 -28.3 -117.15 -32.35 -115.25 -34.35 -119.55 L-34.5 -123.1 -33.65 -126.6 M-19.65 -126.8 Q-20.8 -134.6 -29.8 -131.3 -20.8 -134.6 -19.65 -126.8" fill="#ff7a16" fill-rule="evenodd" stroke="none"/>
    <path d="M-29.8 -135.9 L-32.35 -138.3 -34.8 -143.2 -36.25 -147.8 Q-36.25 -156.3 -37.25 -156.0 L-39.05 -159.55 -40.45 -160.7 -40.45 -159.55 -40.45 -159.1 -40.25 -158.6 -40.0 -157.4 -40.15 -154.45 -40.45 -153.15 M-41.55 -152.35 L-41.4 -151.85 -41.6 -151.45 -41.75 -151.0 -42.0 -150.75 Q-42.65 -148.1 -42.35 -148.1 -42.7 -145.95 -41.75 -140.15 L-38.95 -129.95 -33.65 -126.6 -32.15 -129.1 -29.8 -131.3 -28.95 -135.35 -29.65 -135.75 -29.8 -135.9 -29.65 -135.9 -27.65 -139.15 -26.2 -140.45 -25.4 -140.65 -25.3 -140.8 -25.2 -140.8 -25.0 -141.0 Q-21.1 -143.85 -18.3 -142.5 L-16.9 -141.45 -15.55 -139.95 -14.65 -136.75 Q-6.35 -125.4 -13.9 -104.45 L-17.25 -99.05 -20.65 -95.7 Q-24.05 -93.15 -33.4 -90.75 L-39.8 -85.6 -42.05 -82.85 -46.5 -74.4 -60.45 -29.15 Q-63.0 -20.9 -69.95 -8.6 -75.35 3.9 -105.2 18.35 L-101.9 24.3 -100.3 33.9 -100.7 40.1 Q-101.3 43.85 -102.55 44.1 -107.65 48.45 -111.45 31.1 -112.45 27.25 -112.1 25.6 L-109.85 18.65 -109.75 18.35 -116.15 7.9 -118.0 2.7 Q-118.8 1.45 -119.4 -5.5 L-119.45 -5.9 -120.2 -19.35 -120.2 -19.8 -120.55 -29.15 -121.2 -29.05 -121.25 -29.45 -121.4 -29.75 -122.05 -30.95 -121.25 -34.7 -123.1 -32.85 -123.55 -33.0 -123.55 -33.65 -124.05 -33.95 -124.15 -35.0 -123.3 -38.85 Q-125.45 -41.95 -130.55 -46.3 L-134.5 -51.1 -138.25 -52.4 -140.35 -54.6 -141.95 -58.65 -143.8 -70.9 -143.85 -71.2 -144.0 -72.05 -144.05 -72.6 -144.2 -73.45 -144.4 -74.75 -144.4 -74.85 -144.8 -81.15 -144.85 -82.0 -144.85 -82.5 -144.9 -84.2 -144.9 -85.4 Q-144.7 -91.5 -141.95 -79.25 L-141.35 -76.25 -138.3 -64.55 -138.55 -70.9 -137.25 -81.25 -137.05 -82.0 -135.55 -87.4 Q-135.05 -87.85 -134.4 -89.05 L-132.8 -93.15 -132.05 -93.7 -131.85 -93.35 -132.7 -86.45 -134.05 -75.5 Q-134.55 -71.95 -134.05 -66.45 L-131.95 -60.5 -123.6 -47.7 -123.3 -48.2 -122.55 -48.35 -122.0 -47.95 -120.1 -46.65 -119.25 -57.9 -116.95 -74.1 -116.8 -74.2 -116.8 -74.75 -116.7 -74.85 -116.7 -75.25 -116.6 -75.5 -116.6 -75.9 -116.5 -76.25 -116.5 -76.45 -116.35 -76.9 -116.35 -77.1 -116.3 -77.5 -116.3 -77.6 -114.65 -85.6 -112.35 -92.45 -112.25 -92.5 -112.25 -92.65 -112.1 -92.75 -112.1 -92.85 -112.05 -92.95 -112.05 -93.05 -111.9 -93.15 -111.25 -94.45 -111.2 -94.55 Q-108.4 -100.65 -98.9 -104.15 L-98.9 -104.25 -103.95 -110.0 Q-107.1 -115.65 -106.15 -116.6 -105.45 -120.0 -102.1 -119.55 -100.6 -119.5 -95.4 -116.4 L-94.15 -116.3 Q-109.95 -143.85 -93.6 -134.05 L-91.0 -132.05 -87.3 -127.35 -83.8 -126.6 -83.15 -126.7 -83.05 -126.75 Q-97.5 -139.95 -94.65 -144.2 -87.55 -144.2 -76.95 -134.05 -66.25 -126.65 -66.5 -98.25 -44.05 -83.3 -38.6 -116.7 L-42.9 -124.8 -44.15 -126.5 -50.75 -132.05 -50.9 -132.5 -49.9 -132.65 -49.25 -132.7 -48.95 -132.7 -48.0 -132.7 -47.15 -132.7 Q-43.35 -132.35 -38.95 -129.95 M-41.55 -152.35 L-42.0 -150.75 M-40.75 -152.15 L-40.75 -151.65 -40.95 -150.7 M-41.15 -150.45 L-41.1 -148.75 M-40.45 -159.55 L-40.55 -155.9 -41.55 -152.35 M-87.3 -127.35 L-82.1 -118.0 -74.55 -102.65 -74.1 -102.0 -73.95 -101.95 -66.5 -98.25 M-16.9 -141.45 L-17.0 -140.65 -18.6 -141.1 -19.35 -142.3 -18.3 -142.5 M-14.65 -136.75 L-14.65 -134.05 Q-13.85 -130.25 -19.65 -126.8 L-19.65 -125.05 -20.4 -123.1 -22.65 -120.35 Q-28.15 -116.6 -28.3 -117.15 -32.35 -115.25 -34.35 -119.55 -37.65 -117.85 -37.7 -117.0 L-38.6 -116.7 M-25.4 -140.65 L-27.25 -138.65 -28.95 -135.35 M-29.65 -135.9 L-29.65 -135.75 M-34.35 -119.55 L-34.5 -123.1 -33.65 -126.6 M-29.8 -131.3 Q-20.8 -134.6 -19.65 -126.8 M-83.15 -126.7 L-81.55 -126.8 M-94.15 -116.3 L-93.35 -114.45 M-98.9 -104.15 L-93.8 -99.05 -91.9 -96.9 M-93.8 -99.05 Q-101.95 -101.4 -103.15 -99.05 -103.5 -97.9 -101.4 -95.0 L-96.55 -90.2 Q-91.8 -86.1 -88.25 -84.35 L-77.3 -79.25 -68.65 -74.55 -65.8 -72.05 M-116.3 -77.5 L-116.3 -77.2 -116.35 -77.1 M-137.05 -82.0 L-136.95 -81.8 -134.4 -89.05 M-136.95 -81.8 L-136.95 -81.35 M-132.7 -86.45 Q-132.85 -90.8 -135.45 -84.15 M-144.8 -81.15 L-144.7 -80.7 -144.7 -80.15 -144.6 -79.2 -144.35 -76.75 -143.95 -75.2 -143.85 -80.8 -143.35 -81.0 -142.35 -79.25 -141.35 -76.25 M-144.4 -74.75 L-144.25 -74.3 -144.0 -73.7 -143.95 -75.2 M-143.85 -71.2 L-143.85 -71.35 -144.0 -73.35 -144.05 -73.15 -144.05 -73.05 -144.0 -72.05 M-144.0 -73.7 L-144.0 -73.35 M-144.05 -72.6 L-144.05 -73.05 M-143.85 -71.35 L-143.8 -70.9 M-138.3 -64.55 L-138.3 -64.4 -138.1 -64.1 -138.1 -63.95 -138.1 -63.65 -138.0 -63.45 -138.0 -63.25 -137.9 -63.25 Q-137.9 -61.5 -133.65 -57.8 L-129.3 -50.35 -122.7 -44.3 -122.75 -46.3 -122.95 -46.6 -123.6 -47.7 M-138.1 -63.65 L-138.25 -63.95 -138.25 -64.1 -138.3 -64.4 M-138.25 -63.95 L-138.1 -63.95 M-138.25 -64.1 L-138.1 -64.1 M-138.0 -63.25 L-137.9 -63.25 M-138.0 -63.25 Q-138.05 -60.6 -133.65 -54.5 L-129.3 -50.35 M-144.2 -73.45 L-144.25 -74.3 M-122.0 -47.95 L-122.7 -47.55 -122.95 -46.6 M-123.3 -38.85 L-122.55 -38.15 -120.85 -36.7 -120.75 -36.7 -120.75 -36.6 -120.1 -36.5 -120.0 -36.5 -120.4 -42.35 -120.55 -42.5 -121.2 -43.0 -121.25 -43.1 -122.7 -44.3 M-123.55 -33.65 L-122.55 -38.15 M-121.25 -43.1 L-121.2 -43.1 -121.2 -45.15 -120.1 -45.25 -120.1 -46.65 M-120.0 -44.7 L-120.55 -44.15 -120.55 -42.5 M-121.2 -43.1 L-121.2 -43.0 M-120.1 -45.25 L-117.0 -43.0 M-120.75 -36.6 L-120.85 -36.6 -121.05 -35.35 -121.2 -35.0 -121.2 -34.8 -121.25 -34.8 -121.25 -34.7 M-120.85 -36.6 L-120.85 -36.7 M-121.25 -34.8 L-121.2 -35.0 M-120.1 -36.5 L-120.2 -35.35 -121.4 -29.75 M-120.2 -29.25 L-116.8 -33.65 M-55.55 -74.35 L-55.35 -74.1 M-73.95 -101.95 L-66.95 -90.2 -62.5 -81.65 -56.2 -74.6 M-109.85 18.65 L-109.45 19.0 M-100.7 40.1 L-101.8 41.5 Q-106.3 44.65 -107.35 41.5 -108.4 40.35 -109.15 37.65 L-111.05 29.85" fill="none" stroke="#000000" stroke-linecap="round" stroke-linejoin="round" stroke-width="0.05"/>
  </g>
</svg>
