<?xml version="1.0" encoding="UTF-8" standalone="no"?>
<svg xmlns:xlink="http://www.w3.org/1999/xlink" height="184.8px" width="131.2px" xmlns="http://www.w3.org/2000/svg">
  <g transform="matrix(1.0, 0.0, 0.0, 1.0, 136.75, 114.9)">
    <path d="M-35.3 -108.3 L-34.75 -111.7 -34.6 -112.75 -34.55 -113.05 -34.45 -113.75 -34.4 -113.95 -34.35 -114.25 -34.05 -114.9 -33.65 -114.8 -32.8 -112.1 Q-28.7 -93.45 -23.05 -89.05 L-22.0 -88.25 -22.55 -86.7 Q-28.35 -84.55 -25.85 -80.3 L-26.25 -80.15 -27.05 -80.6 -27.9 -80.4 -32.25 -84.4 -34.7 -93.95 -35.75 -101.6 -35.65 -105.85 -35.65 -106.15 -35.6 -106.5 -35.35 -108.05 -35.3 -108.2 -35.3 -108.3 M-121.05 -19.45 Q-122.55 -22.6 -126.15 -27.25 L-129.3 -32.85 -131.0 -34.7 Q-132.95 -35.5 -133.85 -36.6 L-135.05 -38.6 -135.9 -41.2 -136.7 -53.65 -136.75 -64.1 -135.95 -69.25 -135.85 -69.7 -135.75 -70.15 Q-134.75 -74.3 -134.05 -68.25 L-133.65 -62.3 -132.7 -55.45 -130.85 -63.35 -127.65 -70.7 -127.35 -71.0 -126.6 -71.0 -125.1 -73.7 -124.4 -74.4 -123.95 -74.4 -123.95 -72.5 -125.1 -68.25 -125.1 -68.2 -128.45 -55.05 -128.85 -48.2 -127.35 -42.15 -120.35 -27.45 -119.55 -25.85 -119.55 -24.35 -119.7 -24.25 -119.8 -24.35 -127.6 -35.35 -127.6 -35.45 -127.6 -35.35 -119.8 -24.35 -119.7 -24.25 -118.1 -22.15 -118.0 -22.0 -117.25 -20.95 -117.55 -15.55 -117.65 -15.3 -118.5 -15.75 -118.65 -15.85 -118.5 -15.75 -118.65 -15.75 -118.65 -15.85 -120.35 -18.35 -121.05 -19.45 M-34.75 -110.1 L-34.75 -111.7 -34.75 -110.1 -34.55 -111.5 -34.6 -112.75 -34.55 -111.5 -34.5 -112.1 -34.5 -112.45 -34.55 -113.05 -34.5 -112.45 -34.5 -112.1 -34.55 -111.5 -34.75 -110.1 -34.75 -108.7 -34.75 -110.1 M-35.65 -105.85 L-35.6 -106.5 -35.65 -105.85 M-34.8 -103.15 L-34.9 -103.95 -34.75 -106.5 -34.9 -108.0 -34.75 -108.7 -34.75 -106.5 -34.75 -108.7 -34.9 -108.0 -34.75 -106.5 -34.9 -103.95 -34.8 -103.15 M-34.5 -112.45 L-34.4 -113.4 -34.45 -113.75 -34.4 -113.4 -34.4 -113.95 -34.4 -113.4 -34.5 -112.45 M-130.65 -41.75 L-130.65 -41.8 -130.8 -41.95 -131.85 -46.3 -132.7 -55.45 -131.85 -46.3 -130.8 -41.95 -130.65 -41.8 -130.65 -41.75 -128.65 -36.85 -127.6 -35.45 -128.95 -39.2 -130.65 -41.75 M-136.5 -58.0 L-136.1 -66.45 -136.5 -58.0 -136.55 -57.3 -136.6 -56.85 -136.6 -57.3 -136.5 -58.0 -136.6 -57.3 -136.6 -56.85 -136.7 -53.65 -136.6 -56.85 -136.55 -57.3 -136.5 -58.0 M-135.95 -58.85 L-135.85 -59.7 Q-134.95 -69.5 -133.65 -62.3 -134.95 -69.5 -135.85 -59.7 L-135.95 -58.85 M-135.9 -67.5 L-135.9 -68.25 -135.9 -67.5 M-135.95 -69.25 L-135.75 -68.65 -135.95 -69.25 M-129.05 -66.45 L-126.8 -70.7 -129.05 -66.45 M-128.3 -66.1 L-126.8 -68.25 -125.55 -69.1 -125.1 -68.2 -125.55 -69.1 -126.8 -68.25 -128.3 -66.1 M-22.35 -74.0 L-22.55 -76.45 -22.0 -76.45 -20.1 -75.25 Q-16.0 -72.5 -22.35 -74.0" fill="#fa410f" fill-rule="evenodd" stroke="none"/>
    <path d="M-9.15 -87.85 Q-0.5 -70.45 -12.75 -51.1 L-15.6 -48.35 -17.95 -46.95 Q-17.95 -46.25 -28.6 -44.5 L-36.0 -39.7 -39.9 -35.0 -42.65 -30.75 Q-45.8 -24.9 -48.85 -16.9 L-60.75 7.5 -66.5 17.3 -72.85 25.7 -79.5 32.3 Q-87.5 37.7 -89.25 38.05 -95.45 40.95 -112.55 43.25 -109.05 63.75 -117.0 69.15 -122.75 72.85 -121.85 57.9 -122.5 57.2 -122.25 54.05 L-121.2 49.35 -120.75 47.1 Q-117.2 42.55 -116.8 41.5 L-116.8 41.25 -121.0 28.15 Q-121.95 24.2 -121.9 17.0 L-121.9 16.55 -121.9 16.0 -121.85 14.4 -121.85 14.0 -121.65 10.8 -121.6 10.35 -121.55 9.6 -121.5 9.2 Q-120.9 2.05 -119.35 -7.95 L-119.5 -8.2 -119.9 -9.05 -120.55 -10.4 -118.95 -15.2 -120.75 -13.6 -121.6 -13.05 -122.05 -13.2 -122.05 -13.7 -122.1 -13.8 -122.7 -14.45 -122.7 -15.3 -121.05 -19.45 -120.35 -18.35 -118.65 -15.85 -118.65 -15.75 -118.5 -15.75 -117.65 -15.3 -117.55 -15.55 -117.25 -20.95 -118.0 -22.0 -118.1 -22.15 -119.7 -24.25 -119.55 -24.35 -119.55 -25.85 -120.35 -27.45 -119.8 -28.1 -118.95 -27.9 -118.3 -27.1 -116.8 -25.35 -112.95 -40.95 Q-108.4 -56.1 -105.95 -61.4 -100.4 -73.5 -93.15 -73.15 L-93.15 -73.25 Q-98.8 -81.55 -97.75 -84.4 -97.1 -87.6 -93.6 -86.7 -92.65 -86.65 -87.0 -82.1 L-86.35 -82.1 Q-99.15 -109.45 -86.75 -101.15 L-84.55 -99.35 -80.95 -95.2 Q-79.45 -97.75 -72.85 -93.5 -78.4 -102.2 -79.1 -104.25 L-81.2 -110.0 Q-82.6 -116.2 -76.9 -112.1 -69.75 -107.15 -62.2 -91.45 -58.35 -83.4 -60.45 -60.35 -40.45 -36.8 -32.35 -70.9 L-31.35 -70.8 Q-27.35 -73.7 -26.6 -73.5 L-26.4 -73.35 -23.9 -73.35 -22.35 -74.0 Q-16.0 -72.5 -20.1 -75.25 L-18.5 -76.55 Q-16.05 -76.7 -13.2 -78.05 L-11.8 -79.25 Q-10.5 -79.55 -9.2 -83.25 L-9.15 -87.85 M-86.7 -64.75 L-93.15 -73.15 -86.7 -64.75 -85.05 -62.5 -86.7 -64.75 Q-95.4 -68.95 -95.6 -66.55 -95.9 -65.0 -94.2 -62.4 L-90.4 -57.3 Q-89.95 -56.15 -84.0 -50.7 L-66.85 -38.4 -63.35 -35.35 -61.0 -32.35 -63.35 -35.35 -66.85 -38.4 -84.0 -50.7 Q-89.95 -56.15 -90.4 -57.3 L-94.2 -62.4 Q-95.9 -65.0 -95.6 -66.55 -95.4 -68.95 -86.7 -64.75 M-85.5 -79.25 L-86.35 -82.1 -85.5 -79.25 M-113.8 -20.5 L-114.1 -20.9 -117.0 -24.3 -116.95 -24.35 -116.8 -25.35 -116.95 -24.35 -117.0 -24.3 -114.1 -20.9 -113.8 -20.5 M-119.55 -25.85 L-119.35 -27.1 -118.65 -27.35 -118.3 -27.1 -118.65 -27.35 -119.35 -27.1 -119.55 -25.85 M-117.25 -20.95 L-117.15 -22.55 -116.7 -23.2 -117.15 -22.55 -117.25 -20.95 M-118.0 -22.15 L-118.0 -22.0 -118.0 -22.15 -118.1 -22.15 -118.0 -22.15 -117.85 -23.85 -117.0 -24.3 -117.85 -23.85 -118.0 -22.15 M-118.95 -15.2 L-118.65 -15.75 -118.95 -15.2 M-122.1 -13.8 L-120.35 -18.35 -122.1 -13.8 M-119.9 -9.05 L-117.65 -15.3 -119.9 -9.05 M-119.5 -8.2 L-118.3 -8.7 -115.0 -11.5 -118.3 -8.7 -119.5 -8.2 M-76.05 -85.3 L-78.15 -90.2 -80.95 -95.2 -78.15 -90.2 -76.05 -85.3 -74.1 -80.7 -72.85 -80.3 -72.7 -80.3 -74.0 -82.95 -76.05 -85.3 M-71.35 -92.95 L-72.85 -93.5 -71.35 -92.95 M-71.65 -79.95 L-72.7 -80.3 -71.65 -79.95 M-116.6 42.0 L-116.8 41.5 -116.6 42.0 M-50.75 -31.1 L-50.75 -31.5 -51.3 -32.8 -50.75 -31.5 -50.75 -31.1 M-68.85 -67.3 L-68.9 -67.4 -72.05 -74.75 -74.1 -80.7 -72.05 -74.75 -68.9 -67.4 -68.85 -67.3 Q-68.1 -67.25 -60.45 -60.35 -68.1 -67.25 -68.85 -67.3 L-68.9 -67.4 -68.85 -67.3 -61.95 -52.8 -57.15 -41.1 -51.75 -33.1 -57.15 -41.1 -61.95 -52.8 -68.85 -67.3 M-121.85 57.9 L-121.2 49.35 -121.85 57.9 M-120.4 51.5 L-120.75 60.0 -120.4 63.4 Q-120.4 67.4 -115.85 67.7 -120.4 67.4 -120.4 63.4 L-120.75 60.0 -120.4 51.5" fill="#ffffff" fill-rule="evenodd" stroke="none"/>
    <path d="M-17.3 -93.6 Q-13.65 -95.15 -11.5 -93.05 L-12.1 -92.95 -11.8 -91.8 -10.85 -90.75 -10.2 -90.6 -10.05 -90.95 -9.35 -89.45 -9.15 -87.85 -9.2 -83.25 Q-10.5 -79.55 -11.8 -79.25 L-13.2 -78.05 Q-16.05 -76.7 -18.5 -76.55 L-20.1 -75.25 -22.0 -76.45 -22.55 -76.45 -22.35 -74.0 -23.9 -73.35 -26.4 -73.35 -26.6 -73.5 Q-28.3 -75.15 -27.65 -79.25 L-27.55 -80.1 -27.9 -80.4 -27.05 -80.6 -26.25 -80.15 -25.85 -80.3 Q-28.35 -84.55 -22.55 -86.7 L-22.0 -88.25 -21.05 -90.2 -19.15 -92.45 -17.3 -93.6 M-18.5 -76.55 L-18.8 -79.25 Q-18.9 -84.9 -22.55 -86.7 -18.9 -84.9 -18.8 -79.25 L-18.5 -76.55" fill="#ff7a16" fill-rule="evenodd" stroke="none"/>
    <path d="M-23.05 -89.05 Q-19.35 -94.4 -17.3 -93.6 L-19.15 -92.45 -21.05 -90.2 -22.0 -88.25 -23.05 -89.05 M-11.5 -93.05 L-10.5 -92.1 -10.05 -90.95 -10.2 -90.6 -10.85 -90.75 -11.8 -91.8 -12.1 -92.95 -11.5 -93.05" fill="#000000" fill-rule="evenodd" stroke="none"/>
    <path d="M-32.35 -70.9 L-36.7 -81.65 -42.05 -89.55 Q-39.3 -90.0 -32.25 -84.4 L-27.9 -80.4 -27.55 -80.1 -27.65 -79.25 Q-28.3 -75.15 -26.6 -73.5 -27.35 -73.7 -31.35 -70.8 L-32.35 -70.9" fill="#fa420e" fill-rule="evenodd" stroke="none"/>
    <path d="M-35.3 -108.3 L-34.75 -111.7 -34.6 -112.75 -34.55 -113.05 -34.45 -113.75 -34.4 -113.95 -34.35 -114.25 -34.05 -114.9 -33.65 -114.8 -32.8 -112.1 Q-28.7 -93.45 -23.05 -89.05 -19.35 -94.4 -17.3 -93.6 -13.65 -95.15 -11.5 -93.05 L-10.5 -92.1 -10.05 -90.95 -9.35 -89.45 -9.15 -87.85 Q-0.5 -70.45 -12.75 -51.1 L-15.6 -48.35 -17.95 -46.95 Q-17.95 -46.25 -28.6 -44.5 L-36.0 -39.7 -39.9 -35.0 -42.65 -30.75 Q-45.8 -24.9 -48.85 -16.9 L-60.75 7.5 -66.5 17.3 -72.85 25.7 -79.5 32.3 Q-87.5 37.7 -89.25 38.05 -95.45 40.95 -112.55 43.25 -109.05 63.75 -117.0 69.15 -122.75 72.85 -121.85 57.9 -122.5 57.2 -122.25 54.05 L-121.2 49.35 -120.75 47.1 Q-117.2 42.55 -116.8 41.5 L-116.8 41.25 -121.0 28.15 Q-121.95 24.2 -121.9 17.0 L-121.9 16.55 -121.9 16.0 -121.85 14.4 -121.85 14.0 -121.65 10.8 -121.6 10.35 -121.55 9.6 -121.5 9.2 Q-120.9 2.05 -119.35 -7.95 L-119.5 -8.2 -119.9 -9.05 -120.55 -10.4 -118.95 -15.2 -120.75 -13.6 -121.6 -13.05 -122.05 -13.2 -122.05 -13.7 -122.1 -13.8 -122.7 -14.45 -122.7 -15.3 -121.05 -19.45 Q-122.55 -22.6 -126.15 -27.25 L-129.3 -32.85 -131.0 -34.7 Q-132.95 -35.5 -133.85 -36.6 L-135.05 -38.6 -135.9 -41.2 -136.7 -53.65 -136.75 -64.1 -135.95 -69.25 -135.85 -69.7 -135.75 -70.15 Q-134.75 -74.3 -134.05 -68.25 L-133.65 -62.3 -132.7 -55.45 -130.85 -63.35 -127.65 -70.7 -127.35 -71.0 -126.6 -71.0 -125.1 -73.7 -124.4 -74.4 -123.95 -74.4 -123.95 -72.5 -125.1 -68.25 -125.1 -68.2 -128.45 -55.05 -128.85 -48.2 -127.35 -42.15 -120.35 -27.45 -119.8 -28.1 -118.95 -27.9 -118.3 -27.1 -116.8 -25.35 -112.95 -40.95 Q-108.4 -56.1 -105.95 -61.4 -100.4 -73.5 -93.15 -73.15 L-93.15 -73.25 Q-98.8 -81.55 -97.75 -84.4 -97.1 -87.6 -93.6 -86.7 -92.65 -86.65 -87.0 -82.1 L-86.35 -82.1 Q-99.15 -109.45 -86.75 -101.15 L-84.55 -99.35 -80.95 -95.2 Q-79.45 -97.75 -72.85 -93.5 -78.4 -102.2 -79.1 -104.25 L-81.2 -110.0 Q-82.6 -116.2 -76.9 -112.1 -69.75 -107.15 -62.2 -91.45 -58.35 -83.4 -60.45 -60.35 -40.45 -36.8 -32.35 -70.9 L-36.7 -81.65 -42.05 -89.55 Q-39.3 -90.0 -32.25 -84.4 L-34.7 -93.95 -35.75 -101.6 -35.65 -105.85 -35.65 -106.15 -35.6 -106.5 -35.35 -108.05 -35.3 -108.3 -35.3 -108.2 -35.35 -108.05 M-34.45 -113.75 L-34.4 -113.4 -34.4 -113.95 M-34.6 -112.75 L-34.55 -111.5 -34.5 -112.1 -34.5 -112.45 -34.55 -113.05 M-34.4 -113.4 L-34.5 -112.45 M-34.75 -106.5 L-34.75 -108.7 -34.9 -108.0 -34.75 -106.5 -34.9 -103.95 -34.8 -103.15 M-34.55 -111.5 L-34.75 -110.1 -34.75 -108.7 M-35.6 -106.5 L-35.65 -105.85 M-34.75 -111.7 L-34.75 -110.1 M-86.35 -82.1 L-85.5 -79.25 M-85.05 -62.5 L-86.7 -64.75 Q-95.4 -68.95 -95.6 -66.55 -95.9 -65.0 -94.2 -62.4 L-90.4 -57.3 Q-89.95 -56.15 -84.0 -50.7 L-66.85 -38.4 -63.35 -35.35 -61.0 -32.35 M-93.15 -73.15 L-86.7 -64.75 M-125.1 -68.2 L-125.55 -69.1 -126.8 -68.25 -128.3 -66.1 M-126.8 -70.7 L-129.05 -66.45 M-135.75 -68.65 L-135.95 -69.25 M-135.9 -68.25 L-135.9 -67.5 M-133.65 -62.3 Q-134.95 -69.5 -135.85 -59.7 L-135.95 -58.85 M-136.6 -56.85 L-136.55 -57.3 -136.5 -58.0 -136.6 -57.3 -136.6 -56.85 -136.7 -53.65 M-136.1 -66.45 L-136.5 -58.0 M-132.7 -55.45 L-131.85 -46.3 -130.8 -41.95 -130.65 -41.8 -130.65 -41.75 -128.95 -39.2 -127.6 -35.45 -127.6 -35.35 -119.8 -24.35 -119.7 -24.25 -119.55 -24.35 -119.55 -25.85 -120.35 -27.45 M-130.65 -41.75 L-128.65 -36.85 -127.6 -35.45 M-118.3 -27.1 L-118.65 -27.35 -119.35 -27.1 -119.55 -25.85 M-116.8 -25.35 L-116.95 -24.35 -117.0 -24.3 -114.1 -20.9 -113.8 -20.5 M-118.5 -15.75 L-117.65 -15.3 -117.55 -15.55 -117.25 -20.95 -118.0 -22.0 -118.1 -22.15 -119.7 -24.25 M-118.1 -22.15 L-118.0 -22.15 -117.85 -23.85 -117.0 -24.3 M-118.0 -22.0 L-118.0 -22.15 M-116.7 -23.2 L-117.15 -22.55 -117.25 -20.95 M-118.5 -15.75 L-118.65 -15.85 -118.65 -15.75 -118.5 -15.75 M-118.65 -15.85 L-120.35 -18.35 -122.1 -13.8 M-118.65 -15.75 L-118.95 -15.2 M-120.35 -18.35 L-121.05 -19.45 M-115.0 -11.5 L-118.3 -8.7 -119.5 -8.2 M-117.65 -15.3 L-119.9 -9.05 M-17.3 -93.6 L-19.15 -92.45 -21.05 -90.2 -22.0 -88.25 -22.55 -86.7 Q-18.9 -84.9 -18.8 -79.25 L-18.5 -76.55 Q-16.05 -76.7 -13.2 -78.05 L-11.8 -79.25 Q-10.5 -79.55 -9.2 -83.25 L-9.15 -87.85 M-11.5 -93.05 L-12.1 -92.95 -11.8 -91.8 -10.85 -90.75 -10.2 -90.6 -10.05 -90.95 M-20.1 -75.25 L-18.5 -76.55 M-22.0 -88.25 L-23.05 -89.05 M-27.9 -80.4 L-27.05 -80.6 -26.25 -80.15 -25.85 -80.3 Q-28.35 -84.55 -22.55 -86.7 M-27.9 -80.4 L-27.55 -80.1 -27.65 -79.25 Q-28.3 -75.15 -26.6 -73.5 L-26.4 -73.35 -23.9 -73.35 -22.35 -74.0 -22.55 -76.45 -22.0 -76.45 -20.1 -75.25 Q-16.0 -72.5 -22.35 -74.0 M-32.25 -84.4 L-27.9 -80.4 M-26.6 -73.5 Q-27.35 -73.7 -31.35 -70.8 L-32.35 -70.9 M-72.85 -93.5 L-71.35 -92.95 M-80.95 -95.2 L-78.15 -90.2 -76.05 -85.3 -74.0 -82.95 -72.7 -80.3 -71.65 -79.95 M-76.05 -85.3 L-74.1 -80.7 -72.85 -80.3 -72.7 -80.3 M-74.1 -80.7 L-72.05 -74.75 -68.9 -67.4 -68.85 -67.3 Q-68.1 -67.25 -60.45 -60.35 M-68.85 -67.3 L-61.95 -52.8 -57.15 -41.1 -51.75 -33.1 M-68.9 -67.4 L-68.85 -67.3 M-51.3 -32.8 L-50.75 -31.5 -50.75 -31.1 M-116.8 41.5 L-116.6 42.0 M-111.2 51.5 L-111.2 52.0 M-115.85 67.7 Q-120.4 67.4 -120.4 63.4 L-120.75 60.0 -120.4 51.5 M-121.2 49.35 L-121.85 57.9" fill="none" stroke="#000000" stroke-linecap="round" stroke-linejoin="round" stroke-width="0.05"/>
  </g>
</svg>
