<?xml version="1.0" encoding="UTF-8" standalone="no"?>
<svg xmlns:xlink="http://www.w3.org/1999/xlink" height="165.45px" width="131.15px" xmlns="http://www.w3.org/2000/svg">
  <g transform="matrix(1.0, 0.0, 0.0, 1.0, 134.6, 65.1)">
    <path d="M-126.1 -30.95 L-126.0 -31.4 -126.1 -30.85 -126.1 -30.95 -126.1 -30.85 -126.0 -31.4 -125.1 -34.55 -124.7 -35.0 -124.4 -34.9 -124.05 -33.5 -124.0 -27.05 -123.95 -25.95 -122.75 -28.6 -119.7 -33.7 -119.15 -34.3 -118.65 -34.3 -118.4 -33.5 -118.3 -33.55 -118.1 -33.65 -115.65 -36.2 -114.9 -36.05 -114.9 -35.35 -116.8 -30.75 Q-117.3 -29.25 -116.8 -29.25 L-120.75 -21.05 -121.6 -18.6 -122.55 -14.05 Q-124.6 -12.15 -115.95 9.4 L-115.95 9.6 -115.2 11.65 -115.5 12.8 -121.7 1.2 -124.15 -6.65 -124.45 -13.4 -123.95 -25.95 -124.45 -13.4 -124.15 -6.65 -121.7 1.2 -115.5 12.8 -113.75 16.2 -113.65 16.3 -113.6 16.35 -112.75 17.9 -113.75 23.05 -113.8 23.0 -114.25 22.95 -114.95 22.05 -115.2 21.75 -115.45 21.1 -116.8 18.15 -117.55 16.65 Q-122.15 7.4 -123.3 3.55 L-124.4 1.75 -127.45 -1.35 Q-128.85 -4.3 -128.95 -6.15 L-129.05 -8.7 -128.3 -20.95 -127.25 -30.0 -126.8 -30.95 -126.3 -30.95 -126.1 -30.95 M-29.15 -26.2 L-32.15 -35.75 -33.15 -41.5 -33.15 -41.6 -33.2 -41.75 -33.2 -41.8 -33.3 -42.35 -33.5 -43.3 -33.5 -43.45 -33.55 -44.95 -33.6 -45.55 -33.75 -48.85 -33.85 -50.7 Q-32.6 -50.75 -30.75 -46.3 L-23.4 -32.15 Q-22.25 -30.05 -19.35 -27.45 L-18.95 -27.05 -20.4 -25.85 -20.95 -24.35 -20.95 -22.2 -20.5 -20.75 -19.8 -19.65 -19.65 -19.45 -19.55 -17.45 Q-19.15 -15.3 -18.3 -14.45 L-17.85 -13.4 -17.7 -13.25 Q-12.1 -8.45 -19.8 -11.9 L-20.5 -13.4 -29.15 -26.2 M-126.25 -30.5 L-126.3 -30.95 -126.25 -30.5 -126.1 -30.85 -126.25 -30.5 -126.2 -30.25 -127.35 -24.55 -126.2 -30.25 -126.25 -30.5 M-126.75 -24.05 L-125.0 -28.1 -124.4 -27.9 -124.0 -27.05 -124.4 -27.9 -125.0 -28.1 -126.75 -24.05 M-119.8 -29.25 L-117.8 -30.75 -116.8 -30.75 -117.8 -30.75 -119.8 -29.25 M-121.0 -30.25 L-120.1 -31.15 -118.3 -33.55 -120.1 -31.15 -121.0 -30.25 M-32.45 -40.75 L-32.45 -41.6 -32.45 -40.75 M-33.3 -42.35 L-33.3 -43.45 -33.45 -43.85 -33.4 -44.35 -33.55 -44.95 -33.4 -44.35 -33.45 -43.85 -33.3 -43.45 -33.3 -42.35 M-33.6 -45.55 L-33.4 -46.0 -33.45 -46.85 -33.75 -48.85 -33.45 -46.85 -33.3 -46.3 -33.15 -44.6 -33.15 -44.55 -33.1 -43.95 -33.05 -43.9 -32.85 -43.2 -32.8 -42.25 -32.85 -43.2 -33.05 -43.9 -33.1 -43.95 -33.15 -44.55 -33.15 -44.6 -33.3 -46.3 -33.45 -46.85 -33.4 -46.0 -33.6 -45.55 M-33.45 -43.85 L-33.5 -43.3 -33.45 -43.85 M-20.1 -15.55 L-19.55 -15.0 -19.35 -14.55 -18.1 -13.4 -17.7 -13.25 -18.1 -13.4 -19.35 -14.55 -19.55 -15.0 -20.1 -15.55" fill="#fa410f" fill-rule="evenodd" stroke="none"/>
    <path d="M-115.95 9.4 L-115.3 8.65 -114.6 8.95 -114.2 9.7 -112.45 12.95 -112.1 12.6 Q-100.95 -16.05 -94.45 -22.55 L-90.6 -25.55 Q-88.2 -26.7 -81.85 -26.2 -85.45 -36.05 -82.85 -38.4 -79.25 -42.35 -74.75 -35.35 -72.95 -32.85 -72.4 -34.8 -79.4 -64.6 -69.1 -57.5 -70.5 -69.3 -65.45 -62.8 -61.55 -59.55 -54.6 -40.05 -51.85 -23.95 -55.85 -7.45 -38.6 22.95 -28.75 -10.3 L-28.1 -9.85 -27.65 -10.0 -26.8 -10.65 -24.75 -11.25 -19.8 -11.9 Q-12.1 -8.45 -17.7 -13.25 L-17.85 -13.4 -18.3 -14.45 -17.1 -13.6 -15.8 -13.4 -13.4 -13.4 Q-4.65 -15.5 -6.15 -23.7 1.25 -5.15 -11.55 11.95 L-14.25 14.0 -16.25 14.85 Q-17.2 15.5 -26.4 16.0 L-33.65 19.6 -39.15 24.95 -41.3 27.7 Q-45.1 35.95 -63.1 60.75 -66.3 65.0 -70.8 69.25 L-78.6 75.85 Q-92.05 88.4 -117.65 80.7 L-118.2 82.8 -118.65 87.15 -119.5 90.35 -123.55 97.5 -125.25 99.35 -125.5 99.55 -126.95 100.35 -128.65 100.25 -129.7 99.1 -129.8 99.1 -131.7 99.5 -133.4 98.85 -134.25 97.6 -134.6 96.3 -134.4 93.75 -133.65 91.55 -131.95 88.75 -131.95 88.65 -131.95 85.8 -130.8 83.25 -128.75 80.75 -126.75 78.95 Q-126.15 78.2 -121.5 77.05 L-121.1 76.45 -121.0 76.2 -121.05 75.85 -121.1 75.65 -121.15 75.4 Q-125.3 56.1 -117.15 28.05 L-115.7 23.2 -115.2 21.75 -114.95 22.05 -114.25 22.95 -113.8 23.0 -113.75 23.05 -112.75 17.9 -113.6 16.35 -113.65 16.3 -113.3 14.65 -112.75 14.3 -112.45 12.95 -112.75 14.3 Q-111.6 14.65 -109.7 19.1 -111.6 14.65 -112.75 14.3 L-113.3 14.65 -113.65 16.3 -113.75 16.2 -115.5 12.8 -115.2 11.65 -115.95 9.6 -115.95 9.4 M-115.45 21.1 L-118.65 22.8 -119.15 22.5 -119.1 22.1 -119.05 21.95 -119.55 21.3 -119.7 20.15 -117.55 16.65 -116.8 18.15 -115.45 21.1 M-55.85 -7.45 L-57.9 -10.1 -58.0 -10.2 -60.45 -24.35 -63.55 -46.3 Q-64.2 -50.3 -66.1 -53.65 L-68.8 -57.3 -69.1 -57.5 -68.8 -57.3 -66.1 -53.65 Q-64.2 -50.3 -63.55 -46.3 L-60.45 -24.35 -58.0 -10.2 -57.9 -10.1 -55.85 -7.45 M-57.05 21.95 L-58.75 19.55 -74.6 4.2 Q-77.05 1.7 -79.65 -2.4 L-83.25 -8.35 Q-84.55 -10.8 -84.95 -13.4 -85.6 -19.8 -77.4 -13.4 L-76.9 -13.2 -76.1 -13.4 -75.6 -13.9 -81.85 -26.2 -75.6 -13.9 -76.1 -13.4 -76.9 -13.2 -77.4 -13.4 Q-85.6 -19.8 -84.95 -13.4 -84.55 -10.8 -83.25 -8.35 L-79.65 -2.4 Q-77.05 1.7 -74.6 4.2 L-58.75 19.55 -57.05 21.95 M-114.2 9.7 L-114.8 10.05 -115.2 11.65 -114.8 10.05 -114.2 9.7 M-48.0 26.35 L-48.0 24.1 -50.9 19.55 -52.7 15.8 -57.9 -10.1 -52.7 15.8 -50.9 19.55 -48.0 24.1 -48.0 26.35 M-112.05 15.8 L-112.45 16.35 -112.75 17.9 -112.45 16.35 -112.05 15.8 M-115.7 23.2 L-114.95 22.05 -115.7 23.2 M-121.05 74.35 L-121.05 73.95 -121.05 74.35 M-120.85 77.5 L-120.85 76.85 -121.1 76.45 -120.85 76.85 -120.85 77.5 M-126.5 83.0 L-130.15 91.4 Q-131.0 93.85 -130.55 96.3 L-129.8 99.1 -130.55 96.3 Q-131.0 93.85 -130.15 91.4 L-126.5 83.0 M-126.8 80.25 L-127.35 81.6 -131.95 88.65 -127.35 81.6 -126.8 80.25 M-116.55 28.5 L-113.8 23.0 -116.55 28.5 -116.8 29.0 Q-117.4 30.4 -111.9 27.4 -117.4 30.4 -116.8 29.0 L-116.55 28.5 -117.15 28.05 -116.55 28.5 M-116.8 18.15 L-119.1 22.1 -116.8 18.15" fill="#ffffff" fill-rule="evenodd" stroke="none"/>
    <path d="M-12.65 -30.55 Q-10.8 -30.95 -9.15 -29.8 L-7.75 -28.1 -8.15 -28.1 -7.85 -26.4 -7.2 -25.35 -6.65 -25.35 -6.15 -23.7 Q-4.65 -15.5 -13.4 -13.4 L-15.8 -13.4 -17.1 -13.6 -18.3 -14.45 Q-19.15 -15.3 -19.55 -17.45 L-19.65 -19.45 -19.8 -19.65 -20.5 -20.75 -20.95 -22.2 -20.95 -24.35 -20.4 -25.85 -18.95 -27.05 -17.3 -27.1 -19.15 -23.5 -19.65 -19.65 -19.8 -19.65 -19.65 -19.65 -19.15 -23.5 -17.3 -27.1 -14.95 -29.6 -12.65 -30.55 M-19.65 -19.65 L-19.65 -19.45 -19.65 -19.65" fill="#ff7a16" fill-rule="evenodd" stroke="none"/>
    <path d="M-19.35 -27.45 Q-15.7 -32.55 -12.65 -30.55 L-14.95 -29.6 -17.3 -27.1 -18.95 -27.05 -19.35 -27.45 M-7.75 -28.1 L-7.2 -27.45 -6.65 -25.35 -7.2 -25.35 -7.85 -26.4 -8.15 -28.1 -7.75 -28.1" fill="#000000" fill-rule="evenodd" stroke="none"/>
    <path d="M-28.75 -10.3 Q-29.6 -10.85 -31.7 -22.0 L-34.8 -32.0 -34.8 -32.35 -34.35 -32.35 -33.0 -31.1 -29.15 -26.2 -20.5 -13.4 -19.8 -11.9 -24.75 -11.25 -26.8 -10.65 -27.65 -10.0 -28.1 -9.85 -28.75 -10.3" fill="#fa420e" fill-rule="evenodd" stroke="none"/>
    <path d="M-126.0 -31.4 L-126.1 -30.95 -126.1 -30.85 -126.0 -31.4 -125.1 -34.55 -124.7 -35.0 -124.4 -34.9 -124.05 -33.5 -124.0 -27.05 -123.95 -25.95 -122.75 -28.6 -119.7 -33.7 -119.15 -34.3 -118.65 -34.3 -118.4 -33.5 -118.3 -33.55 -118.1 -33.65 -115.65 -36.2 -114.9 -36.05 -114.9 -35.35 -116.8 -30.75 Q-117.3 -29.25 -116.8 -29.25 L-120.75 -21.05 -121.6 -18.6 -122.55 -14.05 Q-124.6 -12.15 -115.95 9.4 L-115.3 8.65 -114.6 8.95 -114.2 9.7 -112.45 12.95 -112.1 12.6 Q-100.95 -16.05 -94.45 -22.55 L-90.6 -25.55 Q-88.2 -26.7 -81.85 -26.2 -85.45 -36.05 -82.85 -38.4 -79.25 -42.35 -74.75 -35.35 -72.95 -32.85 -72.4 -34.8 -79.4 -64.6 -69.1 -57.5 -70.5 -69.3 -65.45 -62.8 -61.55 -59.55 -54.6 -40.05 -51.85 -23.95 -55.85 -7.45 -38.6 22.95 -28.75 -10.3 -29.6 -10.85 -31.7 -22.0 L-34.8 -32.0 -34.8 -32.35 -34.35 -32.35 -33.0 -31.1 -29.15 -26.2 -32.15 -35.75 -33.15 -41.5 -33.2 -41.75 -33.2 -41.8 -33.3 -42.35 -33.5 -43.3 -33.5 -43.45 -33.55 -44.95 -33.6 -45.55 -33.75 -48.85 -33.85 -50.7 Q-32.6 -50.75 -30.75 -46.3 L-23.4 -32.15 Q-22.25 -30.05 -19.35 -27.45 -15.7 -32.55 -12.65 -30.55 -10.8 -30.95 -9.15 -29.8 L-7.75 -28.1 -7.2 -27.45 -6.65 -25.35 -6.15 -23.7 Q1.25 -5.15 -11.55 11.95 L-14.25 14.0 -16.25 14.85 Q-17.2 15.5 -26.4 16.0 L-33.65 19.6 -39.15 24.95 -41.3 27.7 Q-45.1 35.95 -63.1 60.75 -66.3 65.0 -70.8 69.25 L-78.6 75.85 Q-92.05 88.4 -117.65 80.7 L-118.2 82.8 -118.65 87.15 -119.5 90.35 -123.55 97.5 -125.25 99.35 -125.5 99.55 -126.95 100.35 -128.65 100.25 -129.7 99.1 -129.8 99.1 -131.7 99.5 -133.4 98.85 -134.25 97.6 -134.6 96.3 -134.4 93.75 -133.65 91.55 -131.95 88.75 -131.95 88.65 -131.95 85.8 -130.8 83.25 -128.75 80.75 -126.75 78.95 Q-126.15 78.2 -121.5 77.05 L-121.1 76.45 -121.0 76.2 -121.05 75.85 -121.1 75.65 -121.15 75.4 Q-125.3 56.1 -117.15 28.05 L-115.7 23.2 -115.2 21.75 -115.45 21.1 -118.65 22.8 -119.15 22.5 -119.1 22.1 -119.05 21.95 -119.55 21.3 -119.7 20.15 -117.55 16.65 Q-122.15 7.4 -123.3 3.55 L-124.4 1.75 -127.45 -1.35 Q-128.85 -4.3 -128.95 -6.15 L-129.05 -8.7 -128.3 -20.95 -127.25 -30.0 -126.8 -30.95 -126.3 -30.95 -126.1 -30.95 M-124.0 -27.05 L-124.4 -27.9 -125.0 -28.1 -126.75 -24.05 M-126.1 -30.85 L-126.25 -30.5 -126.2 -30.25 -127.35 -24.55 M-126.3 -30.95 L-126.25 -30.5 M-123.95 -25.95 L-124.45 -13.4 -124.15 -6.65 -121.7 1.2 -115.5 12.8 -115.2 11.65 -115.95 9.6 -115.95 9.4 M-118.3 -33.55 L-120.1 -31.15 -121.0 -30.25 M-116.8 -30.75 L-117.8 -30.75 -119.8 -29.25 M-81.85 -26.2 L-75.6 -13.9 -76.1 -13.4 -76.9 -13.2 -77.4 -13.4 Q-85.6 -19.8 -84.95 -13.4 -84.55 -10.8 -83.25 -8.35 L-79.65 -2.4 Q-77.05 1.7 -74.6 4.2 L-58.75 19.55 -57.05 21.95 M-69.1 -57.5 L-68.8 -57.3 -66.1 -53.65 Q-64.2 -50.3 -63.55 -46.3 L-60.45 -24.35 -58.0 -10.2 -57.9 -10.1 -55.85 -7.45 M-17.3 -27.1 L-18.95 -27.05 -20.4 -25.85 -20.95 -24.35 -20.95 -22.2 -20.5 -20.75 -19.8 -19.65 -19.65 -19.65 -19.15 -23.5 -17.3 -27.1 -14.95 -29.6 -12.65 -30.55 M-18.95 -27.05 L-19.35 -27.45 M-6.65 -25.35 L-7.2 -25.35 -7.85 -26.4 -8.15 -28.1 -7.75 -28.1 M-33.75 -48.85 L-33.45 -46.85 -33.3 -46.3 -33.15 -44.6 -33.15 -44.55 -33.1 -43.95 -33.05 -43.9 -32.85 -43.2 -32.8 -42.25 M-33.45 -46.85 L-33.4 -46.0 -33.6 -45.55 M-33.55 -44.95 L-33.4 -44.35 -33.45 -43.85 -33.3 -43.45 -33.3 -42.35 M-32.45 -41.6 L-32.45 -40.75 M-33.2 -41.75 L-33.15 -41.6 -33.15 -41.5 M-33.5 -43.3 L-33.45 -43.85 M-28.75 -10.3 L-28.1 -9.85 -27.65 -10.0 -26.8 -10.65 -24.75 -11.25 -19.8 -11.9 -20.5 -13.4 -29.15 -26.2 M-19.8 -19.65 L-19.65 -19.45 -19.65 -19.65 M-17.7 -13.25 L-18.1 -13.4 -19.35 -14.55 -19.55 -15.0 -20.1 -15.55 M-18.3 -14.45 L-17.85 -13.4 -17.7 -13.25 Q-12.1 -8.45 -19.8 -11.9 M-18.3 -14.45 L-17.1 -13.6 -15.8 -13.4 -13.4 -13.4 Q-4.65 -15.5 -6.15 -23.7 M-19.65 -19.45 L-19.55 -17.45 Q-19.15 -15.3 -18.3 -14.45 M-57.9 -10.1 L-52.7 15.8 -50.9 19.55 -48.0 24.1 -48.0 26.35 M-115.2 11.65 L-114.8 10.05 -114.2 9.7 M-112.45 12.95 L-112.75 14.3 Q-111.6 14.65 -109.7 19.1 M-112.75 14.3 L-113.3 14.65 -113.65 16.3 -113.6 16.35 -112.75 17.9 -112.45 16.35 -112.05 15.8 M-113.65 16.3 L-113.75 16.2 -115.5 12.8 M-117.55 16.65 L-116.8 18.15 -115.45 21.1 M-114.95 22.05 L-115.7 23.2 M-115.2 21.75 L-114.95 22.05 -114.25 22.95 -113.8 23.0 -113.75 23.05 -112.75 17.9 M-119.1 22.1 L-116.8 18.15 M-111.9 27.4 Q-117.4 30.4 -116.8 29.0 L-116.55 28.5 -117.15 28.05 M-113.8 23.0 L-116.55 28.5 M-131.95 88.65 L-127.35 81.6 -126.8 80.25 M-129.8 99.1 L-130.55 96.3 Q-131.0 93.85 -130.15 91.4 L-126.5 83.0 M-121.1 76.45 L-120.85 76.85 -120.85 77.5 M-121.05 73.95 L-121.05 74.35" fill="none" stroke="#000000" stroke-linecap="round" stroke-linejoin="round" stroke-width="0.05"/>
  </g>
</svg>
