<?xml version="1.0" encoding="UTF-8" standalone="no"?>
<svg xmlns:xlink="http://www.w3.org/1999/xlink" height="141.5px" width="137.3px" xmlns="http://www.w3.org/2000/svg">
  <g transform="matrix(1.0, 0.0, 0.0, 1.0, 140.25, 14.1)">
    <path d="M-111.9 47.45 L-111.8 47.45 -111.6 46.8 -111.2 46.7 -110.55 47.0 -108.3 51.95 -108.3 52.0 -108.25 51.95 -108.2 51.9 -107.85 51.3 Q-92.1 22.6 -84.85 20.45 -73.05 18.7 -63.35 27.85 -67.15 12.6 -60.45 19.55 L-59.85 20.25 -59.75 20.15 -59.6 20.05 Q-64.6 8.05 -64.2 5.25 -63.3 0.7 -57.9 7.9 L-57.8 7.9 -57.7 7.5 -60.25 -0.7 -61.65 -8.6 Q-62.05 -16.0 -59.05 -13.4 -57.7 -11.95 -55.45 -7.3 L-51.85 1.85 -51.75 1.85 Q-47.25 -15.05 -44.15 -13.4 -43.6 -11.45 -43.7 -9.15 L-43.75 -8.7 -44.5 0.85 Q-45.55 13.75 -48.75 34.3 L-49.8 48.4 -49.8 48.6 -45.35 56.25 -42.35 59.9 Q-40.45 61.25 -38.95 61.35 L-36.4 61.3 Q-33.85 60.2 -33.1 59.15 L-30.95 56.2 -28.1 48.1 -27.05 46.15 -26.4 46.8 -25.95 46.8 Q-26.0 46.35 -22.45 45.95 L-18.3 46.25 -15.4 48.1 -14.35 48.4 -14.05 48.15 Q-14.05 47.1 -15.9 45.55 L-16.15 45.3 -16.2 45.25 -15.9 45.55 -16.2 45.25 -16.7 44.05 Q-8.5 48.1 -5.8 41.5 L-5.1 37.75 -5.1 35.6 Q0.7 54.3 -9.0 67.25 L-11.25 69.6 -14.45 71.5 -17.95 72.25 Q-26.7 71.55 -26.45 72.35 L-34.05 75.35 -36.6 77.25 -40.45 80.95 -45.45 87.05 Q-45.3 87.6 -50.9 94.4 L-65.9 110.05 -72.2 115.2 Q-101.05 133.65 -116.7 118.25 L-120.4 116.45 -121.05 116.7 -124.25 123.05 Q-125.0 124.35 -127.6 125.9 L-131.5 127.4 -132.8 127.4 -134.7 126.7 -135.65 125.4 -135.9 123.3 -136.85 122.95 -138.75 121.45 -139.95 119.55 -140.25 118.15 -139.8 115.05 Q-139.15 113.25 -136.95 112.7 L-136.9 112.65 -136.2 110.6 -134.4 108.9 -132.25 108.45 -128.75 108.65 Q-126.95 108.85 -125.1 110.35 L-123.0 110.95 -123.0 110.8 Q-123.4 91.8 -116.15 71.4 L-116.1 71.3 -116.1 71.1 -115.95 70.95 -115.95 70.75 -115.85 70.65 -115.85 70.45 -115.75 70.3 -114.35 65.75 -113.75 64.0 -111.9 59.65 -111.2 61.15 Q-110.5 62.5 -109.9 62.5 -108.95 62.4 -108.5 58.3 L-109.45 55.95 -111.45 51.15 -111.2 50.2 -111.2 50.1 -111.9 47.65 -111.9 47.45 M-5.3 35.15 L-5.15 35.4 -5.3 35.4 -5.3 35.15 M-112.25 58.8 L-115.0 59.9 -115.85 59.9 -115.75 59.05 -116.35 58.2 -116.5 56.8 -114.05 53.6 -113.25 55.9 -112.25 58.8 M-111.8 47.45 L-111.9 47.65 -111.8 47.45 M-48.1 76.65 L-48.85 75.8 -49.4 74.35 -50.25 70.95 -49.8 48.6 -50.25 70.95 -49.4 74.35 -48.85 75.8 -48.1 76.65 M-59.6 31.35 L-59.6 31.65 -59.5 31.35 -59.2 20.65 -58.75 12.3 -58.0 8.55 -57.8 8.05 -57.9 7.9 -57.8 8.05 -57.8 7.9 -57.8 8.05 -58.0 8.55 -58.75 12.3 -59.2 20.65 -59.5 31.35 -59.6 31.65 -57.9 35.15 -59.6 31.65 -59.6 31.35 -60.7 29.65 -61.2 29.4 -61.8 29.6 -61.85 29.65 -63.35 27.85 -61.85 29.65 -61.8 29.6 -61.2 29.4 -60.7 29.65 -59.6 31.35 -59.5 31.35 -59.6 31.35 M-54.3 72.65 L-54.3 73.15 Q-56.1 71.1 -56.85 68.95 L-61.0 52.45 -62.4 41.5 -62.7 32.95 -62.2 30.5 -61.8 29.6 -62.2 30.5 -62.7 32.95 -62.4 41.5 -61.0 52.45 -56.85 68.95 Q-56.1 71.1 -54.3 73.15 L-54.3 72.65 M-59.2 20.65 L-59.75 20.15 -59.2 20.65 M-53.3 7.8 L-53.3 7.6 Q-54.55 1.25 -57.7 7.5 -54.55 1.25 -53.3 7.6 L-53.25 7.6 -51.85 2.15 -51.85 1.85 -51.85 2.15 -53.25 7.6 -53.3 7.6 -53.3 7.8 -53.25 7.6 -53.3 7.8 -53.1 8.55 -52.45 12.7 -53.1 8.55 -53.3 7.8 M-51.75 1.85 L-51.75 2.05 -51.85 2.15 -51.75 2.05 -51.75 1.85 M-108.25 51.95 L-108.4 52.35 -108.3 51.95 -108.4 52.35 -108.25 51.95 M-109.5 54.65 L-109.2 54.0 -109.15 54.05 -108.4 52.35 -109.15 54.05 -109.2 54.0 -109.5 54.65 M-105.7 59.6 Q-108.6 50.7 -109.45 55.95 -108.6 50.7 -105.7 59.6 M-108.5 58.3 L-107.65 56.05 -108.5 58.3 M-128.95 110.7 L-130.8 111.55 -136.9 112.65 -130.8 111.55 -128.95 110.7 M-121.9 113.8 L-121.85 114.1 -121.9 113.8 M-128.65 113.25 L-133.0 116.35 -134.5 118.25 -135.55 120.95 -135.9 123.3 -135.55 120.95 -134.5 118.25 -133.0 116.35 -128.65 113.25 M-122.35 106.05 L-122.35 106.45 -122.35 106.05 M-123.0 110.8 L-122.75 111.0 -122.7 110.5 -122.7 109.95 -122.7 110.5 -122.75 111.0 -122.75 111.85 -122.75 111.0 -123.0 110.8 M-122.25 104.4 L-122.25 103.75 -122.25 104.4 M-121.25 115.4 L-121.4 114.95 -121.25 115.4 M-110.55 48.5 L-111.2 50.2 -110.55 48.5 M-113.75 64.0 L-111.2 61.15 -113.75 64.0 M-116.15 71.4 L-116.1 71.4 -116.1 71.3 -116.1 71.4 -116.15 71.4 M-113.35 67.15 L-113.2 67.35 -110.6 64.05 -110.4 63.4 -109.9 62.5 -110.4 63.4 -110.6 64.05 -113.2 67.35 -113.35 67.15 -113.3 67.25 -113.5 67.75 -113.2 68.2 -110.85 67.75 -109.55 67.3 -108.6 67.15 -109.55 67.3 -110.85 67.75 -113.2 68.2 -113.5 67.75 -113.3 67.25 -113.35 67.15 -114.35 65.75 -113.35 67.15 M-113.25 55.9 L-115.75 59.05 -113.25 55.9" fill="#ffffff" fill-rule="evenodd" stroke="none"/>
    <path d="M-29.35 24.45 L-31.15 17.95 -31.15 17.9 -31.3 17.45 -31.3 17.4 -31.4 17.0 -31.5 16.55 -31.8 15.55 -31.8 15.5 -32.0 14.3 -32.1 13.8 -32.2 13.15 -32.3 12.4 -32.4 11.75 -32.5 10.9 -32.65 10.15 -32.75 9.35 -32.8 9.2 -32.65 8.45 -32.15 8.55 Q-29.55 11.05 -21.15 26.15 L-18.95 28.9 -15.75 31.7 -17.65 35.95 Q-18.3 37.85 -17.65 41.5 L-16.7 44.05 -16.2 45.25 -16.15 45.3 -15.9 45.55 Q-14.05 47.1 -14.05 48.15 L-14.35 48.4 -15.4 48.1 -18.3 46.25 -29.35 24.45 M-111.9 59.65 L-112.25 58.8 -113.25 55.9 -114.05 53.6 Q-113.9 52.8 -116.5 47.1 L-118.0 42.0 Q-118.45 40.3 -121.4 37.2 L-122.55 33.05 Q-120.1 6.5 -117.8 8.55 L-117.65 9.2 -117.55 9.15 -117.35 9.1 Q-116.25 5.65 -115.75 5.7 L-115.2 5.55 -115.1 8.55 -115.0 8.65 -114.9 8.65 -111.8 5.25 -110.95 5.25 -111.2 7.05 -110.95 7.05 -109.35 5.75 -107.35 4.85 -106.8 5.25 -106.9 5.9 -109.45 9.95 -108.9 10.25 -109.25 11.75 -114.65 18.45 -116.3 22.1 -117.0 25.35 -116.6 31.55 -111.9 47.45 -111.9 47.65 -111.2 50.1 -111.2 50.2 -111.45 51.15 -109.45 55.95 -108.5 58.3 Q-108.95 62.4 -109.9 62.5 -110.5 62.5 -111.2 61.15 L-111.9 59.65 M-30.3 19.2 L-30.4 18.85 -30.3 19.2 M-32.3 12.4 L-32.35 11.0 -32.35 10.45 -32.45 9.95 -32.55 9.5 -32.65 10.15 -32.55 9.5 -32.75 9.35 -32.55 9.5 -32.45 9.95 -32.35 10.45 -32.35 11.0 -32.15 11.55 -32.0 12.1 -31.95 12.5 -31.85 13.05 -31.7 13.45 -31.65 13.95 -31.65 14.2 -31.5 14.65 -31.4 15.25 -31.4 15.3 -31.15 15.7 -31.1 15.85 -30.95 16.55 -30.95 16.75 -30.8 17.1 -30.75 17.4 -30.65 18.15 -30.75 17.4 -30.8 17.1 -30.95 16.75 -30.95 16.55 -31.1 15.85 -31.15 15.7 -31.4 15.3 -31.4 15.25 -31.5 14.65 -31.65 14.2 -31.65 13.95 -31.7 13.45 -31.85 13.05 -31.95 12.5 -32.0 12.1 -32.15 11.55 -32.35 11.0 -32.3 12.4 M-32.2 13.15 L-32.15 11.55 -32.2 13.15 M-30.75 17.4 L-30.75 17.5 -30.8 17.1 -30.75 17.5 -30.75 17.4 M-30.95 16.75 L-30.95 17.0 -30.95 16.75 M-31.1 15.85 L-31.35 15.5 -31.4 15.3 -31.35 15.5 -31.1 15.85 M-31.5 16.55 L-31.55 16.45 -31.6 16.0 -31.6 15.5 -31.6 16.0 -31.55 16.45 -31.5 16.55 M-31.95 13.15 L-32.0 14.3 -31.95 13.15 -32.1 13.8 -31.95 13.15 -31.95 13.0 -32.0 12.1 -31.95 13.0 -31.95 13.15 M-31.65 13.95 L-31.7 13.55 -31.85 13.05 -31.7 13.55 -31.7 13.45 -31.7 13.55 -31.65 13.95 M-31.5 14.65 L-31.5 14.85 -31.4 15.25 -31.5 14.85 -31.65 14.4 -31.65 14.3 -31.8 14.85 -31.8 15.5 -31.8 14.85 -31.65 14.3 -31.65 14.4 -31.5 14.85 -31.5 14.65 M-31.65 14.3 L-31.65 14.2 -31.65 14.3 M-31.95 12.5 L-31.95 13.0 -31.95 12.5 M-32.5 10.9 L-32.45 9.95 -32.5 10.9 M-32.4 11.75 L-32.35 10.45 -32.4 11.75 M-17.1 44.35 L-16.2 45.25 -17.1 44.35 M-17.75 43.7 L-17.95 43.25 -17.75 43.7 M-115.65 12.95 Q-115.7 11.45 -115.1 8.9 L-115.0 8.65 -115.1 8.9 -114.9 8.75 -114.9 8.65 -114.9 8.75 -115.1 8.9 Q-115.7 11.45 -115.65 12.95 L-115.45 14.2 -117.45 25.35 -117.85 30.5 Q-118.2 32.2 -116.8 37.75 L-111.45 51.15 -116.8 37.75 Q-118.2 32.2 -117.85 30.5 L-117.45 25.35 -115.45 14.2 -115.65 12.95 -116.3 12.8 -117.85 15.15 -116.3 12.8 -115.65 12.95 M-111.8 10.6 L-109.45 9.95 -111.8 10.6 M-112.95 8.45 L-111.2 7.05 -112.95 8.45 M-119.35 14.0 L-117.65 9.95 -117.55 9.15 -117.65 9.95 -119.35 14.0" fill="#fa410f" fill-rule="evenodd" stroke="none"/>
    <path d="M-27.05 46.15 L-27.95 42.55 Q-28.1 38.45 -30.3 26.8 L-30.65 23.25 -30.2 23.25 -29.35 24.45 -18.3 46.25 -22.45 45.95 Q-26.0 46.35 -25.95 46.8 L-26.4 46.8 -27.05 46.15" fill="#fa420e" fill-rule="evenodd" stroke="none"/>
    <path d="M-18.95 28.9 L-17.65 28.35 -15.75 28.25 -14.65 28.5 -13.2 29.4 -10.5 28.7 Q-8.35 28.85 -7.1 30.4 L-6.0 32.3 Q-7.05 32.85 -5.3 35.4 L-5.15 35.4 -5.1 35.6 -5.1 37.75 -5.8 41.5 Q-8.5 48.1 -16.7 44.05 L-17.65 41.5 Q-18.3 37.85 -17.65 35.95 L-15.75 31.7 -18.95 28.9 M-15.75 31.7 L-14.65 30.5 -13.2 29.4 -14.65 30.5 -15.75 31.7" fill="#ff7a16" fill-rule="evenodd" stroke="none"/>
    <path d="M-15.75 28.25 Q-12.15 26.3 -10.75 28.25 L-10.6 28.5 -10.5 28.7 -13.2 29.4 -14.65 28.5 -15.75 28.25 M-6.0 32.3 L-5.5 33.45 -5.3 35.15 -5.3 35.4 Q-7.05 32.85 -6.0 32.3" fill="#000000" fill-rule="evenodd" stroke="none"/>
    <path d="M-111.9 47.45 L-111.8 47.45 -111.6 46.8 -111.2 46.7 -110.55 47.0 -108.3 51.95 -108.3 52.0 -108.25 51.95 -108.2 51.9 -107.85 51.3 Q-92.1 22.6 -84.85 20.45 -73.05 18.7 -63.35 27.85 -67.15 12.6 -60.45 19.55 L-59.85 20.25 -59.75 20.15 -59.6 20.05 Q-64.6 8.05 -64.2 5.25 -63.3 0.7 -57.9 7.9 L-57.8 7.9 -57.7 7.5 -60.25 -0.7 -61.65 -8.6 Q-62.05 -16.0 -59.05 -13.4 -57.7 -11.95 -55.45 -7.3 L-51.85 1.85 -51.75 1.85 Q-47.25 -15.05 -44.15 -13.4 -43.6 -11.45 -43.7 -9.15 L-43.75 -8.7 -44.5 0.85 Q-45.55 13.75 -48.75 34.3 L-49.8 48.4 -49.8 48.6 -45.35 56.25 -42.35 59.9 Q-40.45 61.25 -38.95 61.35 L-36.4 61.3 Q-33.85 60.2 -33.1 59.15 L-30.95 56.2 -28.1 48.1 -27.05 46.15 -27.95 42.55 Q-28.1 38.45 -30.3 26.8 L-30.65 23.25 -30.2 23.25 -29.35 24.45 -31.15 17.95 -31.15 17.9 -31.3 17.45 -31.3 17.4 -31.4 17.0 -31.5 16.55 -31.8 15.55 -31.8 15.5 -32.0 14.3 -32.1 13.8 -32.2 13.15 -32.3 12.4 -32.4 11.75 -32.5 10.9 -32.65 10.15 -32.75 9.35 -32.8 9.2 -32.65 8.45 -32.15 8.55 Q-29.55 11.05 -21.15 26.15 L-18.95 28.9 -17.65 28.35 -15.75 28.25 Q-12.15 26.3 -10.75 28.25 L-10.6 28.5 -10.5 28.7 Q-8.35 28.85 -7.1 30.4 L-6.0 32.3 -5.5 33.45 -5.3 35.15 -5.15 35.4 -5.1 35.6 Q0.7 54.3 -9.0 67.25 L-11.25 69.6 -14.45 71.5 -17.95 72.25 Q-26.7 71.55 -26.45 72.35 L-34.05 75.35 -36.6 77.25 -40.45 80.95 -45.45 87.05 Q-45.3 87.6 -50.9 94.4 L-65.9 110.05 -72.2 115.2 Q-101.05 133.65 -116.7 118.25 L-120.4 116.45 -121.05 116.7 -124.25 123.05 Q-125.0 124.35 -127.6 125.9 L-131.5 127.4 -132.8 127.4 -134.7 126.7 -135.65 125.4 -135.9 123.3 -136.85 122.95 -138.75 121.45 -139.95 119.55 -140.25 118.15 -139.8 115.05 Q-139.15 113.25 -136.95 112.7 L-136.9 112.65 -136.2 110.6 -134.4 108.9 -132.25 108.45 -128.75 108.65 Q-126.95 108.85 -125.1 110.35 L-123.0 110.95 -123.0 110.8 Q-123.4 91.8 -116.15 71.4 L-116.1 71.3 -116.1 71.1 -115.95 70.95 -115.95 70.75 -115.85 70.65 -115.85 70.45 -115.75 70.3 -114.35 65.75 -113.75 64.0 -111.9 59.65 -112.25 58.8 -115.0 59.9 -115.85 59.9 -115.75 59.05 -116.35 58.2 -116.5 56.8 -114.05 53.6 Q-113.9 52.8 -116.5 47.1 L-118.0 42.0 Q-118.45 40.3 -121.4 37.2 L-122.55 33.05 Q-120.1 6.5 -117.8 8.55 L-117.65 9.2 -117.55 9.15 -117.35 9.1 Q-116.25 5.65 -115.75 5.7 L-115.2 5.55 -115.1 8.55 -115.0 8.65 -114.9 8.65 -111.8 5.25 -110.95 5.25 -111.2 7.05 -110.95 7.05 -109.35 5.75 -107.35 4.85 -106.8 5.25 -106.9 5.9 -109.45 9.95 -108.9 10.25 -109.25 11.75 -114.65 18.45 -116.3 22.1 -117.0 25.35 -116.6 31.55 -111.9 47.45 -111.9 47.65 -111.8 47.45 M-32.65 10.15 L-32.55 9.5 -32.75 9.35 M-32.55 9.5 L-32.45 9.95 -32.35 10.45 -32.35 11.0 -32.15 11.55 -32.0 12.1 -31.95 12.5 -31.85 13.05 -31.7 13.45 -31.65 13.95 -31.65 14.2 -31.5 14.65 -31.4 15.25 -31.4 15.3 -31.15 15.7 -31.1 15.85 -30.95 16.55 -30.95 16.75 -30.8 17.1 -30.75 17.4 -30.65 18.15 M-32.35 10.45 L-32.4 11.75 M-32.45 9.95 L-32.5 10.9 M-32.1 13.8 L-31.95 13.15 -31.95 13.0 -32.0 12.1 M-31.95 13.0 L-31.95 12.5 M-31.85 13.05 L-31.7 13.55 -31.7 13.45 M-31.4 15.25 L-31.5 14.85 -31.65 14.4 -31.65 14.3 -31.8 14.85 -31.8 15.5 M-31.65 14.2 L-31.65 14.3 M-31.5 14.85 L-31.5 14.65 M-31.7 13.55 L-31.65 13.95 M-32.0 14.3 L-31.95 13.15 M-31.6 15.5 L-31.6 16.0 -31.55 16.45 -31.5 16.55 M-31.4 15.3 L-31.35 15.5 -31.1 15.85 M-30.95 17.0 L-30.95 16.75 M-30.8 17.1 L-30.75 17.5 -30.75 17.4 M-32.15 11.55 L-32.2 13.15 M-32.35 11.0 L-32.3 12.4 M-30.4 18.85 L-30.3 19.2 M-18.3 46.25 L-22.45 45.95 Q-26.0 46.35 -25.95 46.8 L-26.4 46.8 -27.05 46.15 M-5.3 35.15 L-5.3 35.4 -5.15 35.4 M-5.3 35.4 Q-7.05 32.85 -6.0 32.3 M-13.2 29.4 L-14.65 28.5 -15.75 28.25 M-10.5 28.7 L-13.2 29.4 -14.65 30.5 -15.75 31.7 -17.65 35.95 Q-18.3 37.85 -17.65 41.5 L-16.7 44.05 Q-8.5 48.1 -5.8 41.5 L-5.1 37.75 -5.1 35.6 M-15.75 31.7 L-18.95 28.9 M-15.9 45.55 Q-14.05 47.1 -14.05 48.15 L-14.35 48.4 -15.4 48.1 -18.3 46.25 -29.35 24.45 M-16.2 45.25 L-16.15 45.3 -15.9 45.55 -16.2 45.25 -17.1 44.35 M-16.2 45.25 L-16.7 44.05 M-17.95 43.25 L-17.75 43.7 M-57.7 7.5 Q-54.55 1.25 -53.3 7.6 L-53.25 7.6 -51.85 2.15 -51.85 1.85 M-51.85 2.15 L-51.75 2.05 -51.75 1.85 M-57.9 7.9 L-57.8 8.05 -57.8 7.9 M-57.8 8.05 L-58.0 8.55 -58.75 12.3 -59.2 20.65 -59.5 31.35 -59.6 31.65 -57.9 35.15 M-53.25 7.6 L-53.3 7.8 -53.1 8.55 -52.45 12.7 M-53.3 7.6 L-53.3 7.8 M-59.75 20.15 L-59.2 20.65 M-63.35 27.85 L-61.85 29.65 -61.8 29.6 -61.2 29.4 -60.7 29.65 -59.6 31.35 -59.5 31.35 M-61.8 29.6 L-62.2 30.5 -62.7 32.95 -62.4 41.5 -61.0 52.45 -56.85 68.95 Q-56.1 71.1 -54.3 73.15 L-54.3 72.65 M-59.6 31.65 L-59.6 31.35 M-49.8 48.6 L-50.25 70.95 -49.4 74.35 -48.85 75.8 -48.1 76.65 M-117.55 9.15 L-117.65 9.95 -119.35 14.0 M-115.0 8.65 L-115.1 8.9 -114.9 8.75 -114.9 8.65 M-111.45 51.15 L-116.8 37.75 Q-118.2 32.2 -117.85 30.5 L-117.45 25.35 -115.45 14.2 -115.65 12.95 -116.3 12.8 -117.85 15.15 M-111.2 7.05 L-112.95 8.45 M-109.45 9.95 L-111.8 10.6 M-115.1 8.9 Q-115.7 11.45 -115.65 12.95 M-108.3 51.95 L-108.4 52.35 -108.25 51.95 M-111.45 51.15 L-111.2 50.2 -111.2 50.1 -111.9 47.65 M-108.4 52.35 L-109.15 54.05 -109.2 54.0 -109.5 54.65 M-111.9 59.65 L-111.2 61.15 Q-110.5 62.5 -109.9 62.5 -108.95 62.4 -108.5 58.3 L-109.45 55.95 -111.45 51.15 M-107.65 56.05 L-108.5 58.3 M-109.45 55.95 Q-108.6 50.7 -105.7 59.6 M-114.05 53.6 L-113.25 55.9 -112.25 58.8 M-115.75 59.05 L-113.25 55.9 M-108.6 67.15 L-109.55 67.3 -110.85 67.75 -113.2 68.2 -113.5 67.75 -113.3 67.25 -113.35 67.15 -114.35 65.75 M-109.9 62.5 L-110.4 63.4 -110.6 64.05 -113.2 67.35 -113.35 67.15 M-116.1 71.3 L-116.1 71.4 -116.15 71.4 M-111.2 61.15 L-113.75 64.0 M-111.2 50.2 L-110.55 48.5 M-121.4 114.95 L-121.25 115.4 M-122.25 103.75 L-122.25 104.4 M-122.7 109.95 L-122.7 110.5 -122.75 111.0 -122.75 111.85 M-122.75 111.0 L-123.0 110.8 M-122.35 106.45 L-122.35 106.05 M-135.9 123.3 L-135.55 120.95 -134.5 118.25 -133.0 116.35 -128.65 113.25 M-121.85 114.1 L-121.9 113.8 M-136.9 112.65 L-130.8 111.55 -128.95 110.7" fill="none" stroke="#000000" stroke-linecap="round" stroke-linejoin="round" stroke-width="0.05"/>
  </g>
</svg>
