<?xml version="1.0" encoding="UTF-8" standalone="no"?>
<svg xmlns:xlink="http://www.w3.org/1999/xlink" height="111.1px" width="163.8px" xmlns="http://www.w3.org/2000/svg">
  <g transform="matrix(1.0, 0.0, 0.0, 1.0, 151.0, -25.9)">
    <path d="M1.45 73.1 L1.5 73.3 0.05 74.35 Q-3.6 78.4 -1.25 83.3 L-1.1 83.9 -1.05 84.1 1.2 87.05 1.2 87.5 0.9 87.6 -3.45 84.1 -3.8 82.7 -12.65 61.1 -13.0 57.25 -13.05 56.75 -13.2 55.2 -13.2 54.9 -13.25 54.35 -13.3 53.7 -13.1 53.15 -13.2 52.85 -13.35 49.35 -13.2 52.85 -13.1 53.15 -13.3 53.7 -13.35 49.35 Q-13.0 44.95 -10.2 52.45 L-3.15 67.45 -1.25 70.3 1.45 73.1 M-2.55 81.75 L-1.9 83.1 -1.1 83.9 -1.9 83.1 -2.55 81.75 M-118.65 83.3 L-120.55 80.7 -121.5 79.6 -127.05 72.05 -131.5 69.15 Q-133.2 66.65 -133.2 65.65 L-133.35 62.8 Q-132.75 62.2 -132.35 47.25 L-131.95 43.7 -131.3 42.95 -130.6 43.55 -130.55 43.6 -129.7 42.1 -129.15 42.55 -128.5 47.65 -128.45 47.65 -125.1 40.3 Q-122.3 34.9 -121.4 34.45 L-120.75 34.45 -120.65 34.75 -120.85 37.1 -120.65 37.1 -118.2 34.75 -117.0 34.45 Q-116.95 36.55 -119.8 41.25 L-118.95 41.5 -118.7 42.1 -119.5 43.8 -124.8 51.15 -125.9 53.85 -125.9 55.3 Q-125.7 57.8 -124.9 59.15 L-117.35 70.95 -116.15 72.65 -116.1 73.2 -116.1 73.3 -116.5 74.35 -117.4 75.95 -117.45 76.05 -118.2 76.05 -119.55 74.8 -123.4 67.45 -128.1 60.0 Q-128.8 64.15 -125.45 69.6 L-120.4 75.45 -118.6 77.55 -117.0 79.4 -116.8 79.6 -114.65 82.0 -113.6 83.1 -113.2 83.85 -113.25 84.05 -113.75 85.35 Q-114.1 86.3 -114.5 86.7 -115.5 87.6 -116.95 85.45 L-117.0 85.35 -118.65 83.3 M-12.35 56.4 L-12.35 55.6 -12.35 56.4 M-12.4 55.3 L-12.55 54.45 -12.55 53.5 -12.75 52.45 -12.75 52.35 -12.8 51.7 -12.95 51.15 -12.95 49.55 -12.85 51.3 -12.8 51.7 -12.85 51.3 -12.95 49.55 -12.95 51.15 -12.8 51.7 -12.75 52.35 -12.75 52.45 -12.55 53.5 -12.55 54.45 -12.4 55.3 M-130.85 52.0 Q-129.25 48.6 -128.55 51.6 L-128.1 60.0 -128.55 51.6 Q-129.25 48.6 -130.85 52.0 M-128.45 47.65 L-128.65 47.95 -128.5 47.65 -128.65 47.95 -128.45 47.65 M-131.7 49.65 L-131.9 49.0 -130.65 44.1 -130.6 43.55 -130.65 44.1 -131.9 49.0 -131.7 49.65 M-121.5 41.9 L-119.9 41.55 -121.5 41.9 M-12.95 49.55 L-12.95 49.15 -12.95 49.55 M-117.4 75.95 L-117.45 76.05 -117.4 75.95 M-122.45 38.7 L-120.85 37.1 -122.45 38.7 M-132.05 49.65 L-131.9 49.0 -132.05 49.65 M-128.55 51.6 L-128.65 47.95 -128.55 51.6" fill="#fa410f" fill-rule="evenodd" stroke="none"/>
    <path d="M1.5 73.3 L1.45 73.1 2.15 73.0 1.5 73.3 M-3.45 84.1 L0.9 87.6 1.2 87.5 1.2 87.05 -1.05 84.1 -1.1 83.9 -1.25 83.3 1.65 85.35 Q7.15 88.35 10.6 85.35 L11.75 83.75 12.4 81.95 Q14.65 96.3 3.55 103.05 1.35 104.3 -1.05 104.75 L-4.75 105.05 -9.55 104.1 Q-17.6 100.75 -17.75 101.35 L-26.7 101.15 -30.5 102.05 -35.4 104.4 Q-38.7 106.0 -45.55 113.55 L-63.1 124.65 Q-66.9 127.1 -73.55 129.95 L-81.65 133.1 Q-99.8 138.05 -107.2 136.7 -111.85 136.2 -115.45 134.55 L-127.9 128.5 -129.05 128.7 -132.5 132.65 Q-134.65 134.65 -135.9 135.0 L-139.5 135.95 -143.2 135.95 -144.6 135.5 -146.4 134.15 -146.95 132.75 -146.2 130.3 -147.9 129.35 Q-150.15 127.5 -150.35 126.55 L-151.0 123.9 -150.45 122.1 -149.8 121.35 Q-148.45 121.15 -147.6 120.3 -146.85 119.5 -146.4 118.15 L-144.3 117.2 Q-142.45 115.45 -130.55 123.3 L-130.45 123.15 -130.3 122.8 Q-129.7 120.9 -128.95 111.55 L-127.15 103.25 -123.95 94.75 -118.65 83.3 -117.0 85.35 -116.95 85.45 Q-115.5 87.6 -114.5 86.7 -114.1 86.3 -113.75 85.35 L-113.25 84.05 -113.2 83.85 -113.6 83.1 -114.65 82.0 -116.8 79.6 -116.7 79.4 -117.0 79.4 -118.6 77.55 -117.45 76.05 -118.6 77.55 -120.4 75.45 -119.55 74.8 -118.2 76.05 -117.45 76.05 -117.4 75.95 -116.5 74.35 -116.1 73.3 -116.1 73.2 -116.15 72.65 -117.35 70.95 -116.35 69.05 -115.45 69.15 Q-115.05 68.75 -112.75 73.75 L-112.35 73.65 -112.2 73.65 -112.1 73.65 -111.9 73.35 -109.9 70.65 Q-100.05 58.0 -84.55 49.55 -79.95 46.85 -64.3 52.45 -60.9 53.9 -57.5 56.7 L-52.9 60.95 -52.8 60.95 -52.9 59.45 Q-54.8 56.2 -53.75 56.6 -52.05 55.65 -49.05 57.1 L-49.05 56.6 -49.6 55.4 Q-53.1 52.7 -54.95 49.25 L-54.95 48.1 -54.3 47.55 -53.25 47.45 -48.4 49.55 -48.2 49.25 Q-55.05 41.15 -55.0 33.8 -53.7 30.55 -44.5 41.5 L-43.65 42.55 -42.25 41.15 -41.3 40.9 -40.75 41.5 -40.3 42.2 -40.25 42.2 Q-32.9 17.2 -31.95 30.5 -30.75 43.9 -40.65 78.65 -33.65 90.4 -26.6 88.75 L-23.4 87.9 -20.65 86.3 -16.6 81.75 -13.9 79.4 -13.6 80.55 -12.75 81.1 Q-11.95 80.8 -8.35 82.05 L-3.45 84.1 M-120.55 80.7 L-121.5 80.9 -121.85 80.7 -121.5 79.6 -120.55 80.7 M-42.6 102.5 L-43.1 102.0 -43.0 101.4 -43.65 99.95 -43.65 96.3 -40.65 78.65 -43.65 96.3 -43.65 99.95 -43.0 101.4 -43.1 102.0 -42.6 102.5 M-50.7 63.4 L-50.55 63.4 Q-50.05 60.6 -48.25 61.35 L-48.2 61.35 -47.5 57.75 -45.2 46.4 -43.65 42.55 -45.2 46.4 -47.5 57.75 -48.2 61.35 -48.25 61.35 -47.35 63.4 -46.4 66.6 -47.35 63.4 -48.25 61.35 Q-50.05 60.6 -50.55 63.4 L-50.7 63.4 -52.4 77.9 -52.4 85.35 -51.6 91.65 -49.9 97.5 -48.35 99.1 -49.9 97.5 -51.6 91.65 -52.4 85.35 -52.4 77.9 -50.7 63.4 -50.75 63.4 -52.8 61.1 -50.75 63.4 -50.7 63.4 M-52.8 60.95 L-52.8 61.1 -52.9 60.95 -52.8 61.1 -52.8 60.95 M-47.5 57.75 L-49.05 57.1 -47.5 57.75 M-47.05 50.0 L-48.1 49.65 -47.05 50.0 M-39.45 48.5 L-39.9 43.7 -40.3 42.2 -39.9 43.7 -39.45 48.5 M-116.1 73.2 L-115.3 71.4 -116.1 73.2 M-114.65 76.95 L-114.45 76.5 -114.65 76.95 M-109.85 71.15 L-109.9 70.65 -109.85 71.15 -108.3 69.45 -109.85 71.15 -110.1 71.4 -110.15 71.45 -111.9 73.35 -110.15 71.45 -110.1 71.4 -109.85 71.15 M-112.9 74.05 L-112.6 73.95 -112.35 73.65 -112.6 73.95 -112.9 74.05 M-110.1 83.75 Q-113.0 75.45 -114.65 82.0 -113.0 75.45 -110.1 83.75 M-113.25 84.05 L-112.55 82.8 -112.35 81.95 -112.55 82.8 -113.25 84.05 M-113.1 90.55 L-117.55 91.95 -119.15 91.85 -119.05 90.35 -119.9 88.85 -119.8 87.9 -116.95 85.45 -119.8 87.9 -119.9 88.85 -119.05 90.35 -119.15 91.85 -117.55 91.95 -113.1 90.55 M-118.1 90.55 L-117.65 90.25 -114.8 87.5 -114.5 86.7 -114.8 87.5 -117.65 90.25 -118.1 90.55 M-130.45 123.15 L-130.35 123.75 -130.15 123.3 -130.3 122.8 -130.15 123.3 -130.35 123.75 -130.35 123.8 -130.2 125.0 -130.35 123.8 -130.35 123.75 -130.45 123.15 M-129.3 126.9 L-129.35 126.5 -129.3 126.9 M-146.2 130.3 L-145.45 129.25 Q-144.15 127.45 -142.6 126.8 L-137.15 125.05 -142.6 126.8 Q-144.15 127.45 -145.45 129.25 L-146.2 130.3 M-147.6 120.3 Q-146.75 120.0 -139.5 122.0 L-137.6 121.8 -139.5 122.0 Q-146.75 120.0 -147.6 120.3" fill="#ffffff" fill-rule="evenodd" stroke="none"/>
    <path d="M1.45 73.1 L-1.25 70.3 -3.15 67.45 Q3.0 65.65 5.35 69.7 2.35 67.25 3.8 72.45 L2.15 73.0 3.8 72.45 6.4 72.45 6.55 72.45 6.4 72.45 6.4 72.05 6.55 72.45 8.75 73.3 10.7 75.15 10.4 75.0 9.95 75.2 10.25 76.4 11.25 77.55 11.85 77.35 12.5 79.05 12.4 81.95 11.75 83.75 10.6 85.35 Q7.15 88.35 1.65 85.35 L-1.25 83.3 Q-3.6 78.4 0.05 74.35 L1.5 73.3 2.15 73.0 1.45 73.1" fill="#ff7a16" fill-rule="evenodd" stroke="none"/>
    <path d="M3.8 72.45 Q2.35 67.25 5.35 69.7 L6.4 72.05 6.4 72.45 3.8 72.45 M11.85 77.35 L11.25 77.55 10.25 76.4 9.95 75.2 10.4 75.0 10.7 75.15 11.85 77.35" fill="#000000" fill-rule="evenodd" stroke="none"/>
    <path d="M-12.65 61.1 L-3.8 82.7 -3.45 84.1 -8.35 82.05 Q-11.95 80.8 -12.75 81.1 L-13.6 80.55 -13.9 79.4 Q-14.3 77.5 -13.6 69.05 L-13.8 65.75 -13.4 60.75 -13.05 60.65 -12.65 61.1" fill="#fa420e" fill-rule="evenodd" stroke="none"/>
    <path d="M1.5 73.3 L1.45 73.1 -1.25 70.3 -3.15 67.45 -10.2 52.45 Q-13.0 44.95 -13.35 49.35 L-13.2 52.85 -13.1 53.15 -13.3 53.7 -13.25 54.35 -13.2 54.9 -13.2 55.2 -13.05 56.75 -13.0 57.25 -12.65 61.1 -3.8 82.7 -3.45 84.1 0.9 87.6 1.2 87.5 1.2 87.05 -1.05 84.1 -1.1 83.9 -1.9 83.1 -2.55 81.75 M2.15 73.0 L3.8 72.45 Q2.35 67.25 5.35 69.7 3.0 65.65 -3.15 67.45 M1.45 73.1 L2.15 73.0 1.5 73.3 0.05 74.35 Q-3.6 78.4 -1.25 83.3 L1.65 85.35 Q7.15 88.35 10.6 85.35 L11.75 83.75 12.4 81.95 12.5 79.05 11.85 77.35 11.25 77.55 10.25 76.4 9.95 75.2 10.4 75.0 10.7 75.15 8.75 73.3 6.55 72.45 6.4 72.45 3.8 72.45 M6.4 72.05 L6.55 72.45 M6.4 72.05 L5.35 69.7 M6.4 72.45 L6.4 72.05 M10.7 75.15 L11.85 77.35 M12.4 81.95 Q14.65 96.3 3.55 103.05 1.35 104.3 -1.05 104.75 L-4.75 105.05 -9.55 104.1 Q-17.6 100.75 -17.75 101.35 L-26.7 101.15 -30.5 102.05 -35.4 104.4 Q-38.7 106.0 -45.55 113.55 L-63.1 124.65 Q-66.9 127.1 -73.55 129.95 L-81.65 133.1 Q-99.8 138.05 -107.2 136.7 -111.85 136.2 -115.45 134.55 L-127.9 128.5 -129.05 128.7 -132.5 132.65 Q-134.65 134.65 -135.9 135.0 L-139.5 135.95 -143.2 135.95 -144.6 135.5 -146.4 134.15 -146.95 132.75 -146.2 130.3 -147.9 129.35 Q-150.15 127.5 -150.35 126.55 L-151.0 123.9 -150.45 122.1 -149.8 121.35 Q-148.45 121.15 -147.6 120.3 -146.85 119.5 -146.4 118.15 L-144.3 117.2 Q-142.45 115.45 -130.55 123.3 L-130.45 123.15 -130.3 122.8 Q-129.7 120.9 -128.95 111.55 L-127.15 103.25 -123.95 94.75 -118.65 83.3 -120.55 80.7 -121.5 80.9 -121.85 80.7 -121.5 79.6 -127.05 72.05 -131.5 69.15 Q-133.2 66.65 -133.2 65.65 L-133.35 62.8 Q-132.75 62.2 -132.35 47.25 L-131.95 43.7 -131.3 42.95 -130.6 43.55 -130.55 43.6 -129.7 42.1 -129.15 42.55 -128.5 47.65 -128.45 47.65 -125.1 40.3 Q-122.3 34.9 -121.4 34.45 L-120.75 34.45 -120.65 34.75 -120.85 37.1 -120.65 37.1 -118.2 34.75 -117.0 34.45 Q-116.95 36.55 -119.8 41.25 L-118.95 41.5 -118.7 42.1 -119.5 43.8 -124.8 51.15 -125.9 53.85 -125.9 55.3 Q-125.7 57.8 -124.9 59.15 L-117.35 70.95 -116.35 69.05 -115.45 69.15 Q-115.05 68.75 -112.75 73.75 L-112.35 73.65 -112.2 73.65 -111.9 73.35 -109.9 70.65 Q-100.05 58.0 -84.55 49.55 -79.95 46.85 -64.3 52.45 -60.9 53.9 -57.5 56.7 L-52.9 60.95 -52.8 60.95 -52.9 59.45 Q-54.8 56.2 -53.75 56.6 -52.05 55.65 -49.05 57.1 L-49.05 56.6 -49.6 55.4 Q-53.1 52.7 -54.95 49.25 L-54.95 48.1 -54.3 47.55 -53.25 47.45 -48.4 49.55 -48.2 49.25 Q-55.05 41.15 -55.0 33.8 -53.7 30.55 -44.5 41.5 L-43.65 42.55 -42.25 41.15 -41.3 40.9 -40.75 41.5 -40.3 42.2 -40.25 42.2 Q-32.9 17.2 -31.95 30.5 -30.75 43.9 -40.65 78.65 -33.65 90.4 -26.6 88.75 L-23.4 87.9 -20.65 86.3 -16.6 81.75 -13.9 79.4 Q-14.3 77.5 -13.6 69.05 L-13.8 65.75 -13.4 60.75 -13.05 60.65 -12.65 61.1 M-40.3 42.2 L-39.9 43.7 -39.45 48.5 M-43.65 42.55 L-45.2 46.4 -47.5 57.75 -48.2 61.35 -48.25 61.35 -47.35 63.4 -46.4 66.6 M-48.1 49.65 L-47.05 50.0 M-49.05 57.1 L-47.5 57.75 M-52.9 60.95 L-52.8 61.1 -52.8 60.95 M-48.35 99.1 L-49.9 97.5 -51.6 91.65 -52.4 85.35 -52.4 77.9 -50.7 63.4 -50.75 63.4 -52.8 61.1 M-48.25 61.35 Q-50.05 60.6 -50.55 63.4 L-50.7 63.4 M-40.65 78.65 L-43.65 96.3 -43.65 99.95 -43.0 101.4 -43.1 102.0 -42.6 102.5 M-12.8 51.7 L-12.85 51.3 -12.95 49.55 -12.95 51.15 -12.8 51.7 -12.75 52.35 -12.75 52.45 -12.55 53.5 -12.55 54.45 -12.4 55.3 M-12.35 55.6 L-12.35 56.4 M-1.1 83.9 L-1.25 83.3 M-3.45 84.1 L-8.35 82.05 Q-11.95 80.8 -12.75 81.1 L-13.6 80.55 -13.9 79.4 M-13.3 53.7 L-13.35 49.35 M-12.95 49.15 L-12.95 49.55 M-119.9 41.55 L-121.5 41.9 M-130.6 43.55 L-130.65 44.1 -131.9 49.0 -131.7 49.65 M-128.5 47.65 L-128.65 47.95 -128.45 47.65 M-128.1 60.0 L-128.55 51.6 Q-129.25 48.6 -130.85 52.0 M-119.55 74.8 L-123.4 67.45 -128.1 60.0 Q-128.8 64.15 -125.45 69.6 L-120.4 75.45 -119.55 74.8 -118.2 76.05 -117.45 76.05 -117.4 75.95 -116.5 74.35 -116.1 73.3 -116.1 73.2 -116.15 72.65 -117.35 70.95 M-115.3 71.4 L-116.1 73.2 M-111.9 73.35 L-112.1 73.65 -112.2 73.65 M-112.35 73.65 L-112.6 73.95 -112.9 74.05 M-108.3 69.45 L-109.85 71.15 -110.1 71.4 -110.15 71.45 -111.9 73.35 M-109.9 70.65 L-109.85 71.15 M-114.45 76.5 L-114.65 76.95 M-117.4 75.95 L-117.45 76.05 -118.6 77.55 -117.0 79.4 -116.7 79.4 -116.8 79.6 -114.65 82.0 Q-113.0 75.45 -110.1 83.75 M-116.8 79.6 L-117.0 79.4 M-120.4 75.45 L-118.6 77.55 M-118.65 83.3 L-117.0 85.35 -116.95 85.45 Q-115.5 87.6 -114.5 86.7 -114.1 86.3 -113.75 85.35 L-113.25 84.05 -113.2 83.85 -113.6 83.1 -114.65 82.0 M-112.35 81.95 L-112.55 82.8 -113.25 84.05 M-121.5 79.6 L-120.55 80.7 M-114.5 86.7 L-114.8 87.5 -117.65 90.25 -118.1 90.55 M-116.95 85.45 L-119.8 87.9 -119.9 88.85 -119.05 90.35 -119.15 91.85 -117.55 91.95 -113.1 90.55 M-128.65 47.95 L-128.55 51.6 M-131.9 49.0 L-132.05 49.65 M-120.85 37.1 L-122.45 38.7 M-137.6 121.8 L-139.5 122.0 Q-146.75 120.0 -147.6 120.3 M-130.3 122.8 L-130.15 123.3 -130.35 123.75 -130.35 123.8 -130.2 125.0 M-137.15 125.05 L-142.6 126.8 Q-144.15 127.45 -145.45 129.25 L-146.2 130.3 M-129.35 126.5 L-129.3 126.9 M-130.35 123.75 L-130.45 123.15" fill="none" stroke="#000000" stroke-linecap="round" stroke-linejoin="round" stroke-width="0.05"/>
  </g>
</svg>
