<?xml version="1.0" encoding="UTF-8" standalone="no"?>
<svg xmlns:xlink="http://www.w3.org/1999/xlink" height="87.1px" width="204.15px" xmlns="http://www.w3.org/2000/svg">
  <g transform="matrix(1.0, 0.0, 0.0, 1.0, 169.35, -69.7)">
    <path d="M11.65 93.65 Q16.9 80.55 17.3 85.35 L18.45 89.6 20.2 101.85 20.25 102.0 20.5 103.15 21.65 105.6 21.95 106.75 21.45 107.3 19.95 109.5 Q17.3 110.95 17.9 115.6 L17.9 115.7 17.85 115.9 19.1 118.25 Q20.4 122.5 17.3 118.25 L15.15 115.85 13.0 96.3 12.4 94.2 11.65 93.65 M15.8 87.05 L15.9 86.65 15.9 86.2 15.9 86.65 15.8 87.05 M15.6 87.9 L15.6 87.5 15.6 87.9 M16.2 104.0 L16.2 104.55 16.45 106.8 16.55 107.8 17.05 113.5 17.9 115.7 17.05 113.5 16.55 107.8 16.45 106.8 16.2 104.55 16.2 104.0 M16.15 102.9 L16.15 103.45 16.15 102.9 M16.55 107.8 L16.55 107.3 16.45 106.8 16.55 107.3 16.55 107.8 M-131.05 105.9 L-134.4 105.15 -142.05 104.55 -148.25 105.45 -152.6 104.95 -157.9 102.05 Q-163.75 101.3 -165.95 99.7 L-166.45 99.2 -166.35 98.55 -164.1 97.6 -164.1 97.5 -165.35 95.6 -168.7 91.85 -169.35 90.55 -169.1 90.05 -168.25 89.9 -164.65 91.2 -166.0 88.15 -166.15 87.15 -165.8 86.95 Q-157.05 92.05 -154.3 96.3 -153.25 97.9 -150.9 99.5 L-148.05 100.8 Q-142.45 102.25 -133.2 102.05 L-128.95 103.05 -122.7 104.9 -121.4 105.25 -120.35 106.25 -120.35 107.3 Q-121.0 109.05 -123.3 108.9 L-126.9 107.5 -131.05 105.9 M-127.15 91.95 L-128.65 87.5 -129.3 87.05 Q-138.15 91.4 -142.7 91.3 L-143.15 91.25 Q-145.3 91.05 -146.4 89.85 L-147.7 88.45 Q-148.45 86.15 -149.5 84.15 L-149.65 83.9 -150.9 81.95 -150.75 80.65 -150.65 79.8 -152.15 73.75 Q-152.3 66.55 -148.1 74.35 L-142.8 85.45 -142.05 86.5 -141.0 87.15 -138.85 87.35 Q-128.5 83.25 -126.8 85.35 L-125.75 86.45 -124.25 88.75 -124.15 88.85 -122.55 91.55 -122.55 91.65 -123.85 93.4 Q-125.5 94.75 -127.15 91.95 M-150.75 80.65 L-150.05 80.45 -150.75 80.65 M-151.75 71.95 L-150.9 72.25 -149.2 74.35 -148.95 74.95 -148.25 75.85 -148.95 74.95 -149.2 74.35 -150.9 72.25 -151.75 71.95 M-162.75 91.85 L-164.65 91.2 -162.75 91.85" fill="#fa410f" fill-rule="evenodd" stroke="none"/>
    <path d="M11.65 93.65 L12.4 94.2 13.0 96.3 15.15 115.85 8.1 111.35 4.05 109.45 3.2 108.25 3.45 107.3 3.8 106.55 Q6.85 102.3 11.65 93.65" fill="#fa420e" fill-rule="evenodd" stroke="none"/>
    <path d="M21.65 105.6 L20.5 103.15 20.25 102.0 20.25 101.85 20.25 102.0 20.2 101.85 20.25 101.85 Q22.8 102.15 24.25 102.85 L24.65 103.0 Q27.3 104.5 25.5 107.6 L25.1 107.3 21.65 105.6 M33.25 113.15 Q30.6 112.55 31.35 110.8 33.8 111.7 33.25 113.15" fill="#000000" fill-rule="evenodd" stroke="none"/>
    <path d="M21.65 105.6 L25.1 107.3 25.5 107.6 25.5 107.75 25.95 108.25 27.95 108.6 Q39.7 113.95 31.25 120.8 25.85 123.55 20.25 118.25 L17.9 115.6 Q17.3 110.95 19.95 109.5 L21.45 107.3 21.95 106.75 21.65 105.6 M25.95 108.25 L22.6 108.45 19.95 109.5 22.6 108.45 25.95 108.25 M33.25 113.15 Q33.8 111.7 31.35 110.8 30.6 112.55 33.25 113.15" fill="#ff7a16" fill-rule="evenodd" stroke="none"/>
    <path d="M15.15 115.85 L17.3 118.25 Q20.4 122.5 19.1 118.25 L17.85 115.9 17.9 115.7 17.9 115.6 20.25 118.25 Q25.85 123.55 31.25 120.8 27.2 130.85 12.5 132.25 L8.55 132.1 3.85 131.4 Q-1.25 129.95 -7.3 125.2 L-13.5 123.05 -18.8 121.9 -26.6 122.3 -29.45 123.3 -32.6 125.05 -30.65 123.15 -13.2 111.0 -30.65 123.15 -32.6 125.05 -33.1 125.3 -33.9 126.1 -34.25 126.7 -34.3 126.75 -34.85 127.8 -35.1 128.7 -37.35 130.5 -41.3 132.45 -52.4 135.85 -67.15 141.8 -76.45 144.35 -88.05 146.35 Q-107.6 149.85 -135.05 140.2 L-135.9 140.0 Q-138.0 147.55 -139.4 148.7 L-143.85 153.85 -147.7 156.3 -149.95 156.8 -151.45 156.75 -153.15 155.95 -154.2 154.7 -154.5 153.85 -154.5 151.7 -156.35 151.4 -158.35 150.1 -159.0 148.5 Q-159.5 145.9 -152.95 141.8 L-153.0 141.75 -154.5 140.4 -155.05 139.55 -155.15 138.5 -154.95 137.75 -154.1 136.8 Q-151.4 133.75 -140.35 136.05 L-140.4 136.0 -140.4 135.85 Q-141.65 128.4 -140.35 121.8 -138.9 117.0 -137.4 115.05 L-131.05 105.9 -126.9 107.5 -123.3 108.9 Q-121.0 109.05 -120.35 107.3 L-120.35 106.25 -121.4 105.25 -122.7 104.9 -128.95 103.05 -124.05 96.8 -123.95 96.65 -128.2 98.25 -130.15 98.35 Q-129.25 96.8 -130.65 94.5 L-130.35 93.9 -129.7 93.25 -127.15 91.95 Q-125.5 94.75 -123.85 93.4 L-122.55 91.65 -122.55 91.55 -124.15 88.85 -124.25 88.75 -124.15 88.75 Q-122.7 84.6 -118.65 91.55 -112.0 83.35 -92.3 75.45 L-92.2 75.35 Q-79.1 69.85 -63.9 74.35 -51.95 76.5 -39.7 88.0 L-39.15 86.85 -39.25 85.15 -37.7 85.35 -34.9 87.15 Q-37.65 80.85 -36.7 79.7 L-36.05 79.05 -34.55 79.4 -31.0 83.05 -30.95 83.1 Q-33.45 72.7 -29.9 69.8 -27.0 68.4 -22.15 85.35 L-21.9 90.05 -21.8 90.05 Q-6.0 90.5 -3.15 97.15 -3.25 103.65 -13.2 111.0 L-10.4 110.8 -8.35 110.3 -1.9 107.4 Q1.9 106.3 3.8 106.55 L3.45 107.3 3.2 108.25 4.05 109.45 8.1 111.35 15.15 115.85 M25.95 108.25 L25.5 107.75 26.8 107.95 27.95 108.6 25.95 108.25 M-30.5 100.35 L-36.9 91.1 -39.7 88.0 -36.9 91.1 -30.5 100.35 -27.45 104.85 -27.1 105.05 -24.35 103.75 Q-34.85 101.0 -19.15 97.8 L-21.3 96.65 -23.6 94.75 -25.85 97.4 Q-28.85 99.95 -30.5 100.35 M-28.6 85.15 L-29.9 84.4 -31.0 83.05 -29.9 84.4 -28.6 85.15 M-32.45 89.7 L-33.85 88.65 -34.9 87.15 -33.85 88.65 -32.45 89.7 M-21.9 90.05 L-21.9 90.15 Q-25.95 91.25 -23.6 94.75 -25.95 91.25 -21.9 90.15 L-21.9 90.05 M-21.8 90.05 L-21.9 90.15 -21.8 90.05 M-15.4 99.3 L-19.15 97.8 -15.4 99.3 M-124.25 97.8 L-124.05 96.8 -124.25 97.8 M-125.95 95.65 L-123.85 93.4 -125.95 95.65 M-122.05 90.9 L-122.25 91.35 -122.55 91.55 -122.25 91.35 -122.05 90.9 M-124.15 88.85 L-124.15 88.75 -124.15 88.85 M-19.55 104.85 L-21.15 104.2 -24.35 103.75 -21.15 104.2 -19.55 104.85 M-122.7 104.9 Q-119.3 97.35 -116.3 104.95 -119.3 97.35 -122.7 104.9 M-140.15 137.65 L-140.15 137.0 -140.35 136.05 -140.15 137.0 -140.15 137.65 M-135.9 140.0 L-136.15 139.65 -136.4 139.55 -136.95 139.3 -137.25 139.25 -137.7 139.15 -137.25 139.25 -136.95 139.3 -136.4 139.55 -136.15 139.65 -135.9 140.0 M-140.35 133.15 L-140.35 132.65 -140.35 133.15 M-148.75 142.55 Q-148.65 143.3 -152.95 148.3 L-154.4 151.2 -154.5 151.7 -154.4 151.2 -152.95 148.3 Q-148.65 143.3 -148.75 142.55 M-149.2 138.3 L-149.75 139.25 -153.0 141.75 -149.75 139.25 -149.2 138.3 M-119.5 111.65 L-125.65 113.55 -127.35 113.55 -127.45 112.95 -127.25 111.2 -128.2 109.1 -128.1 108.35 -126.9 107.5 -128.1 108.35 -128.2 109.1 -127.25 111.2 -127.45 112.95 -127.35 113.55 -125.65 113.55 -119.5 111.65 M-122.9 110.35 L-120.75 108.45 -120.0 107.3 -119.05 105.25 -120.0 107.3 -120.75 108.45 -122.9 110.35 M-27.05 108.9 L-29.3 107.9 -29.8 107.3 -29.8 106.65 -29.15 106.05 -27.1 105.05 -29.15 106.05 -29.8 106.65 -29.8 107.3 -29.3 107.9 -27.05 108.9 M-39.25 122.2 L-38.85 121.45 -39.25 122.2 M-38.55 120.75 L-37.25 118.25 -29.25 107.95 -29.3 107.9 -29.25 107.95 -37.25 118.25 -38.55 120.75" fill="#ffffff" fill-rule="evenodd" stroke="none"/>
    <path d="M20.2 101.85 L18.45 89.6 17.3 85.35 Q16.9 80.55 11.65 93.65 L12.4 94.2 13.0 96.3 15.15 115.85 17.3 118.25 Q20.4 122.5 19.1 118.25 L17.85 115.9 17.9 115.7 17.05 113.5 16.55 107.8 16.45 106.8 16.2 104.55 16.2 104.0 M15.6 87.5 L15.6 87.9 M15.9 86.2 L15.9 86.65 15.8 87.05 M20.25 102.0 L20.5 103.15 21.65 105.6 25.1 107.3 25.5 107.6 Q27.3 104.5 24.65 103.0 L24.25 102.85 Q22.8 102.15 20.25 101.85 L20.25 102.0 20.2 101.85 20.25 101.85 M21.65 105.6 L21.95 106.75 21.45 107.3 19.95 109.5 22.6 108.45 25.95 108.25 25.5 107.75 25.5 107.6 M25.95 108.25 L27.95 108.6 26.8 107.95 25.5 107.75 M31.25 120.8 Q39.7 113.95 27.95 108.6 M33.25 113.15 Q33.8 111.7 31.35 110.8 30.6 112.55 33.25 113.15 M31.25 120.8 Q25.85 123.55 20.25 118.25 L17.9 115.6 17.9 115.7 M16.45 106.8 L16.55 107.3 16.55 107.8 M16.15 103.45 L16.15 102.9 M3.8 106.55 L3.45 107.3 3.2 108.25 4.05 109.45 8.1 111.35 15.15 115.85 M19.95 109.5 Q17.3 110.95 17.9 115.6 M-32.6 125.05 L-29.45 123.3 -26.6 122.3 -18.8 121.9 -13.5 123.05 -7.3 125.2 Q-1.25 129.95 3.85 131.4 L8.55 132.1 12.5 132.25 Q27.2 130.85 31.25 120.8 M11.65 93.65 Q6.85 102.3 3.8 106.55 1.9 106.3 -1.9 107.4 L-8.35 110.3 -10.4 110.8 -13.2 111.0 -30.65 123.15 -32.6 125.05 -33.1 125.3 -33.9 126.1 -34.25 126.7 -34.3 126.75 -34.85 127.8 -35.1 128.7 -37.35 130.5 -41.3 132.45 -52.4 135.85 -67.15 141.8 -76.45 144.35 -88.05 146.35 Q-107.6 149.85 -135.05 140.2 L-135.9 140.0 Q-138.0 147.55 -139.4 148.7 L-143.85 153.85 -147.7 156.3 -149.95 156.8 -151.45 156.75 -153.15 155.95 -154.2 154.7 -154.5 153.85 -154.5 151.7 -156.35 151.4 -158.35 150.1 -159.0 148.5 Q-159.5 145.9 -152.95 141.8 L-153.0 141.75 -154.5 140.4 -155.05 139.55 -155.15 138.5 -154.95 137.75 -154.1 136.8 Q-151.4 133.75 -140.35 136.05 L-140.4 136.0 -140.4 135.85 Q-141.65 128.4 -140.35 121.8 -138.9 117.0 -137.4 115.05 L-131.05 105.9 -134.4 105.15 -142.05 104.55 -148.25 105.45 -152.6 104.95 -157.9 102.05 Q-163.75 101.3 -165.95 99.7 L-166.45 99.2 -166.35 98.55 -164.1 97.6 -164.1 97.5 -165.35 95.6 -168.7 91.85 -169.35 90.55 -169.1 90.05 -168.25 89.9 -164.65 91.2 -166.0 88.15 -166.15 87.15 -165.8 86.95 Q-157.05 92.05 -154.3 96.3 -153.25 97.9 -150.9 99.5 L-148.05 100.8 Q-142.45 102.25 -133.2 102.05 L-128.95 103.05 -124.05 96.8 -123.95 96.65 -128.2 98.25 -130.15 98.35 Q-129.25 96.8 -130.65 94.5 L-130.35 93.9 -129.7 93.25 -127.15 91.95 -128.65 87.5 -129.3 87.05 Q-138.15 91.4 -142.7 91.3 L-143.15 91.25 Q-145.3 91.05 -146.4 89.85 L-147.7 88.45 Q-148.45 86.15 -149.5 84.15 L-149.65 83.9 -150.9 81.95 -150.75 80.65 -150.65 79.8 -152.15 73.75 Q-152.3 66.55 -148.1 74.35 L-142.8 85.45 -142.05 86.5 -141.0 87.15 -138.85 87.35 Q-128.5 83.25 -126.8 85.35 L-125.75 86.45 -124.25 88.75 -124.15 88.75 Q-122.7 84.6 -118.65 91.55 -112.0 83.35 -92.3 75.45 L-92.2 75.35 Q-79.1 69.85 -63.9 74.35 -51.95 76.5 -39.7 88.0 L-39.15 86.85 -39.25 85.15 -37.7 85.35 -34.9 87.15 Q-37.65 80.85 -36.7 79.7 L-36.05 79.05 -34.55 79.4 -31.0 83.05 -30.95 83.1 Q-33.45 72.7 -29.9 69.8 -27.0 68.4 -22.15 85.35 L-21.9 90.05 -21.8 90.05 Q-6.0 90.5 -3.15 97.15 -3.25 103.65 -13.2 111.0 M-31.0 83.05 L-29.9 84.4 -28.6 85.15 M-39.7 88.0 L-36.9 91.1 -30.5 100.35 Q-28.85 99.95 -25.85 97.4 L-23.6 94.75 Q-25.95 91.25 -21.9 90.15 L-21.9 90.05 M-34.9 87.15 L-33.85 88.65 -32.45 89.7 M-23.6 94.75 L-21.3 96.65 -19.15 97.8 -15.4 99.3 M-21.9 90.15 L-21.8 90.05 M-148.25 75.85 L-148.95 74.95 -149.2 74.35 -150.9 72.25 -151.75 71.95 M-150.05 80.45 L-150.75 80.65 M-127.15 91.95 Q-125.5 94.75 -123.85 93.4 L-122.55 91.65 -122.55 91.55 -124.15 88.85 -124.25 88.75 M-124.15 88.75 L-124.15 88.85 M-122.55 91.55 L-122.25 91.35 -122.05 90.9 M-123.85 93.4 L-125.95 95.65 M-124.05 96.8 L-124.25 97.8 M-131.05 105.9 L-126.9 107.5 -123.3 108.9 Q-121.0 109.05 -120.35 107.3 L-120.35 106.25 -121.4 105.25 -122.7 104.9 -128.95 103.05 M-119.05 105.25 L-120.0 107.3 -120.75 108.45 -122.9 110.35 M-126.9 107.5 L-128.1 108.35 -128.2 109.1 -127.25 111.2 -127.45 112.95 -127.35 113.55 -125.65 113.55 -119.5 111.65 M-153.0 141.75 L-149.75 139.25 -149.2 138.3 M-154.5 151.7 L-154.4 151.2 -152.95 148.3 Q-148.65 143.3 -148.75 142.55 M-140.35 132.65 L-140.35 133.15 M-137.7 139.15 L-137.25 139.25 -136.95 139.3 -136.4 139.55 -136.15 139.65 -135.9 140.0 M-140.35 136.05 L-140.15 137.0 -140.15 137.65 M-116.3 104.95 Q-119.3 97.35 -122.7 104.9 M-24.35 103.75 L-21.15 104.2 -19.55 104.85 M-19.15 97.8 Q-34.85 101.0 -24.35 103.75 L-27.1 105.05 -29.15 106.05 -29.8 106.65 -29.8 107.3 -29.3 107.9 -27.05 108.9 M-27.1 105.05 L-27.45 104.85 -30.5 100.35 M-29.3 107.9 L-29.25 107.95 -37.25 118.25 -38.55 120.75 M-38.85 121.45 L-39.25 122.2 M-164.65 91.2 L-162.75 91.85" fill="none" stroke="#000000" stroke-linecap="round" stroke-linejoin="round" stroke-width="0.05"/>
  </g>
</svg>
