<?xml version="1.0" encoding="UTF-8" standalone="no"?>
<svg xmlns:xlink="http://www.w3.org/1999/xlink" height="86.5px" width="202.85px" xmlns="http://www.w3.org/2000/svg">
  <g transform="matrix(1.0, 0.0, 0.0, 1.0, 173.4, -68.3)">
    <path d="M6.55 89.9 L8.25 84.6 10.6 80.05 11.25 80.45 11.65 81.3 15.15 98.8 15.9 100.7 17.0 102.85 17.0 105.15 16.85 105.25 14.85 106.25 13.85 107.3 13.0 109.5 13.15 112.3 Q18.3 121.8 10.45 112.5 L10.6 111.55 7.6 91.95 7.2 90.55 6.55 89.9 M-129.3 103.45 L-131.0 103.05 -132.15 103.45 -139.1 107.4 Q-140.65 110.35 -144.05 111.65 L-146.95 112.4 -154.85 113.55 -161.1 115.9 Q-167.0 117.6 -167.7 117.2 L-168.5 117.0 -168.25 116.35 -164.65 112.95 -172.85 110.95 -173.4 110.35 -173.4 110.05 -172.4 109.5 -165.3 107.8 -164.65 107.3 -167.7 104.55 -167.65 103.9 -167.2 103.75 -164.45 103.9 -158.15 104.85 -151.85 106.9 -148.55 107.3 -145.75 106.95 -140.55 104.95 -133.1 100.5 -131.4 100.05 -127.15 100.35 -121.3 101.2 -120.35 101.35 -118.95 102.3 -119.05 103.55 -119.05 103.7 -119.15 103.9 -119.25 104.1 -119.35 104.2 -120.0 104.75 -121.6 105.05 -125.75 104.2 -129.3 103.45 M-126.95 89.85 L-130.85 87.3 -131.95 87.05 Q-133.8 94.8 -137.15 96.65 L-139.6 97.3 -142.35 97.3 -148.75 96.25 -151.25 96.3 -152.4 96.35 -156.55 96.2 -157.0 96.15 -158.75 95.9 Q-160.8 96.1 -156.55 92.9 L-163.6 88.35 -163.65 87.7 -163.05 87.5 -157.3 87.9 -159.4 85.65 -159.85 85.0 -159.85 84.4 -159.55 84.3 Q-155.9 84.4 -144.3 91.65 L-141.3 92.7 -139.6 92.8 -137.6 91.85 Q-135.0 85.85 -133.85 85.45 L-132.25 84.7 -128.65 85.35 -123.6 87.15 -122.15 88.0 -121.7 89.2 -121.7 89.3 Q-121.85 90.15 -122.25 90.6 L-122.65 90.85 Q-123.95 91.45 -126.95 89.85 M9.95 83.75 L9.95 83.25 10.15 82.15 9.95 83.25 9.95 83.75 M9.6 85.35 L9.6 84.8 9.6 85.35 M11.1 101.55 L11.1 101.4 11.25 102.6 11.3 103.05 11.4 104.0 11.45 104.4 12.3 110.3 13.15 112.3 12.3 110.3 11.45 104.4 11.4 104.0 11.3 103.05 11.25 102.6 11.1 101.4 11.1 101.55 M11.0 101.15 L11.0 100.25 11.0 101.15 M10.9 99.85 L10.9 99.4 10.9 99.85 M11.1 101.4 L11.1 101.15 11.1 101.4 M-152.4 96.35 L-151.75 96.25 -151.25 96.3 -151.75 96.25 -152.4 96.35 M-157.3 87.9 L-156.0 87.9 -157.3 87.9" fill="#fa410f" fill-rule="evenodd" stroke="none"/>
    <path d="M-0.6 103.9 Q5.8 89.5 6.55 89.9 L7.2 90.55 7.6 91.95 10.6 111.55 10.45 112.5 1.85 107.3 -0.85 106.05 -0.6 103.9" fill="#fa420e" fill-rule="evenodd" stroke="none"/>
    <path d="M21.9 104.6 L22.2 104.85 21.75 104.85 21.9 104.6 M26.55 117.0 Q23.4 127.2 11.55 129.35 L7.4 129.75 3.85 129.55 3.8 129.55 Q1.45 130.7 -1.45 131.05 L-7.45 131.15 Q-9.55 131.65 -33.4 126.7 L-38.95 126.5 -39.9 127.55 -42.25 129.1 -57.6 134.65 -70.15 140.0 -78.9 142.45 Q-80.5 143.15 -92.85 144.45 -107.95 146.15 -127.05 140.2 L-133.6 138.0 -133.95 137.85 Q-134.85 146.4 -142.5 152.7 L-145.35 154.4 -147.5 154.8 -149.5 154.4 -151.25 152.75 -151.65 151.6 -151.65 150.1 -153.65 149.7 -155.25 148.65 -156.0 146.95 Q-156.65 144.5 -150.45 140.2 L-150.5 140.15 -152.3 138.05 -152.4 136.9 -151.75 135.65 -148.95 133.95 -144.2 133.15 Q-141.5 133.15 -138.95 134.0 L-138.0 133.95 -138.05 133.8 -138.05 133.6 -138.1 133.4 Q-139.85 121.85 -136.3 114.75 L-129.3 103.45 -125.75 104.2 -121.6 105.05 -120.0 104.75 -119.35 104.2 -119.9 105.05 -121.5 106.3 -119.9 105.05 -119.35 104.2 -119.25 104.1 -119.15 103.9 -119.05 103.7 -119.05 103.55 -118.95 102.3 -120.35 101.35 -121.3 101.2 -127.15 100.35 -122.25 93.55 -127.45 95.25 -128.2 95.15 -127.9 93.65 -128.85 91.55 -128.3 90.55 -126.95 89.85 Q-123.95 91.45 -122.65 90.85 L-122.25 90.6 Q-121.85 90.15 -121.7 89.3 L-121.7 89.2 -122.15 88.0 -123.6 87.15 -121.5 83.95 -120.35 84.3 -119.35 85.35 -117.85 87.9 -117.15 88.2 -115.0 85.95 -114.7 85.65 Q-107.0 78.3 -92.3 71.75 L-87.95 70.0 Q-82.5 68.3 -78.45 68.3 -55.4 68.7 -40.65 85.35 L-38.2 88.55 Q-31.1 81.6 -32.45 91.75 L-28.4 85.6 Q-26.4 83.75 -25.2 85.35 L-24.9 86.45 -25.2 92.2 -25.1 92.2 Q-16.6 81.5 -15.3 87.9 -20.05 102.25 -27.1 105.15 -21.8 109.3 -15.6 108.8 -12.7 109.0 -4.0 104.55 L-0.6 103.9 -0.85 106.05 1.85 107.3 10.45 112.5 Q18.3 121.8 13.15 112.3 17.95 118.05 22.2 118.25 L23.25 118.25 25.7 117.6 26.55 117.0 M-31.95 93.45 L-32.45 91.75 -31.95 93.45 M-24.9 94.4 L-25.2 92.2 -24.9 94.4 M-8.05 124.45 L-14.65 119.25 -15.4 118.25 Q-21.2 109.75 -3.9 118.25 8.6 124.05 4.3 129.25 L3.85 129.55 4.3 129.25 Q8.6 124.05 -3.9 118.25 -21.2 109.75 -15.4 118.25 L-14.65 119.25 -8.05 124.45 M-125.0 92.8 L-123.2 91.55 -122.65 90.85 -123.2 91.55 -125.0 92.8 M-120.55 87.15 L-121.7 89.2 -120.55 87.15 M-122.75 94.95 L-122.45 94.3 -122.75 94.95 M-117.55 100.9 L-118.1 102.4 -119.15 103.9 -118.1 102.4 -117.55 100.9 M-118.2 107.6 Q-124.8 110.1 -125.45 109.45 L-125.3 107.3 -126.3 105.15 -125.75 104.2 -126.3 105.15 -125.3 107.3 -125.45 109.45 Q-124.8 110.1 -118.2 107.6 M-135.1 137.15 L-134.7 137.2 -133.6 138.0 -134.7 137.2 -135.1 137.15 M-137.75 134.55 L-137.7 135.3 -137.75 134.55 -138.05 133.8 -137.75 134.55 -138.05 133.6 -137.75 134.55 M-138.1 133.4 L-137.8 132.75 -138.1 133.4 M-146.0 140.3 Q-145.55 140.4 -150.8 147.35 L-151.65 150.1 -150.8 147.35 Q-145.55 140.4 -146.0 140.3 M-150.5 140.15 L-147.8 138.05 -146.35 136.3 -147.8 138.05 -150.5 140.15 M-114.9 100.55 Q-116.75 96.8 -118.4 96.95 L-121.3 101.2 -118.4 96.95 Q-116.75 96.8 -114.9 100.55 M-41.3 126.7 L-38.95 126.5 -41.3 126.7 M-20.3 119.55 Q-20.4 117.35 -14.65 119.25 -20.4 117.35 -20.3 119.55 L-19.15 120.8 Q-18.25 120.95 -16.9 122.3 L-16.9 122.4 -17.3 123.7 -17.25 124.0 -17.55 124.0 -17.75 123.7 -19.45 122.65 -17.75 123.7 -17.55 124.0 -17.25 124.0 -17.3 123.7 -16.9 122.4 -16.9 122.3 Q-18.25 120.95 -19.15 120.8 -19.95 120.65 -20.4 121.35 L-20.2 122.0 -19.45 122.65 -20.2 122.0 -20.4 121.35 Q-19.95 120.65 -19.15 120.8 L-20.3 119.55 -40.3 118.8 -20.3 119.55 M-17.25 124.0 L-17.1 124.35 -17.25 124.0 M-16.9 122.4 L-12.0 125.05 -11.25 125.9 -12.0 125.05 -16.9 122.4 M-27.1 105.15 L-29.9 102.3 -38.2 88.55 -29.9 102.3 -27.1 105.15" fill="#ffffff" fill-rule="evenodd" stroke="none"/>
    <path d="M21.1 103.7 L21.9 104.6 21.75 104.85 22.2 104.85 Q24.9 106.0 26.6 107.3 L25.8 107.3 26.0 108.35 27.4 109.5 27.95 109.5 28.05 108.8 26.75 107.4 Q32.25 111.7 26.55 117.0 L25.7 117.6 23.25 118.25 22.2 118.25 Q17.95 118.05 13.15 112.3 L13.0 109.5 13.85 107.3 14.85 106.25 16.85 105.25 17.0 105.15 17.0 102.85 15.9 100.7 Q16.8 100.55 19.2 101.85 L21.1 103.7 M17.0 105.15 L19.2 104.75 21.75 104.85 19.2 104.75 17.0 105.15" fill="#ff7a16" fill-rule="evenodd" stroke="none"/>
    <path d="M15.15 98.8 Q22.4 98.85 21.1 103.7 L19.2 101.85 Q16.8 100.55 15.9 100.7 L15.15 98.8 M26.6 107.3 L26.65 107.3 26.75 107.4 28.05 108.8 27.95 109.5 27.4 109.5 26.0 108.35 25.8 107.3 26.6 107.3 26.75 107.4 26.6 107.3" fill="#000000" fill-rule="evenodd" stroke="none"/>
    <path d="M6.55 89.9 L8.25 84.6 10.6 80.05 11.25 80.45 11.65 81.3 15.15 98.8 Q22.4 98.85 21.1 103.7 L21.9 104.6 22.2 104.85 Q24.9 106.0 26.6 107.3 L26.65 107.3 26.75 107.4 Q32.25 111.7 26.55 117.0 23.4 127.2 11.55 129.35 L7.4 129.75 3.85 129.55 3.8 129.55 Q1.45 130.7 -1.45 131.05 L-7.45 131.15 Q-9.55 131.65 -33.4 126.7 L-38.95 126.5 -39.9 127.55 -42.25 129.1 -57.6 134.65 -70.15 140.0 -78.9 142.45 Q-80.5 143.15 -92.85 144.45 -107.95 146.15 -127.05 140.2 L-133.6 138.0 -133.95 137.85 Q-134.85 146.4 -142.5 152.7 L-145.35 154.4 -147.5 154.8 -149.5 154.4 -151.25 152.75 -151.65 151.6 -151.65 150.1 -153.65 149.7 -155.25 148.65 -156.0 146.95 Q-156.65 144.5 -150.45 140.2 L-150.5 140.15 -152.3 138.05 -152.4 136.9 -151.75 135.65 -148.95 133.95 -144.2 133.15 Q-141.5 133.15 -138.95 134.0 L-138.0 133.95 -138.05 133.8 -138.05 133.6 -138.1 133.4 Q-139.85 121.85 -136.3 114.75 L-129.3 103.45 -131.0 103.05 -132.15 103.45 -139.1 107.4 Q-140.65 110.35 -144.05 111.65 L-146.95 112.4 -154.85 113.55 -161.1 115.9 Q-167.0 117.6 -167.7 117.2 L-168.5 117.0 -168.25 116.35 -164.65 112.95 -172.85 110.95 -173.4 110.35 -173.4 110.05 -172.4 109.5 -165.3 107.8 -164.65 107.3 -167.7 104.55 -167.65 103.9 -167.2 103.75 -164.45 103.9 -158.15 104.85 -151.85 106.9 -148.55 107.3 -145.75 106.95 -140.55 104.95 -133.1 100.5 -131.4 100.05 -127.15 100.35 -122.25 93.55 -127.45 95.25 -128.2 95.15 -127.9 93.65 -128.85 91.55 -128.3 90.55 -126.95 89.85 -130.85 87.3 -131.95 87.05 Q-133.8 94.8 -137.15 96.65 L-139.6 97.3 -142.35 97.3 -148.75 96.25 -151.25 96.3 -152.4 96.35 -156.55 96.2 -157.0 96.15 -158.75 95.9 Q-160.8 96.1 -156.55 92.9 L-163.6 88.35 -163.65 87.7 -163.05 87.5 -157.3 87.9 -159.4 85.65 -159.85 85.0 -159.85 84.4 -159.55 84.3 Q-155.9 84.4 -144.3 91.65 L-141.3 92.7 -139.6 92.8 -137.6 91.85 Q-135.0 85.85 -133.85 85.45 L-132.25 84.7 -128.65 85.35 -123.6 87.15 -121.5 83.95 -120.35 84.3 -119.35 85.35 -117.85 87.9 -117.15 88.2 -115.0 85.95 -114.7 85.65 Q-107.0 78.3 -92.3 71.75 L-87.95 70.0 Q-82.5 68.3 -78.45 68.3 -55.4 68.7 -40.65 85.35 L-38.2 88.55 Q-31.1 81.6 -32.45 91.75 L-28.4 85.6 Q-26.4 83.75 -25.2 85.35 L-24.9 86.45 -25.2 92.2 -25.1 92.2 Q-16.6 81.5 -15.3 87.9 -20.05 102.25 -27.1 105.15 -21.8 109.3 -15.6 108.8 -12.7 109.0 -4.0 104.55 L-0.6 103.9 Q5.8 89.5 6.55 89.9 L7.2 90.55 7.6 91.95 10.6 111.55 10.45 112.5 Q18.3 121.8 13.15 112.3 L12.3 110.3 11.45 104.4 11.4 104.0 11.3 103.05 11.25 102.6 11.1 101.4 11.1 101.55 M9.6 84.8 L9.6 85.35 M10.15 82.15 L9.95 83.25 9.95 83.75 M21.9 104.6 L21.75 104.85 22.2 104.85 M26.6 107.3 L25.8 107.3 26.0 108.35 27.4 109.5 27.95 109.5 28.05 108.8 26.75 107.4 26.6 107.3 M13.15 112.3 Q17.95 118.05 22.2 118.25 L23.25 118.25 25.7 117.6 26.55 117.0 M13.15 112.3 L13.0 109.5 13.85 107.3 14.85 106.25 16.85 105.25 17.0 105.15 17.0 102.85 15.9 100.7 15.15 98.8 M15.9 100.7 Q16.8 100.55 19.2 101.85 L21.1 103.7 M21.75 104.85 L19.2 104.75 17.0 105.15 M11.1 101.15 L11.1 101.4 M10.9 99.4 L10.9 99.85 M11.0 100.25 L11.0 101.15 M10.45 112.5 L1.85 107.3 -0.85 106.05 -0.6 103.9 M3.85 129.55 L4.3 129.25 Q8.6 124.05 -3.9 118.25 -21.2 109.75 -15.4 118.25 L-14.65 119.25 -8.05 124.45 M-25.2 92.2 L-24.9 94.4 M-32.45 91.75 L-31.95 93.45 M-156.0 87.9 L-157.3 87.9 M-151.25 96.3 L-151.75 96.25 -152.4 96.35 M-123.6 87.15 L-122.15 88.0 -121.7 89.2 -120.55 87.15 M-122.65 90.85 L-123.2 91.55 -125.0 92.8 M-121.7 89.2 L-121.7 89.3 Q-121.85 90.15 -122.25 90.6 L-122.65 90.85 Q-123.95 91.45 -126.95 89.85 M-122.45 94.3 L-122.75 94.95 M-121.3 101.2 L-120.35 101.35 -118.95 102.3 -119.05 103.55 -119.05 103.7 -119.15 103.9 -118.1 102.4 -117.55 100.9 M-119.35 104.2 L-120.0 104.75 -121.6 105.05 -125.75 104.2 -126.3 105.15 -125.3 107.3 -125.45 109.45 Q-124.8 110.1 -118.2 107.6 M-119.35 104.2 L-119.9 105.05 -121.5 106.3 M-119.15 103.9 L-119.25 104.1 -119.35 104.2 M-125.75 104.2 L-129.3 103.45 M-146.35 136.3 L-147.8 138.05 -150.5 140.15 M-151.65 150.1 L-150.8 147.35 Q-145.55 140.4 -146.0 140.3 M-138.05 133.8 L-137.75 134.55 -138.05 133.6 M-137.8 132.75 L-138.1 133.4 M-137.7 135.3 L-137.75 134.55 M-133.6 138.0 L-134.7 137.2 -135.1 137.15 M-121.3 101.2 L-127.15 100.35 M-19.45 122.65 L-17.75 123.7 -17.55 124.0 -17.25 124.0 -17.3 123.7 -16.9 122.4 -16.9 122.3 Q-18.25 120.95 -19.15 120.8 -19.95 120.65 -20.4 121.35 L-20.2 122.0 -19.45 122.65 M-38.2 88.55 L-29.9 102.3 -27.1 105.15 M-19.15 120.8 L-20.3 119.55 -40.3 118.8 M-11.25 125.9 L-12.0 125.05 -16.9 122.4 M-17.1 124.35 L-17.25 124.0 M-14.65 119.25 Q-20.4 117.35 -20.3 119.55 M-38.95 126.5 L-41.3 126.7 M-121.3 101.2 L-118.4 96.95 Q-116.75 96.8 -114.9 100.55" fill="none" stroke="#000000" stroke-linecap="round" stroke-linejoin="round" stroke-width="0.05"/>
  </g>
</svg>
