<?xml version="1.0" encoding="UTF-8" standalone="no"?>
<svg xmlns:xlink="http://www.w3.org/1999/xlink" height="91.4px" width="183.5px" xmlns="http://www.w3.org/2000/svg">
  <g transform="matrix(1.0, 0.0, 0.0, 1.0, 163.35, -59.25)">
    <path d="M5.25 86.45 L8.25 86.5 10.25 87.35 12.7 89.5 13.85 92.2 10.45 92.05 13.85 92.2 17.05 93.55 18.15 94.75 Q15.9 93.7 17.9 96.3 L18.45 96.85 19.0 96.85 19.0 96.3 19.1 96.1 Q21.15 98.3 19.2 103.15 13.65 109.75 5.15 100.9 L4.65 97.8 5.05 96.3 5.8 94.6 Q7.25 92.95 9.2 92.4 L10.45 92.05 8.95 92.05 6.95 89.6 Q5.9 88.1 5.25 86.45" fill="#ff7a16" fill-rule="evenodd" stroke="none"/>
    <path d="M5.25 86.45 Q5.9 88.1 6.95 89.6 L8.95 92.05 9.2 92.4 Q7.25 92.95 5.8 94.6 L5.05 96.3 4.65 97.8 5.15 100.9 5.45 101.45 Q10.4 109.7 2.7 101.4 L2.7 100.55 -3.25 79.5 -4.0 78.2 Q-3.05 57.55 1.3 74.35 L5.25 86.45 M3.8 98.45 L4.0 99.0 5.15 100.9 4.0 99.0 3.8 98.45 M3.55 98.15 L3.55 97.7 3.55 98.15 M2.9 96.25 L2.35 94.1 2.3 93.65 2.3 93.25 2.15 92.7 2.3 93.25 2.3 93.65 2.35 94.1 2.9 96.25 M-2.3 74.8 L-2.4 74.15 -2.4 71.75 -2.35 70.1 -2.2 67.35 -2.35 70.1 -2.1 70.75 -2.35 70.1 -2.4 71.75 -2.4 74.15 -2.3 74.8 M-2.95 70.45 L-2.95 70.0 -2.85 69.45 -2.95 70.0 -2.95 70.45 M-120.65 80.35 L-119.35 81.1 -118.95 81.95 -118.95 82.05 Q-119.1 83.6 -119.95 84.05 L-120.15 84.15 Q-121.35 84.55 -123.75 83.1 L-128.0 80.7 -128.85 80.55 -128.45 87.5 Q-128.85 90.05 -129.8 90.9 L-131.7 91.95 -135.45 92.05 -140.85 89.9 Q-149.8 88.0 -149.95 87.35 L-149.95 86.75 -147.9 85.35 -153.0 81.1 -154.1 79.8 -154.1 79.25 -153.65 79.2 -149.4 80.05 -151.0 77.9 -151.1 77.35 -150.8 77.05 Q-147.95 77.15 -137.8 85.35 L-133.55 87.5 -132.15 87.15 Q-131.75 78.6 -129.6 78.35 L-126.8 78.4 -120.65 80.35 M-147.4 80.55 L-149.4 80.05 -147.4 80.55 M-155.35 98.85 L-155.8 99.0 -155.35 98.85 M-155.55 104.0 L-161.65 101.85 -162.8 101.35 -163.35 100.5 -162.8 100.05 -155.8 99.0 -158.35 96.55 -158.45 95.6 Q-149.55 96.35 -141.85 99.95 L-138.75 100.05 -134.7 98.0 -129.35 91.85 -127.8 91.1 Q-126.55 90.75 -122.15 91.75 L-117.95 92.4 Q-115.85 93.05 -116.2 94.5 -116.4 95.2 -117.3 96.15 L-117.45 96.3 -118.85 96.55 -119.35 96.3 -121.9 95.6 -124.25 94.95 Q-127.35 93.55 -127.6 94.3 L-134.4 103.55 -135.25 104.2 -138.25 105.25 Q-144.45 104.6 -155.15 107.4 L-158.35 107.4 -158.75 106.75 -155.55 104.0 -155.35 103.75 -155.55 104.0" fill="#fa410f" fill-rule="evenodd" stroke="none"/>
    <path d="M8.95 92.05 L10.45 92.05 9.2 92.4 8.95 92.05 M2.7 101.4 Q10.4 109.7 5.45 101.45 L5.15 100.9 Q13.65 109.75 19.2 103.15 15.1 124.25 -6.25 119.25 L-6.9 118.25 Q-10.15 113.35 -13.2 115.7 -10.15 113.35 -6.9 118.25 L-6.25 119.25 Q-0.05 130.6 -4.95 132.65 -10.85 135.2 -23.9 129.25 -26.35 128.5 -37.45 121.65 L-41.5 119.85 -41.6 119.95 Q-72.1 138.1 -88.15 139.15 L-95.0 139.75 Q-106.5 141.85 -129.5 133.5 L-129.7 133.55 -130.35 133.15 -129.7 133.55 -130.0 133.6 -130.2 134.0 -131.65 140.1 -133.85 143.95 -138.0 148.65 Q-140.55 150.8 -143.2 150.65 L-145.15 149.7 -145.9 148.65 -146.35 146.7 -147.8 146.6 -149.75 145.5 -150.45 144.35 -150.65 143.2 -150.45 142.1 -149.5 140.2 -146.0 136.8 -146.05 136.75 -146.75 135.95 -147.25 134.8 -147.25 133.95 -146.95 132.75 -145.55 131.25 Q-145.0 130.5 -140.35 129.35 L-133.75 129.65 -133.6 129.55 -133.6 129.5 -133.5 127.2 -133.55 126.8 -134.05 118.8 -133.4 113.5 -131.7 108.45 Q-127.15 99.25 -124.25 94.95 L-121.9 95.6 -119.35 96.3 -118.85 96.55 -117.45 96.3 -117.3 96.15 Q-116.4 95.2 -116.2 94.5 -115.85 93.05 -117.95 92.4 L-122.15 91.75 -119.55 87.8 -119.25 86.75 -123.75 88.35 -124.7 88.35 Q-123.95 87.4 -125.3 84.6 L-123.75 83.1 Q-121.35 84.55 -120.15 84.15 L-119.95 84.05 Q-119.1 83.6 -118.95 82.05 L-118.95 81.95 -119.35 81.1 -120.65 80.35 Q-118.3 72.75 -114.65 81.4 -86.55 49.7 -60.55 63.4 -50.1 67.0 -39.8 84.3 -36.7 82.5 -37.45 88.65 -38.6 87.1 -39.25 85.35 L-39.8 84.3 -39.25 85.35 Q-38.6 87.1 -37.45 88.65 L-36.9 89.9 -33.65 85.15 -32.8 84.6 -31.8 84.5 -30.95 85.35 -30.65 86.2 -30.65 88.15 -31.15 92.7 -27.75 89.2 Q-26.25 87.7 -24.05 87.5 L-23.05 87.7 -22.45 88.65 Q-21.75 92.3 -27.25 100.5 L-30.5 98.85 -33.0 96.3 -36.9 89.9 -33.0 96.3 -30.5 98.85 -27.25 100.5 Q-23.8 101.7 -21.35 101.35 L-17.95 100.5 Q-15.85 99.75 -11.15 95.9 L-8.05 94.6 -8.05 95.8 -7.75 96.3 -7.2 96.85 -3.45 98.15 2.7 101.4 M-117.8 79.6 L-118.95 81.95 -117.8 79.6 M-30.65 94.5 L-31.15 92.7 -30.65 94.5 M-115.3 99.3 L-119.55 100.7 -122.05 100.9 Q-121.4 99.1 -122.9 97.15 L-122.55 96.3 -121.9 95.6 -122.55 96.3 -122.9 97.15 Q-121.4 99.1 -122.05 100.9 L-119.55 100.7 -115.3 99.3 M-112.35 92.5 Q-115.45 84.2 -117.95 92.4 -115.45 84.2 -112.35 92.5 M-116.2 94.5 L-114.8 91.75 -116.2 94.5 M-112.1 93.05 L-112.1 92.6 -112.1 93.05 M-119.55 98.55 L-117.45 96.3 -119.55 98.55 M-114.8 81.75 L-113.3 80.75 -114.8 81.75 M-117.15 84.7 L-116.8 84.15 -117.15 84.7 M-122.9 86.5 L-121.25 85.35 -120.15 84.15 -121.25 85.35 -122.9 86.5 M-117.8 77.15 L-117.45 77.5 -117.8 77.15 M-112.95 80.35 L-112.45 80.05 -112.95 80.35 M-133.4 130.8 L-133.6 129.55 -133.4 130.8 M-45.8 118.8 L-43.2 119.1 -41.6 119.95 -43.2 119.1 -45.8 118.8 M-141.45 132.0 L-142.5 133.6 -146.05 136.75 -142.5 133.6 -141.45 132.0 M-141.1 135.7 L-141.2 136.35 -146.1 144.25 -146.35 146.7 -146.1 144.25 -141.2 136.35 -141.1 135.7 M-131.95 132.1 L-131.65 132.3 -131.95 132.1 M-13.2 115.7 L-13.2 115.6 -17.55 114.2 -24.15 113.05 Q-30.9 113.15 -32.8 114.1 L-32.75 114.1 -21.8 117.95 -21.5 117.95 -21.35 117.95 -21.15 116.75 -19.8 116.55 -18.4 117.3 -14.55 120.4 -14.55 120.35 -13.8 116.45 -13.2 115.7 M-23.55 120.65 L-23.5 120.75 -23.3 121.25 -22.85 121.15 -20.95 119.75 -21.15 118.8 -21.3 118.75 -21.3 118.25 -21.5 117.95 -21.3 118.25 -21.3 118.75 -21.15 118.8 -20.95 119.75 -18.4 124.75 -20.95 119.75 -22.85 121.15 -23.3 121.25 -23.5 120.75 -23.55 120.65 -23.2 121.65 -23.55 120.65 -24.05 119.95 -24.05 119.65 -24.05 119.95 -23.55 120.65 M-21.3 118.75 L-23.0 118.25 -23.5 118.25 -23.4 118.9 -23.9 119.65 -24.05 119.65 -24.45 119.0 -24.35 118.25 -23.5 118.25 -24.35 118.25 -24.45 119.0 -24.05 119.65 -23.9 119.65 -23.4 118.9 -23.5 118.25 -23.0 118.25 -21.3 118.75 M-13.2 125.3 L-13.4 123.35 -14.55 120.35 -13.4 123.35 -13.2 125.3 M-32.8 114.1 L-43.45 110.5 -43.65 110.15 -43.45 110.5 -32.8 114.1" fill="#ffffff" fill-rule="evenodd" stroke="none"/>
    <path d="M12.7 89.5 L10.25 87.35 11.85 88.15 12.7 89.05 12.7 89.5 M19.1 96.1 L19.0 96.3 19.0 96.85 18.45 96.85 17.9 96.3 Q15.9 93.7 18.15 94.75 L19.1 96.1" fill="#000000" fill-rule="evenodd" stroke="none"/>
    <path d="M-4.0 78.2 L-3.25 79.5 2.7 100.55 2.7 101.4 -3.45 98.15 -7.2 96.85 -7.75 96.3 -8.05 95.8 -8.05 94.6 Q-5.2 77.9 -4.0 78.2" fill="#fa420e" fill-rule="evenodd" stroke="none"/>
    <path d="M10.25 87.35 L8.25 86.5 5.25 86.45 Q5.9 88.1 6.95 89.6 L8.95 92.05 10.45 92.05 13.85 92.2 12.7 89.5 10.25 87.35 11.85 88.15 12.7 89.05 12.7 89.5 M5.25 86.45 L1.3 74.35 Q-3.05 57.55 -4.0 78.2 L-3.25 79.5 2.7 100.55 2.7 101.4 Q10.4 109.7 5.45 101.45 L5.15 100.9 4.0 99.0 3.8 98.45 M9.2 92.4 L8.95 92.05 M9.2 92.4 Q7.25 92.95 5.8 94.6 L5.05 96.3 4.65 97.8 5.15 100.9 Q13.65 109.75 19.2 103.15 21.15 98.3 19.1 96.1 L19.0 96.3 19.0 96.85 18.45 96.85 17.9 96.3 Q15.9 93.7 18.15 94.75 L17.05 93.55 13.85 92.2 M2.15 92.7 L2.3 93.25 2.3 93.65 2.35 94.1 2.9 96.25 M3.55 97.7 L3.55 98.15 M19.1 96.1 L18.15 94.75 M10.45 92.05 L9.2 92.4 M-2.2 67.35 L-2.35 70.1 -2.1 70.75 M-2.85 69.45 L-2.95 70.0 -2.95 70.45 M-2.35 70.1 L-2.4 71.75 -2.4 74.15 -2.3 74.8 M-39.8 84.3 L-39.25 85.35 Q-38.6 87.1 -37.45 88.65 -36.7 82.5 -39.8 84.3 -50.1 67.0 -60.55 63.4 -86.55 49.7 -114.65 81.4 -118.3 72.75 -120.65 80.35 L-119.35 81.1 -118.95 81.95 -117.8 79.6 M-31.15 92.7 L-30.65 88.15 -30.65 86.2 -30.95 85.35 -31.8 84.5 -32.8 84.6 -33.65 85.15 -36.9 89.9 -33.0 96.3 -30.5 98.85 -27.25 100.5 Q-21.75 92.3 -22.45 88.65 L-23.05 87.7 -24.05 87.5 Q-26.25 87.7 -27.75 89.2 L-31.15 92.7 -30.65 94.5 M-36.9 89.9 L-37.45 88.65 M-8.05 94.6 L-11.15 95.9 Q-15.85 99.75 -17.95 100.5 L-21.35 101.35 Q-23.8 101.7 -27.25 100.5 M-8.05 94.6 L-8.05 95.8 -7.75 96.3 -7.2 96.85 -3.45 98.15 2.7 101.4 M-4.0 78.2 Q-5.2 77.9 -8.05 94.6 M-120.65 80.35 L-126.8 78.4 -129.6 78.35 Q-131.75 78.6 -132.15 87.15 L-133.55 87.5 -137.8 85.35 Q-147.95 77.15 -150.8 77.05 L-151.1 77.35 -151.0 77.9 -149.4 80.05 -147.4 80.55 M-149.4 80.05 L-153.65 79.2 -154.1 79.25 -154.1 79.8 -153.0 81.1 -147.9 85.35 -149.95 86.75 -149.95 87.35 Q-149.8 88.0 -140.85 89.9 L-135.45 92.05 -131.7 91.95 -129.8 90.9 Q-128.85 90.05 -128.45 87.5 L-128.85 80.55 -128.0 80.7 -123.75 83.1 Q-121.35 84.55 -120.15 84.15 L-119.95 84.05 Q-119.1 83.6 -118.95 82.05 L-118.95 81.95 M-155.8 99.0 L-155.35 98.85 M-122.15 91.75 Q-126.55 90.75 -127.8 91.1 L-129.35 91.85 -134.7 98.0 -138.75 100.05 -141.85 99.95 Q-149.55 96.35 -158.45 95.6 L-158.35 96.55 -155.8 99.0 -162.8 100.05 -163.35 100.5 -162.8 101.35 -161.65 101.85 -155.55 104.0 -155.35 103.75 M-123.75 83.1 L-125.3 84.6 Q-123.95 87.4 -124.7 88.35 L-123.75 88.35 -119.25 86.75 -119.55 87.8 -122.15 91.75 -117.95 92.4 Q-115.45 84.2 -112.35 92.5 M-121.9 95.6 L-122.55 96.3 -122.9 97.15 Q-121.4 99.1 -122.05 100.9 L-119.55 100.7 -115.3 99.3 M-124.25 94.95 L-121.9 95.6 -119.35 96.3 -118.85 96.55 -117.45 96.3 -117.3 96.15 Q-116.4 95.2 -116.2 94.5 -115.85 93.05 -117.95 92.4 M-155.55 104.0 L-158.75 106.75 -158.35 107.4 -155.15 107.4 Q-144.45 104.6 -138.25 105.25 L-135.25 104.2 -134.4 103.55 -127.6 94.3 Q-127.35 93.55 -124.25 94.95 -127.15 99.25 -131.7 108.45 L-133.4 113.5 -134.05 118.8 -133.55 126.8 -133.5 127.2 -133.6 129.5 -133.6 129.55 -133.4 130.8 M-112.45 80.05 L-112.95 80.35 M-117.45 77.5 L-117.8 77.15 M-120.15 84.15 L-121.25 85.35 -122.9 86.5 M-116.8 84.15 L-117.15 84.7 M-113.3 80.75 L-114.8 81.75 M-117.45 96.3 L-119.55 98.55 M-112.1 92.6 L-112.1 93.05 M-114.8 91.75 L-116.2 94.5 M-129.7 133.55 L-129.5 133.5 Q-106.5 141.85 -95.0 139.75 L-88.15 139.15 Q-72.1 138.1 -41.6 119.95 L-43.2 119.1 -45.8 118.8 M-133.6 129.55 L-133.75 129.65 -140.35 129.35 Q-145.0 130.5 -145.55 131.25 L-146.95 132.75 -147.25 133.95 -147.25 134.8 -146.75 135.95 -146.05 136.75 -142.5 133.6 -141.45 132.0 M-146.05 136.75 L-146.0 136.8 -149.5 140.2 -150.45 142.1 -150.65 143.2 -150.45 144.35 -149.75 145.5 -147.8 146.6 -146.35 146.7 -146.1 144.25 -141.2 136.35 -141.1 135.7 M-129.7 133.55 L-130.35 133.15 M-146.35 146.7 L-145.9 148.65 -145.15 149.7 -143.2 150.65 Q-140.55 150.8 -138.0 148.65 L-133.85 143.95 -131.65 140.1 -130.2 134.0 -130.0 133.6 -129.7 133.55 M-131.65 132.3 L-131.95 132.1 M-13.2 115.7 L-13.2 115.6 -17.55 114.2 -24.15 113.05 Q-30.9 113.15 -32.8 114.1 L-32.75 114.1 -21.8 117.95 -21.5 117.95 -21.35 117.95 -21.15 116.75 -19.8 116.55 -18.4 117.3 -14.55 120.4 -14.55 120.35 -13.8 116.45 -13.2 115.7 Q-10.15 113.35 -6.9 118.25 L-6.25 119.25 Q15.1 124.25 19.2 103.15 M-14.55 120.35 L-13.4 123.35 -13.2 125.3 M-21.5 117.95 L-21.3 118.25 -21.3 118.75 -21.15 118.8 -20.95 119.75 -18.4 124.75 M-23.5 118.25 L-24.35 118.25 -24.45 119.0 -24.05 119.65 -23.9 119.65 -23.4 118.9 -23.5 118.25 -23.0 118.25 -21.3 118.75 M-23.2 121.65 L-23.55 120.65 -24.05 119.95 -24.05 119.65 M-20.95 119.75 L-22.85 121.15 -23.3 121.25 -23.5 120.75 -23.55 120.65 M-41.6 119.95 L-41.5 119.85 -37.45 121.65 Q-26.35 128.5 -23.9 129.25 -10.85 135.2 -4.95 132.65 -0.05 130.6 -6.25 119.25 M-43.65 110.15 L-43.45 110.5 -32.8 114.1" fill="none" stroke="#000000" stroke-linecap="round" stroke-linejoin="round" stroke-width="0.05"/>
  </g>
</svg>
