<?xml version="1.0" encoding="UTF-8" standalone="no"?>
<svg xmlns:xlink="http://www.w3.org/1999/xlink" height="94.5px" width="170.3px" xmlns="http://www.w3.org/2000/svg">
  <g transform="matrix(1.0, 0.0, 0.0, 1.0, 155.25, -53.7)">
    <path d="M14.2 88.2 L13.8 88.65 13.15 88.35 12.5 87.35 12.15 86.2 13.0 86.3 14.2 88.2 M8.45 82.15 L8.35 82.45 7.8 82.45 6.85 81.55 6.55 80.1 7.25 80.25 8.45 82.15" fill="#000000" fill-rule="evenodd" stroke="none"/>
    <path d="M13.0 86.3 L12.15 86.2 12.5 87.35 13.15 88.35 13.8 88.65 14.2 88.2 14.95 90.05 Q15.3 92.65 14.65 94.1 L13.15 96.3 Q9.4 99.5 4.4 96.3 L3.45 96.0 0.65 93.45 Q-1.05 87.25 2.35 85.35 L4.05 84.3 5.05 83.85 7.9 83.65 9.1 83.85 7.9 83.65 5.05 83.85 3.85 83.95 1.85 81.75 -0.25 78.1 Q4.25 76.8 7.25 80.25 L6.55 80.1 6.85 81.55 7.8 82.45 8.35 82.45 8.45 82.15 9.1 83.85 11.55 84.8 13.0 86.3" fill="#ff7a16" fill-rule="evenodd" stroke="none"/>
    <path d="M4.05 84.3 L2.35 85.35 Q-1.05 87.25 0.65 93.45 L0.9 94.25 1.0 94.5 2.35 96.3 3.15 97.7 2.8 98.15 -1.45 94.3 -9.55 70.95 -9.65 66.25 -9.65 65.85 -9.6 63.4 -9.35 63.0 -9.5 61.5 -9.35 63.0 -9.6 63.4 -9.5 61.5 -9.3 59.85 Q-8.6 55.7 -6.15 63.4 L-0.25 78.1 1.85 81.75 3.85 83.95 4.05 84.3 M-9.3 59.85 L-8.95 61.3 -8.9 60.75 -8.9 60.65 -8.8 60.0 -8.8 59.65 -8.8 60.0 -8.9 60.75 -8.7 64.9 -8.8 65.4 -8.7 65.85 -8.7 66.2 -8.7 65.85 -8.8 65.4 -8.7 64.9 -8.9 60.75 -8.8 60.0 -8.9 60.65 -8.9 60.75 -8.95 61.3 -9.0 61.8 -9.15 62.25 -9.0 61.8 -8.95 61.3 -9.3 59.85 M-8.6 61.35 L-8.6 60.95 -8.6 61.35 M-0.5 91.95 L-0.6 91.65 -0.5 91.95 M-2.85 85.8 L-2.85 85.35 -2.85 85.8 M-1.75 88.75 L-1.75 89.2 -1.75 88.75 M-137.9 71.15 L-140.15 68.3 -141.45 67.15 -141.6 66.95 -141.75 66.85 -141.6 66.95 -141.45 67.15 -140.15 68.3 -137.9 71.15 M-139.75 74.75 L-139.7 74.7 -142.05 69.6 -142.7 67.7 -142.7 66.5 -141.75 66.85 -141.5 66.2 -141.0 66.2 -140.35 66.7 -138.1 69.6 -132.8 79.25 Q-130.55 82.85 -129.3 83.65 L-129.15 84.7 -129.3 83.65 Q-131.1 72.05 -124.8 74.35 L-119.15 76.0 Q-117.35 76.4 -117.55 77.75 -117.7 78.55 -118.5 79.7 L-118.75 79.75 -119.8 79.9 -122.05 78.95 -126.1 76.7 -127.05 76.5 -127.15 77.55 -126.3 83.65 -126.8 86.3 -126.75 86.3 -124.7 85.85 -119.8 86.65 -116.5 87.35 -115.85 87.5 -114.65 88.45 -114.6 89.05 -114.6 89.3 -114.9 89.9 -115.9 91.05 -116.25 91.45 -115.9 91.05 -116.15 91.4 -116.25 91.45 Q-116.85 91.7 -120.0 90.7 L-121.9 90.05 -124.7 89.0 -125.3 89.05 Q-128.2 95.65 -131.5 98.85 L-133.55 99.7 -136.3 99.65 Q-142.95 95.85 -148.55 94.4 L-151.65 92.6 -151.65 91.95 -149.5 91.1 -154.7 85.85 -155.25 85.15 -155.25 84.4 -154.3 84.3 -150.8 85.6 Q-152.9 82.3 -151.3 82.25 L-146.55 85.35 -139.7 91.55 Q-136.8 93.8 -134.9 94.5 L-133.55 94.5 -132.35 93.95 -128.2 87.7 -126.95 86.5 -126.75 86.3 -126.95 86.5 -128.2 87.7 Q-132.55 91.05 -139.95 76.65 L-140.35 75.15 -139.75 74.75 -138.85 74.8 -139.75 74.75 M-148.55 86.3 L-150.8 85.6 -148.55 86.3 M-149.1 91.0 L-149.5 91.1 -149.1 91.0 M-126.8 86.3 L-126.95 86.5 -126.8 86.3 M-0.2 92.5 L0.9 94.25 -0.2 92.5" fill="#fa410f" fill-rule="evenodd" stroke="none"/>
    <path d="M5.05 83.85 L4.05 84.3 3.85 83.95 5.05 83.85 M0.65 93.45 L3.45 96.0 4.4 96.3 Q9.4 99.5 13.15 96.3 L14.65 94.1 Q16.25 107.15 2.8 113.5 L-0.85 114.35 -6.15 114.1 Q-7.7 114.15 -17.1 109.75 L-25.6 108.6 -31.3 109.1 -35.75 110.6 -35.7 110.65 -24.45 117.1 -24.25 117.15 -23.4 117.3 Q-21.25 118.95 -21.35 120.3 L-20.0 121.6 -18.6 118.6 -17.85 118.05 -16.4 118.25 Q-15.3 118.4 -14.25 123.5 L-12.75 125.0 -12.7 124.9 Q-9.55 120.55 -3.8 121.45 L-2.6 122.1 -1.75 123.35 -1.75 125.7 Q-2.95 129.65 -3.8 130.6 -7.0 135.75 -11.05 136.5 -20.9 138.1 -41.15 118.25 L-43.75 116.35 -46.65 118.8 Q-60.75 125.55 -64.4 128.25 L-73.05 132.3 -78.05 134.0 -87.75 136.5 Q-104.55 140.25 -127.45 130.95 -127.6 130.7 -127.75 130.8 -128.45 131.15 -129.35 137.2 L-132.05 142.05 -135.95 146.5 Q-138.3 148.4 -140.65 148.2 L-142.35 147.25 -143.0 146.35 -143.55 144.65 -145.25 144.6 -146.2 144.15 -147.25 143.1 -147.7 142.25 -147.8 140.55 -146.95 138.4 Q-146.5 137.2 -143.65 134.8 L-143.7 134.7 -144.4 133.5 -144.6 131.45 -144.05 130.3 -143.0 129.25 Q-140.75 126.45 -131.5 126.7 L-131.35 127.1 -131.4 126.55 -131.35 127.1 -131.2 128.05 -131.35 127.1 -131.5 126.7 -131.4 126.7 -131.4 126.55 -131.85 116.05 -131.2 110.3 -128.75 103.15 -121.9 90.05 -120.0 90.7 Q-116.85 91.7 -116.25 91.45 L-116.15 91.4 -115.9 91.05 -114.9 89.9 -114.6 89.3 -114.6 89.05 -114.65 88.45 -115.85 87.5 -116.5 87.35 -119.8 86.65 -117.85 83.25 -117.8 82.45 -122.15 84.1 -123.0 83.95 -122.75 82.7 -123.6 81.1 -123.55 80.35 -122.05 78.95 -119.8 79.9 -118.75 79.75 -118.5 79.7 Q-117.7 78.55 -117.55 77.75 -117.35 76.4 -119.15 76.0 L-117.25 72.35 Q-116.25 71.95 -115.0 74.35 L-113.75 76.95 -112.95 76.85 -112.65 76.7 -111.95 76.0 -112.65 76.7 -112.95 76.85 -113.0 76.85 -113.6 77.25 -113.0 76.85 -112.95 76.85 -112.6 76.35 -112.3 75.95 Q-109.75 72.6 -103.7 67.05 L-95.05 60.45 -95.0 60.3 -94.75 60.2 -94.65 60.1 -94.45 60.0 -94.35 59.9 Q-87.55 54.7 -81.15 53.7 -70.05 53.55 -61.55 57.9 -48.5 63.9 -39.9 83.25 L-39.7 83.55 -38.1 86.85 -35.4 91.35 -33.3 93.65 -35.4 91.35 -38.1 86.85 Q-33.4 77.55 -32.65 85.35 L-33.3 93.65 Q-26.65 98.05 -22.35 95.9 L-22.2 95.8 Q-20.65 96.0 -12.2 88.55 L-11.9 89.9 -11.05 90.45 -7.85 91.35 -1.45 94.3 2.8 98.15 3.15 97.7 2.35 96.3 1.0 94.5 0.9 94.25 0.65 93.45 M-110.4 74.5 L-111.95 76.0 -112.25 76.3 -112.3 76.05 -112.3 75.95 -112.3 76.05 -112.25 76.3 -111.95 76.0 -110.4 74.5 M-122.45 83.3 L-122.25 83.1 -122.45 83.3 M-116.3 74.8 L-117.55 77.75 -116.3 74.8 M-112.3 76.05 L-112.6 76.35 -112.3 76.05 M-115.65 80.25 L-115.45 79.8 -115.65 80.25 M-116.5 87.35 L-114.45 83.1 -113.6 83.1 -111.9 85.35 -111.2 87.1 -110.85 87.7 -111.2 87.1 -111.9 85.35 -113.6 83.1 -114.45 83.1 -116.5 87.35 M-116.7 81.3 L-116.5 80.95 -116.7 81.3 M-121.7 82.6 L-119.9 81.2 -118.75 79.75 -119.9 81.2 -121.7 82.6 M-114.6 89.05 L-113.3 86.0 -114.6 89.05 M-114.05 94.3 L-118.85 95.8 -120.35 95.65 -120.1 94.3 -121.05 92.05 -120.85 91.4 -120.0 90.7 -120.85 91.4 -121.05 92.05 -120.1 94.3 -120.35 95.65 -118.85 95.8 -114.05 94.3 M-118.65 93.9 L-118.3 93.65 -116.25 91.45 -118.3 93.65 -118.65 93.9 M-138.85 129.45 L-140.15 131.4 -143.7 134.7 -140.15 131.4 -138.85 129.45 M-138.55 133.1 L-138.85 134.0 -142.8 140.2 -143.65 142.95 -143.55 144.65 -143.65 142.95 -142.8 140.2 -138.85 134.0 -138.55 133.1 M-128.65 130.3 L-128.95 130.1 -128.65 130.3 M-128.3 130.5 L-127.75 130.8 -128.3 130.5 M-47.9 113.9 L-46.05 114.65 -43.75 116.35 -46.05 114.65 -47.9 113.9 M-13.5 126.5 L-12.7 124.9 -13.5 126.5 M-20.4 123.35 L-20.0 121.6 -20.4 123.35 M-45.35 104.85 L-35.75 110.6 -45.35 104.85 M-25.0 119.65 L-24.75 118.25 -24.25 117.15 -24.75 118.25 -25.0 119.65" fill="#ffffff" fill-rule="evenodd" stroke="none"/>
    <path d="M-1.45 94.3 L-7.85 91.35 -11.05 90.45 -11.9 89.9 -12.2 88.55 Q-10.8 69.2 -9.55 70.95 L-1.45 94.3" fill="#fa420e" fill-rule="evenodd" stroke="none"/>
    <path d="M14.2 88.2 L13.8 88.65 13.15 88.35 12.5 87.35 12.15 86.2 13.0 86.3 11.55 84.8 9.1 83.85 7.9 83.65 5.05 83.85 4.05 84.3 2.35 85.35 Q-1.05 87.25 0.65 93.45 L3.45 96.0 4.4 96.3 Q9.4 99.5 13.15 96.3 L14.65 94.1 Q15.3 92.65 14.95 90.05 L14.2 88.2 13.0 86.3 M8.45 82.15 L8.35 82.45 7.8 82.45 6.85 81.55 6.55 80.1 7.25 80.25 Q4.25 76.8 -0.25 78.1 L1.85 81.75 3.85 83.95 5.05 83.85 M4.05 84.3 L3.85 83.95 M9.1 83.85 L8.45 82.15 7.25 80.25 M0.65 93.45 L0.9 94.25 1.0 94.5 2.35 96.3 3.15 97.7 2.8 98.15 -1.45 94.3 -7.85 91.35 -11.05 90.45 -11.9 89.9 -12.2 88.55 Q-20.65 96.0 -22.2 95.8 L-22.35 95.9 Q-26.65 98.05 -33.3 93.65 L-35.4 91.35 -38.1 86.85 -39.7 83.55 -39.9 83.25 Q-48.5 63.9 -61.55 57.9 -70.05 53.55 -81.15 53.7 -87.55 54.7 -94.35 59.9 L-94.45 60.0 -94.65 60.1 -94.75 60.2 -95.0 60.3 -95.05 60.45 -103.7 67.05 Q-109.75 72.6 -112.3 75.95 L-112.3 76.05 -112.25 76.3 -111.95 76.0 -110.4 74.5 M-35.75 110.6 L-31.3 109.1 -25.6 108.6 -17.1 109.75 Q-7.7 114.15 -6.15 114.1 L-0.85 114.35 2.8 113.5 Q16.25 107.15 14.65 94.1 M-8.8 59.65 L-8.8 60.0 -8.9 60.75 -8.7 64.9 -8.8 65.4 -8.7 65.85 -8.7 66.2 M-8.9 60.75 L-8.95 61.3 -9.0 61.8 -9.15 62.25 M-8.8 60.0 L-8.9 60.65 -8.9 60.75 M-8.6 60.95 L-8.6 61.35 M-8.95 61.3 L-9.3 59.85 -9.5 61.5 -9.35 63.0 -9.6 63.4 -9.65 65.85 -9.65 66.25 -9.55 70.95 -1.45 94.3 M-9.5 61.5 L-9.6 63.4 M-0.25 78.1 L-6.15 63.4 Q-8.6 55.7 -9.3 59.85 M-33.3 93.65 L-32.65 85.35 Q-33.4 77.55 -38.1 86.85 M-1.75 89.2 L-1.75 88.75 M-2.85 85.35 L-2.85 85.8 M-0.6 91.65 L-0.5 91.95 M-9.55 70.95 Q-10.8 69.2 -12.2 88.55 M-141.75 66.85 L-141.6 66.95 -141.45 67.15 -140.15 68.3 -137.9 71.15 M-129.3 83.65 Q-130.55 82.85 -132.8 79.25 L-138.1 69.6 -140.35 66.7 -141.0 66.2 -141.5 66.2 -141.75 66.85 -142.7 66.5 -142.7 67.7 -142.05 69.6 -139.7 74.7 -139.75 74.75 -138.85 74.8 M-150.8 85.6 L-148.55 86.3 M-128.2 87.7 L-132.35 93.95 -133.55 94.5 -134.9 94.5 Q-136.8 93.8 -139.7 91.55 L-146.55 85.35 -151.3 82.25 Q-152.9 82.3 -150.8 85.6 L-154.3 84.3 -155.25 84.4 -155.25 85.15 -154.7 85.85 -149.5 91.1 -149.1 91.0 M-149.5 91.1 L-151.65 91.95 -151.65 92.6 -148.55 94.4 Q-142.95 95.85 -136.3 99.65 L-133.55 99.7 -131.5 98.85 Q-128.2 95.65 -125.3 89.05 L-124.7 89.0 -121.9 90.05 -120.0 90.7 Q-116.85 91.7 -116.25 91.45 L-115.9 91.05 -114.9 89.9 -114.6 89.3 -114.6 89.05 -114.65 88.45 -115.85 87.5 -116.5 87.35 -119.8 86.65 -124.7 85.85 -126.75 86.3 -126.95 86.5 -128.2 87.7 Q-132.55 91.05 -139.95 76.65 L-140.35 75.15 -139.75 74.75 M-119.8 86.65 L-117.85 83.25 -117.8 82.45 -122.15 84.1 -123.0 83.95 -122.75 82.7 -123.6 81.1 -123.55 80.35 -122.05 78.95 -126.1 76.7 -127.05 76.5 -127.15 77.55 -126.3 83.65 -126.8 86.3 -126.75 86.3 M-129.3 83.65 L-129.15 84.7 M-126.95 86.5 L-126.8 86.3 M-122.25 83.1 L-122.45 83.3 M-119.15 76.0 L-124.8 74.35 Q-131.1 72.05 -129.3 83.65 M-111.95 76.0 L-112.65 76.7 -112.95 76.85 -113.0 76.85 -113.6 77.25 M-112.95 76.85 L-113.75 76.95 -115.0 74.35 Q-116.25 71.95 -117.25 72.35 L-119.15 76.0 Q-117.35 76.4 -117.55 77.75 L-116.3 74.8 M-112.3 75.95 L-112.6 76.35 -112.3 76.05 M-112.6 76.35 L-112.95 76.85 M-115.45 79.8 L-115.65 80.25 M-118.75 79.75 L-119.8 79.9 -122.05 78.95 M-117.55 77.75 Q-117.7 78.55 -118.5 79.7 L-118.75 79.75 -119.9 81.2 -121.7 82.6 M-116.5 80.95 L-116.7 81.3 M-110.85 87.7 L-111.2 87.1 -111.9 85.35 -113.6 83.1 -114.45 83.1 -116.5 87.35 M-115.9 91.05 L-116.15 91.4 -116.25 91.45 -118.3 93.65 -118.65 93.9 M-120.0 90.7 L-120.85 91.4 -121.05 92.05 -120.1 94.3 -120.35 95.65 -118.85 95.8 -114.05 94.3 M-113.3 86.0 L-114.6 89.05 M-121.9 90.05 L-128.75 103.15 -131.2 110.3 -131.85 116.05 -131.4 126.55 -131.35 127.1 -131.2 128.05 M-131.5 126.7 Q-140.75 126.45 -143.0 129.25 L-144.05 130.3 -144.6 131.45 -144.4 133.5 -143.7 134.7 -140.15 131.4 -138.85 129.45 M-143.7 134.7 L-143.65 134.8 Q-146.5 137.2 -146.95 138.4 L-147.8 140.55 -147.7 142.25 -147.25 143.1 -146.2 144.15 -145.25 144.6 -143.55 144.65 -143.65 142.95 -142.8 140.2 -138.85 134.0 -138.55 133.1 M-143.55 144.65 L-143.0 146.35 -142.35 147.25 -140.65 148.2 Q-138.3 148.4 -135.95 146.5 L-132.05 142.05 -129.35 137.2 Q-128.45 131.15 -127.75 130.8 L-128.3 130.5 M-128.95 130.1 L-128.65 130.3 M-127.75 130.8 Q-127.6 130.7 -127.45 130.95 -104.55 140.25 -87.75 136.5 L-78.05 134.0 -73.05 132.3 -64.4 128.25 Q-60.75 125.55 -46.65 118.8 L-43.75 116.35 -46.05 114.65 -47.9 113.9 M-131.5 126.7 L-131.35 127.1 M-131.4 126.55 L-131.4 126.7 -131.5 126.7 M-43.75 116.35 L-41.15 118.25 Q-20.9 138.1 -11.05 136.5 -7.0 135.75 -3.8 130.6 -2.95 129.65 -1.75 125.7 L-1.75 123.35 -2.6 122.1 -3.8 121.45 Q-9.55 120.55 -12.7 124.9 L-13.5 126.5 M-12.7 124.9 L-12.75 125.0 -14.25 123.5 Q-15.3 118.4 -16.4 118.25 L-17.85 118.05 -18.6 118.6 -20.0 121.6 -20.4 123.35 M-24.25 117.15 L-24.45 117.1 -35.7 110.65 -35.75 110.6 -45.35 104.85 M-20.0 121.6 L-21.35 120.3 Q-21.25 118.95 -23.4 117.3 L-24.25 117.15 -24.75 118.25 -25.0 119.65 M0.9 94.25 L-0.2 92.5" fill="none" stroke="#000000" stroke-linecap="round" stroke-linejoin="round" stroke-width="0.05"/>
  </g>
</svg>
