<?xml version="1.0" encoding="UTF-8" standalone="no"?>
<svg xmlns:xlink="http://www.w3.org/1999/xlink" height="94.65px" width="165.65px" xmlns="http://www.w3.org/2000/svg">
  <g transform="matrix(1.0, 0.0, 0.0, 1.0, 150.6, -53.55)">
    <path d="M14.2 88.2 L13.8 88.65 13.15 88.35 12.5 87.35 12.15 86.2 13.0 86.3 14.2 88.2 M8.45 82.15 L8.35 82.45 7.8 82.45 6.85 81.55 6.55 80.1 7.25 80.25 8.45 82.15" fill="#000000" fill-rule="evenodd" stroke="none"/>
    <path d="M13.0 86.3 L12.15 86.2 12.5 87.35 13.15 88.35 13.8 88.65 14.2 88.2 14.95 90.05 Q15.3 92.65 14.65 94.1 L13.15 96.3 Q9.4 99.5 4.4 96.3 L3.45 96.0 0.65 93.45 Q-1.05 87.25 2.35 85.35 L4.05 84.3 5.05 83.85 7.9 83.65 9.1 83.85 7.9 83.65 5.05 83.85 3.85 83.95 1.85 81.75 -0.25 78.1 Q4.25 76.8 7.25 80.25 L6.55 80.1 6.85 81.55 7.8 82.45 8.35 82.45 8.45 82.15 9.1 83.85 11.55 84.8 13.0 86.3" fill="#ff7a16" fill-rule="evenodd" stroke="none"/>
    <path d="M4.05 84.3 L2.35 85.35 Q-1.05 87.25 0.65 93.45 L0.9 94.25 1.0 94.5 2.35 96.3 3.15 97.7 2.8 98.15 -1.45 94.3 -9.55 70.95 -9.65 66.25 -9.65 65.85 -9.6 63.4 -9.35 63.0 -9.5 61.5 -9.35 63.0 -9.6 63.4 -9.5 61.5 -9.3 59.85 -9.0 61.3 -9.0 61.1 -9.0 60.95 -8.9 60.65 -8.9 60.75 -9.0 60.95 -8.9 60.75 -8.9 60.65 -9.0 60.95 -9.0 61.1 -8.95 62.2 -8.7 64.9 -8.8 65.4 -8.7 65.85 -8.7 66.2 -8.7 65.85 -8.8 65.4 -8.7 64.9 -8.95 62.2 -9.0 61.1 -9.0 61.3 -9.0 61.8 -8.95 62.2 -9.0 61.8 -9.0 61.3 -9.3 59.85 Q-8.6 55.7 -6.15 63.4 L-0.25 78.1 1.85 81.75 3.85 83.95 4.05 84.3 M-8.6 61.35 L-8.6 60.95 -8.6 61.35 M-8.9 60.65 L-8.8 59.65 -8.9 60.65 M-0.5 91.95 L-0.6 91.65 -0.5 91.95 M-2.85 85.8 L-2.85 85.35 -2.85 85.8 M-1.75 89.2 L-1.75 88.75 -1.75 89.2 M-136.65 63.6 L-136.6 66.9 -136.65 63.6 -136.1 63.4 Q-135.45 61.25 -129.35 82.15 L-129.35 82.45 -129.3 82.45 -129.3 82.15 -129.3 82.45 -129.35 82.45 -129.2 82.55 -128.95 84.95 -129.2 82.55 -129.35 82.45 -129.35 82.15 -129.3 82.15 Q-130.65 72.4 -125.25 74.35 L-119.15 76.0 -117.55 77.25 -117.55 77.8 -117.55 77.9 -118.5 79.7 -118.75 79.75 -119.8 79.9 -122.05 78.95 -126.5 76.65 -127.15 76.7 -126.6 83.95 -126.8 85.8 -127.45 86.85 -127.9 87.35 -127.35 86.85 -127.9 87.35 -127.45 86.85 -127.35 86.85 -126.3 86.2 -125.1 86.0 -119.9 86.75 -116.55 87.5 -115.3 87.8 -114.65 88.65 -114.8 89.25 -115.0 90.15 -116.1 91.35 -117.45 91.4 -120.1 90.65 -121.9 90.15 -124.7 89.05 -125.3 89.2 -125.95 89.9 -128.75 95.8 -130.55 98.0 -132.5 99.2 -135.1 99.3 -138.1 97.95 Q-139.1 95.95 -147.7 88.15 L-147.8 87.05 -146.7 86.65 -146.6 86.65 -149.4 82.15 -150.6 79.6 -150.45 78.85 -149.8 78.85 -148.1 79.8 -148.45 77.8 Q-147.6 77.35 -145.45 79.9 L-141.2 85.35 Q-134.6 95.05 -133.65 94.4 L-132.8 94.4 -132.05 93.9 -127.9 87.35 Q-131.7 88.9 -133.95 83.85 L-135.1 77.25 -135.2 75.65 -135.15 75.4 -135.35 74.8 -135.4 73.75 -135.35 74.8 -135.15 75.4 -135.2 75.65 -135.1 77.25 -135.25 76.5 -135.4 75.8 -135.55 74.8 -135.65 73.85 -135.7 72.8 -135.85 72.45 -135.7 72.8 -135.65 73.85 -135.85 72.45 -136.6 66.9 -136.75 65.85 -136.75 63.65 -136.65 63.6 M-133.85 72.45 L-134.25 72.15 -135.25 72.25 -135.4 73.75 -135.55 74.8 -135.4 73.75 -135.25 72.25 -134.25 72.15 -133.85 72.45 M-145.05 82.45 L-148.1 79.8 -145.05 82.45 M-145.55 86.85 L-146.7 86.65 -145.55 86.85 M-135.2 75.65 L-135.25 76.5 -135.2 75.65 M-135.35 74.8 L-135.4 75.8 -135.35 74.8 M-0.2 92.5 L0.9 94.25 -0.2 92.5" fill="#fa410f" fill-rule="evenodd" stroke="none"/>
    <path d="M5.05 83.85 L4.05 84.3 3.85 83.95 5.05 83.85 M0.65 93.45 L3.45 96.0 4.4 96.3 Q9.4 99.5 13.15 96.3 L14.65 94.1 Q16.25 107.15 2.8 113.5 L-0.85 114.35 -6.15 114.1 Q-7.7 114.15 -17.1 109.75 L-25.6 108.6 -31.3 109.1 -35.75 110.6 -36.4 111.1 -36.5 111.15 -36.05 111.35 -21.15 120.8 -20.3 120.4 -19.35 120.6 -18.6 122.1 -18.7 123.6 -19.25 124.65 -19.0 124.85 -16.9 125.7 -16.05 125.7 -12.35 124.35 -10.7 124.35 -9.55 124.85 -8.9 125.7 -8.7 126.9 Q-9.55 129.55 -10.5 130.5 L-10.45 130.6 -10.85 131.15 -10.45 130.6 -10.0 131.4 Q8.25 130.2 5.55 136.3 -4.55 143.75 -15.1 141.25 -26.8 137.2 -42.45 118.25 L-44.05 116.75 -44.1 116.8 -46.65 118.8 Q-59.85 125.05 -66.25 129.25 L-78.05 134.0 -87.2 136.35 Q-104.6 140.35 -127.45 130.95 -127.6 130.7 -127.75 130.8 -128.45 131.15 -129.35 137.2 L-132.05 142.05 -135.95 146.5 Q-138.3 148.4 -140.65 148.2 L-142.35 147.25 -143.0 146.35 -143.55 144.65 -145.25 144.6 -146.2 144.15 -147.25 143.1 -147.7 142.25 -147.8 140.55 -146.95 138.4 Q-146.5 137.2 -143.65 134.8 L-143.7 134.7 -144.4 133.5 -144.6 131.45 -144.05 130.3 -143.0 129.25 Q-140.75 126.45 -131.5 126.7 L-131.35 127.1 -131.4 126.55 -131.35 127.1 -131.2 128.05 -131.35 127.1 -131.5 126.7 -131.4 126.7 -131.4 126.55 -131.85 116.05 -131.2 110.3 -128.75 103.15 -121.9 90.15 -120.1 90.65 -117.45 91.4 -116.1 91.35 -115.0 90.15 -114.8 89.25 -114.65 88.65 -115.3 87.8 -116.55 87.5 -119.9 86.75 -117.85 83.25 -117.8 82.45 -122.15 84.1 -123.0 83.95 -122.75 82.7 -123.6 81.1 -123.55 80.35 -122.05 78.95 -119.8 79.9 -118.75 79.75 -118.5 79.7 -117.55 77.9 -117.55 77.8 -117.55 77.25 -119.15 76.0 -117.25 72.35 Q-116.25 71.95 -115.0 74.35 L-113.75 76.95 -112.95 76.85 -112.65 76.7 -112.25 76.4 -112.65 76.7 -112.95 76.85 -113.0 76.85 -113.6 77.25 -113.0 76.85 -112.95 76.85 -112.6 76.35 -112.3 75.95 Q-109.75 72.6 -103.7 67.05 L-95.05 60.45 -95.0 60.3 -94.75 60.2 -94.65 60.1 -94.45 60.0 -94.35 59.9 Q-82.15 48.1 -60.75 58.3 -53.45 61.9 -46.95 70.65 L-44.3 74.8 -36.4 89.9 -33.3 93.75 Q-26.65 98.0 -22.35 95.9 L-22.2 95.8 Q-20.65 96.0 -12.2 88.55 L-11.9 89.9 -11.05 90.45 -7.85 91.35 -1.45 94.3 2.8 98.15 3.15 97.7 2.35 96.3 1.0 94.5 0.9 94.25 0.65 93.45 M-110.55 74.6 L-112.25 76.4 -112.3 76.05 -112.3 75.95 -112.3 76.05 -112.25 76.4 -110.55 74.6 M-112.3 76.05 L-112.6 76.35 -112.3 76.05 M-114.8 89.25 L-113.3 86.0 -114.8 89.25 M-118.65 93.9 L-118.3 93.65 -116.1 91.35 -118.3 93.65 -118.65 93.9 M-114.05 94.3 L-115.45 94.6 -118.95 95.8 -120.2 95.8 -120.1 94.3 -121.05 92.05 -121.0 91.55 -120.1 90.65 -121.0 91.55 -121.05 92.05 -120.1 94.3 -120.2 95.8 -118.95 95.8 -115.45 94.6 -114.05 94.3 M-116.3 74.8 L-117.55 77.8 -116.3 74.8 M-121.7 82.6 L-119.9 81.2 -118.75 79.75 -119.9 81.2 -121.7 82.6 M-116.55 87.5 L-114.45 83.1 -113.6 83.1 -111.9 85.35 -110.85 87.6 -111.9 85.35 -113.6 83.1 -114.45 83.1 -116.55 87.5 M-116.7 81.3 L-116.5 80.95 -116.7 81.3 M-115.65 80.25 L-115.45 79.8 -115.65 80.25 M-138.85 129.45 L-140.15 131.4 -143.7 134.7 -140.15 131.4 -138.85 129.45 M-138.55 133.1 L-138.85 134.0 -142.8 140.2 -143.65 142.95 -143.55 144.65 -143.65 142.95 -142.8 140.2 -138.85 134.0 -138.55 133.1 M-128.95 130.1 L-128.65 130.3 -128.95 130.1 M-128.3 130.5 L-127.75 130.8 -128.3 130.5 M-48.2 114.1 L-46.2 115.05 -44.1 116.8 -46.2 115.05 -48.2 114.1 M-21.7 121.15 L-21.15 120.8 -21.7 121.15 M-9.2 131.8 L-8.35 131.8 -9.2 131.8 M-45.35 104.85 L-36.4 111.1 -45.35 104.85 M-19.65 125.7 L-19.25 124.65 -19.65 125.7" fill="#ffffff" fill-rule="evenodd" stroke="none"/>
    <path d="M-1.45 94.3 L-7.85 91.35 -11.05 90.45 -11.9 89.9 -12.2 88.55 Q-10.8 69.2 -9.55 70.95 L-1.45 94.3" fill="#fa420e" fill-rule="evenodd" stroke="none"/>
    <path d="M14.2 88.2 L13.8 88.65 13.15 88.35 12.5 87.35 12.15 86.2 13.0 86.3 11.55 84.8 9.1 83.85 7.9 83.65 5.05 83.85 4.05 84.3 2.35 85.35 Q-1.05 87.25 0.65 93.45 L3.45 96.0 4.4 96.3 Q9.4 99.5 13.15 96.3 L14.65 94.1 Q15.3 92.65 14.95 90.05 L14.2 88.2 13.0 86.3 M8.45 82.15 L8.35 82.45 7.8 82.45 6.85 81.55 6.55 80.1 7.25 80.25 Q4.25 76.8 -0.25 78.1 L1.85 81.75 3.85 83.95 5.05 83.85 M4.05 84.3 L3.85 83.95 M9.1 83.85 L8.45 82.15 7.25 80.25 M0.65 93.45 L0.9 94.25 1.0 94.5 2.35 96.3 3.15 97.7 2.8 98.15 -1.45 94.3 -7.85 91.35 -11.05 90.45 -11.9 89.9 -12.2 88.55 Q-20.65 96.0 -22.2 95.8 L-22.35 95.9 Q-26.65 98.0 -33.3 93.75 L-36.4 89.9 -44.3 74.8 -46.95 70.65 Q-53.45 61.9 -60.75 58.3 -82.15 48.1 -94.35 59.9 L-94.45 60.0 -94.65 60.1 -94.75 60.2 -95.0 60.3 -95.05 60.45 -103.7 67.05 Q-109.75 72.6 -112.3 75.95 L-112.3 76.05 -112.25 76.4 -110.55 74.6 M-36.4 111.1 L-35.75 110.6 -31.3 109.1 -25.6 108.6 -17.1 109.75 Q-7.7 114.15 -6.15 114.1 L-0.85 114.35 2.8 113.5 Q16.25 107.15 14.65 94.1 M-9.0 60.95 L-8.9 60.75 -8.9 60.65 -9.0 60.95 -9.0 61.1 -8.95 62.2 -8.7 64.9 -8.8 65.4 -8.7 65.85 -8.7 66.2 M-9.0 61.1 L-9.0 61.3 -9.0 61.8 -8.95 62.2 M-8.6 60.95 L-8.6 61.35 M-9.0 61.3 L-9.3 59.85 -9.5 61.5 -9.35 63.0 -9.6 63.4 -9.65 65.85 -9.65 66.25 -9.55 70.95 -1.45 94.3 M-8.8 59.65 L-8.9 60.65 M-9.5 61.5 L-9.6 63.4 M-0.25 78.1 L-6.15 63.4 Q-8.6 55.7 -9.3 59.85 M-1.75 88.75 L-1.75 89.2 M-2.85 85.35 L-2.85 85.8 M-0.6 91.65 L-0.5 91.95 M-9.55 70.95 Q-10.8 69.2 -12.2 88.55 M-136.6 66.9 L-136.65 63.6 -136.75 63.65 -136.75 65.85 -136.6 66.9 -135.85 72.45 -135.7 72.8 -135.65 73.85 -135.55 74.8 -135.4 73.75 -135.25 72.25 -134.25 72.15 -133.85 72.45 M-129.35 82.15 Q-135.45 61.25 -136.1 63.4 L-136.65 63.6 M-135.85 72.45 L-135.65 73.85 M-127.9 87.35 L-132.05 93.9 -132.8 94.4 -133.65 94.4 Q-134.6 95.05 -141.2 85.35 L-145.45 79.9 Q-147.6 77.35 -148.45 77.8 L-148.1 79.8 -145.05 82.45 M-148.1 79.8 L-149.8 78.85 -150.45 78.85 -150.6 79.6 -149.4 82.15 -146.6 86.65 -146.7 86.65 -145.55 86.85 M-146.7 86.65 L-147.8 87.05 -147.7 88.15 Q-139.1 95.95 -138.1 97.95 L-135.1 99.3 -132.5 99.2 -130.55 98.0 -128.75 95.8 -125.95 89.9 -125.3 89.2 -124.7 89.05 -121.9 90.15 -120.1 90.65 -117.45 91.4 -116.1 91.35 -115.0 90.15 -114.8 89.25 -114.65 88.65 -115.3 87.8 -116.55 87.5 -119.9 86.75 -125.1 86.0 -126.3 86.2 -127.35 86.85 -127.9 87.35 -127.45 86.85 -126.8 85.8 -126.6 83.95 -127.15 76.7 -126.5 76.65 -122.05 78.95 -119.8 79.9 -118.75 79.75 -118.5 79.7 -117.55 77.9 -117.55 77.8 -117.55 77.25 -119.15 76.0 -125.25 74.35 Q-130.65 72.4 -129.3 82.15 L-129.3 82.45 -129.35 82.45 -129.2 82.55 -128.95 84.95 M-119.9 86.75 L-117.85 83.25 -117.8 82.45 -122.15 84.1 -123.0 83.95 -122.75 82.7 -123.6 81.1 -123.55 80.35 -122.05 78.95 M-129.35 82.15 L-129.35 82.45 M-129.3 82.15 L-129.35 82.15 M-135.4 73.75 L-135.35 74.8 -135.15 75.4 -135.2 75.65 -135.1 77.25 -133.95 83.85 Q-131.7 88.9 -127.9 87.35 M-135.4 75.8 L-135.25 76.5 -135.2 75.65 M-135.55 74.8 L-135.4 75.8 -135.35 74.8 M-135.25 76.5 L-135.1 77.25 M-127.45 86.85 L-127.35 86.85 M-112.25 76.4 L-112.65 76.7 -112.95 76.85 -113.0 76.85 -113.6 77.25 M-112.95 76.85 L-113.75 76.95 -115.0 74.35 Q-116.25 71.95 -117.25 72.35 L-119.15 76.0 M-112.3 75.95 L-112.6 76.35 -112.3 76.05 M-112.6 76.35 L-112.95 76.85 M-115.45 79.8 L-115.65 80.25 M-116.5 80.95 L-116.7 81.3 M-110.85 87.6 L-111.9 85.35 -113.6 83.1 -114.45 83.1 -116.55 87.5 M-118.75 79.75 L-119.9 81.2 -121.7 82.6 M-117.55 77.8 L-116.3 74.8 M-120.1 90.65 L-121.0 91.55 -121.05 92.05 -120.1 94.3 -120.2 95.8 -118.95 95.8 -115.45 94.6 -114.05 94.3 M-116.1 91.35 L-118.3 93.65 -118.65 93.9 M-113.3 86.0 L-114.8 89.25 M-121.9 90.15 L-128.75 103.15 -131.2 110.3 -131.85 116.05 -131.4 126.55 -131.35 127.1 -131.2 128.05 M-131.5 126.7 Q-140.75 126.45 -143.0 129.25 L-144.05 130.3 -144.6 131.45 -144.4 133.5 -143.7 134.7 -140.15 131.4 -138.85 129.45 M-143.7 134.7 L-143.65 134.8 Q-146.5 137.2 -146.95 138.4 L-147.8 140.55 -147.7 142.25 -147.25 143.1 -146.2 144.15 -145.25 144.6 -143.55 144.65 -143.65 142.95 -142.8 140.2 -138.85 134.0 -138.55 133.1 M-143.55 144.65 L-143.0 146.35 -142.35 147.25 -140.65 148.2 Q-138.3 148.4 -135.95 146.5 L-132.05 142.05 -129.35 137.2 Q-128.45 131.15 -127.75 130.8 L-128.3 130.5 M-128.65 130.3 L-128.95 130.1 M-127.75 130.8 Q-127.6 130.7 -127.45 130.95 -104.6 140.35 -87.2 136.35 L-78.05 134.0 -66.25 129.25 Q-59.85 125.05 -46.65 118.8 L-44.1 116.8 -46.2 115.05 -48.2 114.1 M-131.5 126.7 L-131.35 127.1 M-131.4 126.55 L-131.4 126.7 -131.5 126.7 M-19.25 124.65 L-18.7 123.6 -18.6 122.1 -19.35 120.6 -20.3 120.4 -21.15 120.8 -21.7 121.15 M-21.15 120.8 L-36.05 111.35 -36.5 111.15 -36.4 111.1 -45.35 104.85 M-8.35 131.8 L-9.2 131.8 M-10.45 130.6 L-10.5 130.5 Q-9.55 129.55 -8.7 126.9 L-8.9 125.7 -9.55 124.85 -10.7 124.35 -12.35 124.35 -16.05 125.7 -16.9 125.7 -19.0 124.85 -19.25 124.65 -19.65 125.7 M-10.45 130.6 L-10.85 131.15 M-44.1 116.8 L-44.05 116.75 -42.45 118.25 Q-26.8 137.2 -15.1 141.25 -4.55 143.75 5.55 136.3 8.25 130.2 -10.0 131.4 L-10.45 130.6 M0.9 94.25 L-0.2 92.5" fill="none" stroke="#000000" stroke-linecap="round" stroke-linejoin="round" stroke-width="0.05"/>
  </g>
</svg>
