<?xml version="1.0" encoding="UTF-8" standalone="no"?>
<svg xmlns:xlink="http://www.w3.org/1999/xlink" height="94.6px" width="165.45px" xmlns="http://www.w3.org/2000/svg">
  <g transform="matrix(1.0, 0.0, 0.0, 1.0, 150.35, -53.45)">
    <path d="M4.0 84.3 L4.2 84.7 2.8 85.35 Q-1.15 87.7 0.9 93.9 L0.95 94.55 1.0 94.8 3.15 97.95 3.15 98.35 2.8 98.45 -1.55 94.5 -1.7 93.45 -9.45 71.15 -9.45 68.6 -9.45 68.2 -9.45 66.15 -9.45 65.85 -9.45 65.2 -9.4 64.15 -9.4 63.95 -9.35 63.3 -9.15 62.65 -9.15 62.35 -8.9 61.8 -9.05 61.2 -9.2 60.85 -9.05 61.2 -8.9 61.8 -9.15 62.35 -9.15 62.65 -9.35 63.3 -9.25 61.55 -9.2 60.85 -9.05 60.1 Q-8.3 56.05 -6.15 63.4 L-0.2 78.4 1.5 81.4 4.0 84.3 M-8.7 59.8 L-8.8 60.4 -8.8 60.45 -9.05 60.1 -8.8 60.45 -8.8 60.4 -8.7 59.8 M-8.5 66.0 L-8.8 60.45 -8.5 66.0 M-8.5 66.7 L-8.5 66.25 -8.5 66.7 M-9.15 62.35 L-9.15 62.25 -9.25 61.55 -9.15 62.25 -9.15 62.35 M-2.55 87.05 L-2.55 86.5 -2.55 87.05 M-1.75 89.3 L-1.75 88.85 -1.75 89.3 M-0.5 92.05 L-0.6 91.85 -0.5 92.05 M-1.05 91.1 L-1.1 90.55 -1.05 91.1 M-136.55 63.5 L-136.55 63.4 -136.1 63.1 -135.55 63.4 -135.5 63.5 -133.65 67.45 Q-131.2 73.7 -130.45 79.2 L-129.3 81.95 -129.3 82.25 -129.15 82.25 -129.15 81.95 -129.15 82.25 -129.3 82.25 -129.3 81.95 -129.15 81.95 Q-130.4 71.2 -124.15 74.35 L-118.95 75.85 Q-117.25 76.35 -117.45 77.7 -117.6 78.5 -118.5 79.7 L-118.65 79.7 -119.9 79.7 -121.85 78.85 -126.15 76.5 -126.95 76.4 -126.5 83.75 Q-126.35 85.55 -127.65 86.95 -129.9 88.6 -132.7 85.8 L-133.75 83.95 -135.05 76.85 -135.15 76.2 -135.35 75.2 -135.45 74.2 -136.45 66.3 -136.5 66.2 -136.5 65.1 -136.4 64.7 -136.55 63.5 -136.4 64.7 -136.5 65.1 -136.5 66.2 -136.6 65.2 -136.6 64.6 -136.55 63.5 M-133.65 72.25 L-134.8 71.95 -135.25 72.35 -135.25 72.9 -135.45 74.2 -135.25 72.9 -135.25 72.35 -134.8 71.95 -133.65 72.25 M-136.5 65.1 L-136.55 65.1 -136.6 64.6 -136.55 65.1 -136.5 65.1 M-147.9 79.6 L-148.35 78.2 -148.25 77.5 Q-148.25 76.6 -145.7 79.2 L-140.85 85.35 Q-135.75 93.3 -133.2 94.2 L-131.95 93.65 -127.8 87.15 -126.6 86.2 -124.7 85.8 -119.8 86.5 -116.35 87.3 -115.2 87.6 -114.45 88.85 -114.8 89.85 -115.65 91.1 -115.75 91.15 -116.6 91.35 -119.9 90.45 -121.85 89.9 -124.6 88.85 -125.25 89.0 Q-128.0 95.3 -130.8 98.0 L-131.85 98.8 -134.8 99.1 Q-135.45 101.4 -147.6 87.7 L-147.7 87.05 -147.2 86.5 -146.4 86.5 -146.6 86.0 -150.35 79.4 -150.35 78.65 -149.6 78.55 -147.9 79.6 -144.9 82.05 -147.9 79.6 M-145.35 86.5 L-146.4 86.5 -145.35 86.5 M-135.25 74.35 L-135.25 72.9 -135.25 74.35 -135.1 75.0 -135.05 76.85 -135.1 75.0 -135.15 76.2 -135.1 75.0 -135.25 74.35 -135.35 75.2 -135.25 74.35 M-128.85 84.7 L-129.1 82.35 -129.3 82.25 -129.1 82.35 -128.85 84.7 M-0.2 92.7 L0.95 94.55 -0.2 92.7" fill="#fa410f" fill-rule="evenodd" stroke="none"/>
    <path d="M4.2 84.7 L4.0 84.3 5.25 84.15 4.2 84.7 M0.9 93.9 L2.8 95.8 3.8 96.3 Q11.25 100.35 13.45 96.3 L14.65 94.6 Q15.3 109.95 1.3 114.2 L-2.2 114.75 -6.0 114.4 Q-7.65 114.5 -17.3 109.95 L-25.6 108.8 -31.35 109.3 -34.55 110.3 -36.65 111.35 -36.7 111.35 -19.65 122.65 Q-14.65 123.35 -15.3 123.7 L-14.65 124.55 -14.65 125.85 -15.8 127.35 -16.7 127.85 -16.15 128.4 -13.6 129.35 Q-4.1 129.6 -4.45 130.8 -2.15 134.1 -7.75 136.55 14.05 141.05 9.55 145.45 -5.55 149.5 -16.6 144.45 -24.65 141.35 -43.1 118.25 L-44.3 117.2 -46.65 118.9 Q-57.1 123.6 -69.2 130.75 L-76.25 133.4 Q-83.95 135.9 -88.05 136.5 -104.25 140.2 -127.65 130.75 L-128.3 131.4 -129.7 137.55 -132.05 141.6 -136.1 146.15 Q-139.35 148.45 -140.65 148.0 L-141.65 147.65 -142.8 146.7 -143.65 144.45 -143.75 144.45 -145.15 144.35 -146.2 143.95 -147.4 142.9 -147.9 141.8 -147.9 140.1 -147.05 138.05 Q-146.6 136.9 -143.75 134.45 L-143.8 134.4 -144.7 132.75 -144.7 131.15 -143.2 129.05 Q-140.15 125.9 -131.5 126.7 L-131.45 127.0 -131.5 126.6 -131.45 127.0 -131.3 127.95 -131.45 127.0 -131.5 126.7 -131.5 126.6 -131.5 126.5 Q-132.35 113.75 -131.05 109.45 L-128.2 101.75 -121.85 89.9 -119.9 90.45 -116.6 91.35 -115.75 91.15 -115.65 91.1 -114.8 89.85 -114.45 88.85 -115.2 87.6 -116.35 87.3 -119.8 86.5 -118.0 83.55 -117.65 82.4 -121.85 83.85 -122.9 83.75 -122.7 82.45 -123.55 80.9 -123.4 80.1 -121.85 78.85 -119.9 79.7 -118.65 79.7 -118.5 79.7 Q-117.6 78.5 -117.45 77.7 -117.25 76.35 -118.95 75.85 -116.55 69.15 -114.8 74.35 L-113.4 76.95 -113.05 76.75 -112.95 76.75 -112.75 76.65 -106.05 69.25 Q-101.6 64.95 -95.0 60.45 L-94.75 60.2 -94.65 60.2 -94.55 60.1 -94.35 60.0 -94.2 59.9 Q-81.85 49.55 -66.5 55.85 -57.55 58.25 -49.6 67.15 -46.65 69.0 -35.1 91.95 L-32.85 94.3 -30.95 95.45 Q-29.1 96.5 -25.3 96.75 L-21.8 96.0 -18.15 93.75 Q-14.25 89.45 -12.0 88.75 L-11.9 90.05 -11.35 90.55 -7.75 91.65 -1.55 94.5 2.8 98.45 3.15 98.35 3.15 97.95 1.0 94.8 0.95 94.55 0.9 93.9 M-109.9 74.05 L-110.9 74.85 -111.45 75.35 -112.15 76.1 -112.45 76.5 -112.75 76.65 -112.45 76.5 -112.15 76.1 -111.45 75.35 -110.9 74.85 -109.9 74.05 M-115.75 80.35 L-115.45 79.9 -115.75 80.35 M-116.1 74.7 L-117.45 77.7 -116.1 74.7 M-114.45 88.85 L-113.2 86.0 -114.45 88.85 M-112.15 76.1 L-110.9 74.85 -112.15 76.1 M-118.65 93.75 L-118.3 93.65 -115.75 91.15 -118.3 93.65 -118.65 93.75 M-114.05 94.1 Q-122.35 97.0 -120.0 94.2 L-121.0 91.85 -120.75 91.2 -119.9 90.45 -120.75 91.2 -121.0 91.85 -120.0 94.2 Q-122.35 97.0 -114.05 94.1 M-121.7 82.45 L-119.7 80.95 -118.65 79.7 -119.7 80.95 -121.7 82.45 M-116.35 87.3 L-115.45 85.35 Q-114.35 81.8 -113.4 83.0 L-111.7 85.35 -110.75 87.5 -111.7 85.35 -113.4 83.0 Q-114.35 81.8 -115.45 85.35 L-116.35 87.3 M-138.95 129.25 L-139.3 129.95 -143.8 134.4 -139.3 129.95 -138.95 129.25 M-138.65 132.85 L-138.95 133.8 -143.0 140.2 -143.65 142.05 -143.75 144.45 -143.65 142.05 -143.0 140.2 -138.95 133.8 -138.65 132.85 M-128.45 130.3 L-128.0 130.4 -128.45 130.3 M-48.2 114.4 L-46.5 115.25 -44.3 117.2 -46.5 115.25 -48.2 114.4 M-8.9 136.8 L-8.05 136.35 -8.9 136.8 M-17.0 127.95 L-17.95 128.9 -17.0 127.95 M-45.2 104.95 L-36.65 111.35 -45.2 104.95" fill="#ffffff" fill-rule="evenodd" stroke="none"/>
    <path d="M4.0 84.3 L1.5 81.4 -0.2 78.4 Q4.6 77.35 7.25 80.55 L6.55 80.55 6.95 81.85 8.05 82.9 8.55 82.6 9.2 84.15 11.75 85.35 13.0 86.65 12.7 86.5 12.3 86.65 12.5 87.8 13.45 88.85 14.0 89.05 14.2 88.45 Q15.7 90.2 14.65 94.6 L13.45 96.3 Q11.25 100.35 3.8 96.3 L2.8 95.8 0.9 93.9 Q-1.15 87.7 2.8 85.35 L4.2 84.7 5.25 84.15 4.0 84.3 M5.25 84.15 L7.6 83.95 9.2 84.15 7.6 83.95 5.25 84.15" fill="#ff7a16" fill-rule="evenodd" stroke="none"/>
    <path d="M14.2 88.45 L14.0 89.05 13.45 88.85 12.5 87.8 12.3 86.65 12.7 86.5 13.0 86.65 14.2 88.45 M8.55 82.6 L8.05 82.9 6.95 81.85 6.55 80.55 7.25 80.55 8.55 82.6" fill="#000000" fill-rule="evenodd" stroke="none"/>
    <path d="M-1.55 94.5 L-7.75 91.65 -11.35 90.55 -11.9 90.05 -12.0 88.75 Q-10.5 69.0 -9.45 71.15 L-1.7 93.45 -1.55 94.5" fill="#fa420e" fill-rule="evenodd" stroke="none"/>
    <path d="M4.2 84.7 L4.0 84.3 1.5 81.4 -0.2 78.4 -6.15 63.4 Q-8.3 56.05 -9.05 60.1 L-8.8 60.45 -8.8 60.4 -8.7 59.8 M4.2 84.7 L2.8 85.35 Q-1.15 87.7 0.9 93.9 L2.8 95.8 3.8 96.3 Q11.25 100.35 13.45 96.3 L14.65 94.6 Q15.7 90.2 14.2 88.45 L14.0 89.05 13.45 88.85 12.5 87.8 12.3 86.65 12.7 86.5 13.0 86.65 11.75 85.35 9.2 84.15 7.6 83.95 5.25 84.15 4.2 84.7 M9.2 84.15 L8.55 82.6 8.05 82.9 6.95 81.85 6.55 80.55 7.25 80.55 Q4.6 77.35 -0.2 78.4 M8.55 82.6 L7.25 80.55 M4.0 84.3 L5.25 84.15 M0.9 93.9 L0.95 94.55 1.0 94.8 3.15 97.95 3.15 98.35 2.8 98.45 -1.55 94.5 -7.75 91.65 -11.35 90.55 -11.9 90.05 -12.0 88.75 Q-14.25 89.45 -18.15 93.75 L-21.8 96.0 -25.3 96.75 Q-29.1 96.5 -30.95 95.45 L-32.85 94.3 -35.1 91.95 Q-46.65 69.0 -49.6 67.15 -57.55 58.25 -66.5 55.85 -81.85 49.55 -94.2 59.9 L-94.35 60.0 -94.55 60.1 -94.65 60.2 -94.75 60.2 -95.0 60.45 Q-101.6 64.95 -106.05 69.25 L-112.75 76.65 -112.45 76.5 -112.15 76.1 -111.45 75.35 -110.9 74.85 -109.9 74.05 M14.2 88.45 L13.0 86.65 M-36.65 111.35 L-34.55 110.3 -31.35 109.3 -25.6 108.8 -17.3 109.95 Q-7.65 114.5 -6.0 114.4 L-2.2 114.75 1.3 114.2 Q15.3 109.95 14.65 94.6 M-9.05 60.1 L-9.2 60.85 -9.05 61.2 -8.9 61.8 -9.15 62.35 -9.15 62.65 -9.35 63.3 -9.4 63.95 -9.4 64.15 -9.45 65.2 -9.45 65.85 -9.45 66.15 -9.45 68.2 -9.45 68.6 -9.45 71.15 -1.7 93.45 -1.55 94.5 M-9.2 60.85 L-9.25 61.55 -9.15 62.25 -9.15 62.35 M-8.5 66.25 L-8.5 66.7 M-8.8 60.45 L-8.5 66.0 M-9.25 61.55 L-9.35 63.3 M-1.1 90.55 L-1.05 91.1 M-0.6 91.85 L-0.5 92.05 M-1.75 88.85 L-1.75 89.3 M-2.55 86.5 L-2.55 87.05 M-9.45 71.15 Q-10.5 69.0 -12.0 88.75 M-129.3 81.95 L-130.45 79.2 Q-131.2 73.7 -133.65 67.45 L-135.5 63.5 -135.55 63.4 -136.1 63.1 -136.55 63.4 -136.55 63.5 -136.4 64.7 -136.5 65.1 -136.5 66.2 -136.45 66.3 -135.45 74.2 -135.25 72.9 -135.25 72.35 -134.8 71.95 -133.65 72.25 M-136.55 63.5 L-136.6 64.6 -136.55 65.1 -136.5 65.1 M-136.6 64.6 L-136.6 65.2 -136.5 66.2 M-119.8 86.5 L-124.7 85.8 -126.6 86.2 -127.8 87.15 -131.95 93.65 -133.2 94.2 Q-135.75 93.3 -140.85 85.35 L-145.7 79.2 Q-148.25 76.6 -148.25 77.5 L-148.35 78.2 -147.9 79.6 -144.9 82.05 M-147.9 79.6 L-149.6 78.55 -150.35 78.65 -150.35 79.4 -146.6 86.0 -146.4 86.5 -145.35 86.5 M-146.4 86.5 L-147.2 86.5 -147.7 87.05 -147.6 87.7 Q-135.45 101.4 -134.8 99.1 L-131.85 98.8 -130.8 98.0 Q-128.0 95.3 -125.25 89.0 L-124.6 88.85 -121.85 89.9 -119.9 90.45 -116.6 91.35 -115.75 91.15 -115.65 91.1 -114.8 89.85 -114.45 88.85 -115.2 87.6 -116.35 87.3 -119.8 86.5 -118.0 83.55 -117.65 82.4 -121.85 83.85 -122.9 83.75 -122.7 82.45 -123.55 80.9 -123.4 80.1 -121.85 78.85 -126.15 76.5 -126.95 76.4 -126.5 83.75 Q-126.35 85.55 -127.65 86.95 -129.9 88.6 -132.7 85.8 L-133.75 83.95 -135.05 76.85 -135.15 76.2 -135.35 75.2 -135.45 74.2 M-129.3 81.95 L-129.3 82.25 -129.15 82.25 -129.15 81.95 -129.3 81.95 M-129.3 82.25 L-129.1 82.35 -128.85 84.7 M-135.05 76.85 L-135.1 75.0 -135.15 76.2 M-135.1 75.0 L-135.25 74.35 -135.35 75.2 M-135.25 72.9 L-135.25 74.35 M-118.95 75.85 L-124.15 74.35 Q-130.4 71.2 -129.15 81.95 M-112.75 76.65 L-112.95 76.75 -113.05 76.75 -113.4 76.95 -114.8 74.35 Q-116.55 69.15 -118.95 75.85 -117.25 76.35 -117.45 77.7 L-116.1 74.7 M-115.45 79.9 L-115.75 80.35 M-121.85 78.85 L-119.9 79.7 -118.65 79.7 -118.5 79.7 Q-117.6 78.5 -117.45 77.7 M-110.75 87.5 L-111.7 85.35 -113.4 83.0 Q-114.35 81.8 -115.45 85.35 L-116.35 87.3 M-118.65 79.7 L-119.7 80.95 -121.7 82.45 M-119.9 90.45 L-120.75 91.2 -121.0 91.85 -120.0 94.2 Q-122.35 97.0 -114.05 94.1 M-115.75 91.15 L-118.3 93.65 -118.65 93.75 M-110.9 74.85 L-112.15 76.1 M-113.2 86.0 L-114.45 88.85 M-121.85 89.9 L-128.2 101.75 -131.05 109.45 Q-132.35 113.75 -131.5 126.5 L-131.5 126.6 -131.45 127.0 -131.3 127.95 M-131.5 126.7 Q-140.15 125.9 -143.2 129.05 L-144.7 131.15 -144.7 132.75 -143.8 134.4 -139.3 129.95 -138.95 129.25 M-143.8 134.4 L-143.75 134.45 Q-146.6 136.9 -147.05 138.05 L-147.9 140.1 -147.9 141.8 -147.4 142.9 -146.2 143.95 -145.15 144.35 -143.75 144.45 -143.65 142.05 -143.0 140.2 -138.95 133.8 -138.65 132.85 M-143.75 144.45 L-143.65 144.45 -142.8 146.7 -141.65 147.65 -140.65 148.0 Q-139.35 148.45 -136.1 146.15 L-132.05 141.6 -129.7 137.55 -128.3 131.4 -127.65 130.75 Q-104.25 140.2 -88.05 136.5 -83.95 135.9 -76.25 133.4 L-69.2 130.75 Q-57.1 123.6 -46.65 118.9 L-44.3 117.2 -46.5 115.25 -48.2 114.4 M-128.0 130.4 L-128.45 130.3 M-131.5 126.7 L-131.45 127.0 M-131.5 126.6 L-131.5 126.7 M-44.3 117.2 L-43.1 118.25 Q-24.65 141.35 -16.6 144.45 -5.55 149.5 9.55 145.45 14.05 141.05 -7.75 136.55 -2.15 134.1 -4.45 130.8 -4.1 129.6 -13.6 129.35 L-16.15 128.4 -16.7 127.85 -15.8 127.35 -14.65 125.85 -14.65 124.55 -15.3 123.7 Q-14.65 123.35 -19.65 122.65 L-36.7 111.35 -36.65 111.35 -45.2 104.95 M-17.95 128.9 L-17.0 127.95 M-8.05 136.35 L-8.9 136.8 M0.95 94.55 L-0.2 92.7" fill="none" stroke="#000000" stroke-linecap="round" stroke-linejoin="round" stroke-width="0.05"/>
  </g>
</svg>
