<?xml version="1.0" encoding="UTF-8" standalone="no"?>
<svg xmlns:xlink="http://www.w3.org/1999/xlink" height="98.6px" width="167.3px" xmlns="http://www.w3.org/2000/svg">
  <g transform="matrix(1.0, 0.0, 0.0, 1.0, 150.45, -55.95)">
    <path d="M1.85 82.4 L5.7 82.45 Q9.1 84.05 8.7 84.4 L8.45 84.6 9.95 86.2 10.8 87.6 10.8 88.2 7.6 88.15 10.8 88.2 13.35 89.3 14.85 90.75 14.3 90.55 14.0 90.75 14.45 92.05 15.3 93.05 15.8 93.1 16.0 92.6 Q17.6 94.7 16.2 99.0 13.2 106.35 2.3 97.4 L2.05 96.3 Q0.5 91.4 6.0 88.65 L7.6 88.15 5.8 88.2 3.55 85.35 1.85 82.4" fill="#ff7a16" fill-rule="evenodd" stroke="none"/>
    <path d="M9.95 86.2 L8.45 84.6 8.7 84.4 9.75 85.35 9.95 86.2 M16.0 92.6 L15.8 93.1 15.3 93.05 14.45 92.05 14.0 90.75 14.3 90.55 14.85 90.75 16.0 92.6" fill="#000000" fill-rule="evenodd" stroke="none"/>
    <path d="M1.85 82.4 L3.55 85.35 5.8 88.2 6.0 88.65 Q0.5 91.4 2.05 96.3 L2.3 97.4 Q8.05 106.35 0.05 98.15 L-0.4 96.3 -2.4 90.75 -6.15 77.35 -7.3 74.7 -7.05 69.15 -7.05 68.55 -7.05 68.4 -6.95 67.55 -6.85 66.45 -6.75 66.05 -6.75 65.75 -6.65 65.3 -6.65 65.15 -6.55 64.75 -6.5 64.7 -6.45 64.45 -6.35 64.15 -6.15 63.65 Q-5.8 62.95 -5.3 63.4 L-2.95 68.6 1.85 82.4 M1.45 96.3 L1.8 97.4 2.5 98.25 1.8 97.4 1.45 96.3 M0.8 95.25 L0.65 94.6 0.8 95.25 M0.45 94.3 L0.45 93.9 0.45 94.3 M1.3 96.0 L1.0 95.35 1.3 96.0 M-121.9 89.05 L-121.9 89.0 -123.75 87.35 -124.25 87.3 -126.75 92.4 Q-127.65 94.35 -129.6 96.1 L-131.65 96.95 -133.1 96.95 -135.05 96.3 -137.25 94.4 Q-139.3 89.85 -142.7 84.7 L-143.2 83.45 -143.2 82.6 -142.8 82.25 -142.7 82.15 -144.05 78.85 Q-145.45 75.4 -145.25 74.3 L-145.05 73.85 -144.3 74.05 -144.2 74.05 -144.2 73.5 -143.75 73.2 -142.9 73.75 -141.75 75.2 Q-139.1 79.1 -133.85 89.9 L-132.05 92.2 -131.2 92.2 Q-127.35 86.05 -126.15 85.25 L-124.9 84.5 Q-123.5 84.05 -121.0 85.35 L-119.8 85.85 Q-117.85 86.85 -115.95 87.8 -115.65 87.95 -115.3 88.15 -113.9 88.95 -114.35 90.35 L-114.4 90.6 -114.65 91.1 -115.2 91.65 -116.6 92.05 -119.4 90.45 -121.85 89.05 -121.9 89.05 M-121.5 78.95 L-125.75 74.7 Q-124.2 90.7 -131.85 82.7 L-132.35 80.55 -132.25 62.35 -131.7 60.5 -131.05 60.9 -131.0 60.95 -130.35 60.5 -129.9 60.95 -129.3 63.4 -128.2 70.95 -128.2 75.6 Q-127.4 70.3 -121.7 74.35 L-118.65 76.3 -117.15 78.0 -117.2 78.6 -117.25 78.75 -118.1 80.05 -118.3 80.1 -119.5 80.35 -121.5 78.95 M-6.0 69.8 L-6.15 63.65 -6.0 69.8 M-6.0 70.25 L-6.0 70.75 -5.95 71.15 -6.0 70.75 -6.0 70.25 M-7.05 68.4 L-6.8 68.0 -6.95 67.55 -6.8 68.0 -7.05 68.4 M-128.1 76.05 L-128.2 75.6 -128.1 76.05 M-127.8 82.9 L-127.65 80.45 -128.1 76.5 -127.65 80.45 -127.8 82.9 M-130.8 70.1 L-130.2 69.25 -129.5 69.25 -128.85 70.25 -129.5 69.25 -130.2 69.25 -130.8 70.1 M-131.85 68.3 L-131.5 63.4 -131.0 61.25 -131.05 60.9 -131.0 61.25 -131.5 63.4 -131.85 68.3 M-0.25 92.05 L-0.25 91.65 -0.25 92.05 M-0.05 92.8 L-0.05 92.4 -0.05 92.8 M-0.85 90.15 L-0.9 89.7 -0.9 89.3 -0.9 89.7 -0.85 90.15 M-141.1 82.6 L-142.8 82.25 -141.1 82.6 M-140.55 78.75 L-144.0 74.35 -144.3 74.05 -144.0 74.35 -140.55 78.75 M-121.9 89.0 L-121.85 89.05 -121.9 89.0" fill="#fa410f" fill-rule="evenodd" stroke="none"/>
    <path d="M5.8 88.2 L7.6 88.15 6.0 88.65 5.8 88.2 M16.2 99.0 Q16.05 113.45 2.9 117.3 L-1.9 117.95 -4.85 117.6 Q-7.0 117.6 -17.25 112.5 L-25.6 111.15 -30.75 111.45 -36.2 113.15 -36.4 113.4 -36.5 113.5 -36.0 113.9 -18.3 126.35 -13.4 128.05 -12.4 128.7 -11.8 129.95 -12.0 131.05 Q-12.15 131.7 -15.1 132.65 L-14.75 132.95 -11.7 134.45 Q-3.25 135.8 -1.7 137.65 1.25 141.05 -6.25 142.75 11.65 148.8 11.65 152.75 4.95 157.45 -15.55 149.8 -27.25 142.5 -39.8 123.9 L-39.9 123.8 -44.3 119.1 Q-72.45 134.45 -75.7 134.45 L-78.8 135.4 -89.55 137.65 Q-105.5 141.1 -128.85 131.05 -132.35 144.45 -143.15 147.25 -145.8 146.45 -145.9 143.2 L-147.2 143.2 -149.3 142.35 -150.15 141.25 -150.45 138.7 -149.2 136.5 -145.9 133.7 -145.95 133.6 -146.75 132.0 -146.75 130.3 -145.35 128.4 Q-141.85 125.25 -132.8 126.9 L-132.7 126.6 -132.35 125.7 -132.7 114.0 -132.05 109.75 -129.8 103.45 Q-126.1 95.5 -121.9 89.05 L-121.85 89.05 -119.4 90.45 -116.6 92.05 -115.2 91.65 -114.65 91.1 -114.4 90.6 -114.35 90.35 Q-113.9 88.95 -115.3 88.15 -115.65 87.95 -115.95 87.8 L-113.75 84.3 -112.95 84.3 -112.05 85.35 -110.4 89.5 -112.05 85.35 -112.95 84.3 -113.75 84.3 -115.95 87.8 Q-117.85 86.85 -119.8 85.85 L-118.1 83.45 -118.4 83.1 -122.45 84.3 -123.4 84.1 -123.2 82.9 -124.05 81.3 -123.85 80.35 -121.5 78.95 -119.5 80.35 -118.3 80.1 -118.1 80.05 -117.25 78.75 -117.2 78.6 -117.15 78.0 -118.65 76.3 -116.7 73.3 -115.95 73.3 -115.1 74.35 -113.6 77.9 -113.1 78.35 Q-104.8 68.2 -86.25 57.95 L-81.15 56.25 -75.6 55.95 Q-54.35 58.4 -44.8 74.35 L-41.75 79.6 Q-38.2 87.75 -34.7 93.55 L-32.0 96.65 -29.8 98.0 Q-24.45 100.15 -20.4 98.45 L-17.45 96.75 Q-13.0 92.4 -10.65 91.85 L-10.5 93.35 -10.0 93.75 -8.8 93.95 0.05 98.15 Q8.05 106.35 2.3 97.4 13.2 106.35 16.2 99.0 M-112.7 78.15 L-113.1 78.35 -113.25 78.4 -112.65 78.4 -112.7 78.15 -112.25 78.0 -110.6 76.7 -112.25 78.0 -112.7 78.15 -112.65 78.4 -113.25 78.4 -113.1 78.35 -112.7 78.15 M-115.85 76.2 L-115.95 76.7 -117.2 78.6 -115.95 76.7 -115.85 76.2 M-121.25 82.45 L-119.15 81.1 -118.3 80.1 -119.15 81.1 -121.25 82.45 M-118.3 94.2 L-116.3 92.8 -115.2 91.65 -116.3 92.8 -118.3 94.2 M-112.9 87.7 L-113.05 88.3 -114.35 90.35 -113.05 88.3 -112.9 87.7 M-114.45 95.35 L-118.2 96.1 -120.65 96.1 Q-120.3 94.95 -121.4 91.95 L-119.4 90.45 -121.4 91.95 Q-120.3 94.95 -120.65 96.1 L-118.2 96.1 -114.45 95.35 M-47.8 116.45 L-45.15 118.25 -44.3 119.1 -45.15 118.25 -47.8 116.45 M-6.6 142.45 L-8.5 142.95 -6.6 142.45 M-16.8 133.15 L-15.1 132.65 -16.8 133.15 M-44.5 107.1 L-44.3 107.3 -40.25 110.8 -36.4 113.4 -40.25 110.8 -44.3 107.3 -44.5 107.1 M-132.35 128.2 L-132.4 127.25 -132.7 126.6 -132.4 127.25 -132.35 128.2 M-131.0 129.55 L-130.65 129.75 -131.0 129.55 M-140.0 132.75 L-144.3 138.3 -145.35 140.2 -145.9 143.2 -145.35 140.2 -144.3 138.3 -140.0 132.75 M-140.35 129.05 L-140.55 129.25 -141.85 130.75 -145.95 133.6 -141.85 130.75 -140.55 129.25 -140.35 129.05" fill="#ffffff" fill-rule="evenodd" stroke="none"/>
    <path d="M-10.65 91.85 L-10.4 89.2 -9.55 85.6 -9.45 85.45 -8.9 79.6 -7.85 74.7 -7.3 74.7 -6.15 77.35 -2.4 90.75 -0.4 96.3 0.05 98.15 -8.8 93.95 -10.0 93.75 -10.5 93.35 -10.65 91.85" fill="#fa420e" fill-rule="evenodd" stroke="none"/>
    <path d="M8.7 84.4 Q9.1 84.05 5.7 82.45 L1.85 82.4 3.55 85.35 5.8 88.2 7.6 88.15 10.8 88.2 10.8 87.6 9.95 86.2 8.45 84.6 8.7 84.4 9.75 85.35 9.95 86.2 M6.0 88.65 L5.8 88.2 M6.0 88.65 L7.6 88.15 M1.0 95.35 L1.3 96.0 M0.45 93.9 L0.45 94.3 M0.65 94.6 L0.8 95.25 M2.5 98.25 L1.8 97.4 1.45 96.3 M2.3 97.4 L2.05 96.3 Q0.5 91.4 6.0 88.65 M14.85 90.75 L13.35 89.3 10.8 88.2 M16.0 92.6 L15.8 93.1 15.3 93.05 14.45 92.05 14.0 90.75 14.3 90.55 14.85 90.75 16.0 92.6 Q17.6 94.7 16.2 99.0 16.05 113.45 2.9 117.3 L-1.9 117.95 -4.85 117.6 Q-7.0 117.6 -17.25 112.5 L-25.6 111.15 -30.75 111.45 -36.2 113.15 -36.4 113.4 -36.5 113.5 -36.0 113.9 -18.3 126.35 -13.4 128.05 -12.4 128.7 -11.8 129.95 -12.0 131.05 Q-12.15 131.7 -15.1 132.65 L-14.75 132.95 -11.7 134.45 Q-3.25 135.8 -1.7 137.65 1.25 141.05 -6.25 142.75 11.65 148.8 11.65 152.75 4.95 157.45 -15.55 149.8 -27.25 142.5 -39.8 123.9 L-39.9 123.8 -44.3 119.1 Q-72.45 134.45 -75.7 134.45 L-78.8 135.4 -89.55 137.65 Q-105.5 141.1 -128.85 131.05 -132.35 144.45 -143.15 147.25 -145.8 146.45 -145.9 143.2 L-147.2 143.2 -149.3 142.35 -150.15 141.25 -150.45 138.7 -149.2 136.5 -145.9 133.7 -145.95 133.6 -146.75 132.0 -146.75 130.3 -145.35 128.4 Q-141.85 125.25 -132.8 126.9 L-132.7 126.6 -132.35 125.7 -132.7 114.0 -132.05 109.75 -129.8 103.45 Q-126.1 95.5 -121.9 89.05 L-121.9 89.0 -123.75 87.35 -124.25 87.3 -126.75 92.4 Q-127.65 94.35 -129.6 96.1 L-131.65 96.95 -133.1 96.95 -135.05 96.3 -137.25 94.4 Q-139.3 89.85 -142.7 84.7 L-143.2 83.45 -143.2 82.6 -142.8 82.25 -142.7 82.15 -144.05 78.85 Q-145.45 75.4 -145.25 74.3 L-145.05 73.85 -144.3 74.05 -144.2 74.05 -144.2 73.5 -143.75 73.2 -142.9 73.75 -141.75 75.2 Q-139.1 79.1 -133.85 89.9 L-132.05 92.2 -131.2 92.2 Q-127.35 86.05 -126.15 85.25 L-124.9 84.5 Q-123.5 84.05 -121.0 85.35 L-119.8 85.85 -118.1 83.45 -118.4 83.1 -122.45 84.3 -123.4 84.1 -123.2 82.9 -124.05 81.3 -123.85 80.35 -121.5 78.95 -125.75 74.7 Q-124.2 90.7 -131.85 82.7 L-132.35 80.55 -132.25 62.35 -131.7 60.5 -131.05 60.9 -131.0 60.95 -130.35 60.5 -129.9 60.95 -129.3 63.4 -128.2 70.95 -128.2 75.6 Q-127.4 70.3 -121.7 74.35 L-118.65 76.3 -116.7 73.3 -115.95 73.3 -115.1 74.35 -113.6 77.9 -113.1 78.35 Q-104.8 68.2 -86.25 57.95 L-81.15 56.25 -75.6 55.95 Q-54.35 58.4 -44.8 74.35 L-41.75 79.6 Q-38.2 87.75 -34.7 93.55 L-32.0 96.65 -29.8 98.0 Q-24.45 100.15 -20.4 98.45 L-17.45 96.75 Q-13.0 92.4 -10.65 91.85 L-10.4 89.2 -9.55 85.6 -9.45 85.45 -8.9 79.6 -7.85 74.7 -7.3 74.7 -7.05 69.15 -7.05 68.55 -7.05 68.4 -6.95 67.55 -6.85 66.45 -6.75 66.05 -6.75 65.75 -6.65 65.3 -6.65 65.15 -6.55 64.75 -6.45 64.45 -6.35 64.15 -6.15 63.65 Q-5.8 62.95 -5.3 63.4 L-2.95 68.6 1.85 82.4 M2.3 97.4 Q8.05 106.35 0.05 98.15 L-8.8 93.95 -10.0 93.75 -10.5 93.35 -10.65 91.85 M16.2 99.0 Q13.2 106.35 2.3 97.4 M-6.45 64.45 L-6.5 64.7 -6.55 64.75 M-6.95 67.55 L-6.8 68.0 -7.05 68.4 M-5.95 71.15 L-6.0 70.75 -6.0 70.25 M-6.15 63.65 L-6.0 69.8 M-7.3 74.7 L-6.15 77.35 -2.4 90.75 -0.4 96.3 0.05 98.15 M-0.9 89.3 L-0.9 89.7 -0.85 90.15 M-0.05 92.4 L-0.05 92.8 M-0.25 91.65 L-0.25 92.05 M-131.05 60.9 L-131.0 61.25 -131.5 63.4 -131.85 68.3 M-128.85 70.25 L-129.5 69.25 -130.2 69.25 -130.8 70.1 M-128.1 76.5 L-127.65 80.45 -127.8 82.9 M-128.2 75.6 L-128.1 76.05 M-121.9 89.05 L-121.85 89.05 -121.9 89.0 M-144.3 74.05 L-144.0 74.35 -140.55 78.75 M-142.8 82.25 L-141.1 82.6 M-117.2 78.6 L-115.95 76.7 -115.85 76.2 M-110.6 76.7 L-112.25 78.0 -112.7 78.15 -112.65 78.4 -113.25 78.4 -113.1 78.35 -112.7 78.15 M-121.5 78.95 L-119.5 80.35 -118.3 80.1 -118.1 80.05 -117.25 78.75 -117.2 78.6 -117.15 78.0 -118.65 76.3 M-118.3 80.1 L-119.15 81.1 -121.25 82.45 M-110.4 89.5 L-112.05 85.35 -112.95 84.3 -113.75 84.3 -115.95 87.8 Q-115.65 87.95 -115.3 88.15 -113.9 88.95 -114.35 90.35 L-113.05 88.3 -112.9 87.7 M-115.2 91.65 L-116.3 92.8 -118.3 94.2 M-121.85 89.05 L-119.4 90.45 -116.6 92.05 -115.2 91.65 -114.65 91.1 -114.4 90.6 -114.35 90.35 M-119.4 90.45 L-121.4 91.95 Q-120.3 94.95 -120.65 96.1 L-118.2 96.1 -114.45 95.35 M-115.95 87.8 Q-117.85 86.85 -119.8 85.85 M-145.95 133.6 L-141.85 130.75 -140.55 129.25 -140.35 129.05 M-145.9 143.2 L-145.35 140.2 -144.3 138.3 -140.0 132.75 M-130.65 129.75 L-131.0 129.55 M-132.7 126.6 L-132.4 127.25 -132.35 128.2 M-36.4 113.4 L-40.25 110.8 -44.3 107.3 -44.5 107.1 M-15.1 132.65 L-16.8 133.15 M-8.5 142.95 L-6.6 142.45 M-44.3 119.1 L-45.15 118.25 -47.8 116.45" fill="none" stroke="#000000" stroke-linecap="round" stroke-linejoin="round" stroke-width="0.05"/>
  </g>
</svg>
