<?xml version="1.0" encoding="UTF-8" standalone="no"?>
<svg xmlns:xlink="http://www.w3.org/1999/xlink" height="104.2px" width="176.25px" xmlns="http://www.w3.org/2000/svg">
  <g transform="matrix(1.0, 0.0, 0.0, 1.0, 155.7, -57.45)">
    <path d="M6.2 90.35 L9.6 91.0 10.6 91.4 13.25 93.9 14.2 96.25 17.0 97.3 18.7 99.0 17.6 98.55 17.5 99.1 17.9 100.05 19.0 101.0 19.4 101.0 19.55 100.25 Q20.7 101.25 20.5 104.6 L19.1 107.75 Q15.15 112.65 8.25 107.3 L7.6 107.1 5.5 104.55 Q4.65 96.9 9.6 96.3 L10.25 96.1 9.6 96.1 8.35 94.5 6.2 90.35 M14.2 96.25 L10.25 96.1 14.2 96.25" fill="#ff7a16" fill-rule="evenodd" stroke="none"/>
    <path d="M-124.9 91.55 Q-131.6 95.5 -133.75 89.05 L-133.95 86.1 -133.35 70.45 -132.9 67.25 -132.35 66.9 -131.7 67.75 -131.65 67.7 -130.85 67.35 -130.45 67.75 -129.8 70.3 -128.95 77.35 -128.85 77.35 -128.0 74.15 -122.55 60.45 -121.2 57.65 -120.55 57.45 -120.35 57.75 -119.9 60.2 -118.1 58.1 -117.45 57.95 -117.25 58.3 -117.45 60.5 -118.95 65.85 -118.95 66.2 -118.2 66.4 -118.3 67.45 Q-118.75 69.6 -122.55 73.85 L-123.6 76.65 -123.55 76.65 Q-117.25 67.5 -116.5 74.35 L-116.3 76.2 -116.15 79.9 -116.4 80.7 -116.5 80.9 -117.8 81.75 Q-120.0 82.75 -120.1 79.6 L-119.5 75.85 -119.7 75.65 -121.25 78.2 -123.6 80.75 -125.0 81.4 -125.25 81.4 Q-127.9 81.65 -128.75 78.4 L-128.75 78.1 -128.75 78.4 -128.85 78.4 -128.5 87.35 -128.1 88.75 -127.15 88.55 -123.4 85.35 Q-117.85 81.45 -116.7 85.35 L-114.65 89.3 -113.8 90.9 -113.6 91.95 -114.35 93.55 Q-116.85 95.65 -118.35 91.8 -119.15 89.8 -119.7 86.2 L-119.75 86.25 -119.35 85.8 -119.75 86.25 -124.9 91.55 M-2.75 81.55 Q-0.3 63.1 1.75 74.35 L6.2 90.35 8.35 94.5 9.6 96.1 9.6 96.3 Q4.65 96.9 5.5 104.55 L5.6 105.0 5.7 105.6 6.75 107.3 Q8.45 111.35 5.05 107.3 L3.0 105.05 -2.0 82.6 -2.75 81.55 M3.55 100.15 L3.35 98.8 3.2 98.45 3.2 98.0 3.0 97.5 3.0 96.85 2.9 96.3 2.6 95.15 2.5 94.6 2.5 93.95 2.5 94.6 2.6 95.15 2.9 96.3 3.0 96.85 3.0 97.5 3.2 98.0 3.2 98.45 3.35 98.8 3.55 100.15 M3.8 100.8 L3.8 100.35 3.8 100.8 M4.2 102.0 L4.05 101.4 4.2 102.0 M-0.85 78.95 L-0.4 72.35 -0.85 78.95 M4.5 102.85 L5.6 105.0 4.5 102.85 M-0.25 71.6 L-0.25 71.1 -0.25 71.6 M-124.8 78.95 L-124.45 78.75 -123.85 77.05 -124.45 78.75 -124.8 78.95 M-132.7 74.3 L-132.8 73.9 -131.65 68.2 -131.65 67.7 -131.65 68.2 -132.8 73.9 -132.7 74.3 M-128.75 78.1 L-128.85 77.7 -128.95 77.7 -128.85 78.1 -128.75 78.1 M-128.85 77.35 L-128.85 77.7 -128.85 77.35 M-128.95 77.35 L-128.95 77.7 -128.95 77.35 M-128.85 78.1 L-128.85 78.4 -128.85 78.1 M-120.0 66.4 L-118.95 66.2 -120.0 66.4 M-131.7 77.15 Q-130.35 74.55 -129.35 77.55 -130.35 74.55 -131.7 77.15 M-119.5 75.45 L-119.05 74.35 -118.2 73.1 -119.05 74.35 -119.5 75.45 M-121.6 62.45 L-119.9 60.2 -121.6 62.45" fill="#fa410f" fill-rule="evenodd" stroke="none"/>
    <path d="M19.1 107.75 Q18.6 118.35 6.4 123.05 -2.4 126.7 -14.25 118.25 -25.7 112.9 -36.45 117.5 L-36.5 117.55 Q-18.05 132.5 -18.1 133.1 L-13.2 135.4 -12.4 136.8 -12.75 137.75 -13.4 138.3 -15.2 138.85 -15.25 139.0 -15.3 139.15 Q-13.25 141.1 -4.95 143.3 L-2.85 144.65 Q0.4 147.85 -7.6 148.95 L-7.65 148.95 Q6.55 154.9 9.6 159.05 L9.95 160.15 9.6 161.0 6.75 161.65 Q-9.3 160.45 -19.55 153.6 -24.9 151.45 -43.85 122.95 L-43.9 123.0 Q-47.2 125.25 -57.8 129.05 L-70.35 135.1 -80.8 138.3 -90.5 139.9 Q-110.2 143.1 -131.2 132.1 -131.6 130.75 -134.7 138.3 L-138.3 142.1 Q-143.8 146.8 -147.8 145.95 -150.15 146.35 -149.95 141.25 -154.7 140.85 -155.35 138.2 -157.15 135.75 -150.15 132.3 L-150.8 131.05 -150.65 128.6 Q-148.65 124.05 -134.7 127.4 L-134.6 127.35 -134.6 127.3 -134.25 125.5 -134.35 124.2 -134.35 123.9 Q-135.05 111.45 -133.95 110.35 -133.1 106.55 -131.05 102.6 L-124.9 91.55 -119.75 86.25 -119.7 86.2 Q-119.15 89.8 -118.35 91.8 -116.85 95.65 -114.35 93.55 L-113.6 91.95 -113.8 90.9 -114.65 89.3 -116.7 85.35 Q-117.85 81.45 -123.4 85.35 L-124.45 85.25 Q-125.4 81.95 -125.25 81.4 L-125.0 81.4 -123.6 80.75 -120.1 79.6 Q-120.0 82.75 -117.8 81.75 L-116.5 80.9 -116.4 80.7 -116.15 79.9 -116.3 76.2 Q-114.65 74.8 -113.2 81.1 -89.65 62.8 -79.85 61.35 L-73.05 60.95 -62.05 63.4 Q-54.85 64.7 -45.85 74.35 -43.1 77.4 -41.15 80.95 L-33.7 96.65 -31.35 100.05 -28.8 102.05 -24.25 103.75 -19.0 103.55 Q-16.6 103.25 -11.15 99.1 L-7.65 97.8 -7.75 99.0 -7.2 99.85 -2.95 101.55 3.0 105.05 5.05 107.3 Q8.45 111.35 6.75 107.3 L5.7 105.6 5.6 105.0 5.5 104.55 7.6 107.1 8.25 107.3 Q15.15 112.65 19.1 107.75 M9.6 96.1 L10.25 96.1 9.6 96.3 9.6 96.1 M-115.75 98.0 L-121.25 97.95 -121.9 97.5 -121.9 96.3 Q-123.2 93.15 -122.35 93.25 L-118.35 91.8 -122.35 93.25 Q-123.2 93.15 -121.9 96.3 L-121.9 97.5 -121.25 97.95 -115.75 98.0 M-111.8 81.2 L-111.45 81.1 -110.95 80.7 -110.6 80.55 -110.95 80.7 -111.45 81.1 -111.8 81.2 M-110.1 94.4 L-110.2 93.55 Q-110.85 84.7 -114.65 89.3 -110.85 84.7 -110.2 93.55 L-110.1 94.4 M-112.35 91.65 L-114.45 93.95 -117.65 95.65 -114.45 93.95 -112.35 91.65 M-116.4 80.7 L-115.45 79.5 -116.4 80.7 M-112.5 81.6 L-113.05 81.7 -113.35 81.5 -113.5 81.1 -113.35 81.5 -113.05 81.7 -112.5 81.6 M-121.4 83.75 L-118.65 82.6 -117.8 81.75 -118.65 82.6 -121.4 83.75 M-36.45 117.5 L-42.9 111.45 -36.45 117.5 M-10.0 149.25 L-7.65 148.95 -10.0 149.25 M-47.15 120.15 L-45.35 121.45 -43.9 123.0 -45.35 121.45 -47.15 120.15 M-17.75 139.45 L-15.25 139.0 -17.75 139.45 M-134.7 127.4 L-134.6 128.25 -134.5 127.85 -134.6 127.3 -134.5 127.85 -134.5 129.05 -134.5 127.85 -134.6 128.25 -134.7 127.4 M-149.95 141.25 L-149.75 140.2 -148.35 137.85 -144.3 134.35 -142.7 132.55 -144.3 134.35 -148.35 137.85 -149.75 140.2 -149.95 141.25 M-150.15 132.3 L-144.05 129.75 -143.55 129.25 -143.0 128.8 -143.55 129.25 -144.05 129.75 -150.15 132.3" fill="#ffffff" fill-rule="evenodd" stroke="none"/>
    <path d="M9.6 91.0 L11.75 91.7 12.0 91.85 Q13.15 92.6 13.25 93.9 L10.6 91.4 9.6 91.0 M18.7 99.0 L19.55 100.25 19.4 101.0 19.0 101.0 17.9 100.05 17.5 99.1 17.6 98.55 18.7 99.0" fill="#000000" fill-rule="evenodd" stroke="none"/>
    <path d="M-7.65 97.8 Q-4.1 82.7 -2.75 81.55 L-2.0 82.6 3.0 105.05 -2.95 101.55 -7.2 99.85 -7.75 99.0 -7.65 97.8" fill="#fa420e" fill-rule="evenodd" stroke="none"/>
    <path d="M6.2 90.35 L9.6 91.0 11.75 91.7 12.0 91.85 Q13.15 92.6 13.25 93.9 L14.2 96.25 17.0 97.3 18.7 99.0 19.55 100.25 Q20.7 101.25 20.5 104.6 L19.1 107.75 Q18.6 118.35 6.4 123.05 -2.4 126.7 -14.25 118.25 -25.7 112.9 -36.45 117.5 L-36.5 117.55 Q-18.05 132.5 -18.1 133.1 L-13.2 135.4 -12.4 136.8 -12.75 137.75 -13.4 138.3 -15.2 138.85 -15.25 139.0 -15.3 139.15 Q-13.25 141.1 -4.95 143.3 L-2.85 144.65 Q0.4 147.85 -7.6 148.95 L-7.65 148.95 Q6.55 154.9 9.6 159.05 L9.95 160.15 9.6 161.0 6.75 161.65 Q-9.3 160.45 -19.55 153.6 -24.9 151.45 -43.85 122.95 L-43.9 123.0 Q-47.2 125.25 -57.8 129.05 L-70.35 135.1 -80.8 138.3 -90.5 139.9 Q-110.2 143.1 -131.2 132.1 -131.6 130.75 -134.7 138.3 L-138.3 142.1 Q-143.8 146.8 -147.8 145.95 -150.15 146.35 -149.95 141.25 -154.7 140.85 -155.35 138.2 -157.15 135.75 -150.15 132.3 L-150.8 131.05 -150.65 128.6 Q-148.65 124.05 -134.7 127.4 L-134.6 127.35 -134.6 127.3 -134.25 125.5 -134.35 124.2 -134.35 123.9 Q-135.05 111.45 -133.95 110.35 -133.1 106.55 -131.05 102.6 L-124.9 91.55 Q-131.6 95.5 -133.75 89.05 L-133.95 86.1 -133.35 70.45 -132.9 67.25 -132.35 66.9 -131.7 67.75 -131.65 67.7 -130.85 67.35 -130.45 67.75 -129.8 70.3 -128.95 77.35 -128.85 77.35 -128.0 74.15 -122.55 60.45 -121.2 57.65 -120.55 57.45 -120.35 57.75 -119.9 60.2 -118.1 58.1 -117.45 57.95 -117.25 58.3 -117.45 60.5 -118.95 65.85 -118.95 66.2 -118.2 66.4 -118.3 67.45 Q-118.75 69.6 -122.55 73.85 L-123.6 76.65 -123.55 76.65 Q-117.25 67.5 -116.5 74.35 L-116.3 76.2 Q-114.65 74.8 -113.2 81.1 -89.65 62.8 -79.85 61.35 L-73.05 60.95 -62.05 63.4 Q-54.85 64.7 -45.85 74.35 -43.1 77.4 -41.15 80.95 L-33.7 96.65 -31.35 100.05 -28.8 102.05 -24.25 103.75 -19.0 103.55 Q-16.6 103.25 -11.15 99.1 L-7.65 97.8 Q-4.1 82.7 -2.75 81.55 -0.3 63.1 1.75 74.35 L6.2 90.35 8.35 94.5 9.6 96.1 10.25 96.1 14.2 96.25 M2.5 93.95 L2.5 94.6 2.6 95.15 2.9 96.3 3.0 96.85 3.0 97.5 3.2 98.0 3.2 98.45 3.35 98.8 3.55 100.15 M9.6 96.3 L9.6 96.1 M19.55 100.25 L19.4 101.0 19.0 101.0 17.9 100.05 17.5 99.1 17.6 98.55 18.7 99.0 M13.25 93.9 L10.6 91.4 9.6 91.0 M10.25 96.1 L9.6 96.3 Q4.65 96.9 5.5 104.55 L7.6 107.1 8.25 107.3 Q15.15 112.65 19.1 107.75 M5.6 105.0 L5.5 104.55 M4.05 101.4 L4.2 102.0 M3.8 100.35 L3.8 100.8 M3.0 105.05 L5.05 107.3 Q8.45 111.35 6.75 107.3 L5.7 105.6 5.6 105.0 4.5 102.85 M-0.4 72.35 L-0.85 78.95 M3.0 105.05 L-2.95 101.55 -7.2 99.85 -7.75 99.0 -7.65 97.8 M-0.25 71.1 L-0.25 71.6 M3.0 105.05 L-2.0 82.6 -2.75 81.55 M-131.65 67.7 L-131.65 68.2 -132.8 73.9 -132.7 74.3 M-123.85 77.05 L-124.45 78.75 -124.8 78.95 M-128.75 78.1 L-128.85 77.7 -128.95 77.7 -128.85 78.1 -128.75 78.1 -128.75 78.4 Q-127.9 81.65 -125.25 81.4 L-125.0 81.4 -123.6 80.75 -121.25 78.2 -119.7 75.65 -119.5 75.85 -120.1 79.6 Q-120.0 82.75 -117.8 81.75 L-116.5 80.9 -116.4 80.7 -116.15 79.9 -116.3 76.2 M-128.95 77.7 L-128.95 77.35 M-128.85 77.7 L-128.85 77.35 M-128.75 78.4 L-128.85 78.4 -128.5 87.35 -128.1 88.75 -127.15 88.55 -123.4 85.35 -124.45 85.25 Q-125.4 81.95 -125.25 81.4 M-128.85 78.4 L-128.85 78.1 M-118.35 91.8 L-122.35 93.25 Q-123.2 93.15 -121.9 96.3 L-121.9 97.5 -121.25 97.95 -115.75 98.0 M-129.35 77.55 Q-130.35 74.55 -131.7 77.15 M-118.95 66.2 L-120.0 66.4 M-110.6 80.55 L-110.95 80.7 -111.45 81.1 -111.8 81.2 M-118.2 73.1 L-119.05 74.35 -119.5 75.45 M-119.35 85.8 L-119.75 86.25 -119.7 86.2 Q-119.15 89.8 -118.35 91.8 -116.85 95.65 -114.35 93.55 L-113.6 91.95 -113.8 90.9 -114.65 89.3 -116.7 85.35 Q-117.85 81.45 -123.4 85.35 M-117.8 81.75 L-118.65 82.6 -121.4 83.75 M-113.5 81.1 L-113.35 81.5 -113.05 81.7 -112.5 81.6 M-115.45 79.5 L-116.4 80.7 M-117.65 95.65 L-114.45 93.95 -112.35 91.65 M-114.65 89.3 Q-110.85 84.7 -110.2 93.55 L-110.1 94.4 M-119.9 60.2 L-121.6 62.45 M-123.6 80.75 L-120.1 79.6 M-119.75 86.25 L-124.9 91.55 M-143.0 128.8 L-143.55 129.25 -144.05 129.75 -150.15 132.3 M-142.7 132.55 L-144.3 134.35 -148.35 137.85 -149.75 140.2 -149.95 141.25 M-134.6 127.3 L-134.5 127.85 -134.5 129.05 M-134.5 127.85 L-134.6 128.25 -134.7 127.4 M-15.25 139.0 L-17.75 139.45 M-43.9 123.0 L-45.35 121.45 -47.15 120.15 M-7.65 148.95 L-10.0 149.25 M-42.9 111.45 L-36.45 117.5" fill="none" stroke="#000000" stroke-linecap="round" stroke-linejoin="round" stroke-width="0.05"/>
  </g>
</svg>
