<?xml version="1.0" encoding="UTF-8" standalone="no"?>
<svg xmlns:xlink="http://www.w3.org/1999/xlink" height="109.1px" width="183.4px" xmlns="http://www.w3.org/2000/svg">
  <g transform="matrix(1.0, 0.0, 0.0, 1.0, 159.65, -57.1)">
    <path d="M5.55 82.25 L5.55 81.85 5.8 80.75 5.8 80.55 5.9 80.25 5.8 80.55 5.8 80.75 5.55 81.85 5.55 82.25 M5.8 111.85 L4.5 103.05 3.35 89.85 3.0 89.0 2.3 88.55 Q7.2 69.25 8.55 85.35 L10.45 98.45 10.7 99.0 12.95 104.1 9.95 105.45 8.55 107.3 8.05 109.85 8.25 111.55 8.25 111.65 8.35 112.0 8.35 112.1 Q12.15 120.95 5.8 111.85 M6.2 97.95 L6.2 97.5 6.1 97.1 6.2 97.5 6.2 97.95 M6.35 98.8 L6.4 99.85 6.55 100.35 6.65 101.65 6.85 105.6 7.05 106.9 7.05 107.3 8.25 111.55 7.05 107.3 7.05 106.9 6.85 105.6 6.65 101.65 6.55 100.35 6.4 99.85 6.35 98.8 M-124.6 89.5 Q-132.95 89.55 -124.9 76.05 -126.15 72.9 -122.05 69.6 L-121.9 69.45 -119.25 64.15 -118.65 64.05 -118.4 64.5 -118.2 65.55 -110.75 57.55 -109.75 57.1 -109.35 57.75 -110.3 61.1 -109.9 60.95 Q-100.55 55.45 -107.65 63.4 L-109.15 65.55 -107.15 65.85 -106.9 66.6 -110.0 68.85 -116.15 71.5 -116.7 72.9 -116.65 72.9 -115.65 73.3 -115.95 75.0 Q-105.25 74.8 -113.5 81.4 -113.9 81.15 -116.5 83.35 L-116.85 83.65 -117.35 84.1 -117.55 84.05 -118.85 83.95 -119.35 83.25 -118.95 82.05 -116.8 79.8 -116.6 79.6 -116.5 79.5 -116.35 79.5 -116.15 79.25 -112.75 77.15 -111.7 77.05 -112.75 77.15 -117.85 77.9 -121.4 81.6 -123.0 84.1 -123.3 85.35 -123.0 85.85 -114.6 85.15 -112.95 85.35 -111.7 86.3 -111.4 88.45 -111.85 90.9 -112.45 94.4 -112.9 95.45 -114.15 96.3 -115.85 96.65 -116.5 96.3 Q-117.8 97.1 -116.65 93.5 L-114.6 87.8 -113.95 87.6 -114.6 87.8 -118.5 88.85 -124.6 89.5 M-121.9 69.45 L-121.9 69.6 -122.05 69.7 -122.05 69.6 -122.05 69.7 -121.9 69.6 -121.9 69.45 M-118.3 68.1 L-118.3 68.0 -118.2 65.55 -118.3 68.0 -118.2 68.0 Q-111.8 60.45 -116.15 71.5 -111.8 60.45 -118.2 68.0 L-118.3 68.0 -118.3 68.1 -118.2 68.1 -118.2 68.0 -118.2 68.1 -118.3 68.1 -119.8 69.7 -118.3 68.1 M-117.85 73.5 L-116.65 72.9 -117.85 73.5 M-111.05 61.35 L-110.3 61.1 -111.05 61.35 M-122.05 69.7 L-124.9 76.05 -122.05 69.7 M-115.95 75.0 L-117.85 77.9 -115.95 75.0 M-116.35 79.5 L-116.3 79.5 -116.15 79.25 -116.3 79.5 -116.35 79.5" fill="#fa410f" fill-rule="evenodd" stroke="none"/>
    <path d="M2.3 88.55 L3.0 89.0 3.35 89.85 4.5 103.05 5.8 111.85 -1.1 107.3 -4.45 105.8 -4.95 105.25 -4.85 103.55 Q-0.9 96.5 0.05 92.6 L2.3 88.55" fill="#fa420e" fill-rule="evenodd" stroke="none"/>
    <path d="M10.7 99.0 L10.45 98.45 Q16.55 98.25 16.2 102.6 L14.0 100.25 Q11.35 98.7 10.7 99.0 M21.95 106.95 L22.5 107.95 22.6 108.9 21.95 108.9 20.7 107.3 20.6 106.65 21.05 106.55 21.95 106.95" fill="#000000" fill-rule="evenodd" stroke="none"/>
    <path d="M8.35 112.1 L8.35 112.0 8.25 111.65 8.25 111.55 8.05 109.85 8.55 107.3 9.95 105.45 12.95 104.1 16.0 103.9 17.0 104.1 16.0 103.9 12.95 104.1 10.7 99.0 Q11.35 98.7 14.0 100.25 L16.2 102.6 17.0 104.1 Q17.9 104.0 20.6 105.6 L21.95 106.95 21.05 106.55 20.6 106.65 20.7 107.3 21.95 108.9 22.6 108.9 22.5 107.95 Q25.55 112.6 21.1 116.45 16.4 120.95 8.35 112.1" fill="#ff7a16" fill-rule="evenodd" stroke="none"/>
    <path d="M-4.85 103.55 L-4.95 105.25 -4.45 105.8 -1.1 107.3 5.8 111.85 Q12.15 120.95 8.35 112.1 16.4 120.95 21.1 116.45 16.0 132.2 -3.6 129.25 -6.25 129.15 -15.75 122.1 L-23.2 119.65 Q-32.55 118.35 -36.5 120.95 -19.6 139.2 -20.4 139.7 L-18.1 141.05 -17.75 142.35 -19.0 143.8 -16.15 146.15 Q-11.3 147.6 -9.65 149.25 -7.2 152.8 -12.4 153.2 5.25 162.75 2.05 166.1 -21.5 167.7 -36.05 140.2 L-40.75 130.95 -43.85 126.25 -45.2 127.2 -58.35 132.0 -72.3 137.85 -82.5 140.55 Q-105.25 143.85 -116.8 140.2 L-121.7 138.7 -133.4 133.1 -134.7 133.7 Q-136.6 137.45 -139.4 140.2 L-143.75 143.1 Q-145.9 144.35 -148.45 144.8 L-149.95 145.0 -151.5 144.9 -153.0 144.35 Q-155.05 142.75 -153.35 139.45 L-156.15 138.9 -158.45 137.45 -159.3 136.35 -159.55 135.5 Q-160.5 132.5 -154.2 130.8 L-154.65 129.65 -154.65 128.2 -153.85 126.55 Q-149.7 122.95 -136.75 128.25 L-136.6 128.2 -136.1 125.65 -136.25 123.15 Q-136.8 114.1 -135.05 108.8 L-131.65 100.7 Q-125.75 89.85 -124.6 89.5 L-118.5 88.85 -114.6 87.8 -116.65 93.5 Q-117.8 97.1 -116.5 96.3 L-115.85 96.65 -114.15 96.3 -112.9 95.45 -112.45 94.4 -111.85 90.9 -111.4 88.45 -111.7 86.3 -112.95 85.35 -114.6 85.15 -123.0 85.85 -123.3 85.35 -123.0 84.1 -121.4 81.6 -119.8 81.3 -116.8 79.8 -118.95 82.05 -119.35 83.25 -118.85 83.95 -117.55 84.05 -117.35 84.1 -116.85 83.65 -116.5 83.35 Q-113.9 81.15 -113.5 81.4 L-113.2 82.25 -113.3 83.25 -112.35 82.9 -91.8 71.1 Q-84.45 67.05 -77.5 65.85 -58.1 65.2 -47.8 74.35 L-41.1 81.75 -38.6 85.8 Q-31.75 102.0 -30.75 102.7 L-28.75 105.05 -26.9 106.3 Q-25.15 107.45 -21.5 108.25 L-16.7 108.05 Q-15.75 108.3 -8.8 104.55 L-4.85 103.55 M-116.8 100.35 Q-121.3 99.9 -122.35 99.2 L-123.1 96.3 -123.3 95.05 -122.9 94.5 -116.65 93.5 -122.9 94.5 -123.3 95.05 -123.1 96.3 -122.35 99.2 Q-121.3 99.9 -116.8 100.35 M-112.35 84.7 L-111.8 84.6 -110.75 84.15 -111.8 84.6 -112.35 84.7 M-113.2 84.8 L-113.4 84.7 -113.6 84.15 -113.3 83.25 -113.6 84.15 -113.4 84.7 -113.2 84.8 M-112.45 85.0 L-112.9 85.0 -112.45 85.0 M-121.2 85.15 L-118.85 84.7 -117.55 84.05 -118.85 84.7 -121.2 85.15 M-113.5 96.3 L-113.2 96.25 -113.5 96.3 M-118.0 97.95 L-117.55 97.8 -117.15 97.8 -116.7 97.7 -116.35 97.5 -113.75 96.55 -116.35 97.5 -116.7 97.7 -117.15 97.8 -117.55 97.8 -118.0 97.95 M-41.4 115.4 L-36.5 120.95 -41.4 115.4 M-14.75 153.55 L-12.4 153.2 -14.75 153.55 M-46.5 123.15 L-43.85 126.25 -46.5 123.15 M-21.5 144.35 L-19.0 143.8 -21.5 144.35 M-136.6 128.25 L-136.75 128.25 -136.6 128.25 -136.6 128.2 -136.6 128.25 -136.55 129.9 -136.6 128.25 M-134.25 132.55 L-134.7 132.1 -134.25 132.55 M-135.1 131.7 L-135.35 131.4 -135.1 131.7 M-145.25 132.65 L-151.5 136.9 Q-153.0 138.2 -153.35 139.45 -153.0 138.2 -151.5 136.9 L-145.25 132.65 M-145.55 128.8 L-146.6 129.25 -154.2 130.8 -146.6 129.25 -145.55 128.8 M-135.95 123.6 L-136.25 123.15 -135.95 123.6 M-111.85 90.9 Q-110.2 90.3 -109.9 96.3 L-110.3 98.0 -109.9 96.3 Q-110.2 90.3 -111.85 90.9" fill="#ffffff" fill-rule="evenodd" stroke="none"/>
    <path d="M5.9 80.25 L5.8 80.55 5.8 80.75 5.55 81.85 5.55 82.25 M5.8 111.85 L4.5 103.05 3.35 89.85 3.0 89.0 2.3 88.55 0.05 92.6 Q-0.9 96.5 -4.85 103.55 L-4.95 105.25 -4.45 105.8 -1.1 107.3 5.8 111.85 Q12.15 120.95 8.35 112.1 L8.35 112.0 8.25 111.65 8.25 111.55 7.05 107.3 7.05 106.9 6.85 105.6 6.65 101.65 6.55 100.35 6.4 99.85 6.35 98.8 M6.1 97.1 L6.2 97.5 6.2 97.95 M10.45 98.45 L10.7 99.0 Q11.35 98.7 14.0 100.25 L16.2 102.6 Q16.55 98.25 10.45 98.45 L8.55 85.35 Q7.2 69.25 2.3 88.55 M22.5 107.95 L21.95 106.95 21.05 106.55 20.6 106.65 20.7 107.3 21.95 108.9 22.6 108.9 22.5 107.95 Q25.55 112.6 21.1 116.45 16.0 132.2 -3.6 129.25 -6.25 129.15 -15.75 122.1 L-23.2 119.65 Q-32.55 118.35 -36.5 120.95 -19.6 139.2 -20.4 139.7 L-18.1 141.05 -17.75 142.35 -19.0 143.8 -16.15 146.15 Q-11.3 147.6 -9.65 149.25 -7.2 152.8 -12.4 153.2 5.25 162.75 2.05 166.1 -21.5 167.7 -36.05 140.2 L-40.75 130.95 -43.85 126.25 -45.2 127.2 -58.35 132.0 -72.3 137.85 -82.5 140.55 Q-105.25 143.85 -116.8 140.2 L-121.7 138.7 -133.4 133.1 -134.7 133.7 Q-136.6 137.45 -139.4 140.2 L-143.75 143.1 Q-145.9 144.35 -148.45 144.8 L-149.95 145.0 -151.5 144.9 -153.0 144.35 Q-155.05 142.75 -153.35 139.45 L-156.15 138.9 -158.45 137.45 -159.3 136.35 -159.55 135.5 Q-160.5 132.5 -154.2 130.8 L-154.65 129.65 -154.65 128.2 -153.85 126.55 Q-149.7 122.95 -136.75 128.25 L-136.6 128.2 -136.1 125.65 -136.25 123.15 Q-136.8 114.1 -135.05 108.8 L-131.65 100.7 Q-125.75 89.85 -124.6 89.5 -132.95 89.55 -124.9 76.05 -126.15 72.9 -122.05 69.6 L-121.9 69.45 -119.25 64.15 -118.65 64.05 -118.4 64.5 -118.2 65.55 -110.75 57.55 -109.75 57.1 -109.35 57.75 -110.3 61.1 -109.9 60.95 Q-100.55 55.45 -107.65 63.4 L-109.15 65.55 -107.15 65.85 -106.9 66.6 -110.0 68.85 -116.15 71.5 -116.7 72.9 -116.65 72.9 -115.65 73.3 -115.95 75.0 Q-105.25 74.8 -113.5 81.4 L-113.2 82.25 -113.3 83.25 -112.35 82.9 -91.8 71.1 Q-84.45 67.05 -77.5 65.85 -58.1 65.2 -47.8 74.35 L-41.1 81.75 -38.6 85.8 Q-31.75 102.0 -30.75 102.7 L-28.75 105.05 -26.9 106.3 Q-25.15 107.45 -21.5 108.25 L-16.7 108.05 Q-15.75 108.3 -8.8 104.55 L-4.85 103.55 M21.95 106.95 L20.6 105.6 Q17.9 104.0 17.0 104.1 L16.0 103.9 12.95 104.1 9.95 105.45 8.55 107.3 8.05 109.85 8.25 111.55 M17.0 104.1 L16.2 102.6 M8.35 112.1 Q16.4 120.95 21.1 116.45 M10.7 99.0 L12.95 104.1 M-122.05 69.6 L-122.05 69.7 -121.9 69.6 -121.9 69.45 M-116.65 93.5 L-122.9 94.5 -123.3 95.05 -123.1 96.3 -122.35 99.2 Q-121.3 99.9 -116.8 100.35 M-114.6 87.8 L-116.65 93.5 Q-117.8 97.1 -116.5 96.3 L-115.85 96.65 -114.15 96.3 -112.9 95.45 -112.45 94.4 -111.85 90.9 -111.4 88.45 -111.7 86.3 -112.95 85.35 -114.6 85.15 -123.0 85.85 -123.3 85.35 -123.0 84.1 -121.4 81.6 -117.85 77.9 -115.95 75.0 M-124.9 76.05 L-122.05 69.7 M-110.3 61.1 L-111.05 61.35 M-118.2 65.55 L-118.3 68.0 -118.2 68.0 Q-111.8 60.45 -116.15 71.5 M-118.2 68.0 L-118.2 68.1 -118.3 68.1 -119.8 69.7 M-116.65 72.9 L-117.85 73.5 M-118.3 68.0 L-118.3 68.1 M-111.7 77.05 L-112.75 77.15 -116.15 79.25 -116.3 79.5 -116.35 79.5 -116.5 79.5 -116.6 79.6 -116.8 79.8 -118.95 82.05 -119.35 83.25 -118.85 83.95 -117.55 84.05 -117.35 84.1 -116.85 83.65 -116.5 83.35 Q-113.9 81.15 -113.5 81.4 M-116.15 79.25 L-116.35 79.5 M-116.8 79.8 L-119.8 81.3 -121.4 81.6 M-117.55 84.05 L-118.85 84.7 -121.2 85.15 M-112.9 85.0 L-112.45 85.0 M-113.3 83.25 L-113.6 84.15 -113.4 84.7 -113.2 84.8 M-110.75 84.15 L-111.8 84.6 -112.35 84.7 M-117.85 77.9 L-112.75 77.15 M-114.6 87.8 L-113.95 87.6 M-113.75 96.55 L-116.35 97.5 -116.7 97.7 -117.15 97.8 -117.55 97.8 -118.0 97.95 M-113.2 96.25 L-113.5 96.3 M-124.6 89.5 L-118.5 88.85 -114.6 87.8 M-110.3 98.0 L-109.9 96.3 Q-110.2 90.3 -111.85 90.9 M-136.25 123.15 L-135.95 123.6 M-154.2 130.8 L-146.6 129.25 -145.55 128.8 M-153.35 139.45 Q-153.0 138.2 -151.5 136.9 L-145.25 132.65 M-136.6 128.2 L-136.6 128.25 -136.55 129.9 M-135.35 131.4 L-135.1 131.7 M-134.7 132.1 L-134.25 132.55 M-136.75 128.25 L-136.6 128.25 M-19.0 143.8 L-21.5 144.35 M-43.85 126.25 L-46.5 123.15 M-12.4 153.2 L-14.75 153.55 M-36.5 120.95 L-41.4 115.4" fill="none" stroke="#000000" stroke-linecap="round" stroke-linejoin="round" stroke-width="0.05"/>
  </g>
</svg>
