<?xml version="1.0" encoding="UTF-8" standalone="no"?>
<svg xmlns:xlink="http://www.w3.org/1999/xlink" height="110.05px" width="185.5px" xmlns="http://www.w3.org/2000/svg">
  <g transform="matrix(1.0, 0.0, 0.0, 1.0, 160.9, -57.1)">
    <path d="M10.4 85.35 L10.4 84.95 10.4 85.35 M5.5 92.9 L7.8 87.8 10.9 82.9 11.3 82.8 11.75 83.45 12.3 88.0 12.5 103.25 12.8 104.85 13.6 107.3 13.85 109.1 Q8.9 110.15 9.15 114.95 L9.4 116.75 9.95 118.25 Q11.25 123.35 8.1 118.25 L6.55 115.9 6.75 114.35 6.4 107.3 6.85 96.3 6.55 93.25 6.1 92.7 5.5 92.9 M8.75 101.2 L8.75 102.0 8.9 102.6 8.55 111.65 9.15 114.95 8.55 111.65 8.9 102.6 8.75 102.0 8.75 101.2 M-121.2 87.5 L-123.0 86.95 Q-124.2 86.25 -125.45 85.6 -128.6 82.0 -121.25 75.2 -125.6 73.1 -122.45 69.25 L-120.65 67.7 Q-117.65 66.5 -106.3 57.55 L-105.1 57.1 -104.65 57.45 Q-106.15 60.3 -106.1 60.95 L-105.4 60.85 Q-94.1 56.95 -102.95 63.4 L-104.85 65.1 Q-101.25 65.65 -101.9 66.5 L-102.65 67.05 -107.35 68.6 -110.0 72.35 -107.75 72.45 -107.65 73.2 -110.55 75.85 Q-107.6 76.95 -113.4 82.15 L-115.5 83.95 -116.8 84.6 -119.35 84.1 -116.8 84.6 -113.65 85.55 -112.25 85.95 -111.8 86.1 -110.3 87.6 -110.3 89.3 -111.1 92.2 Q-112.25 96.25 -112.65 96.3 -115.65 98.85 -116.95 96.3 L-116.35 94.2 Q-113.85 88.35 -113.4 88.55 L-114.05 88.2 -121.2 87.5 M-110.55 72.45 L-110.0 72.35 -110.55 72.45 M-107.35 68.6 L-105.65 65.85 -105.7 65.1 -106.55 65.1 -108.2 65.85 -111.6 67.75 -112.55 68.3 -111.6 67.75 -110.95 64.35 -111.05 63.4 -111.8 63.4 -120.4 74.35 -121.25 75.2 -120.4 74.35 -111.8 63.4 -111.05 63.4 -110.95 64.35 -111.6 67.75 -108.2 65.85 -106.55 65.1 -105.7 65.1 -105.65 65.85 -107.35 68.6 M-106.9 61.1 L-106.1 60.95 -106.9 61.1 M-117.65 81.2 L-112.35 77.55 -112.65 77.35 -116.1 78.85 -120.0 81.95 Q-121.65 83.2 -119.35 84.1 L-119.05 82.7 -117.65 81.2 M-112.65 77.35 L-110.55 75.85 -112.65 77.35" fill="#fa410f" fill-rule="evenodd" stroke="none"/>
    <path d="M5.5 92.9 L6.1 92.7 6.55 93.25 6.85 96.3 6.4 107.3 6.75 114.35 6.55 115.9 0.05 110.95 -3.15 109.2 -3.9 108.35 -3.7 107.3 -3.6 107.1 -2.3 104.6 Q-0.45 103.25 5.5 92.9" fill="#fa420e" fill-rule="evenodd" stroke="none"/>
    <path d="M9.4 116.75 L9.15 114.95 Q8.9 110.15 13.85 109.1 L16.55 108.9 17.5 109.1 16.55 108.9 13.85 109.1 13.6 107.3 12.8 104.85 14.85 105.7 16.55 107.3 17.0 107.8 17.5 109.1 Q18.45 108.85 21.1 110.35 L22.95 112.2 21.65 111.55 21.35 111.65 21.45 112.3 22.6 113.8 23.35 113.9 23.35 112.95 Q26.7 117.95 20.9 122.1 15.8 124.65 10.7 118.25 L9.4 116.75" fill="#ff7a16" fill-rule="evenodd" stroke="none"/>
    <path d="M22.95 112.2 L23.35 112.95 23.35 113.9 22.6 113.8 21.45 112.3 21.35 111.65 21.65 111.55 22.95 112.2 M12.8 104.85 L12.5 103.25 Q18.1 104.15 17.0 107.8 L16.55 107.3 14.85 105.7 12.8 104.85" fill="#000000" fill-rule="evenodd" stroke="none"/>
    <path d="M6.55 115.9 L8.1 118.25 Q11.25 123.35 9.95 118.25 L9.4 116.75 10.7 118.25 Q15.8 124.65 20.9 122.1 16.9 131.25 7.6 133.15 -3.0 135.75 -10.85 129.25 -23.4 116.95 -36.9 122.2 -26.9 136.45 -25.2 142.5 -24.9 143.7 -24.9 144.6 L-22.55 148.2 Q-21.05 148.8 -20.1 150.35 L-19.85 151.5 -20.4 152.9 -20.4 153.0 -19.35 155.1 Q-18.75 156.6 -14.65 159.8 L-11.7 163.55 -11.05 165.05 -10.9 166.2 -11.35 166.95 -11.9 167.15 Q-19.35 167.0 -26.9 160.2 -32.4 155.3 -41.95 130.4 L-42.05 130.3 -43.45 127.4 -43.5 127.4 Q-76.85 141.1 -83.9 141.4 -103.6 144.5 -119.5 140.2 L-122.7 139.15 -134.25 133.5 -135.25 133.6 Q-138.95 139.45 -141.85 141.05 L-147.5 143.8 Q-149.2 144.55 -152.15 144.45 -157.65 143.2 -154.5 138.85 L-158.15 137.75 Q-160.6 136.4 -160.9 134.85 -161.0 130.6 -155.7 130.2 L-155.7 130.15 Q-157.25 127.0 -153.35 125.0 L-151.85 124.65 -146.95 125.05 -144.6 125.7 -138.85 128.5 -137.8 128.8 -137.4 128.5 -137.25 128.4 Q-136.8 128.85 -136.7 125.2 L-136.7 124.75 -136.7 123.9 -136.7 123.55 -136.95 115.9 -136.55 112.4 -135.45 108.15 Q-133.8 103.35 -130.8 98.15 L-130.65 98.0 -130.35 97.4 -130.2 97.3 -130.2 97.15 -130.15 97.1 -130.15 96.95 -130.0 96.85 -130.0 96.75 -129.9 96.65 -129.7 96.3 -129.7 96.25 -129.6 96.1 -129.6 96.0 -129.5 95.9 Q-127.35 91.55 -124.9 89.3 L-121.2 87.5 -114.05 88.2 -113.4 88.55 Q-113.85 88.35 -116.35 94.2 L-116.95 96.3 Q-115.65 98.85 -112.65 96.3 -112.25 96.25 -111.1 92.2 L-110.3 89.3 -110.3 87.6 -111.8 86.1 -112.25 85.95 -113.65 85.55 -112.95 83.95 -112.35 83.75 Q-82.65 66.45 -74.2 67.25 -57.1 67.9 -48.75 74.35 L-43.2 79.5 -40.25 83.25 -37.7 87.5 Q-30.75 104.05 -30.2 104.1 L-28.2 106.65 -26.7 107.8 -21.8 110.05 -17.25 110.5 -14.75 110.15 Q-6.75 106.55 -3.6 107.1 L-3.7 107.3 -3.9 108.35 -3.15 109.2 0.05 110.95 6.55 115.9 M-123.0 86.95 L-125.0 86.5 -125.45 86.1 -125.45 85.6 Q-124.2 86.25 -123.0 86.95 M-113.4 82.15 L-112.9 83.3 -112.95 83.95 -113.65 85.55 -116.8 84.6 -115.5 83.95 -113.4 82.15 M-117.45 101.15 Q-121.7 100.2 -122.55 99.4 L-123.3 96.3 -123.2 95.15 -122.75 94.8 -118.4 94.6 -116.35 94.2 -118.4 94.6 -122.75 94.8 -123.2 95.15 -123.3 96.3 -122.55 99.4 Q-121.7 100.2 -117.45 101.15 M-110.4 85.25 L-110.85 85.35 -110.4 85.25 M-120.0 81.95 L-117.65 81.2 -119.05 82.7 -119.35 84.1 Q-121.65 83.2 -120.0 81.95 M-110.55 99.5 L-109.35 96.3 -110.2 93.05 -111.1 92.2 -110.2 93.05 -109.35 96.3 -110.55 99.5 M-111.2 85.6 L-112.05 85.85 -112.25 85.95 -112.05 85.85 -111.2 85.6 M-118.1 98.65 L-114.35 97.95 -118.1 98.65 M-36.9 122.2 L-40.55 116.7 -36.9 122.2 M-22.15 153.85 L-20.4 152.9 -22.15 153.85 M-44.3 125.9 L-43.5 127.4 -44.3 125.9 M-46.3 123.5 L-44.6 125.5 -46.3 123.5 M-28.1 142.55 L-26.9 142.25 -25.6 142.95 -26.9 142.25 -28.1 142.55 M-26.6 145.2 L-25.55 144.15 -25.2 142.5 -25.55 144.15 -26.6 145.2 M-135.35 132.75 L-135.55 132.45 -135.35 132.75 M-137.25 130.1 L-137.4 129.25 -137.4 128.5 -137.4 129.25 -137.25 130.1 M-146.1 132.65 L-152.95 136.7 -154.5 138.85 -152.95 136.7 -146.1 132.65 M-155.7 130.15 L-148.45 129.25 -146.35 128.6 -148.45 129.25 -155.7 130.15" fill="#ffffff" fill-rule="evenodd" stroke="none"/>
    <path d="M10.4 84.95 L10.4 85.35 M12.5 103.25 L12.3 88.0 11.75 83.45 11.3 82.8 10.9 82.9 7.8 87.8 5.5 92.9 6.1 92.7 6.55 93.25 6.85 96.3 6.4 107.3 6.75 114.35 6.55 115.9 8.1 118.25 Q11.25 123.35 9.95 118.25 L9.4 116.75 9.15 114.95 8.55 111.65 8.9 102.6 8.75 102.0 8.75 101.2 M23.35 112.95 L22.95 112.2 21.65 111.55 21.35 111.65 21.45 112.3 22.6 113.8 23.35 113.9 23.35 112.95 Q26.7 117.95 20.9 122.1 16.9 131.25 7.6 133.15 -3.0 135.75 -10.85 129.25 -23.4 116.95 -36.9 122.2 -26.9 136.45 -25.2 142.5 -24.9 143.7 -24.9 144.6 L-22.55 148.2 Q-21.05 148.8 -20.1 150.35 L-19.85 151.5 -20.4 152.9 -20.4 153.0 -19.35 155.1 Q-18.75 156.6 -14.65 159.8 L-11.7 163.55 -11.05 165.05 -10.9 166.2 -11.35 166.95 -11.9 167.15 Q-19.35 167.0 -26.9 160.2 -32.4 155.3 -41.95 130.4 L-42.05 130.3 -43.45 127.4 -43.5 127.4 Q-76.85 141.1 -83.9 141.4 -103.6 144.5 -119.5 140.2 L-122.7 139.15 -134.25 133.5 -135.25 133.6 Q-138.95 139.45 -141.85 141.05 L-147.5 143.8 Q-149.2 144.55 -152.15 144.45 -157.65 143.2 -154.5 138.85 L-158.15 137.75 Q-160.6 136.4 -160.9 134.85 -161.0 130.6 -155.7 130.2 L-155.7 130.15 Q-157.25 127.0 -153.35 125.0 L-151.85 124.65 -146.95 125.05 -144.6 125.7 -138.85 128.5 -137.8 128.8 -137.4 128.5 -137.25 128.4 Q-136.8 128.85 -136.7 125.2 L-136.7 124.75 -136.7 123.9 -136.7 123.55 -136.95 115.9 -136.55 112.4 -135.45 108.15 Q-133.8 103.35 -130.8 98.15 L-130.65 98.0 -130.35 97.4 -130.2 97.3 -130.2 97.15 -130.15 97.1 -130.15 96.95 -130.0 96.85 -130.0 96.75 -129.9 96.65 -129.7 96.3 -129.7 96.25 -129.6 96.1 -129.6 96.0 -129.5 95.9 Q-127.35 91.55 -124.9 89.3 L-121.2 87.5 -123.0 86.95 -125.0 86.5 -125.45 86.1 -125.45 85.6 Q-128.6 82.0 -121.25 75.2 -125.6 73.1 -122.45 69.25 L-120.65 67.7 Q-117.65 66.5 -106.3 57.55 L-105.1 57.1 -104.65 57.45 Q-106.15 60.3 -106.1 60.95 L-105.4 60.85 Q-94.1 56.95 -102.95 63.4 L-104.85 65.1 Q-101.25 65.65 -101.9 66.5 L-102.65 67.05 -107.35 68.6 -110.0 72.35 -107.75 72.45 -107.65 73.2 -110.55 75.85 Q-107.6 76.95 -113.4 82.15 L-112.9 83.3 -112.95 83.95 -112.35 83.75 Q-82.65 66.45 -74.2 67.25 -57.1 67.9 -48.75 74.35 L-43.2 79.5 -40.25 83.25 -37.7 87.5 Q-30.75 104.05 -30.2 104.1 L-28.2 106.65 -26.7 107.8 -21.8 110.05 -17.25 110.5 -14.75 110.15 Q-6.75 106.55 -3.6 107.1 L-2.3 104.6 Q-0.45 103.25 5.5 92.9 M22.95 112.2 L21.1 110.35 Q18.45 108.85 17.5 109.1 L16.55 108.9 13.85 109.1 Q8.9 110.15 9.15 114.95 M12.8 104.85 L12.5 103.25 Q18.1 104.15 17.0 107.8 L17.5 109.1 M12.8 104.85 L13.6 107.3 13.85 109.1 M17.0 107.8 L16.55 107.3 14.85 105.7 12.8 104.85 M20.9 122.1 Q15.8 124.65 10.7 118.25 L9.4 116.75 M6.55 115.9 L0.05 110.95 -3.15 109.2 -3.9 108.35 -3.7 107.3 -3.6 107.1 M-116.35 94.2 L-118.4 94.6 -122.75 94.8 -123.2 95.15 -123.3 96.3 -122.55 99.4 Q-121.7 100.2 -117.45 101.15 M-123.0 86.95 Q-124.2 86.25 -125.45 85.6 M-106.1 60.95 L-106.9 61.1 M-112.55 68.3 L-111.6 67.75 -110.95 64.35 -111.05 63.4 -111.8 63.4 -120.4 74.35 -121.25 75.2 M-111.6 67.75 L-108.2 65.85 -106.55 65.1 -105.7 65.1 -105.65 65.85 -107.35 68.6 M-110.0 72.35 L-110.55 72.45 M-110.85 85.35 L-110.4 85.25 M-117.65 81.2 L-112.35 77.55 -112.65 77.35 -116.1 78.85 -120.0 81.95 -117.65 81.2 -119.05 82.7 -119.35 84.1 -116.8 84.6 -115.5 83.95 -113.4 82.15 M-119.35 84.1 Q-121.65 83.2 -120.0 81.95 M-112.25 85.95 L-111.8 86.1 -110.3 87.6 -110.3 89.3 -111.1 92.2 -110.2 93.05 -109.35 96.3 -110.55 99.5 M-112.95 83.95 L-113.65 85.55 -112.25 85.95 -112.05 85.85 -111.2 85.6 M-116.8 84.6 L-113.65 85.55 M-111.1 92.2 Q-112.25 96.25 -112.65 96.3 -115.65 98.85 -116.95 96.3 L-116.35 94.2 Q-113.85 88.35 -113.4 88.55 L-114.05 88.2 -121.2 87.5 M-114.35 97.95 L-118.1 98.65 M-110.55 75.85 L-112.65 77.35 M-146.35 128.6 L-148.45 129.25 -155.7 130.15 M-154.5 138.85 L-152.95 136.7 -146.1 132.65 M-137.4 128.5 L-137.4 129.25 -137.25 130.1 M-135.55 132.45 L-135.35 132.75 M-25.2 142.5 L-25.55 144.15 -26.6 145.2 M-25.6 142.95 L-26.9 142.25 -28.1 142.55 M-44.6 125.5 L-46.3 123.5 M-43.5 127.4 L-44.3 125.9 M-20.4 152.9 L-22.15 153.85 M-40.55 116.7 L-36.9 122.2" fill="none" stroke="#000000" stroke-linecap="round" stroke-linejoin="round" stroke-width="0.05"/>
  </g>
</svg>
