<?xml version="1.0" encoding="UTF-8" standalone="no"?>
<svg xmlns:xlink="http://www.w3.org/1999/xlink" height="101.5px" width="179.1px" xmlns="http://www.w3.org/2000/svg">
  <g transform="matrix(1.0, 0.0, 0.0, 1.0, 156.0, -46.15)">
    <path d="M7.25 70.1 L7.25 69.7 7.4 69.25 7.25 69.7 7.25 70.1 M8.25 66.7 L8.25 66.2 8.25 66.7 M8.05 67.45 L8.05 66.9 8.05 67.45 M7.7 68.55 L7.7 68.1 7.7 68.55 M3.65 75.2 Q10.8 54.3 10.25 74.35 L10.9 86.0 11.1 86.95 12.7 91.55 Q8.35 91.85 7.7 96.3 L7.65 97.6 7.6 98.15 8.25 99.4 Q10.85 107.35 5.15 98.35 L5.25 96.3 4.85 90.45 5.05 76.5 4.65 75.2 4.4 75.0 3.65 75.2 M-128.3 77.05 Q-136.35 73.1 -127.65 65.35 -131.45 63.1 -128.75 59.45 L-127.45 57.95 Q-125.35 57.3 -114.25 47.3 -110.3 44.1 -112.9 49.85 L-108.6 48.15 -106.8 48.1 -106.9 48.8 -107.55 49.65 -111.9 53.9 -110.0 54.25 -109.45 54.45 -109.45 55.0 -110.2 55.6 -113.95 57.35 -116.5 61.15 -115.0 61.15 -114.6 61.7 -114.9 62.45 -117.55 65.1 Q-113.3 65.85 -117.15 72.15 L-118.5 74.35 -119.35 75.45 Q-117.2 76.1 -116.35 76.9 L-116.2 77.1 Q-115.85 77.5 -115.85 78.0 L-115.9 82.6 -115.95 85.35 Q-116.1 88.15 -119.15 88.2 L-120.35 87.5 -120.35 85.35 -118.95 78.75 -128.3 77.05 M6.95 84.3 L7.05 83.55 7.05 83.1 7.05 83.55 6.95 84.3 M7.2 85.35 L7.25 96.3 7.65 97.6 7.25 96.3 7.2 85.35 M-124.9 74.05 L-122.7 74.6 -122.55 74.35 -122.05 73.2 -122.15 73.2 -122.05 73.1 -118.0 67.9 -118.1 67.55 -120.0 67.05 Q-130.15 73.3 -124.9 74.05 M-117.55 65.1 L-120.0 67.05 -117.55 65.1 M-122.05 73.2 L-122.05 73.1 -122.05 73.2 M-127.65 65.35 L-118.3 52.75 Q-117.0 51.3 -117.85 56.9 L-114.6 54.55 -113.5 54.05 -112.65 54.05 -112.75 55.2 -113.95 57.35 -112.75 55.2 -112.65 54.05 -113.5 54.05 -114.6 54.55 -117.85 56.9 -119.35 57.65 -117.85 56.9 Q-117.0 51.3 -118.3 52.75 L-127.65 65.35 M-117.35 61.5 L-116.5 61.15 -117.35 61.5 M-112.35 53.9 L-111.9 53.9 -112.35 53.9 M-114.15 50.2 L-112.9 49.85 -114.15 50.2 M-122.7 74.6 L-119.35 75.45 -122.7 74.6" fill="#fa410f" fill-rule="evenodd" stroke="none"/>
    <path d="M-4.95 90.25 L-3.6 87.35 Q-1.9 85.75 3.65 75.2 L4.4 75.0 4.65 75.2 5.05 76.5 4.85 90.45 5.25 96.3 5.15 98.35 -2.95 92.6 -4.55 91.95 -5.1 90.9 -4.95 90.25" fill="#fa420e" fill-rule="evenodd" stroke="none"/>
    <path d="M15.3 89.6 L16.15 91.4 Q20.8 92.3 22.5 96.45 24.45 100.55 19.85 104.3 16.25 108.45 8.25 99.4 L7.6 98.15 7.65 97.6 7.7 96.3 Q8.35 91.85 12.7 91.55 L11.1 86.95 12.7 87.5 15.3 89.6 M16.15 91.4 L12.7 91.55 16.15 91.4 M19.2 93.35 Q18.35 94.75 21.25 95.6 L21.05 94.4 20.05 93.55 19.2 93.35" fill="#ff7a16" fill-rule="evenodd" stroke="none"/>
    <path d="M10.9 86.0 Q15.75 86.95 15.3 89.6 L12.7 87.5 11.1 86.95 10.9 86.0 M19.2 93.35 L20.05 93.55 21.05 94.4 21.25 95.6 Q18.35 94.75 19.2 93.35" fill="#000000" fill-rule="evenodd" stroke="none"/>
    <path d="M19.85 104.3 Q17.8 113.95 3.45 117.0 -6.2 119.05 -17.75 107.3 -28.3 101.45 -38.1 106.95 L-33.7 113.35 -30.85 119.65 -26.05 136.3 Q-24.75 140.85 -25.3 144.45 L-26.45 146.8 -27.75 147.65 -29.25 147.55 Q-30.3 147.15 -31.35 145.3 L-36.85 129.05 -43.95 112.4 -44.05 112.5 Q-74.65 129.65 -87.0 131.15 -111.2 136.6 -130.65 126.55 L-131.7 127.35 -133.75 131.45 -135.1 133.4 -136.85 135.0 -142.05 138.4 Q-143.75 139.4 -146.85 139.55 L-147.4 139.55 -147.7 139.55 Q-151.6 139.15 -150.15 134.35 L-151.95 134.15 -154.85 132.75 -155.7 131.7 -156.0 130.6 -155.9 129.25 -155.25 128.05 -154.3 127.2 -150.8 125.85 -150.85 125.7 -151.3 124.0 -150.9 122.1 -150.05 121.15 -148.9 120.5 Q-142.65 118.7 -135.05 122.3 L-134.25 122.3 -134.25 122.25 -134.05 122.0 -133.95 119.65 -135.25 112.7 -135.55 105.7 -134.6 99.7 Q-129.15 81.15 -123.3 79.25 L-128.0 78.65 -128.3 78.35 -128.3 77.05 -118.95 78.75 -120.35 85.35 -120.35 87.5 -119.15 88.2 Q-116.1 88.15 -115.95 85.35 L-115.9 82.6 -115.85 78.0 Q-115.85 77.5 -116.2 77.1 L-116.35 76.9 -116.15 76.9 -116.6 76.65 -116.5 75.45 -116.6 76.65 -116.15 76.9 -115.85 76.85 -112.65 74.7 -112.55 74.5 -111.8 73.95 -111.4 73.75 -111.8 73.95 -112.55 74.5 -112.65 74.7 -115.85 76.85 -116.15 76.9 -116.35 76.9 Q-117.2 76.1 -119.35 75.45 L-118.5 74.35 -117.15 72.15 -116.5 73.85 -116.5 75.45 -116.3 75.35 Q-86.75 52.05 -76.95 53.7 -65.25 53.65 -56.95 57.65 -44.6 65.65 -40.3 74.35 -31.5 92.0 -26.05 92.4 L-22.2 93.55 -18.15 93.75 Q-14.3 93.35 -9.75 91.1 L-4.95 90.25 -5.1 90.9 -4.55 91.95 -2.95 92.6 5.15 98.35 Q10.85 107.35 8.25 99.4 16.25 108.45 19.85 104.3 M-122.15 73.2 L-122.05 73.2 -122.55 74.35 -122.7 74.6 -124.9 74.05 -122.15 73.2 M-119.9 92.05 L-125.55 91.0 -126.4 87.8 -126.4 86.95 -125.9 86.45 -120.75 85.35 -120.35 85.35 -120.75 85.35 -125.9 86.45 -126.4 86.95 -126.4 87.8 -125.55 91.0 -119.9 92.05 M-115.85 76.85 L-116.2 77.1 -115.85 76.85 M-113.5 89.4 L-113.4 88.65 -113.4 87.9 -113.2 86.2 -114.25 82.8 -114.9 82.4 -115.9 82.6 -114.9 82.4 -114.25 82.8 -113.2 86.2 -113.4 87.9 -113.4 88.65 -113.5 89.4 M-38.1 106.95 L-42.35 100.8 -38.1 106.95 M-44.05 112.5 L-46.2 108.45 -47.25 107.3 -46.2 108.45 -44.05 112.5 M-36.25 126.05 L-35.65 125.0 -34.55 124.85 -32.8 126.25 -34.55 124.85 -35.65 125.0 -36.25 126.05 M-31.35 129.95 Q-35.0 128.8 -34.8 133.15 -35.0 128.8 -31.35 129.95 M-130.65 126.55 L-130.9 126.4 -131.3 126.25 -130.9 126.4 -130.65 126.55 M-132.8 125.0 L-132.35 125.4 -132.8 125.0 M-150.85 125.7 L-145.05 124.35 -142.6 123.05 -145.05 124.35 -150.85 125.7 M-150.15 134.35 L-148.75 132.0 -142.3 126.8 -148.75 132.0 -150.15 134.35 M-134.25 122.25 L-134.05 122.75 -134.05 122.0 -134.05 122.75 -134.05 123.6 -134.05 122.75 -134.25 122.25 M-121.7 89.6 L-120.75 89.4 -117.55 88.2 -115.65 86.95 -117.55 88.2 -120.75 89.4 -121.7 89.6" fill="#ffffff" fill-rule="evenodd" stroke="none"/>
    <path d="M7.7 68.1 L7.7 68.55 M8.05 66.9 L8.05 67.45 M8.25 66.2 L8.25 66.7 M7.4 69.25 L7.25 69.7 7.25 70.1 M3.65 75.2 Q10.8 54.3 10.25 74.35 L10.9 86.0 Q15.75 86.95 15.3 89.6 L16.15 91.4 Q20.8 92.3 22.5 96.45 24.45 100.55 19.85 104.3 17.8 113.95 3.45 117.0 -6.2 119.05 -17.75 107.3 -28.3 101.45 -38.1 106.95 L-33.7 113.35 -30.85 119.65 -26.05 136.3 Q-24.75 140.85 -25.3 144.45 L-26.45 146.8 -27.75 147.65 -29.25 147.55 Q-30.3 147.15 -31.35 145.3 L-36.85 129.05 -43.95 112.4 -44.05 112.5 Q-74.65 129.65 -87.0 131.15 -111.2 136.6 -130.65 126.55 L-131.7 127.35 -133.75 131.45 -135.1 133.4 -136.85 135.0 -142.05 138.4 Q-143.75 139.4 -146.85 139.55 L-147.4 139.55 -147.7 139.55 Q-151.6 139.15 -150.15 134.35 L-151.95 134.15 -154.85 132.75 -155.7 131.7 -156.0 130.6 -155.9 129.25 -155.25 128.05 -154.3 127.2 -150.8 125.85 -150.85 125.7 -151.3 124.0 -150.9 122.1 -150.05 121.15 -148.9 120.5 Q-142.65 118.7 -135.05 122.3 L-134.25 122.3 -134.25 122.25 -134.05 122.0 -133.95 119.65 -135.25 112.7 -135.55 105.7 -134.6 99.7 Q-129.15 81.15 -123.3 79.25 L-128.0 78.65 -128.3 78.35 -128.3 77.05 Q-136.35 73.1 -127.65 65.35 -131.45 63.1 -128.75 59.45 L-127.45 57.95 Q-125.35 57.3 -114.25 47.3 -110.3 44.1 -112.9 49.85 L-108.6 48.15 -106.8 48.1 -106.9 48.8 -107.55 49.65 -111.9 53.9 -110.0 54.25 -109.45 54.45 -109.45 55.0 -110.2 55.6 -113.95 57.35 -116.5 61.15 -115.0 61.15 -114.6 61.7 -114.9 62.45 -117.55 65.1 Q-113.3 65.85 -117.15 72.15 L-116.5 73.85 -116.5 75.45 -116.3 75.35 Q-86.75 52.05 -76.95 53.7 -65.25 53.65 -56.95 57.65 -44.6 65.65 -40.3 74.35 -31.5 92.0 -26.05 92.4 L-22.2 93.55 -18.15 93.75 Q-14.3 93.35 -9.75 91.1 L-4.95 90.25 -3.6 87.35 Q-1.9 85.75 3.65 75.2 L4.4 75.0 4.65 75.2 5.05 76.5 4.85 90.45 5.25 96.3 5.15 98.35 Q10.85 107.35 8.25 99.4 L7.6 98.15 7.65 97.6 7.25 96.3 7.2 85.35 M7.05 83.1 L7.05 83.55 6.95 84.3 M12.7 91.55 Q8.35 91.85 7.7 96.3 L7.65 97.6 M11.1 86.95 L12.7 87.5 15.3 89.6 M11.1 86.95 L12.7 91.55 16.15 91.4 M19.2 93.35 Q18.35 94.75 21.25 95.6 L21.05 94.4 20.05 93.55 19.2 93.35 M10.9 86.0 L11.1 86.95 M19.85 104.3 Q16.25 108.45 8.25 99.4 M5.15 98.35 L-2.95 92.6 -4.55 91.95 -5.1 90.9 -4.95 90.25 M-124.9 74.05 L-122.7 74.6 -122.55 74.35 -122.05 73.2 -122.15 73.2 -124.9 74.05 Q-130.15 73.3 -120.0 67.05 L-117.55 65.1 M-122.15 73.2 L-122.05 73.1 -118.0 67.9 -118.1 67.55 -120.0 67.05 M-122.05 73.1 L-122.05 73.2 M-120.35 85.35 L-120.75 85.35 -125.9 86.45 -126.4 86.95 -126.4 87.8 -125.55 91.0 -119.9 92.05 M-112.9 49.85 L-114.15 50.2 M-111.9 53.9 L-112.35 53.9 M-113.95 57.35 L-112.75 55.2 -112.65 54.05 -113.5 54.05 -114.6 54.55 -117.85 56.9 -119.35 57.65 M-116.5 61.15 L-117.35 61.5 M-117.85 56.9 Q-117.0 51.3 -118.3 52.75 L-127.65 65.35 M-116.5 75.45 L-116.6 76.65 -116.15 76.9 -115.85 76.85 -112.65 74.7 -112.55 74.5 -111.8 73.95 -111.4 73.75 M-116.2 77.1 L-115.85 76.85 M-116.35 76.9 L-116.2 77.1 Q-115.85 77.5 -115.85 78.0 L-115.9 82.6 -114.9 82.4 -114.25 82.8 -113.2 86.2 -113.4 87.9 -113.4 88.65 -113.5 89.4 M-116.15 76.9 L-116.35 76.9 Q-117.2 76.1 -119.35 75.45 L-122.7 74.6 M-119.35 75.45 L-118.5 74.35 -117.15 72.15 M-115.9 82.6 L-115.95 85.35 Q-116.1 88.15 -119.15 88.2 L-120.35 87.5 -120.35 85.35 -118.95 78.75 -128.3 77.05 M-115.65 86.95 L-117.55 88.2 -120.75 89.4 -121.7 89.6 M-134.05 122.0 L-134.05 122.75 -134.05 123.6 M-134.05 122.75 L-134.25 122.25 M-142.3 126.8 L-148.75 132.0 -150.15 134.35 M-142.6 123.05 L-145.05 124.35 -150.85 125.7 M-132.35 125.4 L-132.8 125.0 M-131.3 126.25 L-130.9 126.4 -130.65 126.55 M-34.8 133.15 Q-35.0 128.8 -31.35 129.95 M-32.8 126.25 L-34.55 124.85 -35.65 125.0 -36.25 126.05 M-47.25 107.3 L-46.2 108.45 -44.05 112.5 M-42.35 100.8 L-38.1 106.95" fill="none" stroke="#000000" stroke-linecap="round" stroke-linejoin="round" stroke-width="0.05"/>
  </g>
</svg>
