<?xml version="1.0" encoding="UTF-8" standalone="no"?>
<svg xmlns:xlink="http://www.w3.org/1999/xlink" height="114.45px" width="159.75px" xmlns="http://www.w3.org/2000/svg">
  <g transform="matrix(1.0, 0.0, 0.0, 1.0, 143.95, -16.15)">
    <path d="M2.05 38.05 Q8.85 38.75 9.75 42.95 L6.85 42.85 5.05 43.4 6.85 42.85 9.75 42.95 Q18.25 45.0 14.85 54.55 10.75 60.1 2.05 52.45 L1.1 51.5 0.95 51.2 0.95 51.1 Q-0.85 46.45 5.05 43.4 L3.8 41.5 2.05 38.05 M10.25 43.8 L9.95 44.45 11.1 45.4 12.6 45.6 12.7 44.9 11.95 44.25 10.25 43.8 M1.1 51.5 L0.95 51.2 1.1 51.5" fill="#ff7a16" fill-rule="evenodd" stroke="none"/>
    <path d="M2.05 38.05 L3.8 41.5 5.05 43.4 Q-0.85 46.45 0.95 51.1 L0.95 51.2 1.1 51.5 1.15 51.55 1.65 52.45 Q5.15 59.25 -0.7 52.45 L-1.35 51.8 -3.7 41.5 -5.6 30.5 -6.25 28.35 -6.65 27.95 -7.1 28.15 -6.65 22.4 -5.3 16.15 -5.15 16.2 -4.45 16.65 -3.4 19.55 Q-0.65 27.45 1.0 35.15 L2.05 38.05 M-127.9 66.85 L-128.45 64.9 -128.75 63.4 -128.9 63.25 -129.35 62.65 -132.55 62.85 Q-149.6 65.65 -141.2 50.0 -143.35 46.25 -137.8 40.85 L-136.1 37.0 -135.25 36.6 -130.55 29.2 -129.5 28.7 -129.3 31.25 Q-126.3 28.15 -125.9 28.9 L-126.1 30.5 -128.75 35.8 -128.7 35.8 -127.9 35.95 -128.0 37.2 -130.15 40.2 -133.2 42.95 -133.4 43.5 -133.35 43.9 -133.2 45.4 -134.5 49.0 -129.05 48.95 -126.3 49.8 -125.3 51.15 -125.1 52.15 -124.9 54.75 -124.7 57.75 -124.7 57.95 -126.5 60.85 -128.3 59.8 -126.5 60.85 -123.75 66.2 -122.7 68.55 -122.55 69.05 -122.55 69.15 -123.75 71.15 -124.45 71.9 Q-125.55 72.55 -126.7 70.15 L-127.9 66.85 M-0.05 48.7 L0.95 51.1 -0.05 48.7 M-5.5 23.8 L-5.5 21.05 -5.4 20.25 -5.4 18.75 -5.15 17.5 -5.15 16.2 -5.15 17.5 -5.4 18.75 -5.4 20.25 -5.5 21.05 -5.5 23.8 M-0.2 48.4 L-0.7 46.8 -0.7 46.6 -0.75 46.4 -1.05 45.4 -1.1 45.1 -1.1 44.9 -1.25 44.55 -1.7 42.2 -1.7 41.8 -1.7 42.2 -1.25 44.55 -1.1 44.9 -1.1 45.1 -1.05 45.4 -0.75 46.4 -0.7 46.6 -0.7 46.8 -0.2 48.4 M-1.9 41.25 L-2.0 40.7 -2.0 40.2 -2.0 40.7 -1.9 41.25 M-135.25 36.6 L-134.8 38.8 -134.5 38.7 Q-130.25 33.25 -132.8 41.5 L-133.2 42.95 -132.8 41.5 Q-130.25 33.25 -134.5 38.7 L-134.8 38.8 -134.8 39.15 -136.4 41.5 -136.75 41.9 -136.4 41.5 -134.8 39.15 -134.8 38.8 -135.25 36.6 M-135.65 44.95 L-134.05 43.9 -133.35 43.9 -134.05 43.9 -135.65 44.95 M-131.3 33.05 L-129.3 31.25 -131.3 33.05 M-130.15 36.25 L-128.7 35.8 -130.15 36.25 M-128.45 59.35 Q-128.7 55.85 -127.9 53.05 L-128.1 51.9 -129.9 51.6 -136.4 52.35 -138.3 56.9 -138.45 58.4 -138.1 59.05 -137.25 59.6 -128.85 59.65 -128.3 59.8 -128.45 59.35 M-134.5 49.0 L-136.4 52.35 -134.5 49.0 M-141.2 50.0 L-137.8 40.85 -141.2 50.0" fill="#fa410f" fill-rule="evenodd" stroke="none"/>
    <path d="M10.25 43.8 L11.95 44.25 12.7 44.9 12.6 45.6 11.1 45.4 9.95 44.45 10.25 43.8" fill="#000000" fill-rule="evenodd" stroke="none"/>
    <path d="M14.85 54.55 Q14.3 67.8 1.45 71.95 L-3.7 72.6 -8.05 72.05 Q-9.25 72.45 -20.2 65.65 L-27.1 64.25 -31.35 64.7 -35.65 66.2 Q-41.6 70.05 -41.45 71.35 L-41.4 71.5 Q-28.3 83.55 -29.25 104.0 -31.05 108.4 -35.1 108.8 -45.3 108.9 -46.7 106.3 -49.5 100.05 -40.35 98.85 L-40.3 98.85 Q-40.4 98.15 -44.9 94.75 L-45.85 93.1 -45.8 92.2 -45.15 91.55 -42.15 91.4 -43.95 89.4 -44.15 87.3 Q-44.4 85.8 -44.8 85.35 L-46.65 80.75 -47.7 78.95 -65.35 96.55 Q-73.65 103.25 -77.4 105.25 L-87.1 110.05 Q-97.2 115.85 -118.95 112.95 L-119.0 112.85 Q-119.1 112.7 -119.2 112.85 -119.65 113.35 -119.9 118.4 L-121.25 122.1 -124.8 126.8 Q-128.05 130.15 -129.35 130.3 L-130.45 130.6 -132.35 130.6 -133.35 130.2 -134.2 129.25 -134.8 127.0 -137.25 126.8 -138.85 125.7 -139.8 124.0 -139.7 122.3 -138.55 120.4 -135.55 117.85 -135.55 117.8 -136.4 115.5 Q-136.7 114.15 -135.05 112.65 -132.0 109.65 -124.05 110.05 L-123.55 109.85 -123.95 108.35 -128.0 101.4 Q-129.45 99.25 -130.65 91.35 L-131.0 85.15 -130.15 74.6 -130.15 74.35 -130.45 74.05 -130.55 72.9 -129.75 72.0 -129.7 71.95 Q-129.35 68.75 -127.9 66.85 L-126.7 70.15 Q-125.55 72.55 -124.45 71.9 L-123.75 71.15 -122.55 69.15 -122.55 69.05 -122.7 68.55 -123.75 66.2 -126.5 60.85 -124.7 57.95 -124.7 57.75 -124.9 54.75 Q-123.8 54.6 -122.05 59.35 L-121.95 59.35 -121.6 59.15 Q-104.1 26.9 -93.6 26.0 -79.05 20.35 -61.4 30.5 L-54.4 35.95 Q-45.85 44.35 -40.75 48.4 L-36.05 51.05 -33.85 51.8 -28.2 52.55 -22.65 51.6 Q-21.55 51.7 -13.8 46.7 L-12.1 46.15 -12.0 46.15 -12.0 46.8 -11.5 47.3 -7.95 48.4 -1.35 51.8 -0.7 52.45 Q5.15 59.25 1.65 52.45 L1.15 51.55 1.1 51.5 1.15 51.55 1.1 51.5 2.05 52.45 Q10.75 60.1 14.85 54.55 M-128.45 64.9 L-131.95 65.65 -132.15 65.35 -131.95 64.25 -132.55 62.85 -129.35 62.65 -128.9 63.25 -128.75 63.4 -128.45 64.9 M-42.05 91.65 L-38.1 92.2 -36.85 91.75 -38.1 92.2 -42.05 91.65 M-40.3 98.85 L-37.7 99.0 -40.3 98.85 M-47.7 78.95 L-52.15 71.6 -47.7 78.95 M-44.15 87.3 L-43.65 87.05 -43.1 87.3 -42.0 88.3 -42.25 88.15 -42.05 89.0 -40.3 89.3 -42.0 88.3 -40.3 89.3 -42.05 89.0 -42.25 88.15 -42.0 88.3 -43.1 87.3 -43.65 87.05 -44.15 87.3 M-41.45 71.35 L-46.7 66.7 -48.35 64.55 -46.7 66.7 -41.45 71.35 M-128.45 59.35 L-128.3 59.8 -128.85 59.65 -128.45 59.35 M-124.45 62.65 L-124.1 62.5 -122.7 60.85 -121.95 59.35 -122.7 60.85 -124.1 62.5 -124.45 62.65 M-124.7 57.75 L-124.4 57.35 -124.7 57.75 M-131.05 64.5 L-129.35 63.4 -128.9 63.25 -129.35 63.4 -131.05 64.5 M-128.1 74.9 L-124.8 72.6 -124.45 71.9 -124.8 72.6 -128.1 74.9 M-129.75 72.0 Q-128.3 70.9 -126.7 70.15 -128.3 70.9 -129.75 72.0 M-121.85 67.7 L-122.55 69.05 -121.85 67.7 M-130.15 74.6 L-129.8 75.0 -129.8 76.0 -129.9 76.65 -128.45 76.7 -123.4 75.8 -128.45 76.7 -129.9 76.65 -129.8 76.0 -129.8 75.0 -130.15 74.6 M-119.35 69.8 Q-121.65 62.45 -123.75 66.2 -121.65 62.45 -119.35 69.8 M-134.8 127.0 Q-135.1 125.25 -134.25 123.3 L-130.0 116.75 -129.8 115.9 -130.0 116.75 -134.25 123.3 Q-135.1 125.25 -134.8 127.0 M-135.55 117.8 L-131.4 114.4 -130.35 112.85 -131.4 114.4 -135.55 117.8 M-123.2 111.15 L-123.3 110.15 -123.55 109.85 -123.3 110.15 -123.2 111.15 M-119.55 112.85 L-119.2 112.85 -119.55 112.85" fill="#ffffff" fill-rule="evenodd" stroke="none"/>
    <path d="M-12.1 46.15 L-12.0 46.05 -11.5 42.95 Q-10.05 40.1 -7.1 28.15 L-6.65 27.95 -6.25 28.35 -5.6 30.5 -3.7 41.5 -1.35 51.8 -7.95 48.4 -11.5 47.3 -12.0 46.8 -12.0 46.15 -12.1 46.15 M-12.0 46.05 L-12.0 46.15 -12.0 46.05" fill="#fa420e" fill-rule="evenodd" stroke="none"/>
    <path d="M9.75 42.95 Q8.85 38.75 2.05 38.05 L3.8 41.5 5.05 43.4 6.85 42.85 9.75 42.95 Q18.25 45.0 14.85 54.55 14.3 67.8 1.45 71.95 L-3.7 72.6 -8.05 72.05 Q-9.25 72.45 -20.2 65.65 L-27.1 64.25 -31.35 64.7 -35.65 66.2 Q-41.6 70.05 -41.45 71.35 L-41.4 71.5 Q-28.3 83.55 -29.25 104.0 -31.05 108.4 -35.1 108.8 -45.3 108.9 -46.7 106.3 -49.5 100.05 -40.35 98.85 L-40.3 98.85 Q-40.4 98.15 -44.9 94.75 L-45.85 93.1 -45.8 92.2 -45.15 91.55 -42.15 91.4 -43.95 89.4 -44.15 87.3 Q-44.4 85.8 -44.8 85.35 L-46.65 80.75 -47.7 78.95 -65.35 96.55 Q-73.65 103.25 -77.4 105.25 L-87.1 110.05 Q-97.2 115.85 -118.95 112.95 L-119.0 112.85 Q-119.1 112.7 -119.2 112.85 -119.65 113.35 -119.9 118.4 L-121.25 122.1 -124.8 126.8 Q-128.05 130.15 -129.35 130.3 L-130.45 130.6 -132.35 130.6 -133.35 130.2 -134.2 129.25 -134.8 127.0 -137.25 126.8 -138.85 125.7 -139.8 124.0 -139.7 122.3 -138.55 120.4 -135.55 117.85 -135.55 117.8 -136.4 115.5 Q-136.7 114.15 -135.05 112.65 -132.0 109.65 -124.05 110.05 L-123.55 109.85 -123.95 108.35 -128.0 101.4 Q-129.45 99.25 -130.65 91.35 L-131.0 85.15 -130.15 74.6 -130.15 74.35 -130.45 74.05 -130.55 72.9 -129.75 72.0 -129.7 71.95 Q-129.35 68.75 -127.9 66.85 L-128.45 64.9 -131.95 65.65 -132.15 65.35 -131.95 64.25 -132.55 62.85 Q-149.6 65.65 -141.2 50.0 -143.35 46.25 -137.8 40.85 L-136.1 37.0 -135.25 36.6 -130.55 29.2 -129.5 28.7 -129.3 31.25 Q-126.3 28.15 -125.9 28.9 L-126.1 30.5 -128.75 35.8 -128.7 35.8 -127.9 35.95 -128.0 37.2 -130.15 40.2 -133.2 42.95 -133.4 43.5 -133.35 43.9 -133.2 45.4 -134.5 49.0 -129.05 48.95 -126.3 49.8 -125.3 51.15 -125.1 52.15 -124.9 54.75 Q-123.8 54.6 -122.05 59.35 L-121.95 59.35 -121.6 59.15 Q-104.1 26.9 -93.6 26.0 -79.05 20.35 -61.4 30.5 L-54.4 35.95 Q-45.85 44.35 -40.75 48.4 L-36.05 51.05 -33.85 51.8 -28.2 52.55 -22.65 51.6 Q-21.55 51.7 -13.8 46.7 L-12.1 46.15 -12.0 46.05 -11.5 42.95 Q-10.05 40.1 -7.1 28.15 L-6.65 22.4 -5.3 16.15 -5.15 16.2 -4.45 16.65 -3.4 19.55 Q-0.65 27.45 1.0 35.15 L2.05 38.05 M10.25 43.8 L9.95 44.45 11.1 45.4 12.6 45.6 12.7 44.9 11.95 44.25 10.25 43.8 M0.95 51.2 L1.1 51.5 2.05 52.45 Q10.75 60.1 14.85 54.55 M-1.35 51.8 L-0.7 52.45 Q5.15 59.25 1.65 52.45 L1.15 51.55 1.1 51.5 0.95 51.2 0.95 51.1 -0.05 48.7 M1.15 51.55 L1.1 51.5 M5.05 43.4 Q-0.85 46.45 0.95 51.1 M-5.15 16.2 L-5.15 17.5 -5.4 18.75 -5.4 20.25 -5.5 21.05 -5.5 23.8 M-7.1 28.15 L-6.65 27.95 -6.25 28.35 -5.6 30.5 -3.7 41.5 -1.35 51.8 -7.95 48.4 -11.5 47.3 -12.0 46.8 -12.0 46.15 -12.1 46.15 M-12.0 46.15 L-12.0 46.05 M-2.0 40.2 L-2.0 40.7 -1.9 41.25 M-1.7 41.8 L-1.7 42.2 -1.25 44.55 -1.1 44.9 -1.1 45.1 -1.05 45.4 -0.75 46.4 -0.7 46.6 -0.7 46.8 -0.2 48.4 M-48.35 64.55 L-46.7 66.7 -41.45 71.35 M-42.0 88.3 L-40.3 89.3 -42.05 89.0 -42.25 88.15 -42.0 88.3 -43.1 87.3 -43.65 87.05 -44.15 87.3 M-52.15 71.6 L-47.7 78.95 M-37.7 99.0 L-40.3 98.85 M-36.85 91.75 L-38.1 92.2 -42.05 91.65 M-128.7 35.8 L-130.15 36.25 M-129.3 31.25 L-131.3 33.05 M-133.2 42.95 L-132.8 41.5 Q-130.25 33.25 -134.5 38.7 L-134.8 38.8 -134.8 39.15 -136.4 41.5 -136.75 41.9 M-133.35 43.9 L-134.05 43.9 -135.65 44.95 M-134.8 38.8 L-135.25 36.6 M-136.4 52.35 L-129.9 51.6 -128.1 51.9 -127.9 53.05 Q-128.7 55.85 -128.45 59.35 L-128.3 59.8 -126.5 60.85 -124.7 57.95 -124.7 57.75 -124.9 54.75 M-128.45 59.35 L-128.85 59.65 -128.3 59.8 M-124.4 57.35 L-124.7 57.75 M-121.95 59.35 L-122.7 60.85 -124.1 62.5 -124.45 62.65 M-128.85 59.65 L-137.25 59.6 -138.1 59.05 -138.45 58.4 -138.3 56.9 -136.4 52.35 -134.5 49.0 M-128.9 63.25 L-129.35 63.4 -131.05 64.5 M-132.55 62.85 L-129.35 62.65 -128.9 63.25 -128.75 63.4 -128.45 64.9 M-126.7 70.15 Q-128.3 70.9 -129.75 72.0 M-124.45 71.9 L-124.8 72.6 -128.1 74.9 M-122.55 69.05 L-122.55 69.15 -123.75 71.15 -124.45 71.9 Q-125.55 72.55 -126.7 70.15 L-127.9 66.85 M-123.75 66.2 L-122.7 68.55 -122.55 69.05 -121.85 67.7 M-126.5 60.85 L-123.75 66.2 Q-121.65 62.45 -119.35 69.8 M-123.4 75.8 L-128.45 76.7 -129.9 76.65 -129.8 76.0 -129.8 75.0 -130.15 74.6 M-137.8 40.85 L-141.2 50.0 M-119.2 112.85 L-119.55 112.85 M-123.55 109.85 L-123.3 110.15 -123.2 111.15 M-130.35 112.85 L-131.4 114.4 -135.55 117.8 M-129.8 115.9 L-130.0 116.75 -134.25 123.3 Q-135.1 125.25 -134.8 127.0" fill="none" stroke="#000000" stroke-linecap="round" stroke-linejoin="round" stroke-width="0.05"/>
  </g>
</svg>
