<?xml version="1.0" encoding="UTF-8" standalone="no"?>
<svg xmlns:xlink="http://www.w3.org/1999/xlink" height="162.15px" width="148.95px" xmlns="http://www.w3.org/2000/svg">
  <g transform="matrix(1.0, 0.0, 0.0, 1.0, 149.8, 40.5)">
    <path d="M-33.5 -36.45 L-33.45 -37.55 -33.4 -38.0 -33.5 -38.6 -33.5 -38.75 -33.85 -39.25 -33.5 -38.75 -33.5 -38.6 -33.4 -38.0 -33.4 -37.75 -33.35 -37.6 -33.3 -37.3 -33.1 -36.85 -33.05 -36.4 -32.85 -36.0 -32.8 -35.45 -32.8 -35.35 -32.45 -34.35 -32.45 -34.3 -32.4 -33.7 -32.45 -34.3 -32.45 -34.35 -32.8 -35.35 -32.8 -35.45 -32.85 -36.0 -33.05 -36.4 -33.1 -36.85 -33.3 -37.3 -33.35 -37.6 -33.4 -37.75 -33.4 -38.0 -33.45 -37.55 -33.5 -36.45 -33.75 -38.1 -33.5 -38.6 -33.45 -37.55 -33.5 -38.6 -33.75 -38.1 -33.85 -39.25 Q-34.0 -43.0 -29.45 -35.35 L-21.35 -22.75 Q-19.25 -19.6 -17.95 -18.95 L-17.85 -18.75 -15.1 -16.05 -16.45 -14.7 -17.25 -13.4 Q-18.15 -12.4 -17.95 -9.0 L-16.9 -6.35 Q-9.95 0.6 -18.95 -4.95 L-23.6 -13.4 -30.45 -27.05 -31.15 -27.35 -32.5 -32.15 -32.55 -32.45 -32.6 -32.6 -32.65 -32.8 -32.7 -33.0 -32.7 -33.05 -32.8 -33.3 -32.8 -33.5 -33.0 -34.15 -33.1 -34.7 -33.2 -35.1 -33.25 -35.35 -33.5 -36.45 M-33.35 -37.6 L-33.3 -37.05 -33.2 -36.6 -33.3 -35.85 -33.25 -35.35 -33.3 -35.85 -33.2 -36.6 -33.3 -37.05 -33.35 -37.6 M-32.85 -35.85 L-33.0 -36.05 -33.05 -36.4 -33.0 -36.05 -32.85 -35.85 -32.85 -36.0 -32.85 -35.85 -32.8 -35.45 -32.85 -35.85 M-32.8 -34.9 L-32.8 -35.35 -32.8 -34.9 M-32.65 -32.8 L-32.7 -33.05 -32.65 -32.8 M-33.3 -37.05 L-33.3 -37.3 -33.3 -37.05 M-32.15 -32.8 L-32.15 -33.4 -32.15 -32.8 M-19.35 -8.95 L-19.45 -9.2 -19.35 -8.95 M-16.6 -5.6 L-18.5 -7.85 -18.8 -8.3 -19.15 -8.6 -18.8 -8.3 -18.5 -7.85 -16.6 -5.6 M-125.95 63.7 L-125.95 63.65 -132.7 58.2 Q-145.55 66.1 -147.4 61.5 -149.2 59.3 -149.3 56.8 L-149.5 49.85 -149.6 44.9 -149.8 37.2 -149.65 36.35 Q-148.9 32.55 -147.2 38.8 L-146.0 28.35 -145.45 26.15 -144.85 26.05 -144.7 26.0 -144.3 24.95 -143.85 24.85 -143.45 25.5 -142.9 30.5 -142.6 35.15 -142.6 35.8 -142.6 36.65 -142.6 37.75 -142.6 38.15 -142.6 38.6 -142.9 44.1 -142.35 47.3 Q-143.8 49.7 -134.8 44.25 L-132.35 44.05 -130.85 44.9 -127.9 48.3 -127.8 48.4 -127.05 49.25 -127.05 49.35 -126.95 54.15 -128.0 53.85 -129.9 51.6 Q-132.5 46.65 -132.9 46.9 L-134.4 47.1 -140.55 51.3 -142.15 51.8 -144.85 51.6 -145.35 48.85 -145.35 48.6 -147.2 38.8 -145.35 48.6 -145.35 48.85 -144.85 51.6 -144.0 56.5 -143.55 57.75 -142.5 58.6 Q-133.75 54.25 -132.25 55.0 L-129.15 56.5 -127.65 57.45 -126.1 58.5 -125.55 58.8 -124.8 59.35 -124.6 63.95 -125.9 63.7 -125.95 63.7 M-149.3 45.95 L-149.35 46.65 -149.3 46.25 -149.3 45.95 -149.3 45.75 Q-149.1 40.75 -146.95 44.65 -149.1 40.75 -149.3 45.75 L-149.3 45.95 -149.3 46.25 -149.35 46.65 -149.5 49.85 -149.35 46.65 -149.3 45.95 M-149.6 44.9 L-149.6 44.25 -149.3 45.75 -149.6 44.25 -149.6 44.9 M-145.35 34.65 Q-143.8 30.75 -143.0 34.75 -143.8 30.75 -145.35 34.65 M-146.0 33.25 L-146.0 32.85 -145.55 30.5 -145.55 30.45 -145.2 28.7 -145.2 28.65 -144.8 26.65 -144.75 26.45 -144.85 26.05 -144.75 26.45 -144.8 26.65 -145.2 28.65 -145.2 28.7 -145.55 30.45 -145.55 30.5 -146.0 32.85 -146.0 33.25 M-149.65 36.35 L-149.5 37.75 -149.6 44.25 -149.5 37.75 -149.65 36.35 M-125.95 63.65 L-125.9 63.7 -125.95 63.65" fill="#fa410f" fill-rule="evenodd" stroke="none"/>
    <path d="M-31.15 -27.35 L-30.45 -27.05 -23.6 -13.4 -18.95 -4.95 -24.05 -6.05 Q-26.65 -6.5 -28.6 -6.05 L-29.45 -6.25 -29.8 -6.65 -30.45 -9.55 Q-31.55 -24.1 -31.15 -27.35" fill="#fa420e" fill-rule="evenodd" stroke="none"/>
    <path d="M-18.95 -4.95 Q-9.95 0.6 -16.9 -6.35 -3.05 0.05 -2.4 -9.45 2.6 4.8 -8.7 14.4 -12.35 16.8 -13.4 16.85 L-17.0 17.6 -22.85 17.2 Q-29.2 15.1 -30.2 15.35 L-34.15 15.55 -36.9 16.15 Q-39.7 16.85 -41.15 18.05 L-45.2 21.75 Q-46.5 22.8 -48.2 27.3 L-49.9 33.4 -57.7 27.95 -58.65 26.65 -57.7 27.95 -49.9 33.4 -49.9 33.45 Q-32.1 48.2 -37.05 65.75 -39.6 71.35 -51.55 72.8 -64.3 74.4 -63.1 69.9 -75.9 94.1 -98.5 99.1 L-98.45 99.2 Q-95.9 104.0 -96.5 108.45 L-98.2 116.45 Q-100.1 121.0 -101.6 121.35 L-102.85 121.65 -104.65 121.45 -106.3 120.1 -108.0 119.95 -109.05 119.45 -110.1 118.15 -110.4 116.7 -110.0 113.25 -108.85 109.5 -109.55 108.8 -110.0 107.6 -109.75 105.4 Q-107.25 99.9 -103.85 98.45 L-103.8 98.45 -110.6 93.65 Q-114.75 90.15 -116.5 86.95 -118.8 83.15 -120.85 77.05 L-123.3 68.75 -123.4 68.8 -125.75 70.55 -126.5 70.55 -126.2 69.15 -126.15 69.05 -127.15 67.75 -127.25 66.9 -125.95 63.7 -125.9 63.7 -124.6 63.95 -124.8 59.35 -125.55 58.8 -125.55 57.95 -126.1 58.5 -127.65 57.45 -129.15 56.5 -128.0 53.85 -126.95 54.15 -127.05 49.35 -127.05 49.25 -127.8 48.4 -127.9 48.3 -127.8 48.3 -127.8 47.25 -127.15 46.9 -124.7 48.4 Q-124.9 21.65 -117.0 9.4 -102.45 -5.6 -84.85 -2.4 L-78.35 -1.15 Q-57.75 6.4 -56.1 6.35 L-52.15 6.85 -49.25 6.75 Q-44.75 6.1 -42.6 5.05 L-38.0 2.3 -35.2 -0.3 Q-32.4 -4.35 -29.8 -6.65 L-29.45 -6.25 -28.6 -6.05 Q-26.65 -6.5 -24.05 -6.05 L-18.95 -4.95 M-121.25 58.5 L-124.8 56.05 -124.7 55.95 -124.7 48.4 -124.7 55.95 -124.8 56.05 -121.25 58.5 M-54.7 48.1 L-55.45 50.2 -55.4 50.25 -54.3 50.95 -54.15 50.2 -54.7 48.1 -55.55 45.6 -58.15 41.5 -64.2 33.25 -58.15 41.5 -55.55 45.6 -54.7 48.1 M-49.9 61.85 L-48.4 61.6 -49.9 61.85 -49.8 61.8 -51.3 60.95 Q-57.5 59.2 -58.15 58.5 L-59.05 61.5 -61.75 67.45 -59.0 65.1 -55.55 63.4 -50.1 62.15 -49.9 61.85 M-47.55 53.6 L-50.55 54.55 -47.55 53.6 M-63.1 69.9 L-61.75 67.45 -63.1 69.9 M-55.8 51.35 L-56.2 50.2 -55.4 50.25 -56.2 50.2 -55.8 51.35 -56.95 55.2 -50.55 54.55 -54.4 52.45 -55.8 51.35 M-53.75 51.3 L-53.45 51.3 -52.45 51.6 -52.05 51.7 -52.45 51.6 -53.85 51.5 -53.95 51.3 -53.75 51.3 -54.3 50.95 -53.75 51.3 -53.95 51.3 -53.85 51.5 -52.45 51.6 -53.45 51.3 -53.75 51.3 M-58.15 58.5 Q-60.65 55.65 -56.95 55.2 -60.65 55.65 -58.15 58.5 M-127.05 49.35 L-126.75 48.6 -127.05 49.35 M-127.8 48.4 L-127.8 48.3 -127.8 48.4 M-127.65 57.45 L-126.95 54.15 -127.65 57.45 M-124.8 56.05 L-125.55 56.4 -125.55 57.95 -125.55 56.4 -124.8 56.05 M-124.4 57.95 L-124.8 59.35 -124.4 57.95 M-106.3 120.1 L-107.2 118.25 -107.65 115.6 -106.8 107.3 -106.8 106.55 -106.8 107.3 -107.65 115.6 -107.2 118.25 -106.3 120.1 M-107.65 103.25 L-108.85 109.5 -107.65 103.25 M-101.25 99.4 L-100.8 99.4 -98.45 99.2 -100.8 99.4 -101.25 99.4 M-121.05 66.7 L-123.4 68.8 -121.05 66.7 M-103.1 99.4 L-103.4 98.95 -103.85 98.45 -103.4 98.95 -103.1 99.4 M-124.6 63.95 L-124.9 66.2 -126.2 69.15 -124.9 66.2 -124.6 63.95" fill="#ffffff" fill-rule="evenodd" stroke="none"/>
    <path d="M-17.85 -18.75 L-17.95 -18.95 Q-14.7 -21.55 -12.2 -18.8 L-17.85 -18.75 M-8.7 -16.05 L-9.45 -15.75 -11.25 -15.95 -11.7 -16.45 -11.55 -16.9 -10.5 -17.3 -8.9 -17.1 -8.5 -16.45 -8.7 -16.05" fill="#000000" fill-rule="evenodd" stroke="none"/>
    <path d="M-16.9 -6.35 L-17.95 -9.0 Q-18.15 -12.4 -17.25 -13.4 L-16.45 -14.7 -15.1 -16.05 -17.85 -18.75 -12.2 -18.8 -10.5 -17.85 Q-1.8 -16.35 -2.4 -9.45 -3.05 0.05 -16.9 -6.35 M-8.7 -16.05 L-8.5 -16.45 -8.9 -17.1 -10.5 -17.3 -11.55 -16.9 -11.7 -16.45 -11.25 -15.95 -9.45 -15.75 -8.7 -16.05 M-15.1 -16.05 L-13.9 -16.9 -10.5 -17.85 -13.9 -16.9 -15.1 -16.05" fill="#ff7a16" fill-rule="evenodd" stroke="none"/>
    <path d="M-33.85 -39.25 L-33.5 -38.75 -33.5 -38.6 -33.4 -38.0 -33.4 -37.75 -33.35 -37.6 -33.3 -37.3 -33.1 -36.85 -33.05 -36.4 -32.85 -36.0 -32.8 -35.45 -32.8 -35.35 -32.45 -34.35 -32.45 -34.3 -32.4 -33.7 M-33.4 -38.0 L-33.45 -37.55 -33.5 -36.45 -33.25 -35.35 -33.3 -35.85 -33.2 -36.6 -33.3 -37.05 -33.35 -37.6 M-33.5 -38.6 L-33.45 -37.55 M-33.5 -38.6 L-33.75 -38.1 -33.5 -36.45 M-33.85 -39.25 L-33.75 -38.1 M-32.85 -36.0 L-32.85 -35.85 -32.8 -35.45 M-32.8 -35.35 L-32.8 -34.9 M-33.05 -36.4 L-33.0 -36.05 -32.85 -35.85 M-33.25 -35.35 L-33.2 -35.1 -33.1 -34.7 -33.0 -34.15 -32.8 -33.5 -32.8 -33.3 -32.7 -33.05 -32.65 -32.8 -32.6 -32.6 -32.55 -32.45 -32.5 -32.15 -31.15 -27.35 -30.45 -27.05 -23.6 -13.4 -18.95 -4.95 Q-9.95 0.6 -16.9 -6.35 L-17.95 -9.0 Q-18.15 -12.4 -17.25 -13.4 L-16.45 -14.7 -15.1 -16.05 -17.85 -18.75 -17.95 -18.95 Q-19.25 -19.6 -21.35 -22.75 L-29.45 -35.35 Q-34.0 -43.0 -33.85 -39.25 M-32.7 -33.05 L-32.7 -33.0 -32.65 -32.8 M-32.15 -33.4 L-32.15 -32.8 M-33.3 -37.3 L-33.3 -37.05 M-31.15 -27.35 Q-31.55 -24.1 -30.45 -9.55 L-29.8 -6.65 -29.45 -6.25 -28.6 -6.05 Q-26.65 -6.5 -24.05 -6.05 L-18.95 -4.95 M-29.8 -6.65 Q-32.4 -4.35 -35.2 -0.3 L-38.0 2.3 -42.6 5.05 Q-44.75 6.1 -49.25 6.75 L-52.15 6.85 -56.1 6.35 Q-57.75 6.4 -78.35 -1.15 L-84.85 -2.4 Q-102.45 -5.6 -117.0 9.4 -124.9 21.65 -124.7 48.4 L-124.7 55.95 -124.8 56.05 -121.25 58.5 M-8.7 -16.05 L-8.5 -16.45 -8.9 -17.1 -10.5 -17.3 -11.55 -16.9 -11.7 -16.45 -11.25 -15.95 -9.45 -15.75 -8.7 -16.05 M-10.5 -17.85 L-13.9 -16.9 -15.1 -16.05 M-12.2 -18.8 Q-14.7 -21.55 -17.95 -18.95 M-12.2 -18.8 L-17.85 -18.75 M-10.5 -17.85 L-12.2 -18.8 M-19.15 -8.6 L-18.8 -8.3 -18.5 -7.85 -16.6 -5.6 M-19.45 -9.2 L-19.35 -8.95 M-2.4 -9.45 Q-1.8 -16.35 -10.5 -17.85 M-2.4 -9.45 Q-3.05 0.05 -16.9 -6.35 M-49.9 33.4 L-48.2 27.3 Q-46.5 22.8 -45.2 21.75 L-41.15 18.05 Q-39.7 16.85 -36.9 16.15 L-34.15 15.55 -30.2 15.35 Q-29.2 15.1 -22.85 17.2 L-17.0 17.6 -13.4 16.85 Q-12.35 16.8 -8.7 14.4 2.6 4.8 -2.4 -9.45 M-54.7 48.1 L-55.45 50.2 -55.4 50.25 -54.3 50.95 -54.15 50.2 -54.7 48.1 -55.55 45.6 -58.15 41.5 -64.2 33.25 M-58.65 26.65 L-57.7 27.95 -49.9 33.4 -49.9 33.45 Q-32.1 48.2 -37.05 65.75 -39.6 71.35 -51.55 72.8 -64.3 74.4 -63.1 69.9 -75.9 94.1 -98.5 99.1 L-98.45 99.2 Q-95.9 104.0 -96.5 108.45 L-98.2 116.45 Q-100.1 121.0 -101.6 121.35 L-102.85 121.65 -104.65 121.45 -106.3 120.1 -108.0 119.95 -109.05 119.45 -110.1 118.15 -110.4 116.7 -110.0 113.25 -108.85 109.5 -109.55 108.8 -110.0 107.6 -109.75 105.4 Q-107.25 99.9 -103.85 98.45 L-103.8 98.45 -110.6 93.65 Q-114.75 90.15 -116.5 86.95 -118.8 83.15 -120.85 77.05 L-123.3 68.75 -123.4 68.8 -125.75 70.55 -126.5 70.55 -126.2 69.15 -126.15 69.05 -127.15 67.75 -127.25 66.9 -125.95 63.7 -125.95 63.65 -132.7 58.2 Q-145.55 66.1 -147.4 61.5 -149.2 59.3 -149.3 56.8 L-149.5 49.85 -149.6 44.9 -149.8 37.2 -149.65 36.35 Q-148.9 32.55 -147.2 38.8 L-146.0 28.35 -145.45 26.15 -144.85 26.05 -144.7 26.0 -144.3 24.95 -143.85 24.85 -143.45 25.5 -142.9 30.5 -142.6 35.15 -142.6 35.8 -142.6 36.65 -142.6 37.75 -142.6 38.15 -142.6 38.6 -142.9 44.1 -142.35 47.3 Q-143.8 49.7 -134.8 44.25 L-132.35 44.05 -130.85 44.9 -127.9 48.3 -127.8 48.3 -127.8 47.25 -127.15 46.9 -124.7 48.4 M-50.55 54.55 L-47.55 53.6 M-48.4 61.6 L-49.9 61.85 -50.1 62.15 -55.55 63.4 -59.0 65.1 -61.75 67.45 -63.1 69.9 M-49.9 61.85 L-49.8 61.8 -51.3 60.95 Q-57.5 59.2 -58.15 58.5 L-59.05 61.5 -61.75 67.45 M-52.05 51.7 L-52.45 51.6 -53.85 51.5 -53.95 51.3 -53.75 51.3 -54.3 50.95 M-52.45 51.6 L-53.45 51.3 -53.75 51.3 M-55.4 50.25 L-56.2 50.2 -55.8 51.35 -54.4 52.45 -50.55 54.55 -56.95 55.2 Q-60.65 55.65 -58.15 58.5 M-55.8 51.35 L-56.95 55.2 M-144.85 26.05 L-144.75 26.45 -144.8 26.65 -145.2 28.65 -145.2 28.7 -145.55 30.45 -145.55 30.5 -146.0 32.85 -146.0 33.25 M-143.0 34.75 Q-143.8 30.75 -145.35 34.65 M-146.95 44.65 Q-149.1 40.75 -149.3 45.75 L-149.3 45.95 -149.3 46.25 -149.35 46.65 -149.5 49.85 M-149.3 45.75 L-149.6 44.25 -149.6 44.9 M-149.35 46.65 L-149.3 45.95 M-147.2 38.8 L-145.35 48.6 -145.35 48.85 -144.85 51.6 -142.15 51.8 -140.55 51.3 -134.4 47.1 -132.9 46.9 Q-132.5 46.65 -129.9 51.6 L-128.0 53.85 -126.95 54.15 -127.05 49.35 -127.05 49.25 -127.8 48.4 -127.9 48.3 M-149.6 44.25 L-149.5 37.75 -149.65 36.35 M-127.8 48.3 L-127.8 48.4 M-126.75 48.6 L-127.05 49.35 M-126.1 58.5 L-127.65 57.45 -129.15 56.5 -132.25 55.0 Q-133.75 54.25 -142.5 58.6 L-143.55 57.75 -144.0 56.5 -144.85 51.6 M-125.55 58.8 L-125.55 57.95 -126.1 58.5 -125.55 58.8 -124.8 59.35 -124.4 57.95 M-125.55 57.95 L-125.55 56.4 -124.8 56.05 M-126.95 54.15 L-127.65 57.45 M-129.15 56.5 L-128.0 53.85 M-125.9 63.7 L-124.6 63.95 -124.8 59.35 M-125.95 63.7 L-125.9 63.7 -125.95 63.65 M-126.2 69.15 L-124.9 66.2 -124.6 63.95 M-103.85 98.45 L-103.4 98.95 -103.1 99.4 M-123.4 68.8 L-121.05 66.7 M-98.45 99.2 L-100.8 99.4 -101.25 99.4 M-108.85 109.5 L-107.65 103.25 M-106.8 106.55 L-106.8 107.3 -107.65 115.6 -107.2 118.25 -106.3 120.1" fill="none" stroke="#000000" stroke-linecap="round" stroke-linejoin="round" stroke-width="0.05"/>
  </g>
</svg>
