<?xml version="1.0" encoding="UTF-8" standalone="no"?>
<svg xmlns:xlink="http://www.w3.org/1999/xlink" height="179.8px" width="120.65px" xmlns="http://www.w3.org/2000/svg">
  <g transform="matrix(1.0, 0.0, 0.0, 1.0, 149.4, 67.5)">
    <path d="M-77.7 -66.6 L-77.95 -66.85 -78.15 -67.5 -77.3 -67.5 Q-71.75 -65.85 -56.1 -56.3 L-53.1 -55.25 -51.1 -54.6 -49.9 -54.3 Q-52.4 -51.3 -50.55 -46.3 L-50.25 -45.25 -48.55 -43.5 -47.9 -42.65 -47.45 -42.5 -45.45 -41.6 -44.8 -41.2 -44.8 -40.75 -45.2 -40.45 -49.9 -41.3 -56.45 -46.3 -69.1 -57.3 -69.65 -57.5 -72.5 -60.45 -73.75 -61.7 -74.0 -61.95 -74.45 -62.5 -74.9 -63.1 -75.25 -63.55 -75.7 -64.1 -76.1 -64.6 -76.45 -65.05 -76.9 -65.6 -76.45 -65.45 -76.7 -65.75 -77.25 -66.15 -77.7 -66.6 -77.25 -66.15 -76.7 -65.75 -76.45 -65.45 -76.9 -65.6 -77.7 -66.6 M-77.25 -66.15 L-77.2 -66.0 -76.7 -65.75 -77.2 -66.0 -77.25 -66.15 M-70.35 -58.85 L-71.55 -59.95 -71.65 -60.05 -73.45 -61.95 -73.8 -62.3 -74.4 -62.8 -74.55 -63.1 -74.7 -63.3 -75.0 -63.7 -75.55 -64.35 -75.9 -64.85 -76.2 -65.1 -76.3 -65.25 -76.45 -65.05 -76.3 -65.25 -76.2 -65.1 -75.9 -64.85 -75.55 -64.35 -75.0 -63.7 -74.7 -63.3 -74.55 -63.1 -74.4 -62.8 -73.8 -62.3 -73.45 -61.95 -71.65 -60.05 -71.55 -59.95 -70.35 -58.85 M-76.2 -65.1 L-76.1 -64.6 -76.2 -65.1 M-75.55 -64.35 L-76.05 -64.6 -75.7 -64.1 -76.05 -64.6 -75.55 -64.35 M-73.45 -61.95 L-73.35 -61.65 -73.0 -61.4 -72.5 -60.45 -73.0 -61.4 -73.35 -61.65 -73.45 -61.95 M-74.7 -63.3 L-75.15 -63.55 -74.9 -63.1 -75.15 -63.55 -74.7 -63.3 M-74.45 -62.5 L-74.55 -62.8 -74.4 -62.8 -74.55 -62.8 -74.45 -62.5 M-75.25 -63.55 L-75.45 -64.1 -75.0 -63.7 -75.45 -64.1 -75.25 -63.55 M-73.8 -62.3 L-73.75 -61.7 -73.8 -62.3 M-48.4 -42.65 L-47.45 -42.5 -48.4 -42.65 M-114.35 74.05 L-123.6 74.3 Q-129.9 84.7 -130.8 84.1 L-131.85 84.6 -134.5 84.6 -137.6 82.9 Q-139.35 79.75 -146.4 72.45 L-146.75 71.5 -145.9 70.85 -145.75 70.75 -147.7 67.7 -149.4 64.05 -149.3 63.3 -148.65 63.3 -147.25 64.15 -147.25 63.0 Q-146.5 62.4 -143.75 65.75 L-133.65 79.2 -131.7 79.5 -130.8 78.65 Q-126.35 71.55 -125.55 71.5 L-124.05 70.9 -117.25 70.1 -116.8 71.15 -114.35 74.05 M-117.25 63.85 L-120.55 63.4 -124.25 62.35 -125.65 62.35 -126.95 63.4 -129.9 69.6 -131.0 71.1 -132.15 72.05 -133.4 72.6 -136.2 72.25 -138.75 70.3 Q-140.65 66.05 -144.7 60.5 L-145.25 59.45 -145.25 58.6 -144.85 58.4 -147.6 51.8 -147.6 50.4 -146.55 50.95 -146.5 50.85 -146.35 50.65 -145.75 50.7 -144.2 52.2 -141.5 55.95 -137.25 63.4 -134.6 67.25 -133.65 67.75 -132.8 67.7 -129.3 61.6 -127.45 59.8 -125.75 59.25 -124.05 59.25 -119.9 59.8 -119.8 60.85 -117.45 63.4 -117.25 63.85 M-143.85 67.35 L-147.25 64.15 -143.85 67.35 M-145.9 70.85 L-144.3 71.15 -145.9 70.85 M-144.85 58.4 L-143.55 58.5 -144.85 58.4 M-142.7 55.4 L-144.75 52.9 -145.05 52.45 -146.5 50.85 -145.05 52.45 -144.75 52.9 -142.7 55.4" fill="#fa410f" fill-rule="evenodd" stroke="none"/>
    <path d="M-69.65 -57.5 L-69.1 -57.3 -56.45 -46.3 -49.9 -41.3 Q-55.7 -40.35 -58.45 -38.55 L-59.6 -38.55 -61.85 -41.4 Q-70.1 -57.05 -69.65 -57.5" fill="#fa420e" fill-rule="evenodd" stroke="none"/>
    <path d="M-51.1 -54.6 L-53.1 -55.25 Q-50.45 -60.9 -45.65 -57.7 L-46.7 -57.3 -48.85 -55.65 -51.1 -54.6 M-45.2 -56.85 L-45.0 -56.45 -45.55 -55.35 -46.65 -54.6 -47.9 -54.75 -48.1 -55.35 -47.7 -56.0 -46.0 -56.85 -45.2 -56.85" fill="#000000" fill-rule="evenodd" stroke="none"/>
    <path d="M-45.65 -57.7 Q-38.9 -59.05 -37.05 -55.45 -33.75 -48.55 -37.25 -46.3 -40.75 -42.4 -48.55 -43.5 L-50.25 -45.25 -50.55 -46.3 Q-52.4 -51.3 -49.9 -54.3 L-48.85 -55.65 -49.9 -54.3 -51.1 -54.6 -48.85 -55.65 -46.7 -57.3 -45.65 -57.7 M-45.2 -56.85 L-46.0 -56.85 -47.7 -56.0 -48.1 -55.35 -47.9 -54.75 -46.65 -54.6 -45.55 -55.35 -45.0 -56.45 -45.2 -56.85" fill="#ff7a16" fill-rule="evenodd" stroke="none"/>
    <path d="M-59.6 -38.55 L-58.45 -38.55 Q-55.7 -40.35 -49.9 -41.3 L-45.2 -40.45 -44.8 -40.75 -44.8 -41.2 -45.45 -41.6 -47.45 -42.5 -47.9 -42.65 -48.55 -43.5 Q-40.75 -42.4 -37.25 -46.3 -33.75 -48.55 -37.05 -55.45 -24.65 -44.55 -30.75 -29.6 L-33.4 -25.35 Q-35.4 -23.0 -38.0 -21.5 -37.65 -20.65 -52.4 -17.25 L-57.5 -13.7 Q-59.95 -11.55 -61.1 -8.3 L-62.6 -3.05 -62.5 2.35 -60.3 17.5 -60.25 17.6 Q-46.1 26.05 -45.15 44.95 -47.2 54.6 -57.45 61.3 L-57.6 61.35 -57.6 61.4 Q-59.4 73.75 -72.4 89.4 L-72.4 89.45 -72.05 89.85 -69.0 91.35 -66.95 93.95 -63.75 104.2 -63.35 107.3 Q-64.7 116.05 -71.75 109.45 L-72.5 108.25 -72.6 108.15 -72.6 108.05 -72.7 107.95 -72.9 107.5 -73.05 107.4 -73.05 107.3 -73.75 105.7 -74.4 104.4 -74.4 104.3 -74.55 104.2 -74.85 103.35 -74.95 103.25 -74.95 103.15 -75.05 103.05 -75.05 102.9 -75.15 102.85 -75.15 102.7 Q-79.3 96.95 -77.1 92.05 -87.4 94.15 -99.45 84.5 L-103.3 81.1 -109.55 74.6 -109.7 74.6 -111.4 80.1 Q-112.25 81.75 -113.1 76.85 L-113.3 76.45 -113.3 76.4 -113.35 76.15 -113.6 75.15 -114.35 74.05 -116.8 71.15 -117.25 70.1 -117.0 68.55 -118.0 67.55 -118.0 67.05 -115.95 66.85 -116.15 66.25 -116.15 66.2 -116.3 66.05 -116.5 65.0 -117.25 63.85 -117.45 63.4 -119.8 60.85 -119.9 59.8 -119.8 58.75 -119.9 58.6 -120.65 57.65 -120.4 57.45 Q-127.35 47.3 -131.4 27.0 -133.45 21.85 -125.65 8.25 -119.05 -1.95 -111.25 -5.1 -109.7 -7.7 -77.8 -13.9 L-74.6 -15.3 -71.15 -17.65 Q-61.55 -26.0 -59.6 -38.55 M-57.6 61.4 L-65.6 66.4 -67.1 66.9 -68.85 66.9 -69.7 66.5 -70.25 65.55 -70.25 63.4 Q-70.1 61.5 -67.6 57.45 L-63.35 52.45 -58.85 48.6 -59.4 48.3 -61.55 48.4 -67.7 49.85 -69.65 49.65 -70.55 48.95 Q-70.9 46.8 -69.5 45.95 L-61.0 39.75 -61.0 39.55 -61.0 39.45 -63.05 39.35 -67.3 39.85 -68.85 39.55 -69.65 39.0 -69.65 38.35 -67.7 38.15 -67.15 37.3 -67.1 34.85 -67.7 32.4 -68.8 30.5 -72.85 25.05 -79.5 17.85 -72.85 25.05 -68.8 30.5 -67.7 32.4 -67.1 34.85 -67.15 37.3 -67.7 38.15 -69.65 38.35 -69.65 39.0 -68.85 39.55 -67.3 39.85 -63.05 39.35 -61.0 39.45 -61.0 39.55 -60.15 38.8 -61.0 39.55 -61.0 39.75 -69.5 45.95 Q-70.9 46.8 -70.55 48.95 L-69.65 49.65 -67.7 49.85 -61.55 48.4 -59.4 48.3 -58.85 48.6 -63.35 52.45 -67.6 57.45 Q-70.1 61.5 -70.25 63.4 L-70.25 65.55 -69.7 66.5 -68.85 66.9 -67.1 66.9 -65.6 66.4 -57.6 61.4 M-60.3 17.5 L-70.05 12.7 -72.2 10.65 -70.05 12.7 -60.3 17.5 M-77.5 94.8 L-77.5 94.4 -77.5 94.8 M-77.1 92.05 L-76.6 92.25 -76.3 92.4 -76.6 92.25 -77.1 92.05 M-73.45 90.45 L-73.25 90.2 -72.65 89.7 -72.4 89.45 -72.65 89.7 -72.5 90.05 -72.65 89.7 -73.25 90.2 -73.45 90.45 M-115.95 66.85 L-114.8 66.7 -119.8 58.75 -119.8 58.6 -119.9 58.6 -119.8 58.6 -120.4 57.45 -119.8 58.6 -119.8 58.75 -114.8 66.7 -113.8 66.9 -113.95 66.25 -113.8 66.9 -114.8 66.7 -115.95 66.85 M-75.05 102.7 L-76.45 99.7 -75.05 102.7 -74.85 103.35 -75.05 102.7 -75.15 102.7 -75.05 102.7 M-72.9 107.5 L-72.9 107.4 -73.05 107.4 -72.9 107.4 -72.9 107.5 M-74.4 104.3 L-74.4 104.2 -74.55 104.2 -74.4 104.2 -74.4 104.3 M-73.75 105.7 L-74.3 104.4 -74.4 104.4 -74.3 104.4 -73.75 105.7 M-113.35 76.15 L-113.3 76.45 -113.35 76.15 M-109.7 74.6 L-109.35 73.5 -109.05 73.65 -109.35 73.5 -109.7 74.6" fill="#ffffff" fill-rule="evenodd" stroke="none"/>
    <path d="M-53.1 -55.25 L-56.1 -56.3 Q-71.75 -65.85 -77.3 -67.5 L-78.15 -67.5 -77.95 -66.85 -77.7 -66.6 -77.25 -66.15 -76.7 -65.75 -76.45 -65.45 -76.9 -65.6 -76.45 -65.05 -76.3 -65.25 -76.2 -65.1 -75.9 -64.85 -75.55 -64.35 -75.0 -63.7 -74.7 -63.3 -74.55 -63.1 -74.4 -62.8 -73.8 -62.3 -73.45 -61.95 -71.65 -60.05 -71.55 -59.95 -70.35 -58.85 M-76.7 -65.75 L-77.2 -66.0 -77.25 -66.15 M-77.7 -66.6 L-76.9 -65.6 M-76.1 -64.6 L-76.2 -65.1 M-76.45 -65.05 L-76.1 -64.6 -75.7 -64.1 -76.05 -64.6 -75.55 -64.35 M-69.65 -57.5 L-72.5 -60.45 -73.75 -61.7 -74.0 -61.95 -74.45 -62.5 -74.9 -63.1 -75.25 -63.55 -75.7 -64.1 M-75.0 -63.7 L-75.45 -64.1 -75.25 -63.55 M-74.4 -62.8 L-74.55 -62.8 -74.45 -62.5 M-74.9 -63.1 L-75.15 -63.55 -74.7 -63.3 M-72.5 -60.45 L-73.0 -61.4 -73.35 -61.65 -73.45 -61.95 M-49.9 -41.3 L-56.45 -46.3 -69.1 -57.3 -69.65 -57.5 Q-70.1 -57.05 -61.85 -41.4 L-59.6 -38.55 -58.45 -38.55 Q-55.7 -40.35 -49.9 -41.3 L-45.2 -40.45 -44.8 -40.75 -44.8 -41.2 -45.45 -41.6 -47.45 -42.5 -48.4 -42.65 M-73.75 -61.7 L-73.8 -62.3 M-51.1 -54.6 L-53.1 -55.25 Q-50.45 -60.9 -45.65 -57.7 -38.9 -59.05 -37.05 -55.45 -24.65 -44.55 -30.75 -29.6 L-33.4 -25.35 Q-35.4 -23.0 -38.0 -21.5 -37.65 -20.65 -52.4 -17.25 L-57.5 -13.7 Q-59.95 -11.55 -61.1 -8.3 L-62.6 -3.05 -62.5 2.35 -60.3 17.5 -60.25 17.6 Q-46.1 26.05 -45.15 44.95 -47.2 54.6 -57.45 61.3 L-57.6 61.4 Q-59.4 73.75 -72.4 89.4 L-72.4 89.45 -72.05 89.85 -69.0 91.35 -66.95 93.95 -63.75 104.2 -63.35 107.3 Q-64.7 116.05 -71.75 109.45 L-72.5 108.25 -72.6 108.15 -72.6 108.05 -72.7 107.95 -72.9 107.5 -73.05 107.4 -73.05 107.3 -73.75 105.7 -74.4 104.4 -74.4 104.3 -74.55 104.2 -74.85 103.35 -74.95 103.25 -74.95 103.15 -75.05 103.05 -75.05 102.9 -75.15 102.85 -75.15 102.7 Q-79.3 96.95 -77.1 92.05 -87.4 94.15 -99.45 84.5 L-103.3 81.1 -109.55 74.6 -109.7 74.6 -111.4 80.1 Q-112.25 81.75 -113.1 76.85 L-113.3 76.45 -113.3 76.4 -113.35 76.15 -113.6 75.15 -114.35 74.05 -123.6 74.3 Q-129.9 84.7 -130.8 84.1 L-131.85 84.6 -134.5 84.6 -137.6 82.9 Q-139.35 79.75 -146.4 72.45 L-146.75 71.5 -145.9 70.85 -145.75 70.75 -147.7 67.7 -149.4 64.05 -149.3 63.3 -148.65 63.3 -147.25 64.15 -147.25 63.0 Q-146.5 62.4 -143.75 65.75 L-133.65 79.2 -131.7 79.5 -130.8 78.65 Q-126.35 71.55 -125.55 71.5 L-124.05 70.9 -117.25 70.1 -117.0 68.55 -118.0 67.55 -118.0 67.05 -115.95 66.85 -116.15 66.25 -116.15 66.2 -116.3 66.05 -116.5 65.0 -117.25 63.85 -120.55 63.4 -124.25 62.35 -125.65 62.35 -126.95 63.4 -129.9 69.6 -131.0 71.1 -132.15 72.05 -133.4 72.6 -136.2 72.25 -138.75 70.3 Q-140.65 66.05 -144.7 60.5 L-145.25 59.45 -145.25 58.6 -144.85 58.4 -147.6 51.8 -147.6 50.4 -146.55 50.95 -146.5 50.85 -146.35 50.65 -145.75 50.7 -144.2 52.2 -141.5 55.95 -137.25 63.4 -134.6 67.25 -133.65 67.75 -132.8 67.7 -129.3 61.6 -127.45 59.8 -125.75 59.25 -124.05 59.25 -119.9 59.8 -119.8 58.75 -119.9 58.6 -120.65 57.65 -120.4 57.45 Q-127.35 47.3 -131.4 27.0 -133.45 21.85 -125.65 8.25 -119.05 -1.95 -111.25 -5.1 -109.7 -7.7 -77.8 -13.9 L-74.6 -15.3 -71.15 -17.65 Q-61.55 -26.0 -59.6 -38.55 M-45.2 -56.85 L-46.0 -56.85 -47.7 -56.0 -48.1 -55.35 -47.9 -54.75 -46.65 -54.6 -45.55 -55.35 -45.0 -56.45 -45.2 -56.85 M-45.65 -57.7 L-46.7 -57.3 -48.85 -55.65 -49.9 -54.3 Q-52.4 -51.3 -50.55 -46.3 L-50.25 -45.25 -48.55 -43.5 Q-40.75 -42.4 -37.25 -46.3 -33.75 -48.55 -37.05 -55.45 M-48.85 -55.65 L-51.1 -54.6 -49.9 -54.3 M-48.55 -43.5 L-47.9 -42.65 -47.45 -42.5 M-72.2 10.65 L-70.05 12.7 -60.3 17.5 M-79.5 17.85 L-72.85 25.05 -68.8 30.5 -67.7 32.4 -67.1 34.85 -67.15 37.3 -67.7 38.15 -69.65 38.35 -69.65 39.0 -68.85 39.55 -67.3 39.85 -63.05 39.35 -61.0 39.45 -61.0 39.55 -60.15 38.8 M-61.0 39.55 L-61.0 39.75 -69.5 45.95 Q-70.9 46.8 -70.55 48.95 L-69.65 49.65 -67.7 49.85 -61.55 48.4 -59.4 48.3 -58.85 48.6 -63.35 52.45 -67.6 57.45 Q-70.1 61.5 -70.25 63.4 L-70.25 65.55 -69.7 66.5 -68.85 66.9 -67.1 66.9 -65.6 66.4 -57.6 61.4 -57.6 61.35 -57.45 61.3 M-72.4 89.45 L-72.65 89.7 -72.5 90.05 M-72.65 89.7 L-73.25 90.2 -73.45 90.45 M-76.3 92.4 L-76.6 92.25 -77.1 92.05 M-77.5 94.4 L-77.5 94.8 M-146.5 50.85 L-145.05 52.45 -144.75 52.9 -142.7 55.4 M-143.55 58.5 L-144.85 58.4 M-144.3 71.15 L-145.9 70.85 M-147.25 64.15 L-143.85 67.35 M-117.25 63.85 L-117.45 63.4 -119.8 60.85 -119.9 59.8 M-119.9 58.6 L-119.8 58.6 -120.4 57.45 M-119.8 58.6 L-119.8 58.75 -114.8 66.7 -113.8 66.9 -113.95 66.25 M-114.8 66.7 L-115.95 66.85 M-114.35 74.05 L-116.8 71.15 -117.25 70.1 M-109.05 73.65 L-109.35 73.5 -109.7 74.6 M-113.3 76.45 L-113.35 76.15 M-74.85 103.35 L-75.05 102.7 -75.15 102.7 M-74.4 104.4 L-74.3 104.4 -73.75 105.7 M-74.55 104.2 L-74.4 104.2 -74.4 104.3 M-73.05 107.4 L-72.9 107.4 -72.9 107.5 M-76.45 99.7 L-75.05 102.7" fill="none" stroke="#000000" stroke-linecap="round" stroke-linejoin="round" stroke-width="0.05"/>
  </g>
</svg>
