<?xml version="1.0" encoding="UTF-8" standalone="no"?>
<svg xmlns:xlink="http://www.w3.org/1999/xlink" height="169.5px" width="102.15px" xmlns="http://www.w3.org/2000/svg">
  <g transform="matrix(1.0, 0.0, 0.0, 1.0, 133.65, 46.15)">
    <path d="M-113.2 -32.15 L-117.85 -33.5 -124.6 -36.3 -126.3 -37.25 -125.65 -37.7 Q-112.25 -38.55 -101.4 -37.7 L-96.5 -38.4 -95.0 -38.6 -95.0 -35.35 Q-94.6 -32.85 -92.3 -30.55 L-89.1 -28.95 -87.95 -28.2 -85.9 -28.1 -84.75 -27.65 -85.05 -27.05 -89.3 -26.2 -113.2 -32.15 M-95.2 103.75 L-101.6 109.2 Q-102.55 118.5 -103.5 120.4 L-105.2 122.45 -108.6 123.35 Q-113.2 122.25 -124.6 122.2 L-125.3 121.9 -125.45 121.15 -123.1 119.25 -129.3 115.6 -130.2 114.4 -129.7 113.9 -124.4 114.0 -126.4 111.8 -126.95 111.0 -126.95 110.35 Q-126.55 109.8 -122.7 111.45 L-111.6 117.3 -109.75 117.85 -107.65 117.95 -106.3 116.75 -104.65 107.95 -104.0 106.9 -99.65 102.5 -98.4 103.25 -95.2 103.75 M-102.0 93.9 L-104.55 95.25 -105.95 96.65 Q-106.6 96.75 -106.35 104.55 L-107.0 106.95 -108.5 108.9 -109.75 109.5 -112.35 109.85 Q-115.2 108.85 -121.05 108.15 L-121.45 108.1 -126.75 107.6 -127.05 106.9 -125.25 105.05 -130.55 101.55 -131.85 100.25 -131.5 99.65 -127.05 99.95 -128.45 98.55 -129.15 97.1 -128.45 96.95 -126.4 97.5 Q-124.1 98.55 -121.85 99.65 L-116.7 103.05 -112.65 104.6 -111.2 104.85 -109.75 104.0 Q-109.45 96.9 -108.85 95.6 L-107.85 93.95 -105.4 91.95 -102.0 93.9 M-124.4 114.0 L-123.4 114.0 -124.4 114.0 M-127.05 99.95 L-125.45 100.05 -127.05 99.95" fill="#fa410f" fill-rule="evenodd" stroke="none"/>
    <path d="M-96.5 -38.4 L-96.5 -38.85 -95.0 -41.5 Q-92.55 -44.35 -91.6 -44.8 -91.15 -45.05 -91.0 -44.8 L-88.8 -45.0 -88.8 -44.95 -88.8 -44.8 -88.7 -44.95 Q-85.4 -45.35 -84.2 -44.6 L-81.35 -42.8 Q-78.0 -40.35 -80.35 -35.35 -82.65 -30.05 -89.1 -28.95 L-92.3 -30.55 Q-94.6 -32.85 -95.0 -35.35 L-95.0 -38.6 -96.5 -38.4 M-88.7 -44.95 L-88.8 -44.8 -88.8 -44.95 -88.7 -44.95 M-92.45 -39.4 L-92.45 -40.95 -93.05 -41.1 -94.2 -39.7 -94.35 -38.4 -93.8 -37.9 -92.95 -38.4 -92.45 -39.4 M-95.0 -38.6 Q-94.6 -41.35 -92.0 -43.45 L-88.8 -44.8 -92.0 -43.45 Q-94.6 -41.35 -95.0 -38.6" fill="#ff7a16" fill-rule="evenodd" stroke="none"/>
    <path d="M-88.8 -45.0 Q-77.7 -49.75 -67.15 -34.8 -64.2 -29.2 -65.9 -21.3 L-66.75 -18.95 -69.4 -14.75 Q-73.2 -10.7 -79.3 -6.35 L-81.65 -3.15 Q-85.3 1.7 -83.35 9.3 -83.9 11.3 -75.45 21.9 L-59.9 40.05 -55.8 46.25 -51.75 54.05 Q-44.7 67.0 -48.75 92.4 L-48.55 92.35 -44.9 91.0 Q-42.8 90.65 -39.8 92.5 -37.65 94.2 -37.85 95.6 L-37.9 95.65 -33.4 99.5 -31.95 101.75 -31.5 103.25 -31.95 105.05 -31.95 107.2 -33.2 109.2 -34.8 109.95 -37.55 109.75 Q-39.4 109.15 -42.45 106.95 L-47.7 102.7 Q-49.0 101.35 -50.95 97.3 -62.0 106.55 -79.75 102.05 L-79.85 102.0 -80.3 102.0 -80.35 101.85 -90.6 99.7 Q-88.35 106.6 -89.65 107.2 -89.85 107.7 -93.6 104.4 L-95.2 103.75 -98.4 103.25 -99.65 102.5 -99.95 99.95 -100.8 98.85 Q-100.85 98.15 -97.85 96.95 L-97.75 96.45 -98.65 95.75 -99.45 95.15 -102.0 93.9 -105.4 91.95 Q-123.2 81.6 -129.9 72.15 L-132.8 66.5 -133.65 61.5 -133.35 53.05 Q-132.05 40.2 -126.1 32.85 -124.05 27.95 -100.3 8.05 L-97.0 2.6 Q-92.2 -8.5 -95.6 -20.85 L-95.05 -20.95 Q-93.8 -23.3 -91.65 -24.35 L-89.3 -26.2 -85.05 -27.05 -84.75 -27.65 -85.9 -28.1 -87.95 -28.2 -89.1 -28.95 Q-82.65 -30.05 -80.35 -35.35 -78.0 -40.35 -81.35 -42.8 L-84.2 -44.6 Q-85.4 -45.35 -88.7 -44.95 L-88.8 -44.95 -88.8 -45.0 M-42.45 92.05 L-37.85 95.6 -42.45 92.05 M-49.05 94.2 L-48.75 92.4 -49.05 94.2 M-92.5 42.85 L-82.85 52.45 -79.45 56.8 Q-77.6 59.85 -77.2 63.4 -80.0 76.25 -69.5 64.5 L-69.2 64.25 -68.8 64.5 -69.2 66.7 -72.0 74.35 Q-75.0 88.85 -63.45 74.35 L-62.05 73.2 -61.85 74.35 -63.65 81.2 -64.2 85.35 Q-64.8 95.6 -62.2 96.3 L-61.75 96.65 -60.15 96.3 Q-57.05 94.15 -54.1 85.35 L-52.05 78.75 -51.1 74.35 Q-50.35 71.15 -50.45 66.7 L-50.95 63.4 Q-52.7 58.15 -53.95 56.5 L-57.05 52.45 Q-61.5 47.15 -64.4 45.4 L-71.0 41.5 -80.7 37.5 Q-85.5 35.15 -84.75 34.95 -85.5 35.15 -80.7 37.5 L-71.0 41.5 -64.4 45.4 Q-61.5 47.15 -57.05 52.45 L-53.95 56.5 Q-52.7 58.15 -50.95 63.4 L-50.45 66.7 Q-50.35 71.15 -51.1 74.35 L-52.05 78.75 -54.1 85.35 Q-57.05 94.15 -60.15 96.3 L-61.75 96.65 -62.2 96.3 Q-64.8 95.6 -64.2 85.35 L-63.65 81.2 -61.85 74.35 -62.05 73.2 -63.45 74.35 Q-75.0 88.85 -72.0 74.35 L-69.2 66.7 -68.8 64.5 -69.2 64.25 -69.5 64.5 Q-80.0 76.25 -77.2 63.4 -77.6 59.85 -79.45 56.8 L-82.85 52.45 -92.5 42.85 M-98.65 95.75 L-97.2 96.3 -97.1 96.55 -95.9 96.95 -97.1 96.55 -97.2 96.3 -98.65 95.75 M-31.95 105.05 Q-32.2 102.95 -34.35 100.7 L-40.25 95.35 -34.35 100.7 Q-32.2 102.95 -31.95 105.05" fill="#ffffff" fill-rule="evenodd" stroke="none"/>
    <path d="M-96.5 -38.85 L-96.6 -40.65 -96.55 -41.3 Q-96.15 -44.95 -91.6 -44.8 -92.55 -44.35 -95.0 -41.5 L-96.5 -38.85 M-92.45 -39.4 L-92.95 -38.4 -93.8 -37.9 -94.35 -38.4 -94.2 -39.7 -93.05 -41.1 -92.45 -40.95 -92.45 -39.4" fill="#000000" fill-rule="evenodd" stroke="none"/>
    <path d="M-95.6 -20.85 L-99.1 -22.2 Q-113.85 -32.0 -113.2 -32.15 L-89.3 -26.2 -91.65 -24.35 Q-93.8 -23.3 -95.05 -20.95 L-95.6 -20.85" fill="#fa420e" fill-rule="evenodd" stroke="none"/>
    <path d="M-113.2 -32.15 L-117.85 -33.5 -124.6 -36.3 -126.3 -37.25 -125.65 -37.7 Q-112.25 -38.55 -101.4 -37.7 L-96.5 -38.4 -96.5 -38.85 -96.6 -40.65 -96.55 -41.3 Q-96.15 -44.95 -91.6 -44.8 -91.15 -45.05 -91.0 -44.8 L-88.8 -45.0 Q-77.7 -49.75 -67.15 -34.8 -64.2 -29.2 -65.9 -21.3 L-66.75 -18.95 -69.4 -14.75 Q-73.2 -10.7 -79.3 -6.35 L-81.65 -3.15 Q-85.3 1.7 -83.35 9.3 -83.9 11.3 -75.45 21.9 L-59.9 40.05 -55.8 46.25 -51.75 54.05 Q-44.7 67.0 -48.75 92.4 L-48.55 92.35 -44.9 91.0 Q-42.8 90.65 -39.8 92.5 -37.65 94.2 -37.85 95.6 L-37.9 95.65 -33.4 99.5 -31.95 101.75 -31.5 103.25 -31.95 105.05 -31.95 107.2 -33.2 109.2 -34.8 109.95 -37.55 109.75 Q-39.4 109.15 -42.45 106.95 L-47.7 102.7 Q-49.0 101.35 -50.95 97.3 -62.0 106.55 -79.75 102.05 L-79.85 102.0 -80.3 102.0 -80.35 101.85 -90.6 99.7 Q-88.35 106.6 -89.65 107.2 -89.85 107.7 -93.6 104.4 L-95.2 103.75 -101.6 109.2 Q-102.55 118.5 -103.5 120.4 L-105.2 122.45 -108.6 123.35 Q-113.2 122.25 -124.6 122.2 L-125.3 121.9 -125.45 121.15 -123.1 119.25 -129.3 115.6 -130.2 114.4 -129.7 113.9 -124.4 114.0 -126.4 111.8 -126.95 111.0 -126.95 110.35 Q-126.55 109.8 -122.7 111.45 L-111.6 117.3 -109.75 117.85 -107.65 117.95 -106.3 116.75 -104.65 107.95 -104.0 106.9 -99.65 102.5 -99.95 99.95 -100.8 98.85 Q-100.85 98.15 -97.85 96.95 L-97.75 96.45 -98.65 95.75 -99.45 95.15 -102.0 93.9 -104.55 95.25 -105.95 96.65 Q-106.6 96.75 -106.35 104.55 L-107.0 106.95 -108.5 108.9 -109.75 109.5 -112.35 109.85 Q-115.2 108.85 -121.05 108.15 L-121.45 108.1 -126.75 107.6 -127.05 106.9 -125.25 105.05 -130.55 101.55 -131.85 100.25 -131.5 99.65 -127.05 99.95 -128.45 98.55 -129.15 97.1 -128.45 96.95 -126.4 97.5 Q-124.1 98.55 -121.85 99.65 L-116.7 103.05 -112.65 104.6 -111.2 104.85 -109.75 104.0 Q-109.45 96.9 -108.85 95.6 L-107.85 93.95 -105.4 91.95 Q-123.2 81.6 -129.9 72.15 L-132.8 66.5 -133.65 61.5 -133.35 53.05 Q-132.05 40.2 -126.1 32.85 -124.05 27.95 -100.3 8.05 L-97.0 2.6 Q-92.2 -8.5 -95.6 -20.85 L-99.1 -22.2 Q-113.85 -32.0 -113.2 -32.15 L-89.3 -26.2 -85.05 -27.05 -84.75 -27.65 -85.9 -28.1 -87.95 -28.2 -89.1 -28.95 -92.3 -30.55 Q-94.6 -32.85 -95.0 -35.35 L-95.0 -38.6 -96.5 -38.4 M-88.8 -44.95 L-88.8 -45.0 M-88.8 -44.95 L-88.8 -44.8 -88.7 -44.95 -88.8 -44.95 M-89.1 -28.95 Q-82.65 -30.05 -80.35 -35.35 -78.0 -40.35 -81.35 -42.8 L-84.2 -44.6 Q-85.4 -45.35 -88.7 -44.95 M-92.45 -39.4 L-92.45 -40.95 -93.05 -41.1 -94.2 -39.7 -94.35 -38.4 -93.8 -37.9 -92.95 -38.4 -92.45 -39.4 M-91.6 -44.8 Q-92.55 -44.35 -95.0 -41.5 L-96.5 -38.85 M-88.8 -44.8 L-92.0 -43.45 Q-94.6 -41.35 -95.0 -38.6 M-95.6 -20.85 L-95.05 -20.95 Q-93.8 -23.3 -91.65 -24.35 L-89.3 -26.2 M-84.75 34.95 Q-85.5 35.15 -80.7 37.5 L-71.0 41.5 -64.4 45.4 Q-61.5 47.15 -57.05 52.45 L-53.95 56.5 Q-52.7 58.15 -50.95 63.4 L-50.45 66.7 Q-50.35 71.15 -51.1 74.35 L-52.05 78.75 -54.1 85.35 Q-57.05 94.15 -60.15 96.3 L-61.75 96.65 -62.2 96.3 Q-64.8 95.6 -64.2 85.35 L-63.65 81.2 -61.85 74.35 -62.05 73.2 -63.45 74.35 Q-75.0 88.85 -72.0 74.35 L-69.2 66.7 -68.8 64.5 -69.2 64.25 -69.5 64.5 Q-80.0 76.25 -77.2 63.4 -77.6 59.85 -79.45 56.8 L-82.85 52.45 -92.5 42.85 M-48.75 92.4 L-49.05 94.2 M-37.85 95.6 L-42.45 92.05 M-102.0 93.9 L-105.4 91.95 M-95.9 96.95 L-97.1 96.55 -97.2 96.3 -98.65 95.75 M-95.2 103.75 L-98.4 103.25 -99.65 102.5 M-125.45 100.05 L-127.05 99.95 M-123.4 114.0 L-124.4 114.0 M-40.25 95.35 L-34.35 100.7 Q-32.2 102.95 -31.95 105.05" fill="none" stroke="#000000" stroke-linecap="round" stroke-linejoin="round" stroke-width="0.05"/>
  </g>
</svg>
