<?xml version="1.0" encoding="UTF-8" standalone="no"?>
<svg xmlns:xlink="http://www.w3.org/1999/xlink" height="162.1px" width="150.05px" xmlns="http://www.w3.org/2000/svg">
  <g transform="matrix(1.0, 0.0, 0.0, 1.0, 161.3, 10.2)">
    <path d="M-132.5 -2.3 L-132.35 -2.4 -129.9 -4.65 -132.35 -2.4 -132.5 -2.3 -132.5 -2.4 -132.9 -2.75 -133.65 -2.6 -133.55 -2.4 -134.2 -2.4 -134.5 -2.0 -134.6 -0.6 -133.85 0.85 -132.5 -2.3 M-133.85 2.05 L-133.85 1.85 -133.85 0.85 -133.85 1.85 -133.85 2.05 -133.95 1.85 Q-136.75 -3.65 -133.95 -6.8 -130.85 -11.1 -124.4 -9.2 L-128.1 -7.3 Q-129.35 -6.55 -129.9 -4.65 -123.1 -7.9 -119.7 -2.4 -118.5 4.85 -122.15 8.55 L-123.3 9.75 -124.45 9.95 -127.15 10.05 Q-130.4 9.05 -130.45 8.55 L-132.55 6.55 -133.35 5.15 -133.55 3.75 -133.1 4.4 -132.5 4.2 -132.25 2.15 -132.9 1.2 -133.35 1.3 -133.75 2.5 -133.75 2.6 -133.85 2.05 M-133.85 1.85 L-133.95 1.85 -133.85 1.85 M-133.85 3.2 L-133.75 3.15 -133.75 3.2 -133.85 3.2" fill="#ff7a16" fill-rule="evenodd" stroke="none"/>
    <path d="M-132.5 -2.3 L-133.85 0.85 -134.6 -0.6 -134.5 -2.0 -134.2 -2.4 -133.55 -2.4 -133.65 -2.6 -132.9 -2.75 -132.5 -2.4 -132.5 -2.3 M-133.75 2.6 L-133.75 2.5 -133.35 1.3 -132.9 1.2 -132.25 2.15 -132.5 4.2 -133.1 4.4 -133.55 3.75 -133.55 3.65 -133.65 3.55 -133.75 3.2 -133.75 3.15 -133.75 2.6" fill="#000000" fill-rule="evenodd" stroke="none"/>
    <path d="M-124.45 9.95 L-123.3 9.75 -122.15 8.55 Q-118.5 4.85 -119.7 -2.4 -123.1 -7.9 -129.9 -4.65 -129.35 -6.55 -128.1 -7.3 L-124.4 -9.2 Q-109.5 -13.45 -99.95 0.45 -97.65 5.3 -98.7 11.1 -97.7 11.45 -105.4 24.85 L-105.95 29.1 Q-105.9 34.95 -100.95 39.15 L-98.25 40.4 -68.45 51.9 -60.15 56.25 -52.8 61.6 Q-43.0 67.2 -33.3 92.9 L-33.15 93.0 -32.8 93.55 -32.55 95.25 -32.8 93.55 -33.15 93.0 Q-32.4 92.85 -28.5 88.2 L-26.2 87.05 -22.65 86.45 Q-21.1 86.35 -19.8 87.8 L-19.35 90.15 Q-13.0 89.85 -11.25 93.65 L-11.35 95.8 -12.55 97.4 -12.65 97.5 -11.9 99.3 -12.2 101.4 -13.6 102.85 -15.6 103.55 -20.4 103.45 -24.7 102.5 Q-27.35 101.9 -32.15 98.45 L-33.2 98.65 -36.85 104.0 -39.7 107.1 -39.65 107.2 -44.6 96.3 -49.2 89.2 -53.0 85.35 Q-58.3 81.4 -65.45 78.35 L-76.3 74.35 -89.55 70.55 Q-93.7 68.7 -94.15 67.35 -93.7 68.7 -89.55 70.55 L-76.3 74.35 -65.45 78.35 Q-58.3 81.4 -53.0 85.35 L-49.2 89.2 -44.6 96.3 -39.65 107.2 Q-37.15 118.7 -39.7 117.85 -41.5 118.65 -43.85 116.7 L-47.95 112.35 -48.0 112.3 Q-56.6 116.05 -71.35 119.25 L-79.65 120.3 -71.35 119.25 -68.65 121.15 Q-66.85 124.7 -67.3 125.0 L-67.8 125.65 -74.85 125.4 -77.95 126.25 -78.45 126.25 -79.45 125.4 -79.85 123.15 -80.6 122.1 -80.6 121.45 -79.65 120.3 -81.55 120.4 -85.5 120.3 Q-100.3 119.55 -116.35 112.7 -120.75 111.0 -124.7 105.45 L-129.35 95.9 Q-133.2 88.4 -130.65 74.7 -131.65 72.55 -118.85 46.15 L-117.8 42.0 -117.55 39.2 Q-116.9 28.75 -126.15 17.9 L-125.45 15.5 Q-124.65 15.1 -123.6 12.4 L-121.05 11.25 -120.55 10.8 -120.4 10.15 -121.2 9.95 -122.45 10.35 -124.45 9.95 M-102.1 75.45 L-84.85 90.45 -80.3 96.3 Q-70.45 116.8 -68.85 96.65 L-67.5 98.45 -63.9 107.3 -61.85 111.2 Q-61.15 112.5 -59.4 113.35 -55.35 114.25 -55.55 107.3 -56.9 93.85 -51.2 107.3 L-47.95 112.35 -51.2 107.3 Q-56.9 93.85 -55.55 107.3 -55.35 114.25 -59.4 113.35 -61.15 112.5 -61.85 111.2 L-63.9 107.3 -67.5 98.45 -68.85 96.65 Q-70.45 116.8 -80.3 96.3 L-84.85 90.45 -102.1 75.45 M-23.7 92.6 L-17.3 94.3 Q-14.15 95.4 -13.5 96.3 L-12.55 97.4 -13.5 96.3 Q-14.15 95.4 -17.3 94.3 L-23.7 92.6 M-26.05 89.5 L-19.35 90.15 -26.05 89.5" fill="#ffffff" fill-rule="evenodd" stroke="none"/>
    <path d="M-133.55 3.75 L-133.35 5.15 -132.55 6.55 -130.45 8.55 Q-130.4 9.05 -127.15 10.05 L-124.45 9.95 -122.45 10.35 -121.2 9.95 -120.4 10.15 -120.55 10.8 -121.05 11.25 -123.6 12.4 -145.45 15.7 -153.85 16.65 -160.9 16.65 -161.3 16.55 -161.1 16.15 Q-160.2 14.4 -137.45 5.5 L-133.85 3.2 -133.75 3.2 -133.65 3.55 -133.55 3.65 -133.55 3.75 M-85.5 120.3 L-81.55 120.4 -80.6 121.45 -80.6 122.1 -79.85 123.15 -79.45 125.4 -81.65 129.25 -81.85 130.5 -81.65 129.25 -79.45 125.4 -78.45 126.25 -77.95 126.25 -74.85 125.4 -78.8 130.5 Q-69.9 139.65 -74.85 142.9 -83.7 146.4 -89.1 150.2 L-93.3 151.9 -93.9 151.9 -94.2 151.25 -92.2 147.35 -98.05 146.6 -100.1 145.95 -99.75 145.1 -93.7 142.05 Q-98.4 138.95 -97.1 138.7 -94.7 137.65 -80.3 139.9 L-78.05 139.25 Q-76.1 139.3 -81.55 132.3 L-81.85 130.5 -87.95 132.75 Q-95.6 137.25 -96.55 137.35 L-97.55 137.45 -97.75 136.8 -96.15 133.3 -96.15 133.15 -96.25 133.15 -96.15 133.15 -96.15 133.3 -96.25 133.15 Q-98.35 132.3 -102.3 132.3 L-103.8 131.7 -103.4 130.95 -102.3 130.3 -97.95 128.4 -98.0 128.35 Q-102.4 126.05 -101.05 125.7 L-95.3 125.3 -88.4 126.35 -85.25 126.25 -83.25 125.85 -82.4 125.0 -82.5 124.2 -85.5 120.3 M-97.4 127.95 L-98.0 128.35 -97.4 127.95" fill="#fa410f" fill-rule="evenodd" stroke="none"/>
    <path d="M-123.6 12.4 Q-124.65 15.1 -125.45 15.5 L-126.15 17.9 -129.9 18.15 Q-145.6 16.15 -145.45 15.7 L-123.6 12.4" fill="#fa420e" fill-rule="evenodd" stroke="none"/>
    <path d="M-129.9 -4.65 L-132.35 -2.4 -132.5 -2.3 -133.85 0.85 -133.85 1.85 -133.85 2.05 -133.75 2.6 -133.75 2.5 -133.35 1.3 -132.9 1.2 -132.25 2.15 -132.5 4.2 -133.1 4.4 -133.55 3.75 -133.35 5.15 -132.55 6.55 -130.45 8.55 Q-130.4 9.05 -127.15 10.05 L-124.45 9.95 -123.3 9.75 -122.15 8.55 Q-118.5 4.85 -119.7 -2.4 -123.1 -7.9 -129.9 -4.65 -129.35 -6.55 -128.1 -7.3 L-124.4 -9.2 Q-130.85 -11.1 -133.95 -6.8 -136.75 -3.65 -133.95 1.85 L-133.85 1.85 M-132.5 -2.3 L-132.5 -2.4 -132.9 -2.75 -133.65 -2.6 -133.55 -2.4 -134.2 -2.4 -134.5 -2.0 -134.6 -0.6 -133.85 0.85 M-33.15 93.0 L-33.3 92.9 Q-43.0 67.2 -52.8 61.6 L-60.15 56.25 -68.45 51.9 -98.25 40.4 -100.95 39.15 Q-105.9 34.95 -105.95 29.1 L-105.4 24.85 Q-97.7 11.45 -98.7 11.1 -97.65 5.3 -99.95 0.45 -109.5 -13.45 -124.4 -9.2 M-94.15 67.35 Q-93.7 68.7 -89.55 70.55 L-76.3 74.35 -65.45 78.35 Q-58.3 81.4 -53.0 85.35 L-49.2 89.2 -44.6 96.3 -39.65 107.2 -39.7 107.1 -36.85 104.0 -33.2 98.65 -32.15 98.45 Q-27.35 101.9 -24.7 102.5 L-20.4 103.45 -15.6 103.55 -13.6 102.85 -12.2 101.4 -11.9 99.3 -12.65 97.5 -12.55 97.4 -13.5 96.3 Q-14.15 95.4 -17.3 94.3 L-23.7 92.6 M-47.95 112.35 L-51.2 107.3 Q-56.9 93.85 -55.55 107.3 -55.35 114.25 -59.4 113.35 -61.15 112.5 -61.85 111.2 L-63.9 107.3 -67.5 98.45 -68.85 96.65 Q-70.45 116.8 -80.3 96.3 L-84.85 90.45 -102.1 75.45 M-33.15 93.0 L-32.8 93.55 -32.55 95.25 M-19.35 90.15 L-19.8 87.8 Q-21.1 86.35 -22.65 86.45 L-26.2 87.05 -28.5 88.2 Q-32.4 92.85 -33.15 93.0 M-12.55 97.4 L-11.35 95.8 -11.25 93.65 Q-13.0 89.85 -19.35 90.15 L-26.05 89.5 M-124.45 9.95 L-122.45 10.35 -121.2 9.95 -120.4 10.15 -120.55 10.8 -121.05 11.25 -123.6 12.4 Q-124.65 15.1 -125.45 15.5 L-126.15 17.9 Q-116.9 28.75 -117.55 39.2 L-117.8 42.0 -118.85 46.15 Q-131.65 72.55 -130.65 74.7 -133.2 88.4 -129.35 95.9 L-124.7 105.45 Q-120.75 111.0 -116.35 112.7 -100.3 119.55 -85.5 120.3 L-81.55 120.4 -79.65 120.3 -71.35 119.25 Q-56.6 116.05 -48.0 112.3 L-47.95 112.35 -43.85 116.7 Q-41.5 118.65 -39.7 117.85 -37.15 118.7 -39.65 107.2 M-133.95 1.85 L-133.85 2.05 M-133.75 3.15 L-133.85 3.2 -133.75 3.2 -133.75 3.15 -133.75 2.6 M-133.55 3.75 L-133.55 3.65 -133.65 3.55 -133.75 3.2 M-133.85 3.2 L-137.45 5.5 Q-160.2 14.4 -161.1 16.15 L-161.3 16.55 -160.9 16.65 -153.85 16.65 -145.45 15.7 -123.6 12.4 M-126.15 17.9 L-129.9 18.15 Q-145.6 16.15 -145.45 15.7 M-98.0 128.35 L-97.95 128.4 -102.3 130.3 -103.4 130.95 -103.8 131.7 -102.3 132.3 Q-98.35 132.3 -96.25 133.15 L-96.15 133.15 -96.15 133.3 -97.75 136.8 -97.55 137.45 -96.55 137.35 Q-95.6 137.25 -87.95 132.75 L-81.85 130.5 -81.65 129.25 -79.45 125.4 -79.85 123.15 -80.6 122.1 -80.6 121.45 -81.55 120.4 M-85.5 120.3 L-82.5 124.2 -82.4 125.0 -83.25 125.85 -85.25 126.25 -88.4 126.35 -95.3 125.3 -101.05 125.7 Q-102.4 126.05 -98.0 128.35 L-97.4 127.95 M-81.85 130.5 L-81.55 132.3 Q-76.1 139.3 -78.05 139.25 L-80.3 139.9 Q-94.7 137.65 -97.1 138.7 -98.4 138.95 -93.7 142.05 L-99.75 145.1 -100.1 145.95 -98.05 146.6 -92.2 147.35 -94.2 151.25 -93.9 151.9 -93.3 151.9 -89.1 150.2 Q-83.7 146.4 -74.85 142.9 -69.9 139.65 -78.8 130.5 L-74.85 125.4 -77.95 126.25 -78.45 126.25 -79.45 125.4 M-96.25 133.15 L-96.15 133.3 M-74.85 125.4 L-67.8 125.65 -67.3 125.0 Q-66.85 124.7 -68.65 121.15 L-71.35 119.25 M-79.65 120.3 L-80.6 121.45" fill="none" stroke="#000000" stroke-linecap="round" stroke-linejoin="round" stroke-width="0.05"/>
  </g>
</svg>
