<?xml version="1.0" encoding="UTF-8" standalone="no"?>
<svg xmlns:xlink="http://www.w3.org/1999/xlink" height="153.5px" width="158.2px" xmlns="http://www.w3.org/2000/svg">
  <g transform="matrix(1.0, 0.0, 0.0, 1.0, 166.8, 1.6)">
    <path d="M-127.65 0.8 Q-113.6 -2.05 -105.5 7.2 -101.35 12.35 -102.0 17.7 -101.15 20.15 -108.5 33.7 L-108.6 38.6 -107.75 40.85 -103.95 45.4 -102.1 46.4 -95.85 47.95 -85.2 51.7 Q-72.6 52.65 -68.65 57.45 -53.95 63.25 -45.2 72.65 -39.05 77.95 -31.35 96.85 L-31.3 96.95 -31.25 96.95 Q-26.45 90.1 -19.65 90.25 L-18.15 90.75 -17.3 91.65 -17.0 94.1 Q-10.4 93.95 -8.6 97.3 L-8.7 99.65 -9.95 101.4 -10.05 101.55 -9.45 102.4 -9.15 104.0 -9.75 105.8 -11.35 107.1 -12.85 107.5 -16.15 107.6 -21.9 106.55 Q-26.35 105.05 -30.5 102.2 L-31.15 102.4 -34.5 106.95 -37.7 110.35 -36.2 116.7 Q-35.85 119.35 -36.85 120.6 -39.8 122.6 -43.65 118.25 L-45.8 115.9 -46.0 115.85 -46.2 115.85 -54.7 119.0 Q-67.4 122.9 -70.7 123.15 L-68.15 124.75 Q-66.65 127.35 -66.95 128.9 L-72.85 128.6 -76.25 129.55 -78.35 129.9 -79.0 129.25 -79.65 127.65 -79.85 126.5 -80.5 125.4 -80.15 124.55 -83.15 124.55 Q-123.4 121.65 -128.3 106.45 -135.1 97.25 -133.1 82.6 L-132.05 77.5 -130.8 73.75 Q-118.95 50.9 -120.35 48.3 L-120.2 47.75 Q-120.4 35.95 -130.15 27.4 L-129.7 25.3 -127.9 22.4 -125.45 21.25 -125.0 20.9 -124.9 20.25 -126.1 20.15 -126.8 20.45 -128.95 20.15 -127.6 19.55 Q-122.95 14.75 -124.45 8.55 -127.25 2.8 -135.1 6.4 L-134.7 5.35 -132.8 3.15 Q-130.45 1.5 -127.65 0.8 M-30.65 99.2 L-30.75 98.65 -30.75 97.8 -31.25 96.95 -30.75 97.8 -30.75 98.65 -30.65 99.2 M-37.7 110.35 L-42.05 101.35 -45.2 96.3 Q-47.35 92.75 -52.05 89.3 L-59.5 85.35 -68.0 82.05 -75.45 80.05 -90.75 76.95 -93.15 76.05 -95.4 74.35 -93.15 76.05 -90.75 76.95 -75.45 80.05 -68.0 82.05 -59.5 85.35 -52.05 89.3 Q-47.35 92.75 -45.2 96.3 L-42.05 101.35 -37.7 110.35 M-21.3 96.85 L-13.5 99.0 Q-11.35 99.7 -9.95 101.4 -11.35 99.7 -13.5 99.0 L-21.3 96.85 M-23.5 93.65 L-17.0 94.1 -23.5 93.65 M-46.0 115.85 L-53.65 104.4 -54.15 104.6 -54.3 107.3 Q-52.8 116.8 -57.3 116.75 -59.8 116.3 -60.75 114.35 L-64.2 107.3 Q-69.2 94.25 -68.8 107.3 -70.75 113.7 -75.05 107.3 L-79.45 100.9 -83.8 96.3 -89.95 91.65 -99.65 85.35 -103.15 82.6 -99.65 85.35 -89.95 91.65 -83.8 96.3 -79.45 100.9 -75.05 107.3 Q-70.75 113.7 -68.8 107.3 -69.2 94.25 -64.2 107.3 L-60.75 114.35 Q-59.8 116.3 -57.3 116.75 -52.8 116.8 -54.3 107.3 L-54.15 104.6 -53.65 104.4 -46.0 115.85 M-80.15 124.55 L-80.05 124.45 -70.7 123.15 -80.05 124.45 -80.15 124.55 M-68.65 57.45 L-85.2 51.7 -68.65 57.45" fill="#ffffff" fill-rule="evenodd" stroke="none"/>
    <path d="M-138.95 14.0 L-138.75 13.85 -138.1 14.85 -137.6 14.65 -137.25 13.85 Q-137.2 11.15 -138.75 12.5 L-138.85 11.75 Q-143.75 7.05 -139.7 1.1 -134.65 -4.1 -127.65 0.8 -130.45 1.5 -132.8 3.15 L-134.7 5.35 -137.25 5.75 Q-138.65 6.1 -139.6 8.55 L-139.6 9.4 -138.75 11.25 -137.4 8.55 -135.1 6.4 Q-127.25 2.8 -124.45 8.55 -122.95 14.75 -127.6 19.55 L-128.95 20.15 -132.5 20.25 -134.5 19.55 Q-137.6 18.6 -138.95 14.0 M-138.85 12.85 L-138.75 12.6 -138.75 12.7 -138.85 12.85 M-138.85 11.75 L-138.75 11.25 -138.85 11.75" fill="#ff7a16" fill-rule="evenodd" stroke="none"/>
    <path d="M-138.75 13.85 L-138.85 13.45 -138.85 13.0 -138.85 12.95 -138.85 12.85 -138.75 12.7 -138.75 12.6 -138.75 12.5 Q-137.2 11.15 -137.25 13.85 L-137.6 14.65 -138.1 14.85 -138.75 13.85 M-134.7 5.35 L-135.1 6.4 -137.4 8.55 -138.75 11.25 -139.6 9.4 -139.6 8.55 Q-138.65 6.1 -137.25 5.75 L-134.7 5.35 M-138.85 13.0 L-138.85 12.85 -138.85 13.0" fill="#000000" fill-rule="evenodd" stroke="none"/>
    <path d="M-76.25 129.55 L-80.35 132.9 -80.35 132.95 Q-73.35 136.85 -73.15 139.15 L-73.05 140.1 -73.45 141.7 -73.9 142.35 -76.45 144.15 -81.55 146.1 Q-88.9 150.6 -92.85 151.9 L-94.2 151.9 -94.2 151.2 -92.2 147.55 Q-94.55 146.65 -98.25 146.7 L-100.2 146.1 -99.75 145.2 -93.8 142.25 -94.35 141.4 Q-97.75 139.5 -97.35 139.15 L-96.9 138.7 -93.5 138.6 Q-83.6 140.75 -78.35 139.9 L-77.6 139.35 -77.5 139.25 Q-82.5 135.45 -83.25 133.6 L-83.35 132.3 -82.7 130.95 -87.55 132.65 -96.8 137.45 -97.65 137.55 -97.85 136.9 -96.25 133.3 -96.35 133.15 Q-96.95 132.5 -102.45 132.3 L-103.95 131.7 -102.95 130.6 -97.95 128.2 -101.05 126.55 -101.4 125.9 -100.95 125.65 -96.05 125.3 Q-89.1 126.85 -84.85 126.35 -81.0 125.5 -83.15 124.55 L-80.15 124.55 -80.5 125.4 -79.85 126.5 -79.65 127.65 -79.0 129.25 -78.35 129.9 -76.25 129.55 M-149.8 26.45 L-158.9 27.85 -166.55 28.15 -166.8 27.95 -166.45 27.5 Q-164.4 25.5 -143.35 16.65 L-138.95 14.0 Q-137.6 18.6 -134.5 19.55 L-132.5 20.25 -128.95 20.15 -126.8 20.45 -126.1 20.15 -124.9 20.25 -125.0 20.9 -125.45 21.25 -127.9 22.4 -149.8 26.45 M-96.35 133.15 L-96.25 133.15 -96.25 133.3 -96.25 133.15 -96.35 133.15 M-77.6 139.35 L-77.3 139.7 -77.6 139.35 M-82.7 130.95 L-79.65 127.65 -82.7 130.95" fill="#fa410f" fill-rule="evenodd" stroke="none"/>
    <path d="M-130.15 27.4 L-135.25 27.7 -146.85 27.0 -149.8 26.45 -127.9 22.4 -129.7 25.3 -130.15 27.4" fill="#fa420e" fill-rule="evenodd" stroke="none"/>
    <path d="M-127.65 0.8 Q-113.6 -2.05 -105.5 7.2 -101.35 12.35 -102.0 17.7 -101.15 20.15 -108.5 33.7 L-108.6 38.6 -107.75 40.85 -103.95 45.4 -102.1 46.4 -95.85 47.95 -85.2 51.7 Q-72.6 52.65 -68.65 57.45 -53.95 63.25 -45.2 72.65 -39.05 77.95 -31.35 96.85 L-31.25 96.95 Q-26.45 90.1 -19.65 90.25 L-18.15 90.75 -17.3 91.65 -17.0 94.1 Q-10.4 93.95 -8.6 97.3 L-8.7 99.65 -9.95 101.4 -10.05 101.55 -9.45 102.4 -9.15 104.0 -9.75 105.8 -11.35 107.1 -12.85 107.5 -16.15 107.6 -21.9 106.55 Q-26.35 105.05 -30.5 102.2 L-31.15 102.4 -34.5 106.95 -37.7 110.35 -36.2 116.7 Q-35.85 119.35 -36.85 120.6 -39.8 122.6 -43.65 118.25 L-45.8 115.9 -46.0 115.85 -46.2 115.85 -54.7 119.0 Q-67.4 122.9 -70.7 123.15 L-68.15 124.75 Q-66.65 127.35 -66.95 128.9 L-72.85 128.6 -76.25 129.55 -80.35 132.9 -80.35 132.95 Q-73.35 136.85 -73.15 139.15 L-73.05 140.1 -73.45 141.7 -73.9 142.35 -76.45 144.15 -81.55 146.1 Q-88.9 150.6 -92.85 151.9 L-94.2 151.9 -94.2 151.2 -92.2 147.55 Q-94.55 146.65 -98.25 146.7 L-100.2 146.1 -99.75 145.2 -93.8 142.25 -94.35 141.4 Q-97.75 139.5 -97.35 139.15 L-96.9 138.7 -93.5 138.6 Q-83.6 140.75 -78.35 139.9 L-77.6 139.35 -77.5 139.25 Q-82.5 135.45 -83.25 133.6 L-83.35 132.3 -82.7 130.95 -87.55 132.65 -96.8 137.45 -97.65 137.55 -97.85 136.9 -96.25 133.3 -96.35 133.15 Q-96.95 132.5 -102.45 132.3 L-103.95 131.7 -102.95 130.6 -97.95 128.2 -101.05 126.55 -101.4 125.9 -100.95 125.65 -96.05 125.3 Q-89.1 126.85 -84.85 126.35 -81.0 125.5 -83.15 124.55 -123.4 121.65 -128.3 106.45 -135.1 97.25 -133.1 82.6 L-132.05 77.5 -130.8 73.75 Q-118.95 50.9 -120.35 48.3 L-120.2 47.75 Q-120.4 35.95 -130.15 27.4 L-135.25 27.7 -146.85 27.0 -149.8 26.45 -158.9 27.85 -166.55 28.15 -166.8 27.95 -166.45 27.5 Q-164.4 25.5 -143.35 16.65 L-138.95 14.0 -138.75 13.85 -138.85 13.45 -138.85 13.0 -138.85 12.95 -138.85 12.85 -138.75 12.6 -138.75 12.5 -138.85 11.75 Q-143.75 7.05 -139.7 1.1 -134.65 -4.1 -127.65 0.8 -130.45 1.5 -132.8 3.15 L-134.7 5.35 -135.1 6.4 Q-127.25 2.8 -124.45 8.55 -122.95 14.75 -127.6 19.55 L-128.95 20.15 -126.8 20.45 -126.1 20.15 -124.9 20.25 -125.0 20.9 -125.45 21.25 -127.9 22.4 -129.7 25.3 -130.15 27.4 M-95.4 74.35 L-93.15 76.05 -90.75 76.95 -75.45 80.05 -68.0 82.05 -59.5 85.35 -52.05 89.3 Q-47.35 92.75 -45.2 96.3 L-42.05 101.35 -37.7 110.35 M-31.25 96.95 L-30.75 97.8 -30.75 98.65 -30.65 99.2 M-31.35 96.85 L-31.3 96.95 -31.25 96.95 M-17.0 94.1 L-23.5 93.65 M-9.95 101.4 Q-11.35 99.7 -13.5 99.0 L-21.3 96.85 M-138.75 11.25 L-138.85 11.75 M-134.7 5.35 L-137.25 5.75 Q-138.65 6.1 -139.6 8.55 L-139.6 9.4 -138.75 11.25 -137.4 8.55 -135.1 6.4 M-138.75 12.6 L-138.75 12.7 -138.85 12.85 -138.85 13.0 M-138.75 12.5 Q-137.2 11.15 -137.25 13.85 L-137.6 14.65 -138.1 14.85 -138.75 13.85 M-128.95 20.15 L-132.5 20.25 -134.5 19.55 Q-137.6 18.6 -138.95 14.0 M-149.8 26.45 L-127.9 22.4 M-103.15 82.6 L-99.65 85.35 -89.95 91.65 -83.8 96.3 -79.45 100.9 -75.05 107.3 Q-70.75 113.7 -68.8 107.3 -69.2 94.25 -64.2 107.3 L-60.75 114.35 Q-59.8 116.3 -57.3 116.75 -52.8 116.8 -54.3 107.3 L-54.15 104.6 -53.65 104.4 -46.0 115.85 M-96.25 133.3 L-96.25 133.15 -96.35 133.15 M-70.7 123.15 L-80.05 124.45 -80.15 124.55 -80.5 125.4 -79.85 126.5 -79.65 127.65 -79.0 129.25 -78.35 129.9 -76.25 129.55 M-77.3 139.7 L-77.6 139.35 M-80.15 124.55 L-83.15 124.55 M-79.65 127.65 L-82.7 130.95 M-85.2 51.7 L-68.65 57.45" fill="none" stroke="#000000" stroke-linecap="round" stroke-linejoin="round" stroke-width="0.05"/>
  </g>
</svg>
