<?xml version="1.0" encoding="UTF-8" standalone="no"?>
<svg xmlns:xlink="http://www.w3.org/1999/xlink" height="145.3px" width="167.55px" xmlns="http://www.w3.org/2000/svg">
  <g transform="matrix(1.0, 0.0, 0.0, 1.0, 173.9, -7.15)">
    <path d="M-135.95 10.05 Q-123.4 6.05 -112.95 14.5 -109.0 18.3 -108.6 22.75 -108.4 27.0 -109.05 28.7 L-112.75 38.15 -112.45 43.5 -111.45 45.75 -106.8 50.3 -105.2 51.05 Q-103.2 51.85 -98.6 52.35 L-91.45 54.35 Q-79.0 53.95 -72.5 56.4 L-68.85 58.4 Q-66.3 60.6 -65.15 62.85 -54.05 66.5 -42.25 78.1 L-37.25 84.6 Q-34.45 89.25 -30.5 98.8 L-29.8 99.6 -29.65 99.7 Q-24.5 92.7 -17.95 92.8 -14.3 93.3 -15.1 96.85 -7.3 96.9 -6.35 100.15 L-6.45 102.2 -8.0 104.05 -8.05 104.1 -7.3 104.95 -6.9 106.1 -7.1 108.15 -8.15 109.3 -10.9 110.3 -15.55 110.15 -20.65 109.0 Q-22.45 108.9 -28.95 104.85 L-29.6 105.15 -33.3 109.95 -35.8 112.55 -35.85 112.65 Q-32.2 121.0 -34.7 123.5 -38.7 124.8 -44.15 118.25 L-44.3 118.3 Q-50.35 121.05 -69.7 125.9 -66.75 126.5 -66.75 131.6 L-73.15 131.15 -77.6 132.3 -78.25 132.3 -78.9 131.8 -79.75 129.35 -79.75 129.25 -80.35 127.4 -86.9 127.55 Q-92.8 127.2 -101.05 125.65 -126.1 123.4 -133.65 101.85 L-135.1 96.75 Q-135.7 91.8 -134.8 86.2 L-133.0 79.2 Q-132.45 76.75 -124.4 60.1 L-123.4 55.95 -123.4 53.6 Q-123.65 44.0 -136.2 36.15 L-136.4 35.6 -136.2 34.1 -135.1 31.55 -132.55 30.05 -132.8 29.2 -134.5 29.75 -136.3 29.55 Q-132.15 27.25 -133.1 19.55 -134.0 12.95 -144.2 16.85 L-143.35 14.65 -140.45 12.1 -135.95 10.05 M-21.7 96.45 L-18.5 96.85 -15.1 96.85 -18.5 96.85 -21.7 96.45 M-91.45 54.35 L-76.1 58.8 -65.15 62.85 -76.1 58.8 -91.45 54.35 M-35.8 112.55 L-38.6 107.3 -44.15 99.2 -46.95 96.3 Q-52.85 90.1 -72.2 85.35 L-90.8 82.25 Q-94.9 81.6 -96.8 79.7 -94.9 81.6 -90.8 82.25 L-72.2 85.35 Q-52.85 90.1 -46.95 96.3 L-44.15 99.2 -38.6 107.3 -35.8 112.55 M-104.8 87.8 L-98.9 91.85 -90.6 96.3 -84.35 100.35 Q-82.4 101.6 -77.2 107.3 -68.55 120.95 -67.7 107.3 L-67.7 105.15 -67.15 104.6 -65.05 107.3 -60.7 115.6 -58.65 118.25 Q-55.55 121.45 -53.0 118.25 L-52.45 116.35 -53.0 109.0 -52.8 107.8 -52.45 107.8 -51.55 108.45 Q-47.05 115.75 -44.3 118.3 -47.05 115.75 -51.55 108.45 L-52.45 107.8 -52.8 107.8 -53.0 109.0 -52.45 116.35 -53.0 118.25 Q-55.55 121.45 -58.65 118.25 L-60.7 115.6 -65.05 107.3 -67.15 104.6 -67.7 105.15 -67.7 107.3 Q-68.55 120.95 -77.2 107.3 -82.4 101.6 -84.35 100.35 L-90.6 96.3 -98.9 91.85 -104.8 87.8 M-29.15 101.15 L-29.25 100.25 -29.8 99.6 -29.25 100.25 -29.15 101.15 M-29.05 102.0 L-29.05 101.4 -29.05 102.0 M-19.25 99.7 L-10.9 102.05 -8.0 104.05 -10.9 102.05 -19.25 99.7 M-69.7 125.9 L-80.35 127.4 -69.7 125.9" fill="#ffffff" fill-rule="evenodd" stroke="none"/>
    <path d="M-147.7 24.85 L-147.7 23.05 -147.2 24.65 -146.55 24.65 -146.1 23.9 -146.35 21.9 -147.05 21.75 -147.7 22.8 -147.4 20.9 Q-151.1 18.5 -150.5 14.4 L-150.45 14.1 Q-150.15 12.35 -149.1 10.35 -142.05 5.05 -137.7 8.55 L-135.95 10.05 -140.45 12.1 -143.35 14.65 Q-148.5 15.35 -147.9 19.55 L-147.25 20.6 -145.75 18.25 -144.2 16.85 Q-134.0 12.95 -133.1 19.55 -132.15 27.25 -136.3 29.55 -145.1 31.4 -147.7 24.85 M-147.25 20.6 L-147.4 20.9 -147.25 20.6" fill="#ff7a16" fill-rule="evenodd" stroke="none"/>
    <path d="M-147.7 23.05 L-147.7 22.8 -147.05 21.75 -146.35 21.9 -146.1 23.9 -146.55 24.65 -147.2 24.65 -147.7 23.05 M-143.35 14.65 L-144.2 16.85 -145.75 18.25 -147.25 20.6 -147.9 19.55 Q-148.5 15.35 -143.35 14.65" fill="#000000" fill-rule="evenodd" stroke="none"/>
    <path d="M-77.6 132.3 L-81.0 134.35 Q-74.5 136.65 -73.25 139.05 L-72.9 140.2 -73.45 142.1 Q-95.3 154.15 -94.15 152.15 L-94.35 151.5 Q-91.65 147.45 -92.45 147.55 -94.35 146.85 -97.95 146.8 L-100.3 146.15 -99.9 145.3 -93.8 142.25 Q-94.2 141.3 -96.5 140.2 L-97.4 139.05 Q-97.95 137.65 -80.7 140.4 L-79.1 140.4 -77.75 140.0 -77.6 139.9 -77.5 139.75 -81.8 137.2 -84.0 134.85 -84.1 133.8 -83.8 132.95 -80.35 129.9 -86.7 132.3 Q-96.9 138.0 -97.75 137.55 L-97.85 136.55 -96.35 133.3 -97.65 132.75 Q-104.3 132.35 -104.0 131.8 L-103.95 131.25 -103.3 130.75 -98.05 128.2 Q-99.85 127.45 -101.4 126.35 L-101.45 125.9 -101.05 125.65 Q-92.8 127.2 -86.9 127.55 L-80.35 127.4 -79.75 129.25 -79.75 129.35 -79.95 129.55 -79.75 129.35 -78.9 131.8 -78.25 132.3 -77.6 132.3 M-156.2 37.65 L-165.6 40.0 -173.15 41.15 -173.9 41.05 -173.8 40.7 Q-174.5 40.1 -147.7 24.85 -145.1 31.4 -136.3 29.55 L-134.5 29.75 -132.8 29.2 -132.55 30.05 -135.1 31.55 -156.2 37.65 M-81.45 134.55 L-81.0 134.35 -81.45 134.55 M-79.95 129.55 L-80.35 129.75 -80.3 129.75 -79.95 129.55 M-80.3 129.75 L-80.35 129.9 -80.35 129.75 -80.35 129.9 -80.3 129.75 M-77.6 139.9 L-77.2 140.1 -77.6 139.9" fill="#fa410f" fill-rule="evenodd" stroke="none"/>
    <path d="M-136.2 36.15 L-139.3 36.8 -156.2 37.65 -135.1 31.55 -136.2 34.1 -136.4 35.6 -136.2 36.15" fill="#fa420e" fill-rule="evenodd" stroke="none"/>
    <path d="M-135.95 10.05 Q-123.4 6.05 -112.95 14.5 -109.0 18.3 -108.6 22.75 -108.4 27.0 -109.05 28.7 L-112.75 38.15 -112.45 43.5 -111.45 45.75 -106.8 50.3 -105.2 51.05 Q-103.2 51.85 -98.6 52.35 L-91.45 54.35 Q-79.0 53.95 -72.5 56.4 L-68.85 58.4 Q-66.3 60.6 -65.15 62.85 -54.05 66.5 -42.25 78.1 L-37.25 84.6 Q-34.45 89.25 -30.5 98.8 L-29.8 99.6 -29.65 99.7 Q-24.5 92.7 -17.95 92.8 -14.3 93.3 -15.1 96.85 -7.3 96.9 -6.35 100.15 L-6.45 102.2 -8.0 104.05 -8.05 104.1 -7.3 104.95 -6.9 106.1 -7.1 108.15 -8.15 109.3 -10.9 110.3 -15.55 110.15 -20.65 109.0 Q-22.45 108.9 -28.95 104.85 L-29.6 105.15 -33.3 109.95 -35.8 112.55 -35.85 112.65 Q-32.2 121.0 -34.7 123.5 -38.7 124.8 -44.15 118.25 L-44.3 118.3 Q-50.35 121.05 -69.7 125.9 -66.75 126.5 -66.75 131.6 L-73.15 131.15 -77.6 132.3 -81.0 134.35 Q-74.5 136.65 -73.25 139.05 L-72.9 140.2 -73.45 142.1 Q-95.3 154.15 -94.15 152.15 L-94.35 151.5 Q-91.65 147.45 -92.45 147.55 -94.35 146.85 -97.95 146.8 L-100.3 146.15 -99.9 145.3 -93.8 142.25 Q-94.2 141.3 -96.5 140.2 L-97.4 139.05 Q-97.95 137.65 -80.7 140.4 L-79.1 140.4 -77.75 140.0 -77.6 139.9 -77.5 139.75 -81.8 137.2 -84.0 134.85 -84.1 133.8 -83.8 132.95 -80.35 129.9 -86.7 132.3 Q-96.9 138.0 -97.75 137.55 L-97.85 136.55 -96.35 133.3 -97.65 132.75 Q-104.3 132.35 -104.0 131.8 L-103.95 131.25 -103.3 130.75 -98.05 128.2 Q-99.85 127.45 -101.4 126.35 L-101.45 125.9 -101.05 125.65 Q-126.1 123.4 -133.65 101.85 L-135.1 96.75 Q-135.7 91.8 -134.8 86.2 L-133.0 79.2 Q-132.45 76.75 -124.4 60.1 L-123.4 55.95 -123.4 53.6 Q-123.65 44.0 -136.2 36.15 L-139.3 36.8 -156.2 37.65 -165.6 40.0 -173.15 41.15 -173.9 41.05 -173.8 40.7 Q-174.5 40.1 -147.7 24.85 L-147.7 23.05 -147.7 22.8 -147.4 20.9 Q-151.1 18.5 -150.5 14.4 L-150.45 14.1 Q-150.15 12.35 -149.1 10.35 -142.05 5.05 -137.7 8.55 L-135.95 10.05 -140.45 12.1 -143.35 14.65 -144.2 16.85 Q-134.0 12.95 -133.1 19.55 -132.15 27.25 -136.3 29.55 L-134.5 29.75 -132.8 29.2 -132.55 30.05 -135.1 31.55 -136.2 34.1 -136.4 35.6 -136.2 36.15 M-96.8 79.7 Q-94.9 81.6 -90.8 82.25 L-72.2 85.35 Q-52.85 90.1 -46.95 96.3 L-44.15 99.2 -38.6 107.3 -35.8 112.55 M-65.15 62.85 L-76.1 58.8 -91.45 54.35 M-15.1 96.85 L-18.5 96.85 -21.7 96.45 M-143.35 14.65 Q-148.5 15.35 -147.9 19.55 L-147.25 20.6 -145.75 18.25 -144.2 16.85 M-147.4 20.9 L-147.25 20.6 M-147.7 22.8 L-147.05 21.75 -146.35 21.9 -146.1 23.9 -146.55 24.65 -147.2 24.65 -147.7 23.05 M-135.1 31.55 L-156.2 37.65 M-147.7 24.85 Q-145.1 31.4 -136.3 29.55 M-44.3 118.3 Q-47.05 115.75 -51.55 108.45 L-52.45 107.8 -52.8 107.8 -53.0 109.0 -52.45 116.35 -53.0 118.25 Q-55.55 121.45 -58.65 118.25 L-60.7 115.6 -65.05 107.3 -67.15 104.6 -67.7 105.15 -67.7 107.3 Q-68.55 120.95 -77.2 107.3 -82.4 101.6 -84.35 100.35 L-90.6 96.3 -98.9 91.85 -104.8 87.8 M-81.0 134.35 L-81.45 134.55 M-101.05 125.65 Q-92.8 127.2 -86.9 127.55 L-80.35 127.4 -69.7 125.9 M-8.0 104.05 L-10.9 102.05 -19.25 99.7 M-29.05 101.4 L-29.05 102.0 M-29.8 99.6 L-29.25 100.25 -29.15 101.15 M-79.95 129.55 L-80.35 129.75 -80.3 129.75 -79.95 129.55 -79.75 129.35 -79.75 129.25 -80.35 127.4 M-80.35 129.75 L-80.35 129.9 -80.3 129.75 M-77.6 132.3 L-78.25 132.3 -78.9 131.8 -79.75 129.35 M-77.2 140.1 L-77.6 139.9" fill="none" stroke="#000000" stroke-linecap="round" stroke-linejoin="round" stroke-width="0.05"/>
  </g>
</svg>
