<?xml version="1.0" encoding="UTF-8" standalone="no"?>
<svg xmlns:xlink="http://www.w3.org/1999/xlink" height="138.35px" width="173.55px" xmlns="http://www.w3.org/2000/svg">
  <g transform="matrix(1.0, 0.0, 0.0, 1.0, 178.7, -14.2)">
    <path d="M-144.85 16.2 Q-132.7 11.4 -121.4 18.15 -117.65 21.15 -117.0 22.75 L-115.65 25.95 -115.3 27.7 -115.3 31.75 -117.15 39.35 -117.15 41.5 -115.65 46.45 -114.6 48.1 -110.85 51.3 -107.65 53.0 Q-106.5 53.7 -98.9 54.45 L-93.15 55.95 Q-78.65 55.2 -72.4 57.45 -67.25 59.1 -63.55 65.1 -49.15 71.1 -41.75 79.5 -35.15 86.05 -29.0 100.7 L-28.95 100.8 Q-24.75 95.05 -18.6 93.9 -13.4 93.25 -14.1 98.0 L-9.0 98.45 Q-6.6 99.1 -5.8 100.05 L-5.15 101.2 -5.3 102.9 -7.0 105.05 -7.1 105.15 -6.0 106.45 -5.75 108.35 -6.35 109.75 -8.3 111.0 Q-15.6 112.65 -25.6 107.3 L-27.65 106.1 -28.8 106.05 -31.5 109.65 -34.8 113.15 -34.75 113.25 -32.8 118.15 Q-31.55 122.9 -32.25 123.5 L-33.1 124.55 Q-36.65 126.15 -43.5 119.1 L-43.6 119.15 -53.75 122.85 Q-65.8 126.5 -69.3 127.0 -66.6 127.4 -66.65 132.55 L-72.9 132.1 -78.05 133.3 -78.8 132.85 -79.75 130.2 -79.95 129.45 -80.05 129.25 -80.3 128.6 -85.6 128.8 Q-92.05 128.55 -99.95 127.1 -124.35 124.45 -131.85 108.9 -137.75 99.35 -135.75 88.65 -135.3 84.4 -133.75 80.45 L-126.3 63.1 -125.65 60.3 -125.65 57.55 Q-126.25 47.9 -141.5 41.9 L-141.85 41.5 -142.15 40.4 -141.95 37.75 Q-137.35 34.45 -143.05 35.85 -142.3 35.45 -141.65 33.25 L-141.45 30.5 -142.15 25.95 Q-144.3 22.65 -145.55 22.6 -150.5 21.9 -153.25 24.45 L-152.95 22.5 -152.5 21.9 -150.35 19.55 -147.2 17.3 -144.85 16.2 M-20.65 97.6 L-14.1 98.0 -20.65 97.6 M-63.55 65.1 L-75.45 60.75 Q-90.3 57.15 -93.15 55.95 -90.3 57.15 -75.45 60.75 L-63.55 65.1 M-106.55 89.5 Q-105.6 90.75 -101.4 93.35 L-87.75 100.7 Q-85.5 101.85 -79.45 107.3 -72.95 115.65 -70.7 116.1 L-69.5 116.1 -68.8 115.9 -67.95 115.05 -67.4 112.1 -67.5 107.3 -67.15 106.65 -66.45 107.3 -64.4 109.75 Q-60.0 117.8 -59.2 118.25 L-57.15 120.6 -55.45 121.45 -52.9 121.15 Q-51.7 120.65 -51.55 118.25 -51.4 114.9 -52.15 112.2 L-52.05 109.45 -50.35 110.7 Q-47.9 114.6 -44.3 118.25 L-43.6 119.15 -44.3 118.25 Q-47.9 114.6 -50.35 110.7 L-52.05 109.45 -52.15 112.2 Q-51.4 114.9 -51.55 118.25 -51.7 120.65 -52.9 121.15 L-55.45 121.45 -57.15 120.6 -59.2 118.25 Q-60.0 117.8 -64.4 109.75 L-66.45 107.3 -67.15 106.65 -67.5 107.3 -67.4 112.1 -67.95 115.05 -68.8 115.9 -69.5 116.1 -70.7 116.1 Q-72.95 115.65 -79.45 107.3 -85.5 101.85 -87.75 100.7 L-101.4 93.35 Q-105.6 90.75 -106.55 89.5 M-34.75 113.25 L-38.6 107.3 -43.5 101.0 Q-46.7 97.55 -48.75 96.3 -66.95 86.9 -87.4 85.35 L-92.85 84.5 Q-96.8 83.25 -97.75 82.25 -96.8 83.25 -92.85 84.5 L-87.4 85.35 Q-66.95 86.9 -48.75 96.3 -46.7 97.55 -43.5 101.0 L-38.6 107.3 -34.75 113.25 M-28.2 103.25 L-28.2 102.6 -28.2 103.25 M-28.3 102.2 L-28.95 100.8 -28.3 102.2 M-7.0 105.05 Q-8.35 103.75 -10.65 103.05 L-18.1 101.0 -10.65 103.05 Q-8.35 103.75 -7.0 105.05 M-80.3 128.6 L-69.3 127.0 -80.3 128.6" fill="#ffffff" fill-rule="evenodd" stroke="none"/>
    <path d="M-155.8 32.95 L-156.4 31.25 -156.35 29.95 -156.15 30.5 -156.15 30.9 -155.5 31.55 -154.95 31.25 -154.65 30.5 Q-154.45 27.15 -156.35 29.85 L-155.9 27.7 Q-160.85 22.75 -157.05 17.6 -150.85 12.1 -144.85 16.2 L-147.2 17.3 -150.35 19.55 -152.5 21.9 Q-157.7 22.6 -155.7 27.2 L-154.3 25.3 -153.25 24.45 Q-150.5 21.9 -145.55 22.6 -144.3 22.65 -142.15 25.95 L-141.45 30.5 -141.65 33.25 Q-142.3 35.45 -143.05 35.85 L-143.45 35.95 Q-150.5 39.3 -155.8 32.95 M-155.7 27.2 L-155.9 27.7 -155.7 27.2" fill="#ff7a16" fill-rule="evenodd" stroke="none"/>
    <path d="M-156.35 29.95 L-156.35 29.85 Q-154.45 27.15 -154.65 30.5 L-154.95 31.25 -155.5 31.55 -156.15 30.9 -156.15 30.5 -156.35 29.95 M-152.5 21.9 L-152.95 22.5 -153.25 24.45 -154.3 25.3 -155.7 27.2 Q-157.7 22.6 -152.5 21.9" fill="#000000" fill-rule="evenodd" stroke="none"/>
    <path d="M-78.05 133.3 L-81.0 134.85 Q-73.3 137.4 -73.05 139.55 L-73.05 141.4 -73.35 142.1 -74.75 143.4 Q-79.2 144.7 -91.0 151.4 L-93.35 152.25 Q-96.0 153.75 -92.45 147.55 L-98.25 146.8 -100.3 146.15 -100.1 145.45 -93.9 142.35 Q-98.6 138.9 -97.35 138.9 L-92.85 138.85 -83.25 140.4 -79.0 140.55 -77.75 140.2 -77.65 140.05 -77.6 140.0 -78.25 139.55 -82.7 137.15 -84.2 135.4 -84.35 134.15 -83.8 133.3 -79.75 130.2 -78.8 132.85 -78.05 133.3 M-79.95 129.45 Q-86.5 131.85 -96.8 137.45 -99.55 139.1 -96.5 133.3 L-96.5 133.15 -99.35 132.55 -103.1 132.25 -104.15 131.7 Q-105.5 131.45 -98.05 128.25 L-99.95 127.1 Q-92.05 128.55 -85.6 128.8 L-80.3 128.6 -80.05 129.25 -79.95 129.45 M-161.25 45.8 L-166.85 48.1 -175.3 50.7 -178.7 51.35 -178.3 50.5 Q-175.35 47.1 -158.55 35.6 L-155.8 32.95 Q-150.5 39.3 -143.45 35.95 L-143.05 35.85 Q-137.35 34.45 -141.95 37.75 L-161.25 45.8 M-96.5 133.15 L-96.35 133.15 -96.5 133.3 -96.35 133.15 -96.5 133.15 M-81.8 135.2 L-81.0 134.85 -81.8 135.2 M-77.65 140.05 L-77.3 140.2 -77.2 140.55 -77.3 140.2 -77.65 140.05" fill="#fa410f" fill-rule="evenodd" stroke="none"/>
    <path d="M-141.5 41.9 L-144.4 42.85 Q-150.45 43.45 -161.25 45.8 L-141.95 37.75 -142.15 40.4 -141.85 41.5 -141.5 41.9" fill="#fa420e" fill-rule="evenodd" stroke="none"/>
    <path d="M-144.85 16.2 Q-132.7 11.4 -121.4 18.15 -117.65 21.15 -117.0 22.75 L-115.65 25.95 -115.3 27.7 -115.3 31.75 -117.15 39.35 -117.15 41.5 -115.65 46.45 -114.6 48.1 -110.85 51.3 -107.65 53.0 Q-106.5 53.7 -98.9 54.45 L-93.15 55.95 Q-78.65 55.2 -72.4 57.45 -67.25 59.1 -63.55 65.1 -49.15 71.1 -41.75 79.5 -35.15 86.05 -29.0 100.7 L-28.95 100.8 Q-24.75 95.05 -18.6 93.9 -13.4 93.25 -14.1 98.0 L-9.0 98.45 Q-6.6 99.1 -5.8 100.05 L-5.15 101.2 -5.3 102.9 -7.0 105.05 -7.1 105.15 -6.0 106.45 -5.75 108.35 -6.35 109.75 -8.3 111.0 Q-15.6 112.65 -25.6 107.3 L-27.65 106.1 -28.8 106.05 -31.5 109.65 -34.8 113.15 -34.75 113.25 -32.8 118.15 Q-31.55 122.9 -32.25 123.5 L-33.1 124.55 Q-36.65 126.15 -43.5 119.1 L-43.6 119.15 -53.75 122.85 Q-65.8 126.5 -69.3 127.0 -66.6 127.4 -66.65 132.55 L-72.9 132.1 -78.05 133.3 -81.0 134.85 Q-73.3 137.4 -73.05 139.55 L-73.05 141.4 -73.35 142.1 -74.75 143.4 Q-79.2 144.7 -91.0 151.4 L-93.35 152.25 Q-96.0 153.75 -92.45 147.55 L-98.25 146.8 -100.3 146.15 -100.1 145.45 -93.9 142.35 Q-98.6 138.9 -97.35 138.9 L-92.85 138.85 -83.25 140.4 -79.0 140.55 -77.75 140.2 -77.65 140.05 -77.6 140.0 -78.25 139.55 -82.7 137.15 -84.2 135.4 -84.35 134.15 -83.8 133.3 -79.75 130.2 -79.95 129.45 Q-86.5 131.85 -96.8 137.45 -99.55 139.1 -96.5 133.3 L-96.5 133.15 -99.35 132.55 -103.1 132.25 -104.15 131.7 Q-105.5 131.45 -98.05 128.25 L-99.95 127.1 Q-124.35 124.45 -131.85 108.9 -137.75 99.35 -135.75 88.65 -135.3 84.4 -133.75 80.45 L-126.3 63.1 -125.65 60.3 -125.65 57.55 Q-126.25 47.9 -141.5 41.9 L-144.4 42.85 Q-150.45 43.45 -161.25 45.8 L-166.85 48.1 -175.3 50.7 -178.7 51.35 -178.3 50.5 Q-175.35 47.1 -158.55 35.6 L-155.8 32.95 -156.4 31.25 -156.35 29.95 -156.35 29.85 -155.9 27.7 Q-160.85 22.75 -157.05 17.6 -150.85 12.1 -144.85 16.2 L-147.2 17.3 -150.35 19.55 -152.5 21.9 -152.95 22.5 -153.25 24.45 Q-150.5 21.9 -145.55 22.6 -144.3 22.65 -142.15 25.95 L-141.45 30.5 -141.65 33.25 Q-142.3 35.45 -143.05 35.85 -137.35 34.45 -141.95 37.75 L-142.15 40.4 -141.85 41.5 -141.5 41.9 M-93.15 55.95 Q-90.3 57.15 -75.45 60.75 L-63.55 65.1 M-14.1 98.0 L-20.65 97.6 M-143.05 35.85 L-143.45 35.95 Q-150.5 39.3 -155.8 32.95 M-156.35 29.85 Q-154.45 27.15 -154.65 30.5 L-154.95 31.25 -155.5 31.55 -156.15 30.9 -156.15 30.5 -156.35 29.95 M-155.9 27.7 L-155.7 27.2 Q-157.7 22.6 -152.5 21.9 M-155.7 27.2 L-154.3 25.3 -153.25 24.45 M-141.95 37.75 L-161.25 45.8 M-97.75 82.25 Q-96.8 83.25 -92.85 84.5 L-87.4 85.35 Q-66.95 86.9 -48.75 96.3 -46.7 97.55 -43.5 101.0 L-38.6 107.3 -34.75 113.25 M-43.6 119.15 L-44.3 118.25 Q-47.9 114.6 -50.35 110.7 L-52.05 109.45 -52.15 112.2 Q-51.4 114.9 -51.55 118.25 -51.7 120.65 -52.9 121.15 L-55.45 121.45 -57.15 120.6 -59.2 118.25 Q-60.0 117.8 -64.4 109.75 L-66.45 107.3 -67.15 106.65 -67.5 107.3 -67.4 112.1 -67.95 115.05 -68.8 115.9 -69.5 116.1 -70.7 116.1 Q-72.95 115.65 -79.45 107.3 -85.5 101.85 -87.75 100.7 L-101.4 93.35 Q-105.6 90.75 -106.55 89.5 M-81.0 134.85 L-81.8 135.2 M-96.5 133.3 L-96.35 133.15 -96.5 133.15 M-79.95 129.45 L-80.05 129.25 -80.3 128.6 -85.6 128.8 Q-92.05 128.55 -99.95 127.1 M-18.1 101.0 L-10.65 103.05 Q-8.35 103.75 -7.0 105.05 M-28.95 100.8 L-28.3 102.2 M-28.2 102.6 L-28.2 103.25 M-78.05 133.3 L-78.8 132.85 -79.75 130.2 M-77.2 140.55 L-77.3 140.2 -77.65 140.05 M-69.3 127.0 L-80.3 128.6" fill="none" stroke="#000000" stroke-linecap="round" stroke-linejoin="round" stroke-width="0.05"/>
  </g>
</svg>
