<?xml version="1.0" encoding="UTF-8" standalone="no"?>
<svg xmlns:xlink="http://www.w3.org/1999/xlink" height="139.95px" width="172.35px" xmlns="http://www.w3.org/2000/svg">
  <g transform="matrix(1.0, 0.0, 0.0, 1.0, 178.3, -12.4)">
    <path d="M-150.35 15.5 Q-140.2 9.4 -126.4 15.25 L-122.75 18.15 Q-121.05 19.8 -119.9 22.4 L-118.95 26.65 Q-118.5 27.45 -119.5 36.15 L-119.15 37.75 -116.6 43.6 -114.6 45.75 -109.55 49.15 -106.8 50.1 -96.55 52.15 -86.45 55.0 Q-70.15 55.5 -66.65 61.15 -49.65 68.0 -41.95 77.25 L-37.15 83.45 Q-34.15 88.25 -30.3 97.6 L-29.6 98.45 -29.45 98.55 Q-25.1 92.2 -17.85 91.65 -13.85 92.35 -14.9 95.65 L-9.35 96.3 Q-6.3 97.3 -6.0 99.0 L-5.95 100.15 -6.25 101.15 -7.7 102.85 -7.75 102.9 Q-5.55 104.5 -7.5 107.8 L-9.15 108.8 -10.4 109.1 -14.35 109.1 -18.5 108.35 Q-23.4 107.25 -28.75 103.7 L-29.45 104.0 -32.25 107.75 -35.6 111.4 -35.65 111.45 Q-30.95 119.95 -33.1 122.95 -37.55 124.65 -43.45 118.25 L-44.6 117.2 -44.65 117.25 Q-47.2 118.65 -52.6 120.3 -59.1 122.3 -69.7 124.65 L-67.6 126.05 Q-65.75 129.4 -66.65 130.3 L-72.4 129.9 -76.55 130.95 -78.35 131.05 -78.9 130.5 -79.5 128.7 -80.35 126.25 -85.2 126.35 -91.35 125.9 -96.55 125.3 Q-126.15 121.8 -131.2 106.65 -137.25 95.2 -135.35 88.65 -134.95 83.25 -133.65 79.4 L-126.15 60.5 -125.65 57.9 -125.95 54.15 Q-126.75 45.65 -143.2 40.85 L-144.4 39.35 -144.7 36.65 -143.35 34.95 -143.55 34.25 -144.5 34.3 -145.05 34.85 -146.55 34.95 -145.9 34.45 -145.55 33.6 -145.55 30.5 Q-146.75 17.9 -157.7 24.1 L-157.5 22.4 -155.7 19.55 -152.7 17.0 -150.35 15.5 M-21.5 95.25 L-18.3 95.65 -14.9 95.65 -18.3 95.65 -21.5 95.25 M-28.3 97.7 L-28.1 97.5 -28.3 97.7 M-28.95 99.95 L-29.0 99.2 -29.05 99.1 -29.15 98.95 -29.6 98.45 -29.15 98.95 -29.05 99.1 -29.0 99.2 -28.95 99.95 M-35.6 111.4 L-38.3 107.3 -44.05 100.15 -48.2 96.3 Q-60.85 88.4 -77.1 85.35 -98.3 81.65 -97.75 79.05 -98.3 81.65 -77.1 85.35 -60.85 88.4 -48.2 96.3 L-44.05 100.15 -38.3 107.3 -35.6 111.4 M-86.45 55.0 L-76.9 57.55 -66.65 61.15 -76.9 57.55 -86.45 55.0 M-55.25 120.8 L-57.05 120.15 -59.0 118.25 -61.4 115.2 Q-66.4 106.55 -66.45 107.3 L-68.0 105.8 -68.45 107.3 Q-67.25 123.9 -79.45 107.3 L-86.55 100.5 -99.95 91.65 -106.05 87.05 -106.35 86.5 -106.05 87.05 -99.95 91.65 -86.55 100.5 -79.45 107.3 Q-67.25 123.9 -68.45 107.3 L-68.0 105.8 -66.45 107.3 Q-66.4 106.55 -61.4 115.2 L-59.0 118.25 -57.05 120.15 -55.25 120.8 M-44.65 117.25 L-51.1 109.45 -52.6 108.45 -52.8 109.95 Q-50.95 118.55 -51.85 118.25 L-51.95 119.0 -52.6 120.3 -51.95 119.0 -51.85 118.25 Q-50.95 118.55 -52.8 109.95 L-52.6 108.45 -51.1 109.45 -44.65 117.25 M-28.8 100.8 L-28.8 100.25 -28.8 100.8 M-18.95 98.65 L-10.4 101.0 -7.7 102.85 -10.4 101.0 -18.95 98.65 M-29.0 99.2 L-29.15 98.95 -29.0 99.2 M-69.7 124.65 L-80.35 126.25 -69.7 124.65" fill="#ffffff" fill-rule="evenodd" stroke="none"/>
    <path d="M-159.1 33.7 L-159.1 33.6 -160.25 31.45 -160.45 29.35 -160.25 29.35 -159.95 30.5 -159.4 31.05 -158.9 30.5 Q-158.0 26.7 -160.25 29.1 L-160.05 27.4 Q-163.8 22.95 -160.25 17.9 -156.5 13.8 -150.35 15.5 L-152.7 17.0 -155.7 19.55 -157.5 22.4 Q-160.9 22.55 -159.6 26.35 L-160.05 27.4 -159.6 26.35 -157.7 24.1 Q-146.75 17.9 -145.55 30.5 L-145.55 33.6 -145.9 34.45 -146.55 34.95 Q-155.45 38.55 -159.0 33.7 L-159.1 33.7 M-159.1 33.6 L-159.0 33.7 -159.1 33.6" fill="#ff7a16" fill-rule="evenodd" stroke="none"/>
    <path d="M-160.25 29.35 L-160.25 29.1 Q-158.0 26.7 -158.9 30.5 L-159.4 31.05 -159.95 30.5 -160.25 29.35 M-157.5 22.4 L-157.7 24.1 -159.6 26.35 Q-160.9 22.55 -157.5 22.4" fill="#000000" fill-rule="evenodd" stroke="none"/>
    <path d="M-76.55 130.95 L-80.3 133.6 Q-68.95 139.1 -74.85 143.4 -80.6 145.15 -90.15 151.0 L-93.15 152.15 Q-95.9 153.35 -92.45 147.55 L-99.35 146.6 -99.95 146.35 -100.3 145.85 -99.75 145.2 -93.8 142.25 Q-98.0 139.35 -97.35 138.9 L-93.3 138.7 Q-82.45 140.85 -81.35 140.4 L-79.1 140.4 -77.5 139.75 -77.5 139.7 Q-87.2 133.8 -81.55 130.5 L-87.75 132.75 -95.9 137.15 -97.75 137.55 -97.95 136.8 -96.35 133.4 -96.5 133.1 -97.2 132.85 -102.55 132.3 -103.7 132.0 -104.0 131.6 -102.75 130.4 -98.05 128.2 -101.15 126.55 -101.45 126.25 -101.4 125.7 -99.05 125.3 -96.55 125.3 -91.35 125.9 -89.55 126.5 -85.2 126.35 -80.35 126.25 -79.5 128.7 -80.3 129.25 -81.55 130.5 -80.3 129.25 -79.5 128.7 -78.9 130.5 -78.35 131.05 -76.55 130.95 M-162.2 46.6 L-170.05 50.7 Q-177.7 54.1 -178.3 53.7 L-177.65 52.35 -175.6 50.1 Q-168.5 42.6 -161.3 36.45 L-159.1 33.7 -159.0 33.7 Q-155.45 38.55 -146.55 34.95 L-145.05 34.85 -144.5 34.3 -143.55 34.25 -143.35 34.95 -144.7 36.65 -162.2 46.6" fill="#fa410f" fill-rule="evenodd" stroke="none"/>
    <path d="M-143.2 40.85 L-146.1 42.1 Q-154.7 43.95 -159.2 46.05 L-162.2 46.6 -144.7 36.65 -144.4 39.35 -143.2 40.85" fill="#fa420e" fill-rule="evenodd" stroke="none"/>
    <path d="M-150.35 15.5 Q-140.2 9.4 -126.4 15.25 L-122.75 18.15 Q-121.05 19.8 -119.9 22.4 L-118.95 26.65 Q-118.5 27.45 -119.5 36.15 L-119.15 37.75 -116.6 43.6 -114.6 45.75 -109.55 49.15 -106.8 50.1 -96.55 52.15 -86.45 55.0 Q-70.15 55.5 -66.65 61.15 -49.65 68.0 -41.95 77.25 L-37.15 83.45 Q-34.15 88.25 -30.3 97.6 L-29.6 98.45 -29.45 98.55 Q-25.1 92.2 -17.85 91.65 -13.85 92.35 -14.9 95.65 L-9.35 96.3 Q-6.3 97.3 -6.0 99.0 L-5.95 100.15 -6.25 101.15 -7.7 102.85 -7.75 102.9 Q-5.55 104.5 -7.5 107.8 L-9.15 108.8 -10.4 109.1 -14.35 109.1 -18.5 108.35 Q-23.4 107.25 -28.75 103.7 L-29.45 104.0 -32.25 107.75 -35.6 111.4 -35.65 111.45 Q-30.95 119.95 -33.1 122.95 -37.55 124.65 -43.45 118.25 L-44.6 117.2 -44.65 117.25 Q-47.2 118.65 -52.6 120.3 -59.1 122.3 -69.7 124.65 L-67.6 126.05 Q-65.75 129.4 -66.65 130.3 L-72.4 129.9 -76.55 130.95 -80.3 133.6 Q-68.95 139.1 -74.85 143.4 -80.6 145.15 -90.15 151.0 L-93.15 152.15 Q-95.9 153.35 -92.45 147.55 L-99.35 146.6 -99.95 146.35 -100.3 145.85 -99.75 145.2 -93.8 142.25 Q-98.0 139.35 -97.35 138.9 L-93.3 138.7 Q-82.45 140.85 -81.35 140.4 L-79.1 140.4 -77.5 139.75 -77.5 139.7 Q-87.2 133.8 -81.55 130.5 L-87.75 132.75 -95.9 137.15 -97.75 137.55 -97.95 136.8 -96.35 133.4 -96.5 133.1 -97.2 132.85 -102.55 132.3 -103.7 132.0 -104.0 131.6 -102.75 130.4 -98.05 128.2 -101.15 126.55 -101.45 126.25 -101.4 125.7 -99.05 125.3 -96.55 125.3 Q-126.15 121.8 -131.2 106.65 -137.25 95.2 -135.35 88.65 -134.95 83.25 -133.65 79.4 L-126.15 60.5 -125.65 57.9 -125.95 54.15 Q-126.75 45.65 -143.2 40.85 L-146.1 42.1 Q-154.7 43.95 -159.2 46.05 L-162.2 46.6 -170.05 50.7 Q-177.7 54.1 -178.3 53.7 L-177.65 52.35 -175.6 50.1 Q-168.5 42.6 -161.3 36.45 L-159.1 33.7 -159.1 33.6 -160.25 31.45 -160.45 29.35 -160.25 29.35 -160.25 29.1 -160.05 27.4 Q-163.8 22.95 -160.25 17.9 -156.5 13.8 -150.35 15.5 L-152.7 17.0 -155.7 19.55 -157.5 22.4 -157.7 24.1 Q-146.75 17.9 -145.55 30.5 L-145.55 33.6 -145.9 34.45 -146.55 34.95 -145.05 34.85 -144.5 34.3 -143.55 34.25 -143.35 34.95 -144.7 36.65 -144.4 39.35 -143.2 40.85 M-66.65 61.15 L-76.9 57.55 -86.45 55.0 M-97.75 79.05 Q-98.3 81.65 -77.1 85.35 -60.85 88.4 -48.2 96.3 L-44.05 100.15 -38.3 107.3 -35.6 111.4 M-29.6 98.45 L-29.15 98.95 -29.05 99.1 -29.0 99.2 -28.95 99.95 M-28.1 97.5 L-28.3 97.7 M-14.9 95.65 L-18.3 95.65 -21.5 95.25 M-160.05 27.4 L-159.6 26.35 Q-160.9 22.55 -157.5 22.4 M-160.25 29.1 Q-158.0 26.7 -158.9 30.5 L-159.4 31.05 -159.95 30.5 -160.25 29.35 M-159.0 33.7 L-159.1 33.6 M-159.1 33.7 L-159.0 33.7 Q-155.45 38.55 -146.55 34.95 M-159.6 26.35 L-157.7 24.1 M-106.35 86.5 L-106.05 87.05 -99.95 91.65 -86.55 100.5 -79.45 107.3 Q-67.25 123.9 -68.45 107.3 L-68.0 105.8 -66.45 107.3 Q-66.4 106.55 -61.4 115.2 L-59.0 118.25 -57.05 120.15 -55.25 120.8 M-91.35 125.9 L-89.55 126.5 -85.2 126.35 -91.35 125.9 -96.55 125.3 M-7.7 102.85 L-10.4 101.0 -18.95 98.65 M-28.8 100.25 L-28.8 100.8 M-52.6 120.3 L-51.95 119.0 -51.85 118.25 Q-50.95 118.55 -52.8 109.95 L-52.6 108.45 -51.1 109.45 -44.65 117.25 M-79.5 128.7 L-80.35 126.25 -85.2 126.35 M-79.5 128.7 L-80.3 129.25 -81.55 130.5 M-76.55 130.95 L-78.35 131.05 -78.9 130.5 -79.5 128.7 M-80.35 126.25 L-69.7 124.65 M-29.15 98.95 L-29.0 99.2 M-144.7 36.65 L-162.2 46.6" fill="none" stroke="#000000" stroke-linecap="round" stroke-linejoin="round" stroke-width="0.05"/>
  </g>
</svg>
