<?xml version="1.0" encoding="UTF-8" standalone="no"?>
<svg xmlns:xlink="http://www.w3.org/1999/xlink" height="148.65px" width="165.8px" xmlns="http://www.w3.org/2000/svg">
  <g transform="matrix(1.0, 0.0, 0.0, 1.0, 174.1, -3.65)">
    <path d="M-37.7 107.3 L-42.45 100.9 -46.65 96.3 Q-52.25 91.0 -54.5 90.25 L-65.15 85.35 Q-94.15 75.9 -94.15 74.35 L-96.25 72.8 -96.7 71.8 -96.25 72.8 -94.15 74.35 Q-94.15 75.9 -65.15 85.35 L-54.5 90.25 Q-52.25 91.0 -46.65 96.3 L-42.45 100.9 -37.7 107.3 -35.0 112.3 Q-33.25 117.15 -33.85 118.8 -36.4 121.85 -40.65 118.25 L-42.65 116.9 -46.7 112.95 -46.8 112.95 -51.85 107.3 -53.75 105.7 -53.95 107.3 -52.9 111.55 -52.45 114.95 -52.9 111.55 -53.95 107.3 -53.75 105.7 -51.85 107.3 -46.8 112.95 -52.45 114.95 -52.6 116.1 -53.55 117.95 -54.6 118.45 -55.8 118.6 -56.85 118.25 -57.5 118.15 -59.05 117.0 -70.7 119.85 -80.3 121.25 -70.7 119.85 -68.25 121.25 Q-66.65 123.6 -66.75 125.4 L-67.4 125.9 -74.2 125.65 -76.9 126.5 -78.05 126.55 -79.0 126.15 Q-79.75 122.55 -80.5 122.2 L-80.3 121.25 -84.35 121.25 Q-112.55 119.25 -121.6 112.0 L-123.6 109.95 Q-133.5 97.9 -133.75 88.0 L-133.4 81.2 -132.35 75.0 Q-131.15 69.9 -124.6 54.45 L-123.75 50.2 Q-123.6 47.4 -124.45 45.1 L-126.1 41.7 -126.15 41.55 Q-127.9 37.3 -141.1 33.05 L-142.3 31.45 -142.35 30.5 -142.9 28.55 Q-139.75 24.45 -144.45 26.65 -143.85 26.0 -144.0 23.15 L-144.7 19.55 Q-149.2 9.2 -156.2 15.8 L-156.15 15.25 Q-156.55 14.7 -154.95 12.1 L-151.65 8.55 -150.8 7.9 Q-139.95 -0.4 -124.4 7.5 L-121.2 10.6 Q-119.75 12.3 -118.95 14.7 -117.65 18.1 -118.2 28.35 L-116.6 32.85 -114.45 36.6 -110.6 39.85 -106.5 42.4 Q-69.05 52.05 -56.1 60.5 -39.85 69.9 -31.1 93.75 -26.3 87.5 -21.5 87.15 -16.6 86.5 -16.8 91.0 L-12.65 91.35 -9.55 92.6 -8.6 93.65 -8.3 94.6 -8.35 96.1 -8.8 96.95 -9.8 98.2 -9.85 98.25 -9.0 99.7 -8.9 101.2 -9.75 102.9 -11.35 103.9 Q-22.3 105.2 -30.45 99.1 L-30.5 99.1 -31.35 99.65 -34.35 103.9 -37.7 107.3 M-21.05 93.65 L-14.05 95.45 -12.0 96.3 -9.8 98.2 -12.0 96.3 -14.05 95.45 -21.05 93.65 M-30.5 96.1 L-30.5 94.75 -31.1 93.75 -30.5 94.75 -30.5 96.1 M-23.4 90.45 L-16.8 91.0 -23.4 90.45 M-105.2 79.6 L-87.6 96.3 -78.8 107.3 Q-69.25 119.45 -69.7 107.3 -71.75 98.5 -66.1 107.3 L-62.8 112.5 Q-60.65 115.8 -59.05 117.0 -60.65 115.8 -62.8 112.5 L-66.1 107.3 Q-71.75 98.5 -69.7 107.3 -69.25 119.45 -78.8 107.3 L-87.6 96.3 -105.2 79.6" fill="#ffffff" fill-rule="evenodd" stroke="none"/>
    <path d="M-150.8 7.9 L-151.65 8.55 -154.95 12.1 Q-156.55 14.7 -156.15 15.25 -159.7 16.1 -157.9 18.25 L-157.9 18.35 -158.35 19.3 -157.9 18.35 -157.9 18.25 -157.85 18.25 -157.9 18.35 -157.85 18.25 -156.2 15.8 Q-149.2 9.2 -144.7 19.55 L-144.0 23.15 Q-143.85 26.0 -144.45 26.65 -144.6 26.85 -144.85 26.85 -149.55 30.7 -156.75 26.0 L-158.25 23.6 -158.45 21.65 -157.7 22.8 -157.4 22.8 -156.85 21.95 Q-157.4 17.7 -158.45 21.1 L-158.35 19.3 Q-161.1 14.3 -158.05 10.9 -154.85 7.45 -150.8 7.9" fill="#ff7a16" fill-rule="evenodd" stroke="none"/>
    <path d="M-156.15 15.25 L-156.2 15.8 -157.85 18.25 -157.9 18.25 Q-159.7 16.1 -156.15 15.25 M-158.45 21.65 L-158.45 21.1 Q-157.4 17.7 -156.85 21.95 L-157.4 22.8 -157.7 22.8 -158.45 21.65" fill="#000000" fill-rule="evenodd" stroke="none"/>
    <path d="M-144.45 26.65 Q-139.75 24.45 -142.9 28.55 L-159.6 39.75 -166.35 44.05 -173.4 47.45 -174.0 47.55 -174.1 47.1 Q-174.5 45.95 -156.75 26.0 -149.55 30.7 -144.85 26.85 -144.6 26.85 -144.45 26.65 M-84.35 121.25 L-80.3 121.25 -80.5 122.2 Q-79.75 122.55 -79.0 126.15 L-80.95 129.95 -79.0 126.15 -78.05 126.55 -76.9 126.5 -74.2 125.65 -77.4 130.2 -77.75 131.15 Q-72.85 136.95 -73.05 140.4 L-73.45 141.7 -74.6 142.95 Q-82.4 145.85 -90.15 150.85 L-92.85 151.9 Q-96.1 153.75 -92.3 147.45 L-98.2 146.7 -100.1 146.15 -100.2 145.75 -99.75 145.2 -93.8 142.25 Q-98.05 139.2 -97.2 138.85 L-92.5 138.6 -82.3 140.1 -79.75 140.1 -77.75 139.35 -77.3 138.4 -80.15 133.7 -80.95 132.0 -80.95 129.95 -87.6 132.55 Q-93.4 136.1 -96.55 137.35 -99.3 139.35 -96.25 133.3 L-96.35 133.15 Q-96.95 132.5 -102.45 132.3 L-103.95 131.7 -102.95 130.6 -97.95 128.2 -101.05 126.55 -101.4 126.05 -101.15 125.7 -98.7 125.3 -94.55 125.3 -88.15 126.35 -83.35 125.9 -82.3 125.0 -82.3 124.35 -84.35 121.25 M-96.25 133.3 L-96.25 133.15 -96.35 133.15 -96.25 133.15 -96.25 133.3" fill="#fa410f" fill-rule="evenodd" stroke="none"/>
    <path d="M-142.9 28.55 L-142.35 30.5 -142.3 31.45 -141.1 33.05 -144.05 34.75 Q-159.95 40.3 -159.6 39.75 L-142.9 28.55" fill="#fa420e" fill-rule="evenodd" stroke="none"/>
    <path d="M-96.7 71.8 L-96.25 72.8 -94.15 74.35 Q-94.15 75.9 -65.15 85.35 L-54.5 90.25 Q-52.25 91.0 -46.65 96.3 L-42.45 100.9 -37.7 107.3 -34.35 103.9 -31.35 99.65 -30.5 99.1 -30.45 99.1 Q-22.3 105.2 -11.35 103.9 L-9.75 102.9 -8.9 101.2 -9.0 99.7 -9.85 98.25 -9.8 98.2 -12.0 96.3 -14.05 95.45 -21.05 93.65 M-16.8 91.0 Q-16.6 86.5 -21.5 87.15 -26.3 87.5 -31.1 93.75 L-30.5 94.75 -30.5 96.1 M-9.8 98.2 L-8.8 96.95 -8.35 96.1 -8.3 94.6 -8.6 93.65 -9.55 92.6 -12.65 91.35 -16.8 91.0 -23.4 90.45 M-31.1 93.75 Q-39.85 69.9 -56.1 60.5 -69.05 52.05 -106.5 42.4 L-110.6 39.85 -114.45 36.6 -116.6 32.85 -118.2 28.35 Q-117.65 18.1 -118.95 14.7 -119.75 12.3 -121.2 10.6 L-124.4 7.5 Q-139.95 -0.4 -150.8 7.9 L-151.65 8.55 -154.95 12.1 Q-156.55 14.7 -156.15 15.25 L-156.2 15.8 Q-149.2 9.2 -144.7 19.55 L-144.0 23.15 Q-143.85 26.0 -144.45 26.65 -139.75 24.45 -142.9 28.55 L-142.35 30.5 -142.3 31.45 -141.1 33.05 Q-127.9 37.3 -126.15 41.55 L-126.1 41.7 -124.45 45.1 Q-123.6 47.4 -123.75 50.2 L-124.6 54.45 Q-131.15 69.9 -132.35 75.0 L-133.4 81.2 -133.75 88.0 Q-133.5 97.9 -123.6 109.95 L-121.6 112.0 Q-112.55 119.25 -84.35 121.25 L-80.3 121.25 -70.7 119.85 -59.05 117.0 Q-60.65 115.8 -62.8 112.5 L-66.1 107.3 Q-71.75 98.5 -69.7 107.3 -69.25 119.45 -78.8 107.3 L-87.6 96.3 -105.2 79.6 M-158.35 19.3 L-157.9 18.35 -157.9 18.25 Q-159.7 16.1 -156.15 15.25 M-157.9 18.35 L-157.85 18.25 -157.9 18.25 M-158.45 21.65 L-158.45 21.1 -158.35 19.3 Q-161.1 14.3 -158.05 10.9 -154.85 7.45 -150.8 7.9 M-158.45 21.65 L-158.25 23.6 -156.75 26.0 Q-149.55 30.7 -144.85 26.85 -144.6 26.85 -144.45 26.65 M-158.45 21.1 Q-157.4 17.7 -156.85 21.95 L-157.4 22.8 -157.7 22.8 -158.45 21.65 M-157.85 18.25 L-156.2 15.8 M-159.6 39.75 L-142.9 28.55 M-141.1 33.05 L-144.05 34.75 Q-159.95 40.3 -159.6 39.75 L-166.35 44.05 -173.4 47.45 -174.0 47.55 -174.1 47.1 Q-174.5 45.95 -156.75 26.0 M-84.35 121.25 L-82.3 124.35 -82.3 125.0 -83.35 125.9 -88.15 126.35 -94.55 125.3 -98.7 125.3 -101.15 125.7 -101.4 126.05 -101.05 126.55 -97.95 128.2 -102.95 130.6 -103.95 131.7 -102.45 132.3 Q-96.95 132.5 -96.35 133.15 L-96.25 133.15 -96.25 133.3 Q-99.3 139.35 -96.55 137.35 -93.4 136.1 -87.6 132.55 L-80.95 129.95 -79.0 126.15 Q-79.75 122.55 -80.5 122.2 L-80.3 121.25 M-96.35 133.15 L-96.25 133.3 M-80.95 129.95 L-80.95 132.0 -80.15 133.7 -77.3 138.4 -77.75 139.35 -79.75 140.1 -82.3 140.1 -92.5 138.6 -97.2 138.85 Q-98.05 139.2 -93.8 142.25 L-99.75 145.2 -100.2 145.75 -100.1 146.15 -98.2 146.7 -92.3 147.45 Q-96.1 153.75 -92.85 151.9 L-90.15 150.85 Q-82.4 145.85 -74.6 142.95 L-73.45 141.7 -73.05 140.4 Q-72.85 136.95 -77.75 131.15 L-77.4 130.2 -74.2 125.65 -76.9 126.5 -78.05 126.55 -79.0 126.15 M-46.8 112.95 L-46.7 112.95 -42.65 116.9 -40.65 118.25 Q-36.4 121.85 -33.85 118.8 -33.25 117.15 -35.0 112.3 L-37.7 107.3 M-46.8 112.95 L-51.85 107.3 -53.75 105.7 -53.95 107.3 -52.9 111.55 -52.45 114.95 -46.8 112.95 M-59.05 117.0 L-57.5 118.15 -56.85 118.25 -55.8 118.6 -54.6 118.45 -53.55 117.95 -52.6 116.1 -52.45 114.95 M-74.2 125.65 L-67.4 125.9 -66.75 125.4 Q-66.65 123.6 -68.25 121.25 L-70.7 119.85" fill="none" stroke="#000000" stroke-linecap="round" stroke-linejoin="round" stroke-width="0.05"/>
  </g>
</svg>
