<?xml version="1.0" encoding="UTF-8" standalone="no"?>
<svg xmlns:xlink="http://www.w3.org/1999/xlink" height="158.2px" width="158.75px" xmlns="http://www.w3.org/2000/svg">
  <g transform="matrix(1.0, 0.0, 0.0, 1.0, 169.6, 6.3)">
    <path d="M-147.2 -1.25 Q-133.6 -10.7 -121.05 -2.4 L-117.45 1.1 Q-116.4 2.1 -114.9 6.35 L-114.35 10.05 Q-115.3 21.8 -114.6 22.3 L-112.35 28.55 -110.75 30.85 -106.35 34.75 -102.55 36.9 Q-64.2 49.05 -56.5 55.95 -50.0 60.75 -47.5 63.7 L-42.65 69.8 -38.75 76.85 -33.95 88.85 -32.95 90.1 -32.55 90.75 -32.35 91.85 -32.35 92.4 -32.35 91.85 -32.55 90.75 -32.95 90.1 -32.85 90.25 Q-28.6 84.1 -23.5 83.75 -19.35 82.95 -19.0 87.35 L-23.6 87.15 -25.85 86.75 -23.6 87.15 -19.0 87.35 Q-15.55 87.35 -13.7 88.2 L-11.8 89.4 -10.9 90.7 -10.85 91.4 -11.15 93.25 -12.1 94.65 -12.2 94.8 -11.55 96.3 -11.7 98.25 -12.65 99.65 -14.35 100.5 Q-24.65 101.45 -30.85 96.3 L-32.15 95.6 -32.8 95.65 -37.75 102.6 -39.2 104.05 -45.15 96.3 Q-51.0 89.75 -53.0 88.55 L-58.0 85.35 -69.3 79.6 -81.55 74.35 Q-93.4 70.05 -95.4 65.55 -93.4 70.05 -81.55 74.35 L-69.3 79.6 -58.0 85.35 -53.0 88.55 Q-51.0 89.75 -45.15 96.3 L-39.2 104.05 -39.25 104.1 Q-37.25 106.8 -35.75 112.7 L-35.55 114.0 -35.65 115.25 -36.2 116.45 Q-38.35 119.55 -48.1 109.75 L-48.2 109.75 -53.55 111.55 -53.55 111.65 Q-53.1 114.4 -55.8 115.7 L-57.9 115.6 Q-58.75 115.65 -60.55 113.8 L-60.7 113.8 -61.0 113.8 -71.35 116.35 -79.65 117.4 -79.75 117.55 -79.65 117.4 -71.35 116.35 -68.65 118.15 Q-66.9 121.5 -67.15 122.0 L-67.5 122.65 -73.15 122.1 -77.2 123.3 -78.25 123.35 -79.1 122.95 -79.45 122.2 -80.5 119.0 -80.3 118.25 -79.75 117.55 -82.5 117.6 Q-120.65 114.25 -124.7 103.45 -133.2 88.95 -131.95 80.45 -133.8 75.15 -121.9 47.1 L-121.2 42.85 -121.4 39.35 Q-123.85 28.3 -136.95 24.3 L-137.45 23.9 -138.1 22.3 -138.25 19.55 -138.45 19.0 -137.25 17.3 -137.15 16.15 -137.6 15.9 -138.65 16.85 -140.25 17.2 Q-138.3 12.95 -139.95 8.55 -142.95 -0.85 -151.0 5.15 L-150.25 2.5 -147.2 -1.25 M-103.8 73.2 L-89.1 90.05 -79.0 104.95 -77.1 107.3 Q-72.4 113.25 -70.7 107.3 -73.8 91.5 -65.35 107.3 L-62.8 111.2 -60.7 113.8 -62.8 111.2 -65.35 107.3 Q-73.8 91.5 -70.7 107.3 -72.4 113.25 -77.1 107.3 L-79.0 104.95 -89.1 90.05 -103.8 73.2 M-23.4 89.85 L-14.95 92.25 Q-13.2 93.2 -12.1 94.65 -13.2 93.2 -14.95 92.25 L-23.4 89.85 M-79.65 117.4 L-79.65 117.55 -79.75 117.55 -79.65 117.55 -79.65 117.4 M-53.55 111.65 L-54.5 107.3 Q-56.25 101.6 -54.95 102.5 L-48.2 109.75 -54.95 102.5 Q-56.25 101.6 -54.5 107.3 L-53.55 111.65" fill="#ffffff" fill-rule="evenodd" stroke="none"/>
    <path d="M-140.25 17.2 L-138.65 16.85 -137.6 15.9 -137.15 16.15 -137.25 17.3 -138.45 19.0 -142.6 21.95 Q-149.6 25.9 -155.5 30.25 L-162.75 34.65 -168.8 37.45 -169.55 37.5 -169.55 37.1 Q-170.4 36.5 -151.65 15.7 -146.1 20.7 -140.25 17.2 M-82.5 117.6 L-79.75 117.55 -80.3 118.25 -80.5 119.0 -79.45 122.2 -79.1 122.95 -78.25 123.35 -78.25 126.55 Q-78.55 128.2 -80.7 129.65 L-88.05 132.55 Q-92.6 135.65 -96.9 137.45 L-97.65 137.45 -97.85 137.15 -96.15 133.3 -96.25 133.15 Q-96.85 132.5 -102.3 132.3 L-103.8 131.7 -103.4 130.95 -102.55 130.4 -97.95 128.2 -100.8 126.7 -101.25 126.15 -100.95 125.7 -96.15 125.2 Q-94.35 124.9 -87.85 126.15 L-84.95 126.05 -83.25 125.65 -82.2 124.65 -81.8 123.7 -82.5 117.6 M-96.25 133.15 L-96.15 133.15 -96.15 133.3 -96.15 133.15 -96.25 133.15 M-97.95 128.2 L-97.4 127.95 -97.95 128.2 M-73.15 122.1 Q-75.55 128.85 -73.05 139.25 L-73.25 140.75 -74.4 142.45 -76.25 143.8 Q-82.2 145.25 -91.15 151.2 L-93.3 151.9 -93.9 151.9 -94.2 151.25 -92.2 147.35 -98.25 146.6 -99.65 146.3 -100.1 145.75 -99.75 145.1 -93.7 142.05 Q-98.4 138.95 -97.1 138.7 L-91.45 138.5 Q-84.7 139.95 -79.95 139.75 L-78.45 139.25 -77.5 138.5 -76.9 137.45 -76.75 137.35 -77.75 129.55 -77.2 123.3 -73.15 122.1" fill="#fa410f" fill-rule="evenodd" stroke="none"/>
    <path d="M-138.45 19.0 L-138.25 19.55 -138.1 22.3 -137.45 23.9 -136.95 24.3 -139.8 25.8 Q-156.1 31.0 -155.5 30.25 -149.6 25.9 -142.6 21.95 L-138.45 19.0" fill="#fa420e" fill-rule="evenodd" stroke="none"/>
    <path d="M-147.2 -1.25 L-150.25 2.5 -151.0 5.15 Q-142.95 -0.85 -139.95 8.55 -138.3 12.95 -140.25 17.2 -146.1 20.7 -151.65 15.7 L-152.95 13.45 -153.15 11.75 -152.4 12.7 -151.95 12.6 -151.65 11.75 -151.95 9.75 -152.6 9.5 -153.15 10.25 -153.25 9.5 -153.25 9.3 -152.95 8.35 -153.25 9.3 Q-155.9 1.1 -147.2 -1.25 M-151.85 6.2 L-151.0 5.15 -151.85 6.2 Q-153.65 4.5 -152.95 8.35 L-151.85 6.2" fill="#ff7a16" fill-rule="evenodd" stroke="none"/>
    <path d="M-151.85 6.2 L-152.95 8.35 Q-153.65 4.5 -151.85 6.2 M-153.15 10.25 L-152.6 9.5 -151.95 9.75 -151.65 11.75 -151.95 12.6 -152.4 12.7 -153.15 11.75 -153.15 10.25" fill="#000000" fill-rule="evenodd" stroke="none"/>
    <path d="M-32.95 90.1 L-33.95 88.85 -38.75 76.85 -42.65 69.8 -47.5 63.7 Q-50.0 60.75 -56.5 55.95 -64.2 49.05 -102.55 36.9 L-106.35 34.75 -110.75 30.85 -112.35 28.55 -114.6 22.3 Q-115.3 21.8 -114.35 10.05 L-114.9 6.35 Q-116.4 2.1 -117.45 1.1 L-121.05 -2.4 Q-133.6 -10.7 -147.2 -1.25 L-150.25 2.5 -151.0 5.15 Q-142.95 -0.85 -139.95 8.55 -138.3 12.95 -140.25 17.2 L-138.65 16.85 -137.6 15.9 -137.15 16.15 -137.25 17.3 -138.45 19.0 -138.25 19.55 -138.1 22.3 -137.45 23.9 -136.95 24.3 Q-123.85 28.3 -121.4 39.35 L-121.2 42.85 -121.9 47.1 Q-133.8 75.15 -131.95 80.45 -133.2 88.95 -124.7 103.45 -120.65 114.25 -82.5 117.6 L-79.75 117.55 -79.65 117.4 -71.35 116.35 -61.0 113.8 -60.7 113.8 -62.8 111.2 -65.35 107.3 Q-73.8 91.5 -70.7 107.3 -72.4 113.25 -77.1 107.3 L-79.0 104.95 -89.1 90.05 -103.8 73.2 M-95.4 65.55 Q-93.4 70.05 -81.55 74.35 L-69.3 79.6 -58.0 85.35 -53.0 88.55 Q-51.0 89.75 -45.15 96.3 L-39.2 104.05 -37.75 102.6 -32.8 95.65 -32.15 95.6 -30.85 96.3 Q-24.65 101.45 -14.35 100.5 L-12.65 99.65 -11.7 98.25 -11.55 96.3 -12.2 94.8 -12.1 94.65 Q-13.2 93.2 -14.95 92.25 L-23.4 89.85 M-32.95 90.1 L-32.55 90.75 -32.35 91.85 -32.35 92.4 M-19.0 87.35 Q-19.35 82.95 -23.5 83.75 -28.6 84.1 -32.85 90.25 L-32.95 90.1 M-19.0 87.35 L-23.6 87.15 -25.85 86.75 M-12.1 94.65 L-11.15 93.25 -10.85 91.4 -10.9 90.7 -11.8 89.4 -13.7 88.2 Q-15.55 87.35 -19.0 87.35 M-151.0 5.15 L-151.85 6.2 -152.95 8.35 -153.25 9.3 -153.25 9.5 -153.15 10.25 -152.6 9.5 -151.95 9.75 -151.65 11.75 -151.95 12.6 -152.4 12.7 -153.15 11.75 -152.95 13.45 -151.65 15.7 Q-146.1 20.7 -140.25 17.2 M-153.15 11.75 L-153.15 10.25 M-151.85 6.2 Q-153.65 4.5 -152.95 8.35 M-155.5 30.25 Q-156.1 31.0 -139.8 25.8 L-136.95 24.3 M-138.45 19.0 L-142.6 21.95 Q-149.6 25.9 -155.5 30.25 L-162.75 34.65 -168.8 37.45 -169.55 37.5 -169.55 37.1 Q-170.4 36.5 -151.65 15.7 M-78.25 123.35 L-78.25 126.55 Q-78.55 128.2 -80.7 129.65 L-88.05 132.55 Q-92.6 135.65 -96.9 137.45 L-97.65 137.45 -97.85 137.15 -96.15 133.3 -96.25 133.15 Q-96.85 132.5 -102.3 132.3 L-103.8 131.7 -103.4 130.95 -102.55 130.4 -97.95 128.2 -100.8 126.7 -101.25 126.15 -100.95 125.7 -96.15 125.2 Q-94.35 124.9 -87.85 126.15 L-84.95 126.05 -83.25 125.65 -82.2 124.65 -81.8 123.7 -82.5 117.6 M-97.4 127.95 L-97.95 128.2 M-96.15 133.3 L-96.15 133.15 -96.25 133.15 M-73.15 122.1 Q-75.55 128.85 -73.05 139.25 L-73.25 140.75 -74.4 142.45 -76.25 143.8 Q-82.2 145.25 -91.15 151.2 L-93.3 151.9 -93.9 151.9 -94.2 151.25 -92.2 147.35 -98.25 146.6 -99.65 146.3 -100.1 145.75 -99.75 145.1 -93.7 142.05 Q-98.4 138.95 -97.1 138.7 L-91.45 138.5 Q-84.7 139.95 -79.95 139.75 L-78.45 139.25 -77.5 138.5 -76.9 137.45 -76.75 137.35 -77.75 129.55 -77.2 123.3 -78.25 123.35 -79.1 122.95 -79.45 122.2 -80.5 119.0 -80.3 118.25 -79.75 117.55 -79.65 117.55 -79.65 117.4 M-39.2 104.05 L-39.25 104.1 Q-37.25 106.8 -35.75 112.7 L-35.55 114.0 -35.65 115.25 -36.2 116.45 Q-38.35 119.55 -48.1 109.75 L-48.2 109.75 -53.55 111.55 -53.55 111.65 Q-53.1 114.4 -55.8 115.7 L-57.9 115.6 Q-58.75 115.65 -60.55 113.8 L-60.7 113.8 M-48.2 109.75 L-54.95 102.5 Q-56.25 101.6 -54.5 107.3 L-53.55 111.65 M-73.15 122.1 L-77.2 123.3 M-71.35 116.35 L-68.65 118.15 Q-66.9 121.5 -67.15 122.0 L-67.5 122.65 -73.15 122.1 M-153.25 9.3 Q-155.9 1.1 -147.2 -1.25" fill="none" stroke="#000000" stroke-linecap="round" stroke-linejoin="round" stroke-width="0.05"/>
  </g>
</svg>
