<?xml version="1.0" encoding="UTF-8" standalone="no"?>
<svg xmlns:xlink="http://www.w3.org/1999/xlink" height="163.4px" width="154.25px" xmlns="http://www.w3.org/2000/svg">
  <g transform="matrix(1.0, 0.0, 0.0, 1.0, 166.35, 11.7)">
    <path d="M-144.7 -1.9 L-144.6 -2.4 -143.65 -4.75 -141.5 -7.1 -141.45 -7.2 Q-126.05 -16.4 -115.1 -6.8 L-111.8 -2.95 Q-110.5 -1.0 -109.75 2.05 L-109.45 8.1 Q-111.8 18.5 -110.85 20.6 -109.65 26.4 -109.05 26.85 L-107.15 29.55 -103.7 32.95 -101.05 34.65 -69.1 47.3 Q-59.7 51.75 -54.15 56.7 -42.65 64.2 -33.85 89.4 -29.4 83.45 -24.75 83.0 -19.9 82.7 -20.1 86.5 L-15.4 87.15 -13.25 88.35 -12.35 89.6 -12.1 90.45 -12.35 92.5 -13.3 93.95 -13.4 94.1 -12.85 95.25 -12.75 96.55 -13.7 98.65 -14.95 99.5 Q-21.3 101.5 -30.5 96.3 L-32.8 94.95 -33.65 94.95 -36.9 99.85 -40.25 103.55 -38.3 108.25 Q-37.25 111.65 -37.55 114.1 L-37.55 114.65 -38.55 115.85 Q-41.55 117.7 -48.75 109.0 L-48.85 109.05 -55.15 111.2 Q-55.45 112.8 -57.05 113.55 L-58.75 113.55 -60.3 112.95 -60.45 112.85 -71.55 115.6 -79.5 116.7 -71.55 115.6 Q-68.25 116.7 -67.5 121.45 L-67.8 122.1 -73.25 121.45 -77.3 122.65 -78.35 122.75 -79.1 122.45 -79.5 121.6 -80.6 118.25 -79.5 116.7 -82.65 116.75 Q-116.5 114.45 -124.4 101.75 -131.9 88.5 -131.05 78.75 L-130.45 72.6 -129.5 68.0 -127.6 62.15 -120.75 46.25 -119.25 41.05 -119.05 37.1 Q-119.15 26.3 -132.9 19.0 L-133.35 18.55 -133.65 17.3 -133.55 13.25 -132.15 11.65 -131.7 11.0 -131.85 10.25 -132.25 10.15 -133.95 11.25 -135.25 11.25 -134.6 10.9 -134.05 10.05 -133.75 8.55 Q-133.2 -1.1 -135.75 -2.4 -138.9 -5.65 -144.05 -2.4 L-144.7 -1.9 M-102.65 70.95 L-87.55 88.45 -76.75 104.95 Q-74.85 107.15 -73.75 107.3 L-73.35 107.5 -72.2 107.3 Q-70.3 108.7 -70.9 96.75 L-69.2 98.25 -62.9 109.85 -60.3 112.95 -62.9 109.85 -69.2 98.25 -70.9 96.75 Q-70.3 108.7 -72.2 107.3 L-73.35 107.5 -73.75 107.3 Q-74.85 107.15 -76.75 104.95 L-87.55 88.45 -102.65 70.95 M-26.45 86.0 L-20.1 86.5 -26.45 86.0 M-24.35 89.0 Q-13.45 91.4 -13.3 93.95 -13.45 91.4 -24.35 89.0 M-33.2 91.75 L-33.3 90.25 -33.85 89.4 -33.3 90.25 -33.2 91.75 M-40.25 103.55 L-42.15 99.95 -49.05 90.25 -54.1 85.35 Q-59.45 81.45 -64.75 78.95 L-74.4 74.35 Q-93.25 67.5 -94.35 63.4 -93.25 67.5 -74.4 74.35 L-64.75 78.95 Q-59.45 81.45 -54.1 85.35 L-49.05 90.25 -42.15 99.95 -40.25 103.55 M-55.15 111.2 L-54.95 108.65 -55.15 107.3 Q-58.75 93.2 -50.1 107.3 L-48.85 109.05 -50.1 107.3 Q-58.75 93.2 -55.15 107.3 L-54.95 108.65 -55.15 111.2" fill="#ffffff" fill-rule="evenodd" stroke="none"/>
    <path d="M-146.35 0.15 L-146.95 -0.85 -147.6 -0.3 -147.6 -0.4 -147.5 -0.8 Q-146.75 -6.1 -141.5 -7.1 L-143.65 -4.75 -144.6 -2.4 -144.7 -1.9 -146.35 0.15 -144.7 -1.9 -144.05 -2.4 Q-138.9 -5.65 -135.75 -2.4 -133.2 -1.1 -133.75 8.55 L-134.05 10.05 -134.6 10.9 -135.25 11.25 Q-141.7 14.05 -145.75 8.55 L-146.1 8.25 -146.95 6.55 -147.05 5.35 -146.35 6.35 -145.7 5.55 Q-145.65 1.7 -147.05 3.85 L-147.2 3.85 -147.25 2.8 -147.25 2.7 -147.5 1.85 -147.2 2.05 -146.35 0.15 M-147.25 2.7 L-147.2 2.7 -147.2 2.05 -147.2 2.7 -147.25 2.8 -147.2 2.7 -147.25 2.7" fill="#ff7a16" fill-rule="evenodd" stroke="none"/>
    <path d="M-147.6 -0.3 L-146.95 -0.85 -146.35 0.15 -147.2 2.05 -147.5 1.85 -147.6 1.5 -147.7 0.0 -147.6 -0.3 M-147.05 5.35 L-147.2 4.7 -147.2 4.05 -147.2 3.85 -147.05 3.85 Q-145.65 1.7 -145.7 5.55 L-146.35 6.35 -147.05 5.35 M-147.2 4.05 L-147.05 3.85 -147.2 4.05" fill="#000000" fill-rule="evenodd" stroke="none"/>
    <path d="M-135.25 11.25 L-133.95 11.25 -132.25 10.15 -131.85 10.25 -131.7 11.0 -132.15 11.65 -133.55 13.25 -151.85 23.05 -160.05 27.0 -165.7 28.9 -166.35 28.9 -166.15 28.25 Q-165.1 25.9 -146.1 8.25 L-145.75 8.55 Q-141.7 14.05 -135.25 11.25 M-82.65 116.75 L-79.5 116.7 -80.6 118.25 -79.5 121.6 -79.1 122.45 -78.35 122.75 -78.25 126.15 -78.45 127.1 -79.65 128.8 Q-80.4 130.15 -87.95 132.55 L-95.7 137.0 -97.0 137.45 -97.75 137.2 -96.15 133.1 -102.1 132.3 -103.6 131.8 -103.4 130.95 -97.85 128.25 -97.9 128.25 -100.5 126.9 -101.15 126.35 -100.95 125.7 -97.0 125.2 -83.5 125.65 -82.4 124.75 -81.8 123.7 -82.65 116.75 M-97.9 128.25 L-97.55 128.05 -97.9 128.25 M-73.25 121.45 L-74.4 127.75 -74.4 129.45 -73.45 134.8 -73.15 139.55 -73.7 141.4 -76.05 143.6 Q-82.5 145.45 -92.1 151.5 L-94.15 151.7 -94.15 151.0 Q-91.9 147.65 -92.2 147.35 -99.75 146.6 -100.1 145.85 L-99.75 145.1 -93.7 141.9 -96.7 139.75 -97.2 138.9 Q-94.35 137.45 -80.35 139.7 L-78.05 138.85 -76.9 137.2 Q-78.4 130.4 -77.3 122.65 L-73.25 121.45" fill="#fa410f" fill-rule="evenodd" stroke="none"/>
    <path d="M-133.55 13.25 L-133.65 17.3 -133.35 18.55 -132.9 19.0 -136.1 20.25 Q-152.5 23.8 -151.85 23.05 L-133.55 13.25" fill="#fa420e" fill-rule="evenodd" stroke="none"/>
    <path d="M-147.6 -0.3 L-146.95 -0.85 -146.35 0.15 -144.7 -1.9 -144.6 -2.4 -143.65 -4.75 -141.5 -7.1 Q-146.75 -6.1 -147.5 -0.8 L-147.6 -0.4 -147.6 -0.3 -147.7 0.0 -147.6 1.5 -147.5 1.85 -147.2 2.05 -146.35 0.15 M-144.7 -1.9 L-144.05 -2.4 Q-138.9 -5.65 -135.75 -2.4 -133.2 -1.1 -133.75 8.55 L-134.05 10.05 -134.6 10.9 -135.25 11.25 -133.95 11.25 -132.25 10.15 -131.85 10.25 -131.7 11.0 -132.15 11.65 -133.55 13.25 -133.65 17.3 -133.35 18.55 -132.9 19.0 Q-119.15 26.3 -119.05 37.1 L-119.25 41.05 -120.75 46.25 -127.6 62.15 -129.5 68.0 -130.45 72.6 -131.05 78.75 Q-131.9 88.5 -124.4 101.75 -116.5 114.45 -82.65 116.75 L-79.5 116.7 -71.55 115.6 -60.45 112.85 -60.3 112.95 -62.9 109.85 -69.2 98.25 -70.9 96.75 Q-70.3 108.7 -72.2 107.3 L-73.35 107.5 -73.75 107.3 Q-74.85 107.15 -76.75 104.95 L-87.55 88.45 -102.65 70.95 M-141.5 -7.1 L-141.45 -7.2 Q-126.05 -16.4 -115.1 -6.8 L-111.8 -2.95 Q-110.5 -1.0 -109.75 2.05 L-109.45 8.1 Q-111.8 18.5 -110.85 20.6 -109.65 26.4 -109.05 26.85 L-107.15 29.55 -103.7 32.95 -101.05 34.65 -69.1 47.3 Q-59.7 51.75 -54.15 56.7 -42.65 64.2 -33.85 89.4 -29.4 83.45 -24.75 83.0 -19.9 82.7 -20.1 86.5 L-15.4 87.15 -13.25 88.35 -12.35 89.6 -12.1 90.45 -12.35 92.5 -13.3 93.95 -13.4 94.1 -12.85 95.25 -12.75 96.55 -13.7 98.65 -14.95 99.5 Q-21.3 101.5 -30.5 96.3 L-32.8 94.95 -33.65 94.95 -36.9 99.85 -40.25 103.55 -38.3 108.25 Q-37.25 111.65 -37.55 114.1 L-37.55 114.65 -38.55 115.85 Q-41.55 117.7 -48.75 109.0 L-48.85 109.05 -55.15 111.2 Q-55.45 112.8 -57.05 113.55 L-58.75 113.55 -60.3 112.95 M-94.35 63.4 Q-93.25 67.5 -74.4 74.35 L-64.75 78.95 Q-59.45 81.45 -54.1 85.35 L-49.05 90.25 -42.15 99.95 -40.25 103.55 M-33.85 89.4 L-33.3 90.25 -33.2 91.75 M-13.3 93.95 Q-13.45 91.4 -24.35 89.0 M-20.1 86.5 L-26.45 86.0 M-132.9 19.0 L-136.1 20.25 Q-152.5 23.8 -151.85 23.05 L-160.05 27.0 -165.7 28.9 -166.35 28.9 -166.15 28.25 Q-165.1 25.9 -146.1 8.25 L-146.95 6.55 -147.05 5.35 -147.2 4.7 -147.2 4.05 -147.2 3.85 -147.25 2.8 -147.25 2.7 -147.5 1.85 M-147.2 2.05 L-147.2 2.7 -147.25 2.8 M-147.2 2.7 L-147.25 2.7 M-147.05 3.85 L-147.2 4.05 M-147.05 3.85 L-147.2 3.85 M-135.25 11.25 Q-141.7 14.05 -145.75 8.55 L-146.1 8.25 M-147.05 5.35 L-146.35 6.35 -145.7 5.55 Q-145.65 1.7 -147.05 3.85 M-133.55 13.25 L-151.85 23.05 M-78.35 122.75 L-78.25 126.15 -78.45 127.1 -79.65 128.8 Q-80.4 130.15 -87.95 132.55 L-95.7 137.0 -97.0 137.45 -97.75 137.2 -96.15 133.1 -102.1 132.3 -103.6 131.8 -103.4 130.95 -97.85 128.25 -97.9 128.25 -100.5 126.9 -101.15 126.35 -100.95 125.7 -97.0 125.2 -83.5 125.65 -82.4 124.75 -81.8 123.7 -82.65 116.75 M-97.55 128.05 L-97.9 128.25 M-73.25 121.45 L-74.4 127.75 -74.4 129.45 -73.45 134.8 -73.15 139.55 -73.7 141.4 -76.05 143.6 Q-82.5 145.45 -92.1 151.5 L-94.15 151.7 -94.15 151.0 Q-91.9 147.65 -92.2 147.35 -99.75 146.6 -100.1 145.85 L-99.75 145.1 -93.7 141.9 -96.7 139.75 -97.2 138.9 Q-94.35 137.45 -80.35 139.7 L-78.05 138.85 -76.9 137.2 Q-78.4 130.4 -77.3 122.65 L-78.35 122.75 -79.1 122.45 -79.5 121.6 -80.6 118.25 -79.5 116.7 M-48.85 109.05 L-50.1 107.3 Q-58.75 93.2 -55.15 107.3 L-54.95 108.65 -55.15 111.2 M-77.3 122.65 L-73.25 121.45 -67.8 122.1 -67.5 121.45 Q-68.25 116.7 -71.55 115.6" fill="none" stroke="#000000" stroke-linecap="round" stroke-linejoin="round" stroke-width="0.05"/>
  </g>
</svg>
