<?xml version="1.0" encoding="UTF-8" standalone="no"?>
<svg xmlns:xlink="http://www.w3.org/1999/xlink" height="165.7px" width="151.8px" xmlns="http://www.w3.org/2000/svg">
  <g transform="matrix(1.0, 0.0, 0.0, 1.0, 163.9, 14.0)">
    <path d="M-141.85 -3.25 L-141.75 -3.25 -141.75 -3.4 -141.75 -3.25 -141.85 -3.25 -141.75 -3.4 -141.75 -3.6 -141.2 -4.3 -140.65 -4.1 -140.35 -3.4 -141.0 -1.25 -141.5 -1.7 -141.85 -3.25 M-141.0 -0.05 L-140.65 -0.6 -140.0 -0.6 -139.5 0.6 Q-139.7 3.8 -140.85 1.75 L-141.0 1.3 -141.0 -0.05" fill="#000000" fill-rule="evenodd" stroke="none"/>
    <path d="M-141.5 -1.7 L-141.0 -1.25 -140.35 -3.4 -140.65 -4.1 -141.2 -4.3 -141.75 -3.6 Q-139.7 -11.65 -134.4 -10.95 L-136.95 -8.7 -138.1 -6.15 Q-129.05 -10.8 -127.35 -2.4 -126.4 4.95 -130.15 7.9 -137.2 9.75 -140.65 3.35 L-140.85 1.75 Q-139.7 3.8 -139.5 0.6 L-140.0 -0.6 -140.65 -0.6 -141.0 -0.05 -141.1 -0.05 -141.2 -0.3 -141.2 -0.5 -141.5 -1.7 M-141.0 -1.25 L-141.2 -0.5 -141.0 -1.25 M-140.35 -3.4 L-138.1 -6.15 -140.35 -3.4" fill="#ff7a16" fill-rule="evenodd" stroke="none"/>
    <path d="M-130.15 7.9 Q-126.4 4.95 -127.35 -2.4 -129.05 -10.8 -138.1 -6.15 L-136.95 -8.7 -134.4 -10.95 Q-127.65 -15.3 -118.5 -13.4 -106.95 -9.1 -105.1 -2.0 L-104.25 2.05 -104.45 7.2 Q-104.1 7.85 -107.35 16.45 L-107.75 20.25 Q-107.3 26.85 -106.55 27.1 L-103.3 31.75 -101.05 33.9 -99.65 34.75 -69.4 47.25 -60.7 51.9 -51.6 58.75 Q-39.85 70.2 -33.85 89.4 -29.45 83.45 -24.7 83.0 -19.95 82.7 -20.1 86.5 L-15.4 87.15 -13.2 88.45 -12.4 89.4 -12.1 90.45 -12.35 92.5 -13.3 93.95 -13.4 94.1 -12.85 95.25 -12.75 96.55 -13.7 98.65 -14.95 99.5 Q-21.3 101.5 -30.5 96.3 L-32.8 94.95 -33.65 94.95 -37.45 100.55 -40.55 103.9 -44.6 96.3 -48.55 90.25 -53.0 85.35 Q-55.65 82.9 -62.7 79.05 L-72.4 74.35 -87.55 68.1 Q-92.45 65.7 -93.5 63.4 L-93.7 63.0 -93.5 63.4 Q-92.45 65.7 -87.55 68.1 L-72.4 74.35 -62.7 79.05 Q-55.65 82.9 -53.0 85.35 L-48.55 90.25 -44.6 96.3 -40.55 103.9 Q-36.85 113.1 -39.05 116.1 -42.35 118.25 -49.2 109.2 L-54.95 100.5 -55.7 99.8 -56.1 100.05 -56.2 101.55 -55.45 108.9 -55.95 111.5 -55.45 108.9 -56.2 101.55 -56.1 100.05 -55.7 99.8 -54.95 100.5 -49.2 109.2 -55.85 111.45 -55.95 111.5 -57.5 112.85 -59.4 112.95 -59.85 112.65 -59.9 112.65 -71.55 115.6 -79.45 116.55 -71.55 115.6 Q-68.25 116.7 -67.5 121.45 L-67.8 122.1 -73.25 121.45 -77.3 122.65 -78.35 122.75 -79.1 122.45 -79.5 121.6 -80.6 118.25 -79.45 116.55 -82.65 116.75 Q-120.25 114.3 -126.3 97.8 -132.6 88.9 -130.35 71.75 -129.5 67.05 -127.8 62.8 L-118.85 42.95 -117.8 38.6 -117.55 35.6 Q-117.85 24.05 -129.35 16.0 L-129.6 13.45 -128.75 10.15 -126.4 7.9 -126.6 7.2 -128.45 7.9 -130.15 7.9 M-102.0 70.65 L-86.7 88.0 -81.15 96.3 Q-70.3 116.75 -70.5 96.3 L-70.05 96.0 -69.65 96.3 -68.85 97.3 -62.05 110.8 -59.9 112.65 -62.05 110.8 -68.85 97.3 -69.65 96.3 -70.05 96.0 -70.5 96.3 Q-70.3 116.75 -81.15 96.3 L-86.7 88.0 -102.0 70.65 M-24.35 89.0 Q-13.45 91.4 -13.3 93.95 -13.45 91.4 -24.35 89.0 M-33.2 91.75 L-33.3 90.25 -33.85 89.4 -33.3 90.25 -33.2 91.75 M-26.45 86.0 L-20.1 86.5 -26.45 86.0" fill="#ffffff" fill-rule="evenodd" stroke="none"/>
    <path d="M-140.65 3.35 Q-137.2 9.75 -130.15 7.9 L-128.45 7.9 -126.6 7.2 -126.4 7.9 -128.75 10.15 -148.75 17.6 -156.65 20.15 -162.2 21.3 -163.9 21.45 -163.8 21.1 -162.8 19.95 -159.85 17.5 -144.4 6.75 -140.65 3.35 M-82.65 116.75 L-79.45 116.55 -80.6 118.25 -79.5 121.6 -79.1 122.45 -78.35 122.75 -78.25 126.15 -78.45 127.1 -79.65 128.8 Q-80.4 130.15 -87.95 132.55 L-95.7 137.0 -97.0 137.45 -97.75 137.2 -96.15 133.1 -102.1 132.3 -103.6 131.8 -103.4 130.95 -97.85 128.25 -97.9 128.25 -100.5 126.9 -101.15 126.35 -100.95 125.7 -97.0 125.2 -83.5 125.65 -82.4 124.75 -81.8 123.7 -82.65 116.75 M-97.9 128.25 L-97.55 128.05 -97.9 128.25 M-73.25 121.45 L-74.4 127.75 -74.4 129.45 -73.45 134.8 -73.15 139.55 -73.7 141.4 -76.05 143.6 Q-82.5 145.45 -92.1 151.5 L-94.15 151.7 -94.15 151.0 Q-91.9 147.65 -92.2 147.35 -99.75 146.6 -100.1 145.85 L-99.75 145.1 -93.7 141.9 -96.7 139.75 -97.2 138.9 Q-94.35 137.45 -80.35 139.7 L-78.05 138.85 -76.9 137.2 Q-78.4 130.4 -77.3 122.65 L-73.25 121.45" fill="#fa410f" fill-rule="evenodd" stroke="none"/>
    <path d="M-128.75 10.15 L-129.6 13.45 -129.35 16.0 -132.55 16.85 -148.75 17.6 -128.75 10.15" fill="#fa420e" fill-rule="evenodd" stroke="none"/>
    <path d="M-141.75 -3.4 L-141.75 -3.25 -141.85 -3.25 -141.5 -1.7 -141.0 -1.25 -140.35 -3.4 -140.65 -4.1 -141.2 -4.3 -141.75 -3.6 -141.75 -3.4 -141.85 -3.25 M-141.2 -0.5 L-141.0 -1.25 M-141.5 -1.7 L-141.2 -0.5 -141.2 -0.3 -141.1 -0.05 -141.0 -0.05 -140.65 -0.6 -140.0 -0.6 -139.5 0.6 Q-139.7 3.8 -140.85 1.75 L-140.65 3.35 Q-137.2 9.75 -130.15 7.9 -126.4 4.95 -127.35 -2.4 -129.05 -10.8 -138.1 -6.15 L-140.35 -3.4 M-134.4 -10.95 L-136.95 -8.7 -138.1 -6.15 M-134.4 -10.95 Q-139.7 -11.65 -141.75 -3.6 M-33.85 89.4 Q-39.85 70.2 -51.6 58.75 L-60.7 51.9 -69.4 47.25 -99.65 34.75 -101.05 33.9 -103.3 31.75 -106.55 27.1 Q-107.3 26.85 -107.75 20.25 L-107.35 16.45 Q-104.1 7.85 -104.45 7.2 L-104.25 2.05 -105.1 -2.0 Q-106.95 -9.1 -118.5 -13.4 -127.65 -15.3 -134.4 -10.95 M-59.9 112.65 L-62.05 110.8 -68.85 97.3 -69.65 96.3 -70.05 96.0 -70.5 96.3 Q-70.3 116.75 -81.15 96.3 L-86.7 88.0 -102.0 70.65 M-93.7 63.0 L-93.5 63.4 Q-92.45 65.7 -87.55 68.1 L-72.4 74.35 -62.7 79.05 Q-55.65 82.9 -53.0 85.35 L-48.55 90.25 -44.6 96.3 -40.55 103.9 -37.45 100.55 -33.65 94.95 -32.8 94.95 -30.5 96.3 Q-21.3 101.5 -14.95 99.5 L-13.7 98.65 -12.75 96.55 -12.85 95.25 -13.4 94.1 -13.3 93.95 Q-13.45 91.4 -24.35 89.0 M-20.1 86.5 Q-19.95 82.7 -24.7 83.0 -29.45 83.45 -33.85 89.4 L-33.3 90.25 -33.2 91.75 M-13.3 93.95 L-12.35 92.5 -12.1 90.45 -12.4 89.4 -13.2 88.45 -15.4 87.15 -20.1 86.5 -26.45 86.0 M-129.35 16.0 Q-117.85 24.05 -117.55 35.6 L-117.8 38.6 -118.85 42.95 -127.8 62.8 Q-129.5 67.05 -130.35 71.75 -132.6 88.9 -126.3 97.8 -120.25 114.3 -82.65 116.75 L-79.45 116.55 -71.55 115.6 -59.9 112.65 -59.85 112.65 -59.4 112.95 -57.5 112.85 -55.95 111.5 -55.45 108.9 -56.2 101.55 -56.1 100.05 -55.7 99.8 -54.95 100.5 -49.2 109.2 Q-42.35 118.25 -39.05 116.1 -36.85 113.1 -40.55 103.9 M-130.15 7.9 L-128.45 7.9 -126.6 7.2 -126.4 7.9 -128.75 10.15 -129.6 13.45 -129.35 16.0 -132.55 16.85 -148.75 17.6 -156.65 20.15 -162.2 21.3 -163.9 21.45 -163.8 21.1 -162.8 19.95 -159.85 17.5 -144.4 6.75 -140.65 3.35 M-140.85 1.75 L-141.0 1.3 -141.0 -0.05 M-128.75 10.15 L-148.75 17.6 M-78.35 122.75 L-78.25 126.15 -78.45 127.1 -79.65 128.8 Q-80.4 130.15 -87.95 132.55 L-95.7 137.0 -97.0 137.45 -97.75 137.2 -96.15 133.1 -102.1 132.3 -103.6 131.8 -103.4 130.95 -97.85 128.25 -97.9 128.25 -100.5 126.9 -101.15 126.35 -100.95 125.7 -97.0 125.2 -83.5 125.65 -82.4 124.75 -81.8 123.7 -82.65 116.75 M-97.55 128.05 L-97.9 128.25 M-73.25 121.45 L-74.4 127.75 -74.4 129.45 -73.45 134.8 -73.15 139.55 -73.7 141.4 -76.05 143.6 Q-82.5 145.45 -92.1 151.5 L-94.15 151.7 -94.15 151.0 Q-91.9 147.65 -92.2 147.35 -99.75 146.6 -100.1 145.85 L-99.75 145.1 -93.7 141.9 -96.7 139.75 -97.2 138.9 Q-94.35 137.45 -80.35 139.7 L-78.05 138.85 -76.9 137.2 Q-78.4 130.4 -77.3 122.65 L-78.35 122.75 -79.1 122.45 -79.5 121.6 -80.6 118.25 -79.45 116.55 M-55.95 111.5 L-55.85 111.45 -49.2 109.2 M-73.25 121.45 L-77.3 122.65 M-71.55 115.6 Q-68.25 116.7 -67.5 121.45 L-67.8 122.1 -73.25 121.45" fill="none" stroke="#000000" stroke-linecap="round" stroke-linejoin="round" stroke-width="0.05"/>
  </g>
</svg>
