<?xml version="1.0" encoding="UTF-8" standalone="no"?>
<svg xmlns:xlink="http://www.w3.org/1999/xlink" height="166.8px" width="150.2px" xmlns="http://www.w3.org/2000/svg">
  <g transform="matrix(1.0, 0.0, 0.0, 1.0, 162.3, 15.1)">
    <path d="M-129.7 -13.05 L-132.55 -10.85 -133.75 -8.6 Q-124.0 -13.65 -123.0 -2.4 -123.55 4.75 -127.05 5.75 -133.8 7.55 -136.95 0.0 L-136.85 -0.3 Q-135.0 1.2 -135.9 -2.4 L-136.2 -2.85 -136.85 -2.4 -137.05 -2.0 -137.25 -2.3 -137.15 -2.3 -137.15 -2.4 -137.05 -3.25 -137.05 -3.4 -137.05 -3.25 -137.15 -2.4 -137.15 -2.3 -137.25 -2.3 -137.25 -2.4 -137.7 -3.8 -137.15 -3.4 -137.05 -3.4 -136.55 -5.3 -136.85 -6.25 -137.6 -6.35 -137.9 -5.8 Q-136.5 -13.7 -129.7 -13.05 M-136.55 -5.3 L-135.45 -7.0 -133.75 -8.6 -135.45 -7.0 -136.55 -5.3 M-137.05 -3.25 L-137.15 -3.4 -137.05 -3.25 M-137.15 -2.4 L-137.25 -2.4 -137.15 -2.4" fill="#ff7a16" fill-rule="evenodd" stroke="none"/>
    <path d="M-127.05 5.75 Q-123.55 4.75 -123.0 -2.4 -124.0 -13.65 -133.75 -8.6 L-132.55 -10.85 -129.7 -13.05 Q-123.7 -17.0 -112.35 -13.4 -102.5 -8.25 -101.4 -0.7 L-101.05 3.0 -101.7 7.6 Q-100.95 7.1 -106.15 18.35 L-106.5 20.8 Q-106.65 27.5 -105.7 27.85 L-102.65 32.4 -101.05 34.0 -99.05 35.15 -68.65 47.55 Q-61.2 50.7 -51.6 58.75 -39.85 70.2 -33.85 89.4 -29.45 83.45 -24.7 83.0 -19.95 82.7 -20.1 86.5 L-15.4 87.15 -13.2 88.45 -12.4 89.4 -12.1 90.45 -12.35 92.5 -13.3 93.95 -13.4 94.1 -12.85 95.25 -12.75 96.55 -13.7 98.65 -14.95 99.5 Q-21.3 101.5 -30.5 96.3 L-32.8 94.95 -33.65 94.95 -37.45 100.55 -40.55 103.9 Q-36.85 113.1 -39.05 116.1 -42.35 118.25 -49.2 109.2 L-55.85 111.45 -55.95 111.5 -57.5 112.85 -59.4 112.95 -59.85 112.65 -59.9 112.65 -71.55 115.6 -79.45 116.55 -71.55 115.6 Q-68.25 116.7 -67.5 121.45 L-67.8 122.1 -73.25 121.45 -77.3 122.65 -78.35 122.75 -79.1 122.45 -79.5 121.6 -80.6 118.25 -79.45 116.55 -82.65 116.75 Q-123.65 113.95 -127.6 95.15 -133.15 82.45 -130.15 71.1 -131.1 68.55 -118.4 41.55 L-117.45 37.0 -117.35 33.6 Q-118.9 21.3 -127.45 14.2 L-127.45 14.1 -127.45 14.2 -127.6 14.2 -127.45 14.1 -127.25 11.55 -125.75 8.25 -123.75 6.85 -123.1 5.7 -124.05 5.55 -125.45 6.1 -127.05 5.75 M-102.0 70.65 L-86.7 88.0 -81.15 96.3 Q-70.3 116.75 -70.5 96.3 L-70.05 96.0 -69.65 96.3 -68.85 97.3 -62.05 110.8 -59.9 112.65 -62.05 110.8 -68.85 97.3 -69.65 96.3 -70.05 96.0 -70.5 96.3 Q-70.3 116.75 -81.15 96.3 L-86.7 88.0 -102.0 70.65 M-26.45 86.0 L-20.1 86.5 -26.45 86.0 M-24.35 89.0 Q-13.45 91.4 -13.3 93.95 -13.45 91.4 -24.35 89.0 M-33.2 91.75 L-33.3 90.25 -33.85 89.4 -33.3 90.25 -33.2 91.75 M-40.55 103.9 L-44.6 96.3 -48.55 90.25 -53.0 85.35 Q-55.65 82.9 -62.7 79.05 L-72.4 74.35 -87.55 68.1 Q-92.45 65.7 -93.5 63.4 L-93.7 63.0 -93.5 63.4 Q-92.45 65.7 -87.55 68.1 L-72.4 74.35 -62.7 79.05 Q-55.65 82.9 -53.0 85.35 L-48.55 90.25 -44.6 96.3 -40.55 103.9 M-49.2 109.2 L-54.95 100.5 -55.7 99.8 -56.1 100.05 -56.2 101.55 -55.45 108.9 -55.95 111.5 -55.45 108.9 -56.2 101.55 -56.1 100.05 -55.7 99.8 -54.95 100.5 -49.2 109.2" fill="#ffffff" fill-rule="evenodd" stroke="none"/>
    <path d="M-136.55 -5.3 L-137.05 -3.4 -137.15 -3.4 -137.7 -3.8 -137.9 -5.4 -137.9 -5.8 -137.6 -6.35 -136.85 -6.25 -136.55 -5.3 M-137.05 -2.0 L-136.85 -2.4 -136.2 -2.85 -135.9 -2.4 Q-135.0 1.2 -136.85 -0.3 L-136.95 -0.5 -137.05 -2.0" fill="#000000" fill-rule="evenodd" stroke="none"/>
    <path d="M-127.05 5.75 L-125.45 6.1 -124.05 5.55 -123.1 5.7 -123.75 6.85 -125.75 8.25 -146.95 13.65 -155.35 15.35 -162.3 15.9 -162.2 15.35 Q-161.45 13.7 -140.65 2.9 L-136.95 0.0 Q-133.8 7.55 -127.05 5.75 M-82.65 116.75 L-79.45 116.55 -80.6 118.25 -79.5 121.6 -79.1 122.45 -78.35 122.75 -78.25 126.15 -78.45 127.1 -79.65 128.8 Q-80.4 130.15 -87.95 132.55 L-95.7 137.0 -97.0 137.45 -97.75 137.2 -96.15 133.1 -102.1 132.3 -103.6 131.8 -103.4 130.95 -97.85 128.25 -97.9 128.25 -100.5 126.9 -101.15 126.35 -100.95 125.7 -97.0 125.2 -83.5 125.65 -82.4 124.75 -81.8 123.7 -82.65 116.75 M-97.9 128.25 L-97.55 128.05 -97.9 128.25 M-73.25 121.45 L-74.4 127.75 -74.4 129.45 -73.45 134.8 -73.15 139.55 -73.7 141.4 -76.05 143.6 Q-82.5 145.45 -92.1 151.5 L-94.15 151.7 -94.15 151.0 Q-91.9 147.65 -92.2 147.35 -99.75 146.6 -100.1 145.85 L-99.75 145.1 -93.7 141.9 -96.7 139.75 -97.2 138.9 Q-94.35 137.45 -80.35 139.7 L-78.05 138.85 -76.9 137.2 Q-78.4 130.4 -77.3 122.65 L-73.25 121.45" fill="#fa410f" fill-rule="evenodd" stroke="none"/>
    <path d="M-125.75 8.25 L-127.25 11.55 -127.45 14.1 -127.6 14.2 -132.35 14.65 -143.75 14.1 -146.95 13.65 -125.75 8.25" fill="#fa420e" fill-rule="evenodd" stroke="none"/>
    <path d="M-129.7 -13.05 L-132.55 -10.85 -133.75 -8.6 Q-124.0 -13.65 -123.0 -2.4 -123.55 4.75 -127.05 5.75 L-125.45 6.1 -124.05 5.55 -123.1 5.7 -123.75 6.85 -125.75 8.25 -127.25 11.55 -127.45 14.1 -127.45 14.2 Q-118.9 21.3 -117.35 33.6 L-117.45 37.0 -118.4 41.55 Q-131.1 68.55 -130.15 71.1 -133.15 82.45 -127.6 95.15 -123.65 113.95 -82.65 116.75 L-79.45 116.55 -71.55 115.6 -59.9 112.65 -62.05 110.8 -68.85 97.3 -69.65 96.3 -70.05 96.0 -70.5 96.3 Q-70.3 116.75 -81.15 96.3 L-86.7 88.0 -102.0 70.65 M-133.75 -8.6 L-135.45 -7.0 -136.55 -5.3 -137.05 -3.4 -137.05 -3.25 -137.15 -2.4 -137.15 -2.3 -137.25 -2.3 -137.05 -2.0 -136.85 -2.4 -136.2 -2.85 -135.9 -2.4 Q-135.0 1.2 -136.85 -0.3 L-136.95 0.0 Q-133.8 7.55 -127.05 5.75 M-137.9 -5.8 L-137.6 -6.35 -136.85 -6.25 -136.55 -5.3 M-137.05 -3.4 L-137.15 -3.4 -137.05 -3.25 M-137.7 -3.8 L-137.9 -5.4 -137.9 -5.8 Q-136.5 -13.7 -129.7 -13.05 -123.7 -17.0 -112.35 -13.4 -102.5 -8.25 -101.4 -0.7 L-101.05 3.0 -101.7 7.6 Q-100.95 7.1 -106.15 18.35 L-106.5 20.8 Q-106.65 27.5 -105.7 27.85 L-102.65 32.4 -101.05 34.0 -99.05 35.15 -68.65 47.55 Q-61.2 50.7 -51.6 58.75 -39.85 70.2 -33.85 89.4 -29.45 83.45 -24.7 83.0 -19.95 82.7 -20.1 86.5 L-15.4 87.15 -13.2 88.45 -12.4 89.4 -12.1 90.45 -12.35 92.5 -13.3 93.95 -13.4 94.1 -12.85 95.25 -12.75 96.55 -13.7 98.65 -14.95 99.5 Q-21.3 101.5 -30.5 96.3 L-32.8 94.95 -33.65 94.95 -37.45 100.55 -40.55 103.9 Q-36.85 113.1 -39.05 116.1 -42.35 118.25 -49.2 109.2 L-55.85 111.45 -55.95 111.5 -57.5 112.85 -59.4 112.95 -59.85 112.65 -59.9 112.65 M-137.15 -3.4 L-137.7 -3.8 -137.25 -2.4 -137.15 -2.4 M-137.25 -2.3 L-137.25 -2.4 M-136.85 -0.3 L-136.95 -0.5 -137.05 -2.0 M-93.7 63.0 L-93.5 63.4 Q-92.45 65.7 -87.55 68.1 L-72.4 74.35 -62.7 79.05 Q-55.65 82.9 -53.0 85.35 L-48.55 90.25 -44.6 96.3 -40.55 103.9 M-33.85 89.4 L-33.3 90.25 -33.2 91.75 M-13.3 93.95 Q-13.45 91.4 -24.35 89.0 M-20.1 86.5 L-26.45 86.0 M-146.95 13.65 L-155.35 15.35 -162.3 15.9 -162.2 15.35 Q-161.45 13.7 -140.65 2.9 L-136.95 0.0 M-127.45 14.1 L-127.6 14.2 -127.45 14.2 M-127.6 14.2 L-132.35 14.65 -143.75 14.1 -146.95 13.65 -125.75 8.25 M-78.35 122.75 L-78.25 126.15 -78.45 127.1 -79.65 128.8 Q-80.4 130.15 -87.95 132.55 L-95.7 137.0 -97.0 137.45 -97.75 137.2 -96.15 133.1 -102.1 132.3 -103.6 131.8 -103.4 130.95 -97.85 128.25 -97.9 128.25 -100.5 126.9 -101.15 126.35 -100.95 125.7 -97.0 125.2 -83.5 125.65 -82.4 124.75 -81.8 123.7 -82.65 116.75 M-97.55 128.05 L-97.9 128.25 M-73.25 121.45 L-74.4 127.75 -74.4 129.45 -73.45 134.8 -73.15 139.55 -73.7 141.4 -76.05 143.6 Q-82.5 145.45 -92.1 151.5 L-94.15 151.7 -94.15 151.0 Q-91.9 147.65 -92.2 147.35 -99.75 146.6 -100.1 145.85 L-99.75 145.1 -93.7 141.9 -96.7 139.75 -97.2 138.9 Q-94.35 137.45 -80.35 139.7 L-78.05 138.85 -76.9 137.2 Q-78.4 130.4 -77.3 122.65 L-78.35 122.75 -79.1 122.45 -79.5 121.6 -80.6 118.25 -79.45 116.55 M-55.95 111.5 L-55.45 108.9 -56.2 101.55 -56.1 100.05 -55.7 99.8 -54.95 100.5 -49.2 109.2 M-73.25 121.45 L-77.3 122.65 M-71.55 115.6 Q-68.25 116.7 -67.5 121.45 L-67.8 122.1 -73.25 121.45" fill="none" stroke="#000000" stroke-linecap="round" stroke-linejoin="round" stroke-width="0.05"/>
  </g>
</svg>
