<?xml version="1.0" encoding="UTF-8" standalone="no"?>
<svg xmlns:xlink="http://www.w3.org/1999/xlink" height="167.6px" width="148.35px" xmlns="http://www.w3.org/2000/svg">
  <g transform="matrix(1.0, 0.0, 0.0, 1.0, 160.45, 15.9)">
    <path d="M-124.15 4.3 Q-122.2 4.1 -120.85 1.65 L-119.35 -2.4 -118.95 -6.35 Q-119.05 -7.9 -120.55 -10.1 -123.0 -13.1 -129.7 -10.5 L-128.95 -12.0 -127.45 -13.4 -125.1 -14.7 Q-108.6 -19.7 -99.45 -4.25 L-98.4 -0.3 Q-98.05 3.6 -98.6 6.0 L-99.95 9.95 -104.65 18.25 -105.4 20.8 -105.7 24.3 Q-106.05 26.85 -104.8 29.0 L-101.9 33.25 -99.9 34.85 Q-61.6 48.25 -51.6 58.75 -39.85 70.2 -33.85 89.4 -29.45 83.45 -24.7 83.0 -19.95 82.7 -20.1 86.5 L-15.4 87.15 -13.2 88.45 -12.4 89.4 -12.1 90.45 -12.35 92.5 -13.3 93.95 -13.4 94.1 -12.85 95.25 -12.75 96.55 -13.7 98.65 -14.95 99.5 Q-21.3 101.5 -30.5 96.3 L-32.8 94.95 -33.65 94.95 -37.45 100.55 -40.55 103.9 Q-36.85 113.1 -39.05 116.1 -42.35 118.25 -49.2 109.2 L-55.85 111.45 -55.95 111.5 -57.5 112.85 -59.4 112.95 -59.85 112.65 -59.9 112.65 -71.55 115.6 -79.45 116.55 -71.55 115.6 Q-68.25 116.7 -67.5 121.45 L-67.8 122.1 -73.25 121.45 -77.3 122.65 -78.35 122.75 -79.1 122.45 -79.5 121.6 -80.6 118.25 -79.45 116.55 -82.65 116.75 Q-124.0 113.85 -127.65 94.8 -133.1 82.65 -130.15 70.95 -131.65 70.0 -118.2 40.9 L-117.35 37.2 -117.15 34.0 Q-117.3 21.9 -125.75 12.6 L-124.9 9.8 -124.05 8.55 -123.2 6.85 -120.55 5.35 -120.1 4.5 -120.35 4.3 -121.4 4.3 -122.35 4.7 -124.15 4.3 M-102.0 70.65 L-86.7 88.0 -81.15 96.3 Q-70.3 116.75 -70.5 96.3 L-70.05 96.0 -69.65 96.3 -68.85 97.3 -62.05 110.8 -59.9 112.65 -62.05 110.8 -68.85 97.3 -69.65 96.3 -70.05 96.0 -70.5 96.3 Q-70.3 116.75 -81.15 96.3 L-86.7 88.0 -102.0 70.65 M-26.45 86.0 L-20.1 86.5 -26.45 86.0 M-24.35 89.0 Q-13.45 91.4 -13.3 93.95 -13.45 91.4 -24.35 89.0 M-33.2 91.75 L-33.3 90.25 -33.85 89.4 -33.3 90.25 -33.2 91.75 M-40.55 103.9 L-44.6 96.3 -48.55 90.25 -53.0 85.35 Q-55.65 82.9 -62.7 79.05 L-72.4 74.35 -87.55 68.1 Q-92.45 65.7 -93.5 63.4 L-93.7 63.0 -93.5 63.4 Q-92.45 65.7 -87.55 68.1 L-72.4 74.35 -62.7 79.05 Q-55.65 82.9 -53.0 85.35 L-48.55 90.25 -44.6 96.3 -40.55 103.9 M-55.95 111.5 L-55.45 108.9 -56.2 101.55 -56.1 100.05 -55.7 99.8 -54.95 100.5 -49.2 109.2 -54.95 100.5 -55.7 99.8 -56.1 100.05 -56.2 101.55 -55.45 108.9 -55.95 111.5" fill="#ffffff" fill-rule="evenodd" stroke="none"/>
    <path d="M-125.1 -14.7 L-127.45 -13.4 -128.95 -12.0 -129.7 -10.5 Q-123.0 -13.1 -120.55 -10.1 -119.05 -7.9 -118.95 -6.35 L-119.35 -2.4 -120.85 1.65 Q-122.2 4.1 -124.15 4.3 -131.4 4.9 -133.2 -2.1 L-132.55 -1.25 -132.15 -1.35 -131.95 -2.4 Q-132.1 -5.75 -133.35 -3.9 L-133.4 -3.45 -133.55 -3.45 -134.05 -5.3 -133.4 -4.9 -132.9 -6.8 -133.4 -7.95 -134.25 -7.65 -134.25 -7.75 -134.25 -8.15 Q-133.3 -15.2 -125.1 -14.7 M-129.7 -10.5 L-131.85 -8.6 -132.9 -6.8 -131.85 -8.6 -129.7 -10.5 M-133.4 -4.9 L-133.35 -3.9 -133.4 -4.9 M-133.4 -3.4 L-133.55 -3.45 -133.4 -3.45 -133.4 -3.4 M-133.4 -2.4 L-133.4 -2.75 -133.35 -2.4 -133.4 -2.4" fill="#ff7a16" fill-rule="evenodd" stroke="none"/>
    <path d="M-134.05 -5.3 L-134.2 -5.4 -134.25 -5.6 -134.4 -6.65 -134.4 -7.0 -134.25 -7.2 -134.25 -7.3 -134.25 -7.2 -134.4 -7.0 -134.25 -7.3 -134.25 -7.65 -133.4 -7.95 -132.9 -6.8 -133.4 -4.9 -134.05 -5.3 M-133.4 -3.45 L-133.35 -3.9 Q-132.1 -5.75 -131.95 -2.4 L-132.15 -1.35 -132.55 -1.25 -133.2 -2.1 -133.35 -2.4 -133.4 -2.75 -133.4 -3.4 -133.4 -3.45" fill="#000000" fill-rule="evenodd" stroke="none"/>
    <path d="M-124.15 4.3 L-122.35 4.7 -121.4 4.3 -120.35 4.3 -120.1 4.5 -120.55 5.35 -123.2 6.85 -144.85 10.25 -153.45 11.25 -160.15 11.25 -160.45 11.0 -160.4 10.65 Q-156.4 7.45 -138.1 0.45 L-133.4 -2.4 -133.35 -2.4 -133.2 -2.1 Q-131.4 4.9 -124.15 4.3 M-82.65 116.75 L-79.45 116.55 -80.6 118.25 -79.5 121.6 -79.1 122.45 -78.35 122.75 -78.25 126.15 -78.45 127.1 -79.65 128.8 Q-80.4 130.15 -87.95 132.55 L-95.7 137.0 -97.0 137.45 -97.75 137.2 -96.15 133.1 -102.1 132.3 -103.6 131.8 -103.4 130.95 -97.85 128.25 -97.9 128.25 -100.5 126.9 -101.15 126.35 -100.95 125.7 -97.0 125.2 -83.5 125.65 -82.4 124.75 -81.8 123.7 -82.65 116.75 M-97.9 128.25 L-97.55 128.05 -97.9 128.25 M-73.25 121.45 L-74.4 127.75 -74.4 129.45 -73.45 134.8 -73.15 139.55 -73.7 141.4 -76.05 143.6 Q-82.5 145.45 -92.1 151.5 L-94.15 151.7 -94.15 151.0 Q-91.9 147.65 -92.2 147.35 -99.75 146.6 -100.1 145.85 L-99.75 145.1 -93.7 141.9 -96.7 139.75 -97.2 138.9 Q-94.35 137.45 -80.35 139.7 L-78.05 138.85 -76.9 137.2 Q-78.4 130.4 -77.3 122.65 L-73.25 121.45" fill="#fa410f" fill-rule="evenodd" stroke="none"/>
    <path d="M-123.2 6.85 L-124.05 8.55 -124.9 9.8 -125.75 12.6 -129.7 12.8 Q-144.35 10.85 -144.85 10.25 L-123.2 6.85" fill="#fa420e" fill-rule="evenodd" stroke="none"/>
    <path d="M-125.1 -14.7 L-127.45 -13.4 -128.95 -12.0 -129.7 -10.5 Q-123.0 -13.1 -120.55 -10.1 -119.05 -7.9 -118.95 -6.35 L-119.35 -2.4 -120.85 1.65 Q-122.2 4.1 -124.15 4.3 L-122.35 4.7 -121.4 4.3 -120.35 4.3 -120.1 4.5 -120.55 5.35 -123.2 6.85 -124.05 8.55 -124.9 9.8 -125.75 12.6 Q-117.3 21.9 -117.15 34.0 L-117.35 37.2 -118.2 40.9 Q-131.65 70.0 -130.15 70.95 -133.1 82.65 -127.65 94.8 -124.0 113.85 -82.65 116.75 L-79.45 116.55 -71.55 115.6 -59.9 112.65 -62.05 110.8 -68.85 97.3 -69.65 96.3 -70.05 96.0 -70.5 96.3 Q-70.3 116.75 -81.15 96.3 L-86.7 88.0 -102.0 70.65 M-134.4 -7.0 L-134.4 -6.65 -134.25 -5.6 -134.2 -5.4 -134.05 -5.3 -133.4 -4.9 -132.9 -6.8 -133.4 -7.95 -134.25 -7.65 -134.25 -7.3 -134.25 -7.2 -134.4 -7.0 -134.25 -7.3 M-134.25 -7.65 L-134.25 -7.75 -134.25 -8.15 Q-133.3 -15.2 -125.1 -14.7 -108.6 -19.7 -99.45 -4.25 L-98.4 -0.3 Q-98.05 3.6 -98.6 6.0 L-99.95 9.95 -104.65 18.25 -105.4 20.8 -105.7 24.3 Q-106.05 26.85 -104.8 29.0 L-101.9 33.25 -99.9 34.85 Q-61.6 48.25 -51.6 58.75 -39.85 70.2 -33.85 89.4 -29.45 83.45 -24.7 83.0 -19.95 82.7 -20.1 86.5 L-15.4 87.15 -13.2 88.45 -12.4 89.4 -12.1 90.45 -12.35 92.5 -13.3 93.95 -13.4 94.1 -12.85 95.25 -12.75 96.55 -13.7 98.65 -14.95 99.5 Q-21.3 101.5 -30.5 96.3 L-32.8 94.95 -33.65 94.95 -37.45 100.55 -40.55 103.9 Q-36.85 113.1 -39.05 116.1 -42.35 118.25 -49.2 109.2 L-55.85 111.45 -55.95 111.5 -57.5 112.85 -59.4 112.95 -59.85 112.65 -59.9 112.65 M-132.9 -6.8 L-131.85 -8.6 -129.7 -10.5 M-133.4 -3.45 L-133.35 -3.9 -133.4 -4.9 M-133.4 -3.4 L-133.55 -3.45 -134.05 -5.3 M-133.4 -3.45 L-133.55 -3.45 M-133.4 -3.4 L-133.4 -3.45 M-133.4 -2.75 L-133.4 -2.4 -133.35 -2.4 -133.4 -2.75 -133.4 -3.4 M-133.2 -2.1 L-133.35 -2.4 M-133.35 -3.9 Q-132.1 -5.75 -131.95 -2.4 L-132.15 -1.35 -132.55 -1.25 -133.2 -2.1 Q-131.4 4.9 -124.15 4.3 M-93.7 63.0 L-93.5 63.4 Q-92.45 65.7 -87.55 68.1 L-72.4 74.35 -62.7 79.05 Q-55.65 82.9 -53.0 85.35 L-48.55 90.25 -44.6 96.3 -40.55 103.9 M-33.85 89.4 L-33.3 90.25 -33.2 91.75 M-13.3 93.95 Q-13.45 91.4 -24.35 89.0 M-20.1 86.5 L-26.45 86.0 M-125.75 12.6 L-129.7 12.8 Q-144.35 10.85 -144.85 10.25 L-153.45 11.25 -160.15 11.25 -160.45 11.0 -160.4 10.65 Q-156.4 7.45 -138.1 0.45 L-133.4 -2.4 M-144.85 10.25 L-123.2 6.85 M-78.35 122.75 L-78.25 126.15 -78.45 127.1 -79.65 128.8 Q-80.4 130.15 -87.95 132.55 L-95.7 137.0 -97.0 137.45 -97.75 137.2 -96.15 133.1 -102.1 132.3 -103.6 131.8 -103.4 130.95 -97.85 128.25 -97.9 128.25 -100.5 126.9 -101.15 126.35 -100.95 125.7 -97.0 125.2 -83.5 125.65 -82.4 124.75 -81.8 123.7 -82.65 116.75 M-97.55 128.05 L-97.9 128.25 M-73.25 121.45 L-74.4 127.75 -74.4 129.45 -73.45 134.8 -73.15 139.55 -73.7 141.4 -76.05 143.6 Q-82.5 145.45 -92.1 151.5 L-94.15 151.7 -94.15 151.0 Q-91.9 147.65 -92.2 147.35 -99.75 146.6 -100.1 145.85 L-99.75 145.1 -93.7 141.9 -96.7 139.75 -97.2 138.9 Q-94.35 137.45 -80.35 139.7 L-78.05 138.85 -76.9 137.2 Q-78.4 130.4 -77.3 122.65 L-78.35 122.75 -79.1 122.45 -79.5 121.6 -80.6 118.25 -79.45 116.55 M-49.2 109.2 L-54.95 100.5 -55.7 99.8 -56.1 100.05 -56.2 101.55 -55.45 108.9 -55.95 111.5 M-73.25 121.45 L-77.3 122.65 M-71.55 115.6 Q-68.25 116.7 -67.5 121.45 L-67.8 122.1 -73.25 121.45" fill="none" stroke="#000000" stroke-linecap="round" stroke-linejoin="round" stroke-width="0.05"/>
  </g>
</svg>
