<?xml version="1.0" encoding="UTF-8" standalone="no"?>
<svg xmlns:xlink="http://www.w3.org/1999/xlink" height="19.65px" width="72.4px" xmlns="http://www.w3.org/2000/svg">
  <g transform="matrix(1.0, 0.0, 0.0, 1.0, 36.2, 9.8)">
    <path d="M-8.7 7.3 L-9.05 7.2 -11.25 6.75 -12.2 6.55 Q-14.2 5.95 -15.55 4.85 -19.0 1.6 -19.65 0.05 L-21.35 -3.05 -21.4 -3.1 -34.9 -7.55 -35.0 -7.55 -35.7 -7.65 -35.95 -7.95 -35.7 -8.8 -35.75 -8.75 Q-35.1 -9.75 -34.25 -9.45 L-33.25 -9.05 -33.2 -9.0 -21.2 -3.8 -21.1 -3.8 -21.05 -3.85 -18.85 -5.95 Q-16.8 -7.75 -14.45 -8.25 L-13.7 -8.25 -7.65 -7.95 -3.8 -7.5 -6.4 -6.65 -10.1 -4.95 -10.15 -4.9 -10.15 -4.85 -10.15 -4.75 -10.05 -4.7 -10.0 -4.7 -3.25 -7.35 -0.7 -7.65 -0.65 -7.65 -0.3 -7.7 0.4 -7.7 1.6 -7.7 1.7 -7.7 2.1 -7.65 2.8 -7.55 2.85 -7.55 3.25 -7.45 3.3 -7.45 6.9 -6.75 8.85 -6.25 10.5 -5.85 12.45 -5.3 13.15 -5.05 13.2 -5.05 21.3 -3.0 31.1 -2.7 Q34.7 -3.3 35.85 -3.9 L35.95 -3.9 35.95 -3.75 35.6 -3.0 33.1 0.35 Q29.4 4.8 21.45 8.05 L21.5 8.05 Q17.15 9.25 12.0 9.45 L10.4 9.45 8.85 9.4 8.5 9.4 4.9 9.2 4.5 9.2 3.75 9.15 3.3 9.1 3.25 9.1 2.1 9.0 1.4 8.9 0.95 8.8 0.9 8.8 0.65 8.75 0.0 8.6 -0.4 8.4 -2.25 7.45 -4.15 6.25 -4.5 6.05 -6.95 4.3 -7.05 4.3 -7.15 4.35 -7.15 4.45 -7.1 4.5 -4.3 6.45 -2.4 7.65 -0.1 8.85 0.55 9.0 0.6 9.0 1.55 9.55 1.4 9.55 -4.1 9.1 -11.65 5.55 -11.75 5.55 -11.8 5.6 -11.8 5.7 -11.75 5.75 -11.75 5.8 -9.65 6.8 -8.7 7.3 M35.4 -3.3 L35.35 -3.4 35.3 -3.45 35.2 -3.45 Q32.6 -1.6 26.65 0.35 22.2 1.8 11.25 1.75 L9.65 1.75 7.75 1.7 4.2 1.6 4.15 1.6 3.75 1.55 3.7 1.55 3.55 1.55 3.05 1.5 3.0 1.5 2.55 1.5 2.5 1.5 1.35 1.4 1.3 1.4 0.65 1.3 0.6 1.3 0.2 1.3 -2.9 0.95 -7.65 0.25 -12.9 -0.85 -14.8 -1.4 Q-21.6 -3.45 -21.75 -3.65 L-21.8 -3.7 -21.9 -3.7 -21.95 -3.6 -21.95 -3.5 Q-21.8 -3.25 -14.85 -1.15 L-14.9 -1.15 -12.95 -0.6 -7.7 0.5 -2.95 1.2 0.2 1.55 0.6 1.55 1.3 1.65 2.5 1.75 2.55 1.75 3.0 1.75 3.55 1.8 3.7 1.8 3.75 1.8 4.15 1.85 4.2 1.85 7.75 1.95 9.65 2.0 11.25 2.0 Q22.3 2.1 26.75 0.6 32.7 -1.4 35.35 -3.25 L35.4 -3.3" fill="#ffffff" fill-rule="evenodd" stroke="none"/>
    <path d="M-9.65 6.8 L-11.75 5.8 -11.75 5.75 -11.8 5.7 -11.8 5.6 -11.75 5.55 -11.65 5.55 -4.1 9.1 1.4 9.55 1.55 9.55 0.6 9.0 0.55 9.0 -0.1 8.85 -2.4 7.65 -4.3 6.45 -7.1 4.5 -7.15 4.45 -7.15 4.35 -7.05 4.3 -6.95 4.3 -4.5 6.05 -4.15 6.25 -2.25 7.45 -0.4 8.4 0.0 8.6 0.65 8.75 0.9 8.8 0.95 8.8 1.4 8.9 2.1 9.0 3.25 9.1 3.3 9.1 3.75 9.15 4.5 9.2 4.9 9.2 8.5 9.4 8.85 9.4 10.4 9.45 12.0 9.45 Q17.15 9.25 21.5 8.05 L21.45 8.05 Q29.4 4.8 33.1 0.35 L35.6 -3.0 35.95 -3.75 35.95 -3.9 35.85 -3.9 Q34.7 -3.3 31.1 -2.7 L21.3 -3.0 13.2 -5.05 13.15 -5.05 12.45 -5.3 10.5 -5.85 8.85 -6.25 6.9 -6.75 3.3 -7.45 3.25 -7.45 2.85 -7.55 2.8 -7.55 2.1 -7.65 1.7 -7.7 1.6 -7.7 0.4 -7.7 -0.3 -7.7 -0.65 -7.65 -0.7 -7.65 -3.25 -7.35 -10.0 -4.7 -10.05 -4.7 -10.15 -4.75 -10.15 -4.85 -10.15 -4.9 -10.1 -4.95 -6.4 -6.65 -3.8 -7.5 -7.65 -7.95 -13.7 -8.25 -14.45 -8.25 Q-16.8 -7.75 -18.85 -5.95 L-21.05 -3.85 -21.1 -3.8 -21.2 -3.8 -33.2 -9.0 -33.25 -9.05 -34.25 -9.45 Q-35.1 -9.75 -35.75 -8.75 L-35.7 -8.8 -35.95 -7.95 -35.7 -7.65 -35.0 -7.55 -34.9 -7.55 -21.4 -3.1 -21.35 -3.05 -19.65 0.05 Q-19.0 1.6 -15.55 4.85 -14.2 5.95 -12.2 6.55 L-11.25 6.75 -9.05 7.2 -8.7 7.3 -8.45 7.35 -9.65 6.8 M6.95 -7.0 L8.9 -6.5 10.55 -6.1 12.5 -5.55 13.25 -5.3 21.35 -3.25 31.05 -2.95 Q34.7 -3.55 35.8 -4.15 L35.85 -4.15 36.15 -4.05 36.2 -3.75 35.85 -2.85 33.3 0.5 Q29.6 5.0 21.55 8.3 17.15 9.55 12.0 9.7 L10.4 9.7 8.85 9.65 8.5 9.65 4.9 9.45 4.45 9.45 3.75 9.4 3.7 9.4 3.3 9.35 3.25 9.35 2.05 9.25 1.35 9.15 1.3 9.15 2.15 9.6 2.2 9.65 2.2 9.75 2.15 9.8 2.05 9.85 -4.15 9.35 -4.2 9.35 -8.25 7.4 -8.25 7.5 -8.3 7.55 -8.4 7.6 -11.3 7.0 -12.25 6.8 Q-14.3 6.15 -15.7 5.05 -19.2 1.7 -19.9 0.15 L-21.5 -2.85 -34.95 -7.3 -35.75 -7.4 Q-36.15 -7.55 -36.2 -7.95 L-35.95 -8.9 Q-35.2 -10.05 -34.15 -9.7 L-33.05 -9.25 -21.15 -4.1 -19.0 -6.15 Q-16.9 -8.0 -14.45 -8.5 L-13.7 -8.5 -7.6 -8.2 -3.75 -7.75 -3.1 -7.65 -0.7 -7.9 -0.3 -7.95 0.4 -7.95 1.6 -7.95 1.75 -7.95 2.1 -7.9 2.15 -7.9 2.8 -7.8 2.9 -7.8 3.3 -7.7 3.35 -7.7 6.95 -7.0 M35.4 -3.3 L35.35 -3.25 Q32.7 -1.4 26.75 0.6 22.3 2.1 11.25 2.0 L9.65 2.0 7.75 1.95 4.2 1.85 4.15 1.85 3.75 1.8 3.7 1.8 3.55 1.8 3.0 1.75 2.55 1.75 2.5 1.75 1.3 1.65 0.6 1.55 0.2 1.55 -2.95 1.2 -7.7 0.5 -12.95 -0.6 -14.9 -1.15 -14.85 -1.15 Q-21.8 -3.25 -21.95 -3.5 L-21.95 -3.6 -21.9 -3.7 -21.8 -3.7 -21.75 -3.65 Q-21.6 -3.45 -14.8 -1.4 L-12.9 -0.85 -7.65 0.25 -2.9 0.95 0.2 1.3 0.6 1.3 0.65 1.3 1.3 1.4 1.35 1.4 2.5 1.5 2.55 1.5 3.0 1.5 3.05 1.5 3.55 1.55 3.7 1.55 3.75 1.55 4.15 1.6 4.2 1.6 7.75 1.7 9.65 1.75 11.25 1.75 Q22.2 1.8 26.65 0.35 32.6 -1.6 35.2 -3.45 L35.3 -3.45 35.35 -3.4 35.4 -3.3" fill="#000000" fill-rule="evenodd" stroke="none"/>
  </g>
</svg>
