<?xml version="1.0" encoding="UTF-8" standalone="no"?>
<svg xmlns:xlink="http://www.w3.org/1999/xlink" height="131.7px" width="80.65px" xmlns="http://www.w3.org/2000/svg">
  <g transform="matrix(1.0, 0.0, 0.0, 1.0, 34.95, 123.7)">
    <path d="M32.35 3.5 L42.1 3.5 Q36.55 -10.95 40.05 -22.1 43.55 -33.25 44.45 -33.85 44.05 -34.5 38.6 -35.4 33.2 -36.2 27.55 -30.3 25.2 -24.85 28.5 -11.45 31.75 1.85 32.35 3.5" fill="#51330e" fill-rule="evenodd" stroke="none"/>
    <path d="M14.65 -8.5 L24.4 -8.5 Q18.85 -22.95 22.35 -34.1 25.85 -45.25 26.75 -45.85 26.35 -46.5 20.9 -47.4 15.5 -48.2 9.85 -42.3 7.5 -36.85 10.8 -23.45 14.05 -10.15 14.65 -8.5" fill="#51330e" fill-rule="evenodd" stroke="none"/>
    <path d="M-12.1 -5.0 Q-11.35 -6.65 -8.1 -19.95 -4.8 -33.25 -7.15 -38.8 -12.7 -44.8 -17.2 -44.2 -21.7 -43.7 -22.0 -43.05 -22.4 -41.65 -22.0 -38.45 -19.75 -34.5 -18.35 -25.45 -16.9 -16.45 -21.8 -5.0 L-12.1 -5.0" fill="#51330e" fill-rule="evenodd" stroke="none"/>
    <path d="M-2.2 -36.1 Q-2.6 -34.7 -2.2 -31.5 0.05 -27.1 1.55 -15.55 3.0 -3.9 -1.8 8.0 L7.9 8.0 9.95 -1.25 Q11.9 -9.8 13.15 -19.25 14.35 -28.65 12.5 -31.85 7.0 -37.85 2.5 -37.25 -2.0 -36.75 -2.2 -36.1" fill="#51330e" fill-rule="evenodd" stroke="none"/>
    <path d="M-31.85 -74.5 Q-26.45 -56.5 -23.85 -53.95 -21.7 -52.95 -13.1 -52.5 L3.45 -52.0 12.15 -51.9 Q13.4 -53.05 20.05 -68.9 26.7 -84.65 24.45 -101.65 22.2 -118.75 -3.4 -123.45 -29.2 -125.7 -33.2 -109.1 -37.3 -92.65 -31.85 -74.5" fill="#ab300d" fill-rule="evenodd" stroke="none"/>
    <path d="M8.05 -57.75 Q8.95 -58.7 13.95 -71.15 18.85 -83.75 17.25 -97.05 15.7 -110.45 -3.35 -114.05 -22.45 -115.5 -25.55 -102.05 -28.6 -88.65 -24.6 -74.15 -20.75 -59.6 -18.9 -57.65 L-4.55 -57.15 8.05 -57.75" fill="#e8290a" fill-rule="evenodd" stroke="none"/>
    <path d="M-22.45 -45.75 Q-24.5 -40.75 -16.2 -34.0 -7.8 -27.25 23.7 -27.85 47.45 -29.2 45.5 -33.8 L45.5 -43.6 35.15 -43.6 35.15 -41.45 Q28.3 -44.4 22.25 -46.45 L15.7 -48.6 5.9 -48.6 -12.1 -48.4 -12.1 -54.35 -22.45 -54.35 -22.45 -45.75" fill="#e8290a" fill-rule="evenodd" stroke="none"/>
    <path d="M15.7 -57.9 L6.7 -57.9 -10.6 -57.7 -21.2 -57.2 Q-22.95 -56.45 -22.45 -51.25 -21.95 -45.95 -12.1 -41.1 -2.3 -36.4 23.7 -37.15 48.75 -38.55 45.3 -43.55 41.9 -48.5 29.65 -53.0 17.35 -57.6 15.7 -57.9" fill="#ab300d" fill-rule="evenodd" stroke="none"/>
  </g>
</svg>
