<?xml version="1.0" encoding="UTF-8" standalone="no"?>
<svg xmlns:xlink="http://www.w3.org/1999/xlink" height="20.4px" width="31.0px" xmlns="http://www.w3.org/2000/svg">
  <g transform="matrix(1.0, 0.0, 0.0, 1.0, 15.5, 10.2)">
    <path d="M1.5 -10.15 L4.6 -10.0 9.35 -9.25 Q11.85 -8.7 13.65 -7.6 15.45 -6.5 15.5 -4.6 15.35 -1.95 13.65 -0.25 11.95 1.4 9.7 2.45 L6.35 3.85 5.65 4.15 Q3.8 4.8 3.4 5.4 3.0 6.25 3.6 7.2 L4.9 8.75 5.7 9.4 -4.05 10.2 -3.15 9.4 -1.6 7.6 Q-0.95 6.55 -1.3 5.7 -1.75 5.1 -3.9 4.6 L-6.6 3.85 -8.8 3.15 Q-11.5 2.25 -13.5 0.45 -15.5 -1.35 -15.5 -4.5 -15.35 -6.7 -13.1 -7.9 -10.85 -9.1 -7.8 -9.6 L-2.1 -10.15 1.5 -10.15 M3.35 -4.6 Q2.65 -4.25 2.7 -3.75 2.7 -3.45 3.0 -3.2 L1.7 -2.8 1.25 -2.4 -1.8 -3.2 -1.8 -3.45 -1.85 -3.5 1.7 -3.0 1.9 -3.2 -1.85 -3.6 -2.05 -3.85 2.35 -3.65 2.45 -3.85 -2.1 -3.9 -2.9 -4.35 -3.95 -4.6 -4.4 -4.85 -5.75 -5.2 -5.0 -4.95 Q-4.1 -4.55 -4.05 -3.95 -4.05 -3.35 -4.95 -2.9 -5.75 -2.5 -6.8 -2.4 -5.45 -2.4 -4.4 -2.9 -3.65 -3.3 -3.55 -3.75 L-3.55 -3.9 Q-3.55 -4.25 -3.9 -4.55 L-3.5 -4.4 -2.6 -3.9 -3.15 -3.9 -2.55 -3.85 -2.4 -3.65 -3.55 -3.75 -2.4 -3.6 -2.35 -3.45 -2.3 -3.3 -3.55 -3.65 -2.3 -3.25 Q-2.35 -2.8 -2.95 -2.4 -3.6 -1.95 -4.6 -1.8 -3.3 -1.9 -2.4 -2.4 L-1.8 -3.1 0.95 -2.15 1.2 -2.3 Q1.1 -2.1 1.15 -1.9 1.25 -1.45 2.05 -1.1 L3.15 -0.9 2.55 -1.05 Q1.7 -1.4 1.6 -1.85 1.5 -2.35 2.15 -2.8 L3.55 -3.25 3.05 -3.2 2.9 -3.55 Q2.9 -4.05 3.6 -4.4 4.25 -4.8 5.3 -4.85 L6.85 -4.6 6.3 -4.85 6.85 -4.95 8.65 -4.85 Q9.45 -4.6 9.75 -4.1 9.9 -3.75 9.65 -3.35 10.2 -3.8 9.95 -4.3 9.7 -4.75 8.95 -5.0 L7.2 -5.1 6.3 -4.85 5.0 -5.0 3.35 -4.6 M3.05 -1.1 L3.15 -0.9 Q3.35 -0.5 4.05 -0.25 L5.8 -0.1 Q6.75 -0.25 7.35 -0.65 L7.75 -1.1 8.9 -1.3 10.2 -2.05 Q10.5 -2.55 10.05 -3.05 L9.65 -3.35 9.2 -3.55 9.65 -3.2 Q10.1 -2.7 9.8 -2.2 9.45 -1.7 8.45 -1.35 L6.65 -1.2 7.7 -1.1 7.4 -0.9 Q6.8 -0.45 5.85 -0.35 L4.0 -0.5 Q3.3 -0.75 3.05 -1.1 M3.4 -2.2 Q2.9 -2.45 2.85 -2.8 2.75 -2.35 3.35 -2.05 L4.7 -1.8 6.05 -2.05 6.5 -2.45 7.8 -2.6 8.6 -3.2 8.5 -3.7 8.5 -3.4 Q8.3 -3.05 7.7 -2.8 L6.25 -2.6 5.15 -2.9 Q5.5 -2.55 6.4 -2.45 L6.5 -2.45 6.2 -2.25 4.8 -1.95 3.4 -2.2 M-3.25 4.45 Q-2.05 4.75 -1.1 5.4 -0.5 5.9 -1.0 7.2 -1.55 8.45 -3.65 10.0 L-0.5 9.65 3.35 9.4 5.25 9.3 Q2.8 7.05 3.0 5.95 3.1 4.8 4.35 4.4 L5.75 3.85 7.05 3.35 10.8 1.55 Q12.65 0.45 13.2 -0.65 L10.9 0.6 6.55 2.2 Q3.95 2.95 0.95 3.2 L-4.0 3.3 -8.1 2.8 -5.8 3.75 -5.4 3.85 -3.25 4.45" fill="#f99ebe" fill-rule="evenodd" stroke="none"/>
    <path d="M3.4 -2.2 L4.8 -1.95 6.2 -2.25 6.5 -2.45 6.4 -2.45 Q5.5 -2.55 5.15 -2.9 L6.25 -2.6 7.7 -2.8 Q8.3 -3.05 8.5 -3.4 L8.5 -3.7 8.6 -3.2 7.8 -2.6 6.5 -2.45 6.05 -2.05 4.7 -1.8 3.35 -2.05 Q2.75 -2.35 2.85 -2.8 2.9 -2.45 3.4 -2.2 M3.05 -1.1 Q3.3 -0.75 4.0 -0.5 L5.85 -0.35 Q6.8 -0.45 7.4 -0.9 L7.7 -1.1 6.65 -1.2 8.45 -1.35 Q9.45 -1.7 9.8 -2.2 10.1 -2.7 9.65 -3.2 L9.2 -3.55 9.65 -3.35 10.05 -3.05 Q10.5 -2.55 10.2 -2.05 L8.9 -1.3 7.75 -1.1 7.35 -0.65 Q6.75 -0.25 5.8 -0.1 L4.05 -0.25 Q3.35 -0.5 3.15 -0.9 L3.05 -1.1 M3.35 -4.6 L5.0 -5.0 6.3 -4.85 7.2 -5.1 8.95 -5.0 Q9.7 -4.75 9.95 -4.3 10.2 -3.8 9.65 -3.35 9.9 -3.75 9.75 -4.1 9.45 -4.6 8.65 -4.85 L6.85 -4.95 6.3 -4.85 6.85 -4.6 5.3 -4.85 Q4.25 -4.8 3.6 -4.4 2.9 -4.05 2.9 -3.55 L3.05 -3.2 3.55 -3.25 2.15 -2.8 Q1.5 -2.35 1.6 -1.85 1.7 -1.4 2.55 -1.05 L3.15 -0.9 2.05 -1.1 Q1.25 -1.45 1.15 -1.9 1.1 -2.1 1.2 -2.3 L0.95 -2.15 -1.8 -3.1 -2.4 -2.4 Q-3.3 -1.9 -4.6 -1.8 -3.6 -1.95 -2.95 -2.4 -2.35 -2.8 -2.3 -3.25 L-3.55 -3.65 -2.3 -3.3 -2.35 -3.45 -2.4 -3.6 -3.55 -3.75 -2.4 -3.65 -2.55 -3.85 -3.15 -3.9 -2.6 -3.9 -3.5 -4.4 -3.9 -4.55 Q-3.55 -4.25 -3.55 -3.9 L-3.55 -3.75 Q-3.65 -3.3 -4.4 -2.9 -5.45 -2.4 -6.8 -2.4 -5.75 -2.5 -4.95 -2.9 -4.05 -3.35 -4.05 -3.95 -4.1 -4.55 -5.0 -4.95 L-5.75 -5.2 -4.4 -4.85 -3.95 -4.6 -2.9 -4.35 -2.1 -3.9 2.45 -3.85 2.35 -3.65 -2.05 -3.85 -1.85 -3.6 1.9 -3.2 1.7 -3.0 -1.85 -3.5 -1.8 -3.45 -1.8 -3.2 1.25 -2.4 1.7 -2.8 3.0 -3.2 Q2.7 -3.45 2.7 -3.75 2.65 -4.25 3.35 -4.6" fill="#dd8da9" fill-rule="evenodd" stroke="none"/>
    <path d="M-3.25 4.45 L-5.4 3.85 -5.8 3.75 -8.1 2.8 -4.0 3.3 0.95 3.2 Q3.95 2.95 6.55 2.2 L10.9 0.6 13.2 -0.65 Q12.65 0.45 10.8 1.55 L7.05 3.35 5.75 3.85 4.35 4.4 Q3.1 4.8 3.0 5.95 2.8 7.05 5.25 9.3 L3.35 9.4 -0.5 9.65 -3.65 10.0 Q-1.55 8.45 -1.0 7.2 -0.5 5.9 -1.1 5.4 -2.05 4.75 -3.25 4.45" fill="#ed96ac" fill-rule="evenodd" stroke="none"/>
  </g>
</svg>
