<?xml version="1.0" encoding="UTF-8" standalone="no"?>
<svg xmlns:xlink="http://www.w3.org/1999/xlink" height="58.85px" width="21.4px" xmlns="http://www.w3.org/2000/svg">
  <g transform="matrix(1.0, 0.0, 0.0, 1.0, 0.5, 0.0)">
    <path d="M19.8 4.35 L9.95 47.9 11.65 48.2 Q13.25 48.5 15.3 49.25 17.4 50.0 18.9 51.35 20.45 52.7 20.4 54.8 19.55 54.05 18.05 53.5 L15.3 52.7 14.05 52.4 15.35 52.85 Q16.55 53.3 17.95 54.45 19.3 55.6 19.7 57.7 18.55 58.5 16.25 58.35 L11.2 57.45 5.9 55.85 1.7 54.3 0.0 53.6 10.65 1.3 Q17.75 -2.4 19.8 4.35" fill="#ffffff" fill-rule="evenodd" stroke="none"/>
    <path d="M10.65 1.3 L0.0 53.6 1.7 54.3 5.9 55.85 11.2 57.45 16.25 58.35 Q18.55 58.5 19.7 57.7 19.3 55.6 17.95 54.45 16.55 53.3 15.35 52.85 L14.05 52.4 15.3 52.7 18.05 53.5 Q19.55 54.05 20.4 54.8 20.45 52.7 18.9 51.35 17.4 50.0 15.3 49.25 13.25 48.5 11.65 48.2 L9.95 47.9 19.8 4.35" fill="none" stroke="#000000" stroke-linecap="round" stroke-linejoin="round" stroke-width="1.0"/>
  </g>
</svg>
