<?xml version="1.0" encoding="UTF-8" standalone="no"?>
<svg xmlns:xlink="http://www.w3.org/1999/xlink" height="45.05px" width="16.75px" xmlns="http://www.w3.org/2000/svg">
  <g transform="matrix(1.0, 0.0, 0.0, 1.0, 0.5, 0.5)">
    <path d="M6.1 40.4 Q6.4 38.35 5.6 35.5 L3.55 28.7 Q2.3 24.75 1.25 19.45 0.2 14.2 0.0 7.4 0.05 4.5 0.95 2.55 1.85 0.6 3.3 0.1 4.7 -0.35 6.35 1.1 7.95 2.55 9.45 6.5 12.65 15.95 14.05 23.05 15.4 30.1 15.65 34.75 15.85 39.45 15.6 41.75 L15.3 44.05 6.1 40.4" fill="#ffffff" fill-rule="evenodd" stroke="none"/>
    <path d="M15.3 44.05 L15.6 41.75 Q15.85 39.45 15.65 34.75 15.4 30.1 14.05 23.05 12.65 15.95 9.45 6.5 7.95 2.55 6.35 1.1 4.7 -0.35 3.3 0.1 1.85 0.6 0.95 2.55 0.05 4.5 0.0 7.4 0.2 14.2 1.25 19.45 2.3 24.75 3.55 28.7 L5.6 35.5 Q6.4 38.35 6.1 40.4" fill="none" stroke="#000000" stroke-linecap="round" stroke-linejoin="round" stroke-width="1.0"/>
  </g>
</svg>
