<?xml version="1.0" encoding="UTF-8" standalone="no"?>
<svg xmlns:xlink="http://www.w3.org/1999/xlink" height="38.7px" width="31.6px" xmlns="http://www.w3.org/2000/svg">
  <g transform="matrix(1.0, 0.0, 0.0, 1.0, 0.5, 0.5)">
    <path d="M0.0 4.5 L0.0 0.0 5.6 0.0 6.15 0.9 7.6 3.4 13.4 12.85 17.6 19.2 19.25 19.4 21.6 19.8 Q22.95 20.25 24.45 21.8 25.95 23.4 27.5 26.85 29.1 30.25 30.6 36.2 28.3 34.95 27.15 33.9 L25.3 31.65 24.35 30.1 24.7 30.8 Q26.0 33.7 26.3 35.65 L26.6 37.7 25.3 37.65 Q24.05 37.6 22.15 36.95 20.3 36.3 18.35 34.6 16.45 32.9 15.1 29.7 13.75 26.5 13.5 21.35 9.9 18.15 6.2 13.4 2.95 9.25 0.0 4.5 M24.35 30.1 Q23.05 27.5 20.5 24.85 22.55 27.2 23.6 28.85 L24.35 30.1 23.6 28.85 Q22.55 27.2 20.5 24.85 23.05 27.5 24.35 30.1" fill="#ffffff" fill-rule="evenodd" stroke="none"/>
    <path d="M5.6 0.0 L6.15 0.9 7.6 3.4 13.4 12.85 17.6 19.2 19.25 19.4 21.6 19.8 Q22.95 20.25 24.45 21.8 25.95 23.4 27.5 26.85 29.1 30.25 30.6 36.2 28.3 34.95 27.15 33.9 L25.3 31.65 24.35 30.1 24.7 30.8 Q26.0 33.7 26.3 35.65 L26.6 37.7 25.3 37.65 Q24.05 37.6 22.15 36.95 20.3 36.3 18.35 34.6 16.45 32.9 15.1 29.7 13.75 26.5 13.5 21.35 9.9 18.15 6.2 13.4 2.95 9.25 0.0 4.5 M24.35 30.1 L23.6 28.85 Q22.55 27.2 20.5 24.85 23.05 27.5 24.35 30.1" fill="none" stroke="#000000" stroke-linecap="round" stroke-linejoin="round" stroke-width="1.0"/>
  </g>
</svg>
