<?xml version="1.0" encoding="UTF-8" standalone="no"?>
<svg xmlns:xlink="http://www.w3.org/1999/xlink" height="28.6px" width="21.45px" xmlns="http://www.w3.org/2000/svg">
  <g transform="matrix(1.0, 0.0, 0.0, 1.0, 0.5, 0.5)">
    <path d="M19.2 8.4 Q20.4 11.55 20.45 15.05 20.4 18.55 19.2 21.35 18.0 24.2 15.9 25.85 13.8 27.55 11.15 27.6 8.15 27.55 5.65 25.55 3.1 23.55 1.6 20.15 0.05 16.75 0.0 12.55 0.05 8.35 1.6 5.35 3.1 2.35 5.65 0.95 8.15 -0.45 11.15 0.25 13.85 0.95 15.9 3.1 18.0 5.3 19.2 8.4" fill="#fbc0df" fill-rule="evenodd" stroke="none"/>
    <path d="M19.2 8.4 Q20.4 11.55 20.45 15.05 20.4 18.55 19.2 21.35 18.0 24.2 15.9 25.85 13.8 27.55 11.15 27.6 8.15 27.55 5.65 25.55 3.1 23.55 1.6 20.15 0.05 16.75 0.0 12.55 0.05 8.35 1.6 5.35 3.1 2.35 5.65 0.95 8.15 -0.45 11.15 0.25 13.85 0.95 15.9 3.1 18.0 5.3 19.2 8.4 Z" fill="none" stroke="#000000" stroke-linecap="round" stroke-linejoin="round" stroke-width="1.0"/>
    <path d="M15.6 15.05 L16.85 15.65 Q18.0 16.3 19.15 17.95 20.3 19.6 20.35 22.65 20.3 24.45 19.65 24.5 19.05 24.6 18.2 23.65 L16.4 21.4 14.95 19.1 14.35 18.05 15.6 15.05" fill="#fbc0df" fill-rule="evenodd" stroke="none"/>
    <path d="M15.6 15.05 L16.85 15.65 Q18.0 16.3 19.15 17.95 20.3 19.6 20.35 22.65 20.3 24.45 19.65 24.5 19.05 24.6 18.2 23.65 L16.4 21.4 14.95 19.1 14.35 18.05" fill="none" stroke="#000000" stroke-linecap="round" stroke-linejoin="round" stroke-width="1.0"/>
    <path d="M14.6 5.05 Q14.7 5.0 15.85 5.65 17.0 6.3 18.15 7.95 19.3 9.6 19.35 12.65 19.3 14.45 18.65 14.5 18.05 14.6 17.2 13.65 L15.4 11.4 13.95 9.1 13.35 8.05 14.6 5.05" fill="#fbc0df" fill-rule="evenodd" stroke="none"/>
    <path d="M14.6 5.05 Q14.7 5.0 15.85 5.65 17.0 6.3 18.15 7.95 19.3 9.6 19.35 12.65 19.3 14.45 18.65 14.5 18.05 14.6 17.2 13.65 L15.4 11.4 13.95 9.1 13.35 8.05" fill="none" stroke="#000000" stroke-linecap="round" stroke-linejoin="round" stroke-width="1.0"/>
    <path d="M8.25 15.8 Q8.35 15.75 9.5 16.4 10.65 17.05 11.8 18.7 12.95 20.35 13.0 23.4 12.95 25.2 12.3 25.25 11.7 25.35 10.85 24.4 L9.05 22.15 7.6 19.85 7.0 18.8 8.25 15.8" fill="#fbc0df" fill-rule="evenodd" stroke="none"/>
    <path d="M8.25 15.8 Q8.35 15.75 9.5 16.4 10.65 17.05 11.8 18.7 12.95 20.35 13.0 23.4 12.95 25.2 12.3 25.25 11.7 25.35 10.85 24.4 L9.05 22.15 7.6 19.85 7.0 18.8" fill="none" stroke="#000000" stroke-linecap="round" stroke-linejoin="round" stroke-width="1.0"/>
    <path d="M7.0 5.55 Q7.1 5.5 8.25 6.15 9.4 6.8 10.55 8.45 11.7 10.1 11.75 13.15 11.7 14.95 11.05 15.0 10.45 15.1 9.6 14.15 L7.8 11.9 6.35 9.6 5.75 8.55 7.0 5.55" fill="#fbc0df" fill-rule="evenodd" stroke="none"/>
    <path d="M7.0 5.55 Q7.1 5.5 8.25 6.15 9.4 6.8 10.55 8.45 11.7 10.1 11.75 13.15 11.7 14.95 11.05 15.0 10.45 15.1 9.6 14.15 L7.8 11.9 6.35 9.6 5.75 8.55" fill="none" stroke="#000000" stroke-linecap="round" stroke-linejoin="round" stroke-width="1.0"/>
  </g>
</svg>
