<?xml version="1.0" encoding="UTF-8" standalone="no"?>
<svg xmlns:xlink="http://www.w3.org/1999/xlink" height="38.25px" width="9.5px" xmlns="http://www.w3.org/2000/svg">
  <g transform="matrix(1.0, 0.0, 0.0, 1.0, 0.5, 0.5)">
    <path d="M6.45 2.6 Q5.65 5.8 5.7 10.45 5.7 15.15 6.4 20.65 7.05 26.2 8.1 31.9 L8.5 33.85 Q5.85 37.5 2.1 37.25 L1.75 37.0 0.8 36.6 Q0.3 36.4 0.2 35.85 0.1 35.0 0.35 33.85 L0.9 31.55 Q1.2 30.4 1.1 29.55 0.35 23.6 0.1 18.0 -0.15 12.4 0.15 7.75 0.5 3.1 1.45 0.0 L6.45 2.6" fill="#9c5712" fill-rule="evenodd" stroke="none"/>
    <path d="M8.5 33.85 L8.1 31.9 Q7.05 26.2 6.4 20.65 5.7 15.15 5.7 10.45 5.65 5.8 6.45 2.6 M1.45 0.0 Q0.5 3.1 0.15 7.75 -0.15 12.4 0.1 18.0 0.35 23.6 1.1 29.55 1.2 30.4 0.9 31.55 L0.35 33.85 Q0.1 35.0 0.2 35.85 0.3 36.4 0.8 36.6 L1.75 37.0 2.1 37.25" fill="none" stroke="#000000" stroke-linecap="round" stroke-linejoin="round" stroke-width="1.0"/>
  </g>
</svg>
