<?xml version="1.0" encoding="UTF-8" standalone="no"?>
<svg xmlns:xlink="http://www.w3.org/1999/xlink" height="11.0px" width="19.35px" xmlns="http://www.w3.org/2000/svg">
  <g transform="matrix(1.0, 0.0, 0.0, 1.0, 0.5, 0.5)">
    <path d="M7.45 5.05 Q7.4 7.15 6.35 8.55 5.3 9.95 3.7 10.0 2.15 9.95 1.1 8.55 0.05 7.15 0.0 5.05 0.05 2.9 1.1 1.5 2.15 0.1 3.7 0.05 5.3 0.1 6.35 1.5 7.4 2.9 7.45 5.05" fill="#fbc0df" fill-rule="evenodd" stroke="none"/>
    <path d="M7.45 5.05 Q7.4 7.15 6.35 8.55 5.3 9.95 3.7 10.0 2.15 9.95 1.1 8.55 0.05 7.15 0.0 5.05 0.05 2.9 1.1 1.5 2.15 0.1 3.7 0.05 5.3 0.1 6.35 1.5 7.4 2.9 7.45 5.05 Z" fill="none" stroke="#000000" stroke-linecap="round" stroke-linejoin="round" stroke-width="1.0"/>
    <path d="M5.6 4.8 Q5.6 5.4 5.2 5.75 4.85 6.15 4.25 6.15 3.7 6.15 3.3 5.75 2.9 5.4 2.9 4.8 2.9 4.25 3.3 3.85 3.7 3.45 4.25 3.45 4.85 3.45 5.2 3.85 5.6 4.25 5.6 4.8" fill="#000000" fill-rule="evenodd" stroke="none"/>
    <path d="M18.1 3.8 Q18.65 5.85 18.1 7.5 17.5 9.15 16.0 9.65 14.45 10.05 13.05 9.0 11.65 8.0 11.0 5.95 10.4 3.95 11.0 2.3 11.6 0.65 13.1 0.1 14.6 -0.3 16.05 0.75 17.45 1.8 18.1 3.8" fill="#fbc0df" fill-rule="evenodd" stroke="none"/>
    <path d="M18.1 3.8 Q18.65 5.85 18.1 7.5 17.5 9.15 16.0 9.65 14.45 10.05 13.05 9.0 11.65 8.0 11.0 5.95 10.4 3.95 11.0 2.3 11.6 0.65 13.1 0.1 14.6 -0.3 16.05 0.75 17.45 1.8 18.1 3.8 Z" fill="none" stroke="#000000" stroke-linecap="round" stroke-linejoin="round" stroke-width="1.0"/>
    <path d="M16.3 4.1 Q16.45 4.65 16.2 5.15 L15.4 5.8 14.35 5.7 13.7 4.9 Q13.55 4.35 13.8 3.85 L14.6 3.2 15.65 3.3 16.3 4.1" fill="#000000" fill-rule="evenodd" stroke="none"/>
  </g>
</svg>
