<?xml version="1.0" encoding="UTF-8" standalone="no"?>
<svg xmlns:xlink="http://www.w3.org/1999/xlink" height="20.75px" width="45.6px" xmlns="http://www.w3.org/2000/svg">
  <g transform="matrix(1.0, 0.0, 0.0, 1.0, 22.8, 10.65)">
    <path d="M22.0 -8.4 Q22.4 -7.25 22.3 -5.5 22.2 -3.45 21.6 -2.75 L19.0 -0.25 14.55 3.85 11.2 6.8 Q9.75 7.9 8.6 8.1 L7.35 8.25 2.1 7.95 -6.55 7.35 -6.4 7.15 -2.4 4.35 -1.7 3.95 -0.3 3.95 0.45 7.0 4.85 4.8 6.2 4.8 6.5 4.45 6.55 3.9 6.55 3.6 6.2 3.25 4.6 3.25 4.25 3.55 3.95 3.55 -19.45 0.75 -18.75 2.25 -18.8 2.35 -19.1 2.5 -19.0 2.65 -19.75 3.6 -18.0 3.6 -16.45 5.2 -15.1 6.45 -18.7 5.8 Q-22.3 4.8 -22.3 2.75 -22.35 0.85 -20.95 -0.45 L-20.55 -0.8 -20.0 -1.05 -20.15 -0.95 -18.3 -1.3 -10.0 -0.9 1.15 -0.35 6.75 -0.1 8.1 -0.2 Q9.4 -0.3 10.7 -1.0 L13.8 -2.95 18.8 -6.05 21.35 -7.65 21.95 -8.3 22.0 -8.4 M21.85 -8.75 L21.9 -8.75 21.9 -8.7 21.85 -8.75 M-20.95 -0.45 L-20.8 -0.5 -20.15 -0.95 -20.8 -0.5 -20.95 -0.45 M22.15 -5.6 L20.25 -4.25 16.1 -1.3 12.1 1.8 Q9.7 3.6 8.0 3.8 L6.55 3.9 8.0 3.8 Q9.7 3.6 12.1 1.8 L16.1 -1.3 20.25 -4.25 22.15 -5.6 M2.6 5.05 L0.85 6.05 0.35 4.1 2.35 4.15 2.6 5.05" fill="#843908" fill-rule="evenodd" stroke="none"/>
    <path d="M-20.0 -1.05 L-7.15 -9.15 -6.1 -9.65 -3.2 -10.15 2.15 -10.05 11.35 -9.75 20.1 -9.2 21.85 -8.75 21.9 -8.7 22.0 -8.4 21.95 -8.3 21.35 -7.65 18.8 -6.05 13.8 -2.95 10.7 -1.0 Q9.4 -0.3 8.1 -0.2 L6.75 -0.1 1.15 -0.35 -10.0 -0.9 -18.3 -1.3 -20.15 -0.95 -20.0 -1.05" fill="#9e5010" fill-rule="evenodd" stroke="none"/>
    <path d="M-0.3 3.95 L-1.7 3.95 -0.3 3.15 -2.0 3.1 -17.05 1.25 -18.8 2.35 -18.75 2.25 -19.45 0.75 3.95 3.55 -0.4 3.5 -0.3 3.95 M-19.0 2.65 L-18.0 3.6 -19.75 3.6 -19.0 2.65" fill="#4e1e09" fill-rule="evenodd" stroke="none"/>
    <path d="M3.95 3.55 L4.25 3.55 4.6 3.25 6.2 3.25 6.55 3.6 6.55 3.9 6.5 4.45 6.2 4.8 4.85 4.8 0.45 7.0 -0.3 3.95 -0.4 3.5 3.95 3.55 M2.6 5.05 L2.35 4.15 0.35 4.1 0.85 6.05 2.6 5.05" fill="#000000" fill-rule="evenodd" stroke="none"/>
    <path d="M-6.55 7.35 Q-8.4 8.8 -8.65 10.1 L-11.15 8.55 Q-10.2 7.35 -8.3 6.2 -5.95 4.85 -3.85 3.95 L-1.55 3.1 -2.0 3.1 -0.3 3.15 -1.7 3.95 -2.4 4.35 -6.4 7.15 -6.55 7.35" fill="#376b19" fill-rule="evenodd" stroke="none"/>
    <path d="M-11.15 8.55 L-11.6 9.25 -15.1 6.45 -16.45 5.2 -18.0 3.6 -19.0 2.65 -19.1 2.5 -18.8 2.35 -17.05 1.25 -2.0 3.1 -1.55 3.1 -3.85 3.95 Q-5.95 4.85 -8.3 6.2 -10.2 7.35 -11.15 8.55" fill="#42811f" fill-rule="evenodd" stroke="none"/>
    <path d="M22.0 -8.4 Q22.4 -7.25 22.3 -5.5 22.2 -3.45 21.6 -2.75 L19.0 -0.25 14.55 3.85 11.2 6.8 Q9.75 7.9 8.6 8.1 L7.35 8.25 2.1 7.95 -6.55 7.35 M-15.1 6.45 L-18.7 5.8 Q-22.3 4.8 -22.3 2.75 -22.35 0.85 -20.95 -0.45 L-20.55 -0.8 -20.0 -1.05 -7.15 -9.15 -6.1 -9.65 -3.2 -10.15 2.15 -10.05 11.35 -9.75 20.1 -9.2 21.85 -8.75 21.9 -8.7 22.0 -8.4 21.95 -8.3 21.35 -7.65 18.8 -6.05 13.8 -2.95 10.7 -1.0 Q9.4 -0.3 8.1 -0.2 L6.75 -0.1 1.15 -0.35 -10.0 -0.9 -18.3 -1.3 -20.15 -0.95 -20.8 -0.5 -20.95 -0.45 M21.9 -8.75 L21.9 -8.7 M6.55 3.9 L8.0 3.8 Q9.7 3.6 12.1 1.8 L16.1 -1.3 20.25 -4.25 22.15 -5.6 M-0.3 3.95 L-1.7 3.95 M-19.0 2.65 L-19.75 3.6 -18.0 3.6 M-18.8 2.35 L-18.75 2.25 -19.45 0.75 3.95 3.55 M-20.15 -0.95 L-20.0 -1.05" fill="none" stroke="#000000" stroke-linecap="round" stroke-linejoin="round" stroke-width="1.0"/>
  </g>
</svg>
