<?xml version="1.0" encoding="UTF-8" standalone="no"?>
<svg xmlns:xlink="http://www.w3.org/1999/xlink" height="50.55px" width="36.15px" xmlns="http://www.w3.org/2000/svg">
  <g transform="matrix(1.0, 0.0, 0.0, 1.0, 18.05, 31.35)">
    <path d="M-8.15 18.7 L-6.4 16.05 -6.2 2.65 Q-8.0 -1.8 -12.5 -4.95 -17.0 -8.1 -17.55 -14.6 -17.35 -21.65 -12.05 -26.15 -6.8 -30.7 1.3 -30.85 9.2 -30.3 13.35 -24.4 17.45 -18.5 17.6 -13.6 17.1 -9.0 12.5 -4.2 7.9 0.6 6.8 2.9 7.4 5.3 6.8 16.4 L8.6 18.7 -8.15 18.7" fill="#ffffff" fill-rule="evenodd" stroke="none"/>
    <path d="M-8.15 18.7 L-6.4 16.05 -6.2 2.65 Q-8.0 -1.8 -12.5 -4.95 -17.0 -8.1 -17.55 -14.6 -17.35 -21.65 -12.05 -26.15 -6.8 -30.7 1.3 -30.85 9.2 -30.3 13.35 -24.4 17.45 -18.5 17.6 -13.6 17.1 -9.0 12.5 -4.2 7.9 0.6 6.8 2.9 7.4 5.3 6.8 16.4 L8.6 18.7" fill="none" stroke="#000000" stroke-linecap="round" stroke-linejoin="round" stroke-width="1.0"/>
  </g>
</svg>
