<?xml version="1.0" encoding="UTF-8" standalone="no"?>
<svg xmlns:xlink="http://www.w3.org/1999/xlink" height="12.25px" width="32.4px" xmlns="http://www.w3.org/2000/svg">
  <g transform="matrix(1.0, 0.0, 0.0, 1.0, 16.2, 6.1)">
    <path d="M-2.75 0.0 Q-3.3 5.2 -9.25 5.7 -15.2 5.2 -15.75 0.0 -15.2 -5.15 -9.25 -5.65 -3.3 -5.15 -2.75 0.0" fill="#f67616" fill-rule="evenodd" stroke="none"/>
    <path d="M-2.75 0.0 Q-3.3 5.2 -9.25 5.7 -15.2 5.2 -15.75 0.0 -15.2 -5.15 -9.25 -5.65 -3.3 -5.15 -2.75 0.0 Z" fill="none" stroke="#000000" stroke-linecap="round" stroke-linejoin="round" stroke-width="0.9"/>
    <path d="M-7.05 0.15 Q-7.2 1.25 -8.4 1.35 -9.6 1.25 -9.7 0.15 -9.6 -0.95 -8.4 -1.05 -7.2 -0.95 -7.05 0.15" fill="#000000" fill-rule="evenodd" stroke="none"/>
    <path d="M2.75 0.0 Q3.3 -5.15 9.25 -5.65 15.2 -5.15 15.75 0.0 15.2 5.2 9.25 5.7 3.3 5.2 2.75 0.0" fill="#f67616" fill-rule="evenodd" stroke="none"/>
    <path d="M2.75 0.0 Q3.3 5.2 9.25 5.7 15.2 5.2 15.75 0.0 15.2 -5.15 9.25 -5.65 3.3 -5.15 2.75 0.0 Z" fill="none" stroke="#000000" stroke-linecap="round" stroke-linejoin="round" stroke-width="0.9"/>
    <path d="M7.1 0.15 Q7.2 -0.95 8.4 -1.05 9.6 -0.95 9.75 0.15 9.6 1.25 8.4 1.35 7.2 1.25 7.1 0.15" fill="#000000" fill-rule="evenodd" stroke="none"/>
  </g>
</svg>
