<?xml version="1.0" encoding="UTF-8" standalone="no"?>
<svg xmlns:xlink="http://www.w3.org/1999/xlink" height="16.75px" width="29.5px" xmlns="http://www.w3.org/2000/svg">
  <g transform="matrix(1.0, 0.0, 0.0, 1.0, 13.85, 12.4)">
    <path d="M8.95 -3.0 Q6.6 -2.4 4.9 0.4 3.1 3.45 0.5 3.85 -2.1 3.4 -4.25 0.15 -5.95 -2.45 -8.35 -3.25 L0.35 -1.2 8.95 -3.0" fill="#fa420f" fill-rule="evenodd" stroke="none"/>
    <path d="M-8.35 -3.25 L-9.6 -3.55 M8.95 -3.0 L0.35 -1.2 -8.35 -3.25 Q-5.95 -2.45 -4.25 0.15 -2.1 3.4 0.5 3.85 3.1 3.45 4.9 0.4 6.6 -2.4 8.95 -3.0 L9.25 -3.05" fill="none" stroke="#000000" stroke-linecap="round" stroke-linejoin="round" stroke-width="1.0"/>
    <path d="M15.15 -4.8 Q12.8 -3.0 7.65 -2.35 2.5 -1.7 0.8 0.05 -0.7 -1.65 -5.6 -2.3 -10.55 -2.95 -13.35 -4.65 -5.75 -5.0 -3.35 -7.7 -0.9 -10.4 -1.1 -10.8 -1.05 -11.45 1.3 -11.9 3.35 -11.2 3.15 -10.8 3.0 -10.4 5.65 -7.6 8.25 -4.85 15.15 -4.8" fill="#fa420f" fill-rule="evenodd" stroke="none"/>
    <path d="M15.15 -4.8 Q8.25 -4.85 5.65 -7.6 3.0 -10.4 3.15 -10.8 3.35 -11.2 1.3 -11.9 -1.05 -11.45 -1.1 -10.8 -0.9 -10.4 -3.35 -7.7 -5.75 -5.0 -13.35 -4.65 -10.55 -2.95 -5.6 -2.3 -0.7 -1.65 0.8 0.05 2.5 -1.7 7.65 -2.35 12.8 -3.0 15.15 -4.8 Z" fill="none" stroke="#000000" stroke-linecap="round" stroke-linejoin="round" stroke-width="1.0"/>
  </g>
</svg>
