<?xml version="1.0" encoding="UTF-8" standalone="no"?>
<svg xmlns:xlink="http://www.w3.org/1999/xlink" height="16.75px" width="29.5px" xmlns="http://www.w3.org/2000/svg">
  <g transform="matrix(1.0, 0.0, 0.0, 1.0, 13.8, 12.3)">
    <path d="M9.0 -2.9 Q6.65 -2.3 4.95 0.5 3.15 3.55 0.55 3.95 -2.05 3.5 -4.2 0.25 -5.9 -2.35 -8.3 -3.15 L0.4 -1.1 9.0 -2.9" fill="#fa420f" fill-rule="evenodd" stroke="none"/>
    <path d="M-8.3 -3.15 L-9.55 -3.45 M9.0 -2.9 L0.4 -1.1 -8.3 -3.15 Q-5.9 -2.35 -4.2 0.25 -2.05 3.5 0.55 3.95 3.15 3.55 4.95 0.5 6.65 -2.3 9.0 -2.9 L9.3 -2.95" fill="none" stroke="#000000" stroke-linecap="round" stroke-linejoin="round" stroke-width="1.0"/>
    <path d="M15.2 -4.7 Q12.85 -2.95 7.7 -2.65 2.55 -2.4 0.85 -0.7 -0.65 -2.35 -5.55 -2.6 -10.5 -2.9 -13.3 -4.55 -5.7 -4.9 -3.3 -7.6 -0.85 -10.3 -1.05 -10.7 -1.0 -11.35 1.35 -11.8 3.4 -11.1 3.2 -10.7 3.05 -10.3 5.7 -7.5 8.3 -4.75 15.2 -4.7" fill="#fa420f" fill-rule="evenodd" stroke="none"/>
    <path d="M15.2 -4.7 Q8.3 -4.75 5.7 -7.5 3.05 -10.3 3.2 -10.7 3.4 -11.1 1.35 -11.8 -1.0 -11.35 -1.05 -10.7 -0.85 -10.3 -3.3 -7.6 -5.7 -4.9 -13.3 -4.55 -10.5 -2.9 -5.55 -2.6 -0.65 -2.35 0.85 -0.7 2.55 -2.4 7.7 -2.65 12.85 -2.95 15.2 -4.7 Z" fill="none" stroke="#000000" stroke-linecap="round" stroke-linejoin="round" stroke-width="1.0"/>
  </g>
</svg>
