<?xml version="1.0" encoding="UTF-8" standalone="no"?>
<svg xmlns:xlink="http://www.w3.org/1999/xlink" height="16.75px" width="29.5px" xmlns="http://www.w3.org/2000/svg">
  <g transform="matrix(1.0, 0.0, 0.0, 1.0, 13.7, 12.3)">
    <path d="M-8.9 -3.45 L0.85 -6.9 10.55 -3.35 0.8 0.25 -8.9 -3.45" fill="#8d1008" fill-rule="evenodd" stroke="none"/>
    <path d="M-7.8 -3.05 L0.8 -0.9 10.35 -3.55 Q7.9 -2.75 5.75 0.4 3.55 3.5 0.85 3.95 -1.75 3.5 -3.9 0.25 -5.55 -2.25 -7.8 -3.05" fill="#fa420f" fill-rule="evenodd" stroke="none"/>
    <path d="M-7.8 -3.05 Q-5.55 -2.25 -3.9 0.25 -1.75 3.5 0.85 3.95 3.55 3.5 5.75 0.4 7.9 -2.75 10.35 -3.55 L0.8 -0.9 -7.8 -3.05 -9.25 -3.45" fill="none" stroke="#000000" stroke-linecap="round" stroke-linejoin="round" stroke-width="1.0"/>
    <path d="M15.3 -4.7 Q12.95 -3.05 7.75 -3.6 2.55 -4.1 0.85 -2.55 -0.7 -4.05 -5.55 -3.55 -10.4 -3.0 -13.2 -4.55 -5.6 -4.9 -3.2 -7.6 -0.75 -10.3 -0.95 -10.7 -0.9 -11.35 1.45 -11.8 3.5 -11.1 3.3 -10.7 3.15 -10.3 5.8 -7.5 8.4 -4.75 15.3 -4.7" fill="#fa420f" fill-rule="evenodd" stroke="none"/>
    <path d="M15.3 -4.7 Q8.4 -4.75 5.8 -7.5 3.15 -10.3 3.3 -10.7 3.5 -11.1 1.45 -11.8 -0.9 -11.35 -0.95 -10.7 -0.75 -10.3 -3.2 -7.6 -5.6 -4.9 -13.2 -4.55 -10.4 -3.0 -5.55 -3.55 -0.7 -4.05 0.85 -2.55 2.55 -4.1 7.75 -3.6 12.95 -3.05 15.3 -4.7 Z" fill="none" stroke="#000000" stroke-linecap="round" stroke-linejoin="round" stroke-width="1.0"/>
  </g>
</svg>
