<?xml version="1.0" encoding="UTF-8" standalone="no"?>
<svg xmlns:xlink="http://www.w3.org/1999/xlink" height="30.65px" width="73.25px" xmlns="http://www.w3.org/2000/svg">
  <g transform="matrix(1.0, 0.0, 0.0, 1.0, 34.9, -40.25)">
    <path d="M-12.6 40.95 L-3.1 45.1 Q-16.35 52.6 -17.85 51.15 -19.35 49.7 -16.3 45.55 L-12.6 40.95" fill="#ffffff" fill-rule="evenodd" stroke="none"/>
    <path d="M-12.6 40.95 L-16.3 45.55 Q-19.35 49.7 -17.85 51.15 -16.35 52.6 -3.1 45.1" fill="none" stroke="#000000" stroke-linecap="round" stroke-linejoin="round" stroke-width="1.0"/>
    <path d="M-2.75 44.9 L4.55 45.4 Q2.3 50.6 0.65 50.2 -0.95 49.75 -1.85 47.5 L-2.75 44.9" fill="#ffffff" fill-rule="evenodd" stroke="none"/>
    <path d="M-2.75 44.9 L-1.85 47.5 Q-0.95 49.75 0.65 50.2 2.3 50.6 4.55 45.4" fill="none" stroke="#000000" stroke-linecap="round" stroke-linejoin="round" stroke-width="1.0"/>
    <path d="M6.25 44.75 L18.25 40.75 Q19.15 41.25 21.9 45.4 24.65 49.5 22.45 50.9 20.25 52.3 6.25 44.75" fill="#ffffff" fill-rule="evenodd" stroke="none"/>
    <path d="M18.25 40.75 Q19.15 41.25 21.9 45.4 24.65 49.5 22.45 50.9 20.25 52.3 6.25 44.75" fill="none" stroke="#000000" stroke-linecap="round" stroke-linejoin="round" stroke-width="1.0"/>
    <path d="M-13.4 42.9 L-9.6 43.9 -7.1 60.4 Q-7.0 60.75 -6.85 64.0 -6.7 67.3 -7.25 69.4 -9.3 67.5 -12.75 67.3 -16.2 67.1 -17.75 67.25 -19.15 67.4 -20.95 68.4 L-22.9 69.55 Q-22.85 68.95 -21.25 66.55 -22.85 65.65 -28.25 65.55 L-34.4 65.55 -29.05 64.1 -18.25 61.55 Q-12.5 60.35 -9.9 60.55 -9.9 57.4 -11.55 50.55 L-13.4 42.9" fill="#fa420f" fill-rule="evenodd" stroke="none"/>
    <path d="M-13.4 42.9 L-11.55 50.55 Q-9.9 57.4 -9.9 60.55 -12.5 60.35 -18.25 61.55 L-29.05 64.1 -34.4 65.55 -28.25 65.55 Q-22.85 65.65 -21.25 66.55 -22.85 68.95 -22.9 69.55 L-20.95 68.4 Q-19.15 67.4 -17.75 67.25 -16.2 67.1 -12.75 67.3 -9.3 67.5 -7.25 69.4 -6.7 67.3 -6.85 64.0 -7.0 60.75 -7.1 60.4 L-9.6 43.9 -13.4 42.9 Z" fill="none" stroke="#000000" stroke-linecap="round" stroke-linejoin="round" stroke-width="1.0"/>
    <path d="M37.85 66.4 L31.7 66.4 Q26.25 66.5 24.65 67.4 L26.35 70.4 24.4 69.25 Q22.6 68.25 21.15 68.1 19.65 67.95 16.15 68.15 12.7 68.35 10.65 70.25 10.1 68.15 10.25 64.85 L10.5 61.25 13.0 44.75 16.85 43.75 14.95 51.4 Q13.35 58.25 13.35 61.4 15.9 61.2 21.7 62.4 L32.5 64.95 37.85 66.4" fill="#fa420f" fill-rule="evenodd" stroke="none"/>
    <path d="M37.85 66.4 L31.7 66.4 Q26.25 66.5 24.65 67.4 L26.35 70.4 24.4 69.25 Q22.6 68.25 21.15 68.1 19.65 67.95 16.15 68.15 12.7 68.35 10.65 70.25 10.1 68.15 10.25 64.85 L10.5 61.25 13.0 44.75 16.85 43.75 14.95 51.4 Q13.35 58.25 13.35 61.4 15.9 61.2 21.7 62.4 L32.5 64.95 37.85 66.4 Z" fill="none" stroke="#000000" stroke-linecap="round" stroke-linejoin="round" stroke-width="1.0"/>
  </g>
</svg>
