<?xml version="1.0" encoding="UTF-8" standalone="no"?>
<svg xmlns:xlink="http://www.w3.org/1999/xlink" height="72.0px" width="80.25px" xmlns="http://www.w3.org/2000/svg">
  <g transform="matrix(1.0, 0.0, 0.0, 1.0, 38.7, 24.55)">
    <path d="M24.4 -4.4 Q41.0 11.5 41.05 21.6 41.05 31.75 32.35 37.25 23.7 42.8 14.15 44.9 4.6 47.05 2.1 46.95 -0.4 47.0 -9.85 44.45 -19.3 41.85 -28.25 35.9 -37.2 29.95 -38.15 19.8 -39.1 9.65 -24.6 -5.4 1.2 -44.2 24.4 -4.4" fill="#ffffff" fill-rule="evenodd" stroke="none"/>
    <path d="M-24.6 -5.4 Q-39.1 9.65 -38.15 19.8 -37.2 29.95 -28.25 35.9 -19.3 41.85 -9.85 44.45 -0.4 47.0 2.1 46.95 4.6 47.05 14.15 44.9 23.7 42.8 32.35 37.25 41.05 31.75 41.05 21.6 41.0 11.5 24.4 -4.4" fill="none" stroke="#000000" stroke-linecap="round" stroke-linejoin="round" stroke-width="1.0"/>
  </g>
</svg>
