<?xml version="1.0" encoding="UTF-8" standalone="no"?>
<svg xmlns:xlink="http://www.w3.org/1999/xlink" height="109.8px" width="37.8px" xmlns="http://www.w3.org/2000/svg">
  <g transform="matrix(1.0, 0.0, 0.0, 1.0, 362.55, 62.55)">
    <path d="M-352.05 -50.8 Q-353.0 -51.5 -353.75 -52.6 -353.1 -53.25 -351.95 -53.15 L-350.0 -52.8 -351.2 -54.55 Q-351.7 -55.4 -351.6 -55.7 L-350.9 -57.05 -349.75 -59.0 -348.6 -60.8 -348.15 -61.65 -347.65 -61.5 -347.75 -60.75 -348.05 -59.0 -348.25 -57.05 -348.25 -55.8 -348.3 -55.85 -347.6 -54.85 -347.6 -54.9 -346.35 -53.7 -346.25 -53.7 -344.75 -53.7 -344.7 -53.7 -344.15 -53.65 -343.8 -53.55 -343.7 -53.45 -342.0 -53.35 -341.2 -53.95 -339.95 -55.0 -339.3 -55.85 Q-339.15 -56.3 -339.15 -57.15 L-339.25 -59.25 -339.4 -61.15 -339.5 -62.0 -339.45 -62.3 -339.2 -62.5 -338.85 -62.5 -338.6 -62.35 -338.2 -61.55 -337.35 -59.9 -336.35 -57.75 -335.55 -55.85 Q-335.15 -54.8 -335.3 -54.4 L-335.6 -53.85 -334.8 -53.35 -334.6 -53.05 Q-334.55 -52.9 -334.65 -52.7 -335.55 -51.15 -336.55 -50.3 L-337.65 -49.45 -337.65 -49.3 -337.65 -49.2 -337.4 -48.7 -337.35 -48.65 -336.55 -47.65 Q-336.0 -47.0 -335.95 -46.45 -335.9 -45.4 -336.25 -44.65 L-336.25 -44.6 -336.95 -43.45 -337.2 -42.9 -337.1 -41.95 -336.1 -34.5 -335.6 -34.05 -335.55 -34.05 -334.15 -32.65 -332.75 -30.6 -332.7 -30.45 -332.75 -28.9 -332.95 -26.95 -333.1 -25.25 -333.05 -24.6 -332.55 -21.4 -332.55 -16.8 -333.0 -11.65 -333.0 -11.6 -332.9 -10.9 -332.65 -9.9 -332.65 -9.85 -332.6 -8.8 Q-332.7 -8.25 -333.15 -8.05 L-333.15 -8.1 -333.25 -8.05 -332.65 -4.3 -332.35 -1.6 -332.85 0.75 Q-333.25 2.2 -334.0 3.85 L-334.0 3.8 -334.0 3.85 Q-333.3 5.3 -332.85 7.2 -332.35 9.15 -332.1 11.25 L-331.75 15.25 -331.45 18.6 -331.1 20.6 -331.1 20.55 -330.4 22.05 -329.85 23.3 Q-329.6 23.95 -329.6 24.95 L-329.85 27.4 -330.0 27.7 -330.3 27.85 -330.6 27.75 Q-331.8 27.0 -332.3 25.9 -332.85 24.75 -333.0 23.65 L-333.1 21.85 -333.1 21.8 -333.05 21.15 -333.15 20.15 -333.4 17.6 -333.85 14.05 -334.5 10.2 -335.35 6.65 -335.45 6.35 -335.85 6.85 -335.95 7.6 -336.0 7.7 Q-336.25 10.0 -336.8 11.8 L-338.0 14.95 -339.05 17.2 -339.3 18.6 -339.35 18.85 -339.2 42.05 -329.45 42.65 Q-324.65 43.35 -324.75 44.65 -324.65 45.95 -329.45 46.65 L-339.95 47.25 -350.4 46.65 Q-355.3 45.95 -355.15 44.65 -355.3 43.35 -350.4 42.65 L-349.75 42.6 -350.05 42.6 -352.35 42.5 -352.4 42.5 Q-353.6 42.3 -354.1 41.75 L-354.25 41.5 -354.2 41.2 -353.85 40.6 -353.9 40.6 -354.2 40.4 -354.3 40.0 Q-354.1 38.85 -353.1 38.3 L-353.05 38.3 -353.05 38.35 Q-352.25 37.85 -351.15 37.7 L-349.4 37.55 -349.15 37.55 -349.35 18.85 -349.45 18.15 -349.4 15.9 Q-349.25 14.45 -348.5 12.35 L-348.5 12.3 Q-349.55 12.15 -350.45 11.45 L-350.45 11.4 -351.15 10.75 Q-351.55 11.05 -351.9 10.95 -352.6 10.95 -352.6 9.65 L-352.6 9.6 -352.4 8.1 -352.6 7.3 -352.55 7.35 -352.7 6.85 -352.8 6.05 -353.1 6.25 -353.45 6.15 -353.7 5.85 Q-354.25 3.1 -354.25 1.4 -354.35 -0.4 -354.0 -1.4 -353.75 -2.3 -353.3 -2.8 L-353.2 -4.5 Q-352.95 -7.8 -352.1 -11.3 L-352.1 -11.2 -351.7 -13.85 -350.85 -17.4 -350.85 -17.35 -349.9 -20.65 -348.85 -24.2 -347.9 -28.8 Q-347.65 -30.15 -347.05 -31.3 L-345.75 -33.2 -344.5 -34.65 -343.8 -35.6 -343.7 -35.75 -343.7 -36.3 -343.4 -38.3 -343.25 -40.3 -343.6 -40.15 -344.75 -39.7 -344.5 -39.1 Q-344.2 -38.15 -344.2 -37.25 -344.25 -36.3 -344.8 -35.6 -344.9 -35.2 -345.75 -34.85 L-345.8 -34.8 -345.75 -34.85 -346.75 -34.5 -346.7 -34.3 Q-346.65 -33.6 -347.0 -33.15 L-348.0 -32.6 -349.9 -32.55 Q-350.5 -32.55 -350.95 -32.95 L-351.45 -33.95 -351.45 -34.0 -351.95 -34.15 -353.7 -34.65 -355.05 -35.1 -355.1 -35.1 -355.6 -35.3 -355.7 -35.25 -357.25 -34.8 -358.5 -34.6 -358.8 -34.1 -358.85 -34.1 Q-359.2 -33.6 -359.7 -33.5 L-359.75 -33.5 -359.7 -33.5 Q-360.3 -33.35 -360.75 -33.7 L-362.05 -34.7 -362.1 -34.75 Q-362.5 -35.05 -362.55 -35.6 L-362.3 -36.6 -362.1 -36.9 -362.3 -37.4 Q-362.65 -38.4 -362.35 -39.85 -362.25 -40.55 -362.3 -41.25 L-362.3 -41.3 -362.15 -42.95 -362.1 -43.0 Q-361.9 -43.9 -361.15 -44.45 -360.45 -45.0 -358.9 -45.0 L-358.8 -45.0 -355.8 -44.7 -354.0 -44.9 -353.85 -44.9 -353.8 -44.95 -353.65 -45.05 -353.6 -45.1 -352.85 -45.6 -352.7 -45.9 -352.65 -45.95 -351.6 -47.75 -351.2 -48.5 -351.05 -49.15 -350.95 -49.45 -352.35 -50.4 -354.15 -52.3 -354.25 -52.65 -354.1 -52.95 Q-353.3 -53.75 -351.9 -53.65 L-351.2 -53.6 -351.65 -54.3 Q-352.3 -55.4 -352.1 -55.8 L-352.1 -55.9 -351.35 -57.3 -350.15 -59.25 -350.15 -59.3 -349.05 -61.1 -349.05 -61.05 -348.6 -61.75 -348.15 -61.65 -348.25 -60.85 -348.55 -59.1 -348.75 -57.1 -348.75 -55.75 Q-348.7 -55.3 -347.95 -54.55 L-346.5 -53.15 -346.2 -53.2 -344.75 -53.2 -344.05 -53.15 -344.15 -53.0 -343.75 -52.95 -341.9 -52.8 -340.9 -53.55 -339.6 -54.65 -338.8 -55.7 Q-338.65 -56.2 -338.65 -57.15 L-338.75 -59.3 -338.9 -61.2 -339.0 -62.05 -338.65 -61.35 -337.8 -59.65 -336.8 -57.55 -336.0 -55.7 -335.8 -54.55 -336.4 -53.5 -335.1 -52.95 Q-335.95 -51.5 -336.9 -50.65 L-338.2 -49.7 -338.15 -49.25 Q-338.2 -48.85 -337.75 -48.35 L-336.9 -47.35 Q-336.5 -46.85 -336.45 -46.4 -336.4 -45.55 -336.7 -44.85 L-337.35 -43.75 -337.7 -42.85 -337.6 -41.95 -337.6 -41.9 -336.55 -34.25 Q-339.0 -36.35 -343.35 -35.5 L-343.2 -36.2 -342.9 -38.25 Q-342.75 -39.5 -342.75 -40.9 L-342.75 -41.0 -343.8 -40.6 Q-344.5 -40.3 -345.1 -40.15 L-345.5 -40.1 -345.0 -38.9 Q-344.7 -38.1 -344.7 -37.25 -344.75 -36.4 -345.3 -35.75 L-345.95 -35.3 -347.3 -34.85 -347.2 -34.25 -347.4 -33.45 Q-347.65 -33.15 -348.05 -33.1 L-349.95 -33.05 -350.6 -33.3 -350.95 -34.05 -351.0 -34.4 -351.8 -34.6 -353.55 -35.1 -354.9 -35.55 -355.45 -35.75 -355.4 -35.85 -355.8 -35.75 -355.85 -35.7 -357.35 -35.3 -358.8 -35.05 -359.25 -34.4 -359.85 -34.0 -360.45 -34.1 -361.75 -35.1 -362.05 -35.7 -361.85 -36.35 -361.5 -36.85 -361.85 -37.55 Q-362.15 -38.45 -361.85 -39.75 -361.75 -40.5 -361.8 -41.3 L-361.65 -42.85 Q-361.45 -43.6 -360.85 -44.05 -360.25 -44.5 -358.9 -44.5 L-355.75 -44.2 -353.9 -44.4 -353.6 -44.5 -353.35 -44.65 -352.45 -45.3 -352.25 -45.7 -351.15 -47.5 -350.7 -48.35 -350.55 -49.0 -350.25 -49.7 -350.3 -49.7 Q-351.15 -50.1 -352.05 -50.8 M-333.35 -30.65 L-333.2 -30.4 -333.2 -30.05 -333.35 -30.65 M-355.05 -36.35 L-355.0 -36.6 -354.7 -36.8 -355.05 -36.35 M-350.75 -40.25 L-350.05 -40.65 -349.85 -40.65 -349.3 -40.4 -348.7 -39.6 -348.4 -38.7 -348.45 -37.75 -348.75 -36.85 Q-348.95 -36.45 -349.25 -36.4 L-350.0 -36.65 -350.85 -37.3 Q-351.25 -37.7 -351.3 -38.35 -351.4 -39.4 -351.0 -39.95 L-350.75 -40.25" fill="#ff0000" fill-rule="evenodd" stroke="none"/>
    <path d="M-350.75 -40.25 L-351.0 -39.95 Q-351.4 -39.4 -351.3 -38.35 -351.25 -37.7 -350.85 -37.3 L-350.0 -36.65 -349.25 -36.4 Q-348.95 -36.45 -348.75 -36.85 L-348.45 -37.75 -348.4 -38.7 -348.7 -39.6 -349.3 -40.4 -349.85 -40.65 -350.05 -40.65 -350.75 -40.25 M-355.0 -36.6 L-355.05 -36.35" fill="none" stroke="#000000" stroke-linecap="round" stroke-linejoin="round" stroke-width="1.0"/>
  </g>
</svg>
