<?xml version="1.0" encoding="UTF-8" standalone="no"?>
<svg xmlns:xlink="http://www.w3.org/1999/xlink" height="29.1px" width="29.2px" xmlns="http://www.w3.org/2000/svg">
  <g transform="matrix(1.0, 0.0, 0.0, 1.0, 14.6, 29.1)">
    <path d="M4.25 -2.3 L5.5 -0.55 4.15 -0.4 2.9 0.0 3.05 -2.0 4.25 -2.3" fill="#cf0d2a" fill-rule="evenodd" stroke="none"/>
    <path d="M3.05 -2.0 L-0.9 -2.35 Q-5.5 -3.6 -9.6 -7.95 -13.6 -12.5 -14.4 -17.15 -15.2 -21.9 -12.4 -24.65 -9.45 -27.15 -4.85 -25.95 -2.8 -25.4 -0.8 -24.2 3.65 -30.25 9.7 -28.85 13.3 -27.35 14.3 -22.65 15.25 -18.1 13.25 -12.4 10.3 -5.95 6.55 -3.55 5.5 -2.7 4.25 -2.3 L3.05 -2.0 M9.45 -28.0 Q9.45 -28.3 7.45 -28.5 5.4 -28.7 1.75 -25.6 -1.0 -22.8 3.8 -25.1 L9.45 -28.0 M-9.45 -24.35 Q-11.35 -24.25 -12.85 -19.05 -11.1 -17.55 -9.3 -20.55 -7.5 -23.5 -7.35 -24.1 L-9.45 -24.35" fill="#ef1046" fill-rule="evenodd" stroke="none"/>
    <path d="M-9.45 -24.35 L-7.35 -24.1 Q-7.5 -23.5 -9.3 -20.55 -11.1 -17.55 -12.85 -19.05 -11.35 -24.25 -9.45 -24.35 M9.45 -28.0 L3.8 -25.1 Q-1.0 -22.8 1.75 -25.6 5.4 -28.7 7.45 -28.5 9.45 -28.3 9.45 -28.0" fill="#f14f57" fill-rule="evenodd" stroke="none"/>
    <path d="M4.45 -2.3 L2.95 -1.9" fill="none" stroke="#000000" stroke-linecap="round" stroke-linejoin="round" stroke-width="0.4"/>
  </g>
</svg>
