<?xml version="1.0" encoding="UTF-8" standalone="no"?>
<svg xmlns:xlink="http://www.w3.org/1999/xlink" height="34.1px" width="25.6px" xmlns="http://www.w3.org/2000/svg">
  <g transform="matrix(1.0, 0.0, 0.0, 1.0, 12.8, 34.1)">
    <path d="M0.25 -2.4 L1.3 0.0 -0.3 -0.2 -1.75 -0.05 -1.0 -2.5 0.0 -2.4 0.25 -2.4" fill="#f6d50a" fill-rule="evenodd" stroke="none"/>
    <path d="M-1.0 -2.5 Q-5.8 -3.4 -9.05 -8.9 -12.65 -15.1 -12.8 -22.1 -11.7 -33.1 0.0 -34.1 11.65 -34.25 12.8 -21.3 12.65 -14.4 9.05 -8.55 5.45 -2.9 0.25 -2.4 L0.0 -2.4 -1.0 -2.5 M-5.1 -30.2 Q-7.85 -28.9 -9.55 -22.95 -10.35 -18.0 -6.55 -24.0 L-2.0 -31.3 Q-2.3 -31.6 -5.1 -30.2" fill="#f6f623" fill-rule="evenodd" stroke="none"/>
    <path d="M-5.1 -30.2 Q-2.3 -31.6 -2.0 -31.3 L-6.55 -24.0 Q-10.35 -18.0 -9.55 -22.95 -7.85 -28.9 -5.1 -30.2" fill="#f6f681" fill-rule="evenodd" stroke="none"/>
    <path d="M-0.8 -2.3 L0.15 -2.3" fill="none" stroke="#000000" stroke-linecap="round" stroke-linejoin="round" stroke-width="0.4"/>
  </g>
</svg>
