<?xml version="1.0" encoding="UTF-8" standalone="no"?>
<svg xmlns:xlink="http://www.w3.org/1999/xlink" height="34.05px" width="25.6px" xmlns="http://www.w3.org/2000/svg">
  <g transform="matrix(1.0, 0.0, 0.0, 1.0, 12.8, 34.05)">
    <path d="M0.15 -2.35 L1.2 0.0 -0.4 -0.2 -1.85 -0.05 -1.15 -2.5 0.0 -2.35 0.15 -2.35" fill="#3384bb" fill-rule="evenodd" stroke="none"/>
    <path d="M-1.15 -2.5 Q-5.85 -3.3 -9.05 -8.5 -12.65 -14.35 -12.8 -21.25 -11.7 -34.2 0.0 -34.05 11.65 -34.2 12.8 -21.25 12.65 -14.35 9.05 -8.5 5.45 -2.8 0.15 -2.35 L0.0 -2.35 -1.15 -2.5 M-9.65 -22.95 Q-10.45 -18.0 -6.65 -24.0 L-2.1 -31.3 Q-2.4 -31.6 -5.2 -30.2 -7.95 -28.9 -9.65 -22.95" fill="#54a4cb" fill-rule="evenodd" stroke="none"/>
    <path d="M-9.65 -22.95 Q-7.95 -28.9 -5.2 -30.2 -2.4 -31.6 -2.1 -31.3 L-6.65 -24.0 Q-10.45 -18.0 -9.65 -22.95" fill="#79b6d6" fill-rule="evenodd" stroke="none"/>
    <path d="M0.2 -2.25 L-1.45 -2.5" fill="none" stroke="#000000" stroke-linecap="round" stroke-linejoin="round" stroke-width="0.4"/>
  </g>
</svg>
