<?xml version="1.0" encoding="UTF-8" standalone="no"?>
<svg xmlns:xlink="http://www.w3.org/1999/xlink" height="34.0px" width="25.9px" xmlns="http://www.w3.org/2000/svg">
  <g transform="matrix(1.0, 0.0, 0.0, 1.0, 12.95, 34.0)">
    <path d="M0.1 -2.3 L1.1 0.0 -0.5 -0.2 -1.95 -0.05 -1.25 -2.4 -0.15 -2.3 0.1 -2.3" fill="#7fc026" fill-rule="evenodd" stroke="none"/>
    <path d="M-5.35 -30.2 Q-8.1 -28.9 -9.8 -22.95 -10.6 -18.0 -6.8 -24.0 L-2.25 -31.3 Q-2.55 -31.6 -5.35 -30.2 M-1.25 -2.4 Q-6.0 -3.25 -9.2 -8.45 -12.8 -14.3 -12.95 -21.2 -12.75 -27.75 -8.9 -30.9 -5.1 -34.0 -0.15 -34.0 11.65 -34.15 12.95 -21.2 12.8 -14.3 9.05 -8.45 5.4 -2.75 0.1 -2.3 L-0.15 -2.3 -1.25 -2.4" fill="#abd41e" fill-rule="evenodd" stroke="none"/>
    <path d="M-5.35 -30.2 Q-2.55 -31.6 -2.25 -31.3 L-6.8 -24.0 Q-10.6 -18.0 -9.8 -22.95 -8.1 -28.9 -5.35 -30.2" fill="#c9e119" fill-rule="evenodd" stroke="none"/>
    <path d="M-1.35 -2.3 L0.45 -2.2" fill="none" stroke="#000000" stroke-linecap="round" stroke-linejoin="round" stroke-width="0.4"/>
  </g>
</svg>
