<?xml version="1.0" encoding="UTF-8" standalone="no"?>
<svg xmlns:xlink="http://www.w3.org/1999/xlink" height="34.1px" width="25.6px" xmlns="http://www.w3.org/2000/svg">
  <g transform="matrix(1.0, 0.0, 0.0, 1.0, 12.8, 34.1)">
    <path d="M-0.05 -2.4 L1.0 0.0 -0.6 -0.2 -2.05 -0.05 -1.3 -2.5 -0.3 -2.4 -0.05 -2.4" fill="#b53a7e" fill-rule="evenodd" stroke="none"/>
    <path d="M-5.45 -30.2 Q-8.2 -28.9 -9.9 -22.95 -10.7 -18.0 -6.9 -24.0 L-2.35 -31.3 Q-2.65 -31.6 -5.45 -30.2 M-1.3 -2.5 Q-6.05 -3.3 -9.2 -8.55 -12.65 -14.4 -12.8 -21.3 -11.85 -34.25 -0.3 -34.1 11.5 -34.25 12.8 -21.3 12.65 -14.4 8.95 -8.55 5.25 -2.9 -0.05 -2.4 L-0.3 -2.4 -1.3 -2.5" fill="#ec4ca4" fill-rule="evenodd" stroke="none"/>
    <path d="M-5.45 -30.2 Q-2.65 -31.6 -2.35 -31.3 L-6.9 -24.0 Q-10.7 -18.0 -9.9 -22.95 -8.2 -28.9 -5.45 -30.2" fill="#ef82bf" fill-rule="evenodd" stroke="none"/>
    <path d="M0.05 -2.25 L-1.45 -2.4" fill="none" stroke="#000000" stroke-linecap="round" stroke-linejoin="round" stroke-width="0.4"/>
  </g>
</svg>
