<?xml version="1.0" encoding="UTF-8" standalone="no"?>
<svg xmlns:xlink="http://www.w3.org/1999/xlink" height="112.1px" width="41.75px" xmlns="http://www.w3.org/2000/svg">
  <g transform="matrix(1.0, 0.0, 0.0, 1.0, 19.2, 51.7)">
    <path d="M18.3 -45.35 L22.55 54.25 15.4 56.0 10.1 -46.9 18.3 -45.35" fill="#9c5715" fill-rule="evenodd" stroke="none"/>
    <path d="M10.0 -46.95 L15.3 56.05 12.35 52.25 7.5 -45.45 10.0 -46.95" fill="#51330e" fill-rule="evenodd" stroke="none"/>
    <path d="M9.05 -46.65 L13.3 54.75 6.2 56.6 1.0 -48.25 9.05 -46.65" fill="#9c5715" fill-rule="evenodd" stroke="none"/>
    <path d="M0.95 -48.25 L6.25 56.65 3.3 52.75 -1.55 -46.7 0.95 -48.25" fill="#51330e" fill-rule="evenodd" stroke="none"/>
    <path d="M-0.9 -47.95 L5.8 56.7 -1.15 58.65 -8.85 -49.55 -0.9 -47.95" fill="#9c5715" fill-rule="evenodd" stroke="none"/>
    <path d="M-8.85 -49.6 L-1.1 58.6 -4.1 54.6 -11.25 -48.05 -8.85 -49.6" fill="#51330e" fill-rule="evenodd" stroke="none"/>
    <path d="M-9.0 -50.0 L-3.6 58.25 -10.45 60.3 -16.85 -51.7 -9.0 -50.0" fill="#9c5715" fill-rule="evenodd" stroke="none"/>
    <path d="M-16.8 -51.55 L-10.4 60.4 -13.3 56.3 -19.2 -49.9 -16.8 -51.55" fill="#51330e" fill-rule="evenodd" stroke="none"/>
  </g>
</svg>
