<?xml version="1.0" encoding="UTF-8" standalone="no"?>
<svg xmlns:xlink="http://www.w3.org/1999/xlink" height="30.05px" width="29.9px" xmlns="http://www.w3.org/2000/svg">
  <g transform="matrix(1.0, 0.0, 0.0, 1.0, 14.95, 15.05)">
    <path d="M14.45 -12.0 L13.2 -5.0 9.55 12.85 Q3.65 14.7 -0.75 14.5 -5.15 14.25 -7.55 13.3 L-10.05 12.25 -14.45 -12.0 -11.0 -13.25 Q-7.5 -14.4 0.65 -14.55 8.75 -14.4 11.7 -13.25 14.6 -12.15 14.45 -12.0" fill="url(#gradient0)" fill-rule="evenodd" stroke="none"/>
    <path d="M14.45 -12.0 Q14.6 -12.15 11.7 -13.25 8.75 -14.4 0.65 -14.55 -7.5 -14.4 -11.0 -13.25 L-14.45 -12.0 -10.05 12.25 -7.55 13.3 Q-5.15 14.25 -0.75 14.5 3.65 14.7 9.55 12.85 L13.2 -5.0 14.45 -12.0 Z" fill="none" stroke="#000000" stroke-linecap="round" stroke-linejoin="round" stroke-width="1.0"/>
    <path d="M5.95 5.55 Q8.1 4.65 10.15 2.4 12.2 0.15 13.45 -3.85 L12.65 1.05 Q11.3 3.65 8.4 5.55 5.5 7.5 0.6 7.9 -4.95 7.65 -7.7 4.9 -10.55 2.1 -11.45 -1.5 -12.4 -5.1 -12.4 -7.85 L-12.3 -10.7 -12.15 -11.1 Q-12.0 -11.45 -11.6 -11.45 L-10.85 -11.0 -10.9 -8.1 Q-10.85 -5.35 -9.85 -1.75 -8.85 1.8 -6.0 4.35 -3.15 6.9 2.4 6.6 3.85 6.5 5.95 5.55" fill="#000000" fill-rule="evenodd" stroke="none"/>
  </g>
  <defs>
    <linearGradient gradientTransform="matrix(0.0178, 0.0065, -0.0065, 0.0178, -1.8, -1.4)" gradientUnits="userSpaceOnUse" id="gradient0" spreadMethod="pad" x1="-819.2" x2="819.2">
      <stop offset="0.0" stop-color="#cccccc"/>
      <stop offset="1.0" stop-color="#424242"/>
    </linearGradient>
  </defs>
</svg>
