<?xml version="1.0" encoding="UTF-8" standalone="no"?>
<svg xmlns:xlink="http://www.w3.org/1999/xlink" height="22.15px" width="33.45px" xmlns="http://www.w3.org/2000/svg">
  <g transform="matrix(1.0, 0.0, 0.0, 1.0, 16.7, 11.05)">
    <path d="M-15.45 -3.9 Q-14.9 -4.5 -14.4 -5.1 L-14.2 -5.2 Q-13.75 -5.45 -13.05 -6.35 -12.8 -6.7 -12.05 -6.15 -12.45 -5.9 -12.85 -5.7 L-13.25 -5.4 -12.55 -5.35 -9.25 -5.15 -9.25 -5.15 -8.05 -8.35 -7.85 -8.85 -8.45 -8.45 -9.05 -8.15 Q-9.5 -8.7 -9.35 -8.75 L-9.95 -8.75 Q-10.45 -8.8 -10.95 -8.85 -12.15 -8.8 -13.3 -8.15 L-13.85 -7.75 Q-15.6 -6.25 -15.45 -3.9" fill="#ffffff" fill-opacity="0.3529412" fill-rule="evenodd" stroke="none">
      <animate attributeName="fill" dur="2s" repeatCount="indefinite" values="#ffffff;#ffffff"/>
      <animate attributeName="fill-opacity" dur="2s" repeatCount="indefinite" values="0.3529412;1.0"/>
      <animate attributeName="d" dur="2s" repeatCount="indefinite" values="M-15.45 -3.9 Q-14.9 -4.5 -14.4 -5.1 L-14.2 -5.2 Q-13.75 -5.45 -13.05 -6.35 -12.8 -6.7 -12.05 -6.15 -12.45 -5.9 -12.85 -5.7 L-13.25 -5.4 -12.55 -5.35 -9.25 -5.15 -9.25 -5.15 -8.05 -8.35 -7.85 -8.85 -8.45 -8.45 -9.05 -8.15 Q-9.5 -8.7 -9.35 -8.75 L-9.95 -8.75 Q-10.45 -8.8 -10.95 -8.85 -12.15 -8.8 -13.3 -8.15 L-13.85 -7.75 Q-15.6 -6.25 -15.45 -3.9;M-16.7 -2.85 Q-14.15 -4.3 -10.95 -4.35 L-10.1 -4.25 Q-7.2 -3.95 -5.0 -2.7 -3.0 -1.55 -1.55 0.4 -0.6 1.7 0.05 3.4 L-1.85 3.4 -4.65 3.5 6.0 10.9 6.3 11.1 16.75 3.15 14.85 3.15 12.1 3.2 11.7 0.6 Q11.25 -0.7 10.85 -1.95 L9.7 -4.05 Q8.7 -5.6 7.3 -6.9 3.95 -10.05 -0.6 -10.8 L-3.15 -11.05 Q-12.4 -10.6 -16.7 -2.85"/>
    </path>
    <path d="M-15.45 -3.9 Q-15.6 -6.25 -13.85 -7.75 L-13.3 -8.15 Q-12.15 -8.8 -10.95 -8.85 -10.45 -8.8 -9.95 -8.75 L-9.35 -8.75 Q-9.5 -8.7 -9.05 -8.15 L-8.45 -8.45 -7.85 -8.85 -8.05 -8.35 -9.25 -5.15 -9.25 -5.15 -12.55 -5.35 -13.25 -5.4 -12.85 -5.7 Q-12.45 -5.9 -12.05 -6.15 -12.8 -6.7 -13.05 -6.35 -13.75 -5.45 -14.2 -5.2 L-14.4 -5.1 Q-14.9 -4.5 -15.45 -3.9" fill="none" stroke="#000000" stroke-linecap="round" stroke-linejoin="round" stroke-opacity="0.0" stroke-width="1.0">
      <animate attributeName="stroke" dur="2s" repeatCount="indefinite" values="#000000;#000001"/>
      <animate attributeName="stroke-width" dur="2s" repeatCount="indefinite" values="0.0;0.0"/>
      <animate attributeName="fill-opacity" dur="2s" repeatCount="indefinite" values="0.0;0.0"/>
      <animate attributeName="d" dur="2s" repeatCount="indefinite" values="M-15.45 -3.9 Q-15.6 -6.25 -13.85 -7.75 L-13.3 -8.15 Q-12.15 -8.8 -10.95 -8.85 -10.45 -8.8 -9.95 -8.75 L-9.35 -8.75 Q-9.5 -8.7 -9.05 -8.15 L-8.45 -8.45 -7.85 -8.85 -8.05 -8.35 -9.25 -5.15 -9.25 -5.15 -12.55 -5.35 -13.25 -5.4 -12.85 -5.7 Q-12.45 -5.9 -12.05 -6.15 -12.8 -6.7 -13.05 -6.35 -13.75 -5.45 -14.2 -5.2 L-14.4 -5.1 Q-14.9 -4.5 -15.45 -3.9;M-16.7 -2.85 Q-12.4 -10.6 -3.15 -11.05 L-0.6 -10.8 Q3.95 -10.05 7.3 -6.9 8.7 -5.6 9.7 -4.05 L10.85 -1.95 Q11.25 -0.7 11.7 0.6 L12.1 3.2 14.85 3.15 16.75 3.15 6.3 11.1 6.0 10.9 -4.65 3.5 -1.85 3.4 0.05 3.4 Q-0.6 1.7 -1.55 0.4 -3.0 -1.55 -5.0 -2.7 -7.2 -3.95 -10.1 -4.25 L-10.95 -4.35 Q-14.15 -4.3 -16.7 -2.85"/>
    </path>
  </g>
</svg>
