<?xml version="1.0" encoding="UTF-8" standalone="no"?>
<svg xmlns:xlink="http://www.w3.org/1999/xlink" height="33.15px" width="33.7px" xmlns="http://www.w3.org/2000/svg">
  <g transform="matrix(1.0, 0.0, 0.0, 1.0, 16.7, 11.05)">
    <path d="M-16.7 -2.85 Q-14.15 -4.3 -10.95 -4.35 -7.55 -4.15 -4.05 3.35 -2.15 7.4 0.3 14.4 L-4.4 14.5 6.55 22.1 17.0 14.15 12.35 14.2 Q12.75 5.3 10.8 0.0 L9.85 -2.35 Q8.25 -5.8 6.0 -8.0 3.05 -10.9 -3.15 -11.05 -12.4 -10.6 -16.7 -2.85" fill="#ffffff" fill-rule="evenodd" stroke="none">
      <animate attributeName="fill" dur="2s" repeatCount="indefinite" values="#ffffff;#ffffff"/>
      <animate attributeName="fill-opacity" dur="2s" repeatCount="indefinite" values="1.0;1.0"/>
      <animate attributeName="d" dur="2s" repeatCount="indefinite" values="M-16.7 -2.85 Q-14.15 -4.3 -10.95 -4.35 -7.55 -4.15 -4.05 3.35 -2.15 7.4 0.3 14.4 L-4.4 14.5 6.55 22.1 17.0 14.15 12.35 14.2 Q12.75 5.3 10.8 0.0 L9.85 -2.35 Q8.25 -5.8 6.0 -8.0 3.05 -10.9 -3.15 -11.05 -12.4 -10.6 -16.7 -2.85;M-16.7 -2.85 Q-14.15 -4.3 -10.95 -4.35 -7.1 -4.1 -4.4 -2.35 -1.45 -0.4 0.05 3.4 L-4.65 3.5 6.3 11.1 16.75 3.15 12.1 3.2 Q11.65 -1.95 8.55 -5.6 L7.3 -6.9 Q5.55 -8.55 3.45 -9.55 0.5 -10.95 -3.15 -11.05 -12.4 -10.6 -16.7 -2.85"/>
    </path>
    <path d="M-16.7 -2.85 Q-12.4 -10.6 -3.15 -11.05 3.05 -10.9 6.0 -8.0 8.25 -5.8 9.85 -2.35 L10.8 0.0 Q12.75 5.3 12.35 14.2 L17.0 14.15 6.55 22.1 -4.4 14.5 0.3 14.4 Q-2.15 7.4 -4.05 3.35 -7.55 -4.15 -10.95 -4.35 -14.15 -4.3 -16.7 -2.85" fill="none" stroke="#000000" stroke-linecap="round" stroke-linejoin="round" stroke-opacity="0.0" stroke-width="1.0">
      <animate attributeName="stroke" dur="2s" repeatCount="indefinite" values="#000000;#000001"/>
      <animate attributeName="stroke-width" dur="2s" repeatCount="indefinite" values="0.0;0.0"/>
      <animate attributeName="fill-opacity" dur="2s" repeatCount="indefinite" values="0.0;0.0"/>
      <animate attributeName="d" dur="2s" repeatCount="indefinite" values="M-16.7 -2.85 Q-12.4 -10.6 -3.15 -11.05 3.05 -10.9 6.0 -8.0 8.25 -5.8 9.85 -2.35 L10.8 0.0 Q12.75 5.3 12.35 14.2 L17.0 14.15 6.55 22.1 -4.4 14.5 0.3 14.4 Q-2.15 7.4 -4.05 3.35 -7.55 -4.15 -10.95 -4.35 -14.15 -4.3 -16.7 -2.85;M-16.7 -2.85 Q-12.4 -10.6 -3.15 -11.05 0.5 -10.95 3.45 -9.55 5.55 -8.55 7.3 -6.9 L8.55 -5.6 Q11.65 -1.95 12.1 3.2 L16.75 3.15 6.3 11.1 -4.65 3.5 0.05 3.4 Q-1.45 -0.4 -4.4 -2.35 -7.1 -4.1 -10.95 -4.35 -14.15 -4.3 -16.7 -2.85"/>
    </path>
  </g>
</svg>
