<?xml version="1.0" encoding="UTF-8" standalone="no"?>
<svg xmlns:xlink="http://www.w3.org/1999/xlink" height="113.45px" width="159.1px" xmlns="http://www.w3.org/2000/svg">
  <g transform="matrix(1.0, 0.0, 0.0, 1.0, 44.2, 10.6)">
    <path d="M-44.2 102.85 L-40.75 100.6 112.2 96.05 106.8 60.15 106.85 60.1 108.75 56.95 114.9 97.35 -44.2 102.85" fill="#cdc5cd" fill-rule="evenodd" stroke="none">
      <animate attributeName="fill" dur="2s" repeatCount="indefinite" values="#cdc5cd;#cdc5ce"/>
      <animate attributeName="fill-opacity" dur="2s" repeatCount="indefinite" values="1.0;1.0"/>
      <animate attributeName="d" dur="2s" repeatCount="indefinite" values="M-44.2 102.85 L-40.75 100.6 112.2 96.05 106.8 60.15 106.85 60.1 108.75 56.95 114.9 97.35 -44.2 102.85;M-44.2 102.85 L-40.75 100.6 112.2 96.05 106.8 -5.8 106.85 -5.85 108.75 -9.0 114.9 97.35 -44.2 102.85"/>
    </path>
    <path d="M-44.2 102.85 L-40.75 100.6 -38.55 62.3 106.85 60.1 108.75 56.8 -41.15 58.65 -44.2 102.85" fill="#8d8d8d" fill-rule="evenodd" stroke="none">
      <animate attributeName="fill" dur="2s" repeatCount="indefinite" values="#8d8d8d;#8d8d8e"/>
      <animate attributeName="fill-opacity" dur="2s" repeatCount="indefinite" values="1.0;1.0"/>
      <animate attributeName="d" dur="2s" repeatCount="indefinite" values="M-44.2 102.85 L-40.75 100.6 -38.55 62.3 106.85 60.1 108.75 56.8 -41.15 58.65 -44.2 102.85;M-44.2 102.85 L-40.75 100.6 -38.55 -6.95 106.85 -5.85 108.75 -9.15 -41.15 -10.6 -44.2 102.85"/>
    </path>
    <path d="M-44.2 102.85 L114.9 97.35 108.75 56.95 106.85 60.1 106.8 60.15 112.2 96.05 -40.75 100.6 -44.2 102.85 -41.15 58.65 108.75 56.8 106.85 60.1 -38.55 62.3 -40.75 100.6 -44.2 102.85" fill="none" stroke="#000000" stroke-linecap="round" stroke-linejoin="round" stroke-opacity="0.0" stroke-width="1.0">
      <animate attributeName="stroke" dur="2s" repeatCount="indefinite" values="#000000;#000001"/>
      <animate attributeName="stroke-width" dur="2s" repeatCount="indefinite" values="0.0;0.0"/>
      <animate attributeName="fill-opacity" dur="2s" repeatCount="indefinite" values="0.0;0.0"/>
      <animate attributeName="d" dur="2s" repeatCount="indefinite" values="M-44.2 102.85 L114.9 97.35 108.75 56.95 106.85 60.1 106.8 60.15 112.2 96.05 -40.75 100.6 -44.2 102.85 -41.15 58.65 108.75 56.8 106.85 60.1 -38.55 62.3 -40.75 100.6 -44.2 102.85;M-44.2 102.85 L114.9 97.35 108.75 -9.0 106.85 -5.85 106.8 -5.8 112.2 96.05 -40.75 100.6 -44.2 102.85 -41.15 -10.6 108.75 -9.15 106.85 -5.85 -38.55 -6.95 -40.75 100.6 -44.2 102.85"/>
    </path>
  </g>
</svg>
