<?xml version="1.0" encoding="UTF-8" standalone="no"?>
<svg xmlns:xlink="http://www.w3.org/1999/xlink" height="31.95px" width="16.05px" xmlns="http://www.w3.org/2000/svg">
  <g transform="matrix(1.0, 0.0, 0.0, 1.0, -58.7, 55.9)">
    <path d="M58.7 -55.9 L59.5 -23.95 60.9 -25.4 60.85 -31.0 60.25 -53.95 60.25 -54.2 74.0 -38.25 74.75 -39.9 58.7 -55.9" fill="#8d8d8d" fill-rule="evenodd" stroke="none">
      <animate attributeName="fill" dur="2s" repeatCount="indefinite" values="#8d8d8d;#8d8d8e"/>
      <animate attributeName="fill-opacity" dur="2s" repeatCount="indefinite" values="1.0;1.0"/>
      <animate attributeName="d" dur="2s" repeatCount="indefinite" values="M58.7 -55.9 L59.5 -23.95 60.9 -25.4 60.85 -31.0 60.25 -53.95 60.25 -54.2 74.0 -38.25 74.75 -39.9 58.7 -55.9;M58.7 -55.9 L59.5 -23.95 60.9 -25.4 60.85 -31.0 60.25 -53.95 60.25 -54.2 74.0 -54.25 74.75 -55.9 58.7 -55.9"/>
    </path>
    <path d="M60.25 -53.95 L60.85 -31.0 61.0 -25.75 73.8 -37.95 60.25 -53.95" fill="#c00000" fill-rule="evenodd" stroke="none">
      <animate attributeName="fill" dur="2s" repeatCount="indefinite" values="#c00000;#c00001"/>
      <animate attributeName="fill-opacity" dur="2s" repeatCount="indefinite" values="1.0;1.0"/>
      <animate attributeName="d" dur="2s" repeatCount="indefinite" values="M60.25 -53.95 L60.85 -31.0 61.0 -25.75 73.8 -37.95 60.25 -53.95;M60.25 -53.95 L60.85 -31.0 61.0 -25.75 73.8 -53.95 60.25 -53.95"/>
    </path>
    <path d="M61.0 -25.75 L74.75 -25.75 73.8 -37.95 61.0 -25.75" fill="#ff0000" fill-rule="evenodd" stroke="none">
      <animate attributeName="fill" dur="2s" repeatCount="indefinite" values="#ff0000;#ff0001"/>
      <animate attributeName="fill-opacity" dur="2s" repeatCount="indefinite" values="1.0;1.0"/>
      <animate attributeName="d" dur="2s" repeatCount="indefinite" values="M61.0 -25.75 L74.75 -25.75 73.8 -37.95 61.0 -25.75;M61.0 -25.75 L74.75 -25.75 73.8 -53.95 61.0 -25.75"/>
    </path>
    <path d="M58.7 -55.9 L74.75 -39.9 74.0 -38.25 60.25 -54.2 60.25 -53.95 60.85 -31.0 60.9 -25.4 59.5 -23.95 58.7 -55.9 M60.25 -53.95 L73.8 -37.95 61.0 -25.75 60.85 -31.0 60.25 -53.95 M61.0 -25.75 L73.8 -37.95 74.75 -25.75 61.0 -25.75" fill="none" stroke="#000000" stroke-linecap="round" stroke-linejoin="round" stroke-opacity="0.0" stroke-width="1.0">
      <animate attributeName="stroke" dur="2s" repeatCount="indefinite" values="#000000;#000001"/>
      <animate attributeName="stroke-width" dur="2s" repeatCount="indefinite" values="0.0;0.0"/>
      <animate attributeName="fill-opacity" dur="2s" repeatCount="indefinite" values="0.0;0.0"/>
      <animate attributeName="d" dur="2s" repeatCount="indefinite" values="M58.7 -55.9 L74.75 -39.9 74.0 -38.25 60.25 -54.2 60.25 -53.95 60.85 -31.0 60.9 -25.4 59.5 -23.95 58.7 -55.9 M60.25 -53.95 L73.8 -37.95 61.0 -25.75 60.85 -31.0 60.25 -53.95 M61.0 -25.75 L73.8 -37.95 74.75 -25.75 61.0 -25.75;M58.7 -55.9 L74.75 -55.9 74.0 -54.25 60.25 -54.2 60.25 -53.95 60.85 -31.0 60.9 -25.4 59.5 -23.95 58.7 -55.9 M60.25 -53.95 L73.8 -53.95 61.0 -25.75 60.85 -31.0 60.25 -53.95 M61.0 -25.75 L73.8 -53.95 74.75 -25.75 61.0 -25.75"/>
    </path>
  </g>
</svg>
