<?xml version="1.0" encoding="UTF-8" standalone="no"?>
<svg xmlns:xlink="http://www.w3.org/1999/xlink" height="32.0px" width="16.15px" xmlns="http://www.w3.org/2000/svg">
  <g transform="matrix(1.0, 0.0, 0.0, 1.0, 3.15, 55.7)">
    <path d="M-3.15 -23.7 L-1.7 -25.2 -1.6 -31.0 -1.55 -42.0 12.2 -54.05 13.0 -55.7 -3.05 -43.7 -3.15 -23.7" fill="#8d8d8d" fill-rule="evenodd" stroke="none">
      <animate attributeName="fill" dur="2s" repeatCount="indefinite" values="#8d8d8d;#8d8d8e"/>
      <animate attributeName="fill-opacity" dur="2s" repeatCount="indefinite" values="1.0;1.0"/>
      <animate attributeName="d" dur="2s" repeatCount="indefinite" values="M-3.15 -23.7 L-1.7 -25.2 -1.6 -31.0 -1.55 -42.0 12.2 -54.05 13.0 -55.7 -3.05 -43.7 -3.15 -23.7;M-3.15 -23.7 L-1.7 -25.2 -1.6 -31.0 -1.55 -54.0 12.2 -54.05 13.0 -55.7 -3.05 -55.7 -3.15 -23.7"/>
    </path>
    <path d="M-1.6 -31.0 L-1.6 -25.75 12.2 -54.05 -1.55 -42.0 -1.6 -31.0" fill="#c00000" fill-rule="evenodd" stroke="none">
      <animate attributeName="fill" dur="2s" repeatCount="indefinite" values="#c00000;#c00001"/>
      <animate attributeName="fill-opacity" dur="2s" repeatCount="indefinite" values="1.0;1.0"/>
      <animate attributeName="d" dur="2s" repeatCount="indefinite" values="M-1.6 -31.0 L-1.6 -25.75 12.2 -54.05 -1.55 -42.0 -1.6 -31.0;M-1.6 -31.0 L-1.6 -25.75 12.2 -54.05 -1.55 -54.0 -1.6 -31.0"/>
    </path>
    <path d="M-1.6 -25.75 L12.15 -25.75 12.2 -54.05 -1.6 -25.75" fill="#ff0000" fill-rule="evenodd" stroke="none">
      <animate attributeName="fill" dur="2s" repeatCount="indefinite" values="#ff0000;#ff0001"/>
      <animate attributeName="fill-opacity" dur="2s" repeatCount="indefinite" values="1.0;1.0"/>
      <animate attributeName="d" dur="2s" repeatCount="indefinite" values="M-1.6 -25.75 L12.15 -25.75 12.2 -54.05 -1.6 -25.75;M-1.6 -25.75 L12.15 -25.75 12.2 -54.05 -1.6 -25.75"/>
    </path>
    <path d="M-3.15 -23.7 L-3.05 -43.7 13.0 -55.7 12.2 -54.05 -1.55 -42.0 -1.6 -31.0 -1.7 -25.2 -3.15 -23.7 M-1.6 -31.0 L-1.55 -42.0 12.2 -54.05 -1.6 -25.75 -1.6 -31.0 M-1.6 -25.75 L12.2 -54.05 12.15 -25.75 -1.6 -25.75" fill="none" stroke="#000000" stroke-linecap="round" stroke-linejoin="round" stroke-opacity="0.0" stroke-width="1.0">
      <animate attributeName="stroke" dur="2s" repeatCount="indefinite" values="#000000;#000001"/>
      <animate attributeName="stroke-width" dur="2s" repeatCount="indefinite" values="0.0;0.0"/>
      <animate attributeName="fill-opacity" dur="2s" repeatCount="indefinite" values="0.0;0.0"/>
      <animate attributeName="d" dur="2s" repeatCount="indefinite" values="M-3.15 -23.7 L-3.05 -43.7 13.0 -55.7 12.2 -54.05 -1.55 -42.0 -1.6 -31.0 -1.7 -25.2 -3.15 -23.7 M-1.6 -31.0 L-1.55 -42.0 12.2 -54.05 -1.6 -25.75 -1.6 -31.0 M-1.6 -25.75 L12.2 -54.05 12.15 -25.75 -1.6 -25.75;M-3.15 -23.7 L-3.05 -55.7 13.0 -55.7 12.2 -54.05 -1.55 -54.0 -1.6 -31.0 -1.7 -25.2 -3.15 -23.7 M-1.6 -31.0 L-1.55 -54.0 12.2 -54.05 -1.6 -25.75 -1.6 -31.0 M-1.6 -25.75 L12.2 -54.05 12.15 -25.75 -1.6 -25.75"/>
    </path>
  </g>
</svg>
