<?xml version="1.0" encoding="UTF-8" standalone="no"?>
<svg xmlns:xlink="http://www.w3.org/1999/xlink" height="33.05px" width="32.2px" xmlns="http://www.w3.org/2000/svg">
  <g transform="matrix(1.0, 0.0, 0.0, 1.0, -8.15, -5.3)">
    <path d="M23.95 13.6 L20.0 17.45 Q19.95 16.85 20.25 12.2 20.55 7.55 21.6 5.8 L23.95 13.6" fill="#f3e016" fill-rule="evenodd" stroke="none"/>
    <path d="M20.0 17.45 Q19.95 16.85 20.25 12.2 20.55 7.55 21.6 5.8 L23.95 13.6" fill="none" stroke="#000000" stroke-linecap="round" stroke-linejoin="round" stroke-width="1.0"/>
    <path d="M25.05 16.9 L20.9 17.0 Q20.95 16.5 22.85 12.65 24.75 8.75 27.8 7.5 24.95 16.25 25.05 16.9" fill="#f3e016" fill-rule="evenodd" stroke="none"/>
    <path d="M20.9 17.0 Q20.95 16.5 22.85 12.65 24.75 8.75 27.8 7.5 24.95 16.25 25.05 16.9" fill="none" stroke="#000000" stroke-linecap="round" stroke-linejoin="round" stroke-width="1.0"/>
    <path d="M13.0 32.4 L11.0 30.85 Q9.25 29.4 8.65 27.55 8.6 25.75 10.95 24.65 L13.65 23.55 Q13.3 23.0 14.65 18.85 15.95 14.7 22.95 13.7 27.8 13.6 30.3 16.2 32.85 18.85 33.75 21.6 L34.6 24.55 36.8 25.15 Q38.75 25.85 39.75 27.85 40.25 30.0 38.55 31.4 L36.6 32.9 13.0 32.4" fill="#4c8335" fill-rule="evenodd" stroke="none"/>
    <path d="M13.0 32.4 L11.0 30.85 Q9.25 29.4 8.65 27.55 8.6 25.75 10.95 24.65 L13.65 23.55 Q13.3 23.0 14.65 18.85 15.95 14.7 22.95 13.7 27.8 13.6 30.3 16.2 32.85 18.85 33.75 21.6 L34.6 24.55 36.8 25.15 Q38.75 25.85 39.75 27.85 40.25 30.0 38.55 31.4 L36.6 32.9" fill="none" stroke="#000000" stroke-linecap="round" stroke-linejoin="round" stroke-width="1.0"/>
    <path d="M11.45 28.95 L37.0 29.75 Q36.5 33.2 37.25 34.9 L38.2 36.6 30.85 37.1 17.6 37.75 11.7 37.5 Q13.05 36.25 12.35 32.85 L11.45 28.95" fill="#4c8335" fill-rule="evenodd" stroke="none"/>
    <path d="M11.45 28.95 L12.35 32.85 Q13.05 36.25 11.7 37.5 L17.6 37.75 30.85 37.1 38.2 36.6 37.25 34.9 Q36.5 33.2 37.0 29.75" fill="none" stroke="#000000" stroke-linecap="round" stroke-linejoin="round" stroke-width="1.0"/>
  </g>
</svg>
