<?xml version="1.0" encoding="UTF-8" standalone="no"?>
<svg xmlns:xlink="http://www.w3.org/1999/xlink" height="48.7px" width="90.95px" xmlns="http://www.w3.org/2000/svg">
  <g transform="matrix(1.0, 0.0, 0.0, 1.0, 45.45, 87.55)">
    <path d="M-33.95 -39.35 Q-34.5 -39.6 -38.85 -45.25 -43.15 -50.9 -44.95 -59.35 -45.0 -65.05 -35.4 -71.45 -25.8 -77.8 -15.95 -82.3 L-5.3 -87.05 -33.95 -39.35" fill="#ffffff" fill-rule="evenodd" stroke="none"/>
    <path d="M-33.95 -39.35 Q-34.5 -39.6 -38.85 -45.25 -43.15 -50.9 -44.95 -59.35 -45.0 -65.05 -35.4 -71.45 -25.8 -77.8 -15.95 -82.3 L-5.3 -87.05" fill="none" stroke="#000000" stroke-linecap="round" stroke-linejoin="round" stroke-width="1.0"/>
    <path d="M5.35 -87.05 L16.0 -82.3 Q25.85 -77.8 35.45 -71.45 45.05 -65.05 45.0 -59.35 43.2 -50.9 38.9 -45.25 34.55 -39.6 34.0 -39.35 L5.35 -87.05" fill="#ffffff" fill-rule="evenodd" stroke="none"/>
    <path d="M34.0 -39.35 Q34.55 -39.6 38.9 -45.25 43.2 -50.9 45.0 -59.35 45.05 -65.05 35.45 -71.45 25.85 -77.8 16.0 -82.3 L5.35 -87.05" fill="none" stroke="#000000" stroke-linecap="round" stroke-linejoin="round" stroke-width="1.0"/>
  </g>
</svg>
