<?xml version="1.0" encoding="UTF-8" standalone="no"?>
<svg xmlns:xlink="http://www.w3.org/1999/xlink" height="11.65px" width="42.8px" xmlns="http://www.w3.org/2000/svg">
  <g transform="matrix(1.0, 0.0, 0.0, 1.0, 0.5, 0.5)">
    <path d="M5.75 0.2 L15.25 4.35 Q2.0 11.85 0.5 10.4 -1.0 8.95 2.05 4.8 L5.75 0.2" fill="#ffffff" fill-rule="evenodd" stroke="none"/>
    <path d="M5.75 0.2 L2.05 4.8 Q-1.0 8.95 0.5 10.4 2.0 11.85 15.25 4.35" fill="none" stroke="#000000" stroke-linecap="round" stroke-linejoin="round" stroke-width="1.0"/>
    <path d="M15.6 4.15 L22.9 4.65 Q20.65 9.85 19.0 9.45 17.4 9.0 16.5 6.75 L15.6 4.15" fill="#ffffff" fill-rule="evenodd" stroke="none"/>
    <path d="M15.6 4.15 L16.5 6.75 Q17.4 9.0 19.0 9.45 20.65 9.85 22.9 4.65" fill="none" stroke="#000000" stroke-linecap="round" stroke-linejoin="round" stroke-width="1.0"/>
    <path d="M24.6 4.0 L36.6 0.0 Q37.5 0.5 40.25 4.65 43.0 8.75 40.8 10.15 38.6 11.55 24.6 4.0" fill="#ffffff" fill-rule="evenodd" stroke="none"/>
    <path d="M36.6 0.0 Q37.5 0.5 40.25 4.65 43.0 8.75 40.8 10.15 38.6 11.55 24.6 4.0" fill="none" stroke="#000000" stroke-linecap="round" stroke-linejoin="round" stroke-width="1.0"/>
  </g>
</svg>
