<?xml version="1.0" encoding="UTF-8" standalone="no"?>
<svg xmlns:xlink="http://www.w3.org/1999/xlink" height="27.65px" width="28.6px" xmlns="http://www.w3.org/2000/svg">
  <g transform="matrix(1.0, 0.0, 0.0, 1.0, 0.5, 0.5)">
    <path d="M21.0 0.0 L24.8 1.0 27.3 17.5 27.55 21.1 Q27.7 24.4 27.15 26.5 25.1 24.6 21.65 24.4 18.2 24.2 16.65 24.35 15.25 24.5 13.45 25.5 L11.5 26.65 Q11.55 26.05 13.15 23.65 11.55 22.75 6.15 22.65 L0.0 22.65 5.35 21.2 16.15 18.65 Q21.9 17.45 24.5 17.65 24.5 14.5 22.85 7.65 L21.0 0.0" fill="#fa420f" fill-rule="evenodd" stroke="none"/>
    <path d="M21.0 0.0 L22.85 7.65 Q24.5 14.5 24.5 17.65 21.9 17.45 16.15 18.65 L5.35 21.2 0.0 22.65 6.15 22.65 Q11.55 22.75 13.15 23.65 11.55 26.05 11.5 26.65 L13.45 25.5 Q15.25 24.5 16.65 24.35 18.2 24.2 21.65 24.4 25.1 24.6 27.15 26.5 27.7 24.4 27.55 21.1 L27.3 17.5 24.8 1.0 21.0 0.0 Z" fill="none" stroke="#000000" stroke-linecap="round" stroke-linejoin="round" stroke-width="1.0"/>
  </g>
</svg>
