<?xml version="1.0" encoding="UTF-8" standalone="no"?>
<svg xmlns:xlink="http://www.w3.org/1999/xlink" height="27.65px" width="28.65px" xmlns="http://www.w3.org/2000/svg">
  <g transform="matrix(1.0, 0.0, 0.0, 1.0, 0.5, 0.5)">
    <path d="M27.65 22.65 L21.5 22.65 Q16.05 22.75 14.45 23.65 16.05 26.05 16.15 26.65 L14.2 25.5 Q12.4 24.5 10.95 24.35 9.45 24.2 5.95 24.4 2.5 24.6 0.45 26.5 -0.1 24.4 0.05 21.1 L0.3 17.5 2.8 1.0 6.65 0.0 4.75 7.65 Q3.15 14.5 3.15 17.65 L11.5 18.65 22.3 21.2 27.65 22.65" fill="#fa420f" fill-rule="evenodd" stroke="none"/>
    <path d="M27.65 22.65 L21.5 22.65 Q16.05 22.75 14.45 23.65 16.05 26.05 16.15 26.65 L14.2 25.5 Q12.4 24.5 10.95 24.35 9.45 24.2 5.95 24.4 2.5 24.6 0.45 26.5 -0.1 24.4 0.05 21.1 L0.3 17.5 2.8 1.0 6.65 0.0 4.75 7.65 Q3.15 14.5 3.15 17.65 L11.5 18.65 22.3 21.2 27.65 22.65 Z" fill="none" stroke="#000000" stroke-linecap="round" stroke-linejoin="round" stroke-width="1.0"/>
  </g>
</svg>
