<?xml version="1.0" encoding="UTF-8" standalone="no"?>
<svg xmlns:xlink="http://www.w3.org/1999/xlink" height="20.3px" width="46.35px" xmlns="http://www.w3.org/2000/svg">
  <g transform="matrix(1.0, 0.0, 0.0, 1.0, 24.1, 36.55)">
    <path d="M19.65 -32.15 L19.5 -32.5 Q19.0 -34.8 12.65 -35.1 5.7 -35.85 3.05 -32.55 L3.0 -32.55 2.6 -31.95 2.55 -31.8 2.2 -29.9 2.2 -29.85 2.25 -27.35 2.45 -24.85 2.45 -24.8 2.95 -22.3 2.95 -22.25 3.6 -20.45 3.65 -20.35 4.15 -19.65 4.2 -19.65 Q5.75 -17.7 8.4 -17.8 14.3 -18.0 16.45 -19.55 16.9 -19.7 18.0 -20.7 L18.05 -20.75 18.9 -22.2 18.9 -22.25 19.45 -23.7 19.5 -23.8 20.0 -27.3 20.0 -27.35 20.05 -29.85 19.7 -32.1 19.65 -32.15 M19.05 -31.9 L19.4 -29.9 19.35 -27.4 18.8 -23.85 18.3 -22.5 17.5 -21.15 16.4 -20.15 16.25 -20.2 16.1 -20.1 Q14.1 -18.65 8.4 -18.45 6.05 -18.35 4.7 -20.05 L4.2 -20.7 3.55 -22.45 3.1 -24.9 3.15 -24.9 2.9 -27.4 2.85 -29.85 3.2 -31.6 3.55 -32.2 Q6.1 -35.15 12.55 -34.4 L12.6 -34.4 Q18.35 -34.15 18.85 -32.3 L18.9 -32.2 19.05 -31.9 M21.15 -30.45 L21.2 -28.95 20.8 -25.4 Q20.5 -23.35 19.7 -21.75 L19.7 -21.8 18.8 -20.45 17.25 -19.05 17.0 -19.05 15.75 -18.4 13.5 -17.65 10.9 -17.15 Q6.4 -16.75 5.15 -17.6 L5.05 -17.65 Q4.0 -18.05 2.65 -20.0 L1.95 -21.45 1.1 -25.6 0.85 -29.85 1.1 -31.4 1.1 -31.45 1.1 -31.5 1.1 -31.55 1.4 -32.65 2.25 -33.95 3.5 -34.8 Q6.95 -36.6 16.55 -35.4 20.95 -34.95 21.15 -30.5 L21.15 -30.45 M0.25 -30.35 L-1.1 -30.95 Q-1.4 -31.15 -2.7 -30.2 L-2.75 -30.35 -2.7 -30.75 -1.1 -31.1 0.4 -31.15 0.25 -30.35 M-5.55 -34.6 L-4.55 -33.95 -3.85 -32.8 -3.6 -32.25 -3.35 -31.0 -3.4 -30.4 -3.4 -30.3 -3.3 -29.8 -3.2 -29.65 -3.15 -29.55 -3.2 -27.4 -3.45 -24.9 -4.1 -21.6 -4.8 -20.0 Q-5.75 -18.35 -7.1 -17.65 L-7.15 -17.65 Q-8.8 -16.65 -12.4 -17.0 L-13.8 -17.15 -15.9 -17.65 -17.85 -18.35 -18.05 -18.4 Q-22.75 -19.9 -23.05 -28.7 L-23.05 -28.8 -23.05 -29.85 -23.05 -29.9 -23.1 -30.2 -23.1 -30.25 Q-22.75 -34.85 -18.45 -35.25 L-18.4 -35.25 Q-9.4 -36.55 -5.6 -34.6 L-5.55 -34.6 M-5.8 -33.35 L-7.25 -34.2 -7.35 -34.25 -9.35 -34.8 -9.4 -34.8 -13.15 -34.95 Q-19.05 -35.25 -21.2 -32.55 L-21.25 -32.55 -21.65 -31.95 -21.65 -31.9 -22.0 -29.75 -21.95 -27.35 -21.95 -27.3 -21.4 -23.6 -21.4 -23.5 -20.95 -22.25 -20.9 -22.2 -19.95 -20.6 -19.9 -20.5 -18.75 -19.6 -18.7 -19.6 Q-17.25 -18.65 -15.55 -18.25 L-12.1 -17.75 -12.05 -17.7 Q-7.3 -17.5 -6.3 -19.7 L-5.75 -20.4 -5.7 -20.5 -5.15 -22.25 -5.15 -22.3 -4.7 -24.8 -4.7 -24.85 -4.45 -27.35 -4.45 -29.85 -4.5 -29.9 -4.85 -31.75 -4.9 -31.9 -5.7 -33.25 -5.8 -33.35 M-5.5 -31.55 L-5.15 -29.85 -5.15 -27.4 -5.35 -24.9 -5.75 -22.45 -6.35 -20.75 -6.85 -20.05 -6.85 -20.0 Q-7.8 -18.15 -12.05 -18.35 L-15.45 -18.9 Q-17.0 -19.25 -18.35 -20.15 L-18.35 -20.1 -19.45 -21.0 -20.3 -22.45 -20.3 -22.5 -20.75 -23.65 -21.3 -27.4 -21.35 -29.85 -21.4 -30.0 -21.05 -31.65 -20.7 -32.15 Q-18.65 -34.6 -13.15 -34.3 L-9.45 -34.1 -7.55 -33.65 -6.25 -32.8 -5.5 -31.55" fill="#43396f" fill-rule="evenodd" stroke="none"/>
    <path d="M19.05 -31.9 L18.9 -32.2 18.85 -32.3 Q18.35 -34.15 12.6 -34.4 L12.55 -34.4 Q6.1 -35.15 3.55 -32.2 L3.2 -31.6 2.85 -29.85 2.9 -27.4 3.15 -24.9 3.1 -24.9 3.55 -22.45 4.2 -20.7 4.7 -20.05 Q6.05 -18.35 8.4 -18.45 14.1 -18.65 16.1 -20.1 L16.25 -20.2 16.4 -20.15 17.5 -21.15 18.3 -22.5 18.8 -23.85 19.35 -27.4 19.4 -29.9 19.05 -31.9 M19.65 -32.15 L19.7 -32.1 20.05 -29.85 20.0 -27.35 20.0 -27.3 19.5 -23.8 19.45 -23.7 18.9 -22.25 18.9 -22.2 18.05 -20.75 18.0 -20.7 Q16.9 -19.7 16.45 -19.55 14.3 -18.0 8.4 -17.8 5.75 -17.7 4.2 -19.65 L4.15 -19.65 3.65 -20.35 3.6 -20.45 2.95 -22.25 2.95 -22.3 2.45 -24.8 2.45 -24.85 2.25 -27.35 2.2 -29.85 2.2 -29.9 2.55 -31.8 2.6 -31.95 3.0 -32.55 3.05 -32.55 Q5.7 -35.85 12.65 -35.1 19.0 -34.8 19.5 -32.5 L19.65 -32.15 M21.8 -30.65 L22.25 -29.75 Q22.3 -29.3 21.8 -28.8 L21.45 -25.35 21.45 -25.3 Q21.15 -23.15 20.3 -21.45 L20.25 -21.4 19.35 -20.05 19.3 -20.0 17.3 -18.45 16.05 -17.8 16.0 -17.75 13.7 -17.05 13.65 -17.05 11.0 -16.55 11.0 -16.5 Q6.2 -16.05 4.8 -17.05 3.55 -17.45 2.05 -19.65 L2.05 -19.7 1.35 -21.2 1.3 -21.3 0.45 -25.55 0.2 -29.65 -1.3 -30.3 -2.4 -29.6 -2.5 -29.55 -2.55 -27.35 -2.8 -24.85 -2.8 -24.8 -3.5 -21.4 -3.5 -21.35 -4.2 -19.75 -4.2 -19.7 Q-5.25 -17.85 -6.8 -17.05 -8.55 -15.95 -12.5 -16.35 L-13.9 -16.5 -13.9 -16.55 -16.1 -17.05 -18.1 -17.75 -18.15 -17.75 Q-23.35 -19.25 -23.7 -28.65 -24.1 -29.15 -24.1 -29.6 L-23.75 -30.35 Q-23.3 -35.45 -18.5 -35.95 -9.2 -37.25 -5.25 -35.15 L-4.15 -34.5 -4.05 -34.4 -3.25 -33.1 -3.2 -33.05 -3.0 -32.5 -2.95 -32.45 -2.75 -31.4 -1.25 -31.75 -1.2 -31.75 0.5 -31.85 0.65 -32.45 0.65 -32.5 0.8 -32.85 0.8 -32.95 1.75 -34.4 1.85 -34.5 3.15 -35.35 Q6.75 -37.3 16.65 -36.1 21.5 -35.55 21.8 -30.65 M-5.5 -31.55 L-6.25 -32.8 -7.55 -33.65 -9.45 -34.1 -13.15 -34.3 Q-18.65 -34.6 -20.7 -32.15 L-21.05 -31.65 -21.4 -30.0 -21.35 -29.85 -21.3 -27.4 -20.75 -23.65 -20.3 -22.5 -20.3 -22.45 -19.45 -21.0 -18.35 -20.1 -18.35 -20.15 Q-17.0 -19.25 -15.45 -18.9 L-12.05 -18.35 Q-7.8 -18.15 -6.85 -20.0 L-6.85 -20.05 -6.35 -20.75 -5.75 -22.45 -5.35 -24.9 -5.15 -27.4 -5.15 -29.85 -5.5 -31.55 M-5.8 -33.35 L-5.7 -33.25 -4.9 -31.9 -4.85 -31.75 -4.5 -29.9 -4.45 -29.85 -4.45 -27.35 -4.7 -24.85 -4.7 -24.8 -5.15 -22.3 -5.15 -22.25 -5.7 -20.5 -5.75 -20.4 -6.3 -19.7 Q-7.3 -17.5 -12.05 -17.7 L-12.1 -17.75 -15.55 -18.25 Q-17.25 -18.65 -18.7 -19.6 L-18.75 -19.6 -19.9 -20.5 -19.95 -20.6 -20.9 -22.2 -20.95 -22.25 -21.4 -23.5 -21.4 -23.6 -21.95 -27.3 -21.95 -27.35 -22.0 -29.75 -21.65 -31.9 -21.65 -31.95 -21.25 -32.55 -21.2 -32.55 Q-19.05 -35.25 -13.15 -34.95 L-9.4 -34.8 -9.35 -34.8 -7.35 -34.25 -7.25 -34.2 -5.8 -33.35 M-5.55 -34.6 L-5.6 -34.6 Q-9.4 -36.55 -18.4 -35.25 L-18.45 -35.25 Q-22.75 -34.85 -23.1 -30.25 L-23.1 -30.2 -23.05 -29.9 -23.05 -29.85 -23.05 -28.8 -23.05 -28.7 Q-22.75 -19.9 -18.05 -18.4 L-17.85 -18.35 -15.9 -17.65 -13.8 -17.15 -12.4 -17.0 Q-8.8 -16.65 -7.15 -17.65 L-7.1 -17.65 Q-5.75 -18.35 -4.8 -20.0 L-4.1 -21.6 -3.45 -24.9 -3.2 -27.4 -3.15 -29.55 -3.2 -29.65 -3.3 -29.8 -3.4 -30.3 -3.4 -30.4 -3.35 -31.0 -3.6 -32.25 -3.85 -32.8 -4.55 -33.95 -5.55 -34.6 M0.25 -30.35 L0.4 -31.15 -1.1 -31.1 -2.7 -30.75 -2.75 -30.35 -2.7 -30.2 Q-1.4 -31.15 -1.1 -30.95 L0.25 -30.35 M21.15 -30.45 L21.15 -30.5 Q20.95 -34.95 16.55 -35.4 6.95 -36.6 3.5 -34.8 L2.25 -33.95 1.4 -32.65 1.1 -31.55 1.1 -31.5 1.1 -31.45 1.1 -31.4 0.85 -29.85 1.1 -25.6 1.95 -21.45 2.65 -20.0 Q4.0 -18.05 5.05 -17.65 L5.15 -17.6 Q6.4 -16.75 10.9 -17.15 L13.5 -17.65 15.75 -18.4 17.0 -19.05 17.25 -19.05 18.8 -20.45 19.7 -21.8 19.7 -21.75 Q20.5 -23.35 20.8 -25.4 L21.2 -28.95 21.15 -30.45" fill="#000000" fill-rule="evenodd" stroke="none"/>
  </g>
</svg>
