<?xml version="1.0" encoding="UTF-8" standalone="no"?>
<svg xmlns:xlink="http://www.w3.org/1999/xlink" height="72.0px" width="80.25px" xmlns="http://www.w3.org/2000/svg">
  <g transform="matrix(1.0, 0.0, 0.0, 1.0, 0.5, 0.0)">
    <path d="M62.6 20.15 Q79.2 36.05 79.25 46.15 79.25 56.3 70.55 61.8 61.9 67.35 52.35 69.45 42.8 71.6 40.3 71.5 37.8 71.55 28.35 69.0 18.9 66.4 9.95 60.45 1.0 54.5 0.05 44.35 -0.9 34.2 13.6 19.15 39.4 -19.65 62.6 20.15" fill="#ffffff" fill-rule="evenodd" stroke="none"/>
    <path d="M13.6 19.15 Q-0.9 34.2 0.05 44.35 1.0 54.5 9.95 60.45 18.9 66.4 28.35 69.0 37.8 71.55 40.3 71.5 42.8 71.6 52.35 69.45 61.9 67.35 70.55 61.8 79.25 56.3 79.25 46.15 79.2 36.05 62.6 20.15" fill="none" stroke="#000000" stroke-linecap="round" stroke-linejoin="round" stroke-width="1.0"/>
  </g>
</svg>
