<?xml version="1.0" encoding="UTF-8" standalone="no"?>
<svg xmlns:xlink="http://www.w3.org/1999/xlink" height="466.75px" width="330.85px" xmlns="http://www.w3.org/2000/svg">
  <g transform="matrix(1.0, 0.0, 0.0, 1.0, 159.85, 288.45)">
    <path d="M65.15 -274.25 L64.65 -275.3 Q62.95 -282.85 42.35 -283.7 19.75 -286.15 11.15 -275.55 L11.05 -275.45 9.8 -273.45 9.65 -273.1 8.4 -266.95 8.4 -266.7 8.55 -258.6 8.55 -258.55 9.3 -250.4 9.3 -250.3 10.8 -242.2 10.85 -242.05 12.95 -236.15 13.1 -235.8 14.85 -233.55 14.9 -233.55 Q20.0 -227.25 28.65 -227.55 47.7 -228.3 54.65 -233.2 56.15 -233.7 59.7 -236.95 L59.9 -237.2 62.65 -241.85 62.7 -242.0 64.45 -246.75 64.55 -247.0 66.2 -258.5 66.2 -258.6 66.45 -266.7 Q66.7 -268.45 65.25 -274.0 L65.15 -274.25 M63.2 -273.35 Q64.5 -268.35 64.3 -266.95 L64.3 -266.8 64.05 -258.8 62.4 -247.3 60.75 -242.9 58.15 -238.45 54.6 -235.25 54.05 -235.3 53.6 -235.1 Q47.0 -230.4 28.55 -229.7 21.0 -229.45 16.55 -234.9 L14.95 -236.95 12.9 -242.75 11.4 -250.7 11.45 -250.6 10.7 -258.75 10.55 -266.65 11.7 -272.45 12.9 -274.35 Q21.05 -283.85 42.1 -281.55 L42.15 -281.55 Q60.9 -280.75 62.55 -274.65 L62.65 -274.35 63.2 -273.35 M69.9 -268.6 L70.05 -263.85 68.8 -252.3 Q67.85 -245.6 65.25 -240.35 L65.3 -240.5 62.4 -236.2 57.3 -231.65 56.45 -231.6 52.45 -229.5 45.05 -227.15 36.75 -225.55 Q22.05 -224.1 18.0 -227.0 L17.7 -227.15 Q14.25 -228.35 9.85 -234.7 L7.65 -239.5 4.95 -252.95 4.05 -266.75 4.9 -271.75 4.9 -271.9 4.9 -272.05 4.95 -272.15 5.85 -275.75 5.9 -275.8 8.65 -280.1 12.6 -282.7 Q23.85 -288.6 55.1 -284.8 69.25 -283.25 69.9 -268.8 L69.9 -268.6 M2.15 -268.3 L-2.2 -270.2 -2.3 -270.25 Q-3.3 -270.85 -7.5 -267.8 L-7.55 -268.35 -7.4 -269.6 -2.35 -270.8 2.6 -271.0 2.15 -268.3 M-16.8 -282.05 L-13.55 -280.1 -11.15 -276.3 -10.4 -274.5 -9.5 -270.45 -9.7 -268.5 -9.7 -268.2 -9.45 -266.55 -9.15 -266.0 -8.95 -265.8 -9.1 -258.75 -9.95 -250.6 -12.05 -239.85 -14.3 -234.65 Q-17.35 -229.4 -21.8 -227.1 L-21.85 -227.05 Q-27.2 -223.85 -39.0 -225.05 L-43.5 -225.55 -50.3 -227.15 -56.7 -229.4 -57.25 -229.55 Q-72.5 -234.45 -73.55 -263.0 L-73.55 -263.25 -73.55 -266.75 -73.55 -266.85 -73.7 -267.9 -73.7 -268.0 Q-72.5 -282.9 -58.55 -284.3 L-58.5 -284.3 Q-29.2 -288.45 -16.85 -282.05 L-16.8 -282.05 M-16.55 -272.3 L-15.35 -266.65 -15.35 -258.75 -16.1 -250.6 -16.1 -250.65 -17.4 -242.75 -19.25 -237.2 -20.9 -234.85 -21.0 -234.7 Q-24.0 -228.8 -37.75 -229.45 L-48.85 -231.2 -48.8 -231.2 Q-53.95 -232.35 -58.3 -235.15 L-58.2 -235.1 -61.85 -238.0 -64.65 -242.75 -64.65 -242.8 -66.05 -246.65 -67.8 -258.8 -67.95 -266.75 -68.1 -267.25 Q-68.35 -268.0 -67.05 -272.55 L-65.9 -274.25 Q-59.3 -282.1 -41.45 -281.15 L-29.45 -280.55 -23.2 -279.0 -18.95 -276.35 -16.55 -272.3 M-17.6 -278.05 L-22.25 -280.9 -22.55 -281.05 -29.05 -282.7 -29.25 -282.7 -41.35 -283.3 Q-60.6 -284.3 -67.6 -275.55 L-67.7 -275.45 -68.95 -273.55 -69.05 -273.3 Q-70.6 -267.8 -70.1 -266.45 L-69.95 -258.6 -69.95 -258.5 -68.2 -246.35 -68.15 -246.1 -66.65 -242.0 -66.55 -241.85 -63.55 -236.7 -63.3 -236.4 -59.55 -233.4 -59.45 -233.35 Q-54.75 -230.35 -49.25 -229.1 L-49.2 -229.1 -37.95 -227.35 -37.85 -227.3 Q-22.4 -226.6 -19.1 -233.7 L-17.4 -236.1 -17.25 -236.4 -15.35 -242.05 -15.35 -242.2 -14.0 -250.3 -13.95 -250.4 -13.2 -258.55 -13.2 -258.65 -13.2 -266.75 -13.25 -266.95 -14.5 -272.95 -14.6 -273.3 -17.2 -277.7 -17.6 -278.05" fill="#43396f" fill-rule="evenodd" stroke="none"/>
    <path d="M10.7 -284.0 L7.3 -281.8 6.95 -281.45 3.95 -276.7 3.85 -276.5 3.45 -275.25 3.4 -275.1 3.0 -273.2 -2.6 -272.95 -2.8 -272.95 -7.6 -271.8 -8.35 -275.15 -8.4 -275.3 -9.15 -277.15 -9.25 -277.3 -11.9 -281.45 -12.25 -281.8 -14.45 -283.15 Q-1.5 -286.7 10.7 -284.0 M-57.5 -227.35 L-51.0 -225.1 -50.9 -225.1 -43.9 -223.45 -43.75 -223.4 -39.25 -222.9 -37.45 -222.75 -36.65 -222.15 -28.05 -217.4 -27.8 -217.15 -27.65 -217.15 -27.65 -217.0 -24.4 -213.65 -14.65 -205.4 -9.4 -201.75 Q-1.85 -194.75 6.95 -201.75 L12.6 -205.75 23.2 -214.65 28.85 -220.0 34.55 -223.2 36.95 -223.4 37.05 -223.45 45.55 -225.1 45.7 -225.1 53.2 -227.45 53.35 -227.55 57.2 -229.55 Q58.6 -221.05 52.95 -208.75 L49.7 -203.4 Q36.25 -188.1 34.1 -184.0 31.2 -179.45 28.35 -172.65 L24.95 -162.75 Q19.7 -144.4 26.45 -126.5 L28.95 -122.9 33.1 -119.35 33.2 -119.25 33.35 -119.15 37.1 -116.9 Q37.45 -117.8 61.35 -105.65 L67.45 -101.75 82.95 -90.15 89.1 -87.15 99.7 -81.0 Q109.85 -75.1 132.95 -51.9 154.9 -25.05 161.6 -0.65 170.4 32.05 169.95 46.5 168.5 54.55 157.35 33.35 L157.2 33.35 Q157.4 44.3 152.85 41.5 L149.45 37.35 Q144.95 28.85 143.45 23.85 142.4 31.3 138.1 26.0 L133.45 19.1 124.85 1.6 124.55 1.55 124.45 1.5 124.7 3.5 122.2 24.75 114.35 40.25 112.2 43.75 101.85 55.1 Q86.15 72.05 57.2 83.25 60.25 93.05 58.1 93.1 L55.1 93.1 49.45 92.0 44.95 91.35 38.95 92.0 31.6 93.1 30.35 93.0 29.95 92.5 29.2 91.25 Q0.5 98.95 -27.9 91.25 L-28.9 92.6 Q-30.6 93.1 -37.05 91.6 L-42.8 90.85 -42.8 90.75 -42.9 90.85 -42.8 90.75 -42.8 90.85 -42.9 90.85 -47.4 91.25 -54.3 92.5 -56.8 92.25 -57.55 90.75 -57.3 88.75 -55.65 83.0 Q-88.0 71.3 -111.05 41.85 L-112.9 38.85 -120.4 23.6 Q-124.3 -2.95 -121.15 -6.75 L-120.65 -8.15 -120.75 -8.1 -121.05 -8.0 -128.8 5.6 -133.65 12.35 Q-138.35 18.1 -139.3 13.35 L-139.4 13.35 Q-148.75 31.25 -150.3 17.6 L-150.4 16.5 Q-153.05 20.65 -155.65 22.6 L-157.15 23.0 -158.55 21.85 Q-159.15 18.35 -158.3 14.85 L-152.55 -10.0 Q-146.8 -34.15 -128.55 -56.75 L-120.65 -65.4 Q-101.25 -80.45 -97.55 -82.25 L-87.55 -87.65 -79.05 -91.65 -69.05 -99.25 -58.3 -106.15 -33.65 -117.5 -33.55 -117.5 -33.3 -117.75 -33.15 -117.75 -29.4 -120.75 -29.3 -120.75 Q-24.6 -122.65 -22.15 -139.5 -21.5 -141.6 -22.05 -153.4 L-23.65 -161.0 -27.65 -172.65 -31.55 -180.5 -35.9 -187.15 Q-47.05 -198.65 -53.15 -209.15 -57.95 -219.25 -57.5 -227.35 M-7.6 -252.3 L-6.95 -258.55 -6.95 -258.6 -6.8 -265.7 -6.5 -265.85 -3.0 -268.2 1.95 -266.0 2.75 -253.65 Q-1.7 -256.25 -7.6 -252.3 M29.2 91.25 L45.35 87.1 57.2 83.25 45.35 87.1 29.2 91.25 M157.2 33.1 L157.35 33.35 157.2 33.1 157.2 33.35 157.2 33.1 155.95 17.6 156.2 9.5 156.6 7.5 156.2 9.5 155.95 17.6 157.2 33.1 M143.2 23.75 L143.1 5.35 143.7 1.35 144.35 -0.25 143.7 1.35 143.1 5.35 143.2 23.75 M124.55 1.55 Q123.6 -1.1 123.6 -3.75 L119.7 -14.9 106.85 -44.0 104.6 -47.4 101.7 -50.4 99.2 -52.0 101.7 -50.4 104.6 -47.4 106.85 -44.0 119.7 -14.9 123.6 -3.75 Q123.6 -1.1 124.55 1.55 M-139.3 13.35 L-139.3 13.1 -139.3 13.15 -137.9 -6.75 -138.3 -12.0 -139.15 -14.9 -138.3 -12.0 -137.9 -6.75 -139.3 13.15 -139.3 13.1 -139.3 13.35 M-120.75 -8.1 L-115.4 -23.0 -108.4 -39.25 -104.15 -47.4 Q-104.05 -48.9 -99.9 -52.4 L-97.6 -53.6 -97.3 -54.0 -97.6 -53.6 -99.9 -52.4 Q-104.05 -48.9 -104.15 -47.4 L-108.4 -39.25 -115.4 -23.0 -120.75 -8.1 M-96.65 -54.4 L-96.3 -55.0 -96.65 -54.4 M-150.4 16.5 L-148.05 1.35 -147.15 -10.65 -148.05 1.35 -150.4 16.5 M-146.15 22.6 L-145.8 22.35 -146.15 22.6 M-139.4 13.35 L-139.3 13.15 -139.4 13.35 M-55.65 83.0 L-34.55 89.6 -29.3 90.75 -27.9 91.25 -29.3 90.75 -34.55 89.6 -55.65 83.0" fill="#ffffff" fill-rule="evenodd" stroke="none"/>
    <path d="M-37.45 -222.75 Q-26.1 -221.85 -20.7 -225.2 L-20.8 -225.2 Q-15.8 -227.75 -12.35 -233.7 L-12.3 -233.85 -10.05 -239.1 -10.0 -239.3 -7.85 -250.3 -7.8 -250.4 -7.6 -252.3 Q-1.7 -256.25 2.75 -253.65 L2.8 -252.8 2.8 -252.7 5.55 -238.95 5.65 -238.7 7.9 -233.8 8.0 -233.65 Q12.9 -226.5 16.85 -225.15 21.0 -222.1 34.55 -223.2 L28.85 -220.0 6.7 -209.9 Q3.7 -208.35 1.2 -208.0 L-7.9 -207.75 -11.3 -208.5 -27.55 -217.0 -27.65 -217.0 -27.65 -217.15 -27.8 -217.15 -28.05 -217.4 -36.65 -222.15 -37.45 -222.75 M49.45 92.0 L50.45 113.25 Q51.2 112.8 47.45 135.1 L47.7 139.35 49.2 143.1 Q49.9 144.35 52.35 145.6 L62.6 150.35 Q62.4 151.05 74.95 153.5 L86.45 157.35 96.2 161.85 Q101.7 164.85 101.2 165.85 L100.45 166.75 97.2 167.1 83.6 166.35 76.95 166.6 76.35 167.0 75.95 168.1 76.85 174.5 76.45 175.25 75.45 175.85 71.95 175.75 60.95 172.0 52.95 170.35 Q50.6 169.65 34.7 177.25 L33.35 176.5 Q31.85 169.85 41.35 153.25 L41.15 152.7 39.2 147.0 37.95 140.85 38.1 136.25 41.7 115.1 41.6 109.35 38.95 92.0 44.95 91.35 49.45 92.0 M-37.05 91.6 Q-39.1 108.35 -38.9 112.1 L-36.15 137.6 -36.3 141.75 -38.15 151.15 -38.3 151.85 -35.4 156.6 -29.65 163.1 -26.8 168.0 -23.9 174.85 -23.9 176.25 -25.3 177.1 -27.55 176.75 Q-35.3 173.35 -40.55 172.0 L-45.3 171.0 -47.9 171.35 Q-53.8 172.5 -62.65 176.6 L-65.9 177.1 -66.9 177.0 -68.05 176.25 Q-68.15 168.6 -70.8 168.0 -81.15 167.65 -90.55 169.1 L-94.55 168.85 -95.65 168.25 -95.15 166.75 Q-93.5 165.05 -87.05 161.6 L-75.55 156.5 -60.4 152.1 -50.4 146.85 -47.3 144.35 -45.9 141.25 -45.3 136.85 -47.4 116.6 -47.4 91.25 -42.9 90.85 -42.8 90.85 -37.05 91.6 M41.15 152.7 L41.45 151.85 41.15 152.7 M-27.55 -217.0 L-27.65 -217.15 -27.55 -217.0 M-38.15 151.15 L-38.55 150.85 -38.15 151.15" fill="#fa410f" fill-rule="evenodd" stroke="none"/>
    <path d="M28.85 -220.0 L23.2 -214.65 12.6 -205.75 6.95 -201.75 Q-1.85 -194.75 -9.4 -201.75 L-14.65 -205.4 -24.4 -213.65 -27.65 -217.0 -27.55 -217.0 -11.3 -208.5 -7.9 -207.75 1.2 -208.0 Q3.7 -208.35 6.7 -209.9 L28.85 -220.0" fill="#fa420e" fill-rule="evenodd" stroke="none"/>
    <path d="M63.2 -273.35 L62.65 -274.35 62.55 -274.65 Q60.9 -280.75 42.15 -281.55 L42.1 -281.55 Q21.05 -283.85 12.9 -274.35 L11.7 -272.45 10.55 -266.65 10.7 -258.75 11.45 -250.6 11.4 -250.7 12.9 -242.75 14.95 -236.95 16.55 -234.9 Q21.0 -229.45 28.55 -229.7 47.0 -230.4 53.6 -235.1 L54.05 -235.3 54.6 -235.25 58.15 -238.45 60.75 -242.9 62.4 -247.3 64.05 -258.8 64.3 -266.8 64.3 -266.95 Q64.5 -268.35 63.2 -273.35 M65.15 -274.25 L65.25 -274.0 Q66.7 -268.45 66.45 -266.7 L66.2 -258.6 66.2 -258.5 64.55 -247.0 64.45 -246.75 62.7 -242.0 62.65 -241.85 59.9 -237.2 59.7 -236.95 Q56.15 -233.7 54.65 -233.2 47.7 -228.3 28.65 -227.55 20.0 -227.25 14.9 -233.55 L14.85 -233.55 13.1 -235.8 12.95 -236.15 10.85 -242.05 10.8 -242.2 9.3 -250.3 9.3 -250.4 8.55 -258.55 8.55 -258.6 8.4 -266.7 8.4 -266.95 9.65 -273.1 9.8 -273.45 11.05 -275.45 11.15 -275.55 Q19.75 -286.15 42.35 -283.7 62.95 -282.85 64.65 -275.3 L65.15 -274.25 M10.7 -284.0 L11.55 -284.55 11.6 -284.6 Q23.15 -290.9 55.35 -286.95 71.15 -285.2 72.0 -269.25 73.55 -267.95 73.55 -266.4 73.65 -264.95 72.15 -263.3 L70.95 -252.05 70.95 -252.0 Q69.95 -244.9 67.15 -239.4 L67.1 -239.3 64.1 -234.9 63.95 -234.7 Q59.1 -230.35 57.4 -229.7 L57.45 -229.7 57.2 -229.55 53.35 -227.55 53.2 -227.45 45.7 -225.1 45.55 -225.1 37.05 -223.45 36.95 -223.4 34.55 -223.2 Q21.0 -222.1 16.85 -225.15 12.9 -226.5 8.0 -233.65 L7.9 -233.8 5.65 -238.7 5.55 -238.95 2.8 -252.7 2.8 -252.8 2.75 -253.65 1.95 -266.0 -3.0 -268.2 -6.5 -265.85 -6.8 -265.7 -6.95 -258.6 -6.95 -258.55 -7.6 -252.3 -7.8 -250.4 -7.85 -250.3 -10.0 -239.3 -10.05 -239.1 -12.3 -233.85 -12.35 -233.7 Q-15.8 -227.75 -20.8 -225.2 L-20.7 -225.2 Q-26.1 -221.85 -37.45 -222.75 L-39.25 -222.9 -43.75 -223.4 -43.9 -223.45 -50.9 -225.1 -51.0 -225.1 -57.5 -227.35 -57.7 -227.45 Q-74.55 -232.3 -75.7 -262.8 -76.95 -264.5 -76.95 -265.85 -77.05 -267.35 -75.8 -268.4 -74.4 -284.9 -58.8 -286.45 -28.55 -290.75 -15.8 -283.95 L-15.75 -283.9 -14.45 -283.15 -12.25 -281.8 -11.9 -281.45 -9.25 -277.3 -9.15 -277.15 -8.4 -275.3 -8.35 -275.15 -7.6 -271.8 -2.8 -272.95 -2.6 -272.95 3.0 -273.2 3.4 -275.1 3.45 -275.25 3.85 -276.5 3.95 -276.7 6.95 -281.45 7.3 -281.8 10.7 -284.0 M2.15 -268.3 L2.6 -271.0 -2.35 -270.8 -7.4 -269.6 -7.55 -268.35 -7.5 -267.8 Q-3.3 -270.85 -2.3 -270.25 L-2.2 -270.2 2.15 -268.3 M69.9 -268.6 L69.9 -268.8 Q69.25 -283.25 55.1 -284.8 23.85 -288.6 12.6 -282.7 L8.65 -280.1 5.9 -275.8 5.85 -275.75 4.95 -272.15 4.9 -272.05 4.9 -271.9 4.9 -271.75 4.05 -266.75 4.95 -252.95 7.65 -239.5 9.85 -234.7 Q14.25 -228.35 17.7 -227.15 L18.0 -227.0 Q22.05 -224.1 36.75 -225.55 L45.05 -227.15 52.45 -229.5 56.45 -231.6 57.3 -231.65 62.4 -236.2 65.3 -240.5 65.25 -240.35 Q67.85 -245.6 68.8 -252.3 L70.05 -263.85 69.9 -268.6 M-17.6 -278.05 L-17.2 -277.7 -14.6 -273.3 -14.5 -272.95 -13.25 -266.95 -13.2 -266.75 -13.2 -258.65 -13.2 -258.55 -13.95 -250.4 -14.0 -250.3 -15.35 -242.2 -15.35 -242.05 -17.25 -236.4 -17.4 -236.1 -19.1 -233.7 Q-22.4 -226.6 -37.85 -227.3 L-37.95 -227.35 -49.2 -229.1 -49.25 -229.1 Q-54.75 -230.35 -59.45 -233.35 L-59.55 -233.4 -63.3 -236.4 -63.55 -236.7 -66.55 -241.85 -66.65 -242.0 -68.15 -246.1 -68.2 -246.35 -69.95 -258.5 -69.95 -258.6 -70.1 -266.45 Q-70.6 -267.8 -69.05 -273.3 L-68.95 -273.55 -67.7 -275.45 -67.6 -275.55 Q-60.6 -284.3 -41.35 -283.3 L-29.25 -282.7 -29.05 -282.7 -22.55 -281.05 -22.25 -280.9 -17.6 -278.05 M-16.55 -272.3 L-18.95 -276.35 -23.2 -279.0 -29.45 -280.55 -41.45 -281.15 Q-59.3 -282.1 -65.9 -274.25 L-67.05 -272.55 Q-68.35 -268.0 -68.1 -267.25 L-67.95 -266.75 -67.8 -258.8 -66.05 -246.65 -64.65 -242.8 -64.65 -242.75 -61.85 -238.0 -58.2 -235.1 -58.3 -235.15 Q-53.95 -232.35 -48.8 -231.2 L-48.85 -231.2 -37.75 -229.45 Q-24.0 -228.8 -21.0 -234.7 L-20.9 -234.85 -19.25 -237.2 -17.4 -242.75 -16.1 -250.65 -16.1 -250.6 -15.35 -258.75 -15.35 -266.65 -16.55 -272.3 M-16.8 -282.05 L-16.85 -282.05 Q-29.2 -288.45 -58.5 -284.3 L-58.55 -284.3 Q-72.5 -282.9 -73.7 -268.0 L-73.7 -267.9 -73.55 -266.85 -73.55 -266.75 -73.55 -263.25 -73.55 -263.0 Q-72.5 -234.45 -57.25 -229.55 L-56.7 -229.4 -50.3 -227.15 -43.5 -225.55 -39.0 -225.05 Q-27.2 -223.85 -21.85 -227.05 L-21.8 -227.1 Q-17.35 -229.4 -14.3 -234.65 L-12.05 -239.85 -9.95 -250.6 -9.1 -258.75 -8.95 -265.8 -9.15 -266.0 -9.45 -266.55 -9.7 -268.2 -9.7 -268.5 -9.5 -270.45 -10.4 -274.5 -11.15 -276.3 -13.55 -280.1 -16.8 -282.05" fill="#000000" fill-rule="evenodd" stroke="none"/>
    <path d="M57.2 -229.55 Q58.6 -221.05 52.95 -208.75 L49.7 -203.4 Q36.25 -188.1 34.1 -184.0 31.2 -179.45 28.35 -172.65 L24.95 -162.75 Q19.7 -144.4 26.45 -126.5 L28.95 -122.9 33.1 -119.35 33.35 -119.15 37.1 -116.9 Q37.45 -117.8 61.35 -105.65 L67.45 -101.75 82.95 -90.15 89.1 -87.15 99.7 -81.0 Q109.85 -75.1 132.95 -51.9 154.9 -25.05 161.6 -0.65 170.4 32.05 169.95 46.5 168.5 54.55 157.35 33.35 L157.2 33.35 Q157.4 44.3 152.85 41.5 L149.45 37.35 Q144.95 28.85 143.45 23.85 142.4 31.3 138.1 26.0 L133.45 19.1 124.85 1.6 124.55 1.55 124.45 1.5 124.7 3.5 122.2 24.75 114.35 40.25 112.2 43.75 101.85 55.1 Q86.15 72.05 57.2 83.25 60.25 93.05 58.1 93.1 L55.1 93.1 49.45 92.0 50.45 113.25 Q51.2 112.8 47.45 135.1 L47.7 139.35 49.2 143.1 Q49.9 144.35 52.35 145.6 L62.6 150.35 Q62.4 151.05 74.95 153.5 L86.45 157.35 96.2 161.85 Q101.7 164.85 101.2 165.85 L100.45 166.75 97.2 167.1 83.6 166.35 76.95 166.6 76.35 167.0 75.95 168.1 76.85 174.5 76.45 175.25 75.45 175.85 71.95 175.75 60.95 172.0 52.95 170.35 Q50.6 169.65 34.7 177.25 L33.35 176.5 Q31.85 169.85 41.35 153.25 L41.15 152.7 39.2 147.0 37.95 140.85 38.1 136.25 41.7 115.1 41.6 109.35 38.95 92.0 31.6 93.1 30.35 93.0 29.95 92.5 29.2 91.25 Q0.5 98.95 -27.9 91.25 L-28.9 92.6 Q-30.6 93.1 -37.05 91.6 -39.1 108.35 -38.9 112.1 L-36.15 137.6 -36.3 141.75 -38.15 151.15 -38.3 151.85 -35.4 156.6 -29.65 163.1 -26.8 168.0 -23.9 174.85 -23.9 176.25 -25.3 177.1 -27.55 176.75 Q-35.3 173.35 -40.55 172.0 L-45.3 171.0 -47.9 171.35 Q-53.8 172.5 -62.65 176.6 L-65.9 177.1 -66.9 177.0 -68.05 176.25 Q-68.15 168.6 -70.8 168.0 -81.15 167.65 -90.55 169.1 L-94.55 168.85 -95.65 168.25 -95.15 166.75 Q-93.5 165.05 -87.05 161.6 L-75.55 156.5 -60.4 152.1 -50.4 146.85 -47.3 144.35 -45.9 141.25 -45.3 136.85 -47.4 116.6 -47.4 91.25 -54.3 92.5 -56.8 92.25 -57.55 90.75 -57.3 88.75 -55.65 83.0 Q-88.0 71.3 -111.05 41.85 L-112.9 38.85 -120.4 23.6 Q-124.3 -2.95 -121.15 -6.75 L-120.65 -8.15 -120.75 -8.1 -121.05 -8.0 -128.8 5.6 -133.65 12.35 Q-138.35 18.1 -139.3 13.35 L-139.4 13.35 Q-148.75 31.25 -150.3 17.6 L-150.4 16.5 Q-153.05 20.65 -155.65 22.6 L-157.15 23.0 -158.55 21.85 Q-159.15 18.35 -158.3 14.85 L-152.55 -10.0 Q-146.8 -34.15 -128.55 -56.75 L-120.65 -65.4 Q-101.25 -80.45 -97.55 -82.25 L-87.55 -87.65 -79.05 -91.65 -69.05 -99.25 -58.3 -106.15 -33.65 -117.5 -33.55 -117.5 -33.3 -117.75 -33.15 -117.75 -29.4 -120.75 -29.3 -120.75 Q-24.6 -122.65 -22.15 -139.5 -21.5 -141.6 -22.05 -153.4 L-23.65 -161.0 -27.65 -172.65 -31.55 -180.5 -35.9 -187.15 Q-47.05 -198.65 -53.15 -209.15 -57.95 -219.25 -57.5 -227.35 M-27.65 -217.0 L-24.4 -213.65 -14.65 -205.4 -9.4 -201.75 Q-1.85 -194.75 6.95 -201.75 L12.6 -205.75 23.2 -214.65 28.85 -220.0 6.7 -209.9 Q3.7 -208.35 1.2 -208.0 L-7.9 -207.75 -11.3 -208.5 -27.55 -217.0 -27.65 -217.0 -27.65 -217.15 -27.8 -217.15 -28.05 -217.4 -36.65 -222.15 -37.45 -222.75 M34.55 -223.2 L28.85 -220.0 M33.35 -119.15 L33.2 -119.25 33.1 -119.35 M99.2 -52.0 L101.7 -50.4 104.6 -47.4 106.85 -44.0 119.7 -14.9 123.6 -3.75 Q123.6 -1.1 124.55 1.55 M144.35 -0.25 L143.7 1.35 143.1 5.35 143.2 23.75 M157.2 33.35 L157.2 33.1 155.95 17.6 156.2 9.5 156.6 7.5 M157.35 33.35 L157.2 33.1 M57.2 83.25 L45.35 87.1 29.2 91.25 M49.45 92.0 L44.95 91.35 38.95 92.0 M41.45 151.85 L41.15 152.7 M-27.65 -217.15 L-27.55 -217.0 M-96.3 -55.0 L-96.65 -54.4 M-97.3 -54.0 L-97.6 -53.6 -99.9 -52.4 Q-104.05 -48.9 -104.15 -47.4 L-108.4 -39.25 -115.4 -23.0 -120.75 -8.1 M-139.15 -14.9 L-138.3 -12.0 -137.9 -6.75 -139.3 13.15 -139.3 13.1 -139.3 13.35 M-47.4 91.25 L-42.9 90.85 -42.8 90.75 -42.8 90.85 -37.05 91.6 M-42.9 90.85 L-42.8 90.85 M-27.9 91.25 L-29.3 90.75 -34.55 89.6 -55.65 83.0 M-139.3 13.15 L-139.4 13.35 M-145.8 22.35 L-146.15 22.6 M-147.15 -10.65 L-148.05 1.35 -150.4 16.5 M-38.55 150.85 L-38.15 151.15 M-7.6 -252.3 Q-1.7 -256.25 2.75 -253.65 M-14.45 -283.15 Q-1.5 -286.7 10.7 -284.0" fill="none" stroke="#000000" stroke-linecap="round" stroke-linejoin="round" stroke-width="2.15"/>
  </g>
</svg>
