<?xml version="1.0" encoding="UTF-8" standalone="no"?>
<svg xmlns:xlink="http://www.w3.org/1999/xlink" height="472.65px" width="335.75px" xmlns="http://www.w3.org/2000/svg">
  <g transform="matrix(1.0, 0.0, 0.0, 1.0, 160.25, 293.95)">
    <path d="M0.1 -287.75 Q13.2 -295.85 46.85 -291.15 L51.45 -289.9 56.85 -286.75 59.95 -282.25 Q61.7 -276.1 61.45 -274.65 64.65 -273.35 61.6 -268.75 61.7 -248.5 51.35 -238.75 L48.7 -236.65 38.7 -232.25 32.6 -230.75 Q11.65 -226.25 3.45 -234.25 L-0.65 -238.5 -3.55 -245.4 -6.15 -258.0 -6.15 -258.65 -7.05 -266.75 -7.05 -271.9 -6.9 -274.9 -6.4 -277.25 -6.9 -274.9 -7.05 -271.9 Q-11.6 -274.45 -12.9 -274.25 L-17.9 -271.25 -17.8 -266.75 -17.65 -266.0 -19.05 -251.65 -19.4 -250.5 -20.55 -244.9 -23.15 -237.9 -28.4 -232.0 -31.9 -229.9 -37.65 -228.4 Q-45.85 -227.7 -46.8 -228.25 L-51.3 -228.65 -60.55 -230.65 Q-82.85 -237.3 -81.9 -266.4 L-82.05 -266.5 -82.9 -267.75 -83.05 -269.15 -82.05 -271.0 Q-83.8 -292.45 -42.55 -291.15 -24.35 -289.9 -22.4 -285.15 L-22.3 -285.0 -19.65 -280.9 -18.3 -275.5 -12.8 -276.9 -6.4 -277.25 -5.3 -281.25 -2.15 -286.25 0.1 -287.75 M61.6 -268.75 L61.45 -274.65 61.6 -268.75 M54.45 -279.5 L55.6 -274.9 55.85 -269.9 54.35 -254.5 52.2 -247.5 Q48.95 -242.1 48.2 -242.4 44.85 -236.95 24.45 -234.25 L16.95 -234.0 16.35 -234.25 11.85 -235.15 7.1 -237.9 4.2 -241.5 3.95 -242.4 2.1 -246.65 1.35 -250.5 0.7 -252.65 -0.8 -266.75 -0.65 -272.75 0.85 -278.75 3.1 -282.65 3.7 -283.0 Q11.5 -288.9 28.1 -288.25 44.35 -289.15 52.1 -283.0 L54.45 -279.5 52.1 -283.0 Q44.35 -289.15 28.1 -288.25 11.5 -288.9 3.7 -283.0 L3.1 -282.65 0.85 -278.75 -0.65 -272.75 -0.8 -266.75 0.7 -252.65 1.35 -250.5 2.1 -246.65 3.95 -242.4 4.2 -241.5 7.1 -237.9 11.85 -235.15 16.35 -234.25 16.95 -234.0 24.45 -234.25 Q44.85 -236.95 48.2 -242.4 48.95 -242.1 52.2 -247.5 L54.35 -254.5 55.85 -269.9 55.6 -274.9 54.45 -279.5 M-81.9 -266.65 L-82.05 -271.0 -81.9 -266.65 -81.9 -266.4 -81.9 -266.65 -82.05 -266.5 -81.9 -266.65 M-18.3 -275.5 L-18.8 -272.9 -18.55 -271.9 -17.9 -271.25 -18.55 -271.9 -18.8 -272.9 -18.3 -275.5 M-24.8 -274.9 Q-24.5 -276.95 -27.9 -281.75 L-29.8 -283.0 Q-30.65 -284.6 -37.55 -285.9 L-43.05 -286.4 -58.65 -285.75 Q-64.1 -285.4 -69.8 -283.0 L-73.8 -280.15 Q-76.1 -276.5 -76.15 -274.9 L-76.8 -272.15 -76.9 -266.75 -75.8 -254.9 -73.05 -245.15 -71.3 -242.4 Q-69.3 -237.45 -56.8 -234.25 -46.55 -231.25 -35.3 -234.25 -29.9 -235.7 -27.55 -242.4 L-26.05 -246.5 -24.4 -258.65 -24.15 -272.25 -24.8 -274.9 -24.15 -272.25 -24.4 -258.65 -26.05 -246.5 -27.55 -242.4 Q-29.9 -235.7 -35.3 -234.25 -46.55 -231.25 -56.8 -234.25 -69.3 -237.45 -71.3 -242.4 L-73.05 -245.15 -75.8 -254.9 -76.9 -266.75 -76.8 -272.15 -76.15 -274.9 Q-76.1 -276.5 -73.8 -280.15 L-69.8 -283.0 Q-64.1 -285.4 -58.65 -285.75 L-43.05 -286.4 -37.55 -285.9 Q-30.65 -284.6 -29.8 -283.0 L-27.9 -281.75 Q-24.5 -276.95 -24.8 -274.9" fill="#43396f" fill-rule="evenodd" stroke="none"/>
    <path d="M51.35 -238.75 Q54.75 -222.2 49.45 -212.9 L45.95 -206.4 Q33.9 -192.15 29.1 -183.4 L24.1 -171.9 21.2 -161.9 Q17.45 -148.65 23.7 -128.9 L25.7 -125.65 28.95 -122.4 34.85 -118.4 43.95 -114.5 61.35 -105.4 Q85.75 -85.7 99.95 -78.75 112.85 -69.4 136.7 -42.0 162.35 -7.2 167.95 19.35 175.25 48.7 174.35 79.1 171.4 91.55 159.2 58.25 L157.85 53.75 157.4 53.15 157.35 53.1 156.85 57.6 155.2 62.6 153.7 63.6 152.95 63.85 150.45 62.5 Q146.2 58.8 140.95 33.85 L140.5 33.35 140.45 33.25 Q139.75 39.05 138.85 40.1 L137.2 41.1 135.2 40.1 Q131.6 37.35 124.95 17.6 L122.95 11.75 122.55 11.45 122.45 11.35 120.1 27.35 117.6 32.5 110.1 45.6 97.7 58.75 80.45 72.35 Q71.75 78.65 54.85 84.25 L55.95 86.25 Q57.6 95.85 56.2 94.5 L55.85 95.0 53.2 95.0 47.85 93.85 42.6 93.0 37.2 93.35 37.1 93.5 31.1 94.5 28.45 94.5 27.1 93.0 27.1 91.85 Q19.6 93.65 10.1 94.75 L-0.3 95.35 -1.4 95.5 -4.15 95.5 -14.9 94.6 -29.9 91.6 -31.05 93.0 Q-31.5 93.55 -38.65 91.85 L-38.8 91.85 -38.8 91.75 -44.15 90.85 -49.15 91.1 -56.55 92.35 -58.65 92.1 -59.4 90.75 -59.4 89.85 -57.75 84.3 -57.4 83.0 Q-92.85 68.8 -112.55 40.35 L-114.8 36.85 -121.65 21.25 Q-122.65 21.85 -123.15 1.0 L-122.55 -6.15 -122.65 -6.15 -128.3 3.75 -135.3 13.75 -137.3 15.6 -139.05 16.1 -139.6 15.65 -139.65 15.6 Q-143.8 23.85 -145.9 25.6 -148.4 28.55 -150.4 25.75 L-150.9 23.75 Q-157.35 33.35 -159.05 29.5 -159.5 25.25 -158.65 22.0 L-152.55 -3.75 Q-146.05 -31.5 -123.55 -62.75 -109.3 -77.85 -97.05 -85.15 L-91.4 -88.25 -76.8 -95.0 -69.4 -100.25 -57.4 -107.5 -36.1 -117.2 -36.05 -117.25 -35.9 -117.25 -32.05 -120.15 -30.8 -121.5 -30.65 -121.5 Q-19.25 -145.65 -27.55 -166.75 -30.65 -175.9 -32.3 -178.5 L-36.15 -185.15 Q-52.65 -203.8 -55.65 -210.4 L-55.8 -210.5 -56.3 -211.75 -56.4 -211.9 -56.8 -212.9 -56.9 -213.0 Q-61.35 -222.7 -60.55 -230.65 L-51.3 -228.65 -46.8 -228.25 -44.05 -226.15 -33.4 -219.9 -31.55 -218.0 -22.15 -209.9 -14.8 -204.25 -13.8 -203.65 -8.55 -202.15 -2.65 -203.65 Q6.0 -209.25 5.95 -209.9 L22.95 -224.5 24.6 -226.75 27.95 -228.15 32.6 -230.75 38.7 -232.25 48.7 -236.65 51.35 -238.75 M-22.4 -285.15 L-22.3 -285.15 Q-13.0 -288.85 0.1 -287.75 L-2.15 -286.25 -5.3 -281.25 -6.4 -277.25 -12.8 -276.9 -18.3 -275.5 -19.65 -280.9 -22.3 -285.0 -22.3 -285.15 -22.3 -285.0 -22.4 -285.15 M-7.05 -271.9 L-7.05 -266.75 -6.15 -258.65 -6.15 -258.0 -8.05 -258.65 -9.55 -258.9 -11.05 -258.65 -14.15 -257.4 Q-16.55 -256.2 -17.4 -254.75 L-16.9 -258.65 -17.05 -263.75 -17.65 -266.0 -17.8 -266.75 -17.9 -271.25 -12.9 -274.25 Q-11.6 -274.45 -7.05 -271.9 M157.4 53.15 L157.85 42.0 158.95 33.85 159.6 31.85 158.95 33.85 157.85 42.0 157.4 53.15 M140.5 33.35 L142.85 17.6 143.95 16.1 142.85 17.6 140.5 33.35 M122.55 11.45 L122.1 9.5 118.6 -1.0 115.45 -14.9 105.35 -39.25 102.7 -44.4 100.2 -47.4 96.7 -50.65 100.2 -47.4 102.7 -44.4 105.35 -39.25 115.45 -14.9 118.6 -1.0 122.1 9.5 122.55 11.45 M27.1 91.85 L48.1 86.5 54.85 84.25 48.1 86.5 27.1 91.85 M-57.4 83.0 L-57.05 83.15 -57.75 84.3 -57.05 83.15 -57.4 83.0 M-150.9 23.75 L-147.8 1.35 -147.15 -6.75 -147.3 -7.65 -147.15 -6.75 -147.8 1.35 -150.9 23.75 M-139.4 -14.5 L-138.55 -11.15 -138.3 -6.75 -140.05 13.6 -139.6 15.65 -140.05 13.6 -138.3 -6.75 -138.55 -11.15 -139.4 -14.5 M-122.65 -6.15 L-122.55 -6.5 -122.55 -6.15 -122.55 -6.5 -122.65 -6.15 M-122.55 -6.75 L-119.9 -14.9 -106.15 -47.4 -103.8 -51.75 -98.05 -57.0 -103.8 -51.75 -106.15 -47.4 -119.9 -14.9 -122.55 -6.75 M-38.55 -115.25 L-36.1 -117.2 -38.55 -115.25 M-57.05 83.15 L-40.15 88.85 -29.9 91.6 -40.15 88.85 -57.05 83.15 M-38.65 91.85 L-38.8 91.75 -38.65 91.85" fill="#ffffff" fill-rule="evenodd" stroke="none"/>
    <path d="M47.85 93.85 L49.45 115.6 48.95 119.5 44.7 135.5 44.95 138.75 46.35 141.6 Q46.6 142.6 50.35 144.6 L62.1 150.5 73.45 153.6 84.45 158.1 91.6 161.85 Q97.4 165.35 96.95 166.35 L96.45 167.1 94.85 167.5 91.85 167.5 78.6 166.1 72.7 166.1 71.7 166.85 71.45 168.1 71.95 174.35 71.6 175.25 70.85 175.75 68.85 175.85 66.95 175.5 54.1 170.35 48.35 169.0 42.85 170.25 33.2 174.5 29.85 175.5 29.2 175.5 28.45 174.85 Q26.95 168.8 37.95 150.5 L37.9 150.35 35.85 143.35 35.2 136.6 Q36.45 128.25 40.2 118.85 L40.85 114.1 37.2 93.5 37.1 93.5 37.2 93.35 42.6 93.0 47.85 93.85 M-38.8 91.85 L-40.8 111.35 -40.15 117.6 -36.55 135.35 -36.4 139.75 -37.9 149.8 -38.05 150.75 -34.8 156.1 -27.55 164.35 -24.65 169.1 Q-23.15 171.45 -22.15 175.35 L-22.55 176.5 -23.9 176.85 -26.55 176.35 -38.65 172.0 -43.8 171.0 -46.8 171.35 Q-54.65 173.4 -61.05 176.75 L-63.3 177.25 Q-67.0 179.3 -67.4 170.6 L-67.55 170.5 -67.9 169.35 -68.55 168.85 -70.15 168.25 -80.8 168.5 -91.55 169.5 -94.05 169.1 -94.55 168.6 -94.55 167.85 Q-86.35 159.75 -57.9 151.1 L-49.15 145.6 -47.05 143.35 -45.8 139.75 -45.65 135.25 -49.15 116.25 Q-49.7 115.55 -49.15 91.1 L-44.15 90.85 -38.8 91.75 -38.8 91.85 M-6.15 -258.0 L-3.55 -245.4 -0.65 -238.5 3.45 -234.25 Q11.65 -226.25 32.6 -230.75 L27.95 -228.15 24.6 -226.75 -2.8 -218.0 Q-8.6 -216.3 -13.35 -215.65 L-13.85 -215.55 -14.6 -215.45 -15.35 -215.4 -23.85 -215.7 Q-27.2 -216.35 -29.55 -218.0 L-33.4 -219.9 -44.05 -226.15 -46.8 -228.25 Q-45.85 -227.7 -37.65 -228.4 L-31.9 -229.9 -28.4 -232.0 -23.15 -237.9 -20.55 -244.9 -19.4 -250.5 -19.05 -251.65 -17.4 -254.75 Q-16.55 -256.2 -14.15 -257.4 L-11.05 -258.65 -9.55 -258.9 -8.05 -258.65 -6.15 -258.0 M37.2 93.5 L37.2 93.35 37.2 93.5 M37.9 150.35 L38.1 149.85 38.1 149.5 38.1 149.85 37.9 150.35 M-37.9 149.8 L-38.05 150.35 -38.3 149.6 -38.05 150.35 -37.9 149.8" fill="#fa410f" fill-rule="evenodd" stroke="none"/>
    <path d="M24.6 -226.75 L22.95 -224.5 5.95 -209.9 Q6.0 -209.25 -2.65 -203.65 L-8.55 -202.15 -13.8 -203.65 -14.8 -204.25 -22.15 -209.9 -31.55 -218.0 -33.4 -219.9 -29.55 -218.0 Q-27.2 -216.35 -23.85 -215.7 L-20.3 -212.75 -23.85 -215.7 -15.35 -215.4 -14.6 -215.45 -13.85 -215.55 -13.35 -215.65 Q-8.6 -216.3 -2.8 -218.0 L24.6 -226.75" fill="#fa420e" fill-rule="evenodd" stroke="none"/>
    <path d="M-17.65 -266.0 L-17.05 -263.75 -16.9 -258.65 -17.4 -254.75 -19.05 -251.65 -17.65 -266.0" fill="#ff7a16" fill-rule="evenodd" stroke="none"/>
    <path d="M0.1 -287.75 Q13.2 -295.85 46.85 -291.15 L51.45 -289.9 56.85 -286.75 59.95 -282.25 Q61.7 -276.1 61.45 -274.65 64.65 -273.35 61.6 -268.75 61.7 -248.5 51.35 -238.75 54.75 -222.2 49.45 -212.9 L45.95 -206.4 Q33.9 -192.15 29.1 -183.4 L24.1 -171.9 21.2 -161.9 Q17.45 -148.65 23.7 -128.9 L25.7 -125.65 28.95 -122.4 34.85 -118.4 43.95 -114.5 61.35 -105.4 Q85.75 -85.7 99.95 -78.75 112.85 -69.4 136.7 -42.0 162.35 -7.2 167.95 19.35 175.25 48.7 174.35 79.1 171.4 91.55 159.2 58.25 L157.85 53.75 157.4 53.15 157.35 53.1 156.85 57.6 155.2 62.6 153.7 63.6 152.95 63.85 150.45 62.5 Q146.2 58.8 140.95 33.85 L140.5 33.35 140.45 33.25 Q139.75 39.05 138.85 40.1 L137.2 41.1 135.2 40.1 Q131.6 37.35 124.95 17.6 L122.95 11.75 122.55 11.45 122.45 11.35 120.1 27.35 117.6 32.5 110.1 45.6 97.7 58.75 80.45 72.35 Q71.75 78.65 54.85 84.25 L55.95 86.25 Q57.6 95.85 56.2 94.5 L55.85 95.0 53.2 95.0 47.85 93.85 49.45 115.6 48.95 119.5 44.7 135.5 44.95 138.75 46.35 141.6 Q46.6 142.6 50.35 144.6 L62.1 150.5 73.45 153.6 84.45 158.1 91.6 161.85 Q97.4 165.35 96.95 166.35 L96.45 167.1 94.85 167.5 91.85 167.5 78.6 166.1 72.7 166.1 71.7 166.85 71.45 168.1 71.95 174.35 71.6 175.25 70.85 175.75 68.85 175.85 66.95 175.5 54.1 170.35 48.35 169.0 42.85 170.25 33.2 174.5 29.85 175.5 29.2 175.5 28.45 174.85 Q26.95 168.8 37.95 150.5 L37.9 150.35 35.85 143.35 35.2 136.6 Q36.45 128.25 40.2 118.85 L40.85 114.1 37.2 93.5 37.1 93.5 31.1 94.5 28.45 94.5 27.1 93.0 27.1 91.85 Q19.6 93.65 10.1 94.75 L-0.3 95.35 -1.4 95.5 -4.15 95.5 -14.9 94.6 -29.9 91.6 -31.05 93.0 Q-31.5 93.55 -38.65 91.85 L-38.8 91.85 -40.8 111.35 -40.15 117.6 -36.55 135.35 -36.4 139.75 -37.9 149.8 -38.05 150.75 -34.8 156.1 -27.55 164.35 -24.65 169.1 Q-23.15 171.45 -22.15 175.35 L-22.55 176.5 -23.9 176.85 -26.55 176.35 -38.65 172.0 -43.8 171.0 -46.8 171.35 Q-54.65 173.4 -61.05 176.75 L-63.3 177.25 Q-67.0 179.3 -67.4 170.6 L-67.55 170.5 -67.9 169.35 -68.55 168.85 -70.15 168.25 -80.8 168.5 -91.55 169.5 -94.05 169.1 -94.55 168.6 -94.55 167.85 Q-86.35 159.75 -57.9 151.1 L-49.15 145.6 -47.05 143.35 -45.8 139.75 -45.65 135.25 -49.15 116.25 Q-49.7 115.55 -49.15 91.1 L-56.55 92.35 -58.65 92.1 -59.4 90.75 -59.4 89.85 -57.75 84.3 -57.4 83.0 Q-92.85 68.8 -112.55 40.35 L-114.8 36.85 -121.65 21.25 Q-122.65 21.85 -123.15 1.0 L-122.55 -6.15 -122.65 -6.15 -128.3 3.75 -135.3 13.75 -137.3 15.6 -139.05 16.1 -139.6 15.65 -139.65 15.6 Q-143.8 23.85 -145.9 25.6 -148.4 28.55 -150.4 25.75 L-150.9 23.75 Q-157.35 33.35 -159.05 29.5 -159.5 25.25 -158.65 22.0 L-152.55 -3.75 Q-146.05 -31.5 -123.55 -62.75 -109.3 -77.85 -97.05 -85.15 L-91.4 -88.25 -76.8 -95.0 -69.4 -100.25 -57.4 -107.5 -36.1 -117.2 -36.05 -117.25 -35.9 -117.25 -32.05 -120.15 -30.8 -121.5 -30.65 -121.5 Q-19.25 -145.65 -27.55 -166.75 -30.65 -175.9 -32.3 -178.5 L-36.15 -185.15 Q-52.65 -203.8 -55.65 -210.4 L-55.8 -210.5 -56.3 -211.75 -56.4 -211.9 -56.8 -212.9 -56.9 -213.0 Q-61.35 -222.7 -60.55 -230.65 -82.85 -237.3 -81.9 -266.4 L-82.05 -266.5 -82.9 -267.75 -83.05 -269.15 -82.05 -271.0 Q-83.8 -292.45 -42.55 -291.15 -24.35 -289.9 -22.4 -285.15 L-22.3 -285.15 Q-13.0 -288.85 0.1 -287.75 L-2.15 -286.25 -5.3 -281.25 -6.4 -277.25 -6.9 -274.9 -7.05 -271.9 -7.05 -266.75 -6.15 -258.65 -6.15 -258.0 -3.55 -245.4 -0.65 -238.5 3.45 -234.25 Q11.65 -226.25 32.6 -230.75 L38.7 -232.25 48.7 -236.65 51.35 -238.75 M54.45 -279.5 L52.1 -283.0 Q44.35 -289.15 28.1 -288.25 11.5 -288.9 3.7 -283.0 L3.1 -282.65 0.85 -278.75 -0.65 -272.75 -0.8 -266.75 0.7 -252.65 1.35 -250.5 2.1 -246.65 3.95 -242.4 4.2 -241.5 7.1 -237.9 11.85 -235.15 16.35 -234.25 16.95 -234.0 24.45 -234.25 Q44.85 -236.95 48.2 -242.4 48.95 -242.1 52.2 -247.5 L54.35 -254.5 55.85 -269.9 55.6 -274.9 54.45 -279.5 M61.45 -274.65 L61.6 -268.75 M32.6 -230.75 L27.95 -228.15 24.6 -226.75 22.95 -224.5 5.95 -209.9 Q6.0 -209.25 -2.65 -203.65 L-8.55 -202.15 -13.8 -203.65 -14.8 -204.25 -22.15 -209.9 -31.55 -218.0 -33.4 -219.9 -44.05 -226.15 -46.8 -228.25 -51.3 -228.65 -60.55 -230.65 M96.7 -50.65 L100.2 -47.4 102.7 -44.4 105.35 -39.25 115.45 -14.9 118.6 -1.0 122.1 9.5 122.55 11.45 M143.95 16.1 L142.85 17.6 140.5 33.35 M159.6 31.85 L158.95 33.85 157.85 42.0 157.4 53.15 M37.1 93.5 L37.2 93.35 42.6 93.0 47.85 93.85 M37.2 93.35 L37.2 93.5 M54.85 84.25 L48.1 86.5 27.1 91.85 M38.1 149.5 L38.1 149.85 37.9 150.35 M-81.9 -266.4 L-81.9 -266.65 -82.05 -266.5 M-82.05 -271.0 L-81.9 -266.65 M-22.3 -285.0 L-19.65 -280.9 -18.3 -275.5 -12.8 -276.9 -6.4 -277.25 M-17.9 -271.25 L-18.55 -271.9 -18.8 -272.9 -18.3 -275.5 M-22.3 -285.0 L-22.3 -285.15 M-24.8 -274.9 L-24.15 -272.25 -24.4 -258.65 -26.05 -246.5 -27.55 -242.4 Q-29.9 -235.7 -35.3 -234.25 -46.55 -231.25 -56.8 -234.25 -69.3 -237.45 -71.3 -242.4 L-73.05 -245.15 -75.8 -254.9 -76.9 -266.75 -76.8 -272.15 -76.15 -274.9 Q-76.1 -276.5 -73.8 -280.15 L-69.8 -283.0 Q-64.1 -285.4 -58.65 -285.75 L-43.05 -286.4 -37.55 -285.9 Q-30.65 -284.6 -29.8 -283.0 L-27.9 -281.75 Q-24.5 -276.95 -24.8 -274.9 M-22.3 -285.0 L-22.4 -285.15 M-7.05 -271.9 Q-11.6 -274.45 -12.9 -274.25 L-17.9 -271.25 -17.8 -266.75 -17.65 -266.0 -17.05 -263.75 -16.9 -258.65 -17.4 -254.75 Q-16.55 -256.2 -14.15 -257.4 L-11.05 -258.65 -9.55 -258.9 -8.05 -258.65 -6.15 -258.0 M-19.05 -251.65 L-19.4 -250.5 -20.55 -244.9 -23.15 -237.9 -28.4 -232.0 -31.9 -229.9 -37.65 -228.4 Q-45.85 -227.7 -46.8 -228.25 M-17.4 -254.75 L-19.05 -251.65 -17.65 -266.0 M-23.85 -215.7 Q-27.2 -216.35 -29.55 -218.0 L-33.4 -219.9 M-23.85 -215.7 L-20.3 -212.75 M24.6 -226.75 L-2.8 -218.0 Q-8.6 -216.3 -13.35 -215.65 L-13.85 -215.55 -14.6 -215.45 -15.35 -215.4 -23.85 -215.7 M-36.1 -117.2 L-38.55 -115.25 M-98.05 -57.0 L-103.8 -51.75 -106.15 -47.4 -119.9 -14.9 -122.55 -6.75 M-122.55 -6.15 L-122.55 -6.5 -122.65 -6.15 M-139.6 15.65 L-140.05 13.6 -138.3 -6.75 -138.55 -11.15 -139.4 -14.5 M-147.3 -7.65 L-147.15 -6.75 -147.8 1.35 -150.9 23.75 M-57.75 84.3 L-57.05 83.15 -57.4 83.0 M-49.15 91.1 L-44.15 90.85 -38.8 91.75 -38.65 91.85 M-29.9 91.6 L-40.15 88.85 -57.05 83.15 M-38.8 91.75 L-38.8 91.85 M-38.3 149.6 L-38.05 150.35 -37.9 149.8" fill="none" stroke="#000000" stroke-linecap="round" stroke-linejoin="round" stroke-width="2.15"/>
  </g>
</svg>
