<?xml version="1.0" encoding="UTF-8" standalone="no"?>
<svg xmlns:xlink="http://www.w3.org/1999/xlink" height="480.6px" width="333.95px" xmlns="http://www.w3.org/2000/svg">
  <g transform="matrix(1.0, 0.0, 0.0, 1.0, 161.95, 302.1)">
    <path d="M-16.9 -291.9 Q-17.5 -293.4 -10.3 -297.4 L-2.8 -299.65 Q21.4 -302.6 34.85 -299.25 L38.1 -298.4 43.2 -295.5 46.35 -291.15 Q48.5 -284.05 47.95 -283.4 L47.6 -271.0 47.95 -283.4 Q50.2 -282.6 49.95 -280.0 L47.6 -271.0 45.6 -259.5 45.1 -258.65 43.6 -254.5 42.6 -252.9 43.6 -254.5 45.1 -258.65 45.6 -259.5 46.95 -239.75 Q47.4 -236.35 46.6 -234.65 L45.85 -242.4 43.6 -250.5 42.6 -252.9 40.85 -250.5 Q37.35 -246.0 31.85 -243.5 L29.6 -242.4 Q16.1 -236.85 1.6 -237.5 L-4.9 -238.9 Q-8.35 -240.4 -10.05 -242.4 L-13.9 -246.5 -16.9 -253.5 -19.3 -265.0 -20.55 -279.65 -19.8 -284.75 -20.55 -279.65 Q-26.75 -283.9 -29.65 -279.15 L-30.8 -278.4 -30.65 -274.9 -31.9 -258.65 -33.9 -249.5 -35.0 -246.3 -35.2 -245.8 -35.0 -246.3 -35.15 -245.9 -35.2 -245.8 -35.65 -245.25 -36.65 -244.15 -38.15 -242.4 -38.55 -241.75 -38.9 -241.25 -39.05 -241.15 -39.45 -240.5 -39.5 -240.45 -39.65 -240.25 -39.65 -240.15 -39.8 -240.15 -39.9 -240.0 -40.05 -239.9 -40.05 -239.75 -40.3 -239.5 -40.55 -239.25 -40.55 -239.15 -40.6 -239.05 -40.8 -238.8 -40.8 -238.75 -40.95 -238.6 -41.4 -238.15 Q-43.35 -236.65 -48.4 -235.4 L-55.9 -234.65 -63.4 -235.15 Q-74.05 -235.9 -82.65 -243.65 -88.5 -249.4 -90.05 -271.15 L-90.15 -271.4 -90.65 -272.15 -90.8 -273.5 -90.15 -274.75 Q-90.05 -291.2 -75.9 -293.9 -63.5 -297.4 -46.3 -296.9 L-40.15 -295.5 Q-33.3 -291.95 -34.4 -291.15 L-32.3 -287.65 -31.3 -283.0 -31.15 -282.75 -31.8 -280.25 -30.8 -278.4 -31.8 -280.25 -31.15 -282.75 -26.05 -284.25 -19.8 -284.75 -19.05 -288.4 -16.9 -291.9 M40.6 -288.5 L41.95 -283.0 41.95 -274.9 40.35 -261.25 38.45 -256.0 Q35.45 -250.75 33.95 -250.5 25.0 -242.85 5.35 -242.4 L3.45 -242.4 -2.05 -243.4 -6.15 -245.65 -9.05 -249.25 -11.3 -254.5 -13.55 -266.75 -14.3 -274.9 -14.15 -280.75 -12.65 -286.75 Q-9.8 -292.1 -9.4 -291.15 -6.1 -296.7 21.45 -296.5 36.75 -295.45 38.85 -291.15 L40.6 -288.5 38.85 -291.15 Q36.75 -295.45 21.45 -296.5 -6.1 -296.7 -9.4 -291.15 -9.8 -292.1 -12.65 -286.75 L-14.15 -280.75 -14.3 -274.9 -13.55 -266.75 -11.3 -254.5 -9.05 -249.25 -6.15 -245.65 -2.05 -243.4 3.45 -242.4 5.35 -242.4 Q25.0 -242.85 33.95 -250.5 35.45 -250.75 38.45 -256.0 L40.35 -261.25 41.95 -274.9 41.95 -283.0 40.6 -288.5 M-90.05 -271.5 L-90.15 -274.75 -90.05 -271.5 -90.05 -271.15 -90.05 -271.5 -90.15 -271.4 -90.05 -271.5 M-84.65 -280.9 L-83.55 -283.0 Q-80.65 -289.2 -68.8 -291.15 L-51.05 -292.4 -44.3 -291.15 -40.4 -288.75 Q-37.55 -284.4 -37.65 -283.0 L-36.8 -279.4 -36.9 -266.75 -38.3 -254.5 -39.55 -250.5 Q-39.25 -248.95 -42.65 -244.15 L-45.15 -242.4 Q-55.8 -236.15 -73.4 -242.4 -75.75 -242.7 -79.3 -246.25 L-81.9 -250.5 -83.4 -254.65 -85.15 -266.75 -85.4 -274.9 -84.65 -280.9 -85.4 -274.9 -85.15 -266.75 -83.4 -254.65 -81.9 -250.5 -79.3 -246.25 Q-75.75 -242.7 -73.4 -242.4 -55.8 -236.15 -45.15 -242.4 L-42.65 -244.15 Q-39.25 -248.95 -39.55 -250.5 L-38.3 -254.5 -36.9 -266.75 -36.8 -279.4 -37.65 -283.0 Q-37.55 -284.4 -40.4 -288.75 L-44.3 -291.15 -51.05 -292.4 -68.8 -291.15 Q-80.65 -289.2 -83.55 -283.0 L-84.65 -280.9" fill="#43396f" fill-rule="evenodd" stroke="none"/>
    <path d="M-16.9 -291.9 L-19.05 -288.4 -19.8 -284.75 -26.05 -284.25 -31.15 -282.75 -31.3 -283.0 -32.3 -287.65 Q-28.05 -289.7 -22.8 -291.0 L-16.9 -291.9 M-20.55 -279.65 L-19.3 -265.0 -22.4 -264.5 Q-24.1 -264.2 -27.05 -261.15 L-26.8 -266.75 -27.65 -273.5 -28.15 -274.9 -28.9 -278.15 -29.65 -279.15 Q-26.75 -283.9 -20.55 -279.65 M31.85 -243.5 Q37.35 -246.0 40.85 -250.5 L42.6 -252.9 43.6 -250.5 45.85 -242.4 46.6 -234.65 46.2 -228.25 Q45.95 -224.2 43.7 -217.9 43.9 -215.0 26.35 -190.15 L21.85 -180.4 18.6 -170.75 Q13.0 -154.55 19.7 -132.75 L22.7 -128.0 Q25.7 -124.85 30.7 -121.4 40.65 -117.3 60.35 -105.65 L70.1 -98.4 82.35 -87.4 88.35 -83.75 97.95 -76.65 109.1 -65.9 129.7 -42.5 138.7 -30.15 Q152.1 -11.15 163.95 18.85 166.2 24.1 168.95 38.35 L170.85 58.1 170.95 80.75 Q169.4 104.5 168.1 107.25 164.95 118.3 160.35 110.6 155.0 102.4 151.45 74.5 L150.35 66.5 150.2 66.5 149.95 66.5 146.95 77.1 Q145.6 80.35 144.2 81.1 141.45 83.6 138.7 80.1 135.7 74.05 135.2 68.75 L133.45 42.0 132.85 40.05 132.85 40.0 Q129.9 48.3 128.7 49.35 L126.6 51.0 124.6 50.5 Q121.25 49.05 118.2 33.85 L117.35 29.25 117.1 29.15 116.95 29.1 Q118.85 30.1 106.2 49.1 L91.45 63.6 76.45 75.0 Q65.7 81.8 51.45 85.85 58.4 102.1 44.6 96.35 L39.1 95.25 34.1 95.5 27.35 96.5 24.85 96.35 23.95 95.1 23.85 92.6 14.85 94.25 2.95 95.6 2.6 95.75 0.6 95.75 -6.4 96.25 -10.8 95.85 -11.4 95.85 -11.55 95.75 -21.3 94.6 -33.15 92.0 -34.05 93.1 Q-35.75 93.65 -41.15 92.0 L-41.3 92.0 -41.3 91.85 -41.15 92.0 -41.3 91.85 -46.9 90.75 -51.4 90.75 -51.65 90.85 -59.4 91.85 -61.55 91.6 Q-63.65 90.9 -59.8 83.0 -95.4 67.85 -114.55 38.25 L-117.15 33.85 -123.05 18.5 -124.05 12.85 -123.8 -4.0 -123.3 -8.15 -123.4 -8.15 Q-135.0 12.9 -139.6 15.4 L-139.8 15.5 -145.15 25.5 Q-149.15 31.4 -151.65 29.6 L-151.8 29.6 Q-160.75 44.35 -160.9 34.1 L-159.55 27.0 Q-152.8 0.8 -150.05 -7.15 -139.9 -37.85 -117.8 -70.25 L-117.65 -70.4 -117.15 -71.0 -117.05 -71.15 -116.15 -72.0 -116.05 -72.0 Q-105.9 -83.6 -96.3 -88.9 L-91.05 -91.9 -73.9 -99.0 -60.9 -106.75 Q-55.4 -109.9 -39.4 -116.75 L-39.05 -116.9 Q-33.8 -121.25 -32.55 -124.15 L-29.8 -131.65 Q-24.25 -155.15 -31.4 -171.15 L-35.3 -180.65 -39.65 -188.25 -41.9 -191.4 -52.4 -203.25 Q-55.75 -207.15 -58.8 -212.5 -64.75 -223.95 -63.4 -235.15 L-55.9 -234.65 -55.55 -234.25 -51.8 -230.65 Q-46.95 -227.8 -44.7 -226.8 -42.95 -226.05 -42.9 -226.5 L-38.65 -222.15 -30.55 -214.9 -24.8 -210.5 -23.4 -209.9 Q-15.85 -206.15 -11.05 -209.9 L-4.65 -214.5 14.45 -231.4 15.95 -233.25 15.85 -233.65 17.2 -234.25 Q33.1 -240.95 31.95 -242.4 L32.2 -243.15 31.85 -243.5 M150.2 66.5 L151.1 62.35 153.1 56.85 155.1 54.35 153.1 56.85 151.1 62.35 150.2 66.5 M137.6 30.25 L135.2 33.85 132.85 40.05 135.2 33.85 137.6 30.25 M117.1 29.15 L116.7 25.75 111.6 1.35 109.85 -4.9 109.7 -6.75 105.2 -23.0 99.2 -39.25 Q99.95 -39.05 95.2 -45.75 L93.85 -47.4 91.7 -49.5 93.85 -47.4 95.2 -45.75 Q99.95 -39.05 99.2 -39.25 L105.2 -23.0 109.7 -6.75 109.85 -4.9 111.6 1.35 116.7 25.75 117.1 29.15 M23.85 92.6 L47.1 87.25 51.45 85.85 47.1 87.25 23.85 92.6 M-59.8 83.0 L-42.55 89.25 -33.15 92.0 -42.55 89.25 -59.8 83.0 M-123.4 -8.15 L-123.3 -8.5 -122.9 -11.4 -118.8 -23.0 -105.55 -53.15 -103.9 -55.5 -98.3 -61.75 -103.9 -55.5 -105.55 -53.15 -118.8 -23.0 -122.9 -11.4 -123.3 -8.5 -123.3 -8.15 -123.3 -8.5 -123.4 -8.15 M-139.6 15.4 L-140.9 15.6 -141.55 14.5 -141.4 9.5 -139.3 -6.75 -139.3 -11.75 -139.8 -14.15 -139.3 -11.75 -139.3 -6.75 -141.4 9.5 -141.55 14.5 -140.9 15.6 -139.6 15.4 M-117.05 -71.15 L-116.9 -71.15 -116.65 -71.4 -116.4 -71.75 -116.3 -71.75 -116.65 -71.4 -116.3 -71.75 -116.4 -71.75 -116.65 -71.4 -116.9 -71.15 -117.15 -71.0 -116.9 -71.15 -117.05 -71.15 M-39.4 -116.75 L-41.8 -114.75 -39.4 -116.75 M-10.8 95.85 L0.6 95.75 -10.8 95.85 M-151.8 29.6 L-152.3 28.6 -152.4 25.75 -148.3 1.35 -147.65 -4.5 -148.3 1.35 -152.4 25.75 -152.3 28.6 -151.8 29.6" fill="#ffffff" fill-rule="evenodd" stroke="none"/>
    <path d="M-19.3 -265.0 L-16.9 -253.5 -13.9 -246.5 -10.05 -242.4 Q-8.35 -240.4 -4.9 -238.9 L1.6 -237.5 Q16.1 -236.85 29.6 -242.4 L31.85 -243.5 32.2 -243.15 31.95 -242.4 Q33.1 -240.95 17.2 -234.25 L15.85 -233.65 Q-7.7 -229.55 -21.85 -227.65 L-25.1 -227.25 -40.05 -226.05 Q-42.2 -226.1 -42.9 -226.5 -42.95 -226.05 -44.7 -226.8 -46.95 -227.8 -51.8 -230.65 L-55.55 -234.25 -55.9 -234.65 -48.4 -235.4 Q-43.35 -236.65 -41.4 -238.15 L-40.95 -238.6 -40.8 -238.75 -41.0 -238.5 -40.95 -238.6 -41.0 -238.5 -40.8 -238.75 -40.8 -238.8 -40.6 -239.05 -40.55 -239.15 -40.55 -239.25 -40.3 -239.5 -40.05 -239.75 -40.05 -239.9 -39.9 -240.0 -39.8 -240.15 -39.65 -240.15 -39.65 -240.25 -39.5 -240.45 -39.45 -240.5 -39.05 -241.15 -38.9 -241.25 -38.55 -241.75 -38.15 -242.4 -36.65 -244.15 -35.65 -245.25 -35.2 -245.8 -35.4 -245.4 -36.35 -244.3 -37.0 -243.35 -37.65 -242.4 -38.05 -242.25 -38.1 -241.9 -38.15 -241.65 -38.6 -241.2 -39.1 -240.7 -39.4 -240.4 -39.55 -240.15 -39.55 -240.0 -39.65 -240.15 -39.55 -240.0 -39.55 -240.15 -39.4 -240.4 -39.1 -240.7 -38.6 -241.2 -38.15 -241.65 -38.1 -241.9 -38.05 -242.25 -37.65 -242.4 -37.0 -243.35 -36.35 -244.3 -35.4 -245.4 -35.2 -245.8 -35.15 -245.9 -35.0 -246.3 -33.9 -249.5 -33.4 -249.75 -33.15 -250.5 -29.3 -256.65 -27.05 -261.15 Q-24.1 -264.2 -22.4 -264.5 L-19.3 -265.0 M44.6 96.35 L45.6 118.75 44.95 121.75 40.35 133.25 40.35 136.0 41.1 137.85 42.95 140.25 55.85 148.35 68.2 152.85 Q74.65 155.55 80.35 159.0 L86.45 163.0 Q89.5 165.1 90.35 166.75 L90.35 167.35 89.85 167.85 86.2 168.0 70.85 165.5 66.35 165.35 64.95 166.25 Q64.35 166.3 64.7 171.6 66.35 179.15 53.95 172.0 L47.2 168.75 41.1 167.0 36.1 167.85 Q31.95 168.9 24.85 172.25 L23.45 172.6 21.45 172.5 Q19.4 166.3 32.6 147.35 L32.7 147.25 32.7 147.1 32.85 146.85 31.2 139.6 Q30.45 132.6 31.2 131.6 32.35 126.4 36.45 120.0 L37.1 117.5 36.6 111.25 34.1 95.5 39.1 95.25 44.6 96.35 M-41.3 92.0 L-42.9 110.5 -41.8 117.75 Q-37.0 131.55 -36.9 133.6 L-36.65 138.5 -37.65 147.6 -37.55 149.75 -33.65 156.0 -25.8 164.75 -22.65 169.6 Q-19.85 174.9 -20.3 175.5 L-21.15 176.5 -23.3 176.35 -36.65 172.0 -43.3 170.85 -48.3 172.1 Q-61.9 178.25 -61.55 177.35 L-64.05 177.0 Q-64.85 176.6 -66.4 169.75 L-68.4 168.35 Q-79.75 168.35 -88.8 169.85 L-92.15 169.75 -93.3 169.1 Q-89.9 162.1 -59.55 152.1 L-51.4 146.5 Q-49.35 145.3 -47.05 142.35 L-46.05 139.6 -45.9 134.75 -50.15 120.35 -51.4 112.75 -51.65 90.85 -51.4 90.75 -46.9 90.75 -41.3 91.85 -41.3 92.0 M32.7 147.1 L32.85 147.0 32.85 146.85 32.95 145.5 32.85 146.85 32.85 147.0 32.7 147.1 M-41.0 -238.5 L-41.55 -237.75 -41.4 -238.15 -41.55 -237.75 -41.0 -238.5 M-41.55 -237.75 L-44.05 -234.25 Q-47.75 -229.65 -44.7 -226.8 -47.75 -229.65 -44.05 -234.25 L-41.55 -237.75 M-40.4 -226.4 L-40.15 -226.15 -40.05 -226.05 -40.15 -226.15 -40.4 -226.4 M-17.8 -228.65 L-17.3 -228.65 -17.8 -228.65 M-22.55 -227.9 L-21.85 -227.65 -22.55 -227.9 M-27.3 -227.25 L-25.1 -227.25 -27.3 -227.25 M-39.1 -240.7 L-39.45 -240.5 -39.1 -240.7 M-40.3 -239.5 L-39.9 -239.65 -39.65 -240.0 -40.05 -239.75 -39.65 -240.0 -39.9 -239.65 -40.3 -239.5 M-39.4 -240.4 L-39.65 -240.25 -39.4 -240.4 M-38.9 -241.25 L-38.6 -241.2 -38.9 -241.25 M-36.25 -244.4 L-35.65 -245.25 -36.25 -244.4 -36.35 -244.3 -36.25 -244.4 -36.65 -244.15 -36.25 -244.4 M-38.05 -242.25 L-38.05 -242.4 -37.55 -243.0 -37.0 -243.35 -37.55 -243.0 -38.05 -242.4 -38.05 -242.25 M-38.1 -241.9 L-38.55 -241.75 -38.1 -241.9" fill="#fa410f" fill-rule="evenodd" stroke="none"/>
    <path d="M15.85 -233.65 L15.95 -233.25 14.45 -231.4 -4.65 -214.5 -11.05 -209.9 Q-15.85 -206.15 -23.4 -209.9 L-24.8 -210.5 -30.55 -214.9 -38.65 -222.15 -42.9 -226.5 Q-42.2 -226.1 -40.05 -226.05 L-25.1 -227.25 -21.85 -227.65 Q-7.7 -229.55 15.85 -233.65 M-32.3 -219.75 L-38.65 -224.5 -40.05 -226.05 -38.65 -224.5 -32.3 -219.75" fill="#fa420e" fill-rule="evenodd" stroke="none"/>
    <path d="M-33.9 -249.5 L-31.9 -258.65 -30.65 -274.9 -30.8 -278.4 -29.65 -279.15 -28.9 -278.15 -28.15 -274.9 -27.65 -273.5 -26.8 -266.75 -27.05 -261.15 -29.3 -256.65 -33.15 -250.5 -33.4 -249.75 -33.9 -249.5" fill="#ff7a16" fill-rule="evenodd" stroke="none"/>
    <path d="M47.95 -283.4 Q48.5 -284.05 46.35 -291.15 L43.2 -295.5 38.1 -298.4 34.85 -299.25 Q21.4 -302.6 -2.8 -299.65 L-10.3 -297.4 Q-17.5 -293.4 -16.9 -291.9 L-19.05 -288.4 -19.8 -284.75 -20.55 -279.65 -19.3 -265.0 -16.9 -253.5 -13.9 -246.5 -10.05 -242.4 Q-8.35 -240.4 -4.9 -238.9 L1.6 -237.5 Q16.1 -236.85 29.6 -242.4 L31.85 -243.5 Q37.35 -246.0 40.85 -250.5 L42.6 -252.9 43.6 -254.5 45.1 -258.65 45.6 -259.5 47.6 -271.0 47.95 -283.4 Q50.2 -282.6 49.95 -280.0 L47.6 -271.0 M40.6 -288.5 L38.85 -291.15 Q36.75 -295.45 21.45 -296.5 -6.1 -296.7 -9.4 -291.15 -9.8 -292.1 -12.65 -286.75 L-14.15 -280.75 -14.3 -274.9 -13.55 -266.75 -11.3 -254.5 -9.05 -249.25 -6.15 -245.65 -2.05 -243.4 3.45 -242.4 5.35 -242.4 Q25.0 -242.85 33.95 -250.5 35.45 -250.75 38.45 -256.0 L40.35 -261.25 41.95 -274.9 41.95 -283.0 40.6 -288.5 M46.6 -234.65 L45.85 -242.4 43.6 -250.5 42.6 -252.9 M15.85 -233.65 L17.2 -234.25 Q33.1 -240.95 31.95 -242.4 L32.2 -243.15 31.85 -243.5 M-42.9 -226.5 L-38.65 -222.15 -30.55 -214.9 -24.8 -210.5 -23.4 -209.9 Q-15.85 -206.15 -11.05 -209.9 L-4.65 -214.5 14.45 -231.4 15.95 -233.25 15.85 -233.65 Q-7.7 -229.55 -21.85 -227.65 L-25.1 -227.25 -40.05 -226.05 -38.65 -224.5 -32.3 -219.75 M46.6 -234.65 L46.2 -228.25 Q45.95 -224.2 43.7 -217.9 43.9 -215.0 26.35 -190.15 L21.85 -180.4 18.6 -170.75 Q13.0 -154.55 19.7 -132.75 L22.7 -128.0 Q25.7 -124.85 30.7 -121.4 40.65 -117.3 60.35 -105.65 L70.1 -98.4 82.35 -87.4 88.35 -83.75 97.95 -76.65 109.1 -65.9 129.7 -42.5 138.7 -30.15 Q152.1 -11.15 163.95 18.85 166.2 24.1 168.95 38.35 L170.85 58.1 170.95 80.75 Q169.4 104.5 168.1 107.25 164.95 118.3 160.35 110.6 155.0 102.4 151.45 74.5 L150.35 66.5 150.2 66.5 149.95 66.5 146.95 77.1 Q145.6 80.35 144.2 81.1 141.45 83.6 138.7 80.1 135.7 74.05 135.2 68.75 L133.45 42.0 132.85 40.05 132.85 40.0 Q129.9 48.3 128.7 49.35 L126.6 51.0 124.6 50.5 Q121.25 49.05 118.2 33.85 L117.35 29.25 117.1 29.15 116.95 29.1 Q118.85 30.1 106.2 49.1 L91.45 63.6 76.45 75.0 Q65.7 81.8 51.45 85.85 58.4 102.1 44.6 96.35 L45.6 118.75 44.95 121.75 40.35 133.25 40.35 136.0 41.1 137.85 42.95 140.25 55.85 148.35 68.2 152.85 Q74.65 155.55 80.35 159.0 L86.45 163.0 Q89.5 165.1 90.35 166.75 L90.35 167.35 89.85 167.85 86.2 168.0 70.85 165.5 66.35 165.35 64.95 166.25 Q64.35 166.3 64.7 171.6 66.35 179.15 53.95 172.0 L47.2 168.75 41.1 167.0 36.1 167.85 Q31.95 168.9 24.85 172.25 L23.45 172.6 21.45 172.5 Q19.4 166.3 32.6 147.35 L32.7 147.25 32.7 147.1 32.85 146.85 31.2 139.6 Q30.45 132.6 31.2 131.6 32.35 126.4 36.45 120.0 L37.1 117.5 36.6 111.25 34.1 95.5 27.35 96.5 24.85 96.35 23.95 95.1 23.85 92.6 14.85 94.25 2.95 95.6 2.6 95.75 0.6 95.75 -6.4 96.25 -10.8 95.85 -11.4 95.85 -11.55 95.75 -21.3 94.6 -33.15 92.0 -34.05 93.1 Q-35.75 93.65 -41.15 92.0 L-41.3 92.0 -42.9 110.5 -41.8 117.75 Q-37.0 131.55 -36.9 133.6 L-36.65 138.5 -37.65 147.6 -37.55 149.75 -33.65 156.0 -25.8 164.75 -22.65 169.6 Q-19.85 174.9 -20.3 175.5 L-21.15 176.5 -23.3 176.35 -36.65 172.0 -43.3 170.85 -48.3 172.1 Q-61.9 178.25 -61.55 177.35 L-64.05 177.0 Q-64.85 176.6 -66.4 169.75 L-68.4 168.35 Q-79.75 168.35 -88.8 169.85 L-92.15 169.75 -93.3 169.1 Q-89.9 162.1 -59.55 152.1 L-51.4 146.5 Q-49.35 145.3 -47.05 142.35 L-46.05 139.6 -45.9 134.75 -50.15 120.35 -51.4 112.75 -51.65 90.85 -59.4 91.85 -61.55 91.6 Q-63.65 90.9 -59.8 83.0 -95.4 67.85 -114.55 38.25 L-117.15 33.85 -123.05 18.5 -124.05 12.85 -123.8 -4.0 -123.3 -8.15 -123.4 -8.15 Q-135.0 12.9 -139.6 15.4 L-139.8 15.5 -145.15 25.5 Q-149.15 31.4 -151.65 29.6 L-151.8 29.6 Q-160.75 44.35 -160.9 34.1 L-159.55 27.0 Q-152.8 0.8 -150.05 -7.15 -139.9 -37.85 -117.8 -70.25 L-117.65 -70.4 -117.15 -71.0 -117.05 -71.15 -116.15 -72.0 -116.05 -72.0 Q-105.9 -83.6 -96.3 -88.9 L-91.05 -91.9 -73.9 -99.0 -60.9 -106.75 Q-55.4 -109.9 -39.4 -116.75 L-39.05 -116.9 Q-33.8 -121.25 -32.55 -124.15 L-29.8 -131.65 Q-24.25 -155.15 -31.4 -171.15 L-35.3 -180.65 -39.65 -188.25 -41.9 -191.4 -52.4 -203.25 Q-55.75 -207.15 -58.8 -212.5 -64.75 -223.95 -63.4 -235.15 -74.05 -235.9 -82.65 -243.65 -88.5 -249.4 -90.05 -271.15 L-90.15 -271.4 -90.65 -272.15 -90.8 -273.5 -90.15 -274.75 Q-90.05 -291.2 -75.9 -293.9 -63.5 -297.4 -46.3 -296.9 L-40.15 -295.5 Q-33.3 -291.95 -34.4 -291.15 L-32.3 -287.65 Q-28.05 -289.7 -22.8 -291.0 L-16.9 -291.9 M45.6 -259.5 L46.95 -239.75 Q47.4 -236.35 46.6 -234.65 M91.7 -49.5 L93.85 -47.4 95.2 -45.75 Q99.95 -39.05 99.2 -39.25 L105.2 -23.0 109.7 -6.75 109.85 -4.9 111.6 1.35 116.7 25.75 117.1 29.15 M132.85 40.05 L135.2 33.85 137.6 30.25 M155.1 54.35 L153.1 56.85 151.1 62.35 150.2 66.5 M34.1 95.5 L39.1 95.25 44.6 96.35 M51.45 85.85 L47.1 87.25 23.85 92.6 M32.95 145.5 L32.85 146.85 32.85 147.0 32.7 147.1 M-84.65 -280.9 L-85.4 -274.9 -85.15 -266.75 -83.4 -254.65 -81.9 -250.5 -79.3 -246.25 Q-75.75 -242.7 -73.4 -242.4 -55.8 -236.15 -45.15 -242.4 L-42.65 -244.15 Q-39.25 -248.95 -39.55 -250.5 L-38.3 -254.5 -36.9 -266.75 -36.8 -279.4 -37.65 -283.0 Q-37.55 -284.4 -40.4 -288.75 L-44.3 -291.15 -51.05 -292.4 -68.8 -291.15 Q-80.65 -289.2 -83.55 -283.0 L-84.65 -280.9 M-90.05 -271.15 L-90.05 -271.5 -90.15 -271.4 M-90.15 -274.75 L-90.05 -271.5 M-31.15 -282.75 L-31.3 -283.0 -32.3 -287.65 M-30.8 -278.4 L-31.8 -280.25 -31.15 -282.75 -26.05 -284.25 -19.8 -284.75 M-29.65 -279.15 L-30.8 -278.4 -30.65 -274.9 -31.9 -258.65 -33.9 -249.5 -33.4 -249.75 -33.15 -250.5 -29.3 -256.65 -27.05 -261.15 -26.8 -266.75 -27.65 -273.5 -28.15 -274.9 -28.9 -278.15 -29.65 -279.15 Q-26.75 -283.9 -20.55 -279.65 M-27.05 -261.15 Q-24.1 -264.2 -22.4 -264.5 L-19.3 -265.0 M-40.8 -238.75 L-40.95 -238.6 -41.0 -238.5 -40.8 -238.75 -40.8 -238.8 -40.6 -239.05 -40.55 -239.15 -40.55 -239.25 -40.3 -239.5 -40.05 -239.75 -40.05 -239.9 -39.9 -240.0 -39.8 -240.15 -39.65 -240.15 -39.65 -240.25 -39.5 -240.45 -39.45 -240.5 -39.05 -241.15 -38.9 -241.25 -38.55 -241.75 -38.15 -242.4 -36.65 -244.15 -35.65 -245.25 -35.2 -245.8 -35.0 -246.3 -33.9 -249.5 M-41.4 -238.15 L-41.55 -237.75 -41.0 -238.5 M-40.95 -238.6 L-41.4 -238.15 Q-43.35 -236.65 -48.4 -235.4 L-55.9 -234.65 -55.55 -234.25 -51.8 -230.65 Q-46.95 -227.8 -44.7 -226.8 -47.75 -229.65 -44.05 -234.25 L-41.55 -237.75 M-44.7 -226.8 Q-42.95 -226.05 -42.9 -226.5 -42.2 -226.1 -40.05 -226.05 L-40.15 -226.15 -40.4 -226.4 M-55.9 -234.65 L-63.4 -235.15 M-17.3 -228.65 L-17.8 -228.65 M-35.2 -245.8 L-35.4 -245.4 -36.35 -244.3 -37.0 -243.35 -37.65 -242.4 -38.05 -242.25 -38.1 -241.9 -38.15 -241.65 -38.6 -241.2 -39.1 -240.7 -39.4 -240.4 -39.55 -240.15 -39.55 -240.0 -39.65 -240.15 M-35.2 -245.8 L-35.15 -245.9 -35.0 -246.3 M-38.55 -241.75 L-38.1 -241.9 M-37.0 -243.35 L-37.55 -243.0 -38.05 -242.4 -38.05 -242.25 M-36.35 -244.3 L-36.25 -244.4 -36.65 -244.15 M-35.65 -245.25 L-36.25 -244.4 M-38.6 -241.2 L-38.9 -241.25 M-39.65 -240.25 L-39.4 -240.4 M-40.05 -239.75 L-39.65 -240.0 -39.9 -239.65 -40.3 -239.5 M-39.45 -240.5 L-39.1 -240.7 M-25.1 -227.25 L-27.3 -227.25 M-21.85 -227.65 L-22.55 -227.9 M-41.8 -114.75 L-39.4 -116.75 M-116.4 -71.75 L-116.65 -71.4 -116.3 -71.75 -116.4 -71.75 M-116.65 -71.4 L-116.9 -71.15 -117.15 -71.0 M-116.9 -71.15 L-117.05 -71.15 M-98.3 -61.75 L-103.9 -55.5 -105.55 -53.15 -118.8 -23.0 -122.9 -11.4 -123.3 -8.5 -123.3 -8.15 M-139.8 -14.15 L-139.3 -11.75 -139.3 -6.75 -141.4 9.5 -141.55 14.5 -140.9 15.6 -139.6 15.4 M-123.3 -8.5 L-123.4 -8.15 M-33.15 92.0 L-42.55 89.25 -59.8 83.0 M-41.3 91.85 L-41.3 92.0 M-41.3 91.85 L-41.15 92.0 M-51.65 90.85 L-51.4 90.75 -46.9 90.75 -41.3 91.85 M-147.65 -4.5 L-148.3 1.35 -152.4 25.75 -152.3 28.6 -151.8 29.6 M0.6 95.75 L-10.8 95.85" fill="none" stroke="#000000" stroke-linecap="round" stroke-linejoin="round" stroke-width="2.15"/>
  </g>
</svg>
