<?xml version="1.0" encoding="UTF-8" standalone="no"?>
<svg xmlns:xlink="http://www.w3.org/1999/xlink" height="490.5px" width="328.35px" xmlns="http://www.w3.org/2000/svg">
  <g transform="matrix(1.0, 0.0, 0.0, 1.0, 165.8, 312.1)">
    <path d="M32.1 -280.65 L32.95 -291.15 32.85 -294.4 32.95 -291.15 32.1 -280.65 30.2 -270.75 28.6 -266.75 Q28.95 -266.35 25.35 -261.15 L20.1 -256.25 12.7 -252.5 2.1 -249.25 Q-16.55 -245.9 -21.65 -250.5 -22.85 -250.6 -27.8 -256.4 L-30.3 -262.4 -32.15 -271.65 -33.4 -283.0 -33.4 -288.65 -33.4 -291.15 -32.8 -293.65 -33.4 -291.15 -33.4 -288.65 -37.8 -290.4 -38.8 -290.25 -39.65 -289.5 -42.9 -286.9 -43.3 -274.9 -45.4 -260.5 -51.55 -258.25 -60.65 -254.5 -67.4 -250.5 -69.65 -248.75 -70.65 -246.9 Q-81.75 -247.6 -84.05 -250.5 L-86.8 -253.0 Q-89.35 -257.45 -89.15 -258.65 L-89.9 -260.9 -91.3 -274.9 -91.05 -283.0 -90.4 -286.25 Q-88.6 -290.85 -87.55 -291.15 -85.55 -296.1 -63.05 -299.25 L-58.65 -299.25 Q-49.9 -298.35 -49.15 -291.15 L-48.55 -287.75 -48.8 -274.9 -50.15 -263.15 -51.4 -258.65 -51.55 -258.25 -51.4 -258.65 -50.15 -263.15 -48.8 -274.9 -48.55 -287.75 -49.15 -291.15 Q-49.9 -298.35 -58.65 -299.25 L-63.05 -299.25 Q-85.55 -296.1 -87.55 -291.15 -88.6 -290.85 -90.4 -286.25 L-91.05 -283.0 -91.3 -274.9 -89.9 -260.9 -89.15 -258.65 Q-89.35 -257.45 -86.8 -253.0 L-84.05 -250.5 Q-81.75 -247.6 -70.65 -246.9 L-70.4 -245.65 -67.05 -242.4 Q-83.05 -241.9 -89.05 -249.4 -96.9 -259.55 -94.3 -287.65 -91.15 -297.5 -77.05 -300.9 -51.8 -307.95 -46.05 -299.25 L-44.15 -296.0 -43.15 -291.25 -43.05 -291.25 -38.65 -293.0 -35.55 -293.4 -32.8 -293.65 -32.65 -294.65 -31.9 -297.65 -28.8 -302.9 -23.15 -306.65 -16.3 -308.9 Q10.65 -313.9 26.35 -307.4 32.85 -303.65 32.85 -294.4 L34.35 -293.75 35.45 -291.4 39.1 -270.25 Q40.9 -264.55 42.95 -252.25 L44.35 -239.25 Q44.4 -237.2 40.2 -237.4 L40.2 -242.4 38.95 -250.5 37.7 -255.25 Q37.85 -259.55 36.45 -267.25 L32.1 -280.65 M7.7 -306.65 Q21.5 -307.35 25.6 -299.25 L26.7 -295.0 26.95 -288.4 25.95 -277.5 24.95 -272.4 22.7 -266.75 20.7 -263.4 Q16.15 -258.75 14.35 -258.65 10.15 -254.4 -11.3 -252.65 L-16.55 -253.65 Q-21.35 -255.4 -22.4 -258.65 L-23.4 -259.75 Q-26.05 -266.05 -25.65 -266.75 L-27.05 -274.9 -27.65 -283.0 -27.4 -291.15 -26.55 -295.15 -24.3 -299.25 Q-19.8 -306.6 7.7 -306.65 -19.8 -306.6 -24.3 -299.25 L-26.55 -295.15 -27.4 -291.15 -27.65 -283.0 -27.05 -274.9 -25.65 -266.75 Q-26.05 -266.05 -23.4 -259.75 L-22.4 -258.65 Q-21.35 -255.4 -16.55 -253.65 L-11.3 -252.65 Q10.15 -254.4 14.35 -258.65 16.15 -258.75 20.7 -263.4 L22.7 -266.75 24.95 -272.4 25.95 -277.5 26.95 -288.4 26.7 -295.0 25.6 -299.25 Q21.5 -307.35 7.7 -306.65 M-43.15 -291.25 L-43.15 -291.15 -43.4 -291.15 -44.05 -288.65 -42.9 -286.9 -44.05 -288.65 -43.4 -291.15 -43.15 -291.15 -43.15 -291.25 M-43.15 -291.15 L-43.05 -291.15 -43.05 -291.25 -43.05 -291.15 -43.15 -291.15" fill="#43396f" fill-rule="evenodd" stroke="none"/>
    <path d="M2.1 -249.25 L12.7 -252.5 11.95 -251.9 6.35 -249.65 3.2 -249.25 2.1 -249.25 M-45.4 -260.5 L-43.3 -274.9 -42.9 -286.9 -39.65 -289.5 -38.8 -288.4 -36.15 -278.9 -36.3 -268.25 -37.15 -266.75 -38.65 -264.75 -39.8 -263.25 Q-43.5 -260.65 -45.4 -260.5" fill="#ff7a16" fill-rule="evenodd" stroke="none"/>
    <path d="M37.7 -255.25 L38.95 -250.5 40.2 -242.4 40.2 -237.4 39.45 -229.25 37.85 -223.0 34.45 -215.5 Q21.7 -195.6 20.45 -191.9 L16.95 -183.65 14.2 -175.0 Q9.0 -158.05 15.1 -138.0 17.35 -133.3 19.1 -131.5 L26.95 -124.65 Q43.85 -116.6 59.2 -105.75 L64.95 -101.15 Q79.75 -84.8 94.35 -74.4 135.6 -28.05 146.85 2.85 L150.45 11.85 156.6 30.5 Q163.15 51.2 160.95 69.0 156.35 103.05 148.2 122.85 139.85 144.8 133.45 131.0 128.85 117.9 134.2 82.6 L134.45 76.75 134.15 75.9 134.1 75.85 126.85 86.5 Q123.65 90.9 121.7 91.6 L120.95 92.25 118.1 92.75 115.1 90.85 Q109.6 88.35 118.1 57.85 L118.2 57.6 118.95 54.0 119.45 46.25 118.95 43.9 118.95 43.85 114.1 49.85 Q110.95 53.4 108.35 54.75 L106.6 55.0 105.85 55.0 103.7 53.75 102.15 51.4 101.45 48.25 101.2 42.0 101.95 25.75 101.35 9.5 100.2 -2.0 95.95 -18.5 94.6 -26.65 90.35 -39.25 87.95 -43.9 85.6 -47.4 84.1 -49.15 85.6 -47.4 87.95 -43.9 90.35 -39.25 94.6 -26.65 95.95 -18.5 100.2 -2.0 101.35 9.5 101.95 25.75 101.2 42.0 101.45 48.25 102.15 51.4 102.1 51.35 101.2 52.85 86.85 66.6 71.2 78.0 56.6 84.6 47.2 87.6 39.1 89.75 20.35 93.35 39.1 89.75 47.2 87.6 49.1 90.35 49.85 92.25 49.85 92.85 48.95 93.35 49.2 99.1 48.1 100.6 Q46.65 101.15 39.95 99.0 L39.95 98.85 34.95 97.75 29.6 97.85 Q16.2 100.6 20.35 93.35 L8.1 95.25 -12.8 96.6 -15.05 96.6 -27.4 94.35 -36.8 92.0 -51.8 87.1 -62.3 82.6 -62.9 82.5 Q-102.0 63.45 -116.8 35.0 L-119.65 29.75 Q-126.3 9.85 -125.4 8.5 L-125.15 0.6 -123.4 -12.75 -123.55 -12.75 Q-133.85 4.25 -136.95 7.8 L-137.4 8.25 -146.05 23.35 Q-147.9 27.1 -152.3 30.85 L-157.3 38.85 -159.9 42.25 -162.55 44.75 Q-165.25 46.85 -164.65 40.5 -165.25 39.8 -154.55 7.35 L-148.05 -10.25 Q-125.75 -62.85 -117.65 -72.15 -109.35 -82.5 -108.3 -82.9 L-97.55 -91.65 -90.05 -95.9 Q-74.3 -99.9 -44.55 -115.4 L-44.05 -115.6 -43.8 -115.75 -39.8 -120.15 -39.4 -120.5 -39.3 -120.75 -39.4 -120.5 -39.8 -120.15 -39.3 -120.75 -39.3 -120.9 -39.05 -121.15 Q-26.4 -147.95 -32.3 -167.0 L-35.4 -178.25 -36.8 -181.9 -40.8 -189.75 -43.55 -194.0 Q-56.75 -208.45 -60.65 -216.65 -65.6 -224.9 -64.3 -240.15 L-62.7 -239.0 -62.15 -238.7 Q-60.65 -237.75 -59.55 -237.5 L-54.65 -236.4 -50.0 -232.15 -40.8 -223.15 -34.05 -218.0 Q-25.3 -212.5 -19.55 -218.0 L-13.3 -223.0 3.6 -238.0 Q6.9 -241.4 5.95 -241.25 L8.6 -242.4 Q23.7 -248.35 22.85 -250.5 L21.95 -251.25 17.35 -250.5 Q11.4 -247.65 3.2 -249.25 L6.35 -249.65 11.95 -251.9 12.7 -252.5 20.1 -256.25 25.35 -261.15 Q28.95 -266.35 28.6 -266.75 L30.2 -270.75 33.85 -264.9 37.7 -255.25 M-32.65 -294.65 L-32.8 -293.65 -35.55 -293.4 -32.65 -294.65 M-33.4 -288.65 L-33.4 -283.0 -32.15 -271.65 -34.4 -270.25 -36.3 -268.25 -36.15 -278.9 -38.8 -288.4 -39.65 -289.5 -38.8 -290.25 -37.8 -290.4 -33.4 -288.65 M-45.3 -114.4 L-44.05 -115.6 -45.3 -114.4 M121.85 41.0 L120.6 42.0 118.95 43.9 120.6 42.0 121.85 41.0 M-54.4 90.1 L-62.4 90.85 -64.9 90.6 -65.55 88.35 Q-65.6 87.05 -62.9 82.5 L-62.3 82.6 -51.8 87.1 -36.8 92.0 -37.8 93.0 Q-39.9 93.3 -44.05 91.85 L-44.15 91.75 -44.05 91.85 -44.15 91.85 -44.15 91.75 -51.4 90.0 -54.4 90.1 M-123.55 -12.75 L-123.4 -13.0 -123.4 -12.75 -123.4 -13.0 -123.55 -12.75 M-140.55 -14.9 L-140.3 -12.15 -144.05 9.5 Q-145.75 16.75 -138.65 9.5 L-136.95 7.8 -138.65 9.5 Q-145.75 16.75 -144.05 9.5 L-140.3 -12.15 -140.55 -14.9 M-123.3 -13.25 L-122.9 -16.65 -120.8 -23.0 -110.55 -47.4 -105.4 -57.4 -98.05 -67.0 -105.4 -57.4 -110.55 -47.4 -120.8 -23.0 -122.9 -16.65 -123.3 -13.25 M-152.3 30.85 Q-157.3 32.4 -155.3 25.75 L-148.9 -2.65 -155.3 25.75 Q-157.3 32.4 -152.3 30.85 M134.15 75.9 L137.7 72.25 134.15 75.9" fill="#ffffff" fill-rule="evenodd" stroke="none"/>
    <path d="M-32.15 -271.65 L-30.3 -262.4 -27.8 -256.4 Q-22.85 -250.6 -21.65 -250.5 -16.55 -245.9 2.1 -249.25 L3.2 -249.25 Q11.4 -247.65 17.35 -250.5 L21.95 -251.25 22.85 -250.5 Q23.7 -248.35 8.6 -242.4 L5.95 -241.25 -7.3 -240.15 Q-38.85 -240.7 -52.15 -239.0 L-55.05 -238.5 -55.4 -238.4 -54.65 -236.4 -59.55 -237.5 Q-60.65 -237.75 -62.15 -238.7 L-62.7 -239.0 -64.3 -240.15 -67.05 -242.4 -70.4 -245.65 -70.65 -246.9 -69.65 -248.75 -67.4 -250.5 -60.65 -254.5 -51.55 -258.25 -45.4 -260.5 Q-43.5 -260.65 -39.8 -263.25 L-38.65 -264.75 -37.15 -266.75 -36.3 -268.25 -34.4 -270.25 -32.15 -271.65 M-38.65 -264.75 L-38.3 -264.65 -38.65 -264.75 M-62.7 -239.0 L-62.15 -239.0 -62.7 -239.0 M-62.15 -238.7 L-61.8 -238.75 -60.05 -238.75 -61.8 -238.75 -62.15 -238.7 M-54.4 90.1 L-51.4 90.0 -44.15 91.75 -44.15 91.85 -45.05 108.85 -44.65 112.85 Q-44.1 116.4 -38.3 128.25 L-36.9 133.5 -37.3 147.75 Q-34.1 155.3 -23.15 166.1 L-20.4 170.25 -18.55 174.25 -18.4 175.25 -19.4 176.25 -19.9 176.25 -22.4 175.85 -34.4 172.0 -42.05 170.75 -46.4 171.85 -55.55 176.1 -59.3 177.35 -60.8 177.35 Q-61.65 176.95 -62.55 176.5 -63.5 169.9 -66.65 168.6 -78.8 168.6 -86.4 170.1 L-90.9 170.1 -91.8 169.5 -91.9 169.0 -91.3 167.85 -85.15 163.5 Q-77.85 158.65 -62.3 153.6 L-55.55 149.35 Q-43.5 141.4 -46.15 133.25 L-46.3 133.1 Q-52.85 118.05 -53.15 114.25 L-54.4 90.1 M29.6 97.85 L34.95 97.75 39.95 98.85 39.95 99.0 38.95 121.85 Q39.45 123.15 34.45 130.75 L34.45 132.35 35.7 135.0 37.35 136.85 49.35 146.1 58.95 150.5 69.85 156.75 75.35 160.75 81.2 166.1 81.7 166.85 81.85 168.1 81.1 168.5 77.35 168.25 62.95 164.6 58.1 164.0 56.6 164.85 55.85 166.5 55.2 172.75 54.6 174.1 53.7 174.6 52.1 174.6 50.7 174.1 38.2 166.25 33.2 164.1 26.85 164.75 Q11.95 169.9 12.6 168.85 9.5 163.65 26.2 142.75 L26.35 142.6 26.35 142.5 26.45 142.35 26.45 142.25 26.45 142.0 25.6 135.5 25.6 128.85 Q26.9 122.9 30.45 120.75 L30.85 118.5 29.6 97.85 M26.45 142.0 L26.6 142.0 26.7 141.0 26.6 142.0 26.45 142.25 26.6 142.0 26.45 142.0 M30.2 121.25 L30.45 120.75 30.2 121.25" fill="#fa410f" fill-rule="evenodd" stroke="none"/>
    <path d="M5.95 -241.25 Q6.9 -241.4 3.6 -238.0 L-13.3 -223.0 -19.55 -218.0 Q-25.3 -212.5 -34.05 -218.0 L-40.8 -223.15 -50.0 -232.15 -54.65 -236.4 -55.4 -238.4 -55.05 -238.5 -52.15 -239.0 Q-38.85 -240.7 -7.3 -240.15 L5.95 -241.25 M-50.0 -232.15 L-44.15 -228.4 -50.0 -232.15" fill="#fa420e" fill-rule="evenodd" stroke="none"/>
    <path d="M7.7 -306.65 Q-19.8 -306.6 -24.3 -299.25 L-26.55 -295.15 -27.4 -291.15 -27.65 -283.0 -27.05 -274.9 -25.65 -266.75 Q-26.05 -266.05 -23.4 -259.75 L-22.4 -258.65 Q-21.35 -255.4 -16.55 -253.65 L-11.3 -252.65 Q10.15 -254.4 14.35 -258.65 16.15 -258.75 20.7 -263.4 L22.7 -266.75 24.95 -272.4 25.95 -277.5 26.95 -288.4 26.7 -295.0 25.6 -299.25 Q21.5 -307.35 7.7 -306.65 M32.85 -294.4 L32.95 -291.15 32.1 -280.65 36.45 -267.25 Q37.85 -259.55 37.7 -255.25 L38.95 -250.5 40.2 -242.4 40.2 -237.4 Q44.4 -237.2 44.35 -239.25 L42.95 -252.25 Q40.9 -264.55 39.1 -270.25 L35.45 -291.4 34.35 -293.75 32.85 -294.4 Q32.85 -303.65 26.35 -307.4 10.65 -313.9 -16.3 -308.9 L-23.15 -306.65 -28.8 -302.9 -31.9 -297.65 -32.65 -294.65 -32.8 -293.65 -33.4 -291.15 -33.4 -288.65 -33.4 -283.0 -32.15 -271.65 -30.3 -262.4 -27.8 -256.4 Q-22.85 -250.6 -21.65 -250.5 -16.55 -245.9 2.1 -249.25 L12.7 -252.5 20.1 -256.25 25.35 -261.15 Q28.95 -266.35 28.6 -266.75 L30.2 -270.75 32.1 -280.65 M2.1 -249.25 L3.2 -249.25 6.35 -249.65 11.95 -251.9 12.7 -252.5 M3.2 -249.25 Q11.4 -247.65 17.35 -250.5 L21.95 -251.25 22.85 -250.5 Q23.7 -248.35 8.6 -242.4 L5.95 -241.25 Q6.9 -241.4 3.6 -238.0 L-13.3 -223.0 -19.55 -218.0 Q-25.3 -212.5 -34.05 -218.0 L-40.8 -223.15 -50.0 -232.15 -54.65 -236.4 -59.55 -237.5 Q-60.65 -237.75 -62.15 -238.7 L-62.7 -239.0 -64.3 -240.15 Q-65.6 -224.9 -60.65 -216.65 -56.75 -208.45 -43.55 -194.0 L-40.8 -189.75 -36.8 -181.9 -35.4 -178.25 -32.3 -167.0 Q-26.4 -147.95 -39.05 -121.15 L-39.3 -120.9 -39.3 -120.75 -39.4 -120.5 -39.8 -120.15 -43.8 -115.75 -44.05 -115.6 -45.3 -114.4 M37.7 -255.25 L33.85 -264.9 30.2 -270.75 M134.15 75.9 L134.45 76.75 134.2 82.6 Q128.85 117.9 133.45 131.0 139.85 144.8 148.2 122.85 156.35 103.05 160.95 69.0 163.15 51.2 156.6 30.5 L150.45 11.85 146.85 2.85 Q135.6 -28.05 94.35 -74.4 79.75 -84.8 64.95 -101.15 L59.2 -105.75 Q43.85 -116.6 26.95 -124.65 L19.1 -131.5 Q17.35 -133.3 15.1 -138.0 9.0 -158.05 14.2 -175.0 L16.95 -183.65 20.45 -191.9 Q21.7 -195.6 34.45 -215.5 L37.85 -223.0 39.45 -229.25 40.2 -237.4 M84.1 -49.15 L85.6 -47.4 87.95 -43.9 90.35 -39.25 94.6 -26.65 95.95 -18.5 100.2 -2.0 101.35 9.5 101.95 25.75 101.2 42.0 101.45 48.25 102.15 51.4 103.7 53.75 105.85 55.0 106.6 55.0 108.35 54.75 Q110.95 53.4 114.1 49.85 L118.95 43.85 118.95 43.9 120.6 42.0 121.85 41.0 M-67.05 -242.4 Q-83.05 -241.9 -89.05 -249.4 -96.9 -259.55 -94.3 -287.65 -91.15 -297.5 -77.05 -300.9 -51.8 -307.95 -46.05 -299.25 L-44.15 -296.0 -43.15 -291.25 -43.05 -291.25 -38.65 -293.0 -35.55 -293.4 -32.65 -294.65 M-51.55 -258.25 L-51.4 -258.65 -50.15 -263.15 -48.8 -274.9 -48.55 -287.75 -49.15 -291.15 Q-49.9 -298.35 -58.65 -299.25 L-63.05 -299.25 Q-85.55 -296.1 -87.55 -291.15 -88.6 -290.85 -90.4 -286.25 L-91.05 -283.0 -91.3 -274.9 -89.9 -260.9 -89.15 -258.65 Q-89.35 -257.45 -86.8 -253.0 L-84.05 -250.5 Q-81.75 -247.6 -70.65 -246.9 L-69.65 -248.75 -67.4 -250.5 -60.65 -254.5 -51.55 -258.25 -45.4 -260.5 -43.3 -274.9 -42.9 -286.9 -44.05 -288.65 -43.4 -291.15 -43.15 -291.15 -43.15 -291.25 M-33.4 -288.65 L-37.8 -290.4 -38.8 -290.25 -39.65 -289.5 -38.8 -288.4 -36.15 -278.9 -36.3 -268.25 -34.4 -270.25 -32.15 -271.65 M-35.55 -293.4 L-32.8 -293.65 M-45.4 -260.5 Q-43.5 -260.65 -39.8 -263.25 L-38.65 -264.75 -37.15 -266.75 -36.3 -268.25 M-38.3 -264.65 L-38.65 -264.75 M-43.05 -291.25 L-43.05 -291.15 -43.15 -291.15 M-54.65 -236.4 L-55.4 -238.4 -55.05 -238.5 -52.15 -239.0 Q-38.85 -240.7 -7.3 -240.15 L5.95 -241.25 M-44.15 -228.4 L-50.0 -232.15 M-60.05 -238.75 L-61.8 -238.75 -62.15 -238.7 M-62.15 -239.0 L-62.7 -239.0 M-67.05 -242.4 L-64.3 -240.15 M-70.65 -246.9 L-70.4 -245.65 -67.05 -242.4 M-42.9 -286.9 L-39.65 -289.5 M-54.4 90.1 L-62.4 90.85 -64.9 90.6 -65.55 88.35 Q-65.6 87.05 -62.9 82.5 -102.0 63.45 -116.8 35.0 L-119.65 29.75 Q-126.3 9.85 -125.4 8.5 L-125.15 0.6 -123.4 -12.75 -123.55 -12.75 Q-133.85 4.25 -136.95 7.8 L-137.4 8.25 -146.05 23.35 Q-147.9 27.1 -152.3 30.85 L-157.3 38.85 -159.9 42.25 -162.55 44.75 Q-165.25 46.85 -164.65 40.5 -165.25 39.8 -154.55 7.35 L-148.05 -10.25 Q-125.75 -62.85 -117.65 -72.15 -109.35 -82.5 -108.3 -82.9 L-97.55 -91.65 -90.05 -95.9 Q-74.3 -99.9 -44.55 -115.4 L-44.05 -115.6 M-39.3 -120.75 L-39.8 -120.15 M-98.05 -67.0 L-105.4 -57.4 -110.55 -47.4 -120.8 -23.0 -122.9 -16.65 -123.3 -13.25 M-136.95 7.8 L-138.65 9.5 Q-145.75 16.75 -144.05 9.5 L-140.3 -12.15 -140.55 -14.9 M-123.4 -12.75 L-123.4 -13.0 -123.55 -12.75 M-62.9 82.5 L-62.3 82.6 -51.8 87.1 -36.8 92.0 -27.4 94.35 -15.05 96.6 -12.8 96.6 8.1 95.25 20.35 93.35 39.1 89.75 47.2 87.6 56.6 84.6 71.2 78.0 86.85 66.6 101.2 52.85 102.1 51.35 102.15 51.4 M-54.4 90.1 L-51.4 90.0 -44.15 91.75 -44.05 91.85 Q-39.9 93.3 -37.8 93.0 L-36.8 92.0 M-44.15 91.75 L-44.15 91.85 -44.05 91.85 M-148.9 -2.65 L-155.3 25.75 Q-157.3 32.4 -152.3 30.85 M-44.15 91.85 L-45.05 108.85 -44.65 112.85 Q-44.1 116.4 -38.3 128.25 L-36.9 133.5 -37.3 147.75 Q-34.1 155.3 -23.15 166.1 L-20.4 170.25 -18.55 174.25 -18.4 175.25 -19.4 176.25 -19.9 176.25 -22.4 175.85 -34.4 172.0 -42.05 170.75 -46.4 171.85 -55.55 176.1 -59.3 177.35 -60.8 177.35 Q-61.65 176.95 -62.55 176.5 -63.5 169.9 -66.65 168.6 -78.8 168.6 -86.4 170.1 L-90.9 170.1 -91.8 169.5 -91.9 169.0 -91.3 167.85 -85.15 163.5 Q-77.85 158.65 -62.3 153.6 L-55.55 149.35 Q-43.5 141.4 -46.15 133.25 L-46.3 133.1 Q-52.85 118.05 -53.15 114.25 L-54.4 90.1 M134.15 75.9 L134.1 75.85 126.85 86.5 Q123.65 90.9 121.7 91.6 L120.95 92.25 118.1 92.75 115.1 90.85 Q109.6 88.35 118.1 57.85 L118.2 57.6 118.95 54.0 119.45 46.25 118.95 43.9 M137.7 72.25 L134.15 75.9 M29.6 97.85 Q16.2 100.6 20.35 93.35 M29.6 97.85 L34.95 97.75 39.95 98.85 39.95 99.0 Q46.65 101.15 48.1 100.6 L49.2 99.1 48.95 93.35 49.85 92.85 49.85 92.25 49.1 90.35 47.2 87.6 M39.95 99.0 L38.95 121.85 Q39.45 123.15 34.45 130.75 L34.45 132.35 35.7 135.0 37.35 136.85 49.35 146.1 58.95 150.5 69.85 156.75 75.35 160.75 81.2 166.1 81.7 166.85 81.85 168.1 81.1 168.5 77.35 168.25 62.95 164.6 58.1 164.0 56.6 164.85 55.85 166.5 55.2 172.75 54.6 174.1 53.7 174.6 52.1 174.6 50.7 174.1 38.2 166.25 33.2 164.1 26.85 164.75 Q11.95 169.9 12.6 168.85 9.5 163.65 26.2 142.75 L26.35 142.6 26.35 142.5 26.45 142.35 26.45 142.25 26.45 142.0 25.6 135.5 25.6 128.85 Q26.9 122.9 30.45 120.75 L30.85 118.5 29.6 97.85 M30.45 120.75 L30.2 121.25 M26.7 141.0 L26.6 142.0 26.45 142.25 M26.6 142.0 L26.45 142.0" fill="none" stroke="#000000" stroke-linecap="round" stroke-linejoin="round" stroke-width="2.15"/>
  </g>
</svg>
