<?xml version="1.0" encoding="UTF-8" standalone="no"?>
<svg xmlns:xlink="http://www.w3.org/1999/xlink" height="501.3px" width="316.6px" xmlns="http://www.w3.org/2000/svg">
  <g transform="matrix(1.0, 0.0, 0.0, 1.0, 172.45, 322.9)">
    <path d="M-73.9 -250.25 Q-101.35 -244.85 -93.55 -292.15 -91.75 -300.75 -77.65 -306.4 -59.65 -314.65 -53.65 -307.4 L-52.05 -304.25 -51.4 -299.9 -47.05 -302.0 -42.4 -302.75 -41.3 -307.0 -38.4 -311.9 -37.65 -312.5 Q-35.3 -316.35 -19.9 -319.9 10.7 -325.35 16.85 -315.5 L17.95 -313.9 Q19.45 -307.6 18.95 -306.5 L20.35 -306.15 21.2 -305.4 34.95 -274.65 38.7 -264.25 40.95 -254.75 42.45 -243.75 Q40.75 -240.4 36.85 -243.0 36.2 -253.55 34.6 -263.0 L31.6 -274.0 31.45 -274.15 18.35 -297.25 16.7 -287.75 15.7 -283.25 15.45 -283.0 13.35 -277.65 11.35 -274.9 Q12.15 -274.45 6.2 -269.25 L2.1 -266.75 Q2.7 -266.4 -5.65 -263.0 L-14.9 -260.5 Q-35.05 -256.65 -38.65 -266.75 L-40.3 -270.25 -42.05 -276.9 -43.15 -295.25 -43.05 -298.0 -46.15 -299.25 -47.55 -299.15 -49.55 -297.15 -51.3 -295.5 -52.15 -283.0 -52.8 -278.9 -53.8 -272.5 -58.65 -272.15 -57.05 -283.0 -56.3 -295.9 -56.8 -299.25 Q-58.35 -313.05 -84.15 -299.25 -86.5 -298.15 -89.05 -294.5 L-90.55 -291.15 -91.4 -287.5 -91.9 -283.0 -91.4 -266.75 -91.3 -266.4 -91.4 -266.75 -91.9 -283.0 -91.4 -287.5 -90.55 -291.15 -89.05 -294.5 Q-86.5 -298.15 -84.15 -299.25 -58.35 -313.05 -56.8 -299.25 L-56.3 -295.9 -57.05 -283.0 -58.65 -272.15 -79.55 -269.9 -89.15 -267.5 -90.9 -266.75 -91.3 -266.4 -92.3 -265.4 -92.55 -264.5 -90.4 -262.0 -88.9 -258.65 -86.55 -256.15 Q-84.0 -254.55 -80.15 -254.4 -84.0 -254.55 -86.55 -256.15 L-88.9 -258.65 -90.4 -262.0 -80.15 -254.4 -74.15 -250.5 -73.9 -250.25 M5.7 -316.65 L8.2 -315.5 Q12.1 -313.6 12.95 -307.4 L12.85 -299.25 10.7 -285.65 8.85 -280.25 Q5.0 -273.7 4.95 -274.9 -0.85 -268.95 -9.9 -266.75 -28.3 -261.75 -32.15 -266.75 L-35.15 -270.65 -36.55 -274.9 -37.8 -283.0 -38.15 -291.15 -37.9 -299.25 -36.65 -304.9 -35.3 -307.4 Q-31.6 -313.6 -20.65 -315.5 L-11.8 -316.9 1.35 -317.4 5.7 -316.65 1.35 -317.4 -11.8 -316.9 -20.65 -315.5 Q-31.6 -313.6 -35.3 -307.4 L-36.65 -304.9 -37.9 -299.25 -38.15 -291.15 -37.8 -283.0 -36.55 -274.9 -35.15 -270.65 -32.15 -266.75 Q-28.3 -261.75 -9.9 -266.75 -0.85 -268.95 4.95 -274.9 5.0 -273.7 8.85 -280.25 L10.7 -285.65 12.85 -299.25 12.95 -307.4 Q12.1 -313.6 8.2 -315.5 L5.7 -316.65 M18.35 -297.25 L18.95 -306.5 18.35 -297.25 M-51.4 -299.9 L-52.05 -299.25 -52.55 -297.25 -52.4 -296.65 -51.3 -295.5 -52.4 -296.65 -52.55 -297.25 -52.05 -299.25 -51.4 -299.9 M-42.4 -302.75 L-43.05 -299.25 -43.05 -298.0 -43.05 -299.25 -42.4 -302.75" fill="#43396f" fill-rule="evenodd" stroke="none"/>
    <path d="M-52.8 -278.9 L-52.15 -283.0 -51.3 -295.5 -49.55 -297.15 -46.15 -296.65 -43.15 -295.25 -42.05 -276.9 -47.4 -274.15 -47.4 -274.9 Q-48.0 -278.9 -52.8 -278.9 M15.7 -283.25 L15.85 -283.0 16.1 -281.15 15.1 -274.9 12.85 -269.25 10.85 -266.75 Q7.2 -261.6 -0.9 -258.65 L-4.65 -257.9 -7.15 -258.0 -12.3 -259.25 -14.9 -260.5 -5.65 -263.0 Q2.7 -266.4 2.1 -266.75 L6.2 -269.25 Q12.15 -274.45 11.35 -274.9 L13.35 -277.65 15.45 -283.0 15.7 -283.25" fill="#ff7a16" fill-rule="evenodd" stroke="none"/>
    <path d="M16.7 -287.75 Q33.95 -274.95 35.7 -243.9 L34.95 -235.15 Q33.45 -227.85 31.45 -222.75 L26.45 -212.9 Q19.65 -202.35 14.6 -192.0 L11.2 -183.15 9.45 -176.9 Q6.15 -167.25 9.1 -149.65 9.95 -145.15 11.85 -141.15 L15.1 -136.25 21.35 -130.0 Q58.6 -108.85 65.85 -98.4 L72.35 -90.15 75.15 -85.85 75.2 -85.75 86.2 -75.25 92.2 -68.0 116.7 -30.25 Q121.45 -22.35 126.2 -12.15 133.95 3.05 140.7 35.5 145.0 57.9 141.6 74.6 136.35 96.05 121.1 118.25 101.75 144.8 95.2 144.1 86.65 143.3 90.35 123.75 91.6 113.3 107.85 82.6 L108.35 80.35 108.25 80.4 106.45 80.75 Q104.4 81.4 95.1 87.85 L88.7 91.25 84.95 92.1 81.6 91.35 Q72.25 86.85 87.2 66.35 L91.85 60.35 91.75 60.25 91.6 60.1 81.2 69.6 65.1 80.75 56.1 85.1 Q51.9 87.05 42.45 89.25 L44.95 93.0 45.95 95.5 45.7 96.1 44.6 96.5 44.6 100.5 44.1 102.5 Q44.85 105.1 34.6 101.25 L29.2 99.85 24.35 99.85 Q11.0 102.65 16.45 93.75 L0.95 95.6 Q-10.05 96.8 -21.55 96.25 L-36.3 93.0 -41.05 91.5 -41.9 92.35 Q-44.6 92.4 -47.05 91.25 L-48.15 90.75 -55.3 88.75 -57.4 88.75 -65.05 89.1 -68.65 88.85 Q-70.5 87.6 -66.55 81.35 -94.3 69.8 -114.55 39.0 -132.25 9.15 -122.65 -19.9 L-122.8 -19.9 -124.7 -16.85 -136.15 1.6 Q-163.55 46.15 -170.9 48.0 L-171.4 45.85 -169.8 39.6 -158.3 11.1 -149.9 -7.5 -149.8 -7.65 -149.8 -7.9 -149.65 -8.0 -149.65 -8.15 -149.55 -8.25 -149.55 -8.5 -149.4 -8.65 -149.4 -8.9 -149.3 -9.0 -140.0 -28.6 -139.15 -30.4 -139.1 -30.55 -138.9 -31.0 Q-134.25 -41.15 -133.4 -43.9 L-124.55 -61.5 -118.05 -72.15 Q-115.85 -75.75 -107.9 -84.9 L-100.8 -91.75 Q-93.5 -97.45 -89.4 -99.4 -86.25 -101.45 -64.3 -107.25 L-49.7 -113.95 -49.65 -114.0 -49.55 -114.0 Q-30.65 -136.65 -33.8 -166.75 L-35.8 -177.75 -38.3 -186.15 -41.9 -194.15 -45.55 -200.15 -53.05 -209.75 Q-56.35 -214.15 -58.4 -218.5 -63.35 -227.7 -62.05 -243.65 L-61.65 -243.5 -59.65 -242.4 -55.65 -239.65 -55.4 -239.4 -50.65 -234.25 -43.65 -227.75 -41.15 -226.15 Q-31.25 -220.4 -27.55 -226.15 L-4.15 -247.5 -2.55 -249.4 -2.4 -250.0 -1.4 -250.5 Q15.25 -256.95 14.2 -258.65 16.15 -261.15 7.35 -258.65 L1.85 -257.4 -4.65 -257.9 -0.9 -258.65 Q7.2 -261.6 10.85 -266.75 L12.85 -269.25 15.1 -274.9 16.1 -281.15 15.85 -283.0 15.7 -283.25 16.7 -287.75 M98.85 44.75 L98.4 44.95 95.95 45.75 87.1 50.1 Q78.45 53.6 76.85 50.1 73.75 47.9 75.45 42.0 L81.35 28.25 83.85 17.6 85.1 9.5 85.45 -2.15 82.45 -23.0 79.1 -39.25 76.7 -45.65 74.1 -49.75 76.7 -45.65 79.1 -39.25 82.45 -23.0 85.45 -2.15 85.1 9.5 83.85 17.6 81.35 28.25 75.45 42.0 Q73.75 47.9 76.85 50.1 78.45 53.6 87.1 50.1 L95.95 45.75 98.4 44.95 98.85 44.75 M-41.05 91.5 L-48.65 89.1 Q-58.15 85.6 -63.65 82.6 L-66.55 81.35 -63.65 82.6 Q-58.15 85.6 -48.65 89.1 L-41.05 91.5 M-71.4 78.6 L-70.05 79.35 -71.4 78.6 M-124.7 -16.85 L-125.05 -16.5 -132.15 -6.75 -138.65 1.35 Q-151.3 14.1 -146.4 1.35 L-143.9 -6.75 -141.55 -18.25 -143.9 -6.75 -146.4 1.35 Q-151.3 14.1 -138.65 1.35 L-132.15 -6.75 -125.05 -16.5 -124.7 -16.85 M-122.8 -19.9 L-122.65 -20.15 -121.9 -23.0 -118.9 -31.15 -108.9 -54.0 -103.05 -63.65 -96.9 -71.75 -96.3 -72.75 -96.9 -71.75 -103.05 -63.65 -108.9 -54.0 -118.9 -31.15 -121.9 -23.0 -122.65 -20.15 -122.65 -19.9 -122.65 -20.15 -122.8 -19.9 M-150.9 -3.75 L-150.8 -4.65 -150.65 -4.9 -150.55 -5.15 -150.65 -5.15 -150.55 -5.4 -150.4 -5.5 -150.3 -6.15 -149.8 -7.5 -149.9 -7.5 -149.8 -7.5 -149.8 -7.65 -149.8 -7.5 -150.3 -6.15 -150.4 -5.5 -150.55 -5.4 -150.65 -5.15 -150.55 -5.15 -150.65 -4.9 -150.8 -4.65 -150.65 -4.65 -150.9 -3.75 -154.9 9.5 -160.4 25.75 Q-160.3 33.25 -153.65 25.75 L-136.15 1.6 -153.65 25.75 Q-160.3 33.25 -160.4 25.75 L-154.9 9.5 -150.9 -3.75 -150.65 -4.65 -150.8 -4.65 -150.9 -3.75 M-150.65 -4.9 L-150.65 -5.15 -150.65 -4.9 M-149.65 -8.15 L-149.55 -8.15 -149.55 -8.25 -149.55 -8.15 -149.65 -8.15 M-53.15 -109.9 L-49.7 -113.95 -53.15 -109.9 M16.45 93.75 L42.45 89.25 16.45 93.75 M108.25 80.4 L108.7 80.0 108.25 80.4 M91.75 60.25 L95.95 54.25 97.85 50.1 98.85 46.35 97.85 50.1 95.95 54.25 91.75 60.25 M98.85 46.1 L98.4 44.95 98.85 46.1" fill="#ffffff" fill-rule="evenodd" stroke="none"/>
    <path d="M34.6 101.25 L31.6 116.35 30.6 123.35 Q30.4 126.3 27.95 127.5 L27.95 127.6 27.95 128.75 28.0 128.85 31.35 133.25 40.95 142.35 Q43.65 144.9 52.1 149.25 L61.1 155.85 66.95 161.1 Q71.75 165.9 71.85 167.0 75.65 171.8 55.7 163.85 L48.85 162.1 46.85 163.0 Q45.9 162.3 44.2 171.85 L43.1 173.0 40.35 172.75 Q25.4 159.9 23.2 160.35 18.5 159.35 4.1 163.85 L2.2 163.85 1.45 162.85 1.6 161.25 5.2 154.35 8.2 149.85 Q16.95 141.5 19.2 137.1 L19.35 137.0 19.35 136.85 19.45 136.75 19.45 125.25 Q19.35 121.15 22.7 118.35 L24.35 99.85 29.2 99.85 34.6 101.25 M-47.05 91.25 L-47.15 106.1 -46.8 110.25 Q-46.25 114.65 -38.9 125.85 L-37.3 130.5 Q-36.6 133.55 -37.15 144.35 L-36.4 147.35 Q-34.55 151.3 -31.15 155.5 L-21.65 165.75 -16.8 173.35 -16.55 174.85 -17.4 175.75 -18.15 175.75 -20.55 175.5 -31.9 172.0 -40.3 170.6 Q-43.1 170.5 -57.15 177.35 L-58.8 177.35 -59.8 177.1 -60.55 176.35 -62.15 171.75 Q-63.15 169.2 -65.15 168.75 -70.25 168.1 -85.05 170.5 L-89.15 170.5 -90.3 169.75 Q-93.15 166.9 -59.05 151.85 L-53.4 147.35 Q-48.0 142.25 -46.8 139.6 L-46.15 137.35 -46.4 131.35 -52.8 119.35 -54.55 114.75 -55.3 111.25 -57.4 88.75 -55.3 88.75 -48.15 90.75 -47.05 91.25 M-62.05 -243.65 L-65.05 -244.75 -73.9 -250.25 -74.15 -250.5 -80.15 -254.4 -90.4 -262.0 -92.55 -264.5 -92.3 -265.4 -91.3 -266.4 -90.9 -266.75 -89.15 -267.5 -79.55 -269.9 -58.65 -272.15 -53.8 -272.5 -50.4 -273.0 -47.4 -274.15 -42.05 -276.9 -40.3 -270.25 -38.65 -266.75 Q-35.05 -256.65 -14.9 -260.5 L-12.3 -259.25 -7.15 -258.0 -4.65 -257.9 1.85 -257.4 7.35 -258.65 Q16.15 -261.15 14.2 -258.65 15.25 -256.95 -1.4 -250.5 L-2.4 -250.0 -25.55 -250.5 -55.3 -253.4 Q-72.6 -253.85 -68.65 -250.5 L-65.3 -246.65 -61.65 -243.5 -62.05 -243.65 M25.45 128.0 L24.7 128.1 23.1 127.5 21.45 126.1 23.1 127.5 24.7 128.1 25.45 128.0 M27.2 128.5 L27.6 128.6 28.0 128.85 27.6 128.6 27.2 128.5 M26.95 128.25 L25.7 128.0 27.95 127.6 25.7 128.0 26.95 128.25 M22.45 119.1 L21.95 122.85 22.45 119.1" fill="#fa410f" fill-rule="evenodd" stroke="none"/>
    <path d="M-2.4 -250.0 L-2.55 -249.4 -4.15 -247.5 -27.55 -226.15 Q-31.25 -220.4 -41.15 -226.15 L-43.65 -227.75 -50.65 -234.25 -55.4 -239.4 -55.65 -239.65 -59.65 -242.4 -61.65 -243.5 -65.3 -246.65 -68.65 -250.5 Q-72.6 -253.85 -55.3 -253.4 L-25.55 -250.5 -2.4 -250.0 M-55.4 -239.4 L-53.65 -238.0 -55.4 -239.4" fill="#fa420e" fill-rule="evenodd" stroke="none"/>
    <path d="M-53.8 -272.5 L-52.8 -278.9 Q-48.0 -278.9 -47.4 -274.9 L-47.4 -274.15 -50.4 -273.0 -53.8 -272.5" fill="#000000" fill-rule="evenodd" stroke="none"/>
    <path d="M-73.9 -250.25 Q-101.35 -244.85 -93.55 -292.15 -91.75 -300.75 -77.65 -306.4 -59.65 -314.65 -53.65 -307.4 L-52.05 -304.25 -51.4 -299.9 -47.05 -302.0 -42.4 -302.75 -41.3 -307.0 -38.4 -311.9 -37.65 -312.5 Q-35.3 -316.35 -19.9 -319.9 10.7 -325.35 16.85 -315.5 L17.95 -313.9 Q19.45 -307.6 18.95 -306.5 L20.35 -306.15 21.2 -305.4 34.95 -274.65 38.7 -264.25 40.95 -254.75 42.45 -243.75 Q40.75 -240.4 36.85 -243.0 36.2 -253.55 34.6 -263.0 L31.6 -274.0 31.45 -274.15 18.35 -297.25 16.7 -287.75 Q33.95 -274.95 35.7 -243.9 L34.95 -235.15 Q33.45 -227.85 31.45 -222.75 L26.45 -212.9 Q19.65 -202.35 14.6 -192.0 L11.2 -183.15 9.45 -176.9 Q6.15 -167.25 9.1 -149.65 9.95 -145.15 11.85 -141.15 L15.1 -136.25 21.35 -130.0 Q58.6 -108.85 65.85 -98.4 L72.35 -90.15 75.15 -85.85 75.2 -85.75 86.2 -75.25 92.2 -68.0 116.7 -30.25 Q121.45 -22.35 126.2 -12.15 133.95 3.05 140.7 35.5 145.0 57.9 141.6 74.6 136.35 96.05 121.1 118.25 101.75 144.8 95.2 144.1 86.65 143.3 90.35 123.75 91.6 113.3 107.85 82.6 L108.35 80.35 108.25 80.4 106.45 80.75 Q104.4 81.4 95.1 87.85 L88.7 91.25 84.95 92.1 81.6 91.35 Q72.25 86.85 87.2 66.35 L91.85 60.35 91.75 60.25 91.6 60.1 81.2 69.6 65.1 80.75 56.1 85.1 Q51.9 87.05 42.45 89.25 L44.95 93.0 45.95 95.5 45.7 96.1 44.6 96.5 44.6 100.5 44.1 102.5 Q44.85 105.1 34.6 101.25 L31.6 116.35 30.6 123.35 Q30.4 126.3 27.95 127.5 L27.95 127.6 27.95 128.75 28.0 128.85 31.35 133.25 40.95 142.35 Q43.65 144.9 52.1 149.25 L61.1 155.85 66.95 161.1 Q71.75 165.9 71.85 167.0 75.65 171.8 55.7 163.85 L48.85 162.1 46.85 163.0 Q45.9 162.3 44.2 171.85 L43.1 173.0 40.35 172.75 Q25.4 159.9 23.2 160.35 18.5 159.35 4.1 163.85 L2.2 163.85 1.45 162.85 1.6 161.25 5.2 154.35 8.2 149.85 Q16.95 141.5 19.2 137.1 L19.35 137.0 19.35 136.85 19.45 136.75 19.45 125.25 Q19.35 121.15 22.7 118.35 L24.35 99.85 Q11.0 102.65 16.45 93.75 L0.95 95.6 Q-10.05 96.8 -21.55 96.25 L-36.3 93.0 -41.05 91.5 -41.9 92.35 Q-44.6 92.4 -47.05 91.25 L-47.15 106.1 -46.8 110.25 Q-46.25 114.65 -38.9 125.85 L-37.3 130.5 Q-36.6 133.55 -37.15 144.35 L-36.4 147.35 Q-34.55 151.3 -31.15 155.5 L-21.65 165.75 -16.8 173.35 -16.55 174.85 -17.4 175.75 -18.15 175.75 -20.55 175.5 -31.9 172.0 -40.3 170.6 Q-43.1 170.5 -57.15 177.35 L-58.8 177.35 -59.8 177.1 -60.55 176.35 -62.15 171.75 Q-63.15 169.2 -65.15 168.75 -70.25 168.1 -85.05 170.5 L-89.15 170.5 -90.3 169.75 Q-93.15 166.9 -59.05 151.85 L-53.4 147.35 Q-48.0 142.25 -46.8 139.6 L-46.15 137.35 -46.4 131.35 -52.8 119.35 -54.55 114.75 -55.3 111.25 -57.4 88.75 -65.05 89.1 -68.65 88.85 Q-70.5 87.6 -66.55 81.35 -94.3 69.8 -114.55 39.0 -132.25 9.15 -122.65 -19.9 L-122.8 -19.9 -124.7 -16.85 -136.15 1.6 Q-163.55 46.15 -170.9 48.0 L-171.4 45.85 -169.8 39.6 -158.3 11.1 -149.9 -7.5 -149.8 -7.65 -149.8 -7.9 -149.65 -8.0 -149.65 -8.15 -149.55 -8.25 -149.55 -8.5 -149.4 -8.65 -149.4 -8.9 -149.3 -9.0 -140.0 -28.6 -139.15 -30.4 -139.1 -30.55 -138.9 -31.0 Q-134.25 -41.15 -133.4 -43.9 L-124.55 -61.5 -118.05 -72.15 Q-115.85 -75.75 -107.9 -84.9 L-100.8 -91.75 Q-93.5 -97.45 -89.4 -99.4 -86.25 -101.45 -64.3 -107.25 L-49.7 -113.95 -49.65 -114.0 -49.55 -114.0 Q-30.65 -136.65 -33.8 -166.75 L-35.8 -177.75 -38.3 -186.15 -41.9 -194.15 -45.55 -200.15 -53.05 -209.75 Q-56.35 -214.15 -58.4 -218.5 -63.35 -227.7 -62.05 -243.65 L-65.05 -244.75 -73.9 -250.25 -74.15 -250.5 -80.15 -254.4 Q-84.0 -254.55 -86.55 -256.15 L-88.9 -258.65 -90.4 -262.0 -92.55 -264.5 -92.3 -265.4 -91.3 -266.4 -91.4 -266.75 -91.9 -283.0 -91.4 -287.5 -90.55 -291.15 -89.05 -294.5 Q-86.5 -298.15 -84.15 -299.25 -58.35 -313.05 -56.8 -299.25 L-56.3 -295.9 -57.05 -283.0 -58.65 -272.15 -53.8 -272.5 -52.8 -278.9 -52.15 -283.0 -51.3 -295.5 -52.4 -296.65 -52.55 -297.25 -52.05 -299.25 -51.4 -299.9 M18.95 -306.5 L18.35 -297.25 M5.7 -316.65 L1.35 -317.4 -11.8 -316.9 -20.65 -315.5 Q-31.6 -313.6 -35.3 -307.4 L-36.65 -304.9 -37.9 -299.25 -38.15 -291.15 -37.8 -283.0 -36.55 -274.9 -35.15 -270.65 -32.15 -266.75 Q-28.3 -261.75 -9.9 -266.75 -0.85 -268.95 4.95 -274.9 5.0 -273.7 8.85 -280.25 L10.7 -285.65 12.85 -299.25 12.95 -307.4 Q12.1 -313.6 8.2 -315.5 L5.7 -316.65 M15.7 -283.25 L15.85 -283.0 16.1 -281.15 15.1 -274.9 12.85 -269.25 10.85 -266.75 Q7.2 -261.6 -0.9 -258.65 L-4.65 -257.9 1.85 -257.4 7.35 -258.65 Q16.15 -261.15 14.2 -258.65 15.25 -256.95 -1.4 -250.5 L-2.4 -250.0 -2.55 -249.4 -4.15 -247.5 -27.55 -226.15 Q-31.25 -220.4 -41.15 -226.15 L-43.65 -227.75 -50.65 -234.25 -55.4 -239.4 -55.65 -239.65 -59.65 -242.4 -61.65 -243.5 -62.05 -243.65 M15.7 -283.25 L15.45 -283.0 13.35 -277.65 11.35 -274.9 Q12.15 -274.45 6.2 -269.25 L2.1 -266.75 Q2.7 -266.4 -5.65 -263.0 L-14.9 -260.5 -12.3 -259.25 -7.15 -258.0 -4.65 -257.9 M16.7 -287.75 L15.7 -283.25 M74.1 -49.75 L76.7 -45.65 79.1 -39.25 82.45 -23.0 85.45 -2.15 85.1 9.5 83.85 17.6 81.35 28.25 75.45 42.0 Q73.75 47.9 76.85 50.1 78.45 53.6 87.1 50.1 L95.95 45.75 98.4 44.95 98.85 44.75 M-43.05 -298.0 L-43.05 -299.25 -42.4 -302.75 M-49.55 -297.15 L-47.55 -299.15 -46.15 -299.25 -43.05 -298.0 -43.15 -295.25 -42.05 -276.9 -40.3 -270.25 -38.65 -266.75 Q-35.05 -256.65 -14.9 -260.5 M-91.3 -266.4 L-90.9 -266.75 -89.15 -267.5 -79.55 -269.9 -58.65 -272.15 M-61.65 -243.5 L-65.3 -246.65 -68.65 -250.5 Q-72.6 -253.85 -55.3 -253.4 L-25.55 -250.5 -2.4 -250.0 M-43.15 -295.25 L-46.15 -296.65 -49.55 -297.15 -51.3 -295.5 M-52.8 -278.9 Q-48.0 -278.9 -47.4 -274.9 L-47.4 -274.15 -42.05 -276.9 M-47.4 -274.15 L-50.4 -273.0 -53.8 -272.5 M-53.65 -238.0 L-55.4 -239.4 M-80.15 -254.4 L-90.4 -262.0 M-49.7 -113.95 L-53.15 -109.9 M-96.3 -72.75 L-96.9 -71.75 -103.05 -63.65 -108.9 -54.0 -118.9 -31.15 -121.9 -23.0 -122.65 -20.15 -122.65 -19.9 M-149.55 -8.25 L-149.55 -8.15 -149.65 -8.15 M-149.9 -7.5 L-149.8 -7.5 -149.8 -7.65 M-149.8 -7.5 L-150.3 -6.15 -150.4 -5.5 -150.55 -5.4 -150.65 -5.15 -150.55 -5.15 -150.65 -4.9 -150.8 -4.65 -150.65 -4.65 -150.9 -3.75 -154.9 9.5 -160.4 25.75 Q-160.3 33.25 -153.65 25.75 L-136.15 1.6 M-150.65 -5.15 L-150.65 -4.9 M-150.8 -4.65 L-150.9 -3.75 M-122.65 -20.15 L-122.8 -19.9 M-141.55 -18.25 L-143.9 -6.75 -146.4 1.35 Q-151.3 14.1 -138.65 1.35 L-132.15 -6.75 -125.05 -16.5 -124.7 -16.85 M-70.05 79.35 L-71.4 78.6 M-66.55 81.35 L-63.65 82.6 Q-58.15 85.6 -48.65 89.1 L-41.05 91.5 M-57.4 88.75 L-55.3 88.75 -48.15 90.75 -47.05 91.25 M98.4 44.95 L98.85 46.1 M98.85 46.35 L97.85 50.1 95.95 54.25 91.75 60.25 M108.7 80.0 L108.25 80.4 M42.45 89.25 L16.45 93.75 M34.6 101.25 L29.2 99.85 24.35 99.85 M21.95 122.85 L22.45 119.1 M27.95 127.6 L25.7 128.0 26.95 128.25 M28.0 128.85 L27.6 128.6 27.2 128.5 M21.45 126.1 L23.1 127.5 24.7 128.1 25.45 128.0" fill="none" stroke="#000000" stroke-linecap="round" stroke-linejoin="round" stroke-width="2.15"/>
  </g>
</svg>
