<?xml version="1.0" encoding="UTF-8" standalone="no"?>
<svg xmlns:xlink="http://www.w3.org/1999/xlink" height="512.6px" width="300.2px" xmlns="http://www.w3.org/2000/svg">
  <g transform="matrix(1.0, 0.0, 0.0, 1.0, 181.65, 334.2)">
    <path d="M-88.65 -286.25 Q-86.4 -302.6 -79.15 -307.15 -58.15 -323.2 -55.15 -315.5 L-54.05 -312.5 -53.9 -309.0 -50.9 -311.0 -46.65 -312.15 -46.55 -312.25 Q-45.4 -322.75 -31.8 -328.25 -8.1 -335.75 3.85 -331.75 10.15 -328.1 8.7 -319.65 L9.85 -319.65 10.85 -319.0 12.2 -317.15 30.35 -286.25 34.35 -278.5 Q40.15 -266.6 41.7 -249.4 L41.1 -248.4 39.7 -247.75 36.95 -248.0 36.2 -249.0 Q34.65 -270.45 29.85 -280.15 29.25 -281.9 19.45 -295.65 L7.7 -312.0 6.45 -306.0 4.1 -297.25 1.1 -291.15 -1.05 -287.75 -5.9 -283.0 -10.8 -279.5 Q-17.65 -275.85 -21.55 -274.9 L-25.4 -273.65 Q-36.5 -270.0 -42.8 -274.9 L-45.9 -278.65 -47.55 -285.5 -48.05 -291.15 -47.9 -302.5 -47.55 -307.9 -49.55 -308.5 -50.4 -308.4 -54.15 -304.15 -54.3 -302.15 -57.3 -284.15 -61.3 -284.25 -58.4 -304.65 -58.55 -307.4 Q-58.1 -308.15 -59.4 -311.9 L-61.55 -313.15 Q-63.1 -313.5 -67.9 -311.4 L-74.55 -307.4 -78.15 -304.65 Q-81.65 -301.35 -82.65 -299.25 L-84.55 -295.25 -86.3 -286.15 -84.55 -295.25 -82.65 -299.25 Q-81.65 -301.35 -78.15 -304.65 L-74.55 -307.4 -67.9 -311.4 Q-63.1 -313.5 -61.55 -313.15 L-59.4 -311.9 Q-58.1 -308.15 -58.55 -307.4 L-58.4 -304.65 -61.3 -284.25 -86.3 -286.15 -88.65 -286.25 M-74.65 -258.5 Q-89.1 -253.7 -89.3 -268.65 L-86.4 -266.75 -86.4 -266.65 Q-85.85 -261.55 -79.55 -261.9 -85.85 -261.55 -86.4 -266.65 L-79.55 -261.9 -74.65 -258.65 -74.65 -258.5 M7.7 -312.0 L8.7 -319.65 7.7 -312.0 M3.1 -320.4 L2.7 -315.5 1.35 -307.4 -0.65 -299.25 -2.3 -294.9 -4.65 -291.15 Q-3.65 -291.15 -9.15 -286.15 L-14.3 -283.0 Q-38.5 -271.0 -42.4 -283.0 L-43.4 -286.65 -43.8 -291.15 -43.8 -299.25 -42.65 -310.65 -41.05 -315.5 -38.3 -319.75 Q-33.85 -323.6 -32.65 -323.65 2.4 -334.9 2.7 -323.65 L3.1 -320.4 2.7 -323.65 Q2.4 -334.9 -32.65 -323.65 -33.85 -323.6 -38.3 -319.75 L-41.05 -315.5 -42.65 -310.65 -43.8 -299.25 -43.8 -291.15 -43.4 -286.65 -42.4 -283.0 Q-38.5 -271.0 -14.3 -283.0 L-9.15 -286.15 Q-3.65 -291.15 -4.65 -291.15 L-2.3 -294.9 -0.65 -299.25 1.35 -307.4 2.7 -315.5 3.1 -320.4 M-53.9 -309.0 L-55.15 -307.4 Q-55.9 -305.8 -54.15 -304.15 -55.9 -305.8 -55.15 -307.4 L-53.9 -309.0 M-46.65 -312.15 L-47.55 -307.9 -46.65 -312.15" fill="#43396f" fill-rule="evenodd" stroke="none"/>
    <path d="M6.45 -306.0 L8.95 -302.65 10.1 -299.25 11.1 -296.75 11.7 -291.15 10.85 -284.4 7.7 -278.9 3.95 -274.9 -0.15 -271.5 Q-4.0 -269.1 -10.05 -267.9 -19.1 -268.8 -25.4 -273.65 L-21.55 -274.9 Q-17.65 -275.85 -10.8 -279.5 L-5.9 -283.0 -1.05 -287.75 1.1 -291.15 4.1 -297.25 6.45 -306.0 M-57.3 -284.15 L-54.3 -302.15 -49.9 -302.75 -47.9 -302.5 -48.05 -291.15 -47.55 -285.5 -52.55 -284.4 -57.3 -284.15" fill="#ff7a16" fill-rule="evenodd" stroke="none"/>
    <path d="M10.1 -299.25 Q35.75 -279.55 34.2 -249.75 L33.2 -238.25 Q32.25 -232.7 30.1 -227.4 L24.95 -217.4 12.1 -198.0 Q10.2 -194.95 7.85 -188.15 L5.6 -180.4 Q2.5 -158.9 7.2 -150.4 L9.45 -145.4 10.85 -143.25 15.35 -137.9 25.45 -130.15 Q41.15 -120.85 44.6 -117.75 L55.85 -107.5 Q56.2 -107.9 67.1 -93.25 L72.35 -83.15 72.6 -82.65 78.35 -76.0 83.2 -68.5 91.2 -53.15 103.95 -26.5 Q111.5 -9.45 115.35 13.85 122.85 61.25 104.35 90.1 95.2 102.8 67.1 121.75 42.1 135.15 38.1 131.85 32.95 129.7 33.85 122.1 L35.85 116.25 39.1 110.35 Q45.85 98.25 66.6 82.6 77.15 76.1 68.45 75.6 L68.4 75.65 Q51.2 88.0 37.35 89.35 L41.45 96.0 41.6 97.5 39.85 98.1 39.1 103.6 37.95 104.75 36.85 104.85 35.35 104.6 28.85 102.1 24.35 100.6 18.45 100.35 Q5.65 102.9 12.6 92.75 L-6.15 94.35 Q-11.75 94.9 -27.05 94.25 L-29.3 94.1 -45.55 89.5 -46.05 90.0 -49.65 89.25 -49.8 89.25 -49.8 89.1 -56.3 86.6 -60.3 85.75 Q-61.55 85.25 -70.8 85.75 L-72.3 85.35 -72.65 83.85 -72.4 82.35 -70.3 78.6 -82.15 71.5 -82.3 71.35 -82.4 71.35 -82.65 71.1 -82.8 71.1 -83.05 70.85 -83.3 70.75 -83.4 70.6 -83.65 70.5 -83.8 70.35 Q-105.1 57.7 -121.65 22.6 -130.6 -9.35 -122.8 -23.0 L-122.05 -25.0 -122.2 -25.05 -122.4 -25.15 -132.3 -9.65 -141.65 3.6 -150.3 14.5 -167.9 34.85 Q-177.8 45.05 -178.65 44.5 L-180.3 44.5 Q-181.1 43.3 -179.65 39.35 L-177.4 34.5 -155.55 -5.5 -155.55 -5.65 -155.4 -5.75 -155.4 -5.9 -155.3 -6.0 -154.9 -6.65 -154.9 -6.75 -154.8 -6.9 -154.8 -7.0 -154.65 -7.15 -154.65 -7.25 -154.55 -7.4 -150.65 -16.0 -142.3 -30.75 -142.15 -30.9 -142.15 -31.0 -142.05 -31.15 Q-130.5 -58.15 -106.15 -88.65 -94.4 -100.95 -84.15 -105.5 L-77.8 -107.75 Q-67.8 -108.6 -56.3 -112.65 -45.0 -127.25 -40.4 -139.4 -32.1 -164.45 -36.55 -184.75 L-38.8 -194.25 -41.4 -201.0 -43.05 -204.15 -50.4 -215.5 -54.4 -223.75 Q-57.4 -231.85 -56.4 -245.65 L-56.15 -245.5 -47.55 -237.15 -42.9 -234.25 Q-39.35 -231.0 -34.05 -234.25 L-33.3 -234.65 Q-32.5 -236.5 -26.4 -242.4 L-20.65 -248.25 -10.9 -256.75 -8.3 -259.65 -8.3 -260.15 1.1 -264.15 6.2 -266.75 Q11.25 -270.4 5.6 -270.0 L-4.8 -267.4 -5.4 -267.4 -8.55 -267.5 -10.05 -267.9 Q-4.0 -269.1 -0.15 -271.5 L3.95 -274.9 7.7 -278.9 10.85 -284.4 11.7 -291.15 11.1 -296.75 10.1 -299.25 M68.4 75.65 L52.85 78.1 45.45 78.6 41.6 77.75 Q38.6 76.35 38.1 74.5 37.15 74.2 36.95 70.5 L38.7 66.35 41.1 63.5 47.95 58.25 61.1 50.1 Q74.2 41.9 70.85 42.0 L70.45 40.6 68.2 39.75 Q42.7 43.4 44.2 33.85 L45.1 31.1 51.35 25.75 55.7 21.25 60.35 13.6 64.6 3.0 66.2 -4.65 66.85 -14.9 66.85 -23.0 65.6 -41.75 64.45 -47.4 62.1 -52.9 64.45 -47.4 65.6 -41.75 66.85 -23.0 66.85 -14.9 66.2 -4.65 64.6 3.0 60.35 13.6 55.7 21.25 51.35 25.75 45.1 31.1 44.2 33.85 Q42.7 43.4 68.2 39.75 L70.45 40.6 70.85 42.0 Q74.2 41.9 61.1 50.1 L47.95 58.25 41.1 63.5 38.7 66.35 36.95 70.5 Q37.15 74.2 38.1 74.5 38.6 76.35 41.6 77.75 L45.45 78.6 52.85 78.1 68.4 75.65 M72.35 -83.15 L69.95 -85.9 72.35 -83.15 M-129.9 -19.65 L-137.8 -11.25 -142.8 -6.75 Q-154.85 2.5 -150.15 -6.75 L-143.65 -23.0 -142.65 -26.65 -143.65 -23.0 -150.15 -6.75 Q-154.85 2.5 -142.8 -6.75 L-137.8 -11.25 -129.9 -19.65 M-122.2 -25.05 L-116.55 -39.25 -105.9 -61.0 -93.15 -79.4 -105.9 -61.0 -116.55 -39.25 -122.2 -25.05 M-56.3 -112.65 L-56.55 -112.4 -63.8 -102.65 -56.55 -112.4 -56.3 -112.65 M-142.65 0.75 L-143.4 1.35 -158.55 17.6 Q-167.65 25.6 -166.3 17.6 L-155.55 -5.5 -166.3 17.6 Q-167.65 25.6 -158.55 17.6 L-143.4 1.35 -142.65 0.75 M-45.55 89.5 L-55.8 85.6 -70.3 78.6 -55.8 85.6 -45.55 89.5 M-49.8 89.1 L-49.65 89.25 -49.8 89.1 M12.6 92.75 L37.35 89.35 12.6 92.75" fill="#ffffff" fill-rule="evenodd" stroke="none"/>
    <path d="M28.85 102.1 L23.1 117.0 20.95 123.85 21.85 124.6 Q22.4 126.4 24.7 129.0 L32.95 138.6 Q50.95 151.6 59.45 163.6 65.9 172.75 49.6 163.85 L42.45 160.75 38.2 159.6 Q35.85 160.1 34.95 162.6 L32.45 169.85 31.7 170.6 30.1 170.75 Q29.85 172.7 18.1 159.25 L12.95 155.85 Q10.4 154.25 -6.9 158.1 L-8.4 158.0 -9.15 156.85 -8.8 155.1 -3.65 147.35 -0.4 143.25 Q8.25 136.5 12.2 130.75 L12.2 130.6 12.7 128.75 12.85 124.1 Q12.3 123.35 13.2 119.1 L13.6 117.25 Q15.0 111.3 18.45 100.35 L24.35 100.6 28.85 102.1 M-49.8 89.25 L-48.55 105.0 -47.65 108.85 Q-46.85 112.3 -40.3 121.5 L-37.55 127.6 Q-36.6 132.3 -36.9 141.75 L-36.05 145.5 Q-34.5 151.55 -18.15 167.85 L-15.4 171.85 -14.55 174.25 Q-15.0 176.05 -18.15 175.1 L-29.05 172.0 -38.65 170.35 Q-40.8 169.8 -52.4 176.5 L-55.3 177.35 -57.3 177.25 Q-58.1 177.8 -61.15 170.6 L-63.8 168.75 -74.3 169.35 -83.65 170.85 -87.4 170.85 -88.4 170.35 Q-93.6 168.65 -58.05 151.25 -47.6 142.3 -46.4 137.6 L-46.3 137.35 -46.05 132.5 -46.3 130.75 -46.3 130.5 -48.05 126.35 Q-54.4 116.4 -55.8 111.75 L-60.3 85.75 -56.3 86.6 -49.8 89.1 -49.8 89.25 M-61.15 -250.4 L-65.4 -252.4 -74.65 -258.5 -74.65 -258.65 -79.55 -261.9 -86.4 -266.65 -86.4 -266.75 -89.3 -268.65 -104.4 -280.0 Q-108.55 -283.55 -107.65 -284.0 -106.35 -285.65 -103.8 -285.75 L-88.65 -286.25 -86.3 -286.15 -61.3 -284.25 -57.3 -284.15 -52.55 -284.4 -47.55 -285.5 -45.9 -278.65 -42.8 -274.9 Q-36.5 -270.0 -25.4 -273.65 -19.1 -268.8 -10.05 -267.9 L-8.55 -267.5 -5.4 -267.4 -4.8 -267.4 5.6 -270.0 Q11.25 -270.4 6.2 -266.75 L1.1 -264.15 -8.3 -260.15 -11.8 -260.75 -35.65 -262.5 -57.15 -266.75 -65.9 -268.0 -76.55 -268.0 -77.55 -267.75 -78.15 -267.5 -78.15 -266.75 -78.4 -266.15 -77.9 -264.9 -69.05 -256.15 -61.15 -250.5 -61.15 -250.4 M-19.05 -266.9 L-11.55 -266.65 -19.05 -266.9 M-11.05 -266.75 L-6.4 -266.95 -5.4 -267.4 -6.4 -266.95 -11.05 -266.75 M-30.8 -268.4 L-30.3 -268.4 -30.8 -268.4 M-31.65 -268.5 L-31.15 -268.5 -31.65 -268.5 M-29.9 -268.25 L-29.15 -268.25 -28.3 -268.0 -27.4 -267.9 -26.8 -267.9 -26.55 -267.85 -19.4 -267.0 -26.55 -267.85 -26.8 -267.9 -27.4 -267.9 -28.3 -268.0 -29.15 -268.25 -29.9 -268.25 M-46.3 130.75 L-46.15 130.75 -46.3 130.5 -46.15 130.75 -46.3 130.75 M20.95 123.85 Q18.25 129.25 12.85 124.1 18.25 129.25 20.95 123.85 M12.2 130.75 L12.35 130.6 12.2 130.6 12.35 130.6 12.2 130.75 M13.7 117.8 L13.35 118.75 13.2 119.1 13.35 118.75 13.7 117.8 13.6 117.25 13.7 117.8 14.6 115.35 13.7 117.8" fill="#fa410f" fill-rule="evenodd" stroke="none"/>
    <path d="M-56.4 -245.65 L-56.4 -245.75 -56.65 -246.15 -57.05 -246.65 -61.05 -250.4 -61.15 -250.4 -61.15 -250.5 -69.05 -256.15 -77.9 -264.9 -78.4 -266.15 -78.15 -266.75 -78.15 -267.5 -77.55 -267.75 -76.55 -268.0 -65.9 -268.0 -57.15 -266.75 -35.65 -262.5 -11.8 -260.75 -8.3 -260.15 -8.3 -259.65 -10.9 -256.75 -20.65 -248.25 -26.4 -242.4 Q-32.5 -236.5 -33.3 -234.65 L-34.05 -234.25 Q-39.35 -231.0 -42.9 -234.25 L-47.55 -237.15 -56.15 -245.5 -56.4 -245.65 M-56.15 -245.5 L-56.4 -245.75 -56.15 -245.5 M-56.65 -246.15 L-56.55 -246.15 -57.05 -246.65 -56.55 -246.15 -56.65 -246.15" fill="#fa420e" fill-rule="evenodd" stroke="none"/>
    <path d="M-88.65 -286.25 Q-86.4 -302.6 -79.15 -307.15 -58.15 -323.2 -55.15 -315.5 L-54.05 -312.5 -53.9 -309.0 -50.9 -311.0 -46.65 -312.15 -46.55 -312.25 Q-45.4 -322.75 -31.8 -328.25 -8.1 -335.75 3.85 -331.75 10.15 -328.1 8.7 -319.65 L9.85 -319.65 10.85 -319.0 12.2 -317.15 30.35 -286.25 34.35 -278.5 Q40.15 -266.6 41.7 -249.4 L41.1 -248.4 39.7 -247.75 36.95 -248.0 36.2 -249.0 Q34.65 -270.45 29.85 -280.15 29.25 -281.9 19.45 -295.65 L7.7 -312.0 6.45 -306.0 8.95 -302.65 10.1 -299.25 Q35.75 -279.55 34.2 -249.75 L33.2 -238.25 Q32.25 -232.7 30.1 -227.4 L24.95 -217.4 12.1 -198.0 Q10.2 -194.95 7.85 -188.15 L5.6 -180.4 Q2.5 -158.9 7.2 -150.4 L9.45 -145.4 10.85 -143.25 15.35 -137.9 25.45 -130.15 Q41.15 -120.85 44.6 -117.75 L55.85 -107.5 Q56.2 -107.9 67.1 -93.25 L72.35 -83.15 72.6 -82.65 78.35 -76.0 83.2 -68.5 91.2 -53.15 103.95 -26.5 Q111.5 -9.45 115.35 13.85 122.85 61.25 104.35 90.1 95.2 102.8 67.1 121.75 42.1 135.15 38.1 131.85 32.95 129.7 33.85 122.1 L35.85 116.25 39.1 110.35 Q45.85 98.25 66.6 82.6 77.15 76.1 68.45 75.6 L68.4 75.65 Q51.2 88.0 37.35 89.35 L41.45 96.0 41.6 97.5 39.85 98.1 39.1 103.6 37.95 104.75 36.85 104.85 35.35 104.6 28.85 102.1 23.1 117.0 20.95 123.85 21.85 124.6 Q22.4 126.4 24.7 129.0 L32.95 138.6 Q50.95 151.6 59.45 163.6 65.9 172.75 49.6 163.85 L42.45 160.75 38.2 159.6 Q35.85 160.1 34.95 162.6 L32.45 169.85 31.7 170.6 30.1 170.75 Q29.85 172.7 18.1 159.25 L12.95 155.85 Q10.4 154.25 -6.9 158.1 L-8.4 158.0 -9.15 156.85 -8.8 155.1 -3.65 147.35 -0.4 143.25 Q8.25 136.5 12.2 130.75 L12.2 130.6 12.7 128.75 12.85 124.1 Q12.3 123.35 13.2 119.1 L13.6 117.25 Q15.0 111.3 18.45 100.35 5.65 102.9 12.6 92.75 L-6.15 94.35 Q-11.75 94.9 -27.05 94.25 L-29.3 94.1 -45.55 89.5 -46.05 90.0 -49.65 89.25 -49.8 89.25 -48.55 105.0 -47.65 108.85 Q-46.85 112.3 -40.3 121.5 L-37.55 127.6 Q-36.6 132.3 -36.9 141.75 L-36.05 145.5 Q-34.5 151.55 -18.15 167.85 L-15.4 171.85 -14.55 174.25 Q-15.0 176.05 -18.15 175.1 L-29.05 172.0 -38.65 170.35 Q-40.8 169.8 -52.4 176.5 L-55.3 177.35 -57.3 177.25 Q-58.1 177.8 -61.15 170.6 L-63.8 168.75 -74.3 169.35 -83.65 170.85 -87.4 170.85 -88.4 170.35 Q-93.6 168.65 -58.05 151.25 -47.6 142.3 -46.4 137.6 L-46.3 137.35 -46.05 132.5 -46.3 130.75 -46.3 130.5 -48.05 126.35 Q-54.4 116.4 -55.8 111.75 L-60.3 85.75 Q-61.55 85.25 -70.8 85.75 L-72.3 85.35 -72.65 83.85 -72.4 82.35 -70.3 78.6 -82.15 71.5 -82.3 71.35 -82.4 71.35 -82.65 71.1 -82.8 71.1 -83.05 70.85 -83.3 70.75 -83.4 70.6 -83.65 70.5 -83.8 70.35 Q-105.1 57.7 -121.65 22.6 -130.6 -9.35 -122.8 -23.0 L-122.05 -25.0 -122.2 -25.05 -122.4 -25.15 -132.3 -9.65 -141.65 3.6 -150.3 14.5 -167.9 34.85 Q-177.8 45.05 -178.65 44.5 L-180.3 44.5 Q-181.1 43.3 -179.65 39.35 L-177.4 34.5 -155.55 -5.5 -155.55 -5.65 -155.4 -5.75 -155.4 -5.9 -155.3 -6.0 -154.9 -6.65 -154.9 -6.75 -154.8 -6.9 -154.8 -7.0 -154.65 -7.15 -154.65 -7.25 -154.55 -7.4 -150.65 -16.0 -142.3 -30.75 -142.15 -30.9 -142.15 -31.0 -142.05 -31.15 Q-130.5 -58.15 -106.15 -88.65 -94.4 -100.95 -84.15 -105.5 L-77.8 -107.75 Q-67.8 -108.6 -56.3 -112.65 -45.0 -127.25 -40.4 -139.4 -32.1 -164.45 -36.55 -184.75 L-38.8 -194.25 -41.4 -201.0 -43.05 -204.15 -50.4 -215.5 -54.4 -223.75 Q-57.4 -231.85 -56.4 -245.65 L-56.4 -245.75 -56.65 -246.15 -57.05 -246.65 -61.05 -250.4 -61.15 -250.4 -65.4 -252.4 -74.65 -258.5 Q-89.1 -253.7 -89.3 -268.65 L-104.4 -280.0 Q-108.55 -283.55 -107.65 -284.0 -106.35 -285.65 -103.8 -285.75 L-88.65 -286.25 -86.3 -286.15 -84.55 -295.25 -82.65 -299.25 Q-81.65 -301.35 -78.15 -304.65 L-74.55 -307.4 -67.9 -311.4 Q-63.1 -313.5 -61.55 -313.15 L-59.4 -311.9 Q-58.1 -308.15 -58.55 -307.4 L-58.4 -304.65 -61.3 -284.25 -57.3 -284.15 -54.3 -302.15 -54.15 -304.15 Q-55.9 -305.8 -55.15 -307.4 L-53.9 -309.0 M3.1 -320.4 L2.7 -323.65 Q2.4 -334.9 -32.65 -323.65 -33.85 -323.6 -38.3 -319.75 L-41.05 -315.5 -42.65 -310.65 -43.8 -299.25 -43.8 -291.15 -43.4 -286.65 -42.4 -283.0 Q-38.5 -271.0 -14.3 -283.0 L-9.15 -286.15 Q-3.65 -291.15 -4.65 -291.15 L-2.3 -294.9 -0.65 -299.25 1.35 -307.4 2.7 -315.5 3.1 -320.4 M8.7 -319.65 L7.7 -312.0 M6.45 -306.0 L4.1 -297.25 1.1 -291.15 -1.05 -287.75 -5.9 -283.0 -10.8 -279.5 Q-17.65 -275.85 -21.55 -274.9 L-25.4 -273.65 Q-19.1 -268.8 -10.05 -267.9 -4.0 -269.1 -0.15 -271.5 L3.95 -274.9 7.7 -278.9 10.85 -284.4 11.7 -291.15 11.1 -296.75 10.1 -299.25 M-10.05 -267.9 L-8.55 -267.5 -5.4 -267.4 -4.8 -267.4 5.6 -270.0 Q11.25 -270.4 6.2 -266.75 L1.1 -264.15 -8.3 -260.15 -8.3 -259.65 -10.9 -256.75 -20.65 -248.25 -26.4 -242.4 Q-32.5 -236.5 -33.3 -234.65 L-34.05 -234.25 Q-39.35 -231.0 -42.9 -234.25 L-47.55 -237.15 -56.15 -245.5 -56.4 -245.65 M69.95 -85.9 L72.35 -83.15 M62.1 -52.9 L64.45 -47.4 65.6 -41.75 66.85 -23.0 66.85 -14.9 66.2 -4.65 64.6 3.0 60.35 13.6 55.7 21.25 51.35 25.75 45.1 31.1 44.2 33.85 Q42.7 43.4 68.2 39.75 L70.45 40.6 70.85 42.0 Q74.2 41.9 61.1 50.1 L47.95 58.25 41.1 63.5 38.7 66.35 36.95 70.5 Q37.15 74.2 38.1 74.5 38.6 76.35 41.6 77.75 L45.45 78.6 52.85 78.1 68.4 75.65 M-54.3 -302.15 L-49.9 -302.75 -47.9 -302.5 -47.55 -307.9 -49.55 -308.5 -50.4 -308.4 -54.15 -304.15 M-47.55 -307.9 L-46.65 -312.15 M-86.4 -266.65 L-86.4 -266.75 -89.3 -268.65 M-19.4 -267.0 L-26.55 -267.85 -26.8 -267.9 -27.4 -267.9 -28.3 -268.0 -29.15 -268.25 -29.9 -268.25 M-31.15 -268.5 L-31.65 -268.5 M-30.3 -268.4 L-30.8 -268.4 M-5.4 -267.4 L-6.4 -266.95 -11.05 -266.75 M-11.55 -266.65 L-19.05 -266.9 M-8.3 -260.15 L-11.8 -260.75 -35.65 -262.5 -57.15 -266.75 -65.9 -268.0 -76.55 -268.0 -77.55 -267.75 -78.15 -267.5 -78.15 -266.75 -78.4 -266.15 -77.9 -264.9 -69.05 -256.15 -61.15 -250.5 -61.15 -250.4 M-47.55 -285.5 L-48.05 -291.15 -47.9 -302.5 M-47.55 -285.5 L-52.55 -284.4 -57.3 -284.15 M-25.4 -273.65 Q-36.5 -270.0 -42.8 -274.9 L-45.9 -278.65 -47.55 -285.5 M-74.65 -258.5 L-74.65 -258.65 -79.55 -261.9 Q-85.85 -261.55 -86.4 -266.65 L-79.55 -261.9 M-57.05 -246.65 L-56.55 -246.15 -56.65 -246.15 M-56.4 -245.75 L-56.15 -245.5 M-86.3 -286.15 L-61.3 -284.25 M-63.8 -102.65 L-56.55 -112.4 -56.3 -112.65 M-93.15 -79.4 L-105.9 -61.0 -116.55 -39.25 -122.2 -25.05 M-142.65 -26.65 L-143.65 -23.0 -150.15 -6.75 Q-154.85 2.5 -142.8 -6.75 L-137.8 -11.25 -129.9 -19.65 M-49.8 89.25 L-49.8 89.1 -56.3 86.6 -60.3 85.75 M-49.65 89.25 L-49.8 89.1 M-70.3 78.6 L-55.8 85.6 -45.55 89.5 M-155.55 -5.5 L-166.3 17.6 Q-167.65 25.6 -158.55 17.6 L-143.4 1.35 -142.65 0.75 M-46.3 130.5 L-46.15 130.75 -46.3 130.75 M37.35 89.35 L12.6 92.75 M28.85 102.1 L24.35 100.6 18.45 100.35 M13.6 117.25 L13.7 117.8 14.6 115.35 M13.2 119.1 L13.35 118.75 13.7 117.8 M12.2 130.6 L12.35 130.6 12.2 130.75 M12.85 124.1 Q18.25 129.25 20.95 123.85" fill="none" stroke="#000000" stroke-linecap="round" stroke-linejoin="round" stroke-width="2.15"/>
  </g>
</svg>
