<?xml version="1.0" encoding="UTF-8" standalone="no"?>
<svg xmlns:xlink="http://www.w3.org/1999/xlink" height="524.75px" width="294.0px" xmlns="http://www.w3.org/2000/svg">
  <g transform="matrix(1.0, 0.0, 0.0, 1.0, 192.1, 346.45)">
    <path d="M-74.8 -298.75 Q-72.9 -306.5 -63.05 -317.25 -54.65 -327.35 -50.8 -323.65 L-50.4 -318.65 -50.3 -318.65 -48.4 -320.25 -45.4 -321.4 Q-44.65 -332.0 -25.4 -340.65 L-12.9 -344.25 Q-6.8 -345.75 -2.15 -345.25 L1.85 -343.75 3.45 -339.9 3.45 -335.5 3.1 -333.5 4.2 -333.65 5.1 -333.15 7.1 -330.65 29.6 -296.0 Q32.0 -292.65 35.2 -285.75 40.15 -276.35 42.35 -258.65 41.6 -255.15 39.85 -255.1 L39.2 -255.2 Q38.0 -255.55 36.45 -257.25 L35.6 -269.15 35.45 -269.4 35.2 -271.15 35.1 -271.5 35.1 -271.9 34.95 -273.15 34.7 -274.15 34.95 -273.15 35.1 -271.9 34.6 -274.15 34.7 -274.15 34.45 -274.65 34.45 -274.75 Q33.6 -281.15 28.7 -291.0 L1.6 -326.9 0.2 -322.15 -2.9 -312.9 -5.65 -307.4 -6.9 -305.5 -8.4 -303.15 -12.8 -298.4 -16.9 -295.0 -23.3 -291.15 -30.05 -287.9 Q-46.2 -281.5 -47.8 -291.15 L-48.55 -295.4 -47.9 -307.65 -46.4 -317.65 -47.8 -317.65 -51.15 -313.0 -52.65 -305.75 -55.15 -295.5 -58.65 -295.9 -72.8 -298.4 -72.9 -298.4 -72.8 -298.9 -72.8 -298.4 -72.8 -298.9 -72.9 -298.4 -73.3 -298.5 -74.8 -298.75 M-70.55 -267.0 Q-80.9 -259.6 -79.8 -273.9 L-78.05 -272.65 -78.05 -272.5 -77.9 -272.5 -73.9 -269.5 -70.55 -267.0 M1.6 -326.9 L3.1 -333.5 1.6 -326.9 M-54.65 -313.25 L-54.75 -314.15 -54.75 -314.25 -54.55 -315.5 -54.4 -316.4 -54.35 -317.0 -54.35 -317.65 Q-54.25 -323.55 -62.05 -315.5 L-66.4 -310.75 -68.9 -307.4 -72.05 -302.15 -73.15 -299.25 -73.3 -298.5 -73.15 -299.25 -72.05 -302.15 -68.9 -307.4 -66.4 -310.75 -62.05 -315.5 Q-54.25 -323.55 -54.35 -317.65 L-54.35 -317.0 -54.4 -316.4 -54.55 -315.5 -54.75 -314.25 -54.75 -314.15 -54.65 -313.25 M-72.55 -299.25 L-72.55 -299.65 -72.35 -299.9 -72.3 -300.25 -72.15 -300.6 -72.15 -300.65 -72.05 -300.9 -72.05 -301.25 -72.05 -300.9 -72.15 -300.65 -72.15 -300.6 -72.3 -300.25 -72.35 -299.9 -72.55 -299.65 -72.55 -299.25 M-72.8 -299.25 L-72.8 -298.9 -72.8 -299.25 M-54.75 -314.15 L-58.65 -295.9 -54.75 -314.15 M-50.55 -318.4 L-50.4 -318.4 -50.3 -318.65 -50.4 -318.4 -50.55 -318.4 -52.15 -316.65 -52.55 -315.5 -52.55 -314.65 -51.15 -313.0 -52.55 -314.65 -52.55 -315.5 -52.15 -316.65 -50.55 -318.4 -50.4 -318.65 -50.55 -318.4 M-45.4 -321.4 L-46.4 -317.65 -45.4 -321.4 M-43.3 -315.5 L-42.15 -320.4 -40.9 -323.65 -38.15 -328.9 -35.15 -331.75 -29.65 -335.4 Q-25.35 -337.65 -17.3 -339.9 L-10.3 -341.5 -5.9 -341.5 -3.15 -340.25 -3.05 -339.9 -2.05 -337.5 Q-1.85 -332.4 -2.4 -331.75 L-4.3 -323.65 -8.05 -312.4 -12.4 -304.75 Q-16.35 -300.25 -18.55 -299.25 -24.35 -294.35 -34.9 -291.15 -36.15 -290.2 -40.9 -290.5 L-41.8 -291.15 Q-43.4 -290.95 -44.55 -294.5 L-45.05 -299.25 -43.3 -315.5 -45.05 -299.25 -44.55 -294.5 Q-43.4 -290.95 -41.8 -291.15 L-40.9 -290.5 Q-36.15 -290.2 -34.9 -291.15 -24.35 -294.35 -18.55 -299.25 -16.35 -300.25 -12.4 -304.75 L-8.05 -312.4 -4.3 -323.65 -2.4 -331.75 Q-1.85 -332.4 -2.05 -337.5 L-3.05 -339.9 -3.15 -340.25 -5.9 -341.5 -10.3 -341.5 -17.3 -339.9 Q-25.35 -337.65 -29.65 -335.4 L-35.15 -331.75 -38.15 -328.9 -40.9 -323.65 -42.15 -320.4 -43.3 -315.5 M-73.9 -269.5 Q-78.35 -268.05 -78.05 -272.5 -78.35 -268.05 -73.9 -269.5" fill="#43396f" fill-rule="evenodd" stroke="none"/>
    <path d="M23.1 100.75 L15.2 114.0 15.1 114.5 15.0 115.15 14.35 118.5 Q14.5 119.7 23.45 132.5 L27.45 137.6 36.85 146.5 42.95 153.6 47.6 160.1 Q55.4 172.25 42.45 163.85 L33.1 158.5 28.2 156.75 Q26.15 156.8 24.35 159.6 L21.1 166.85 20.45 167.5 19.1 167.85 17.2 167.25 Q5.2 150.1 3.2 151.0 -0.4 149.15 -18.55 151.6 L-19.3 150.25 -18.8 148.85 -17.3 146.5 -7.4 135.25 0.45 129.5 4.6 125.6 5.6 124.0 6.2 121.35 Q3.4 118.95 4.35 116.6 L11.45 101.1 19.1 99.35 23.1 100.75 M-51.55 85.5 Q-49.35 98.65 -47.4 104.1 L-38.05 123.6 Q-36.75 123.9 -36.65 140.0 L-35.65 144.1 Q-34.8 149.7 -15.4 168.85 L-13.05 172.85 -12.8 173.75 -13.8 174.85 -17.05 174.6 -30.9 170.85 -37.05 170.1 -42.15 171.75 Q-51.55 177.25 -52.9 177.25 L-54.9 177.25 -55.8 176.85 Q-58.15 170.6 -62.05 168.85 -69.1 168.55 -81.4 171.0 L-85.8 171.1 -86.9 170.5 Q-91.9 169.4 -57.9 151.1 L-49.9 143.0 -46.4 137.5 -45.8 134.0 -46.3 127.25 -52.55 114.1 -56.15 105.0 Q-58.5 95.15 -61.05 88.1 L-62.65 81.1 -62.55 81.1 -58.05 82.6 -51.55 85.5 M-59.4 -259.25 L-70.55 -267.0 -73.9 -269.5 -77.9 -272.5 -78.05 -272.65 -77.9 -272.5 -78.05 -272.5 -78.05 -272.65 -79.8 -273.9 -105.55 -293.4 Q-114.55 -300.3 -115.05 -302.65 -109.25 -305.1 -77.15 -299.25 L-74.8 -298.75 -73.3 -298.5 -72.9 -298.4 -72.8 -298.4 -58.65 -295.9 -55.15 -295.5 -48.55 -295.4 -47.8 -291.15 Q-46.2 -281.5 -30.05 -287.9 L-26.55 -284.25 -24.3 -283.0 Q-21.05 -280.6 -15.8 -279.4 L-9.9 -279.15 Q17.75 -284.8 -3.3 -274.9 L-10.8 -271.4 Q-12.75 -272.25 -20.4 -273.15 L-40.3 -275.65 Q-62.3 -281.7 -70.8 -283.0 L-74.55 -283.25 -81.9 -283.0 -82.4 -282.5 -81.9 -280.4 -73.8 -271.5 Q-72.0 -269.4 -67.9 -266.75 L-64.3 -264.0 -59.65 -259.65 -59.4 -259.25 M-43.4 -283.5 L-42.65 -283.4 -42.05 -283.25 -41.15 -283.15 -40.9 -283.15 -22.9 -279.75 -15.8 -279.4 -22.9 -279.75 -40.9 -283.15 -41.15 -283.15 -42.05 -283.25 -42.65 -283.4 -43.4 -283.5 M13.45 118.0 L15.0 115.15 13.45 118.0 Q14.25 117.15 14.35 118.5 14.25 117.15 13.45 118.0 L12.55 119.2 11.75 120.55 11.1 121.75 9.85 122.35 8.1 122.25 6.2 121.35 8.1 122.25 9.85 122.35 11.1 121.75 11.75 120.55 12.55 119.2 13.45 118.0 M12.55 119.2 L14.6 115.1 15.1 114.5 14.6 115.1 12.55 119.2" fill="#fa410f" fill-rule="evenodd" stroke="none"/>
    <path d="M0.2 -322.15 L5.35 -317.75 Q9.7 -312.15 10.1 -308.5 L11.1 -304.65 11.2 -299.25 Q11.65 -298.85 9.85 -295.15 L6.95 -291.15 Q3.1 -286.2 -2.3 -283.0 L-5.15 -281.15 -9.9 -279.15 -15.8 -279.4 Q-21.05 -280.6 -24.3 -283.0 L-26.55 -284.25 -30.05 -287.9 -23.3 -291.15 -16.9 -295.0 -12.8 -298.4 Q-7.85 -293.95 -5.15 -299.25 -4.05 -303.9 -6.9 -305.5 L-5.65 -307.4 -2.9 -312.9 0.2 -322.15 M-52.65 -305.75 L-47.9 -307.65 -48.55 -295.4 -55.15 -295.5 -52.65 -305.75" fill="#ff7a16" fill-rule="evenodd" stroke="none"/>
    <path d="M-12.8 -298.4 L-8.4 -303.15 -6.9 -305.5 Q-4.05 -303.9 -5.15 -299.25 -7.85 -293.95 -12.8 -298.4" fill="#000000" fill-rule="evenodd" stroke="none"/>
    <path d="M-48.3 -247.9 L-59.05 -259.0 -59.4 -259.25 -59.65 -259.65 -64.3 -264.0 -67.9 -266.75 Q-72.0 -269.4 -73.8 -271.5 L-81.9 -280.4 -82.4 -282.5 -81.9 -283.0 -74.55 -283.25 -70.8 -283.0 Q-62.3 -281.7 -40.3 -275.65 L-20.4 -273.15 Q-12.75 -272.25 -10.8 -271.4 L-10.65 -271.15 -12.8 -268.75 -23.9 -258.65 -31.3 -250.5 -34.65 -245.65 -38.05 -243.15 -40.3 -242.9 Q-42.8 -243.65 -48.3 -247.9 M-59.05 -259.0 L-59.65 -259.65 -59.05 -259.0" fill="#fa420e" fill-rule="evenodd" stroke="none"/>
    <path d="M36.45 -257.25 Q36.7 -244.6 31.45 -232.15 28.95 -223.95 10.95 -205.0 L8.6 -201.4 5.35 -194.0 Q-0.9 -178.95 3.35 -161.15 6.9 -149.4 14.2 -143.65 17.5 -140.35 40.6 -124.25 L49.2 -115.5 56.85 -105.75 63.35 -94.65 70.85 -79.6 86.6 -47.75 95.7 -20.75 100.85 4.75 100.85 27.35 94.1 45.25 Q80.6 62.55 78.6 62.6 L78.5 62.85 72.85 72.1 67.7 78.0 Q53.25 90.05 36.6 94.35 L37.2 96.0 37.2 97.35 35.1 97.75 33.95 102.6 32.45 104.25 30.35 104.0 23.1 100.75 19.1 99.35 11.45 101.1 Q-2.1 103.9 -14.9 102.5 -25.6 99.45 -21.05 91.0 L-35.9 89.85 -49.4 85.25 -49.9 85.75 -51.55 85.5 -58.05 82.6 -62.55 81.1 -62.65 81.1 -62.65 81.0 -73.9 80.5 -75.65 80.0 -75.9 78.0 -75.65 77.1 -73.8 74.0 -73.8 73.85 Q-105.1 57.2 -119.65 24.1 L-124.55 9.6 -125.9 1.75 Q-126.0 -29.2 -119.8 -35.4 L-119.9 -35.4 Q-133.25 -17.65 -139.3 -10.9 L-155.4 5.75 Q-193.15 40.05 -190.9 30.1 L-189.65 27.1 -187.65 23.85 -173.05 4.25 -172.85 3.85 -170.4 -1.25 Q-161.85 -12.35 -152.55 -27.65 L-144.15 -39.0 -141.15 -44.9 -134.65 -55.5 -124.8 -69.15 -113.3 -83.4 Q-89.4 -114.85 -61.3 -115.25 L-61.15 -115.25 -51.55 -129.75 -46.05 -139.4 Q-34.3 -165.5 -35.55 -186.15 L-36.3 -196.65 -37.9 -205.5 Q-39.9 -212.65 -45.4 -222.75 L-47.9 -230.9 -48.4 -234.25 -48.65 -241.15 -48.3 -247.9 Q-42.8 -243.65 -40.3 -242.9 L-38.05 -243.15 -34.65 -245.65 -31.3 -250.5 -23.9 -258.65 -12.8 -268.75 -10.65 -271.15 -10.8 -271.4 -3.3 -274.9 Q17.75 -284.8 -9.9 -279.15 L-5.15 -281.15 -2.3 -283.0 Q3.1 -286.2 6.95 -291.15 L9.85 -295.15 Q11.65 -298.85 11.2 -299.25 L11.1 -304.65 10.1 -308.5 Q28.15 -297.9 34.45 -274.75 L34.45 -274.65 34.6 -274.15 35.1 -271.9 35.1 -271.5 35.2 -271.15 35.45 -269.4 35.6 -269.15 36.45 -257.25 M40.35 26.6 L38.9 27.7 37.6 26.5 35.6 25.75 Q16.25 22.3 15.2 17.6 13.2 12.1 15.7 11.6 L23.1 9.5 Q30.1 7.8 34.6 1.35 L38.35 -3.25 42.1 -9.5 45.1 -16.4 46.95 -23.0 47.6 -24.75 49.7 -39.25 50.35 -53.65 49.95 -55.5 48.7 -59.4 49.95 -55.5 50.35 -53.65 49.7 -39.25 47.6 -24.75 46.95 -23.0 45.1 -16.4 42.1 -9.5 38.35 -3.25 34.6 1.35 Q30.1 7.8 23.1 9.5 L15.7 11.6 Q13.2 12.1 15.2 17.6 16.25 22.3 35.6 25.75 L37.6 26.5 38.9 27.7 40.35 26.6 M70.85 -78.9 L70.85 -79.6 70.85 -78.9 M71.6 -77.25 L71.45 -77.75 71.6 -77.25 M78.5 62.85 L82.1 54.25 85.85 42.0 87.7 33.85 88.95 25.75 90.2 12.25 89.35 -6.75 87.1 -23.0 85.35 -31.15 77.95 -55.5 72.1 -71.75 68.35 -79.9 62.7 -88.4 68.35 -79.9 72.1 -71.75 77.95 -55.5 85.35 -31.15 87.1 -23.0 89.35 -6.75 90.2 12.25 88.95 25.75 87.7 33.85 85.85 42.0 82.1 54.25 78.5 62.85 M-62.65 81.0 L-62.55 81.1 -62.65 81.0 M-73.65 74.0 L-73.8 73.85 -73.65 74.0 -63.9 79.35 -49.4 85.25 -63.9 79.35 -73.65 74.0 -73.8 74.0 -73.65 74.0 M-77.9 -90.9 L-61.3 -115.25 -77.9 -90.9 M-119.9 -35.4 L-119.4 -36.15 -114.15 -47.4 -99.9 -71.75 -90.4 -84.65 -89.4 -86.5 -90.4 -84.65 -99.9 -71.75 -114.15 -47.4 -119.4 -36.15 -119.8 -35.4 -119.4 -36.15 -119.9 -35.4 M-172.85 3.85 Q-173.85 7.9 -169.65 6.75 L-164.9 4.35 -150.3 -6.75 -148.8 -7.65 -150.3 -6.75 -164.9 4.35 -169.65 6.75 Q-173.85 7.9 -172.85 3.85 M-134.9 -28.15 L-141.8 -23.0 Q-159.15 -11.5 -152.55 -23.0 L-145.15 -35.25 -142.3 -42.0 -145.15 -35.25 -152.55 -23.0 Q-159.15 -11.5 -141.8 -23.0 L-134.9 -28.15 M-21.05 91.0 L-17.3 85.6 -11.65 80.6 -2.05 74.5 3.95 71.25 Q10.7 67.9 15.95 66.35 L24.35 63.75 Q31.9 60.85 31.2 60.5 L27.6 58.5 26.45 58.25 Q24.8 57.4 12.7 55.85 L4.6 54.0 0.45 52.0 -1.15 50.1 Q-4.7 46.4 -1.15 42.0 -2.15 39.3 20.85 33.85 27.9 32.6 33.7 30.35 L38.95 27.75 38.9 27.7 38.95 27.75 33.7 30.35 Q27.9 32.6 20.85 33.85 -2.15 39.3 -1.15 42.0 -4.7 46.4 -1.15 50.1 L0.45 52.0 4.6 54.0 12.7 55.85 Q24.8 57.4 26.45 58.25 L27.6 58.5 31.2 60.5 Q31.9 60.85 24.35 63.75 L15.95 66.35 Q10.7 67.9 3.95 71.25 L-2.05 74.5 -11.65 80.6 -17.3 85.6 -21.05 91.0 M19.1 99.35 L36.6 94.35 19.1 99.35" fill="#ffffff" fill-rule="evenodd" stroke="none"/>
    <path d="M-74.8 -298.75 Q-72.9 -306.5 -63.05 -317.25 -54.65 -327.35 -50.8 -323.65 L-50.4 -318.65 -50.3 -318.65 -48.4 -320.25 -45.4 -321.4 Q-44.65 -332.0 -25.4 -340.65 L-12.9 -344.25 Q-6.8 -345.75 -2.15 -345.25 L1.85 -343.75 3.45 -339.9 3.45 -335.5 3.1 -333.5 4.2 -333.65 5.1 -333.15 7.1 -330.65 29.6 -296.0 Q32.0 -292.65 35.2 -285.75 40.15 -276.35 42.35 -258.65 41.6 -255.15 39.85 -255.1 L39.2 -255.2 Q38.0 -255.55 36.45 -257.25 36.7 -244.6 31.45 -232.15 28.95 -223.95 10.95 -205.0 L8.6 -201.4 5.35 -194.0 Q-0.9 -178.95 3.35 -161.15 6.9 -149.4 14.2 -143.65 17.5 -140.35 40.6 -124.25 L49.2 -115.5 56.85 -105.75 63.35 -94.65 70.85 -79.6 86.6 -47.75 95.7 -20.75 100.85 4.75 100.85 27.35 94.1 45.25 Q80.6 62.55 78.6 62.6 L78.5 62.85 72.85 72.1 67.7 78.0 Q53.25 90.05 36.6 94.35 L37.2 96.0 37.2 97.35 35.1 97.75 33.95 102.6 32.45 104.25 30.35 104.0 23.1 100.75 15.2 114.0 15.1 114.5 15.0 115.15 14.35 118.5 Q14.5 119.7 23.45 132.5 L27.45 137.6 36.85 146.5 42.95 153.6 47.6 160.1 Q55.4 172.25 42.45 163.85 L33.1 158.5 28.2 156.75 Q26.15 156.8 24.35 159.6 L21.1 166.85 20.45 167.5 19.1 167.85 17.2 167.25 Q5.2 150.1 3.2 151.0 -0.4 149.15 -18.55 151.6 L-19.3 150.25 -18.8 148.85 -17.3 146.5 -7.4 135.25 0.45 129.5 4.6 125.6 5.6 124.0 6.2 121.35 Q3.4 118.95 4.35 116.6 L11.45 101.1 Q-2.1 103.9 -14.9 102.5 -25.6 99.45 -21.05 91.0 L-35.9 89.85 -49.4 85.25 -49.9 85.75 -51.55 85.5 Q-49.35 98.65 -47.4 104.1 L-38.05 123.6 Q-36.75 123.9 -36.65 140.0 L-35.65 144.1 Q-34.8 149.7 -15.4 168.85 L-13.05 172.85 -12.8 173.75 -13.8 174.85 -17.05 174.6 -30.9 170.85 -37.05 170.1 -42.15 171.75 Q-51.55 177.25 -52.9 177.25 L-54.9 177.25 -55.8 176.85 Q-58.15 170.6 -62.05 168.85 -69.1 168.55 -81.4 171.0 L-85.8 171.1 -86.9 170.5 Q-91.9 169.4 -57.9 151.1 L-49.9 143.0 -46.4 137.5 -45.8 134.0 -46.3 127.25 -52.55 114.1 -56.15 105.0 Q-58.5 95.15 -61.05 88.1 L-62.65 81.1 -62.65 81.0 -73.9 80.5 -75.65 80.0 -75.9 78.0 -75.65 77.1 -73.8 74.0 -73.8 73.85 Q-105.1 57.2 -119.65 24.1 L-124.55 9.6 -125.9 1.75 Q-126.0 -29.2 -119.8 -35.4 L-119.9 -35.4 Q-133.25 -17.65 -139.3 -10.9 L-155.4 5.75 Q-193.15 40.05 -190.9 30.1 L-189.65 27.1 -187.65 23.85 -173.05 4.25 -172.85 3.85 -170.4 -1.25 Q-161.85 -12.35 -152.55 -27.65 L-144.15 -39.0 -141.15 -44.9 -134.65 -55.5 -124.8 -69.15 -113.3 -83.4 Q-89.4 -114.85 -61.3 -115.25 L-61.15 -115.25 -51.55 -129.75 -46.05 -139.4 Q-34.3 -165.5 -35.55 -186.15 L-36.3 -196.65 -37.9 -205.5 Q-39.9 -212.65 -45.4 -222.75 L-47.9 -230.9 -48.4 -234.25 -48.65 -241.15 -48.3 -247.9 -59.05 -259.0 -59.4 -259.25 -70.55 -267.0 Q-80.9 -259.6 -79.8 -273.9 L-105.55 -293.4 Q-114.55 -300.3 -115.05 -302.65 -109.25 -305.1 -77.15 -299.25 L-74.8 -298.75 -73.3 -298.5 -73.15 -299.25 -72.05 -302.15 -68.9 -307.4 -66.4 -310.75 -62.05 -315.5 Q-54.25 -323.55 -54.35 -317.65 L-54.35 -317.0 -54.4 -316.4 -54.55 -315.5 -54.75 -314.25 -54.75 -314.15 -54.65 -313.25 M3.1 -333.5 L1.6 -326.9 28.7 -291.0 Q33.6 -281.15 34.45 -274.75 L34.45 -274.65 34.7 -274.15 34.95 -273.15 35.1 -271.9 35.1 -271.5 35.2 -271.15 35.45 -269.4 35.6 -269.15 36.45 -257.25 M1.6 -326.9 L0.2 -322.15 5.35 -317.75 Q9.7 -312.15 10.1 -308.5 28.15 -297.9 34.45 -274.75 M10.1 -308.5 L11.1 -304.65 11.2 -299.25 Q11.65 -298.85 9.85 -295.15 L6.95 -291.15 Q3.1 -286.2 -2.3 -283.0 L-5.15 -281.15 -9.9 -279.15 Q17.75 -284.8 -3.3 -274.9 L-10.8 -271.4 -10.65 -271.15 -12.8 -268.75 -23.9 -258.65 -31.3 -250.5 -34.65 -245.65 -38.05 -243.15 -40.3 -242.9 Q-42.8 -243.65 -48.3 -247.9 M34.7 -274.15 L34.6 -274.15 35.1 -271.9 M34.6 -274.15 L34.45 -274.65 M62.7 -88.4 L68.35 -79.9 72.1 -71.75 77.95 -55.5 85.35 -31.15 87.1 -23.0 89.35 -6.75 90.2 12.25 88.95 25.75 87.7 33.85 85.85 42.0 82.1 54.25 78.5 62.85 M71.45 -77.75 L71.6 -77.25 M70.85 -79.6 L70.85 -78.9 M48.7 -59.4 L49.95 -55.5 50.35 -53.65 49.7 -39.25 47.6 -24.75 46.95 -23.0 45.1 -16.4 42.1 -9.5 38.35 -3.25 34.6 1.35 Q30.1 7.8 23.1 9.5 L15.7 11.6 Q13.2 12.1 15.2 17.6 16.25 22.3 35.6 25.75 L37.6 26.5 38.9 27.7 40.35 26.6 M-72.05 -301.25 L-72.05 -300.9 -72.15 -300.65 -72.15 -300.6 -72.3 -300.25 -72.35 -299.9 -72.55 -299.65 -72.55 -299.25 M-72.8 -298.4 L-72.8 -298.9 -72.9 -298.4 -72.8 -298.4 -58.65 -295.9 -54.75 -314.15 M-72.8 -298.9 L-72.8 -299.25 M-73.3 -298.5 L-72.9 -298.4 M-51.15 -313.0 L-52.55 -314.65 -52.55 -315.5 -52.15 -316.65 -50.55 -318.4 -50.4 -318.65 M-50.3 -318.65 L-50.4 -318.4 -50.55 -318.4 M-47.9 -307.65 L-46.4 -317.65 -47.8 -317.65 -51.15 -313.0 -52.65 -305.75 -47.9 -307.65 -48.55 -295.4 -47.8 -291.15 Q-46.2 -281.5 -30.05 -287.9 L-23.3 -291.15 -16.9 -295.0 -12.8 -298.4 -8.4 -303.15 -6.9 -305.5 -5.65 -307.4 -2.9 -312.9 0.2 -322.15 M-43.3 -315.5 L-45.05 -299.25 -44.55 -294.5 Q-43.4 -290.95 -41.8 -291.15 L-40.9 -290.5 Q-36.15 -290.2 -34.9 -291.15 -24.35 -294.35 -18.55 -299.25 -16.35 -300.25 -12.4 -304.75 L-8.05 -312.4 -4.3 -323.65 -2.4 -331.75 Q-1.85 -332.4 -2.05 -337.5 L-3.05 -339.9 -3.15 -340.25 -5.9 -341.5 -10.3 -341.5 -17.3 -339.9 Q-25.35 -337.65 -29.65 -335.4 L-35.15 -331.75 -38.15 -328.9 -40.9 -323.65 -42.15 -320.4 -43.3 -315.5 M-46.4 -317.65 L-45.4 -321.4 M-6.9 -305.5 Q-4.05 -303.9 -5.15 -299.25 -7.85 -293.95 -12.8 -298.4 M-10.8 -271.4 Q-12.75 -272.25 -20.4 -273.15 L-40.3 -275.65 Q-62.3 -281.7 -70.8 -283.0 L-74.55 -283.25 -81.9 -283.0 -82.4 -282.5 -81.9 -280.4 -73.8 -271.5 Q-72.0 -269.4 -67.9 -266.75 L-64.3 -264.0 -59.65 -259.65 -59.05 -259.0 M-30.05 -287.9 L-26.55 -284.25 -24.3 -283.0 Q-21.05 -280.6 -15.8 -279.4 L-9.9 -279.15 M-15.8 -279.4 L-22.9 -279.75 -40.9 -283.15 -41.15 -283.15 -42.05 -283.25 -42.65 -283.4 -43.4 -283.5 M-55.15 -295.5 L-58.65 -295.9 M-48.55 -295.4 L-55.15 -295.5 -52.65 -305.75 M-78.05 -272.65 L-77.9 -272.5 -73.9 -269.5 -70.55 -267.0 M-78.05 -272.5 L-78.05 -272.65 -79.8 -273.9 M-77.9 -272.5 L-78.05 -272.5 Q-78.35 -268.05 -73.9 -269.5 M-59.65 -259.65 L-59.4 -259.25 M-89.4 -86.5 L-90.4 -84.65 -99.9 -71.75 -114.15 -47.4 -119.4 -36.15 -119.8 -35.4 M-142.3 -42.0 L-145.15 -35.25 -152.55 -23.0 Q-159.15 -11.5 -141.8 -23.0 L-134.9 -28.15 M-148.8 -7.65 L-150.3 -6.75 -164.9 4.35 -169.65 6.75 Q-173.85 7.9 -172.85 3.85 M-119.4 -36.15 L-119.9 -35.4 M-61.3 -115.25 L-77.9 -90.9 M-49.4 85.25 L-63.9 79.35 -73.65 74.0 -73.8 74.0 M-73.8 73.85 L-73.65 74.0 M-62.55 81.1 L-62.65 81.0 M-62.65 81.1 L-62.55 81.1 -58.05 82.6 -51.55 85.5 M38.9 27.7 L38.95 27.75 33.7 30.35 Q27.9 32.6 20.85 33.85 -2.15 39.3 -1.15 42.0 -4.7 46.4 -1.15 50.1 L0.45 52.0 4.6 54.0 12.7 55.85 Q24.8 57.4 26.45 58.25 L27.6 58.5 31.2 60.5 Q31.9 60.85 24.35 63.75 L15.95 66.35 Q10.7 67.9 3.95 71.25 L-2.05 74.5 -11.65 80.6 -17.3 85.6 -21.05 91.0 M23.1 100.75 L19.1 99.35 11.45 101.1 M14.35 118.5 Q14.25 117.15 13.45 118.0 L12.55 119.2 11.75 120.55 11.1 121.75 9.85 122.35 8.1 122.25 6.2 121.35 M15.1 114.5 L14.6 115.1 12.55 119.2 M15.0 115.15 L13.45 118.0 M36.6 94.35 L19.1 99.35" fill="none" stroke="#000000" stroke-linecap="round" stroke-linejoin="round" stroke-width="2.15"/>
  </g>
</svg>
