<?xml version="1.0" encoding="UTF-8" standalone="no"?>
<svg xmlns:xlink="http://www.w3.org/1999/xlink" height="534.8px" width="299.3px" xmlns="http://www.w3.org/2000/svg">
  <g transform="matrix(1.0, 0.0, 0.0, 1.0, 202.3, 357.25)">
    <path d="M-40.05 -329.25 Q-32.6 -350.85 0.1 -356.15 1.85 -356.7 3.1 -352.5 L1.85 -346.4 -0.15 -340.75 1.85 -346.4 3.2 -346.65 3.7 -346.25 5.85 -343.75 30.2 -306.9 Q32.75 -303.45 36.6 -295.75 L40.95 -284.4 42.85 -275.65 43.7 -265.15 43.1 -263.9 41.95 -263.25 40.95 -263.15 39.2 -263.4 38.35 -264.25 37.85 -266.75 37.6 -274.9 36.6 -283.0 34.35 -291.15 30.95 -299.25 25.1 -307.4 23.95 -308.75 -0.15 -340.75 -2.8 -334.25 -8.65 -321.75 -16.4 -312.0 Q-20.1 -308.35 -22.05 -307.4 L-28.9 -302.65 -33.65 -299.9 -35.4 -299.25 Q-44.0 -296.0 -44.3 -299.25 L-44.8 -299.65 -45.65 -302.15 -45.65 -305.15 -45.3 -309.25 -41.55 -324.9 -40.05 -329.25 -41.55 -324.9 -43.9 -320.65 -48.4 -306.65 -48.4 -306.5 -48.55 -306.4 -48.8 -305.5 -52.15 -306.0 -45.9 -326.25 -45.65 -327.25 -45.9 -326.25 -52.15 -306.0 -57.15 -307.0 -57.05 -307.4 -50.45 -319.55 -50.4 -319.65 -48.6 -322.6 -48.2 -323.25 -47.9 -323.65 -47.7 -324.05 -46.4 -326.25 -45.9 -326.25 -46.4 -326.25 -47.7 -324.05 -47.9 -323.65 -48.2 -323.25 -48.6 -322.6 -50.4 -319.65 -50.45 -319.55 -57.05 -307.4 -57.15 -307.0 -57.8 -307.25 Q-42.05 -340.6 -42.3 -328.15 L-40.05 -329.25 M-62.8 -274.5 Q-70.5 -265.3 -67.4 -278.0 L-67.3 -278.0 -66.55 -277.5 -66.55 -277.4 -66.4 -277.25 -66.3 -277.25 -65.4 -276.5 -63.15 -274.9 -62.8 -274.5 M-19.05 -348.0 Q1.25 -357.55 -2.65 -348.0 L-3.05 -345.5 -9.4 -328.9 -14.4 -320.15 -18.25 -315.6 -22.3 -311.9 -28.9 -307.4 Q-44.6 -297.9 -42.55 -307.4 L-42.4 -309.9 -39.15 -323.65 -36.15 -331.75 -32.8 -337.75 -30.8 -339.9 Q-30.05 -341.25 -25.3 -344.65 L-19.05 -348.0 -25.3 -344.65 Q-30.05 -341.25 -30.8 -339.9 L-32.8 -337.75 -36.15 -331.75 -39.15 -323.65 -42.4 -309.9 -42.55 -307.4 Q-44.6 -297.9 -28.9 -307.4 L-22.3 -311.9 -18.25 -315.6 -14.4 -320.15 -9.4 -328.9 -3.05 -345.5 -2.65 -348.0 Q1.25 -357.55 -19.05 -348.0 M-42.3 -328.15 L-45.55 -323.65 -45.65 -322.75 -44.55 -321.65 -44.4 -320.75 -43.9 -320.65 -44.4 -320.75 -44.55 -321.65 -45.65 -322.75 -45.55 -323.65 -42.3 -328.15 M-48.2 -323.25 L-47.7 -324.05 -48.2 -323.25 -48.3 -323.15 -48.6 -322.6 -48.3 -323.15 -48.2 -323.25 M-66.4 -277.25 L-66.55 -277.25 -66.55 -277.4 -66.55 -277.25 -66.4 -277.25 M-65.4 -276.5 L-66.5 -275.2 -66.65 -275.1 Q-67.1 -275.05 -66.7 -276.65 L-66.55 -277.25 -66.7 -276.65 Q-67.1 -275.05 -66.65 -275.1 L-66.5 -275.2 -65.4 -276.5" fill="#43396f" fill-rule="evenodd" stroke="none"/>
    <path d="M40.95 -263.15 Q41.85 -248.4 32.2 -231.65 26.9 -221.9 9.35 -209.65 L7.1 -206.9 4.1 -201.25 Q-2.85 -187.6 0.95 -171.15 L3.7 -162.5 Q4.6 -160.1 8.95 -154.4 L14.85 -148.65 28.1 -139.0 34.95 -133.0 42.85 -124.9 48.7 -117.4 54.6 -108.25 72.45 -75.9 Q84.4 -52.55 91.6 -21.65 L95.85 3.1 95.6 23.6 Q97.45 22.85 88.85 43.6 L77.7 57.1 Q49.7 82.5 27.7 84.85 L32.35 92.5 33.2 95.75 32.95 96.1 30.85 96.1 30.35 96.5 28.95 101.1 27.35 102.5 25.1 102.0 17.7 98.35 14.6 97.0 6.7 96.1 Q-3.9 97.05 5.1 87.1 L5.4 86.7 5.95 86.1 Q-33.0 89.2 -52.65 80.35 L-52.9 80.1 -53.3 80.5 -55.3 80.1 -64.3 75.85 -64.4 75.75 -64.65 75.75 -66.05 75.1 -76.15 74.35 -78.4 73.6 -78.55 71.5 -76.8 68.35 Q-110.5 48.6 -121.4 14.35 -132.85 -16.9 -114.55 -50.15 L-114.4 -50.25 -113.9 -51.15 -113.8 -51.25 -113.8 -51.4 -113.65 -51.5 -113.55 -51.75 -113.4 -51.9 -113.4 -52.0 -113.3 -52.15 -113.3 -52.25 -113.05 -52.5 -113.05 -52.65 -112.9 -52.75 -112.9 -52.9 -112.65 -53.15 -112.65 -53.25 -112.65 -53.4 Q-136.4 -25.2 -156.65 -11.25 L-175.15 0.5 -192.4 9.85 Q-205.1 15.3 -199.55 7.0 L-194.55 1.1 -178.55 -14.25 -178.5 -14.5 -178.4 -16.9 Q-178.3 -18.6 -174.15 -23.0 L-163.15 -33.5 -146.05 -52.05 -145.3 -52.9 -139.8 -61.4 -135.55 -66.9 -129.9 -73.15 -114.8 -88.4 -102.3 -99.65 -86.3 -112.15 Q-72.55 -121.45 -64.8 -121.0 L-64.75 -121.05 -62.9 -123.65 -62.8 -123.75 Q-46.1 -147.15 -39.65 -168.5 -32.75 -190.1 -35.55 -216.4 L-35.65 -216.5 Q-43.75 -241.85 -41.05 -254.4 -36.9 -249.75 -32.3 -258.65 L-31.05 -260.65 -23.3 -270.0 -11.55 -280.9 -10.55 -282.4 4.45 -290.0 5.2 -291.15 5.2 -292.0 2.1 -292.65 -4.9 -291.65 1.1 -295.4 5.85 -299.25 12.1 -305.65 12.85 -307.4 14.1 -309.5 14.2 -310.5 13.85 -315.5 13.6 -316.75 17.35 -314.65 23.95 -308.75 25.1 -307.4 30.95 -299.25 34.35 -291.15 36.6 -283.0 37.6 -274.9 37.85 -266.75 38.35 -264.25 39.2 -263.4 40.95 -263.15 M6.9 6.95 L8.1 6.6 10.6 5.0 8.1 6.6 6.9 6.95 6.95 7.0 2.7 8.1 -2.9 8.75 -22.55 8.35 Q-27.8 8.55 -30.55 9.5 L-34.4 11.85 Q-36.35 13.5 -35.05 17.6 -34.75 19.7 -31.15 22.35 L-25.4 25.75 -14.65 30.75 -9.05 33.85 -8.45 34.45 -8.4 34.5 -14.3 35.75 -30.4 37.0 -38.05 38.1 -46.8 40.25 -52.15 42.0 -59.9 45.5 -65.15 49.25 -65.8 50.1 Q-69.85 56.05 -67.15 58.25 L-66.9 59.1 -63.55 61.6 Q-59.85 63.45 -54.4 64.85 L-47.3 66.35 Q-19.8 72.1 12.2 66.35 13.9 66.55 23.35 62.5 L29.7 58.25 35.95 52.6 43.45 43.5 49.6 33.85 53.95 25.75 59.2 13.5 62.35 3.25 62.6 1.35 64.35 -6.75 65.7 -23.0 65.7 -31.15 64.45 -47.4 61.1 -71.75 59.35 -79.9 56.35 -88.0 53.85 -92.9 56.35 -88.0 59.35 -79.9 61.1 -71.75 64.45 -47.4 65.7 -31.15 65.7 -23.0 64.35 -6.75 62.6 1.35 62.35 3.25 59.2 13.5 53.95 25.75 49.6 33.85 43.45 43.5 35.95 52.6 29.7 58.25 23.35 62.5 Q13.9 66.55 12.2 66.35 -19.8 72.1 -47.3 66.35 L-54.4 64.85 Q-59.85 63.45 -63.55 61.6 L-66.9 59.1 -67.15 58.25 Q-69.85 56.05 -65.8 50.1 L-65.15 49.25 -59.9 45.5 -52.15 42.0 -46.8 40.25 -38.05 38.1 -30.4 37.0 -14.3 35.75 -8.4 34.5 -8.45 34.45 -9.05 33.85 -14.65 30.75 -25.4 25.75 -31.15 22.35 Q-34.75 19.7 -35.05 17.6 -36.35 13.5 -34.4 11.85 L-30.55 9.5 Q-27.8 8.55 -22.55 8.35 L-2.9 8.75 2.7 8.1 6.95 7.0 6.9 6.95 5.45 5.75 -2.8 1.35 Q-7.55 -1.4 -8.8 -3.15 L-11.05 -6.75 -11.4 -8.75 -10.9 -10.4 -9.15 -11.65 Q1.65 -8.75 8.2 -14.9 L13.95 -19.75 19.7 -26.0 23.45 -31.15 27.95 -39.25 31.6 -47.4 34.45 -55.5 35.95 -62.65 35.7 -63.65 35.2 -67.75 35.7 -63.65 35.95 -62.65 34.45 -55.5 31.6 -47.4 27.95 -39.25 23.45 -31.15 19.7 -26.0 13.95 -19.75 8.2 -14.9 Q1.65 -8.75 -9.15 -11.65 L-10.9 -10.4 -11.4 -8.75 -11.05 -6.75 -8.8 -3.15 Q-7.55 -1.4 -2.8 1.35 L5.45 5.75 6.9 6.95 M53.6 -93.25 L53.35 -93.75 53.6 -93.25 M5.95 86.1 L23.85 85.35 27.7 84.85 23.85 85.35 5.95 86.1 M-76.8 68.35 L-70.4 72.25 -60.4 77.25 -52.9 80.1 -60.4 77.25 -70.4 72.25 -76.8 68.35 M-8.45 34.45 L-6.9 33.85 -8.45 34.45 M-138.55 -41.75 L-144.65 -39.25 Q-159.6 -34.0 -156.3 -39.25 L-154.9 -41.65 -146.05 -52.05 -154.9 -41.65 -156.3 -39.25 Q-159.6 -34.0 -144.65 -39.25 L-138.55 -41.75 M-112.65 -53.4 L-112.4 -53.75 -112.4 -53.9 -112.15 -54.15 -111.25 -55.5 -95.05 -79.9 -85.15 -93.0 -95.05 -79.9 -111.25 -55.5 -112.65 -53.25 -111.25 -55.5 -112.15 -54.15 -112.4 -53.9 -112.4 -53.75 -112.65 -53.4 M-92.15 -77.5 L-65.05 -120.5 -64.75 -121.05 -65.05 -120.5 -92.15 -77.5 M-178.5 -14.5 Q-177.85 -13.4 -174.15 -13.75 L-170.65 -14.9 Q-169.55 -14.85 -157.4 -21.0 L-154.8 -21.65 -157.4 -21.0 Q-169.55 -14.85 -170.65 -14.9 L-174.15 -13.75 Q-177.85 -13.4 -178.5 -14.5 M-35.65 -216.5 L-35.55 -216.5 -35.55 -216.4 -35.55 -216.5 -35.65 -216.5" fill="#ffffff" fill-rule="evenodd" stroke="none"/>
    <path d="M-45.3 -309.25 L-45.65 -305.15 -48.8 -305.5 -48.55 -306.4 -48.4 -306.5 -48.4 -306.65 -45.3 -309.25 M-28.9 -302.65 L-22.05 -307.4 Q-20.1 -308.35 -16.4 -312.0 L-8.65 -321.75 -2.8 -334.25 Q11.25 -329.3 13.6 -316.75 L13.85 -315.5 14.2 -310.5 14.1 -309.5 12.85 -307.4 12.1 -305.65 5.85 -299.25 1.1 -295.4 -4.9 -291.65 -8.9 -291.15 -12.15 -291.15 Q-24.65 -291.1 -27.65 -299.25 L-28.9 -302.65 M-9.15 -307.4 Q-7.4 -303.9 -2.65 -307.4 -0.55 -314.85 -4.9 -315.5 L-7.15 -315.5 Q-12.4 -312.1 -9.15 -307.4" fill="#ff7a16" fill-rule="evenodd" stroke="none"/>
    <path d="M-45.65 -305.15 L-45.65 -302.15 -44.8 -299.65 -44.3 -299.25 Q-44.0 -296.0 -35.4 -299.25 L-33.65 -299.9 -28.9 -302.65 -27.65 -299.25 Q-24.65 -291.1 -12.15 -291.15 L-8.9 -291.15 -4.9 -291.65 2.1 -292.65 5.2 -292.0 5.2 -291.15 4.45 -290.0 -10.55 -282.4 -12.55 -283.0 Q-15.6 -284.2 -37.4 -287.15 L-66.4 -295.75 Q-70.55 -297.1 -76.15 -297.15 L-81.3 -296.65 Q-81.0 -293.15 -78.4 -291.15 L-71.05 -283.0 -61.55 -274.9 -57.15 -270.4 -56.9 -270.0 -62.8 -274.5 -63.15 -274.9 -65.4 -276.5 -66.3 -277.25 -66.4 -277.25 -66.55 -277.4 -66.55 -277.5 -66.3 -277.25 -66.55 -277.5 -67.3 -278.0 -67.4 -278.0 -67.4 -278.15 -100.8 -304.9 Q-113.75 -315.45 -115.4 -318.25 -115.1 -319.9 -111.05 -319.5 L-89.9 -315.5 -57.8 -307.25 -57.15 -307.0 -52.15 -306.0 -48.8 -305.5 -45.65 -305.15 M17.7 98.35 L9.7 108.0 9.65 108.35 8.45 113.35 13.85 123.85 19.85 133.75 29.2 144.6 36.1 154.85 39.7 161.85 Q41.9 166.8 37.85 165.5 L23.85 155.75 19.1 153.5 16.6 154.25 14.7 156.25 Q10.7 164.35 10.2 164.0 L8.6 164.5 6.6 163.6 Q-4.25 144.3 -5.3 146.25 L-10.4 144.75 Q-27.1 145.8 -27.55 145.1 L-28.15 143.75 -27.4 142.1 -21.3 135.1 -15.4 129.35 Q-2.6 121.65 -1.05 118.75 L-0.9 118.6 -0.8 118.35 -0.55 118.0 0.35 115.5 Q-3.15 112.4 -2.15 109.6 L6.7 96.1 14.6 97.0 17.7 98.35 M-52.65 80.35 L-47.4 96.1 -38.65 119.1 Q-37.65 121.2 -37.15 135.35 L-35.55 140.75 Q-31.05 148.4 -29.05 150.35 L-15.65 164.5 -13.15 167.6 -11.3 170.75 Q-9.25 175.1 -17.9 172.0 L-29.15 169.1 -35.05 168.35 -39.8 170.0 -47.9 175.35 -49.65 176.25 -52.05 176.5 -52.8 176.5 -53.8 175.85 -57.3 169.75 Q-57.4 168.9 -60.55 167.35 -62.15 166.5 -79.8 170.1 L-84.05 170.35 -85.15 169.25 -83.8 167.0 -80.8 164.35 Q-74.15 159.0 -64.55 154.1 L-57.9 149.1 -50.9 141.1 Q-47.0 135.8 -46.8 133.75 L-46.4 127.85 -47.4 120.85 -57.9 91.75 Q-64.55 77.7 -64.65 75.75 L-64.4 75.75 -64.3 75.85 -55.3 80.1 -53.3 80.5 -52.9 80.1 -52.65 80.35 M7.1 112.5 L8.35 110.35 7.1 112.5 7.2 112.35 8.45 113.35 7.2 112.35 7.1 112.5 4.45 115.1 4.1 115.6 2.6 116.1 0.35 115.5 2.6 116.1 4.1 115.6 4.45 115.1 7.1 112.5 M4.95 114.1 L9.65 108.35 4.95 114.1 M-50.05 -298.0 L-48.85 -297.9 -48.15 -297.65 -47.9 -297.65 -46.55 -297.25 -46.05 -297.25 -45.55 -297.15 -24.8 -292.4 -19.15 -291.65 -24.8 -292.4 -45.55 -297.15 -46.05 -297.25 -46.55 -297.25 -47.9 -297.65 -48.15 -297.65 -48.85 -297.9 -50.05 -298.0 M-67.4 -278.15 L-67.3 -278.0 -67.4 -278.15" fill="#fa410f" fill-rule="evenodd" stroke="none"/>
    <path d="M-9.15 -307.4 Q-12.4 -312.1 -7.15 -315.5 L-4.9 -315.5 Q-0.55 -314.85 -2.65 -307.4 -7.4 -303.9 -9.15 -307.4" fill="#000000" fill-rule="evenodd" stroke="none"/>
    <path d="M-41.05 -254.4 L-48.05 -260.15 -56.55 -269.65 -56.9 -270.0 -57.15 -270.4 -61.55 -274.9 -71.05 -283.0 -78.4 -291.15 Q-81.0 -293.15 -81.3 -296.65 L-76.15 -297.15 Q-70.55 -297.1 -66.4 -295.75 L-37.4 -287.15 Q-15.6 -284.2 -12.55 -283.0 L-10.55 -282.4 -11.55 -280.9 -23.3 -270.0 -31.05 -260.65 -32.3 -258.65 Q-36.9 -249.75 -41.05 -254.4 M-56.55 -269.65 L-57.15 -270.4 -56.55 -269.65" fill="#fa420e" fill-rule="evenodd" stroke="none"/>
    <path d="M1.85 -346.4 L3.1 -352.5 Q1.85 -356.7 0.1 -356.15 -32.6 -350.85 -40.05 -329.25 L-41.55 -324.9 -45.3 -309.25 -45.65 -305.15 -45.65 -302.15 -44.8 -299.65 -44.3 -299.25 Q-44.0 -296.0 -35.4 -299.25 L-33.65 -299.9 -28.9 -302.65 -22.05 -307.4 Q-20.1 -308.35 -16.4 -312.0 L-8.65 -321.75 -2.8 -334.25 -0.15 -340.75 1.85 -346.4 3.2 -346.65 3.7 -346.25 5.85 -343.75 30.2 -306.9 Q32.75 -303.45 36.6 -295.75 L40.95 -284.4 42.85 -275.65 43.7 -265.15 43.1 -263.9 41.95 -263.25 40.95 -263.15 Q41.85 -248.4 32.2 -231.65 26.9 -221.9 9.35 -209.65 L7.1 -206.9 4.1 -201.25 Q-2.85 -187.6 0.95 -171.15 L3.7 -162.5 Q4.6 -160.1 8.95 -154.4 L14.85 -148.65 28.1 -139.0 34.95 -133.0 42.85 -124.9 48.7 -117.4 54.6 -108.25 72.45 -75.9 Q84.4 -52.55 91.6 -21.65 L95.85 3.1 95.6 23.6 Q97.45 22.85 88.85 43.6 L77.7 57.1 Q49.7 82.5 27.7 84.85 L32.35 92.5 33.2 95.75 32.95 96.1 30.85 96.1 30.35 96.5 28.95 101.1 27.35 102.5 25.1 102.0 17.7 98.35 9.7 108.0 9.65 108.35 8.45 113.35 13.85 123.85 19.85 133.75 29.2 144.6 36.1 154.85 39.7 161.85 Q41.9 166.8 37.85 165.5 L23.85 155.75 19.1 153.5 16.6 154.25 14.7 156.25 Q10.7 164.35 10.2 164.0 L8.6 164.5 6.6 163.6 Q-4.25 144.3 -5.3 146.25 L-10.4 144.75 Q-27.1 145.8 -27.55 145.1 L-28.15 143.75 -27.4 142.1 -21.3 135.1 -15.4 129.35 Q-2.6 121.65 -1.05 118.75 L-0.9 118.6 -0.8 118.35 -0.55 118.0 0.35 115.5 Q-3.15 112.4 -2.15 109.6 L6.7 96.1 Q-3.9 97.05 5.1 87.1 L5.4 86.7 5.95 86.1 Q-33.0 89.2 -52.65 80.35 L-47.4 96.1 -38.65 119.1 Q-37.65 121.2 -37.15 135.35 L-35.55 140.75 Q-31.05 148.4 -29.05 150.35 L-15.65 164.5 -13.15 167.6 -11.3 170.75 Q-9.25 175.1 -17.9 172.0 L-29.15 169.1 -35.05 168.35 -39.8 170.0 -47.9 175.35 -49.65 176.25 -52.05 176.5 -52.8 176.5 -53.8 175.85 -57.3 169.75 Q-57.4 168.9 -60.55 167.35 -62.15 166.5 -79.8 170.1 L-84.05 170.35 -85.15 169.25 -83.8 167.0 -80.8 164.35 Q-74.15 159.0 -64.55 154.1 L-57.9 149.1 -50.9 141.1 Q-47.0 135.8 -46.8 133.75 L-46.4 127.85 -47.4 120.85 -57.9 91.75 Q-64.55 77.7 -64.65 75.75 L-66.05 75.1 -76.15 74.35 -78.4 73.6 -78.55 71.5 -76.8 68.35 Q-110.5 48.6 -121.4 14.35 -132.85 -16.9 -114.55 -50.15 L-114.4 -50.25 -113.9 -51.15 -113.8 -51.25 -113.8 -51.4 -113.65 -51.5 -113.55 -51.75 -113.4 -51.9 -113.4 -52.0 -113.3 -52.15 -113.3 -52.25 -113.05 -52.5 -113.05 -52.65 -112.9 -52.75 -112.9 -52.9 -112.65 -53.15 -112.65 -53.25 -112.65 -53.4 Q-136.4 -25.2 -156.65 -11.25 L-175.15 0.5 -192.4 9.85 Q-205.1 15.3 -199.55 7.0 L-194.55 1.1 -178.55 -14.25 -178.5 -14.5 -178.4 -16.9 Q-178.3 -18.6 -174.15 -23.0 L-163.15 -33.5 -146.05 -52.05 -145.3 -52.9 -139.8 -61.4 -135.55 -66.9 -129.9 -73.15 -114.8 -88.4 -102.3 -99.65 -86.3 -112.15 Q-72.55 -121.45 -64.8 -121.0 L-64.75 -121.05 -62.9 -123.65 -62.8 -123.75 Q-46.1 -147.15 -39.65 -168.5 -32.75 -190.1 -35.55 -216.4 L-35.65 -216.5 Q-43.75 -241.85 -41.05 -254.4 L-48.05 -260.15 -56.55 -269.65 -56.9 -270.0 -62.8 -274.5 Q-70.5 -265.3 -67.4 -278.0 L-67.4 -278.15 -100.8 -304.9 Q-113.75 -315.45 -115.4 -318.25 -115.1 -319.9 -111.05 -319.5 L-89.9 -315.5 -57.8 -307.25 Q-42.05 -340.6 -42.3 -328.15 L-40.05 -329.25 M13.6 -316.75 L13.85 -315.5 14.2 -310.5 14.1 -309.5 12.85 -307.4 12.1 -305.65 5.85 -299.25 1.1 -295.4 -4.9 -291.65 2.1 -292.65 5.2 -292.0 5.2 -291.15 4.45 -290.0 -10.55 -282.4 -11.55 -280.9 -23.3 -270.0 -31.05 -260.65 -32.3 -258.65 Q-36.9 -249.75 -41.05 -254.4 M23.95 -308.75 L17.35 -314.65 13.6 -316.75 Q11.25 -329.3 -2.8 -334.25 M40.95 -263.15 L39.2 -263.4 38.35 -264.25 37.85 -266.75 37.6 -274.9 36.6 -283.0 34.35 -291.15 30.95 -299.25 25.1 -307.4 23.95 -308.75 -0.15 -340.75 M53.85 -92.9 L56.35 -88.0 59.35 -79.9 61.1 -71.75 64.45 -47.4 65.7 -31.15 65.7 -23.0 64.35 -6.75 62.6 1.35 62.35 3.25 59.2 13.5 53.95 25.75 49.6 33.85 43.45 43.5 35.95 52.6 29.7 58.25 23.35 62.5 Q13.9 66.55 12.2 66.35 -19.8 72.1 -47.3 66.35 L-54.4 64.85 Q-59.85 63.45 -63.55 61.6 L-66.9 59.1 -67.15 58.25 Q-69.85 56.05 -65.8 50.1 L-65.15 49.25 -59.9 45.5 -52.15 42.0 -46.8 40.25 -38.05 38.1 -30.4 37.0 -14.3 35.75 -8.4 34.5 -8.45 34.45 -9.05 33.85 -14.65 30.75 -25.4 25.75 -31.15 22.35 Q-34.75 19.7 -35.05 17.6 -36.35 13.5 -34.4 11.85 L-30.55 9.5 Q-27.8 8.55 -22.55 8.35 L-2.9 8.75 2.7 8.1 6.95 7.0 6.9 6.95 5.45 5.75 -2.8 1.35 Q-7.55 -1.4 -8.8 -3.15 L-11.05 -6.75 -11.4 -8.75 -10.9 -10.4 -9.15 -11.65 Q1.65 -8.75 8.2 -14.9 L13.95 -19.75 19.7 -26.0 23.45 -31.15 27.95 -39.25 31.6 -47.4 34.45 -55.5 35.95 -62.65 35.7 -63.65 35.2 -67.75 M53.35 -93.75 L53.6 -93.25 M10.6 5.0 L8.1 6.6 6.9 6.95 M17.7 98.35 L14.6 97.0 6.7 96.1 M27.7 84.85 L23.85 85.35 5.95 86.1 M8.45 113.35 L7.2 112.35 7.1 112.5 4.45 115.1 4.1 115.6 2.6 116.1 0.35 115.5 M9.65 108.35 L4.95 114.1 M8.35 110.35 L7.1 112.5 M-19.05 -348.0 L-25.3 -344.65 Q-30.05 -341.25 -30.8 -339.9 L-32.8 -337.75 -36.15 -331.75 -39.15 -323.65 -42.4 -309.9 -42.55 -307.4 Q-44.6 -297.9 -28.9 -307.4 L-22.3 -311.9 -18.25 -315.6 -14.4 -320.15 -9.4 -328.9 -3.05 -345.5 -2.65 -348.0 Q1.25 -357.55 -19.05 -348.0 M-45.65 -327.25 L-45.9 -326.25 -52.15 -306.0 -48.8 -305.5 -48.55 -306.4 -48.4 -306.5 -48.4 -306.65 -43.9 -320.65 -44.4 -320.75 -44.55 -321.65 -45.65 -322.75 -45.55 -323.65 -42.3 -328.15 M-45.9 -326.25 L-46.4 -326.25 -47.7 -324.05 -47.9 -323.65 -48.2 -323.25 -48.6 -322.6 -50.4 -319.65 -50.45 -319.55 -57.05 -307.4 -57.15 -307.0 -52.15 -306.0 M-48.2 -323.25 L-48.3 -323.15 -48.6 -322.6 M-47.7 -324.05 L-48.2 -323.25 M-57.15 -307.0 L-57.8 -307.25 M-45.65 -305.15 L-48.8 -305.5 M-19.15 -291.65 L-24.8 -292.4 -45.55 -297.15 -46.05 -297.25 -46.55 -297.25 -47.9 -297.65 -48.15 -297.65 -48.85 -297.9 -50.05 -298.0 M-48.4 -306.65 L-45.3 -309.25 M-41.55 -324.9 L-43.9 -320.65 M-28.9 -302.65 L-27.65 -299.25 Q-24.65 -291.1 -12.15 -291.15 L-8.9 -291.15 -4.9 -291.65 M-9.15 -307.4 Q-7.4 -303.9 -2.65 -307.4 -0.55 -314.85 -4.9 -315.5 L-7.15 -315.5 Q-12.4 -312.1 -9.15 -307.4 M-10.55 -282.4 L-12.55 -283.0 Q-15.6 -284.2 -37.4 -287.15 L-66.4 -295.75 Q-70.55 -297.1 -76.15 -297.15 L-81.3 -296.65 Q-81.0 -293.15 -78.4 -291.15 L-71.05 -283.0 -61.55 -274.9 -57.15 -270.4 -56.55 -269.65 M-66.55 -277.5 L-66.55 -277.4 -66.4 -277.25 -66.3 -277.25 -66.55 -277.5 -67.3 -278.0 -67.4 -278.0 M-66.55 -277.4 L-66.55 -277.25 -66.4 -277.25 M-67.3 -278.0 L-67.4 -278.15 M-66.55 -277.25 L-66.7 -276.65 Q-67.1 -275.05 -66.65 -275.1 L-66.5 -275.2 -65.4 -276.5 -66.3 -277.25 M-65.4 -276.5 L-63.15 -274.9 -62.8 -274.5 M-57.15 -270.4 L-56.9 -270.0 M-35.55 -216.4 L-35.55 -216.5 -35.65 -216.5 M-154.8 -21.65 L-157.4 -21.0 Q-169.55 -14.85 -170.65 -14.9 L-174.15 -13.75 Q-177.85 -13.4 -178.5 -14.5 M-64.75 -121.05 L-65.05 -120.5 -92.15 -77.5 M-85.15 -93.0 L-95.05 -79.9 -111.25 -55.5 -112.65 -53.25 M-111.25 -55.5 L-112.15 -54.15 -112.4 -53.9 -112.4 -53.75 -112.65 -53.4 M-146.05 -52.05 L-154.9 -41.65 -156.3 -39.25 Q-159.6 -34.0 -144.65 -39.25 L-138.55 -41.75 M-6.9 33.85 L-8.45 34.45 M-52.9 80.1 L-60.4 77.25 -70.4 72.25 -76.8 68.35 M-64.65 75.75 L-64.4 75.75 -64.3 75.85 -55.3 80.1 -53.3 80.5 -52.9 80.1 -52.65 80.35" fill="none" stroke="#000000" stroke-linecap="round" stroke-linejoin="round" stroke-width="2.15"/>
  </g>
</svg>
