<?xml version="1.0" encoding="UTF-8" standalone="no"?>
<svg xmlns:xlink="http://www.w3.org/1999/xlink" height="543.55px" width="303.25px" xmlns="http://www.w3.org/2000/svg">
  <g transform="matrix(1.0, 0.0, 0.0, 1.0, 210.35, 367.0)">
    <path d="M1.2 -352.25 L2.45 -356.15 3.85 -357.75 2.45 -356.15 1.2 -352.25 -3.4 -343.4 -12.15 -329.25 -20.15 -320.4 -24.65 -316.4 -29.8 -312.4 Q-42.0 -302.85 -40.9 -313.5 L-40.9 -313.65 -40.55 -315.5 -36.05 -328.4 -33.05 -335.4 -32.4 -336.4 -33.05 -335.4 -36.05 -328.4 -40.55 -315.5 -40.9 -313.65 -40.9 -313.5 -41.05 -313.65 -44.15 -314.25 -43.65 -315.5 -43.65 -315.65 -43.65 -315.5 -44.15 -314.25 -44.3 -314.25 -43.65 -315.65 -43.65 -315.75 -43.55 -315.75 -43.55 -315.9 -43.55 -315.75 -43.65 -315.75 -43.55 -315.9 -43.55 -316.0 -43.4 -316.0 -43.4 -316.15 -43.4 -316.0 -43.55 -316.0 -43.4 -316.15 -43.4 -316.4 -43.3 -316.4 -43.3 -316.5 -43.3 -316.4 -43.4 -316.4 -43.3 -316.5 -43.3 -316.65 -43.15 -316.75 -43.15 -316.65 -43.3 -316.65 -43.15 -316.65 -43.15 -316.75 -35.65 -333.5 Q-34.05 -337.6 -32.4 -336.4 -26.35 -348.7 -19.05 -353.75 4.7 -370.5 5.45 -364.25 L5.6 -362.9 3.85 -357.75 4.85 -357.9 5.6 -357.4 6.7 -356.0 36.85 -308.9 Q45.5 -292.45 45.45 -275.25 L45.35 -274.9 Q45.15 -269.75 42.2 -270.65 L40.95 -271.0 39.85 -272.15 39.6 -274.9 39.7 -283.0 38.95 -291.15 36.95 -299.25 33.7 -307.4 24.85 -320.0 1.2 -352.25 M-23.05 -346.9 L-22.75 -347.2 -22.65 -347.5 -22.75 -347.2 -23.05 -346.9 M-18.55 -352.25 L-12.8 -356.15 Q6.2 -368.15 -1.3 -356.15 L-5.15 -348.0 -11.65 -336.15 -17.05 -328.9 -25.3 -320.65 -32.05 -315.5 Q-39.15 -310.5 -38.3 -315.5 L-35.8 -323.65 -32.55 -331.75 -28.55 -339.9 -25.15 -345.4 -18.55 -352.25 -25.15 -345.4 -28.55 -339.9 -32.55 -331.75 -35.8 -323.65 -38.3 -315.5 Q-39.15 -310.5 -32.05 -315.5 L-25.3 -320.65 -17.05 -328.9 -11.65 -336.15 -5.15 -348.0 -1.3 -356.15 Q6.2 -368.15 -12.8 -356.15 L-18.55 -352.25 M-52.8 -279.65 L-52.55 -279.4 -52.65 -279.25 Q-59.6 -270.4 -56.3 -282.5 L-53.4 -280.25 -52.8 -279.65 M-40.9 -313.65 L-41.05 -313.65 -40.9 -313.65 M-30.9 -333.9 L-30.9 -334.4 -30.9 -333.9 M-33.05 -335.4 L-34.3 -334.15 -36.9 -329.65 -36.8 -328.9 -36.05 -328.4 -36.8 -328.9 -36.9 -329.65 -34.3 -334.15 -33.05 -335.4 M-24.05 -345.65 L-23.8 -346.25 -24.05 -345.65 M-24.65 -344.9 L-24.55 -345.4 -24.65 -344.9 M-26.65 -341.9 L-26.5 -342.35 -26.25 -342.7 -26.0 -342.95 -25.9 -343.25 -25.65 -343.65 -25.9 -343.25 -26.0 -342.95 -26.25 -342.7 -26.5 -342.35 -26.65 -341.9 M-23.4 -346.4 L-23.3 -346.75 -23.4 -346.4" fill="#43396f" fill-rule="evenodd" stroke="none"/>
    <path d="M-29.8 -312.4 L-24.65 -316.4 -20.15 -320.4 -12.15 -329.25 -3.4 -343.4 3.1 -342.5 8.7 -339.65 Q15.1 -335.45 18.45 -324.0 L18.6 -323.65 18.7 -319.15 Q17.0 -315.95 16.1 -315.5 L14.2 -313.4 Q13.35 -313.4 6.45 -307.4 L-1.3 -302.0 -9.8 -301.4 -18.9 -302.4 -22.05 -305.25 -22.65 -307.4 -24.05 -310.9 -24.3 -312.5 -29.8 -312.4 M-3.55 -323.15 L-4.9 -321.4 -5.65 -318.9 -5.4 -317.0 -4.55 -315.5 Q-1.8 -311.75 1.95 -315.5 4.25 -322.45 -0.15 -323.65 L-2.55 -323.65 -3.55 -323.15 M-24.65 -316.4 L-24.3 -312.5 -24.65 -316.4" fill="#ff7a16" fill-rule="evenodd" stroke="none"/>
    <path d="M24.85 -320.0 L33.7 -307.4 36.95 -299.25 38.95 -291.15 39.7 -283.0 39.6 -274.9 39.85 -272.15 40.95 -271.0 42.2 -270.65 Q45.15 -269.75 45.35 -274.9 L45.45 -275.25 Q48.35 -259.75 38.7 -239.25 31.0 -224.4 6.1 -211.5 -2.3 -197.95 -1.65 -191.65 -1.35 -175.6 3.2 -167.25 L5.1 -164.15 9.6 -159.15 Q25.15 -147.95 37.95 -133.0 51.15 -116.15 63.6 -92.25 86.45 -48.7 91.85 4.6 L90.7 26.0 83.95 41.75 73.1 55.0 Q43.25 80.5 23.7 82.0 L27.95 89.0 Q30.15 93.45 29.6 94.0 L29.35 94.35 26.7 94.25 24.35 99.5 23.1 100.25 20.45 99.6 13.2 95.6 9.95 94.1 1.7 93.0 Q-8.3 93.0 3.2 82.5 -40.6 83.7 -54.15 76.0 L-55.8 75.25 -62.15 72.5 -62.3 72.35 -63.15 72.0 -62.3 72.35 -62.15 72.5 -55.8 75.25 -57.4 75.1 -58.8 74.5 -63.15 72.0 -66.55 70.5 -67.3 70.0 -67.4 70.0 -67.55 69.85 -67.65 69.85 -71.9 68.85 Q-80.1 68.6 -80.55 67.85 L-80.55 65.35 -79.15 63.0 Q-115.1 39.85 -122.3 5.25 -131.75 -28.4 -110.9 -59.5 L-110.65 -59.9 -110.55 -60.0 -110.3 -60.4 -110.3 -60.5 -107.3 -65.0 -107.05 -65.25 -106.9 -65.4 -106.9 -65.5 -106.65 -65.75 -106.55 -66.0 -106.3 -66.25 -97.55 -77.65 -97.65 -78.0 -109.65 -66.0 Q-115.65 -60.15 -129.15 -49.25 L-145.3 -37.15 -155.15 -31.5 -163.3 -27.65 -179.05 -21.4 Q-187.6 -18.15 -198.9 -15.4 -211.5 -11.95 -208.8 -18.25 -208.15 -19.75 -201.05 -25.25 L-180.9 -38.4 Q-184.6 -40.0 -179.05 -45.65 L-176.8 -47.5 Q-164.25 -54.85 -157.4 -60.4 L-157.35 -60.45 -157.15 -60.65 Q-156.4 -62.65 -154.15 -64.15 L-147.4 -69.15 -147.05 -69.5 Q-111.0 -104.9 -69.55 -124.85 L-69.3 -125.0 Q-45.0 -160.5 -39.9 -179.0 -30.6 -212.25 -33.05 -229.0 L-33.15 -229.25 -33.15 -230.0 -33.3 -230.9 -33.3 -231.0 -33.4 -231.5 Q-37.4 -253.6 -35.4 -261.9 -34.0 -259.7 -30.3 -266.75 L-28.55 -270.15 -20.9 -279.75 -9.3 -291.15 -8.55 -291.75 -8.65 -292.15 4.45 -299.25 5.6 -299.75 6.7 -301.15 6.7 -301.75 3.85 -302.5 -1.3 -302.0 6.45 -307.4 Q13.35 -313.4 14.2 -313.4 L16.1 -315.5 Q17.0 -315.95 18.7 -319.15 L18.6 -323.65 18.45 -324.0 24.85 -320.0 M-103.05 -66.5 L-87.55 -96.15 -69.55 -124.85 -87.55 -96.15 -103.05 -66.5 M22.95 -73.65 L22.95 -76.5 22.95 -73.65 23.2 -74.15 22.95 -73.65 20.1 -67.25 16.6 -61.9 11.35 -55.5 3.7 -47.4 -1.05 -43.15 -12.4 -35.0 -17.8 -32.25 -20.8 -32.0 Q-22.15 -31.95 -28.55 -34.65 L-29.3 -34.4 -29.65 -34.4 -30.15 -33.5 -30.65 -31.15 -29.8 -27.65 Q-27.3 -23.45 -26.3 -23.0 L-19.55 -16.65 -14.55 -18.65 -19.55 -16.65 -26.3 -23.0 Q-27.3 -23.45 -29.8 -27.65 L-30.65 -31.15 -30.15 -33.5 -29.65 -34.4 -29.3 -34.4 -28.55 -34.65 Q-22.15 -31.95 -20.8 -32.0 L-17.8 -32.25 -12.4 -35.0 -1.05 -43.15 3.7 -47.4 11.35 -55.5 16.6 -61.9 20.1 -67.25 22.95 -73.65 M-18.3 39.85 Q-18.0 40.5 -8.4 37.1 L-0.15 32.5 6.35 27.75 14.85 20.0 21.95 12.0 28.1 3.6 33.95 -6.75 39.7 -19.4 42.45 -27.4 45.2 -39.25 47.6 -55.5 48.6 -71.75 48.45 -79.9 47.2 -90.5 44.85 -97.75 47.2 -90.5 48.45 -79.9 48.6 -71.75 47.6 -55.5 45.2 -39.25 42.45 -27.4 39.7 -19.4 33.95 -6.75 28.1 3.6 21.95 12.0 14.85 20.0 6.35 27.75 -0.15 32.5 -8.4 37.1 Q-18.0 40.5 -18.3 39.85 M-21.55 40.35 Q-43.2 42.1 -65.3 33.85 L-77.8 29.5 -85.55 25.75 -94.3 20.75 Q-97.35 18.8 -97.65 17.6 -101.35 12.65 -97.8 9.5 -92.3 3.6 -75.3 2.75 -60.25 2.4 -45.4 5.35 L-40.15 5.1 -40.1 4.95 -40.05 4.75 -53.55 -6.75 Q-58.4 -11.2 -58.8 -14.9 L-57.8 -18.5 Q-56.9 -20.35 -53.55 -20.9 L-45.55 -20.4 -29.3 -16.4 -24.15 -16.15 -19.55 -16.65 -24.15 -16.15 -29.3 -16.4 -45.55 -20.4 -53.55 -20.9 Q-56.9 -20.35 -57.8 -18.5 L-58.8 -14.9 Q-58.4 -11.2 -53.55 -6.75 L-40.05 4.75 -40.1 4.95 -37.8 4.6 -40.1 4.95 -40.15 5.1 -45.4 5.35 Q-60.25 2.4 -75.3 2.75 -92.3 3.6 -97.8 9.5 -101.35 12.65 -97.65 17.6 -97.35 18.8 -94.3 20.75 L-85.55 25.75 -77.8 29.5 -65.3 33.85 Q-43.2 42.1 -21.55 40.35 M-21.15 40.25 L-20.65 40.25 -21.15 40.25 M-19.15 40.0 L-18.65 40.0 -19.15 40.0 M-141.65 -58.5 Q-155.35 -55.35 -157.35 -60.45 -155.35 -55.35 -141.65 -58.5 M-107.3 -65.0 L-107.05 -65.15 -107.05 -65.25 -107.05 -65.15 -110.3 -60.5 -107.05 -65.15 -107.3 -65.0 M-180.9 -38.4 Q-179.0 -37.45 -174.3 -37.75 L-161.15 -40.15 -159.8 -40.0 -161.15 -40.15 -174.3 -37.75 Q-179.0 -37.45 -180.9 -38.4 M23.7 82.0 L3.2 82.5 23.7 82.0 M-67.65 69.85 L-79.15 63.0 -67.65 69.85" fill="#ffffff" fill-rule="evenodd" stroke="none"/>
    <path d="M-40.9 -313.5 Q-42.0 -302.85 -29.8 -312.4 L-24.3 -312.5 -24.05 -310.9 -22.65 -307.4 -22.05 -305.25 -18.9 -302.4 -9.8 -301.4 -1.3 -302.0 3.85 -302.5 6.7 -301.75 6.7 -301.15 5.6 -299.75 4.45 -299.25 -8.65 -292.15 -13.55 -293.65 Q-33.75 -296.6 -40.15 -299.25 L-64.55 -307.4 -71.05 -308.5 Q-77.6 -308.85 -77.4 -307.4 L-75.8 -304.15 -67.55 -294.15 -55.65 -283.0 -54.05 -281.0 -53.4 -280.25 -56.3 -282.5 -89.15 -310.65 -109.65 -329.0 Q-115.5 -333.65 -105.05 -331.75 L-86.9 -327.25 -50.4 -315.75 -44.3 -314.25 -44.15 -314.25 -41.05 -313.65 -40.9 -313.5 M13.2 95.6 L5.1 103.1 4.95 103.4 Q3.85 105.55 3.45 108.6 L8.45 120.35 13.2 129.85 Q16.65 135.4 20.85 140.25 L25.7 147.85 31.2 159.6 Q32.5 164.4 31.6 164.0 L29.35 163.75 Q11.1 148.15 11.35 150.35 6.95 150.6 1.6 160.85 L0.45 161.25 -0.8 161.0 -2.05 160.1 Q-3.6 157.9 -6.4 150.5 L-9.55 144.75 -12.9 141.25 Q-18.4 139.1 -20.9 139.5 L-33.3 139.6 -28.4 146.1 Q-14.3 160.45 -14.15 161.35 L-10.15 166.85 Q-8.3 169.55 -9.9 170.5 -8.75 171.9 -27.8 166.1 L-33.3 165.5 -38.15 167.5 Q-48.75 176.55 -48.55 175.35 L-51.05 175.1 Q-55.35 165.8 -59.4 164.75 -60.4 163.8 -78.9 168.6 L-82.15 168.75 -83.15 168.0 Q-84.4 164.8 -58.15 146.35 -48.75 135.15 -47.55 129.25 L-47.3 124.6 -48.4 116.75 -59.4 87.0 Q-66.35 72.95 -66.55 70.5 L-63.15 72.0 -58.8 74.5 -57.4 75.1 -55.8 75.25 -54.15 76.0 -48.9 91.1 -40.55 112.25 Q-37.6 137.05 -34.9 137.1 L-32.9 134.5 -22.65 124.6 Q-21.35 122.85 -10.3 117.1 L-6.3 113.6 -6.05 113.35 -5.65 112.75 -4.15 109.0 Q-7.65 105.6 -6.15 102.25 L1.7 93.0 9.95 94.1 13.2 95.6 M-50.8 -310.15 L-50.3 -310.15 -23.05 -303.15 -18.9 -302.4 -23.05 -303.15 -50.3 -310.15 -50.8 -310.15 M-52.3 -310.5 L-51.8 -310.4 -51.05 -310.4 -51.8 -310.4 -52.3 -310.5 M3.6 105.1 L2.85 106.25 1.95 107.1 Q-0.75 110.65 -4.15 109.0 -0.75 110.65 1.95 107.1 L2.85 106.25 3.6 105.1 M-33.3 139.6 L-33.65 139.5 -34.9 138.85 -35.15 137.6 -34.9 137.1 -35.15 137.6 -34.9 138.85 -33.65 139.5 -33.3 139.6 M1.95 107.1 L3.45 108.6 1.95 107.1 M0.45 107.75 L1.1 107.0 4.95 103.4 1.1 107.0 0.45 107.75" fill="#fa410f" fill-rule="evenodd" stroke="none"/>
    <path d="M-8.65 -292.15 L-8.55 -291.75 -9.3 -291.15 -20.9 -279.75 -28.55 -270.15 -30.3 -266.75 Q-34.0 -259.7 -35.4 -261.9 L-41.3 -266.4 Q-46.65 -271.7 -52.55 -279.25 L-52.55 -279.4 -52.55 -279.25 -52.65 -279.25 -52.55 -279.4 -52.8 -279.65 -54.05 -281.0 -52.8 -279.65 -53.4 -280.25 -54.05 -281.0 -55.65 -283.0 -67.55 -294.15 -75.8 -304.15 -77.4 -307.4 Q-77.6 -308.85 -71.05 -308.5 L-64.55 -307.4 -40.15 -299.25 Q-33.75 -296.6 -13.55 -293.65 L-8.65 -292.15" fill="#fa420e" fill-rule="evenodd" stroke="none"/>
    <path d="M-3.55 -323.15 L-2.55 -323.65 -0.15 -323.65 Q4.25 -322.45 1.95 -315.5 -1.8 -311.75 -4.55 -315.5 L-5.4 -317.0 -5.65 -318.9 -4.9 -321.4 -3.55 -323.15" fill="#000000" fill-rule="evenodd" stroke="none"/>
    <path d="M3.85 -357.75 L2.45 -356.15 1.2 -352.25 24.85 -320.0 33.7 -307.4 36.95 -299.25 38.95 -291.15 39.7 -283.0 39.6 -274.9 39.85 -272.15 40.95 -271.0 42.2 -270.65 Q45.15 -269.75 45.35 -274.9 L45.45 -275.25 Q45.5 -292.45 36.85 -308.9 L6.7 -356.0 5.6 -357.4 4.85 -357.9 3.85 -357.75 5.6 -362.9 5.45 -364.25 Q4.7 -370.5 -19.05 -353.75 -26.35 -348.7 -32.4 -336.4 L-33.05 -335.4 -36.05 -328.4 -40.55 -315.5 -40.9 -313.65 -40.9 -313.5 Q-42.0 -302.85 -29.8 -312.4 L-24.65 -316.4 -20.15 -320.4 -12.15 -329.25 -3.4 -343.4 1.2 -352.25 M18.45 -324.0 Q15.1 -335.45 8.7 -339.65 L3.1 -342.5 -3.4 -343.4 M-1.3 -302.0 L6.45 -307.4 Q13.35 -313.4 14.2 -313.4 L16.1 -315.5 Q17.0 -315.95 18.7 -319.15 L18.6 -323.65 18.45 -324.0 24.85 -320.0 M-1.3 -302.0 L3.85 -302.5 6.7 -301.75 6.7 -301.15 5.6 -299.75 4.45 -299.25 -8.65 -292.15 -8.55 -291.75 -9.3 -291.15 -20.9 -279.75 -28.55 -270.15 -30.3 -266.75 Q-34.0 -259.7 -35.4 -261.9 -37.4 -253.6 -33.4 -231.5 L-33.3 -231.0 -33.3 -230.9 -33.15 -230.0 -33.15 -229.25 -33.05 -229.0 Q-30.6 -212.25 -39.9 -179.0 -45.0 -160.5 -69.3 -125.0 L-69.55 -124.85 -87.55 -96.15 -103.05 -66.5 M45.45 -275.25 Q48.35 -259.75 38.7 -239.25 31.0 -224.4 6.1 -211.5 -2.3 -197.95 -1.65 -191.65 -1.35 -175.6 3.2 -167.25 L5.1 -164.15 9.6 -159.15 Q25.15 -147.95 37.95 -133.0 51.15 -116.15 63.6 -92.25 86.45 -48.7 91.85 4.6 L90.7 26.0 83.95 41.75 73.1 55.0 Q43.25 80.5 23.7 82.0 L27.95 89.0 Q30.15 93.45 29.6 94.0 L29.35 94.35 26.7 94.25 24.35 99.5 23.1 100.25 20.45 99.6 13.2 95.6 5.1 103.1 4.95 103.4 Q3.85 105.55 3.45 108.6 L8.45 120.35 13.2 129.85 Q16.65 135.4 20.85 140.25 L25.7 147.85 31.2 159.6 Q32.5 164.4 31.6 164.0 L29.35 163.75 Q11.1 148.15 11.35 150.35 6.95 150.6 1.6 160.85 L0.45 161.25 -0.8 161.0 -2.05 160.1 Q-3.6 157.9 -6.4 150.5 L-9.55 144.75 -12.9 141.25 Q-18.4 139.1 -20.9 139.5 L-33.3 139.6 -28.4 146.1 Q-14.3 160.45 -14.15 161.35 L-10.15 166.85 Q-8.3 169.55 -9.9 170.5 -8.75 171.9 -27.8 166.1 L-33.3 165.5 -38.15 167.5 Q-48.75 176.55 -48.55 175.35 L-51.05 175.1 Q-55.35 165.8 -59.4 164.75 -60.4 163.8 -78.9 168.6 L-82.15 168.75 -83.15 168.0 Q-84.4 164.8 -58.15 146.35 -48.75 135.15 -47.55 129.25 L-47.3 124.6 -48.4 116.75 -59.4 87.0 Q-66.35 72.95 -66.55 70.5 L-67.3 70.0 -67.4 70.0 -67.55 69.85 -67.65 69.85 -71.9 68.85 Q-80.1 68.6 -80.55 67.85 L-80.55 65.35 -79.15 63.0 Q-115.1 39.85 -122.3 5.25 -131.75 -28.4 -110.9 -59.5 L-110.65 -59.9 -110.55 -60.0 -110.3 -60.4 -110.3 -60.5 -107.3 -65.0 -107.05 -65.25 -106.9 -65.4 -106.9 -65.5 -106.65 -65.75 -106.55 -66.0 -106.3 -66.25 -97.55 -77.65 -97.65 -78.0 -109.65 -66.0 Q-115.65 -60.15 -129.15 -49.25 L-145.3 -37.15 -155.15 -31.5 -163.3 -27.65 -179.05 -21.4 Q-187.6 -18.15 -198.9 -15.4 -211.5 -11.95 -208.8 -18.25 -208.15 -19.75 -201.05 -25.25 L-180.9 -38.4 Q-184.6 -40.0 -179.05 -45.65 L-176.8 -47.5 Q-164.25 -54.85 -157.4 -60.4 L-157.35 -60.45 -157.15 -60.65 Q-156.4 -62.65 -154.15 -64.15 L-147.4 -69.15 -147.05 -69.5 Q-111.0 -104.9 -69.55 -124.85 M44.85 -97.75 L47.2 -90.5 48.45 -79.9 48.6 -71.75 47.6 -55.5 45.2 -39.25 42.45 -27.4 39.7 -19.4 33.95 -6.75 28.1 3.6 21.95 12.0 14.85 20.0 6.35 27.75 -0.15 32.5 -8.4 37.1 Q-18.0 40.5 -18.3 39.85 M23.2 -74.15 L22.95 -73.65 20.1 -67.25 16.6 -61.9 11.35 -55.5 3.7 -47.4 -1.05 -43.15 -12.4 -35.0 -17.8 -32.25 -20.8 -32.0 Q-22.15 -31.95 -28.55 -34.65 L-29.3 -34.4 -29.65 -34.4 -30.15 -33.5 -30.65 -31.15 -29.8 -27.65 Q-27.3 -23.45 -26.3 -23.0 L-19.55 -16.65 -14.55 -18.65 M22.95 -76.5 L22.95 -73.65 M-18.55 -352.25 L-25.15 -345.4 -28.55 -339.9 -32.55 -331.75 -35.8 -323.65 -38.3 -315.5 Q-39.15 -310.5 -32.05 -315.5 L-25.3 -320.65 -17.05 -328.9 -11.65 -336.15 -5.15 -348.0 -1.3 -356.15 Q6.2 -368.15 -12.8 -356.15 L-18.55 -352.25 M-22.65 -347.5 L-22.75 -347.2 -23.05 -346.9 M-8.65 -292.15 L-13.55 -293.65 Q-33.75 -296.6 -40.15 -299.25 L-64.55 -307.4 -71.05 -308.5 Q-77.6 -308.85 -77.4 -307.4 L-75.8 -304.15 -67.55 -294.15 -55.65 -283.0 -54.05 -281.0 -52.8 -279.65 -52.55 -279.4 -52.55 -279.25 Q-46.65 -271.7 -41.3 -266.4 L-35.4 -261.9 M-43.3 -316.65 L-43.15 -316.65 -43.15 -316.75 -43.3 -316.65 -43.3 -316.5 -43.3 -316.4 -43.4 -316.4 -43.4 -316.15 -43.4 -316.0 -43.55 -316.0 -43.55 -315.9 -43.55 -315.75 -43.65 -315.75 -43.65 -315.65 -43.65 -315.5 -44.15 -314.25 -41.05 -313.65 -40.9 -313.65 M-43.4 -316.4 L-43.3 -316.5 M-43.55 -316.0 L-43.4 -316.15 M-43.65 -315.75 L-43.55 -315.9 M-40.9 -313.5 L-41.05 -313.65 M-44.15 -314.25 L-44.3 -314.25 -50.4 -315.75 -86.9 -327.25 -105.05 -331.75 Q-115.5 -333.65 -109.65 -329.0 L-89.15 -310.65 -56.3 -282.5 -53.4 -280.25 -54.05 -281.0 M-44.3 -314.25 L-43.65 -315.65 M-51.05 -310.4 L-51.8 -310.4 -52.3 -310.5 M-18.9 -302.4 L-23.05 -303.15 -50.3 -310.15 -50.8 -310.15 M-3.55 -323.15 L-4.9 -321.4 -5.65 -318.9 -5.4 -317.0 -4.55 -315.5 Q-1.8 -311.75 1.95 -315.5 4.25 -322.45 -0.15 -323.65 L-2.55 -323.65 -3.55 -323.15 M-25.65 -343.65 L-25.9 -343.25 -26.0 -342.95 -26.25 -342.7 -26.5 -342.35 -26.65 -341.9 M-24.55 -345.4 L-24.65 -344.9 M-23.8 -346.25 L-24.05 -345.65 M-36.05 -328.4 L-36.8 -328.9 -36.9 -329.65 -34.3 -334.15 -33.05 -335.4 M-30.9 -334.4 L-30.9 -333.9 M-43.15 -316.75 L-35.65 -333.5 Q-34.05 -337.6 -32.4 -336.4 M-29.8 -312.4 L-24.3 -312.5 -24.65 -316.4 M-24.3 -312.5 L-24.05 -310.9 -22.65 -307.4 -22.05 -305.25 -18.9 -302.4 -9.8 -301.4 -1.3 -302.0 M-23.3 -346.75 L-23.4 -346.4 M-52.8 -279.65 L-53.4 -280.25 M-52.55 -279.25 L-52.65 -279.25 Q-59.6 -270.4 -56.3 -282.5 M-52.65 -279.25 L-52.55 -279.4 M-159.8 -40.0 L-161.15 -40.15 -174.3 -37.75 Q-179.0 -37.45 -180.9 -38.4 M-107.05 -65.25 L-107.05 -65.15 -110.3 -60.5 M-107.05 -65.15 L-107.3 -65.0 M-157.35 -60.45 Q-155.35 -55.35 -141.65 -58.5 M-19.55 -16.65 L-24.15 -16.15 -29.3 -16.4 -45.55 -20.4 -53.55 -20.9 Q-56.9 -20.35 -57.8 -18.5 L-58.8 -14.9 Q-58.4 -11.2 -53.55 -6.75 L-40.05 4.75 -40.1 4.95 -37.8 4.6 M-18.65 40.0 L-19.15 40.0 M-20.65 40.25 L-21.15 40.25 M-40.1 4.95 L-40.15 5.1 -45.4 5.35 Q-60.25 2.4 -75.3 2.75 -92.3 3.6 -97.8 9.5 -101.35 12.65 -97.65 17.6 -97.35 18.8 -94.3 20.75 L-85.55 25.75 -77.8 29.5 -65.3 33.85 Q-43.2 42.1 -21.55 40.35 M-63.15 72.0 L-62.3 72.35 -62.15 72.5 -55.8 75.25 -54.15 76.0 Q-40.6 83.7 3.2 82.5 L23.7 82.0 M-55.8 75.25 L-57.4 75.1 -58.8 74.5 -63.15 72.0 -66.55 70.5 M-79.15 63.0 L-67.65 69.85 M-34.9 137.1 Q-37.6 137.05 -40.55 112.25 L-48.9 91.1 -54.15 76.0 M1.7 93.0 L-6.15 102.25 Q-7.65 105.6 -4.15 109.0 -0.75 110.65 1.95 107.1 L2.85 106.25 3.6 105.1 M-4.15 109.0 L-5.65 112.75 -6.05 113.35 -6.3 113.6 -10.3 117.1 Q-21.35 122.85 -22.65 124.6 L-32.9 134.5 -34.9 137.1 -35.15 137.6 -34.9 138.85 -33.65 139.5 -33.3 139.6 M13.2 95.6 L9.95 94.1 1.7 93.0 Q-8.3 93.0 3.2 82.5 M4.95 103.4 L1.1 107.0 0.45 107.75 M3.45 108.6 L1.95 107.1" fill="none" stroke="#000000" stroke-linecap="round" stroke-linejoin="round" stroke-width="2.15"/>
  </g>
</svg>
