<?xml version="1.0" encoding="UTF-8" standalone="no"?>
<svg xmlns:xlink="http://www.w3.org/1999/xlink" height="553.85px" width="305.1px" xmlns="http://www.w3.org/2000/svg">
  <g transform="matrix(1.0, 0.0, 0.0, 1.0, 217.7, 379.8)">
    <path d="M18.2 -372.4 L19.35 -371.65 21.2 -368.9 29.7 -352.75 45.45 -324.4 48.95 -316.9 51.95 -307.4 53.35 -299.25 53.6 -291.15 52.95 -283.0 Q51.1 -278.75 47.7 -283.0 L47.6 -285.15 48.45 -291.15 48.85 -299.25 48.45 -304.5 45.85 -315.5 44.35 -319.25 36.95 -331.0 32.6 -337.9 31.6 -339.9 25.35 -349.65 25.2 -349.75 25.1 -350.0 14.35 -367.25 Q13.95 -368.85 15.6 -371.15 L17.45 -372.4 18.2 -372.4 17.45 -372.4 15.6 -371.15 Q13.95 -368.85 14.35 -367.25 L2.95 -351.9 2.95 -351.75 2.85 -351.75 2.7 -351.65 -6.8 -339.9 -7.05 -339.4 -7.3 -339.0 -7.55 -338.75 -7.4 -338.75 -7.4 -338.5 -8.55 -335.25 -9.15 -329.65 -8.9 -324.9 -9.4 -322.5 -20.9 -324.5 -7.55 -338.75 -20.9 -324.5 -22.15 -323.65 Q-23.25 -322.7 -24.05 -322.45 -24.95 -322.25 -25.5 -322.8 L-26.05 -323.65 -25.15 -325.9 -21.05 -332.9 Q-11.25 -347.75 -10.65 -347.65 L-10.3 -348.25 -10.15 -348.4 -9.9 -348.75 -9.9 -348.9 -9.3 -349.65 -9.3 -349.75 -9.05 -350.15 -8.9 -350.25 -8.65 -350.65 -8.55 -350.75 -7.9 -351.65 -7.8 -351.75 -7.05 -352.75 -6.9 -352.9 -6.15 -353.9 -6.05 -354.0 -5.55 -354.65 -5.4 -354.75 -5.3 -355.0 -4.9 -355.4 -3.05 -357.65 -2.9 -357.75 -1.55 -359.4 -0.8 -360.15 -0.65 -360.25 -0.15 -360.9 0.85 -361.9 1.35 -362.5 3.2 -364.4 3.45 -364.75 3.95 -365.25 4.6 -365.75 4.85 -366.0 6.2 -367.4 6.95 -368.0 7.35 -368.4 Q25.9 -386.9 18.2 -372.4 M-30.9 -282.5 Q-36.0 -278.35 -36.3 -289.9 L-31.15 -283.0 -30.9 -282.5 M1.45 -362.5 L1.35 -362.5 1.45 -362.5 3.2 -364.25 3.6 -364.75 3.65 -364.8 3.95 -365.25 3.65 -364.8 3.6 -364.75 3.2 -364.25 1.45 -362.5 0.85 -361.9 1.45 -362.5 M3.6 -364.75 L3.65 -364.8 3.6 -364.75 3.45 -364.75 3.6 -364.75 M3.2 -364.25 L3.2 -364.4 3.2 -364.25 M4.6 -365.75 L4.7 -365.75 4.85 -366.0 4.7 -365.75 4.6 -365.75 M14.95 -373.95 L13.05 -372.8 15.35 -374.5 16.7 -376.25 15.35 -374.5 14.95 -373.95 -11.65 -339.9 -22.0 -328.5 -23.05 -327.5 -23.65 -326.75 -23.05 -327.5 -22.0 -328.5 -11.65 -339.9 14.95 -373.95 15.35 -374.5 13.05 -372.8 14.95 -373.95 M7.35 -368.4 L13.05 -372.8 7.35 -368.4 M-22.0 -328.5 L-21.85 -329.2 -21.35 -330.65 -15.9 -339.9 -10.65 -347.65 -15.9 -339.9 -21.35 -330.65 -21.85 -329.2 -22.0 -328.5 M-21.35 -330.65 L-23.05 -327.5 -21.35 -330.65" fill="#43396f" fill-rule="evenodd" stroke="none"/>
    <path d="M25.1 -350.0 L25.2 -349.75 25.35 -349.65 31.6 -339.9 32.6 -337.9 33.45 -335.15 33.7 -332.9 33.7 -331.75 Q35.7 -330.35 23.2 -323.65 18.4 -320.0 16.35 -319.4 L12.35 -316.25 Q1.25 -314.85 -7.05 -317.15 L-8.55 -322.4 -8.65 -322.65 -8.55 -322.4 -9.15 -322.4 -8.65 -322.65 -8.9 -324.9 -9.15 -329.65 -8.55 -335.25 -7.4 -338.5 -7.05 -339.4 -7.4 -338.5 -7.4 -338.75 -7.3 -339.0 -7.05 -339.4 -6.8 -339.9 2.7 -351.65 2.85 -351.65 2.85 -351.75 2.85 -351.65 2.7 -351.65 2.85 -351.75 2.95 -351.75 2.95 -351.9 3.1 -351.9 Q11.85 -358.35 25.1 -350.0 M3.1 -351.9 L2.95 -351.75 3.1 -351.9 M9.85 -331.75 Q8.25 -326.15 12.95 -324.5 18.95 -325.15 17.45 -331.75 14.75 -337.8 9.85 -331.75" fill="#ff7a16" fill-rule="evenodd" stroke="none"/>
    <path d="M36.95 -331.0 L44.35 -319.25 45.85 -315.5 48.45 -304.5 48.85 -299.25 48.45 -291.15 47.6 -285.15 47.7 -283.0 Q51.1 -278.75 52.95 -283.0 L53.6 -291.15 53.35 -299.25 51.95 -307.4 48.95 -316.9 Q66.75 -284.45 53.85 -250.75 47.65 -230.1 8.7 -216.65 5.45 -213.75 2.7 -207.9 L1.35 -201.5 Q0.9 -195.9 2.2 -187.75 L4.2 -179.75 6.85 -175.0 Q25.9 -156.7 33.7 -146.15 55.75 -114.6 63.1 -97.75 82.45 -51.8 86.35 2.25 L84.7 25.25 77.7 40.85 66.95 53.1 54.35 63.0 Q42.15 70.9 35.7 74.1 L27.7 77.35 Q24.9 78.25 17.85 78.6 L22.2 87.25 Q23.9 90.3 23.85 93.1 L22.95 93.5 21.45 92.75 20.45 92.75 18.35 96.75 17.95 97.35 16.6 98.1 14.1 97.35 6.85 92.6 2.85 90.75 -5.05 89.35 Q-13.6 88.1 -0.9 78.35 L-0.8 78.35 -0.4 77.75 Q-37.4 76.95 -56.4 68.75 L-58.65 67.5 -60.05 68.0 -68.8 62.75 -68.9 62.6 -69.05 62.6 Q-70.75 60.8 -83.15 58.75 L-83.3 57.6 -82.8 55.85 -81.4 53.85 Q-111.75 31.3 -118.8 4.5 -126.75 -24.3 -117.85 -49.4 L-117.8 -49.65 Q-120.25 -52.35 -121.9 -55.75 L-122.8 -59.75 Q-121.0 -66.85 -109.9 -65.15 L-109.85 -65.2 -109.8 -65.25 -109.55 -65.65 -109.4 -65.75 -109.15 -66.15 -109.05 -66.25 -108.8 -66.65 -108.65 -66.75 -108.55 -67.0 -108.35 -67.2 -108.3 -67.25 -106.55 -72.15 -97.8 -92.4 Q-123.25 -77.9 -142.4 -72.9 L-147.8 -71.5 -158.9 -69.5 Q-177.75 -68.65 -195.3 -72.25 -219.0 -77.3 -216.4 -81.75 -214.65 -87.85 -177.9 -90.65 -185.55 -95.85 -177.65 -99.75 L-174.9 -100.5 Q-156.05 -101.6 -152.15 -102.9 -153.55 -105.95 -149.9 -107.75 -143.5 -107.0 -121.3 -117.25 L-76.8 -128.5 -76.65 -128.65 -52.9 -163.25 -46.05 -174.4 Q-42.1 -180.85 -38.4 -189.0 L-33.05 -202.4 Q-29.75 -211.4 -26.65 -224.4 L-24.55 -236.65 -23.05 -252.15 Q-23.5 -268.85 -22.15 -273.75 L-21.65 -274.15 -21.55 -274.9 -17.65 -283.0 -10.15 -293.4 2.35 -305.4 2.2 -305.65 5.2 -307.4 Q20.35 -315.6 16.45 -315.5 L13.7 -316.4 12.35 -316.25 16.35 -319.4 Q18.4 -320.0 23.2 -323.65 35.7 -330.35 33.7 -331.75 L33.7 -332.9 36.95 -331.0 M-43.15 -71.15 L-41.05 -71.0 -25.4 -76.4 -8.15 -83.4 0.6 -88.0 Q9.85 -93.2 11.1 -96.15 9.85 -93.2 0.6 -88.0 L-8.15 -83.4 -25.4 -76.4 -41.05 -71.0 -43.15 -71.15 M-117.85 -49.4 L-111.4 -41.75 -105.05 -35.4 -94.3 -26.25 -87.55 -21.4 -78.05 -15.9 -75.3 -14.9 Q-64.5 -7.9 -39.9 -14.9 L-32.4 -17.25 Q-20.8 -22.15 -20.15 -23.0 L-11.4 -28.0 -3.4 -33.9 2.35 -39.25 9.7 -47.4 15.85 -55.5 21.1 -63.65 25.7 -71.75 29.7 -79.9 32.2 -86.15 33.85 -93.9 34.1 -102.0 33.85 -93.9 32.2 -86.15 29.7 -79.9 25.7 -71.75 21.1 -63.65 15.85 -55.5 9.7 -47.4 2.35 -39.25 -3.4 -33.9 -11.4 -28.0 -20.15 -23.0 Q-20.8 -22.15 -32.4 -17.25 L-39.9 -14.9 Q-64.5 -7.9 -75.3 -14.9 L-78.05 -15.9 -87.55 -21.4 -94.3 -26.25 -105.05 -35.4 -111.4 -41.75 -117.85 -49.4 M33.35 -107.25 L33.45 -106.65 33.45 -106.0 33.45 -106.65 33.35 -107.25 M33.7 -104.4 L33.7 -104.9 33.7 -104.4 M33.85 -103.25 L33.85 -103.9 33.85 -103.25 M33.95 -102.25 L33.95 -103.0 33.95 -102.25 M33.6 -105.25 L33.6 -105.75 33.6 -105.25 M-97.8 -92.4 L-87.15 -112.4 -76.8 -128.5 -87.15 -112.4 -97.8 -92.4 M-41.8 -62.0 L-46.65 -61.55 -48.4 -61.4 Q-53.0 -61.8 -55.8 -63.65 L-67.65 -71.75 Q-72.2 -74.3 -75.65 -71.75 -76.35 -72.1 -77.3 -67.65 L-76.55 -63.65 -70.95 -51.1 -76.4 -51.75 Q-79.6 -52.65 -83.55 -55.5 L-93.05 -60.4 -102.4 -63.65 -108.9 -64.9 -108.85 -65.0 -109.85 -65.2 -108.85 -65.0 -108.35 -67.2 -108.85 -65.0 -108.9 -64.9 -102.4 -63.65 -93.05 -60.4 -83.55 -55.5 Q-79.6 -52.65 -76.4 -51.75 L-70.95 -51.1 -76.55 -63.65 -77.3 -67.65 Q-76.35 -72.1 -75.65 -71.75 -72.2 -74.3 -67.65 -71.75 L-55.8 -63.65 Q-53.0 -61.8 -48.4 -61.4 L-46.65 -61.55 -48.65 -67.25 Q-49.2 -72.0 -48.65 -71.75 -46.5 -78.25 -43.65 -71.75 L-43.4 -71.25 -43.65 -71.75 Q-46.5 -78.25 -48.65 -71.75 -49.2 -72.0 -48.65 -67.25 L-46.65 -61.55 -41.8 -62.0 M-69.3 -50.9 L-70.95 -51.1 -69.3 -50.9 M-151.9 -103.0 Q-150.8 -101.1 -147.15 -98.9 L-141.55 -96.15 -141.05 -95.65 -141.55 -96.15 -147.15 -98.9 Q-150.8 -101.1 -151.9 -103.0 M-164.9 -84.15 L-165.4 -84.75 -177.9 -90.65 -165.4 -84.75 -164.9 -84.15 M-58.65 67.5 L-71.65 60.35 -81.4 53.85 -71.65 60.35 -58.65 67.5 M17.85 78.6 L-0.4 77.75 17.85 78.6" fill="#ffffff" fill-rule="evenodd" stroke="none"/>
    <path d="M9.85 -331.75 Q14.75 -337.8 17.45 -331.75 18.95 -325.15 12.95 -324.5 8.25 -326.15 9.85 -331.75" fill="#000000" fill-rule="evenodd" stroke="none"/>
    <path d="M-22.15 -273.75 L-24.9 -276.0 -30.9 -282.5 -31.15 -283.0 -36.3 -289.9 -39.8 -295.15 -40.3 -295.65 -40.8 -296.4 -53.05 -310.65 -59.4 -319.9 -61.15 -323.15 -61.05 -323.65 -61.15 -324.0 -59.8 -324.65 -55.8 -324.75 -52.65 -324.4 -47.15 -322.65 -21.55 -311.9 Q-3.0 -308.15 -2.15 -307.4 L2.2 -305.65 2.35 -305.4 -10.15 -293.4 -17.65 -283.0 -21.55 -274.9 -21.65 -274.15 -22.15 -273.75 M-39.8 -295.15 L-40.8 -296.4 -39.8 -295.15" fill="#fa420e" fill-rule="evenodd" stroke="none"/>
    <path d="M6.85 92.6 Q3.15 95.65 -1.3 98.0 L-1.5 98.3 -1.8 98.75 -3.05 102.6 0.85 114.85 5.2 126.0 Q8.45 132.45 12.7 138.5 L17.35 148.35 20.7 158.6 Q21.6 163.85 18.45 161.6 L5.6 148.85 3.6 147.6 Q0.35 141.9 -8.9 156.5 L-10.55 156.75 -12.3 155.6 Q-19.05 135.2 -21.3 135.35 L-25.65 133.25 -33.4 132.25 Q-15.9 150.45 -7.9 161.75 -3.35 168.65 -15.55 163.85 L-25.15 161.1 -31.15 160.6 Q-39.0 164.6 -43.55 172.1 L-45.05 173.0 -47.3 172.85 Q-52.9 163.2 -54.05 162.6 L-57.15 160.6 Q-59.4 159.6 -75.65 165.6 L-79.4 166.25 -80.15 165.75 Q-85.75 166.05 -58.05 141.6 L-52.3 132.5 Q-48.9 126.05 -48.55 122.85 L-48.8 115.85 -50.55 108.1 Q-63.9 71.9 -67.8 66.5 L-69.05 62.6 -68.9 62.6 -68.8 62.75 -60.05 68.0 -58.65 67.5 -56.4 68.75 -51.55 82.35 -42.8 103.6 -41.4 108.0 Q-39.75 121.85 -38.3 124.25 L-28.8 116.25 Q-14.75 109.85 -12.9 107.0 L-12.3 106.25 -10.9 103.75 -9.4 99.1 -9.4 99.0 Q-12.6 94.3 -5.05 89.35 L2.85 90.75 6.85 92.6 M-40.3 -295.65 L-73.9 -329.0 Q-90.1 -345.1 -92.55 -348.4 -95.0 -351.35 -90.65 -350.5 L-69.05 -343.4 -33.65 -328.75 -25.15 -325.9 -26.05 -323.65 -25.5 -322.8 Q-24.95 -322.25 -24.05 -322.45 -23.25 -322.7 -22.15 -323.65 L-20.9 -324.5 -9.4 -322.5 -9.15 -322.4 -8.55 -322.4 -7.05 -317.15 Q1.25 -314.85 12.35 -316.25 L13.7 -316.4 16.45 -315.5 Q20.35 -315.6 5.2 -307.4 L2.2 -305.65 -2.15 -307.4 Q-3.0 -308.15 -21.55 -311.9 L-47.15 -322.65 -52.65 -324.4 -55.8 -324.75 -59.8 -324.65 -61.15 -324.0 -61.05 -323.65 -61.15 -323.15 -59.4 -319.9 -53.05 -310.65 -40.8 -296.4 -40.3 -295.65 M-1.8 98.75 L-2.15 98.85 -3.55 100.35 -4.55 100.85 Q-7.4 102.2 -9.3 99.1 L-9.4 99.0 -9.3 99.1 Q-7.4 102.2 -4.55 100.85 L-3.55 100.35 -2.15 98.85 -1.8 98.75 M-7.05 -317.15 Q-9.55 -317.35 -18.05 -320.25 L-24.05 -322.45 -18.05 -320.25 Q-9.55 -317.35 -7.05 -317.15 M-40.65 -327.4 L-25.5 -322.8 -40.65 -327.4 M-3.9 100.0 L-2.55 98.85 -1.5 98.3 -2.55 98.85 -3.9 100.0 M-9.3 99.1 L-9.4 99.1 -9.3 99.1 M-4.55 100.85 L-3.15 102.6 -3.05 102.6 -3.15 102.6 -4.55 100.85 M-33.4 132.25 L-41.55 131.85 -42.4 131.35 Q-45.75 130.9 -38.3 124.25 -45.75 130.9 -42.4 131.35 L-41.55 131.85 -33.4 132.25" fill="#fa410f" fill-rule="evenodd" stroke="none"/>
    <path d="M48.95 -316.9 L45.45 -324.4 29.7 -352.75 21.2 -368.9 19.35 -371.65 18.2 -372.4 17.45 -372.4 15.6 -371.15 Q13.95 -368.85 14.35 -367.25 L25.1 -350.0 25.2 -349.75 25.35 -349.65 31.6 -339.9 32.6 -337.9 36.95 -331.0 44.35 -319.25 45.85 -315.5 48.45 -304.5 48.85 -299.25 48.45 -291.15 47.6 -285.15 47.7 -283.0 Q51.1 -278.75 52.95 -283.0 L53.6 -291.15 53.35 -299.25 51.95 -307.4 48.95 -316.9 Q66.75 -284.45 53.85 -250.75 47.65 -230.1 8.7 -216.65 5.45 -213.75 2.7 -207.9 L1.35 -201.5 Q0.9 -195.9 2.2 -187.75 L4.2 -179.75 6.85 -175.0 Q25.9 -156.7 33.7 -146.15 55.75 -114.6 63.1 -97.75 82.45 -51.8 86.35 2.25 L84.7 25.25 77.7 40.85 66.95 53.1 54.35 63.0 Q42.15 70.9 35.7 74.1 L27.7 77.35 Q24.9 78.25 17.85 78.6 L22.2 87.25 Q23.9 90.3 23.85 93.1 L22.95 93.5 21.45 92.75 20.45 92.75 18.35 96.75 17.95 97.35 16.6 98.1 14.1 97.35 6.85 92.6 Q3.15 95.65 -1.3 98.0 L-1.5 98.3 -1.8 98.75 -3.05 102.6 0.85 114.85 5.2 126.0 Q8.45 132.45 12.7 138.5 L17.35 148.35 20.7 158.6 Q21.6 163.85 18.45 161.6 L5.6 148.85 3.6 147.6 Q0.35 141.9 -8.9 156.5 L-10.55 156.75 -12.3 155.6 Q-19.05 135.2 -21.3 135.35 L-25.65 133.25 -33.4 132.25 Q-15.9 150.45 -7.9 161.75 -3.35 168.65 -15.55 163.85 L-25.15 161.1 -31.15 160.6 Q-39.0 164.6 -43.55 172.1 L-45.05 173.0 -47.3 172.85 Q-52.9 163.2 -54.05 162.6 L-57.15 160.6 Q-59.4 159.6 -75.65 165.6 L-79.4 166.25 -80.15 165.75 Q-85.75 166.05 -58.05 141.6 L-52.3 132.5 Q-48.9 126.05 -48.55 122.85 L-48.8 115.85 -50.55 108.1 Q-63.9 71.9 -67.8 66.5 L-69.05 62.6 Q-70.75 60.8 -83.15 58.75 L-83.3 57.6 -82.8 55.85 -81.4 53.85 Q-111.75 31.3 -118.8 4.5 -126.75 -24.3 -117.85 -49.4 L-117.8 -49.65 Q-120.25 -52.35 -121.9 -55.75 L-122.8 -59.75 Q-121.0 -66.85 -109.9 -65.15 L-109.85 -65.2 -109.8 -65.25 -109.55 -65.65 -109.4 -65.75 -109.15 -66.15 -109.05 -66.25 -108.8 -66.65 -108.65 -66.75 -108.55 -67.0 -108.35 -67.2 -108.3 -67.25 -106.55 -72.15 -97.8 -92.4 Q-123.25 -77.9 -142.4 -72.9 L-147.8 -71.5 -158.9 -69.5 Q-177.75 -68.65 -195.3 -72.25 -219.0 -77.3 -216.4 -81.75 -214.65 -87.85 -177.9 -90.65 -185.55 -95.85 -177.65 -99.75 L-174.9 -100.5 Q-156.05 -101.6 -152.15 -102.9 -153.55 -105.95 -149.9 -107.75 -143.5 -107.0 -121.3 -117.25 L-76.8 -128.5 -76.65 -128.65 -52.9 -163.25 -46.05 -174.4 Q-42.1 -180.85 -38.4 -189.0 L-33.05 -202.4 Q-29.75 -211.4 -26.65 -224.4 L-24.55 -236.65 -23.05 -252.15 Q-23.5 -268.85 -22.15 -273.75 L-24.9 -276.0 -30.9 -282.5 Q-36.0 -278.35 -36.3 -289.9 L-39.8 -295.15 -40.3 -295.65 -73.9 -329.0 Q-90.1 -345.1 -92.55 -348.4 -95.0 -351.35 -90.65 -350.5 L-69.05 -343.4 -33.65 -328.75 -25.15 -325.9 -21.05 -332.9 Q-11.25 -347.75 -10.65 -347.65 L-10.3 -348.25 -10.15 -348.4 -9.9 -348.75 -9.9 -348.9 -9.3 -349.65 -9.3 -349.75 -9.05 -350.15 -8.9 -350.25 -8.65 -350.65 -8.55 -350.75 -7.9 -351.65 -7.8 -351.75 -7.05 -352.75 -6.9 -352.9 -6.15 -353.9 -6.05 -354.0 -5.55 -354.65 -5.4 -354.75 -5.3 -355.0 -4.9 -355.4 -3.05 -357.65 -2.9 -357.75 -1.55 -359.4 -0.8 -360.15 -0.65 -360.25 -0.15 -360.9 0.85 -361.9 1.35 -362.5 3.2 -364.4 3.45 -364.75 3.95 -365.25 4.6 -365.75 4.85 -366.0 6.2 -367.4 6.95 -368.0 7.35 -368.4 Q25.9 -386.9 18.2 -372.4 M16.7 -376.25 L15.35 -374.5 14.95 -373.95 -11.65 -339.9 -22.0 -328.5 -23.05 -327.5 -23.65 -326.75 M15.35 -374.5 L13.05 -372.8 14.95 -373.95 M4.85 -366.0 L4.7 -365.75 4.6 -365.75 M3.95 -365.25 L3.65 -364.8 3.6 -364.75 3.2 -364.25 1.45 -362.5 0.85 -361.9 M3.6 -364.75 L3.45 -364.75 M3.2 -364.4 L3.2 -364.25 M3.65 -364.8 L3.6 -364.75 M1.35 -362.5 L1.45 -362.5 M2.85 -351.75 L2.85 -351.65 2.7 -351.65 -6.8 -339.9 -7.05 -339.4 -7.4 -338.5 -8.55 -335.25 -9.15 -329.65 -8.9 -324.9 -8.65 -322.65 -8.55 -322.4 -7.05 -317.15 Q1.25 -314.85 12.35 -316.25 L16.35 -319.4 Q18.4 -320.0 23.2 -323.65 35.7 -330.35 33.7 -331.75 L33.7 -332.9 33.45 -335.15 32.6 -337.9 M2.95 -351.75 L3.1 -351.9 2.95 -351.9 2.95 -351.75 2.85 -351.75 2.7 -351.65 M2.95 -351.9 L14.35 -367.25 M13.05 -372.8 L7.35 -368.4 M3.1 -351.9 Q11.85 -358.35 25.1 -350.0 M36.95 -331.0 L33.7 -332.9 M9.85 -331.75 Q8.25 -326.15 12.95 -324.5 18.95 -325.15 17.45 -331.75 14.75 -337.8 9.85 -331.75 M12.35 -316.25 L13.7 -316.4 16.45 -315.5 Q20.35 -315.6 5.2 -307.4 L2.2 -305.65 2.35 -305.4 -10.15 -293.4 -17.65 -283.0 -21.55 -274.9 -21.65 -274.15 -22.15 -273.75 M33.6 -105.75 L33.6 -105.25 M33.95 -103.0 L33.95 -102.25 M33.85 -103.9 L33.85 -103.25 M33.7 -104.9 L33.7 -104.4 M33.45 -106.0 L33.45 -106.65 33.35 -107.25 M34.1 -102.0 L33.85 -93.9 32.2 -86.15 29.7 -79.9 25.7 -71.75 21.1 -63.65 15.85 -55.5 9.7 -47.4 2.35 -39.25 -3.4 -33.9 -11.4 -28.0 -20.15 -23.0 Q-20.8 -22.15 -32.4 -17.25 L-39.9 -14.9 Q-64.5 -7.9 -75.3 -14.9 L-78.05 -15.9 -87.55 -21.4 -94.3 -26.25 -105.05 -35.4 -111.4 -41.75 -117.85 -49.4 M11.1 -96.15 Q9.85 -93.2 0.6 -88.0 L-8.15 -83.4 -25.4 -76.4 -41.05 -71.0 -43.15 -71.15 M6.85 92.6 L2.85 90.75 -5.05 89.35 Q-12.6 94.3 -9.4 99.0 L-9.3 99.1 Q-7.4 102.2 -4.55 100.85 L-3.55 100.35 -2.15 98.85 -1.8 98.75 M2.2 -305.65 L-2.15 -307.4 Q-3.0 -308.15 -21.55 -311.9 L-47.15 -322.65 -52.65 -324.4 -55.8 -324.75 -59.8 -324.65 -61.15 -324.0 -61.05 -323.65 -61.15 -323.15 -59.4 -319.9 -53.05 -310.65 -40.8 -296.4 -39.8 -295.15 M-7.4 -338.5 L-7.4 -338.75 -7.55 -338.75 -20.9 -324.5 -9.4 -322.5 -8.9 -324.9 M-7.3 -339.0 L-7.05 -339.4 M-7.3 -339.0 L-7.55 -338.75 M-7.4 -338.75 L-7.3 -339.0 M-9.15 -322.4 L-8.65 -322.65 M-9.15 -322.4 L-9.4 -322.5 M-8.55 -322.4 L-9.15 -322.4 M-10.65 -347.65 L-15.9 -339.9 -21.35 -330.65 -21.85 -329.2 -22.0 -328.5 M-25.5 -322.8 L-26.05 -323.65 -25.15 -325.9 M-20.9 -324.5 L-22.15 -323.65 Q-23.25 -322.7 -24.05 -322.45 L-18.05 -320.25 Q-9.55 -317.35 -7.05 -317.15 M-23.05 -327.5 L-21.35 -330.65 M-24.05 -322.45 Q-24.95 -322.25 -25.5 -322.8 L-40.65 -327.4 M-36.3 -289.9 L-31.15 -283.0 -30.9 -282.5 M-40.3 -295.65 L-40.8 -296.4 M-177.9 -90.65 L-165.4 -84.75 -164.9 -84.15 M-109.85 -65.2 L-108.85 -65.0 -108.35 -67.2 M-108.85 -65.0 L-108.9 -64.9 -102.4 -63.65 -93.05 -60.4 -83.55 -55.5 Q-79.6 -52.65 -76.4 -51.75 L-70.95 -51.1 -76.55 -63.65 -77.3 -67.65 Q-76.35 -72.1 -75.65 -71.75 -72.2 -74.3 -67.65 -71.75 L-55.8 -63.65 Q-53.0 -61.8 -48.4 -61.4 L-46.65 -61.55 -48.65 -67.25 Q-49.2 -72.0 -48.65 -71.75 -46.5 -78.25 -43.65 -71.75 L-43.4 -71.25 M-141.05 -95.65 L-141.55 -96.15 -147.15 -98.9 Q-150.8 -101.1 -151.9 -103.0 M-70.95 -51.1 L-69.3 -50.9 M-46.65 -61.55 L-41.8 -62.0 M-76.8 -128.5 L-87.15 -112.4 -97.8 -92.4 M-56.4 68.75 L-58.65 67.5 -60.05 68.0 -68.8 62.75 -68.9 62.6 -69.05 62.6 M-38.3 124.25 Q-39.75 121.85 -41.4 108.0 L-42.8 103.6 -51.55 82.35 -56.4 68.75 Q-37.4 76.95 -0.4 77.75 L17.85 78.6 M-81.4 53.85 L-71.65 60.35 -58.65 67.5 M-1.5 98.3 L-2.55 98.85 -3.9 100.0 M-5.05 89.35 Q-13.6 88.1 -0.9 78.35 L-0.8 78.35 -0.4 77.75 M-3.05 102.6 L-3.15 102.6 -4.55 100.85 M-9.4 99.1 L-9.3 99.1 M-9.4 99.0 L-9.4 99.1 -10.9 103.75 -12.3 106.25 -12.9 107.0 Q-14.75 109.85 -28.8 116.25 L-38.3 124.25 Q-45.75 130.9 -42.4 131.35 L-41.55 131.85 -33.4 132.25" fill="none" stroke="#000000" stroke-linecap="round" stroke-linejoin="round" stroke-width="2.15"/>
  </g>
</svg>
