<?xml version="1.0" encoding="UTF-8" standalone="no"?>
<svg xmlns:xlink="http://www.w3.org/1999/xlink" height="554.0px" width="298.9px" xmlns="http://www.w3.org/2000/svg">
  <g transform="matrix(1.0, 0.0, 0.0, 1.0, 212.25, 381.6)">
    <path d="M44.1 -350.75 L44.1 -350.65 44.2 -350.5 51.7 -336.15 51.85 -332.25 51.85 -331.75 51.6 -330.5 Q36.9 -324.7 36.45 -323.65 L32.85 -321.9 29.45 -319.65 18.6 -319.65 10.45 -321.25 10.4 -321.4 9.95 -323.65 9.85 -324.0 9.35 -329.25 10.2 -336.65 12.6 -343.0 15.95 -348.25 16.1 -348.4 16.2 -348.5 16.1 -348.4 16.1 -348.5 16.2 -348.5 Q33.5 -361.9 44.1 -350.75 M27.35 -331.75 Q26.4 -327.3 31.2 -325.75 35.25 -325.75 35.6 -331.75 L34.6 -334.65 33.85 -335.4 31.95 -336.15 29.35 -335.5 Q27.35 -333.65 27.35 -331.75" fill="#ff7a16" fill-rule="evenodd" stroke="none"/>
    <path d="M51.7 -336.15 L44.2 -350.5 44.1 -350.65 44.1 -350.75 34.7 -369.0 34.2 -370.9 34.85 -372.4 Q38.2 -376.85 39.6 -374.5 38.2 -376.85 34.85 -372.4 L34.2 -370.9 34.7 -369.0 26.95 -360.9 16.1 -348.5 16.1 -348.4 15.95 -348.25 10.7 -342.65 12.6 -343.0 10.2 -336.65 9.35 -329.25 9.85 -324.0 1.1 -326.15 -3.4 -327.9 -4.9 -327.05 -5.05 -327.0 -7.05 -327.65 -7.35 -327.95 -7.4 -328.0 -6.9 -329.25 -0.9 -336.75 15.85 -356.15 30.45 -371.65 15.85 -356.15 -0.9 -336.75 Q10.15 -353.6 30.45 -371.65 L39.35 -379.65 41.2 -380.5 Q44.25 -381.25 39.6 -374.5 44.35 -362.15 63.1 -321.75 L64.1 -318.75 66.85 -307.4 67.6 -299.25 67.2 -291.15 66.45 -285.65 65.6 -283.0 Q62.9 -280.75 61.45 -283.0 L60.85 -284.0 60.85 -286.15 62.1 -291.15 63.2 -299.25 62.95 -307.4 61.6 -315.5 60.2 -320.0 54.7 -330.5 51.7 -336.15 M10.7 -342.65 L10.35 -342.0 6.35 -337.75 1.0 -332.05 0.6 -331.75 0.3 -331.35 -3.4 -327.9 0.3 -331.35 0.6 -331.75 1.0 -332.05 6.35 -337.75 10.35 -342.0 10.7 -342.65 M6.35 -337.75 Q7.0 -333.45 9.45 -339.9 L10.35 -342.0 9.45 -339.9 Q7.0 -333.45 6.35 -337.75 M0.3 -331.35 L1.0 -332.05 0.3 -331.35 M-17.55 -291.5 L-17.15 -291.15 -14.05 -286.0 -11.3 -282.5 Q-17.15 -278.8 -17.55 -291.5" fill="#43396f" fill-rule="evenodd" stroke="none"/>
    <path d="M27.35 -331.75 Q27.35 -333.65 29.35 -335.5 L31.95 -336.15 33.85 -335.4 34.6 -334.65 35.6 -331.75 Q35.25 -325.75 31.2 -325.75 26.4 -327.3 27.35 -331.75" fill="#000000" fill-rule="evenodd" stroke="none"/>
    <path d="M29.45 -319.65 L32.85 -321.9 36.45 -323.65 Q36.9 -324.7 51.6 -330.5 L51.85 -331.75 51.85 -332.25 54.7 -330.5 60.2 -320.0 61.6 -315.5 62.95 -307.4 63.2 -299.25 62.1 -291.15 60.85 -286.15 60.85 -284.0 61.45 -283.0 Q62.9 -280.75 65.6 -283.0 L66.45 -285.65 67.2 -291.15 67.6 -299.25 66.85 -307.4 64.1 -318.75 Q82.2 -288.7 67.35 -248.4 59.7 -234.95 48.1 -228.25 L44.85 -226.25 41.2 -224.65 Q34.65 -221.6 18.85 -218.25 L16.6 -216.9 Q12.6 -212.75 11.6 -210.15 L10.6 -206.0 Q9.4 -194.45 11.95 -185.15 L13.45 -181.5 15.2 -178.75 Q29.65 -164.7 39.35 -149.9 50.75 -133.4 66.45 -98.4 83.9 -50.55 85.6 6.35 L83.35 27.5 75.6 43.5 64.35 55.1 51.35 64.35 Q24.7 80.4 14.6 77.75 21.9 93.95 19.95 94.75 L18.85 94.5 17.1 93.35 Q16.6 93.05 14.1 97.5 L12.35 98.0 10.35 97.0 3.95 92.25 1.7 90.75 -2.8 89.0 -6.8 88.25 Q-18.1 87.6 -3.15 77.0 L-3.55 76.35 -33.05 71.35 -48.8 66.85 -58.8 61.85 Q-60.5 66.65 -69.4 58.25 L-70.4 57.75 Q-73.6 55.05 -84.55 53.1 L-84.4 51.25 -83.8 49.85 -80.8 46.35 Q-111.9 20.35 -117.05 -5.65 -121.5 -30.45 -118.65 -42.5 L-115.9 -52.5 -110.4 -65.25 -107.7 -69.25 Q-106.45 -71.4 -106.5 -72.2 L-106.55 -72.4 -113.3 -82.4 Q-118.35 -90.95 -119.15 -94.75 L-133.55 -92.5 -148.55 -91.75 Q-168.85 -94.15 -181.9 -101.0 -215.6 -118.05 -210.55 -122.0 L-209.65 -123.0 -207.8 -124.15 -202.8 -124.9 -196.4 -124.65 -190.15 -123.9 -169.9 -119.9 -168.8 -120.0 Q-176.3 -127.7 -170.8 -130.65 L-170.65 -130.75 -170.4 -130.75 -170.3 -130.9 -169.9 -130.9 -169.8 -131.0 -168.3 -131.4 -163.65 -131.15 -148.3 -126.9 -142.05 -126.4 Q-144.25 -133.4 -139.65 -132.9 L-132.3 -131.65 -128.8 -131.5 Q-125.8 -134.35 -74.3 -134.9 L-48.9 -167.65 -42.55 -176.4 -33.4 -190.15 -29.4 -197.25 Q-12.85 -231.95 -11.05 -248.4 L-10.9 -248.5 -9.55 -256.0 Q-8.25 -273.1 -6.65 -277.9 L-6.65 -278.0 -6.65 -277.9 -6.8 -278.0 -6.65 -278.0 -6.3 -279.9 -4.4 -283.0 -2.05 -288.25 5.45 -297.65 18.2 -309.15 28.95 -315.5 Q32.25 -316.65 32.85 -318.25 L29.45 -319.65 M-94.05 -102.15 L-81.3 -124.75 -74.3 -134.9 -81.3 -124.75 -94.05 -102.15 -101.55 -99.5 -96.65 -97.0 -96.6 -97.05 -94.05 -102.15 M-69.65 -100.75 L-71.15 -100.65 Q-73.5 -100.65 -74.55 -96.15 L-74.65 -93.0 -72.3 -82.4 Q-78.9 -83.55 -81.65 -86.15 L-83.55 -88.0 -89.8 -92.9 -94.9 -96.15 -96.6 -97.05 -94.9 -96.15 -89.8 -92.9 -83.55 -88.0 -81.65 -86.15 Q-78.9 -83.55 -72.3 -82.4 L-74.65 -93.0 -74.55 -96.15 Q-73.5 -100.65 -71.15 -100.65 L-69.65 -100.75 M0.6 76.1 L3.35 76.5 4.35 76.5 6.35 76.75 7.35 77.0 10.45 77.35 11.35 77.35 14.6 77.75 11.35 77.35 10.45 77.35 7.35 77.0 6.35 76.75 4.35 76.5 3.35 76.5 0.6 76.1 M33.2 -97.5 L34.35 -102.4 33.2 -97.5 M32.85 -97.15 L32.95 -96.75 32.75 -96.5 32.85 -97.15 32.75 -96.5 32.95 -96.75 32.85 -97.15 M-106.5 -72.2 L-106.05 -71.75 -99.4 -63.65 -91.55 -55.5 -85.4 -50.15 -80.55 -47.4 Q-78.35 -45.15 -69.9 -42.9 L-61.65 -41.75 Q-42.15 -40.7 -23.65 -47.4 L-10.8 -53.0 -1.55 -58.5 11.2 -68.65 20.35 -77.75 28.45 -88.0 31.6 -93.4 32.6 -96.15 31.6 -93.4 28.45 -88.0 20.35 -77.75 11.2 -68.65 -1.55 -58.5 -10.8 -53.0 -23.65 -47.4 Q-42.15 -40.7 -61.65 -41.75 L-69.9 -42.9 Q-78.35 -45.15 -80.55 -47.4 L-85.4 -50.15 -91.55 -55.5 -99.4 -63.65 -106.05 -71.75 -106.5 -72.2 M34.6 -103.5 L34.6 -104.0 34.6 -103.5 M34.85 -105.25 L34.85 -105.9 35.1 -109.15 34.85 -105.9 34.85 -105.25 M34.85 -111.9 L34.85 -112.4 34.7 -114.0 34.6 -114.5 34.7 -114.0 34.85 -112.4 34.85 -111.9 M34.95 -109.4 L34.95 -111.5 34.95 -109.4 M34.7 -104.4 L34.7 -105.0 34.7 -104.4 M-43.4 -94.15 L-42.8 -94.0 -8.3 -100.0 Q0.35 -101.9 6.45 -104.25 L12.7 -106.9 14.35 -108.15 12.7 -106.9 6.45 -104.25 Q0.35 -101.9 -8.3 -100.0 L-42.8 -94.0 -43.4 -94.15 M-142.05 -126.4 L-140.8 -124.4 -135.55 -118.75 -134.65 -117.25 -135.55 -118.75 -140.8 -124.4 -142.05 -126.4 M-69.15 -100.9 L-65.55 -99.4 -56.05 -90.0 Q-52.85 -87.8 -51.9 -88.0 L-49.8 -87.25 -47.4 -87.2 -43.15 -87.15 -47.4 -87.2 -49.8 -87.25 -51.9 -88.0 Q-52.85 -87.8 -56.05 -90.0 L-65.55 -99.4 -69.15 -100.9 M-168.8 -120.0 L-162.55 -114.5 -160.65 -112.4 -160.15 -111.25 -160.65 -112.4 -162.55 -114.5 -168.8 -120.0 M-72.3 -82.4 L-71.55 -82.25 -70.55 -83.0 -71.55 -82.25 -72.3 -82.4 M-47.4 -87.2 L-47.55 -88.0 -47.8 -92.15 Q-47.85 -94.4 -46.65 -96.15 -43.6 -98.65 -43.3 -96.15 L-42.8 -94.5 -42.8 -94.0 -42.8 -94.5 -43.3 -96.15 Q-43.6 -98.65 -46.65 -96.15 -47.85 -94.4 -47.8 -92.15 L-47.55 -88.0 -47.4 -87.2 M-107.7 -69.25 L-110.65 -57.25 -107.7 -69.25 M-119.15 -94.75 L-119.4 -96.15 Q-118.6 -106.7 -101.55 -99.5 -118.6 -106.7 -119.4 -96.15 L-119.15 -94.75 M-80.8 46.35 L-67.4 56.35 -58.8 61.85 -67.4 56.35 -80.8 46.35 M-0.4 76.0 L0.2 76.0 -0.4 76.0" fill="#ffffff" fill-rule="evenodd" stroke="none"/>
    <path d="M9.85 -324.0 L9.95 -323.65 10.4 -321.4 10.45 -321.25 18.6 -319.65 29.45 -319.65 32.85 -318.25 Q32.25 -316.65 28.95 -315.5 L18.2 -309.15 Q16.1 -310.9 8.45 -313.15 L-0.8 -315.5 -7.05 -317.65 -18.55 -323.65 Q-36.8 -332.9 -38.05 -331.15 L-38.8 -330.75 -40.8 -330.75 -41.65 -330.25 Q-42.25 -330.2 -40.55 -326.9 L-30.9 -311.15 -24.3 -302.9 -22.4 -299.75 -22.05 -299.25 -22.05 -299.15 Q-35.5 -315.55 -63.15 -346.9 L-70.4 -355.75 Q-76.05 -360.85 -63.15 -356.15 L-46.4 -348.9 -15.55 -333.25 -6.9 -329.25 -7.4 -328.0 -7.35 -327.95 -7.05 -327.65 -5.05 -327.0 -4.9 -327.05 -3.4 -327.9 1.1 -326.15 9.85 -324.0 M10.4 -321.4 L5.7 -322.65 -4.9 -327.05 5.7 -322.65 10.4 -321.4 M3.95 92.25 Q3.85 93.0 -2.3 96.25 L-2.65 96.65 -3.2 97.25 -3.3 97.35 -4.4 98.6 Q-5.35 100.4 -5.5 102.05 -5.7 103.85 -4.9 105.35 L0.85 123.35 Q1.6 126.8 8.85 138.5 L13.95 150.5 16.35 158.5 16.6 162.0 16.1 162.75 14.1 162.1 Q13.25 161.95 3.2 150.35 L0.1 147.6 Q-4.15 142.1 -10.9 153.6 L-7.3 158.6 Q-5.05 162.1 -6.8 162.6 -6.75 163.8 -24.9 157.75 L-30.4 157.5 -33.8 159.25 -37.05 162.6 -42.05 170.1 -43.05 171.0 -44.3 171.35 -45.4 171.35 -46.65 170.6 -50.55 163.85 -53.55 159.75 Q-56.75 157.55 -57.2 157.8 -57.1 156.3 -76.4 164.25 L-78.4 164.35 -79.05 164.1 -79.55 163.25 Q-81.25 160.75 -58.15 138.25 -50.35 126.4 -49.3 117.35 L-50.3 109.25 -52.05 103.0 Q-64.6 69.05 -67.9 64.85 L-70.4 57.75 -69.4 58.25 Q-60.5 66.65 -58.8 61.85 L-52.55 78.6 -44.3 98.6 Q-42.8 100.55 -40.8 114.75 L-39.05 120.1 -38.9 120.1 -30.8 113.85 Q-15.65 107.8 -15.55 106.0 L-14.8 105.1 -12.65 100.6 -10.55 94.35 -9.65 91.1 -6.8 88.25 -2.8 89.0 1.7 90.75 3.95 92.25 M-4.4 98.6 L-5.4 98.85 -7.4 99.1 -7.8 98.85 -7.95 98.75 -9.15 97.75 -10.55 94.35 -9.15 97.75 -7.95 98.75 -7.8 98.85 -7.4 99.1 -5.4 98.85 -4.4 98.6 M-24.9 -334.25 L-24.4 -334.25 -24.9 -334.25 M-24.4 -334.0 L-23.75 -333.9 -7.35 -327.95 -23.75 -333.9 -24.4 -334.0 M-39.05 120.25 L-38.9 120.1 -39.05 120.25 -42.65 123.25 -45.55 126.35 -45.9 126.85 -45.55 128.5 -43.55 129.25 Q-31.6 130.15 -31.4 130.85 -31.6 130.15 -43.55 129.25 L-45.55 128.5 -45.9 126.85 -45.55 126.35 -42.65 123.25 -39.05 120.25 -39.05 120.1 -39.05 120.25 M-7.95 98.75 L-7.15 99.6 -5.8 101.7 -5.5 102.05 -5.8 101.7 -7.15 99.6 -7.95 98.75 M-3.8 97.35 L-3.3 97.35 -3.8 97.35 M-3.2 97.25 L-2.95 96.85 -2.65 96.65 -2.95 96.85 -3.2 97.25 M-28.8 134.0 L-20.05 142.6 -19.9 142.6 -21.65 138.0 -24.65 133.5 -28.65 131.5 -31.4 130.85 -28.8 134.0 M-19.9 142.75 L-19.9 142.6 -19.9 142.75 -19.9 142.85 -19.8 143.0 -18.3 147.6 Q-16.75 158.85 -10.9 153.6 -16.75 158.85 -18.3 147.6 L-19.8 143.0 -19.9 142.85 -19.9 142.75 -20.05 142.6 -19.9 142.75" fill="#fa410f" fill-rule="evenodd" stroke="none"/>
    <path d="M18.2 -309.15 L5.45 -297.65 -2.05 -288.25 -4.4 -283.0 -6.3 -279.9 -6.65 -278.0 -6.8 -278.0 -11.3 -282.5 -14.05 -286.0 -17.15 -291.15 -17.55 -291.5 -21.55 -298.5 -22.05 -299.15 -22.05 -299.25 -22.4 -299.75 -24.3 -302.9 -30.9 -311.15 -40.55 -326.9 Q-42.25 -330.2 -41.65 -330.25 L-40.8 -330.75 -38.8 -330.75 -38.05 -331.15 Q-36.8 -332.9 -18.55 -323.65 L-7.05 -317.65 -0.8 -315.5 8.45 -313.15 Q16.1 -310.9 18.2 -309.15 M-22.4 -299.75 L-21.9 -299.25 -21.55 -298.5 -21.9 -299.25 -22.4 -299.75" fill="#fa420e" fill-rule="evenodd" stroke="none"/>
    <path d="M51.7 -336.15 L44.2 -350.5 44.1 -350.65 44.1 -350.75 Q33.5 -361.9 16.2 -348.5 L16.1 -348.4 15.95 -348.25 12.6 -343.0 10.2 -336.65 9.35 -329.25 9.85 -324.0 9.95 -323.65 10.4 -321.4 10.45 -321.25 18.6 -319.65 29.45 -319.65 32.85 -321.9 36.45 -323.65 Q36.9 -324.7 51.6 -330.5 L51.85 -331.75 51.85 -332.25 51.7 -336.15 54.7 -330.5 60.2 -320.0 61.6 -315.5 62.95 -307.4 63.2 -299.25 62.1 -291.15 60.85 -286.15 60.85 -284.0 61.45 -283.0 Q62.9 -280.75 65.6 -283.0 L66.45 -285.65 67.2 -291.15 67.6 -299.25 66.85 -307.4 64.1 -318.75 63.1 -321.75 Q44.35 -362.15 39.6 -374.5 38.2 -376.85 34.85 -372.4 L34.2 -370.9 34.7 -369.0 44.1 -350.75 M39.6 -374.5 Q44.25 -381.25 41.2 -380.5 L39.35 -379.65 30.45 -371.65 15.85 -356.15 -0.9 -336.75 -6.9 -329.25 -7.4 -328.0 -7.35 -327.95 -7.05 -327.65 -5.05 -327.0 -4.9 -327.05 -3.4 -327.9 0.3 -331.35 0.6 -331.75 1.0 -332.05 6.35 -337.75 10.35 -342.0 10.7 -342.65 15.95 -348.25 M16.1 -348.5 L16.2 -348.5 M16.1 -348.4 L16.1 -348.5 26.95 -360.9 34.7 -369.0 M27.35 -331.75 Q26.4 -327.3 31.2 -325.75 35.25 -325.75 35.6 -331.75 L34.6 -334.65 33.85 -335.4 31.95 -336.15 29.35 -335.5 Q27.35 -333.65 27.35 -331.75 M10.7 -342.65 L12.6 -343.0 M10.35 -342.0 L9.45 -339.9 Q7.0 -333.45 6.35 -337.75 M9.85 -324.0 L1.1 -326.15 -3.4 -327.9 M1.0 -332.05 L0.3 -331.35 M18.2 -309.15 L5.45 -297.65 -2.05 -288.25 -4.4 -283.0 -6.3 -279.9 -6.65 -278.0 -6.65 -277.9 Q-8.25 -273.1 -9.55 -256.0 L-10.9 -248.5 -11.05 -248.4 Q-12.85 -231.95 -29.4 -197.25 L-33.4 -190.15 -42.55 -176.4 -48.9 -167.65 -74.3 -134.9 -81.3 -124.75 -94.05 -102.15 -96.6 -97.05 -94.9 -96.15 -89.8 -92.9 -83.55 -88.0 -81.65 -86.15 Q-78.9 -83.55 -72.3 -82.4 L-74.65 -93.0 -74.55 -96.15 Q-73.5 -100.65 -71.15 -100.65 L-69.65 -100.75 M-22.05 -299.15 L-22.05 -299.25 -22.4 -299.75 -24.3 -302.9 -30.9 -311.15 -40.55 -326.9 Q-42.25 -330.2 -41.65 -330.25 L-40.8 -330.75 -38.8 -330.75 -38.05 -331.15 Q-36.8 -332.9 -18.55 -323.65 L-7.05 -317.65 -0.8 -315.5 8.45 -313.15 Q16.1 -310.9 18.2 -309.15 L28.95 -315.5 Q32.25 -316.65 32.85 -318.25 L29.45 -319.65 M-4.9 -327.05 L5.7 -322.65 10.4 -321.4 M54.7 -330.5 L51.85 -332.25 M64.1 -318.75 Q82.2 -288.7 67.35 -248.4 59.7 -234.95 48.1 -228.25 L44.85 -226.25 41.2 -224.65 Q34.65 -221.6 18.85 -218.25 L16.6 -216.9 Q12.6 -212.75 11.6 -210.15 L10.6 -206.0 Q9.4 -194.45 11.95 -185.15 L13.45 -181.5 15.2 -178.75 Q29.65 -164.7 39.35 -149.9 50.75 -133.4 66.45 -98.4 83.9 -50.55 85.6 6.35 L83.35 27.5 75.6 43.5 64.35 55.1 51.35 64.35 Q24.7 80.4 14.6 77.75 21.9 93.95 19.95 94.75 L18.85 94.5 17.1 93.35 Q16.6 93.05 14.1 97.5 L12.35 98.0 10.35 97.0 3.95 92.25 Q3.85 93.0 -2.3 96.25 L-2.65 96.65 -3.2 97.25 -3.3 97.35 -4.4 98.6 Q-5.35 100.4 -5.5 102.05 -5.7 103.85 -4.9 105.35 L0.85 123.35 Q1.6 126.8 8.85 138.5 L13.95 150.5 16.35 158.5 16.6 162.0 16.1 162.75 14.1 162.1 Q13.25 161.95 3.2 150.35 L0.1 147.6 Q-4.15 142.1 -10.9 153.6 L-7.3 158.6 Q-5.05 162.1 -6.8 162.6 -6.75 163.8 -24.9 157.75 L-30.4 157.5 -33.8 159.25 -37.05 162.6 -42.05 170.1 -43.05 171.0 -44.3 171.35 -45.4 171.35 -46.65 170.6 -50.55 163.85 -53.55 159.75 Q-56.75 157.55 -57.2 157.8 -57.1 156.3 -76.4 164.25 L-78.4 164.35 -79.05 164.1 -79.55 163.25 Q-81.25 160.75 -58.15 138.25 -50.35 126.4 -49.3 117.35 L-50.3 109.25 -52.05 103.0 Q-64.6 69.05 -67.9 64.85 L-70.4 57.75 Q-73.6 55.05 -84.55 53.1 L-84.4 51.25 -83.8 49.85 -80.8 46.35 Q-111.9 20.35 -117.05 -5.65 -121.5 -30.45 -118.65 -42.5 L-115.9 -52.5 -110.4 -65.25 -107.7 -69.25 Q-106.45 -71.4 -106.5 -72.2 L-106.55 -72.4 -113.3 -82.4 Q-118.35 -90.95 -119.15 -94.75 L-133.55 -92.5 -148.55 -91.75 Q-168.85 -94.15 -181.9 -101.0 -215.6 -118.05 -210.55 -122.0 L-209.65 -123.0 -207.8 -124.15 -202.8 -124.9 -196.4 -124.65 -190.15 -123.9 -169.9 -119.9 -168.8 -120.0 Q-176.3 -127.7 -170.8 -130.65 L-170.65 -130.75 -170.4 -130.75 -170.3 -130.9 -169.9 -130.9 -169.8 -131.0 -168.3 -131.4 -163.65 -131.15 -148.3 -126.9 -142.05 -126.4 Q-144.25 -133.4 -139.65 -132.9 L-132.3 -131.65 -128.8 -131.5 Q-125.8 -134.35 -74.3 -134.9 M14.35 -108.15 L12.7 -106.9 6.45 -104.25 Q0.35 -101.9 -8.3 -100.0 L-42.8 -94.0 -43.4 -94.15 M34.7 -105.0 L34.7 -104.4 M34.95 -111.5 L34.95 -109.4 M34.6 -114.5 L34.7 -114.0 34.85 -112.4 34.85 -111.9 M35.1 -109.15 L34.85 -105.9 34.85 -105.25 M34.6 -104.0 L34.6 -103.5 M32.6 -96.15 L31.6 -93.4 28.45 -88.0 20.35 -77.75 11.2 -68.65 -1.55 -58.5 -10.8 -53.0 -23.65 -47.4 Q-42.15 -40.7 -61.65 -41.75 L-69.9 -42.9 Q-78.35 -45.15 -80.55 -47.4 L-85.4 -50.15 -91.55 -55.5 -99.4 -63.65 -106.05 -71.75 -106.5 -72.2 M32.85 -97.15 L32.75 -96.5 32.95 -96.75 32.85 -97.15 M34.35 -102.4 L33.2 -97.5 M14.6 77.75 L11.35 77.35 10.45 77.35 7.35 77.0 6.35 76.75 4.35 76.5 3.35 76.5 0.6 76.1 M3.95 92.25 L1.7 90.75 -2.8 89.0 -6.8 88.25 -9.65 91.1 -10.55 94.35 -9.15 97.75 -7.95 98.75 -7.8 98.85 -7.4 99.1 -5.4 98.85 -4.4 98.6 M-6.9 -329.25 L-15.55 -333.25 -46.4 -348.9 -63.15 -356.15 Q-76.05 -360.85 -70.4 -355.75 L-63.15 -346.9 Q-35.5 -315.55 -22.05 -299.15 L-21.55 -298.5 -21.9 -299.25 -22.4 -299.75 M-7.35 -327.95 L-23.75 -333.9 -24.4 -334.0 M-24.4 -334.25 L-24.9 -334.25 M-17.55 -291.5 L-17.15 -291.15 -14.05 -286.0 -11.3 -282.5 -6.8 -278.0 -6.65 -278.0 M-6.8 -278.0 L-6.65 -277.9 M-17.55 -291.5 Q-17.15 -278.8 -11.3 -282.5 M-21.55 -298.5 L-17.55 -291.5 M-160.15 -111.25 L-160.65 -112.4 -162.55 -114.5 -168.8 -120.0 M-43.15 -87.15 L-47.4 -87.2 -49.8 -87.25 -51.9 -88.0 Q-52.85 -87.8 -56.05 -90.0 L-65.55 -99.4 -69.15 -100.9 M-134.65 -117.25 L-135.55 -118.75 -140.8 -124.4 -142.05 -126.4 M-94.05 -102.15 L-101.55 -99.5 -96.65 -97.0 -96.6 -97.05 M-101.55 -99.5 Q-118.6 -106.7 -119.4 -96.15 L-119.15 -94.75 M-110.65 -57.25 L-107.7 -69.25 M-42.8 -94.0 L-42.8 -94.5 -43.3 -96.15 Q-43.6 -98.65 -46.65 -96.15 -47.85 -94.4 -47.8 -92.15 L-47.55 -88.0 -47.4 -87.2 M-70.55 -83.0 L-71.55 -82.25 -72.3 -82.4 M-70.4 57.75 L-69.4 58.25 Q-60.5 66.65 -58.8 61.85 L-67.4 56.35 -80.8 46.35 M-58.8 61.85 L-52.55 78.6 -44.3 98.6 Q-42.8 100.55 -40.8 114.75 L-39.05 120.1 -38.9 120.1 -30.8 113.85 Q-15.65 107.8 -15.55 106.0 L-14.8 105.1 -12.65 100.6 -10.55 94.35 M-6.8 88.25 Q-18.1 87.6 -3.15 77.0 L-3.55 76.35 -33.05 71.35 -48.8 66.85 -58.8 61.85 M-2.65 96.65 L-2.95 96.85 -3.2 97.25 M-3.3 97.35 L-3.8 97.35 M-5.5 102.05 L-5.8 101.7 -7.15 99.6 -7.95 98.75 M-31.4 130.85 Q-31.6 130.15 -43.55 129.25 L-45.55 128.5 -45.9 126.85 -45.55 126.35 -42.65 123.25 -39.05 120.25 -39.05 120.1 M-38.9 120.1 L-39.05 120.25 M-28.8 134.0 L-20.05 142.6 -19.9 142.6 -21.65 138.0 -24.65 133.5 -28.65 131.5 -31.4 130.85 -28.8 134.0 M-10.9 153.6 Q-16.75 158.85 -18.3 147.6 L-19.8 143.0 -19.9 142.85 -19.9 142.75 -20.05 142.6 M-19.9 142.6 L-19.9 142.75 M0.2 76.0 L-0.4 76.0 M30.45 -371.65 Q10.15 -353.6 -0.9 -336.75" fill="none" stroke="#000000" stroke-linecap="round" stroke-linejoin="round" stroke-width="2.15"/>
  </g>
</svg>
