<?xml version="1.0" encoding="UTF-8" standalone="no"?>
<svg xmlns:xlink="http://www.w3.org/1999/xlink" height="551.15px" width="291.15px" xmlns="http://www.w3.org/2000/svg">
  <g transform="matrix(1.0, 0.0, 0.0, 1.0, 202.75, 380.35)">
    <path d="M9.85 -330.25 Q22.7 -348.6 41.1 -365.15 L49.7 -372.5 59.1 -379.0 Q65.35 -380.65 58.6 -372.75 L63.7 -357.15 75.2 -326.9 78.95 -316.0 78.95 -315.5 80.45 -307.4 80.95 -299.25 80.2 -291.15 78.45 -283.0 Q75.95 -278.5 73.45 -283.0 L73.2 -284.4 73.45 -285.65 75.2 -291.15 76.7 -299.25 76.7 -307.4 75.6 -315.5 74.6 -319.15 70.85 -327.5 67.95 -333.75 61.85 -348.0 61.6 -348.4 61.45 -348.5 61.6 -348.5 53.45 -367.4 39.45 -352.15 39.45 -352.0 39.35 -352.0 39.2 -351.9 37.45 -351.15 32.85 -347.0 30.95 -344.0 30.45 -343.5 30.2 -343.15 26.35 -339.9 25.2 -338.65 26.35 -339.9 30.2 -343.15 30.2 -343.0 30.2 -342.9 30.1 -342.75 28.85 -340.15 28.7 -340.0 28.7 -339.9 28.6 -339.9 28.6 -339.75 28.6 -339.65 27.45 -336.9 27.6 -336.9 26.95 -335.4 25.95 -328.5 26.35 -323.65 26.35 -323.5 21.1 -325.0 14.85 -327.75 21.6 -334.9 24.2 -337.0 25.2 -338.65 17.7 -332.0 12.95 -328.65 12.8 -328.6 12.6 -328.5 9.7 -329.9 9.75 -329.95 9.85 -330.25 M5.85 -281.15 Q-1.75 -277.05 -1.55 -291.9 L-1.05 -291.15 1.7 -286.25 5.85 -281.15 M58.6 -372.75 Q57.85 -377.45 53.1 -372.4 L52.6 -370.15 53.45 -367.4 52.6 -370.15 53.1 -372.4 Q57.85 -377.45 58.6 -372.75 M61.6 -348.4 L61.6 -348.5 61.6 -348.4 M24.2 -337.0 Q24.8 -331.6 27.45 -336.9 24.8 -331.6 24.2 -337.0" fill="#43396f" fill-rule="evenodd" stroke="none"/>
    <path d="M30.2 -343.15 L30.45 -343.5 30.95 -344.0 32.85 -347.0 37.45 -351.15 39.2 -351.9 39.35 -352.0 39.45 -352.0 39.45 -352.15 39.6 -352.15 Q47.9 -358.7 61.45 -348.5 L61.6 -348.4 61.85 -348.0 67.95 -333.75 68.1 -329.25 67.6 -328.25 64.45 -327.9 Q54.25 -325.0 52.35 -323.65 L48.35 -322.0 45.2 -320.15 33.95 -320.9 26.6 -322.65 26.55 -322.75 26.35 -323.5 26.35 -323.65 25.95 -328.5 26.95 -335.4 27.6 -336.9 27.45 -336.9 28.6 -339.65 28.6 -339.75 28.7 -339.9 28.6 -339.75 28.6 -339.9 28.7 -339.9 28.7 -340.0 28.85 -340.15 30.1 -342.75 30.2 -342.9 30.2 -343.0 30.2 -343.15 M39.45 -352.0 L39.6 -352.15 39.45 -352.0 M30.95 -344.0 L30.2 -343.0 30.95 -344.0 M27.6 -336.9 L28.6 -339.65 27.6 -336.9 M50.7 -333.4 L49.7 -334.4 48.35 -335.0 Q44.9 -335.4 43.7 -331.75 42.1 -327.05 46.95 -324.75 51.75 -324.75 51.35 -331.75 L50.7 -333.4" fill="#ff7a16" fill-rule="evenodd" stroke="none"/>
    <path d="M2.35 92.25 Q1.65 92.3 0.5 93.65 L-1.4 96.0 -5.05 98.1 -6.9 101.6 -6.65 105.5 -0.65 125.75 Q10.25 146.3 9.45 146.1 L12.6 155.35 Q13.95 159.8 13.85 162.5 L13.2 163.75 11.2 163.0 -0.9 149.1 -2.9 147.6 Q-6.9 144.0 -10.9 150.35 L-8.3 153.75 -5.65 158.5 -5.9 159.6 -6.65 160.0 -9.9 159.5 -21.4 155.75 Q-23.9 154.45 -29.9 154.75 L-33.4 156.75 Q-36.35 159.4 -41.05 168.35 L-42.8 169.75 -45.3 169.5 Q-53.6 154.4 -56.15 155.6 L-60.8 156.25 Q-64.0 157.0 -75.9 162.75 L-77.65 162.75 -78.4 162.35 Q-80.75 158.9 -57.3 133.75 -53.8 127.65 -51.8 122.35 L-50.05 115.75 -50.55 108.6 Q-51.8 101.85 -53.05 99.1 L-62.65 73.85 -69.9 58.25 -71.3 53.35 -65.15 58.25 -63.05 59.6 -61.55 59.35 -60.3 58.25 -59.9 58.0 -57.9 62.35 Q-55.3 70.65 -44.65 96.75 -44.3 95.8 -40.9 113.6 L-39.05 117.85 -30.9 112.25 Q-20.65 109.5 -16.9 105.75 L-16.8 105.6 Q-10.1 88.3 -6.15 87.75 L-1.55 89.35 2.35 92.25 M-5.4 -299.5 Q-12.75 -310.2 -45.8 -353.65 L-51.3 -361.65 Q-53.25 -363.6 -47.9 -362.25 L-28.8 -352.65 9.85 -330.25 9.75 -329.95 9.7 -329.9 12.6 -328.5 12.8 -328.6 12.95 -328.65 14.85 -327.75 21.1 -325.0 26.35 -323.5 26.55 -322.75 26.6 -322.65 33.95 -320.9 45.2 -320.15 Q51.65 -319.2 42.35 -315.5 L33.1 -310.15 28.35 -312.75 10.35 -318.9 -11.9 -331.75 -15.55 -333.4 -17.55 -334.0 -18.65 -333.9 -19.05 -334.25 -23.05 -334.0 -23.8 -333.5 -23.8 -332.5 -23.3 -331.75 -22.05 -328.0 -15.4 -315.5 -9.8 -307.4 -5.8 -300.4 -5.65 -300.15 -5.4 -299.5 M26.55 -322.75 L21.7 -324.4 12.8 -328.6 21.7 -324.4 26.55 -322.75 M-8.3 -337.4 L9.75 -329.95 -8.3 -337.4 M-0.4 94.25 L0.5 93.65 -0.4 94.25 M-10.9 150.35 Q-17.5 161.2 -20.3 147.6 L-22.8 139.5 Q-23.25 137.2 -26.4 133.0 L-29.15 131.35 Q-36.15 128.4 -46.15 127.25 L-47.05 126.5 -47.15 125.0 -45.8 123.25 -39.05 117.85 -45.8 123.25 -47.15 125.0 -47.05 126.5 -46.15 127.25 Q-36.15 128.4 -29.15 131.35 L-26.4 133.0 Q-23.25 137.2 -22.8 139.5 L-20.3 147.6 Q-17.5 161.2 -10.9 150.35 M-8.55 99.35 L-8.8 99.0 -8.55 99.35 M-7.3 89.6 L-7.25 89.35 -6.9 88.9 -7.2 89.2 -7.25 89.35 -7.2 89.2 -6.9 88.9 -7.25 89.35 -7.3 89.6" fill="#fa410f" fill-rule="evenodd" stroke="none"/>
    <path d="M7.1 -279.75 L5.85 -281.15 1.7 -286.25 -1.05 -291.15 -1.55 -291.9 -5.3 -299.25 -5.4 -299.4 -5.4 -299.5 -5.65 -300.15 -5.8 -300.4 -9.8 -307.4 -15.4 -315.5 -22.05 -328.0 -23.3 -331.75 -23.8 -332.5 -23.8 -333.5 -23.05 -334.0 -19.05 -334.25 -18.65 -333.9 -17.55 -334.0 -15.55 -333.4 -11.9 -331.75 10.35 -318.9 28.35 -312.75 33.1 -310.15 20.1 -299.25 13.1 -291.15 11.2 -288.4 Q10.1 -285.1 8.45 -283.0 L7.1 -279.75 M-5.65 -300.15 L-5.65 -300.4 -5.8 -300.4 -5.65 -300.4 -5.65 -300.15" fill="#fa420e" fill-rule="evenodd" stroke="none"/>
    <path d="M78.95 -316.0 Q95.6 -282.7 79.2 -245.15 69.65 -230.2 58.85 -225.5 50.6 -220.45 26.35 -217.65 20.1 -212.9 19.85 -208.65 18.9 -205.15 19.2 -195.15 L20.2 -188.15 22.1 -183.9 Q36.0 -169.05 45.2 -153.15 66.2 -113.35 70.2 -98.25 86.0 -46.85 85.6 8.85 L82.6 30.35 74.45 45.85 62.45 57.5 49.95 65.35 37.85 71.25 Q29.65 75.05 24.2 76.6 L20.45 77.25 12.45 77.75 Q19.6 97.45 17.2 95.75 L15.85 95.5 14.1 94.0 11.45 97.35 9.6 97.75 7.45 96.5 2.35 92.25 -1.55 89.35 -6.15 87.75 -11.8 86.35 -13.65 85.5 -13.8 84.1 Q-12.8 80.55 -5.3 76.25 L-5.4 75.35 Q-49.5 65.8 -58.3 56.5 L-59.9 58.0 -60.3 58.25 -61.55 59.35 -63.05 59.6 -65.15 58.25 -71.3 53.35 Q-75.85 49.95 -85.15 48.1 -85.6 44.4 -79.3 40.0 -111.05 10.6 -114.8 -15.25 -120.9 -53.0 -104.55 -74.25 L-104.4 -74.25 Q-104.3 -77.9 -96.65 -95.0 L-96.7 -95.1 -104.15 -108.25 Q-144.7 -104.25 -164.15 -118.75 -191.1 -137.85 -200.3 -152.65 -207.55 -165.7 -177.3 -153.0 L-165.55 -146.65 Q-160.6 -144.1 -158.4 -143.75 -165.25 -155.15 -160.8 -157.5 -156.05 -159.8 -146.8 -153.0 -143.35 -150.2 -137.65 -147.15 L-131.65 -144.9 Q-135.05 -155.1 -127.4 -153.0 L-122.8 -150.25 -119.65 -148.9 Q-94.1 -146.45 -69.8 -141.25 L-64.3 -148.25 -38.65 -177.9 -31.55 -186.75 -20.3 -202.75 Q0.25 -240.2 3.6 -261.4 L3.7 -261.5 3.7 -261.9 3.85 -262.15 3.85 -262.4 3.95 -262.75 7.1 -279.75 8.45 -283.0 Q10.1 -285.1 11.2 -288.4 L13.1 -291.15 20.1 -299.25 33.1 -310.15 42.35 -315.5 Q51.65 -319.2 45.2 -320.15 L48.35 -322.0 52.35 -323.65 Q54.25 -325.0 64.45 -327.9 L67.6 -328.25 68.1 -329.25 70.85 -327.5 74.6 -319.15 75.6 -315.5 76.7 -307.4 76.7 -299.25 75.2 -291.15 73.45 -285.65 73.2 -284.4 73.45 -283.0 Q75.95 -278.5 78.45 -283.0 L80.2 -291.15 80.95 -299.25 80.45 -307.4 78.95 -315.5 78.95 -316.0 M14.1 94.0 L14.7 94.0 14.1 94.0 M13.1 77.35 L13.85 77.35 13.1 77.35 M37.95 -109.4 L37.95 -109.9 38.6 -112.4 38.45 -120.15 38.6 -112.4 37.95 -109.9 37.95 -109.4 M-96.7 -95.1 L-88.9 -84.5 -84.4 -79.9 -77.8 -74.4 -72.9 -71.75 Q-53.7 -64.2 -35.4 -65.4 -13.15 -67.45 -5.9 -71.75 L4.6 -76.25 16.45 -83.4 26.7 -91.25 31.45 -96.15 34.45 -99.9 34.85 -100.9 36.2 -104.25 37.1 -105.9 37.7 -108.75 37.1 -105.9 36.2 -104.25 34.85 -100.9 36.1 -103.0 34.85 -100.9 34.45 -99.9 31.45 -96.15 26.7 -91.25 16.45 -83.4 4.6 -76.25 -5.9 -71.75 Q-13.15 -67.45 -35.4 -65.4 -53.7 -64.2 -72.9 -71.75 L-77.8 -74.4 -84.4 -79.9 -88.9 -84.5 -96.7 -95.1 M-38.65 -113.9 L-37.3 -113.45 -37.3 -113.4 -29.8 -114.15 4.45 -114.25 15.85 -115.9 19.6 -117.15 15.85 -115.9 4.45 -114.25 -29.8 -114.15 -37.3 -113.4 -37.3 -113.45 -38.65 -113.9 M-104.55 -74.0 L-104.55 -74.25 -104.55 -74.0 -104.4 -74.25 -104.55 -74.0 -107.55 -63.65 -104.55 -74.0 M-127.4 -135.75 L-127.65 -136.75 -131.65 -144.9 -127.65 -136.75 -127.4 -135.75 M-158.4 -143.75 L-154.05 -136.75 -153.55 -135.5 -154.05 -136.75 -158.4 -143.75 M-37.3 -113.45 L-37.9 -115.9 -39.3 -116.5 -40.8 -115.75 Q-42.25 -113.95 -42.4 -112.4 L-42.9 -108.95 -39.15 -108.25 -42.9 -108.95 -46.55 -109.65 Q-50.15 -111.3 -50.8 -112.4 L-52.9 -114.65 -57.05 -120.5 Q-62.6 -128.05 -67.4 -120.5 L-68.05 -118.5 -67.55 -108.8 -65.65 -109.25 -67.55 -108.8 -68.05 -118.5 -67.4 -120.5 Q-62.6 -128.05 -57.05 -120.5 L-52.9 -114.65 -50.8 -112.4 Q-50.15 -111.3 -46.55 -109.65 L-42.9 -108.95 -42.4 -112.4 Q-42.25 -113.95 -40.8 -115.75 L-39.3 -116.5 -37.9 -115.9 -37.3 -113.45 M-67.55 -108.8 L-67.9 -108.75 Q-74.55 -111.45 -74.65 -112.4 L-77.15 -114.4 Q-78.6 -116.85 -82.8 -120.5 L-83.5 -121.2 -83.55 -121.15 Q-86.4 -124.4 -92.8 -128.65 -107.6 -138.4 -111.15 -128.65 L-110.8 -125.15 -109.3 -120.5 -104.15 -108.25 -109.3 -120.5 -110.8 -125.15 -111.15 -128.65 Q-107.6 -138.4 -92.8 -128.65 -86.4 -124.4 -83.55 -121.15 L-83.5 -121.2 -73.3 -136.75 -69.8 -141.25 -73.3 -136.75 -83.5 -121.2 -82.8 -120.5 Q-78.6 -116.85 -77.15 -114.4 L-74.65 -112.4 Q-74.55 -111.45 -67.9 -108.75 L-67.55 -108.8 M-58.3 56.5 L-67.05 50.1 -79.3 40.0 -67.05 50.1 -58.3 56.5" fill="#ffffff" fill-rule="evenodd" stroke="none"/>
    <path d="M50.7 -333.4 L51.35 -331.75 Q51.75 -324.75 46.95 -324.75 42.1 -327.05 43.7 -331.75 44.9 -335.4 48.35 -335.0 L49.7 -334.4 50.7 -333.4" fill="#000000" fill-rule="evenodd" stroke="none"/>
    <path d="M9.85 -330.25 Q22.7 -348.6 41.1 -365.15 L49.7 -372.5 59.1 -379.0 Q65.35 -380.65 58.6 -372.75 L63.7 -357.15 75.2 -326.9 78.95 -316.0 Q95.6 -282.7 79.2 -245.15 69.65 -230.2 58.85 -225.5 50.6 -220.45 26.35 -217.65 20.1 -212.9 19.85 -208.65 18.9 -205.15 19.2 -195.15 L20.2 -188.15 22.1 -183.9 Q36.0 -169.05 45.2 -153.15 66.2 -113.35 70.2 -98.25 86.0 -46.85 85.6 8.85 L82.6 30.35 74.45 45.85 62.45 57.5 49.95 65.35 37.85 71.25 Q29.65 75.05 24.2 76.6 L20.45 77.25 12.45 77.75 Q19.6 97.45 17.2 95.75 L15.85 95.5 14.1 94.0 11.45 97.35 9.6 97.75 7.45 96.5 2.35 92.25 Q1.65 92.3 0.5 93.65 L-1.4 96.0 -5.05 98.1 -6.9 101.6 -6.65 105.5 -0.65 125.75 Q10.25 146.3 9.45 146.1 L12.6 155.35 Q13.95 159.8 13.85 162.5 L13.2 163.75 11.2 163.0 -0.9 149.1 -2.9 147.6 Q-6.9 144.0 -10.9 150.35 L-8.3 153.75 -5.65 158.5 -5.9 159.6 -6.65 160.0 -9.9 159.5 -21.4 155.75 Q-23.9 154.45 -29.9 154.75 L-33.4 156.75 Q-36.35 159.4 -41.05 168.35 L-42.8 169.75 -45.3 169.5 Q-53.6 154.4 -56.15 155.6 L-60.8 156.25 Q-64.0 157.0 -75.9 162.75 L-77.65 162.75 -78.4 162.35 Q-80.75 158.9 -57.3 133.75 -53.8 127.65 -51.8 122.35 L-50.05 115.75 -50.55 108.6 Q-51.8 101.85 -53.05 99.1 L-62.65 73.85 -69.9 58.25 -71.3 53.35 Q-75.85 49.95 -85.15 48.1 -85.6 44.4 -79.3 40.0 -111.05 10.6 -114.8 -15.25 -120.9 -53.0 -104.55 -74.25 L-104.4 -74.25 Q-104.3 -77.9 -96.65 -95.0 L-96.7 -95.1 -104.15 -108.25 Q-144.7 -104.25 -164.15 -118.75 -191.1 -137.85 -200.3 -152.65 -207.55 -165.7 -177.3 -153.0 L-165.55 -146.65 Q-160.6 -144.1 -158.4 -143.75 -165.25 -155.15 -160.8 -157.5 -156.05 -159.8 -146.8 -153.0 -143.35 -150.2 -137.65 -147.15 L-131.65 -144.9 Q-135.05 -155.1 -127.4 -153.0 L-122.8 -150.25 -119.65 -148.9 Q-94.1 -146.45 -69.8 -141.25 L-64.3 -148.25 -38.65 -177.9 -31.55 -186.75 -20.3 -202.75 Q0.25 -240.2 3.6 -261.4 L3.7 -261.5 3.7 -261.9 3.85 -262.15 3.85 -262.4 3.95 -262.75 7.1 -279.75 5.85 -281.15 Q-1.75 -277.05 -1.55 -291.9 L-5.3 -299.25 -5.4 -299.4 -5.4 -299.5 Q-12.75 -310.2 -45.8 -353.65 L-51.3 -361.65 Q-53.25 -363.6 -47.9 -362.25 L-28.8 -352.65 9.85 -330.25 9.75 -329.95 9.7 -329.9 12.6 -328.5 12.8 -328.6 12.95 -328.65 17.7 -332.0 25.2 -338.65 26.35 -339.9 30.2 -343.15 30.45 -343.5 30.95 -344.0 32.85 -347.0 37.45 -351.15 39.2 -351.9 39.35 -352.0 39.45 -352.0 39.45 -352.15 53.45 -367.4 52.6 -370.15 53.1 -372.4 Q57.85 -377.45 58.6 -372.75 M67.95 -333.75 L61.85 -348.0 61.6 -348.4 61.45 -348.5 Q47.9 -358.7 39.6 -352.15 L39.45 -352.0 M61.45 -348.5 L61.6 -348.5 53.45 -367.4 M61.6 -348.5 L61.6 -348.4 M39.6 -352.15 L39.45 -352.15 M30.2 -343.15 L30.2 -343.0 30.95 -344.0 M30.2 -343.0 L30.2 -342.9 30.1 -342.75 28.85 -340.15 28.7 -340.0 28.7 -339.9 28.6 -339.75 28.6 -339.65 27.6 -336.9 26.95 -335.4 25.95 -328.5 26.35 -323.65 26.35 -323.5 26.55 -322.75 26.6 -322.65 33.95 -320.9 45.2 -320.15 48.35 -322.0 52.35 -323.65 Q54.25 -325.0 64.45 -327.9 L67.6 -328.25 68.1 -329.25 67.95 -333.75 70.85 -327.5 74.6 -319.15 75.6 -315.5 76.7 -307.4 76.7 -299.25 75.2 -291.15 73.45 -285.65 73.2 -284.4 73.45 -283.0 Q75.95 -278.5 78.45 -283.0 L80.2 -291.15 80.95 -299.25 80.45 -307.4 78.95 -315.5 78.95 -316.0 M14.85 -327.75 L21.6 -334.9 24.2 -337.0 25.2 -338.65 M28.7 -339.9 L28.6 -339.9 28.6 -339.75 M28.6 -339.65 L27.45 -336.9 27.6 -336.9 M27.45 -336.9 Q24.8 -331.6 24.2 -337.0 M26.35 -323.5 L21.1 -325.0 14.85 -327.75 12.95 -328.65 M12.8 -328.6 L21.7 -324.4 26.55 -322.75 M-5.4 -299.5 L-5.65 -300.15 -5.8 -300.4 -9.8 -307.4 -15.4 -315.5 -22.05 -328.0 -23.3 -331.75 -23.8 -332.5 -23.8 -333.5 -23.05 -334.0 -19.05 -334.25 -18.65 -333.9 -17.55 -334.0 -15.55 -333.4 -11.9 -331.75 10.35 -318.9 28.35 -312.75 33.1 -310.15 42.35 -315.5 Q51.65 -319.2 45.2 -320.15 M33.1 -310.15 L20.1 -299.25 13.1 -291.15 11.2 -288.4 Q10.1 -285.1 8.45 -283.0 L7.1 -279.75 M68.1 -329.25 L70.85 -327.5 M50.7 -333.4 L49.7 -334.4 48.35 -335.0 Q44.9 -335.4 43.7 -331.75 42.1 -327.05 46.95 -324.75 51.75 -324.75 51.35 -331.75 L50.7 -333.4 M5.85 -281.15 L1.7 -286.25 -1.05 -291.15 -1.55 -291.9 M19.6 -117.15 L15.85 -115.9 4.45 -114.25 -29.8 -114.15 -37.3 -113.4 -37.3 -113.45 -38.65 -113.9 M37.7 -108.75 L37.1 -105.9 36.2 -104.25 34.85 -100.9 36.1 -103.0 M34.85 -100.9 L34.45 -99.9 31.45 -96.15 26.7 -91.25 16.45 -83.4 4.6 -76.25 -5.9 -71.75 Q-13.15 -67.45 -35.4 -65.4 -53.7 -64.2 -72.9 -71.75 L-77.8 -74.4 -84.4 -79.9 -88.9 -84.5 -96.7 -95.1 M38.45 -120.15 L38.6 -112.4 37.95 -109.9 37.95 -109.4 M13.85 77.35 L13.1 77.35 M14.7 94.0 L14.1 94.0 M-5.8 -300.4 L-5.65 -300.4 -5.65 -300.15 M-104.15 -108.25 L-109.3 -120.5 -110.8 -125.15 -111.15 -128.65 Q-107.6 -138.4 -92.8 -128.65 -86.4 -124.4 -83.55 -121.15 L-83.5 -121.2 -73.3 -136.75 -69.8 -141.25 M-39.15 -108.25 L-42.9 -108.95 -46.55 -109.65 Q-50.15 -111.3 -50.8 -112.4 L-52.9 -114.65 -57.05 -120.5 Q-62.6 -128.05 -67.4 -120.5 L-68.05 -118.5 -67.55 -108.8 -65.65 -109.25 M-83.5 -121.2 L-82.8 -120.5 Q-78.6 -116.85 -77.15 -114.4 L-74.65 -112.4 Q-74.55 -111.45 -67.9 -108.75 L-67.55 -108.8 M-42.9 -108.95 L-42.4 -112.4 Q-42.25 -113.95 -40.8 -115.75 L-39.3 -116.5 -37.9 -115.9 -37.3 -113.45 M-153.55 -135.5 L-154.05 -136.75 -158.4 -143.75 M-131.65 -144.9 L-127.65 -136.75 -127.4 -135.75 M-104.4 -74.25 L-104.55 -74.0 -107.55 -63.65 M-104.55 -74.25 L-104.55 -74.0 M-6.15 87.75 L-11.8 86.35 -13.65 85.5 -13.8 84.1 Q-12.8 80.55 -5.3 76.25 L-5.4 75.35 Q-49.5 65.8 -58.3 56.5 L-59.9 58.0 -57.9 62.35 Q-55.3 70.65 -44.65 96.75 -44.3 95.8 -40.9 113.6 L-39.05 117.85 -30.9 112.25 Q-20.65 109.5 -16.9 105.75 L-16.8 105.6 Q-10.1 88.3 -6.15 87.75 L-1.55 89.35 2.35 92.25 M-59.9 58.0 L-60.3 58.25 -61.55 59.35 -63.05 59.6 -65.15 58.25 -71.3 53.35 M-79.3 40.0 L-67.05 50.1 -58.3 56.5 M-7.25 89.35 L-7.2 89.2 -6.9 88.9 -7.25 89.35 -7.3 89.6 M-8.8 99.0 L-8.55 99.35 M-39.05 117.85 L-45.8 123.25 -47.15 125.0 -47.05 126.5 -46.15 127.25 Q-36.15 128.4 -29.15 131.35 L-26.4 133.0 Q-23.25 137.2 -22.8 139.5 L-20.3 147.6 Q-17.5 161.2 -10.9 150.35 M0.5 93.65 L-0.4 94.25 M9.75 -329.95 L-8.3 -337.4" fill="none" stroke="#000000" stroke-linecap="round" stroke-linejoin="round" stroke-width="2.15"/>
  </g>
</svg>
