<?xml version="1.0" encoding="UTF-8" standalone="no"?>
<svg xmlns:xlink="http://www.w3.org/1999/xlink" height="550.7px" width="289.45px" xmlns="http://www.w3.org/2000/svg">
  <g transform="matrix(1.0, 0.0, 0.0, 1.0, 196.05, 380.55)">
    <path d="M77.6 -325.9 L78.7 -323.65 81.6 -315.5 82.45 -307.4 82.35 -299.25 81.95 -296.0 78.85 -285.25 78.7 -283.0 79.2 -281.75 80.7 -280.65 82.7 -280.9 83.85 -283.0 85.7 -291.15 86.6 -299.25 86.1 -307.4 85.1 -314.5 Q100.45 -281.65 83.35 -243.75 75.6 -231.0 62.35 -224.75 L51.2 -221.0 Q50.9 -220.45 33.35 -219.15 L30.7 -218.4 Q24.45 -214.25 24.2 -210.15 22.9 -202.45 23.35 -197.0 L24.1 -190.5 26.2 -185.25 Q41.1 -168.85 48.45 -154.65 58.6 -137.15 71.7 -99.65 L78.6 -74.25 83.1 -45.9 85.7 -17.5 85.95 9.75 82.7 31.1 75.35 45.0 73.6 47.5 62.2 58.1 48.45 66.25 30.85 74.1 25.2 76.0 19.85 77.0 12.1 77.5 12.1 77.6 11.95 78.85 Q17.95 94.3 16.45 96.0 L15.2 95.85 13.3 94.2 13.2 94.1 Q10.45 101.85 2.2 92.1 L-2.05 88.85 -5.55 87.6 -11.65 85.85 -13.9 84.85 -14.3 84.1 -13.8 82.1 -11.8 80.0 -5.9 76.0 -5.4 75.35 -5.9 74.6 -35.9 65.75 Q-45.0 62.95 -54.3 56.75 L-54.8 57.5 -55.55 57.35 -57.95 55.1 -58.05 55.0 -58.1 55.05 -59.05 55.35 -59.9 56.5 -61.3 57.75 -62.9 58.0 -64.9 56.85 -70.9 51.75 -71.15 51.5 Q-76.0 48.05 -85.05 45.85 -85.75 42.9 -78.15 37.25 -108.75 8.35 -113.05 -19.0 -116.4 -35.8 -113.3 -53.5 L-109.8 -64.15 -103.65 -76.0 -102.15 -77.75 -102.05 -77.75 -99.55 -86.0 Q-91.65 -104.7 -89.3 -108.65 L-89.1 -109.4 -89.05 -109.65 -92.4 -115.15 Q-127.95 -112.0 -152.4 -124.9 -166.5 -131.6 -192.8 -171.0 -200.8 -188.35 -179.8 -177.4 L-170.55 -171.0 -158.05 -160.5 -153.8 -157.75 -152.4 -157.25 Q-161.8 -183.5 -142.65 -169.25 L-133.65 -159.9 Q-131.4 -157.6 -126.15 -155.0 -129.15 -171.95 -117.15 -161.15 L-114.3 -158.9 -111.55 -157.9 Q-86.75 -150.95 -73.15 -146.25 L-66.65 -144.65 -61.8 -150.75 Q-31.25 -184.1 -26.9 -190.15 L-19.9 -199.25 -14.9 -206.75 Q4.2 -239.7 8.85 -262.4 L8.95 -262.5 8.95 -262.9 9.1 -263.0 9.1 -263.4 9.2 -263.65 9.2 -263.75 12.85 -280.75 13.45 -283.0 18.1 -291.15 27.35 -301.4 39.35 -310.9 47.6 -315.5 52.7 -317.75 54.1 -319.0 53.6 -319.65 51.6 -320.65 54.45 -322.25 58.2 -323.65 Q58.7 -325.1 73.7 -327.75 L74.35 -328.65 76.35 -327.4 77.6 -325.9 M-43.65 -123.5 L-45.4 -125.25 -51.65 -134.75 -53.65 -136.75 Q-57.05 -140.55 -60.9 -136.75 L-62.3 -133.25 -62.05 -123.6 Q-68.85 -127.35 -69.3 -128.65 L-74.25 -134.45 -66.65 -144.65 -74.25 -134.45 -69.3 -128.65 Q-68.85 -127.35 -62.05 -123.6 L-62.3 -133.25 -60.9 -136.75 Q-57.05 -140.55 -53.65 -136.75 L-51.65 -134.75 -45.4 -125.25 -43.65 -123.5 M-71.05 51.75 L-71.15 51.5 -70.9 51.75 -71.05 51.75 M11.7 77.85 L12.1 77.6 11.7 77.85 M-89.1 -109.4 L-83.8 -101.15 -80.4 -96.75 -79.55 -96.15 -73.3 -89.9 -66.15 -85.0 Q-58.4 -81.1 -52.65 -79.9 -27.05 -70.9 2.6 -79.9 4.95 -80.2 12.85 -83.75 L20.45 -88.0 Q24.25 -89.85 28.85 -93.4 L31.85 -96.15 Q32.4 -95.65 37.7 -102.65 L40.45 -108.9 41.95 -116.4 41.85 -120.5 41.6 -122.25 41.85 -120.5 41.95 -116.4 40.45 -108.9 37.7 -102.65 Q32.4 -95.65 31.85 -96.15 L28.85 -93.4 Q24.25 -89.85 20.45 -88.0 L12.85 -83.75 Q4.95 -80.2 2.6 -79.9 -27.05 -70.9 -52.65 -79.9 -58.4 -81.1 -66.15 -85.0 L-73.3 -89.9 -79.55 -96.15 -80.4 -96.75 -83.8 -101.15 -89.1 -109.4 M-33.15 -125.0 L-32.3 -124.5 -31.8 -124.25 -23.65 -123.9 2.6 -120.5 15.35 -119.75 22.85 -120.5 24.1 -120.75 22.85 -120.5 15.35 -119.75 2.6 -120.5 -23.65 -123.9 -31.8 -124.25 -32.3 -124.5 -33.15 -125.0 M-104.8 -68.5 L-102.05 -77.75 -104.8 -68.5 M-124.05 -148.25 L-125.9 -155.0 -124.05 -148.25 M-150.05 -150.0 L-150.8 -153.0 -152.4 -157.25 -150.8 -153.0 -150.05 -150.0 M-33.15 -119.15 L-37.4 -120.5 -33.15 -119.15 M-43.4 -123.4 L-40.3 -121.4 -37.8 -120.5 -37.65 -120.75 -36.55 -125.4 Q-34.1 -128.75 -33.4 -127.65 L-32.4 -126.65 -32.3 -124.5 -32.4 -126.65 -33.4 -127.65 Q-34.1 -128.75 -36.55 -125.4 L-37.65 -120.75 -37.8 -120.5 -40.3 -121.4 -43.4 -123.4 M-59.65 -123.5 L-61.65 -123.4 -62.05 -123.6 -61.65 -123.4 -59.65 -123.5 M-74.25 -134.45 L-74.3 -134.4 -76.15 -136.75 -84.15 -144.9 Q-86.5 -147.3 -94.05 -151.65 L-98.65 -153.25 -102.05 -153.0 -104.3 -151.25 Q-105.5 -149.7 -104.4 -144.9 L-102.05 -136.75 -98.9 -128.65 -92.4 -115.15 -98.9 -128.65 -102.05 -136.75 -104.4 -144.9 Q-105.5 -149.7 -104.3 -151.25 L-102.05 -153.0 -98.65 -153.25 -94.05 -151.65 Q-86.5 -147.3 -84.15 -144.9 L-76.15 -136.75 -74.3 -134.4 -74.25 -134.45 M13.3 94.2 L13.7 94.0 13.3 94.2 M-57.4 55.25 L-57.95 55.1 -57.4 55.25 M-54.3 56.75 L-78.15 37.25 -54.3 56.75" fill="#ffffff" fill-rule="evenodd" stroke="none"/>
    <path d="M85.1 -314.5 L86.1 -307.4 86.6 -299.25 85.7 -291.15 83.85 -283.0 82.7 -280.9 80.7 -280.65 79.2 -281.75 78.7 -283.0 78.85 -285.25 81.95 -296.0 82.35 -299.25 82.45 -307.4 81.6 -315.5 78.7 -323.65 77.6 -325.9 74.2 -334.15 68.85 -347.5 68.7 -347.65 68.85 -347.65 60.95 -367.25 46.85 -352.5 46.85 -352.4 46.7 -352.4 46.6 -352.25 43.85 -350.9 39.35 -346.75 37.1 -343.25 35.95 -341.65 35.35 -339.9 35.35 -339.75 35.2 -339.65 35.2 -339.5 35.1 -339.4 35.1 -339.25 34.1 -336.9 34.2 -336.9 33.6 -335.4 32.6 -328.75 32.95 -323.75 28.35 -325.4 21.7 -328.65 27.7 -334.65 30.85 -337.15 32.1 -339.0 32.85 -339.9 37.1 -343.25 32.85 -339.9 32.1 -339.0 24.95 -333.15 19.85 -329.65 16.45 -331.25 Q23.6 -342.65 47.2 -364.5 L58.1 -373.4 67.6 -379.25 Q72.35 -380.45 68.7 -375.7 L68.45 -375.4 66.1 -372.75 71.45 -355.15 83.85 -319.5 85.1 -314.5 M60.95 -367.25 L60.1 -370.4 60.6 -372.4 Q64.6 -377.45 66.1 -372.75 64.6 -377.45 60.6 -372.4 L60.1 -370.4 60.95 -367.25 M68.85 -347.5 L68.85 -347.65 68.85 -347.5 M34.1 -336.9 L32.95 -335.0 31.7 -334.4 30.85 -337.15 31.7 -334.4 32.95 -335.0 34.1 -336.9 M4.35 -293.4 L7.95 -287.0 11.1 -283.0 11.95 -281.65 Q3.0 -277.55 4.35 -293.4" fill="#43396f" fill-rule="evenodd" stroke="none"/>
    <path d="M74.35 -328.65 L73.7 -327.75 Q58.7 -325.1 58.2 -323.65 L54.45 -322.25 51.6 -320.65 40.35 -321.65 32.95 -323.75 32.6 -328.75 33.6 -335.4 34.2 -336.9 34.6 -337.75 35.1 -339.25 34.6 -337.75 34.2 -336.9 34.1 -336.9 35.1 -339.25 35.1 -339.4 35.2 -339.5 35.2 -339.65 35.35 -339.75 35.35 -339.9 35.95 -341.65 37.1 -343.25 39.35 -346.75 43.85 -350.9 46.6 -352.25 46.7 -352.4 46.85 -352.4 46.85 -352.5 46.95 -352.5 46.85 -352.4 46.95 -352.5 Q63.35 -357.2 68.7 -347.65 L68.85 -347.5 74.2 -334.15 74.35 -328.65 M57.7 -331.75 Q54.8 -338.55 49.95 -331.75 48.6 -327.2 52.7 -324.9 58.2 -324.95 57.7 -331.75" fill="#ff7a16" fill-rule="evenodd" stroke="none"/>
    <path d="M51.6 -320.65 L53.6 -319.65 54.1 -319.0 52.7 -317.75 47.6 -315.5 39.35 -310.9 35.7 -313.15 30.2 -315.5 Q18.6 -318.9 16.45 -320.25 L-2.05 -331.75 -8.55 -335.15 -13.15 -336.15 -13.8 -335.75 -14.3 -336.0 -16.15 -335.75 -16.65 -335.5 -16.8 -334.5 -15.8 -331.75 -9.65 -318.4 -2.55 -307.4 1.45 -299.4 -41.8 -361.4 -43.65 -365.15 Q-43.15 -365.85 -39.15 -364.25 L-24.3 -356.25 13.1 -333.0 14.4 -332.3 16.45 -331.25 19.85 -329.65 21.7 -328.65 28.35 -325.4 32.95 -323.75 40.35 -321.65 51.6 -320.65 M2.2 92.1 Q1.7 94.25 -5.8 99.85 L-7.05 102.75 -6.8 105.75 -2.65 120.85 -0.3 127.6 7.1 141.6 10.35 149.75 13.45 160.35 13.7 163.6 13.2 164.5 11.2 163.85 -1.15 149.75 -3.8 147.6 Q-6.85 145.5 -10.15 149.85 2.75 164.4 -17.55 155.75 L-24.4 153.85 -29.8 153.85 Q-35.15 156.3 -40.55 168.0 L-41.9 169.1 -44.4 169.0 Q-51.55 156.9 -52.15 157.1 L-55.65 154.85 -60.3 155.5 Q-63.35 156.25 -74.65 162.0 L-76.65 162.35 -77.8 161.85 -78.05 161.35 -77.65 159.6 -74.05 153.25 Q-69.4 146.15 -60.3 137.35 L-56.8 132.1 -51.65 121.1 -50.05 114.6 Q-49.9 110.2 -50.8 106.35 L-52.9 98.35 -62.65 72.5 -69.8 56.75 -71.05 51.75 -70.9 51.75 -64.9 56.85 -62.9 58.0 -61.3 57.75 -59.9 56.5 -58.55 59.25 Q-57.25 64.45 -45.15 94.25 -44.65 93.4 -40.65 113.35 L-38.4 117.75 -31.4 113.0 Q-20.6 110.0 -17.05 106.5 L-16.8 106.25 Q-11.15 90.55 -5.55 87.6 L-5.8 88.25 -6.45 89.1 -6.7 89.25 -6.45 89.1 -5.8 88.25 -5.55 87.6 -2.05 88.85 2.2 92.1 M-1.8 -339.4 L14.4 -332.3 -1.8 -339.4 M1.45 -299.25 L1.6 -299.25 1.6 -299.15 1.45 -299.25 M0.45 93.6 L1.35 92.85 0.45 93.6 M-5.3 98.85 L-4.9 98.75 -5.3 98.85 M-10.15 149.85 Q-17.1 162.2 -20.3 147.6 L-22.9 139.5 Q-22.4 138.9 -26.4 133.1 L-29.55 131.35 Q-30.35 130.55 -36.9 129.0 L-45.65 127.35 -46.65 126.75 -46.9 125.1 -45.4 123.25 -38.4 117.75 -45.4 123.25 -46.9 125.1 -46.65 126.75 -45.65 127.35 -36.9 129.0 Q-30.35 130.55 -29.55 131.35 L-26.4 133.1 Q-22.4 138.9 -22.9 139.5 L-20.3 147.6 Q-17.1 162.2 -10.15 149.85 M-7.3 102.6 L-7.4 102.0 -7.3 102.6 M-8.65 99.85 L-8.8 99.5 -8.65 99.85" fill="#fa410f" fill-rule="evenodd" stroke="none"/>
    <path d="M39.35 -310.9 L27.35 -301.4 18.1 -291.15 13.45 -283.0 12.85 -280.75 11.95 -281.65 11.1 -283.0 7.95 -287.0 4.35 -293.4 1.6 -299.15 1.6 -299.25 1.45 -299.25 1.45 -299.4 -2.55 -307.4 -9.65 -318.4 -15.8 -331.75 -16.8 -334.5 -16.65 -335.5 -16.15 -335.75 -14.3 -336.0 -13.8 -335.75 -13.15 -336.15 -8.55 -335.15 -2.05 -331.75 16.45 -320.25 Q18.6 -318.9 30.2 -315.5 L35.7 -313.15 39.35 -310.9" fill="#fa420e" fill-rule="evenodd" stroke="none"/>
    <path d="M57.7 -331.75 Q58.2 -324.95 52.7 -324.9 48.6 -327.2 49.95 -331.75 54.8 -338.55 57.7 -331.75" fill="#000000" fill-rule="evenodd" stroke="none"/>
    <path d="M85.1 -314.5 L86.1 -307.4 86.6 -299.25 85.7 -291.15 83.85 -283.0 82.7 -280.9 80.7 -280.65 79.2 -281.75 78.7 -283.0 78.85 -285.25 81.95 -296.0 82.35 -299.25 82.45 -307.4 81.6 -315.5 78.7 -323.65 77.6 -325.9 76.35 -327.4 74.35 -328.65 73.7 -327.75 Q58.7 -325.1 58.2 -323.65 L54.45 -322.25 51.6 -320.65 53.6 -319.65 54.1 -319.0 52.7 -317.75 47.6 -315.5 39.35 -310.9 27.35 -301.4 18.1 -291.15 13.45 -283.0 12.85 -280.75 9.2 -263.75 9.2 -263.65 9.1 -263.4 9.1 -263.0 8.95 -262.9 8.95 -262.5 8.85 -262.4 Q4.2 -239.7 -14.9 -206.75 L-19.9 -199.25 -26.9 -190.15 Q-31.25 -184.1 -61.8 -150.75 L-66.65 -144.65 -74.25 -134.45 -69.3 -128.65 Q-68.85 -127.35 -62.05 -123.6 L-62.3 -133.25 -60.9 -136.75 Q-57.05 -140.55 -53.65 -136.75 L-51.65 -134.75 -45.4 -125.25 -43.65 -123.5 M16.45 -331.25 Q23.6 -342.65 47.2 -364.5 L58.1 -373.4 67.6 -379.25 Q72.35 -380.45 68.7 -375.7 L68.45 -375.4 66.1 -372.75 71.45 -355.15 83.85 -319.5 85.1 -314.5 Q100.45 -281.65 83.35 -243.75 75.6 -231.0 62.35 -224.75 L51.2 -221.0 Q50.9 -220.45 33.35 -219.15 L30.7 -218.4 Q24.45 -214.25 24.2 -210.15 22.9 -202.45 23.35 -197.0 L24.1 -190.5 26.2 -185.25 Q41.1 -168.85 48.45 -154.65 58.6 -137.15 71.7 -99.65 L78.6 -74.25 83.1 -45.9 85.7 -17.5 85.95 9.75 82.7 31.1 75.35 45.0 73.6 47.5 62.2 58.1 48.45 66.25 30.85 74.1 25.2 76.0 19.85 77.0 12.1 77.5 12.1 77.6 11.95 78.85 Q17.95 94.3 16.45 96.0 L15.2 95.85 13.3 94.2 13.2 94.1 Q10.45 101.85 2.2 92.1 1.7 94.25 -5.8 99.85 L-7.05 102.75 -6.8 105.75 -2.65 120.85 -0.3 127.6 7.1 141.6 10.35 149.75 13.45 160.35 13.7 163.6 13.2 164.5 11.2 163.85 -1.15 149.75 -3.8 147.6 Q-6.85 145.5 -10.15 149.85 2.75 164.4 -17.55 155.75 L-24.4 153.85 -29.8 153.85 Q-35.15 156.3 -40.55 168.0 L-41.9 169.1 -44.4 169.0 Q-51.55 156.9 -52.15 157.1 L-55.65 154.85 -60.3 155.5 Q-63.35 156.25 -74.65 162.0 L-76.65 162.35 -77.8 161.85 -78.05 161.35 -77.65 159.6 -74.05 153.25 Q-69.4 146.15 -60.3 137.35 L-56.8 132.1 -51.65 121.1 -50.05 114.6 Q-49.9 110.2 -50.8 106.35 L-52.9 98.35 -62.65 72.5 -69.8 56.75 -71.05 51.75 -71.15 51.5 Q-76.0 48.05 -85.05 45.85 -85.75 42.9 -78.15 37.25 -108.75 8.35 -113.05 -19.0 -116.4 -35.8 -113.3 -53.5 L-109.8 -64.15 -103.65 -76.0 -102.15 -77.75 -102.05 -77.75 -99.55 -86.0 Q-91.65 -104.7 -89.3 -108.65 L-89.1 -109.4 -89.05 -109.65 -92.4 -115.15 Q-127.95 -112.0 -152.4 -124.9 -166.5 -131.6 -192.8 -171.0 -200.8 -188.35 -179.8 -177.4 L-170.55 -171.0 -158.05 -160.5 -153.8 -157.75 -152.4 -157.25 Q-161.8 -183.5 -142.65 -169.25 L-133.65 -159.9 Q-131.4 -157.6 -126.15 -155.0 -129.15 -171.95 -117.15 -161.15 L-114.3 -158.9 -111.55 -157.9 Q-86.75 -150.95 -73.15 -146.25 L-66.65 -144.65 M46.85 -352.4 L46.7 -352.4 46.6 -352.25 43.85 -350.9 39.35 -346.75 37.1 -343.25 35.95 -341.65 35.35 -339.9 35.35 -339.75 35.2 -339.65 35.2 -339.5 35.1 -339.4 35.1 -339.25 34.6 -337.75 34.2 -336.9 33.6 -335.4 32.6 -328.75 32.95 -323.75 40.35 -321.65 51.6 -320.65 M46.95 -352.5 L46.85 -352.5 46.85 -352.4 46.95 -352.5 Q63.35 -357.2 68.7 -347.65 L68.85 -347.65 60.95 -367.25 46.85 -352.5 M74.2 -334.15 L68.85 -347.5 68.7 -347.65 M68.85 -347.65 L68.85 -347.5 M66.1 -372.75 Q64.6 -377.45 60.6 -372.4 L60.1 -370.4 60.95 -367.25 M37.1 -343.25 L32.85 -339.9 32.1 -339.0 30.85 -337.15 31.7 -334.4 32.95 -335.0 34.1 -336.9 35.1 -339.25 M34.1 -336.9 L34.2 -336.9 M32.95 -323.75 L28.35 -325.4 21.7 -328.65 19.85 -329.65 16.45 -331.25 14.4 -332.3 -1.8 -339.4 M32.1 -339.0 L24.95 -333.15 19.85 -329.65 M21.7 -328.65 L27.7 -334.65 30.85 -337.15 M1.45 -299.4 L-41.8 -361.4 -43.65 -365.15 Q-43.15 -365.85 -39.15 -364.25 L-24.3 -356.25 13.1 -333.0 14.4 -332.3 M1.6 -299.15 L1.6 -299.25 1.45 -299.25 1.6 -299.15 4.35 -293.4 7.95 -287.0 11.1 -283.0 11.95 -281.65 12.85 -280.75 M1.45 -299.25 L1.45 -299.4 -2.55 -307.4 -9.65 -318.4 -15.8 -331.75 -16.8 -334.5 -16.65 -335.5 -16.15 -335.75 -14.3 -336.0 -13.8 -335.75 -13.15 -336.15 -8.55 -335.15 -2.05 -331.75 16.45 -320.25 Q18.6 -318.9 30.2 -315.5 L35.7 -313.15 39.35 -310.9 M74.35 -328.65 L74.2 -334.15 77.6 -325.9 M57.7 -331.75 Q54.8 -338.55 49.95 -331.75 48.6 -327.2 52.7 -324.9 58.2 -324.95 57.7 -331.75 M11.95 -281.65 Q3.0 -277.55 4.35 -293.4 M24.1 -120.75 L22.85 -120.5 15.35 -119.75 2.6 -120.5 -23.65 -123.9 -31.8 -124.25 -32.3 -124.5 -33.15 -125.0 M41.6 -122.25 L41.85 -120.5 41.95 -116.4 40.45 -108.9 37.7 -102.65 Q32.4 -95.65 31.85 -96.15 L28.85 -93.4 Q24.25 -89.85 20.45 -88.0 L12.85 -83.75 Q4.95 -80.2 2.6 -79.9 -27.05 -70.9 -52.65 -79.9 -58.4 -81.1 -66.15 -85.0 L-73.3 -89.9 -79.55 -96.15 -80.4 -96.75 -83.8 -101.15 -89.1 -109.4 M12.1 77.6 L11.7 77.85 M1.35 92.85 L0.45 93.6 M13.7 94.0 L13.3 94.2 M-92.4 -115.15 L-98.9 -128.65 -102.05 -136.75 -104.4 -144.9 Q-105.5 -149.7 -104.3 -151.25 L-102.05 -153.0 -98.65 -153.25 -94.05 -151.65 Q-86.5 -147.3 -84.15 -144.9 L-76.15 -136.75 -74.3 -134.4 -74.25 -134.45 M-62.05 -123.6 L-61.65 -123.4 -59.65 -123.5 M-32.3 -124.5 L-32.4 -126.65 -33.4 -127.65 Q-34.1 -128.75 -36.55 -125.4 L-37.65 -120.75 -37.8 -120.5 -40.3 -121.4 -43.4 -123.4 M-37.4 -120.5 L-33.15 -119.15 M-152.4 -157.25 L-150.8 -153.0 -150.05 -150.0 M-125.9 -155.0 L-124.05 -148.25 M-102.05 -77.75 L-104.8 -68.5 M-57.95 55.1 L-58.1 55.05 -59.05 55.35 -59.9 56.5 -58.55 59.25 Q-57.25 64.45 -45.15 94.25 -44.65 93.4 -40.65 113.35 L-38.4 117.75 -31.4 113.0 Q-20.6 110.0 -17.05 106.5 L-16.8 106.25 Q-11.15 90.55 -5.55 87.6 L-11.65 85.85 -13.9 84.85 -14.3 84.1 -13.8 82.1 -11.8 80.0 -5.9 76.0 -5.4 75.35 -5.9 74.6 -35.9 65.75 Q-45.0 62.95 -54.3 56.75 L-54.8 57.5 -55.55 57.35 -57.95 55.1 -58.05 55.0 -58.1 55.05 M-57.95 55.1 L-57.4 55.25 M-70.9 51.75 L-64.9 56.85 -62.9 58.0 -61.3 57.75 -59.9 56.5 M-70.9 51.75 L-71.15 51.5 M-71.05 51.75 L-70.9 51.75 M-5.55 87.6 L-5.8 88.25 -6.45 89.1 -6.7 89.25 M2.2 92.1 L-2.05 88.85 -5.55 87.6 M-4.9 98.75 L-5.3 98.85 M-78.15 37.25 L-54.3 56.75 M-8.8 99.5 L-8.65 99.85 M-7.4 102.0 L-7.3 102.6 M-38.4 117.75 L-45.4 123.25 -46.9 125.1 -46.65 126.75 -45.65 127.35 -36.9 129.0 Q-30.35 130.55 -29.55 131.35 L-26.4 133.1 Q-22.4 138.9 -22.9 139.5 L-20.3 147.6 Q-17.1 162.2 -10.15 149.85" fill="none" stroke="#000000" stroke-linecap="round" stroke-linejoin="round" stroke-width="2.15"/>
  </g>
</svg>
