<?xml version="1.0" encoding="UTF-8" standalone="no"?>
<svg xmlns:xlink="http://www.w3.org/1999/xlink" height="556.7px" width="287.8px" xmlns="http://www.w3.org/2000/svg">
  <g transform="matrix(1.0, 0.0, 0.0, 1.0, 200.4, 385.3)">
    <path d="M44.7 -376.0 L55.1 -384.25 Q58.85 -384.4 55.6 -380.5 L54.1 -378.65 53.85 -379.4 52.85 -379.5 50.2 -378.4 Q49.65 -378.6 48.35 -375.0 L48.7 -373.25 48.35 -375.0 Q49.65 -378.6 50.2 -378.4 L52.85 -379.5 53.85 -379.4 54.1 -378.65 Q58.9 -362.2 73.95 -325.0 L76.35 -316.65 77.6 -307.4 77.7 -299.25 75.7 -286.0 74.85 -284.75 73.6 -284.4 Q68.9 -285.8 71.45 -291.15 L73.2 -299.25 73.7 -307.4 71.95 -320.75 67.6 -330.9 62.45 -342.0 57.95 -352.15 57.85 -352.25 57.85 -352.4 48.7 -373.25 22.35 -346.4 22.1 -346.0 17.85 -341.75 8.35 -333.0 17.85 -341.75 22.1 -346.0 22.35 -346.4 24.45 -346.5 22.2 -339.9 21.2 -333.4 21.7 -328.25 16.85 -329.5 8.35 -333.0 Q5.1 -333.4 4.9 -334.0 4.8 -334.25 5.1 -334.5 L11.6 -342.15 24.6 -356.15 44.7 -376.0 24.6 -356.15 11.6 -342.15 Q22.5 -357.7 44.7 -376.0 M-0.55 -287.65 Q-8.85 -281.4 -7.4 -298.65 L-3.05 -291.15 -0.55 -287.65 M17.85 -341.75 L18.2 -341.65 18.6 -340.15 19.7 -340.9 22.1 -346.0 19.7 -340.9 18.6 -340.15 18.2 -341.65 17.85 -341.75" fill="#43396f" fill-rule="evenodd" stroke="none"/>
    <path d="M57.85 -352.4 L57.85 -352.25 57.95 -352.15 62.45 -342.0 62.95 -339.9 63.2 -334.5 62.85 -333.15 58.6 -331.75 Q53.95 -330.9 41.35 -324.0 20.15 -324.9 21.7 -328.25 L21.2 -333.4 22.2 -339.9 24.45 -346.5 Q36.75 -366.2 53.85 -356.15 L57.85 -352.4 M42.2 -339.9 Q37.9 -339.2 39.35 -331.75 40.75 -327.5 45.95 -331.75 48.35 -338.2 43.7 -339.9 L42.2 -339.9" fill="#ff7a16" fill-rule="evenodd" stroke="none"/>
    <path d="M5.1 -334.5 Q4.8 -334.25 4.9 -334.0 5.1 -333.4 8.35 -333.0 L16.85 -329.5 21.7 -328.25 Q20.15 -324.9 41.35 -324.0 L42.35 -323.65 44.2 -322.75 44.45 -322.5 43.85 -321.5 Q39.1 -318.7 38.85 -319.15 L29.6 -313.9 26.85 -315.5 20.45 -318.15 Q9.65 -320.9 4.6 -323.65 L-9.55 -331.75 -19.55 -336.9 Q-20.65 -337.7 -25.3 -338.25 L-26.05 -337.9 -28.15 -338.15 -29.15 -337.5 -29.05 -336.15 -20.55 -319.5 -11.9 -307.4 -8.65 -300.9 -32.65 -333.15 -56.55 -364.15 Q-62.25 -370.1 -49.15 -364.25 L-33.65 -356.5 5.1 -334.5 M4.2 91.6 L-1.3 95.85 -1.4 96.3 Q-1.8 97.5 -3.4 99.25 L-4.65 101.6 -5.15 103.5 -3.65 110.0 1.95 126.6 Q2.5 128.7 10.35 141.85 L15.95 156.25 17.2 161.75 Q17.75 165.6 14.6 163.5 L2.2 150.0 -1.05 147.6 Q-3.1 144.75 -8.9 152.85 -1.9 162.1 -5.4 160.85 L-9.3 160.35 Q-19.1 156.8 -24.15 156.0 L-29.05 155.85 -32.55 158.0 -34.4 160.25 -39.9 169.25 -41.55 170.35 -43.55 170.35 -44.15 170.0 Q-50.8 158.7 -51.9 158.5 L-55.15 156.85 -60.65 157.75 Q-76.8 165.3 -76.9 163.6 -81.0 161.6 -57.3 136.6 L-57.15 136.5 -57.15 136.35 -56.9 136.1 -56.9 136.0 -56.65 135.6 -56.55 135.5 -55.9 134.35 -55.8 134.25 -55.8 134.1 -55.65 134.0 -55.65 133.85 -55.55 133.75 Q-47.55 117.9 -49.05 115.85 L-49.05 115.35 Q-45.4 112.9 -69.8 54.25 L-68.65 54.75 -61.4 60.35 -59.8 60.1 -58.4 58.85 -51.05 78.85 -44.3 95.75 Q-39.4 120.4 -37.55 120.35 L-28.55 113.85 Q-19.25 111.25 -14.65 107.1 L-14.55 107.0 -12.65 103.35 -10.05 95.75 -9.8 92.6 Q-9.85 91.6 -5.65 87.1 L0.2 88.85 3.2 90.75 4.2 91.6 M21.85 -326.75 L18.45 -327.9 7.7 -332.75 18.45 -327.9 21.85 -326.75 M-3.4 99.25 L-4.65 99.75 -4.65 99.85 -6.4 100.1 -7.6 99.8 -7.8 99.75 -7.9 99.6 -8.05 99.5 -8.55 98.85 -10.05 95.75 -8.55 98.85 -8.05 99.5 -7.9 99.6 -7.8 99.75 -7.6 99.8 -6.4 100.1 -4.65 99.85 -4.65 99.75 -3.4 99.25 M-7.7 100.15 L-7.6 99.8 -7.7 100.15 -5.15 103.5 -7.7 100.15 -7.9 99.85 -7.7 100.15 M-7.8 99.75 L-7.9 99.85 -7.9 99.6 -7.9 99.85 -7.8 99.75 M-2.9 97.35 L-1.4 96.3 -2.9 97.35 M-20.8 138.75 L-23.65 134.25 Q-25.45 133.4 -27.3 132.5 L-27.4 132.35 -27.4 132.5 -27.4 132.35 -27.3 132.5 -27.4 132.5 -20.8 138.75 -20.8 138.85 -20.65 139.0 -20.4 139.5 -15.55 153.75 -14.9 155.0 -13.15 156.25 -12.15 156.25 -11.4 155.75 -8.9 152.85 -11.4 155.75 -12.15 156.25 -13.15 156.25 -14.9 155.0 -15.55 153.75 -20.4 139.5 -20.65 139.0 -20.8 138.85 -20.8 138.75 M-37.55 120.35 L-41.15 123.25 Q-44.0 125.6 -44.55 127.0 L-44.15 128.6 -41.3 129.6 Q-31.0 130.75 -30.4 131.35 L-27.65 132.25 -27.55 132.35 -27.4 132.35 -27.55 132.35 -27.65 132.25 -30.4 131.35 Q-31.0 130.75 -41.3 129.6 L-44.15 128.6 -44.55 127.0 Q-44.0 125.6 -41.15 123.25 L-37.55 120.35 M-13.15 -341.5 L4.9 -334.0 -13.15 -341.5 M-49.05 115.85 L-48.9 115.35 -49.05 115.35 -48.9 115.35 -49.05 115.85" fill="#fa410f" fill-rule="evenodd" stroke="none"/>
    <path d="M76.35 -316.65 Q89.9 -281.5 74.7 -249.4 72.5 -244.9 63.1 -235.4 L51.6 -228.25 39.7 -224.4 27.1 -222.25 24.35 -220.9 Q20.65 -217.15 19.7 -214.9 L18.7 -210.75 Q17.35 -198.4 19.95 -189.5 L21.1 -186.75 23.45 -183.15 Q36.0 -171.35 46.35 -153.25 L55.7 -134.9 Q61.7 -122.85 68.2 -105.0 L76.7 -77.4 81.85 -50.4 85.45 -21.0 86.35 6.85 83.6 28.0 75.45 44.0 63.85 55.6 51.1 64.1 Q24.35 78.9 14.1 77.0 L14.2 78.35 Q20.2 92.85 19.2 94.35 17.9 95.45 15.9 93.15 L15.85 93.1 13.2 96.75 11.7 97.1 10.95 96.75 4.2 91.6 3.2 90.75 0.2 88.85 -5.65 87.1 Q-19.3 86.85 -3.4 75.1 -45.25 66.55 -53.8 58.75 L-53.9 58.6 -54.05 58.6 -54.15 58.5 -54.3 58.5 -54.15 58.5 -54.05 58.6 -53.9 58.6 -53.8 58.75 -53.9 58.75 -54.05 58.6 -54.15 58.6 -54.15 58.5 -54.15 58.6 -54.3 58.5 -54.4 58.35 -56.65 56.85 -73.3 44.5 -77.65 40.6 Q-106.8 15.55 -113.4 -13.75 -122.05 -52.9 -102.15 -78.0 L-102.05 -78.0 Q-96.0 -95.85 -87.65 -110.9 L-87.7 -110.95 -88.65 -112.65 Q-129.1 -103.9 -161.3 -120.15 -180.8 -135.9 -195.8 -165.15 -206.25 -188.75 -185.9 -177.4 -175.25 -170.8 -160.8 -154.65 L-156.65 -152.5 -159.15 -163.5 Q-160.1 -167.75 -158.8 -170.5 -153.85 -176.65 -148.15 -169.25 -137.8 -152.8 -130.4 -150.75 L-130.3 -150.75 Q-132.0 -170.1 -122.9 -161.15 L-121.55 -158.9 -118.8 -156.0 -113.65 -154.0 -105.15 -151.5 Q-104.75 -158.25 -94.05 -153.0 L-88.55 -149.4 -83.05 -144.9 -71.4 -142.25 -68.3 -141.9 -64.3 -147.4 Q-48.0 -166.45 -34.9 -183.25 L-26.65 -194.75 -22.9 -200.65 Q-6.75 -230.45 -3.8 -245.0 L-3.65 -245.15 -3.55 -245.9 -3.4 -246.0 0.35 -263.15 Q2.0 -279.7 3.45 -283.0 L3.35 -283.15 3.45 -283.15 4.35 -285.65 8.7 -293.75 16.45 -302.75 29.6 -313.9 38.85 -319.15 Q39.1 -318.7 43.85 -321.5 L44.45 -322.5 44.2 -322.75 42.35 -323.65 41.35 -324.0 Q53.95 -330.9 58.6 -331.75 L62.85 -333.15 63.2 -334.5 65.2 -333.25 67.6 -330.9 71.95 -320.75 73.7 -307.4 73.2 -299.25 71.45 -291.15 Q68.9 -285.8 73.6 -284.4 L74.85 -284.75 75.7 -286.0 77.7 -299.25 77.6 -307.4 76.35 -316.65 M-69.8 54.25 Q-70.65 52.2 -83.55 49.25 -84.15 48.25 -82.3 45.25 L-77.65 40.6 -73.3 44.5 -56.65 56.85 -58.4 58.85 -59.8 60.1 -61.4 60.35 -68.65 54.75 -69.8 54.25 M3.45 -283.0 L3.45 -283.15 3.45 -283.0 M-87.65 -110.9 L-77.9 -96.15 -74.65 -92.0 -65.8 -83.25 -60.9 -79.9 Q-59.1 -78.35 -51.55 -75.0 L-41.3 -71.75 -33.3 -69.75 -24.4 -68.5 Q-10.75 -68.2 -3.3 -69.65 L4.45 -71.75 12.45 -75.0 Q18.65 -78.35 20.1 -79.9 L26.35 -84.65 34.95 -94.0 38.95 -100.75 41.6 -109.75 41.6 -115.75 40.45 -120.15 41.6 -115.75 41.6 -109.75 38.95 -100.75 34.95 -94.0 26.35 -84.65 20.1 -79.9 Q18.65 -78.35 12.45 -75.0 L4.45 -71.75 -3.3 -69.65 Q-10.75 -68.2 -24.4 -68.5 L-33.3 -69.75 -41.3 -71.75 -51.55 -75.0 Q-59.1 -78.35 -60.9 -79.9 L-65.8 -83.25 -74.65 -92.0 -77.9 -96.15 -87.65 -110.9 M23.95 -116.65 L23.65 -116.6 23.1 -116.5 Q8.6 -114.15 -20.55 -120.5 L-28.3 -121.65 Q-30.0 -121.35 -31.9 -126.75 -34.05 -128.65 -35.65 -120.5 L-35.65 -117.75 -39.15 -120.0 -35.65 -117.75 -35.65 -120.5 Q-34.05 -128.65 -31.9 -126.75 -30.0 -121.35 -28.3 -121.65 L-20.55 -120.5 Q8.6 -114.15 23.1 -116.5 L23.65 -116.6 23.95 -116.65 M16.45 93.1 L15.9 93.15 16.45 93.1 M-73.55 -135.0 L-83.05 -144.9 -73.55 -135.0 -68.3 -141.9 -73.55 -135.0 -68.05 -128.65 Q-68.0 -127.85 -62.65 -123.25 L-60.15 -121.7 -61.3 -128.65 -61.55 -133.65 -61.3 -136.0 -60.8 -136.75 Q-58.0 -141.55 -52.9 -136.75 L-51.15 -135.15 -42.9 -123.9 -39.55 -120.5 -39.55 -120.25 -39.55 -120.5 -42.9 -123.9 -51.15 -135.15 -52.9 -136.75 Q-58.0 -141.55 -60.8 -136.75 L-61.3 -136.0 -61.55 -133.65 -61.3 -128.65 -60.15 -121.7 -62.65 -123.25 Q-68.0 -127.85 -68.05 -128.65 L-73.55 -135.0 M-104.9 -69.0 L-102.05 -77.75 -102.15 -78.0 -102.05 -77.75 -102.05 -78.0 -102.05 -77.75 -104.9 -69.0 M-129.9 -145.9 L-129.8 -147.9 -130.3 -150.75 -129.8 -147.9 -129.9 -145.9 M-156.15 -149.0 L-156.65 -152.5 -156.15 -149.0 M-105.15 -151.5 L-105.15 -149.75 -103.9 -144.9 -101.05 -136.75 -97.4 -128.65 -88.65 -112.65 -97.4 -128.65 -101.05 -136.75 -103.9 -144.9 -105.15 -149.75 -105.15 -151.5 M-35.65 -117.75 L-34.9 -117.15 -28.8 -114.75 -34.9 -117.15 -35.65 -117.75 M-56.05 -119.15 L-60.15 -121.7 -56.05 -119.15 M-53.9 58.6 L-53.9 58.75 -53.9 58.6" fill="#ffffff" fill-rule="evenodd" stroke="none"/>
    <path d="M3.35 -283.15 L-0.55 -287.65 -3.05 -291.15 -7.4 -298.65 -8.65 -300.9 -11.9 -307.4 -20.55 -319.5 -29.05 -336.15 -29.15 -337.5 -28.15 -338.15 -26.05 -337.9 -25.3 -338.25 Q-20.65 -337.7 -19.55 -336.9 L-9.55 -331.75 4.6 -323.65 Q9.65 -320.9 20.45 -318.15 L26.85 -315.5 29.6 -313.9 16.45 -302.75 8.7 -293.75 4.35 -285.65 3.45 -283.15 3.35 -283.15" fill="#fa420e" fill-rule="evenodd" stroke="none"/>
    <path d="M42.2 -339.9 L43.7 -339.9 Q48.35 -338.2 45.95 -331.75 40.75 -327.5 39.35 -331.75 37.9 -339.2 42.2 -339.9" fill="#000000" fill-rule="evenodd" stroke="none"/>
    <path d="M54.1 -378.65 L55.6 -380.5 Q58.85 -384.4 55.1 -384.25 L44.7 -376.0 24.6 -356.15 11.6 -342.15 5.1 -334.5 Q4.8 -334.25 4.9 -334.0 5.1 -333.4 8.35 -333.0 L17.85 -341.75 22.1 -346.0 22.35 -346.4 48.7 -373.25 48.35 -375.0 Q49.65 -378.6 50.2 -378.4 L52.85 -379.5 53.85 -379.4 54.1 -378.65 Q58.9 -362.2 73.95 -325.0 L76.35 -316.65 Q89.9 -281.5 74.7 -249.4 72.5 -244.9 63.1 -235.4 L51.6 -228.25 39.7 -224.4 27.1 -222.25 24.35 -220.9 Q20.65 -217.15 19.7 -214.9 L18.7 -210.75 Q17.35 -198.4 19.95 -189.5 L21.1 -186.75 23.45 -183.15 Q36.0 -171.35 46.35 -153.25 L55.7 -134.9 Q61.7 -122.85 68.2 -105.0 L76.7 -77.4 81.85 -50.4 85.45 -21.0 86.35 6.85 83.6 28.0 75.45 44.0 63.85 55.6 51.1 64.1 Q24.35 78.9 14.1 77.0 L14.2 78.35 Q20.2 92.85 19.2 94.35 17.9 95.45 15.9 93.15 L15.85 93.1 13.2 96.75 11.7 97.1 10.95 96.75 4.2 91.6 -1.3 95.85 -1.4 96.3 Q-1.8 97.5 -3.4 99.25 L-4.65 101.6 -5.15 103.5 -3.65 110.0 1.95 126.6 Q2.5 128.7 10.35 141.85 L15.95 156.25 17.2 161.75 Q17.75 165.6 14.6 163.5 L2.2 150.0 -1.05 147.6 Q-3.1 144.75 -8.9 152.85 -1.9 162.1 -5.4 160.85 L-9.3 160.35 Q-19.1 156.8 -24.15 156.0 L-29.05 155.85 -32.55 158.0 -34.4 160.25 -39.9 169.25 -41.55 170.35 -43.55 170.35 -44.15 170.0 Q-50.8 158.7 -51.9 158.5 L-55.15 156.85 -60.65 157.75 Q-76.8 165.3 -76.9 163.6 -81.0 161.6 -57.3 136.6 L-57.15 136.5 -57.15 136.35 -56.9 136.1 -56.9 136.0 -56.65 135.6 -56.55 135.5 -55.9 134.35 -55.8 134.25 -55.8 134.1 -55.65 134.0 -55.65 133.85 -55.55 133.75 Q-47.55 117.9 -49.05 115.85 L-49.05 115.35 Q-45.4 112.9 -69.8 54.25 -70.65 52.2 -83.55 49.25 -84.15 48.25 -82.3 45.25 L-77.65 40.6 Q-106.8 15.55 -113.4 -13.75 -122.05 -52.9 -102.15 -78.0 L-102.05 -78.0 Q-96.0 -95.85 -87.65 -110.9 L-87.7 -110.95 -88.65 -112.65 Q-129.1 -103.9 -161.3 -120.15 -180.8 -135.9 -195.8 -165.15 -206.25 -188.75 -185.9 -177.4 -175.25 -170.8 -160.8 -154.65 L-156.65 -152.5 -159.15 -163.5 Q-160.1 -167.75 -158.8 -170.5 -153.85 -176.65 -148.15 -169.25 -137.8 -152.8 -130.4 -150.75 L-130.3 -150.75 Q-132.0 -170.1 -122.9 -161.15 L-121.55 -158.9 -118.8 -156.0 -113.65 -154.0 -105.15 -151.5 Q-104.75 -158.25 -94.05 -153.0 L-88.55 -149.4 -83.05 -144.9 -71.4 -142.25 -68.3 -141.9 -64.3 -147.4 Q-48.0 -166.45 -34.9 -183.25 L-26.65 -194.75 -22.9 -200.65 Q-6.75 -230.45 -3.8 -245.0 L-3.65 -245.15 -3.55 -245.9 -3.4 -246.0 0.35 -263.15 Q2.0 -279.7 3.45 -283.0 L3.35 -283.15 -0.55 -287.65 Q-8.85 -281.4 -7.4 -298.65 L-8.65 -300.9 -32.65 -333.15 -56.55 -364.15 Q-62.25 -370.1 -49.15 -364.25 L-33.65 -356.5 5.1 -334.5 M57.85 -352.4 L57.85 -352.25 57.95 -352.15 62.45 -342.0 67.6 -330.9 71.95 -320.75 73.7 -307.4 73.2 -299.25 71.45 -291.15 Q68.9 -285.8 73.6 -284.4 L74.85 -284.75 75.7 -286.0 77.7 -299.25 77.6 -307.4 76.35 -316.65 M24.45 -346.5 Q36.75 -366.2 53.85 -356.15 L57.85 -352.4 48.7 -373.25 M22.35 -346.4 L24.45 -346.5 22.2 -339.9 21.2 -333.4 21.7 -328.25 Q20.15 -324.9 41.35 -324.0 53.95 -330.9 58.6 -331.75 L62.85 -333.15 63.2 -334.5 62.95 -339.9 62.45 -342.0 M22.1 -346.0 L19.7 -340.9 18.6 -340.15 18.2 -341.65 17.85 -341.75 M21.7 -328.25 L16.85 -329.5 8.35 -333.0 M7.7 -332.75 L18.45 -327.9 21.85 -326.75 M-8.65 -300.9 L-11.9 -307.4 -20.55 -319.5 -29.05 -336.15 -29.15 -337.5 -28.15 -338.15 -26.05 -337.9 -25.3 -338.25 Q-20.65 -337.7 -19.55 -336.9 L-9.55 -331.75 4.6 -323.65 Q9.65 -320.9 20.45 -318.15 L26.85 -315.5 29.6 -313.9 38.85 -319.15 Q39.1 -318.7 43.85 -321.5 L44.45 -322.5 44.2 -322.75 42.35 -323.65 41.35 -324.0 M29.6 -313.9 L16.45 -302.75 8.7 -293.75 4.35 -285.65 3.45 -283.15 3.45 -283.0 M67.6 -330.9 L65.2 -333.25 63.2 -334.5 M42.2 -339.9 Q37.9 -339.2 39.35 -331.75 40.75 -327.5 45.95 -331.75 48.35 -338.2 43.7 -339.9 L42.2 -339.9 M44.7 -376.0 Q22.5 -357.7 11.6 -342.15 M3.45 -283.15 L3.35 -283.15 M-39.15 -120.0 L-35.65 -117.75 -35.65 -120.5 Q-34.05 -128.65 -31.9 -126.75 -30.0 -121.35 -28.3 -121.65 L-20.55 -120.5 Q8.6 -114.15 23.1 -116.5 L23.65 -116.6 23.95 -116.65 M40.45 -120.15 L41.6 -115.75 41.6 -109.75 38.95 -100.75 34.95 -94.0 26.35 -84.65 20.1 -79.9 Q18.65 -78.35 12.45 -75.0 L4.45 -71.75 -3.3 -69.65 Q-10.75 -68.2 -24.4 -68.5 L-33.3 -69.75 -41.3 -71.75 -51.55 -75.0 Q-59.1 -78.35 -60.9 -79.9 L-65.8 -83.25 -74.65 -92.0 -77.9 -96.15 -87.65 -110.9 M4.2 91.6 L3.2 90.75 0.2 88.85 -5.65 87.1 Q-9.85 91.6 -9.8 92.6 L-10.05 95.75 -8.55 98.85 -8.05 99.5 -7.9 99.6 -7.8 99.75 -7.6 99.8 -6.4 100.1 -4.65 99.85 -4.65 99.75 -3.4 99.25 M15.9 93.15 L16.45 93.1 M-0.55 -287.65 L-3.05 -291.15 -7.4 -298.65 M-68.3 -141.9 L-73.55 -135.0 -68.05 -128.65 Q-68.0 -127.85 -62.65 -123.25 L-60.15 -121.7 -61.3 -128.65 -61.55 -133.65 -61.3 -136.0 -60.8 -136.75 Q-58.0 -141.55 -52.9 -136.75 L-51.15 -135.15 -42.9 -123.9 -39.55 -120.5 -39.55 -120.25 M-60.15 -121.7 L-56.05 -119.15 M-28.8 -114.75 L-34.9 -117.15 -35.65 -117.75 M-88.65 -112.65 L-97.4 -128.65 -101.05 -136.75 -103.9 -144.9 -105.15 -149.75 -105.15 -151.5 M-156.65 -152.5 L-156.15 -149.0 M-130.3 -150.75 L-129.8 -147.9 -129.9 -145.9 M-102.15 -78.0 L-102.05 -77.75 -102.05 -78.0 M-102.05 -77.75 L-104.9 -69.0 M-83.05 -144.9 L-73.55 -135.0 M-77.65 40.6 L-73.3 44.5 -56.65 56.85 -54.4 58.35 -54.3 58.5 -54.15 58.5 -54.05 58.6 -53.9 58.6 -53.8 58.75 Q-45.25 66.55 -3.4 75.1 -19.3 86.85 -5.65 87.1 M-58.4 58.85 L-59.8 60.1 -61.4 60.35 -68.65 54.75 -69.8 54.25 M-56.65 56.85 L-58.4 58.85 -51.05 78.85 -44.3 95.75 Q-39.4 120.4 -37.55 120.35 L-28.55 113.85 Q-19.25 111.25 -14.65 107.1 L-14.55 107.0 -12.65 103.35 -10.05 95.75 M-54.15 58.5 L-54.15 58.6 -54.05 58.6 -53.9 58.75 -53.9 58.6 M-54.15 58.6 L-54.3 58.5 M-53.8 58.75 L-53.9 58.75 M-1.4 96.3 L-2.9 97.35 M-7.9 99.6 L-7.9 99.85 -7.8 99.75 M-5.15 103.5 L-7.7 100.15 -7.9 99.85 M-7.6 99.8 L-7.7 100.15 M-27.3 132.5 Q-25.45 133.4 -23.65 134.25 L-20.8 138.75 -20.8 138.85 -20.65 139.0 -20.4 139.5 -15.55 153.75 -14.9 155.0 -13.15 156.25 -12.15 156.25 -11.4 155.75 -8.9 152.85 M-27.3 132.5 L-27.4 132.35 -27.4 132.5 -27.3 132.5 M-27.4 132.35 L-27.55 132.35 -27.65 132.25 -30.4 131.35 Q-31.0 130.75 -41.3 129.6 L-44.15 128.6 -44.55 127.0 Q-44.0 125.6 -41.15 123.25 L-37.55 120.35 M-20.8 138.75 L-27.4 132.5 M-49.05 115.35 L-48.9 115.35 -49.05 115.85 M4.9 -334.0 L-13.15 -341.5" fill="none" stroke="#000000" stroke-linecap="round" stroke-linejoin="round" stroke-width="2.15"/>
  </g>
</svg>
