<?xml version="1.0" encoding="UTF-8" standalone="no"?>
<svg xmlns:xlink="http://www.w3.org/1999/xlink" height="564.5px" width="304.2px" xmlns="http://www.w3.org/2000/svg">
  <g transform="matrix(1.0, 0.0, 0.0, 1.0, 216.95, 389.85)">
    <path d="M-34.4 -334.5 L-32.8 -337.5 -32.65 -337.65 -32.4 -338.25 -32.3 -338.4 -32.3 -338.5 -31.4 -340.25 -31.4 -340.4 -31.3 -340.5 -31.3 -340.65 -31.15 -340.75 -31.15 -340.9 -31.05 -341.0 -22.05 -358.0 Q-18.6 -363.9 -13.4 -370.25 L-6.55 -377.0 5.85 -386.9 Q9.1 -389.2 9.35 -388.75 L11.35 -388.65 11.6 -388.15 10.95 -385.25 9.2 -382.25 Q10.9 -382.55 12.85 -378.75 L37.85 -334.4 40.85 -328.5 44.6 -318.4 45.35 -315.5 46.7 -307.4 47.2 -299.25 47.1 -293.4 46.6 -291.15 Q43.1 -288.65 42.1 -291.15 L41.6 -292.0 41.6 -294.65 42.1 -299.25 42.2 -307.4 41.1 -315.5 37.85 -327.0 29.95 -339.75 21.35 -353.25 21.2 -353.25 21.2 -353.5 20.95 -353.9 20.85 -353.9 19.7 -355.75 19.7 -355.9 19.45 -356.15 19.45 -356.25 19.2 -356.65 18.95 -356.9 18.95 -357.0 18.85 -357.15 5.95 -377.0 -1.9 -364.0 -7.3 -356.15 -17.65 -343.15 -22.3 -338.4 -23.55 -332.25 -28.05 -332.9 -29.55 -331.75 Q-31.2 -330.45 -32.3 -330.25 L-33.35 -330.4 -33.6 -330.6 Q-34.05 -330.95 -34.3 -331.75 L-33.9 -334.4 -34.4 -334.5 M-41.05 -293.5 Q-47.15 -284.95 -46.3 -300.15 L-45.3 -299.4 -45.15 -299.25 -41.05 -293.5 M2.9 -383.1 Q6.8 -385.85 6.85 -384.9 6.85 -384.1 3.95 -380.5 L-8.55 -360.4 -18.3 -348.0 -25.9 -339.9 Q-29.45 -336.3 -30.75 -335.45 L-31.1 -335.3 -31.3 -335.2 -31.55 -335.5 -30.35 -339.3 -30.15 -338.75 -30.35 -339.3 -31.55 -335.5 -31.3 -335.2 -31.1 -335.3 -30.75 -335.45 Q-29.45 -336.3 -25.9 -339.9 L-18.3 -348.0 -8.55 -360.4 3.95 -380.5 Q6.85 -384.1 6.85 -384.9 L6.35 -384.25 6.85 -384.9 Q6.8 -385.85 2.9 -383.1 L3.85 -383.4 2.9 -383.1 2.15 -382.55 3.1 -382.9 2.15 -382.55 2.9 -383.1 M1.65 -382.2 L2.15 -382.55 1.65 -382.2 2.2 -382.25 1.65 -382.2 1.3 -381.95 1.7 -381.9 1.3 -381.95 1.65 -382.2 M-8.4 -373.5 L-9.65 -372.5 -12.6 -369.2 -10.05 -372.4 -8.05 -374.15 -7.9 -374.15 -7.8 -374.25 -7.55 -374.5 -7.5 -374.55 -7.4 -374.75 -7.35 -374.8 -6.9 -375.15 -6.8 -375.25 -0.9 -380.05 -0.7 -380.3 -0.35 -380.55 1.15 -381.85 1.3 -381.95 1.15 -381.85 -0.35 -380.55 -0.7 -380.3 -0.9 -380.05 -6.8 -375.25 -6.9 -375.15 -7.35 -374.8 -7.4 -374.75 -7.5 -374.55 -7.55 -374.5 -7.8 -374.25 -7.9 -374.15 -8.05 -374.15 -10.05 -372.4 -12.6 -369.2 -9.65 -372.5 -8.4 -373.5 M9.2 -382.25 L7.85 -381.5 7.1 -380.5 5.95 -377.0 7.1 -380.5 7.85 -381.5 9.2 -382.25 M-32.8 -337.5 L-32.65 -337.5 -33.9 -334.4 -32.65 -337.5 -32.8 -337.5 M20.95 -353.9 L19.7 -355.75 20.95 -353.9 M21.35 -353.25 L21.2 -353.5 21.35 -353.25 M-18.85 -360.65 L-18.7 -360.9 -18.75 -360.8 -18.85 -360.65 -23.85 -352.15 -23.9 -352.05 -24.4 -351.0 -25.05 -349.75 -25.1 -349.65 -26.55 -346.9 -29.2 -341.7 -29.7 -340.7 -30.15 -339.9 -30.35 -339.3 -30.15 -339.9 -29.7 -340.7 -29.2 -341.7 -26.55 -346.9 -25.1 -349.65 -25.05 -349.75 -24.4 -351.0 -23.9 -352.05 -23.85 -352.15 -18.85 -360.65 -18.75 -360.8 -18.7 -360.9 -16.05 -364.9 -16.0 -364.95 -15.65 -365.4 -15.6 -365.45 -14.25 -367.1 -14.2 -367.15 -12.6 -369.2 -14.2 -367.15 -14.25 -367.1 -15.6 -365.45 -15.65 -365.4 -16.0 -364.95 -16.05 -364.9 -18.7 -360.9 -18.85 -360.65 M-24.4 -351.0 L-24.1 -351.3 -23.9 -352.05 -24.1 -351.3 -24.4 -351.0 M-6.8 -375.25 L-0.65 -380.5 1.15 -381.85 -0.65 -380.5 -6.8 -375.25 M-8.05 -374.15 L-7.65 -374.5 -7.8 -374.25 -7.65 -374.5 -8.05 -374.15 M-7.5 -374.55 L-7.55 -374.5 -7.65 -374.5 -7.55 -374.65 -7.65 -374.5 -7.55 -374.5 -7.55 -374.65 -7.4 -374.75 -7.55 -374.65 -7.55 -374.5 -7.5 -374.55 M-32.65 -337.5 L-32.65 -337.65 -32.65 -337.5 M-32.3 -338.5 L-31.55 -339.75 -31.4 -340.25 -31.55 -339.75 -32.3 -338.5 M-31.3 -340.65 L-31.15 -340.65 -31.15 -340.75 -31.15 -340.65 -31.3 -340.65 M-31.05 -341.0 L-31.05 -340.9 -31.15 -340.9 -31.05 -340.9 -31.05 -341.0 M-29.2 -341.7 L-29.1 -341.15 -29.25 -340.85 -29.1 -341.15 -29.2 -341.7 M-29.65 -339.9 L-29.7 -340.7 -29.65 -339.9 M-29.9 -339.25 L-29.9 -339.75 -29.9 -339.25 M-22.3 -338.4 L-28.05 -332.9 -22.3 -338.4 M-28.8 -341.75 L-26.55 -346.9 -28.8 -341.75" fill="#43396f" fill-rule="evenodd" stroke="none"/>
    <path d="M-1.9 -364.0 L3.2 -364.75 7.1 -364.25 Q8.35 -364.85 14.6 -361.15 L18.85 -357.15 18.95 -357.0 18.95 -356.9 19.2 -356.65 19.45 -356.25 19.45 -356.15 19.7 -355.9 19.7 -355.75 20.85 -353.9 21.2 -353.5 21.2 -353.25 22.6 -350.75 24.6 -343.25 24.35 -339.9 20.1 -335.5 Q15.1 -332.9 14.6 -331.75 L4.6 -324.5 Q-6.3 -322.9 -15.15 -325.25 L-17.3 -331.75 -17.65 -334.0 -17.3 -331.75 -22.3 -332.15 -18.8 -333.9 -17.65 -334.0 -18.05 -338.15 -17.65 -343.15 -7.3 -356.15 -1.9 -364.0 M8.1 -342.9 L7.2 -343.75 5.2 -344.65 2.7 -344.0 Q0.95 -342.6 0.7 -339.9 0.15 -335.8 4.35 -334.15 8.7 -333.75 9.1 -339.9 L8.1 -342.9" fill="#ff7a16" fill-rule="evenodd" stroke="none"/>
    <path d="M44.6 -318.4 Q55.7 -289.4 46.35 -261.9 40.35 -246.65 29.85 -238.9 L26.35 -236.25 18.7 -231.65 7.95 -226.75 Q4.95 -225.35 4.45 -224.15 1.95 -221.0 -0.55 -214.4 L-1.4 -209.0 Q-1.75 -195.05 2.2 -185.0 L4.45 -180.9 6.85 -177.9 Q22.2 -165.3 33.1 -150.65 48.5 -128.9 59.7 -106.15 81.95 -56.85 86.2 -3.75 L85.1 19.35 78.1 36.1 67.95 48.85 55.6 59.35 Q45.4 66.75 36.95 71.6 L28.95 75.0 20.1 76.25 24.45 84.35 Q26.5 88.35 26.35 90.35 L26.1 90.75 25.1 90.75 23.95 90.1 23.1 90.25 20.95 94.85 19.45 96.0 16.85 95.25 9.85 90.85 9.85 90.75 Q8.25 89.55 3.95 88.6 L-1.8 88.0 Q-10.75 86.65 2.1 76.1 -42.9 76.05 -54.4 68.25 L-55.3 67.75 -56.9 68.5 Q-60.35 67.3 -61.05 66.35 L-65.9 63.5 -66.05 63.35 -66.15 63.35 -66.3 63.35 -66.3 63.25 Q-67.65 62.65 -69.05 62.0 -82.75 60.65 -80.15 59.6 L-79.65 56.85 -78.15 54.6 -91.05 44.25 Q-96.55 39.4 -103.05 31.35 -113.25 19.7 -118.65 -3.4 -127.75 -41.5 -106.05 -71.65 L-105.9 -71.75 -105.15 -72.9 -104.9 -73.15 -104.9 -73.25 -104.65 -73.5 -104.65 -73.65 -104.35 -73.95 -104.15 -74.25 -99.4 -86.65 -96.3 -93.15 -96.3 -93.4 -96.3 -93.65 -98.05 -96.15 -98.3 -96.65 -98.55 -96.65 -99.05 -96.65 -109.8 -91.75 -124.4 -86.4 -132.4 -84.25 -141.15 -82.65 Q-160.75 -79.15 -178.05 -85.15 -195.4 -92.85 -215.3 -132.25 -219.4 -153.25 -194.55 -136.75 -186.1 -130.35 -177.9 -120.65 L-174.4 -119.15 -173.55 -120.25 Q-177.6 -137.8 -173.9 -141.75 -166.85 -146.3 -161.55 -136.75 L-155.4 -127.4 -153.4 -125.0 -152.3 -124.15 -147.15 -122.5 -147.05 -122.5 -147.55 -129.4 -147.4 -130.0 Q-147.05 -142.9 -139.15 -136.75 L-136.05 -132.15 -135.15 -131.5 -116.8 -128.75 Q-83.0 -127.6 -76.4 -130.65 L-76.3 -130.75 -58.15 -159.15 -47.3 -178.15 -41.05 -191.4 -35.8 -206.5 Q-32.6 -217.1 -30.65 -228.4 L-29.05 -243.0 Q-28.15 -248.8 -29.8 -267.0 L-29.3 -281.15 -28.4 -281.25 -27.65 -283.0 -25.8 -286.0 Q-25.15 -288.7 -23.55 -291.15 L-16.65 -300.9 -6.15 -311.4 -4.4 -313.65 8.95 -321.75 10.2 -323.65 7.45 -324.65 4.6 -324.5 14.6 -331.75 Q15.1 -332.9 20.1 -335.5 L24.35 -339.9 24.6 -343.25 26.1 -342.65 29.95 -339.75 37.85 -327.0 41.1 -315.5 42.2 -307.4 42.1 -299.25 41.6 -294.65 41.6 -292.0 42.1 -291.15 Q43.1 -288.65 46.6 -291.15 L47.1 -293.4 47.2 -299.25 46.7 -307.4 45.35 -315.5 44.6 -318.4 M-96.3 -93.4 L-77.9 -69.25 -70.9 -61.15 -64.9 -55.5 -54.55 -47.4 Q-48.6 -42.2 -29.9 -39.25 L-19.15 -38.65 -13.55 -39.25 Q-0.3 -40.2 9.45 -47.4 L15.6 -51.75 19.6 -55.5 24.45 -61.0 27.7 -66.15 30.45 -71.75 35.2 -85.25 36.45 -92.0 36.6 -100.0 35.7 -104.25 32.85 -110.9 35.7 -104.25 36.6 -100.0 36.45 -92.0 35.2 -85.25 30.45 -71.75 27.7 -66.15 24.45 -61.0 19.6 -55.5 15.6 -51.75 9.45 -47.4 Q-0.3 -40.2 -13.55 -39.25 L-19.15 -38.65 -29.9 -39.25 Q-48.6 -42.2 -54.55 -47.4 L-64.9 -55.5 -70.9 -61.15 -77.9 -69.25 -96.3 -93.4 M16.85 -100.9 L13.7 -99.15 10.15 -97.9 Q5.1 -95.4 -23.4 -97.9 -28.8 -98.55 -30.15 -100.15 L-33.4 -104.25 Q-34.7 -108.05 -37.4 -104.25 L-37.8 -100.25 -36.7 -93.5 Q-38.95 -95.0 -39.9 -96.15 L-45.3 -101.15 -53.65 -110.15 -56.4 -112.4 -60.65 -114.75 Q-62.8 -115.95 -64.9 -112.4 L-65.3 -108.75 -64.3 -104.25 -59.8 -92.4 -64.65 -96.15 -83.15 -112.4 -85.95 -114.4 -76.4 -130.65 -85.95 -114.4 -83.15 -112.4 -64.65 -96.15 -59.8 -92.4 -64.3 -104.25 -65.3 -108.75 -64.9 -112.4 Q-62.8 -115.95 -60.65 -114.75 L-56.4 -112.4 -53.65 -110.15 -45.3 -101.15 -39.9 -96.15 Q-38.95 -95.0 -36.7 -93.5 L-37.8 -100.25 -37.4 -104.25 Q-34.7 -108.05 -33.4 -104.25 L-30.15 -100.15 Q-28.8 -98.55 -23.4 -97.9 5.1 -95.4 10.15 -97.9 L13.7 -99.15 16.85 -100.9 M-52.05 -88.15 L-58.3 -91.25 -59.8 -92.4 -58.3 -91.25 -52.05 -88.15 M-25.8 -88.75 L-31.55 -90.5 Q-34.7 -92.15 -36.7 -93.5 -34.7 -92.15 -31.55 -90.5 L-25.8 -88.75 M-104.35 -73.95 L-109.05 -60.5 -104.35 -73.95 M-85.95 -114.4 L-91.65 -118.4 -95.55 -120.5 Q-107.75 -127.55 -109.65 -120.5 L-108.65 -115.25 -98.55 -96.65 -108.65 -115.25 -109.65 -120.5 Q-107.75 -127.55 -95.55 -120.5 L-91.65 -118.4 -85.95 -114.4 M-147.05 -121.15 L-147.05 -122.5 -147.05 -121.15 M-55.3 67.75 L-63.3 63.75 -78.15 54.6 -63.3 63.75 -55.3 67.75 M-66.15 63.35 L-66.3 63.25 -66.15 63.35 M20.1 76.25 L2.1 76.1 20.1 76.25" fill="#ffffff" fill-rule="evenodd" stroke="none"/>
    <path d="M8.1 -342.9 L9.1 -339.9 Q8.7 -333.75 4.35 -334.15 0.15 -335.8 0.7 -339.9 0.95 -342.6 2.7 -344.0 L5.2 -344.65 7.2 -343.75 8.1 -342.9" fill="#000000" fill-rule="evenodd" stroke="none"/>
    <path d="M9.85 90.85 L7.35 93.25 1.85 97.35 1.8 97.55 0.45 100.75 -0.05 103.25 3.35 113.25 8.1 124.85 Q8.65 126.85 16.45 138.35 L20.95 147.1 25.1 157.85 25.6 161.35 24.95 162.25 23.35 161.85 20.1 159.25 9.7 149.25 5.85 147.0 3.1 147.6 0.7 150.1 -3.9 157.0 -4.8 157.75 -6.05 157.75 -7.9 156.5 Q-12.5 143.45 -14.3 140.5 L-17.55 136.35 -22.05 134.6 -31.65 133.85 Q-26.85 140.35 -13.3 152.85 L-5.05 162.35 Q1.4 169.6 -15.9 163.85 L-22.65 162.35 -28.3 161.85 Q-34.05 163.9 -39.8 172.75 L-41.15 173.6 -43.65 173.5 Q-49.75 164.65 -51.05 164.1 L-54.4 162.25 Q-55.3 161.1 -73.15 167.5 L-76.05 167.85 -76.9 167.35 Q-81.6 166.8 -55.05 142.5 L-49.3 132.75 Q-46.85 128.0 -46.65 125.25 -45.75 118.7 -48.55 109.25 -60.25 75.65 -64.65 68.35 L-66.3 63.35 -66.15 63.35 -66.05 63.35 -65.9 63.5 -61.05 66.35 Q-60.35 67.3 -56.9 68.5 L-55.3 67.75 -54.4 68.25 -48.4 85.6 -40.8 105.0 Q-39.75 106.1 -37.4 123.25 L-35.9 127.35 -25.8 118.1 Q-12.4 111.35 -9.55 107.6 L-9.15 107.25 -6.9 101.35 -5.3 102.35 -3.3 102.25 -1.75 101.45 -1.65 101.35 -0.3 103.1 Q-0.15 103.2 -0.05 103.25 -0.15 103.2 -0.3 103.1 L-1.65 101.35 -1.75 101.45 -3.3 102.25 -5.3 102.35 -6.9 101.35 Q-12.5 96.05 -1.8 88.0 L3.95 88.6 Q8.25 89.55 9.85 90.75 L9.85 90.85 M-46.3 -300.15 L-100.9 -354.0 Q-107.75 -359.7 -94.8 -356.15 L-76.15 -350.15 -41.65 -336.75 -34.4 -334.5 -33.9 -334.4 -34.3 -331.75 Q-34.05 -330.95 -33.6 -330.6 L-33.35 -330.4 -32.3 -330.25 Q-31.2 -330.45 -29.55 -331.75 L-28.05 -332.9 -23.55 -332.25 -22.3 -332.15 -17.3 -331.75 -15.15 -325.25 Q-6.3 -322.9 4.6 -324.5 L7.45 -324.65 10.2 -323.65 8.95 -321.75 -4.4 -313.65 -9.65 -315.5 -29.3 -319.65 -55.05 -329.9 -62.15 -331.75 -66.3 -331.75 Q-73.25 -333.1 -65.4 -323.65 L-56.9 -312.5 -49.05 -304.5 -45.3 -299.4 -46.3 -300.15 M-47.9 -334.5 L-47.4 -334.5 -33.6 -330.6 -47.4 -334.5 -47.9 -334.5 M-15.15 -325.25 L-24.65 -327.75 -32.3 -330.25 -24.65 -327.75 -15.15 -325.25 M-31.65 133.85 L-37.8 133.75 -39.05 132.85 -39.05 131.35 -35.9 127.35 -39.05 131.35 -39.05 132.85 -37.8 133.75 -31.65 133.85 M-1.8 100.35 L1.8 97.55 -1.8 100.35 M0.6 99.0 L-1.75 101.45 0.6 99.0" fill="#fa410f" fill-rule="evenodd" stroke="none"/>
    <path d="M-29.3 -281.15 L-35.65 -286.75 -41.05 -293.5 -45.15 -299.25 -45.3 -299.4 -49.05 -304.5 -56.9 -312.5 -65.4 -323.65 Q-73.25 -333.1 -66.3 -331.75 L-62.15 -331.75 -55.05 -329.9 -29.3 -319.65 -9.65 -315.5 -4.4 -313.65 -6.15 -311.4 -16.65 -300.9 -23.55 -291.15 Q-25.15 -288.7 -25.8 -286.0 L-27.65 -283.0 -28.4 -281.25 -29.3 -281.15" fill="#fa420e" fill-rule="evenodd" stroke="none"/>
    <path d="M-34.4 -334.5 L-32.8 -337.5 -32.65 -337.65 -32.4 -338.25 -32.3 -338.4 -32.3 -338.5 -31.4 -340.25 -31.4 -340.4 -31.3 -340.5 -31.3 -340.65 -31.15 -340.75 -31.15 -340.9 -31.05 -341.0 -22.05 -358.0 Q-18.6 -363.9 -13.4 -370.25 L-6.55 -377.0 5.85 -386.9 Q9.1 -389.2 9.35 -388.75 L11.35 -388.65 11.6 -388.15 10.95 -385.25 9.2 -382.25 Q10.9 -382.55 12.85 -378.75 L37.85 -334.4 40.85 -328.5 44.6 -318.4 Q55.7 -289.4 46.35 -261.9 40.35 -246.65 29.85 -238.9 L26.35 -236.25 18.7 -231.65 7.95 -226.75 Q4.95 -225.35 4.45 -224.15 1.95 -221.0 -0.55 -214.4 L-1.4 -209.0 Q-1.75 -195.05 2.2 -185.0 L4.45 -180.9 6.85 -177.9 Q22.2 -165.3 33.1 -150.65 48.5 -128.9 59.7 -106.15 81.95 -56.85 86.2 -3.75 L85.1 19.35 78.1 36.1 67.95 48.85 55.6 59.35 Q45.4 66.75 36.95 71.6 L28.95 75.0 20.1 76.25 24.45 84.35 Q26.5 88.35 26.35 90.35 L26.1 90.75 25.1 90.75 23.95 90.1 23.1 90.25 20.95 94.85 19.45 96.0 16.85 95.25 9.85 90.85 7.35 93.25 1.85 97.35 1.8 97.55 0.45 100.75 -0.05 103.25 3.35 113.25 8.1 124.85 Q8.65 126.85 16.45 138.35 L20.95 147.1 25.1 157.85 25.6 161.35 24.95 162.25 23.35 161.85 20.1 159.25 9.7 149.25 5.85 147.0 3.1 147.6 0.7 150.1 -3.9 157.0 -4.8 157.75 -6.05 157.75 -7.9 156.5 Q-12.5 143.45 -14.3 140.5 L-17.55 136.35 -22.05 134.6 -31.65 133.85 Q-26.85 140.35 -13.3 152.85 L-5.05 162.35 Q1.4 169.6 -15.9 163.85 L-22.65 162.35 -28.3 161.85 Q-34.05 163.9 -39.8 172.75 L-41.15 173.6 -43.65 173.5 Q-49.75 164.65 -51.05 164.1 L-54.4 162.25 Q-55.3 161.1 -73.15 167.5 L-76.05 167.85 -76.9 167.35 Q-81.6 166.8 -55.05 142.5 L-49.3 132.75 Q-46.85 128.0 -46.65 125.25 -45.75 118.7 -48.55 109.25 -60.25 75.65 -64.65 68.35 L-66.3 63.35 -66.3 63.25 Q-67.65 62.65 -69.05 62.0 -82.75 60.65 -80.15 59.6 L-79.65 56.85 -78.15 54.6 -91.05 44.25 Q-96.55 39.4 -103.05 31.35 -113.25 19.7 -118.65 -3.4 -127.75 -41.5 -106.05 -71.65 L-105.9 -71.75 -105.15 -72.9 -104.9 -73.15 -104.9 -73.25 -104.65 -73.5 -104.65 -73.65 -104.35 -73.95 -104.15 -74.25 -99.4 -86.65 -96.3 -93.15 -96.3 -93.4 -96.3 -93.65 -98.05 -96.15 -98.3 -96.65 -98.55 -96.65 -99.05 -96.65 -109.8 -91.75 -124.4 -86.4 -132.4 -84.25 -141.15 -82.65 Q-160.75 -79.15 -178.05 -85.15 -195.4 -92.85 -215.3 -132.25 -219.4 -153.25 -194.55 -136.75 -186.1 -130.35 -177.9 -120.65 L-174.4 -119.15 -173.55 -120.25 Q-177.6 -137.8 -173.9 -141.75 -166.85 -146.3 -161.55 -136.75 L-155.4 -127.4 -153.4 -125.0 -152.3 -124.15 -147.15 -122.5 -147.05 -122.5 -147.55 -129.4 -147.4 -130.0 Q-147.05 -142.9 -139.15 -136.75 L-136.05 -132.15 -135.15 -131.5 -116.8 -128.75 Q-83.0 -127.6 -76.4 -130.65 L-76.3 -130.75 -58.15 -159.15 -47.3 -178.15 -41.05 -191.4 -35.8 -206.5 Q-32.6 -217.1 -30.65 -228.4 L-29.05 -243.0 Q-28.15 -248.8 -29.8 -267.0 L-29.3 -281.15 -35.65 -286.75 -41.05 -293.5 Q-47.15 -284.95 -46.3 -300.15 L-100.9 -354.0 Q-107.75 -359.7 -94.8 -356.15 L-76.15 -350.15 -41.65 -336.75 -34.4 -334.5 -33.9 -334.4 -32.65 -337.5 -32.8 -337.5 M-30.15 -338.75 L-30.35 -339.3 -31.55 -335.5 -31.3 -335.2 -31.1 -335.3 -30.75 -335.45 Q-29.45 -336.3 -25.9 -339.9 L-18.3 -348.0 -8.55 -360.4 3.95 -380.5 Q6.85 -384.1 6.85 -384.9 L6.35 -384.25 M5.95 -377.0 L7.1 -380.5 7.85 -381.5 9.2 -382.25 M2.2 -382.25 L1.65 -382.2 1.3 -381.95 1.7 -381.9 M1.3 -381.95 L1.15 -381.85 -0.35 -380.55 -0.7 -380.3 -0.9 -380.05 -6.8 -375.25 -6.9 -375.15 -7.35 -374.8 -7.4 -374.75 -7.5 -374.55 -7.55 -374.5 -7.8 -374.25 -7.9 -374.15 -8.05 -374.15 -10.05 -372.4 -12.6 -369.2 -9.65 -372.5 -8.4 -373.5 M3.85 -383.4 L2.9 -383.1 2.15 -382.55 3.1 -382.9 M2.15 -382.55 L1.65 -382.2 M6.85 -384.9 Q6.8 -385.85 2.9 -383.1 M-1.9 -364.0 L3.2 -364.75 7.1 -364.25 Q8.35 -364.85 14.6 -361.15 L18.85 -357.15 5.95 -377.0 -1.9 -364.0 -7.3 -356.15 -17.65 -343.15 -18.05 -338.15 -17.65 -334.0 -17.3 -331.75 -15.15 -325.25 Q-6.3 -322.9 4.6 -324.5 L14.6 -331.75 Q15.1 -332.9 20.1 -335.5 L24.35 -339.9 24.6 -343.25 22.6 -350.75 21.2 -353.25 21.2 -353.5 20.85 -353.9 19.7 -355.75 19.7 -355.9 19.45 -356.15 19.45 -356.25 19.2 -356.65 18.95 -356.9 18.95 -357.0 18.85 -357.15 M29.95 -339.75 L21.35 -353.25 21.2 -353.25 M21.2 -353.5 L20.95 -353.9 20.85 -353.9 M21.2 -353.5 L21.35 -353.25 M19.7 -355.75 L20.95 -353.9 M29.95 -339.75 L37.85 -327.0 41.1 -315.5 42.2 -307.4 42.1 -299.25 41.6 -294.65 41.6 -292.0 42.1 -291.15 Q43.1 -288.65 46.6 -291.15 L47.1 -293.4 47.2 -299.25 46.7 -307.4 45.35 -315.5 44.6 -318.4 M24.6 -343.25 L26.1 -342.65 29.95 -339.75 M8.1 -342.9 L7.2 -343.75 5.2 -344.65 2.7 -344.0 Q0.95 -342.6 0.7 -339.9 0.15 -335.8 4.35 -334.15 8.7 -333.75 9.1 -339.9 L8.1 -342.9 M4.6 -324.5 L7.45 -324.65 10.2 -323.65 8.95 -321.75 -4.4 -313.65 -6.15 -311.4 -16.65 -300.9 -23.55 -291.15 Q-25.15 -288.7 -25.8 -286.0 L-27.65 -283.0 -28.4 -281.25 -29.3 -281.15 M-76.4 -130.65 L-85.95 -114.4 -83.15 -112.4 -64.65 -96.15 -59.8 -92.4 -64.3 -104.25 -65.3 -108.75 -64.9 -112.4 Q-62.8 -115.95 -60.65 -114.75 L-56.4 -112.4 -53.65 -110.15 -45.3 -101.15 -39.9 -96.15 Q-38.95 -95.0 -36.7 -93.5 L-37.8 -100.25 -37.4 -104.25 Q-34.7 -108.05 -33.4 -104.25 L-30.15 -100.15 Q-28.8 -98.55 -23.4 -97.9 5.1 -95.4 10.15 -97.9 L13.7 -99.15 16.85 -100.9 M32.85 -110.9 L35.7 -104.25 36.6 -100.0 36.45 -92.0 35.2 -85.25 30.45 -71.75 27.7 -66.15 24.45 -61.0 19.6 -55.5 15.6 -51.75 9.45 -47.4 Q-0.3 -40.2 -13.55 -39.25 L-19.15 -38.65 -29.9 -39.25 Q-48.6 -42.2 -54.55 -47.4 L-64.9 -55.5 -70.9 -61.15 -77.9 -69.25 -96.3 -93.4 M-7.55 -374.65 L-7.65 -374.5 -7.55 -374.5 -7.55 -374.65 -7.4 -374.75 M-7.55 -374.5 L-7.5 -374.55 M-7.8 -374.25 L-7.65 -374.5 -8.05 -374.15 M1.15 -381.85 L-0.65 -380.5 -6.8 -375.25 M-30.35 -339.3 L-30.15 -339.9 -29.7 -340.7 -29.2 -341.7 -26.55 -346.9 -25.1 -349.65 -25.05 -349.75 -24.4 -351.0 -23.9 -352.05 -23.85 -352.15 -18.85 -360.65 -18.75 -360.8 -18.7 -360.9 -16.05 -364.9 -16.0 -364.95 -15.65 -365.4 -15.6 -365.45 -14.25 -367.1 -14.2 -367.15 -12.6 -369.2 M-23.9 -352.05 L-24.1 -351.3 -24.4 -351.0 M-18.7 -360.9 L-18.85 -360.65 M-33.6 -330.6 L-47.4 -334.5 -47.9 -334.5 M-4.4 -313.65 L-9.65 -315.5 -29.3 -319.65 -55.05 -329.9 -62.15 -331.75 -66.3 -331.75 Q-73.25 -333.1 -65.4 -323.65 L-56.9 -312.5 -49.05 -304.5 -45.3 -299.4 -45.15 -299.25 -41.05 -293.5 M-45.3 -299.4 L-46.3 -300.15 M-22.3 -332.15 L-18.8 -333.9 -17.65 -334.0 M-29.9 -339.75 L-29.9 -339.25 M-29.7 -340.7 L-29.65 -339.9 M-29.25 -340.85 L-29.1 -341.15 -29.2 -341.7 M-31.15 -340.9 L-31.05 -340.9 -31.05 -341.0 M-31.15 -340.75 L-31.15 -340.65 -31.3 -340.65 M-31.4 -340.25 L-31.55 -339.75 -32.3 -338.5 M-32.65 -337.65 L-32.65 -337.5 M-32.3 -330.25 L-33.35 -330.4 -33.6 -330.6 Q-34.05 -330.95 -34.3 -331.75 L-33.9 -334.4 M-22.3 -332.15 L-23.55 -332.25 -28.05 -332.9 -29.55 -331.75 Q-31.2 -330.45 -32.3 -330.25 L-24.65 -327.75 -15.15 -325.25 M-17.65 -343.15 L-22.3 -338.4 -23.55 -332.25 M-28.05 -332.9 L-22.3 -338.4 M-17.3 -331.75 L-22.3 -332.15 M-26.55 -346.9 L-28.8 -341.75 M-147.05 -122.5 L-147.05 -121.15 M-98.55 -96.65 L-108.65 -115.25 -109.65 -120.5 Q-107.75 -127.55 -95.55 -120.5 L-91.65 -118.4 -85.95 -114.4 M-109.05 -60.5 L-104.35 -73.95 M-36.7 -93.5 Q-34.7 -92.15 -31.55 -90.5 L-25.8 -88.75 M-59.8 -92.4 L-58.3 -91.25 -52.05 -88.15 M-54.4 68.25 L-55.3 67.75 -56.9 68.5 Q-60.35 67.3 -61.05 66.35 L-65.9 63.5 -66.05 63.35 -66.15 63.35 -66.3 63.35 M-66.3 63.25 L-66.15 63.35 M-78.15 54.6 L-63.3 63.75 -55.3 67.75 M-35.9 127.35 L-37.4 123.25 Q-39.75 106.1 -40.8 105.0 L-48.4 85.6 -54.4 68.25 Q-42.9 76.05 2.1 76.1 L20.1 76.25 M-6.9 101.35 L-9.15 107.25 -9.55 107.6 Q-12.4 111.35 -25.8 118.1 L-35.9 127.35 -39.05 131.35 -39.05 132.85 -37.8 133.75 -31.65 133.85 M-0.05 103.25 Q-0.15 103.2 -0.3 103.1 L-1.65 101.35 -1.75 101.45 -3.3 102.25 -5.3 102.35 -6.9 101.35 Q-12.5 96.05 -1.8 88.0 -10.75 86.65 2.1 76.1 M9.85 90.85 L9.85 90.75 Q8.25 89.55 3.95 88.6 L-1.8 88.0 M-1.75 101.45 L0.6 99.0 M1.8 97.55 L-1.8 100.35" fill="none" stroke="#000000" stroke-linecap="round" stroke-linejoin="round" stroke-width="2.15"/>
  </g>
</svg>
