<?xml version="1.0" encoding="UTF-8" standalone="no"?>
<svg xmlns:xlink="http://www.w3.org/1999/xlink" height="550.95px" width="318.15px" xmlns="http://www.w3.org/2000/svg">
  <g transform="matrix(1.0, 0.0, 0.0, 1.0, 230.0, 373.1)">
    <path d="M-4.05 -281.25 Q-0.75 -268.95 -7.65 -247.9 -9.05 -240.15 -27.4 -219.4 L-29.3 -216.0 -31.9 -208.4 Q-36.8 -191.2 -30.65 -175.25 -25.35 -162.15 -20.8 -159.5 L-15.15 -155.4 5.2 -142.65 17.6 -132.5 30.2 -120.5 42.7 -107.4 55.95 -88.5 Q70.4 -62.9 78.1 -39.75 L85.35 -14.25 87.1 6.75 82.6 25.75 Q66.15 58.85 33.95 77.0 L36.2 79.6 37.45 82.25 37.35 83.25 35.45 84.0 34.6 85.0 32.95 92.1 31.85 93.25 30.35 93.25 21.35 90.25 18.85 89.5 10.1 89.75 Q4.6 91.4 6.1 85.35 -29.55 93.35 -47.15 90.85 L-47.15 90.75 -56.8 88.85 -67.9 85.75 -75.65 82.5 -89.8 74.5 Q-95.5 70.8 -102.9 63.35 -115.5 50.15 -124.8 22.25 -137.9 -19.6 -110.05 -63.65 L-107.9 -67.65 -108.15 -67.9 -129.65 -47.5 -143.8 -35.25 -150.55 -30.25 Q-162.0 -21.25 -184.65 -14.75 L-190.3 -14.75 Q-195.65 -15.45 -200.55 -18.4 -209.9 -23.8 -223.3 -41.15 L-227.65 -49.65 Q-229.35 -52.8 -228.8 -57.9 L-227.8 -60.4 -225.55 -62.75 -222.8 -63.9 -214.4 -63.65 Q-204.4 -61.15 -192.4 -50.15 L-190.15 -52.9 -189.9 -53.75 Q-193.75 -73.65 -189.3 -76.5 -185.25 -81.9 -176.9 -71.75 L-171.05 -63.75 -170.65 -63.55 -170.4 -63.45 -170.1 -63.4 Q-167.9 -62.9 -166.05 -66.4 L-165.9 -66.5 Q-166.65 -91.85 -156.4 -79.9 -158.05 -75.65 -132.65 -85.9 L-118.9 -92.65 Q-90.15 -111.4 -88.4 -109.65 L-88.35 -109.7 -88.3 -109.75 Q-70.75 -147.7 -69.4 -167.4 -65.5 -205.95 -74.8 -227.25 L-74.9 -227.4 -75.05 -227.9 -75.15 -228.0 -75.15 -228.25 -75.3 -228.4 -75.3 -228.5 -75.4 -228.65 -75.4 -228.9 -75.55 -229.0 Q-82.5 -244.85 -82.65 -256.4 -78.8 -253.75 -76.9 -258.65 L-76.3 -259.65 -74.8 -264.65 -69.15 -274.9 -59.9 -288.25 -58.55 -291.0 -58.55 -291.15 -52.65 -295.5 -48.4 -299.25 Q-38.15 -307.7 -55.4 -301.4 L-55.55 -301.4 -50.55 -305.75 -49.4 -307.4 -44.55 -313.15 -39.65 -321.5 -38.65 -327.9 -41.05 -334.25 -36.3 -332.5 -21.55 -318.5 -19.15 -315.5 -14.65 -307.4 -11.55 -299.25 -8.05 -283.0 Q-7.8 -280.4 -4.05 -281.25 M6.2 -60.25 L5.35 -59.65 Q3.15 -57.45 -2.3 -55.5 -6.3 -53.9 -12.8 -52.75 L-17.9 -52.5 -21.8 -53.75 -24.55 -55.5 Q-31.6 -62.8 -31.9 -55.5 L-31.05 -51.75 -26.8 -43.1 -34.05 -47.4 -43.4 -53.25 -47.9 -55.5 Q-54.25 -58.55 -56.8 -55.5 L-57.3 -52.15 Q-56.85 -48.8 -55.65 -47.4 L-54.4 -44.9 -44.4 -31.15 -44.35 -30.9 -44.9 -31.15 -61.15 -39.25 -73.3 -44.4 -84.4 -47.4 -87.65 -47.65 -90.8 -47.4 Q-97.6 -45.7 -94.15 -39.25 L-91.9 -35.25 -88.4 -31.15 -80.4 -23.0 -65.4 -10.0 -50.05 1.35 -41.05 7.5 -37.05 9.5 Q-8.85 25.25 11.1 9.5 L18.85 3.6 24.6 -2.65 29.1 -9.75 31.35 -14.9 35.6 -27.65 37.2 -39.25 37.2 -47.4 35.6 -63.65 33.95 -71.75 32.85 -75.15 30.6 -79.9 24.7 -88.0 23.6 -89.25 24.7 -88.0 30.6 -79.9 32.85 -75.15 33.95 -71.75 35.6 -63.65 37.2 -47.4 37.2 -39.25 35.6 -27.65 31.35 -14.9 29.1 -9.75 24.6 -2.65 18.85 3.6 11.1 9.5 Q-8.85 25.25 -37.05 9.5 L-41.05 7.5 -50.05 1.35 -65.4 -10.0 -80.4 -23.0 -88.4 -31.15 -91.9 -35.25 -94.15 -39.25 Q-97.6 -45.7 -90.8 -47.4 L-87.65 -47.65 -84.4 -47.4 -73.3 -44.4 -61.15 -39.25 -44.9 -31.15 -44.35 -30.9 -44.4 -31.15 -54.4 -44.9 -55.65 -47.4 Q-56.85 -48.8 -57.3 -52.15 L-56.8 -55.5 Q-54.25 -58.55 -47.9 -55.5 L-43.4 -53.25 -34.05 -47.4 -26.8 -43.1 -31.05 -51.75 -31.9 -55.5 Q-31.6 -62.8 -24.55 -55.5 L-21.8 -53.75 -17.9 -52.5 -12.8 -52.75 Q-6.3 -53.9 -2.3 -55.5 3.15 -57.45 5.35 -59.65 L9.85 -65.0 10.7 -67.65 9.85 -65.0 5.35 -59.65 6.2 -60.25 M-32.3 -27.0 L-37.15 -27.9 -44.35 -30.9 -37.15 -27.9 -32.3 -27.0 M-12.05 -39.0 L-15.65 -39.25 -22.4 -41.15 Q-23.95 -41.6 -26.8 -43.1 -23.95 -41.6 -22.4 -41.15 L-15.65 -39.25 -12.05 -39.0 M-154.3 -78.15 L-154.8 -78.4 -154.3 -78.15 M-107.8 -68.15 L-106.9 -69.0 -101.3 -78.75 -100.65 -79.9 -97.8 -87.0 -97.8 -87.4 -88.35 -109.7 -97.8 -87.4 -97.8 -87.0 -100.65 -79.9 -101.3 -78.75 -108.9 -57.25 -101.3 -78.75 -106.9 -69.0 -107.8 -68.15 M-97.8 -87.4 L-97.9 -88.65 -97.8 -87.4 M-165.9 -66.5 L-165.9 -66.15 -166.05 -66.4 -165.9 -66.15 -165.9 -66.5 M-192.9 -49.75 L-193.4 -50.25 -192.9 -49.75 M33.95 77.0 L23.45 80.85 6.1 85.35 23.45 80.85 33.95 77.0" fill="#ffffff" fill-rule="evenodd" stroke="none"/>
    <path d="M-107.15 -274.0 Q-111.65 -267.55 -111.15 -276.5 L-111.05 -276.5 -109.9 -275.85 -108.15 -274.9 -107.15 -274.15 -107.15 -274.0 M-107.05 -309.0 L-106.9 -309.15 -106.8 -309.75 -106.8 -309.9 -106.55 -310.65 -106.55 -311.15 -106.4 -311.25 -106.4 -311.5 -106.3 -311.9 -106.3 -312.0 -104.65 -320.4 -99.9 -337.0 Q-97.25 -342.1 -96.3 -335.9 L-94.8 -337.0 Q-91.85 -355.7 -76.15 -365.65 -59.4 -379.1 -58.65 -364.25 L-58.8 -360.4 -57.55 -360.9 -56.4 -360.25 -51.4 -355.5 -23.3 -325.75 -16.05 -317.25 -10.65 -308.75 Q-7.4 -302.8 -6.15 -298.75 L-2.65 -285.75 Q-1.75 -282.25 -4.05 -281.25 -7.8 -280.4 -8.05 -283.0 L-11.55 -299.25 -14.65 -307.4 -19.15 -315.5 -21.55 -318.5 -36.3 -332.5 -46.2 -341.65 -48.45 -343.75 -59.55 -354.0 -60.4 -348.5 -60.55 -348.0 -62.15 -339.9 -64.4 -331.75 -66.65 -325.9 -69.55 -320.65 -73.4 -315.5 -79.05 -309.25 -81.05 -307.4 Q-94.55 -294.9 -96.05 -307.4 L-96.3 -309.5 -96.4 -314.25 -96.4 -314.75 -96.4 -314.25 -96.55 -314.5 -96.4 -314.75 -95.65 -330.65 -96.65 -327.5 Q-100.15 -328.65 -98.15 -331.75 L-96.3 -335.9 -98.15 -331.75 Q-100.15 -328.65 -96.65 -327.5 L-98.4 -311.65 -98.55 -311.25 -98.8 -309.25 -102.15 -309.0 -102.3 -309.0 -102.3 -308.9 -106.9 -309.0 -107.05 -309.0 M-63.65 -364.25 Q-64.3 -369.8 -72.9 -364.25 L-80.55 -358.5 -83.05 -356.15 -86.4 -352.25 -89.05 -348.0 -91.05 -342.65 -92.9 -331.75 -93.9 -315.5 -93.55 -310.4 -92.65 -307.75 -90.9 -306.75 -88.65 -307.4 Q-88.15 -307.25 -85.55 -309.15 L-85.35 -309.35 -84.7 -309.8 -83.85 -310.45 -83.6 -310.7 -83.55 -310.75 -75.55 -319.0 -70.15 -327.5 -68.55 -331.75 -66.0 -341.15 -64.15 -351.65 -63.3 -362.4 -63.65 -364.25 -63.3 -362.4 -64.15 -351.65 -66.0 -341.15 -68.55 -331.75 -70.15 -327.5 -75.55 -319.0 -83.55 -310.75 -83.6 -310.7 -83.85 -310.45 -84.7 -309.8 -85.35 -309.35 -85.55 -309.15 Q-88.15 -307.25 -88.65 -307.4 L-90.9 -306.75 -92.65 -307.75 -93.55 -310.4 -93.9 -315.5 -92.9 -331.75 -91.05 -342.65 -89.05 -348.0 -86.4 -352.25 -83.05 -356.15 -80.55 -358.5 -72.9 -364.25 Q-64.3 -369.8 -63.65 -364.25 M-59.55 -354.0 L-58.8 -360.4 -59.55 -354.0 M-106.3 -312.0 L-101.65 -328.15 -101.55 -328.25 -101.55 -328.4 -101.4 -328.9 -100.55 -331.0 -100.7 -331.3 -100.55 -331.75 -99.55 -333.65 -99.55 -333.5 -99.55 -331.75 -102.3 -309.0 -99.55 -331.75 -99.55 -333.5 -99.55 -333.65 -100.55 -331.75 -100.7 -331.3 -100.55 -331.0 -101.4 -328.9 -101.55 -328.4 -101.55 -328.25 -101.65 -328.15 -106.3 -312.0 M-94.8 -337.0 L-95.55 -331.75 -95.55 -331.15 -95.65 -330.75 -95.65 -330.65 -95.65 -330.75 -95.55 -331.15 -95.55 -331.75 -94.8 -337.0 M-99.55 -333.5 L-99.4 -335.0 -99.55 -333.5 M-106.9 -309.15 L-106.9 -309.0 -106.9 -309.15 M-101.4 -328.9 L-100.7 -331.3 -101.4 -328.9 M-110.05 -275.5 L-109.9 -275.85 -110.05 -275.5" fill="#43396f" fill-rule="evenodd" stroke="none"/>
    <path d="M-41.05 -334.25 L-38.65 -327.9 -39.65 -321.5 -44.55 -313.15 -49.4 -307.4 -50.55 -305.75 -55.55 -301.4 -55.55 -301.25 -59.3 -299.9 -65.55 -298.9 -66.9 -299.25 Q-69.4 -299.05 -74.9 -302.75 L-78.05 -307.4 -79.05 -309.25 -73.4 -315.5 -69.55 -320.65 -66.65 -325.9 -64.4 -331.75 -62.15 -339.9 -60.55 -348.0 -60.4 -348.5 Q-53.6 -347.9 -48.45 -343.75 L-46.2 -341.65 Q-43.3 -338.6 -41.05 -334.25 M-54.9 -327.5 L-56.8 -328.25 Q-61.55 -327.85 -61.3 -323.65 -61.25 -318.2 -56.9 -317.5 -53.25 -316.95 -52.8 -323.65 L-53.9 -326.5 -54.9 -327.5 M-96.4 -314.25 L-96.3 -309.5 -98.8 -309.25 -98.55 -311.25 -98.4 -311.65 -98.3 -311.65 -96.55 -314.5 -96.4 -314.25 M-98.55 -311.25 L-98.3 -311.65 -98.55 -311.25" fill="#ff7a16" fill-rule="evenodd" stroke="none"/>
    <path d="M-54.9 -327.5 L-53.9 -326.5 -52.8 -323.65 Q-53.25 -316.95 -56.9 -317.5 -61.25 -318.2 -61.3 -323.65 -61.55 -327.85 -56.8 -328.25 L-54.9 -327.5" fill="#000000" fill-rule="evenodd" stroke="none"/>
    <path d="M21.35 90.25 L20.45 91.5 20.45 91.75 20.85 100.0 21.45 103.6 22.35 105.6 Q28.4 117.3 31.2 121.25 L40.35 132.85 44.35 139.6 48.7 148.85 Q52.45 157.2 38.7 147.6 L31.7 143.6 27.6 142.85 24.1 145.1 Q21.25 148.35 16.2 158.1 L14.45 159.35 12.95 159.25 11.85 158.25 Q6.6 144.15 5.35 143.35 L1.85 140.1 Q-7.05 139.35 -19.4 144.6 L-22.4 144.5 Q-16.4 130.05 8.6 107.85 4.25 106.65 3.7 102.25 L4.6 99.6 10.1 89.75 18.85 89.5 21.35 90.25 M-47.15 90.85 Q-46.55 100.3 -36.4 119.0 -34.15 141.95 -31.9 142.0 L-29.3 146.0 -25.3 150.85 Q-7.35 165.15 -3.65 170.25 L-3.4 171.25 -4.3 172.25 -8.3 172.0 -22.8 169.35 -29.05 169.0 -33.3 170.75 Q-41.25 177.5 -41.4 176.75 L-44.15 176.6 -50.9 170.35 Q-54.4 168.45 -54.9 169.1 -65.85 170.15 -73.05 172.5 L-77.05 172.6 -77.9 171.5 -76.65 169.1 -71.15 164.0 Q-65.0 159.0 -61.55 157.5 L-61.4 157.35 Q-43.55 142.6 -43.15 132.85 L-43.55 126.35 -44.3 122.85 -51.9 106.25 -56.8 88.85 -47.15 90.75 -47.15 90.85 M-114.15 -278.5 L-114.55 -278.65 -114.4 -278.65 -114.15 -278.5 M-114.55 -278.75 L-146.9 -295.65 Q-165.65 -306.1 -166.4 -308.75 -168.65 -310.7 -147.4 -310.9 L-107.05 -309.0 -106.9 -309.0 -102.3 -308.9 -102.3 -309.0 -102.15 -309.0 -98.8 -309.25 -96.3 -309.5 -96.05 -307.4 Q-94.55 -294.9 -81.05 -307.4 L-79.05 -309.25 -78.05 -307.4 -74.9 -302.75 Q-69.4 -299.05 -66.9 -299.25 L-65.55 -298.9 -59.3 -299.9 -55.55 -301.25 -55.55 -301.4 -55.4 -301.4 Q-38.15 -307.7 -48.4 -299.25 L-52.65 -295.5 -58.55 -291.15 -58.55 -291.0 -59.05 -291.15 -61.55 -291.4 -81.4 -290.75 -88.4 -291.15 -113.05 -294.0 -118.15 -294.25 Q-133.25 -293.1 -129.05 -291.15 L-127.65 -289.25 -117.8 -280.9 -114.55 -278.75 M-55.55 -301.25 L-55.4 -301.4 -55.55 -301.25 M-97.9 -299.4 L-77.65 -298.5 -65.55 -298.9 -77.65 -298.5 -97.9 -299.4 M-102.15 -309.0 L-102.15 -308.9 -102.3 -308.9 -102.15 -308.9 -102.15 -309.0 M18.1 98.5 L17.7 98.35 17.65 98.35 17.0 98.15 16.95 98.1 17.45 97.6 16.95 98.1 17.0 98.15 17.65 98.35 17.7 98.35 18.1 98.5 M10.95 105.6 L20.45 91.75 10.95 105.6 M8.6 107.85 L10.1 107.0 12.1 105.1 17.0 98.15 12.1 105.1 10.1 107.0 8.6 107.85" fill="#fa410f" fill-rule="evenodd" stroke="none"/>
    <path d="M-82.65 -256.4 L-88.55 -259.5 Q-91.05 -260.9 -103.55 -271.75 L-107.05 -274.0 -107.15 -274.0 -107.15 -274.15 -108.15 -274.9 -109.9 -275.85 -111.05 -276.5 -111.15 -276.65 -111.05 -276.5 -111.15 -276.5 -111.15 -276.65 -114.05 -278.4 -114.15 -278.5 -114.4 -278.65 -114.55 -278.65 -114.55 -278.75 -117.8 -280.9 -127.65 -289.25 -129.05 -291.15 Q-133.25 -293.1 -118.15 -294.25 L-113.05 -294.0 -88.4 -291.15 -81.4 -290.75 -61.55 -291.4 -59.05 -291.15 -58.55 -291.0 -59.9 -288.25 -69.15 -274.9 -74.8 -264.65 -76.3 -259.65 -76.9 -258.65 Q-78.8 -253.75 -82.65 -256.4 M-114.4 -278.65 L-114.55 -278.75 -114.4 -278.65 M-107.05 -274.0 L-107.15 -274.15 -107.05 -274.0" fill="#fa420e" fill-rule="evenodd" stroke="none"/>
    <path d="M-4.05 -281.25 Q-0.75 -268.95 -7.65 -247.9 -9.05 -240.15 -27.4 -219.4 L-29.3 -216.0 -31.9 -208.4 Q-36.8 -191.2 -30.65 -175.25 -25.35 -162.15 -20.8 -159.5 L-15.15 -155.4 5.2 -142.65 17.6 -132.5 30.2 -120.5 42.7 -107.4 55.95 -88.5 Q70.4 -62.9 78.1 -39.75 L85.35 -14.25 87.1 6.75 82.6 25.75 Q66.15 58.85 33.95 77.0 L36.2 79.6 37.45 82.25 37.35 83.25 35.45 84.0 34.6 85.0 32.95 92.1 31.85 93.25 30.35 93.25 21.35 90.25 20.45 91.5 20.45 91.75 20.85 100.0 21.45 103.6 22.35 105.6 Q28.4 117.3 31.2 121.25 L40.35 132.85 44.35 139.6 48.7 148.85 Q52.45 157.2 38.7 147.6 L31.7 143.6 27.6 142.85 24.1 145.1 Q21.25 148.35 16.2 158.1 L14.45 159.35 12.95 159.25 11.85 158.25 Q6.6 144.15 5.35 143.35 L1.85 140.1 Q-7.05 139.35 -19.4 144.6 L-22.4 144.5 Q-16.4 130.05 8.6 107.85 4.25 106.65 3.7 102.25 L4.6 99.6 10.1 89.75 Q4.6 91.4 6.1 85.35 -29.55 93.35 -47.15 90.85 -46.55 100.3 -36.4 119.0 -34.15 141.95 -31.9 142.0 L-29.3 146.0 -25.3 150.85 Q-7.35 165.15 -3.65 170.25 L-3.4 171.25 -4.3 172.25 -8.3 172.0 -22.8 169.35 -29.05 169.0 -33.3 170.75 Q-41.25 177.5 -41.4 176.75 L-44.15 176.6 -50.9 170.35 Q-54.4 168.45 -54.9 169.1 -65.85 170.15 -73.05 172.5 L-77.05 172.6 -77.9 171.5 -76.65 169.1 -71.15 164.0 Q-65.0 159.0 -61.55 157.5 L-61.4 157.35 Q-43.55 142.6 -43.15 132.85 L-43.55 126.35 -44.3 122.85 -51.9 106.25 -56.8 88.85 -67.9 85.75 -75.65 82.5 -89.8 74.5 Q-95.5 70.8 -102.9 63.35 -115.5 50.15 -124.8 22.25 -137.9 -19.6 -110.05 -63.65 L-107.9 -67.65 -108.15 -67.9 -129.65 -47.5 -143.8 -35.25 -150.55 -30.25 Q-162.0 -21.25 -184.65 -14.75 L-190.3 -14.75 Q-195.65 -15.45 -200.55 -18.4 -209.9 -23.8 -223.3 -41.15 L-227.65 -49.65 Q-229.35 -52.8 -228.8 -57.9 L-227.8 -60.4 -225.55 -62.75 -222.8 -63.9 -214.4 -63.65 Q-204.4 -61.15 -192.4 -50.15 L-190.15 -52.9 -189.9 -53.75 Q-193.75 -73.65 -189.3 -76.5 -185.25 -81.9 -176.9 -71.75 L-171.05 -63.75 -170.65 -63.55 -170.4 -63.45 -170.1 -63.4 Q-167.9 -62.9 -166.05 -66.4 L-165.9 -66.5 Q-166.65 -91.85 -156.4 -79.9 -158.05 -75.65 -132.65 -85.9 L-118.9 -92.65 Q-90.15 -111.4 -88.4 -109.65 L-88.35 -109.7 -88.3 -109.75 Q-70.75 -147.7 -69.4 -167.4 -65.5 -205.95 -74.8 -227.25 L-74.9 -227.4 -75.05 -227.9 -75.15 -228.0 -75.15 -228.25 -75.3 -228.4 -75.3 -228.5 -75.4 -228.65 -75.4 -228.9 -75.55 -229.0 Q-82.5 -244.85 -82.65 -256.4 L-88.55 -259.5 Q-91.05 -260.9 -103.55 -271.75 L-107.05 -274.0 -107.15 -274.0 Q-111.65 -267.55 -111.15 -276.5 L-111.15 -276.65 -114.05 -278.4 -114.15 -278.5 -114.55 -278.65 -114.55 -278.75 -146.9 -295.65 Q-165.65 -306.1 -166.4 -308.75 -168.65 -310.7 -147.4 -310.9 L-107.05 -309.0 -106.9 -309.15 -106.8 -309.75 -106.8 -309.9 -106.55 -310.65 -106.55 -311.15 -106.4 -311.25 -106.4 -311.5 -106.3 -311.9 -106.3 -312.0 -104.65 -320.4 -99.9 -337.0 Q-97.25 -342.1 -96.3 -335.9 L-94.8 -337.0 Q-91.85 -355.7 -76.15 -365.65 -59.4 -379.1 -58.65 -364.25 L-58.8 -360.4 -57.55 -360.9 -56.4 -360.25 -51.4 -355.5 -23.3 -325.75 -16.05 -317.25 -10.65 -308.75 Q-7.4 -302.8 -6.15 -298.75 L-2.65 -285.75 Q-1.75 -282.25 -4.05 -281.25 -7.8 -280.4 -8.05 -283.0 L-11.55 -299.25 -14.65 -307.4 -19.15 -315.5 -21.55 -318.5 -36.3 -332.5 -41.05 -334.25 -38.65 -327.9 -39.65 -321.5 -44.55 -313.15 -49.4 -307.4 -50.55 -305.75 -55.55 -301.4 -55.4 -301.4 Q-38.15 -307.7 -48.4 -299.25 L-52.65 -295.5 -58.55 -291.15 -58.55 -291.0 -59.9 -288.25 -69.15 -274.9 -74.8 -264.65 -76.3 -259.65 -76.9 -258.65 Q-78.8 -253.75 -82.65 -256.4 M23.6 -89.25 L24.7 -88.0 30.6 -79.9 32.85 -75.15 33.95 -71.75 35.6 -63.65 37.2 -47.4 37.2 -39.25 35.6 -27.65 31.35 -14.9 29.1 -9.75 24.6 -2.65 18.85 3.6 11.1 9.5 Q-8.85 25.25 -37.05 9.5 L-41.05 7.5 -50.05 1.35 -65.4 -10.0 -80.4 -23.0 -88.4 -31.15 -91.9 -35.25 -94.15 -39.25 Q-97.6 -45.7 -90.8 -47.4 L-87.65 -47.65 -84.4 -47.4 -73.3 -44.4 -61.15 -39.25 -44.9 -31.15 -44.35 -30.9 -44.4 -31.15 -54.4 -44.9 -55.65 -47.4 Q-56.85 -48.8 -57.3 -52.15 L-56.8 -55.5 Q-54.25 -58.55 -47.9 -55.5 L-43.4 -53.25 -34.05 -47.4 -26.8 -43.1 -31.05 -51.75 -31.9 -55.5 Q-31.6 -62.8 -24.55 -55.5 L-21.8 -53.75 -17.9 -52.5 -12.8 -52.75 Q-6.3 -53.9 -2.3 -55.5 3.15 -57.45 5.35 -59.65 L9.85 -65.0 10.7 -67.65 M5.35 -59.65 L6.2 -60.25 M-63.65 -364.25 L-63.3 -362.4 -64.15 -351.65 -66.0 -341.15 -68.55 -331.75 -70.15 -327.5 -75.55 -319.0 -83.55 -310.75 -83.6 -310.7 -83.85 -310.45 -84.7 -309.8 -85.35 -309.35 -85.55 -309.15 Q-88.15 -307.25 -88.65 -307.4 L-90.9 -306.75 -92.65 -307.75 -93.55 -310.4 -93.9 -315.5 -92.9 -331.75 -91.05 -342.65 -89.05 -348.0 -86.4 -352.25 -83.05 -356.15 -80.55 -358.5 -72.9 -364.25 Q-64.3 -369.8 -63.65 -364.25 M-48.45 -343.75 L-59.55 -354.0 -60.4 -348.5 Q-53.6 -347.9 -48.45 -343.75 L-46.2 -341.65 -36.3 -332.5 M-60.4 -348.5 L-60.55 -348.0 -62.15 -339.9 -64.4 -331.75 -66.65 -325.9 -69.55 -320.65 -73.4 -315.5 -79.05 -309.25 -78.05 -307.4 -74.9 -302.75 Q-69.4 -299.05 -66.9 -299.25 L-65.55 -298.9 -59.3 -299.9 -55.55 -301.25 -55.55 -301.4 M-58.8 -360.4 L-59.55 -354.0 M-54.9 -327.5 L-56.8 -328.25 Q-61.55 -327.85 -61.3 -323.65 -61.25 -318.2 -56.9 -317.5 -53.25 -316.95 -52.8 -323.65 L-53.9 -326.5 -54.9 -327.5 M-41.05 -334.25 Q-43.3 -338.6 -46.2 -341.65 M-65.55 -298.9 L-77.65 -298.5 -97.9 -299.4 M-55.4 -301.4 L-55.55 -301.25 M-95.65 -330.65 L-95.65 -330.75 -95.55 -331.15 -95.55 -331.75 -94.8 -337.0 M-102.3 -309.0 L-99.55 -331.75 -99.55 -333.5 -99.55 -333.65 -100.55 -331.75 -100.7 -331.3 -100.55 -331.0 -101.4 -328.9 -101.55 -328.4 -101.55 -328.25 -101.65 -328.15 -106.3 -312.0 M-96.65 -327.5 L-95.65 -330.65 -96.4 -314.75 -96.4 -314.25 -96.3 -309.5 -96.05 -307.4 Q-94.55 -294.9 -81.05 -307.4 L-79.05 -309.25 M-96.3 -335.9 L-98.15 -331.75 Q-100.15 -328.65 -96.65 -327.5 L-98.4 -311.65 -98.3 -311.65 -96.55 -314.5 -96.4 -314.75 M-99.4 -335.0 L-99.55 -333.5 M-106.9 -309.0 L-102.3 -308.9 -102.3 -309.0 -102.15 -309.0 -98.8 -309.25 -98.55 -311.25 -98.4 -311.65 M-107.05 -309.0 L-106.9 -309.0 -106.9 -309.15 M-102.3 -308.9 L-102.15 -308.9 -102.15 -309.0 M-96.4 -314.25 L-96.55 -314.5 M-98.3 -311.65 L-98.55 -311.25 M-96.3 -309.5 L-98.8 -309.25 M-100.7 -331.3 L-101.4 -328.9 M-58.55 -291.0 L-59.05 -291.15 -61.55 -291.4 -81.4 -290.75 -88.4 -291.15 -113.05 -294.0 -118.15 -294.25 Q-133.25 -293.1 -129.05 -291.15 L-127.65 -289.25 -117.8 -280.9 -114.55 -278.75 -114.4 -278.65 -114.15 -278.5 M-114.4 -278.65 L-114.55 -278.65 M-111.15 -276.65 L-111.05 -276.5 -109.9 -275.85 -108.15 -274.9 -107.15 -274.15 -107.05 -274.0 M-111.05 -276.5 L-111.15 -276.5 M-109.9 -275.85 L-110.05 -275.5 M-107.15 -274.0 L-107.15 -274.15 M-193.4 -50.25 L-192.9 -49.75 M-166.05 -66.4 L-165.9 -66.15 -165.9 -66.5 M-88.35 -109.7 L-97.8 -87.4 -97.8 -87.0 -100.65 -79.9 -101.3 -78.75 -108.9 -57.25 M-97.9 -88.65 L-97.8 -87.4 M-101.3 -78.75 L-106.9 -69.0 -107.8 -68.15 M-154.8 -78.4 L-154.3 -78.15 M-26.8 -43.1 Q-23.95 -41.6 -22.4 -41.15 L-15.65 -39.25 -12.05 -39.0 M-44.35 -30.9 L-37.15 -27.9 -32.3 -27.0 M-47.15 90.85 L-47.15 90.75 -56.8 88.85 M17.45 97.6 L16.95 98.1 17.0 98.15 17.65 98.35 17.7 98.35 18.1 98.5 M21.35 90.25 L18.85 89.5 10.1 89.75 M6.1 85.35 L23.45 80.85 33.95 77.0 M17.0 98.15 L12.1 105.1 10.1 107.0 8.6 107.85 M20.45 91.75 L10.95 105.6" fill="none" stroke="#000000" stroke-linecap="round" stroke-linejoin="round" stroke-width="2.15"/>
  </g>
</svg>
