<?xml version="1.0" encoding="UTF-8" standalone="no"?>
<svg xmlns:xlink="http://www.w3.org/1999/xlink" height="484.45px" width="306.2px" xmlns="http://www.w3.org/2000/svg">
  <g transform="matrix(1.0, 0.0, 0.0, 1.0, 215.95, 306.3)">
    <path d="M17.1 -31.9 L18.95 -25.65 19.7 -20.15 19.85 -14.9 19.35 -8.9 18.45 -6.75 16.35 -4.0 14.75 -2.55 14.5 -2.35 Q13.3 -1.55 11.95 -0.9 L9.2 -0.5 0.1 -1.9 -1.55 -0.9 -1.4 1.35 0.45 5.1 4.6 9.5 11.6 15.1 Q-15.05 10.6 -14.65 17.6 L-14.8 19.5 -14.05 21.35 -10.55 25.75 -5.55 29.85 1.2 33.85 Q4.15 35.25 6.85 37.1 L8.7 38.35 8.7 38.6 8.7 38.75 Q-11.1 37.6 -22.15 42.0 -31.8 46.4 -30.4 50.1 L-29.9 53.5 Q-28.15 56.85 -25.4 58.25 L-24.3 59.25 -18.65 62.25 -7.65 66.35 Q32.5 79.85 52.95 66.35 L55.85 64.0 59.2 59.35 59.6 58.25 61.85 53.35 64.7 42.0 65.7 33.85 65.85 25.75 65.1 17.6 63.7 9.5 59.35 -6.75 56.2 -14.9 52.35 -23.0 42.35 -39.25 35.7 -47.4 31.1 -51.75 19.6 -59.25 31.1 -51.75 35.7 -47.4 42.35 -39.25 52.35 -23.0 56.2 -14.9 59.35 -6.75 63.7 9.5 65.1 17.6 65.85 25.75 65.7 33.85 64.7 42.0 61.85 53.35 59.6 58.25 59.2 59.35 55.85 64.0 52.95 66.35 Q32.5 79.85 -7.65 66.35 L-18.65 62.25 -24.3 59.25 -25.4 58.25 Q-28.15 56.85 -29.9 53.5 L-30.4 50.1 Q-31.8 46.4 -22.15 42.0 -11.1 37.6 8.7 38.75 L8.7 38.6 8.7 38.35 6.85 37.1 Q4.15 35.25 1.2 33.85 L-5.55 29.85 -10.55 25.75 -14.05 21.35 -14.8 19.5 -14.65 17.6 Q-15.05 10.6 11.6 15.1 L4.6 9.5 0.45 5.1 -1.4 1.35 -1.55 -0.9 0.1 -1.9 9.2 -0.5 11.95 -0.9 Q13.3 -1.55 14.5 -2.35 L14.75 -2.55 16.35 -4.0 18.45 -6.75 19.35 -8.9 19.85 -14.9 19.7 -20.15 18.95 -25.65 17.1 -31.9 M-68.65 -249.0 L-65.05 -238.25 Q-62.0 -223.15 -62.65 -220.5 L-63.55 -208.65 Q-70.25 -177.95 -69.65 -178.0 L-70.15 -170.15 -69.8 -159.25 Q-67.65 -140.1 -60.55 -131.65 -52.25 -120.55 -45.15 -119.4 L-13.05 -111.15 -11.8 -110.85 7.35 -106.65 24.2 -98.0 41.85 -83.15 Q56.7 -68.35 72.1 -45.25 L83.2 -24.65 89.2 -2.9 87.6 18.0 80.2 38.25 68.85 57.35 57.1 72.1 48.45 80.85 48.6 82.85 48.6 83.85 47.6 86.35 45.6 87.0 41.85 86.75 40.2 88.0 31.45 94.6 Q2.4 116.4 -35.9 122.0 L-41.3 122.75 -44.9 122.5 Q-80.25 121.4 -105.3 92.6 -115.3 80.55 -122.3 67.75 L-129.9 50.35 -133.8 31.75 -133.3 15.0 -133.35 15.05 -133.8 15.5 -138.05 26.35 -145.9 43.6 -153.4 56.75 Q-163.3 73.0 -172.65 78.25 -189.65 84.2 -207.15 60.75 -213.25 39.6 -188.05 42.0 L-183.85 43.85 -183.8 43.85 -183.3 42.5 Q-182.0 38.25 -182.4 35.0 L-184.55 24.35 -184.4 19.85 -183.4 16.85 Q-178.85 9.95 -172.05 17.6 L-169.8 19.85 -169.65 19.85 -168.55 16.6 -168.4 16.6 -168.4 16.5 -168.4 16.25 -168.3 16.25 -167.8 14.1 -167.65 14.1 -167.65 13.6 -167.55 13.5 -167.55 13.25 -167.55 12.85 Q-168.5 0.0 -165.65 -1.9 L-163.8 -2.9 Q-161.55 -1.7 -160.6 -1.5 -159.75 -1.35 -160.05 -2.15 L-149.9 -16.5 Q-129.0 -50.75 -124.8 -54.5 L-120.15 -58.9 Q-109.0 -65.0 -102.45 -71.3 L-102.3 -71.5 -99.4 -84.4 -98.65 -89.4 Q-96.4 -121.3 -107.65 -144.15 L-112.4 -153.4 -116.3 -159.4 -123.05 -167.4 Q-136.05 -179.95 -135.05 -179.75 L-138.3 -184.25 -141.65 -191.0 Q-126.1 -188.45 -125.8 -193.65 L-124.3 -199.15 -112.4 -229.15 -112.65 -229.4 -101.8 -242.4 Q-97.2 -249.9 -107.05 -242.4 L-111.3 -238.9 Q-114.9 -236.9 -117.05 -236.9 L-112.3 -241.0 -108.55 -246.25 -104.8 -256.4 -103.9 -263.0 -105.3 -271.4 -106.65 -274.9 -110.15 -280.25 -112.4 -282.4 -85.9 -271.25 Q-84.1 -270.55 -80.55 -266.75 L-77.65 -263.65 -73.9 -258.65 -71.55 -254.75 -71.55 -254.65 -71.4 -254.5 -71.4 -254.4 -71.3 -254.25 -71.05 -253.75 -70.9 -253.65 -70.9 -253.5 -70.8 -253.4 -70.8 -253.25 -70.65 -253.15 -70.65 -253.0 -70.55 -252.9 -70.15 -252.0 -70.05 -251.9 -70.05 -251.75 -68.65 -249.15 -68.65 -249.0 M8.7 38.6 L18.35 38.0 20.95 37.1 18.35 38.0 8.7 38.6 M26.45 13.6 L20.95 15.0 11.6 15.1 20.95 15.0 26.45 13.6 M48.45 80.85 L41.85 86.75 48.45 80.85 M-108.8 -47.4 L-102.45 -71.3 -108.8 -47.4 M-120.8 -37.65 L-120.3 -36.4 -120.55 -31.15 -121.9 -23.0 -128.3 1.35 -133.35 15.05 -128.3 1.35 -121.9 -23.0 -120.55 -31.15 -120.3 -36.4 -120.8 -37.65 M-160.6 -1.5 L-157.65 0.25 -160.6 -1.5 M-179.8 46.5 L-183.85 43.85 -179.8 46.5 M-169.65 20.0 L-169.8 19.85 -169.65 20.0 -169.65 19.85 -169.65 20.0 -167.9 22.1 -165.55 24.1 -167.9 22.1 -169.65 20.0 M-168.3 16.25 L-168.4 16.5 -168.3 16.25 M-168.4 16.6 L-168.4 16.85 -168.55 17.35 -168.55 16.6 -168.55 17.35 -168.4 16.85 -168.4 16.6 M-167.65 14.1 L-167.65 14.85 -167.8 14.1 -167.65 14.85 -167.65 14.1 M-167.65 13.6 L-167.55 14.0 -167.55 14.5 -167.4 14.0 -167.55 13.5 -167.4 14.0 -167.55 14.5 -167.55 14.0 -167.65 13.6 M-167.55 13.25 L-167.3 13.1 -167.55 12.85 -167.3 13.1 -167.55 13.25" fill="#ffffff" fill-rule="evenodd" stroke="none"/>
    <path d="M-188.05 -220.0 Q-195.8 -245.4 -192.55 -253.75 -180.15 -282.0 -173.3 -266.75 L-171.8 -262.9 -170.3 -265.4 -167.3 -267.75 Q-169.1 -285.85 -155.15 -294.65 L-143.9 -301.9 Q-137.35 -305.2 -133.55 -305.25 L-128.55 -304.0 Q-123.55 -299.15 -124.55 -299.25 L-122.65 -295.0 -122.3 -293.25 -120.55 -293.5 -117.65 -292.4 -89.3 -277.4 Q-83.1 -274.3 -80.65 -272.15 -70.9 -265.4 -62.15 -249.65 L-60.3 -245.25 Q-60.3 -243.1 -63.3 -242.15 L-64.55 -242.15 -65.8 -243.15 -68.65 -249.0 -68.65 -249.15 -70.05 -251.75 -70.05 -251.9 -70.15 -252.0 -70.55 -252.9 -70.65 -253.0 -70.65 -253.15 -70.8 -253.25 -70.8 -253.4 -70.9 -253.5 -70.9 -253.65 -71.05 -253.75 -71.3 -254.25 -71.4 -254.4 -71.4 -254.5 -71.55 -254.65 -71.55 -254.75 -73.9 -258.65 -77.65 -263.65 -80.55 -266.75 Q-84.1 -270.55 -85.9 -271.25 L-112.4 -282.4 -113.55 -283.0 -120.4 -285.75 -118.65 -274.9 -117.8 -266.9 -117.9 -266.75 -117.9 -260.75 -118.9 -253.9 -120.3 -250.5 -120.9 -248.4 -124.4 -242.4 -130.3 -235.5 -137.8 -229.25 Q-141.25 -226.6 -146.4 -226.15 L-146.8 -226.15 Q-150.9 -225.1 -156.55 -234.25 L-158.8 -238.65 -163.05 -250.5 -166.3 -262.15 -166.4 -262.9 -168.65 -263.0 -169.65 -259.4 -170.3 -257.5 -172.05 -258.25 -172.15 -258.65 -172.55 -261.4 -171.8 -262.9 -172.55 -261.4 -172.15 -258.65 -172.05 -258.25 -170.3 -257.5 -165.55 -234.25 -165.4 -233.0 -168.8 -230.75 -186.4 -220.9 -188.05 -220.0 M-134.65 -299.25 L-131.9 -298.5 Q-129.25 -296.7 -127.3 -291.15 L-123.8 -274.9 -122.8 -266.75 -122.65 -261.65 -123.4 -255.4 -125.3 -250.5 -127.55 -246.25 -134.4 -238.4 Q-139.15 -234.2 -139.9 -234.25 -148.0 -229.25 -151.3 -234.25 L-152.9 -235.9 -156.05 -242.4 -161.4 -258.65 -163.15 -266.75 -163.65 -271.0 -163.15 -277.9 -160.8 -283.0 -157.65 -286.9 -152.55 -291.15 -143.9 -296.65 Q-139.1 -299.35 -136.55 -299.25 L-134.65 -299.25 -136.55 -299.25 Q-139.1 -299.35 -143.9 -296.65 L-152.55 -291.15 -157.65 -286.9 -160.8 -283.0 -163.15 -277.9 -163.65 -271.0 -163.15 -266.75 -161.4 -258.65 -156.05 -242.4 -152.9 -235.9 -151.3 -234.25 Q-148.0 -229.25 -139.9 -234.25 -139.15 -234.2 -134.4 -238.4 L-127.55 -246.25 -125.3 -250.5 -123.4 -255.4 -122.65 -261.65 -122.8 -266.75 -123.8 -274.9 -127.3 -291.15 Q-129.25 -296.7 -131.9 -298.5 L-134.65 -299.25 M-166.4 -262.9 L-167.3 -267.75 -166.4 -262.9 M-186.4 -220.9 L-189.8 -234.25 -191.15 -242.4 -191.4 -247.5 -189.9 -254.15 -187.55 -258.65 Q-177.7 -273.4 -174.8 -258.65 L-171.95 -247.2 -171.65 -245.95 -170.05 -238.2 -169.85 -237.1 -168.8 -230.75 -169.85 -237.1 -170.05 -238.2 -171.65 -245.95 -171.95 -247.2 -174.8 -258.65 Q-177.7 -273.4 -187.55 -258.65 L-189.9 -254.15 -191.4 -247.5 -191.15 -242.4 -189.8 -234.25 -186.4 -220.9 M-120.4 -285.75 L-122.3 -293.25 -120.4 -285.75 M-169.85 -237.1 L-169.9 -237.75 -170.05 -238.2 -169.9 -237.75 -169.85 -237.1 M-171.65 -245.95 L-171.55 -246.65 -171.65 -245.95 M-171.95 -247.2 L-171.8 -247.75 -171.95 -247.2" fill="#43396f" fill-rule="evenodd" stroke="none"/>
    <path d="M-112.4 -282.4 L-110.15 -280.25 -106.65 -274.9 -105.3 -271.4 -103.9 -263.0 -104.8 -256.4 -108.55 -246.25 -112.3 -241.0 -117.05 -236.9 -122.55 -235.25 -130.3 -235.5 -124.4 -242.4 -120.9 -248.4 -120.3 -250.5 -118.9 -253.9 -117.9 -260.75 -117.05 -262.15 -116.9 -263.65 -117.55 -266.75 -117.8 -266.9 -118.65 -274.9 -120.4 -285.75 -113.55 -283.0 -112.4 -282.4 M-158.8 -238.65 L-165.4 -233.0 -165.55 -234.25 -170.3 -257.5 -169.65 -259.4 -166.3 -262.15 -163.05 -250.5 -158.8 -238.65" fill="#ff7a16" fill-rule="evenodd" stroke="none"/>
    <path d="M-117.8 -266.9 L-117.55 -266.75 -116.9 -263.65 -117.05 -262.15 -117.9 -260.75 -117.9 -266.75 -117.8 -266.9" fill="#000000" fill-rule="evenodd" stroke="none"/>
    <path d="M48.6 82.85 Q50.2 81.6 57.35 99.35 L61.7 105.25 Q70.7 113.3 83.2 131.1 87.95 138.95 84.2 138.85 70.15 133.45 68.35 134.6 L66.35 135.35 64.35 138.75 62.2 147.0 60.45 156.6 59.7 158.25 58.85 159.1 57.7 159.35 57.1 159.1 56.1 158.0 49.6 146.5 47.35 143.5 44.2 141.85 41.45 142.75 40.7 143.35 Q25.7 158.4 26.7 154.75 26.85 140.85 41.95 107.0 L42.2 106.35 42.05 106.2 41.95 106.1 40.85 107.85 38.85 108.75 35.95 108.75 33.95 107.6 33.1 105.85 31.45 94.6 40.2 88.0 41.85 86.75 45.6 87.0 47.6 86.35 48.6 83.85 48.6 82.85 M-35.9 122.0 L-34.4 137.75 Q-33.6 140.85 -31.55 144.0 L-27.55 149.35 -23.8 153.35 Q-9.35 164.1 -4.15 169.85 -1.55 174.05 -9.9 172.0 L-21.3 169.85 -29.15 169.25 Q-34.0 170.35 -39.55 176.0 L-41.9 177.1 -44.4 177.0 -51.3 170.6 Q-55.15 168.7 -55.05 169.35 -64.9 170.15 -73.3 172.75 L-77.55 173.0 -78.4 171.85 -77.3 169.6 -71.8 164.5 Q-67.1 160.65 -62.15 158.1 L-62.05 158.0 -61.8 157.85 -61.65 157.75 -61.55 157.75 -61.3 157.5 -61.15 157.5 -61.05 157.35 Q-52.8 152.8 -44.55 138.0 -42.6 125.2 -44.9 122.5 L-41.3 122.75 -35.9 122.0 M-176.9 -200.0 Q-192.9 -195.5 -214.9 -199.5 L-214.3 -201.5 -211.8 -204.15 -200.4 -212.5 -188.05 -220.0 -186.4 -220.9 -168.8 -230.75 -165.4 -233.0 -158.8 -238.65 -156.55 -234.25 Q-150.9 -225.1 -146.8 -226.15 L-146.4 -226.15 Q-141.25 -226.6 -137.8 -229.25 L-130.3 -235.5 -122.55 -235.25 -117.05 -236.9 Q-114.9 -236.9 -111.3 -238.9 L-107.05 -242.4 Q-97.2 -249.9 -101.8 -242.4 L-112.65 -229.4 -120.55 -226.15 -128.05 -222.5 -139.15 -218.0 -162.8 -209.9 -172.15 -206.0 -180.3 -201.75 -180.4 -201.25 -179.9 -200.75 -176.9 -200.0 M42.05 106.2 L47.35 91.75 42.05 106.2 M40.7 104.6 L40.2 88.0 40.7 104.6 M-61.8 157.85 L-61.65 157.85 -61.65 157.75 -61.65 157.85 -61.8 157.85" fill="#fa410f" fill-rule="evenodd" stroke="none"/>
    <path d="M-141.65 -191.0 L-155.15 -195.0 -166.55 -196.5 -176.9 -200.0 -179.9 -200.75 -180.4 -201.25 -180.3 -201.75 -172.15 -206.0 -162.8 -209.9 -139.15 -218.0 -128.05 -222.5 -120.55 -226.15 -112.65 -229.4 -112.4 -229.15 -124.3 -199.15 -125.8 -193.65 Q-126.1 -188.45 -141.65 -191.0" fill="#fa420e" fill-rule="evenodd" stroke="none"/>
    <path d="M19.6 -59.25 L31.1 -51.75 35.7 -47.4 42.35 -39.25 52.35 -23.0 56.2 -14.9 59.35 -6.75 63.7 9.5 65.1 17.6 65.85 25.75 65.7 33.85 64.7 42.0 61.85 53.35 59.6 58.25 59.2 59.35 55.85 64.0 52.95 66.35 Q32.5 79.85 -7.65 66.35 L-18.65 62.25 -24.3 59.25 -25.4 58.25 Q-28.15 56.85 -29.9 53.5 L-30.4 50.1 Q-31.8 46.4 -22.15 42.0 -11.1 37.6 8.7 38.75 L8.7 38.6 8.7 38.35 6.85 37.1 Q4.15 35.25 1.2 33.85 L-5.55 29.85 -10.55 25.75 -14.05 21.35 -14.8 19.5 -14.65 17.6 Q-15.05 10.6 11.6 15.1 L4.6 9.5 0.45 5.1 -1.4 1.35 -1.55 -0.9 0.1 -1.9 9.2 -0.5 11.95 -0.9 Q13.3 -1.55 14.5 -2.35 L14.75 -2.55 16.35 -4.0 18.45 -6.75 19.35 -8.9 19.85 -14.9 19.7 -20.15 18.95 -25.65 17.1 -31.9 M-68.65 -249.0 L-65.05 -238.25 Q-62.0 -223.15 -62.65 -220.5 L-63.55 -208.65 Q-70.25 -177.95 -69.65 -178.0 L-70.15 -170.15 -69.8 -159.25 Q-67.65 -140.1 -60.55 -131.65 -52.25 -120.55 -45.15 -119.4 L-13.05 -111.15 -11.8 -110.85 7.35 -106.65 24.2 -98.0 41.85 -83.15 Q56.7 -68.35 72.1 -45.25 L83.2 -24.65 89.2 -2.9 87.6 18.0 80.2 38.25 68.85 57.35 57.1 72.1 48.45 80.85 48.6 82.85 Q50.2 81.6 57.35 99.35 L61.7 105.25 Q70.7 113.3 83.2 131.1 87.95 138.95 84.2 138.85 70.15 133.45 68.35 134.6 L66.35 135.35 64.35 138.75 62.2 147.0 60.45 156.6 59.7 158.25 58.85 159.1 57.7 159.35 57.1 159.1 56.1 158.0 49.6 146.5 47.35 143.5 44.2 141.85 41.45 142.75 40.7 143.35 Q25.7 158.4 26.7 154.75 26.85 140.85 41.95 107.0 L42.2 106.35 42.05 106.2 41.95 106.1 40.85 107.85 38.85 108.75 35.95 108.75 33.95 107.6 33.1 105.85 31.45 94.6 Q2.4 116.4 -35.9 122.0 L-34.4 137.75 Q-33.6 140.85 -31.55 144.0 L-27.55 149.35 -23.8 153.35 Q-9.35 164.1 -4.15 169.85 -1.55 174.05 -9.9 172.0 L-21.3 169.85 -29.15 169.25 Q-34.0 170.35 -39.55 176.0 L-41.9 177.1 -44.4 177.0 -51.3 170.6 Q-55.15 168.7 -55.05 169.35 -64.9 170.15 -73.3 172.75 L-77.55 173.0 -78.4 171.85 -77.3 169.6 -71.8 164.5 Q-67.1 160.65 -62.15 158.1 L-62.05 158.0 -61.8 157.85 -61.65 157.75 -61.55 157.75 -61.3 157.5 -61.15 157.5 -61.05 157.35 Q-52.8 152.8 -44.55 138.0 -42.6 125.2 -44.9 122.5 -80.25 121.4 -105.3 92.6 -115.3 80.55 -122.3 67.75 L-129.9 50.35 -133.8 31.75 -133.3 15.0 -133.35 15.05 -133.8 15.5 -138.05 26.35 -145.9 43.6 -153.4 56.75 Q-163.3 73.0 -172.65 78.25 -189.65 84.2 -207.15 60.75 -213.25 39.6 -188.05 42.0 L-183.85 43.85 -183.8 43.85 -183.3 42.5 Q-182.0 38.25 -182.4 35.0 L-184.55 24.35 -184.4 19.85 -183.4 16.85 Q-178.85 9.95 -172.05 17.6 L-169.8 19.85 -169.65 19.85 -168.55 16.6 -168.4 16.6 -168.4 16.5 -168.4 16.25 -168.3 16.25 -167.8 14.1 -167.65 14.1 -167.65 13.6 -167.55 13.5 -167.55 13.25 -167.55 12.85 Q-168.5 0.0 -165.65 -1.9 L-163.8 -2.9 Q-161.55 -1.7 -160.6 -1.5 -159.75 -1.35 -160.05 -2.15 L-149.9 -16.5 Q-129.0 -50.75 -124.8 -54.5 L-120.15 -58.9 Q-109.0 -65.0 -102.45 -71.3 L-102.3 -71.5 -99.4 -84.4 -98.65 -89.4 Q-96.4 -121.3 -107.65 -144.15 L-112.4 -153.4 -116.3 -159.4 -123.05 -167.4 Q-136.05 -179.95 -135.05 -179.75 L-138.3 -184.25 -141.65 -191.0 -155.15 -195.0 -166.55 -196.5 -176.9 -200.0 Q-192.9 -195.5 -214.9 -199.5 L-214.3 -201.5 -211.8 -204.15 -200.4 -212.5 -188.05 -220.0 Q-195.8 -245.4 -192.55 -253.75 -180.15 -282.0 -173.3 -266.75 L-171.8 -262.9 -170.3 -265.4 -167.3 -267.75 Q-169.1 -285.85 -155.15 -294.65 L-143.9 -301.9 Q-137.35 -305.2 -133.55 -305.25 L-128.55 -304.0 Q-123.55 -299.15 -124.55 -299.25 L-122.65 -295.0 -122.3 -293.25 -120.55 -293.5 -117.65 -292.4 -89.3 -277.4 Q-83.1 -274.3 -80.65 -272.15 -70.9 -265.4 -62.15 -249.65 L-60.3 -245.25 Q-60.3 -243.1 -63.3 -242.15 L-64.55 -242.15 -65.8 -243.15 -68.65 -249.0 -68.65 -249.15 -70.05 -251.75 -70.05 -251.9 -70.15 -252.0 -70.55 -252.9 -70.65 -253.0 -70.65 -253.15 -70.8 -253.25 -70.8 -253.4 -70.9 -253.5 -70.9 -253.65 -71.05 -253.75 -71.3 -254.25 -71.4 -254.4 -71.4 -254.5 -71.55 -254.65 -71.55 -254.75 -73.9 -258.65 -77.65 -263.65 -80.55 -266.75 Q-84.1 -270.55 -85.9 -271.25 L-112.4 -282.4 -110.15 -280.25 -106.65 -274.9 -105.3 -271.4 -103.9 -263.0 -104.8 -256.4 -108.55 -246.25 -112.3 -241.0 -117.05 -236.9 Q-114.9 -236.9 -111.3 -238.9 L-107.05 -242.4 Q-97.2 -249.9 -101.8 -242.4 L-112.65 -229.4 -112.4 -229.15 -124.3 -199.15 -125.8 -193.65 Q-126.1 -188.45 -141.65 -191.0 M11.6 15.1 L20.95 15.0 26.45 13.6 M20.95 37.1 L18.35 38.0 8.7 38.6 M31.45 94.6 L40.2 88.0 41.85 86.75 48.45 80.85 M41.85 86.75 L45.6 87.0 47.6 86.35 48.6 83.85 48.6 82.85 M40.2 88.0 L40.7 104.6 M47.35 91.75 L42.05 106.2 M-134.65 -299.25 L-136.55 -299.25 Q-139.1 -299.35 -143.9 -296.65 L-152.55 -291.15 -157.65 -286.9 -160.8 -283.0 -163.15 -277.9 -163.65 -271.0 -163.15 -266.75 -161.4 -258.65 -156.05 -242.4 -152.9 -235.9 -151.3 -234.25 Q-148.0 -229.25 -139.9 -234.25 -139.15 -234.2 -134.4 -238.4 L-127.55 -246.25 -125.3 -250.5 -123.4 -255.4 -122.65 -261.65 -122.8 -266.75 -123.8 -274.9 -127.3 -291.15 Q-129.25 -296.7 -131.9 -298.5 L-134.65 -299.25 M-112.4 -282.4 L-113.55 -283.0 -120.4 -285.75 -118.65 -274.9 -117.8 -266.9 -117.55 -266.75 -116.9 -263.65 -117.05 -262.15 -117.9 -260.75 -118.9 -253.9 -120.3 -250.5 -120.9 -248.4 -124.4 -242.4 -130.3 -235.5 -122.55 -235.25 -117.05 -236.9 M-117.8 -266.9 L-117.9 -266.75 -117.9 -260.75 M-130.3 -235.5 L-137.8 -229.25 Q-141.25 -226.6 -146.4 -226.15 L-146.8 -226.15 Q-150.9 -225.1 -156.55 -234.25 L-158.8 -238.65 -165.4 -233.0 -168.8 -230.75 -186.4 -220.9 -188.05 -220.0 M-176.9 -200.0 L-179.9 -200.75 -180.4 -201.25 -180.3 -201.75 -172.15 -206.0 -162.8 -209.9 -139.15 -218.0 -128.05 -222.5 -120.55 -226.15 -112.65 -229.4 M-122.3 -293.25 L-120.4 -285.75 M-168.8 -230.75 L-169.85 -237.1 -170.05 -238.2 -171.65 -245.95 -171.95 -247.2 -174.8 -258.65 Q-177.7 -273.4 -187.55 -258.65 L-189.9 -254.15 -191.4 -247.5 -191.15 -242.4 -189.8 -234.25 -186.4 -220.9 M-167.3 -267.75 L-166.4 -262.9 -166.3 -262.15 -163.05 -250.5 -158.8 -238.65 M-166.4 -262.9 L-168.65 -263.0 -169.65 -259.4 -166.3 -262.15 M-171.8 -262.9 L-172.55 -261.4 -172.15 -258.65 -172.05 -258.25 -170.3 -257.5 -169.65 -259.4 M-171.55 -246.65 L-171.65 -245.95 M-170.05 -238.2 L-169.9 -237.75 -169.85 -237.1 M-165.4 -233.0 L-165.55 -234.25 -170.3 -257.5 M-171.8 -247.75 L-171.95 -247.2 M-133.35 15.05 L-128.3 1.35 -121.9 -23.0 -120.55 -31.15 -120.3 -36.4 -120.8 -37.65 M-102.45 -71.3 L-108.8 -47.4 M-35.9 122.0 L-41.3 122.75 -44.9 122.5 M-61.65 157.75 L-61.65 157.85 -61.8 157.85 M-167.55 12.85 L-167.3 13.1 -167.55 13.25 M-167.55 13.5 L-167.4 14.0 -167.55 14.5 -167.55 14.0 -167.65 13.6 M-167.8 14.1 L-167.65 14.85 -167.65 14.1 M-168.55 16.6 L-168.55 17.35 -168.4 16.85 -168.4 16.6 M-168.4 16.5 L-168.3 16.25 M-169.65 19.85 L-169.65 20.0 -167.9 22.1 -165.55 24.1 M-169.8 19.85 L-169.65 20.0 M-183.85 43.85 L-179.8 46.5 M-157.65 0.25 L-160.6 -1.5" fill="none" stroke="#000000" stroke-linecap="round" stroke-linejoin="round" stroke-width="2.15"/>
  </g>
</svg>
