<?xml version="1.0" encoding="UTF-8" standalone="no"?>
<svg xmlns:xlink="http://www.w3.org/1999/xlink" height="368.05px" width="386.85px" xmlns="http://www.w3.org/2000/svg">
  <g transform="matrix(1.0, 0.0, 0.0, 1.0, 256.1, 189.5)">
    <path d="M-138.65 -182.0 Q-123.85 -175.4 -112.3 -155.25 L-109.15 -148.5 -107.3 -142.65 Q-102.35 -98.95 -98.15 -93.5 -90.4 -73.6 -81.65 -68.4 L-75.9 -65.5 -75.65 -65.55 -75.4 -65.65 Q-70.4 -71.45 -53.4 -79.0 L-35.05 -84.5 -16.55 -85.75 Q5.65 -83.45 11.1 -79.9 L20.85 -76.5 42.45 -64.9 61.35 -51.65 77.85 -35.15 89.45 -15.75 93.2 6.0 93.2 6.1 Q109.35 20.7 121.45 41.35 L127.2 53.35 Q134.4 66.4 120.85 85.25 113.9 93.55 101.2 100.1 89.65 105.7 81.85 99.85 L80.7 98.6 Q78.75 95.7 78.6 92.35 L78.95 86.1 Q81.5 76.1 91.35 67.1 L89.6 66.35 86.7 65.6 78.85 65.75 75.95 72.25 69.45 84.1 62.2 96.35 Q26.85 149.5 -23.55 155.1 -32.6 156.4 -54.4 151.0 -92.85 134.4 -108.05 115.1 L-109.15 114.0 -109.15 114.1 -109.4 114.6 -108.15 126.85 Q-107.25 142.85 -107.55 150.35 L-107.9 154.85 Q-108.75 158.85 -110.3 161.35 -115.3 169.3 -125.3 168.0 -132.0 168.4 -138.4 156.1 -141.55 143.35 -134.15 137.45 L-134.05 137.35 -136.8 123.6 Q-140.15 115.8 -140.05 114.25 L-139.9 110.0 Q-140.05 108.8 -137.65 106.85 L-137.4 106.75 -139.8 96.25 -142.4 55.6 -142.65 46.85 -142.15 36.85 -141.15 30.5 Q-140.35 25.85 -138.3 20.75 L-135.55 15.1 Q-120.85 -3.25 -121.9 -4.15 -118.1 -11.65 -114.55 -23.15 L-112.05 -28.65 Q-126.15 -67.15 -170.3 -76.15 L-162.55 -79.9 Q-158.55 -81.35 -157.55 -83.0 L-151.8 -90.9 -146.05 -124.5 -145.9 -128.65 -146.3 -128.9 -142.55 -136.75 -139.3 -144.9 Q-137.25 -155.15 -143.4 -144.9 L-144.05 -144.0 -144.05 -144.9 -144.65 -151.15 -146.55 -157.15 -148.4 -161.4 -148.3 -161.75 -150.9 -167.65 -154.05 -171.5 -156.15 -174.9 -138.65 -182.0 M-214.8 -148.15 L-213.8 -152.65 -212.55 -155.25 -212.4 -155.25 -213.8 -150.15 -213.3 -145.9 -214.4 -147.5 -214.4 -148.15 -214.8 -148.15 M-211.65 -157.5 Q-205.55 -172.65 -186.9 -182.75 L-193.8 -177.4 -202.8 -169.25 -207.9 -163.4 -211.65 -157.5 M-170.05 -187.75 Q-158.05 -190.05 -145.05 -184.75 L-158.15 -182.0 -160.4 -180.75 -165.3 -185.5 -170.05 -187.75 M22.45 -30.25 Q40.25 -28.9 50.85 -23.0 L65.85 -14.9 78.35 -6.75 88.35 1.35 93.2 6.0 88.35 1.35 78.35 -6.75 65.85 -14.9 50.85 -23.0 Q40.25 -28.9 22.45 -30.25 M29.45 -5.4 L31.6 -4.4 38.35 1.35 49.45 13.35 55.1 21.1 56.85 25.75 57.35 28.5 56.85 30.75 54.2 32.25 52.45 33.85 Q52.35 40.3 66.7 42.0 71.45 41.55 74.2 43.85 L65.45 50.1 61.6 54.5 60.7 56.1 60.85 58.25 Q60.85 66.2 78.85 65.75 60.85 66.2 60.85 58.25 L60.7 56.1 61.6 54.5 65.45 50.1 74.2 43.85 Q71.45 41.55 66.7 42.0 52.35 40.3 52.45 33.85 L54.2 32.25 56.85 30.75 57.35 28.5 56.85 25.75 55.1 21.1 49.45 13.35 38.35 1.35 31.6 -4.4 29.45 -5.4 M-134.15 137.45 L-131.55 136.25 -124.55 136.25 -131.55 136.25 -134.15 137.45 M-137.4 106.75 L-133.9 106.6 -132.8 107.0 -127.3 109.8 -126.55 109.85 -127.3 109.8 -132.8 107.0 -133.9 106.6 -137.4 106.75 M-133.3 85.5 L-132.65 85.5 -133.3 85.5 M-137.65 95.35 L-138.15 90.75 Q-138.65 83.4 -132.15 85.35 -138.65 83.4 -138.15 90.75 L-137.65 95.35 M-109.15 114.1 L-112.8 90.75 -120.65 58.25 -125.55 42.0 -128.9 33.85 -129.8 32.35 -128.9 33.85 -125.55 42.0 -120.65 58.25 -112.8 90.75 -109.15 114.1 M-67.4 -65.0 L-66.4 -65.25 -67.4 -65.0 M-75.65 -65.55 L-71.8 -64.5 -67.8 -64.9 -71.8 -64.5 -75.65 -65.55 M-109.9 -13.9 L-109.8 -14.5 -109.9 -13.9 M-112.05 -28.65 L-110.4 -23.0 -109.9 -19.9 -109.8 -14.9 -109.9 -19.9 -110.4 -23.0 -112.05 -28.65 M81.85 36.0 L79.7 39.1 74.2 43.85 79.7 39.1 81.85 36.0 M91.35 67.1 L95.6 62.5 91.35 67.1" fill="#ffffff" fill-rule="evenodd" stroke="none"/>
    <path d="M-203.9 -78.5 Q-217.05 -71.85 -226.15 -76.4 -239.05 -83.45 -253.9 -107.75 -257.65 -119.6 -249.4 -127.15 -234.85 -142.35 -226.55 -138.75 L-225.55 -138.5 -220.9 -135.65 -217.15 -131.75 -215.05 -135.4 -211.05 -139.25 -212.8 -143.0 -213.15 -145.5 -213.3 -145.75 -213.3 -145.9 -213.8 -150.15 -212.4 -155.25 -212.55 -155.25 -212.15 -156.25 -211.65 -157.5 -207.9 -163.4 -202.8 -169.25 -193.8 -177.4 -186.9 -182.75 -186.8 -182.75 -186.65 -182.9 Q-176.5 -189.95 -170.05 -187.75 L-165.3 -185.5 -160.4 -180.75 -158.15 -182.0 -145.05 -184.75 -139.05 -186.0 -134.3 -185.5 Q-108.3 -173.2 -115.3 -167.65 L-116.4 -167.15 -118.3 -167.5 Q-131.6 -182.3 -138.65 -182.0 L-156.15 -174.9 -154.05 -171.5 -148.4 -161.4 -146.55 -157.15 -144.65 -151.15 -144.05 -144.9 -144.05 -144.0 -145.4 -136.75 -147.3 -131.75 -150.65 -125.65 -158.9 -115.4 -162.4 -112.4 Q-164.65 -109.65 -170.4 -107.4 L-176.9 -106.65 -183.05 -108.65 -188.4 -112.4 -196.55 -119.9 -196.9 -120.5 -200.05 -123.9 -206.55 -131.75 -208.3 -134.4 -211.05 -139.25 -208.3 -134.4 -212.8 -133.65 Q-213.4 -134.15 -214.05 -128.65 L-214.15 -127.9 -211.15 -124.15 -199.4 -104.25 -198.05 -100.9 -201.15 -88.65 -201.3 -88.65 -201.3 -88.5 -201.4 -88.0 -201.4 -87.9 -203.9 -78.5 M-164.4 -175.65 L-168.8 -179.65 -173.15 -181.5 -178.05 -181.0 Q-184.55 -178.35 -185.05 -177.4 L-189.05 -174.5 -199.05 -165.5 -202.8 -161.15 -206.65 -155.0 -207.9 -149.75 -206.9 -143.65 -204.55 -138.65 -199.9 -131.9 -191.3 -121.9 -189.65 -120.5 Q-186.65 -116.65 -181.65 -113.75 L-177.55 -112.4 -176.9 -112.0 -173.65 -112.4 Q-166.65 -113.6 -161.15 -120.5 L-158.65 -123.15 -152.15 -132.75 -150.65 -136.75 Q-150.1 -136.65 -149.3 -143.0 L-149.9 -149.4 -151.15 -153.0 -154.9 -161.15 -159.9 -169.25 -164.4 -175.65 -159.9 -169.25 -154.9 -161.15 -151.15 -153.0 -149.9 -149.4 -149.3 -143.0 Q-150.1 -136.65 -150.65 -136.75 L-152.15 -132.75 -158.65 -123.15 -161.15 -120.5 Q-166.65 -113.6 -173.65 -112.4 L-176.9 -112.0 -177.55 -112.4 -181.65 -113.75 Q-186.65 -116.65 -189.65 -120.5 L-191.3 -121.9 -199.9 -131.9 -204.55 -138.65 -206.9 -143.65 -207.9 -149.75 -206.65 -155.0 -202.8 -161.15 -199.05 -165.5 -189.05 -174.5 -185.05 -177.4 Q-184.55 -178.35 -178.05 -181.0 L-173.15 -181.5 -168.8 -179.65 -164.4 -175.65 M-212.4 -155.25 L-212.15 -156.25 -212.4 -155.25 M-201.4 -87.9 Q-205.3 -81.65 -212.15 -79.9 -215.65 -78.1 -221.65 -78.5 L-225.65 -79.9 -230.15 -82.75 -235.4 -88.0 -244.3 -98.65 -248.05 -104.25 -250.15 -108.25 -251.15 -112.4 -250.8 -116.4 -248.55 -120.5 -245.3 -124.4 -240.4 -128.65 Q-230.2 -137.4 -221.9 -128.65 L-218.8 -125.4 -209.8 -112.4 -205.05 -104.25 -201.65 -96.15 -200.8 -92.15 -201.3 -88.65 -200.8 -92.15 -201.65 -96.15 -205.05 -104.25 -209.8 -112.4 -218.8 -125.4 -221.9 -128.65 Q-230.2 -137.4 -240.4 -128.65 L-245.3 -124.4 -248.55 -120.5 -250.8 -116.4 -251.15 -112.4 -250.15 -108.25 -248.05 -104.25 -244.3 -98.65 -235.4 -88.0 -230.15 -82.75 -225.65 -79.9 -221.65 -78.5 Q-215.65 -78.1 -212.15 -79.9 -205.3 -81.65 -201.4 -87.9 M-217.15 -131.75 L-217.3 -130.65 -216.4 -128.65 -215.65 -127.9 -214.15 -127.9 -215.65 -127.9 -216.4 -128.65 -217.3 -130.65 -217.15 -131.75 M-160.4 -180.75 L-156.15 -174.9 -160.4 -180.75" fill="#43396f" fill-rule="evenodd" stroke="none"/>
    <path d="M-226.55 -138.75 Q-227.4 -139.5 -220.3 -145.25 L-214.8 -148.15 -214.4 -148.15 -214.4 -147.5 -213.3 -145.9 -213.3 -145.75 -213.15 -145.5 -212.8 -143.0 -211.05 -139.25 -215.05 -135.4 -217.15 -131.75 -220.9 -135.65 -225.55 -138.5 -226.55 -138.75 M-154.05 -171.5 L-150.9 -167.65 -148.3 -161.75 -148.4 -161.4 -154.05 -171.5 M-208.3 -134.4 L-206.55 -131.75 -207.4 -130.0 -207.55 -128.65 Q-206.05 -121.3 -200.05 -123.9 L-196.9 -120.5 -196.55 -119.9 -196.4 -112.4 -197.3 -104.25 -198.05 -100.9 -199.4 -104.25 -211.15 -124.15 -214.15 -127.9 -214.05 -128.65 Q-213.4 -134.15 -212.8 -133.65 L-208.3 -134.4" fill="#ff7a16" fill-rule="evenodd" stroke="none"/>
    <path d="M-206.55 -131.75 L-200.05 -123.9 Q-206.05 -121.3 -207.55 -128.65 L-207.4 -130.0 -206.55 -131.75" fill="#000000" fill-rule="evenodd" stroke="none"/>
    <path d="M81.85 99.85 Q105.15 119.7 107.7 128.6 108.5 130.9 93.6 126.5 L91.1 127.35 90.7 127.6 89.95 130.1 90.45 149.0 89.45 151.25 88.45 151.35 86.85 150.35 77.95 139.5 Q73.1 133.8 71.2 136.85 69.95 137.65 65.2 146.75 L63.35 149.1 62.45 149.35 61.6 148.35 60.7 142.35 60.45 126.85 Q64.6 96.6 62.2 96.35 L69.45 84.1 Q70.7 84.65 77.45 95.5 L80.7 98.6 81.85 99.85 M-23.55 155.1 Q-21.15 157.95 -10.8 164.35 L-4.65 169.75 Q-0.35 174.85 -11.8 172.0 L-22.05 170.1 -29.55 169.6 -33.55 171.25 Q-41.25 177.85 -42.15 177.5 L-44.65 177.35 Q-44.55 178.3 -50.4 172.0 L-51.65 171.0 -54.9 169.6 Q-61.15 169.9 -65.4 171.0 L-74.15 173.1 -77.9 173.25 -79.05 172.25 -77.9 170.0 -75.9 167.85 Q-72.05 163.85 -58.65 154.85 L-54.4 151.0 Q-32.6 156.4 -23.55 155.1 M-187.05 -67.25 Q-192.95 -58.3 -203.2 -48.45 L-204.15 -47.6 -210.4 -42.0 -210.8 -43.0 -210.8 -47.4 -207.8 -63.15 -203.9 -78.5 -201.4 -87.9 -201.4 -88.0 -201.3 -88.5 -201.3 -88.65 -201.15 -88.65 -198.05 -100.9 -197.3 -104.25 -196.4 -112.4 -196.55 -119.9 -188.4 -112.4 -183.05 -108.65 -176.9 -106.65 -170.4 -107.4 Q-164.65 -109.65 -162.4 -112.4 L-158.9 -115.4 -150.65 -125.65 -147.3 -131.75 -145.4 -136.75 -144.05 -144.0 -143.4 -144.9 Q-137.25 -155.15 -139.3 -144.9 L-142.55 -136.75 -146.3 -128.9 -146.55 -128.65 -151.4 -120.5 -162.65 -104.25 -187.05 -67.25 M-201.15 -88.65 L-201.3 -88.5 -201.15 -88.65" fill="#fa410f" fill-rule="evenodd" stroke="none"/>
    <path d="M-170.3 -76.15 L-178.15 -71.0 Q-186.5 -66.9 -187.05 -67.25 L-162.65 -104.25 -151.4 -120.5 -146.55 -128.65 -146.3 -128.9 -145.9 -128.65 -146.05 -124.5 -151.8 -90.9 -157.55 -83.0 Q-158.55 -81.35 -162.55 -79.9 L-170.3 -76.15" fill="#fa420e" fill-rule="evenodd" stroke="none"/>
    <path d="M-138.65 -182.0 Q-123.85 -175.4 -112.3 -155.25 L-109.15 -148.5 -107.3 -142.65 Q-102.35 -98.95 -98.15 -93.5 -90.4 -73.6 -81.65 -68.4 L-75.9 -65.5 -75.65 -65.55 -75.4 -65.65 Q-70.4 -71.45 -53.4 -79.0 L-35.05 -84.5 -16.55 -85.75 Q5.65 -83.45 11.1 -79.9 L20.85 -76.5 42.45 -64.9 61.35 -51.65 77.85 -35.15 89.45 -15.75 93.2 6.0 93.2 6.1 Q109.35 20.7 121.45 41.35 L127.2 53.35 Q134.4 66.4 120.85 85.25 113.9 93.55 101.2 100.1 89.65 105.7 81.85 99.85 105.15 119.7 107.7 128.6 108.5 130.9 93.6 126.5 L91.1 127.35 90.7 127.6 89.95 130.1 90.45 149.0 89.45 151.25 88.45 151.35 86.85 150.35 77.95 139.5 Q73.1 133.8 71.2 136.85 69.95 137.65 65.2 146.75 L63.35 149.1 62.45 149.35 61.6 148.35 60.7 142.35 60.45 126.85 Q64.6 96.6 62.2 96.35 26.85 149.5 -23.55 155.1 -21.15 157.95 -10.8 164.35 L-4.65 169.75 Q-0.35 174.85 -11.8 172.0 L-22.05 170.1 -29.55 169.6 -33.55 171.25 Q-41.25 177.85 -42.15 177.5 L-44.65 177.35 Q-44.55 178.3 -50.4 172.0 L-51.65 171.0 -54.9 169.6 Q-61.15 169.9 -65.4 171.0 L-74.15 173.1 -77.9 173.25 -79.05 172.25 -77.9 170.0 -75.9 167.85 Q-72.05 163.85 -58.65 154.85 L-54.4 151.0 Q-92.85 134.4 -108.05 115.1 L-109.15 114.0 -109.15 114.1 -109.4 114.6 -108.15 126.85 Q-107.25 142.85 -107.55 150.35 L-107.9 154.85 Q-108.75 158.85 -110.3 161.35 -115.3 169.3 -125.3 168.0 -132.0 168.4 -138.4 156.1 -141.55 143.35 -134.15 137.45 L-134.05 137.35 -136.8 123.6 Q-140.15 115.8 -140.05 114.25 L-139.9 110.0 Q-140.05 108.8 -137.65 106.85 L-137.4 106.75 -139.8 96.25 -142.4 55.6 -142.65 46.85 -142.15 36.85 -141.15 30.5 Q-140.35 25.85 -138.3 20.75 L-135.55 15.1 Q-120.85 -3.25 -121.9 -4.15 -118.1 -11.65 -114.55 -23.15 L-112.05 -28.65 Q-126.15 -67.15 -170.3 -76.15 L-178.15 -71.0 Q-186.5 -66.9 -187.05 -67.25 -192.95 -58.3 -203.2 -48.45 L-204.15 -47.6 -210.4 -42.0 -210.8 -43.0 -210.8 -47.4 -207.8 -63.15 -203.9 -78.5 Q-217.05 -71.85 -226.15 -76.4 -239.05 -83.45 -253.9 -107.75 -257.65 -119.6 -249.4 -127.15 -234.85 -142.35 -226.55 -138.75 -227.4 -139.5 -220.3 -145.25 L-214.8 -148.15 -213.8 -152.65 -212.55 -155.25 -212.15 -156.25 -211.65 -157.5 Q-205.55 -172.65 -186.9 -182.75 L-186.8 -182.75 -186.65 -182.9 Q-176.5 -189.95 -170.05 -187.75 -158.05 -190.05 -145.05 -184.75 L-139.05 -186.0 -134.3 -185.5 Q-108.3 -173.2 -115.3 -167.65 L-116.4 -167.15 -118.3 -167.5 Q-131.6 -182.3 -138.65 -182.0 L-156.15 -174.9 -154.05 -171.5 -150.9 -167.65 -148.3 -161.75 -148.4 -161.4 -146.55 -157.15 -144.65 -151.15 -144.05 -144.9 -144.05 -144.0 -143.4 -144.9 Q-137.25 -155.15 -139.3 -144.9 L-142.55 -136.75 -146.3 -128.9 -145.9 -128.65 -146.05 -124.5 -151.8 -90.9 -157.55 -83.0 Q-158.55 -81.35 -162.55 -79.9 L-170.3 -76.15 M78.85 65.75 Q60.85 66.2 60.85 58.25 L60.7 56.1 61.6 54.5 65.45 50.1 74.2 43.85 Q71.45 41.55 66.7 42.0 52.35 40.3 52.45 33.85 L54.2 32.25 56.85 30.75 57.35 28.5 56.85 25.75 55.1 21.1 49.45 13.35 38.35 1.35 31.6 -4.4 29.45 -5.4 M93.2 6.0 L88.35 1.35 78.35 -6.75 65.85 -14.9 50.85 -23.0 Q40.25 -28.9 22.45 -30.25 M-164.4 -175.65 L-159.9 -169.25 -154.9 -161.15 -151.15 -153.0 -149.9 -149.4 -149.3 -143.0 Q-150.1 -136.65 -150.65 -136.75 L-152.15 -132.75 -158.65 -123.15 -161.15 -120.5 Q-166.65 -113.6 -173.65 -112.4 L-176.9 -112.0 -177.55 -112.4 -181.65 -113.75 Q-186.65 -116.65 -189.65 -120.5 L-191.3 -121.9 -199.9 -131.9 -204.55 -138.65 -206.9 -143.65 -207.9 -149.75 -206.65 -155.0 -202.8 -161.15 -199.05 -165.5 -189.05 -174.5 -185.05 -177.4 Q-184.55 -178.35 -178.05 -181.0 L-173.15 -181.5 -168.8 -179.65 -164.4 -175.65 M-170.05 -187.75 L-165.3 -185.5 -160.4 -180.75 -158.15 -182.0 -145.05 -184.75 M-211.65 -157.5 L-207.9 -163.4 -202.8 -169.25 -193.8 -177.4 -186.9 -182.75 M-213.3 -145.9 L-213.8 -150.15 -212.4 -155.25 -212.55 -155.25 M-212.15 -156.25 L-212.4 -155.25 M-214.8 -148.15 L-214.4 -148.15 -214.4 -147.5 -213.3 -145.9 -213.3 -145.75 -213.15 -145.5 -212.8 -143.0 -211.05 -139.25 -208.3 -134.4 -206.55 -131.75 -200.05 -123.9 -196.9 -120.5 -196.55 -119.9 -188.4 -112.4 -183.05 -108.65 -176.9 -106.65 -170.4 -107.4 Q-164.65 -109.65 -162.4 -112.4 L-158.9 -115.4 -150.65 -125.65 -147.3 -131.75 -145.4 -136.75 -144.05 -144.0 M-226.55 -138.75 L-225.55 -138.5 -220.9 -135.65 -217.15 -131.75 -215.05 -135.4 -211.05 -139.25 M-214.15 -127.9 L-215.65 -127.9 -216.4 -128.65 -217.3 -130.65 -217.15 -131.75 M-201.3 -88.65 L-200.8 -92.15 -201.65 -96.15 -205.05 -104.25 -209.8 -112.4 -218.8 -125.4 -221.9 -128.65 Q-230.2 -137.4 -240.4 -128.65 L-245.3 -124.4 -248.55 -120.5 -250.8 -116.4 -251.15 -112.4 -250.15 -108.25 -248.05 -104.25 -244.3 -98.65 -235.4 -88.0 -230.15 -82.75 -225.65 -79.9 -221.65 -78.5 Q-215.65 -78.1 -212.15 -79.9 -205.3 -81.65 -201.4 -87.9 L-201.4 -88.0 -201.3 -88.5 -201.3 -88.65 -201.15 -88.65 -198.05 -100.9 -199.4 -104.25 -211.15 -124.15 -214.15 -127.9 -214.05 -128.65 Q-213.4 -134.15 -212.8 -133.65 L-208.3 -134.4 M-200.05 -123.9 Q-206.05 -121.3 -207.55 -128.65 L-207.4 -130.0 -206.55 -131.75 M-198.05 -100.9 L-197.3 -104.25 -196.4 -112.4 -196.55 -119.9 M-201.3 -88.5 L-201.15 -88.65 M-203.9 -78.5 L-201.4 -87.9 M-146.3 -128.9 L-146.55 -128.65 -151.4 -120.5 -162.65 -104.25 -187.05 -67.25 M-156.15 -174.9 L-160.4 -180.75 M-148.4 -161.4 L-154.05 -171.5 M-109.8 -14.9 L-109.9 -19.9 -110.4 -23.0 -112.05 -28.65 M-109.8 -14.5 L-109.9 -13.9 M-67.8 -64.9 L-71.8 -64.5 -75.65 -65.55 M-66.4 -65.25 L-67.4 -65.0 M-129.8 32.35 L-128.9 33.85 -125.55 42.0 -120.65 58.25 -112.8 90.75 -109.15 114.1 M-132.15 85.35 Q-138.65 83.4 -138.15 90.75 L-137.65 95.35 M-132.65 85.5 L-133.3 85.5 M-126.55 109.85 L-127.3 109.8 -132.8 107.0 -133.9 106.6 -137.4 106.75 M-124.55 136.25 L-131.55 136.25 -134.15 137.45 M-23.55 155.1 Q-32.6 156.4 -54.4 151.0 M80.7 98.6 Q78.75 95.7 78.6 92.35 L78.95 86.1 Q81.5 76.1 91.35 67.1 L89.6 66.35 86.7 65.6 78.85 65.75 75.95 72.25 69.45 84.1 Q70.7 84.65 77.45 95.5 L80.7 98.6 81.85 99.85 M95.6 62.5 L91.35 67.1 M74.2 43.85 L79.7 39.1 81.85 36.0 M69.45 84.1 L62.2 96.35" fill="none" stroke="#000000" stroke-linecap="round" stroke-linejoin="round" stroke-width="2.15"/>
  </g>
</svg>
