<?xml version="1.0" encoding="UTF-8" standalone="no"?>
<svg xmlns:xlink="http://www.w3.org/1999/xlink" height="287.2px" width="438.65px" xmlns="http://www.w3.org/2000/svg">
  <g transform="matrix(1.0, 0.0, 0.0, 1.0, 243.25, 73.4)">
    <path d="M27.35 -10.0 L32.6 -11.5 41.6 -14.9 Q59.2 -19.9 90.85 -18.4 59.2 -19.9 41.6 -14.9 L32.6 -11.5 27.35 -10.0 M-154.65 -64.15 Q-140.75 -63.8 -125.05 -51.9 -121.9 -48.95 -118.3 -43.75 L-115.9 -39.9 Q-108.65 -13.6 -100.9 -8.5 L-100.8 -8.5 Q-100.7 -8.6 -100.55 -8.65 L-95.8 -17.25 Q-96.4 -18.0 -94.55 -21.25 L-92.15 -23.25 -90.4 -26.15 -78.9 -39.25 Q-81.4 -50.25 -75.4 -53.25 -68.9 -55.85 -62.4 -50.65 L-57.65 -52.75 -56.9 -59.75 Q-56.3 -63.1 -54.15 -67.15 -49.5 -74.1 -45.55 -71.75 -40.35 -69.7 -37.4 -59.9 L-26.4 -62.4 -7.65 -63.65 -2.55 -63.65 19.35 -61.9 42.6 -56.65 61.1 -48.75 Q63.5 -48.1 67.2 -45.15 L79.1 -35.5 84.45 -30.5 87.1 -26.15 90.85 -18.4 Q133.5 -14.1 167.45 2.0 179.6 7.3 187.2 21.85 196.45 43.1 193.7 53.35 L192.2 56.5 189.7 58.75 Q186.1 60.35 178.95 57.5 166.75 51.3 159.35 33.85 L157.2 32.25 152.85 32.0 152.8 32.1 Q147.9 40.15 143.6 41.6 L141.35 42.25 138.35 42.25 Q129.5 40.95 129.45 25.75 130.0 25.65 129.45 25.2 128.8 24.65 126.6 23.6 L120.35 23.35 120.2 23.35 116.6 26.75 Q113.0 28.4 111.2 28.35 L107.45 28.1 Q105.1 27.55 104.2 25.75 L101.7 23.35 Q102.75 42.8 98.6 64.0 L92.7 89.5 88.85 101.85 83.6 115.1 77.2 127.35 74.85 131.1 Q71.85 137.4 62.35 148.0 L50.95 158.6 39.7 165.35 31.35 169.25 Q-1.9 182.1 -32.65 174.0 L-18.9 189.1 Q-15.15 193.55 -13.9 198.75 -13.85 210.5 -20.05 212.75 L-24.55 212.75 Q-26.4 212.05 -28.35 210.85 L-28.9 210.55 -30.2 209.7 -30.6 209.4 -30.85 209.2 -33.4 207.25 -34.65 206.1 Q-63.35 179.55 -64.65 177.0 L-71.8 171.75 -72.65 171.0 Q-108.25 138.95 -117.05 121.5 -125.15 105.9 -116.8 85.1 L-116.9 84.65 -116.9 79.6 -116.9 77.6 -117.05 76.4 -117.1 71.75 -117.3 60.1 -115.15 42.1 -115.15 42.0 -121.55 40.6 -128.05 40.1 -131.15 9.5 -131.8 6.1 -126.9 -6.75 -124.9 -14.9 -124.15 -23.0 -125.05 -29.4 -127.3 -34.5 -131.15 -39.25 -136.15 -43.65 -146.4 -50.4 -146.3 -52.5 -148.15 -55.5 -154.65 -64.15 M-223.15 15.1 Q-230.3 -15.25 -209.9 -43.15 -193.3 -64.5 -160.15 -64.9 L-154.8 -53.5 Q-158.0 -54.95 -163.9 -53.15 L-170.15 -48.75 -176.9 -47.4 -183.15 -43.75 -189.05 -38.25 Q-193.3 -30.85 -192.55 -31.15 L-194.05 -25.0 -193.9 -17.75 -192.3 -12.15 -195.8 -0.65 -195.65 7.0 -192.8 12.35 -190.3 14.5 -190.3 14.6 -191.65 16.6 -193.8 15.5 Q-199.05 13.8 -199.3 14.35 -217.75 9.05 -216.9 10.0 L-219.9 10.6 -223.15 15.1 M120.35 23.35 L121.7 21.75 120.35 23.35 M101.7 23.35 Q100.7 21.95 97.2 20.1 L92.1 17.6 Q89.75 16.05 75.7 12.25 L54.95 8.25 45.2 7.85 54.95 8.25 75.7 12.25 Q89.75 16.05 92.1 17.6 L97.2 20.1 Q100.7 21.95 101.7 23.35 M129.45 25.2 L129.35 23.0 129.45 25.2 M152.2 32.35 L152.8 32.1 152.2 32.35 M160.2 34.1 L160.45 34.75 160.2 34.1 M-185.9 17.5 L-185.4 17.6 -183.15 18.85 -182.9 21.0 -187.3 18.5 -186.3 17.6 -185.9 17.5 M-115.15 42.1 L-113.4 42.75 Q-110.1 43.6 -107.15 45.5 L-101.4 50.1 -98.05 54.25 -97.8 55.25 -97.65 55.0 -97.3 55.35 -98.05 54.25 -97.3 55.35 -97.65 55.0 -97.8 55.25 -98.05 54.25 -101.4 50.1 -107.15 45.5 Q-110.1 43.6 -113.4 42.75 L-114.55 46.0 -115.9 53.1 -117.1 71.75 -115.9 53.1 -114.55 46.0 -113.4 42.75 -115.15 42.1 M-78.9 -39.25 L-63.9 -50.0 -62.4 -50.65 -63.9 -50.0 -78.9 -39.25 M-57.65 -52.75 L-46.8 -57.65 -37.4 -59.9 -46.8 -57.65 -57.65 -52.75 M-95.8 -17.25 L-92.15 -23.25 -95.8 -17.25 M-78.8 3.25 Q-82.6 5.4 -89.15 1.35 -91.9 0.2 -94.15 -1.9 L-100.8 -8.5 -94.15 -1.9 Q-91.9 0.2 -89.15 1.35 -82.6 5.4 -78.8 3.25 M-40.3 197.5 L-40.55 196.35 -40.9 193.1 -40.55 196.35 -40.3 197.5 M-40.9 192.85 L-40.55 191.5 -39.3 189.0 -40.55 191.5 -40.9 192.85 M-74.3 160.35 L-75.55 157.25 -75.55 155.75 -74.65 153.85 -73.55 152.85 -74.65 153.85 -75.55 155.75 -75.55 157.25 -74.3 160.35 M-58.65 180.1 Q-61.05 178.15 -61.9 175.0 L-61.8 172.0 Q-61.65 170.5 -59.05 169.0 L-54.4 168.0 -59.05 169.0 Q-61.65 170.5 -61.8 172.0 L-61.9 175.0 Q-61.05 178.15 -58.65 180.1 M-32.65 174.0 L-42.55 163.85 -61.3 147.6 -71.3 139.5 -106.4 113.6 -109.3 110.1 -106.4 113.6 -71.3 139.5 -61.3 147.6 -42.55 163.85 -32.65 174.0 M-116.3 82.6 L-115.15 74.85 -115.15 74.5 -115.05 74.5 -115.15 74.5 -115.15 74.85 -115.05 74.5 -115.05 70.25 -115.05 74.5 -115.15 74.85 -116.3 82.6 M-116.9 84.65 L-116.55 83.5 -116.9 84.65 M-116.8 77.6 L-116.55 82.75 -116.8 82.6 -116.9 79.6 -116.8 82.6 -116.55 82.75 -116.8 77.6 -116.9 77.6 -116.8 77.6 -117.05 76.4 -116.8 77.6 M-39.9 198.25 L-40.05 197.6 -39.9 198.25 M-28.9 210.55 L-28.4 210.5 -28.9 210.55 M-26.9 211.35 L-27.9 210.85 -28.35 210.85 -27.9 210.85 -26.9 211.35 M-34.65 206.1 L-34.75 205.45 -35.4 204.5 -38.15 201.35 -38.65 200.25 -38.15 201.35 -35.4 204.5 -34.75 205.45 -34.65 205.6 -30.85 209.2 -34.65 205.6 -34.75 205.45 -34.65 206.1 M-39.05 199.75 L-39.4 198.85 -39.05 199.75" fill="#ffffff" fill-rule="evenodd" stroke="none"/>
    <path d="M88.85 101.85 Q106.75 114.95 108.45 122.6 L107.6 123.25 106.1 123.25 95.95 121.1 93.6 121.0 91.45 122.0 90.7 124.75 91.35 143.5 90.2 145.35 88.7 145.1 87.6 144.35 78.35 133.75 Q75.85 131.05 74.85 131.1 L77.2 127.35 83.6 115.1 88.85 101.85 M-128.05 40.1 L-123.05 87.6 Q-122.25 98.35 -123.15 99.1 L-123.9 99.25 -125.9 97.5 -140.55 78.75 -140.9 78.55 -156.05 69.0 -168.05 60.75 -164.4 54.1 -164.15 50.1 -165.65 45.0 -170.4 39.6 -176.15 35.35 -176.4 33.85 -177.65 30.0 -182.9 21.0 -183.15 18.85 Q-164.4 26.85 -152.15 25.35 L-145.65 23.25 Q-138.85 18.3 -139.3 17.6 L-135.9 13.5 -131.8 6.1 -131.15 9.5 -128.05 40.1 M-142.8 76.35 L-143.05 76.0 -142.8 76.35 M-140.9 78.55 L-141.05 78.1 -142.05 77.1 -141.05 78.1 -140.9 78.55" fill="#fa410f" fill-rule="evenodd" stroke="none"/>
    <path d="M-225.8 37.25 Q-228.35 21.3 -223.15 15.1 L-219.9 10.6 -216.9 10.0 Q-217.75 9.05 -199.3 14.35 L-200.9 16.1 -201.3 17.6 Q-200.65 24.35 -195.05 23.6 L-195.8 25.6 -201.4 24.35 Q-208.65 24.15 -210.4 25.75 L-214.05 27.25 Q-222.4 33.15 -222.3 33.85 L-225.8 37.25 M-192.3 -12.15 L-193.9 -17.75 -194.05 -25.0 -192.55 -31.15 Q-193.3 -30.85 -189.05 -38.25 L-183.15 -43.75 -176.9 -47.4 -170.15 -48.75 -175.05 -43.25 -182.65 -31.15 -187.15 -23.0 -192.3 -12.15 M-187.3 18.5 L-182.9 21.0 -177.65 30.0 -176.4 33.85 -176.15 35.35 -187.3 28.85 -191.4 27.25 -191.4 22.75 -191.05 21.5 -187.3 18.5" fill="#ff7a16" fill-rule="evenodd" stroke="none"/>
    <path d="M-168.05 60.75 Q-178.9 75.4 -199.3 81.85 -208.1 84.65 -231.65 75.75 L-231.8 75.6 -231.9 75.6 -232.05 75.6 -232.9 75.25 -232.9 75.1 -233.05 75.1 -233.15 75.0 -233.3 75.0 -233.4 74.85 Q-254.25 67.15 -225.8 37.25 L-222.3 33.85 Q-222.4 33.15 -214.05 27.25 L-210.4 25.75 Q-208.65 24.15 -201.4 24.35 L-195.8 25.6 -195.05 23.6 -191.65 16.6 -190.3 14.6 -190.3 14.5 -192.8 12.35 -195.65 7.0 -195.8 -0.65 -192.3 -12.15 -187.15 -23.0 -182.65 -31.15 -175.05 -43.25 -170.15 -48.75 -163.9 -53.15 Q-158.0 -54.95 -154.8 -53.5 L-160.15 -64.9 Q-162.75 -71.75 -152.55 -71.65 -141.3 -70.55 -142.55 -66.4 L-142.9 -65.0 -144.55 -63.25 -146.15 -63.15 -155.4 -66.4 -156.3 -66.15 -154.65 -64.15 -148.15 -55.5 -146.3 -52.5 -146.4 -50.4 -136.15 -43.65 -131.15 -39.25 -127.3 -34.5 -125.05 -29.4 -124.15 -23.0 -124.9 -14.9 -126.9 -6.75 -131.8 6.1 -135.9 13.5 -139.3 17.6 Q-138.85 18.3 -145.65 23.25 L-152.15 25.35 Q-164.4 26.85 -183.15 18.85 L-185.4 17.6 -185.9 17.5 -187.3 16.85 -190.15 14.6 -190.3 14.5 -190.15 14.6 -187.3 16.85 -185.9 17.5 -186.3 17.6 -187.3 18.5 -191.05 21.5 -191.4 22.75 -191.4 27.25 -187.3 28.85 -176.15 35.35 -170.4 39.6 -165.65 45.0 -164.15 50.1 -164.4 54.1 -168.05 60.75 M-176.65 -31.15 L-172.4 -37.65 -170.9 -39.25 Q-159.7 -54.3 -141.4 -39.25 L-135.65 -35.0 -132.05 -31.15 -129.3 -25.9 -128.55 -20.5 -129.15 -14.9 -131.15 -6.75 -132.9 -1.5 -135.8 5.1 -138.4 9.5 -138.9 10.6 -142.4 15.0 -146.05 17.6 Q-154.6 22.35 -167.4 17.6 L-177.15 14.35 Q-184.05 11.3 -184.9 9.5 -190.25 4.05 -189.3 1.35 L-189.4 -2.15 -187.65 -9.0 -181.15 -23.0 -176.65 -31.15 -181.15 -23.0 -187.65 -9.0 -189.4 -2.15 -189.3 1.35 Q-190.25 4.05 -184.9 9.5 -184.05 11.3 -177.15 14.35 L-167.4 17.6 Q-154.6 22.35 -146.05 17.6 L-142.4 15.0 -138.9 10.6 -138.4 9.5 -135.8 5.1 -132.9 -1.5 -131.15 -6.75 -129.15 -14.9 -128.55 -20.5 -129.3 -25.9 -132.05 -31.15 -135.65 -35.0 -141.4 -39.25 Q-159.7 -54.3 -170.9 -39.25 L-172.4 -37.65 -176.65 -31.15 M-154.8 -53.5 L-151.8 -52.9 -146.4 -50.4 -151.8 -52.9 -154.8 -53.5 M-156.4 -66.5 L-157.3 -67.9 -156.4 -66.5 M-190.15 14.6 L-190.3 14.6 -190.15 14.6 M-191.4 27.25 L-191.8 28.0 -192.3 28.1 -193.15 28.0 -195.55 25.75 -195.8 25.6 -195.55 25.75 -193.15 28.0 -192.3 28.1 -191.8 28.0 -191.4 27.25 M-201.05 31.0 L-195.55 32.35 -186.65 36.5 -177.55 42.0 Q-175.25 43.1 -171.65 47.25 L-170.15 50.1 Q-169.3 50.1 -169.9 54.6 L-171.55 58.25 Q-171.6 59.15 -174.9 62.85 L-184.4 71.35 -189.3 74.5 Q-204.15 83.0 -222.05 74.5 -231.9 72.05 -235.3 66.35 -236.5 66.4 -235.9 61.25 L-233.8 56.35 -229.55 50.1 -222.8 42.0 -217.3 36.5 -213.55 33.85 Q-213.4 33.25 -207.3 31.1 L-201.05 31.0 -207.3 31.1 Q-213.4 33.25 -213.55 33.85 L-217.3 36.5 -222.8 42.0 -229.55 50.1 -233.8 56.35 -235.9 61.25 Q-236.5 66.4 -235.3 66.35 -231.9 72.05 -222.05 74.5 -204.15 83.0 -189.3 74.5 L-184.4 71.35 -174.9 62.85 Q-171.6 59.15 -171.55 58.25 L-169.9 54.6 Q-169.3 50.1 -170.15 50.1 L-171.65 47.25 Q-175.25 43.1 -177.55 42.0 L-186.65 36.5 -195.55 32.35 -201.05 31.0 M-232.9 75.25 L-232.8 75.25 -232.9 75.1 -232.8 75.25 -232.3 75.35 -232.15 75.5 -232.05 75.5 -231.9 75.6 -232.05 75.5 -232.15 75.5 -232.3 75.35 -232.8 75.25 -232.9 75.25 M-232.05 75.6 L-232.05 75.5 -232.05 75.6" fill="#43396f" fill-rule="evenodd" stroke="none"/>
    <path d="M-195.05 23.6 Q-200.65 24.35 -201.3 17.6 L-200.9 16.1 -199.3 14.35 Q-199.05 13.8 -193.8 15.5 L-191.65 16.6 -195.05 23.6" fill="#000000" fill-rule="evenodd" stroke="none"/>
    <path d="M90.85 -18.4 Q59.2 -19.9 41.6 -14.9 L32.6 -11.5 27.35 -10.0 M-154.65 -64.15 Q-140.75 -63.8 -125.05 -51.9 -121.9 -48.95 -118.3 -43.75 L-115.9 -39.9 Q-108.65 -13.6 -100.9 -8.5 L-100.8 -8.5 Q-100.7 -8.6 -100.55 -8.65 L-95.8 -17.25 Q-96.4 -18.0 -94.55 -21.25 L-92.15 -23.25 -90.4 -26.15 -78.9 -39.25 Q-81.4 -50.25 -75.4 -53.25 -68.9 -55.85 -62.4 -50.65 L-57.65 -52.75 -56.9 -59.75 Q-56.3 -63.1 -54.15 -67.15 -49.5 -74.1 -45.55 -71.75 -40.35 -69.7 -37.4 -59.9 L-26.4 -62.4 -7.65 -63.65 -2.55 -63.65 19.35 -61.9 42.6 -56.65 61.1 -48.75 Q63.5 -48.1 67.2 -45.15 L79.1 -35.5 84.45 -30.5 87.1 -26.15 90.85 -18.4 Q133.5 -14.1 167.45 2.0 179.6 7.3 187.2 21.85 196.45 43.1 193.7 53.35 L192.2 56.5 189.7 58.75 Q186.1 60.35 178.95 57.5 166.75 51.3 159.35 33.85 L157.2 32.25 152.85 32.0 152.8 32.1 Q147.9 40.15 143.6 41.6 L141.35 42.25 138.35 42.25 Q129.5 40.95 129.45 25.75 130.0 25.65 129.45 25.2 128.8 24.65 126.6 23.6 L120.35 23.35 120.2 23.35 116.6 26.75 Q113.0 28.4 111.2 28.35 L107.45 28.1 Q105.1 27.55 104.2 25.75 L101.7 23.35 Q102.75 42.8 98.6 64.0 L92.7 89.5 88.85 101.85 Q106.75 114.95 108.45 122.6 L107.6 123.25 106.1 123.25 95.95 121.1 93.6 121.0 91.45 122.0 90.7 124.75 91.35 143.5 90.2 145.35 88.7 145.1 87.6 144.35 78.35 133.75 Q75.85 131.05 74.85 131.1 71.85 137.4 62.35 148.0 L50.95 158.6 39.7 165.35 31.35 169.25 Q-1.9 182.1 -32.65 174.0 L-18.9 189.1 Q-15.15 193.55 -13.9 198.75 -13.85 210.5 -20.05 212.75 L-24.55 212.75 Q-26.4 212.05 -28.35 210.85 L-28.9 210.55 -30.2 209.7 -30.6 209.4 -30.85 209.2 -33.4 207.25 -34.65 206.1 Q-63.35 179.55 -64.65 177.0 L-71.8 171.75 -72.65 171.0 Q-108.25 138.95 -117.05 121.5 -125.15 105.9 -116.8 85.1 L-116.9 84.65 -116.9 79.6 -116.9 77.6 -117.05 76.4 -117.1 71.75 -117.3 60.1 -115.15 42.1 -115.15 42.0 -121.55 40.6 -128.05 40.1 -123.05 87.6 Q-122.25 98.35 -123.15 99.1 L-123.9 99.25 -125.9 97.5 -140.55 78.75 -140.9 78.55 -156.05 69.0 -168.05 60.75 Q-178.9 75.4 -199.3 81.85 -208.1 84.65 -231.65 75.75 L-231.8 75.6 -231.9 75.6 -232.05 75.6 -232.9 75.25 -232.9 75.1 -233.05 75.1 -233.15 75.0 -233.3 75.0 -233.4 74.85 Q-254.25 67.15 -225.8 37.25 -228.35 21.3 -223.15 15.1 -230.3 -15.25 -209.9 -43.15 -193.3 -64.5 -160.15 -64.9 -162.75 -71.75 -152.55 -71.65 -141.3 -70.55 -142.55 -66.4 L-142.9 -65.0 -144.55 -63.25 -146.15 -63.15 -155.4 -66.4 -156.3 -66.15 -154.65 -64.15 -148.15 -55.5 -146.3 -52.5 -146.4 -50.4 -136.15 -43.65 -131.15 -39.25 -127.3 -34.5 -125.05 -29.4 -124.15 -23.0 -124.9 -14.9 -126.9 -6.75 -131.8 6.1 -131.15 9.5 -128.05 40.1 M160.45 34.75 L160.2 34.1 M152.8 32.1 L152.2 32.35 M129.35 23.0 L129.45 25.2 M45.2 7.85 L54.95 8.25 75.7 12.25 Q89.75 16.05 92.1 17.6 L97.2 20.1 Q100.7 21.95 101.7 23.35 M121.7 21.75 L120.35 23.35 M88.85 101.85 L83.6 115.1 77.2 127.35 74.85 131.1 M-170.15 -48.75 L-176.9 -47.4 -183.15 -43.75 -189.05 -38.25 Q-193.3 -30.85 -192.55 -31.15 L-194.05 -25.0 -193.9 -17.75 -192.3 -12.15 -187.15 -23.0 -182.65 -31.15 -175.05 -43.25 -170.15 -48.75 -163.9 -53.15 Q-158.0 -54.95 -154.8 -53.5 L-160.15 -64.9 M-176.65 -31.15 L-181.15 -23.0 -187.65 -9.0 -189.4 -2.15 -189.3 1.35 Q-190.25 4.05 -184.9 9.5 -184.05 11.3 -177.15 14.35 L-167.4 17.6 Q-154.6 22.35 -146.05 17.6 L-142.4 15.0 -138.9 10.6 -138.4 9.5 -135.8 5.1 -132.9 -1.5 -131.15 -6.75 -129.15 -14.9 -128.55 -20.5 -129.3 -25.9 -132.05 -31.15 -135.65 -35.0 -141.4 -39.25 Q-159.7 -54.3 -170.9 -39.25 L-172.4 -37.65 -176.65 -31.15 M-192.3 -12.15 L-195.8 -0.65 -195.65 7.0 -192.8 12.35 -190.3 14.5 -190.15 14.6 -187.3 16.85 -185.9 17.5 -185.4 17.6 -183.15 18.85 Q-164.4 26.85 -152.15 25.35 L-145.65 23.25 Q-138.85 18.3 -139.3 17.6 L-135.9 13.5 -131.8 6.1 M-157.3 -67.9 L-156.4 -66.5 M-146.4 -50.4 L-151.8 -52.9 -154.8 -53.5 M-100.8 -8.5 L-94.15 -1.9 Q-91.9 0.2 -89.15 1.35 -82.6 5.4 -78.8 3.25 M-92.15 -23.25 L-95.8 -17.25 M-37.4 -59.9 L-46.8 -57.65 -57.65 -52.75 M-62.4 -50.65 L-63.9 -50.0 -78.9 -39.25 M-98.05 54.25 L-97.3 55.35 -97.65 55.0 -97.8 55.25 -98.05 54.25 -101.4 50.1 -107.15 45.5 Q-110.1 43.6 -113.4 42.75 L-114.55 46.0 -115.9 53.1 -117.1 71.75 M-113.4 42.75 L-115.15 42.1 M-142.05 77.1 L-141.05 78.1 -140.9 78.55 M-143.05 76.0 L-142.8 76.35 M-115.05 74.5 L-115.15 74.5 -115.15 74.85 -115.05 74.5 -115.05 70.25 M-116.9 77.6 L-116.8 77.6 -117.05 76.4 M-116.9 79.6 L-116.8 82.6 -116.55 82.75 -116.8 77.6 M-116.55 83.5 L-116.9 84.65 M-115.15 74.85 L-116.3 82.6 M-109.3 110.1 L-106.4 113.6 -71.3 139.5 -61.3 147.6 -42.55 163.85 -32.65 174.0 M-54.4 168.0 L-59.05 169.0 Q-61.65 170.5 -61.8 172.0 L-61.9 175.0 Q-61.05 178.15 -58.65 180.1 M-73.55 152.85 L-74.65 153.85 -75.55 155.75 -75.55 157.25 -74.3 160.35 M-39.3 189.0 L-40.55 191.5 -40.9 192.85 M-40.9 193.1 L-40.55 196.35 -40.3 197.5 M-199.3 14.35 L-200.9 16.1 -201.3 17.6 Q-200.65 24.35 -195.05 23.6 L-191.65 16.6 -193.8 15.5 Q-199.05 13.8 -199.3 14.35 -217.75 9.05 -216.9 10.0 L-219.9 10.6 -223.15 15.1 M-185.9 17.5 L-186.3 17.6 -187.3 18.5 -182.9 21.0 -183.15 18.85 M-190.3 14.5 L-190.3 14.6 -190.15 14.6 M-190.3 14.6 L-191.65 16.6 M-187.3 18.5 L-191.05 21.5 -191.4 22.75 -191.4 27.25 -187.3 28.85 -176.15 35.35 -176.4 33.85 -177.65 30.0 -182.9 21.0 M-201.05 31.0 L-207.3 31.1 Q-213.4 33.25 -213.55 33.85 L-217.3 36.5 -222.8 42.0 -229.55 50.1 -233.8 56.35 -235.9 61.25 Q-236.5 66.4 -235.3 66.35 -231.9 72.05 -222.05 74.5 -204.15 83.0 -189.3 74.5 L-184.4 71.35 -174.9 62.85 Q-171.6 59.15 -171.55 58.25 L-169.9 54.6 Q-169.3 50.1 -170.15 50.1 L-171.65 47.25 Q-175.25 43.1 -177.55 42.0 L-186.65 36.5 -195.55 32.35 -201.05 31.0 M-195.8 25.6 L-195.55 25.75 -193.15 28.0 -192.3 28.1 -191.8 28.0 -191.4 27.25 M-176.15 35.35 L-170.4 39.6 -165.65 45.0 -164.15 50.1 -164.4 54.1 -168.05 60.75 M-225.8 37.25 L-222.3 33.85 Q-222.4 33.15 -214.05 27.25 L-210.4 25.75 Q-208.65 24.15 -201.4 24.35 L-195.8 25.6 -195.05 23.6 M-232.9 75.1 L-232.8 75.25 -232.3 75.35 -232.15 75.5 -232.05 75.5 -231.9 75.6 M-232.05 75.5 L-232.05 75.6 M-232.8 75.25 L-232.9 75.25 M-38.65 200.25 L-38.15 201.35 -35.4 204.5 -34.75 205.45 -34.65 205.6 -30.85 209.2 M-39.4 198.85 L-39.05 199.75 M-34.75 205.45 L-34.65 206.1 M-28.35 210.85 L-27.9 210.85 -26.9 211.35 M-28.4 210.5 L-28.9 210.55 M-40.05 197.6 L-39.9 198.25" fill="none" stroke="#000000" stroke-linecap="round" stroke-linejoin="round" stroke-width="2.15"/>
  </g>
</svg>
