<?xml version="1.0" encoding="UTF-8" standalone="no"?>
<svg xmlns:xlink="http://www.w3.org/1999/xlink" height="278.35px" width="399.6px" xmlns="http://www.w3.org/2000/svg">
  <g transform="matrix(1.0, 0.0, 0.0, 1.0, 172.8, 65.7)">
    <path d="M-60.65 -29.25 Q-51.75 -36.4 -31.05 -44.5 L-10.4 -50.9 17.35 -55.65 35.7 -55.5 Q39.9 -55.85 46.35 -54.4 L65.6 -48.4 71.35 -45.4 80.05 -37.6 69.2 -31.15 57.2 -23.0 46.95 -14.9 32.2 0.25 46.95 -14.9 57.2 -23.0 69.2 -31.15 80.05 -37.6 80.2 -37.5 Q110.2 -52.7 141.7 -60.65 162.65 -66.65 182.35 -63.65 190.4 -62.15 192.2 -61.15 L211.2 -52.9 Q229.1 -41.45 224.95 -37.75 224.25 -33.4 208.85 -32.0 199.4 -30.95 179.2 -36.65 L172.2 -36.25 172.1 -36.05 171.95 -35.9 174.45 -30.5 174.95 -26.75 Q174.9 -22.85 168.1 -20.15 L162.1 -20.15 Q159.2 -20.7 154.85 -23.0 L149.35 -26.15 Q147.65 -27.2 139.7 -25.5 L138.1 -24.65 Q138.9 -17.65 137.95 -18.15 L135.95 -15.5 Q135.0 -14.4 131.85 -13.25 115.45 -13.35 101.6 -10.15 L104.7 -4.9 113.35 19.5 117.7 40.1 Q123.9 72.15 116.35 110.0 101.45 160.25 54.6 178.5 L54.65 178.5 68.35 181.35 77.2 184.1 81.95 187.1 83.85 189.0 87.35 193.25 89.1 198.75 87.7 202.0 84.35 203.75 78.45 204.25 70.85 204.1 Q31.0 200.2 23.95 198.35 L7.85 197.6 -19.15 193.75 Q-30.85 191.8 -38.8 189.6 -62.35 185.7 -68.15 161.85 L-68.3 161.85 -68.3 161.6 -66.9 156.5 -32.05 150.1 -18.05 148.0 -11.55 147.75 13.2 149.75 14.2 149.5 14.6 149.0 13.95 147.6 9.1 143.35 -7.9 131.35 -18.3 123.25 -58.3 88.85 -59.55 74.5 -60.6 68.8 -61.8 62.6 -63.4 58.25 Q-62.75 58.15 -66.8 51.35 L-68.15 50.1 Q-70.65 43.85 -90.15 44.1 L-90.65 42.85 -92.15 42.0 -94.05 42.0 -95.8 40.85 -101.3 40.0 -95.8 40.85 -94.05 42.0 -101.4 42.0 -123.3 43.1 Q-107.9 38.2 -101.4 40.0 L-101.3 40.0 -101.15 37.25 -97.05 17.35 -95.65 14.0 -88.9 -0.9 -78.15 -14.9 -65.15 -26.4 -60.65 -29.25 -65.15 -26.4 -78.15 -14.9 -88.9 -0.9 -95.65 14.0 Q-109.35 14.7 -113.3 7.0 -113.4 3.75 -112.05 2.0 L-109.05 -1.15 Q-105.0 -5.15 -93.65 -6.15 L-91.8 -7.9 -93.8 -10.9 Q-96.1 -12.4 -98.25 -14.5 L-98.5 -14.75 Q-100.85 -17.05 -103.05 -20.0 -104.3 -22.1 -105.05 -25.9 L-104.65 -30.25 Q-97.75 -40.85 -83.05 -31.15 L-81.65 -30.0 -81.6 -30.0 -81.4 -30.65 -83.4 -40.15 -84.05 -45.5 -83.8 -49.5 Q-83.05 -55.95 -78.3 -58.65 -64.3 -59.9 -60.8 -31.15 L-60.65 -29.25 M-58.4 68.35 L-60.6 68.8 -58.4 68.35 M55.2 8.0 L57.2 6.25 67.35 1.35 76.35 -2.25 89.35 -6.75 101.6 -10.15 89.35 -6.75 76.35 -2.25 67.35 1.35 57.2 6.25 55.2 8.0 M-152.05 157.85 Q-173.8 136.1 -171.55 98.85 -162.25 61.05 -132.15 47.0 L-100.8 48.75 -103.15 51.6 -105.55 58.25 -105.55 58.5 Q-114.85 58.05 -124.4 66.35 L-126.8 68.85 -130.05 74.5 -130.55 75.1 -132.15 82.6 -132.15 88.5 -130.05 95.25 -126.3 101.35 Q-122.05 104.95 -121.3 106.6 L-120.4 107.0 -114.55 111.5 Q-108.25 115.05 -105.15 114.85 L-105.05 115.1 -104.8 116.5 -102.15 122.25 -99.05 124.85 -98.8 130.0 -98.3 131.35 -98.05 131.85 -102.4 132.1 Q-108.85 133.65 -109.55 134.5 L-112.55 135.35 -117.8 138.25 -130.8 143.75 -132.4 144.1 -137.65 147.6 -138.8 149.25 -140.4 150.6 Q-140.05 151.15 -141.65 154.5 L-140.15 162.85 -137.8 168.0 -138.8 167.75 -147.3 162.1 -152.05 157.85 M172.1 -36.05 L170.7 -39.25 170.6 -39.65 170.7 -39.25 172.1 -36.05 M138.1 -24.65 L137.1 -28.5 138.1 -24.65 M75.1 203.75 L75.7 203.75 76.2 203.85 75.7 203.75 75.1 203.75 M76.45 203.85 L77.1 203.85 78.45 204.25 77.1 203.85 76.45 203.85 M10.2 189.5 L9.1 188.25 8.2 186.5 8.1 184.85 8.2 186.5 9.1 188.25 10.2 189.5 M-50.8 172.0 Q-46.15 174.35 -40.55 174.75 L-27.15 175.85 Q-4.75 176.1 0.45 174.35 L9.45 174.5 25.7 176.0 41.2 176.35 54.6 178.5 41.2 176.35 25.7 176.0 9.45 174.5 0.45 174.35 Q-4.75 176.1 -27.15 175.85 L-40.55 174.75 Q-46.15 174.35 -50.8 172.0 M-68.15 161.85 L-68.3 161.6 -68.15 161.85 M-81.65 -27.65 L-81.6 -30.0 -81.65 -27.65" fill="#ffffff" fill-rule="evenodd" stroke="none"/>
    <path d="M-58.3 88.85 L-18.3 123.25 -7.9 131.35 9.1 143.35 13.95 147.6 14.6 149.0 14.2 149.5 13.2 149.75 -11.55 147.75 -18.05 148.0 -32.05 150.1 -66.9 156.5 -66.65 155.75 -65.4 148.6 -66.15 143.25 -68.55 139.75 -69.15 139.5 Q-74.4 135.8 -90.15 138.35 L-91.8 136.0 -92.8 135.25 -93.05 133.25 -92.65 131.35 -91.05 126.6 -86.15 125.75 -79.55 123.25 Q-74.15 121.4 -69.8 118.35 L-66.15 115.1 Q-60.85 109.4 -60.8 107.0 L-59.15 102.25 -58.3 94.85 -58.3 88.85 M-99.05 124.85 L-97.4 126.0 -95.4 126.25 -96.15 132.85 -98.05 131.85 -98.3 131.35 -98.8 130.0 -99.05 124.85" fill="#fa410f" fill-rule="evenodd" stroke="none"/>
    <path d="M-94.05 42.0 L-92.15 42.0 -90.65 42.85 -90.15 44.1 Q-70.65 43.85 -68.15 50.1 L-66.8 51.35 Q-62.75 58.15 -63.4 58.25 L-61.8 62.6 -60.6 68.8 -59.55 74.5 -58.3 88.85 -58.3 94.85 -59.15 102.25 -60.8 107.0 Q-60.85 109.4 -66.15 115.1 L-69.8 118.35 Q-74.15 121.4 -79.55 123.25 L-86.15 125.75 -91.05 126.6 -92.65 131.35 -93.05 133.25 -92.8 135.25 -91.8 138.75 -91.65 138.75 -91.8 138.85 -91.8 138.75 -91.8 138.85 -91.65 138.75 -90.15 138.35 Q-74.4 135.8 -69.15 139.5 L-68.55 139.75 -66.15 143.25 -65.4 148.6 -66.65 155.75 -66.9 156.5 -68.3 161.6 -68.3 161.85 Q-79.5 202.8 -113.4 211.0 L-114.65 211.6 -115.65 211.5 -120.65 211.25 -123.3 209.0 -124.4 204.1 -124.3 202.0 -124.4 201.85 -148.9 170.6 Q-153.85 160.7 -152.05 157.85 L-147.3 162.1 Q-146.6 167.6 -144.65 169.6 L-123.05 193.1 -119.9 180.75 -119.8 180.1 -114.4 163.85 -109.15 152.35 -105.05 146.35 -100.3 142.25 -96.05 140.1 -96.15 132.85 -95.4 126.25 -97.4 126.0 -99.05 124.85 -102.15 122.25 -104.8 116.5 -105.05 115.1 -105.15 114.85 -106.55 107.0 -107.15 98.85 -107.55 82.6 -106.8 66.35 -105.55 58.5 -105.55 58.25 -103.15 51.6 -100.8 48.75 Q-101.6 47.9 -94.65 44.85 L-90.15 44.1 -94.65 44.85 Q-101.6 47.9 -100.8 48.75 L-132.15 47.0 Q-139.75 46.6 -136.55 40.75 -129.3 35.35 -128.05 42.0 L-128.3 43.25 -123.3 43.1 -101.4 42.0 -94.05 42.0 M-67.3 58.25 L-66.15 60.25 -64.15 66.35 -62.55 74.5 -61.65 82.6 -61.3 93.5 -62.05 98.85 -63.4 104.1 -65.15 107.0 Q-65.25 108.5 -70.55 112.5 L-75.9 115.1 Q-93.55 123.35 -98.15 115.1 L-100.15 111.1 -101.65 103.5 -102.4 88.75 -102.3 75.25 -102.05 72.55 -100.9 62.5 -99.4 58.25 Q-94.55 48.85 -80.15 51.0 -69.85 51.85 -67.3 58.25 -69.85 51.85 -80.15 51.0 -94.55 48.85 -99.4 58.25 L-100.9 62.5 -102.05 72.55 -102.3 75.25 -102.4 88.75 -101.65 103.5 -100.15 111.1 -98.15 115.1 Q-93.55 123.35 -75.9 115.1 L-70.55 112.5 Q-65.25 108.5 -65.15 107.0 L-63.4 104.1 -62.05 98.85 -61.3 93.5 -61.65 82.6 -62.55 74.5 -64.15 66.35 -66.15 60.25 -67.3 58.25 M-91.05 126.6 L-92.55 126.75 -95.4 126.25 -92.55 126.75 -91.05 126.6 M-128.3 43.25 L-130.9 43.25 -132.65 42.25 -130.9 43.25 -128.3 43.25 M-102.05 72.55 L-102.3 71.85 -102.05 72.55 M-102.15 69.6 L-102.15 70.25 -102.15 69.6 M-96.05 140.1 L-92.15 140.35 -91.55 139.5 -91.8 138.85 -91.55 139.5 -92.15 140.35 -96.05 140.1 M-112.3 172.0 L-109.3 163.85 -106.3 157.5 -102.4 152.0 Q-97.1 147.15 -96.55 147.6 -74.35 140.35 -69.9 147.6 L-69.55 148.0 -69.15 151.1 -69.65 155.75 -71.9 163.85 -75.05 172.0 -79.65 182.1 -86.55 192.25 -91.3 196.35 Q-93.15 198.15 -98.55 200.75 L-108.55 204.5 Q-116.6 206.5 -116.9 204.5 L-118.3 203.25 Q-119.15 200.4 -118.55 196.35 L-117.05 188.25 -112.3 172.0 -117.05 188.25 -118.55 196.35 Q-119.15 200.4 -118.3 203.25 L-116.9 204.5 Q-116.6 206.5 -108.55 204.5 L-98.55 200.75 Q-93.15 198.15 -91.3 196.35 L-86.55 192.25 -79.65 182.1 -75.05 172.0 -71.9 163.85 -69.65 155.75 -69.15 151.1 -69.55 148.0 -69.9 147.6 Q-74.35 140.35 -96.55 147.6 -97.1 147.15 -102.4 152.0 L-106.3 157.5 -109.3 163.85 -112.3 172.0 M-124.3 201.75 L-123.05 193.1 -124.3 201.75 -124.3 202.0 -124.3 201.75 -124.4 201.85 -124.3 201.75 M-113.4 211.0 L-115.65 211.5 -113.4 211.0" fill="#43396f" fill-rule="evenodd" stroke="none"/>
    <path d="M-92.8 135.25 L-91.8 136.0 -90.15 138.35 -91.65 138.75 -91.8 138.75 -92.8 135.25 M-105.55 58.5 L-106.8 66.35 -107.55 82.6 -107.15 98.85 -106.55 107.0 -105.15 114.85 Q-108.25 115.05 -114.55 111.5 L-120.4 107.0 -121.3 106.6 Q-122.05 104.95 -126.3 101.35 L-130.05 95.25 -132.15 88.5 -132.15 82.6 -130.55 75.1 -130.05 74.5 -126.8 68.85 -124.4 66.35 Q-114.85 58.05 -105.55 58.5 M-109.55 134.5 Q-108.85 133.65 -102.4 132.1 L-98.05 131.85 -96.15 132.85 -96.05 140.1 -100.3 142.25 -105.05 146.35 -109.15 152.35 -114.4 163.85 -119.8 180.1 -119.9 180.75 Q-132.0 177.6 -137.8 168.0 L-140.15 162.85 -141.65 154.5 Q-140.05 151.15 -140.4 150.6 L-138.8 149.25 -137.65 147.6 -132.4 144.1 -130.8 143.75 -117.8 138.25 -117.65 139.5 Q-116.85 143.15 -112.8 143.6 -108.9 144.15 -107.05 139.5 L-107.3 136.85 -107.9 135.75 -109.55 134.5" fill="#ff7a16" fill-rule="evenodd" stroke="none"/>
    <path d="M-109.55 134.5 L-107.9 135.75 -107.3 136.85 -107.05 139.5 Q-108.9 144.15 -112.8 143.6 -116.85 143.15 -117.65 139.5 L-117.8 138.25 -112.55 135.35 -109.55 134.5" fill="#000000" fill-rule="evenodd" stroke="none"/>
    <path d="M80.05 -37.6 L71.35 -45.4 65.6 -48.4 46.35 -54.4 Q39.9 -55.85 35.7 -55.5 L17.35 -55.65 -10.4 -50.9 -31.05 -44.5 Q-51.75 -36.4 -60.65 -29.25 L-65.15 -26.4 -78.15 -14.9 -88.9 -0.9 -95.65 14.0 -97.05 17.35 -101.15 37.25 -101.3 40.0 -95.8 40.85 -94.05 42.0 -92.15 42.0 -90.65 42.85 -90.15 44.1 Q-70.65 43.85 -68.15 50.1 L-66.8 51.35 Q-62.75 58.15 -63.4 58.25 L-61.8 62.6 -60.6 68.8 -58.4 68.35 M80.05 -37.6 L69.2 -31.15 57.2 -23.0 46.95 -14.9 32.2 0.25 M172.1 -36.05 L172.2 -36.25 179.2 -36.65 Q199.4 -30.95 208.85 -32.0 224.25 -33.4 224.95 -37.75 229.1 -41.45 211.2 -52.9 L192.2 -61.15 Q190.4 -62.15 182.35 -63.65 162.65 -66.65 141.7 -60.65 110.2 -52.7 80.2 -37.5 L80.05 -37.6 M101.6 -10.15 L89.35 -6.75 76.35 -2.25 67.35 1.35 57.2 6.25 55.2 8.0 M172.1 -36.05 L171.95 -35.9 174.45 -30.5 174.95 -26.75 Q174.9 -22.85 168.1 -20.15 L162.1 -20.15 Q159.2 -20.7 154.85 -23.0 L149.35 -26.15 Q147.65 -27.2 139.7 -25.5 L138.1 -24.65 Q138.9 -17.65 137.95 -18.15 L135.95 -15.5 Q135.0 -14.4 131.85 -13.25 115.45 -13.35 101.6 -10.15 L104.7 -4.9 113.35 19.5 117.7 40.1 Q123.9 72.15 116.35 110.0 101.45 160.25 54.6 178.5 L54.65 178.5 68.35 181.35 77.2 184.1 81.95 187.1 83.85 189.0 87.35 193.25 89.1 198.75 87.7 202.0 84.35 203.75 78.45 204.25 70.85 204.1 Q31.0 200.2 23.95 198.35 L7.85 197.6 -19.15 193.75 Q-30.85 191.8 -38.8 189.6 -62.35 185.7 -68.15 161.85 L-68.3 161.85 Q-79.5 202.8 -113.4 211.0 L-114.65 211.6 -115.65 211.5 -120.65 211.25 -123.3 209.0 -124.4 204.1 -124.3 202.0 -124.4 201.85 -148.9 170.6 Q-153.85 160.7 -152.05 157.85 -173.8 136.1 -171.55 98.85 -162.25 61.05 -132.15 47.0 -139.75 46.6 -136.55 40.75 -129.3 35.35 -128.05 42.0 L-128.3 43.25 -123.3 43.1 Q-107.9 38.2 -101.4 40.0 L-101.3 40.0 M137.1 -28.5 L138.1 -24.65 M170.6 -39.65 L170.7 -39.25 172.1 -36.05 M-66.9 156.5 L-32.05 150.1 -18.05 148.0 -11.55 147.75 13.2 149.75 14.2 149.5 14.6 149.0 13.95 147.6 9.1 143.35 -7.9 131.35 -18.3 123.25 -58.3 88.85 -58.3 94.85 -59.15 102.25 -60.8 107.0 Q-60.85 109.4 -66.15 115.1 L-69.8 118.35 Q-74.15 121.4 -79.55 123.25 L-86.15 125.75 -91.05 126.6 -92.65 131.35 -93.05 133.25 -92.8 135.25 -91.8 136.0 -90.15 138.35 Q-74.4 135.8 -69.15 139.5 L-68.55 139.75 -66.15 143.25 -65.4 148.6 -66.65 155.75 -66.9 156.5 -68.3 161.6 -68.15 161.85 M54.6 178.5 L41.2 176.35 25.7 176.0 9.45 174.5 0.45 174.35 Q-4.75 176.1 -27.15 175.85 L-40.55 174.75 Q-46.15 174.35 -50.8 172.0 M8.1 184.85 L8.2 186.5 9.1 188.25 10.2 189.5 M78.45 204.25 L77.1 203.85 76.45 203.85 M76.2 203.85 L75.7 203.75 75.1 203.75 M-60.65 -29.25 L-60.8 -31.15 Q-64.3 -59.9 -78.3 -58.65 -83.05 -55.95 -83.8 -49.5 L-84.05 -45.5 -83.4 -40.15 -81.4 -30.65 -81.6 -30.0 -81.65 -27.65 M-81.6 -30.0 L-81.65 -30.0 -83.05 -31.15 Q-97.75 -40.85 -104.65 -30.25 L-105.05 -25.9 Q-104.3 -22.1 -103.05 -20.0 -100.85 -17.05 -98.5 -14.75 L-98.25 -14.5 Q-96.1 -12.4 -93.8 -10.9 L-91.8 -7.9 -93.65 -6.15 Q-105.0 -5.15 -109.05 -1.15 L-112.05 2.0 Q-113.4 3.75 -113.3 7.0 -109.35 14.7 -95.65 14.0 M-67.3 58.25 Q-69.85 51.85 -80.15 51.0 -94.55 48.85 -99.4 58.25 L-100.9 62.5 -102.05 72.55 -102.3 75.25 -102.4 88.75 -101.65 103.5 -100.15 111.1 -98.15 115.1 Q-93.55 123.35 -75.9 115.1 L-70.55 112.5 Q-65.25 108.5 -65.15 107.0 L-63.4 104.1 -62.05 98.85 -61.3 93.5 -61.65 82.6 -62.55 74.5 -64.15 66.35 -66.15 60.25 -67.3 58.25 M-60.6 68.8 L-59.55 74.5 -58.3 88.85 M-90.15 44.1 L-94.65 44.85 Q-101.6 47.9 -100.8 48.75 L-103.15 51.6 -105.55 58.25 -105.55 58.5 -106.8 66.35 -107.55 82.6 -107.15 98.85 -106.55 107.0 -105.15 114.85 -105.05 115.1 -104.8 116.5 -102.15 122.25 -99.05 124.85 -97.4 126.0 -95.4 126.25 -92.55 126.75 -91.05 126.6 M-123.3 43.1 L-101.4 42.0 -94.05 42.0 M-132.65 42.25 L-130.9 43.25 -128.3 43.25 M-105.55 58.5 Q-114.85 58.05 -124.4 66.35 L-126.8 68.85 -130.05 74.5 -130.55 75.1 -132.15 82.6 -132.15 88.5 -130.05 95.25 -126.3 101.35 Q-122.05 104.95 -121.3 106.6 L-120.4 107.0 -114.55 111.5 Q-108.25 115.05 -105.15 114.85 M-102.15 70.25 L-102.15 69.6 M-102.3 71.85 L-102.05 72.55 M-100.8 48.75 L-132.15 47.0 M-98.05 131.85 L-102.4 132.1 Q-108.85 133.65 -109.55 134.5 L-107.9 135.75 -107.3 136.85 -107.05 139.5 Q-108.9 144.15 -112.8 143.6 -116.85 143.15 -117.65 139.5 L-117.8 138.25 -130.8 143.75 -132.4 144.1 -137.65 147.6 -138.8 149.25 -140.4 150.6 Q-140.05 151.15 -141.65 154.5 L-140.15 162.85 -137.8 168.0 Q-132.0 177.6 -119.9 180.75 L-119.8 180.1 -114.4 163.85 -109.15 152.35 -105.05 146.35 -100.3 142.25 -96.05 140.1 -96.15 132.85 -98.05 131.85 -98.3 131.35 -98.8 130.0 -99.05 124.85 M-109.55 134.5 L-112.55 135.35 -117.8 138.25 M-95.4 126.25 L-96.15 132.85 M-91.8 138.75 L-91.8 138.85 -91.65 138.75 -91.8 138.75 -92.8 135.25 M-91.8 138.85 L-91.55 139.5 -92.15 140.35 -96.05 140.1 M-91.65 138.75 L-90.15 138.35 M-137.8 168.0 L-138.8 167.75 -147.3 162.1 Q-146.6 167.6 -144.65 169.6 L-123.05 193.1 -119.9 180.75 M-147.3 162.1 L-152.05 157.85 M-112.3 172.0 L-117.05 188.25 -118.55 196.35 Q-119.15 200.4 -118.3 203.25 L-116.9 204.5 Q-116.6 206.5 -108.55 204.5 L-98.55 200.75 Q-93.15 198.15 -91.3 196.35 L-86.55 192.25 -79.65 182.1 -75.05 172.0 -71.9 163.85 -69.65 155.75 -69.15 151.1 -69.55 148.0 -69.9 147.6 Q-74.35 140.35 -96.55 147.6 -97.1 147.15 -102.4 152.0 L-106.3 157.5 -109.3 163.85 -112.3 172.0 M-68.3 161.85 L-68.3 161.6 M-115.65 211.5 L-113.4 211.0 M-124.3 202.0 L-124.3 201.75 -124.4 201.85 M-123.05 193.1 L-124.3 201.75" fill="none" stroke="#000000" stroke-linecap="round" stroke-linejoin="round" stroke-width="2.15"/>
  </g>
</svg>
