<?xml version="1.0" encoding="UTF-8" standalone="no"?>
<svg xmlns:xlink="http://www.w3.org/1999/xlink" height="370.15px" width="317.0px" xmlns="http://www.w3.org/2000/svg">
  <g transform="matrix(1.0, 0.0, 0.0, 1.0, 126.2, 130.95)">
    <path d="M-71.15 116.85 Q-96.35 72.4 -88.8 32.25 L-88.9 32.25 Q-104.4 46.65 -120.4 41.85 -126.4 40.45 -120.4 30.6 -119.05 28.55 -114.15 25.25 L-105.3 21.6 -105.15 21.6 -104.05 20.35 -104.4 19.75 -106.55 18.0 Q-118.05 13.8 -120.05 11.35 -122.15 9.55 -123.8 6.5 L-125.05 3.25 Q-126.15 -5.75 -111.3 -6.75 L-107.55 -6.4 -99.55 -3.9 Q-110.6 -19.15 -107.9 -29.4 L-106.55 -31.9 -105.8 -32.5 -103.3 -33.4 Q-89.05 -34.95 -78.8 -6.75 L-77.15 -2.25 -76.05 2.85 Q-63.9 -19.5 -7.8 -48.9 L13.45 -55.9 17.85 -56.9 36.45 -58.5 44.1 -58.5 50.7 -56.9 57.5 -54.45 57.6 -54.4 Q73.95 -77.95 91.85 -95.25 L103.95 -106.25 Q113.45 -114.0 115.95 -115.25 136.35 -128.7 169.7 -129.9 L178.2 -129.65 Q183.65 -129.15 187.85 -127.65 L189.6 -126.0 Q190.2 -121.95 188.35 -120.15 L183.6 -115.65 Q177.0 -110.9 171.7 -108.65 L160.45 -104.5 150.2 -101.9 144.95 -99.75 140.6 -97.15 148.6 -93.25 150.85 -91.25 Q153.9 -86.75 148.7 -81.75 147.25 -77.9 125.6 -76.5 L121.85 -75.0 116.2 -71.15 116.15 -70.95 116.1 -70.9 120.6 -67.5 122.1 -64.75 Q123.0 -59.65 116.7 -55.5 96.05 -45.45 88.0 -37.0 89.85 -37.95 110.2 -14.15 L120.95 2.1 Q129.9 16.7 139.6 40.35 L144.35 60.25 145.7 78.35 144.45 96.1 143.45 100.5 138.1 118.25 127.6 137.35 120.35 146.6 133.85 142.0 Q138.75 140.15 147.95 138.6 L156.6 138.75 160.1 139.5 Q180.5 145.35 167.2 152.75 130.45 166.8 124.2 171.1 L109.2 176.6 101.95 180.75 94.1 184.6 60.95 197.5 58.8 183.5 54.7 165.25 63.85 155.75 85.95 131.35 98.45 120.0 117.7 107.0 Q125.0 102.4 120.6 102.1 L113.35 102.5 Q95.9 105.3 85.7 105.85 L73.1 106.25 26.35 105.75 21.1 98.85 9.7 85.75 6.2 82.6 Q-7.9 71.55 -16.55 82.25 L-17.55 81.5 -18.4 81.35 -21.05 82.6 -38.3 96.25 -38.4 96.35 -42.3 97.0 -50.55 101.75 -59.65 111.35 -61.8 114.75 -59.65 111.35 -50.55 101.75 -42.3 97.0 -38.4 96.35 -61.4 114.5 -61.8 114.75 -62.4 115.1 -68.3 117.75 -69.3 117.85 -69.65 117.35 -71.15 116.85 M-26.8 223.0 Q-47.9 217.05 -60.55 202.85 L-65.65 197.6 -72.05 187.25 -75.9 175.35 -77.15 163.35 Q-78.55 149.4 -67.4 123.75 L-67.8 123.1 -66.65 122.5 -28.8 96.85 -25.3 97.6 -15.65 102.1 -25.3 97.6 -28.8 96.85 -20.05 90.75 -19.65 90.6 -19.4 90.75 -19.15 93.6 -15.55 102.1 -15.65 102.1 -15.55 102.25 -15.05 103.0 -18.65 103.6 -24.65 106.25 -25.65 106.35 -25.8 106.75 -25.8 106.85 -26.05 107.0 -31.05 110.75 -34.4 115.1 -36.15 118.25 -37.9 123.25 -38.55 124.5 -38.8 130.5 -37.15 136.75 -33.8 142.35 -28.65 147.1 -27.55 147.6 -22.8 150.6 Q-16.75 152.9 -8.9 153.5 9.9 154.4 11.45 147.6 L11.95 147.0 12.35 147.6 12.45 148.6 18.6 161.75 19.7 163.0 18.6 163.85 16.7 166.0 13.7 172.0 13.7 172.1 9.85 180.0 9.7 180.1 7.1 184.85 4.7 188.25 Q3.7 191.05 1.2 194.1 L-1.4 200.35 -2.05 204.5 Q-2.75 203.65 -2.15 210.6 L-0.9 212.6 Q-1.8 214.8 11.35 219.25 L9.95 220.6 0.6 224.35 -10.55 225.5 -18.3 224.75 -23.05 224.1 -26.8 223.0 M-99.15 -1.75 L-99.55 -3.9 -99.15 -1.75 M116.15 -70.95 L113.6 -72.65 116.15 -70.95 M137.95 -98.5 Q139.3 -97.8 140.6 -97.15 139.3 -97.8 137.95 -98.5 M32.35 3.1 L33.1 1.35 37.6 -14.9 40.7 -23.0 52.95 -47.4 57.5 -54.45 52.95 -47.4 40.7 -23.0 37.6 -14.9 33.1 1.35 32.35 3.1 M55.85 0.75 L56.95 -2.25 66.85 -14.9 74.1 -23.0 87.85 -36.9 88.0 -37.0 87.85 -36.9 74.1 -23.0 66.85 -14.9 56.95 -2.25 55.85 0.75 M120.35 146.6 L115.1 148.75 Q113.6 150.25 103.6 155.75 L101.45 157.35 88.1 163.85 81.85 167.35 70.45 176.35 58.8 183.5 70.45 176.35 81.85 167.35 88.1 163.85 101.45 157.35 103.6 155.75 Q113.6 150.25 115.1 148.75 L120.35 146.6 M-67.4 123.75 L-67.05 123.25 -66.65 122.5 -67.05 123.25 -67.4 123.75 M-88.8 32.1 L-88.05 28.35 -82.4 14.0 -76.05 2.85 -82.4 14.0 -88.05 28.35 -88.8 32.1 -88.8 32.25 -88.8 32.1 -88.9 32.25 -88.8 32.1" fill="#ffffff" fill-rule="evenodd" stroke="none"/>
    <path d="M60.95 197.5 L61.7 208.6 Q61.7 215.4 59.7 222.5 53.7 242.15 48.7 237.1 L-4.05 233.75 -12.9 232.75 Q-23.5 231.6 -26.8 223.0 L-23.05 224.1 -18.3 224.75 Q-11.25 230.05 -1.4 229.6 L-1.4 229.75 3.45 229.6 -1.4 229.75 -1.4 229.6 3.45 229.6 44.2 229.6 42.35 224.6 38.1 209.35 37.95 209.35 37.95 209.25 33.1 188.25 31.85 180.1 31.45 172.0 31.95 167.0 32.95 163.85 33.1 163.0 34.45 161.6 35.1 161.6 36.1 160.75 35.95 159.85 35.2 159.0 37.85 155.75 Q47.45 146.7 51.1 155.75 L52.2 157.85 54.35 163.85 54.7 165.25 58.8 183.5 60.95 197.5 M-67.8 123.1 Q-72.55 125.6 -74.3 122.6 -77.1 118.5 -71.15 116.85 L-69.65 117.35 -69.3 117.85 -68.3 117.75 -62.4 115.1 -61.8 114.75 -61.4 114.5 -38.4 96.35 -38.3 96.25 -21.05 82.6 -18.4 81.35 -17.55 81.5 -16.55 82.25 Q-7.9 71.55 6.2 82.6 L9.7 85.75 21.1 98.85 26.35 105.75 32.2 115.1 34.6 120.35 36.2 126.85 36.2 131.35 35.6 135.85 31.95 145.35 29.45 149.0 26.6 150.5 29.45 149.0 32.6 155.75 35.2 159.0 35.95 159.85 36.1 160.75 35.1 161.6 34.45 161.6 33.1 163.0 26.6 150.5 Q26.0 151.5 21.2 150.0 L18.35 147.6 16.95 146.75 13.95 143.75 13.85 143.6 13.95 143.75 13.85 143.75 13.85 143.6 10.2 139.5 -3.8 120.85 -8.8 113.35 -15.05 103.0 -15.55 102.25 -15.55 102.1 -15.55 102.25 -15.65 102.1 -15.55 102.1 -19.15 93.6 -19.4 90.75 -19.65 90.6 -20.05 90.75 -28.8 96.85 -66.65 122.5 -67.8 123.1 M-19.65 90.6 Q-20.3 88.85 -18.4 84.6 L-16.9 82.6 -16.55 82.25 -16.9 82.6 -18.4 84.6 Q-20.3 88.85 -19.65 90.6 M-5.55 82.6 Q-4.8 81.8 -1.05 81.75 L1.7 82.6 5.6 85.1 11.45 90.75 18.6 98.85 24.7 107.0 29.7 115.1 31.6 119.35 32.45 123.25 32.6 127.0 31.85 131.35 31.2 133.5 28.35 139.5 Q24.0 146.9 16.85 139.75 L16.6 139.5 15.95 138.8 12.1 134.85 -2.3 115.1 -11.05 101.1 -13.3 94.75 -13.55 91.5 -13.3 90.75 Q-13.05 88.5 -10.8 86.25 L-5.55 82.6 -10.8 86.25 Q-13.05 88.5 -13.3 90.75 L-13.55 91.5 -13.3 94.75 -11.05 101.1 -2.3 115.1 12.1 134.85 15.95 138.8 16.6 139.5 16.85 139.75 Q24.0 146.9 28.35 139.5 L31.2 133.5 31.85 131.35 32.6 127.0 32.45 123.25 31.6 119.35 29.7 115.1 24.7 107.0 18.6 98.85 11.45 90.75 5.6 85.1 1.7 82.6 -1.05 81.75 Q-4.8 81.8 -5.55 82.6 M-70.05 118.1 L-69.3 117.85 -70.05 118.1 M16.85 139.75 L16.45 139.5 15.95 138.8 16.45 139.5 16.85 139.75 M37.85 166.6 L39.45 163.85 44.1 158.75 Q46.35 157.1 48.1 157.5 L50.2 159.35 52.35 163.85 54.7 172.0 58.1 188.25 59.2 196.35 59.85 207.85 58.85 215.25 55.1 225.6 53.2 228.85 51.35 230.35 49.45 229.5 49.2 228.85 47.6 226.25 45.7 220.75 39.2 196.35 37.45 188.25 35.95 175.5 36.45 172.0 36.45 171.85 36.45 171.35 Q36.55 169.85 37.85 166.6 36.55 169.85 36.45 171.35 L36.45 171.85 36.45 172.0 35.95 175.5 37.45 188.25 39.2 196.35 45.7 220.75 47.6 226.25 49.2 228.85 49.45 229.5 51.35 230.35 53.2 228.85 55.1 225.6 58.85 215.25 59.85 207.85 59.2 196.35 58.1 188.25 54.7 172.0 52.35 163.85 50.2 159.35 48.1 157.5 Q46.35 157.1 44.1 158.75 L39.45 163.85 37.85 166.6 M58.9 197.75 L58.7 196.75 58.35 193.1 58.05 191.8 57.6 188.35 58.05 191.8 58.35 193.1 58.7 196.75 58.85 197.1 58.9 197.75 59.2 200.85 59.2 201.25 59.35 204.5 59.45 205.0 59.45 205.25 59.45 205.0 59.35 204.5 59.2 201.25 59.2 200.85 58.9 197.75 58.85 197.1 58.7 196.75 58.9 197.75 M55.45 177.85 L55.45 177.1 55.45 177.85 M55.85 179.75 L55.85 179.0 55.85 179.75 M55.6 178.6 L55.6 178.1 55.6 178.6 M59.45 205.0 L59.2 204.5 59.2 201.25 59.2 204.5 59.45 205.0 M48.7 237.1 L48.7 237.0 48.1 236.85 Q44.0 230.45 44.2 229.6 44.0 230.45 48.1 236.85 L48.7 237.0 48.7 237.1 M37.95 209.25 L38.1 209.35 37.95 209.25" fill="#43396f" fill-rule="evenodd" stroke="none"/>
    <path d="M26.35 105.75 L73.1 106.25 85.7 105.85 Q95.9 105.3 113.35 102.5 L120.6 102.1 Q125.0 102.4 117.7 107.0 L98.45 120.0 85.95 131.35 63.85 155.75 54.7 165.25 54.35 163.85 52.2 157.85 51.1 155.75 Q47.45 146.7 37.85 155.75 L35.2 159.0 32.6 155.75 29.45 149.0 31.95 145.35 35.6 135.85 36.2 131.35 36.2 126.85 34.6 120.35 32.2 115.1 26.35 105.75 M13.95 143.75 L16.95 146.75 18.35 147.6 21.2 150.0 Q26.0 151.5 26.6 150.5 L33.1 163.0 32.95 163.85 31.95 167.0 29.35 165.25 24.1 162.85 19.7 163.0 18.6 161.75 12.45 148.6 12.35 147.6 11.95 147.0 13.85 143.75 13.95 143.75 M-25.65 106.75 L-25.8 106.75 -25.65 106.35 -24.65 106.25 -25.65 106.75" fill="#fa410f" fill-rule="evenodd" stroke="none"/>
    <path d="M-15.05 103.0 L-8.8 113.35 -10.65 113.5 -13.15 115.1 Q-16.9 119.8 -9.15 123.25 L-6.9 123.25 -5.15 122.35 -3.8 120.85 10.2 139.5 13.85 143.6 13.85 143.75 11.95 147.0 11.45 147.6 Q9.9 154.4 -8.9 153.5 -16.75 152.9 -22.8 150.6 L-27.55 147.6 -28.65 147.1 -33.8 142.35 -37.15 136.75 -38.8 130.5 -38.55 124.5 -37.9 123.25 -36.15 118.25 -34.4 115.1 -31.05 110.75 -26.05 107.0 -25.8 106.85 -25.8 106.75 -25.65 106.75 -25.8 106.85 -25.65 106.75 -24.65 106.25 -18.65 103.6 -15.05 103.0 M11.35 219.25 Q-1.8 214.8 -0.9 212.6 L-2.15 210.6 Q-2.75 203.65 -2.05 204.5 L-1.4 200.35 1.2 194.1 Q3.7 191.05 4.7 188.25 L7.1 184.85 9.7 180.1 9.85 180.0 10.2 180.1 Q13.2 184.1 18.7 180.1 22.45 172.85 13.7 172.1 L13.7 172.0 16.7 166.0 18.6 163.85 19.7 163.0 24.1 162.85 29.35 165.25 31.95 167.0 31.45 172.0 31.85 180.1 33.1 188.25 37.95 209.25 37.95 209.35 Q31.0 220.65 11.35 219.25" fill="#ff7a16" fill-rule="evenodd" stroke="none"/>
    <path d="M-8.8 113.35 L-3.8 120.85 -5.15 122.35 -6.9 123.25 -9.15 123.25 Q-16.9 119.8 -13.15 115.1 L-10.65 113.5 -8.8 113.35 M13.7 172.1 Q22.45 172.85 18.7 180.1 13.2 184.1 10.2 180.1 L9.85 180.0 13.7 172.1" fill="#000000" fill-rule="evenodd" stroke="none"/>
    <path d="M-71.15 116.85 Q-96.35 72.4 -88.8 32.25 L-88.9 32.25 Q-104.4 46.65 -120.4 41.85 -126.4 40.45 -120.4 30.6 -119.05 28.55 -114.15 25.25 L-105.3 21.6 -105.15 21.6 -104.05 20.35 -104.4 19.75 -106.55 18.0 Q-118.05 13.8 -120.05 11.35 -122.15 9.55 -123.8 6.5 L-125.05 3.25 Q-126.15 -5.75 -111.3 -6.75 L-107.55 -6.4 -99.55 -3.9 Q-110.6 -19.15 -107.9 -29.4 L-106.55 -31.9 -105.8 -32.5 -103.3 -33.4 Q-89.05 -34.95 -78.8 -6.75 L-77.15 -2.25 -76.05 2.85 Q-63.9 -19.5 -7.8 -48.9 L13.45 -55.9 17.85 -56.9 36.45 -58.5 44.1 -58.5 50.7 -56.9 57.5 -54.45 57.6 -54.4 Q73.95 -77.95 91.85 -95.25 L103.95 -106.25 Q113.45 -114.0 115.95 -115.25 136.35 -128.7 169.7 -129.9 L178.2 -129.65 Q183.65 -129.15 187.85 -127.65 L189.6 -126.0 Q190.2 -121.95 188.35 -120.15 L183.6 -115.65 Q177.0 -110.9 171.7 -108.65 L160.45 -104.5 150.2 -101.9 144.95 -99.75 140.6 -97.15 148.6 -93.25 150.85 -91.25 Q153.9 -86.75 148.7 -81.75 147.25 -77.9 125.6 -76.5 L121.85 -75.0 116.2 -71.15 116.15 -70.95 116.1 -70.9 120.6 -67.5 122.1 -64.75 Q123.0 -59.65 116.7 -55.5 96.05 -45.45 88.0 -37.0 89.85 -37.95 110.2 -14.15 L120.95 2.1 Q129.9 16.7 139.6 40.35 L144.35 60.25 145.7 78.35 144.45 96.1 143.45 100.5 138.1 118.25 127.6 137.35 120.35 146.6 133.85 142.0 Q138.75 140.15 147.95 138.6 L156.6 138.75 160.1 139.5 Q180.5 145.35 167.2 152.75 130.45 166.8 124.2 171.1 L109.2 176.6 101.95 180.75 94.1 184.6 60.95 197.5 61.7 208.6 Q61.7 215.4 59.7 222.5 53.7 242.15 48.7 237.1 L-4.05 233.75 -12.9 232.75 Q-23.5 231.6 -26.8 223.0 -47.9 217.05 -60.55 202.85 L-65.65 197.6 -72.05 187.25 -75.9 175.35 -77.15 163.35 Q-78.55 149.4 -67.4 123.75 L-67.8 123.1 Q-72.55 125.6 -74.3 122.6 -77.1 118.5 -71.15 116.85 L-69.65 117.35 -69.3 117.85 -68.3 117.75 -62.4 115.1 -61.8 114.75 -59.65 111.35 -50.55 101.75 -42.3 97.0 -38.4 96.35 -38.3 96.25 -21.05 82.6 -18.4 81.35 -17.55 81.5 -16.55 82.25 Q-7.9 71.55 6.2 82.6 L9.7 85.75 21.1 98.85 26.35 105.75 73.1 106.25 85.7 105.85 Q95.9 105.3 113.35 102.5 L120.6 102.1 Q125.0 102.4 117.7 107.0 L98.45 120.0 85.95 131.35 63.85 155.75 54.7 165.25 58.8 183.5 70.45 176.35 81.85 167.35 88.1 163.85 101.45 157.35 103.6 155.75 Q113.6 150.25 115.1 148.75 L120.35 146.6 M88.0 -37.0 L87.85 -36.9 74.1 -23.0 66.85 -14.9 56.95 -2.25 55.85 0.75 M57.5 -54.45 L52.95 -47.4 40.7 -23.0 37.6 -14.9 33.1 1.35 32.35 3.1 M140.6 -97.15 Q139.3 -97.8 137.95 -98.5 M113.6 -72.65 L116.15 -70.95 M-99.55 -3.9 L-99.15 -1.75 M-15.65 102.1 L-25.3 97.6 -28.8 96.85 -66.65 122.5 -67.05 123.25 -67.4 123.75 M-5.55 82.6 L-10.8 86.25 Q-13.05 88.5 -13.3 90.75 L-13.55 91.5 -13.3 94.75 -11.05 101.1 -2.3 115.1 12.1 134.85 15.95 138.8 16.6 139.5 16.85 139.75 Q24.0 146.9 28.35 139.5 L31.2 133.5 31.85 131.35 32.6 127.0 32.45 123.25 31.6 119.35 29.7 115.1 24.7 107.0 18.6 98.85 11.45 90.75 5.6 85.1 1.7 82.6 -1.05 81.75 Q-4.8 81.8 -5.55 82.6 M-16.55 82.25 L-16.9 82.6 -18.4 84.6 Q-20.3 88.85 -19.65 90.6 L-19.4 90.75 -19.15 93.6 -15.55 102.1 -15.55 102.25 -15.05 103.0 -8.8 113.35 -3.8 120.85 10.2 139.5 13.85 143.6 13.95 143.75 16.95 146.75 18.35 147.6 21.2 150.0 Q26.0 151.5 26.6 150.5 L29.45 149.0 31.95 145.35 35.6 135.85 36.2 131.35 36.2 126.85 34.6 120.35 32.2 115.1 26.35 105.75 M-19.65 90.6 L-20.05 90.75 -28.8 96.85 M-88.8 32.25 L-88.8 32.1 -88.9 32.25 M-76.05 2.85 L-82.4 14.0 -88.05 28.35 -88.8 32.1 M-24.65 106.25 L-18.65 103.6 -15.05 103.0 M-15.55 102.1 L-15.65 102.1 -15.55 102.25 M-8.8 113.35 L-10.65 113.5 -13.15 115.1 Q-16.9 119.8 -9.15 123.25 L-6.9 123.25 -5.15 122.35 -3.8 120.85 M-25.65 106.75 L-25.8 106.75 -25.8 106.85 -25.65 106.75 -24.65 106.25 -25.65 106.35 -25.8 106.75 M11.95 147.0 L11.45 147.6 Q9.9 154.4 -8.9 153.5 -16.75 152.9 -22.8 150.6 L-27.55 147.6 -28.65 147.1 -33.8 142.35 -37.15 136.75 -38.8 130.5 -38.55 124.5 -37.9 123.25 -36.15 118.25 -34.4 115.1 -31.05 110.75 -26.05 107.0 -25.8 106.85 M-69.3 117.85 L-70.05 118.1 M-38.4 96.35 L-61.4 114.5 -61.8 114.75 M-66.65 122.5 L-67.8 123.1 M9.85 180.0 L9.7 180.1 7.1 184.85 4.7 188.25 Q3.7 191.05 1.2 194.1 L-1.4 200.35 -2.05 204.5 Q-2.75 203.65 -2.15 210.6 L-0.9 212.6 Q-1.8 214.8 11.35 219.25 31.0 220.65 37.95 209.35 L37.95 209.25 33.1 188.25 31.85 180.1 31.45 172.0 31.95 167.0 29.35 165.25 24.1 162.85 19.7 163.0 18.6 163.85 16.7 166.0 13.7 172.0 13.7 172.1 Q22.45 172.85 18.7 180.1 13.2 184.1 10.2 180.1 L9.85 180.0 13.7 172.1 M-18.3 224.75 L-23.05 224.1 -26.8 223.0 M3.45 229.6 L-1.4 229.75 -1.4 229.6 Q-11.25 230.05 -18.3 224.75 L-10.55 225.5 0.6 224.35 9.95 220.6 11.35 219.25 M15.95 138.8 L16.45 139.5 16.85 139.75 M11.95 147.0 L13.85 143.75 13.85 143.6 M19.7 163.0 L18.6 161.75 12.45 148.6 12.35 147.6 11.95 147.0 M13.85 143.75 L13.95 143.75 M29.45 149.0 L32.6 155.75 35.2 159.0 37.85 155.75 Q47.45 146.7 51.1 155.75 L52.2 157.85 54.35 163.85 54.7 165.25 M33.1 163.0 L34.45 161.6 35.1 161.6 36.1 160.75 35.95 159.85 35.2 159.0 M37.85 166.6 Q36.55 169.85 36.45 171.35 L36.45 171.85 36.45 172.0 35.95 175.5 37.45 188.25 39.2 196.35 45.7 220.75 47.6 226.25 49.2 228.85 49.45 229.5 51.35 230.35 53.2 228.85 55.1 225.6 58.85 215.25 59.85 207.85 59.2 196.35 58.1 188.25 54.7 172.0 52.35 163.85 50.2 159.35 48.1 157.5 Q46.35 157.1 44.1 158.75 L39.45 163.85 37.85 166.6 M33.1 163.0 L32.95 163.85 31.95 167.0 M26.6 150.5 L33.1 163.0 M55.6 178.1 L55.6 178.6 M55.85 179.0 L55.85 179.75 M55.45 177.1 L55.45 177.85 M57.6 188.35 L58.05 191.8 58.35 193.1 58.7 196.75 58.85 197.1 58.9 197.75 59.2 200.85 59.2 201.25 59.35 204.5 59.45 205.0 59.45 205.25 M58.7 196.75 L58.9 197.75 M58.8 183.5 L60.95 197.5 M59.2 201.25 L59.2 204.5 59.45 205.0 M38.1 209.35 L42.35 224.6 44.2 229.6 Q44.0 230.45 48.1 236.85 L48.7 237.0 48.7 237.1 M37.95 209.35 L38.1 209.35 37.95 209.25 M-1.4 229.6 L3.45 229.6 44.2 229.6" fill="none" stroke="#000000" stroke-linecap="round" stroke-linejoin="round" stroke-width="2.15"/>
  </g>
</svg>
