<?xml version="1.0" encoding="UTF-8" standalone="no"?>
<svg xmlns:xlink="http://www.w3.org/1999/xlink" height="390.0px" width="352.15px" xmlns="http://www.w3.org/2000/svg">
  <g transform="matrix(1.0, 0.0, 0.0, 1.0, 134.75, 180.7)">
    <path d="M99.7 203.85 Q85.2 211.0 54.7 205.1 30.15 196.95 18.85 168.85 2.7 165.1 -26.9 143.35 L-37.15 134.35 Q-52.25 119.9 -54.55 116.25 L-68.9 95.0 -72.55 88.0 -79.65 69.25 Q-82.85 50.65 -82.4 48.7 -94.15 69.15 -110.3 75.75 -120.6 78.05 -121.65 71.6 -121.4 61.4 -109.15 53.5 L-109.05 53.5 -108.65 53.1 -108.55 53.1 -108.3 52.85 -107.9 52.6 -107.65 52.5 -107.4 52.25 -106.65 51.75 -106.15 50.6 -109.55 49.25 Q-124.8 48.4 -128.05 45.35 -134.55 40.65 -133.55 35.75 -126.15 23.3 -108.3 26.1 -126.4 13.55 -123.55 0.75 -121.25 -4.6 -105.65 1.35 -96.8 5.1 -80.45 31.3 L-80.4 31.35 -80.3 31.1 -80.3 30.75 -80.15 30.6 Q-75.3 5.85 -36.9 -32.4 L-26.9 -40.9 -10.05 -53.25 11.6 -63.0 Q16.0 -65.0 24.7 -64.5 31.15 -111.0 55.85 -146.0 62.0 -155.35 91.95 -172.4 115.5 -183.65 117.85 -177.4 120.35 -173.35 111.35 -161.0 100.85 -148.5 86.35 -138.5 L81.7 -132.9 92.6 -133.15 96.1 -132.75 Q102.4 -129.35 99.95 -124.65 100.0 -118.75 77.85 -107.9 L75.1 -105.25 71.45 -99.9 Q78.45 -99.3 81.95 -97.15 85.95 -93.75 81.95 -86.9 66.0 -69.75 61.85 -59.15 L61.9 -59.1 Q92.9 -48.4 115.2 -27.65 137.15 -12.6 153.35 17.75 L149.35 20.85 135.95 33.85 126.7 42.0 115.95 50.1 82.2 74.0 59.35 66.35 48.2 64.0 Q43.0 63.3 40.6 66.35 L39.85 68.0 39.6 71.1 37.6 71.25 36.7 72.35 25.7 104.6 25.6 104.75 23.7 105.35 18.35 110.6 14.7 118.85 12.85 131.35 12.85 136.35 12.85 131.35 14.7 118.85 18.35 110.6 23.7 105.35 25.6 104.75 25.7 104.75 17.85 128.0 12.95 136.35 12.85 136.35 12.85 136.5 9.1 141.5 Q5.85 143.1 5.1 144.25 L4.35 146.5 4.6 147.6 Q6.95 152.1 11.85 147.6 L13.2 145.85 13.35 145.75 20.6 131.35 32.45 102.25 39.2 101.25 42.7 101.1 39.2 101.25 32.45 102.25 42.85 76.5 47.35 79.75 59.35 85.6 57.1 86.35 50.1 90.75 45.7 95.35 42.7 101.1 42.1 102.5 39.85 104.6 39.95 105.25 41.45 105.25 40.35 111.0 41.2 118.35 Q43.15 120.7 43.85 123.1 L44.2 123.25 48.35 127.25 54.1 130.25 57.2 130.5 60.95 131.35 Q74.5 132.4 87.35 123.25 91.45 121.05 95.1 117.6 L96.2 115.1 96.45 112.75 101.1 115.1 107.45 119.0 110.2 121.25 110.45 123.25 113.35 131.75 114.7 138.25 115.95 155.75 117.35 162.35 118.1 163.85 119.45 168.0 121.6 171.6 122.2 172.0 Q123.65 175.5 131.85 173.0 133.1 188.75 106.85 201.5 L99.7 203.85 M154.85 20.6 Q172.45 63.3 161.1 94.75 L161.2 94.75 178.85 77.5 187.2 71.25 Q213.25 59.65 216.1 66.35 L216.35 66.85 215.7 69.85 213.2 74.0 Q208.2 78.45 202.55 84.2 185.0 102.05 161.45 132.25 L147.4 117.95 136.2 107.0 135.85 106.6 142.45 58.25 144.35 50.1 146.85 42.0 Q148.55 38.0 149.85 33.85 L154.85 20.6 M179.6 108.75 L181.45 107.0 Q185.2 103.55 184.95 98.85 L184.85 97.6 184.95 98.85 Q185.2 103.55 181.45 107.0 L179.6 108.75 M79.85 -132.75 L81.7 -132.9 79.85 -132.75 M26.95 3.35 L26.85 1.35 24.2 -14.9 23.35 -23.0 22.95 -47.4 24.45 -63.65 24.7 -64.5 24.45 -63.65 22.95 -47.4 23.35 -23.0 24.2 -14.9 26.85 1.35 26.95 3.35 M47.7 -11.5 L47.35 -12.4 49.6 -23.0 57.1 -47.4 60.1 -55.5 61.9 -59.1 60.1 -55.5 57.1 -47.4 49.6 -23.0 47.35 -12.4 47.7 -11.5 M68.35 -100.0 L71.35 -99.5 68.35 -100.0 M149.2 136.75 L152.45 139.5 154.1 141.25 150.85 144.6 149.2 136.75 M18.85 168.85 L14.85 155.75 13.35 145.85 13.35 145.75 13.35 145.85 14.85 155.75 18.85 168.85 M13.35 145.85 L13.2 145.85 13.35 145.85 M161.1 94.75 L154.45 107.0 153.85 108.5 147.4 117.95 153.85 108.5 154.45 107.0 161.1 94.75 M-122.9 0.35 L-122.65 0.1 -122.9 0.35 M-82.05 37.5 L-81.9 36.5 -80.45 31.3 -81.9 36.5 -82.05 37.5 M-82.15 48.5 L-82.3 48.5 -82.4 48.7 -82.3 48.5 -82.15 48.1 -82.15 48.5 -82.3 48.5 -82.15 48.5 -82.15 48.1 -81.95 44.5 -82.15 48.1 -82.3 48.5 -82.4 48.7 -82.3 48.5 -82.15 48.5 M-80.4 31.35 L-81.55 37.5 -81.95 44.5 -82.15 43.6 -82.3 42.0 -82.3 36.85 -82.3 42.0 -82.15 43.6 -81.95 44.5 -81.55 37.5 -80.4 31.35 M-107.4 28.0 L-108.3 26.1 -107.4 28.0 M-80.3 30.75 L-80.15 30.75 -80.15 30.6 -80.15 30.75 -80.3 30.75" fill="#ffffff" fill-rule="evenodd" stroke="none"/>
    <path d="M171.6 156.75 L175.1 159.25 176.7 159.75 176.85 159.85 177.1 159.85 177.2 160.0 177.45 160.0 177.6 160.1 178.35 160.25 177.6 160.1 177.45 160.0 177.2 160.0 177.1 159.85 176.85 159.85 176.7 159.75 175.1 159.25 171.6 156.75 166.7 152.85 154.1 141.25 152.45 139.5 149.2 136.75 132.6 119.85 124.1 108.75 124.2 107.0 124.7 106.1 124.7 105.0 121.95 103.6 124.7 105.0 124.7 106.1 124.2 107.0 124.1 108.75 112.2 101.35 Q110.0 103.6 95.1 98.85 L92.6 98.1 59.35 85.6 47.35 79.75 42.85 76.5 40.35 73.6 39.6 71.1 40.35 73.6 42.85 76.5 32.45 102.25 20.6 131.35 13.35 145.75 13.2 145.85 11.85 147.6 Q6.95 152.1 4.6 147.6 L4.35 146.5 5.1 144.25 Q5.85 143.1 9.1 141.5 L12.85 136.5 12.85 136.35 12.95 136.35 17.85 128.0 25.7 104.75 25.6 104.75 25.7 104.6 36.7 72.35 37.6 71.25 39.6 71.1 39.85 68.0 40.6 66.35 Q43.0 63.3 48.2 64.0 L59.35 66.35 82.2 74.0 90.7 77.5 100.2 82.6 104.95 86.25 108.95 90.75 112.2 95.5 113.35 98.85 113.35 99.1 112.2 101.35 113.35 99.1 121.95 103.6 121.45 100.0 121.95 98.85 122.6 98.25 124.45 98.1 126.2 98.85 127.7 99.75 135.85 106.6 136.2 107.0 147.4 117.95 161.45 132.25 Q183.0 156.95 178.35 160.25 L177.85 161.25 128.85 196.6 117.1 204.5 Q97.75 212.3 99.7 203.85 L106.85 201.5 Q113.9 201.65 124.7 194.6 L171.6 156.75 M174.95 154.25 L174.4 153.8 174.35 153.75 174.2 153.6 167.2 147.6 141.7 123.25 130.35 110.85 128.35 107.0 128.3 106.85 128.15 106.2 Q125.95 98.3 133.85 106.15 L134.7 107.0 143.85 115.1 159.95 131.35 166.4 139.45 166.45 139.5 169.95 144.55 169.6 144.35 169.15 143.8 166.4 139.45 169.15 143.8 169.6 144.35 169.95 144.55 166.45 139.5 166.4 139.45 159.95 131.35 143.85 115.1 134.7 107.0 133.85 106.15 131.2 104.35 130.95 104.1 131.2 104.35 133.85 106.15 Q125.95 98.3 128.15 106.2 L128.3 106.85 128.35 107.0 130.35 110.85 141.7 123.25 167.2 147.6 174.2 153.6 174.4 153.8 Q176.4 154.7 172.1 147.6 L170.8 145.75 172.1 147.6 Q176.4 154.7 174.4 153.8 L174.2 153.6 174.35 153.75 174.4 153.8 174.95 154.25 M171.35 147.6 L170.7 146.1 171.35 147.6 M169.95 144.55 L170.8 145.75 169.95 145.0 170.8 145.75 169.95 144.55 M172.1 148.75 L171.95 148.35 172.1 148.75 M90.35 79.25 L90.85 79.5 90.35 79.25 M96.2 82.75 L96.6 82.85 96.2 82.75 M89.6 78.85 L84.9 76.7 84.25 76.45 84.0 76.3 79.35 74.6 79.6 74.6 89.45 78.35 Q95.65 81.2 97.1 82.6 L100.7 85.5 104.85 90.75 Q108.4 96.2 104.9 96.9 L104.75 96.95 104.35 97.0 Q99.45 97.4 83.95 90.75 L70.35 85.75 62.95 82.6 Q55.2 79.6 50.95 77.1 L48.5 74.95 47.95 74.5 Q44.35 68.55 48.7 66.35 L52.6 66.35 60.1 68.0 64.9 69.55 64.5 69.5 63.6 69.35 58.7 68.05 58.2 68.0 56.6 67.5 54.6 67.25 54.2 67.1 53.6 67.1 53.1 67.0 53.6 67.1 54.2 67.1 54.6 67.25 56.6 67.5 58.2 68.0 58.7 68.05 63.6 69.35 64.5 69.5 64.9 69.55 60.1 68.0 52.6 66.35 48.7 66.35 Q44.35 68.55 47.95 74.5 L48.5 74.95 50.95 77.1 Q55.2 79.6 62.95 82.6 L70.35 85.75 83.95 90.75 Q99.45 97.4 104.35 97.0 L104.75 96.95 104.9 96.9 Q108.4 96.2 104.85 90.75 L100.7 85.5 97.1 82.6 Q95.65 81.2 89.45 78.35 L79.6 74.6 79.35 74.6 84.0 76.3 84.25 76.45 84.9 76.7 89.6 78.85 M95.1 82.1 L95.6 82.1 95.1 82.1 M94.1 81.5 L94.45 81.5 94.95 81.75 94.45 81.5 94.1 81.5 M93.7 81.25 L94.2 81.25 93.7 81.25 M95.95 82.35 L95.45 82.35 95.95 82.35 M93.95 81.0 L93.7 81.0 93.2 80.65 92.95 80.55 92.65 80.3 91.45 79.75 92.65 80.3 92.95 80.55 93.2 80.65 93.7 81.0 93.95 81.0 M47.7 74.75 L48.5 74.95 47.7 74.75 M75.9 73.2 L76.25 73.45 78.45 74.3 79.35 74.6 78.45 74.3 76.25 73.45 75.9 73.2 75.75 73.15 74.0 72.55 73.15 72.3 70.95 71.55 70.25 71.35 69.5 71.1 69.2 71.05 68.85 71.0 68.45 70.85 68.2 70.8 67.75 70.55 67.95 70.6 69.5 71.1 67.95 70.6 67.75 70.55 68.2 70.8 68.45 70.85 68.85 71.0 69.2 71.05 69.5 71.1 70.25 71.35 70.95 71.55 73.15 72.3 74.0 72.55 75.75 73.15 75.9 73.2 79.6 74.6 75.9 73.2 M73.7 72.55 L74.5 72.8 75.35 73.15 75.75 73.15 75.35 73.15 74.5 72.8 73.7 72.55 73.6 72.55 73.35 72.5 73.15 72.3 71.1 71.75 70.7 71.55 69.95 71.3 70.25 71.35 69.95 71.3 70.7 71.55 70.95 71.55 70.7 71.55 71.1 71.75 73.15 72.3 73.35 72.5 73.6 72.55 73.7 72.55 74.0 72.55 73.7 72.55 M69.95 71.3 L69.85 71.3 69.2 71.05 69.85 71.3 69.95 71.3 M67.45 70.45 L67.0 70.3 66.1 70.1 65.75 69.95 64.95 69.8 64.5 69.5 64.95 69.8 65.75 69.95 66.1 70.1 67.0 70.3 67.2 70.35 64.9 69.55 67.2 70.35 67.0 70.3 67.45 70.45 67.7 70.5 67.95 70.6 67.7 70.5 67.45 70.45 67.75 70.55 67.45 70.45 M67.2 70.35 L67.7 70.5 67.2 70.35 M25.7 104.6 L25.7 104.75 25.7 104.6 M12.95 136.35 L12.85 136.5 12.95 136.35" fill="#43396f" fill-rule="evenodd" stroke="none"/>
    <path d="M153.35 17.75 L154.6 17.1 155.2 17.1 155.35 17.6 154.85 20.6 149.85 33.85 Q148.55 38.0 146.85 42.0 L144.35 50.1 142.45 58.25 135.85 106.6 127.7 99.75 126.2 98.85 124.45 98.1 122.6 98.25 121.95 98.85 121.45 100.0 121.95 103.6 113.35 99.1 113.35 98.85 112.2 95.5 108.95 90.75 104.95 86.25 100.2 82.6 90.7 77.5 82.2 74.0 115.95 50.1 126.7 42.0 135.95 33.85 149.35 20.85 153.35 17.75 M124.1 108.75 L132.6 119.85 Q116.75 115.4 110.2 121.25 L107.45 119.0 101.1 115.1 96.45 112.75 95.7 107.0 94.45 102.35 92.85 98.85 92.6 98.1 95.1 98.85 Q110.0 103.6 112.2 101.35 L124.1 108.75 M42.1 102.5 L41.45 105.25 39.95 105.25 39.85 104.6 42.1 102.5" fill="#fa410f" fill-rule="evenodd" stroke="none"/>
    <path d="M132.6 119.85 L149.2 136.75 150.85 144.6 150.45 152.5 148.2 159.0 Q139.65 171.75 131.85 173.0 123.65 175.5 122.2 172.0 L121.6 171.6 119.45 168.0 118.1 163.85 117.35 162.35 115.95 155.75 114.7 138.25 Q125.1 139.9 122.95 131.35 120.3 126.6 113.7 131.35 L113.35 131.75 110.45 123.25 110.2 121.25 Q116.75 115.4 132.6 119.85 M92.6 98.1 L92.85 98.85 94.45 102.35 95.7 107.0 96.45 112.75 96.2 115.1 95.1 117.6 Q91.45 121.05 87.35 123.25 74.5 132.4 60.95 131.35 L57.2 130.5 54.1 130.25 48.35 127.25 44.2 123.25 43.85 123.1 Q43.15 120.7 41.2 118.35 L40.35 111.0 41.45 105.25 42.1 102.5 42.7 101.1 45.7 95.35 50.1 90.75 57.1 86.35 59.35 85.6 92.6 98.1 M63.35 98.85 Q62.75 104.2 68.45 105.1 73.65 105.5 74.1 98.85 68.95 91.1 63.35 98.85" fill="#ff7a16" fill-rule="evenodd" stroke="none"/>
    <path d="M63.35 98.85 Q68.95 91.1 74.1 98.85 73.65 105.5 68.45 105.1 62.75 104.2 63.35 98.85 M113.35 131.75 L113.7 131.35 Q120.3 126.6 122.95 131.35 125.1 139.9 114.7 138.25 L113.35 131.75" fill="#000000" fill-rule="evenodd" stroke="none"/>
    <path d="M99.7 203.85 Q85.2 211.0 54.7 205.1 30.15 196.95 18.85 168.85 2.7 165.1 -26.9 143.35 L-37.15 134.35 Q-52.25 119.9 -54.55 116.25 L-68.9 95.0 -72.55 88.0 -79.65 69.25 Q-82.85 50.65 -82.4 48.7 -94.15 69.15 -110.3 75.75 -120.6 78.05 -121.65 71.6 -121.4 61.4 -109.15 53.5 L-109.05 53.5 -108.65 53.1 -108.55 53.1 -108.3 52.85 -107.9 52.6 -107.65 52.5 -107.4 52.25 -106.65 51.75 -106.15 50.6 -109.55 49.25 Q-124.8 48.4 -128.05 45.35 -134.55 40.65 -133.55 35.75 -126.15 23.3 -108.3 26.1 -126.4 13.55 -123.55 0.75 -121.25 -4.6 -105.65 1.35 -96.8 5.1 -80.45 31.3 L-80.4 31.35 -80.3 31.1 -80.3 30.75 -80.15 30.6 Q-75.3 5.85 -36.9 -32.4 L-26.9 -40.9 -10.05 -53.25 11.6 -63.0 Q16.0 -65.0 24.7 -64.5 31.15 -111.0 55.85 -146.0 62.0 -155.35 91.95 -172.4 115.5 -183.65 117.85 -177.4 120.35 -173.35 111.35 -161.0 100.85 -148.5 86.35 -138.5 L81.7 -132.9 92.6 -133.15 96.1 -132.75 Q102.4 -129.35 99.95 -124.65 100.0 -118.75 77.85 -107.9 L75.1 -105.25 71.45 -99.9 Q78.45 -99.3 81.95 -97.15 85.95 -93.75 81.95 -86.9 66.0 -69.75 61.85 -59.15 L61.9 -59.1 Q92.9 -48.4 115.2 -27.65 137.15 -12.6 153.35 17.75 L154.6 17.1 155.2 17.1 155.35 17.6 154.85 20.6 Q172.45 63.3 161.1 94.75 L161.2 94.75 178.85 77.5 187.2 71.25 Q213.25 59.65 216.1 66.35 L216.35 66.85 215.7 69.85 213.2 74.0 Q208.2 78.45 202.55 84.2 L204.1 83.1 M71.35 -99.5 L68.35 -100.0 M61.9 -59.1 L60.1 -55.5 57.1 -47.4 49.6 -23.0 47.35 -12.4 47.7 -11.5 M24.7 -64.5 L24.45 -63.65 22.95 -47.4 23.35 -23.0 24.2 -14.9 26.85 1.35 26.95 3.35 M81.7 -132.9 L79.85 -132.75 M184.85 97.6 L184.95 98.85 Q185.2 103.55 181.45 107.0 L179.6 108.75 M166.4 139.45 L169.15 143.8 169.6 144.35 169.95 144.55 166.45 139.5 166.4 139.45 159.95 131.35 143.85 115.1 134.7 107.0 133.85 106.15 131.2 104.35 130.95 104.1 M169.95 145.0 L170.8 145.75 169.95 144.55 M133.85 106.15 Q125.95 98.3 128.15 106.2 L128.3 106.85 128.35 107.0 130.35 110.85 141.7 123.25 167.2 147.6 174.2 153.6 174.4 153.8 Q176.4 154.7 172.1 147.6 L170.8 145.75 M170.7 146.1 L171.35 147.6 M174.2 153.6 L174.35 153.75 174.4 153.8 174.95 154.25 M178.35 160.25 L177.6 160.1 177.45 160.0 177.2 160.0 177.1 159.85 176.85 159.85 176.7 159.75 175.1 159.25 171.6 156.75 124.7 194.6 Q113.9 201.65 106.85 201.5 L99.7 203.85 Q97.75 212.3 117.1 204.5 L128.85 196.6 177.85 161.25 178.35 160.25 Q183.0 156.95 161.45 132.25 L147.4 117.95 136.2 107.0 135.85 106.6 127.7 99.75 126.2 98.85 124.45 98.1 122.6 98.25 121.95 98.85 121.45 100.0 121.95 103.6 124.7 105.0 124.7 106.1 124.2 107.0 124.1 108.75 132.6 119.85 149.2 136.75 152.45 139.5 154.1 141.25 166.7 152.85 171.6 156.75 M171.95 148.35 L172.1 148.75 M82.2 74.0 L115.95 50.1 126.7 42.0 135.95 33.85 149.35 20.85 153.35 17.75 M154.85 20.6 L149.85 33.85 Q148.55 38.0 146.85 42.0 L144.35 50.1 142.45 58.25 135.85 106.6 M91.45 79.75 L92.65 80.3 92.95 80.55 93.2 80.65 93.7 81.0 93.95 81.0 M95.45 82.35 L95.95 82.35 M94.2 81.25 L93.7 81.25 M94.95 81.75 L94.45 81.5 94.1 81.5 M95.6 82.1 L95.1 82.1 M53.1 67.0 L53.6 67.1 54.2 67.1 54.6 67.25 56.6 67.5 58.2 68.0 58.7 68.05 63.6 69.35 64.5 69.5 64.9 69.55 60.1 68.0 52.6 66.35 48.7 66.35 Q44.35 68.55 47.95 74.5 L48.5 74.95 50.95 77.1 Q55.2 79.6 62.95 82.6 L70.35 85.75 83.95 90.75 Q99.45 97.4 104.35 97.0 L104.75 96.95 104.9 96.9 Q108.4 96.2 104.85 90.75 L100.7 85.5 97.1 82.6 Q95.65 81.2 89.45 78.35 L79.6 74.6 79.35 74.6 84.0 76.3 84.25 76.45 84.9 76.7 89.6 78.85 M96.6 82.85 L96.2 82.75 M90.85 79.5 L90.35 79.25 M92.6 98.1 L92.85 98.85 94.45 102.35 95.7 107.0 96.45 112.75 101.1 115.1 107.45 119.0 110.2 121.25 Q116.75 115.4 132.6 119.85 M124.1 108.75 L112.2 101.35 Q110.0 103.6 95.1 98.85 L92.6 98.1 59.35 85.6 57.1 86.35 50.1 90.75 45.7 95.35 42.7 101.1 42.1 102.5 41.45 105.25 40.35 111.0 41.2 118.35 Q43.15 120.7 43.85 123.1 L44.2 123.25 48.35 127.25 54.1 130.25 57.2 130.5 60.95 131.35 Q74.5 132.4 87.35 123.25 91.45 121.05 95.1 117.6 L96.2 115.1 96.45 112.75 M113.35 99.1 L113.35 98.85 112.2 95.5 108.95 90.75 104.95 86.25 100.2 82.6 90.7 77.5 82.2 74.0 59.35 66.35 48.2 64.0 Q43.0 63.3 40.6 66.35 L39.85 68.0 39.6 71.1 40.35 73.6 42.85 76.5 47.35 79.75 59.35 85.6 M25.6 104.75 L25.7 104.6 36.7 72.35 37.6 71.25 39.6 71.1 M64.5 69.5 L64.95 69.8 65.75 69.95 66.1 70.1 67.0 70.3 67.2 70.35 64.9 69.55 M69.5 71.1 L67.95 70.6 67.75 70.55 68.2 70.8 68.45 70.85 68.85 71.0 69.2 71.05 69.5 71.1 70.25 71.35 70.95 71.55 73.15 72.3 74.0 72.55 75.75 73.15 75.9 73.2 79.6 74.6 M67.95 70.6 L67.7 70.5 67.45 70.45 67.75 70.55 M67.7 70.5 L67.2 70.35 M67.0 70.3 L67.45 70.45 M70.25 71.35 L69.95 71.3 70.7 71.55 70.95 71.55 M69.2 71.05 L69.85 71.3 69.95 71.3 M73.15 72.3 L73.35 72.5 73.6 72.55 73.7 72.55 74.0 72.55 M70.7 71.55 L71.1 71.75 73.15 72.3 M75.75 73.15 L75.35 73.15 74.5 72.8 73.7 72.55 M79.35 74.6 L78.45 74.3 76.25 73.45 75.9 73.2 M48.5 74.95 L47.7 74.75 M63.35 98.85 Q62.75 104.2 68.45 105.1 73.65 105.5 74.1 98.85 68.95 91.1 63.35 98.85 M25.6 104.75 L23.7 105.35 18.35 110.6 14.7 118.85 12.85 131.35 12.85 136.35 12.95 136.35 17.85 128.0 25.7 104.75 25.6 104.75 M42.7 101.1 L39.2 101.25 32.45 102.25 20.6 131.35 13.35 145.75 13.35 145.85 14.85 155.75 18.85 168.85 M42.1 102.5 L39.85 104.6 39.95 105.25 41.45 105.25 M25.7 104.75 L25.7 104.6 M13.2 145.85 L11.85 147.6 Q6.95 152.1 4.6 147.6 L4.35 146.5 5.1 144.25 Q5.85 143.1 9.1 141.5 L12.85 136.5 12.85 136.35 M13.35 145.75 L13.2 145.85 13.35 145.85 M12.85 136.5 L12.95 136.35 M147.4 117.95 L153.85 108.5 154.45 107.0 161.1 94.75 M149.2 136.75 L150.85 144.6 154.1 141.25 M112.2 101.35 L113.35 99.1 121.95 103.6 M110.2 121.25 L110.45 123.25 113.35 131.75 113.7 131.35 Q120.3 126.6 122.95 131.35 125.1 139.9 114.7 138.25 L115.95 155.75 117.35 162.35 118.1 163.85 119.45 168.0 121.6 171.6 122.2 172.0 Q123.65 175.5 131.85 173.0 139.65 171.75 148.2 159.0 L150.45 152.5 150.85 144.6 M114.7 138.25 L113.35 131.75 M42.85 76.5 L32.45 102.25 M106.85 201.5 Q133.1 188.75 131.85 173.0 M202.55 84.2 Q185.0 102.05 161.45 132.25 M-80.15 30.6 L-80.15 30.75 -80.3 30.75 M-108.3 26.1 L-107.4 28.0 M-82.3 36.85 L-82.3 42.0 -82.15 43.6 -81.95 44.5 -81.55 37.5 -80.4 31.35 M-82.15 48.1 L-82.3 48.5 -82.15 48.5 -82.15 48.1 -81.95 44.5 M-82.4 48.7 L-82.3 48.5 -82.4 48.7 M-82.3 48.5 L-82.15 48.5 M-80.45 31.3 L-81.9 36.5 -82.05 37.5 M-122.65 0.1 L-122.9 0.35" fill="none" stroke="#000000" stroke-linecap="round" stroke-linejoin="round" stroke-width="2.15"/>
  </g>
</svg>
