<?xml version="1.0" encoding="UTF-8" standalone="no"?>
<svg xmlns:xlink="http://www.w3.org/1999/xlink" height="365.7px" width="346.4px" xmlns="http://www.w3.org/2000/svg">
  <g transform="matrix(1.0, 0.0, 0.0, 1.0, 128.75, 210.6)">
    <path d="M-11.6 -69.45 L-11.55 -69.5 Q-22.15 -111.35 -12.8 -152.4 -1.4 -178.5 19.95 -200.65 38.6 -217.85 37.7 -201.75 L36.7 -195.15 32.7 -182.9 Q31.15 -177.45 18.35 -156.75 L16.95 -151.9 14.85 -151.15 16.95 -151.9 Q39.1 -165.35 39.2 -153.0 L38.85 -149.4 37.2 -145.25 34.2 -140.4 23.45 -127.4 21.6 -123.75 20.1 -117.65 Q28.85 -120.75 32.6 -120.4 38.0 -118.35 36.7 -112.0 L30.7 -95.9 Q27.85 -86.25 26.95 -77.65 L37.2 -77.9 Q61.9 -74.95 72.85 -70.75 L97.95 -61.75 Q112.9 -55.4 120.6 -50.0 L118.1 -39.25 112.85 -23.0 95.2 18.25 80.45 20.6 71.35 22.75 71.2 22.85 70.95 22.85 62.85 24.35 58.85 25.75 Q56.75 27.35 59.45 29.0 L58.35 29.75 58.7 33.85 65.85 72.75 66.35 74.5 69.7 93.35 69.85 98.85 69.1 110.1 68.7 110.85 64.85 104.0 61.35 94.5 60.2 85.6 61.95 77.75 65.85 72.75 61.95 77.75 60.2 85.6 61.35 94.5 64.85 104.0 68.7 110.85 68.7 112.1 67.85 115.1 Q64.5 121.8 68.45 123.25 L68.7 123.5 70.95 123.25 71.7 123.1 72.85 121.85 73.6 118.85 74.1 115.1 74.35 107.0 73.95 98.85 70.35 68.75 73.6 66.35 75.35 65.35 73.6 66.35 70.35 68.75 64.95 30.0 80.2 28.85 91.7 27.1 91.45 28.0 91.35 28.1 85.95 31.6 81.1 36.75 78.45 42.0 76.6 50.1 76.35 53.5 76.7 58.25 77.2 60.25 76.45 61.5 75.45 65.25 75.35 65.35 75.45 65.35 75.95 66.0 78.7 64.1 79.85 66.35 80.2 67.35 83.45 71.25 88.35 73.25 93.6 73.85 Q100.7 74.1 111.35 66.35 111.6 67.15 117.35 61.25 L123.2 52.6 124.35 50.1 Q125.4 49.25 127.7 43.35 L127.6 42.0 127.1 40.5 Q133.65 38.95 141.45 41.5 L143.2 42.0 147.7 44.1 Q150.7 45.55 153.2 48.25 L155.35 50.75 160.85 58.25 161.6 59.75 170.35 70.75 178.7 77.6 Q181.4 78.9 182.85 76.5 L186.85 71.6 184.35 78.85 Q194.7 100.35 169.6 127.85 L159.85 136.6 Q146.45 145.85 137.6 147.6 124.75 151.2 110.2 146.85 L88.7 152.5 Q80.65 154.55 57.85 153.85 33.15 153.45 1.2 140.1 -23.5 130.4 -50.4 104.0 -67.55 84.8 -73.65 66.35 L-74.35 65.55 -74.4 65.5 Q-78.1 79.1 -81.55 85.75 L-84.8 92.0 -87.8 96.75 Q-97.1 107.6 -105.65 105.0 -108.8 104.35 -106.4 91.75 L-104.55 87.5 Q-96.35 77.3 -97.4 76.85 L-100.05 76.6 -111.55 79.0 -116.55 79.0 Q-122.8 79.2 -127.55 72.5 -129.35 59.1 -105.4 53.75 -107.55 51.95 -115.65 48.75 L-120.4 45.75 -125.05 40.5 Q-127.15 37.45 -127.3 34.0 -123.05 22.05 -98.8 33.85 -90.15 39.35 -87.55 41.85 L-77.3 51.35 -77.15 51.35 Q-77.6 26.8 -56.8 -15.0 -53.55 -21.45 -46.3 -32.15 L-32.9 -51.15 -16.8 -66.15 -11.65 -69.4 -11.6 -69.45 -4.8 -47.4 6.2 -23.0 17.7 -2.5 6.2 -23.0 -4.8 -47.4 -11.6 -69.45 M129.95 -42.4 L139.35 -34.75 151.6 -20.75 161.6 -3.65 Q169.65 16.7 169.45 21.1 L169.2 21.1 151.45 17.0 137.7 -14.9 134.7 -23.0 129.95 -42.4 M177.45 23.25 L184.7 5.35 Q188.9 -4.0 194.35 -9.9 211.25 -27.85 213.95 -23.0 L214.7 -21.4 Q215.0 -19.1 214.1 -15.0 L202.2 18.0 199.2 29.5 198.1 29.2 190.2 26.85 190.1 26.85 189.35 26.6 189.2 26.6 186.6 25.75 186.2 25.75 186.1 25.75 183.95 25.1 183.85 25.1 179.45 23.85 179.35 23.85 177.45 23.25 M197.1 36.5 L192.35 49.5 191.1 54.75 189.2 46.1 185.35 39.6 179.6 33.85 176.45 32.0 197.1 36.5 M31.35 -24.75 L30.6 -26.15 28.45 -39.25 26.45 -63.65 26.35 -71.75 26.95 -77.65 26.35 -71.75 26.45 -63.65 28.45 -39.25 30.6 -26.15 31.35 -24.75 M17.2 -116.5 L20.1 -117.15 17.2 -116.5 M194.95 18.1 Q199.45 18.55 198.95 25.75 L198.1 29.2 198.95 25.75 Q199.45 18.55 194.95 18.1 M164.95 28.85 L159.45 29.0 156.6 29.75 155.2 26.1 164.95 28.85 M184.35 78.85 L182.85 76.5 184.35 78.85 M110.2 146.85 L98.7 141.85 88.35 134.75 78.35 125.0 77.2 123.25 73.6 118.85 77.2 123.25 78.35 125.0 88.35 134.75 98.7 141.85 110.2 146.85 M-105.4 53.75 L-104.3 55.0 -105.4 53.75 M-74.35 65.55 L-74.55 65.0 -75.05 65.1 -75.4 64.75 -75.05 65.1 -74.55 65.0 -75.45 63.6 -76.4 61.35 -77.5 57.05 -77.65 56.5 -77.5 57.05 -76.4 61.35 -75.45 63.6 -74.55 65.0 -74.35 65.55 M-72.65 67.85 L-74.05 63.25 -72.65 67.85 M-77.3 55.6 L-77.15 51.35 -77.3 55.6 M-77.5 57.05 L-77.3 56.0 -77.5 57.05" fill="#ffffff" fill-rule="evenodd" stroke="none"/>
    <path d="M120.6 -50.0 Q125.35 -72.25 127.6 -55.5 L129.95 -42.4 134.7 -23.0 137.7 -14.9 151.45 17.0 146.6 16.35 143.1 16.5 133.85 16.75 Q136.8 13.95 110.35 16.75 L99.1 17.6 95.2 18.25 112.85 -23.0 118.1 -39.25 120.6 -50.0 M156.6 29.75 L153.1 30.85 147.95 33.85 143.95 37.6 141.45 41.5 Q133.65 38.95 127.1 40.5 L126.35 38.6 122.85 33.85 116.85 29.1 Q108.25 25.05 107.45 25.75 L104.1 25.25 125.35 21.35 Q130.65 20.1 132.7 18.85 L139.6 19.1 Q139.95 20.3 143.85 22.25 L155.2 26.1 156.6 29.75 M77.2 60.25 L78.7 64.1 75.95 66.0 75.45 65.35 75.35 65.35 75.45 65.25 76.45 61.5 77.2 60.25 M95.1 26.6 L91.45 28.0 91.7 27.1 95.1 26.6 M75.45 65.25 L75.45 65.35 75.45 65.25" fill="#fa410f" fill-rule="evenodd" stroke="none"/>
    <path d="M169.45 21.1 L169.6 21.25 169.7 21.25 171.1 21.6 171.45 21.75 171.6 21.75 171.95 21.85 172.1 21.85 174.45 22.5 177.45 23.25 179.35 23.85 179.45 23.85 183.85 25.1 183.95 25.1 186.1 25.75 186.2 25.75 186.6 25.75 189.2 26.6 189.35 26.6 190.1 26.85 190.2 26.85 198.1 29.2 199.2 29.5 Q222.5 35.3 214.6 37.85 216.65 38.35 215.45 41.35 L190.45 109.35 Q185.95 122.05 177.95 128.0 172.1 127.4 174.7 122.1 181.95 117.85 189.7 100.1 L209.2 38.0 203.1 37.5 197.1 36.5 176.45 32.0 Q171.95 29.3 164.95 28.85 L155.2 26.1 143.85 22.25 Q139.95 20.3 139.6 19.1 L141.1 19.0 141.6 19.05 146.95 20.0 146.1 17.6 145.85 16.6 143.1 16.5 145.85 16.6 146.1 17.6 146.95 20.0 141.6 19.05 141.1 19.0 139.6 19.1 132.7 18.85 133.85 18.1 133.95 17.6 133.85 16.75 133.95 17.6 133.85 18.1 132.7 18.85 Q130.65 20.1 125.35 21.35 L104.1 25.25 95.1 26.6 91.7 27.1 80.2 28.85 64.95 30.0 70.35 68.75 73.95 98.85 74.35 107.0 74.1 115.1 73.6 118.85 72.85 121.85 71.7 123.1 70.95 123.25 68.7 123.5 68.45 123.25 Q64.5 121.8 67.85 115.1 L68.7 112.1 68.7 110.85 69.1 110.1 69.85 98.85 69.7 93.35 66.35 74.5 65.85 72.75 58.7 33.85 58.35 29.75 59.45 29.0 Q56.75 27.35 58.85 25.75 L62.85 24.35 70.95 22.85 71.2 22.85 71.35 22.75 80.45 20.6 95.2 18.25 99.1 17.6 110.35 16.75 Q136.8 13.95 133.85 16.75 L143.1 16.5 146.6 16.35 151.45 17.0 169.2 21.1 169.45 21.1 M179.35 23.85 L174.45 22.5 179.35 23.85 M169.6 21.25 L169.2 21.1 169.6 21.25 M209.2 38.0 L214.6 37.85 209.2 38.0 M189.2 26.6 L186.2 25.75 189.2 26.6 M125.2 17.05 L124.6 17.0 123.7 16.85 126.45 16.85 127.85 16.6 126.45 16.85 125.2 17.05 98.85 21.5 Q69.0 26.1 67.95 25.75 L64.45 26.0 64.25 25.9 62.85 25.85 64.25 25.9 64.45 26.0 67.95 25.75 Q69.0 26.1 98.85 21.5 L125.2 17.05 126.45 16.85 123.7 16.85 124.6 17.0 125.2 17.05 M123.7 16.85 L110.35 16.75 123.7 16.85 M64.25 25.9 L64.1 25.75 63.7 25.35 64.8 25.0 65.1 25.1 65.3 25.0 66.2 24.5 70.95 22.85 66.2 24.5 65.3 25.0 65.1 25.1 64.8 25.0 63.7 25.35 64.1 25.75 64.25 25.9 M59.45 29.0 L60.35 28.75 Q63.25 30.1 64.95 30.0 63.25 30.1 60.35 28.75 L59.45 29.0 M66.2 24.5 L64.8 25.0 66.2 24.5" fill="#43396f" fill-rule="evenodd" stroke="none"/>
    <path d="M191.1 54.75 L190.85 62.1 Q188.85 69.35 186.85 71.6 L182.85 76.5 Q181.4 78.9 178.7 77.6 L170.35 70.75 161.6 59.75 160.85 58.25 155.35 50.75 156.1 51.1 158.45 51.25 160.85 50.1 Q165.25 47.15 161.45 42.0 L159.35 41.1 157.7 41.1 155.45 42.0 153.7 43.85 Q152.45 44.9 153.2 48.25 150.7 45.55 147.7 44.1 L143.2 42.0 141.45 41.5 143.95 37.6 147.95 33.85 153.1 30.85 156.6 29.75 159.45 29.0 164.95 28.85 Q171.95 29.3 176.45 32.0 L179.6 33.85 185.35 39.6 189.2 46.1 191.1 54.75 M104.1 25.25 L107.45 25.75 Q108.25 25.05 116.85 29.1 L122.85 33.85 126.35 38.6 127.1 40.5 127.6 42.0 127.7 43.35 Q125.4 49.25 124.35 50.1 L123.2 52.6 117.35 61.25 Q111.6 67.15 111.35 66.35 100.7 74.1 93.6 73.85 L88.35 73.25 83.45 71.25 80.2 67.35 79.85 66.35 78.7 64.1 77.2 60.25 76.7 58.25 76.35 53.5 76.6 50.1 78.45 42.0 81.1 36.75 85.95 31.6 91.35 28.1 91.45 28.0 95.1 26.6 104.1 25.25 M102.95 37.0 Q97.4 37.0 97.1 42.0 97.0 46.4 101.7 47.1 107.45 46.9 107.7 42.0 107.85 38.2 102.95 37.0" fill="#ff7a16" fill-rule="evenodd" stroke="none"/>
    <path d="M153.2 48.25 Q152.45 44.9 153.7 43.85 L155.45 42.0 157.7 41.1 159.35 41.1 161.45 42.0 Q165.25 47.15 160.85 50.1 L158.45 51.25 156.1 51.1 155.35 50.75 153.2 48.25 M102.95 37.0 Q107.85 38.2 107.7 42.0 107.45 46.9 101.7 47.1 97.0 46.4 97.1 42.0 97.4 37.0 102.95 37.0" fill="#000000" fill-rule="evenodd" stroke="none"/>
    <path d="M16.95 -151.9 L18.35 -156.75 Q31.15 -177.45 32.7 -182.9 L36.7 -195.15 37.7 -201.75 Q38.6 -217.85 19.95 -200.65 -1.4 -178.5 -12.8 -152.4 -22.15 -111.35 -11.55 -69.5 L-11.6 -69.45 -4.8 -47.4 6.2 -23.0 17.7 -2.5 M16.95 -151.9 L14.85 -151.15 M16.95 -151.9 Q39.1 -165.35 39.2 -153.0 L38.85 -149.4 37.2 -145.25 34.2 -140.4 23.45 -127.4 21.6 -123.75 20.1 -117.65 Q28.85 -120.75 32.6 -120.4 38.0 -118.35 36.7 -112.0 L30.7 -95.9 Q27.85 -86.25 26.95 -77.65 L37.2 -77.9 Q61.9 -74.95 72.85 -70.75 L97.95 -61.75 Q112.9 -55.4 120.6 -50.0 125.35 -72.25 127.6 -55.5 L129.95 -42.4 139.35 -34.75 151.6 -20.75 161.6 -3.65 Q169.65 16.7 169.45 21.1 L169.6 21.25 169.7 21.25 171.1 21.6 171.45 21.75 171.6 21.75 171.95 21.85 172.1 21.85 174.45 22.5 177.45 23.25 184.7 5.35 Q188.9 -4.0 194.35 -9.9 211.25 -27.85 213.95 -23.0 L214.7 -21.4 Q215.0 -19.1 214.1 -15.0 L202.2 18.0 199.2 29.5 Q222.5 35.3 214.6 37.85 216.65 38.35 215.45 41.35 L190.45 109.35 Q185.95 122.05 177.95 128.0 172.1 127.4 174.7 122.1 181.95 117.85 189.7 100.1 L209.2 38.0 203.1 37.5 197.1 36.5 192.35 49.5 191.1 54.75 190.85 62.1 Q188.85 69.35 186.85 71.6 L184.35 78.85 Q194.7 100.35 169.6 127.85 L159.85 136.6 Q146.45 145.85 137.6 147.6 124.75 151.2 110.2 146.85 L88.7 152.5 Q80.65 154.55 57.85 153.85 33.15 153.45 1.2 140.1 -23.5 130.4 -50.4 104.0 -67.55 84.8 -73.65 66.35 L-74.35 65.55 -74.4 65.5 Q-78.1 79.1 -81.55 85.75 L-84.8 92.0 -87.8 96.75 Q-97.1 107.6 -105.65 105.0 -108.8 104.35 -106.4 91.75 L-104.55 87.5 Q-96.35 77.3 -97.4 76.85 L-100.05 76.6 -111.55 79.0 -116.55 79.0 Q-122.8 79.2 -127.55 72.5 -129.35 59.1 -105.4 53.75 -107.55 51.95 -115.65 48.75 L-120.4 45.75 -125.05 40.5 Q-127.15 37.45 -127.3 34.0 -123.05 22.05 -98.8 33.85 -90.15 39.35 -87.55 41.85 L-77.3 51.35 -77.15 51.35 Q-77.6 26.8 -56.8 -15.0 -53.55 -21.45 -46.3 -32.15 L-32.9 -51.15 -16.8 -66.15 -11.65 -69.4 -11.6 -69.45 M20.1 -117.15 L17.2 -116.5 M26.95 -77.65 L26.35 -71.75 26.45 -63.65 28.45 -39.25 30.6 -26.15 31.35 -24.75 M95.2 18.25 L112.85 -23.0 118.1 -39.25 120.6 -50.0 M129.95 -42.4 L134.7 -23.0 137.7 -14.9 151.45 17.0 169.2 21.1 169.45 21.1 M214.6 37.85 L209.2 38.0 M169.2 21.1 L169.6 21.25 M174.45 22.5 L179.35 23.85 177.45 23.25 M179.35 23.85 L179.45 23.85 183.85 25.1 183.95 25.1 186.1 25.75 186.2 25.75 186.6 25.75 189.2 26.6 189.35 26.6 190.1 26.85 190.2 26.85 198.1 29.2 198.95 25.75 Q199.45 18.55 194.95 18.1 M176.45 32.0 Q171.95 29.3 164.95 28.85 L159.45 29.0 156.6 29.75 153.1 30.85 147.95 33.85 143.95 37.6 141.45 41.5 143.2 42.0 147.7 44.1 Q150.7 45.55 153.2 48.25 152.45 44.9 153.7 43.85 L155.45 42.0 157.7 41.1 159.35 41.1 161.45 42.0 Q165.25 47.15 160.85 50.1 L158.45 51.25 156.1 51.1 155.35 50.75 160.85 58.25 161.6 59.75 170.35 70.75 178.7 77.6 Q181.4 78.9 182.85 76.5 L186.85 71.6 M191.1 54.75 L189.2 46.1 185.35 39.6 179.6 33.85 176.45 32.0 197.1 36.5 M198.1 29.2 L199.2 29.5 M186.2 25.75 L189.2 26.6 M182.85 76.5 L184.35 78.85 M151.45 17.0 L146.6 16.35 143.1 16.5 145.85 16.6 146.1 17.6 146.95 20.0 141.6 19.05 141.1 19.0 139.6 19.1 Q139.95 20.3 143.85 22.25 L155.2 26.1 164.95 28.85 M127.85 16.6 L126.45 16.85 125.2 17.05 98.85 21.5 Q69.0 26.1 67.95 25.75 L64.45 26.0 64.25 25.9 62.85 25.85 M126.45 16.85 L123.7 16.85 124.6 17.0 125.2 17.05 M132.7 18.85 L139.6 19.1 M133.85 16.75 L133.95 17.6 133.85 18.1 132.7 18.85 Q130.65 20.1 125.35 21.35 L104.1 25.25 107.45 25.75 Q108.25 25.05 116.85 29.1 L122.85 33.85 126.35 38.6 127.1 40.5 Q133.65 38.95 141.45 41.5 M78.7 64.1 L79.85 66.35 80.2 67.35 83.45 71.25 88.35 73.25 93.6 73.85 Q100.7 74.1 111.35 66.35 111.6 67.15 117.35 61.25 L123.2 52.6 124.35 50.1 Q125.4 49.25 127.7 43.35 L127.6 42.0 127.1 40.5 M156.6 29.75 L155.2 26.1 M143.1 16.5 L133.85 16.75 Q136.8 13.95 110.35 16.75 L123.7 16.85 M110.35 16.75 L99.1 17.6 95.2 18.25 80.45 20.6 71.35 22.75 71.2 22.85 70.95 22.85 66.2 24.5 65.3 25.0 65.1 25.1 64.8 25.0 63.7 25.35 64.1 25.75 64.25 25.9 M91.45 28.0 L91.35 28.1 85.95 31.6 81.1 36.75 78.45 42.0 76.6 50.1 76.35 53.5 76.7 58.25 77.2 60.25 78.7 64.1 75.95 66.0 75.45 65.35 75.35 65.35 73.6 66.35 70.35 68.75 73.95 98.85 74.35 107.0 74.1 115.1 73.6 118.85 77.2 123.25 78.35 125.0 88.35 134.75 98.7 141.85 110.2 146.85 M91.45 28.0 L95.1 26.6 91.7 27.1 91.45 28.0 M102.95 37.0 Q97.4 37.0 97.1 42.0 97.0 46.4 101.7 47.1 107.45 46.9 107.7 42.0 107.85 38.2 102.95 37.0 M104.1 25.25 L95.1 26.6 M153.2 48.25 L155.35 50.75 M65.85 72.75 L58.7 33.85 58.35 29.75 59.45 29.0 Q56.75 27.35 58.85 25.75 L62.85 24.35 70.95 22.85 M64.95 30.0 Q63.25 30.1 60.35 28.75 L59.45 29.0 M91.7 27.1 L80.2 28.85 64.95 30.0 70.35 68.75 M64.8 25.0 L66.2 24.5 M75.35 65.35 L75.45 65.25 76.45 61.5 77.2 60.25 M75.45 65.35 L75.45 65.25 M68.7 110.85 L69.1 110.1 69.85 98.85 69.7 93.35 66.35 74.5 65.85 72.75 61.95 77.75 60.2 85.6 61.35 94.5 64.85 104.0 68.7 110.85 68.7 112.1 67.85 115.1 Q64.5 121.8 68.45 123.25 L68.7 123.5 70.95 123.25 71.7 123.1 72.85 121.85 73.6 118.85 M-75.4 64.75 L-75.05 65.1 -74.55 65.0 -75.45 63.6 -76.4 61.35 -77.5 57.05 -77.65 56.5 M-77.3 56.0 L-77.5 57.05 M-77.15 51.35 L-77.3 55.6 M-74.05 63.25 L-72.65 67.85 M-74.55 65.0 L-74.35 65.55 M-104.3 55.0 L-105.4 53.75" fill="none" stroke="#000000" stroke-linecap="round" stroke-linejoin="round" stroke-width="2.15"/>
  </g>
</svg>
