<?xml version="1.0" encoding="UTF-8" standalone="no"?>
<svg xmlns:xlink="http://www.w3.org/1999/xlink" height="359.0px" width="311.5px" xmlns="http://www.w3.org/2000/svg">
  <g transform="matrix(1.0, 0.0, 0.0, 1.0, 120.6, 225.7)">
    <path d="M72.6 -97.75 L69.95 -113.5 69.6 -117.75 69.7 -120.25 70.1 -120.65 70.85 -120.5 72.85 -118.25 Q82.25 -103.2 89.95 -93.4 L98.45 -83.25 113.95 -68.75 110.6 -67.9 105.35 -65.0 105.2 -65.75 104.6 -66.15 101.85 -66.0 96.95 -63.65 74.1 -49.0 73.95 -49.0 74.2 -79.9 72.6 -97.75 M88.6 -44.75 L94.1 -49.65 102.6 -59.25 104.2 -61.75 111.95 -65.5 112.95 -65.65 112.1 -63.65 Q106.95 -53.95 127.35 -56.0 L127.35 -55.9 126.95 -55.5 122.85 -47.4 122.2 -44.75 Q118.1 -43.75 114.45 -41.75 L110.85 -39.25 109.7 -38.25 108.6 -39.25 Q101.85 -46.3 88.6 -44.75 M74.7 10.35 L74.2 9.5 73.7 6.6 73.95 2.25 77.45 5.75 74.7 10.35" fill="#fa410f" fill-rule="evenodd" stroke="none"/>
    <path d="M89.95 -93.4 L105.7 -87.15 Q125.15 -75.85 124.75 -74.65 124.7 -74.5 124.45 -74.5 L118.6 -71.75 115.45 -69.15 113.95 -68.75 98.45 -83.25 89.95 -93.4 M167.35 -81.9 Q178.85 -118.45 181.85 -104.25 L182.6 -99.0 183.1 -80.15 182.45 -80.9 180.2 -82.15 173.95 -82.4 167.35 -81.9 M183.1 -78.9 L183.2 -76.25 181.85 -76.4 183.1 -78.9 M183.45 27.85 Q183.45 59.15 173.45 71.25 171.2 74.0 164.95 77.25 L157.2 78.5 157.15 78.65 Q154.15 84.35 138.4 98.05 L137.95 98.45 137.8 98.6 137.25 99.05 137.05 99.2 130.35 104.85 115.45 115.25 103.95 121.25 Q89.85 127.1 81.2 128.5 74.35 130.35 61.95 131.75 L46.45 132.25 28.2 130.75 Q17.45 129.35 0.2 124.0 -44.5 106.9 -58.4 82.6 L-59.4 81.6 -62.2 78.7 -62.3 78.6 Q-62.85 101.1 -68.15 114.6 L-70.15 118.35 Q-73.1 122.65 -75.3 124.25 -83.6 130.55 -85.65 124.1 -89.35 112.8 -82.8 101.25 L-82.65 101.1 -82.65 101.0 -82.55 100.85 -82.55 100.6 -82.4 100.5 -82.3 100.0 -82.15 99.85 -81.8 98.85 -81.55 96.35 -83.4 96.6 -91.05 100.85 Q-95.1 103.15 -98.4 103.75 L-104.9 104.0 Q-108.0 103.45 -109.8 102.0 -114.85 100.55 -109.65 88.35 -108.1 85.25 -103.8 81.6 L-94.3 75.5 Q-95.8 74.1 -106.3 72.75 L-110.3 71.35 Q-116.4 68.65 -119.55 61.75 -119.8 54.4 -107.05 51.85 -99.15 50.15 -81.3 58.25 L-68.65 65.35 -68.4 65.3 -68.3 65.25 Q-74.85 35.1 -65.65 -7.0 -62.8 -20.35 -60.9 -25.4 L-51.9 -51.65 -42.3 -68.4 Q-66.05 -110.65 -66.8 -149.9 -69.05 -158.65 -50.8 -207.9 L-45.4 -217.9 Q-41.9 -223.5 -39.4 -224.65 L-36.65 -224.4 Q-33.65 -221.85 -33.15 -218.0 L-32.4 -213.15 Q-32.05 -203.35 -32.65 -198.25 L-34.15 -187.15 Q-34.0 -185.7 -38.55 -169.0 L-39.05 -165.75 -39.05 -161.5 -38.9 -161.5 Q-19.4 -186.9 -17.4 -169.25 -17.25 -163.1 -18.8 -158.65 L-26.05 -138.4 -26.65 -133.75 -26.4 -128.5 Q-15.15 -140.9 -11.4 -136.75 L-10.3 -135.9 -9.3 -134.15 -8.65 -131.0 Q-10.5 -116.25 -10.05 -104.5 L-8.8 -91.9 Q14.75 -103.7 72.6 -97.75 L74.2 -79.9 73.95 -49.0 73.95 -48.9 53.2 -34.25 49.7 -31.15 45.95 -26.75 44.35 -23.0 44.35 -20.4 44.95 -19.75 46.45 -19.5 70.45 19.35 79.35 33.85 82.45 42.0 84.95 50.1 86.45 58.25 86.45 59.0 86.45 59.1 86.6 59.25 86.85 63.75 87.45 65.35 88.35 66.35 89.6 67.1 91.2 67.0 92.1 66.35 92.95 65.5 93.45 64.25 93.35 61.6 90.35 50.1 83.45 33.85 72.85 14.1 72.7 14.0 53.1 -21.65 64.95 -28.25 71.45 -32.4 69.1 -27.15 67.35 -17.65 67.85 -11.15 71.1 -2.4 73.6 1.35 73.95 2.25 73.7 6.6 74.2 9.5 74.7 10.35 72.85 14.0 72.7 14.0 72.85 14.0 74.7 10.35 77.45 5.75 Q79.75 11.4 93.85 1.35 94.1 1.85 97.35 -2.15 L100.85 -6.75 103.95 -12.0 107.35 -20.65 109.35 -31.15 109.7 -38.25 110.85 -39.25 114.45 -41.75 Q118.1 -43.75 122.2 -44.75 131.75 -46.15 137.1 -43.0 L140.2 -41.5 148.95 -35.9 157.95 -31.15 Q166.5 -26.35 169.85 -26.75 L171.7 -34.15 171.7 -39.25 171.85 -40.4 169.1 -50.75 166.35 -55.5 163.85 -58.15 163.7 -58.25 163.85 -58.25 164.35 -64.15 171.85 -67.75 177.85 -72.5 179.55 -57.1 183.2 -25.0 183.2 -24.65 183.2 -24.0 Q182.5 -24.7 184.1 -6.15 L184.1 13.0 184.1 13.75 181.85 23.6 181.95 25.75 182.45 27.0 183.45 27.85 M11.45 -39.25 L8.6 -42.65 -0.4 -63.65 -8.05 -86.15 -8.8 -91.9 -8.05 -86.15 -0.4 -63.65 8.6 -42.65 11.45 -39.25 M4.1 -13.15 L2.6 -14.9 -11.05 -27.9 -30.65 -50.75 -42.15 -68.15 -30.65 -50.75 -11.05 -27.9 2.6 -14.9 4.1 -13.15 M163.85 -58.15 L163.85 -58.25 163.85 -58.15 M171.35 -56.15 Q176.65 -62.15 179.55 -57.1 176.65 -62.15 171.35 -56.15 M169.85 -26.75 L171.7 -25.5 174.2 -23.0 177.1 -19.25 181.6 -10.65 183.45 1.35 183.1 9.5 182.2 17.6 179.45 28.25 177.45 33.85 173.85 42.0 173.35 43.5 171.25 46.8 165.85 55.1 156.95 64.1 Q155.6 65.75 153.7 66.35 L144.2 71.75 Q135.4 75.15 121.85 74.35 L110.6 72.1 Q97.45 67.7 97.35 66.35 L93.45 64.25 97.35 66.35 Q97.45 67.7 110.6 72.1 L121.85 74.35 Q135.4 75.15 144.2 71.75 L153.7 66.35 Q155.6 65.75 156.95 64.1 L165.85 55.1 171.25 46.8 173.35 43.5 173.85 42.0 177.45 33.85 179.45 28.25 182.2 17.6 183.1 9.5 183.45 1.35 181.6 -10.65 177.1 -19.25 174.2 -23.0 171.7 -25.5 169.85 -26.75 M171.6 -26.5 Q176.2 -28.3 178.35 -24.5 176.2 -28.3 171.6 -26.5 M167.7 57.6 L168.45 55.1 169.35 54.25 170.7 50.1 171.25 46.8 170.7 50.1 169.35 54.25 168.45 55.1 167.7 57.6 M86.45 59.1 L81.45 55.35 73.6 46.25 69.2 38.5 67.7 29.5 70.45 19.35 67.7 29.5 69.2 38.5 73.6 46.25 81.45 55.35 86.45 59.1 M149.2 83.85 L150.1 82.6 154.35 79.35 157.15 78.65 154.35 79.35 150.1 82.6 149.2 83.85 M-94.05 75.5 L-93.15 76.1 -94.05 75.5 M-59.4 81.6 L-63.05 75.5 -59.4 81.6 M-62.65 78.05 L-62.9 78.25 -63.55 78.0 -62.9 78.25 -62.65 78.05 -64.05 76.7 -66.55 72.5 -66.65 72.1 -66.8 71.75 -67.25 70.95 -67.3 70.25 -67.25 70.95 -66.8 71.75 -66.65 72.1 -66.55 72.5 -64.05 76.7 -62.65 78.05 -62.2 78.7 -62.65 78.05 M-67.65 70.25 L-67.25 70.95 -67.65 70.25 M-67.55 69.6 L-68.4 65.3 -67.55 69.6 M-28.55 -126.9 L-26.4 -128.5 -28.55 -126.9 M-41.65 -159.15 L-39.3 -161.15 -39.05 -161.5 -39.3 -161.15 -41.65 -159.15 M134.7 100.85 L137.05 99.2 134.7 100.85 M72.85 14.1 L72.85 14.0 72.85 14.1" fill="#ffffff" fill-rule="evenodd" stroke="none"/>
    <path d="M124.75 -74.65 Q131.3 -77.7 167.35 -81.9 L173.95 -82.4 180.2 -82.15 182.45 -80.9 183.1 -80.15 183.1 -78.9 181.85 -76.4 183.2 -76.25 183.7 -76.0 184.35 -74.25 189.85 8.5 Q190.0 32.05 183.45 27.85 L182.45 27.0 181.95 25.75 181.85 23.6 184.1 13.75 184.1 13.0 Q185.5 8.0 185.2 -8.0 L183.35 -24.0 183.2 -24.65 183.35 -24.0 183.2 -24.0 183.2 -24.65 183.2 -25.0 179.55 -57.1 177.85 -72.5 171.85 -67.75 164.35 -64.15 158.95 -62.25 156.45 -63.65 Q151.95 -67.9 136.95 -63.65 137.0 -64.25 130.85 -59.9 L127.6 -56.15 127.35 -56.0 Q106.95 -53.95 112.1 -63.65 L112.95 -65.65 111.95 -65.5 104.2 -61.75 102.6 -59.25 94.1 -49.65 88.6 -44.75 81.95 -42.5 77.2 -39.25 74.45 -36.5 71.45 -32.4 64.95 -28.25 53.1 -21.65 72.7 14.0 72.85 14.1 83.45 33.85 90.35 50.1 93.35 61.6 93.45 64.25 92.95 65.5 92.1 66.35 91.2 67.0 89.6 67.1 88.35 66.35 87.45 65.35 86.85 63.75 86.6 59.25 86.45 59.0 86.6 59.25 86.45 59.1 86.45 59.0 86.45 58.25 84.95 50.1 82.45 42.0 79.35 33.85 70.45 19.35 46.45 -19.5 44.95 -19.75 44.35 -20.4 44.35 -23.0 45.95 -26.75 49.7 -31.15 53.2 -34.25 73.95 -48.9 73.95 -49.0 74.1 -49.0 96.95 -63.65 101.85 -66.0 104.6 -66.15 105.2 -65.75 105.35 -65.0 110.6 -67.9 113.95 -68.75 115.45 -69.15 118.6 -71.75 124.45 -74.5 Q124.7 -74.5 124.75 -74.65 M105.35 -65.0 L104.2 -61.75 105.35 -65.0 M74.1 -49.0 L73.95 -48.9 74.1 -49.0 M53.1 -21.65 L52.35 -23.0 50.45 -25.65 Q46.4 -25.45 45.1 -23.0 L45.45 -21.15 46.45 -19.5 45.45 -21.15 45.1 -23.0 Q46.4 -25.45 50.45 -25.65 L52.35 -23.0 53.1 -21.65 M115.45 -69.15 Q120.95 -65.4 112.95 -65.65 120.95 -65.4 115.45 -69.15 M177.85 -72.5 L177.85 -73.75 178.35 -74.4 181.85 -76.4 178.35 -74.4 177.85 -73.75 177.85 -72.5" fill="#43396f" fill-rule="evenodd" stroke="none"/>
    <path d="M71.45 -32.4 L74.45 -36.5 77.2 -39.25 81.95 -42.5 88.6 -44.75 Q101.85 -46.3 108.6 -39.25 L109.7 -38.25 109.35 -31.15 107.35 -20.65 103.95 -12.0 100.85 -6.75 97.35 -2.15 Q94.1 1.85 93.85 1.35 79.75 11.4 77.45 5.75 L73.95 2.25 73.6 1.35 71.1 -2.4 67.85 -11.15 67.35 -17.65 69.1 -27.15 71.45 -32.4 M122.2 -44.75 L122.85 -47.4 126.95 -55.5 127.35 -55.9 127.6 -56.15 127.35 -55.9 127.35 -56.0 127.6 -56.15 130.85 -59.9 Q137.0 -64.25 136.95 -63.65 151.95 -67.9 156.45 -63.65 L158.95 -62.25 163.7 -58.25 163.85 -58.15 166.35 -55.5 169.1 -50.75 171.85 -40.4 171.7 -39.25 171.7 -34.15 169.85 -26.75 Q166.5 -26.35 157.95 -31.15 L148.95 -35.9 140.2 -41.5 Q146.25 -43.35 145.6 -47.4 145.4 -51.35 141.95 -52.0 136.95 -52.1 135.95 -47.4 L135.95 -45.25 137.1 -43.0 Q131.75 -46.15 122.2 -44.75 M95.7 -31.15 Q93.5 -34.15 88.6 -31.15 85.1 -27.45 89.6 -23.0 L91.6 -22.25 93.35 -22.4 94.45 -23.0 Q99.1 -26.95 95.7 -31.15" fill="#ff7a16" fill-rule="evenodd" stroke="none"/>
    <path d="M137.1 -43.0 L135.95 -45.25 135.95 -47.4 Q136.95 -52.1 141.95 -52.0 145.4 -51.35 145.6 -47.4 146.25 -43.35 140.2 -41.5 L137.1 -43.0 M95.7 -31.15 Q99.1 -26.95 94.45 -23.0 L93.35 -22.4 91.6 -22.25 89.6 -23.0 Q85.1 -27.45 88.6 -31.15 93.5 -34.15 95.7 -31.15" fill="#000000" fill-rule="evenodd" stroke="none"/>
    <path d="M72.6 -97.75 L69.95 -113.5 69.6 -117.75 69.7 -120.25 70.1 -120.65 70.85 -120.5 72.85 -118.25 Q82.25 -103.2 89.95 -93.4 L105.7 -87.15 Q125.15 -75.85 124.75 -74.65 131.3 -77.7 167.35 -81.9 178.85 -118.45 181.85 -104.25 L182.6 -99.0 183.1 -80.15 183.1 -78.9 183.2 -76.25 183.7 -76.0 184.35 -74.25 189.85 8.5 Q190.0 32.05 183.45 27.85 183.45 59.15 173.45 71.25 171.2 74.0 164.95 77.25 L157.2 78.5 157.15 78.65 Q154.15 84.35 138.4 98.05 L137.95 98.45 137.8 98.6 137.25 99.05 137.05 99.2 130.35 104.85 115.45 115.25 103.95 121.25 Q89.85 127.1 81.2 128.5 74.35 130.35 61.95 131.75 L46.45 132.25 28.2 130.75 Q17.45 129.35 0.2 124.0 -44.5 106.9 -58.4 82.6 L-59.4 81.6 -62.2 78.7 -62.3 78.6 Q-62.85 101.1 -68.15 114.6 L-70.15 118.35 Q-73.1 122.65 -75.3 124.25 -83.6 130.55 -85.65 124.1 -89.35 112.8 -82.8 101.25 L-82.65 101.1 -82.65 101.0 -82.55 100.85 -82.55 100.6 -82.4 100.5 -82.3 100.0 -82.15 99.85 -81.8 98.85 -81.55 96.35 -83.4 96.6 -91.05 100.85 Q-95.1 103.15 -98.4 103.75 L-104.9 104.0 Q-108.0 103.45 -109.8 102.0 -114.85 100.55 -109.65 88.35 -108.1 85.25 -103.8 81.6 L-94.3 75.5 Q-95.8 74.1 -106.3 72.75 L-110.3 71.35 Q-116.4 68.65 -119.55 61.75 -119.8 54.4 -107.05 51.85 -99.15 50.15 -81.3 58.25 L-68.65 65.35 -68.4 65.3 -68.3 65.25 Q-74.85 35.1 -65.65 -7.0 -62.8 -20.35 -60.9 -25.4 L-51.9 -51.65 -42.3 -68.4 Q-66.05 -110.65 -66.8 -149.9 -69.05 -158.65 -50.8 -207.9 L-45.4 -217.9 Q-41.9 -223.5 -39.4 -224.65 L-36.65 -224.4 Q-33.65 -221.85 -33.15 -218.0 L-32.4 -213.15 Q-32.05 -203.35 -32.65 -198.25 L-34.15 -187.15 Q-34.0 -185.7 -38.55 -169.0 L-39.05 -165.75 -39.05 -161.5 -38.9 -161.5 Q-19.4 -186.9 -17.4 -169.25 -17.25 -163.1 -18.8 -158.65 L-26.05 -138.4 -26.65 -133.75 -26.4 -128.5 Q-15.15 -140.9 -11.4 -136.75 L-10.3 -135.9 -9.3 -134.15 -8.65 -131.0 Q-10.5 -116.25 -10.05 -104.5 L-8.8 -91.9 Q14.75 -103.7 72.6 -97.75 L74.2 -79.9 73.95 -49.0 74.1 -49.0 96.95 -63.65 101.85 -66.0 104.6 -66.15 105.2 -65.75 105.35 -65.0 110.6 -67.9 113.95 -68.75 98.45 -83.25 89.95 -93.4 M-42.15 -68.15 L-30.65 -50.75 -11.05 -27.9 2.6 -14.9 4.1 -13.15 M-8.8 -91.9 L-8.05 -86.15 -0.4 -63.65 8.6 -42.65 11.45 -39.25 M71.45 -32.4 L74.45 -36.5 77.2 -39.25 81.95 -42.5 88.6 -44.75 94.1 -49.65 102.6 -59.25 104.2 -61.75 105.35 -65.0 M73.95 2.25 L73.6 1.35 71.1 -2.4 67.85 -11.15 67.35 -17.65 69.1 -27.15 71.45 -32.4 64.95 -28.25 53.1 -21.65 72.7 14.0 72.85 14.0 74.7 10.35 74.2 9.5 73.7 6.6 73.95 2.25 77.45 5.75 Q79.75 11.4 93.85 1.35 94.1 1.85 97.35 -2.15 L100.85 -6.75 103.95 -12.0 107.35 -20.65 109.35 -31.15 109.7 -38.25 108.6 -39.25 Q101.85 -46.3 88.6 -44.75 M73.95 -49.0 L73.95 -48.9 74.1 -49.0 M73.95 -48.9 L53.2 -34.25 49.7 -31.15 45.95 -26.75 44.35 -23.0 44.35 -20.4 44.95 -19.75 46.45 -19.5 45.45 -21.15 45.1 -23.0 Q46.4 -25.45 50.45 -25.65 L52.35 -23.0 53.1 -21.65 M113.95 -68.75 L115.45 -69.15 118.6 -71.75 124.45 -74.5 Q124.7 -74.5 124.75 -74.65 M127.35 -55.9 L126.95 -55.5 122.85 -47.4 122.2 -44.75 Q131.75 -46.15 137.1 -43.0 L135.95 -45.25 135.95 -47.4 Q136.95 -52.1 141.95 -52.0 145.4 -51.35 145.6 -47.4 146.25 -43.35 140.2 -41.5 L148.95 -35.9 157.95 -31.15 Q166.5 -26.35 169.85 -26.75 L171.7 -34.15 171.7 -39.25 171.85 -40.4 169.1 -50.75 166.35 -55.5 163.85 -58.15 163.7 -58.25 158.95 -62.25 156.45 -63.65 Q151.95 -67.9 136.95 -63.65 137.0 -64.25 130.85 -59.9 L127.6 -56.15 127.35 -55.9 127.35 -56.0 Q106.95 -53.95 112.1 -63.65 L112.95 -65.65 111.95 -65.5 104.2 -61.75 M127.6 -56.15 L127.35 -56.0 M112.95 -65.65 Q120.95 -65.4 115.45 -69.15 M109.7 -38.25 L110.85 -39.25 114.45 -41.75 Q118.1 -43.75 122.2 -44.75 M95.7 -31.15 Q99.1 -26.95 94.45 -23.0 L93.35 -22.4 91.6 -22.25 89.6 -23.0 Q85.1 -27.45 88.6 -31.15 93.5 -34.15 95.7 -31.15 M140.2 -41.5 L137.1 -43.0 M167.35 -81.9 L173.95 -82.4 180.2 -82.15 182.45 -80.9 183.1 -80.15 M181.85 -76.4 L178.35 -74.4 177.85 -73.75 177.85 -72.5 179.55 -57.1 183.2 -25.0 183.2 -24.65 183.35 -24.0 185.2 -8.0 Q185.5 8.0 184.1 13.0 L184.1 13.75 181.85 23.6 181.95 25.75 182.45 27.0 183.45 27.85 M177.85 -72.5 L171.85 -67.75 164.35 -64.15 163.85 -58.25 163.85 -58.15 M163.7 -58.25 L163.85 -58.25 M179.55 -57.1 Q176.65 -62.15 171.35 -56.15 M183.1 -78.9 L181.85 -76.4 183.2 -76.25 M93.45 64.25 L97.35 66.35 Q97.45 67.7 110.6 72.1 L121.85 74.35 Q135.4 75.15 144.2 71.75 L153.7 66.35 Q155.6 65.75 156.95 64.1 L165.85 55.1 171.25 46.8 173.35 43.5 173.85 42.0 177.45 33.85 179.45 28.25 182.2 17.6 183.1 9.5 183.45 1.35 181.6 -10.65 177.1 -19.25 174.2 -23.0 171.7 -25.5 169.85 -26.75 M183.2 -24.0 Q182.5 -24.7 184.1 -6.15 L184.1 13.0 M183.2 -24.0 L183.35 -24.0 M183.2 -24.65 L183.2 -24.0 M178.35 -24.5 Q176.2 -28.3 171.6 -26.5 M164.35 -64.15 L158.95 -62.25 M171.25 46.8 L170.7 50.1 169.35 54.25 168.45 55.1 167.7 57.6 M46.45 -19.5 L70.45 19.35 79.35 33.85 82.45 42.0 84.95 50.1 86.45 58.25 86.45 59.0 86.6 59.25 86.85 63.75 87.45 65.35 88.35 66.35 89.6 67.1 91.2 67.0 92.1 66.35 92.95 65.5 93.45 64.25 93.35 61.6 90.35 50.1 83.45 33.85 72.85 14.1 72.7 14.0 M70.45 19.35 L67.7 29.5 69.2 38.5 73.6 46.25 81.45 55.35 86.45 59.1 86.45 59.0 M86.45 59.1 L86.6 59.25 M157.15 78.65 L154.35 79.35 150.1 82.6 149.2 83.85 M77.45 5.75 L74.7 10.35 M72.85 14.0 L72.85 14.1 M137.05 99.2 L134.7 100.85 M-39.05 -161.5 L-39.3 -161.15 -41.65 -159.15 M-26.4 -128.5 L-28.55 -126.9 M-67.3 70.25 L-67.25 70.95 -66.8 71.75 -66.65 72.1 -66.55 72.5 -64.05 76.7 -62.65 78.05 -62.2 78.7 M-68.4 65.3 L-67.55 69.6 M-67.25 70.95 L-67.65 70.25 M-63.55 78.0 L-62.9 78.25 -62.65 78.05 M-63.05 75.5 L-59.4 81.6 M-93.15 76.1 L-94.05 75.5" fill="none" stroke="#000000" stroke-linecap="round" stroke-linejoin="round" stroke-width="2.15"/>
  </g>
</svg>
