<?xml version="1.0" encoding="UTF-8" standalone="no"?>
<svg xmlns:xlink="http://www.w3.org/1999/xlink" height="382.8px" width="403.0px" xmlns="http://www.w3.org/2000/svg">
  <g transform="matrix(1.0, 0.0, 0.0, 1.0, 127.6, 233.0)">
    <path d="M113.7 -113.15 Q111.45 -137.45 122.2 -153.0 144.85 -187.6 151.45 -177.4 154.1 -171.4 148.7 -155.4 L135.45 -162.65 132.7 -163.5 131.2 -163.4 131.95 -161.15 136.7 -153.0 143.1 -143.15 140.1 -137.75 139.2 -132.75 139.45 -131.9 139.95 -131.6 140.1 -131.5 Q148.25 -134.7 149.05 -134.5 L149.1 -134.4 154.95 -125.75 155.1 -125.5 152.45 -120.25 145.85 -111.5 144.85 -108.25 144.6 -102.75 152.35 -103.0 154.35 -101.15 155.1 -98.5 154.6 -96.65 151.35 -92.75 152.95 -72.4 153.85 -65.65 144.6 -79.9 138.6 -88.0 131.85 -96.15 123.95 -104.25 114.7 -112.4 113.7 -113.15 114.7 -112.4 123.95 -104.25 131.85 -96.15 138.6 -88.0 144.6 -79.9 153.85 -65.65 162.2 -50.25 Q165.0 -47.9 167.6 -47.5 178.95 -45.85 183.35 -55.9 L183.45 -56.0 183.95 -57.5 183.95 -57.65 185.6 -70.15 187.7 -77.5 187.85 -77.5 188.6 -76.5 190.85 -74.9 204.35 -59.4 Q207.0 -58.75 204.95 -63.65 L203.35 -67.0 202.35 -71.25 208.35 -67.65 213.6 -66.9 230.95 -47.4 231.7 -45.9 233.6 -39.25 234.1 -35.4 233.35 -28.9 231.35 -23.0 Q229.2 -20.45 233.6 -17.65 L234.6 -17.65 235.7 -18.4 237.2 -23.0 238.2 -27.75 238.35 -35.5 236.1 -44.25 234.7 -47.4 232.1 -51.9 219.2 -68.25 224.35 -71.0 225.1 -71.75 229.6 -75.4 232.85 -79.9 235.95 -86.25 237.45 -93.0 237.35 -99.65 236.2 -104.25 233.1 -110.9 231.6 -112.4 Q223.25 -120.7 216.2 -119.25 L216.45 -120.5 216.6 -120.65 223.2 -125.4 228.85 -128.65 229.2 -128.9 Q241.4 -132.55 248.35 -128.65 L252.6 -126.4 254.6 -125.0 256.85 -122.75 Q283.45 -88.45 269.6 -48.4 251.4 -9.15 210.45 -14.9 189.15 -16.6 178.1 -7.0 L170.95 -0.25 165.85 6.5 162.85 14.1 Q159.85 19.9 155.35 26.0 L150.95 31.25 130.85 51.35 109.95 71.0 98.2 80.35 86.1 88.0 Q71.15 96.25 59.45 100.0 35.35 109.8 -3.8 107.35 L-16.65 105.85 -28.05 103.6 -48.8 97.75 Q-60.9 93.7 -66.55 90.75 L-67.3 90.6 -67.05 91.25 -68.05 91.25 -68.65 92.5 Q-69.0 95.15 -67.55 107.6 L-68.3 122.85 Q-69.85 135.55 -74.15 142.0 -79.3 149.65 -84.4 148.6 -89.6 147.95 -91.05 131.35 -90.9 126.9 -90.3 126.25 L-90.45 126.1 -90.55 126.0 -96.8 132.0 Q-98.55 133.9 -104.3 136.1 L-107.15 136.75 -111.4 136.5 -113.9 135.0 Q-121.35 122.3 -105.55 104.85 -117.4 108.7 -126.3 97.6 L-126.55 96.85 -126.15 93.25 Q-121.8 84.25 -112.9 81.75 L-107.65 80.35 -97.3 79.35 Q-90.1 79.3 -79.15 81.0 L-77.65 80.35 Q-80.6 45.05 -78.3 31.5 -73.15 -15.25 -67.05 -34.0 L-60.05 -57.65 Q-53.65 -75.25 -52.8 -74.9 L-41.55 -90.75 Q-38.8 -95.5 -23.55 -105.75 -36.05 -129.65 -34.55 -146.5 -33.8 -173.0 -20.55 -212.0 -7.65 -242.7 -0.8 -226.15 5.7 -213.0 -4.8 -160.9 L-3.4 -160.9 Q-1.3 -162.4 13.35 -183.4 16.45 -186.4 19.1 -186.4 L22.35 -185.5 Q24.45 -184.45 25.1 -180.15 L24.95 -174.65 23.1 -165.9 15.7 -141.0 14.6 -133.9 14.7 -132.15 15.35 -131.9 17.45 -133.15 Q35.15 -159.5 39.1 -144.9 L38.7 -140.75 37.35 -134.65 Q69.95 -137.0 90.1 -128.4 L105.2 -119.9 113.7 -113.15 M142.6 -102.4 L144.6 -102.75 142.6 -102.4 M78.7 -43.15 L77.95 -44.65 73.35 -49.9 65.6 -55.5 Q65.6 -54.8 59.6 -61.0 L55.45 -67.0 50.45 -75.65 44.6 -88.0 41.35 -96.15 38.85 -104.25 37.35 -112.4 36.2 -126.5 37.35 -134.65 36.2 -126.5 37.35 -112.4 38.85 -104.25 41.35 -96.15 44.6 -88.0 50.45 -75.65 55.45 -67.0 59.6 -61.0 Q65.6 -54.8 65.6 -55.5 L73.35 -49.9 77.95 -44.65 78.7 -43.15 M137.95 -131.0 L139.95 -131.6 137.95 -131.0 M59.6 -28.25 L58.85 -29.75 57.2 -31.15 31.7 -47.4 20.1 -55.5 4.35 -68.4 -3.9 -76.9 -15.9 -92.65 -23.55 -105.75 -15.9 -92.65 -3.9 -76.9 4.35 -68.4 20.1 -55.5 31.7 -47.4 57.2 -31.15 58.85 -29.75 59.6 -28.25 M184.1 -57.0 L184.05 -57.55 184.1 -57.65 183.95 -57.65 184.1 -57.65 184.05 -57.55 184.1 -57.0 M184.05 -57.55 L183.95 -57.5 184.05 -57.55 M-90.45 126.1 L-84.55 119.75 -82.8 118.6 -84.55 119.75 -90.45 126.1 M-105.55 104.85 L-100.05 103.1 -95.55 102.25 -100.05 103.1 -105.55 104.85 M-67.55 90.5 L-69.8 88.25 -71.8 85.1 -69.8 88.25 -67.55 90.5" fill="#ffffff" fill-rule="evenodd" stroke="none"/>
    <path d="M143.1 -143.15 L136.7 -153.0 131.95 -161.15 131.2 -163.4 132.7 -163.5 135.45 -162.65 148.7 -155.4 Q162.25 -147.6 185.6 -132.5 L192.6 -128.65 195.95 -126.75 196.6 -126.4 187.2 -115.9 183.45 -110.4 180.6 -104.25 179.2 -100.25 177.7 -92.9 155.2 -125.5 154.95 -125.75 155.2 -125.5 155.1 -125.5 154.95 -125.75 149.1 -134.4 149.05 -134.5 143.1 -143.15 M202.35 -71.25 L203.35 -67.0 204.95 -63.65 Q207.0 -58.75 204.35 -59.4 L190.85 -74.9 187.85 -78.9 195.1 -83.9 195.6 -81.4 198.45 -75.75 202.1 -71.75 202.35 -71.25" fill="#fa410f" fill-rule="evenodd" stroke="none"/>
    <path d="M241.6 -147.75 L243.95 -146.4 247.95 -142.15 251.35 -134.9 252.7 -128.65 252.6 -126.4 248.35 -128.65 Q241.4 -132.55 229.2 -128.9 230.35 -133.85 225.45 -135.0 221.1 -134.2 221.2 -128.65 L221.45 -127.4 221.85 -126.5 223.2 -125.4 216.6 -120.65 218.1 -128.65 218.7 -134.4 218.45 -136.75 Q217.35 -142.35 214.2 -140.65 L216.35 -143.5 217.45 -144.65 217.6 -144.75 217.7 -144.9 217.85 -144.9 218.2 -145.15 218.35 -145.4 218.2 -145.15 217.85 -144.9 218.35 -145.4 218.45 -145.4 218.85 -145.75 218.95 -145.75 219.45 -146.25 218.95 -145.75 219.35 -146.25 219.45 -146.25 Q233.4 -154.5 241.6 -147.75 M216.2 -119.25 Q223.25 -120.7 231.6 -112.4 L233.1 -110.9 236.2 -104.25 237.35 -99.65 237.45 -93.0 235.95 -86.25 232.85 -79.9 229.6 -75.4 225.1 -71.75 224.35 -71.0 219.2 -68.25 203.7 -88.0 201.95 -89.65 206.45 -94.4 208.6 -97.5 209.2 -96.15 Q211.65 -92.4 215.85 -96.15 219.0 -101.35 214.45 -104.25 L211.95 -104.4 214.6 -112.4 216.2 -119.25 M213.6 -66.9 L208.35 -67.65 202.35 -71.25 202.1 -71.75 198.45 -75.75 195.6 -81.4 195.1 -83.9 197.45 -85.75 199.7 -82.4 213.6 -66.9" fill="#ff7a16" fill-rule="evenodd" stroke="none"/>
    <path d="M177.7 -92.9 L179.2 -100.25 180.6 -104.25 183.45 -110.4 187.2 -115.9 196.6 -126.4 198.85 -128.65 195.95 -126.75 192.6 -128.65 193.8 -129.8 198.2 -134.15 205.9 -142.45 206.5 -143.0 206.6 -143.15 207.4 -143.95 207.9 -144.45 211.75 -148.2 212.15 -148.6 214.0 -150.35 214.25 -150.6 Q224.0 -159.75 234.45 -167.5 L234.6 -167.65 234.7 -167.65 234.85 -167.9 235.2 -168.0 235.2 -168.15 Q247.0 -179.35 242.1 -169.25 L239.7 -166.25 256.85 -122.75 254.6 -125.0 252.6 -126.4 252.7 -128.65 251.35 -134.9 247.95 -142.15 243.95 -146.4 241.6 -147.75 235.35 -161.65 239.7 -166.25 235.35 -161.65 219.35 -146.25 218.95 -145.75 218.85 -145.75 218.45 -145.4 218.35 -145.4 217.85 -144.9 217.7 -144.9 217.6 -144.75 217.45 -144.65 216.35 -143.5 214.1 -141.9 213.6 -140.5 214.2 -140.65 Q217.35 -142.35 218.45 -136.75 L218.7 -134.4 218.1 -128.65 216.6 -120.65 216.45 -120.5 216.2 -119.25 214.6 -112.4 211.95 -104.4 211.95 -104.25 208.6 -97.5 206.45 -94.4 201.95 -89.65 203.7 -88.0 219.2 -68.25 232.1 -51.9 234.7 -47.4 236.1 -44.25 238.35 -35.5 238.2 -27.75 237.2 -23.0 235.7 -18.4 234.6 -17.65 233.6 -17.65 Q229.2 -20.45 231.35 -23.0 L233.35 -28.9 234.1 -35.4 233.6 -39.25 231.7 -45.9 230.95 -47.4 213.6 -66.9 199.7 -82.4 197.45 -85.75 198.45 -87.0 201.95 -89.65 198.45 -87.0 197.45 -85.75 195.1 -83.9 187.85 -78.9 187.1 -78.5 Q174.75 -71.6 177.7 -92.9 M197.2 -132.5 L197.35 -132.5 220.7 -153.0 237.1 -168.9 237.2 -169.15 237.7 -169.5 237.1 -168.9 237.7 -169.5 237.2 -169.15 235.2 -168.15 237.2 -169.15 237.1 -168.9 220.7 -153.0 197.35 -132.5 197.35 -132.4 197.2 -132.4 197.2 -132.5 198.2 -134.15 197.2 -132.5 197.2 -132.4 197.35 -132.4 197.35 -132.5 197.2 -132.5 M237.7 -169.5 L240.1 -171.9 237.7 -169.5 M234.7 -167.65 L234.95 -167.75 234.95 -167.9 234.85 -167.9 234.95 -167.9 235.2 -168.0 234.95 -167.9 234.95 -167.75 234.7 -167.65 M184.95 -109.5 L182.45 -104.25 180.35 -96.15 179.7 -88.0 Q179.9 -82.95 181.85 -82.15 183.95 -81.75 186.6 -83.4 L193.1 -88.0 199.95 -93.5 201.45 -95.15 202.6 -96.3 204.2 -98.1 204.4 -98.35 205.15 -99.45 205.35 -99.75 206.45 -101.4 207.85 -104.25 210.85 -112.4 214.1 -128.65 214.2 -128.9 214.3 -129.35 214.35 -129.75 214.35 -130.2 214.35 -130.5 214.35 -131.0 214.35 -131.65 214.1 -134.15 212.95 -135.75 Q210.45 -135.85 207.95 -133.65 L202.1 -128.65 190.85 -117.4 184.95 -109.5 190.85 -117.4 202.1 -128.65 207.95 -133.65 Q210.45 -135.85 212.95 -135.75 L214.1 -134.15 214.35 -131.65 214.35 -131.0 214.35 -130.5 214.35 -130.2 214.35 -129.75 214.3 -129.35 214.2 -128.9 214.1 -128.65 210.85 -112.4 207.85 -104.25 206.45 -101.4 205.35 -99.75 205.15 -99.45 204.4 -98.35 204.2 -98.1 202.6 -96.3 201.45 -95.15 199.95 -93.5 193.1 -88.0 186.6 -83.4 Q183.95 -81.75 181.85 -82.15 179.9 -82.95 179.7 -88.0 L180.35 -96.15 182.45 -104.25 184.95 -109.5 M193.8 -129.8 L196.85 -132.15 193.8 -129.8 M213.6 -140.5 L210.1 -138.5 Q212.1 -142.45 211.1 -143.15 L211.95 -144.25 213.2 -144.65 214.7 -143.9 214.1 -141.9 214.7 -143.9 213.2 -144.65 211.95 -144.25 211.1 -143.15 Q212.1 -142.45 210.1 -138.5 L213.6 -140.5 M210.1 -138.5 L209.95 -138.4 210.1 -138.4 210.1 -138.5 210.1 -138.4 209.95 -138.4 207.7 -136.75 198.85 -128.65 207.7 -136.75 209.95 -138.4 210.1 -138.5 M201.45 -95.15 L202.35 -96.15 202.6 -96.3 202.35 -96.15 201.45 -95.15" fill="#43396f" fill-rule="evenodd" stroke="none"/>
    <path d="M223.2 -125.4 L221.85 -126.5 221.45 -127.4 221.2 -128.65 Q221.1 -134.2 225.45 -135.0 230.35 -133.85 229.2 -128.9 L228.85 -128.65 223.2 -125.4 M208.6 -97.5 L211.95 -104.25 211.95 -104.4 214.45 -104.25 Q219.0 -101.35 215.85 -96.15 211.65 -92.4 209.2 -96.15 L208.6 -97.5" fill="#000000" fill-rule="evenodd" stroke="none"/>
    <path d="M190.85 -74.9 L188.6 -76.5 187.85 -77.5 187.7 -77.5 187.6 -77.75 187.1 -78.5 187.85 -78.9 190.85 -74.9 M187.85 -77.5 L187.6 -77.75 187.85 -77.5" fill="#fa420e" fill-rule="evenodd" stroke="none"/>
    <path d="M148.7 -155.4 Q154.1 -171.4 151.45 -177.4 144.85 -187.6 122.2 -153.0 111.45 -137.45 113.7 -113.15 L114.7 -112.4 123.95 -104.25 131.85 -96.15 138.6 -88.0 144.6 -79.9 153.85 -65.65 152.95 -72.4 151.35 -92.75 154.6 -96.65 155.1 -98.5 154.35 -101.15 152.35 -103.0 144.6 -102.75 142.6 -102.4 M148.7 -155.4 L135.45 -162.65 132.7 -163.5 131.2 -163.4 131.95 -161.15 136.7 -153.0 143.1 -143.15 149.05 -134.5 149.1 -134.4 154.95 -125.75 155.2 -125.5 177.7 -92.9 179.2 -100.25 180.6 -104.25 183.45 -110.4 187.2 -115.9 196.6 -126.4 195.95 -126.75 192.6 -128.65 185.6 -132.5 Q162.25 -147.6 148.7 -155.4 M113.7 -113.15 L105.2 -119.9 90.1 -128.4 Q69.95 -137.0 37.35 -134.65 L36.2 -126.5 37.35 -112.4 38.85 -104.25 41.35 -96.15 44.6 -88.0 50.45 -75.65 55.45 -67.0 59.6 -61.0 Q65.6 -54.8 65.6 -55.5 L73.35 -49.9 77.95 -44.65 78.7 -43.15 M155.1 -125.5 L154.95 -125.75 M155.2 -125.5 L155.1 -125.5 152.45 -120.25 145.85 -111.5 144.85 -108.25 144.6 -102.75 M139.95 -131.6 L137.95 -131.0 M143.1 -143.15 L140.1 -137.75 139.2 -132.75 139.45 -131.9 139.95 -131.6 140.1 -131.5 Q148.25 -134.7 149.05 -134.5 M37.35 -134.65 L38.7 -140.75 39.1 -144.9 Q35.15 -159.5 17.45 -133.15 L15.35 -131.9 14.7 -132.15 14.6 -133.9 15.7 -141.0 23.1 -165.9 24.95 -174.65 25.1 -180.15 Q24.45 -184.45 22.35 -185.5 L19.1 -186.4 Q16.45 -186.4 13.35 -183.4 -1.3 -162.4 -3.4 -160.9 L-4.8 -160.9 Q5.7 -213.0 -0.8 -226.15 -7.65 -242.7 -20.55 -212.0 -33.8 -173.0 -34.55 -146.5 -36.05 -129.65 -23.55 -105.75 L-15.9 -92.65 -3.9 -76.9 4.35 -68.4 20.1 -55.5 31.7 -47.4 57.2 -31.15 58.85 -29.75 59.6 -28.25 M252.6 -126.4 L252.7 -128.65 251.35 -134.9 247.95 -142.15 243.95 -146.4 241.6 -147.75 Q233.4 -154.5 219.45 -146.25 L218.95 -145.75 218.85 -145.75 218.45 -145.4 218.35 -145.4 218.2 -145.15 217.85 -144.9 217.7 -144.9 217.6 -144.75 217.45 -144.65 216.35 -143.5 214.2 -140.65 Q217.35 -142.35 218.45 -136.75 L218.7 -134.4 218.1 -128.65 216.6 -120.65 223.2 -125.4 221.85 -126.5 221.45 -127.4 221.2 -128.65 Q221.1 -134.2 225.45 -135.0 230.35 -133.85 229.2 -128.9 241.4 -132.55 248.35 -128.65 L252.6 -126.4 254.6 -125.0 256.85 -122.75 239.7 -166.25 235.35 -161.65 241.6 -147.75 M192.6 -128.65 L193.8 -129.8 198.2 -134.15 205.9 -142.45 206.5 -143.0 206.6 -143.15 207.4 -143.95 207.9 -144.45 211.75 -148.2 212.15 -148.6 214.0 -150.35 214.25 -150.6 Q224.0 -159.75 234.45 -167.5 L234.6 -167.65 234.7 -167.65 234.85 -167.9 235.2 -168.0 235.2 -168.15 Q247.0 -179.35 242.1 -169.25 L239.7 -166.25 M234.85 -167.9 L234.95 -167.9 235.2 -168.0 M234.95 -167.9 L234.95 -167.75 234.7 -167.65 M237.2 -169.15 L237.1 -168.9 237.7 -169.5 237.2 -169.15 235.2 -168.15 M240.1 -171.9 L237.7 -169.5 M237.1 -168.9 L220.7 -153.0 197.35 -132.5 197.35 -132.4 197.2 -132.4 197.2 -132.5 198.2 -134.15 M197.35 -132.5 L197.2 -132.5 M196.6 -126.4 L198.85 -128.65 195.95 -126.75 M196.85 -132.15 L193.8 -129.8 M184.95 -109.5 L190.85 -117.4 202.1 -128.65 207.95 -133.65 Q210.45 -135.85 212.95 -135.75 L214.1 -134.15 214.35 -131.65 214.35 -131.0 214.35 -130.5 214.35 -130.2 214.35 -129.75 214.3 -129.35 214.2 -128.9 214.1 -128.65 210.85 -112.4 207.85 -104.25 206.45 -101.4 205.35 -99.75 205.15 -99.45 204.4 -98.35 204.2 -98.1 202.6 -96.3 201.45 -95.15 199.95 -93.5 193.1 -88.0 186.6 -83.4 Q183.95 -81.75 181.85 -82.15 179.9 -82.95 179.7 -88.0 L180.35 -96.15 182.45 -104.25 184.95 -109.5 M229.2 -128.9 L228.85 -128.65 223.2 -125.4 M219.45 -146.25 L219.35 -146.25 218.95 -145.75 M218.35 -145.4 L217.85 -144.9 M214.1 -141.9 L214.7 -143.9 213.2 -144.65 211.95 -144.25 211.1 -143.15 Q212.1 -142.45 210.1 -138.5 L213.6 -140.5 214.1 -141.9 216.35 -143.5 M213.6 -140.5 L214.2 -140.65 M210.1 -138.5 L210.1 -138.4 209.95 -138.4 207.7 -136.75 198.85 -128.65 M209.95 -138.4 L210.1 -138.5 M216.6 -120.65 L216.45 -120.5 216.2 -119.25 Q223.25 -120.7 231.6 -112.4 L233.1 -110.9 236.2 -104.25 237.35 -99.65 237.45 -93.0 235.95 -86.25 232.85 -79.9 229.6 -75.4 225.1 -71.75 224.35 -71.0 219.2 -68.25 232.1 -51.9 234.7 -47.4 236.1 -44.25 238.35 -35.5 238.2 -27.75 237.2 -23.0 235.7 -18.4 234.6 -17.65 233.6 -17.65 Q229.2 -20.45 231.35 -23.0 L233.35 -28.9 234.1 -35.4 233.6 -39.25 231.7 -45.9 230.95 -47.4 213.6 -66.9 208.35 -67.65 202.35 -71.25 203.35 -67.0 204.95 -63.65 Q207.0 -58.75 204.35 -59.4 L190.85 -74.9 188.6 -76.5 187.85 -77.5 187.7 -77.5 185.6 -70.15 183.95 -57.65 184.1 -57.65 184.05 -57.55 184.1 -57.0 M211.95 -104.4 L214.6 -112.4 216.2 -119.25 M208.6 -97.5 L211.95 -104.25 211.95 -104.4 214.45 -104.25 Q219.0 -101.35 215.85 -96.15 211.65 -92.4 209.2 -96.15 L208.6 -97.5 206.45 -94.4 201.95 -89.65 203.7 -88.0 219.2 -68.25 M235.35 -161.65 L219.35 -146.25 M202.6 -96.3 L202.35 -96.15 201.45 -95.15 M201.95 -89.65 L198.45 -87.0 197.45 -85.75 199.7 -82.4 213.6 -66.9 M187.7 -77.5 L187.6 -77.75 187.1 -78.5 Q174.75 -71.6 177.7 -92.9 M187.6 -77.75 L187.85 -77.5 M187.85 -78.9 L187.1 -78.5 M190.85 -74.9 L187.85 -78.9 195.1 -83.9 197.45 -85.75 M195.1 -83.9 L195.6 -81.4 198.45 -75.75 202.1 -71.75 202.35 -71.25 M183.95 -57.65 L183.95 -57.5 184.05 -57.55 M183.95 -57.5 L183.45 -56.0 183.35 -55.9 Q178.95 -45.85 167.6 -47.5 165.0 -47.9 162.2 -50.25 L153.85 -65.65 M256.85 -122.75 Q283.45 -88.45 269.6 -48.4 251.4 -9.15 210.45 -14.9 189.15 -16.6 178.1 -7.0 L170.95 -0.25 165.85 6.5 162.85 14.1 Q159.85 19.9 155.35 26.0 L150.95 31.25 130.85 51.35 109.95 71.0 98.2 80.35 86.1 88.0 Q71.15 96.25 59.45 100.0 35.35 109.8 -3.8 107.35 L-16.65 105.85 -28.05 103.6 -48.8 97.75 Q-60.9 93.7 -66.55 90.75 L-67.3 90.6 -67.05 91.25 -68.05 91.25 -68.65 92.5 Q-69.0 95.15 -67.55 107.6 L-68.3 122.85 Q-69.85 135.55 -74.15 142.0 -79.3 149.65 -84.4 148.6 -89.6 147.95 -91.05 131.35 -90.9 126.9 -90.3 126.25 L-90.45 126.1 -90.55 126.0 -96.8 132.0 Q-98.55 133.9 -104.3 136.1 L-107.15 136.75 -111.4 136.5 -113.9 135.0 Q-121.35 122.3 -105.55 104.85 -117.4 108.7 -126.3 97.6 L-126.55 96.85 -126.15 93.25 Q-121.8 84.25 -112.9 81.75 L-107.65 80.35 -97.3 79.35 Q-90.1 79.3 -79.15 81.0 L-77.65 80.35 Q-80.6 45.05 -78.3 31.5 -73.15 -15.25 -67.05 -34.0 L-60.05 -57.65 Q-53.65 -75.25 -52.8 -74.9 L-41.55 -90.75 Q-38.8 -95.5 -23.55 -105.75 M-71.8 85.1 L-69.8 88.25 -67.55 90.5 M-95.55 102.25 L-100.05 103.1 -105.55 104.85 M-82.8 118.6 L-84.55 119.75 -90.45 126.1" fill="none" stroke="#000000" stroke-linecap="round" stroke-linejoin="round" stroke-width="2.15"/>
  </g>
</svg>
