<?xml version="1.0" encoding="UTF-8" standalone="no"?>
<svg xmlns:xlink="http://www.w3.org/1999/xlink" height="372.45px" width="376.65px" xmlns="http://www.w3.org/2000/svg">
  <g transform="matrix(1.0, 0.0, 0.0, 1.0, 104.95, 227.55)">
    <path d="M195.6 -168.65 L195.7 -169.25 195.2 -171.75 195.35 -177.4 196.35 -181.25 198.45 -185.5 201.45 -189.75 212.95 -201.75 218.95 -206.75 Q221.85 -208.85 224.2 -208.15 L226.6 -206.4 229.1 -201.75 230.45 -197.4 230.45 -193.65 229.35 -189.75 224.2 -183.0 219.45 -178.65 212.35 -172.25 207.1 -168.15 202.1 -165.25 207.1 -168.15 212.35 -172.25 219.45 -178.65 224.2 -183.0 229.35 -189.75 230.45 -193.65 230.45 -197.4 229.1 -201.75 226.6 -206.4 224.2 -208.15 Q221.85 -208.85 218.95 -206.75 L212.95 -201.75 201.45 -189.75 198.45 -185.5 196.35 -181.25 195.35 -177.4 195.2 -171.75 195.7 -169.25 195.6 -168.65 192.6 -170.25 Q192.15 -183.7 203.95 -195.4 222.95 -217.4 228.95 -209.9 237.7 -197.9 232.95 -188.4 L227.45 -181.25 Q223.9 -181.45 224.6 -178.4 223.9 -181.45 227.45 -181.25 L229.45 -179.4 231.2 -176.5 232.45 -177.4 Q231.9 -177.85 238.6 -179.0 L242.7 -177.4 242.95 -177.25 246.1 -174.5 248.45 -171.25 249.85 -169.25 254.2 -161.15 257.6 -153.0 258.85 -147.4 258.85 -144.9 258.95 -144.15 258.7 -141.15 256.95 -136.75 252.85 -131.4 249.85 -128.65 248.85 -127.5 249.85 -128.65 252.85 -131.4 254.2 -128.65 256.2 -123.15 263.95 -100.9 264.2 -95.0 Q263.9 -86.0 257.85 -75.0 L256.35 -73.5 255.1 -73.65 254.1 -74.25 252.95 -76.4 253.6 -78.75 253.7 -79.0 254.1 -79.5 254.2 -79.75 254.2 -79.9 254.35 -79.9 257.6 -85.4 260.35 -92.5 260.95 -96.15 Q261.45 -101.2 260.95 -101.0 L252.85 -118.4 248.85 -127.5 235.95 -118.15 Q231.75 -116.0 228.85 -115.9 L227.6 -115.65 223.2 -116.5 Q217.25 -119.55 217.1 -120.5 216.25 -120.45 212.2 -125.65 L207.6 -133.4 206.1 -139.0 206.2 -144.9 208.1 -150.25 211.1 -155.5 214.95 -160.65 219.35 -165.75 225.1 -171.75 227.85 -174.25 231.2 -176.5 227.85 -174.25 227.85 -177.4 227.7 -177.9 224.6 -178.4 223.6 -177.4 214.2 -169.25 206.45 -163.25 202.1 -165.25 195.6 -168.65 M251.6 -157.0 L254.2 -148.65 254.2 -144.9 Q254.7 -142.2 250.7 -136.75 251.1 -136.35 245.95 -131.65 L242.1 -128.65 Q224.6 -112.65 215.1 -128.65 L212.2 -132.5 210.35 -136.75 209.35 -140.5 209.6 -144.9 211.1 -149.15 213.45 -153.0 217.2 -158.0 228.1 -169.25 Q238.15 -178.8 244.45 -169.25 L246.45 -166.5 251.6 -157.0 246.45 -166.5 244.45 -169.25 Q238.15 -178.8 228.1 -169.25 L217.2 -158.0 213.45 -153.0 211.1 -149.15 209.6 -144.9 209.35 -140.5 210.35 -136.75 212.2 -132.5 215.1 -128.65 Q224.6 -112.65 242.1 -128.65 L245.95 -131.65 Q251.1 -136.35 250.7 -136.75 254.7 -142.2 254.2 -144.9 L254.2 -148.65 251.6 -157.0 M219.45 -178.65 L219.95 -178.75 219.45 -178.65 M254.35 -79.9 L254.2 -79.75 254.35 -79.9 M253.7 -79.0 L253.95 -79.25 254.1 -79.5 253.95 -79.25 253.7 -79.0" fill="#43396f" fill-rule="evenodd" stroke="none"/>
    <path d="M-47.15 -86.65 L-45.65 -83.5 -44.3 -82.4 -44.15 -82.5 -42.8 -84.25 Q-37.9 -94.1 -31.55 -103.15 L-13.65 -126.65 -13.4 -126.9 -13.3 -127.15 -12.9 -127.5 -12.9 -127.65 -11.65 -129.25 -11.3 -129.65 -11.3 -129.75 Q-0.05 -145.45 6.7 -150.9 L17.35 -157.9 29.1 -160.5 Q38.6 -161.35 50.6 -159.4 51.5 -173.85 58.2 -182.0 L61.85 -197.9 Q64.7 -208.4 68.1 -216.9 72.65 -228.25 76.45 -226.15 79.85 -227.2 80.7 -206.0 L80.85 -206.0 Q105.9 -226.1 106.2 -209.9 106.2 -201.85 93.2 -185.0 L95.2 -182.4 Q96.15 -178.55 95.85 -173.15 104.7 -175.85 106.1 -167.75 106.85 -163.6 93.6 -154.15 L92.6 -144.15 94.2 -144.25 Q96.4 -148.35 98.35 -150.15 L100.85 -151.65 Q104.75 -150.55 103.45 -144.9 L102.45 -134.15 102.6 -131.0 102.6 -130.9 Q110.25 -124.45 135.7 -97.75 L142.1 -92.15 Q147.2 -87.85 151.85 -85.75 L156.6 -84.25 Q186.1 -81.9 192.6 -122.5 L192.7 -122.5 194.2 -120.5 198.2 -116.15 219.7 -111.65 222.7 -111.75 232.45 -105.4 235.2 -104.25 Q240.35 -103.7 229.95 -112.4 L227.6 -115.65 228.85 -115.9 232.85 -113.4 237.95 -112.4 238.6 -112.4 Q243.7 -112.15 248.35 -114.9 L252.85 -118.4 260.95 -101.0 Q261.45 -101.2 260.95 -96.15 L260.35 -92.5 257.6 -85.4 254.35 -79.9 254.2 -79.9 254.2 -79.75 254.1 -79.5 253.7 -79.0 253.6 -78.75 248.6 -74.0 Q245.65 -71.4 241.45 -69.25 L232.6 -66.15 Q205.35 -61.95 203.6 -60.0 L186.35 -53.0 Q183.45 -51.75 177.1 -47.0 L169.7 -40.4 160.35 -30.4 145.35 -11.65 127.85 8.0 98.95 42.85 88.95 53.1 77.7 62.75 66.95 71.0 54.95 78.75 Q33.45 91.3 5.95 93.1 L-6.15 93.75 -21.4 93.1 -35.9 91.25 -62.05 86.5 -61.9 87.1 -62.4 87.1 -62.55 108.25 Q-64.8 120.15 -72.55 135.35 L-75.8 139.85 Q-77.75 142.25 -81.4 143.6 L-84.8 143.85 Q-89.0 142.4 -88.9 141.75 L-89.0 141.8 -92.9 143.5 -96.55 143.6 -99.4 142.5 -100.9 141.1 Q-101.65 141.2 -103.4 136.85 L-103.9 132.5 Q-103.9 128.0 -102.4 123.0 L-99.05 114.25 -101.4 111.35 Q-102.35 109.55 -102.55 106.0 L-102.3 103.1 -101.15 99.5 -98.65 94.6 Q-97.85 92.8 -91.8 86.75 L-87.65 83.5 Q-84.5 81.65 -74.55 78.6 L-73.55 77.75 -73.3 76.35 -73.3 76.25 -74.65 66.0 Q-78.5 48.15 -79.05 40.1 L-79.05 29.25 -77.3 14.1 Q-75.5 4.35 -68.9 -16.4 L-69.05 -16.5 -68.9 -16.5 -66.55 -23.65 -63.15 -33.9 -63.05 -34.0 -63.05 -34.15 -53.25 -62.05 -53.2 -62.2 -53.05 -62.65 -53.55 -63.15 -54.4 -62.9 -62.8 -56.4 -64.3 -55.75 -65.4 -55.75 -65.65 -61.65 Q-69.8 -69.4 -68.4 -70.65 L-66.9 -73.15 -65.4 -74.75 -65.4 -74.9 -65.3 -74.9 -61.15 -79.9 -59.05 -83.35 -59.05 -83.4 -56.15 -94.15 -55.3 -96.15 -53.55 -96.15 -52.3 -95.0 -47.15 -86.65 M82.95 -174.25 L84.45 -177.4 Q88.6 -186.1 93.2 -185.0 88.6 -186.1 84.45 -177.4 L82.95 -174.25 80.95 -172.4 81.6 -171.4 82.95 -174.25 M80.85 -206.0 L80.7 -205.9 80.7 -206.0 80.7 -205.9 80.85 -206.0 M109.6 -35.9 L107.6 -39.25 103.45 -42.75 98.95 -47.4 84.85 -59.65 72.45 -74.0 68.7 -79.9 64.35 -88.0 60.7 -96.15 57.7 -104.25 55.35 -112.4 53.7 -120.5 52.6 -128.65 52.6 -144.9 54.1 -159.0 50.6 -159.4 54.1 -159.0 54.2 -159.0 58.2 -182.0 54.2 -159.0 54.1 -159.0 52.6 -144.9 52.6 -128.65 53.7 -120.5 55.35 -112.4 57.7 -104.25 60.7 -96.15 64.35 -88.0 68.7 -79.9 72.45 -74.0 84.85 -59.65 98.95 -47.4 103.45 -42.75 107.6 -39.25 109.6 -35.9 M79.6 -153.0 L78.95 -164.9 79.6 -153.0 M93.35 -126.0 L92.45 -132.5 92.7 -141.5 92.6 -144.15 92.7 -141.5 94.2 -144.25 92.7 -141.5 92.45 -132.5 93.35 -126.0 M123.45 -51.75 L122.1 -55.5 121.8 -55.85 120.7 -58.65 115.45 -66.5 111.45 -79.9 107.85 -96.15 102.45 -128.65 102.6 -130.9 102.45 -128.65 107.85 -96.15 111.45 -79.9 115.45 -66.5 120.7 -58.65 121.8 -55.85 122.1 -55.5 123.45 -51.75 M93.6 -154.15 L95.85 -173.15 93.6 -154.15 M80.7 -205.9 L80.6 -193.65 78.95 -169.25 79.1 -165.4 79.2 -165.4 81.6 -171.4 79.2 -165.4 79.1 -165.4 78.95 -169.25 80.6 -193.65 80.7 -205.9 M-63.15 -34.0 L-63.05 -34.15 -63.05 -34.0 -63.15 -33.9 -63.15 -34.0 M-65.4 -74.75 L-65.3 -74.9 -65.4 -74.75 M258.95 -144.15 L258.85 -144.9 258.85 -147.4 257.6 -153.0 254.2 -161.15 249.85 -169.25 248.45 -171.25 Q261.9 -165.05 269.6 -137.25 273.25 -110.4 264.2 -95.0 L263.95 -100.9 256.2 -123.15 258.7 -128.65 259.85 -133.9 259.7 -141.65 258.95 -144.15 M-11.3 -129.75 L-11.15 -129.75 -11.3 -129.65 -11.15 -129.75 -11.3 -129.75 M-12.9 -127.65 L-11.55 -129.25 -11.65 -129.25 -11.55 -129.25 -12.9 -127.65 M-53.05 -62.65 L-52.65 -63.65 -52.55 -64.15 -52.65 -63.65 -53.05 -62.65 M-68.9 -16.4 L-68.9 -16.5 -68.9 -16.4 M-89.0 141.8 L-86.3 139.5 -82.55 135.5 -67.55 113.6 -82.55 135.5 -86.3 139.5 -89.0 141.8 M-99.05 114.25 L-97.8 115.1 Q-90.65 121.1 -81.55 115.1 L-78.3 112.5 -72.9 107.0 -71.9 106.35 -72.9 107.0 -78.3 112.5 -81.55 115.1 Q-90.65 121.1 -97.8 115.1 L-99.05 114.25 M-62.05 86.55 L-63.15 82.6 -62.05 86.55 -62.05 86.5 -62.05 86.55 -62.4 87.1 -62.05 86.55" fill="#ffffff" fill-rule="evenodd" stroke="none"/>
    <path d="M195.6 -168.65 L202.1 -165.25 206.45 -163.25 210.45 -161.75 213.35 -161.15 214.95 -160.65 211.1 -155.5 208.1 -150.25 206.2 -144.9 206.1 -139.0 207.6 -133.4 212.2 -125.65 Q216.25 -120.45 217.1 -120.5 217.25 -119.55 223.2 -116.5 L227.6 -115.65 229.95 -112.4 Q240.35 -103.7 235.2 -104.25 L232.45 -105.4 222.7 -111.75 222.35 -112.4 218.45 -115.65 206.2 -128.65 178.7 -156.5 178.6 -156.5 178.45 -156.75 168.7 -168.15 159.1 -181.9 158.2 -183.4 158.2 -184.15 162.85 -183.9 178.45 -177.4 192.6 -170.25 195.6 -168.65 M-69.05 -16.5 Q-78.3 -19.8 -76.05 -28.5 L-73.65 -30.5 Q-65.15 -32.25 -63.15 -34.0 L-63.15 -33.9 -66.55 -23.65 -68.9 -16.5 -69.05 -16.5 M-65.4 -74.9 L-70.9 -77.75 Q-84.15 -81.8 -85.4 -83.25 -91.15 -90.05 -87.4 -96.25 -87.75 -98.7 -67.3 -110.4 L-58.05 -118.65 -46.4 -127.5 Q-35.15 -135.7 -37.4 -128.65 -43.65 -118.45 -44.9 -113.0 -45.4 -112.2 -40.9 -110.65 L-32.3 -108.4 -30.65 -107.4 -30.3 -106.4 -31.3 -104.25 Q-43.55 -96.35 -45.8 -94.15 L-47.65 -91.9 Q-48.15 -89.8 -47.15 -86.65 L-52.3 -95.0 -53.55 -96.15 -55.3 -96.15 -56.15 -94.15 -59.05 -83.4 -59.05 -83.35 -61.15 -79.9 -65.3 -74.9 -65.4 -74.9 M178.45 -156.75 L178.7 -156.5 178.45 -156.75 M-79.55 -91.25 L-75.9 -89.5 -71.05 -88.0 -65.55 -85.5 -59.05 -83.35 -65.55 -85.5 -71.05 -88.0 -75.9 -89.5 -79.55 -91.25 M-66.55 -23.65 L-71.3 -25.5 -72.15 -26.25 -71.3 -25.5 -66.55 -23.65" fill="#fa410f" fill-rule="evenodd" stroke="none"/>
    <path d="M206.45 -163.25 L214.2 -169.25 223.6 -177.4 224.6 -178.4 227.7 -177.9 227.85 -177.4 227.85 -174.25 225.1 -171.75 Q220.1 -177.25 218.1 -169.25 L218.2 -167.65 219.35 -165.75 214.95 -160.65 213.35 -161.15 210.45 -161.75 206.45 -163.25 M227.45 -181.25 L232.95 -188.4 Q237.4 -186.9 240.6 -182.4 L242.95 -177.25 242.7 -177.4 238.6 -179.0 Q231.9 -177.85 232.45 -177.4 L231.2 -176.5 229.45 -179.4 227.45 -181.25 M258.95 -144.15 L259.7 -141.65 259.85 -133.9 258.7 -128.65 256.2 -123.15 254.2 -128.65 252.85 -131.4 256.95 -136.75 258.7 -141.15 258.95 -144.15 M228.85 -115.9 Q231.75 -116.0 235.95 -118.15 L248.85 -127.5 252.85 -118.4 248.35 -114.9 Q243.7 -112.15 238.6 -112.4 L237.95 -112.4 232.85 -113.4 228.85 -115.9" fill="#ff7a16" fill-rule="evenodd" stroke="none"/>
    <path d="M225.1 -171.75 L219.35 -165.75 218.2 -167.65 218.1 -169.25 Q220.1 -177.25 225.1 -171.75" fill="#000000" fill-rule="evenodd" stroke="none"/>
    <path d="M192.6 -122.5 L192.45 -122.75 191.1 -125.15 Q186.95 -137.2 185.35 -140.0 L181.6 -147.4 178.6 -156.5 178.7 -156.5 206.2 -128.65 218.45 -115.65 222.35 -112.4 222.7 -111.75 219.7 -111.65 198.2 -116.15 194.2 -120.5 192.7 -122.5 192.6 -122.5 M192.7 -122.5 L192.45 -122.75 192.7 -122.5" fill="#fa420e" fill-rule="evenodd" stroke="none"/>
    <path d="M202.1 -165.25 L207.1 -168.15 212.35 -172.25 219.45 -178.65 224.2 -183.0 229.35 -189.75 230.45 -193.65 230.45 -197.4 229.1 -201.75 226.6 -206.4 224.2 -208.15 Q221.85 -208.85 218.95 -206.75 L212.95 -201.75 201.45 -189.75 198.45 -185.5 196.35 -181.25 195.35 -177.4 195.2 -171.75 195.7 -169.25 195.6 -168.65 202.1 -165.25 206.45 -163.25 214.2 -169.25 223.6 -177.4 224.6 -178.4 Q223.9 -181.45 227.45 -181.25 L232.95 -188.4 Q237.7 -197.9 228.95 -209.9 222.95 -217.4 203.95 -195.4 192.15 -183.7 192.6 -170.25 L195.6 -168.65 M-47.15 -86.65 L-45.65 -83.5 -44.3 -82.4 -44.15 -82.5 -42.8 -84.25 Q-37.9 -94.1 -31.55 -103.15 L-13.65 -126.65 -13.4 -126.9 -13.3 -127.15 -12.9 -127.5 -12.9 -127.65 -11.65 -129.25 -11.3 -129.65 -11.3 -129.75 Q-0.05 -145.45 6.7 -150.9 L17.35 -157.9 29.1 -160.5 Q38.6 -161.35 50.6 -159.4 51.5 -173.85 58.2 -182.0 L61.85 -197.9 Q64.7 -208.4 68.1 -216.9 72.65 -228.25 76.45 -226.15 79.85 -227.2 80.7 -206.0 L80.85 -206.0 Q105.9 -226.1 106.2 -209.9 106.2 -201.85 93.2 -185.0 L95.2 -182.4 Q96.15 -178.55 95.85 -173.15 104.7 -175.85 106.1 -167.75 106.85 -163.6 93.6 -154.15 L92.6 -144.15 94.2 -144.25 Q96.4 -148.35 98.35 -150.15 L100.85 -151.65 Q104.75 -150.55 103.45 -144.9 L102.45 -134.15 102.6 -131.0 102.6 -130.9 Q110.25 -124.45 135.7 -97.75 L142.1 -92.15 Q147.2 -87.85 151.85 -85.75 L156.6 -84.25 Q186.1 -81.9 192.6 -122.5 L192.45 -122.75 191.1 -125.15 Q186.95 -137.2 185.35 -140.0 L181.6 -147.4 178.6 -156.5 178.45 -156.75 168.7 -168.15 159.1 -181.9 158.2 -183.4 158.2 -184.15 162.85 -183.9 178.45 -177.4 192.6 -170.25 M80.7 -206.0 L80.7 -205.9 80.85 -206.0 M93.2 -185.0 Q88.6 -186.1 84.45 -177.4 L82.95 -174.25 81.6 -171.4 79.2 -165.4 79.1 -165.4 78.95 -169.25 80.6 -193.65 80.7 -205.9 M95.85 -173.15 L93.6 -154.15 M102.6 -130.9 L102.45 -128.65 107.85 -96.15 111.45 -79.9 115.45 -66.5 120.7 -58.65 121.8 -55.85 122.1 -55.5 123.45 -51.75 M92.6 -144.15 L92.7 -141.5 94.2 -144.25 M92.7 -141.5 L92.45 -132.5 93.35 -126.0 M50.6 -159.4 L54.1 -159.0 54.2 -159.0 58.2 -182.0 M78.95 -164.9 L79.6 -153.0 M54.1 -159.0 L52.6 -144.9 52.6 -128.65 53.7 -120.5 55.35 -112.4 57.7 -104.25 60.7 -96.15 64.35 -88.0 68.7 -79.9 72.45 -74.0 84.85 -59.65 98.95 -47.4 103.45 -42.75 107.6 -39.25 109.6 -35.9 M253.6 -78.75 L248.6 -74.0 Q245.65 -71.4 241.45 -69.25 L232.6 -66.15 Q205.35 -61.95 203.6 -60.0 L186.35 -53.0 Q183.45 -51.75 177.1 -47.0 L169.7 -40.4 160.35 -30.4 145.35 -11.65 127.85 8.0 98.95 42.85 88.95 53.1 77.7 62.75 66.95 71.0 54.95 78.75 Q33.45 91.3 5.95 93.1 L-6.15 93.75 -21.4 93.1 -35.9 91.25 -62.05 86.5 -61.9 87.1 -62.4 87.1 -62.55 108.25 Q-64.8 120.15 -72.55 135.35 L-75.8 139.85 Q-77.75 142.25 -81.4 143.6 L-84.8 143.85 Q-89.0 142.4 -88.9 141.75 L-89.0 141.8 -92.9 143.5 -96.55 143.6 -99.4 142.5 -100.9 141.1 Q-101.65 141.2 -103.4 136.85 L-103.9 132.5 Q-103.9 128.0 -102.4 123.0 L-99.05 114.25 -101.4 111.35 Q-102.35 109.55 -102.55 106.0 L-102.3 103.1 -101.15 99.5 -98.65 94.6 Q-97.85 92.8 -91.8 86.75 L-87.65 83.5 Q-84.5 81.65 -74.55 78.6 L-73.55 77.75 -73.3 76.35 -73.3 76.25 -74.65 66.0 Q-78.5 48.15 -79.05 40.1 L-79.05 29.25 -77.3 14.1 Q-75.5 4.35 -68.9 -16.4 L-69.05 -16.5 Q-78.3 -19.8 -76.05 -28.5 L-73.65 -30.5 Q-65.15 -32.25 -63.15 -34.0 L-63.05 -34.15 -53.25 -62.05 -53.2 -62.2 -53.05 -62.65 -53.55 -63.15 -54.4 -62.9 -62.8 -56.4 -64.3 -55.75 -65.4 -55.75 -65.65 -61.65 Q-69.8 -69.4 -68.4 -70.65 L-66.9 -73.15 -65.4 -74.75 -65.4 -74.9 -70.9 -77.75 Q-84.15 -81.8 -85.4 -83.25 -91.15 -90.05 -87.4 -96.25 -87.75 -98.7 -67.3 -110.4 L-58.05 -118.65 -46.4 -127.5 Q-35.15 -135.7 -37.4 -128.65 -43.65 -118.45 -44.9 -113.0 -45.4 -112.2 -40.9 -110.65 L-32.3 -108.4 -30.65 -107.4 -30.3 -106.4 -31.3 -104.25 Q-43.55 -96.35 -45.8 -94.15 L-47.65 -91.9 Q-48.15 -89.8 -47.15 -86.65 L-52.3 -95.0 -53.55 -96.15 -55.3 -96.15 -56.15 -94.15 -59.05 -83.4 -59.05 -83.35 -61.15 -79.9 -65.3 -74.9 -65.4 -74.75 M82.95 -174.25 L80.95 -172.4 81.6 -171.4 M248.45 -171.25 L249.85 -169.25 254.2 -161.15 257.6 -153.0 258.85 -147.4 258.85 -144.9 258.95 -144.15 259.7 -141.65 259.85 -133.9 258.7 -128.65 256.2 -123.15 263.95 -100.9 264.2 -95.0 Q273.25 -110.4 269.6 -137.25 261.9 -165.05 248.45 -171.25 L246.1 -174.5 242.95 -177.25 242.7 -177.4 238.6 -179.0 Q231.9 -177.85 232.45 -177.4 L231.2 -176.5 227.85 -174.25 225.1 -171.75 219.35 -165.75 214.95 -160.65 211.1 -155.5 208.1 -150.25 206.2 -144.9 206.1 -139.0 207.6 -133.4 212.2 -125.65 Q216.25 -120.45 217.1 -120.5 217.25 -119.55 223.2 -116.5 L227.6 -115.65 228.85 -115.9 Q231.75 -116.0 235.95 -118.15 L248.85 -127.5 249.85 -128.65 252.85 -131.4 256.95 -136.75 258.7 -141.15 258.95 -144.15 M251.6 -157.0 L246.45 -166.5 244.45 -169.25 Q238.15 -178.8 228.1 -169.25 L217.2 -158.0 213.45 -153.0 211.1 -149.15 209.6 -144.9 209.35 -140.5 210.35 -136.75 212.2 -132.5 215.1 -128.65 Q224.6 -112.65 242.1 -128.65 L245.95 -131.65 Q251.1 -136.35 250.7 -136.75 254.7 -142.2 254.2 -144.9 L254.2 -148.65 251.6 -157.0 M252.85 -131.4 L254.2 -128.65 256.2 -123.15 M252.85 -118.4 L248.35 -114.9 Q243.7 -112.15 238.6 -112.4 L237.95 -112.4 232.85 -113.4 228.85 -115.9 M253.6 -78.75 L253.7 -79.0 254.1 -79.5 254.2 -79.75 254.2 -79.9 254.35 -79.9 257.6 -85.4 260.35 -92.5 260.95 -96.15 Q261.45 -101.2 260.95 -101.0 L252.85 -118.4 248.85 -127.5 M227.85 -174.25 L227.85 -177.4 227.7 -177.9 224.6 -178.4 M231.2 -176.5 L229.45 -179.4 227.45 -181.25 M232.95 -188.4 Q237.4 -186.9 240.6 -182.4 L242.95 -177.25 M219.95 -178.75 L219.45 -178.65 M219.35 -165.75 L218.2 -167.65 218.1 -169.25 Q220.1 -177.25 225.1 -171.75 M206.45 -163.25 L210.45 -161.75 213.35 -161.15 214.95 -160.65 M178.7 -156.5 L178.45 -156.75 M178.6 -156.5 L178.7 -156.5 206.2 -128.65 218.45 -115.65 222.35 -112.4 222.7 -111.75 232.45 -105.4 235.2 -104.25 Q240.35 -103.7 229.95 -112.4 L227.6 -115.65 M192.45 -122.75 L192.7 -122.5 194.2 -120.5 198.2 -116.15 219.7 -111.65 222.7 -111.75 M192.7 -122.5 L192.6 -122.5 M254.1 -79.5 L253.95 -79.25 253.7 -79.0 M254.2 -79.75 L254.35 -79.9 M264.2 -95.0 Q263.9 -86.0 257.85 -75.0 L256.35 -73.5 255.1 -73.65 254.1 -74.25 252.95 -76.4 253.6 -78.75 M-11.65 -129.25 L-11.55 -129.25 -12.9 -127.65 M-11.3 -129.65 L-11.15 -129.75 -11.3 -129.75 M-65.3 -74.9 L-65.4 -74.9 M-59.05 -83.35 L-65.55 -85.5 -71.05 -88.0 -75.9 -89.5 -79.55 -91.25 M-52.55 -64.15 L-52.65 -63.65 -53.05 -62.65 M-63.05 -34.15 L-63.05 -34.0 -63.15 -33.9 -66.55 -23.65 -68.9 -16.5 -68.9 -16.4 M-72.15 -26.25 L-71.3 -25.5 -66.55 -23.65 M-63.15 -33.9 L-63.15 -34.0 M-68.9 -16.5 L-69.05 -16.5 M-62.05 86.5 L-62.05 86.55 -62.4 87.1 M-63.15 82.6 L-62.05 86.55 M-71.9 106.35 L-72.9 107.0 -78.3 112.5 -81.55 115.1 Q-90.65 121.1 -97.8 115.1 L-99.05 114.25 M-67.55 113.6 L-82.55 135.5 -86.3 139.5 -89.0 141.8" fill="none" stroke="#000000" stroke-linecap="round" stroke-linejoin="round" stroke-width="2.15"/>
  </g>
</svg>
