<?xml version="1.0" encoding="UTF-8" standalone="no"?>
<svg xmlns:xlink="http://www.w3.org/1999/xlink" height="349.75px" width="336.85px" xmlns="http://www.w3.org/2000/svg">
  <g transform="matrix(1.0, 0.0, 0.0, 1.0, 111.35, 219.05)">
    <path d="M-7.4 -150.0 Q-4.85 -179.75 7.95 -189.5 38.2 -215.75 55.95 -218.0 65.4 -218.2 55.6 -201.65 49.95 -192.15 28.35 -175.65 L28.4 -175.5 Q29.3 -174.2 48.6 -176.75 53.5 -176.55 53.2 -171.25 52.4 -168.65 50.35 -166.5 L44.85 -162.15 Q18.95 -167.9 8.1 -161.15 L0.7 -156.5 -7.4 -150.0 0.7 -156.5 8.1 -161.15 Q18.95 -167.9 44.85 -162.15 69.6 -153.45 82.85 -138.0 96.35 -126.35 118.35 -86.4 125.85 -88.9 129.85 -100.9 L131.45 -107.5 131.95 -111.75 132.2 -125.25 133.2 -134.15 Q135.35 -144.95 143.45 -153.0 L143.85 -155.9 147.7 -177.4 147.7 -177.65 151.1 -193.65 152.7 -199.5 153.95 -203.5 Q156.95 -209.85 157.95 -203.9 L158.45 -200.75 158.85 -193.65 158.85 -168.9 159.1 -147.0 157.95 -118.75 179.35 -117.75 181.6 -118.25 191.7 -113.75 194.35 -113.25 195.2 -113.75 195.2 -114.5 193.7 -116.15 189.85 -118.4 187.45 -120.5 184.45 -124.15 Q187.65 -121.65 192.6 -120.65 L197.1 -120.65 201.85 -122.65 204.1 -124.65 209.6 -127.9 Q211.25 -118.25 204.2 -100.15 L203.95 -99.5 203.85 -99.4 203.85 -99.25 203.35 -98.5 203.35 -98.4 203.2 -98.25 203.2 -98.15 202.95 -97.9 202.95 -97.75 202.85 -97.65 198.7 -91.15 194.45 -86.5 Q190.95 -83.1 186.95 -80.9 184.2 -78.5 161.95 -71.65 L153.2 -67.25 155.95 -90.9 157.95 -118.75 155.95 -90.9 153.2 -67.25 Q151.65 -46.7 132.35 -32.9 L130.2 -20.65 Q129.35 -17.2 125.45 -11.5 115.95 -2.25 93.45 31.5 L77.7 48.0 Q72.25 53.4 55.1 66.1 L45.1 72.35 Q22.35 83.3 17.6 82.5 L-0.15 84.0 -8.65 83.6 -28.8 79.75 Q-39.65 76.6 -43.55 74.5 L-44.3 74.25 -44.55 74.5 -42.4 77.6 -39.3 86.0 -38.55 92.5 Q-38.25 96.1 -39.65 100.75 -43.1 112.6 -53.8 107.0 L-54.4 106.6 -54.9 107.35 -61.55 119.5 -65.3 124.5 -68.15 127.0 -72.3 129.1 Q-76.55 131.45 -82.3 123.35 L-86.05 124.35 -89.9 124.0 -93.15 122.0 Q-95.9 119.55 -96.65 115.85 -99.1 106.65 -85.3 86.75 -78.05 74.1 -60.75 63.45 L-60.4 63.25 Q-71.55 48.3 -75.15 23.1 L-75.05 13.1 Q-75.05 7.75 -73.55 -2.65 L-69.55 -24.5 Q-65.25 -45.35 -64.15 -47.4 L-63.8 -49.4 -63.9 -50.0 -64.9 -50.15 -72.55 -48.0 Q-76.75 -46.95 -79.15 -47.15 L-80.65 -47.65 -81.15 -48.5 -80.4 -49.9 -75.8 -55.65 -74.55 -57.9 Q-69.3 -58.15 -67.9 -58.75 L-67.65 -58.9 -64.15 -63.65 -63.95 -64.15 -62.05 -67.75 -61.15 -70.75 -62.05 -67.75 -63.95 -64.15 -63.8 -64.65 -63.9 -65.75 -64.65 -66.75 Q-66.0 -68.35 -72.05 -68.15 L-71.05 -71.75 -68.8 -73.65 -65.3 -75.0 Q-62.1 -76.15 -61.15 -77.75 L-58.9 -81.15 -57.55 -80.9 -56.9 -79.9 Q-56.1 -78.4 -55.55 -71.9 L-55.45 -71.9 -55.15 -72.0 -50.15 -83.4 -43.9 -95.9 -31.75 -89.75 -29.8 -88.75 -26.8 -88.15 Q-20.25 -91.4 -21.9 -96.15 -22.55 -98.1 -24.65 -99.25 L-29.45 -101.2 -38.9 -104.9 Q-25.4 -131.35 -7.4 -150.0 M27.95 -175.0 L28.4 -175.5 27.95 -175.0 M137.2 -98.9 L137.2 -99.4 138.05 -107.9 138.7 -112.4 138.85 -112.5 138.95 -112.5 138.95 -112.65 138.95 -113.0 139.1 -113.9 139.1 -114.4 139.2 -115.0 139.2 -115.4 139.35 -116.15 143.45 -153.0 139.35 -116.15 139.2 -115.4 139.2 -115.0 139.1 -114.4 139.1 -113.9 138.95 -113.0 138.95 -112.65 138.95 -112.5 138.85 -112.5 138.7 -112.4 138.05 -107.9 137.2 -99.4 137.2 -98.9 M174.1 -159.5 L172.35 -159.65 175.2 -162.65 177.85 -166.4 180.7 -172.4 182.85 -172.25 180.35 -169.25 174.95 -161.15 174.1 -159.5 M138.85 -112.5 L138.95 -112.65 138.85 -112.5 M138.95 -113.0 L138.95 -113.4 139.1 -113.9 138.95 -113.4 138.95 -113.0 M118.35 -86.4 L129.1 -63.65 129.35 -62.9 129.7 -63.65 133.2 -79.9 138.05 -107.9 133.2 -79.9 129.7 -63.65 129.35 -62.9 128.2 -55.5 127.85 -47.4 128.35 -29.9 127.85 -47.4 128.2 -55.5 129.35 -62.9 129.1 -63.65 118.35 -86.4 M137.1 -97.9 L137.1 -98.4 137.1 -97.9 M-21.9 -79.9 Q-46.55 -71.65 -37.65 -79.9 L-33.8 -84.9 -32.3 -88.0 -31.75 -89.75 -32.3 -88.0 -33.8 -84.9 -37.65 -79.9 Q-46.55 -71.65 -21.9 -79.9 M-28.8 -82.5 L-20.8 -93.5 -18.15 -100.15 -20.8 -93.5 -28.8 -82.5 M-29.45 -101.2 L-27.4 -103.25 -25.3 -104.25 -22.8 -105.0 -20.15 -106.4 Q-18.6 -107.45 -15.8 -111.75 L-14.8 -111.75 -13.8 -110.9 -12.9 -109.0 -10.3 -96.15 -12.9 -109.0 -13.8 -110.9 -14.8 -111.75 -15.8 -111.75 Q-18.6 -107.45 -20.15 -106.4 L-22.8 -105.0 -25.3 -104.25 -27.4 -103.25 -29.45 -101.2 M-71.8 -53.25 L-67.9 -58.75 -71.8 -53.25 M-55.45 -71.9 L-55.3 -70.9 -54.65 -70.15 -53.15 -71.75 -50.05 -77.25 -53.15 -71.75 -54.65 -70.15 -55.3 -70.9 -55.45 -71.9 M-60.4 63.25 L-59.9 62.9 -58.3 61.35 -55.9 61.0 -58.3 61.35 -59.9 62.9 -60.4 63.25 M-82.3 123.35 Q-83.5 121.65 -83.9 118.85 L-84.15 115.1 -83.3 107.0 -76.55 84.25 -83.3 107.0 -84.15 115.1 -83.9 118.85 Q-83.5 121.65 -82.3 123.35 M-54.4 106.6 Q-56.9 105.1 -58.9 102.6 L-61.15 98.85 Q-61.6 99.3 -63.3 93.0 L-64.05 82.6 -63.3 93.0 Q-61.6 99.3 -61.15 98.85 L-58.9 102.6 Q-56.9 105.1 -54.4 106.6 M-44.65 74.1 L-46.9 70.85 -46.8 70.4 -47.8 69.5 -46.8 70.4 -46.8 70.1 -45.65 69.25 -46.15 68.6 -45.65 69.25 -46.8 70.1 -46.8 70.4 -46.9 70.85 -44.65 74.1" fill="#ffffff" fill-rule="evenodd" stroke="none"/>
    <path d="M153.95 -203.5 L152.7 -199.5 151.1 -193.65 147.7 -177.65 Q143.5 -180.25 143.1 -177.4 L143.45 -166.5 138.7 -172.4 Q137.35 -174.9 137.45 -177.4 L138.2 -181.15 140.45 -185.5 146.2 -193.65 148.95 -196.75 Q152.35 -199.9 152.7 -199.5 152.35 -199.9 148.95 -196.75 L146.2 -193.65 140.45 -185.5 138.2 -181.15 137.45 -177.4 Q137.35 -174.9 138.7 -172.4 L143.45 -166.5 143.7 -161.65 143.6 -161.65 Q132.85 -169.45 135.1 -180.0 143.9 -199.5 153.95 -203.5 M158.45 -200.75 L157.95 -203.9 Q189.25 -194.45 179.35 -179.25 L178.2 -178.9 177.45 -177.4 177.45 -176.4 177.45 -177.4 178.2 -178.9 179.35 -179.25 182.85 -177.9 185.95 -175.25 Q188.7 -177.7 192.45 -178.4 L197.95 -177.4 Q204.35 -175.95 220.2 -158.25 228.25 -149.4 221.1 -139.5 L221.6 -138.25 221.2 -135.65 211.2 -106.15 208.45 -99.5 203.85 -90.5 201.85 -87.65 Q198.15 -88.15 198.7 -91.15 L202.85 -97.65 202.95 -97.75 202.95 -97.9 203.2 -98.15 203.2 -98.25 203.35 -98.4 203.35 -98.5 203.85 -99.25 203.85 -99.4 203.95 -99.5 204.2 -100.15 Q206.0 -101.65 211.1 -113.65 L215.7 -133.25 209.6 -127.9 204.1 -124.65 Q196.6 -121.4 185.1 -128.65 L180.35 -131.65 174.95 -136.75 171.85 -141.0 170.95 -143.4 170.6 -150.9 172.1 -155.5 174.1 -159.5 174.95 -161.15 180.35 -169.25 182.85 -172.25 183.2 -172.75 181.85 -175.75 180.95 -176.4 179.1 -176.4 177.45 -176.4 170.85 -169.25 164.85 -163.5 161.85 -166.25 158.85 -168.9 158.85 -193.65 158.45 -200.75 Q163.45 -200.6 172.95 -193.65 178.5 -189.45 177.35 -185.5 L176.7 -183.0 Q174.7 -179.1 172.7 -177.4 L171.6 -175.75 161.85 -166.25 171.6 -175.75 172.7 -177.4 Q174.7 -179.1 176.7 -183.0 L177.35 -185.5 Q178.5 -189.45 172.95 -193.65 163.45 -200.6 158.45 -200.75 M216.1 -158.0 L219.1 -153.0 219.95 -150.15 Q219.6 -145.25 218.7 -144.9 L217.7 -142.75 Q215.6 -139.5 212.45 -136.75 L207.35 -131.75 Q202.2 -128.1 201.6 -128.65 200.1 -127.7 197.1 -128.0 L194.35 -128.65 Q188.75 -129.6 180.45 -136.75 L177.6 -139.4 Q174.5 -143.4 174.7 -144.9 174.1 -145.4 174.45 -149.9 L175.45 -153.0 177.6 -157.5 184.1 -167.25 185.95 -169.25 Q193.7 -178.8 204.45 -169.25 L213.35 -161.15 216.1 -158.0 213.35 -161.15 204.45 -169.25 Q193.7 -178.8 185.95 -169.25 L184.1 -167.25 177.6 -157.5 175.45 -153.0 174.45 -149.9 Q174.1 -145.4 174.7 -144.9 174.5 -143.4 177.6 -139.4 L180.45 -136.75 Q188.75 -129.6 194.35 -128.65 L197.1 -128.0 Q200.1 -127.7 201.6 -128.65 202.2 -128.1 207.35 -131.75 L212.45 -136.75 Q215.6 -139.5 217.7 -142.75 L218.7 -144.9 Q219.6 -145.25 219.95 -150.15 L219.1 -153.0 216.1 -158.0 M185.95 -175.25 L183.2 -172.75 185.95 -175.25 M215.7 -133.25 L221.1 -139.5 215.7 -133.25" fill="#43396f" fill-rule="evenodd" stroke="none"/>
    <path d="M147.7 -177.65 L147.7 -177.4 143.85 -155.9 143.7 -161.5 143.7 -161.65 143.7 -161.5 143.6 -161.65 143.7 -161.65 143.45 -166.5 143.1 -177.4 Q143.5 -180.25 147.7 -177.65 M161.85 -166.25 L164.85 -163.5 166.7 -161.75 167.95 -161.15 168.85 -160.5 172.35 -159.65 174.1 -159.5 172.1 -155.5 170.6 -150.9 170.95 -143.4 171.85 -141.0 174.95 -136.75 180.35 -131.65 181.6 -128.65 184.45 -124.15 187.45 -120.5 189.85 -118.4 193.7 -116.15 195.2 -114.5 195.2 -113.75 194.35 -113.25 191.7 -113.75 181.6 -118.25 179.95 -120.5 168.85 -133.25 160.85 -144.9 159.1 -147.0 158.85 -168.9 161.85 -166.25 M-80.65 -47.65 Q-79.9 -40.15 -85.65 -43.15 L-94.9 -51.15 -99.8 -58.25 -99.9 -58.4 -104.3 -59.15 Q-107.35 -60.4 -108.15 -61.65 L-110.05 -65.25 Q-110.6 -68.35 -109.9 -70.15 L-108.65 -72.4 -105.65 -74.75 Q-96.4 -78.0 -62.15 -99.25 L-57.15 -101.5 -69.65 -106.0 Q-72.55 -106.7 -77.9 -111.15 -84.4 -119.9 -81.9 -128.65 L-79.55 -132.4 -62.3 -148.4 -45.8 -158.5 -39.8 -161.75 -36.8 -162.5 -35.8 -162.0 -36.05 -161.15 -37.65 -158.15 -48.8 -146.15 -48.7 -146.1 -46.9 -144.9 -47.15 -143.15 -51.3 -139.0 -65.3 -128.5 -66.95 -126.65 -67.65 -125.9 -70.55 -120.4 -70.75 -119.75 -70.6 -119.1 Q-70.1 -118.05 -68.05 -116.65 L-38.9 -104.9 -29.45 -101.2 -24.65 -99.25 Q-22.55 -98.1 -21.9 -96.15 -20.25 -91.4 -26.8 -88.15 L-29.8 -88.75 -31.75 -89.75 -43.9 -95.9 -50.15 -98.9 -55.3 -100.75 -55.4 -100.75 -55.4 -100.9 -55.4 -100.75 -56.15 -98.5 -66.9 -83.15 -68.4 -79.75 -68.3 -78.65 Q-67.3 -75.95 -65.3 -75.0 L-68.8 -73.65 -71.05 -71.75 -72.05 -68.15 Q-66.0 -68.35 -64.65 -66.75 L-63.9 -65.75 -63.8 -64.65 -63.95 -64.15 -64.15 -63.65 -67.65 -58.9 -67.9 -58.75 Q-69.3 -58.15 -74.55 -57.9 L-78.55 -57.65 Q-80.35 -55.5 -80.4 -49.9 L-81.15 -48.5 -80.65 -47.65 M-55.3 -100.75 L-55.4 -100.9 -57.15 -101.5 -55.4 -100.9 -55.3 -100.75 M-64.8 -129.75 L-64.4 -130.25 -64.8 -129.75 M-65.55 -128.9 L-65.65 -129.15 -65.35 -129.6 -65.05 -130.15 -65.35 -129.6 -65.55 -128.9 -65.9 -128.65 -66.95 -126.65 -65.9 -128.65 -65.55 -128.9 -65.35 -129.6 -65.65 -129.15 -65.55 -128.9 M-48.7 -146.1 L-51.8 -142.75 -48.7 -146.1 M-103.8 -68.15 Q-81.2 -65.15 -72.05 -68.15 -81.2 -65.15 -103.8 -68.15 M-99.8 -58.25 L-78.55 -57.65 -99.8 -58.25" fill="#fa410f" fill-rule="evenodd" stroke="none"/>
    <path d="M159.1 -147.0 L160.85 -144.9 168.85 -133.25 179.95 -120.5 181.6 -118.25 179.35 -117.75 157.95 -118.75 159.1 -147.0" fill="#fa420e" fill-rule="evenodd" stroke="none"/>
    <path d="M164.85 -163.5 L170.85 -169.25 177.45 -176.4 179.1 -176.4 180.1 -174.65 180.7 -172.4 177.85 -166.4 175.2 -162.65 172.35 -159.65 168.85 -160.5 167.95 -161.15 166.7 -161.75 164.85 -163.5 M184.45 -124.15 L181.6 -128.65 180.35 -131.65 185.1 -128.65 Q196.6 -121.4 204.1 -124.65 L201.85 -122.65 197.1 -120.65 192.6 -120.65 Q187.65 -121.65 184.45 -124.15" fill="#ff7a16" fill-rule="evenodd" stroke="none"/>
    <path d="M28.4 -175.5 L28.35 -175.65 Q49.95 -192.15 55.6 -201.65 65.4 -218.2 55.95 -218.0 38.2 -215.75 7.95 -189.5 -4.85 -179.75 -7.4 -150.0 L0.7 -156.5 8.1 -161.15 Q18.95 -167.9 44.85 -162.15 L50.35 -166.5 Q52.4 -168.65 53.2 -171.25 53.5 -176.55 48.6 -176.75 29.3 -174.2 28.4 -175.5 L27.95 -175.0 M157.95 -203.9 Q156.95 -209.85 153.95 -203.5 L152.7 -199.5 151.1 -193.65 147.7 -177.65 147.7 -177.4 143.85 -155.9 143.45 -153.0 139.35 -116.15 139.2 -115.4 139.2 -115.0 139.1 -114.4 139.1 -113.9 138.95 -113.0 138.95 -112.65 138.95 -112.5 138.85 -112.5 138.7 -112.4 138.05 -107.9 137.2 -99.4 137.2 -98.9 M157.95 -203.9 L158.45 -200.75 Q163.45 -200.6 172.95 -193.65 178.5 -189.45 177.35 -185.5 L176.7 -183.0 Q174.7 -179.1 172.7 -177.4 L171.6 -175.75 161.85 -166.25 164.85 -163.5 170.85 -169.25 177.45 -176.4 177.45 -177.4 178.2 -178.9 179.35 -179.25 Q189.25 -194.45 157.95 -203.9 M143.45 -166.5 L143.1 -177.4 Q143.5 -180.25 147.7 -177.65 M152.7 -199.5 Q152.35 -199.9 148.95 -196.75 L146.2 -193.65 140.45 -185.5 138.2 -181.15 137.45 -177.4 Q137.35 -174.9 138.7 -172.4 L143.45 -166.5 143.7 -161.65 143.7 -161.5 143.85 -155.9 M143.6 -161.65 L143.7 -161.5 M143.7 -161.65 L143.6 -161.65 Q132.85 -169.45 135.1 -180.0 143.9 -199.5 153.95 -203.5 M161.85 -166.25 L158.85 -168.9 159.1 -147.0 160.85 -144.9 168.85 -133.25 179.95 -120.5 181.6 -118.25 191.7 -113.75 194.35 -113.25 195.2 -113.75 195.2 -114.5 193.7 -116.15 189.85 -118.4 187.45 -120.5 184.45 -124.15 181.6 -128.65 180.35 -131.65 174.95 -136.75 171.85 -141.0 170.95 -143.4 170.6 -150.9 172.1 -155.5 174.1 -159.5 172.35 -159.65 168.85 -160.5 167.95 -161.15 166.7 -161.75 164.85 -163.5 M158.45 -200.75 L158.85 -193.65 158.85 -168.9 M44.85 -162.15 Q69.6 -153.45 82.85 -138.0 96.35 -126.35 118.35 -86.4 125.85 -88.9 129.85 -100.9 L131.45 -107.5 131.95 -111.75 132.2 -125.25 133.2 -134.15 Q135.35 -144.95 143.45 -153.0 M139.1 -113.9 L138.95 -113.4 138.95 -113.0 M138.95 -112.65 L138.85 -112.5 M159.1 -147.0 L157.95 -118.75 179.35 -117.75 181.6 -118.25 M137.1 -98.4 L137.1 -97.9 M138.05 -107.9 L133.2 -79.9 129.7 -63.65 129.35 -62.9 128.2 -55.5 127.85 -47.4 128.35 -29.9 M129.35 -62.9 L129.1 -63.65 118.35 -86.4 M153.2 -67.25 L161.95 -71.65 Q184.2 -78.5 186.95 -80.9 190.95 -83.1 194.45 -86.5 L198.7 -91.15 202.85 -97.65 202.95 -97.75 202.95 -97.9 203.2 -98.15 203.2 -98.25 203.35 -98.4 203.35 -98.5 203.85 -99.25 203.85 -99.4 203.95 -99.5 204.2 -100.15 Q211.25 -118.25 209.6 -127.9 L204.1 -124.65 201.85 -122.65 197.1 -120.65 192.6 -120.65 Q187.65 -121.65 184.45 -124.15 M153.2 -67.25 L155.95 -90.9 157.95 -118.75 M153.2 -67.25 Q151.65 -46.7 132.35 -32.9 L130.2 -20.65 Q129.35 -17.2 125.45 -11.5 115.95 -2.25 93.45 31.5 L77.7 48.0 Q72.25 53.4 55.1 66.1 L45.1 72.35 Q22.35 83.3 17.6 82.5 L-0.15 84.0 -8.65 83.6 -28.8 79.75 Q-39.65 76.6 -43.55 74.5 L-44.3 74.25 -44.55 74.5 -42.4 77.6 -39.3 86.0 -38.55 92.5 Q-38.25 96.1 -39.65 100.75 -43.1 112.6 -53.8 107.0 L-54.4 106.6 -54.9 107.35 -61.55 119.5 -65.3 124.5 -68.15 127.0 -72.3 129.1 Q-76.55 131.45 -82.3 123.35 L-86.05 124.35 -89.9 124.0 -93.15 122.0 Q-95.9 119.55 -96.65 115.85 -99.1 106.65 -85.3 86.75 -78.05 74.1 -60.75 63.45 L-60.4 63.25 Q-71.55 48.3 -75.15 23.1 L-75.05 13.1 Q-75.05 7.75 -73.55 -2.65 L-69.55 -24.5 Q-65.25 -45.35 -64.15 -47.4 L-63.8 -49.4 -63.9 -50.0 -64.9 -50.15 -72.55 -48.0 Q-76.75 -46.95 -79.15 -47.15 L-80.65 -47.65 Q-79.9 -40.15 -85.65 -43.15 L-94.9 -51.15 -99.8 -58.25 -99.9 -58.4 -104.3 -59.15 Q-107.35 -60.4 -108.15 -61.65 L-110.05 -65.25 Q-110.6 -68.35 -109.9 -70.15 L-108.65 -72.4 -105.65 -74.75 Q-96.4 -78.0 -62.15 -99.25 L-57.15 -101.5 -69.65 -106.0 Q-72.55 -106.7 -77.9 -111.15 -84.4 -119.9 -81.9 -128.65 L-79.55 -132.4 -62.3 -148.4 -45.8 -158.5 -39.8 -161.75 -36.8 -162.5 -35.8 -162.0 -36.05 -161.15 -37.65 -158.15 -48.8 -146.15 -48.7 -146.1 -46.9 -144.9 -47.15 -143.15 -51.3 -139.0 -65.3 -128.5 -66.95 -126.65 -67.65 -125.9 -70.55 -120.4 -70.75 -119.75 -70.6 -119.1 Q-70.1 -118.05 -68.05 -116.65 L-38.9 -104.9 Q-25.4 -131.35 -7.4 -150.0 M216.1 -158.0 L213.35 -161.15 204.45 -169.25 Q193.7 -178.8 185.95 -169.25 L184.1 -167.25 177.6 -157.5 175.45 -153.0 174.45 -149.9 Q174.1 -145.4 174.7 -144.9 174.5 -143.4 177.6 -139.4 L180.45 -136.75 Q188.75 -129.6 194.35 -128.65 L197.1 -128.0 Q200.1 -127.7 201.6 -128.65 202.2 -128.1 207.35 -131.75 L212.45 -136.75 Q215.6 -139.5 217.7 -142.75 L218.7 -144.9 Q219.6 -145.25 219.95 -150.15 L219.1 -153.0 216.1 -158.0 M179.35 -179.25 L182.85 -177.9 185.95 -175.25 Q188.7 -177.7 192.45 -178.4 L197.95 -177.4 Q204.35 -175.95 220.2 -158.25 228.25 -149.4 221.1 -139.5 L221.6 -138.25 221.2 -135.65 211.2 -106.15 208.45 -99.5 203.85 -90.5 201.85 -87.65 Q198.15 -88.15 198.7 -91.15 M179.1 -176.4 L180.95 -176.4 181.85 -175.75 183.2 -172.75 185.95 -175.25 M177.45 -176.4 L179.1 -176.4 180.1 -174.65 180.7 -172.4 182.85 -172.25 183.2 -172.75 M180.7 -172.4 L177.85 -166.4 175.2 -162.65 172.35 -159.65 M174.1 -159.5 L174.95 -161.15 180.35 -169.25 182.85 -172.25 M204.1 -124.65 Q196.6 -121.4 185.1 -128.65 L180.35 -131.65 M221.1 -139.5 L215.7 -133.25 211.1 -113.65 Q206.0 -101.65 204.2 -100.15 M215.7 -133.25 L209.6 -127.9 M-51.8 -142.75 L-48.7 -146.1 M-65.05 -130.15 L-65.35 -129.6 -65.55 -128.9 -65.9 -128.65 -66.95 -126.65 M-65.35 -129.6 L-65.65 -129.15 -65.55 -128.9 M-64.4 -130.25 L-64.8 -129.75 M-57.15 -101.5 L-55.4 -100.9 -55.3 -100.75 -50.15 -98.9 -43.9 -95.9 -31.75 -89.75 -29.8 -88.75 -26.8 -88.15 Q-20.25 -91.4 -21.9 -96.15 -22.55 -98.1 -24.65 -99.25 L-29.45 -101.2 -38.9 -104.9 M-55.4 -100.75 L-55.3 -100.75 M-55.4 -100.9 L-55.4 -100.75 -56.15 -98.5 -66.9 -83.15 -68.4 -79.75 -68.3 -78.65 Q-67.3 -75.95 -65.3 -75.0 -62.1 -76.15 -61.15 -77.75 L-58.9 -81.15 -57.55 -80.9 -56.9 -79.9 Q-56.1 -78.4 -55.55 -71.9 L-55.45 -71.9 -55.15 -72.0 -50.15 -83.4 -43.9 -95.9 M-10.3 -96.15 L-12.9 -109.0 -13.8 -110.9 -14.8 -111.75 -15.8 -111.75 Q-18.6 -107.45 -20.15 -106.4 L-22.8 -105.0 -25.3 -104.25 -27.4 -103.25 -29.45 -101.2 M-18.15 -100.15 L-20.8 -93.5 -28.8 -82.5 M-31.75 -89.75 L-32.3 -88.0 -33.8 -84.9 -37.65 -79.9 Q-46.55 -71.65 -21.9 -79.9 M-61.15 -70.75 L-62.05 -67.75 -63.95 -64.15 -64.15 -63.65 -67.65 -58.9 -67.9 -58.75 -71.8 -53.25 M-63.95 -64.15 L-63.8 -64.65 -63.9 -65.75 -64.65 -66.75 Q-66.0 -68.35 -72.05 -68.15 -81.2 -65.15 -103.8 -68.15 M-72.05 -68.15 L-71.05 -71.75 -68.8 -73.65 -65.3 -75.0 M-80.4 -49.9 L-75.8 -55.65 -74.55 -57.9 -78.55 -57.65 Q-80.35 -55.5 -80.4 -49.9 L-81.15 -48.5 -80.65 -47.65 M-74.55 -57.9 Q-69.3 -58.15 -67.9 -58.75 M-50.05 -77.25 L-53.15 -71.75 -54.65 -70.15 -55.3 -70.9 -55.45 -71.9 M-78.55 -57.65 L-99.8 -58.25 M-55.9 61.0 L-58.3 61.35 -59.9 62.9 -60.4 63.25 -60.75 63.45 M-47.8 69.5 L-46.8 70.4 -46.8 70.1 -45.65 69.25 -46.15 68.6 M-46.8 70.4 L-46.9 70.85 -44.65 74.1 M-64.05 82.6 L-63.3 93.0 Q-61.6 99.3 -61.15 98.85 L-58.9 102.6 Q-56.9 105.1 -54.4 106.6 M-76.55 84.25 L-83.3 107.0 -84.15 115.1 -83.9 118.85 Q-83.5 121.65 -82.3 123.35" fill="none" stroke="#000000" stroke-linecap="round" stroke-linejoin="round" stroke-width="2.15"/>
  </g>
</svg>
