<?xml version="1.0" encoding="UTF-8" standalone="no"?>
<svg xmlns:xlink="http://www.w3.org/1999/xlink" height="294.05px" width="285.8px" xmlns="http://www.w3.org/2000/svg">
  <g transform="matrix(1.0, 0.0, 0.0, 1.0, 118.6, 193.2)">
    <path d="M94.85 -98.9 L103.2 -87.65 112.2 -69.4 112.35 -69.4 114.85 -75.15 118.45 -88.9 Q120.35 -98.4 121.7 -111.9 L123.35 -116.65 Q126.75 -121.05 130.95 -112.4 L133.1 -107.75 133.15 -107.75 133.45 -108.65 Q134.15 -109.65 132.1 -131.15 L132.35 -139.0 Q133.2 -148.85 139.1 -144.9 L141.45 -140.9 145.85 -130.25 145.95 -130.25 146.2 -153.65 Q146.0 -158.25 148.6 -171.4 152.0 -185.9 157.2 -177.4 171.1 -130.7 163.45 -90.25 152.2 -48.1 112.95 -28.65 99.35 22.4 62.7 55.75 L48.2 67.5 33.95 75.1 33.9 75.3 32.7 78.75 Q32.9 79.25 29.35 81.25 L24.45 81.6 19.45 80.25 19.4 80.3 15.85 81.25 2.85 81.5 Q1.4 94.6 -7.3 98.75 -16.55 104.05 -22.8 82.6 L-23.15 80.4 -23.15 80.35 Q-32.1 91.1 -35.3 92.85 L-38.9 95.1 Q-48.65 98.2 -50.9 94.35 -58.95 81.05 -44.4 63.25 -45.85 63.0 -62.3 49.35 L-79.65 31.85 -91.65 14.1 -99.65 -6.0 -100.55 -11.65 -100.65 -30.25 -99.9 -36.15 -92.65 -60.9 -81.4 -82.75 -68.6 -78.6 -59.3 -75.75 Q-56.15 -75.7 -54.05 -79.9 -51.75 -84.6 -63.65 -88.0 L-67.45 -88.95 -75.9 -91.0 -66.15 -104.25 -59.55 -112.4 -45.4 -126.5 -59.55 -112.4 -66.15 -104.25 -75.9 -91.0 -78.15 -91.65 -78.8 -105.25 -78.65 -105.5 -66.4 -118.75 -65.3 -120.5 Q-56.3 -132.8 -74.3 -120.5 L-77.9 -118.15 Q-75.25 -150.7 -59.8 -167.0 -49.35 -178.25 -28.65 -189.0 L-21.65 -191.65 Q-19.1 -192.6 -16.8 -191.75 L-15.4 -190.15 Q-14.65 -185.7 -15.4 -185.5 -17.1 -176.0 -33.05 -161.0 L-44.05 -155.4 -65.55 -149.0 Q-69.85 -146.35 -65.9 -144.9 L-54.55 -139.9 -36.55 -135.25 -42.05 -131.75 Q-44.6 -129.65 -45.4 -126.5 L-38.3 -132.4 -34.9 -134.5 -30.9 -132.5 -27.55 -128.65 -24.3 -123.4 -21.65 -120.5 -17.15 -117.15 -7.55 -112.4 6.45 -104.25 10.65 -101.3 16.6 -97.15 18.6 -96.15 20.6 -95.65 23.35 -96.15 Q28.95 -100.85 25.1 -104.25 23.85 -106.05 21.6 -107.25 L16.4 -110.0 8.45 -114.15 -2.05 -120.5 -13.15 -126.4 -16.15 -128.65 -18.55 -131.4 -21.4 -136.75 -22.15 -138.9 -21.8 -142.4 Q6.6 -153.65 19.95 -148.9 L23.7 -148.15 27.6 -147.4 42.2 -142.5 51.1 -137.65 56.6 -134.4 66.7 -127.0 75.45 -119.4 77.6 -117.4 77.7 -117.4 77.7 -117.25 88.7 -106.15 90.95 -107.9 91.7 -103.15 93.2 -101.0 94.85 -98.9 M88.7 -106.15 L91.7 -103.15 88.7 -106.15 M131.95 -99.5 L132.95 -104.25 133.15 -107.75 132.95 -104.25 131.95 -99.5 M144.85 -120.5 L145.85 -125.9 145.9 -130.0 145.85 -130.0 145.85 -130.25 145.85 -130.0 145.9 -130.0 145.95 -130.25 145.9 -130.0 145.85 -125.9 144.85 -120.5 M67.35 -144.9 L70.35 -143.65 68.95 -137.4 67.35 -144.9 M-48.65 -71.75 Q-44.25 -75.2 -44.05 -76.4 L-43.3 -79.9 -42.4 -88.0 -42.3 -92.9 -43.4 -95.15 -45.65 -95.15 -55.05 -90.9 -66.15 -89.65 -67.45 -88.95 -66.15 -89.65 -55.05 -90.9 -45.65 -95.15 -43.4 -95.15 -42.3 -92.9 -42.4 -88.0 -43.3 -79.9 -44.05 -76.4 Q-44.25 -75.2 -48.65 -71.75 M33.1 -90.15 L36.35 -94.0 37.2 -96.15 37.7 -98.4 38.1 -112.4 37.95 -113.25 36.7 -115.25 34.35 -115.25 24.6 -111.0 16.4 -110.0 24.6 -111.0 34.35 -115.25 36.7 -115.25 37.95 -113.25 38.1 -112.4 37.7 -98.4 37.2 -96.15 36.35 -94.0 33.1 -90.15 M24.95 -87.65 L15.2 -88.0 Q8.15 -88.6 9.35 -90.4 L10.95 -96.15 10.65 -101.3 10.95 -96.15 9.35 -90.4 Q8.15 -88.6 15.2 -88.0 L24.95 -87.65 M19.4 80.3 L15.45 78.1 7.7 71.25 15.45 78.1 19.4 80.3 M4.85 71.5 L5.2 70.85 6.7 71.1 7.2 71.1 6.7 71.1 4.85 71.5 3.7 73.35 2.85 81.5 3.7 73.35 4.85 71.5 6.7 71.1 5.2 70.85 4.85 71.5 M-4.55 39.0 L1.6 40.25 7.45 42.0 14.45 45.25 21.95 50.1 24.95 52.6 29.6 58.25 31.85 62.6 33.6 68.5 33.95 74.5 33.9 75.3 33.95 74.5 33.6 68.5 31.85 62.6 29.6 58.25 24.95 52.6 21.95 50.1 14.45 45.25 7.45 42.0 1.6 40.25 -4.55 39.0 M112.2 -69.25 L112.2 -69.4 112.2 -69.25 112.35 -69.4 112.2 -69.25 115.7 -50.15 112.95 -28.65 115.7 -50.15 112.2 -69.25 M-57.9 -66.5 L-58.3 -66.5 Q-73.95 -67.2 -70.8 -71.75 -69.1 -74.45 -68.65 -76.9 L-68.6 -78.6 -68.65 -76.9 Q-69.1 -74.45 -70.8 -71.75 -73.95 -67.2 -58.3 -66.5 L-57.9 -66.5 M-23.15 80.35 L-22.65 67.6 -23.15 80.35 M-14.9 40.25 L-14.8 39.35 -14.9 40.25 M-13.9 39.0 L-9.4 37.35 -5.3 37.1 -9.4 37.35 -13.9 39.0 M-44.4 63.25 L-44.3 63.1 -39.9 58.25 -30.9 50.1 -25.8 46.6 -13.4 39.85 -25.8 46.6 -30.9 50.1 -39.9 58.25 -44.3 63.1 -44.4 63.25" fill="#ffffff" fill-rule="evenodd" stroke="none"/>
    <path d="M19.95 -148.9 L20.35 -154.25 21.6 -159.4 21.6 -159.65 21.7 -159.9 21.7 -160.0 21.6 -161.65 21.95 -162.5 22.95 -163.0 Q22.95 -164.35 25.95 -167.9 L28.85 -169.75 Q31.7 -171.55 44.6 -169.25 68.65 -164.85 65.95 -154.65 L65.35 -154.75 63.7 -153.0 60.7 -147.9 59.75 -146.6 58.9 -145.45 58.75 -145.25 56.85 -143.0 60.6 -150.5 61.35 -153.0 61.95 -156.9 Q61.15 -160.55 59.6 -161.15 54.45 -165.45 38.35 -168.0 29.95 -170.2 26.1 -161.15 L24.95 -158.0 23.85 -153.0 23.7 -148.15 23.85 -153.0 24.95 -158.0 26.1 -161.15 Q29.95 -170.2 38.35 -168.0 54.45 -165.45 59.6 -161.15 61.15 -160.55 61.95 -156.9 L61.35 -153.0 60.6 -150.5 56.85 -143.0 56.1 -141.9 51.1 -137.65 42.2 -142.5 27.6 -147.4 23.7 -148.15 19.95 -148.9 M66.2 -153.75 L69.6 -153.4 73.45 -151.5 74.7 -153.25 77.7 -155.0 81.95 -155.0 87.85 -153.0 Q119.15 -138.05 112.2 -126.0 L112.85 -125.15 112.7 -124.0 110.1 -120.4 107.35 -115.75 104.45 -112.5 94.85 -98.9 93.2 -101.0 99.2 -110.65 97.95 -110.4 93.35 -110.9 85.35 -113.4 77.85 -117.25 77.7 -117.25 77.7 -117.4 77.6 -117.4 75.45 -119.4 69.85 -132.75 68.95 -136.75 68.95 -137.4 70.35 -143.65 71.95 -148.65 69.2 -151.4 66.6 -151.5 66.2 -153.75 M110.1 -120.4 L109.95 -120.5 111.85 -124.4 112.2 -126.0 111.85 -124.4 109.95 -120.5 110.1 -120.4 M83.7 -151.65 L88.45 -150.0 97.85 -144.9 103.6 -141.0 107.7 -136.75 Q110.25 -133.6 109.1 -128.65 L108.35 -125.9 105.85 -120.5 Q99.4 -107.5 79.2 -120.5 L75.7 -123.25 Q73.6 -125.6 72.95 -128.65 L72.6 -133.4 73.1 -136.75 75.1 -144.9 Q76.5 -152.25 83.7 -151.65 76.5 -152.25 75.1 -144.9 L73.1 -136.75 72.6 -133.4 72.95 -128.65 Q73.6 -125.6 75.7 -123.25 L79.2 -120.5 Q99.4 -107.5 105.85 -120.5 L108.35 -125.9 109.1 -128.65 Q110.25 -133.6 107.7 -136.75 L103.6 -141.0 97.85 -144.9 88.45 -150.0 83.7 -151.65 M104.45 -112.5 L103.95 -112.4 101.85 -111.15 99.2 -110.65 101.85 -111.15 103.95 -112.4 104.45 -112.5 M21.85 -160.0 L22.95 -163.0 21.85 -160.0 21.85 -159.9 21.7 -159.9 21.85 -159.9 21.85 -160.0 21.7 -160.0 21.85 -160.0 M21.7 -159.65 L21.7 -159.9 21.7 -159.65 21.7 -159.4 21.6 -159.4 21.7 -159.4 21.7 -159.65 21.6 -159.65 21.7 -159.65 M73.45 -151.5 L71.95 -148.65 73.45 -151.5 M77.85 -117.25 L77.85 -117.4 77.7 -117.4 77.85 -117.4 77.85 -117.25" fill="#43396f" fill-rule="evenodd" stroke="none"/>
    <path d="M88.7 -106.15 L77.7 -117.25 77.85 -117.25 85.35 -113.4 93.35 -110.9 92.2 -109.0 90.95 -107.9 88.7 -106.15" fill="#ff7a16" fill-rule="evenodd" stroke="none"/>
    <path d="M-81.4 -82.75 L-85.55 -83.9 -92.3 -84.75 -94.4 -85.65 -97.15 -87.9 Q-114.8 -73.85 -117.4 -77.0 L-117.55 -78.15 -116.8 -80.15 Q-103.75 -97.0 -101.4 -102.9 L-98.55 -105.25 -91.15 -109.5 -90.9 -109.75 -90.8 -109.75 -90.55 -110.0 -90.4 -110.0 -90.15 -110.25 -90.05 -110.25 -89.9 -110.4 -87.15 -112.5 -77.9 -118.15 -74.3 -120.5 Q-56.3 -132.8 -65.3 -120.5 L-66.4 -118.75 -78.65 -105.5 -78.8 -105.25 -90.15 -94.0 -91.15 -94.65 -91.55 -94.9 -93.55 -97.65 -91.55 -94.9 -91.15 -94.65 -90.8 -95.25 -91.15 -94.65 -90.15 -94.0 Q-82.2 -93.45 -78.15 -91.65 L-75.9 -91.0 -67.45 -88.95 -63.65 -88.0 Q-51.75 -84.6 -54.05 -79.9 -56.15 -75.7 -59.3 -75.75 L-68.6 -78.6 -81.4 -82.75 M-33.05 -161.0 L-29.8 -161.9 Q-27.1 -161.35 -24.9 -161.85 L-24.55 -161.95 -23.65 -162.25 -2.8 -170.15 Q1.0 -170.85 0.6 -169.25 0.65 -165.4 -17.75 -153.55 L-19.05 -152.75 -21.15 -146.0 Q-21.75 -144.25 -21.8 -142.4 L-22.15 -138.9 -21.4 -136.75 -18.55 -131.4 -16.15 -128.65 -13.15 -126.4 -2.05 -120.5 8.45 -114.15 16.4 -110.0 21.6 -107.25 Q23.85 -106.05 25.1 -104.25 28.95 -100.85 23.35 -96.15 L20.6 -95.65 18.6 -96.15 16.6 -97.15 10.65 -101.3 6.45 -104.25 -7.55 -112.4 -17.15 -117.15 -21.65 -120.5 -24.3 -123.4 -27.55 -128.65 -30.9 -132.5 -34.9 -134.5 -36.55 -135.25 -54.55 -139.9 -65.9 -144.9 Q-69.85 -146.35 -65.55 -149.0 L-44.05 -155.4 -33.05 -161.0 M65.95 -154.65 L66.15 -154.0 66.2 -153.75 66.6 -151.5 66.7 -150.5 67.35 -144.9 68.95 -137.4 68.95 -136.75 69.85 -132.75 75.45 -119.4 66.7 -127.0 66.1 -128.65 64.35 -131.4 61.2 -134.4 59.85 -134.75 56.6 -134.4 51.1 -137.65 56.1 -141.9 56.85 -143.0 58.75 -145.25 58.9 -145.45 59.75 -146.6 60.7 -147.9 63.7 -153.0 65.35 -154.75 65.95 -154.65 M66.15 -154.0 L66.35 -152.4 66.65 -146.9 66.6 -145.65 66.65 -146.9 66.35 -152.4 66.15 -154.0 M66.65 -146.9 L66.7 -148.5 66.6 -149.15 66.7 -150.5 66.6 -149.15 66.7 -148.5 66.65 -146.9 M66.7 -144.0 L66.7 -144.5 66.7 -144.0 M58.9 -145.45 L59.5 -145.85 59.75 -146.6 59.5 -145.85 58.9 -145.45 M57.7 -143.4 L58.1 -143.75 58.75 -145.25 58.1 -143.75 57.7 -143.4 M-17.75 -153.55 L-17.55 -154.25 -17.75 -153.55 M-100.3 -91.9 L-97.15 -87.9 -100.3 -91.9 M-90.55 -95.4 L-90.3 -95.75 -90.55 -95.4" fill="#fa410f" fill-rule="evenodd" stroke="none"/>
    <path d="M66.7 -127.0 L56.6 -134.4 59.85 -134.75 61.2 -134.4 64.35 -131.4 66.1 -128.65 66.7 -127.0" fill="#fa420e" fill-rule="evenodd" stroke="none"/>
    <path d="M94.85 -98.9 L103.2 -87.65 112.2 -69.4 112.35 -69.4 114.85 -75.15 118.45 -88.9 Q120.35 -98.4 121.7 -111.9 L123.35 -116.65 Q126.75 -121.05 130.95 -112.4 L133.1 -107.75 133.15 -107.75 133.45 -108.65 Q134.15 -109.65 132.1 -131.15 L132.35 -139.0 Q133.2 -148.85 139.1 -144.9 L141.45 -140.9 145.85 -130.25 145.95 -130.25 146.2 -153.65 Q146.0 -158.25 148.6 -171.4 152.0 -185.9 157.2 -177.4 171.1 -130.7 163.45 -90.25 152.2 -48.1 112.95 -28.65 99.35 22.4 62.7 55.75 L48.2 67.5 33.95 75.1 33.9 75.3 32.7 78.75 Q32.9 79.25 29.35 81.25 L24.45 81.6 19.45 80.25 19.4 80.3 15.85 81.25 2.85 81.5 Q1.4 94.6 -7.3 98.75 -16.55 104.05 -22.8 82.6 L-23.15 80.4 -23.15 80.35 Q-32.1 91.1 -35.3 92.85 L-38.9 95.1 Q-48.65 98.2 -50.9 94.35 -58.95 81.05 -44.4 63.25 -45.85 63.0 -62.3 49.35 L-79.65 31.85 -91.65 14.1 -99.65 -6.0 -100.55 -11.65 -100.65 -30.25 -99.9 -36.15 -92.65 -60.9 -81.4 -82.75 -85.55 -83.9 -92.3 -84.75 -94.4 -85.65 -97.15 -87.9 Q-114.8 -73.85 -117.4 -77.0 L-117.55 -78.15 -116.8 -80.15 Q-103.75 -97.0 -101.4 -102.9 L-98.55 -105.25 -91.15 -109.5 -90.9 -109.75 -90.8 -109.75 -90.55 -110.0 -90.4 -110.0 -90.15 -110.25 -90.05 -110.25 -89.9 -110.4 -87.15 -112.5 -77.9 -118.15 Q-75.25 -150.7 -59.8 -167.0 -49.35 -178.25 -28.65 -189.0 L-21.65 -191.65 Q-19.1 -192.6 -16.8 -191.75 L-15.4 -190.15 Q-14.65 -185.7 -15.4 -185.5 -17.1 -176.0 -33.05 -161.0 L-29.8 -161.9 Q-27.1 -161.35 -24.9 -161.85 L-24.55 -161.95 -23.65 -162.25 -2.8 -170.15 Q1.0 -170.85 0.6 -169.25 0.65 -165.4 -17.75 -153.55 L-19.05 -152.75 -21.15 -146.0 Q-21.75 -144.25 -21.8 -142.4 6.6 -153.65 19.95 -148.9 L20.35 -154.25 21.6 -159.4 21.6 -159.65 21.7 -159.9 21.7 -160.0 21.6 -161.65 21.95 -162.5 22.95 -163.0 Q22.95 -164.35 25.95 -167.9 L28.85 -169.75 Q31.7 -171.55 44.6 -169.25 68.65 -164.85 65.95 -154.65 L66.15 -154.0 66.2 -153.75 69.6 -153.4 73.45 -151.5 74.7 -153.25 77.7 -155.0 81.95 -155.0 87.85 -153.0 Q119.15 -138.05 112.2 -126.0 L112.85 -125.15 112.7 -124.0 110.1 -120.4 107.35 -115.75 104.45 -112.5 94.85 -98.9 93.2 -101.0 91.7 -103.15 88.7 -106.15 77.7 -117.25 77.7 -117.4 77.6 -117.4 75.45 -119.4 66.7 -127.0 56.6 -134.4 51.1 -137.65 42.2 -142.5 27.6 -147.4 23.7 -148.15 19.95 -148.9 M83.7 -151.65 Q76.5 -152.25 75.1 -144.9 L73.1 -136.75 72.6 -133.4 72.95 -128.65 Q73.6 -125.6 75.7 -123.25 L79.2 -120.5 Q99.4 -107.5 105.85 -120.5 L108.35 -125.9 109.1 -128.65 Q110.25 -133.6 107.7 -136.75 L103.6 -141.0 97.85 -144.9 88.45 -150.0 83.7 -151.65 M112.2 -126.0 L111.85 -124.4 109.95 -120.5 110.1 -120.4 M88.7 -106.15 L90.95 -107.9 92.2 -109.0 93.35 -110.9 85.35 -113.4 77.85 -117.25 77.7 -117.25 M93.2 -101.0 L99.2 -110.65 97.95 -110.4 93.35 -110.9 M90.95 -107.9 L91.7 -103.15 M99.2 -110.65 L101.85 -111.15 103.95 -112.4 104.45 -112.5 M145.85 -130.25 L145.85 -130.0 145.9 -130.0 145.95 -130.25 M145.9 -130.0 L145.85 -125.9 144.85 -120.5 M133.15 -107.75 L132.95 -104.25 131.95 -99.5 M66.6 -145.65 L66.65 -146.9 66.35 -152.4 66.15 -154.0 M66.6 -151.5 L66.7 -150.5 67.35 -144.9 70.35 -143.65 71.95 -148.65 69.2 -151.4 66.6 -151.5 66.2 -153.75 M66.7 -150.5 L66.6 -149.15 66.7 -148.5 66.65 -146.9 M56.85 -143.0 L58.75 -145.25 58.9 -145.45 59.75 -146.6 60.7 -147.9 63.7 -153.0 65.35 -154.75 65.95 -154.65 M23.7 -148.15 L23.85 -153.0 24.95 -158.0 26.1 -161.15 Q29.95 -170.2 38.35 -168.0 54.45 -165.45 59.6 -161.15 61.15 -160.55 61.95 -156.9 L61.35 -153.0 60.6 -150.5 56.85 -143.0 56.1 -141.9 51.1 -137.65 M71.95 -148.65 L73.45 -151.5 M21.7 -159.9 L21.85 -159.9 21.85 -160.0 21.7 -160.0 M21.6 -159.4 L21.7 -159.4 21.7 -159.65 21.6 -159.65 M21.7 -159.9 L21.7 -159.65 M22.95 -163.0 L21.85 -160.0 M10.65 -101.3 L6.45 -104.25 -7.55 -112.4 -17.15 -117.15 -21.65 -120.5 -24.3 -123.4 -27.55 -128.65 -30.9 -132.5 -34.9 -134.5 -38.3 -132.4 -45.4 -126.5 -59.55 -112.4 -66.15 -104.25 -75.9 -91.0 -67.45 -88.95 -66.15 -89.65 -55.05 -90.9 -45.65 -95.15 -43.4 -95.15 -42.3 -92.9 -42.4 -88.0 -43.3 -79.9 -44.05 -76.4 Q-44.25 -75.2 -48.65 -71.75 M-21.8 -142.4 L-22.15 -138.9 -21.4 -136.75 -18.55 -131.4 -16.15 -128.65 -13.15 -126.4 -2.05 -120.5 8.45 -114.15 16.4 -110.0 24.6 -111.0 34.35 -115.25 36.7 -115.25 37.95 -113.25 38.1 -112.4 37.7 -98.4 37.2 -96.15 36.35 -94.0 33.1 -90.15 M16.4 -110.0 L21.6 -107.25 Q23.85 -106.05 25.1 -104.25 28.95 -100.85 23.35 -96.15 L20.6 -95.65 18.6 -96.15 16.6 -97.15 10.65 -101.3 10.95 -96.15 9.35 -90.4 Q8.15 -88.6 15.2 -88.0 L24.95 -87.65 M68.95 -137.4 L70.35 -143.65 M66.7 -144.5 L66.7 -144.0 M75.45 -119.4 L69.85 -132.75 68.95 -136.75 68.95 -137.4 67.35 -144.9 M56.6 -134.4 L59.85 -134.75 61.2 -134.4 64.35 -131.4 66.1 -128.65 66.7 -127.0 M58.75 -145.25 L58.1 -143.75 57.7 -143.4 M59.75 -146.6 L59.5 -145.85 58.9 -145.45 M77.7 -117.4 L77.85 -117.4 77.85 -117.25 M112.35 -69.4 L112.2 -69.25 115.7 -50.15 112.95 -28.65 M112.2 -69.4 L112.2 -69.25 M33.9 75.3 L33.95 74.5 33.6 68.5 31.85 62.6 29.6 58.25 24.95 52.6 21.95 50.1 14.45 45.25 7.45 42.0 1.6 40.25 -4.55 39.0 M7.2 71.1 L6.7 71.1 4.85 71.5 3.7 73.35 2.85 81.5 M6.7 71.1 L5.2 70.85 4.85 71.5 M7.7 71.25 L15.45 78.1 19.4 80.3 M-17.55 -154.25 L-17.75 -153.55 M-33.05 -161.0 L-44.05 -155.4 -65.55 -149.0 Q-69.85 -146.35 -65.9 -144.9 L-54.55 -139.9 -36.55 -135.25 -34.9 -134.5 M-36.55 -135.25 L-42.05 -131.75 Q-44.6 -129.65 -45.4 -126.5 M-77.9 -118.15 L-74.3 -120.5 Q-56.3 -132.8 -65.3 -120.5 L-66.4 -118.75 -78.65 -105.5 -78.8 -105.25 -78.15 -91.65 -75.9 -91.0 M-90.3 -95.75 L-90.55 -95.4 M-93.55 -97.65 L-91.55 -94.9 -91.15 -94.65 -90.8 -95.25 M-97.15 -87.9 L-100.3 -91.9 M-91.15 -94.65 L-90.15 -94.0 -78.8 -105.25 M-67.45 -88.95 L-63.65 -88.0 Q-51.75 -84.6 -54.05 -79.9 -56.15 -75.7 -59.3 -75.75 L-68.6 -78.6 -68.65 -76.9 Q-69.1 -74.45 -70.8 -71.75 -73.95 -67.2 -58.3 -66.5 L-57.9 -66.5 M-68.6 -78.6 L-81.4 -82.75 M-90.15 -94.0 Q-82.2 -93.45 -78.15 -91.65 M-13.4 39.85 L-25.8 46.6 -30.9 50.1 -39.9 58.25 -44.3 63.1 -44.4 63.25 M-5.3 37.1 L-9.4 37.35 -13.9 39.0 M-14.8 39.35 L-14.9 40.25 M-22.65 67.6 L-23.15 80.35" fill="none" stroke="#000000" stroke-linecap="round" stroke-linejoin="round" stroke-width="2.15"/>
  </g>
</svg>
