<?xml version="1.0" encoding="UTF-8" standalone="no"?>
<svg xmlns:xlink="http://www.w3.org/1999/xlink" height="246.7px" width="281.6px" xmlns="http://www.w3.org/2000/svg">
  <g transform="matrix(1.0, 0.0, 0.0, 1.0, 148.05, 152.1)">
    <path d="M33.85 -98.9 Q27.7 -129.05 21.6 -129.15 L15.45 -131.65 9.85 -133.25 Q-34.3 -141.55 -30.9 -144.25 L-30.15 -145.15 -27.15 -145.9 -3.65 -147.15 Q-3.0 -148.85 0.95 -148.75 L17.95 -148.75 23.35 -149.45 24.35 -149.55 30.7 -150.4 Q36.65 -151.4 34.35 -144.9 31.85 -142.55 31.15 -141.4 30.65 -140.7 30.85 -140.4 L32.2 -138.4 35.45 -131.9 Q36.5 -128.9 37.85 -118.4 L42.7 -102.0 44.95 -96.15 Q47.55 -88.8 41.1 -88.05 L40.45 -88.0 Q35.7 -89.2 35.45 -91.15 L33.85 -98.9 M-60.55 -115.25 L-58.3 -116.25 -54.55 -119.25 -54.4 -119.4 -53.9 -119.75 -47.05 -127.15 -45.05 -128.25 Q-43.1 -128.2 -42.4 -125.9 L-41.4 -120.5 -41.55 -116.8 -41.55 -116.75 -41.9 -114.65 -41.35 -110.65 -41.8 -111.0 -41.35 -110.65 -41.3 -110.25 Q-37.0 -107.05 -34.9 -104.25 -31.25 -99.1 -33.3 -96.15 -35.15 -91.85 -41.05 -90.75 L-41.0 -90.7 -35.25 -86.0 -33.05 -84.15 Q-30.75 -81.8 -30.15 -79.9 -29.25 -73.95 -35.05 -73.75 L-38.55 -74.9 Q-39.4 -74.9 -43.8 -79.9 L-48.8 -84.45 -52.3 -88.0 Q-56.15 -91.45 -53.55 -96.15 L-55.3 -96.15 -62.65 -94.9 -75.55 -90.5 -89.9 -88.0 -91.05 -88.0 -95.05 -87.65 -99.8 -88.0 -100.05 -88.0 -100.15 -88.15 -100.8 -88.75 -100.3 -89.9 -98.8 -91.15 -82.15 -100.0 -78.4 -102.25 -78.45 -102.65 -78.55 -103.25 -80.4 -105.75 -80.55 -107.15 -79.15 -108.5 -75.55 -110.25 -73.55 -110.9 -69.4 -112.15 -63.55 -114.0 -60.55 -115.25 M31.1 -142.15 L31.1 -142.65 31.1 -142.15 31.35 -142.4 31.1 -142.15 31.15 -141.4 31.1 -142.15 M29.85 -141.65 L30.85 -140.4 29.85 -141.65 M23.35 -149.45 L24.2 -149.25 23.35 -149.45 M24.35 -149.55 L25.2 -149.4 24.35 -149.55 M-78.45 -102.65 L-78.05 -103.0 -78.45 -102.65 M-0.8 -147.25 L-3.65 -147.15 -0.8 -147.25 M-42.65 -95.25 L-42.8 -96.15 -45.05 -96.9 -53.55 -96.15 -45.05 -96.9 -42.8 -96.15 -42.65 -95.25 M-105.55 -77.4 L-101.65 -78.75 -95.05 -82.4 -103.4 -72.25 Q-125.1 -75.45 -105.55 -77.4 M-41.0 -90.7 L-48.4 -90.15 -41.0 -90.7" fill="#fa410f" fill-rule="evenodd" stroke="none"/>
    <path d="M-117.15 -121.15 Q-81.75 -124.35 -80.55 -112.75 L-76.9 -113.0 -73.65 -112.15 Q-73.0 -120.35 -60.55 -115.25 L-63.55 -114.0 -69.4 -112.15 -69.4 -112.4 -68.8 -113.75 -66.65 -114.4 -63.55 -114.0 -66.65 -114.4 -68.8 -113.75 -69.4 -112.4 -69.4 -112.15 -73.55 -110.9 -75.55 -110.25 -77.65 -111.25 -79.65 -110.4 -79.15 -108.5 -80.55 -107.15 -80.4 -105.75 -78.55 -103.25 -78.45 -102.65 -78.4 -102.25 -82.15 -100.0 -98.8 -91.15 -100.35 -91.4 -101.25 -91.55 -102.1 -91.7 -106.8 -92.5 Q-110.75 -93.45 -113.9 -96.15 L-116.8 -99.0 -113.9 -96.15 Q-110.75 -93.45 -106.8 -92.5 L-102.1 -91.7 -101.25 -91.55 -100.35 -91.4 -98.8 -91.15 -100.3 -89.9 -100.8 -88.75 -100.15 -88.15 Q-114.25 -90.3 -118.05 -94.9 L-118.3 -95.25 -116.8 -99.0 -116.3 -101.5 -116.3 -104.25 Q-117.85 -109.7 -120.65 -108.4 L-118.9 -116.9 -118.3 -118.15 Q-86.85 -122.8 -84.15 -112.4 L-83.3 -109.9 -82.15 -100.0 -83.3 -109.9 -84.15 -112.4 Q-86.85 -122.8 -118.3 -118.15 L-117.15 -121.15 M-80.55 -112.75 L-80.3 -112.4 -79.65 -110.4 -80.3 -112.4 -80.55 -112.75 M-73.65 -112.15 L-73.55 -110.9 -73.65 -112.15 M-95.05 -87.65 L-91.05 -88.0 -89.9 -88.0 -90.3 -87.5 -95.05 -87.65 M-101.05 -91.25 L-100.35 -91.4 -101.05 -91.25 M-102.65 -91.5 L-102.1 -91.7 -102.65 -91.5 M-101.8 -91.4 L-101.25 -91.55 -101.8 -91.4" fill="#43396f" fill-rule="evenodd" stroke="none"/>
    <path d="M42.7 -102.0 L45.1 -102.65 47.1 -102.65 Q47.45 -104.05 53.85 -94.9 L55.45 -94.25 Q48.65 -112.15 51.6 -115.5 57.65 -120.35 62.95 -112.4 L71.6 -101.65 Q72.9 -100.1 74.95 -99.25 67.4 -126.6 69.6 -143.15 73.75 -158.0 82.2 -144.9 92.35 -131.45 99.45 -89.75 102.45 -77.75 88.95 -53.75 L93.35 -48.0 99.45 -34.25 Q103.75 -5.85 96.35 11.35 126.85 14.35 132.35 30.85 133.25 38.05 128.45 42.0 125.1 46.5 108.7 44.5 L108.6 44.5 Q109.25 56.25 101.2 58.5 92.4 61.4 78.85 50.1 L76.95 49.1 74.95 52.1 60.35 68.25 41.35 82.0 19.35 90.6 -5.9 93.5 Q-29.05 94.55 -62.65 79.85 L-65.65 78.35 -80.65 69.1 -99.55 51.75 -106.65 42.35 -106.8 42.25 -107.15 41.75 -107.4 41.5 -107.6 41.3 Q-118.05 30.2 -122.8 16.25 -140.3 4.95 -141.8 -7.25 -149.1 -26.7 -146.15 -71.4 L-144.55 -88.15 -141.65 -105.5 -139.65 -113.65 -136.15 -122.5 -130.65 -132.5 -121.65 -143.9 Q-113.35 -152.15 -112.8 -144.9 -111.1 -138.0 -117.15 -121.15 L-118.3 -118.15 -118.9 -116.9 -120.65 -108.4 Q-117.85 -109.7 -116.3 -104.25 L-116.3 -101.5 -116.8 -99.0 -118.3 -95.25 -120.65 -90.75 -122.15 -81.75 -118.05 -87.4 -116.3 -82.9 -112.8 -79.9 -109.15 -78.25 -105.55 -77.4 Q-125.1 -75.45 -103.4 -72.25 L-95.05 -82.4 -90.3 -87.5 -89.9 -88.0 -75.55 -90.5 -62.65 -94.9 -55.3 -96.15 -53.55 -96.15 Q-56.15 -91.45 -52.3 -88.0 L-48.8 -84.45 -43.8 -79.9 Q-39.4 -74.9 -38.55 -74.9 L-35.05 -73.75 Q-29.25 -73.95 -30.15 -79.9 -30.75 -81.8 -33.05 -84.15 L-35.25 -86.0 -41.0 -90.7 -41.05 -90.75 Q-35.15 -91.85 -33.3 -96.15 -31.25 -99.1 -34.9 -104.25 -37.0 -107.05 -41.3 -110.25 L-41.35 -110.65 -41.9 -114.65 -41.55 -116.75 -41.55 -116.8 Q-41.2 -118.1 -23.55 -117.65 L-12.15 -115.9 -6.15 -114.5 3.45 -111.5 Q11.65 -108.95 31.1 -98.65 L33.85 -98.9 35.45 -91.15 Q35.7 -89.2 40.45 -88.0 L41.1 -88.05 Q47.55 -88.8 44.95 -96.15 L42.7 -102.0 M58.1 -87.4 L58.6 -88.0 Q62.6 -90.85 61.6 -92.4 L55.45 -94.25 61.6 -92.4 Q62.6 -90.85 58.6 -88.0 L58.1 -87.4 54.85 -85.25 54.9 -85.2 Q57.15 -83.7 59.35 -82.15 L58.1 -87.4 M48.85 -80.5 L48.95 -81.25 49.7 -81.9 54.9 -85.2 49.7 -81.9 48.95 -81.25 48.85 -80.5 M48.2 -87.9 L44.45 -87.65 41.1 -88.05 44.45 -87.65 48.2 -87.9 M88.95 -53.75 L84.1 -60.25 72.2 -71.75 59.35 -82.15 72.2 -71.75 84.1 -60.25 88.95 -53.75 M71.6 47.5 L74.35 47.75 76.95 49.1 74.35 47.75 71.6 47.5 71.2 50.1 69.2 55.0 66.7 58.25 Q64.2 61.9 58.2 61.85 L55.95 61.0 53.1 58.25 Q52.75 58.85 50.7 54.0 L49.85 50.1 49.45 44.5 50.45 37.85 53.85 29.0 55.7 25.75 59.45 20.5 64.95 15.85 59.45 20.5 55.7 25.75 53.85 29.0 50.45 37.85 49.45 44.5 49.85 50.1 50.7 54.0 Q52.75 58.85 53.1 58.25 L55.95 61.0 58.2 61.85 Q64.2 61.9 66.7 58.25 L69.2 55.0 71.2 50.1 71.6 47.5 72.35 42.0 72.35 40.85 72.35 42.0 71.6 47.5 M70.45 13.2 L70.95 13.0 71.4 12.9 71.65 12.85 83.35 10.85 96.35 11.35 83.35 10.85 71.65 12.85 71.4 12.9 71.1 13.1 70.6 13.15 70.2 13.35 69.6 13.5 69.5 13.55 68.6 13.75 69.5 13.55 69.6 13.5 70.2 13.35 70.6 13.15 71.1 13.1 71.4 12.9 70.95 13.0 70.45 13.2 70.6 13.15 70.45 13.2 70.0 13.35 70.2 13.35 70.0 13.35 70.45 13.2 M63.95 14.5 L67.45 13.0 71.65 12.85 67.45 13.0 63.95 14.5 M62.7 15.5 L62.95 15.0 62.7 15.5 M69.5 13.55 L70.0 13.35 69.5 13.55 M96.95 58.75 L97.7 58.75 96.95 58.75 M108.6 44.5 L108.2 42.0 106.7 37.0 103.2 31.85 94.1 22.75 103.2 31.85 106.7 37.0 108.2 42.0 108.6 44.5 M29.35 -87.9 L29.7 -88.0 25.6 -93.15 24.35 -95.15 23.85 -98.0 25.35 -98.75 31.1 -98.65 25.35 -98.75 23.85 -98.0 24.35 -95.15 25.6 -93.15 29.7 -88.0 29.95 -87.5 29.7 -88.0 29.35 -87.9 M37.2 -88.65 L40.45 -88.0 37.2 -88.65 M-25.15 -68.15 L-14.15 -75.0 -12.65 -76.5 -12.4 -77.25 -13.15 -78.25 Q-18.3 -79.2 -18.4 -79.9 -18.9 -78.35 -25.4 -88.0 L-26.55 -88.75 -30.65 -88.0 -35.25 -86.0 -30.65 -88.0 -26.55 -88.75 -25.4 -88.0 Q-18.9 -78.35 -18.4 -79.9 -18.3 -79.2 -13.15 -78.25 L-12.4 -77.25 -12.65 -76.5 -14.15 -75.0 -25.15 -68.15 M-120.9 -103.25 L-120.9 -104.25 -121.15 -106.65 -120.65 -108.4 -121.15 -106.65 -120.9 -104.25 -120.9 -103.25 M-122.9 -41.75 L-122.8 -47.4 -119.8 -71.75 -120.05 -77.15 -121.4 -79.9 -122.55 -80.65 -122.4 -80.9 -122.15 -81.75 -122.4 -80.9 -122.55 -80.65 -121.4 -79.9 -120.05 -77.15 -119.8 -71.75 -122.8 -47.4 -122.9 -41.75 -122.9 -40.5 -122.55 -41.5 -122.9 -41.75 M-103.4 -72.25 L-103.65 -71.75 -112.4 -59.9 -122.55 -41.5 -112.4 -59.9 -103.65 -71.75 -103.4 -72.25 M-121.9 -74.5 L-122.55 -79.9 -122.55 -80.65 -122.55 -79.9 -121.9 -74.5 M-128.9 -11.75 L-128.9 -14.0 -129.15 -14.65 -128.8 -14.75 -128.8 -15.25 -128.65 -15.25 -128.55 -15.9 -128.15 -20.5 -128.15 -20.65 -127.4 -26.65 -123.15 -39.25 -122.9 -40.5 -123.15 -39.25 -127.4 -26.65 -128.15 -20.65 -128.15 -20.5 -128.55 -15.9 -128.65 -15.25 -128.65 -14.75 -128.8 -14.0 -128.9 -11.75 -128.15 -5.5 -128.05 -5.4 -128.05 -4.9 -127.9 -4.5 -127.9 -4.25 -127.8 -4.25 -126.8 1.25 -126.55 2.6 -126.05 5.1 -126.05 5.35 -125.9 5.6 -125.9 6.0 -125.8 6.1 -122.8 16.25 -125.8 6.1 -125.9 6.0 -125.9 5.6 -126.05 5.35 -126.05 5.1 -126.55 2.6 -126.8 1.25 -127.8 -4.25 -127.9 -4.25 -127.9 -4.5 -128.05 -4.9 -128.05 -5.4 -128.15 -5.5 -128.9 -11.75 -128.8 -14.0 -128.65 -14.75 -128.65 -15.25 -128.8 -15.25 -128.8 -14.75 -128.65 -14.75 -128.8 -14.75 -129.15 -14.65 -128.9 -14.0 -128.8 -14.0 -128.9 -14.0 -128.9 -11.75 M-126.8 1.25 L-127.65 -2.4 -127.65 -2.75 -127.8 -3.0 -127.9 -4.25 -127.8 -3.0 -127.65 -2.75 -127.65 -2.4 -126.8 1.25 M-128.8 -15.25 L-128.65 -15.9 -128.65 -16.65 -128.4 -19.0 -128.4 -19.4 -128.15 -20.5 -128.4 -19.4 -128.4 -19.0 -128.65 -16.65 -128.65 -15.9 -128.55 -15.9 -128.65 -15.9 -128.8 -15.25 M-128.65 -16.65 L-128.9 -16.75 -128.4 -19.0 -128.9 -16.75 -128.65 -16.65 M-37.3 -73.4 L-36.8 -73.25 -29.05 -72.75 -26.9 -73.0 -29.05 -72.75 -36.8 -73.25 -37.3 -73.4 M-43.3 -68.5 L-49.3 -77.25 -50.55 -79.9 -51.15 -83.5 -49.65 -84.4 -48.8 -84.45 -49.65 -84.4 -51.15 -83.5 -50.55 -79.9 -49.3 -77.25 -43.3 -68.5 M-121.3 17.6 L-122.3 15.25 -121.3 17.6 M-126.05 5.1 L-126.65 2.6 -127.15 1.35 -127.65 -2.4 -127.15 1.35 -126.65 2.6 -126.55 2.6 -126.65 2.6 -126.05 5.1 M-107.6 41.3 L-112.65 34.5 -107.6 41.3" fill="#ffffff" fill-rule="evenodd" stroke="none"/>
    <path d="M-95.05 -87.65 L-90.3 -87.5 -95.05 -82.4 -101.65 -78.75 -105.55 -77.4 -109.15 -78.25 -112.8 -79.9 -116.3 -82.9 -118.05 -87.4 -118.4 -92.5 -118.05 -94.9 Q-114.25 -90.3 -100.15 -88.15 L-100.05 -88.0 -99.8 -88.0 -95.05 -87.65" fill="#ff7a16" fill-rule="evenodd" stroke="none"/>
    <path d="M33.85 -98.9 Q27.7 -129.05 21.6 -129.15 L15.45 -131.65 9.85 -133.25 Q-34.3 -141.55 -30.9 -144.25 L-30.15 -145.15 -27.15 -145.9 -3.65 -147.15 Q-3.0 -148.85 0.95 -148.75 L17.95 -148.75 23.35 -149.45 24.35 -149.55 30.7 -150.4 Q36.65 -151.4 34.35 -144.9 31.85 -142.55 31.15 -141.4 30.65 -140.7 30.85 -140.4 L32.2 -138.4 35.45 -131.9 Q36.5 -128.9 37.85 -118.4 L42.7 -102.0 45.1 -102.65 47.1 -102.65 Q47.45 -104.05 53.85 -94.9 L55.45 -94.25 Q48.65 -112.15 51.6 -115.5 57.65 -120.35 62.95 -112.4 L71.6 -101.65 Q72.9 -100.1 74.95 -99.25 67.4 -126.6 69.6 -143.15 73.75 -158.0 82.2 -144.9 92.35 -131.45 99.45 -89.75 102.45 -77.75 88.95 -53.75 L93.35 -48.0 99.45 -34.25 Q103.75 -5.85 96.35 11.35 126.85 14.35 132.35 30.85 133.25 38.05 128.45 42.0 125.1 46.5 108.7 44.5 L108.6 44.5 Q109.25 56.25 101.2 58.5 92.4 61.4 78.85 50.1 L76.95 49.1 74.95 52.1 60.35 68.25 41.35 82.0 19.35 90.6 -5.9 93.5 Q-29.05 94.55 -62.65 79.85 L-65.65 78.35 -80.65 69.1 -99.55 51.75 -106.65 42.35 -106.8 42.25 -107.15 41.75 -107.4 41.5 -107.6 41.3 Q-118.05 30.2 -122.8 16.25 -140.3 4.95 -141.8 -7.25 -149.1 -26.7 -146.15 -71.4 L-144.55 -88.15 -141.65 -105.5 -139.65 -113.65 -136.15 -122.5 -130.65 -132.5 -121.65 -143.9 Q-113.35 -152.15 -112.8 -144.9 -111.1 -138.0 -117.15 -121.15 -81.75 -124.35 -80.55 -112.75 L-76.9 -113.0 -73.65 -112.15 Q-73.0 -120.35 -60.55 -115.25 L-58.3 -116.25 -54.55 -119.25 -54.4 -119.4 -53.9 -119.75 -47.05 -127.15 -45.05 -128.25 Q-43.1 -128.2 -42.4 -125.9 L-41.4 -120.5 -41.55 -116.8 Q-41.2 -118.1 -23.55 -117.65 L-12.15 -115.9 -6.15 -114.5 3.45 -111.5 Q11.65 -108.95 31.1 -98.65 L33.85 -98.9 35.45 -91.15 Q35.7 -89.2 40.45 -88.0 L41.1 -88.05 Q47.55 -88.8 44.95 -96.15 L42.7 -102.0 M25.2 -149.4 L24.35 -149.55 M24.2 -149.25 L23.35 -149.45 M31.35 -142.4 L31.1 -142.15 31.15 -141.4 M30.85 -140.4 L29.85 -141.65 M31.1 -142.65 L31.1 -142.15 M55.45 -94.25 L61.6 -92.4 Q62.6 -90.85 58.6 -88.0 L58.1 -87.4 59.35 -82.15 72.2 -71.75 84.1 -60.25 88.95 -53.75 M41.1 -88.05 L44.45 -87.65 48.2 -87.9 M54.9 -85.2 L49.7 -81.9 48.95 -81.25 48.85 -80.5 M58.1 -87.4 L54.85 -85.25 54.9 -85.2 Q57.15 -83.7 59.35 -82.15 M40.45 -88.0 L37.2 -88.65 M31.1 -98.65 L25.35 -98.75 23.85 -98.0 24.35 -95.15 25.6 -93.15 29.7 -88.0 29.95 -87.5 M29.7 -88.0 L29.35 -87.9 M94.1 22.75 L103.2 31.85 106.7 37.0 108.2 42.0 108.6 44.5 M96.35 11.35 L83.35 10.85 71.65 12.85 71.4 12.9 71.1 13.1 70.6 13.15 70.2 13.35 69.6 13.5 69.5 13.55 68.6 13.75 M97.7 58.75 L96.95 58.75 M70.6 13.15 L70.45 13.2 70.0 13.35 70.2 13.35 M70.0 13.35 L69.5 13.55 M62.95 15.0 L62.7 15.5 M71.65 12.85 L67.45 13.0 63.95 14.5 M71.4 12.9 L70.95 13.0 70.45 13.2 M64.95 15.85 L59.45 20.5 55.7 25.75 53.85 29.0 50.45 37.85 49.45 44.5 49.85 50.1 50.7 54.0 Q52.75 58.85 53.1 58.25 L55.95 61.0 58.2 61.85 Q64.2 61.9 66.7 58.25 L69.2 55.0 71.2 50.1 71.6 47.5 72.35 42.0 72.35 40.85 M76.95 49.1 L74.35 47.75 71.6 47.5 M-63.55 -114.0 L-66.65 -114.4 -68.8 -113.75 -69.4 -112.4 -69.4 -112.15 -63.55 -114.0 -60.55 -115.25 M-79.65 -110.4 L-80.3 -112.4 -80.55 -112.75 M-75.55 -110.25 L-73.55 -110.9 -73.65 -112.15 M-82.15 -100.0 L-78.4 -102.25 -78.45 -102.65 -78.55 -103.25 -80.4 -105.75 -80.55 -107.15 -79.15 -108.5 -79.65 -110.4 -77.65 -111.25 -75.55 -110.25 -79.15 -108.5 M-78.05 -103.0 L-78.45 -102.65 M-73.55 -110.9 L-69.4 -112.15 M-41.35 -110.65 L-41.9 -114.65 -41.55 -116.75 -41.55 -116.8 M-41.35 -110.65 L-41.8 -111.0 M-41.35 -110.65 L-41.3 -110.25 Q-37.0 -107.05 -34.9 -104.25 -31.25 -99.1 -33.3 -96.15 -35.15 -91.85 -41.05 -90.75 L-41.0 -90.7 -35.25 -86.0 -30.65 -88.0 -26.55 -88.75 -25.4 -88.0 Q-18.9 -78.35 -18.4 -79.9 -18.3 -79.2 -13.15 -78.25 L-12.4 -77.25 -12.65 -76.5 -14.15 -75.0 -25.15 -68.15 M-3.65 -147.15 L-0.8 -147.25 M-118.3 -118.15 L-118.9 -116.9 -120.65 -108.4 Q-117.85 -109.7 -116.3 -104.25 L-116.3 -101.5 -116.8 -99.0 -113.9 -96.15 Q-110.75 -93.45 -106.8 -92.5 L-102.1 -91.7 -101.25 -91.55 -100.35 -91.4 -98.8 -91.15 -82.15 -100.0 -83.3 -109.9 -84.15 -112.4 Q-86.85 -122.8 -118.3 -118.15 L-117.15 -121.15 M-120.65 -108.4 L-121.15 -106.65 -120.9 -104.25 -120.9 -103.25 M-89.9 -88.0 L-91.05 -88.0 -95.05 -87.65 -90.3 -87.5 -89.9 -88.0 -75.55 -90.5 -62.65 -94.9 -55.3 -96.15 -53.55 -96.15 -45.05 -96.9 -42.8 -96.15 -42.65 -95.25 M-100.15 -88.15 L-100.8 -88.75 -100.3 -89.9 -98.8 -91.15 M-100.35 -91.4 L-101.05 -91.25 M-95.05 -87.65 L-99.8 -88.0 -100.05 -88.0 -100.15 -88.15 Q-114.25 -90.3 -118.05 -94.9 L-118.4 -92.5 -118.05 -87.4 -116.3 -82.9 -112.8 -79.9 -109.15 -78.25 -105.55 -77.4 -101.65 -78.75 -95.05 -82.4 -90.3 -87.5 M-101.25 -91.55 L-101.8 -91.4 M-102.1 -91.7 L-102.65 -91.5 M-118.3 -95.25 L-120.65 -90.75 -122.15 -81.75 -118.05 -87.4 M-116.8 -99.0 L-118.3 -95.25 -118.05 -94.9 M-122.15 -81.75 L-122.4 -80.9 -122.55 -80.65 -121.4 -79.9 -120.05 -77.15 -119.8 -71.75 -122.8 -47.4 -122.9 -41.75 -122.55 -41.5 -112.4 -59.9 -103.65 -71.75 -103.4 -72.25 Q-125.1 -75.45 -105.55 -77.4 M-103.4 -72.25 L-95.05 -82.4 M-122.55 -80.65 L-122.55 -79.9 -121.9 -74.5 M-122.9 -41.75 L-122.9 -40.5 -122.55 -41.5 M-122.9 -40.5 L-123.15 -39.25 -127.4 -26.65 -128.15 -20.65 -128.15 -20.5 -128.55 -15.9 -128.65 -15.25 -128.65 -14.75 -128.8 -14.0 -128.9 -11.75 -128.15 -5.5 -128.05 -5.4 -128.05 -4.9 -127.9 -4.5 -127.9 -4.25 -127.8 -4.25 -126.8 1.25 -126.55 2.6 -126.05 5.1 -126.05 5.35 -125.9 5.6 -125.9 6.0 -125.8 6.1 -122.8 16.25 M-128.15 -20.5 L-128.4 -19.4 -128.4 -19.0 -128.65 -16.65 -128.65 -15.9 -128.55 -15.9 M-128.4 -19.0 L-128.9 -16.75 -128.65 -16.65 M-128.65 -15.25 L-128.8 -15.25 -128.8 -14.75 -128.65 -14.75 M-128.8 -14.75 L-129.15 -14.65 -128.9 -14.0 -128.8 -14.0 M-128.65 -15.9 L-128.8 -15.25 M-127.9 -4.25 L-127.8 -3.0 -127.65 -2.75 -127.65 -2.4 -126.8 1.25 M-128.9 -14.0 L-128.9 -11.75 M-35.25 -86.0 L-33.05 -84.15 Q-30.75 -81.8 -30.15 -79.9 -29.25 -73.95 -35.05 -73.75 L-38.55 -74.9 Q-39.4 -74.9 -43.8 -79.9 L-48.8 -84.45 -49.65 -84.4 -51.15 -83.5 -50.55 -79.9 -49.3 -77.25 -43.3 -68.5 M-26.9 -73.0 L-29.05 -72.75 -36.8 -73.25 -37.3 -73.4 M-48.4 -90.15 L-41.0 -90.7 M-53.55 -96.15 Q-56.15 -91.45 -52.3 -88.0 L-48.8 -84.45 M-112.65 34.5 L-107.6 41.3 M-127.65 -2.4 L-127.15 1.35 -126.65 2.6 -126.55 2.6 M-126.65 2.6 L-126.05 5.1 M-122.3 15.25 L-121.3 17.6" fill="none" stroke="#000000" stroke-linecap="round" stroke-linejoin="round" stroke-width="2.15"/>
  </g>
</svg>
