<?xml version="1.0" encoding="UTF-8" standalone="no"?>
<svg xmlns:xlink="http://www.w3.org/1999/xlink" height="248.25px" width="444.65px" xmlns="http://www.w3.org/2000/svg">
  <g transform="matrix(1.0, 0.0, 0.0, 1.0, 256.55, 126.45)">
    <path d="M-14.9 -120.2 L-15.05 -120.5 -18.8 -121.75 -21.15 -123.15 -21.8 -124.15 -20.55 -125.0 -18.15 -125.4 -11.15 -125.4 20.85 -124.0 34.45 -124.0 38.95 -123.25 Q43.75 -121.4 44.35 -120.5 52.0 -114.2 47.95 -107.65 L45.95 -105.4 42.45 -103.15 36.2 -100.4 26.45 -97.25 25.35 -96.75 24.6 -95.75 28.2 -75.15 28.2 -73.4 27.7 -71.75 Q25.15 -69.75 18.85 -71.75 L17.95 -73.15 17.6 -74.65 17.2 -78.75 17.2 -78.95 16.6 -94.75 Q16.75 -98.75 17.7 -99.75 18.25 -101.25 23.1 -104.25 L37.35 -110.5 35.85 -111.0 Q27.9 -111.35 21.2 -112.9 L15.95 -113.0 15.85 -113.15 14.85 -113.15 14.7 -113.25 -3.4 -116.0 -12.55 -118.15 -14.4 -119.15 -14.9 -120.2 2.1 -115.75 -14.9 -120.2 M-13.8 -110.9 L-9.9 -109.25 4.95 -105.5 10.7 -102.15 13.85 -98.75 14.95 -95.15 Q14.95 -91.85 13.45 -90.25 L10.2 -87.75 Q8.45 -86.5 -1.3 -85.25 L-10.55 -84.4 -15.3 -83.5 -15.65 -82.5 -14.65 -79.9 -8.05 -68.0 -6.15 -63.65 -5.85 -62.45 Q-4.8 -58.2 -6.15 -57.25 L-10.8 -57.0 Q-13.35 -56.3 -15.05 -57.65 -17.0 -59.25 -17.9 -63.65 L-18.35 -65.0 -20.05 -70.0 -21.4 -73.9 -23.05 -80.25 -23.15 -80.5 -23.15 -81.0 -22.9 -84.75 Q-21.65 -87.9 -20.9 -88.0 -19.0 -91.1 -4.8 -92.9 L-18.4 -91.65 -25.4 -89.4 Q-32.9 -85.25 -57.9 -84.65 -65.5 -84.75 -46.8 -93.9 -58.15 -97.15 -61.05 -99.9 -64.5 -101.85 -36.65 -107.5 L-36.05 -108.4 -36.15 -110.65 -38.15 -115.9 -38.3 -116.4 -37.65 -117.5 -34.15 -117.4 -25.4 -114.5 -13.8 -110.9 M4.6 -92.65 L3.45 -92.4 -4.8 -92.9 3.45 -92.4 4.6 -92.65 M-153.3 -60.9 L-153.15 -60.9 -141.65 -65.5 Q-137.35 -66.2 -139.8 -63.65 L-144.4 -56.5 -149.9 -49.75 -151.3 -55.5 -153.15 -60.75 -153.3 -60.9 M37.6 -110.65 L38.35 -110.9 37.6 -110.65 M-184.55 -44.5 L-177.3 -48.15 -177.4 -47.4 -177.3 -42.9 -175.05 -37.0 -174.3 -33.9 -193.05 -20.65 -212.05 -9.25 -224.05 -8.0 -226.55 -8.0 -227.8 -9.0 -227.05 -9.9 -225.4 -10.75 -217.4 -12.75 -216.9 -13.05 -213.8 -15.15 -208.55 -19.25 -205.8 -23.0 -204.65 -25.5 Q-190.05 -28.45 -190.9 -31.15 -188.6 -32.85 -191.05 -39.25 L-192.15 -41.5 -192.3 -41.65 -192.15 -41.65 -187.3 -43.25 Q-185.9 -43.85 -184.55 -44.5 M-216.9 -13.05 L-214.9 -13.5 -212.15 -14.65 -214.9 -13.5 -216.9 -13.05 M-207.3 -17.15 L-206.9 -17.25 -207.3 -17.15 M-211.9 -14.9 L-211.8 -14.9 -211.8 -14.75 -211.9 -14.9 -211.8 -14.75 -211.8 -14.9 -211.9 -14.9 M-208.3 -16.5 L-207.65 -16.75 -208.3 -16.5 M-209.55 -15.9 L-208.55 -16.25 -209.55 -15.9 M-192.15 -41.65 L-192.15 -41.5 -192.15 -41.65 M-153.15 -60.9 L-153.15 -60.75 -153.15 -60.9 M-46.55 -94.0 L-45.15 -94.75 -46.55 -94.0" fill="#fa410f" fill-rule="evenodd" stroke="none"/>
    <path d="M-13.8 -110.9 L-25.4 -114.5 Q-20.75 -121.85 -13.8 -110.9 M-25.4 -89.4 L-18.4 -91.65 -4.8 -92.9 Q-19.0 -91.1 -20.9 -88.0 -21.65 -87.9 -22.9 -84.75 L-23.15 -81.0 -24.9 -86.5 -25.4 -89.4 M17.2 -78.95 L17.2 -78.75 17.6 -74.65 17.95 -73.15 18.85 -71.75 Q25.15 -69.75 27.7 -71.75 L28.2 -73.4 28.2 -75.15 32.2 -74.65 43.6 -75.5 43.95 -74.5 Q44.5 -74.1 41.85 -70.9 L31.7 -62.5 31.45 -61.65 31.85 -61.15 31.7 -61.2 31.85 -61.15 31.7 -61.2 31.85 -61.15 32.4 -61.0 Q74.2 -50.35 92.85 -40.15 L102.85 -33.0 109.6 -26.0 114.7 -18.9 Q124.35 -1.95 124.45 -3.25 L125.2 -3.25 Q138.45 -9.9 145.7 -10.5 170.95 -11.9 177.2 -6.75 L180.95 -3.25 182.1 -0.75 182.35 3.85 185.1 6.85 186.7 10.5 Q188.5 18.05 180.6 22.35 175.15 24.55 172.45 24.5 L162.95 24.6 162.95 24.65 Q160.6 29.75 157.2 30.35 L155.45 31.0 151.45 31.25 Q135.2 29.55 127.45 17.6 L124.45 13.35 122.85 12.0 122.2 11.85 122.15 11.9 120.85 13.5 Q109.4 40.0 92.2 62.0 L83.35 72.0 70.85 83.5 Q36.2 108.8 0.6 115.85 -52.0 125.0 -77.8 117.1 L-98.05 112.5 Q-112.15 108.9 -128.3 103.6 -149.5 95.55 -153.9 82.75 L-154.05 82.6 -154.05 82.5 -154.15 82.35 -154.2 82.3 Q-166.1 66.9 -178.3 59.75 L-202.05 47.1 -205.55 45.6 Q-208.1 44.3 -220.4 41.25 L-227.05 38.75 -235.9 33.75 -242.4 27.6 -247.8 19.75 -247.05 18.5 -247.05 17.6 -250.15 9.5 -251.4 4.6 -251.8 1.35 -251.65 -6.75 -243.05 -28.5 -242.05 -24.15 -241.4 -23.0 Q-236.4 -15.35 -227.9 -14.9 -222.3 -12.9 -215.15 -14.9 L-213.8 -15.15 -216.9 -13.05 -217.4 -12.75 -225.4 -10.75 -227.05 -9.9 -227.8 -9.0 -226.55 -8.0 -224.05 -8.0 -212.05 -9.25 -209.05 -8.15 -194.9 -5.25 Q-187.3 -3.35 -184.65 -1.65 L-182.65 -1.65 -181.55 -2.15 -177.55 -6.5 Q-174.4 -5.45 -172.8 20.35 L-170.8 25.1 -167.8 28.85 -167.65 28.85 -171.8 -0.75 Q-172.4 -6.1 -171.55 -17.65 L-174.3 -33.9 -175.05 -37.0 -177.3 -42.9 -177.4 -47.4 -177.3 -48.15 -177.05 -48.4 -176.15 -50.0 -175.0 -50.55 -174.85 -50.65 -174.65 -50.75 -174.8 -51.15 -175.3 -53.5 -176.3 -59.4 Q-185.3 -84.35 -183.8 -88.5 -183.05 -97.55 -172.8 -88.0 -158.55 -74.1 -153.3 -60.9 L-153.15 -60.75 -151.3 -55.5 -149.9 -49.75 Q-142.55 -16.8 -142.15 12.75 -130.8 -12.65 -124.4 -25.0 L-113.9 -43.9 Q-107.05 -54.95 -94.65 -67.75 -80.65 -83.4 -43.65 -75.0 -44.35 -79.4 -42.3 -81.75 L-42.15 -81.9 Q-37.25 -87.85 -22.55 -70.5 L-21.55 -70.25 -21.4 -73.9 -20.05 -70.0 -18.35 -65.0 -22.55 -61.9 Q-22.75 -61.4 -27.15 -61.9 L-27.55 -61.5 -27.65 -60.15 -27.3 -58.9 -22.65 -51.5 -21.05 -48.25 -22.65 -51.5 -27.3 -58.9 -27.65 -60.15 -27.55 -61.5 -27.15 -61.9 Q-22.75 -61.4 -22.55 -61.9 L-18.35 -65.0 -17.9 -63.65 Q-17.0 -59.25 -15.05 -57.65 -13.35 -56.3 -10.8 -57.0 L-6.15 -57.25 0.1 -58.0 4.85 -57.65 0.1 -58.0 -6.15 -57.25 Q-4.8 -58.2 -5.85 -62.45 L-6.15 -63.65 -8.05 -68.0 3.6 -65.9 -8.05 -68.0 -14.65 -79.9 -15.65 -82.5 -15.3 -83.5 -10.55 -84.4 -1.3 -85.25 1.35 -77.4 Q3.45 -70.15 3.6 -65.9 L9.2 -64.9 9.6 -64.95 11.35 -65.15 11.45 -66.4 11.1 -67.15 7.7 -71.9 7.1 -73.5 7.1 -75.0 11.6 -75.15 Q16.85 -79.55 17.2 -78.95 M-252.9 -13.25 L-251.8 -17.5 -251.15 -18.4 -251.05 -18.4 -252.05 -15.4 -252.3 -14.9 -252.55 -14.15 -252.55 -14.0 -252.65 -13.9 -252.65 -13.65 -252.8 -13.5 -252.8 -13.25 -252.9 -13.25 M-251.15 -18.5 L-251.05 -18.75 -250.8 -19.4 -250.9 -18.9 -251.05 -18.75 -251.05 -18.5 -251.15 -18.5 M10.95 -74.25 L17.7 -71.75 19.1 -71.4 17.7 -71.75 10.95 -74.25 M19.2 -63.65 L9.6 -64.95 19.2 -63.65 M-1.8 -48.25 L11.2 -59.0 Q13.25 -61.35 12.1 -62.4 1.9 -60.6 -5.85 -62.45 1.9 -60.6 12.1 -62.4 13.25 -61.35 11.2 -59.0 L-1.8 -48.25 M27.35 -71.0 L32.95 -71.75 35.2 -71.75 37.85 -71.4 35.2 -71.75 32.95 -71.75 27.35 -71.0 M-22.4 -60.25 L-15.05 -57.65 -22.4 -60.25 M29.2 -61.9 L31.7 -61.2 29.2 -61.9 M120.7 11.75 L122.15 11.9 120.7 11.75 M162.95 24.65 L163.7 20.35 163.7 17.6 162.85 12.6 161.2 9.5 Q158.15 5.35 155.85 4.25 L145.2 -1.25 155.85 4.25 Q158.15 5.35 161.2 9.5 L162.85 12.6 163.7 17.6 163.7 20.35 162.95 24.65 M149.1 -7.75 L171.45 -1.5 178.35 1.35 182.35 3.85 178.35 1.35 171.45 -1.5 149.1 -7.75 M122.1 -1.4 L123.2 -2.9 123.95 -3.0 123.2 -2.9 122.1 -1.4 M-174.65 -50.75 L-174.05 -48.25 -174.15 -47.4 -174.15 -42.65 -174.15 -47.4 -174.05 -48.25 -174.65 -50.75 M-21.55 -70.25 L-20.05 -70.0 -21.55 -70.25 M-167.8 28.85 L-167.65 29.0 -167.65 28.85 -167.65 29.0 -163.9 50.1 -162.05 58.25 -159.4 66.35 -156.8 71.25 -151.9 76.0 -156.8 71.25 -159.4 66.35 -162.05 58.25 -163.9 50.1 -167.65 29.0 -167.8 28.85 M-154.2 82.3 L-154.55 81.1 -154.2 82.3 M-140.15 74.35 L-140.8 69.0 -140.55 66.35 -142.15 25.75 -142.15 12.75 -142.15 25.75 -140.55 66.35 -140.8 69.0 -140.15 74.35 M-22.55 -70.5 L-43.65 -75.0 -22.55 -70.5" fill="#ffffff" fill-rule="evenodd" stroke="none"/>
    <path d="M-247.8 19.75 Q-252.35 25.05 -254.65 10.1 -256.85 0.3 -253.3 -11.75 L-253.15 -12.0 -253.15 -12.15 -253.15 -12.5 -252.9 -12.9 -252.9 -13.0 -252.9 -13.25 -252.8 -13.25 -252.8 -13.5 -252.65 -13.65 -252.65 -13.9 -252.55 -14.0 -252.55 -14.15 -252.05 -15.25 -252.05 -15.4 -252.05 -15.25 -252.55 -14.15 -252.3 -14.9 -252.05 -15.4 -251.05 -18.4 -251.05 -18.5 -251.05 -18.4 -251.15 -18.4 -251.15 -18.5 -251.05 -18.5 -251.05 -18.75 -250.9 -18.9 -250.8 -19.4 -250.8 -19.5 -250.65 -19.75 -250.65 -20.0 -250.55 -20.25 -250.55 -20.4 -250.4 -20.65 -250.4 -20.75 -250.15 -21.5 -250.05 -21.65 -243.3 -41.75 -242.4 -43.5 -241.4 -44.15 Q-250.5 -52.9 -235.8 -59.15 -212.35 -68.2 -204.65 -57.5 L-203.15 -58.5 -201.15 -58.5 Q-206.0 -64.35 -201.05 -65.9 L-194.05 -65.25 -188.05 -63.65 -183.3 -61.15 -178.8 -57.25 -178.5 -56.95 -175.3 -53.5 -174.8 -51.15 -174.65 -50.75 -174.85 -50.65 -175.15 -51.0 -175.0 -50.55 -175.15 -51.0 -174.85 -50.65 -175.0 -50.55 -176.15 -50.0 -177.05 -48.4 -177.3 -48.15 -184.55 -44.5 -186.9 -47.0 -187.15 -47.4 -187.55 -47.7 -188.15 -48.35 -194.8 -55.5 -194.85 -55.55 -195.45 -56.3 -195.7 -56.55 -196.05 -57.05 -196.3 -57.3 -196.45 -57.55 -196.7 -57.8 -197.35 -58.65 -197.55 -58.95 -197.7 -59.2 -198.3 -60.05 Q-200.9 -64.05 -197.9 -63.65 L-195.05 -63.65 Q-190.0 -63.85 -184.55 -60.25 L-185.15 -60.15 -184.55 -60.25 Q-190.0 -63.85 -195.05 -63.65 L-197.9 -63.65 Q-200.9 -64.05 -198.3 -60.05 L-197.7 -59.2 -197.55 -58.95 -197.35 -58.65 -196.7 -57.8 -196.45 -57.55 -196.3 -57.3 -196.05 -57.05 -195.7 -56.55 -195.45 -56.3 -194.85 -55.55 -194.8 -55.5 -188.15 -48.35 -187.55 -47.7 -187.15 -47.4 -186.9 -47.0 -184.55 -44.5 Q-185.9 -43.85 -187.3 -43.25 L-196.8 -53.15 -198.55 -55.4 -202.15 -56.5 -202.25 -56.35 -202.3 -57.0 -202.25 -56.35 -202.8 -55.65 -200.3 -52.9 -196.05 -47.4 -192.3 -41.65 -192.15 -41.5 -191.05 -39.25 Q-188.6 -32.85 -190.9 -31.15 -190.05 -28.45 -204.65 -25.5 -216.1 -22.95 -227.8 -31.15 L-231.65 -34.15 -238.15 -40.4 -243.05 -28.5 -251.65 -6.75 -251.8 1.35 -251.4 4.6 -250.15 9.5 -247.05 17.6 -247.05 18.5 -247.8 19.75 M-252.9 -13.0 L-252.8 -13.25 -252.9 -13.0 M-253.15 -12.15 L-252.9 -12.9 -253.15 -12.15 M-201.15 -58.5 L-200.55 -58.65 -199.8 -58.15 -198.3 -55.5 -198.55 -55.4 -198.3 -55.5 -199.8 -58.15 -200.55 -58.65 -201.15 -58.5 M-197.7 -59.2 L-198.15 -59.65 -198.3 -60.05 -198.15 -59.65 -197.7 -59.2 M-182.05 -57.9 L-182.15 -58.15 -181.75 -58.15 -181.0 -57.55 -181.7 -57.8 -180.0 -56.35 -179.75 -56.15 -179.6 -55.95 -179.65 -56.0 -179.3 -55.5 -178.15 -54.2 -176.35 -52.25 -175.3 -51.0 -175.25 -51.65 -174.8 -51.15 -175.25 -51.65 -175.3 -51.0 -176.35 -52.25 -178.15 -54.2 -179.3 -55.5 -179.65 -56.0 -179.6 -55.95 -179.75 -56.15 -180.0 -56.35 -181.7 -57.8 -181.0 -57.55 -181.75 -58.15 -182.15 -58.15 -182.05 -57.9 M-177.85 -54.45 L-177.45 -54.0 -176.9 -52.9 -176.4 -52.9 -176.0 -52.5 -176.55 -52.5 -176.35 -52.25 -176.55 -52.5 -176.0 -52.5 -176.4 -52.9 -176.9 -52.9 -177.45 -54.0 -177.85 -54.45 -178.05 -54.3 -179.6 -55.95 -178.05 -54.3 -177.85 -54.45 -178.8 -55.5 -181.0 -57.55 -178.8 -55.5 -177.85 -54.45 M-178.15 -54.2 L-178.05 -54.3 -178.15 -54.2 M-182.55 -58.75 L-182.2 -58.5 -181.75 -58.15 -182.2 -58.5 -182.55 -58.75 -183.8 -59.4 -182.55 -58.75 -182.35 -58.65 -183.95 -59.85 -184.4 -59.75 -184.9 -59.9 -184.4 -59.75 -183.95 -59.85 -182.35 -58.65 -182.55 -58.75 M-184.55 -60.25 L-183.95 -59.85 -184.55 -60.25 M-176.0 -52.5 L-175.25 -51.65 -176.0 -52.5 M-241.4 -44.15 L-239.65 -42.5 -238.15 -40.4 -239.65 -42.5 -241.4 -44.15 M-209.8 -28.55 L-207.55 -28.5 -209.8 -28.55 -211.8 -28.5 -212.3 -28.5 -212.8 -28.55 -213.55 -28.6 Q-218.15 -29.0 -221.05 -31.15 L-225.8 -34.15 -235.05 -43.0 -238.3 -47.4 Q-242.05 -51.6 -236.3 -55.5 -223.15 -61.5 -216.05 -60.5 -211.8 -60.3 -206.55 -55.5 L-203.3 -52.15 -197.55 -44.75 -194.3 -39.25 Q-191.15 -34.35 -197.05 -31.15 -201.45 -29.8 -205.2 -29.1 L-209.8 -28.55 -205.2 -29.1 Q-201.45 -29.8 -197.05 -31.15 -191.15 -34.35 -194.3 -39.25 L-197.55 -44.75 -203.3 -52.15 -206.55 -55.5 Q-211.8 -60.3 -216.05 -60.5 -223.15 -61.5 -236.3 -55.5 -242.05 -51.6 -238.3 -47.4 L-235.05 -43.0 -225.8 -34.15 -221.05 -31.15 Q-218.15 -29.0 -213.55 -28.6 L-212.8 -28.55 -212.3 -28.5 -211.8 -28.5 -209.8 -28.55 M-205.2 -29.1 L-204.55 -28.9 -205.2 -29.1 M-204.65 -57.5 L-202.8 -55.65 -204.65 -57.5 M-182.4 -58.15 L-182.15 -58.15 -182.4 -58.15 M-182.35 -58.65 L-182.2 -58.5 -182.35 -58.65 M-177.45 -54.0 L-176.4 -52.9 -177.45 -54.0 M-186.9 -47.0 L-187.55 -47.7 -187.65 -47.75 -188.15 -48.35 -187.65 -47.75 -187.55 -47.7 -186.9 -47.0" fill="#43396f" fill-rule="evenodd" stroke="none"/>
    <path d="M-196.8 -53.15 L-187.3 -43.25 -192.15 -41.65 -192.3 -41.65 -196.05 -47.4 -200.3 -52.9 -196.8 -53.15 M-243.05 -28.5 L-238.15 -40.4 -231.65 -34.15 -227.8 -31.15 Q-216.1 -22.95 -204.65 -25.5 L-205.8 -23.0 -208.55 -19.25 -213.8 -15.15 -215.15 -14.9 Q-222.3 -12.9 -227.9 -14.9 -236.4 -15.35 -241.4 -23.0 L-242.05 -24.15 -243.05 -28.5" fill="#ff7a16" fill-rule="evenodd" stroke="none"/>
    <path d="M-177.55 -6.5 L-181.55 -2.15 -182.65 -1.65 -184.65 -1.65 Q-187.3 -3.35 -194.9 -5.25 L-209.05 -8.15 -212.05 -9.25 -193.05 -20.65 -174.3 -33.9 -171.55 -17.65 -174.3 -11.9 -177.55 -6.5" fill="#fa420e" fill-rule="evenodd" stroke="none"/>
    <path d="M28.2 -75.15 L24.6 -95.75 25.35 -96.75 26.45 -97.25 36.2 -100.4 42.45 -103.15 45.95 -105.4 47.95 -107.65 Q52.0 -114.2 44.35 -120.5 43.75 -121.4 38.95 -123.25 L34.45 -124.0 20.85 -124.0 -11.15 -125.4 -18.15 -125.4 -20.55 -125.0 -21.8 -124.15 -21.15 -123.15 -18.8 -121.75 -15.05 -120.5 -14.9 -120.2 2.1 -115.75 M-1.3 -85.25 Q8.45 -86.5 10.2 -87.75 L13.45 -90.25 Q14.95 -91.85 14.95 -95.15 L13.85 -98.75 10.7 -102.15 4.95 -105.5 -9.9 -109.25 -13.8 -110.9 -25.4 -114.5 -34.15 -117.4 -37.65 -117.5 -38.3 -116.4 -38.15 -115.9 -36.15 -110.65 -36.05 -108.4 -36.65 -107.5 Q-64.5 -101.85 -61.05 -99.9 -58.15 -97.15 -46.8 -93.9 -65.5 -84.75 -57.9 -84.65 -32.9 -85.25 -25.4 -89.4 L-18.4 -91.65 -4.8 -92.9 3.45 -92.4 4.6 -92.65 M-14.9 -120.2 L-14.4 -119.15 -12.55 -118.15 -3.4 -116.0 14.7 -113.25 14.85 -113.15 15.85 -113.15 15.95 -113.0 21.2 -112.9 Q27.9 -111.35 35.85 -111.0 L37.35 -110.5 23.1 -104.25 Q18.25 -101.25 17.7 -99.75 16.75 -98.75 16.6 -94.75 L17.2 -78.95 17.2 -78.75 17.6 -74.65 17.95 -73.15 18.85 -71.75 Q25.15 -69.75 27.7 -71.75 L28.2 -73.4 28.2 -75.15 32.2 -74.65 43.6 -75.5 43.95 -74.5 Q44.5 -74.1 41.85 -70.9 L31.7 -62.5 31.45 -61.65 31.85 -61.15 32.4 -61.0 Q74.2 -50.35 92.85 -40.15 L102.85 -33.0 109.6 -26.0 114.7 -18.9 Q124.35 -1.95 124.45 -3.25 L125.2 -3.25 Q138.45 -9.9 145.7 -10.5 170.95 -11.9 177.2 -6.75 L180.95 -3.25 182.1 -0.75 182.35 3.85 185.1 6.85 186.7 10.5 Q188.5 18.05 180.6 22.35 175.15 24.55 172.45 24.5 L162.95 24.6 162.95 24.65 Q160.6 29.75 157.2 30.35 L155.45 31.0 151.45 31.25 Q135.2 29.55 127.45 17.6 L124.45 13.35 122.85 12.0 122.2 11.85 122.15 11.9 120.85 13.5 Q109.4 40.0 92.2 62.0 L83.35 72.0 70.85 83.5 Q36.2 108.8 0.6 115.85 -52.0 125.0 -77.8 117.1 L-98.05 112.5 Q-112.15 108.9 -128.3 103.6 -149.5 95.55 -153.9 82.75 L-154.05 82.6 -154.05 82.5 -154.15 82.35 -154.2 82.3 Q-166.1 66.9 -178.3 59.75 L-202.05 47.1 -205.55 45.6 Q-208.1 44.3 -220.4 41.25 L-227.05 38.75 -235.9 33.75 -242.4 27.6 -247.8 19.75 Q-252.35 25.05 -254.65 10.1 -256.85 0.3 -253.3 -11.75 L-253.15 -12.0 -253.15 -12.15 -253.15 -12.5 -252.9 -12.9 -252.9 -13.0 -252.9 -13.25 -251.8 -17.5 -251.15 -18.4 -251.15 -18.5 -251.05 -18.75 -250.8 -19.4 -250.8 -19.5 -250.65 -19.75 -250.65 -20.0 -250.55 -20.25 -250.55 -20.4 -250.4 -20.65 -250.4 -20.75 -250.15 -21.5 -250.05 -21.65 -243.3 -41.75 -242.4 -43.5 -241.4 -44.15 Q-250.5 -52.9 -235.8 -59.15 -212.35 -68.2 -204.65 -57.5 L-203.15 -58.5 -201.15 -58.5 Q-206.0 -64.35 -201.05 -65.9 L-194.05 -65.25 -188.05 -63.65 -183.3 -61.15 -178.8 -57.25 -178.5 -56.95 -175.3 -53.5 -176.3 -59.4 Q-185.3 -84.35 -183.8 -88.5 -183.05 -97.55 -172.8 -88.0 -158.55 -74.1 -153.3 -60.9 L-153.15 -60.9 -141.65 -65.5 Q-137.35 -66.2 -139.8 -63.65 L-144.4 -56.5 -149.9 -49.75 Q-142.55 -16.8 -142.15 12.75 -130.8 -12.65 -124.4 -25.0 L-113.9 -43.9 Q-107.05 -54.95 -94.65 -67.75 -80.65 -83.4 -43.65 -75.0 -44.35 -79.4 -42.3 -81.75 L-42.15 -81.9 Q-37.25 -87.85 -22.55 -70.5 L-21.55 -70.25 -21.4 -73.9 -23.05 -80.25 -23.15 -80.5 -23.15 -81.0 -24.9 -86.5 -25.4 -89.4 M38.35 -110.9 L37.6 -110.65 M17.2 -78.95 Q16.85 -79.55 11.6 -75.15 L7.1 -75.0 7.1 -73.5 7.7 -71.9 11.1 -67.15 11.45 -66.4 11.35 -65.15 9.6 -64.95 19.2 -63.65 M19.1 -71.4 L17.7 -71.75 10.95 -74.25 M9.6 -64.95 L9.2 -64.9 3.6 -65.9 -8.05 -68.0 -6.15 -63.65 -5.85 -62.45 Q1.9 -60.6 12.1 -62.4 13.25 -61.35 11.2 -59.0 L-1.8 -48.25 M4.85 -57.65 L0.1 -58.0 -6.15 -57.25 -10.8 -57.0 Q-13.35 -56.3 -15.05 -57.65 L-22.4 -60.25 M37.85 -71.4 L35.2 -71.75 32.95 -71.75 27.35 -71.0 M31.85 -61.15 L31.7 -61.2 31.85 -61.15 32.4 -61.0 M31.7 -61.2 L29.2 -61.9 M3.6 -65.9 Q3.45 -70.15 1.35 -77.4 L-1.3 -85.25 -10.55 -84.4 -15.3 -83.5 -15.65 -82.5 -14.65 -79.9 -8.05 -68.0 M123.95 -3.0 L123.2 -2.9 122.1 -1.4 M182.35 3.85 L178.35 1.35 171.45 -1.5 149.1 -7.75 M145.2 -1.25 L155.85 4.25 Q158.15 5.35 161.2 9.5 L162.85 12.6 163.7 17.6 163.7 20.35 162.95 24.65 M122.15 11.9 L120.7 11.75 M-250.8 -19.4 L-250.9 -18.9 -251.05 -18.75 -251.05 -18.5 -251.05 -18.4 -252.05 -15.4 -252.05 -15.25 -252.55 -14.15 -252.55 -14.0 -252.65 -13.9 -252.65 -13.65 -252.8 -13.5 -252.8 -13.25 -252.9 -13.0 M-251.05 -18.5 L-251.15 -18.5 M-251.05 -18.4 L-251.15 -18.4 M-252.55 -14.15 L-252.3 -14.9 -252.05 -15.4 M-252.9 -13.25 L-252.8 -13.25 M-252.9 -12.9 L-253.15 -12.15 M-243.05 -28.5 L-251.65 -6.75 -251.8 1.35 -251.4 4.6 -250.15 9.5 -247.05 17.6 -247.05 18.5 -247.8 19.75 M-185.15 -60.15 L-184.55 -60.25 Q-190.0 -63.85 -195.05 -63.65 L-197.9 -63.65 Q-200.9 -64.05 -198.3 -60.05 L-197.7 -59.2 -197.55 -58.95 -197.35 -58.65 -196.7 -57.8 -196.45 -57.55 -196.3 -57.3 -196.05 -57.05 -195.7 -56.55 -195.45 -56.3 -194.85 -55.55 -194.8 -55.5 -188.15 -48.35 -187.55 -47.7 -187.15 -47.4 -186.9 -47.0 -184.55 -44.5 -177.3 -48.15 -177.05 -48.4 -176.15 -50.0 -175.0 -50.55 -175.15 -51.0 -174.85 -50.65 -174.65 -50.75 -174.8 -51.15 -175.25 -51.65 -175.3 -51.0 -176.35 -52.25 -178.15 -54.2 -179.3 -55.5 -179.65 -56.0 -179.6 -55.95 -179.75 -56.15 -180.0 -56.35 -181.7 -57.8 -181.0 -57.55 -181.75 -58.15 -182.15 -58.15 -182.05 -57.9 M-198.3 -60.05 L-198.15 -59.65 -197.7 -59.2 M-198.55 -55.4 L-198.3 -55.5 -199.8 -58.15 -200.55 -58.65 -201.15 -58.5 M-202.25 -56.35 L-202.15 -56.5 -198.55 -55.4 -196.8 -53.15 -187.3 -43.25 Q-185.9 -43.85 -184.55 -44.5 M-202.3 -57.0 L-202.25 -56.35 -202.8 -55.65 -200.3 -52.9 -196.8 -53.15 M-183.8 -59.4 L-182.55 -58.75 -182.35 -58.65 -183.95 -59.85 -184.4 -59.75 -184.9 -59.9 M-183.95 -59.85 L-184.55 -60.25 M-181.75 -58.15 L-182.2 -58.5 -182.55 -58.75 M-179.6 -55.95 L-178.05 -54.3 -177.85 -54.45 -178.8 -55.5 -181.0 -57.55 M-178.05 -54.3 L-178.15 -54.2 M-176.35 -52.25 L-176.55 -52.5 -176.0 -52.5 -176.4 -52.9 -176.9 -52.9 -177.45 -54.0 -177.85 -54.45 M-175.0 -50.55 L-174.85 -50.65 M-175.25 -51.65 L-176.0 -52.5 M-174.8 -51.15 L-175.3 -53.5 M-176.4 -52.9 L-177.45 -54.0 M-182.2 -58.5 L-182.35 -58.65 M-182.15 -58.15 L-182.4 -58.15 M-236.3 -55.5 Q-242.05 -51.6 -238.3 -47.4 L-235.05 -43.0 -225.8 -34.15 -221.05 -31.15 Q-218.15 -29.0 -213.55 -28.6 L-212.8 -28.55 -212.3 -28.5 -211.8 -28.5 -209.8 -28.55 -205.2 -29.1 Q-201.45 -29.8 -197.05 -31.15 -191.15 -34.35 -194.3 -39.25 L-197.55 -44.75 -203.3 -52.15 -206.55 -55.5 Q-211.8 -60.3 -216.05 -60.5 -223.15 -61.5 -236.3 -55.5 M-202.8 -55.65 L-204.65 -57.5 M-204.55 -28.9 L-205.2 -29.1 M-207.55 -28.5 L-209.8 -28.55 M-238.15 -40.4 L-239.65 -42.5 -241.4 -44.15 M-204.65 -25.5 Q-216.1 -22.95 -227.8 -31.15 L-231.65 -34.15 -238.15 -40.4 -243.05 -28.5 -242.05 -24.15 -241.4 -23.0 Q-236.4 -15.35 -227.9 -14.9 -222.3 -12.9 -215.15 -14.9 L-213.8 -15.15 -208.55 -19.25 -205.8 -23.0 -204.65 -25.5 Q-190.05 -28.45 -190.9 -31.15 -188.6 -32.85 -191.05 -39.25 L-192.15 -41.5 -192.3 -41.65 -196.05 -47.4 -200.3 -52.9 M-212.05 -9.25 L-224.05 -8.0 -226.55 -8.0 -227.8 -9.0 -227.05 -9.9 -225.4 -10.75 -217.4 -12.75 -216.9 -13.05 -213.8 -15.15 M-208.55 -16.25 L-209.55 -15.9 M-207.65 -16.75 L-208.3 -16.5 M-211.9 -14.9 L-211.8 -14.75 -211.8 -14.9 -211.9 -14.9 M-206.9 -17.25 L-207.3 -17.15 M-212.15 -14.65 L-214.9 -13.5 -216.9 -13.05 M-177.55 -6.5 L-181.55 -2.15 -182.65 -1.65 -184.65 -1.65 Q-187.3 -3.35 -194.9 -5.25 L-209.05 -8.15 -212.05 -9.25 -193.05 -20.65 -174.3 -33.9 -175.05 -37.0 -177.3 -42.9 -177.4 -47.4 -177.3 -48.15 M-174.15 -42.65 L-174.15 -47.4 -174.05 -48.25 -174.65 -50.75 M-188.15 -48.35 L-187.65 -47.75 -187.55 -47.7 -186.9 -47.0 M-192.15 -41.5 L-192.15 -41.65 -192.3 -41.65 M-192.15 -41.65 L-187.3 -43.25 M-171.55 -17.65 L-174.3 -11.9 -177.55 -6.5 Q-174.4 -5.45 -172.8 20.35 L-170.8 25.1 -167.8 28.85 -167.65 28.85 -171.8 -0.75 Q-172.4 -6.1 -171.55 -17.65 L-174.3 -33.9 M-13.8 -110.9 Q-20.75 -121.85 -25.4 -114.5 M-153.15 -60.75 L-151.3 -55.5 -149.9 -49.75 M-153.15 -60.75 L-153.3 -60.9 M-153.15 -60.75 L-153.15 -60.9 M-4.8 -92.9 Q-19.0 -91.1 -20.9 -88.0 -21.65 -87.9 -22.9 -84.75 L-23.15 -81.0 M-18.35 -65.0 L-22.55 -61.9 Q-22.75 -61.4 -27.15 -61.9 L-27.55 -61.5 -27.65 -60.15 -27.3 -58.9 -22.65 -51.5 -21.05 -48.25 M-18.35 -65.0 L-20.05 -70.0 -21.55 -70.25 M-5.85 -62.45 Q-4.8 -58.2 -6.15 -57.25 M-15.05 -57.65 Q-17.0 -59.25 -17.9 -63.65 L-18.35 -65.0 M-20.05 -70.0 L-21.4 -73.9 M-45.15 -94.75 L-46.55 -94.0 M-43.65 -75.0 L-22.55 -70.5 M-142.15 12.75 L-142.15 25.75 -140.55 66.35 -140.8 69.0 -140.15 74.35 M-167.65 28.85 L-167.65 29.0 -163.9 50.1 -162.05 58.25 -159.4 66.35 -156.8 71.25 -151.9 76.0 M-154.55 81.1 L-154.2 82.3 M-167.65 29.0 L-167.8 28.85" fill="none" stroke="#000000" stroke-linecap="round" stroke-linejoin="round" stroke-width="2.15"/>
  </g>
</svg>
