<?xml version="1.0" encoding="UTF-8" standalone="no"?>
<svg xmlns:xlink="http://www.w3.org/1999/xlink" height="260.85px" width="505.45px" xmlns="http://www.w3.org/2000/svg">
  <g transform="matrix(1.0, 0.0, 0.0, 1.0, 317.2, 108.05)">
    <path d="M-12.9 -55.0 L-17.05 -67.5 -18.4 -72.9 Q-18.5 -76.65 -17.3 -77.9 L-13.9 -81.75 -18.15 -83.0 Q-31.7 -84.9 -37.65 -86.75 -38.65 -87.2 -39.25 -87.6 L-39.55 -87.8 Q-41.05 -89.2 -38.05 -90.4 -55.0 -89.7 -52.65 -91.75 L-50.65 -93.65 Q-60.55 -94.15 -62.4 -96.15 -61.75 -97.9 -58.3 -98.65 L-43.9 -101.75 -48.05 -104.9 -48.3 -105.75 -47.55 -106.65 -41.55 -107.0 -15.9 -105.65 -5.65 -106.25 -0.8 -105.75 3.95 -104.25 7.7 -102.15 Q9.45 -100.65 10.2 -98.65 31.25 -99.6 34.6 -88.25 35.15 -87.1 33.95 -83.15 L31.35 -79.0 Q31.65 -78.2 14.2 -66.15 L11.45 -62.9 Q10.85 -59.6 11.7 -58.5 L14.6 -53.4 14.95 -52.65 19.85 -42.5 20.05 -41.65 20.6 -39.25 20.7 -38.15 19.95 -36.5 19.85 -36.5 18.35 -36.4 9.6 -37.9 9.55 -38.05 8.85 -39.25 8.05 -41.5 7.45 -43.25 7.45 -43.4 7.45 -43.25 7.35 -43.4 7.45 -43.4 6.7 -45.75 6.7 -45.9 6.7 -45.75 6.6 -45.75 6.7 -45.9 4.9 -51.15 3.2 -56.15 Q1.9 -61.15 2.35 -63.15 L3.7 -66.75 7.85 -71.5 20.85 -81.75 22.35 -83.75 21.1 -84.4 19.7 -84.5 12.7 -83.9 10.45 -83.4 Q4.95 -79.4 1.45 -77.9 L-2.3 -76.5 -9.8 -75.15 -10.4 -74.15 -10.3 -72.65 -8.3 -69.4 -1.55 -54.9 Q-0.6 -52.6 -1.4 -50.5 L-3.65 -50.5 -11.65 -52.0 -12.9 -55.0 M-233.3 11.75 L-220.4 5.35 -193.55 -9.15 -175.15 -17.5 Q-163.6 -21.85 -171.3 -14.9 -172.1 -13.1 -182.65 -1.5 L-196.05 11.1 -213.15 25.75 -244.9 54.0 -247.4 55.35 -254.8 58.25 -256.15 58.6 -256.9 58.25 -257.65 57.5 -257.3 56.75 -251.4 52.25 -249.15 48.25 -247.3 46.5 -244.4 42.0 -242.55 36.75 -242.55 35.85 Q-233.15 40.85 -226.3 33.85 -224.8 32.6 -224.3 28.85 L-224.9 25.75 -226.9 22.0 -230.9 17.6 -236.15 13.0 -233.3 11.75 M-13.9 -81.75 L-13.05 -81.25 -13.65 -79.9 Q-17.1 -74.3 -9.8 -75.15 -17.1 -74.3 -13.65 -79.9 L-13.05 -81.25 -13.9 -81.75 M10.2 -98.65 L1.1 -99.4 -36.15 -104.9 Q-39.85 -105.2 -40.8 -104.25 -40.6 -102.65 -37.65 -101.0 L-28.8 -96.15 -26.2 -94.3 -26.15 -94.25 -37.8 -90.5 -37.9 -90.4 -38.05 -90.4 -37.9 -90.4 -37.8 -90.5 -26.15 -94.25 -26.2 -94.3 -28.8 -96.15 -37.65 -101.0 Q-40.6 -102.65 -40.8 -104.25 -39.85 -105.2 -36.15 -104.9 L1.1 -99.4 10.2 -98.65 M-43.9 -101.75 L-41.15 -99.9 -43.9 -101.75 M-24.9 -94.75 L-26.2 -94.3 -24.9 -94.75 M-50.65 -93.65 L-42.55 -92.75 -50.65 -93.65" fill="#fa410f" fill-rule="evenodd" stroke="none"/>
    <path d="M14.6 -53.4 L15.1 -53.25 14.95 -52.65 14.6 -53.4 M19.85 -42.5 L22.7 -42.5 23.6 -42.5 Q26.4 -43.75 29.95 -44.0 L31.6 -43.5 33.2 -41.65 33.4 -41.6 33.7 -41.5 Q56.5 -39.85 66.6 -37.9 L80.85 -35.0 93.2 -30.65 103.95 -25.0 111.6 -19.4 118.6 -12.65 119.4 -11.95 Q122.2 -9.55 124.85 -7.65 L124.95 -7.65 126.6 -8.4 Q128.2 -10.95 134.35 -16.25 L138.7 -18.25 142.1 -19.15 145.95 -19.65 150.85 -19.4 Q155.15 -18.55 157.7 -15.15 L163.2 -14.9 Q177.9 -13.9 182.35 -8.9 L183.85 -6.4 184.2 -2.65 184.2 -2.5 185.1 -1.9 186.7 1.1 187.2 4.35 186.2 8.6 Q185.25 11.0 182.1 12.85 179.4 17.4 149.95 14.75 143.75 15.6 126.85 6.0 L126.7 6.0 Q123.85 25.5 105.45 59.5 89.85 85.9 58.2 110.1 23.35 134.4 -17.05 145.0 L-37.9 149.1 Q-51.75 151.55 -87.3 151.75 L-107.55 151.35 Q-124.1 150.05 -131.9 148.0 L-141.4 145.35 -157.15 139.75 -198.3 122.35 -209.05 118.85 Q-223.35 116.05 -230.9 113.5 L-241.55 111.35 -262.15 110.25 -272.15 109.1 -276.8 108.1 -284.3 105.6 Q-292.0 102.3 -293.9 100.75 -313.55 90.6 -316.15 57.0 -315.5 31.35 -286.05 13.25 L-286.05 13.1 -285.9 13.1 -280.15 11.1 -274.4 10.75 -273.55 12.85 -279.65 15.6 -284.8 19.85 Q-288.8 24.9 -288.3 25.75 L-289.55 29.1 Q-290.0 33.7 -289.6 33.85 -290.1 33.95 -287.65 39.1 L-284.15 43.6 -280.3 45.85 -291.05 63.5 -292.05 66.35 -293.05 70.75 -293.55 79.0 -291.55 87.5 -288.65 94.0 -287.3 95.35 Q-280.8 94.15 -283.3 90.75 L-287.55 82.6 -288.9 78.35 -289.3 74.5 -289.05 69.6 -288.4 66.35 -287.65 64.25 -277.8 50.1 -276.15 48.1 -273.55 49.25 -262.9 51.5 Q-256.25 52.15 -252.3 50.1 L-249.15 48.25 -251.4 52.25 -257.3 56.75 -257.65 57.5 -256.9 58.25 -256.15 58.6 -254.8 58.25 -247.4 55.35 -244.9 54.0 -241.05 54.5 -232.55 54.35 Q-223.8 54.95 -224.05 56.1 L-223.4 55.6 Q-222.35 55.15 -217.05 76.0 -211.9 83.8 -202.8 86.85 -178.85 89.4 -168.15 72.25 -166.6 71.35 -146.8 40.0 L-136.3 21.35 -136.05 20.85 -136.05 20.75 -147.05 15.0 -151.8 11.85 Q-158.1 6.2 -156.15 4.1 -157.3 -2.6 -130.9 1.0 L-134.15 -2.5 Q-165.1 -22.05 -170.8 -34.5 L-171.65 -37.4 -171.3 -41.15 -169.4 -42.9 -168.8 -43.0 Q-165.75 -43.85 -161.4 -42.9 L-148.3 -39.25 -136.3 -34.65 -125.8 -29.65 -114.3 -23.25 -114.05 -23.25 -113.9 -23.25 -113.8 -23.75 -113.05 -29.9 Q-114.4 -45.35 -112.8 -47.5 -107.0 -55.3 -102.9 -47.5 L-102.8 -47.5 Q-101.65 -77.25 -97.55 -85.0 -94.15 -91.85 -88.8 -79.9 -83.25 -65.45 -81.9 -44.25 L-79.65 -44.5 -45.15 -43.5 -15.55 -43.5 Q-26.35 -60.5 -15.4 -55.5 L-12.9 -55.0 -11.65 -52.0 -3.65 -50.5 -1.4 -50.5 Q-0.6 -52.6 -1.55 -54.9 L3.2 -56.15 4.9 -51.15 1.2 -50.5 -1.4 -50.5 1.2 -50.5 4.9 -51.15 6.7 -45.9 6.6 -45.75 3.95 -43.75 7.35 -43.4 7.45 -43.25 8.05 -41.5 8.85 -39.25 9.55 -38.05 9.6 -37.9 18.35 -36.4 19.85 -36.5 19.95 -36.5 20.7 -38.15 20.6 -39.25 20.05 -41.65 19.85 -42.5 M25.85 -27.15 L26.85 -28.4 37.2 -36.75 38.1 -37.9 38.35 -39.25 37.7 -39.65 35.6 -39.4 34.85 -39.75 33.4 -41.6 34.85 -39.75 35.6 -39.4 37.7 -39.65 38.35 -39.25 38.1 -37.9 37.2 -36.75 26.85 -28.4 25.85 -27.15 M19.85 -36.5 L27.1 -37.0 35.6 -39.4 27.1 -37.0 19.85 -36.5 M141.6 -16.65 L157.2 -15.25 141.6 -16.65 M124.95 -7.65 L126.2 -6.75 126.35 -6.5 126.95 -6.0 126.35 -6.5 126.2 -6.75 124.95 -7.65 M20.05 -41.65 L22.7 -42.5 20.05 -41.65 M3.85 -31.0 L3.7 -30.65 4.1 -30.65 3.95 -31.0 3.85 -31.0 0.35 -36.75 -0.65 -39.25 Q-1.9 -42.45 -0.15 -42.9 L8.05 -41.5 -0.15 -42.9 Q-1.9 -42.45 -0.65 -39.25 L0.35 -36.75 3.85 -31.0 3.95 -31.0 4.1 -30.65 3.7 -30.65 3.85 -31.0 M4.1 -38.25 L7.7 -38.4 9.55 -38.05 7.7 -38.4 4.1 -38.25 M-15.55 -43.5 L0.7 -43.15 2.6 -43.25 3.7 -43.15 4.45 -43.4 3.7 -43.15 2.6 -43.25 0.7 -43.15 -15.55 -43.5 M150.45 -12.25 Q175.25 -9.05 178.35 -6.75 L181.7 -4.9 184.2 -2.65 181.7 -4.9 178.35 -6.75 Q175.25 -9.05 150.45 -12.25 M-98.45 -40.75 L-102.8 -47.5 -98.45 -40.75 Q-95.95 -42.15 -89.65 -43.65 L-81.9 -44.25 -89.65 -43.65 Q-95.95 -42.15 -98.45 -40.75 -99.9 -40.0 -100.15 -39.25 L-104.3 -35.9 -113.8 -23.75 -104.3 -35.9 -100.15 -39.25 Q-99.9 -40.0 -98.45 -40.75 M-92.9 121.1 L-87.05 107.0 -80.05 82.6 -78.15 74.5 -75.9 58.25 -76.15 42.0 -78.9 25.75 -84.15 9.5 -89.65 -1.4 -93.8 -6.75 -99.3 -12.5 -104.9 -17.15 -114.05 -23.25 -104.9 -17.15 -99.3 -12.5 -93.8 -6.75 -89.65 -1.4 -84.15 9.5 -78.9 25.75 -76.15 42.0 -75.9 58.25 -78.15 74.5 -80.05 82.6 -87.05 107.0 -92.9 121.1 M-16.65 -52.15 L-13.3 -52.4 -11.65 -52.0 -13.3 -52.4 -16.65 -52.15 M-125.65 29.6 L-123.15 33.35 -125.65 29.6 Q-142.75 28.25 -142.05 33.85 L-142.05 35.1 -140.9 36.5 -136.05 38.85 Q-132.65 40.55 -131.8 42.0 L-129.55 45.5 -120.4 66.35 -117.8 74.5 -113.8 90.75 -112.3 101.25 -112.55 107.0 -113.05 108.75 -112.55 107.0 -112.3 101.25 -113.8 90.75 -117.8 74.5 -120.4 66.35 -129.55 45.5 -131.8 42.0 Q-132.65 40.55 -136.05 38.85 L-140.9 36.5 -142.05 35.1 -142.05 33.85 Q-142.75 28.25 -125.65 29.6 L-126.8 27.85 -133.55 22.1 -136.05 20.85 -133.55 22.1 -126.8 27.85 -125.65 29.6 M-130.9 1.0 L-130.05 2.0 -130.05 2.6 -130.05 2.0 -130.9 1.0 M-286.05 13.25 L-285.9 13.1 -286.05 13.25 M126.7 6.0 L126.85 5.85 126.85 5.35 126.85 5.85 126.85 6.0 126.85 5.85 126.7 6.0" fill="#ffffff" fill-rule="evenodd" stroke="none"/>
    <path d="M-273.4 2.5 Q-271.4 -2.6 -269.9 -3.4 L-266.15 -5.0 Q-275.35 -11.8 -271.3 -13.0 L-267.9 -12.0 -259.3 -6.75 -258.3 -6.0 -252.15 -2.4 Q-240.0 5.85 -234.55 10.6 L-233.3 11.75 -236.15 13.0 -230.9 17.6 -226.9 22.0 -224.9 25.75 -224.3 28.85 Q-224.8 32.6 -226.3 33.85 -233.15 40.85 -242.55 35.85 L-250.55 31.6 -258.8 26.35 -258.9 26.35 -259.05 26.1 -260.15 25.35 -261.55 23.85 -264.65 22.25 -261.55 23.85 -260.15 25.35 -260.3 25.75 -264.9 32.35 -276.15 48.1 -277.8 50.1 -287.65 64.25 -288.4 66.35 -289.05 69.6 -289.3 74.5 -288.9 78.35 -287.55 82.6 -283.3 90.75 Q-280.8 94.15 -287.3 95.35 L-288.65 94.0 -291.55 87.5 -293.55 79.0 -293.05 70.75 -292.05 66.35 -291.05 63.5 -280.3 45.85 -266.05 23.5 -264.65 22.25 -272.05 15.35 -273.55 12.85 -274.4 10.75 -274.4 6.35 -273.4 2.5 M-257.65 -2.65 L-262.55 -4.75 -266.15 -5.0 -262.55 -4.75 -257.65 -2.65 -256.65 -2.85 -257.65 -2.65 -253.65 -0.2 -255.4 -2.25 -255.0 -2.3 -255.35 -2.55 -255.7 -2.6 -255.75 -2.6 -256.65 -2.85 Q-255.95 -2.9 -255.35 -2.55 -255.95 -2.9 -256.65 -2.85 L-255.75 -2.6 -255.7 -2.6 -255.35 -2.55 -255.0 -2.3 -255.4 -2.25 -253.65 -0.2 -257.65 -2.65 M-255.0 -2.3 Q-254.15 -1.65 -253.55 -0.15 L-253.65 -0.2 -253.55 -0.15 Q-254.15 -1.65 -255.0 -2.3 M-233.4 17.6 L-229.05 22.35 -227.65 25.75 Q-227.25 32.4 -234.55 33.85 L-235.3 33.85 -235.55 33.95 -235.95 34.0 Q-239.6 34.25 -252.1 26.2 L-252.35 26.05 -252.8 25.75 -256.65 23.25 -256.75 23.2 -257.8 22.5 -261.3 19.9 -264.15 17.6 -264.5 17.25 -265.7 16.1 -268.3 13.6 Q-270.3 9.9 -269.8 9.5 -270.25 7.4 -269.4 5.1 L-267.8 1.35 Q-266.05 -5.15 -254.8 1.35 L-243.3 9.5 -233.4 17.6 -243.3 9.5 -254.8 1.35 Q-266.05 -5.15 -267.8 1.35 L-269.4 5.1 Q-270.25 7.4 -269.8 9.5 -270.3 9.9 -268.3 13.6 L-265.7 16.1 -264.5 17.25 -264.15 17.6 -261.3 19.9 -257.8 22.5 -256.75 23.2 -256.65 23.25 -252.8 25.75 -252.35 26.05 -252.1 26.2 Q-239.6 34.25 -235.95 34.0 L-235.55 33.95 -235.3 33.85 -234.55 33.85 Q-227.25 32.4 -227.65 25.75 L-229.05 22.35 -233.4 17.6 M-253.55 -0.15 L-236.15 13.0 -253.55 -0.15 M-257.8 22.5 L-257.55 22.75 -257.15 23.0 -256.75 23.2 -257.15 23.0 -257.55 22.75 -257.8 22.5 M-261.8 19.85 L-261.3 19.9 -261.8 19.85 M-258.8 26.35 L-259.05 26.1 -258.8 26.35 M-265.55 16.6 L-265.7 16.1 -265.55 16.6 M-265.3 17.0 L-264.5 17.25 -265.3 17.0 M-234.55 10.6 L-258.3 -6.0 -234.55 10.6" fill="#43396f" fill-rule="evenodd" stroke="none"/>
    <path d="M-196.05 11.1 L-200.3 20.25 Q-208.8 32.0 -216.3 47.75 L-219.4 51.6 -223.4 55.6 -224.05 56.1 Q-223.8 54.95 -232.55 54.35 L-241.05 54.5 -244.9 54.0 -213.15 25.75 -196.05 11.1" fill="#fa420e" fill-rule="evenodd" stroke="none"/>
    <path d="M-286.05 13.1 L-282.55 8.1 Q-279.6 4.65 -273.4 2.5 L-274.4 6.35 -274.4 10.75 -280.15 11.1 -285.9 13.1 -286.05 13.1 M-242.55 35.85 L-242.55 36.75 -244.4 42.0 -247.3 46.5 -249.15 48.25 -252.3 50.1 Q-256.25 52.15 -262.9 51.5 L-273.55 49.25 -276.15 48.1 -264.9 32.35 Q-256.4 33.35 -258.9 26.35 L-258.8 26.35 -250.55 31.6 -242.55 35.85 M-273.55 12.85 L-272.05 15.35 -264.65 22.25 -266.05 23.5 -280.3 45.85 -284.15 43.6 -287.65 39.1 Q-290.1 33.95 -289.6 33.85 -290.0 33.7 -289.55 29.1 L-288.3 25.75 Q-288.8 24.9 -284.8 19.85 L-279.65 15.6 -273.55 12.85" fill="#ff7a16" fill-rule="evenodd" stroke="none"/>
    <path d="M-258.9 26.35 Q-256.4 33.35 -264.9 32.35 L-260.3 25.75 -260.15 25.35 -259.05 26.1 -258.9 26.35" fill="#000000" fill-rule="evenodd" stroke="none"/>
    <path d="M-12.9 -55.0 L-17.05 -67.5 -18.4 -72.9 Q-18.5 -76.65 -17.3 -77.9 L-13.9 -81.75 -18.15 -83.0 Q-31.7 -84.9 -37.65 -86.75 -38.65 -87.2 -39.25 -87.6 L-39.55 -87.8 Q-41.05 -89.2 -38.05 -90.4 -55.0 -89.7 -52.65 -91.75 L-50.65 -93.65 Q-60.55 -94.15 -62.4 -96.15 -61.75 -97.9 -58.3 -98.65 L-43.9 -101.75 -48.05 -104.9 -48.3 -105.75 -47.55 -106.65 -41.55 -107.0 -15.9 -105.65 -5.65 -106.25 -0.8 -105.75 3.95 -104.25 7.7 -102.15 Q9.45 -100.65 10.2 -98.65 31.25 -99.6 34.6 -88.25 35.15 -87.1 33.95 -83.15 L31.35 -79.0 Q31.65 -78.2 14.2 -66.15 L11.45 -62.9 Q10.85 -59.6 11.7 -58.5 L14.6 -53.4 15.1 -53.25 14.95 -52.65 19.85 -42.5 22.7 -42.5 23.6 -42.5 Q26.4 -43.75 29.95 -44.0 L31.6 -43.5 33.2 -41.65 33.4 -41.6 33.7 -41.5 Q56.5 -39.85 66.6 -37.9 L80.85 -35.0 93.2 -30.65 103.95 -25.0 111.6 -19.4 118.6 -12.65 119.4 -11.95 Q122.2 -9.55 124.85 -7.65 L124.95 -7.65 126.6 -8.4 Q128.2 -10.95 134.35 -16.25 L138.7 -18.25 142.1 -19.15 145.95 -19.65 150.85 -19.4 Q155.15 -18.55 157.7 -15.15 L163.2 -14.9 Q177.9 -13.9 182.35 -8.9 L183.85 -6.4 184.2 -2.65 184.2 -2.5 185.1 -1.9 186.7 1.1 187.2 4.35 186.2 8.6 Q185.25 11.0 182.1 12.85 179.4 17.4 149.95 14.75 143.75 15.6 126.85 6.0 L126.7 6.0 Q123.85 25.5 105.45 59.5 89.85 85.9 58.2 110.1 23.35 134.4 -17.05 145.0 L-37.9 149.1 Q-51.75 151.55 -87.3 151.75 L-107.55 151.35 Q-124.1 150.05 -131.9 148.0 L-141.4 145.35 -157.15 139.75 -198.3 122.35 -209.05 118.85 Q-223.35 116.05 -230.9 113.5 L-241.55 111.35 -262.15 110.25 -272.15 109.1 -276.8 108.1 -284.3 105.6 Q-292.0 102.3 -293.9 100.75 -313.55 90.6 -316.15 57.0 -315.5 31.35 -286.05 13.25 L-286.05 13.1 -282.55 8.1 Q-279.6 4.65 -273.4 2.5 -271.4 -2.6 -269.9 -3.4 L-266.15 -5.0 Q-275.35 -11.8 -271.3 -13.0 L-267.9 -12.0 -259.3 -6.75 -258.3 -6.0 -252.15 -2.4 Q-240.0 5.85 -234.55 10.6 L-233.3 11.75 -220.4 5.35 -193.55 -9.15 -175.15 -17.5 Q-163.6 -21.85 -171.3 -14.9 -172.1 -13.1 -182.65 -1.5 L-196.05 11.1 -200.3 20.25 Q-208.8 32.0 -216.3 47.75 L-219.4 51.6 -223.4 55.6 Q-222.35 55.15 -217.05 76.0 -211.9 83.8 -202.8 86.85 -178.85 89.4 -168.15 72.25 -166.6 71.35 -146.8 40.0 L-136.3 21.35 -136.05 20.85 -136.05 20.75 -147.05 15.0 -151.8 11.85 Q-158.1 6.2 -156.15 4.1 -157.3 -2.6 -130.9 1.0 L-134.15 -2.5 Q-165.1 -22.05 -170.8 -34.5 L-171.65 -37.4 -171.3 -41.15 -169.4 -42.9 -168.8 -43.0 Q-165.75 -43.85 -161.4 -42.9 L-148.3 -39.25 -136.3 -34.65 -125.8 -29.65 -114.3 -23.25 -114.05 -23.25 -113.9 -23.25 -113.8 -23.75 -113.05 -29.9 Q-114.4 -45.35 -112.8 -47.5 -107.0 -55.3 -102.9 -47.5 L-102.8 -47.5 Q-101.65 -77.25 -97.55 -85.0 -94.15 -91.85 -88.8 -79.9 -83.25 -65.45 -81.9 -44.25 L-79.65 -44.5 -45.15 -43.5 -15.55 -43.5 Q-26.35 -60.5 -15.4 -55.5 L-12.9 -55.0 -11.65 -52.0 -3.65 -50.5 -1.4 -50.5 Q-0.6 -52.6 -1.55 -54.9 L-8.3 -69.4 -10.3 -72.65 -10.4 -74.15 -9.8 -75.15 Q-17.1 -74.3 -13.65 -79.9 L-13.05 -81.25 -13.9 -81.75 M3.2 -56.15 Q1.9 -61.15 2.35 -63.15 L3.7 -66.75 7.85 -71.5 20.85 -81.75 22.35 -83.75 21.1 -84.4 19.7 -84.5 12.7 -83.9 10.45 -83.4 Q4.95 -79.4 1.45 -77.9 L-2.3 -76.5 -9.8 -75.15 M4.9 -51.15 L1.2 -50.5 -1.4 -50.5 M4.9 -51.15 L3.2 -56.15 -1.55 -54.9 M14.6 -53.4 L14.95 -52.65 M33.4 -41.6 L34.85 -39.75 35.6 -39.4 37.7 -39.65 38.35 -39.25 38.1 -37.9 37.2 -36.75 26.85 -28.4 25.85 -27.15 M7.45 -43.25 L8.05 -41.5 8.85 -39.25 9.55 -38.05 9.6 -37.9 18.35 -36.4 19.85 -36.5 19.95 -36.5 20.7 -38.15 20.6 -39.25 20.05 -41.65 19.85 -42.5 M35.6 -39.4 L27.1 -37.0 19.85 -36.5 M6.7 -45.9 L6.7 -45.75 7.45 -43.4 7.45 -43.25 7.35 -43.4 3.95 -43.75 6.6 -45.75 6.7 -45.9 4.9 -51.15 M7.35 -43.4 L7.45 -43.4 M6.7 -45.75 L6.6 -45.75 M4.45 -43.4 L3.7 -43.15 2.6 -43.25 0.7 -43.15 -15.55 -43.5 M9.55 -38.05 L7.7 -38.4 4.1 -38.25 M8.05 -41.5 L-0.15 -42.9 Q-1.9 -42.45 -0.65 -39.25 L0.35 -36.75 3.85 -31.0 3.95 -31.0 4.1 -30.65 3.7 -30.65 3.85 -31.0 M22.7 -42.5 L20.05 -41.65 M126.95 -6.0 L126.35 -6.5 126.2 -6.75 124.95 -7.65 M157.2 -15.25 L141.6 -16.65 M-38.05 -90.4 L-37.9 -90.4 -37.8 -90.5 -26.15 -94.25 -26.2 -94.3 -28.8 -96.15 -37.65 -101.0 Q-40.6 -102.65 -40.8 -104.25 -39.85 -105.2 -36.15 -104.9 L1.1 -99.4 10.2 -98.65 M184.2 -2.65 L181.7 -4.9 178.35 -6.75 Q175.25 -9.05 150.45 -12.25 M-256.65 -2.85 L-257.65 -2.65 -253.65 -0.2 -255.4 -2.25 -255.0 -2.3 -255.35 -2.55 -255.7 -2.6 -255.75 -2.6 -256.65 -2.85 Q-255.95 -2.9 -255.35 -2.55 M-253.65 -0.2 L-253.55 -0.15 Q-254.15 -1.65 -255.0 -2.3 M-266.15 -5.0 L-262.55 -4.75 -257.65 -2.65 M-41.15 -99.9 L-43.9 -101.75 M-81.9 -44.25 L-89.65 -43.65 Q-95.95 -42.15 -98.45 -40.75 -99.9 -40.0 -100.15 -39.25 L-104.3 -35.9 -113.8 -23.75 M-114.05 -23.25 L-104.9 -17.15 -99.3 -12.5 -93.8 -6.75 -89.65 -1.4 -84.15 9.5 -78.9 25.75 -76.15 42.0 -75.9 58.25 -78.15 74.5 -80.05 82.6 -87.05 107.0 -92.9 121.1 M-102.8 -47.5 L-98.45 -40.75 M-26.2 -94.3 L-24.9 -94.75 M-11.65 -52.0 L-13.3 -52.4 -16.65 -52.15 M-42.55 -92.75 L-50.65 -93.65 M-130.05 2.6 L-130.05 2.0 -130.9 1.0 M-113.05 108.75 L-112.55 107.0 -112.3 101.25 -113.8 90.75 -117.8 74.5 -120.4 66.35 -129.55 45.5 -131.8 42.0 Q-132.65 40.55 -136.05 38.85 L-140.9 36.5 -142.05 35.1 -142.05 33.85 Q-142.75 28.25 -125.65 29.6 L-126.8 27.85 -133.55 22.1 -136.05 20.85 M-123.15 33.35 L-125.65 29.6 M-242.55 35.85 Q-233.15 40.85 -226.3 33.85 -224.8 32.6 -224.3 28.85 L-224.9 25.75 -226.9 22.0 -230.9 17.6 -236.15 13.0 -253.55 -0.15 M-233.4 17.6 L-243.3 9.5 -254.8 1.35 Q-266.05 -5.15 -267.8 1.35 L-269.4 5.1 Q-270.25 7.4 -269.8 9.5 -270.3 9.9 -268.3 13.6 L-265.7 16.1 -264.5 17.25 -264.15 17.6 -261.3 19.9 -257.8 22.5 -256.75 23.2 -256.65 23.25 -252.8 25.75 -252.35 26.05 -252.1 26.2 Q-239.6 34.25 -235.95 34.0 L-235.55 33.95 -235.3 33.85 -234.55 33.85 Q-227.25 32.4 -227.65 25.75 L-229.05 22.35 -233.4 17.6 M-236.15 13.0 L-233.3 11.75 M-249.15 48.25 L-247.3 46.5 -244.4 42.0 -242.55 36.75 -242.55 35.85 -250.55 31.6 -258.8 26.35 -258.9 26.35 Q-256.4 33.35 -264.9 32.35 L-276.15 48.1 -273.55 49.25 -262.9 51.5 Q-256.25 52.15 -252.3 50.1 L-249.15 48.25 -251.4 52.25 -257.3 56.75 -257.65 57.5 -256.9 58.25 -256.15 58.6 -254.8 58.25 -247.4 55.35 -244.9 54.0 -213.15 25.75 -196.05 11.1 M-223.4 55.6 L-224.05 56.1 Q-223.8 54.95 -232.55 54.35 L-241.05 54.5 -244.9 54.0 M-261.3 19.9 L-261.8 19.85 M-256.75 23.2 L-257.15 23.0 -257.55 22.75 -257.8 22.5 M-274.4 10.75 L-274.4 6.35 -273.4 2.5 M-286.05 13.1 L-285.9 13.1 -280.15 11.1 -274.4 10.75 -273.55 12.85 -272.05 15.35 -264.65 22.25 -261.55 23.85 -260.15 25.35 -259.05 26.1 -258.8 26.35 M-273.55 12.85 L-279.65 15.6 -284.8 19.85 Q-288.8 24.9 -288.3 25.75 L-289.55 29.1 Q-290.0 33.7 -289.6 33.85 -290.1 33.95 -287.65 39.1 L-284.15 43.6 -280.3 45.85 -266.05 23.5 -264.65 22.25 M-264.5 17.25 L-265.3 17.0 M-265.7 16.1 L-265.55 16.6 M-260.15 25.35 L-260.3 25.75 -264.9 32.35 M-258.9 26.35 L-259.05 26.1 M-285.9 13.1 L-286.05 13.25 M-276.15 48.1 L-277.8 50.1 -287.65 64.25 -288.4 66.35 -289.05 69.6 -289.3 74.5 -288.9 78.35 -287.55 82.6 -283.3 90.75 Q-280.8 94.15 -287.3 95.35 L-288.65 94.0 -291.55 87.5 -293.55 79.0 -293.05 70.75 -292.05 66.35 -291.05 63.5 -280.3 45.85 M126.85 5.35 L126.85 5.85 126.85 6.0 M126.85 5.85 L126.7 6.0 M-258.3 -6.0 L-234.55 10.6" fill="none" stroke="#000000" stroke-linecap="round" stroke-linejoin="round" stroke-width="2.15"/>
  </g>
</svg>
