<?xml version="1.0" encoding="UTF-8" standalone="no"?>
<svg xmlns:xlink="http://www.w3.org/1999/xlink" height="304.8px" width="312.0px" xmlns="http://www.w3.org/2000/svg">
  <g transform="matrix(1.0, 0.0, 0.0, 1.0, 180.15, 94.75)">
    <path d="M40.6 -89.65 L46.6 -89.15 53.1 -86.9 40.6 -89.65 53.1 -86.9 Q86.5 -76.45 85.7 -73.25 85.55 -70.1 49.95 -76.65 L49.6 -76.5 49.1 -71.65 49.35 -65.5 Q50.75 -56.1 51.45 -41.9 L53.7 -26.15 53.7 -23.0 53.35 -21.4 52.9 -21.1 52.7 -21.0 45.6 -20.65 43.5 -21.1 43.35 -21.1 43.2 -21.15 42.45 -23.0 42.2 -27.75 41.95 -44.65 Q38.75 -70.7 39.85 -75.0 L39.85 -75.75 40.1 -77.5 39.95 -77.65 39.7 -78.05 39.45 -78.4 37.7 -79.15 37.6 -79.15 37.45 -79.25 Q1.65 -89.3 2.6 -92.75 3.95 -94.15 11.35 -93.5 L40.6 -89.65 M-50.65 -31.9 L-54.3 -48.9 Q-55.0 -50.2 -54.4 -67.25 L-54.8 -71.75 -55.9 -74.75 -59.15 -74.5 Q-86.15 -66.0 -105.15 -62.5 L-107.8 -62.15 -112.8 -62.5 -112.55 -63.65 Q-110.8 -65.25 -107.05 -66.9 L-78.8 -79.15 -67.05 -84.25 -66.9 -84.4 -66.8 -84.4 -66.65 -84.5 -66.4 -84.5 -66.3 -84.65 -66.05 -84.65 -65.9 -84.75 -61.9 -86.65 -58.15 -87.25 -46.4 -91.0 Q-41.55 -91.05 -43.65 -88.0 L-45.4 -84.75 -48.4 -81.9 -46.55 -79.0 -45.15 -75.15 -44.65 -70.25 -45.05 -51.5 -44.4 -47.25 -38.4 -29.75 -38.05 -25.9 -38.55 -25.15 -42.05 -24.65 -47.4 -24.5 -48.25 -24.8 -48.55 -24.9 -49.4 -26.25 -50.55 -31.15 -50.65 -31.9 M39.85 -75.75 L39.95 -75.75 39.85 -75.0 39.95 -75.75 39.85 -75.75 M49.95 -76.65 L37.7 -79.15 37.6 -79.25 37.6 -79.15 37.6 -79.25 37.45 -79.25 37.6 -79.25 37.7 -79.15 49.95 -76.65 M40.1 -77.5 L40.1 -77.65 39.95 -77.65 40.1 -77.65 40.3 -77.5 39.7 -78.05 40.3 -77.5 40.1 -77.65 40.1 -77.5 M47.2 -76.15 L49.6 -76.5 47.2 -76.15 M49.85 -77.25 L45.45 -78.15 45.1 -78.15 41.35 -79.15 40.95 -79.15 39.35 -79.5 40.95 -79.15 41.35 -79.15 45.1 -78.15 45.45 -78.15 49.85 -77.25 M-65.9 -84.75 L-58.15 -87.25 -65.9 -84.75 M-66.8 -84.4 L-66.65 -84.4 -66.65 -84.5 -66.65 -84.4 -66.8 -84.4 M-78.8 -79.15 L-77.75 -78.95 -77.55 -79.15 -77.05 -79.25 -77.55 -79.15 -77.75 -78.95 -78.8 -79.15 M-52.1 -79.55 L-48.4 -81.9 -52.1 -79.55 -52.4 -78.75 -52.1 -79.55 -55.05 -77.75 -52.1 -79.55 M-85.4 -70.9 L-86.8 -71.75 -87.3 -72.5 -87.05 -73.9 -84.9 -75.5 -87.05 -73.9 -87.3 -72.5 -86.8 -71.75 -85.4 -70.9 M-84.55 -75.9 Q-83.2 -76.5 -81.9 -77.15 L-81.8 -77.4 -79.65 -78.15 -81.8 -77.4 -81.9 -77.15 Q-83.2 -76.5 -84.55 -75.9 M-74.8 73.85 L-74.65 73.6 -74.3 73.25 -68.3 66.35 -57.3 50.1 -49.65 37.0 -47.05 33.85 -46.3 33.85 -45.4 36.0 -44.05 58.25 -42.55 66.35 -40.3 74.5 -39.9 75.5 -54.15 72.35 -61.8 71.25 -67.65 71.35 Q-71.25 72.8 -70.55 74.5 L-70.55 74.75 -74.8 73.85 M-68.9 78.35 L-68.55 79.25 -61.65 86.6 -57.55 90.0 -59.8 90.75 Q-59.9 90.05 -67.05 94.6 L-70.65 98.1 Q-77.15 94.6 -89.15 95.1 L-89.8 94.1 -83.65 92.25 -81.65 90.75 Q-79.55 90.35 -78.4 86.5 L-78.65 82.6 -79.9 78.85 -77.15 76.1 -73.4 76.75 -68.9 78.35 M-74.3 73.25 L-74.55 73.6 -74.65 73.6 -74.55 73.6 -74.3 73.25 M-23.9 128.85 L-21.65 133.35 -21.8 136.6 -26.55 131.6 -26.4 131.35 -23.9 128.85" fill="#fa410f" fill-rule="evenodd" stroke="none"/>
    <path d="M53.7 -26.15 Q56.6 -25.9 63.45 -27.15 L66.85 -27.15 Q68.0 -25.75 66.45 -23.4 L61.45 -16.4 Q77.5 -17.9 75.85 -4.4 L82.45 0.25 Q97.4 4.65 102.1 6.85 L107.95 9.6 111.95 12.0 Q124.1 18.95 127.7 31.0 132.25 45.15 130.1 65.1 128.75 82.8 116.7 109.25 105.2 129.55 92.7 142.6 89.15 147.65 69.85 157.0 L69.75 157.15 61.35 165.75 Q46.9 178.3 44.7 178.6 27.5 189.25 10.1 193.35 -13.65 199.85 -41.4 198.85 L-52.05 204.0 Q-63.3 208.25 -73.55 209.0 L-87.3 209.0 Q-97.1 208.4 -111.15 201.6 L-123.05 193.5 Q-134.8 183.3 -141.55 170.85 -154.0 143.45 -144.15 132.6 L-146.05 130.75 -152.8 121.5 -154.65 88.35 -154.55 88.35 -150.9 90.75 -144.65 93.85 -137.4 95.5 -139.8 98.85 -141.9 104.85 -142.05 113.35 -140.3 119.1 -137.65 123.0 -133.9 120.85 -127.65 116.0 -126.05 115.1 -111.9 105.1 -103.55 99.5 -102.3 98.85 -95.55 96.25 -89.15 95.1 Q-77.15 94.6 -70.65 98.1 L-69.8 98.85 -68.9 99.85 Q-68.6 101.55 -65.05 107.0 L-61.8 112.0 -56.05 117.75 -48.65 123.25 Q-44.9 126.2 -39.15 128.75 L-28.55 132.0 -26.55 131.6 -21.8 136.6 -21.65 133.35 -23.9 128.85 -22.15 126.25 -19.15 120.1 -18.15 113.85 -19.55 107.0 -21.55 102.85 -9.4 104.85 -5.05 105.1 -19.3 139.35 -19.3 139.5 -25.55 155.75 -29.9 172.0 -31.05 180.1 -31.3 185.6 -31.05 187.25 -30.05 188.25 -28.3 189.0 -25.9 188.85 -24.9 188.25 -23.65 186.25 -23.65 184.75 -15.15 174.35 -10.55 163.85 -10.05 160.1 -11.3 151.0 -13.9 146.1 -15.9 143.75 -13.9 146.1 -11.3 151.0 -10.05 160.1 -10.55 163.85 -15.15 174.35 -23.65 184.75 -23.8 172.0 -21.05 155.75 -15.9 143.75 3.1 104.35 Q4.7 104.4 6.35 101.75 L6.45 98.85 6.1 98.0 6.35 96.0 5.6 95.35 3.85 91.85 2.7 90.75 Q0.9 88.6 -4.15 86.0 L-13.15 82.6 -26.9 78.6 -39.9 75.5 -40.3 74.5 -42.55 66.35 -44.05 58.25 -45.4 36.0 -46.3 33.85 -47.05 33.85 -49.65 37.0 -57.3 50.1 -68.3 66.35 -74.3 73.25 -74.65 73.6 -74.8 73.85 -78.05 73.6 -83.3 74.0 Q-88.6 67.8 -108.65 68.85 L-135.8 71.25 -134.65 58.25 -133.15 50.1 -129.65 36.85 -129.3 34.7 -129.3 34.75 -129.25 34.75 Q-124.35 24.85 -105.55 10.0 -90.65 -1.95 -54.4 -13.65 L-53.15 -14.05 -52.9 -14.15 -52.9 -15.15 -53.4 -15.9 -59.65 -22.5 Q-61.55 -24.95 -61.4 -26.65 L-60.3 -27.15 -58.1 -26.85 -58.05 -26.85 -57.4 -26.75 -56.65 -27.0 -54.05 -31.15 -52.4 -32.0 -50.65 -31.9 -50.55 -31.15 -49.4 -26.25 -48.55 -24.9 -48.25 -24.8 -47.4 -24.5 -42.05 -24.65 -38.55 -25.15 -37.95 -25.25 -38.05 -25.9 -38.4 -29.75 Q-35.55 -29.4 -26.15 -31.0 L-23.9 -30.65 Q-22.3 -28.25 -32.1 -19.9 L-32.15 -19.9 -32.1 -19.9 -30.9 -19.75 -30.3 -19.9 -25.05 -20.5 -24.15 -20.5 -23.9 -20.65 -23.15 -20.65 -22.8 -20.75 -23.0 -21.6 Q5.0 -27.35 34.2 -23.4 L34.35 -23.4 Q35.65 -30.7 42.2 -27.75 L42.45 -23.0 43.2 -21.15 43.35 -21.1 37.85 -21.9 33.9 -23.05 34.2 -23.4 33.9 -23.05 37.85 -21.9 43.35 -21.1 43.5 -21.1 45.6 -20.65 52.7 -21.0 52.9 -21.1 53.35 -21.4 53.7 -23.0 53.7 -26.15 M-159.8 109.5 Q-185.05 67.95 -177.3 16.5 -173.05 -2.75 -150.8 -30.5 L-141.65 -40.4 Q-138.85 -43.15 -135.3 -44.4 -131.35 -44.45 -131.15 -39.25 -129.05 -30.9 -145.85 2.95 L-145.9 3.0 -145.8 3.0 Q-129.15 -9.7 -128.55 1.35 L-129.15 5.1 -131.3 10.25 Q-145.0 30.65 -142.9 32.35 -131.55 23.9 -129.3 34.7 L-129.25 34.75 -129.3 34.75 -129.3 34.7 -129.65 36.85 -133.15 50.1 -134.65 58.25 -135.8 71.25 Q-147.3 72.65 -154.4 74.5 -165.15 78.9 -160.4 82.6 L-160.0 83.45 -162.15 84.5 -161.9 90.75 -159.9 107.0 -159.8 109.5 M37.2 -14.25 L36.95 -14.9 31.95 -19.75 30.7 -21.5 30.6 -23.0 32.85 -23.25 33.85 -23.0 33.9 -23.05 33.85 -23.0 32.85 -23.25 30.6 -23.0 30.7 -21.5 31.95 -19.75 36.95 -14.9 37.2 -14.25 M59.95 -14.15 L60.0 -14.2 59.95 -14.15 75.85 -4.4 59.95 -14.15 57.45 -11.75 56.85 -10.4 57.45 -11.75 59.95 -14.15 M60.0 -14.2 L60.2 -14.9 61.45 -16.4 60.2 -14.9 60.0 -14.2 M63.35 -21.65 L62.1 -22.15 60.35 -22.15 52.9 -21.1 60.35 -22.15 62.1 -22.15 63.35 -21.65 M85.65 31.6 L85.7 31.5 85.65 31.6 86.35 31.75 85.65 31.6 84.6 33.1 82.95 33.85 81.95 34.5 79.1 35.25 66.2 37.25 62.1 38.25 58.35 39.85 55.7 42.0 Q52.1 46.4 57.45 50.1 54.95 51.3 84.95 57.75 54.95 51.3 57.45 50.1 52.1 46.4 55.7 42.0 L58.35 39.85 62.1 38.25 66.2 37.25 79.1 35.25 81.95 34.5 82.95 33.85 84.6 33.1 85.65 31.6 M85.4 57.95 L85.45 57.85 85.4 57.85 84.95 57.75 85.4 57.95 86.45 58.25 88.45 59.25 86.45 58.25 85.4 57.95 83.85 60.35 82.45 61.6 72.7 63.85 66.95 66.35 Q58.45 72.55 66.95 74.5 72.0 74.65 76.35 82.6 L77.95 86.1 79.6 92.35 79.45 98.85 78.6 107.0 74.7 127.5 72.1 131.35 74.7 127.5 78.6 107.0 79.45 98.85 79.6 92.35 77.95 86.1 76.35 82.6 Q72.0 74.65 66.95 74.5 58.45 72.55 66.95 66.35 L72.7 63.85 82.45 61.6 83.85 60.35 85.4 57.95 M85.7 31.5 L77.35 28.85 69.6 25.75 63.7 22.85 Q58.4 19.7 56.35 17.6 L52.45 14.35 Q48.5 10.3 48.85 9.5 46.15 6.3 47.7 1.35 51.6 -7.1 82.45 0.25 51.6 -7.1 47.7 1.35 46.15 6.3 48.85 9.5 48.5 10.3 52.45 14.35 L56.35 17.6 Q58.4 19.7 63.7 22.85 L69.6 25.75 77.35 28.85 85.7 31.5 M-41.4 198.85 L-30.8 191.5 -28.3 189.0 -30.8 191.5 -41.4 198.85 M63.85 160.75 L67.6 158.1 69.75 157.15 67.6 158.1 63.85 160.75 M-48.25 -24.8 L-51.3 -25.0 -58.05 -26.85 -51.3 -25.0 -48.25 -24.8 M-29.65 -25.65 L-33.05 -26.0 -37.95 -25.25 -33.05 -26.0 -29.65 -25.65 M-22.3 -20.75 L-22.8 -20.75 -22.3 -20.75 M-32.65 -19.4 L-32.1 -19.9 -32.65 -19.4 M-77.15 76.1 L-79.9 78.85 -81.15 76.6 -77.15 76.1 M-148.4 35.35 L-142.9 32.35 -148.4 35.35 M-145.85 3.05 L-145.9 3.0 -145.85 3.05 -145.8 3.1 -145.8 3.0 -145.8 3.1 -145.85 3.05 -148.3 4.75 -152.4 6.75 -148.3 4.75 -145.85 3.05 M-144.15 132.6 L-141.3 127.5 -137.9 123.25 -137.65 123.0 -137.9 123.25 -141.3 127.5 -144.15 132.6 M-19.3 139.35 L-21.8 136.6 -19.3 139.35" fill="#ffffff" fill-rule="evenodd" stroke="none"/>
    <path d="M-152.8 121.5 Q-151.85 157.85 -141.65 174.25 L-141.65 176.0 -142.9 177.75 -145.65 178.5 -146.8 178.35 -148.4 177.25 -150.55 172.1 -153.3 161.6 -154.4 154.75 Q-156.5 132.6 -159.8 109.5 L-159.9 107.0 -161.9 90.75 -162.15 84.5 -160.0 83.45 -159.8 83.35 -160.4 82.6 Q-165.15 78.9 -154.4 74.5 -147.3 72.65 -135.8 71.25 L-108.65 68.85 Q-88.6 67.8 -83.3 74.0 L-78.05 73.6 -74.8 73.85 -70.55 74.75 -70.55 74.5 Q-71.25 72.8 -67.65 71.35 L-61.8 71.25 -54.15 72.35 -39.9 75.5 -26.9 78.6 -13.15 82.6 -4.15 86.0 Q0.9 88.6 2.7 90.75 L3.85 91.85 5.6 95.35 6.35 96.0 6.1 98.0 6.45 98.85 6.35 101.75 Q4.7 104.4 3.1 104.35 L-15.9 143.75 -21.05 155.75 -23.8 172.0 -23.65 184.75 -23.65 186.25 -24.9 188.25 -25.9 188.85 -28.3 189.0 -30.05 188.25 -31.05 187.25 -31.3 185.6 -31.05 180.1 -29.9 172.0 -25.55 155.75 -19.3 139.5 -19.3 139.35 -5.05 105.1 -9.4 104.85 -21.55 102.85 -22.9 100.0 -27.8 94.85 Q-35.05 90.15 -35.3 90.75 -46.65 86.35 -57.55 90.0 L-61.65 86.6 -68.55 79.25 -68.9 78.35 -68.15 78.35 -68.3 78.0 -70.4 75.75 -70.55 74.75 -70.4 75.75 -68.3 78.0 -68.15 78.35 -68.9 78.35 -73.4 76.75 -77.15 76.1 -81.15 76.6 -79.9 78.85 -78.65 82.6 -78.4 86.5 Q-79.55 90.35 -81.65 90.75 L-83.65 92.25 -89.8 94.1 -93.4 90.75 Q-114.85 77.2 -132.55 90.75 L-135.8 93.35 -137.4 95.5 -144.65 93.85 -150.9 90.75 -154.55 88.35 -154.65 88.25 -155.3 84.6 Q-157.05 83.2 -159.8 83.35 -157.05 83.2 -155.3 84.6 L-154.65 88.25 -154.55 88.35 -154.65 88.35 -152.8 121.5 M6.1 98.0 L5.6 98.85 3.1 104.35 5.6 98.85 6.1 98.0 M5.6 95.35 Q-1.35 91.85 -2.55 98.85 L-5.05 105.1 -2.55 98.85 Q-1.35 91.85 5.6 95.35 M-83.3 74.0 L-84.55 74.0 -85.3 74.5 Q-85.85 77.9 -81.15 76.6 -85.85 77.9 -85.3 74.5 L-84.55 74.0 -83.3 74.0 M-154.65 88.25 L-154.65 88.35 -154.65 88.25" fill="#43396f" fill-rule="evenodd" stroke="none"/>
    <path d="M-57.55 90.0 Q-46.65 86.35 -35.3 90.75 -35.05 90.15 -27.8 94.85 L-22.9 100.0 -21.55 102.85 -19.55 107.0 -18.15 113.85 -19.15 120.1 -22.15 126.25 -23.9 128.85 -26.4 131.35 -26.55 131.6 -28.55 132.0 -39.15 128.75 Q-44.9 126.2 -48.65 123.25 L-56.05 117.75 -61.8 112.0 -65.05 107.0 Q-68.6 101.55 -68.9 99.85 L-69.8 98.85 -70.65 98.1 -67.05 94.6 Q-59.9 90.05 -59.8 90.75 L-57.55 90.0 M-89.8 94.1 L-89.15 95.1 -95.55 96.25 -102.3 98.85 -103.55 99.5 -103.9 98.85 Q-106.6 94.6 -113.55 98.85 -115.85 101.45 -111.9 105.1 L-126.05 115.1 -127.65 116.0 -133.9 120.85 -137.65 123.0 -140.3 119.1 -142.05 113.35 -141.9 104.85 -139.8 98.85 -137.4 95.5 -135.8 93.35 -132.55 90.75 Q-114.85 77.2 -93.4 90.75 L-89.8 94.1 M-47.05 100.85 Q-53.75 100.05 -53.65 107.0 -48.65 114.0 -42.65 107.0 -41.25 102.55 -47.05 100.85" fill="#ff7a16" fill-rule="evenodd" stroke="none"/>
    <path d="M-111.9 105.1 Q-115.85 101.45 -113.55 98.85 -106.6 94.6 -103.9 98.85 L-103.55 99.5 -111.9 105.1 M-47.05 100.85 Q-41.25 102.55 -42.65 107.0 -48.65 114.0 -53.65 107.0 -53.75 100.05 -47.05 100.85" fill="#000000" fill-rule="evenodd" stroke="none"/>
    <path d="M53.1 -86.9 L46.6 -89.15 40.6 -89.65 53.1 -86.9 Q86.5 -76.45 85.7 -73.25 85.55 -70.1 49.95 -76.65 L49.6 -76.5 49.1 -71.65 49.35 -65.5 Q50.75 -56.1 51.45 -41.9 L53.7 -26.15 Q56.6 -25.9 63.45 -27.15 L66.85 -27.15 Q68.0 -25.75 66.45 -23.4 L61.45 -16.4 Q77.5 -17.9 75.85 -4.4 L82.45 0.25 Q97.4 4.65 102.1 6.85 L107.95 9.6 111.95 12.0 Q124.1 18.95 127.7 31.0 132.25 45.15 130.1 65.1 128.75 82.8 116.7 109.25 105.2 129.55 92.7 142.6 89.15 147.65 69.85 157.0 L69.75 157.15 61.35 165.75 Q46.9 178.3 44.7 178.6 27.5 189.25 10.1 193.35 -13.65 199.85 -41.4 198.85 L-52.05 204.0 Q-63.3 208.25 -73.55 209.0 L-87.3 209.0 Q-97.1 208.4 -111.15 201.6 L-123.05 193.5 Q-134.8 183.3 -141.55 170.85 -154.0 143.45 -144.15 132.6 L-146.05 130.75 -152.8 121.5 Q-151.85 157.85 -141.65 174.25 L-141.65 176.0 -142.9 177.75 -145.65 178.5 -146.8 178.35 -148.4 177.25 -150.55 172.1 -153.3 161.6 -154.4 154.75 Q-156.5 132.6 -159.8 109.5 -185.05 67.95 -177.3 16.5 -173.05 -2.75 -150.8 -30.5 L-141.65 -40.4 Q-138.85 -43.15 -135.3 -44.4 -131.35 -44.45 -131.15 -39.25 -129.05 -30.9 -145.85 2.95 L-145.9 3.0 -145.8 3.0 Q-129.15 -9.7 -128.55 1.35 L-129.15 5.1 -131.3 10.25 Q-145.0 30.65 -142.9 32.35 -131.55 23.9 -129.3 34.7 L-129.65 36.85 -133.15 50.1 -134.65 58.25 -135.8 71.25 Q-147.3 72.65 -154.4 74.5 -165.15 78.9 -160.4 82.6 L-159.8 83.35 Q-157.05 83.2 -155.3 84.6 L-154.65 88.25 -154.55 88.35 -150.9 90.75 -144.65 93.85 -137.4 95.5 -135.8 93.35 -132.55 90.75 Q-114.85 77.2 -93.4 90.75 L-89.8 94.1 -89.15 95.1 Q-77.15 94.6 -70.65 98.1 L-67.05 94.6 Q-59.9 90.05 -59.8 90.75 L-57.55 90.0 Q-46.65 86.35 -35.3 90.75 -35.05 90.15 -27.8 94.85 L-22.9 100.0 -21.55 102.85 -9.4 104.85 -5.05 105.1 -2.55 98.85 Q-1.35 91.85 5.6 95.35 L6.35 96.0 6.1 98.0 6.45 98.85 6.35 101.75 Q4.7 104.4 3.1 104.35 L-15.9 143.75 -13.9 146.1 -11.3 151.0 -10.05 160.1 -10.55 163.85 -15.15 174.35 -23.65 184.75 -23.65 186.25 -24.9 188.25 -25.9 188.85 -28.3 189.0 -30.8 191.5 -41.4 198.85 M-129.25 34.75 Q-124.35 24.85 -105.55 10.0 -90.65 -1.95 -54.4 -13.65 L-53.15 -14.05 -52.9 -14.15 -52.9 -15.15 -53.4 -15.9 -59.65 -22.5 Q-61.55 -24.95 -61.4 -26.65 L-60.3 -27.15 -58.1 -26.85 -58.05 -26.85 -57.4 -26.75 -56.65 -27.0 -54.05 -31.15 -52.4 -32.0 -50.65 -31.9 -54.3 -48.9 Q-55.0 -50.2 -54.4 -67.25 L-54.8 -71.75 -55.9 -74.75 -59.15 -74.5 Q-86.15 -66.0 -105.15 -62.5 L-107.8 -62.15 -112.8 -62.5 -112.55 -63.65 Q-110.8 -65.25 -107.05 -66.9 L-78.8 -79.15 -67.05 -84.25 -66.9 -84.4 -66.8 -84.4 -66.65 -84.5 -66.4 -84.5 -66.3 -84.65 -66.05 -84.65 -65.9 -84.75 -61.9 -86.65 -58.15 -87.25 -46.4 -91.0 Q-41.55 -91.05 -43.65 -88.0 L-45.4 -84.75 -48.4 -81.9 -46.55 -79.0 -45.15 -75.15 -44.65 -70.25 -45.05 -51.5 -44.4 -47.25 -38.4 -29.75 Q-35.55 -29.4 -26.15 -31.0 L-23.9 -30.65 Q-22.3 -28.25 -32.1 -19.9 L-32.15 -19.9 -32.1 -19.9 -30.9 -19.75 -30.3 -19.9 -25.15 -21.1 -23.0 -21.6 Q5.0 -27.35 34.2 -23.4 L34.35 -23.4 Q35.65 -30.7 42.2 -27.75 L41.95 -44.65 Q38.75 -70.7 39.85 -75.0 L39.85 -75.75 40.1 -77.5 39.95 -77.65 39.7 -78.05 39.45 -78.4 37.7 -79.15 37.6 -79.15 37.45 -79.25 Q1.65 -89.3 2.6 -92.75 3.95 -94.15 11.35 -93.5 L40.6 -89.65 M39.35 -79.5 L40.95 -79.15 41.35 -79.15 45.1 -78.15 45.45 -78.15 49.85 -77.25 M49.6 -76.5 L47.2 -76.15 M39.95 -77.65 L40.1 -77.65 40.3 -77.5 39.7 -78.05 M40.1 -77.65 L40.1 -77.5 M37.6 -79.15 L37.6 -79.25 37.45 -79.25 M37.6 -79.25 L37.7 -79.15 49.95 -76.65 M39.85 -75.0 L39.95 -75.75 39.85 -75.75 M34.2 -23.4 L33.9 -23.05 37.85 -21.9 43.35 -21.1 43.2 -21.15 42.45 -23.0 42.2 -27.75 M33.9 -23.05 L33.85 -23.0 32.85 -23.25 30.6 -23.0 30.7 -21.5 31.95 -19.75 36.95 -14.9 37.2 -14.25 M52.9 -21.1 L52.7 -21.0 45.6 -20.65 43.5 -21.1 43.35 -21.1 M59.95 -14.15 L60.0 -14.2 59.95 -14.15 75.85 -4.4 M53.7 -26.15 L53.7 -23.0 53.35 -21.4 52.9 -21.1 60.35 -22.15 62.1 -22.15 63.35 -21.65 M61.45 -16.4 L60.2 -14.9 60.0 -14.2 M59.95 -14.15 L57.45 -11.75 56.85 -10.4 M85.65 31.6 L85.7 31.5 M85.65 31.6 L86.35 31.75 M85.65 31.6 L84.6 33.1 82.95 33.85 81.95 34.5 79.1 35.25 66.2 37.25 62.1 38.25 58.35 39.85 55.7 42.0 Q52.1 46.4 57.45 50.1 54.95 51.3 84.95 57.75 L85.4 57.85 85.45 57.85 85.4 57.95 86.45 58.25 88.45 59.25 M85.4 57.95 L83.85 60.35 82.45 61.6 72.7 63.85 66.95 66.35 Q58.45 72.55 66.95 74.5 72.0 74.65 76.35 82.6 L77.95 86.1 79.6 92.35 79.45 98.85 78.6 107.0 74.7 127.5 72.1 131.35 M82.45 0.25 Q51.6 -7.1 47.7 1.35 46.15 6.3 48.85 9.5 48.5 10.3 52.45 14.35 L56.35 17.6 Q58.4 19.7 63.7 22.85 L69.6 25.75 77.35 28.85 85.7 31.5 M-39.9 75.5 L-26.9 78.6 -13.15 82.6 -4.15 86.0 Q0.9 88.6 2.7 90.75 L3.85 91.85 5.6 95.35 M3.1 104.35 L5.6 98.85 6.1 98.0 M69.75 157.15 L67.6 158.1 63.85 160.75 M-79.65 -78.15 L-81.8 -77.4 -81.9 -77.15 Q-83.2 -76.5 -84.55 -75.9 M-84.9 -75.5 L-87.05 -73.9 -87.3 -72.5 -86.8 -71.75 -85.4 -70.9 M-52.4 -78.75 L-52.1 -79.55 -55.05 -77.75 M-48.4 -81.9 L-52.1 -79.55 M-77.05 -79.25 L-77.55 -79.15 -77.75 -78.95 -78.8 -79.15 M-66.65 -84.5 L-66.65 -84.4 -66.8 -84.4 M-58.15 -87.25 L-65.9 -84.75 M-58.05 -26.85 L-51.3 -25.0 -48.25 -24.8 -48.55 -24.9 -49.4 -26.25 -50.55 -31.15 -50.65 -31.9 M-48.25 -24.8 L-47.4 -24.5 -42.05 -24.65 -38.55 -25.15 -38.05 -25.9 -38.4 -29.75 M-37.95 -25.25 L-33.05 -26.0 -29.65 -25.65 M-37.95 -25.25 L-38.55 -25.15 M-22.8 -20.75 L-22.3 -20.75 M-30.3 -19.9 L-25.05 -20.5 -24.15 -20.5 M-23.9 -20.65 L-23.15 -20.65 M-32.1 -19.9 L-32.65 -19.4 M-74.8 73.85 L-74.65 73.6 -74.3 73.25 -68.3 66.35 -57.3 50.1 -49.65 37.0 -47.05 33.85 -46.3 33.85 -45.4 36.0 -44.05 58.25 -42.55 66.35 -40.3 74.5 -39.9 75.5 -54.15 72.35 -61.8 71.25 -67.65 71.35 Q-71.25 72.8 -70.55 74.5 L-70.55 74.75 -70.4 75.75 -68.3 78.0 -68.15 78.35 -68.9 78.35 -68.55 79.25 -61.65 86.6 -57.55 90.0 M-74.65 73.6 L-74.55 73.6 -74.3 73.25 M-135.8 71.25 L-108.65 68.85 Q-88.6 67.8 -83.3 74.0 L-78.05 73.6 -74.8 73.85 -70.55 74.75 M-79.9 78.85 L-78.65 82.6 -78.4 86.5 Q-79.55 90.35 -81.65 90.75 L-83.65 92.25 -89.8 94.1 M-77.15 76.1 L-79.9 78.85 -81.15 76.6 Q-85.85 77.9 -85.3 74.5 L-84.55 74.0 -83.3 74.0 M-68.9 78.35 L-73.4 76.75 -77.15 76.1 -81.15 76.6 M-26.55 131.6 L-28.55 132.0 -39.15 128.75 Q-44.9 126.2 -48.65 123.25 L-56.05 117.75 -61.8 112.0 -65.05 107.0 Q-68.6 101.55 -68.9 99.85 L-69.8 98.85 -70.65 98.1 M-145.8 3.0 L-145.8 3.1 -145.85 3.05 -148.3 4.75 -152.4 6.75 M-145.9 3.0 L-145.85 3.05 M-142.9 32.35 L-148.4 35.35 M-129.25 34.75 L-129.3 34.75 -129.3 34.7 M-160.0 83.45 L-159.8 83.35 M-154.65 88.35 L-154.65 88.25 M-154.65 88.35 L-154.55 88.35 M-137.65 123.0 L-140.3 119.1 -142.05 113.35 -141.9 104.85 -139.8 98.85 -137.4 95.5 M-103.55 99.5 L-103.9 98.85 Q-106.6 94.6 -113.55 98.85 -115.85 101.45 -111.9 105.1 L-103.55 99.5 -102.3 98.85 -95.55 96.25 -89.15 95.1 M-111.9 105.1 L-126.05 115.1 -127.65 116.0 -133.9 120.85 -137.65 123.0 -137.9 123.25 -141.3 127.5 -144.15 132.6 M-159.8 109.5 L-159.9 107.0 -161.9 90.75 -162.15 84.5 -160.0 83.45 M-21.55 102.85 L-19.55 107.0 -18.15 113.85 -19.15 120.1 -22.15 126.25 -23.9 128.85 -21.65 133.35 -21.8 136.6 -19.3 139.35 -5.05 105.1 M-26.55 131.6 L-21.8 136.6 M-23.9 128.85 L-26.4 131.35 -26.55 131.6 M-19.3 139.35 L-19.3 139.5 -25.55 155.75 -29.9 172.0 -31.05 180.1 -31.3 185.6 -31.05 187.25 -30.05 188.25 -28.3 189.0 M-47.05 100.85 Q-53.75 100.05 -53.65 107.0 -48.65 114.0 -42.65 107.0 -41.25 102.55 -47.05 100.85 M-23.65 184.75 L-23.8 172.0 -21.05 155.75 -15.9 143.75 M-152.8 121.5 L-154.65 88.35" fill="none" stroke="#000000" stroke-linecap="round" stroke-linejoin="round" stroke-width="2.15"/>
  </g>
</svg>
