<?xml version="1.0" encoding="UTF-8" standalone="no"?>
<svg xmlns:xlink="http://www.w3.org/1999/xlink" height="302.25px" width="325.25px" xmlns="http://www.w3.org/2000/svg">
  <g transform="matrix(1.0, 0.0, 0.0, 1.0, 149.8, 107.45)">
    <path d="M37.95 -43.4 L38.35 -53.9 38.1 -62.75 36.1 -69.15 Q30.85 -79.4 29.1 -85.15 28.2 -87.85 28.35 -90.75 L30.05 -97.0 30.1 -97.15 26.2 -100.75 Q24.75 -102.55 24.6 -104.25 22.75 -108.55 38.2 -104.25 L47.95 -102.5 50.5 -101.85 55.95 -100.6 53.95 -100.95 53.7 -101.0 51.7 -101.4 51.35 -101.4 50.85 -101.5 51.35 -101.4 51.7 -101.4 53.7 -101.0 53.95 -100.95 55.95 -100.6 58.35 -100.0 67.45 -97.9 67.9 -97.8 Q81.35 -94.75 87.85 -93.65 L92.2 -92.4 Q94.45 -91.65 95.2 -90.4 L94.2 -89.5 Q92.6 -88.75 86.45 -88.5 L73.1 -88.65 Q56.85 -89.65 49.6 -91.15 L40.45 -90.75 38.45 -90.25 38.4 -90.25 Q34.65 -92.25 46.2 -67.65 L46.95 -64.4 48.95 -45.15 49.1 -41.4 48.85 -39.65 48.45 -39.25 48.1 -38.65 46.1 -38.65 38.5 -39.6 38.35 -39.65 37.95 -43.4 M49.85 -101.65 L50.5 -101.85 49.85 -101.65 M-50.15 -40.0 Q-49.3 -51.1 -58.4 -78.4 -84.65 -67.2 -91.4 -69.25 L-91.3 -70.25 -87.8 -73.65 Q-58.55 -91.9 -59.8 -92.65 L-56.9 -93.5 -49.55 -94.75 -20.15 -103.9 Q-10.35 -104.75 -24.3 -96.15 L-32.9 -90.75 -49.9 -82.15 -47.05 -73.75 Q-44.35 -64.7 -39.4 -41.4 L-38.9 -39.25 -38.65 -35.9 -38.85 -35.25 -38.9 -35.15 -42.3 -34.9 -49.65 -35.65 -50.15 -40.0 M30.05 -97.0 L32.2 -96.15 32.9 -95.55 35.6 -94.65 32.9 -95.55 32.2 -96.15 30.05 -97.0 M68.35 -93.75 L69.6 -95.25 69.6 -96.15 68.85 -97.4 67.9 -97.8 68.85 -97.4 69.6 -96.15 69.6 -95.25 68.35 -93.75 M81.95 61.6 L81.1 66.35 Q80.75 71.8 86.2 74.5 L87.6 75.25 80.6 76.1 73.85 78.6 71.45 75.85 66.1 72.25 62.45 70.85 66.7 66.35 71.85 60.0 72.6 58.35 72.6 58.25 77.6 57.0 81.95 61.6 M44.95 54.75 L47.45 42.0 48.1 33.85 48.45 20.1 48.95 17.6 49.45 16.5 49.95 16.35 51.45 17.6 60.95 33.85 71.45 49.7 72.35 51.1 72.45 51.6 72.35 51.1 71.45 49.7 71.7 50.1 75.45 54.75 73.85 55.0 Q74.55 52.8 72.8 51.8 L72.55 51.65 72.45 51.6 Q67.2 49.2 45.1 54.75 L44.95 54.75 M32.35 113.5 L27.6 118.75 27.85 115.1 29.85 110.6 32.35 113.5 M-58.4 -78.4 L-49.9 -82.15 -58.4 -78.4" fill="#fa410f" fill-rule="evenodd" stroke="none"/>
    <path d="M48.95 -45.15 L52.85 -45.65 54.6 -44.65 Q56.5 -40.85 57.2 -40.75 L57.95 -40.85 61.2 -41.25 61.85 -40.75 Q62.15 -37.6 53.7 -28.65 L54.1 -27.15 Q86.4 -18.7 110.95 2.0 132.2 18.4 136.45 51.1 L111.6 48.6 Q100.2 47.85 92.85 50.1 L89.35 51.5 86.1 54.25 79.85 53.85 75.45 54.75 71.7 50.1 71.45 49.7 60.95 33.85 51.45 17.6 49.95 16.35 49.45 16.5 48.95 17.6 48.45 20.1 48.1 33.85 47.45 42.0 44.95 54.75 44.95 54.85 31.6 58.25 16.7 63.0 9.7 66.35 Q5.0 68.8 2.1 74.5 L1.85 75.5 1.7 75.6 1.1 76.25 1.2 78.1 0.6 80.6 0.85 82.6 0.85 83.25 2.45 85.5 4.95 86.6 22.1 123.25 22.7 125.1 20.1 128.85 17.6 134.6 16.85 139.5 16.7 144.5 17.2 147.6 21.6 158.25 28.95 168.1 30.2 169.1 30.7 170.5 32.95 171.85 Q35.6 172.55 37.2 170.0 L37.35 163.85 36.45 155.75 34.85 147.6 30.1 131.35 25.95 120.75 27.6 118.75 25.95 120.75 12.7 87.1 26.35 85.25 25.1 88.0 24.1 93.85 24.85 100.6 28.35 108.85 29.85 110.6 27.85 115.1 27.6 118.75 32.35 113.5 Q31.4 114.75 43.7 110.0 L53.2 104.1 59.35 98.85 64.45 93.85 68.85 87.75 72.45 80.35 73.85 78.6 80.6 76.1 87.6 75.25 91.95 75.35 97.85 76.5 105.7 79.6 113.85 85.25 137.95 104.0 139.95 101.25 141.85 95.1 141.7 85.85 140.1 80.5 138.35 77.75 144.45 75.85 146.85 74.5 Q148.7 74.0 151.1 72.0 L153.7 69.75 152.45 104.1 149.2 109.75 145.1 115.25 Q151.25 126.05 147.7 140.6 137.85 168.4 122.45 180.0 93.75 202.8 55.85 187.85 20.0 192.7 -12.05 182.6 L-21.15 179.1 -37.05 171.0 -44.9 166.0 Q-50.6 161.9 -58.55 154.6 L-68.3 148.85 -80.3 140.25 Q-119.9 105.7 -133.55 79.25 L-139.05 67.85 Q-142.75 59.55 -145.65 48.5 -150.8 31.7 -147.4 15.0 L-147.3 14.85 Q-143.65 -4.15 -119.55 -35.65 L-110.65 -45.15 Q-108.65 -47.5 -103.65 -50.9 -95.65 -55.15 -94.15 -47.4 L-93.9 -40.75 Q-94.5 -34.85 -96.8 -28.15 L-99.65 -20.5 -102.15 -15.25 -109.9 -1.25 Q-112.65 4.15 -112.4 5.35 L-106.8 2.5 Q-90.55 -9.1 -90.8 -7.9 L-87.55 -8.9 -84.3 -8.75 -82.8 -7.75 -82.55 -7.8 -82.15 -8.0 -72.8 -15.15 Q-74.6 -26.9 -56.15 -26.15 L-54.05 -27.4 -54.15 -27.65 -60.9 -36.9 -62.05 -39.65 -61.9 -40.25 -61.3 -41.15 -58.65 -41.15 -50.15 -40.0 -49.65 -35.65 -42.3 -34.9 -38.9 -35.15 -38.85 -35.25 -38.65 -35.9 -38.9 -39.25 -39.4 -41.4 -35.9 -42.15 -33.05 -42.15 -31.65 -41.0 -30.05 -37.15 -28.15 -37.65 -26.55 -37.5 -26.4 -36.15 -25.9 -36.15 Q2.35 -39.4 33.6 -33.15 19.75 -46.45 28.7 -44.5 L35.85 -43.4 37.95 -43.4 38.35 -39.65 38.5 -39.6 46.1 -38.65 48.1 -38.65 48.45 -39.25 48.85 -39.65 49.1 -41.4 48.95 -45.15 M137.45 51.25 L137.1 47.1 137.1 46.75 136.6 43.0 137.1 41.0 Q137.35 39.1 142.1 34.75 L144.1 28.85 143.9 26.0 143.85 25.85 Q135.85 23.1 136.35 17.85 137.0 10.25 145.45 7.6 L145.6 7.5 146.35 6.1 147.45 2.0 147.05 -0.95 146.95 -1.4 Q144.65 -1.8 139.6 -12.15 L138.35 -18.25 138.2 -23.4 Q140.65 -34.0 148.85 -31.15 173.5 -20.45 173.95 0.0 175.6 13.3 171.2 43.85 168.2 68.1 159.2 88.85 L161.1 66.35 160.45 64.75 158.7 64.1 Q160.15 63.25 160.35 59.85 L159.45 58.25 Q157.45 53.7 137.45 51.25 M147.85 27.35 L143.9 26.0 147.85 27.35 M142.2 35.0 L144.35 34.0 142.2 35.0 M137.1 47.1 L137.2 47.25 137.35 47.25 137.1 46.75 137.35 47.25 137.2 47.25 137.1 47.1 M146.35 7.25 L145.6 7.5 146.35 7.25 M147.05 -0.95 L147.6 -0.65 147.05 -0.95 M80.1 -16.25 L80.6 -16.15 80.1 -16.25 M48.1 -38.65 L52.35 -39.25 57.95 -40.85 52.35 -39.25 48.1 -38.65 M33.85 -33.25 L34.1 -33.0 33.85 -33.25 M22.45 -34.25 L27.2 -33.75 22.45 -34.25 M21.6 -34.4 L22.2 -34.4 21.6 -34.4 M31.2 -39.5 L33.2 -40.15 35.2 -40.15 38.35 -39.65 35.2 -40.15 33.2 -40.15 31.2 -39.5 M84.1 57.1 L83.35 58.25 81.95 61.6 77.6 57.0 81.95 56.35 84.1 57.1 M55.85 187.85 L48.2 184.1 38.6 177.35 32.95 171.85 38.6 177.35 48.2 184.1 55.85 187.85 M30.2 169.1 L28.95 168.1 21.6 158.25 17.2 147.6 16.7 144.5 16.85 139.5 17.6 134.6 20.1 128.85 22.7 125.1 26.7 133.75 28.2 139.5 29.6 147.6 30.35 155.75 30.2 169.1 M137.95 104.0 L140.35 107.0 144.95 115.1 145.1 115.25 144.95 115.1 140.35 107.0 137.95 104.0 M-65.05 119.5 L-69.55 114.0 -75.9 98.85 -80.4 85.35 -82.65 75.75 -82.65 74.5 -83.3 66.35 -82.8 58.25 -80.65 47.35 -75.65 35.25 -75.4 33.85 Q-73.8 18.35 -97.15 33.85 L-100.9 35.6 -101.15 34.6 -100.15 31.25 -97.3 25.75 -85.9 9.5 -82.8 4.35 -81.55 1.35 Q-79.75 -5.35 -81.65 -6.75 L-82.55 -7.8 -81.65 -6.75 Q-79.75 -5.35 -81.55 1.35 L-82.8 4.35 -85.9 9.5 -97.3 25.75 -100.15 31.25 -101.15 34.6 -100.9 35.6 -97.15 33.85 Q-73.8 18.35 -75.4 33.85 L-75.65 35.25 -80.65 47.35 -82.8 58.25 -83.3 66.35 -82.65 74.5 -82.65 75.75 -80.4 85.35 -75.9 98.85 -69.55 114.0 -65.05 119.5 M-54.05 -27.4 L-52.4 -25.65 -51.65 -23.9 -52.4 -25.65 -54.05 -27.4 M-58.05 -35.65 L-56.8 -36.4 -54.8 -36.5 -49.65 -35.65 -54.8 -36.5 -56.8 -36.4 -58.05 -35.65 M-72.8 -15.15 L-56.15 -26.15 -72.8 -15.15 M-112.4 5.35 L-113.55 5.75 -112.4 5.35 M-38.85 -35.25 L-33.4 -36.15 -30.05 -37.15 -33.4 -36.15 -38.85 -35.25 M-32.8 -28.15 L-32.3 -29.25 -27.3 -34.5 -26.4 -36.15 -27.3 -34.5 -32.3 -29.25 -32.8 -28.15" fill="#ffffff" fill-rule="evenodd" stroke="none"/>
    <path d="M91.95 75.35 L92.45 74.5 97.85 69.6 104.45 66.35 Q110.15 64.15 117.6 64.75 L124.45 66.35 130.1 69.1 135.95 74.5 138.35 77.75 140.1 80.5 141.7 85.85 141.85 95.1 139.95 101.25 137.95 104.0 113.85 85.25 115.35 83.6 115.6 82.6 Q116.6 79.7 112.6 77.35 L108.95 77.25 Q106.6 77.8 105.7 79.6 L97.85 76.5 91.95 75.35 M26.35 85.25 L29.2 79.75 33.35 75.25 34.45 74.5 Q44.45 66.05 62.45 70.85 L66.1 72.25 71.45 75.85 73.85 78.6 72.45 80.35 68.85 87.75 64.45 93.85 59.35 98.85 53.2 104.1 43.7 110.0 Q31.4 114.75 32.35 113.5 L29.85 110.6 28.35 108.85 24.85 100.6 24.1 93.85 25.1 88.0 26.35 85.25 M52.35 90.5 Q61.1 89.65 57.35 82.6 53.15 78.85 48.7 82.6 44.9 87.4 52.35 90.5" fill="#ff7a16" fill-rule="evenodd" stroke="none"/>
    <path d="M136.45 51.1 L137.45 51.25 Q157.45 53.7 159.45 58.25 L160.35 59.85 Q160.15 63.25 158.7 64.1 L156.1 64.5 154.7 65.25 154.1 66.35 153.7 69.75 154.1 66.35 154.7 65.25 156.1 64.5 158.7 64.1 160.45 64.75 161.1 66.35 159.2 88.85 Q154.7 149.5 150.2 158.6 L149.1 160.85 148.1 161.5 146.45 161.75 143.95 160.85 142.95 159.5 142.85 157.6 Q153.25 133.85 152.45 104.1 L153.7 69.75 151.1 72.0 Q148.7 74.0 146.85 74.5 L144.45 75.85 138.35 77.75 135.95 74.5 130.1 69.1 124.45 66.35 117.6 64.75 Q110.15 64.15 104.45 66.35 L97.85 69.6 92.45 74.5 91.95 75.35 87.6 75.25 86.2 74.5 Q80.75 71.8 81.1 66.35 L81.95 61.6 83.35 58.25 84.1 57.1 81.95 56.35 77.6 57.0 72.6 58.25 72.6 58.35 71.85 60.0 66.7 66.35 62.45 70.85 Q44.45 66.05 34.45 74.5 L33.35 75.25 29.2 79.75 26.35 85.25 12.7 87.1 8.1 75.6 7.1 74.5 4.2 74.5 1.85 75.5 4.2 74.5 7.1 74.5 8.1 75.6 12.7 87.1 25.95 120.75 30.1 131.35 34.85 147.6 36.45 155.75 37.35 163.85 37.2 170.0 Q35.6 172.55 32.95 171.85 L30.7 170.5 30.2 169.1 30.35 155.75 29.6 147.6 28.2 139.5 26.7 133.75 22.7 125.1 22.1 123.25 4.95 86.6 2.45 85.5 0.85 83.25 0.85 82.6 0.6 80.6 1.2 78.1 1.1 76.25 1.7 75.6 1.85 75.5 2.1 74.5 Q5.0 68.8 9.7 66.35 L16.7 63.0 31.6 58.25 44.95 54.85 44.95 54.75 45.1 54.75 Q67.2 49.2 72.45 51.6 L72.55 51.65 72.8 51.8 Q74.55 52.8 73.85 55.0 L72.2 58.25 72.6 58.35 72.2 58.25 73.85 55.0 75.45 54.75 79.85 53.85 86.1 54.25 89.35 51.5 92.85 50.1 Q100.2 47.85 111.6 48.6 L136.45 51.1 M84.1 57.1 Q90.1 59.3 86.1 54.25 90.1 59.3 84.1 57.1 M1.2 78.1 L4.95 86.6 1.2 78.1 M45.1 54.75 L44.95 54.85 45.1 54.75" fill="#43396f" fill-rule="evenodd" stroke="none"/>
    <path d="M105.7 79.6 Q106.6 77.8 108.95 77.25 L112.6 77.35 Q116.6 79.7 115.6 82.6 L115.35 83.6 113.85 85.25 105.7 79.6 M52.35 90.5 Q44.9 87.4 48.7 82.6 53.15 78.85 57.35 82.6 61.1 89.65 52.35 90.5" fill="#000000" fill-rule="evenodd" stroke="none"/>
    <path d="M37.95 -43.4 L38.35 -53.9 38.1 -62.75 36.1 -69.15 Q30.85 -79.4 29.1 -85.15 28.2 -87.85 28.35 -90.75 L30.05 -97.0 30.1 -97.15 26.2 -100.75 Q24.75 -102.55 24.6 -104.25 22.75 -108.55 38.2 -104.25 L47.95 -102.5 50.5 -101.85 55.95 -100.6 57.95 -100.25 58.35 -100.0 67.45 -97.9 67.9 -97.8 Q81.35 -94.75 87.85 -93.65 L92.2 -92.4 Q94.45 -91.65 95.2 -90.4 L94.2 -89.5 Q92.6 -88.75 86.45 -88.5 L73.1 -88.65 Q56.85 -89.65 49.6 -91.15 L40.45 -90.75 38.45 -90.25 38.4 -90.25 37.85 -89.75 M50.5 -101.85 L49.85 -101.65 M55.95 -100.6 L53.95 -100.95 53.7 -101.0 51.7 -101.4 51.35 -101.4 50.85 -101.5 M55.95 -100.6 L58.35 -100.0 M38.4 -90.25 Q34.65 -92.25 46.2 -67.65 L46.95 -64.4 48.95 -45.15 52.85 -45.65 54.6 -44.65 Q56.5 -40.85 57.2 -40.75 L57.95 -40.85 61.2 -41.25 61.85 -40.75 Q62.15 -37.6 53.7 -28.65 L54.1 -27.15 Q86.4 -18.7 110.95 2.0 132.2 18.4 136.45 51.1 L137.45 51.25 137.1 47.1 137.1 46.75 136.6 43.0 137.1 41.0 Q137.35 39.1 142.1 34.75 L144.1 28.85 143.9 26.0 143.85 25.85 Q135.85 23.1 136.35 17.85 137.0 10.25 145.45 7.6 L145.6 7.5 146.35 6.1 147.45 2.0 147.05 -0.95 146.95 -1.4 Q144.65 -1.8 139.6 -12.15 L138.35 -18.25 138.2 -23.4 Q140.65 -34.0 148.85 -31.15 173.5 -20.45 173.95 0.0 175.6 13.3 171.2 43.85 168.2 68.1 159.2 88.85 154.7 149.5 150.2 158.6 L149.1 160.85 148.1 161.5 146.45 161.75 143.95 160.85 142.95 159.5 142.85 157.6 Q153.25 133.85 152.45 104.1 L149.2 109.75 145.1 115.25 Q151.25 126.05 147.7 140.6 137.85 168.4 122.45 180.0 93.75 202.8 55.85 187.85 20.0 192.7 -12.05 182.6 L-21.15 179.1 -37.05 171.0 -44.9 166.0 Q-50.6 161.9 -58.55 154.6 L-68.3 148.85 -80.3 140.25 Q-119.9 105.7 -133.55 79.25 L-139.05 67.85 Q-142.75 59.55 -145.65 48.5 -150.8 31.7 -147.4 15.0 L-147.3 14.85 Q-143.65 -4.15 -119.55 -35.65 L-110.65 -45.15 Q-108.65 -47.5 -103.65 -50.9 -95.65 -55.15 -94.15 -47.4 L-93.9 -40.75 Q-94.5 -34.85 -96.8 -28.15 L-99.65 -20.5 -102.15 -15.25 -109.9 -1.25 Q-112.65 4.15 -112.4 5.35 L-106.8 2.5 Q-90.55 -9.1 -90.8 -7.9 L-87.55 -8.9 -84.3 -8.75 -82.8 -7.75 -82.55 -7.8 -82.15 -8.0 -72.8 -15.15 Q-74.6 -26.9 -56.15 -26.15 L-54.05 -27.4 -54.15 -27.65 -60.9 -36.9 -62.05 -39.65 -61.9 -40.25 -61.3 -41.15 -58.65 -41.15 -50.15 -40.0 Q-49.3 -51.1 -58.4 -78.4 -84.65 -67.2 -91.4 -69.25 L-91.3 -70.25 -87.8 -73.65 Q-58.55 -91.9 -59.8 -92.65 L-56.9 -93.5 -49.55 -94.75 -20.15 -103.9 Q-10.35 -104.75 -24.3 -96.15 L-32.9 -90.75 -49.9 -82.15 -47.05 -73.75 Q-44.35 -64.7 -39.4 -41.4 L-35.9 -42.15 -33.05 -42.15 -31.65 -41.0 -30.05 -37.15 -28.15 -37.65 -26.55 -37.5 -26.4 -36.15 -25.9 -36.15 Q2.35 -39.4 33.6 -33.15 19.75 -46.45 28.7 -44.5 L35.85 -43.4 37.95 -43.4 38.35 -39.65 38.5 -39.6 46.1 -38.65 48.1 -38.65 48.45 -39.25 48.85 -39.65 49.1 -41.4 48.95 -45.15 M67.9 -97.8 L68.85 -97.4 69.6 -96.15 69.6 -95.25 68.35 -93.75 M35.6 -94.65 L32.9 -95.55 32.2 -96.15 30.05 -97.0 M38.35 -39.65 L35.2 -40.15 33.2 -40.15 31.2 -39.5 M22.2 -34.4 L21.6 -34.4 M27.2 -33.75 L22.45 -34.25 M34.1 -33.0 L33.85 -33.25 M57.95 -40.85 L52.35 -39.25 48.1 -38.65 M80.6 -16.15 L80.1 -16.25 M147.6 -0.65 L147.05 -0.95 M145.6 7.5 L146.35 7.25 M137.1 46.75 L137.35 47.25 137.2 47.25 137.1 47.1 M144.35 34.0 L142.2 35.0 M143.9 26.0 L147.85 27.35 M138.35 77.75 L135.95 74.5 130.1 69.1 124.45 66.35 117.6 64.75 Q110.15 64.15 104.45 66.35 L97.85 69.6 92.45 74.5 91.95 75.35 97.85 76.5 105.7 79.6 Q106.6 77.8 108.95 77.25 L112.6 77.35 Q116.6 79.7 115.6 82.6 L115.35 83.6 113.85 85.25 137.95 104.0 139.95 101.25 141.85 95.1 141.7 85.85 140.1 80.5 138.35 77.75 144.45 75.85 146.85 74.5 Q148.7 74.0 151.1 72.0 L153.7 69.75 154.1 66.35 154.7 65.25 156.1 64.5 158.7 64.1 Q160.15 63.25 160.35 59.85 L159.45 58.25 Q157.45 53.7 137.45 51.25 M136.45 51.1 L111.6 48.6 Q100.2 47.85 92.85 50.1 L89.35 51.5 86.1 54.25 Q90.1 59.3 84.1 57.1 L83.35 58.25 81.95 61.6 81.1 66.35 Q80.75 71.8 86.2 74.5 L87.6 75.25 91.95 75.35 M84.1 57.1 L81.95 56.35 77.6 57.0 81.95 61.6 M113.85 85.25 L105.7 79.6 M158.7 64.1 L160.45 64.75 161.1 66.35 159.2 88.85 M71.45 49.7 L60.95 33.85 51.45 17.6 49.95 16.35 49.45 16.5 48.95 17.6 48.45 20.1 48.1 33.85 47.45 42.0 44.95 54.75 45.1 54.75 Q67.2 49.2 72.45 51.6 L72.35 51.1 71.45 49.7 71.7 50.1 75.45 54.75 79.85 53.85 86.1 54.25 M22.7 125.1 L22.1 123.25 4.95 86.6 2.45 85.5 0.85 83.25 0.85 82.6 0.6 80.6 1.2 78.1 1.1 76.25 1.7 75.6 1.85 75.5 2.1 74.5 Q5.0 68.8 9.7 66.35 L16.7 63.0 31.6 58.25 44.95 54.85 44.95 54.75 M1.85 75.5 L4.2 74.5 7.1 74.5 8.1 75.6 12.7 87.1 26.35 85.25 29.2 79.75 33.35 75.25 34.45 74.5 Q44.45 66.05 62.45 70.85 L66.7 66.35 71.85 60.0 72.6 58.35 72.2 58.25 73.85 55.0 Q74.55 52.8 72.8 51.8 L72.55 51.65 72.45 51.6 M4.95 86.6 L1.2 78.1 M29.85 110.6 L28.35 108.85 24.85 100.6 24.1 93.85 25.1 88.0 26.35 85.25 M73.85 55.0 L75.45 54.75 M77.6 57.0 L72.6 58.25 72.6 58.35 M73.85 78.6 L71.45 75.85 66.1 72.25 62.45 70.85 M44.95 54.85 L45.1 54.75 M52.35 90.5 Q61.1 89.65 57.35 82.6 53.15 78.85 48.7 82.6 44.9 87.4 52.35 90.5 M73.85 78.6 L80.6 76.1 87.6 75.25 M73.85 78.6 L72.45 80.35 68.85 87.75 64.45 93.85 59.35 98.85 53.2 104.1 43.7 110.0 Q31.4 114.75 32.35 113.5 L27.6 118.75 25.95 120.75 30.1 131.35 34.85 147.6 36.45 155.75 37.35 163.85 37.2 170.0 Q35.6 172.55 32.95 171.85 L38.6 177.35 48.2 184.1 55.85 187.85 M32.35 113.5 L29.85 110.6 27.85 115.1 27.6 118.75 M22.7 125.1 L20.1 128.85 17.6 134.6 16.85 139.5 16.7 144.5 17.2 147.6 21.6 158.25 28.95 168.1 30.2 169.1 30.35 155.75 29.6 147.6 28.2 139.5 26.7 133.75 22.7 125.1 M32.95 171.85 L30.7 170.5 30.2 169.1 M145.1 115.25 L144.95 115.1 140.35 107.0 137.95 104.0 M12.7 87.1 L25.95 120.75 M153.7 69.75 L152.45 104.1 M-82.55 -7.8 L-81.65 -6.75 Q-79.75 -5.35 -81.55 1.35 L-82.8 4.35 -85.9 9.5 -97.3 25.75 -100.15 31.25 -101.15 34.6 -100.9 35.6 -97.15 33.85 Q-73.8 18.35 -75.4 33.85 L-75.65 35.25 -80.65 47.35 -82.8 58.25 -83.3 66.35 -82.65 74.5 -82.65 75.75 -80.4 85.35 -75.9 98.85 -69.55 114.0 -65.05 119.5 M-49.9 -82.15 L-58.4 -78.4 M-49.65 -35.65 L-54.8 -36.5 -56.8 -36.4 -58.05 -35.65 M-51.65 -23.9 L-52.4 -25.65 -54.05 -27.4 M-38.85 -35.25 L-38.9 -35.15 -42.3 -34.9 -49.65 -35.65 -50.15 -40.0 M-56.15 -26.15 L-72.8 -15.15 M-38.85 -35.25 L-38.65 -35.9 -38.9 -39.25 -39.4 -41.4 M-26.4 -36.15 L-27.3 -34.5 -32.3 -29.25 -32.8 -28.15 M-30.05 -37.15 L-33.4 -36.15 -38.85 -35.25 M-113.55 5.75 L-112.4 5.35" fill="none" stroke="#000000" stroke-linecap="round" stroke-linejoin="round" stroke-width="2.15"/>
  </g>
</svg>
