<?xml version="1.0" encoding="UTF-8" standalone="no"?>
<svg xmlns:xlink="http://www.w3.org/1999/xlink" height="298.05px" width="367.5px" xmlns="http://www.w3.org/2000/svg">
  <g transform="matrix(1.0, 0.0, 0.0, 1.0, 123.9, 133.65)">
    <path d="M29.45 -126.9 L29.85 -127.15 30.15 -127.35 29.85 -127.15 29.45 -126.9 30.15 -127.35 30.2 -127.4 30.35 -127.4 Q38.45 -134.0 41.1 -128.65 L42.85 -127.25 45.35 -126.25 63.2 -124.75 68.6 -123.9 Q73.75 -122.8 68.75 -119.65 L68.7 -119.65 74.45 -118.75 Q79.95 -117.7 80.95 -116.9 87.6 -113.4 55.2 -112.4 36.4 -115.15 22.85 -109.9 L23.35 -108.9 36.1 -101.4 38.35 -99.65 41.35 -95.75 41.85 -94.25 42.1 -90.9 41.6 -87.65 37.85 -72.65 36.85 -70.15 36.1 -70.15 Q30.15 -71.7 26.95 -71.0 L26.95 -71.75 27.95 -75.25 27.95 -75.4 27.95 -75.25 27.85 -75.25 27.95 -75.4 30.2 -81.15 34.2 -89.5 34.45 -91.75 33.95 -93.0 32.1 -94.9 30.1 -96.15 21.7 -100.4 16.1 -104.5 13.95 -107.5 13.2 -109.65 13.1 -111.4 Q14.45 -122.9 26.85 -125.4 L26.95 -125.4 29.45 -126.9 M26.45 -124.9 L26.85 -125.4 26.45 -124.9 M-49.5 -100.95 Q-49.4 -102.5 -49.65 -104.0 L-47.65 -109.25 -44.3 -112.0 Q-38.55 -112.95 1.7 -130.65 13.2 -135.4 7.7 -128.65 L3.7 -125.0 -11.4 -114.15 -11.8 -113.95 -11.8 -114.9 -12.3 -115.65 -14.4 -116.9 -12.3 -115.65 -11.8 -114.9 -11.8 -113.95 -11.9 -113.9 -12.55 -112.5 -14.05 -111.25 -37.4 -97.75 -37.65 -97.5 -37.05 -96.25 -24.9 -83.15 -22.9 -79.75 Q-20.6 -78.25 -26.05 -65.25 L-26.65 -63.65 -27.1 -62.8 -27.15 -62.75 -30.3 -62.75 -37.55 -63.9 Q-37.75 -65.1 -37.1 -66.6 L-35.9 -68.9 Q-31.3 -76.95 -30.65 -76.25 L-30.8 -76.9 Q-46.0 -89.95 -46.9 -93.75 L-49.3 -94.15 -50.05 -95.15 -50.3 -97.5 Q-49.65 -99.25 -49.5 -100.95 L-47.8 -104.25 -47.55 -104.65 -47.4 -105.65 -47.55 -104.65 -47.8 -104.25 -49.5 -100.95 M62.45 -116.75 L68.7 -119.65 62.45 -116.75 M113.95 -24.25 L116.35 -22.9 125.95 -14.65 147.35 5.75 152.7 11.1 142.7 17.6 138.2 21.1 129.2 29.85 112.2 -23.0 112.35 -24.5 113.95 -24.25 M161.7 19.35 L162.85 20.25 160.45 20.6 160.35 20.6 161.7 19.35 M143.85 34.35 L142.2 38.75 140.85 36.1 143.85 34.35 M132.7 40.75 L135.2 39.5 141.85 50.35 141.7 51.0 143.35 56.5 146.45 61.85 149.85 65.75 149.35 66.35 Q146.35 77.75 144.85 72.6 L144.7 72.5 141.95 66.35 132.7 40.75 M-47.05 -105.25 L-47.55 -104.65 -47.05 -105.25 M-30.55 -75.65 L-30.65 -76.25 -30.55 -75.65 M-46.9 -93.75 L-43.15 -94.75 -37.65 -97.5 -43.15 -94.75 -46.9 -93.75" fill="#fa410f" fill-rule="evenodd" stroke="none"/>
    <path d="M27.95 -75.25 L26.95 -71.75 26.95 -71.0 Q30.15 -71.7 36.1 -70.15 L36.85 -70.15 37.85 -72.65 39.6 -72.0 42.45 -72.0 47.95 -73.25 48.85 -73.25 49.1 -72.75 Q49.1 -70.9 47.6 -68.5 L41.95 -60.65 21.35 -62.65 41.95 -60.65 Q67.85 -61.65 88.2 -52.15 97.35 -49.85 113.95 -24.25 L112.35 -24.5 112.2 -23.0 129.2 29.85 120.85 39.5 119.7 42.0 119.6 43.5 120.95 44.6 124.2 44.35 132.7 40.75 141.95 66.35 144.7 72.5 144.85 72.6 Q146.35 77.75 149.35 66.35 L149.85 65.75 151.1 66.35 151.7 67.0 152.1 66.85 163.85 86.75 166.6 102.35 166.1 110.75 163.7 120.35 164.1 122.1 165.1 123.25 166.7 124.1 168.35 124.1 169.35 123.25 169.95 122.6 170.6 120.35 171.35 115.1 171.85 107.0 171.7 103.5 170.95 98.85 167.45 85.75 157.2 66.35 157.1 66.0 Q164.1 64.6 173.6 58.25 L177.85 54.75 Q181.7 50.8 181.6 50.1 L183.7 47.35 186.1 42.0 186.95 37.85 186.6 33.85 185.6 30.6 Q183.65 27.3 182.45 26.75 L182.45 26.6 184.1 25.75 Q198.25 20.45 206.2 25.75 L210.35 27.75 218.95 33.85 227.85 43.0 232.6 50.5 236.35 59.1 236.45 59.35 236.45 59.5 236.85 60.75 236.85 60.85 236.95 61.0 238.6 66.35 239.7 74.5 240.1 82.6 237.85 98.85 236.2 104.35 Q223.35 137.4 200.45 142.25 L189.45 144.0 Q178.9 144.7 163.6 141.5 L162.95 141.6 160.1 141.85 152.95 143.6 143.1 145.25 129.85 150.85 113.1 156.75 98.1 160.35 92.6 161.25 76.85 162.75 Q52.1 166.05 9.35 150.6 L-7.8 143.35 Q-24.0 134.3 -33.4 127.5 L-47.3 115.85 Q-73.5 88.95 -75.9 82.6 L-90.8 57.1 Q-95.1 49.95 -100.65 26.85 -101.25 -4.7 -93.55 -15.5 -130.05 -16.1 -121.05 -35.9 L-118.3 -38.5 Q-116.15 -40.2 -112.05 -41.15 L-105.8 -41.9 -99.3 -42.0 -96.05 -43.75 -91.9 -44.65 -76.3 -44.9 -73.9 -47.75 -70.6 -50.7 -70.05 -51.25 Q-62.6 -68.35 -48.9 -82.15 -40.05 -87.55 -38.15 -79.9 -36.15 -73.35 -37.15 -68.5 L-35.9 -68.9 -37.1 -66.6 Q-37.75 -65.1 -37.55 -63.9 L-30.3 -62.75 -27.15 -62.75 -27.1 -62.8 -26.65 -63.65 -26.05 -65.25 -21.4 -65.15 -16.3 -66.25 -15.9 -65.75 -15.9 -64.65 -16.65 -63.15 -13.8 -63.15 -13.4 -63.15 -13.4 -63.25 -13.4 -63.15 -13.8 -63.15 -13.4 -63.25 4.95 -63.4 21.35 -62.65 21.6 -63.25 21.2 -63.75 11.95 -71.75 11.2 -73.0 11.2 -73.75 21.2 -73.0 27.85 -75.25 27.95 -75.25 M147.35 5.75 L151.1 -20.4 156.7 -52.65 158.45 -58.5 163.1 -68.4 169.2 -75.75 Q174.4 -79.8 175.35 -71.75 L175.6 -68.25 175.35 -55.75 Q171.85 -15.7 169.85 -4.4 L169.7 2.1 152.7 11.1 147.35 5.75 M19.2 -70.5 L21.1 -69.9 23.2 -69.9 26.95 -71.0 23.2 -69.9 21.1 -69.9 19.2 -70.5 M36.85 -70.15 L39.45 -70.15 43.35 -71.4 39.45 -70.15 36.85 -70.15 M-22.05 -54.75 L-22.4 -55.0 -22.3 -55.5 -21.4 -57.15 -16.65 -63.15 -21.4 -57.15 -22.3 -55.5 -22.4 -55.0 -22.05 -54.75 M168.45 17.1 L168.45 17.25 168.2 17.5 168.2 17.6 166.7 20.0 162.85 20.25 161.7 19.35 168.7 12.6 168.45 17.1 M162.2 141.35 L162.95 141.6 162.2 141.35 M3.2 129.75 L2.35 129.0 2.45 128.8 2.45 128.75 3.2 129.75 2.45 128.75 2.45 128.8 2.35 129.0 3.2 129.75 M7.35 98.25 L2.95 92.85 -1.3 85.1 -8.8 66.35 -12.65 53.25 -14.15 44.75 -14.65 29.0 -13.8 22.35 -12.55 17.6 -8.15 4.75 -8.55 1.85 -8.9 1.35 Q-9.85 -3.4 -20.05 1.35 L-30.55 9.5 Q-37.5 14.5 -35.65 9.5 L-35.3 7.5 -23.8 -14.9 -18.65 -26.65 -17.9 -31.15 Q-17.95 -45.4 -36.4 -31.15 L-45.4 -23.0 Q-53.1 -16.0 -51.05 -23.0 L-44.15 -39.25 -41.3 -47.4 -39.15 -55.5 -37.65 -63.65 -39.15 -55.5 -41.3 -47.4 -44.15 -39.25 -51.05 -23.0 Q-53.1 -16.0 -45.4 -23.0 L-36.4 -31.15 Q-17.95 -45.4 -17.9 -31.15 L-18.65 -26.65 -23.8 -14.9 -35.3 7.5 -35.65 9.5 Q-37.5 14.5 -30.55 9.5 L-20.05 1.35 Q-9.85 -3.4 -8.9 1.35 L-8.55 1.85 -8.15 4.75 -12.55 17.6 -13.8 22.35 -14.65 29.0 -14.15 44.75 -12.65 53.25 -8.8 66.35 -1.3 85.1 2.95 92.85 7.35 98.25 M137.35 114.1 L136.55 112.05 134.7 98.85 136.1 90.75 139.35 82.6 143.45 74.5 144.7 72.5 143.45 74.5 139.35 82.6 136.1 90.75 134.7 98.85 136.55 112.05 137.35 114.1 M-76.3 -44.9 L-89.65 -23.0 -93.55 -15.5 -89.65 -23.0 -76.3 -44.9 M2.45 128.8 L-4.4 123.25 -22.4 107.0 -39.4 90.75 -51.05 78.6 -57.55 70.75 -69.55 52.6 -74.8 42.0 -81.3 25.75 -84.65 14.0 -85.9 5.6 -86.15 -3.15 -85.05 -11.75 -82.05 -23.0 -75.65 -39.25 -70.6 -50.7 -75.65 -39.25 -82.05 -23.0 -85.05 -11.75 -86.15 -3.15 -85.9 5.6 -84.65 14.0 -81.3 25.75 -74.8 42.0 -69.55 52.6 -57.55 70.75 -51.05 78.6 -39.4 90.75 -22.4 107.0 -4.4 123.25 2.45 128.8 M-99.3 -42.0 L-89.15 -42.5 -84.8 -43.4 -89.15 -42.5 -99.3 -42.0 M-21.3 -64.5 L-27.1 -62.8 -21.3 -64.5 M-37.15 -68.5 L-37.1 -66.6 -37.15 -68.5" fill="#ffffff" fill-rule="evenodd" stroke="none"/>
    <path d="M169.7 2.1 L173.95 0.5 176.2 0.75 176.95 1.35 177.1 1.85 175.85 4.5 177.45 3.85 180.35 4.1 Q189.5 -4.2 201.95 -4.25 227.5 -4.6 232.35 1.35 233.95 3.85 228.6 9.35 L229.85 9.6 230.2 10.25 231.35 13.85 240.1 57.5 242.1 69.1 Q244.25 92.75 236.2 104.35 L237.85 98.85 240.1 82.6 239.7 74.5 238.6 66.35 236.95 61.0 236.85 60.85 236.85 60.75 236.45 59.5 236.45 59.35 236.45 59.1 236.45 59.35 236.35 59.1 236.45 59.1 224.6 13.0 224.6 12.25 225.45 11.1 228.1 9.5 228.6 9.35 228.1 9.5 225.45 11.1 224.6 12.25 224.6 13.0 218.6 17.75 212.35 13.85 206.7 12.35 Q193.75 12.75 189.1 17.6 L185.35 21.5 182.85 25.75 182.45 26.6 182.45 26.75 181.35 25.75 Q181.0 24.45 173.95 21.25 L166.7 20.0 168.2 17.6 168.2 17.5 168.45 17.25 168.45 17.1 172.45 12.1 177.45 6.75 178.35 6.35 179.45 7.6 180.1 7.85 181.35 7.6 Q183.85 5.85 180.35 4.1 183.85 5.85 181.35 7.6 L180.1 7.85 179.45 7.6 178.35 6.35 177.45 6.75 172.45 8.6 175.85 4.5 172.45 8.6 168.7 12.6 161.7 19.35 160.35 20.6 160.35 20.75 155.35 22.35 150.2 25.75 146.35 29.85 143.85 34.35 140.85 36.1 142.2 38.75 157.1 66.0 157.2 66.35 167.45 85.75 170.95 98.85 171.7 103.5 171.85 107.0 171.35 115.1 170.6 120.35 169.95 122.6 169.35 123.25 168.35 124.1 166.7 124.1 165.1 123.25 164.1 122.1 163.7 120.35 166.1 110.75 166.6 102.35 163.85 86.75 152.1 66.85 151.85 66.35 141.85 50.35 135.2 39.5 132.7 40.75 124.2 44.35 120.95 44.6 119.6 43.5 119.7 42.0 120.85 39.5 129.2 29.85 138.2 21.1 142.7 17.6 152.7 11.1 169.7 2.1 M135.2 39.5 L131.95 33.85 Q128.2 30.0 135.95 28.1 L137.1 29.25 140.85 36.1 137.1 29.25 135.95 28.1 Q128.2 30.0 131.95 33.85 L135.2 39.5" fill="#43396f" fill-rule="evenodd" stroke="none"/>
    <path d="M182.45 26.6 L182.85 25.75 185.35 21.5 189.1 17.6 Q193.75 12.75 206.7 12.35 L212.35 13.85 218.6 17.75 Q229.2 25.35 227.85 43.0 L218.95 33.85 210.35 27.75 206.2 25.75 Q198.25 20.45 184.1 25.75 L182.45 26.6 M166.7 20.0 L173.95 21.25 Q181.0 24.45 181.35 25.75 L182.45 26.75 Q183.65 27.3 185.6 30.6 L186.6 33.85 186.95 37.85 186.1 42.0 183.7 47.35 181.6 50.1 Q181.7 50.8 177.85 54.75 L173.6 58.25 Q164.1 64.6 157.1 66.0 L142.2 38.75 143.85 34.35 146.35 29.85 150.2 25.75 155.35 22.35 160.35 20.75 160.45 20.6 160.35 20.75 160.35 20.6 160.45 20.6 162.85 20.25 166.7 20.0 M167.45 33.85 Q164.9 30.35 160.1 33.85 156.45 38.6 162.85 41.85 171.0 40.35 167.45 33.85 M149.85 65.75 L146.45 61.85 143.35 56.5 141.7 51.0 141.85 50.35 151.85 66.35 152.1 66.85 151.7 67.0 151.1 66.35 149.85 65.75" fill="#ff7a16" fill-rule="evenodd" stroke="none"/>
    <path d="M167.45 33.85 Q171.0 40.35 162.85 41.85 156.45 38.6 160.1 33.85 164.9 30.35 167.45 33.85" fill="#000000" fill-rule="evenodd" stroke="none"/>
    <path d="M30.15 -127.35 L29.85 -127.15 29.45 -126.9 26.95 -125.4 26.85 -125.4 26.45 -124.9 M30.15 -127.35 L29.45 -126.9 M68.7 -119.65 L68.75 -119.65 Q73.75 -122.8 68.6 -123.9 L63.2 -124.75 45.35 -126.25 42.85 -127.25 41.1 -128.65 Q38.45 -134.0 30.35 -127.4 L30.2 -127.4 30.15 -127.35 M-11.8 -113.95 L-11.4 -114.15 3.7 -125.0 7.7 -128.65 Q13.2 -135.4 1.7 -130.65 -38.55 -112.95 -44.3 -112.0 L-47.65 -109.25 -49.65 -104.0 Q-49.4 -102.5 -49.5 -100.95 L-47.8 -104.25 -47.55 -104.65 -47.4 -105.65 M26.85 -125.4 Q14.45 -122.9 13.1 -111.4 L13.2 -109.65 13.95 -107.5 16.1 -104.5 21.7 -100.4 30.1 -96.15 32.1 -94.9 33.95 -93.0 34.45 -91.75 34.2 -89.5 30.2 -81.15 27.95 -75.4 27.95 -75.25 26.95 -71.75 26.95 -71.0 Q30.15 -71.7 36.1 -70.15 L36.85 -70.15 37.85 -72.65 41.6 -87.65 42.1 -90.9 41.85 -94.25 41.35 -95.75 38.35 -99.65 36.1 -101.4 23.35 -108.9 22.85 -109.9 Q36.4 -115.15 55.2 -112.4 87.6 -113.4 80.95 -116.9 79.95 -117.7 74.45 -118.75 L68.7 -119.65 62.45 -116.75 M41.95 -60.65 L47.6 -68.5 Q49.1 -70.9 49.1 -72.75 L48.85 -73.25 47.95 -73.25 42.45 -72.0 39.6 -72.0 37.85 -72.65 M27.95 -75.4 L27.85 -75.25 27.95 -75.25 M27.85 -75.25 L21.2 -73.0 11.2 -73.75 11.2 -73.0 11.95 -71.75 21.2 -63.75 21.6 -63.25 21.35 -62.65 41.95 -60.65 Q67.85 -61.65 88.2 -52.15 97.35 -49.85 113.95 -24.25 L116.35 -22.9 125.95 -14.65 147.35 5.75 151.1 -20.4 156.7 -52.65 158.45 -58.5 163.1 -68.4 169.2 -75.75 Q174.4 -79.8 175.35 -71.75 L175.6 -68.25 175.35 -55.75 Q171.85 -15.7 169.85 -4.4 L169.7 2.1 173.95 0.5 176.2 0.75 176.95 1.35 177.1 1.85 175.85 4.5 177.45 3.85 180.35 4.1 Q189.5 -4.2 201.95 -4.25 227.5 -4.6 232.35 1.35 233.95 3.85 228.6 9.35 L229.85 9.6 230.2 10.25 231.35 13.85 240.1 57.5 242.1 69.1 Q244.25 92.75 236.2 104.35 223.35 137.4 200.45 142.25 L189.45 144.0 Q178.9 144.7 163.6 141.5 L162.95 141.6 160.1 141.85 152.95 143.6 143.1 145.25 129.85 150.85 113.1 156.75 98.1 160.35 92.6 161.25 76.85 162.75 Q52.1 166.05 9.35 150.6 L-7.8 143.35 Q-24.0 134.3 -33.4 127.5 L-47.3 115.85 Q-73.5 88.95 -75.9 82.6 L-90.8 57.1 Q-95.1 49.95 -100.65 26.85 -101.25 -4.7 -93.55 -15.5 -130.05 -16.1 -121.05 -35.9 L-118.3 -38.5 Q-116.15 -40.2 -112.05 -41.15 L-105.8 -41.9 -99.3 -42.0 -96.05 -43.75 -91.9 -44.65 -76.3 -44.9 -73.9 -47.75 -70.6 -50.7 -70.05 -51.25 Q-62.6 -68.35 -48.9 -82.15 -40.05 -87.55 -38.15 -79.9 -36.15 -73.35 -37.15 -68.5 L-35.9 -68.9 Q-31.3 -76.95 -30.65 -76.25 L-30.8 -76.9 Q-46.0 -89.95 -46.9 -93.75 L-49.3 -94.15 -50.05 -95.15 -50.3 -97.5 Q-49.65 -99.25 -49.5 -100.95 M43.35 -71.4 L39.45 -70.15 36.85 -70.15 M26.95 -71.0 L23.2 -69.9 21.1 -69.9 19.2 -70.5 M21.35 -62.65 L4.95 -63.4 -13.4 -63.25 -13.4 -63.15 -13.8 -63.15 -16.65 -63.15 -21.4 -57.15 -22.3 -55.5 -22.4 -55.0 -22.05 -54.75 M113.95 -24.25 L112.35 -24.5 112.2 -23.0 129.2 29.85 138.2 21.1 142.7 17.6 152.7 11.1 147.35 5.75 M228.6 9.35 L228.1 9.5 225.45 11.1 224.6 12.25 224.6 13.0 236.45 59.1 236.45 59.35 236.45 59.5 236.85 60.75 236.85 60.85 236.95 61.0 238.6 66.35 239.7 74.5 240.1 82.6 237.85 98.85 236.2 104.35 M182.45 26.6 L182.85 25.75 185.35 21.5 189.1 17.6 Q193.75 12.75 206.7 12.35 L212.35 13.85 218.6 17.75 224.6 13.0 M182.45 26.6 L184.1 25.75 Q198.25 20.45 206.2 25.75 L210.35 27.75 218.95 33.85 227.85 43.0 Q229.2 25.35 218.6 17.75 M180.35 4.1 Q183.85 5.85 181.35 7.6 L180.1 7.85 179.45 7.6 178.35 6.35 177.45 6.75 172.45 12.1 168.45 17.1 168.45 17.25 168.2 17.5 168.2 17.6 166.7 20.0 173.95 21.25 Q181.0 24.45 181.35 25.75 L182.45 26.75 182.45 26.6 M175.85 4.5 L172.45 8.6 177.45 6.75 M162.85 20.25 L166.7 20.0 M168.45 17.1 L168.7 12.6 161.7 19.35 162.85 20.25 160.45 20.6 160.35 20.75 155.35 22.35 150.2 25.75 146.35 29.85 143.85 34.35 142.2 38.75 157.1 66.0 Q164.1 64.6 173.6 58.25 L177.85 54.75 Q181.7 50.8 181.6 50.1 L183.7 47.35 186.1 42.0 186.95 37.85 186.6 33.85 185.6 30.6 Q183.65 27.3 182.45 26.75 M168.7 12.6 L172.45 8.6 M167.45 33.85 Q164.9 30.35 160.1 33.85 156.45 38.6 162.85 41.85 171.0 40.35 167.45 33.85 M152.1 66.85 L163.85 86.75 166.6 102.35 166.1 110.75 163.7 120.35 164.1 122.1 165.1 123.25 166.7 124.1 168.35 124.1 169.35 123.25 169.95 122.6 170.6 120.35 171.35 115.1 171.85 107.0 171.7 103.5 170.95 98.85 167.45 85.75 157.2 66.35 157.1 66.0 M236.35 59.1 L236.45 59.1 M236.45 59.35 L236.35 59.1 232.6 50.5 227.85 43.0 M162.95 141.6 L162.2 141.35 M160.35 20.6 L160.35 20.75 M161.7 19.35 L160.35 20.6 160.45 20.6 M141.85 50.35 L135.2 39.5 132.7 40.75 141.95 66.35 144.7 72.5 144.85 72.6 Q146.35 77.75 149.35 66.35 L149.85 65.75 146.45 61.85 143.35 56.5 141.7 51.0 141.85 50.35 151.85 66.35 152.1 66.85 151.7 67.0 151.1 66.35 149.85 65.75 M132.7 40.75 L124.2 44.35 120.95 44.6 119.6 43.5 119.7 42.0 120.85 39.5 129.2 29.85 M140.85 36.1 L137.1 29.25 135.95 28.1 Q128.2 30.0 131.95 33.85 L135.2 39.5 M143.85 34.35 L140.85 36.1 142.2 38.75 M144.7 72.5 L143.45 74.5 139.35 82.6 136.1 90.75 134.7 98.85 136.55 112.05 137.35 114.1 M-37.65 -63.65 L-39.15 -55.5 -41.3 -47.4 -44.15 -39.25 -51.05 -23.0 Q-53.1 -16.0 -45.4 -23.0 L-36.4 -31.15 Q-17.95 -45.4 -17.9 -31.15 L-18.65 -26.65 -23.8 -14.9 -35.3 7.5 -35.65 9.5 Q-37.5 14.5 -30.55 9.5 L-20.05 1.35 Q-9.85 -3.4 -8.9 1.35 L-8.55 1.85 -8.15 4.75 -12.55 17.6 -13.8 22.35 -14.65 29.0 -14.15 44.75 -12.65 53.25 -8.8 66.35 -1.3 85.1 2.95 92.85 7.35 98.25 M3.2 129.75 L2.45 128.75 2.45 128.8 2.35 129.0 3.2 129.75 M152.7 11.1 L169.7 2.1 M-47.55 -104.65 L-47.05 -105.25 M-11.8 -113.95 L-11.8 -114.9 -12.3 -115.65 -14.4 -116.9 M-37.65 -97.5 L-37.4 -97.75 -14.05 -111.25 -12.55 -112.5 -11.9 -113.9 -11.8 -113.95 M-84.8 -43.4 L-89.15 -42.5 -99.3 -42.0 M-70.6 -50.7 L-75.65 -39.25 -82.05 -23.0 -85.05 -11.75 -86.15 -3.15 -85.9 5.6 -84.65 14.0 -81.3 25.75 -74.8 42.0 -69.55 52.6 -57.55 70.75 -51.05 78.6 -39.4 90.75 -22.4 107.0 -4.4 123.25 2.45 128.8 M-93.55 -15.5 L-89.65 -23.0 -76.3 -44.9 M-26.05 -65.25 Q-20.6 -78.25 -22.9 -79.75 L-24.9 -83.15 -37.05 -96.25 -37.65 -97.5 -43.15 -94.75 -46.9 -93.75 M-30.65 -76.25 L-30.55 -75.65 M-27.1 -62.8 L-21.3 -64.5 M-16.65 -63.15 L-15.9 -64.65 -15.9 -65.75 -16.3 -66.25 -21.4 -65.15 -26.05 -65.25 -26.65 -63.65 -27.1 -62.8 -27.15 -62.75 -30.3 -62.75 -37.55 -63.9 Q-37.75 -65.1 -37.1 -66.6 L-37.15 -68.5 M-35.9 -68.9 L-37.1 -66.6 M-13.4 -63.25 L-13.8 -63.15" fill="none" stroke="#000000" stroke-linecap="round" stroke-linejoin="round" stroke-width="2.15"/>
  </g>
</svg>
