<?xml version="1.0" encoding="UTF-8" standalone="no"?>
<svg xmlns:xlink="http://www.w3.org/1999/xlink" height="295.35px" width="433.3px" xmlns="http://www.w3.org/2000/svg">
  <g transform="matrix(1.0, 0.0, 0.0, 1.0, 153.8, 151.8)">
    <path d="M-21.9 -82.4 L-18.65 -85.65 -10.85 -91.45 -10.8 -91.5 Q-44.35 -99.95 -31.15 -119.15 L-28.4 -121.9 -25.55 -123.65 -11.4 -130.5 -6.3 -133.75 21.85 -149.65 Q29.95 -153.3 23.1 -144.9 L16.35 -137.75 16.4 -137.75 19.85 -137.25 38.45 -144.15 41.95 -144.5 42.7 -143.15 41.35 -139.0 59.35 -138.75 Q62.6 -138.6 62.85 -137.15 62.25 -135.35 59.95 -134.25 L55.45 -132.25 55.5 -132.25 Q64.35 -129.55 57.2 -127.75 45.5 -123.5 24.1 -124.25 L11.2 -120.9 8.95 -119.9 Q27.65 -118.55 31.1 -112.65 34.75 -111.15 24.7 -89.65 L24.2 -88.5 Q21.75 -89.75 17.1 -88.0 L16.6 -87.9 16.6 -88.0 16.2 -94.0 19.35 -99.4 25.2 -107.0 25.95 -108.5 25.7 -109.65 Q3.45 -111.85 0.7 -115.75 L-0.8 -118.0 -1.05 -119.0 12.45 -128.65 Q16.75 -131.55 18.85 -133.6 L19.1 -133.85 20.1 -135.15 20.35 -136.75 19.85 -137.25 20.35 -136.75 20.1 -135.15 19.1 -133.85 18.85 -133.6 Q16.75 -131.55 12.45 -128.65 L-1.05 -119.0 -4.15 -116.3 Q-5.45 -115.0 -5.65 -114.25 L-8.3 -112.5 -13.05 -111.0 -16.55 -111.4 -21.15 -109.25 -21.55 -108.9 -22.9 -107.75 -22.85 -107.65 -22.05 -106.5 Q-18.65 -105.45 -6.3 -98.65 L-2.8 -95.65 -1.8 -94.0 -1.4 -92.5 -5.9 -83.25 -6.15 -83.0 -10.4 -78.65 -11.55 -78.25 -12.65 -79.15 -15.4 -79.9 -17.8 -80.25 -20.55 -79.9 -24.15 -78.9 -23.8 -79.9 -21.9 -82.4 M157.7 -43.5 Q168.65 -36.6 194.35 -16.9 L200.95 -12.75 194.95 -6.75 187.85 1.35 184.35 6.85 183.45 9.5 183.35 10.1 183.2 10.1 168.95 -9.0 157.2 -25.65 157.1 -25.65 157.1 -25.75 152.55 -33.35 144.45 -47.4 Q141.25 -54.15 151.35 -47.4 L157.7 -43.5 M9.7 -136.75 L16.35 -137.75 9.7 -136.75 M-23.15 -107.25 L-22.85 -107.65 -23.15 -107.25 M40.85 -137.75 L41.35 -139.0 40.85 -137.75 M48.35 -129.0 L55.5 -132.25 48.35 -129.0 M7.85 -119.75 L8.95 -119.9 7.85 -119.75 M157.2 -25.65 L157.1 -25.75 157.2 -25.65 M201.1 1.75 L199.95 6.75 200.1 14.35 201.7 21.25 204.2 25.75 206.7 29.0 206.95 31.6 207.85 33.85 Q211.9 38.3 208.7 39.5 L207.2 38.85 Q204.4 37.05 202.85 35.0 L194.85 25.75 185.1 12.85 186.35 12.85 188.7 11.75 201.1 1.75 M-22.15 -108.9 L-21.55 -108.9 -22.15 -108.9 M-18.9 -112.0 L-16.55 -111.4 -18.9 -112.0 M-4.15 -116.3 L-4.05 -116.9 -4.15 -116.3 M-10.85 -91.45 L-7.9 -90.75 -7.55 -90.25 -7.9 -90.75 -10.85 -91.45" fill="#fa410f" fill-rule="evenodd" stroke="none"/>
    <path d="M24.7 -89.65 Q39.5 -96.1 29.1 -80.75 62.35 -79.85 70.6 -80.65 L80.1 -79.4 Q80.7 -79.7 89.85 -75.75 L96.35 -69.75 102.35 -61.15 113.45 -38.75 Q125.6 -7.65 126.2 -4.0 L126.35 -4.0 Q125.35 -42.35 137.85 -77.9 138.85 -85.0 160.85 -100.15 175.35 -108.15 174.35 -96.15 L173.35 -91.4 171.1 -85.9 166.7 -78.5 160.45 -70.75 159.45 -69.0 157.7 -64.0 157.7 -61.5 Q163.9 -59.6 163.85 -58.4 L164.95 -55.65 164.95 -52.15 163.45 -48.5 Q160.6 -45.0 157.7 -43.5 L151.35 -47.4 Q141.25 -54.15 144.45 -47.4 L152.55 -33.35 157.1 -25.75 157.1 -25.65 156.35 -23.75 155.1 -22.9 155.1 -22.75 154.1 -13.9 Q147.2 18.6 143.85 42.1 155.2 73.1 163.6 74.1 180.6 81.35 186.6 65.6 L186.7 65.35 186.7 65.25 186.85 65.0 186.85 64.85 186.95 64.6 189.85 45.75 191.95 38.6 192.45 37.75 195.7 36.0 200.95 35.75 202.85 35.0 Q204.4 37.05 207.2 38.85 L208.7 39.5 Q211.9 38.3 207.85 33.85 L206.95 31.6 206.7 29.0 209.1 31.25 214.85 31.6 223.6 29.35 234.2 46.35 235.6 50.1 237.2 60.35 236.95 66.35 236.35 70.25 233.2 80.0 233.2 81.6 233.85 82.6 Q235.35 84.45 236.6 84.35 L237.05 84.25 Q237.9 83.95 238.7 82.6 L240.7 74.5 241.45 69.1 241.35 60.85 239.1 50.1 237.6 45.6 227.6 27.5 228.7 27.1 230.45 25.75 Q233.25 24.75 237.35 20.75 L239.45 17.6 Q240.6 17.05 242.7 11.75 L243.2 5.25 242.45 1.35 239.35 -4.75 233.85 -10.4 232.7 -11.0 Q240.45 -15.9 253.7 -6.75 L257.2 -4.0 Q275.15 11.55 278.35 44.35 279.95 73.1 260.6 93.35 L254.45 97.75 244.45 102.25 Q242.75 104.65 208.35 105.35 205.4 105.75 194.7 109.6 L180.95 113.35 145.35 130.1 Q133.9 134.9 123.7 137.5 104.7 143.3 76.7 142.35 43.7 142.45 10.7 131.1 -11.6 123.65 -45.15 96.5 -72.1 71.6 -85.3 42.25 -100.35 12.2 -101.15 -16.25 L-101.3 -16.5 -101.3 -24.0 -101.4 -24.0 -101.65 -24.0 -105.05 -22.25 Q-108.4 -20.95 -113.3 -20.4 L-127.55 -20.0 Q-131.8 -19.7 -141.05 -21.15 -154.85 -24.7 -152.4 -37.0 L-150.9 -40.5 -147.4 -43.9 Q-141.5 -46.1 -138.7 -47.45 -136.55 -48.55 -136.15 -49.15 L-129.8 -51.0 -112.3 -52.5 -112.2 -52.55 Q-110.75 -54.1 -107.65 -54.4 L-105.55 -54.4 Q-98.8 -53.4 -96.55 -47.4 L-96.4 -46.9 -96.3 -46.95 -96.05 -47.15 Q-87.8 -70.6 -39.55 -76.25 L-39.45 -76.3 -39.4 -76.4 Q-43.9 -81.6 -41.9 -82.0 L-37.65 -81.15 -35.9 -81.25 -31.05 -84.4 -28.65 -84.75 -26.3 -84.25 -21.9 -82.4 -23.8 -79.9 -24.15 -78.9 -20.55 -79.9 -17.8 -80.25 -15.4 -79.9 -12.65 -79.15 -11.55 -78.25 -10.4 -78.65 -6.15 -83.0 -5.9 -83.0 -12.8 -63.65 -17.4 -47.4 -20.4 -31.15 -20.9 -23.0 -20.4 -10.25 -17.65 1.35 -11.8 17.6 -8.05 25.75 -1.3 38.75 12.35 58.25 52.7 103.85 56.2 109.0 52.7 103.85 12.35 58.25 -1.3 38.75 -8.05 25.75 -11.8 17.6 -17.65 1.35 -20.4 -10.25 -20.9 -23.0 -20.4 -31.15 -17.4 -47.4 -12.8 -63.65 -5.9 -83.0 -5.8 -83.0 -5.9 -83.25 -1.4 -92.5 Q5.7 -106.4 11.35 -104.25 13.1 -103.9 14.85 -99.5 L16.2 -94.0 16.6 -88.0 16.6 -87.9 17.1 -88.0 Q21.75 -89.75 24.2 -88.5 L24.7 -89.65 M155.2 -62.15 L157.7 -61.5 155.2 -62.15 M27.45 -6.0 L28.2 -6.75 35.2 -14.9 Q46.55 -25.15 47.45 -14.9 L47.35 -12.4 44.85 -2.15 44.45 1.35 44.6 9.5 47.1 25.75 48.95 33.85 53.6 50.1 59.35 66.35 63.1 74.5 66.85 80.6 68.7 82.6 68.95 83.0 68.7 82.6 66.85 80.6 63.1 74.5 59.35 66.35 53.6 50.1 48.95 33.85 47.1 25.75 44.6 9.5 44.45 1.35 44.85 -2.15 47.35 -12.4 47.45 -14.9 Q46.55 -25.15 35.2 -14.9 L28.2 -6.75 27.45 -6.0 27.6 -5.0 27.45 -6.0 27.2 -9.0 27.95 -14.9 29.85 -23.0 34.85 -39.25 36.2 -45.25 36.35 -47.4 Q36.85 -50.95 35.85 -53.75 L34.7 -55.5 Q33.45 -59.8 25.7 -55.5 L22.85 -52.65 12.45 -39.25 10.4 -37.15 12.45 -39.25 22.85 -52.65 25.7 -55.5 Q33.45 -59.8 34.7 -55.5 L35.85 -53.75 Q36.85 -50.95 36.35 -47.4 L36.2 -45.25 34.85 -39.25 29.85 -23.0 27.95 -14.9 27.2 -9.0 27.45 -6.0 M29.1 -80.75 L16.45 -80.5 16.45 -79.9 15.7 -71.75 10.2 -41.9 10.2 -37.25 10.4 -37.15 10.7 -37.0 10.4 -37.15 10.2 -37.25 10.2 -41.9 15.7 -71.75 16.45 -79.9 16.45 -80.5 16.6 -87.9 16.45 -80.5 29.1 -80.75 M24.2 -88.5 L25.7 -88.0 27.35 -88.0 25.7 -88.0 24.2 -88.5 M152.55 -33.35 L151.35 -33.75 152.55 -33.35 M153.35 -21.9 L155.1 -22.75 153.35 -21.9 M126.35 -4.0 L126.35 -3.75 126.2 -4.0 126.35 -3.75 126.35 -4.0 M126.35 -3.75 L137.2 25.75 143.7 42.0 143.85 42.1 143.7 42.0 137.2 25.75 126.35 -3.75 M186.7 65.35 L186.85 65.0 186.7 65.35 M-138.7 -47.45 L-119.65 -49.4 -116.65 -50.15 -119.65 -49.4 -138.7 -47.45 M-101.15 -16.25 L-101.15 -16.5 -101.3 -16.5 -101.15 -16.5 -101.15 -16.25 M-98.5 -41.75 L-96.3 -46.95 -98.5 -41.75 -99.3 -39.9 -99.4 -39.25 -99.4 -38.65 -101.4 -24.0 -99.4 -38.65 -99.4 -39.25 -99.3 -39.9 -98.5 -41.75 -99.3 -41.5 -99.55 -41.0 -99.3 -41.5 -98.5 -41.75 M-112.2 -52.55 L-104.9 -52.75 -112.2 -52.55 M-30.4 -66.65 L-31.3 -68.25 -39.45 -76.3 -31.3 -68.25 -30.4 -66.65 M-39.05 -81.15 L-35.9 -79.9 Q-29.8 -76.9 -24.15 -78.9 -29.8 -76.9 -35.9 -79.9 L-39.05 -81.15" fill="#ffffff" fill-rule="evenodd" stroke="none"/>
    <path d="M200.95 -12.75 L219.85 -30.4 Q223.7 -33.9 225.6 -33.4 235.95 -41.5 248.85 -37.15 254.1 -33.7 244.85 -25.5 L245.6 -25.25 246.35 -24.15 248.6 -18.0 243.2 -21.15 241.35 -21.65 241.2 -22.15 240.85 -21.75 Q224.85 -22.45 221.35 -14.9 L220.85 -14.15 217.7 -14.0 216.7 -13.65 216.6 -13.65 220.45 -18.65 225.7 -28.25 226.6 -31.15 226.1 -33.15 225.6 -33.4 226.1 -33.15 226.6 -31.15 225.7 -28.25 220.45 -18.65 216.6 -13.65 216.6 -13.5 208.95 -5.5 214.35 3.5 216.6 7.6 227.6 27.5 237.6 45.6 239.1 50.1 241.35 60.85 241.45 69.1 240.7 74.5 238.7 82.6 Q237.9 83.95 237.05 84.25 L236.6 84.35 Q235.35 84.45 233.85 82.6 L233.2 81.6 233.2 80.0 236.35 70.25 236.95 66.35 237.2 60.35 235.6 50.1 234.2 46.35 223.6 29.35 204.6 -1.4 204.45 -1.4 204.6 -1.5 204.6 -1.4 204.6 -1.5 204.45 -1.4 201.35 1.35 201.1 1.75 188.7 11.75 186.35 12.85 185.1 12.85 183.6 12.25 183.2 10.25 183.35 10.1 183.45 9.5 184.35 6.85 187.85 1.35 194.95 -6.75 200.95 -12.75 M183.2 10.1 L183.35 10.1 183.2 10.25 183.2 10.1 M220.2 -28.75 L219.9 -28.65 217.35 -26.75 216.8 -26.55 Q222.1 -31.0 222.45 -29.75 L222.5 -29.35 Q222.3 -27.9 219.1 -23.0 L217.35 -20.15 212.95 -14.9 195.85 1.35 Q188.65 7.9 186.6 8.55 184.55 9.15 187.5 4.0 L187.95 3.6 187.95 4.0 187.95 3.6 187.5 4.0 Q184.55 9.15 186.6 8.55 188.65 7.9 195.85 1.35 L212.95 -14.9 217.35 -20.15 219.1 -23.0 Q222.3 -27.9 222.5 -29.35 L222.45 -29.75 Q222.1 -31.0 216.8 -26.55 L217.35 -26.75 219.9 -28.65 220.2 -28.75 M244.85 -25.5 L241.95 -23.0 241.2 -22.15 241.95 -23.0 244.85 -25.5 M204.6 -1.5 Q203.9 -4.5 208.95 -5.5 203.9 -4.5 204.6 -1.5 M187.95 3.6 L187.95 3.25 188.1 2.95 188.4 2.5 188.6 2.75 188.65 2.6 188.55 2.25 188.8 1.85 188.95 2.1 189.15 1.3 195.7 -6.75 212.7 -23.0 216.8 -26.55 212.7 -23.0 195.7 -6.75 189.15 1.3 188.95 2.1 188.8 1.85 188.55 2.25 188.65 2.6 188.6 2.75 188.4 2.5 188.1 2.95 187.95 3.25 187.95 3.6 M187.5 4.0 L187.95 3.25 187.5 4.0 M188.4 2.5 L188.55 2.25 188.4 2.5 M188.8 1.85 L189.1 1.35 189.15 1.3 189.1 1.35 188.8 1.85 M186.1 8.85 L186.6 8.55 186.1 8.85" fill="#43396f" fill-rule="evenodd" stroke="none"/>
    <path d="M248.6 -18.0 L253.45 -13.25 Q257.35 -7.15 257.2 -4.0 L253.7 -6.75 Q240.45 -15.9 232.7 -11.0 L233.85 -10.4 239.35 -4.75 242.45 1.35 243.2 5.25 242.7 11.75 Q240.6 17.05 239.45 17.6 L237.35 20.75 Q233.25 24.75 230.45 25.75 L228.7 27.1 227.6 27.5 216.6 7.6 Q224.0 9.0 222.7 1.35 219.8 -4.15 214.95 1.35 L214.35 3.5 208.95 -5.5 216.6 -13.5 216.7 -13.65 216.6 -13.5 216.6 -13.65 216.7 -13.65 217.7 -14.0 220.85 -14.15 221.35 -14.9 Q224.85 -22.45 240.85 -21.75 L241.35 -21.65 243.2 -21.15 248.6 -18.0 M220.85 -14.15 Q228.9 -14.2 232.7 -11.0 228.9 -14.2 220.85 -14.15 M204.45 -1.4 L204.6 -1.4 223.6 29.35 214.85 31.6 209.1 31.25 206.7 29.0 204.2 25.75 201.7 21.25 200.1 14.35 199.95 6.75 201.1 1.75 201.35 1.35 204.45 -1.4" fill="#ff7a16" fill-rule="evenodd" stroke="none"/>
    <path d="M214.35 3.5 L214.95 1.35 Q219.8 -4.15 222.7 1.35 224.0 9.0 216.6 7.6 L214.35 3.5" fill="#000000" fill-rule="evenodd" stroke="none"/>
    <path d="M168.95 -9.0 L183.2 10.1 183.2 10.25 183.6 12.25 185.1 12.85 194.85 25.75 202.85 35.0 200.95 35.75 195.7 36.0 192.45 37.75 191.95 38.6 189.35 35.25 186.35 30.0 178.6 11.1 Q171.65 -0.35 168.95 -9.0" fill="#fa420e" fill-rule="evenodd" stroke="none"/>
    <path d="M-21.9 -82.4 L-18.65 -85.65 -10.85 -91.45 -10.8 -91.5 Q-44.35 -99.95 -31.15 -119.15 L-28.4 -121.9 -25.55 -123.65 -11.4 -130.5 -6.3 -133.75 21.85 -149.65 Q29.95 -153.3 23.1 -144.9 L16.35 -137.75 16.4 -137.75 19.85 -137.25 38.45 -144.15 41.95 -144.5 42.7 -143.15 41.35 -139.0 59.35 -138.75 Q62.6 -138.6 62.85 -137.15 62.25 -135.35 59.95 -134.25 L55.45 -132.25 55.5 -132.25 Q64.35 -129.55 57.2 -127.75 45.5 -123.5 24.1 -124.25 L11.2 -120.9 8.95 -119.9 Q27.65 -118.55 31.1 -112.65 34.75 -111.15 24.7 -89.65 39.5 -96.1 29.1 -80.75 62.35 -79.85 70.6 -80.65 L80.1 -79.4 Q80.7 -79.7 89.85 -75.75 L96.35 -69.75 102.35 -61.15 113.45 -38.75 Q125.6 -7.65 126.2 -4.0 L126.35 -4.0 Q125.35 -42.35 137.85 -77.9 138.85 -85.0 160.85 -100.15 175.35 -108.15 174.35 -96.15 L173.35 -91.4 171.1 -85.9 166.7 -78.5 160.45 -70.75 159.45 -69.0 157.7 -64.0 157.7 -61.5 Q163.9 -59.6 163.85 -58.4 L164.95 -55.65 164.95 -52.15 163.45 -48.5 Q160.6 -45.0 157.7 -43.5 168.65 -36.6 194.35 -16.9 L200.95 -12.75 219.85 -30.4 Q223.7 -33.9 225.6 -33.4 235.95 -41.5 248.85 -37.15 254.1 -33.7 244.85 -25.5 L245.6 -25.25 246.35 -24.15 248.6 -18.0 253.45 -13.25 Q257.35 -7.15 257.2 -4.0 275.15 11.55 278.35 44.35 279.95 73.1 260.6 93.35 L254.45 97.75 244.45 102.25 Q242.75 104.65 208.35 105.35 205.4 105.75 194.7 109.6 L180.95 113.35 145.35 130.1 Q133.9 134.9 123.7 137.5 104.7 143.3 76.7 142.35 43.7 142.45 10.7 131.1 -11.6 123.65 -45.15 96.5 -72.1 71.6 -85.3 42.25 -100.35 12.2 -101.15 -16.25 L-101.3 -16.5 -101.3 -24.0 -101.4 -24.0 -101.65 -24.0 -105.05 -22.25 Q-108.4 -20.95 -113.3 -20.4 L-127.55 -20.0 Q-131.8 -19.7 -141.05 -21.15 -154.85 -24.7 -152.4 -37.0 L-150.9 -40.5 -147.4 -43.9 Q-141.5 -46.1 -138.7 -47.45 -136.55 -48.55 -136.15 -49.15 L-129.8 -51.0 -112.3 -52.5 -112.2 -52.55 Q-110.75 -54.1 -107.65 -54.4 L-105.55 -54.4 Q-98.8 -53.4 -96.55 -47.4 L-96.4 -46.9 -96.3 -46.95 -96.05 -47.15 Q-87.8 -70.6 -39.55 -76.25 L-39.45 -76.3 -39.4 -76.4 Q-43.9 -81.6 -41.9 -82.0 L-37.65 -81.15 -35.9 -81.25 -31.05 -84.4 -28.65 -84.75 -26.3 -84.25 -21.9 -82.4 -23.8 -79.9 -24.15 -78.9 -20.55 -79.9 -17.8 -80.25 -15.4 -79.9 -12.65 -79.15 -11.55 -78.25 -10.4 -78.65 -6.15 -83.0 -5.9 -83.25 -1.4 -92.5 -1.8 -94.0 -2.8 -95.65 -6.3 -98.65 Q-18.65 -105.45 -22.05 -106.5 L-22.85 -107.65 -23.15 -107.25 M16.35 -137.75 L9.7 -136.75 M19.85 -137.25 L20.35 -136.75 20.1 -135.15 19.1 -133.85 18.85 -133.6 Q16.75 -131.55 12.45 -128.65 L-1.05 -119.0 -0.8 -118.0 0.7 -115.75 Q3.45 -111.85 25.7 -109.65 L25.95 -108.5 25.2 -107.0 19.35 -99.4 16.2 -94.0 16.6 -88.0 16.6 -87.9 17.1 -88.0 Q21.75 -89.75 24.2 -88.5 L24.7 -89.65 M-1.4 -92.5 Q5.7 -106.4 11.35 -104.25 13.1 -103.9 14.85 -99.5 L16.2 -94.0 M8.95 -119.9 L7.85 -119.75 M55.5 -132.25 L48.35 -129.0 M41.35 -139.0 L40.85 -137.75 M27.35 -88.0 L25.7 -88.0 24.2 -88.5 M10.7 -37.0 L10.4 -37.15 10.2 -37.25 10.2 -41.9 15.7 -71.75 16.45 -79.9 16.45 -80.5 16.6 -87.9 M27.6 -5.0 L27.45 -6.0 27.2 -9.0 27.95 -14.9 29.85 -23.0 34.85 -39.25 36.2 -45.25 36.35 -47.4 Q36.85 -50.95 35.85 -53.75 L34.7 -55.5 Q33.45 -59.8 25.7 -55.5 L22.85 -52.65 12.45 -39.25 10.4 -37.15 M16.45 -80.5 L29.1 -80.75 M68.95 83.0 L68.7 82.6 66.85 80.6 63.1 74.5 59.35 66.35 53.6 50.1 48.95 33.85 47.1 25.75 44.6 9.5 44.45 1.35 44.85 -2.15 47.35 -12.4 47.45 -14.9 Q46.55 -25.15 35.2 -14.9 L28.2 -6.75 27.45 -6.0 M157.7 -61.5 L155.2 -62.15 M157.7 -43.5 L151.35 -47.4 Q141.25 -54.15 144.45 -47.4 L152.55 -33.35 157.1 -25.75 157.2 -25.65 168.95 -9.0 183.2 10.1 183.35 10.1 183.45 9.5 184.35 6.85 187.85 1.35 194.95 -6.75 200.95 -12.75 M151.35 -33.75 L152.55 -33.35 M157.1 -25.65 L157.2 -25.65 M157.1 -25.75 L157.1 -25.65 156.35 -23.75 155.1 -22.9 155.1 -22.75 154.1 -13.9 Q147.2 18.6 143.85 42.1 155.2 73.1 163.6 74.1 180.6 81.35 186.6 65.6 L186.7 65.35 186.7 65.25 186.85 65.0 186.85 64.85 186.95 64.6 189.85 45.75 191.95 38.6 189.35 35.25 186.35 30.0 178.6 11.1 Q171.65 -0.35 168.95 -9.0 M126.2 -4.0 L126.35 -3.75 126.35 -4.0 M155.1 -22.75 L153.35 -21.9 M225.6 -33.4 L226.1 -33.15 226.6 -31.15 225.7 -28.25 220.45 -18.65 216.6 -13.65 216.7 -13.65 217.7 -14.0 220.85 -14.15 221.35 -14.9 Q224.85 -22.45 240.85 -21.75 L241.2 -22.15 241.95 -23.0 244.85 -25.5 M187.95 4.0 L187.95 3.6 187.5 4.0 Q184.55 9.15 186.6 8.55 188.65 7.9 195.85 1.35 L212.95 -14.9 217.35 -20.15 219.1 -23.0 Q222.3 -27.9 222.5 -29.35 L222.45 -29.75 Q222.1 -31.0 216.8 -26.55 L217.35 -26.75 219.9 -28.65 220.2 -28.75 M216.7 -13.65 L216.6 -13.5 208.95 -5.5 214.35 3.5 214.95 1.35 Q219.8 -4.15 222.7 1.35 224.0 9.0 216.6 7.6 L227.6 27.5 228.7 27.1 230.45 25.75 Q233.25 24.75 237.35 20.75 L239.45 17.6 Q240.6 17.05 242.7 11.75 L243.2 5.25 242.45 1.35 239.35 -4.75 233.85 -10.4 232.7 -11.0 Q228.9 -14.2 220.85 -14.15 M216.6 -13.65 L216.6 -13.5 M204.6 -1.4 L204.6 -1.5 204.45 -1.4 204.6 -1.4 223.6 29.35 234.2 46.35 235.6 50.1 237.2 60.35 236.95 66.35 236.35 70.25 233.2 80.0 233.2 81.6 233.85 82.6 Q235.35 84.45 236.6 84.35 L237.05 84.25 Q237.9 83.95 238.7 82.6 L240.7 74.5 241.45 69.1 241.35 60.85 239.1 50.1 237.6 45.6 227.6 27.5 M208.95 -5.5 Q203.9 -4.5 204.6 -1.5 M241.35 -21.65 L240.85 -21.75 M241.2 -22.15 L241.35 -21.65 243.2 -21.15 248.6 -18.0 M216.8 -26.55 L212.7 -23.0 195.7 -6.75 189.15 1.3 188.95 2.1 188.8 1.85 188.55 2.25 188.65 2.6 188.6 2.75 188.4 2.5 188.1 2.95 187.95 3.25 187.95 3.6 M232.7 -11.0 Q240.45 -15.9 253.7 -6.75 L257.2 -4.0 M216.6 7.6 L214.35 3.5 M206.7 29.0 L204.2 25.75 201.7 21.25 200.1 14.35 199.95 6.75 201.1 1.75 188.7 11.75 186.35 12.85 185.1 12.85 194.85 25.75 202.85 35.0 Q204.4 37.05 207.2 38.85 L208.7 39.5 Q211.9 38.3 207.85 33.85 L206.95 31.6 206.7 29.0 209.1 31.25 214.85 31.6 223.6 29.35 M201.1 1.75 L201.35 1.35 204.45 -1.4 M189.15 1.3 L189.1 1.35 188.8 1.85 M188.55 2.25 L188.4 2.5 M187.95 3.25 L187.5 4.0 M183.2 10.25 L183.6 12.25 185.1 12.85 M183.2 10.25 L183.35 10.1 M183.2 10.1 L183.2 10.25 M186.6 8.55 L186.1 8.85 M202.85 35.0 L200.95 35.75 195.7 36.0 192.45 37.75 191.95 38.6 M186.85 65.0 L186.7 65.35 M143.85 42.1 L143.7 42.0 137.2 25.75 126.35 -3.75 M-5.9 -83.0 L-12.8 -63.65 -17.4 -47.4 -20.4 -31.15 -20.9 -23.0 -20.4 -10.25 -17.65 1.35 -11.8 17.6 -8.05 25.75 -1.3 38.75 12.35 58.25 52.7 103.85 56.2 109.0 M-21.55 -108.9 L-22.15 -108.9 M-1.05 -119.0 L-4.15 -116.3 Q-5.45 -115.0 -5.65 -114.25 L-8.3 -112.5 -13.05 -111.0 -16.55 -111.4 -21.15 -109.25 -21.55 -108.9 -22.9 -107.75 -22.85 -107.65 M-4.05 -116.9 L-4.15 -116.3 M-16.55 -111.4 L-18.9 -112.0 M-104.9 -52.75 L-112.2 -52.55 M-101.4 -24.0 L-99.4 -38.65 -99.4 -39.25 -99.3 -39.9 -98.5 -41.75 -99.3 -41.5 -99.55 -41.0 M-96.3 -46.95 L-98.5 -41.75 M-101.3 -16.5 L-101.15 -16.5 -101.15 -16.25 M-116.65 -50.15 L-119.65 -49.4 -138.7 -47.45 M-7.55 -90.25 L-7.9 -90.75 -10.85 -91.45 M-5.9 -83.0 L-6.15 -83.0 M-5.9 -83.25 L-5.8 -83.0 -5.9 -83.0 M-24.15 -78.9 Q-29.8 -76.9 -35.9 -79.9 L-39.05 -81.15 M-39.45 -76.3 L-31.3 -68.25 -30.4 -66.65" fill="none" stroke="#000000" stroke-linecap="round" stroke-linejoin="round" stroke-width="2.15"/>
  </g>
</svg>
