<?xml version="1.0" encoding="UTF-8" standalone="no"?>
<svg xmlns:xlink="http://www.w3.org/1999/xlink" height="290.35px" width="464.2px" xmlns="http://www.w3.org/2000/svg">
  <g transform="matrix(1.0, 0.0, 0.0, 1.0, 172.35, 147.2)">
    <path d="M1.2 -78.0 L3.1 -81.9 Q-29.35 -90.55 -14.55 -111.15 -15.3 -119.2 -8.05 -124.0 L-3.4 -126.15 10.35 -129.4 10.45 -129.4 30.6 -144.75 Q34.5 -147.45 34.7 -144.9 L33.85 -142.0 29.95 -135.25 39.45 -137.75 41.35 -137.75 41.85 -137.15 Q45.95 -137.8 42.6 -133.4 64.25 -135.1 27.7 -120.0 33.85 -118.8 28.95 -114.5 19.1 -107.95 8.7 -107.15 L14.7 -104.65 Q17.65 -102.9 18.85 -100.15 20.9 -96.95 14.2 -84.0 L14.85 -82.65 14.95 -79.75 Q14.9 -78.45 14.05 -76.85 L13.2 -75.5 6.45 -68.0 3.7 -65.4 Q3.7 -67.25 -9.8 -63.65 L-10.9 -63.65 -10.8 -65.25 -9.65 -67.15 -7.3 -69.75 -1.5 -74.7 0.95 -76.75 0.95 -76.9 1.2 -78.0 M180.85 -15.9 L169.85 -27.65 Q161.0 -38.4 156.95 -45.15 L160.95 -45.0 172.45 -39.25 Q189.75 -29.8 208.85 -17.25 L215.35 -13.9 217.95 -12.5 213.1 -6.75 210.45 -2.9 209.2 1.35 Q208.6 6.55 213.45 9.5 216.4 12.75 225.1 9.5 L225.35 9.5 225.45 9.5 227.1 16.0 229.95 21.25 232.2 23.6 233.45 25.75 Q234.7 28.3 239.95 31.1 L240.7 31.85 240.6 33.0 Q242.35 35.55 228.6 29.85 L215.2 17.6 199.1 1.35 182.1 -14.9 180.9 -15.85 180.85 -15.9 M-2.55 -102.0 L6.35 -106.65 8.7 -107.15 6.35 -106.65 -2.55 -102.0 Q-6.8 -100.6 -6.55 -97.4 L7.85 -89.5 12.95 -96.75 12.95 -98.0 12.6 -98.5 7.6 -100.0 -2.55 -102.0 M-14.55 -111.15 L-9.15 -115.65 4.7 -124.5 9.45 -128.65 10.35 -129.25 10.35 -129.4 10.35 -129.25 10.45 -129.25 10.45 -129.4 10.45 -129.25 10.35 -129.25 9.45 -128.65 4.7 -124.5 -9.15 -115.65 -14.55 -111.15 M29.95 -135.25 L29.35 -134.0 29.7 -134.0 39.1 -136.75 41.85 -137.15 39.1 -136.75 29.7 -134.0 29.35 -134.0 25.95 -133.25 29.35 -134.0 29.95 -135.25 M3.1 -81.9 L7.35 -80.9 7.3 -80.85 5.45 -79.9 1.1 -76.9 0.95 -76.9 1.1 -76.9 5.45 -79.9 7.3 -80.85 7.35 -80.9 3.1 -81.9 M30.95 -122.15 L37.45 -124.9 30.95 -122.15 M27.7 -120.0 L28.1 -120.5 40.6 -131.15 42.6 -133.4 40.6 -131.15 28.1 -120.5 27.7 -120.0 M25.6 -120.25 L27.35 -119.75 25.6 -120.25 M14.2 -84.0 L12.6 -86.0 7.85 -89.5 12.6 -86.0 14.2 -84.0 M1.1 -76.9 L1.1 -76.75 0.95 -76.75 1.1 -76.75 1.1 -76.9 M9.35 -79.9 L7.3 -80.85 9.35 -79.9" fill="#fa410f" fill-rule="evenodd" stroke="none"/>
    <path d="M14.95 -79.75 L16.95 -79.9 17.85 -79.25 17.85 -76.4 14.45 -68.25 28.6 -69.0 45.35 -69.15 Q53.2 -95.95 59.1 -88.0 60.75 -90.2 63.7 -70.15 85.75 -71.45 91.1 -67.5 L91.85 -67.25 96.95 -62.0 103.35 -52.65 Q110.1 -76.85 123.85 -83.25 145.45 -95.4 152.1 -95.5 163.85 -98.05 161.6 -88.0 161.2 -83.75 153.85 -75.5 149.0 -69.95 136.45 -62.15 L134.6 -59.65 134.85 -58.25 135.5 -57.8 135.7 -57.65 146.7 -55.75 148.85 -54.65 150.85 -52.4 151.35 -50.75 151.2 -48.75 150.1 -46.15 148.1 -44.15 145.95 -42.75 Q133.85 -37.85 133.7 -37.15 L132.85 -36.25 132.75 -36.0 130.6 -32.0 130.7 -31.55 130.7 -31.4 Q136.85 -30.1 138.45 -29.0 L140.85 -26.75 141.6 -25.0 141.6 -23.5 Q143.25 -21.95 134.7 -18.65 L128.35 2.1 Q134.2 16.95 155.1 50.35 158.7 55.95 163.35 61.1 L168.35 65.5 Q195.2 77.9 203.6 54.1 L203.7 53.85 206.2 38.75 207.7 33.85 207.85 33.85 208.7 34.35 209.2 33.85 Q214.5 30.85 228.6 29.85 242.35 35.55 240.6 33.0 L240.7 31.85 239.95 31.1 Q234.7 28.3 233.45 25.75 L232.2 23.6 233.95 24.85 237.45 25.75 238.45 26.25 245.35 25.75 Q247.0 25.85 253.95 23.5 L257.95 21.5 267.85 37.85 Q269.0 40.3 268.95 42.0 L269.6 46.0 269.6 53.1 268.1 60.0 265.45 66.35 Q263.0 69.8 267.85 72.0 L268.85 72.0 269.7 71.35 272.7 62.1 273.35 58.25 273.6 50.1 272.2 42.0 270.85 37.0 261.35 18.85 262.85 17.6 265.85 13.75 267.45 9.5 267.35 2.6 265.6 -3.0 262.7 -7.75 258.45 -11.75 253.35 -14.65 253.45 -14.9 253.95 -15.65 257.95 -14.9 259.7 -14.25 Q284.2 -0.95 289.7 27.1 295.1 58.5 274.45 79.35 268.15 85.65 255.6 89.25 L250.35 90.5 229.45 92.6 223.6 94.1 Q209.35 99.6 196.1 103.6 145.25 132.15 133.2 135.0 122.95 138.5 109.7 140.0 L79.95 141.85 Q40.2 143.7 9.45 132.6 -8.15 129.1 -48.8 101.6 -75.1 80.1 -90.65 53.6 -104.6 32.3 -114.8 -6.75 L-116.05 -10.65 -116.9 -10.65 Q-128.0 -2.2 -133.3 -1.5 L-140.55 -0.5 -154.65 0.0 Q-167.5 -0.9 -170.05 -8.75 -169.95 -12.65 -170.3 -15.0 L-170.35 -15.5 Q-170.7 -17.35 -171.3 -18.15 L-171.05 -22.25 -169.65 -25.4 Q-166.65 -28.75 -164.15 -29.65 L-160.3 -31.0 Q-156.75 -32.1 -147.9 -32.9 L-147.65 -33.1 -145.4 -35.0 -143.15 -36.0 -139.15 -36.9 Q-125.9 -37.05 -121.65 -31.15 -116.25 -25.2 -114.95 -25.35 L-114.8 -25.4 -107.8 -32.15 -107.65 -32.25 Q-98.05 -46.95 -74.4 -56.4 L-60.15 -60.15 Q-53.9 -61.75 -27.65 -64.9 L-28.05 -65.65 -27.9 -66.5 -25.55 -66.5 Q-23.85 -70.9 -22.4 -70.25 -21.75 -70.65 -12.3 -67.5 L-9.65 -67.15 -10.8 -65.25 -10.9 -63.65 -14.15 -63.65 -20.4 -64.75 -25.55 -66.5 -20.4 -64.75 -14.15 -63.65 -10.9 -63.65 -9.8 -63.65 Q3.7 -67.25 3.7 -65.4 L6.45 -68.0 13.2 -75.5 14.05 -76.85 Q14.9 -78.45 14.95 -79.75 M-7.3 -69.75 L-12.65 -74.75 -13.55 -76.0 -13.8 -77.15 -13.15 -77.5 -11.65 -77.5 -11.55 -77.5 -11.05 -79.0 -10.15 -80.0 -9.3 -80.4 -8.3 -80.5 1.2 -78.0 0.95 -76.9 0.95 -76.75 -1.5 -74.7 -7.3 -69.75 M97.95 107.85 L97.6 107.0 93.45 98.85 82.35 82.6 63.85 58.25 54.45 42.0 47.1 25.75 41.45 9.5 39.2 1.35 37.95 -6.75 37.45 -19.15 42.1 -55.5 45.35 -69.15 42.1 -55.5 37.45 -19.15 37.95 -6.75 39.2 1.35 41.45 9.5 47.1 25.75 54.45 42.0 63.85 58.25 82.35 82.6 93.45 98.85 97.6 107.0 97.95 107.85 M15.95 -76.15 L14.05 -76.85 15.95 -76.15 M14.45 -68.25 L8.35 -67.75 6.65 -67.95 6.45 -68.0 6.65 -67.95 8.35 -67.75 14.45 -68.25 M128.35 2.1 L127.85 1.35 110.95 -39.25 103.35 -52.65 110.95 -39.25 127.85 1.35 128.35 2.1 M131.85 -35.15 L132.75 -36.0 131.85 -35.15 M129.85 -31.65 L130.7 -31.55 129.85 -31.65 M134.35 -58.0 L135.5 -57.8 134.35 -58.0 M65.95 -23.75 L64.7 -30.5 64.6 -31.15 64.1 -39.25 63.7 -70.15 64.1 -39.25 64.6 -31.15 64.7 -30.5 64.95 -31.15 69.2 -39.25 Q78.2 -52.05 81.2 -39.25 L81.7 -35.4 80.2 -14.9 80.2 -6.75 80.65 -2.6 83.45 -6.75 Q89.75 -14.05 91.85 -6.75 L92.1 -5.25 91.7 1.35 91.95 9.5 95.95 25.75 111.7 80.75 116.2 89.6 111.7 80.75 95.95 25.75 91.95 9.5 91.7 1.35 92.1 -5.25 91.85 -6.75 Q89.75 -14.05 83.45 -6.75 L80.65 -2.6 80.2 -6.75 80.2 -14.9 81.7 -35.4 81.2 -39.25 Q78.2 -52.05 69.2 -39.25 L64.95 -31.15 64.7 -30.5 65.95 -23.75 M2.35 -56.15 L6.45 -66.15 6.65 -67.95 6.45 -66.15 2.35 -56.15 M3.85 -65.15 L3.7 -65.4 3.85 -65.15 M-17.3 -52.9 L-17.65 -53.75 -24.3 -60.25 -26.9 -63.65 -27.65 -64.9 -26.9 -63.65 -24.3 -60.25 -17.65 -53.75 -17.3 -52.9 M-11.65 -77.5 L-3.55 -75.0 -1.5 -74.7 -3.55 -75.0 -11.65 -77.5 M-114.95 -25.35 L-116.65 -23.9 -114.95 -25.35 M-147.65 -33.1 L-130.55 -34.9 -147.65 -33.1 M-170.35 -15.5 Q-170.2 -16.5 -168.8 -19.5 L-165.65 -23.0 Q-161.3 -28.0 -137.4 -31.0 -161.3 -28.0 -165.65 -23.0 L-168.8 -19.5 Q-170.2 -16.5 -170.35 -15.5 M80.65 -2.6 L82.45 7.6 80.65 -2.6 M203.7 53.85 L203.7 54.1 203.6 54.1 203.7 54.1 203.7 53.85" fill="#ffffff" fill-rule="evenodd" stroke="none"/>
    <path d="M207.7 33.85 L204.2 30.1 201.2 25.85 195.2 12.85 Q187.15 0.2 180.85 -15.9 L180.9 -15.85 182.1 -14.9 199.1 1.35 215.2 17.6 228.6 29.85 Q214.5 30.85 209.2 33.85 L208.7 34.35 207.85 33.85 207.7 33.85" fill="#fa420e" fill-rule="evenodd" stroke="none"/>
    <path d="M215.35 -13.9 L215.6 -14.15 228.4 -26.2 234.45 -31.0 234.7 -31.4 235.1 -31.5 243.85 -38.65 245.2 -39.25 246.85 -39.25 Q249.45 -39.9 245.1 -33.5 251.9 -34.4 254.95 -19.75 L253.95 -15.65 253.45 -14.9 253.35 -14.65 251.35 -11.5 247.1 -7.15 244.45 -5.4 243.2 -3.65 244.45 -5.4 247.1 -7.15 247.7 -6.75 261.35 18.85 270.85 37.0 272.2 42.0 273.6 50.1 273.35 58.25 272.7 62.1 269.7 71.35 268.85 72.0 267.85 72.0 Q263.0 69.8 265.45 66.35 L268.1 60.0 269.6 53.1 269.6 46.0 268.95 42.0 Q269.0 40.3 267.85 37.85 L257.95 21.5 247.1 3.35 243.45 -3.0 243.2 -3.65 242.45 -3.0 239.85 -0.65 231.95 5.5 Q225.7 9.8 225.45 9.35 L225.35 9.5 225.1 9.5 Q216.4 12.75 213.45 9.5 208.6 6.55 209.2 1.35 L210.45 -2.9 213.1 -6.75 217.95 -12.5 215.35 -13.9 M236.2 -29.5 L238.45 -31.15 242.1 -33.0 245.1 -33.5 242.1 -33.0 238.45 -31.15 236.2 -29.5 234.4 -28.05 234.45 -28.9 234.4 -28.05 236.2 -29.5 Q231.45 -30.15 232.7 -26.75 L234.4 -28.05 232.7 -26.75 Q231.45 -30.15 236.2 -29.5 M233.5 -0.5 L233.95 -0.65 234.2 -1.1 233.5 -0.5 231.65 1.0 231.6 1.05 231.2 1.35 231.1 1.45 230.8 1.7 230.4 1.95 230.15 2.15 228.45 3.35 228.15 3.55 228.1 3.6 227.8 3.75 227.7 3.85 227.4 4.0 227.35 4.05 227.05 4.25 226.95 4.3 226.65 4.5 Q223.85 6.1 221.6 6.75 214.7 8.55 212.1 1.35 211.45 -0.4 212.85 -3.15 L215.2 -6.75 212.85 -3.15 Q211.45 -0.4 212.1 1.35 214.7 8.55 221.6 6.75 223.85 6.1 226.65 4.5 L226.95 4.3 227.05 4.25 227.35 4.05 227.4 4.0 227.7 3.85 227.8 3.75 228.1 3.6 228.15 3.55 228.45 3.35 230.15 2.15 230.4 1.95 230.8 1.7 231.1 1.45 231.2 1.35 231.6 1.05 231.65 1.0 233.5 -0.5 234.2 -1.1 237.0 -3.35 238.05 -4.2 240.9 -6.55 242.25 -7.75 244.95 -10.15 245.0 -10.2 245.9 -11.1 246.05 -11.3 246.25 -11.5 246.9 -12.2 247.75 -13.1 248.45 -14.05 248.7 -14.5 248.85 -14.9 249.2 -15.35 249.4 -15.7 Q251.75 -19.45 250.2 -23.0 246.9 -37.55 231.35 -23.0 L222.7 -14.9 215.2 -6.75 222.7 -14.9 231.35 -23.0 Q246.9 -37.55 250.2 -23.0 251.75 -19.45 249.4 -15.7 L249.2 -15.35 248.85 -14.9 248.7 -14.5 248.45 -14.05 247.75 -13.1 246.9 -12.2 246.25 -11.5 246.05 -11.3 245.9 -11.1 245.0 -10.2 244.95 -10.15 242.25 -7.75 240.9 -6.55 238.05 -4.2 237.0 -3.35 234.2 -1.1 233.95 -0.65 233.5 -0.5 M238.05 -4.2 L237.45 -3.5 237.0 -3.35 237.45 -3.5 238.05 -4.2 M240.9 -6.55 L241.2 -6.75 242.25 -7.75 241.2 -6.75 240.9 -6.55 M215.6 -14.15 L216.6 -14.9 234.45 -31.0 216.6 -14.9 215.6 -14.15 M217.95 -12.5 L232.7 -26.75 217.95 -12.5 M221.6 6.75 L222.1 6.85 221.6 6.75" fill="#43396f" fill-rule="evenodd" stroke="none"/>
    <path d="M239.85 -0.65 L242.45 -3.0 243.45 -3.0 247.1 3.35 Q244.4 6.85 241.95 5.35 239.45 4.35 239.45 1.35 L239.85 -0.65" fill="#000000" fill-rule="evenodd" stroke="none"/>
    <path d="M254.95 -19.75 L258.7 -16.25 259.7 -14.25 257.95 -14.9 253.95 -15.65 254.95 -19.75 M242.45 -3.0 L243.2 -3.65 243.45 -3.0 242.45 -3.0 M247.1 -7.15 L251.35 -11.5 253.35 -14.65 258.45 -11.75 262.7 -7.75 265.6 -3.0 267.35 2.6 267.45 9.5 265.85 13.75 262.85 17.6 261.35 18.85 247.7 -6.75 247.1 -7.15 M247.1 3.35 L257.95 21.5 253.95 23.5 Q247.0 25.85 245.35 25.75 L238.45 26.25 237.45 25.75 233.95 24.85 232.2 23.6 229.95 21.25 227.1 16.0 225.45 9.5 225.35 9.5 225.45 9.35 225.45 9.5 225.45 9.35 Q225.7 9.8 231.95 5.5 L239.85 -0.65 239.45 1.35 Q239.45 4.35 241.95 5.35 244.4 6.85 247.1 3.35" fill="#ff7a16" fill-rule="evenodd" stroke="none"/>
    <path d="M1.2 -78.0 L3.1 -81.9 Q-29.35 -90.55 -14.55 -111.15 -15.3 -119.2 -8.05 -124.0 L-3.4 -126.15 10.35 -129.4 10.45 -129.4 30.6 -144.75 Q34.5 -147.45 34.7 -144.9 L33.85 -142.0 29.95 -135.25 39.45 -137.75 41.35 -137.75 41.85 -137.15 Q45.95 -137.8 42.6 -133.4 64.25 -135.1 27.7 -120.0 33.85 -118.8 28.95 -114.5 19.1 -107.95 8.7 -107.15 L14.7 -104.65 Q17.65 -102.9 18.85 -100.15 20.9 -96.95 14.2 -84.0 L14.85 -82.65 14.95 -79.75 16.95 -79.9 17.85 -79.25 17.85 -76.4 14.45 -68.25 28.6 -69.0 45.35 -69.15 Q53.2 -95.95 59.1 -88.0 60.75 -90.2 63.7 -70.15 85.75 -71.45 91.1 -67.5 L91.85 -67.25 96.95 -62.0 103.35 -52.65 Q110.1 -76.85 123.85 -83.25 145.45 -95.4 152.1 -95.5 163.85 -98.05 161.6 -88.0 161.2 -83.75 153.85 -75.5 149.0 -69.95 136.45 -62.15 L134.6 -59.65 134.85 -58.25 135.5 -57.8 135.7 -57.65 146.7 -55.75 148.85 -54.65 150.85 -52.4 151.35 -50.75 151.2 -48.75 150.1 -46.15 148.1 -44.15 145.95 -42.75 Q133.85 -37.85 133.7 -37.15 L132.85 -36.25 132.75 -36.0 130.6 -32.0 130.7 -31.55 130.7 -31.4 Q136.85 -30.1 138.45 -29.0 L140.85 -26.75 141.6 -25.0 141.6 -23.5 Q143.25 -21.95 134.7 -18.65 L128.35 2.1 Q134.2 16.95 155.1 50.35 158.7 55.95 163.35 61.1 L168.35 65.5 Q195.2 77.9 203.6 54.1 L203.7 53.85 206.2 38.75 207.7 33.85 204.2 30.1 201.2 25.85 195.2 12.85 Q187.15 0.2 180.85 -15.9 L169.85 -27.65 Q161.0 -38.4 156.95 -45.15 L160.95 -45.0 172.45 -39.25 Q189.75 -29.8 208.85 -17.25 L215.35 -13.9 215.6 -14.15 228.4 -26.2 234.45 -31.0 234.7 -31.4 235.1 -31.5 243.85 -38.65 245.2 -39.25 246.85 -39.25 Q249.45 -39.9 245.1 -33.5 251.9 -34.4 254.95 -19.75 L258.7 -16.25 259.7 -14.25 Q284.2 -0.95 289.7 27.1 295.1 58.5 274.45 79.35 268.15 85.65 255.6 89.25 L250.35 90.5 229.45 92.6 223.6 94.1 Q209.35 99.6 196.1 103.6 145.25 132.15 133.2 135.0 122.95 138.5 109.7 140.0 L79.95 141.85 Q40.2 143.7 9.45 132.6 -8.15 129.1 -48.8 101.6 -75.1 80.1 -90.65 53.6 -104.6 32.3 -114.8 -6.75 L-116.05 -10.65 -116.9 -10.65 Q-128.0 -2.2 -133.3 -1.5 L-140.55 -0.5 -154.65 0.0 Q-167.5 -0.9 -170.05 -8.75 -169.95 -12.65 -170.3 -15.0 L-170.35 -15.5 Q-170.7 -17.35 -171.3 -18.15 L-171.05 -22.25 -169.65 -25.4 Q-166.65 -28.75 -164.15 -29.65 L-160.3 -31.0 Q-156.75 -32.1 -147.9 -32.9 L-147.65 -33.1 -145.4 -35.0 -143.15 -36.0 -139.15 -36.9 Q-125.9 -37.05 -121.65 -31.15 -116.25 -25.2 -114.95 -25.35 L-114.8 -25.4 -107.8 -32.15 -107.65 -32.25 Q-98.05 -46.95 -74.4 -56.4 L-60.15 -60.15 Q-53.9 -61.75 -27.65 -64.9 L-28.05 -65.65 -27.9 -66.5 -25.55 -66.5 Q-23.85 -70.9 -22.4 -70.25 -21.75 -70.65 -12.3 -67.5 L-9.65 -67.15 -7.3 -69.75 -12.65 -74.75 -13.55 -76.0 -13.8 -77.15 -13.15 -77.5 -11.65 -77.5 -11.55 -77.5 -11.05 -79.0 -10.15 -80.0 -9.3 -80.4 -8.3 -80.5 1.2 -78.0 0.95 -76.9 1.1 -76.9 5.45 -79.9 7.3 -80.85 7.35 -80.9 3.1 -81.9 M41.85 -137.15 L39.1 -136.75 29.7 -134.0 29.35 -134.0 25.95 -133.25 M29.35 -134.0 L29.95 -135.25 M10.35 -129.4 L10.35 -129.25 10.45 -129.25 10.45 -129.4 M10.35 -129.25 L9.45 -128.65 4.7 -124.5 -9.15 -115.65 -14.55 -111.15 M8.7 -107.15 L6.35 -106.65 -2.55 -102.0 7.6 -100.0 12.6 -98.5 12.95 -98.0 12.95 -96.75 7.85 -89.5 12.6 -86.0 14.2 -84.0 M27.35 -119.75 L25.6 -120.25 M42.6 -133.4 L40.6 -131.15 28.1 -120.5 27.7 -120.0 M37.45 -124.9 L30.95 -122.15 M45.35 -69.15 L42.1 -55.5 37.45 -19.15 37.95 -6.75 39.2 1.35 41.45 9.5 47.1 25.75 54.45 42.0 63.85 58.25 82.35 82.6 93.45 98.85 97.6 107.0 97.95 107.85 M0.95 -76.75 L1.1 -76.75 1.1 -76.9 M0.95 -76.9 L0.95 -76.75 -1.5 -74.7 -7.3 -69.75 M7.3 -80.85 L9.35 -79.9 M14.95 -79.75 Q14.9 -78.45 14.05 -76.85 L15.95 -76.15 M14.05 -76.85 L13.2 -75.5 6.45 -68.0 6.65 -67.95 8.35 -67.75 14.45 -68.25 M6.45 -68.0 L3.7 -65.4 3.85 -65.15 M6.65 -67.95 L6.45 -66.15 2.35 -56.15 M63.7 -70.15 L64.1 -39.25 64.6 -31.15 64.7 -30.5 64.95 -31.15 69.2 -39.25 Q78.2 -52.05 81.2 -39.25 L81.7 -35.4 80.2 -14.9 80.2 -6.75 80.65 -2.6 83.45 -6.75 Q89.75 -14.05 91.85 -6.75 L92.1 -5.25 91.7 1.35 91.95 9.5 95.95 25.75 111.7 80.75 116.2 89.6 M64.7 -30.5 L65.95 -23.75 M135.5 -57.8 L134.35 -58.0 M130.7 -31.55 L129.85 -31.65 M132.75 -36.0 L131.85 -35.15 M103.35 -52.65 L110.95 -39.25 127.85 1.35 128.35 2.1 M228.6 29.85 L215.2 17.6 199.1 1.35 182.1 -14.9 180.9 -15.85 180.85 -15.9 M234.45 -28.9 L234.4 -28.05 236.2 -29.5 Q231.45 -30.15 232.7 -26.75 L234.4 -28.05 M245.1 -33.5 L242.1 -33.0 238.45 -31.15 236.2 -29.5 M225.35 9.5 L225.1 9.5 Q216.4 12.75 213.45 9.5 208.6 6.55 209.2 1.35 L210.45 -2.9 213.1 -6.75 217.95 -12.5 215.35 -13.9 M215.2 -6.75 L212.85 -3.15 Q211.45 -0.4 212.1 1.35 214.7 8.55 221.6 6.75 223.85 6.1 226.65 4.5 L226.95 4.3 227.05 4.25 227.35 4.05 227.4 4.0 227.7 3.85 227.8 3.75 228.1 3.6 228.15 3.55 228.45 3.35 230.15 2.15 230.4 1.95 230.8 1.7 231.1 1.45 231.2 1.35 231.6 1.05 231.65 1.0 233.5 -0.5 234.2 -1.1 237.0 -3.35 238.05 -4.2 240.9 -6.55 242.25 -7.75 244.95 -10.15 245.0 -10.2 245.9 -11.1 246.05 -11.3 246.25 -11.5 246.9 -12.2 247.75 -13.1 248.45 -14.05 248.7 -14.5 248.85 -14.9 249.2 -15.35 249.4 -15.7 Q251.75 -19.45 250.2 -23.0 246.9 -37.55 231.35 -23.0 L222.7 -14.9 215.2 -6.75 M234.45 -31.0 L216.6 -14.9 215.6 -14.15 M242.25 -7.75 L241.2 -6.75 240.9 -6.55 M237.0 -3.35 L237.45 -3.5 238.05 -4.2 M234.2 -1.1 L233.95 -0.65 233.5 -0.5 M239.85 -0.65 L242.45 -3.0 243.2 -3.65 244.45 -5.4 247.1 -7.15 251.35 -11.5 253.35 -14.65 253.45 -14.9 253.95 -15.65 254.95 -19.75 M232.7 -26.75 L217.95 -12.5 M253.95 -15.65 L257.95 -14.9 259.7 -14.25 M247.1 -7.15 L247.7 -6.75 261.35 18.85 262.85 17.6 265.85 13.75 267.45 9.5 267.35 2.6 265.6 -3.0 262.7 -7.75 258.45 -11.75 253.35 -14.65 M243.2 -3.65 L243.45 -3.0 247.1 3.35 257.95 21.5 267.85 37.85 Q269.0 40.3 268.95 42.0 L269.6 46.0 269.6 53.1 268.1 60.0 265.45 66.35 Q263.0 69.8 267.85 72.0 L268.85 72.0 269.7 71.35 272.7 62.1 273.35 58.25 273.6 50.1 272.2 42.0 270.85 37.0 261.35 18.85 M243.45 -3.0 L242.45 -3.0 M257.95 21.5 L253.95 23.5 Q247.0 25.85 245.35 25.75 L238.45 26.25 237.45 25.75 233.95 24.85 232.2 23.6 233.45 25.75 Q234.7 28.3 239.95 31.1 L240.7 31.85 240.6 33.0 Q242.35 35.55 228.6 29.85 214.5 30.85 209.2 33.85 L208.7 34.35 207.85 33.85 207.7 33.85 M239.85 -0.65 L239.45 1.35 Q239.45 4.35 241.95 5.35 244.4 6.85 247.1 3.35 M225.45 9.35 L225.35 9.5 225.45 9.5 225.45 9.35 Q225.7 9.8 231.95 5.5 L239.85 -0.65 M232.2 23.6 L229.95 21.25 227.1 16.0 225.45 9.5 M222.1 6.85 L221.6 6.75 M203.6 54.1 L203.7 54.1 203.7 53.85 M82.45 7.6 L80.65 -2.6 M-137.4 -31.0 Q-161.3 -28.0 -165.65 -23.0 L-168.8 -19.5 Q-170.2 -16.5 -170.35 -15.5 M-130.55 -34.9 L-147.65 -33.1 M-116.65 -23.9 L-114.95 -25.35 M-1.5 -74.7 L-3.55 -75.0 -11.65 -77.5 M-27.65 -64.9 L-26.9 -63.65 -24.3 -60.25 -17.65 -53.75 -17.3 -52.9 M-25.55 -66.5 L-20.4 -64.75 -14.15 -63.65 -10.9 -63.65 -10.8 -65.25 -9.65 -67.15 M3.7 -65.4 Q3.7 -67.25 -9.8 -63.65 L-10.9 -63.65 M-2.55 -102.0 Q-6.8 -100.6 -6.55 -97.4 L7.85 -89.5" fill="none" stroke="#000000" stroke-linecap="round" stroke-linejoin="round" stroke-width="2.15"/>
  </g>
</svg>
