<?xml version="1.0" encoding="UTF-8" standalone="no"?>
<svg xmlns:xlink="http://www.w3.org/1999/xlink" height="282.65px" width="474.6px" xmlns="http://www.w3.org/2000/svg">
  <g transform="matrix(1.0, 0.0, 0.0, 1.0, 190.2, 131.6)">
    <path d="M26.95 -120.5 Q38.7 -134.95 38.95 -128.65 L38.35 -121.75 38.35 -119.25 38.7 -118.9 45.7 -120.65 Q52.4 -123.5 58.85 -124.9 63.25 -124.85 59.45 -120.5 L58.7 -119.25 Q51.1 -111.65 48.95 -108.5 65.35 -108.65 60.2 -104.75 51.6 -97.35 24.95 -91.15 9.0 -83.95 10.35 -82.0 L9.85 -80.15 10.45 -78.0 19.45 -70.15 24.6 -64.9 25.7 -63.25 26.95 -60.15 Q29.75 -59.0 19.35 -44.9 L17.3 -42.25 14.95 -39.25 Q15.2 -38.55 14.1 -38.0 11.9 -36.95 4.35 -36.4 L2.1 -36.75 1.95 -39.25 2.8 -40.95 3.1 -41.65 4.6 -43.65 13.1 -53.4 19.35 -59.25 18.6 -60.25 7.7 -67.0 3.1 -70.65 3.1 -70.75 2.95 -70.75 -1.55 -75.75 -3.3 -79.9 -3.65 -83.65 -3.4 -84.65 -3.4 -84.75 -3.4 -84.65 -3.65 -83.65 -3.3 -79.9 -1.55 -75.75 2.95 -70.75 3.1 -70.75 3.1 -70.65 2.95 -70.65 -1.05 -56.5 -2.3 -52.25 -2.9 -51.15 -3.05 -51.05 -4.3 -50.65 -8.4 -50.15 -12.15 -50.4 -12.65 -51.65 -12.55 -53.9 Q-12.3 -56.85 -4.55 -72.5 L-4.55 -75.4 -6.4 -77.5 Q-24.3 -87.05 -24.65 -89.5 -28.55 -94.95 -25.4 -101.65 -23.35 -104.85 -21.05 -106.75 L-16.15 -109.5 18.2 -118.0 26.95 -120.5 16.85 -108.25 26.95 -120.5 M-3.4 -84.75 Q-4.3 -91.0 16.85 -108.25 -11.65 -98.35 -14.15 -95.15 L-14.8 -94.0 -14.8 -92.5 -14.4 -91.9 -3.55 -84.75 -3.4 -84.75 M47.6 -108.5 L48.95 -108.5 47.6 -108.5 M2.95 -70.75 L2.95 -70.65 2.95 -70.75 M179.45 -5.25 L173.45 -10.65 173.15 -10.95 171.6 -12.45 171.15 -12.9 170.9 -13.15 169.65 -14.4 169.6 -14.45 168.65 -15.4 168.55 -15.5 167.25 -16.9 166.95 -17.2 166.05 -18.2 164.8 -19.6 164.5 -19.9 163.75 -20.8 163.5 -21.05 163.1 -21.55 162.6 -22.15 162.4 -22.45 162.05 -22.85 161.1 -24.05 160.3 -25.15 160.05 -25.45 Q158.55 -27.55 157.35 -29.5 159.1 -30.4 161.85 -29.25 L176.35 -23.0 202.45 -9.25 203.2 -8.75 203.35 -8.7 210.1 -5.25 213.1 -4.15 216.6 -2.75 213.7 1.35 Q212.65 2.1 211.35 6.35 L211.6 9.5 Q213.9 15.4 222.45 17.6 L223.6 18.1 228.6 18.85 229.1 20.85 Q232.7 26.4 232.85 25.75 L235.45 28.25 Q236.7 30.15 239.45 31.85 L244.35 33.85 Q254.25 40.4 232.45 34.25 L232.2 33.85 215.35 22.1 189.1 1.35 179.45 -5.25 M169.6 -14.45 L169.35 -14.9 168.65 -15.4 169.35 -14.9 169.6 -14.45 M166.35 -18.25 L166.95 -17.2 166.35 -18.25 M162.95 -22.15 L163.1 -21.55 162.95 -22.15 M164.35 -20.5 L164.5 -19.9 164.35 -20.5 M162.95 -22.65 L162.85 -23.0 162.95 -22.65 M161.1 -24.5 L161.1 -24.05 161.1 -24.5 M161.7 -23.75 L161.85 -23.25 162.05 -22.85 161.85 -23.25 161.7 -23.75 M162.2 -23.65 L161.95 -24.15 162.2 -23.65 M-3.55 -84.75 L-3.4 -84.65 -3.55 -84.75" fill="#fa410f" fill-rule="evenodd" stroke="none"/>
    <path d="M4.6 -43.65 L3.1 -41.65 2.8 -40.95 1.95 -39.25 2.1 -36.75 4.35 -36.4 Q11.9 -36.95 14.1 -38.0 15.2 -38.55 14.95 -39.25 L17.3 -42.25 19.35 -44.9 42.95 -46.4 Q68.7 -49.5 75.95 -49.15 83.2 -62.7 112.45 -72.5 L123.1 -75.65 132.35 -77.0 Q141.4 -77.65 141.2 -71.75 140.35 -65.6 131.45 -58.65 L124.7 -53.75 Q122.65 -51.75 108.85 -46.25 L106.85 -44.5 107.2 -43.15 108.35 -42.5 123.45 -40.75 126.7 -39.65 Q131.65 -35.35 128.85 -32.75 L128.1 -31.65 125.6 -29.9 121.7 -28.15 111.1 -24.9 106.6 -31.15 105.7 -32.15 102.85 -47.4 100.6 -55.5 Q95.95 -68.8 91.85 -55.5 L90.2 -47.4 90.2 -46.9 89.7 -46.9 88.45 -47.4 82.6 -49.0 75.95 -49.15 82.6 -49.0 88.45 -47.4 89.7 -46.9 90.2 -46.9 90.2 -47.4 91.85 -55.5 Q95.95 -68.8 100.6 -55.5 L102.85 -47.4 105.7 -32.15 106.6 -31.15 111.1 -24.9 112.45 -22.65 112.65 -22.55 113.95 -22.0 115.2 -20.75 116.35 -18.75 117.7 -14.0 118.85 -12.5 118.7 -11.65 130.1 15.35 Q134.6 25.05 141.1 36.0 L151.85 53.0 159.35 63.35 163.6 67.6 167.2 70.1 Q182.45 74.85 190.2 67.6 L194.2 63.35 197.1 58.35 Q198.25 56.75 200.7 40.6 L202.35 36.25 204.45 38.35 206.95 38.75 Q217.45 35.25 232.45 34.25 254.25 40.4 244.35 33.85 L239.45 31.85 Q236.7 30.15 235.45 28.25 239.95 31.55 250.95 30.1 L259.2 27.6 260.95 26.75 261.95 25.75 264.7 23.75 265.6 22.6 274.2 39.25 274.85 42.0 274.45 52.6 272.6 58.25 269.45 64.85 269.2 66.35 Q269.4 68.55 272.85 69.0 267.9 76.55 256.2 82.35 L248.45 85.1 Q246.1 86.15 226.7 89.5 L221.85 91.0 Q205.7 97.8 195.1 101.35 L190.45 103.6 Q185.75 105.8 171.35 115.75 L150.85 131.25 143.35 136.0 135.1 139.5 Q126.0 142.35 111.2 144.75 L74.7 149.1 54.85 150.0 37.2 148.85 17.6 145.35 -8.15 138.25 -27.8 130.6 Q-47.75 121.55 -60.9 111.25 -104.1 77.2 -120.55 25.75 L-124.9 18.75 -125.05 18.7 -126.15 18.35 -129.65 20.35 Q-140.25 29.25 -140.55 28.6 L-145.15 30.1 -157.65 32.25 -166.9 31.75 -171.65 29.6 Q-174.35 27.6 -175.1 24.9 L-175.15 24.75 -180.05 23.6 Q-183.4 22.45 -186.3 19.85 -190.9 13.15 -188.05 8.75 L-187.9 8.6 -186.4 6.25 -183.4 3.75 -180.4 2.1 -174.8 0.5 -174.75 0.35 Q-174.6 -0.9 -171.8 -3.65 L-168.65 -5.4 -164.65 -6.5 -154.9 -6.75 -142.15 -5.15 -139.3 -4.0 -128.15 2.85 -125.9 3.75 -125.8 3.6 -125.65 3.6 -124.15 2.85 Q-100.25 -24.15 -90.05 -26.65 -86.0 -32.45 -17.15 -42.0 L-17.2 -42.05 Q-34.75 -57.8 -21.9 -55.5 L-17.4 -54.4 -12.55 -53.9 -12.65 -51.65 -12.15 -50.4 -8.4 -50.15 -4.3 -50.65 -3.05 -51.05 -2.9 -51.15 -2.3 -52.25 -1.05 -56.5 0.7 -56.75 2.2 -56.15 3.95 -53.0 5.85 -53.0 6.2 -52.4 Q6.85 -51.35 1.95 -43.5 L2.1 -43.5 4.6 -43.65 M18.85 -39.4 L20.95 -39.25 Q22.65 -39.1 17.6 -31.15 L15.45 -27.25 17.6 -31.15 Q22.65 -39.1 20.95 -39.25 L18.85 -39.4 14.1 -38.0 18.85 -39.4 17.3 -42.25 18.85 -39.4 M262.85 -1.4 Q295.95 28.95 275.6 64.85 L277.6 58.25 278.6 53.35 278.7 50.1 277.95 42.0 276.85 37.6 268.1 17.6 268.1 17.25 268.85 14.25 268.45 9.5 266.7 4.0 263.95 -0.15 262.6 -1.15 262.85 -1.4 M113.6 0.85 L111.1 -6.75 108.25 -18.25 105.95 -31.15 105.7 -32.15 105.95 -31.15 108.25 -18.25 109.85 -21.4 112.1 -22.65 112.65 -22.55 112.1 -22.65 109.85 -21.4 108.25 -18.25 111.1 -6.75 113.6 0.85 M118.7 -11.65 L118.05 -13.2 117.7 -14.0 118.05 -13.2 118.7 -11.65 M128.1 112.1 L127.1 107.0 124.45 98.85 120.95 90.75 107.35 66.35 100.2 50.1 94.35 33.85 91.95 25.75 88.85 9.5 87.7 -14.9 87.85 -23.0 89.1 -39.25 90.2 -46.9 89.1 -39.25 87.85 -23.0 87.7 -14.9 88.85 9.5 91.95 25.75 94.35 33.85 100.2 50.1 107.35 66.35 120.95 90.75 124.45 98.85 127.1 107.0 128.1 112.1 M118.05 -13.2 L119.95 1.35 121.65 9.75 121.95 9.5 122.95 9.0 124.6 9.75 125.7 12.0 127.6 21.75 128.85 25.75 132.2 33.85 137.7 50.1 143.85 74.5 148.6 98.85 149.6 107.0 149.45 110.5 148.35 115.1 147.7 117.0 148.35 115.1 149.45 110.5 149.6 107.0 148.6 98.85 143.85 74.5 137.7 50.1 132.2 33.85 128.85 25.75 127.6 21.75 125.7 12.0 124.6 9.75 122.95 9.0 121.95 9.5 121.65 9.75 123.45 17.6 126.85 28.25 123.45 17.6 121.65 9.75 119.95 1.35 118.05 -13.2 M-3.05 -51.05 L3.95 -53.0 -3.05 -51.05 M-12.4 -38.4 Q-12.25 -40.05 2.1 -36.75 -12.25 -40.05 -12.4 -38.4 M-147.05 -4.15 L-174.75 0.35 -147.05 -4.15 M-148.4 1.1 L-163.05 5.25 Q-168.0 7.1 -170.65 9.5 -173.1 11.6 -173.8 13.25 L-175.4 17.6 -175.8 21.25 -175.15 24.75 -175.8 21.25 -175.4 17.6 -173.8 13.25 Q-173.1 11.6 -170.65 9.5 -168.0 7.1 -163.05 5.25 L-148.4 1.1 M-124.8 18.35 L-125.05 18.7 -124.8 18.35 M-125.15 5.35 L-125.05 4.1 -125.7 3.65 -125.9 3.75 -125.7 3.65 -125.65 3.6 -125.7 3.65 -125.05 4.1 -125.15 5.35 M-15.15 -42.45 L-17.2 -42.05 -15.15 -42.45 -15.05 -42.5 -14.05 -43.25 -10.3 -42.75 -14.05 -43.25 -15.05 -42.5 -15.15 -42.45 -15.15 -40.9 -14.4 -39.25 -12.55 -36.25 -3.65 -27.25 -12.55 -36.25 -14.4 -39.25 -15.15 -40.9 -15.15 -42.45 M-9.35 -42.55 L-9.8 -42.65 -9.35 -42.55 2.1 -43.5 -9.35 -42.55 -3.55 -41.15 2.8 -40.95 -3.55 -41.15 -9.35 -42.55 M-24.9 -52.0 L-23.9 -52.4 -21.8 -52.4 -12.15 -50.4 -21.8 -52.4 -23.9 -52.4 -24.9 -52.0" fill="#ffffff" fill-rule="evenodd" stroke="none"/>
    <path d="M202.45 -9.25 L216.1 -22.25 Q223.15 -28.1 224.45 -28.15 240.5 -31.2 233.35 -23.0 L230.45 -19.65 231.6 -19.5 232.85 -18.75 Q243.35 -26.4 253.35 -20.0 271.6 -9.35 262.85 -1.4 L262.6 -1.15 260.35 1.35 260.2 1.6 261.7 3.1 268.1 17.25 268.1 17.6 276.85 37.6 277.95 42.0 278.7 50.1 278.6 53.35 277.6 58.25 275.6 64.85 274.1 68.35 272.85 69.0 Q269.4 68.55 269.2 66.35 L269.45 64.85 272.6 58.25 274.45 52.6 274.85 42.0 274.2 39.25 265.6 22.6 256.45 5.0 249.35 10.85 246.6 12.75 241.85 15.75 233.95 18.6 228.6 18.85 223.6 18.1 222.45 17.6 Q213.9 15.4 211.6 9.5 L211.35 6.35 Q212.65 2.1 213.7 1.35 L216.6 -2.75 228.1 -14.9 229.2 -15.9 230.35 -16.9 229.95 -17.65 227.2 -16.5 226.45 -15.75 213.1 -4.15 210.1 -5.25 203.35 -8.7 203.2 -8.75 206.35 -11.8 206.2 -11.5 203.35 -8.7 206.2 -11.5 206.35 -11.8 203.2 -8.75 202.45 -9.25 M218.7 -22.75 L214.1 -19.0 218.6 -23.0 218.75 -23.1 219.55 -23.75 219.65 -23.8 220.05 -24.1 220.65 -24.35 221.7 -25.05 221.75 -25.05 222.2 -25.3 222.45 -25.4 223.05 -26.0 Q226.45 -27.8 229.1 -27.25 231.65 -26.35 230.95 -24.7 L230.55 -24.05 229.45 -23.0 228.7 -21.9 210.1 -5.25 228.7 -21.9 229.45 -23.0 230.55 -24.05 230.95 -24.7 Q231.65 -26.35 229.1 -27.25 226.45 -27.8 223.05 -26.0 L222.45 -25.4 222.2 -25.3 221.75 -25.05 221.7 -25.05 220.65 -24.35 220.05 -24.1 219.65 -23.8 219.95 -23.75 219.65 -23.8 219.55 -23.75 218.75 -23.1 218.6 -23.0 214.1 -19.0 218.7 -22.75 M221.7 -25.05 L221.4 -25.05 223.05 -26.0 221.4 -25.05 221.7 -25.05 M230.45 -19.65 Q224.85 -19.7 227.2 -16.5 224.85 -19.7 230.45 -19.65 M206.35 -11.8 L214.1 -19.0 206.35 -11.8 M230.2 -17.9 L230.1 -18.15 230.2 -17.9 M220.05 -24.1 L221.4 -25.05 220.05 -24.1 M223.45 -6.75 L231.95 -14.9 Q243.95 -24.9 254.95 -14.9 L258.7 -11.75 Q260.35 -10.3 260.45 -6.75 L259.35 -4.0 Q255.6 0.8 254.35 1.35 L253.2 2.6 244.35 9.5 Q236.3 14.75 229.7 15.2 L229.2 15.25 Q221.65 15.55 215.95 9.5 214.6 8.7 214.7 5.5 L216.7 1.35 218.35 -1.0 223.45 -6.75 218.35 -1.0 216.7 1.35 214.7 5.5 Q214.6 8.7 215.95 9.5 221.65 15.55 229.2 15.25 L229.7 15.2 Q236.3 14.75 244.35 9.5 L253.2 2.6 254.35 1.35 Q255.6 0.8 259.35 -4.0 L260.45 -6.75 Q260.35 -10.3 258.7 -11.75 L254.95 -14.9 Q243.95 -24.9 231.95 -14.9 L223.45 -6.75 M232.85 -18.75 L230.35 -16.9 232.85 -18.75 M256.45 5.0 L260.2 1.6 256.45 5.0" fill="#43396f" fill-rule="evenodd" stroke="none"/>
    <path d="M213.1 -4.15 L226.45 -15.75 229.2 -15.9 228.1 -14.9 216.6 -2.75 213.1 -4.15 M262.6 -1.15 L263.95 -0.15 266.7 4.0 268.45 9.5 268.85 14.25 268.1 17.25 261.7 3.1 260.2 1.6 260.35 1.35 262.6 -1.15 M265.6 22.6 L264.7 23.75 261.95 25.75 260.95 26.75 259.2 27.6 250.95 30.1 Q239.95 31.55 235.45 28.25 L232.85 25.75 Q232.7 26.4 229.1 20.85 L228.6 18.85 233.95 18.6 241.85 15.75 246.6 12.75 248.6 12.0 249.35 10.85 256.45 5.0 265.6 22.6" fill="#ff7a16" fill-rule="evenodd" stroke="none"/>
    <path d="M249.35 10.85 L248.6 12.0 246.6 12.75 249.35 10.85" fill="#000000" fill-rule="evenodd" stroke="none"/>
    <path d="M202.35 36.25 L198.85 32.0 193.7 21.5 Q183.85 6.1 179.45 -5.25 L189.1 1.35 215.35 22.1 232.2 33.85 232.45 34.25 Q217.45 35.25 206.95 38.75 L204.45 38.35 202.35 36.25" fill="#fa420e" fill-rule="evenodd" stroke="none"/>
    <path d="M48.95 -108.5 Q51.1 -111.65 58.7 -119.25 L59.45 -120.5 Q63.25 -124.85 58.85 -124.9 52.4 -123.5 45.7 -120.65 L38.7 -118.9 38.35 -119.25 38.35 -121.75 38.95 -128.65 Q38.7 -134.95 26.95 -120.5 L16.85 -108.25 Q-4.3 -91.0 -3.4 -84.75 L-3.4 -84.65 -3.65 -83.65 -3.3 -79.9 -1.55 -75.75 2.95 -70.75 3.1 -70.75 3.1 -70.65 7.7 -67.0 18.6 -60.25 19.35 -59.25 13.1 -53.4 4.6 -43.65 3.1 -41.65 2.8 -40.95 1.95 -39.25 2.1 -36.75 4.35 -36.4 Q11.9 -36.95 14.1 -38.0 15.2 -38.55 14.95 -39.25 L17.3 -42.25 19.35 -44.9 Q29.75 -59.0 26.95 -60.15 L25.7 -63.25 24.6 -64.9 19.45 -70.15 10.45 -78.0 9.85 -80.15 10.35 -82.0 Q9.0 -83.95 24.95 -91.15 51.6 -97.35 60.2 -104.75 65.35 -108.65 48.95 -108.5 L47.6 -108.5 M26.95 -120.5 L18.2 -118.0 -16.15 -109.5 -21.05 -106.75 Q-23.35 -104.85 -25.4 -101.65 -28.55 -94.95 -24.65 -89.5 -24.3 -87.05 -6.4 -77.5 L-4.55 -75.4 -4.55 -72.5 Q-12.3 -56.85 -12.55 -53.9 L-12.65 -51.65 -12.15 -50.4 -8.4 -50.15 -4.3 -50.65 -3.05 -51.05 -2.9 -51.15 -2.3 -52.25 -1.05 -56.5 2.95 -70.65 2.95 -70.75 M3.1 -70.65 L2.95 -70.65 M-1.05 -56.5 L0.7 -56.75 2.2 -56.15 3.95 -53.0 5.85 -53.0 6.2 -52.4 Q6.85 -51.35 1.95 -43.5 L2.1 -43.5 4.6 -43.65 M14.1 -38.0 L18.85 -39.4 17.3 -42.25 M15.45 -27.25 L17.6 -31.15 Q22.65 -39.1 20.95 -39.25 L18.85 -39.4 M75.95 -49.15 Q68.7 -49.5 42.95 -46.4 L19.35 -44.9 M111.1 -24.9 L121.7 -28.15 125.6 -29.9 128.1 -31.65 128.85 -32.75 Q131.65 -35.35 126.7 -39.65 L123.45 -40.75 108.35 -42.5 107.2 -43.15 106.85 -44.5 108.85 -46.25 Q122.65 -51.75 124.7 -53.75 L131.45 -58.65 Q140.35 -65.6 141.2 -71.75 141.4 -77.65 132.35 -77.0 L123.1 -75.65 112.45 -72.5 Q83.2 -62.7 75.95 -49.15 L82.6 -49.0 88.45 -47.4 89.7 -46.9 90.2 -46.9 90.2 -47.4 91.85 -55.5 Q95.95 -68.8 100.6 -55.5 L102.85 -47.4 105.7 -32.15 106.6 -31.15 111.1 -24.9 112.45 -22.65 112.65 -22.55 113.95 -22.0 115.2 -20.75 116.35 -18.75 117.7 -14.0 118.85 -12.5 118.7 -11.65 130.1 15.35 Q134.6 25.05 141.1 36.0 L151.85 53.0 159.35 63.35 163.6 67.6 167.2 70.1 Q182.45 74.85 190.2 67.6 L194.2 63.35 197.1 58.35 Q198.25 56.75 200.7 40.6 L202.35 36.25 198.85 32.0 193.7 21.5 Q183.85 6.1 179.45 -5.25 L173.45 -10.65 173.15 -10.95 171.6 -12.45 171.15 -12.9 170.9 -13.15 169.65 -14.4 169.6 -14.45 168.65 -15.4 168.55 -15.5 167.25 -16.9 166.95 -17.2 166.05 -18.2 164.8 -19.6 164.5 -19.9 163.75 -20.8 163.5 -21.05 163.1 -21.55 162.6 -22.15 162.4 -22.45 162.05 -22.85 161.1 -24.05 160.3 -25.15 160.05 -25.45 Q158.55 -27.55 157.35 -29.5 159.1 -30.4 161.85 -29.25 L176.35 -23.0 202.45 -9.25 216.1 -22.25 Q223.15 -28.1 224.45 -28.15 240.5 -31.2 233.35 -23.0 L230.45 -19.65 231.6 -19.5 232.85 -18.75 Q243.35 -26.4 253.35 -20.0 271.6 -9.35 262.85 -1.4 295.95 28.95 275.6 64.85 L274.1 68.35 272.85 69.0 Q267.9 76.55 256.2 82.35 L248.45 85.1 Q246.1 86.15 226.7 89.5 L221.85 91.0 Q205.7 97.8 195.1 101.35 L190.45 103.6 Q185.75 105.8 171.35 115.75 L150.85 131.25 143.35 136.0 135.1 139.5 Q126.0 142.35 111.2 144.75 L74.7 149.1 54.85 150.0 37.2 148.85 17.6 145.35 -8.15 138.25 -27.8 130.6 Q-47.75 121.55 -60.9 111.25 -104.1 77.2 -120.55 25.75 L-124.9 18.75 -125.05 18.7 -126.15 18.35 -129.65 20.35 Q-140.25 29.25 -140.55 28.6 L-145.15 30.1 -157.65 32.25 -166.9 31.75 -171.65 29.6 Q-174.35 27.6 -175.1 24.9 L-175.15 24.75 -180.05 23.6 Q-183.4 22.45 -186.3 19.85 -190.9 13.15 -188.05 8.75 L-187.9 8.6 -186.4 6.25 -183.4 3.75 -180.4 2.1 -174.8 0.5 -174.75 0.35 Q-174.6 -0.9 -171.8 -3.65 L-168.65 -5.4 -164.65 -6.5 -154.9 -6.75 -142.15 -5.15 -139.3 -4.0 -128.15 2.85 -125.9 3.75 -125.8 3.6 -125.65 3.6 -124.15 2.85 Q-100.25 -24.15 -90.05 -26.65 -86.0 -32.45 -17.15 -42.0 L-17.2 -42.05 Q-34.75 -57.8 -21.9 -55.5 L-17.4 -54.4 -12.55 -53.9 M105.7 -32.15 L105.95 -31.15 108.25 -18.25 109.85 -21.4 112.1 -22.65 112.65 -22.55 M90.2 -46.9 L89.1 -39.25 87.85 -23.0 87.7 -14.9 88.85 9.5 91.95 25.75 94.35 33.85 100.2 50.1 107.35 66.35 120.95 90.75 124.45 98.85 127.1 107.0 128.1 112.1 M117.7 -14.0 L118.05 -13.2 118.7 -11.65 M108.25 -18.25 L111.1 -6.75 113.6 0.85 M162.05 -22.85 L161.85 -23.25 161.7 -23.75 M161.1 -24.05 L161.1 -24.5 M162.85 -23.0 L162.95 -22.65 M164.5 -19.9 L164.35 -20.5 M163.1 -21.55 L162.95 -22.15 M166.95 -17.2 L166.35 -18.25 M168.65 -15.4 L169.35 -14.9 169.6 -14.45 M210.1 -5.25 L228.7 -21.9 229.45 -23.0 230.55 -24.05 230.95 -24.7 Q231.65 -26.35 229.1 -27.25 226.45 -27.8 223.05 -26.0 L222.45 -25.4 222.2 -25.3 221.75 -25.05 221.7 -25.05 220.65 -24.35 220.05 -24.1 219.65 -23.8 219.95 -23.75 M223.05 -26.0 L221.4 -25.05 221.7 -25.05 M219.65 -23.8 L219.55 -23.75 218.75 -23.1 218.6 -23.0 214.1 -19.0 218.7 -22.75 M203.35 -8.7 L206.2 -11.5 206.35 -11.8 203.2 -8.75 203.35 -8.7 210.1 -5.25 213.1 -4.15 226.45 -15.75 227.2 -16.5 Q224.85 -19.7 230.45 -19.65 M216.6 -2.75 L213.1 -4.15 M214.1 -19.0 L206.35 -11.8 M216.6 -2.75 L228.1 -14.9 229.2 -15.9 226.45 -15.75 M230.1 -18.15 L230.2 -17.9 M229.2 -15.9 L230.35 -16.9 229.95 -17.65 227.2 -16.5 M230.35 -16.9 L232.85 -18.75 M223.45 -6.75 L218.35 -1.0 216.7 1.35 214.7 5.5 Q214.6 8.7 215.95 9.5 221.65 15.55 229.2 15.25 L229.7 15.2 Q236.3 14.75 244.35 9.5 L253.2 2.6 254.35 1.35 Q255.6 0.8 259.35 -4.0 L260.45 -6.75 Q260.35 -10.3 258.7 -11.75 L254.95 -14.9 Q243.95 -24.9 231.95 -14.9 L223.45 -6.75 M221.4 -25.05 L220.05 -24.1 M203.2 -8.75 L202.45 -9.25 M262.6 -1.15 L262.85 -1.4 M268.1 17.25 L268.85 14.25 268.45 9.5 266.7 4.0 263.95 -0.15 262.6 -1.15 260.35 1.35 260.2 1.6 261.7 3.1 268.1 17.25 268.1 17.6 276.85 37.6 277.95 42.0 278.7 50.1 278.6 53.35 277.6 58.25 275.6 64.85 M161.95 -24.15 L162.2 -23.65 M235.45 28.25 Q239.95 31.55 250.95 30.1 L259.2 27.6 260.95 26.75 261.95 25.75 264.7 23.75 265.6 22.6 256.45 5.0 249.35 10.85 248.6 12.0 246.6 12.75 241.85 15.75 233.95 18.6 228.6 18.85 229.1 20.85 Q232.7 26.4 232.85 25.75 L235.45 28.25 Q236.7 30.15 239.45 31.85 L244.35 33.85 Q254.25 40.4 232.45 34.25 217.45 35.25 206.95 38.75 L204.45 38.35 202.35 36.25 M260.2 1.6 L256.45 5.0 M249.35 10.85 L246.6 12.75 M265.6 22.6 L274.2 39.25 274.85 42.0 274.45 52.6 272.6 58.25 269.45 64.85 269.2 66.35 Q269.4 68.55 272.85 69.0 M228.6 18.85 L223.6 18.1 222.45 17.6 Q213.9 15.4 211.6 9.5 L211.35 6.35 Q212.65 2.1 213.7 1.35 L216.6 -2.75 M179.45 -5.25 L189.1 1.35 215.35 22.1 232.2 33.85 232.45 34.25 M147.7 117.0 L148.35 115.1 149.45 110.5 149.6 107.0 148.6 98.85 143.85 74.5 137.7 50.1 132.2 33.85 128.85 25.75 127.6 21.75 125.7 12.0 124.6 9.75 122.95 9.0 121.95 9.5 121.65 9.75 123.45 17.6 126.85 28.25 M121.65 9.75 L119.95 1.35 118.05 -13.2 M-3.55 -84.75 L-14.4 -91.9 -14.8 -92.5 -14.8 -94.0 -14.15 -95.15 Q-11.65 -98.35 16.85 -108.25 M-3.55 -84.75 L-3.4 -84.75 M-3.4 -84.65 L-3.55 -84.75 M-12.15 -50.4 L-21.8 -52.4 -23.9 -52.4 -24.9 -52.0 M2.1 -43.5 L-9.35 -42.55 -3.55 -41.15 2.8 -40.95 M-9.8 -42.65 L-9.35 -42.55 M-10.3 -42.75 L-14.05 -43.25 -15.05 -42.5 -15.15 -42.45 -15.15 -40.9 -14.4 -39.25 -12.55 -36.25 -3.65 -27.25 M-17.2 -42.05 L-15.15 -42.45 M-125.9 3.75 L-125.7 3.65 -125.65 3.6 M-125.7 3.65 L-125.05 4.1 -125.15 5.35 M-125.05 18.7 L-124.8 18.35 M-175.15 24.75 L-175.8 21.25 -175.4 17.6 -173.8 13.25 Q-173.1 11.6 -170.65 9.5 -168.0 7.1 -163.05 5.25 L-148.4 1.1 M-174.75 0.35 L-147.05 -4.15 M2.1 -36.75 Q-12.25 -40.05 -12.4 -38.4 M3.95 -53.0 L-3.05 -51.05" fill="none" stroke="#000000" stroke-linecap="round" stroke-linejoin="round" stroke-width="2.15"/>
  </g>
</svg>
