<?xml version="1.0" encoding="UTF-8" standalone="no"?>
<svg xmlns:xlink="http://www.w3.org/1999/xlink" height="270.2px" width="457.45px" xmlns="http://www.w3.org/2000/svg">
  <g transform="matrix(1.0, 0.0, 0.0, 1.0, 193.7, 116.3)">
    <path d="M-8.5 -100.5 L-7.55 -100.4 10.2 -105.65 15.7 -106.75 17.7 -106.75 18.55 -106.35 18.95 -106.15 24.45 -107.5 30.85 -108.25 31.85 -107.65 31.35 -106.65 27.85 -104.25 Q20.75 -98.85 -16.05 -85.15 L-21.05 -82.5 -23.65 -80.15 -24.55 -77.65 -24.55 -76.25 -24.15 -75.65 -16.4 -67.15 -13.3 -63.0 -11.65 -59.65 -11.3 -55.0 -13.55 -39.65 -13.65 -39.25 -14.3 -35.4 -16.05 -32.9 -20.3 -32.75 -24.3 -33.15 -24.45 -33.3 -25.05 -34.15 -25.05 -37.25 Q-25.15 -38.9 -20.3 -54.5 L-20.3 -57.9 -20.4 -58.0 -22.3 -61.15 Q-34.6 -71.35 -36.15 -76.75 -38.5 -84.7 -32.55 -90.4 L-28.4 -93.4 Q-24.75 -94.35 -20.7 -96.25 L-20.1 -96.55 -17.5 -97.9 -17.25 -98.05 -17.05 -98.15 Q-15.6 -98.95 -14.05 -99.9 -12.05 -100.8 -8.5 -100.5 L-10.05 -99.9 -8.5 -100.5 M4.1 -102.65 L18.55 -106.35 4.1 -102.65 M18.85 -29.25 Q26.7 -40.45 28.1 -41.4 L28.7 -42.9 28.1 -44.65 21.95 -50.9 Q9.4 -62.7 13.1 -70.75 L16.7 -77.25 24.45 -86.9 25.95 -89.25 31.7 -102.15 37.6 -112.75 Q41.2 -117.95 42.85 -112.4 44.4 -107.05 46.2 -105.15 L48.35 -104.15 52.85 -104.75 67.6 -110.15 71.6 -111.15 Q76.95 -111.35 71.35 -104.25 L67.7 -99.15 Q65.8 -96.1 65.85 -95.4 65.85 -95.25 65.95 -95.25 70.3 -94.45 83.2 -94.9 L85.6 -94.0 84.85 -92.25 Q71.65 -83.15 43.7 -77.0 L30.7 -70.9 Q28.65 -70.2 26.85 -67.25 L25.95 -64.5 26.1 -61.75 Q36.85 -48.4 37.6 -44.5 L37.85 -43.15 37.6 -40.4 32.85 -31.25 32.7 -31.15 28.55 -23.75 28.1 -23.0 Q25.8 -18.9 24.9 -18.45 L24.7 -18.4 20.95 -17.9 14.95 -18.5 14.85 -18.5 14.95 -18.5 14.85 -18.5 Q13.65 -19.35 14.7 -23.0 L15.3 -23.85 18.85 -29.25 M166.35 1.75 Q153.9 -8.1 146.2 -21.65 L148.35 -21.9 150.2 -21.5 166.95 -14.9 Q170.85 -13.0 174.7 -11.15 L176.1 -10.5 190.35 -3.5 193.35 -2.25 198.2 -0.65 199.95 -0.25 198.95 1.35 197.35 4.85 Q196.75 9.55 197.45 9.5 199.0 14.9 210.85 17.6 L212.85 18.1 213.1 19.0 215.85 22.6 219.7 25.75 221.2 26.6 Q222.7 28.1 225.45 29.45 L226.1 29.75 Q229.55 31.3 234.85 32.6 L235.2 33.35 234.6 33.85 232.95 34.25 218.85 32.1 201.2 21.75 183.45 9.5 170.35 1.35 165.7 -0.9 165.35 -0.4 166.2 1.35 166.35 1.75 M-17.05 -98.15 L-16.55 -98.25 -16.3 -98.25 -15.8 -98.4 -16.3 -98.25 -16.55 -98.25 -17.05 -98.15" fill="#fa410f" fill-rule="evenodd" stroke="none"/>
    <path d="M18.85 -29.25 L15.3 -23.85 14.7 -23.0 Q13.65 -19.35 14.85 -18.5 L14.95 -18.5 20.95 -17.9 24.7 -18.4 24.9 -18.45 Q25.8 -18.9 28.1 -23.0 L28.55 -23.75 32.7 -31.15 32.85 -31.25 38.45 -32.25 Q40.4 -43.35 63.6 -54.15 L76.7 -59.0 91.45 -63.25 103.95 -65.15 Q108.25 -65.9 112.35 -63.65 117.0 -59.5 106.95 -50.9 101.6 -44.75 76.2 -35.65 L86.35 -33.65 90.2 -32.25 95.35 -31.75 99.2 -30.65 Q103.6 -26.55 101.45 -24.9 114.6 -13.65 126.2 8.05 L126.2 8.1 Q122.75 -12.2 123.1 -39.25 124.4 -50.55 129.95 -39.25 L133.7 -30.0 148.2 11.5 153.35 23.1 Q158.2 41.15 163.1 52.0 L166.7 66.85 Q173.75 61.5 175.1 55.6 176.65 31.9 180.45 29.5 L180.6 29.5 182.95 33.1 183.85 33.85 186.95 37.0 189.85 37.35 192.7 36.35 Q207.1 33.35 207.95 33.85 L215.85 33.0 218.85 32.1 232.95 34.25 234.6 33.85 235.2 33.35 234.85 32.6 Q229.55 31.3 226.1 29.75 L225.45 29.45 Q222.7 28.1 221.2 26.6 236.75 30.05 242.6 25.75 243.2 26.15 248.35 22.35 L250.85 17.6 251.7 14.35 259.1 33.85 259.35 37.0 258.1 46.1 252.85 57.5 252.7 57.6 252.45 58.1 Q246.65 66.85 236.6 72.6 L229.1 76.0 Q205.5 82.15 204.2 83.6 L181.1 94.1 172.95 99.0 168.6 102.25 Q166.75 109.5 164.7 112.25 L162.6 115.0 Q154.5 120.25 149.7 127.0 L144.2 131.35 140.1 133.75 126.45 139.0 97.7 146.25 Q84.45 149.1 62.2 152.0 L42.7 152.85 18.2 150.5 Q-10.15 145.9 -9.05 145.1 -38.05 136.95 -62.05 122.35 L-75.3 112.75 Q-88.9 101.05 -96.55 91.1 L-106.65 77.6 -111.9 68.75 Q-115.15 62.95 -121.9 46.75 L-124.65 42.0 -125.05 41.5 -125.15 41.55 -126.15 41.85 -132.15 49.35 -135.05 52.25 -138.15 54.25 Q-147.35 59.3 -157.3 58.6 -163.25 58.55 -165.9 51.75 L-166.05 51.75 -176.8 51.35 Q-182.0 50.8 -184.9 49.5 L-189.15 47.1 Q-196.3 41.8 -188.9 32.25 L-188.9 32.1 Q-192.4 22.65 -175.4 18.5 L-160.3 18.0 -146.4 19.1 -140.05 21.0 -127.3 26.75 -126.65 26.75 Q-108.25 0.1 -102.05 -1.5 -90.3 -12.3 -30.65 -23.8 L-30.15 -23.9 -29.55 -24.5 -29.8 -25.4 -38.15 -32.15 Q-42.75 -36.65 -42.05 -37.15 L-41.3 -38.15 Q-27.15 -35.85 -25.05 -37.25 L-25.05 -34.15 -24.45 -33.3 -24.3 -33.15 -20.3 -32.75 -16.05 -32.9 -14.3 -35.4 -13.65 -39.25 -13.55 -39.65 -12.4 -39.25 -7.9 -36.15 -3.8 -36.25 -2.9 -35.75 -2.9 -34.65 -3.8 -33.0 -8.3 -27.75 -8.15 -26.75 -7.55 -26.5 -5.05 -26.65 -5.4 -26.4 -6.15 -26.4 -14.8 -25.75 -6.15 -26.4 -5.4 -26.4 -5.05 -26.65 18.85 -29.25 M9.2 -10.15 L-2.65 -19.75 -5.3 -23.0 -4.9 -24.15 -2.8 -24.15 4.6 -23.0 10.6 -22.75 11.35 -23.0 15.3 -23.85 11.35 -23.0 10.6 -22.75 4.6 -23.0 -2.8 -24.15 -4.9 -24.15 -5.3 -23.0 -2.65 -19.75 9.2 -10.15 M101.45 -24.9 L95.2 -29.75 90.2 -32.25 95.2 -29.75 101.45 -24.9 M76.2 -35.65 Q60.6 -36.85 38.45 -32.25 60.6 -36.85 76.2 -35.65 M24.9 -18.45 L29.85 -19.65 24.9 -18.45 M29.35 -9.0 L30.1 -10.65 36.85 -18.9 37.2 -21.4 36.6 -21.75 31.35 -21.9 28.55 -23.75 31.35 -21.9 36.6 -21.75 37.2 -21.4 36.85 -18.9 30.1 -10.65 29.35 -9.0 M2.95 -19.4 L9.1 -19.4 14.85 -18.5 9.1 -19.4 2.95 -19.4 M-8.9 -34.65 L-16.05 -32.9 -8.9 -34.65 M-8.05 -35.0 L-7.55 -35.15 -8.05 -35.0 M-34.65 -33.9 L-29.65 -34.15 -24.45 -33.3 -29.65 -34.15 -34.65 -33.9 M-188.9 32.1 L-188.8 32.1 Q-186.55 29.05 -173.3 25.75 L-152.15 21.35 -173.3 25.75 Q-186.55 29.05 -188.8 32.1 L-188.9 32.25 -188.8 32.1 -188.9 32.1 M-125.15 41.55 L-124.3 41.25 -123.15 41.6 -123.05 41.25 -123.15 41.6 -124.3 41.25 -125.15 41.55 M-126.05 27.0 L-124.8 27.35 -123.9 28.6 -124.8 27.35 -126.05 27.0 M-166.05 51.75 L-166.4 50.1 -166.65 45.35 -166.05 42.0 -164.05 37.75 -159.8 33.85 -157.65 32.5 -147.55 28.0 -157.65 32.5 -159.8 33.85 -164.05 37.75 -166.05 42.0 -166.65 45.35 -166.4 50.1 -166.05 51.75 M-30.65 -23.8 L-30.3 -23.65 -30.15 -23.65 -29.65 -23.9 -27.55 -24.25 -29.65 -23.9 -30.15 -23.65 -30.3 -23.65 -30.65 -23.8 M145.7 109.25 L145.95 101.25 144.35 82.6 142.6 74.5 129.45 25.75 126.2 8.05 129.45 25.75 142.6 74.5 144.35 82.6 145.95 101.25 145.7 109.25 M168.2 102.5 L169.35 90.75 168.2 102.5 M169.35 90.25 L169.35 82.6 166.7 66.85 169.35 82.6 169.35 90.25" fill="#ffffff" fill-rule="evenodd" stroke="none"/>
    <path d="M174.7 -11.15 Q187.65 -25.2 191.85 -25.0 204.2 -28.05 211.1 -23.0 L211.45 -21.25 Q209.5 -17.2 208.35 -16.4 L210.45 -16.5 213.6 -15.5 Q215.75 -17.65 220.7 -19.25 L225.45 -19.75 Q231.25 -19.55 235.85 -17.75 L246.7 -13.4 Q261.95 -5.35 252.2 2.5 L252.95 2.75 254.2 5.25 261.35 30.35 Q262.4 33.2 262.7 39.1 258.6 69.35 252.45 58.1 L252.7 57.6 252.85 57.5 258.1 46.1 259.35 37.0 259.1 33.85 251.7 14.35 248.6 6.1 238.1 14.5 Q234.2 16.9 231.35 17.6 228.6 20.35 212.85 18.1 L210.85 17.6 Q199.0 14.9 197.45 9.5 196.75 9.55 197.35 4.85 L198.95 1.35 199.95 -0.25 201.2 -2.15 204.85 -6.75 210.45 -12.75 211.1 -13.4 210.1 -14.75 209.9 -14.65 206.2 -13.65 205.85 -13.65 193.35 -2.25 190.35 -3.5 176.1 -10.5 174.7 -11.15 M196.4 -8.95 L195.95 -8.4 195.5 -8.1 190.35 -3.5 195.5 -8.1 196.4 -8.95 198.4 -10.8 199.75 -12.1 199.95 -12.3 202.7 -14.9 203.05 -15.2 203.45 -15.65 203.7 -15.9 Q209.3 -22.15 205.45 -23.0 L200.1 -24.0 Q195.85 -24.5 191.1 -23.0 189.9 -22.95 185.95 -20.15 L180.2 -14.9 176.1 -10.5 180.2 -14.9 185.95 -20.15 Q189.9 -22.95 191.1 -23.0 195.85 -24.5 200.1 -24.0 L205.45 -23.0 Q209.3 -22.15 203.7 -15.9 L203.45 -15.65 203.05 -15.2 202.7 -14.9 199.95 -12.3 199.75 -12.1 198.4 -10.8 196.4 -8.95 195.5 -8.1 195.95 -8.4 196.4 -8.95 M198.4 -10.8 L198.75 -10.95 199.75 -12.1 198.75 -10.95 198.4 -10.8 M182.7 -16.75 L183.1 -16.9 182.7 -16.75 M177.1 -10.75 L177.2 -11.15 177.1 -10.75 M205.85 -13.65 L205.6 -14.9 205.7 -15.5 206.45 -16.15 208.35 -16.4 206.45 -16.15 205.7 -15.5 205.6 -14.9 205.85 -13.65 M213.6 -15.5 L212.7 -14.9 211.1 -13.4 212.7 -14.9 213.6 -15.5 M214.45 -12.4 L217.95 -14.9 Q226.45 -18.9 235.45 -14.9 L244.95 -10.75 Q248.85 -8.55 249.7 -6.75 251.75 -2.85 247.1 1.35 L245.1 3.6 238.1 9.5 Q228.65 15.8 219.7 15.9 210.55 15.95 201.95 9.5 199.35 8.05 202.7 1.35 L208.95 -6.75 214.45 -12.4 208.95 -6.75 202.7 1.35 Q199.35 8.05 201.95 9.5 210.55 15.95 219.7 15.9 228.65 15.8 238.1 9.5 L245.1 3.6 247.1 1.35 Q251.75 -2.85 249.7 -6.75 248.85 -8.55 244.95 -10.75 L235.45 -14.9 Q226.45 -18.9 217.95 -14.9 L214.45 -12.4 M199.95 -12.3 L200.7 -12.65 202.85 -14.9 203.05 -15.2 202.85 -14.9 200.7 -12.65 199.95 -12.3 M209.2 -14.75 L209.9 -14.65 209.2 -14.75 M248.6 6.1 L252.2 2.5 248.6 6.1 M223.95 16.0 L219.7 15.9 223.95 16.0" fill="#43396f" fill-rule="evenodd" stroke="none"/>
    <path d="M180.45 29.5 L180.45 29.35 174.45 16.75 Q168.7 9.35 166.45 2.0 L166.35 1.85 166.35 1.75 166.2 1.35 165.35 -0.4 165.7 -0.9 170.35 1.35 183.45 9.5 201.2 21.75 218.85 32.1 215.85 33.0 207.95 33.85 Q207.1 33.35 192.7 36.35 L189.85 37.35 186.95 37.0 183.85 33.85 182.95 33.1 180.6 29.5 180.45 29.5 M180.6 29.5 L180.6 29.35 180.45 29.35 180.6 29.35 180.6 29.5" fill="#fa420e" fill-rule="evenodd" stroke="none"/>
    <path d="M221.2 26.6 L219.7 25.75 215.85 22.6 213.1 19.0 212.85 18.1 Q228.6 20.35 231.35 17.6 234.2 16.9 238.1 14.5 L248.6 6.1 251.7 14.35 250.85 17.6 248.35 22.35 Q243.2 26.15 242.6 25.75 236.75 30.05 221.2 26.6 M198.2 -0.65 L193.35 -2.25 205.85 -13.65 206.2 -13.65 210.45 -12.75 204.85 -6.75 201.2 -2.15 199.45 -1.75 198.2 -0.65" fill="#ff7a16" fill-rule="evenodd" stroke="none"/>
    <path d="M199.95 -0.25 L198.2 -0.65 199.45 -1.75 201.2 -2.15 199.95 -0.25" fill="#000000" fill-rule="evenodd" stroke="none"/>
    <path d="M18.55 -106.35 L17.7 -106.75 15.7 -106.75 10.2 -105.65 -7.55 -100.4 -8.5 -100.5 -10.05 -99.9 M-13.55 -39.65 L-11.3 -55.0 -11.65 -59.65 -13.3 -63.0 -16.4 -67.15 -24.15 -75.65 -24.55 -76.25 -24.55 -77.65 -23.65 -80.15 -21.05 -82.5 -16.05 -85.15 Q20.75 -98.85 27.85 -104.25 L31.35 -106.65 31.85 -107.65 30.85 -108.25 24.45 -107.5 18.95 -106.15 18.55 -106.35 4.1 -102.65 M32.85 -31.25 L37.6 -40.4 37.85 -43.15 37.6 -44.5 Q36.85 -48.4 26.1 -61.75 L25.95 -64.5 26.85 -67.25 Q28.65 -70.2 30.7 -70.9 L43.7 -77.0 Q71.65 -83.15 84.85 -92.25 L85.6 -94.0 83.2 -94.9 Q70.3 -94.45 65.95 -95.25 65.85 -95.25 65.85 -95.4 65.8 -96.1 67.7 -99.15 L71.35 -104.25 Q76.95 -111.35 71.6 -111.15 L67.6 -110.15 52.85 -104.75 48.35 -104.15 46.2 -105.15 Q44.4 -107.05 42.85 -112.4 41.2 -117.95 37.6 -112.75 L31.7 -102.15 25.95 -89.25 24.45 -86.9 16.7 -77.25 13.1 -70.75 Q9.4 -62.7 21.95 -50.9 L28.1 -44.65 28.7 -42.9 28.1 -41.4 Q26.7 -40.45 18.85 -29.25 L15.3 -23.85 14.7 -23.0 Q13.65 -19.35 14.85 -18.5 L14.95 -18.5 20.95 -17.9 24.7 -18.4 24.9 -18.45 Q25.8 -18.9 28.1 -23.0 L28.55 -23.75 32.7 -31.15 32.85 -31.25 38.45 -32.25 Q40.4 -43.35 63.6 -54.15 L76.7 -59.0 91.45 -63.25 103.95 -65.15 Q108.25 -65.9 112.35 -63.65 117.0 -59.5 106.95 -50.9 101.6 -44.75 76.2 -35.65 L86.35 -33.65 90.2 -32.25 95.35 -31.75 99.2 -30.65 Q103.6 -26.55 101.45 -24.9 114.6 -13.65 126.2 8.05 L126.2 8.1 Q122.75 -12.2 123.1 -39.25 124.4 -50.55 129.95 -39.25 L133.7 -30.0 148.2 11.5 153.35 23.1 Q158.2 41.15 163.1 52.0 L166.7 66.85 Q173.75 61.5 175.1 55.6 176.65 31.9 180.45 29.5 L180.45 29.35 174.45 16.75 Q168.7 9.35 166.45 2.0 L166.35 1.85 166.35 1.75 Q153.9 -8.1 146.2 -21.65 L148.35 -21.9 150.2 -21.5 166.95 -14.9 Q170.85 -13.0 174.7 -11.15 187.65 -25.2 191.85 -25.0 204.2 -28.05 211.1 -23.0 L211.45 -21.25 Q209.5 -17.2 208.35 -16.4 L210.45 -16.5 213.6 -15.5 Q215.75 -17.65 220.7 -19.25 L225.45 -19.75 Q231.25 -19.55 235.85 -17.75 L246.7 -13.4 Q261.95 -5.35 252.2 2.5 L252.95 2.75 254.2 5.25 261.35 30.35 Q262.4 33.2 262.7 39.1 258.6 69.35 252.45 58.1 246.65 66.85 236.6 72.6 L229.1 76.0 Q205.5 82.15 204.2 83.6 L181.1 94.1 172.95 99.0 168.6 102.25 Q166.75 109.5 164.7 112.25 L162.6 115.0 Q154.5 120.25 149.7 127.0 L144.2 131.35 140.1 133.75 126.45 139.0 97.7 146.25 Q84.45 149.1 62.2 152.0 L42.7 152.85 18.2 150.5 Q-10.15 145.9 -9.05 145.1 -38.05 136.95 -62.05 122.35 L-75.3 112.75 Q-88.9 101.05 -96.55 91.1 L-106.65 77.6 -111.9 68.75 Q-115.15 62.95 -121.9 46.75 L-124.65 42.0 -125.05 41.5 -125.15 41.55 -126.15 41.85 -132.15 49.35 -135.05 52.25 -138.15 54.25 Q-147.35 59.3 -157.3 58.6 -163.25 58.55 -165.9 51.75 L-166.05 51.75 -176.8 51.35 Q-182.0 50.8 -184.9 49.5 L-189.15 47.1 Q-196.3 41.8 -188.9 32.25 L-188.9 32.1 Q-192.4 22.65 -175.4 18.5 L-160.3 18.0 -146.4 19.1 -140.05 21.0 -127.3 26.75 -126.65 26.75 Q-108.25 0.1 -102.05 -1.5 -90.3 -12.3 -30.65 -23.8 L-30.15 -23.9 -29.55 -24.5 -29.8 -25.4 -38.15 -32.15 Q-42.75 -36.65 -42.05 -37.15 L-41.3 -38.15 Q-27.15 -35.85 -25.05 -37.25 -25.15 -38.9 -20.3 -54.5 L-20.3 -57.9 -20.4 -58.0 -22.3 -61.15 Q-34.6 -71.35 -36.15 -76.75 -38.5 -84.7 -32.55 -90.4 L-28.4 -93.4 Q-24.75 -94.35 -20.7 -96.25 L-20.1 -96.55 -17.5 -97.9 -17.25 -98.05 -17.05 -98.15 Q-15.6 -98.95 -14.05 -99.9 -12.05 -100.8 -8.5 -100.5 M15.3 -23.85 L11.35 -23.0 10.6 -22.75 4.6 -23.0 -2.8 -24.15 -4.9 -24.15 -5.3 -23.0 -2.65 -19.75 9.2 -10.15 M14.95 -18.5 L14.85 -18.5 9.1 -19.4 2.95 -19.4 M28.55 -23.75 L31.35 -21.9 36.6 -21.75 37.2 -21.4 36.85 -18.9 30.1 -10.65 29.35 -9.0 M29.85 -19.65 L24.9 -18.45 M38.45 -32.25 Q60.6 -36.85 76.2 -35.65 M90.2 -32.25 L95.2 -29.75 101.45 -24.9 M166.35 1.75 L166.2 1.35 165.35 -0.4 165.7 -0.9 170.35 1.35 183.45 9.5 201.2 21.75 218.85 32.1 232.95 34.25 234.6 33.85 235.2 33.35 234.85 32.6 Q229.55 31.3 226.1 29.75 L225.45 29.45 Q222.7 28.1 221.2 26.6 L219.7 25.75 215.85 22.6 213.1 19.0 212.85 18.1 210.85 17.6 Q199.0 14.9 197.45 9.5 196.75 9.55 197.35 4.85 L198.95 1.35 199.95 -0.25 198.2 -0.65 193.35 -2.25 190.35 -3.5 176.1 -10.5 174.7 -11.15 M177.2 -11.15 L177.1 -10.75 M190.35 -3.5 L195.5 -8.1 196.4 -8.95 198.4 -10.8 199.75 -12.1 199.95 -12.3 202.7 -14.9 203.05 -15.2 203.45 -15.65 203.7 -15.9 Q209.3 -22.15 205.45 -23.0 L200.1 -24.0 Q195.85 -24.5 191.1 -23.0 189.9 -22.95 185.95 -20.15 L180.2 -14.9 176.1 -10.5 M183.1 -16.9 L182.7 -16.75 M199.75 -12.1 L198.75 -10.95 198.4 -10.8 M195.5 -8.1 L195.95 -8.4 196.4 -8.95 M201.2 -2.15 L199.45 -1.75 198.2 -0.65 M199.95 -0.25 L201.2 -2.15 204.85 -6.75 210.45 -12.75 206.2 -13.65 205.85 -13.65 193.35 -2.25 M203.05 -15.2 L202.85 -14.9 200.7 -12.65 199.95 -12.3 M214.45 -12.4 L208.95 -6.75 202.7 1.35 Q199.35 8.05 201.95 9.5 210.55 15.95 219.7 15.9 228.65 15.8 238.1 9.5 L245.1 3.6 247.1 1.35 Q251.75 -2.85 249.7 -6.75 248.85 -8.55 244.95 -10.75 L235.45 -14.9 Q226.45 -18.9 217.95 -14.9 L214.45 -12.4 M211.1 -13.4 L212.7 -14.9 213.6 -15.5 M208.35 -16.4 L206.45 -16.15 205.7 -15.5 205.6 -14.9 205.85 -13.65 M210.45 -12.75 L211.1 -13.4 210.1 -14.75 209.9 -14.65 206.2 -13.65 M209.9 -14.65 L209.2 -14.75 M-15.8 -98.4 L-16.3 -98.25 -16.55 -98.25 -17.05 -98.15 M-13.55 -39.65 L-13.65 -39.25 -14.3 -35.4 -16.05 -32.9 -8.9 -34.65 M-5.05 -26.65 L-7.55 -26.5 -8.15 -26.75 -8.3 -27.75 -3.8 -33.0 -2.9 -34.65 -2.9 -35.75 -3.8 -36.25 -7.9 -36.15 -12.4 -39.25 -13.55 -39.65 M-7.55 -35.15 L-8.05 -35.0 M-5.05 -26.65 L-5.4 -26.4 -6.15 -26.4 -14.8 -25.75 M-16.05 -32.9 L-20.3 -32.75 -24.3 -33.15 -24.45 -33.3 -29.65 -34.15 -34.65 -33.9 M-24.45 -33.3 L-25.05 -34.15 -25.05 -37.25 M-27.55 -24.25 L-29.65 -23.9 -30.15 -23.65 -30.3 -23.65 -30.65 -23.8 M-147.55 28.0 L-157.65 32.5 -159.8 33.85 -164.05 37.75 -166.05 42.0 -166.65 45.35 -166.4 50.1 -166.05 51.75 M-123.9 28.6 L-124.8 27.35 -126.05 27.0 M-123.05 41.25 L-123.15 41.6 -124.3 41.25 -125.15 41.55 M-152.15 21.35 L-173.3 25.75 Q-186.55 29.05 -188.8 32.1 L-188.9 32.25 M-188.8 32.1 L-188.9 32.1 M251.7 14.35 L250.85 17.6 248.35 22.35 Q243.2 26.15 242.6 25.75 236.75 30.05 221.2 26.6 M252.2 2.5 L248.6 6.1 251.7 14.35 259.1 33.85 259.35 37.0 258.1 46.1 252.85 57.5 252.7 57.6 252.45 58.1 M248.6 6.1 L238.1 14.5 Q234.2 16.9 231.35 17.6 228.6 20.35 212.85 18.1 M218.85 32.1 L215.85 33.0 207.95 33.85 Q207.1 33.35 192.7 36.35 L189.85 37.35 186.95 37.0 183.85 33.85 182.95 33.1 180.6 29.5 180.45 29.5 M219.7 15.9 L223.95 16.0 M180.45 29.35 L180.6 29.35 180.6 29.5 M166.7 66.85 L169.35 82.6 169.35 90.25 M169.35 90.75 L168.2 102.5 M126.2 8.05 L129.45 25.75 142.6 74.5 144.35 82.6 145.95 101.25 145.7 109.25 M18.85 -29.25 L-5.05 -26.65" fill="none" stroke="#000000" stroke-linecap="round" stroke-linejoin="round" stroke-width="2.15"/>
  </g>
</svg>
