<?xml version="1.0" encoding="UTF-8" standalone="no"?>
<svg xmlns:xlink="http://www.w3.org/1999/xlink" height="260.7px" width="418.95px" xmlns="http://www.w3.org/2000/svg">
  <g transform="matrix(1.0, 0.0, 0.0, 1.0, 187.2, 109.55)">
    <path d="M28.95 -51.5 L29.1 -51.65 Q26.0 -56.7 26.2 -57.5 L26.1 -62.0 27.85 -67.0 Q35.1 -78.7 34.35 -79.65 L35.7 -85.65 Q36.0 -94.35 38.6 -103.25 40.85 -113.25 46.6 -104.25 51.75 -97.2 55.7 -97.9 L60.35 -98.65 78.35 -105.25 80.85 -105.0 81.85 -104.25 81.6 -102.25 77.95 -94.5 77.2 -91.75 77.7 -90.15 80.95 -89.5 99.35 -89.9 101.45 -89.15 100.6 -87.4 96.45 -84.9 87.35 -80.65 77.45 -76.9 58.95 -72.0 53.7 -69.9 43.7 -65.0 Q37.7 -61.45 39.2 -55.65 L39.2 -55.5 46.7 -43.75 Q47.7 -42.55 48.2 -39.25 L47.95 -36.65 46.6 -33.5 38.8 -19.0 38.35 -18.15 Q36.4 -14.75 35.7 -14.9 L34.7 -14.0 32.95 -13.9 25.4 -14.9 25.35 -14.9 Q24.0 -17.2 24.95 -18.75 L27.0 -22.0 33.7 -31.65 33.85 -31.75 38.1 -37.25 38.7 -39.25 38.6 -39.75 38.6 -39.9 38.7 -39.75 38.6 -39.75 38.7 -39.75 38.6 -39.9 38.1 -40.9 29.1 -51.5 28.95 -51.5 M146.1 8.85 L144.2 7.0 139.45 0.1 136.85 -3.9 133.6 -8.75 131.95 -11.0 126.6 -20.15 125.2 -23.5 125.95 -24.15 127.6 -24.15 138.35 -20.25 140.2 -19.4 142.2 -18.5 144.7 -6.75 144.7 -5.65 144.7 -3.9 Q136.85 -7.75 141.95 1.35 L143.2 4.25 146.1 8.85 M-34.55 -32.9 L-34.4 -33.0 -29.65 -49.0 -29.65 -52.4 -31.15 -55.25 Q-43.5 -65.6 -43.55 -72.65 L-43.05 -77.15 -40.65 -82.25 -38.15 -85.3 -38.05 -85.4 -37.8 -85.75 -37.65 -88.9 Q-37.05 -91.2 -35.4 -93.25 L-33.8 -94.4 -32.4 -94.65 -25.55 -94.0 -22.3 -94.5 -6.3 -100.15 -0.15 -101.5 Q2.7 -101.65 1.1 -98.25 36.9 -108.1 14.95 -96.15 L4.1 -90.5 -18.4 -81.4 -26.8 -76.9 -30.4 -73.75 -31.4 -71.4 -31.4 -69.65 -30.9 -68.25 -23.9 -60.0 Q-21.05 -56.2 -20.65 -54.15 L-20.4 -50.25 -22.9 -33.0 -23.15 -31.15 Q-23.8 -28.5 -25.4 -27.4 L-27.9 -27.4 -34.05 -28.2 -34.15 -28.25 -34.65 -29.25 -34.8 -31.15 -34.4 -32.9 -34.55 -32.9 M29.1 -51.65 L29.1 -51.5 29.1 -51.65 M170.95 -5.75 Q170.2 -5.2 169.45 -0.9 L169.95 1.35 170.6 3.1 172.45 5.35 176.2 7.5 183.6 9.6 186.95 13.85 Q189.35 16.2 192.2 17.6 L192.85 18.0 Q193.3 18.8 195.05 19.6 L195.7 19.85 Q198.75 21.0 204.95 22.1 L207.6 23.6 206.45 24.5 203.7 24.5 191.2 23.25 169.6 11.35 161.6 -8.65 162.7 -8.25 163.6 -7.9 167.95 -6.5 170.95 -5.75 M185.95 15.85 L195.05 19.6 185.95 15.85 M181.95 13.6 L182.65 13.85 182.7 13.85 185.2 15.35 185.6 15.5 185.2 15.35 182.7 13.85 182.65 13.85 181.95 13.6 M179.2 12.0 L179.6 12.1 179.2 12.0 M178.6 11.6 L178.95 11.75 178.6 11.6 M179.85 12.35 L180.2 12.5 179.85 12.35 M180.45 12.75 L180.85 12.85 180.45 12.75 M181.35 13.25 L181.85 13.35 181.35 13.25 M-37.8 -85.75 L-37.7 -85.8 -37.15 -86.4 -37.7 -85.8 -38.05 -85.4 -37.7 -85.8 -37.8 -85.75 M-34.4 -33.0 L-34.4 -32.9 -34.4 -33.0 M-2.8 -97.5 L0.7 -98.15 -2.8 -97.5" fill="#fa410f" fill-rule="evenodd" stroke="none"/>
    <path d="M39.2 -55.65 Q61.0 -64.15 77.6 -63.65 85.7 -61.15 78.85 -53.65 67.75 -42.9 47.95 -36.65 L48.2 -39.25 Q47.7 -42.55 46.7 -43.75 L39.2 -55.5 39.2 -55.65 M46.6 -33.5 Q80.2 -37.45 100.85 -20.65 119.15 -6.45 141.2 35.5 L141.35 35.5 Q139.75 23.65 147.95 14.1 L147.2 10.6 147.1 9.5 144.7 -3.9 144.7 -5.65 144.7 -6.75 142.2 -18.5 141.6 -21.0 141.35 -23.0 141.2 -23.4 Q138.1 -42.85 140.45 -43.0 L141.1 -43.75 142.85 -43.15 145.95 -39.25 151.2 -29.5 152.1 -27.9 160.6 -10.75 161.6 -8.65 169.6 11.35 174.2 26.5 188.35 24.25 191.2 23.25 203.7 24.5 206.45 24.5 207.6 23.6 204.95 22.1 Q198.75 21.0 195.7 19.85 L195.05 19.6 Q193.3 18.8 192.85 18.0 206.5 20.4 209.95 17.6 216.6 15.9 219.2 9.5 L220.2 6.25 Q231.45 21.1 220.7 43.5 214.6 59.4 180.45 70.1 182.4 84.35 170.1 99.6 L164.45 105.0 161.35 107.25 152.35 111.75 141.85 119.75 136.95 123.0 Q129.4 127.4 115.1 132.6 L85.2 142.75 Q50.45 151.4 32.7 149.85 -14.3 149.4 -54.8 128.25 -89.55 110.4 -112.3 66.35 L-114.15 62.1 -114.2 62.2 Q-120.5 71.4 -125.55 72.0 L-127.15 72.6 -131.15 73.1 Q-138.8 73.2 -141.4 66.35 L-141.85 65.55 -141.9 65.5 -160.4 67.1 -165.05 66.85 -171.3 65.35 Q-179.0 61.8 -177.9 55.5 -178.5 55.9 -182.8 52.6 L-185.15 49.6 -186.15 46.25 -185.8 42.25 Q-185.0 36.3 -169.4 32.6 -139.7 29.25 -125.9 33.85 L-117.55 37.25 -117.3 37.25 -117.15 37.25 -116.9 36.1 Q-110.55 14.85 -98.65 6.1 -81.8 -6.1 -39.4 -18.5 L-39.05 -19.25 -39.65 -20.0 -50.9 -28.5 Q-54.75 -33.0 -50.8 -32.0 -43.3 -30.7 -39.8 -31.15 L-34.55 -32.9 -34.4 -32.9 -34.8 -31.15 -34.65 -29.25 -34.15 -28.25 -34.05 -28.2 -41.3 -27.9 -43.3 -28.15 -41.3 -27.9 -34.05 -28.2 -27.9 -27.4 -25.4 -27.4 Q-23.8 -28.5 -23.15 -31.15 L-22.9 -33.0 -18.65 -31.4 -11.4 -31.5 -10.65 -31.0 -10.9 -29.4 -11.9 -28.0 -16.8 -23.4 -17.05 -22.4 -16.65 -22.0 -14.55 -22.05 -13.05 -22.15 -12.2 -22.3 1.95 -25.15 Q7.45 -43.95 28.95 -51.5 L29.1 -51.5 38.1 -40.9 38.6 -39.9 38.6 -39.75 38.7 -39.25 38.1 -37.25 33.85 -31.75 33.7 -31.65 27.0 -22.0 24.95 -18.75 Q24.0 -17.2 25.35 -14.9 L25.4 -14.9 32.95 -13.9 34.7 -14.0 35.7 -14.9 Q36.4 -14.75 38.35 -18.15 L38.8 -19.0 46.6 -33.5 M-12.2 -22.3 L-1.55 -23.45 -0.8 -23.75 0.35 -23.9 0.45 -23.9 1.6 -24.15 2.1 -24.15 2.85 -24.35 3.85 -24.5 4.6 -24.65 6.2 -24.75 4.6 -24.65 3.85 -24.5 2.85 -24.35 2.1 -24.15 1.6 -24.15 0.45 -23.9 0.35 -23.9 -0.8 -23.75 -1.55 -23.45 -12.2 -22.3 M18.7 -7.75 L5.2 -17.15 4.45 -18.9 4.85 -19.15 13.95 -18.25 18.2 -18.5 21.1 -19.4 27.0 -22.0 21.1 -19.4 18.2 -18.5 13.95 -18.25 4.85 -19.15 4.45 -18.9 5.2 -17.15 18.7 -7.75 M14.95 -15.0 L15.6 -14.9 16.45 -14.65 25.35 -14.9 16.45 -14.65 15.6 -14.9 14.95 -15.0 M7.35 -25.0 L6.85 -25.0 7.35 -25.0 M38.8 -19.0 Q42.6 -17.9 49.35 -18.25 L49.7 -17.25 48.6 -14.9 47.45 -13.15 41.2 -6.75 40.35 -5.25 41.2 -6.75 47.45 -13.15 48.6 -14.9 49.7 -17.25 49.35 -18.25 Q42.6 -17.9 38.8 -19.0 M1.95 -25.15 L33.7 -31.65 1.95 -25.15 M34.7 -14.0 L38.85 -14.9 34.7 -14.0 M150.2 18.5 L150.1 17.6 149.95 17.0 149.85 16.35 144.7 -5.65 149.85 16.35 149.95 17.0 150.1 17.6 150.2 18.5 M180.45 70.1 L179.85 58.25 177.6 42.0 174.2 26.5 177.6 42.0 179.85 58.25 180.45 70.1 M149.7 99.5 L151.35 90.75 152.45 78.6 152.2 62.75 152.45 78.6 151.35 90.75 149.7 99.5 M141.45 36.25 L147.6 50.1 151.95 61.85 152.1 61.85 149.6 33.85 149.35 25.75 149.6 22.25 149.6 22.1 147.95 14.1 149.6 22.1 149.6 22.25 151.7 33.85 151.85 35.6 151.7 33.85 149.6 22.25 149.35 25.75 149.6 33.85 152.1 61.85 151.95 61.85 147.6 50.1 141.45 36.25 141.2 35.5 141.45 36.25 141.35 35.5 141.45 36.25 M149.95 17.0 L149.7 16.85 149.85 16.35 149.7 16.85 149.95 17.0 M-19.65 -28.5 L-25.4 -27.4 -19.65 -28.5 M-177.9 55.5 L-177.8 53.75 Q-176.85 50.3 -176.15 50.1 -173.35 45.4 -164.3 42.0 L-144.3 35.75 -164.3 42.0 Q-173.35 45.4 -176.15 50.1 -176.85 50.3 -177.8 53.75 L-177.9 55.5 M-114.2 62.2 L-111.55 53.1 -111.5 52.1 -111.4 50.1 -111.3 49.75 -111.3 47.35 -111.3 49.75 -111.4 50.1 -111.5 52.1 -109.8 52.35 -109.8 51.25 -109.8 52.35 -111.5 52.1 -111.55 53.1 -114.2 62.2 M-141.85 65.55 L-142.8 61.5 -142.8 58.25 -141.65 53.25 -139.05 49.1 -132.8 43.6 -139.05 49.1 -141.65 53.25 -142.8 58.25 -142.8 61.5 -141.85 65.55 M-117.3 37.25 L-116.15 37.6 -117.3 37.25 M-115.8 38.0 L-115.3 37.9 -113.55 38.0 -111.3 39.5 -113.55 38.0 -115.3 37.9 -115.8 38.0" fill="#ffffff" fill-rule="evenodd" stroke="none"/>
    <path d="M139.45 0.1 Q126.7 -2.6 131.95 -11.0 L133.6 -8.75 136.85 -3.9 134.95 -4.75 133.85 -5.9 133.6 -6.75 133.35 -8.15 133.6 -8.75 133.35 -8.15 133.6 -6.75 133.85 -5.9 134.95 -4.75 136.85 -3.9 139.45 0.1 M138.35 -20.25 L141.2 -23.4 141.35 -23.0 141.6 -21.0 140.2 -19.4 141.6 -21.0 142.2 -18.5 140.2 -19.4 138.35 -20.25 M151.2 -29.5 Q182.15 -33.7 174.85 -21.65 L177.7 -21.9 181.7 -21.0 Q190.6 -28.75 207.95 -23.0 234.5 -17.45 226.35 -5.65 L227.35 -5.15 227.85 -4.0 228.1 -3.15 230.45 19.6 230.7 28.0 Q230.25 37.6 225.6 47.25 223.7 49.3 220.85 46.1 L226.1 33.85 Q227.2 30.8 227.85 24.5 228.25 23.9 225.95 13.1 L222.85 -1.4 219.95 1.5 214.85 6.0 Q210.7 9.0 208.1 9.5 202.85 12.9 183.6 9.6 L176.2 7.5 172.45 5.35 170.6 3.1 169.95 1.35 169.45 -0.9 Q170.2 -5.2 170.95 -5.75 L172.7 -9.4 177.45 -16.5 179.35 -18.65 177.7 -20.15 172.95 -19.15 172.45 -18.5 162.7 -8.25 161.6 -8.65 160.6 -10.75 152.1 -27.9 151.2 -29.5 M160.6 -10.75 L169.45 -20.25 171.1 -23.0 Q175.35 -30.6 152.1 -27.9 175.35 -30.6 171.1 -23.0 L169.45 -20.25 160.6 -10.75 M172.95 -19.15 L172.7 -20.5 173.2 -21.25 174.85 -21.65 173.2 -21.25 172.7 -20.5 172.95 -19.15 M181.7 -21.0 L179.35 -18.65 181.7 -21.0 M175.45 -6.75 L180.7 -14.9 Q190.15 -30.65 221.35 -14.9 225.0 -13.7 221.45 -6.75 L219.95 -4.65 213.95 1.35 Q207.4 7.65 199.75 8.35 L199.25 8.35 198.45 8.4 197.85 8.4 194.45 8.1 193.85 8.05 192.1 7.95 191.6 7.9 Q179.0 6.65 174.35 1.35 172.25 -1.1 175.45 -6.75 172.25 -1.1 174.35 1.35 179.0 6.65 191.6 7.9 L192.1 7.95 193.85 8.05 194.45 8.1 197.85 8.4 198.45 8.4 199.25 8.35 199.75 8.35 Q207.4 7.65 213.95 1.35 L219.95 -4.65 221.45 -6.75 Q225.0 -13.7 221.35 -14.9 190.15 -30.65 180.7 -14.9 L175.45 -6.75 M222.85 -1.4 L226.35 -5.65 222.85 -1.4" fill="#43396f" fill-rule="evenodd" stroke="none"/>
    <path d="M219.95 1.5 L220.2 6.25 219.2 9.5 Q216.6 15.9 209.95 17.6 206.5 20.4 192.85 18.0 L192.2 17.6 Q189.35 16.2 186.95 13.85 L183.6 9.6 Q202.85 12.9 208.1 9.5 210.7 9.0 214.85 6.0 L219.95 1.5 M172.45 -18.5 L177.45 -16.5 172.7 -9.4 170.95 -5.75 167.95 -6.5 167.85 -6.75 166.2 -7.9 164.7 -8.15 163.6 -7.9 162.7 -8.25 172.45 -18.5" fill="#ff7a16" fill-rule="evenodd" stroke="none"/>
    <path d="M167.95 -6.5 L163.6 -7.9 164.7 -8.15 166.2 -7.9 167.85 -6.75 167.95 -6.5" fill="#000000" fill-rule="evenodd" stroke="none"/>
    <path d="M147.2 10.6 L146.35 9.35 146.1 8.85 143.2 4.25 141.95 1.35 Q136.85 -7.75 144.7 -3.9 L147.1 9.5 147.2 10.6 M169.6 11.35 L191.2 23.25 188.35 24.25 174.2 26.5 169.6 11.35" fill="#fa420e" fill-rule="evenodd" stroke="none"/>
    <path d="M28.95 -51.5 L29.1 -51.65 Q26.0 -56.7 26.2 -57.5 L26.1 -62.0 27.85 -67.0 Q35.1 -78.7 34.35 -79.65 L35.7 -85.65 Q36.0 -94.35 38.6 -103.25 40.85 -113.25 46.6 -104.25 51.75 -97.2 55.7 -97.9 L60.35 -98.65 78.35 -105.25 80.85 -105.0 81.85 -104.25 81.6 -102.25 77.95 -94.5 77.2 -91.75 77.7 -90.15 80.95 -89.5 99.35 -89.9 101.45 -89.15 100.6 -87.4 96.45 -84.9 87.35 -80.65 77.45 -76.9 58.95 -72.0 53.7 -69.9 43.7 -65.0 Q37.7 -61.45 39.2 -55.65 61.0 -64.15 77.6 -63.65 85.7 -61.15 78.85 -53.65 67.75 -42.9 47.95 -36.65 L46.6 -33.5 Q80.2 -37.45 100.85 -20.65 119.15 -6.45 141.2 35.5 L141.35 35.5 Q139.75 23.65 147.95 14.1 L147.2 10.6 146.35 9.35 146.1 8.85 144.2 7.0 139.45 0.1 Q126.7 -2.6 131.95 -11.0 L126.6 -20.15 125.2 -23.5 125.95 -24.15 127.6 -24.15 138.35 -20.25 141.2 -23.4 Q138.1 -42.85 140.45 -43.0 L141.1 -43.75 142.85 -43.15 145.95 -39.25 151.2 -29.5 Q182.15 -33.7 174.85 -21.65 L177.7 -21.9 181.7 -21.0 Q190.6 -28.75 207.95 -23.0 234.5 -17.45 226.35 -5.65 L227.35 -5.15 227.85 -4.0 228.1 -3.15 230.45 19.6 230.7 28.0 Q230.25 37.6 225.6 47.25 223.7 49.3 220.85 46.1 L226.1 33.85 Q227.2 30.8 227.85 24.5 228.25 23.9 225.95 13.1 L222.85 -1.4 219.95 1.5 220.2 6.25 Q231.45 21.1 220.7 43.5 214.6 59.4 180.45 70.1 182.4 84.35 170.1 99.6 L164.45 105.0 161.35 107.25 152.35 111.75 141.85 119.75 136.95 123.0 Q129.4 127.4 115.1 132.6 L85.2 142.75 Q50.45 151.4 32.7 149.85 -14.3 149.4 -54.8 128.25 -89.55 110.4 -112.3 66.35 L-114.15 62.1 -114.2 62.2 Q-120.5 71.4 -125.55 72.0 L-127.15 72.6 -131.15 73.1 Q-138.8 73.2 -141.4 66.35 L-141.85 65.55 -141.9 65.5 -160.4 67.1 -165.05 66.85 -171.3 65.35 Q-179.0 61.8 -177.9 55.5 -178.5 55.9 -182.8 52.6 L-185.15 49.6 -186.15 46.25 -185.8 42.25 Q-185.0 36.3 -169.4 32.6 -139.7 29.25 -125.9 33.85 L-117.55 37.25 -117.3 37.25 -117.15 37.25 -116.9 36.1 Q-110.55 14.85 -98.65 6.1 -81.8 -6.1 -39.4 -18.5 L-39.05 -19.25 -39.65 -20.0 -50.9 -28.5 Q-54.75 -33.0 -50.8 -32.0 -43.3 -30.7 -39.8 -31.15 L-34.55 -32.9 -34.4 -33.0 -29.65 -49.0 -29.65 -52.4 -31.15 -55.25 Q-43.5 -65.6 -43.55 -72.65 L-43.05 -77.15 -40.65 -82.25 -38.15 -85.3 -38.05 -85.4 -37.8 -85.75 -37.65 -88.9 Q-37.05 -91.2 -35.4 -93.25 L-33.8 -94.4 -32.4 -94.65 -25.55 -94.0 -22.3 -94.5 -6.3 -100.15 -0.15 -101.5 Q2.7 -101.65 1.1 -98.25 36.9 -108.1 14.95 -96.15 L4.1 -90.5 -18.4 -81.4 -26.8 -76.9 -30.4 -73.75 -31.4 -71.4 -31.4 -69.65 -30.9 -68.25 -23.9 -60.0 Q-21.05 -56.2 -20.65 -54.15 L-20.4 -50.25 -22.9 -33.0 -18.65 -31.4 -11.4 -31.5 -10.65 -31.0 -10.9 -29.4 -11.9 -28.0 -16.8 -23.4 -17.05 -22.4 -16.65 -22.0 -14.55 -22.05 -12.2 -22.3 1.95 -25.15 Q7.45 -43.95 28.95 -51.5 L29.1 -51.5 29.1 -51.65 M47.95 -36.65 L48.2 -39.25 Q47.7 -42.55 46.7 -43.75 L39.2 -55.5 39.2 -55.65 M38.6 -39.9 L38.6 -39.75 38.7 -39.75 38.6 -39.9 38.1 -40.9 29.1 -51.5 M38.6 -39.75 L38.7 -39.25 38.1 -37.25 33.85 -31.75 33.7 -31.65 27.0 -22.0 24.95 -18.75 Q24.0 -17.2 25.35 -14.9 L25.4 -14.9 32.95 -13.9 34.7 -14.0 35.7 -14.9 Q36.4 -14.75 38.35 -18.15 L38.8 -19.0 46.6 -33.5 M6.85 -25.0 L7.35 -25.0 M25.35 -14.9 L16.45 -14.65 15.6 -14.9 14.95 -15.0 M27.0 -22.0 L21.1 -19.4 18.2 -18.5 13.95 -18.25 4.85 -19.15 4.45 -18.9 5.2 -17.15 18.7 -7.75 M6.2 -24.75 L4.6 -24.65 3.85 -24.5 2.85 -24.35 2.1 -24.15 1.6 -24.15 0.45 -23.9 0.35 -23.9 -0.8 -23.75 -1.55 -23.45 -12.2 -22.3 -13.05 -22.15 -14.55 -22.05 M38.85 -14.9 L34.7 -14.0 M33.7 -31.65 L1.95 -25.15 M40.35 -5.25 L41.2 -6.75 47.45 -13.15 48.6 -14.9 49.7 -17.25 49.35 -18.25 Q42.6 -17.9 38.8 -19.0 M161.6 -8.65 L160.6 -10.75 152.1 -27.9 151.2 -29.5 M141.6 -21.0 L141.35 -23.0 141.2 -23.4 M142.2 -18.5 L140.2 -19.4 138.35 -20.25 M140.2 -19.4 L141.6 -21.0 142.2 -18.5 144.7 -6.75 144.7 -5.65 149.85 16.35 149.95 17.0 150.1 17.6 150.2 18.5 M133.6 -8.75 L133.35 -8.15 133.6 -6.75 133.85 -5.9 134.95 -4.75 136.85 -3.9 133.6 -8.75 131.95 -11.0 M144.7 -3.9 L144.7 -5.65 M177.45 -16.5 L179.35 -18.65 177.7 -20.15 172.95 -19.15 172.45 -18.5 177.45 -16.5 172.7 -9.4 170.95 -5.75 Q170.2 -5.2 169.45 -0.9 L169.95 1.35 170.6 3.1 172.45 5.35 176.2 7.5 183.6 9.6 Q202.85 12.9 208.1 9.5 210.7 9.0 214.85 6.0 L219.95 1.5 M179.35 -18.65 L181.7 -21.0 M174.85 -21.65 L173.2 -21.25 172.7 -20.5 172.95 -19.15 M152.1 -27.9 Q175.35 -30.6 171.1 -23.0 L169.45 -20.25 160.6 -10.75 M170.95 -5.75 L167.95 -6.5 163.6 -7.9 162.7 -8.25 161.6 -8.65 169.6 11.35 191.2 23.25 203.7 24.5 206.45 24.5 207.6 23.6 204.95 22.1 Q198.75 21.0 195.7 19.85 L195.05 19.6 185.95 15.85 M167.95 -6.5 L167.85 -6.75 166.2 -7.9 164.7 -8.15 163.6 -7.9 M175.45 -6.75 Q172.25 -1.1 174.35 1.35 179.0 6.65 191.6 7.9 L192.1 7.95 193.85 8.05 194.45 8.1 197.85 8.4 198.45 8.4 199.25 8.35 199.75 8.35 Q207.4 7.65 213.95 1.35 L219.95 -4.65 221.45 -6.75 Q225.0 -13.7 221.35 -14.9 190.15 -30.65 180.7 -14.9 L175.45 -6.75 M172.45 -18.5 L162.7 -8.25 M226.35 -5.65 L222.85 -1.4 M192.85 18.0 Q206.5 20.4 209.95 17.6 216.6 15.9 219.2 9.5 L220.2 6.25 M169.6 11.35 L174.2 26.5 188.35 24.25 191.2 23.25 M185.6 15.5 L185.2 15.35 182.7 13.85 182.65 13.85 181.95 13.6 M183.6 9.6 L186.95 13.85 Q189.35 16.2 192.2 17.6 L192.85 18.0 Q193.3 18.8 195.05 19.6 M181.85 13.35 L181.35 13.25 M180.85 12.85 L180.45 12.75 M180.2 12.5 L179.85 12.35 M178.95 11.75 L178.6 11.6 M179.6 12.1 L179.2 12.0 M174.2 26.5 L177.6 42.0 179.85 58.25 180.45 70.1 M146.1 8.85 L143.2 4.25 141.95 1.35 Q136.85 -7.75 144.7 -3.9 L147.1 9.5 147.2 10.6 M149.85 16.35 L149.7 16.85 149.95 17.0 M147.95 14.1 L149.6 22.1 149.6 22.25 151.7 33.85 151.85 35.6 M141.2 35.5 L141.45 36.25 141.35 35.5 M149.6 22.25 L149.35 25.75 149.6 33.85 152.1 61.85 151.95 61.85 147.6 50.1 141.45 36.25 M152.2 62.75 L152.45 78.6 151.35 90.75 149.7 99.5 M139.45 0.1 L136.85 -3.9 M-37.15 -86.4 L-37.7 -85.8 -38.05 -85.4 M-37.7 -85.8 L-37.8 -85.75 M-34.05 -28.2 L-41.3 -27.9 -43.3 -28.15 M-34.05 -28.2 L-34.15 -28.25 -34.65 -29.25 -34.8 -31.15 -34.4 -32.9 -34.55 -32.9 M-34.4 -32.9 L-34.4 -33.0 M-22.9 -33.0 L-23.15 -31.15 Q-23.8 -28.5 -25.4 -27.4 L-19.65 -28.5 M-25.4 -27.4 L-27.9 -27.4 -34.05 -28.2 M-111.3 39.5 L-113.55 38.0 -115.3 37.9 -115.8 38.0 M-116.15 37.6 L-117.3 37.25 M-132.8 43.6 L-139.05 49.1 -141.65 53.25 -142.8 58.25 -142.8 61.5 -141.85 65.55 M-111.3 47.35 L-111.3 49.75 -111.4 50.1 -111.5 52.1 -109.8 52.35 -109.8 51.25 M-111.5 52.1 L-111.55 53.1 -114.2 62.2 M-144.3 35.75 L-164.3 42.0 Q-173.35 45.4 -176.15 50.1 -176.85 50.3 -177.8 53.75 L-177.9 55.5 M0.7 -98.15 L-2.8 -97.5" fill="none" stroke="#000000" stroke-linecap="round" stroke-linejoin="round" stroke-width="2.15"/>
  </g>
</svg>
