<?xml version="1.0" encoding="UTF-8" standalone="no"?>
<svg xmlns:xlink="http://www.w3.org/1999/xlink" height="263.05px" width="360.2px" xmlns="http://www.w3.org/2000/svg">
  <g transform="matrix(1.0, 0.0, 0.0, 1.0, 167.5, 114.25)">
    <path d="M34.85 -67.25 Q35.2 -70.4 39.6 -79.5 L39.95 -81.65 40.1 -84.75 Q37.15 -102.6 38.45 -109.15 38.95 -115.0 42.45 -112.4 49.15 -106.15 52.6 -104.4 L57.35 -103.15 62.1 -103.9 Q80.4 -112.2 80.45 -110.75 L82.35 -109.9 82.6 -109.0 80.6 -100.65 80.45 -98.75 80.6 -97.65 81.6 -96.4 Q82.7 -95.3 105.85 -96.15 109.4 -95.7 100.2 -90.5 L86.7 -84.25 Q64.25 -78.1 61.6 -76.15 L51.45 -70.9 Q48.5 -69.2 47.85 -67.25 L46.95 -65.75 46.45 -63.65 46.45 -61.15 47.35 -59.0 Q56.0 -46.7 51.45 -39.15 L44.6 -24.0 42.95 -20.9 41.7 -19.5 41.2 -19.5 36.85 -20.15 32.2 -19.9 31.45 -21.75 31.6 -23.0 32.85 -26.15 33.55 -27.25 40.6 -38.9 40.7 -39.0 43.2 -42.75 43.85 -44.9 43.1 -47.15 39.85 -51.75 35.2 -60.4 34.6 -63.65 34.85 -67.25 M-12.8 -101.9 L-11.3 -102.0 Q-11.1 -101.5 7.85 -107.0 L13.35 -107.9 14.35 -107.4 13.7 -106.0 11.6 -104.25 Q4.5 -97.7 -26.3 -83.4 L-31.3 -80.0 -33.55 -77.65 -34.4 -74.9 -34.4 -71.75 -28.9 -62.5 Q-28.0 -61.45 -26.8 -56.15 L-26.8 -53.0 -29.05 -34.65 -29.3 -32.75 -30.05 -31.15 -30.8 -30.0 -31.15 -30.0 -39.55 -30.5 -39.65 -30.5 -39.9 -31.15 -40.3 -34.25 -39.8 -36.75 -36.05 -51.25 -35.8 -55.5 -35.8 -55.65 -36.9 -58.65 Q-41.75 -64.15 -44.8 -70.65 -46.05 -73.9 -45.8 -78.65 L-44.7 -84.75 -44.65 -85.0 -46.15 -87.15 -46.3 -87.2 Q-48.0 -87.85 -50.3 -91.15 L-51.55 -94.75 -51.3 -97.15 -50.15 -98.15 -48.8 -98.4 -39.4 -97.75 -35.4 -98.15 Q-10.65 -110.6 -12.9 -104.25 L-12.8 -101.9 -13.15 -102.0 -12.8 -101.9 M101.7 -30.4 L109.2 -27.0 123.7 -18.25 126.85 -16.4 129.6 -14.9 135.35 -13.25 135.1 -8.75 135.95 -6.75 Q136.9 -4.3 139.1 -2.75 L144.95 -0.4 145.1 -0.4 146.4 3.45 147.2 6.0 145.45 6.0 144.6 6.6 144.2 7.6 138.1 4.25 122.85 -6.75 118.35 -9.4 111.85 -12.0 109.85 -11.65 109.35 -11.4 108.7 -10.15 102.95 -16.25 102.85 -16.4 102.85 -16.5 99.1 -27.15 98.6 -30.15 98.85 -30.5 100.45 -30.75 101.7 -30.4 M138.45 -1.4 L138.7 -1.4 140.65 -0.35 141.25 0.15 146.4 3.45 141.25 0.15 140.65 -0.35 138.7 -1.4 138.45 -1.4 M-44.7 -84.75 L-44.3 -85.75 -44.7 -84.75 M-46.3 -87.2 L-46.55 -87.65 -46.3 -87.2 M-35.8 -55.65 L-35.65 -55.5 -35.8 -55.5 -35.65 -55.5 -35.8 -55.65" fill="#fa410f" fill-rule="evenodd" stroke="none"/>
    <path d="M34.85 -67.25 L34.6 -63.65 35.2 -60.4 39.85 -51.75 Q30.6 -44.35 12.85 -38.15 L11.35 -36.9 11.7 -36.25 17.1 -35.5 27.95 -37.65 40.6 -38.9 33.55 -27.25 32.85 -26.15 31.6 -23.0 31.45 -21.75 32.2 -19.9 36.85 -20.15 41.2 -19.5 41.7 -19.5 42.95 -20.9 44.6 -24.0 51.45 -39.15 Q73.0 -38.45 94.35 -24.0 L96.2 -22.4 102.85 -16.5 102.85 -16.4 102.95 -16.25 108.7 -10.15 117.95 1.35 131.1 20.75 142.1 17.6 143.85 17.35 143.7 9.5 144.2 7.6 144.6 6.6 145.45 6.0 147.2 6.0 146.4 3.45 145.1 -0.4 145.1 -0.5 145.1 -0.4 144.95 -0.4 145.1 -0.5 143.7 -4.5 141.85 -11.5 141.45 -14.9 141.7 -18.25 141.6 -18.25 141.7 -18.5 141.85 -19.0 143.6 -20.15 144.35 -20.15 146.6 -19.0 146.7 -19.0 144.95 -24.9 144.95 -25.0 144.95 -24.9 144.85 -24.9 144.95 -25.0 143.7 -29.15 Q135.7 -62.75 148.7 -47.4 L157.35 -33.5 158.7 -31.15 158.7 -31.0 167.2 -14.9 172.45 -3.0 173.85 0.25 175.7 5.85 177.6 4.25 179.85 0.0 Q189.9 17.2 181.2 33.0 L177.85 12.25 175.7 5.85 177.85 12.25 181.2 33.0 181.35 34.5 181.2 35.75 181.35 35.85 181.35 36.0 180.95 51.35 Q179.7 62.5 176.45 69.6 L171.6 77.85 157.7 92.5 Q135.2 105.05 127.2 113.35 L117.45 119.1 101.6 127.5 73.1 140.25 47.85 146.35 20.7 147.75 7.45 146.85 Q-10.6 144.2 -20.9 141.6 L-45.4 131.75 Q-78.65 114.1 -98.4 78.5 L-101.8 77.0 -105.55 73.25 -107.4 69.75 Q-133.4 77.65 -139.4 74.85 -146.15 73.95 -147.4 65.6 L-153.65 65.0 Q-156.9 64.4 -161.65 61.6 L-164.55 58.5 -165.9 55.1 Q-169.1 47.8 -153.05 40.25 -136.05 34.75 -109.05 35.75 -109.15 17.95 -75.95 -5.0 L-75.8 -5.15 -75.65 -5.25 -75.5 -5.3 -74.9 -5.65 -74.8 -5.75 -74.05 -6.15 -73.9 -6.25 -73.4 -6.5 -73.3 -6.65 -73.15 -6.65 -73.05 -6.75 -72.55 -7.0 -72.4 -7.15 -72.3 -7.15 -72.15 -7.25 -71.65 -7.5 -71.55 -7.65 -60.65 -13.5 Q-52.3 -17.65 -45.4 -19.75 L-44.55 -20.5 -44.4 -21.15 -44.9 -21.75 -56.55 -30.65 Q-60.0 -34.9 -55.65 -33.65 -47.1 -30.85 -39.8 -36.75 L-40.3 -34.25 -39.9 -31.15 -39.65 -30.5 -39.55 -30.5 -31.15 -30.0 -30.8 -30.0 -30.05 -31.15 -29.3 -32.75 -29.05 -34.65 -24.8 -34.0 Q-18.85 -53.4 34.85 -67.25 M47.35 -59.0 L46.45 -61.15 46.45 -63.65 46.95 -65.75 47.85 -67.25 Q52.1 -64.9 47.35 -59.0 M25.1 -13.5 L14.7 -20.4 Q11.65 -22.85 12.35 -23.0 L12.6 -23.5 14.7 -23.5 19.85 -22.75 22.6 -23.0 25.35 -24.0 29.45 -26.75 31.85 -27.5 33.55 -27.25 31.85 -27.5 29.45 -26.75 25.35 -24.0 22.6 -23.0 19.85 -22.75 14.7 -23.5 12.6 -23.5 12.35 -23.0 Q11.65 -22.85 14.7 -20.4 L25.1 -13.5 M41.7 -19.5 L45.1 -19.75 45.95 -20.0 45.1 -19.75 41.7 -19.5 M46.85 -10.15 L46.95 -11.15 54.85 -20.15 56.1 -23.0 55.95 -24.0 54.6 -24.25 44.6 -24.0 54.6 -24.25 55.95 -24.0 56.1 -23.0 54.85 -20.15 46.95 -11.15 46.85 -10.15 M21.6 -20.5 Q25.0 -19.3 27.7 -19.5 L32.2 -19.9 27.7 -19.5 Q25.0 -19.3 21.6 -20.5 M152.35 3.5 L150.2 -6.75 146.7 -19.0 150.2 -6.75 152.35 3.5 M141.7 -18.5 L141.7 -18.25 141.7 -18.5 M131.1 20.75 L139.7 38.1 144.45 52.75 145.95 60.6 146.05 60.55 146.35 60.25 146.6 58.25 146.95 50.1 146.6 42.0 143.85 17.6 143.85 17.35 143.85 17.6 146.6 42.0 146.95 50.1 146.6 58.25 146.35 60.25 146.05 60.55 146.7 66.35 146.7 69.1 144.35 82.6 141.7 90.75 144.35 82.6 146.7 69.1 146.7 66.35 146.05 60.55 145.95 60.6 144.45 52.75 139.7 38.1 131.1 20.75 M150.95 24.0 L150.2 17.6 148.35 9.5 147.2 6.0 148.35 9.5 150.2 17.6 150.95 24.0 M-23.05 -25.15 L-22.8 -24.65 -22.15 -24.5 -20.15 -24.5 -14.75 -25.35 -14.05 -25.65 -13.55 -25.65 -13.05 -25.75 -12.4 -26.0 -11.8 -26.15 -11.15 -26.15 -11.8 -26.15 -12.4 -26.0 -13.05 -25.75 -13.55 -25.65 -14.05 -25.65 -14.75 -25.35 -20.15 -24.5 -22.15 -24.5 -22.8 -24.65 -23.05 -25.15 -22.4 -26.4 -17.65 -31.15 Q-15.65 -32.75 -16.65 -34.4 L-24.8 -34.0 -16.65 -34.4 Q-15.65 -32.75 -17.65 -31.15 L-22.4 -26.4 -23.05 -25.15 -6.8 -29.25 -0.9 -31.15 17.1 -35.5 -0.9 -31.15 -6.8 -29.25 -23.05 -25.15 M-75.95 -5.0 L-75.5 -5.3 -75.95 -5.0 M-48.9 -30.65 Q-47.35 -29.95 -43.55 -30.0 L-39.55 -30.5 -43.55 -30.0 Q-47.35 -29.95 -48.9 -30.65 M-107.4 69.5 L-108.15 66.35 -108.55 60.35 -108.05 58.25 -106.05 52.75 -108.05 58.25 -108.55 60.35 -108.15 66.35 -107.4 69.5 M-147.4 65.6 L-147.4 62.1 Q-147.0 58.8 -146.3 58.25 L-144.55 55.25 Q-143.4 53.55 -138.3 50.1 L-121.9 41.1 -138.3 50.1 Q-143.4 53.55 -144.55 55.25 L-146.3 58.25 Q-147.0 58.8 -147.4 62.1 L-147.4 65.6 M-94.0 40.05 L-92.3 40.0 -89.3 41.25 -92.3 40.0 -94.0 40.05 -92.8 40.6 -92.65 40.75 -92.55 40.75 -92.3 41.0 -92.0 41.2 -90.65 42.0 -87.9 44.75 -85.3 50.1 -84.3 53.1 -83.3 58.25 -83.05 64.35 -84.15 69.75 Q-85.55 73.1 -87.4 74.5 -92.15 79.5 -98.4 78.5 -92.15 79.5 -87.4 74.5 -85.55 73.1 -84.15 69.75 L-83.05 64.35 -83.3 58.25 -84.3 53.1 -85.3 50.1 -87.9 44.75 -90.65 42.0 -92.0 41.2 -92.3 41.0 -92.55 40.75 -92.65 40.75 -92.8 40.6 -94.0 40.05 -97.15 38.6 -97.3 38.5 -103.8 36.6 -109.05 35.75 -103.8 36.6 -97.3 38.5 -97.15 38.6 -94.0 40.05 M-92.0 41.2 L-92.3 40.85 -92.3 41.0 -92.3 40.85 -92.55 40.75 -92.3 40.85 -92.0 41.2 M-25.9 -30.65 L-27.4 -30.15 -30.8 -30.0 -27.4 -30.15 -25.9 -30.65" fill="#ffffff" fill-rule="evenodd" stroke="none"/>
    <path d="M101.7 -30.4 L102.35 -31.15 Q106.1 -35.45 120.35 -35.5 133.9 -35.45 131.7 -31.15 L130.85 -28.25 123.7 -18.25 130.85 -28.25 131.7 -31.15 Q133.9 -35.45 120.35 -35.5 106.1 -35.45 102.35 -31.15 L101.7 -30.4 100.45 -30.75 98.85 -30.5 Q104.75 -37.75 120.45 -37.5 139.75 -37.95 136.35 -31.15 L135.7 -29.25 134.6 -28.9 134.1 -28.15 134.45 -26.75 134.1 -28.15 134.6 -28.9 135.7 -29.25 139.95 -29.5 143.35 -28.9 143.7 -29.15 144.95 -25.0 144.85 -24.9 144.95 -24.9 146.7 -19.0 146.6 -19.0 144.35 -20.15 143.6 -20.15 141.85 -19.0 141.85 -19.65 143.6 -23.0 144.85 -24.9 143.6 -23.0 141.85 -19.65 141.85 -19.0 141.7 -18.5 141.6 -18.25 141.7 -18.25 141.45 -14.9 141.85 -11.5 143.7 -4.5 145.1 -0.5 144.95 -0.4 139.1 -2.75 Q136.9 -4.3 135.95 -6.75 L135.1 -8.75 135.35 -13.25 135.85 -14.9 138.45 -21.4 141.2 -26.4 139.1 -27.9 134.45 -26.75 133.2 -24.65 126.85 -16.4 123.7 -18.25 109.2 -27.0 101.7 -30.4 M98.6 -30.15 L99.1 -27.15 96.2 -22.4 99.1 -27.15 102.85 -16.5 96.2 -22.4 94.35 -24.0 96.1 -27.0 98.6 -30.15 M173.85 0.25 L172.45 -3.0 167.2 -14.9 158.7 -31.0 158.7 -31.15 157.35 -33.5 Q199.9 -27.45 189.7 -15.65 L189.35 -14.9 186.35 -10.25 186.2 -10.15 186.35 -10.25 189.35 -14.9 189.7 -15.65 190.85 -15.15 191.2 -14.0 190.2 14.75 189.6 21.85 188.45 27.75 185.85 36.5 184.85 37.25 183.45 37.25 181.35 36.0 181.35 35.85 181.2 35.75 181.35 34.5 Q186.45 24.05 187.6 12.85 L186.35 -10.15 186.2 -10.15 180.6 -3.75 177.85 -1.65 173.85 0.25 M143.35 -28.9 L141.2 -26.4 143.35 -28.9 M143.7 -4.5 L141.85 -5.4 140.6 -6.75 Q138.1 -8.45 140.1 -14.9 L140.6 -16.65 141.6 -18.25 140.6 -16.65 140.1 -14.9 Q138.1 -8.45 140.6 -6.75 L141.85 -5.4 143.7 -4.5 M172.45 -3.0 L175.35 -4.5 177.85 -6.75 182.1 -11.75 184.1 -14.9 Q187.85 -21.35 185.1 -23.0 177.25 -29.05 158.7 -31.0 177.25 -29.05 185.1 -23.0 187.85 -21.35 184.1 -14.9 L182.1 -11.75 177.85 -6.75 175.35 -4.5 172.45 -3.0 M186.35 -10.15 L186.35 -10.25 186.35 -10.15" fill="#43396f" fill-rule="evenodd" stroke="none"/>
    <path d="M108.7 -10.15 L109.35 -11.4 109.85 -11.65 111.85 -12.0 118.35 -9.4 122.85 -6.75 138.1 4.25 144.2 7.6 143.7 9.5 143.85 17.35 142.1 17.6 131.1 20.75 117.95 1.35 108.7 -10.15" fill="#fa420e" fill-rule="evenodd" stroke="none"/>
    <path d="M126.85 -16.4 L133.2 -24.65 135.45 -23.75 138.45 -21.4 135.85 -14.9 135.35 -13.25 129.6 -14.9 126.85 -16.4 M173.85 0.25 L177.85 -1.65 180.6 -3.75 179.85 0.0 177.6 4.25 175.7 5.85 173.85 0.25" fill="#ff7a16" fill-rule="evenodd" stroke="none"/>
    <path d="M47.85 -67.25 Q48.5 -69.2 51.45 -70.9 L61.6 -76.15 Q64.25 -78.1 86.7 -84.25 L100.2 -90.5 Q109.4 -95.7 105.85 -96.15 82.7 -95.3 81.6 -96.4 L80.6 -97.65 80.45 -98.75 80.6 -100.65 82.6 -109.0 82.35 -109.9 80.45 -110.75 Q80.4 -112.2 62.1 -103.9 L57.35 -103.15 52.6 -104.4 Q49.15 -106.15 42.45 -112.4 38.95 -115.0 38.45 -109.15 37.15 -102.6 40.1 -84.75 L39.95 -81.65 39.6 -79.5 Q35.2 -70.4 34.85 -67.25 L34.6 -63.65 35.2 -60.4 39.85 -51.75 43.1 -47.15 43.85 -44.9 43.2 -42.75 40.7 -39.0 40.6 -38.9 33.55 -27.25 32.85 -26.15 31.6 -23.0 31.45 -21.75 32.2 -19.9 36.85 -20.15 41.2 -19.5 41.7 -19.5 42.95 -20.9 44.6 -24.0 51.45 -39.15 Q56.0 -46.7 47.35 -59.0 L46.45 -61.15 46.45 -63.65 46.95 -65.75 47.85 -67.25 Q52.1 -64.9 47.35 -59.0 M-29.05 -34.65 L-26.8 -53.0 -26.8 -56.15 Q-28.0 -61.45 -28.9 -62.5 L-34.4 -71.75 -34.4 -74.9 -33.55 -77.65 -31.3 -80.0 -26.3 -83.4 Q4.5 -97.7 11.6 -104.25 L13.7 -106.0 14.35 -107.4 13.35 -107.9 7.85 -107.0 Q-11.1 -101.5 -11.3 -102.0 L-12.8 -101.9 -13.15 -102.0 M33.55 -27.25 L31.85 -27.5 29.45 -26.75 25.35 -24.0 22.6 -23.0 19.85 -22.75 14.7 -23.5 12.6 -23.5 12.35 -23.0 Q11.65 -22.85 14.7 -20.4 L25.1 -13.5 M39.85 -51.75 Q30.6 -44.35 12.85 -38.15 L11.35 -36.9 11.7 -36.25 17.1 -35.5 27.95 -37.65 40.6 -38.9 M32.2 -19.9 L27.7 -19.5 Q25.0 -19.3 21.6 -20.5 M44.6 -24.0 L54.6 -24.25 55.95 -24.0 56.1 -23.0 54.85 -20.15 46.95 -11.15 46.85 -10.15 M45.95 -20.0 L45.1 -19.75 41.7 -19.5 M123.7 -18.25 L130.85 -28.25 131.7 -31.15 Q133.9 -35.45 120.35 -35.5 106.1 -35.45 102.35 -31.15 L101.7 -30.4 109.2 -27.0 123.7 -18.25 126.85 -16.4 133.2 -24.65 134.45 -26.75 134.1 -28.15 134.6 -28.9 135.7 -29.25 136.35 -31.15 Q139.75 -37.95 120.45 -37.5 104.75 -37.75 98.85 -30.5 L100.45 -30.75 101.7 -30.4 M98.6 -30.15 L98.85 -30.5 M99.1 -27.15 L98.6 -30.15 96.1 -27.0 94.35 -24.0 96.2 -22.4 99.1 -27.15 102.85 -16.5 102.85 -16.4 102.95 -16.25 108.7 -10.15 109.35 -11.4 109.85 -11.65 111.85 -12.0 118.35 -9.4 122.85 -6.75 138.1 4.25 144.2 7.6 144.6 6.6 145.45 6.0 147.2 6.0 146.4 3.45 141.25 0.15 140.65 -0.35 138.7 -1.4 138.45 -1.4 M102.85 -16.5 L96.2 -22.4 M173.85 0.25 L172.45 -3.0 167.2 -14.9 158.7 -31.0 158.7 -31.15 157.35 -33.5 148.7 -47.4 Q135.7 -62.75 143.7 -29.15 L144.95 -25.0 144.95 -24.9 146.7 -19.0 150.2 -6.75 152.35 3.5 M144.95 -24.9 L144.85 -24.9 143.6 -23.0 141.85 -19.65 141.85 -19.0 143.6 -20.15 144.35 -20.15 146.6 -19.0 146.7 -19.0 M135.7 -29.25 L139.95 -29.5 143.35 -28.9 143.7 -29.15 M144.85 -24.9 L144.95 -25.0 M134.45 -26.75 L139.1 -27.9 141.2 -26.4 143.35 -28.9 M138.45 -21.4 L135.45 -23.75 133.2 -24.65 M135.35 -13.25 L135.85 -14.9 138.45 -21.4 141.2 -26.4 M141.7 -18.25 L141.7 -18.5 141.6 -18.25 141.7 -18.25 141.45 -14.9 141.85 -11.5 143.7 -4.5 145.1 -0.5 145.1 -0.4 146.4 3.45 M141.6 -18.25 L140.6 -16.65 140.1 -14.9 Q138.1 -8.45 140.6 -6.75 L141.85 -5.4 143.7 -4.5 M126.85 -16.4 L129.6 -14.9 135.35 -13.25 135.1 -8.75 135.95 -6.75 Q136.9 -4.3 139.1 -2.75 L144.95 -0.4 145.1 -0.5 M144.95 -0.4 L145.1 -0.4 M141.7 -18.5 L141.85 -19.0 M94.35 -24.0 Q73.0 -38.45 51.45 -39.15 M158.7 -31.0 Q177.25 -29.05 185.1 -23.0 187.85 -21.35 184.1 -14.9 L182.1 -11.75 177.85 -6.75 175.35 -4.5 172.45 -3.0 M180.6 -3.75 L177.85 -1.65 173.85 0.25 175.7 5.85 177.6 4.25 179.85 0.0 180.6 -3.75 186.2 -10.15 186.35 -10.25 189.35 -14.9 189.7 -15.65 Q199.9 -27.45 157.35 -33.5 M181.35 34.5 Q186.45 24.05 187.6 12.85 L186.35 -10.15 186.2 -10.15 M186.35 -10.25 L186.35 -10.15 M189.7 -15.65 L190.85 -15.15 191.2 -14.0 190.2 14.75 189.6 21.85 188.45 27.75 185.85 36.5 184.85 37.25 183.45 37.25 181.35 36.0 180.95 51.35 Q179.7 62.5 176.45 69.6 L171.6 77.85 157.7 92.5 Q135.2 105.05 127.2 113.35 L117.45 119.1 101.6 127.5 73.1 140.25 47.85 146.35 20.7 147.75 7.45 146.85 Q-10.6 144.2 -20.9 141.6 L-45.4 131.75 Q-78.65 114.1 -98.4 78.5 L-101.8 77.0 -105.55 73.25 -107.4 69.75 Q-133.4 77.65 -139.4 74.85 -146.15 73.95 -147.4 65.6 L-153.65 65.0 Q-156.9 64.4 -161.65 61.6 L-164.55 58.5 -165.9 55.1 Q-169.1 47.8 -153.05 40.25 -136.05 34.75 -109.05 35.75 -109.15 17.95 -75.95 -5.0 L-75.8 -5.15 -75.65 -5.25 -75.5 -5.3 -74.9 -5.65 -74.8 -5.75 -74.05 -6.15 -73.9 -6.25 -73.4 -6.5 -73.3 -6.65 -73.15 -6.65 -73.05 -6.75 -72.55 -7.0 -72.4 -7.15 -72.3 -7.15 -72.15 -7.25 -71.65 -7.5 -71.55 -7.65 -60.65 -13.5 Q-52.3 -17.65 -45.4 -19.75 L-44.55 -20.5 -44.4 -21.15 -44.9 -21.75 -56.55 -30.65 Q-60.0 -34.9 -55.65 -33.65 -47.1 -30.85 -39.8 -36.75 L-36.05 -51.25 -35.8 -55.5 -35.8 -55.65 -36.9 -58.65 Q-41.75 -64.15 -44.8 -70.65 -46.05 -73.9 -45.8 -78.65 L-44.7 -84.75 -44.65 -85.0 -46.15 -87.15 -46.3 -87.2 Q-48.0 -87.85 -50.3 -91.15 L-51.55 -94.75 -51.3 -97.15 -50.15 -98.15 -48.8 -98.4 -39.4 -97.75 -35.4 -98.15 Q-10.65 -110.6 -12.9 -104.25 L-12.8 -101.9 M175.7 5.85 L177.85 12.25 181.2 33.0 Q189.9 17.2 179.85 0.0 M181.35 34.5 L181.2 33.0 M181.35 34.5 L181.2 35.75 181.35 35.85 181.35 36.0 M108.7 -10.15 L117.95 1.35 131.1 20.75 142.1 17.6 143.85 17.35 143.7 9.5 144.2 7.6 M147.2 6.0 L148.35 9.5 150.2 17.6 150.95 24.0 M143.85 17.35 L143.85 17.6 146.6 42.0 146.95 50.1 146.6 58.25 146.35 60.25 146.05 60.55 146.7 66.35 146.7 69.1 144.35 82.6 141.7 90.75 M146.05 60.55 L145.95 60.6 144.45 52.75 139.7 38.1 131.1 20.75 M-35.8 -55.5 L-35.65 -55.5 -35.8 -55.65 M-46.55 -87.65 L-46.3 -87.2 M-44.3 -85.75 L-44.7 -84.75 M-39.55 -30.5 L-43.55 -30.0 Q-47.35 -29.95 -48.9 -30.65 M-75.5 -5.3 L-75.95 -5.0 M-24.8 -34.0 L-16.65 -34.4 Q-15.65 -32.75 -17.65 -31.15 L-22.4 -26.4 -23.05 -25.15 -6.8 -29.25 -0.9 -31.15 17.1 -35.5 M-11.15 -26.15 L-11.8 -26.15 -12.4 -26.0 -13.05 -25.75 -13.55 -25.65 -14.05 -25.65 -14.75 -25.35 -20.15 -24.5 -22.15 -24.5 -22.8 -24.65 -23.05 -25.15 M-39.8 -36.75 L-40.3 -34.25 -39.9 -31.15 -39.65 -30.5 -39.55 -30.5 -31.15 -30.0 -30.8 -30.0 -30.05 -31.15 -29.3 -32.75 -29.05 -34.65 -24.8 -34.0 Q-18.85 -53.4 34.85 -67.25 M-30.8 -30.0 L-27.4 -30.15 -25.9 -30.65 M-98.4 78.5 Q-92.15 79.5 -87.4 74.5 -85.55 73.1 -84.15 69.75 L-83.05 64.35 -83.3 58.25 -84.3 53.1 -85.3 50.1 -87.9 44.75 -90.65 42.0 -92.0 41.2 -92.3 41.0 -92.55 40.75 -92.65 40.75 -92.8 40.6 -94.0 40.05 -97.15 38.6 -97.3 38.5 -103.8 36.6 -109.05 35.75 M-92.3 41.0 L-92.3 40.85 -92.55 40.75 M-92.3 40.85 L-92.0 41.2 M-89.3 41.25 L-92.3 40.0 -94.0 40.05 M-121.9 41.1 L-138.3 50.1 Q-143.4 53.55 -144.55 55.25 L-146.3 58.25 Q-147.0 58.8 -147.4 62.1 L-147.4 65.6 M-106.05 52.75 L-108.05 58.25 -108.55 60.35 -108.15 66.35 -107.4 69.5" fill="none" stroke="#000000" stroke-linecap="round" stroke-linejoin="round" stroke-width="2.15"/>
  </g>
</svg>
