<?xml version="1.0" encoding="UTF-8" standalone="no"?>
<svg xmlns:xlink="http://www.w3.org/1999/xlink" height="270.1px" width="316.9px" xmlns="http://www.w3.org/2000/svg">
  <g transform="matrix(1.0, 0.0, 0.0, 1.0, 140.2, 123.2)">
    <path d="M45.7 -55.0 L45.2 -57.25 Q39.85 -67.15 39.45 -72.0 L39.85 -77.75 Q43.15 -87.25 43.25 -89.85 L43.25 -90.35 43.2 -90.5 Q42.4 -96.35 38.35 -106.9 L36.7 -116.9 Q35.7 -125.1 41.7 -120.5 48.35 -115.15 50.95 -114.25 L55.95 -112.65 61.95 -113.9 73.2 -119.15 76.35 -120.25 77.85 -120.25 78.85 -120.0 79.85 -119.15 79.45 -110.4 Q79.45 -107.7 80.95 -106.75 L86.35 -106.15 103.85 -107.15 105.95 -106.4 Q107.0 -105.95 103.85 -103.25 L96.6 -99.0 86.1 -94.0 68.2 -88.25 55.7 -81.65 52.2 -78.75 50.45 -75.25 50.1 -71.5 53.1 -62.5 54.6 -56.5 54.45 -52.65 51.85 -45.15 47.35 -32.9 46.7 -31.15 45.7 -29.4 35.95 -28.5 35.35 -29.25 35.1 -31.15 35.7 -33.9 36.45 -35.4 41.95 -46.65 45.35 -53.15 45.7 -54.75 45.85 -54.75 45.7 -55.0 45.85 -54.75 45.7 -54.75 45.7 -55.0 M-41.9 -47.5 L-41.65 -47.9 -39.55 -58.75 -39.55 -64.25 -44.65 -78.15 Q-45.8 -82.7 -45.4 -89.5 L-49.8 -93.65 Q-57.75 -96.9 -58.4 -98.65 L-62.15 -103.4 -62.55 -104.4 -62.3 -105.9 -61.05 -106.5 -59.15 -106.75 -48.55 -106.15 -43.15 -106.9 Q-40.75 -108.0 -38.4 -109.15 -27.65 -116.45 -27.4 -115.5 L-25.05 -115.4 -23.05 -112.4 -21.65 -111.15 -20.8 -110.9 -18.55 -111.0 Q-19.0 -110.15 0.85 -116.75 L5.6 -117.5 6.35 -117.0 5.95 -115.65 2.6 -112.4 -6.15 -105.4 Q-11.8 -101.2 -24.9 -94.25 L-30.65 -89.9 -33.65 -86.75 -35.05 -83.5 -35.05 -78.9 -32.15 -70.5 -30.9 -65.25 -30.65 -62.4 -31.05 -57.0 -32.15 -40.25 -33.15 -36.75 -42.3 -36.25 -42.9 -37.25 -43.15 -39.25 -42.65 -42.9 -41.8 -47.4 -41.8 -47.5 -41.9 -47.5 M73.45 -37.9 L73.95 -38.25 75.2 -38.25 76.1 -37.9 85.7 -31.15 90.6 -27.0 93.45 -24.65 97.6 -21.5 99.6 -20.75 102.1 -20.15 102.35 -16.65 105.85 -11.25 Q106.1 -10.4 111.85 -8.5 L111.85 -8.4 116.5 -3.0 116.6 -2.9 123.6 1.35 124.7 1.85 126.85 2.85 131.95 4.0 132.35 6.85 121.95 6.6 120.6 5.35 116.7 3.1 106.9 -9.7 102.45 -14.9 90.1 -27.0 84.45 -31.15 73.45 -37.9 M106.9 -9.7 L116.5 -3.0 106.9 -9.7 M-45.55 -91.0 L-45.4 -89.5 -45.55 -91.0 M-41.65 -47.9 L-41.8 -47.5 -41.65 -47.9" fill="#fa410f" fill-rule="evenodd" stroke="none"/>
    <path d="M41.95 -46.65 L36.45 -35.4 35.7 -33.9 35.1 -31.15 35.35 -29.25 35.95 -28.5 45.7 -29.4 46.7 -31.15 47.35 -32.9 51.85 -45.15 65.85 -41.0 68.6 -40.0 73.45 -37.9 84.45 -31.15 90.1 -27.0 102.45 -14.9 106.9 -9.7 116.7 3.1 119.95 7.6 122.1 6.85 121.95 6.6 132.35 6.85 131.95 4.0 131.85 1.6 131.85 1.35 Q132.6 -8.7 138.85 -2.0 L139.45 -2.75 137.95 -6.75 137.6 -7.4 136.35 -10.4 133.1 -18.9 132.1 -23.0 Q130.85 -31.45 133.6 -31.15 L134.6 -31.15 136.7 -30.4 Q139.2 -28.8 142.2 -25.15 L142.45 -25.5 138.7 -36.5 137.85 -39.15 Q130.35 -69.65 139.35 -63.65 187.25 -0.35 171.95 44.25 167.6 61.65 157.2 70.85 L145.1 82.35 139.1 87.1 126.85 94.5 116.1 104.5 109.95 109.35 85.45 126.85 69.35 135.5 Q62.6 138.3 46.85 142.85 L20.95 145.85 Q-12.85 144.15 -13.9 141.75 L-30.15 136.75 Q-38.4 133.3 -53.65 123.6 L-72.8 106.0 Q-93.05 80.05 -92.8 76.85 -113.75 82.6 -113.4 67.35 L-113.55 67.35 Q-140.55 70.55 -139.05 55.0 -134.35 40.1 -105.9 35.75 L-105.9 35.6 Q-105.3 13.65 -88.65 1.5 L-88.55 1.35 -88.3 1.1 -84.9 -1.75 -84.65 -1.9 -84.3 -2.25 Q-84.15 -2.3 -84.05 -2.4 L-83.65 -2.75 -83.3 -3.0 -83.15 -3.15 -82.65 -3.5 -82.55 -3.65 -81.9 -4.15 -81.65 -4.25 -81.3 -4.65 -66.3 -15.5 -56.15 -21.4 -56.05 -21.5 -55.9 -21.5 -55.8 -21.65 -55.65 -21.65 -55.55 -21.75 -55.4 -21.75 -55.3 -21.9 -55.15 -21.9 -55.05 -22.0 -54.9 -22.0 -54.8 -22.15 -54.65 -22.2 -51.65 -23.9 -50.4 -29.65 -50.4 -29.75 Q-63.9 -40.1 -57.4 -39.15 -54.15 -38.15 -50.9 -38.65 L-45.3 -42.5 -44.55 -44.15 -41.9 -47.5 -41.8 -47.5 -41.8 -47.4 -42.65 -42.9 -43.15 -39.25 -42.9 -37.25 -42.3 -36.25 -33.15 -36.75 -32.15 -40.25 -31.05 -57.0 Q-15.5 -66.4 4.35 -72.75 21.75 -77.3 21.95 -71.75 25.15 -61.5 -13.4 -41.25 L-13.05 -40.75 -10.8 -40.4 -2.8 -40.4 Q23.35 -48.0 41.95 -46.65 M28.6 -22.5 L28.45 -23.0 20.85 -28.25 Q17.95 -30.35 18.1 -31.15 L18.2 -31.75 18.85 -31.9 23.45 -31.15 25.7 -31.25 Q32.35 -38.2 36.45 -35.4 32.35 -38.2 25.7 -31.25 L23.45 -31.15 18.85 -31.9 18.2 -31.75 18.1 -31.15 Q17.95 -30.35 20.85 -28.25 L28.45 -23.0 28.6 -22.5 M24.1 -30.25 L30.6 -28.5 35.95 -28.5 30.6 -28.5 24.1 -30.25 M47.35 -32.9 L55.35 -33.65 58.2 -33.5 58.45 -32.9 57.95 -31.15 56.6 -28.15 50.1 -20.15 49.65 -18.7 49.85 -18.5 49.65 -18.7 50.1 -20.15 56.6 -28.15 57.95 -31.15 58.45 -32.9 58.2 -33.5 55.35 -33.65 47.35 -32.9 M49.45 -28.75 L45.65 -29.3 45.7 -29.4 45.65 -29.3 49.45 -28.75 M103.7 -28.65 L102.35 -23.0 102.1 -20.15 99.6 -20.75 100.85 -24.4 100.7 -27.75 103.7 -28.65 M124.7 1.85 L129.45 2.0 131.85 1.6 131.95 4.0 126.85 2.85 124.7 1.85 M142.6 12.6 L142.2 6.35 140.2 -0.9 140.1 -0.9 138.85 -2.0 140.1 -0.9 140.2 -0.9 139.45 -2.75 140.2 -0.9 142.2 6.35 142.6 12.6 M146.6 -8.75 L145.6 -14.9 142.7 -24.65 145.6 -14.9 146.6 -8.75 M135.6 39.0 L135.7 33.85 135.2 25.75 132.35 6.85 135.2 25.75 135.7 33.85 135.6 39.0 134.1 40.25 135.1 43.6 135.2 43.6 135.6 39.0 M128.6 85.1 L132.7 73.0 135.45 59.5 135.1 44.35 135.2 43.6 135.1 44.35 135.45 59.5 132.7 73.0 128.6 85.1 M-84.9 -1.75 L-85.05 -1.4 -84.65 -1.9 -85.05 -1.4 -84.9 -1.75 M-84.3 -2.25 L-84.4 -1.9 -84.05 -2.4 -84.4 -1.9 -84.3 -2.25 M-83.65 -2.75 L-83.8 -2.4 -83.55 -2.65 -83.3 -3.0 -83.55 -2.65 -83.8 -2.4 -83.65 -2.75 M-82.65 -3.5 L-82.65 -3.4 -83.15 -3.15 -82.65 -3.4 -82.65 -3.5 M134.1 40.25 L130.1 25.75 121.35 9.5 119.95 7.6 121.35 9.5 130.1 25.75 134.1 40.25 M135.1 44.35 L135.1 43.6 135.1 44.35 M-113.55 67.35 L-113.4 67.25 -113.55 66.35 -113.05 61.35 -111.8 58.25 -108.9 53.85 -98.55 44.1 -108.9 53.85 -111.8 58.25 -113.05 61.35 -113.55 66.35 -113.4 67.25 -113.4 67.35 -113.4 67.25 -113.55 67.35 M-105.8 35.6 L-105.9 35.75 -105.8 35.6 -105.9 35.6 -105.8 35.6 -94.8 33.85 -85.3 33.6 -81.55 33.85 Q-68.4 34.55 -60.3 42.0 L-56.65 46.25 -52.65 53.0 -50.3 60.35 -50.15 66.35 -50.8 70.0 -53.15 74.5 Q-55.6 78.8 -62.3 78.35 L-64.8 77.6 Q-68.65 75.4 -69.05 74.5 L-71.3 72.0 -73.4 67.6 -78.15 68.6 Q-79.8 68.9 -88.4 74.5 L-92.8 76.85 -88.4 74.5 Q-79.8 68.9 -78.15 68.6 L-73.4 67.6 -71.3 72.0 -69.05 74.5 Q-68.65 75.4 -64.8 77.6 L-62.3 78.35 Q-55.6 78.8 -53.15 74.5 L-50.8 70.0 -50.15 66.35 -50.3 60.35 -52.65 53.0 -56.65 46.25 -60.3 42.0 Q-68.4 34.55 -81.55 33.85 L-85.3 33.6 -94.8 33.85 -105.8 35.6 M-88.65 1.5 L-88.3 1.1 -88.65 1.5 M-74.9 59.25 L-74.8 59.75 -74.65 62.75 -73.4 67.6 -74.65 62.75 -74.8 59.75 -74.9 59.25 M-25.05 -33.0 L-26.55 -31.15 -26.4 -30.65 -25.15 -30.4 -23.3 -30.65 -21.4 -31.15 -20.8 -31.25 -20.4 -31.25 -20.8 -31.25 -21.4 -31.15 -23.3 -30.65 -25.15 -30.4 -26.4 -30.65 -26.55 -31.15 -25.05 -33.0 Q-20.75 -37.15 -20.15 -39.25 L-19.9 -40.25 -20.3 -40.9 -28.15 -40.15 -32.15 -40.25 -28.15 -40.15 -20.3 -40.9 -19.9 -40.25 -20.15 -39.25 Q-20.75 -37.15 -25.05 -33.0 L-2.8 -40.4 -25.05 -33.0 M-33.15 -36.75 L-30.55 -36.25 -29.15 -36.4 -30.55 -36.25 -33.15 -36.75 M-47.05 -25.7 L-51.65 -23.9 -47.05 -25.7 -46.65 -25.9 Q-45.35 -26.05 -50.3 -29.65 L-50.4 -29.65 -50.3 -29.65 -50.4 -29.75 -50.3 -29.65 Q-45.35 -26.05 -46.65 -25.9 L-47.05 -25.7 -46.9 -25.4 -48.15 -24.65 -52.15 -23.15 -48.15 -24.65 -46.9 -25.4 -47.05 -25.7 M-54.65 -22.2 L-53.3 -22.65 -54.65 -22.2 M-53.05 -37.4 L-47.65 -36.0 -42.3 -36.25 -47.65 -36.0 -53.05 -37.4 M-42.65 -42.9 L-44.15 -43.0 -45.3 -42.5 -44.15 -43.0 -42.65 -42.9" fill="#ffffff" fill-rule="evenodd" stroke="none"/>
    <path d="M65.85 -41.0 Q102.2 -49.9 99.6 -36.75 L103.95 -37.15 107.35 -36.65 Q110.9 -45.6 137.2 -39.25 L137.85 -39.15 138.7 -36.5 142.45 -25.5 142.2 -25.15 Q139.2 -28.8 136.7 -30.4 L134.6 -31.15 133.6 -31.15 Q130.85 -31.45 132.1 -23.0 L133.1 -18.9 136.35 -10.4 137.6 -7.4 133.7 -6.75 125.45 -6.4 117.85 -7.15 111.95 -8.4 111.85 -8.5 111.95 -8.4 111.85 -8.4 111.85 -8.5 Q106.1 -10.4 105.85 -11.25 L102.35 -16.65 102.1 -20.15 102.35 -23.0 103.7 -28.65 105.7 -34.0 102.85 -35.5 98.7 -34.15 98.35 -35.9 99.6 -36.75 98.35 -35.9 98.7 -34.15 96.95 -30.5 93.45 -24.65 90.6 -27.0 85.7 -31.15 76.1 -37.9 75.2 -38.25 73.95 -38.25 73.45 -37.9 68.6 -40.0 Q89.35 -45.15 95.1 -39.25 L95.35 -38.4 95.1 -36.4 92.95 -31.15 90.6 -27.0 92.95 -31.15 95.1 -36.4 95.35 -38.4 95.1 -39.25 Q89.35 -45.15 68.6 -40.0 L65.85 -41.0 M107.35 -36.65 L105.7 -34.0 107.35 -36.65 M126.1 -9.65 L124.95 -9.65 123.85 -9.7 122.95 -9.75 122.25 -9.8 Q112.9 -10.55 107.6 -14.9 L106.45 -17.4 Q105.9 -21.35 106.6 -23.0 L108.95 -31.15 Q110.6 -37.6 118.2 -39.25 L124.2 -39.25 128.2 -38.75 138.7 -36.5 128.2 -38.75 124.2 -39.25 118.2 -39.25 Q110.6 -37.6 108.95 -31.15 L106.6 -23.0 Q105.9 -21.35 106.45 -17.4 L107.6 -14.9 Q112.9 -10.55 122.25 -9.8 L122.95 -9.75 123.85 -9.7 124.95 -9.65 126.1 -9.65 136.35 -10.4 126.1 -9.65 125.35 -9.4 126.1 -9.65 M130.1 -9.4 L131.2 -9.4 130.1 -9.4 M129.1 -9.4 L127.7 -9.4 129.1 -9.4" fill="#43396f" fill-rule="evenodd" stroke="none"/>
    <path d="M111.95 -8.4 L117.85 -7.15 125.45 -6.4 133.7 -6.75 137.6 -7.4 137.95 -6.75 139.45 -2.75 138.85 -2.0 Q132.6 -8.7 131.85 1.35 L131.85 1.6 129.45 2.0 124.7 1.85 123.6 1.35 116.6 -2.9 116.5 -3.0 111.85 -8.4 111.95 -8.4 M96.95 -30.5 L100.7 -27.75 100.85 -24.4 99.6 -20.75 97.6 -21.5 93.45 -24.65 96.95 -30.5" fill="#ff7a16" fill-rule="evenodd" stroke="none"/>
    <path d="M121.95 6.6 L122.1 6.85 119.95 7.6 116.7 3.1 120.6 5.35 121.95 6.6" fill="#fa420e" fill-rule="evenodd" stroke="none"/>
    <path d="M51.85 -45.15 L54.45 -52.65 54.6 -56.5 53.1 -62.5 50.1 -71.5 50.45 -75.25 52.2 -78.75 55.7 -81.65 68.2 -88.25 86.1 -94.0 96.6 -99.0 103.85 -103.25 Q107.0 -105.95 105.95 -106.4 L103.85 -107.15 86.35 -106.15 80.95 -106.75 Q79.45 -107.7 79.45 -110.4 L79.85 -119.15 78.85 -120.0 77.85 -120.25 76.35 -120.25 73.2 -119.15 61.95 -113.9 55.95 -112.65 50.95 -114.25 Q48.35 -115.15 41.7 -120.5 35.7 -125.1 36.7 -116.9 L38.35 -106.9 Q42.4 -96.35 43.2 -90.5 L43.25 -90.35 43.25 -89.85 Q43.15 -87.25 39.85 -77.75 L39.45 -72.0 Q39.85 -67.15 45.2 -57.25 L45.7 -55.0 45.85 -54.75 45.7 -54.75 45.35 -53.15 41.95 -46.65 36.45 -35.4 35.7 -33.9 35.1 -31.15 35.35 -29.25 35.95 -28.5 45.7 -29.4 46.7 -31.15 47.35 -32.9 51.85 -45.15 65.85 -41.0 Q102.2 -49.9 99.6 -36.75 L103.95 -37.15 107.35 -36.65 Q110.9 -45.6 137.2 -39.25 L137.85 -39.15 Q130.35 -69.65 139.35 -63.65 187.25 -0.35 171.95 44.25 167.6 61.65 157.2 70.85 L145.1 82.35 139.1 87.1 126.85 94.5 116.1 104.5 109.95 109.35 85.45 126.85 69.35 135.5 Q62.6 138.3 46.85 142.85 L20.95 145.85 Q-12.85 144.15 -13.9 141.75 L-30.15 136.75 Q-38.4 133.3 -53.65 123.6 L-72.8 106.0 Q-93.05 80.05 -92.8 76.85 -113.75 82.6 -113.4 67.35 L-113.55 67.35 Q-140.55 70.55 -139.05 55.0 -134.35 40.1 -105.9 35.75 L-105.9 35.6 Q-105.3 13.65 -88.65 1.5 L-88.55 1.35 -88.3 1.1 -84.9 -1.75 -84.65 -1.9 -84.3 -2.25 Q-84.15 -2.3 -84.05 -2.4 L-83.65 -2.75 -83.3 -3.0 -83.15 -3.15 -82.65 -3.5 -82.55 -3.65 -81.9 -4.15 -81.65 -4.25 -81.3 -4.65 -66.3 -15.5 -56.15 -21.4 -56.05 -21.5 -55.9 -21.5 -55.8 -21.65 -55.65 -21.65 -55.55 -21.75 -55.4 -21.75 -55.3 -21.9 -55.15 -21.9 -55.05 -22.0 -54.9 -22.0 -54.8 -22.15 -54.65 -22.2 -51.65 -23.9 -50.4 -29.65 -50.4 -29.75 Q-63.9 -40.1 -57.4 -39.15 -54.15 -38.15 -50.9 -38.65 L-45.3 -42.5 -44.55 -44.15 -41.9 -47.5 -41.65 -47.9 -39.55 -58.75 -39.55 -64.25 -44.65 -78.15 Q-45.8 -82.7 -45.4 -89.5 L-49.8 -93.65 Q-57.75 -96.9 -58.4 -98.65 L-62.15 -103.4 -62.55 -104.4 -62.3 -105.9 -61.05 -106.5 -59.15 -106.75 -48.55 -106.15 -43.15 -106.9 Q-40.75 -108.0 -38.4 -109.15 -27.65 -116.45 -27.4 -115.5 L-25.05 -115.4 -23.05 -112.4 -21.65 -111.15 -20.8 -110.9 -18.55 -111.0 Q-19.0 -110.15 0.85 -116.75 L5.6 -117.5 6.35 -117.0 5.95 -115.65 2.6 -112.4 -6.15 -105.4 Q-11.8 -101.2 -24.9 -94.25 L-30.65 -89.9 -33.65 -86.75 -35.05 -83.5 -35.05 -78.9 -32.15 -70.5 -30.9 -65.25 -30.65 -62.4 -31.05 -57.0 Q-15.5 -66.4 4.35 -72.75 21.75 -77.3 21.95 -71.75 25.15 -61.5 -13.4 -41.25 L-13.05 -40.75 -10.8 -40.4 -2.8 -40.4 Q23.35 -48.0 41.95 -46.65 M45.7 -55.0 L45.7 -54.75 M35.95 -28.5 L30.6 -28.5 24.1 -30.25 M36.45 -35.4 Q32.35 -38.2 25.7 -31.25 L23.45 -31.15 18.85 -31.9 18.2 -31.75 18.1 -31.15 Q17.95 -30.35 20.85 -28.25 L28.45 -23.0 28.6 -22.5 M68.6 -40.0 L73.45 -37.9 73.95 -38.25 75.2 -38.25 76.1 -37.9 85.7 -31.15 90.6 -27.0 92.95 -31.15 95.1 -36.4 95.35 -38.4 95.1 -39.25 Q89.35 -45.15 68.6 -40.0 L65.85 -41.0 M45.7 -29.4 L45.65 -29.3 49.45 -28.75 M49.85 -18.5 L49.65 -18.7 50.1 -20.15 56.6 -28.15 57.95 -31.15 58.45 -32.9 58.2 -33.5 55.35 -33.65 47.35 -32.9 M105.7 -34.0 L107.35 -36.65 M98.7 -34.15 L102.85 -35.5 105.7 -34.0 103.7 -28.65 102.35 -23.0 102.1 -20.15 102.35 -16.65 105.85 -11.25 Q106.1 -10.4 111.85 -8.5 L111.95 -8.4 117.85 -7.15 125.45 -6.4 133.7 -6.75 137.6 -7.4 136.35 -10.4 126.1 -9.65 125.35 -9.4 M138.7 -36.5 L128.2 -38.75 124.2 -39.25 118.2 -39.25 Q110.6 -37.6 108.95 -31.15 L106.6 -23.0 Q105.9 -21.35 106.45 -17.4 L107.6 -14.9 Q112.9 -10.55 122.25 -9.8 L122.95 -9.75 123.85 -9.7 124.95 -9.65 126.1 -9.65 M116.7 3.1 L106.9 -9.7 102.45 -14.9 90.1 -27.0 84.45 -31.15 73.45 -37.9 M100.7 -27.75 L96.95 -30.5 93.45 -24.65 97.6 -21.5 99.6 -20.75 100.85 -24.4 100.7 -27.75 103.7 -28.65 M99.6 -36.75 L98.35 -35.9 98.7 -34.15 96.95 -30.5 M111.85 -8.4 L116.5 -3.0 116.6 -2.9 123.6 1.35 124.7 1.85 129.45 2.0 131.85 1.6 131.85 1.35 Q132.6 -8.7 138.85 -2.0 L139.45 -2.75 137.95 -6.75 137.6 -7.4 M111.85 -8.5 L111.85 -8.4 111.95 -8.4 M116.5 -3.0 L106.9 -9.7 M102.1 -20.15 L99.6 -20.75 M90.6 -27.0 L93.45 -24.65 M136.35 -10.4 L133.1 -18.9 132.1 -23.0 Q130.85 -31.45 133.6 -31.15 L134.6 -31.15 136.7 -30.4 Q139.2 -28.8 142.2 -25.15 L142.45 -25.5 138.7 -36.5 137.85 -39.15 M127.7 -9.4 L129.1 -9.4 M131.2 -9.4 L130.1 -9.4 M138.85 -2.0 L140.1 -0.9 140.2 -0.9 139.45 -2.75 M142.7 -24.65 L145.6 -14.9 146.6 -8.75 M140.2 -0.9 L142.2 6.35 142.6 12.6 M131.95 4.0 L132.35 6.85 135.2 25.75 135.7 33.85 135.6 39.0 135.2 43.6 135.1 44.35 135.45 59.5 132.7 73.0 128.6 85.1 M131.85 1.6 L131.95 4.0 126.85 2.85 124.7 1.85 M116.7 3.1 L119.95 7.6 122.1 6.85 121.95 6.6 120.6 5.35 116.7 3.1 M132.35 6.85 L121.95 6.6 M135.6 39.0 L134.1 40.25 135.1 43.6 135.2 43.6 M135.1 43.6 L135.1 44.35 M119.95 7.6 L121.35 9.5 130.1 25.75 134.1 40.25 M-83.15 -3.15 L-82.65 -3.4 -82.65 -3.5 M-83.3 -3.0 L-83.55 -2.65 -83.8 -2.4 -83.65 -2.75 M-84.05 -2.4 L-84.4 -1.9 -84.3 -2.25 M-84.65 -1.9 L-85.05 -1.4 -84.9 -1.75 M-45.4 -89.5 L-45.55 -91.0 M-41.9 -47.5 L-41.8 -47.5 -41.65 -47.9 M-41.8 -47.5 L-41.8 -47.4 -42.65 -42.9 -43.15 -39.25 -42.9 -37.25 -42.3 -36.25 -33.15 -36.75 -32.15 -40.25 -31.05 -57.0 M-45.3 -42.5 L-44.15 -43.0 -42.65 -42.9 M-50.4 -29.65 L-50.3 -29.65 -50.4 -29.75 M-42.3 -36.25 L-47.65 -36.0 -53.05 -37.4 M-50.3 -29.65 Q-45.35 -26.05 -46.65 -25.9 L-47.05 -25.7 -46.9 -25.4 -48.15 -24.65 -52.15 -23.15 M-53.3 -22.65 L-54.65 -22.2 M-51.65 -23.9 L-47.05 -25.7 M-32.15 -40.25 L-28.15 -40.15 -20.3 -40.9 -19.9 -40.25 -20.15 -39.25 Q-20.75 -37.15 -25.05 -33.0 L-2.8 -40.4 M-29.15 -36.4 L-30.55 -36.25 -33.15 -36.75 M-20.4 -31.25 L-20.8 -31.25 -21.4 -31.15 -23.3 -30.65 -25.15 -30.4 -26.4 -30.65 -26.55 -31.15 -25.05 -33.0 M-105.9 35.6 L-105.8 35.6 -94.8 33.85 -85.3 33.6 -81.55 33.85 Q-68.4 34.55 -60.3 42.0 L-56.65 46.25 -52.65 53.0 -50.3 60.35 -50.15 66.35 -50.8 70.0 -53.15 74.5 Q-55.6 78.8 -62.3 78.35 L-64.8 77.6 Q-68.65 75.4 -69.05 74.5 L-71.3 72.0 -73.4 67.6 -78.15 68.6 Q-79.8 68.9 -88.4 74.5 L-92.8 76.85 M-73.4 67.6 L-74.65 62.75 -74.8 59.75 -74.9 59.25 M-88.3 1.1 L-88.65 1.5 M-105.9 35.75 L-105.8 35.6 M-98.55 44.1 L-108.9 53.85 -111.8 58.25 -113.05 61.35 -113.55 66.35 -113.4 67.25 -113.4 67.35 M-113.4 67.25 L-113.55 67.35" fill="none" stroke="#000000" stroke-linecap="round" stroke-linejoin="round" stroke-width="2.15"/>
  </g>
</svg>
