<?xml version="1.0" encoding="UTF-8" standalone="no"?>
<svg xmlns:xlink="http://www.w3.org/1999/xlink" height="272.55px" width="286.45px" xmlns="http://www.w3.org/2000/svg">
  <g transform="matrix(1.0, 0.0, 0.0, 1.0, 116.2, 127.0)">
    <path d="M42.35 -49.5 L46.45 -59.0 46.95 -61.9 44.1 -70.65 42.6 -78.65 43.1 -83.0 Q45.45 -90.85 45.7 -93.5 L45.75 -94.35 45.7 -94.5 Q43.25 -102.85 37.6 -113.4 L35.2 -123.15 Q34.7 -126.25 37.2 -125.9 L50.35 -118.5 Q56.7 -116.4 56.6 -117.25 L61.45 -118.4 Q74.7 -125.2 75.45 -124.25 L77.35 -123.65 77.95 -122.25 78.1 -120.5 Q77.95 -114.8 78.85 -113.5 L80.6 -111.65 87.95 -111.25 97.95 -112.0 103.6 -112.0 104.95 -111.5 105.2 -110.5 103.35 -108.4 93.35 -102.5 84.1 -98.4 Q70.45 -94.65 69.85 -93.9 L58.85 -87.9 55.1 -85.0 Q52.25 -81.7 52.7 -76.65 L55.7 -62.0 55.35 -58.25 52.2 -48.15 51.95 -47.4 51.85 -46.9 49.2 -38.45 48.2 -35.25 47.95 -35.05 47.7 -34.9 38.35 -33.75 37.7 -34.5 37.35 -36.0 37.95 -39.25 38.25 -39.95 42.35 -49.5 M-42.4 -64.0 L-42.3 -64.15 -42.3 -71.0 -42.9 -76.75 -43.05 -76.9 -44.9 -91.25 -45.8 -92.25 -50.3 -95.75 -54.4 -98.15 Q-62.05 -100.65 -63.65 -102.15 L-69.05 -106.65 Q-71.35 -109.2 -70.9 -110.0 L-70.05 -111.0 -67.55 -111.4 -54.8 -110.75 -49.55 -111.4 Q-45.85 -113.15 -43.4 -115.4 L-38.05 -120.0 -36.65 -120.65 -35.15 -120.75 -33.8 -120.5 Q-30.0 -116.45 -28.4 -116.15 L-25.4 -115.5 -13.65 -118.75 -3.4 -122.4 Q1.75 -122.85 -0.8 -120.5 L-1.4 -119.4 -8.15 -112.5 Q-33.15 -95.15 -33.65 -91.75 -34.25 -91.15 -34.65 -90.0 L-34.75 -89.6 -35.05 -87.9 -33.65 -68.75 -34.4 -43.4 -34.9 -40.4 -42.9 -39.25 -43.9 -39.25 -44.8 -41.4 -44.55 -45.5 -42.3 -63.65 -42.3 -64.0 -42.3 -64.15 -42.3 -64.0 -42.4 -64.0 M-43.05 -76.9 L-42.9 -76.9 -42.9 -76.75 -42.9 -76.9 -43.05 -76.9 M-45.15 -92.15 L-44.9 -91.25 -45.15 -92.15" fill="#fa410f" fill-rule="evenodd" stroke="none"/>
    <path d="M42.35 -49.5 L38.25 -39.95 37.95 -39.25 37.35 -36.0 37.7 -34.5 38.35 -33.75 47.7 -34.9 47.95 -35.05 48.2 -35.25 49.2 -38.45 51.85 -46.9 54.1 -46.15 63.1 -42.9 65.85 -41.5 69.6 -39.5 70.85 -38.9 76.1 -35.65 Q78.0 -34.3 79.85 -33.0 L82.35 -31.15 91.6 -23.0 99.95 -14.5 102.85 -11.5 107.7 -5.5 110.45 -8.75 110.95 -10.0 Q111.45 -10.2 113.95 -4.65 L116.45 3.75 116.7 6.75 118.2 9.5 118.6 9.85 122.95 17.25 124.95 23.1 Q124.45 11.7 120.95 -4.65 L120.85 -4.65 120.85 -5.25 120.95 -8.9 121.95 -10.75 Q124.85 -12.85 132.7 -5.15 L129.85 -12.4 124.85 -23.25 124.7 -23.5 123.6 -26.65 123.45 -26.65 123.45 -27.0 123.6 -26.65 123.45 -27.0 122.45 -31.15 122.2 -35.4 123.35 -37.5 125.35 -38.0 127.6 -37.4 130.7 -34.9 137.45 -27.9 137.6 -27.9 131.1 -46.25 128.2 -58.4 Q126.25 -73.95 131.1 -71.75 132.85 -72.95 141.1 -61.4 L152.2 -43.15 Q159.6 -29.35 161.45 -24.25 171.75 0.6 168.35 15.5 165.9 38.4 156.7 51.6 140.1 72.55 112.45 90.25 L110.7 93.25 95.95 110.25 80.85 122.85 61.7 134.25 45.1 140.25 Q41.4 141.4 24.95 143.85 L20.95 144.5 -3.65 143.6 -19.05 140.0 -27.4 137.1 -42.8 129.6 -56.55 119.35 Q-76.4 105.1 -95.3 70.85 -112.85 72.7 -114.65 63.1 -117.35 55.5 -105.3 45.35 L-107.15 38.75 -107.05 23.5 -106.05 20.5 -101.05 10.25 -91.15 -1.25 Q-78.5 -12.65 -70.55 -17.5 L-70.55 -17.65 Q-69.6 -50.7 -42.4 -64.0 L-42.3 -64.0 -42.3 -63.65 -44.55 -45.5 -44.8 -41.4 -43.9 -39.25 -42.9 -39.25 -34.9 -40.4 -34.4 -43.4 -33.65 -68.75 -19.9 -74.9 Q-16.6 -76.35 -8.05 -78.0 0.4 -80.15 -0.4 -71.75 -1.3 -62.15 -32.65 -43.5 L-23.05 -44.5 -22.55 -43.9 -22.65 -42.75 -15.8 -43.0 Q14.65 -54.25 42.35 -49.5 M38.25 -39.95 Q31.0 -42.4 30.1 -39.25 29.05 -36.05 26.75 -36.0 L32.45 -34.25 38.35 -33.75 32.45 -34.25 26.75 -36.0 26.35 -36.05 Q25.35 -36.15 24.2 -36.75 19.0 -37.1 27.6 -31.15 L30.35 -29.15 31.35 -27.9 30.35 -29.15 27.6 -31.15 Q19.0 -37.1 24.2 -36.75 25.35 -36.15 26.35 -36.05 L26.75 -36.0 Q29.05 -36.05 30.1 -39.25 31.0 -42.4 38.25 -39.95 M47.95 -35.05 L50.95 -35.0 52.7 -34.4 50.95 -35.0 47.95 -35.05 M49.2 -38.45 L55.7 -39.25 59.2 -39.25 59.45 -38.75 59.2 -36.25 56.1 -31.15 51.85 -25.5 51.35 -24.65 51.35 -23.65 51.35 -24.65 51.85 -25.5 56.1 -31.15 59.2 -36.25 59.45 -38.75 59.2 -39.25 55.7 -39.25 49.2 -38.45 M124.7 -23.25 L124.7 -23.5 124.85 -23.25 124.7 -23.25 M120.85 -5.25 L120.95 -5.25 120.95 -4.65 120.95 -5.25 120.85 -5.25 M140.2 -16.65 L139.1 -23.0 137.6 -27.75 137.45 -27.9 137.6 -27.75 137.6 -27.9 137.6 -27.75 139.1 -23.0 140.2 -16.65 M134.35 4.85 L133.7 -1.4 132.6 -4.9 133.7 -1.4 134.35 4.85 M107.7 -5.5 L113.35 1.35 116.7 6.75 113.35 1.35 107.7 -5.5 M112.45 90.25 L121.6 74.5 128.7 53.35 128.35 33.85 124.95 23.1 128.35 33.85 128.7 53.35 121.6 74.5 112.45 90.25 M-76.05 48.1 L-82.55 58.25 -84.15 62.75 -84.8 68.0 -84.4 71.75 -83.55 74.5 Q-82.05 81.55 -75.05 82.35 -66.85 83.55 -58.4 74.5 -51.1 64.65 -46.55 67.1 L-45.8 67.45 -45.65 67.5 -42.9 72.6 -38.9 76.35 Q-34.4 79.05 -31.9 79.0 -26.05 79.5 -23.65 74.5 L-22.3 71.0 -21.9 66.35 -22.15 61.5 -23.15 58.25 Q-23.4 56.35 -25.65 52.5 L-27.3 50.1 -31.55 45.1 -34.9 42.0 Q-44.6 34.55 -53.05 33.85 L-59.9 33.25 -72.55 33.85 -84.3 36.6 -98.9 42.0 -105.3 45.35 -98.9 42.0 -84.3 36.6 -72.55 33.85 -59.9 33.25 -53.05 33.85 Q-44.6 34.55 -34.9 42.0 L-31.55 45.1 -27.3 50.1 -25.65 52.5 Q-23.4 56.35 -23.15 58.25 L-22.15 61.5 -21.9 66.35 -22.3 71.0 -23.65 74.5 Q-26.05 79.5 -31.9 79.0 -34.4 79.05 -38.9 76.35 L-42.9 72.6 -45.65 67.5 -45.8 67.45 -46.55 67.1 Q-51.1 64.65 -58.4 74.5 -66.85 83.55 -75.05 82.35 -82.05 81.55 -83.55 74.5 L-84.4 71.75 -84.8 68.0 -90.65 69.85 -95.3 70.85 -90.65 69.85 -84.8 68.0 -84.15 62.75 -82.55 58.25 -76.05 48.1 M-45.8 67.45 L-46.15 66.6 -45.8 67.45 M-34.9 -40.4 L-30.05 -39.75 -34.9 -40.4 M-25.65 -34.0 L-26.15 -34.0 -26.65 -33.75 -28.8 -33.65 -28.9 -34.4 -24.05 -40.15 -22.65 -42.75 -24.05 -40.15 -23.9 -40.15 -15.8 -43.0 -23.9 -40.15 -24.05 -40.15 -28.9 -34.4 -28.8 -33.65 -26.65 -33.75 -26.15 -34.0 -25.65 -34.0 M-32.65 -43.5 L-34.4 -43.4 -32.65 -43.5 M-70.55 -17.65 L-70.4 -17.65 -60.05 -24.25 -59.9 -24.4 -59.4 -24.65 -59.3 -24.75 -59.15 -24.75 -59.05 -24.9 -58.9 -24.9 -58.8 -25.0 Q-57.8 -25.55 -56.9 -26.05 L-55.65 -26.7 Q-52.05 -28.6 -49.05 -29.55 L-48.35 -29.65 -48.6 -29.8 -49.8 -31.15 -56.65 -37.0 -58.55 -39.25 -59.8 -41.15 -59.4 -41.9 -56.1 -41.55 -54.9 -41.25 -53.3 -41.4 -49.15 -45.5 Q-46.5 -46.3 -44.55 -45.5 -46.5 -46.3 -49.15 -45.5 L-53.3 -41.4 -54.9 -41.25 -56.1 -41.55 -50.8 -39.65 -47.9 -39.25 -43.9 -39.25 -47.9 -39.25 -50.8 -39.65 -56.1 -41.55 -59.4 -41.9 -59.8 -41.15 -58.55 -39.25 -56.65 -37.0 -49.8 -31.15 -48.6 -29.8 -48.35 -29.65 -47.9 -29.0 -48.05 -28.4 -49.4 -27.5 -48.05 -28.4 -47.9 -29.0 -48.35 -29.65 -49.05 -29.55 Q-52.05 -28.6 -55.65 -26.7 L-56.9 -26.05 Q-57.8 -25.55 -58.8 -25.0 L-58.9 -24.9 -59.05 -24.9 -59.15 -24.75 -59.3 -24.75 -59.4 -24.65 -59.9 -24.4 -60.05 -24.25 -70.4 -17.65 -70.55 -17.5 -70.4 -17.65 -70.55 -17.65 M-49.05 -29.55 L-48.55 -29.75 -48.6 -29.8 -48.55 -29.75 -49.05 -29.55" fill="#ffffff" fill-rule="evenodd" stroke="none"/>
    <path d="M51.85 -46.9 L51.95 -47.4 52.2 -48.15 Q71.65 -50.7 70.35 -41.0 L73.2 -41.5 78.2 -41.15 Q80.6 -47.4 92.95 -46.65 123.25 -42.2 123.35 -37.5 L122.2 -35.4 122.45 -31.15 123.45 -27.0 123.45 -26.65 123.6 -26.65 124.7 -23.5 124.7 -23.25 121.95 -10.75 120.95 -8.9 120.85 -5.25 120.85 -4.65 119.85 -0.75 118.6 9.85 118.2 9.5 116.7 6.75 116.45 3.75 117.95 -4.0 119.85 -19.25 117.1 -15.9 Q113.75 -13.25 112.2 -13.15 L110.35 -12.4 Q105.6 -11.35 102.85 -11.5 L99.95 -14.5 91.6 -23.0 82.35 -31.15 79.85 -33.0 Q78.0 -34.3 76.1 -35.65 L76.95 -38.4 75.45 -39.25 73.2 -39.75 70.85 -38.9 69.6 -39.5 65.85 -41.5 63.1 -42.9 54.1 -46.15 51.85 -46.9 M78.2 -41.15 L76.95 -38.4 78.2 -41.15 M69.6 -39.5 L69.7 -40.5 70.35 -41.0 69.7 -40.5 69.6 -39.5 M79.85 -33.0 L81.95 -39.25 Q88.05 -49.3 116.2 -39.25 121.2 -37.1 120.2 -31.15 L119.6 -28.5 117.2 -23.0 Q114.75 -16.1 105.6 -14.9 L99.95 -14.5 105.6 -14.9 Q114.75 -16.1 117.2 -23.0 L119.6 -28.5 120.2 -31.15 Q121.2 -37.1 116.2 -39.25 88.05 -49.3 81.95 -39.25 L79.85 -33.0 M65.85 -41.5 Q65.95 -47.2 54.1 -46.15 65.95 -47.2 65.85 -41.5 M103.85 -14.5 L104.6 -14.5 103.85 -14.5 M119.85 -19.25 L123.45 -26.65 119.85 -19.25" fill="#43396f" fill-rule="evenodd" stroke="none"/>
    <path d="M112.2 -13.15 L110.95 -10.0 110.45 -8.75 107.7 -5.5 102.85 -11.5 Q105.6 -11.35 110.35 -12.4 L112.2 -13.15" fill="#ff7a16" fill-rule="evenodd" stroke="none"/>
    <path d="M52.2 -48.15 L55.35 -58.25 55.7 -62.0 52.7 -76.65 Q52.25 -81.7 55.1 -85.0 L58.85 -87.9 69.85 -93.9 Q70.45 -94.65 84.1 -98.4 L93.35 -102.5 103.35 -108.4 105.2 -110.5 104.95 -111.5 103.6 -112.0 97.95 -112.0 87.95 -111.25 80.6 -111.65 78.85 -113.5 Q77.95 -114.8 78.1 -120.5 L77.95 -122.25 77.35 -123.65 75.45 -124.25 Q74.7 -125.2 61.45 -118.4 L56.6 -117.25 Q56.7 -116.4 50.35 -118.5 L37.2 -125.9 Q34.7 -126.25 35.2 -123.15 L37.6 -113.4 Q43.25 -102.85 45.7 -94.5 L45.75 -94.35 45.7 -93.5 Q45.45 -90.85 43.1 -83.0 L42.6 -78.65 44.1 -70.65 46.95 -61.9 46.45 -59.0 42.35 -49.5 38.25 -39.95 37.95 -39.25 37.35 -36.0 37.7 -34.5 38.35 -33.75 47.7 -34.9 47.95 -35.05 48.2 -35.25 49.2 -38.45 51.85 -46.9 51.95 -47.4 52.2 -48.15 Q71.65 -50.7 70.35 -41.0 L73.2 -41.5 78.2 -41.15 Q80.6 -47.4 92.95 -46.65 123.25 -42.2 123.35 -37.5 L125.35 -38.0 127.6 -37.4 130.7 -34.9 137.45 -27.9 137.6 -27.9 131.1 -46.25 128.2 -58.4 Q126.25 -73.95 131.1 -71.75 132.85 -72.95 141.1 -61.4 L152.2 -43.15 Q159.6 -29.35 161.45 -24.25 171.75 0.6 168.35 15.5 165.9 38.4 156.7 51.6 140.1 72.55 112.45 90.25 L110.7 93.25 95.95 110.25 80.85 122.85 61.7 134.25 45.1 140.25 Q41.4 141.4 24.95 143.85 L20.95 144.5 -3.65 143.6 -19.05 140.0 -27.4 137.1 -42.8 129.6 -56.55 119.35 Q-76.4 105.1 -95.3 70.85 -112.85 72.7 -114.65 63.1 -117.35 55.5 -105.3 45.35 L-107.15 38.75 -107.05 23.5 -106.05 20.5 -101.05 10.25 -91.15 -1.25 Q-78.5 -12.65 -70.55 -17.5 L-70.55 -17.65 Q-69.6 -50.7 -42.4 -64.0 L-42.3 -64.15 -42.3 -71.0 -42.9 -76.75 -43.05 -76.9 -44.9 -91.25 -45.8 -92.25 -50.3 -95.75 -54.4 -98.15 Q-62.05 -100.65 -63.65 -102.15 L-69.05 -106.65 Q-71.35 -109.2 -70.9 -110.0 L-70.05 -111.0 -67.55 -111.4 -54.8 -110.75 -49.55 -111.4 Q-45.85 -113.15 -43.4 -115.4 L-38.05 -120.0 -36.65 -120.65 -35.15 -120.75 -33.8 -120.5 Q-30.0 -116.45 -28.4 -116.15 L-25.4 -115.5 -13.65 -118.75 -3.4 -122.4 Q1.75 -122.85 -0.8 -120.5 L-1.4 -119.4 -8.15 -112.5 Q-33.15 -95.15 -33.65 -91.75 -34.25 -91.15 -34.65 -90.0 L-34.75 -89.6 -35.05 -87.9 -33.65 -68.75 -19.9 -74.9 Q-16.6 -76.35 -8.05 -78.0 0.4 -80.15 -0.4 -71.75 -1.3 -62.15 -32.65 -43.5 L-23.05 -44.5 -22.55 -43.9 -22.65 -42.75 -15.8 -43.0 Q14.65 -54.25 42.35 -49.5 M38.35 -33.75 L32.45 -34.25 26.75 -36.0 26.35 -36.05 Q25.35 -36.15 24.2 -36.75 19.0 -37.1 27.6 -31.15 L30.35 -29.15 31.35 -27.9 M26.75 -36.0 Q29.05 -36.05 30.1 -39.25 31.0 -42.4 38.25 -39.95 M70.85 -38.9 L73.2 -39.75 75.45 -39.25 76.95 -38.4 78.2 -41.15 M70.85 -38.9 L69.6 -39.5 65.85 -41.5 63.1 -42.9 54.1 -46.15 51.85 -46.9 M70.35 -41.0 L69.7 -40.5 69.6 -39.5 M102.85 -11.5 L99.95 -14.5 91.6 -23.0 82.35 -31.15 79.85 -33.0 Q78.0 -34.3 76.1 -35.65 L70.85 -38.9 M76.1 -35.65 L76.95 -38.4 M51.35 -23.65 L51.35 -24.65 51.85 -25.5 56.1 -31.15 59.2 -36.25 59.45 -38.75 59.2 -39.25 55.7 -39.25 49.2 -38.45 M52.7 -34.4 L50.95 -35.0 47.95 -35.05 M54.1 -46.15 Q65.95 -47.2 65.85 -41.5 M99.95 -14.5 L105.6 -14.9 Q114.75 -16.1 117.2 -23.0 L119.6 -28.5 120.2 -31.15 Q121.2 -37.1 116.2 -39.25 88.05 -49.3 81.95 -39.25 L79.85 -33.0 M116.45 3.75 L117.95 -4.0 119.85 -19.25 117.1 -15.9 Q113.75 -13.25 112.2 -13.15 L110.95 -10.0 Q111.45 -10.2 113.95 -4.65 L116.45 3.75 116.7 6.75 118.2 9.5 118.6 9.85 119.85 -0.75 120.85 -4.65 120.85 -5.25 120.95 -8.9 121.95 -10.75 124.7 -23.25 124.7 -23.5 123.6 -26.65 123.45 -26.65 119.85 -19.25 M104.6 -14.5 L103.85 -14.5 M102.85 -11.5 L107.7 -5.5 110.45 -8.75 110.95 -10.0 M120.85 -4.65 L120.95 -4.65 120.95 -5.25 120.85 -5.25 M112.2 -13.15 L110.35 -12.4 Q105.6 -11.35 102.85 -11.5 M123.45 -27.0 L123.45 -26.65 M123.45 -27.0 L123.6 -26.65 M123.35 -37.5 L122.2 -35.4 122.45 -31.15 123.45 -27.0 M137.45 -27.9 L137.6 -27.75 137.6 -27.9 M137.6 -27.75 L139.1 -23.0 140.2 -16.65 M124.7 -23.5 L124.85 -23.25 129.85 -12.4 132.7 -5.15 Q124.85 -12.85 121.95 -10.75 M124.7 -23.25 L124.85 -23.25 M132.6 -4.9 L133.7 -1.4 134.35 4.85 M118.6 9.85 L122.95 17.25 124.95 23.1 Q124.45 11.7 120.95 -4.65 M124.95 23.1 L128.35 33.85 128.7 53.35 121.6 74.5 112.45 90.25 M116.7 6.75 L113.35 1.35 107.7 -5.5 M-44.9 -91.25 L-45.15 -92.15 M-42.9 -76.75 L-42.9 -76.9 -43.05 -76.9 M-42.3 -64.0 L-42.3 -63.65 -44.55 -45.5 -44.8 -41.4 -43.9 -39.25 -42.9 -39.25 -34.9 -40.4 -34.4 -43.4 -33.65 -68.75 M-42.3 -64.0 L-42.3 -64.15 M-42.4 -64.0 L-42.3 -64.0 M-44.55 -45.5 Q-46.5 -46.3 -49.15 -45.5 L-53.3 -41.4 -54.9 -41.25 -56.1 -41.55 -50.8 -39.65 -47.9 -39.25 -43.9 -39.25 M-56.1 -41.55 L-59.4 -41.9 -59.8 -41.15 -58.55 -39.25 -56.65 -37.0 -49.8 -31.15 -48.6 -29.8 -48.35 -29.65 -47.9 -29.0 -48.05 -28.4 -49.4 -27.5 M-48.35 -29.65 L-49.05 -29.55 Q-52.05 -28.6 -55.65 -26.7 L-56.9 -26.05 Q-57.8 -25.55 -58.8 -25.0 L-58.9 -24.9 -59.05 -24.9 -59.15 -24.75 -59.3 -24.75 -59.4 -24.65 -59.9 -24.4 -60.05 -24.25 -70.4 -17.65 -70.55 -17.5 M-48.6 -29.8 L-48.55 -29.75 -49.05 -29.55 M-70.4 -17.65 L-70.55 -17.65 M-22.65 -42.75 L-24.05 -40.15 -23.9 -40.15 -15.8 -43.0 M-34.4 -43.4 L-32.65 -43.5 M-24.05 -40.15 L-28.9 -34.4 -28.8 -33.65 -26.65 -33.75 -26.15 -34.0 -25.65 -34.0 M-30.05 -39.75 L-34.9 -40.4 M-105.3 45.35 L-98.9 42.0 -84.3 36.6 -72.55 33.85 -59.9 33.25 -53.05 33.85 Q-44.6 34.55 -34.9 42.0 L-31.55 45.1 -27.3 50.1 -25.65 52.5 Q-23.4 56.35 -23.15 58.25 L-22.15 61.5 -21.9 66.35 -22.3 71.0 -23.65 74.5 Q-26.05 79.5 -31.9 79.0 -34.4 79.05 -38.9 76.35 L-42.9 72.6 -45.65 67.5 -45.8 67.45 -46.55 67.1 Q-51.1 64.65 -58.4 74.5 -66.85 83.55 -75.05 82.35 -82.05 81.55 -83.55 74.5 L-84.4 71.75 -84.8 68.0 -90.65 69.85 -95.3 70.85 M-46.15 66.6 L-45.8 67.45 M-84.8 68.0 L-84.15 62.75 -82.55 58.25 -76.05 48.1" fill="none" stroke="#000000" stroke-linecap="round" stroke-linejoin="round" stroke-width="2.15"/>
  </g>
</svg>
