<?xml version="1.0" encoding="UTF-8" standalone="no"?>
<svg xmlns:xlink="http://www.w3.org/1999/xlink" height="269.35px" width="276.75px" xmlns="http://www.w3.org/2000/svg">
  <g transform="matrix(1.0, 0.0, 0.0, 1.0, 111.7, 124.55)">
    <path d="M42.95 -48.4 L47.6 -59.5 48.1 -62.15 47.95 -65.25 Q45.45 -73.45 45.45 -79.9 L46.35 -85.4 48.2 -92.9 48.2 -93.25 45.6 -99.25 Q36.85 -110.85 34.6 -121.15 33.75 -126.2 42.7 -120.5 L50.85 -116.65 56.1 -115.4 61.7 -116.65 73.45 -121.65 75.85 -121.5 76.95 -120.5 Q78.0 -113.35 78.85 -112.4 L81.1 -110.4 88.45 -110.0 98.45 -110.65 104.35 -110.5 105.45 -109.9 105.6 -109.0 103.85 -107.15 96.85 -102.9 86.85 -98.25 Q71.6 -94.25 70.85 -93.25 L61.95 -88.5 57.45 -85.25 Q53.2 -83.7 56.95 -62.4 L56.6 -59.65 52.35 -44.65 50.9 -39.4 50.85 -39.25 49.5 -35.5 49.45 -35.4 40.1 -34.5 39.2 -36.75 39.6 -39.25 39.95 -40.2 42.85 -48.0 42.95 -48.4 M-44.4 -70.75 L-43.3 -77.25 Q-43.75 -87.4 -44.4 -88.5 L-44.55 -88.65 -45.9 -90.15 -51.15 -93.9 -55.8 -96.5 Q-65.35 -99.2 -68.15 -101.15 L-75.4 -106.25 Q-77.8 -108.4 -77.65 -109.5 L-76.4 -110.65 -74.05 -110.9 -62.9 -110.15 -55.15 -110.5 -51.65 -112.65 -44.9 -120.0 -43.4 -120.5 -41.65 -120.5 Q-35.3 -116.05 -33.4 -115.5 L-29.55 -114.9 -18.3 -118.15 -9.8 -121.5 -6.3 -122.15 -5.3 -121.25 -6.55 -118.65 -12.9 -111.0 Q-16.15 -107.15 -27.4 -98.75 L-33.15 -92.5 -34.15 -90.65 -34.8 -88.15 -34.3 -81.65 Q-34.1 -76.15 -34.65 -75.15 L-35.9 -68.75 -36.3 -63.65 -36.05 -51.5 -35.9 -42.75 -36.3 -39.5 -36.45 -39.45 -37.05 -39.25 Q-43.65 -37.85 -45.3 -38.15 L-45.9 -39.25 -46.4 -40.9 -46.55 -44.4 -44.4 -70.75 M-44.65 -89.25 L-44.55 -88.65 -44.65 -89.25" fill="#fa410f" fill-rule="evenodd" stroke="none"/>
    <path d="M42.85 -48.0 L39.95 -40.2 39.6 -39.25 39.2 -36.75 40.1 -34.5 49.45 -35.4 49.5 -35.5 50.85 -39.25 50.9 -39.4 52.35 -44.65 55.85 -43.5 59.85 -41.65 64.7 -39.25 75.2 -32.9 87.6 -23.0 91.35 -19.5 93.95 -17.0 95.1 -16.0 96.35 -14.9 97.85 -13.25 108.6 -1.5 115.35 8.35 115.45 8.35 112.2 -8.25 Q111.7 -12.45 113.7 -13.4 115.5 -16.2 125.6 -6.75 L126.35 -5.9 126.45 -6.25 125.2 -10.15 Q113.6 -32.85 114.95 -33.75 113.6 -43.0 121.2 -39.25 123.35 -38.55 132.95 -28.25 L133.1 -28.35 133.2 -28.5 125.85 -48.0 Q123.9 -52.7 122.2 -65.15 121.25 -77.6 129.6 -71.75 167.25 -23.65 163.7 8.5 163.25 23.15 151.6 43.6 147.25 52.8 114.7 77.75 L107.7 89.85 92.45 107.85 76.2 122.0 Q56.1 135.4 49.45 136.1 41.95 140.4 21.95 143.5 L-2.15 143.75 -18.4 140.75 -34.4 134.5 Q-35.25 135.3 -56.8 120.85 L-72.55 106.35 -89.55 85.25 Q-102.6 66.65 -108.4 46.85 L-108.8 45.85 -110.65 28.5 -106.05 14.35 -95.9 0.75 -85.55 -8.65 -85.55 -8.75 Q-84.6 -36.25 -74.9 -49.25 -70.65 -57.5 -44.4 -70.75 L-46.55 -44.4 -46.4 -40.9 -45.9 -39.25 -45.3 -38.15 -48.9 -38.4 -56.05 -40.15 -48.9 -38.4 -45.3 -38.15 Q-43.65 -37.85 -37.05 -39.25 L-36.45 -39.45 -36.3 -39.5 -35.9 -42.75 -26.8 -44.0 -25.05 -44.0 -24.55 -42.75 -23.9 -42.9 Q-10.55 -48.75 9.85 -51.15 L22.2 -51.5 Q37.25 -49.9 37.6 -49.25 L42.85 -48.0 M-34.65 -75.15 Q-18.8 -81.9 -17.9 -72.65 -18.6 -63.95 -36.05 -51.5 L-36.3 -63.65 -35.9 -68.75 -34.65 -75.15 M33.35 -28.75 L33.6 -28.9 32.45 -30.0 27.2 -34.0 25.85 -35.5 25.45 -36.5 Q25.2 -37.9 29.35 -36.75 L29.45 -36.75 30.45 -39.25 Q30.5 -43.5 39.95 -40.2 30.5 -43.5 30.45 -39.25 L29.45 -36.75 35.45 -35.0 40.1 -34.5 35.45 -35.0 29.45 -36.75 29.35 -36.75 Q25.2 -37.9 25.45 -36.5 L25.85 -35.5 27.2 -34.0 32.45 -30.0 33.6 -28.9 33.35 -28.75 M49.5 -35.5 L53.85 -36.15 56.2 -35.4 53.85 -36.15 49.5 -35.5 M50.9 -39.4 Q58.45 -40.9 59.95 -40.4 L60.45 -39.25 60.6 -38.65 59.2 -35.0 52.85 -25.75 52.95 -24.5 52.85 -25.75 59.2 -35.0 60.6 -38.65 60.45 -39.25 59.95 -40.4 Q58.45 -40.9 50.9 -39.4 M-85.4 -8.75 L-82.05 -11.75 -65.9 -23.0 -51.4 -30.65 -49.3 -28.5 -49.15 -27.65 -49.55 -27.25 -49.15 -27.65 -49.3 -28.5 -51.4 -30.65 -65.9 -23.0 -82.05 -11.75 -85.4 -8.75 -85.55 -8.65 -85.4 -8.75 -85.55 -8.75 -85.4 -8.75 M1.35 70.75 L1.2 66.35 -0.15 60.1 -3.55 54.0 -7.05 50.1 -11.8 45.75 -17.15 42.0 Q-38.0 28.45 -72.55 42.0 L-82.05 46.5 -87.15 50.1 -90.55 53.25 Q-93.55 57.0 -93.55 58.25 -94.3 58.85 -95.05 63.0 L-95.05 66.35 Q-95.1 72.3 -88.4 74.5 -87.25 76.25 -75.8 74.5 L-71.05 73.1 -62.15 69.5 -61.65 74.5 -60.65 78.5 -58.15 82.6 -55.65 85.1 -52.65 86.1 Q-46.05 87.1 -40.9 82.6 -40.8 83.35 -36.15 77.6 L-31.55 69.35 -29.8 68.75 -27.3 68.75 Q-25.3 68.9 -23.8 70.35 L-20.3 74.5 Q-4.25 87.25 0.6 74.5 L1.35 70.75 0.6 74.5 Q-4.25 87.25 -20.3 74.5 L-23.8 70.35 Q-25.3 68.9 -27.3 68.75 L-29.8 68.75 -31.55 69.35 -36.15 77.6 Q-40.8 83.35 -40.9 82.6 -46.05 87.1 -52.65 86.1 L-55.65 85.1 -58.15 82.6 -60.65 78.5 -61.65 74.5 -62.15 69.5 -71.05 73.1 -75.8 74.5 Q-87.25 76.25 -88.4 74.5 -95.1 72.3 -95.05 66.35 L-95.05 63.0 Q-94.3 58.85 -93.55 58.25 -93.55 57.0 -90.55 53.25 L-87.15 50.1 -82.05 46.5 -72.55 42.0 Q-38.0 28.45 -17.15 42.0 L-11.8 45.75 -7.05 50.1 -3.55 54.0 -0.15 60.1 1.2 66.35 1.35 70.75 M115.6 8.85 L115.35 8.35 115.6 8.85 115.6 8.75 115.45 8.35 115.6 8.75 115.6 8.85 115.95 9.5 118.45 13.0 125.1 30.1 125.7 48.25 125.35 50.1 119.1 70.1 114.7 77.75 119.1 70.1 125.35 50.1 125.7 48.25 125.1 30.1 118.45 13.0 115.95 9.5 115.6 8.85 M127.7 1.25 L127.35 -3.65 126.35 -5.9 127.35 -3.65 127.7 1.25 M135.2 -19.9 L134.7 -23.0 133.1 -28.35 134.7 -23.0 135.2 -19.9 M-36.45 -39.45 L-32.55 -39.75 -30.05 -39.0 -32.55 -39.75 -36.45 -39.45 M-29.05 -33.15 L-30.65 -33.0 -30.65 -33.65 -26.15 -39.25 -24.65 -41.65 -24.55 -42.75 -24.65 -41.65 -26.15 -39.25 -30.65 -33.65 -30.65 -33.0 -29.05 -33.15 M-51.4 -30.65 L-58.3 -37.0 -59.8 -39.25 Q-61.85 -41.7 -55.15 -40.4 L-52.65 -44.25 -51.4 -45.0 -46.55 -44.4 -51.4 -45.0 -52.65 -44.25 -55.15 -40.4 Q-61.85 -41.7 -59.8 -39.25 L-58.3 -37.0 -51.4 -30.65 M-57.4 53.85 L-61.9 66.35 -62.15 69.5 -61.9 66.35 -57.4 53.85" fill="#ffffff" fill-rule="evenodd" stroke="none"/>
    <path d="M42.95 -48.4 L42.85 -48.0 37.6 -49.25 42.95 -48.4 M55.85 -43.5 Q60.35 -50.35 76.35 -47.4 103.45 -45.05 101.6 -32.65 L102.6 -32.0 102.7 -31.5 102.45 -29.5 97.85 -13.25 96.35 -14.9 95.1 -16.0 95.45 -18.0 93.95 -17.0 91.35 -19.5 87.6 -23.0 75.2 -32.9 64.7 -39.25 59.85 -41.65 55.85 -43.5 M59.85 -41.65 Q60.2 -45.6 70.1 -45.75 86.95 -44.8 95.85 -39.25 L97.2 -37.0 Q98.0 -33.95 97.1 -31.15 L96.45 -28.4 94.35 -23.0 93.1 -21.0 91.35 -19.5 93.1 -21.0 94.35 -23.0 96.45 -28.4 97.1 -31.15 Q98.0 -33.95 97.2 -37.0 L95.85 -39.25 Q86.95 -44.8 70.1 -45.75 60.2 -45.6 59.85 -41.65 M95.45 -18.0 L98.1 -21.5 100.6 -27.75 101.45 -31.15 101.6 -32.65 101.45 -31.15 100.6 -27.75 98.1 -21.5 95.45 -18.0" fill="#43396f" fill-rule="evenodd" stroke="none"/>
    <path d="M52.35 -44.65 L56.6 -59.65 56.95 -62.4 Q53.2 -83.7 57.45 -85.25 L61.95 -88.5 70.85 -93.25 Q71.6 -94.25 86.85 -98.25 L96.85 -102.9 103.85 -107.15 105.6 -109.0 105.45 -109.9 104.35 -110.5 98.45 -110.65 88.45 -110.0 81.1 -110.4 78.85 -112.4 Q78.0 -113.35 76.95 -120.5 L75.85 -121.5 73.45 -121.65 61.7 -116.65 56.1 -115.4 50.85 -116.65 42.7 -120.5 Q33.75 -126.2 34.6 -121.15 36.85 -110.85 45.6 -99.25 L48.2 -93.25 48.2 -92.9 46.35 -85.4 45.45 -79.9 Q45.45 -73.45 47.95 -65.25 L48.1 -62.15 47.6 -59.5 42.95 -48.4 42.85 -48.0 39.95 -40.2 39.6 -39.25 39.2 -36.75 40.1 -34.5 49.45 -35.4 49.5 -35.5 50.85 -39.25 50.9 -39.4 52.35 -44.65 55.85 -43.5 Q60.35 -50.35 76.35 -47.4 103.45 -45.05 101.6 -32.65 L102.6 -32.0 102.7 -31.5 102.45 -29.5 97.85 -13.25 108.6 -1.5 115.35 8.35 115.45 8.35 112.2 -8.25 Q111.7 -12.45 113.7 -13.4 115.5 -16.2 125.6 -6.75 L126.35 -5.9 126.45 -6.25 125.2 -10.15 Q113.6 -32.85 114.95 -33.75 113.6 -43.0 121.2 -39.25 123.35 -38.55 132.95 -28.25 L133.1 -28.35 133.2 -28.5 125.85 -48.0 Q123.9 -52.7 122.2 -65.15 121.25 -77.6 129.6 -71.75 167.25 -23.65 163.7 8.5 163.25 23.15 151.6 43.6 147.25 52.8 114.7 77.75 L107.7 89.85 92.45 107.85 76.2 122.0 Q56.1 135.4 49.45 136.1 41.95 140.4 21.95 143.5 L-2.15 143.75 -18.4 140.75 -34.4 134.5 Q-35.25 135.3 -56.8 120.85 L-72.55 106.35 -89.55 85.25 Q-102.6 66.65 -108.4 46.85 L-108.8 45.85 -110.65 28.5 -106.05 14.35 -95.9 0.75 -85.55 -8.65 -85.55 -8.75 Q-84.6 -36.25 -74.9 -49.25 -70.65 -57.5 -44.4 -70.75 L-43.3 -77.25 Q-43.75 -87.4 -44.4 -88.5 L-44.55 -88.65 -45.9 -90.15 -51.15 -93.9 -55.8 -96.5 Q-65.35 -99.2 -68.15 -101.15 L-75.4 -106.25 Q-77.8 -108.4 -77.65 -109.5 L-76.4 -110.65 -74.05 -110.9 -62.9 -110.15 -55.15 -110.5 -51.65 -112.65 -44.9 -120.0 -43.4 -120.5 -41.65 -120.5 Q-35.3 -116.05 -33.4 -115.5 L-29.55 -114.9 -18.3 -118.15 -9.8 -121.5 -6.3 -122.15 -5.3 -121.25 -6.55 -118.65 -12.9 -111.0 Q-16.15 -107.15 -27.4 -98.75 L-33.15 -92.5 -34.15 -90.65 -34.8 -88.15 -34.3 -81.65 Q-34.1 -76.15 -34.65 -75.15 -18.8 -81.9 -17.9 -72.65 -18.6 -63.95 -36.05 -51.5 L-35.9 -42.75 -26.8 -44.0 -25.05 -44.0 -24.55 -42.75 -23.9 -42.9 Q-10.55 -48.75 9.85 -51.15 L22.2 -51.5 Q37.25 -49.9 37.6 -49.25 L42.95 -48.4 M39.95 -40.2 Q30.5 -43.5 30.45 -39.25 L29.45 -36.75 35.45 -35.0 40.1 -34.5 M29.45 -36.75 L29.35 -36.75 Q25.2 -37.9 25.45 -36.5 L25.85 -35.5 27.2 -34.0 32.45 -30.0 33.6 -28.9 33.35 -28.75 M93.95 -17.0 L91.35 -19.5 87.6 -23.0 75.2 -32.9 64.7 -39.25 59.85 -41.65 55.85 -43.5 M52.95 -24.5 L52.85 -25.75 59.2 -35.0 60.6 -38.65 60.45 -39.25 59.95 -40.4 Q58.45 -40.9 50.9 -39.4 M56.2 -35.4 L53.85 -36.15 49.5 -35.5 M91.35 -19.5 L93.1 -21.0 94.35 -23.0 96.45 -28.4 97.1 -31.15 Q98.0 -33.95 97.2 -37.0 L95.85 -39.25 Q86.95 -44.8 70.1 -45.75 60.2 -45.6 59.85 -41.65 M37.6 -49.25 L42.85 -48.0 M101.6 -32.65 L101.45 -31.15 100.6 -27.75 98.1 -21.5 95.45 -18.0 95.1 -16.0 96.35 -14.9 97.85 -13.25 M93.95 -17.0 L95.45 -18.0 M95.1 -16.0 L93.95 -17.0 M133.1 -28.35 L134.7 -23.0 135.2 -19.9 M126.35 -5.9 L127.35 -3.65 127.7 1.25 M115.45 8.35 L115.6 8.75 115.6 8.85 115.95 9.5 118.45 13.0 125.1 30.1 125.7 48.25 125.35 50.1 119.1 70.1 114.7 77.75 M115.35 8.35 L115.6 8.85 M1.35 70.75 L0.6 74.5 Q-4.25 87.25 -20.3 74.5 L-23.8 70.35 Q-25.3 68.9 -27.3 68.75 L-29.8 68.75 -31.55 69.35 -36.15 77.6 Q-40.8 83.35 -40.9 82.6 -46.05 87.1 -52.65 86.1 L-55.65 85.1 -58.15 82.6 -60.65 78.5 -61.65 74.5 -62.15 69.5 -71.05 73.1 -75.8 74.5 Q-87.25 76.25 -88.4 74.5 -95.1 72.3 -95.05 66.35 L-95.05 63.0 Q-94.3 58.85 -93.55 58.25 -93.55 57.0 -90.55 53.25 L-87.15 50.1 -82.05 46.5 -72.55 42.0 Q-38.0 28.45 -17.15 42.0 L-11.8 45.75 -7.05 50.1 -3.55 54.0 -0.15 60.1 1.2 66.35 1.35 70.75 M-85.55 -8.65 L-85.4 -8.75 -85.55 -8.75 M-49.55 -27.25 L-49.15 -27.65 -49.3 -28.5 -51.4 -30.65 -65.9 -23.0 -82.05 -11.75 -85.4 -8.75 M-34.65 -75.15 L-35.9 -68.75 -36.3 -63.65 -36.05 -51.5 M-44.55 -88.65 L-44.65 -89.25 M-56.05 -40.15 L-48.9 -38.4 -45.3 -38.15 -45.9 -39.25 -46.4 -40.9 -46.55 -44.4 -51.4 -45.0 -52.65 -44.25 -55.15 -40.4 Q-61.85 -41.7 -59.8 -39.25 L-58.3 -37.0 -51.4 -30.65 M-24.55 -42.75 L-24.65 -41.65 -26.15 -39.25 -30.65 -33.65 -30.65 -33.0 -29.05 -33.15 M-30.05 -39.0 L-32.55 -39.75 -36.45 -39.45 -37.05 -39.25 Q-43.65 -37.85 -45.3 -38.15 M-36.45 -39.45 L-36.3 -39.5 -35.9 -42.75 M-44.4 -70.75 L-46.55 -44.4 M-62.15 69.5 L-61.9 66.35 -57.4 53.85" fill="none" stroke="#000000" stroke-linecap="round" stroke-linejoin="round" stroke-width="2.15"/>
  </g>
</svg>
