<?xml version="1.0" encoding="UTF-8" standalone="no"?>
<svg xmlns:xlink="http://www.w3.org/1999/xlink" height="267.7px" width="274.3px" xmlns="http://www.w3.org/2000/svg">
  <g transform="matrix(1.0, 0.0, 0.0, 1.0, 114.2, 122.7)">
    <path d="M43.6 -48.4 L43.7 -48.4 48.35 -60.0 48.95 -62.65 Q45.4 -82.75 50.1 -92.4 L46.85 -98.5 Q36.45 -110.85 35.6 -115.4 31.75 -122.85 38.2 -120.5 L49.35 -115.5 55.7 -113.65 Q58.2 -112.9 71.2 -118.65 L74.2 -119.15 76.35 -118.25 Q77.4 -111.35 81.2 -109.15 L93.2 -108.75 100.95 -109.25 104.2 -109.0 105.7 -108.25 105.85 -107.5 104.45 -106.0 97.95 -102.0 88.2 -97.65 Q86.75 -96.7 73.1 -93.5 L62.45 -88.0 59.2 -85.65 Q57.5 -83.65 57.1 -79.15 L57.85 -63.4 57.45 -60.9 54.1 -48.65 53.7 -47.4 53.6 -46.4 52.6 -42.65 51.95 -40.4 50.7 -36.65 50.15 -35.95 49.95 -35.75 46.7 -35.25 41.7 -35.15 41.0 -35.35 40.85 -35.4 40.6 -36.15 40.45 -39.25 40.95 -40.6 42.85 -46.4 43.7 -48.25 43.6 -48.4 M-43.55 -76.15 L-43.4 -76.15 -42.65 -79.0 -42.55 -79.25 Q-42.9 -86.3 -43.8 -86.75 L-46.8 -89.5 -51.8 -92.75 -57.3 -95.65 Q-64.15 -97.1 -71.55 -100.75 -85.05 -108.85 -82.05 -109.65 L-81.55 -110.25 -80.15 -110.5 -63.8 -109.65 Q-56.9 -109.95 -58.05 -110.5 -56.0 -111.2 -53.65 -114.65 L-50.8 -119.4 -49.65 -120.15 -48.4 -120.4 Q-49.05 -122.05 -37.65 -115.15 L-32.9 -114.25 Q-27.5 -115.35 -21.8 -117.65 L-13.4 -121.15 -10.55 -121.65 -9.55 -120.9 -9.65 -120.5 -10.9 -117.4 -16.4 -109.65 Q-29.55 -97.85 -33.15 -91.75 L-34.05 -89.75 Q-33.15 -80.2 -33.8 -76.4 L-34.4 -74.0 -37.3 -68.0 -38.05 -63.65 -38.05 -61.25 -36.8 -42.25 -37.05 -39.25 Q-36.25 -38.8 -37.1 -38.4 -38.75 -37.75 -46.05 -37.4 L-46.1 -37.5 -47.05 -39.25 -47.3 -43.25 -47.05 -52.15 -46.05 -68.9 -43.4 -76.0 -43.55 -76.15 M43.7 -48.4 L43.7 -48.25 43.7 -48.4 M-43.4 -76.15 L-43.4 -76.0 -43.4 -76.15" fill="#fa410f" fill-rule="evenodd" stroke="none"/>
    <path d="M81.6 -24.9 L91.2 -16.65 102.1 -5.9 106.2 -1.0 106.35 -1.0 Q100.65 -19.1 110.2 -14.9 L113.35 -12.9 120.4 -7.2 120.45 -7.15 119.1 -11.5 Q107.0 -33.45 107.7 -36.65 108.0 -46.1 117.1 -39.25 L128.2 -29.15 128.35 -29.15 Q118.95 -48.8 116.6 -66.4 117.1 -81.7 126.1 -71.75 162.5 -23.55 158.7 2.75 153.2 43.15 117.2 65.85 95.25 110.1 57.1 130.85 22.5 149.9 -18.3 141.25 L-35.4 135.1 Q-54.8 125.6 -65.65 114.6 -68.75 113.2 -86.05 93.35 L-99.3 73.85 -109.8 51.25 -113.15 32.1 -109.05 16.25 -99.4 2.35 -96.3 -0.75 Q-96.75 -36.0 -86.4 -48.25 -80.1 -60.6 -43.55 -76.15 L-43.4 -76.0 -46.05 -68.9 -47.05 -52.15 Q-69.25 -37.9 -55.65 -41.15 -55.85 -46.1 -47.3 -43.25 L-47.05 -39.25 -46.1 -37.5 -46.05 -37.4 Q-38.75 -37.75 -37.1 -38.4 -36.25 -38.8 -37.05 -39.25 L-36.8 -42.25 -29.15 -43.4 -28.7 -43.6 Q-18.35 -48.25 2.6 -51.25 19.85 -53.2 39.6 -47.4 L40.1 -47.25 42.85 -46.4 40.95 -40.6 40.45 -39.25 40.6 -36.15 40.85 -35.4 41.0 -35.35 41.7 -35.15 46.7 -35.25 49.95 -35.75 50.15 -35.95 Q60.35 -38.15 58.45 -35.4 60.35 -38.15 50.15 -35.95 L50.7 -36.65 51.95 -40.4 52.6 -42.65 56.0 -41.1 56.2 -41.0 60.1 -41.25 60.85 -40.0 60.7 -39.25 60.7 -38.75 Q72.4 -32.6 73.35 -31.15 L77.85 -27.9 81.2 -25.25 81.6 -24.9 M-33.8 -76.4 Q-29.15 -71.2 -38.05 -61.25 L-38.05 -63.65 -37.3 -68.0 -34.4 -74.0 -33.8 -76.4 M30.35 -37.5 L30.45 -39.25 Q29.25 -44.35 40.95 -40.6 29.25 -44.35 30.45 -39.25 L30.35 -37.5 38.45 -35.5 41.0 -35.35 38.45 -35.5 30.35 -37.5 28.35 -37.65 27.7 -37.25 27.7 -36.5 30.1 -33.65 34.35 -30.15 34.7 -29.25 34.35 -30.15 30.1 -33.65 27.7 -36.5 27.7 -37.25 28.35 -37.65 30.35 -37.5 M53.6 -25.15 L53.35 -26.15 59.6 -35.65 60.45 -38.4 60.7 -38.75 60.45 -38.4 59.6 -35.65 53.35 -26.15 53.6 -25.15 M56.0 -41.1 L51.95 -40.4 56.0 -41.1 M-96.3 -0.75 L-85.3 -11.15 -68.9 -23.0 -55.15 -31.15 -53.9 -31.75 -53.15 -31.15 -50.3 -28.4 -49.8 -27.65 -50.15 -27.25 -49.8 -27.65 -50.3 -28.4 -53.15 -31.15 -53.9 -31.75 -55.15 -31.15 -68.9 -23.0 -85.3 -11.15 -96.3 -0.75 M-44.1 68.15 L-44.3 68.0 Q-73.75 81.8 -78.4 66.35 -79.05 66.15 -78.65 61.25 L-77.9 58.25 -76.05 53.85 -72.9 50.1 Q-70.8 47.8 -66.65 45.25 L-59.8 42.0 Q-26.0 26.95 2.6 42.0 L8.7 46.0 13.6 50.1 16.85 54.25 18.6 58.25 19.45 61.5 19.85 66.35 18.95 72.0 17.6 74.5 Q9.1 81.0 0.1 74.5 -15.55 61.7 -18.15 74.5 -22.65 82.4 -31.65 82.6 L-32.3 82.6 Q-39.9 82.4 -42.55 74.5 -43.35 74.1 -43.9 68.25 L-44.1 68.15 -43.9 63.0 -41.15 53.75 -43.9 63.0 -44.1 68.15 -43.9 68.25 Q-43.35 74.1 -42.55 74.5 -39.9 82.4 -32.3 82.6 L-31.65 82.6 Q-22.65 82.4 -18.15 74.5 -15.55 61.7 0.1 74.5 9.1 81.0 17.6 74.5 L18.95 72.0 19.85 66.35 19.45 61.5 18.6 58.25 16.85 54.25 13.6 50.1 8.7 46.0 2.6 42.0 Q-26.0 26.95 -59.8 42.0 L-66.65 45.25 Q-70.8 47.8 -72.9 50.1 L-76.05 53.85 -77.9 58.25 -78.65 61.25 Q-79.05 66.15 -78.4 66.35 -73.75 81.8 -44.3 68.0 L-44.1 68.15 M129.85 -22.4 L129.85 -23.0 129.2 -26.65 128.35 -29.15 129.2 -26.65 129.85 -23.0 129.85 -22.4 M121.35 -1.5 L120.6 -6.75 120.4 -7.2 120.6 -6.75 121.35 -1.5 M106.45 -0.65 L106.35 -1.0 106.45 -0.65 114.35 9.5 122.2 26.5 123.35 46.0 117.2 65.85 123.35 46.0 122.2 26.5 114.35 9.5 106.45 -0.65 106.2 -1.0 106.45 -0.65 M-53.9 -31.75 L-54.05 -32.0 -58.15 -36.15 -59.55 -38.0 -59.9 -39.25 -59.65 -39.75 -59.05 -39.9 -56.3 -39.4 -55.65 -41.15 -56.3 -39.4 -50.05 -37.9 -46.1 -37.5 -50.05 -37.9 -56.3 -39.4 -59.05 -39.9 -59.65 -39.75 -59.9 -39.25 -59.55 -38.0 -58.15 -36.15 -54.05 -32.0 -53.9 -31.75 M-15.3 68.35 L-15.05 67.75 -15.3 68.35 M-37.1 -38.4 L-32.8 -39.25 -31.65 -39.25 -29.65 -38.5 -31.65 -39.25 -32.8 -39.25 -37.1 -38.4 M-31.15 -32.5 L-31.8 -32.5 -31.4 -33.25 -29.3 -35.5 -26.8 -39.25 Q-23.85 -43.65 -28.7 -43.6 -23.85 -43.65 -26.8 -39.25 L-29.3 -35.5 -31.4 -33.25 -31.8 -32.5 -31.15 -32.5" fill="#ffffff" fill-rule="evenodd" stroke="none"/>
    <path d="M54.1 -48.65 Q86.35 -45.8 83.1 -33.9 L84.1 -33.0 84.1 -31.9 81.6 -24.9 81.2 -25.25 77.85 -27.9 78.6 -31.15 78.95 -36.15 78.45 -38.4 77.85 -39.25 Q74.95 -44.7 53.6 -46.4 74.95 -44.7 77.85 -39.25 L78.45 -38.4 78.95 -36.15 78.6 -31.15 77.85 -27.9 73.35 -31.15 Q72.4 -32.6 60.7 -38.75 L60.7 -39.25 60.85 -40.0 60.1 -41.25 56.2 -41.0 56.0 -41.1 52.6 -42.65 53.6 -46.4 53.7 -47.4 54.1 -48.65 M40.1 -47.25 L43.6 -48.4 43.7 -48.25 42.85 -46.4 40.1 -47.25 M83.1 -33.9 L82.7 -31.15 81.2 -25.25 82.7 -31.15 83.1 -33.9" fill="#43396f" fill-rule="evenodd" stroke="none"/>
    <path d="M43.6 -48.4 L43.7 -48.4 48.35 -60.0 48.95 -62.65 Q45.4 -82.75 50.1 -92.4 L46.85 -98.5 Q36.45 -110.85 35.6 -115.4 31.75 -122.85 38.2 -120.5 L49.35 -115.5 55.7 -113.65 Q58.2 -112.9 71.2 -118.65 L74.2 -119.15 76.35 -118.25 Q77.4 -111.35 81.2 -109.15 L93.2 -108.75 100.95 -109.25 104.2 -109.0 105.7 -108.25 105.85 -107.5 104.45 -106.0 97.95 -102.0 88.2 -97.65 Q86.75 -96.7 73.1 -93.5 L62.45 -88.0 59.2 -85.65 Q57.5 -83.65 57.1 -79.15 L57.85 -63.4 57.45 -60.9 54.1 -48.65 Q86.35 -45.8 83.1 -33.9 L84.1 -33.0 84.1 -31.9 81.6 -24.9 91.2 -16.65 102.1 -5.9 106.2 -1.0 106.35 -1.0 Q100.65 -19.1 110.2 -14.9 L113.35 -12.9 120.4 -7.2 120.45 -7.15 119.1 -11.5 Q107.0 -33.45 107.7 -36.65 108.0 -46.1 117.1 -39.25 L128.2 -29.15 128.35 -29.15 Q118.95 -48.8 116.6 -66.4 117.1 -81.7 126.1 -71.75 162.5 -23.55 158.7 2.75 153.2 43.15 117.2 65.85 95.25 110.1 57.1 130.85 22.5 149.9 -18.3 141.25 L-35.4 135.1 Q-54.8 125.6 -65.65 114.6 -68.75 113.2 -86.05 93.35 L-99.3 73.85 -109.8 51.25 -113.15 32.1 -109.05 16.25 -99.4 2.35 -96.3 -0.75 Q-96.75 -36.0 -86.4 -48.25 -80.1 -60.6 -43.55 -76.15 L-43.4 -76.15 -42.65 -79.0 -42.55 -79.25 Q-42.9 -86.3 -43.8 -86.75 L-46.8 -89.5 -51.8 -92.75 -57.3 -95.65 Q-64.15 -97.1 -71.55 -100.75 -85.05 -108.85 -82.05 -109.65 L-81.55 -110.25 -80.15 -110.5 -63.8 -109.65 Q-56.9 -109.95 -58.05 -110.5 -56.0 -111.2 -53.65 -114.65 L-50.8 -119.4 -49.65 -120.15 -48.4 -120.4 Q-49.05 -122.05 -37.65 -115.15 L-32.9 -114.25 Q-27.5 -115.35 -21.8 -117.65 L-13.4 -121.15 -10.55 -121.65 -9.55 -120.9 -9.65 -120.5 -10.9 -117.4 -16.4 -109.65 Q-29.55 -97.85 -33.15 -91.75 L-34.05 -89.75 Q-33.15 -80.2 -33.8 -76.4 -29.15 -71.2 -38.05 -61.25 L-36.8 -42.25 -29.15 -43.4 -28.7 -43.6 Q-18.35 -48.25 2.6 -51.25 19.85 -53.2 39.6 -47.4 L40.1 -47.25 43.6 -48.4 43.7 -48.25 43.7 -48.4 M41.0 -35.35 L38.45 -35.5 30.35 -37.5 28.35 -37.65 27.7 -37.25 27.7 -36.5 30.1 -33.65 34.35 -30.15 34.7 -29.25 M40.95 -40.6 Q29.25 -44.35 30.45 -39.25 L30.35 -37.5 M53.6 -46.4 Q74.95 -44.7 77.85 -39.25 L78.45 -38.4 78.95 -36.15 78.6 -31.15 77.85 -27.9 81.2 -25.25 82.7 -31.15 83.1 -33.9 M77.85 -27.9 L73.35 -31.15 Q72.4 -32.6 60.7 -38.75 L60.45 -38.4 59.6 -35.65 53.35 -26.15 53.6 -25.15 M54.1 -48.65 L53.7 -47.4 53.6 -46.4 52.6 -42.65 56.0 -41.1 56.2 -41.0 60.1 -41.25 60.85 -40.0 60.7 -39.25 60.7 -38.75 M52.6 -42.65 L51.95 -40.4 56.0 -41.1 M40.95 -40.6 L42.85 -46.4 40.1 -47.25 M42.85 -46.4 L43.7 -48.25 M50.15 -35.95 L49.95 -35.75 46.7 -35.25 41.7 -35.15 41.0 -35.35 40.85 -35.4 40.6 -36.15 40.45 -39.25 40.95 -40.6 M50.15 -35.95 Q60.35 -38.15 58.45 -35.4 M51.95 -40.4 L50.7 -36.65 50.15 -35.95 M81.2 -25.25 L81.6 -24.9 M117.2 65.85 L123.35 46.0 122.2 26.5 114.35 9.5 106.45 -0.65 106.2 -1.0 M106.35 -1.0 L106.45 -0.65 M120.4 -7.2 L120.6 -6.75 121.35 -1.5 M128.35 -29.15 L129.2 -26.65 129.85 -23.0 129.85 -22.4 M-41.15 53.75 L-43.9 63.0 -44.1 68.15 -43.9 68.25 Q-43.35 74.1 -42.55 74.5 -39.9 82.4 -32.3 82.6 L-31.65 82.6 Q-22.65 82.4 -18.15 74.5 -15.55 61.7 0.1 74.5 9.1 81.0 17.6 74.5 L18.95 72.0 19.85 66.35 19.45 61.5 18.6 58.25 16.85 54.25 13.6 50.1 8.7 46.0 2.6 42.0 Q-26.0 26.95 -59.8 42.0 L-66.65 45.25 Q-70.8 47.8 -72.9 50.1 L-76.05 53.85 -77.9 58.25 -78.65 61.25 Q-79.05 66.15 -78.4 66.35 -73.75 81.8 -44.3 68.0 L-44.1 68.15 M-50.15 -27.25 L-49.8 -27.65 -50.3 -28.4 -53.15 -31.15 -53.9 -31.75 -55.15 -31.15 -68.9 -23.0 -85.3 -11.15 -96.3 -0.75 M-33.8 -76.4 L-34.4 -74.0 -37.3 -68.0 -38.05 -63.65 -38.05 -61.25 M-43.55 -76.15 L-43.4 -76.0 -43.4 -76.15 M-43.4 -76.0 L-46.05 -68.9 -47.05 -52.15 -47.3 -43.25 -47.05 -39.25 -46.1 -37.5 -46.05 -37.4 Q-38.75 -37.75 -37.1 -38.4 -36.25 -38.8 -37.05 -39.25 L-36.8 -42.25 M-55.65 -41.15 L-56.3 -39.4 -50.05 -37.9 -46.1 -37.5 M-56.3 -39.4 L-59.05 -39.9 -59.65 -39.75 -59.9 -39.25 -59.55 -38.0 -58.15 -36.15 -54.05 -32.0 -53.9 -31.75 M-47.05 -52.15 Q-69.25 -37.9 -55.65 -41.15 -55.85 -46.1 -47.3 -43.25 M-28.7 -43.6 Q-23.85 -43.65 -26.8 -39.25 L-29.3 -35.5 -31.4 -33.25 -31.8 -32.5 -31.15 -32.5 M-29.65 -38.5 L-31.65 -39.25 -32.8 -39.25 -37.1 -38.4 M-15.05 67.75 L-15.3 68.35" fill="none" stroke="#000000" stroke-linecap="round" stroke-linejoin="round" stroke-width="2.15"/>
  </g>
</svg>
