<?xml version="1.0" encoding="UTF-8" standalone="no"?>
<svg xmlns:xlink="http://www.w3.org/1999/xlink" height="267.4px" width="271.15px" xmlns="http://www.w3.org/2000/svg">
  <g transform="matrix(1.0, 0.0, 0.0, 1.0, 115.95, 122.45)">
    <path d="M51.2 -92.65 L46.6 -99.65 39.45 -107.4 35.7 -113.75 34.35 -118.25 35.7 -119.0 38.45 -118.5 50.7 -113.65 56.35 -112.4 61.45 -113.0 Q73.7 -117.9 74.45 -116.75 L75.95 -116.25 76.6 -115.5 78.7 -110.25 79.45 -109.25 81.35 -108.0 Q82.65 -107.1 101.7 -107.9 L105.2 -107.4 105.95 -106.15 104.2 -104.25 97.95 -100.75 87.1 -96.4 73.6 -93.25 62.35 -87.65 60.35 -86.0 60.1 -85.9 59.85 -85.55 Q59.1 -84.35 58.35 -79.5 L58.45 -64.5 57.85 -60.75 53.95 -46.9 53.45 -44.9 52.45 -41.15 51.95 -39.25 50.7 -36.25 48.1 -35.75 41.45 -35.9 40.85 -37.75 40.95 -39.25 41.35 -40.9 42.7 -44.9 43.35 -46.5 44.2 -48.65 48.85 -60.5 49.6 -63.65 48.85 -79.65 Q48.4 -80.4 51.15 -92.45 L51.2 -92.55 51.2 -92.65 51.35 -93.15 51.2 -92.65 M-43.9 -74.9 L-43.8 -74.9 Q-42.0 -77.2 -41.9 -78.75 L-42.15 -83.15 -42.9 -85.4 -45.15 -87.5 -52.3 -92.25 -58.4 -95.25 Q-65.4 -96.4 -74.4 -101.0 L-83.4 -106.75 Q-86.5 -109.95 -84.8 -109.9 -86.0 -111.35 -64.4 -109.5 L-61.3 -109.75 -58.8 -111.4 -57.4 -113.25 -54.65 -119.25 -53.05 -120.25 Q-51.15 -121.45 -40.3 -114.9 L-35.3 -113.9 Q-29.05 -115.25 -24.8 -117.15 L-16.55 -120.75 -13.8 -121.4 -12.8 -120.5 -13.55 -117.65 -17.3 -111.0 Q-32.15 -94.5 -33.05 -91.1 L-33.15 -90.75 -33.15 -90.45 -33.4 -88.25 Q-32.3 -80.2 -32.65 -77.4 L-34.15 -73.15 -38.4 -66.9 -39.05 -64.9 -39.3 -62.15 -37.3 -42.0 -37.3 -41.9 -37.3 -39.25 -37.55 -38.0 -37.85 -37.7 -38.05 -37.5 -45.65 -36.9 -46.35 -37.1 -46.55 -37.15 -47.05 -37.9 -47.4 -39.25 -47.9 -42.65 -47.9 -61.5 -47.8 -63.65 -46.9 -69.0 -43.8 -74.75 -43.9 -74.9 M-43.8 -74.75 L-43.8 -74.9 -43.8 -74.75" fill="#fa410f" fill-rule="evenodd" stroke="none"/>
    <path d="M42.7 -44.9 L41.35 -40.9 40.95 -39.25 40.85 -37.75 41.45 -35.9 48.1 -35.75 50.7 -36.25 51.95 -39.25 52.45 -41.15 56.7 -41.9 59.85 -41.9 60.7 -40.5 60.6 -39.25 59.95 -37.15 64.85 -34.65 68.6 -32.0 69.35 -31.5 Q72.9 -29.55 84.7 -20.0 L98.6 -7.5 98.7 -7.5 Q95.5 -21.85 106.1 -14.9 L114.95 -7.9 115.0 -7.95 115.1 -8.15 113.6 -12.75 Q100.75 -35.2 101.7 -37.9 101.6 -47.95 112.95 -39.25 L122.6 -30.5 123.7 -30.0 Q112.75 -52.95 111.6 -67.15 112.2 -83.35 122.35 -71.75 155.45 -26.9 154.1 -5.0 149.75 36.8 117.2 58.35 93.95 110.1 56.2 129.85 20.95 149.4 -17.3 141.75 L-35.3 135.85 Q-54.9 126.7 -65.55 116.6 L-69.4 113.6 -85.05 97.35 -99.9 76.5 -110.05 56.25 -114.9 34.5 -111.3 17.75 -103.9 6.35 Q-108.0 -23.1 -94.8 -47.75 -91.8 -55.15 -67.8 -69.5 -46.75 -80.85 -43.9 -74.9 L-43.8 -74.75 -46.9 -69.0 -47.8 -63.65 -47.9 -61.5 -50.65 -58.0 -55.3 -53.25 Q-69.75 -42.9 -69.9 -41.0 L-69.65 -40.4 -56.4 -41.15 Q-57.4 -45.15 -47.9 -42.65 L-47.4 -39.25 -47.05 -37.9 -46.55 -37.15 -46.35 -37.1 -45.65 -36.9 -38.05 -37.5 -37.85 -37.7 -37.55 -38.0 -37.3 -39.25 -37.3 -41.9 -37.3 -42.0 Q-2.75 -57.0 30.1 -49.0 L36.95 -47.0 42.7 -44.9 M41.35 -40.9 Q28.45 -44.7 30.6 -39.25 L30.7 -38.0 Q26.6 -37.45 34.45 -31.15 L35.45 -29.75 34.45 -31.15 Q26.6 -37.45 30.7 -38.0 L30.6 -39.25 Q28.45 -44.7 41.35 -40.9 M41.45 -35.9 L30.7 -38.0 41.45 -35.9 M59.8 -36.95 L59.85 -36.9 59.95 -37.15 59.85 -36.9 59.8 -36.95 59.6 -35.25 53.6 -26.75 53.85 -25.65 53.6 -26.75 59.6 -35.25 59.8 -36.95 59.45 -37.4 57.95 -37.5 50.7 -36.25 57.95 -37.5 59.45 -37.4 59.8 -36.95 M18.1 37.0 L8.7 33.85 Q-5.55 28.1 -39.3 33.85 -54.55 37.3 -59.8 42.0 L-63.15 45.75 -64.9 50.1 Q-65.75 51.8 -65.8 55.25 L-65.4 58.25 Q-64.6 64.4 -59.05 66.35 -54.5 69.6 -40.15 66.35 -34.55 64.9 -28.4 64.75 L-27.4 66.35 Q-17.5 76.6 -5.3 66.35 L-4.6 65.65 -4.55 65.6 2.2 65.35 7.85 66.35 Q20.4 72.85 30.7 66.35 L32.95 63.0 33.85 58.25 33.7 52.75 33.1 50.1 30.85 45.5 27.45 42.0 Q25.65 40.2 18.1 37.0 25.65 40.2 27.45 42.0 L30.85 45.5 33.1 50.1 33.7 52.75 33.85 58.25 32.95 63.0 30.7 66.35 Q20.4 72.85 7.85 66.35 L2.2 65.35 -4.55 65.6 -4.6 65.65 -5.3 66.35 Q-17.5 76.6 -27.4 66.35 L-28.4 64.75 Q-34.55 64.9 -40.15 66.35 -54.5 69.6 -59.05 66.35 -64.6 64.4 -65.4 58.25 L-65.8 55.25 Q-65.75 51.8 -64.9 50.1 L-63.15 45.75 -59.8 42.0 Q-54.55 37.3 -39.3 33.85 -5.55 28.1 8.7 33.85 L18.1 37.0 M125.1 -24.25 L123.85 -29.75 125.1 -24.25 M115.7 -3.25 L115.45 -6.75 115.0 -7.95 115.45 -6.75 115.7 -3.25 M98.7 -7.5 L98.7 -7.4 99.45 -6.75 111.45 7.5 112.7 9.5 119.85 23.75 120.2 25.75 121.85 42.0 117.2 58.25 117.2 58.35 117.2 58.25 121.85 42.0 120.2 25.75 119.85 23.75 112.7 9.5 111.45 7.5 99.45 -6.75 98.7 -7.4 98.6 -7.5 98.7 -7.4 98.7 -7.5 M-28.15 46.85 L-29.15 50.1 Q-29.85 51.05 -30.3 56.75 L-29.8 61.1 -28.4 64.75 -29.8 61.1 -30.3 56.75 Q-29.85 51.05 -29.15 50.1 L-28.15 46.85 M-4.6 65.65 L-2.8 62.35 -4.6 65.65 M-37.85 -37.7 L-30.65 -38.9 -29.4 -38.65 -28.8 -37.5 -29.4 -38.65 -30.65 -38.9 -37.85 -37.7 M-37.3 -41.9 L-30.15 -43.15 -27.4 -43.25 -26.55 -41.9 -27.15 -39.25 -28.3 -37.0 -32.05 -32.15 -32.55 -31.65 -32.05 -32.15 -28.3 -37.0 -27.15 -39.25 -26.55 -41.9 -27.4 -43.25 -30.15 -43.15 -37.3 -41.9 M-56.75 -39.15 L-49.05 -37.25 -46.35 -37.1 -49.05 -37.25 -56.75 -39.15 -57.05 -39.0 -57.55 -39.25 -58.3 -39.25 Q-61.25 -38.65 -55.4 -33.0 L-55.45 -32.95 -71.15 -23.0 -87.65 -10.5 -101.65 3.0 -103.9 6.35 -101.65 3.0 -87.65 -10.5 -71.15 -23.0 -55.45 -32.95 -55.4 -33.0 Q-61.25 -38.65 -58.3 -39.25 L-57.55 -39.25 -57.05 -39.0 -56.75 -39.15 -56.65 -39.25 -56.4 -41.15 -56.65 -39.25 -56.75 -39.15 M-55.45 -32.95 L-50.9 -28.4 -50.3 -27.65 -50.15 -27.15 -50.55 -26.9 -50.15 -27.15 -50.3 -27.65 -50.9 -28.4 -55.45 -32.95" fill="#ffffff" fill-rule="evenodd" stroke="none"/>
    <path d="M44.2 -48.65 L43.35 -46.5 42.7 -44.9 36.95 -47.0 30.1 -49.0 35.95 -49.4 44.2 -48.65 M52.45 -41.15 L53.45 -44.9 53.95 -46.9 Q70.25 -43.95 68.85 -34.75 L69.85 -33.9 69.35 -31.5 68.6 -32.0 64.85 -34.65 64.7 -37.15 64.1 -39.25 Q62.15 -43.2 53.45 -44.9 62.15 -43.2 64.1 -39.25 L64.7 -37.15 64.85 -34.65 59.95 -37.15 60.6 -39.25 60.7 -40.5 59.85 -41.9 56.7 -41.9 52.45 -41.15 M43.35 -46.5 L36.95 -47.0 43.35 -46.5 M68.85 -34.75 L68.6 -32.0 68.85 -34.75" fill="#43396f" fill-rule="evenodd" stroke="none"/>
    <path d="M53.95 -46.9 L57.85 -60.75 58.45 -64.5 58.35 -79.5 Q59.1 -84.35 59.85 -85.55 L60.1 -85.9 60.35 -86.0 62.35 -87.65 73.6 -93.25 87.1 -96.4 97.95 -100.75 104.2 -104.25 105.95 -106.15 105.2 -107.4 101.7 -107.9 Q82.65 -107.1 81.35 -108.0 L79.45 -109.25 78.7 -110.25 76.6 -115.5 75.95 -116.25 74.45 -116.75 Q73.7 -117.9 61.45 -113.0 L56.35 -112.4 50.7 -113.65 38.45 -118.5 35.7 -119.0 34.35 -118.25 35.7 -113.75 39.45 -107.4 46.6 -99.65 51.2 -92.65 51.35 -93.15 M51.2 -92.65 L51.2 -92.55 51.15 -92.45 Q48.4 -80.4 48.85 -79.65 L49.6 -63.65 48.85 -60.5 44.2 -48.65 43.35 -46.5 42.7 -44.9 41.35 -40.9 40.95 -39.25 40.85 -37.75 41.45 -35.9 48.1 -35.75 50.7 -36.25 51.95 -39.25 52.45 -41.15 53.45 -44.9 53.95 -46.9 Q70.25 -43.95 68.85 -34.75 L69.85 -33.9 69.35 -31.5 Q72.9 -29.55 84.7 -20.0 L98.6 -7.5 98.7 -7.5 Q95.5 -21.85 106.1 -14.9 L114.95 -7.9 115.0 -7.95 115.1 -8.15 113.6 -12.75 Q100.75 -35.2 101.7 -37.9 101.6 -47.95 112.95 -39.25 L122.6 -30.5 123.7 -30.0 Q112.75 -52.95 111.6 -67.15 112.2 -83.35 122.35 -71.75 155.45 -26.9 154.1 -5.0 149.75 36.8 117.2 58.35 93.95 110.1 56.2 129.85 20.95 149.4 -17.3 141.75 L-35.3 135.85 Q-54.9 126.7 -65.55 116.6 L-69.4 113.6 -85.05 97.35 -99.9 76.5 -110.05 56.25 -114.9 34.5 -111.3 17.75 -103.9 6.35 Q-108.0 -23.1 -94.8 -47.75 -91.8 -55.15 -67.8 -69.5 -46.75 -80.85 -43.9 -74.9 L-43.8 -74.9 Q-42.0 -77.2 -41.9 -78.75 L-42.15 -83.15 -42.9 -85.4 -45.15 -87.5 -52.3 -92.25 -58.4 -95.25 Q-65.4 -96.4 -74.4 -101.0 L-83.4 -106.75 Q-86.5 -109.95 -84.8 -109.9 -86.0 -111.35 -64.4 -109.5 L-61.3 -109.75 -58.8 -111.4 -57.4 -113.25 -54.65 -119.25 -53.05 -120.25 Q-51.15 -121.45 -40.3 -114.9 L-35.3 -113.9 Q-29.05 -115.25 -24.8 -117.15 L-16.55 -120.75 -13.8 -121.4 -12.8 -120.5 -13.55 -117.65 -17.3 -111.0 Q-32.15 -94.5 -33.05 -91.1 L-33.15 -90.45 -33.4 -88.25 Q-32.3 -80.2 -32.65 -77.4 L-34.15 -73.15 -38.4 -66.9 -39.05 -64.9 -39.3 -62.15 -37.3 -42.0 Q-2.75 -57.0 30.1 -49.0 L35.95 -49.4 44.2 -48.65 M35.45 -29.75 L34.45 -31.15 Q26.6 -37.45 30.7 -38.0 L30.6 -39.25 Q28.45 -44.7 41.35 -40.9 M30.1 -49.0 L36.95 -47.0 43.35 -46.5 M53.45 -44.9 Q62.15 -43.2 64.1 -39.25 L64.7 -37.15 64.85 -34.65 68.6 -32.0 68.85 -34.75 M68.6 -32.0 L69.35 -31.5 M52.45 -41.15 L56.7 -41.9 59.85 -41.9 60.7 -40.5 60.6 -39.25 59.95 -37.15 64.85 -34.65 M53.85 -25.65 L53.6 -26.75 59.6 -35.25 59.8 -36.95 59.45 -37.4 57.95 -37.5 50.7 -36.25 M59.95 -37.15 L59.85 -36.9 59.8 -36.95 M30.7 -38.0 L41.45 -35.9 M36.95 -47.0 L42.7 -44.9 M117.2 58.35 L117.2 58.25 121.85 42.0 120.2 25.75 119.85 23.75 112.7 9.5 111.45 7.5 99.45 -6.75 98.7 -7.4 98.6 -7.5 M98.7 -7.4 L98.7 -7.5 M115.0 -7.95 L115.45 -6.75 115.7 -3.25 M123.85 -29.75 L125.1 -24.25 M18.1 37.0 Q25.65 40.2 27.45 42.0 L30.85 45.5 33.1 50.1 33.7 52.75 33.85 58.25 32.95 63.0 30.7 66.35 Q20.4 72.85 7.85 66.35 L2.2 65.35 -4.55 65.6 -4.6 65.65 -5.3 66.35 Q-17.5 76.6 -27.4 66.35 L-28.4 64.75 Q-34.55 64.9 -40.15 66.35 -54.5 69.6 -59.05 66.35 -64.6 64.4 -65.4 58.25 L-65.8 55.25 Q-65.75 51.8 -64.9 50.1 L-63.15 45.75 -59.8 42.0 Q-54.55 37.3 -39.3 33.85 -5.55 28.1 8.7 33.85 L18.1 37.0 M-33.15 -90.45 L-33.15 -90.75 -33.05 -91.1 M-43.8 -74.9 L-43.8 -74.75 -46.9 -69.0 -47.8 -63.65 -47.9 -61.5 -47.9 -42.65 -47.4 -39.25 -47.05 -37.9 -46.55 -37.15 -46.35 -37.1 -45.65 -36.9 -38.05 -37.5 -37.85 -37.7 -37.55 -38.0 -37.3 -39.25 -37.3 -41.9 -37.3 -42.0 M-43.9 -74.9 L-43.8 -74.75 M-47.9 -61.5 L-50.65 -58.0 -55.3 -53.25 Q-69.75 -42.9 -69.9 -41.0 L-69.65 -40.4 -56.4 -41.15 Q-57.4 -45.15 -47.9 -42.65 M-103.9 6.35 L-101.65 3.0 -87.65 -10.5 -71.15 -23.0 -55.45 -32.95 -55.4 -33.0 Q-61.25 -38.65 -58.3 -39.25 L-57.55 -39.25 -57.05 -39.0 -56.75 -39.15 -56.65 -39.25 -56.4 -41.15 M-50.55 -26.9 L-50.15 -27.15 -50.3 -27.65 -50.9 -28.4 -55.45 -32.95 M-46.35 -37.1 L-49.05 -37.25 -56.75 -39.15 M-32.55 -31.65 L-32.05 -32.15 -28.3 -37.0 -27.15 -39.25 -26.55 -41.9 -27.4 -43.25 -30.15 -43.15 -37.3 -41.9 M-28.8 -37.5 L-29.4 -38.65 -30.65 -38.9 -37.85 -37.7 M-2.8 62.35 L-4.6 65.65 M-28.4 64.75 L-29.8 61.1 -30.3 56.75 Q-29.85 51.05 -29.15 50.1 L-28.15 46.85" fill="none" stroke="#000000" stroke-linecap="round" stroke-linejoin="round" stroke-width="2.15"/>
  </g>
</svg>
