<?xml version="1.0" encoding="UTF-8" standalone="no"?>
<svg xmlns:xlink="http://www.w3.org/1999/xlink" height="267.6px" width="266.3px" xmlns="http://www.w3.org/2000/svg">
  <g transform="matrix(1.0, 0.0, 0.0, 1.0, 117.85, 122.55)">
    <path d="M52.25 -93.8 L50.2 -96.9 Q36.15 -109.05 34.85 -116.65 33.45 -119.3 53.1 -112.4 L56.95 -111.5 61.85 -111.9 70.45 -114.25 74.6 -114.5 76.1 -114.0 77.2 -112.4 78.6 -109.5 79.2 -108.75 81.45 -107.5 102.1 -106.9 105.2 -106.4 106.1 -105.25 104.45 -103.5 97.6 -100.0 89.7 -97.15 Q85.2 -95.6 75.2 -94.25 L72.45 -93.4 63.7 -89.5 61.35 -87.9 Q58.75 -86.7 58.45 -62.75 L52.85 -41.9 52.1 -39.25 50.95 -36.65 46.6 -36.15 41.7 -36.5 41.2 -38.15 41.7 -41.25 42.35 -43.5 42.6 -44.0 43.35 -46.15 49.2 -61.15 49.85 -63.75 49.95 -81.65 Q49.75 -84.15 52.35 -93.65 L52.25 -93.8 52.45 -94.4 52.45 -94.75 52.45 -94.4 52.25 -93.8 M-48.05 -41.75 L-48.8 -64.4 Q-48.65 -69.25 -41.05 -78.15 L-40.9 -81.0 -41.3 -83.4 Q-42.0 -85.45 -45.4 -87.75 L-52.9 -92.5 -58.4 -95.15 Q-64.8 -96.35 -72.65 -99.75 L-83.05 -105.5 Q-86.4 -107.45 -87.8 -109.65 L-87.65 -110.5 -87.05 -111.0 -86.05 -111.15 -82.15 -111.15 -67.9 -109.9 -63.55 -110.15 -61.3 -111.75 -60.05 -114.15 -59.05 -118.5 -58.05 -120.4 -56.05 -121.0 -53.8 -120.5 -42.65 -115.15 -37.4 -114.15 Q-31.5 -115.45 -28.3 -117.0 L-19.55 -121.0 -17.3 -121.5 -16.3 -120.5 -16.65 -118.25 -19.9 -110.9 Q-22.1 -106.0 -29.05 -98.15 L-32.15 -92.4 Q-30.65 -79.15 -31.65 -76.4 -32.05 -72.9 -39.4 -65.9 L-40.15 -63.25 -40.05 -58.65 -37.9 -45.75 -37.65 -43.75 -37.4 -41.5 -37.55 -37.75 -38.05 -36.9 -42.8 -36.25 -46.55 -36.5 -47.3 -37.5 -47.8 -39.25 -48.05 -41.75 M-32.4 -91.15 L-32.4 -91.9 -32.4 -91.15" fill="#fa410f" fill-rule="evenodd" stroke="none"/>
    <path d="M42.35 -43.5 L41.7 -41.25 41.2 -38.15 41.7 -36.5 46.6 -36.15 50.95 -36.65 52.1 -39.25 52.85 -41.9 Q62.0 -44.95 59.95 -38.25 L61.1 -37.9 61.1 -37.15 59.95 -34.9 71.95 -27.4 Q82.0 -20.2 89.35 -13.75 89.4 -22.2 100.2 -14.9 L107.85 -9.0 108.15 -9.1 108.2 -9.15 106.35 -14.4 Q92.75 -36.4 93.95 -38.9 93.2 -49.7 106.95 -39.25 L114.85 -32.4 116.7 -31.15 117.1 -31.25 108.45 -51.15 Q103.95 -65.35 104.45 -70.25 L104.7 -73.75 Q105.35 -76.9 107.45 -77.5 118.7 -75.9 137.95 -39.25 150.45 -18.1 146.45 2.35 137.75 34.65 117.35 49.25 L114.2 60.6 103.45 81.1 88.95 100.1 72.2 116.5 55.1 128.75 37.45 137.25 19.35 142.35 1.1 144.0 Q-18.05 143.6 -31.65 137.75 L-31.8 137.75 -31.9 137.6 -32.55 137.5 -32.65 137.5 -32.8 137.35 -32.9 137.35 -33.05 137.35 -33.3 137.25 -33.4 137.25 -33.55 137.25 -33.65 137.1 -33.8 137.1 -33.9 137.1 -34.05 137.0 Q-71.65 122.6 -100.3 80.25 L-111.55 58.5 -116.8 38.25 -114.15 21.25 -111.9 16.85 Q-118.85 -24.2 -105.05 -47.5 -98.1 -59.0 -73.9 -72.5 -57.4 -81.15 -57.4 -71.75 -57.4 -69.7 -58.9 -65.9 L-63.05 -58.9 Q-71.05 -48.7 -79.55 -42.75 L-81.4 -39.9 -81.15 -39.4 -78.9 -39.4 -71.15 -40.4 -66.4 -40.25 Q-62.15 -39.9 -62.9 -34.0 -62.25 -30.85 -79.3 -20.9 L-80.3 -19.75 -81.05 -17.75 -67.05 -28.25 -56.8 -34.4 -58.4 -37.5 -58.3 -38.25 -57.05 -38.5 Q-59.05 -45.65 -48.05 -41.75 L-47.8 -39.25 -47.3 -37.5 -46.55 -36.5 -42.8 -36.25 -38.05 -36.9 -37.55 -37.75 -37.4 -41.5 -37.65 -43.75 -27.05 -47.4 -20.4 -49.15 Q-0.05 -54.45 22.85 -49.5 L36.45 -45.65 42.35 -43.5 M30.75 -38.45 L30.45 -39.25 30.2 -41.65 31.35 -42.75 34.45 -42.65 41.7 -41.25 34.45 -42.65 31.35 -42.75 30.2 -41.65 30.45 -39.25 30.75 -38.45 Q31.5 -39.0 41.7 -36.5 31.5 -39.0 30.75 -38.45 L30.7 -38.25 30.7 -36.5 Q32.1 -33.95 35.45 -31.15 L35.7 -30.5 35.45 -31.15 Q32.1 -33.95 30.7 -36.5 L30.7 -38.25 30.75 -38.45 M-81.05 -17.75 L-91.9 -8.75 -104.8 5.0 -111.9 16.85 -104.8 5.0 -91.9 -8.75 -81.05 -17.75 M13.85 35.85 L13.85 33.85 12.95 27.6 11.6 24.1 10.75 23.05 10.6 23.0 Q9.45 20.35 5.85 18.75 L2.6 17.6 -0.15 17.35 -3.55 17.6 Q-5.85 17.85 -8.9 20.1 L-11.55 23.1 -11.65 23.1 -17.55 23.25 Q-37.1 19.45 -38.9 20.75 -41.3 20.4 -45.65 22.85 L-48.55 25.75 -50.15 30.0 -50.05 37.5 -48.55 42.0 Q-48.1 44.05 -43.4 47.85 L-39.3 50.1 Q-26.0 56.05 -3.9 57.75 19.1 58.3 39.1 50.1 46.95 45.4 47.85 42.0 48.75 40.8 49.45 36.85 L49.6 33.85 49.2 29.35 47.7 25.75 44.95 23.0 40.95 21.25 35.2 20.75 32.2 20.85 20.35 23.0 11.7 23.25 10.75 23.05 11.7 23.25 20.35 23.0 32.2 20.85 35.2 20.75 40.95 21.25 44.95 23.0 47.7 25.75 49.2 29.35 49.6 33.85 49.45 36.85 Q48.75 40.8 47.85 42.0 46.95 45.4 39.1 50.1 19.1 58.3 -3.9 57.75 -26.0 56.05 -39.3 50.1 L-43.4 47.85 Q-48.1 44.05 -48.55 42.0 L-50.05 37.5 -50.15 30.0 -48.55 25.75 -45.65 22.85 Q-41.3 20.4 -38.9 20.75 -37.1 19.45 -17.55 23.25 L-11.65 23.1 -11.55 23.1 -8.9 20.1 Q-5.85 17.85 -3.55 17.6 L-0.15 17.35 2.6 17.6 5.85 18.75 Q9.45 20.35 10.6 23.0 L10.75 23.05 11.6 24.1 12.95 27.6 13.85 33.85 13.85 35.85 M108.6 -5.25 L108.6 -6.75 108.15 -9.1 108.6 -6.75 108.6 -5.25 M117.35 49.25 L120.1 38.0 117.45 21.25 108.7 5.75 97.2 -6.75 89.35 -13.75 97.2 -6.75 108.7 5.75 117.45 21.25 120.1 38.0 117.35 49.25 M118.45 -26.15 L117.2 -30.9 118.45 -26.15 M50.95 -36.65 L59.95 -38.25 50.95 -36.65 M59.95 -34.9 L53.6 -27.4 53.45 -26.4 53.85 -26.25 53.45 -26.4 53.6 -27.4 59.95 -34.9 M-50.8 -26.5 L-50.55 -27.1 -50.55 -27.15 -51.15 -28.15 -56.8 -34.4 -51.15 -28.15 -50.55 -27.15 -50.55 -27.1 -50.3 -26.75 -50.55 -27.1 -50.8 -26.5 M-46.55 -36.5 L-57.05 -38.5 -46.55 -36.5 M-32.9 137.35 L-33.05 137.25 -33.05 137.35 -33.05 137.25 -33.3 137.25 -33.05 137.25 -32.9 137.35 M-33.9 137.1 L-33.9 137.0 -34.05 137.0 -33.9 137.0 -33.8 137.1 -33.9 137.0 -33.9 137.1 M-33.55 137.1 L-33.55 137.25 -33.55 137.1 -33.65 137.1 -33.55 137.1 -33.4 137.25 -33.55 137.1 M-31.8 137.6 L-31.8 137.75 -31.8 137.6 -31.9 137.6 -31.8 137.6 -31.65 137.75 -31.8 137.6 M-32.65 137.5 L-32.65 137.35 -32.8 137.35 -32.65 137.35 -32.55 137.5 -32.65 137.35 -32.65 137.5 M-11.65 23.1 L-13.05 25.75 -13.9 28.25 -14.55 33.85 -14.3 37.5 -14.15 38.1 -14.3 37.5 -14.55 33.85 -13.9 28.25 -13.05 25.75 -11.65 23.1 M-38.05 -36.9 Q-27.7 -39.4 -27.8 -38.2 L-27.4 -39.25 Q-23.9 -45.4 -37.4 -41.5 -23.9 -45.4 -27.4 -39.25 L-27.8 -38.2 -27.9 -38.0 -27.9 -36.65 -28.4 -35.75 -32.65 -31.15 -32.9 -30.65 -32.65 -31.15 -28.4 -35.75 -27.9 -36.65 -27.9 -38.0 -27.8 -38.2 Q-27.7 -39.4 -38.05 -36.9" fill="#ffffff" fill-rule="evenodd" stroke="none"/>
    <path d="M43.35 -46.15 L42.6 -44.0 42.35 -43.5 36.45 -45.65 22.85 -49.5 34.7 -48.15 43.35 -46.15 M-37.9 -45.75 L-30.55 -47.75 -20.4 -49.15 -27.05 -47.4 -37.65 -43.75 -37.9 -45.75 M36.45 -45.65 L39.85 -45.0 42.6 -44.0 39.85 -45.0 36.45 -45.65" fill="#43396f" fill-rule="evenodd" stroke="none"/>
    <path d="M52.85 -41.9 L58.45 -62.75 Q58.75 -86.7 61.35 -87.9 L63.7 -89.5 72.45 -93.4 75.2 -94.25 Q85.2 -95.6 89.7 -97.15 L97.6 -100.0 104.45 -103.5 106.1 -105.25 105.2 -106.4 102.1 -106.9 81.45 -107.5 79.2 -108.75 78.6 -109.5 77.2 -112.4 76.1 -114.0 74.6 -114.5 70.45 -114.25 61.85 -111.9 56.95 -111.5 53.1 -112.4 Q33.45 -119.3 34.85 -116.65 36.15 -109.05 50.2 -96.9 L52.25 -93.8 52.45 -94.4 52.45 -94.75 M52.25 -93.8 L52.35 -93.65 Q49.75 -84.15 49.95 -81.65 L49.85 -63.75 49.2 -61.15 43.35 -46.15 42.6 -44.0 42.35 -43.5 41.7 -41.25 41.2 -38.15 41.7 -36.5 46.6 -36.15 50.95 -36.65 52.1 -39.25 52.85 -41.9 Q62.0 -44.95 59.95 -38.25 L61.1 -37.9 61.1 -37.15 59.95 -34.9 71.95 -27.4 Q82.0 -20.2 89.35 -13.75 89.4 -22.2 100.2 -14.9 L107.85 -9.0 108.15 -9.1 108.2 -9.15 106.35 -14.4 Q92.75 -36.4 93.95 -38.9 93.2 -49.7 106.95 -39.25 L114.85 -32.4 116.7 -31.15 117.1 -31.25 108.45 -51.15 Q103.95 -65.35 104.45 -70.25 L104.7 -73.75 Q105.35 -76.9 107.45 -77.5 118.7 -75.9 137.95 -39.25 150.45 -18.1 146.45 2.35 137.75 34.65 117.35 49.25 L114.2 60.6 103.45 81.1 88.95 100.1 72.2 116.5 55.1 128.75 37.45 137.25 19.35 142.35 1.1 144.0 Q-18.05 143.6 -31.65 137.75 L-31.8 137.75 -31.9 137.6 -32.55 137.5 -32.65 137.5 -32.8 137.35 -32.9 137.35 -33.05 137.35 -33.3 137.25 -33.4 137.25 -33.55 137.25 -33.65 137.1 -33.8 137.1 -33.9 137.1 -34.05 137.0 Q-71.65 122.6 -100.3 80.25 L-111.55 58.5 -116.8 38.25 -114.15 21.25 -111.9 16.85 Q-118.85 -24.2 -105.05 -47.5 -98.1 -59.0 -73.9 -72.5 -57.4 -81.15 -57.4 -71.75 -57.4 -69.7 -58.9 -65.9 L-63.05 -58.9 Q-71.05 -48.7 -79.55 -42.75 L-81.4 -39.9 -81.15 -39.4 -78.9 -39.4 -71.15 -40.4 -66.4 -40.25 Q-62.15 -39.9 -62.9 -34.0 -62.25 -30.85 -79.3 -20.9 L-80.3 -19.75 -81.05 -17.75 -67.05 -28.25 -56.8 -34.4 -58.4 -37.5 -58.3 -38.25 -57.05 -38.5 Q-59.05 -45.65 -48.05 -41.75 L-48.8 -64.4 Q-48.65 -69.25 -41.05 -78.15 L-40.9 -81.0 -41.3 -83.4 Q-42.0 -85.45 -45.4 -87.75 L-52.9 -92.5 -58.4 -95.15 Q-64.8 -96.35 -72.65 -99.75 L-83.05 -105.5 Q-86.4 -107.45 -87.8 -109.65 L-87.65 -110.5 -87.05 -111.0 -86.05 -111.15 -82.15 -111.15 -67.9 -109.9 -63.55 -110.15 -61.3 -111.75 -60.05 -114.15 -59.05 -118.5 -58.05 -120.4 -56.05 -121.0 -53.8 -120.5 -42.65 -115.15 -37.4 -114.15 Q-31.5 -115.45 -28.3 -117.0 L-19.55 -121.0 -17.3 -121.5 -16.3 -120.5 -16.65 -118.25 -19.9 -110.9 Q-22.1 -106.0 -29.05 -98.15 L-32.15 -92.4 Q-30.65 -79.15 -31.65 -76.4 -32.05 -72.9 -39.4 -65.9 L-40.15 -63.25 -40.05 -58.65 -37.9 -45.75 -30.55 -47.75 -20.4 -49.15 Q-0.05 -54.45 22.85 -49.5 L34.7 -48.15 43.35 -46.15 M42.6 -44.0 L39.85 -45.0 36.45 -45.65 42.35 -43.5 M41.7 -36.5 Q31.5 -39.0 30.75 -38.45 L30.7 -38.25 30.7 -36.5 Q32.1 -33.95 35.45 -31.15 L35.7 -30.5 M41.7 -41.25 L34.45 -42.65 31.35 -42.75 30.2 -41.65 30.45 -39.25 30.75 -38.45 M22.85 -49.5 L36.45 -45.65 M53.85 -26.25 L53.45 -26.4 53.6 -27.4 59.95 -34.9 M59.95 -38.25 L50.95 -36.65 M117.2 -30.9 L118.45 -26.15 M89.35 -13.75 L97.2 -6.75 108.7 5.75 117.45 21.25 120.1 38.0 117.35 49.25 M108.15 -9.1 L108.6 -6.75 108.6 -5.25 M47.85 42.0 Q46.95 45.4 39.1 50.1 19.1 58.3 -3.9 57.75 -26.0 56.05 -39.3 50.1 L-43.4 47.85 Q-48.1 44.05 -48.55 42.0 L-50.05 37.5 -50.15 30.0 -48.55 25.75 -45.65 22.85 Q-41.3 20.4 -38.9 20.75 -37.1 19.45 -17.55 23.25 L-11.65 23.1 -11.55 23.1 -8.9 20.1 Q-5.85 17.85 -3.55 17.6 L-0.15 17.35 2.6 17.6 5.85 18.75 Q9.45 20.35 10.6 23.0 L10.75 23.05 11.7 23.25 20.35 23.0 32.2 20.85 35.2 20.75 40.95 21.25 44.95 23.0 47.7 25.75 49.2 29.35 49.6 33.85 49.45 36.85 Q48.75 40.8 47.85 42.0 M10.75 23.05 L11.6 24.1 12.95 27.6 13.85 33.85 13.85 35.85 M-111.9 16.85 L-104.8 5.0 -91.9 -8.75 -81.05 -17.75 M-32.4 -91.9 L-32.4 -91.15 M-48.05 -41.75 L-47.8 -39.25 -47.3 -37.5 -46.55 -36.5 -42.8 -36.25 -38.05 -36.9 -37.55 -37.75 -37.4 -41.5 -37.65 -43.75 -37.9 -45.75 M-56.8 -34.4 L-51.15 -28.15 -50.55 -27.15 -50.55 -27.1 -50.3 -26.75 M-57.05 -38.5 L-46.55 -36.5 M-50.55 -27.1 L-50.8 -26.5 M-20.4 -49.15 L-27.05 -47.4 -37.65 -43.75 M-37.4 -41.5 Q-23.9 -45.4 -27.4 -39.25 L-27.8 -38.2 -27.9 -38.0 -27.9 -36.65 -28.4 -35.75 -32.65 -31.15 -32.9 -30.65 M-27.8 -38.2 Q-27.7 -39.4 -38.05 -36.9 M-14.15 38.1 L-14.3 37.5 -14.55 33.85 -13.9 28.25 -13.05 25.75 -11.65 23.1 M-32.8 137.35 L-32.65 137.35 -32.55 137.5 M-31.9 137.6 L-31.8 137.6 -31.65 137.75 M-32.65 137.35 L-32.65 137.5 M-31.8 137.75 L-31.8 137.6 M-33.65 137.1 L-33.55 137.1 -33.4 137.25 M-33.55 137.25 L-33.55 137.1 M-34.05 137.0 L-33.9 137.0 -33.8 137.1 M-33.9 137.0 L-33.9 137.1 M-33.05 137.35 L-33.05 137.25 -33.3 137.25 M-33.05 137.25 L-32.9 137.35" fill="none" stroke="#000000" stroke-linecap="round" stroke-linejoin="round" stroke-width="2.15"/>
  </g>
</svg>
