<?xml version="1.0" encoding="UTF-8" standalone="no"?>
<svg xmlns:xlink="http://www.w3.org/1999/xlink" height="75.9px" width="13.15px" xmlns="http://www.w3.org/2000/svg">
  <g transform="matrix(1.0, 0.0, 0.0, 1.0, 0.5, 0.5)">
    <path d="M6.3 0.0 Q10.05 -0.1 12.15 1.7 7.8 4.05 6.6 16.8 5.35 29.6 5.55 41.85 L5.9 55.05 Q6.4 55.25 7.55 60.2 8.75 65.3 4.75 72.55 4.05 67.85 3.85 63.4 3.65 66.6 4.05 70.4 4.4 74.2 4.0 74.9 0.45 70.25 0.05 65.2 -0.35 60.1 2.05 56.55 2.6 52.35 2.6 41.15 2.65 29.95 3.3 18.1 3.95 6.25 6.3 0.0" fill="#ffffff" fill-rule="evenodd" stroke="none"/>
    <path d="M6.3 0.0 Q3.95 6.25 3.3 18.1 2.65 29.95 2.6 41.15 2.6 52.35 2.05 56.55 -0.35 60.1 0.05 65.2 0.45 70.25 4.0 74.9 4.4 74.2 4.05 70.4 3.65 66.6 3.85 63.4 4.05 67.85 4.75 72.55 8.75 65.3 7.55 60.2 6.4 55.25 5.9 55.05 L5.55 41.85 Q5.35 29.6 6.6 16.8 7.8 4.05 12.15 1.7 10.05 -0.1 6.3 0.0 Z" fill="none" stroke="#000000" stroke-linecap="round" stroke-linejoin="round" stroke-width="1.0"/>
  </g>
</svg>
