<?xml version="1.0" encoding="UTF-8" standalone="no"?>
<svg xmlns:xlink="http://www.w3.org/1999/xlink" height="268.1px" width="265.35px" xmlns="http://www.w3.org/2000/svg">
  <g transform="matrix(1.0, 0.0, 0.0, 1.0, 118.1, 123.05)">
    <path d="M52.2 -95.5 Q48.15 -101.1 46.35 -102.4 L40.2 -107.75 36.1 -113.65 Q34.45 -116.7 34.85 -117.5 L35.95 -118.15 38.45 -117.9 50.45 -113.9 57.1 -112.65 62.85 -113.15 Q74.15 -116.5 74.2 -115.4 L75.95 -114.75 78.95 -109.9 80.85 -108.75 86.1 -108.15 104.1 -107.65 104.95 -107.4 105.7 -106.25 104.2 -104.65 97.2 -101.15 88.2 -98.0 Q85.6 -97.0 74.45 -95.5 L64.35 -91.4 61.2 -89.4 Q58.65 -89.1 58.35 -64.0 L52.85 -42.0 50.85 -36.65 47.35 -36.25 41.6 -36.65 41.2 -39.25 41.7 -41.25 42.2 -43.4 42.2 -43.5 43.1 -45.65 49.1 -61.4 49.6 -63.9 49.95 -84.65 52.2 -95.5 52.35 -96.15 52.2 -95.5 M-48.15 -41.75 L-48.05 -41.75 -48.8 -56.75 Q-49.15 -64.7 -48.55 -65.9 -48.1 -69.6 -40.9 -79.0 L-40.8 -79.15 -41.05 -83.4 Q-41.75 -85.8 -43.65 -87.15 L-51.9 -92.65 -58.3 -95.75 Q-65.5 -97.15 -72.9 -100.5 L-83.65 -106.5 Q-86.75 -108.2 -88.05 -110.65 L-87.3 -111.75 -86.3 -111.9 -82.3 -111.9 -67.65 -110.65 -63.55 -111.0 -61.55 -112.5 -60.3 -115.15 -59.3 -119.65 -58.4 -121.25 -55.9 -121.75 -52.4 -120.5 -43.15 -115.9 -37.9 -114.75 -32.55 -116.15 -19.8 -121.75 -17.55 -122.0 -16.8 -121.4 -16.8 -120.5 -17.4 -117.9 -21.4 -109.25 Q-23.25 -105.9 -29.3 -98.5 L-32.05 -93.25 -32.3 -91.15 -31.05 -81.25 -31.3 -77.75 -33.05 -73.5 Q-41.1 -64.9 -39.9 -64.25 -40.6 -62.6 -40.05 -58.65 L-38.05 -46.4 -37.65 -44.15 -37.65 -44.0 -37.65 -43.9 -37.4 -41.5 -37.3 -39.25 -37.55 -37.75 -38.15 -36.75 -41.8 -36.25 -46.55 -36.5 -47.4 -37.75 -47.8 -39.25 -48.05 -41.65 -48.15 -41.75 M-48.05 -41.65 L-48.05 -41.75 -48.05 -41.65" fill="#fa410f" fill-rule="evenodd" stroke="none"/>
    <path d="M42.2 -43.4 L41.7 -41.25 41.2 -39.25 41.6 -36.65 47.35 -36.25 50.85 -36.65 52.85 -42.0 Q61.75 -45.1 59.95 -38.4 L61.2 -38.0 61.2 -37.15 59.85 -34.65 71.7 -27.25 Q85.15 -17.55 87.85 -14.75 L87.95 -14.75 Q87.95 -21.95 98.95 -14.9 L106.6 -9.15 106.6 -9.2 106.7 -9.65 104.85 -14.65 Q91.9 -34.95 92.2 -39.0 91.85 -49.9 105.45 -39.25 L111.95 -33.65 115.45 -31.25 115.6 -31.25 Q104.1 -53.7 102.6 -68.4 102.65 -84.95 114.95 -71.75 138.85 -44.8 146.2 -10.25 141.85 30.0 117.45 47.75 L114.6 58.85 103.35 80.85 89.6 99.0 71.6 116.75 55.1 128.5 36.95 137.35 20.2 142.1 17.85 142.5 1.95 144.0 -14.4 142.5 Q-52.65 136.6 -85.9 99.75 L-100.15 81.1 -111.55 59.1 -117.05 38.5 -114.55 21.85 -113.3 19.1 Q-121.55 -19.95 -108.8 -45.75 -103.5 -56.9 -77.4 -72.5 -61.05 -81.4 -61.15 -71.75 -60.8 -67.4 -67.4 -57.5 -73.4 -49.7 -82.9 -42.15 L-84.3 -39.75 -83.95 -39.2 -83.9 -39.15 Q-68.75 -41.85 -67.3 -39.25 -64.3 -37.7 -66.3 -32.9 -67.65 -30.5 -70.05 -28.65 L-81.8 -20.75 -82.9 -19.4 -84.4 -15.25 -68.15 -27.75 -56.9 -34.65 -58.3 -37.5 -57.9 -38.25 -57.05 -38.4 Q-59.0 -45.45 -48.15 -41.75 L-48.05 -41.65 -47.8 -39.25 -47.4 -37.75 -46.55 -36.5 -41.8 -36.25 -38.15 -36.75 -37.55 -37.75 -37.3 -39.25 -37.4 -41.5 -37.65 -43.9 -37.65 -44.0 -37.55 -44.0 -34.65 -45.0 -34.55 -45.0 -34.4 -45.15 -20.05 -49.4 -19.55 -49.4 -19.4 -49.5 Q4.65 -54.35 22.95 -49.4 L30.6 -47.4 37.6 -45.0 42.2 -43.4 M50.85 -36.65 L59.95 -38.4 50.85 -36.65 M53.85 -26.25 L53.45 -26.65 53.6 -27.4 59.85 -34.65 53.6 -27.4 53.45 -26.65 53.85 -26.25 M35.7 -30.65 L35.6 -31.15 31.35 -35.65 30.7 -36.9 30.7 -38.15 30.75 -38.5 30.45 -39.25 30.2 -41.75 31.35 -42.9 33.95 -42.75 41.7 -41.25 33.95 -42.75 31.35 -42.9 30.2 -41.75 30.45 -39.25 30.75 -38.5 Q31.6 -39.2 41.6 -36.65 31.6 -39.2 30.75 -38.5 L30.7 -38.15 30.7 -36.9 31.35 -35.65 35.6 -31.15 35.7 -30.65 M-84.4 -15.25 L-92.3 -8.65 -105.55 5.6 -113.3 19.1 -105.55 5.6 -92.3 -8.65 -84.4 -15.25 M-83.9 -38.75 L-83.95 -39.2 -83.9 -38.75 M-11.3 21.75 Q-11.05 20.05 -9.3 17.6 1.7 6.35 12.2 17.6 L13.45 19.6 14.2 21.75 Q18.5 21.9 22.6 20.85 L34.35 17.6 40.6 17.25 43.2 17.6 Q50.45 19.55 51.2 25.75 L51.45 29.1 50.85 33.85 50.2 36.6 Q48.25 40.65 46.6 42.0 45.9 43.3 41.45 46.35 L32.85 50.1 Q-2.3 61.85 -29.9 50.1 L-38.55 46.35 Q-43.0 43.3 -43.65 42.0 -47.8 37.3 -47.9 33.85 L-48.55 29.5 -48.3 25.75 Q-47.55 19.55 -40.3 17.6 L-34.05 17.25 -31.4 17.6 -19.8 20.85 -12.65 21.75 -11.3 21.75 -11.9 23.1 -12.3 25.75 -12.65 33.6 -12.3 25.75 -11.9 23.1 -11.3 21.75 -12.65 21.75 -19.8 20.85 -31.4 17.6 -34.05 17.25 -40.3 17.6 Q-47.55 19.55 -48.3 25.75 L-48.55 29.5 -47.9 33.85 Q-47.8 37.3 -43.65 42.0 -43.0 43.3 -38.55 46.35 L-29.9 50.1 Q-2.3 61.85 32.85 50.1 L41.45 46.35 Q45.9 43.3 46.6 42.0 48.25 40.65 50.2 36.6 L50.85 33.85 51.45 29.1 51.2 25.75 Q50.45 19.55 43.2 17.6 L40.6 17.25 34.35 17.6 22.6 20.85 Q18.5 21.9 14.2 21.75 L14.85 23.1 15.6 32.35 14.85 23.1 14.2 21.75 13.45 19.6 12.2 17.6 Q1.7 6.35 -9.3 17.6 -11.05 20.05 -11.3 21.75 M107.2 -5.65 L107.2 -6.75 106.6 -9.2 107.2 -6.75 107.2 -5.65 M117.45 47.75 L119.95 38.35 117.35 21.35 108.45 5.6 95.2 -8.65 87.95 -14.65 87.85 -14.75 87.95 -14.65 87.95 -14.75 87.95 -14.65 95.2 -8.65 108.45 5.6 117.35 21.35 119.95 38.35 117.45 47.75 M115.6 -31.15 L115.45 -31.25 115.6 -31.15 115.6 -31.25 115.6 -31.15 116.95 -26.4 115.6 -31.15 M-50.9 -26.4 L-50.55 -26.5 -50.55 -27.0 -50.9 -27.75 -56.9 -34.65 -50.9 -27.75 -50.55 -27.0 -50.55 -26.5 -50.9 -26.4 M-32.8 -30.65 L-32.65 -31.15 Q-28.75 -34.65 -28.05 -36.15 L-27.8 -38.15 -27.55 -39.25 Q-24.1 -45.4 -37.4 -41.5 -24.1 -45.4 -27.55 -39.25 L-27.8 -38.15 -28.05 -36.15 Q-28.75 -34.65 -32.65 -31.15 L-32.8 -30.65 M-19.4 -49.5 L-19.4 -49.4 -19.55 -49.4 -19.4 -49.4 -19.4 -49.5 M-46.55 -36.5 L-57.05 -38.4 -46.55 -36.5 M-37.65 -43.9 L-37.55 -43.9 -37.55 -44.0 -37.55 -43.9 -37.65 -43.9 M-38.15 -36.75 Q-27.6 -39.35 -27.8 -38.15 -27.6 -39.35 -38.15 -36.75" fill="#ffffff" fill-rule="evenodd" stroke="none"/>
    <path d="M43.1 -45.65 L42.2 -43.5 42.2 -43.4 37.6 -45.0 30.6 -47.4 22.95 -49.4 35.45 -47.65 43.1 -45.65 M-38.05 -46.4 L-30.15 -48.15 -20.05 -49.4 -34.4 -45.15 -34.55 -45.0 -34.65 -45.0 -37.55 -44.0 -37.65 -44.0 -37.65 -44.15 -38.05 -46.4 M42.2 -43.5 L37.6 -45.0 42.2 -43.5 M-34.65 -45.0 L-37.65 -44.15 -34.65 -45.0" fill="#43396f" fill-rule="evenodd" stroke="none"/>
    <path d="M52.85 -42.0 L58.35 -64.0 Q58.65 -89.1 61.2 -89.4 L64.35 -91.4 74.45 -95.5 Q85.6 -97.0 88.2 -98.0 L97.2 -101.15 104.2 -104.65 105.7 -106.25 104.95 -107.4 104.1 -107.65 86.1 -108.15 80.85 -108.75 78.95 -109.9 75.95 -114.75 74.2 -115.4 Q74.15 -116.5 62.85 -113.15 L57.1 -112.65 50.45 -113.9 38.45 -117.9 35.95 -118.15 34.85 -117.5 Q34.45 -116.7 36.1 -113.65 L40.2 -107.75 46.35 -102.4 Q48.15 -101.1 52.2 -95.5 L52.35 -96.15 M52.2 -95.5 L49.95 -84.65 49.6 -63.9 49.1 -61.4 43.1 -45.65 42.2 -43.5 42.2 -43.4 41.7 -41.25 41.2 -39.25 41.6 -36.65 47.35 -36.25 50.85 -36.65 52.85 -42.0 Q61.75 -45.1 59.95 -38.4 L61.2 -38.0 61.2 -37.15 59.85 -34.65 71.7 -27.25 Q85.15 -17.55 87.85 -14.75 L87.95 -14.75 Q87.95 -21.95 98.95 -14.9 L106.6 -9.15 106.6 -9.2 106.7 -9.65 104.85 -14.65 Q91.9 -34.95 92.2 -39.0 91.85 -49.9 105.45 -39.25 L111.95 -33.65 115.45 -31.25 115.6 -31.25 Q104.1 -53.7 102.6 -68.4 102.65 -84.95 114.95 -71.75 138.85 -44.8 146.2 -10.25 141.85 30.0 117.45 47.75 L114.6 58.85 103.35 80.85 89.6 99.0 71.6 116.75 55.1 128.5 36.95 137.35 20.2 142.1 17.85 142.5 1.95 144.0 -14.4 142.5 Q-52.65 136.6 -85.9 99.75 L-100.15 81.1 -111.55 59.1 -117.05 38.5 -114.55 21.85 -113.3 19.1 Q-121.55 -19.95 -108.8 -45.75 -103.5 -56.9 -77.4 -72.5 -61.05 -81.4 -61.15 -71.75 -60.8 -67.4 -67.4 -57.5 -73.4 -49.7 -82.9 -42.15 L-84.3 -39.75 -83.95 -39.2 -83.9 -39.15 Q-68.75 -41.85 -67.3 -39.25 -64.3 -37.7 -66.3 -32.9 -67.65 -30.5 -70.05 -28.65 L-81.8 -20.75 -82.9 -19.4 -84.4 -15.25 -68.15 -27.75 -56.9 -34.65 -58.3 -37.5 -57.9 -38.25 -57.05 -38.4 Q-59.0 -45.45 -48.15 -41.75 L-48.05 -41.75 -48.8 -56.75 Q-49.15 -64.7 -48.55 -65.9 -48.1 -69.6 -40.9 -79.0 L-40.8 -79.15 -41.05 -83.4 Q-41.75 -85.8 -43.65 -87.15 L-51.9 -92.65 -58.3 -95.75 Q-65.5 -97.15 -72.9 -100.5 L-83.65 -106.5 Q-86.75 -108.2 -88.05 -110.65 L-87.3 -111.75 -86.3 -111.9 -82.3 -111.9 -67.65 -110.65 -63.55 -111.0 -61.55 -112.5 -60.3 -115.15 -59.3 -119.65 -58.4 -121.25 -55.9 -121.75 -52.4 -120.5 -43.15 -115.9 -37.9 -114.75 -32.55 -116.15 -19.8 -121.75 -17.55 -122.0 -16.8 -121.4 -16.8 -120.5 -17.4 -117.9 -21.4 -109.25 Q-23.25 -105.9 -29.3 -98.5 L-32.05 -93.25 -32.3 -91.15 -31.05 -81.25 -31.3 -77.75 -33.05 -73.5 Q-41.1 -64.9 -39.9 -64.25 -40.6 -62.6 -40.05 -58.65 L-38.05 -46.4 -30.15 -48.15 -20.05 -49.4 -19.55 -49.4 -19.4 -49.5 Q4.65 -54.35 22.95 -49.4 L35.45 -47.65 43.1 -45.65 M22.95 -49.4 L30.6 -47.4 37.6 -45.0 42.2 -43.5 M41.7 -41.25 L33.95 -42.75 31.35 -42.9 30.2 -41.75 30.45 -39.25 30.75 -38.5 Q31.6 -39.2 41.6 -36.65 M30.75 -38.5 L30.7 -38.15 30.7 -36.9 31.35 -35.65 35.6 -31.15 35.7 -30.65 M59.85 -34.65 L53.6 -27.4 53.45 -26.65 53.85 -26.25 M59.95 -38.4 L50.85 -36.65 M37.6 -45.0 L42.2 -43.4 M115.6 -31.25 L115.6 -31.15 116.95 -26.4 M115.45 -31.25 L115.6 -31.15 M87.85 -14.75 L87.95 -14.65 87.95 -14.75 M87.95 -14.65 L95.2 -8.65 108.45 5.6 117.35 21.35 119.95 38.35 117.45 47.75 M106.6 -9.2 L107.2 -6.75 107.2 -5.65 M-12.65 33.6 L-12.3 25.75 -11.9 23.1 -11.3 21.75 -12.65 21.75 -19.8 20.85 -31.4 17.6 -34.05 17.25 -40.3 17.6 Q-47.55 19.55 -48.3 25.75 L-48.55 29.5 -47.9 33.85 Q-47.8 37.3 -43.65 42.0 -43.0 43.3 -38.55 46.35 L-29.9 50.1 Q-2.3 61.85 32.85 50.1 L41.45 46.35 Q45.9 43.3 46.6 42.0 48.25 40.65 50.2 36.6 L50.85 33.85 51.45 29.1 51.2 25.75 Q50.45 19.55 43.2 17.6 L40.6 17.25 34.35 17.6 22.6 20.85 Q18.5 21.9 14.2 21.75 L14.85 23.1 15.6 32.35 M14.2 21.75 L13.45 19.6 12.2 17.6 Q1.7 6.35 -9.3 17.6 -11.05 20.05 -11.3 21.75 M-83.95 -39.2 L-83.9 -38.75 M-113.3 19.1 L-105.55 5.6 -92.3 -8.65 -84.4 -15.25 M-46.55 -36.5 L-47.4 -37.75 -47.8 -39.25 -48.05 -41.65 -48.15 -41.75 M-48.05 -41.75 L-48.05 -41.65 M-56.9 -34.65 L-50.9 -27.75 -50.55 -27.0 -50.55 -26.5 -50.9 -26.4 M-46.55 -36.5 L-41.8 -36.25 -38.15 -36.75 -37.55 -37.75 -37.3 -39.25 -37.4 -41.5 -37.65 -43.9 -37.65 -44.0 -37.65 -44.15 -38.05 -46.4 M-57.05 -38.4 L-46.55 -36.5 M-19.55 -49.4 L-19.4 -49.4 -19.4 -49.5 M-37.4 -41.5 Q-24.1 -45.4 -27.55 -39.25 L-27.8 -38.15 -28.05 -36.15 Q-28.75 -34.65 -32.65 -31.15 L-32.8 -30.65 M-20.05 -49.4 L-34.4 -45.15 -34.55 -45.0 -34.65 -45.0 -37.55 -44.0 -37.55 -43.9 -37.65 -43.9 M-37.55 -44.0 L-37.65 -44.0 M-37.65 -44.15 L-34.65 -45.0 M-27.8 -38.15 Q-27.6 -39.35 -38.15 -36.75" fill="none" stroke="#000000" stroke-linecap="round" stroke-linejoin="round" stroke-width="2.15"/>
  </g>
</svg>
