<?xml version="1.0" encoding="UTF-8" standalone="no"?>
<svg xmlns:xlink="http://www.w3.org/1999/xlink" height="270.5px" width="262.85px" xmlns="http://www.w3.org/2000/svg">
  <g transform="matrix(1.0, 0.0, 0.0, 1.0, 117.95, 127.2)">
    <path d="M51.55 -100.1 L48.2 -104.5 Q39.4 -110.85 34.85 -119.9 31.85 -125.35 43.85 -120.5 L49.2 -118.75 55.7 -117.25 Q59.35 -116.65 70.95 -120.0 L72.85 -120.0 74.85 -119.5 Q77.35 -114.1 79.85 -113.4 L100.45 -112.65 103.6 -112.15 104.35 -111.15 104.2 -110.5 102.85 -109.25 96.45 -106.0 87.7 -102.9 Q84.9 -101.7 73.85 -100.25 L71.45 -99.5 62.7 -95.75 60.2 -93.9 60.1 -93.85 59.85 -93.6 Q57.9 -91.05 57.2 -65.15 L52.2 -45.25 50.6 -40.5 46.95 -40.0 41.1 -40.4 41.1 -40.5 41.1 -40.4 40.95 -40.5 41.1 -40.5 40.7 -41.75 41.2 -44.5 41.35 -45.65 41.45 -45.75 48.6 -65.4 Q48.35 -93.35 51.6 -100.0 L51.55 -100.1 51.85 -101.15 51.55 -100.1 M-47.8 -45.0 L-48.4 -63.0 -48.15 -68.9 Q-47.9 -71.2 -46.15 -74.25 L-40.55 -82.75 -40.4 -82.9 Q-38.4 -89.6 -47.9 -94.5 -55.25 -100.05 -70.8 -104.0 L-80.65 -109.25 -80.8 -109.4 -81.8 -110.0 Q-89.75 -115.1 -86.4 -115.9 L-69.15 -114.75 -63.15 -114.9 -60.9 -116.65 -60.55 -117.4 Q-59.85 -117.85 -58.4 -124.5 L-57.05 -125.65 Q-54.65 -126.7 -43.8 -120.5 L-39.9 -119.25 -37.3 -118.9 -31.4 -120.5 -20.4 -125.5 -17.55 -126.15 -16.55 -125.25 Q-16.35 -123.65 -17.9 -120.5 L-21.05 -113.65 Q-31.75 -99.45 -31.65 -97.5 -29.65 -80.0 -32.15 -78.5 -32.85 -76.35 -38.8 -69.9 L-39.55 -68.15 -39.65 -62.4 -37.15 -46.25 -37.15 -46.15 -37.15 -46.0 -37.05 -44.75 -36.9 -43.0 -37.55 -40.5 -42.65 -39.9 -46.4 -40.25 -47.3 -42.25 -47.8 -45.0 M-40.55 -82.75 L-40.4 -82.65 -40.4 -82.9 -40.4 -82.65 -40.55 -82.75 M-32.05 -96.15 L-32.05 -97.4 -32.05 -96.15" fill="#fa410f" fill-rule="evenodd" stroke="none"/>
    <path d="M41.35 -45.65 L41.2 -44.5 40.7 -41.75 41.1 -40.5 40.95 -40.5 41.1 -40.4 46.95 -40.0 50.6 -40.5 52.2 -45.25 58.45 -46.0 Q60.2 -45.2 59.45 -42.15 62.4 -43.1 58.6 -37.25 L69.7 -30.5 Q84.1 -20.2 86.45 -17.65 88.6 -24.6 105.2 -10.75 L103.2 -16.15 Q89.45 -36.35 90.2 -43.25 91.35 -46.6 92.45 -46.15 L96.35 -45.9 99.6 -44.15 111.35 -34.5 113.1 -33.4 113.45 -33.5 Q94.75 -69.6 102.85 -79.9 107.85 -80.7 116.35 -69.75 L124.1 -59.25 Q128.4 -53.05 135.45 -39.25 146.4 -22.3 143.1 0.75 134.25 33.4 116.2 46.85 L113.1 58.5 102.6 78.85 87.45 98.85 Q65.75 121.3 65.85 119.0 38.75 138.0 19.95 140.5 L1.6 142.25 -15.4 140.75 Q-51.3 135.6 -85.15 98.0 L-99.65 78.75 -110.05 58.6 -116.05 36.35 -113.55 18.85 -113.15 18.1 Q-118.0 -1.8 -116.55 -20.15 -116.0 -35.75 -109.15 -47.9 -102.5 -59.95 -79.05 -73.75 -63.3 -82.55 -63.55 -71.75 -62.65 -69.4 -69.3 -58.5 -73.15 -52.5 -84.05 -43.5 L-85.55 -40.9 -85.3 -40.15 -83.4 -40.15 -76.4 -41.15 -71.55 -41.25 Q-66.55 -40.1 -67.05 -36.15 L-67.55 -34.25 Q-66.65 -31.85 -83.3 -21.15 L-85.15 -16.4 Q-82.0 -19.5 -66.55 -30.65 L-55.65 -37.25 Q-59.25 -42.85 -56.55 -42.15 -58.9 -48.45 -47.8 -45.0 L-47.3 -42.25 -46.4 -40.25 -42.65 -39.9 -37.55 -40.5 -36.9 -43.0 -37.05 -44.75 -37.15 -46.0 -37.15 -46.15 -37.05 -46.15 -35.8 -46.5 -35.65 -46.65 -35.55 -46.65 -35.4 -46.65 -35.4 -46.75 -35.3 -46.75 Q-0.4 -60.7 36.45 -47.4 L38.6 -46.65 41.35 -45.65 M-35.8 -46.65 L-35.65 -46.65 -35.8 -46.5 -35.8 -46.65 M30.4 -42.05 L29.85 -44.9 31.1 -46.15 41.2 -44.5 31.1 -46.15 29.85 -44.9 30.4 -42.05 Q31.25 -42.7 40.95 -40.5 31.25 -42.7 30.4 -42.05 L30.45 -41.65 30.45 -40.5 31.1 -39.25 Q32.85 -36.55 35.1 -34.75 L35.45 -33.9 35.1 -34.75 Q32.85 -36.55 31.1 -39.25 L30.45 -40.5 30.45 -41.65 30.4 -42.05 M50.6 -40.5 L59.45 -42.15 50.6 -40.5 M53.45 -29.4 L52.95 -30.0 53.35 -31.15 58.6 -37.25 53.35 -31.15 52.95 -30.0 53.45 -29.4 M-85.15 -16.4 L-91.3 -11.25 -104.65 3.25 -112.9 17.6 -112.9 17.75 -113.15 18.1 -112.9 17.75 -112.9 17.6 -104.65 3.25 -91.3 -11.25 -85.15 -16.4 M-85.05 -39.9 L-85.3 -40.15 -85.05 -39.9 M-11.15 16.25 L-11.05 16.25 Q-10.75 14.4 -9.15 12.35 L-6.55 9.5 Q2.45 4.2 9.45 9.5 L12.2 12.5 13.95 16.25 14.1 16.25 20.85 15.75 33.35 12.35 36.7 11.85 42.35 12.25 Q46.65 12.55 49.7 17.6 L50.7 20.35 50.85 25.75 50.1 30.25 48.35 33.85 Q46.7 37.8 39.1 42.0 28.7 47.9 10.85 50.1 L-3.15 50.6 -7.9 50.1 Q-26.3 47.65 -36.15 42.0 -41.3 40.05 -45.4 33.85 L-47.15 30.1 -47.9 25.75 -47.8 20.35 -46.8 17.6 Q-43.5 11.5 -35.9 11.85 -35.1 10.7 -15.55 16.1 L-11.15 16.25 -11.65 17.6 -12.55 25.75 -12.55 28.25 -12.55 25.75 -11.65 17.6 -11.15 16.25 -15.55 16.1 Q-35.1 10.7 -35.9 11.85 -43.5 11.5 -46.8 17.6 L-47.8 20.35 -47.9 25.75 -47.15 30.1 -45.4 33.85 Q-41.3 40.05 -36.15 42.0 -26.3 47.65 -7.9 50.1 L-3.15 50.6 10.85 50.1 Q28.7 47.9 39.1 42.0 46.7 37.8 48.35 33.85 L50.1 30.25 50.85 25.75 50.7 20.35 49.7 17.6 Q46.65 12.55 42.35 12.25 L36.7 11.85 33.35 12.35 20.85 15.75 14.1 16.25 14.6 17.6 15.45 25.75 15.35 28.1 15.45 25.75 14.6 17.6 14.1 16.25 13.95 16.25 12.2 12.5 9.45 9.5 Q2.45 4.2 -6.55 9.5 L-9.15 12.35 Q-10.75 14.4 -11.05 16.25 L-11.15 16.25 M105.6 -7.25 L105.2 -10.75 105.6 -7.25 M116.2 46.85 L118.95 36.25 116.45 18.85 115.85 17.6 107.35 2.85 93.45 -11.9 86.45 -17.65 93.45 -11.9 107.35 2.85 115.85 17.6 116.45 18.85 118.95 36.25 116.2 46.85 M114.85 -28.65 L114.35 -31.15 113.6 -33.15 114.35 -31.15 114.85 -28.65 M-32.55 -33.9 L-32.15 -34.75 Q-29.15 -37.25 -28.15 -39.25 L-27.4 -41.0 -27.65 -41.75 -27.05 -43.4 -27.05 -44.75 -28.05 -46.15 -37.05 -44.75 -28.05 -46.15 -27.05 -44.75 -27.05 -43.4 -27.65 -41.75 -27.4 -41.0 -28.15 -39.25 Q-29.15 -37.25 -32.15 -34.75 L-32.55 -33.9 M-46.4 -40.25 L-56.55 -42.15 -46.4 -40.25 M-50.55 -29.5 L-50.05 -30.15 -50.55 -31.15 -55.65 -37.25 -50.55 -31.15 -50.05 -30.15 -50.55 -29.5 M-35.3 -46.75 L-35.4 -46.65 -35.3 -46.75 M-37.15 -46.0 L-37.05 -46.0 -37.05 -46.15 -37.05 -46.0 -37.15 -46.0 M-37.55 -40.5 Q-27.25 -43.15 -27.65 -41.75 -27.25 -43.15 -37.55 -40.5" fill="#ffffff" fill-rule="evenodd" stroke="none"/>
    <path d="M41.45 -45.75 L41.35 -45.65 38.6 -46.65 41.45 -45.75 M-37.15 -46.25 L-35.8 -46.65 -35.8 -46.5 -37.05 -46.15 -37.15 -46.15 -37.15 -46.25 M-35.55 -46.65 L-35.4 -46.75 -35.4 -46.65 -35.55 -46.65" fill="#43396f" fill-rule="evenodd" stroke="none"/>
    <path d="M52.2 -45.25 L57.2 -65.15 Q57.9 -91.05 59.85 -93.6 L60.1 -93.85 60.2 -93.9 62.7 -95.75 71.45 -99.5 73.85 -100.25 Q84.9 -101.7 87.7 -102.9 L96.45 -106.0 102.85 -109.25 104.2 -110.5 104.35 -111.15 103.6 -112.15 100.45 -112.65 79.85 -113.4 Q77.35 -114.1 74.85 -119.5 L72.85 -120.0 70.95 -120.0 Q59.35 -116.65 55.7 -117.25 L49.2 -118.75 43.85 -120.5 Q31.85 -125.35 34.85 -119.9 39.4 -110.85 48.2 -104.5 L51.55 -100.1 51.85 -101.15 M51.55 -100.1 L51.6 -100.0 Q48.35 -93.35 48.6 -65.4 L41.45 -45.75 41.35 -45.65 41.2 -44.5 40.7 -41.75 41.1 -40.5 41.1 -40.4 46.95 -40.0 50.6 -40.5 52.2 -45.25 58.45 -46.0 Q60.2 -45.2 59.45 -42.15 62.4 -43.1 58.6 -37.25 L69.7 -30.5 Q84.1 -20.2 86.45 -17.65 88.6 -24.6 105.2 -10.75 L103.2 -16.15 Q89.45 -36.35 90.2 -43.25 91.35 -46.6 92.45 -46.15 L96.35 -45.9 99.6 -44.15 111.35 -34.5 113.1 -33.4 113.45 -33.5 Q94.75 -69.6 102.85 -79.9 107.85 -80.7 116.35 -69.75 L124.1 -59.25 Q128.4 -53.05 135.45 -39.25 146.4 -22.3 143.1 0.75 134.25 33.4 116.2 46.85 L113.1 58.5 102.6 78.85 87.45 98.85 Q65.75 121.3 65.85 119.0 38.75 138.0 19.95 140.5 L1.6 142.25 -15.4 140.75 Q-51.3 135.6 -85.15 98.0 L-99.65 78.75 -110.05 58.6 -116.05 36.35 -113.55 18.85 -113.15 18.1 Q-118.0 -1.8 -116.55 -20.15 -116.0 -35.75 -109.15 -47.9 -102.5 -59.95 -79.05 -73.75 -63.3 -82.55 -63.55 -71.75 -62.65 -69.4 -69.3 -58.5 -73.15 -52.5 -84.05 -43.5 L-85.55 -40.9 -85.3 -40.15 -83.4 -40.15 -76.4 -41.15 -71.55 -41.25 Q-66.55 -40.1 -67.05 -36.15 L-67.55 -34.25 Q-66.65 -31.85 -83.3 -21.15 L-85.15 -16.4 Q-82.0 -19.5 -66.55 -30.65 L-55.65 -37.25 Q-59.25 -42.85 -56.55 -42.15 -58.9 -48.45 -47.8 -45.0 L-48.4 -63.0 -48.15 -68.9 Q-47.9 -71.2 -46.15 -74.25 L-40.55 -82.75 -40.4 -82.9 Q-38.4 -89.6 -47.9 -94.5 -55.25 -100.05 -70.8 -104.0 L-80.65 -109.25 -80.8 -109.4 -81.8 -110.0 Q-89.75 -115.1 -86.4 -115.9 L-69.15 -114.75 -63.15 -114.9 -60.9 -116.65 -60.55 -117.4 Q-59.85 -117.85 -58.4 -124.5 L-57.05 -125.65 Q-54.65 -126.7 -43.8 -120.5 L-39.9 -119.25 -37.3 -118.9 -31.4 -120.5 -20.4 -125.5 -17.55 -126.15 -16.55 -125.25 Q-16.35 -123.65 -17.9 -120.5 L-21.05 -113.65 Q-31.75 -99.45 -31.65 -97.5 -29.65 -80.0 -32.15 -78.5 -32.85 -76.35 -38.8 -69.9 L-39.55 -68.15 -39.65 -62.4 -37.15 -46.25 -35.8 -46.65 -35.65 -46.65 -35.55 -46.65 -35.4 -46.75 -35.3 -46.75 Q-0.4 -60.7 36.45 -47.4 L38.6 -46.65 41.45 -45.75 M40.95 -40.5 Q31.25 -42.7 30.4 -42.05 L30.45 -41.65 30.45 -40.5 31.1 -39.25 Q32.85 -36.55 35.1 -34.75 L35.45 -33.9 M41.2 -44.5 L31.1 -46.15 29.85 -44.9 30.4 -42.05 M40.95 -40.5 L41.1 -40.5 M40.95 -40.5 L41.1 -40.4 M58.6 -37.25 L53.35 -31.15 52.95 -30.0 53.45 -29.4 M59.45 -42.15 L50.6 -40.5 M38.6 -46.65 L41.35 -45.65 M113.6 -33.15 L114.35 -31.15 114.85 -28.65 M86.45 -17.65 L93.45 -11.9 107.35 2.85 115.85 17.6 116.45 18.85 118.95 36.25 116.2 46.85 M105.2 -10.75 L105.6 -7.25 M-12.55 28.25 L-12.55 25.75 -11.65 17.6 -11.15 16.25 -15.55 16.1 Q-35.1 10.7 -35.9 11.85 -43.5 11.5 -46.8 17.6 L-47.8 20.35 -47.9 25.75 -47.15 30.1 -45.4 33.85 Q-41.3 40.05 -36.15 42.0 -26.3 47.65 -7.9 50.1 L-3.15 50.6 10.85 50.1 Q28.7 47.9 39.1 42.0 46.7 37.8 48.35 33.85 L50.1 30.25 50.85 25.75 50.7 20.35 49.7 17.6 Q46.65 12.55 42.35 12.25 L36.7 11.85 33.35 12.35 20.85 15.75 14.1 16.25 14.6 17.6 15.45 25.75 15.35 28.1 M14.1 16.25 L13.95 16.25 12.2 12.5 9.45 9.5 Q2.45 4.2 -6.55 9.5 L-9.15 12.35 Q-10.75 14.4 -11.05 16.25 L-11.15 16.25 M-85.3 -40.15 L-85.05 -39.9 M-113.15 18.1 L-112.9 17.75 -112.9 17.6 -104.65 3.25 -91.3 -11.25 -85.15 -16.4 M-32.05 -97.4 L-32.05 -96.15 M-40.4 -82.9 L-40.4 -82.65 -40.55 -82.75 M-47.8 -45.0 L-47.3 -42.25 -46.4 -40.25 -42.65 -39.9 -37.55 -40.5 -36.9 -43.0 -37.05 -44.75 -37.15 -46.0 -37.15 -46.15 -37.15 -46.25 M-55.65 -37.25 L-50.55 -31.15 -50.05 -30.15 -50.55 -29.5 M-56.55 -42.15 L-46.4 -40.25 M-37.05 -44.75 L-28.05 -46.15 -27.05 -44.75 -27.05 -43.4 -27.65 -41.75 -27.4 -41.0 -28.15 -39.25 Q-29.15 -37.25 -32.15 -34.75 L-32.55 -33.9 M-35.4 -46.75 L-35.4 -46.65 -35.3 -46.75 M-35.65 -46.65 L-35.8 -46.5 -37.05 -46.15 -37.05 -46.0 -37.15 -46.0 M-35.8 -46.65 L-35.8 -46.5 M-37.15 -46.15 L-37.05 -46.15 M-35.4 -46.65 L-35.55 -46.65 M-27.65 -41.75 Q-27.25 -43.15 -37.55 -40.5" fill="none" stroke="#000000" stroke-linecap="round" stroke-linejoin="round" stroke-width="2.15"/>
  </g>
</svg>
