<?xml version="1.0" encoding="UTF-8" standalone="no"?>
<svg xmlns:xlink="http://www.w3.org/1999/xlink" height="275.7px" width="257.35px" xmlns="http://www.w3.org/2000/svg">
  <g transform="matrix(1.0, 0.0, 0.0, 1.0, 116.1, 136.15)">
    <path d="M50.2 -109.5 L44.95 -115.75 Q40.35 -119.15 38.2 -122.0 L34.6 -127.5 33.6 -130.4 33.95 -131.5 34.7 -131.75 36.35 -131.65 49.45 -127.4 54.95 -126.25 Q59.9 -126.2 68.6 -128.9 L72.6 -128.65 Q73.6 -128.85 75.1 -124.75 L77.6 -122.65 97.7 -121.75 101.1 -121.15 101.85 -120.0 100.1 -118.25 Q98.45 -116.9 91.35 -114.0 L84.7 -111.75 69.85 -108.75 60.7 -104.75 59.2 -103.65 Q57.6 -102.85 56.95 -96.75 L56.1 -75.15 55.6 -71.9 50.95 -53.5 49.95 -50.25 45.1 -49.65 39.85 -50.25 40.1 -52.75 Q40.6 -55.65 47.1 -72.0 L47.7 -75.5 48.1 -99.25 50.2 -109.5 50.45 -110.4 50.2 -109.5 M-46.55 -53.25 L-47.55 -72.9 -47.3 -77.5 Q-47.05 -79.75 -45.3 -83.0 L-39.55 -91.75 -39.4 -91.9 Q-37.35 -98.4 -46.55 -103.4 L-53.55 -107.65 Q-71.5 -111.35 -85.15 -123.75 L-84.3 -124.9 -83.05 -125.0 -67.05 -123.75 -61.65 -123.9 -59.4 -125.75 Q-56.75 -137.1 -54.8 -134.65 -55.55 -136.15 -40.3 -128.65 L-36.55 -127.75 -31.15 -129.25 -19.9 -134.4 -17.05 -135.0 -16.15 -134.15 -16.15 -132.9 -17.65 -128.65 -21.55 -120.65 Q-29.35 -111.15 -30.9 -106.15 -28.8 -91.25 -31.15 -87.9 -33.55 -83.25 -37.4 -79.65 L-38.9 -76.65 -39.05 -71.75 Q-36.5 -58.65 -36.15 -53.0 L-36.3 -50.25 -40.9 -49.65 -45.8 -50.0 -46.55 -53.25 M-39.55 -91.75 L-39.4 -91.65 -39.4 -91.9 -39.4 -91.65 -39.55 -91.75" fill="#fa410f" fill-rule="evenodd" stroke="none"/>
    <path d="M40.1 -52.75 L39.85 -50.25 45.1 -49.65 49.95 -50.25 50.95 -53.5 Q59.75 -55.9 58.35 -51.75 58.8 -51.55 59.2 -51.4 L59.35 -50.9 58.85 -49.0 55.35 -43.75 Q66.75 -38.3 85.45 -23.25 90.1 -23.3 91.2 -22.25 L102.0 -14.8 102.1 -14.75 99.35 -21.65 Q87.6 -39.45 86.85 -45.0 87.2 -55.85 98.1 -47.4 L107.2 -39.75 109.85 -38.25 Q98.0 -60.8 95.95 -76.25 95.25 -93.95 108.35 -79.9 132.4 -52.8 140.2 -17.65 139.6 19.15 112.95 45.25 103.6 74.05 86.2 94.1 L70.6 110.35 56.85 120.6 Q17.75 144.35 -15.05 136.6 -52.5 130.05 -82.65 94.75 L-97.65 73.6 -108.15 52.6 -113.8 29.85 -111.55 13.85 Q-119.8 -27.25 -108.55 -50.9 -102.55 -62.6 -80.55 -75.5 -65.6 -84.15 -65.4 -71.75 L-66.4 -68.0 Q-67.9 -63.9 -70.4 -60.25 -75.3 -52.9 -84.15 -46.0 L-85.65 -43.4 -84.9 -42.25 -72.8 -42.75 Q-67.6 -41.55 -68.15 -36.75 L-68.55 -35.4 -70.05 -32.9 -61.15 -38.75 -52.4 -43.75 -52.4 -43.9 -55.9 -49.15 -56.3 -51.25 -55.4 -51.75 Q-57.35 -56.25 -46.55 -53.25 L-45.8 -50.0 -40.9 -49.65 -36.3 -50.25 -36.15 -53.0 -30.15 -54.25 -27.3 -54.4 Q2.35 -62.85 25.95 -55.5 L30.2 -54.4 32.95 -54.25 40.1 -52.75 M13.6 1.85 L19.6 1.35 Q43.25 -5.9 47.2 1.35 48.0 1.8 49.1 5.0 L49.7 9.5 49.6 13.0 48.45 17.6 46.6 21.35 42.1 25.75 Q37.15 29.9 22.45 33.85 -1.55 39.35 -19.55 33.85 -29.5 31.9 -39.15 25.75 L-43.4 21.75 -45.55 17.6 -46.65 13.1 -46.8 9.5 Q-46.55 4.05 -44.3 1.35 -41.6 -1.35 -39.15 -1.75 L-32.4 -2.25 -29.65 -1.9 -18.8 1.1 -12.65 1.85 -10.65 1.85 -10.4 1.35 Q-7.35 -6.35 0.95 -6.75 L1.95 -6.75 Q10.25 -6.35 13.35 1.35 L13.45 1.85 13.6 1.85 14.35 3.85 15.1 9.5 15.1 13.25 15.1 9.5 14.35 3.85 13.6 1.85 13.45 1.85 13.35 1.35 Q10.25 -6.35 1.95 -6.75 L0.95 -6.75 Q-7.35 -6.35 -10.4 1.35 L-10.65 1.85 -11.55 4.5 -12.15 9.5 -12.15 14.6 -12.15 9.5 -11.55 4.5 -10.65 1.85 -12.65 1.85 -18.8 1.1 -29.65 -1.9 -32.4 -2.25 -39.15 -1.75 Q-41.6 -1.35 -44.3 1.35 -46.55 4.05 -46.8 9.5 L-46.65 13.1 -45.55 17.6 -43.4 21.75 -39.15 25.75 Q-29.5 31.9 -19.55 33.85 -1.55 39.35 22.45 33.85 37.15 29.9 42.1 25.75 L46.6 21.35 48.45 17.6 49.6 13.0 49.7 9.5 49.1 5.0 Q48.0 1.8 47.2 1.35 43.25 -5.9 19.6 1.35 L13.6 1.85 M102.45 -11.4 L102.0 -14.8 102.45 -11.4 M112.95 45.25 L116.7 29.85 114.1 12.1 104.2 -5.0 91.1 -18.65 85.85 -23.0 85.45 -23.25 85.85 -23.0 91.1 -18.65 104.2 -5.0 114.1 12.1 116.7 29.85 112.95 45.25 M111.1 -33.9 L109.85 -38.25 111.1 -33.9 M52.1 -39.65 L55.35 -43.75 52.1 -39.65 M52.7 -37.65 L52.15 -37.7 51.85 -38.25 51.95 -39.25 51.85 -38.25 52.15 -37.7 52.7 -37.65 M32.7 -42.4 L33.6 -42.4 34.2 -42.25 33.6 -42.4 32.7 -42.4 M34.35 -43.0 L34.6 -43.15 31.1 -47.4 29.85 -49.5 29.65 -50.8 29.6 -50.75 29.2 -53.25 30.2 -54.4 29.2 -53.25 29.6 -50.75 29.65 -50.8 30.2 -51.65 31.1 -51.9 39.85 -50.25 31.1 -51.9 30.2 -51.65 29.65 -50.8 29.85 -49.5 31.1 -47.4 34.6 -43.15 34.35 -43.0 M49.95 -50.25 L58.35 -51.75 49.95 -50.25 M-79.55 -25.75 L-82.4 -24.0 -83.55 -22.5 -88.9 -18.0 -101.9 -4.15 -111.05 11.75 -111.55 13.85 -111.05 11.75 -101.9 -4.15 -88.9 -18.0 -83.55 -22.5 -79.55 -25.75 -70.05 -32.9 -79.55 -25.75 M-31.4 -42.25 L-30.8 -42.25 -31.4 -42.25 M-49.9 -37.4 L-48.9 -38.25 -49.05 -39.25 -52.4 -43.75 -49.05 -39.25 -48.9 -38.25 -49.9 -37.4 M-45.8 -50.0 L-55.4 -51.75 -45.8 -50.0 M-26.8 -50.9 L-26.55 -51.0 -26.3 -53.25 -27.3 -54.4 -26.3 -53.25 -26.55 -51.0 -26.8 -50.9 -26.9 -49.4 -31.65 -42.75 -26.9 -49.4 -26.8 -50.9 -26.9 -50.9 -27.05 -51.4 -27.9 -51.75 -29.4 -51.75 -36.3 -50.25 -29.4 -51.75 -27.9 -51.75 -27.05 -51.4 -26.9 -50.9 -26.8 -50.9" fill="#ffffff" fill-rule="evenodd" stroke="none"/>
    <path d="M50.95 -53.5 L55.6 -71.9 56.1 -75.15 56.95 -96.75 Q57.6 -102.85 59.2 -103.65 L60.7 -104.75 69.85 -108.75 84.7 -111.75 91.35 -114.0 Q98.45 -116.9 100.1 -118.25 L101.85 -120.0 101.1 -121.15 97.7 -121.75 77.6 -122.65 75.1 -124.75 Q73.6 -128.85 72.6 -128.65 L68.6 -128.9 Q59.9 -126.2 54.95 -126.25 L49.45 -127.4 36.35 -131.65 34.7 -131.75 33.95 -131.5 33.6 -130.4 34.6 -127.5 38.2 -122.0 Q40.35 -119.15 44.95 -115.75 L50.2 -109.5 50.45 -110.4 M50.2 -109.5 L48.1 -99.25 47.7 -75.5 47.1 -72.0 Q40.6 -55.65 40.1 -52.75 L39.85 -50.25 45.1 -49.65 49.95 -50.25 50.95 -53.5 Q59.75 -55.9 58.35 -51.75 58.8 -51.55 59.2 -51.4 L59.35 -50.9 58.85 -49.0 55.35 -43.75 Q66.75 -38.3 85.45 -23.25 90.1 -23.3 91.2 -22.25 L102.0 -14.8 102.1 -14.75 99.35 -21.65 Q87.6 -39.45 86.85 -45.0 87.2 -55.85 98.1 -47.4 L107.2 -39.75 109.85 -38.25 Q98.0 -60.8 95.95 -76.25 95.25 -93.95 108.35 -79.9 132.4 -52.8 140.2 -17.65 139.6 19.15 112.95 45.25 103.6 74.05 86.2 94.1 L70.6 110.35 56.85 120.6 Q17.75 144.35 -15.05 136.6 -52.5 130.05 -82.65 94.75 L-97.65 73.6 -108.15 52.6 -113.8 29.85 -111.55 13.85 Q-119.8 -27.25 -108.55 -50.9 -102.55 -62.6 -80.55 -75.5 -65.6 -84.15 -65.4 -71.75 L-66.4 -68.0 Q-67.9 -63.9 -70.4 -60.25 -75.3 -52.9 -84.15 -46.0 L-85.65 -43.4 -84.9 -42.25 -72.8 -42.75 Q-67.6 -41.55 -68.15 -36.75 L-68.55 -35.4 -70.05 -32.9 -61.15 -38.75 -52.4 -43.75 -52.4 -43.9 -55.9 -49.15 -56.3 -51.25 -55.4 -51.75 Q-57.35 -56.25 -46.55 -53.25 L-47.55 -72.9 -47.3 -77.5 Q-47.05 -79.75 -45.3 -83.0 L-39.55 -91.75 -39.4 -91.9 Q-37.35 -98.4 -46.55 -103.4 L-53.55 -107.65 Q-71.5 -111.35 -85.15 -123.75 L-84.3 -124.9 -83.05 -125.0 -67.05 -123.75 -61.65 -123.9 -59.4 -125.75 Q-56.75 -137.1 -54.8 -134.65 -55.55 -136.15 -40.3 -128.65 L-36.55 -127.75 -31.15 -129.25 -19.9 -134.4 -17.05 -135.0 -16.15 -134.15 -16.15 -132.9 -17.65 -128.65 -21.55 -120.65 Q-29.35 -111.15 -30.9 -106.15 -28.8 -91.25 -31.15 -87.9 -33.55 -83.25 -37.4 -79.65 L-38.9 -76.65 -39.05 -71.75 Q-36.5 -58.65 -36.15 -53.0 L-30.15 -54.25 -27.3 -54.4 Q2.35 -62.85 25.95 -55.5 L30.2 -54.4 32.95 -54.25 40.1 -52.75 M58.35 -51.75 L49.95 -50.25 M30.2 -54.4 L29.2 -53.25 29.6 -50.75 29.65 -50.8 30.2 -51.65 31.1 -51.9 39.85 -50.25 M15.1 13.25 L15.1 9.5 14.35 3.85 13.6 1.85 13.45 1.85 13.35 1.35 Q10.25 -6.35 1.95 -6.75 L0.95 -6.75 Q-7.35 -6.35 -10.4 1.35 L-10.65 1.85 -11.55 4.5 -12.15 9.5 -12.15 14.6 M29.65 -50.8 L29.85 -49.5 31.1 -47.4 34.6 -43.15 34.35 -43.0 M34.2 -42.25 L33.6 -42.4 32.7 -42.4 M51.95 -39.25 L51.85 -38.25 52.15 -37.7 52.7 -37.65 M55.35 -43.75 L52.1 -39.65 M109.85 -38.25 L111.1 -33.9 M85.45 -23.25 L85.85 -23.0 91.1 -18.65 104.2 -5.0 114.1 12.1 116.7 29.85 112.95 45.25 M102.0 -14.8 L102.45 -11.4 M-10.65 1.85 L-12.65 1.85 -18.8 1.1 -29.65 -1.9 -32.4 -2.25 -39.15 -1.75 Q-41.6 -1.35 -44.3 1.35 -46.55 4.05 -46.8 9.5 L-46.65 13.1 -45.55 17.6 -43.4 21.75 -39.15 25.75 Q-29.5 31.9 -19.55 33.85 -1.55 39.35 22.45 33.85 37.15 29.9 42.1 25.75 L46.6 21.35 48.45 17.6 49.6 13.0 49.7 9.5 49.1 5.0 Q48.0 1.8 47.2 1.35 43.25 -5.9 19.6 1.35 L13.6 1.85 M-83.55 -22.5 L-82.4 -24.0 -79.55 -25.75 -70.05 -32.9 M-111.55 13.85 L-111.05 11.75 -101.9 -4.15 -88.9 -18.0 -83.55 -22.5 -79.55 -25.75 M-39.4 -91.9 L-39.4 -91.65 -39.55 -91.75 M-46.55 -53.25 L-45.8 -50.0 -40.9 -49.65 -36.3 -50.25 -36.15 -53.0 M-31.65 -42.75 L-26.9 -49.4 -26.8 -50.9 -26.9 -50.9 -27.05 -51.4 -27.9 -51.75 -29.4 -51.75 -36.3 -50.25 M-27.3 -54.4 L-26.3 -53.25 -26.55 -51.0 -26.8 -50.9 M-55.4 -51.75 L-45.8 -50.0 M-52.4 -43.75 L-49.05 -39.25 -48.9 -38.25 -49.9 -37.4 M-30.8 -42.25 L-31.4 -42.25" fill="none" stroke="#000000" stroke-linecap="round" stroke-linejoin="round" stroke-width="2.15"/>
  </g>
</svg>
