<?xml version="1.0" encoding="UTF-8" standalone="no"?>
<svg xmlns:xlink="http://www.w3.org/1999/xlink" height="281.2px" width="249.6px" xmlns="http://www.w3.org/2000/svg">
  <g transform="matrix(1.0, 0.0, 0.0, 1.0, 113.55, 147.7)">
    <path d="M40.15 -63.65 L47.15 -63.65 48.45 -63.65 49.1 -63.65 49.15 -63.75 48.45 -63.65 56.2 -65.3 Q60.3 -63.7 51.35 -52.4 58.6 -49.2 75.35 -38.75 L90.7 -25.9 97.95 -20.75 98.2 -20.8 98.35 -20.9 96.45 -26.5 Q81.95 -49.3 82.95 -52.0 82.75 -62.5 92.85 -55.5 L102.6 -47.5 105.35 -45.9 105.45 -45.9 105.45 -45.95 Q92.95 -69.95 90.95 -85.75 89.25 -103.9 104.35 -88.0 131.25 -53.45 134.95 -25.65 136.4 10.15 109.1 42.75 L108.6 44.5 97.35 68.6 84.45 87.5 67.6 105.6 51.7 117.85 Q35.35 128.1 18.45 130.85 -15.3 137.35 -48.55 117.85 -87.1 87.75 -96.05 64.5 L-96.3 64.0 -96.2 64.1 -96.3 63.85 -96.4 63.85 -96.4 63.6 -96.55 63.6 -96.55 63.35 -96.65 63.35 -96.65 63.1 -96.8 63.1 -96.8 62.85 -96.9 62.85 -96.9 62.6 -97.05 62.6 -97.05 62.25 -97.15 62.25 -97.15 62.0 -97.3 62.0 -97.3 61.75 -97.4 61.75 -97.4 61.5 -97.55 61.5 -97.55 61.25 -97.65 61.25 -97.65 61.0 -97.8 61.0 -98.4 59.35 -98.55 59.35 -105.55 44.6 -111.05 20.0 -109.3 8.6 Q-116.8 -32.45 -106.8 -54.75 -101.6 -65.9 -80.65 -77.0 -65.3 -82.15 -67.4 -71.75 L-68.15 -68.0 -71.4 -61.15 -74.05 -57.4 Q-75.55 -55.0 -84.05 -48.15 L-85.05 -46.25 -84.55 -44.75 -83.05 -43.9 -77.15 -43.75 -73.4 -43.25 -71.15 -42.25 -69.8 -40.4 -55.15 -48.9 -55.05 -49.0 -54.3 -49.4 -54.15 -49.5 -48.45 -52.45 -48.4 -52.5 Q-56.9 -65.45 -54.4 -64.65 L-53.5 -65.15 -51.15 -64.9 -45.55 -63.65 -44.9 -63.65 -44.85 -63.65 -41.8 -63.0 Q-39.8 -62.7 -35.3 -63.65 L-35.25 -63.75 -27.15 -65.15 -26.05 -64.4 -25.9 -63.65 -26.55 -61.0 -30.55 -54.4 -28.15 -54.7 -28.1 -54.7 -24.65 -55.25 -28.1 -54.7 -28.15 -54.7 -30.55 -54.4 -26.55 -61.0 Q-26.4 -61.05 -26.3 -61.15 L-25.8 -61.15 Q3.15 -68.65 18.85 -63.65 L29.2 -61.15 29.45 -60.9 Q30.5 -58.4 33.2 -55.5 L33.6 -54.5 27.7 -55.25 27.1 -55.4 27.7 -55.25 33.6 -54.5 33.2 -55.5 Q30.5 -58.4 29.45 -60.9 L29.45 -61.25 Q27.55 -66.1 31.7 -65.8 34.15 -65.65 38.85 -63.65 L40.15 -63.65 M90.7 -25.9 L98.45 -17.7 98.2 -20.8 98.45 -17.7 101.1 -14.9 109.95 -0.5 111.35 3.35 113.95 20.1 109.1 42.0 109.1 42.75 109.1 42.0 113.95 20.1 111.35 3.35 109.95 -0.5 101.1 -14.9 98.45 -17.7 90.7 -25.9 M106.45 -42.25 L105.45 -45.9 106.45 -42.25 M52.7 -48.4 L51.85 -48.65 Q49.05 -49.35 51.35 -52.4 49.05 -49.35 51.85 -48.65 L52.7 -48.4 M-9.9 -18.75 L-7.05 -23.0 Q3.45 -29.55 9.95 -23.0 L12.85 -18.75 13.6 -18.65 Q19.6 -18.4 31.6 -22.15 L35.35 -22.5 40.35 -22.0 Q42.25 -21.1 44.1 -20.25 47.15 -17.7 47.45 -14.9 L48.2 -11.15 48.1 -6.75 47.35 -3.0 Q46.65 -0.45 45.2 1.35 L41.35 5.75 Q39.45 7.6 34.6 9.5 -3.8 23.5 -31.65 9.5 -36.55 7.6 -38.4 5.75 L-42.3 1.35 -44.15 -2.25 -45.15 -6.75 -45.3 -11.15 -44.55 -14.9 Q-44.25 -17.7 -41.15 -20.25 L-37.4 -22.0 -32.4 -22.5 -28.65 -22.15 -16.15 -19.0 -10.65 -18.65 -9.9 -18.75 -11.15 -14.9 -11.8 -9.25 -11.65 -5.5 -11.8 -9.25 -11.15 -14.9 -9.9 -18.75 -10.65 -18.65 -16.15 -19.0 -28.65 -22.15 -32.4 -22.5 -37.4 -22.0 -41.15 -20.25 Q-44.25 -17.7 -44.55 -14.9 L-45.3 -11.15 -45.15 -6.75 -44.15 -2.25 -42.3 1.35 -38.4 5.75 Q-36.55 7.6 -31.65 9.5 -3.8 23.5 34.6 9.5 39.45 7.6 41.35 5.75 L45.2 1.35 Q46.65 -0.45 47.35 -3.0 L48.1 -6.75 48.2 -11.15 47.45 -14.9 Q47.15 -17.7 44.1 -20.25 42.25 -21.1 40.35 -22.0 L35.35 -22.5 31.6 -22.15 Q19.6 -18.4 13.6 -18.65 L12.85 -18.75 14.1 -14.9 14.6 -11.0 14.6 -5.9 14.6 -11.0 14.1 -14.9 12.85 -18.75 9.95 -23.0 Q3.45 -29.55 -7.05 -23.0 L-9.9 -18.75 M-109.3 8.6 L-107.8 1.35 -107.4 0.1 -98.15 -14.9 -86.55 -27.25 -71.65 -39.25 -69.8 -40.4 -71.65 -39.25 -86.55 -27.25 -98.15 -14.9 -107.4 0.1 -107.8 1.35 -109.3 8.6 M-96.2 64.1 L-96.05 64.5 -96.05 64.25 -96.2 64.1 -96.05 64.25 -96.05 64.5 -96.2 64.1 M-49.4 -48.5 Q-45.9 -49.4 -48.45 -52.45 -45.9 -49.4 -49.4 -48.5 M-59.9 -45.5 L-59.05 -45.9 -59.9 -45.5" fill="#ffffff" fill-rule="evenodd" stroke="none"/>
    <path d="M97.5 -132.8 Q98.95 -131.75 97.35 -130.25 L96.6 -129.55 92.65 -127.45 96.6 -129.55 Q95.3 -128.55 93.7 -127.9 L92.65 -127.45 Q85.85 -124.8 78.85 -123.2 L78.1 -123.3 Q72.95 -121.7 67.5 -120.65 65.05 -120.15 63.25 -118.5 L63.1 -118.35 Q60.85 -116.4 58.3 -116.05 L57.5 -116.0 Q57.25 -116.0 57.0 -116.15 L55.8 -115.15 56.0 -113.0 55.65 -111.35 55.1 -107.15 54.8 -97.4 55.1 -107.15 55.65 -111.35 56.0 -113.0 Q56.3 -108.65 55.6 -104.1 L55.0 -99.15 54.8 -97.4 54.2 -93.45 54.0 -90.85 54.6 -90.05 54.45 -85.75 54.0 -82.85 54.45 -85.75 54.6 -90.05 Q56.55 -87.0 54.1 -83.1 L54.0 -82.85 Q53.15 -81.4 52.9 -79.7 52.75 -78.35 52.25 -77.45 L52.45 -76.75 50.05 -68.85 52.45 -76.75 Q53.0 -74.1 51.3 -71.1 L50.05 -68.85 47.3 -63.9 47.15 -63.65 40.15 -63.65 39.05 -64.2 38.8 -64.35 Q38.95 -65.45 40.55 -69.6 38.95 -65.45 38.8 -64.35 38.4 -64.75 38.6 -65.4 39.2 -67.6 40.55 -69.6 L41.05 -70.35 Q42.05 -71.7 42.75 -73.2 48.0 -84.65 47.2 -97.4 46.65 -106.35 48.1 -115.0 L48.6 -119.45 49.0 -121.25 48.65 -121.65 49.0 -121.25 48.6 -119.45 48.65 -121.65 48.65 -122.75 47.95 -123.15 46.15 -124.95 45.0 -126.35 Q42.1 -128.6 39.6 -131.5 36.9 -134.65 35.3 -138.1 33.85 -138.9 33.35 -139.8 L33.05 -140.95 Q33.0 -141.95 33.9 -143.1 L33.95 -143.1 35.6 -143.0 36.6 -142.65 35.6 -143.0 33.95 -143.1 Q34.3 -143.65 34.95 -143.65 L36.6 -142.65 38.85 -140.95 39.5 -141.7 47.6 -139.0 53.2 -137.9 59.7 -138.5 61.35 -138.9 59.7 -138.5 53.2 -137.9 47.6 -139.0 39.5 -141.7 40.0 -141.9 40.25 -141.95 40.55 -142.0 Q46.05 -138.85 52.55 -138.9 L61.35 -138.9 62.65 -138.9 63.65 -139.45 67.05 -140.3 63.65 -139.45 Q65.4 -140.35 67.05 -140.3 69.55 -140.25 71.8 -137.85 L72.4 -137.1 72.6 -136.75 73.1 -136.05 72.6 -136.75 72.4 -137.1 73.1 -136.05 73.2 -135.9 73.25 -135.85 73.7 -135.15 Q75.45 -132.9 78.6 -133.0 L86.95 -133.35 95.95 -133.15 97.5 -132.8 95.95 -133.15 86.95 -133.35 94.35 -133.75 Q95.75 -133.85 96.95 -133.15 L97.5 -132.8 M63.1 -118.35 L58.7 -116.4 58.3 -116.05 58.7 -116.4 63.1 -118.35 M-45.05 -64.5 L-46.3 -81.15 -46.3 -88.65 -44.9 -93.4 -38.3 -103.4 -38.15 -103.65 -38.3 -108.5 -39.8 -111.0 -42.9 -113.65 -48.65 -117.65 -53.05 -120.0 -63.4 -123.15 Q-67.0 -124.3 -74.8 -128.9 -88.85 -137.7 -77.65 -136.75 L-67.55 -135.65 -59.9 -135.65 Q-56.9 -135.65 -55.4 -144.65 L-54.9 -145.65 -53.9 -146.15 -51.8 -146.15 Q-39.3 -139.2 -35.8 -139.5 L-30.55 -140.75 -19.3 -146.0 -17.05 -146.65 Q-13.5 -147.1 -18.65 -136.75 L-20.15 -133.4 Q-28.6 -122.2 -29.8 -118.25 -27.8 -102.7 -30.3 -99.4 -31.8 -95.9 -37.3 -90.4 L-38.15 -88.25 -38.3 -83.65 Q-35.65 -72.1 -35.05 -64.25 L-35.25 -63.75 -35.3 -63.65 Q-39.8 -62.7 -41.8 -63.0 L-44.85 -63.65 -44.9 -63.65 -45.05 -64.5 M46.4 -131.8 L46.55 -131.6 46.6 -131.75 46.4 -131.8 M-38.3 -103.4 L-38.15 -103.4 -38.15 -103.65 -38.15 -103.4 -38.3 -103.4" fill="#fa410f" fill-rule="evenodd" stroke="none"/>
    <path d="M96.6 -129.55 L97.2 -129.9 98.7 -131.4 97.85 -132.75 97.5 -132.8 95.95 -133.15 86.95 -133.35 M73.7 -135.15 L73.25 -135.85 73.2 -135.9 M73.1 -136.05 L72.6 -136.75 72.4 -137.1 M67.05 -140.3 L63.65 -139.45 M61.35 -138.9 L59.7 -138.5 53.2 -137.9 47.6 -139.0 39.5 -141.7 36.6 -142.65 35.6 -143.0 33.95 -143.1 33.6 -143.15 32.6 -142.4 33.05 -140.95 33.35 -139.8 33.6 -138.9 36.95 -133.75 Q38.7 -130.95 44.45 -126.4 L48.65 -121.65 49.0 -121.25 48.6 -119.45 46.6 -111.0 46.35 -85.75 45.7 -82.65 Q42.25 -74.2 40.55 -69.6 38.95 -65.45 38.8 -64.35 38.75 -64.05 38.85 -64.0 L38.85 -63.65 40.15 -63.65 47.15 -63.65 48.45 -63.65 56.2 -65.3 Q60.3 -63.7 51.35 -52.4 58.6 -49.2 75.35 -38.75 L90.7 -25.9 97.95 -20.75 98.2 -20.8 98.35 -20.9 96.45 -26.5 Q81.95 -49.3 82.95 -52.0 82.75 -62.5 92.85 -55.5 L102.6 -47.5 105.35 -45.9 105.45 -45.9 105.45 -45.95 Q92.95 -69.95 90.95 -85.75 89.25 -103.9 104.35 -88.0 131.25 -53.45 134.95 -25.65 136.4 10.15 109.1 42.75 L108.6 44.5 97.35 68.6 84.45 87.5 67.6 105.6 51.7 117.85 Q35.35 128.1 18.45 130.85 -15.3 137.35 -48.55 117.85 -87.1 87.75 -96.05 64.5 L-96.3 64.0 -96.2 64.1 -96.3 63.85 -96.4 63.85 -96.4 63.6 -96.55 63.6 -96.55 63.35 -96.65 63.35 -96.65 63.1 -96.8 63.1 -96.8 62.85 -96.9 62.85 -96.9 62.6 -97.05 62.6 -97.05 62.25 -97.15 62.25 -97.15 62.0 -97.3 62.0 -97.3 61.75 -97.4 61.75 -97.4 61.5 -97.55 61.5 -97.55 61.25 -97.65 61.25 -97.65 61.0 -97.8 61.0 -98.4 59.35 -98.55 59.35 -105.55 44.6 -111.05 20.0 -109.3 8.6 Q-116.8 -32.45 -106.8 -54.75 -101.6 -65.9 -80.65 -77.0 -65.3 -82.15 -67.4 -71.75 L-68.15 -68.0 -71.4 -61.15 -74.05 -57.4 Q-75.55 -55.0 -84.05 -48.15 L-85.05 -46.25 -84.55 -44.75 -83.05 -43.9 -77.15 -43.75 -73.4 -43.25 -71.15 -42.25 -69.8 -40.4 -55.15 -48.9 -55.05 -49.0 -54.3 -49.4 -54.15 -49.5 -48.45 -52.45 -48.4 -52.5 Q-56.9 -65.45 -54.4 -64.65 L-53.5 -65.15 -52.55 -65.75 -51.15 -65.75 -45.05 -64.5 -46.3 -81.15 -46.3 -88.65 -44.9 -93.4 -38.3 -103.4 -38.15 -103.65 -38.3 -108.5 -39.8 -111.0 -42.9 -113.65 -48.65 -117.65 -53.05 -120.0 -63.4 -123.15 Q-67.0 -124.3 -74.8 -128.9 -88.85 -137.7 -77.65 -136.75 L-67.55 -135.65 -59.9 -135.65 Q-56.9 -135.65 -55.4 -144.65 L-54.9 -145.65 -53.9 -146.15 -51.8 -146.15 Q-39.3 -139.2 -35.8 -139.5 L-30.55 -140.75 -19.3 -146.0 -17.05 -146.65 Q-13.5 -147.1 -18.65 -136.75 L-20.15 -133.4 Q-28.6 -122.2 -29.8 -118.25 -27.8 -102.7 -30.3 -99.4 -31.8 -95.9 -37.3 -90.4 L-38.15 -88.25 -38.3 -83.65 Q-35.65 -72.1 -35.05 -64.25 L-28.9 -65.65 -26.4 -65.75 -25.55 -64.75 -25.65 -62.75 -26.3 -61.15 -25.8 -61.15 Q3.15 -68.65 18.85 -63.65 L29.2 -61.15 Q26.5 -66.3 31.65 -65.9 L31.7 -65.9 Q34.2 -65.65 38.6 -64.1 L38.85 -64.0 M50.05 -68.85 L52.45 -76.75 M54.0 -82.85 L54.45 -85.75 54.6 -90.05 M54.8 -97.4 L55.1 -107.15 55.65 -111.35 56.0 -113.0 M58.3 -116.05 L58.7 -116.4 63.1 -118.35 M92.65 -127.45 L96.6 -129.55 M92.65 -127.45 L90.35 -126.25 82.85 -123.5 Q77.35 -121.85 69.35 -120.9 L67.1 -120.15 63.1 -118.35 M58.3 -116.05 L56.95 -114.9 Q56.45 -114.85 56.0 -113.0 M54.8 -97.4 L54.6 -90.05 M54.0 -82.85 L53.6 -80.65 52.45 -76.75 M50.05 -68.85 L48.45 -63.65 M61.35 -138.9 L63.65 -139.45 M67.05 -140.3 L67.35 -140.4 70.1 -140.15 71.2 -139.5 72.4 -137.1 M73.7 -135.15 L75.35 -134.15 80.85 -133.5 86.95 -133.35 M29.45 -60.9 L29.2 -61.15 M29.45 -60.9 Q30.5 -58.4 33.2 -55.5 L33.6 -54.5 27.7 -55.25 27.1 -55.4 M29.45 -61.25 L29.45 -60.9 M-11.65 -5.5 L-11.8 -9.25 -11.15 -14.9 -9.9 -18.75 -10.65 -18.65 -16.15 -19.0 -28.65 -22.15 -32.4 -22.5 -37.4 -22.0 -41.15 -20.25 Q-44.25 -17.7 -44.55 -14.9 L-45.3 -11.15 -45.15 -6.75 -44.15 -2.25 -42.3 1.35 -38.4 5.75 Q-36.55 7.6 -31.65 9.5 -3.8 23.5 34.6 9.5 39.45 7.6 41.35 5.75 L45.2 1.35 Q46.65 -0.45 47.35 -3.0 L48.1 -6.75 48.2 -11.15 47.45 -14.9 Q47.15 -17.7 44.1 -20.25 42.25 -21.1 40.35 -22.0 L35.35 -22.5 31.6 -22.15 Q19.6 -18.4 13.6 -18.65 L12.85 -18.75 14.1 -14.9 14.6 -11.0 14.6 -5.9 M12.85 -18.75 L9.95 -23.0 Q3.45 -29.55 -7.05 -23.0 L-9.9 -18.75 M51.35 -52.4 Q49.05 -49.35 51.85 -48.65 L52.7 -48.4 M105.45 -45.9 L106.45 -42.25 M98.2 -20.8 L98.45 -17.7 101.1 -14.9 109.95 -0.5 111.35 3.35 113.95 20.1 109.1 42.0 109.1 42.75 M98.45 -17.7 L90.7 -25.9 M-38.15 -103.65 L-38.15 -103.4 -38.3 -103.4 M-69.8 -40.4 L-71.65 -39.25 -86.55 -27.25 -98.15 -14.9 -107.4 0.1 -107.8 1.35 -109.3 8.6 M-26.55 -61.0 L-25.9 -63.65 -26.05 -64.4 -27.15 -65.15 -35.25 -63.75 -35.3 -63.65 Q-39.8 -62.7 -41.8 -63.0 L-44.85 -63.65 -44.9 -63.65 -45.55 -63.65 -51.15 -64.9 -53.5 -65.15 M-35.25 -63.75 L-35.05 -64.25 M-24.65 -55.25 L-28.1 -54.7 -28.15 -54.7 -30.55 -54.4 -26.55 -61.0 Q-26.4 -61.05 -26.3 -61.15 M-44.9 -63.65 L-45.05 -64.5 M-59.05 -45.9 L-59.9 -45.5 M-48.45 -52.45 Q-45.9 -49.4 -49.4 -48.5 M-96.2 64.1 L-96.05 64.25 -96.05 64.5 -96.2 64.1" fill="none" stroke="#000000" stroke-linecap="round" stroke-linejoin="round" stroke-width="2.15"/>
  </g>
</svg>
