<?xml version="1.0" encoding="UTF-8" standalone="no"?>
<svg xmlns:xlink="http://www.w3.org/1999/xlink" height="286.95px" width="241.7px" xmlns="http://www.w3.org/2000/svg">
  <g transform="matrix(1.0, 0.0, 0.0, 1.0, 111.0, 159.8)">
    <path d="M47.05 -133.15 L46.95 -133.65 45.45 -135.65 Q35.45 -143.85 31.95 -152.25 29.15 -157.15 40.1 -153.0 L45.7 -151.0 51.45 -149.75 Q53.95 -149.1 64.95 -152.15 L67.1 -152.0 68.7 -151.65 Q70.85 -146.9 72.95 -146.15 L92.6 -145.15 94.95 -144.65 95.7 -143.65 94.95 -142.25 Q91.9 -139.95 88.1 -138.4 L79.35 -135.15 Q77.15 -134.2 67.7 -133.0 L65.35 -132.25 57.7 -128.9 55.1 -126.9 Q53.0 -129.0 52.7 -95.15 L48.35 -78.5 42.95 -77.65 38.1 -78.15 Q37.6 -78.45 44.6 -94.5 L44.95 -96.25 45.1 -122.25 Q46.1 -130.45 47.1 -132.9 L47.05 -133.15 47.45 -134.65 47.05 -133.15 M-44.05 -78.25 L-43.9 -78.25 -45.4 -95.15 Q-45.8 -99.45 -45.15 -102.0 L-43.65 -106.0 -37.05 -115.75 -36.9 -116.0 Q-34.85 -121.6 -42.05 -126.4 L-50.05 -131.75 Q-72.85 -138.3 -79.9 -147.75 L-79.05 -148.9 -77.9 -149.0 -62.3 -147.75 -58.4 -147.9 -57.4 -148.15 -56.15 -149.15 -55.55 -150.0 Q-55.05 -149.9 -53.55 -157.25 L-52.15 -158.25 Q-51.05 -159.65 -39.4 -153.0 L-34.4 -151.65 Q-31.6 -151.85 -16.05 -158.75 L-15.15 -157.75 -15.15 -156.25 -20.3 -144.0 Q-26.05 -137.0 -28.8 -130.5 -27.4 -118.7 -28.55 -113.65 L-30.8 -109.0 Q-38.9 -100.4 -37.55 -100.25 L-37.65 -96.25 Q-33.9 -80.55 -34.15 -78.25 L-38.05 -77.65 -43.9 -78.15 -43.9 -78.25 -43.9 -78.15 -44.05 -78.25 M-37.05 -115.75 L-36.9 -115.75 -36.9 -116.0 -36.9 -115.75 -37.05 -115.75" fill="#fa410f" fill-rule="evenodd" stroke="none"/>
    <path d="M101.1 -54.45 L101.2 -54.5 Q88.75 -78.9 86.6 -95.25 L86.45 -100.0 Q86.9 -104.1 88.6 -105.4 L91.1 -105.65 93.6 -104.25 Q119.35 -78.55 129.1 -37.75 131.35 -27.0 124.6 1.75 119.15 23.0 102.95 43.25 L106.35 33.85 110.7 13.6 111.1 9.5 107.45 -11.0 97.7 -26.65 93.95 -30.75 92.85 -34.0 Q78.9 -56.2 79.7 -59.15 80.15 -70.15 88.85 -63.65 L98.7 -55.75 100.85 -54.4 101.1 -54.45 101.7 -52.0 101.1 -54.45 M38.1 -78.15 L42.95 -77.65 48.35 -78.5 Q52.95 -79.95 55.1 -79.65 L55.85 -78.5 Q56.0 -76.75 53.95 -72.5 L48.95 -63.5 48.95 -62.4 49.4 -61.75 49.45 -61.65 Q66.95 -57.6 93.95 -30.75 L97.7 -26.65 107.45 -11.0 111.1 9.5 110.7 13.6 106.35 33.85 102.95 43.25 Q84.9 88.0 51.1 111.25 19.6 130.8 -14.4 124.6 -49.85 118.55 -77.05 83.75 -110.25 38.35 -107.15 2.0 -113.55 -38.95 -105.4 -57.15 -99.65 -68.2 -84.4 -75.0 -70.6 -79.4 -70.05 -71.75 -69.25 -58.5 -84.65 -47.75 L-83.4 -44.75 Q-82.5 -43.85 -77.8 -43.15 L-73.3 -46.9 -66.15 -51.9 -66.05 -52.0 -65.15 -52.5 -65.05 -52.65 -64.9 -52.65 -64.65 -52.9 -64.55 -52.9 -64.4 -53.0 -64.3 -53.0 -64.05 -53.25 -63.9 -53.25 -63.8 -53.4 -63.65 -53.4 -63.4 -53.65 -63.3 -53.65 -63.15 -53.75 -62.65 -54.0 -62.55 -54.15 -60.4 -55.4 -60.3 -55.5 -60.15 -55.5 -60.05 -55.65 -59.9 -55.65 -59.8 -55.75 -59.65 -55.75 -59.55 -55.9 -59.4 -55.9 -59.3 -56.0 -55.15 -57.9 -55.05 -58.0 -48.65 -60.5 -48.55 -60.65 -48.4 -60.65 -48.3 -60.75 -46.8 -61.5 -46.55 -61.75 -46.4 -61.75 -46.4 -61.9 -46.3 -61.9 -46.3 -61.85 -46.4 -61.9 -46.3 -61.85 Q-45.8 -61.7 -45.75 -62.15 -45.5 -63.65 -51.05 -72.75 L-51.15 -72.9 -52.8 -77.25 -52.8 -79.0 -52.15 -79.65 -50.3 -79.65 -44.05 -78.25 -43.9 -78.15 -38.05 -77.65 -34.15 -78.25 -28.8 -79.5 -25.8 -79.4 -25.0 -77.8 -24.65 -77.15 -24.8 -75.5 -26.55 -72.15 -29.4 -68.0 -23.65 -68.75 -15.3 -70.0 -14.3 -70.25 -6.05 -72.15 -14.3 -70.25 -15.3 -70.0 -23.65 -68.75 -17.65 -70.4 -6.05 -72.15 2.1 -72.9 8.95 -72.15 19.35 -70.65 26.1 -68.9 18.35 -70.0 8.95 -72.15 18.35 -70.0 26.1 -68.9 32.2 -68.0 32.25 -68.05 32.35 -68.25 29.2 -72.5 27.7 -75.75 27.6 -77.25 27.9 -77.85 28.7 -79.4 29.2 -79.75 31.35 -79.65 38.1 -78.15 M54.1 -59.4 L53.6 -59.65 54.1 -59.4 M48.6 -62.25 L49.4 -61.75 48.6 -62.25 M28.45 -75.0 L27.9 -77.85 28.45 -75.0 M32.95 -68.0 L32.25 -68.05 32.95 -68.0 M-30.05 -68.0 L-29.4 -68.0 -30.05 -68.0 M14.2 -29.4 L13.7 -37.9 11.95 -42.5 13.7 -37.9 14.2 -29.4 M-9.1 -42.65 L-8.8 -42.75 Q-7.15 -46.2 -4.55 -47.4 3.2 -50.15 7.45 -47.4 10.1 -46.15 11.7 -42.9 L12.85 -42.4 20.6 -43.0 30.1 -45.4 33.95 -45.75 37.95 -45.4 Q43.9 -44.2 45.6 -39.25 L46.45 -36.5 46.6 -31.15 46.35 -27.9 Q45.9 -24.85 44.7 -23.0 44.35 -21.1 40.95 -17.9 L36.45 -14.9 Q-0.8 1.35 -33.55 -14.9 L-37.3 -17.15 Q-41.8 -21.45 -41.8 -23.0 L-43.05 -26.15 -43.65 -31.15 -43.55 -36.5 -42.65 -39.25 Q-43.05 -39.75 -39.9 -43.25 L-35.65 -45.25 -31.4 -45.75 -29.05 -45.65 -17.05 -42.9 -9.9 -42.4 -9.1 -42.65 -11.05 -35.9 -11.3 -28.75 -11.05 -35.9 -9.1 -42.65 -9.9 -42.4 -17.05 -42.9 -29.05 -45.65 -31.4 -45.75 -35.65 -45.25 -39.9 -43.25 Q-43.05 -39.75 -42.65 -39.25 L-43.55 -36.5 -43.65 -31.15 -43.05 -26.15 -41.8 -23.0 Q-41.8 -21.45 -37.3 -17.15 L-33.55 -14.9 Q-0.8 1.35 36.45 -14.9 L40.95 -17.9 Q44.35 -21.1 44.7 -23.0 45.9 -24.85 46.35 -27.9 L46.6 -31.15 46.45 -36.5 45.6 -39.25 Q43.9 -44.2 37.95 -45.4 L33.95 -45.75 30.1 -45.4 20.6 -43.0 12.85 -42.4 11.7 -42.9 Q10.1 -46.15 7.45 -47.4 3.2 -50.15 -4.55 -47.4 -7.15 -46.2 -8.8 -42.75 L-9.1 -42.65 M-25.55 -75.0 L-25.0 -77.8 -25.55 -75.0 M-77.8 -43.15 L-82.4 -39.25 -95.15 -26.25 -104.55 -11.0 -106.9 1.35 -107.15 2.0 -106.9 1.35 -104.55 -11.0 -95.15 -26.25 -82.4 -39.25 -77.8 -43.15 M-48.4 -60.65 L-48.3 -60.65 -48.3 -60.75 -48.3 -60.65 -48.4 -60.65 M-46.4 -61.75 L-46.3 -61.85 -46.4 -61.75 M-60.4 -55.4 L-60.3 -55.4 -60.3 -55.5 -60.3 -55.4 -60.4 -55.4" fill="#ffffff" fill-rule="evenodd" stroke="none"/>
    <path d="M102.95 43.25 Q119.15 23.0 124.6 1.75 131.35 -27.0 129.1 -37.75 119.35 -78.55 93.6 -104.25 L91.1 -105.65 88.6 -105.4 Q86.9 -104.1 86.45 -100.0 L86.6 -95.25 Q88.75 -78.9 101.2 -54.5 L101.1 -54.45 101.7 -52.0 M48.35 -78.5 L52.7 -95.15 Q53.0 -129.0 55.1 -126.9 L57.7 -128.9 65.35 -132.25 67.7 -133.0 Q77.15 -134.2 79.35 -135.15 L88.1 -138.4 Q91.9 -139.95 94.95 -142.25 L95.7 -143.65 94.95 -144.65 92.6 -145.15 72.95 -146.15 Q70.85 -146.9 68.7 -151.65 L67.1 -152.0 64.95 -152.15 Q53.95 -149.1 51.45 -149.75 L45.7 -151.0 40.1 -153.0 Q29.15 -157.15 31.95 -152.25 35.45 -143.85 45.45 -135.65 L46.95 -133.65 47.05 -133.15 47.45 -134.65 M47.05 -133.15 L47.1 -132.9 Q46.1 -130.45 45.1 -122.25 L44.95 -96.25 44.6 -94.5 Q37.6 -78.45 38.1 -78.15 L42.95 -77.65 48.35 -78.5 Q52.95 -79.95 55.1 -79.65 L55.85 -78.5 Q56.0 -76.75 53.95 -72.5 L48.95 -63.5 48.95 -62.4 49.4 -61.75 49.45 -61.65 Q66.95 -57.6 93.95 -30.75 L92.85 -34.0 Q78.9 -56.2 79.7 -59.15 80.15 -70.15 88.85 -63.65 L98.7 -55.75 100.85 -54.4 101.1 -54.45 M49.4 -61.75 L48.6 -62.25 M53.6 -59.65 L54.1 -59.4 M38.1 -78.15 L31.35 -79.65 29.2 -79.75 28.7 -79.4 27.9 -77.85 28.45 -75.0 M27.9 -77.85 L27.6 -77.25 27.7 -75.75 29.2 -72.5 32.35 -68.25 32.25 -68.05 32.95 -68.0 M8.95 -72.15 L18.35 -70.0 26.1 -68.9 19.35 -70.65 8.95 -72.15 2.1 -72.9 -6.05 -72.15 -14.3 -70.25 -15.3 -70.0 -23.65 -68.75 -29.4 -68.0 -30.05 -68.0 M32.25 -68.05 L32.2 -68.0 26.1 -68.9 M-11.3 -28.75 L-11.05 -35.9 -9.1 -42.65 -9.9 -42.4 -17.05 -42.9 -29.05 -45.65 -31.4 -45.75 -35.65 -45.25 -39.9 -43.25 Q-43.05 -39.75 -42.65 -39.25 L-43.55 -36.5 -43.65 -31.15 -43.05 -26.15 -41.8 -23.0 Q-41.8 -21.45 -37.3 -17.15 L-33.55 -14.9 Q-0.8 1.35 36.45 -14.9 L40.95 -17.9 Q44.35 -21.1 44.7 -23.0 45.9 -24.85 46.35 -27.9 L46.6 -31.15 46.45 -36.5 45.6 -39.25 Q43.9 -44.2 37.95 -45.4 L33.95 -45.75 30.1 -45.4 20.6 -43.0 12.85 -42.4 11.7 -42.9 Q10.1 -46.15 7.45 -47.4 3.2 -50.15 -4.55 -47.4 -7.15 -46.2 -8.8 -42.75 L-9.1 -42.65 M11.95 -42.5 L13.7 -37.9 14.2 -29.4 M93.95 -30.75 L97.7 -26.65 107.45 -11.0 111.1 9.5 110.7 13.6 106.35 33.85 102.95 43.25 Q84.9 88.0 51.1 111.25 19.6 130.8 -14.4 124.6 -49.85 118.55 -77.05 83.75 -110.25 38.35 -107.15 2.0 -113.55 -38.95 -105.4 -57.15 -99.65 -68.2 -84.4 -75.0 -70.6 -79.4 -70.05 -71.75 -69.25 -58.5 -84.65 -47.75 L-83.4 -44.75 Q-82.5 -43.85 -77.8 -43.15 L-73.3 -46.9 -66.15 -51.9 -66.05 -52.0 -65.15 -52.5 -65.05 -52.65 -64.9 -52.65 -64.65 -52.9 -64.55 -52.9 -64.4 -53.0 -64.3 -53.0 -64.05 -53.25 -63.9 -53.25 -63.8 -53.4 -63.65 -53.4 -63.4 -53.65 -63.3 -53.65 -63.15 -53.75 -62.65 -54.0 -62.55 -54.15 -60.4 -55.4 -60.3 -55.5 -60.15 -55.5 -60.05 -55.65 -59.9 -55.65 -59.8 -55.75 -59.65 -55.75 -59.55 -55.9 -59.4 -55.9 -59.3 -56.0 -55.15 -57.9 -55.05 -58.0 -48.65 -60.5 -48.55 -60.65 -48.4 -60.65 -48.3 -60.75 -46.8 -61.5 -46.55 -61.75 -46.4 -61.75 -46.4 -61.9 -46.3 -61.9 -45.75 -62.15 Q-45.5 -63.65 -51.05 -72.75 L-51.15 -72.9 -52.8 -77.25 -52.8 -79.0 -52.15 -79.65 -50.3 -79.65 -44.05 -78.25 -43.9 -78.25 -45.4 -95.15 Q-45.8 -99.45 -45.15 -102.0 L-43.65 -106.0 -37.05 -115.75 -36.9 -116.0 Q-34.85 -121.6 -42.05 -126.4 L-50.05 -131.75 Q-72.85 -138.3 -79.9 -147.75 L-79.05 -148.9 -77.9 -149.0 -62.3 -147.75 -58.4 -147.9 -57.4 -148.15 -56.15 -149.15 -55.55 -150.0 Q-55.05 -149.9 -53.55 -157.25 L-52.15 -158.25 Q-51.05 -159.65 -39.4 -153.0 L-34.4 -151.65 Q-31.6 -151.85 -16.05 -158.75 L-15.15 -157.75 -15.15 -156.25 -20.3 -144.0 Q-26.05 -137.0 -28.8 -130.5 -27.4 -118.7 -28.55 -113.65 L-30.8 -109.0 Q-38.9 -100.4 -37.55 -100.25 L-37.65 -96.25 Q-33.9 -80.55 -34.15 -78.25 L-28.8 -79.5 -25.8 -79.4 -25.0 -77.8 -24.65 -77.15 -24.8 -75.5 -26.55 -72.15 -29.4 -68.0 M-36.9 -116.0 L-36.9 -115.75 -37.05 -115.75 M-107.15 2.0 L-106.9 1.35 -104.55 -11.0 -95.15 -26.25 -82.4 -39.25 -77.8 -43.15 M-25.0 -77.8 L-25.55 -75.0 M-43.9 -78.15 L-38.05 -77.65 -34.15 -78.25 M-6.05 -72.15 L-17.65 -70.4 -23.65 -68.75 M-43.9 -78.25 L-43.9 -78.15 -44.05 -78.25 M-60.3 -55.5 L-60.3 -55.4 -60.4 -55.4 M-46.3 -61.85 L-46.4 -61.75 M-48.3 -60.75 L-48.3 -60.65 -48.4 -60.65 M-46.4 -61.9 L-46.3 -61.85 -46.3 -61.9 M-45.75 -62.15 Q-45.8 -61.7 -46.3 -61.85" fill="none" stroke="#000000" stroke-linecap="round" stroke-linejoin="round" stroke-width="2.15"/>
  </g>
</svg>
