<?xml version="1.0" encoding="UTF-8" standalone="no"?>
<svg xmlns:xlink="http://www.w3.org/1999/xlink" height="291.9px" width="234.75px" xmlns="http://www.w3.org/2000/svg">
  <g transform="matrix(1.0, 0.0, 0.0, 1.0, 109.25, 170.4)">
    <path d="M45.85 -143.75 L42.45 -148.25 Q37.35 -152.45 35.2 -155.4 L31.95 -160.65 30.95 -163.25 30.95 -164.4 Q29.75 -167.05 45.85 -161.15 54.35 -158.85 64.85 -162.25 L66.95 -161.75 67.6 -161.15 69.2 -158.0 70.95 -156.5 77.45 -155.75 85.95 -155.65 91.6 -155.15 92.6 -154.9 93.35 -153.5 91.6 -151.75 85.85 -148.65 77.95 -145.65 Q75.4 -144.6 65.6 -143.25 L56.6 -139.5 53.7 -137.4 Q52.75 -137.0 52.1 -130.15 L51.7 -107.15 51.2 -103.65 47.95 -92.4 42.2 -91.25 37.7 -91.65 43.35 -104.0 44.1 -107.65 43.95 -133.25 45.85 -143.65 45.85 -143.75 46.2 -144.9 46.2 -145.4 46.2 -144.9 45.85 -143.75 M-33.55 -91.9 L-37.9 -91.15 -43.05 -91.9 -44.8 -106.0 Q-45.15 -109.9 -44.55 -112.25 -44.1 -114.7 -42.4 -117.4 L-36.05 -126.5 -35.9 -126.5 -35.9 -126.75 -35.9 -126.5 -36.05 -126.5 -35.9 -126.75 -35.9 -127.0 -35.8 -127.25 -35.9 -131.75 -36.05 -131.9 Q-38.55 -136.65 -49.55 -142.9 -72.3 -149.6 -77.55 -159.0 L-76.15 -159.65 -72.65 -159.65 -61.55 -158.5 -56.05 -158.65 -54.3 -160.25 Q-51.55 -171.45 -50.3 -168.9 -48.8 -169.45 -37.8 -163.25 L-33.4 -162.25 -28.55 -163.65 -18.15 -168.65 -15.55 -169.25 Q-13.5 -162.5 -27.65 -141.75 -28.65 -141.7 -27.15 -129.4 L-27.65 -124.75 -29.9 -119.9 Q-38.1 -111.15 -37.05 -110.9 -37.8 -108.85 -37.05 -105.5 L-33.55 -91.9" fill="#fa410f" fill-rule="evenodd" stroke="none"/>
    <path d="M97.7 -60.4 L97.85 -60.4 97.45 -62.4 Q89.95 -76.35 84.95 -94.5 L83.95 -100.25 Q82.75 -109.95 87.35 -111.4 89.45 -113.8 102.6 -96.65 L111.1 -82.75 Q115.35 -75.6 120.1 -63.65 128.5 -47.7 120.7 -6.5 115.65 20.3 95.35 48.35 L102.85 30.6 108.6 4.35 108.7 -2.5 105.2 -21.65 104.6 -23.0 95.7 -37.4 84.2 -49.25 Q75.65 -62.4 78.85 -68.5 82.25 -71.45 84.45 -69.65 L97.45 -60.4 97.7 -60.4 97.95 -59.25 97.7 -60.4 M37.7 -91.65 L42.2 -91.25 47.95 -92.4 Q56.6 -96.6 53.75 -87.45 L53.3 -86.15 Q51.7 -81.75 47.85 -74.65 48.85 -75.2 67.35 -62.5 L84.2 -49.25 95.7 -37.4 104.6 -23.0 105.2 -21.65 108.7 -2.5 108.6 4.35 102.85 30.6 95.35 48.35 91.35 57.1 79.2 76.25 63.1 94.5 48.1 106.75 Q17.6 125.15 -14.4 118.85 L-29.3 114.75 -44.9 106.75 -59.05 95.5 -75.9 76.5 -88.4 57.0 -99.65 31.5 -105.55 5.5 Q-106.3 1.4 -105.55 -3.9 L-105.55 -4.65 Q-111.4 -39.1 -104.3 -58.25 L-104.15 -58.4 -104.15 -58.5 -104.05 -58.65 -103.8 -59.15 -103.65 -59.25 Q-94.6 -72.5 -79.8 -71.75 -67.55 -68.8 -78.3 -51.75 L-63.4 -63.25 Q-54.15 -70.1 -44.9 -74.65 L-44.9 -74.75 -45.05 -75.75 Q-49.4 -82.25 -50.8 -87.2 -51.55 -89.7 -51.55 -91.75 L-50.55 -93.25 Q-49.55 -93.7 -43.05 -91.9 L-37.9 -91.15 -33.55 -91.9 Q-18.6 -97.95 -27.4 -80.75 4.4 -88.05 30.95 -80.75 L28.45 -84.25 27.1 -87.0 26.95 -88.5 27.4 -89.1 27.6 -89.4 27.45 -92.15 27.85 -92.65 28.45 -93.25 30.2 -93.25 37.7 -91.65 M27.85 -87.5 L27.4 -89.1 27.85 -87.5 M13.7 -51.5 L13.85 -52.15 13.95 -55.5 13.35 -61.0 12.45 -63.65 12.2 -64.75 11.15 -66.35 11.85 -66.25 17.35 -66.25 Q33.35 -70.15 35.35 -69.0 38.45 -68.8 41.6 -66.5 L43.85 -63.65 45.35 -59.25 45.35 -52.0 44.2 -47.4 42.1 -43.25 Q38.35 -39.0 37.6 -39.25 31.1 -34.1 12.1 -31.15 L0.6 -30.25 -9.15 -31.15 Q-26.9 -33.6 -34.65 -39.25 -35.4 -39.05 -39.15 -43.25 L-41.3 -47.4 -42.4 -52.0 -42.4 -59.25 -40.9 -63.65 -38.65 -66.5 Q-35.4 -68.65 -33.65 -68.75 L-26.9 -68.9 Q-14.4 -65.45 -8.4 -66.25 L-9.3 -64.75 -10.4 -61.0 -11.05 -55.5 -10.9 -52.15 -10.8 -51.5 -10.9 -52.15 -11.05 -55.5 -10.4 -61.0 -9.3 -64.75 -8.4 -66.25 Q-14.4 -65.45 -26.9 -68.9 L-33.65 -68.75 Q-35.4 -68.65 -38.65 -66.5 L-40.9 -63.65 -42.4 -59.25 -42.4 -52.0 -41.3 -47.4 -39.15 -43.25 Q-35.4 -39.05 -34.65 -39.25 -26.9 -33.6 -9.15 -31.15 L0.6 -30.25 12.1 -31.15 Q31.1 -34.1 37.6 -39.25 38.35 -39.0 42.1 -43.25 L44.2 -47.4 45.35 -52.0 45.35 -59.25 43.85 -63.65 41.6 -66.5 Q38.45 -68.8 35.35 -69.0 33.35 -70.15 17.35 -66.25 L11.85 -66.25 11.15 -66.35 12.2 -64.75 12.45 -63.65 13.35 -61.0 13.95 -55.5 13.85 -52.15 13.7 -51.5 M45.2 -75.75 L45.7 -75.75 45.2 -75.75 M44.35 -76.0 L44.85 -76.0 44.35 -76.0 M44.2 -76.25 L43.5 -76.5 43.2 -76.65 30.95 -80.65 32.7 -80.65 30.95 -80.65 43.2 -76.65 43.5 -76.5 44.2 -76.25 M46.1 -75.4 L47.85 -74.65 46.1 -75.4 M-8.4 -66.25 L-8.25 -66.45 Q-5.35 -71.4 1.7 -71.5 L4.6 -71.15 7.6 -69.9 Q11.15 -67.4 10.95 -66.4 L11.15 -66.35 10.95 -66.4 Q11.15 -67.4 7.6 -69.9 L4.6 -71.15 1.7 -71.5 Q-5.35 -71.4 -8.25 -66.45 L-8.4 -66.25 M-50.15 -86.25 Q-50.2 -86.9 -50.8 -87.2 -50.2 -86.9 -50.15 -86.25 M-84.55 -45.9 L-92.9 -37.25 -101.65 -23.0 -102.55 -20.65 -105.4 -4.65 -105.55 -4.65 -105.4 -4.65 -102.55 -20.65 -101.65 -23.0 -92.9 -37.25 -84.55 -45.9 -81.9 -48.5 -84.8 -47.15 -84.55 -45.9 M-78.3 -51.75 L-81.9 -48.5 -78.3 -51.75 M-43.4 -75.25 L-44.9 -74.75 -43.4 -75.25 M-40.9 -76.4 L-40.4 -76.5 -40.1 -76.7 -39.8 -76.75 -28.3 -80.7 -28.15 -80.7 -27.8 -80.75 -28.15 -80.7 -28.3 -80.7 -39.8 -76.75 -40.1 -76.7 -40.4 -76.5 -40.9 -76.4 M-24.9 -87.5 L-24.65 -89.0 -24.9 -87.5 M-105.4 -4.65 L-105.55 -3.9 -105.4 -4.65" fill="#ffffff" fill-rule="evenodd" stroke="none"/>
    <path d="M47.95 -92.4 L51.2 -103.65 51.7 -107.15 52.1 -130.15 Q52.75 -137.0 53.7 -137.4 L56.6 -139.5 65.6 -143.25 Q75.4 -144.6 77.95 -145.65 L85.85 -148.65 91.6 -151.75 93.35 -153.5 92.6 -154.9 91.6 -155.15 85.95 -155.65 77.45 -155.75 70.95 -156.5 69.2 -158.0 67.6 -161.15 66.95 -161.75 64.85 -162.25 Q54.35 -158.85 45.85 -161.15 29.75 -167.05 30.95 -164.4 L30.95 -163.25 31.95 -160.65 35.2 -155.4 Q37.35 -152.45 42.45 -148.25 L45.85 -143.75 46.2 -144.9 46.2 -145.4 M95.35 48.35 Q115.65 20.3 120.7 -6.5 128.5 -47.7 120.1 -63.65 115.35 -75.6 111.1 -82.75 L102.6 -96.65 Q89.45 -113.8 87.35 -111.4 82.75 -109.95 83.95 -100.25 L84.95 -94.5 Q89.95 -76.35 97.45 -62.4 L97.85 -60.4 97.7 -60.4 97.95 -59.25 M45.85 -143.75 L45.85 -143.65 43.95 -133.25 44.1 -107.65 43.35 -104.0 37.7 -91.65 42.2 -91.25 47.95 -92.4 Q56.6 -96.6 53.75 -87.45 L53.3 -86.15 Q51.7 -81.75 47.85 -74.65 48.85 -75.2 67.35 -62.5 L84.2 -49.25 Q75.65 -62.4 78.85 -68.5 82.25 -71.45 84.45 -69.65 L97.45 -60.4 97.7 -60.4 M47.85 -74.65 L46.1 -75.4 M32.7 -80.65 L30.95 -80.65 43.2 -76.65 43.5 -76.5 44.2 -76.25 M44.85 -76.0 L44.35 -76.0 M45.7 -75.75 L45.2 -75.75 M-10.8 -51.5 L-10.9 -52.15 -11.05 -55.5 -10.4 -61.0 -9.3 -64.75 -8.4 -66.25 Q-14.4 -65.45 -26.9 -68.9 L-33.65 -68.75 Q-35.4 -68.65 -38.65 -66.5 L-40.9 -63.65 -42.4 -59.25 -42.4 -52.0 -41.3 -47.4 -39.15 -43.25 Q-35.4 -39.05 -34.65 -39.25 -26.9 -33.6 -9.15 -31.15 L0.6 -30.25 12.1 -31.15 Q31.1 -34.1 37.6 -39.25 38.35 -39.0 42.1 -43.25 L44.2 -47.4 45.35 -52.0 45.35 -59.25 43.85 -63.65 41.6 -66.5 Q38.45 -68.8 35.35 -69.0 33.35 -70.15 17.35 -66.25 L11.85 -66.25 11.15 -66.35 12.2 -64.75 12.45 -63.65 13.35 -61.0 13.95 -55.5 13.85 -52.15 13.7 -51.5 M27.4 -89.1 L27.85 -87.5 M37.7 -91.65 L30.2 -93.25 28.45 -93.25 27.85 -92.65 27.45 -92.15 27.6 -89.4 27.4 -89.1 26.95 -88.5 27.1 -87.0 28.45 -84.25 30.95 -80.75 Q4.4 -88.05 -27.4 -80.75 -18.6 -97.95 -33.55 -91.9 L-37.9 -91.15 -43.05 -91.9 Q-49.55 -93.7 -50.55 -93.25 L-51.55 -91.75 Q-51.55 -89.7 -50.8 -87.2 -50.2 -86.9 -50.15 -86.25 M11.15 -66.35 L10.95 -66.4 Q11.15 -67.4 7.6 -69.9 L4.6 -71.15 1.7 -71.5 Q-5.35 -71.4 -8.25 -66.45 L-8.4 -66.25 M84.2 -49.25 L95.7 -37.4 104.6 -23.0 105.2 -21.65 108.7 -2.5 108.6 4.35 102.85 30.6 95.35 48.35 91.35 57.1 79.2 76.25 63.1 94.5 48.1 106.75 Q17.6 125.15 -14.4 118.85 L-29.3 114.75 -44.9 106.75 -59.05 95.5 -75.9 76.5 -88.4 57.0 -99.65 31.5 -105.55 5.5 Q-106.3 1.4 -105.55 -3.9 L-105.55 -4.65 Q-111.4 -39.1 -104.3 -58.25 L-104.15 -58.4 -104.15 -58.5 -104.05 -58.65 -103.8 -59.15 -103.65 -59.25 Q-94.6 -72.5 -79.8 -71.75 -67.55 -68.8 -78.3 -51.75 L-63.4 -63.25 Q-54.15 -70.1 -44.9 -74.65 L-44.9 -74.75 -45.05 -75.75 Q-49.4 -82.25 -50.8 -87.2 M-33.55 -91.9 L-37.05 -105.5 Q-37.8 -108.85 -37.05 -110.9 -38.1 -111.15 -29.9 -119.9 L-27.65 -124.75 -27.15 -129.4 Q-28.65 -141.7 -27.65 -141.75 -13.5 -162.5 -15.55 -169.25 L-18.15 -168.65 -28.55 -163.65 -33.4 -162.25 -37.8 -163.25 Q-48.8 -169.45 -50.3 -168.9 -51.55 -171.45 -54.3 -160.25 L-56.05 -158.65 -61.55 -158.5 -72.65 -159.65 -76.15 -159.65 -77.55 -159.0 Q-72.3 -149.6 -49.55 -142.9 -38.55 -136.65 -36.05 -131.9 L-35.9 -131.75 -35.8 -127.25 -35.9 -127.0 -35.9 -126.75 -35.9 -126.5 -36.05 -126.5 -42.4 -117.4 Q-44.1 -114.7 -44.55 -112.25 -45.15 -109.9 -44.8 -106.0 L-43.05 -91.9 M-35.9 -126.75 L-36.05 -126.5 M-105.55 -4.65 L-105.4 -4.65 -102.55 -20.65 -101.65 -23.0 -92.9 -37.25 -84.55 -45.9 -84.8 -47.15 -81.9 -48.5 -78.3 -51.75 M-81.9 -48.5 L-84.55 -45.9 M-105.55 -3.9 L-105.4 -4.65 M-24.65 -89.0 L-24.9 -87.5 M-27.8 -80.75 L-28.15 -80.7 -28.3 -80.7 -39.8 -76.75 -40.1 -76.7 -40.4 -76.5 -40.9 -76.4 M-44.9 -74.75 L-43.4 -75.25" fill="none" stroke="#000000" stroke-linecap="round" stroke-linejoin="round" stroke-width="2.15"/>
  </g>
</svg>
