<?xml version="1.0" encoding="UTF-8" standalone="no"?>
<svg xmlns:xlink="http://www.w3.org/1999/xlink" height="293.6px" width="231.05px" xmlns="http://www.w3.org/2000/svg">
  <g transform="matrix(1.0, 0.0, 0.0, 1.0, 108.75, 176.95)">
    <path d="M45.1 -150.5 Q18.95 -177.9 39.85 -169.25 46.75 -164.25 63.45 -168.75 L66.1 -168.15 Q68.6 -162.95 70.1 -163.0 L87.6 -162.15 90.95 -161.5 91.85 -160.5 91.85 -160.0 90.35 -158.5 82.1 -154.25 75.2 -151.9 62.7 -149.4 55.85 -146.4 53.2 -144.65 Q50.4 -145.45 50.85 -112.5 L50.1 -108.65 48.1 -102.75 44.2 -101.75 Q40.55 -101.05 37.95 -101.75 L42.95 -111.4 43.45 -114.15 43.2 -138.4 Q43.25 -143.1 45.1 -150.5 L45.45 -152.15 45.1 -150.5 M45.6 -152.4 L45.6 -152.9 45.6 -152.4 M-42.9 -102.25 L-44.65 -112.75 -44.55 -118.15 Q-45.75 -119.5 -35.15 -134.4 L-35.15 -138.65 -35.3 -138.9 -35.3 -139.0 -35.4 -139.15 Q-35.9 -141.3 -38.9 -143.4 L-47.3 -149.4 Q-67.75 -154.95 -76.4 -165.25 L-75.55 -166.4 -72.55 -166.65 -60.3 -165.4 -55.05 -165.5 -53.05 -167.65 Q-51.3 -177.4 -49.05 -175.65 -49.35 -176.9 -37.4 -170.15 L-33.8 -169.25 Q-30.1 -168.95 -15.15 -175.9 L-14.4 -175.0 -14.4 -173.65 -19.05 -161.9 Q-26.3 -151.9 -27.05 -148.9 -27.4 -149.4 -27.5 -148.5 L-27.55 -148.0 -27.55 -147.5 Q-27.6 -144.6 -26.65 -136.15 L-27.3 -131.65 -29.8 -126.5 Q-37.75 -117.95 -36.9 -117.65 -37.75 -116.45 -37.3 -113.0 L-33.65 -101.9 -38.05 -101.4 -42.9 -102.25" fill="#fa410f" fill-rule="evenodd" stroke="none"/>
    <path d="M27.35 -97.15 L27.35 -97.9 26.95 -99.9 27.1 -102.15 27.95 -103.4 30.6 -103.4 37.95 -101.75 Q40.55 -101.05 44.2 -101.75 L48.1 -102.75 Q55.65 -105.35 52.85 -96.6 L52.5 -95.6 Q51.0 -91.45 47.45 -85.0 L58.1 -78.4 78.35 -61.75 Q78.4 -74.85 92.7 -63.65 L96.1 -61.75 95.6 -65.25 Q96.1 -65.45 90.1 -76.9 L85.95 -88.0 84.1 -96.75 Q82.5 -109.1 87.2 -109.65 102.0 -104.4 118.6 -63.65 125.1 -43.1 115.6 -1.75 109.4 26.75 84.95 59.75 66.2 94.15 31.45 110.35 1.2 120.6 -27.05 110.85 -57.05 96.8 -72.05 75.0 L-87.65 50.75 -97.8 26.75 Q-104.1 2.45 -104.65 -6.75 L-104.9 -8.9 -104.9 -9.0 Q-110.25 -34.2 -105.3 -55.65 L-102.8 -59.9 Q-99.3 -63.7 -96.8 -64.25 -85.05 -67.35 -81.8 -63.65 L-80.55 -62.5 -78.55 -59.25 -55.15 -78.4 -44.85 -84.85 -44.65 -85.0 -48.8 -92.15 Q-50.3 -95.7 -49.8 -96.0 L-49.8 -96.15 -50.65 -100.9 -50.55 -102.4 -49.9 -103.4 -47.65 -103.4 -42.9 -102.25 -38.05 -101.4 -33.65 -101.9 -27.3 -103.4 -25.05 -103.4 -24.05 -101.9 -24.4 -97.15 -23.8 -96.9 -23.65 -96.25 -23.9 -94.9 Q-6.0 -100.5 22.7 -96.15 L26.85 -94.9 26.6 -96.65 27.35 -97.15 27.45 -96.5 27.35 -97.15 M78.35 -61.75 L92.35 -48.9 102.45 -34.15 103.6 -31.15 107.1 -14.9 107.7 -9.65 107.35 -2.0 101.85 23.75 90.85 50.1 85.7 58.25 84.95 59.75 85.7 58.25 90.85 50.1 101.85 23.75 107.35 -2.0 107.7 -9.65 107.1 -14.9 103.6 -31.15 102.45 -34.15 92.35 -48.9 78.35 -61.75 M95.85 -61.25 L96.1 -61.75 95.85 -61.25 M13.45 -70.65 L13.45 -71.5 13.45 -70.65 M-7.75 -86.85 L-6.65 -88.0 Q1.7 -94.55 9.6 -88.0 L10.6 -86.75 16.7 -86.65 23.7 -88.0 Q30.0 -89.7 35.1 -89.15 L38.7 -88.0 Q42.6 -86.85 44.45 -79.9 L44.85 -77.25 44.6 -71.75 43.95 -68.5 Q43.4 -65.95 41.6 -63.65 L38.7 -60.4 Q34.4 -57.1 28.85 -55.5 -0.05 -46.0 -25.9 -55.5 -35.8 -58.95 -38.65 -63.65 L-40.15 -66.15 -41.65 -71.75 -41.9 -77.25 -41.55 -79.9 Q-40.4 -85.85 -35.8 -88.0 -32.85 -89.7 -26.65 -89.15 L-13.9 -86.65 -7.9 -86.75 -7.75 -86.85 -8.9 -84.9 -10.4 -79.9 -10.8 -76.5 -10.65 -72.15 -10.8 -76.5 -10.4 -79.9 -8.9 -84.9 -7.75 -86.85 -7.9 -86.75 -13.9 -86.65 -26.65 -89.15 Q-32.85 -89.7 -35.8 -88.0 -40.4 -85.85 -41.55 -79.9 L-41.9 -77.25 -41.65 -71.75 -40.15 -66.15 -38.65 -63.65 Q-35.8 -58.95 -25.9 -55.5 -0.05 -46.0 28.85 -55.5 34.4 -57.1 38.7 -60.4 L41.6 -63.65 Q43.4 -65.95 43.95 -68.5 L44.6 -71.75 44.85 -77.25 44.45 -79.9 Q42.6 -86.85 38.7 -88.0 L35.1 -89.15 Q30.0 -89.7 23.7 -88.0 L16.7 -86.65 10.6 -86.75 11.95 -84.75 13.35 -79.9 13.7 -73.15 13.6 -72.15 13.7 -73.15 13.35 -79.9 11.95 -84.75 10.6 -86.75 9.6 -88.0 Q1.7 -94.55 -6.65 -88.0 L-7.75 -86.85 M26.85 -94.9 L26.95 -94.75 33.6 -92.25 47.45 -85.0 33.6 -92.25 26.95 -94.75 26.85 -94.9 M52.85 -96.6 L52.45 -96.15 52.5 -95.6 52.45 -96.15 52.85 -96.6 M-44.45 -85.1 L-44.65 -85.0 -44.45 -85.1 -31.8 -91.75 -24.05 -94.75 -23.9 -94.9 -24.05 -94.75 -31.8 -91.75 -44.45 -85.1 -44.85 -84.85 -44.45 -85.1 M-49.8 -96.0 L-49.65 -95.9 -49.8 -96.15 -49.65 -95.9 -49.8 -96.0 M-10.55 -71.5 L-10.55 -70.65 -10.55 -71.5 M-24.55 -96.5 L-24.4 -97.15 -24.55 -96.5 M-104.9 -9.0 L-102.55 -23.0 -100.65 -31.15 -99.15 -34.75 -90.55 -47.4 -87.15 -51.15 -78.55 -59.25 -87.15 -51.15 -90.55 -47.4 -99.15 -34.75 -100.65 -31.15 -102.55 -23.0 -104.9 -9.0" fill="#ffffff" fill-rule="evenodd" stroke="none"/>
    <path d="M48.1 -102.75 L50.1 -108.65 50.85 -112.5 Q50.4 -145.45 53.2 -144.65 L55.85 -146.4 62.7 -149.4 75.2 -151.9 82.1 -154.25 90.35 -158.5 91.85 -160.0 91.85 -160.5 90.95 -161.5 87.6 -162.15 70.1 -163.0 Q68.6 -162.95 66.1 -168.15 L63.45 -168.75 Q46.75 -164.25 39.85 -169.25 18.95 -177.9 45.1 -150.5 L45.45 -152.15 M45.6 -152.9 L45.6 -152.4 M37.95 -101.75 L30.6 -103.4 27.95 -103.4 27.1 -102.15 26.95 -99.9 27.35 -97.9 27.35 -97.15 27.45 -96.5 M45.1 -150.5 Q43.25 -143.1 43.2 -138.4 L43.45 -114.15 42.95 -111.4 37.95 -101.75 Q40.55 -101.05 44.2 -101.75 L48.1 -102.75 Q55.65 -105.35 52.85 -96.6 L52.5 -95.6 Q51.0 -91.45 47.45 -85.0 L58.1 -78.4 78.35 -61.75 Q78.4 -74.85 92.7 -63.65 L96.1 -61.75 95.6 -65.25 Q96.1 -65.45 90.1 -76.9 L85.95 -88.0 84.1 -96.75 Q82.5 -109.1 87.2 -109.65 102.0 -104.4 118.6 -63.65 125.1 -43.1 115.6 -1.75 109.4 26.75 84.95 59.75 66.2 94.15 31.45 110.35 1.2 120.6 -27.05 110.85 -57.05 96.8 -72.05 75.0 L-87.65 50.75 -97.8 26.75 Q-104.1 2.45 -104.65 -6.75 L-104.9 -8.9 -104.9 -9.0 Q-110.25 -34.2 -105.3 -55.65 L-102.8 -59.9 Q-99.3 -63.7 -96.8 -64.25 -85.05 -67.35 -81.8 -63.65 L-80.55 -62.5 -78.55 -59.25 -55.15 -78.4 -44.85 -84.85 -44.65 -85.0 -48.8 -92.15 Q-50.3 -95.7 -49.8 -96.0 L-49.8 -96.15 -50.65 -100.9 -50.55 -102.4 -49.9 -103.4 -47.65 -103.4 -42.9 -102.25 -44.65 -112.75 -44.55 -118.15 Q-45.75 -119.5 -35.15 -134.4 L-35.15 -138.65 -35.3 -138.9 -35.3 -139.0 -35.4 -139.15 Q-35.9 -141.3 -38.9 -143.4 L-47.3 -149.4 Q-67.75 -154.95 -76.4 -165.25 L-75.55 -166.4 -72.55 -166.65 -60.3 -165.4 -55.05 -165.5 -53.05 -167.65 Q-51.3 -177.4 -49.05 -175.65 -49.35 -176.9 -37.4 -170.15 L-33.8 -169.25 Q-30.1 -168.95 -15.15 -175.9 L-14.4 -175.0 -14.4 -173.65 -19.05 -161.9 Q-26.3 -151.9 -27.05 -148.9 -27.4 -149.4 -27.5 -148.5 L-27.55 -148.0 -27.55 -147.5 Q-27.6 -144.6 -26.65 -136.15 L-27.3 -131.65 -29.8 -126.5 Q-37.75 -117.95 -36.9 -117.65 -37.75 -116.45 -37.3 -113.0 L-33.65 -101.9 -27.3 -103.4 -25.05 -103.4 -24.05 -101.9 -24.4 -97.15 -23.8 -96.9 -23.65 -96.25 -23.9 -94.9 Q-6.0 -100.5 22.7 -96.15 L26.85 -94.9 26.6 -96.65 27.35 -97.15 M-10.65 -72.15 L-10.8 -76.5 -10.4 -79.9 -8.9 -84.9 -7.75 -86.85 -7.9 -86.75 -13.9 -86.65 -26.65 -89.15 Q-32.85 -89.7 -35.8 -88.0 -40.4 -85.85 -41.55 -79.9 L-41.9 -77.25 -41.65 -71.75 -40.15 -66.15 -38.65 -63.65 Q-35.8 -58.95 -25.9 -55.5 -0.05 -46.0 28.85 -55.5 34.4 -57.1 38.7 -60.4 L41.6 -63.65 Q43.4 -65.95 43.95 -68.5 L44.6 -71.75 44.85 -77.25 44.45 -79.9 Q42.6 -86.85 38.7 -88.0 L35.1 -89.15 Q30.0 -89.7 23.7 -88.0 L16.7 -86.65 10.6 -86.75 11.95 -84.75 13.35 -79.9 13.7 -73.15 13.6 -72.15 M52.5 -95.6 L52.45 -96.15 52.85 -96.6 M47.45 -85.0 L33.6 -92.25 26.95 -94.75 26.85 -94.9 M10.6 -86.75 L9.6 -88.0 Q1.7 -94.55 -6.65 -88.0 L-7.75 -86.85 M13.45 -71.5 L13.45 -70.65 M96.1 -61.75 L95.85 -61.25 M84.95 59.75 L85.7 58.25 90.85 50.1 101.85 23.75 107.35 -2.0 107.7 -9.65 107.1 -14.9 103.6 -31.15 102.45 -34.15 92.35 -48.9 78.35 -61.75 M-42.9 -102.25 L-38.05 -101.4 -33.65 -101.9 M-78.55 -59.25 L-87.15 -51.15 -90.55 -47.4 -99.15 -34.75 -100.65 -31.15 -102.55 -23.0 -104.9 -9.0 M-24.4 -97.15 L-24.55 -96.5 M-23.9 -94.9 L-24.05 -94.75 -31.8 -91.75 -44.45 -85.1 -44.85 -84.85 M-10.55 -70.65 L-10.55 -71.5 M-49.8 -96.15 L-49.65 -95.9 -49.8 -96.0 M-44.65 -85.0 L-44.45 -85.1" fill="none" stroke="#000000" stroke-linecap="round" stroke-linejoin="round" stroke-width="2.15"/>
  </g>
</svg>
