<?xml version="1.0" encoding="UTF-8" standalone="no"?>
<svg xmlns:xlink="http://www.w3.org/1999/xlink" height="292.1px" width="231.6px" xmlns="http://www.w3.org/2000/svg">
  <g transform="matrix(1.0, 0.0, 0.0, 1.0, 110.2, 178.4)">
    <path d="M45.1 -151.9 L42.1 -155.75 41.0 -156.6 40.75 -156.85 Q37.35 -159.75 34.45 -163.25 L31.6 -167.9 30.35 -171.65 31.2 -172.5 33.1 -172.5 43.1 -169.25 49.1 -167.75 51.35 -167.75 Q65.6 -171.0 65.85 -169.25 L67.95 -165.65 69.7 -164.25 75.1 -163.65 90.2 -162.9 90.95 -162.65 91.6 -161.4 89.85 -159.65 Q86.9 -158.05 83.95 -156.5 L75.85 -153.5 Q74.6 -152.75 64.85 -151.5 L61.95 -150.65 55.2 -147.65 52.7 -145.75 Q51.5 -144.45 51.1 -138.4 L50.85 -115.4 50.35 -111.9 48.85 -107.75 43.45 -106.5 Q41.3 -106.05 38.7 -106.5 L42.95 -113.5 42.95 -113.55 43.45 -116.65 43.1 -140.15 Q42.85 -143.0 45.1 -151.9 L45.35 -153.0 45.35 -153.65 45.35 -153.0 45.1 -151.9 M-43.65 -107.25 L-45.15 -114.15 Q-45.7 -116.7 -45.15 -119.0 -45.9 -121.25 -35.15 -136.0 L-34.9 -140.25 -35.9 -142.5 Q-35.6 -142.95 -42.05 -147.65 L-47.05 -151.0 Q-69.85 -157.45 -75.9 -167.15 L-74.8 -167.75 -71.3 -167.9 -60.3 -166.75 -54.8 -166.9 -53.05 -168.25 -52.9 -168.75 Q-51.1 -178.25 -49.05 -176.75 -48.25 -177.7 -37.15 -171.4 L-33.15 -170.4 -26.55 -172.25 Q-14.65 -178.35 -15.3 -177.15 L-14.3 -176.15 -14.4 -174.65 -18.9 -163.4 Q-25.25 -155.0 -27.3 -149.65 L-26.65 -138.15 Q-26.4 -135.0 -27.65 -132.4 L-29.65 -128.65 Q-38.6 -118.75 -37.8 -117.9 L-37.9 -114.5 -34.3 -106.65 -37.65 -106.25 -43.65 -107.25" fill="#fa410f" fill-rule="evenodd" stroke="none"/>
    <path d="M-7.65 -100.65 Q-7.8 -101.2 -4.4 -103.5 L-2.65 -104.25 Q-1.55 -104.95 2.6 -104.9 L5.6 -104.25 Q6.6 -104.6 10.6 -100.65 L12.45 -100.5 19.45 -100.9 28.7 -102.9 Q40.1 -104.8 43.95 -96.15 L44.45 -93.75 44.85 -91.5 44.45 -84.75 42.85 -79.9 Q41.9 -77.75 39.2 -75.15 L33.7 -71.75 Q0.95 -58.5 -30.8 -71.75 L-35.8 -74.65 Q-39.0 -77.55 -39.9 -79.9 L-41.3 -83.65 -41.8 -88.0 -41.65 -93.65 -41.05 -96.15 Q-37.15 -104.75 -25.8 -102.9 L-13.8 -100.5 -7.65 -100.65 -9.05 -98.65 -10.55 -93.4 -10.8 -88.0 -10.65 -86.15 -10.8 -88.0 -10.55 -93.4 -9.05 -98.65 -7.65 -100.65 -13.8 -100.5 -25.8 -102.9 Q-37.15 -104.75 -41.05 -96.15 L-41.65 -93.65 -41.8 -88.0 -41.3 -83.65 -39.9 -79.9 Q-39.0 -77.55 -35.8 -74.65 L-30.8 -71.75 Q0.95 -58.5 33.7 -71.75 L39.2 -75.15 Q41.9 -77.75 42.85 -79.9 L44.45 -84.75 44.85 -91.5 44.45 -93.75 43.95 -96.15 Q40.1 -104.8 28.7 -102.9 L19.45 -100.9 12.45 -100.5 10.6 -100.65 11.95 -98.65 13.45 -93.4 13.7 -88.0 13.6 -86.15 13.7 -88.0 13.45 -93.4 11.95 -98.65 10.6 -100.65 Q6.6 -104.6 5.6 -104.25 L2.6 -104.9 Q-1.55 -104.95 -2.65 -104.25 L-4.4 -103.5 Q-7.8 -101.2 -7.65 -100.65 M-24.05 -103.65 L-16.3 -106.0 -3.4 -107.15 Q20.25 -107.6 25.2 -104.25 L26.95 -103.65 28.7 -102.9 26.95 -103.65 27.2 -106.9 28.1 -108.15 30.6 -108.15 Q38.75 -105.95 38.7 -106.5 41.3 -106.05 43.45 -106.5 L48.85 -107.75 Q54.45 -109.35 53.6 -105.65 L52.45 -100.5 52.85 -99.25 52.6 -98.15 51.2 -94.75 48.85 -91.0 60.95 -82.0 Q73.9 -71.55 84.6 -61.5 L90.85 -55.5 99.35 -44.9 102.6 -39.25 104.2 -34.65 106.85 -23.0 107.85 -14.9 107.6 -6.75 102.1 19.6 91.2 46.1 80.2 63.75 91.2 46.1 102.1 19.6 107.6 -6.75 107.85 -14.9 106.85 -23.0 104.2 -34.65 102.6 -39.25 99.35 -44.9 90.85 -55.5 84.6 -61.5 86.85 -61.9 88.35 -61.5 96.1 -57.9 96.7 -57.75 96.85 -57.75 96.95 -58.15 95.95 -63.25 Q85.35 -83.05 86.7 -94.75 87.9 -105.85 98.35 -96.15 124.15 -70.4 119.7 -33.15 117.75 -8.7 107.6 20.0 93.25 54.85 80.2 63.75 75.6 71.1 70.9 77.25 L70.55 77.75 Q59.85 91.55 48.6 99.1 42.2 105.65 15.35 112.0 -40.4 117.45 -68.15 76.5 L-68.4 76.25 -72.65 70.85 -85.3 51.1 -85.4 51.1 -85.55 51.0 -85.55 50.85 -85.9 50.35 -85.9 50.25 Q-93.0 41.35 -99.3 19.5 L-99.3 19.35 -102.65 6.85 Q-106.6 -12.15 -107.8 -21.65 L-109.15 -37.15 Q-109.25 -46.25 -108.55 -48.4 -104.4 -63.85 -88.3 -55.5 L-88.15 -55.4 -69.8 -72.25 Q-54.75 -85.15 -45.9 -91.0 L-48.8 -95.75 Q-50.3 -99.4 -49.8 -99.5 L-49.65 -99.75 -49.7 -99.95 Q-51.3 -105.7 -49.8 -108.0 L-47.4 -108.15 Q-45.6 -107.45 -43.65 -107.25 L-37.65 -106.25 -34.3 -106.65 -27.4 -108.15 -25.05 -108.0 -24.05 -106.4 -24.05 -103.65 -25.8 -102.9 -24.05 -103.65 M13.45 -84.75 L13.45 -85.5 13.45 -84.75 M44.45 -93.75 L48.85 -91.0 44.45 -93.75 M57.6 91.1 L58.2 90.5 57.6 91.1 M96.45 -57.5 L96.7 -57.75 96.45 -57.5 M-85.9 50.25 L-85.8 50.25 -85.8 50.1 -88.05 46.5 -99.3 19.5 -88.05 46.5 -85.8 50.1 -85.8 50.25 -85.65 50.35 -85.3 51.1 -85.65 50.35 -85.8 50.25 -85.9 50.25 M-53.9 91.6 L-54.8 90.85 -53.9 91.6 M-41.65 -93.65 L-45.9 -91.0 -41.65 -93.65 M-10.55 -85.5 L-10.55 -84.75 -10.55 -85.5 M-88.15 -55.4 L-97.3 -43.5 -99.65 -39.25 -101.3 -34.65 -103.9 -23.0 -104.9 -14.9 -104.65 -6.75 -99.3 19.35 -104.65 -6.75 -104.9 -14.9 -103.9 -23.0 -101.3 -34.65 -99.65 -39.25 -97.3 -43.5 -88.15 -55.4" fill="#ffffff" fill-rule="evenodd" stroke="none"/>
    <path d="M48.85 -107.75 L50.35 -111.9 50.85 -115.4 51.1 -138.4 Q51.5 -144.45 52.7 -145.75 L55.2 -147.65 61.95 -150.65 64.85 -151.5 Q74.6 -152.75 75.85 -153.5 L83.95 -156.5 Q86.9 -158.05 89.85 -159.65 L91.6 -161.4 90.95 -162.65 90.2 -162.9 75.1 -163.65 69.7 -164.25 67.95 -165.65 65.85 -169.25 Q65.6 -171.0 51.35 -167.75 L49.1 -167.75 43.1 -169.25 33.1 -172.5 31.2 -172.5 30.35 -171.65 31.6 -167.9 34.45 -163.25 Q37.35 -159.75 40.75 -156.85 L41.0 -156.6 42.1 -155.75 45.1 -151.9 45.35 -153.0 45.35 -153.65 M-10.65 -86.15 L-10.8 -88.0 -10.55 -93.4 -9.05 -98.65 -7.65 -100.65 -13.8 -100.5 -25.8 -102.9 Q-37.15 -104.75 -41.05 -96.15 L-41.65 -93.65 -41.8 -88.0 -41.3 -83.65 -39.9 -79.9 Q-39.0 -77.55 -35.8 -74.65 L-30.8 -71.75 Q0.95 -58.5 33.7 -71.75 L39.2 -75.15 Q41.9 -77.75 42.85 -79.9 L44.45 -84.75 44.85 -91.5 44.45 -93.75 43.95 -96.15 Q40.1 -104.8 28.7 -102.9 L19.45 -100.9 12.45 -100.5 10.6 -100.65 11.95 -98.65 13.45 -93.4 13.7 -88.0 13.6 -86.15 M10.6 -100.65 Q6.6 -104.6 5.6 -104.25 L2.6 -104.9 Q-1.55 -104.95 -2.65 -104.25 L-4.4 -103.5 Q-7.8 -101.2 -7.65 -100.65 M26.95 -103.65 L25.2 -104.25 Q20.25 -107.6 -3.4 -107.15 L-16.3 -106.0 -24.05 -103.65 -25.8 -102.9 M26.95 -103.65 L28.7 -102.9 M38.7 -106.5 Q38.75 -105.95 30.6 -108.15 L28.1 -108.15 27.2 -106.9 26.95 -103.65 M48.85 -91.0 L51.2 -94.75 52.6 -98.15 52.85 -99.25 52.45 -100.5 53.6 -105.65 Q54.45 -109.35 48.85 -107.75 L43.45 -106.5 Q41.3 -106.05 38.7 -106.5 L42.95 -113.5 42.95 -113.55 43.45 -116.65 43.1 -140.15 Q42.85 -143.0 45.1 -151.9 M84.6 -61.5 Q73.9 -71.55 60.95 -82.0 L48.85 -91.0 44.45 -93.75 M13.45 -85.5 L13.45 -84.75 M80.2 63.75 L91.2 46.1 102.1 19.6 107.6 -6.75 107.85 -14.9 106.85 -23.0 104.2 -34.65 102.6 -39.25 99.35 -44.9 90.85 -55.5 84.6 -61.5 86.85 -61.9 88.35 -61.5 96.1 -57.9 96.7 -57.75 96.85 -57.75 96.95 -58.15 95.95 -63.25 Q85.35 -83.05 86.7 -94.75 87.9 -105.85 98.35 -96.15 124.15 -70.4 119.7 -33.15 117.75 -8.7 107.6 20.0 93.25 54.85 80.2 63.75 75.6 71.1 70.9 77.25 L70.55 77.75 Q59.85 91.55 48.6 99.1 42.2 105.65 15.35 112.0 -40.4 117.45 -68.15 76.5 L-68.4 76.25 -72.65 70.85 -85.3 51.1 -85.4 51.1 -85.55 51.0 -85.55 50.85 -85.9 50.35 -85.9 50.25 Q-93.0 41.35 -99.3 19.5 L-99.3 19.35 -102.65 6.85 Q-106.6 -12.15 -107.8 -21.65 L-109.15 -37.15 Q-109.25 -46.25 -108.55 -48.4 -104.4 -63.85 -88.3 -55.5 L-88.15 -55.4 -69.8 -72.25 Q-54.75 -85.15 -45.9 -91.0 L-48.8 -95.75 Q-50.3 -99.4 -49.8 -99.5 L-49.65 -99.75 -49.7 -99.95 Q-51.3 -105.7 -49.8 -108.0 L-47.4 -108.15 Q-45.6 -107.45 -43.65 -107.25 L-45.15 -114.15 Q-45.7 -116.7 -45.15 -119.0 -45.9 -121.25 -35.15 -136.0 L-34.9 -140.25 -35.9 -142.5 Q-35.6 -142.95 -42.05 -147.65 L-47.05 -151.0 Q-69.85 -157.45 -75.9 -167.15 L-74.8 -167.75 -71.3 -167.9 -60.3 -166.75 -54.8 -166.9 -53.05 -168.25 -52.9 -168.75 Q-51.1 -178.25 -49.05 -176.75 -48.25 -177.7 -37.15 -171.4 L-33.15 -170.4 -26.55 -172.25 Q-14.65 -178.35 -15.3 -177.15 L-14.3 -176.15 -14.4 -174.65 -18.9 -163.4 Q-25.25 -155.0 -27.3 -149.65 L-26.65 -138.15 Q-26.4 -135.0 -27.65 -132.4 L-29.65 -128.65 Q-38.6 -118.75 -37.8 -117.9 L-37.9 -114.5 -34.3 -106.65 -27.4 -108.15 -25.05 -108.0 -24.05 -106.4 -24.05 -103.65 M96.7 -57.75 L96.45 -57.5 M58.2 90.5 L57.6 91.1 M-43.65 -107.25 L-37.65 -106.25 -34.3 -106.65 M-99.3 19.35 L-104.65 -6.75 -104.9 -14.9 -103.9 -23.0 -101.3 -34.65 -99.65 -39.25 -97.3 -43.5 -88.15 -55.4 M-10.55 -84.75 L-10.55 -85.5 M-45.9 -91.0 L-41.65 -93.65 M-54.8 90.85 L-53.9 91.6 M-99.3 19.5 L-88.05 46.5 -85.8 50.1 -85.8 50.25 -85.65 50.35 -85.3 51.1 M-85.8 50.25 L-85.9 50.25" fill="none" stroke="#000000" stroke-linecap="round" stroke-linejoin="round" stroke-width="2.15"/>
  </g>
</svg>
