<?xml version="1.0" encoding="UTF-8" standalone="no"?>
<svg xmlns:xlink="http://www.w3.org/1999/xlink" height="288.15px" width="237.1px" xmlns="http://www.w3.org/2000/svg">
  <g transform="matrix(1.0, 0.0, 0.0, 1.0, 113.6, 174.4)">
    <path d="M45.45 -148.4 L41.45 -153.25 Q36.75 -156.7 35.35 -158.9 L31.85 -164.15 Q30.45 -166.45 30.6 -168.0 L31.6 -168.75 33.45 -168.65 43.7 -165.25 49.45 -164.0 54.6 -164.25 Q62.25 -166.4 64.7 -166.0 L66.85 -165.15 Q67.7 -162.15 69.6 -161.15 68.25 -160.5 76.7 -159.9 L88.85 -159.65 91.45 -159.15 92.35 -158.0 91.95 -157.25 89.85 -155.65 84.6 -153.0 75.35 -149.75 62.85 -147.4 55.6 -144.25 53.35 -142.65 Q52.2 -141.9 51.6 -136.65 L51.35 -113.0 50.95 -110.0 50.1 -107.15 43.1 -105.9 42.95 -105.9 41.1 -107.75 43.3 -110.9 43.35 -111.0 43.4 -111.25 43.85 -113.75 Q42.25 -142.7 45.45 -148.4 L45.7 -150.15 45.45 -148.4 M-45.15 -106.75 L-46.4 -112.5 Q-46.0 -117.7 -45.3 -118.15 -46.05 -118.5 -36.3 -131.4 L-35.3 -133.9 Q-34.55 -138.05 -36.8 -140.15 L-44.65 -146.0 -48.15 -148.15 Q-60.5 -151.45 -64.55 -154.0 L-71.8 -158.4 Q-75.4 -160.65 -76.55 -162.9 L-75.9 -164.0 -73.8 -164.25 -59.4 -163.0 -55.15 -163.25 -53.3 -164.9 Q-50.85 -175.15 -49.65 -172.9 L-48.3 -172.9 -46.15 -172.15 -37.3 -167.65 Q-31.9 -166.1 -32.55 -166.75 L-27.05 -168.4 Q-15.9 -173.95 -15.3 -173.25 L-14.4 -172.25 -15.05 -169.25 -18.9 -160.0 Q-26.65 -149.45 -27.4 -146.65 L-26.9 -134.0 -27.65 -130.25 -30.3 -125.25 -36.65 -117.9 -38.15 -115.65 -39.15 -112.4 Q-40.0 -112.65 -37.05 -108.4 L-38.8 -107.4 -40.15 -105.9 -45.15 -106.75" fill="#fa410f" fill-rule="evenodd" stroke="none"/>
    <path d="M22.2 -108.0 L16.35 -106.75 11.35 -106.9 11.2 -106.9 10.1 -108.65 8.6 -109.75 10.1 -108.65 11.2 -106.9 11.35 -106.9 16.35 -106.75 22.2 -108.0 Q39.0 -111.9 41.1 -107.75 L42.95 -105.9 43.1 -105.9 50.1 -107.15 53.35 -107.25 54.1 -105.5 Q52.25 -96.7 53.2 -96.65 L50.7 -91.75 68.95 -77.25 Q91.85 -57.4 96.7 -51.0 L99.2 -50.25 99.85 -51.5 99.35 -56.4 Q93.75 -65.15 92.45 -76.9 91.9 -91.1 99.6 -88.0 127.75 -64.95 121.2 -29.15 119.2 -7.15 107.2 25.35 92.25 59.0 80.1 65.1 54.15 112.6 0.95 112.6 -21.5 113.85 -47.65 98.6 L-52.65 94.6 -60.3 87.6 -69.9 75.75 -82.05 57.5 -82.4 57.0 Q-100.55 41.9 -111.65 -25.9 L-112.55 -39.4 Q-112.05 -46.4 -110.05 -47.9 -102.6 -55.15 -95.9 -48.4 -95.25 -53.2 -47.8 -91.75 L-49.8 -95.25 -50.3 -96.9 -50.05 -99.25 Q-51.5 -104.1 -51.15 -105.65 -51.4 -108.6 -45.15 -106.75 L-40.15 -105.9 -38.8 -107.4 -37.05 -108.4 Q-29.9 -111.6 -19.3 -108.0 L-13.05 -109.25 -5.65 -109.75 Q2.7 -114.3 8.6 -109.75 L15.85 -109.25 22.2 -108.0 M13.7 -93.15 L13.85 -93.9 13.95 -96.15 13.45 -101.4 12.2 -105.65 11.35 -106.9 12.2 -105.65 13.45 -101.4 13.95 -96.15 13.85 -93.9 13.7 -93.15 M-10.8 -93.15 L-11.05 -96.15 -10.4 -101.75 -9.3 -105.65 -8.4 -106.9 -8.3 -106.9 -7.3 -108.5 -5.65 -109.75 -7.3 -108.5 -8.3 -106.9 -8.4 -106.9 -9.3 -105.65 -10.4 -101.75 -11.05 -96.15 -10.8 -93.15 M42.95 -105.9 L43.1 -105.75 44.1 -104.25 45.1 -101.25 45.45 -96.15 45.35 -95.5 45.2 -93.0 43.7 -88.0 41.45 -84.4 Q39.75 -81.9 35.35 -79.9 -1.05 -64.9 -32.4 -79.9 L-36.3 -82.15 Q-40.55 -86.2 -40.8 -88.0 L-41.65 -90.25 -42.55 -95.4 -42.4 -100.0 -41.15 -104.25 -40.15 -105.9 -41.15 -104.25 -42.4 -100.0 -42.55 -95.4 -41.65 -90.25 -40.8 -88.0 Q-40.55 -86.2 -36.3 -82.15 L-32.4 -79.9 Q-1.05 -64.9 35.35 -79.9 39.75 -81.9 41.45 -84.4 L43.7 -88.0 45.2 -93.0 45.35 -95.5 45.45 -96.15 45.1 -101.25 44.1 -104.25 43.1 -105.75 42.95 -105.9 M76.2 70.1 L77.35 68.5 76.2 70.1 M80.1 65.1 L87.85 53.25 91.85 46.0 100.95 25.75 103.6 17.6 108.85 -6.75 109.35 -14.9 108.45 -23.0 104.2 -39.25 101.1 -45.25 96.7 -51.0 101.1 -45.25 104.2 -39.25 108.45 -23.0 109.35 -14.9 108.85 -6.75 103.6 17.6 100.95 25.75 91.85 46.0 87.85 53.25 80.1 65.1 M93.7 -54.0 L91.95 -55.9 93.7 -54.0 M98.85 -49.75 L99.2 -50.25 98.85 -49.75 M13.6 -91.9 L13.6 -92.4 13.6 -91.9 M50.7 -91.75 L45.35 -95.5 50.7 -91.75 M43.1 -105.75 L43.1 -105.9 43.1 -105.75 M-82.4 57.0 L-82.3 57.0 -82.05 57.5 -82.3 57.0 -82.4 57.0 -86.55 50.1 -98.05 25.75 -100.65 17.6 -106.05 -6.75 -106.4 -14.9 -105.65 -23.0 -101.3 -39.25 -99.05 -43.75 -95.9 -48.4 -99.05 -43.75 -101.3 -39.25 -105.65 -23.0 -106.4 -14.9 -106.05 -6.75 -100.65 17.6 -98.05 25.75 -86.55 50.1 -82.4 57.0 M-72.9 70.5 L-74.15 68.75 -72.9 70.5 M-42.55 -95.4 L-47.8 -91.75 -42.55 -95.4 M-10.65 -91.9 L-10.65 -92.4 -10.65 -91.9 M-90.8 -54.0 L-89.55 -55.4 -90.8 -54.0 M-19.3 -108.0 L-13.3 -106.75 -8.4 -106.9 -13.3 -106.75 -19.3 -108.0" fill="#ffffff" fill-rule="evenodd" stroke="none"/>
    <path d="M50.1 -107.15 L50.95 -110.0 51.35 -113.0 51.6 -136.65 Q52.2 -141.9 53.35 -142.65 L55.6 -144.25 62.85 -147.4 75.35 -149.75 84.6 -153.0 89.85 -155.65 91.95 -157.25 92.35 -158.0 91.45 -159.15 88.85 -159.65 76.7 -159.9 Q68.25 -160.5 69.6 -161.15 67.7 -162.15 66.85 -165.15 L64.7 -166.0 Q62.25 -166.4 54.6 -164.25 L49.45 -164.0 43.7 -165.25 33.45 -168.65 31.6 -168.75 30.6 -168.0 Q30.45 -166.45 31.85 -164.15 L35.35 -158.9 Q36.75 -156.7 41.45 -153.25 L45.45 -148.4 45.7 -150.15 M8.6 -109.75 L10.1 -108.65 11.2 -106.9 11.35 -106.9 16.35 -106.75 22.2 -108.0 15.85 -109.25 8.6 -109.75 Q2.7 -114.3 -5.65 -109.75 L-7.3 -108.5 -8.3 -106.9 -8.4 -106.9 -9.3 -105.65 -10.4 -101.75 -11.05 -96.15 -10.8 -93.15 M11.35 -106.9 L12.2 -105.65 13.45 -101.4 13.95 -96.15 13.85 -93.9 13.7 -93.15 M43.4 -111.25 L43.3 -110.9 43.35 -111.0 43.4 -111.25 43.85 -113.75 Q42.25 -142.7 45.45 -148.4 M-40.15 -105.9 L-41.15 -104.25 -42.4 -100.0 -42.55 -95.4 -41.65 -90.25 -40.8 -88.0 Q-40.55 -86.2 -36.3 -82.15 L-32.4 -79.9 Q-1.05 -64.9 35.35 -79.9 39.75 -81.9 41.45 -84.4 L43.7 -88.0 45.2 -93.0 45.35 -95.5 45.45 -96.15 45.1 -101.25 44.1 -104.25 43.1 -105.75 42.95 -105.9 41.1 -107.75 Q39.0 -111.9 22.2 -108.0 M42.95 -105.9 L43.1 -105.9 50.1 -107.15 53.35 -107.25 54.1 -105.5 Q52.25 -96.7 53.2 -96.65 L50.7 -91.75 68.95 -77.25 Q91.85 -57.4 96.7 -51.0 L99.2 -50.25 99.85 -51.5 99.35 -56.4 Q93.75 -65.15 92.45 -76.9 91.9 -91.1 99.6 -88.0 127.75 -64.95 121.2 -29.15 119.2 -7.15 107.2 25.35 92.25 59.0 80.1 65.1 54.15 112.6 0.95 112.6 -21.5 113.85 -47.65 98.6 L-52.65 94.6 -60.3 87.6 -69.9 75.75 -82.05 57.5 -82.4 57.0 Q-100.55 41.9 -111.65 -25.9 L-112.55 -39.4 Q-112.05 -46.4 -110.05 -47.9 -102.6 -55.15 -95.9 -48.4 -95.25 -53.2 -47.8 -91.75 L-49.8 -95.25 -50.3 -96.9 -50.05 -99.25 Q-51.5 -104.1 -51.15 -105.65 -51.4 -108.6 -45.15 -106.75 L-46.4 -112.5 Q-46.0 -117.7 -45.3 -118.15 -46.05 -118.5 -36.3 -131.4 L-35.3 -133.9 Q-34.55 -138.05 -36.8 -140.15 L-44.65 -146.0 -48.15 -148.15 Q-60.5 -151.45 -64.55 -154.0 L-71.8 -158.4 Q-75.4 -160.65 -76.55 -162.9 L-75.9 -164.0 -73.8 -164.25 -59.4 -163.0 -55.15 -163.25 -53.3 -164.9 Q-50.85 -175.15 -49.65 -172.9 L-48.3 -172.9 -46.15 -172.15 -37.3 -167.65 Q-31.9 -166.1 -32.55 -166.75 L-27.05 -168.4 Q-15.9 -173.95 -15.3 -173.25 L-14.4 -172.25 -15.05 -169.25 -18.9 -160.0 Q-26.65 -149.45 -27.4 -146.65 L-26.9 -134.0 -27.65 -130.25 -30.3 -125.25 -36.65 -117.9 -38.15 -115.65 -39.15 -112.4 Q-40.0 -112.65 -37.05 -108.4 -29.9 -111.6 -19.3 -108.0 L-13.05 -109.25 -5.65 -109.75 M43.3 -110.9 L41.1 -107.75 M43.1 -105.9 L43.1 -105.75 M45.35 -95.5 L50.7 -91.75 M13.6 -92.4 L13.6 -91.9 M99.2 -50.25 L98.85 -49.75 M91.95 -55.9 L93.7 -54.0 M96.7 -51.0 L101.1 -45.25 104.2 -39.25 108.45 -23.0 109.35 -14.9 108.85 -6.75 103.6 17.6 100.95 25.75 91.85 46.0 87.85 53.25 80.1 65.1 M77.35 68.5 L76.2 70.1 M-45.15 -106.75 L-40.15 -105.9 -38.8 -107.4 -37.05 -108.4 M-8.4 -106.9 L-13.3 -106.75 -19.3 -108.0 M-89.55 -55.4 L-90.8 -54.0 M-82.4 57.0 L-86.55 50.1 -98.05 25.75 -100.65 17.6 -106.05 -6.75 -106.4 -14.9 -105.65 -23.0 -101.3 -39.25 -99.05 -43.75 -95.9 -48.4 M-10.65 -92.4 L-10.65 -91.9 M-47.8 -91.75 L-42.55 -95.4 M-74.15 68.75 L-72.9 70.5 M-82.05 57.5 L-82.3 57.0 -82.4 57.0" fill="none" stroke="#000000" stroke-linecap="round" stroke-linejoin="round" stroke-width="2.15"/>
  </g>
</svg>
