<?xml version="1.0" encoding="UTF-8" standalone="no"?>
<svg xmlns:xlink="http://www.w3.org/1999/xlink" height="282.85px" width="246.25px" xmlns="http://www.w3.org/2000/svg">
  <g transform="matrix(1.0, 0.0, 0.0, 1.0, 118.65, 167.0)">
    <path d="M46.2 -141.4 Q23.6 -163.55 34.95 -161.15 L44.45 -158.0 50.35 -156.75 Q53.25 -156.2 63.45 -158.9 L66.1 -158.75 67.7 -158.15 Q69.85 -153.55 71.45 -153.4 L90.2 -152.5 92.95 -152.0 93.7 -151.15 93.1 -149.9 86.7 -146.4 78.45 -143.4 Q76.95 -142.6 63.95 -140.5 L55.85 -137.0 54.2 -135.75 Q51.45 -135.4 52.2 -106.5 L51.35 -101.9 46.45 -100.9 45.95 -104.25 44.45 -107.65 44.2 -131.65 Q45.2 -139.0 46.2 -141.4 46.1 -142.05 46.45 -142.65 46.1 -142.05 46.2 -141.4 M-46.8 -101.65 Q-48.1 -105.95 -47.65 -107.5 L-46.4 -111.4 -44.8 -114.25 -36.55 -125.5 -36.05 -126.9 Q-34.05 -133.45 -44.05 -138.25 L-48.65 -141.0 Q-64.9 -144.2 -77.65 -155.65 L-77.05 -156.75 -74.55 -157.0 -62.15 -155.9 -56.05 -156.0 -54.3 -157.25 -53.65 -158.5 -51.9 -164.65 -50.9 -165.4 -49.05 -165.5 -47.15 -164.9 -37.15 -160.15 -33.3 -159.4 -25.65 -161.75 Q-16.4 -166.45 -15.65 -165.9 L-14.65 -164.9 -15.55 -161.15 -19.65 -152.15 Q-25.6 -144.95 -27.8 -140.0 -26.85 -125.65 -28.15 -123.75 L-30.65 -119.15 -38.05 -110.4 Q-42.3 -108.2 -43.05 -104.25 L-43.55 -100.9 -46.8 -101.65 M-28.05 -139.15 L-28.05 -140.0 -28.05 -139.15" fill="#fa410f" fill-rule="evenodd" stroke="none"/>
    <path d="M-10.15 -106.25 Q-5.85 -119.2 9.2 -112.4 L11.7 -109.4 13.1 -106.25 13.7 -104.25 14.2 -99.75 14.1 -96.15 14.2 -99.75 13.7 -104.25 13.1 -106.25 17.1 -106.5 22.85 -108.15 22.95 -108.25 26.2 -109.4 26.35 -109.5 26.6 -109.5 26.7 -109.65 26.95 -109.65 27.1 -109.75 27.35 -109.75 27.45 -109.9 27.7 -109.9 27.85 -110.0 28.1 -110.0 28.2 -110.15 28.45 -110.15 28.6 -110.25 Q41.65 -113.35 44.45 -107.65 L45.95 -104.25 46.45 -100.9 51.35 -101.9 54.35 -101.9 55.1 -100.25 Q53.25 -90.9 54.2 -91.0 L52.85 -87.9 52.2 -87.25 Q90.5 -58.45 103.1 -41.9 L104.1 -41.65 104.2 -41.65 105.1 -43.5 104.95 -47.65 Q97.85 -63.2 101.2 -73.0 104.15 -81.4 113.35 -71.75 133.1 -52.95 123.35 -14.4 118.25 9.15 108.95 30.5 97.95 55.8 81.45 67.85 50.85 117.75 0.2 114.6 -33.6 112.65 -48.65 101.0 -60.0 95.6 -82.55 61.75 L-82.8 61.35 Q-103.15 43.9 -115.55 -16.25 -119.05 -34.65 -116.55 -39.5 -109.9 -49.35 -101.3 -39.9 -99.75 -47.95 -49.4 -87.25 -56.25 -105.85 -46.8 -101.65 L-43.55 -100.9 -43.05 -104.25 Q-42.3 -108.2 -38.05 -110.4 L-36.05 -111.15 -31.15 -111.5 -27.9 -111.0 Q-14.3 -106.05 -14.15 -106.5 L-10.15 -106.25 -10.8 -104.25 -11.3 -99.75 -11.15 -96.15 -11.3 -95.65 -11.15 -96.15 -11.3 -99.75 -10.8 -104.25 -10.15 -106.25 M103.75 -40.8 L104.1 -41.65 103.75 -40.8 106.1 -36.65 110.7 -21.0 111.7 -12.65 111.35 -4.15 105.85 20.25 102.95 28.85 92.45 50.1 87.7 58.25 81.45 67.85 87.7 58.25 92.45 50.1 102.95 28.85 105.85 20.25 111.35 -4.15 111.7 -12.65 110.7 -21.0 106.1 -36.65 103.75 -40.8 103.1 -41.9 103.75 -40.8 M-49.4 -87.25 L-42.4 -92.25 -40.55 -88.4 -40.05 -88.0 Q-39.6 -86.85 -35.4 -83.4 L-28.8 -79.9 Q-17.05 -73.7 -2.3 -73.25 17.95 -72.45 31.7 -79.9 39.2 -83.4 39.7 -84.4 L44.1 -89.5 45.35 -92.25 46.2 -96.15 46.45 -100.9 46.2 -96.15 45.35 -92.25 52.2 -87.25 45.35 -92.25 44.1 -89.5 39.7 -84.4 Q39.2 -83.4 31.7 -79.9 17.95 -72.45 -2.3 -73.25 -17.05 -73.7 -28.8 -79.9 L-35.4 -83.4 Q-39.6 -86.85 -40.05 -88.0 L-40.55 -88.4 -42.4 -92.25 -49.4 -87.25 M-43.55 -100.9 L-43.3 -96.15 -42.4 -92.25 -43.3 -96.15 -43.55 -100.9 M-82.8 61.35 L-87.3 54.35 -100.05 28.85 -102.65 21.25 -108.4 -4.15 -108.8 -12.65 -107.9 -20.5 -103.05 -36.9 -101.3 -39.9 -103.05 -36.9 -107.9 -20.5 -108.8 -12.65 -108.4 -4.15 -102.65 21.25 -100.05 28.85 -87.3 54.35 -82.8 61.35" fill="#ffffff" fill-rule="evenodd" stroke="none"/>
    <path d="M51.35 -101.9 L52.2 -106.5 Q51.45 -135.4 54.2 -135.75 L55.85 -137.0 63.95 -140.5 Q76.95 -142.6 78.45 -143.4 L86.7 -146.4 93.1 -149.9 93.7 -151.15 92.95 -152.0 90.2 -152.5 71.45 -153.4 Q69.85 -153.55 67.7 -158.15 L66.1 -158.75 63.45 -158.9 Q53.25 -156.2 50.35 -156.75 L44.45 -158.0 34.95 -161.15 Q23.6 -163.55 46.2 -141.4 46.1 -142.05 46.45 -142.65 M13.1 -106.25 L11.7 -109.4 9.2 -112.4 Q-5.85 -119.2 -10.15 -106.25 L-10.8 -104.25 -11.3 -99.75 -11.15 -96.15 -11.3 -95.65 M13.1 -106.25 L13.7 -104.25 14.2 -99.75 14.1 -96.15 M44.45 -107.65 Q41.65 -113.35 28.6 -110.25 L28.45 -110.15 28.2 -110.15 28.1 -110.0 27.85 -110.0 27.7 -109.9 27.45 -109.9 27.35 -109.75 27.1 -109.75 26.95 -109.65 26.7 -109.65 26.6 -109.5 26.35 -109.5 26.2 -109.4 22.95 -108.25 22.85 -108.15 17.1 -106.5 13.1 -106.25 M46.2 -141.4 Q45.2 -139.0 44.2 -131.65 L44.45 -107.65 45.95 -104.25 46.45 -100.9 51.35 -101.9 54.35 -101.9 55.1 -100.25 Q53.25 -90.9 54.2 -91.0 L52.85 -87.9 52.2 -87.25 Q90.5 -58.45 103.1 -41.9 L104.1 -41.65 104.2 -41.65 105.1 -43.5 104.95 -47.65 Q97.85 -63.2 101.2 -73.0 104.15 -81.4 113.35 -71.75 133.1 -52.95 123.35 -14.4 118.25 9.15 108.95 30.5 97.95 55.8 81.45 67.85 50.85 117.75 0.2 114.6 -33.6 112.65 -48.65 101.0 -60.0 95.6 -82.55 61.75 L-82.8 61.35 Q-103.15 43.9 -115.55 -16.25 -119.05 -34.65 -116.55 -39.5 -109.9 -49.35 -101.3 -39.9 -99.75 -47.95 -49.4 -87.25 -56.25 -105.85 -46.8 -101.65 -48.1 -105.95 -47.65 -107.5 L-46.4 -111.4 -44.8 -114.25 -36.55 -125.5 -36.05 -126.9 Q-34.05 -133.45 -44.05 -138.25 L-48.65 -141.0 Q-64.9 -144.2 -77.65 -155.65 L-77.05 -156.75 -74.55 -157.0 -62.15 -155.9 -56.05 -156.0 -54.3 -157.25 -53.65 -158.5 -51.9 -164.65 -50.9 -165.4 -49.05 -165.5 -47.15 -164.9 -37.15 -160.15 -33.3 -159.4 -25.65 -161.75 Q-16.4 -166.45 -15.65 -165.9 L-14.65 -164.9 -15.55 -161.15 -19.65 -152.15 Q-25.6 -144.95 -27.8 -140.0 -26.85 -125.65 -28.15 -123.75 L-30.65 -119.15 -38.05 -110.4 -36.05 -111.15 -31.15 -111.5 -27.9 -111.0 Q-14.3 -106.05 -14.15 -106.5 L-10.15 -106.25 M46.45 -100.9 L46.2 -96.15 45.35 -92.25 52.2 -87.25 M45.35 -92.25 L44.1 -89.5 39.7 -84.4 Q39.2 -83.4 31.7 -79.9 17.95 -72.45 -2.3 -73.25 -17.05 -73.7 -28.8 -79.9 L-35.4 -83.4 Q-39.6 -86.85 -40.05 -88.0 L-40.55 -88.4 -42.4 -92.25 -49.4 -87.25 M81.45 67.85 L87.7 58.25 92.45 50.1 102.95 28.85 105.85 20.25 111.35 -4.15 111.7 -12.65 110.7 -21.0 106.1 -36.65 103.75 -40.8 103.1 -41.9 M104.1 -41.65 L103.75 -40.8 M-46.8 -101.65 L-43.55 -100.9 -43.05 -104.25 Q-42.3 -108.2 -38.05 -110.4 M-28.05 -140.0 L-28.05 -139.15 M-101.3 -39.9 L-103.05 -36.9 -107.9 -20.5 -108.8 -12.65 -108.4 -4.15 -102.65 21.25 -100.05 28.85 -87.3 54.35 -82.8 61.35 M-42.4 -92.25 L-43.3 -96.15 -43.55 -100.9" fill="none" stroke="#000000" stroke-linecap="round" stroke-linejoin="round" stroke-width="2.15"/>
  </g>
</svg>
