<?xml version="1.0" encoding="UTF-8" standalone="no"?>
<svg xmlns:xlink="http://www.w3.org/1999/xlink" height="277.15px" width="258.65px" xmlns="http://www.w3.org/2000/svg">
  <g transform="matrix(1.0, 0.0, 0.0, 1.0, 124.85, 157.4)">
    <path d="M47.2 -132.15 L43.95 -136.15 Q37.85 -140.7 36.2 -143.0 L31.95 -149.65 31.6 -151.4 31.95 -151.9 34.7 -152.0 Q47.45 -147.6 51.7 -147.4 L56.1 -147.65 Q65.95 -150.15 66.35 -149.65 L68.2 -149.4 69.2 -148.75 70.6 -146.0 71.85 -144.9 Q70.4 -143.9 79.7 -143.4 L93.1 -143.15 94.85 -142.75 95.7 -141.5 93.1 -139.4 86.1 -136.25 77.35 -133.5 65.35 -131.4 57.2 -128.0 55.35 -126.65 Q52.85 -129.1 53.35 -98.25 L51.95 -92.75 46.6 -91.75 47.35 -96.15 47.45 -100.75 46.45 -104.25 45.2 -106.4 45.2 -123.0 47.2 -132.15 47.45 -133.4 47.2 -132.15 M-47.4 -92.5 L-48.55 -97.5 -47.8 -101.75 -45.9 -105.4 -37.4 -116.5 -36.8 -118.15 -36.65 -119.9 Q-36.65 -123.2 -38.15 -124.25 L-45.9 -129.65 -50.4 -132.15 Q-60.1 -134.45 -65.55 -137.0 L-75.4 -142.5 Q-77.9 -143.9 -79.4 -146.25 L-78.65 -147.25 -75.9 -147.5 -62.9 -146.4 -57.05 -146.65 -55.3 -148.15 Q-52.35 -158.25 -51.65 -155.9 L-50.55 -156.0 -48.65 -155.5 -39.05 -150.9 -33.9 -149.9 -28.9 -151.25 -18.4 -155.75 -15.8 -156.25 -15.05 -155.25 -15.4 -153.0 Q-18.8 -142.85 -28.15 -131.4 L-28.65 -130.0 -28.05 -119.9 -28.15 -117.15 -28.65 -115.4 -30.15 -112.15 -32.8 -108.65 Q-39.9 -110.1 -43.55 -104.25 L-44.4 -101.25 Q-44.95 -100.85 -44.4 -96.15 L-43.65 -91.75 -47.4 -92.5" fill="#fa410f" fill-rule="evenodd" stroke="none"/>
    <path d="M14.35 -99.9 L15.85 -99.9 19.85 -101.4 Q32.35 -109.0 32.85 -108.15 41.4 -110.05 45.2 -106.4 L46.45 -104.25 47.45 -100.75 47.35 -96.15 46.6 -91.75 51.95 -92.75 55.45 -92.9 56.35 -91.15 Q54.5 -83.65 55.45 -82.65 L53.35 -78.4 66.85 -68.9 87.1 -52.65 99.45 -41.5 Q102.4 -39.05 105.1 -35.0 107.0 -35.55 111.1 -34.0 L111.2 -34.0 111.7 -35.0 112.1 -40.25 Q109.85 -47.05 109.1 -53.25 L109.45 -61.15 110.2 -63.9 Q114.75 -73.05 121.6 -63.65 139.5 -45.3 128.7 -7.9 122.75 14.9 111.6 37.5 99.95 60.65 83.35 72.1 54.5 119.4 1.45 118.5 -19.55 120.3 -48.05 105.85 -58.8 102.35 -84.05 66.85 L-84.3 66.5 Q-105.55 50.7 -121.8 -13.0 -126.15 -33.65 -121.05 -35.75 -112.85 -42.35 -105.9 -31.15 L-105.3 -30.15 -105.15 -30.15 Q-101.55 -41.45 -50.4 -78.5 L-52.3 -81.9 -52.4 -83.9 -52.3 -84.0 -53.4 -91.15 -52.55 -92.9 -49.9 -93.0 -47.4 -92.5 -43.65 -91.75 -44.4 -96.15 Q-44.95 -100.85 -44.4 -101.25 L-43.55 -104.25 Q-39.9 -110.1 -32.8 -108.65 L-29.4 -108.0 -26.4 -106.9 -16.4 -101.15 -12.55 -99.9 -11.4 -99.9 Q-11.85 -103.9 -8.55 -109.9 L-4.65 -113.9 Q-2.5 -115.35 -0.55 -115.5 10.75 -116.15 13.85 -104.25 L14.35 -99.9 14.45 -93.75 14.35 -99.9 M-11.55 -92.75 L-11.4 -99.9 -11.55 -92.75 M105.1 -35.0 L108.2 -30.0 113.45 -13.25 114.1 -6.75 113.85 1.35 108.2 25.75 105.35 33.85 97.2 50.1 92.6 58.25 83.35 72.1 92.6 58.25 97.2 50.1 105.35 33.85 108.2 25.75 113.85 1.35 114.1 -6.75 113.45 -13.25 108.2 -30.0 105.1 -35.0 M110.45 -32.75 L111.1 -34.0 110.45 -32.75 M53.35 -78.4 L42.95 -85.15 40.85 -82.9 30.7 -75.75 21.7 -71.75 Q13.15 -67.7 -3.15 -68.4 L-12.9 -69.75 -18.8 -71.75 -27.8 -75.75 -36.55 -81.65 -40.05 -85.15 -41.9 -88.0 -43.65 -91.75 -41.9 -88.0 -40.05 -85.15 -36.55 -81.65 -27.8 -75.75 -18.8 -71.75 -12.9 -69.75 -3.15 -68.4 Q13.15 -67.7 21.7 -71.75 L30.7 -75.75 40.85 -82.9 42.95 -85.15 44.85 -88.0 46.6 -91.75 44.85 -88.0 42.95 -85.15 53.35 -78.4 M-40.05 -85.15 Q-45.2 -81.8 -50.4 -78.5 -45.2 -81.8 -40.05 -85.15 M-105.3 -29.9 L-110.55 -13.25 -111.15 -6.75 -110.9 1.35 -105.3 25.75 -102.4 33.85 -94.3 50.1 -89.65 58.25 -84.3 66.35 -84.3 66.5 -84.3 66.35 -89.65 58.25 -94.3 50.1 -102.4 33.85 -105.3 25.75 -110.9 1.35 -111.15 -6.75 -110.55 -13.25 -105.3 -29.9 -105.3 -30.15 -105.3 -29.9 -105.15 -30.15 -105.3 -29.9" fill="#ffffff" fill-rule="evenodd" stroke="none"/>
    <path d="M51.95 -92.75 L53.35 -98.25 Q52.85 -129.1 55.35 -126.65 L57.2 -128.0 65.35 -131.4 77.35 -133.5 86.1 -136.25 93.1 -139.4 95.7 -141.5 94.85 -142.75 93.1 -143.15 79.7 -143.4 Q70.4 -143.9 71.85 -144.9 L70.6 -146.0 69.2 -148.75 68.2 -149.4 66.35 -149.65 Q65.95 -150.15 56.1 -147.65 L51.7 -147.4 Q47.45 -147.6 34.7 -152.0 L31.95 -151.9 31.6 -151.4 31.95 -149.65 36.2 -143.0 Q37.85 -140.7 43.95 -136.15 L47.2 -132.15 47.45 -133.4 M45.2 -106.4 Q41.4 -110.05 32.85 -108.15 32.35 -109.0 19.85 -101.4 L15.85 -99.9 14.35 -99.9 14.45 -93.75 M14.35 -99.9 L13.85 -104.25 Q10.75 -116.15 -0.55 -115.5 -2.5 -115.35 -4.65 -113.9 L-8.55 -109.9 Q-11.85 -103.9 -11.4 -99.9 L-11.55 -92.75 M45.2 -106.4 L46.45 -104.25 47.45 -100.75 47.35 -96.15 46.6 -91.75 51.95 -92.75 55.45 -92.9 56.35 -91.15 Q54.5 -83.65 55.45 -82.65 L53.35 -78.4 66.85 -68.9 87.1 -52.65 99.45 -41.5 Q102.4 -39.05 105.1 -35.0 107.0 -35.55 111.1 -34.0 L111.2 -34.0 111.7 -35.0 112.1 -40.25 Q109.85 -47.05 109.1 -53.25 L109.45 -61.15 110.2 -63.9 Q114.75 -73.05 121.6 -63.65 139.5 -45.3 128.7 -7.9 122.75 14.9 111.6 37.5 99.95 60.65 83.35 72.1 54.5 119.4 1.45 118.5 -19.55 120.3 -48.05 105.85 -58.8 102.35 -84.05 66.85 L-84.3 66.5 Q-105.55 50.7 -121.8 -13.0 -126.15 -33.65 -121.05 -35.75 -112.85 -42.35 -105.9 -31.15 L-105.3 -30.15 -105.15 -30.15 Q-101.55 -41.45 -50.4 -78.5 L-52.3 -81.9 -52.4 -83.9 -52.3 -84.0 -53.4 -91.15 -52.55 -92.9 -49.9 -93.0 -47.4 -92.5 -48.55 -97.5 -47.8 -101.75 -45.9 -105.4 -37.4 -116.5 -36.8 -118.15 -36.65 -119.9 Q-36.65 -123.2 -38.15 -124.25 L-45.9 -129.65 -50.4 -132.15 Q-60.1 -134.45 -65.55 -137.0 L-75.4 -142.5 Q-77.9 -143.9 -79.4 -146.25 L-78.65 -147.25 -75.9 -147.5 -62.9 -146.4 -57.05 -146.65 -55.3 -148.15 Q-52.35 -158.25 -51.65 -155.9 L-50.55 -156.0 -48.65 -155.5 -39.05 -150.9 -33.9 -149.9 -28.9 -151.25 -18.4 -155.75 -15.8 -156.25 -15.05 -155.25 -15.4 -153.0 Q-18.8 -142.85 -28.15 -131.4 L-28.65 -130.0 -28.05 -119.9 -28.15 -117.15 -28.65 -115.4 -30.15 -112.15 -32.8 -108.65 -29.4 -108.0 -26.4 -106.9 -16.4 -101.15 -12.55 -99.9 -11.4 -99.9 M47.2 -132.15 L45.2 -123.0 45.2 -106.4 M-43.65 -91.75 L-41.9 -88.0 -40.05 -85.15 -36.55 -81.65 -27.8 -75.75 -18.8 -71.75 -12.9 -69.75 -3.15 -68.4 Q13.15 -67.7 21.7 -71.75 L30.7 -75.75 40.85 -82.9 42.95 -85.15 44.85 -88.0 46.6 -91.75 M42.95 -85.15 L53.35 -78.4 M111.1 -34.0 L110.45 -32.75 M83.35 72.1 L92.6 58.25 97.2 50.1 105.35 33.85 108.2 25.75 113.85 1.35 114.1 -6.75 113.45 -13.25 108.2 -30.0 105.1 -35.0 M-47.4 -92.5 L-43.65 -91.75 -44.4 -96.15 Q-44.95 -100.85 -44.4 -101.25 L-43.55 -104.25 Q-39.9 -110.1 -32.8 -108.65 M-105.3 -30.15 L-105.3 -29.9 -105.15 -30.15 M-84.3 66.5 L-84.3 66.35 -89.65 58.25 -94.3 50.1 -102.4 33.85 -105.3 25.75 -110.9 1.35 -111.15 -6.75 -110.55 -13.25 -105.3 -29.9 M-50.4 -78.5 Q-45.2 -81.8 -40.05 -85.15" fill="none" stroke="#000000" stroke-linecap="round" stroke-linejoin="round" stroke-width="2.15"/>
  </g>
</svg>
