<?xml version="1.0" encoding="UTF-8" standalone="no"?>
<svg xmlns:xlink="http://www.w3.org/1999/xlink" height="234.3px" width="285.1px" xmlns="http://www.w3.org/2000/svg">
  <g transform="matrix(1.0, 0.0, 0.0, 1.0, 136.6, 138.35)">
    <path d="M41.1 -84.25 L43.95 -88.75 51.45 -98.9 50.85 -101.0 47.85 -106.25 Q33.25 -123.55 29.95 -134.25 29.95 -137.0 32.45 -135.75 L45.95 -128.65 46.95 -128.0 52.35 -126.4 56.35 -127.15 Q68.4 -135.25 68.2 -133.9 L70.1 -133.25 70.7 -132.5 Q73.85 -123.85 75.45 -122.4 L78.2 -120.4 Q82.0 -119.1 99.6 -120.5 L100.35 -120.25 101.1 -119.0 100.1 -117.5 95.35 -113.5 86.95 -108.15 Q87.15 -107.5 72.1 -101.9 L65.6 -98.15 62.1 -95.65 Q60.2 -94.2 58.85 -87.5 L56.95 -85.4 54.7 -84.75 53.1 -85.0 50.95 -81.25 45.1 -80.5 40.35 -80.9 40.2 -82.25 41.1 -84.25 M-45.8 -84.75 L-45.55 -92.15 -45.55 -92.4 -53.65 -98.4 Q-70.8 -105.85 -80.4 -114.5 -87.6 -120.6 -82.05 -120.9 L-78.05 -120.5 Q-68.8 -118.75 -66.05 -119.0 L-61.55 -119.65 Q-57.85 -119.15 -54.4 -134.15 L-53.8 -135.25 -52.8 -135.75 -50.65 -135.9 Q-42.85 -129.2 -39.3 -127.25 L-34.8 -126.0 Q-28.75 -126.85 -13.9 -136.9 -9.05 -139.85 -18.15 -120.5 -36.4 -93.75 -31.15 -85.5 L-31.15 -85.4 -30.8 -82.15 -31.3 -80.65 -32.05 -79.9 Q-37.35 -77.15 -38.9 -79.9 L-39.55 -80.65 -45.65 -80.9 -45.8 -84.75 M51.8 -98.35 L51.85 -98.9 51.8 -98.35 51.85 -98.25 51.6 -96.15 51.6 -96.1 51.3 -94.7 50.2 -90.0 50.25 -89.45 50.1 -88.9 Q49.6 -86.6 53.1 -85.0 49.6 -86.6 50.1 -88.9 L50.25 -89.45 50.2 -90.0 51.3 -94.7 51.6 -96.1 51.6 -96.15 51.85 -98.25 51.8 -98.35 51.45 -98.9 51.8 -98.35 M50.25 -89.45 L51.3 -94.7 50.25 -89.45 M-45.55 -92.15 L-43.85 -90.65 -42.15 -89.0 -41.55 -88.0 -40.55 -85.75 -39.9 -82.5 -40.55 -85.75 -41.55 -88.0 -42.15 -89.0 -43.85 -90.65 -39.55 -80.65 -43.85 -90.65 -45.55 -92.15" fill="#fa410f" fill-rule="evenodd" stroke="none"/>
    <path d="M56.95 -85.4 L57.7 -84.4 57.7 -82.4 58.6 -82.15 58.7 -81.75 58.2 -80.0 52.85 -73.25 64.95 -68.4 76.85 -62.0 90.45 -51.9 Q107.4 -36.45 106.6 -34.25 L108.95 -36.9 110.35 -37.4 Q112.2 -38.05 115.05 -35.2 L115.1 -35.15 116.35 -39.15 116.6 -41.4 Q113.85 -54.9 116.1 -59.4 115.9 -59.95 118.45 -62.25 L120.95 -62.75 Q122.25 -63.3 126.05 -58.95 L126.2 -58.75 126.7 -58.15 126.75 -58.2 127.1 -58.65 Q128.45 -62.9 127.85 -79.65 L129.2 -86.75 131.35 -92.25 Q137.15 -99.9 141.2 -88.0 L143.85 -80.75 147.2 -64.65 Q148.5 -49.1 143.6 -36.25 129.65 3.55 100.95 31.1 L99.2 34.6 83.35 55.5 68.35 70.1 52.85 81.1 33.95 89.75 Q19.65 94.75 1.1 94.75 -30.05 96.7 -64.65 70.75 L-76.05 59.75 -82.9 52.35 -95.65 35.5 -104.3 19.0 -104.4 18.85 -104.4 18.75 Q-110.05 13.15 -125.15 -19.65 L-131.05 -34.4 Q-132.9 -39.05 -135.3 -49.65 -136.6 -62.7 -131.65 -68.0 -125.8 -76.9 -120.4 -71.75 L-118.8 -69.5 -117.15 -65.75 Q-115.4 -60.6 -116.75 -54.85 L-116.9 -54.25 -115.9 -50.15 -113.55 -46.4 -113.1 -46.3 Q-109.55 -45.5 -108.4 -43.5 L-106.65 -40.4 Q-105.6 -38.8 -107.75 -34.4 L-107.9 -34.15 -106.4 -30.15 Q-94.0 -53.65 -52.8 -72.15 L-52.65 -72.25 -52.4 -72.25 -52.3 -72.4 -51.8 -72.5 -51.65 -72.65 -51.4 -72.65 -51.3 -72.75 -49.95 -73.35 -49.9 -73.4 Q-58.55 -82.65 -54.65 -82.4 -57.1 -87.95 -45.8 -84.75 L-45.65 -80.9 -39.55 -80.65 -38.9 -79.9 Q-37.35 -77.15 -32.05 -79.9 L-31.3 -80.65 -30.8 -82.15 -31.15 -85.4 -31.05 -85.5 -27.05 -85.9 Q-25.25 -85.6 -26.65 -82.0 L-26.65 -80.65 -26.15 -80.65 Q-19.8 -82.45 -8.4 -84.0 L2.1 -84.65 Q6.85 -85.4 29.6 -80.65 L29.45 -82.0 Q25.4 -88.65 41.1 -84.25 L40.2 -82.25 40.35 -80.9 45.1 -80.5 50.95 -81.25 53.1 -85.0 54.7 -84.75 56.95 -85.4 M-31.15 -85.5 L-31.05 -85.5 -31.15 -85.4 -31.15 -85.5 M57.7 -82.4 L56.85 -82.5 50.95 -81.25 56.85 -82.5 57.7 -82.4 M-107.75 -34.4 L-108.4 -36.0 -107.75 -34.4 M-104.4 18.75 L-104.8 17.6 -107.55 12.25 -112.4 -9.25 -108.65 -26.65 -106.4 -30.15 -108.65 -26.65 -112.4 -9.25 -107.55 12.25 -104.8 17.6 -104.4 18.75 M-112.9 -45.75 L-113.1 -46.3 -112.9 -45.75 M-116.75 -54.85 L-117.05 -55.25 -116.75 -54.85 M112.85 -31.75 L114.7 -34.0 115.05 -35.2 114.7 -34.0 112.85 -31.75 M106.6 -34.25 L111.2 -27.25 112.6 -23.0 115.35 -9.25 110.45 12.35 100.95 31.1 110.45 12.35 115.35 -9.25 112.6 -23.0 111.2 -27.25 106.6 -34.25 M125.95 -55.65 L126.7 -57.0 126.75 -58.2 126.7 -57.0 125.95 -55.65 M14.85 -34.55 L14.85 -29.0 14.85 -34.55 14.85 -34.75 14.45 -39.25 12.95 -44.65 11.45 -47.4 Q2.7 -60.9 -8.55 -47.4 L-10.15 -44.4 -11.55 -39.25 -11.9 -34.75 -12.8 -34.75 -17.05 -36.15 -22.15 -39.25 Q-25.1 -41.45 -30.3 -43.4 L-35.3 -44.4 Q-44.25 -45.2 -45.4 -39.25 L-45.9 -37.25 -45.55 -31.15 -43.9 -26.0 -41.9 -23.0 -37.9 -18.5 -32.65 -14.9 Q-28.15 -11.45 -23.15 -9.25 L-16.8 -6.75 Q-3.8 -1.0 19.7 -6.75 26.35 -9.0 30.95 -11.75 L41.1 -18.75 44.85 -23.0 47.1 -26.65 48.45 -31.15 48.85 -37.25 48.35 -39.25 Q48.45 -40.8 45.6 -43.25 L41.85 -44.4 Q32.95 -44.95 25.1 -39.25 L23.1 -37.9 22.95 -37.75 22.85 -37.75 22.6 -37.5 22.45 -37.5 22.35 -37.4 Q15.3 -34.15 14.85 -34.55 15.3 -34.15 22.35 -37.4 L22.45 -37.5 22.6 -37.5 22.85 -37.75 22.95 -37.75 23.1 -37.9 25.1 -39.25 Q32.95 -44.95 41.85 -44.4 L45.6 -43.25 Q48.45 -40.8 48.35 -39.25 L48.85 -37.25 48.45 -31.15 47.1 -26.65 44.85 -23.0 41.1 -18.75 30.95 -11.75 Q26.35 -9.0 19.7 -6.75 -3.8 -1.0 -16.8 -6.75 L-23.15 -9.25 Q-28.15 -11.45 -32.65 -14.9 L-37.9 -18.5 -41.9 -23.0 -43.9 -26.0 -45.55 -31.15 -45.9 -37.25 -45.4 -39.25 Q-44.25 -45.2 -35.3 -44.4 L-30.3 -43.4 Q-25.1 -41.45 -22.15 -39.25 L-17.05 -36.15 -12.8 -34.75 -11.9 -34.75 -11.55 -39.25 -10.15 -44.4 -8.55 -47.4 Q2.7 -60.9 11.45 -47.4 L12.95 -44.65 14.45 -39.25 14.85 -34.75 14.85 -34.55 M29.45 -82.0 L29.7 -82.4 31.35 -82.65 40.35 -80.9 31.35 -82.65 29.7 -82.4 29.45 -82.0 M29.6 -80.65 L30.1 -79.9 34.2 -74.9 30.1 -79.9 29.6 -80.65 M51.95 -70.25 L51.35 -70.5 51.45 -71.75 52.85 -73.25 51.45 -71.75 51.35 -70.5 51.95 -70.25 M-54.65 -82.4 L-45.65 -80.9 -54.65 -82.4 M-26.65 -82.0 L-27.65 -82.5 -30.8 -82.15 -27.65 -82.5 -26.65 -82.0 M-31.4 -74.65 L-30.9 -75.65 Q-29.35 -76.5 -27.05 -79.9 L-26.65 -80.65 -27.05 -79.9 Q-29.35 -76.5 -30.9 -75.65 L-31.4 -74.65 M-11.9 -28.9 L-11.9 -34.75 -11.9 -28.9 M-52.8 -72.15 L-52.65 -72.15 -52.65 -72.25 -52.65 -72.15 -52.8 -72.15 M-52.4 -72.25 L-52.3 -72.25 -52.3 -72.4 -52.3 -72.25 -52.4 -72.25 M-49.95 -73.35 L-48.8 -71.75 -48.4 -70.65 -48.8 -70.5 -48.4 -70.65 -48.8 -71.75 -49.95 -73.35" fill="#ffffff" fill-rule="evenodd" stroke="none"/>
    <path d="M41.1 -84.25 L43.95 -88.75 51.45 -98.9 50.85 -101.0 47.85 -106.25 Q33.25 -123.55 29.95 -134.25 29.95 -137.0 32.45 -135.75 L45.95 -128.65 46.95 -128.0 52.35 -126.4 56.35 -127.15 Q68.4 -135.25 68.2 -133.9 L70.1 -133.25 70.7 -132.5 Q73.85 -123.85 75.45 -122.4 L78.2 -120.4 Q82.0 -119.1 99.6 -120.5 L100.35 -120.25 101.1 -119.0 100.1 -117.5 95.35 -113.5 86.95 -108.15 Q87.15 -107.5 72.1 -101.9 L65.6 -98.15 62.1 -95.65 Q60.2 -94.2 58.85 -87.5 L56.95 -85.4 57.7 -84.4 57.7 -82.4 58.6 -82.15 58.7 -81.75 58.2 -80.0 52.85 -73.25 64.95 -68.4 76.85 -62.0 90.45 -51.9 Q107.4 -36.45 106.6 -34.25 L108.95 -36.9 110.35 -37.4 Q112.2 -38.05 115.05 -35.2 L115.1 -35.15 116.35 -39.15 116.6 -41.4 Q113.85 -54.9 116.1 -59.4 115.9 -59.95 118.45 -62.25 L120.95 -62.75 Q122.25 -63.3 126.05 -58.95 L126.2 -58.75 126.7 -58.15 126.75 -58.2 127.1 -58.65 Q128.45 -62.9 127.85 -79.65 L129.2 -86.75 131.35 -92.25 Q137.15 -99.9 141.2 -88.0 L143.85 -80.75 147.2 -64.65 Q148.5 -49.1 143.6 -36.25 129.65 3.55 100.95 31.1 L99.2 34.6 83.35 55.5 68.35 70.1 52.85 81.1 33.95 89.75 Q19.65 94.75 1.1 94.75 -30.05 96.7 -64.65 70.75 L-76.05 59.75 -82.9 52.35 -95.65 35.5 -104.3 19.0 -104.4 18.85 -104.4 18.75 Q-110.05 13.15 -125.15 -19.65 L-131.05 -34.4 Q-132.9 -39.05 -135.3 -49.65 -136.6 -62.7 -131.65 -68.0 -125.8 -76.9 -120.4 -71.75 L-118.8 -69.5 -117.15 -65.75 Q-115.4 -60.6 -116.75 -54.85 L-116.9 -54.25 -115.9 -50.15 -113.55 -46.4 -113.1 -46.3 Q-109.55 -45.5 -108.4 -43.5 L-106.65 -40.4 Q-105.6 -38.8 -107.75 -34.4 L-107.9 -34.15 -106.4 -30.15 Q-94.0 -53.65 -52.8 -72.15 L-52.65 -72.25 -52.4 -72.25 -52.3 -72.4 -51.8 -72.5 -51.65 -72.65 -51.4 -72.65 -51.3 -72.75 -49.95 -73.35 -49.9 -73.4 Q-58.55 -82.65 -54.65 -82.4 -57.1 -87.95 -45.8 -84.75 L-45.55 -92.15 -45.55 -92.4 -53.65 -98.4 Q-70.8 -105.85 -80.4 -114.5 -87.6 -120.6 -82.05 -120.9 L-78.05 -120.5 Q-68.8 -118.75 -66.05 -119.0 L-61.55 -119.65 Q-57.85 -119.15 -54.4 -134.15 L-53.8 -135.25 -52.8 -135.75 -50.65 -135.9 Q-42.85 -129.2 -39.3 -127.25 L-34.8 -126.0 Q-28.75 -126.85 -13.9 -136.9 -9.05 -139.85 -18.15 -120.5 -36.4 -93.75 -31.15 -85.5 L-31.05 -85.5 -27.05 -85.9 Q-25.25 -85.6 -26.65 -82.0 L-26.65 -80.65 -26.15 -80.65 Q-19.8 -82.45 -8.4 -84.0 L2.1 -84.65 Q6.85 -85.4 29.6 -80.65 L29.45 -82.0 Q25.4 -88.65 41.1 -84.25 L40.2 -82.25 40.35 -80.9 45.1 -80.5 50.95 -81.25 53.1 -85.0 Q49.6 -86.6 50.1 -88.9 L50.25 -89.45 50.2 -90.0 51.3 -94.7 51.6 -96.1 51.6 -96.15 51.85 -98.25 51.8 -98.35 51.45 -98.9 M51.85 -98.9 L51.8 -98.35 M50.95 -81.25 L56.85 -82.5 57.7 -82.4 M53.1 -85.0 L54.7 -84.75 56.95 -85.4 M51.3 -94.7 L50.25 -89.45 M52.85 -73.25 L51.45 -71.75 51.35 -70.5 51.95 -70.25 M34.2 -74.9 L30.1 -79.9 29.6 -80.65 M40.35 -80.9 L31.35 -82.65 29.7 -82.4 29.45 -82.0 M25.1 -39.25 Q32.95 -44.95 41.85 -44.4 L45.6 -43.25 Q48.45 -40.8 48.35 -39.25 L48.85 -37.25 48.45 -31.15 47.1 -26.65 44.85 -23.0 41.1 -18.75 30.95 -11.75 Q26.35 -9.0 19.7 -6.75 -3.8 -1.0 -16.8 -6.75 L-23.15 -9.25 Q-28.15 -11.45 -32.65 -14.9 L-37.9 -18.5 -41.9 -23.0 -43.9 -26.0 -45.55 -31.15 -45.9 -37.25 -45.4 -39.25 Q-44.25 -45.2 -35.3 -44.4 L-30.3 -43.4 Q-25.1 -41.45 -22.15 -39.25 L-17.05 -36.15 -12.8 -34.75 -11.9 -34.75 -11.55 -39.25 -10.15 -44.4 -8.55 -47.4 Q2.7 -60.9 11.45 -47.4 L12.95 -44.65 14.45 -39.25 14.85 -34.75 14.85 -34.55 Q15.3 -34.15 22.35 -37.4 L22.45 -37.5 22.6 -37.5 22.85 -37.75 22.95 -37.75 23.1 -37.9 25.1 -39.25 M14.85 -29.0 L14.85 -34.55 M126.75 -58.2 L126.7 -57.0 125.95 -55.65 M100.95 31.1 L110.45 12.35 115.35 -9.25 112.6 -23.0 111.2 -27.25 106.6 -34.25 M115.05 -35.2 L114.7 -34.0 112.85 -31.75 M-117.05 -55.25 L-116.75 -54.85 M-113.1 -46.3 L-112.9 -45.75 M-106.4 -30.15 L-108.65 -26.65 -112.4 -9.25 -107.55 12.25 -104.8 17.6 -104.4 18.75 M-108.4 -36.0 L-107.75 -34.4 M-30.8 -82.15 L-31.3 -80.65 -32.05 -79.9 Q-37.35 -77.15 -38.9 -79.9 L-39.55 -80.65 -45.65 -80.9 -54.65 -82.4 M-31.15 -85.4 L-30.8 -82.15 -27.65 -82.5 -26.65 -82.0 M-31.05 -85.5 L-31.15 -85.4 -31.15 -85.5 M-26.65 -80.65 L-27.05 -79.9 Q-29.35 -76.5 -30.9 -75.65 L-31.4 -74.65 M-39.9 -82.5 L-40.55 -85.75 -41.55 -88.0 -42.15 -89.0 -43.85 -90.65 -39.55 -80.65 M-43.85 -90.65 L-45.55 -92.15 M-45.65 -80.9 L-45.8 -84.75 M-68.8 -64.65 L-69.55 -64.15 M-48.8 -70.5 L-48.4 -70.65 -48.8 -71.75 -49.95 -73.35 M-52.3 -72.4 L-52.3 -72.25 -52.4 -72.25 M-52.65 -72.25 L-52.65 -72.15 -52.8 -72.15 M-11.9 -34.75 L-11.9 -28.9" fill="none" stroke="#000000" stroke-linecap="round" stroke-linejoin="round" stroke-width="2.15"/>
  </g>
</svg>
