<?xml version="1.0" encoding="UTF-8" standalone="no"?>
<svg xmlns:xlink="http://www.w3.org/1999/xlink" height="218.9px" width="300.25px" xmlns="http://www.w3.org/2000/svg">
  <g transform="matrix(1.0, 0.0, 0.0, 1.0, 143.1, 141.0)">
    <path d="M36.95 -115.75 L33.7 -123.5 32.2 -129.4 32.95 -130.15 34.1 -129.9 36.45 -128.65 Q45.1 -121.6 51.2 -118.25 L56.2 -116.9 60.2 -118.4 63.85 -121.4 69.95 -128.15 71.1 -128.75 72.7 -128.65 74.45 -127.15 Q78.0 -114.4 79.35 -112.65 L82.35 -109.15 86.7 -108.15 Q88.65 -107.85 103.35 -110.25 L105.35 -109.75 105.85 -108.65 Q105.7 -103.75 80.6 -86.9 L70.1 -79.9 64.35 -75.15 61.7 -71.75 57.1 -63.65 55.35 -61.75 52.45 -61.5 50.85 -62.0 48.85 -63.65 47.45 -65.5 44.6 -71.75 43.85 -72.65 43.1 -73.65 39.85 -77.65 39.35 -79.9 Q39.5 -84.25 44.45 -84.15 47.65 -83.7 49.35 -81.75 L50.45 -79.9 51.5 -77.8 51.85 -77.15 51.95 -77.15 51.95 -79.9 51.2 -84.0 48.6 -91.9 47.1 -96.15 43.45 -104.25 36.95 -115.75 M-75.55 -88.9 Q-91.5 -101.55 -88.65 -103.65 -89.75 -105.45 -69.05 -101.5 L-64.8 -102.65 -62.05 -106.0 -61.55 -107.5 Q-60.65 -108.75 -58.3 -122.5 L-57.15 -124.4 -55.9 -125.0 -54.3 -124.75 -45.4 -115.4 -41.4 -112.4 -37.4 -111.15 -33.8 -112.4 Q-34.15 -111.45 -27.05 -116.75 L-25.15 -118.5 -25.05 -118.65 -18.05 -124.5 -15.3 -125.75 -14.4 -124.9 -15.05 -121.15 -15.3 -120.5 -17.8 -112.4 -20.9 -104.25 -26.85 -91.4 -31.9 -79.9 -33.8 -74.5 -33.95 -73.15 -34.3 -70.5 -34.25 -70.25 -33.3 -65.7 -32.9 -63.65 Q-32.05 -58.5 -38.15 -57.9 L-40.05 -58.5 -40.9 -59.5 -43.05 -63.65 -46.3 -68.4 -49.65 -71.75 -51.4 -73.0 -51.55 -73.15 -55.8 -76.25 -55.9 -76.4 -60.9 -79.9 -71.55 -86.0 -75.55 -88.9 M49.85 -69.9 L50.85 -71.75 51.7 -74.25 51.95 -76.9 51.95 -77.15 51.95 -76.9 51.7 -74.25 50.85 -71.75 49.85 -69.9 M43.85 -72.65 L43.6 -73.4 43.1 -73.65 43.6 -73.4 43.85 -72.65 M51.95 -76.9 L51.85 -77.15 51.95 -76.9 M50.85 -78.25 L51.5 -77.8 50.85 -78.25 M49.45 -81.15 L49.35 -81.75 49.45 -81.15 M50.45 -79.15 L50.35 -79.5 50.45 -79.15 M-33.55 -65.15 L-33.3 -65.7 -33.55 -65.15 M-33.8 -65.75 L-33.65 -66.15 -34.15 -67.4 -34.25 -70.25 -34.15 -67.4 -33.65 -66.15 -33.8 -65.75" fill="#fa410f" fill-rule="evenodd" stroke="none"/>
    <path d="M80.6 -86.9 L89.45 -78.25 Q104.0 -61.2 104.65 -58.4 106.8 -63.05 111.95 -80.25 115.9 -85.7 119.6 -79.9 L121.2 -77.0 121.6 -77.5 122.85 -83.75 Q121.85 -98.25 124.35 -104.75 129.25 -111.8 132.95 -104.25 L135.7 -98.5 Q138.45 -125.1 141.2 -130.9 142.0 -133.85 144.6 -138.0 L147.1 -139.9 Q154.0 -141.45 155.7 -104.25 157.85 -88.25 147.95 -65.25 136.95 -41.0 110.95 -17.75 L108.6 -7.75 98.45 11.6 84.85 29.6 67.45 47.0 Q34.85 75.55 1.7 76.85 -28.65 77.05 -64.55 47.0 L-80.9 30.75 -94.8 12.75 -105.05 -6.25 -110.15 -26.4 -110.15 -28.5 Q-134.8 -62.95 -140.9 -89.65 -144.1 -103.45 -138.55 -121.0 -132.8 -136.7 -128.55 -128.65 L-126.55 -125.25 -124.15 -117.15 Q-123.05 -111.8 -123.4 -102.9 L-121.9 -96.4 Q-115.45 -101.85 -112.4 -95.5 -110.35 -90.85 -112.55 -81.9 L-110.3 -75.0 -110.15 -75.0 Q-102.8 -78.95 -99.4 -62.15 L-86.55 -78.25 -75.55 -88.9 -71.55 -86.0 -60.9 -79.9 -55.9 -76.4 -55.8 -76.25 -54.4 -74.5 -51.55 -73.15 -54.4 -74.5 -55.8 -76.25 -51.55 -73.15 -51.4 -73.0 -49.65 -71.75 -46.3 -68.4 -43.05 -63.65 -40.9 -59.5 -40.05 -58.5 -38.15 -57.9 Q-32.05 -58.5 -32.9 -63.65 L-33.3 -65.7 -34.25 -70.25 -34.3 -70.5 -33.95 -73.15 Q-23.8 -76.0 -27.05 -79.9 L-27.3 -82.4 -26.4 -88.0 -26.3 -90.5 -26.85 -91.4 -26.3 -90.5 -26.4 -88.0 -27.3 -82.4 -27.05 -79.9 Q-23.8 -76.0 -33.95 -73.15 L-33.8 -74.5 -31.9 -79.9 -26.85 -91.4 -20.9 -104.25 -17.8 -112.4 -15.3 -120.5 -15.05 -121.15 Q10.2 -126.35 36.95 -115.75 L43.45 -104.25 47.1 -96.15 48.6 -91.9 51.2 -84.0 51.95 -79.9 51.95 -77.15 51.85 -77.15 51.5 -77.8 50.45 -79.9 49.35 -81.75 Q47.65 -83.7 44.45 -84.15 39.5 -84.25 39.35 -79.9 L39.85 -77.65 43.1 -73.65 43.85 -72.65 44.6 -71.75 47.45 -65.5 48.85 -63.65 50.85 -62.0 52.45 -61.5 55.35 -61.75 57.1 -63.65 61.7 -71.75 64.35 -75.15 70.1 -79.9 80.6 -86.9 M-41.4 -112.4 L-31.4 -116.75 -25.15 -118.5 -27.05 -116.75 Q-34.15 -111.45 -33.8 -112.4 L-37.4 -111.15 -41.4 -112.4 M40.1 -72.25 Q26.4 -75.2 29.95 -79.9 L30.1 -83.4 29.35 -88.0 29.35 -90.75 30.1 -92.4 30.7 -92.65 33.2 -92.9 43.85 -91.4 48.6 -91.9 43.85 -91.4 33.2 -92.9 30.7 -92.65 30.1 -92.4 29.35 -90.75 29.35 -88.0 30.1 -83.4 29.95 -79.9 Q26.4 -75.2 40.1 -72.25 M-11.05 15.5 L-10.8 13.6 -9.05 9.5 Q-5.3 1.8 0.95 1.35 L1.95 1.35 Q7.45 1.3 11.95 9.5 L13.7 13.6 13.95 15.5 Q18.85 16.05 32.2 10.35 L36.1 9.85 40.35 10.0 44.7 11.85 Q47.4 14.7 47.35 17.6 L47.35 21.85 46.6 25.75 45.45 28.6 Q41.6 34.5 41.2 33.85 39.75 35.65 34.6 38.75 L27.2 42.0 Q-2.3 52.5 -24.3 42.0 L-31.65 38.75 Q-36.85 35.65 -38.3 33.85 -38.6 34.6 -42.65 28.35 L-43.65 25.75 -44.4 22.0 -44.4 17.6 Q-43.15 10.4 -37.4 10.0 L-33.15 9.85 -29.3 10.35 Q-15.9 16.05 -11.05 15.5 L-11.3 17.6 -11.55 25.1 -11.3 17.6 -11.05 15.5 Q-15.9 16.05 -29.3 10.35 L-33.15 9.85 -37.4 10.0 Q-43.15 10.4 -44.4 17.6 L-44.4 22.0 -43.65 25.75 -42.65 28.35 Q-38.6 34.6 -38.3 33.85 -36.85 35.65 -31.65 38.75 L-24.3 42.0 Q-2.3 52.5 27.2 42.0 L34.6 38.75 Q39.75 35.65 41.2 33.85 41.6 34.5 45.45 28.6 L46.6 25.75 47.35 21.85 47.35 17.6 Q47.4 14.7 44.7 11.85 L40.35 10.0 36.1 9.85 32.2 10.35 Q18.85 16.05 13.95 15.5 L14.45 24.0 13.95 15.5 13.7 13.6 11.95 9.5 Q7.45 1.3 1.95 1.35 L0.95 1.35 Q-5.3 1.8 -9.05 9.5 L-10.8 13.6 -11.05 15.5 M119.6 -72.5 L121.2 -77.0 119.6 -72.5 M110.95 -17.75 L113.2 -27.75 110.35 -45.65 104.35 -57.9 104.65 -58.4 104.35 -57.9 110.35 -45.65 113.2 -27.75 110.95 -17.75 M134.35 -93.75 L135.7 -98.5 134.35 -93.75 M-120.55 -94.4 L-121.65 -95.5 -121.8 -96.15 -121.65 -95.5 -120.55 -94.4 M-107.65 -71.75 L-110.15 -75.0 -107.65 -71.75 M-110.15 -28.5 L-107.65 -44.65 -106.65 -47.4 Q-104.9 -51.55 -102.65 -55.5 L-99.4 -62.15 -102.65 -55.5 Q-104.9 -51.55 -106.65 -47.4 L-107.65 -44.65 -110.15 -28.5" fill="#ffffff" fill-rule="evenodd" stroke="none"/>
    <path d="M36.95 -115.75 L33.7 -123.5 32.2 -129.4 32.95 -130.15 34.1 -129.9 36.45 -128.65 Q45.1 -121.6 51.2 -118.25 L56.2 -116.9 60.2 -118.4 63.85 -121.4 69.95 -128.15 71.1 -128.75 72.7 -128.65 74.45 -127.15 Q78.0 -114.4 79.35 -112.65 L82.35 -109.15 86.7 -108.15 Q88.65 -107.85 103.35 -110.25 L105.35 -109.75 105.85 -108.65 Q105.7 -103.75 80.6 -86.9 L89.45 -78.25 Q104.0 -61.2 104.65 -58.4 106.8 -63.05 111.95 -80.25 115.9 -85.7 119.6 -79.9 L121.2 -77.0 121.6 -77.5 122.85 -83.75 Q121.85 -98.25 124.35 -104.75 129.25 -111.8 132.95 -104.25 L135.7 -98.5 Q138.45 -125.1 141.2 -130.9 142.0 -133.85 144.6 -138.0 L147.1 -139.9 Q154.0 -141.45 155.7 -104.25 157.85 -88.25 147.95 -65.25 136.95 -41.0 110.95 -17.75 L108.6 -7.75 98.45 11.6 84.85 29.6 67.45 47.0 Q34.85 75.55 1.7 76.85 -28.65 77.05 -64.55 47.0 L-80.9 30.75 -94.8 12.75 -105.05 -6.25 -110.15 -26.4 -110.15 -28.5 Q-134.8 -62.95 -140.9 -89.65 -144.1 -103.45 -138.55 -121.0 -132.8 -136.7 -128.55 -128.65 L-126.55 -125.25 -124.15 -117.15 Q-123.05 -111.8 -123.4 -102.9 L-121.9 -96.4 Q-115.45 -101.85 -112.4 -95.5 -110.35 -90.85 -112.55 -81.9 L-110.3 -75.0 -110.15 -75.0 Q-102.8 -78.95 -99.4 -62.15 L-86.55 -78.25 -75.55 -88.9 Q-91.5 -101.55 -88.65 -103.65 -89.75 -105.45 -69.05 -101.5 L-64.8 -102.65 -62.05 -106.0 -61.55 -107.5 Q-60.65 -108.75 -58.3 -122.5 L-57.15 -124.4 -55.9 -125.0 -54.3 -124.75 -45.4 -115.4 -41.4 -112.4 -31.4 -116.75 -25.15 -118.5 -25.05 -118.65 -18.05 -124.5 -15.3 -125.75 -14.4 -124.9 -15.05 -121.15 Q10.2 -126.35 36.95 -115.75 L43.45 -104.25 47.1 -96.15 48.6 -91.9 51.2 -84.0 51.95 -79.9 51.95 -77.15 51.95 -76.9 51.7 -74.25 50.85 -71.75 49.85 -69.9 M80.6 -86.9 L70.1 -79.9 64.35 -75.15 61.7 -71.75 57.1 -63.65 55.35 -61.75 52.45 -61.5 50.85 -62.0 48.85 -63.65 47.45 -65.5 44.6 -71.75 43.85 -72.65 43.1 -73.65 39.85 -77.65 39.35 -79.9 Q39.5 -84.25 44.45 -84.15 47.65 -83.7 49.35 -81.75 L50.45 -79.9 51.5 -77.8 51.85 -77.15 51.95 -77.15 M48.6 -91.9 L43.85 -91.4 33.2 -92.9 30.7 -92.65 30.1 -92.4 29.35 -90.75 29.35 -88.0 30.1 -83.4 29.95 -79.9 Q26.4 -75.2 40.1 -72.25 M50.35 -79.5 L50.45 -79.15 M49.35 -81.75 L49.45 -81.15 M51.5 -77.8 L50.85 -78.25 M51.85 -77.15 L51.95 -76.9 M43.1 -73.65 L43.6 -73.4 43.85 -72.65 M135.7 -98.5 L134.35 -93.75 M104.65 -58.4 L104.35 -57.9 110.35 -45.65 113.2 -27.75 110.95 -17.75 M121.2 -77.0 L119.6 -72.5 M-11.55 25.1 L-11.3 17.6 -11.05 15.5 Q-15.9 16.05 -29.3 10.35 L-33.15 9.85 -37.4 10.0 Q-43.15 10.4 -44.4 17.6 L-44.4 22.0 -43.65 25.75 -42.65 28.35 Q-38.6 34.6 -38.3 33.85 -36.85 35.65 -31.65 38.75 L-24.3 42.0 Q-2.3 52.5 27.2 42.0 L34.6 38.75 Q39.75 35.65 41.2 33.85 41.6 34.5 45.45 28.6 L46.6 25.75 47.35 21.85 47.35 17.6 Q47.4 14.7 44.7 11.85 L40.35 10.0 36.1 9.85 32.2 10.35 Q18.85 16.05 13.95 15.5 L14.45 24.0 M13.95 15.5 L13.7 13.6 11.95 9.5 Q7.45 1.3 1.95 1.35 L0.95 1.35 Q-5.3 1.8 -9.05 9.5 L-10.8 13.6 -11.05 15.5 M-25.15 -118.5 L-27.05 -116.75 Q-34.15 -111.45 -33.8 -112.4 L-37.4 -111.15 -41.4 -112.4 M-15.05 -121.15 L-15.3 -120.5 -17.8 -112.4 -20.9 -104.25 -26.85 -91.4 -26.3 -90.5 -26.4 -88.0 -27.3 -82.4 -27.05 -79.9 Q-23.8 -76.0 -33.95 -73.15 L-34.3 -70.5 -34.25 -70.25 -33.3 -65.7 -32.9 -63.65 Q-32.05 -58.5 -38.15 -57.9 L-40.05 -58.5 -40.9 -59.5 -43.05 -63.65 -46.3 -68.4 -49.65 -71.75 -51.4 -73.0 -51.55 -73.15 -54.4 -74.5 -55.8 -76.25 -55.9 -76.4 -60.9 -79.9 -71.55 -86.0 -75.55 -88.9 M-99.4 -62.15 L-102.65 -55.5 Q-104.9 -51.55 -106.65 -47.4 L-107.65 -44.65 -110.15 -28.5 M-110.15 -75.0 L-107.65 -71.75 M-121.8 -96.15 L-121.65 -95.5 -120.55 -94.4 M-26.85 -91.4 L-31.9 -79.9 -33.8 -74.5 -33.95 -73.15 M-34.25 -70.25 L-34.15 -67.4 -33.65 -66.15 -33.8 -65.75 M-33.3 -65.7 L-33.55 -65.15 M-51.55 -73.15 L-55.8 -76.25" fill="none" stroke="#000000" stroke-linecap="round" stroke-linejoin="round" stroke-width="2.15"/>
  </g>
</svg>
