<?xml version="1.0" encoding="UTF-8" standalone="no"?>
<svg xmlns:xlink="http://www.w3.org/1999/xlink" height="290.7px" width="324.05px" xmlns="http://www.w3.org/2000/svg">
  <g transform="matrix(1.0, 0.0, 0.0, 1.0, 153.15, 201.3)">
    <path d="M141.7 -161.15 Q142.6 -160.9 143.95 -157.65 L147.35 -141.75 147.45 -141.75 Q152.15 -164.85 156.6 -174.65 161.6 -187.7 167.1 -185.5 170.9 -182.8 169.45 -157.5 L166.1 -130.25 Q165.35 -123.15 159.6 -108.5 145.75 -79.85 109.2 -67.9 115.0 -48.5 99.1 -13.65 L88.95 4.1 78.95 18.0 62.95 36.85 Q47.25 52.75 40.35 57.6 49.35 67.55 38.35 80.25 L35.85 81.85 30.35 84.1 23.7 85.5 2.95 88.35 Q-29.5 85.8 -35.15 80.5 L-38.65 77.0 Q-41.1 73.2 -41.3 70.0 -42.75 62.15 -37.4 57.6 -44.85 52.2 -60.05 36.85 L-75.9 18.1 -85.4 5.1 Q-98.5 -16.95 -98.8 -19.25 L-98.9 -19.4 -99.55 -21.65 -99.65 -21.75 -99.65 -22.0 -99.8 -22.15 -99.8 -22.4 -99.9 -22.5 -100.3 -24.0 -100.4 -24.15 -100.4 -24.4 -100.55 -24.5 -100.55 -24.75 -100.65 -24.9 -100.65 -25.15 -100.8 -25.25 -100.8 -25.5 -100.9 -25.65 -100.9 -25.9 -101.05 -26.0 -101.05 -26.4 -101.15 -26.5 -101.15 -26.75 -101.3 -26.9 -101.3 -27.15 -101.4 -27.25 -101.4 -27.5 -101.55 -27.65 -101.8 -28.75 -101.9 -28.9 -106.65 -44.9 -107.55 -52.4 -107.15 -60.75 -105.55 -74.9 Q-132.3 -92.55 -147.55 -129.15 -153.85 -146.3 -151.4 -184.4 -149.3 -210.5 -140.65 -193.65 -137.35 -191.6 -132.3 -155.25 L-132.15 -155.25 Q-124.8 -176.6 -120.4 -161.15 -119.4 -162.8 -118.9 -140.4 L-117.65 -134.75 -117.55 -134.75 Q-112.4 -149.0 -107.3 -136.75 -102.05 -116.15 -94.8 -106.0 -69.3 -145.0 -36.3 -163.0 -26.8 -168.5 -14.8 -171.0 L1.2 -173.0 17.45 -171.0 23.85 -169.25 Q44.15 -164.45 70.2 -139.9 88.85 -123.4 99.95 -100.4 L103.45 -104.15 Q113.4 -120.35 119.6 -138.75 124.65 -143.55 126.45 -136.75 L129.1 -126.5 129.2 -126.5 129.45 -126.5 Q131.1 -130.9 134.7 -155.75 136.7 -163.6 141.7 -161.15 M126.95 -121.15 L129.1 -125.25 129.2 -126.5 129.1 -125.25 126.95 -121.15 M147.35 -141.75 L147.35 -141.5 147.45 -141.75 147.35 -141.5 146.95 -139.75 144.95 -135.15 146.95 -139.75 147.35 -141.5 147.35 -141.75 M44.95 -75.9 Q40.4 -76.95 39.1 -71.75 L38.95 -70.15 39.45 -67.65 42.2 -61.75 43.85 -56.9 44.35 -55.5 47.85 -42.25 Q49.6 -39.3 50.85 -39.25 L52.2 -38.65 53.95 -38.65 55.1 -39.25 56.95 -40.5 62.7 -47.4 66.35 -50.65 77.95 -58.9 90.35 -66.5 96.1 -71.75 106.85 -83.0 Q109.85 -88.7 105.35 -87.65 105.05 -88.15 94.1 -85.0 L88.1 -84.4 84.2 -85.5 81.7 -89.25 80.2 -96.15 79.2 -104.25 Q78.8 -117.55 69.45 -104.25 L66.2 -100.0 61.95 -96.15 Q61.4 -95.35 57.1 -94.25 L52.35 -96.15 48.1 -99.25 43.1 -104.25 Q33.2 -115.3 35.85 -104.25 L40.2 -88.0 40.2 -87.9 44.95 -75.9 M-10.65 71.0 L-10.15 62.0 -8.8 58.25 -7.3 55.5 -7.15 55.5 Q-3.1 49.35 2.2 50.25 L5.7 51.1 Q8.75 52.9 10.1 55.5 L10.2 55.55 10.95 55.6 Q40.75 54.35 40.35 57.6 40.75 54.35 10.95 55.6 L10.2 55.55 12.85 61.1 13.6 70.0 12.85 61.1 10.2 55.55 10.1 55.5 Q8.75 52.9 5.7 51.1 L2.2 50.25 Q-3.1 49.35 -7.15 55.5 L-7.3 55.5 -8.8 58.25 -10.15 62.0 -10.65 71.0 M105.35 -87.65 L99.95 -100.4 105.35 -87.65 M109.2 -67.9 L107.6 -79.9 106.85 -83.0 107.6 -79.9 109.2 -67.9 M43.85 -56.9 Q27.85 -55.55 29.35 -63.65 L29.95 -71.75 29.2 -84.9 Q30.1 -88.35 31.45 -88.0 L32.45 -88.4 40.2 -87.9 32.45 -88.4 31.45 -88.0 Q30.1 -88.35 29.2 -84.9 L29.95 -71.75 29.35 -63.65 Q27.85 -55.55 43.85 -56.9 M-33.0 -48.65 L-33.05 -49.25 -29.55 -57.9 -26.9 -63.65 -26.55 -64.0 -22.9 -71.75 -18.15 -88.0 -16.65 -96.15 Q-15.25 -102.4 -22.05 -96.15 L-30.15 -88.4 -30.65 -88.0 Q-39.55 -79.5 -46.4 -88.0 L-48.3 -89.65 -56.4 -98.9 -58.05 -100.0 -59.05 -100.0 -60.65 -99.15 -61.4 -96.15 -62.4 -83.9 -63.3 -79.9 Q-62.5 -79.95 -65.9 -74.75 L-69.4 -73.65 -75.4 -73.9 Q-86.35 -76.55 -89.05 -76.15 L-90.15 -75.65 -90.4 -74.15 -88.9 -71.75 -86.15 -68.5 -73.15 -57.65 -48.05 -43.9 Q-45.25 -42.2 -42.65 -39.25 L-40.55 -37.0 -38.4 -35.9 Q-34.6 -35.45 -33.05 -39.25 -32.3 -41.4 -32.55 -44.5 L-33.0 -48.65 M-37.4 57.6 L-33.9 56.0 -30.3 55.5 -12.4 55.85 -7.3 55.5 -12.4 55.85 -30.3 55.5 -33.9 56.0 -37.4 57.6 M-46.4 -88.0 L-46.05 -88.0 -42.4 -87.65 -30.15 -88.4 -42.4 -87.65 -46.05 -88.0 -46.4 -88.0 M-26.55 -64.0 L-26.4 -63.65 Q-26.05 -61.25 -27.15 -59.4 L-29.55 -57.9 -27.15 -59.4 Q-26.05 -61.25 -26.4 -63.65 L-26.55 -64.0 M-94.8 -106.0 L-95.4 -104.25 -103.65 -84.65 -105.55 -74.9 -103.65 -84.65 -95.4 -104.25 -94.8 -106.0 M-115.4 -129.4 L-117.65 -134.75 -115.4 -129.4 M-132.3 -154.9 L-132.3 -155.25 -132.3 -154.9 -132.15 -155.25 -132.3 -154.9 -130.4 -149.25 -132.3 -154.9" fill="#ffffff" fill-rule="evenodd" stroke="none"/>
    <path d="M44.95 -75.9 L40.2 -87.9 40.2 -88.0 35.85 -104.25 Q33.2 -115.3 43.1 -104.25 L48.1 -99.25 52.35 -96.15 57.1 -94.25 Q61.4 -95.35 61.95 -96.15 L66.2 -100.0 69.45 -104.25 Q78.8 -117.55 79.2 -104.25 L80.2 -96.15 81.7 -89.25 84.2 -85.5 88.1 -84.4 94.1 -85.0 Q105.05 -88.15 105.35 -87.65 109.85 -88.7 106.85 -83.0 L96.1 -71.75 90.35 -66.5 77.95 -58.9 66.35 -50.65 62.7 -47.4 56.95 -40.5 55.1 -39.25 53.95 -38.65 52.2 -38.65 50.85 -39.25 Q49.6 -39.3 47.85 -42.25 L44.35 -55.5 43.85 -56.9 42.2 -61.75 39.45 -67.65 38.95 -70.15 39.1 -71.75 Q40.4 -76.95 44.95 -75.9 L49.2 -63.65 51.1 -55.5 51.35 -53.0 51.2 -51.5 51.05 -51.4 51.1 -50.75 50.45 -49.75 51.1 -50.75 51.05 -51.4 51.2 -51.5 51.35 -53.0 51.1 -55.5 49.2 -63.65 44.95 -75.9 M50.6 -51.15 L51.05 -51.4 50.6 -51.15 M-33.0 -48.65 L-32.55 -44.5 Q-32.3 -41.4 -33.05 -39.25 -34.6 -35.45 -38.4 -35.9 L-40.55 -37.0 -42.65 -39.25 Q-45.25 -42.2 -48.05 -43.9 L-73.15 -57.65 -86.15 -68.5 -88.9 -71.75 -90.4 -74.15 -90.15 -75.65 -89.05 -76.15 Q-86.35 -76.55 -75.4 -73.9 L-69.4 -73.65 -65.9 -74.75 Q-62.5 -79.95 -63.3 -79.9 L-62.4 -83.9 -61.4 -96.15 -60.65 -99.15 -59.05 -100.0 -58.05 -100.0 -56.4 -98.9 -48.3 -89.65 -46.4 -88.0 Q-39.55 -79.5 -30.65 -88.0 L-30.15 -88.4 -22.05 -96.15 Q-15.25 -102.4 -16.65 -96.15 L-18.15 -88.0 -22.9 -71.75 -26.55 -64.0 -26.9 -63.65 -29.55 -57.9 -33.05 -49.25 -33.0 -48.65 -33.55 -47.4 -34.0 -44.25 -33.55 -47.4 -33.0 -48.65" fill="#fa410f" fill-rule="evenodd" stroke="none"/>
    <path d="M141.7 -161.15 Q142.6 -160.9 143.95 -157.65 L147.35 -141.75 147.45 -141.75 Q152.15 -164.85 156.6 -174.65 161.6 -187.7 167.1 -185.5 170.9 -182.8 169.45 -157.5 L166.1 -130.25 Q165.35 -123.15 159.6 -108.5 145.75 -79.85 109.2 -67.9 115.0 -48.5 99.1 -13.65 L88.95 4.1 78.95 18.0 62.95 36.85 Q47.25 52.75 40.35 57.6 49.35 67.55 38.35 80.25 L35.85 81.85 30.35 84.1 23.7 85.5 2.95 88.35 Q-29.5 85.8 -35.15 80.5 L-38.65 77.0 Q-41.1 73.2 -41.3 70.0 -42.75 62.15 -37.4 57.6 -44.85 52.2 -60.05 36.85 L-75.9 18.1 -85.4 5.1 Q-98.5 -16.95 -98.8 -19.25 L-98.9 -19.4 -99.55 -21.65 -99.65 -21.75 -99.65 -22.0 -99.8 -22.15 -99.8 -22.4 -99.9 -22.5 -100.3 -24.0 -100.4 -24.15 -100.4 -24.4 -100.55 -24.5 -100.55 -24.75 -100.65 -24.9 -100.65 -25.15 -100.8 -25.25 -100.8 -25.5 -100.9 -25.65 -100.9 -25.9 -101.05 -26.0 -101.05 -26.4 -101.15 -26.5 -101.15 -26.75 -101.3 -26.9 -101.3 -27.15 -101.4 -27.25 -101.4 -27.5 -101.55 -27.65 -101.8 -28.75 -101.9 -28.9 -106.65 -44.9 -107.55 -52.4 -107.15 -60.75 -105.55 -74.9 Q-132.3 -92.55 -147.55 -129.15 -153.85 -146.3 -151.4 -184.4 -149.3 -210.5 -140.65 -193.65 -137.35 -191.6 -132.3 -155.25 L-132.15 -155.25 Q-124.8 -176.6 -120.4 -161.15 -119.4 -162.8 -118.9 -140.4 L-117.65 -134.75 -117.55 -134.75 Q-112.4 -149.0 -107.3 -136.75 -102.05 -116.15 -94.8 -106.0 -69.3 -145.0 -36.3 -163.0 -26.8 -168.5 -14.8 -171.0 L1.2 -173.0 17.45 -171.0 23.85 -169.25 Q44.15 -164.45 70.2 -139.9 88.85 -123.4 99.95 -100.4 L103.45 -104.15 Q113.4 -120.35 119.6 -138.75 124.65 -143.55 126.45 -136.75 L129.1 -126.5 129.2 -126.5 129.45 -126.5 Q131.1 -130.9 134.7 -155.75 136.7 -163.6 141.7 -161.15 M147.45 -141.75 L147.35 -141.5 146.95 -139.75 144.95 -135.15 M147.35 -141.5 L147.35 -141.75 M129.2 -126.5 L129.1 -125.25 126.95 -121.15 M44.95 -75.9 Q40.4 -76.95 39.1 -71.75 L38.95 -70.15 39.45 -67.65 42.2 -61.75 43.85 -56.9 44.35 -55.5 47.85 -42.25 Q49.6 -39.3 50.85 -39.25 L52.2 -38.65 53.95 -38.65 55.1 -39.25 56.95 -40.5 62.7 -47.4 66.35 -50.65 77.95 -58.9 90.35 -66.5 96.1 -71.75 106.85 -83.0 Q109.85 -88.7 105.35 -87.65 105.05 -88.15 94.1 -85.0 L88.1 -84.4 84.2 -85.5 81.7 -89.25 80.2 -96.15 79.2 -104.25 Q78.8 -117.55 69.45 -104.25 L66.2 -100.0 61.95 -96.15 Q61.4 -95.35 57.1 -94.25 L52.35 -96.15 48.1 -99.25 43.1 -104.25 Q33.2 -115.3 35.85 -104.25 L40.2 -88.0 40.2 -87.9 44.95 -75.9 49.2 -63.65 51.1 -55.5 51.35 -53.0 51.2 -51.5 51.05 -51.4 51.1 -50.75 50.45 -49.75 M51.05 -51.4 L50.6 -51.15 M40.2 -87.9 L32.45 -88.4 31.45 -88.0 Q30.1 -88.35 29.2 -84.9 L29.95 -71.75 29.35 -63.65 Q27.85 -55.55 43.85 -56.9 M106.85 -83.0 L107.6 -79.9 109.2 -67.9 M99.95 -100.4 L105.35 -87.65 M40.35 57.6 Q40.75 54.35 10.95 55.6 L10.2 55.55 12.85 61.1 13.6 70.0 M10.2 55.55 L10.1 55.5 Q8.75 52.9 5.7 51.1 L2.2 50.25 Q-3.1 49.35 -7.15 55.5 L-7.3 55.5 -8.8 58.25 -10.15 62.0 -10.65 71.0 M-33.0 -48.65 L-33.05 -49.25 -29.55 -57.9 -26.9 -63.65 -26.55 -64.0 -22.9 -71.75 -18.15 -88.0 -16.65 -96.15 Q-15.25 -102.4 -22.05 -96.15 L-30.15 -88.4 -30.65 -88.0 Q-39.55 -79.5 -46.4 -88.0 L-48.3 -89.65 -56.4 -98.9 -58.05 -100.0 -59.05 -100.0 -60.65 -99.15 -61.4 -96.15 -62.4 -83.9 -63.3 -79.9 Q-62.5 -79.95 -65.9 -74.75 L-69.4 -73.65 -75.4 -73.9 Q-86.35 -76.55 -89.05 -76.15 L-90.15 -75.65 -90.4 -74.15 -88.9 -71.75 -86.15 -68.5 -73.15 -57.65 -48.05 -43.9 Q-45.25 -42.2 -42.65 -39.25 L-40.55 -37.0 -38.4 -35.9 Q-34.6 -35.45 -33.05 -39.25 -32.3 -41.4 -32.55 -44.5 L-33.0 -48.65 -33.55 -47.4 -34.0 -44.25 M-132.15 -155.25 L-132.3 -154.9 -130.4 -149.25 M-132.3 -155.25 L-132.3 -154.9 M-117.65 -134.75 L-115.4 -129.4 M-105.55 -74.9 L-103.65 -84.65 -95.4 -104.25 -94.8 -106.0 M-29.55 -57.9 L-27.15 -59.4 Q-26.05 -61.25 -26.4 -63.65 L-26.55 -64.0 M-30.15 -88.4 L-42.4 -87.65 -46.05 -88.0 -46.4 -88.0 M-7.3 55.5 L-12.4 55.85 -30.3 55.5 -33.9 56.0 -37.4 57.6" fill="none" stroke="#000000" stroke-linecap="round" stroke-linejoin="round" stroke-width="2.15"/>
  </g>
</svg>
