<?xml version="1.0" encoding="UTF-8" standalone="no"?>
<svg xmlns:xlink="http://www.w3.org/1999/xlink" height="353.65px" width="360.9px" xmlns="http://www.w3.org/2000/svg">
  <g transform="matrix(1.0, 0.0, 0.0, 1.0, 171.2, 247.55)">
    <path d="M-6.05 -218.4 L-2.05 -232.5 0.45 -244.9 1.35 -246.5 1.85 -246.25 3.1 -242.4 5.6 -229.75 8.95 -218.4 1.6 -219.4 -6.05 -218.4 M104.2 -48.9 Q109.25 -49.4 101.1 -40.4 L86.45 -27.0 70.45 -14.9 65.7 -10.75 62.2 -6.75 56.85 0.85 56.1 1.35 Q54.2 3.25 51.85 2.6 L49.85 1.35 Q47.9 -0.35 47.7 -1.75 L47.1 -6.75 47.45 -24.5 47.45 -25.0 42.6 -38.15 39.6 -47.5 42.6 -38.15 41.1 -39.25 Q37.15 -43.95 39.45 -47.4 L39.6 -47.5 39.6 -47.65 36.45 -60.65 36.1 -63.65 Q35.05 -70.65 42.1 -63.65 L45.35 -60.65 48.1 -58.15 52.6 -55.0 56.6 -53.9 57.1 -54.15 61.35 -56.0 65.6 -59.9 68.85 -63.65 Q79.75 -77.4 78.95 -63.65 L79.45 -55.5 80.45 -50.15 82.2 -47.4 Q82.9 -44.4 94.85 -47.4 L100.95 -48.75 104.2 -48.9 M50.6 -9.4 L50.85 -12.15 50.35 -14.9 48.1 -23.0 47.45 -24.5 48.1 -23.0 50.35 -14.9 50.85 -12.15 50.6 -9.4 M-31.55 -12.15 L-30.55 -3.65 -30.65 1.35 Q-32.25 9.0 -37.05 7.6 L-39.3 6.1 -47.65 -2.9 -59.8 -11.75 -68.9 -17.25 -82.05 -27.0 -86.4 -31.15 Q-92.35 -37.2 -88.55 -37.5 L-85.15 -37.65 Q-75.65 -35.6 -69.15 -35.75 L-65.8 -36.9 -63.9 -40.15 -63.05 -44.4 -62.4 -55.5 Q-62.25 -60.25 -59.3 -59.5 L-57.55 -58.65 -54.3 -55.5 -48.65 -49.65 -43.65 -45.9 -43.3 -45.9 -39.55 -44.65 -35.3 -46.25 -39.55 -44.65 -43.3 -45.9 -42.05 -47.4 -40.3 -48.25 -38.15 -48.25 -36.3 -47.4 -35.3 -46.25 -35.15 -46.25 -30.4 -49.4 -25.8 -53.65 -25.8 -53.75 -25.65 -53.75 -23.65 -55.5 Q-17.45 -60.05 -18.65 -55.5 L-20.05 -47.4 -26.4 -26.9 -26.8 -26.25 -31.65 -12.65 -31.55 -12.15 -33.05 -6.75 -33.05 -3.0 -33.05 -6.75 -31.55 -12.15 M-25.8 -53.65 L-25.65 -53.75 -25.8 -53.65" fill="#fa410f" fill-rule="evenodd" stroke="none"/>
    <path d="M-6.05 -218.4 L1.6 -219.4 8.95 -218.4 Q29.65 -217.65 56.6 -195.9 L71.85 -181.4 Q89.7 -160.4 92.1 -152.4 107.35 -152.9 114.6 -156.9 123.35 -163.75 130.1 -176.65 L132.35 -178.0 134.35 -177.4 135.45 -176.15 136.7 -173.0 137.2 -170.4 138.1 -157.25 138.7 -154.65 139.1 -154.4 139.2 -154.4 Q148.6 -182.15 151.45 -182.4 157.45 -184.65 158.45 -177.4 L159.1 -172.65 158.95 -157.0 159.2 -154.4 159.85 -152.65 159.95 -152.65 Q168.15 -170.95 176.1 -178.5 186.95 -187.35 188.35 -177.4 190.1 -169.85 181.85 -145.5 171.85 -119.7 162.85 -113.15 140.35 -100.35 104.85 -118.75 112.65 -88.45 104.2 -48.9 L100.95 -48.75 94.85 -47.4 Q82.9 -44.4 82.2 -47.4 L80.45 -50.15 79.45 -55.5 78.95 -63.65 Q79.75 -77.4 68.85 -63.65 L65.6 -59.9 61.35 -56.0 57.1 -54.15 56.6 -53.9 52.6 -55.0 48.1 -58.15 45.35 -60.65 Q57.45 -61.7 57.1 -55.5 L57.1 -54.15 57.1 -55.5 Q57.45 -61.7 45.35 -60.65 L42.1 -63.65 Q35.05 -70.65 36.1 -63.65 L36.45 -60.65 39.6 -47.65 39.6 -47.5 39.45 -47.4 Q37.15 -43.95 41.1 -39.25 L42.6 -38.15 47.45 -25.0 47.45 -24.5 47.1 -6.75 47.7 -1.75 Q47.9 -0.35 49.85 1.35 L51.85 2.6 Q54.2 3.25 56.1 1.35 L56.85 0.85 62.2 -6.75 65.7 -10.75 70.45 -14.9 86.45 -27.0 101.1 -40.4 93.2 -22.5 Q74.6 7.55 70.95 11.85 39.2 50.85 9.95 71.85 45.7 74.8 40.95 94.5 L39.45 98.85 Q37.9 101.6 34.1 103.35 L28.95 104.35 Q27.85 104.9 14.7 101.75 L11.85 101.85 Q6.2 102.8 4.6 104.5 L1.95 105.0 Q-0.8 105.35 -7.05 102.25 L-11.8 101.75 -21.65 104.0 -26.8 104.35 Q-36.35 102.7 -37.65 96.1 -44.25 75.0 -7.05 71.85 -16.3 66.95 -48.55 34.6 L-68.05 11.85 Q-73.55 4.8 -90.55 -23.0 -113.8 -63.8 -101.55 -121.0 -132.85 -110.85 -153.9 -137.9 L-156.55 -142.65 Q-160.4 -151.4 -161.8 -157.15 L-166.3 -177.5 Q-168.5 -188.45 -169.4 -198.15 L-170.15 -209.0 Q-170.3 -216.0 -169.4 -218.5 -166.95 -225.75 -160.9 -218.0 -155.1 -213.9 -145.55 -178.75 L-145.4 -178.75 -144.4 -185.9 -143.65 -195.5 -142.15 -202.65 Q-139.0 -209.85 -134.55 -201.75 L-132.3 -195.15 Q-128.0 -170.2 -127.4 -171.0 L-127.3 -171.0 Q-124.15 -200.25 -116.55 -185.5 -108.55 -157.05 -88.55 -154.0 -86.6 -160.35 -68.9 -181.4 L-53.3 -196.25 Q-27.4 -217.2 -6.05 -218.4 M157.45 -148.15 L159.85 -152.5 159.85 -152.65 159.85 -152.5 159.95 -152.65 159.85 -152.5 157.45 -148.15 M104.85 -118.75 L104.6 -120.5 100.85 -133.15 92.1 -152.4 100.85 -133.15 104.6 -120.5 104.85 -118.75 M139.1 -154.4 L139.2 -154.3 139.2 -154.25 139.2 -154.4 139.2 -154.25 139.2 -154.3 137.6 -151.4 139.2 -154.3 139.1 -154.4 M36.45 -60.65 Q30.35 -61.95 28.7 -55.5 L29.35 -43.65 28.6 -31.15 Q28.2 -29.35 29.35 -26.25 L31.35 -25.0 41.2 -25.4 47.45 -25.0 41.2 -25.4 31.35 -25.0 29.35 -26.25 Q28.2 -29.35 28.6 -31.15 L29.35 -43.65 28.7 -55.5 Q30.35 -61.95 36.45 -60.65 M-127.3 -170.75 L-127.4 -171.0 -127.3 -170.75 -127.3 -171.0 -127.3 -170.75 -126.15 -167.15 -124.65 -164.9 -126.15 -167.15 -127.3 -170.75 M-145.5 -178.55 L-145.4 -178.75 -145.5 -178.55 -143.9 -173.75 -142.4 -171.0 -143.9 -173.75 -145.5 -178.55 -145.55 -178.5 -145.55 -178.75 -145.55 -178.5 -145.5 -178.55 M-88.55 -154.0 L-88.9 -153.0 -97.9 -133.15 -101.55 -121.0 -97.9 -133.15 -88.9 -153.0 -88.55 -154.0 M-43.3 -45.9 L-43.65 -45.9 -48.65 -49.65 -54.3 -55.5 -57.55 -58.65 -59.3 -59.5 Q-62.25 -60.25 -62.4 -55.5 L-63.05 -44.4 -63.9 -40.15 -65.8 -36.9 -69.15 -35.75 Q-75.65 -35.6 -85.15 -37.65 L-88.55 -37.5 Q-92.35 -37.2 -86.4 -31.15 L-82.05 -27.0 -68.9 -17.25 -59.8 -11.75 -47.65 -2.9 -39.3 6.1 -37.05 7.6 Q-32.25 9.0 -30.65 1.35 L-30.55 -3.65 -31.55 -12.15 -31.65 -12.65 -26.8 -26.25 -26.4 -26.9 -20.05 -47.4 -18.65 -55.5 Q-17.45 -60.05 -23.65 -55.5 L-25.65 -53.75 -25.8 -53.75 -25.8 -53.65 -30.4 -49.4 -35.15 -46.25 -35.3 -46.25 -36.3 -47.4 -38.15 -48.25 -40.3 -48.25 -42.05 -47.4 -43.3 -45.9 M-54.3 -55.5 L-53.4 -58.4 -50.55 -60.0 -47.55 -60.5 -31.65 -60.65 Q-27.4 -59.95 -26.65 -58.5 L-25.8 -55.5 -25.8 -53.75 -25.8 -55.5 -26.65 -58.5 Q-27.4 -59.95 -31.65 -60.65 L-47.55 -60.5 -50.55 -60.0 -53.4 -58.4 -54.3 -55.5 M7.95 71.85 L9.95 71.85 7.95 71.85 -5.05 71.85 -3.15 70.75 -5.05 71.85 7.95 71.85 6.1 70.75 7.95 71.85 M-2.4 69.6 L1.6 69.0 5.35 69.6 1.6 69.0 -2.4 69.6 M-7.05 71.85 L-5.05 71.85 -7.05 71.85 M12.35 95.25 L12.7 90.75 12.2 86.1 11.1 82.6 Q10.25 80.45 6.7 77.85 L2.6 76.35 Q-3.3 75.25 -8.15 82.6 L-9.4 86.6 -9.8 90.75 -9.4 95.25 -9.8 90.75 -9.4 86.6 -8.15 82.6 Q-3.3 75.25 2.6 76.35 L6.7 77.85 Q10.25 80.45 11.1 82.6 L12.2 86.1 12.7 90.75 12.35 95.25 M-26.4 -26.9 L-26.4 -26.25 -26.8 -26.25 -26.4 -26.25 -26.4 -26.9" fill="#ffffff" fill-rule="evenodd" stroke="none"/>
    <path d="M8.95 -218.4 L5.6 -229.75 3.1 -242.4 1.85 -246.25 1.35 -246.5 0.45 -244.9 -2.05 -232.5 -6.05 -218.4 1.6 -219.4 8.95 -218.4 Q29.65 -217.65 56.6 -195.9 L71.85 -181.4 Q89.7 -160.4 92.1 -152.4 107.35 -152.9 114.6 -156.9 123.35 -163.75 130.1 -176.65 L132.35 -178.0 134.35 -177.4 135.45 -176.15 136.7 -173.0 137.2 -170.4 138.1 -157.25 138.7 -154.65 139.1 -154.4 139.2 -154.4 Q148.6 -182.15 151.45 -182.4 157.45 -184.65 158.45 -177.4 L159.1 -172.65 158.95 -157.0 159.2 -154.4 159.85 -152.65 159.95 -152.65 Q168.15 -170.95 176.1 -178.5 186.95 -187.35 188.35 -177.4 190.1 -169.85 181.85 -145.5 171.85 -119.7 162.85 -113.15 140.35 -100.35 104.85 -118.75 112.65 -88.45 104.2 -48.9 109.25 -49.4 101.1 -40.4 L93.2 -22.5 Q74.6 7.55 70.95 11.85 39.2 50.85 9.95 71.85 45.7 74.8 40.95 94.5 L39.45 98.85 Q37.9 101.6 34.1 103.35 L28.95 104.35 Q27.85 104.9 14.7 101.75 L11.85 101.85 Q6.2 102.8 4.6 104.5 L1.95 105.0 Q-0.8 105.35 -7.05 102.25 L-11.8 101.75 -21.65 104.0 -26.8 104.35 Q-36.35 102.7 -37.65 96.1 -44.25 75.0 -7.05 71.85 -16.3 66.95 -48.55 34.6 L-68.05 11.85 Q-73.55 4.8 -90.55 -23.0 -113.8 -63.8 -101.55 -121.0 -132.85 -110.85 -153.9 -137.9 L-156.55 -142.65 Q-160.4 -151.4 -161.8 -157.15 L-166.3 -177.5 Q-168.5 -188.45 -169.4 -198.15 L-170.15 -209.0 Q-170.3 -216.0 -169.4 -218.5 -166.95 -225.75 -160.9 -218.0 -155.1 -213.9 -145.55 -178.75 L-145.4 -178.75 -144.4 -185.9 -143.65 -195.5 -142.15 -202.65 Q-139.0 -209.85 -134.55 -201.75 L-132.3 -195.15 Q-128.0 -170.2 -127.4 -171.0 L-127.3 -171.0 Q-124.15 -200.25 -116.55 -185.5 -108.55 -157.05 -88.55 -154.0 -86.6 -160.35 -68.9 -181.4 L-53.3 -196.25 Q-27.4 -217.2 -6.05 -218.4 M139.2 -154.4 L139.2 -154.25 139.2 -154.3 137.6 -151.4 M139.2 -154.3 L139.1 -154.4 M159.85 -152.65 L159.85 -152.5 159.95 -152.65 M92.1 -152.4 L100.85 -133.15 104.6 -120.5 104.85 -118.75 M159.85 -152.5 L157.45 -148.15 M45.35 -60.65 L48.1 -58.15 52.6 -55.0 56.6 -53.9 57.1 -54.15 57.1 -55.5 Q57.45 -61.7 45.35 -60.65 L42.1 -63.65 Q35.05 -70.65 36.1 -63.65 L36.45 -60.65 39.6 -47.65 39.6 -47.5 42.6 -38.15 47.45 -25.0 47.45 -24.5 48.1 -23.0 50.35 -14.9 50.85 -12.15 50.6 -9.4 M57.1 -54.15 L61.35 -56.0 65.6 -59.9 68.85 -63.65 Q79.75 -77.4 78.95 -63.65 L79.45 -55.5 80.45 -50.15 82.2 -47.4 Q82.9 -44.4 94.85 -47.4 L100.95 -48.75 104.2 -48.9 M47.45 -25.0 L41.2 -25.4 31.35 -25.0 29.35 -26.25 Q28.2 -29.35 28.6 -31.15 L29.35 -43.65 28.7 -55.5 Q30.35 -61.95 36.45 -60.65 M42.6 -38.15 L41.1 -39.25 Q37.15 -43.95 39.45 -47.4 L39.6 -47.5 M47.45 -24.5 L47.1 -6.75 47.7 -1.75 Q47.9 -0.35 49.85 1.35 L51.85 2.6 Q54.2 3.25 56.1 1.35 L56.85 0.85 62.2 -6.75 65.7 -10.75 70.45 -14.9 86.45 -27.0 101.1 -40.4 M-101.55 -121.0 L-97.9 -133.15 -88.9 -153.0 -88.55 -154.0 M-142.4 -171.0 L-143.9 -173.75 -145.5 -178.55 -145.55 -178.5 -145.55 -178.75 M-145.4 -178.75 L-145.5 -178.55 M-127.3 -171.0 L-127.3 -170.75 -126.15 -167.15 -124.65 -164.9 M-127.4 -171.0 L-127.3 -170.75 M-43.3 -45.9 L-43.65 -45.9 -48.65 -49.65 -54.3 -55.5 -57.55 -58.65 -59.3 -59.5 Q-62.25 -60.25 -62.4 -55.5 L-63.05 -44.4 -63.9 -40.15 -65.8 -36.9 -69.15 -35.75 Q-75.65 -35.6 -85.15 -37.65 L-88.55 -37.5 Q-92.35 -37.2 -86.4 -31.15 L-82.05 -27.0 -68.9 -17.25 -59.8 -11.75 -47.65 -2.9 -39.3 6.1 -37.05 7.6 Q-32.25 9.0 -30.65 1.35 L-30.55 -3.65 -31.55 -12.15 -33.05 -6.75 -33.05 -3.0 M-31.55 -12.15 L-31.65 -12.65 -26.8 -26.25 -26.4 -26.9 -20.05 -47.4 -18.65 -55.5 Q-17.45 -60.05 -23.65 -55.5 L-25.65 -53.75 -25.8 -53.65 -30.4 -49.4 -35.15 -46.25 -35.3 -46.25 -39.55 -44.65 -43.3 -45.9 -42.05 -47.4 -40.3 -48.25 -38.15 -48.25 -36.3 -47.4 -35.3 -46.25 M-25.8 -53.75 L-25.8 -55.5 -26.65 -58.5 Q-27.4 -59.95 -31.65 -60.65 L-47.55 -60.5 -50.55 -60.0 -53.4 -58.4 -54.3 -55.5 M-25.65 -53.75 L-25.8 -53.75 -25.8 -53.65 M-26.8 -26.25 L-26.4 -26.25 -26.4 -26.9 M-3.15 70.75 L-5.05 71.85 7.95 71.85 6.1 70.75 M-9.4 95.25 L-9.8 90.75 -9.4 86.6 -8.15 82.6 Q-3.3 75.25 2.6 76.35 L6.7 77.85 Q10.25 80.45 11.1 82.6 L12.2 86.1 12.7 90.75 12.35 95.25 M-5.05 71.85 L-7.05 71.85 M5.35 69.6 L1.6 69.0 -2.4 69.6 M9.95 71.85 L7.95 71.85" fill="none" stroke="#000000" stroke-linecap="round" stroke-linejoin="round" stroke-width="2.15"/>
  </g>
</svg>
