<?xml version="1.0" encoding="UTF-8" standalone="no"?>
<svg xmlns:xlink="http://www.w3.org/1999/xlink" height="475.6px" width="382.6px" xmlns="http://www.w3.org/2000/svg">
  <g transform="matrix(1.0, 0.0, 0.0, 1.0, 182.9, 367.45)">
    <path d="M-21.4 -270.15 L-20.4 -274.9 -17.65 -283.0 -12.15 -296.25 -7.8 -315.5 -3.9 -327.25 -0.55 -331.75 0.6 -333.0 1.7 -333.25 3.6 -331.75 6.1 -328.5 Q7.75 -325.95 8.2 -323.65 L12.7 -307.4 15.2 -295.75 20.6 -283.0 23.35 -274.9 24.35 -270.15 17.35 -274.9 Q4.2 -282.65 -14.4 -274.9 L-21.4 -270.15" fill="#fa420e" fill-rule="evenodd" stroke="none"/>
    <path d="M24.35 -270.15 L23.35 -274.9 20.6 -283.0 15.2 -295.75 12.7 -307.4 8.2 -323.65 Q7.75 -325.95 6.1 -328.5 L3.6 -331.75 1.7 -333.25 0.6 -333.0 -0.55 -331.75 -3.9 -327.25 -7.8 -315.5 -12.15 -296.25 -17.65 -283.0 -20.4 -274.9 -21.4 -270.15 -31.65 -261.75 -31.3 -264.5 -24.15 -283.0 -21.8 -290.65 -19.15 -299.25 -19.05 -300.0 -7.4 -333.5 -2.8 -350.15 -0.05 -363.4 Q1.35 -368.95 2.7 -364.25 5.9 -348.2 8.35 -339.9 L21.95 -300.0 22.1 -299.25 24.6 -291.15 24.7 -290.7 24.7 -290.65 29.95 -274.9 33.95 -265.4 34.6 -261.75 28.9 -266.55 28.7 -266.75 28.65 -266.8 24.35 -270.15 M63.2 7.5 L63.35 7.5 Q71.35 1.8 72.35 1.85 L74.85 2.1 75.85 3.6 Q75.7 13.95 76.6 14.35 L77.85 15.85 87.6 16.0 98.95 15.35 Q102.65 15.45 99.1 19.6 75.85 35.8 64.6 40.25 L54.7 47.6 Q52.75 49.25 51.1 49.35 48.7 49.9 46.85 48.75 L44.45 45.85 Q42.55 43.35 44.3 33.35 L44.35 33.0 41.85 28.35 41.7 28.35 41.7 28.25 41.85 28.35 41.7 28.25 39.35 23.25 36.5 14.3 35.1 9.5 Q32.65 1.95 45.45 9.5 L49.35 11.1 49.95 11.1 49.95 10.5 47.95 9.5 41.45 4.25 Q39.65 2.9 39.1 1.35 36.5 -2.85 40.2 -6.75 L42.85 -7.9 45.95 -6.75 47.45 -5.65 54.45 2.65 55.85 4.5 Q57.15 6.45 57.7 9.5 L57.7 10.6 63.2 7.6 63.2 7.5 M-28.3 38.0 L-30.65 42.85 -30.65 43.75 Q-30.9 49.5 -31.8 52.0 L-33.9 54.85 Q-35.9 56.35 -37.9 55.85 -52.1 46.45 -79.05 33.6 L-85.3 29.6 -87.15 27.35 -87.15 26.5 -85.8 25.5 -82.8 25.0 -67.9 25.0 -63.65 24.35 -61.8 22.25 Q-60.65 10.6 -60.05 12.0 L-58.55 11.35 -56.4 11.6 -56.3 11.75 -46.1 17.2 -46.05 17.25 -46.45 15.05 Q-47.05 11.65 -46.9 9.5 L-43.3 -4.4 -41.15 -6.75 -39.65 -7.4 -37.65 -7.4 -36.3 -6.75 Q-33.15 -5.35 -34.55 1.35 L-35.55 4.1 -38.9 9.5 -38.55 13.35 -38.45 13.65 -37.05 19.25 -39.55 19.85 -46.05 17.25 -39.55 19.85 -37.05 19.25 Q-33.75 18.8 -31.65 17.6 -31.85 18.25 -22.8 13.85 L-19.8 13.35 -18.8 14.6 -19.3 17.6 -22.4 25.75 -28.3 38.0 M63.35 7.5 L63.2 7.6 63.35 7.5 M49.95 11.1 L54.45 12.0 57.7 10.6 54.45 12.0 49.95 11.1 M49.95 10.5 L49.85 9.85 49.95 10.5 M44.3 33.35 L44.7 33.85 46.35 38.35 46.6 41.0 46.35 38.35 44.7 33.85 44.3 33.35 M-32.65 49.6 L-32.4 47.85 -30.65 43.75 -32.4 47.85 -32.65 49.6" fill="#fa410f" fill-rule="evenodd" stroke="none"/>
    <path d="M24.7 -290.7 L24.6 -291.15 22.1 -299.25 21.95 -300.0 Q54.4 -292.65 50.1 -285.25 L51.1 -284.4 51.1 -283.25 42.2 -247.9 40.7 -254.0 46.85 -283.5 41.6 -283.75 32.1 -285.75 29.7 -288.25 Q24.7 -291.2 24.7 -290.7 M-19.05 -300.0 L-19.15 -299.25 -21.8 -290.65 -26.3 -288.5 -29.05 -285.75 -36.55 -284.15 Q-41.6 -283.2 -43.9 -283.5 L-37.9 -254.0 -39.3 -247.9 -47.65 -280.9 Q-48.9 -285.7 -47.15 -285.25 -51.5 -292.65 -19.05 -300.0 M39.6 -235.25 L39.35 -232.25 38.6 -232.75 39.1 -234.25 39.6 -235.25 M-36.4 -232.25 L-36.65 -235.25 -35.65 -232.9 -35.7 -232.8 -36.4 -232.25 M50.1 -285.25 L47.2 -284.65 46.85 -283.5 47.2 -284.65 50.1 -285.25 M-47.15 -285.25 L-44.3 -284.65 -43.9 -283.5 -44.3 -284.65 -47.15 -285.25" fill="#43396f" fill-rule="evenodd" stroke="none"/>
    <path d="M-21.4 -270.15 L-14.4 -274.9 Q4.2 -282.65 17.35 -274.9 L24.35 -270.15 28.65 -266.8 28.7 -266.75 28.9 -266.55 34.6 -261.75 35.35 -261.0 37.85 -258.5 40.7 -254.0 42.2 -247.9 41.35 -240.75 39.6 -235.25 39.1 -234.25 38.6 -232.75 39.35 -232.25 Q56.85 -220.55 75.35 -199.75 76.7 -204.45 137.0 -162.95 L137.1 -162.9 141.1 -163.0 142.7 -162.15 Q146.65 -159.55 145.85 -150.9 L148.35 -147.9 Q151.35 -145.6 152.7 -145.1 L153.2 -145.0 153.35 -145.0 Q163.25 -148.05 165.95 -144.0 167.35 -142.85 168.2 -140.4 L168.85 -137.4 Q169.45 -133.75 166.6 -128.65 L168.6 -125.65 172.2 -123.0 Q193.1 -120.7 197.95 -110.15 201.45 -102.1 186.95 -96.25 183.2 -94.95 177.95 -94.4 L169.7 -94.25 166.7 -94.75 161.2 -96.5 Q157.25 -98.3 153.1 -101.5 L137.2 -115.25 Q129.9 -121.8 103.85 -150.75 L96.35 -157.65 Q114.25 -99.1 104.95 -61.25 L101.7 -49.15 Q97.95 -38.0 94.7 -32.4 72.45 -1.1 63.2 7.5 L63.2 7.6 57.7 10.6 57.7 9.5 Q57.15 6.45 55.85 4.5 L54.45 2.65 47.45 -5.65 45.95 -6.75 42.85 -7.9 40.2 -6.75 Q36.5 -2.85 39.1 1.35 39.65 2.9 41.45 4.25 L47.95 9.5 49.95 10.5 49.95 11.1 49.35 11.1 45.45 9.5 Q32.65 1.95 35.1 9.5 L36.5 14.3 30.95 15.25 28.6 14.5 27.6 12.0 28.2 -4.15 27.85 -6.75 Q27.65 -9.85 29.2 -11.65 L33.6 -15.0 33.85 -15.0 33.6 -15.0 29.2 -11.65 Q27.65 -9.85 27.85 -6.75 L28.2 -4.15 27.6 12.0 28.6 14.5 30.95 15.25 36.5 14.3 39.35 23.25 41.7 28.25 41.7 28.35 27.6 41.1 Q14.75 52.05 6.7 57.25 2.95 58.55 25.7 71.6 L32.35 77.75 Q39.25 85.1 38.45 97.5 L37.6 100.75 34.7 103.35 Q31.4 104.8 26.85 103.0 L22.95 100.5 Q17.35 93.85 13.2 90.75 L12.2 90.35 Q11.85 100.15 9.95 102.25 7.5 107.05 1.85 107.1 -9.75 106.8 -9.05 90.75 L-9.15 90.4 -9.15 90.35 -11.15 91.1 -19.65 100.1 -23.9 103.0 Q-33.3 105.1 -34.65 100.75 L-35.55 97.75 -35.55 92.25 -34.55 86.75 Q-33.25 82.3 -30.15 78.6 L-22.65 71.5 Q-21.55 70.05 -5.9 60.85 L-4.3 59.25 -3.65 57.6 -14.55 49.5 -28.3 38.0 -22.4 25.75 -19.3 17.6 -18.8 14.6 -19.8 13.35 -22.8 13.85 Q-31.85 18.25 -31.65 17.6 -33.75 18.8 -37.05 19.25 L-38.45 13.65 -38.55 13.35 -38.9 9.5 -35.55 4.1 -34.55 1.35 Q-33.15 -5.35 -36.3 -6.75 L-37.65 -7.4 -39.65 -7.4 -41.15 -6.75 -43.3 -4.4 -46.9 9.5 Q-47.05 11.65 -46.45 15.05 -52.75 16.65 -51.8 9.5 L-51.4 1.35 -51.8 -4.0 -52.4 -6.75 Q-52.75 -12.45 -47.8 -14.9 L-45.9 -16.0 -45.4 -16.65 -45.9 -16.0 -47.8 -14.9 Q-52.75 -12.45 -52.4 -6.75 L-51.8 -4.0 -51.4 1.35 -51.8 9.5 Q-52.75 16.65 -46.45 15.05 L-46.05 17.25 -46.1 17.2 -56.3 11.75 -56.4 11.6 Q-69.85 -1.15 -91.55 -31.9 L-95.15 -39.4 Q-98.75 -48.05 -101.55 -59.15 L-104.05 -74.15 Q-105.55 -87.65 -104.55 -103.15 L-102.9 -118.5 Q-99.15 -139.25 -95.9 -149.5 -129.65 -106.7 -150.9 -102.65 -167.6 -102.85 -181.55 -135.75 -184.35 -158.2 -160.9 -144.9 -159.5 -144.15 -155.8 -139.4 L-155.4 -139.9 -153.9 -142.9 -153.15 -146.25 Q-155.15 -163.25 -151.65 -166.75 -148.1 -170.1 -145.3 -167.65 L-143.3 -165.4 -137.15 -155.15 Q-135.5 -156.5 -134.05 -159.9 L-133.9 -159.9 -133.9 -160.5 -133.8 -160.75 Q-134.25 -174.15 -129.9 -177.0 L-127.55 -177.15 -122.05 -171.9 -116.05 -174.0 -115.9 -174.15 Q-110.5 -176.7 -103.3 -181.5 L-84.9 -193.75 -77.65 -197.5 -73.3 -199.0 Q-53.5 -220.9 -36.4 -232.25 L-35.7 -232.8 -28.15 -237.4 -15.3 -244.0 -14.75 -244.6 -14.8 -244.5 -14.3 -244.9 -14.8 -244.5 -14.75 -244.6 -15.3 -244.0 -28.15 -237.4 -35.7 -232.8 -35.65 -232.9 -36.65 -235.25 -36.8 -235.65 -36.8 -235.9 -36.9 -236.0 -38.4 -241.0 -39.15 -247.0 -39.3 -247.15 -39.3 -247.9 -37.9 -254.0 -35.05 -258.4 -32.4 -261.0 -32.4 -261.15 -32.3 -261.15 -31.65 -261.75 -21.4 -270.15 M28.65 -266.8 L28.9 -266.55 28.65 -266.8 M38.6 -232.75 L31.1 -237.4 18.45 -243.75 18.1 -244.3 17.7 -244.5 17.6 -245.0 17.7 -244.5 18.1 -244.3 18.45 -243.75 31.1 -237.4 38.6 -232.75 M96.35 -157.65 L90.1 -177.4 84.35 -188.65 78.1 -196.9 75.35 -199.75 78.1 -196.9 84.35 -188.65 90.1 -177.4 96.35 -157.65 M144.95 -148.9 L145.45 -151.4 144.95 -148.9 M136.35 -162.9 L137.0 -162.95 136.35 -162.9 M17.2 -244.9 L17.7 -244.5 17.2 -244.9 M165.95 -127.5 L166.6 -128.65 165.95 -127.5 M173.45 -122.15 L174.1 -122.15 173.45 -122.15 M48.2 -16.65 L50.7 -14.9 51.7 -14.0 Q56.1 -10.9 55.35 -6.75 L55.1 -5.9 54.35 -1.4 54.45 2.65 54.35 -1.4 55.1 -5.9 55.35 -6.75 Q56.1 -10.9 51.7 -14.0 L50.7 -14.9 48.2 -16.65 M-2.15 57.75 L2.35 57.35 5.1 57.75 2.35 57.35 -2.15 57.75 M12.2 90.35 L11.95 88.35 12.2 90.35 M-32.4 -261.0 L-32.3 -261.15 -32.4 -261.0 M-14.75 -244.6 L-14.65 -245.0 -14.75 -244.6 M-121.4 -171.4 L-122.05 -171.9 -121.4 -171.4 M-153.55 -136.75 L-155.8 -139.4 -153.55 -136.75 M-135.15 -151.9 L-137.15 -155.15 -135.15 -151.9 M-133.9 -159.9 L-134.05 -159.4 -134.05 -159.9 -134.05 -159.4 -133.9 -159.9 M-95.9 -149.5 L-87.15 -177.4 -81.65 -188.4 -73.3 -199.0 -81.65 -188.4 -87.15 -177.4 -95.9 -149.5 M-30.9 -15.0 L-30.65 -15.0 -28.4 -13.25 Q-24.5 -10.8 -24.9 -6.75 L-25.4 -2.4 -24.65 9.5 Q-24.5 15.6 -27.55 15.25 L-38.45 13.65 -27.55 15.25 Q-24.5 15.6 -24.65 9.5 L-25.4 -2.4 -24.9 -6.75 Q-24.5 -10.8 -28.4 -13.25 L-30.65 -15.0 -30.9 -15.0 M-9.15 90.35 L-9.05 88.35 -9.15 90.35 M-46.05 17.25 L-46.1 17.2 -46.05 17.25" fill="#ffffff" fill-rule="evenodd" stroke="none"/>
    <path d="M34.6 -261.75 L33.95 -265.4 29.95 -274.9 24.7 -290.65 24.7 -290.7 Q24.7 -291.2 29.7 -288.25 L32.1 -285.75 Q40.2 -277.65 35.35 -261.0 L34.6 -261.75 M-21.8 -290.65 L-24.15 -283.0 -31.3 -264.5 -31.65 -261.75 -32.3 -261.15 -32.4 -261.15 Q-36.85 -278.35 -29.05 -285.75 L-26.3 -288.5 -21.8 -290.65" fill="#ff7a16" fill-rule="evenodd" stroke="none"/>
    <path d="M24.35 -270.15 L23.35 -274.9 20.6 -283.0 15.2 -295.75 12.7 -307.4 8.2 -323.65 Q7.75 -325.95 6.1 -328.5 L3.6 -331.75 1.7 -333.25 0.6 -333.0 -0.55 -331.75 -3.9 -327.25 -7.8 -315.5 -12.15 -296.25 -17.65 -283.0 -20.4 -274.9 -21.4 -270.15 -14.4 -274.9 Q4.2 -282.65 17.35 -274.9 L24.35 -270.15 28.65 -266.8 28.7 -266.75 28.9 -266.55 34.6 -261.75 33.95 -265.4 29.95 -274.9 24.7 -290.65 24.7 -290.7 24.6 -291.15 22.1 -299.25 21.95 -300.0 8.35 -339.9 Q5.9 -348.2 2.7 -364.25 1.35 -368.95 -0.05 -363.4 L-2.8 -350.15 -7.4 -333.5 -19.05 -300.0 -19.15 -299.25 -21.8 -290.65 -24.15 -283.0 -31.3 -264.5 -31.65 -261.75 -21.4 -270.15 M21.95 -300.0 Q54.4 -292.65 50.1 -285.25 L51.1 -284.4 51.1 -283.25 42.2 -247.9 41.35 -240.75 39.6 -235.25 39.35 -232.25 Q56.85 -220.55 75.35 -199.75 76.7 -204.45 137.0 -162.95 L137.1 -162.9 141.1 -163.0 142.7 -162.15 Q146.65 -159.55 145.85 -150.9 L148.35 -147.9 Q151.35 -145.6 152.7 -145.1 L153.2 -145.0 153.35 -145.0 Q163.25 -148.05 165.95 -144.0 167.35 -142.85 168.2 -140.4 L168.85 -137.4 Q169.45 -133.75 166.6 -128.65 L168.6 -125.65 172.2 -123.0 Q193.1 -120.7 197.95 -110.15 201.45 -102.1 186.95 -96.25 183.2 -94.95 177.95 -94.4 L169.7 -94.25 166.7 -94.75 161.2 -96.5 Q157.25 -98.3 153.1 -101.5 L137.2 -115.25 Q129.9 -121.8 103.85 -150.75 L96.35 -157.65 Q114.25 -99.1 104.95 -61.25 L101.7 -49.15 Q97.95 -38.0 94.7 -32.4 72.45 -1.1 63.2 7.5 L63.35 7.5 Q71.35 1.8 72.35 1.85 L74.85 2.1 75.85 3.6 Q75.7 13.95 76.6 14.35 L77.85 15.85 87.6 16.0 98.95 15.35 Q102.65 15.45 99.1 19.6 75.85 35.8 64.6 40.25 L54.7 47.6 Q52.75 49.25 51.1 49.35 48.7 49.9 46.85 48.75 L44.45 45.85 Q42.55 43.35 44.3 33.35 L44.35 33.0 41.85 28.35 41.7 28.35 27.6 41.1 Q14.75 52.05 6.7 57.25 2.95 58.55 25.7 71.6 L32.35 77.75 Q39.25 85.1 38.45 97.5 L37.6 100.75 34.7 103.35 Q31.4 104.8 26.85 103.0 L22.95 100.5 Q17.35 93.85 13.2 90.75 L12.2 90.35 Q11.85 100.15 9.95 102.25 7.5 107.05 1.85 107.1 -9.75 106.8 -9.05 90.75 L-9.15 90.4 -9.15 90.35 -11.15 91.1 -19.65 100.1 -23.9 103.0 Q-33.3 105.1 -34.65 100.75 L-35.55 97.75 -35.55 92.25 -34.55 86.75 Q-33.25 82.3 -30.15 78.6 L-22.65 71.5 Q-21.55 70.05 -5.9 60.85 L-4.3 59.25 -3.65 57.6 -14.55 49.5 -28.3 38.0 -30.65 42.85 -30.65 43.75 Q-30.9 49.5 -31.8 52.0 L-33.9 54.85 Q-35.9 56.35 -37.9 55.85 -52.1 46.45 -79.05 33.6 L-85.3 29.6 -87.15 27.35 -87.15 26.5 -85.8 25.5 -82.8 25.0 -67.9 25.0 -63.65 24.35 -61.8 22.25 Q-60.65 10.6 -60.05 12.0 L-58.55 11.35 -56.4 11.6 Q-69.85 -1.15 -91.55 -31.9 L-95.15 -39.4 Q-98.75 -48.05 -101.55 -59.15 L-104.05 -74.15 Q-105.55 -87.65 -104.55 -103.15 L-102.9 -118.5 Q-99.15 -139.25 -95.9 -149.5 -129.65 -106.7 -150.9 -102.65 -167.6 -102.85 -181.55 -135.75 -184.35 -158.2 -160.9 -144.9 -159.5 -144.15 -155.8 -139.4 L-155.4 -139.9 -153.9 -142.9 -153.15 -146.25 Q-155.15 -163.25 -151.65 -166.75 -148.1 -170.1 -145.3 -167.65 L-143.3 -165.4 -137.15 -155.15 Q-135.5 -156.5 -134.05 -159.9 L-133.9 -159.9 -133.9 -160.5 -133.8 -160.75 Q-134.25 -174.15 -129.9 -177.0 L-127.55 -177.15 -122.05 -171.9 -116.05 -174.0 -115.9 -174.15 Q-110.5 -176.7 -103.3 -181.5 L-84.9 -193.75 -77.65 -197.5 -73.3 -199.0 Q-53.5 -220.9 -36.4 -232.25 L-36.65 -235.25 -36.8 -235.65 -36.8 -235.9 -36.9 -236.0 -38.4 -241.0 -39.15 -247.0 -39.3 -247.15 -39.3 -247.9 -47.65 -280.9 Q-48.9 -285.7 -47.15 -285.25 -51.5 -292.65 -19.05 -300.0 M40.7 -254.0 L46.85 -283.5 41.6 -283.75 32.1 -285.75 Q40.2 -277.65 35.35 -261.0 L37.85 -258.5 40.7 -254.0 42.2 -247.9 M46.85 -283.5 L47.2 -284.65 50.1 -285.25 M24.7 -290.7 Q24.7 -291.2 29.7 -288.25 L32.1 -285.75 M28.9 -266.55 L28.65 -266.8 M35.35 -261.0 L34.6 -261.75 M17.6 -245.0 L17.7 -244.5 18.1 -244.3 18.45 -243.75 31.1 -237.4 38.6 -232.75 39.1 -234.25 39.6 -235.25 M38.6 -232.75 L39.35 -232.25 M17.7 -244.5 L17.2 -244.9 M137.0 -162.95 L136.35 -162.9 M145.45 -151.4 L144.95 -148.9 M75.35 -199.75 L78.1 -196.9 84.35 -188.65 90.1 -177.4 96.35 -157.65 M33.85 -15.0 L33.6 -15.0 29.2 -11.65 Q27.65 -9.85 27.85 -6.75 L28.2 -4.15 27.6 12.0 28.6 14.5 30.95 15.25 36.5 14.3 35.1 9.5 Q32.65 1.95 45.45 9.5 L49.35 11.1 49.95 11.1 49.95 10.5 47.95 9.5 41.45 4.25 Q39.65 2.9 39.1 1.35 36.5 -2.85 40.2 -6.75 L42.85 -7.9 45.95 -6.75 47.45 -5.65 54.45 2.65 54.35 -1.4 55.1 -5.9 55.35 -6.75 Q56.1 -10.9 51.7 -14.0 L50.7 -14.9 48.2 -16.65 M174.1 -122.15 L173.45 -122.15 M166.6 -128.65 L165.95 -127.5 M63.2 7.6 L63.35 7.5 M63.2 7.5 L63.2 7.6 57.7 10.6 54.45 12.0 49.95 11.1 M57.7 10.6 L57.7 9.5 Q57.15 6.45 55.85 4.5 L54.45 2.65 M49.85 9.85 L49.95 10.5 M41.7 28.25 L41.7 28.35 M46.6 41.0 L46.35 38.35 44.7 33.85 44.3 33.35 M41.7 28.25 L41.85 28.35 M36.5 14.3 L39.35 23.25 41.7 28.25 M11.95 88.35 L12.2 90.35 M5.1 57.75 L2.35 57.35 -2.15 57.75 M-29.05 -285.75 L-36.55 -284.15 Q-41.6 -283.2 -43.9 -283.5 L-37.9 -254.0 -35.05 -258.4 -32.4 -261.0 -32.4 -261.15 Q-36.85 -278.35 -29.05 -285.75 L-26.3 -288.5 -21.8 -290.65 M-32.4 -261.15 L-32.3 -261.15 -31.65 -261.75 M-32.3 -261.15 L-32.4 -261.0 M-39.3 -247.9 L-37.9 -254.0 M-43.9 -283.5 L-44.3 -284.65 -47.15 -285.25 M-14.3 -244.9 L-14.8 -244.5 -14.75 -244.6 -15.3 -244.0 -28.15 -237.4 -35.7 -232.8 -36.4 -232.25 M-14.65 -245.0 L-14.75 -244.6 M-35.7 -232.8 L-35.65 -232.9 -36.65 -235.25 M-73.3 -199.0 L-81.65 -188.4 -87.15 -177.4 -95.9 -149.5 M-134.05 -159.9 L-134.05 -159.4 -133.9 -159.9 M-137.15 -155.15 L-135.15 -151.9 M-155.8 -139.4 L-153.55 -136.75 M-122.05 -171.9 L-121.4 -171.4 M-46.45 15.05 Q-47.05 11.65 -46.9 9.5 L-43.3 -4.4 -41.15 -6.75 -39.65 -7.4 -37.65 -7.4 -36.3 -6.75 Q-33.15 -5.35 -34.55 1.35 L-35.55 4.1 -38.9 9.5 -38.55 13.35 -38.45 13.65 -27.55 15.25 Q-24.5 15.6 -24.65 9.5 L-25.4 -2.4 -24.9 -6.75 Q-24.5 -10.8 -28.4 -13.25 L-30.65 -15.0 -30.9 -15.0 M-45.4 -16.65 L-45.9 -16.0 -47.8 -14.9 Q-52.75 -12.45 -52.4 -6.75 L-51.8 -4.0 -51.4 1.35 -51.8 9.5 Q-52.75 16.65 -46.45 15.05 L-46.05 17.25 -39.55 19.85 -37.05 19.25 -38.45 13.65 M-28.3 38.0 L-22.4 25.75 -19.3 17.6 -18.8 14.6 -19.8 13.35 -22.8 13.85 Q-31.85 18.25 -31.65 17.6 -33.75 18.8 -37.05 19.25 M-30.65 43.75 L-32.4 47.85 -32.65 49.6 M-46.05 17.25 L-46.1 17.2 -56.3 11.75 -56.4 11.6 M-46.1 17.2 L-46.05 17.25 M-9.05 88.35 L-9.15 90.35" fill="none" stroke="#000000" stroke-linecap="round" stroke-linejoin="round" stroke-width="2.15"/>
  </g>
</svg>
