<?xml version="1.0" encoding="UTF-8" standalone="no"?>
<svg xmlns:xlink="http://www.w3.org/1999/xlink" height="559.5px" width="387.2px" xmlns="http://www.w3.org/2000/svg">
  <g transform="matrix(1.0, 0.0, 0.0, 1.0, 185.5, 447.7)">
    <path d="M-13.15 -403.15 L-7.05 -416.4 -3.55 -427.9 -0.3 -443.15 0.95 -446.4 1.6 -446.65 1.95 -446.25 2.35 -445.5 Q6.95 -419.2 16.1 -403.15 L16.95 -401.4 21.6 -391.9 24.35 -384.4 25.7 -380.15 30.85 -364.25 34.2 -356.15 37.6 -350.5 38.95 -348.0 39.45 -345.4 38.6 -344.65 27.7 -348.75 26.85 -353.0 25.7 -356.15 18.2 -372.4 14.2 -388.65 11.6 -396.75 9.1 -402.4 7.1 -404.9 3.35 -408.25 1.7 -409.0 0.35 -408.75 Q-4.0 -405.7 -4.05 -404.9 L-6.3 -402.15 -8.65 -396.75 -11.3 -388.65 -15.3 -372.4 -24.05 -352.65 -24.8 -348.75 -24.9 -348.65 -35.8 -344.65 -36.55 -345.5 -36.05 -348.0 -34.65 -350.65 -31.3 -356.15 -27.9 -364.25 -22.8 -380.15 -22.65 -380.5 -21.4 -384.4 -18.65 -391.9 -14.05 -401.4 -13.15 -403.15 M48.95 49.1 L53.2 62.85 54.35 68.35 53.85 73.85 49.35 86.35 48.7 89.5 59.6 89.05 60.95 89.05 62.35 89.0 62.4 89.0 64.7 89.0 66.1 89.0 67.95 89.05 68.25 89.05 68.35 89.05 69.2 89.05 69.95 89.1 Q88.55 89.65 97.6 94.25 L96.85 95.5 Q95.9 96.4 91.2 97.6 49.25 104.8 49.6 105.75 L46.1 105.25 Q45.65 104.3 44.65 103.35 L42.8 101.8 Q40.2 99.9 35.85 97.75 L34.35 95.6 Q33.4 93.0 39.7 90.85 L39.7 90.8 Q38.8 85.9 46.6 70.1 L46.7 69.75 46.2 66.85 Q40.85 54.8 38.45 47.5 L37.1 43.5 36.95 42.0 Q36.65 38.7 38.25 37.65 39.2 37.0 40.95 37.25 L44.6 37.75 45.0 37.9 45.1 38.1 46.95 42.0 48.95 49.1 M-34.15 47.75 L-38.4 64.25 -38.65 68.85 Q-39.8 68.85 -32.9 87.85 L-32.05 94.85 Q-17.5 97.3 -20.65 101.0 L-23.15 102.85 -34.05 107.6 -34.9 108.6 -37.4 110.25 -40.15 110.75 Q-48.8 108.75 -67.4 106.25 L-80.9 104.6 -85.05 103.5 -86.55 102.75 -86.9 101.75 Q-79.8 96.2 -56.05 94.65 L-52.4 94.45 -40.8 94.1 -40.55 94.15 -40.5 94.05 Q-39.85 92.6 -46.4 71.0 L-46.4 65.35 -43.8 48.6 -42.8 42.0 Q-41.7 38.15 -41.1 37.65 L-40.9 37.6 -37.55 37.25 Q-35.65 37.0 -34.55 37.6 -32.75 38.6 -33.3 42.0 L-34.05 47.6 -34.15 47.75 M-61.3 98.0 L-61.15 97.5 -61.3 98.0 M-57.15 95.0 L-56.65 95.0 -57.15 95.0 M-32.05 94.85 L-40.55 94.15 -32.05 94.85 M-40.5 94.05 L-40.05 93.6 -40.5 94.05 M44.0 102.15 L44.35 102.25 44.0 102.15 44.65 103.35 44.0 102.15 42.8 101.8 44.0 102.15 M39.7 90.8 L48.7 89.5 39.7 90.8 M73.7 94.6 L74.35 92.0 73.85 90.75 71.45 89.35 69.95 89.1 71.45 89.35 73.85 90.75 74.35 92.0 73.7 94.6 M46.7 69.75 L46.7 70.1 46.6 70.1 46.7 70.1 46.7 69.75" fill="#fa410f" fill-rule="evenodd" stroke="none"/>
    <path d="M-24.9 -348.65 L-24.8 -348.75 -24.05 -352.65 -15.3 -372.4 -11.3 -388.65 -8.65 -396.75 -6.3 -402.15 -4.05 -404.9 Q-4.0 -405.7 0.35 -408.75 L1.7 -409.0 3.35 -408.25 7.1 -404.9 9.1 -402.4 11.6 -396.75 14.2 -388.65 18.2 -372.4 25.7 -356.15 26.85 -353.0 27.7 -348.75 26.35 -348.25 16.6 -347.75 Q7.2 -345.9 5.35 -344.0 L1.35 -343.65 -2.55 -344.0 Q-3.35 -346.05 -16.4 -348.0 L-23.15 -348.25 -24.8 -348.65 -24.8 -348.75 -24.8 -348.65 -24.9 -348.65" fill="#fa420e" fill-rule="evenodd" stroke="none"/>
    <path d="M16.1 -403.15 Q31.7 -401.7 53.85 -395.5 63.0 -392.35 62.45 -387.4 L63.6 -386.5 62.85 -383.0 Q58.6 -380.95 45.85 -335.15 L44.1 -339.4 44.2 -339.4 44.2 -339.5 44.2 -339.4 44.1 -339.4 44.1 -339.5 44.2 -339.5 48.45 -357.15 Q52.35 -372.15 54.7 -378.15 L50.45 -377.15 42.95 -377.25 37.85 -377.75 25.7 -380.15 24.35 -384.4 21.6 -391.9 16.95 -401.4 16.1 -403.15 M42.2 -306.65 Q42.5 -293.4 37.6 -298.15 L38.2 -299.25 40.2 -302.25 42.2 -306.65 M-34.65 -298.15 Q-40.1 -294.35 -39.3 -306.75 L-36.9 -301.75 -35.15 -299.25 -34.65 -298.15 M-42.9 -335.15 L-49.9 -359.0 Q-53.15 -369.8 -56.9 -378.5 L-59.9 -383.15 -60.65 -386.65 -59.65 -387.4 Q-60.25 -392.25 -50.55 -395.65 L-35.3 -399.5 Q-24.6 -401.95 -13.15 -403.15 L-14.05 -401.4 -18.65 -391.9 -21.4 -384.4 -22.65 -380.5 -22.8 -380.15 -28.9 -378.75 -39.8 -377.25 -47.4 -377.15 -51.9 -378.15 -54.15 -379.25 -55.4 -380.5 Q-59.15 -384.1 -59.4 -385.9 L-59.65 -387.4 -59.4 -385.9 Q-59.15 -384.1 -55.4 -380.5 L-54.15 -379.25 -51.9 -378.15 -49.05 -369.9 -41.15 -339.5 -41.3 -339.15 -42.9 -335.15 M48.95 -395.0 L49.45 -395.0 48.95 -395.0 M46.35 -395.75 L46.85 -395.65 46.95 -395.65 48.6 -395.25 46.95 -395.65 46.85 -395.65 46.35 -395.75 M62.45 -387.4 L62.35 -385.4 Q58.85 -380.35 58.35 -380.5 L57.1 -379.25 54.7 -378.15 57.1 -379.25 58.35 -380.5 Q58.85 -380.35 62.35 -385.4 L62.45 -387.4 M43.8 -396.45 L44.7 -396.25 43.8 -396.45 43.1 -396.65 43.2 -396.65 43.8 -396.45 43.2 -396.65 43.1 -396.65 42.7 -396.75 43.2 -396.65 42.7 -396.75 43.1 -396.65 43.8 -396.45 M40.95 -397.0 L42.1 -396.9 42.65 -396.75 42.7 -396.75 42.2 -396.9 42.1 -396.9 42.2 -396.9 42.7 -396.75 42.65 -396.75 42.1 -396.9 40.95 -397.0 M20.2 -400.75 L20.95 -400.75 20.2 -400.75 M30.2 -399.25 L31.15 -399.1 31.85 -399.0 32.1 -398.95 31.7 -399.0 31.85 -399.0 31.7 -399.0 32.1 -398.95 31.85 -399.0 31.15 -399.1 31.7 -399.0 31.15 -399.1 30.2 -399.25 M38.9 -397.9 L37.95 -397.95 38.4 -398.0 30.1 -399.75 Q21.9 -401.45 16.95 -401.4 21.9 -401.45 30.1 -399.75 L38.4 -398.0 38.9 -397.9 40.25 -397.65 38.9 -397.9 38.4 -398.0 37.95 -397.95 38.9 -397.9 M38.7 -397.5 L39.7 -397.4 40.25 -397.65 44.6 -396.75 Q57.2 -394.6 57.85 -388.65 57.85 -382.45 50.7 -381.05 L50.25 -381.0 47.45 -380.7 45.45 -380.7 Q37.45 -380.8 24.35 -384.4 37.45 -380.8 45.45 -380.7 L47.45 -380.7 50.25 -381.0 50.7 -381.05 Q57.85 -382.45 57.85 -388.65 57.2 -394.6 44.6 -396.75 L40.25 -397.65 39.7 -397.4 38.7 -397.5 M36.75 -398.1 L36.95 -398.05 37.5 -397.95 37.95 -397.95 37.7 -397.9 37.5 -397.95 37.7 -397.9 37.95 -397.95 37.5 -397.95 36.75 -398.1 35.6 -398.15 36.75 -398.1 37.5 -397.95 36.95 -398.05 36.75 -398.1 M32.1 -398.95 L32.7 -398.9 33.45 -398.75 32.7 -398.9 32.1 -398.95 M25.7 -400.15 L26.2 -399.95 27.1 -399.9 27.6 -399.75 27.1 -399.9 26.2 -399.95 25.95 -400.0 25.7 -400.15 25.45 -400.15 25.7 -400.15 25.95 -400.0 26.2 -399.95 25.7 -400.15 M24.6 -400.25 L25.1 -400.25 24.6 -400.25 M22.35 -400.65 L22.85 -400.5 22.9 -400.45 23.1 -400.4 23.45 -400.4 23.1 -400.4 22.9 -400.45 22.85 -400.5 22.35 -400.65 M-40.8 -396.5 L-40.15 -396.65 -40.9 -396.5 -40.8 -396.5 -41.35 -396.35 -40.8 -396.5 -40.9 -396.5 -41.35 -396.35 -41.8 -396.25 -41.35 -396.35 -40.9 -396.5 -40.15 -396.65 -39.8 -396.75 -39.15 -396.8 -38.05 -397.0 -39.15 -396.8 -39.8 -396.75 -40.15 -396.65 -39.65 -396.75 -39.8 -396.75 -39.65 -396.75 -40.15 -396.65 -40.8 -396.5 M-18.05 -400.75 L-17.3 -400.75 -18.05 -400.75 M-20.55 -400.4 L-19.9 -400.5 -19.65 -400.65 -19.4 -400.65 -19.65 -400.65 -19.9 -400.5 -20.55 -400.4 M-35.95 -397.95 L-26.8 -399.9 Q-18.9 -401.4 -14.05 -401.4 -18.9 -401.4 -26.8 -399.9 L-35.95 -397.95 -35.4 -397.75 -34.55 -397.95 -33.8 -398.0 -33.15 -398.1 -32.65 -398.15 -33.15 -398.1 -33.8 -398.0 -34.55 -397.95 -35.4 -397.75 -35.95 -397.95 -41.65 -396.75 Q-54.3 -394.6 -54.9 -388.65 -55.25 -382.75 -48.5 -381.3 L-48.05 -381.2 -47.75 -381.15 -47.15 -381.05 -46.85 -381.0 -46.4 -380.95 -46.0 -380.9 -45.55 -380.85 -44.55 -380.8 -42.55 -380.8 Q-34.55 -381.0 -21.4 -384.4 -34.55 -381.0 -42.55 -380.8 L-44.55 -380.8 -45.55 -380.85 -46.0 -380.9 -46.4 -380.95 -46.85 -381.0 -47.15 -381.05 -47.75 -381.15 -48.05 -381.2 -48.5 -381.3 Q-55.25 -382.75 -54.9 -388.65 -54.3 -394.6 -41.65 -396.75 L-35.95 -397.95 M-23.25 -399.95 L-22.8 -400.05 -22.55 -400.15 -22.8 -400.05 -23.05 -400.0 -23.25 -399.95 -24.15 -399.9 -24.65 -399.75 -24.15 -399.9 -23.25 -399.95 -23.05 -400.0 -22.8 -400.05 -23.25 -399.95 M-22.15 -400.25 L-21.65 -400.25 -22.15 -400.25 M-28.9 -399.0 L-28.15 -399.15 -27.9 -399.25 -27.3 -399.25 -27.9 -399.25 -28.15 -399.15 -28.8 -399.0 -28.9 -399.0 -30.55 -398.75 -28.9 -399.0 -28.8 -399.0 -28.15 -399.15 -28.9 -399.0 M-35.4 -397.75 L-34.8 -397.95 -34.05 -398.0 -33.15 -398.1 -34.05 -398.0 -33.8 -398.0 -34.05 -398.0 -34.8 -397.95 -34.55 -397.95 -34.8 -397.95 -35.4 -397.75 M-39.65 -396.75 L-39.15 -396.8 -39.65 -396.75 M-37.3 -397.4 L-36.8 -397.4 -35.8 -397.5 -36.8 -397.4 -37.3 -397.4 M-46.55 -395.0 L-46.05 -395.0 -46.55 -395.0 M-45.3 -395.25 Q-45.15 -395.3 -45.05 -395.4 L-44.9 -395.4 -44.8 -395.4 -44.05 -395.65 -43.8 -395.75 -43.4 -395.75 -43.8 -395.75 -44.05 -395.65 -44.8 -395.4 -44.9 -395.4 -45.3 -395.25 -45.65 -395.25 -45.3 -395.25 -44.9 -395.4 -45.05 -395.4 Q-45.15 -395.3 -45.3 -395.25" fill="#43396f" fill-rule="evenodd" stroke="none"/>
    <path d="M-22.8 -380.15 L-27.9 -364.25 -31.3 -356.15 -34.65 -350.65 -35.4 -350.9 Q-44.0 -366.7 -39.8 -377.25 L-28.9 -378.75 -22.8 -380.15 M37.6 -350.5 L34.2 -356.15 30.85 -364.25 25.7 -380.15 37.85 -377.75 42.95 -377.25 Q47.5 -368.85 38.35 -350.65 L37.6 -350.5" fill="#ff7a16" fill-rule="evenodd" stroke="none"/>
    <path d="M45.85 -335.15 Q50.4 -326.9 42.2 -306.65 L40.2 -302.25 38.2 -299.25 37.6 -298.15 34.7 -293.65 27.95 -285.65 20.45 -279.4 20.1 -278.25 Q17.35 -263.2 27.6 -243.4 43.65 -220.9 52.95 -214.4 L68.95 -202.0 Q84.9 -195.3 89.1 -191.5 L101.95 -181.65 116.45 -168.0 122.6 -161.25 135.6 -144.15 Q148.95 -124.05 156.35 -114.4 L179.2 -78.75 195.45 -48.75 199.35 -40.5 Q202.85 -31.7 196.85 -35.65 L196.45 -35.9 196.35 -36.0 Q193.4 -37.8 185.2 -46.0 L173.2 -59.4 165.85 -68.25 Q156.45 -81.55 133.6 -110.75 126.25 -118.65 107.2 -142.0 L90.85 -159.65 90.7 -159.55 90.6 -159.5 92.45 -154.4 102.7 -113.4 106.1 -96.0 107.35 -82.9 107.35 -66.5 Q104.9 -39.9 103.2 -36.75 L99.95 -27.5 Q96.85 -20.75 87.7 -8.5 L64.45 14.35 Q58.45 20.2 53.95 23.85 L53.65 24.1 48.7 27.6 51.95 33.0 54.1 38.35 53.95 40.0 53.1 40.25 52.95 40.6 53.2 47.1 52.6 48.85 51.95 49.35 48.95 49.1 46.95 42.0 45.1 38.1 45.0 37.9 44.6 37.75 40.95 37.25 Q39.2 37.0 38.25 37.65 36.65 38.7 36.95 42.0 L37.1 43.5 38.45 47.5 Q37.2 47.25 29.95 49.5 L27.7 49.35 26.85 47.75 26.85 45.6 27.7 40.5 27.2 39.5 27.45 37.75 22.35 39.25 14.35 40.5 Q37.95 59.1 36.6 78.25 36.6 87.85 27.1 83.5 L23.6 80.85 20.6 77.6 13.35 65.6 11.85 64.35 11.7 64.35 Q12.95 89.4 3.2 92.25 -2.25 93.45 -5.4 88.25 -8.85 85.15 -8.55 66.35 L-8.8 64.35 -8.85 64.4 -10.15 65.25 -15.15 73.75 Q-17.75 78.25 -19.55 79.75 L-23.65 83.25 Q-32.0 87.85 -33.55 80.0 -36.6 61.0 -11.4 40.5 L-17.4 39.6 -24.3 37.75 -24.3 37.8 -24.65 40.75 -23.9 46.6 -23.9 47.75 -24.8 49.35 -26.9 49.5 -34.05 47.75 -34.15 47.75 -34.05 47.6 -33.3 42.0 Q-32.75 38.6 -34.55 37.6 -35.65 37.0 -37.55 37.25 L-40.9 37.6 -41.1 37.65 Q-41.7 38.15 -42.8 42.0 L-43.8 48.6 -47.15 49.35 -49.55 49.1 -50.3 47.5 -50.05 40.6 -50.4 40.4 -51.05 40.0 -51.15 39.35 Q-51.3 36.05 -45.9 27.55 L-45.9 27.5 Q-49.85 25.35 -58.55 17.25 L-84.9 -8.65 -93.65 -21.4 Q-96.55 -25.3 -99.9 -35.15 -105.35 -63.35 -104.55 -81.25 -104.05 -94.95 -100.55 -109.9 L-91.65 -146.0 -91.8 -146.0 Q-99.5 -135.2 -107.4 -122.15 L-127.15 -89.65 -137.05 -74.5 -149.4 -56.9 -157.05 -48.25 Q-171.0 -35.35 -174.15 -34.15 L-179.8 -31.25 -182.3 -30.5 -184.15 -31.25 Q-185.0 -32.2 -183.55 -36.4 L-180.3 -43.15 Q-150.55 -89.95 -150.3 -94.0 L-139.55 -111.15 -130.05 -129.9 -119.4 -147.15 Q-111.75 -159.1 -103.3 -170.25 L-94.65 -180.65 -84.65 -190.5 Q-76.4 -197.35 -65.15 -202.4 L-44.65 -219.0 Q-28.05 -236.5 -22.9 -246.5 -15.0 -262.4 -17.3 -278.75 -23.35 -282.1 -34.65 -298.15 L-35.15 -299.25 -36.9 -301.75 -39.3 -306.75 -39.3 -306.9 -39.4 -307.0 Q-47.4 -326.45 -42.9 -335.15 L-41.3 -339.15 -41.15 -339.5 -41.05 -339.5 -40.05 -342.15 -35.4 -350.9 -34.65 -350.65 -36.05 -348.0 -36.55 -345.5 -35.8 -344.65 -24.9 -348.65 -24.8 -348.65 -23.15 -348.25 -16.4 -348.0 Q-3.35 -346.05 -2.55 -344.0 L1.35 -343.65 5.35 -344.0 Q7.2 -345.9 16.6 -347.75 L26.35 -348.25 27.7 -348.75 38.6 -344.65 39.45 -345.4 38.95 -348.0 37.6 -350.5 38.35 -350.65 40.85 -346.4 44.1 -339.5 44.1 -339.4 45.85 -335.15 M157.7 -82.0 L165.6 -74.5 Q169.45 -71.65 170.35 -71.75 L171.1 -71.5 172.1 -71.75 Q174.7 -71.7 171.85 -79.9 L168.85 -87.65 168.85 -88.0 168.6 -89.15 168.85 -88.0 168.85 -87.65 171.85 -79.9 Q174.7 -71.7 172.1 -71.75 L171.1 -71.5 170.35 -71.75 Q169.45 -71.65 165.6 -74.5 L157.7 -82.0 M136.6 -109.65 L142.1 -105.25 143.95 -104.25 Q151.35 -100.25 150.7 -104.25 L150.45 -106.9 148.35 -114.9 150.45 -106.9 150.7 -104.25 Q151.35 -100.25 143.95 -104.25 L142.1 -105.25 136.6 -109.65 M90.7 -159.55 L90.1 -161.15 81.6 -178.25 90.1 -161.15 90.7 -159.55 M20.45 -279.4 L21.85 -283.0 20.45 -279.4 M-41.3 -339.15 L-41.05 -339.5 -41.3 -339.15 M-150.4 -71.75 Q-154.3 -70.65 -155.15 -71.0 L-156.4 -71.75 Q-158.8 -71.7 -156.65 -79.9 L-153.55 -85.9 -156.65 -79.9 Q-158.8 -71.7 -156.4 -71.75 L-155.15 -71.0 Q-154.3 -70.65 -150.4 -71.75 M-91.8 -146.0 L-91.55 -146.5 -89.9 -153.0 -86.55 -162.9 -78.15 -179.5 -86.55 -162.9 -89.9 -153.0 -91.55 -146.5 -91.65 -146.0 -91.55 -146.5 -91.8 -146.0 M-131.9 -101.4 L-130.65 -101.65 -131.9 -101.4 M-132.8 -101.15 Q-133.85 -100.55 -136.65 -102.4 L-137.3 -104.25 -137.4 -105.9 -136.4 -110.25 -137.4 -105.9 -137.3 -104.25 -136.65 -102.4 Q-133.85 -100.55 -132.8 -101.15 M-17.55 -279.4 L-18.65 -282.5 -17.55 -279.4 M-18.9 -282.65 L-18.9 -283.0 -18.9 -282.65 M-41.1 37.65 L-48.3 39.75 -41.1 37.65 M-50.4 40.4 L-49.9 40.35 -50.4 40.4 M-49.3 40.0 L-48.65 40.0 -49.3 40.0 M-45.9 27.5 L-44.8 25.75 -44.65 24.6 -44.8 25.75 -45.9 27.5 M-24.3 37.8 L-28.9 30.0 -24.3 37.8 M-34.55 37.6 L-26.3 40.0 -34.55 37.6 M-34.05 47.6 L-34.05 47.75 -34.05 47.6 M-8.9 64.1 L-8.85 64.4 -8.9 64.1 M48.7 27.6 L47.7 25.75 47.45 24.75 47.7 25.75 48.7 27.6 M28.85 40.1 L29.55 40.0 35.35 38.1 38.25 37.65 35.35 38.1 29.55 40.0 28.85 40.1 M27.45 37.75 L31.7 30.6 31.85 29.85 31.7 30.6 27.45 37.75 M-11.4 40.5 Q-7.55 41.2 7.85 41.0 L14.35 40.5 7.85 41.0 Q-7.55 41.2 -11.4 40.5 M52.35 40.0 L45.0 37.9 52.35 40.0" fill="#ffffff" fill-rule="evenodd" stroke="none"/>
    <path d="M-13.15 -403.15 L-7.05 -416.4 -3.55 -427.9 -0.3 -443.15 0.95 -446.4 1.6 -446.65 1.95 -446.25 2.35 -445.5 Q6.95 -419.2 16.1 -403.15 31.7 -401.7 53.85 -395.5 63.0 -392.35 62.45 -387.4 L63.6 -386.5 62.85 -383.0 Q58.6 -380.95 45.85 -335.15 50.4 -326.9 42.2 -306.65 42.5 -293.4 37.6 -298.15 L34.7 -293.65 27.95 -285.65 20.45 -279.4 20.1 -278.25 Q17.35 -263.2 27.6 -243.4 43.65 -220.9 52.95 -214.4 L68.95 -202.0 Q84.9 -195.3 89.1 -191.5 L101.95 -181.65 116.45 -168.0 122.6 -161.25 135.6 -144.15 Q148.95 -124.05 156.35 -114.4 L179.2 -78.75 195.45 -48.75 199.35 -40.5 Q202.85 -31.7 196.85 -35.65 L196.45 -35.9 196.35 -36.0 Q193.4 -37.8 185.2 -46.0 L173.2 -59.4 165.85 -68.25 Q156.45 -81.55 133.6 -110.75 126.25 -118.65 107.2 -142.0 L90.85 -159.65 90.7 -159.55 90.6 -159.5 92.45 -154.4 102.7 -113.4 106.1 -96.0 107.35 -82.9 107.35 -66.5 Q104.9 -39.9 103.2 -36.75 L99.95 -27.5 Q96.85 -20.75 87.7 -8.5 L64.45 14.35 Q58.45 20.2 53.95 23.85 L53.65 24.1 48.7 27.6 51.95 33.0 54.1 38.35 53.95 40.0 53.1 40.25 52.95 40.6 53.2 47.1 52.6 48.85 51.95 49.35 48.95 49.1 53.2 62.85 54.35 68.35 53.85 73.85 49.35 86.35 48.7 89.5 59.6 89.05 60.95 89.05 62.35 89.0 62.4 89.0 64.7 89.0 66.1 89.0 67.95 89.05 68.25 89.05 68.35 89.05 69.2 89.05 69.95 89.1 Q88.55 89.65 97.6 94.25 L96.85 95.5 Q95.9 96.4 91.2 97.6 49.25 104.8 49.6 105.75 L46.1 105.25 Q45.65 104.3 44.65 103.35 L42.8 101.8 Q40.2 99.9 35.85 97.75 L34.35 95.6 Q33.4 93.0 39.7 90.85 L39.7 90.8 Q38.8 85.9 46.6 70.1 L46.7 69.75 46.2 66.85 Q40.85 54.8 38.45 47.5 37.2 47.25 29.95 49.5 L27.7 49.35 26.85 47.75 26.85 45.6 27.7 40.5 27.2 39.5 27.45 37.75 22.35 39.25 14.35 40.5 Q37.95 59.1 36.6 78.25 36.6 87.85 27.1 83.5 L23.6 80.85 20.6 77.6 13.35 65.6 11.85 64.35 11.7 64.35 Q12.95 89.4 3.2 92.25 -2.25 93.45 -5.4 88.25 -8.85 85.15 -8.55 66.35 L-8.8 64.35 -8.85 64.4 -10.15 65.25 -15.15 73.75 Q-17.75 78.25 -19.55 79.75 L-23.65 83.25 Q-32.0 87.85 -33.55 80.0 -36.6 61.0 -11.4 40.5 L-17.4 39.6 -24.3 37.75 -24.3 37.8 -24.65 40.75 -23.9 46.6 -23.9 47.75 -24.8 49.35 -26.9 49.5 -34.05 47.75 -34.15 47.75 -38.4 64.25 -38.65 68.85 Q-39.8 68.85 -32.9 87.85 L-32.05 94.85 Q-17.5 97.3 -20.65 101.0 L-23.15 102.85 -34.05 107.6 -34.9 108.6 -37.4 110.25 -40.15 110.75 Q-48.8 108.75 -67.4 106.25 L-80.9 104.6 -85.05 103.5 -86.55 102.75 -86.9 101.75 Q-79.8 96.2 -56.05 94.65 L-52.4 94.45 -40.8 94.1 -40.55 94.15 -40.5 94.05 Q-39.85 92.6 -46.4 71.0 L-46.4 65.35 -43.8 48.6 -47.15 49.35 -49.55 49.1 -50.3 47.5 -50.05 40.6 -50.4 40.4 -51.05 40.0 -51.15 39.35 Q-51.3 36.05 -45.9 27.55 L-45.9 27.5 Q-49.85 25.35 -58.55 17.25 L-84.9 -8.65 -93.65 -21.4 Q-96.55 -25.3 -99.9 -35.15 -105.35 -63.35 -104.55 -81.25 -104.05 -94.95 -100.55 -109.9 L-91.65 -146.0 -91.8 -146.0 Q-99.5 -135.2 -107.4 -122.15 L-127.15 -89.65 -137.05 -74.5 -149.4 -56.9 -157.05 -48.25 Q-171.0 -35.35 -174.15 -34.15 L-179.8 -31.25 -182.3 -30.5 -184.15 -31.25 Q-185.0 -32.2 -183.55 -36.4 L-180.3 -43.15 Q-150.55 -89.95 -150.3 -94.0 L-139.55 -111.15 -130.05 -129.9 -119.4 -147.15 Q-111.75 -159.1 -103.3 -170.25 L-94.65 -180.65 -84.65 -190.5 Q-76.4 -197.35 -65.15 -202.4 L-44.65 -219.0 Q-28.05 -236.5 -22.9 -246.5 -15.0 -262.4 -17.3 -278.75 -23.35 -282.1 -34.65 -298.15 -40.1 -294.35 -39.3 -306.75 L-39.3 -306.9 -39.4 -307.0 Q-47.4 -326.45 -42.9 -335.15 L-49.9 -359.0 Q-53.15 -369.8 -56.9 -378.5 L-59.9 -383.15 -60.65 -386.65 -59.65 -387.4 Q-60.25 -392.25 -50.55 -395.65 L-35.3 -399.5 Q-24.6 -401.95 -13.15 -403.15 L-14.05 -401.4 -18.65 -391.9 -21.4 -384.4 -22.65 -380.5 -22.8 -380.15 -27.9 -364.25 -31.3 -356.15 -34.65 -350.65 -36.05 -348.0 -36.55 -345.5 -35.8 -344.65 -24.9 -348.65 -24.8 -348.75 -24.05 -352.65 -15.3 -372.4 -11.3 -388.65 -8.65 -396.75 -6.3 -402.15 -4.05 -404.9 Q-4.0 -405.7 0.35 -408.75 L1.7 -409.0 3.35 -408.25 7.1 -404.9 9.1 -402.4 11.6 -396.75 14.2 -388.65 18.2 -372.4 25.7 -356.15 26.85 -353.0 27.7 -348.75 38.6 -344.65 39.45 -345.4 38.95 -348.0 37.6 -350.5 34.2 -356.15 30.85 -364.25 25.7 -380.15 24.35 -384.4 21.6 -391.9 16.95 -401.4 16.1 -403.15 M23.45 -400.4 L23.1 -400.4 22.9 -400.45 22.85 -400.5 22.35 -400.65 M25.1 -400.25 L24.6 -400.25 M27.6 -399.75 L27.1 -399.9 26.2 -399.95 25.95 -400.0 25.7 -400.15 25.45 -400.15 M26.2 -399.95 L25.7 -400.15 M31.85 -399.0 L31.7 -399.0 32.1 -398.95 31.85 -399.0 31.15 -399.1 31.7 -399.0 M33.45 -398.75 L32.7 -398.9 32.1 -398.95 M37.7 -397.9 L37.95 -397.95 37.5 -397.95 37.7 -397.9 M37.5 -397.95 L36.75 -398.1 35.6 -398.15 M37.5 -397.95 L36.95 -398.05 36.75 -398.1 M24.35 -384.4 Q37.45 -380.8 45.45 -380.7 L47.45 -380.7 50.25 -381.0 50.7 -381.05 Q57.85 -382.45 57.85 -388.65 57.2 -394.6 44.6 -396.75 L40.25 -397.65 39.7 -397.4 38.7 -397.5 M16.95 -401.4 Q21.9 -401.45 30.1 -399.75 L38.4 -398.0 38.9 -397.9 40.25 -397.65 M38.4 -398.0 L37.95 -397.95 38.9 -397.9 M31.15 -399.1 L30.2 -399.25 M20.95 -400.75 L20.2 -400.75 M42.1 -396.9 L42.2 -396.9 42.7 -396.75 42.65 -396.75 42.1 -396.9 40.95 -397.0 M43.1 -396.65 L43.8 -396.45 43.2 -396.65 43.1 -396.65 42.7 -396.75 43.2 -396.65 M44.7 -396.25 L43.8 -396.45 M54.7 -378.15 L57.1 -379.25 58.35 -380.5 Q58.85 -380.35 62.35 -385.4 L62.45 -387.4 M48.6 -395.25 L46.95 -395.65 46.85 -395.65 46.35 -395.75 M49.45 -395.0 L48.95 -395.0 M42.95 -377.25 L50.45 -377.15 54.7 -378.15 Q52.35 -372.15 48.45 -357.15 L44.2 -339.5 44.2 -339.4 44.1 -339.4 45.85 -335.15 M25.7 -380.15 L37.85 -377.75 42.95 -377.25 Q47.5 -368.85 38.35 -350.65 L40.85 -346.4 44.1 -339.5 44.2 -339.5 M37.6 -350.5 L38.35 -350.65 M-24.8 -348.65 L-23.15 -348.25 -16.4 -348.0 Q-3.35 -346.05 -2.55 -344.0 L1.35 -343.65 5.35 -344.0 Q7.2 -345.9 16.6 -347.75 L26.35 -348.25 27.7 -348.75 M42.2 -306.65 L40.2 -302.25 38.2 -299.25 37.6 -298.15 M44.1 -339.5 L44.1 -339.4 M21.85 -283.0 L20.45 -279.4 M81.6 -178.25 L90.1 -161.15 90.7 -159.55 M148.35 -114.9 L150.45 -106.9 150.7 -104.25 Q151.35 -100.25 143.95 -104.25 L142.1 -105.25 136.6 -109.65 M168.6 -89.15 L168.85 -88.0 168.85 -87.65 171.85 -79.9 Q174.7 -71.7 172.1 -71.75 L171.1 -71.5 170.35 -71.75 Q169.45 -71.65 165.6 -74.5 L157.7 -82.0 M-41.35 -396.35 L-40.8 -396.5 -40.9 -396.5 -41.35 -396.35 -41.8 -396.25 M-40.9 -396.5 L-40.15 -396.65 -39.8 -396.75 -39.15 -396.8 -38.05 -397.0 M-40.15 -396.65 L-39.65 -396.75 -39.8 -396.75 M-35.8 -397.5 L-36.8 -397.4 -37.3 -397.4 M-39.15 -396.8 L-39.65 -396.75 M-32.65 -398.15 L-33.15 -398.1 -33.8 -398.0 -34.55 -397.95 -35.4 -397.75 -35.95 -397.95 -41.65 -396.75 Q-54.3 -394.6 -54.9 -388.65 -55.25 -382.75 -48.5 -381.3 L-48.05 -381.2 -47.75 -381.15 -47.15 -381.05 -46.85 -381.0 -46.4 -380.95 -46.0 -380.9 -45.55 -380.85 -44.55 -380.8 -42.55 -380.8 Q-34.55 -381.0 -21.4 -384.4 M-33.15 -398.1 L-34.05 -398.0 -33.8 -398.0 M-34.05 -398.0 L-34.8 -397.95 -34.55 -397.95 M-34.8 -397.95 L-35.4 -397.75 M-27.3 -399.25 L-27.9 -399.25 -28.15 -399.15 -28.8 -399.0 -28.9 -399.0 -30.55 -398.75 M-28.15 -399.15 L-28.9 -399.0 M-22.55 -400.15 L-22.8 -400.05 -23.05 -400.0 -23.25 -399.95 -24.15 -399.9 -24.65 -399.75 M-21.65 -400.25 L-22.15 -400.25 M-22.8 -400.05 L-23.25 -399.95 M-14.05 -401.4 Q-18.9 -401.4 -26.8 -399.9 L-35.95 -397.95 M-19.4 -400.65 L-19.65 -400.65 -19.9 -400.5 -20.55 -400.4 M-17.3 -400.75 L-18.05 -400.75 M-40.15 -396.65 L-40.8 -396.5 M-39.8 -377.25 L-28.9 -378.75 -22.8 -380.15 M-35.4 -350.9 L-34.65 -350.65 M-24.8 -348.75 L-24.8 -348.65 -24.9 -348.65 M-43.4 -395.75 L-43.8 -395.75 -44.05 -395.65 -44.8 -395.4 -44.9 -395.4 -45.3 -395.25 -45.65 -395.25 M-44.9 -395.4 L-45.05 -395.4 Q-45.15 -395.3 -45.3 -395.25 M-46.05 -395.0 L-46.55 -395.0 M-59.65 -387.4 L-59.4 -385.9 Q-59.15 -384.1 -55.4 -380.5 L-54.15 -379.25 -51.9 -378.15 -47.4 -377.15 -39.8 -377.25 Q-44.0 -366.7 -35.4 -350.9 L-40.05 -342.15 -41.05 -339.5 -41.3 -339.15 -42.9 -335.15 M-41.15 -339.5 L-49.05 -369.9 -51.9 -378.15 M-41.15 -339.5 L-41.3 -339.15 M-41.05 -339.5 L-41.15 -339.5 M-34.65 -298.15 L-35.15 -299.25 -36.9 -301.75 -39.3 -306.75 M-18.9 -283.0 L-18.9 -282.65 M-18.65 -282.5 L-17.55 -279.4 M-78.15 -179.5 L-86.55 -162.9 -89.9 -153.0 -91.55 -146.5 -91.65 -146.0 M-136.4 -110.25 L-137.4 -105.9 -137.3 -104.25 -136.65 -102.4 Q-133.85 -100.55 -132.8 -101.15 M-130.65 -101.65 L-131.9 -101.4 M-91.55 -146.5 L-91.8 -146.0 M-153.55 -85.9 L-156.65 -79.9 Q-158.8 -71.7 -156.4 -71.75 L-155.15 -71.0 Q-154.3 -70.65 -150.4 -71.75 M-34.15 47.75 L-34.05 47.6 -33.3 42.0 Q-32.75 38.6 -34.55 37.6 -35.65 37.0 -37.55 37.25 L-40.9 37.6 -41.1 37.65 Q-41.7 38.15 -42.8 42.0 L-43.8 48.6 M-34.05 47.75 L-34.05 47.6 M-26.3 40.0 L-34.55 37.6 M-28.9 30.0 L-24.3 37.8 M-44.65 24.6 L-44.8 25.75 -45.9 27.5 M-48.65 40.0 L-49.3 40.0 M-49.9 40.35 L-50.4 40.4 M-48.3 39.75 L-41.1 37.65 M-56.65 95.0 L-57.15 95.0 M-61.15 97.5 L-61.3 98.0 M-8.85 64.4 L-8.9 64.1 M-40.05 93.6 L-40.5 94.05 M-40.55 94.15 L-32.05 94.85 M47.45 24.75 L47.7 25.75 48.7 27.6 M48.95 49.1 L46.95 42.0 45.1 38.1 45.0 37.9 44.6 37.75 40.95 37.25 Q39.2 37.0 38.25 37.65 36.65 38.7 36.95 42.0 L37.1 43.5 38.45 47.5 M45.0 37.9 L52.35 40.0 M14.35 40.5 L7.85 41.0 Q-7.55 41.2 -11.4 40.5 M31.85 29.85 L31.7 30.6 27.45 37.75 M38.25 37.65 L35.35 38.1 29.55 40.0 28.85 40.1 M46.6 70.1 L46.7 70.1 46.7 69.75 M69.95 89.1 L71.45 89.35 73.85 90.75 74.35 92.0 73.7 94.6 M48.7 89.5 L39.7 90.8 M44.65 103.35 L44.0 102.15 42.8 101.8 M44.35 102.25 L44.0 102.15" fill="none" stroke="#000000" stroke-linecap="round" stroke-linejoin="round" stroke-width="2.15"/>
  </g>
</svg>
