<?xml version="1.0" encoding="UTF-8" standalone="no"?>
<svg xmlns:xlink="http://www.w3.org/1999/xlink" height="618.25px" width="387.6px" xmlns="http://www.w3.org/2000/svg">
  <g transform="matrix(1.0, 0.0, 0.0, 1.0, 185.2, 434.35)">
    <path d="M25.45 -429.25 L33.95 -429.25 Q59.2 -427.35 63.45 -421.15 L64.35 -417.5 63.95 -409.5 61.95 -396.75 60.2 -388.65 58.7 -384.4 56.35 -380.5 Q51.2 -372.5 32.1 -373.0 19.95 -374.55 17.85 -380.5 L16.1 -383.4 14.6 -388.65 13.2 -396.75 12.6 -404.9 12.7 -417.4 13.7 -421.15 Q14.1 -428.35 25.45 -429.25 14.1 -428.35 13.7 -421.15 L12.7 -417.4 12.6 -404.9 13.2 -396.75 14.6 -388.65 16.1 -383.4 17.85 -380.5 Q19.95 -374.55 32.1 -373.0 51.2 -372.5 56.35 -380.5 L58.7 -384.4 60.2 -388.65 61.95 -396.75 63.95 -409.5 64.35 -417.5 63.45 -421.15 Q59.2 -427.35 33.95 -429.25 L25.45 -429.25 M-4.15 -421.0 L0.35 -422.65 7.45 -422.5 8.2 -422.5 8.2 -422.0 7.45 -421.15 6.85 -420.0 6.6 -416.25 6.85 -420.0 7.45 -421.15 8.2 -422.0 8.2 -422.5 7.45 -422.5 Q7.9 -426.5 11.6 -430.0 L17.45 -432.4 Q27.5 -435.2 56.35 -429.25 L62.7 -427.0 67.95 -423.65 70.45 -419.75 69.1 -409.4 Q71.35 -408.15 68.1 -402.4 63.7 -374.75 53.85 -371.65 L50.6 -363.4 49.35 -357.75 47.6 -364.15 49.45 -369.65 45.85 -368.65 43.85 -368.15 Q28.2 -366.1 21.6 -369.75 L21.45 -369.75 21.45 -369.9 15.7 -376.15 9.2 -387.65 9.1 -388.65 8.7 -389.9 7.7 -396.75 6.45 -413.0 6.6 -416.25 1.1 -419.25 Q1.25 -420.15 -3.8 -416.0 L-4.3 -418.75 -4.15 -421.0 -4.3 -418.75 -3.8 -416.0 -3.65 -413.0 -5.3 -392.5 -5.4 -392.0 -5.4 -391.9 -6.3 -387.65 -12.15 -377.0 -18.55 -369.75 Q-25.25 -366.1 -40.65 -368.15 L-42.9 -368.65 -46.55 -369.65 -44.65 -364.15 -46.55 -357.75 -48.05 -364.65 -51.05 -371.65 -56.15 -375.9 -59.15 -380.4 -61.65 -386.65 -65.15 -402.4 Q-68.35 -408.4 -66.3 -409.4 L-67.4 -419.9 -64.8 -423.9 Q-59.9 -427.65 -54.55 -428.9 -17.05 -437.2 -8.05 -429.25 L-5.55 -426.15 -4.15 -421.0 M69.1 -409.4 L68.1 -402.4 69.1 -409.4 M53.85 -371.65 L49.45 -369.65 53.85 -371.65 M21.6 -369.75 L21.45 -369.9 21.6 -369.75 M-66.3 -409.4 L-65.4 -404.9 -65.15 -402.4 -65.4 -404.9 -66.3 -409.4 M-61.3 -417.5 L-60.55 -421.15 Q-56.3 -427.35 -31.05 -429.25 L-22.55 -429.25 Q-11.65 -428.6 -10.8 -421.15 L-9.9 -418.0 -9.55 -413.0 -9.65 -404.9 -10.3 -396.75 -11.65 -388.65 -13.15 -383.4 -14.9 -380.5 Q-22.85 -371.0 -35.05 -373.0 -46.15 -372.8 -53.3 -380.5 L-55.4 -383.75 -57.15 -388.65 -60.3 -404.9 -61.3 -417.5 -60.3 -404.9 -57.15 -388.65 -55.4 -383.75 -53.3 -380.5 Q-46.15 -372.8 -35.05 -373.0 -22.85 -371.0 -14.9 -380.5 L-13.15 -383.4 -11.65 -388.65 -10.3 -396.75 -9.65 -404.9 -9.55 -413.0 -9.9 -418.0 -10.8 -421.15 Q-11.65 -428.6 -22.55 -429.25 L-31.05 -429.25 Q-56.3 -427.35 -60.55 -421.15 L-61.3 -417.5 M-51.05 -371.65 L-46.55 -369.65 -51.05 -371.65" fill="#43396f" fill-rule="evenodd" stroke="none"/>
    <path d="M49.35 -357.75 Q54.0 -340.55 49.95 -324.75 L47.7 -317.75 44.85 -311.5 Q43.4 -307.45 32.7 -291.15 L27.85 -280.75 Q25.25 -274.5 23.45 -267.25 L21.35 -256.65 Q18.6 -233.3 25.35 -211.9 L29.45 -204.25 37.1 -194.75 Q51.35 -185.8 62.1 -174.75 L66.1 -169.9 70.85 -165.25 73.85 -163.4 102.45 -148.5 115.95 -142.4 125.7 -135.0 138.85 -122.25 150.1 -109.65 Q168.1 -86.7 167.6 -86.0 L178.85 -65.4 Q193.9 -32.15 196.2 -24.9 204.9 -4.1 198.85 -5.5 193.6 -7.7 178.85 -31.15 L176.35 -34.9 Q177.85 -26.35 171.35 -30.5 168.75 -32.9 165.95 -37.25 L155.6 -55.5 154.65 -56.6 154.6 -56.65 Q154.7 -52.7 152.35 -53.5 L149.35 -55.25 147.2 -57.25 Q131.1 -76.65 123.45 -89.0 L116.7 -96.9 101.95 -112.0 88.2 -124.0 88.1 -124.0 91.85 -114.4 104.2 -68.4 106.95 -56.15 Q110.0 -50.7 105.35 -11.0 104.5 -7.25 96.45 11.0 L85.35 26.6 Q71.5 45.9 47.45 55.5 L47.2 57.25 52.85 69.1 53.35 71.25 Q56.95 78.05 44.6 73.6 L40.2 73.0 35.1 74.0 30.7 75.25 28.45 75.5 27.45 74.75 26.95 72.5 26.6 71.1 Q25.9 70.8 28.95 65.75 L26.1 64.25 24.45 62.85 9.85 66.5 Q8.35 74.55 2.35 76.85 -2.05 79.55 -6.9 66.5 L-21.55 62.85 -23.3 64.35 -26.05 65.75 -24.4 69.3 Q-21.25 77.9 -32.05 74.0 L-32.15 74.0 -32.15 73.85 -37.05 73.0 -41.55 73.5 -41.65 73.6 -49.05 75.35 -49.9 75.35 -50.65 74.5 -50.3 70.25 Q-48.15 64.15 -45.05 58.85 L-44.3 56.5 -44.3 56.25 Q-88.55 33.8 -102.3 -10.4 -106.5 -37.45 -104.4 -53.25 L-101.8 -66.25 -89.3 -112.75 -89.4 -112.75 -104.65 -90.0 -123.3 -57.65 -131.4 -45.65 -136.05 -40.65 -136.65 -40.0 -145.15 -24.25 -152.15 -12.25 -154.65 -9.15 -157.9 -7.25 -169.3 12.5 -177.8 25.0 -182.15 29.35 -183.65 29.35 -184.15 26.75 Q-173.05 -10.7 -161.4 -36.4 L-156.3 -47.4 -144.4 -70.0 -126.4 -102.0 -115.9 -119.4 Q-111.1 -126.5 -106.55 -131.65 L-93.05 -146.4 -83.3 -155.0 Q-79.05 -158.4 -67.3 -165.25 -58.05 -176.9 -47.8 -185.0 L-36.4 -192.5 -34.15 -194.75 -26.8 -203.9 -22.4 -211.9 Q-13.65 -244.7 -20.4 -266.75 L-24.15 -278.9 -27.65 -287.0 Q-31.15 -294.15 -37.15 -302.75 L-43.65 -315.25 -46.65 -323.5 -48.4 -331.5 Q-49.3 -337.35 -48.65 -345.4 L-46.55 -357.75 -44.65 -364.15 -42.9 -368.65 -40.65 -368.15 -38.3 -364.25 -34.05 -360.15 -29.55 -358.4 -31.4 -356.75 -32.8 -356.15 -33.4 -356.1 -35.4 -355.9 -36.8 -356.15 -39.05 -356.15 -40.4 -354.9 -39.8 -353.15 -36.55 -351.5 Q-30.55 -349.35 -27.05 -348.9 L-26.55 -348.0 -25.65 -346.75 -8.9 -331.75 Q1.15 -319.0 11.95 -331.75 L28.1 -345.9 29.6 -348.0 30.1 -348.5 29.95 -348.9 36.2 -350.4 Q41.0 -351.85 42.6 -353.0 L43.35 -354.9 41.95 -356.15 36.35 -355.9 36.1 -355.9 35.7 -356.15 34.35 -356.75 32.6 -358.25 Q38.35 -360.25 38.1 -360.75 L41.45 -364.25 43.85 -368.15 45.85 -368.65 47.6 -364.15 49.35 -357.75 M-3.65 -413.0 L1.95 -413.4 6.45 -413.0 7.7 -396.75 8.7 -389.9 8.6 -388.75 5.85 -393.5 4.45 -396.75 Q1.7 -409.05 -1.55 -396.75 L-3.05 -393.25 -5.15 -389.65 -5.4 -391.9 -5.4 -392.0 -5.3 -392.5 -3.65 -413.0 M26.95 72.5 L27.45 69.85 27.45 69.35 27.45 69.85 26.95 72.5 M31.85 61.85 L31.5 61.65 31.45 61.6 24.45 62.85 31.45 61.6 31.5 61.65 31.85 61.85 M176.35 -34.9 L171.2 -55.5 170.35 -62.0 171.2 -55.5 176.35 -34.9 M154.65 -56.6 L151.2 -75.25 151.2 -78.4 151.2 -75.25 154.65 -56.6 M39.7 -192.25 L39.45 -192.5 39.7 -192.25 M88.1 -124.0 L87.6 -124.5 88.1 -124.0 M-6.9 66.5 L2.6 67.35 9.85 66.5 2.6 67.35 -6.9 66.5 M28.95 65.75 Q31.85 61.95 31.5 61.65 31.85 61.95 28.95 65.75 M-44.3 56.5 L-44.15 56.25 -44.3 56.25 -44.15 56.25 -44.3 56.5 M-44.65 55.25 L-45.05 55.1 -44.65 55.25 M-157.9 -7.25 L-159.05 -7.75 -159.65 -9.5 -159.3 -14.9 -155.8 -33.4 -159.3 -14.9 -159.65 -9.5 -159.05 -7.75 -157.9 -7.25 M-136.05 -40.65 Q-140.75 -36.2 -139.55 -47.4 L-138.15 -59.0 -139.55 -47.4 Q-140.75 -36.2 -136.05 -40.65 M-89.4 -112.75 L-89.3 -112.9 -87.3 -118.0 -83.8 -123.5 -87.3 -118.0 -89.3 -112.9 -89.3 -112.75 -89.3 -112.9 -89.4 -112.75 M-26.05 65.75 Q-28.25 62.85 -28.55 62.0 L-28.6 61.75 -28.6 61.7 -28.55 61.6 -21.55 62.85 -28.55 61.6 -28.6 61.7 -28.6 61.75 -28.55 62.0 Q-28.25 62.85 -26.05 65.75 M-24.05 72.5 L-24.4 69.85 -24.4 69.3 -24.4 69.85 -24.05 72.5 M-32.15 73.85 L-32.05 74.0 -32.15 73.85" fill="#ffffff" fill-rule="evenodd" stroke="none"/>
    <path d="M-5.4 -391.9 L-5.15 -389.65 -5.4 -389.25 -5.65 -388.65 -6.3 -387.65 -5.4 -391.9 M8.6 -388.75 L8.7 -389.9 9.1 -388.65 9.2 -387.65 8.6 -388.65 8.6 -388.75 M43.85 -368.15 L41.45 -364.25 38.1 -360.75 Q38.35 -360.25 32.6 -358.25 L21.45 -369.75 21.6 -369.75 Q28.2 -366.1 43.85 -368.15 M-29.55 -358.4 L-34.05 -360.15 -38.3 -364.25 -40.65 -368.15 Q-25.25 -366.1 -18.55 -369.75 L-29.55 -358.4" fill="#ff7a16" fill-rule="evenodd" stroke="none"/>
    <path d="M44.6 73.6 L44.35 98.6 45.35 127.1 46.6 132.85 Q47.3 135.4 48.45 137.75 47.9 138.15 54.1 143.35 L63.35 150.0 79.45 156.35 Q91.7 162.15 94.45 164.25 L97.7 166.6 98.7 168.25 98.2 169.25 95.45 169.75 81.1 168.85 75.1 169.1 74.45 169.75 74.35 171.0 75.45 177.1 75.1 178.35 73.35 179.0 Q70.75 179.2 57.95 174.0 L52.35 173.0 46.1 174.85 37.45 179.5 35.1 180.1 34.2 179.75 33.85 179.1 33.45 177.6 34.35 171.1 Q34.5 168.05 38.95 158.25 L40.7 150.25 Q41.4 150.6 38.35 140.0 L37.2 133.25 36.45 93.35 35.1 74.0 40.2 73.0 44.6 73.6 M-32.15 74.0 L-33.4 97.35 -33.8 133.1 -34.4 139.75 -36.55 151.1 Q-35.4 157.2 -27.3 169.35 L-25.8 172.85 -23.65 179.85 Q-22.1 185.25 -31.8 180.1 L-39.15 177.25 -45.05 176.1 Q-46.9 175.55 -60.8 182.25 L-64.4 182.85 -65.8 182.6 -66.4 181.75 -66.65 175.5 -67.15 174.1 -68.55 173.1 -77.8 173.25 -88.8 174.5 -91.55 174.25 -92.15 173.85 -92.55 172.75 Q-89.75 166.8 -56.15 152.1 -48.9 146.6 -46.15 143.6 L-44.4 140.85 Q-42.75 136.5 -42.3 132.6 L-41.15 96.6 -41.55 73.6 -41.65 73.6 -41.55 73.5 -37.05 73.0 -32.15 73.85 -32.15 74.0 M-5.15 -389.65 L-3.05 -393.25 -1.55 -396.75 Q1.7 -409.05 4.45 -396.75 L5.85 -393.5 8.6 -388.75 8.6 -388.65 9.2 -387.65 15.7 -376.15 21.45 -369.9 21.45 -369.75 32.6 -358.25 34.35 -356.75 35.7 -356.15 36.1 -355.9 36.35 -355.9 41.95 -356.15 43.35 -354.9 42.6 -353.0 Q41.0 -351.85 36.2 -350.4 L29.95 -348.9 Q29.85 -350.1 26.7 -352.5 L18.7 -358.4 11.45 -369.9 8.85 -372.4 6.6 -373.65 2.45 -375.15 0.1 -375.0 Q-5.5 -373.1 -5.8 -372.4 L-8.55 -369.9 -15.8 -358.4 -24.3 -352.15 Q-27.15 -349.75 -27.05 -348.9 -30.55 -349.35 -36.55 -351.5 L-39.8 -353.15 -40.4 -354.9 -39.05 -356.15 -36.8 -356.15 -35.4 -355.9 -33.4 -356.1 -32.8 -356.15 -31.4 -356.75 -29.55 -358.4 -18.55 -369.75 -12.15 -377.0 -6.3 -387.65 -5.65 -388.65 -5.4 -389.25 -5.15 -389.65 M37.1 -355.65 L36.35 -355.9 37.1 -355.65 M-34.15 -355.65 L-33.4 -356.1 -34.15 -355.65 M-41.55 73.5 L-41.55 73.6 -41.55 73.5" fill="#fa410f" fill-rule="evenodd" stroke="none"/>
    <path d="M29.95 -348.9 L30.1 -348.5 29.6 -348.0 28.1 -345.9 11.95 -331.75 Q1.15 -319.0 -8.9 -331.75 L-25.65 -346.75 -26.55 -348.0 -27.05 -348.9 Q-27.15 -349.75 -24.3 -352.15 L-15.8 -358.4 -8.55 -369.9 -5.8 -372.4 Q-5.5 -373.1 0.1 -375.0 L2.45 -375.15 6.6 -373.65 8.85 -372.4 11.45 -369.9 18.7 -358.4 26.7 -352.5 Q29.85 -350.1 29.95 -348.9" fill="#fa420e" fill-rule="evenodd" stroke="none"/>
    <path d="M25.45 -429.25 Q14.1 -428.35 13.7 -421.15 L12.7 -417.4 12.6 -404.9 13.2 -396.75 14.6 -388.65 16.1 -383.4 17.85 -380.5 Q19.95 -374.55 32.1 -373.0 51.2 -372.5 56.35 -380.5 L58.7 -384.4 60.2 -388.65 61.95 -396.75 63.95 -409.5 64.35 -417.5 63.45 -421.15 Q59.2 -427.35 33.95 -429.25 L25.45 -429.25 M7.45 -422.5 L0.35 -422.65 -4.15 -421.0 -4.3 -418.75 -3.8 -416.0 Q1.25 -420.15 1.1 -419.25 L6.6 -416.25 6.85 -420.0 7.45 -421.15 8.2 -422.0 8.2 -422.5 7.45 -422.5 Q7.9 -426.5 11.6 -430.0 L17.45 -432.4 Q27.5 -435.2 56.35 -429.25 L62.7 -427.0 67.95 -423.65 70.45 -419.75 69.1 -409.4 Q71.35 -408.15 68.1 -402.4 63.7 -374.75 53.85 -371.65 L50.6 -363.4 49.35 -357.75 Q54.0 -340.55 49.95 -324.75 L47.7 -317.75 44.85 -311.5 Q43.4 -307.45 32.7 -291.15 L27.85 -280.75 Q25.25 -274.5 23.45 -267.25 L21.35 -256.65 Q18.6 -233.3 25.35 -211.9 L29.45 -204.25 37.1 -194.75 Q51.35 -185.8 62.1 -174.75 L66.1 -169.9 70.85 -165.25 73.85 -163.4 102.45 -148.5 115.95 -142.4 125.7 -135.0 138.85 -122.25 150.1 -109.65 Q168.1 -86.7 167.6 -86.0 L178.85 -65.4 Q193.9 -32.15 196.2 -24.9 204.9 -4.1 198.85 -5.5 193.6 -7.7 178.85 -31.15 L176.35 -34.9 Q177.85 -26.35 171.35 -30.5 168.75 -32.9 165.95 -37.25 L155.6 -55.5 154.65 -56.6 154.6 -56.65 Q154.7 -52.7 152.35 -53.5 L149.35 -55.25 147.2 -57.25 Q131.1 -76.65 123.45 -89.0 L116.7 -96.9 101.95 -112.0 88.2 -124.0 88.1 -124.0 91.85 -114.4 104.2 -68.4 106.95 -56.15 Q110.0 -50.7 105.35 -11.0 104.5 -7.25 96.45 11.0 L85.35 26.6 Q71.5 45.9 47.45 55.5 L47.2 57.25 52.85 69.1 53.35 71.25 Q56.95 78.05 44.6 73.6 L44.35 98.6 45.35 127.1 46.6 132.85 Q47.3 135.4 48.45 137.75 47.9 138.15 54.1 143.35 L63.35 150.0 79.45 156.35 Q91.7 162.15 94.45 164.25 L97.7 166.6 98.7 168.25 98.2 169.25 95.45 169.75 81.1 168.85 75.1 169.1 74.45 169.75 74.35 171.0 75.45 177.1 75.1 178.35 73.35 179.0 Q70.75 179.2 57.95 174.0 L52.35 173.0 46.1 174.85 37.45 179.5 35.1 180.1 34.2 179.75 33.85 179.1 33.45 177.6 34.35 171.1 Q34.5 168.05 38.95 158.25 L40.7 150.25 Q41.4 150.6 38.35 140.0 L37.2 133.25 36.45 93.35 35.1 74.0 30.7 75.25 28.45 75.5 27.45 74.75 26.95 72.5 26.6 71.1 Q25.9 70.8 28.95 65.75 L26.1 64.25 24.45 62.85 9.85 66.5 Q8.35 74.55 2.35 76.85 -2.05 79.55 -6.9 66.5 L-21.55 62.85 -23.3 64.35 -26.05 65.75 -24.4 69.3 Q-21.25 77.9 -32.05 74.0 L-32.15 74.0 -33.4 97.35 -33.8 133.1 -34.4 139.75 -36.55 151.1 Q-35.4 157.2 -27.3 169.35 L-25.8 172.85 -23.65 179.85 Q-22.1 185.25 -31.8 180.1 L-39.15 177.25 -45.05 176.1 Q-46.9 175.55 -60.8 182.25 L-64.4 182.85 -65.8 182.6 -66.4 181.75 -66.65 175.5 -67.15 174.1 -68.55 173.1 -77.8 173.25 -88.8 174.5 -91.55 174.25 -92.15 173.85 -92.55 172.75 Q-89.75 166.8 -56.15 152.1 -48.9 146.6 -46.15 143.6 L-44.4 140.85 Q-42.75 136.5 -42.3 132.6 L-41.15 96.6 -41.55 73.6 -41.65 73.6 -49.05 75.35 -49.9 75.35 -50.65 74.5 -50.3 70.25 Q-48.15 64.15 -45.05 58.85 L-44.3 56.5 -44.3 56.25 Q-88.55 33.8 -102.3 -10.4 -106.5 -37.45 -104.4 -53.25 L-101.8 -66.25 -89.3 -112.75 -89.4 -112.75 -104.65 -90.0 -123.3 -57.65 -131.4 -45.65 -136.05 -40.65 -136.65 -40.0 -145.15 -24.25 -152.15 -12.25 -154.65 -9.15 -157.9 -7.25 -169.3 12.5 -177.8 25.0 -182.15 29.35 -183.65 29.35 -184.15 26.75 Q-173.05 -10.7 -161.4 -36.4 L-156.3 -47.4 -144.4 -70.0 -126.4 -102.0 -115.9 -119.4 Q-111.1 -126.5 -106.55 -131.65 L-93.05 -146.4 -83.3 -155.0 Q-79.05 -158.4 -67.3 -165.25 -58.05 -176.9 -47.8 -185.0 L-36.4 -192.5 -34.15 -194.75 -26.8 -203.9 -22.4 -211.9 Q-13.65 -244.7 -20.4 -266.75 L-24.15 -278.9 -27.65 -287.0 Q-31.15 -294.15 -37.15 -302.75 L-43.65 -315.25 -46.65 -323.5 -48.4 -331.5 Q-49.3 -337.35 -48.65 -345.4 L-46.55 -357.75 -48.05 -364.65 -51.05 -371.65 -56.15 -375.9 -59.15 -380.4 -61.65 -386.65 -65.15 -402.4 Q-68.35 -408.4 -66.3 -409.4 L-67.4 -419.9 -64.8 -423.9 Q-59.9 -427.65 -54.55 -428.9 -17.05 -437.2 -8.05 -429.25 L-5.55 -426.15 -4.15 -421.0 M6.45 -413.0 L1.95 -413.4 -3.65 -413.0 -5.3 -392.5 -5.4 -392.0 -5.4 -391.9 -5.15 -389.65 -3.05 -393.25 -1.55 -396.75 Q1.7 -409.05 4.45 -396.75 L5.85 -393.5 8.6 -388.75 8.7 -389.9 7.7 -396.75 6.45 -413.0 6.6 -416.25 M68.1 -402.4 L69.1 -409.4 M47.6 -364.15 L49.45 -369.65 45.85 -368.65 47.6 -364.15 49.35 -357.75 M32.6 -358.25 Q38.35 -360.25 38.1 -360.75 L41.45 -364.25 43.85 -368.15 Q28.2 -366.1 21.6 -369.75 L21.45 -369.75 32.6 -358.25 34.35 -356.75 35.7 -356.15 36.1 -355.9 36.35 -355.9 41.95 -356.15 43.35 -354.9 42.6 -353.0 Q41.0 -351.85 36.2 -350.4 L29.95 -348.9 30.1 -348.5 29.6 -348.0 28.1 -345.9 11.95 -331.75 Q1.15 -319.0 -8.9 -331.75 L-25.65 -346.75 -26.55 -348.0 -27.05 -348.9 Q-30.55 -349.35 -36.55 -351.5 L-39.8 -353.15 -40.4 -354.9 -39.05 -356.15 -36.8 -356.15 -35.4 -355.9 -33.4 -356.1 -32.8 -356.15 -31.4 -356.75 -29.55 -358.4 -34.05 -360.15 -38.3 -364.25 -40.65 -368.15 -42.9 -368.65 -44.65 -364.15 -46.55 -357.75 M43.85 -368.15 L45.85 -368.65 M49.45 -369.65 L53.85 -371.65 M8.7 -389.9 L9.1 -388.65 9.2 -387.65 15.7 -376.15 21.45 -369.9 21.6 -369.75 M8.6 -388.75 L8.6 -388.65 9.2 -387.65 M29.95 -348.9 Q29.85 -350.1 26.7 -352.5 L18.7 -358.4 11.45 -369.9 8.85 -372.4 6.6 -373.65 2.45 -375.15 0.1 -375.0 Q-5.5 -373.1 -5.8 -372.4 L-8.55 -369.9 -15.8 -358.4 -24.3 -352.15 Q-27.15 -349.75 -27.05 -348.9 M21.45 -369.75 L21.45 -369.9 M36.35 -355.9 L37.1 -355.65 M87.6 -124.5 L88.1 -124.0 M39.45 -192.5 L39.7 -192.25 M151.2 -78.4 L151.2 -75.25 154.65 -56.6 M170.35 -62.0 L171.2 -55.5 176.35 -34.9 M24.45 62.85 L31.45 61.6 31.5 61.65 31.85 61.85 M27.45 69.35 L27.45 69.85 26.95 72.5 M44.6 73.6 L40.2 73.0 35.1 74.0 M31.5 61.65 Q31.85 61.95 28.95 65.75 M9.85 66.5 L2.6 67.35 -6.9 66.5 M-61.3 -417.5 L-60.3 -404.9 -57.15 -388.65 -55.4 -383.75 -53.3 -380.5 Q-46.15 -372.8 -35.05 -373.0 -22.85 -371.0 -14.9 -380.5 L-13.15 -383.4 -11.65 -388.65 -10.3 -396.75 -9.65 -404.9 -9.55 -413.0 -9.9 -418.0 -10.8 -421.15 Q-11.65 -428.6 -22.55 -429.25 L-31.05 -429.25 Q-56.3 -427.35 -60.55 -421.15 L-61.3 -417.5 M-65.15 -402.4 L-65.4 -404.9 -66.3 -409.4 M-3.65 -413.0 L-3.8 -416.0 M-6.3 -387.65 L-5.65 -388.65 -5.4 -389.25 -5.15 -389.65 M-5.4 -391.9 L-6.3 -387.65 -12.15 -377.0 -18.55 -369.75 -29.55 -358.4 M-33.4 -356.1 L-34.15 -355.65 M-42.9 -368.65 L-46.55 -369.65 -44.65 -364.15 M-46.55 -369.65 L-51.05 -371.65 M-18.55 -369.75 Q-25.25 -366.1 -40.65 -368.15 M-83.8 -123.5 L-87.3 -118.0 -89.3 -112.9 -89.3 -112.75 M-89.3 -112.9 L-89.4 -112.75 M-138.15 -59.0 L-139.55 -47.4 Q-140.75 -36.2 -136.05 -40.65 M-155.8 -33.4 L-159.3 -14.9 -159.65 -9.5 -159.05 -7.75 -157.9 -7.25 M-45.05 55.1 L-44.65 55.25 M-44.3 56.25 L-44.15 56.25 -44.3 56.5 M-41.55 73.6 L-41.55 73.5 -41.65 73.6 M-21.55 62.85 L-28.55 61.6 -28.6 61.7 -28.6 61.75 -28.55 62.0 Q-28.25 62.85 -26.05 65.75 M-32.15 74.0 L-32.15 73.85 -37.05 73.0 -41.55 73.5 M-32.05 74.0 L-32.15 73.85 M-24.4 69.3 L-24.4 69.85 -24.05 72.5" fill="none" stroke="#000000" stroke-linecap="round" stroke-linejoin="round" stroke-width="2.15"/>
  </g>
</svg>
