<?xml version="1.0" encoding="UTF-8" standalone="no"?>
<svg xmlns:xlink="http://www.w3.org/1999/xlink" height="548.15px" width="398.35px" xmlns="http://www.w3.org/2000/svg">
  <g transform="matrix(1.0, 0.0, 0.0, 1.0, 189.35, 362.35)">
    <path d="M62.95 -348.0 Q55.1 -356.1 41.2 -354.9 24.5 -356.1 16.6 -348.0 L14.2 -342.9 12.7 -334.75 13.35 -315.5 14.85 -303.75 16.2 -299.25 Q15.4 -299.45 19.35 -292.9 L23.35 -289.9 27.95 -288.65 35.1 -288.75 Q42.1 -289.85 45.1 -291.15 51.25 -293.35 54.2 -295.75 L57.45 -299.25 58.2 -299.9 60.7 -304.75 62.6 -310.75 64.1 -318.65 65.45 -331.75 65.35 -339.9 64.7 -344.15 62.95 -348.0 64.7 -344.15 65.35 -339.9 65.45 -331.75 64.1 -318.65 62.6 -310.75 60.7 -304.75 58.2 -299.9 57.45 -299.25 54.2 -295.75 Q51.25 -293.35 45.1 -291.15 42.1 -289.85 35.1 -288.75 L27.95 -288.65 23.35 -289.9 19.35 -292.9 Q15.4 -299.45 16.2 -299.25 L14.85 -303.75 13.35 -315.5 12.7 -334.75 14.2 -342.9 16.6 -348.0 Q24.5 -356.1 41.2 -354.9 55.1 -356.1 62.95 -348.0 M18.2 -357.5 Q27.15 -363.2 57.85 -358.65 L62.95 -356.65 67.45 -352.9 70.1 -346.9 Q71.45 -337.85 70.85 -338.0 73.2 -333.85 70.6 -331.9 68.4 -298.1 54.95 -290.5 48.4 -285.4 35.1 -283.25 16.5 -282.1 14.2 -291.15 L11.95 -294.25 9.7 -301.15 7.1 -318.75 6.7 -334.9 6.6 -335.0 2.85 -337.5 1.2 -338.15 -0.15 -337.5 -3.8 -334.5 -4.3 -318.65 -6.65 -301.9 -9.05 -294.25 -13.3 -288.0 -17.15 -284.9 -22.9 -283.15 Q-30.9 -282.85 -32.1 -283.2 L-32.3 -283.4 Q-41.9 -284.1 -52.05 -290.5 L-52.15 -290.5 -52.15 -290.65 Q-52.65 -290.15 -58.65 -296.65 L-61.9 -302.5 Q-64.5 -308.7 -65.8 -316.65 L-67.65 -331.9 Q-70.25 -334.35 -68.05 -338.0 L-67.15 -347.0 -64.8 -352.4 -60.3 -356.4 -58.3 -357.4 Q-38.55 -364.1 -15.3 -357.5 L-12.8 -356.15 -8.4 -352.5 -5.3 -346.15 -4.15 -339.9 -4.15 -339.75 -3.9 -339.9 1.45 -341.4 7.45 -341.65 8.2 -346.15 11.35 -352.5 15.7 -356.15 18.2 -357.5 M6.7 -334.9 L6.7 -335.0 7.1 -339.9 7.45 -341.65 7.1 -339.9 6.7 -335.0 6.7 -334.9 M6.6 -335.0 L6.7 -335.0 6.6 -335.0 M70.6 -331.9 L70.85 -338.0 70.6 -331.9 M-4.15 -339.75 L-4.4 -336.15 -3.8 -334.5 -4.4 -336.15 -4.15 -339.75 M-68.05 -338.0 L-67.65 -331.9 -68.05 -338.0 M-36.3 -354.9 Q-22.35 -356.1 -13.65 -348.0 L-11.15 -342.75 -10.05 -336.9 -9.9 -323.65 -10.4 -315.5 -11.9 -303.75 -13.3 -299.25 Q-12.5 -299.45 -16.4 -292.9 L-18.9 -291.15 Q-18.8 -289.9 -25.15 -288.65 L-31.4 -288.65 -37.4 -289.75 -42.15 -291.15 Q-50.05 -293.6 -54.4 -299.25 -54.85 -298.95 -57.05 -303.4 L-59.65 -310.9 -62.4 -331.75 -62.3 -339.9 -61.65 -344.25 -59.9 -348.0 Q-54.75 -355.6 -36.3 -354.9 -54.75 -355.6 -59.9 -348.0 L-61.65 -344.25 -62.3 -339.9 -62.4 -331.75 -59.65 -310.9 -57.05 -303.4 Q-54.85 -298.95 -54.4 -299.25 -50.05 -293.6 -42.15 -291.15 L-37.4 -289.75 -31.4 -288.65 -25.15 -288.65 Q-18.8 -289.9 -18.9 -291.15 L-16.4 -292.9 Q-12.5 -299.45 -13.3 -299.25 L-11.9 -303.75 -10.4 -315.5 -9.9 -323.65 -10.05 -336.9 -11.15 -342.75 -13.65 -348.0 Q-22.35 -356.1 -36.3 -354.9 M-52.15 -290.65 L-52.05 -290.5 -52.15 -290.65" fill="#43396f" fill-rule="evenodd" stroke="none"/>
    <path d="M54.95 -290.5 L54.45 -282.4 Q53.25 -274.75 50.35 -268.15 L47.6 -262.5 Q34.35 -243.0 31.6 -237.0 L26.7 -224.4 23.6 -212.65 Q18.75 -182.1 26.2 -165.75 27.0 -163.9 31.1 -159.5 L33.7 -156.9 33.95 -156.65 Q47.25 -148.65 54.85 -143.15 L60.1 -138.75 Q67.75 -131.65 72.7 -124.0 L76.35 -120.9 83.6 -117.65 97.6 -112.9 101.7 -112.25 118.6 -111.9 Q123.9 -111.2 129.45 -109.25 153.5 -99.3 164.35 -88.25 L171.85 -79.9 Q174.85 -76.65 180.35 -67.9 L194.1 -42.9 Q198.7 -33.7 205.85 -16.25 214.7 13.1 186.6 -23.0 L182.95 -28.25 182.15 -28.95 182.1 -29.0 184.2 -21.65 Q185.35 -17.35 184.95 -13.75 L183.95 -11.65 181.2 -11.65 Q175.25 -16.55 174.1 -18.9 L163.45 -36.0 161.35 -38.75 163.1 -30.15 Q163.25 -26.15 162.2 -25.65 L159.45 -25.5 156.95 -27.25 152.85 -31.0 134.7 -52.0 122.85 -63.9 Q103.65 -77.35 93.2 -81.0 L93.1 -81.0 104.2 -50.0 111.7 -20.9 112.7 -12.75 110.85 13.5 Q110.85 15.85 102.35 35.75 L89.6 53.85 76.7 67.5 Q63.6 78.05 50.95 82.35 L53.8 87.8 54.4 89.2 Q58.65 99.75 47.6 96.0 L42.35 95.0 37.6 95.6 32.2 97.0 29.1 97.25 27.95 95.75 28.1 90.25 14.35 93.75 2.35 95.6 -10.15 94.0 -25.3 90.25 -24.9 95.1 -26.05 97.1 -28.3 97.1 -34.4 95.6 -39.3 95.0 -44.3 95.85 Q-55.9 100.2 -51.4 89.2 L-50.45 87.0 -48.05 82.5 Q-75.25 70.55 -86.65 53.85 L-99.4 35.75 -106.65 17.6 -107.9 13.25 -109.65 -12.5 -108.8 -20.75 -101.3 -49.9 -92.3 -74.9 -92.55 -75.0 -105.4 -59.9 -117.4 -43.4 Q-120.15 -36.5 -138.9 -9.15 L-141.8 -6.0 -144.05 -4.25 -145.3 -4.25 -146.05 -4.9 -146.4 -6.5 -146.9 -6.0 Q-163.35 27.9 -166.05 17.6 L-166.05 15.0 -166.15 15.0 -166.4 15.0 -173.65 27.25 -181.05 37.6 -185.55 42.1 -187.9 42.35 -188.3 41.25 -188.3 38.75 -185.8 29.0 Q-164.9 -35.5 -138.05 -68.5 L-126.55 -82.9 Q-117.85 -92.85 -115.4 -94.5 -87.9 -113.7 -70.9 -122.65 -63.8 -133.0 -52.15 -142.9 L-43.3 -149.0 -31.35 -156.5 -31.15 -156.65 -31.05 -156.65 -25.8 -162.25 -25.65 -162.25 -25.55 -162.65 -25.4 -162.65 Q-14.75 -184.15 -20.8 -213.15 L-24.55 -226.65 -27.65 -234.75 -31.55 -242.4 Q-42.25 -257.3 -47.65 -268.65 -50.55 -275.85 -51.4 -281.75 L-52.15 -290.5 -52.05 -290.5 Q-41.9 -284.1 -32.3 -283.4 L-32.1 -283.2 -27.3 -278.75 -20.65 -273.4 -10.05 -261.25 -4.05 -255.5 1.35 -253.25 6.95 -255.5 15.35 -263.75 23.7 -273.5 25.2 -274.9 32.7 -280.9 35.1 -283.25 Q48.4 -285.4 54.95 -290.5 M-15.3 -357.5 Q2.45 -365.05 18.2 -357.5 L15.7 -356.15 11.35 -352.5 8.2 -346.15 7.45 -341.65 1.45 -341.4 -3.9 -339.9 -4.15 -339.75 -4.15 -339.9 -5.3 -346.15 -8.4 -352.5 -12.8 -356.15 -15.3 -357.5 M6.7 -334.9 L7.1 -318.75 Q1.25 -323.85 -4.3 -318.65 L-3.8 -334.5 -0.15 -337.5 1.2 -338.15 2.85 -337.5 6.6 -335.0 6.7 -334.9 M182.15 -28.95 L177.7 -45.25 177.45 -49.0 177.7 -45.25 182.15 -28.95 M91.7 -81.65 L93.1 -81.0 91.7 -81.65 M161.35 -38.75 L158.45 -50.5 158.6 -55.5 158.45 -50.5 161.35 -38.75 M34.6 -155.9 L33.7 -156.9 34.6 -155.9 M28.1 90.25 L43.45 85.25 50.95 82.35 43.45 85.25 28.1 90.25 M-25.3 90.25 L-39.15 85.75 -47.4 82.6 -48.05 82.5 -47.4 82.6 -39.15 85.75 -25.3 90.25 M-160.65 -14.15 L-160.65 -12.0 -166.15 15.0 -160.65 -12.0 -160.65 -14.15 M-146.55 -6.75 L-143.65 -28.75 -143.8 -30.25 -143.65 -28.75 -146.55 -6.75 M-92.15 -75.25 L-88.15 -79.9 -87.9 -80.15 -88.15 -79.9 -92.15 -75.25 M-31.8 -155.75 L-31.35 -156.5 -31.8 -155.75" fill="#ffffff" fill-rule="evenodd" stroke="none"/>
    <path d="M47.6 96.0 L51.45 120.35 51.1 126.25 47.85 140.35 48.1 143.75 Q48.6 145.4 49.6 146.85 49.35 147.35 53.1 149.35 L63.95 154.5 Q63.85 154.95 77.7 158.0 L86.6 161.25 97.1 166.5 Q101.35 168.9 101.1 170.1 L100.45 171.1 97.45 171.6 84.7 171.0 77.2 171.35 76.35 172.1 Q77.9 178.8 77.2 179.25 L76.45 180.25 72.45 180.1 59.85 176.1 53.95 175.25 47.6 177.1 38.7 181.6 36.45 182.1 35.35 181.5 Q33.85 172.75 42.35 157.5 L42.2 157.05 39.35 148.25 Q38.4 145.2 38.7 140.25 L39.7 134.25 43.35 122.35 42.85 117.1 37.6 95.6 42.35 95.0 47.6 96.0 M-34.4 95.6 Q-34.85 99.9 -39.05 116.5 L-39.55 120.1 Q-40.3 123.95 -35.55 140.35 L-35.15 145.1 -35.55 149.1 -37.5 158.35 -37.55 158.5 -34.8 163.85 -29.3 170.75 -26.55 176.5 Q-24.15 183.55 -24.8 183.35 L-25.55 184.5 -27.15 184.6 -28.55 184.35 -39.05 180.1 -46.3 178.5 Q-55.4 180.25 -62.55 184.0 L-65.8 184.5 Q-69.0 186.1 -68.4 177.75 L-69.05 176.25 -69.9 175.5 -70.8 175.35 Q-76.15 174.8 -90.55 176.5 L-94.15 176.1 -94.65 175.5 -94.65 174.5 -91.55 171.6 -84.15 167.25 -74.05 162.6 -60.15 158.75 -50.4 153.6 -46.05 150.35 -44.8 147.85 -44.05 143.25 -47.05 128.85 -47.65 121.75 -47.4 117.85 -44.3 95.85 -39.3 95.0 -34.4 95.6 M7.1 -318.75 L9.7 -301.15 11.95 -294.25 14.2 -291.15 Q16.5 -282.1 35.1 -283.25 L32.7 -280.9 25.2 -274.9 23.7 -273.5 14.95 -266.75 Q5.0 -257.95 0.85 -258.9 -1.9 -259.3 -4.15 -260.65 L-20.65 -273.4 -27.3 -278.75 -32.1 -283.2 Q-30.9 -282.85 -22.9 -283.15 L-17.15 -284.9 -13.3 -288.0 -9.05 -294.25 -6.65 -301.9 -4.3 -318.65 Q1.25 -323.85 7.1 -318.75 M42.2 157.05 L42.6 156.1 42.7 155.85 42.6 156.1 42.2 157.05 M-37.5 158.35 L-37.9 157.25 -37.5 158.35" fill="#fa410f" fill-rule="evenodd" stroke="none"/>
    <path d="M23.7 -273.5 L15.35 -263.75 6.95 -255.5 1.35 -253.25 -4.05 -255.5 -10.05 -261.25 -20.65 -273.4 -4.15 -260.65 Q-1.9 -259.3 0.85 -258.9 5.0 -257.95 14.95 -266.75 L23.7 -273.5" fill="#fa420e" fill-rule="evenodd" stroke="none"/>
    <path d="M62.95 -348.0 L64.7 -344.15 65.35 -339.9 65.45 -331.75 64.1 -318.65 62.6 -310.75 60.7 -304.75 58.2 -299.9 57.45 -299.25 54.2 -295.75 Q51.25 -293.35 45.1 -291.15 42.1 -289.85 35.1 -288.75 L27.95 -288.65 23.35 -289.9 19.35 -292.9 Q15.4 -299.45 16.2 -299.25 L14.85 -303.75 13.35 -315.5 12.7 -334.75 14.2 -342.9 16.6 -348.0 Q24.5 -356.1 41.2 -354.9 55.1 -356.1 62.95 -348.0 M18.2 -357.5 Q27.15 -363.2 57.85 -358.65 L62.95 -356.65 67.45 -352.9 70.1 -346.9 Q71.45 -337.85 70.85 -338.0 73.2 -333.85 70.6 -331.9 68.4 -298.1 54.95 -290.5 L54.45 -282.4 Q53.25 -274.75 50.35 -268.15 L47.6 -262.5 Q34.35 -243.0 31.6 -237.0 L26.7 -224.4 23.6 -212.65 Q18.75 -182.1 26.2 -165.75 27.0 -163.9 31.1 -159.5 L33.7 -156.9 33.95 -156.65 Q47.25 -148.65 54.85 -143.15 L60.1 -138.75 Q67.75 -131.65 72.7 -124.0 L76.35 -120.9 83.6 -117.65 97.6 -112.9 101.7 -112.25 118.6 -111.9 Q123.9 -111.2 129.45 -109.25 153.5 -99.3 164.35 -88.25 L171.85 -79.9 Q174.85 -76.65 180.35 -67.9 L194.1 -42.9 Q198.7 -33.7 205.85 -16.25 214.7 13.1 186.6 -23.0 L182.95 -28.25 182.15 -28.95 182.1 -29.0 184.2 -21.65 Q185.35 -17.35 184.95 -13.75 L183.95 -11.65 181.2 -11.65 Q175.25 -16.55 174.1 -18.9 L163.45 -36.0 161.35 -38.75 163.1 -30.15 Q163.25 -26.15 162.2 -25.65 L159.45 -25.5 156.95 -27.25 152.85 -31.0 134.7 -52.0 122.85 -63.9 Q103.65 -77.35 93.2 -81.0 L93.1 -81.0 104.2 -50.0 111.7 -20.9 112.7 -12.75 110.85 13.5 Q110.85 15.85 102.35 35.75 L89.6 53.85 76.7 67.5 Q63.6 78.05 50.95 82.35 L53.8 87.8 54.4 89.2 Q58.65 99.75 47.6 96.0 L51.45 120.35 51.1 126.25 47.85 140.35 48.1 143.75 Q48.6 145.4 49.6 146.85 49.35 147.35 53.1 149.35 L63.95 154.5 Q63.85 154.95 77.7 158.0 L86.6 161.25 97.1 166.5 Q101.35 168.9 101.1 170.1 L100.45 171.1 97.45 171.6 84.7 171.0 77.2 171.35 76.35 172.1 Q77.9 178.8 77.2 179.25 L76.45 180.25 72.45 180.1 59.85 176.1 53.95 175.25 47.6 177.1 38.7 181.6 36.45 182.1 35.35 181.5 Q33.85 172.75 42.35 157.5 L42.2 157.05 39.35 148.25 Q38.4 145.2 38.7 140.25 L39.7 134.25 43.35 122.35 42.85 117.1 37.6 95.6 32.2 97.0 29.1 97.25 27.95 95.75 28.1 90.25 14.35 93.75 2.35 95.6 -10.15 94.0 -25.3 90.25 -24.9 95.1 -26.05 97.1 -28.3 97.1 -34.4 95.6 Q-34.85 99.9 -39.05 116.5 L-39.55 120.1 Q-40.3 123.95 -35.55 140.35 L-35.15 145.1 -35.55 149.1 -37.5 158.35 -37.55 158.5 -34.8 163.85 -29.3 170.75 -26.55 176.5 Q-24.15 183.55 -24.8 183.35 L-25.55 184.5 -27.15 184.6 -28.55 184.35 -39.05 180.1 -46.3 178.5 Q-55.4 180.25 -62.55 184.0 L-65.8 184.5 Q-69.0 186.1 -68.4 177.75 L-69.05 176.25 -69.9 175.5 -70.8 175.35 Q-76.15 174.8 -90.55 176.5 L-94.15 176.1 -94.65 175.5 -94.65 174.5 -91.55 171.6 -84.15 167.25 -74.05 162.6 -60.15 158.75 -50.4 153.6 -46.05 150.35 -44.8 147.85 -44.05 143.25 -47.05 128.85 -47.65 121.75 -47.4 117.85 -44.3 95.85 Q-55.9 100.2 -51.4 89.2 L-50.45 87.0 -48.05 82.5 Q-75.25 70.55 -86.65 53.85 L-99.4 35.75 -106.65 17.6 -107.9 13.25 -109.65 -12.5 -108.8 -20.75 -101.3 -49.9 -92.3 -74.9 -92.55 -75.0 -105.4 -59.9 -117.4 -43.4 Q-120.15 -36.5 -138.9 -9.15 L-141.8 -6.0 -144.05 -4.25 -145.3 -4.25 -146.05 -4.9 -146.4 -6.5 -146.9 -6.0 Q-163.35 27.9 -166.05 17.6 L-166.05 15.0 -166.15 15.0 -166.4 15.0 -173.65 27.25 -181.05 37.6 -185.55 42.1 -187.9 42.35 -188.3 41.25 -188.3 38.75 -185.8 29.0 Q-164.9 -35.5 -138.05 -68.5 L-126.55 -82.9 Q-117.85 -92.85 -115.4 -94.5 -87.9 -113.7 -70.9 -122.65 -63.8 -133.0 -52.15 -142.9 L-43.3 -149.0 -31.35 -156.5 -31.15 -156.65 -31.05 -156.65 -25.8 -162.25 -25.65 -162.25 -25.55 -162.65 -25.4 -162.65 Q-14.75 -184.15 -20.8 -213.15 L-24.55 -226.65 -27.65 -234.75 -31.55 -242.4 Q-42.25 -257.3 -47.65 -268.65 -50.55 -275.85 -51.4 -281.75 L-52.15 -290.5 -52.15 -290.65 Q-52.65 -290.15 -58.65 -296.65 L-61.9 -302.5 Q-64.5 -308.7 -65.8 -316.65 L-67.65 -331.9 Q-70.25 -334.35 -68.05 -338.0 L-67.15 -347.0 -64.8 -352.4 -60.3 -356.4 -58.3 -357.4 Q-38.55 -364.1 -15.3 -357.5 2.45 -365.05 18.2 -357.5 L15.7 -356.15 11.35 -352.5 8.2 -346.15 7.45 -341.65 7.1 -339.9 6.7 -335.0 6.7 -334.9 7.1 -318.75 9.7 -301.15 11.95 -294.25 14.2 -291.15 Q16.5 -282.1 35.1 -283.25 48.4 -285.4 54.95 -290.5 M6.7 -334.9 L6.6 -335.0 2.85 -337.5 1.2 -338.15 -0.15 -337.5 -3.8 -334.5 -4.3 -318.65 Q1.25 -323.85 7.1 -318.75 M6.7 -335.0 L6.6 -335.0 M-15.3 -357.5 L-12.8 -356.15 -8.4 -352.5 -5.3 -346.15 -4.15 -339.9 -4.15 -339.75 -3.9 -339.9 1.45 -341.4 7.45 -341.65 M70.85 -338.0 L70.6 -331.9 M23.7 -273.5 L25.2 -274.9 32.7 -280.9 35.1 -283.25 M-20.65 -273.4 L-10.05 -261.25 -4.05 -255.5 1.35 -253.25 6.95 -255.5 15.35 -263.75 23.7 -273.5 14.95 -266.75 Q5.0 -257.95 0.85 -258.9 -1.9 -259.3 -4.15 -260.65 L-20.65 -273.4 -27.3 -278.75 -32.1 -283.2 -32.3 -283.4 Q-41.9 -284.1 -52.05 -290.5 L-52.15 -290.5 M33.7 -156.9 L34.6 -155.9 M158.6 -55.5 L158.45 -50.5 161.35 -38.75 M93.1 -81.0 L91.7 -81.65 M177.45 -49.0 L177.7 -45.25 182.15 -28.95 M47.6 96.0 L42.35 95.0 37.6 95.6 M50.95 82.35 L43.45 85.25 28.1 90.25 M42.7 155.85 L42.6 156.1 42.2 157.05 M-36.3 -354.9 Q-54.75 -355.6 -59.9 -348.0 L-61.65 -344.25 -62.3 -339.9 -62.4 -331.75 -59.65 -310.9 -57.05 -303.4 Q-54.85 -298.95 -54.4 -299.25 -50.05 -293.6 -42.15 -291.15 L-37.4 -289.75 -31.4 -288.65 -25.15 -288.65 Q-18.8 -289.9 -18.9 -291.15 L-16.4 -292.9 Q-12.5 -299.45 -13.3 -299.25 L-11.9 -303.75 -10.4 -315.5 -9.9 -323.65 -10.05 -336.9 -11.15 -342.75 -13.65 -348.0 Q-22.35 -356.1 -36.3 -354.9 M-67.65 -331.9 L-68.05 -338.0 M-3.8 -334.5 L-4.4 -336.15 -4.15 -339.75 M-32.1 -283.2 Q-30.9 -282.85 -22.9 -283.15 L-17.15 -284.9 -13.3 -288.0 -9.05 -294.25 -6.65 -301.9 -4.3 -318.65 M-52.05 -290.5 L-52.15 -290.65 M-31.35 -156.5 L-31.8 -155.75 M-87.9 -80.15 L-88.15 -79.9 -92.15 -75.25 M-143.8 -30.25 L-143.65 -28.75 -146.55 -6.75 M-166.15 15.0 L-160.65 -12.0 -160.65 -14.15 M-48.05 82.5 L-47.4 82.6 -39.15 85.75 -25.3 90.25 M-44.3 95.85 L-39.3 95.0 -34.4 95.6 M-37.9 157.25 L-37.5 158.35" fill="none" stroke="#000000" stroke-linecap="round" stroke-linejoin="round" stroke-width="2.15"/>
  </g>
</svg>
