<?xml version="1.0" encoding="UTF-8" standalone="no"?>
<svg xmlns:xlink="http://www.w3.org/1999/xlink" height="130.0px" width="74.35px" xmlns="http://www.w3.org/2000/svg">
  <g transform="matrix(1.0, 0.0, 0.0, 1.0, 0.5, 0.5)">
    <path d="M3.2 119.75 Q0.1 111.05 0.0 108.1 1.05 103.7 6.65 100.0 12.2 96.35 13.05 96.1 L12.35 47.35 33.95 14.4 37.3 0.0 51.75 3.05 54.3 13.2 71.0 46.7 62.55 96.35 Q61.85 93.7 62.6 88.55 L62.95 86.4 63.7 81.95 64.4 78.65 63.05 77.0 61.6 75.4 Q59.0 72.55 56.15 72.45 55.6 72.6 55.0 73.0 51.65 75.1 46.3 83.15 39.9 92.6 40.35 98.6 L41.5 101.85 Q43.15 106.35 46.2 112.3 49.05 117.9 50.45 121.95 L51.45 125.35 51.5 127.95 Q54.4 124.0 58.5 121.5 L61.95 119.2 64.5 117.55 64.3 117.8 Q56.85 122.35 51.6 128.3 L18.4 129.0 17.25 127.7 Q12.35 123.85 6.45 121.75 L3.65 119.75 3.2 119.75" fill="#ffffff" fill-rule="evenodd" stroke="none"/>
    <path d="M64.5 117.55 L61.95 119.2 58.5 121.5 Q54.4 124.0 51.5 127.95 L51.45 125.35 50.45 121.95 Q49.05 117.9 46.2 112.3 43.15 106.35 41.5 101.85 L40.35 98.6 Q39.9 92.6 46.3 83.15 51.65 75.1 55.0 73.0 55.6 72.6 56.15 72.45 59.0 72.55 61.6 75.4 L63.05 77.0 64.4 78.65 63.7 81.95 62.95 86.4 62.6 88.55 Q61.85 93.7 62.55 96.35 L62.6 96.5 64.55 99.3 64.85 99.75 66.5 102.0 67.5 103.3 67.95 103.9 Q71.6 108.65 72.05 112.35 L71.8 113.9 71.75 113.95 71.75 114.0 70.5 114.3 70.15 114.6 69.55 114.7 Q69.45 115.2 68.75 115.5 L68.15 115.75 67.7 115.7 Q66.05 116.55 64.5 117.55" fill="#9c5715" fill-rule="evenodd" stroke="none"/>
    <path d="M62.55 96.35 L71.0 46.7 54.3 13.2 51.75 3.05 37.3 0.0 33.95 14.4 12.35 47.35 13.05 96.1 Q12.2 96.35 6.65 100.0 1.05 103.7 0.0 108.1 0.1 111.05 3.2 119.75 M18.4 129.0 L51.6 128.3 M51.5 127.95 L51.45 125.35 50.45 121.95 Q49.05 117.9 46.2 112.3 43.15 106.35 41.5 101.85 L40.35 98.6 Q39.9 92.6 46.3 83.15 51.65 75.1 55.0 73.0 55.6 72.6 56.15 72.45 59.0 72.55 61.6 75.4 L63.05 77.0 64.4 78.65 63.7 81.95 62.95 86.4 62.6 88.55 Q61.85 93.7 62.55 96.35 L62.6 96.5 64.55 99.3 64.85 99.75 66.5 102.0 67.5 103.3 67.95 103.9 Q71.6 108.65 72.05 112.35 L71.8 113.9 71.75 113.95 71.75 114.0" fill="none" stroke="#000000" stroke-linecap="round" stroke-linejoin="round" stroke-width="1.0"/>
    <path d="M54.4 13.6 L58.7 19.6 55.25 19.4 54.4 13.6" fill="#ffffff" fill-rule="evenodd" stroke="none"/>
    <path d="M54.4 13.6 L58.7 19.6 M54.4 13.6 L54.35 13.5 53.05 3.95" fill="none" stroke="#000000" stroke-linecap="round" stroke-linejoin="round" stroke-width="1.0"/>
    <path d="M58.7 19.6 L59.9 21.35 62.0 24.45 65.25 29.8 69.65 37.8 70.3 38.6 Q72.3 41.15 73.35 43.25 70.6 44.55 68.25 46.55 L68.05 46.85 67.3 47.0 66.9 47.7 Q64.35 50.0 60.85 49.7 L59.6 49.65 59.55 49.7 55.25 19.4 58.7 19.6" fill="#ffffff" fill-rule="evenodd" stroke="none"/>
    <path d="M58.7 19.6 L59.9 21.35 62.0 24.45 65.25 29.8 69.65 37.8 70.3 38.6 Q72.3 41.15 73.35 43.25" fill="none" stroke="#000000" stroke-linecap="round" stroke-linejoin="round" stroke-width="1.0"/>
    <path d="M52.6 24.15 L53.4 18.1 54.05 13.6 58.4 19.05 Q62.35 24.15 65.55 29.8 L70.8 39.8 65.1 40.45 Q60.05 40.9 57.15 39.55 54.9 37.5 53.7 31.95 52.5 26.35 52.6 24.15" fill="#9c5715" fill-rule="evenodd" stroke="none"/>
    <path d="M52.6 24.15 Q52.5 26.35 53.7 31.95 54.9 37.5 57.15 39.55 60.05 40.9 65.1 40.45 L70.8 39.8 65.55 29.8 Q62.35 24.15 58.4 19.05 L54.05 13.6 53.4 18.1 52.6 24.15 Z" fill="none" stroke="#000000" stroke-linecap="round" stroke-linejoin="round" stroke-width="1.0"/>
    <path d="M12.8 81.85 L12.4 47.5 32.7 15.7 35.55 25.0 Q38.05 33.5 38.95 38.5 39.65 46.05 37.55 55.75 36.5 59.45 30.0 65.9 23.45 72.3 17.15 77.6 13.8 80.35 12.8 81.85" fill="#9c5715" fill-rule="evenodd" stroke="none"/>
    <path d="M12.8 81.85 L12.4 47.5 32.7 15.7 35.55 25.0 Q38.05 33.5 38.95 38.5 39.65 46.05 37.55 55.75 36.5 59.45 30.0 65.9 23.45 72.3 17.15 77.6 13.8 80.35 12.8 81.85 L12.8 83.4 Q11.85 83.15 12.8 81.85 Z" fill="none" stroke="#000000" stroke-linecap="round" stroke-linejoin="round" stroke-width="1.0"/>
    <path d="M28.2 19.5 Q31.65 16.35 33.05 15.15 L31.6 19.85 28.05 19.65 28.2 19.5" fill="#9c5715" fill-rule="evenodd" stroke="none"/>
    <path d="M33.05 15.15 L33.95 14.5 36.45 4.2 M28.2 19.5 Q31.65 16.35 33.05 15.15 Z" fill="none" stroke="#000000" stroke-linecap="round" stroke-linejoin="round" stroke-width="1.0"/>
    <path d="M28.05 19.65 L31.6 19.85 22.2 50.55 19.9 50.1 19.2 48.95 13.05 43.2 11.95 43.15 11.55 42.7 Q10.3 42.25 10.65 40.9 L10.4 40.85 Q11.25 39.35 12.85 37.8 15.15 35.5 17.35 32.3 22.7 24.45 28.05 19.65" fill="#9c5715" fill-rule="evenodd" stroke="none"/>
    <path d="M28.05 19.65 Q22.7 24.45 17.35 32.3 15.15 35.5 12.85 37.8 11.25 39.35 10.4 40.85" fill="none" stroke="#000000" stroke-linecap="round" stroke-linejoin="round" stroke-width="1.0"/>
  </g>
</svg>
