<?xml version="1.0" encoding="UTF-8" standalone="no"?>
<svg xmlns:xlink="http://www.w3.org/1999/xlink" height="478.3px" width="425.75px" xmlns="http://www.w3.org/2000/svg">
  <g transform="matrix(1.0, 0.0, 0.0, 1.0, 200.0, 290.75)">
    <path d="M45.2 -267.25 Q53.45 -267.85 60.2 -267.15 L67.35 -265.5 72.35 -262.65 75.2 -257.75 76.35 -251.15 Q78.9 -247.15 76.2 -245.65 76.35 -213.7 52.45 -204.5 L49.35 -203.25 43.7 -201.75 42.45 -201.25 33.95 -199.9 27.2 -199.65 Q20.75 -200.1 19.6 -201.75 L17.1 -203.15 Q11.1 -209.8 12.1 -209.9 L10.2 -214.5 8.7 -220.9 6.95 -236.75 7.2 -242.5 7.2 -242.65 7.2 -244.9 7.95 -248.4 7.2 -244.9 7.2 -242.65 7.2 -242.5 7.1 -242.65 Q2.15 -245.45 0.95 -245.0 L-4.3 -241.9 -4.8 -242.4 -4.65 -246.75 -4.8 -242.4 -4.3 -241.9 -4.05 -236.75 -5.65 -221.65 -7.3 -214.4 -9.15 -209.9 Q-10.65 -205.45 -16.65 -201.75 -23.0 -198.7 -31.05 -199.9 L-34.4 -200.25 -45.55 -203.0 -49.65 -204.65 Q-73.35 -213.95 -73.3 -245.5 L-73.4 -245.65 Q-75.85 -247.4 -73.55 -251.15 L-73.4 -251.25 Q-73.15 -259.1 -69.4 -262.65 L-64.4 -265.5 -57.15 -267.15 Q-50.35 -267.85 -42.3 -267.25 L-41.55 -267.25 -35.15 -266.75 Q-21.65 -266.45 -11.15 -259.4 L-10.15 -258.65 Q-6.75 -254.7 -5.55 -250.5 L-4.65 -246.75 0.95 -248.0 7.95 -248.4 9.2 -252.9 12.2 -258.0 14.6 -259.75 Q23.35 -266.0 38.1 -266.75 L44.7 -267.25 45.2 -267.25 M66.7 -258.65 L67.35 -258.25 69.6 -254.5 70.6 -249.5 70.35 -242.4 69.45 -234.25 67.85 -226.15 66.1 -221.0 64.2 -218.0 Q60.85 -212.85 54.45 -209.9 22.6 -198.4 18.7 -209.9 18.35 -209.15 15.95 -215.9 L14.7 -222.0 13.6 -234.25 13.7 -242.4 14.85 -248.65 18.1 -254.25 Q22.35 -258.1 25.6 -258.65 58.25 -265.65 66.7 -258.65 58.25 -265.65 25.6 -258.65 22.35 -258.1 18.1 -254.25 L14.85 -248.65 13.7 -242.4 13.6 -234.25 14.7 -222.0 15.95 -215.9 Q18.35 -209.15 18.7 -209.9 22.6 -198.4 54.45 -209.9 60.85 -212.85 64.2 -218.0 L66.1 -221.0 67.85 -226.15 69.45 -234.25 70.35 -242.4 70.6 -249.5 69.6 -254.5 67.35 -258.25 66.7 -258.65 M7.2 -242.65 L7.1 -242.65 7.2 -242.65 M76.2 -245.65 L76.35 -251.15 76.2 -245.65 M-73.4 -251.25 L-73.4 -251.15 -73.55 -251.15 -73.4 -251.15 -73.4 -251.25 M-15.15 -254.25 L-11.9 -248.65 -10.8 -242.4 -10.65 -234.25 -11.8 -222.0 -13.05 -215.9 Q-15.4 -209.15 -15.8 -209.9 -25.15 -198.4 -51.55 -209.9 L-56.8 -213.15 Q-61.1 -216.7 -61.15 -218.0 L-62.9 -220.75 -64.8 -226.15 -66.4 -234.25 -67.3 -242.4 -67.55 -249.65 -66.4 -254.65 -63.8 -258.65 Q-49.35 -265.65 -22.65 -258.65 -19.4 -258.1 -15.15 -254.25 -19.4 -258.1 -22.65 -258.65 -49.35 -265.65 -63.8 -258.65 L-66.4 -254.65 -67.55 -249.65 -67.3 -242.4 -66.4 -234.25 -64.8 -226.15 -62.9 -220.75 -61.15 -218.0 Q-61.1 -216.7 -56.8 -213.15 L-51.55 -209.9 Q-25.15 -198.4 -15.8 -209.9 -15.4 -209.15 -13.05 -215.9 L-11.8 -222.0 -10.65 -234.25 -10.8 -242.4 -11.9 -248.65 -15.15 -254.25 M-73.4 -245.65 L-73.3 -245.65 -73.3 -245.5 -73.3 -245.65 -73.4 -245.65 M-73.3 -245.65 L-73.4 -251.15 -73.3 -245.65" fill="#43396f" fill-rule="evenodd" stroke="none"/>
    <path d="M52.45 -204.5 Q51.6 -201.6 37.2 -186.9 L32.6 -180.25 28.7 -172.5 25.6 -163.4 Q20.2 -143.05 27.85 -125.65 L35.6 -118.15 54.7 -107.65 Q59.75 -105.05 65.1 -100.9 L72.7 -94.5 Q81.15 -84.45 82.35 -84.65 L89.95 -81.5 Q95.35 -79.7 102.2 -78.65 L106.6 -78.4 Q109.9 -77.95 134.45 -82.25 L145.2 -81.9 155.85 -79.9 Q181.6 -75.7 202.35 -45.25 223.65 -14.45 224.7 -4.9 224.75 5.1 203.1 -14.9 L196.2 -21.75 Q202.35 -8.55 201.45 -2.75 L200.7 -1.0 199.7 -0.5 197.95 -0.5 Q195.25 1.4 175.35 -23.4 L175.2 -23.4 177.1 -18.0 178.95 -10.9 Q179.4 -8.7 178.1 -6.75 L175.35 -6.5 173.35 -7.25 169.45 -9.65 Q167.1 -10.95 148.7 -27.0 L133.95 -37.75 Q126.45 -41.2 116.45 -44.4 L101.85 -48.0 101.55 -47.8 101.45 -47.75 113.2 -21.25 121.45 5.75 122.45 12.75 120.2 37.0 111.2 56.35 99.35 71.35 82.45 86.5 Q74.75 93.05 56.85 100.35 L57.7 102.0 Q59.25 107.8 59.1 109.85 L58.2 111.5 Q56.75 111.9 51.6 110.6 L45.1 109.6 40.7 110.1 33.45 111.6 31.2 111.6 30.1 110.6 29.6 109.1 12.85 112.5 4.95 113.0 4.45 113.1 3.7 113.1 2.85 113.25 0.1 113.25 -0.8 113.1 -1.65 113.1 -1.9 113.0 -9.65 112.5 -26.8 109.1 -26.8 110.0 -27.9 111.5 -30.15 111.6 -37.3 110.1 -42.05 109.6 -47.9 110.5 Q-61.15 115.05 -53.9 100.35 L-60.4 97.6 -60.55 97.5 Q-78.8 92.45 -107.55 57.5 L-109.55 54.0 -117.3 37.1 -119.4 13.0 -118.65 6.25 -110.4 -20.75 -100.4 -43.4 -100.65 -43.5 -108.15 -37.5 -116.15 -30.25 -125.65 -20.25 -144.8 4.25 Q-149.4 10.0 -154.05 14.25 -159.8 19.45 -159.55 10.75 L-167.8 23.75 Q-172.05 29.65 -175.3 31.35 -180.9 31.9 -178.05 22.75 L-178.15 22.75 -184.8 31.6 -192.4 40.0 Q-200.0 46.7 -198.8 38.5 -180.8 -10.35 -166.3 -28.9 -152.55 -47.2 -135.8 -59.25 L-130.3 -63.0 -123.9 -66.5 Q-117.25 -69.6 -110.3 -70.9 L-98.4 -76.0 -98.3 -76.0 -98.15 -76.15 -98.05 -76.15 -97.9 -76.25 -97.8 -76.25 -78.3 -85.15 Q-74.8 -87.6 -69.8 -94.25 L-61.9 -101.0 -56.4 -104.9 -32.9 -118.0 -32.8 -118.0 -32.3 -118.5 -32.15 -118.5 -25.65 -124.75 -25.55 -124.75 -25.4 -125.15 -25.3 -125.15 Q-16.3 -146.7 -23.8 -167.0 -26.15 -174.15 -28.05 -177.25 L-32.3 -184.25 Q-47.6 -200.6 -49.65 -204.65 L-45.55 -203.0 -34.4 -200.25 -31.05 -199.9 -10.65 -169.25 -5.9 -161.15 -2.15 -153.0 Q0.95 -143.25 5.1 -153.0 L8.85 -161.15 13.6 -169.25 33.95 -199.9 42.45 -201.25 43.7 -201.75 49.35 -203.25 52.45 -204.5 M-42.3 -267.25 Q-29.55 -282.65 -11.8 -288.0 9.75 -293.05 26.6 -283.0 L36.7 -276.25 Q38.2 -275.55 45.2 -267.25 L44.7 -267.25 Q29.85 -277.25 18.95 -266.75 L16.1 -263.4 14.6 -259.75 12.2 -258.0 9.2 -252.9 7.95 -248.4 0.95 -248.0 -4.65 -246.75 -5.55 -250.5 Q-6.75 -254.7 -10.15 -258.65 L-11.15 -259.4 -13.3 -263.9 -15.65 -266.75 Q-25.75 -277.3 -41.55 -267.25 L-42.3 -267.25 M7.2 -242.5 L6.95 -236.75 Q2.2 -240.05 -4.05 -236.75 L-4.3 -241.9 0.95 -245.0 Q2.15 -245.45 7.1 -242.65 L7.2 -242.5 M175.2 -23.4 L175.2 -23.65 172.95 -29.75 172.45 -34.25 172.85 -36.15 172.45 -34.25 172.95 -29.75 175.2 -23.65 175.35 -23.4 175.2 -23.65 175.2 -23.4 M196.2 -21.75 L193.95 -27.4 192.1 -36.4 193.95 -27.4 196.2 -21.75 M100.2 -48.0 L100.85 -48.25 101.55 -47.8 100.85 -48.25 100.2 -48.0 M29.6 109.1 L45.6 104.5 56.85 100.35 45.6 104.5 29.6 109.1 M-100.4 -43.4 L-96.15 -46.9 -100.4 -43.4 M-159.15 10.6 L-155.65 -6.75 -155.3 -11.9 -155.65 -6.75 -159.15 10.6 M-98.3 -76.0 L-98.3 -75.9 -98.4 -75.9 -98.4 -76.0 -98.4 -75.9 -98.3 -75.9 -98.3 -76.0 M-53.9 100.35 L-42.65 104.5 -26.8 109.1 -42.65 104.5 -53.9 100.35 M-178.15 22.75 L-177.9 22.5 -174.15 9.5 -172.3 1.35 -171.8 -3.9 -172.3 1.35 -174.15 9.5 -177.9 22.5 -178.05 22.75 -177.9 22.5 -178.15 22.75" fill="#ffffff" fill-rule="evenodd" stroke="none"/>
    <path d="M44.7 -267.25 L38.1 -266.75 Q23.35 -266.0 14.6 -259.75 L16.1 -263.4 18.95 -266.75 Q29.85 -277.25 44.7 -267.25 M-41.55 -267.25 Q-25.75 -277.3 -15.65 -266.75 L-13.3 -263.9 -11.15 -259.4 Q-21.65 -266.45 -35.15 -266.75 L-41.55 -267.25" fill="#ff7a16" fill-rule="evenodd" stroke="none"/>
    <path d="M51.6 110.6 L56.6 130.75 Q56.9 132.8 55.95 136.1 L50.35 144.6 50.2 147.5 51.6 149.5 54.85 151.6 66.45 156.75 Q68.35 157.7 79.2 159.75 L87.45 162.35 97.95 167.0 Q105.0 170.9 103.85 171.1 L103.95 171.75 103.2 172.5 101.6 172.75 85.6 172.25 79.7 172.6 78.7 173.5 79.7 180.1 79.2 181.5 78.45 181.85 75.2 181.85 61.1 177.5 55.7 176.6 Q50.1 177.8 47.45 179.25 L39.95 183.1 37.7 183.75 36.6 183.5 Q33.45 179.25 43.85 159.0 L43.7 158.75 Q35.25 142.4 47.6 133.35 L47.7 133.35 Q48.9 132.4 47.35 128.75 L40.7 110.1 45.1 109.6 51.6 110.6 M-37.3 110.1 L-43.4 129.25 -43.55 133.6 Q-44.15 133.85 -39.3 140.1 L-37.15 145.35 -36.9 150.5 -38.8 160.55 -38.9 160.85 -36.15 165.85 Q-31.25 171.1 -29.55 174.35 L-26.9 180.0 Q-25.05 184.85 -25.65 185.25 L-25.9 186.0 -26.65 186.5 -29.8 186.0 -37.15 182.75 Q-41.15 181.05 -46.65 180.1 -49.8 179.15 -63.9 185.5 L-68.15 186.25 -69.05 186.1 -70.15 185.25 -70.8 178.35 -71.05 177.75 -72.3 176.85 -77.3 176.75 -96.55 177.6 -97.55 177.0 Q-100.55 176.85 -89.05 170.25 L-79.15 165.75 Q-71.5 162.9 -63.05 161.35 L-59.65 160.0 -49.8 154.5 -47.8 152.75 -46.55 150.35 -46.3 147.1 Q-50.85 140.05 -52.15 133.75 L-52.05 129.25 -47.9 110.5 -42.05 109.6 -37.3 110.1 M6.95 -236.75 L8.7 -220.9 10.2 -214.5 12.1 -209.9 Q11.1 -209.8 17.1 -203.15 L19.6 -201.75 Q20.75 -200.1 27.2 -199.65 L33.95 -199.9 13.6 -169.25 8.85 -161.15 5.1 -153.0 Q0.95 -143.25 -2.15 -153.0 L-5.9 -161.15 -10.65 -169.25 -31.05 -199.9 Q-23.0 -198.7 -16.65 -201.75 -10.65 -205.45 -9.15 -209.9 L-7.3 -214.4 -5.65 -221.65 -4.05 -236.75 Q2.2 -240.05 6.95 -236.75 M43.85 159.0 L43.85 158.85 43.7 158.75 43.85 158.85 43.85 159.0 M44.0 157.95 L43.85 157.5 44.0 157.95 M47.7 133.35 L47.7 133.5 47.6 133.5 47.6 133.35 47.6 133.5 47.7 133.5 47.7 133.35 M-38.8 160.55 L-39.05 160.1 -38.8 160.55" fill="#fa410f" fill-rule="evenodd" stroke="none"/>
    <path d="M45.2 -267.25 Q53.45 -267.85 60.2 -267.15 L67.35 -265.5 72.35 -262.65 75.2 -257.75 76.35 -251.15 Q78.9 -247.15 76.2 -245.65 76.35 -213.7 52.45 -204.5 51.6 -201.6 37.2 -186.9 L32.6 -180.25 28.7 -172.5 25.6 -163.4 Q20.2 -143.05 27.85 -125.65 L35.6 -118.15 54.7 -107.65 Q59.75 -105.05 65.1 -100.9 L72.7 -94.5 Q81.15 -84.45 82.35 -84.65 L89.95 -81.5 Q95.35 -79.7 102.2 -78.65 L106.6 -78.4 Q109.9 -77.95 134.45 -82.25 L145.2 -81.9 155.85 -79.9 Q181.6 -75.7 202.35 -45.25 223.65 -14.45 224.7 -4.9 224.75 5.1 203.1 -14.9 L196.2 -21.75 Q202.35 -8.55 201.45 -2.75 L200.7 -1.0 199.7 -0.5 197.95 -0.5 Q195.25 1.4 175.35 -23.4 L175.2 -23.4 177.1 -18.0 178.95 -10.9 Q179.4 -8.7 178.1 -6.75 L175.35 -6.5 173.35 -7.25 169.45 -9.65 Q167.1 -10.95 148.7 -27.0 L133.95 -37.75 Q126.45 -41.2 116.45 -44.4 L101.85 -48.0 101.55 -47.8 101.45 -47.75 113.2 -21.25 121.45 5.75 122.45 12.75 120.2 37.0 111.2 56.35 99.35 71.35 82.45 86.5 Q74.75 93.05 56.85 100.35 L57.7 102.0 Q59.25 107.8 59.1 109.85 L58.2 111.5 Q56.75 111.9 51.6 110.6 L56.6 130.75 Q56.9 132.8 55.95 136.1 L50.35 144.6 50.2 147.5 51.6 149.5 54.85 151.6 66.45 156.75 Q68.35 157.7 79.2 159.75 L87.45 162.35 97.95 167.0 Q105.0 170.9 103.85 171.1 L103.95 171.75 103.2 172.5 101.6 172.75 85.6 172.25 79.7 172.6 78.7 173.5 79.7 180.1 79.2 181.5 78.45 181.85 75.2 181.85 61.1 177.5 55.7 176.6 Q50.1 177.8 47.45 179.25 L39.95 183.1 37.7 183.75 36.6 183.5 Q33.45 179.25 43.85 159.0 L43.7 158.75 Q35.25 142.4 47.6 133.35 L47.7 133.35 Q48.9 132.4 47.35 128.75 L40.7 110.1 33.45 111.6 31.2 111.6 30.1 110.6 29.6 109.1 12.85 112.5 4.95 113.0 4.45 113.1 3.7 113.1 2.85 113.25 0.1 113.25 -0.8 113.1 -1.65 113.1 -1.9 113.0 -9.65 112.5 -26.8 109.1 -26.8 110.0 -27.9 111.5 -30.15 111.6 -37.3 110.1 -43.4 129.25 -43.55 133.6 Q-44.15 133.85 -39.3 140.1 L-37.15 145.35 -36.9 150.5 -38.8 160.55 -38.9 160.85 -36.15 165.85 Q-31.25 171.1 -29.55 174.35 L-26.9 180.0 Q-25.05 184.85 -25.65 185.25 L-25.9 186.0 -26.65 186.5 -29.8 186.0 -37.15 182.75 Q-41.15 181.05 -46.65 180.1 -49.8 179.15 -63.9 185.5 L-68.15 186.25 -69.05 186.1 -70.15 185.25 -70.8 178.35 -71.05 177.75 -72.3 176.85 -77.3 176.75 -96.55 177.6 -97.55 177.0 Q-100.55 176.85 -89.05 170.25 L-79.15 165.75 Q-71.5 162.9 -63.05 161.35 L-59.65 160.0 -49.8 154.5 -47.8 152.75 -46.55 150.35 -46.3 147.1 Q-50.85 140.05 -52.15 133.75 L-52.05 129.25 -47.9 110.5 Q-61.15 115.05 -53.9 100.35 L-60.4 97.6 -60.55 97.5 Q-78.8 92.45 -107.55 57.5 L-109.55 54.0 -117.3 37.1 -119.4 13.0 -118.65 6.25 -110.4 -20.75 -100.4 -43.4 -100.65 -43.5 -108.15 -37.5 -116.15 -30.25 -125.65 -20.25 -144.8 4.25 Q-149.4 10.0 -154.05 14.25 -159.8 19.45 -159.55 10.75 L-167.8 23.75 Q-172.05 29.65 -175.3 31.35 -180.9 31.9 -178.05 22.75 L-178.15 22.75 -184.8 31.6 -192.4 40.0 Q-200.0 46.7 -198.8 38.5 -180.8 -10.35 -166.3 -28.9 -152.55 -47.2 -135.8 -59.25 L-130.3 -63.0 -123.9 -66.5 Q-117.25 -69.6 -110.3 -70.9 L-98.4 -76.0 -98.3 -76.0 -98.15 -76.15 -98.05 -76.15 -97.9 -76.25 -97.8 -76.25 -78.3 -85.15 Q-74.8 -87.6 -69.8 -94.25 L-61.9 -101.0 -56.4 -104.9 -32.9 -118.0 -32.8 -118.0 -32.3 -118.5 -32.15 -118.5 -25.65 -124.75 -25.55 -124.75 -25.4 -125.15 -25.3 -125.15 Q-16.3 -146.7 -23.8 -167.0 -26.15 -174.15 -28.05 -177.25 L-32.3 -184.25 Q-47.6 -200.6 -49.65 -204.65 -73.35 -213.95 -73.3 -245.5 L-73.4 -245.65 Q-75.85 -247.4 -73.55 -251.15 L-73.4 -251.25 Q-73.15 -259.1 -69.4 -262.65 L-64.4 -265.5 -57.15 -267.15 Q-50.35 -267.85 -42.3 -267.25 -29.55 -282.65 -11.8 -288.0 9.75 -293.05 26.6 -283.0 L36.7 -276.25 Q38.2 -275.55 45.2 -267.25 L44.7 -267.25 38.1 -266.75 Q23.35 -266.0 14.6 -259.75 L12.2 -258.0 9.2 -252.9 7.95 -248.4 7.2 -244.9 7.2 -242.65 7.2 -242.5 6.95 -236.75 8.7 -220.9 10.2 -214.5 12.1 -209.9 Q11.1 -209.8 17.1 -203.15 L19.6 -201.75 Q20.75 -200.1 27.2 -199.65 L33.95 -199.9 42.45 -201.25 43.7 -201.75 49.35 -203.25 52.45 -204.5 M66.7 -258.65 Q58.25 -265.65 25.6 -258.65 22.35 -258.1 18.1 -254.25 L14.85 -248.65 13.7 -242.4 13.6 -234.25 14.7 -222.0 15.95 -215.9 Q18.35 -209.15 18.7 -209.9 22.6 -198.4 54.45 -209.9 60.85 -212.85 64.2 -218.0 L66.1 -221.0 67.85 -226.15 69.45 -234.25 70.35 -242.4 70.6 -249.5 69.6 -254.5 67.35 -258.25 66.7 -258.65 M7.95 -248.4 L0.95 -248.0 -4.65 -246.75 -4.8 -242.4 -4.3 -241.9 0.95 -245.0 Q2.15 -245.45 7.1 -242.65 L7.2 -242.65 M44.7 -267.25 Q29.85 -277.25 18.95 -266.75 L16.1 -263.4 14.6 -259.75 M7.2 -242.5 L7.1 -242.65 M76.35 -251.15 L76.2 -245.65 M-31.05 -199.9 L-10.65 -169.25 -5.9 -161.15 -2.15 -153.0 Q0.95 -143.25 5.1 -153.0 L8.85 -161.15 13.6 -169.25 33.95 -199.9 M101.55 -47.8 L100.85 -48.25 100.2 -48.0 M192.1 -36.4 L193.95 -27.4 196.2 -21.75 M172.85 -36.15 L172.45 -34.25 172.95 -29.75 175.2 -23.65 175.35 -23.4 M175.2 -23.65 L175.2 -23.4 M51.6 110.6 L45.1 109.6 40.7 110.1 M56.85 100.35 L45.6 104.5 29.6 109.1 M47.6 133.35 L47.6 133.5 47.7 133.5 47.7 133.35 M43.85 157.5 L44.0 157.95 M43.7 158.75 L43.85 158.85 43.85 159.0 M-11.15 -259.4 L-13.3 -263.9 -15.65 -266.75 Q-25.75 -277.3 -41.55 -267.25 L-35.15 -266.75 Q-21.65 -266.45 -11.15 -259.4 L-10.15 -258.65 Q-6.75 -254.7 -5.55 -250.5 L-4.65 -246.75 M-15.15 -254.25 Q-19.4 -258.1 -22.65 -258.65 -49.35 -265.65 -63.8 -258.65 L-66.4 -254.65 -67.55 -249.65 -67.3 -242.4 -66.4 -234.25 -64.8 -226.15 -62.9 -220.75 -61.15 -218.0 Q-61.1 -216.7 -56.8 -213.15 L-51.55 -209.9 Q-25.15 -198.4 -15.8 -209.9 -15.4 -209.15 -13.05 -215.9 L-11.8 -222.0 -10.65 -234.25 -10.8 -242.4 -11.9 -248.65 -15.15 -254.25 M-73.55 -251.15 L-73.4 -251.15 -73.4 -251.25 M-41.55 -267.25 L-42.3 -267.25 M-73.3 -245.5 L-73.3 -245.65 -73.4 -245.65 M-31.05 -199.9 L-34.4 -200.25 -45.55 -203.0 -49.65 -204.65 M-4.3 -241.9 L-4.05 -236.75 Q2.2 -240.05 6.95 -236.75 M-4.05 -236.75 L-5.65 -221.65 -7.3 -214.4 -9.15 -209.9 Q-10.65 -205.45 -16.65 -201.75 -23.0 -198.7 -31.05 -199.9 M-73.4 -251.15 L-73.3 -245.65 M-98.4 -76.0 L-98.4 -75.9 -98.3 -75.9 -98.3 -76.0 M-155.3 -11.9 L-155.65 -6.75 -159.15 10.6 M-96.15 -46.9 L-100.4 -43.4 M-47.9 110.5 L-42.05 109.6 -37.3 110.1 M-26.8 109.1 L-42.65 104.5 -53.9 100.35 M-39.05 160.1 L-38.8 160.55 M-171.8 -3.9 L-172.3 1.35 -174.15 9.5 -177.9 22.5 -178.05 22.75 M-177.9 22.5 L-178.15 22.75" fill="none" stroke="#000000" stroke-linecap="round" stroke-linejoin="round" stroke-width="2.15"/>
  </g>
</svg>
