<?xml version="1.0" encoding="UTF-8" standalone="no"?>
<svg xmlns:xlink="http://www.w3.org/1999/xlink" height="420.25px" width="451.4px" xmlns="http://www.w3.org/2000/svg">
  <g transform="matrix(1.0, 0.0, 0.0, 1.0, 211.1, 230.85)">
    <path d="M12.35 -187.2 L13.1 -189.4 18.45 -199.0 20.6 -201.75 Q32.25 -214.3 51.2 -201.75 L52.6 -200.75 55.35 -197.4 37.35 -195.9 25.85 -193.65 19.2 -191.5 Q13.6 -188.35 12.35 -187.2 M-52.15 -197.4 L-49.8 -200.4 -48.05 -201.75 Q-27.1 -214.3 -17.4 -201.75 L-15.3 -199.0 -9.65 -189.15 -8.55 -185.9 Q-9.55 -188.05 -16.55 -191.65 L-22.9 -193.65 -32.9 -195.65 Q-44.8 -197.3 -52.15 -197.4 M12.1 -186.5 L12.2 -186.5 12.1 -186.5" fill="#ff7a16" fill-rule="evenodd" stroke="none"/>
    <path d="M55.35 -197.4 L52.6 -200.75 51.2 -201.75 Q32.25 -214.3 20.6 -201.75 L18.45 -199.0 13.1 -189.4 12.35 -187.2 12.1 -186.5 12.1 -186.4 12.1 -186.25 11.85 -186.0 9.6 -182.9 8.7 -179.75 2.1 -179.5 -5.4 -178.4 -6.8 -183.15 -8.4 -185.5 -8.55 -185.9 -9.65 -189.15 -15.3 -199.0 -17.4 -201.75 Q-27.1 -214.3 -48.05 -201.75 L-49.8 -200.4 -52.15 -197.4 -54.9 -197.5 -52.9 -201.25 -52.8 -201.4 -52.9 -201.25 -52.9 -201.4 -52.8 -201.4 Q-44.8 -215.85 -16.8 -227.0 2.95 -232.95 22.2 -226.15 40.2 -220.8 55.7 -201.4 L57.85 -197.5 55.35 -197.4 M42.1 -140.25 Q28.85 -131.2 25.6 -110.4 25.7 -102.1 26.85 -98.0 L28.7 -92.4 32.2 -88.75 38.1 -84.75 Q67.2 -75.3 91.35 -53.25 L96.45 -51.4 104.35 -49.4 113.85 -48.15 119.7 -48.4 Q157.1 -58.6 170.45 -55.5 193.25 -56.6 220.85 -25.9 240.15 -3.85 239.2 5.0 233.45 9.6 211.2 -8.25 L211.1 -8.25 Q221.75 9.55 216.2 13.1 L212.45 12.75 205.2 8.25 190.35 -5.25 190.2 -5.25 Q200.25 14.95 191.6 12.25 L189.35 11.75 185.1 9.75 160.45 -5.75 148.45 -12.4 139.7 -14.9 121.7 -18.75 112.6 -19.75 124.2 1.75 Q124.7 1.4 133.7 27.35 L134.45 32.85 132.7 50.75 131.7 54.85 123.6 70.25 Q97.95 101.5 62.35 114.75 65.7 123.8 55.6 120.1 L49.1 119.25 44.2 120.5 Q4.95 133.6 -40.8 120.75 L-46.15 119.25 -58.15 115.1 -59.55 114.75 Q-92.35 103.2 -119.9 71.25 L-128.05 56.35 Q-128.65 56.1 -129.8 50.85 L-131.4 34.1 Q-130.8 25.05 -130.15 25.75 L-121.15 1.6 -111.55 -15.75 -111.9 -16.0 -125.05 -8.0 -133.3 -1.9 -139.9 4.1 -160.4 25.35 -166.9 30.75 Q-175.1 36.95 -172.55 25.25 L-172.65 25.25 Q-193.55 52.9 -191.4 33.85 L-190.4 30.75 -190.55 30.45 -190.65 30.35 -196.15 36.35 Q-203.75 43.15 -205.55 43.75 L-208.15 44.35 -209.05 44.35 -210.05 42.35 -209.55 39.25 -207.55 33.35 Q-191.55 -4.75 -166.55 -25.9 L-157.9 -31.65 -141.9 -39.25 -133.05 -42.0 Q-117.1 -43.25 -113.4 -44.5 L-88.65 -53.15 -83.55 -56.65 -77.3 -62.9 -73.15 -65.9 -63.05 -72.15 Q-37.5 -84.25 -36.65 -83.9 L-32.55 -86.5 -32.4 -86.5 -32.15 -86.75 -32.05 -86.75 -31.65 -87.15 -31.55 -87.15 Q-28.9 -88.35 -27.0 -90.8 L-27.15 -90.75 -26.95 -90.85 Q-22.15 -97.35 -22.9 -112.25 L-22.9 -112.75 -22.9 -113.15 -23.05 -113.25 Q-27.25 -132.55 -39.15 -140.25 L-33.55 -139.5 -11.05 -104.25 -6.65 -96.15 -0.8 -81.75 0.7 -79.9 1.2 -79.5 2.2 -79.9 Q3.6 -81.15 4.95 -84.4 L9.6 -96.15 13.95 -104.25 29.85 -128.65 36.45 -139.5 42.1 -140.25 M-51.9 120.0 Q-63.35 123.6 -59.55 114.75 L-58.15 115.1 -46.15 119.25 -51.9 120.0 M-39.3 -140.25 L-39.4 -140.4 -39.3 -140.4 -39.3 -140.25 M-4.8 -174.0 L0.85 -176.65 Q1.2 -177.3 7.6 -174.9 L7.6 -173.9 Q0.75 -176.45 -4.8 -173.75 L-4.8 -174.0 M211.1 -8.25 L210.95 -8.65 208.2 -14.9 207.2 -19.9 208.2 -14.9 210.95 -8.65 211.2 -8.25 210.95 -8.65 211.1 -8.25 M190.2 -5.25 L187.95 -10.9 187.6 -12.9 187.95 -14.9 188.1 -15.4 187.95 -14.9 187.6 -12.9 187.95 -10.9 190.2 -5.25 M110.95 -19.75 L111.7 -20.0 112.6 -19.75 111.7 -20.0 110.95 -19.75 M49.1 119.25 L62.35 114.75 49.1 119.25 M-27.0 -90.8 L-26.95 -90.85 -26.65 -91.15 -26.8 -90.9 -27.0 -90.8 -26.8 -90.9 -26.65 -91.15 -26.95 -90.85 -27.0 -90.8 M-111.4 -16.15 L-106.4 -18.9 -111.4 -16.15 M-22.9 -112.25 L-22.8 -112.75 -22.9 -112.75 -22.8 -112.75 -22.9 -112.25 M-172.65 25.25 L-172.4 24.85 -168.65 9.5 -168.8 4.6 -168.65 9.5 -172.4 24.85 -172.55 25.25 -172.4 24.85 -172.65 25.25 M-190.55 30.45 L-190.15 29.85 -185.9 17.6 -184.65 12.75 -184.3 7.85 -184.65 12.75 -185.9 17.6 -190.15 29.85 -190.55 30.45" fill="#ffffff" fill-rule="evenodd" stroke="none"/>
    <path d="M12.35 -187.2 Q13.6 -188.35 19.2 -191.5 L25.85 -193.65 37.35 -195.9 55.35 -197.4 57.85 -197.5 55.7 -201.4 Q60.1 -205.45 64.95 -201.75 L70.45 -196.9 Q81.6 -196.65 83.7 -185.4 86.7 -181.05 83.7 -180.15 81.6 -158.7 73.95 -153.0 65.65 -144.65 42.1 -140.25 L36.45 -139.5 Q22.65 -137.35 15.1 -144.9 14.6 -144.3 12.1 -149.15 L9.45 -156.4 7.7 -169.25 7.6 -173.9 7.6 -174.9 Q1.2 -177.3 0.85 -176.65 L-4.8 -174.0 -5.4 -174.15 -5.55 -175.15 -5.15 -177.4 -5.4 -178.4 2.1 -179.5 8.7 -179.75 9.6 -182.9 11.85 -186.0 12.1 -186.25 12.1 -186.4 12.1 -186.5 12.35 -187.2 M-52.9 -201.25 L-54.9 -197.5 -52.15 -197.4 Q-44.8 -197.3 -32.9 -195.65 L-22.9 -193.65 -16.55 -191.65 Q-9.55 -188.05 -8.55 -185.9 L-8.4 -185.5 -6.8 -183.15 -5.4 -178.4 -5.15 -177.4 -5.55 -175.15 -5.4 -174.15 -4.8 -174.0 -4.8 -173.75 -4.8 -169.25 -6.55 -156.4 -8.4 -150.5 -11.15 -145.65 -12.05 -144.9 Q-19.55 -137.35 -33.55 -139.5 L-39.15 -140.25 -39.3 -140.25 -39.3 -140.4 -39.15 -140.25 -39.3 -140.4 -39.4 -140.4 Q-81.15 -145.05 -80.9 -180.15 -83.7 -183.25 -80.9 -185.4 L-80.8 -185.5 -79.4 -190.4 -76.15 -194.15 -70.3 -196.5 -67.55 -196.9 Q-59.0 -207.2 -53.15 -201.75 L-52.9 -201.4 -52.9 -201.25 M61.3 -199.75 L60.45 -199.15 59.85 -197.5 63.6 -197.5 61.45 -199.9 61.3 -199.75 60.85 -200.15 61.3 -199.75 M57.85 -197.5 L59.85 -197.5 57.85 -197.5 M70.45 -196.9 L63.6 -197.5 70.45 -196.9 M63.35 -192.65 Q76.9 -191.2 76.7 -185.5 L77.6 -181.4 77.45 -177.4 75.7 -165.9 Q74.85 -162.0 73.95 -161.15 L72.7 -158.25 Q70.0 -154.15 67.6 -153.0 62.85 -148.35 47.1 -144.9 28.35 -141.15 23.6 -144.9 23.75 -144.05 19.7 -148.15 L17.35 -153.0 16.1 -157.5 14.7 -169.25 14.95 -175.25 15.6 -177.4 Q16.6 -182.1 21.1 -185.5 31.45 -192.45 63.35 -192.65 31.45 -192.45 21.1 -185.5 16.6 -182.1 15.6 -177.4 L14.95 -175.25 14.7 -169.25 16.1 -157.5 17.35 -153.0 19.7 -148.15 Q23.75 -144.05 23.6 -144.9 28.35 -141.15 47.1 -144.9 62.85 -148.35 67.6 -153.0 70.0 -154.15 72.7 -158.25 L73.95 -161.15 Q74.85 -162.0 75.7 -165.9 L77.45 -177.4 77.6 -181.4 76.7 -185.5 Q76.9 -191.2 63.35 -192.65 M83.7 -180.15 L83.7 -185.4 83.7 -180.15 M12.1 -186.5 L12.2 -186.5 12.1 -186.5 M11.85 -186.0 L11.95 -186.0 12.1 -186.25 11.95 -186.0 11.85 -186.0 M12.2 -186.5 L12.1 -186.4 12.2 -186.5 M8.7 -179.75 L7.6 -174.9 8.7 -179.75 M-57.9 -200.15 L-58.3 -199.9 -57.9 -200.15 M-12.65 -177.4 L-12.05 -175.25 -11.8 -169.25 -13.15 -157.5 -14.4 -153.0 -16.8 -148.15 Q-20.85 -144.0 -20.65 -144.9 -31.9 -141.15 -44.15 -144.9 -59.5 -148.1 -64.55 -153.0 -67.35 -153.95 -70.9 -161.15 L-71.8 -162.75 -73.3 -169.25 -74.4 -177.4 -74.55 -182.5 -73.65 -185.5 Q-69.5 -194.7 -52.05 -192.65 -22.0 -190.45 -18.15 -185.5 -13.4 -181.85 -12.65 -177.4 -13.4 -181.85 -18.15 -185.5 -22.0 -190.45 -52.05 -192.65 -69.5 -194.7 -73.65 -185.5 L-74.55 -182.5 -74.4 -177.4 -73.3 -169.25 -71.8 -162.75 -70.9 -161.15 Q-67.35 -153.95 -64.55 -153.0 -59.5 -148.1 -44.15 -144.9 -31.9 -141.15 -20.65 -144.9 -20.85 -144.0 -16.8 -148.15 L-14.4 -153.0 -13.15 -157.5 -11.8 -169.25 -12.05 -175.25 -12.65 -177.4 M-56.9 -197.5 L-54.9 -197.5 -56.9 -197.5 Q-57.25 -200.05 -58.3 -199.9 -59.2 -199.75 -60.65 -197.5 L-56.9 -197.5 M-80.9 -180.15 L-80.8 -185.25 -80.9 -185.4 -80.8 -185.25 -80.8 -185.5 -80.8 -185.25 -80.9 -180.15 M-67.55 -196.9 L-60.65 -197.5 -67.55 -196.9" fill="#43396f" fill-rule="evenodd" stroke="none"/>
    <path d="M55.6 120.1 L59.7 134.0 60.6 138.5 Q62.65 141.1 52.45 148.25 L52.45 148.35 52.35 149.6 53.6 151.75 57.7 154.1 69.7 159.1 80.7 161.35 90.2 164.1 100.1 168.1 106.45 171.75 107.1 172.75 107.1 173.25 106.45 173.75 104.2 174.1 91.85 173.6 82.1 173.85 Q80.3 173.35 82.1 182.35 L80.85 183.5 76.95 183.35 62.45 178.85 56.95 178.1 49.85 180.35 Q38.9 186.1 39.2 185.35 L38.2 185.5 37.2 184.75 Q35.4 179.3 45.35 161.1 L45.2 160.65 42.45 152.75 Q41.75 149.55 42.35 146.6 43.4 141.35 51.7 138.6 L44.2 120.5 49.1 119.25 55.6 120.1 M-40.8 120.75 L-46.3 134.85 Q-47.5 138.65 -46.9 139.75 -47.15 140.6 -42.4 143.5 L-40.05 146.1 Q-37.0 148.75 -40.15 163.35 L-37.65 167.85 Q-32.75 173.05 -31.05 176.0 L-28.3 181.25 -26.55 185.85 -26.55 187.35 -26.9 188.0 -27.65 188.35 -28.55 188.25 -30.65 187.75 Q-37.0 184.65 -43.05 182.85 L-49.4 181.6 -56.4 183.35 -66.3 187.35 -68.8 188.0 -70.8 188.0 -71.9 187.6 -72.4 187.0 Q-72.5 178.8 -74.8 178.35 L-95.55 179.35 -99.55 179.1 -100.4 178.75 -100.65 178.0 -100.3 177.25 -98.3 175.6 -87.8 170.1 -78.9 166.75 Q-66.0 164.0 -63.3 162.75 L-53.65 157.75 Q-50.9 156.4 -49.65 154.85 L-48.65 153.0 -48.65 150.1 -53.4 145.25 -55.4 141.85 -56.05 139.35 -55.9 136.35 -51.9 120.0 -46.15 119.25 -40.8 120.75 M7.6 -173.9 L7.7 -169.25 9.45 -156.4 12.1 -149.15 Q14.6 -144.3 15.1 -144.9 22.65 -137.35 36.45 -139.5 L29.85 -128.65 13.95 -104.25 9.6 -96.15 4.95 -84.4 Q3.6 -81.15 2.2 -79.9 L1.2 -79.5 0.7 -79.9 -0.8 -81.75 -6.65 -96.15 -11.05 -104.25 -33.55 -139.5 Q-19.55 -137.35 -12.05 -144.9 L-11.15 -145.65 -8.4 -150.5 -6.55 -156.4 -4.8 -169.25 -4.8 -173.75 Q0.75 -176.45 7.6 -173.9 M51.7 139.5 L51.7 138.6 51.7 139.5 M52.1 148.75 L52.45 148.35 52.1 148.75 M45.2 160.65 L45.45 159.85 45.2 160.65 M-40.4 161.0 L-40.3 162.35 -40.4 161.0" fill="#fa410f" fill-rule="evenodd" stroke="none"/>
    <path d="M55.35 -197.4 L52.6 -200.75 51.2 -201.75 Q32.25 -214.3 20.6 -201.75 L18.45 -199.0 13.1 -189.4 12.35 -187.2 Q13.6 -188.35 19.2 -191.5 L25.85 -193.65 37.35 -195.9 55.35 -197.4 57.85 -197.5 55.7 -201.4 Q40.2 -220.8 22.2 -226.15 2.95 -232.95 -16.8 -227.0 -44.8 -215.85 -52.8 -201.4 L-52.9 -201.25 -54.9 -197.5 -52.15 -197.4 -49.8 -200.4 -48.05 -201.75 Q-27.1 -214.3 -17.4 -201.75 L-15.3 -199.0 -9.65 -189.15 -8.55 -185.9 -8.4 -185.5 -6.8 -183.15 -5.4 -178.4 2.1 -179.5 8.7 -179.75 9.6 -182.9 11.85 -186.0 12.1 -186.25 12.1 -186.4 12.1 -186.5 12.35 -187.2 M55.7 -201.4 Q60.1 -205.45 64.95 -201.75 L70.45 -196.9 Q81.6 -196.65 83.7 -185.4 86.7 -181.05 83.7 -180.15 81.6 -158.7 73.95 -153.0 65.65 -144.65 42.1 -140.25 28.85 -131.2 25.6 -110.4 25.7 -102.1 26.85 -98.0 L28.7 -92.4 32.2 -88.75 38.1 -84.75 Q67.2 -75.3 91.35 -53.25 L96.45 -51.4 104.35 -49.4 113.85 -48.15 119.7 -48.4 Q157.1 -58.6 170.45 -55.5 193.25 -56.6 220.85 -25.9 240.15 -3.85 239.2 5.0 233.45 9.6 211.2 -8.25 L211.1 -8.25 Q221.75 9.55 216.2 13.1 L212.45 12.75 205.2 8.25 190.35 -5.25 190.2 -5.25 Q200.25 14.95 191.6 12.25 L189.35 11.75 185.1 9.75 160.45 -5.75 148.45 -12.4 139.7 -14.9 121.7 -18.75 112.6 -19.75 124.2 1.75 Q124.7 1.4 133.7 27.35 L134.45 32.85 132.7 50.75 131.7 54.85 123.6 70.25 Q97.95 101.5 62.35 114.75 65.7 123.8 55.6 120.1 L59.7 134.0 60.6 138.5 Q62.65 141.1 52.45 148.25 L52.45 148.35 52.35 149.6 53.6 151.75 57.7 154.1 69.7 159.1 80.7 161.35 90.2 164.1 100.1 168.1 106.45 171.75 107.1 172.75 107.1 173.25 106.45 173.75 104.2 174.1 91.85 173.6 82.1 173.85 Q80.3 173.35 82.1 182.35 L80.85 183.5 76.95 183.35 62.45 178.85 56.95 178.1 49.85 180.35 Q38.9 186.1 39.2 185.35 L38.2 185.5 37.2 184.75 Q35.4 179.3 45.35 161.1 L45.2 160.65 42.45 152.75 Q41.75 149.55 42.35 146.6 43.4 141.35 51.7 138.6 L44.2 120.5 Q4.95 133.6 -40.8 120.75 L-46.3 134.85 Q-47.5 138.65 -46.9 139.75 -47.15 140.6 -42.4 143.5 L-40.05 146.1 Q-37.0 148.75 -40.15 163.35 L-37.65 167.85 Q-32.75 173.05 -31.05 176.0 L-28.3 181.25 -26.55 185.85 -26.55 187.35 -26.9 188.0 -27.65 188.35 -28.55 188.25 -30.65 187.75 Q-37.0 184.65 -43.05 182.85 L-49.4 181.6 -56.4 183.35 -66.3 187.35 -68.8 188.0 -70.8 188.0 -71.9 187.6 -72.4 187.0 Q-72.5 178.8 -74.8 178.35 L-95.55 179.35 -99.55 179.1 -100.4 178.75 -100.65 178.0 -100.3 177.25 -98.3 175.6 -87.8 170.1 -78.9 166.75 Q-66.0 164.0 -63.3 162.75 L-53.65 157.75 Q-50.9 156.4 -49.65 154.85 L-48.65 153.0 -48.65 150.1 -53.4 145.25 -55.4 141.85 -56.05 139.35 -55.9 136.35 -51.9 120.0 Q-63.35 123.6 -59.55 114.75 -92.35 103.2 -119.9 71.25 L-128.05 56.35 Q-128.65 56.1 -129.8 50.85 L-131.4 34.1 Q-130.8 25.05 -130.15 25.75 L-121.15 1.6 -111.55 -15.75 -111.9 -16.0 -125.05 -8.0 -133.3 -1.9 -139.9 4.1 -160.4 25.35 -166.9 30.75 Q-175.1 36.95 -172.55 25.25 L-172.65 25.25 Q-193.55 52.9 -191.4 33.85 L-190.4 30.75 -190.55 30.45 -190.65 30.35 -196.15 36.35 Q-203.75 43.15 -205.55 43.75 L-208.15 44.35 -209.05 44.35 -210.05 42.35 -209.55 39.25 -207.55 33.35 Q-191.55 -4.75 -166.55 -25.9 L-157.9 -31.65 -141.9 -39.25 -133.05 -42.0 Q-117.1 -43.25 -113.4 -44.5 L-88.65 -53.15 -83.55 -56.65 -77.3 -62.9 -73.15 -65.9 -63.05 -72.15 Q-37.5 -84.25 -36.65 -83.9 L-32.55 -86.5 -32.4 -86.5 -32.15 -86.75 -32.05 -86.75 -31.65 -87.15 -31.55 -87.15 Q-28.9 -88.35 -27.0 -90.8 L-27.15 -90.75 -26.95 -90.85 Q-22.15 -97.35 -22.9 -112.25 L-22.9 -112.75 -22.9 -113.15 -23.05 -113.25 Q-27.25 -132.55 -39.15 -140.25 L-39.3 -140.25 -39.4 -140.4 Q-81.15 -145.05 -80.9 -180.15 -83.7 -183.25 -80.9 -185.4 L-80.8 -185.5 -79.4 -190.4 -76.15 -194.15 -70.3 -196.5 -67.55 -196.9 Q-59.0 -207.2 -53.15 -201.75 L-52.9 -201.4 -52.8 -201.4 M61.3 -199.75 L60.45 -199.15 59.85 -197.5 63.6 -197.5 61.45 -199.9 61.3 -199.75 60.85 -200.15 M83.7 -185.4 L83.7 -180.15 M63.35 -192.65 Q31.45 -192.45 21.1 -185.5 16.6 -182.1 15.6 -177.4 L14.95 -175.25 14.7 -169.25 16.1 -157.5 17.35 -153.0 19.7 -148.15 Q23.75 -144.05 23.6 -144.9 28.35 -141.15 47.1 -144.9 62.85 -148.35 67.6 -153.0 70.0 -154.15 72.7 -158.25 L73.95 -161.15 Q74.85 -162.0 75.7 -165.9 L77.45 -177.4 77.6 -181.4 76.7 -185.5 Q76.9 -191.2 63.35 -192.65 M63.6 -197.5 L70.45 -196.9 M59.85 -197.5 L57.85 -197.5 M12.1 -186.5 L12.2 -186.5 12.1 -186.5 M12.1 -186.4 L12.2 -186.5 M12.1 -186.25 L11.95 -186.0 11.85 -186.0 M-4.8 -174.0 L0.85 -176.65 Q1.2 -177.3 7.6 -174.9 L8.7 -179.75 M7.6 -174.9 L7.6 -173.9 7.7 -169.25 9.45 -156.4 12.1 -149.15 Q14.6 -144.3 15.1 -144.9 22.65 -137.35 36.45 -139.5 L42.1 -140.25 M-33.55 -139.5 L-11.05 -104.25 -6.65 -96.15 -0.8 -81.75 0.7 -79.9 1.2 -79.5 2.2 -79.9 Q3.6 -81.15 4.95 -84.4 L9.6 -96.15 13.95 -104.25 29.85 -128.65 36.45 -139.5 M112.6 -19.75 L111.7 -20.0 110.95 -19.75 M188.1 -15.4 L187.95 -14.9 187.6 -12.9 187.95 -10.9 190.2 -5.25 M207.2 -19.9 L208.2 -14.9 210.95 -8.65 211.2 -8.25 M210.95 -8.65 L211.1 -8.25 M55.6 120.1 L49.1 119.25 44.2 120.5 M51.7 138.6 L51.7 139.5 M62.35 114.75 L49.1 119.25 M45.45 159.85 L45.2 160.65 M52.45 148.35 L52.1 148.75 M-58.3 -199.9 L-57.9 -200.15 M-52.9 -201.25 L-52.9 -201.4 M-12.65 -177.4 Q-13.4 -181.85 -18.15 -185.5 -22.0 -190.45 -52.05 -192.65 -69.5 -194.7 -73.65 -185.5 L-74.55 -182.5 -74.4 -177.4 -73.3 -169.25 -71.8 -162.75 -70.9 -161.15 Q-67.35 -153.95 -64.55 -153.0 -59.5 -148.1 -44.15 -144.9 -31.9 -141.15 -20.65 -144.9 -20.85 -144.0 -16.8 -148.15 L-14.4 -153.0 -13.15 -157.5 -11.8 -169.25 -12.05 -175.25 -12.65 -177.4 M-5.4 -178.4 L-5.15 -177.4 -5.55 -175.15 -5.4 -174.15 -4.8 -174.0 -4.8 -173.75 Q0.75 -176.45 7.6 -173.9 M-52.15 -197.4 Q-44.8 -197.3 -32.9 -195.65 L-22.9 -193.65 -16.55 -191.65 Q-9.55 -188.05 -8.55 -185.9 M-4.8 -173.75 L-4.8 -169.25 -6.55 -156.4 -8.4 -150.5 -11.15 -145.65 -12.05 -144.9 Q-19.55 -137.35 -33.55 -139.5 L-39.15 -140.25 -39.3 -140.4 -39.3 -140.25 M-54.9 -197.5 L-56.9 -197.5 -60.65 -197.5 -67.55 -196.9 M-80.9 -185.4 L-80.8 -185.25 -80.8 -185.5 M-80.8 -185.25 L-80.9 -180.15 M-39.4 -140.4 L-39.3 -140.4 M-22.9 -112.75 L-22.8 -112.75 -22.9 -112.25 M-106.4 -18.9 L-111.4 -16.15 M-27.0 -90.8 L-26.8 -90.9 -26.65 -91.15 -26.95 -90.85 -27.0 -90.8 M-56.9 -197.5 Q-57.25 -200.05 -58.3 -199.9 -59.2 -199.75 -60.65 -197.5 M-46.15 119.25 L-40.8 120.75 M-46.15 119.25 L-58.15 115.1 -59.55 114.75 M-51.9 120.0 L-46.15 119.25 M-40.3 162.35 L-40.4 161.0 M-168.8 4.6 L-168.65 9.5 -172.4 24.85 -172.55 25.25 M-184.3 7.85 L-184.65 12.75 -185.9 17.6 -190.15 29.85 -190.55 30.45 M-172.4 24.85 L-172.65 25.25" fill="none" stroke="#000000" stroke-linecap="round" stroke-linejoin="round" stroke-width="2.15"/>
  </g>
</svg>
