<?xml version="1.0" encoding="UTF-8" standalone="no"?>
<svg xmlns:xlink="http://www.w3.org/1999/xlink" height="406.05px" width="446.2px" xmlns="http://www.w3.org/2000/svg">
  <g transform="matrix(1.0, 0.0, 0.0, 1.0, 209.65, 215.9)">
    <path d="M86.35 -175.9 Q89.25 -172.9 86.45 -170.9 L86.35 -175.9 86.45 -170.9 Q85.1 -151.25 76.7 -144.15 67.4 -136.45 49.85 -133.0 L41.85 -131.65 38.2 -131.4 Q23.15 -129.2 15.85 -136.75 14.85 -136.8 11.85 -142.25 L9.7 -148.75 7.95 -161.15 7.85 -164.25 7.95 -166.65 7.95 -166.75 8.2 -169.25 8.95 -171.5 8.2 -169.25 7.95 -166.75 7.95 -166.65 7.85 -166.65 7.95 -166.75 7.85 -166.65 Q1.1 -171.0 -5.15 -165.9 L-4.9 -164.25 -6.8 -148.75 -8.9 -142.25 Q-12.5 -136.0 -12.8 -136.75 -19.55 -129.45 -35.3 -131.4 L-38.05 -131.5 -46.9 -133.0 Q-64.5 -136.45 -73.8 -144.15 -82.15 -151.55 -83.55 -170.9 -86.55 -173.4 -83.55 -175.9 L-83.4 -176.0 Q-82.6 -187.85 -64.05 -188.4 -61.6 -191.35 -55.9 -188.5 L-53.8 -188.5 -51.8 -188.4 -36.3 -187.25 -25.05 -185.5 -17.65 -183.4 -10.3 -179.25 -6.9 -174.75 -5.65 -170.15 1.35 -171.25 8.95 -171.5 9.85 -174.75 13.85 -179.75 19.85 -183.15 27.95 -185.5 37.95 -187.15 55.1 -188.4 56.7 -188.5 58.85 -188.5 Q60.0 -189.85 63.95 -189.9 L66.95 -188.4 Q86.0 -187.65 86.35 -175.9 M78.85 -177.4 L79.95 -173.65 80.1 -169.25 78.85 -158.9 Q77.5 -153.1 76.95 -153.0 L75.45 -149.5 Q72.2 -145.1 70.95 -144.9 65.7 -139.95 49.95 -136.75 31.35 -132.75 24.7 -136.75 24.5 -136.15 20.6 -140.0 L18.1 -144.9 16.6 -150.0 15.2 -161.15 15.35 -166.9 17.1 -172.4 Q20.15 -177.4 21.95 -177.4 31.45 -183.7 64.95 -183.75 72.1 -183.35 75.7 -181.15 L78.85 -177.4 75.7 -181.15 Q72.1 -183.35 64.95 -183.75 31.45 -183.7 21.95 -177.4 20.15 -177.4 17.1 -172.4 L15.35 -166.9 15.2 -161.15 16.6 -150.0 18.1 -144.9 20.6 -140.0 Q24.5 -136.15 24.7 -136.75 31.35 -132.75 49.95 -136.75 65.7 -139.95 70.95 -144.9 72.2 -145.1 75.45 -149.5 L76.95 -153.0 Q77.5 -153.1 78.85 -158.9 L80.1 -169.25 79.95 -173.65 78.85 -177.4 M58.85 -188.5 L66.95 -188.4 58.85 -188.5 M-5.65 -170.15 L-5.4 -169.25 -5.9 -167.0 -5.65 -166.15 -5.15 -165.9 -5.65 -166.15 -5.9 -167.0 -5.4 -169.25 -5.65 -170.15 M-19.05 -177.4 L-16.9 -176.15 Q-13.55 -172.35 -13.15 -169.25 L-12.4 -166.9 -12.3 -161.15 -13.65 -149.9 -15.15 -144.9 -17.3 -140.5 -21.05 -136.9 -21.8 -136.75 Q-31.15 -132.75 -47.05 -136.75 -60.85 -139.2 -67.9 -144.9 -69.4 -145.4 -71.9 -148.9 L-74.05 -153.0 -75.3 -156.9 -77.05 -169.25 -76.9 -173.75 -75.8 -177.4 Q-71.4 -185.45 -52.05 -183.75 -22.3 -181.7 -19.05 -177.4 -22.3 -181.7 -52.05 -183.75 -71.4 -185.45 -75.8 -177.4 L-76.9 -173.75 -77.05 -169.25 -75.3 -156.9 -74.05 -153.0 -71.9 -148.9 Q-69.4 -145.4 -67.9 -144.9 -60.85 -139.2 -47.05 -136.75 -31.15 -132.75 -21.8 -136.75 L-21.05 -136.9 -17.3 -140.5 -15.15 -144.9 -13.65 -149.9 -12.3 -161.15 -12.4 -166.9 -13.15 -169.25 Q-13.55 -172.35 -16.9 -176.15 L-19.05 -177.4 M-64.05 -188.4 L-55.9 -188.5 -64.05 -188.4 M-83.55 -170.9 L-83.4 -175.75 -83.55 -175.9 -83.4 -175.75 -83.4 -176.0 -83.4 -175.75 -83.55 -170.9" fill="#43396f" fill-rule="evenodd" stroke="none"/>
    <path d="M49.85 -133.0 Q41.8 -127.8 36.5 -121.6 L36.2 -121.2 Q29.3 -112.95 27.35 -103.0 26.65 -85.55 30.4 -80.2 L30.65 -79.85 Q31.75 -78.45 33.2 -78.0 L33.3 -77.9 37.2 -75.5 Q70.6 -65.35 96.45 -43.9 L108.35 -40.25 120.35 -38.4 126.6 -38.75 Q146.9 -44.25 163.95 -44.75 179.65 -44.8 191.6 -39.25 217.0 -24.1 233.2 3.35 242.9 22.1 211.35 1.35 L211.2 1.35 Q221.2 18.7 215.7 20.6 211.65 22.65 197.35 9.5 L193.45 6.0 192.7 5.75 195.85 12.6 Q197.5 16.7 197.45 18.35 L197.1 19.75 196.7 20.5 195.45 21.25 191.45 20.75 183.7 17.0 Q160.9 2.1 151.35 -2.75 L138.95 -6.75 124.95 -10.15 118.35 -11.15 Q134.85 12.1 140.35 38.35 L138.7 54.35 137.35 59.0 128.85 74.0 Q104.95 101.9 65.1 117.6 L65.35 119.5 64.35 121.25 62.1 121.35 56.95 120.6 56.45 120.5 46.6 123.25 46.35 123.35 Q2.1 136.5 -42.65 123.6 L-53.3 120.6 -53.55 120.5 -57.8 121.25 -61.4 121.25 -62.4 119.5 -62.15 117.6 Q-101.65 101.95 -125.65 74.35 L-134.4 59.0 -135.65 55.25 -137.4 38.1 -136.9 33.85 -130.8 17.0 -127.15 8.6 -117.65 -6.9 -118.05 -7.15 -127.9 -1.15 -136.9 5.35 -142.55 10.35 -160.8 28.6 Q-164.1 32.25 -170.15 36.35 -178.9 41.55 -175.65 30.5 L-175.8 30.5 Q-186.3 43.8 -190.3 43.85 L-191.65 43.85 -193.3 42.5 -193.55 38.75 -191.65 32.0 -191.8 32.0 Q-213.3 52.25 -207.3 34.0 -191.3 -3.5 -171.3 -19.0 L-163.65 -23.9 Q-155.1 -28.4 -146.8 -31.4 -142.85 -33.65 -119.15 -35.4 L-93.4 -44.0 Q-66.8 -65.75 -38.15 -73.5 L-38.05 -73.65 Q-35.7 -74.8 -33.4 -76.0 L-30.65 -77.9 -30.55 -77.9 Q-29.0 -78.75 -27.8 -80.3 -23.45 -85.95 -23.9 -100.9 -23.85 -102.9 -28.55 -113.9 L-32.9 -121.0 -33.05 -121.0 -33.3 -121.4 -37.9 -126.0 -46.9 -133.0 -38.05 -131.5 -35.3 -131.4 -27.8 -120.5 -15.4 -104.25 -9.8 -96.15 -5.3 -88.0 -1.55 -79.9 Q0.95 -73.4 4.45 -79.9 L8.2 -88.0 12.7 -96.15 38.2 -131.4 41.85 -131.65 49.85 -133.0 M-53.8 -188.5 Q-46.3 -202.2 -14.8 -213.15 13.25 -217.8 27.6 -209.9 45.5 -203.1 56.7 -188.5 L55.1 -188.4 52.95 -190.25 48.6 -193.15 47.2 -193.65 Q33.8 -199.4 24.45 -193.65 22.9 -193.1 19.1 -188.75 L13.85 -179.75 9.85 -174.75 8.95 -171.5 1.35 -171.25 -5.65 -170.15 -6.9 -174.75 -10.3 -179.25 -12.15 -183.15 -13.8 -185.5 Q-13.6 -186.4 -17.65 -190.75 L-21.3 -193.65 Q-28.6 -199.4 -44.15 -193.65 L-50.4 -189.9 -51.8 -188.4 -53.8 -188.5 M7.95 -166.65 L7.85 -164.25 Q2.7 -167.05 -4.9 -164.25 L-5.15 -165.9 Q1.1 -171.0 7.85 -166.65 L7.95 -166.65 M41.35 -73.4 L40.95 -73.65 41.35 -73.4 M211.2 1.35 L211.1 1.0 209.35 -2.25 207.85 -6.75 207.1 -10.65 207.85 -6.75 209.35 -2.25 211.1 1.0 211.35 1.35 211.1 1.0 211.2 1.35 M192.6 5.35 L190.95 1.35 Q190.0 -0.2 189.85 -3.5 L190.1 -5.65 189.85 -3.5 Q190.0 -0.2 190.95 1.35 L192.6 5.35 M115.85 -11.5 L118.35 -11.15 115.85 -11.5 M65.1 117.6 L56.45 120.5 65.1 117.6 M-32.9 -121.0 L-33.3 -121.4 -32.9 -121.0 M-27.9 -79.9 L-28.05 -79.9 -28.15 -79.5 -27.9 -79.9 -27.8 -80.3 -27.9 -79.9 -28.15 -79.5 -28.05 -79.9 -27.9 -79.9 M-117.55 -7.25 L-113.15 -10.15 -111.3 -10.75 -113.15 -10.15 -117.55 -7.25 M-62.15 117.6 L-53.55 120.5 -62.15 117.6 M-175.8 30.5 L-175.55 30.1 -172.4 17.6 -171.9 12.6 -172.55 9.6 -171.9 12.6 -172.4 17.6 -175.55 30.1 -175.65 30.5 -175.55 30.1 -175.8 30.5 M-191.8 32.0 L-191.55 31.75 -186.9 17.6 -186.15 11.6 -186.9 17.6 -191.55 31.75 -191.65 32.0 -191.55 31.75 -191.8 32.0" fill="#ffffff" fill-rule="evenodd" stroke="none"/>
    <path d="M55.1 -188.4 L37.95 -187.15 27.95 -185.5 19.85 -183.15 13.85 -179.75 19.1 -188.75 Q22.9 -193.1 24.45 -193.65 33.8 -199.4 47.2 -193.65 L48.6 -193.15 52.95 -190.25 55.1 -188.4 M-51.8 -188.4 L-50.4 -189.9 -44.15 -193.65 Q-28.6 -199.4 -21.3 -193.65 L-17.65 -190.75 Q-13.6 -186.4 -13.8 -185.5 L-12.15 -183.15 -10.3 -179.25 -17.65 -183.4 -25.05 -185.5 -36.3 -187.25 -51.8 -188.4" fill="#ff7a16" fill-rule="evenodd" stroke="none"/>
    <path d="M56.95 120.6 L61.1 135.5 61.35 139.0 60.45 142.1 Q56.65 146.4 53.6 148.5 L53.6 148.65 53.35 150.6 54.2 152.1 Q55.2 153.55 58.2 154.75 L71.35 160.1 82.35 162.25 94.7 166.0 102.45 169.25 Q107.2 171.45 108.45 173.25 L108.45 173.85 106.45 174.6 89.35 174.1 83.7 174.35 82.7 175.0 82.35 176.5 83.2 182.85 82.7 183.75 80.95 184.35 77.7 184.0 65.6 180.1 59.95 179.0 57.2 178.85 52.6 180.1 42.85 184.85 39.2 186.25 37.7 185.5 Q35.6 181.25 45.95 162.0 L45.75 161.6 Q42.4 154.25 43.1 147.5 43.4 143.25 51.95 139.0 L52.2 139.0 Q52.25 137.3 51.1 134.85 L46.35 123.35 46.6 123.25 56.45 120.5 56.95 120.6 M-42.65 123.6 L-47.3 135.6 -47.8 138.25 -47.65 139.85 Q-40.75 146.1 -40.05 148.85 -39.1 150.35 -39.4 154.35 L-40.8 163.3 -40.9 163.85 -38.15 169.0 -31.9 176.35 -28.3 183.1 -26.9 186.75 -26.9 188.25 -27.9 189.1 -31.3 188.25 -42.9 183.75 -49.8 182.25 Q-55.05 183.05 -58.8 184.6 L-66.8 188.0 -69.15 188.6 -71.65 188.75 -72.65 188.5 -73.65 187.35 -74.15 181.25 -74.55 180.25 -76.05 178.85 -86.4 179.0 -96.9 180.0 -100.05 179.85 -102.05 179.25 Q-105.4 179.15 -92.3 172.35 L-82.55 168.35 Q-77.85 166.55 -66.9 164.5 L-63.8 163.35 -53.15 157.85 -50.8 156.0 -49.55 153.5 -49.65 151.0 Q-55.75 145.6 -57.05 139.75 L-56.9 136.25 -53.3 120.6 -42.65 123.6 M7.85 -164.25 L7.95 -161.15 9.7 -148.75 11.85 -142.25 Q14.85 -136.8 15.85 -136.75 23.15 -129.2 38.2 -131.4 L12.7 -96.15 8.2 -88.0 4.45 -79.9 Q0.95 -73.4 -1.55 -79.9 L-5.3 -88.0 -9.8 -96.15 -15.4 -104.25 -27.8 -120.5 -35.3 -131.4 Q-19.55 -129.45 -12.8 -136.75 -12.5 -136.0 -8.9 -142.25 L-6.8 -148.75 -4.9 -164.25 Q2.7 -167.05 7.85 -164.25 M51.95 139.35 L52.2 139.0 51.95 139.35 M45.75 161.6 L46.1 160.35 45.75 161.6 M53.2 149.0 L53.6 148.65 53.2 149.0 M-40.8 163.3 L-41.15 162.35 -40.8 163.3" fill="#fa410f" fill-rule="evenodd" stroke="none"/>
    <path d="M86.45 -170.9 Q89.25 -172.9 86.35 -175.9 L86.45 -170.9 Q85.1 -151.25 76.7 -144.15 67.4 -136.45 49.85 -133.0 41.8 -127.8 36.5 -121.6 L36.2 -121.2 Q29.3 -112.95 27.35 -103.0 26.65 -85.55 30.4 -80.2 L30.65 -79.85 Q31.75 -78.45 33.2 -78.0 L33.3 -77.9 37.2 -75.5 Q70.6 -65.35 96.45 -43.9 L108.35 -40.25 120.35 -38.4 126.6 -38.75 Q146.9 -44.25 163.95 -44.75 179.65 -44.8 191.6 -39.25 217.0 -24.1 233.2 3.35 242.9 22.1 211.35 1.35 L211.2 1.35 Q221.2 18.7 215.7 20.6 211.65 22.65 197.35 9.5 L193.45 6.0 192.7 5.75 195.85 12.6 Q197.5 16.7 197.45 18.35 L197.1 19.75 196.7 20.5 195.45 21.25 191.45 20.75 183.7 17.0 Q160.9 2.1 151.35 -2.75 L138.95 -6.75 124.95 -10.15 118.35 -11.15 Q134.85 12.1 140.35 38.35 L138.7 54.35 137.35 59.0 128.85 74.0 Q104.95 101.9 65.1 117.6 L65.35 119.5 64.35 121.25 62.1 121.35 56.95 120.6 61.1 135.5 61.35 139.0 60.45 142.1 Q56.65 146.4 53.6 148.5 L53.6 148.65 53.35 150.6 54.2 152.1 Q55.2 153.55 58.2 154.75 L71.35 160.1 82.35 162.25 94.7 166.0 102.45 169.25 Q107.2 171.45 108.45 173.25 L108.45 173.85 106.45 174.6 89.35 174.1 83.7 174.35 82.7 175.0 82.35 176.5 83.2 182.85 82.7 183.75 80.95 184.35 77.7 184.0 65.6 180.1 59.95 179.0 57.2 178.85 52.6 180.1 42.85 184.85 39.2 186.25 37.7 185.5 Q35.6 181.25 45.95 162.0 L45.75 161.6 Q42.4 154.25 43.1 147.5 43.4 143.25 51.95 139.0 L52.2 139.0 Q52.25 137.3 51.1 134.85 L46.35 123.35 Q2.1 136.5 -42.65 123.6 L-47.3 135.6 -47.8 138.25 -47.65 139.85 Q-40.75 146.1 -40.05 148.85 -39.1 150.35 -39.4 154.35 L-40.8 163.3 -40.9 163.85 -38.15 169.0 -31.9 176.35 -28.3 183.1 -26.9 186.75 -26.9 188.25 -27.9 189.1 -31.3 188.25 -42.9 183.75 -49.8 182.25 Q-55.05 183.05 -58.8 184.6 L-66.8 188.0 -69.15 188.6 -71.65 188.75 -72.65 188.5 -73.65 187.35 -74.15 181.25 -74.55 180.25 -76.05 178.85 -86.4 179.0 -96.9 180.0 -100.05 179.85 -102.05 179.25 Q-105.4 179.15 -92.3 172.35 L-82.55 168.35 Q-77.85 166.55 -66.9 164.5 L-63.8 163.35 -53.15 157.85 -50.8 156.0 -49.55 153.5 -49.65 151.0 Q-55.75 145.6 -57.05 139.75 L-56.9 136.25 -53.3 120.6 -53.55 120.5 -57.8 121.25 -61.4 121.25 -62.4 119.5 -62.15 117.6 Q-101.65 101.95 -125.65 74.35 L-134.4 59.0 -135.65 55.25 -137.4 38.1 -136.9 33.85 -130.8 17.0 -127.15 8.6 -117.65 -6.9 -118.05 -7.15 -127.9 -1.15 -136.9 5.35 -142.55 10.35 -160.8 28.6 Q-164.1 32.25 -170.15 36.35 -178.9 41.55 -175.65 30.5 L-175.8 30.5 Q-186.3 43.8 -190.3 43.85 L-191.65 43.85 -193.3 42.5 -193.55 38.75 -191.65 32.0 -191.8 32.0 Q-213.3 52.25 -207.3 34.0 -191.3 -3.5 -171.3 -19.0 L-163.65 -23.9 Q-155.1 -28.4 -146.8 -31.4 -142.85 -33.65 -119.15 -35.4 L-93.4 -44.0 Q-66.8 -65.75 -38.15 -73.5 L-38.05 -73.65 Q-35.7 -74.8 -33.4 -76.0 L-30.65 -77.9 -30.55 -77.9 Q-29.0 -78.75 -27.8 -80.3 -23.45 -85.95 -23.9 -100.9 -23.85 -102.9 -28.55 -113.9 L-32.9 -121.0 -33.05 -121.0 -33.3 -121.4 -37.9 -126.0 -46.9 -133.0 Q-64.5 -136.45 -73.8 -144.15 -82.15 -151.55 -83.55 -170.9 -86.55 -173.4 -83.55 -175.9 L-83.4 -176.0 Q-82.6 -187.85 -64.05 -188.4 -61.6 -191.35 -55.9 -188.5 L-53.8 -188.5 Q-46.3 -202.2 -14.8 -213.15 13.25 -217.8 27.6 -209.9 45.5 -203.1 56.7 -188.5 L58.85 -188.5 Q60.0 -189.85 63.95 -189.9 L66.95 -188.4 Q86.0 -187.65 86.35 -175.9 M78.85 -177.4 L75.7 -181.15 Q72.1 -183.35 64.95 -183.75 31.45 -183.7 21.95 -177.4 20.15 -177.4 17.1 -172.4 L15.35 -166.9 15.2 -161.15 16.6 -150.0 18.1 -144.9 20.6 -140.0 Q24.5 -136.15 24.7 -136.75 31.35 -132.75 49.95 -136.75 65.7 -139.95 70.95 -144.9 72.2 -145.1 75.45 -149.5 L76.95 -153.0 Q77.5 -153.1 78.85 -158.9 L80.1 -169.25 79.95 -173.65 78.85 -177.4 M56.7 -188.5 L55.1 -188.4 37.95 -187.15 27.95 -185.5 19.85 -183.15 13.85 -179.75 9.85 -174.75 8.95 -171.5 8.2 -169.25 7.95 -166.75 7.95 -166.65 7.85 -164.25 7.95 -161.15 9.7 -148.75 11.85 -142.25 Q14.85 -136.8 15.85 -136.75 23.15 -129.2 38.2 -131.4 L41.85 -131.65 49.85 -133.0 M55.1 -188.4 L52.95 -190.25 48.6 -193.15 47.2 -193.65 Q33.8 -199.4 24.45 -193.65 22.9 -193.1 19.1 -188.75 L13.85 -179.75 M66.95 -188.4 L58.85 -188.5 M7.85 -166.65 L7.95 -166.65 M7.95 -166.75 L7.85 -166.65 Q1.1 -171.0 -5.15 -165.9 L-4.9 -164.25 Q2.7 -167.05 7.85 -164.25 M-10.3 -179.25 L-6.9 -174.75 -5.65 -170.15 1.35 -171.25 8.95 -171.5 M40.95 -73.65 L41.35 -73.4 M38.2 -131.4 L12.7 -96.15 8.2 -88.0 4.45 -79.9 Q0.95 -73.4 -1.55 -79.9 L-5.3 -88.0 -9.8 -96.15 -15.4 -104.25 -27.8 -120.5 -35.3 -131.4 -38.05 -131.5 -46.9 -133.0 M118.35 -11.15 L115.85 -11.5 M190.1 -5.65 L189.85 -3.5 Q190.0 -0.2 190.95 1.35 L192.6 5.35 M207.1 -10.65 L207.85 -6.75 209.35 -2.25 211.1 1.0 211.35 1.35 M211.1 1.0 L211.2 1.35 M56.95 120.6 L56.45 120.5 46.6 123.25 46.35 123.35 M52.2 139.0 L51.95 139.35 M56.45 120.5 L65.1 117.6 M53.6 148.65 L53.2 149.0 M46.1 160.35 L45.75 161.6 M-51.8 -188.4 L-50.4 -189.9 -44.15 -193.65 Q-28.6 -199.4 -21.3 -193.65 L-17.65 -190.75 Q-13.6 -186.4 -13.8 -185.5 L-12.15 -183.15 -10.3 -179.25 -17.65 -183.4 -25.05 -185.5 -36.3 -187.25 -51.8 -188.4 -53.8 -188.5 M-19.05 -177.4 Q-22.3 -181.7 -52.05 -183.75 -71.4 -185.45 -75.8 -177.4 L-76.9 -173.75 -77.05 -169.25 -75.3 -156.9 -74.05 -153.0 -71.9 -148.9 Q-69.4 -145.4 -67.9 -144.9 -60.85 -139.2 -47.05 -136.75 -31.15 -132.75 -21.8 -136.75 L-21.05 -136.9 -17.3 -140.5 -15.15 -144.9 -13.65 -149.9 -12.3 -161.15 -12.4 -166.9 -13.15 -169.25 Q-13.55 -172.35 -16.9 -176.15 L-19.05 -177.4 M-5.15 -165.9 L-5.65 -166.15 -5.9 -167.0 -5.4 -169.25 -5.65 -170.15 M-4.9 -164.25 L-6.8 -148.75 -8.9 -142.25 Q-12.5 -136.0 -12.8 -136.75 -19.55 -129.45 -35.3 -131.4 M-55.9 -188.5 L-64.05 -188.4 M-33.3 -121.4 L-32.9 -121.0 M-83.55 -175.9 L-83.4 -175.75 -83.4 -176.0 M-83.4 -175.75 L-83.55 -170.9 M-111.3 -10.75 L-113.15 -10.15 -117.55 -7.25 M-27.8 -80.3 L-27.9 -79.9 -28.15 -79.5 -28.05 -79.9 -27.9 -79.9 M-42.65 123.6 L-53.3 120.6 M-53.55 120.5 L-62.15 117.6 M-41.15 162.35 L-40.8 163.3 M-172.55 9.6 L-171.9 12.6 -172.4 17.6 -175.55 30.1 -175.65 30.5 M-186.15 11.6 L-186.9 17.6 -191.55 31.75 -191.65 32.0 M-191.55 31.75 L-191.8 32.0 M-175.55 30.1 L-175.8 30.5" fill="none" stroke="#000000" stroke-linecap="round" stroke-linejoin="round" stroke-width="2.15"/>
  </g>
</svg>
