<?xml version="1.0" encoding="UTF-8" standalone="no"?>
<svg xmlns:xlink="http://www.w3.org/1999/xlink" height="428.45px" width="407.5px" xmlns="http://www.w3.org/2000/svg">
  <g transform="matrix(1.0, 0.0, 0.0, 1.0, 195.2, 238.8)">
    <path d="M18.85 -219.5 L13.1 -216.0 9.45 -210.9 8.6 -207.5 8.45 -207.5 1.1 -207.15 -5.3 -205.9 -6.55 -210.9 -10.15 -216.0 -15.15 -219.0 Q-20.05 -228.15 -39.4 -223.75 L-39.55 -223.75 Q-14.3 -244.75 23.45 -234.25 35.75 -229.7 42.35 -223.9 22.6 -227.85 18.85 -219.5 M-58.3 -167.75 Q-51.85 -165.4 -44.65 -164.0 L-35.15 -162.75 -26.55 -153.0 -11.3 -136.75 -4.9 -128.65 -1.4 -123.4 0.95 -121.65 2.35 -121.75 4.2 -123.25 7.85 -128.65 14.2 -136.75 38.1 -162.75 Q50.4 -164.2 51.45 -164.9 L61.2 -167.75 Q61.35 -163.2 38.45 -142.9 L33.45 -135.5 30.85 -130.25 Q21.7 -115.5 30.1 -92.25 L33.1 -89.5 39.7 -85.5 47.45 -82.9 Q61.95 -77.15 66.95 -74.4 L81.35 -65.75 90.35 -58.15 94.1 -56.0 98.85 -54.15 115.85 -48.9 123.2 -47.65 Q145.95 -49.75 154.2 -47.9 L164.6 -45.0 172.35 -41.65 175.95 -39.65 182.7 -34.15 Q187.85 -29.35 191.45 -24.25 229.2 32.15 194.95 6.35 L194.85 6.35 Q205.6 35.75 180.35 9.6 L180.2 9.6 Q185.45 24.15 177.2 20.0 172.15 18.6 140.85 -8.25 L128.95 -14.9 117.95 -19.9 116.6 -20.15 128.1 0.35 135.7 20.35 Q137.15 23.05 137.35 27.5 136.4 46.8 134.7 50.35 L126.2 65.85 113.35 79.5 Q84.6 103.05 63.85 109.35 67.25 117.55 55.45 114.0 L51.7 113.35 45.1 115.1 44.45 115.35 Q3.7 127.8 -41.05 115.5 L-42.15 115.1 -49.05 113.35 -51.9 113.85 Q-64.65 117.6 -60.9 109.35 -77.65 105.55 -110.9 79.0 L-123.3 65.85 -131.4 51.1 -132.9 46.35 -134.55 28.1 Q-133.85 21.8 -133.4 22.25 -123.35 -6.6 -117.05 -14.65 L-125.05 -7.75 -132.05 -0.75 -150.65 21.1 Q-158.0 29.25 -160.05 30.35 -168.55 37.15 -166.55 26.25 -180.25 45.4 -181.65 33.85 L-180.4 27.1 Q-188.1 35.4 -192.05 36.0 L-193.05 35.75 -194.05 34.35 Q-194.5 32.3 -193.15 28.0 -179.9 -10.15 -161.65 -26.25 L-154.4 -31.75 -141.4 -38.9 -132.4 -42.25 -119.65 -44.65 -109.05 -49.25 -91.9 -55.75 -85.4 -59.75 -79.8 -64.75 -66.3 -73.15 -55.15 -78.5 Q-42.8 -83.9 -37.4 -85.25 L-37.3 -85.4 -32.9 -87.75 -32.8 -87.75 -32.55 -88.0 -32.4 -88.0 -32.15 -88.25 -32.05 -88.25 -28.55 -91.0 -28.4 -91.0 Q-18.25 -108.2 -27.8 -130.15 L-32.05 -138.0 -36.55 -144.0 Q-58.4 -163.15 -58.3 -167.75 M-4.8 -195.15 L-4.8 -201.65 -4.65 -201.75 Q0.95 -207.0 7.6 -202.25 L7.7 -202.15 7.7 -195.15 Q1.95 -198.4 -4.8 -195.15 M112.2 -22.15 L116.45 -20.4 112.2 -22.15 M180.35 9.6 L180.35 9.5 180.1 9.1 177.45 1.35 176.45 -3.9 176.85 -8.0 176.45 -3.9 177.45 1.35 180.1 9.1 180.35 9.5 180.35 9.6 M194.95 6.35 L194.85 6.1 191.45 -2.15 189.95 -10.25 191.45 -2.15 194.85 6.1 194.95 6.35 M-32.4 -88.0 L-32.65 -87.75 -32.55 -88.0 -32.65 -87.75 -32.4 -88.0 M-116.55 -15.0 L-116.8 -14.9 -116.8 -14.65 -116.55 -15.0 -113.65 -18.5 Q-110.15 -21.65 -108.15 -21.75 -110.15 -21.65 -113.65 -18.5 L-116.55 -15.0 -116.8 -14.65 -116.8 -14.9 -116.55 -15.0 M-60.9 109.35 L-49.05 113.35 -60.9 109.35 M180.2 9.6 L180.2 9.5 180.1 9.1 180.2 9.5 180.2 9.6 M194.85 6.35 L194.85 6.1 194.85 6.35 M-166.55 26.25 L-166.3 25.75 -164.4 17.6 -163.15 9.5 -163.3 6.35 -163.9 3.35 -163.3 6.35 -163.15 9.5 -164.4 17.6 -166.3 25.75 -166.55 26.25 M-180.4 27.1 L-179.9 25.75 -177.55 17.6 -175.8 9.5 -175.55 5.35 -175.8 9.5 -177.55 17.6 -179.9 25.75 -180.4 27.1 M51.7 113.35 L63.85 109.35 51.7 113.35" fill="#ffffff" fill-rule="evenodd" stroke="none"/>
    <path d="M-15.15 -219.0 L-10.15 -216.0 -6.55 -210.9 -5.3 -205.9 1.1 -207.15 8.45 -207.5 8.6 -207.5 9.45 -210.9 13.1 -216.0 18.85 -219.5 27.6 -222.0 Q38.1 -223.7 42.6 -223.65 82.4 -227.7 82.95 -208.5 L83.1 -203.75 82.95 -208.5 Q85.9 -206.65 83.1 -203.75 83.5 -175.0 61.2 -167.75 L51.45 -164.9 Q50.4 -164.2 38.1 -162.75 22.0 -161.05 15.7 -169.25 L13.85 -171.15 Q10.7 -176.8 11.1 -177.4 L9.45 -182.5 7.85 -195.0 7.85 -195.15 7.7 -195.15 7.85 -195.15 7.85 -195.0 7.7 -195.15 7.7 -202.15 7.7 -202.25 7.7 -204.4 8.6 -207.4 8.45 -207.5 8.6 -207.4 8.6 -207.5 8.6 -207.4 7.7 -204.4 7.7 -202.25 7.7 -202.15 7.6 -202.25 7.7 -202.25 7.6 -202.25 Q0.95 -207.0 -4.65 -201.75 L-4.8 -201.65 -4.8 -195.15 -6.55 -182.5 -8.15 -177.4 Q-10.65 -170.45 -12.65 -169.25 -18.4 -161.25 -35.15 -162.75 L-44.65 -164.0 Q-51.85 -165.4 -58.3 -167.75 L-58.3 -167.9 -58.4 -167.9 -58.3 -167.9 -58.3 -167.75 -58.4 -167.9 Q-79.8 -173.8 -80.15 -203.65 L-80.15 -203.75 -80.15 -208.5 -80.15 -203.75 -80.15 -203.65 -80.3 -203.75 Q-82.85 -206.9 -80.15 -208.5 -79.15 -227.7 -39.65 -223.65 L-39.55 -223.65 Q-21.95 -222.7 -15.15 -219.0 M-5.3 -205.9 L-5.55 -202.9 -5.05 -201.75 -4.8 -201.65 -5.05 -201.75 -5.55 -202.9 -5.3 -205.9 M16.2 -208.15 L17.45 -209.9 Q22.45 -217.1 34.45 -218.0 60.25 -220.55 66.85 -218.0 74.2 -217.1 76.1 -209.9 L76.85 -207.25 76.85 -201.75 75.95 -191.75 73.1 -182.0 69.7 -177.4 65.45 -174.0 Q61.5 -171.4 52.35 -169.25 28.95 -164.25 24.1 -169.25 23.95 -168.35 19.85 -173.15 L17.35 -178.65 15.85 -185.5 14.95 -193.65 14.85 -201.75 16.2 -208.15 14.85 -201.75 14.95 -193.65 15.85 -185.5 17.35 -178.65 19.85 -173.15 Q23.95 -168.35 24.1 -169.25 28.95 -164.25 52.35 -169.25 61.5 -171.4 65.45 -174.0 L69.7 -177.4 73.1 -182.0 75.95 -191.75 76.85 -201.75 76.85 -207.25 76.1 -209.9 Q74.2 -217.1 66.85 -218.0 60.25 -220.55 34.45 -218.0 22.45 -217.1 17.45 -209.9 L16.2 -208.15 M-80.15 -203.75 L-80.3 -203.75 -80.15 -203.75 M-73.05 -209.9 Q-70.85 -217.35 -63.9 -218.0 -51.85 -220.55 -31.55 -218.0 -20.3 -217.35 -14.55 -209.9 L-13.3 -208.15 -11.9 -201.75 -12.05 -193.65 -13.65 -181.65 -16.9 -173.15 Q-21.05 -168.35 -21.15 -169.25 -27.8 -164.25 -49.4 -169.25 L-57.3 -171.5 Q-63.1 -173.85 -66.65 -177.4 L-69.55 -181.0 -71.4 -185.5 -72.8 -190.9 -73.9 -201.75 -73.8 -207.4 -73.05 -209.9 -73.8 -207.4 -73.9 -201.75 -72.8 -190.9 -71.4 -185.5 -69.55 -181.0 -66.65 -177.4 Q-63.1 -173.85 -57.3 -171.5 L-49.4 -169.25 Q-27.8 -164.25 -21.15 -169.25 -21.05 -168.35 -16.9 -173.15 L-13.65 -181.65 -12.05 -193.65 -11.9 -201.75 -13.3 -208.15 -14.55 -209.9 Q-20.3 -217.35 -31.55 -218.0 -51.85 -220.55 -63.9 -218.0 -70.85 -217.35 -73.05 -209.9" fill="#43396f" fill-rule="evenodd" stroke="none"/>
    <path d="M18.85 -219.5 Q22.6 -227.85 42.35 -223.9 L42.6 -223.65 Q38.1 -223.7 27.6 -222.0 L18.85 -219.5 M-39.55 -223.75 L-39.4 -223.75 Q-20.05 -228.15 -15.15 -219.0 -21.95 -222.7 -39.55 -223.65 L-39.4 -223.75 -39.55 -223.65 -39.55 -223.75" fill="#ff7a16" fill-rule="evenodd" stroke="none"/>
    <path d="M-35.15 -162.75 Q-18.4 -161.25 -12.65 -169.25 -10.65 -170.45 -8.15 -177.4 L-6.55 -182.5 -4.8 -195.15 Q1.95 -198.4 7.7 -195.15 L7.85 -195.0 9.45 -182.5 11.1 -177.4 Q10.7 -176.8 13.85 -171.15 L15.7 -169.25 Q22.0 -161.05 38.1 -162.75 L14.2 -136.75 7.85 -128.65 4.2 -123.25 2.35 -121.75 0.95 -121.65 -1.4 -123.4 -4.9 -128.65 -11.3 -136.75 -26.55 -153.0 -35.15 -162.75 M55.45 114.0 L58.7 131.75 Q59.95 135.0 52.7 147.25 L52.85 149.75 54.35 152.1 57.45 154.1 70.7 159.6 80.95 161.6 91.95 164.85 101.7 168.85 Q108.45 172.35 107.7 172.85 L107.6 173.75 105.35 174.35 90.45 173.85 83.1 174.1 82.2 174.6 81.85 175.6 82.7 182.5 82.35 183.25 80.6 184.0 75.95 183.35 66.35 180.1 57.7 178.35 52.1 179.85 Q48.4 181.1 42.95 184.35 L38.85 185.85 37.45 185.1 37.35 181.85 39.1 175.1 43.7 166.5 45.7 161.35 45.6 161.05 43.1 154.0 Q42.0 151.1 42.7 145.75 L43.95 142.1 49.45 133.6 48.95 129.6 44.45 115.35 45.1 115.1 51.7 113.35 55.45 114.0 M-41.05 115.5 L-44.9 128.6 Q-45.85 132.0 -45.55 134.35 L-44.4 137.85 -41.15 143.35 -40.05 146.0 -38.9 150.25 -39.05 154.0 -40.65 162.65 -40.8 163.25 -37.9 168.5 -32.15 175.1 -30.3 178.25 -26.8 186.1 Q-26.0 189.55 -29.9 188.25 L-42.65 183.35 -49.15 181.85 -54.65 183.0 -66.05 187.5 -69.15 188.35 -71.15 188.35 -72.4 188.0 -73.15 187.0 -73.55 181.0 -74.05 179.6 -75.4 178.6 -84.65 178.6 -100.05 179.5 -101.4 178.75 -101.4 178.25 -99.9 176.6 -92.8 172.5 Q-86.8 169.5 -79.3 167.0 L-65.65 163.75 -55.05 158.6 -50.55 155.6 -49.15 153.0 -48.9 149.75 Q-48.5 149.4 -53.3 140.35 L-54.8 134.75 -54.8 131.35 -51.9 113.85 -49.05 113.35 -42.15 115.1 -41.05 115.5 M-40.65 162.65 L-40.9 162.1 -40.65 162.65 M45.6 161.05 L45.85 160.1 45.6 161.05" fill="#fa410f" fill-rule="evenodd" stroke="none"/>
    <path d="M-15.15 -219.0 L-10.15 -216.0 -6.55 -210.9 -5.3 -205.9 1.1 -207.15 8.45 -207.5 8.6 -207.5 9.45 -210.9 13.1 -216.0 18.85 -219.5 Q22.6 -227.85 42.35 -223.9 35.75 -229.7 23.45 -234.25 -14.3 -244.75 -39.55 -223.75 L-39.4 -223.75 Q-20.05 -228.15 -15.15 -219.0 -21.95 -222.7 -39.55 -223.65 L-39.65 -223.65 Q-79.15 -227.7 -80.15 -208.5 L-80.15 -203.75 -80.15 -203.65 Q-79.8 -173.8 -58.4 -167.9 L-58.3 -167.9 -58.3 -167.75 Q-51.85 -165.4 -44.65 -164.0 L-35.15 -162.75 Q-18.4 -161.25 -12.65 -169.25 -10.65 -170.45 -8.15 -177.4 L-6.55 -182.5 -4.8 -195.15 -4.8 -201.65 -5.05 -201.75 -5.55 -202.9 -5.3 -205.9 M8.45 -207.5 L8.6 -207.4 8.6 -207.5 M8.6 -207.4 L7.7 -204.4 7.7 -202.25 7.7 -202.15 7.7 -195.15 7.85 -195.15 7.85 -195.0 9.45 -182.5 11.1 -177.4 Q10.7 -176.8 13.85 -171.15 L15.7 -169.25 Q22.0 -161.05 38.1 -162.75 50.4 -164.2 51.45 -164.9 L61.2 -167.75 Q83.5 -175.0 83.1 -203.75 L82.95 -208.5 Q82.4 -227.7 42.6 -223.65 38.1 -223.7 27.6 -222.0 L18.85 -219.5 M7.7 -202.25 L7.6 -202.25 7.7 -202.15 M16.2 -208.15 L14.85 -201.75 14.95 -193.65 15.85 -185.5 17.35 -178.65 19.85 -173.15 Q23.95 -168.35 24.1 -169.25 28.95 -164.25 52.35 -169.25 61.5 -171.4 65.45 -174.0 L69.7 -177.4 73.1 -182.0 75.95 -191.75 76.85 -201.75 76.85 -207.25 76.1 -209.9 Q74.2 -217.1 66.85 -218.0 60.25 -220.55 34.45 -218.0 22.45 -217.1 17.45 -209.9 L16.2 -208.15 M42.35 -223.9 L42.6 -223.65 M82.95 -208.5 Q85.9 -206.65 83.1 -203.75 M7.85 -195.0 L7.7 -195.15 Q1.95 -198.4 -4.8 -195.15 M194.95 6.35 Q229.2 32.15 191.45 -24.25 187.85 -29.35 182.7 -34.15 L175.95 -39.65 172.35 -41.65 164.6 -45.0 154.2 -47.9 Q145.95 -49.75 123.2 -47.65 L115.85 -48.9 98.85 -54.15 94.1 -56.0 90.35 -58.15 81.35 -65.75 66.95 -74.4 Q61.95 -77.15 47.45 -82.9 L39.7 -85.5 33.1 -89.5 30.1 -92.25 Q21.7 -115.5 30.85 -130.25 L33.45 -135.5 38.45 -142.9 Q61.35 -163.2 61.2 -167.75 M-35.15 -162.75 L-26.55 -153.0 -11.3 -136.75 -4.9 -128.65 -1.4 -123.4 0.95 -121.65 2.35 -121.75 4.2 -123.25 7.85 -128.65 14.2 -136.75 38.1 -162.75 M116.45 -20.4 L112.2 -22.15 M194.95 6.35 L194.85 6.35 Q205.6 35.75 180.35 9.6 L180.2 9.6 Q185.45 24.15 177.2 20.0 172.15 18.6 140.85 -8.25 L128.95 -14.9 117.95 -19.9 116.6 -20.15 128.1 0.35 135.7 20.35 Q137.15 23.05 137.35 27.5 136.4 46.8 134.7 50.35 L126.2 65.85 113.35 79.5 Q84.6 103.05 63.85 109.35 67.25 117.55 55.45 114.0 L58.7 131.75 Q59.95 135.0 52.7 147.25 L52.85 149.75 54.35 152.1 57.45 154.1 70.7 159.6 80.95 161.6 91.95 164.85 101.7 168.85 Q108.45 172.35 107.7 172.85 L107.6 173.75 105.35 174.35 90.45 173.85 83.1 174.1 82.2 174.6 81.85 175.6 82.7 182.5 82.35 183.25 80.6 184.0 75.95 183.35 66.35 180.1 57.7 178.35 52.1 179.85 Q48.4 181.1 42.95 184.35 L38.85 185.85 37.45 185.1 37.35 181.85 39.1 175.1 43.7 166.5 45.7 161.35 45.6 161.05 43.1 154.0 Q42.0 151.1 42.7 145.75 L43.95 142.1 49.45 133.6 48.95 129.6 44.45 115.35 Q3.7 127.8 -41.05 115.5 L-44.9 128.6 Q-45.85 132.0 -45.55 134.35 L-44.4 137.85 -41.15 143.35 -40.05 146.0 -38.9 150.25 -39.05 154.0 -40.65 162.65 -40.8 163.25 -37.9 168.5 -32.15 175.1 -30.3 178.25 -26.8 186.1 Q-26.0 189.55 -29.9 188.25 L-42.65 183.35 -49.15 181.85 -54.65 183.0 -66.05 187.5 -69.15 188.35 -71.15 188.35 -72.4 188.0 -73.15 187.0 -73.55 181.0 -74.05 179.6 -75.4 178.6 -84.65 178.6 -100.05 179.5 -101.4 178.75 -101.4 178.25 -99.9 176.6 -92.8 172.5 Q-86.8 169.5 -79.3 167.0 L-65.65 163.75 -55.05 158.6 -50.55 155.6 -49.15 153.0 -48.9 149.75 Q-48.5 149.4 -53.3 140.35 L-54.8 134.75 -54.8 131.35 -51.9 113.85 Q-64.65 117.6 -60.9 109.35 -77.65 105.55 -110.9 79.0 L-123.3 65.85 -131.4 51.1 -132.9 46.35 -134.55 28.1 Q-133.85 21.8 -133.4 22.25 -123.35 -6.6 -117.05 -14.65 L-125.05 -7.75 -132.05 -0.75 -150.65 21.1 Q-158.0 29.25 -160.05 30.35 -168.55 37.15 -166.55 26.25 -180.25 45.4 -181.65 33.85 L-180.4 27.1 Q-188.1 35.4 -192.05 36.0 L-193.05 35.75 -194.05 34.35 Q-194.5 32.3 -193.15 28.0 -179.9 -10.15 -161.65 -26.25 L-154.4 -31.75 -141.4 -38.9 -132.4 -42.25 -119.65 -44.65 -109.05 -49.25 -91.9 -55.75 -85.4 -59.75 -79.8 -64.75 -66.3 -73.15 -55.15 -78.5 Q-42.8 -83.9 -37.4 -85.25 L-37.3 -85.4 -32.9 -87.75 -32.8 -87.75 -32.55 -88.0 -32.4 -88.0 -32.15 -88.25 -32.05 -88.25 -28.55 -91.0 -28.4 -91.0 Q-18.25 -108.2 -27.8 -130.15 L-32.05 -138.0 -36.55 -144.0 Q-58.4 -163.15 -58.3 -167.75 L-58.4 -167.9 M189.95 -10.25 L191.45 -2.15 194.85 6.1 194.95 6.35 M176.85 -8.0 L176.45 -3.9 177.45 1.35 180.1 9.1 180.35 9.5 180.35 9.6 M-73.05 -209.9 L-73.8 -207.4 -73.9 -201.75 -72.8 -190.9 -71.4 -185.5 -69.55 -181.0 -66.65 -177.4 Q-63.1 -173.85 -57.3 -171.5 L-49.4 -169.25 Q-27.8 -164.25 -21.15 -169.25 -21.05 -168.35 -16.9 -173.15 L-13.65 -181.65 -12.05 -193.65 -11.9 -201.75 -13.3 -208.15 -14.55 -209.9 Q-20.3 -217.35 -31.55 -218.0 -51.85 -220.55 -63.9 -218.0 -70.85 -217.35 -73.05 -209.9 M-80.3 -203.75 L-80.15 -203.75 M-80.15 -203.65 L-80.3 -203.75 Q-82.85 -206.9 -80.15 -208.5 M-39.4 -223.75 L-39.55 -223.65 -39.55 -223.75 M-4.8 -201.65 L-4.65 -201.75 Q0.95 -207.0 7.6 -202.25 M-108.15 -21.75 Q-110.15 -21.65 -113.65 -18.5 L-116.55 -15.0 -116.8 -14.65 -116.8 -14.9 -116.55 -15.0 M-32.55 -88.0 L-32.65 -87.75 -32.4 -88.0 M-49.05 113.35 L-42.15 115.1 -41.05 115.5 M-51.9 113.85 L-49.05 113.35 -60.9 109.35 M-40.9 162.1 L-40.65 162.65 M-175.55 5.35 L-175.8 9.5 -177.55 17.6 -179.9 25.75 -180.4 27.1 M-163.9 3.35 L-163.3 6.35 -163.15 9.5 -164.4 17.6 -166.3 25.75 -166.55 26.25 M194.85 6.1 L194.85 6.35 M180.1 9.1 L180.2 9.5 180.2 9.6 M55.45 114.0 L51.7 113.35 45.1 115.1 44.45 115.35 M63.85 109.35 L51.7 113.35 M45.85 160.1 L45.6 161.05" fill="none" stroke="#000000" stroke-linecap="round" stroke-linejoin="round" stroke-width="2.15"/>
  </g>
</svg>
