<?xml version="1.0" encoding="UTF-8" standalone="no"?>
<svg xmlns:xlink="http://www.w3.org/1999/xlink" height="460.25px" width="361.55px" xmlns="http://www.w3.org/2000/svg">
  <g transform="matrix(1.0, 0.0, 0.0, 1.0, 177.7, 271.2)">
    <path d="M24.35 -265.4 L36.1 -266.9 54.45 -266.75 Q68.5 -265.55 73.85 -261.25 L77.35 -256.65 Q79.5 -249.55 78.95 -248.9 81.65 -247.4 79.1 -243.9 77.75 -213.7 62.2 -208.75 54.65 -204.35 38.85 -202.65 19.6 -201.3 15.35 -209.9 L13.45 -211.9 10.85 -218.0 8.95 -226.15 7.95 -233.25 7.85 -233.4 7.85 -234.25 7.2 -240.25 7.35 -245.5 7.45 -248.25 8.1 -250.5 8.2 -251.0 8.1 -250.5 7.45 -248.25 7.35 -245.5 Q1.4 -248.8 0.7 -248.0 L-4.4 -245.15 -4.3 -240.25 -5.05 -233.25 -6.05 -226.15 -7.9 -218.0 -10.55 -211.9 -12.4 -209.9 Q-16.15 -201.5 -35.9 -202.65 -50.75 -204.1 -59.3 -208.75 L-59.4 -208.75 -59.4 -208.9 Q-61.9 -209.4 -66.9 -213.9 L-71.05 -219.4 Q-74.75 -225.65 -76.15 -243.9 L-76.3 -243.9 Q-78.6 -247.9 -76.15 -248.9 -78.0 -270.45 -31.05 -266.75 L-21.4 -265.4 -15.3 -263.65 Q-7.6 -259.4 -8.65 -258.65 L-6.15 -254.9 -4.9 -249.5 -0.3 -250.5 8.2 -251.0 9.2 -255.0 11.6 -258.65 Q10.5 -259.4 18.2 -263.65 L24.35 -265.4 M52.1 -262.15 L59.35 -261.4 Q66.4 -260.05 67.2 -258.65 L69.35 -257.4 Q72.95 -252.85 72.6 -250.5 L73.1 -248.65 73.1 -242.4 72.45 -234.25 71.1 -226.15 69.35 -221.25 67.1 -218.0 Q64.9 -213.6 52.95 -209.9 25.65 -204.4 23.6 -209.9 22.85 -208.95 19.1 -214.25 L16.6 -220.25 15.35 -226.15 13.95 -239.5 14.2 -246.25 15.2 -250.5 Q14.4 -250.6 18.35 -256.4 L21.95 -258.65 Q23.4 -262.15 52.1 -262.15 23.4 -262.15 21.95 -258.65 L18.35 -256.4 Q14.4 -250.6 15.2 -250.5 L14.2 -246.25 13.95 -239.5 15.35 -226.15 16.6 -220.25 19.1 -214.25 Q22.85 -208.95 23.6 -209.9 25.65 -204.4 52.95 -209.9 64.9 -213.6 67.1 -218.0 L69.35 -221.25 71.1 -226.15 72.45 -234.25 73.1 -242.4 73.1 -248.65 72.6 -250.5 Q72.95 -252.85 69.35 -257.4 L67.2 -258.65 Q66.4 -260.05 59.35 -261.4 L52.1 -262.15 M78.95 -248.9 L79.1 -243.9 78.95 -248.9 M-37.8 -262.15 L-26.3 -261.15 -20.15 -259.4 -15.4 -256.4 Q-11.5 -250.6 -12.3 -250.5 L-11.4 -247.0 -11.05 -239.65 -12.4 -226.15 -13.65 -220.4 -16.15 -214.25 Q-19.9 -208.95 -20.65 -209.9 -21.9 -207.25 -35.65 -207.15 L-48.55 -209.25 -50.05 -209.9 Q-60.8 -212.85 -64.05 -218.0 L-66.3 -221.25 -68.05 -226.15 -69.4 -234.25 -70.15 -242.4 -70.05 -248.9 -68.65 -253.9 Q-65.85 -258.75 -64.3 -258.65 -60.05 -262.65 -37.8 -262.15 -60.05 -262.65 -64.3 -258.65 -65.85 -258.75 -68.65 -253.9 L-70.05 -248.9 -70.15 -242.4 -69.4 -234.25 -68.05 -226.15 -66.3 -221.25 -64.05 -218.0 Q-60.8 -212.85 -50.05 -209.9 L-48.55 -209.25 -35.65 -207.15 Q-21.9 -207.25 -20.65 -209.9 -19.9 -208.95 -16.15 -214.25 L-13.65 -220.4 -12.4 -226.15 -11.05 -239.65 -11.4 -247.0 -12.3 -250.5 Q-11.5 -250.6 -15.4 -256.4 L-20.15 -259.4 -26.3 -261.15 -37.8 -262.15 M-76.3 -243.9 L-76.15 -244.0 -76.15 -243.9 -76.15 -244.0 -76.3 -243.9 M-4.4 -245.15 L-5.05 -245.65 -5.3 -246.65 -4.9 -249.5 -5.3 -246.65 -5.05 -245.65 -4.4 -245.15 M-59.4 -208.9 L-59.3 -208.75 -59.4 -208.9 M-76.15 -244.0 L-76.15 -248.9 -76.15 -244.0" fill="#43396f" fill-rule="evenodd" stroke="none"/>
    <path d="M62.2 -208.75 Q62.25 -205.4 60.6 -200.0 L57.85 -193.9 52.7 -186.25 Q35.25 -167.75 35.6 -166.25 L31.2 -158.0 28.2 -150.25 Q21.25 -128.7 29.6 -110.9 L32.45 -107.9 35.1 -105.9 39.2 -103.5 Q40.2 -104.15 64.7 -92.25 81.1 -82.3 86.95 -76.25 89.1 -75.05 91.2 -73.9 L102.95 -69.0 118.7 -61.45 118.85 -61.4 119.65 -61.2 130.6 -58.75 135.7 -56.75 145.35 -51.4 153.2 -45.75 Q161.65 -40.15 173.35 -14.5 L178.45 -0.25 Q182.65 12.05 182.6 13.6 183.75 19.85 178.7 17.6 L177.2 16.75 173.2 13.0 174.2 19.35 Q174.6 21.6 172.45 23.35 L169.85 22.6 Q166.5 20.35 164.95 17.6 L162.0 13.95 161.95 13.85 Q162.9 18.5 161.1 19.1 L159.85 19.1 154.85 15.75 148.2 8.75 127.2 -17.9 121.95 -23.65 114.95 -30.25 114.85 -30.25 122.2 -15.75 131.2 9.35 132.2 16.0 130.7 32.1 129.6 38.25 121.6 53.75 119.1 57.1 105.85 71.35 Q79.2 93.6 61.1 98.35 66.85 110.4 52.6 105.25 L46.1 104.75 41.7 105.35 35.6 106.5 33.45 106.5 Q3.4 115.3 -30.9 106.35 L-32.4 106.5 -38.65 105.35 -38.8 105.35 -38.8 105.25 -38.65 105.35 -38.8 105.25 -44.15 104.6 -49.65 105.25 -56.15 106.35 -58.8 106.25 Q-60.85 105.4 -58.15 98.35 -76.55 93.6 -104.4 69.85 L-115.65 57.6 -118.65 53.6 -126.65 38.25 Q-127.85 34.45 -128.3 25.75 L-129.15 15.1 -128.3 9.6 -121.8 -9.4 Q-119.05 -17.0 -117.3 -19.65 L-117.55 -19.75 Q-137.9 12.55 -148.3 23.1 -154.8 28.45 -153.8 20.35 -169.05 42.0 -165.8 21.1 L-165.9 21.1 Q-176.05 34.05 -176.65 24.25 -171.85 3.6 -164.3 -13.5 -153.15 -39.0 -130.55 -52.5 L-130.4 -52.65 -129.9 -52.9 -129.8 -53.0 -128.9 -53.5 -128.8 -53.65 -123.05 -56.75 -119.55 -57.9 -119.4 -58.0 -119.3 -58.0 -119.15 -58.15 -102.05 -67.9 -85.55 -75.5 Q-64.35 -93.75 -38.9 -102.5 L-38.8 -102.65 -38.3 -102.75 -38.15 -102.9 -37.3 -103.15 -37.15 -103.25 -36.65 -103.4 -36.55 -103.5 -33.05 -105.4 -32.9 -105.4 -32.65 -105.65 -32.55 -105.65 Q-24.25 -110.35 -23.15 -121.75 -20.75 -137.85 -24.05 -146.15 L-28.4 -158.25 -32.05 -165.25 -37.15 -172.4 Q-47.75 -182.45 -54.55 -193.25 L-57.65 -200.0 Q-59.8 -207.15 -59.4 -208.75 L-59.3 -208.75 Q-50.75 -204.1 -35.9 -202.65 L-3.05 -178.5 1.1 -176.9 3.35 -177.4 Q3.95 -177.0 9.1 -180.65 L38.85 -202.65 Q54.65 -204.35 62.2 -208.75 M-21.4 -265.4 Q2.9 -274.2 20.95 -266.75 L24.35 -265.4 18.2 -263.65 Q10.5 -259.4 11.6 -258.65 L9.2 -255.0 8.2 -251.0 -0.3 -250.5 -4.9 -249.5 -6.15 -254.9 -8.65 -258.65 Q-7.6 -259.4 -15.3 -263.65 L-21.4 -265.4 M7.35 -245.5 L7.2 -240.25 7.85 -234.25 7.85 -233.4 5.85 -234.25 2.1 -235.4 Q-0.25 -235.45 -2.8 -234.25 L-5.05 -233.25 -4.3 -240.25 -4.4 -245.15 0.7 -248.0 Q1.4 -248.8 7.35 -245.5 M173.2 13.0 L168.95 -6.75 168.6 -10.65 168.95 -6.75 173.2 13.0 M162.0 13.95 L159.45 1.35 158.7 -6.75 159.45 -11.4 158.7 -6.75 159.45 1.35 162.0 13.95 M114.85 -30.25 L114.7 -30.65 114.35 -31.15 Q112.15 -35.95 106.2 -38.5 112.15 -35.95 114.35 -31.15 L114.7 -30.65 114.95 -30.25 114.7 -30.65 114.85 -30.25 M33.45 106.5 L51.35 101.6 61.1 98.35 51.35 101.6 33.45 106.5 M-103.3 -38.4 Q-105.05 -38.1 -108.8 -34.5 L-111.15 -31.15 -116.55 -21.0 -111.15 -31.15 -108.8 -34.5 Q-105.05 -38.1 -103.3 -38.4 M-153.8 20.35 L-151.9 9.5 -151.15 1.35 -151.3 -2.15 -152.15 -5.75 -151.3 -2.15 -151.15 1.35 -151.9 9.5 -153.8 20.35 M-165.9 21.1 L-165.8 21.0 -163.3 9.5 -162.05 1.35 -161.9 -3.0 -162.05 1.35 -163.3 9.5 -165.8 21.0 -165.8 21.1 -165.8 21.0 -165.9 21.1 M-30.9 106.35 L-46.05 102.35 -58.15 98.35 -46.05 102.35 -30.9 106.35" fill="#ffffff" fill-rule="evenodd" stroke="none"/>
    <path d="M52.6 105.25 L53.7 125.1 Q53.65 129.4 51.35 142.0 L51.2 145.25 51.7 147.75 53.1 150.35 Q54.1 151.95 56.6 153.1 L66.85 157.6 Q73.1 159.8 80.35 160.75 L91.85 164.5 99.7 167.85 Q107.35 171.85 106.45 172.35 L106.45 173.0 105.85 173.5 101.95 174.0 91.95 173.35 81.85 173.6 80.85 174.35 80.7 175.35 81.7 181.5 81.35 182.5 80.6 183.1 79.35 183.35 76.85 183.1 63.1 178.85 57.1 177.85 51.45 179.25 Q47.5 180.6 41.85 184.0 L39.1 185.0 38.1 185.1 37.1 184.5 36.7 183.1 36.85 181.25 38.45 174.6 Q41.25 168.0 42.85 166.35 L45.1 160.5 45.05 160.3 43.1 155.25 41.45 148.0 41.6 143.75 44.7 125.35 44.45 120.85 41.7 105.35 46.1 104.75 52.6 105.25 M-38.8 105.35 L-41.8 122.5 -41.9 127.35 Q-41.25 133.7 -39.3 140.6 L-38.05 149.75 -38.55 154.35 -40.25 162.0 -40.3 162.25 -37.15 167.6 Q-31.85 173.15 -30.8 175.5 L-28.4 180.1 -26.3 185.85 -26.4 187.1 -27.4 188.0 -30.55 187.35 Q-36.75 185.15 -42.8 182.5 L-48.8 181.25 Q-55.05 182.05 -66.3 187.1 L-69.15 187.75 -70.55 187.6 -71.9 186.75 Q-71.9 178.1 -74.4 178.0 L-83.15 178.0 -98.4 178.85 -99.55 178.6 -100.05 178.25 -100.05 177.5 Q-99.85 176.6 -96.9 174.75 L-89.55 170.75 -80.55 166.85 -75.8 165.25 Q-62.15 162.25 -62.55 161.75 L-52.55 156.6 -49.55 154.25 -48.4 152.0 -47.65 147.25 -50.9 129.25 Q-51.55 128.75 -49.65 105.25 L-44.15 104.6 -38.8 105.25 -38.8 105.35 M7.85 -233.4 L7.95 -233.25 8.95 -226.15 10.85 -218.0 13.45 -211.9 15.35 -209.9 Q19.6 -201.3 38.85 -202.65 L9.1 -180.65 Q3.95 -177.0 3.35 -177.4 L1.1 -176.9 -3.05 -178.5 -35.9 -202.65 Q-16.15 -201.5 -12.4 -209.9 L-10.55 -211.9 -7.9 -218.0 -6.05 -226.15 -5.05 -233.25 -2.8 -234.25 Q-0.25 -235.45 2.1 -235.4 L5.85 -234.25 7.85 -233.4 M45.05 160.3 L45.2 159.25 45.05 160.3 M-40.25 162.0 L-40.4 161.35 -40.25 162.0" fill="#fa410f" fill-rule="evenodd" stroke="none"/>
    <path d="M24.35 -265.4 L36.1 -266.9 54.45 -266.75 Q68.5 -265.55 73.85 -261.25 L77.35 -256.65 Q79.5 -249.55 78.95 -248.9 81.65 -247.4 79.1 -243.9 77.75 -213.7 62.2 -208.75 62.25 -205.4 60.6 -200.0 L57.85 -193.9 52.7 -186.25 Q35.25 -167.75 35.6 -166.25 L31.2 -158.0 28.2 -150.25 Q21.25 -128.7 29.6 -110.9 L32.45 -107.9 35.1 -105.9 39.2 -103.5 Q40.2 -104.15 64.7 -92.25 81.1 -82.3 86.95 -76.25 89.1 -75.05 91.2 -73.9 L102.95 -69.0 118.7 -61.45 119.65 -61.2 130.6 -58.75 135.7 -56.75 145.35 -51.4 153.2 -45.75 Q161.65 -40.15 173.35 -14.5 L178.45 -0.25 Q182.65 12.05 182.6 13.6 183.75 19.85 178.7 17.6 L177.2 16.75 173.2 13.0 174.2 19.35 Q174.6 21.6 172.45 23.35 L169.85 22.6 Q166.5 20.35 164.95 17.6 L162.0 13.95 161.95 13.85 Q162.9 18.5 161.1 19.1 L159.85 19.1 154.85 15.75 148.2 8.75 127.2 -17.9 121.95 -23.65 114.95 -30.25 114.85 -30.25 122.2 -15.75 131.2 9.35 132.2 16.0 130.7 32.1 129.6 38.25 121.6 53.75 119.1 57.1 105.85 71.35 Q79.2 93.6 61.1 98.35 66.85 110.4 52.6 105.25 L53.7 125.1 Q53.65 129.4 51.35 142.0 L51.2 145.25 51.7 147.75 53.1 150.35 Q54.1 151.95 56.6 153.1 L66.85 157.6 Q73.1 159.8 80.35 160.75 L91.85 164.5 99.7 167.85 Q107.35 171.85 106.45 172.35 L106.45 173.0 105.85 173.5 101.95 174.0 91.95 173.35 81.85 173.6 80.85 174.35 80.7 175.35 81.7 181.5 81.35 182.5 80.6 183.1 79.35 183.35 76.85 183.1 63.1 178.85 57.1 177.85 51.45 179.25 Q47.5 180.6 41.85 184.0 L39.1 185.0 38.1 185.1 37.1 184.5 36.7 183.1 36.85 181.25 38.45 174.6 Q41.25 168.0 42.85 166.35 L45.1 160.5 45.05 160.3 43.1 155.25 41.45 148.0 41.6 143.75 44.7 125.35 44.45 120.85 41.7 105.35 35.6 106.5 33.45 106.5 Q3.4 115.3 -30.9 106.35 L-32.4 106.5 -38.65 105.35 -38.8 105.35 -41.8 122.5 -41.9 127.35 Q-41.25 133.7 -39.3 140.6 L-38.05 149.75 -38.55 154.35 -40.25 162.0 -40.3 162.25 -37.15 167.6 Q-31.85 173.15 -30.8 175.5 L-28.4 180.1 -26.3 185.85 -26.4 187.1 -27.4 188.0 -30.55 187.35 Q-36.75 185.15 -42.8 182.5 L-48.8 181.25 Q-55.05 182.05 -66.3 187.1 L-69.15 187.75 -70.55 187.6 -71.9 186.75 Q-71.9 178.1 -74.4 178.0 L-83.15 178.0 -98.4 178.85 -99.55 178.6 -100.05 178.25 -100.05 177.5 Q-99.85 176.6 -96.9 174.75 L-89.55 170.75 -80.55 166.85 -75.8 165.25 Q-62.15 162.25 -62.55 161.75 L-52.55 156.6 -49.55 154.25 -48.4 152.0 -47.65 147.25 -50.9 129.25 Q-51.55 128.75 -49.65 105.25 L-56.15 106.35 -58.8 106.25 Q-60.85 105.4 -58.15 98.35 -76.55 93.6 -104.4 69.85 L-115.65 57.6 -118.65 53.6 -126.65 38.25 Q-127.85 34.45 -128.3 25.75 L-129.15 15.1 -128.3 9.6 -121.8 -9.4 Q-119.05 -17.0 -117.3 -19.65 L-117.55 -19.75 Q-137.9 12.55 -148.3 23.1 -154.8 28.45 -153.8 20.35 -169.05 42.0 -165.8 21.1 L-165.9 21.1 Q-176.05 34.05 -176.65 24.25 -171.85 3.6 -164.3 -13.5 -153.15 -39.0 -130.55 -52.5 L-130.4 -52.65 -129.9 -52.9 -129.8 -53.0 -128.9 -53.5 -128.8 -53.65 -123.05 -56.75 -119.55 -57.9 -119.4 -58.0 -119.3 -58.0 -119.15 -58.15 -102.05 -67.9 -85.55 -75.5 Q-64.35 -93.75 -38.9 -102.5 L-38.8 -102.65 -38.3 -102.75 -38.15 -102.9 -37.3 -103.15 -37.15 -103.25 -36.65 -103.4 -36.55 -103.5 -33.05 -105.4 -32.9 -105.4 -32.65 -105.65 -32.55 -105.65 Q-24.25 -110.35 -23.15 -121.75 -20.75 -137.85 -24.05 -146.15 L-28.4 -158.25 -32.05 -165.25 -37.15 -172.4 Q-47.75 -182.45 -54.55 -193.25 L-57.65 -200.0 Q-59.8 -207.15 -59.4 -208.75 L-59.4 -208.9 Q-61.9 -209.4 -66.9 -213.9 L-71.05 -219.4 Q-74.75 -225.65 -76.15 -243.9 L-76.3 -243.9 Q-78.6 -247.9 -76.15 -248.9 -78.0 -270.45 -31.05 -266.75 L-21.4 -265.4 Q2.9 -274.2 20.95 -266.75 L24.35 -265.4 18.2 -263.65 Q10.5 -259.4 11.6 -258.65 L9.2 -255.0 8.2 -251.0 8.1 -250.5 7.45 -248.25 7.35 -245.5 7.2 -240.25 7.85 -234.25 7.85 -233.4 7.95 -233.25 8.95 -226.15 10.85 -218.0 13.45 -211.9 15.35 -209.9 Q19.6 -201.3 38.85 -202.65 54.65 -204.35 62.2 -208.75 M52.1 -262.15 Q23.4 -262.15 21.95 -258.65 L18.35 -256.4 Q14.4 -250.6 15.2 -250.5 L14.2 -246.25 13.95 -239.5 15.35 -226.15 16.6 -220.25 19.1 -214.25 Q22.85 -208.95 23.6 -209.9 25.65 -204.4 52.95 -209.9 64.9 -213.6 67.1 -218.0 L69.35 -221.25 71.1 -226.15 72.45 -234.25 73.1 -242.4 73.1 -248.65 72.6 -250.5 Q72.95 -252.85 69.35 -257.4 L67.2 -258.65 Q66.4 -260.05 59.35 -261.4 L52.1 -262.15 M-5.05 -233.25 L-2.8 -234.25 Q-0.25 -235.45 2.1 -235.4 L5.85 -234.25 7.85 -233.4 M79.1 -243.9 L78.95 -248.9 M7.35 -245.5 Q1.4 -248.8 0.7 -248.0 L-4.4 -245.15 -4.3 -240.25 -5.05 -233.25 -6.05 -226.15 -7.9 -218.0 -10.55 -211.9 -12.4 -209.9 Q-16.15 -201.5 -35.9 -202.65 L-3.05 -178.5 1.1 -176.9 3.35 -177.4 Q3.95 -177.0 9.1 -180.65 L38.85 -202.65 M119.65 -61.2 L118.85 -61.4 118.7 -61.45 M106.2 -38.5 Q112.15 -35.95 114.35 -31.15 L114.7 -30.65 114.95 -30.25 M114.7 -30.65 L114.85 -30.25 M159.45 -11.4 L158.7 -6.75 159.45 1.35 162.0 13.95 M168.6 -10.65 L168.95 -6.75 173.2 13.0 M41.7 105.35 L46.1 104.75 52.6 105.25 M45.2 159.25 L45.05 160.3 M61.1 98.35 L51.35 101.6 33.45 106.5 M-37.8 -262.15 Q-60.05 -262.65 -64.3 -258.65 -65.85 -258.75 -68.65 -253.9 L-70.05 -248.9 -70.15 -242.4 -69.4 -234.25 -68.05 -226.15 -66.3 -221.25 -64.05 -218.0 Q-60.8 -212.85 -50.05 -209.9 L-48.55 -209.25 -35.65 -207.15 Q-21.9 -207.25 -20.65 -209.9 -19.9 -208.95 -16.15 -214.25 L-13.65 -220.4 -12.4 -226.15 -11.05 -239.65 -11.4 -247.0 -12.3 -250.5 Q-11.5 -250.6 -15.4 -256.4 L-20.15 -259.4 -26.3 -261.15 -37.8 -262.15 M-21.4 -265.4 L-15.3 -263.65 Q-7.6 -259.4 -8.65 -258.65 L-6.15 -254.9 -4.9 -249.5 -0.3 -250.5 8.2 -251.0 M-76.15 -243.9 L-76.15 -244.0 -76.3 -243.9 M-59.4 -208.75 L-59.3 -208.75 -59.4 -208.9 M-4.9 -249.5 L-5.3 -246.65 -5.05 -245.65 -4.4 -245.15 M-59.3 -208.75 Q-50.75 -204.1 -35.9 -202.65 M-76.15 -248.9 L-76.15 -244.0 M-152.15 -5.75 L-151.3 -2.15 -151.15 1.35 -151.9 9.5 -153.8 20.35 M-116.55 -21.0 L-111.15 -31.15 -108.8 -34.5 Q-105.05 -38.1 -103.3 -38.4 M-38.8 105.25 L-38.8 105.35 M-38.8 105.25 L-38.65 105.35 M-49.65 105.25 L-44.15 104.6 -38.8 105.25 M-40.4 161.35 L-40.25 162.0 M-58.15 98.35 L-46.05 102.35 -30.9 106.35 M-161.9 -3.0 L-162.05 1.35 -163.3 9.5 -165.8 21.0 -165.8 21.1 M-165.8 21.0 L-165.9 21.1" fill="none" stroke="#000000" stroke-linecap="round" stroke-linejoin="round" stroke-width="2.15"/>
  </g>
</svg>
