<?xml version="1.0" encoding="UTF-8" standalone="no"?>
<svg xmlns:xlink="http://www.w3.org/1999/xlink" height="477.85px" width="325.85px" xmlns="http://www.w3.org/2000/svg">
  <g transform="matrix(1.0, 0.0, 0.0, 1.0, 164.45, 289.3)">
    <path d="M69.85 -274.9 L70.45 -273.9 71.6 -266.75 70.6 -251.5 70.2 -250.5 69.6 -246.5 68.1 -242.4 Q68.9 -242.65 64.95 -236.9 L61.7 -234.25 Q50.85 -227.5 36.45 -227.25 22.5 -227.3 19.35 -234.25 L18.2 -235.9 Q15.5 -242.4 16.1 -242.4 L14.6 -250.5 13.85 -258.65 13.85 -266.75 15.1 -273.15 16.1 -274.9 Q20.85 -282.85 33.1 -283.0 L43.6 -283.4 52.1 -283.0 Q64.95 -282.85 69.85 -274.9 64.95 -282.85 52.1 -283.0 L43.6 -283.4 33.1 -283.0 Q20.85 -282.85 16.1 -274.9 L15.1 -273.15 13.85 -266.75 13.85 -258.65 14.6 -250.5 16.1 -242.4 Q15.5 -242.4 18.2 -235.9 L19.35 -234.25 Q22.5 -227.3 36.45 -227.25 50.85 -227.5 61.7 -234.25 L64.95 -236.9 Q68.9 -242.65 68.1 -242.4 L69.6 -246.5 70.2 -250.5 70.6 -251.5 71.6 -266.75 70.45 -273.9 69.85 -274.9 M16.85 -284.5 Q28.65 -290.75 61.2 -286.5 76.45 -285.1 77.2 -268.9 79.9 -267.7 77.35 -263.75 76.0 -233.65 60.95 -228.5 L58.35 -227.15 50.95 -224.65 40.45 -222.9 Q28.25 -220.75 19.35 -226.15 18.4 -226.35 13.7 -231.75 L10.85 -237.9 8.85 -246.0 8.35 -250.5 7.85 -252.4 7.1 -261.5 7.2 -266.9 7.35 -269.75 7.95 -272.5 7.35 -269.75 7.2 -266.9 Q0.5 -272.2 -3.9 -266.75 L-4.15 -266.65 -5.05 -252.25 -5.9 -246.0 -7.55 -239.15 -10.4 -232.15 Q-15.5 -226.15 -16.3 -226.15 -24.15 -221.0 -37.55 -222.9 L-48.05 -224.65 -54.15 -226.65 -58.05 -228.5 Q-60.5 -229.1 -65.15 -233.4 L-69.15 -238.75 Q-72.05 -244.95 -72.4 -248.4 L-74.4 -263.65 -74.55 -263.75 Q-76.85 -267.95 -74.4 -268.9 -73.55 -285.2 -57.65 -286.75 -25.8 -290.65 -13.9 -284.5 L-9.4 -281.75 Q-4.55 -274.7 -5.65 -274.9 L-4.65 -270.9 1.2 -272.25 7.95 -272.5 8.6 -274.9 Q7.6 -274.85 12.1 -281.5 L14.35 -283.0 16.85 -284.5 M77.2 -268.9 L77.35 -263.75 77.2 -268.9 M-4.15 -266.65 L-4.55 -266.75 -5.05 -268.15 -4.65 -270.9 -5.05 -268.15 -4.55 -266.75 -4.15 -266.65 M-13.15 -274.9 L-12.15 -273.15 -10.9 -266.75 -10.9 -258.65 -11.65 -250.5 -13.4 -240.65 Q-16.15 -233.1 -16.4 -234.25 -20.75 -226.25 -34.8 -227.25 -48.1 -227.8 -58.65 -234.25 L-61.9 -236.9 Q-65.6 -242.15 -65.05 -242.4 L-66.4 -246.0 -68.3 -258.65 -68.55 -266.75 -68.4 -269.4 Q-67.25 -275.65 -66.8 -274.9 -63.35 -282.35 -49.15 -283.0 L-39.9 -283.4 -30.15 -283.0 Q-17.9 -282.85 -13.15 -274.9 -17.9 -282.85 -30.15 -283.0 L-39.9 -283.4 -49.15 -283.0 Q-63.35 -282.35 -66.8 -274.9 -67.25 -275.65 -68.4 -269.4 L-68.55 -266.75 -68.3 -258.65 -66.4 -246.0 -65.05 -242.4 Q-65.6 -242.15 -61.9 -236.9 L-58.65 -234.25 Q-48.1 -227.8 -34.8 -227.25 -20.75 -226.25 -16.4 -234.25 -16.15 -233.1 -13.4 -240.65 L-11.65 -250.5 -10.9 -258.65 -10.9 -266.75 -12.15 -273.15 -13.15 -274.9 M-74.55 -263.75 L-74.4 -263.75 -74.4 -268.9 -74.4 -263.75 -74.4 -263.65 -74.4 -263.75 -74.55 -263.75" fill="#43396f" fill-rule="evenodd" stroke="none"/>
    <path d="M60.95 -228.5 Q62.25 -221.2 57.35 -209.65 L53.6 -203.0 Q38.75 -186.0 36.7 -182.5 35.2 -180.75 30.7 -171.0 L27.2 -161.25 Q21.4 -146.4 27.85 -124.0 L30.45 -119.4 35.05 -115.55 35.6 -115.15 Q36.35 -114.6 36.6 -114.65 36.25 -114.15 43.7 -111.65 L61.45 -103.15 Q70.95 -98.15 84.95 -86.65 L103.35 -77.15 Q113.5 -70.8 122.45 -63.4 L126.7 -60.75 Q139.4 -51.6 151.85 -20.65 162.25 21.2 159.95 23.6 L158.7 24.75 Q157.6 25.15 154.95 22.35 L155.1 24.5 154.45 26.75 153.85 27.6 153.2 28.1 151.6 27.85 149.7 26.25 146.2 21.0 146.2 21.05 145.6 21.85 143.7 21.75 140.1 18.1 136.85 13.85 126.85 -3.15 126.6 -3.2 126.45 -3.25 128.45 2.75 Q129.65 10.3 129.1 11.6 L127.7 26.75 126.85 31.6 119.6 46.25 116.6 51.1 Q94.6 79.35 60.1 92.6 62.5 99.95 60.7 101.85 L57.7 102.0 50.85 100.75 46.2 100.25 40.2 101.1 34.95 102.1 32.2 102.1 31.45 101.1 Q2.95 109.35 -28.55 101.1 -26.6 103.15 -37.4 101.0 L-43.05 100.25 -48.05 100.75 -54.8 102.0 -57.8 101.85 -58.65 100.1 Q-56.85 93.5 -56.95 92.65 -57.0 92.45 -57.15 92.6 -91.05 80.05 -113.9 50.75 -122.25 36.55 -124.3 29.6 L-126.3 8.25 Q-126.3 3.35 -123.3 -4.0 L-123.4 -4.0 -133.8 13.25 Q-138.5 19.85 -140.9 21.5 L-143.05 21.85 Q-143.9 21.8 -144.3 18.0 L-148.05 24.1 Q-150.75 27.35 -152.65 27.6 L-153.3 27.6 -154.65 26.1 -155.15 24.0 -154.8 17.85 -158.4 21.85 Q-160.3 24.05 -162.15 23.5 L-163.15 22.5 -163.4 20.0 -162.4 12.5 -157.15 -8.75 Q-156.4 -12.4 -150.65 -26.5 -141.75 -45.45 -127.55 -57.65 -99.75 -79.7 -82.15 -86.5 L-82.05 -86.65 Q-64.1 -102.65 -37.9 -112.65 L-37.8 -112.75 -35.15 -113.75 -32.9 -115.15 -32.8 -115.15 -27.55 -119.4 -25.05 -123.5 Q-22.35 -131.6 -21.9 -137.9 L-21.55 -146.75 Q-25.05 -170.15 -33.55 -182.0 L-33.65 -182.15 -36.3 -186.0 Q-49.55 -200.15 -53.8 -208.25 -59.65 -221.9 -58.05 -228.5 L-54.15 -226.65 -48.05 -224.65 -37.55 -222.9 -34.9 -221.0 -26.55 -216.25 -22.55 -212.25 -13.65 -204.75 -9.4 -201.75 Q0.7 -191.0 12.35 -201.75 L16.45 -204.65 26.45 -213.15 29.7 -216.4 37.85 -221.0 40.45 -222.9 50.95 -224.65 58.35 -227.15 60.95 -228.5 M-13.9 -284.5 Q4.45 -289.05 16.85 -284.5 L14.35 -283.0 12.1 -281.5 Q7.6 -274.85 8.6 -274.9 L7.95 -272.5 1.2 -272.25 -4.65 -270.9 -5.65 -274.9 Q-4.55 -274.7 -9.4 -281.75 L-13.9 -284.5 M7.2 -266.9 L7.1 -261.5 7.85 -252.4 Q1.25 -256.95 -5.05 -252.25 L-4.15 -266.65 -3.9 -266.75 Q0.5 -272.2 7.2 -266.9 M31.45 101.1 L52.1 95.35 60.1 92.6 52.1 95.35 31.45 101.1 M154.95 22.35 L153.45 9.5 152.2 -8.4 153.45 9.5 154.95 22.35 M146.2 21.05 L146.35 17.6 144.7 1.35 144.7 -3.15 145.95 -9.75 144.7 -3.15 144.7 1.35 146.35 17.6 146.2 21.05 M102.35 -48.0 L102.1 -48.5 102.35 -48.0 M126.6 -3.2 L119.2 -23.0 111.45 -39.25 Q106.75 -46.8 103.35 -47.25 106.75 -46.8 111.45 -39.25 L119.2 -23.0 126.6 -3.2 M-56.95 92.65 L-43.15 97.25 -28.55 101.1 -43.15 97.25 -56.95 92.65 M-99.3 -48.15 L-99.15 -48.5 -99.3 -48.15 M-100.65 -46.9 L-100.55 -47.25 Q-102.0 -47.15 -106.15 -43.0 L-108.55 -39.25 -118.3 -18.4 -122.9 -5.0 -118.3 -18.4 -108.55 -39.25 -106.15 -43.0 Q-102.0 -47.15 -100.55 -47.25 L-100.65 -46.9 M-154.65 17.5 L-154.8 17.6 -154.8 17.85 -154.65 17.5 -152.3 1.35 -151.8 -6.75 -151.9 -7.75 -151.8 -6.75 -152.3 1.35 -154.65 17.5 -154.8 17.85 -154.8 17.6 -154.65 17.5 M-123.4 -4.0 L-123.05 -4.75 -123.3 -4.0 -123.05 -4.75 -123.4 -4.0 M-144.15 17.6 L-142.4 1.35 -142.4 -3.25 -142.9 -6.75 -143.8 -9.9 -142.9 -6.75 -142.4 -3.25 -142.4 1.35 -144.15 17.6 M-32.8 -115.15 L-32.9 -115.0 -32.9 -115.15 -32.9 -115.0 -32.8 -115.15 M-33.55 -182.0 L-33.55 -182.15 -33.65 -182.15 -33.55 -182.15 -33.55 -182.0" fill="#ffffff" fill-rule="evenodd" stroke="none"/>
    <path d="M50.85 100.75 L50.1 112.75 49.95 139.25 Q49.75 141.35 50.85 145.0 L52.85 149.25 Q53.5 150.45 56.95 152.25 L65.85 156.35 Q69.75 158.2 81.95 160.6 L95.7 165.85 101.7 168.85 Q105.75 171.1 105.6 171.85 L105.7 172.5 104.95 173.1 103.7 173.35 91.85 173.0 80.85 173.25 80.2 173.85 80.1 175.35 80.95 181.25 80.7 182.0 79.7 182.75 75.85 182.6 61.95 178.25 56.45 177.35 49.7 179.35 39.35 184.35 37.6 184.6 36.6 183.6 Q34.6 179.85 44.6 159.6 L44.6 159.0 44.6 158.75 42.1 152.0 40.95 146.75 41.2 113.35 40.2 101.1 46.2 100.25 50.85 100.75 M-37.4 101.0 L-38.8 118.1 -37.55 149.1 -38.3 154.35 -39.95 160.9 -40.05 161.25 -37.3 166.25 Q-32.65 171.1 -31.05 174.0 L-27.3 181.6 Q-25.85 185.15 -26.15 186.5 L-27.15 187.5 -29.65 187.1 -42.05 182.25 -48.3 180.85 -55.55 182.6 -63.15 185.75 -67.9 187.25 -69.65 187.25 -71.15 186.6 -71.9 184.35 -72.05 179.75 -72.4 178.6 Q-73.0 178.2 -73.65 177.75 L-79.65 177.5 -94.55 178.75 -98.05 178.5 -99.05 178.1 -99.3 177.1 Q-99.35 176.35 -96.65 174.6 L-90.15 170.85 -77.3 165.25 -62.15 161.0 -52.55 156.1 Q-50.3 155.0 -49.05 153.35 L-47.65 150.5 -46.8 146.25 -47.55 128.85 -48.05 100.75 -43.05 100.25 -37.4 101.0 M7.85 -252.4 L8.35 -250.5 8.85 -246.0 10.85 -237.9 13.7 -231.75 Q18.4 -226.35 19.35 -226.15 28.25 -220.75 40.45 -222.9 L37.85 -221.0 29.7 -216.4 17.1 -209.9 Q-1.55 -199.15 -14.15 -209.9 L-26.55 -216.25 -34.9 -221.0 -37.55 -222.9 Q-24.15 -221.0 -16.3 -226.15 -15.5 -226.15 -10.4 -232.15 L-7.55 -239.15 -5.9 -246.0 -5.05 -252.25 Q1.25 -256.95 7.85 -252.4 M44.6 159.0 L44.7 158.0 44.6 159.0 M-39.95 160.9 L-40.4 160.0 -39.95 160.9" fill="#fa410f" fill-rule="evenodd" stroke="none"/>
    <path d="M29.7 -216.4 L26.45 -213.15 16.45 -204.65 12.35 -201.75 Q0.7 -191.0 -9.4 -201.75 L-13.65 -204.75 -22.55 -212.25 -26.55 -216.25 -14.15 -209.9 Q-1.55 -199.15 17.1 -209.9 L29.7 -216.4" fill="#fa420e" fill-rule="evenodd" stroke="none"/>
    <path d="M69.85 -274.9 Q64.95 -282.85 52.1 -283.0 L43.6 -283.4 33.1 -283.0 Q20.85 -282.85 16.1 -274.9 L15.1 -273.15 13.85 -266.75 13.85 -258.65 14.6 -250.5 16.1 -242.4 Q15.5 -242.4 18.2 -235.9 L19.35 -234.25 Q22.5 -227.3 36.45 -227.25 50.85 -227.5 61.7 -234.25 L64.95 -236.9 Q68.9 -242.65 68.1 -242.4 L69.6 -246.5 70.2 -250.5 70.6 -251.5 71.6 -266.75 70.45 -273.9 69.85 -274.9 M16.85 -284.5 Q28.65 -290.75 61.2 -286.5 76.45 -285.1 77.2 -268.9 79.9 -267.7 77.35 -263.75 76.0 -233.65 60.95 -228.5 62.25 -221.2 57.35 -209.65 L53.6 -203.0 Q38.75 -186.0 36.7 -182.5 35.2 -180.75 30.7 -171.0 L27.2 -161.25 Q21.4 -146.4 27.85 -124.0 L30.45 -119.4 35.05 -115.55 35.6 -115.15 Q36.35 -114.6 36.6 -114.65 36.25 -114.15 43.7 -111.65 L61.45 -103.15 Q70.95 -98.15 84.95 -86.65 L103.35 -77.15 Q113.5 -70.8 122.45 -63.4 L126.7 -60.75 Q139.4 -51.6 151.85 -20.65 162.25 21.2 159.95 23.6 L158.7 24.75 Q157.6 25.15 154.95 22.35 L155.1 24.5 154.45 26.75 153.85 27.6 153.2 28.1 151.6 27.85 149.7 26.25 146.2 21.0 146.2 21.05 145.6 21.85 143.7 21.75 140.1 18.1 136.85 13.85 126.85 -3.15 126.6 -3.2 126.45 -3.25 128.45 2.75 Q129.65 10.3 129.1 11.6 L127.7 26.75 126.85 31.6 119.6 46.25 116.6 51.1 Q94.6 79.35 60.1 92.6 62.5 99.95 60.7 101.85 L57.7 102.0 50.85 100.75 50.1 112.75 49.95 139.25 Q49.75 141.35 50.85 145.0 L52.85 149.25 Q53.5 150.45 56.95 152.25 L65.85 156.35 Q69.75 158.2 81.95 160.6 L95.7 165.85 101.7 168.85 Q105.75 171.1 105.6 171.85 L105.7 172.5 104.95 173.1 103.7 173.35 91.85 173.0 80.85 173.25 80.2 173.85 80.1 175.35 80.95 181.25 80.7 182.0 79.7 182.75 75.85 182.6 61.95 178.25 56.45 177.35 49.7 179.35 39.35 184.35 37.6 184.6 36.6 183.6 Q34.6 179.85 44.6 159.6 L44.6 159.0 44.6 158.75 42.1 152.0 40.95 146.75 41.2 113.35 40.2 101.1 34.95 102.1 32.2 102.1 31.45 101.1 Q2.95 109.35 -28.55 101.1 -26.6 103.15 -37.4 101.0 L-38.8 118.1 -37.55 149.1 -38.3 154.35 -39.95 160.9 -40.05 161.25 -37.3 166.25 Q-32.65 171.1 -31.05 174.0 L-27.3 181.6 Q-25.85 185.15 -26.15 186.5 L-27.15 187.5 -29.65 187.1 -42.05 182.25 -48.3 180.85 -55.55 182.6 -63.15 185.75 -67.9 187.25 -69.65 187.25 -71.15 186.6 -71.9 184.35 -72.05 179.75 -72.4 178.6 Q-73.0 178.2 -73.65 177.75 L-79.65 177.5 -94.55 178.75 -98.05 178.5 -99.05 178.1 -99.3 177.1 Q-99.35 176.35 -96.65 174.6 L-90.15 170.85 -77.3 165.25 -62.15 161.0 -52.55 156.1 Q-50.3 155.0 -49.05 153.35 L-47.65 150.5 -46.8 146.25 -47.55 128.85 -48.05 100.75 -54.8 102.0 -57.8 101.85 -58.65 100.1 Q-56.85 93.5 -56.95 92.65 -57.0 92.45 -57.15 92.6 -91.05 80.05 -113.9 50.75 -122.25 36.55 -124.3 29.6 L-126.3 8.25 Q-126.3 3.35 -123.3 -4.0 L-123.4 -4.0 -133.8 13.25 Q-138.5 19.85 -140.9 21.5 L-143.05 21.85 Q-143.9 21.8 -144.3 18.0 L-148.05 24.1 Q-150.75 27.35 -152.65 27.6 L-153.3 27.6 -154.65 26.1 -155.15 24.0 -154.8 17.85 -158.4 21.85 Q-160.3 24.05 -162.15 23.5 L-163.15 22.5 -163.4 20.0 -162.4 12.5 -157.15 -8.75 Q-156.4 -12.4 -150.65 -26.5 -141.75 -45.45 -127.55 -57.65 -99.75 -79.7 -82.15 -86.5 L-82.05 -86.65 Q-64.1 -102.65 -37.9 -112.65 L-37.8 -112.75 -35.15 -113.75 -32.9 -115.15 -32.8 -115.15 -27.55 -119.4 -25.05 -123.5 Q-22.35 -131.6 -21.9 -137.9 L-21.55 -146.75 Q-25.05 -170.15 -33.55 -182.0 L-33.65 -182.15 -36.3 -186.0 Q-49.55 -200.15 -53.8 -208.25 -59.65 -221.9 -58.05 -228.5 -60.5 -229.1 -65.15 -233.4 L-69.15 -238.75 Q-72.05 -244.95 -72.4 -248.4 L-74.4 -263.65 -74.55 -263.75 Q-76.85 -267.95 -74.4 -268.9 -73.55 -285.2 -57.65 -286.75 -25.8 -290.65 -13.9 -284.5 4.45 -289.05 16.85 -284.5 L14.35 -283.0 12.1 -281.5 Q7.6 -274.85 8.6 -274.9 L7.95 -272.5 7.35 -269.75 7.2 -266.9 7.1 -261.5 7.85 -252.4 8.35 -250.5 8.85 -246.0 10.85 -237.9 13.7 -231.75 Q18.4 -226.35 19.35 -226.15 28.25 -220.75 40.45 -222.9 L50.95 -224.65 58.35 -227.15 60.95 -228.5 M77.35 -263.75 L77.2 -268.9 M-13.9 -284.5 L-9.4 -281.75 Q-4.55 -274.7 -5.65 -274.9 L-4.65 -270.9 1.2 -272.25 7.95 -272.5 M-26.55 -216.25 L-22.55 -212.25 -13.65 -204.75 -9.4 -201.75 Q0.7 -191.0 12.35 -201.75 L16.45 -204.65 26.45 -213.15 29.7 -216.4 17.1 -209.9 Q-1.55 -199.15 -14.15 -209.9 L-26.55 -216.25 -34.9 -221.0 -37.55 -222.9 -48.05 -224.65 -54.15 -226.65 -58.05 -228.5 M29.7 -216.4 L37.85 -221.0 40.45 -222.9 M103.35 -47.25 Q106.75 -46.8 111.45 -39.25 L119.2 -23.0 126.6 -3.2 M102.1 -48.5 L102.35 -48.0 M145.95 -9.75 L144.7 -3.15 144.7 1.35 146.35 17.6 146.2 21.05 M152.2 -8.4 L153.45 9.5 154.95 22.35 M60.1 92.6 L52.1 95.35 31.45 101.1 M50.85 100.75 L46.2 100.25 40.2 101.1 M44.7 158.0 L44.6 159.0 M-13.15 -274.9 Q-17.9 -282.85 -30.15 -283.0 L-39.9 -283.4 -49.15 -283.0 Q-63.35 -282.35 -66.8 -274.9 -67.25 -275.65 -68.4 -269.4 L-68.55 -266.75 -68.3 -258.65 -66.4 -246.0 -65.05 -242.4 Q-65.6 -242.15 -61.9 -236.9 L-58.65 -234.25 Q-48.1 -227.8 -34.8 -227.25 -20.75 -226.25 -16.4 -234.25 -16.15 -233.1 -13.4 -240.65 L-11.65 -250.5 -10.9 -258.65 -10.9 -266.75 -12.15 -273.15 -13.15 -274.9 M-4.65 -270.9 L-5.05 -268.15 -4.55 -266.75 -4.15 -266.65 -3.9 -266.75 Q0.5 -272.2 7.2 -266.9 M-4.15 -266.65 L-5.05 -252.25 Q1.25 -256.95 7.85 -252.4 M-74.4 -268.9 L-74.4 -263.75 -74.4 -263.65 M-74.4 -263.75 L-74.55 -263.75 M-5.05 -252.25 L-5.9 -246.0 -7.55 -239.15 -10.4 -232.15 Q-15.5 -226.15 -16.3 -226.15 -24.15 -221.0 -37.55 -222.9 M-33.65 -182.15 L-33.55 -182.15 -33.55 -182.0 M-32.9 -115.15 L-32.9 -115.0 -32.8 -115.15 M-143.8 -9.9 L-142.9 -6.75 -142.4 -3.25 -142.4 1.35 -144.15 17.6 M-123.3 -4.0 L-123.05 -4.75 -123.4 -4.0 M-151.9 -7.75 L-151.8 -6.75 -152.3 1.35 -154.65 17.5 -154.8 17.85 -154.8 17.6 -154.65 17.5 M-122.9 -5.0 L-118.3 -18.4 -108.55 -39.25 -106.15 -43.0 Q-102.0 -47.15 -100.55 -47.25 L-100.65 -46.9 M-99.15 -48.5 L-99.3 -48.15 M-28.55 101.1 L-43.15 97.25 -56.95 92.65 M-48.05 100.75 L-43.05 100.25 -37.4 101.0 M-40.4 160.0 L-39.95 160.9" fill="none" stroke="#000000" stroke-linecap="round" stroke-linejoin="round" stroke-width="2.15"/>
  </g>
</svg>
