<?xml version="1.0" encoding="UTF-8" standalone="no"?>
<svg xmlns:xlink="http://www.w3.org/1999/xlink" height="66.9px" width="9.55px" xmlns="http://www.w3.org/2000/svg">
  <g transform="matrix(1.0, 0.0, 0.0, 1.0, 0.5, 0.5)">
    <path d="M7.9 47.8 Q6.15 55.7 5.65 55.5 L6.85 59.0 Q7.85 62.15 6.75 64.5 5.95 61.0 5.55 60.35 L3.4 65.9 3.0 60.7 0.0 63.9 Q-0.15 61.15 1.85 58.55 L4.15 55.75 Q4.8 55.35 6.8 44.0 8.8 32.65 4.25 15.15 -0.55 -1.85 1.2 0.2 3.0 2.25 6.75 21.25 9.65 39.85 7.9 47.8" fill="#7c4806" fill-rule="evenodd" stroke="none"/>
    <path d="M7.9 47.8 Q9.65 39.85 6.75 21.25 3.0 2.25 1.2 0.2 -0.55 -1.85 4.25 15.15 8.8 32.65 6.8 44.0 4.8 55.35 4.15 55.75 L1.85 58.55 Q-0.15 61.15 0.0 63.9 L3.0 60.7 3.4 65.9 5.55 60.35 Q5.95 61.0 6.75 64.5 7.85 62.15 6.85 59.0 L5.65 55.5 Q6.15 55.7 7.9 47.8 Z" fill="none" stroke="#000000" stroke-linecap="round" stroke-linejoin="round" stroke-width="1.0"/>
  </g>
</svg>
