<?xml version="1.0" encoding="UTF-8" standalone="no"?>
<svg xmlns:xlink="http://www.w3.org/1999/xlink" height="99.6px" width="42.55px" xmlns="http://www.w3.org/2000/svg">
  <g transform="matrix(1.0, 0.0, 0.0, 1.0, 0.5, 0.5)">
    <path d="M31.35 11.95 L30.75 10.9 31.35 11.95 32.95 13.8 Q34.35 15.0 35.45 17.45 36.15 19.4 36.55 22.3 L36.6 22.7 41.05 47.65 41.55 92.25 Q35.4 92.4 31.05 95.85 L28.5 97.1 28.4 97.2 28.4 97.15 15.0 97.45 14.95 98.15 Q9.05 92.9 0.85 93.2 L0.0 77.15 6.25 22.8 14.35 10.6 14.35 0.0 30.0 0.0 31.1 11.25 31.35 11.95" fill="#73420d" fill-rule="evenodd" stroke="none"/>
    <path d="M30.75 10.9 L31.35 11.95 31.1 11.25 30.0 0.0 14.35 0.0 14.35 10.6 6.25 22.8 0.0 77.15 0.85 93.2 M14.95 98.15 L15.0 97.45 28.4 97.15 28.4 97.2 M41.55 92.25 L41.05 47.65 36.6 22.7 36.55 22.3 Q36.15 19.4 35.45 17.45 34.35 15.0 32.95 13.8 L31.35 11.95" fill="none" stroke="#000000" stroke-linecap="round" stroke-linejoin="round" stroke-width="1.0"/>
    <path d="M10.4 95.45 L34.85 95.5 Q19.7 101.7 10.4 95.45" fill="#73420d" fill-rule="evenodd" stroke="none"/>
    <path d="M10.4 95.45 Q19.7 101.7 34.85 95.5" fill="none" stroke="#000000" stroke-linecap="round" stroke-linejoin="round" stroke-width="1.0"/>
  </g>
</svg>
