<?xml version="1.0" encoding="UTF-8" standalone="no"?>
<svg xmlns:xlink="http://www.w3.org/1999/xlink" height="63.35px" width="74.3px" xmlns="http://www.w3.org/2000/svg">
  <g transform="matrix(1.0, 0.0, 0.0, 1.0, 37.8, 71.45)">
    <path d="M-14.2 -27.45 Q-14.2 -27.15 -17.15 -25.15 -20.15 -23.15 -26.0 -23.6 -24.55 -28.4 -19.25 -30.0 -13.95 -31.6 -13.25 -31.45 L-14.2 -27.45" fill="#73420d" fill-rule="evenodd" stroke="none"/>
    <path d="M-13.25 -31.45 Q-13.95 -31.6 -19.25 -30.0 -24.55 -28.4 -26.0 -23.6 -20.15 -23.15 -17.15 -25.15 -14.2 -27.15 -14.2 -27.45" fill="none" stroke="#000000" stroke-linecap="round" stroke-linejoin="round" stroke-width="1.0"/>
    <path d="M5.35 -31.45 Q6.05 -31.6 11.35 -30.0 16.65 -28.4 18.1 -23.6 12.25 -23.15 9.25 -25.15 6.3 -27.15 6.3 -27.45 L5.35 -31.45" fill="#73420d" fill-rule="evenodd" stroke="none"/>
    <path d="M5.35 -31.45 Q6.05 -31.6 11.35 -30.0 16.65 -28.4 18.1 -23.6 12.25 -23.15 9.25 -25.15 6.3 -27.15 6.3 -27.45" fill="none" stroke="#000000" stroke-linecap="round" stroke-linejoin="round" stroke-width="1.0"/>
    <path d="M11.35 -55.0 Q12.45 -54.55 13.4 -53.75 L14.2 -53.7 Q17.15 -53.45 19.45 -52.05 L21.5 -52.2 Q23.85 -52.0 25.35 -50.2 26.3 -49.05 26.6 -47.6 L27.6 -46.75 28.45 -46.8 Q30.05 -46.65 31.1 -45.4 32.15 -44.15 32.05 -42.5 31.95 -41.65 31.55 -40.95 L31.65 -40.65 Q32.35 -40.35 32.9 -39.65 33.85 -38.55 33.7 -37.1 33.6 -35.7 32.5 -34.75 L32.35 -34.65 33.45 -33.65 Q34.55 -32.35 34.5 -30.65 35.4 -28.9 35.4 -26.8 L35.55 -26.6 Q36.6 -25.35 36.5 -23.75 36.35 -22.2 35.1 -21.1 33.8 -20.05 32.2 -20.2 L32.15 -20.2 Q31.5 -19.7 30.85 -19.35 30.65 -17.65 29.3 -16.55 28.5 -15.9 27.65 -15.65 L27.65 -15.6 Q25.0 -13.4 21.6 -13.7 L21.5 -13.7 Q21.15 -12.5 20.1 -11.65 18.7 -10.45 16.95 -10.6 15.2 -10.8 14.0 -12.2 13.1 -13.3 13.0 -14.65 L12.4 -14.85 Q10.05 -13.0 7.15 -13.25 4.1 -13.5 2.1 -15.9 L1.8 -16.25 1.35 -15.8 Q-0.85 -13.95 -3.75 -14.2 L-5.75 -14.65 Q-7.2 -13.65 -9.05 -13.8 -10.3 -13.9 -11.25 -14.55 L-11.8 -13.9 Q-11.7 -13.35 -11.75 -12.7 -11.9 -11.1 -13.15 -10.1 -14.35 -9.05 -16.0 -9.15 -17.1 -9.3 -17.95 -9.95 -20.55 -9.15 -23.4 -9.4 L-24.0 -9.45 Q-26.1 -7.9 -28.75 -8.1 -31.65 -8.4 -33.5 -10.6 -35.35 -12.8 -35.1 -15.65 L-34.8 -17.2 Q-36.45 -20.55 -36.05 -24.5 L-36.0 -25.05 -36.35 -25.45 Q-38.0 -27.4 -37.75 -29.9 -37.55 -32.4 -35.6 -34.05 L-34.0 -35.0 Q-34.95 -37.15 -34.7 -39.65 -34.35 -43.6 -31.3 -46.2 -29.3 -47.85 -26.9 -48.3 -27.3 -49.7 -27.15 -51.25 -26.85 -54.9 -24.05 -57.2 -21.3 -59.5 -17.7 -59.15 -16.1 -59.05 -14.75 -58.4 L-12.3 -58.65 -11.05 -58.9 Q-10.8 -59.65 -10.15 -60.2 -9.2 -61.05 -7.9 -60.9 -6.65 -60.8 -5.85 -59.85 L-5.3 -58.9 -3.25 -59.2 -2.2 -59.0 Q0.45 -61.1 3.9 -60.75 7.5 -60.45 9.8 -57.7 10.85 -56.45 11.35 -55.0" fill="#000000" fill-rule="evenodd" stroke="none"/>
    <path d="M-27.95 -64.85 L-23.05 -64.55 Q-18.25 -64.2 -17.25 -62.5 -17.6 -60.75 -22.45 -59.75 L-27.7 -58.75 -23.7 -58.45 Q-19.9 -58.05 -19.35 -56.2 -19.95 -54.3 -24.25 -53.7 L-29.2 -53.15 -29.3 -52.65 -28.7 -44.95 Q-28.0 -40.2 -24.1 -37.8 -20.25 -35.45 -16.55 -34.65 L-12.55 -33.95 -12.1 -33.25 Q-11.85 -32.6 -13.25 -31.45 -26.35 -32.6 -29.95 -37.7 -33.6 -42.8 -33.15 -43.5 L-34.0 -48.8 Q-34.7 -53.8 -34.15 -59.8 -33.65 -65.8 -30.15 -69.15 -27.3 -70.5 -22.6 -70.25 -17.9 -70.05 -17.25 -68.6 -17.65 -66.35 -22.7 -65.6 L-27.95 -64.85 -28.5 -64.85 -27.95 -64.85 M-28.0 -58.75 L-27.7 -58.75 -28.0 -58.75" fill="#e6b98a" fill-rule="evenodd" stroke="none"/>
    <path d="M-27.7 -58.75 L-22.45 -59.75 Q-17.6 -60.75 -17.25 -62.5 -18.25 -64.2 -23.05 -64.55 L-27.95 -64.85 -28.5 -64.85 M-27.95 -64.85 L-22.7 -65.6 Q-17.65 -66.35 -17.25 -68.6 -17.9 -70.05 -22.6 -70.25 -27.3 -70.5 -30.15 -69.15 -33.65 -65.8 -34.15 -59.8 -34.7 -53.8 -34.0 -48.8 L-33.15 -43.5 Q-33.6 -42.8 -29.95 -37.7 -26.35 -32.6 -13.25 -31.45 -11.85 -32.6 -12.1 -33.25 L-12.55 -33.95 -16.55 -34.65 Q-20.25 -35.45 -24.1 -37.8 -28.0 -40.2 -28.7 -44.95 L-29.3 -52.65 -29.2 -53.15 -24.25 -53.7 Q-19.95 -54.3 -19.35 -56.2 -19.9 -58.05 -23.7 -58.45 L-27.7 -58.75 -28.0 -58.75" fill="none" stroke="#000000" stroke-linecap="round" stroke-linejoin="round" stroke-width="1.0"/>
    <path d="M31.75 -50.25 Q31.0 -43.4 30.65 -42.2 30.6 -40.6 25.95 -36.4 21.3 -32.25 8.1 -32.05 6.75 -33.3 7.1 -33.9 L7.55 -34.55 11.85 -34.8 Q15.85 -35.15 20.1 -37.05 24.3 -39.0 25.35 -43.65 L26.5 -51.35 26.5 -51.85 21.25 -52.6 Q16.65 -53.4 16.1 -55.3 16.7 -57.2 20.3 -57.85 L24.3 -58.45 18.95 -59.45 Q14.2 -60.4 13.9 -62.15 15.0 -63.85 19.8 -64.2 L23.4 -64.45 20.35 -64.55 Q16.1 -64.75 15.95 -66.85 16.25 -68.45 19.15 -70.0 22.1 -71.55 27.35 -70.6 31.2 -70.25 31.85 -63.7 32.5 -57.1 31.75 -50.25 M25.25 -64.5 L23.4 -64.45 25.25 -64.5" fill="#e6b98a" fill-rule="evenodd" stroke="none"/>
    <path d="M31.75 -50.25 Q31.0 -43.4 30.65 -42.2 30.6 -40.6 25.95 -36.4 21.3 -32.25 8.1 -32.05 6.75 -33.3 7.1 -33.9 L7.55 -34.55 11.85 -34.8 Q15.85 -35.15 20.1 -37.05 24.3 -39.0 25.35 -43.65 L26.5 -51.35 26.5 -51.85 21.25 -52.6 Q16.65 -53.4 16.1 -55.3 16.7 -57.2 20.3 -57.85 L24.3 -58.45 18.95 -59.45 Q14.2 -60.4 13.9 -62.15 15.0 -63.85 19.8 -64.2 L23.4 -64.45 20.35 -64.55 Q16.1 -64.75 15.95 -66.85 16.25 -68.45 19.15 -70.0 22.1 -71.55 27.35 -70.6 31.2 -70.25 31.85 -63.7 32.5 -57.1 31.75 -50.25 M23.4 -64.45 L25.25 -64.5" fill="none" stroke="#000000" stroke-linecap="round" stroke-linejoin="round" stroke-width="1.0"/>
  </g>
</svg>
