<?xml version="1.0" encoding="UTF-8" standalone="no"?>
<svg xmlns:xlink="http://www.w3.org/1999/xlink" height="35.8px" width="35.7px" xmlns="http://www.w3.org/2000/svg">
  <g transform="matrix(1.0, 0.0, 0.0, 1.0, 0.5, 0.5)">
    <path d="M34.7 18.55 Q34.05 25.9 28.75 30.45 23.6 35.0 16.15 34.8 8.85 34.1 4.25 28.8 -0.3 23.65 0.0 16.25 0.65 8.9 5.9 4.3 11.1 -0.25 18.45 0.1 25.85 0.7 30.4 5.95 34.95 11.15 34.7 18.55" fill="#f4c0d7" fill-rule="evenodd" stroke="none"/>
    <path d="M34.7 18.55 Q34.05 25.9 28.75 30.45 23.6 35.0 16.15 34.8 8.85 34.1 4.25 28.8 -0.3 23.65 0.0 16.25 0.65 8.9 5.9 4.3 11.1 -0.25 18.45 0.1 25.85 0.7 30.4 5.95 34.95 11.15 34.7 18.55 Z" fill="none" stroke="#000000" stroke-linecap="round" stroke-linejoin="round" stroke-width="1.0"/>
    <path d="M11.25 6.95 L12.5 10.6 Q12.0 11.65 8.65 15.9 5.25 20.1 5.0 15.65 5.6 10.3 8.3 8.55 10.9 6.85 11.25 6.95" fill="#f4c0d7" fill-rule="evenodd" stroke="none"/>
    <path d="M11.25 6.95 Q10.9 6.85 8.3 8.55 5.6 10.3 5.0 15.65 5.25 20.1 8.65 15.9 12.0 11.65 12.5 10.6" fill="none" stroke="#000000" stroke-linecap="round" stroke-linejoin="round" stroke-width="1.0"/>
    <path d="M9.1 21.7 L10.35 25.35 6.5 30.65 Q3.1 34.85 2.85 30.4 3.45 25.05 6.15 23.3 8.75 21.6 9.1 21.7" fill="#f4c0d7" fill-rule="evenodd" stroke="none"/>
    <path d="M9.1 21.7 Q8.75 21.6 6.15 23.3 3.45 25.05 2.85 30.4 3.1 34.85 6.5 30.65 L10.35 25.35" fill="none" stroke="#000000" stroke-linecap="round" stroke-linejoin="round" stroke-width="1.0"/>
    <path d="M23.4 11.05 L25.1 7.6 Q25.5 7.5 27.9 9.55 30.25 11.65 30.2 17.0 29.35 21.4 26.55 16.75 23.75 12.1 23.4 11.05" fill="#f4c0d7" fill-rule="evenodd" stroke="none"/>
    <path d="M25.1 7.6 Q25.5 7.5 27.9 9.55 30.25 11.65 30.2 17.0 29.35 21.4 26.55 16.75 23.75 12.1 23.4 11.05" fill="none" stroke="#000000" stroke-linecap="round" stroke-linejoin="round" stroke-width="1.0"/>
    <path d="M22.95 24.75 L24.65 21.3 Q25.05 21.2 27.45 23.25 29.8 25.35 29.75 30.7 28.9 35.1 26.1 30.45 23.3 25.8 22.95 24.75" fill="#f4c0d7" fill-rule="evenodd" stroke="none"/>
    <path d="M24.65 21.3 Q25.05 21.2 27.45 23.25 29.8 25.35 29.75 30.7 28.9 35.1 26.1 30.45 23.3 25.8 22.95 24.75" fill="none" stroke="#000000" stroke-linecap="round" stroke-linejoin="round" stroke-width="1.0"/>
  </g>
</svg>
