<?xml version="1.0" encoding="UTF-8" standalone="no"?>
<svg xmlns:xlink="http://www.w3.org/1999/xlink" height="62.05px" width="47.25px" xmlns="http://www.w3.org/2000/svg">
  <g transform="matrix(1.0, 0.0, 0.0, 1.0, 21.6, 50.85)">
    <path d="M11.95 -3.0 Q13.2 -4.55 18.25 -4.9 6.75 11.25 1.4 10.7 -3.95 10.15 -7.5 6.25 L-17.55 -4.15 Q-14.9 -5.25 -9.7 -5.35 -12.05 -3.4 -13.15 -4.45 L-5.15 4.15 Q-2.15 7.15 2.15 7.4 6.25 7.6 11.95 -3.0" fill="#73420d" fill-rule="evenodd" stroke="none"/>
    <path d="M11.95 -3.0 Q6.25 7.6 2.15 7.4 -2.15 7.15 -5.15 4.15 L-13.15 -4.45 Q-12.05 -3.4 -9.7 -5.35 L-6.3 -6.55 Q-2.05 -8.4 3.1 -9.1 8.25 -9.85 12.75 -5.0 L11.95 -3.0" fill="#fb0f0c" fill-rule="evenodd" stroke="none"/>
    <path d="M-9.7 -5.35 Q-14.9 -5.25 -17.55 -4.15 L-7.5 6.25 Q-3.95 10.15 1.4 10.7 6.75 11.25 18.25 -4.9 13.2 -4.55 11.95 -3.0 6.25 7.6 2.15 7.4 -2.15 7.15 -5.15 4.15 L-13.15 -4.45 Q-12.05 -3.4 -9.7 -5.35 L-6.3 -6.55 Q-2.05 -8.4 3.1 -9.1 8.25 -9.85 12.75 -5.0 L11.95 -3.0" fill="none" stroke="#000000" stroke-linecap="round" stroke-linejoin="round" stroke-width="1.0"/>
    <path d="M11.4 -48.55 Q12.35 -47.25 12.8 -41.35 L13.45 -29.75 13.6 -23.7 18.15 -21.5 Q22.2 -19.45 23.9 -17.55 26.1 -8.1 24.35 -6.65 22.55 -5.25 18.25 -4.9 12.15 -4.65 5.05 -6.3 -2.05 -7.95 -7.45 -6.05 -12.9 -4.15 -17.2 -4.1 -21.55 -4.1 -21.05 -9.4 -20.6 -14.7 -19.4 -17.2 -18.05 -19.1 -14.55 -21.2 L-10.65 -23.45 -10.9 -26.45 -11.15 -32.95 Q-11.2 -38.25 -10.6 -43.0 -10.05 -47.75 -9.2 -49.0 -8.0 -50.15 -3.45 -50.3 L5.65 -49.95 Q10.2 -49.4 11.4 -48.55" fill="#73420d" fill-rule="evenodd" stroke="none"/>
    <path d="M11.4 -48.55 Q10.2 -49.4 5.65 -49.95 L-3.45 -50.3 Q-8.0 -50.15 -9.2 -49.0 -10.05 -47.75 -10.6 -43.0 -11.2 -38.25 -11.15 -32.95 L-10.9 -26.45 -10.65 -23.45 -14.55 -21.2 Q-18.05 -19.1 -19.4 -17.2 -20.6 -14.7 -21.05 -9.4 -21.55 -4.1 -17.2 -4.1 -12.9 -4.15 -7.45 -6.05 -2.05 -7.95 5.05 -6.3 12.15 -4.65 18.25 -4.9 22.55 -5.25 24.35 -6.65 26.1 -8.1 23.9 -17.55 22.2 -19.45 18.15 -21.5 L13.6 -23.7 13.45 -29.75 12.8 -41.35 Q12.35 -47.25 11.4 -48.55 Z" fill="none" stroke="#000000" stroke-linecap="round" stroke-linejoin="round" stroke-width="1.0"/>
  </g>
</svg>
