<?xml version="1.0" encoding="UTF-8" standalone="no"?>
<svg xmlns:xlink="http://www.w3.org/1999/xlink" height="27.05px" width="30.4px" xmlns="http://www.w3.org/2000/svg">
  <g transform="matrix(1.0, 0.0, 0.0, 1.0, 18.05, 40.0)">
    <path d="M5.4 -33.0 Q4.6 -33.8 4.6 -34.9 4.6 -35.95 5.4 -36.75 6.2 -37.55 7.25 -37.55 8.35 -37.55 9.15 -36.75 9.95 -35.95 9.95 -34.9 9.95 -33.8 9.15 -33.0 8.35 -32.2 7.25 -32.2 6.2 -32.2 5.4 -33.0 M3.6 -35.7 L3.95 -34.9 3.6 -34.1 Q3.25 -33.75 2.8 -33.75 2.35 -33.75 2.0 -34.1 1.65 -34.45 1.65 -34.9 1.65 -35.35 2.0 -35.7 L2.8 -36.05 3.6 -35.7 M0.5 -34.3 Q0.05 -33.8 -0.6 -33.8 -1.2 -33.8 -1.7 -34.3 -2.15 -34.75 -2.15 -35.4 L-1.7 -36.55 Q-1.2 -37.0 -0.6 -37.0 0.05 -37.0 0.5 -36.55 1.0 -36.05 1.0 -35.4 1.0 -34.75 0.5 -34.3 M7.45 -28.2 Q8.15 -28.9 9.15 -28.9 10.2 -28.9 10.9 -28.2 11.6 -27.5 11.6 -26.5 11.6 -25.45 10.9 -24.75 10.2 -24.05 9.15 -24.05 8.15 -24.05 7.45 -24.75 6.75 -25.45 6.75 -26.5 6.75 -27.5 7.45 -28.2 M11.2 -17.55 Q11.2 -16.95 10.7 -16.45 10.25 -15.95 9.6 -15.95 9.0 -15.95 8.5 -16.45 8.0 -16.95 8.0 -17.6 8.0 -18.2 8.5 -18.7 9.0 -19.15 9.6 -19.15 L10.7 -18.7 Q11.2 -18.2 11.2 -17.55 M11.65 -19.85 Q11.0 -19.15 10.1 -19.15 9.25 -19.15 8.55 -19.85 7.9 -20.5 7.9 -21.4 7.9 -22.3 8.55 -22.95 9.25 -23.6 10.1 -23.6 11.0 -23.6 11.65 -22.95 12.35 -22.3 12.35 -21.4 12.35 -20.5 11.65 -19.85 M-5.7 -37.95 Q-4.8 -37.95 -4.15 -37.3 -3.45 -36.6 -3.45 -35.7 -3.45 -34.85 -4.15 -34.2 -4.8 -33.5 -5.7 -33.5 L-6.5 -33.65 -7.45 -32.4 Q-8.75 -31.05 -10.6 -31.05 -11.65 -31.05 -12.55 -31.5 L-12.35 -30.6 Q-12.35 -29.75 -13.05 -29.1 -13.7 -28.4 -14.6 -28.4 -15.5 -28.4 -16.15 -29.1 -16.8 -29.75 -16.8 -30.65 -16.8 -31.5 -16.15 -32.2 -15.5 -32.85 -14.6 -32.85 L-14.1 -32.8 Q-15.05 -33.95 -15.05 -35.55 -15.05 -37.4 -13.75 -38.7 -12.4 -40.0 -10.6 -40.0 -8.75 -40.0 -7.45 -38.7 L-6.65 -37.7 -5.7 -37.95 M-16.55 -26.9 Q-15.8 -27.6 -14.7 -27.6 -13.6 -27.6 -12.9 -26.9 -12.15 -26.15 -12.15 -25.05 -12.15 -23.95 -12.9 -23.25 -13.35 -22.75 -13.95 -22.6 L-13.6 -22.3 Q-12.9 -21.6 -12.9 -20.6 -12.9 -19.55 -13.6 -18.85 -13.9 -18.55 -14.3 -18.35 L-14.0 -18.1 Q-13.5 -17.6 -13.5 -16.9 L-13.5 -16.6 -13.25 -15.5 Q-13.25 -14.85 -13.5 -14.35 -13.5 -13.75 -13.9 -13.35 -14.3 -12.95 -14.9 -12.95 L-15.45 -13.05 -15.65 -13.05 Q-16.65 -13.05 -17.35 -13.75 -18.05 -14.45 -18.05 -15.5 -18.05 -16.5 -17.35 -17.2 L-16.8 -17.6 -16.45 -18.1 -16.2 -18.3 -17.05 -18.85 Q-17.75 -19.55 -17.75 -20.6 -17.75 -21.6 -17.05 -22.3 -16.65 -22.7 -16.1 -22.9 L-16.55 -23.25 Q-17.25 -23.95 -17.25 -25.05 -17.25 -26.15 -16.55 -26.9" fill="#000000" fill-rule="evenodd" stroke="none"/>
  </g>
</svg>
