<?xml version="1.0" encoding="UTF-8" standalone="no"?>
<svg xmlns:xlink="http://www.w3.org/1999/xlink" height="39.25px" width="17.85px" xmlns="http://www.w3.org/2000/svg">
  <g transform="matrix(1.0, 0.0, 0.0, 1.0, 7.85, 13.75)">
    <path d="M-7.35 -10.3 L-3.6 -13.25 -3.6 -13.1 Q-3.15 -9.8 -2.4 -7.5 -0.85 -3.75 1.0 -1.45 2.85 0.9 4.15 4.9 7.4 17.95 7.1 18.8 L8.45 20.65 Q9.15 21.7 9.5 22.95 7.35 23.55 5.65 24.65 L5.15 25.0 5.0 24.65 3.15 19.0 -1.7 4.7 Q-4.6 -3.5 -7.35 -10.3" fill="#73420d" fill-rule="evenodd" stroke="none"/>
    <path d="M-3.6 -13.25 L-3.6 -13.1 Q-3.15 -9.8 -2.4 -7.5 -0.85 -3.75 1.0 -1.45 2.85 0.9 4.15 4.9 7.4 17.95 7.1 18.8 L8.45 20.65 Q9.15 21.7 9.5 22.95 M5.15 25.0 L5.0 24.65 3.15 19.0 -1.7 4.7 Q-4.6 -3.5 -7.35 -10.3" fill="none" stroke="#000000" stroke-linecap="round" stroke-linejoin="round" stroke-width="1.0"/>
  </g>
</svg>
