<?xml version="1.0" encoding="UTF-8" standalone="no"?>
<svg xmlns:xlink="http://www.w3.org/1999/xlink" height="35.0px" width="10.15px" xmlns="http://www.w3.org/2000/svg">
  <g transform="matrix(1.0, 0.0, 0.0, 1.0, 5.05, 17.5)">
    <path d="M-4.55 -14.95 L-4.05 -15.3 Q-2.35 -16.4 -0.2 -17.0 L0.05 -15.35 0.05 -15.3 Q-0.3 -11.15 -0.7 -11.15 L-0.3 -5.8 0.45 4.45 1.15 11.05 Q1.7 12.6 3.05 14.25 L4.6 16.05 -2.25 17.0 -4.45 -14.55 -4.55 -14.95" fill="#73420d" fill-rule="evenodd" stroke="none"/>
    <path d="M-4.55 -14.95 L-4.45 -14.55 -2.25 17.0 4.6 16.05 3.05 14.25 Q1.7 12.6 1.15 11.05 L0.45 4.45 -0.3 -5.8 -0.7 -11.15 Q-0.3 -11.15 0.05 -15.3 L0.05 -15.35 -0.2 -17.0" fill="none" stroke="#000000" stroke-linecap="round" stroke-linejoin="round" stroke-width="1.0"/>
  </g>
</svg>
