<?xml version="1.0" encoding="UTF-8" standalone="no"?>
<svg xmlns:xlink="http://www.w3.org/1999/xlink" height="48.2px" width="31.4px" xmlns="http://www.w3.org/2000/svg">
  <g transform="matrix(1.0, 0.0, 0.0, 1.0, 0.5, 0.5)">
    <path d="M29.9 0.15 L26.05 9.85 18.95 27.95 17.25 32.4 Q13.45 42.45 12.45 46.4 6.05 46.0 0.0 47.2 0.55 43.7 2.9 36.6 5.45 28.65 8.05 21.7 L10.0 16.4 10.65 14.6 10.8 14.3 10.25 14.3 Q13.75 10.35 18.2 7.05 L29.75 0.15 29.95 0.05 29.9 0.15" fill="#ffffff" fill-rule="evenodd" stroke="none"/>
    <path d="M29.9 0.15 L30.4 0.0 Q29.6 3.1 26.95 9.45 L20.1 25.45 18.95 27.95 26.05 9.85 29.9 0.15 M10.15 13.95 Q13.05 10.0 17.15 7.5 L20.6 5.2 26.35 1.7 26.8 1.75 27.4 1.5 Q28.1 1.2 28.2 0.7 L28.8 0.6 29.15 0.3 29.75 0.15 18.2 7.05 Q13.75 10.35 10.25 14.3 L10.8 14.3 10.65 14.6 10.0 16.4 10.15 14.85 10.15 13.95" fill="#9c5715" fill-rule="evenodd" stroke="none"/>
    <path d="M29.9 0.15 L26.05 9.85 18.95 27.95 20.1 25.45 26.95 9.45 Q29.6 3.1 30.4 0.0 M10.15 13.95 L10.15 14.85 10.0 16.4 10.65 14.6 10.8 14.3 10.25 14.3 M29.95 0.05 L29.9 0.15 M10.0 16.4 L8.05 21.7 Q5.45 28.65 2.9 36.6 0.55 43.7 0.0 47.2 M12.45 46.4 Q13.45 42.45 17.25 32.4 L18.95 27.95" fill="none" stroke="#000000" stroke-linecap="round" stroke-linejoin="round" stroke-width="1.0"/>
  </g>
</svg>
