<?xml version="1.0" encoding="UTF-8" standalone="no"?>
<svg xmlns:xlink="http://www.w3.org/1999/xlink" height="38.5px" width="13.5px" xmlns="http://www.w3.org/2000/svg">
  <g transform="matrix(1.0, 0.0, 0.0, 1.0, 6.75, 19.25)">
    <path d="M3.4 -18.75 L6.25 -13.15 Q4.65 -2.0 1.4 9.2 L-1.4 18.75 -2.05 18.75 -2.25 18.6 Q-4.4 17.85 -6.25 18.2 L-5.4 16.5 -4.1 14.65 -3.55 10.1 Q-3.0 5.9 -1.8 1.25 -0.95 -1.45 0.15 -3.25 1.3 -5.05 2.15 -8.15 2.75 -11.1 2.65 -13.65 2.5 -16.15 3.4 -18.75" fill="#73420d" fill-rule="evenodd" stroke="none"/>
    <path d="M3.4 -18.75 Q2.5 -16.15 2.65 -13.65 2.75 -11.1 2.15 -8.15 1.3 -5.05 0.15 -3.25 -0.95 -1.45 -1.8 1.25 -3.0 5.9 -3.55 10.1 L-4.1 14.65 -5.4 16.5 -6.25 18.2 M-1.4 18.75 L1.4 9.2 Q4.65 -2.0 6.25 -13.15" fill="none" stroke="#000000" stroke-linecap="round" stroke-linejoin="round" stroke-width="1.0"/>
  </g>
</svg>
