<?xml version="1.0" encoding="UTF-8" standalone="no"?>
<svg xmlns:xlink="http://www.w3.org/1999/xlink" height="71.05px" width="27.45px" xmlns="http://www.w3.org/2000/svg">
  <g transform="matrix(1.0, 0.0, 0.0, 1.0, 0.5, 0.4)">
    <path d="M18.0 59.85 L13.65 63.05 Q9.45 66.15 5.1 68.25 0.7 70.35 0.0 67.65 1.35 58.75 8.0 57.0 14.6 55.2 15.55 55.65 L13.5 42.95 Q11.6 31.1 9.8 18.3 7.95 5.45 8.05 1.65 L8.15 0.9 20.6 0.1 20.35 1.25 Q20.15 4.95 21.65 19.55 23.1 34.2 24.7 47.95 L26.45 62.65 Q26.5 63.3 23.15 67.0 19.85 70.7 12.5 70.05 10.55 68.25 14.05 64.2 L18.0 59.85 18.25 59.6 18.0 59.85" fill="#ffffff" fill-rule="evenodd" stroke="none"/>
    <path d="M8.15 0.9 L8.05 1.65 Q7.95 5.45 9.8 18.3 11.6 31.1 13.5 42.95 L15.55 55.65 Q14.6 55.2 8.0 57.0 1.35 58.75 0.0 67.65 0.7 70.35 5.1 68.25 9.45 66.15 13.65 63.05 L18.0 59.85 18.25 59.6 M18.0 59.85 L14.05 64.2 Q10.55 68.25 12.5 70.05 19.85 70.7 23.15 67.0 26.5 63.3 26.45 62.65 L24.7 47.95 Q23.1 34.2 21.65 19.55 20.15 4.95 20.35 1.25 L20.6 0.1" fill="none" stroke="#000000" stroke-linecap="round" stroke-linejoin="round" stroke-width="1.0"/>
  </g>
</svg>
