<?xml version="1.0" encoding="UTF-8" standalone="no"?>
<svg xmlns:xlink="http://www.w3.org/1999/xlink" height="41.75px" width="23.7px" xmlns="http://www.w3.org/2000/svg">
  <g transform="matrix(1.0, 0.0, 0.0, 1.0, 0.5, 0.5)">
    <path d="M14.25 40.75 Q13.95 37.3 9.75 26.15 L1.25 3.3 0.0 0.0 0.45 0.0 3.25 2.0 Q9.15 4.1 14.05 7.95 L15.2 9.25 14.55 9.25 16.35 15.25 19.95 27.3 22.55 36.7 22.7 38.05 Q19.8 38.6 17.0 39.45 L16.95 39.7 14.25 40.75" fill="#ffffff" fill-rule="evenodd" stroke="none"/>
    <path d="M0.0 0.0 L1.25 3.3 9.75 26.15 Q13.95 37.3 14.25 40.75 M22.7 38.05 L22.55 36.7 19.95 27.3 16.35 15.25 14.55 9.25 15.2 9.25" fill="none" stroke="#000000" stroke-linecap="round" stroke-linejoin="round" stroke-width="1.0"/>
  </g>
</svg>
