<?xml version="1.0" encoding="UTF-8" standalone="no"?>
<svg xmlns:xlink="http://www.w3.org/1999/xlink" height="63.35px" width="39.6px" xmlns="http://www.w3.org/2000/svg">
  <g transform="matrix(1.0, 0.0, 0.0, 1.0, 19.8, 31.65)">
    <path d="M-17.9 -31.15 L-12.15 -25.65 Q-6.7 -20.35 0.2 -12.75 7.1 -5.1 11.7 2.1 16.25 9.35 14.8 13.5 13.8 16.05 14.7 19.35 15.6 22.65 17.95 24.4 20.05 26.05 18.85 27.1 L17.3 28.2 0.4 30.65 -1.25 29.85 -8.5 31.2 -7.9 29.3 -18.75 28.75 -12.35 27.5 0.5 25.0 10.4 23.2 Q-8.5 12.5 -14.2 0.0 -19.95 -12.55 -19.2 -21.6 -18.45 -30.7 -17.9 -31.15" fill="#4c8335" fill-rule="evenodd" stroke="none"/>
    <path d="M-17.9 -31.15 Q-18.45 -30.7 -19.2 -21.6 -19.95 -12.55 -14.2 0.0 -8.5 12.5 10.4 23.2 L0.5 25.0 -12.35 27.5 -18.75 28.75 -7.9 29.3 -8.5 31.2 -1.25 29.85 0.4 30.65 17.3 28.2 18.85 27.1 Q20.05 26.05 17.95 24.4 15.6 22.65 14.7 19.35 13.8 16.05 14.8 13.5 16.25 9.35 11.7 2.1 7.1 -5.1 0.2 -12.75 -6.7 -20.35 -12.15 -25.65 L-17.9 -31.15 Z" fill="none" stroke="#000000" stroke-linecap="round" stroke-linejoin="round" stroke-width="1.0"/>
  </g>
</svg>
