<?xml version="1.0" encoding="UTF-8" standalone="no"?>
<svg xmlns:xlink="http://www.w3.org/1999/xlink" height="71.85px" width="30.85px" xmlns="http://www.w3.org/2000/svg">
  <g transform="matrix(1.0, 0.0, 0.0, 1.0, 0.5, 0.5)">
    <path d="M29.8 0.0 Q30.05 3.7 28.7 7.85 L26.9 13.1 14.5 52.0 Q15.15 52.35 19.65 57.2 24.1 62.05 24.2 67.9 15.45 67.45 12.45 58.75 13.25 65.25 11.85 68.1 10.55 70.95 10.25 70.85 9.55 70.55 5.05 66.65 0.45 62.75 0.0 58.85 0.5 55.7 5.55 43.4 L15.75 18.7 Q20.8 6.3 21.35 2.85 L21.35 2.7 24.05 1.65 24.1 1.4 29.8 0.0" fill="#ffffff" fill-rule="evenodd" stroke="none"/>
    <path d="M21.35 2.7 L21.35 2.85 Q20.8 6.3 15.75 18.7 L5.55 43.4 Q0.5 55.7 0.0 58.85 0.45 62.75 5.05 66.65 9.55 70.55 10.25 70.85 10.55 70.95 11.85 68.1 13.25 65.25 12.45 58.75 15.45 67.45 24.2 67.9 24.1 62.05 19.65 57.2 15.15 52.35 14.5 52.0 L26.9 13.1 28.7 7.85 Q30.05 3.7 29.8 0.0" fill="none" stroke="#000000" stroke-linecap="round" stroke-linejoin="round" stroke-width="1.0"/>
  </g>
</svg>
