<?xml version="1.0" encoding="UTF-8" standalone="no"?>
<svg xmlns:xlink="http://www.w3.org/1999/xlink" height="98.55px" width="22.3px" xmlns="http://www.w3.org/2000/svg">
  <g transform="matrix(1.0, 0.0, 0.0, 1.0, 0.5, 0.5)">
    <path d="M7.45 9.35 L7.05 6.45 7.1 6.4 8.35 6.45 Q11.85 6.75 14.4 4.45 L14.8 3.75 15.55 3.6 15.75 3.3 Q18.1 1.3 20.85 0.0 L21.3 0.95 Q21.4 4.2 20.6 9.4 19.7 14.45 19.7 19.35 20.0 27.0 20.75 33.05 21.55 39.15 20.8 42.5 L15.55 58.15 11.75 68.45 14.2 75.65 Q16.35 82.2 15.9 85.95 13.95 91.65 11.05 94.6 L7.9 97.55 9.2 90.95 Q10.25 84.95 9.4 81.95 9.2 88.35 5.65 91.3 2.05 94.15 1.55 94.15 1.35 93.95 0.5 90.35 -0.4 86.75 0.3 82.35 1.35 77.85 3.65 74.0 5.85 70.15 6.1 69.95 L7.5 56.4 9.8 30.55 Q10.85 17.35 10.35 14.65 8.1 9.35 7.45 9.35" fill="#ffffff" fill-rule="evenodd" stroke="none"/>
    <path d="M7.45 9.35 Q8.1 9.35 10.35 14.65 10.85 17.35 9.8 30.55 L7.5 56.4 6.1 69.95 Q5.85 70.15 3.65 74.0 1.35 77.85 0.3 82.35 -0.4 86.75 0.5 90.35 1.35 93.95 1.55 94.15 2.05 94.15 5.65 91.3 9.2 88.35 9.4 81.95 10.25 84.95 9.2 90.95 L7.9 97.55 11.05 94.6 Q13.95 91.65 15.9 85.95 16.35 82.2 14.2 75.65 L11.75 68.45 15.55 58.15 20.8 42.5 Q21.55 39.15 20.75 33.05 20.0 27.0 19.7 19.35 19.7 14.45 20.6 9.4 21.4 4.2 21.3 0.95 L20.85 0.0" fill="none" stroke="#000000" stroke-linecap="round" stroke-linejoin="round" stroke-width="1.0"/>
  </g>
</svg>
