<?xml version="1.0" encoding="UTF-8" standalone="no"?>
<svg xmlns:xlink="http://www.w3.org/1999/xlink" height="98.9px" width="19.45px" xmlns="http://www.w3.org/2000/svg">
  <g transform="matrix(1.0, 0.0, 0.0, 1.0, 0.5, 0.5)">
    <path d="M6.9 0.0 L7.15 0.05 Q6.8 1.4 8.05 1.85 L8.45 2.3 9.55 2.35 15.7 8.1 16.4 9.25 18.7 9.7 18.45 10.5 Q17.6 10.8 14.85 15.35 14.25 17.65 13.6 30.0 L12.5 54.2 Q12.0 66.05 12.05 66.95 L14.05 71.6 Q15.9 76.15 16.75 83.4 16.65 88.0 13.45 92.55 L9.7 97.45 7.9 92.05 Q6.4 87.1 6.9 82.9 4.65 87.7 5.35 92.6 6.1 97.45 6.4 97.9 L3.7 93.6 Q1.25 89.6 0.3 86.2 -0.8 78.8 2.0 73.25 4.75 67.7 5.25 67.4 L3.45 57.25 Q1.8 47.95 0.85 41.65 0.45 37.05 2.1 28.35 3.65 19.65 5.7 11.1 L6.2 1.4 6.9 0.0" fill="#9c5715" fill-rule="evenodd" stroke="none"/>
    <path d="M18.45 10.5 Q17.6 10.8 14.85 15.35 14.25 17.65 13.6 30.0 L12.5 54.2 Q12.0 66.05 12.05 66.95 L14.05 71.6 Q15.9 76.15 16.75 83.4 16.65 88.0 13.45 92.55 L9.7 97.45 7.9 92.05 Q6.4 87.1 6.9 82.9 4.65 87.7 5.35 92.6 6.1 97.45 6.4 97.9 L3.7 93.6 Q1.25 89.6 0.3 86.2 -0.8 78.8 2.0 73.25 4.75 67.7 5.25 67.4 L3.45 57.25 Q1.8 47.95 0.85 41.65 0.45 37.05 2.1 28.35 3.65 19.65 5.7 11.1 L6.2 1.4 6.9 0.0" fill="none" stroke="#000000" stroke-linecap="round" stroke-linejoin="round" stroke-width="1.0"/>
  </g>
</svg>
