<?xml version="1.0" encoding="UTF-8" standalone="no"?>
<svg xmlns:xlink="http://www.w3.org/1999/xlink" height="32.85px" width="34.15px" xmlns="http://www.w3.org/2000/svg">
  <g transform="matrix(1.0, 0.0, 0.0, 1.0, 17.1, 16.4)">
    <path d="M6.4 -2.2 Q8.85 -3.15 11.2 -2.7 L11.2 -7.55 -0.75 -4.0 -0.75 8.5 Q-1.05 13.45 -6.4 15.85 L-12.6 16.0 Q-15.5 14.95 -16.7 12.15 -17.65 9.35 -16.2 6.65 -14.65 3.95 -11.4 2.65 -8.95 1.75 -6.6 2.15 L-6.6 -10.05 17.05 -16.4 17.05 3.7 Q16.75 8.6 11.4 11.0 8.05 12.15 5.15 11.1 2.25 10.1 1.1 7.3 0.15 4.5 1.65 1.8 3.1 -0.9 6.4 -2.2" fill="#ffffff" fill-rule="evenodd" stroke="none"/>
  </g>
</svg>
