<?xml version="1.0" encoding="UTF-8" standalone="no"?>
<svg xmlns:xlink="http://www.w3.org/1999/xlink" height="22.1px" width="32.7px" xmlns="http://www.w3.org/2000/svg">
  <g transform="matrix(1.0, 0.0, 0.0, 1.0, 16.8, 23.85)">
    <path d="M-16.3 -13.45 L-10.05 -17.5 Q-4.05 -21.1 3.35 -21.15 10.75 -21.2 15.4 -11.35 7.25 -1.3 0.05 -2.35 -7.15 -3.45 -11.65 -8.15 -16.15 -12.85 -16.3 -13.45" fill="#9c5715" fill-rule="evenodd" stroke="none"/>
    <path d="M-16.3 -13.45 Q-16.15 -12.85 -11.65 -8.15 -7.15 -3.45 0.05 -2.35 7.25 -1.3 15.4 -11.35 10.75 -21.2 3.35 -21.15 -4.05 -21.1 -10.05 -17.5 L-16.3 -13.45 Z" fill="none" stroke="#000000" stroke-linecap="round" stroke-linejoin="round" stroke-width="1.0"/>
    <path d="M-12.45 -14.55 L-7.4 -19.0 Q-2.6 -22.9 3.3 -23.35 9.25 -23.8 12.9 -14.05 7.0 -5.5 1.25 -6.05 -4.5 -6.75 -8.4 -10.35 -12.3 -14.05 -12.45 -14.55" fill="#fb0f0c" fill-rule="evenodd" stroke="none"/>
    <path d="M-12.45 -14.55 Q-12.3 -14.05 -8.4 -10.35 -4.5 -6.75 1.25 -6.05 7.0 -5.5 12.9 -14.05 9.25 -23.8 3.3 -23.35 -2.6 -22.9 -7.4 -19.0 L-12.45 -14.55 Z" fill="none" stroke="#000000" stroke-linecap="round" stroke-linejoin="round" stroke-width="1.0"/>
  </g>
</svg>
