<?xml version="1.0" encoding="UTF-8" standalone="no"?>
<svg xmlns:xlink="http://www.w3.org/1999/xlink" height="22.1px" width="32.7px" xmlns="http://www.w3.org/2000/svg">
  <g transform="matrix(1.0, 0.0, 0.0, 1.0, 16.8, 22.85)">
    <path d="M-16.3 -12.45 L-10.05 -16.5 Q-4.05 -20.1 3.35 -20.15 10.75 -20.2 15.4 -10.35 7.25 -0.3 0.05 -1.35 -7.15 -2.45 -11.65 -7.15 -16.15 -11.85 -16.3 -12.45" fill="#9c5715" fill-rule="evenodd" stroke="none"/>
    <path d="M-16.3 -12.45 Q-16.15 -11.85 -11.65 -7.15 -7.15 -2.45 0.05 -1.35 7.25 -0.3 15.4 -10.35 10.75 -20.2 3.35 -20.15 -4.05 -20.1 -10.05 -16.5 L-16.3 -12.45 Z" fill="none" stroke="#000000" stroke-linecap="round" stroke-linejoin="round" stroke-width="1.0"/>
    <path d="M-12.45 -13.55 L-7.4 -18.0 Q-2.6 -21.9 3.3 -22.35 9.25 -22.8 12.9 -13.05 7.0 -4.5 1.25 -5.05 -4.5 -5.75 -8.4 -9.35 -12.3 -13.05 -12.45 -13.55" fill="#fb0f0c" fill-rule="evenodd" stroke="none"/>
    <path d="M-12.45 -13.55 Q-12.3 -13.05 -8.4 -9.35 -4.5 -5.75 1.25 -5.05 7.0 -4.5 12.9 -13.05 9.25 -22.8 3.3 -22.35 -2.6 -21.9 -7.4 -18.0 L-12.45 -13.55 Z" fill="none" stroke="#000000" stroke-linecap="round" stroke-linejoin="round" stroke-width="1.0"/>
  </g>
</svg>
