<?xml version="1.0" encoding="UTF-8" standalone="no"?>
<svg xmlns:xlink="http://www.w3.org/1999/xlink" height="26.05px" width="52.0px" xmlns="http://www.w3.org/2000/svg">
  <g transform="matrix(1.0, 0.0, 0.0, 1.0, 26.75, 22.35)">
    <path d="M-12.25 -7.15 L-11.85 -2.65 Q-11.65 1.3 -12.35 2.35 -13.45 3.0 -16.15 3.15 -18.85 3.35 -20.05 2.4 -20.75 1.1 -20.55 -1.35 L-20.2 -4.1 -12.25 -7.15" fill="#fcfca8" fill-rule="evenodd" stroke="none"/>
    <path d="M-20.2 -4.1 L-20.55 -1.35 Q-20.75 1.1 -20.05 2.4 -18.85 3.35 -16.15 3.15 -13.45 3.0 -12.35 2.35 -11.65 1.3 -11.85 -2.65 L-12.25 -7.15" fill="none" stroke="#000000" stroke-linecap="round" stroke-linejoin="round" stroke-width="1.0"/>
    <path d="M19.5 -8.85 L21.3 -4.7 Q22.75 -1.0 22.5 0.2 L19.15 2.2 Q16.6 3.3 15.25 2.7 14.05 1.65 13.55 -0.7 12.9 -3.1 12.95 -3.4 L19.5 -8.85" fill="#fcfca8" fill-rule="evenodd" stroke="none"/>
    <path d="M12.95 -3.4 Q12.9 -3.1 13.55 -0.7 14.05 1.65 15.25 2.7 16.6 3.3 19.15 2.2 L22.5 0.2 Q22.75 -1.0 21.3 -4.7 L19.5 -8.85" fill="none" stroke="#000000" stroke-linecap="round" stroke-linejoin="round" stroke-width="1.0"/>
    <path d="M12.2 -19.55 L16.5 -21.05 Q20.45 -22.4 23.0 -21.45 24.95 -19.8 24.75 -15.35 24.5 -10.9 23.55 -8.6 22.35 -6.55 18.65 -4.55 14.8 -2.6 13.2 -2.5 11.55 -3.0 7.05 -5.3 2.5 -7.6 -0.5 -8.05 L12.2 -19.55" fill="#ffffff" fill-rule="evenodd" stroke="none"/>
    <path d="M-0.5 -8.05 Q2.5 -7.6 7.05 -5.3 11.55 -3.0 13.2 -2.5 14.8 -2.6 18.65 -4.55 22.35 -6.55 23.55 -8.6 24.5 -10.9 24.75 -15.35 24.95 -19.8 23.0 -21.45 20.45 -22.4 16.5 -21.05 L12.2 -19.55" fill="none" stroke="#000000" stroke-linecap="round" stroke-linejoin="round" stroke-width="1.0"/>
    <path d="M11.15 -7.85 Q10.3 -8.5 10.75 -10.45 11.2 -12.35 12.05 -13.7 14.85 -16.65 17.75 -15.7 20.1 -13.7 17.8 -9.45 16.25 -7.65 14.2 -7.45 12.15 -7.3 11.15 -7.85" fill="#f4c0d7" fill-rule="evenodd" stroke="none"/>
    <path d="M11.15 -7.85 Q10.3 -8.5 10.75 -10.45 11.2 -12.35 12.05 -13.7 14.85 -16.65 17.75 -15.7 20.1 -13.7 17.8 -9.45 16.25 -7.65 14.2 -7.45 12.15 -7.3 11.15 -7.85 Z" fill="none" stroke="#000000" stroke-linecap="round" stroke-linejoin="round" stroke-width="1.0"/>
    <path d="M-0.25 -8.3 Q-3.35 -7.85 -9.7 -5.85 -16.0 -3.85 -19.15 -3.15 -21.9 -2.85 -23.9 -6.25 -25.95 -9.6 -26.25 -14.6 -26.25 -17.95 -25.05 -19.7 -23.85 -21.45 -23.05 -21.7 -21.8 -21.95 -17.7 -21.65 L-13.15 -21.3 -0.25 -8.3" fill="#9c5715" fill-rule="evenodd" stroke="none"/>
    <path d="M-13.15 -21.3 L-17.7 -21.65 Q-21.8 -21.95 -23.05 -21.7 -23.85 -21.45 -25.05 -19.7 -26.25 -17.95 -26.25 -14.6 -25.95 -9.6 -23.9 -6.25 -21.9 -2.85 -19.15 -3.15 -16.0 -3.85 -9.7 -5.85 -3.35 -7.85 -0.25 -8.3" fill="none" stroke="#000000" stroke-linecap="round" stroke-linejoin="round" stroke-width="1.0"/>
    <path d="M-19.7 -8.2 Q-20.75 -8.25 -21.6 -10.0 -22.45 -11.8 -22.5 -13.35 -22.5 -14.9 -21.5 -16.65 -20.5 -18.4 -19.25 -18.45 -16.15 -18.2 -15.45 -13.5 -15.55 -11.1 -17.05 -9.7 -18.55 -8.4 -19.7 -8.2" fill="#f4c0d7" fill-rule="evenodd" stroke="none"/>
    <path d="M-19.7 -8.2 Q-20.75 -8.25 -21.6 -10.0 -22.45 -11.8 -22.5 -13.35 -22.5 -14.9 -21.5 -16.65 -20.5 -18.4 -19.25 -18.45 -16.15 -18.2 -15.45 -13.5 -15.55 -11.1 -17.05 -9.7 -18.55 -8.4 -19.7 -8.2 Z" fill="none" stroke="#000000" stroke-linecap="round" stroke-linejoin="round" stroke-width="1.0"/>
  </g>
</svg>
