<?xml version="1.0" encoding="UTF-8" standalone="no"?>
<svg xmlns:xlink="http://www.w3.org/1999/xlink" height="22.1px" width="32.7px" xmlns="http://www.w3.org/2000/svg">
  <g transform="matrix(1.0, 0.0, 0.0, 1.0, 16.8, 16.85)">
    <path d="M-16.3 -6.45 L-10.05 -10.5 Q-4.05 -14.1 3.35 -14.15 10.75 -14.2 15.4 -4.35 7.25 5.7 0.05 4.65 -7.15 3.55 -11.65 -1.15 -16.15 -5.85 -16.3 -6.45" fill="#9c5715" fill-rule="evenodd" stroke="none"/>
    <path d="M-16.3 -6.45 Q-16.15 -5.85 -11.65 -1.15 -7.15 3.55 0.05 4.65 7.25 5.7 15.4 -4.35 10.75 -14.2 3.35 -14.15 -4.05 -14.1 -10.05 -10.5 L-16.3 -6.45 Z" fill="none" stroke="#000000" stroke-linecap="round" stroke-linejoin="round" stroke-width="1.0"/>
    <path d="M-12.45 -7.55 L-7.4 -12.0 Q-2.6 -15.9 3.3 -16.35 9.25 -16.8 12.9 -7.05 7.0 1.5 1.25 0.95 -4.5 0.25 -8.4 -3.35 -12.3 -7.05 -12.45 -7.55" fill="#fb0f0c" fill-rule="evenodd" stroke="none"/>
    <path d="M-12.45 -7.55 Q-12.3 -7.05 -8.4 -3.35 -4.5 0.25 1.25 0.95 7.0 1.5 12.9 -7.05 9.25 -16.8 3.3 -16.35 -2.6 -15.9 -7.4 -12.0 L-12.45 -7.55 Z" fill="none" stroke="#000000" stroke-linecap="round" stroke-linejoin="round" stroke-width="1.0"/>
  </g>
</svg>
