<?xml version="1.0" encoding="UTF-8" standalone="no"?>
<svg xmlns:xlink="http://www.w3.org/1999/xlink" height="59.2px" width="41.4px" xmlns="http://www.w3.org/2000/svg">
  <g transform="matrix(1.0, 0.0, 0.0, 1.0, 0.0, 0.0)">
    <path d="M22.75 53.9 L21.15 53.45 Q22.4 53.05 24.35 51.9 L25.55 52.65 22.75 53.9" fill="#9e7a00" fill-rule="evenodd" stroke="none"/>
    <path d="M25.55 52.65 L24.35 51.9 26.35 50.7 27.5 51.5 25.55 52.65" fill="#997600" fill-rule="evenodd" stroke="none"/>
    <path d="M27.5 51.5 L26.35 50.7 26.8 50.3 27.9 51.1 27.5 51.5" fill="#947200" fill-rule="evenodd" stroke="none"/>
    <path d="M27.9 51.1 L26.8 50.3 21.15 45.1 22.4 45.9 27.9 51.1" fill="#806200" fill-rule="evenodd" stroke="none"/>
    <path d="M18.4 54.7 L17.2 53.9 16.8 45.5 18.4 46.3 18.4 54.7" fill="#816300" fill-rule="evenodd" stroke="none"/>
    <path d="M30.75 47.55 L29.55 47.15 30.75 45.1 31.9 45.5 30.75 47.55" fill="#8a6a00" fill-rule="evenodd" stroke="none"/>
    <path d="M33.55 38.35 L31.9 45.5 30.75 45.1 31.9 37.95 Q31.9 29.6 24.75 26.4 L26.35 26.8 Q32.7 30.0 33.55 38.35" fill="#856600" fill-rule="evenodd" stroke="none"/>
    <path d="M13.15 53.2 L14.75 53.45 16.0 54.3 13.15 53.2" fill="#9e7a00" fill-rule="evenodd" stroke="none"/>
    <path d="M16.0 54.3 L14.75 53.45 17.2 53.9 18.4 54.7 16.0 54.3" fill="#a37d00" fill-rule="evenodd" stroke="none"/>
    <path d="M18.0 40.0 L10.05 50.3 8.4 49.5 16.8 39.55 18.0 40.0" fill="#9a7600" fill-rule="evenodd" stroke="none"/>
    <path d="M18.0 40.0 L16.8 39.55 16.4 26.0 17.6 26.4 18.0 40.0" fill="#816300" fill-rule="evenodd" stroke="none"/>
    <path d="M19.55 21.2 L18.4 20.8 24.35 21.2 25.55 21.6 19.55 21.2" fill="#a37d00" fill-rule="evenodd" stroke="none"/>
    <path d="M4.45 33.15 L2.4 42.75 Q3.2 53.9 12.4 57.85 L10.8 57.45 Q2.0 53.05 1.25 41.95 L3.2 32.75 4.45 33.15" fill="#856600" fill-rule="evenodd" stroke="none"/>
    <path d="M4.45 33.15 L3.2 32.75 Q3.6 31.55 4.85 29.6 L6.4 30.0 4.45 33.15" fill="#8a6a00" fill-rule="evenodd" stroke="none"/>
    <path d="M6.4 30.0 L4.85 29.6 6.8 26.8 8.0 27.55 6.4 30.0" fill="#8f6e00" fill-rule="evenodd" stroke="none"/>
    <path d="M8.0 27.55 L6.8 26.8 8.8 24.8 10.35 25.6 8.0 27.55" fill="#947200" fill-rule="evenodd" stroke="none"/>
    <path d="M10.35 25.6 L8.8 24.8 11.6 23.15 12.8 23.55 10.35 25.6" fill="#997600" fill-rule="evenodd" stroke="none"/>
    <path d="M12.8 23.55 L11.6 23.15 Q13.6 22.2 15.55 21.2 L16.8 22.0 12.8 23.55" fill="#9e7a00" fill-rule="evenodd" stroke="none"/>
    <path d="M16.8 22.0 L15.55 21.2 18.4 20.8 19.55 21.2 Q17.6 21.6 16.8 22.0" fill="#a37d00" fill-rule="evenodd" stroke="none"/>
    <path d="M19.55 21.2 Q26.8 20.4 32.3 25.2 37.5 30.4 37.9 37.95 37.9 45.9 33.1 51.9 27.9 58.25 20.75 59.1 13.6 59.9 8.0 55.1 2.8 50.3 2.4 42.75 2.4 34.8 7.6 28.35 12.4 22.45 19.55 21.2 M22.4 39.55 L30.75 47.55 Q33.55 44.3 33.55 38.35 32.7 26.0 22.0 26.0 L22.4 39.55 M17.6 26.4 Q6.8 29.6 6.8 41.95 7.6 47.15 10.05 50.3 L18.0 40.0 17.6 26.4 M22.75 53.9 L27.9 51.1 22.4 45.9 22.75 53.9 M18.4 46.3 L12.8 53.05 18.4 54.7 18.4 46.3" fill="#e3ae00" fill-rule="evenodd" stroke="none"/>
    <path d="M22.75 53.9 L21.15 53.45 Q22.4 53.05 24.35 51.9 L25.55 52.65 22.75 53.9" fill="#9e7a00" fill-rule="evenodd" stroke="none"/>
    <path d="M25.55 52.65 L24.35 51.9 26.35 50.7 27.5 51.5 25.55 52.65" fill="#997600" fill-rule="evenodd" stroke="none"/>
    <path d="M27.5 51.5 L26.35 50.7 26.8 50.3 27.9 51.1 27.5 51.5" fill="#947200" fill-rule="evenodd" stroke="none"/>
    <path d="M27.9 51.1 L26.8 50.3 21.15 45.1 22.4 45.9 27.9 51.1" fill="#806200" fill-rule="evenodd" stroke="none"/>
    <path d="M18.4 54.7 L17.2 53.9 16.8 45.5 18.4 46.3 18.4 54.7" fill="#816300" fill-rule="evenodd" stroke="none"/>
    <path d="M30.75 47.55 L29.55 47.15 30.75 45.1 31.9 45.5 30.75 47.55" fill="#8a6a00" fill-rule="evenodd" stroke="none"/>
    <path d="M33.55 38.35 L31.9 45.5 30.75 45.1 31.9 37.95 Q31.9 29.6 24.75 26.4 L26.35 26.8 Q32.7 30.0 33.55 38.35" fill="#856600" fill-rule="evenodd" stroke="none"/>
    <path d="M13.15 53.2 L14.75 53.45 16.0 54.3 13.15 53.2" fill="#9e7a00" fill-rule="evenodd" stroke="none"/>
    <path d="M16.0 54.3 L14.75 53.45 17.2 53.9 18.4 54.7 16.0 54.3" fill="#a37d00" fill-rule="evenodd" stroke="none"/>
    <path d="M18.0 40.0 L10.05 50.3 8.4 49.5 16.8 39.55 18.0 40.0" fill="#9a7600" fill-rule="evenodd" stroke="none"/>
    <path d="M18.0 40.0 L16.8 39.55 16.4 26.0 17.6 26.4 18.0 40.0" fill="#816300" fill-rule="evenodd" stroke="none"/>
    <path d="M19.55 21.2 L18.4 20.8 24.35 21.2 25.55 21.6 19.55 21.2" fill="#a37d00" fill-rule="evenodd" stroke="none"/>
    <path d="M4.45 33.15 L2.4 42.75 Q3.2 53.9 12.4 57.85 L10.8 57.45 Q2.0 53.05 1.25 41.95 L3.2 32.75 4.45 33.15" fill="#856600" fill-rule="evenodd" stroke="none"/>
    <path d="M4.45 33.15 L3.2 32.75 Q3.6 31.55 4.85 29.6 L6.4 30.0 4.45 33.15" fill="#8a6a00" fill-rule="evenodd" stroke="none"/>
    <path d="M6.4 30.0 L4.85 29.6 6.8 26.8 8.0 27.55 6.4 30.0" fill="#8f6e00" fill-rule="evenodd" stroke="none"/>
    <path d="M8.0 27.55 L6.8 26.8 8.8 24.8 10.35 25.6 8.0 27.55" fill="#947200" fill-rule="evenodd" stroke="none"/>
    <path d="M10.35 25.6 L8.8 24.8 11.6 23.15 12.8 23.55 10.35 25.6" fill="#997600" fill-rule="evenodd" stroke="none"/>
    <path d="M12.8 23.55 L11.6 23.15 Q13.6 22.2 15.55 21.2 L16.8 22.0 12.8 23.55" fill="#9e7a00" fill-rule="evenodd" stroke="none"/>
    <path d="M16.8 22.0 L15.55 21.2 18.4 20.8 19.55 21.2 Q17.6 21.6 16.8 22.0" fill="#a37d00" fill-rule="evenodd" stroke="none"/>
    <path d="M19.55 21.2 Q26.8 20.4 32.3 25.2 37.5 30.4 37.9 37.95 37.9 45.9 33.1 51.9 27.9 58.25 20.75 59.1 13.6 59.9 8.0 55.1 2.8 50.3 2.4 42.75 2.4 34.8 7.6 28.35 12.4 22.45 19.55 21.2 M22.4 39.55 L30.75 47.55 Q33.55 44.3 33.55 38.35 32.7 26.0 22.0 26.0 L22.4 39.55 M17.6 26.4 Q6.8 29.6 6.8 41.95 7.6 47.15 10.05 50.3 L18.0 40.0 17.6 26.4 M22.75 53.9 L27.9 51.1 22.4 45.9 22.75 53.9 M18.4 46.3 L12.8 53.05 18.4 54.7 18.4 46.3" fill="#e3ae00" fill-rule="evenodd" stroke="none"/>
    <path d="M16.8 22.85 L13.2 17.25 Q12.8 16.4 11.6 16.8 10.8 17.25 10.8 18.85 L14.35 24.4 Q14.75 24.8 16.4 24.8 16.8 24.4 16.8 22.85 M10.8 15.6 Q13.2 15.2 13.6 16.4 L17.6 23.15 Q18.4 24.0 17.2 26.0 15.15 27.2 14.0 25.2 L10.05 18.45 Q9.65 16.0 10.8 15.6" fill="#edb329" fill-rule="evenodd" stroke="none"/>
    <path d="M12.8 16.8 Q12.8 18.05 12.4 18.45 11.2 18.45 10.8 18.05 L5.65 9.25 Q5.25 8.05 6.0 7.65 7.2 7.65 7.6 8.05 L12.8 16.8" fill="#edb329" fill-rule="evenodd" stroke="none"/>
    <path d="M3.6 2.05 Q3.2 1.3 2.0 1.3 1.25 1.7 1.25 3.25 L4.85 8.85 Q5.25 9.65 6.8 9.65 7.2 9.25 7.2 7.65 L3.6 2.05 M1.25 0.1 Q2.0 -0.3 4.05 0.9 L8.0 7.65 Q8.8 8.85 7.6 10.8 6.4 11.2 4.45 10.05 L0.45 3.25 Q-0.75 1.3 1.25 0.1" fill="#edb329" fill-rule="evenodd" stroke="none"/>
    <path d="M26.8 16.8 L22.75 22.0 Q22.4 22.85 23.15 24.0 23.55 24.4 25.15 24.0 L29.15 18.45 Q29.55 18.05 28.75 16.4 28.35 16.0 26.8 16.8 M29.55 15.6 Q30.75 16.0 29.95 18.45 L25.15 24.8 Q24.75 25.6 22.4 25.2 20.75 24.0 22.0 22.0 L26.8 16.0 Q27.5 14.8 29.55 15.6" fill="#edb329" fill-rule="evenodd" stroke="none"/>
    <path d="M29.55 17.65 Q28.35 18.45 27.9 18.05 27.1 16.8 27.5 16.4 L33.55 8.45 Q34.75 7.65 35.5 8.05 35.9 9.25 35.5 9.65 L29.55 17.65" fill="#edb329" fill-rule="evenodd" stroke="none"/>
    <path d="M40.3 4.05 Q40.7 3.65 39.85 2.05 39.55 1.7 37.9 2.45 L33.95 7.65 Q33.55 8.45 34.35 9.65 34.75 10.05 36.3 9.65 L40.3 4.05 M40.7 1.3 Q41.9 1.7 41.1 4.05 L36.3 10.5 Q35.9 11.2 33.55 10.8 31.9 9.65 33.1 7.65 L37.9 1.7 Q38.7 0.5 40.7 1.3" fill="#edb329" fill-rule="evenodd" stroke="none"/>
  </g>
</svg>
