<?xml version="1.0" encoding="UTF-8" standalone="no"?>
<svg xmlns:xlink="http://www.w3.org/1999/xlink" height="37.9px" width="45.5px" xmlns="http://www.w3.org/2000/svg">
  <g transform="matrix(1.0, 0.0, 0.0, 1.0, 0.0, 0.0)">
    <path d="M45.45 35.1 Q44.75 40.3 21.6 35.9 -1.15 31.5 0.05 26.7 0.85 21.55 23.6 25.9 46.3 30.3 45.45 35.1" fill="#404040" fill-rule="evenodd" stroke="none"/>
    <path d="M38.7 31.5 Q37.9 35.1 22.8 32.35 7.2 29.5 8.0 26.3 L8.0 25.9 12.0 4.4 42.7 10.0 38.7 31.5" fill="#ffffff" fill-rule="evenodd" stroke="none"/>
    <path d="M39.55 28.7 Q38.7 32.35 23.2 29.5 7.6 26.7 8.4 23.55 L8.4 23.15 12.4 1.6 43.1 7.15 39.55 28.7" fill="#000000" fill-rule="evenodd" stroke="none"/>
    <path d="M28.35 1.2 Q43.9 4.0 43.1 7.15 42.3 10.8 27.2 7.95 11.6 5.2 12.4 2.0 13.2 -1.55 28.35 1.2" fill="#404040" fill-rule="evenodd" stroke="none"/>
  </g>
</svg>
