<?xml version="1.0" encoding="UTF-8" standalone="no"?>
<svg xmlns:xlink="http://www.w3.org/1999/xlink" height="80.45px" width="50.15px" xmlns="http://www.w3.org/2000/svg">
  <g transform="matrix(1.0, 0.0, 0.0, 1.0, 0.5, 0.5)">
    <path d="M1.75 0.0 L9.1 7.0 Q16.05 13.75 24.8 23.45 33.6 33.15 39.45 42.35 45.25 51.6 43.45 56.85 42.15 60.1 43.3 64.3 44.45 68.55 47.45 70.75 50.1 72.85 48.6 74.2 L46.6 75.6 25.05 78.75 22.95 77.7 13.75 79.45 14.5 77.0 0.7 76.3 8.85 74.7 25.2 71.55 37.8 69.25 Q13.75 55.6 6.45 39.65 -0.85 23.7 0.1 12.15 1.05 0.55 1.75 0.0" fill="#4c8335" fill-rule="evenodd" stroke="none"/>
    <path d="M1.75 0.0 Q1.05 0.55 0.1 12.15 -0.85 23.7 6.45 39.65 13.75 55.6 37.8 69.25 L25.2 71.55 8.85 74.7 0.7 76.3 14.5 77.0 13.75 79.45 22.95 77.7 25.05 78.75 46.6 75.6 48.6 74.2 Q50.1 72.85 47.45 70.75 44.45 68.55 43.3 64.3 42.15 60.1 43.45 56.85 45.25 51.6 39.45 42.35 33.6 33.15 24.8 23.45 16.05 13.75 9.1 7.0 L1.75 0.0 Z" fill="none" stroke="#000000" stroke-linecap="round" stroke-linejoin="round" stroke-width="1.0"/>
  </g>
</svg>
