<?xml version="1.0" encoding="UTF-8" standalone="no"?>
<svg xmlns:xlink="http://www.w3.org/1999/xlink" height="80.45px" width="50.15px" xmlns="http://www.w3.org/2000/svg">
  <g transform="matrix(1.0, 0.0, 0.0, 1.0, 0.5, 0.5)">
    <path d="M47.4 0.0 Q48.1 0.55 49.05 12.15 49.95 23.7 42.65 39.65 35.35 55.6 11.35 69.25 L23.95 71.55 40.3 74.7 48.45 76.3 34.65 77.0 35.35 79.45 26.2 77.7 24.05 78.75 2.5 75.6 Q2.1 75.55 0.55 74.2 -0.95 72.85 1.65 70.75 4.7 68.55 5.85 64.3 6.95 60.1 5.7 56.85 3.9 51.6 9.7 42.35 15.55 33.15 24.3 23.45 33.1 13.75 40.05 7.0 L47.4 0.0" fill="#4c8335" fill-rule="evenodd" stroke="none"/>
    <path d="M47.4 0.0 Q48.1 0.55 49.05 12.15 49.95 23.7 42.65 39.65 35.35 55.6 11.35 69.25 L23.95 71.55 40.3 74.7 48.45 76.3 34.65 77.0 35.35 79.45 26.2 77.7 24.05 78.75 2.5 75.6 Q2.1 75.55 0.55 74.2 -0.95 72.85 1.65 70.75 4.7 68.55 5.85 64.3 6.95 60.1 5.7 56.85 3.9 51.6 9.7 42.35 15.55 33.15 24.3 23.45 33.1 13.75 40.05 7.0 L47.4 0.0 Z" fill="none" stroke="#000000" stroke-linecap="round" stroke-linejoin="round" stroke-width="1.0"/>
  </g>
</svg>
