<?xml version="1.0" encoding="UTF-8" standalone="no"?>
<svg xmlns:xlink="http://www.w3.org/1999/xlink" height="51.0px" width="50.4px" xmlns="http://www.w3.org/2000/svg">
  <g transform="matrix(1.0, 0.0, 0.0, 1.0, 0.5, 0.6)">
    <path d="M45.0 0.0 L46.15 17.1 Q30.5 27.0 25.15 31.65 19.75 36.25 16.3 40.4 12.85 44.55 11.2 47.2 L9.6 49.9 11.25 41.7 4.2 49.45 8.05 40.4 7.35 41.0 4.85 43.3 0.0 48.15 Q2.85 42.65 6.7 37.4 10.5 32.15 14.6 27.6 L22.2 19.55 27.9 14.15 Q30.1 12.15 45.0 0.0" fill="#4c8335" fill-rule="evenodd" stroke="none"/>
    <path d="M45.0 0.0 Q30.1 12.15 27.9 14.15 L22.2 19.55 14.6 27.6 Q10.5 32.15 6.7 37.4 2.85 42.65 0.0 48.15 L4.85 43.3 7.35 41.0 8.05 40.4 4.2 49.45 11.25 41.7 9.6 49.9 11.2 47.2 Q12.85 44.55 16.3 40.4 19.75 36.25 25.15 31.65 30.5 27.0 46.15 17.1" fill="none" stroke="#000000" stroke-linecap="round" stroke-linejoin="round" stroke-width="1.0"/>
    <path d="M10.45 30.5 Q23.65 11.95 45.0 -0.6 50.65 10.05 49.8 16.4 33.25 23.6 19.85 39.3 L10.45 30.5" fill="#000000" fill-rule="evenodd" stroke="none"/>
  </g>
</svg>
