<?xml version="1.0" encoding="UTF-8" standalone="no"?>
<svg xmlns:xlink="http://www.w3.org/1999/xlink" height="175.6px" width="128.95px" xmlns="http://www.w3.org/2000/svg">
  <g transform="matrix(1.0, 0.0, 0.0, 1.0, 0.5, 0.5)">
    <path d="M101.35 64.45 Q110.6 75.35 118.45 89.7 126.3 104.05 127.95 121.25 127.7 141.8 117.9 152.95 108.1 164.15 95.05 168.7 82.0 173.25 72.05 174.0 L61.55 174.55 48.65 172.8 Q36.55 170.85 22.8 163.85 9.05 156.85 3.3 142.05 -3.85 119.7 4.55 98.55 12.9 77.35 33.3 55.55 47.15 40.0 52.6 27.7 58.05 15.45 58.85 8.3 59.6 1.15 59.3 1.0 L71.8 0.0 Q71.65 0.35 72.25 7.95 72.8 15.55 75.9 26.3 78.95 37.0 86.3 46.7 L101.35 64.45" fill="#4c8335" fill-rule="evenodd" stroke="none"/>
    <path d="M101.35 64.45 L86.3 46.7 Q78.95 37.0 75.9 26.3 72.8 15.55 72.25 7.95 71.65 0.35 71.8 0.0 L59.3 1.0 Q59.6 1.15 58.85 8.3 58.05 15.45 52.6 27.7 47.15 40.0 33.3 55.55 12.9 77.35 4.55 98.55 -3.85 119.7 3.3 142.05 9.05 156.85 22.8 163.85 36.55 170.85 48.65 172.8 L61.55 174.55 72.05 174.0 Q82.0 173.25 95.05 168.7 108.1 164.15 117.9 152.95 127.7 141.8 127.95 121.25 126.3 104.05 118.45 89.7 110.6 75.35 101.35 64.45 Z" fill="none" stroke="#000000" stroke-linecap="round" stroke-linejoin="round" stroke-width="1.0"/>
    <path d="M20.95 64.7 Q28.15 53.15 36.8 45.25 45.45 37.3 49.0 34.45 L47.25 117.7 Q23.6 122.65 14.4 108.45 5.15 94.2 9.45 85.2 13.7 76.2 20.95 64.7" fill="#000000" fill-rule="evenodd" stroke="none"/>
    <path d="M119.55 98.8 Q103.9 123.05 80.6 117.7 L78.8 34.45 Q129.0 84.05 119.55 98.8" fill="#000000" fill-rule="evenodd" stroke="none"/>
    <path d="M47.8 35.95 Q45.15 29.45 35.4 32.4 46.65 20.3 56.1 21.15 53.15 30.6 47.8 35.95" fill="#000000" fill-rule="evenodd" stroke="none"/>
    <path d="M79.7 36.2 Q75.0 30.6 73.2 20.55 82.65 20.85 92.4 34.45 82.95 30.3 79.7 36.2" fill="#000000" fill-rule="evenodd" stroke="none"/>
  </g>
</svg>
