<?xml version="1.0" encoding="UTF-8" standalone="no"?>
<svg xmlns:xlink="http://www.w3.org/1999/xlink" height="38.85px" width="32.2px" xmlns="http://www.w3.org/2000/svg">
  <g transform="matrix(1.0, 0.0, 0.0, 1.0, -8.15, 0.5)">
    <path d="M20.0 11.65 Q19.95 11.05 20.25 6.4 20.55 1.75 21.6 0.0 L23.95 7.8 20.0 11.65" fill="#f3e016" fill-rule="evenodd" stroke="none"/>
    <path d="M20.0 11.65 Q19.95 11.05 20.25 6.4 20.55 1.75 21.6 0.0 L23.95 7.8" fill="none" stroke="#000000" stroke-linecap="round" stroke-linejoin="round" stroke-width="1.0"/>
    <path d="M20.9 11.2 Q20.95 10.7 22.85 6.85 24.75 2.95 27.8 1.7 24.95 10.45 25.05 11.1 L20.9 11.2" fill="#f3e016" fill-rule="evenodd" stroke="none"/>
    <path d="M20.9 11.2 Q20.95 10.7 22.85 6.85 24.75 2.95 27.8 1.7 24.95 10.45 25.05 11.1" fill="none" stroke="#000000" stroke-linecap="round" stroke-linejoin="round" stroke-width="1.0"/>
    <path d="M13.0 35.05 L11.0 33.05 Q9.25 31.2 8.65 28.8 8.6 26.5 10.95 25.1 13.3 23.7 13.65 23.65 13.3 22.95 14.65 17.6 15.95 12.25 22.95 10.95 27.8 10.85 30.3 14.2 32.85 17.6 33.75 21.15 L34.6 24.95 36.8 25.75 Q38.75 26.6 39.75 29.2 40.25 31.95 38.55 33.8 L36.6 35.7 13.0 35.05" fill="#4c8335" fill-rule="evenodd" stroke="none"/>
    <path d="M13.0 35.05 L11.0 33.05 Q9.25 31.2 8.65 28.8 8.6 26.5 10.95 25.1 13.3 23.7 13.65 23.65 13.3 22.95 14.65 17.6 15.95 12.25 22.95 10.95 27.8 10.85 30.3 14.2 32.85 17.6 33.75 21.15 L34.6 24.95 36.8 25.75 Q38.75 26.6 39.75 29.2 40.25 31.95 38.55 33.8 L36.6 35.7" fill="none" stroke="#000000" stroke-linecap="round" stroke-linejoin="round" stroke-width="1.0"/>
    <path d="M37.0 29.75 Q36.5 33.2 37.25 34.9 L38.2 36.6 30.85 37.1 17.6 37.75 11.7 37.5 Q13.05 36.25 12.35 32.85 L11.45 28.95 37.0 29.75" fill="#4c8335" fill-rule="evenodd" stroke="none"/>
    <path d="M11.45 28.95 L12.35 32.85 Q13.05 36.25 11.7 37.5 L17.6 37.75 30.85 37.1 38.2 36.6 37.25 34.9 Q36.5 33.2 37.0 29.75" fill="none" stroke="#000000" stroke-linecap="round" stroke-linejoin="round" stroke-width="1.0"/>
  </g>
</svg>
