<?xml version="1.0" encoding="UTF-8" standalone="no"?>
<svg xmlns:xlink="http://www.w3.org/1999/xlink" height="13.3px" width="35.45px" xmlns="http://www.w3.org/2000/svg">
  <g transform="matrix(1.0, 0.0, 0.0, 1.0, 18.65, 4.7)">
    <path d="M-1.2 0.05 Q-1.2 2.1 -5.95 5.35 -10.35 8.6 -13.3 8.6 -18.65 8.6 -18.65 0.05 -18.65 -4.7 -9.75 -4.7 -1.2 -4.7 -1.2 0.05" fill="#000000" fill-rule="evenodd" stroke="none"/>
    <path d="M-17.15 2.1 L-16.85 4.75 -17.45 0.35 Q-17.45 -3.8 -10.05 -3.8 L-5.35 -3.2 -7.1 -3.2 Q-17.15 -3.2 -17.15 2.1" fill="#ffffff" fill-rule="evenodd" stroke="none"/>
    <path d="M8.25 -4.7 Q16.8 -4.7 16.8 0.05 16.8 8.6 11.5 8.6 8.55 8.6 4.1 5.35 -0.6 2.1 -0.6 0.05 -0.6 -4.7 8.25 -4.7" fill="#000000" fill-rule="evenodd" stroke="none"/>
    <path d="M1.45 0.65 Q1.45 1.25 2.05 2.4 1.15 1.5 0.55 0.05 0.55 -3.5 5.0 -3.5 1.45 -2.9 1.45 0.65" fill="#ffffff" fill-rule="evenodd" stroke="none"/>
  </g>
</svg>
