<?xml version="1.0" encoding="UTF-8" standalone="no"?>
<svg xmlns:xlink="http://www.w3.org/1999/xlink" height="50.2px" width="25.7px" xmlns="http://www.w3.org/2000/svg">
  <g transform="matrix(1.0, 0.0, 0.0, 1.0, 0.0, 0.0)">
    <path d="M19.5 0.0 Q22.45 3.85 25.7 4.15 22.15 21.85 14.15 49.3 L0.0 50.2 19.5 0.0" fill="#000000" fill-rule="evenodd" stroke="none"/>
    <path d="M11.8 35.75 L12.1 39.0 14.15 40.15 11.8 42.25 11.2 46.05 9.45 44.0 6.8 45.2 8.25 41.65 7.1 39.0 9.75 38.7 11.8 35.75" fill="#f0037f" fill-rule="evenodd" stroke="none"/>
    <path d="M16.25 30.15 L15.65 33.65 13.85 31.6 11.5 32.8 12.7 29.55 11.8 26.9 14.15 26.9 16.25 23.95 16.25 27.15 18.6 28.05 16.25 30.15" fill="#f0037f" fill-rule="evenodd" stroke="none"/>
    <path d="M18.9 13.3 L19.2 15.95 20.95 16.85 18.9 18.3 18.6 21.25 17.1 19.5 15.05 20.7 16.25 18.0 15.35 15.65 17.4 15.65 18.9 13.3" fill="#f0037f" fill-rule="evenodd" stroke="none"/>
    <path d="M18.9 6.8 L20.05 6.8 21.25 5.05 21.55 7.1 22.75 7.4 21.25 8.85 20.95 10.65 20.05 9.75 18.6 10.35 19.5 8.3 18.9 6.8" fill="#f0037f" fill-rule="evenodd" stroke="none"/>
  </g>
</svg>
