<?xml version="1.0" encoding="UTF-8" standalone="no"?>
<svg xmlns:xlink="http://www.w3.org/1999/xlink" height="97.75px" width="156.5px" xmlns="http://www.w3.org/2000/svg">
  <g transform="matrix(1.0, 0.0, 0.0, 1.0, 0.0, 0.0)">
    <path d="M84.45 34.85 L20.7 97.75 36.6 49.65 0.0 31.05 78.55 27.2 84.45 34.85" fill="#f0037f" fill-rule="evenodd" stroke="none"/>
    <path d="M78.55 31.05 L83.85 35.15 44.0 74.45 28.95 75.9 36.05 55.85 54.35 48.75 50.2 39.3 39.6 33.4 78.55 31.05" fill="#ffffff" fill-rule="evenodd" stroke="none"/>
    <path d="M148.55 10.05 L81.5 36.35 Q75.9 39.0 73.55 35.45 70.6 30.75 76.5 27.8 79.45 26.3 144.1 2.7 L148.55 10.05" fill="#000000" fill-rule="evenodd" stroke="none"/>
    <path d="M53.15 36.65 L57.9 47.85 54.65 49.05 49.9 38.1 53.15 36.65" fill="#000000" fill-rule="evenodd" stroke="none"/>
    <path d="M41.65 40.75 L44.9 39.3 49.6 50.5 46.35 52.0 41.65 40.75" fill="#000000" fill-rule="evenodd" stroke="none"/>
    <path d="M141.45 0.0 L156.5 1.5 148.55 14.2 141.45 0.0" fill="#000000" fill-rule="evenodd" stroke="none"/>
  </g>
</svg>
