<?xml version="1.0" encoding="UTF-8" standalone="no"?>
<svg xmlns:xlink="http://www.w3.org/1999/xlink" height="41.05px" width="32.2px" xmlns="http://www.w3.org/2000/svg">
  <g transform="matrix(1.0, 0.0, 0.0, 1.0, -8.15, -0.3)">
    <path d="M23.95 8.6 L20.0 12.45 Q19.95 11.85 20.25 7.2 20.55 2.55 21.6 0.8 L23.95 8.6" fill="#f3e016" fill-rule="evenodd" stroke="none"/>
    <path d="M20.0 12.45 Q19.95 11.85 20.25 7.2 20.55 2.55 21.6 0.8 L23.95 8.6" fill="none" stroke="#000000" stroke-linecap="round" stroke-linejoin="round" stroke-width="1.0"/>
    <path d="M25.05 11.9 L20.9 12.0 Q20.95 11.5 22.85 7.65 24.75 3.75 27.8 2.5 24.95 11.25 25.05 11.9" fill="#f3e016" fill-rule="evenodd" stroke="none"/>
    <path d="M20.9 12.0 Q20.95 11.5 22.85 7.65 24.75 3.75 27.8 2.5 24.95 11.25 25.05 11.9" fill="none" stroke="#000000" stroke-linecap="round" stroke-linejoin="round" stroke-width="1.0"/>
    <path d="M13.0 35.85 L11.0 33.85 Q9.25 32.0 8.65 29.6 8.6 27.3 10.95 25.9 13.3 24.5 13.65 24.45 13.3 23.75 14.65 18.4 15.95 13.05 22.95 11.75 27.8 11.65 30.3 15.0 32.85 18.4 33.75 21.95 L34.6 25.75 36.8 26.55 Q38.75 27.4 39.75 30.0 40.25 32.75 38.55 34.6 L36.6 36.5 13.0 35.85" fill="#4c8335" fill-rule="evenodd" stroke="none"/>
    <path d="M13.0 35.85 L11.0 33.85 Q9.25 32.0 8.65 29.6 8.6 27.3 10.95 25.9 13.3 24.5 13.65 24.45 13.3 23.75 14.65 18.4 15.95 13.05 22.95 11.75 27.8 11.65 30.3 15.0 32.85 18.4 33.75 21.95 L34.6 25.75 36.8 26.55 Q38.75 27.4 39.75 30.0 40.25 32.75 38.55 34.6 L36.6 36.5" fill="none" stroke="#000000" stroke-linecap="round" stroke-linejoin="round" stroke-width="1.0"/>
    <path d="M11.55 39.8 Q11.5 38.55 11.7 38.3 13.05 37.05 12.35 33.65 L11.45 29.75 37.0 30.55 Q36.5 34.0 37.25 35.7 38.05 37.4 38.7 39.75 38.35 41.3 31.15 41.35 L19.15 40.85 11.75 39.95 Q12.4 38.65 11.9 38.65 L11.55 39.8" fill="#4c8335" fill-rule="evenodd" stroke="none"/>
    <path d="M11.45 29.75 L12.35 33.65 Q13.05 37.05 11.7 38.3 11.5 38.55 11.55 39.8 M38.7 39.75 Q38.05 37.4 37.25 35.7 36.5 34.0 37.0 30.55" fill="none" stroke="#000000" stroke-linecap="round" stroke-linejoin="round" stroke-width="1.0"/>
  </g>
</svg>
