<?xml version="1.0" encoding="UTF-8" standalone="no"?>
<svg xmlns:xlink="http://www.w3.org/1999/xlink" height="42.9px" width="32.2px" xmlns="http://www.w3.org/2000/svg">
  <g transform="matrix(1.0, 0.0, 0.0, 1.0, -8.15, -6.2)">
    <path d="M24.9 17.55 L20.0 18.35 Q19.95 17.75 20.25 13.1 20.55 8.45 21.6 6.7 L24.9 17.55" fill="#f3e016" fill-rule="evenodd" stroke="none"/>
    <path d="M20.0 18.35 Q19.95 17.75 20.25 13.1 20.55 8.45 21.6 6.7 L24.9 17.55" fill="none" stroke="#000000" stroke-linecap="round" stroke-linejoin="round" stroke-width="1.0"/>
    <path d="M26.1 18.45 L21.7 19.0 Q21.7 18.45 23.25 14.15 24.8 9.8 27.95 8.15 25.9 17.75 26.1 18.45" fill="#f3e016" fill-rule="evenodd" stroke="none"/>
    <path d="M21.7 19.0 Q21.7 18.45 23.25 14.15 24.8 9.8 27.95 8.15 25.9 17.75 26.1 18.45" fill="none" stroke="#000000" stroke-linecap="round" stroke-linejoin="round" stroke-width="1.0"/>
    <path d="M13.0 41.55 L11.0 39.55 Q9.25 37.7 8.65 35.3 8.6 33.0 10.95 31.6 13.3 30.2 13.65 30.15 13.3 29.45 14.65 24.1 15.95 18.75 22.95 17.45 27.8 17.35 30.3 20.7 32.85 24.1 33.75 27.65 L34.6 31.45 36.8 32.25 Q38.75 33.1 39.75 35.7 40.25 38.45 38.55 40.3 L36.6 42.2 13.0 41.55" fill="#4c8335" fill-rule="evenodd" stroke="none"/>
    <path d="M13.0 41.55 L11.0 39.55 Q9.25 37.7 8.65 35.3 8.6 33.0 10.95 31.6 13.3 30.2 13.65 30.15 13.3 29.45 14.65 24.1 15.95 18.75 22.95 17.45 27.8 17.35 30.3 20.7 32.85 24.1 33.75 27.65 L34.6 31.45 36.8 32.25 Q38.75 33.1 39.75 35.7 40.25 38.45 38.55 40.3 L36.6 42.2" fill="none" stroke="#000000" stroke-linecap="round" stroke-linejoin="round" stroke-width="1.0"/>
    <path d="M11.55 47.3 Q11.5 45.85 11.7 45.55 13.05 44.1 12.35 40.1 L11.45 35.55 37.0 36.5 Q36.5 40.5 37.25 42.5 38.05 44.5 38.7 47.25 38.35 49.05 31.15 49.1 L19.15 48.5 11.75 47.45 Q12.4 45.95 11.9 45.95 L11.55 47.3" fill="#4c8335" fill-rule="evenodd" stroke="none"/>
    <path d="M11.45 35.55 L12.35 40.1 Q13.05 44.1 11.7 45.55 11.5 45.85 11.55 47.3 M38.7 47.25 Q38.05 44.5 37.25 42.5 36.5 40.5 37.0 36.5" fill="none" stroke="#000000" stroke-linecap="round" stroke-linejoin="round" stroke-width="1.0"/>
  </g>
</svg>
