<?xml version="1.0" encoding="UTF-8" standalone="no"?>
<svg xmlns:xlink="http://www.w3.org/1999/xlink" height="22.3px" width="50.2px" xmlns="http://www.w3.org/2000/svg">
  <g transform="matrix(1.0, 0.0, 0.0, 1.0, 0.5, -46.45)">
    <path d="M9.95 64.05 Q9.35 64.45 9.2 68.25 5.9 64.1 6.4 63.45 L9.95 64.05" fill="#ffffff" fill-rule="evenodd" stroke="none"/>
    <path d="M6.4 63.45 Q5.9 64.1 9.2 68.25 9.35 64.45 9.95 64.05" fill="none" stroke="#000000" stroke-linecap="round" stroke-linejoin="round" stroke-width="1.0"/>
    <path d="M17.65 47.7 L23.95 47.7 23.95 63.45 23.25 63.45 15.3 64.05 Q9.75 64.55 5.35 62.8 0.95 61.1 0.0 54.7 -0.2 49.3 4.1 47.95 8.4 46.6 12.85 47.05 L17.65 47.7" fill="#4c8335" fill-rule="evenodd" stroke="none"/>
    <path d="M17.65 47.7 L12.85 47.05 Q8.4 46.6 4.1 47.95 -0.2 49.3 0.0 54.7 0.95 61.1 5.35 62.8 9.75 64.55 15.3 64.05 L23.25 63.45 23.95 63.45" fill="none" stroke="#000000" stroke-linecap="round" stroke-linejoin="round" stroke-width="1.0"/>
    <path d="M6.7 52.3 Q8.55 51.6 11.0 54.6 13.5 57.6 10.6 59.8 7.2 61.1 6.3 57.5 5.35 53.95 6.7 52.3" fill="#000000" fill-rule="evenodd" stroke="none"/>
    <path d="M42.0 62.9 Q42.5 63.55 39.2 67.7 39.0 63.9 38.4 63.5 L42.0 62.9" fill="#ffffff" fill-rule="evenodd" stroke="none"/>
    <path d="M42.0 62.9 Q42.5 63.55 39.2 67.7 39.0 63.9 38.4 63.5" fill="none" stroke="#000000" stroke-linecap="round" stroke-linejoin="round" stroke-width="1.0"/>
    <path d="M33.2 47.7 L37.8 47.3 Q42.0 47.05 45.9 48.3 49.8 49.55 49.1 54.0 46.15 63.2 39.4 63.6 32.7 64.0 25.2 63.35 L23.95 63.45 23.95 47.7 33.2 47.7" fill="#4c8335" fill-rule="evenodd" stroke="none"/>
    <path d="M23.95 63.45 L25.2 63.35 Q32.7 64.0 39.4 63.6 46.15 63.2 49.1 54.0 49.8 49.55 45.9 48.3 42.0 47.05 37.8 47.3 L33.2 47.7" fill="none" stroke="#000000" stroke-linecap="round" stroke-linejoin="round" stroke-width="1.0"/>
    <path d="M39.55 52.1 Q40.9 53.7 39.95 57.3 39.05 60.85 35.65 59.6 32.75 57.35 35.25 54.4 37.7 51.4 39.55 52.1" fill="#000000" fill-rule="evenodd" stroke="none"/>
  </g>
</svg>
