<?xml version="1.0" encoding="UTF-8" standalone="no"?>
<svg xmlns:xlink="http://www.w3.org/1999/xlink" height="43.35px" width="32.2px" xmlns="http://www.w3.org/2000/svg">
  <g transform="matrix(1.0, 0.0, 0.0, 1.0, -8.15, -4.5)">
    <path d="M25.1 15.85 L20.2 16.65 Q20.15 16.05 20.45 11.4 20.75 6.75 21.8 5.0 L25.1 15.85" fill="#f3e016" fill-rule="evenodd" stroke="none"/>
    <path d="M20.2 16.65 Q20.15 16.05 20.45 11.4 20.75 6.75 21.8 5.0 L25.1 15.85" fill="none" stroke="#000000" stroke-linecap="round" stroke-linejoin="round" stroke-width="1.0"/>
    <path d="M26.1 15.95 L21.95 16.05 Q22.0 15.55 23.9 11.7 25.8 7.8 28.85 6.55 26.0 15.3 26.1 15.95" fill="#f3e016" fill-rule="evenodd" stroke="none"/>
    <path d="M21.95 16.05 Q22.0 15.55 23.9 11.7 25.8 7.8 28.85 6.55 26.0 15.3 26.1 15.95" fill="none" stroke="#000000" stroke-linecap="round" stroke-linejoin="round" stroke-width="1.0"/>
    <path d="M13.0 39.65 L11.0 37.65 Q9.25 35.8 8.65 33.4 8.6 31.1 10.95 29.7 13.3 28.3 13.65 28.25 13.3 27.55 14.65 22.2 15.95 16.85 22.95 15.55 27.8 15.45 30.3 18.8 32.85 22.2 33.75 25.75 L34.6 29.55 36.8 30.35 Q38.75 31.2 39.75 33.8 40.25 36.55 38.55 38.4 L36.6 40.3 13.0 39.65" fill="#4c8335" fill-rule="evenodd" stroke="none"/>
    <path d="M13.0 39.65 L11.0 37.65 Q9.25 35.8 8.65 33.4 8.6 31.1 10.95 29.7 13.3 28.3 13.65 28.25 13.3 27.55 14.65 22.2 15.95 16.85 22.95 15.55 27.8 15.45 30.3 18.8 32.85 22.2 33.75 25.75 L34.6 29.55 36.8 30.35 Q38.75 31.2 39.75 33.8 40.25 36.55 38.55 38.4 L36.6 40.3" fill="none" stroke="#000000" stroke-linecap="round" stroke-linejoin="round" stroke-width="1.0"/>
    <path d="M11.55 45.95 Q11.5 44.4 11.7 44.1 13.05 42.55 12.35 38.4 L11.45 33.65 37.0 34.6 Q36.5 38.85 37.25 40.9 38.05 43.0 38.7 45.85 38.35 47.75 31.15 47.85 L19.15 47.2 11.75 46.1 Q12.4 44.5 11.9 44.5 L11.55 45.95" fill="#4c8335" fill-rule="evenodd" stroke="none"/>
    <path d="M11.45 33.65 L12.35 38.4 Q13.05 42.55 11.7 44.1 11.5 44.4 11.55 45.95 M38.7 45.85 Q38.05 43.0 37.25 40.9 36.5 38.85 37.0 34.6" fill="none" stroke="#000000" stroke-linecap="round" stroke-linejoin="round" stroke-width="1.0"/>
  </g>
</svg>
