<?xml version="1.0" encoding="UTF-8" standalone="no"?>
<svg xmlns:xlink="http://www.w3.org/1999/xlink" height="24.7px" width="50.2px" xmlns="http://www.w3.org/2000/svg">
  <g transform="matrix(1.0, 0.0, 0.0, 1.0, 0.5, -45.0)">
    <path d="M9.95 64.5 Q9.35 64.95 9.2 69.2 5.9 64.6 6.4 63.85 L9.95 64.5" fill="#ffffff" fill-rule="evenodd" stroke="none"/>
    <path d="M6.4 63.85 Q5.9 64.6 9.2 69.2 9.35 64.95 9.95 64.5" fill="none" stroke="#000000" stroke-linecap="round" stroke-linejoin="round" stroke-width="1.0"/>
    <path d="M17.65 46.35 L23.95 46.35 23.95 63.85 23.25 63.9 15.3 64.55 Q9.75 65.1 5.35 63.2 0.95 61.3 0.0 54.15 -0.2 48.15 4.1 46.65 8.4 45.1 12.85 45.6 L17.65 46.35" fill="#4c8335" fill-rule="evenodd" stroke="none"/>
    <path d="M17.65 46.35 L12.85 45.6 Q8.4 45.1 4.1 46.65 -0.2 48.15 0.0 54.15 0.95 61.3 5.35 63.2 9.75 65.1 15.3 64.55 L23.25 63.9 23.95 63.85" fill="none" stroke="#000000" stroke-linecap="round" stroke-linejoin="round" stroke-width="1.0"/>
    <path d="M6.7 51.45 Q8.55 50.7 11.0 54.05 13.5 57.35 10.6 59.8 7.2 61.25 6.3 57.25 5.35 53.3 6.7 51.45" fill="#000000" fill-rule="evenodd" stroke="none"/>
    <path d="M42.0 63.25 Q42.5 64.0 39.2 68.6 39.0 64.35 38.4 63.9 L42.0 63.25" fill="#ffffff" fill-rule="evenodd" stroke="none"/>
    <path d="M42.0 63.25 Q42.5 64.0 39.2 68.6 39.0 64.35 38.4 63.9" fill="none" stroke="#000000" stroke-linecap="round" stroke-linejoin="round" stroke-width="1.0"/>
    <path d="M33.2 46.35 L37.8 45.9 Q42.0 45.6 45.9 47.0 49.8 48.4 49.1 53.35 46.15 63.6 39.4 64.1 32.7 64.5 25.2 63.8 L23.95 63.85 23.95 46.35 33.2 46.35" fill="#4c8335" fill-rule="evenodd" stroke="none"/>
    <path d="M23.95 63.85 L25.2 63.8 Q32.7 64.5 39.4 64.1 46.15 63.6 49.1 53.35 49.8 48.4 45.9 47.0 42.0 45.6 37.8 45.9 L33.2 46.35" fill="none" stroke="#000000" stroke-linecap="round" stroke-linejoin="round" stroke-width="1.0"/>
    <path d="M39.55 51.25 Q40.9 53.05 39.95 57.05 39.05 61.0 35.65 59.55 32.75 57.1 35.25 53.8 37.7 50.45 39.55 51.25" fill="#000000" fill-rule="evenodd" stroke="none"/>
  </g>
</svg>
