<?xml version="1.0" encoding="UTF-8" standalone="no"?>
<svg xmlns:xlink="http://www.w3.org/1999/xlink" height="29.25px" width="32.2px" xmlns="http://www.w3.org/2000/svg">
  <g transform="matrix(1.0, 0.0, 0.0, 1.0, -8.15, -9.1)">
    <path d="M23.95 17.4 L20.0 21.25 Q19.95 20.65 20.25 16.0 20.55 11.35 21.6 9.6 L23.95 17.4" fill="#f3e016" fill-rule="evenodd" stroke="none"/>
    <path d="M20.0 21.25 Q19.95 20.65 20.25 16.0 20.55 11.35 21.6 9.6 L23.95 17.4" fill="none" stroke="#000000" stroke-linecap="round" stroke-linejoin="round" stroke-width="1.0"/>
    <path d="M25.05 20.7 L20.9 20.8 Q20.95 20.3 22.85 16.45 24.75 12.55 27.8 11.3 24.95 20.05 25.05 20.7" fill="#f3e016" fill-rule="evenodd" stroke="none"/>
    <path d="M20.9 20.8 Q20.95 20.3 22.85 16.45 24.75 12.55 27.8 11.3 24.95 20.05 25.05 20.7" fill="none" stroke="#000000" stroke-linecap="round" stroke-linejoin="round" stroke-width="1.0"/>
    <path d="M13.0 35.8 L11.0 34.25 Q9.25 32.8 8.65 30.95 8.6 29.15 10.95 28.05 L13.65 26.95 Q13.3 26.4 14.65 22.25 15.95 18.1 22.95 17.1 27.8 17.0 30.3 19.6 32.85 22.25 33.75 25.0 L34.6 27.95 36.8 28.55 Q38.75 29.25 39.75 31.25 40.25 33.4 38.55 34.8 L36.6 36.3 13.0 35.8" fill="#4c8335" fill-rule="evenodd" stroke="none"/>
    <path d="M13.0 35.8 L11.0 34.25 Q9.25 32.8 8.65 30.95 8.6 29.15 10.95 28.05 L13.65 26.95 Q13.3 26.4 14.65 22.25 15.95 18.1 22.95 17.1 27.8 17.0 30.3 19.6 32.85 22.25 33.75 25.0 L34.6 27.95 36.8 28.55 Q38.75 29.25 39.75 31.25 40.25 33.4 38.55 34.8 L36.6 36.3" fill="none" stroke="#000000" stroke-linecap="round" stroke-linejoin="round" stroke-width="1.0"/>
    <path d="M11.45 28.95 L37.0 29.75 Q36.5 33.2 37.25 34.9 L38.2 36.6 30.85 37.1 17.6 37.75 11.7 37.5 Q13.05 36.25 12.35 32.85 L11.45 28.95" fill="#4c8335" fill-rule="evenodd" stroke="none"/>
    <path d="M11.45 28.95 L12.35 32.85 Q13.05 36.25 11.7 37.5 L17.6 37.75 30.85 37.1 38.2 36.6 37.25 34.9 Q36.5 33.2 37.0 29.75" fill="none" stroke="#000000" stroke-linecap="round" stroke-linejoin="round" stroke-width="1.0"/>
  </g>
</svg>
