<?xml version="1.0" encoding="UTF-8" standalone="no"?>
<svg xmlns:xlink="http://www.w3.org/1999/xlink" height="27.9px" width="32.2px" xmlns="http://www.w3.org/2000/svg">
  <g transform="matrix(1.0, 0.0, 0.0, 1.0, -8.15, -10.7)">
    <path d="M20.0 22.85 Q19.95 22.25 20.25 17.6 20.55 12.95 21.6 11.2 L23.95 19.0 20.0 22.85" fill="#f3e016" fill-rule="evenodd" stroke="none"/>
    <path d="M20.0 22.85 Q19.95 22.25 20.25 17.6 20.55 12.95 21.6 11.2 L23.95 19.0" fill="none" stroke="#000000" stroke-linecap="round" stroke-linejoin="round" stroke-width="1.0"/>
    <path d="M20.9 22.4 Q20.95 21.9 22.85 18.05 24.75 14.15 27.8 12.9 24.95 21.65 25.05 22.3 L20.9 22.4" fill="#f3e016" fill-rule="evenodd" stroke="none"/>
    <path d="M20.9 22.4 Q20.95 21.9 22.85 18.05 24.75 14.15 27.8 12.9 24.95 21.65 25.05 22.3" fill="none" stroke="#000000" stroke-linecap="round" stroke-linejoin="round" stroke-width="1.0"/>
    <path d="M13.0 37.6 L11.0 36.05 Q9.25 34.6 8.65 32.75 8.6 30.95 10.95 29.85 L13.65 28.75 Q13.3 28.2 14.65 24.05 15.95 19.9 22.95 18.9 27.8 18.8 30.3 21.4 32.85 24.05 33.75 26.8 L34.6 29.75 36.8 30.35 Q38.75 31.05 39.75 33.05 40.25 35.2 38.55 36.6 L36.6 38.1 13.0 37.6" fill="#4c8335" fill-rule="evenodd" stroke="none"/>
    <path d="M13.0 37.6 L11.0 36.05 Q9.25 34.6 8.65 32.75 8.6 30.95 10.95 29.85 L13.65 28.75 Q13.3 28.2 14.65 24.05 15.95 19.9 22.95 18.9 27.8 18.8 30.3 21.4 32.85 24.05 33.75 26.8 L34.6 29.75 36.8 30.35 Q38.75 31.05 39.75 33.05 40.25 35.2 38.55 36.6 L36.6 38.1" fill="none" stroke="#000000" stroke-linecap="round" stroke-linejoin="round" stroke-width="1.0"/>
  </g>
</svg>
