<?xml version="1.0" encoding="UTF-8" standalone="no"?>
<svg xmlns:xlink="http://www.w3.org/1999/xlink" height="39.35px" width="170.85px" xmlns="http://www.w3.org/2000/svg">
  <g transform="matrix(1.0, 0.0, 0.0, 1.0, 98.65, 10.8)">
    <path d="M-98.6 9.55 Q-97.3 17.7 -68.0 23.15 -38.7 28.55 -7.5 28.55 23.75 28.55 45.9 22.8 68.05 17.1 68.05 8.9 68.05 0.7 45.9 -5.05 23.75 -10.8 -7.5 -10.75 -38.7 -10.8 -69.3 -4.7 -99.9 1.4 -98.6 9.55" fill="#000000" fill-opacity="0.2901961" fill-rule="evenodd" stroke="none">
      <animate attributeName="fill" dur="2s" repeatCount="indefinite" values="#000000;#000001"/>
      <animate attributeName="fill-opacity" dur="2s" repeatCount="indefinite" values="0.2901961;0.2901961"/>
      <animate attributeName="d" dur="2s" repeatCount="indefinite" values="M-98.6 9.55 Q-97.3 17.7 -68.0 23.15 -38.7 28.55 -7.5 28.55 23.75 28.55 45.9 22.8 68.05 17.1 68.05 8.9 68.05 0.7 45.9 -5.05 23.75 -10.8 -7.5 -10.75 -38.7 -10.8 -69.3 -4.7 -99.9 1.4 -98.6 9.55;M-65.55 7.95 Q-65.55 15.8 -45.35 21.25 -25.15 26.75 3.3 26.75 31.8 26.75 52.0 21.25 72.2 15.8 72.2 8.0 72.2 0.1 52.0 -5.35 31.8 -10.85 3.3 -10.8 -25.15 -10.85 -45.35 -5.35 -65.55 0.15 -65.55 7.95"/>
    </path>
    <path d="M-98.6 9.55 Q-99.9 1.4 -69.3 -4.7 -38.7 -10.8 -7.5 -10.75 23.75 -10.8 45.9 -5.05 68.05 0.7 68.05 8.9 68.05 17.1 45.9 22.8 23.75 28.55 -7.5 28.55 -38.7 28.55 -68.0 23.15 -97.3 17.7 -98.6 9.55" fill="none" stroke="#000000" stroke-linecap="round" stroke-linejoin="round" stroke-opacity="0.0" stroke-width="1.0">
      <animate attributeName="stroke" dur="2s" repeatCount="indefinite" values="#000000;#000001"/>
      <animate attributeName="stroke-width" dur="2s" repeatCount="indefinite" values="0.0;0.0"/>
      <animate attributeName="fill-opacity" dur="2s" repeatCount="indefinite" values="0.0;0.0"/>
      <animate attributeName="d" dur="2s" repeatCount="indefinite" values="M-98.6 9.55 Q-99.9 1.4 -69.3 -4.7 -38.7 -10.8 -7.5 -10.75 23.75 -10.8 45.9 -5.05 68.05 0.7 68.05 8.9 68.05 17.1 45.9 22.8 23.75 28.55 -7.5 28.55 -38.7 28.55 -68.0 23.15 -97.3 17.7 -98.6 9.55;M-65.55 7.95 Q-65.55 0.15 -45.35 -5.35 -25.15 -10.85 3.3 -10.8 31.8 -10.85 52.0 -5.35 72.2 0.1 72.2 8.0 72.2 15.8 52.0 21.25 31.8 26.75 3.3 26.75 -25.15 26.75 -45.35 21.25 -65.55 15.8 -65.55 7.95"/>
    </path>
  </g>
</svg>
