<?xml version="1.0" encoding="UTF-8" standalone="no"?>
<svg xmlns:xlink="http://www.w3.org/1999/xlink" height="38.55px" width="316.3px" xmlns="http://www.w3.org/2000/svg">
  <g transform="matrix(1.0, 0.0, 0.0, 1.0, 108.7, 10.0)">
    <path d="M-108.55 7.1 Q-106.05 15.3 -72.35 21.9 -38.7 28.5 -7.5 28.55 23.75 28.55 45.9 22.9 68.05 17.3 68.05 9.3 68.05 1.2 45.9 -4.45 23.75 -10.05 -7.5 -10.0 -38.7 -10.0 -74.9 -5.55 -111.05 -1.1 -108.55 7.1" fill="#000000" fill-opacity="0.2901961" fill-rule="evenodd" stroke="none">
      <animate attributeName="fill" dur="2s" repeatCount="indefinite" values="#000000;#000001"/>
      <animate attributeName="fill-opacity" dur="2s" repeatCount="indefinite" values="0.2901961;0.2901961"/>
      <animate attributeName="d" dur="2s" repeatCount="indefinite" values="M-108.55 7.1 Q-106.05 15.3 -72.35 21.9 -38.7 28.5 -7.5 28.55 23.75 28.55 45.9 22.9 68.05 17.3 68.05 9.3 68.05 1.2 45.9 -4.45 23.75 -10.05 -7.5 -10.0 -38.7 -10.0 -74.9 -5.55 -111.05 -1.1 -108.55 7.1;M71.85 7.6 Q73.8 13.9 99.65 19.0 125.55 24.05 149.55 24.1 173.55 24.1 190.6 19.75 207.6 15.45 207.6 9.3 207.6 3.05 190.6 -1.25 173.55 -5.55 149.55 -5.55 125.55 -5.55 97.75 -2.1 69.9 1.3 71.85 7.6"/>
    </path>
    <path d="M-108.55 7.1 Q-111.05 -1.1 -74.9 -5.55 -38.7 -10.0 -7.5 -10.0 23.75 -10.05 45.9 -4.45 68.05 1.2 68.05 9.3 68.05 17.3 45.9 22.9 23.75 28.55 -7.5 28.55 -38.7 28.5 -72.35 21.9 -106.05 15.3 -108.55 7.1" fill="none" stroke="#000000" stroke-linecap="round" stroke-linejoin="round" stroke-opacity="0.0" stroke-width="1.0">
      <animate attributeName="stroke" dur="2s" repeatCount="indefinite" values="#000000;#000001"/>
      <animate attributeName="stroke-width" dur="2s" repeatCount="indefinite" values="0.0;0.0"/>
      <animate attributeName="fill-opacity" dur="2s" repeatCount="indefinite" values="0.0;0.0"/>
      <animate attributeName="d" dur="2s" repeatCount="indefinite" values="M-108.55 7.1 Q-111.05 -1.1 -74.9 -5.55 -38.7 -10.0 -7.5 -10.0 23.75 -10.05 45.9 -4.45 68.05 1.2 68.05 9.3 68.05 17.3 45.9 22.9 23.75 28.55 -7.5 28.55 -38.7 28.5 -72.35 21.9 -106.05 15.3 -108.55 7.1;M71.85 7.6 Q69.9 1.3 97.75 -2.1 125.55 -5.55 149.55 -5.55 173.55 -5.55 190.6 -1.25 207.6 3.05 207.6 9.3 207.6 15.45 190.6 19.75 173.55 24.1 149.55 24.1 125.55 24.05 99.65 19.0 73.8 13.9 71.85 7.6"/>
    </path>
  </g>
</svg>
