<?xml version="1.0" encoding="UTF-8" standalone="no"?>
<svg xmlns:xlink="http://www.w3.org/1999/xlink" height="51.95px" width="292.85px" xmlns="http://www.w3.org/2000/svg">
  <g transform="matrix(1.0, 0.0, 0.0, 1.0, -71.7, 5.55)">
    <path d="M71.85 7.6 Q73.8 13.9 99.65 19.0 125.55 24.05 149.55 24.1 173.55 24.1 190.6 19.75 207.6 15.45 207.6 9.3 207.6 3.05 190.6 -1.25 173.55 -5.55 149.55 -5.55 125.55 -5.55 97.75 -2.1 69.9 1.3 71.85 7.6" fill="#000000" fill-opacity="0.2901961" fill-rule="evenodd" stroke="none">
      <animate attributeName="fill" dur="2s" repeatCount="indefinite" values="#000000;#000001"/>
      <animate attributeName="fill-opacity" dur="2s" repeatCount="indefinite" values="0.2901961;0.2901961"/>
      <animate attributeName="d" dur="2s" repeatCount="indefinite" values="M71.85 7.6 Q73.8 13.9 99.65 19.0 125.55 24.05 149.55 24.1 173.55 24.1 190.6 19.75 207.6 15.45 207.6 9.3 207.6 3.05 190.6 -1.25 173.55 -5.55 149.55 -5.55 125.55 -5.55 97.75 -2.1 69.9 1.3 71.85 7.6;M171.0 22.9 Q173.75 31.85 210.65 39.1 247.5 46.35 281.75 46.4 316.0 46.4 340.3 40.2 364.55 34.05 364.55 25.3 364.55 16.4 340.3 10.25 316.0 4.1 281.75 4.15 247.5 4.15 207.9 9.05 168.2 13.9 171.0 22.9"/>
    </path>
    <path d="M71.85 7.6 Q69.9 1.3 97.75 -2.1 125.55 -5.55 149.55 -5.55 173.55 -5.55 190.6 -1.25 207.6 3.05 207.6 9.3 207.6 15.45 190.6 19.75 173.55 24.1 149.55 24.1 125.55 24.05 99.65 19.0 73.8 13.9 71.85 7.6" fill="none" stroke="#000000" stroke-linecap="round" stroke-linejoin="round" stroke-opacity="0.0" stroke-width="1.0">
      <animate attributeName="stroke" dur="2s" repeatCount="indefinite" values="#000000;#000001"/>
      <animate attributeName="stroke-width" dur="2s" repeatCount="indefinite" values="0.0;0.0"/>
      <animate attributeName="fill-opacity" dur="2s" repeatCount="indefinite" values="0.0;0.0"/>
      <animate attributeName="d" dur="2s" repeatCount="indefinite" values="M71.85 7.6 Q69.9 1.3 97.75 -2.1 125.55 -5.55 149.55 -5.55 173.55 -5.55 190.6 -1.25 207.6 3.05 207.6 9.3 207.6 15.45 190.6 19.75 173.55 24.1 149.55 24.1 125.55 24.05 99.65 19.0 73.8 13.9 71.85 7.6;M171.0 22.9 Q168.2 13.9 207.9 9.05 247.5 4.15 281.75 4.15 316.0 4.1 340.3 10.25 364.55 16.4 364.55 25.3 364.55 34.05 340.3 40.2 316.0 46.4 281.75 46.4 247.5 46.35 210.65 39.1 173.75 31.85 171.0 22.9"/>
    </path>
  </g>
</svg>
