<?xml version="1.0" encoding="UTF-8" standalone="no"?>
<svg xmlns:xlink="http://www.w3.org/1999/xlink" height="11.9px" width="22.7px" xmlns="http://www.w3.org/2000/svg">
  <g transform="matrix(1.0, 0.0, 0.0, 1.0, 17.7, -0.25)">
    <path d="M-17.2 1.0 L-8.6 6.7 Q-7.65 6.5 -6.7 6.35 L-2.4 5.5 2.05 4.35 Q4.05 3.7 4.5 3.0 4.6 2.65 2.85 1.95 1.1 1.25 -1.5 0.9 -4.1 1.05 -6.65 1.15 -8.35 1.4 -10.0 1.6 L-15.1 1.05 -17.2 1.0" fill="#ff4200" fill-rule="evenodd" stroke="none">
      <animate attributeName="fill" dur="2s" repeatCount="indefinite" values="#ff4200;#ff4201"/>
      <animate attributeName="fill-opacity" dur="2s" repeatCount="indefinite" values="1.0;1.0"/>
      <animate attributeName="d" dur="2s" repeatCount="indefinite" values="M-17.2 1.0 L-8.6 6.7 Q-7.65 6.5 -6.7 6.35 L-2.4 5.5 2.05 4.35 Q4.05 3.7 4.5 3.0 4.6 2.65 2.85 1.95 1.1 1.25 -1.5 0.9 -4.1 1.05 -6.65 1.15 -8.35 1.4 -10.0 1.6 L-15.1 1.05 -17.2 1.0;M-17.2 1.0 L-11.0 8.5 Q-10.9 9.25 -9.1 9.55 L-4.75 10.2 -0.25 11.2 Q1.0 11.35 2.25 11.5 2.7 11.1 1.35 9.25 -0.05 7.35 -2.35 6.15 -4.7 4.9 -7.3 4.65 -9.3 4.6 -10.6 3.95 L-15.2 1.75 -17.2 1.0"/>
    </path>
    <path d="M-17.2 1.0 L-15.1 1.05 -10.0 1.6 Q-8.35 1.4 -6.65 1.15 -4.1 1.05 -1.5 0.9 1.1 1.25 2.85 1.95 4.6 2.65 4.5 3.0 4.05 3.7 2.05 4.35 L-2.4 5.5 -6.7 6.35 Q-7.65 6.5 -8.6 6.7 L-17.2 1.0 -15.1 1.05 -10.0 1.6 Q-8.35 1.4 -6.65 1.15 -4.1 1.05 -1.5 0.9 1.1 1.25 2.85 1.95 4.6 2.65 4.5 3.0 4.05 3.7 2.05 4.35 L-2.4 5.5 -6.7 6.35 Q-7.65 6.5 -8.6 6.7 L-17.2 1.0" fill="none" stroke="#000000" stroke-linecap="round" stroke-linejoin="round" stroke-width="1.0">
      <animate attributeName="stroke" dur="2s" repeatCount="indefinite" values="#000000;#000001"/>
      <animate attributeName="stroke-width" dur="2s" repeatCount="indefinite" values="1.0;1.0"/>
      <animate attributeName="fill-opacity" dur="2s" repeatCount="indefinite" values="1.0;1.0"/>
      <animate attributeName="d" dur="2s" repeatCount="indefinite" values="M-17.2 1.0 L-15.1 1.05 -10.0 1.6 Q-8.35 1.4 -6.65 1.15 -4.1 1.05 -1.5 0.9 1.1 1.25 2.85 1.95 4.6 2.65 4.5 3.0 4.05 3.7 2.05 4.35 L-2.4 5.5 -6.7 6.35 Q-7.65 6.5 -8.6 6.7 L-17.2 1.0 -15.1 1.05 -10.0 1.6 Q-8.35 1.4 -6.65 1.15 -4.1 1.05 -1.5 0.9 1.1 1.25 2.85 1.95 4.6 2.65 4.5 3.0 4.05 3.7 2.05 4.35 L-2.4 5.5 -6.7 6.35 Q-7.65 6.5 -8.6 6.7 L-17.2 1.0;M-17.2 1.0 L-15.2 1.75 -10.6 3.95 Q-9.3 4.6 -7.3 4.65 -4.7 4.9 -2.35 6.15 -0.05 7.35 1.35 9.25 2.7 11.1 2.25 11.5 1.0 11.35 -0.25 11.2 L-4.75 10.2 -9.1 9.55 Q-10.9 9.25 -11.0 8.5 L-17.2 1.0 -15.2 1.75 -10.6 3.95 Q-9.3 4.6 -7.3 4.65 -4.7 4.9 -2.35 6.15 -0.05 7.35 1.35 9.25 2.7 11.1 2.25 11.5 1.0 11.35 -0.25 11.2 L-4.75 10.2 -9.1 9.55 Q-10.9 9.25 -11.0 8.5 L-17.2 1.0"/>
    </path>
  </g>
</svg>
