<?xml version="1.0" encoding="UTF-8" standalone="no"?>
<svg xmlns:xlink="http://www.w3.org/1999/xlink" height="13.1px" width="38.45px" xmlns="http://www.w3.org/2000/svg">
  <g transform="matrix(1.0, 0.0, 0.0, 1.0, 19.7, 8.8)">
    <path d="M-18.25 0.4 L-8.75 2.95 -6.1 1.3 1.7 2.3 9.55 3.25 Q12.65 3.55 15.7 3.8 17.0 3.65 18.25 3.5 L16.55 2.35 Q14.3 1.35 12.05 0.35 9.0 -0.85 6.0 -2.0 L-0.25 -4.25 Q-2.9 -5.15 -5.5 -6.0 -7.7 -6.65 -11.15 -5.55 -12.75 -4.3 -14.35 -3.1 L-17.1 -0.7 -18.25 0.4" fill="#ff4200" fill-rule="evenodd" stroke="none">
      <animate attributeName="fill" dur="2s" repeatCount="indefinite" values="#ff4200;#ff4201"/>
      <animate attributeName="fill-opacity" dur="2s" repeatCount="indefinite" values="1.0;1.0"/>
      <animate attributeName="d" dur="2s" repeatCount="indefinite" values="M-18.25 0.4 L-8.75 2.95 -6.1 1.3 1.7 2.3 9.55 3.25 Q12.65 3.55 15.7 3.8 17.0 3.65 18.25 3.5 L16.55 2.35 Q14.3 1.35 12.05 0.35 9.0 -0.85 6.0 -2.0 L-0.25 -4.25 Q-2.9 -5.15 -5.5 -6.0 -7.7 -6.65 -11.15 -5.55 -12.75 -4.3 -14.35 -3.1 L-17.1 -0.7 -18.25 0.4;M-19.2 1.55 L-10.05 0.45 -7.05 -0.75 0.5 -1.9 8.25 -3.3 Q11.9 -3.95 15.05 -5.9 18.15 -7.85 18.15 -8.15 L15.7 -7.85 Q13.25 -7.15 10.2 -7.1 7.1 -7.0 3.65 -7.2 L-3.0 -7.6 Q-6.25 -7.85 -7.95 -6.9 -9.65 -5.95 -13.25 -5.0 -15.15 -4.65 -16.35 -2.85 L-18.4 0.2 -19.2 1.55"/>
    </path>
    <path d="M-18.25 0.4 L-17.1 -0.7 -14.35 -3.1 Q-12.75 -4.3 -11.15 -5.55 -7.7 -6.65 -5.5 -6.0 -2.9 -5.15 -0.25 -4.25 L6.0 -2.0 Q9.0 -0.85 12.05 0.35 14.3 1.35 16.55 2.35 L18.25 3.5 Q17.0 3.65 15.7 3.8 12.65 3.55 9.55 3.25 L1.7 2.3 -6.1 1.3 -8.75 2.95 -18.25 0.4 -17.1 -0.7 -14.35 -3.1 Q-12.75 -4.3 -11.15 -5.55 -7.7 -6.65 -5.5 -6.0 -2.9 -5.15 -0.25 -4.25 L6.0 -2.0 Q9.0 -0.85 12.05 0.35 14.3 1.35 16.55 2.35 L18.25 3.5 Q17.0 3.65 15.7 3.8 12.65 3.55 9.55 3.25 L1.7 2.3 -6.1 1.3 -8.75 2.95 -18.25 0.4" fill="none" stroke="#000000" stroke-linecap="round" stroke-linejoin="round" stroke-width="1.0">
      <animate attributeName="stroke" dur="2s" repeatCount="indefinite" values="#000000;#000001"/>
      <animate attributeName="stroke-width" dur="2s" repeatCount="indefinite" values="1.0;1.0"/>
      <animate attributeName="fill-opacity" dur="2s" repeatCount="indefinite" values="1.0;1.0"/>
      <animate attributeName="d" dur="2s" repeatCount="indefinite" values="M-18.25 0.4 L-17.1 -0.7 -14.35 -3.1 Q-12.75 -4.3 -11.15 -5.55 -7.7 -6.65 -5.5 -6.0 -2.9 -5.15 -0.25 -4.25 L6.0 -2.0 Q9.0 -0.85 12.05 0.35 14.3 1.35 16.55 2.35 L18.25 3.5 Q17.0 3.65 15.7 3.8 12.65 3.55 9.55 3.25 L1.7 2.3 -6.1 1.3 -8.75 2.95 -18.25 0.4 -17.1 -0.7 -14.35 -3.1 Q-12.75 -4.3 -11.15 -5.55 -7.7 -6.65 -5.5 -6.0 -2.9 -5.15 -0.25 -4.25 L6.0 -2.0 Q9.0 -0.85 12.05 0.35 14.3 1.35 16.55 2.35 L18.25 3.5 Q17.0 3.65 15.7 3.8 12.65 3.55 9.55 3.25 L1.7 2.3 -6.1 1.3 -8.75 2.95 -18.25 0.4;M-19.2 1.55 L-18.4 0.2 -16.35 -2.85 Q-15.15 -4.65 -13.25 -5.0 -9.65 -5.95 -7.95 -6.9 -6.25 -7.85 -3.0 -7.6 L3.65 -7.2 Q7.1 -7.0 10.2 -7.1 13.25 -7.15 15.7 -7.85 L18.15 -8.15 Q18.15 -7.85 15.05 -5.9 11.9 -3.95 8.25 -3.3 L0.5 -1.9 -7.05 -0.75 -10.05 0.45 -19.2 1.55 -18.4 0.2 -16.35 -2.85 Q-15.15 -4.65 -13.25 -5.0 -9.65 -5.95 -7.95 -6.9 -6.25 -7.85 -3.0 -7.6 L3.65 -7.2 Q7.1 -7.0 10.2 -7.1 13.25 -7.15 15.7 -7.85 L18.15 -8.15 Q18.15 -7.85 15.05 -5.9 11.9 -3.95 8.25 -3.3 L0.5 -1.9 -7.05 -0.75 -10.05 0.45 -19.2 1.55"/>
    </path>
  </g>
</svg>
