<?xml version="1.0" encoding="UTF-8" standalone="no"?>
<svg xmlns:xlink="http://www.w3.org/1999/xlink" height="8.4px" width="37.15px" xmlns="http://www.w3.org/2000/svg">
  <g transform="matrix(1.0, 0.0, 0.0, 1.0, 370.45, -40.7)">
    <path d="M-355.3 45.05 Q-355.3 45.45 -354.2 45.75 L-351.55 46.05 Q-350.2 45.9 -348.9 45.75 -347.8 45.45 -347.8 45.05 -347.8 44.65 -348.9 44.35 L-351.55 44.05 Q-352.9 44.2 -354.2 44.35 -355.3 44.65 -355.3 45.05" fill="#ffffff" fill-rule="evenodd" stroke="none">
      <animate attributeName="fill" dur="2s" repeatCount="indefinite" values="#ffffff;#ffffff"/>
      <animate attributeName="fill-opacity" dur="2s" repeatCount="indefinite" values="1.0;1.0"/>
      <animate attributeName="d" dur="2s" repeatCount="indefinite" values="M-355.3 45.05 Q-355.3 45.45 -354.2 45.75 L-351.55 46.05 Q-350.2 45.9 -348.9 45.75 -347.8 45.45 -347.8 45.05 -347.8 44.65 -348.9 44.35 L-351.55 44.05 Q-352.9 44.2 -354.2 44.35 -355.3 44.65 -355.3 45.05;M-370.4 46.45 Q-371.1 49.65 -363.75 48.95 L-351.55 48.2 Q-346.7 48.2 -340.6 47.0 -334.45 45.8 -333.4 44.45 -332.4 43.1 -339.55 42.55 L-352.35 41.05 Q-358.0 40.1 -363.85 41.7 -369.7 43.25 -370.4 46.45"/>
    </path>
    <path d="M-355.3 45.05 Q-355.3 44.65 -354.2 44.35 -352.9 44.2 -351.55 44.05 L-348.9 44.35 Q-347.8 44.65 -347.8 45.05 -347.8 45.45 -348.9 45.75 -350.2 45.9 -351.55 46.05 L-354.2 45.75 Q-355.3 45.45 -355.3 45.05" fill="none" stroke="#000000" stroke-linecap="round" stroke-linejoin="round" stroke-opacity="0.0" stroke-width="1.0">
      <animate attributeName="stroke" dur="2s" repeatCount="indefinite" values="#000000;#000001"/>
      <animate attributeName="stroke-width" dur="2s" repeatCount="indefinite" values="0.0;0.0"/>
      <animate attributeName="fill-opacity" dur="2s" repeatCount="indefinite" values="0.0;0.0"/>
      <animate attributeName="d" dur="2s" repeatCount="indefinite" values="M-355.3 45.05 Q-355.3 44.65 -354.2 44.35 -352.9 44.2 -351.55 44.05 L-348.9 44.35 Q-347.8 44.65 -347.8 45.05 -347.8 45.45 -348.9 45.75 -350.2 45.9 -351.55 46.05 L-354.2 45.75 Q-355.3 45.45 -355.3 45.05;M-370.4 46.45 Q-369.7 43.25 -363.85 41.7 -358.0 40.1 -352.35 41.05 L-339.55 42.55 Q-332.4 43.1 -333.4 44.45 -334.45 45.8 -340.6 47.0 -346.7 48.2 -351.55 48.2 L-363.75 48.95 Q-371.1 49.65 -370.4 46.45"/>
    </path>
  </g>
</svg>
