<?xml version="1.0" encoding="UTF-8" standalone="no"?>
<svg xmlns:xlink="http://www.w3.org/1999/xlink" height="9.5px" width="16.85px" xmlns="http://www.w3.org/2000/svg">
  <g transform="matrix(1.0, 0.0, 0.0, 1.0, 347.2, -34.9)">
    <path d="M-347.2 43.65 Q-347.0 43.9 -346.85 44.15 -346.35 44.3 -345.9 44.4 -345.45 44.25 -345.0 44.15 -344.8 43.9 -344.6 43.65 -344.8 43.35 -345.0 43.1 -345.45 43.0 -345.9 42.9 -346.4 43.0 -346.85 43.1 -347.05 43.4 -347.2 43.65" fill="#ffffff" fill-rule="evenodd" stroke="none">
      <animate attributeName="fill" dur="2s" repeatCount="indefinite" values="#ffffff;#ffffff"/>
      <animate attributeName="fill-opacity" dur="2s" repeatCount="indefinite" values="1.0;1.0"/>
      <animate attributeName="d" dur="2s" repeatCount="indefinite" values="M-347.2 43.65 Q-347.0 43.9 -346.85 44.15 -346.35 44.3 -345.9 44.4 -345.45 44.25 -345.0 44.15 -344.8 43.9 -344.6 43.65 -344.8 43.35 -345.0 43.1 -345.45 43.0 -345.9 42.9 -346.4 43.0 -346.85 43.1 -347.05 43.4 -347.2 43.65;M-347.2 41.7 Q-347.2 42.8 -345.2 43.5 -342.95 44.4 -339.85 44.4 -336.75 44.4 -334.75 43.5 -332.5 42.8 -330.9 39.8 -329.3 36.8 -332.55 35.65 -335.9 34.5 -341.25 35.15 -346.6 35.8 -345.2 39.7 -347.2 40.6 -347.2 41.7"/>
    </path>
    <path d="M-347.2 43.65 Q-347.05 43.4 -346.85 43.1 -346.4 43.0 -345.9 42.9 -345.45 43.0 -345.0 43.1 -344.8 43.35 -344.6 43.65 -344.8 43.9 -345.0 44.15 -345.45 44.25 -345.9 44.4 -346.35 44.3 -346.85 44.15 -347.0 43.9 -347.2 43.65" fill="none" stroke="#000000" stroke-linecap="round" stroke-linejoin="round" stroke-opacity="0.0" stroke-width="1.0">
      <animate attributeName="stroke" dur="2s" repeatCount="indefinite" values="#000000;#000001"/>
      <animate attributeName="stroke-width" dur="2s" repeatCount="indefinite" values="0.0;0.0"/>
      <animate attributeName="fill-opacity" dur="2s" repeatCount="indefinite" values="0.0;0.0"/>
      <animate attributeName="d" dur="2s" repeatCount="indefinite" values="M-347.2 43.65 Q-347.05 43.4 -346.85 43.1 -346.4 43.0 -345.9 42.9 -345.45 43.0 -345.0 43.1 -344.8 43.35 -344.6 43.65 -344.8 43.9 -345.0 44.15 -345.45 44.25 -345.9 44.4 -346.35 44.3 -346.85 44.15 -347.0 43.9 -347.2 43.65;M-347.2 41.7 Q-347.2 40.6 -345.2 39.7 -346.6 35.8 -341.25 35.15 -335.9 34.5 -332.55 35.65 -329.3 36.8 -330.9 39.8 -332.5 42.8 -334.75 43.5 -336.75 44.4 -339.85 44.4 -342.95 44.4 -345.2 43.5 -347.2 42.8 -347.2 41.7"/>
    </path>
  </g>
</svg>
