<?xml version="1.0" encoding="UTF-8" standalone="no"?>
<svg xmlns:xlink="http://www.w3.org/1999/xlink" height="47.35px" width="32.85px" xmlns="http://www.w3.org/2000/svg">
  <g transform="matrix(1.0, 0.0, 0.0, 1.0, 14.8, 45.95)">
    <path d="M10.75 -14.2 L9.85 -12.6 6.7 -9.5 7.55 -11.1 10.75 -14.2" fill="#577f13" fill-rule="evenodd" stroke="none"/>
    <path d="M7.55 -11.1 L6.7 -9.5 1.45 -10.6 2.3 -12.2 7.55 -11.1" fill="#76ac1a" fill-rule="evenodd" stroke="none"/>
    <path d="M2.3 -12.2 L1.45 -10.6 1.35 -12.9 2.2 -14.5 2.3 -12.2" fill="#507412" fill-rule="evenodd" stroke="none"/>
    <path d="M2.25 -14.5 L10.75 -14.2 7.55 -11.1 2.35 -12.2 2.25 -14.5" fill="#8ccc1f" fill-rule="evenodd" stroke="none"/>
    <path d="M-1.0 -16.7 L2.85 -17.0 2.6 1.1 -1.25 1.4 -1.0 -16.7" fill="#94d631" fill-rule="evenodd" stroke="none"/>
    <path d="M0.1 -27.95 L3.95 -28.25 2.9 -17.0 -0.95 -16.7 0.1 -27.95" fill="#86c02c" fill-rule="evenodd" stroke="none"/>
    <path d="M-1.45 -29.7 L0.05 -28.0 -1.0 -16.75 -1.25 1.35 -2.55 -0.15 -2.4 -17.9 -1.45 -29.7" fill="#59801d" fill-rule="evenodd" stroke="none"/>
    <path d="M5.45 -27.05 L1.35 -25.35 -2.1 -27.9 -1.45 -32.15 2.65 -33.85 6.15 -31.3 5.45 -27.05" fill="#ff7f00" fill-rule="evenodd" stroke="none"/>
    <path d="M2.9 -34.5 L1.75 -33.15 5.7 -43.85 6.85 -45.2 2.9 -34.5" fill="#808000" fill-rule="evenodd" stroke="none"/>
    <path d="M6.05 -31.7 L2.9 -33.8 3.05 -33.8 2.95 -34.5 6.9 -45.2 13.15 -41.55 6.05 -31.7" fill="#f0f000" fill-rule="evenodd" stroke="none"/>
    <path d="M5.75 -31.9 L4.6 -30.55 1.75 -32.4 2.9 -33.75 5.75 -31.9" fill="#808000" fill-rule="evenodd" stroke="none"/>
    <path d="M5.05 -28.5 L3.9 -27.15 4.55 -30.55 5.7 -31.9 5.05 -28.5" fill="#808000" fill-rule="evenodd" stroke="none"/>
    <path d="M-1.0 -33.5 L-2.15 -32.15 -7.35 -42.75 -6.2 -44.1 -1.0 -33.5" fill="#808000" fill-rule="evenodd" stroke="none"/>
    <path d="M16.3 -22.95 L15.15 -21.6 4.2 -26.65 5.35 -28.0 16.3 -22.95" fill="#808000" fill-rule="evenodd" stroke="none"/>
    <path d="M2.9 -33.75 L1.75 -32.4 -1.75 -31.65 -0.6 -33.0 2.9 -33.75" fill="#808000" fill-rule="evenodd" stroke="none"/>
    <path d="M5.0 -28.15 L5.7 -31.85 6.05 -31.65 6.2 -31.9 18.05 -29.75 16.3 -22.95 5.0 -28.15" fill="#f0f000" fill-rule="evenodd" stroke="none"/>
    <path d="M3.1 -33.8 L-0.75 -32.95 -6.2 -44.1 0.6 -45.95 3.1 -33.8" fill="#f0f000" fill-rule="evenodd" stroke="none"/>
    <path d="M-1.8 -29.55 L-2.95 -28.2 -14.8 -31.15 -13.65 -32.5 -1.8 -29.55" fill="#808000" fill-rule="evenodd" stroke="none"/>
    <path d="M-1.55 -29.45 L-1.85 -29.55 -13.7 -32.5 -11.5 -39.15 -1.05 -33.5 -0.8 -32.95 -0.6 -33.0 -1.55 -29.45" fill="#f0f000" fill-rule="evenodd" stroke="none"/>
    <path d="M9.95 -16.95 L8.8 -15.6 2.0 -13.8 3.15 -15.15 9.95 -16.95" fill="#808000" fill-rule="evenodd" stroke="none"/>
    <path d="M3.15 -15.15 L2.0 -13.8 0.3 -25.75 1.45 -27.1 3.15 -15.15" fill="#808000" fill-rule="evenodd" stroke="none"/>
    <path d="M5.05 -28.45 L5.0 -28.15 5.35 -28.0 10.0 -16.95 3.15 -15.15 1.45 -27.1 1.6 -27.3 5.05 -28.45" fill="#f0f000" fill-rule="evenodd" stroke="none"/>
    <path d="M-1.5 -29.65 L1.65 -27.35 1.45 -27.1 -5.0 -17.2 -10.6 -21.8 -1.85 -29.55 -1.55 -29.45 -1.5 -29.65" fill="#f0f000" fill-rule="evenodd" stroke="none"/>
    <path d="M-5.0 -17.25 L-6.15 -15.9 -11.75 -20.5 -10.6 -21.85 -5.0 -17.25" fill="#808000" fill-rule="evenodd" stroke="none"/>
    <path d="M-13.65 -32.5 L-14.8 -31.15 -12.6 -37.8 -11.45 -39.15 -13.65 -32.5" fill="#808000" fill-rule="evenodd" stroke="none"/>
  </g>
</svg>
