<?xml version="1.0" encoding="UTF-8" standalone="no"?>
<svg xmlns:xlink="http://www.w3.org/1999/xlink" height="118.0px" width="210.85px" xmlns="http://www.w3.org/2000/svg">
  <g transform="matrix(1.0, 0.0, 0.0, 1.0, 2.25, 43.0)">
    <path d="M203.8 -13.8 L204.5 -8.6 207.35 -12.95 207.3 -5.4 Q206.05 -4.45 205.35 -4.65 204.65 -4.85 204.3 -5.7 L203.8 -7.4 203.5 -8.75 Q203.7 -7.5 203.15 -6.45 202.55 -5.4 201.6 -5.0 200.7 -4.65 199.8 -5.45 198.9 -6.25 198.45 -8.75 198.2 -6.35 197.55 -5.4 196.85 -4.45 196.0 -4.35 L194.6 -4.5 194.0 -4.8 193.55 -11.3 196.15 -9.15 196.1 -13.5 198.25 -10.35 200.6 -15.8 201.4 -9.45 203.8 -13.8" fill="#6d9726" fill-rule="evenodd" stroke="none"/>
    <path d="M204.8 -4.2 Q203.9 -4.35 203.5 -5.45 203.2 -4.4 201.95 -3.95 L199.55 -3.7 Q198.35 -4.0 198.0 -5.25 197.7 -4.6 196.65 -4.25 195.6 -3.9 194.65 -4.25 193.65 -4.6 193.55 -6.05 L194.35 -11.1 196.55 -6.4 196.85 -11.65 199.65 -8.0 200.1 -14.25 202.1 -8.9 205.0 -13.7 205.5 -8.0 208.6 -10.8 208.6 -9.55 208.45 -7.1 Q208.3 -5.8 207.95 -5.3 L206.6 -4.45 204.8 -4.2" fill="#87d12e" fill-rule="evenodd" stroke="none"/>
    <path d="M58.65 -42.8 L56.5 -1.7 40.5 -2.05 42.55 -43.0 58.65 -42.8" fill="#52330c" fill-rule="evenodd" stroke="none"/>
    <path d="M56.7 -40.3 L55.0 0.8 42.3 0.45 43.9 -40.5 56.7 -40.3" fill="#9c5712" fill-rule="evenodd" stroke="none"/>
    <path d="M54.15 -38.85 L54.15 -36.45 54.15 -30.45 54.0 -22.6 53.6 -14.6 Q53.3 -10.85 52.8 -8.3 52.35 -5.75 51.55 -5.35 50.1 -4.8 49.4 -6.35 48.7 -7.9 48.5 -10.7 48.3 -13.55 48.4 -16.85 L48.65 -23.15 48.7 -28.05 Q48.65 -29.95 48.2 -29.9 47.45 -29.65 47.0 -27.6 46.5 -25.55 46.25 -22.35 45.95 -19.2 45.8 -15.6 L45.5 -8.8 45.2 -3.35 Q45.0 -1.2 44.65 -0.75 44.45 -1.8 44.4 -4.7 L44.55 -11.5 45.05 -19.65 46.05 -27.6 Q46.6 -31.3 47.45 -33.8 48.3 -36.3 49.35 -36.8 49.95 -36.9 50.15 -35.25 L50.4 -30.8 50.3 -24.85 50.15 -18.95 50.35 -14.45 Q50.55 -12.75 51.1 -12.85 51.85 -13.1 52.25 -14.95 L52.8 -19.7 53.05 -25.8 53.2 -31.85 Q53.25 -34.75 53.45 -36.65 53.7 -38.55 54.15 -38.85" fill="#73420a" fill-rule="evenodd" stroke="none"/>
    <path d="M65.4 -42.05 L88.85 -41.9 85.4 0.6 69.4 -2.65 65.4 -42.05" fill="#52330c" fill-rule="evenodd" stroke="none"/>
    <path d="M71.75 -39.9 L85.6 -39.75 83.55 0.6 70.35 0.5 71.75 -39.9" fill="#9c5712" fill-rule="evenodd" stroke="none"/>
    <path d="M82.7 -35.05 L82.8 -36.5 Q83.3 -36.35 83.35 -33.9 L83.05 -27.55 82.25 -19.35 81.3 -11.2 80.5 -4.9 80.15 -2.4 80.15 -4.55 80.0 -9.9 79.8 -16.85 79.4 -23.8 78.9 -29.15 Q78.55 -31.25 78.15 -31.3 77.55 -31.2 77.15 -29.1 76.75 -26.95 76.45 -23.55 L75.9 -16.35 75.45 -9.15 74.85 -3.6 Q74.55 -1.45 74.1 -1.4 73.65 -1.5 73.3 -4.1 73.0 -6.7 72.8 -10.75 72.6 -14.85 72.55 -19.45 72.5 -24.0 72.6 -28.1 L72.9 -34.7 Q73.1 -37.25 73.45 -37.25 L73.55 -35.2 73.6 -30.35 73.65 -24.15 73.75 -17.95 73.9 -13.2 Q73.95 -11.4 74.1 -11.35 74.5 -11.45 74.7 -13.3 L75.1 -18.05 75.4 -24.2 Q75.55 -27.45 75.85 -30.35 76.1 -33.2 76.6 -35.0 77.1 -36.8 77.9 -36.8 78.5 -36.7 79.0 -35.0 L79.85 -30.45 80.4 -24.4 80.7 -18.05 Q81.1 -18.15 81.45 -20.1 L82.05 -24.9 82.45 -30.5 82.7 -35.05" fill="#73420a" fill-rule="evenodd" stroke="none"/>
    <path d="M71.55 -41.7 L69.2 -2.45 56.4 -0.5 57.7 -42.4 71.55 -41.7" fill="#52330c" fill-rule="evenodd" stroke="none"/>
    <path d="M71.55 -39.55 L69.3 1.05 56.1 0.3 57.65 -40.25 71.55 -39.55" fill="#9c5712" fill-rule="evenodd" stroke="none"/>
    <path d="M67.65 -36.95 L67.7 -34.3 67.7 -27.7 67.4 -19.1 66.7 -10.45 Q66.2 -6.4 65.35 -3.85 64.45 -1.3 63.1 -1.2 62.85 -1.3 62.9 -3.35 L63.1 -8.5 63.55 -14.9 63.9 -20.75 63.95 -24.15 Q63.3 -16.6 62.55 -13.6 61.8 -10.6 61.15 -11.05 60.45 -11.55 60.0 -14.4 59.55 -17.25 59.5 -21.45 L59.75 -27.25 60.3 -32.75 60.85 -36.9 61.1 -38.5 61.0 -36.8 60.7 -32.45 60.4 -26.85 60.2 -21.2 60.3 -16.85 Q60.4 -15.15 60.75 -15.05 61.2 -15.1 61.5 -17.25 L62.05 -22.6 62.6 -29.05 Q62.9 -32.25 63.35 -34.4 63.8 -36.55 64.45 -36.6 64.9 -36.5 65.0 -34.4 L65.0 -28.95 64.75 -21.9 64.4 -14.9 64.3 -9.45 Q64.35 -7.35 64.7 -7.3 65.05 -7.4 65.45 -9.5 L66.1 -15.0 66.7 -22.15 67.2 -29.25 67.55 -34.75 67.65 -36.95" fill="#73420a" fill-rule="evenodd" stroke="none"/>
    <path d="M16.35 -42.8 L14.4 -1.7 0.0 -2.05 1.85 -43.0 16.35 -42.8" fill="#52330c" fill-rule="evenodd" stroke="none"/>
    <path d="M14.4 -40.3 L12.7 0.8 0.0 0.45 1.6 -40.5 14.4 -40.3" fill="#9c5712" fill-rule="evenodd" stroke="none"/>
    <path d="M11.85 -38.85 L11.85 -36.45 11.85 -30.45 11.7 -22.6 11.3 -14.6 Q11.0 -10.85 10.5 -8.3 10.05 -5.75 9.25 -5.35 7.8 -4.8 7.1 -6.35 6.4 -7.9 6.2 -10.7 6.0 -13.55 6.1 -16.85 L6.35 -23.15 6.4 -28.05 Q6.35 -29.95 5.9 -29.9 5.15 -29.65 4.7 -27.6 4.2 -25.55 3.95 -22.35 3.65 -19.2 3.5 -15.6 L3.2 -8.8 2.9 -3.35 Q2.7 -1.2 2.35 -0.75 2.15 -1.8 2.1 -4.7 L2.25 -11.5 2.75 -19.65 3.75 -27.6 Q4.3 -31.3 5.15 -33.8 6.0 -36.3 7.05 -36.8 7.65 -36.9 7.85 -35.25 L8.1 -30.8 8.0 -24.85 7.85 -18.95 8.05 -14.45 Q8.25 -12.75 8.8 -12.85 9.55 -13.1 9.95 -14.95 L10.5 -19.7 10.75 -25.8 10.9 -31.85 Q10.95 -34.75 11.15 -36.65 11.4 -38.55 11.85 -38.85" fill="#73420a" fill-rule="evenodd" stroke="none"/>
    <path d="M23.1 -42.05 L43.3 -41.9 40.3 0.6 26.55 -2.65 23.1 -42.05" fill="#52330c" fill-rule="evenodd" stroke="none"/>
    <path d="M29.4 -39.9 L43.25 -39.75 41.2 0.6 28.0 0.5 29.4 -39.9" fill="#9c5712" fill-rule="evenodd" stroke="none"/>
    <path d="M40.35 -35.05 L40.45 -36.5 Q40.95 -36.35 41.0 -33.9 L40.7 -27.55 39.9 -19.35 38.95 -11.2 38.15 -4.9 37.8 -2.4 37.8 -4.55 37.65 -9.9 37.45 -16.85 37.05 -23.8 36.55 -29.15 Q36.2 -31.25 35.8 -31.3 35.2 -31.2 34.8 -29.1 34.4 -26.95 34.1 -23.55 L33.55 -16.35 33.1 -9.15 32.5 -3.6 Q32.2 -1.45 31.75 -1.4 31.3 -1.5 30.95 -4.1 30.65 -6.7 30.45 -10.75 30.25 -14.85 30.2 -19.45 30.15 -24.0 30.25 -28.1 L30.55 -34.7 Q30.75 -37.25 31.1 -37.25 L31.2 -35.2 31.25 -30.35 31.3 -24.15 31.4 -17.95 31.55 -13.2 Q31.6 -11.4 31.75 -11.35 32.15 -11.45 32.35 -13.3 L32.75 -18.05 33.05 -24.2 Q33.2 -27.45 33.5 -30.35 33.75 -33.2 34.25 -35.0 34.75 -36.8 35.55 -36.8 36.15 -36.7 36.65 -35.0 L37.5 -30.45 38.05 -24.4 38.35 -18.05 Q38.75 -18.15 39.1 -20.1 L39.7 -24.9 40.1 -30.5 40.35 -35.05" fill="#73420a" fill-rule="evenodd" stroke="none"/>
    <path d="M29.2 -41.7 L26.85 -2.45 14.05 -0.5 15.35 -42.4 29.2 -41.7" fill="#52330c" fill-rule="evenodd" stroke="none"/>
    <path d="M29.2 -39.55 L26.95 1.05 13.75 0.3 15.3 -40.25 29.2 -39.55" fill="#9c5712" fill-rule="evenodd" stroke="none"/>
    <path d="M25.3 -36.95 L25.35 -34.3 25.35 -27.7 25.05 -19.1 24.35 -10.45 Q23.85 -6.4 23.0 -3.85 22.1 -1.3 20.75 -1.2 20.5 -1.3 20.55 -3.35 L20.75 -8.5 21.2 -14.9 21.55 -20.75 21.6 -24.15 Q20.95 -16.6 20.2 -13.6 19.45 -10.6 18.8 -11.05 18.1 -11.55 17.65 -14.4 17.2 -17.25 17.15 -21.45 L17.4 -27.25 17.95 -32.75 18.5 -36.9 18.75 -38.5 18.65 -36.8 18.35 -32.45 18.05 -26.85 17.85 -21.2 17.95 -16.85 Q18.05 -15.15 18.4 -15.05 18.85 -15.1 19.15 -17.25 L19.7 -22.6 20.25 -29.05 Q20.55 -32.25 21.0 -34.4 21.45 -36.55 22.1 -36.6 22.55 -36.5 22.65 -34.4 L22.65 -28.95 22.4 -21.9 22.05 -14.9 21.95 -9.45 Q22.0 -7.35 22.35 -7.3 22.7 -7.4 23.1 -9.5 L23.75 -15.0 24.35 -22.15 24.85 -29.25 25.2 -34.75 25.3 -36.95" fill="#73420a" fill-rule="evenodd" stroke="none"/>
    <path d="M144.15 -41.05 L142.0 0.05 126.0 -0.3 128.05 -41.25 144.15 -41.05" fill="#52330c" fill-rule="evenodd" stroke="none"/>
    <path d="M142.2 -38.55 L140.5 2.55 127.8 2.2 129.4 -38.75 142.2 -38.55" fill="#9c5712" fill-rule="evenodd" stroke="none"/>
    <path d="M139.65 -37.1 L139.65 -34.7 139.65 -28.7 139.5 -20.85 139.1 -12.85 Q138.8 -9.1 138.3 -6.55 137.85 -4.0 137.05 -3.6 135.6 -3.05 134.9 -4.6 134.2 -6.15 134.0 -8.95 133.8 -11.8 133.9 -15.1 L134.15 -21.4 134.2 -26.3 Q134.15 -28.2 133.7 -28.15 132.95 -27.9 132.5 -25.85 132.0 -23.8 131.75 -20.6 131.45 -17.45 131.3 -13.85 L131.0 -7.05 130.7 -1.6 Q130.5 0.55 130.15 1.0 129.95 -0.05 129.9 -2.95 L130.05 -9.75 130.55 -17.9 131.55 -25.85 Q132.1 -29.55 132.95 -32.05 133.8 -34.55 134.85 -35.05 135.45 -35.15 135.65 -33.5 L135.9 -29.05 135.8 -23.1 135.65 -17.2 135.85 -12.7 Q136.05 -11.0 136.6 -11.1 137.35 -11.35 137.75 -13.2 L138.3 -17.95 138.55 -24.05 138.7 -30.1 Q138.75 -33.0 138.95 -34.9 139.2 -36.8 139.65 -37.1" fill="#73420a" fill-rule="evenodd" stroke="none"/>
    <path d="M150.9 -40.3 L171.1 -40.15 168.1 2.35 154.35 -0.9 150.9 -40.3" fill="#52330c" fill-rule="evenodd" stroke="none"/>
    <path d="M157.25 -38.15 L171.1 -38.0 169.05 2.35 155.85 2.25 157.25 -38.15" fill="#9c5712" fill-rule="evenodd" stroke="none"/>
    <path d="M168.2 -33.3 L168.3 -34.75 Q168.8 -34.6 168.85 -32.15 L168.55 -25.8 167.75 -17.6 166.8 -9.45 166.0 -3.15 165.65 -0.65 165.65 -2.8 165.5 -8.15 165.3 -15.1 164.9 -22.05 164.4 -27.4 Q164.05 -29.5 163.65 -29.55 163.05 -29.45 162.65 -27.35 162.25 -25.2 161.95 -21.8 L161.4 -14.6 160.95 -7.4 160.35 -1.85 Q160.05 0.3 159.6 0.35 159.15 0.25 158.8 -2.35 158.5 -4.95 158.3 -9.0 158.1 -13.1 158.05 -17.7 158.0 -22.25 158.1 -26.35 L158.4 -32.95 Q158.6 -35.5 158.95 -35.5 L159.05 -33.45 159.1 -28.6 159.15 -22.4 159.25 -16.2 159.4 -11.45 Q159.45 -9.65 159.6 -9.6 160.0 -9.7 160.2 -11.55 L160.6 -16.3 160.9 -22.45 Q161.05 -25.7 161.35 -28.6 161.6 -31.45 162.1 -33.25 162.6 -35.05 163.4 -35.05 164.0 -34.95 164.5 -33.25 L165.35 -28.7 165.9 -22.65 166.2 -16.3 Q166.6 -16.4 166.95 -18.35 L167.55 -23.15 167.95 -28.75 168.2 -33.3" fill="#73420a" fill-rule="evenodd" stroke="none"/>
    <path d="M157.05 -39.95 L154.7 -0.7 141.9 1.25 143.2 -40.65 157.05 -39.95" fill="#52330c" fill-rule="evenodd" stroke="none"/>
    <path d="M157.05 -37.8 L154.8 2.8 141.6 2.05 143.15 -38.5 157.05 -37.8" fill="#9c5712" fill-rule="evenodd" stroke="none"/>
    <path d="M153.15 -35.2 L153.2 -32.55 153.2 -25.95 152.9 -17.35 152.2 -8.7 Q151.7 -4.65 150.85 -2.1 149.95 0.45 148.6 0.55 148.35 0.45 148.4 -1.6 L148.6 -6.75 149.05 -13.15 149.4 -19.0 149.45 -22.4 Q148.8 -14.85 148.05 -11.85 147.3 -8.85 146.65 -9.3 145.95 -9.8 145.5 -12.65 145.05 -15.5 145.0 -19.7 L145.25 -25.5 145.8 -31.0 146.35 -35.15 146.6 -36.75 146.5 -35.05 146.2 -30.7 145.9 -25.1 145.7 -19.45 145.8 -15.1 Q145.9 -13.4 146.25 -13.3 146.7 -13.35 147.0 -15.5 L147.55 -20.85 148.1 -27.3 Q148.4 -30.5 148.85 -32.65 149.3 -34.8 149.95 -34.85 150.4 -34.75 150.5 -32.65 L150.5 -27.2 150.25 -20.15 149.9 -13.15 149.8 -7.7 Q149.85 -5.6 150.2 -5.55 150.55 -5.65 150.95 -7.75 L151.6 -13.25 152.2 -20.4 152.7 -27.5 153.05 -33.0 153.15 -35.2" fill="#73420a" fill-rule="evenodd" stroke="none"/>
    <path d="M101.85 -41.05 L99.9 0.05 85.5 -0.3 87.35 -41.25 101.85 -41.05" fill="#52330c" fill-rule="evenodd" stroke="none"/>
    <path d="M99.9 -38.55 L98.2 2.55 85.5 2.2 87.1 -38.75 99.9 -38.55" fill="#9c5712" fill-rule="evenodd" stroke="none"/>
    <path d="M97.35 -37.1 L97.35 -34.7 97.35 -28.7 97.2 -20.85 96.8 -12.85 Q96.5 -9.1 96.0 -6.55 95.55 -4.0 94.75 -3.6 93.3 -3.05 92.6 -4.6 91.9 -6.15 91.7 -8.95 91.5 -11.8 91.6 -15.1 L91.85 -21.4 91.9 -26.3 Q91.85 -28.2 91.4 -28.15 90.65 -27.9 90.2 -25.85 89.7 -23.8 89.45 -20.6 89.15 -17.45 89.0 -13.85 L88.7 -7.05 88.4 -1.6 Q88.2 0.55 87.85 1.0 87.65 -0.05 87.6 -2.95 L87.75 -9.75 88.25 -17.9 89.25 -25.85 Q89.8 -29.55 90.65 -32.05 91.5 -34.55 92.55 -35.05 93.15 -35.15 93.35 -33.5 L93.6 -29.05 93.5 -23.1 93.35 -17.2 93.55 -12.7 Q93.75 -11.0 94.3 -11.1 95.05 -11.35 95.45 -13.2 L96.0 -17.95 96.25 -24.05 96.4 -30.1 Q96.45 -33.0 96.65 -34.9 96.9 -36.8 97.35 -37.1" fill="#73420a" fill-rule="evenodd" stroke="none"/>
    <path d="M108.6 -40.3 L128.8 -40.15 125.8 2.35 112.05 -0.9 108.6 -40.3" fill="#52330c" fill-rule="evenodd" stroke="none"/>
    <path d="M114.9 -38.15 L128.75 -38.0 126.7 2.35 113.5 2.25 114.9 -38.15" fill="#9c5712" fill-rule="evenodd" stroke="none"/>
    <path d="M125.85 -33.3 L125.95 -34.75 Q126.45 -34.6 126.5 -32.15 L126.2 -25.8 125.4 -17.6 124.45 -9.45 123.65 -3.15 123.3 -0.65 123.3 -2.8 123.15 -8.15 122.95 -15.1 122.55 -22.05 122.05 -27.4 Q121.7 -29.5 121.3 -29.55 120.7 -29.45 120.3 -27.35 119.9 -25.2 119.6 -21.8 L119.05 -14.6 118.6 -7.4 118.0 -1.85 Q117.7 0.3 117.25 0.35 116.8 0.25 116.45 -2.35 116.15 -4.95 115.95 -9.0 115.75 -13.1 115.7 -17.7 115.65 -22.25 115.75 -26.35 L116.05 -32.95 Q116.25 -35.5 116.6 -35.5 L116.7 -33.45 116.75 -28.6 116.8 -22.4 116.9 -16.2 117.05 -11.45 Q117.1 -9.65 117.25 -9.6 117.65 -9.7 117.85 -11.55 L118.25 -16.3 118.55 -22.45 Q118.7 -25.7 119.0 -28.6 119.25 -31.45 119.75 -33.25 120.25 -35.05 121.05 -35.05 121.65 -34.95 122.15 -33.25 L123.0 -28.7 123.55 -22.65 123.85 -16.3 Q124.25 -16.4 124.6 -18.35 L125.2 -23.15 125.6 -28.75 125.85 -33.3" fill="#73420a" fill-rule="evenodd" stroke="none"/>
    <path d="M114.7 -39.95 L112.35 -0.7 99.55 1.25 100.85 -40.65 114.7 -39.95" fill="#52330c" fill-rule="evenodd" stroke="none"/>
    <path d="M114.7 -37.8 L112.45 2.8 99.25 2.05 100.8 -38.5 114.7 -37.8" fill="#9c5712" fill-rule="evenodd" stroke="none"/>
    <path d="M110.8 -35.2 L110.85 -32.55 110.85 -25.95 110.55 -17.35 109.85 -8.7 Q109.35 -4.65 108.5 -2.1 107.6 0.45 106.25 0.55 106.0 0.45 106.05 -1.6 L106.25 -6.75 106.7 -13.15 107.05 -19.0 107.1 -22.4 Q106.45 -14.85 105.7 -11.85 104.95 -8.85 104.3 -9.3 103.6 -9.8 103.15 -12.65 102.7 -15.5 102.65 -19.7 L102.9 -25.5 103.45 -31.0 104.0 -35.15 104.25 -36.75 104.15 -35.05 103.85 -30.7 103.55 -25.1 103.35 -19.45 103.45 -15.1 Q103.55 -13.4 103.9 -13.3 104.35 -13.35 104.65 -15.5 L105.2 -20.85 105.75 -27.3 Q106.05 -30.5 106.5 -32.65 106.95 -34.8 107.6 -34.85 108.05 -34.75 108.15 -32.65 L108.15 -27.2 107.9 -20.15 107.55 -13.15 107.45 -7.7 Q107.5 -5.6 107.85 -5.55 108.2 -5.65 108.6 -7.75 L109.25 -13.25 109.85 -20.4 110.35 -27.5 110.7 -33.0 110.8 -35.2" fill="#73420a" fill-rule="evenodd" stroke="none"/>
    <path d="M185.0 -39.5 L183.05 1.6 168.65 1.25 170.5 -39.7 185.0 -39.5" fill="#52330c" fill-rule="evenodd" stroke="none"/>
    <path d="M183.05 -36.95 L181.35 4.15 168.65 3.8 170.25 -37.15 183.05 -36.95" fill="#9c5712" fill-rule="evenodd" stroke="none"/>
    <path d="M180.5 -35.55 L180.5 -33.15 180.5 -27.15 180.35 -19.3 179.95 -11.3 Q179.65 -7.55 179.15 -5.0 178.7 -2.45 177.9 -2.05 176.45 -1.5 175.75 -3.05 175.05 -4.6 174.85 -7.4 174.65 -10.25 174.75 -13.55 L175.0 -19.85 175.05 -24.75 Q175.0 -26.65 174.55 -26.6 173.8 -26.35 173.35 -24.3 172.85 -22.25 172.6 -19.05 172.3 -15.9 172.15 -12.3 L171.85 -5.5 171.55 -0.05 Q171.35 2.1 171.0 2.55 170.8 1.5 170.75 -1.4 L170.9 -8.2 171.4 -16.35 172.4 -24.3 Q172.95 -28.0 173.8 -30.5 174.65 -33.0 175.7 -33.5 176.3 -33.6 176.5 -31.95 L176.75 -27.5 176.65 -21.55 176.5 -15.65 176.7 -11.15 Q176.9 -9.45 177.45 -9.55 178.2 -9.8 178.6 -11.65 L179.15 -16.4 179.4 -22.5 179.55 -28.55 Q179.6 -31.45 179.8 -33.35 180.05 -35.25 180.5 -35.55" fill="#73420a" fill-rule="evenodd" stroke="none"/>
    <path d="M197.85 -38.35 L195.5 0.9 182.7 2.85 184.0 -39.05 197.85 -38.35" fill="#52330c" fill-rule="evenodd" stroke="none"/>
    <path d="M197.9 -36.2 L195.65 4.4 182.45 3.65 184.0 -36.9 197.9 -36.2" fill="#9c5712" fill-rule="evenodd" stroke="none"/>
    <path d="M193.95 -33.6 L194.0 -30.95 194.0 -24.35 193.7 -15.75 193.0 -7.1 Q192.5 -3.05 191.65 -0.5 190.75 2.05 189.4 2.15 189.15 2.05 189.2 0.0 L189.4 -5.15 189.85 -11.55 190.2 -17.4 190.25 -20.8 Q189.6 -13.25 188.85 -10.25 188.1 -7.25 187.45 -7.7 186.75 -8.2 186.3 -11.05 185.85 -13.9 185.8 -18.1 L186.05 -23.9 186.6 -29.4 187.15 -33.55 187.4 -35.15 187.3 -33.45 187.0 -29.1 186.7 -23.5 186.5 -17.85 186.6 -13.5 Q186.7 -11.8 187.05 -11.7 187.5 -11.75 187.8 -13.9 L188.35 -19.25 188.9 -25.7 Q189.2 -28.9 189.65 -31.05 190.1 -33.2 190.75 -33.25 191.2 -33.15 191.3 -31.05 L191.3 -25.6 191.05 -18.55 190.7 -11.55 190.6 -6.1 Q190.65 -4.0 191.0 -3.95 191.35 -4.05 191.75 -6.15 L192.4 -11.65 193.0 -18.8 193.5 -25.9 193.85 -31.4 193.95 -33.6" fill="#73420a" fill-rule="evenodd" stroke="none"/>
    <path d="M21.45 25.2 L21.85 -19.8 Q26.6 -15.25 31.3 -10.75 L30.8 34.35 21.45 25.2" fill="#52330c" fill-rule="evenodd" stroke="none"/>
    <path d="M22.55 29.05 L22.7 -16.2 30.15 -8.95 30.0 36.35 22.55 29.05" fill="#9c5712" fill-rule="evenodd" stroke="none"/>
    <path d="M28.8 -6.05 L28.9 0.7 28.95 9.45 28.9 18.2 28.55 24.9 Q28.3 27.5 27.9 27.55 27.05 27.4 26.6 25.25 26.15 23.15 26.0 19.85 L25.8 12.85 25.8 5.9 25.8 0.45 Q25.7 -1.7 25.45 -1.9 25.0 -2.05 24.8 0.0 24.55 2.05 24.45 5.5 L24.3 12.85 24.3 20.35 24.2 26.25 23.95 28.95 23.7 24.35 23.65 16.8 23.8 7.9 24.2 -0.5 Q24.5 -4.4 24.95 -6.75 25.35 -9.1 26.0 -9.05 26.35 -8.85 26.5 -6.85 L26.7 -1.7 26.75 4.85 26.8 11.5 27.0 16.65 Q27.15 18.65 27.45 18.85 27.9 19.0 28.1 17.1 L28.35 12.05 28.35 5.35 28.3 -1.4 28.4 -6.65 Q28.45 -8.7 28.75 -8.75 L28.8 -6.05" fill="#73420a" fill-rule="evenodd" stroke="none"/>
    <path d="M35.25 -6.2 L47.05 5.0 46.15 51.2 38.05 40.05 35.25 -6.2" fill="#52330c" fill-rule="evenodd" stroke="none"/>
    <path d="M38.95 -0.3 L47.1 7.45 46.65 51.75 38.95 44.45 38.95 -0.3" fill="#9c5712" fill-rule="evenodd" stroke="none"/>
    <path d="M40.05 3.6 L40.1 6.0 40.25 11.45 40.4 18.5 40.55 25.5 40.75 30.9 40.9 33.15 Q41.15 33.25 41.25 31.3 L41.35 26.1 41.4 19.35 41.55 12.7 Q41.65 9.65 41.9 7.85 42.15 6.1 42.65 6.55 43.0 7.0 43.3 9.2 L43.9 14.75 44.35 21.9 44.65 29.2 Q44.9 29.3 45.05 27.3 L45.3 22.25 45.45 16.15 45.5 11.2 45.5 9.6 Q45.8 10.0 45.85 12.8 L45.8 19.75 45.5 28.55 45.15 37.25 44.8 43.85 44.65 46.5 44.55 44.1 44.4 38.0 44.15 30.05 43.8 22.05 43.35 15.7 42.9 12.9 Q42.55 12.65 42.35 14.85 L42.05 20.7 41.9 28.5 41.75 36.3 41.5 42.25 Q41.35 44.45 41.1 44.3 40.85 44.05 40.65 41.65 L40.3 35.6 40.0 27.55 39.8 18.85 39.7 11.05 39.8 5.5 Q39.85 3.45 40.05 3.6" fill="#73420a" fill-rule="evenodd" stroke="none"/>
    <path d="M30.75 35.65 L30.7 -10.8 38.85 -2.4 38.2 40.45 30.75 35.65" fill="#52330c" fill-rule="evenodd" stroke="none"/>
    <path d="M30.65 36.45 L30.75 -8.35 38.9 0.05 38.4 44.5 30.65 36.45" fill="#9c5712" fill-rule="evenodd" stroke="none"/>
    <path d="M32.8 -4.55 L32.75 -2.7 32.65 2.05 32.6 8.2 32.6 14.45 32.75 19.35 Q32.85 21.35 33.05 21.65 33.25 21.85 33.35 20.25 L33.55 16.0 33.75 10.35 33.95 4.75 34.25 0.65 Q34.45 -0.9 34.8 -0.6 35.05 -0.25 35.15 2.2 L35.25 8.35 35.2 16.1 35.2 23.85 Q35.15 27.5 35.25 29.85 35.3 32.25 35.5 32.5 L35.85 30.45 36.15 24.65 36.4 16.95 36.55 9.2 36.6 3.2 36.65 0.8 36.7 3.05 36.8 8.8 36.85 16.55 36.8 24.9 36.45 32.35 Q36.2 35.65 35.75 37.35 35.35 39.1 34.65 38.5 L34.5 36.0 34.55 30.3 34.65 23.3 34.75 16.95 34.75 13.15 34.25 22.85 Q34.0 26.0 33.65 26.45 33.3 26.85 33.0 25.2 L32.45 20.55 32.15 13.75 Q32.1 10.55 32.2 7.35 L32.4 1.45 32.65 -2.85 32.8 -4.55" fill="#73420a" fill-rule="evenodd" stroke="none"/>
    <path d="M-2.25 3.05 L-1.95 -42.05 6.5 -33.85 6.2 11.35 -2.25 3.05" fill="#52330c" fill-rule="evenodd" stroke="none"/>
    <path d="M-2.2 5.9 L-2.05 -39.35 5.45 -32.1 5.25 13.2 -2.2 5.9" fill="#9c5712" fill-rule="evenodd" stroke="none"/>
    <path d="M4.05 -29.25 L4.15 -22.5 4.2 -13.75 4.15 -5.0 3.8 1.7 Q3.55 4.3 3.15 4.35 2.3 4.2 1.85 2.05 1.4 -0.05 1.25 -3.35 L1.05 -10.35 1.05 -17.3 1.05 -22.75 Q0.95 -24.9 0.7 -25.1 0.25 -25.25 0.05 -23.2 L-0.3 -17.7 -0.45 -10.35 -0.45 -2.85 -0.55 3.1 -0.8 5.75 -1.05 1.15 -1.1 -6.4 -0.95 -15.3 -0.55 -23.7 0.15 -29.95 Q0.6 -32.3 1.25 -32.25 1.6 -32.05 1.75 -30.05 L1.95 -24.9 2.0 -18.35 2.05 -11.7 2.25 -6.55 Q2.4 -4.55 2.7 -4.35 3.15 -4.2 3.35 -6.1 L3.6 -11.15 3.6 -17.85 3.55 -24.6 3.65 -29.85 Q3.7 -31.9 4.0 -31.95 L4.05 -29.25" fill="#73420a" fill-rule="evenodd" stroke="none"/>
    <path d="M10.5 -29.35 L22.3 -18.15 21.4 28.05 13.3 16.9 10.5 -29.35" fill="#52330c" fill-rule="evenodd" stroke="none"/>
    <path d="M14.2 -23.5 L22.35 -15.75 21.9 28.55 14.2 21.25 14.2 -23.5" fill="#9c5712" fill-rule="evenodd" stroke="none"/>
    <path d="M15.3 -19.55 L15.35 -17.15 15.5 -11.7 15.65 -4.65 15.8 2.35 16.0 7.75 16.15 10.0 Q16.4 10.1 16.5 8.15 L16.6 2.95 16.65 -3.8 16.8 -10.45 Q16.9 -13.5 17.15 -15.25 17.4 -17.0 17.9 -16.55 18.25 -16.15 18.55 -13.95 L19.15 -8.4 19.6 -1.3 19.9 6.05 Q20.15 6.15 20.3 4.15 L20.55 -0.9 20.7 -7.0 20.75 -11.95 20.75 -13.55 Q21.05 -13.15 21.1 -10.35 L21.05 -3.4 20.75 5.4 20.4 14.1 20.05 20.7 19.9 23.35 19.8 20.95 19.65 14.85 19.4 6.9 19.05 -1.1 18.6 -7.45 18.15 -10.25 Q17.8 -10.5 17.6 -8.3 L17.3 -2.45 17.15 5.35 17.0 13.15 16.75 19.1 Q16.6 21.3 16.35 21.15 16.1 20.9 15.9 18.5 L15.55 12.45 15.25 4.4 15.05 -4.3 14.95 -12.1 15.05 -17.65 Q15.1 -19.7 15.3 -19.55" fill="#73420a" fill-rule="evenodd" stroke="none"/>
    <path d="M6.0 12.5 L5.95 -33.95 14.1 -25.55 13.45 17.3 6.0 12.5" fill="#52330c" fill-rule="evenodd" stroke="none"/>
    <path d="M5.9 13.25 L6.0 -31.55 14.15 -23.15 13.65 21.3 5.9 13.25" fill="#9c5712" fill-rule="evenodd" stroke="none"/>
    <path d="M8.05 -27.7 L8.0 -25.85 7.9 -21.1 7.85 -14.95 7.85 -8.7 8.0 -3.8 Q8.1 -1.8 8.3 -1.5 8.5 -1.3 8.6 -2.9 L8.8 -7.15 9.0 -12.8 9.2 -18.4 9.5 -22.5 Q9.7 -24.05 10.05 -23.75 10.3 -23.4 10.4 -20.95 L10.5 -14.8 10.45 -7.05 10.45 0.7 Q10.4 4.35 10.5 6.7 10.55 9.1 10.75 9.35 10.95 9.5 11.1 7.3 L11.4 1.5 11.65 -6.2 11.8 -13.95 11.85 -19.95 11.9 -22.35 11.95 -20.1 12.05 -14.35 12.1 -6.6 12.05 1.75 11.7 9.2 Q11.45 12.5 11.0 14.2 10.6 15.95 9.9 15.35 L9.75 12.85 9.8 7.15 9.9 0.15 10.0 -6.2 10.0 -10.0 9.5 -0.3 Q9.25 2.85 8.9 3.3 8.55 3.7 8.25 2.05 L7.7 -2.6 7.4 -9.4 Q7.35 -12.6 7.45 -15.8 L7.65 -21.7 7.9 -26.0 8.05 -27.7" fill="#73420a" fill-rule="evenodd" stroke="none"/>
    <path d="M46.95 49.45 L47.25 4.35 55.7 12.55 55.4 57.75 46.95 49.45" fill="#52330c" fill-rule="evenodd" stroke="none"/>
    <path d="M47.0 52.3 L47.15 7.05 54.65 14.3 54.45 59.6 47.0 52.3" fill="#9c5712" fill-rule="evenodd" stroke="none"/>
    <path d="M53.25 17.2 L53.35 23.95 53.4 32.7 53.35 41.45 53.0 48.15 Q52.75 50.75 52.35 50.8 51.5 50.65 51.05 48.5 50.6 46.4 50.45 43.1 L50.25 36.1 50.25 29.15 50.2 23.7 Q50.15 21.55 49.9 21.35 49.45 21.2 49.25 23.25 49.0 25.3 48.9 28.75 L48.75 36.1 48.75 43.6 48.65 49.55 48.4 52.2 48.15 47.6 48.1 40.05 48.25 31.15 48.65 22.75 Q48.95 18.85 49.4 16.5 49.8 14.15 50.45 14.2 50.8 14.4 50.95 16.4 L51.15 21.55 51.2 28.1 51.25 34.75 51.45 39.9 Q51.6 41.9 51.9 42.1 52.35 42.25 52.55 40.35 L52.8 35.3 52.8 28.6 52.75 21.85 52.85 16.6 Q52.9 14.55 53.2 14.5 L53.25 17.2" fill="#73420a" fill-rule="evenodd" stroke="none"/>
    <path d="M59.7 17.05 L71.5 28.25 70.6 74.45 62.5 63.3 59.7 17.05" fill="#52330c" fill-rule="evenodd" stroke="none"/>
    <path d="M63.4 22.95 L71.55 30.7 71.1 75.0 63.4 67.7 63.4 22.95" fill="#9c5712" fill-rule="evenodd" stroke="none"/>
    <path d="M64.5 26.85 L64.55 29.25 64.7 34.7 64.85 41.75 65.0 48.75 65.2 54.15 65.35 56.4 Q65.6 56.5 65.7 54.55 L65.8 49.35 65.85 42.6 66.0 35.95 Q66.1 32.9 66.35 31.15 66.6 29.4 67.1 29.85 67.45 30.25 67.75 32.45 L68.35 38.0 68.8 45.15 69.1 52.45 Q69.35 52.55 69.5 50.55 L69.75 45.5 69.9 39.4 69.95 34.45 69.95 32.85 Q70.25 33.25 70.3 36.05 L70.25 43.0 69.95 51.8 69.6 60.5 69.25 67.1 69.1 69.75 69.0 67.35 68.85 61.25 68.6 53.3 68.25 45.3 67.8 38.95 67.35 36.15 Q67.0 35.9 66.8 38.1 L66.5 43.95 66.35 51.75 66.2 59.55 65.95 65.5 Q65.8 67.7 65.55 67.55 65.3 67.3 65.1 64.95 L64.75 58.85 64.45 50.8 64.25 42.1 64.15 34.3 64.25 28.75 Q64.3 26.7 64.5 26.85" fill="#73420a" fill-rule="evenodd" stroke="none"/>
    <path d="M55.2 58.9 L55.15 12.45 63.3 20.85 62.65 63.7 55.2 58.9" fill="#52330c" fill-rule="evenodd" stroke="none"/>
    <path d="M55.1 59.7 L55.2 14.9 63.35 23.3 62.85 67.75 55.1 59.7" fill="#9c5712" fill-rule="evenodd" stroke="none"/>
    <path d="M57.25 18.7 L57.2 20.55 57.1 25.3 57.05 31.45 57.05 37.7 57.2 42.6 Q57.3 44.6 57.5 44.9 57.7 45.1 57.8 43.5 L58.0 39.25 58.2 33.6 58.4 28.0 58.7 23.9 Q58.9 22.35 59.25 22.65 59.5 23.0 59.6 25.45 L59.7 31.6 59.65 39.35 59.65 47.1 Q59.6 50.75 59.7 53.1 59.75 55.5 59.95 55.75 L60.3 53.7 60.6 47.9 60.85 40.2 61.0 32.45 61.05 26.45 61.1 24.05 61.15 26.3 61.25 32.05 61.3 39.8 61.25 48.15 60.9 55.6 Q60.65 58.9 60.2 60.6 59.8 62.35 59.1 61.75 L58.95 59.25 59.0 53.55 59.1 46.55 59.2 40.2 59.2 36.4 58.7 46.1 Q58.45 49.25 58.1 49.7 57.75 50.1 57.45 48.45 L56.9 43.8 56.6 37.0 Q56.55 33.8 56.65 30.6 L56.85 24.7 57.1 20.4 57.25 18.7" fill="#73420a" fill-rule="evenodd" stroke="none"/>
  </g>
</svg>
