<?xml version="1.0" encoding="UTF-8" standalone="no"?>
<svg xmlns:xlink="http://www.w3.org/1999/xlink" height="114.65px" width="204.85px" xmlns="http://www.w3.org/2000/svg">
  <g transform="matrix(1.0, 0.0, 0.0, 1.0, 82.3, 109.8)">
    <path d="M69.65 -44.1 L70.55 -87.85 80.35 -78.9 79.45 -35.1 69.65 -44.1" fill="#52330c" fill-rule="evenodd" stroke="none"/>
    <path d="M70.8 -40.4 L71.45 -84.35 79.25 -77.2 78.55 -33.15 70.8 -40.4" fill="#9c5712" fill-rule="evenodd" stroke="none"/>
    <path d="M77.65 -77.1 L77.7 -74.45 77.75 -67.9 77.7 -59.35 77.55 -50.85 77.1 -44.35 Q76.85 -41.85 76.4 -41.8 75.5 -42.0 75.05 -44.05 74.6 -46.1 74.5 -49.3 74.35 -52.5 74.35 -56.1 L74.45 -62.9 74.45 -68.2 Q74.4 -70.25 74.1 -70.5 73.65 -70.65 73.4 -68.65 L73.0 -63.3 72.8 -56.15 72.65 -48.85 72.5 -43.1 72.2 -40.5 72.0 -44.95 72.05 -52.3 72.3 -60.95 72.8 -69.1 Q73.15 -72.9 73.6 -75.15 74.1 -77.45 74.75 -77.4 75.1 -77.2 75.25 -75.25 L75.45 -70.25 75.45 -63.85 75.4 -57.45 Q75.4 -54.4 75.55 -52.4 75.7 -50.45 76.05 -50.25 76.5 -50.1 76.7 -51.95 L77.0 -56.85 77.1 -63.35 77.15 -69.95 77.25 -75.05 Q77.4 -77.0 77.65 -77.1" fill="#73420a" fill-rule="evenodd" stroke="none"/>
    <path d="M84.5 -74.5 L96.8 -63.5 95.35 -18.55 86.95 -29.5 84.5 -74.5" fill="#52330c" fill-rule="evenodd" stroke="none"/>
    <path d="M88.4 -68.75 L96.85 -61.1 95.95 -18.05 87.9 -25.25 88.4 -68.75" fill="#9c5712" fill-rule="evenodd" stroke="none"/>
    <path d="M89.45 -64.95 L89.5 -62.65 89.6 -57.3 89.7 -50.45 89.8 -43.65 89.9 -38.4 90.05 -36.2 Q90.3 -36.1 90.45 -38.05 L90.6 -43.05 90.75 -49.6 90.95 -56.05 91.35 -60.75 Q91.65 -62.45 92.15 -62.05 92.55 -61.6 92.85 -59.45 L93.4 -54.05 93.8 -47.15 94.05 -40.0 Q94.3 -39.9 94.45 -41.85 L94.8 -46.8 95.0 -52.7 95.1 -57.5 95.15 -59.05 Q95.45 -58.65 95.5 -55.95 L95.35 -49.15 94.95 -40.6 94.45 -32.2 94.05 -25.75 93.85 -23.15 93.8 -25.55 93.7 -31.45 93.5 -39.2 93.2 -47.0 92.8 -53.15 92.35 -55.9 Q92.0 -56.1 91.75 -54.0 L91.4 -48.3 91.15 -40.75 90.9 -33.1 90.6 -27.35 Q90.4 -25.2 90.15 -25.35 89.85 -25.7 89.65 -28.7 L89.3 -36.3 89.05 -45.9 89.0 -55.35 Q89.0 -59.75 89.15 -62.45 89.25 -65.1 89.45 -64.95" fill="#73420a" fill-rule="evenodd" stroke="none"/>
    <path d="M79.4 -33.9 L79.8 -79.05 88.3 -70.8 87.2 -29.15 79.4 -33.9" fill="#52330c" fill-rule="evenodd" stroke="none"/>
    <path d="M79.2 -33.1 L79.8 -76.65 88.25 -68.4 87.25 -25.2 79.2 -33.1" fill="#9c5712" fill-rule="evenodd" stroke="none"/>
    <path d="M81.9 -72.95 L81.85 -71.15 81.7 -66.55 81.55 -60.55 81.5 -54.5 81.6 -49.7 Q81.7 -47.75 81.9 -47.45 82.1 -47.3 82.25 -48.85 L82.5 -52.95 82.75 -58.45 83.0 -63.85 83.4 -67.85 Q83.6 -69.35 83.95 -69.05 84.2 -68.7 84.3 -66.35 L84.35 -60.4 84.25 -52.85 84.1 -45.3 84.1 -39.45 Q84.15 -37.15 84.35 -36.9 84.6 -36.75 84.75 -38.9 L85.15 -44.55 85.45 -52.0 85.7 -59.55 85.85 -65.4 85.9 -67.7 85.95 -65.55 86.0 -59.95 85.95 -52.35 85.8 -44.25 85.4 -37.05 Q85.1 -33.85 84.65 -32.15 84.15 -30.5 83.45 -31.05 83.3 -31.25 83.3 -33.5 L83.4 -39.05 83.6 -45.8 83.75 -52.0 83.75 -55.7 83.15 -46.3 Q82.85 -43.25 82.5 -42.8 82.15 -42.4 81.85 -44.0 81.5 -45.6 81.3 -48.55 81.1 -51.5 81.05 -55.15 L81.15 -61.35 81.45 -67.1 81.75 -71.3 81.9 -72.95" fill="#73420a" fill-rule="evenodd" stroke="none"/>
    <path d="M44.95 -65.95 L45.7 -109.8 54.55 -101.75 53.75 -57.8 44.95 -65.95" fill="#52330c" fill-rule="evenodd" stroke="none"/>
    <path d="M44.95 -63.2 L45.6 -107.15 53.4 -100.0 52.7 -55.95 44.95 -63.2" fill="#9c5712" fill-rule="evenodd" stroke="none"/>
    <path d="M51.85 -99.9 L51.9 -97.25 51.95 -90.7 51.9 -82.15 51.75 -73.65 51.3 -67.15 Q51.05 -64.65 50.6 -64.6 49.7 -64.8 49.25 -66.85 48.85 -68.9 48.7 -72.1 48.55 -75.3 48.55 -78.9 L48.65 -85.7 48.65 -91.0 Q48.6 -93.05 48.3 -93.25 47.85 -93.4 47.6 -91.4 L47.2 -86.1 47.0 -78.95 46.85 -71.65 46.7 -65.85 46.4 -63.3 46.2 -67.75 46.25 -75.1 46.5 -83.75 47.0 -91.9 Q47.35 -95.7 47.8 -97.95 48.3 -100.25 48.95 -100.2 49.3 -100.0 49.45 -98.05 L49.65 -93.05 49.65 -86.65 49.6 -80.25 Q49.6 -77.2 49.75 -75.2 49.9 -73.25 50.25 -73.05 50.7 -72.9 50.9 -74.75 L51.2 -79.65 51.3 -86.15 51.35 -92.75 51.45 -97.85 Q51.6 -99.8 51.85 -99.9" fill="#73420a" fill-rule="evenodd" stroke="none"/>
    <path d="M58.7 -97.3 L71.0 -86.3 69.55 -41.35 61.15 -52.3 58.7 -97.3" fill="#52330c" fill-rule="evenodd" stroke="none"/>
    <path d="M62.55 -91.55 L71.0 -83.9 70.1 -40.85 62.05 -48.05 62.55 -91.55" fill="#9c5712" fill-rule="evenodd" stroke="none"/>
    <path d="M63.65 -87.75 L63.7 -85.45 63.8 -80.1 63.9 -73.25 64.0 -66.45 64.1 -61.2 64.25 -59.0 Q64.5 -58.9 64.65 -60.85 L64.8 -65.85 64.95 -72.4 65.15 -78.85 65.55 -83.55 Q65.85 -85.25 66.35 -84.85 66.75 -84.4 67.05 -82.25 L67.6 -76.85 68.0 -69.95 68.25 -62.8 Q68.5 -62.7 68.65 -64.65 L69.0 -69.6 69.2 -75.5 69.3 -80.3 69.35 -81.85 Q69.65 -81.45 69.7 -78.75 L69.55 -71.95 69.15 -63.4 68.65 -55.0 68.25 -48.55 68.05 -45.95 68.0 -48.35 67.9 -54.25 67.7 -62.0 67.4 -69.8 67.0 -75.95 66.55 -78.7 Q66.2 -78.9 65.95 -76.8 L65.6 -71.1 65.35 -63.55 65.1 -55.9 64.8 -50.15 Q64.6 -48.0 64.35 -48.15 64.05 -48.5 63.85 -51.5 L63.5 -59.1 63.25 -68.7 63.2 -78.15 Q63.2 -82.55 63.35 -85.25 63.45 -87.9 63.65 -87.75" fill="#73420a" fill-rule="evenodd" stroke="none"/>
    <path d="M53.55 -56.7 L53.95 -101.85 62.45 -93.6 61.35 -51.95 53.55 -56.7" fill="#52330c" fill-rule="evenodd" stroke="none"/>
    <path d="M53.4 -55.95 L54.0 -99.5 62.45 -91.25 61.45 -48.05 53.4 -55.95" fill="#9c5712" fill-rule="evenodd" stroke="none"/>
    <path d="M56.1 -95.75 L56.05 -93.95 55.9 -89.35 55.75 -83.35 55.7 -77.3 55.8 -72.5 Q55.9 -70.55 56.1 -70.25 56.3 -70.1 56.45 -71.65 L56.7 -75.75 56.95 -81.25 57.2 -86.65 Q57.35 -89.2 57.6 -90.65 57.8 -92.15 58.15 -91.85 58.4 -91.5 58.5 -89.15 L58.55 -83.2 58.45 -75.65 58.3 -68.1 58.3 -62.25 Q58.35 -59.95 58.55 -59.7 58.8 -59.55 59.0 -61.7 L59.35 -67.35 59.65 -74.8 59.9 -82.35 60.05 -88.2 60.1 -90.5 60.15 -88.35 60.2 -82.75 60.15 -75.15 60.0 -67.05 59.6 -59.85 Q59.3 -56.65 58.85 -54.95 58.35 -53.3 57.65 -53.85 57.5 -54.05 57.5 -56.3 L57.6 -61.85 57.8 -68.6 57.95 -74.8 57.95 -78.5 57.35 -69.1 Q57.05 -66.05 56.7 -65.6 56.35 -65.2 56.05 -66.8 55.7 -68.4 55.5 -71.35 55.3 -74.3 55.25 -77.95 L55.35 -84.15 55.65 -89.9 55.95 -94.1 56.1 -95.75" fill="#73420a" fill-rule="evenodd" stroke="none"/>
    <path d="M94.95 -20.3 L95.7 -64.15 104.55 -56.1 103.75 -12.15 94.95 -20.3" fill="#52330c" fill-rule="evenodd" stroke="none"/>
    <path d="M95.0 -17.55 L95.65 -61.5 103.45 -54.35 102.75 -10.3 95.0 -17.55" fill="#9c5712" fill-rule="evenodd" stroke="none"/>
    <path d="M101.85 -54.25 L101.9 -51.6 101.95 -45.05 101.9 -36.5 101.75 -28.0 101.3 -21.5 Q101.05 -19.0 100.6 -18.95 99.7 -19.15 99.25 -21.2 98.8 -23.25 98.7 -26.45 98.55 -29.65 98.55 -33.25 L98.65 -40.05 98.65 -45.35 Q98.6 -47.4 98.3 -47.6 97.85 -47.75 97.6 -45.75 L97.2 -40.45 97.0 -33.3 96.85 -26.0 96.7 -20.2 96.4 -17.65 96.2 -22.1 96.25 -29.45 96.5 -38.1 97.0 -46.25 Q97.35 -50.05 97.8 -52.3 98.3 -54.6 98.95 -54.55 99.3 -54.35 99.45 -52.4 L99.65 -47.4 99.65 -41.0 99.6 -34.6 Q99.6 -31.55 99.75 -29.55 99.9 -27.6 100.25 -27.4 100.7 -27.25 100.9 -29.1 L101.2 -34.0 101.3 -40.5 101.35 -47.1 101.45 -52.2 Q101.6 -54.15 101.85 -54.25" fill="#73420a" fill-rule="evenodd" stroke="none"/>
    <path d="M108.7 -51.65 L121.0 -40.65 119.55 4.3 111.15 -6.65 108.7 -51.65" fill="#52330c" fill-rule="evenodd" stroke="none"/>
    <path d="M112.6 -45.85 L121.05 -38.2 120.15 4.85 112.1 -2.35 112.6 -45.85" fill="#9c5712" fill-rule="evenodd" stroke="none"/>
    <path d="M113.65 -42.05 L113.7 -39.75 113.8 -34.4 113.9 -27.55 114.0 -20.75 114.1 -15.5 114.25 -13.3 Q114.5 -13.2 114.65 -15.15 L114.8 -20.15 114.95 -26.7 115.15 -33.15 115.55 -37.85 Q115.85 -39.55 116.35 -39.15 116.75 -38.7 117.05 -36.55 L117.6 -31.15 118.0 -24.25 118.25 -17.1 Q118.5 -17.0 118.65 -18.95 L119.0 -23.9 119.2 -29.8 119.3 -34.6 119.35 -36.15 Q119.65 -35.75 119.7 -33.05 L119.55 -26.25 119.15 -17.7 118.65 -9.3 118.25 -2.85 118.05 -0.25 118.0 -2.65 117.9 -8.55 117.7 -16.3 117.4 -24.1 117.0 -30.25 116.55 -33.0 Q116.2 -33.2 115.95 -31.1 L115.6 -25.4 115.35 -17.85 115.1 -10.2 114.8 -4.45 Q114.6 -2.3 114.35 -2.45 114.05 -2.8 113.85 -5.8 L113.5 -13.4 113.25 -23.0 113.2 -32.45 Q113.2 -36.85 113.35 -39.55 113.45 -42.2 113.65 -42.05" fill="#73420a" fill-rule="evenodd" stroke="none"/>
    <path d="M103.55 -11.0 L103.95 -56.15 112.45 -47.9 111.35 -6.25 103.55 -11.0" fill="#52330c" fill-rule="evenodd" stroke="none"/>
    <path d="M103.4 -10.25 L104.0 -53.8 112.45 -45.55 111.45 -2.35 103.4 -10.25" fill="#9c5712" fill-rule="evenodd" stroke="none"/>
    <path d="M106.1 -50.0 L106.0 -48.25 105.9 -43.65 105.75 -37.65 105.7 -31.6 105.8 -26.8 Q105.9 -24.85 106.1 -24.55 106.3 -24.4 106.45 -25.95 L106.7 -30.05 106.95 -35.55 107.2 -40.95 Q107.35 -43.5 107.6 -44.95 107.8 -46.45 108.15 -46.15 108.4 -45.8 108.5 -43.45 L108.55 -37.5 108.45 -29.95 108.3 -22.4 108.3 -16.55 Q108.35 -14.25 108.55 -14.0 108.8 -13.85 108.95 -16.0 L109.35 -21.65 109.65 -29.1 109.9 -36.65 110.05 -42.5 110.1 -44.8 110.15 -42.65 110.2 -37.05 110.15 -29.45 110.0 -21.35 109.6 -14.15 Q109.3 -10.95 108.85 -9.25 108.35 -7.6 107.65 -8.15 107.5 -8.35 107.5 -10.6 L107.6 -16.15 107.8 -22.9 107.95 -29.1 107.95 -32.8 107.35 -23.4 Q107.05 -20.35 106.7 -19.9 106.35 -19.5 106.05 -21.1 105.7 -22.7 105.5 -25.65 105.3 -28.6 105.25 -32.25 L105.35 -38.45 105.65 -44.2 105.95 -48.4 106.1 -50.0" fill="#73420a" fill-rule="evenodd" stroke="none"/>
    <path d="M-27.0 -41.2 L-28.65 1.1 -43.85 0.9 -42.3 -41.25 -27.0 -41.2" fill="#52330c" fill-rule="evenodd" stroke="none"/>
    <path d="M-28.85 -38.55 L-30.05 3.7 -42.1 3.5 -41.0 -38.65 -28.85 -38.55" fill="#9c5712" fill-rule="evenodd" stroke="none"/>
    <path d="M-31.3 -37.1 L-31.25 -34.65 -31.2 -28.45 -31.25 -20.4 -31.55 -12.2 Q-31.8 -8.25 -32.25 -5.65 -32.65 -3.05 -33.4 -2.65 -34.75 -2.05 -35.45 -3.65 -36.15 -5.2 -36.35 -8.1 L-36.5 -14.4 -36.35 -20.9 -36.35 -25.95 Q-36.4 -27.85 -36.85 -27.8 -37.55 -27.55 -37.95 -25.45 L-38.6 -20.05 -38.95 -13.1 -39.15 -6.1 -39.45 -0.5 Q-39.6 1.75 -39.9 2.2 L-40.2 -1.85 -40.15 -8.85 -39.7 -17.25 -38.85 -25.4 Q-38.35 -29.25 -37.6 -31.85 -36.8 -34.4 -35.8 -34.95 -35.25 -35.1 -35.0 -33.35 -34.8 -31.6 -34.75 -28.75 L-34.8 -22.7 -34.85 -16.6 -34.65 -11.95 Q-34.45 -10.2 -33.9 -10.3 -33.2 -10.55 -32.85 -12.5 L-32.35 -17.4 Q-32.2 -20.35 -32.2 -23.65 L-32.1 -29.9 -31.9 -34.85 Q-31.7 -36.8 -31.3 -37.1" fill="#73420a" fill-rule="evenodd" stroke="none"/>
    <path d="M-20.6 -40.5 L-1.45 -40.6 -3.85 3.15 -16.9 -0.05 -20.6 -40.5" fill="#52330c" fill-rule="evenodd" stroke="none"/>
    <path d="M-14.6 -38.35 L-1.4 -38.35 -2.95 3.15 -15.5 3.25 -14.6 -38.35" fill="#9c5712" fill-rule="evenodd" stroke="none"/>
    <path d="M-4.15 -33.45 L-4.05 -34.95 Q-3.6 -34.8 -3.55 -32.25 L-3.8 -25.75 -4.45 -17.3 -5.25 -8.9 -5.95 -2.45 -6.25 0.15 -6.3 -2.05 -6.45 -7.55 -6.75 -14.7 -7.15 -21.8 Q-7.4 -25.2 -7.75 -27.3 -8.05 -29.45 -8.45 -29.5 -9.0 -29.45 -9.4 -27.25 L-10.0 -21.55 -10.4 -14.15 -10.8 -6.75 Q-11.0 -3.25 -11.3 -1.05 -11.6 1.2 -12.0 1.25 -12.45 1.15 -12.75 -1.5 L-13.3 -8.35 -13.65 -17.25 -13.7 -26.15 -13.5 -32.95 Q-13.3 -35.6 -13.0 -35.6 L-12.85 -33.5 -12.75 -28.5 -12.65 -22.1 -12.5 -15.75 -12.35 -10.9 -12.1 -8.95 Q-11.7 -9.05 -11.5 -11.0 L-11.2 -15.9 -11.0 -22.2 -10.65 -28.5 Q-10.4 -31.45 -9.95 -33.3 -9.5 -35.2 -8.7 -35.2 -8.15 -35.1 -7.7 -33.3 -7.2 -31.55 -6.85 -28.7 L-6.25 -22.5 -5.9 -15.95 Q-5.5 -16.05 -5.2 -18.05 -4.9 -20.05 -4.7 -23.0 L-4.35 -28.8 -4.15 -33.45" fill="#73420a" fill-rule="evenodd" stroke="none"/>
    <path d="M-14.8 -40.2 L-16.65 0.2 -28.75 2.35 -27.95 -40.75 -14.8 -40.2" fill="#52330c" fill-rule="evenodd" stroke="none"/>
    <path d="M-14.75 -38.0 L-16.45 3.8 -29.0 3.2 -27.95 -38.55 -14.75 -38.0" fill="#9c5712" fill-rule="evenodd" stroke="none"/>
    <path d="M-18.45 -35.3 L-18.4 -32.55 -18.35 -25.75 -18.5 -16.9 Q-18.65 -12.2 -19.1 -8.05 -19.5 -3.85 -20.3 -1.2 -21.1 1.45 -22.4 1.55 -22.65 1.45 -22.65 -0.65 L-22.45 -6.0 -22.15 -12.6 -21.85 -18.6 -21.85 -22.1 Q-22.25 -15.85 -22.8 -12.65 -23.3 -9.5 -23.85 -8.8 -24.4 -8.1 -24.9 -9.35 -25.35 -10.6 -25.65 -13.2 L-26.05 -19.25 -25.9 -25.2 -25.4 -30.9 -24.9 -35.15 -24.7 -36.8 -24.8 -35.05 -25.0 -30.6 -25.25 -24.8 -25.35 -19.0 -25.2 -14.55 Q-25.1 -12.8 -24.75 -12.7 -24.4 -12.75 -24.1 -14.95 L-23.65 -20.45 -23.2 -27.1 -22.55 -32.6 Q-22.15 -34.85 -21.5 -34.9 -21.05 -34.8 -20.95 -32.6 -20.8 -30.45 -20.9 -27.05 L-21.1 -19.8 -21.3 -12.55 -21.35 -7.0 Q-21.3 -4.8 -20.95 -4.75 -20.6 -4.85 -20.3 -7.05 L-19.7 -12.7 -19.2 -20.05 -18.8 -27.4 -18.55 -33.05 -18.45 -35.3" fill="#73420a" fill-rule="evenodd" stroke="none"/>
    <path d="M-67.2 -40.75 L-68.6 1.55 -82.3 1.35 -80.95 -40.8 -67.2 -40.75" fill="#52330c" fill-rule="evenodd" stroke="none"/>
    <path d="M-69.05 -38.1 L-70.25 4.15 -82.3 3.95 -81.2 -38.2 -69.05 -38.1" fill="#9c5712" fill-rule="evenodd" stroke="none"/>
    <path d="M-71.45 -36.65 L-71.4 -34.2 -71.35 -28.0 -71.4 -19.95 -71.7 -11.75 Q-71.95 -7.8 -72.4 -5.2 -72.8 -2.6 -73.55 -2.2 -74.9 -1.6 -75.6 -3.2 -76.3 -4.75 -76.5 -7.65 L-76.65 -13.95 -76.5 -20.45 -76.5 -25.5 Q-76.55 -27.4 -77.0 -27.35 -77.7 -27.1 -78.1 -25.0 L-78.75 -19.6 -79.1 -12.65 -79.3 -5.65 -79.6 -0.05 Q-79.75 2.2 -80.05 2.65 L-80.35 -1.4 -80.3 -8.4 -79.85 -16.8 -79.0 -24.95 -77.75 -31.4 Q-76.95 -33.95 -75.95 -34.5 -75.4 -34.65 -75.15 -32.9 -74.95 -31.15 -74.9 -28.3 L-74.95 -22.25 -75.0 -16.15 -74.8 -11.5 Q-74.6 -9.75 -74.05 -9.85 -73.35 -10.1 -73.0 -12.05 L-72.5 -16.95 Q-72.35 -19.9 -72.35 -23.2 L-72.25 -29.45 -72.05 -34.4 Q-71.85 -36.35 -71.45 -36.65" fill="#73420a" fill-rule="evenodd" stroke="none"/>
    <path d="M-60.8 -40.0 L-41.65 -40.1 -44.05 3.65 -57.1 0.45 -60.8 -40.0" fill="#52330c" fill-rule="evenodd" stroke="none"/>
    <path d="M-54.8 -37.9 L-41.6 -37.9 -43.15 3.6 -55.7 3.7 -54.8 -37.9" fill="#9c5712" fill-rule="evenodd" stroke="none"/>
    <path d="M-44.3 -33.0 L-44.2 -34.5 Q-43.75 -34.35 -43.7 -31.8 L-43.95 -25.3 -44.6 -16.85 -45.4 -8.45 -46.1 -2.0 -46.4 0.6 -46.45 -1.6 -46.6 -7.1 -46.9 -14.25 -47.3 -21.35 Q-47.55 -24.75 -47.9 -26.85 -48.2 -29.0 -48.6 -29.05 -49.15 -29.0 -49.55 -26.8 L-50.15 -21.1 -50.55 -13.7 -50.95 -6.3 Q-51.15 -2.8 -51.45 -0.6 -51.75 1.65 -52.15 1.7 -52.6 1.6 -52.9 -1.05 L-53.45 -7.9 -53.8 -16.8 -53.85 -25.7 -53.65 -32.5 Q-53.45 -35.15 -53.15 -35.15 L-53.0 -33.05 -52.9 -28.05 -52.8 -21.65 -52.65 -15.3 -52.5 -10.45 -52.25 -8.5 Q-51.85 -8.6 -51.65 -10.55 L-51.35 -15.45 -51.15 -21.75 -50.8 -28.05 Q-50.55 -31.0 -50.1 -32.85 -49.65 -34.75 -48.85 -34.75 -48.3 -34.65 -47.85 -32.9 -47.35 -31.1 -47.0 -28.25 L-46.4 -22.05 -46.05 -15.5 Q-45.65 -15.6 -45.35 -17.6 -45.05 -19.6 -44.85 -22.55 L-44.5 -28.35 -44.3 -33.0" fill="#73420a" fill-rule="evenodd" stroke="none"/>
    <path d="M-55.0 -39.75 L-56.85 0.65 -68.95 2.8 -68.15 -40.3 -55.0 -39.75" fill="#52330c" fill-rule="evenodd" stroke="none"/>
    <path d="M-54.95 -37.5 L-56.65 4.3 -69.2 3.7 -68.15 -38.05 -54.95 -37.5" fill="#9c5712" fill-rule="evenodd" stroke="none"/>
    <path d="M-58.65 -34.8 L-58.6 -32.05 -58.55 -25.25 -58.7 -16.4 Q-58.85 -11.7 -59.3 -7.55 -59.7 -3.35 -60.5 -0.7 -61.3 1.95 -62.6 2.05 -62.85 1.95 -62.85 -0.15 L-62.65 -5.5 -62.35 -12.1 -62.05 -18.1 -62.05 -21.6 Q-62.45 -15.35 -63.0 -12.15 -63.5 -9.0 -64.05 -8.3 -64.6 -7.6 -65.1 -8.85 -65.55 -10.1 -65.85 -12.7 L-66.25 -18.75 -66.1 -24.7 -65.6 -30.4 -65.1 -34.65 -64.9 -36.3 -65.0 -34.55 -65.2 -30.1 -65.45 -24.3 -65.55 -18.5 -65.4 -14.05 Q-65.3 -12.3 -64.95 -12.2 -64.6 -12.25 -64.3 -14.45 L-63.85 -19.95 -63.4 -26.6 -62.75 -32.1 Q-62.35 -34.35 -61.7 -34.4 -61.25 -34.3 -61.15 -32.1 -61.0 -29.95 -61.1 -26.55 L-61.3 -19.3 -61.5 -12.05 -61.55 -6.5 Q-61.5 -4.3 -61.15 -4.25 -60.8 -4.35 -60.5 -6.55 L-59.9 -12.2 -59.4 -19.55 -59.0 -26.9 -58.75 -32.55 -58.65 -34.8" fill="#73420a" fill-rule="evenodd" stroke="none"/>
    <path d="M95.6 -43.35 L93.45 -2.25 77.45 -2.6 79.5 -43.55 95.6 -43.35" fill="#52330c" fill-rule="evenodd" stroke="none"/>
    <path d="M93.65 -40.85 L91.95 0.25 79.25 -0.1 80.85 -41.05 93.65 -40.85" fill="#9c5712" fill-rule="evenodd" stroke="none"/>
    <path d="M91.1 -39.4 L91.1 -37.0 91.1 -31.0 90.95 -23.15 90.55 -15.15 Q90.25 -11.4 89.75 -8.85 89.3 -6.3 88.5 -5.9 87.05 -5.35 86.35 -6.9 85.65 -8.45 85.45 -11.25 85.25 -14.1 85.35 -17.4 L85.6 -23.7 85.65 -28.6 Q85.6 -30.5 85.15 -30.45 84.4 -30.2 83.95 -28.15 83.45 -26.1 83.2 -22.9 82.9 -19.75 82.75 -16.15 L82.45 -9.35 82.15 -3.9 Q81.95 -1.75 81.6 -1.3 81.4 -2.35 81.35 -5.25 L81.5 -12.05 82.0 -20.2 83.0 -28.15 Q83.55 -31.85 84.4 -34.35 85.25 -36.85 86.3 -37.35 86.9 -37.45 87.1 -35.8 L87.35 -31.35 87.25 -25.4 87.1 -19.5 87.3 -15.0 Q87.5 -13.3 88.05 -13.4 88.8 -13.65 89.2 -15.5 L89.75 -20.25 90.0 -26.35 90.15 -32.4 Q90.2 -35.3 90.4 -37.2 90.65 -39.1 91.1 -39.4" fill="#73420a" fill-rule="evenodd" stroke="none"/>
    <path d="M102.35 -42.6 L122.55 -42.45 119.55 0.05 105.8 -3.2 102.35 -42.6" fill="#52330c" fill-rule="evenodd" stroke="none"/>
    <path d="M108.7 -40.45 L122.55 -40.3 120.5 0.05 107.3 -0.05 108.7 -40.45" fill="#9c5712" fill-rule="evenodd" stroke="none"/>
    <path d="M119.65 -35.55 L119.75 -37.0 Q120.25 -36.85 120.3 -34.4 L120.0 -28.05 119.2 -19.85 118.25 -11.7 117.45 -5.4 117.1 -2.9 117.1 -5.05 116.95 -10.4 116.75 -17.35 116.35 -24.3 115.85 -29.65 Q115.5 -31.75 115.1 -31.8 114.5 -31.7 114.1 -29.6 113.7 -27.45 113.4 -24.05 L112.85 -16.85 112.4 -9.65 111.8 -4.1 Q111.5 -1.95 111.05 -1.9 110.6 -2.0 110.25 -4.6 109.95 -7.2 109.75 -11.25 109.55 -15.35 109.5 -19.95 109.45 -24.5 109.55 -28.6 L109.85 -35.2 Q110.05 -37.75 110.4 -37.75 L110.5 -35.7 110.55 -30.85 110.6 -24.65 110.7 -18.45 110.85 -13.7 Q110.9 -11.9 111.05 -11.85 111.45 -11.95 111.65 -13.8 L112.05 -18.55 112.35 -24.7 Q112.5 -27.95 112.8 -30.85 113.05 -33.7 113.55 -35.5 114.05 -37.3 114.85 -37.3 115.45 -37.2 115.95 -35.5 L116.8 -30.95 117.35 -24.9 117.65 -18.55 Q118.05 -18.65 118.4 -20.6 L119.0 -25.4 119.4 -31.0 119.65 -35.55" fill="#73420a" fill-rule="evenodd" stroke="none"/>
    <path d="M108.5 -42.25 L106.15 -3.0 93.35 -1.05 94.65 -42.95 108.5 -42.25" fill="#52330c" fill-rule="evenodd" stroke="none"/>
    <path d="M108.5 -40.05 L106.25 0.55 93.05 -0.2 94.6 -40.75 108.5 -40.05" fill="#9c5712" fill-rule="evenodd" stroke="none"/>
    <path d="M104.6 -37.5 L104.65 -34.85 104.65 -28.25 104.35 -19.65 103.65 -11.0 Q103.15 -6.95 102.3 -4.4 101.4 -1.85 100.05 -1.75 99.8 -1.85 99.85 -3.9 L100.05 -9.05 100.5 -15.45 100.85 -21.3 100.9 -24.7 Q100.25 -17.15 99.5 -14.15 98.75 -11.15 98.1 -11.6 97.4 -12.1 96.95 -14.95 96.5 -17.8 96.45 -22.0 L96.7 -27.8 97.25 -33.3 97.8 -37.45 98.05 -39.05 97.95 -37.35 97.65 -33.0 97.35 -27.4 97.15 -21.75 97.25 -17.4 Q97.35 -15.7 97.7 -15.6 98.15 -15.65 98.45 -17.8 L99.0 -23.15 99.55 -29.6 Q99.85 -32.8 100.3 -34.95 100.75 -37.1 101.4 -37.15 101.85 -37.05 101.95 -34.95 L101.95 -29.5 101.7 -22.45 101.35 -15.45 101.25 -10.0 Q101.3 -7.9 101.65 -7.85 102.0 -7.95 102.4 -10.05 L103.05 -15.55 103.65 -22.7 104.15 -29.8 104.5 -35.3 104.6 -37.5" fill="#73420a" fill-rule="evenodd" stroke="none"/>
    <path d="M53.3 -43.3 L51.2 -0.9 35.7 -1.25 37.7 -43.55 53.3 -43.3" fill="#52330c" fill-rule="evenodd" stroke="none"/>
    <path d="M51.35 -40.85 L49.65 0.25 36.95 -0.1 38.55 -41.05 51.35 -40.85" fill="#9c5712" fill-rule="evenodd" stroke="none"/>
    <path d="M48.8 -39.4 L48.8 -37.0 48.8 -31.0 48.65 -23.15 48.25 -15.15 Q47.95 -11.4 47.45 -8.85 47.0 -6.3 46.2 -5.9 44.75 -5.35 44.05 -6.9 43.35 -8.45 43.15 -11.25 42.95 -14.1 43.05 -17.4 L43.3 -23.7 43.35 -28.6 Q43.3 -30.5 42.85 -30.45 42.1 -30.2 41.65 -28.15 41.15 -26.1 40.9 -22.9 40.6 -19.75 40.45 -16.15 L40.15 -9.35 39.85 -3.9 Q39.65 -1.75 39.3 -1.3 39.1 -2.35 39.05 -5.25 L39.2 -12.05 39.7 -20.2 40.7 -28.15 Q41.25 -31.85 42.1 -34.35 42.95 -36.85 44.0 -37.35 44.6 -37.45 44.8 -35.8 L45.05 -31.35 44.95 -25.4 44.8 -19.5 45.0 -15.0 Q45.2 -13.3 45.75 -13.4 46.5 -13.65 46.9 -15.5 L47.45 -20.25 47.7 -26.35 47.85 -32.4 Q47.9 -35.3 48.1 -37.2 48.35 -39.1 48.8 -39.4" fill="#73420a" fill-rule="evenodd" stroke="none"/>
    <path d="M60.05 -42.6 L80.25 -42.45 77.25 0.05 63.5 -3.2 60.05 -42.6" fill="#52330c" fill-rule="evenodd" stroke="none"/>
    <path d="M66.35 -40.45 L80.2 -40.3 78.15 0.05 64.95 -0.05 66.35 -40.45" fill="#9c5712" fill-rule="evenodd" stroke="none"/>
    <path d="M77.3 -35.55 L77.4 -37.0 Q77.9 -36.85 77.95 -34.4 L77.65 -28.05 76.85 -19.85 75.9 -11.7 75.1 -5.4 74.75 -2.9 74.75 -5.05 74.6 -10.4 74.4 -17.35 74.0 -24.3 73.5 -29.65 Q73.15 -31.75 72.75 -31.8 72.15 -31.7 71.75 -29.6 71.35 -27.45 71.05 -24.05 L70.5 -16.85 70.05 -9.65 69.45 -4.1 Q69.15 -1.95 68.7 -1.9 68.25 -2.0 67.9 -4.6 67.6 -7.2 67.4 -11.25 67.2 -15.35 67.15 -19.95 67.1 -24.5 67.2 -28.6 L67.5 -35.2 Q67.7 -37.75 68.05 -37.75 L68.15 -35.7 68.2 -30.85 68.25 -24.65 68.35 -18.45 68.5 -13.7 Q68.55 -11.9 68.7 -11.85 69.1 -11.95 69.3 -13.8 L69.7 -18.55 70.0 -24.7 Q70.15 -27.95 70.45 -30.85 70.7 -33.7 71.2 -35.5 71.7 -37.3 72.5 -37.3 73.1 -37.2 73.6 -35.5 L74.45 -30.95 75.0 -24.9 75.3 -18.55 Q75.7 -18.65 76.05 -20.6 L76.65 -25.4 77.05 -31.0 77.3 -35.55" fill="#73420a" fill-rule="evenodd" stroke="none"/>
    <path d="M66.15 -42.25 L63.8 -3.0 51.0 -1.05 52.3 -42.95 66.15 -42.25" fill="#52330c" fill-rule="evenodd" stroke="none"/>
    <path d="M66.15 -40.05 L63.9 0.55 50.7 -0.2 52.25 -40.75 66.15 -40.05" fill="#9c5712" fill-rule="evenodd" stroke="none"/>
    <path d="M62.25 -37.5 L62.3 -34.85 62.3 -28.25 62.0 -19.65 61.3 -11.0 Q60.8 -6.95 59.95 -4.4 59.05 -1.85 57.7 -1.75 57.45 -1.85 57.5 -3.9 L57.7 -9.05 58.15 -15.45 58.5 -21.3 58.55 -24.7 Q57.9 -17.15 57.15 -14.15 56.4 -11.15 55.75 -11.6 55.05 -12.1 54.6 -14.95 54.15 -17.8 54.1 -22.0 L54.35 -27.8 54.9 -33.3 55.45 -37.45 55.7 -39.05 55.6 -37.35 55.3 -33.0 55.0 -27.4 54.8 -21.75 54.9 -17.4 Q55.0 -15.7 55.35 -15.6 55.8 -15.65 56.1 -17.8 L56.65 -23.15 57.2 -29.6 Q57.5 -32.8 57.95 -34.95 58.4 -37.1 59.05 -37.15 59.5 -37.05 59.6 -34.95 L59.6 -29.5 59.35 -22.45 59.0 -15.45 58.9 -10.0 Q58.95 -7.9 59.3 -7.85 59.65 -7.95 60.05 -10.05 L60.7 -15.55 61.3 -22.7 61.8 -29.8 62.15 -35.3 62.25 -37.5" fill="#73420a" fill-rule="evenodd" stroke="none"/>
  </g>
</svg>
