<?xml version="1.0" encoding="UTF-8" standalone="no"?>
<svg xmlns:xlink="http://www.w3.org/1999/xlink" height="50.8px" width="41.25px" xmlns="http://www.w3.org/2000/svg">
  <g transform="matrix(1.0, 0.0, 0.0, 1.0, 2.2, 42.9)">
    <path d="M13.2 -38.45 L11.35 4.4 -2.2 7.05 -0.45 -35.65 13.2 -38.45" fill="#52330c" fill-rule="evenodd" stroke="none"/>
    <path d="M12.45 -35.65 L10.95 5.75 -0.15 7.9 1.25 -33.4 12.45 -35.65" fill="#9c5712" fill-rule="evenodd" stroke="none"/>
    <path d="M10.2 -33.75 L10.25 -31.35 10.2 -25.35 10.1 -17.45 9.75 -9.4 Q9.5 -5.55 9.05 -2.95 8.65 -0.3 7.95 0.25 6.7 1.1 6.1 -0.3 5.45 -1.7 5.3 -4.5 L5.2 -10.65 5.4 -17.0 5.45 -21.9 Q5.45 -23.75 5.0 -23.65 4.35 -23.25 3.95 -21.1 3.55 -18.95 3.3 -15.75 3.05 -12.5 2.95 -8.9 L2.65 -2.05 2.4 3.45 1.9 6.2 1.7 2.3 1.8 -4.55 2.3 -12.75 3.1 -20.9 Q3.65 -24.75 4.35 -27.4 5.1 -30.05 6.05 -30.75 6.55 -31.0 6.75 -29.35 L6.95 -24.95 6.85 -19.0 6.75 -13.1 Q6.75 -10.3 6.9 -8.6 7.05 -6.95 7.55 -7.15 8.35 -7.65 8.7 -10.3 L9.15 -16.7 9.35 -24.2 9.55 -30.6 Q9.75 -33.25 10.2 -33.75" fill="#73420a" fill-rule="evenodd" stroke="none"/>
    <path d="M20.05 -39.1 L37.7 -42.9 35.1 0.2 23.1 -0.4 20.05 -39.1" fill="#52330c" fill-rule="evenodd" stroke="none"/>
    <path d="M25.55 -38.2 L37.7 -40.75 35.9 0.0 24.35 2.5 25.55 -38.2" fill="#9c5712" fill-rule="evenodd" stroke="none"/>
    <path d="M35.3 -36.95 Q35.7 -36.9 35.75 -34.45 L35.45 -28.05 34.8 -19.7 33.95 -11.35 33.25 -4.9 32.95 -2.35 32.95 -4.45 32.85 -9.8 32.65 -16.7 32.3 -23.55 31.85 -28.8 Q31.55 -30.8 31.2 -30.8 30.7 -30.65 30.3 -28.4 29.95 -26.2 29.7 -22.75 L29.25 -15.45 28.8 -8.15 28.3 -2.5 Q28.05 -0.3 27.65 -0.15 27.25 -0.15 26.95 -2.7 26.7 -5.2 26.55 -9.25 26.35 -13.3 26.3 -17.9 26.25 -22.45 26.35 -26.55 26.4 -30.6 26.6 -33.2 26.8 -35.75 27.1 -35.85 L27.15 -33.85 27.2 -29.0 27.25 -22.8 27.35 -16.65 27.45 -11.9 27.65 -10.1 Q28.0 -10.25 28.2 -12.15 L28.5 -17.0 28.8 -23.2 29.15 -29.4 Q29.4 -32.35 29.85 -34.25 30.3 -36.15 31.0 -36.3 31.5 -36.3 31.95 -34.7 L32.65 -30.3 33.15 -24.4 33.4 -18.1 Q33.8 -18.25 34.1 -20.25 L34.6 -25.2 35.0 -30.9 35.2 -35.45 35.3 -36.95" fill="#73420a" fill-rule="evenodd" stroke="none"/>
    <path d="M25.4 -39.95 L23.35 -0.25 12.15 4.2 13.25 -37.95 25.4 -39.95" fill="#52330c" fill-rule="evenodd" stroke="none"/>
    <path d="M25.4 -37.75 L23.45 3.25 11.9 5.1 13.25 -35.75 25.4 -37.75" fill="#9c5712" fill-rule="evenodd" stroke="none"/>
    <path d="M22.0 -34.45 L22.0 -31.8 22.0 -25.15 21.8 -16.5 21.15 -7.75 Q20.7 -3.6 19.95 -0.9 19.2 1.85 18.0 2.2 17.8 2.2 17.8 0.1 L18.0 -5.1 18.4 -11.6 18.7 -17.5 18.75 -20.9 Q18.2 -13.25 17.55 -10.1 16.9 -6.95 16.3 -7.3 15.7 -7.6 15.3 -10.4 14.9 -13.2 14.85 -17.35 L15.05 -23.2 15.55 -28.8 16.05 -33.05 16.25 -34.7 16.15 -32.95 15.9 -28.6 15.65 -22.9 15.5 -17.25 Q15.45 -14.6 15.55 -12.9 15.65 -11.25 15.95 -11.2 16.35 -11.3 16.6 -13.5 L17.05 -19.0 17.55 -25.55 18.2 -31.05 Q18.6 -33.3 19.2 -33.45 19.6 -33.45 19.65 -31.35 L19.7 -25.9 19.45 -18.8 19.15 -11.7 19.05 -6.3 Q19.1 -4.2 19.4 -4.2 19.7 -4.35 20.05 -6.55 L20.65 -12.2 21.15 -19.45 21.6 -26.65 21.9 -32.2 22.0 -34.45" fill="#73420a" fill-rule="evenodd" stroke="none"/>
    <path d="M36.6 -35.05 L37.65 -35.3 38.65 -35.0 Q39.05 -34.75 39.05 -34.35 L38.95 -27.35 Q38.9 -26.95 38.5 -26.7 L37.45 -26.45 Q36.85 -26.5 36.4 -26.75 36.0 -27.0 36.0 -27.4 L36.15 -34.4 Q36.15 -34.8 36.6 -35.05" fill="#d9b324" fill-rule="evenodd" stroke="none"/>
    <path d="M35.8 -12.7 L36.85 -12.95 37.85 -12.65 Q38.25 -12.4 38.25 -12.0 L38.15 -5.0 Q38.1 -4.6 37.7 -4.35 L36.65 -4.1 35.6 -4.4 Q35.2 -4.65 35.2 -5.05 L35.35 -12.05 Q35.35 -12.45 35.8 -12.7" fill="#d9b324" fill-rule="evenodd" stroke="none"/>
  </g>
</svg>
