<?xml version="1.0" encoding="UTF-8" standalone="no"?>
<svg xmlns:xlink="http://www.w3.org/1999/xlink" height="51.7px" width="13.25px" xmlns="http://www.w3.org/2000/svg">
  <g transform="matrix(1.0, 0.0, 0.0, 1.0, -25.8, 52.75)">
    <path d="M30.4 -49.45 L29.85 -7.45 25.8 -10.85 26.3 -52.75 30.4 -49.45" fill="#52330c" fill-rule="evenodd" stroke="none"/>
    <path d="M30.15 -47.05 L29.7 -6.35 26.4 -9.15 26.8 -49.8 30.15 -47.05" fill="#9c5712" fill-rule="evenodd" stroke="none"/>
    <path d="M29.5 -46.2 L29.5 -43.8 29.5 -37.8 29.45 -29.95 29.35 -22.05 29.15 -15.9 28.8 -13.2 Q28.45 -12.9 28.25 -14.6 28.05 -16.25 28.0 -19.15 L28.0 -25.35 28.05 -31.6 28.05 -36.45 27.95 -38.45 Q27.75 -38.3 27.6 -36.35 L27.45 -31.3 27.3 -24.6 27.25 -17.9 27.15 -12.5 27.0 -9.95 26.95 -13.95 27.0 -20.75 27.15 -28.75 27.35 -36.5 27.75 -42.45 Q27.95 -44.8 28.25 -45.05 L28.45 -43.35 28.5 -38.85 28.5 -32.95 28.45 -27.1 28.5 -22.55 Q28.55 -20.8 28.7 -20.8 28.95 -20.95 29.05 -23.4 L29.15 -29.6 29.25 -37.05 29.3 -43.35 Q29.35 -45.9 29.5 -46.2" fill="#73420a" fill-rule="evenodd" stroke="none"/>
    <path d="M32.4 -47.2 L37.65 -43.1 36.9 -1.15 33.3 -7.15 32.4 -47.2" fill="#52330c" fill-rule="evenodd" stroke="none"/>
    <path d="M34.05 -43.85 L37.7 -41.0 37.15 -1.05 33.7 -3.7 34.05 -43.85" fill="#9c5712" fill-rule="evenodd" stroke="none"/>
    <path d="M37.0 -38.1 L37.1 -35.4 37.05 -29.1 36.85 -21.05 36.6 -13.1 36.35 -6.95 36.3 -4.55 36.3 -6.65 36.25 -12.0 36.2 -19.0 36.1 -26.0 35.95 -31.45 35.75 -33.75 Q35.6 -33.85 35.5 -31.75 L35.3 -26.4 35.2 -19.3 35.05 -12.2 34.9 -6.75 34.7 -4.7 34.5 -7.55 34.35 -14.3 34.3 -23.05 34.3 -31.7 34.4 -38.2 34.55 -40.65 34.55 -38.6 34.55 -33.75 34.6 -27.55 34.6 -21.35 34.65 -16.55 34.7 -14.65 34.85 -16.45 34.95 -21.15 35.05 -27.25 35.15 -33.3 35.35 -37.8 Q35.5 -39.5 35.7 -39.35 L36.0 -37.35 36.2 -32.6 36.35 -26.5 36.4 -20.1 36.65 -21.9 36.8 -26.65 36.9 -32.15 36.95 -36.6 37.0 -38.1" fill="#73420a" fill-rule="evenodd" stroke="none"/>
    <path d="M34.0 -45.7 L33.4 -6.9 30.05 -7.45 30.4 -49.1 34.0 -45.7" fill="#52330c" fill-rule="evenodd" stroke="none"/>
    <path d="M34.05 -43.4 L33.45 -3.3 30.0 -6.6 30.4 -46.85 34.05 -43.4" fill="#9c5712" fill-rule="evenodd" stroke="none"/>
    <path d="M33.0 -41.7 L33.0 -39.05 33.0 -32.4 32.9 -23.85 32.75 -15.4 32.35 -9.05 Q32.15 -6.65 31.8 -6.85 L31.75 -9.05 31.8 -14.15 31.9 -20.45 32.0 -26.25 32.0 -29.6 31.65 -19.35 Q31.45 -16.5 31.3 -17.1 31.1 -17.65 31.0 -20.65 30.85 -23.65 30.85 -27.8 L30.9 -33.55 31.05 -38.95 31.2 -42.95 31.25 -44.5 31.25 -42.8 31.15 -38.6 31.1 -33.0 31.05 -27.4 31.05 -23.05 31.2 -21.15 31.35 -23.15 31.5 -28.45 31.65 -34.8 31.85 -40.0 Q31.95 -42.05 32.15 -41.95 L32.3 -39.65 32.3 -34.2 32.2 -27.2 32.15 -20.25 32.1 -14.85 32.2 -12.6 32.4 -14.7 32.6 -20.05 32.75 -27.1 32.85 -34.1 32.95 -39.5 33.0 -41.7" fill="#73420a" fill-rule="evenodd" stroke="none"/>
    <path d="M36.6 -35.05 L37.65 -35.3 38.65 -35.0 Q39.05 -34.75 39.05 -34.35 L38.95 -27.35 Q38.9 -26.95 38.5 -26.7 L37.45 -26.45 Q36.85 -26.5 36.4 -26.75 36.0 -27.0 36.0 -27.4 L36.15 -34.4 Q36.15 -34.8 36.6 -35.05" fill="#d9b324" fill-rule="evenodd" stroke="none"/>
    <path d="M35.8 -12.7 L36.85 -12.95 37.85 -12.65 Q38.25 -12.4 38.25 -12.0 L38.15 -5.0 Q38.1 -4.6 37.7 -4.35 L36.65 -4.1 35.6 -4.4 Q35.2 -4.65 35.2 -5.05 L35.35 -12.05 Q35.35 -12.45 35.8 -12.7" fill="#d9b324" fill-rule="evenodd" stroke="none"/>
  </g>
</svg>
