<?xml version="1.0" encoding="UTF-8" standalone="no"?>
<svg xmlns:xlink="http://www.w3.org/1999/xlink" height="32.95px" width="20.25px" xmlns="http://www.w3.org/2000/svg">
  <g transform="matrix(1.0, 0.0, 0.0, 1.0, 0.5, 0.5)">
    <path d="M6.85 0.0 Q7.6 3.9 9.85 9.05 12.05 14.25 15.05 19.9 L19.25 27.45 17.55 31.95 13.65 31.95 10.35 30.7 10.0 27.8 Q9.7 25.15 6.85 19.5 3.95 13.85 2.2 9.0 0.45 4.15 0.0 0.8 L6.85 0.0" fill="#ffffff" fill-rule="evenodd" stroke="none"/>
    <path d="M19.25 27.45 L15.05 19.9 Q12.05 14.25 9.85 9.05 7.6 3.9 6.85 0.0 M0.0 0.8 Q0.45 4.15 2.2 9.0 3.95 13.85 6.85 19.5 9.7 25.15 10.0 27.8 L10.35 30.7 13.65 31.95" fill="none" stroke="#000000" stroke-linecap="round" stroke-linejoin="round" stroke-width="1.0"/>
  </g>
</svg>
