<?xml version="1.0" encoding="UTF-8" standalone="no"?>
<svg xmlns:xlink="http://www.w3.org/1999/xlink" height="36.85px" width="46.7px" xmlns="http://www.w3.org/2000/svg">
  <g transform="matrix(1.0, 0.0, 0.0, 1.0, 22.6, 33.9)">
    <path d="M21.95 -4.5 Q19.85 -1.5 15.6 2.3 L13.65 2.45 Q13.0 2.4 12.65 2.05 L11.9 1.2 Q11.3 1.9 10.45 2.4 9.6 2.95 8.75 2.95 L7.5 2.5 Q6.65 2.1 5.9 1.0 5.15 -0.1 4.9 -2.0 4.6 0.55 3.55 1.6 2.5 2.65 1.6 2.6 0.8 2.55 0.1 2.0 L-1.25 0.55 Q-2.8 1.9 -3.9 2.2 L-5.05 2.4 -6.35 1.95 Q-7.6 1.5 -9.15 0.15 -10.4 1.75 -11.9 2.2 L-14.35 2.3 Q-16.65 1.5 -18.6 -0.85 -20.5 -3.15 -21.6 -6.4 -22.65 -9.65 -22.55 -13.25 -22.35 -16.1 -21.45 -18.05 -20.55 -20.05 -19.2 -21.3 L-15.15 -25.1 -10.85 -29.1 -7.4 -32.3 -5.95 -33.6 -4.1 -33.85 0.95 -33.4 Q4.2 -32.7 8.5 -30.15 12.75 -27.6 17.65 -22.25 20.9 -18.65 22.55 -15.75 24.2 -12.9 24.1 -10.2 24.0 -7.5 21.95 -4.5" fill="#5c5c5c" fill-rule="evenodd" stroke="none"/>
    <path d="M-10.7 -29.2 Q-11.35 -25.35 -10.05 -21.7 -8.75 -18.05 -6.2 -14.85 -3.7 -11.6 -0.7 -8.95 2.25 -6.3 5.0 -4.35 L9.5 -1.35 11.35 -0.3 10.9 0.45 9.65 1.6 Q8.85 2.0 7.6 1.2 6.4 0.4 4.8 -2.5 4.0 0.15 3.0 0.95 2.05 1.75 1.1 1.45 0.15 1.2 -0.45 0.65 L-1.1 0.0 Q-2.55 1.7 -3.95 1.85 -5.35 2.0 -6.45 1.35 -7.6 0.75 -8.25 0.0 L-8.95 -0.75 -10.15 0.15 Q-11.25 1.0 -12.95 1.6 L-16.4 1.5 Q-18.15 0.75 -19.5 -2.25 -21.4 -6.65 -22.2 -9.85 -23.0 -13.05 -22.2 -15.8 -21.45 -18.6 -18.7 -21.75 -15.9 -24.9 -10.7 -29.2" fill="#3b3b3b" fill-rule="evenodd" stroke="none"/>
    <path d="M6.5 -29.3 L8.2 -27.9 12.15 -24.45 16.6 -19.95 Q18.75 -17.55 19.9 -15.4 21.0 -13.25 20.3 -11.9 19.6 -10.95 18.05 -12.35 16.45 -13.75 14.5 -16.5 12.55 -19.2 10.75 -22.15 L7.75 -27.15 6.5 -29.3" fill="#7d7d7d" fill-rule="evenodd" stroke="none"/>
  </g>
</svg>
