<?xml version="1.0" encoding="UTF-8" standalone="no"?>
<svg xmlns:xlink="http://www.w3.org/1999/xlink" height="60.8px" width="204.85px" xmlns="http://www.w3.org/2000/svg">
  <g transform="matrix(1.0, 0.0, 0.0, 1.0, 102.4, 60.8)">
    <path d="M67.55 -44.1 L74.5 -60.45 76.1 -26.75 70.15 -6.05 67.55 -44.1" fill="#e82900" fill-rule="evenodd" stroke="none"/>
    <path d="M67.8 -38.3 L65.9 -29.9 44.75 -30.15 49.3 -38.25 67.8 -38.3" fill="#e82900" fill-rule="evenodd" stroke="none"/>
    <path d="M63.55 -30.05 L63.55 -38.25 42.7 -37.75 42.35 -44.35 67.55 -44.4 70.15 -6.35 67.75 -6.0 61.95 -5.65 54.75 -6.15 Q51.1 -6.7 48.3 -8.4 46.15 -9.85 45.1 -12.45 44.05 -15.05 43.8 -18.05 43.5 -21.1 43.65 -23.85 L44.05 -28.35 44.3 -30.2 63.55 -30.05" fill="#ab3000" fill-rule="evenodd" stroke="none"/>
    <path d="M74.15 -60.3 L67.6 -44.3 42.35 -44.15 51.25 -60.8 74.15 -60.3" fill="#e82900" fill-rule="evenodd" stroke="none"/>
    <path d="M71.15 -9.35 Q71.1 -6.75 69.85 -4.65 68.6 -2.55 66.5 -1.3 64.4 -0.05 61.8 0.0 59.2 -0.05 57.1 -1.3 55.0 -2.55 53.75 -4.65 52.55 -6.75 52.5 -9.35 52.55 -11.95 53.75 -14.05 55.0 -16.15 57.1 -17.4 59.2 -18.6 61.8 -18.65 64.4 -18.6 66.5 -17.4 68.6 -16.15 69.85 -14.05 71.1 -11.95 71.15 -9.35" fill="#000000" fill-rule="evenodd" stroke="none"/>
    <path d="M83.05 -7.7 Q83.75 -5.35 82.7 -3.35 81.65 -1.3 79.35 -0.5 77.0 0.2 74.95 -0.85 72.9 -1.9 72.1 -4.2 71.45 -6.55 72.5 -8.6 73.55 -10.65 75.85 -11.45 78.2 -12.1 80.2 -11.05 82.25 -10.0 83.05 -7.7" fill="#000000" fill-rule="evenodd" stroke="none"/>
    <path d="M96.8 -7.45 Q97.25 -5.05 95.95 -3.15 94.7 -1.25 92.3 -0.7 89.9 -0.25 88.0 -1.55 86.1 -2.8 85.55 -5.2 85.15 -7.6 86.4 -9.5 87.65 -11.4 90.05 -11.95 92.45 -12.35 94.35 -11.1 96.25 -9.85 96.8 -7.45" fill="#000000" fill-rule="evenodd" stroke="none"/>
    <path d="M89.2 -6.35 L88.95 -15.6 93.2 -18.3 92.85 -7.9 89.2 -6.35" fill="#000000" fill-rule="evenodd" stroke="none"/>
    <path d="M76.6 -7.1 L76.7 -16.35 81.05 -18.9 80.3 -8.55 76.6 -7.1" fill="#000000" fill-rule="evenodd" stroke="none"/>
    <path d="M98.65 -41.25 Q99.45 -41.2 100.05 -39.35 100.7 -37.5 101.1 -34.4 101.45 -31.25 101.45 -27.4 101.45 -23.5 101.1 -20.4 100.7 -17.3 100.05 -15.45 99.45 -13.6 98.65 -13.55 L74.0 -13.55 Q72.85 -13.6 71.95 -15.45 71.05 -17.3 70.5 -20.4 69.95 -23.55 69.95 -27.4 69.95 -31.25 70.5 -34.4 71.05 -37.5 71.95 -39.35 72.85 -41.2 74.0 -41.25 L98.65 -41.25" fill="#244fc4" fill-rule="evenodd" stroke="none"/>
    <path d="M102.45 -27.4 Q102.45 -23.55 101.9 -20.4 101.35 -17.3 100.45 -15.45 99.55 -13.6 98.45 -13.55 97.3 -13.6 96.4 -15.45 95.5 -17.3 94.95 -20.4 94.4 -23.5 94.4 -27.4 94.4 -31.25 94.95 -34.4 95.5 -37.5 96.4 -39.35 97.3 -41.2 98.45 -41.25 99.55 -41.2 100.45 -39.35 101.35 -37.5 101.9 -34.4 102.45 -31.25 102.45 -27.4" fill="#246ec2" fill-rule="evenodd" stroke="none"/>
    <path d="M90.1 -53.85 L90.15 -53.85 90.35 -52.55 90.9 -49.4 91.5 -45.7 91.85 -42.5 Q91.9 -41.25 91.65 -41.15 91.05 -41.0 90.1 -39.9 89.15 -38.75 88.45 -37.2 87.75 -35.6 87.95 -34.15 L84.9 -34.3 Q83.5 -34.75 82.55 -35.65 81.55 -36.5 81.3 -37.5 L81.3 -37.45 78.35 -51.35 Q78.25 -52.85 79.7 -54.2 81.15 -55.5 83.55 -56.05 L87.85 -55.9 Q89.7 -55.3 90.1 -53.85" fill="#e82900" fill-rule="evenodd" stroke="none"/>
    <path d="M90.65 -52.25 Q91.1 -51.75 91.2 -51.1 91.45 -49.45 89.9 -48.0 88.3 -46.55 85.65 -45.95 L80.95 -46.1 Q78.95 -46.8 78.55 -48.45 78.4 -49.1 78.65 -49.7 79.55 -48.7 81.25 -48.3 83.0 -47.95 85.15 -48.35 87.25 -48.85 88.75 -49.9 90.2 -50.95 90.65 -52.25" fill="#ffffff" fill-rule="evenodd" stroke="none"/>
    <path d="M91.55 -47.55 Q92.0 -47.05 92.1 -46.4 92.35 -44.75 90.8 -43.3 89.2 -41.85 86.5 -41.25 L81.85 -41.4 Q79.85 -42.1 79.45 -43.75 79.3 -44.35 79.55 -45.0 80.45 -44.0 82.15 -43.6 83.9 -43.25 86.05 -43.65 88.15 -44.15 89.65 -45.2 91.1 -46.25 91.55 -47.55" fill="#ffffff" fill-rule="evenodd" stroke="none"/>
    <path d="M88.8 -53.75 Q88.95 -52.8 87.8 -51.95 86.65 -51.05 84.8 -50.65 82.9 -50.3 81.5 -50.6 80.15 -50.95 79.9 -51.85 79.8 -52.8 80.9 -53.65 82.05 -54.55 83.95 -54.95 85.85 -55.35 87.2 -55.0 88.6 -54.65 88.8 -53.75" fill="#000000" fill-rule="evenodd" stroke="none"/>
    <path d="M38.2 -12.55 L-5.75 -13.35 3.2 -27.45 44.35 -27.65 38.2 -12.55" fill="#244fc4" fill-rule="evenodd" stroke="none"/>
    <path d="M38.05 -8.2 L-5.65 -8.2 -5.65 -13.55 38.05 -13.55 38.05 -8.2" fill="#243295" fill-rule="evenodd" stroke="none"/>
    <path d="M44.4 -27.65 L43.75 -19.9 38.05 -8.25 37.75 -14.55 44.4 -27.65" fill="#243295" fill-rule="evenodd" stroke="none"/>
    <path d="M8.1 -7.6 Q8.75 -5.4 7.75 -3.45 6.8 -1.55 4.6 -0.8 2.4 -0.15 0.5 -1.15 -1.45 -2.1 -2.2 -4.3 -2.85 -6.5 -1.85 -8.4 -0.85 -10.35 1.3 -11.1 3.5 -11.75 5.45 -10.75 7.35 -9.75 8.1 -7.6" fill="#000000" fill-rule="evenodd" stroke="none"/>
    <path d="M35.15 -7.6 Q35.8 -5.4 34.8 -3.45 33.85 -1.55 31.65 -0.8 29.45 -0.15 27.55 -1.15 25.6 -2.1 24.85 -4.3 24.2 -6.5 25.2 -8.4 26.2 -10.35 28.35 -11.1 30.55 -11.75 32.5 -10.75 34.4 -9.75 35.15 -7.6" fill="#000000" fill-rule="evenodd" stroke="none"/>
    <path d="M-9.8 -12.55 L-53.75 -13.35 -44.8 -27.45 -3.65 -27.65 -9.8 -12.55" fill="#244fc4" fill-rule="evenodd" stroke="none"/>
    <path d="M-9.95 -8.2 L-53.65 -8.2 -53.65 -13.55 -9.95 -13.55 -9.95 -8.2" fill="#243295" fill-rule="evenodd" stroke="none"/>
    <path d="M-3.6 -27.65 L-4.25 -19.9 -9.95 -8.25 -10.25 -14.55 -3.6 -27.65" fill="#243295" fill-rule="evenodd" stroke="none"/>
    <path d="M-39.9 -7.6 Q-39.25 -5.4 -40.25 -3.45 -41.2 -1.55 -43.4 -0.8 -45.6 -0.15 -47.5 -1.15 -49.45 -2.1 -50.2 -4.3 -50.85 -6.5 -49.85 -8.4 -48.85 -10.35 -46.7 -11.1 -44.5 -11.75 -42.55 -10.75 -40.65 -9.75 -39.9 -7.6" fill="#000000" fill-rule="evenodd" stroke="none"/>
    <path d="M-12.85 -7.6 Q-12.2 -5.4 -13.2 -3.45 -14.15 -1.55 -16.35 -0.8 -18.55 -0.15 -20.45 -1.15 -22.4 -2.1 -23.15 -4.3 -23.8 -6.5 -22.8 -8.4 -21.8 -10.35 -19.65 -11.1 -17.45 -11.75 -15.5 -10.75 -13.6 -9.75 -12.85 -7.6" fill="#000000" fill-rule="evenodd" stroke="none"/>
    <path d="M-58.45 -12.55 L-102.4 -13.35 -93.45 -27.45 -52.3 -27.65 -58.45 -12.55" fill="#244fc4" fill-rule="evenodd" stroke="none"/>
    <path d="M-58.65 -8.2 L-102.35 -8.2 -102.35 -13.55 -58.65 -13.55 -58.65 -8.2" fill="#243295" fill-rule="evenodd" stroke="none"/>
    <path d="M-52.3 -27.65 L-52.95 -19.9 -58.65 -8.25 -58.95 -14.55 -52.3 -27.65" fill="#243295" fill-rule="evenodd" stroke="none"/>
    <path d="M-88.55 -7.6 Q-87.9 -5.4 -88.9 -3.45 -89.85 -1.55 -92.05 -0.8 -94.25 -0.15 -96.15 -1.15 -98.1 -2.1 -98.85 -4.3 -99.5 -6.5 -98.5 -8.4 -97.5 -10.35 -95.35 -11.1 -93.15 -11.75 -91.2 -10.75 -89.3 -9.75 -88.55 -7.6" fill="#000000" fill-rule="evenodd" stroke="none"/>
    <path d="M-61.5 -7.6 Q-60.85 -5.4 -61.85 -3.45 -62.8 -1.55 -65.0 -0.8 -67.2 -0.15 -69.1 -1.15 -71.05 -2.1 -71.8 -4.3 -72.45 -6.5 -71.45 -8.4 -70.45 -10.35 -68.3 -11.1 -66.1 -11.75 -64.15 -10.75 -62.25 -9.75 -61.5 -7.6" fill="#000000" fill-rule="evenodd" stroke="none"/>
  </g>
</svg>
