<?xml version="1.0" encoding="UTF-8" standalone="no"?>
<svg xmlns:xlink="http://www.w3.org/1999/xlink" height="184.9px" width="139.7px" xmlns="http://www.w3.org/2000/svg">
  <g transform="matrix(1.0, 0.0, 0.0, 1.0, 68.5, 166.0)">
    <path d="M33.45 6.8 L29.85 7.65 Q27.75 8.3 26.0 9.55 24.25 10.8 23.7 12.8 L21.6 8.0 Q20.95 6.1 20.95 4.95 20.9 3.75 21.2 2.95 L15.4 5.6 15.95 0.6 13.0 2.75 Q11.1 3.9 7.6 4.55 8.65 2.0 8.85 0.55 L9.15 -2.05 4.2 -0.45 2.95 -9.45 35.05 6.55 33.45 6.8" fill="#52330c" fill-rule="evenodd" stroke="none"/>
    <path d="M35.2 6.65 L31.35 7.4 Q29.15 8.0 27.3 9.2 25.45 10.4 24.9 12.4 L22.8 7.6 Q22.15 5.7 22.15 4.55 22.1 3.35 22.4 2.55 L16.6 5.2 17.15 0.2 14.2 2.35 Q12.3 3.45 8.8 4.15 9.85 1.6 10.05 0.15 L10.35 -2.45 5.4 -0.85 4.15 -9.85 36.9 6.5 35.2 6.65" fill="#8ccf36" fill-rule="evenodd" stroke="none"/>
    <path d="M3.65 -14.4 L2.85 -10.8 Q2.5 -8.6 2.85 -6.5 3.15 -4.4 4.7 -3.0 L-0.5 -3.25 Q-2.45 -3.5 -3.55 -4.0 -4.6 -4.45 -5.2 -5.15 L-5.4 1.25 -9.65 -1.45 Q-9.15 0.0 -9.0 2.15 -8.85 4.35 -9.8 7.8 -11.6 5.75 -12.85 4.9 L-15.0 3.5 -15.8 8.65 -24.4 5.75 4.15 -15.95 3.65 -14.4" fill="#52330c" fill-rule="evenodd" stroke="none"/>
    <path d="M4.25 -16.05 Q3.7 -14.5 3.25 -12.3 2.8 -10.05 3.05 -7.85 3.3 -5.65 4.85 -4.3 L-0.35 -4.55 -3.4 -5.3 Q-4.45 -5.75 -5.05 -6.45 L-5.25 -0.05 -9.5 -2.7 Q-9.0 -1.3 -8.85 0.9 -8.7 3.05 -9.65 6.5 -11.45 4.45 -12.7 3.6 L-14.85 2.2 -15.65 7.35 -24.25 4.5 4.85 -17.65 4.25 -16.05" fill="#8ccf36" fill-rule="evenodd" stroke="none"/>
    <path d="M-0.5 -78.4 Q-0.55 -73.45 -2.95 -69.4 -5.3 -65.4 -9.35 -63.05 -13.35 -60.65 -18.3 -60.6 -23.25 -60.65 -27.3 -63.05 -31.3 -65.4 -33.65 -69.45 -36.05 -73.45 -36.1 -78.4 -36.05 -83.35 -33.65 -87.4 -31.3 -91.4 -27.3 -93.75 -23.3 -96.15 -18.3 -96.2 -13.35 -96.15 -9.3 -93.75 -5.3 -91.4 -2.95 -87.4 -0.55 -83.4 -0.5 -78.4" fill="#5e8b1c" fill-rule="evenodd" stroke="none"/>
    <path d="M-5.5 -122.95 Q-5.55 -119.35 -7.25 -116.45 -9.0 -113.6 -11.9 -111.85 -14.75 -110.15 -18.35 -110.1 -21.95 -110.15 -24.85 -111.85 -27.75 -113.6 -29.45 -116.5 -31.15 -119.35 -31.2 -122.95 -31.15 -126.55 -29.45 -129.45 -27.75 -132.35 -24.85 -134.05 -21.95 -135.75 -18.35 -135.8 -14.75 -135.75 -11.9 -134.05 -9.0 -132.35 -7.25 -129.45 -5.55 -126.55 -5.5 -122.95" fill="#5e8b1c" fill-rule="evenodd" stroke="none"/>
    <path d="M52.5 -127.35 Q53.4 -125.4 52.55 -123.1 51.7 -120.75 49.45 -118.55 47.2 -116.35 43.85 -114.75 40.5 -113.2 37.4 -112.85 34.25 -112.5 31.95 -113.3 29.6 -114.1 28.65 -116.0 27.75 -117.95 28.6 -120.25 29.45 -122.55 31.7 -124.75 33.95 -126.95 37.3 -128.55 40.65 -130.1 43.75 -130.5 L49.2 -130.05 Q51.55 -129.25 52.5 -127.35" fill="#537419" fill-rule="evenodd" stroke="none"/>
    <path d="M34.25 -147.4 Q35.8 -144.55 36.1 -140.85 36.3 -137.15 35.1 -134.1 33.95 -131.05 31.75 -129.15 29.55 -127.25 26.65 -127.0 23.8 -126.85 21.35 -128.5 18.95 -130.1 17.4 -133.0 15.85 -135.9 15.6 -139.55 15.4 -143.25 16.55 -146.3 17.75 -149.35 19.95 -151.25 22.15 -153.15 25.0 -153.4 27.85 -153.55 30.3 -151.9 32.7 -150.3 34.25 -147.4" fill="#537419" fill-rule="evenodd" stroke="none"/>
    <path d="M-34.4 -68.45 Q-34.45 -64.75 -36.2 -61.8 -37.95 -58.8 -40.95 -57.05 -43.9 -55.3 -47.6 -55.25 -51.3 -55.3 -54.25 -57.05 -57.25 -58.8 -59.0 -61.8 -60.75 -64.75 -60.8 -68.45 -60.75 -72.15 -59.0 -75.1 -57.25 -78.1 -54.25 -79.85 -51.3 -81.6 -47.6 -81.65 -43.9 -81.6 -40.95 -79.85 -37.95 -78.1 -36.2 -75.1 -34.45 -72.15 -34.4 -68.45" fill="#5e8b1c" fill-rule="evenodd" stroke="none"/>
    <path d="M49.75 -69.35 Q49.85 -65.65 48.75 -62.65 47.65 -59.65 45.65 -57.8 43.65 -55.95 41.15 -55.85 38.6 -55.8 36.5 -57.5 34.4 -59.2 33.1 -62.1 31.8 -65.05 31.65 -68.75 31.55 -72.45 32.65 -75.45 33.8 -78.45 35.75 -80.3 37.75 -82.1 40.25 -82.25 42.8 -82.3 44.9 -80.6 47.0 -78.9 48.3 -75.95 49.6 -73.05 49.75 -69.35" fill="#537419" fill-rule="evenodd" stroke="none"/>
    <path d="M39.6 -78.55 Q39.55 -73.55 37.15 -69.5 34.75 -65.45 30.7 -63.05 26.65 -60.65 21.65 -60.6 16.6 -60.65 12.55 -63.05 8.5 -65.45 6.1 -69.5 3.7 -73.55 3.65 -78.55 3.7 -83.6 6.1 -87.65 8.5 -91.7 12.55 -94.1 16.6 -96.5 21.65 -96.55 26.65 -96.5 30.7 -94.1 34.75 -91.7 37.15 -87.65 39.55 -83.6 39.6 -78.55" fill="#425d18" fill-rule="evenodd" stroke="none"/>
    <path d="M36.7 -107.15 Q36.65 -102.15 34.25 -98.1 31.85 -94.05 27.8 -91.65 23.75 -89.25 18.75 -89.2 13.7 -89.25 9.65 -91.65 5.6 -94.05 3.2 -98.1 0.8 -102.15 0.75 -107.15 0.8 -112.2 3.2 -116.25 5.6 -120.3 9.65 -122.7 13.7 -125.1 18.75 -125.15 23.75 -125.1 27.8 -122.7 31.85 -120.3 34.25 -116.25 36.65 -112.2 36.7 -107.15" fill="#425d18" fill-rule="evenodd" stroke="none"/>
    <path d="M28.6 -144.7 Q31.2 -142.9 31.8 -139.1 32.35 -135.35 30.95 -130.5 29.6 -125.65 26.35 -120.7 23.05 -115.75 19.1 -112.6 15.2 -109.45 11.5 -108.5 7.8 -107.55 5.1 -109.25 2.5 -111.05 1.9 -114.85 1.35 -118.6 2.75 -123.45 4.1 -128.3 7.35 -133.25 10.7 -138.2 14.6 -141.35 18.5 -144.5 22.2 -145.45 25.9 -146.4 28.6 -144.7" fill="#425d18" fill-rule="evenodd" stroke="none"/>
    <path d="M20.2 -149.45 Q23.05 -144.65 23.1 -138.7 23.05 -132.75 20.2 -127.95 17.35 -123.2 12.55 -120.35 7.75 -117.5 1.85 -117.45 -4.1 -117.5 -8.9 -120.35 -13.7 -123.2 -16.55 -128.0 -19.4 -132.8 -19.45 -138.7 -19.4 -144.65 -16.55 -149.45 -13.7 -154.25 -8.9 -157.1 -4.1 -159.95 1.85 -160.0 7.8 -159.95 12.6 -157.1 17.35 -154.25 20.2 -149.45" fill="#425d18" fill-rule="evenodd" stroke="none"/>
    <path d="M6.25 -139.1 Q6.2 -135.5 4.5 -132.65 2.75 -129.75 -0.15 -128.0 -3.0 -126.3 -6.6 -126.25 -10.2 -126.3 -13.1 -128.0 -16.0 -129.75 -17.7 -132.65 -19.4 -135.5 -19.45 -139.1 -19.4 -142.7 -17.7 -145.6 -16.0 -148.5 -13.1 -150.2 -10.2 -151.9 -6.6 -151.95 -3.0 -151.9 -0.15 -150.2 2.75 -148.5 4.5 -145.6 6.2 -142.7 6.25 -139.1" fill="#425d18" fill-rule="evenodd" stroke="none"/>
    <path d="M-9.2 -109.05 Q-9.25 -105.35 -11.0 -102.4 -12.75 -99.4 -15.75 -97.65 -18.7 -95.9 -22.4 -95.85 -26.1 -95.9 -29.05 -97.65 -32.05 -99.4 -33.8 -102.4 -35.55 -105.35 -35.6 -109.05 -35.55 -112.75 -33.8 -115.7 -32.05 -118.7 -29.05 -120.45 -26.1 -122.2 -22.4 -122.25 -18.7 -122.2 -15.75 -120.45 -12.75 -118.7 -11.0 -115.7 -9.25 -112.75 -9.2 -109.05" fill="#425d18" fill-rule="evenodd" stroke="none"/>
    <path d="M10.6 -100.6 Q10.55 -96.9 8.8 -93.95 7.05 -90.95 4.05 -89.2 1.1 -87.45 -2.6 -87.4 -6.3 -87.45 -9.25 -89.2 -12.25 -90.95 -14.0 -93.95 -15.75 -96.9 -15.8 -100.6 -15.75 -104.3 -14.0 -107.25 -12.25 -110.25 -9.25 -112.0 -6.3 -113.75 -2.6 -113.8 1.1 -113.75 4.05 -112.0 7.05 -110.25 8.8 -107.25 10.55 -104.3 10.6 -100.6" fill="#425d18" fill-rule="evenodd" stroke="none"/>
    <path d="M-36.85 -81.05 Q-38.15 -79.1 -40.65 -78.5 -43.15 -77.9 -46.25 -78.6 -49.35 -79.25 -52.45 -81.25 -55.55 -83.3 -57.45 -85.85 -59.3 -88.4 -59.8 -90.9 -60.25 -93.45 -59.0 -95.4 -57.7 -97.35 -55.2 -97.95 -52.7 -98.55 -49.6 -97.9 -46.5 -97.2 -43.4 -95.2 -40.3 -93.15 -38.45 -90.6 -36.55 -88.05 -36.1 -85.55 -35.6 -83.0 -36.85 -81.05" fill="#425d18" fill-rule="evenodd" stroke="none"/>
    <path d="M-41.8 -79.95 Q-40.9 -77.8 -41.7 -75.4 -42.55 -72.95 -44.8 -70.7 -47.05 -68.5 -50.4 -66.95 -53.8 -65.45 -56.95 -65.25 -60.1 -65.05 -62.5 -66.0 -64.9 -67.0 -65.85 -69.1 -66.8 -71.25 -65.95 -73.65 -65.1 -76.1 -62.85 -78.35 -60.6 -80.55 -57.25 -82.1 -53.9 -83.6 -50.7 -83.8 -47.55 -84.0 -45.15 -83.05 -42.8 -82.05 -41.8 -79.95" fill="#425d18" fill-rule="evenodd" stroke="none"/>
    <path d="M59.05 -58.55 Q57.3 -56.85 54.65 -56.65 52.0 -56.45 49.05 -57.7 46.1 -58.95 43.45 -61.55 40.85 -64.15 39.55 -67.05 38.25 -70.0 38.35 -72.65 38.5 -75.3 40.2 -77.05 41.95 -78.8 44.6 -78.95 47.25 -79.15 50.2 -77.9 53.15 -76.65 55.8 -74.1 58.4 -71.5 59.7 -68.55 61.0 -65.65 60.85 -63.0 60.75 -60.35 59.05 -58.55" fill="#425d18" fill-rule="evenodd" stroke="none"/>
    <path d="M19.3 -159.0 Q21.45 -156.0 22.35 -152.95 23.25 -149.95 22.9 -147.5 22.5 -145.0 20.75 -143.7 18.95 -142.45 16.5 -142.85 14.05 -143.2 11.45 -145.0 8.85 -146.8 6.65 -149.75 4.5 -152.75 3.6 -155.75 2.7 -158.8 3.05 -161.25 3.45 -163.7 5.2 -165.05 7.0 -166.3 9.45 -165.9 11.9 -165.55 14.5 -163.75 17.1 -161.95 19.3 -159.0" fill="#425d18" fill-rule="evenodd" stroke="none"/>
    <path d="M54.9 -101.35 Q54.85 -97.65 53.1 -94.7 51.35 -91.7 48.35 -89.95 45.4 -88.2 41.7 -88.15 38.0 -88.2 35.05 -89.95 32.05 -91.7 30.3 -94.7 28.55 -97.65 28.5 -101.35 28.55 -105.05 30.3 -108.0 32.05 -111.0 35.05 -112.75 38.0 -114.5 41.7 -114.55 45.4 -114.5 48.35 -112.75 51.35 -111.0 53.1 -108.0 54.85 -105.05 54.9 -101.35" fill="#425d18" fill-rule="evenodd" stroke="none"/>
    <path d="M-43.9 -87.8 Q-42.15 -85.9 -42.1 -83.6 -42.15 -81.3 -43.9 -79.4 -45.65 -77.55 -48.6 -76.45 -46.2 -75.75 -44.6 -73.9 -42.95 -71.75 -42.95 -68.95 -43.0 -66.15 -44.5 -63.3 -46.0 -60.4 -48.85 -58.1 -51.75 -55.8 -54.9 -54.95 L-60.75 -54.7 Q-63.5 -55.3 -65.2 -57.35 -66.9 -59.5 -66.85 -62.3 -66.85 -65.1 -65.35 -67.95 -63.8 -70.8 -60.95 -73.15 -59.25 -74.55 -57.35 -75.4 -60.55 -75.75 -63.05 -76.9 -65.55 -78.05 -67.0 -79.75 -68.45 -81.5 -68.5 -83.6 -68.45 -85.9 -66.7 -87.8 -64.95 -89.65 -61.95 -90.75 -59.0 -91.9 -55.3 -91.9 -51.6 -91.9 -48.65 -90.8 -45.65 -89.65 -43.9 -87.8 M-7.65 -149.85 Q-5.65 -147.4 -4.45 -143.9 -3.3 -140.4 -3.4 -137.25 -3.45 -134.05 -4.6 -131.8 -5.75 -129.55 -7.9 -128.8 -10.5 -128.0 -13.2 -129.7 -12.6 -126.6 -13.0 -123.85 -13.4 -121.15 -14.7 -119.2 -16.0 -117.3 -18.05 -116.6 -20.6 -115.85 -23.25 -117.25 -23.45 -114.95 -24.9 -113.3 -26.95 -111.2 -30.25 -111.2 -33.55 -111.2 -37.1 -113.2 L-37.15 -113.0 Q-37.45 -112.0 -38.25 -111.25 -35.85 -109.9 -34.6 -107.95 -33.1 -109.35 -31.2 -110.1 L-27.15 -110.85 Q-24.1 -110.85 -21.6 -109.35 -19.1 -107.9 -17.65 -105.4 -16.2 -102.95 -16.15 -99.85 L-16.25 -98.4 Q-12.15 -97.55 -8.95 -95.1 -5.7 -92.6 -3.85 -88.95 -2.0 -85.3 -1.95 -80.95 -2.05 -76.0 -4.4 -72.0 -6.75 -67.95 -10.8 -65.6 -14.8 -63.2 -19.75 -63.15 -24.75 -63.25 -28.75 -65.6 -32.75 -68.0 -35.1 -72.0 -37.5 -76.0 -37.55 -80.95 -37.55 -83.9 -36.65 -86.55 -35.75 -89.2 -34.15 -91.4 -35.65 -92.6 -36.65 -94.3 -37.65 -95.95 -38.0 -97.9 -39.75 -96.9 -41.95 -96.3 L-46.75 -95.7 Q-50.4 -95.75 -53.4 -96.9 -56.35 -98.1 -58.15 -100.05 -59.9 -102.05 -59.95 -104.5 -59.9 -107.2 -57.8 -109.3 -55.75 -111.4 -52.3 -112.5 -53.7 -113.7 -54.3 -115.05 -54.95 -116.45 -54.6 -117.8 -54.15 -119.3 -52.7 -120.2 -51.2 -121.1 -49.05 -121.3 L-44.5 -120.85 Q-46.05 -123.8 -46.05 -126.55 -46.0 -129.3 -44.35 -131.2 -42.9 -132.7 -40.75 -133.1 L-36.1 -132.9 Q-33.6 -132.25 -31.15 -130.65 -31.5 -134.75 -30.15 -137.8 -28.8 -140.85 -26.0 -141.8 -23.2 -142.6 -20.35 -140.9 -21.05 -144.0 -20.75 -146.7 -20.5 -149.4 -19.35 -151.3 -18.25 -153.15 -16.35 -153.85 -14.2 -154.5 -11.9 -153.45 -9.6 -152.35 -7.65 -149.85 M12.85 -140.45 Q15.0 -138.15 16.65 -134.85 18.25 -131.55 18.65 -128.45 19.1 -125.35 18.45 -123.1 17.75 -120.8 16.0 -119.9 14.0 -119.0 11.55 -120.15 12.75 -118.75 13.2 -117.4 13.65 -116.1 13.2 -114.9 12.5 -113.25 10.4 -112.55 8.25 -111.85 5.25 -112.1 2.25 -112.35 -1.1 -113.6 -4.45 -114.95 -6.8 -116.8 -9.2 -118.6 -10.3 -120.55 -11.35 -122.55 -10.75 -124.2 -10.1 -125.85 -7.95 -126.55 L-2.85 -127.0 Q0.15 -126.75 3.5 -125.5 L7.05 -123.75 Q5.25 -125.85 3.85 -128.7 2.3 -132.0 1.85 -135.1 1.4 -138.2 2.05 -140.5 2.75 -142.75 4.5 -143.65 6.3 -144.5 8.5 -143.6 10.7 -142.7 12.85 -140.45 M36.65 -136.6 Q39.35 -137.75 41.6 -137.7 43.9 -137.6 45.15 -136.2 46.35 -134.75 46.15 -132.55 45.9 -130.3 44.45 -127.8 47.4 -127.6 48.9 -125.65 50.1 -123.9 49.65 -121.45 49.25 -119.05 47.4 -116.5 45.6 -113.9 42.6 -111.75 40.8 -110.45 39.0 -109.65 40.95 -107.9 42.1 -105.5 43.25 -103.1 43.3 -100.25 43.25 -97.6 42.25 -95.3 L42.95 -95.15 Q44.8 -97.7 47.95 -99.8 50.85 -101.7 53.7 -102.45 L58.85 -102.8 Q61.15 -102.4 62.25 -100.75 63.6 -98.6 62.45 -95.6 61.3 -92.65 58.2 -89.85 61.2 -89.15 63.25 -87.45 65.35 -85.75 66.0 -83.2 66.7 -80.0 65.0 -77.05 68.3 -75.25 69.95 -72.9 71.6 -70.6 71.05 -68.35 70.45 -66.4 68.35 -65.25 66.2 -64.15 63.1 -64.0 59.95 -63.85 56.4 -64.8 53.15 -65.7 50.65 -67.25 48.2 -68.8 46.8 -70.65 44.35 -71.45 42.65 -73.05 40.95 -74.65 40.35 -76.9 40.0 -78.45 40.25 -80.0 L38.25 -79.15 Q34.75 -77.95 31.6 -78.0 28.4 -78.05 26.15 -79.15 23.9 -80.3 23.1 -82.4 22.55 -84.05 23.05 -85.8 23.6 -87.55 25.0 -89.2 21.95 -90.8 20.2 -93.7 18.4 -96.6 18.35 -100.25 18.4 -104.35 20.7 -107.5 22.95 -110.65 26.65 -112.0 26.35 -113.45 26.8 -115.15 27.2 -116.85 28.35 -118.6 27.1 -118.95 26.3 -119.85 25.1 -121.35 25.35 -123.6 25.6 -125.85 27.1 -128.4 28.65 -130.9 31.25 -133.2 33.9 -135.45 36.65 -136.6" fill="#425d18" fill-rule="evenodd" stroke="none"/>
    <path d="M-13.15 -109.2 Q-13.6 -108.25 -15.1 -108.2 -16.55 -108.1 -18.35 -108.9 -20.15 -109.7 -21.05 -110.9 -21.95 -112.05 -21.6 -113.0 -21.1 -113.95 -19.65 -114.05 -18.15 -114.15 -16.35 -113.35 -14.55 -112.5 -13.65 -111.35 -12.75 -110.15 -13.15 -109.2" fill="#537419" fill-rule="evenodd" stroke="none"/>
    <path d="M-8.95 -101.05 Q-9.4 -100.1 -10.9 -100.05 -12.35 -99.95 -14.15 -100.75 -15.95 -101.55 -16.85 -102.75 -17.75 -103.9 -17.4 -104.85 -16.9 -105.8 -15.45 -105.9 -13.95 -106.0 -12.15 -105.2 -10.35 -104.35 -9.45 -103.2 -8.55 -102.0 -8.95 -101.05" fill="#537419" fill-rule="evenodd" stroke="none"/>
    <path d="M22.15 -109.3 Q21.95 -106.3 21.1 -103.95 20.2 -101.55 18.85 -100.2 17.5 -98.85 15.9 -98.9 14.35 -99.0 13.15 -100.5 11.95 -102.0 11.3 -104.45 10.7 -106.9 10.85 -109.9 11.0 -112.85 11.9 -115.25 12.75 -117.6 14.1 -118.95 15.45 -120.3 17.05 -120.25 18.6 -120.15 19.8 -118.65 21.0 -117.15 21.65 -114.7 22.25 -112.25 22.15 -109.3" fill="#5e8b1c" fill-rule="evenodd" stroke="none"/>
    <path d="M15.45 -99.3 Q13.9 -99.4 12.9 -101.35 11.95 -103.3 11.95 -106.2 12.05 -109.1 13.1 -111.0 14.15 -112.9 15.7 -112.95 17.25 -112.85 18.2 -110.9 19.2 -108.95 19.15 -106.05 19.05 -103.15 18.0 -101.25 16.95 -99.35 15.45 -99.3" fill="#537419" fill-rule="evenodd" stroke="none"/>
    <path d="M31.15 -86.9 Q31.1 -85.9 29.8 -85.2 28.5 -84.5 26.55 -84.45 24.6 -84.45 23.25 -85.15 21.95 -85.85 21.9 -86.85 21.95 -87.9 23.25 -88.6 24.55 -89.3 26.5 -89.35 28.5 -89.35 29.8 -88.65 31.1 -87.95 31.15 -86.9" fill="#537419" fill-rule="evenodd" stroke="none"/>
    <path d="M-38.9 -85.65 Q-40.15 -86.45 -40.1 -87.5 -39.95 -88.55 -38.6 -89.1 L-35.25 -89.5 Q-33.3 -89.3 -32.05 -88.5 -30.8 -87.65 -30.85 -86.6 -31.0 -85.6 -32.4 -85.0 -33.75 -84.45 -35.7 -84.65 -37.65 -84.85 -38.9 -85.65" fill="#537419" fill-rule="evenodd" stroke="none"/>
    <path d="M26.1 -119.1 Q26.05 -120.15 27.3 -120.95 28.5 -121.8 30.45 -122.0 L33.8 -121.6 Q35.15 -121.05 35.35 -120.05 35.4 -119.0 34.15 -118.15 32.9 -117.35 30.95 -117.1 29.0 -116.95 27.65 -117.5 26.25 -118.05 26.1 -119.1" fill="#537419" fill-rule="evenodd" stroke="none"/>
    <path d="M22.8 -112.05 Q22.75 -113.1 24.0 -113.9 25.2 -114.75 27.15 -114.95 29.15 -115.15 30.5 -114.55 31.85 -114.0 32.05 -113.0 32.1 -111.95 30.85 -111.1 29.6 -110.3 27.65 -110.05 L24.35 -110.45 Q22.95 -111.0 22.8 -112.05" fill="#537419" fill-rule="evenodd" stroke="none"/>
    <path d="M34.85 -95.0 Q35.4 -93.7 34.25 -92.1 33.05 -90.5 30.7 -89.3 28.3 -88.2 26.3 -88.25 24.3 -88.3 23.65 -89.55 23.1 -90.85 24.25 -92.45 25.45 -94.05 27.8 -95.25 30.2 -96.35 32.2 -96.3 34.2 -96.25 34.85 -95.0" fill="#537419" fill-rule="evenodd" stroke="none"/>
    <path d="M-14.5 -111.7 Q-15.5 -111.25 -16.75 -112.1 -18.0 -112.9 -18.95 -114.65 -19.8 -116.45 -19.75 -117.95 -19.7 -119.45 -18.7 -120.0 -17.7 -120.45 -16.45 -119.6 -15.2 -118.8 -14.3 -117.05 -13.4 -115.3 -13.45 -113.8 -13.55 -112.25 -14.5 -111.7" fill="#537419" fill-rule="evenodd" stroke="none"/>
    <path d="M25.4 -119.5 Q24.3 -119.5 23.5 -120.8 22.75 -122.05 22.65 -124.05 22.6 -126.0 23.3 -127.35 24.0 -128.65 25.15 -128.75 26.25 -128.75 27.05 -127.45 27.8 -126.15 27.9 -124.2 27.9 -122.25 27.2 -120.9 26.5 -119.55 25.4 -119.5" fill="#537419" fill-rule="evenodd" stroke="none"/>
    <path d="M-2.3 -123.75 Q-4.1 -126.3 -4.45 -128.65 -4.75 -130.95 -3.45 -132.0 L0.05 -131.9 Q2.2 -130.9 4.05 -128.4 5.85 -125.85 6.15 -123.55 6.5 -121.2 5.2 -120.15 L1.65 -120.25 Q-0.45 -121.25 -2.3 -123.75" fill="#537419" fill-rule="evenodd" stroke="none"/>
    <path d="M4.0 -122.5 Q3.4 -123.7 3.45 -125.45 3.55 -127.2 4.25 -128.35 4.9 -129.5 5.85 -129.5 6.8 -129.4 7.4 -128.2 7.95 -127.0 7.9 -125.25 7.8 -123.5 7.15 -122.35 6.45 -121.2 5.5 -121.2 4.55 -121.3 4.0 -122.5" fill="#537419" fill-rule="evenodd" stroke="none"/>
    <path d="M-29.95 -89.15 Q-31.4 -87.7 -33.8 -87.7 -36.2 -87.75 -39.05 -89.05 -41.9 -90.4 -44.6 -92.95 -47.25 -95.5 -48.75 -98.25 -50.2 -101.0 -50.35 -103.45 -50.5 -105.85 -49.1 -107.35 -47.65 -108.8 -45.25 -108.8 -42.8 -108.8 -40.0 -107.45 -37.15 -106.1 -34.45 -103.6 -31.8 -101.05 -30.3 -98.25 -28.85 -95.5 -28.7 -93.1 -28.55 -90.7 -29.95 -89.15" fill="#537419" fill-rule="evenodd" stroke="none"/>
    <path d="M-20.5 -90.25 Q-20.7 -86.5 -22.05 -84.1 -23.4 -81.7 -25.25 -81.65 -26.45 -81.75 -27.4 -82.95 -28.3 -84.2 -28.8 -86.2 -29.3 -88.2 -29.2 -90.65 -29.05 -93.1 -28.4 -95.05 -27.7 -97.0 -26.7 -98.1 -25.65 -99.25 -24.45 -99.2 -23.25 -99.1 -22.3 -97.9 -21.35 -96.7 -20.9 -94.7 -20.4 -92.7 -20.5 -90.25" fill="#5e8b1c" fill-rule="evenodd" stroke="none"/>
    <path d="M-20.5 -88.8 Q-20.7 -85.05 -22.05 -82.65 -23.4 -80.25 -25.25 -80.2 -26.45 -80.3 -27.4 -81.5 -28.3 -82.75 -28.8 -84.75 -29.3 -86.75 -29.2 -89.2 -29.05 -91.65 -28.4 -93.6 -27.7 -95.55 -26.7 -96.65 -25.65 -97.8 -24.45 -97.75 -23.25 -97.65 -22.3 -96.45 -21.35 -95.25 -20.9 -93.25 -20.4 -91.25 -20.5 -88.8" fill="#537419" fill-rule="evenodd" stroke="none"/>
    <path d="M-14.35 -90.95 Q-15.4 -90.65 -16.6 -91.85 -17.75 -93.0 -18.5 -95.1 -19.15 -97.2 -18.95 -98.85 -18.7 -100.5 -17.7 -100.9 -16.65 -101.2 -15.45 -100.0 -14.3 -98.85 -13.6 -96.75 -12.9 -94.65 -13.1 -93.0 -13.35 -91.4 -14.35 -90.95" fill="#537419" fill-rule="evenodd" stroke="none"/>
    <path d="M-12.05 -88.8 Q-12.95 -88.95 -13.35 -90.25 -13.8 -91.5 -13.55 -93.3 -13.3 -95.05 -12.55 -96.15 -11.8 -97.25 -10.9 -97.2 -10.05 -97.05 -9.6 -95.75 -9.2 -94.5 -9.4 -92.7 -9.65 -90.95 -10.4 -89.8 -11.15 -88.7 -12.05 -88.8" fill="#537419" fill-rule="evenodd" stroke="none"/>
    <path d="M-12.7 -108.0 Q-13.6 -108.15 -14.0 -109.45 -14.45 -110.7 -14.2 -112.5 -13.95 -114.25 -13.2 -115.35 -12.45 -116.45 -11.55 -116.4 -10.7 -116.25 -10.25 -114.95 -9.85 -113.7 -10.05 -111.9 -10.3 -110.15 -11.05 -109.0 -11.8 -107.9 -12.7 -108.0" fill="#537419" fill-rule="evenodd" stroke="none"/>
    <path d="M-22.75 -78.9 Q-24.15 -79.55 -24.25 -81.85 -24.35 -84.15 -23.15 -87.0 -21.85 -89.8 -20.1 -91.25 -18.35 -92.75 -16.9 -92.2 -15.55 -91.5 -15.4 -89.2 -15.3 -86.9 -16.55 -84.1 -17.8 -81.25 -19.55 -79.8 -21.35 -78.35 -22.75 -78.9" fill="#537419" fill-rule="evenodd" stroke="none"/>
    <path d="M-54.05 -70.6 Q-54.6 -71.75 -53.7 -73.25 -52.8 -74.7 -50.85 -75.75 -48.9 -76.75 -47.2 -76.7 -45.5 -76.65 -44.85 -75.5 -44.3 -74.35 -45.15 -72.9 -46.05 -71.45 -48.0 -70.4 -49.95 -69.35 -51.65 -69.45 -53.4 -69.5 -54.05 -70.6" fill="#537419" fill-rule="evenodd" stroke="none"/>
    <path d="M33.25 -70.55 Q33.4 -69.05 31.55 -67.7 29.65 -66.35 26.65 -65.85 L21.4 -66.05 Q19.2 -66.75 18.85 -68.25 18.7 -69.75 20.55 -71.1 22.45 -72.45 25.45 -72.95 L30.7 -72.75 Q32.9 -72.05 33.25 -70.55" fill="#537419" fill-rule="evenodd" stroke="none"/>
    <path d="M59.55 -79.5 Q59.75 -78.2 58.65 -76.95 57.55 -75.7 55.55 -74.7 53.5 -73.75 50.85 -73.3 L46.0 -73.15 Q43.8 -73.45 42.35 -74.3 40.9 -75.15 40.7 -76.45 40.5 -77.75 41.6 -79.0 42.65 -80.25 44.7 -81.25 46.7 -82.2 49.35 -82.65 L54.2 -82.8 Q56.45 -82.5 57.85 -81.65 59.3 -80.8 59.55 -79.5" fill="#537419" fill-rule="evenodd" stroke="none"/>
    <path d="M20.5 -146.5 Q19.8 -145.6 18.4 -145.45 16.95 -145.35 15.15 -146.0 13.35 -146.6 11.45 -147.95 8.65 -150.0 7.45 -152.3 6.25 -154.55 7.15 -156.0 7.85 -156.9 9.25 -157.05 10.7 -157.15 12.5 -156.5 14.3 -155.9 16.2 -154.55 19.0 -152.5 20.2 -150.2 21.4 -147.95 20.5 -146.5" fill="#537419" fill-rule="evenodd" stroke="none"/>
    <path d="M20.25 -146.85 Q20.3 -145.85 19.05 -145.1 17.8 -144.3 15.8 -144.1 13.8 -143.9 12.4 -144.45 11.0 -145.0 10.85 -145.95 10.8 -146.95 12.05 -147.75 13.35 -148.55 15.35 -148.75 L18.75 -148.4 Q20.1 -147.85 20.25 -146.85" fill="#537419" fill-rule="evenodd" stroke="none"/>
    <path d="M-32.55 -100.15 Q-33.85 -100.45 -34.4 -102.4 -34.95 -104.35 -34.5 -107.0 -33.95 -109.65 -32.75 -111.25 -31.55 -112.85 -30.2 -112.65 -28.9 -112.35 -28.35 -110.45 -27.8 -108.5 -28.25 -105.85 -28.8 -103.2 -30.0 -101.6 -31.2 -99.95 -32.55 -100.15" fill="#537419" fill-rule="evenodd" stroke="none"/>
    <path d="M25.65 -120.0 L28.85 -125.15 30.0 -127.05 29.15 -124.55 27.1 -118.1 24.35 -109.6 21.45 -100.9 19.05 -93.9 17.65 -90.4 19.6 -91.3 24.25 -93.0 29.6 -93.95 Q32.2 -94.05 33.65 -92.6 27.25 -89.05 23.55 -86.25 19.9 -83.5 18.2 -81.6 16.5 -79.65 16.05 -78.7 L15.7 -77.7 18.4 -78.55 Q21.1 -79.3 25.75 -79.85 30.45 -80.35 36.4 -79.75 42.4 -79.15 49.05 -76.45 43.25 -76.5 37.4 -75.2 31.6 -73.9 26.85 -71.8 22.1 -69.65 19.45 -67.25 16.85 -64.8 17.4 -62.55 20.55 -51.5 24.1 -41.45 27.65 -31.45 32.25 -22.35 36.85 -13.25 43.1 -4.9 49.4 3.4 58.0 11.1 L45.55 8.2 38.1 7.05 34.45 6.95 Q33.35 7.15 33.15 7.4 L33.05 7.65 32.7 8.2 Q32.4 8.75 32.75 9.85 33.05 10.95 34.9 12.6 36.7 14.25 40.85 16.45 38.2 17.5 35.1 16.8 31.95 16.1 28.45 14.45 L21.2 10.85 Q17.45 9.0 13.55 7.6 9.6 6.25 5.65 6.2 L-1.1 6.6 Q-3.9 7.0 -6.5 7.95 -9.1 8.85 -12.25 10.3 L-20.0 13.9 Q-24.55 16.05 -31.3 18.9 -27.75 14.55 -26.3 11.45 -24.85 8.35 -24.65 6.45 -24.45 4.5 -24.8 3.65 L-25.15 2.75 -28.7 3.5 -39.5 4.5 Q-46.7 4.9 -57.7 4.25 -44.2 -0.8 -35.7 -7.45 -27.15 -14.15 -22.55 -21.5 -17.9 -28.85 -16.05 -35.85 -14.2 -42.85 -14.1 -48.55 -14.0 -54.2 -14.55 -57.6 L-15.15 -61.05 -49.65 -104.35 -47.35 -102.45 -41.45 -97.6 -33.1 -91.4 Q-28.5 -88.1 -23.65 -85.15 -18.8 -82.25 -14.35 -80.45 -9.85 -78.65 -6.4 -78.7 -3.0 -78.75 -1.2 -81.35 L-3.45 -85.4 -7.25 -92.85 -11.3 -101.6 Q-13.25 -106.1 -14.3 -109.7 -15.35 -113.35 -14.9 -115.1 L-11.2 -109.35 -6.8 -102.7 Q-4.45 -99.45 -2.05 -97.15 0.35 -94.9 2.55 -94.6 4.8 -94.35 6.65 -97.0 10.7 -100.7 14.25 -104.8 17.8 -108.9 20.65 -112.85 L25.65 -120.0" fill="#73420a" fill-rule="evenodd" stroke="none"/>
    <path d="M-22.85 -3.2 L-24.3 0.55 Q-25.8 1.65 -29.05 2.25 L-36.3 3.05 -43.95 3.25 -50.05 3.2 -52.5 3.1 -49.9 2.4 Q-47.3 1.65 -43.1 -0.3 -38.9 -2.3 -34.0 -5.95 -29.15 -9.6 -24.5 -15.45 -19.85 -21.25 -16.4 -29.7 -14.1 -35.2 -12.7 -42.0 -13.85 -35.2 -14.95 -30.0 -16.6 -22.0 -18.05 -16.85 -19.5 -11.65 -20.7 -8.45 -21.9 -5.25 -22.85 -3.2" fill="#52330c" fill-rule="evenodd" stroke="none"/>
    <path d="M14.8 -24.8 Q16.8 -17.1 20.0 -9.45 23.15 -1.85 27.75 5.0 32.35 11.85 38.6 17.1 L31.25 14.15 23.05 10.6 15.6 7.35 10.45 5.2 Q7.55 -2.35 6.3 -10.35 5.05 -18.3 4.95 -25.95 4.9 -33.65 5.55 -40.4 6.2 -47.15 7.1 -52.35 L8.7 -60.45 9.45 -63.45 9.5 -60.25 10.1 -51.7 Q10.55 -46.3 11.7 -39.4 12.8 -32.45 14.8 -24.8" fill="#52330c" fill-rule="evenodd" stroke="none"/>
    <path d="M-24.5 -66.2 Q-25.35 -63.15 -27.35 -60.05 -29.4 -57.0 -31.8 -55.0 -34.25 -53.05 -36.6 -52.45 -38.9 -51.9 -40.6 -52.95 -42.25 -54.1 -42.65 -56.45 -43.05 -58.8 -42.25 -61.85 -41.4 -64.85 -39.4 -67.95 -37.35 -71.05 -34.95 -73.0 -32.5 -74.95 -30.2 -75.55 -27.85 -76.15 -26.15 -75.05 -24.5 -73.9 -24.1 -71.55 -23.7 -69.2 -24.5 -66.2" fill="#425d18" fill-rule="evenodd" stroke="none"/>
    <path d="M-32.8 -63.05 Q-34.2 -64.0 -34.15 -66.25 -34.1 -68.55 -32.55 -71.05 -30.95 -73.5 -28.95 -74.55 L-25.45 -74.75 Q-24.05 -73.8 -24.1 -71.55 -24.2 -69.3 -25.7 -66.75 -27.3 -64.3 -29.3 -63.25 -31.3 -62.2 -32.8 -63.05" fill="#537419" fill-rule="evenodd" stroke="none"/>
    <path d="M-1.35 -105.15 Q-1.5 -102.05 -0.65 -99.7 0.15 -97.35 1.0 -96.0 L1.95 -94.65 0.45 -94.85 Q-1.05 -95.15 -3.6 -96.75 -5.2 -97.85 -6.75 -99.7 -8.35 -101.6 -10.25 -105.2 -12.15 -108.75 -14.85 -114.9 L-10.8 -108.95 -6.6 -103.65 Q-6.1 -103.3 -4.85 -103.85 -3.6 -104.45 -2.5 -105.05 L-1.35 -105.15" fill="#52330c" fill-rule="evenodd" stroke="none"/>
    <path d="M33.35 -92.7 L31.7 -91.6 27.75 -88.85 22.85 -85.2 Q20.3 -83.25 18.35 -81.4 16.4 -79.55 15.75 -78.15 14.95 -76.55 13.8 -76.4 12.65 -76.25 11.55 -76.9 10.5 -77.55 9.9 -78.4 9.3 -79.2 9.6 -79.55 L11.4 -80.8 14.05 -82.7 Q15.35 -83.7 15.6 -84.4 15.85 -85.05 14.05 -84.9 12.85 -84.8 13.75 -85.3 L16.8 -86.7 21.8 -88.6 27.2 -90.55 31.55 -92.1 33.35 -92.7" fill="#52330c" fill-rule="evenodd" stroke="none"/>
    <path d="M44.45 -76.4 L39.6 -75.75 Q35.55 -75.05 30.3 -73.05 25.0 -71.05 19.0 -67.15 18.25 -66.7 17.8 -67.15 17.35 -67.6 17.2 -68.25 L17.05 -68.95 17.0 -69.75 Q16.9 -70.45 16.2 -70.9 15.45 -71.3 13.55 -70.55 14.1 -72.0 16.8 -73.05 19.45 -74.05 23.4 -74.7 L31.65 -75.7 39.7 -76.25 44.45 -76.4" fill="#52330c" fill-rule="evenodd" stroke="none"/>
    <path d="M-4.65 -78.95 L-9.4 -78.65 Q-12.55 -79.1 -17.8 -81.6 -23.05 -84.1 -30.9 -89.55 -38.75 -95.05 -49.65 -104.4 L-47.1 -102.65 -40.7 -98.45 -32.4 -93.3 Q-28.05 -90.7 -24.15 -88.75 -20.25 -86.85 -17.8 -86.45 -15.35 -86.0 -15.3 -87.8 -15.25 -89.65 -18.55 -94.45 L-14.8 -94.35 Q-12.65 -93.45 -10.5 -91.6 L-6.45 -87.65 -3.45 -83.95 -2.2 -82.0 Q-2.1 -81.65 -2.6 -80.7 -3.1 -79.7 -4.65 -78.95" fill="#52330c" fill-rule="evenodd" stroke="none"/>
  </g>
</svg>
