<?xml version="1.0" encoding="UTF-8" standalone="no"?>
<svg xmlns:xlink="http://www.w3.org/1999/xlink" height="69.45px" width="53.05px" xmlns="http://www.w3.org/2000/svg">
  <g transform="matrix(1.0, 0.0, 0.0, 1.0, 26.5, 66.45)">
    <path d="M25.3 -62.4 L25.95 -62.9 16.7 -63.7 14.15 -62.05 15.65 -61.95 14.4 -61.05 22.1 -60.25 10.95 -52.7 10.75 -52.7 3.8 -53.45 -18.75 -55.75 -18.7 -55.75 -18.45 -55.95 -16.4 -55.75 -15.4 -56.4 -7.15 -55.55 -5.05 -57.0 -0.2 -56.5 -3.15 -54.65 6.15 -53.65 6.2 -53.65 11.1 -53.15 14.85 -55.7 14.95 -55.7 18.8 -58.35 16.8 -58.5 18.15 -59.45 12.7 -59.9 11.8 -59.3 8.05 -59.7 5.0 -57.8 7.05 -57.55 5.65 -56.7 6.6 -56.6 0.75 -57.1 0.4 -56.85 3.7 -59.15 1.6 -59.3 1.9 -59.55 4.1 -59.3 7.3 -61.5 11.1 -61.1 14.95 -63.75 5.7 -64.55 2.35 -62.4 -1.3 -62.75 -3.55 -61.3 -4.25 -61.35 -3.9 -61.65 -13.15 -62.45 -17.05 -60.0 -9.4 -59.15 -9.6 -59.05 -7.3 -58.8 -7.65 -58.55 -12.55 -59.0 -13.4 -58.45 -21.8 -59.2 -22.95 -58.45 -23.05 -58.45 -26.05 -56.5 -26.15 -56.5 -26.3 -56.55 -10.75 -66.45 -3.65 -65.8 -3.55 -65.9 3.4 -65.3 3.3 -65.2 26.35 -63.15 25.3 -62.4 M22.75 -60.65 L23.55 -61.25 23.55 -61.2 22.75 -60.65 M9.9 -56.2 L9.95 -56.25 11.1 -56.1 9.9 -56.2 M26.35 -63.15 L26.4 -63.15 26.35 -63.1 26.35 -63.15 M-4.0 -63.75 L-6.45 -64.05 -4.0 -65.6 -10.9 -66.2 -14.8 -63.75 -12.7 -63.5 -13.45 -63.05 -4.15 -62.05 -1.95 -63.55 -4.0 -63.75" fill="#1b6a32" fill-rule="evenodd" stroke="none"/>
    <path d="M22.1 -60.25 L14.4 -61.05 15.65 -61.95 14.15 -62.05 16.7 -63.7 25.95 -62.9 25.3 -62.4 23.55 -61.25 22.75 -60.65 22.1 -60.25 M-26.05 -56.5 L-23.05 -58.45 -22.95 -58.45 -15.75 -57.8 -18.45 -55.95 -18.7 -55.75 -18.75 -55.75 -19.2 -55.8 -26.1 -56.5 -26.05 -56.5 M-7.3 -58.8 L-9.6 -59.05 -9.4 -59.15 -5.7 -61.5 -4.25 -61.35 -3.55 -61.3 3.55 -60.7 1.9 -59.55 1.6 -59.3 -5.55 -59.95 -7.3 -58.8 M7.05 -57.55 L5.0 -57.8 8.05 -59.7 11.8 -59.3 12.7 -59.9 18.15 -59.45 16.8 -58.5 14.3 -56.8 7.05 -57.55 M-12.7 -63.5 L-14.8 -63.75 -10.9 -66.2 -4.0 -65.6 -6.45 -64.05 -4.0 -63.75 -5.5 -62.75 -12.7 -63.5" fill="#4b7a3a" fill-rule="evenodd" stroke="none"/>
    <path d="M-9.4 -59.15 L-17.05 -60.0 -13.15 -62.45 -3.9 -61.65 -4.25 -61.35 -5.7 -61.5 -9.4 -59.15 M2.35 -62.4 L5.7 -64.55 14.95 -63.75 11.1 -61.1 7.3 -61.5 7.95 -61.95 2.35 -62.4 M14.85 -55.7 L11.1 -53.15 6.2 -53.65 1.8 -54.15 5.7 -56.6 9.9 -56.2 11.1 -56.1 14.95 -55.8 14.85 -55.7" fill="#5ea53e" fill-rule="evenodd" stroke="none"/>
    <path d="M-26.15 -56.5 L-26.05 -56.5 -26.1 -56.5 -19.2 -55.8 -19.2 -55.65 -21.2 -55.85 -21.15 -51.95 -24.1 -52.25 -24.05 -49.9 -26.05 -50.2 -26.15 -56.5 M-13.4 -58.45 L-12.55 -59.0 -7.65 -58.55 -7.3 -58.8 -5.55 -59.95 1.6 -59.3 3.7 -59.15 0.4 -56.85 -0.15 -56.5 -0.2 -56.5 -5.05 -57.0 -7.15 -55.55 -15.4 -56.4 -16.45 -56.55 -13.4 -58.45 M-3.55 -61.3 L-1.3 -62.75 2.35 -62.4 7.95 -61.95 7.3 -61.5 4.1 -59.3 1.9 -59.55 3.55 -60.7 -3.55 -61.3 M3.6 -43.4 L4.85 -43.25 4.85 -45.1 10.5 -44.55 10.5 -37.9 3.65 -38.9 3.6 -43.4 M13.15 -49.95 L11.85 -49.1 11.9 -46.55 11.05 -46.1 11.0 -52.7 14.0 -54.7 14.0 -54.55 13.1 -53.95 13.15 -49.95 M16.05 -51.05 L18.1 -52.45 18.05 -57.25 20.95 -59.2 20.95 -52.5 18.45 -51.0 18.45 -50.6 18.45 -45.95 17.8 -45.55 15.95 -44.35 15.55 -44.15 15.55 -47.75 15.55 -48.8 16.05 -49.15 16.05 -51.05 M19.05 -46.1 L20.0 -46.8 20.0 -46.2 21.35 -47.15 21.35 -45.7 20.0 -44.9 20.05 -42.3 18.8 -41.45 18.8 -41.2 18.5 -41.0 18.5 -43.85 19.05 -44.25 19.05 -46.1 M22.9 -43.4 L23.55 -43.85 23.55 -39.45 25.2 -40.45 25.2 -38.45 24.15 -37.75 23.45 -37.25 23.45 -33.05 23.0 -32.7 20.6 -31.15 20.6 -35.8 21.1 -36.15 21.1 -36.35 21.7 -36.75 21.7 -38.5 22.4 -39.0 22.4 -41.2 22.9 -41.55 22.9 -43.4 M24.2 -35.4 L26.4 -37.05 26.45 -30.35 24.3 -28.9 24.25 -32.75 23.65 -32.25 23.65 -33.05 24.2 -33.45 24.2 -35.4 M24.0 -53.2 L26.25 -54.8 26.3 -48.2 23.5 -46.45 23.5 -51.05 24.0 -51.4 24.0 -53.2 M17.8 -44.45 L18.3 -44.8 18.3 -43.75 18.3 -40.85 18.3 -38.0 18.25 -37.95 16.35 -36.75 15.4 -36.15 15.4 -36.5 15.4 -37.9 15.4 -40.85 15.95 -41.25 15.95 -43.1 17.8 -44.45 M13.45 -32.85 L11.1 -31.4 11.05 -38.0 14.05 -40.15 14.05 -35.5 14.05 -33.25 13.45 -32.85 M0.85 -34.75 L2.1 -34.6 2.1 -36.45 3.75 -36.3 3.8 -31.85 7.75 -31.3 7.75 -29.25 5.15 -29.6 3.55 -29.8 3.55 -26.05 2.25 -26.2 -3.3 -27.0 -3.35 -31.2 -2.3 -31.05 -2.3 -31.25 -0.8 -31.05 -0.8 -33.15 0.85 -32.95 0.85 -34.75 M-4.8 -40.7 L-4.75 -38.1 -7.75 -38.4 -7.75 -38.25 -8.45 -38.3 -8.5 -41.1 -7.25 -40.95 -7.25 -42.75 -4.9 -42.55 -4.9 -40.7 -4.8 -40.7 M3.85 -24.8 L3.85 -25.6 5.15 -25.4 5.15 -27.25 10.75 -26.7 10.75 -20.05 5.4 -20.8 5.4 -24.65 3.85 -24.8 M16.4 -32.25 L17.05 -32.75 17.05 -29.45 18.75 -30.5 18.75 -29.05 17.5 -28.1 17.55 -21.55 17.95 -21.8 15.05 -19.85 15.05 -24.1 15.6 -24.5 15.6 -26.9 15.85 -27.05 15.85 -29.95 16.4 -30.35 16.4 -32.25 M-15.5 -48.65 L-14.25 -48.5 -14.25 -50.35 -9.4 -49.85 -9.5 -54.6 -2.55 -53.9 -2.55 -47.25 -8.6 -48.1 -8.6 -47.7 -8.6 -43.15 -10.15 -43.35 -14.65 -44.0 -15.45 -44.15 -15.5 -47.65 -15.5 -48.65 M-10.15 -42.3 L-9.05 -42.2 -9.05 -41.2 -9.05 -38.35 -9.05 -35.55 -9.2 -35.55 -13.55 -36.2 -15.9 -36.55 -15.9 -36.8 -15.9 -38.15 -15.95 -41.15 -14.65 -40.95 -14.65 -42.75 -10.15 -42.3 M-20.45 -35.2 L-25.9 -36.0 -26.0 -42.35 -19.05 -41.65 -19.05 -37.15 -19.05 -35.0 -20.45 -35.2 M-13.55 -31.8 L-12.1 -31.65 -12.05 -28.45 -7.95 -27.85 -7.95 -26.4 -10.9 -26.7 -10.8 -20.35 -9.85 -20.2 -16.7 -21.15 -16.75 -25.25 -15.5 -25.1 -15.5 -27.4 -14.8 -27.35 -14.85 -30.1 -13.55 -29.95 -13.55 -31.8" fill="#2a892c" fill-rule="evenodd" stroke="none"/>
    <path d="M-22.95 -58.45 L-21.8 -59.2 -13.4 -58.45 -16.45 -56.55 -15.4 -56.4 -16.4 -55.75 -18.45 -55.95 -15.75 -57.8 -22.95 -58.45 M0.4 -56.85 L0.75 -57.1 6.6 -56.6 5.65 -56.7 7.05 -57.55 14.3 -56.8 16.8 -58.5 18.8 -58.35 14.95 -55.7 14.85 -55.7 14.95 -55.8 11.1 -56.1 9.95 -56.25 9.9 -56.2 5.7 -56.6 1.8 -54.15 6.2 -53.65 6.15 -53.65 -3.15 -54.65 -0.2 -56.5 -0.15 -56.5 0.4 -56.85 M-4.0 -63.75 L-1.95 -63.55 -4.15 -62.05 -13.45 -63.05 -12.7 -63.5 -5.5 -62.75 -4.0 -63.75" fill="#54b02c" fill-rule="evenodd" stroke="none"/>
    <path d="M25.3 -62.4 L26.35 -63.15 26.35 -63.1 26.35 -63.05 26.4 -56.55 24.0 -55.1 24.0 -53.2 24.0 -51.4 23.5 -51.05 22.85 -50.65 22.8 -53.35 21.2 -52.2 21.15 -56.1 23.6 -57.75 23.55 -61.2 23.55 -61.25 25.3 -62.4 M3.8 -53.45 L10.75 -52.7 10.75 -46.15 4.85 -47.0 4.85 -45.1 4.85 -43.25 3.6 -43.4 1.95 -43.65 1.95 -46.35 -2.05 -46.75 -2.1 -50.6 3.85 -50.0 3.8 -53.45 M15.55 -48.8 L14.85 -48.4 14.85 -51.15 13.15 -49.95 13.1 -53.95 14.0 -54.55 16.05 -55.95 16.05 -51.05 16.05 -49.15 15.55 -48.8 M18.45 -50.6 L19.0 -51.0 19.05 -46.1 19.05 -44.25 18.5 -43.85 18.3 -43.75 18.3 -44.8 17.8 -44.45 17.8 -45.55 18.45 -45.95 18.45 -50.6 M21.35 -45.7 L22.85 -46.65 22.9 -43.4 22.9 -41.55 22.4 -41.2 21.7 -40.75 21.7 -43.5 20.05 -42.3 20.0 -44.9 21.35 -45.7 M24.15 -37.75 L24.2 -35.4 24.2 -33.45 23.65 -33.05 23.0 -32.65 23.0 -32.7 23.45 -33.05 23.45 -37.25 24.15 -37.75 M24.3 -28.9 L24.3 -26.0 21.45 -24.1 21.4 -30.6 23.65 -32.25 24.25 -32.75 24.3 -28.9 M21.1 -36.35 L21.1 -36.15 20.6 -35.8 19.95 -35.35 19.95 -35.6 21.1 -36.35 M15.55 -47.75 L15.55 -44.15 15.95 -44.35 15.95 -43.1 15.95 -41.25 15.4 -40.85 14.9 -40.55 14.7 -40.45 14.7 -43.2 13.0 -42.0 13.0 -43.15 14.85 -44.35 14.85 -47.3 15.55 -47.75 M18.5 -41.0 L18.8 -41.2 18.85 -37.3 18.25 -36.85 18.25 -37.95 18.3 -38.0 18.3 -40.85 18.5 -41.0 M15.4 -36.5 L15.4 -36.15 16.35 -36.75 16.4 -32.25 16.4 -30.35 15.85 -29.95 15.6 -29.8 15.6 -26.9 15.6 -24.5 15.05 -24.1 14.35 -23.65 14.35 -26.45 12.65 -25.15 12.6 -29.2 15.15 -31.05 15.15 -32.3 13.45 -31.05 13.45 -32.85 14.05 -33.25 14.05 -35.5 15.4 -36.5 M2.1 -36.45 L2.1 -34.6 0.85 -34.75 -0.8 -35.0 -0.8 -37.7 -4.75 -38.1 -4.8 -40.7 -4.85 -41.95 2.1 -41.25 2.1 -36.45 M-2.3 -31.25 L-2.3 -31.05 -3.35 -31.2 -5.2 -31.45 -5.2 -31.65 -2.3 -31.25 M2.25 -26.2 L3.55 -26.05 3.55 -29.8 5.15 -29.6 5.15 -27.25 5.15 -25.4 3.85 -25.6 2.25 -25.8 2.25 -26.2 M17.95 -21.8 L17.55 -21.55 17.5 -28.1 18.75 -29.05 20.4 -30.3 20.45 -23.5 17.95 -21.8 M5.4 -20.8 L5.4 -18.0 -1.45 -19.0 -1.55 -25.35 3.85 -24.8 5.4 -24.65 5.4 -20.8 M-21.15 -51.95 L-21.2 -55.85 -19.2 -55.65 -14.25 -55.15 -14.25 -50.35 -14.25 -48.5 -15.5 -48.65 -17.15 -48.9 -17.15 -51.55 -21.15 -51.95 M-8.6 -47.7 L-7.25 -47.6 -7.25 -42.75 -7.25 -40.95 -8.5 -41.1 -9.05 -41.2 -9.05 -42.2 -10.15 -42.3 -10.15 -43.35 -8.6 -43.15 -8.6 -47.7 M-8.45 -38.3 L-7.75 -38.25 -7.65 -34.35 -9.2 -34.5 -9.2 -35.55 -9.05 -35.55 -9.05 -38.35 -8.45 -38.3 M-14.65 -42.75 L-14.65 -40.95 -15.95 -41.15 -17.05 -41.3 -17.55 -41.35 -17.55 -44.0 -21.55 -44.4 -21.55 -45.55 -17.15 -44.9 -17.15 -47.85 -15.5 -47.65 -15.45 -44.15 -14.65 -44.0 -14.65 -42.75 M-15.9 -36.8 L-15.9 -36.55 -13.55 -36.2 -13.55 -31.8 -13.55 -29.95 -14.85 -30.1 -15.5 -30.2 -15.5 -27.4 -15.5 -25.1 -16.75 -25.25 -18.35 -25.5 -18.35 -28.2 -22.4 -28.6 -22.45 -32.45 -16.45 -31.85 -16.45 -33.0 -20.45 -33.4 -20.45 -35.2 -19.05 -35.0 -19.05 -37.15 -15.9 -36.8 M-7.95 -26.4 L-3.95 -26.0 -3.95 -19.35 -9.85 -20.2 -10.8 -20.35 -10.9 -26.7 -7.95 -26.4" fill="#2f6e2f" fill-rule="evenodd" stroke="none"/>
    <path d="M-26.3 -56.55 L-26.15 -56.5 -26.05 -50.2 -24.05 -49.9 -24.1 -52.25 -21.15 -51.95 -17.15 -51.55 -17.15 -48.9 -15.5 -48.65 -15.5 -47.65 -17.15 -47.85 -17.15 -44.9 -21.55 -45.55 -21.55 -44.4 -17.55 -44.0 -17.55 -41.35 -17.05 -41.3 -17.0 -38.3 -15.9 -38.15 -15.9 -36.8 -19.05 -37.15 -19.05 -41.65 -26.0 -42.35 -25.9 -36.0 -20.45 -35.2 -20.45 -33.4 -16.45 -33.0 -16.45 -31.85 -22.45 -32.45 -22.4 -28.6 -18.35 -28.2 -18.35 -25.5 -16.75 -25.25 -16.7 -21.15 -9.85 -20.2 -3.95 -19.35 -3.95 -26.0 -7.95 -26.4 -7.95 -27.85 -12.05 -28.45 -12.1 -31.65 -13.55 -31.8 -13.55 -36.2 -9.2 -35.55 -9.2 -34.5 -7.65 -34.35 -7.75 -38.25 -7.75 -38.4 -4.75 -38.1 -0.8 -37.7 -0.8 -35.0 0.85 -34.75 0.85 -32.95 -0.8 -33.15 -0.8 -31.05 -2.3 -31.25 -5.2 -31.65 -5.2 -31.45 -3.35 -31.2 -3.3 -27.0 2.25 -26.2 2.25 -25.8 3.85 -25.6 3.85 -24.8 -1.55 -25.35 -1.45 -19.0 5.4 -18.0 5.4 -20.8 10.75 -20.05 10.75 -26.7 5.15 -27.25 5.15 -29.6 7.75 -29.25 7.75 -31.3 3.8 -31.85 3.75 -36.3 2.1 -36.45 2.1 -41.25 -4.85 -41.95 -4.8 -40.7 -4.9 -40.7 -4.9 -42.55 -7.25 -42.75 -7.25 -47.6 -8.6 -47.7 -8.6 -48.1 -2.55 -47.25 -2.55 -53.9 -9.5 -54.6 -9.4 -49.85 -14.25 -50.35 -14.25 -55.15 -19.2 -55.65 -19.2 -55.8 -18.75 -55.75 3.8 -53.45 3.85 -50.0 -2.1 -50.6 -2.05 -46.75 1.95 -46.35 1.95 -43.65 3.6 -43.4 3.65 -38.9 10.5 -37.9 10.5 -44.55 4.85 -45.1 4.85 -47.0 10.75 -46.15 10.75 -52.7 10.95 -52.7 11.0 -52.7 23.55 -61.2 23.6 -57.75 21.15 -56.1 21.2 -52.2 22.8 -53.35 22.85 -50.65 23.5 -51.05 23.5 -46.45 26.3 -48.2 26.25 -54.8 24.0 -53.2 24.0 -55.1 26.4 -56.55 26.35 -63.05 26.45 -63.15 26.55 -27.55 24.3 -26.0 24.3 -28.9 26.45 -30.35 26.4 -37.05 24.2 -35.4 24.15 -37.75 25.2 -38.45 25.2 -40.45 23.55 -39.45 23.55 -43.85 22.9 -43.4 22.85 -46.65 21.35 -45.7 21.35 -47.15 20.0 -46.2 20.0 -46.8 19.05 -46.1 19.0 -51.0 18.45 -50.6 18.45 -51.0 20.95 -52.5 20.95 -59.2 18.05 -57.25 18.1 -52.45 16.05 -51.05 16.05 -55.95 14.0 -54.55 14.0 -54.7 11.0 -52.7 11.05 -46.1 11.9 -46.55 11.85 -49.1 13.15 -49.95 14.85 -51.15 14.85 -48.4 15.55 -48.8 15.55 -47.75 14.85 -47.3 14.85 -44.35 13.0 -43.15 13.0 -42.0 14.7 -43.2 14.7 -40.45 14.9 -40.55 14.9 -37.6 15.4 -37.9 15.4 -36.5 14.05 -35.5 14.05 -40.15 11.05 -38.0 11.1 -31.4 13.45 -32.85 13.45 -31.05 15.15 -32.3 15.15 -31.05 12.6 -29.2 12.65 -25.15 14.35 -26.45 14.35 -23.65 15.05 -24.1 15.05 -19.85 17.95 -21.8 20.45 -23.5 20.4 -30.3 18.75 -29.05 18.75 -30.5 17.05 -29.45 17.05 -32.75 16.4 -32.25 16.35 -36.75 18.25 -37.95 18.25 -36.85 18.85 -37.3 18.8 -41.2 18.8 -41.45 20.05 -42.3 21.7 -43.5 21.7 -40.75 22.4 -41.2 22.4 -39.0 21.7 -38.5 21.7 -36.75 21.1 -36.35 19.95 -35.6 19.95 -35.35 20.6 -35.8 20.6 -31.15 23.0 -32.7 23.0 -32.65 23.65 -33.05 23.65 -32.25 21.4 -30.6 21.45 -24.1 11.1 -17.1 11.1 -19.6 11.05 -17.15 5.75 -17.9 1.9 -18.45 -4.5 -19.35 -25.9 -22.35 -26.3 -56.55 M18.3 -43.75 L18.5 -43.85 18.5 -41.0 18.3 -40.85 18.3 -43.75 M15.85 -29.95 L15.85 -27.05 15.6 -26.9 15.6 -29.8 15.85 -29.95 M-9.05 -41.2 L-8.5 -41.1 -8.45 -38.3 -9.05 -38.35 -9.05 -41.2 M-15.5 -27.4 L-15.5 -30.2 -14.85 -30.1 -14.8 -27.35 -15.5 -27.4" fill="#165829" fill-rule="evenodd" stroke="none"/>
    <path d="M15.95 -44.35 L17.8 -45.55 17.8 -44.45 15.95 -43.1 15.95 -44.35 M15.4 -40.85 L15.4 -37.9 14.9 -37.6 14.9 -40.55 15.4 -40.85 M-10.15 -42.3 L-14.65 -42.75 -14.65 -44.0 -10.15 -43.35 -10.15 -42.3 M-15.95 -41.15 L-15.9 -38.15 -17.0 -38.3 -17.05 -41.3 -15.95 -41.15" fill="#0e5f21" fill-rule="evenodd" stroke="none"/>
    <path d="M5.75 -17.9 L5.75 0.4 2.1 2.9 1.95 3.0 1.9 3.0 1.9 -18.45 5.75 -17.9" fill="#8a644a" fill-rule="evenodd" stroke="none"/>
    <path d="M2.1 2.9 L2.1 3.0 1.95 3.0 2.1 2.9 M1.9 3.0 L-4.5 1.9 -4.5 -19.35 1.9 -18.45 1.9 3.0" fill="#5a3d1b" fill-rule="evenodd" stroke="none"/>
    <path d="M-25.55 -22.05 L-26.5 -57.05 10.65 -53.1 10.65 -17.55 -25.55 -22.05" fill="#134b23" fill-opacity="0.5019608" fill-rule="evenodd" stroke="none"/>
  </g>
</svg>
