<?xml version="1.0" encoding="UTF-8" standalone="no"?>
<svg xmlns:xlink="http://www.w3.org/1999/xlink" height="72.35px" width="55.05px" xmlns="http://www.w3.org/2000/svg">
  <g transform="matrix(1.0, 0.0, 0.0, 1.0, 27.5, 68.85)">
    <path d="M4.85 -19.8 L4.85 2.35 -2.0 3.5 -2.0 3.35 -1.8 3.45 -1.8 -18.85 4.85 -19.8" fill="#8a644a" fill-rule="evenodd" stroke="none"/>
    <path d="M-2.0 3.35 L-5.8 0.8 -5.8 -18.25 -1.8 -18.85 -1.8 3.45 -2.0 3.35" fill="#5a3d1b" fill-rule="evenodd" stroke="none"/>
    <path d="M27.3 -58.5 L27.55 -58.55 27.1 -22.95 4.85 -19.8 -1.8 -18.85 -5.8 -18.25 -11.35 -17.5 -11.35 -17.45 -27.5 -28.3 -27.35 -65.4 -27.25 -65.3 -27.3 -58.55 -24.8 -57.05 -24.8 -55.1 -27.15 -56.75 -27.2 -49.85 -24.3 -48.05 -24.25 -52.8 -23.6 -52.4 -23.6 -55.2 -21.8 -54.0 -21.8 -58.1 -24.35 -59.8 -24.35 -63.4 -22.9 -62.4 -14.35 -56.6 -14.35 -56.4 -16.55 -57.9 -16.55 -52.8 -18.65 -54.25 -18.65 -59.25 -21.65 -61.3 -21.65 -54.35 -19.05 -52.8 -19.05 -52.3 -19.65 -52.75 -19.65 -47.7 -20.65 -48.4 -20.65 -47.8 -23.6 -49.85 -23.65 -49.9 -23.65 -44.85 -24.35 -45.35 -24.4 -40.75 -26.05 -41.8 -26.1 -39.65 -25.0 -38.9 -25.0 -36.4 -27.35 -38.2 -27.4 -31.25 -25.15 -29.7 -25.15 -26.8 -22.2 -24.8 -22.15 -31.55 -24.45 -33.3 -24.45 -34.15 -24.25 -34.0 -21.3 -32.05 -21.25 -36.95 -20.55 -36.5 -20.55 -36.75 -21.8 -37.55 -22.45 -37.95 -22.45 -39.65 -23.15 -40.2 -23.1 -42.55 -22.45 -42.15 -22.45 -44.95 -20.65 -43.7 -19.4 -42.8 -19.4 -42.65 -19.4 -38.5 -18.75 -38.0 -18.75 -39.25 -16.9 -38.05 -16.9 -33.25 -17.5 -33.7 -17.55 -30.25 -19.35 -31.45 -19.35 -29.85 -21.1 -31.2 -21.1 -24.1 -18.55 -22.4 -18.55 -22.35 -15.5 -20.3 -15.45 -24.8 -14.75 -24.35 -14.75 -27.2 -12.95 -25.85 -12.95 -30.05 -15.6 -32.0 -15.6 -33.3 -13.8 -31.95 -13.8 -33.95 -11.35 -32.35 -11.3 -39.25 -14.45 -41.5 -14.45 -36.6 -15.8 -37.6 -15.8 -39.05 -15.35 -38.75 -15.3 -41.95 -15.1 -41.8 -15.1 -44.65 -13.3 -43.4 -13.3 -44.6 -15.3 -45.85 -15.3 -48.95 -16.0 -49.45 -16.0 -50.5 -15.3 -50.05 -15.3 -52.95 -13.45 -51.7 -12.2 -50.8 -12.2 -48.25 -11.25 -47.7 -11.25 -54.55 -11.2 -54.55 -11.05 -54.55 -11.05 -47.7 -4.9 -48.55 -4.9 -46.65 -10.75 -46.05 -10.75 -39.15 -3.6 -40.15 -3.5 -44.9 -1.9 -45.1 -1.9 -47.9 2.3 -48.3 2.35 -52.35 -3.85 -51.7 -3.8 -55.3 19.65 -57.7 19.7 -57.7 20.15 -57.75 20.15 -57.55 15.0 -57.05 15.0 -52.05 10.05 -51.55 10.1 -56.5 2.85 -55.75 2.85 -48.85 9.15 -49.7 9.15 -49.35 7.7 -49.2 7.7 -44.2 5.3 -43.95 5.25 -42.0 5.2 -42.0 5.2 -43.35 -2.05 -42.6 -2.05 -37.6 -3.65 -37.4 -3.75 -32.85 -7.9 -32.25 -7.9 -30.1 -5.2 -30.45 -5.2 -28.05 -11.05 -27.45 -11.05 -20.55 -5.45 -21.3 -5.45 -18.4 1.7 -19.4 1.8 -26.05 -3.85 -25.45 -3.8 -26.3 -2.15 -26.5 -2.15 -27.0 3.65 -27.8 3.75 -32.15 5.55 -32.4 5.55 -32.6 2.55 -32.2 1.0 -32.0 1.0 -34.15 -0.7 -34.0 -0.65 -35.9 1.0 -36.1 1.0 -38.9 5.15 -39.3 8.25 -39.65 8.25 -39.5 8.2 -35.4 9.75 -35.55 9.8 -36.7 14.3 -37.35 14.3 -32.75 12.75 -32.6 12.7 -29.25 8.4 -28.65 8.4 -27.1 4.25 -26.7 4.25 -19.8 10.45 -20.65 17.6 -21.65 17.7 -26.0 19.3 -26.2 19.3 -29.0 23.5 -29.4 23.55 -33.45 17.3 -32.8 17.3 -34.0 21.5 -34.4 21.55 -36.35 27.15 -37.15 27.25 -43.8 20.0 -43.05 20.0 -38.35 16.7 -38.0 16.75 -39.4 17.85 -39.55 17.9 -42.65 18.45 -42.7 18.45 -45.45 22.65 -45.85 22.7 -47.1 18.0 -46.45 18.0 -49.45 16.35 -49.3 16.4 -50.35 18.0 -50.55 18.0 -53.35 22.2 -53.75 25.25 -54.1 25.2 -51.55 27.3 -51.85 27.4 -58.5 27.3 -58.5 M9.1 -42.5 L9.55 -42.55 9.55 -39.6 9.05 -39.55 9.1 -42.5 M15.65 -31.0 L16.3 -31.1 16.3 -28.15 15.6 -28.05 15.65 -31.0 M-19.05 -45.35 L-18.85 -45.2 -18.85 -42.25 -19.1 -42.45 -19.05 -45.35 M-16.05 -27.65 L-16.3 -27.8 -16.3 -30.85 -16.05 -30.7 -16.05 -27.65" fill="#165829" fill-rule="evenodd" stroke="none"/>
    <path d="M7.9 -60.85 L8.25 -60.65 13.25 -61.1 14.15 -60.5 17.3 -58.5 16.25 -58.4 7.6 -57.5 5.4 -59.0 0.3 -58.5 -3.7 -61.25 -1.5 -61.45 5.95 -62.1 7.9 -60.85 M-1.8 -61.65 L-4.15 -61.4 -7.5 -63.7 -8.15 -64.15 -2.3 -64.65 1.5 -65.0 3.85 -63.5 -3.55 -62.85 -1.8 -61.65 M9.15 -49.35 L9.15 -49.7 2.85 -48.85 2.85 -55.75 10.1 -56.5 10.05 -51.55 15.0 -52.05 15.0 -50.15 16.4 -50.35 16.35 -49.3 16.3 -45.55 15.45 -45.4 10.7 -44.75 9.15 -44.55 9.15 -49.35 M20.15 -57.55 L20.15 -57.75 27.35 -58.45 27.3 -58.5 27.4 -58.5 27.3 -51.85 25.2 -51.55 25.25 -54.1 22.2 -53.75 22.25 -57.8 20.15 -57.55 M16.75 -39.4 L16.7 -38.0 16.7 -37.7 14.3 -37.35 9.8 -36.7 9.55 -36.7 9.55 -39.6 9.55 -42.55 9.55 -43.6 10.7 -43.7 15.45 -44.2 15.45 -42.3 16.8 -42.5 16.75 -39.4 M20.0 -38.35 L20.0 -43.05 27.25 -43.8 27.15 -37.15 21.55 -36.35 20.0 -36.15 20.0 -38.35 M17.7 -26.0 L17.6 -21.65 10.45 -20.65 11.4 -20.8 11.5 -27.45 8.4 -27.1 8.4 -28.65 12.7 -29.25 12.75 -32.6 14.3 -32.75 14.3 -30.85 15.65 -31.0 15.6 -28.05 16.3 -28.15 16.3 -25.8 17.7 -26.0 M8.25 -39.5 L8.25 -39.65 5.15 -39.3 5.2 -42.0 5.25 -42.0 5.3 -43.95 7.7 -44.2 7.7 -42.3 9.1 -42.5 9.05 -39.55 8.25 -39.5 M-0.65 -35.9 L-0.7 -34.0 1.0 -34.15 1.0 -32.0 2.55 -32.2 2.55 -32.0 3.75 -32.15 3.65 -27.8 -2.15 -27.0 -3.5 -26.8 -3.5 -30.7 -5.2 -30.45 -7.9 -30.1 -7.9 -32.25 -3.75 -32.85 -3.65 -37.4 -2.05 -37.6 -2.05 -35.7 -0.65 -35.9 M-3.8 -26.3 L-3.85 -25.45 -5.45 -25.3 -5.45 -21.3 -11.05 -20.55 -11.05 -27.45 -5.2 -28.05 -5.2 -26.1 -3.8 -26.3 M-3.5 -44.9 L-3.6 -40.15 -10.75 -39.15 -10.75 -46.05 -4.9 -46.65 -4.9 -44.7 -3.5 -44.9 M-14.35 -56.6 L-14.35 -56.65 -11.25 -54.55 -11.25 -47.7 -12.2 -48.25 -12.2 -50.8 -13.45 -51.7 -13.45 -55.8 -14.35 -56.4 -14.35 -56.6 M-24.25 -52.8 L-24.3 -48.05 -27.2 -49.85 -27.15 -56.75 -24.8 -55.1 -24.8 -53.15 -24.25 -52.8 M-20.65 -47.8 L-20.65 -48.4 -19.65 -47.7 -19.65 -45.7 -19.05 -45.35 -19.1 -42.45 -19.4 -42.65 -19.4 -42.8 -20.65 -43.7 -20.65 -47.8 M-19.05 -52.3 L-19.05 -52.8 -21.65 -54.35 -21.65 -61.3 -18.65 -59.25 -18.65 -54.25 -16.55 -52.8 -16.55 -50.85 -16.0 -50.5 -16.0 -49.45 -16.05 -45.65 -16.4 -45.85 -18.4 -47.1 -19.05 -47.5 -19.05 -52.3 M-15.8 -39.05 L-15.8 -37.6 -15.8 -37.35 -16.9 -38.05 -18.75 -39.25 -18.85 -39.3 -18.85 -42.25 -18.85 -45.2 -18.85 -46.35 -18.4 -46.0 -16.4 -44.6 -16.4 -42.6 -15.8 -42.2 -15.8 -39.05 M-14.45 -36.6 L-14.45 -41.5 -11.3 -39.25 -11.35 -32.35 -13.8 -33.95 -14.45 -34.35 -14.45 -36.6 M-15.45 -24.8 L-15.5 -20.3 -18.55 -22.35 -18.55 -22.4 -18.1 -22.1 -18.05 -28.9 -19.35 -29.85 -19.35 -31.45 -17.55 -30.25 -17.5 -33.7 -16.9 -33.25 -16.9 -31.25 -16.3 -30.85 -16.3 -27.8 -16.05 -27.65 -16.05 -25.2 -15.45 -24.8 M-23.1 -42.55 L-23.15 -40.2 -22.45 -39.65 -22.45 -37.95 -21.8 -37.55 -21.8 -37.3 -21.25 -36.95 -21.3 -32.05 -24.25 -34.0 -24.25 -38.4 -25.0 -38.9 -26.1 -39.65 -26.05 -41.8 -24.4 -40.75 -24.35 -45.35 -23.65 -44.85 -23.65 -42.9 -23.1 -42.55 M-24.45 -34.15 L-24.45 -33.3 -25.15 -33.8 -25.15 -29.7 -27.4 -31.25 -27.35 -38.2 -25.0 -36.4 -25.0 -34.5 -24.45 -34.15" fill="#2a892c" fill-rule="evenodd" stroke="none"/>
    <path d="M-11.05 -54.55 L-3.8 -55.3 -3.85 -51.7 2.35 -52.35 2.3 -48.3 -1.9 -47.9 -1.9 -45.1 -3.5 -44.9 -4.9 -44.7 -4.9 -46.65 -4.9 -48.55 -11.05 -47.7 -11.05 -54.55 M15.0 -52.05 L15.0 -57.05 20.15 -57.55 22.25 -57.8 22.2 -53.75 18.0 -53.35 18.0 -50.55 16.4 -50.35 15.0 -50.15 15.0 -52.05 M16.35 -49.3 L18.0 -49.45 18.0 -46.45 22.7 -47.1 22.65 -45.85 18.45 -45.45 18.45 -42.7 17.9 -42.65 16.8 -42.5 15.45 -42.3 15.45 -44.2 15.45 -45.4 16.3 -45.55 16.35 -49.3 M16.7 -38.0 L20.0 -38.35 20.0 -36.15 21.55 -36.35 21.5 -34.4 17.3 -34.0 17.3 -32.8 23.55 -33.45 23.5 -29.4 19.3 -29.0 19.3 -26.2 17.7 -26.0 16.3 -25.8 16.3 -28.15 16.3 -31.1 15.65 -31.0 14.3 -30.85 14.3 -32.75 14.3 -37.35 16.7 -37.7 16.7 -38.0 M10.45 -20.65 L4.25 -19.8 4.25 -26.7 8.4 -27.1 11.5 -27.45 11.4 -20.8 10.45 -20.65 M9.8 -36.7 L9.75 -35.55 8.2 -35.4 8.25 -39.5 9.05 -39.55 9.55 -39.6 9.55 -36.7 9.8 -36.7 M5.15 -39.3 L1.0 -38.9 1.0 -36.1 -0.65 -35.9 -2.05 -35.7 -2.05 -37.6 -2.05 -42.6 5.2 -43.35 5.2 -42.0 5.15 -39.3 M2.55 -32.2 L5.55 -32.6 5.55 -32.4 3.75 -32.15 2.55 -32.0 2.55 -32.2 M-2.15 -27.0 L-2.15 -26.5 -3.8 -26.3 -5.2 -26.1 -5.2 -28.05 -5.2 -30.45 -3.5 -30.7 -3.5 -26.8 -2.15 -27.0 M-3.85 -25.45 L1.8 -26.05 1.7 -19.4 -5.45 -18.4 -5.45 -21.3 -5.45 -25.3 -3.85 -25.45 M7.7 -44.2 L7.7 -49.2 9.15 -49.35 9.15 -44.55 10.7 -44.75 10.7 -43.7 9.55 -43.6 9.55 -42.55 9.1 -42.5 7.7 -42.3 7.7 -44.2 M-27.25 -65.3 L-27.25 -65.4 -26.85 -65.15 -24.35 -63.45 -24.35 -63.4 -24.35 -59.8 -21.8 -58.1 -21.8 -54.0 -23.6 -55.2 -23.6 -52.4 -24.25 -52.8 -24.8 -53.15 -24.8 -55.1 -24.8 -57.05 -27.3 -58.55 -27.25 -65.3 M-23.65 -44.85 L-23.65 -49.9 -23.6 -49.85 -20.65 -47.8 -20.65 -43.7 -22.45 -44.95 -22.45 -42.15 -23.1 -42.55 -23.65 -42.9 -23.65 -44.85 M-19.65 -47.7 L-19.65 -52.75 -19.05 -52.3 -19.05 -47.5 -18.4 -47.1 -18.4 -46.0 -18.85 -46.35 -18.85 -45.2 -19.05 -45.35 -19.65 -45.7 -19.65 -47.7 M-16.55 -52.8 L-16.55 -57.9 -14.35 -56.4 -13.45 -55.8 -13.45 -51.7 -15.3 -52.95 -15.3 -50.05 -16.0 -50.5 -16.55 -50.85 -16.55 -52.8 M-16.0 -49.45 L-15.3 -48.95 -15.3 -45.85 -13.3 -44.6 -13.3 -43.4 -15.1 -44.65 -15.1 -41.8 -15.3 -41.95 -15.8 -42.2 -16.4 -42.6 -16.4 -44.6 -16.4 -45.85 -16.05 -45.65 -16.0 -49.45 M-15.8 -37.6 L-14.45 -36.6 -14.45 -34.35 -13.8 -33.95 -13.8 -31.95 -15.6 -33.3 -15.6 -32.0 -12.95 -30.05 -12.95 -25.85 -14.75 -27.2 -14.75 -24.35 -15.45 -24.8 -16.05 -25.2 -16.05 -27.65 -16.05 -30.7 -16.3 -30.85 -16.9 -31.25 -16.9 -33.25 -16.9 -38.05 -15.8 -37.35 -15.8 -37.6 M-18.55 -22.4 L-21.1 -24.1 -21.1 -31.2 -19.35 -29.85 -18.05 -28.9 -18.1 -22.1 -18.55 -22.4 M-18.75 -39.25 L-18.75 -38.0 -19.4 -38.5 -19.4 -42.65 -19.1 -42.45 -18.85 -42.25 -18.85 -39.3 -18.75 -39.25 M-21.8 -37.55 L-20.55 -36.75 -20.55 -36.5 -21.25 -36.95 -21.8 -37.3 -21.8 -37.55 M-24.25 -34.0 L-24.45 -34.15 -25.0 -34.5 -25.0 -36.4 -25.0 -38.9 -24.25 -38.4 -24.25 -34.0 M-24.45 -33.3 L-22.15 -31.55 -22.2 -24.8 -25.15 -26.8 -25.15 -29.7 -25.15 -33.8 -24.45 -33.3" fill="#2f6e2f" fill-rule="evenodd" stroke="none"/>
    <path d="M17.9 -42.65 L17.85 -39.55 16.75 -39.4 16.8 -42.5 17.9 -42.65 M10.7 -44.75 L15.45 -45.4 15.45 -44.2 10.7 -43.7 10.7 -44.75 M-15.3 -41.95 L-15.35 -38.75 -15.8 -39.05 -15.8 -42.2 -15.3 -41.95 M-18.4 -46.0 L-18.4 -47.1 -16.4 -45.85 -16.4 -44.6 -18.4 -46.0" fill="#0e5f21" fill-rule="evenodd" stroke="none"/>
    <path d="M4.6 -63.55 L4.2 -63.85 13.85 -64.7 17.9 -62.1 9.9 -61.25 6.1 -63.7 4.6 -63.55 M-7.5 -63.7 L-11.45 -63.3 -15.45 -66.05 -5.8 -66.9 -2.3 -64.65 -8.15 -64.15 -7.5 -63.7 M-6.35 -55.5 L-11.45 -55.0 -15.3 -57.65 -15.45 -57.75 -5.8 -58.6 -1.75 -56.0 -6.35 -55.5" fill="#5ea53e" fill-rule="evenodd" stroke="none"/>
    <path d="M9.9 -61.25 L17.9 -62.1 13.85 -64.7 4.2 -63.85 4.6 -63.55 3.85 -63.5 1.5 -65.0 -2.3 -64.65 -5.8 -66.9 -15.45 -66.05 -11.45 -63.3 -7.5 -63.7 -4.15 -61.4 -1.8 -61.65 -1.5 -61.45 -3.7 -61.25 0.3 -58.5 5.4 -59.0 7.6 -57.5 16.25 -58.4 17.25 -57.7 19.4 -57.9 19.65 -57.7 -3.8 -55.3 -11.05 -54.55 -11.2 -54.55 -22.8 -62.4 -14.8 -63.2 -16.15 -64.15 -14.55 -64.3 -17.25 -66.0 -26.85 -65.15 -27.3 -65.45 -3.25 -67.55 -3.4 -67.65 3.85 -68.3 4.0 -68.2 11.4 -68.85 27.55 -58.55 27.3 -58.5 26.95 -58.7 24.15 -60.5 22.9 -61.3 14.15 -60.5 13.25 -61.1 8.25 -60.65 7.9 -60.85 10.15 -61.1 9.9 -61.25 M4.3 -66.05 L2.15 -65.85 4.45 -64.25 14.15 -65.25 13.4 -65.7 15.6 -65.95 11.55 -68.55 4.45 -67.9 6.9 -66.35 4.3 -66.05 M-7.2 -59.55 L-5.05 -59.8 -8.15 -61.8 -12.15 -61.4 -13.1 -62.05 -18.75 -61.55 -17.35 -60.55 -19.45 -60.4 -15.45 -57.65 -15.3 -57.65 -11.45 -55.0 -6.35 -55.5 -6.3 -55.5 3.4 -56.5 -0.65 -59.1 -5.75 -58.65 -7.2 -59.55" fill="#1b6a32" fill-rule="evenodd" stroke="none"/>
    <path d="M4.6 -63.55 L6.1 -63.7 9.9 -61.25 10.15 -61.1 7.9 -60.85 5.95 -62.1 -1.5 -61.45 -1.8 -61.65 -3.55 -62.85 3.85 -63.5 4.6 -63.55 M24.15 -60.5 L26.95 -58.7 27.3 -58.5 27.35 -58.45 20.15 -57.75 19.7 -57.7 19.65 -57.7 19.4 -57.9 16.55 -59.85 24.15 -60.5 M-26.85 -65.15 L-17.25 -66.0 -14.55 -64.3 -16.15 -64.15 -14.8 -63.2 -22.8 -62.4 -22.9 -62.4 -24.35 -63.4 -24.35 -63.45 -26.85 -65.15 M13.4 -65.7 L5.9 -64.95 4.3 -66.05 6.9 -66.35 4.45 -67.9 11.55 -68.55 15.6 -65.95 13.4 -65.7 M-17.35 -60.55 L-18.75 -61.55 -13.1 -62.05 -12.15 -61.4 -8.15 -61.8 -5.05 -59.8 -7.2 -59.55 -14.75 -58.8 -17.35 -60.55" fill="#4b7a3a" fill-rule="evenodd" stroke="none"/>
    <path d="M14.15 -60.5 L22.9 -61.3 24.15 -60.5 16.55 -59.85 19.4 -57.9 17.25 -57.7 16.25 -58.4 17.3 -58.5 14.15 -60.5 M13.4 -65.7 L14.15 -65.25 4.45 -64.25 2.15 -65.85 4.3 -66.05 5.9 -64.95 13.4 -65.7 M-17.35 -60.55 L-14.75 -58.8 -7.2 -59.55 -5.75 -58.65 -0.65 -59.1 3.4 -56.5 -6.3 -55.5 -6.35 -55.5 -1.75 -56.0 -5.8 -58.6 -15.45 -57.75 -15.3 -57.65 -15.45 -57.65 -19.45 -60.4 -17.35 -60.55" fill="#54b02c" fill-rule="evenodd" stroke="none"/>
    <path d="M-27.45 -28.35 L-27.45 -65.4 -11.25 -54.5 -11.25 -17.5 -27.45 -28.35" fill="#134b23" fill-opacity="0.5019608" fill-rule="evenodd" stroke="none"/>
  </g>
</svg>
