<?xml version="1.0" encoding="UTF-8" standalone="no"?>
<svg xmlns:xlink="http://www.w3.org/1999/xlink" height="138.9px" width="45.85px" xmlns="http://www.w3.org/2000/svg">
  <g transform="matrix(1.0, 0.0, 0.0, 1.0, 0.5, 0.5)">
    <path d="M29.95 5.65 Q26.9 6.2 25.25 8.3 23.55 10.4 22.85 13.35 22.2 16.3 22.2 19.5 22.2 22.7 22.55 25.5 L23.2 30.05 23.6 31.85 Q24.1 32.9 25.35 34.3 L28.1 37.55 Q29.6 39.4 30.85 41.7 32.15 44.05 32.65 46.85 33.7 52.85 34.85 57.35 L37.2 65.4 39.35 72.65 41.2 80.5 Q42.05 84.8 42.5 90.5 43.2 100.05 42.6 107.65 41.95 115.25 40.6 120.9 39.25 126.6 37.75 130.35 36.25 134.15 35.15 136.0 L34.05 137.9 31.6 136.9 Q29.2 135.95 24.8 134.7 20.4 133.4 14.35 132.35 10.55 129.85 7.85 126.5 5.2 123.1 3.55 119.5 1.85 115.95 1.05 112.8 0.2 109.7 0.0 107.7 -0.1 106.05 0.65 101.9 L2.3 91.9 3.9 79.65 Q4.55 73.15 4.3 66.95 4.05 60.75 2.35 55.7 1.5 49.85 2.25 45.85 2.95 41.8 4.4 39.3 5.8 36.85 7.0 35.7 L8.3 34.6 13.05 0.0 29.95 5.65" fill="#ffffff" fill-rule="evenodd" stroke="none"/>
    <path d="M29.95 5.65 L13.05 0.0 8.3 34.6 7.0 35.7 Q5.8 36.85 4.4 39.3 2.95 41.8 2.25 45.85 1.5 49.85 2.35 55.7 4.05 60.75 4.3 66.95 4.55 73.15 3.9 79.65 L2.3 91.9 0.65 101.9 Q-0.1 106.05 0.0 107.7 0.2 109.7 1.05 112.8 1.85 115.95 3.55 119.5 5.2 123.1 7.85 126.5 10.55 129.85 14.35 132.35 20.4 133.4 24.8 134.7 29.2 135.95 31.6 136.9 L34.05 137.9 35.15 136.0 Q36.25 134.15 37.75 130.35 39.25 126.6 40.6 120.9 41.95 115.25 42.6 107.65 43.2 100.05 42.5 90.5 42.05 84.8 41.2 80.5 L39.35 72.65 37.2 65.4 34.85 57.35 Q33.7 52.85 32.65 46.85 32.15 44.05 30.85 41.7 29.6 39.4 28.1 37.55 L25.35 34.3 Q24.1 32.9 23.6 31.85 L23.2 30.05 22.55 25.5 Q22.2 22.7 22.2 19.5 22.2 16.3 22.85 13.35 23.55 10.4 25.25 8.3 26.9 6.2 29.95 5.65 Z" fill="none" stroke="#000000" stroke-linecap="round" stroke-linejoin="round" stroke-width="1.0"/>
    <path d="M37.6 85.5 L41.7 84.4 Q44.05 93.2 44.6 101.4 45.1 109.6 44.65 116.15 44.15 122.65 43.45 126.5 L42.7 130.4 40.75 127.5 36.15 120.15 30.65 110.55 Q27.85 105.45 25.9 100.85 23.9 96.25 23.65 93.2 24.1 91.4 26.4 89.95 28.7 88.5 31.8 87.35 34.85 86.25 37.6 85.5" fill="#9c5712" fill-rule="evenodd" stroke="none"/>
    <path d="M37.6 85.5 Q34.85 86.25 31.8 87.35 28.7 88.5 26.4 89.95 24.1 91.4 23.65 93.2 23.9 96.25 25.9 100.85 27.85 105.45 30.65 110.55 L36.15 120.15 40.75 127.5 42.7 130.4 43.45 126.5 Q44.15 122.65 44.65 116.15 45.1 109.6 44.6 101.4 44.05 93.2 41.7 84.4 L37.6 85.5 Z" fill="none" stroke="#000000" stroke-linecap="round" stroke-linejoin="round" stroke-width="1.0"/>
    <path d="M8.3 34.6 L9.55 36.35 12.65 40.7 16.5 46.4 20.1 52.15 Q21.75 54.85 22.45 56.65 23.55 59.6 23.95 62.95 24.35 66.3 24.1 69.45 23.85 72.6 22.95 74.9 22.35 76.3 20.1 78.3 L14.85 82.55 8.95 86.7 4.1 89.85 2.1 91.1 2.0 88.8 1.75 82.65 1.55 74.1 1.45 64.35 Q1.5 59.3 1.7 54.7 L1.45 50.7 0.9 46.35 Q0.65 44.25 0.85 43.1 2.05 40.7 3.8 38.8 5.5 36.85 6.85 35.75 L8.3 34.6" fill="#9c5712" fill-rule="evenodd" stroke="none"/>
    <path d="M8.3 34.6 L9.55 36.35 12.65 40.7 16.5 46.4 20.1 52.15 Q21.75 54.85 22.45 56.65 23.55 59.6 23.95 62.95 24.35 66.3 24.1 69.45 23.85 72.6 22.95 74.9 22.35 76.3 20.1 78.3 L14.85 82.55 8.95 86.7 4.1 89.85 2.1 91.1 2.0 88.8 1.75 82.65 1.55 74.1 1.45 64.35 Q1.5 59.3 1.7 54.7 L1.45 50.7 0.9 46.35 Q0.65 44.25 0.85 43.1 2.05 40.7 3.8 38.8 5.5 36.85 6.85 35.75 L8.3 34.6 Z" fill="none" stroke="#000000" stroke-linecap="round" stroke-linejoin="round" stroke-width="1.0"/>
  </g>
</svg>
