<?xml version="1.0" encoding="UTF-8" standalone="no"?>
<svg xmlns:xlink="http://www.w3.org/1999/xlink" height="26.4px" width="33.25px" xmlns="http://www.w3.org/2000/svg">
  <g transform="matrix(1.0, 0.0, 0.0, 1.0, 16.0, 21.5)">
    <path d="M1.4 -16.3 L0.55 -20.8 Q2.4 -17.3 3.1 -13.55 L3.7 -9.25 3.75 -9.6 Q4.55 -14.15 6.1 -21.5 5.8 -15.0 5.9 -11.2 L6.05 -7.75 3.8 -2.55 1.65 -5.7 1.7 -1.9 1.4 -1.6 0.9 -2.0 0.9 -4.45 0.0 -3.05 -0.1 -3.3 -0.1 -3.1 -0.15 -2.85 -0.55 -3.2 0.55 -5.8 Q1.4 -8.2 1.6 -11.95 1.7 -13.85 1.4 -16.15 L1.6 -16.7 1.4 -16.3 M6.35 -6.6 Q7.3 -8.95 9.05 -11.5 10.85 -14.15 13.65 -16.35 11.25 -11.5 10.55 -8.05 L10.05 -5.05 9.6 -4.3 9.35 -6.0 7.7 -2.95 7.9 -3.95 Q8.55 -6.5 10.45 -11.3 L6.45 -5.85 6.35 -6.6 M10.6 -5.3 L12.85 -7.75 Q14.7 -9.5 17.25 -10.75 14.6 -7.4 13.45 -4.9 L12.9 -3.5 12.9 -5.15 10.9 -2.05 10.6 -5.3 M-10.9 -1.15 Q-11.15 -2.85 -11.95 -5.55 -13.05 -9.2 -16.0 -14.7 -12.0 -10.5 -9.55 -6.65 L-8.0 -4.15 -7.95 -5.75 -7.1 -14.05 Q-6.9 -8.85 -6.4 -6.25 L-6.35 -6.1 -8.2 -1.85 -10.35 -5.0 -10.3 -0.65 -10.9 -1.15 M-5.95 -7.05 L-6.0 -8.25 Q-6.15 -12.75 -5.3 -20.2 -5.0 -13.7 -4.2 -10.0 L-3.05 -5.8 -3.45 -3.8 -4.75 -1.45 -5.3 -2.95 -5.85 -7.3 -5.95 -7.05 M-0.9 -2.55 L-0.85 -2.7 -0.8 -2.0 -0.9 -2.55" fill="#52330c" fill-rule="evenodd" stroke="none"/>
    <path d="M1.4 -16.3 L1.6 -16.7 1.4 -16.15 Q-0.7 -10.45 -1.0 -6.95 -1.25 -4.3 -0.9 -2.55 L-0.8 -2.0 -0.85 -2.7 -0.9 -3.5 -0.55 -3.2 -0.15 -2.85 -0.65 0.25 -0.95 0.5 -1.45 -5.2 -4.35 -0.4 -4.75 -1.45 -3.45 -3.8 -3.05 -5.8 -2.35 -8.3 Q-1.25 -11.7 1.4 -16.3 M0.0 -3.05 L0.9 -4.45 0.9 -2.0 1.4 -1.6 1.7 -1.35 1.7 -1.9 1.65 -5.7 3.8 -2.55 6.05 -7.75 6.15 -8.0 6.35 -6.6 6.45 -5.85 10.45 -11.3 Q8.55 -6.5 7.9 -3.95 L7.7 -2.95 9.35 -6.0 9.6 -4.3 7.65 -1.1 5.65 -6.45 5.2 -0.2 2.4 -3.85 2.1 1.4 0.0 -3.05 M12.9 -3.5 L12.9 -1.85 11.05 -0.2 10.9 -2.05 12.9 -5.15 12.9 -3.5 M-12.65 0.85 L-12.9 -2.8 -12.15 -2.2 -12.65 0.85 M-11.75 -1.85 L-10.9 -1.15 -10.3 -0.65 -10.35 -5.0 -8.2 -1.85 -6.35 -6.1 -5.95 -7.05 -5.85 -7.3 -5.3 -2.95 -6.35 -5.75 -6.8 0.5 -9.6 -3.15 -9.9 2.1 -11.75 -1.85" fill="#7a7d4d" fill-rule="evenodd" stroke="none"/>
    <path d="M-0.1 -3.1 L-0.1 -3.3 0.0 -3.05 -0.1 -3.1 M1.4 -1.6 L1.7 -1.9 1.7 -1.35 1.4 -1.6" fill="#9ca35e" fill-rule="evenodd" stroke="none"/>
    <path d="M-0.15 -2.85 L-0.1 -3.1 0.0 -3.05 2.1 1.4 2.4 -3.85 5.2 -0.2 5.65 -6.45 7.65 -1.1 9.6 -4.3 10.05 -5.05 10.55 -5.9 10.6 -5.3 10.9 -2.05 11.05 -0.2 12.9 -1.85 14.15 -3.0 14.15 -1.75 14.0 0.7 Q13.85 2.0 13.5 2.5 L12.15 3.35 10.35 3.6 Q9.45 3.45 9.05 2.35 8.75 3.4 7.5 3.85 L5.1 4.1 Q3.9 3.8 3.55 2.55 3.25 3.2 2.2 3.55 L0.85 3.7 0.15 4.05 -1.65 4.3 Q-2.55 4.15 -2.95 3.05 -3.25 4.1 -4.5 4.55 L-6.9 4.8 Q-8.1 4.5 -8.45 3.25 -8.75 3.9 -9.8 4.25 -10.85 4.6 -11.8 4.25 -12.8 3.9 -12.9 2.45 L-12.65 0.85 -12.15 -2.2 -12.1 -2.6 -11.75 -1.85 -9.9 2.1 -9.6 -3.15 -6.8 0.5 -6.35 -5.75 -5.3 -2.95 -4.75 -1.45 -4.35 -0.4 -1.45 -5.2 -0.95 0.5 -0.65 0.25 -0.15 -2.85" fill="#8ccf36" fill-rule="evenodd" stroke="none"/>
  </g>
</svg>
