<?xml version="1.0" encoding="UTF-8" standalone="no"?>
<svg xmlns:xlink="http://www.w3.org/1999/xlink" height="45.3px" width="57.1px" xmlns="http://www.w3.org/2000/svg">
  <g transform="matrix(1.0, 0.0, 0.0, 1.0, 29.0, 38.0)">
    <path d="M0.85 -29.15 L1.2 -29.8 0.9 -28.9 Q-2.05 -21.1 -2.9 -15.75 -3.85 -10.05 -3.3 -6.6 L-3.1 -5.55 -2.8 -4.3 -2.9 -5.85 -3.0 -7.1 -2.5 -6.65 -1.75 -6.05 -2.6 -0.65 -3.05 -0.25 -3.95 -10.05 -8.9 -1.85 -9.6 -3.7 -7.55 -7.35 -6.8 -11.05 -5.6 -15.35 Q-3.7 -21.2 0.85 -29.15 M9.45 -12.5 L9.6 -11.25 16.45 -20.5 Q13.85 -13.9 12.7 -9.8 L11.75 -6.2 14.65 -11.35 15.05 -8.5 11.7 -3.0 8.3 -12.15 7.5 -1.4 2.65 -7.7 2.15 1.35 -1.45 -6.3 0.15 -8.8 0.1 -4.45 0.9 -3.8 1.45 -3.35 1.45 -4.3 1.35 -10.85 5.1 -5.5 8.95 -14.35 9.15 -14.8 9.45 -12.5 M20.75 -7.25 L20.7 -4.25 17.55 -1.4 17.25 -4.6 20.75 -9.95 20.75 -7.25 M-23.15 0.4 L-23.6 -5.95 -22.35 -4.9 -23.15 0.4 M-21.65 -4.3 L-20.3 -3.15 -19.15 -2.2 -19.25 -9.7 -15.5 -4.35 -12.4 -11.4 -11.75 -12.95 -11.45 -13.65 -10.55 -6.35 -12.3 -11.0 -13.1 -0.25 -17.95 -6.55 -18.45 2.5 -21.65 -4.3" fill="#7a7d4d" fill-rule="evenodd" stroke="none"/>
    <path d="M0.9 -28.9 L1.2 -29.8 0.85 -29.15 Q0.4 -32.75 -0.6 -36.8 1.95 -32.0 3.2 -26.9 4.45 -21.75 4.75 -16.95 L4.8 -16.35 5.0 -17.55 Q6.35 -25.35 9.0 -38.0 8.6 -29.05 8.65 -23.1 L8.95 -14.35 5.1 -5.5 1.35 -10.85 1.45 -4.3 0.9 -3.8 0.1 -4.45 0.15 -8.8 -1.45 -6.3 -1.65 -6.75 -1.75 -6.05 -2.5 -6.65 -1.8 -8.05 Q-0.5 -10.7 0.4 -14.7 1.3 -18.75 1.2 -24.25 L0.9 -28.9 M-6.8 -11.05 L-7.55 -7.35 -9.6 -3.7 -10.55 -6.35 -11.45 -13.65 -11.75 -12.95 -11.85 -19.5 Q-11.75 -26.2 -10.65 -35.8 -10.25 -26.85 -9.25 -21.05 -8.3 -15.25 -7.15 -11.9 L-6.8 -11.05 M-2.9 -5.85 L-2.8 -4.3 -3.1 -5.55 -2.9 -5.85 M9.45 -12.5 L10.85 -15.5 Q12.6 -19.05 15.35 -22.6 18.05 -26.15 21.95 -29.2 18.8 -22.95 17.45 -18.05 16.05 -13.15 15.75 -9.75 L15.75 -9.7 15.05 -8.5 14.65 -11.35 11.75 -6.2 12.7 -9.8 Q13.85 -13.9 16.45 -20.5 L9.6 -11.25 9.45 -12.5 M16.75 -10.2 L20.6 -14.35 Q23.7 -17.35 28.1 -19.5 23.55 -13.75 21.6 -9.4 L20.75 -7.25 20.75 -9.95 17.25 -4.6 16.75 -10.2 M-20.3 -3.15 L-20.65 -5.1 Q-21.3 -8.65 -23.25 -13.95 -25.2 -19.25 -29.0 -26.35 -23.85 -20.95 -20.2 -15.8 -17.3 -11.75 -15.25 -8.3 L-14.95 -13.05 -13.7 -25.2 Q-13.35 -17.75 -12.75 -13.45 L-12.4 -11.4 -15.5 -4.35 -19.25 -9.7 -19.15 -2.2 -20.3 -3.15" fill="#52330c" fill-rule="evenodd" stroke="none"/>
    <path d="M1.45 -4.3 L1.45 -3.35 0.9 -3.8 1.45 -4.3" fill="#8ccf36" fill-rule="evenodd" stroke="none"/>
    <path d="M-9.6 -3.7 L-8.9 -1.85 -3.95 -10.05 -3.05 -0.25 -2.6 -0.65 -1.75 -6.05 -1.65 -6.75 -1.45 -6.3 2.15 1.35 2.65 -7.7 7.5 -1.4 8.3 -12.15 11.7 -3.0 15.05 -8.5 15.75 -9.7 16.65 -11.2 16.75 -10.2 17.25 -4.6 17.55 -1.4 20.7 -4.25 22.85 -6.2 22.85 -4.95 22.75 -2.05 22.4 1.1 Q22.2 2.6 21.7 3.2 L19.4 4.65 Q17.85 5.3 16.3 5.1 14.75 4.85 14.15 3.0 13.75 4.3 12.4 5.1 11.05 5.95 9.4 6.1 7.7 6.25 6.4 5.6 5.05 4.95 4.7 3.3 4.3 4.15 3.15 4.7 1.95 5.3 0.55 5.35 L-0.15 5.35 -1.2 5.8 -4.3 6.25 Q-5.85 6.0 -6.45 4.15 -6.85 5.45 -8.2 6.25 -9.55 7.1 -11.2 7.25 -12.9 7.4 -14.2 6.75 -15.55 6.1 -15.9 4.45 -16.3 5.3 -17.45 5.85 -18.65 6.45 -20.05 6.5 -21.45 6.55 -22.45 5.75 -23.5 5.0 -23.6 3.1 L-23.15 0.4 -22.35 -4.9 -22.25 -5.6 -21.65 -4.3 -18.45 2.5 -17.95 -6.55 -13.1 -0.25 -12.3 -11.0 -10.55 -6.35 -9.6 -3.7" fill="#8ccf36" fill-opacity="0.42352942" fill-rule="evenodd" stroke="none"/>
  </g>
</svg>
