<?xml version="1.0" encoding="UTF-8" standalone="no"?>
<svg xmlns:xlink="http://www.w3.org/1999/xlink" height="49.0px" width="50.5px" xmlns="http://www.w3.org/2000/svg">
  <g transform="matrix(1.0, 0.0, 0.0, 1.0, 25.25, 45.9)">
    <path d="M0.35 -29.6 L2.9 -29.9 2.9 -27.9 2.95 -26.65 3.1 -23.55 Q3.2 -21.65 3.45 -19.65 L3.65 -18.0 3.75 -17.5 4.05 -16.05 4.1 -15.85 Q5.45 -10.05 7.4 -6.45 9.35 -2.8 10.9 -1.15 L12.5 0.5 10.4 1.3 4.8 2.7 -3.25 3.05 Q-7.7 2.8 -12.6 0.85 -7.95 -3.0 -5.4 -7.2 -3.6 -10.15 -2.6 -13.05 L-2.55 -13.1 -2.0 -15.35 Q-1.45 -17.5 -1.1 -20.85 -0.8 -24.2 -1.35 -27.7 L-1.45 -28.7 -1.6 -29.4 -1.3 -29.4 -1.05 -29.7 0.35 -29.6" fill="#ffffff" fill-rule="evenodd" stroke="none"/>
    <path d="M0.45 -29.55 L2.1 -28.5 2.9 -27.9 2.95 -26.65 3.1 -23.55 Q3.2 -21.65 3.45 -19.65 L3.65 -18.0 3.75 -17.5 4.05 -16.05 Q3.7 -14.5 2.75 -13.35 1.8 -12.25 0.4 -12.05 -1.0 -11.85 -2.6 -13.05 L-2.55 -13.1 -2.0 -15.35 Q-1.45 -17.5 -1.1 -20.85 -0.8 -24.2 -1.35 -27.7 L-1.45 -28.7 -1.3 -29.4 -1.05 -29.7 0.35 -29.6 0.45 -29.55" fill="#7d7d7d" fill-opacity="0.5019608" fill-rule="evenodd" stroke="none"/>
    <path d="M25.2 -35.8 L25.25 -32.8 Q25.1 -31.55 21.75 -30.4 18.4 -29.3 12.8 -28.55 L0.25 -27.65 Q-6.8 -27.45 -12.5 -27.95 -18.15 -28.45 -21.55 -29.4 -24.95 -30.4 -25.05 -31.7 L-25.05 -31.85 -25.2 -31.85 -25.25 -34.85 -20.4 -34.95 -20.35 -34.55 -11.65 -36.15 0.0 -36.95 Q6.3 -37.1 11.55 -36.7 L20.35 -35.55 20.35 -35.7 25.2 -35.8" fill="#7d7d7d" fill-rule="evenodd" stroke="none"/>
    <path d="M25.2 -35.9 Q25.15 -34.6 21.85 -33.45 18.5 -32.35 12.85 -31.55 L0.15 -30.65 Q-6.85 -30.5 -12.55 -30.95 -18.25 -31.45 -21.6 -32.4 -25.0 -33.4 -25.1 -34.7 -25.05 -36.0 -21.7 -37.15 -18.4 -38.25 -12.75 -39.0 L-0.05 -39.95 Q7.0 -40.1 12.65 -39.65 18.35 -39.15 21.75 -38.2 25.1 -37.2 25.2 -35.9" fill="#ffffff" fill-rule="evenodd" stroke="none"/>
    <path d="M10.15 -45.0 L20.05 -45.0 17.75 -36.0 Q17.7 -35.8 16.95 -35.65 L15.1 -35.5 13.25 -35.65 Q12.45 -35.8 12.4 -36.0 L10.15 -45.0" fill="#e82900" fill-rule="evenodd" stroke="none"/>
    <path d="M20.05 -45.0 Q20.0 -44.6 18.6 -44.35 L15.1 -44.1 11.6 -44.35 Q10.2 -44.6 10.15 -45.0 10.2 -45.4 11.6 -45.65 L15.1 -45.9 18.6 -45.65 Q20.0 -45.4 20.05 -45.0" fill="#ab3000" fill-rule="evenodd" stroke="none"/>
    <path d="M9.65 -35.7 Q9.55 -34.15 7.6 -33.1 5.6 -32.1 2.6 -32.05 -0.35 -32.1 -2.35 -33.1 -4.3 -34.15 -4.4 -35.7 -4.3 -37.25 -2.35 -38.3 -0.35 -39.3 2.6 -39.35 5.6 -39.3 7.6 -38.3 9.55 -37.25 9.65 -35.7" fill="#9c5712" fill-rule="evenodd" stroke="none"/>
    <path d="M8.5 -33.65 Q7.55 -32.9 6.05 -32.45 L2.6 -32.0 Q-0.35 -32.05 -2.35 -33.05 -4.3 -34.1 -4.4 -35.65 -4.4 -36.5 -3.7 -37.2 -3.05 -37.95 -1.9 -38.45 -2.95 -37.6 -3.0 -36.45 -2.95 -34.9 -0.95 -33.9 1.05 -32.85 4.0 -32.8 6.65 -32.85 8.5 -33.65" fill="#73420a" fill-rule="evenodd" stroke="none"/>
    <path d="M9.15 -36.4 Q9.1 -35.2 7.5 -34.35 5.95 -33.55 3.6 -33.55 1.25 -33.55 -0.3 -34.35 -1.9 -35.2 -1.95 -36.4 -1.9 -37.65 -0.35 -38.45 1.25 -39.25 3.6 -39.3 5.95 -39.25 7.5 -38.45 9.1 -37.65 9.15 -36.4" fill="#b86a12" fill-rule="evenodd" stroke="none"/>
    <path d="M8.0 -36.6 Q7.95 -35.45 6.5 -34.7 5.05 -33.95 2.85 -33.95 0.65 -33.95 -0.8 -34.7 -2.25 -35.5 -2.3 -36.6 -2.25 -37.75 -0.8 -38.5 0.65 -39.25 2.85 -39.3 5.05 -39.25 6.5 -38.5 7.95 -37.75 8.0 -36.6" fill="#9c5712" fill-rule="evenodd" stroke="none"/>
    <path d="M-1.3 -37.1 Q-1.25 -38.0 -0.15 -38.6 1.0 -39.2 2.7 -39.2 4.45 -39.2 5.55 -38.6 6.7 -38.0 6.75 -37.1 6.7 -36.2 5.55 -35.65 4.4 -35.05 2.7 -35.0 1.0 -35.05 -0.1 -35.65 -1.25 -36.2 -1.3 -37.1" fill="#b86a12" fill-rule="evenodd" stroke="none"/>
    <path d="M-0.5 -37.25 Q-0.45 -38.1 0.6 -38.65 1.65 -39.2 3.25 -39.2 L5.85 -38.65 Q6.9 -38.1 6.95 -37.25 6.95 -36.45 5.9 -35.9 4.85 -35.35 3.25 -35.3 1.65 -35.35 0.6 -35.9 -0.45 -36.45 -0.5 -37.25" fill="#9c5712" fill-rule="evenodd" stroke="none"/>
    <path d="M0.95 -36.8 L0.55 -36.95 0.75 -37.35 1.1 -37.15 0.95 -36.8" fill="#ffffff" fill-rule="evenodd" stroke="none"/>
    <path d="M2.2 -37.9 L1.8 -38.05 2.0 -38.45 2.35 -38.25 2.2 -37.9" fill="#ffffff" fill-rule="evenodd" stroke="none"/>
    <path d="M3.05 -36.95 L2.65 -37.1 2.85 -37.5 3.2 -37.3 3.05 -36.95" fill="#ffffff" fill-rule="evenodd" stroke="none"/>
    <path d="M4.65 -37.9 L4.25 -38.05 4.45 -38.45 4.8 -38.25 4.65 -37.9" fill="#ffffff" fill-rule="evenodd" stroke="none"/>
    <path d="M5.2 -36.55 L4.8 -36.7 5.0 -37.1 5.35 -36.9 5.2 -36.55" fill="#ffffff" fill-rule="evenodd" stroke="none"/>
    <path d="M4.4 -35.8 L4.0 -35.95 4.2 -36.35 4.55 -36.15 4.4 -35.8" fill="#ffffff" fill-rule="evenodd" stroke="none"/>
    <path d="M3.8 -36.4 L3.4 -36.55 3.6 -36.95 3.95 -36.75 3.8 -36.4" fill="#ffffff" fill-rule="evenodd" stroke="none"/>
    <path d="M3.35 -38.05 L2.95 -38.2 3.15 -38.6 3.5 -38.4 3.35 -38.05" fill="#ffffff" fill-rule="evenodd" stroke="none"/>
    <path d="M3.85 -37.4 L3.45 -37.55 3.65 -37.95 4.0 -37.75 3.85 -37.4" fill="#ffffff" fill-rule="evenodd" stroke="none"/>
    <path d="M2.45 -36.3 L2.05 -36.45 2.25 -36.85 2.6 -36.65 2.45 -36.3" fill="#ffffff" fill-rule="evenodd" stroke="none"/>
    <path d="M5.6 -37.45 L5.2 -37.6 5.4 -38.0 5.75 -37.8 5.6 -37.45" fill="#ffffff" fill-rule="evenodd" stroke="none"/>
    <path d="M0.0 -43.25 Q2.2 -43.55 3.2 -42.35 4.05 -41.05 3.05 -39.05 2.0 -37.05 -0.4 -35.25 -2.85 -33.55 -5.05 -33.25 -7.25 -32.9 -8.2 -34.15 -9.05 -35.45 -8.05 -37.45 -7.05 -39.45 -4.65 -41.2 -2.2 -42.9 0.0 -43.25" fill="#9c5712" fill-rule="evenodd" stroke="none"/>
    <path d="M3.5 -40.0 Q3.15 -38.8 2.15 -37.55 1.2 -36.3 -0.35 -35.2 -2.75 -33.5 -5.0 -33.15 -7.2 -32.85 -8.15 -34.05 -8.65 -34.75 -8.55 -35.75 L-7.75 -37.8 Q-8.15 -36.45 -7.5 -35.55 -6.55 -34.35 -4.35 -34.65 -2.1 -34.95 0.35 -36.7 2.45 -38.25 3.5 -40.0" fill="#73420a" fill-rule="evenodd" stroke="none"/>
    <path d="M-0.15 -43.3 Q1.6 -43.55 2.35 -42.6 3.05 -41.55 2.25 -40.0 1.45 -38.4 -0.45 -37.0 -2.4 -35.65 -4.15 -35.4 -5.9 -35.15 -6.65 -36.1 -7.3 -37.15 -6.5 -38.7 -5.7 -40.3 -3.85 -41.7 -1.9 -43.05 -0.15 -43.3" fill="#b86a12" fill-rule="evenodd" stroke="none"/>
    <path d="M-1.05 -42.75 Q0.6 -43.0 1.3 -42.1 1.9 -41.15 1.2 -39.65 0.45 -38.2 -1.3 -36.9 -3.1 -35.65 -4.75 -35.4 -6.35 -35.2 -7.05 -36.05 -7.7 -37.0 -6.95 -38.5 -6.2 -39.95 -4.45 -41.25 -2.65 -42.5 -1.05 -42.75" fill="#9c5712" fill-rule="evenodd" stroke="none"/>
    <path d="M-6.45 -38.95 Q-5.85 -40.1 -4.5 -41.1 -3.1 -42.1 -1.8 -42.25 -0.55 -42.45 0.0 -41.75 0.5 -41.0 -0.1 -39.85 -0.65 -38.7 -2.05 -37.7 -3.45 -36.7 -4.7 -36.55 -6.0 -36.35 -6.55 -37.05 -7.0 -37.8 -6.45 -38.95" fill="#b86a12" fill-rule="evenodd" stroke="none"/>
    <path d="M-5.85 -39.45 Q-5.3 -40.5 -4.05 -41.45 -2.75 -42.35 -1.6 -42.5 -0.4 -42.7 0.1 -42.05 0.55 -41.35 0.05 -40.3 -0.5 -39.25 -1.8 -38.3 -3.1 -37.35 -4.25 -37.2 -5.45 -37.0 -5.95 -37.65 -6.4 -38.35 -5.85 -39.45" fill="#9c5712" fill-rule="evenodd" stroke="none"/>
    <path d="M-4.5 -38.15 L-4.95 -38.05 -5.0 -38.5 -4.6 -38.55 -4.5 -38.15" fill="#ffffff" fill-rule="evenodd" stroke="none"/>
    <path d="M-4.15 -39.7 L-4.6 -39.6 -4.65 -40.05 -4.25 -40.1 -4.15 -39.7" fill="#ffffff" fill-rule="evenodd" stroke="none"/>
    <path d="M-2.9 -39.45 L-3.35 -39.35 -3.4 -39.8 -3.0 -39.85 -2.9 -39.45" fill="#ffffff" fill-rule="evenodd" stroke="none"/>
    <path d="M-2.15 -41.15 L-2.6 -41.05 -2.65 -41.5 -2.25 -41.55 -2.15 -41.15" fill="#ffffff" fill-rule="evenodd" stroke="none"/>
    <path d="M-0.9 -40.4 L-1.35 -40.3 -1.4 -40.75 -1.0 -40.8 -0.9 -40.4" fill="#ffffff" fill-rule="evenodd" stroke="none"/>
    <path d="M-1.1 -39.35 L-1.55 -39.25 -1.6 -39.7 -1.2 -39.75 -1.1 -39.35" fill="#ffffff" fill-rule="evenodd" stroke="none"/>
    <path d="M-1.95 -39.45 L-2.4 -39.35 -2.45 -39.8 -2.05 -39.85 -1.95 -39.45" fill="#ffffff" fill-rule="evenodd" stroke="none"/>
    <path d="M-3.3 -40.5 L-3.75 -40.4 -3.8 -40.85 -3.4 -40.9 -3.3 -40.5" fill="#ffffff" fill-rule="evenodd" stroke="none"/>
    <path d="M-2.5 -40.3 L-2.95 -40.2 -3.0 -40.65 -2.6 -40.7 -2.5 -40.3" fill="#ffffff" fill-rule="evenodd" stroke="none"/>
    <path d="M-3.0 -38.6 L-3.45 -38.5 -3.5 -38.95 -3.1 -39.0 -3.0 -38.6" fill="#ffffff" fill-rule="evenodd" stroke="none"/>
    <path d="M-1.1 -41.4 L-1.55 -41.3 -1.6 -41.75 -1.2 -41.8 -1.1 -41.4" fill="#ffffff" fill-rule="evenodd" stroke="none"/>
    <path d="M-17.2 -44.7 L-7.3 -44.7 -9.6 -35.7 Q-9.65 -35.5 -10.4 -35.35 L-12.25 -35.2 -14.1 -35.35 Q-14.9 -35.5 -14.95 -35.7 L-17.2 -44.7" fill="#ffff2e" fill-rule="evenodd" stroke="none"/>
    <path d="M-7.3 -44.7 Q-7.35 -44.3 -8.75 -44.05 L-12.25 -43.8 -15.75 -44.05 Q-17.15 -44.3 -17.2 -44.7 -17.15 -45.1 -15.75 -45.35 L-12.25 -45.6 -8.75 -45.35 Q-7.35 -45.1 -7.3 -44.7" fill="#ffd400" fill-rule="evenodd" stroke="none"/>
  </g>
</svg>
