<?xml version="1.0" encoding="UTF-8" standalone="no"?>
<svg xmlns:xlink="http://www.w3.org/1999/xlink" height="468.75px" width="236.35px" xmlns="http://www.w3.org/2000/svg">
  <g transform="matrix(1.0, 0.0, 0.0, 1.0, 118.15, 468.25)">
    <path d="M-38.0 -214.55 L-34.7 -214.65 -33.6 -209.25 Q-32.5 -203.9 -29.9 -194.4 -27.35 -184.85 -23.05 -172.2 -18.75 -159.5 -12.4 -144.65 -6.1 -129.85 2.55 -113.95 11.2 -98.0 22.45 -82.05 33.75 -66.05 47.9 -51.0 62.05 -36.0 79.45 -23.0 96.8 -10.0 117.7 0.0" fill="none" stroke="#000000" stroke-linecap="round" stroke-linejoin="round" stroke-width="1.0"/>
    <path d="M4.0 -210.55 L7.3 -210.65 7.85 -205.7 Q8.4 -200.8 10.1 -192.2 11.75 -183.55 15.05 -172.25 18.35 -160.95 23.75 -148.0 29.15 -135.05 37.15 -121.45 45.15 -107.9 56.3 -94.8 67.4 -81.7 82.1 -70.05 96.85 -58.45 115.7 -49.35" fill="none" stroke="#000000" stroke-linecap="round" stroke-linejoin="round" stroke-width="1.0"/>
    <path d="M-117.65 -467.75 L-114.5 -466.8 -115.2 -461.3 -116.45 -446.1 Q-117.05 -436.25 -117.05 -422.85 -117.0 -409.45 -115.75 -393.4 -114.5 -377.3 -111.4 -359.45 -108.3 -341.6 -102.75 -322.85 -97.15 -304.1 -88.55 -285.35 -79.9 -266.6 -67.6 -248.7 -55.3 -230.85 -38.75 -214.7" fill="none" stroke="#000000" stroke-linecap="round" stroke-linejoin="round" stroke-width="1.0"/>
    <path d="M-106.0 -373.55 L-102.7 -373.65 -102.15 -368.7 Q-101.6 -363.8 -99.9 -355.2 -98.25 -346.55 -94.95 -335.25 -91.65 -323.95 -86.25 -311.0 -80.85 -298.05 -72.85 -284.45 -64.85 -270.9 -53.7 -257.8 -42.6 -244.7 -27.9 -233.05 -13.15 -221.45 5.7 -212.35" fill="none" stroke="#000000" stroke-linecap="round" stroke-linejoin="round" stroke-width="1.0"/>
  </g>
</svg>
