<?xml version="1.0" encoding="UTF-8" standalone="no"?>
<svg xmlns:xlink="http://www.w3.org/1999/xlink" height="67.25px" width="60.25px" xmlns="http://www.w3.org/2000/svg">
  <g transform="matrix(1.0, 0.0, 0.0, 1.0, 30.1, 62.25)">
    <path d="M21.4 -57.25 L15.15 5.0 8.2 4.3 14.4 -57.95 21.4 -57.25" fill="#73420a" fill-rule="evenodd" stroke="none"/>
    <path d="M12.25 -56.5 L14.2 -56.0 8.2 4.35 5.95 1.6 12.25 -56.5" fill="#52330c" fill-rule="evenodd" stroke="none"/>
    <path d="M-12.75 -59.1 L-14.0 3.45 -21.0 3.3 -19.75 -59.25 -12.75 -59.1" fill="#73420a" fill-rule="evenodd" stroke="none"/>
    <path d="M-21.75 -57.65 L-19.8 -57.3 -21.0 3.35 -23.45 0.8 -21.75 -57.65" fill="#52330c" fill-rule="evenodd" stroke="none"/>
    <path d="M28.25 -58.4 L28.15 -22.55 -25.35 -23.6 -27.35 -25.75 -30.1 -62.25 26.05 -60.4 28.25 -58.4" fill="#52330c" fill-rule="evenodd" stroke="none"/>
    <path d="M30.15 -20.75 L-25.35 -23.95 -28.1 -60.45 28.05 -58.6 30.15 -20.75" fill="#73420a" fill-rule="evenodd" stroke="none"/>
    <path d="M13.75 -46.4 Q13.75 -41.35 11.95 -37.55 10.2 -33.7 6.7 -31.55 3.15 -29.4 -1.95 -29.35 -6.0 -29.4 -8.6 -31.05 -11.25 -32.7 -12.8 -35.15 -14.35 -37.55 -15.1 -40.0 -15.85 -42.45 -16.05 -44.1 L-16.25 -45.8 -14.4 -44.95 Q-12.65 -44.15 -9.55 -43.25 -6.5 -42.4 -2.65 -42.1 1.25 -41.75 5.45 -42.7 9.65 -43.6 13.75 -46.4" fill="#52330c" fill-rule="evenodd" stroke="none"/>
    <path d="M10.5 -47.25 Q10.45 -46.25 8.85 -45.4 7.25 -44.6 4.55 -44.1 L-1.5 -43.6 -7.55 -44.25 Q-10.25 -44.85 -11.85 -45.85 -13.45 -46.8 -13.5 -47.8 -13.45 -48.8 -11.85 -49.5 L-7.55 -50.5 -1.5 -50.85 4.55 -50.35 Q7.25 -49.9 8.85 -49.1 10.45 -48.25 10.5 -47.25" fill="#52330c" fill-rule="evenodd" stroke="none"/>
    <path d="M20.55 -42.7 Q21.5 -41.85 21.4 -40.35 21.15 -38.85 19.75 -37.95 18.35 -37.05 16.65 -36.6 L13.55 -36.0 12.2 -35.85 12.5 -36.35 13.15 -37.8 Q16.1 -38.5 17.15 -39.25 18.25 -40.0 18.1 -40.65 L17.15 -41.75 15.7 -42.55 14.9 -42.85 14.8 -44.6 15.9 -44.5 18.25 -44.0 Q19.6 -43.6 20.55 -42.7" fill="#52330c" fill-rule="evenodd" stroke="none"/>
    <path d="M12.9 -47.85 Q12.9 -42.8 11.1 -39.0 9.35 -35.15 5.85 -33.0 2.35 -30.85 -2.8 -30.8 -6.85 -30.85 -9.45 -32.5 -12.1 -34.15 -13.65 -36.6 -15.2 -39.0 -15.95 -41.45 L-16.9 -45.55 -17.1 -47.25 -15.25 -46.4 Q-13.5 -45.6 -10.4 -44.7 -7.35 -43.85 -3.5 -43.55 0.4 -43.2 4.6 -44.15 8.8 -45.05 12.9 -47.85" fill="#9c5712" fill-rule="evenodd" stroke="none"/>
    <path d="M8.85 -48.8 Q8.8 -47.85 7.35 -47.1 5.85 -46.35 3.35 -45.85 L-2.3 -45.35 -7.95 -45.9 Q-10.5 -46.5 -11.95 -47.4 -13.45 -48.3 -13.5 -49.25 -13.45 -50.15 -12.0 -50.8 L-7.95 -51.75 -2.35 -52.1 3.3 -51.7 7.35 -50.5 Q8.8 -49.75 8.85 -48.8" fill="#9c5712" fill-rule="evenodd" stroke="none"/>
    <path d="M19.7 -44.15 Q20.65 -43.3 20.55 -41.8 20.3 -40.3 18.9 -39.4 17.5 -38.5 15.8 -38.05 L12.7 -37.45 11.35 -37.3 11.65 -37.8 12.3 -39.25 Q15.25 -40.0 16.3 -40.7 17.4 -41.45 17.25 -42.1 17.1 -42.7 16.3 -43.2 L14.85 -44.0 14.05 -44.3 13.95 -46.05 15.05 -45.95 17.4 -45.45 Q18.75 -45.05 19.7 -44.15" fill="#9c5712" fill-rule="evenodd" stroke="none"/>
  </g>
</svg>
