<?xml version="1.0" encoding="UTF-8" standalone="no"?>
<svg xmlns:xlink="http://www.w3.org/1999/xlink" height="46.2px" width="32.95px" xmlns="http://www.w3.org/2000/svg">
  <g transform="matrix(1.0, 0.0, 0.0, 1.0, 16.45, 41.2)">
    <path d="M-5.1 1.45 Q-5.1 2.55 -5.9 3.3 -6.65 4.1 -7.75 4.1 -8.9 4.1 -9.65 3.3 -10.4 2.55 -10.45 1.45 -10.4 0.3 -9.65 -0.45 -8.9 -1.2 -7.75 -1.25 -6.65 -1.2 -5.9 -0.45 -5.1 0.3 -5.1 1.45" fill="#000000" fill-rule="evenodd" stroke="none"/>
    <path d="M10.25 2.35 Q10.25 3.45 9.45 4.2 8.7 5.0 7.6 5.0 6.45 5.0 5.7 4.2 4.95 3.45 4.9 2.35 4.95 1.2 5.7 0.45 6.45 -0.3 7.6 -0.35 8.7 -0.3 9.45 0.45 10.25 1.2 10.25 2.35" fill="#000000" fill-rule="evenodd" stroke="none"/>
    <path d="M12.3 -5.65 Q12.25 -4.65 11.6 -3.95 10.9 -3.3 9.9 -3.25 8.9 -3.3 8.2 -3.95 7.55 -4.65 7.5 -5.65 7.55 -6.65 8.2 -7.35 8.85 -8.0 9.9 -8.05 10.9 -8.0 11.6 -7.35 12.25 -6.7 12.3 -5.65" fill="#000000" fill-rule="evenodd" stroke="none"/>
    <path d="M-2.3 -7.35 Q-2.35 -6.35 -3.0 -5.65 -3.7 -5.0 -4.7 -4.95 -5.7 -5.0 -6.4 -5.65 -7.05 -6.35 -7.1 -7.35 -7.05 -8.35 -6.4 -9.05 -5.75 -9.7 -4.7 -9.75 -3.7 -9.7 -3.0 -9.05 -2.35 -8.4 -2.3 -7.35" fill="#000000" fill-rule="evenodd" stroke="none"/>
    <path d="M3.35 -4.85 L-0.35 -4.85 -0.35 -15.5 3.35 -15.5 3.35 -4.85" fill="#3b3b3b" fill-rule="evenodd" stroke="none"/>
    <path d="M16.4 -17.9 L16.5 -17.45 Q16.45 -16.45 14.55 -15.6 12.65 -14.75 9.4 -14.25 L2.2 -13.75 -5.05 -14.25 Q-8.3 -14.75 -10.2 -15.6 -12.1 -16.4 -12.15 -17.45 L-12.1 -17.7 -12.15 -17.7 -12.15 -20.6 -5.25 -20.6 2.2 -21.15 9.65 -20.6 16.4 -20.6 16.4 -17.9" fill="#142b61" fill-rule="evenodd" stroke="none"/>
    <path d="M16.5 -20.25 Q16.45 -19.2 14.55 -18.4 12.65 -17.55 9.4 -17.05 L2.2 -16.55 -5.05 -17.05 Q-8.3 -17.55 -10.2 -18.4 -12.1 -19.25 -12.15 -20.25 -12.1 -21.3 -10.2 -22.1 -8.3 -22.95 -5.05 -23.45 L2.2 -23.95 9.4 -23.45 Q12.65 -22.95 14.55 -22.1 16.45 -21.3 16.5 -20.25" fill="#244fc4" fill-rule="evenodd" stroke="none"/>
    <path d="M-9.65 -22.25 L-9.2 -29.45 -5.75 -29.9 -5.7 -28.8 -5.65 -26.2 -5.65 -23.3 -8.85 -22.6 -9.65 -22.25" fill="#3b3b3b" fill-rule="evenodd" stroke="none"/>
    <path d="M2.95 -33.65 Q2.9 -32.1 2.1 -30.9 1.3 -29.7 0.05 -29.4 L-10.9 -27.2 Q-13.15 -26.8 -14.75 -28.05 -16.4 -29.3 -16.45 -31.65 L-16.45 -36.0 Q-16.4 -38.35 -14.75 -39.85 -13.15 -41.3 -10.9 -41.2 L0.05 -40.4 Q1.3 -40.25 2.1 -39.2 2.9 -38.1 2.95 -36.5 L2.95 -33.65" fill="#142b61" fill-rule="evenodd" stroke="none"/>
    <path d="M3.0 -33.65 Q3.0 -32.1 2.3 -30.9 1.55 -29.7 0.45 -29.4 L-9.4 -27.2 Q-11.4 -26.8 -12.85 -28.05 -14.3 -29.3 -14.35 -31.65 L-14.35 -36.0 Q-14.3 -38.35 -12.85 -39.85 -11.4 -41.3 -9.4 -41.2 L0.45 -40.4 Q1.55 -40.25 2.3 -39.2 3.0 -38.1 3.0 -36.5 L3.0 -33.65" fill="#244fc4" fill-rule="evenodd" stroke="none"/>
    <path d="M2.1 -6.6 L9.0 -9.15 11.3 -7.75 3.7 -5.15 10.3 0.7 6.75 1.7 1.4 -4.05 -8.15 0.4 -10.75 -1.9 -0.75 -5.7 -6.5 -10.15 -1.5 -9.8 2.1 -6.6" fill="#3b3b3b" fill-rule="evenodd" stroke="none"/>
  </g>
</svg>
