<?xml version="1.0" encoding="UTF-8" standalone="no"?>
<svg xmlns:xlink="http://www.w3.org/1999/xlink" height="64.45px" width="39.4px" xmlns="http://www.w3.org/2000/svg">
  <g transform="matrix(1.0, 0.0, 0.0, 1.0, 19.7, 59.45)">
    <path d="M-19.2 -15.4 L-17.8 -15.9 -14.6 -16.0 Q-12.7 -15.7 -10.95 -13.65 -10.35 -12.85 -10.45 -11.0 -10.5 -9.1 -10.9 -6.75 L-11.9 -2.25 -12.85 1.35 -13.3 2.85 -15.75 2.85 -16.0 2.85 -16.15 2.85 -18.05 2.85 Q-16.55 -0.55 -16.45 -3.8 -16.4 -7.05 -17.05 -9.65 -17.7 -12.25 -18.45 -13.8 L-19.2 -15.4" fill="#52330c" fill-rule="evenodd" stroke="none"/>
    <path d="M-10.55 -21.3 L-9.15 -21.8 -5.95 -21.9 Q-4.05 -21.6 -2.3 -19.55 -1.7 -18.75 -1.8 -16.9 -1.85 -15.0 -2.25 -12.65 L-3.25 -8.15 -4.2 -4.55 -4.65 -3.05 -7.1 -3.05 -7.35 -3.05 -7.5 -3.05 -9.4 -3.05 Q-7.9 -6.45 -7.8 -9.7 -7.75 -12.95 -8.4 -15.55 -9.05 -18.15 -9.8 -19.7 L-10.55 -21.3" fill="#52330c" fill-rule="evenodd" stroke="none"/>
    <path d="M13.3 -19.9 L13.4 -19.0 13.3 -17.65 Q12.65 -16.4 11.95 -13.95 11.3 -11.5 11.4 -8.25 11.5 -5.0 13.2 -1.3 L11.3 -1.3 11.15 -1.3 10.9 -1.3 8.45 -1.3 8.0 -2.75 7.05 -6.35 6.05 -10.9 Q5.6 -13.25 5.55 -15.1 5.5 -17.0 6.05 -17.8 7.8 -19.85 9.45 -20.25 L12.2 -20.3 13.3 -19.9" fill="#52330c" fill-rule="evenodd" stroke="none"/>
    <path d="M3.6 -16.55 L3.7 -15.65 3.6 -14.3 Q2.95 -12.95 2.25 -9.85 1.55 -6.7 1.65 -2.75 1.75 1.2 3.4 5.0 L1.5 5.0 1.35 5.0 1.1 5.0 -1.35 5.0 -1.75 3.2 -2.7 -1.15 -3.7 -6.5 -4.15 -11.45 Q-4.2 -13.6 -3.6 -14.45 -1.85 -16.5 -0.2 -16.9 L2.5 -16.95 3.6 -16.55" fill="#52330c" fill-rule="evenodd" stroke="none"/>
    <path d="M18.1 -35.3 Q16.95 -31.15 15.8 -28.4 14.65 -25.6 14.2 -25.25 L11.8 -24.75 7.35 -24.5 2.35 -24.35 -1.7 -24.25 -3.4 -24.25 -4.65 -26.6 Q-5.85 -28.85 -7.25 -32.55 -8.65 -36.2 -9.4 -40.4 -10.2 -44.6 -9.4 -48.55 -8.65 -52.5 -5.45 -55.4 -2.3 -58.25 4.2 -59.2 10.7 -60.0 14.15 -58.0 17.6 -56.0 18.75 -52.2 19.95 -48.45 19.6 -43.95 19.25 -39.45 18.1 -35.3" fill="#ab3000" fill-rule="evenodd" stroke="none"/>
    <path d="M14.55 -35.1 L12.9 -29.55 11.75 -27.05 9.2 -26.75 4.75 -26.8 0.5 -27.0 -1.4 -27.1 -2.35 -28.95 -4.3 -33.65 Q-5.35 -36.55 -5.9 -39.9 -6.5 -43.2 -5.9 -46.3 -5.35 -49.45 -3.0 -51.65 -0.65 -53.9 4.15 -54.6 8.95 -55.15 11.5 -53.5 14.1 -51.85 15.0 -48.75 15.85 -45.7 15.65 -42.05 15.4 -38.45 14.55 -35.1" fill="#e82900" fill-rule="evenodd" stroke="none"/>
    <path d="M13.5 -21.2 Q13.8 -20.15 13.25 -18.55 12.65 -16.95 10.45 -15.45 8.2 -13.95 3.55 -13.05 L-9.05 -12.45 Q-15.1 -12.75 -17.5 -13.5 -19.95 -14.3 -19.7 -15.35 L-19.7 -20.15 -14.65 -20.15 -14.65 -19.1 -10.3 -20.85 -6.7 -22.1 -5.15 -22.6 -3.8 -22.6 -0.35 -22.6 4.05 -22.55 8.45 -22.5 8.45 -25.4 13.5 -25.4 13.5 -21.2" fill="#e82900" fill-rule="evenodd" stroke="none"/>
    <path d="M0.85 -27.15 L6.05 -27.1 10.6 -27.0 12.9 -26.85 Q13.3 -26.7 13.55 -25.55 13.8 -24.45 13.15 -22.9 12.5 -21.35 10.25 -19.85 7.95 -18.4 3.35 -17.55 L-9.05 -17.0 -17.05 -17.9 Q-19.5 -18.6 -19.65 -19.5 -19.85 -20.45 -18.45 -21.45 -17.05 -22.5 -14.9 -23.5 L-10.5 -25.35 -6.75 -26.65 -5.15 -27.15 -3.4 -27.15 0.85 -27.15" fill="#ab3000" fill-rule="evenodd" stroke="none"/>
  </g>
</svg>
