<?xml version="1.0" encoding="UTF-8" standalone="no"?>
<svg xmlns:xlink="http://www.w3.org/1999/xlink" height="27.5px" width="26.45px" xmlns="http://www.w3.org/2000/svg">
  <g transform="matrix(1.0, 0.0, 0.0, 1.0, 13.2, 24.0)">
    <path d="M-8.6 -17.65 L-6.85 -16.8 -7.15 -14.65 -7.95 -9.65 -8.95 -3.65 -9.95 1.4 Q-10.45 3.45 -10.8 3.5 -11.65 3.45 -12.4 2.85 L-13.2 2.2 -8.6 -17.65" fill="#9c5712" fill-rule="evenodd" stroke="none"/>
    <path d="M8.65 -17.85 L13.25 2.0 12.45 2.65 Q11.7 3.25 10.85 3.3 10.5 3.25 10.0 1.2 L9.0 -3.85 7.95 -9.85 7.2 -14.85 6.9 -17.0 8.65 -17.85" fill="#9c5712" fill-rule="evenodd" stroke="none"/>
    <path d="M1.8 -16.6 L2.3 -0.7 1.4 -0.4 -0.3 -0.35 Q-0.6 -0.5 -0.65 -2.1 L-0.65 -6.1 -0.45 -10.8 -0.2 -14.75 -0.05 -16.4 1.8 -16.6" fill="#73420a" fill-rule="evenodd" stroke="none"/>
    <path d="M12.8 -18.7 L12.85 -18.35 Q12.85 -17.45 11.15 -16.7 9.5 -15.95 6.65 -15.55 L0.35 -15.1 -5.95 -15.55 Q-8.75 -16.0 -10.45 -16.7 -12.1 -17.45 -12.15 -18.35 L-12.1 -18.5 -12.15 -18.5 -12.15 -21.1 -6.15 -21.1 0.35 -21.55 6.85 -21.1 12.8 -21.1 12.8 -18.7" fill="#9c5712" fill-rule="evenodd" stroke="none"/>
    <path d="M12.85 -20.8 Q12.8 -19.9 11.15 -19.15 9.5 -18.45 6.7 -18.0 L0.35 -17.55 -5.95 -18.0 Q-8.75 -18.4 -10.45 -19.15 -12.1 -19.9 -12.15 -20.8 -12.1 -21.7 -10.45 -22.4 -8.75 -23.15 -5.95 -23.55 L0.35 -24.0 6.65 -23.55 Q9.5 -23.15 11.15 -22.4 12.85 -21.7 12.85 -20.8" fill="#f77e15" fill-rule="evenodd" stroke="none"/>
  </g>
</svg>
