<?xml version="1.0" encoding="UTF-8" standalone="no"?>
<svg xmlns:xlink="http://www.w3.org/1999/xlink" height="150.15px" width="57.75px" xmlns="http://www.w3.org/2000/svg">
  <g transform="matrix(1.0, 0.0, 0.0, 1.0, 18.85, 147.15)">
    <path d="M7.65 -134.95 L16.6 -134.1 4.05 1.3 3.4 1.85 Q2.7 2.4 1.55 2.8 L-1.1 2.85 Q-3.25 2.2 -4.1 1.35 L-4.9 0.45 7.65 -134.95" fill="#73420a" fill-rule="evenodd" stroke="none"/>
    <path d="M37.05 -132.75 L36.5 -126.75 -9.7 -131.05 -12.1 -133.5 -11.75 -137.25 37.05 -132.75" fill="#73420a" fill-rule="evenodd" stroke="none"/>
    <path d="M37.05 -132.75 L36.85 -130.7 -9.35 -134.95 -11.75 -137.25 37.05 -132.75" fill="#9c5712" fill-rule="evenodd" stroke="none"/>
    <path d="M36.9 -141.8 Q37.75 -141.0 37.7 -139.95 37.6 -138.9 36.65 -138.3 37.75 -137.7 38.35 -136.75 39.0 -135.8 38.9 -134.7 38.7 -133.1 37.2 -132.15 35.7 -131.2 33.55 -131.35 31.45 -131.6 30.1 -132.8 28.8 -134.0 28.9 -135.65 29.05 -136.75 29.85 -137.6 30.65 -138.4 31.85 -138.8 31.1 -139.55 31.15 -140.55 31.3 -141.6 32.3 -142.2 33.3 -142.85 34.65 -142.75 36.05 -142.6 36.9 -141.8" fill="#ffffff" fill-rule="evenodd" stroke="none"/>
    <path d="M37.7 -139.95 Q37.55 -138.95 36.6 -138.3 37.75 -137.7 38.35 -136.75 38.95 -135.85 38.9 -134.75 38.7 -133.15 37.15 -132.2 35.65 -131.25 33.55 -131.4 32.2 -131.5 31.15 -132.1 L32.05 -131.95 Q34.15 -131.8 35.7 -132.75 37.2 -133.7 37.4 -135.3 37.5 -136.4 36.85 -137.35 L35.15 -138.9 Q36.05 -139.5 36.2 -140.5 36.25 -141.85 34.95 -142.7 36.2 -142.45 37.0 -141.7 37.75 -140.95 37.7 -139.95" fill="#7d7d7d" fill-rule="evenodd" stroke="none"/>
    <path d="M-4.75 -146.2 Q-3.9 -145.4 -3.95 -144.35 -4.05 -143.3 -5.0 -142.7 -3.9 -142.1 -3.3 -141.15 -2.65 -140.2 -2.75 -139.15 -2.95 -137.5 -4.45 -136.55 -5.95 -135.6 -8.1 -135.75 -10.2 -136.0 -11.55 -137.2 -12.85 -138.4 -12.75 -140.05 -12.6 -141.15 -11.8 -142.0 L-9.8 -143.2 Q-10.55 -143.95 -10.5 -144.95 -10.35 -146.0 -9.35 -146.6 -8.35 -147.25 -7.0 -147.15 -5.6 -147.0 -4.75 -146.2" fill="#ffffff" fill-rule="evenodd" stroke="none"/>
    <path d="M-3.95 -144.35 Q-4.1 -143.35 -5.05 -142.7 -3.9 -142.1 -3.3 -141.15 -2.7 -140.25 -2.75 -139.15 -2.95 -137.55 -4.5 -136.6 -6.0 -135.65 -8.1 -135.8 -9.45 -135.9 -10.5 -136.5 L-9.6 -136.35 Q-7.5 -136.2 -5.95 -137.15 -4.45 -138.1 -4.25 -139.7 -4.15 -140.8 -4.8 -141.75 -5.4 -142.65 -6.5 -143.3 -5.6 -143.9 -5.45 -144.9 -5.4 -146.25 -6.7 -147.1 -5.45 -146.85 -4.65 -146.1 -3.9 -145.35 -3.95 -144.35" fill="#7d7d7d" fill-rule="evenodd" stroke="none"/>
    <path d="M-9.3 -134.95 L-9.75 -131.25 -12.1 -133.25 -11.75 -137.1 -9.3 -134.95" fill="#9c5712" fill-rule="evenodd" stroke="none"/>
    <path d="M9.25 -129.4 L-2.9 1.6 -4.65 0.3 7.35 -129.55 9.25 -129.4" fill="#52330c" fill-rule="evenodd" stroke="none"/>
    <path d="M8.7 -100.05 L11.95 -71.15 -13.75 -68.95 -15.2 -98.05 8.7 -100.05" fill="#ffd400" fill-rule="evenodd" stroke="none"/>
    <path d="M11.95 -71.1 L8.35 -100.0 -15.2 -98.0 -6.85 -105.75 13.8 -107.65 17.45 -78.25 11.95 -71.1" fill="#d9b324" fill-rule="evenodd" stroke="none"/>
    <path d="M13.5 -107.1 L17.45 -78.25 11.95 -71.15 8.35 -100.0 13.5 -107.1" fill="#d99024" fill-rule="evenodd" stroke="none"/>
    <path d="M9.15 -104.35 L10.2 -98.1 -18.85 -95.6 -17.85 -102.05 9.15 -104.35" fill="#ffd400" fill-rule="evenodd" stroke="none"/>
    <path d="M10.2 -98.1 L8.75 -104.3 -17.85 -102.05 -8.4 -110.85 14.9 -112.95 16.4 -106.15 10.2 -98.1" fill="#d9b324" fill-rule="evenodd" stroke="none"/>
    <path d="M14.6 -112.3 L16.45 -106.15 10.25 -98.1 8.8 -104.3 14.6 -112.3" fill="#d99024" fill-rule="evenodd" stroke="none"/>
    <path d="M-14.95 -95.75 L8.45 -97.75 10.0 -85.9 8.8 -87.5 Q7.6 -89.05 4.8 -91.1 1.95 -93.1 -2.9 -94.5 -7.7 -95.95 -14.95 -95.75" fill="#d9b324" fill-rule="evenodd" stroke="none"/>
    <path d="M-4.75 -90.9 Q-3.75 -92.1 -2.05 -92.35 -0.35 -92.45 0.9 -91.45 2.1 -90.45 2.35 -88.75 2.45 -87.05 1.45 -85.8 0.45 -84.6 -1.25 -84.35 -2.95 -84.25 -4.2 -85.25 -5.4 -86.25 -5.65 -87.95 -5.75 -89.65 -4.75 -90.9" fill="#52330c" fill-rule="evenodd" stroke="none"/>
  </g>
</svg>
