<?xml version="1.0" encoding="UTF-8" standalone="no"?>
<svg xmlns:xlink="http://www.w3.org/1999/xlink" height="185.8px" width="133.9px" xmlns="http://www.w3.org/2000/svg">
  <g transform="matrix(1.0, 0.0, 0.0, 1.0, -69.5, 0.0)">
    <path d="M153.75 10.25 L153.75 10.15 154.0 9.55 154.4 8.55 156.2 4.8 157.45 2.55 Q162.6 -2.45 164.55 2.3 164.1 3.55 165.5 4.45 166.85 5.3 167.4 8.5 L168.25 14.1 168.6 16.8 Q169.6 24.5 172.6 34.15 175.7 44.2 181.65 55.35 L183.25 57.8 183.55 58.3 Q185.35 61.15 188.15 66.3 L191.9 73.9 193.1 75.7 195.0 79.15 Q197.35 84.1 199.4 91.25 201.45 98.4 202.55 107.0 L202.65 107.8 202.8 108.8 203.0 110.8 Q203.6 117.65 203.3 124.85 202.9 134.05 200.35 143.1 197.85 152.15 192.65 160.15 L190.05 163.8 Q185.4 169.65 178.9 174.4 170.4 180.6 158.0 184.15 145.6 187.75 132.2 183.45 L125.25 181.4 121.05 181.2 112.9 179.9 103.25 178.5 Q97.9 177.9 90.65 178.35 84.55 178.75 76.65 180.3 L73.5 180.9 69.9 181.75 69.5 181.85 69.5 151.3 69.75 150.9 69.9 150.7 Q72.85 146.1 75.35 140.75 L76.75 137.45 80.05 128.15 80.8 124.5 81.2 122.65 Q82.65 116.25 84.25 110.8 L84.9 108.8 85.2 107.8 85.3 107.55 85.35 107.5 85.85 105.95 Q88.5 98.45 91.65 92.55 L91.7 92.45 93.25 89.6 95.65 85.8 Q97.35 83.15 99.25 80.8 L99.35 80.7 102.35 77.2 Q105.65 73.6 109.3 70.35 L110.8 69.0 113.2 66.95 124.5 58.15 125.0 57.8 125.8 57.2 125.85 57.15 134.85 50.35 136.15 49.35 140.4 45.95 143.2 43.3 143.75 42.7 Q146.65 39.55 148.4 36.3 L149.3 34.55 149.9 33.3 Q151.4 29.95 152.05 26.65 L152.35 25.0 Q153.05 21.15 153.15 17.7 L153.2 16.8 Q153.4 13.15 153.75 10.25" fill="#4c8335" fill-rule="evenodd" stroke="none"/>
    <path d="M69.75 150.9 L70.05 142.8 75.35 140.75 Q72.85 146.1 69.9 150.7 L69.75 150.9 M76.75 137.45 L73.35 128.8 80.8 124.5 80.05 128.15 76.75 137.45 M81.2 122.65 L74.0 112.15 85.3 107.55 85.2 107.8 84.9 108.8 84.25 110.8 Q82.65 116.25 81.2 122.65 M85.35 107.5 L79.7 95.15 91.65 92.55 Q88.5 98.45 85.85 105.95 L85.35 107.5 M91.7 92.45 L87.35 79.15 99.25 80.8 Q97.35 83.15 95.65 85.8 L93.25 89.6 91.7 92.45 M99.35 80.7 L99.7 67.15 109.3 70.35 Q105.65 73.6 102.35 77.2 L99.35 80.7 M110.8 69.0 L111.35 55.15 124.5 58.15 113.2 66.95 110.8 69.0 M125.8 57.2 L124.35 47.8 134.85 50.35 125.85 57.15 125.8 57.2 M136.15 49.35 L132.7 40.5 143.2 43.3 140.4 45.95 136.15 49.35 M143.75 42.7 L140.6 33.35 149.3 34.55 148.4 36.3 Q146.65 39.55 143.75 42.7 M149.9 33.3 L148.0 26.65 152.05 26.65 Q151.4 29.95 149.9 33.3 M152.35 25.0 L148.5 18.15 153.2 15.3 147.35 10.5 152.85 6.3 153.75 10.25 Q153.4 13.15 153.2 16.8 L153.15 17.7 Q153.05 21.15 152.35 25.0" fill="#f7df15" fill-rule="evenodd" stroke="none"/>
    <path d="M153.75 10.25 L153.75 10.15 154.0 9.55 154.4 8.55 156.2 4.8 157.45 2.55 Q162.6 -2.45 164.55 2.3 164.1 3.55 165.5 4.45 166.85 5.3 167.4 8.5 L168.25 14.1 168.6 16.8 Q169.6 24.5 172.6 34.15 175.7 44.2 181.65 55.35 L183.25 57.8 183.55 58.3 Q185.35 61.15 188.15 66.3 L191.9 73.9 193.1 75.7 195.0 79.15 Q197.35 84.1 199.4 91.25 201.45 98.4 202.55 107.0 L202.65 107.8 202.8 108.8 203.0 110.8 Q203.6 117.65 203.3 124.85 202.9 134.05 200.35 143.1 197.85 152.15 192.65 160.15 L190.05 163.8 Q185.4 169.65 178.9 174.4 170.4 180.6 158.0 184.15 145.6 187.75 132.2 183.45 L125.25 181.4 121.05 181.2 112.9 179.9 103.25 178.5 Q97.9 177.9 90.65 178.35 84.55 178.75 76.65 180.3 M69.5 151.3 L69.75 150.9 70.05 142.8 75.35 140.75 76.75 137.45 73.35 128.8 80.8 124.5 81.2 122.65 74.0 112.15 85.3 107.55 85.35 107.5 79.7 95.15 91.65 92.55 91.7 92.45 87.35 79.15 99.25 80.8 99.35 80.7 99.7 67.15 109.3 70.35 110.8 69.0 111.35 55.15 124.5 58.15 125.0 57.8 125.8 57.2 124.35 47.8 134.85 50.35 136.15 49.35 132.7 40.5 143.2 43.3 143.75 42.7 140.6 33.35 149.3 34.55 149.9 33.3 148.0 26.65 152.05 26.65 152.35 25.0 148.5 18.15 153.2 15.3 147.35 10.5 152.85 6.3 153.75 10.25 Q153.4 13.15 153.2 16.8 L153.15 17.7 Q153.05 21.15 152.35 25.0 M136.15 49.35 L140.4 45.95 143.2 43.3 M149.9 33.3 Q151.4 29.95 152.05 26.65 M143.75 42.7 Q146.65 39.55 148.4 36.3 L149.3 34.55 M110.8 69.0 L113.2 66.95 124.5 58.15 M91.7 92.45 L93.25 89.6 95.65 85.8 Q97.35 83.15 99.25 80.8 M99.35 80.7 L102.35 77.2 Q105.65 73.6 109.3 70.35 M125.8 57.2 L125.85 57.15 134.85 50.35 M76.75 137.45 L80.05 128.15 80.8 124.5 M69.75 150.9 L69.9 150.7 Q72.85 146.1 75.35 140.75 M85.35 107.5 L85.85 105.95 Q88.5 98.45 91.65 92.55 M81.2 122.65 Q82.65 116.25 84.25 110.8 L84.9 108.8 85.2 107.8 85.3 107.55" fill="none" stroke="#223c17" stroke-linecap="round" stroke-linejoin="round" stroke-width="0.05"/>
    <path d="M76.65 180.3 L73.5 180.9 69.9 181.75 69.5 181.85" fill="none" stroke="#223c17" stroke-linecap="round" stroke-linejoin="round" stroke-width="0.05"/>
  </g>
</svg>
