<?xml version="1.0" encoding="UTF-8" standalone="no"?>
<svg xmlns:xlink="http://www.w3.org/1999/xlink" height="31.8px" width="20.8px" xmlns="http://www.w3.org/2000/svg">
  <g transform="matrix(1.0, 0.0, 0.0, 1.0, 7.0, 9.1)">
    <path d="M10.8 22.2 L13.3 18.9 Q11.25 14.2 7.65 9.9 L3.65 5.35 0.2 -8.6 -6.5 -6.35 -4.9 -5.9 Q-3.5 -5.55 -2.95 -4.95 -2.6 -4.45 -2.0 -2.1 -1.3 0.2 -0.75 2.45 L-0.15 4.75 Q-0.5 4.9 -0.75 6.95 -0.45 7.9 0.75 8.35 L2.05 8.85 2.8 10.8 Q3.55 12.6 4.9 14.45 5.85 15.45 7.0 15.95 L9.15 17.65 Q9.8 18.9 9.85 20.1 9.85 21.25 10.8 22.2" fill="#73420d" fill-rule="evenodd" stroke="none"/>
    <path d="M10.8 22.2 Q9.85 21.25 9.85 20.1 9.8 18.9 9.15 17.65 L7.0 15.95 Q5.85 15.45 4.9 14.45 3.55 12.6 2.8 10.8 L2.05 8.85 0.75 8.35 Q-0.45 7.9 -0.75 6.95 -0.5 4.9 -0.15 4.75 L-0.75 2.45 Q-1.3 0.2 -2.0 -2.1 -2.6 -4.45 -2.95 -4.95 -3.5 -5.55 -4.9 -5.9 L-6.5 -6.35 0.2 -8.6 3.65 5.35 7.65 9.9 Q11.25 14.2 13.3 18.9" fill="none" stroke="#000000" stroke-linecap="round" stroke-linejoin="round" stroke-width="1.0"/>
  </g>
</svg>
