<?xml version="1.0" encoding="UTF-8" standalone="no"?>
<svg xmlns:xlink="http://www.w3.org/1999/xlink" height="51.05px" width="26.1px" xmlns="http://www.w3.org/2000/svg">
  <g transform="matrix(1.0, 0.0, 0.0, 1.0, 13.05, 25.55)">
    <path d="M8.5 -25.05 L12.55 -25.05 12.55 -22.1 Q12.15 -19.9 10.85 -18.3 L9.35 -16.65 Q9.55 -15.75 4.95 -3.15 3.15 0.75 1.15 2.85 -0.95 4.95 -2.9 8.55 -3.95 10.75 -4.65 13.95 -5.4 17.15 -6.4 19.25 -7.85 21.55 -9.65 22.45 -11.5 23.35 -12.55 25.0 L-8.1 10.8 Q-4.65 4.35 -0.9 -3.5 L5.4 -17.2 8.2 -23.35 8.5 -25.05" fill="#73420d" fill-rule="evenodd" stroke="none"/>
    <path d="M8.5 -25.05 L8.2 -23.35 5.4 -17.2 -0.9 -3.5 Q-4.65 4.35 -8.1 10.8 M-12.55 25.0 Q-11.5 23.35 -9.65 22.45 -7.85 21.55 -6.4 19.25 -5.4 17.15 -4.65 13.95 -3.95 10.75 -2.9 8.55 -0.95 4.95 1.15 2.85 3.15 0.75 4.95 -3.15 9.55 -15.75 9.35 -16.65 L10.85 -18.3 Q12.15 -19.9 12.55 -22.1 L12.55 -25.05" fill="none" stroke="#000000" stroke-linecap="round" stroke-linejoin="round" stroke-width="1.0"/>
  </g>
</svg>
