<?xml version="1.0" encoding="UTF-8" standalone="no"?>
<svg xmlns:xlink="http://www.w3.org/1999/xlink" height="36.9px" width="9.75px" xmlns="http://www.w3.org/2000/svg">
  <g transform="matrix(1.0, 0.0, 0.0, 1.0, 4.85, 36.9)">
    <path d="M2.2 -27.7 L2.2 0.0 -2.65 0.0 -2.65 -27.95 Q-1.45 -27.2 0.05 -27.2 1.25 -27.2 2.2 -27.7" fill="#351f06" fill-rule="evenodd" stroke="none"/>
    <path d="M-2.65 -27.95 L-3.45 -28.65 Q-4.85 -30.0 -4.85 -32.1 -4.85 -34.15 -3.45 -35.55 -2.0 -36.9 0.05 -36.9 2.15 -36.9 3.5 -35.55 4.9 -34.15 4.9 -32.1 4.9 -30.0 3.5 -28.65 L2.2 -27.7 Q1.25 -27.2 0.05 -27.2 -1.45 -27.2 -2.65 -27.95" fill="#000000" fill-rule="evenodd" stroke="none"/>
  </g>
</svg>
