<?xml version="1.0" encoding="UTF-8" standalone="no"?>
<svg xmlns:xlink="http://www.w3.org/1999/xlink" height="189.6px" width="59.8px" xmlns="http://www.w3.org/2000/svg">
  <g transform="matrix(1.0, 0.0, 0.0, 1.0, 29.9, 95.05)">
    <path d="M12.0 -77.55 Q18.4 -60.5 17.5 -46.9 L18.3 28.2 Q18.65 28.75 19.6 33.5 20.55 38.25 18.3 40.7 18.0 43.35 18.1 51.05 L18.4 65.75 18.6 73.2 22.7 82.55 14.55 86.0 12.35 82.55 12.45 71.3 12.5 49.65 12.35 35.7 10.3 25.3 6.75 10.25 4.85 2.6 -8.55 2.9 Q-8.5 3.4 -9.8 11.6 -11.15 19.8 -14.8 29.45 -14.35 33.5 -14.15 44.0 L-13.9 63.85 -13.85 73.8 -12.3 82.55 -17.3 85.05 -21.25 80.5 -21.25 71.5 -21.4 54.05 Q-21.55 45.05 -22.0 42.55 -24.4 35.1 -22.95 32.9 -21.45 30.75 -21.05 31.0 L-23.55 -17.4 -17.3 -71.75 Q-14.25 -81.85 -9.2 -83.95 L-9.2 -94.55 6.45 -94.55 6.5 -83.6 Q12.1 -80.1 12.0 -77.55" fill="#73420d" fill-rule="evenodd" stroke="none"/>
    <path d="M12.0 -77.55 Q18.4 -60.5 17.5 -46.9 L18.3 28.2 Q18.65 28.75 19.6 33.5 20.55 38.25 18.3 40.7 18.0 43.35 18.1 51.05 L18.4 65.75 18.6 73.2 22.7 82.55 14.55 86.0 12.35 82.55 12.45 71.3 12.5 49.65 12.35 35.7 10.3 25.3 6.75 10.25 4.85 2.6 -8.55 2.9 Q-8.5 3.4 -9.8 11.6 -11.15 19.8 -14.8 29.45 -14.35 33.5 -14.15 44.0 L-13.9 63.85 -13.85 73.8 -12.3 82.55 -17.3 85.05 -21.25 80.5 -21.25 71.5 -21.4 54.05 Q-21.55 45.05 -22.0 42.55 -24.4 35.1 -22.95 32.9 -21.45 30.75 -21.05 31.0 L-23.55 -17.4 -17.3 -71.75 Q-14.25 -81.85 -9.2 -83.95 L-9.2 -94.55 6.45 -94.55 6.5 -83.6 Q12.1 -80.1 12.0 -77.55 Z" fill="none" stroke="#000000" stroke-linecap="round" stroke-linejoin="round" stroke-width="1.0"/>
    <path d="M-13.15 0.95 L11.3 1.0 Q-3.85 7.2 -13.15 0.95" fill="#73420d" fill-rule="evenodd" stroke="none"/>
    <path d="M-13.15 0.95 Q-3.85 7.2 11.3 1.0" fill="none" stroke="#000000" stroke-linecap="round" stroke-linejoin="round" stroke-width="1.0"/>
    <path d="M-12.5 81.1 Q-10.5 82.05 -13.0 85.25 -14.1 87.1 -13.55 88.2 -13.05 89.3 -16.25 92.0 -20.95 95.05 -23.45 94.45 -26.0 93.9 -26.05 93.55 -26.4 93.05 -24.45 90.3 L-29.9 91.7 Q-27.8 83.65 -24.45 81.85 -21.1 80.1 -20.75 80.45 L-17.5 80.25 Q-14.55 80.15 -12.5 81.1" fill="#000000" fill-rule="evenodd" stroke="none"/>
    <path d="M25.05 90.65 L27.45 93.65 Q27.35 93.95 24.15 94.45 21.0 95.0 16.25 91.95 13.05 89.25 13.55 88.15 14.05 87.05 13.0 85.2 10.5 82.0 12.5 81.05 14.5 80.1 17.5 80.2 L20.75 80.4 Q21.1 80.05 24.45 81.8 27.75 83.6 29.9 91.65 L25.05 90.65" fill="#000000" fill-rule="evenodd" stroke="none"/>
  </g>
</svg>
