<?xml version="1.0" encoding="UTF-8" standalone="no"?>
<svg xmlns:xlink="http://www.w3.org/1999/xlink" height="86.3px" width="67.55px" xmlns="http://www.w3.org/2000/svg">
  <g transform="matrix(1.0, 0.0, 0.0, 1.0, 33.75, 43.15)">
    <path d="M20.5 38.4 Q17.4 42.1 16.75 41.95 L0.75 40.95 Q-5.0 40.3 -10.4 41.55 -15.8 42.8 -18.9 42.6 -23.15 41.1 -23.15 34.6 -23.1 28.1 -21.9 25.6 -20.55 23.7 -17.05 21.6 L-13.15 19.35 -13.4 16.35 -13.65 9.85 Q-13.7 4.55 -13.1 -0.2 -12.55 -4.95 -11.7 -6.2 -10.5 -7.35 -5.95 -7.5 L3.15 -7.15 Q7.7 -6.6 8.9 -5.75 9.85 -4.45 10.3 1.45 L10.95 13.05 11.1 19.1 Q11.6 19.25 15.65 21.3 19.7 23.35 21.4 25.25 23.6 34.7 20.5 38.4" fill="#73420d" fill-rule="evenodd" stroke="none"/>
    <path d="M20.5 38.4 Q17.4 42.1 16.75 41.95 L0.75 40.95 Q-5.0 40.3 -10.4 41.55 -15.8 42.8 -18.9 42.6 -23.15 41.1 -23.15 34.6 -23.1 28.1 -21.9 25.6 -20.55 23.7 -17.05 21.6 L-13.15 19.35 -13.4 16.35 -13.65 9.85 Q-13.7 4.55 -13.1 -0.2 -12.55 -4.95 -11.7 -6.2 -10.5 -7.35 -5.95 -7.5 L3.15 -7.15 Q7.7 -6.6 8.9 -5.75 9.85 -4.45 10.3 1.45 L10.95 13.05 11.1 19.1 Q11.6 19.25 15.65 21.3 19.7 23.35 21.4 25.25 23.6 34.7 20.5 38.4 Z" fill="none" stroke="#000000" stroke-linecap="round" stroke-linejoin="round" stroke-width="1.0"/>
    <path d="M-12.1 -3.2 L-13.05 0.8 -16.0 3.1 Q-19.0 5.1 -24.85 4.65 -23.4 -0.15 -18.1 -1.75 -12.8 -3.35 -12.1 -3.2" fill="#73420d" fill-rule="evenodd" stroke="none"/>
    <path d="M-12.1 -3.2 Q-12.8 -3.35 -18.1 -1.75 -23.4 -0.15 -24.85 4.65 -19.0 5.1 -16.0 3.1 L-13.05 0.8" fill="none" stroke="#000000" stroke-linecap="round" stroke-linejoin="round" stroke-width="1.0"/>
    <path d="M7.45 0.8 L6.5 -3.2 Q7.2 -3.35 12.5 -1.75 17.8 -0.15 19.25 4.65 13.4 5.1 10.4 3.1 L7.45 0.8" fill="#73420d" fill-rule="evenodd" stroke="none"/>
    <path d="M6.5 -3.2 Q7.2 -3.35 12.5 -1.75 17.8 -0.15 19.25 4.65 13.4 5.1 10.4 3.1 L7.45 0.8" fill="none" stroke="#000000" stroke-linecap="round" stroke-linejoin="round" stroke-width="1.0"/>
    <path d="M-26.55 -30.5 L-22.55 -30.2 Q-18.75 -29.8 -18.2 -27.95 -18.8 -26.05 -23.1 -25.45 L-28.05 -24.9 -28.15 -24.4 -27.55 -16.7 Q-26.85 -11.95 -22.95 -9.55 -19.1 -7.2 -15.4 -6.4 L-11.4 -5.7 -10.95 -5.0 Q-10.7 -4.35 -12.1 -3.2 -25.2 -4.35 -28.8 -9.45 -32.45 -14.55 -32.0 -15.25 L-32.85 -20.55 Q-33.55 -25.55 -33.0 -31.55 -32.5 -37.55 -29.0 -40.9 -26.15 -42.25 -21.45 -42.0 -16.75 -41.8 -16.1 -40.35 -16.5 -38.1 -21.55 -37.35 L-26.8 -36.6 -21.9 -36.3 Q-17.1 -35.95 -16.1 -34.25 -16.45 -32.5 -21.3 -31.5 L-26.55 -30.5 -26.85 -30.5 -26.55 -30.5 M-27.35 -36.6 L-26.8 -36.6 -27.35 -36.6" fill="#e6b98a" fill-rule="evenodd" stroke="none"/>
    <path d="M-26.8 -36.6 L-21.55 -37.35 Q-16.5 -38.1 -16.1 -40.35 -16.75 -41.8 -21.45 -42.0 -26.15 -42.25 -29.0 -40.9 -32.5 -37.55 -33.0 -31.55 -33.55 -25.55 -32.85 -20.55 L-32.0 -15.25 Q-32.45 -14.55 -28.8 -9.45 -25.2 -4.35 -12.1 -3.2 -10.7 -4.35 -10.95 -5.0 L-11.4 -5.7 -15.4 -6.4 Q-19.1 -7.2 -22.95 -9.55 -26.85 -11.95 -27.55 -16.7 L-28.15 -24.4 -28.05 -24.9 -23.1 -25.45 Q-18.8 -26.05 -18.2 -27.95 -18.75 -29.8 -22.55 -30.2 L-26.55 -30.5 -26.85 -30.5 M-26.55 -30.5 L-21.3 -31.5 Q-16.45 -32.5 -16.1 -34.25 -17.1 -35.95 -21.9 -36.3 L-26.8 -36.6 -27.35 -36.6" fill="none" stroke="#000000" stroke-linecap="round" stroke-linejoin="round" stroke-width="1.0"/>
    <path d="M32.9 -21.95 Q32.15 -15.1 31.8 -13.9 31.75 -12.3 27.1 -8.1 22.45 -3.95 9.25 -3.75 7.9 -5.0 8.25 -5.6 L8.7 -6.25 13.0 -6.5 Q17.0 -6.85 21.25 -8.75 25.45 -10.7 26.5 -15.35 L27.65 -23.05 27.65 -23.55 22.4 -24.3 Q17.8 -25.1 17.25 -27.0 17.85 -28.9 21.45 -29.55 L25.45 -30.15 20.1 -31.15 Q15.35 -32.1 15.05 -33.85 16.15 -35.55 20.95 -35.9 L24.55 -36.15 21.5 -36.25 Q17.25 -36.45 17.1 -38.55 17.4 -40.15 20.3 -41.7 23.25 -43.25 28.5 -42.3 32.35 -41.95 33.0 -35.4 33.65 -28.8 32.9 -21.95 M26.4 -36.2 L24.55 -36.15 26.4 -36.2" fill="#e6b98a" fill-rule="evenodd" stroke="none"/>
    <path d="M32.9 -21.95 Q32.15 -15.1 31.8 -13.9 31.75 -12.3 27.1 -8.1 22.45 -3.95 9.25 -3.75 7.9 -5.0 8.25 -5.6 L8.7 -6.25 13.0 -6.5 Q17.0 -6.85 21.25 -8.75 25.45 -10.7 26.5 -15.35 L27.65 -23.05 27.65 -23.55 22.4 -24.3 Q17.8 -25.1 17.25 -27.0 17.85 -28.9 21.45 -29.55 L25.45 -30.15 20.1 -31.15 Q15.35 -32.1 15.05 -33.85 16.15 -35.55 20.95 -35.9 L24.55 -36.15 21.5 -36.25 Q17.25 -36.45 17.1 -38.55 17.4 -40.15 20.3 -41.7 23.25 -43.25 28.5 -42.3 32.35 -41.95 33.0 -35.4 33.65 -28.8 32.9 -21.95 M24.55 -36.15 L26.4 -36.2" fill="none" stroke="#000000" stroke-linecap="round" stroke-linejoin="round" stroke-width="1.0"/>
    <path d="M-10.2 41.85 Q-10.45 32.15 -11.65 27.45 -12.8 22.8 -13.15 19.35 L-13.45 14.5 -13.65 9.85 Q-13.7 4.55 -13.1 -0.2 -12.55 -4.95 -11.7 -6.2 -10.5 -7.35 -5.95 -7.5 L3.15 -7.15 Q7.7 -6.6 8.9 -5.75 10.5 -4.05 11.55 3.4 12.65 10.9 11.1 19.1 9.35 26.1 7.75 29.65 6.15 33.2 5.4 42.5 L-10.2 41.85" fill="#73420d" fill-rule="evenodd" stroke="none"/>
    <path d="M-10.2 41.85 Q-10.45 32.15 -11.65 27.45 -12.8 22.8 -13.15 19.35 L-13.45 14.5 -13.65 9.85 Q-13.7 4.55 -13.1 -0.2 -12.55 -4.95 -11.7 -6.2 -10.5 -7.35 -5.95 -7.5 L3.15 -7.15 Q7.7 -6.6 8.9 -5.75 10.5 -4.05 11.55 3.4 12.65 10.9 11.1 19.1 9.35 26.1 7.75 29.65 6.15 33.2 5.4 42.5" fill="none" stroke="#000000" stroke-linecap="round" stroke-linejoin="round" stroke-width="1.0"/>
  </g>
</svg>
