<?xml version="1.0" encoding="UTF-8" standalone="no"?>
<svg xmlns:xlink="http://www.w3.org/1999/xlink" height="49.85px" width="20.0px" xmlns="http://www.w3.org/2000/svg">
  <g transform="matrix(1.0, 0.0, 0.0, 1.0, 1.15, 0.0)">
    <path d="M-0.65 3.1 L2.55 0.9 Q5.3 -0.9 6.05 1.0 L6.4 2.45 6.5 3.0 Q7.25 7.25 8.15 11.25 L10.3 20.5 11.85 26.8 Q13.85 28.35 15.1 30.95 16.35 33.5 17.05 36.6 17.75 39.65 18.0 42.75 L18.35 48.35 Q16.5 48.6 15.0 47.4 13.5 46.2 12.4 44.25 11.3 42.3 10.5 40.3 L9.4 36.95 9.0 35.5 9.3 37.75 Q9.65 39.9 11.0 43.1 12.4 46.25 15.5 49.35 12.1 48.4 9.8 47.3 7.5 46.2 6.3 44.05 5.15 41.95 5.05 37.9 4.95 33.9 5.95 27.15 4.2 23.15 2.75 17.75 1.45 12.9 0.5 7.5 L0.25 6.25 -0.65 3.1" fill="#9c5712" fill-rule="evenodd" stroke="none"/>
    <path d="M-0.65 3.1 L0.25 6.25 0.5 7.5 Q1.45 12.9 2.75 17.75 4.2 23.15 5.95 27.15 4.95 33.9 5.05 37.9 5.15 41.95 6.3 44.05 7.5 46.2 9.8 47.3 12.1 48.4 15.5 49.35 12.4 46.25 11.0 43.1 9.65 39.9 9.3 37.75 L9.0 35.5 9.4 36.95 10.5 40.3 Q11.3 42.3 12.4 44.25 13.5 46.2 15.0 47.4 16.5 48.6 18.35 48.35 L18.0 42.75 Q17.75 39.65 17.05 36.6 16.35 33.5 15.1 30.95 13.85 28.35 11.85 26.8 L10.3 20.5 8.15 11.25 Q7.25 7.25 6.5 3.0 L6.4 2.45 6.05 1.0" fill="none" stroke="#000000" stroke-linecap="round" stroke-linejoin="round" stroke-width="1.0"/>
  </g>
</svg>
