<?xml version="1.0" encoding="UTF-8" standalone="no"?>
<svg xmlns:xlink="http://www.w3.org/1999/xlink" height="124.5px" width="102.4px" xmlns="http://www.w3.org/2000/svg">
  <g transform="matrix(1.0, 0.0, 0.0, 1.0, 160.2, 140.15)">
    <path d="M-159.65 -41.0 Q-161.35 -46.65 -157.75 -54.75 L-155.5 -57.65 Q-150.15 -58.25 -150.75 -59.4 L-150.25 -61.9 -150.5 -71.5 -148.0 -70.0 -147.0 -68.25 Q-141.2 -56.3 -135.65 -33.75 -128.5 -64.85 -119.9 -94.15 L-110.9 -118.9 -101.5 -133.75 -93.0 -139.25 -84.9 -140.15 -83.75 -129.65 -80.0 -120.0 -75.65 -112.25 Q-63.7 -93.9 -62.5 -91.0 L-59.5 -84.4 Q-54.7 -68.0 -63.65 -54.65 L-81.15 -52.65 Q-94.85 -50.6 -106.75 -46.75 -116.0 -44.4 -131.75 -34.5 L-135.5 -33.4 -136.0 -33.25 -139.5 -33.5 Q-159.45 -43.05 -159.65 -41.0" fill="#faff62" fill-rule="evenodd" stroke="none"/>
    <path d="M-63.65 -54.65 Q-64.2 -51.6 -72.5 -40.75 L-81.5 -32.15 -97.25 -24.25 -126.0 -16.25 -144.9 -15.65 Q-160.0 -33.7 -159.65 -41.0 -159.45 -43.05 -139.5 -33.5 L-136.0 -33.25 -135.5 -33.0 -135.5 -33.4 -131.75 -34.5 Q-116.0 -44.4 -106.75 -46.75 -94.85 -50.6 -81.15 -52.65 L-63.65 -54.65" fill="#fdffd7" fill-rule="evenodd" stroke="none"/>
    <path d="M-136.0 -33.25 L-135.5 -33.4 -135.5 -33.0 -136.0 -33.25" fill="#fcffa9" fill-rule="evenodd" stroke="none"/>
  </g>
</svg>
