<?xml version="1.0" encoding="UTF-8" standalone="no"?>
<svg xmlns:xlink="http://www.w3.org/1999/xlink" height="142.65px" width="100.5px" xmlns="http://www.w3.org/2000/svg">
  <g transform="matrix(1.0, 0.0, 0.0, 1.0, 159.95, 154.9)">
    <path d="M-159.5 -42.25 Q-161.0 -49.35 -157.5 -58.65 L-155.4 -61.65 -153.75 -62.25 -151.9 -62.25 -150.65 -63.65 -150.15 -68.65 -150.4 -77.65 Q-147.7 -77.35 -144.75 -68.25 -141.9 -61.55 -136.0 -33.75 L-135.5 -33.9 Q-128.65 -70.65 -121.25 -100.4 L-111.9 -131.75 -103.4 -147.75 -95.25 -153.9 -87.25 -154.9 -86.0 -143.25 -82.25 -132.65 -77.4 -122.9 -64.65 -100.0 -61.25 -91.65 Q-56.35 -72.65 -64.65 -57.65 L-81.4 -55.5 Q-95.9 -52.9 -106.9 -48.75 -116.7 -45.65 -131.75 -34.5 L-135.5 -33.15 -135.9 -33.15 -136.25 -33.0 -136.65 -33.15 Q-135.95 -30.6 -154.5 -41.25 L-159.5 -42.25" fill="#faff62" fill-rule="evenodd" stroke="none"/>
    <path d="M-64.65 -57.65 Q-65.25 -53.85 -72.9 -41.75 L-81.9 -31.4 -97.4 -22.15 -126.0 -12.9 -144.75 -12.25 Q-159.4 -32.8 -159.5 -42.25 L-154.5 -41.25 Q-135.95 -30.6 -136.65 -33.15 L-136.25 -33.0 -135.9 -33.15 -135.5 -33.15 -131.75 -34.5 Q-116.7 -45.65 -106.9 -48.75 -95.9 -52.9 -81.4 -55.5 L-64.65 -57.65" fill="#fdffd7" fill-rule="evenodd" stroke="none"/>
  </g>
</svg>
