<?xml version="1.0" encoding="UTF-8" standalone="no"?>
<svg xmlns:xlink="http://www.w3.org/1999/xlink" height="152.5px" width="97.9px" xmlns="http://www.w3.org/2000/svg">
  <g transform="matrix(1.0, 0.0, 0.0, 1.0, 159.05, 147.25)">
    <path d="M-65.75 -44.5 L-82.0 -42.25 Q-94.85 -39.85 -107.9 -34.65 -116.2 -31.75 -130.75 -19.9 L-134.9 -17.9 -135.25 -17.9 -135.65 -17.75 -136.0 -17.9 Q-138.95 -16.7 -153.65 -26.75 L-158.65 -27.9 Q-160.0 -36.35 -156.9 -45.0 L-154.75 -48.9 Q-149.65 -49.7 -150.0 -50.75 L-149.5 -54.4 -149.75 -66.15 -147.25 -64.15 Q-144.4 -58.3 -144.0 -55.4 -141.75 -50.45 -135.5 -18.25 L-135.15 -18.4 -127.65 -60.75 -120.65 -94.65 -112.9 -123.15 -104.4 -140.25 -96.9 -146.25 -89.65 -147.25 -88.15 -135.15 -84.5 -124.5 Q-67.6 -93.05 -63.4 -81.5 -57.95 -61.25 -65.75 -44.5" fill="#faff62" fill-rule="evenodd" stroke="none"/>
    <path d="M-65.75 -44.5 Q-66.25 -40.65 -73.25 -27.75 L-82.4 -15.65 -97.4 -5.65 -125.75 4.6 -144.15 5.25 Q-158.9 -17.95 -158.65 -27.9 L-153.65 -26.75 Q-138.95 -16.7 -136.0 -17.9 L-135.65 -17.75 -135.25 -17.9 -134.9 -17.9 -130.75 -19.9 Q-116.2 -31.75 -107.9 -34.65 -94.85 -39.85 -82.0 -42.25 L-65.75 -44.5" fill="#fdffd7" fill-rule="evenodd" stroke="none"/>
  </g>
</svg>
