<?xml version="1.0" encoding="UTF-8" standalone="no"?>
<svg xmlns:xlink="http://www.w3.org/1999/xlink" height="129.5px" width="99.8px" xmlns="http://www.w3.org/2000/svg">
  <g transform="matrix(1.0, 0.0, 0.0, 1.0, 158.95, 116.4)">
    <path d="M-158.4 -13.9 Q-160.15 -19.25 -156.4 -28.65 L-154.5 -31.25 Q-149.7 -31.5 -149.65 -33.25 L-149.15 -37.65 -149.4 -45.75 -147.0 -44.25 -146.15 -42.5 Q-142.35 -35.85 -134.75 -6.4 -127.5 -41.15 -120.25 -67.4 L-111.25 -94.75 -102.25 -110.0 -94.25 -115.65 -86.4 -116.4 -85.25 -106.9 -85.25 -106.0 -81.65 -96.5 -75.65 -85.5 -64.9 -67.75 -61.0 -59.25 Q-56.0 -44.0 -64.5 -28.25 -79.95 -27.75 -105.65 -20.25 L-117.25 -15.5 Q-124.65 -11.75 -131.0 -7.0 L-132.5 -6.75 -133.5 -6.0 -134.4 -5.9 -134.9 -5.25 Q-135.1 -5.9 -139.0 -6.0 L-153.5 -12.9 -158.4 -13.9" fill="#62ff6c" fill-rule="evenodd" stroke="none"/>
    <path d="M-64.5 -28.25 Q-65.15 -25.0 -73.25 -13.25 L-81.9 -4.4 -97.0 3.85 -125.15 12.35 -143.9 13.1 Q-158.65 -5.65 -158.4 -13.9 L-153.5 -12.9 -139.0 -6.0 Q-135.1 -5.9 -134.9 -5.25 L-134.4 -5.9 -133.5 -6.0 -132.5 -6.75 -131.0 -7.0 Q-124.65 -11.75 -117.25 -15.5 L-105.65 -20.25 Q-79.95 -27.75 -64.5 -28.25" fill="#d7ffd9" fill-rule="evenodd" stroke="none"/>
  </g>
</svg>
