<?xml version="1.0" encoding="UTF-8" standalone="no"?>
<svg xmlns:xlink="http://www.w3.org/1999/xlink" height="67.35px" width="102.6px" xmlns="http://www.w3.org/2000/svg">
  <g transform="matrix(1.0, 0.0, 0.0, 1.0, 158.6, 51.0)">
    <path d="M-158.25 3.75 Q-159.5 -0.15 -156.25 -3.5 L-154.15 -5.0 Q-149.15 -5.2 -149.15 -6.15 L-148.75 -7.65 -148.65 -12.4 Q-146.4 -12.3 -144.15 -9.65 L-140.25 -3.9 -134.75 7.0 -134.25 6.5 Q-124.4 -14.45 -118.0 -24.65 L-107.5 -39.25 -98.0 -47.15 -88.75 -50.4 -80.9 -51.0 Q-80.7 -43.8 -78.25 -42.5 -74.85 -37.1 -60.15 -24.9 L-57.25 -21.25 Q-53.1 -12.25 -62.65 -5.25 -109.4 -2.35 -134.65 7.35 L-134.9 7.25 -136.15 7.25 Q-137.4 7.85 -153.65 4.0 L-158.25 3.75" fill="#62ff6c" fill-rule="evenodd" stroke="none"/>
    <path d="M-62.65 -5.25 Q-63.15 -3.75 -72.15 2.25 L-81.5 6.85 -97.0 11.1 -125.75 15.75 -141.5 16.35 -144.15 16.1 Q-156.85 9.05 -158.25 3.75 L-153.65 4.0 Q-137.4 7.85 -136.15 7.25 L-134.9 7.25 -134.65 7.35 Q-109.4 -2.35 -62.65 -5.25" fill="#d7ffd9" fill-rule="evenodd" stroke="none"/>
  </g>
</svg>
