<?xml version="1.0" encoding="UTF-8" standalone="no"?>
<svg xmlns:xlink="http://www.w3.org/1999/xlink" height="26.35px" width="104.2px" xmlns="http://www.w3.org/2000/svg">
  <g transform="matrix(1.0, 0.0, 0.0, 1.0, 158.6, 13.25)">
    <path d="M-134.5 9.6 Q-118.45 -4.75 -95.15 -11.65 L-87.15 -12.9 -78.5 -13.25 Q-79.4 -11.1 -74.25 -9.15 L-58.0 -3.9 -55.9 -2.9 -54.4 -1.15 -55.65 0.6 Q-58.6 2.55 -61.75 3.25 L-107.0 6.25 -134.5 9.6 M-158.15 8.85 Q-159.65 7.75 -156.15 6.1 L-149.0 5.1 -148.5 4.6 -148.65 2.75 -148.0 2.75 -143.65 3.75 Q-140.15 5.05 -134.65 9.6 L-158.15 8.85" fill="#62ff6c" fill-rule="evenodd" stroke="none"/>
    <path d="M-61.75 3.25 Q-68.5 8.4 -124.25 12.35 L-143.75 13.1 Q-157.35 10.7 -158.15 8.85 L-134.65 9.6 -134.5 9.6 -107.0 6.25 -61.75 3.25" fill="#d7ffd9" fill-rule="evenodd" stroke="none"/>
  </g>
</svg>
