<?xml version="1.0" encoding="UTF-8" standalone="no"?>
<svg xmlns:xlink="http://www.w3.org/1999/xlink" height="38.5px" width="104.0px" xmlns="http://www.w3.org/2000/svg">
  <g transform="matrix(1.0, 0.0, 0.0, 1.0, 158.65, 33.25)">
    <path d="M-158.65 -1.5 Q-158.85 -6.95 -149.25 -7.15 L-148.9 -7.9 -148.75 -10.5 Q-144.2 -10.35 -138.4 -3.9 L-134.75 0.0 -138.75 0.1 -158.65 -1.5 M-134.65 0.0 Q-128.1 -7.95 -118.25 -17.15 L-106.75 -26.15 -97.0 -30.75 -87.9 -32.75 -78.9 -33.25 -78.25 -30.0 -77.65 -29.65 -74.65 -27.0 -59.0 -19.15 -55.9 -17.0 Q-51.7 -12.25 -61.75 -8.0 -113.85 -5.0 -134.65 0.0" fill="#62ff6c" fill-rule="evenodd" stroke="none"/>
    <path d="M-61.75 -8.0 Q-61.9 -7.35 -71.0 -3.9 L-80.5 -1.15 -95.4 1.35 -125.65 4.6 -144.0 5.25 Q-158.7 0.85 -158.65 -1.5 L-138.75 0.1 -134.75 0.0 -134.65 0.0 Q-113.85 -5.0 -61.75 -8.0" fill="#d7ffd9" fill-rule="evenodd" stroke="none"/>
  </g>
</svg>
