<?xml version="1.0" encoding="UTF-8" standalone="no"?>
<svg xmlns:xlink="http://www.w3.org/1999/xlink" height="96.9px" width="103.65px" xmlns="http://www.w3.org/2000/svg">
  <g transform="matrix(1.0, 0.0, 0.0, 1.0, 160.0, 109.15)">
    <path d="M-159.5 -31.25 Q-161.1 -36.1 -157.4 -42.15 L-155.0 -44.0 Q-150.85 -44.0 -150.4 -45.5 L-150.0 -47.65 -150.15 -54.65 Q-147.35 -54.2 -145.75 -51.0 L-141.65 -42.5 -135.75 -25.9 -135.4 -25.9 -126.9 -51.65 -118.65 -73.25 -109.25 -92.4 -99.5 -104.0 -90.15 -108.5 -82.4 -109.15 -81.5 -101.0 -78.15 -93.75 Q-73.2 -86.15 -62.0 -72.5 L-57.9 -65.65 Q-53.25 -53.95 -62.65 -42.5 -82.15 -41.0 -89.15 -39.5 L-106.75 -36.0 Q-116.1 -33.9 -131.15 -26.75 L-135.4 -25.5 -135.5 -25.5 -135.65 -25.4 -135.65 -25.5 -135.75 -25.5 -139.9 -25.9 Q-157.85 -32.2 -159.5 -31.25" fill="#62ff6c" fill-rule="evenodd" stroke="none"/>
    <path d="M-62.65 -42.5 Q-63.2 -40.35 -72.0 -31.9 L-81.4 -25.15 -97.4 -19.0 -125.9 -12.9 -144.75 -12.25 Q-159.65 -25.3 -159.5 -31.25 -157.85 -32.2 -139.9 -25.9 L-135.75 -25.5 -135.65 -25.4 -135.5 -25.5 -135.4 -25.5 -131.15 -26.75 Q-116.1 -33.9 -106.75 -36.0 L-89.15 -39.5 Q-82.15 -41.0 -62.65 -42.5" fill="#d7ffd9" fill-rule="evenodd" stroke="none"/>
    <path d="M-135.75 -25.5 L-135.65 -25.5 -135.65 -25.4 -135.75 -25.5" fill="#79ff82" fill-rule="evenodd" stroke="none"/>
  </g>
</svg>
