<?xml version="1.0" encoding="UTF-8" standalone="no"?>
<svg xmlns:xlink="http://www.w3.org/1999/xlink" height="52.9px" width="58.15px" xmlns="http://www.w3.org/2000/svg">
  <g transform="matrix(1.0, 0.0, 0.0, 1.0, 0.5, 0.5)">
    <path d="M19.85 24.7 L21.5 23.4 25.15 20.4 28.9 16.85 Q30.5 15.15 30.75 14.2 L30.7 11.1 30.2 6.65 29.6 2.7 29.3 0.95 30.4 2.75 32.9 6.8 35.55 11.25 37.1 14.3 Q37.3 15.0 36.2 16.85 L33.35 21.05 29.85 25.65 26.85 29.35 25.6 30.9 19.85 24.7" fill="#e7b98a" fill-rule="evenodd" stroke="none"/>
    <path d="M19.85 24.7 L21.5 23.4 25.15 20.4 28.9 16.85 Q30.5 15.15 30.75 14.2 L30.7 11.1 30.2 6.65 29.6 2.7 29.3 0.95 30.4 2.75 32.9 6.8 35.55 11.25 37.1 14.3 Q37.3 15.0 36.2 16.85 L33.35 21.05 29.85 25.65 26.85 29.35 25.6 30.9" fill="none" stroke="#000000" stroke-linecap="round" stroke-linejoin="round" stroke-width="1.0"/>
    <path d="M26.4 24.0 L28.25 23.0 Q30.05 22.05 32.7 21.05 35.3 20.1 37.85 19.9 40.4 19.75 41.95 21.2 40.2 23.65 38.1 25.25 L34.15 27.7 31.05 28.9 29.8 29.2 26.4 24.0" fill="#9c5712" fill-rule="evenodd" stroke="none"/>
    <path d="M26.4 24.0 L28.25 23.0 Q30.05 22.05 32.7 21.05 35.3 20.1 37.85 19.9 40.4 19.75 41.95 21.2 40.2 23.65 38.1 25.25 L34.15 27.7 31.05 28.9 29.8 29.2" fill="none" stroke="#000000" stroke-linecap="round" stroke-linejoin="round" stroke-width="1.0"/>
    <path d="M5.2 49.6 L5.6 46.7 5.65 45.15 5.8 43.1 Q5.85 42.25 5.1 41.15 L3.6 38.65 Q2.9 37.15 3.0 35.15 3.1 34.2 4.1 33.05 L6.0 30.75 Q6.95 29.65 6.85 28.8 7.5 24.9 8.6 23.1 9.65 21.3 10.8 20.9 11.95 20.45 12.75 20.65 L13.55 20.9 15.3 20.75 19.4 20.4 23.95 20.3 Q26.1 20.35 27.1 20.75 28.35 21.35 29.75 23.25 L32.55 27.5 35.3 31.8 37.1 34.9 Q37.65 36.15 38.55 37.2 39.4 38.25 41.55 39.4 42.95 41.55 45.0 42.8 47.05 44.1 49.15 44.75 L52.9 45.7 55.0 46.25 Q57.45 48.35 57.1 49.65 56.8 50.95 54.55 51.5 L48.85 51.85 41.65 50.9 Q37.85 50.1 34.5 48.7 31.15 47.35 29.05 45.45 27.9 43.6 25.05 42.2 22.2 40.8 18.15 39.05 L5.2 49.6" fill="#ffffff" fill-rule="evenodd" stroke="none"/>
    <path d="M18.15 39.05 Q22.2 40.8 25.05 42.2 27.9 43.6 29.05 45.45 31.15 47.35 34.5 48.7 37.85 50.1 41.65 50.9 L48.85 51.85 54.55 51.5 Q56.8 50.95 57.1 49.65 57.45 48.35 55.0 46.25 L52.9 45.7 49.15 44.75 Q47.05 44.1 45.0 42.8 42.95 41.55 41.55 39.4 39.4 38.25 38.55 37.2 37.65 36.15 37.1 34.9 L35.3 31.8 32.55 27.5 29.75 23.25 Q28.35 21.35 27.1 20.75 26.1 20.35 23.95 20.3 L19.4 20.4 15.3 20.75 13.55 20.9 12.75 20.65 Q11.95 20.45 10.8 20.9 9.65 21.3 8.6 23.1 7.5 24.9 6.85 28.8 6.95 29.65 6.0 30.75 L4.1 33.05 Q3.1 34.2 3.0 35.15 2.9 37.15 3.6 38.65 L5.1 41.15 Q5.85 42.25 5.8 43.1 L5.65 45.15 5.6 46.7 5.2 49.6" fill="none" stroke="#000000" stroke-linecap="round" stroke-linejoin="round" stroke-width="1.0"/>
    <path d="M3.8 10.0 L6.05 5.3 8.0 1.55 8.8 0.0 8.6 1.85 8.2 6.1 8.0 10.9 Q8.0 13.15 8.35 14.25 8.75 15.3 10.1 16.6 L13.0 19.05 15.75 20.95 16.95 21.75 16.65 22.55 15.5 24.3 13.15 26.05 Q11.6 26.8 9.15 26.8 L6.15 23.3 3.25 19.55 Q1.95 17.8 1.55 16.75 1.35 16.1 2.05 14.25 L3.8 10.0" fill="#e7b98a" fill-rule="evenodd" stroke="none"/>
    <path d="M3.8 10.0 L2.05 14.25 Q1.35 16.1 1.55 16.75 1.95 17.8 3.25 19.55 L6.15 23.3 9.15 26.8 Q11.6 26.8 13.15 26.05 L15.5 24.3 16.65 22.55 16.95 21.75 15.75 20.95 13.0 19.05 10.1 16.6 Q8.75 15.3 8.35 14.25 8.0 13.15 8.0 10.9 L8.2 6.1 8.6 1.85 8.8 0.0 8.0 1.55 6.05 5.3 3.8 10.0 Z" fill="none" stroke="#000000" stroke-linecap="round" stroke-linejoin="round" stroke-width="1.0"/>
    <path d="M9.3 28.8 L7.7 28.1 Q6.2 27.4 4.05 25.55 1.9 23.7 0.0 20.4 1.7 19.05 3.85 19.15 6.0 19.25 8.15 20.25 10.3 21.2 12.1 22.45 13.95 23.7 15.05 24.65 L16.2 25.65 9.3 28.8" fill="#ffffff" fill-rule="evenodd" stroke="none"/>
    <path d="M16.2 25.65 L15.05 24.65 Q13.95 23.7 12.1 22.45 10.3 21.2 8.15 20.25 6.0 19.25 3.85 19.15 1.7 19.05 0.0 20.4 1.9 23.7 4.05 25.55 6.2 27.4 7.7 28.1 L9.3 28.8" fill="none" stroke="#000000" stroke-linecap="round" stroke-linejoin="round" stroke-width="1.0"/>
    <path d="M30.1 23.1 L33.05 27.55 36.1 32.65 38.5 36.75 39.45 38.5 38.3 38.4 35.5 38.0 31.9 36.9 Q30.75 36.35 29.25 34.55 L26.15 30.3 23.25 25.55 21.0 21.65 20.15 20.05 21.7 19.9 24.95 19.9 Q26.8 20.0 28.0 20.7 28.75 21.15 30.1 23.1" fill="#9c5712" fill-rule="evenodd" stroke="none"/>
    <path d="M30.1 23.1 Q28.75 21.15 28.0 20.7 26.8 20.0 24.95 19.9 L21.7 19.9 20.15 20.05 21.0 21.65 23.25 25.55 26.15 30.3 29.25 34.55 Q30.75 36.35 31.9 36.9 L35.5 38.0 38.3 38.4 39.45 38.5 38.5 36.75 36.1 32.65 33.05 27.55 30.1 23.1 Z" fill="none" stroke="#000000" stroke-linecap="round" stroke-linejoin="round" stroke-width="1.0"/>
  </g>
</svg>
