<?xml version="1.0" encoding="UTF-8" standalone="no"?>
<svg xmlns:xlink="http://www.w3.org/1999/xlink" height="151.25px" width="98.9px" xmlns="http://www.w3.org/2000/svg">
  <g transform="matrix(1.0, 0.0, 0.0, 1.0, 159.55, 155.5)">
    <path d="M-159.0 -36.9 Q-160.75 -44.0 -157.0 -54.65 L-155.0 -57.65 Q-150.35 -58.25 -150.4 -59.4 L-149.9 -63.0 -150.15 -74.65 -147.65 -72.75 -145.65 -68.25 -141.15 -52.75 -135.75 -27.4 -135.4 -27.5 Q-127.1 -75.85 -121.0 -101.4 L-112.75 -131.25 -104.4 -148.25 -96.65 -154.5 -89.0 -155.5 -87.65 -143.65 -83.9 -132.75 -79.15 -122.65 -66.0 -98.0 -62.9 -90.15 Q-57.4 -70.15 -65.4 -53.15 -90.75 -50.45 -107.65 -43.5 -116.2 -40.85 -131.0 -28.9 L-135.5 -26.9 -136.25 -26.9 Q-138.75 -25.6 -153.75 -35.5 L-159.0 -36.9" fill="#62ff6c" fill-rule="evenodd" stroke="none"/>
    <path d="M-65.4 -53.15 Q-66.45 -48.25 -73.75 -35.4 L-82.25 -24.75 -97.25 -15.0 -125.75 -4.9 -144.5 -4.25 Q-159.25 -26.95 -159.0 -36.9 L-153.75 -35.5 Q-138.75 -25.6 -136.25 -26.9 L-135.75 -26.65 -135.5 -26.9 -131.0 -28.9 Q-116.2 -40.85 -107.65 -43.5 -90.75 -50.45 -65.4 -53.15" fill="#d7ffd9" fill-rule="evenodd" stroke="none"/>
    <path d="M-136.25 -26.9 L-135.5 -26.9 -135.75 -26.65 -136.25 -26.9" fill="#a9ffae" fill-rule="evenodd" stroke="none"/>
  </g>
</svg>
