<?xml version="1.0" encoding="UTF-8" standalone="no"?>
<svg xmlns:xlink="http://www.w3.org/1999/xlink" height="67.35px" width="102.6px" xmlns="http://www.w3.org/2000/svg">
  <g transform="matrix(1.0, 0.0, 0.0, 1.0, 158.5, 51.0)">
    <path d="M-158.5 1.6 L-158.5 0.35 -157.75 -1.5 -155.9 -3.9 -154.15 -5.0 Q-149.15 -5.2 -149.15 -6.15 L-148.75 -7.65 -148.65 -12.4 Q-146.4 -12.3 -144.15 -9.65 L-140.25 -3.9 -134.75 7.0 -134.25 6.5 Q-124.4 -14.45 -118.0 -24.65 L-107.5 -39.25 -98.0 -47.15 -88.75 -50.4 -80.9 -51.0 Q-80.7 -43.8 -78.25 -42.5 -74.85 -37.1 -60.15 -24.9 L-57.65 -21.75 -55.9 -17.65 Q-55.75 -12.5 -58.15 -10.4 -112.9 -5.75 -134.65 7.35 L-134.9 7.25 -135.75 7.25 -136.15 7.1 -138.4 6.75 -153.15 2.25 -158.5 1.6" fill="#ff5de6" fill-rule="evenodd" stroke="none"/>
    <path d="M-58.15 -10.4 Q-63.15 -1.75 -81.65 6.85 L-97.75 11.25 -125.5 15.75 -141.5 16.35 -144.25 16.1 Q-158.9 8.1 -158.5 1.6 L-153.15 2.25 -138.4 6.75 -136.15 7.1 -135.75 7.25 -134.9 7.25 -134.65 7.35 Q-112.9 -5.75 -58.15 -10.4" fill="#ffd1f7" fill-rule="evenodd" stroke="none"/>
  </g>
</svg>
