<?xml version="1.0" encoding="UTF-8" standalone="no"?>
<svg xmlns:xlink="http://www.w3.org/1999/xlink" height="26.35px" width="104.15px" xmlns="http://www.w3.org/2000/svg">
  <g transform="matrix(1.0, 0.0, 0.0, 1.0, 158.5, 13.25)">
    <path d="M-134.5 9.6 Q-118.45 -4.75 -95.15 -11.65 L-87.15 -12.9 -78.5 -13.25 Q-79.4 -11.1 -74.25 -9.15 L-58.0 -3.9 Q-51.25 -1.45 -57.0 1.25 -114.75 4.55 -134.5 9.6 M-158.5 8.1 L-157.65 6.85 -156.0 6.1 -149.0 5.1 -148.5 4.35 -148.5 2.75 Q-145.95 1.3 -134.65 9.6 L-158.5 8.1" fill="#ff5de6" fill-rule="evenodd" stroke="none"/>
    <path d="M-57.0 1.25 Q-69.4 9.0 -122.75 12.25 L-143.9 13.1 Q-158.85 10.6 -158.5 8.1 L-134.65 9.6 -134.5 9.6 Q-114.75 4.55 -57.0 1.25" fill="#ffd1f7" fill-rule="evenodd" stroke="none"/>
  </g>
</svg>
