<?xml version="1.0" encoding="UTF-8" standalone="no"?>
<svg xmlns:xlink="http://www.w3.org/1999/xlink" height="96.9px" width="103.7px" xmlns="http://www.w3.org/2000/svg">
  <g transform="matrix(1.0, 0.0, 0.0, 1.0, 159.95, 109.15)">
    <path d="M-159.9 -34.4 Q-160.2 -35.75 -158.75 -39.65 L-157.15 -42.4 -155.25 -44.0 Q-150.7 -44.0 -150.4 -45.5 L-150.0 -47.65 -150.15 -54.65 Q-147.35 -54.2 -145.75 -51.0 L-141.65 -42.5 -135.75 -25.9 -135.4 -25.9 -126.9 -51.65 -118.65 -73.25 -109.25 -92.4 -99.5 -104.0 -90.15 -108.5 -82.4 -109.15 -81.5 -101.0 -78.15 -93.75 Q-60.65 -71.6 -58.15 -66.15 L-56.25 -59.9 Q-56.4 -51.45 -58.5 -49.75 -104.1 -47.15 -135.4 -25.5 L-135.5 -25.5 -135.65 -25.4 -135.65 -25.5 -135.75 -25.5 Q-136.85 -24.7 -154.15 -33.15 L-159.9 -34.4" fill="#ff5de6" fill-rule="evenodd" stroke="none"/>
    <path d="M-58.5 -49.75 Q-60.15 -40.9 -80.75 -25.5 L-97.4 -19.0 -125.9 -12.9 -144.75 -12.25 Q-159.45 -23.7 -159.9 -34.4 L-154.15 -33.15 Q-136.85 -24.7 -135.75 -25.5 L-135.65 -25.4 -135.5 -25.5 -135.4 -25.5 Q-104.1 -47.15 -58.5 -49.75" fill="#ffd1f7" fill-rule="evenodd" stroke="none"/>
    <path d="M-135.75 -25.5 L-135.65 -25.5 -135.65 -25.4 -135.75 -25.5" fill="#ff79ea" fill-rule="evenodd" stroke="none"/>
  </g>
</svg>
