<?xml version="1.0" encoding="UTF-8" standalone="no"?>
<svg xmlns:xlink="http://www.w3.org/1999/xlink" height="142.5px" width="100.45px" xmlns="http://www.w3.org/2000/svg">
  <g transform="matrix(1.0, 0.0, 0.0, 1.0, 159.85, 154.9)">
    <path d="M-159.75 -47.0 Q-160.1 -49.5 -159.15 -53.5 L-157.0 -59.4 -155.4 -61.65 Q-150.75 -61.95 -150.65 -63.5 L-150.15 -68.65 -150.4 -77.65 Q-147.7 -77.35 -144.75 -68.25 -141.9 -61.55 -136.0 -33.75 L-135.5 -33.9 Q-128.65 -70.65 -121.25 -100.4 L-111.9 -131.75 -103.4 -147.75 -95.25 -153.9 -87.25 -154.9 -86.0 -143.25 -82.25 -132.65 -77.4 -122.9 -64.65 -100.0 -61.4 -92.15 -59.5 -83.9 Q-59.0 -71.6 -61.0 -68.5 -88.45 -65.25 -106.15 -56.0 -117.7 -51.2 -133.0 -34.65 L-135.5 -33.15 -135.9 -33.15 -136.25 -33.0 -136.65 -33.15 Q-136.7 -31.45 -154.0 -45.0 L-159.75 -47.0" fill="#ff5de6" fill-rule="evenodd" stroke="none"/>
    <path d="M-61.0 -68.5 Q-62.7 -53.2 -82.15 -31.15 L-97.65 -22.0 -126.15 -12.9 -144.9 -12.4 Q-159.2 -30.35 -159.75 -47.0 L-154.0 -45.0 Q-136.7 -31.45 -136.65 -33.15 L-136.25 -33.0 -135.9 -33.15 -135.5 -33.15 -133.0 -34.65 Q-117.7 -51.2 -106.15 -56.0 -88.45 -65.25 -61.0 -68.5" fill="#ffd1f7" fill-rule="evenodd" stroke="none"/>
  </g>
</svg>
