<?xml version="1.0" encoding="UTF-8" standalone="no"?>
<svg xmlns:xlink="http://www.w3.org/1999/xlink" height="129.5px" width="99.7px" xmlns="http://www.w3.org/2000/svg">
  <g transform="matrix(1.0, 0.0, 0.0, 1.0, 158.85, 116.4)">
    <path d="M-158.75 -18.15 Q-159.2 -19.35 -157.9 -24.75 L-156.25 -28.9 -154.5 -31.25 Q-149.65 -31.75 -149.75 -32.75 L-149.15 -38.65 -149.4 -45.75 -147.0 -44.25 -146.15 -42.5 Q-142.35 -35.85 -134.75 -6.4 -127.5 -41.15 -120.25 -67.4 L-111.25 -94.75 -102.25 -110.0 -94.25 -115.65 -86.4 -116.4 -85.25 -106.9 -85.25 -106.0 -81.65 -96.5 -75.65 -85.5 -64.9 -67.75 -61.5 -60.5 -59.25 -51.9 Q-58.75 -42.7 -60.75 -38.25 -87.5 -35.2 -107.25 -25.9 L-117.4 -19.75 Q-123.9 -15.25 -134.9 -5.25 -136.0 -4.2 -153.15 -16.4 L-158.75 -18.15" fill="#5dfff4" fill-rule="evenodd" stroke="none"/>
    <path d="M-60.75 -38.25 Q-62.45 -24.7 -81.9 -4.4 L-97.0 3.85 -124.75 12.25 -143.9 13.1 Q-158.7 -4.05 -158.75 -18.15 L-153.15 -16.4 Q-136.0 -4.2 -134.9 -5.25 -123.9 -15.25 -117.4 -19.75 L-107.25 -25.9 Q-87.5 -35.2 -60.75 -38.25" fill="#d1fffb" fill-rule="evenodd" stroke="none"/>
  </g>
</svg>
