<?xml version="1.0" encoding="UTF-8" standalone="no"?>
<svg xmlns:xlink="http://www.w3.org/1999/xlink" height="38.5px" width="104.4px" xmlns="http://www.w3.org/2000/svg">
  <g transform="matrix(1.0, 0.0, 0.0, 1.0, 158.9, 33.25)">
    <path d="M-134.65 0.0 Q-128.1 -7.95 -118.25 -17.15 L-106.75 -26.15 -97.0 -30.75 -87.9 -32.75 -78.9 -33.25 -78.25 -30.0 -77.65 -29.65 -74.65 -27.0 -59.0 -19.15 -55.9 -17.0 -54.5 -14.75 Q-54.7 -11.95 -57.15 -10.9 -114.65 -7.1 -134.65 0.0 M-158.9 -2.65 Q-157.2 -6.9 -149.25 -7.15 L-148.9 -7.9 -148.75 -10.5 Q-144.2 -10.35 -138.4 -3.9 L-134.9 0.0 -138.9 -0.15 -153.4 -2.4 -158.9 -2.65" fill="#5dfff4" fill-rule="evenodd" stroke="none"/>
    <path d="M-57.15 -10.9 Q-59.65 -7.2 -80.15 -1.25 L-96.15 1.5 -124.5 4.5 -144.0 5.25 Q-159.1 1.15 -158.9 -2.65 L-153.4 -2.4 -138.9 -0.15 -134.9 0.0 -134.65 0.0 Q-114.65 -7.1 -57.15 -10.9" fill="#d1fffb" fill-rule="evenodd" stroke="none"/>
  </g>
</svg>
