<?xml version="1.0" encoding="UTF-8" standalone="no"?>
<svg xmlns:xlink="http://www.w3.org/1999/xlink" height="65.0px" width="104.25px" xmlns="http://www.w3.org/2000/svg">
  <g transform="matrix(1.0, 0.0, 0.0, 1.0, 159.4, 69.4)">
    <path d="M-135.15 -13.15 Q-126.6 -30.65 -117.75 -44.65 L-108.25 -57.25 -97.9 -65.65 -88.75 -68.75 -80.25 -69.4 -79.5 -63.75 -76.4 -59.15 Q-57.0 -42.45 -56.65 -40.5 L-55.15 -36.75 Q-55.4 -31.2 -57.65 -29.9 -107.15 -26.75 -135.15 -13.15 M-159.4 -18.5 Q-159.1 -25.2 -150.0 -25.65 L-149.5 -27.15 -149.4 -29.5 -149.65 -32.0 -146.9 -31.0 -145.25 -29.65 -140.9 -23.75 -135.25 -13.15 Q-135.65 -12.1 -153.5 -17.75 L-159.4 -18.5" fill="#5dfff4" fill-rule="evenodd" stroke="none"/>
    <path d="M-57.65 -29.9 Q-70.0 -9.65 -125.9 -4.9 L-144.75 -4.4 Q-158.95 -11.35 -159.4 -18.5 L-153.5 -17.75 Q-135.65 -12.1 -135.25 -13.15 L-135.15 -13.15 Q-107.15 -26.75 -57.65 -29.9" fill="#d1fffb" fill-rule="evenodd" stroke="none"/>
  </g>
</svg>
