<?xml version="1.0" encoding="UTF-8" standalone="no"?>
<svg xmlns:xlink="http://www.w3.org/1999/xlink" height="124.4px" width="102.25px" xmlns="http://www.w3.org/2000/svg">
  <g transform="matrix(1.0, 0.0, 0.0, 1.0, 160.1, 140.15)">
    <path d="M-160.0 -45.0 Q-160.45 -46.35 -159.15 -51.4 L-157.5 -55.25 -155.5 -57.65 Q-149.65 -58.85 -150.75 -59.25 L-150.25 -61.9 -150.5 -71.5 -148.0 -70.0 -147.0 -68.25 Q-141.2 -56.3 -135.65 -33.75 -128.5 -64.85 -119.9 -94.15 L-110.9 -118.9 -101.5 -133.75 -93.0 -139.25 -84.9 -140.15 -83.75 -129.65 -80.15 -120.25 Q-63.35 -93.65 -59.75 -85.0 L-57.9 -77.5 Q-57.45 -67.0 -59.75 -64.0 -88.6 -60.5 -102.15 -54.5 L-108.0 -52.0 -118.65 -46.15 Q-126.6 -40.85 -132.75 -34.75 L-135.5 -33.4 -136.0 -33.25 Q-135.95 -31.35 -154.65 -43.65 L-160.0 -45.0" fill="#5dfff4" fill-rule="evenodd" stroke="none"/>
    <path d="M-59.75 -64.0 Q-61.9 -50.6 -82.0 -31.9 L-97.5 -24.15 -126.0 -16.25 -145.0 -15.75 Q-159.75 -31.65 -160.0 -45.0 L-154.65 -43.65 Q-135.95 -31.35 -136.0 -33.25 L-135.5 -33.0 -135.5 -33.4 -132.75 -34.75 Q-126.6 -40.85 -118.65 -46.15 L-108.0 -52.0 -102.15 -54.5 Q-88.6 -60.5 -59.75 -64.0" fill="#d1fffb" fill-rule="evenodd" stroke="none"/>
    <path d="M-136.0 -33.25 L-135.5 -33.4 -135.5 -33.0 -136.0 -33.25" fill="#a9fff9" fill-rule="evenodd" stroke="none"/>
  </g>
</svg>
