<?xml version="1.0" encoding="UTF-8" standalone="no"?>
<svg xmlns:xlink="http://www.w3.org/1999/xlink" height="151.25px" width="98.9px" xmlns="http://www.w3.org/2000/svg">
  <g transform="matrix(1.0, 0.0, 0.0, 1.0, 159.5, 155.5)">
    <path d="M-159.4 -42.0 Q-159.75 -44.1 -158.65 -49.4 L-156.5 -55.4 -155.25 -57.5 -154.75 -57.65 Q-150.25 -58.2 -150.25 -60.0 L-149.9 -63.4 -150.15 -74.65 -147.65 -72.75 -145.65 -68.25 -141.15 -52.75 -135.75 -27.4 -135.4 -27.5 Q-127.1 -75.85 -121.0 -101.4 L-112.75 -131.25 -104.4 -148.25 -96.65 -154.5 -89.0 -155.5 -87.65 -143.65 -83.9 -132.75 -79.15 -122.65 -66.0 -98.0 -62.9 -90.15 -60.75 -80.9 Q-60.15 -68.15 -62.0 -64.9 -86.45 -61.7 -103.15 -53.25 -118.7 -46.0 -134.5 -27.25 L-135.5 -26.9 -136.25 -26.9 Q-136.5 -25.15 -153.25 -39.4 L-154.0 -40.0 -159.4 -42.0" fill="#5dfff4" fill-rule="evenodd" stroke="none"/>
    <path d="M-62.0 -64.9 Q-62.9 -49.95 -81.75 -25.25 L-97.25 -15.0 -125.75 -4.9 -144.5 -4.25 Q-159.35 -24.9 -159.4 -42.0 L-154.0 -40.0 -153.25 -39.4 Q-136.5 -25.15 -136.25 -26.9 L-135.75 -26.65 -135.5 -26.9 -134.5 -27.25 Q-118.7 -46.0 -103.15 -53.25 -86.45 -61.7 -62.0 -64.9" fill="#d1fffb" fill-rule="evenodd" stroke="none"/>
    <path d="M-136.25 -26.9 L-135.5 -26.9 -135.75 -26.65 -136.25 -26.9" fill="#a9fff9" fill-rule="evenodd" stroke="none"/>
  </g>
</svg>
