<?xml version="1.0" encoding="UTF-8" standalone="no"?>
<svg xmlns:xlink="http://www.w3.org/1999/xlink" height="152.5px" width="97.95px" xmlns="http://www.w3.org/2000/svg">
  <g transform="matrix(1.0, 0.0, 0.0, 1.0, 159.05, 147.25)">
    <path d="M-159.0 -33.15 Q-159.25 -35.45 -158.0 -41.5 L-156.4 -46.25 -154.75 -48.9 -154.25 -49.0 -152.9 -49.65 -151.0 -49.75 -150.0 -50.75 -149.5 -54.65 -149.75 -66.15 -147.25 -64.15 Q-144.4 -58.3 -144.0 -55.4 -141.75 -50.45 -135.5 -18.25 L-135.15 -18.4 -127.65 -60.75 -120.65 -94.65 -112.9 -123.15 -104.4 -140.25 -96.9 -146.25 -89.65 -147.25 -88.15 -135.15 -84.5 -124.5 Q-67.45 -92.7 -63.65 -82.15 L-61.4 -72.65 Q-60.65 -59.5 -62.4 -56.4 -92.1 -51.85 -106.0 -43.0 -117.35 -37.6 -134.9 -17.9 L-135.25 -17.9 -135.65 -17.75 -136.0 -17.9 Q-135.95 -15.8 -153.65 -31.15 L-159.0 -33.15" fill="#5dfff4" fill-rule="evenodd" stroke="none"/>
    <path d="M-62.4 -56.4 Q-63.15 -41.75 -81.9 -16.15 L-97.4 -5.65 -125.75 4.6 -144.15 5.25 Q-158.7 -15.35 -159.0 -33.15 L-153.65 -31.15 Q-135.95 -15.8 -136.0 -17.9 L-135.65 -17.75 -135.25 -17.9 -134.9 -17.9 Q-117.35 -37.6 -106.0 -43.0 -92.1 -51.85 -62.4 -56.4" fill="#d1fffb" fill-rule="evenodd" stroke="none"/>
  </g>
</svg>
