<?xml version="1.0" encoding="UTF-8" standalone="no"?>
<svg xmlns:xlink="http://www.w3.org/1999/xlink" height="51.1px" width="33.55px" xmlns="http://www.w3.org/2000/svg">
  <g transform="matrix(1.0, 0.0, 0.0, 1.0, 12.75, 49.1)">
    <path d="M16.75 -14.3 L16.3 -12.85 8.5 -8.55 8.95 -10.0 16.75 -14.3" fill="#5e9100" fill-rule="evenodd" stroke="none"/>
    <path d="M8.9 -10.0 L8.45 -8.55 0.55 -8.6 1.0 -10.05 8.9 -10.0" fill="#619500" fill-rule="evenodd" stroke="none"/>
    <path d="M5.4 -14.05 L16.7 -14.3 8.9 -10.0 1.0 -10.05 5.4 -14.05" fill="#88d100" fill-rule="evenodd" stroke="none"/>
    <path d="M-0.4 -16.4 L2.75 -17.1 2.3 1.3 -0.85 2.0 -0.4 -16.4" fill="#7dc100" fill-rule="evenodd" stroke="none"/>
    <path d="M4.95 -33.05 L8.1 -33.75 2.7 -17.1 -0.45 -16.4 4.95 -33.05" fill="#659c00" fill-rule="evenodd" stroke="none"/>
    <path d="M3.1 -35.55 L6.25 -36.25 8.1 -33.75 4.95 -33.1 3.1 -35.55" fill="#8ad500" fill-rule="evenodd" stroke="none"/>
    <path d="M3.1 -35.55 L4.95 -33.05 -0.4 -16.4 -0.85 2.0 -3.3 0.75 -2.85 -18.0 3.1 -35.55" fill="#4f7a00" fill-rule="evenodd" stroke="none"/>
    <path d="M-0.4 -14.55 L-0.7 -13.6 -5.6 -13.15 -5.3 -14.1 -0.4 -14.55" fill="#619600" fill-rule="evenodd" stroke="none"/>
    <path d="M-12.5 -16.35 L-5.3 -16.8 -0.45 -14.55 -5.35 -14.1 -12.5 -16.35" fill="#88d100" fill-rule="evenodd" stroke="none"/>
    <path d="M-5.3 -14.05 L-5.6 -13.1 -12.75 -15.35 -12.45 -16.3 -5.3 -14.05" fill="#5b8d00" fill-rule="evenodd" stroke="none"/>
    <path d="M7.7 -30.65 L4.45 -33.55 4.8 -37.25 8.4 -38.0 11.65 -35.1 11.3 -31.45 7.7 -30.65" fill="#ffff00" fill-rule="evenodd" stroke="none"/>
    <path d="M11.0 -32.45 L11.05 -32.6 11.65 -35.8 11.7 -35.75 11.75 -35.9 20.8 -34.5 19.9 -28.2 11.0 -32.45" fill="#e58420" fill-rule="evenodd" stroke="none"/>
    <path d="M7.75 -31.55 L11.2 -32.35 19.9 -28.15 16.45 -27.35 7.75 -31.55" fill="#764411" fill-rule="evenodd" stroke="none"/>
    <path d="M8.15 -35.0 L11.65 -35.8 11.0 -32.6 7.55 -31.75 8.15 -35.0" fill="#8a5013" fill-rule="evenodd" stroke="none"/>
    <path d="M7.6 -31.8 L11.05 -32.6 11.0 -32.45 7.55 -31.65 7.6 -31.8" fill="#8a5013" fill-rule="evenodd" stroke="none"/>
    <path d="M7.55 -31.65 L11.0 -32.45 11.25 -32.35 7.75 -31.55 7.55 -31.65" fill="#764411" fill-rule="evenodd" stroke="none"/>
    <path d="M9.15 -47.35 L12.6 -48.15 9.3 -38.35 5.85 -37.5 9.15 -47.35" fill="#8a5013" fill-rule="evenodd" stroke="none"/>
    <path d="M5.9 -37.15 L9.35 -37.95 11.65 -35.8 8.2 -34.95 5.9 -37.15" fill="#784611" fill-rule="evenodd" stroke="none"/>
    <path d="M12.6 -48.15 L17.15 -44.25 11.8 -35.9 11.7 -35.8 11.65 -35.8 9.35 -38.0 9.3 -38.35 12.6 -48.15" fill="#e58420" fill-rule="evenodd" stroke="none"/>
    <path d="M11.0 -32.6 L11.0 -32.45 11.2 -32.35 16.05 -22.55 11.2 -20.5 8.4 -31.4 8.5 -31.7 8.45 -31.7 11.0 -32.6" fill="#e58420" fill-rule="evenodd" stroke="none"/>
    <path d="M4.95 -30.6 L8.4 -31.4 11.25 -20.5 7.75 -19.65 4.95 -30.6" fill="#834c12" fill-rule="evenodd" stroke="none"/>
    <path d="M-1.35 -46.25 L2.1 -47.05 6.55 -37.15 3.05 -36.35 -1.35 -46.25" fill="#804a12" fill-rule="evenodd" stroke="none"/>
    <path d="M2.1 -47.05 L6.95 -49.1 9.3 -38.3 9.4 -37.95 6.8 -36.6 6.75 -36.6 2.1 -47.05" fill="#e58420" fill-rule="evenodd" stroke="none"/>
    <path d="M3.5 -48.3 L6.95 -49.1 2.1 -47.05 -1.35 -46.25 3.5 -48.3" fill="#7f4a12" fill-rule="evenodd" stroke="none"/>
    <path d="M6.1 -33.75 L8.5 -31.75 8.5 -31.7 8.45 -31.4 5.7 -21.4 0.95 -25.0 5.8 -33.6 6.05 -33.5 6.1 -33.75" fill="#e58420" fill-rule="evenodd" stroke="none"/>
    <path d="M-2.55 -24.15 L0.9 -24.95 5.65 -21.35 2.2 -20.55 -2.55 -24.15" fill="#774511" fill-rule="evenodd" stroke="none"/>
    <path d="M2.3 -32.8 L5.8 -33.6 0.9 -24.95 -2.55 -24.15 2.3 -32.8" fill="#895013" fill-rule="evenodd" stroke="none"/>
    <path d="M-6.45 -36.55 L-3.0 -37.35 5.8 -33.6 2.3 -32.75 -6.45 -36.55" fill="#764411" fill-rule="evenodd" stroke="none"/>
    <path d="M-1.2 -43.3 L6.55 -37.15 6.8 -36.6 6.05 -33.5 -2.95 -37.35 -1.2 -43.3" fill="#e58420" fill-rule="evenodd" stroke="none"/>
    <path d="M-4.7 -42.5 L-1.2 -43.3 -3.0 -37.35 -6.45 -36.55 -4.7 -42.5" fill="#8a5013" fill-rule="evenodd" stroke="none"/>
  </g>
</svg>
