<?xml version="1.0" encoding="UTF-8" standalone="no"?>
<svg xmlns:xlink="http://www.w3.org/1999/xlink" height="16.9px" width="16.05px" xmlns="http://www.w3.org/2000/svg">
  <g transform="matrix(1.0, 0.0, 0.0, 1.0, 8.05, 8.45)">
    <path d="M4.7 -6.75 L5.6 -5.3 Q6.4 -3.9 7.05 -1.65 7.7 0.6 7.4 3.15 7.05 5.7 4.8 7.95 L0.7 2.45 -3.25 -2.65 -6.2 -6.45 -7.4 -7.95 4.7 -6.75" fill="#ff0000" fill-rule="evenodd" stroke="none"/>
    <path d="M4.7 -6.75 L-7.4 -7.95 -6.2 -6.45 -3.25 -2.65 0.7 2.45 4.8 7.95 Q7.05 5.7 7.4 3.15 7.7 0.6 7.05 -1.65 6.4 -3.9 5.6 -5.3 L4.7 -6.75 Z" fill="none" stroke="#000000" stroke-linecap="round" stroke-linejoin="round" stroke-width="1.0"/>
    <path d="M-7.55 1.05 L-6.8 -7.2 -5.15 -5.7 Q-3.5 -4.2 -0.95 -0.9 1.65 2.45 4.6 7.85 3.5 8.15 2.3 7.35 L-0.4 5.25 -3.6 2.75 Q-5.35 1.55 -7.55 1.05" fill="#ffffff" fill-rule="evenodd" stroke="none"/>
    <path d="M-6.8 -7.2 L-5.15 -5.7 Q-3.5 -4.2 -0.95 -0.9 1.65 2.45 4.6 7.85 3.5 8.15 2.3 7.35 L-0.4 5.25 -3.6 2.75 Q-5.35 1.55 -7.55 1.05" fill="none" stroke="#000000" stroke-linecap="round" stroke-linejoin="round" stroke-width="1.0"/>
  </g>
</svg>
