<?xml version="1.0" encoding="UTF-8" standalone="no"?>
<svg xmlns:xlink="http://www.w3.org/1999/xlink" height="15.5px" width="15.2px" xmlns="http://www.w3.org/2000/svg">
  <g transform="matrix(1.0, 0.0, 0.0, 1.0, 7.6, 7.75)">
    <path d="M-1.75 2.9 L-6.9 3.6 -7.6 -1.55 -2.45 -2.25 -1.75 2.9" fill="#ff0000" fill-rule="evenodd" stroke="none"/>
    <path d="M7.6 1.6 L2.45 2.3 1.75 -2.85 6.9 -3.55 7.6 1.6" fill="#ff0000" fill-rule="evenodd" stroke="none"/>
    <path d="M2.25 -2.6 L-2.9 -1.9 -3.6 -7.05 1.55 -7.75 2.25 -2.6" fill="#ff0000" fill-rule="evenodd" stroke="none"/>
    <path d="M3.6 7.05 L-1.55 7.75 -2.25 2.6 2.9 1.9 3.6 7.05" fill="#ff0000" fill-rule="evenodd" stroke="none"/>
    <path d="M0.5 3.65 L-3.65 0.5 -0.5 -3.65 3.65 -0.5 0.5 3.65" fill="#ff8c00" fill-rule="evenodd" stroke="none"/>
    <path d="M-1.15 1.55 L-1.5 -1.1 1.1 -1.45 1.5 1.15 -1.15 1.55" fill="#ffff00" fill-rule="evenodd" stroke="none"/>
  </g>
</svg>
