<?xml version="1.0" encoding="UTF-8" standalone="no"?>
<svg xmlns:xlink="http://www.w3.org/1999/xlink" height="360.65px" width="600.65px" xmlns="http://www.w3.org/2000/svg">
  <g transform="matrix(1.0, 0.0, 0.0, 1.0, -0.15, -0.65)">
    <path d="M575.45 90.0 L543.45 60.65 544.1 40.65 551.45 24.65 539.45 16.0 544.8 0.65 600.45 1.3 600.8 54.0 587.45 79.3 580.1 84.65 575.45 90.0 M511.45 21.3 L520.15 31.3 516.8 53.3 502.15 86.65 462.8 40.65 471.45 24.0 468.8 11.3 470.8 0.65 517.95 0.8 511.45 21.3 M572.15 127.3 L589.5 122.3 600.5 112.15 600.5 147.3 587.5 143.3 572.15 127.3 M599.95 305.3 L572.15 313.3 562.8 272.65 599.95 276.3 599.95 305.3 M600.0 329.8 L599.5 358.8 591.0 361.3 573.0 360.8 587.5 329.3 600.0 329.8 M35.5 23.95 L23.5 35.3 39.5 35.3 46.8 59.3 68.15 75.3 92.15 115.95 37.5 116.65 20.8 89.95 8.8 89.95 0.15 81.3 0.15 1.3 35.5 23.95 M16.8 182.65 L28.15 191.95 48.15 190.65 32.15 233.95 16.15 230.65 0.15 233.95 0.15 181.3 16.8 182.65 M13.45 240.0 L26.15 239.65 33.85 254.8 45.45 261.8 15.45 301.3 0.8 292.0 1.45 255.3 7.45 252.8 13.45 240.0" fill="#ffffff" fill-opacity="0.12156863" fill-rule="evenodd" stroke="none"/>
  </g>
</svg>
