<?xml version="1.0" encoding="UTF-8" standalone="no"?>
<svg xmlns:xlink="http://www.w3.org/1999/xlink" height="38.4px" width="33.8px" xmlns="http://www.w3.org/2000/svg">
  <g transform="matrix(1.0, 0.0, 0.0, 1.0, 16.9, 19.2)">
    <path d="M16.9 -13.35 L16.9 18.95 -10.85 18.95 -10.85 -13.35 16.9 -13.35" fill="#fdc8ae" fill-rule="evenodd" stroke="none"/>
    <path d="M11.05 16.05 Q15.9 16.05 16.65 18.95 L5.45 18.95 Q6.7 16.05 11.05 16.05" fill="#000000" fill-rule="evenodd" stroke="none"/>
    <path d="M-5.25 16.05 Q-0.4 16.05 0.35 18.95 L-10.85 18.95 Q-9.6 16.05 -5.25 16.05" fill="#000000" fill-rule="evenodd" stroke="none"/>
    <path d="M16.65 -2.65 Q4.0 4.15 -11.1 -2.65 L-11.1 -13.35 16.9 -13.35 16.65 -2.65" fill="#000000" fill-rule="evenodd" stroke="none"/>
    <path d="M1.6 4.4 L1.6 -3.4 4.25 -3.4 4.25 4.4 2.75 5.35 1.6 4.4" fill="#000000" fill-rule="evenodd" stroke="none"/>
    <path d="M2.3 -13.35 L3.5 -13.35 3.5 -1.45 2.3 -1.45 2.3 -13.35" fill="#7f7f7f" fill-rule="evenodd" stroke="none"/>
    <path d="M2.5 -6.8 L2.75 -7.0 3.0 -6.8 2.75 -6.3 Q2.5 -6.3 2.5 -6.8" fill="#000000" fill-rule="evenodd" stroke="none"/>
    <path d="M2.5 -8.25 L2.75 -8.5 3.0 -8.25 2.75 -7.75 Q2.5 -7.75 2.5 -8.25" fill="#000000" fill-rule="evenodd" stroke="none"/>
    <path d="M2.5 -9.7 L2.75 -9.95 3.0 -9.7 2.75 -9.25 Q2.5 -9.25 2.5 -9.7" fill="#000000" fill-rule="evenodd" stroke="none"/>
    <path d="M2.5 -11.15 L2.75 -11.4 3.0 -11.15 2.75 -10.7 Q2.5 -10.7 2.5 -11.15" fill="#000000" fill-rule="evenodd" stroke="none"/>
    <path d="M2.5 -12.6 L2.75 -12.85 3.0 -12.6 2.75 -12.1 Q2.5 -12.1 2.5 -12.6" fill="#000000" fill-rule="evenodd" stroke="none"/>
    <path d="M2.5 -2.4 L2.75 -2.65 3.0 -2.4 2.75 -1.95 Q2.5 -1.95 2.5 -2.4" fill="#000000" fill-rule="evenodd" stroke="none"/>
    <path d="M2.5 -3.9 L2.75 -4.15 3.0 -3.9 2.75 -3.4 Q2.5 -3.4 2.5 -3.9" fill="#000000" fill-rule="evenodd" stroke="none"/>
    <path d="M2.5 -5.35 L2.75 -5.55 3.0 -5.35 2.75 -4.85 Q2.5 -4.85 2.5 -5.35" fill="#000000" fill-rule="evenodd" stroke="none"/>
    <path d="M16.65 7.8 L7.15 7.8 Q5.45 10.25 3.0 10.25 0.1 10.25 -1.1 7.8 L-10.85 7.8 -10.85 7.55 -1.1 7.55 Q0.1 10.0 3.0 10.0 5.7 10.0 6.95 7.55 L16.65 7.55 16.65 7.8" fill="#000000" fill-rule="evenodd" stroke="none"/>
    <path d="M-9.15 17.0 L-10.35 18.7 -10.85 18.7 -9.15 17.0" fill="#000000" fill-rule="evenodd" stroke="none"/>
    <path d="M-5.0 15.8 Q-0.65 15.8 0.6 18.7 L5.45 18.7 Q6.2 15.8 10.8 15.8 12.75 15.8 14.3 16.65 13.1 16.05 11.05 16.05 6.7 16.05 5.45 18.95 L0.35 18.95 Q-0.4 16.05 -5.25 16.05 L-9.15 17.0 -5.0 15.8" fill="#7f7f7f" fill-rule="evenodd" stroke="none"/>
    <path d="M16.65 18.7 L14.9 17.0 Q13.25 15.8 10.8 15.8 6.2 15.8 5.45 18.7 L0.6 18.7 Q-0.65 15.8 -5.0 15.8 L-9.15 17.0 -10.85 18.7 -10.85 14.35 16.65 14.35 16.65 18.7" fill="#7f7f7f" fill-rule="evenodd" stroke="none"/>
    <path d="M16.65 13.6 L-10.85 13.6 -10.85 7.8 -1.1 7.8 Q0.1 10.25 3.0 10.25 5.45 10.25 7.15 7.8 L16.65 7.8 16.65 13.6" fill="#7f7f7f" fill-rule="evenodd" stroke="none"/>
    <path d="M16.65 -3.4 Q4.0 3.4 -10.85 -3.15 L-10.85 -4.6 Q4.0 1.95 16.65 -4.6 L16.65 -3.4" fill="#7f7f7f" fill-rule="evenodd" stroke="none"/>
    <path d="M16.65 14.35 L-10.85 14.35 -10.85 13.6 16.65 13.6 16.65 14.35" fill="#000000" fill-rule="evenodd" stroke="none"/>
    <path d="M16.65 -4.6 L16.65 -13.35 16.9 -13.35 16.65 -4.6" fill="#fdc8ae" fill-rule="evenodd" stroke="none"/>
    <path d="M16.9 7.55 L16.65 7.55 16.65 -2.65 16.9 -2.65 16.9 7.55" fill="#fdc8ae" fill-rule="evenodd" stroke="none"/>
    <path d="M16.65 -4.6 L16.9 -13.35 16.9 -4.6 16.65 -4.6" fill="#fdc8ae" fill-rule="evenodd" stroke="none"/>
    <path d="M16.9 -3.4 L16.9 -2.65 16.65 -2.65 16.65 -3.4 16.9 -3.4" fill="#fdc8ae" fill-rule="evenodd" stroke="none"/>
    <path d="M16.9 7.8 L16.65 7.8 16.65 7.55 16.9 7.55 16.9 7.8" fill="#fdc8ae" fill-rule="evenodd" stroke="none"/>
    <path d="M16.9 18.7 L16.9 18.95 16.65 18.95 16.65 18.7 16.9 18.7" fill="#fdc8ae" fill-rule="evenodd" stroke="none"/>
    <path d="M16.9 18.7 L16.65 18.7 16.65 14.35 16.9 14.35 16.9 18.7" fill="#fdc8ae" fill-rule="evenodd" stroke="none"/>
    <path d="M16.65 13.6 L16.65 7.8 16.9 7.8 16.9 13.6 16.65 13.6" fill="#fdc8ae" fill-rule="evenodd" stroke="none"/>
    <path d="M16.65 -4.6 L16.9 -4.6 16.9 -3.4 16.65 -3.4 16.65 -4.6" fill="#fdc8ae" fill-rule="evenodd" stroke="none"/>
    <path d="M16.9 14.35 L16.65 14.35 16.65 13.6 16.9 13.6 16.9 14.35" fill="#fdc8ae" fill-rule="evenodd" stroke="none"/>
    <path d="M15.65 -3.65 L15.9 -3.9 16.15 -3.65 15.9 -3.4 Q15.65 -3.4 15.65 -3.65" fill="#000000" fill-rule="evenodd" stroke="none"/>
    <path d="M14.2 -3.15 L14.45 -3.4 14.65 -3.15 14.45 -2.65 Q14.2 -2.65 14.2 -3.15" fill="#000000" fill-rule="evenodd" stroke="none"/>
    <path d="M12.75 -2.4 L13.0 -2.9 13.45 -2.4 13.0 -2.15 Q12.75 -2.15 12.75 -2.4" fill="#000000" fill-rule="evenodd" stroke="none"/>
    <path d="M11.3 -2.15 L11.55 -2.4 12.05 -2.15 11.55 -1.7 Q11.3 -1.7 11.3 -2.15" fill="#000000" fill-rule="evenodd" stroke="none"/>
    <path d="M9.55 -1.7 Q9.55 -1.95 10.05 -1.95 L10.3 -1.7 10.05 -1.45 Q9.8 -1.45 9.55 -1.7" fill="#000000" fill-rule="evenodd" stroke="none"/>
    <path d="M8.1 -1.45 Q8.1 -1.7 8.6 -1.7 L8.85 -1.45 8.6 -1.2 Q8.35 -1.2 8.1 -1.45" fill="#000000" fill-rule="evenodd" stroke="none"/>
    <path d="M6.45 -1.2 Q6.45 -1.45 6.95 -1.7 L7.15 -1.2 6.95 -0.95 Q6.7 -0.95 6.45 -1.2" fill="#000000" fill-rule="evenodd" stroke="none"/>
    <path d="M4.95 -0.95 L5.2 -1.45 5.45 -0.95 5.2 -0.7 Q4.95 -0.7 4.95 -0.95" fill="#000000" fill-rule="evenodd" stroke="none"/>
    <path d="M3.0 -0.95 Q3.0 -1.2 3.5 -1.45 L3.75 -0.95 3.5 -0.7 Q3.25 -0.7 3.0 -0.95" fill="#000000" fill-rule="evenodd" stroke="none"/>
    <path d="M1.6 -0.95 L1.8 -1.2 2.05 -0.95 1.8 -0.7 1.6 -0.95" fill="#000000" fill-rule="evenodd" stroke="none"/>
    <path d="M-0.15 -1.2 L0.1 -1.45 0.35 -1.2 0.1 -0.7 Q-0.15 -0.7 -0.15 -1.2" fill="#000000" fill-rule="evenodd" stroke="none"/>
    <path d="M-2.1 -1.2 L-1.6 -1.7 Q-1.35 -1.7 -1.35 -1.2 L-1.6 -0.95 Q-1.85 -0.95 -2.1 -1.2" fill="#000000" fill-rule="evenodd" stroke="none"/>
    <path d="M-3.55 -1.45 L-3.3 -1.95 -2.85 -1.45 Q-3.1 -1.35 -3.3 -1.2 L-3.55 -1.45" fill="#000000" fill-rule="evenodd" stroke="none"/>
    <path d="M-5.25 -1.95 Q-5.25 -2.15 -4.75 -2.15 L-4.5 -1.95 Q-4.5 -1.7 -4.75 -1.7 -5.0 -1.7 -5.25 -1.95" fill="#000000" fill-rule="evenodd" stroke="none"/>
    <path d="M-6.95 -2.4 L-6.7 -2.65 -6.2 -2.4 Q-6.2 -2.15 -6.7 -1.95 L-6.95 -2.4" fill="#000000" fill-rule="evenodd" stroke="none"/>
    <path d="M-8.9 -2.9 L-8.65 -3.4 -8.2 -2.9 -8.65 -2.65 -8.9 -2.9" fill="#000000" fill-rule="evenodd" stroke="none"/>
    <path d="M-10.35 -3.65 L-9.85 -3.9 -9.6 -3.65 -9.85 -3.15 -10.35 -3.65" fill="#000000" fill-rule="evenodd" stroke="none"/>
    <path d="M-16.9 13.15 L-16.9 -19.2 -10.85 -13.1 -10.85 19.2 -16.9 13.15" fill="#dab099" fill-rule="evenodd" stroke="none"/>
    <path d="M-10.85 -2.4 Q-13.3 -8.25 -16.9 -8.5 L-16.9 -19.2 -10.85 -13.1 -10.85 -2.4" fill="#000000" fill-rule="evenodd" stroke="none"/>
    <path d="M-10.85 7.8 L-16.9 1.95 -16.9 1.7 -10.85 7.55 -10.85 7.8" fill="#000000" fill-rule="evenodd" stroke="none"/>
    <path d="M-16.9 12.9 L-10.85 18.95 -16.9 13.15 -16.9 12.9" fill="#7f7f7f" fill-rule="evenodd" stroke="none"/>
    <path d="M-10.85 7.8 L-10.85 13.6 -16.9 7.8 -16.9 1.95 -10.85 7.8" fill="#656565" fill-rule="evenodd" stroke="none"/>
    <path d="M-10.85 18.95 L-16.9 12.9 -16.9 8.25 -10.85 14.35 -10.85 18.95" fill="#656565" fill-rule="evenodd" stroke="none"/>
    <path d="M-16.9 -9.25 L-16.9 -10.7 Q-13.3 -10.2 -10.85 -4.4 L-10.85 -3.15 Q-13.3 -9.0 -16.9 -9.25" fill="#7f7f7f" fill-rule="evenodd" stroke="none"/>
    <path d="M-10.85 14.35 L-16.9 8.25 -16.9 7.8 -10.85 13.6 -10.85 14.35" fill="#000000" fill-rule="evenodd" stroke="none"/>
    <path d="M-12.8 10.25 L-12.8 -5.8 -12.3 -6.55 -12.3 10.5 -12.8 10.25" fill="#b3b3b3" fill-rule="evenodd" stroke="none"/>
    <path d="M-12.05 10.7 L-12.3 10.5 -12.3 -6.55 -12.05 -5.35 -12.05 10.7" fill="#dbdbdb" fill-rule="evenodd" stroke="none"/>
    <path d="M-11.8 10.95 L-11.8 11.4 -13.05 10.0 -13.05 9.5 -11.8 10.95" fill="#000000" fill-rule="evenodd" stroke="none"/>
    <path d="M-12.05 15.1 L-12.05 15.35 -12.8 14.35 -12.8 14.1 -12.05 15.1" fill="#000000" fill-rule="evenodd" stroke="none"/>
    <path d="M-12.05 15.1 L-12.8 14.6 -12.8 10.5 -12.05 10.95 -12.05 15.1" fill="#000000" fill-rule="evenodd" stroke="none"/>
    <path d="M-12.8 10.5 Q-12.05 12.15 -12.05 13.15 -12.3 14.1 -12.8 14.1 L-12.8 10.5" fill="#fdc8ae" fill-rule="evenodd" stroke="none"/>
    <path d="M-11.1 -4.6 L-11.1 -4.15 -11.3 -4.6 -11.1 -4.6" fill="#000000" fill-rule="evenodd" stroke="none"/>
    <path d="M-11.55 -5.55 L-11.55 -5.1 -11.8 -5.35 -11.55 -5.55" fill="#000000" fill-rule="evenodd" stroke="none"/>
    <path d="M-12.05 -6.3 L-12.05 -5.8 -12.3 -6.3 -12.05 -6.3" fill="#000000" fill-rule="evenodd" stroke="none"/>
    <path d="M-12.55 -7.0 L-12.55 -6.55 -12.8 -7.0 -12.55 -7.0" fill="#000000" fill-rule="evenodd" stroke="none"/>
    <path d="M-13.05 -7.75 L-13.05 -7.0 -13.3 -7.5 -13.05 -7.75" fill="#000000" fill-rule="evenodd" stroke="none"/>
    <path d="M-13.75 -7.75 L-13.75 -8.5 -13.55 -8.0 Q-13.55 -7.75 -13.75 -7.75" fill="#000000" fill-rule="evenodd" stroke="none"/>
    <path d="M-14.75 -9.5 L-14.75 -8.75 -14.95 -9.25 -14.75 -9.5" fill="#000000" fill-rule="evenodd" stroke="none"/>
    <path d="M-15.45 -9.25 L-15.45 -9.9 -15.2 -9.5 Q-15.2 -9.25 -15.45 -9.25" fill="#000000" fill-rule="evenodd" stroke="none"/>
    <path d="M-15.95 -10.2 L-15.95 -9.5 -16.2 -9.95 -15.95 -10.2" fill="#000000" fill-rule="evenodd" stroke="none"/>
    <path d="M-16.4 -10.2 L-16.4 -9.7 -16.65 -9.95 -16.4 -10.2" fill="#000000" fill-rule="evenodd" stroke="none"/>
    <path d="M-10.85 -13.35 L-16.65 -18.95 10.8 -18.95 16.65 -13.35 -10.85 -13.35" fill="#3b3b3b" fill-rule="evenodd" stroke="none"/>
    <path d="M-1.6 -17.0 L-0.4 -17.0 3.5 -13.35 2.05 -13.35 -1.6 -17.0" fill="#7f7f7f" fill-rule="evenodd" stroke="none"/>
    <path d="M1.35 -14.8 L0.85 -14.8 Q0.6 -14.8 1.1 -15.05 L1.35 -14.8" fill="#000000" fill-rule="evenodd" stroke="none"/>
    <path d="M-0.15 -15.8 L0.6 -15.8 0.35 -15.55 Q0.1 -15.55 -0.15 -15.8" fill="#000000" fill-rule="evenodd" stroke="none"/>
    <path d="M-0.65 -16.25 L0.1 -16.25 -0.15 -16.05 -0.65 -16.25" fill="#000000" fill-rule="evenodd" stroke="none"/>
    <path d="M-1.1 -16.75 L-0.4 -16.75 Q-0.4 -16.5 -0.65 -16.5 L-1.1 -16.75" fill="#000000" fill-rule="evenodd" stroke="none"/>
    <path d="M2.05 -13.6 L2.75 -13.6 2.5 -13.35 Q2.3 -13.35 2.05 -13.6" fill="#000000" fill-rule="evenodd" stroke="none"/>
    <path d="M1.6 -14.1 L2.3 -14.1 2.05 -13.85 Q1.8 -13.95 1.6 -14.1" fill="#000000" fill-rule="evenodd" stroke="none"/>
    <path d="M1.8 -14.35 L1.35 -14.35 Q1.1 -14.6 1.6 -14.6 L1.8 -14.35" fill="#000000" fill-rule="evenodd" stroke="none"/>
    <path d="M-3.8 -18.95 L-2.35 -18.95 -0.4 -17.0 -1.6 -17.0 -3.8 -18.95" fill="#7f7f7f" fill-rule="evenodd" stroke="none"/>
    <path d="M-2.35 -18.45 L-3.1 -18.45 -2.85 -18.7 -2.35 -18.45" fill="#000000" fill-rule="evenodd" stroke="none"/>
    <path d="M-1.6 -17.2 L-0.85 -17.2 Q-0.85 -17.0 -1.1 -17.0 L-1.6 -17.2" fill="#000000" fill-rule="evenodd" stroke="none"/>
    <path d="M-2.1 -17.7 L-1.35 -17.7 Q-1.35 -17.45 -1.6 -17.45 -1.85 -17.45 -2.1 -17.7" fill="#000000" fill-rule="evenodd" stroke="none"/>
    <path d="M-1.85 -17.95 L-2.6 -17.95 -2.35 -18.2 -1.85 -17.95" fill="#000000" fill-rule="evenodd" stroke="none"/>
  </g>
</svg>
