<?xml version="1.0" encoding="UTF-8" standalone="no"?>
<svg xmlns:xlink="http://www.w3.org/1999/xlink" height="263.35px" width="673.0px" xmlns="http://www.w3.org/2000/svg">
  <g transform="matrix(1.0, 0.0, 0.0, 1.0, 71.25, -0.3)">
    <path d="M148.1 130.9 L149.65 129.25 151.95 131.75 154.3 129.25 156.65 131.75 158.95 129.25 161.3 131.75 163.0 130.0 164.2 131.25 161.85 133.75 164.2 136.15 161.85 138.65 164.2 141.1 161.85 143.55 164.2 146.0 161.85 148.5 164.2 150.9 161.85 153.4 164.2 155.85 161.85 158.3 164.2 160.75 161.85 163.25 164.2 165.65 161.85 168.15 164.2 170.6 161.85 173.05 164.2 175.5 162.3 177.5 161.3 176.45 158.95 178.85 156.65 176.45 154.3 178.85 151.95 176.45 149.65 178.85 148.1 177.25 148.05 177.2 146.7 175.85 144.2 178.4 141.85 176.05 139.9 178.0 139.3 177.45 138.65 178.1 136.9 176.35 135.3 177.95 134.7 177.35 134.2 177.9 132.45 176.15 132.35 176.25 131.75 175.65 129.6 178.35 127.25 176.0 126.15 177.6 127.85 179.35 125.55 181.7 126.35 182.5 127.7 183.85 126.35 182.5 126.7 182.5 127.85 183.7 127.7 183.85 127.85 184.0 125.75 186.2 125.55 186.35 126.85 187.35 125.55 186.35 125.75 186.2 126.85 187.35 127.85 188.35 125.55 190.7 128.35 193.6 126.65 195.35 128.35 197.1 127.8 197.7 128.35 198.25 126.65 200.0 128.35 201.75 127.8 202.35 128.35 202.95 126.65 204.7 128.35 206.45 127.8 207.0 128.35 207.6 126.65 209.35 126.85 209.6 126.3 210.2 128.35 212.25 126.05 214.6 128.25 216.8 128.25 217.15 129.1 218.0 129.1 218.4 128.1 219.4 128.0 221.55 129.15 222.7 129.15 223.0 127.85 224.35 127.75 226.0 129.2 227.45 129.2 227.65 127.55 229.3 127.5 230.4 129.3 232.2 129.3 232.25 127.3 234.25 127.25 234.8 129.3 236.85 127.0 239.15 127.0 239.25 129.3 241.55 126.95 243.85 129.3 246.2 126.95 248.55 129.3 250.85 126.95 253.2 129.3 255.55 126.95 257.85 129.3 260.2 128.25 261.25 127.6 260.6 125.7 262.55 125.65 263.1 125.45 262.8 125.3 262.95 123.6 261.25 121.75 263.1 121.25 262.45 120.7 263.0 118.75 261.05 116.4 263.4 114.25 261.25 112.65 262.85 112.3 262.45 111.55 263.2 109.1 260.75 106.75 263.1 104.35 260.7 102.0 263.0 98.75 261.0 96.4 263.35 96.55 260.7 95.35 259.5 93.0 261.85 90.65 259.5 88.35 261.85 86.0 259.5 83.65 261.85 81.35 259.5 79.0 261.85 76.65 259.5 74.35 261.85 72.0 259.5 69.65 261.85 67.35 259.5 65.0 261.85 62.65 259.5 60.35 261.85 58.0 259.5 55.65 261.85 53.35 259.5 51.0 261.85 48.65 259.5 46.35 261.85 44.0 259.5 41.7 261.85 39.35 259.5 37.0 261.85 34.7 259.5 32.35 261.85 30.85 260.35 28.55 262.7 26.25 260.45 23.95 262.75 21.95 260.8 19.65 263.15 17.1 260.6 14.8 262.95 12.35 260.5 10.0 262.85 7.6 260.45 5.25 262.75 2.0 260.75 -0.35 263.1 -1.9 260.75 -4.25 263.1 -6.5 260.3 -8.85 262.65 -11.0 260.5 -13.35 262.85 -16.65 259.5 -19.0 261.85 -21.35 259.5 -23.65 261.85 -26.0 259.5 -28.35 261.85 -30.65 259.5 -33.0 261.85 -35.35 259.5 -37.65 261.85 -40.0 259.5 -42.35 261.85 -44.65 259.5 -47.0 261.85 -49.35 259.5 -51.65 261.85 -54.0 259.5 -56.35 261.85 -58.65 259.5 -61.0 261.85 -63.35 259.5 -65.65 261.85 -68.0 259.5 -70.35 261.85 -71.0 261.2 -71.0 215.4 -70.35 214.75 -68.0 217.05 -65.65 214.75 -63.35 217.05 -61.0 214.75 -58.65 217.05 -56.35 214.75 -54.0 217.05 -51.65 214.75 -49.35 217.05 -47.0 214.75 -44.65 217.05 -42.35 214.75 -40.0 217.05 -37.65 214.75 -35.35 217.05 -33.0 214.75 -30.65 217.05 -28.35 214.75 -26.0 217.05 -23.65 214.75 -21.35 217.05 -19.0 214.75 -16.65 217.05 -14.35 214.75 -12.0 217.05 -9.65 214.75 -7.35 217.05 -5.0 214.75 -2.65 217.05 -0.35 214.75 2.0 217.05 4.35 214.75 6.65 217.05 9.0 214.75 11.35 217.05 13.65 214.75 16.0 217.05 18.35 214.75 19.65 216.05 19.7 216.05 20.65 217.05 23.0 214.75 25.35 217.05 27.65 214.75 27.7 214.75 30.0 217.05 30.8 216.25 30.85 216.25 32.35 214.75 34.7 217.05 37.0 214.75 39.35 217.05 41.7 214.75 44.0 217.05 46.35 214.75 48.65 217.05 51.0 214.75 53.35 217.05 55.65 214.75 58.0 217.05 60.35 214.75 62.65 217.05 65.0 214.75 67.35 217.05 69.65 214.75 72.0 217.05 74.35 214.75 76.65 217.05 79.0 214.75 80.75 216.45 82.35 215.35 80.0 213.0 82.7 210.85 82.1 210.25 82.2 210.15 80.45 208.4 81.0 207.9 80.4 207.3 82.0 205.7 80.25 203.95 80.9 203.3 80.35 202.7 82.3 200.75 79.95 198.4 82.5 195.9 80.15 193.55 83.1 190.7 80.75 188.35 81.8 187.35 82.95 186.2 80.75 184.0 80.9 183.85 82.3 182.5 80.9 183.85 80.75 183.7 81.95 182.5 82.3 182.5 83.1 181.7 80.75 179.35 83.1 177.0 80.75 174.7 83.1 172.35 80.75 170.0 83.1 167.7 80.75 165.35 83.1 163.0 81.9 161.8 79.25 161.95 81.6 159.6 79.6 156.35 81.9 154.0 79.5 151.6 81.85 149.25 79.4 146.8 80.15 146.05 79.75 145.7 81.35 144.1 79.2 141.95 81.55 139.6 79.6 137.65 80.15 137.1 79.5 136.6 81.35 134.75 79.65 133.05 79.8 132.9 79.5 132.7 80.05 132.65 82.0 130.75 81.35 130.1 82.4 129.05 84.75 131.4 87.05 129.05 89.4 131.4 91.75 129.05 94.05 131.4 96.4 129.05 98.75 131.4 101.05 129.05 103.35 131.35 103.45 131.35 105.75 129.05 107.8 131.1 108.35 131.05 110.35 129.05 110.4 129.05 112.2 130.85 113.3 130.8 114.95 129.15 115.15 129.15 116.6 130.6 118.25 130.5 119.6 129.2 119.9 129.2 121.05 130.35 123.2 130.25 124.2 129.25 124.6 129.25 125.45 130.1 125.8 130.1 128.0 132.3 130.35 130.0 132.4 132.05 133.0 131.5 133.25 131.7 135.0 130.0 135.6 130.55 136.15 130.0 137.9 131.7 139.65 130.0 140.25 130.55 140.85 130.0 142.6 131.7 144.35 130.0 144.9 130.55 145.5 130.0 147.25 131.7 147.5 131.5 148.1 130.9 147.5 131.5 148.1 130.9 M81.8 187.35 L83.1 186.35 82.95 186.2 83.1 186.35 81.8 187.35" fill="#cb9d6b" fill-rule="evenodd" stroke="none"/>
    <path d="M148.1 177.25 L149.65 178.85 151.95 176.45 154.3 178.85 156.65 176.45 158.95 178.85 161.3 176.45 162.3 177.5 164.2 175.5 161.85 173.05 164.2 170.6 161.85 168.15 164.2 165.65 161.85 163.25 164.2 160.75 161.85 158.3 164.2 155.85 161.85 153.4 164.2 150.9 161.85 148.5 164.2 146.0 161.85 143.55 164.2 141.1 161.85 138.65 164.2 136.15 161.85 133.75 164.2 131.25 163.0 130.0 161.3 131.75 158.95 129.25 156.65 131.75 154.3 129.25 151.95 131.75 149.65 129.25 148.1 130.9 147.5 131.5 147.25 131.7 145.5 130.0 144.9 130.55 144.35 130.0 142.6 131.7 140.85 130.0 140.25 130.55 139.65 130.0 137.9 131.7 136.15 130.0 135.6 130.55 135.0 130.0 133.25 131.7 133.0 131.5 132.4 132.05 130.35 130.0 128.0 132.3 125.8 130.1 125.45 130.1 124.6 129.25 124.2 129.25 123.2 130.25 121.05 130.35 119.9 129.2 119.6 129.2 118.25 130.5 116.6 130.6 115.15 129.15 114.95 129.15 113.3 130.8 112.2 130.85 110.4 129.05 110.35 129.05 108.35 131.05 107.8 131.1 105.75 129.05 103.45 131.35 103.35 131.35 101.05 129.05 98.75 131.4 96.4 129.05 94.05 131.4 91.75 129.05 89.4 131.4 87.05 129.05 84.75 131.4 82.4 129.05 81.35 130.1 82.0 130.75 80.05 132.65 79.5 132.7 79.8 132.9 79.65 133.05 81.35 134.75 79.5 136.6 80.15 137.1 79.6 137.65 81.55 139.6 79.2 141.95 81.35 144.1 79.75 145.7 80.15 146.05 79.4 146.8 81.85 149.25 79.5 151.6 81.9 154.0 79.6 156.35 81.6 159.6 79.25 161.95 81.9 161.8 83.1 163.0 80.75 165.35 83.1 167.7 80.75 170.0 83.1 172.35 80.75 174.7 83.1 177.0 80.75 179.35 83.1 181.7 82.3 182.5 80.9 183.85 80.75 184.0 82.95 186.2 83.1 186.35 81.8 187.35 80.75 188.35 83.1 190.7 80.15 193.55 82.5 195.9 79.95 198.4 82.3 200.75 80.35 202.7 80.9 203.3 80.25 203.95 82.0 205.7 80.4 207.3 81.0 207.9 80.45 208.4 82.2 210.15 82.1 210.25 82.7 210.85 80.0 213.0 82.35 215.35 80.75 216.45 79.0 214.75 76.65 217.05 74.35 214.75 72.0 217.05 69.65 214.75 67.35 217.05 65.0 214.75 62.65 217.05 60.35 214.75 58.0 217.05 55.65 214.75 53.35 217.05 51.0 214.75 48.65 217.05 46.35 214.75 44.0 217.05 41.7 214.75 39.35 217.05 37.0 214.75 34.7 217.05 32.35 214.75 30.85 216.25 30.8 216.25 30.0 217.05 27.7 214.75 27.65 214.75 25.35 217.05 23.0 214.75 20.65 217.05 19.7 216.05 19.65 216.05 18.35 214.75 16.0 217.05 13.65 214.75 11.35 217.05 9.0 214.75 6.65 217.05 4.35 214.75 2.0 217.05 -0.35 214.75 -2.65 217.05 -5.0 214.75 -7.35 217.05 -9.65 214.75 -12.0 217.05 -14.35 214.75 -16.65 217.05 -19.0 214.75 -21.35 217.05 -23.65 214.75 -26.0 217.05 -28.35 214.75 -30.65 217.05 -33.0 214.75 -35.35 217.05 -37.65 214.75 -40.0 217.05 -42.35 214.75 -44.65 217.05 -47.0 214.75 -49.35 217.05 -51.65 214.75 -54.0 217.05 -56.35 214.75 -58.65 217.05 -61.0 214.75 -63.35 217.05 -65.65 214.75 -68.0 217.05 -70.35 214.75 -71.0 215.4 M-71.0 261.2 L-70.35 261.85 -68.0 259.5 -65.65 261.85 -63.35 259.5 -61.0 261.85 -58.65 259.5 -56.35 261.85 -54.0 259.5 -51.65 261.85 -49.35 259.5 -47.0 261.85 -44.65 259.5 -42.35 261.85 -40.0 259.5 -37.65 261.85 -35.35 259.5 -33.0 261.85 -30.65 259.5 -28.35 261.85 -26.0 259.5 -23.65 261.85 -21.35 259.5 -19.0 261.85 -16.65 259.5 -13.35 262.85 -11.0 260.5 -8.85 262.65 -6.5 260.3 -4.25 263.1 -1.9 260.75 -0.35 263.1 2.0 260.75 5.25 262.75 7.6 260.45 10.0 262.85 12.35 260.5 14.8 262.95 17.1 260.6 19.65 263.15 21.95 260.8 23.95 262.75 26.25 260.45 28.55 262.7 30.85 260.35 32.35 261.85 34.7 259.5 37.0 261.85 39.35 259.5 41.7 261.85 44.0 259.5 46.35 261.85 48.65 259.5 51.0 261.85 53.35 259.5 55.65 261.85 58.0 259.5 60.35 261.85 62.65 259.5 65.0 261.85 67.35 259.5 69.65 261.85 72.0 259.5 74.35 261.85 76.65 259.5 79.0 261.85 81.35 259.5 83.65 261.85 86.0 259.5 88.35 261.85 90.65 259.5 93.0 261.85 95.35 259.5 96.55 260.7 96.4 263.35 98.75 261.0 102.0 263.0 104.35 260.7 106.75 263.1 109.1 260.75 111.55 263.2 112.3 262.45 112.65 262.85 114.25 261.25 116.4 263.4 118.75 261.05 120.7 263.0 121.25 262.45 121.75 263.1 123.6 261.25 125.3 262.95 125.45 262.8 125.65 263.1 125.7 262.55 127.6 260.6 128.25 261.25 129.3 260.2 126.95 257.85 129.3 255.55 126.95 253.2 129.3 250.85 126.95 248.55 129.3 246.2 126.95 243.85 129.3 241.55 127.0 239.25 127.0 239.15 129.3 236.85 127.25 234.8 127.3 234.25 129.3 232.25 129.3 232.2 127.5 230.4 127.55 229.3 129.2 227.65 129.2 227.45 127.75 226.0 127.85 224.35 129.15 223.0 129.15 222.7 128.0 221.55 128.1 219.4 129.1 218.4 129.1 218.0 128.25 217.15 128.25 216.8 126.05 214.6 128.35 212.25 126.3 210.2 126.85 209.6 126.65 209.35 128.35 207.6 127.8 207.0 128.35 206.45 126.65 204.7 128.35 202.95 127.8 202.35 128.35 201.75 126.65 200.0 128.35 198.25 127.8 197.7 128.35 197.1 126.65 195.35 128.35 193.6 125.55 190.7 127.85 188.35 126.85 187.35 125.55 186.35 125.75 186.2 127.85 184.0 127.7 183.85 126.35 182.5 125.55 181.7 127.85 179.35 126.15 177.6 127.25 176.0 129.6 178.35 131.75 175.65 132.35 176.25 132.45 176.15 134.2 177.9 134.7 177.35 135.3 177.95 136.9 176.35 138.65 178.1 139.3 177.45 139.9 178.0 141.85 176.05 144.2 178.4 146.7 175.85 148.05 177.2 M81.95 182.5 L80.75 183.7 80.9 183.85 M148.1 130.9 L147.5 131.5 M82.95 186.2 L81.8 187.35 M127.7 183.85 L127.85 183.7 126.7 182.5 M126.85 187.35 L125.75 186.2" fill="none" stroke="#8a634a" stroke-linecap="round" stroke-linejoin="round" stroke-width="0.5"/>
    <path d="M601.75 0.3 L601.75 255.3 182.8 255.3 182.8 0.3 601.75 0.3" fill="#2b7eaf" fill-rule="evenodd" stroke="none"/>
  </g>
</svg>
