<?xml version="1.0" encoding="UTF-8" standalone="no"?>
<svg xmlns:xlink="http://www.w3.org/1999/xlink" height="29.9px" width="53.6px" xmlns="http://www.w3.org/2000/svg">
  <g transform="matrix(1.0, 0.0, 0.0, 1.0, 26.8, 14.95)">
    <path d="M-6.4 -12.15 L-14.15 -7.05 -15.1 -8.15 Q-16.05 -9.15 -18.2 -10.2 -20.35 -11.2 -23.85 -11.25 -24.9 -11.4 -25.4 -12.15 L-26.15 -13.65 -26.3 -14.45 -6.4 -12.15" fill="#ffffff" fill-rule="evenodd" stroke="none"/>
    <path d="M-6.4 -12.15 L-14.15 -7.05 -15.1 -8.15 Q-16.05 -9.15 -18.2 -10.2 -20.35 -11.2 -23.85 -11.25 -24.9 -11.4 -25.4 -12.15 L-26.15 -13.65 -26.3 -14.45" fill="none" stroke="#000000" stroke-linecap="round" stroke-linejoin="round" stroke-width="1.0"/>
    <path d="M1.35 12.25 Q1.2 13.2 0.55 13.85 -0.1 14.5 -0.95 14.45 L-5.15 14.3 Q-6.05 14.25 -6.6 13.55 -7.15 12.85 -7.05 11.8 L-6.05 3.6 Q-5.9 2.55 -5.2 1.95 -4.5 1.3 -3.55 1.4 L0.6 2.0 Q1.45 2.15 1.95 2.85 2.4 3.6 2.3 4.6 L1.35 12.25" fill="#ffffa1" fill-rule="evenodd" stroke="none"/>
    <path d="M1.35 12.25 Q1.2 13.2 0.55 13.85 -0.1 14.5 -0.95 14.45 L-5.15 14.3 Q-6.05 14.25 -6.6 13.55 -7.15 12.85 -7.05 11.8 L-6.05 3.6 Q-5.9 2.55 -5.2 1.95 -4.5 1.3 -3.55 1.4 L0.6 2.0 Q1.45 2.15 1.95 2.85 2.4 3.6 2.3 4.6 L1.35 12.25 Z" fill="none" stroke="#000000" stroke-linecap="round" stroke-linejoin="round" stroke-width="1.0"/>
    <path d="M25.7 9.75 L22.8 12.0 Q22.15 12.5 21.35 12.3 20.6 12.15 20.05 11.4 L16.1 5.45 Q15.6 4.7 15.7 3.9 15.85 3.1 16.5 2.65 L19.55 0.7 20.95 0.55 Q21.65 0.75 22.15 1.45 L25.9 7.0 Q26.4 7.75 26.3 8.5 26.25 9.3 25.7 9.75" fill="#ffffa1" fill-rule="evenodd" stroke="none"/>
    <path d="M25.7 9.75 L22.8 12.0 Q22.15 12.5 21.35 12.3 20.6 12.15 20.05 11.4 L16.1 5.45 Q15.6 4.7 15.7 3.9 15.85 3.1 16.5 2.65 L19.55 0.7 20.95 0.55 Q21.65 0.75 22.15 1.45 L25.9 7.0 Q26.4 7.75 26.3 8.5 26.25 9.3 25.7 9.75 Z" fill="none" stroke="#000000" stroke-linecap="round" stroke-linejoin="round" stroke-width="1.0"/>
    <path d="M6.65 -11.45 L8.05 -11.05 12.25 -10.6 19.25 -11.25 Q22.25 -11.25 23.65 -10.25 25.0 -9.2 25.4 -7.55 25.75 -5.9 25.75 -4.05 25.7 -2.2 25.9 -0.6 26.55 2.4 25.9 4.3 25.2 6.2 23.9 7.3 L21.3 8.95 Q20.1 9.55 19.65 10.0 L15.85 9.45 12.35 8.45 10.8 7.9 7.6 -7.3 6.65 -11.45" fill="#ffffff" fill-rule="evenodd" stroke="none"/>
    <path d="M6.65 -11.45 L8.05 -11.05 12.25 -10.6 19.25 -11.25 Q22.25 -11.25 23.65 -10.25 25.0 -9.2 25.4 -7.55 25.75 -5.9 25.75 -4.05 25.7 -2.2 25.9 -0.6 26.55 2.4 25.9 4.3 25.2 6.2 23.9 7.3 L21.3 8.95 Q20.1 9.55 19.65 10.0 L15.85 9.45 12.35 8.45 10.8 7.9 7.6 -7.3" fill="none" stroke="#000000" stroke-linecap="round" stroke-linejoin="round" stroke-width="1.0"/>
    <path d="M-1.75 -2.5 Q-4.95 -2.2 -7.8 -2.5 -10.7 -2.8 -12.25 -4.6 L-15.2 -8.1 -16.7 -9.7 -17.1 -10.05 Q-14.55 -12.45 -10.85 -12.65 -7.15 -12.85 -3.3 -11.75 0.55 -10.7 3.65 -9.25 L8.15 -7.05 Q9.8 -5.9 10.7 -3.5 11.6 -1.05 11.95 1.6 L12.45 6.15 12.5 8.1 -1.75 -2.5" fill="#9c5712" fill-rule="evenodd" stroke="none"/>
    <path d="M12.5 8.1 L12.45 6.15 11.95 1.6 Q11.6 -1.05 10.7 -3.5 9.8 -5.9 8.15 -7.05 L3.65 -9.25 Q0.55 -10.7 -3.3 -11.75 -7.15 -12.85 -10.85 -12.65 -14.55 -12.45 -17.1 -10.05 L-16.7 -9.7 -15.2 -8.1 -12.25 -4.6 Q-10.7 -2.8 -7.8 -2.5 -4.95 -2.2 -1.75 -2.5" fill="none" stroke="#000000" stroke-linecap="round" stroke-linejoin="round" stroke-width="1.0"/>
    <path d="M11.55 8.3 L10.3 8.75 7.25 9.75 3.35 10.9 -0.4 11.8 -2.8 11.3 -6.5 10.45 -9.8 9.4 Q-11.2 8.85 -11.3 8.3 -12.55 6.9 -12.6 5.0 -12.65 3.15 -12.0 1.25 L-10.4 -2.1 -8.75 -4.1 -6.1 -6.1 Q-4.7 -6.95 -3.05 -7.25 -1.4 -7.5 0.75 -6.75 L11.55 8.3" fill="#9c5712" fill-rule="evenodd" stroke="none"/>
    <path d="M11.55 8.3 L10.3 8.75 7.25 9.75 3.35 10.9 -0.4 11.8 -2.8 11.3 -6.5 10.45 -9.8 9.4 Q-11.2 8.85 -11.3 8.3 -12.55 6.9 -12.6 5.0 -12.65 3.15 -12.0 1.25 L-10.4 -2.1 -8.75 -4.1 -6.1 -6.1 Q-4.7 -6.95 -3.05 -7.25 -1.4 -7.5 0.75 -6.75" fill="none" stroke="#000000" stroke-linecap="round" stroke-linejoin="round" stroke-width="1.0"/>
    <path d="M2.25 2.55 Q2.05 4.05 1.15 5.0 0.3 6.0 -0.75 6.45 L-2.45 6.95 Q-3.1 6.9 -3.55 6.0 L-4.25 3.9 -4.35 1.8 -3.65 -0.2 -2.3 -2.0 Q-1.45 -2.7 -0.65 -2.55 0.55 -2.3 1.5 -1.0 2.4 0.3 2.25 2.55" fill="#fbc0df" fill-rule="evenodd" stroke="none"/>
    <path d="M2.25 2.55 Q2.05 4.05 1.15 5.0 0.3 6.0 -0.75 6.45 L-2.45 6.95 Q-3.1 6.9 -3.55 6.0 L-4.25 3.9 -4.35 1.8 -3.65 -0.2 -2.3 -2.0 Q-1.45 -2.7 -0.65 -2.55 0.55 -2.3 1.5 -1.0 2.4 0.3 2.25 2.55 Z" fill="none" stroke="#000000" stroke-linecap="round" stroke-linejoin="round" stroke-width="1.0"/>
    <path d="M17.75 -2.15 L18.65 -3.9 Q19.2 -4.65 19.85 -4.65 20.9 -4.65 21.9 -3.65 22.85 -2.7 23.05 -0.75 23.1 0.55 22.55 1.55 L21.2 3.1 Q20.45 3.65 19.85 3.75 19.35 3.8 18.8 3.1 L17.9 1.4 17.5 -0.35 Q17.45 -1.15 17.75 -2.15" fill="#fbc0df" fill-rule="evenodd" stroke="none"/>
    <path d="M17.75 -2.15 L18.65 -3.9 Q19.2 -4.65 19.85 -4.65 20.9 -4.65 21.9 -3.65 22.85 -2.7 23.05 -0.75 23.1 0.55 22.55 1.55 L21.2 3.1 Q20.45 3.65 19.85 3.75 19.35 3.8 18.8 3.1 L17.9 1.4 17.5 -0.35 Q17.45 -1.15 17.75 -2.15 Z" fill="none" stroke="#000000" stroke-linecap="round" stroke-linejoin="round" stroke-width="0.8500000000000001"/>
  </g>
</svg>
