<?xml version="1.0" encoding="UTF-8" standalone="no"?>
<svg xmlns:xlink="http://www.w3.org/1999/xlink" height="397.5px" width="667.95px" xmlns="http://www.w3.org/2000/svg">
  <g transform="matrix(1.0, 0.0, 0.0, 1.0, 75.55, -1.95)">
    <path d="M378.85 259.95 L379.45 261.15 592.4 259.95 591.4 321.4 Q469.4 345.55 375.95 334.05 L367.45 349.45 345.45 343.95 339.45 337.25 Q328.75 328.95 313.95 325.9 L285.95 261.45 323.95 261.7 323.95 171.0 164.45 171.0 164.45 264.95 165.65 395.9 166.4 399.0 166.45 399.45 98.45 399.1 91.05 373.95 59.95 352.95 48.95 306.8 1.95 270.9 1.95 269.45 -75.55 269.45 -75.55 212.45 1.95 212.45 1.95 210.95 30.95 195.95 42.9 118.95 94.9 118.95 107.9 60.0 143.9 39.75 163.9 1.95 164.4 130.2 167.95 129.2 167.95 137.0 360.95 137.0 360.95 259.95 378.85 259.95" fill="#000000" fill-opacity="0.101960786" fill-rule="evenodd" stroke="none"/>
  </g>
</svg>
