<?xml version="1.0" encoding="UTF-8" standalone="no"?>
<svg xmlns:xlink="http://www.w3.org/1999/xlink" height="443.75px" width="87.95px" xmlns="http://www.w3.org/2000/svg">
  <g transform="matrix(1.0, 0.0, 0.0, 1.0, -165.85, -0.3)">
    <path d="M253.8 0.3 L253.8 400.3 172.8 400.3 172.8 0.3 253.8 0.3" fill="#2b7eaf" fill-rule="evenodd" stroke="none"/>
    <path d="M166.4 10.6 L168.75 8.25 166.4 5.95 168.75 3.6 166.4 1.25 167.35 0.3 175.6 0.3 175.6 26.65 175.65 26.65 175.65 444.05 168.05 444.05 168.75 443.35 166.45 441.0 168.75 438.65 166.45 436.35 168.75 434.0 166.45 431.65 168.75 429.35 166.45 427.0 168.75 424.65 166.45 422.35 168.75 420.0 166.45 417.65 168.75 415.35 166.45 413.0 168.75 410.65 166.45 408.35 168.75 406.0 166.45 403.65 168.75 401.35 166.45 399.0 168.75 396.65 166.45 394.35 168.75 392.0 166.45 389.65 168.75 387.35 166.45 385.0 168.75 382.65 166.45 380.35 168.75 378.0 166.45 375.65 168.75 373.35 166.45 371.0 168.75 368.7 166.45 366.35 168.75 364.0 166.45 361.7 168.75 359.35 166.45 357.0 168.75 354.7 166.45 352.35 168.75 350.0 166.45 347.7 168.75 345.35 166.45 343.0 168.75 340.7 166.45 338.35 168.75 336.0 166.45 333.7 168.3 331.8 168.05 331.8 168.65 331.25 166.45 329.0 166.6 328.9 166.45 328.75 168.6 326.55 166.45 324.35 166.6 324.25 166.45 324.1 168.65 321.9 166.45 319.7 166.6 319.55 166.45 319.4 168.65 317.25 166.45 315.0 166.6 314.9 166.45 314.75 168.6 312.55 166.45 310.35 166.6 310.25 166.45 310.1 168.2 308.35 168.05 308.35 168.6 307.85 165.85 305.1 168.65 303.0 166.45 300.75 166.5 300.75 166.4 300.65 168.7 298.35 166.45 296.1 166.5 296.1 166.4 296.0 168.7 293.7 166.45 291.4 166.5 291.4 166.4 291.3 168.7 289.05 166.45 286.75 166.5 286.75 166.4 286.65 168.7 284.35 166.45 282.1 166.5 282.1 166.4 282.0 168.15 280.25 168.05 280.25 168.65 279.65 166.45 277.4 166.5 277.4 166.4 277.3 166.5 277.25 166.45 277.2 168.65 275.0 166.45 272.75 166.55 272.65 166.45 272.55 168.65 270.3 166.45 268.1 166.6 268.0 166.45 267.85 168.65 265.65 166.45 263.4 166.55 263.3 166.45 263.2 168.65 261.0 166.45 258.75 166.55 258.65 166.45 258.55 168.65 256.35 166.45 254.1 166.6 254.0 166.45 253.85 168.65 251.65 166.45 249.45 166.6 249.35 166.45 249.2 168.65 247.0 166.45 244.75 166.55 244.65 166.45 244.55 168.65 242.35 166.45 240.1 166.6 240.0 166.45 239.85 168.65 237.65 166.45 235.45 166.6 235.35 166.45 235.2 168.65 233.0 166.45 230.75 166.55 230.65 166.45 230.55 168.65 228.35 166.45 226.1 166.6 226.0 166.45 225.85 168.65 223.65 166.45 221.45 166.6 221.35 166.45 221.2 168.65 219.0 166.45 216.75 166.55 216.65 166.45 216.55 168.65 214.35 166.45 212.1 166.6 212.0 166.45 211.85 168.65 209.65 166.45 207.45 166.6 207.35 166.45 207.2 168.65 205.0 166.45 202.75 166.55 202.65 166.45 202.55 168.65 200.35 166.45 198.1 166.55 198.0 166.45 197.9 168.2 196.1 168.05 196.1 168.6 195.6 165.85 192.85 168.65 190.8 166.45 188.55 166.5 188.5 166.4 188.4 168.7 186.15 166.45 183.9 166.5 183.85 166.4 183.75 168.7 181.5 166.45 179.2 166.5 179.15 166.4 179.05 168.7 176.85 166.45 174.55 166.5 174.5 166.4 174.4 168.7 172.15 166.45 169.9 166.5 169.85 166.4 169.75 168.15 168.0 168.05 168.0 168.65 167.45 166.45 165.2 166.5 165.15 166.4 165.05 166.5 165.0 166.45 164.95 168.6 162.75 166.45 160.55 166.6 160.45 166.45 160.3 168.65 158.1 166.45 155.9 166.6 155.75 166.45 155.6 168.65 153.45 166.45 151.2 166.6 151.1 166.45 150.95 168.6 148.75 166.45 146.55 166.6 146.45 166.45 146.3 168.2 144.55 168.05 144.55 168.6 144.05 165.85 141.3 168.65 139.2 166.45 136.95 166.5 136.95 166.4 136.85 168.7 134.55 166.45 132.3 166.5 132.3 166.4 132.2 168.7 129.9 166.45 127.6 166.5 127.6 166.4 127.5 168.7 125.25 166.45 122.95 166.5 122.95 166.4 122.85 168.7 120.55 166.45 118.3 166.5 118.3 166.4 118.2 168.7 115.9 166.45 113.6 166.5 113.6 166.4 113.5 167.35 112.55 167.5 112.55 168.75 111.3 166.45 108.95 168.75 106.6 166.45 104.3 168.75 101.95 166.45 99.6 168.75 97.3 166.45 94.95 168.75 92.65 166.45 90.3 168.75 87.95 166.45 85.65 168.75 83.3 166.45 80.95 168.75 78.65 166.45 76.3 168.75 73.95 166.45 71.65 168.75 69.3 166.45 66.95 168.75 64.65 166.45 62.3 168.75 59.95 166.45 57.65 168.75 55.3 166.45 52.95 168.75 50.65 166.45 48.3 168.75 45.95 166.45 43.65 168.75 41.3 166.45 38.95 168.75 36.65 166.45 34.3 168.4 32.3 168.05 32.3 168.6 31.8 165.85 29.05 168.7 26.9 166.4 24.6 168.75 22.25 166.4 19.95 168.75 17.6 166.4 15.25 168.75 12.95 166.4 10.6" fill="#23668d" fill-rule="evenodd" stroke="none"/>
  </g>
</svg>
