<?xml version="1.0" encoding="UTF-8" standalone="no"?>
<svg xmlns:xlink="http://www.w3.org/1999/xlink" height="272.65px" width="347.55px" xmlns="http://www.w3.org/2000/svg">
  <g transform="matrix(1.0, 0.0, 0.0, 1.0, 179.75, 143.05)">
    <path d="M167.8 -8.85 L155.1 60.65 155.2 62.0 154.9 62.15 154.9 62.3 141.85 71.4 144.85 69.15 77.5 117.05 83.15 113.2 61.05 129.25 60.7 129.05 60.7 129.6 -33.1 67.5 -32.9 67.55 -73.3 39.4 -90.15 -21.15 -82.65 -25.15 -75.65 -35.0 -66.3 -43.8 24.8 -73.75 167.8 -8.85 M-160.05 -112.45 L-159.75 -112.2 -159.35 -112.45 -110.9 -135.25 -59.9 -143.05 -44.65 -74.75 -79.15 -43.75 -111.25 -29.8 -111.95 -30.2 -111.95 -29.8 -120.3 -35.35 -120.3 -35.8 -120.65 -36.05 -124.5 -59.1 -179.75 -88.0 -160.05 -112.45" fill="#0033cc" fill-rule="evenodd" stroke="none"/>
  </g>
</svg>
