<?xml version="1.0" encoding="UTF-8" standalone="no"?>
<svg xmlns:xlink="http://www.w3.org/1999/xlink" height="203.35px" width="243.5px" xmlns="http://www.w3.org/2000/svg">
  <g transform="matrix(1.0, 0.0, 0.0, 1.0, 121.75, 101.65)">
    <path d="M108.8 34.05 L15.0 101.35 -116.85 14.5 -121.75 -62.6 -21.25 -101.65 121.75 -36.8 Q115.45 -1.2 108.8 34.05" fill="#6c747c" fill-rule="evenodd" stroke="none"/>
    <path d="M108.8 34.4 L14.65 101.0 -79.15 39.6 -41.85 43.8 14.3 75.2 111.25 17.3 108.8 34.4" fill="#ffffff" fill-rule="evenodd" stroke="none"/>
    <path d="M-121.75 -62.95 L16.4 11.7 14.65 101.7 Q-50.9 58.1 -116.85 14.5 L-121.75 -62.95" fill="#404952" fill-rule="evenodd" stroke="none"/>
    <path d="M110.9 20.1 L14.65 77.3 -43.6 43.8 -43.6 39.95 14.65 72.4 111.6 14.5 110.9 20.1" fill="#336666" fill-rule="evenodd" stroke="none"/>
    <path d="M-79.15 39.25 L-41.85 43.45 14.3 74.85 Q14.65 87.75 14.65 100.65 L-79.15 39.25" fill="#bfbebe" fill-rule="evenodd" stroke="none"/>
    <path d="M-43.6 44.15 L-43.6 40.3 Q-14.3 56.35 14.65 72.4 L14.65 77.65 -43.6 44.15" fill="#192838" fill-rule="evenodd" stroke="none"/>
  </g>
</svg>
