<?xml version="1.0" encoding="UTF-8" standalone="no"?>
<svg xmlns:xlink="http://www.w3.org/1999/xlink" height="391.95px" width="219.6px" xmlns="http://www.w3.org/2000/svg">
  <g transform="matrix(1.0, 0.0, 0.0, 1.0, 57.4, 25.7)">
    <path d="M37.75 352.25 L23.7 354.6 -56.75 366.25 -57.4 310.6 -42.05 305.25 -33.4 317.25 -17.4 309.9 48.45 307.5 58.6 354.4 37.75 352.25 M104.55 58.95 L98.7 80.6 95.85 97.95 94.05 115.3 1.35 111.95 0.7 56.3 16.05 50.95 24.7 62.95 40.7 55.6 60.7 54.95 104.55 58.95 M11.35 -19.7 L24.05 -17.05 40.7 -25.7 162.2 1.15 53.35 28.3 31.35 31.65 21.35 22.95 0.85 29.45 0.7 -17.7 11.35 -19.7" fill="#ffffff" fill-opacity="0.12156863" fill-rule="evenodd" stroke="none"/>
  </g>
</svg>
