<?xml version="1.0" encoding="UTF-8" standalone="no"?>
<svg xmlns:xlink="http://www.w3.org/1999/xlink" height="401.4px" width="653.1px" xmlns="http://www.w3.org/2000/svg">
  <g transform="matrix(1.0, 0.0, 0.0, 1.0, -15.95, 31.5)">
    <path d="M482.6 219.45 L481.95 219.45 Q475.95 219.45 471.7 221.65 467.45 223.85 467.45 226.95 467.45 230.05 471.7 232.25 475.95 234.45 481.95 234.45 487.95 234.45 492.2 232.25 496.45 230.05 496.45 226.95 496.45 223.85 492.2 221.65 488.75 219.9 484.2 219.55 L482.95 219.45 482.6 219.45 482.95 219.45 484.2 219.55 482.6 219.45 M417.45 125.45 L340.95 84.95 225.45 129.95 319.95 170.95 417.45 125.45 M477.4 121.95 Q481.55 121.95 484.45 120.05 487.4 118.15 487.4 115.45 487.4 112.75 484.45 110.85 481.55 108.95 477.4 108.95 473.25 108.95 470.3 110.85 467.4 112.75 467.4 115.45 467.4 118.15 470.3 120.05 473.25 121.95 477.4 121.95 M335.45 52.95 L341.9 52.95 341.9 48.95 217.95 47.35 217.95 79.95 259.95 79.95 259.95 94.95 291.45 94.95 291.45 79.95 335.45 79.95 335.45 52.95 M556.25 132.35 Q563.9 129.3 563.9 124.95 563.9 120.6 556.25 117.5 548.65 114.45 537.9 114.45 527.15 114.45 519.5 117.5 511.9 120.6 511.9 124.95 511.9 129.3 519.5 132.35 527.15 135.45 537.9 135.45 548.65 135.45 556.25 132.35 M217.95 -31.5 L217.95 -30.55 669.05 -31.5 669.05 294.9 565.9 294.9 565.9 242.9 467.7 242.9 Q468.95 241.3 468.95 239.45 468.95 235.95 464.55 233.45 460.15 230.95 453.95 230.95 447.75 230.95 443.35 233.45 438.95 235.95 438.95 239.45 438.95 242.95 443.35 245.45 447.75 247.95 453.95 247.95 458.4 247.95 461.9 246.7 L461.9 294.9 318.9 294.9 318.9 305.15 Q316.05 303.45 311.95 303.45 307.8 303.45 304.85 305.2 301.95 306.95 301.95 309.45 301.95 311.95 304.85 313.7 307.8 315.45 311.95 315.45 316.05 315.45 318.9 313.75 L318.9 325.95 312.95 325.95 312.95 327.95 379.9 327.95 379.9 366.3 18.95 369.9 15.95 317.9 32.95 317.9 32.95 271.9 15.95 271.9 15.95 147.45 124.95 147.45 124.95 111.45 152.45 111.45 152.45 -31.5 217.95 -31.5 M227.75 321.1 Q237.45 316.3 237.45 309.45 237.45 302.6 227.75 297.75 218.1 292.95 204.45 292.95 190.8 292.95 181.1 297.75 171.45 302.6 171.45 309.45 171.45 316.3 181.1 321.1 190.8 325.95 204.45 325.95 218.1 325.95 227.75 321.1 M159.95 257.45 L118.45 213.45 38.45 249.45 77.95 276.45 159.95 257.45" fill="#000000" fill-opacity="0.101960786" fill-rule="evenodd" stroke="none"/>
    <path d="M482.6 219.45 L482.95 219.45 484.2 219.55" fill="none" stroke="#006633" stroke-linecap="round" stroke-linejoin="round" stroke-width="1.0"/>
  </g>
</svg>
