<?xml version="1.0" encoding="UTF-8" standalone="no"?>
<svg xmlns:xlink="http://www.w3.org/1999/xlink" height="364.85px" width="619.0px" xmlns="http://www.w3.org/2000/svg">
  <g transform="matrix(1.0, 0.0, 0.0, 1.0, -79.2, -0.5)">
    <path d="M202.2 0.75 L202.65 1.2 201.95 1.95 202.1 2.1 200.5 3.7 202.65 5.85 201.95 6.6 202.1 6.75 200.5 8.35 202.65 10.55 201.95 11.25 202.1 11.45 200.5 13.05 202.65 15.2 201.95 15.95 202.1 16.1 200.5 17.7 202.65 19.85 201.95 20.6 202.1 20.75 200.5 22.35 202.65 24.55 201.95 25.25 202.1 25.45 200.5 27.05 202.65 29.2 201.95 29.95 202.1 30.1 200.5 31.7 202.65 33.85 201.95 34.6 202.1 34.75 200.5 36.35 202.65 38.55 201.95 39.25 202.1 39.45 200.5 41.05 202.65 43.2 201.95 43.9 202.1 44.1 200.5 45.7 202.65 47.85 200.35 50.2 202.65 52.55 200.35 54.85 202.65 57.2 200.35 59.55 202.65 61.85 200.35 64.2 202.65 66.55 200.35 68.85 202.65 71.2 200.35 73.55 202.65 75.85 200.35 78.2 202.65 80.5 200.35 82.85 202.65 85.2 200.35 87.5 202.65 89.85 200.35 92.2 202.65 94.5 200.35 96.85 202.65 99.2 200.35 101.5 202.65 103.85 200.35 106.2 202.65 108.5 200.35 110.85 202.65 113.2 200.35 115.5 202.65 117.85 200.35 120.2 202.65 122.5 201.05 124.15 201.65 124.8 200.95 125.5 202.65 127.2 202.55 127.3 203.15 127.95 200.95 130.15 202.65 131.85 202.55 132.0 203.15 132.6 200.95 134.8 201.35 135.2 201.2 135.3 203.15 137.3 200.85 139.6 203.15 141.95 200.85 144.3 203.15 146.6 200.85 148.95 203.15 151.3 200.85 153.6 203.15 155.95 200.85 158.3 203.15 160.6 200.85 162.95 203.15 165.3 200.85 167.6 203.15 169.95 200.85 172.3 203.15 174.6 200.85 176.95 203.15 179.3 200.85 181.6 203.15 183.95 200.85 186.3 203.15 188.6 200.85 190.95 203.15 193.3 200.85 195.6 203.15 197.95 200.85 200.3 203.15 202.6 200.85 204.95 203.15 207.25 200.85 209.6 203.15 211.95 200.85 214.25 203.15 216.6 201.45 218.35 202.2 219.15 204.55 216.8 206.9 219.15 209.2 216.8 211.55 219.15 213.9 216.8 216.2 219.15 218.55 216.8 220.9 219.15 223.2 216.8 225.55 219.15 227.9 216.8 230.2 219.15 232.55 216.8 234.9 219.15 237.2 216.8 239.55 219.15 241.9 216.8 244.2 219.15 246.55 216.8 248.9 219.15 251.2 216.8 253.55 219.15 256.9 215.8 259.2 218.15 261.35 216.0 263.7 218.3 265.95 215.55 268.3 217.9 269.9 215.55 272.2 217.9 275.5 215.85 277.8 218.2 280.2 215.8 282.55 218.15 285.0 215.7 287.35 218.0 289.85 215.5 292.2 217.8 294.15 215.85 296.45 218.15 298.65 215.95 298.65 216.0 298.75 215.95 301.0 218.15 303.25 215.9 305.2 217.85 307.55 215.55 310.05 218.05 312.4 215.7 314.85 218.15 317.2 215.85 319.55 218.25 321.9 215.9 325.2 217.9 327.5 215.6 329.1 217.9 331.4 215.6 333.7 218.35 336.05 216.05 338.15 218.15 340.5 215.85 343.85 219.15 346.15 216.85 348.5 219.15 350.85 216.85 353.15 219.15 355.5 216.85 357.85 219.15 360.15 216.85 362.5 219.15 364.85 216.85 367.15 219.15 369.5 216.85 371.85 219.15 374.15 216.85 376.5 219.15 378.85 216.85 381.15 219.15 383.5 216.85 385.85 219.15 388.15 216.85 389.0 217.7 390.45 216.25 388.1 213.9 390.45 211.55 388.1 209.25 390.45 206.9 388.1 204.55 390.45 202.25 388.1 199.9 390.45 197.55 388.1 195.25 390.45 192.9 388.1 190.6 390.45 188.25 388.1 185.9 390.45 183.6 388.1 181.25 390.45 178.9 388.1 176.6 390.45 174.25 388.1 171.9 390.45 169.6 388.1 167.25 390.45 164.9 388.1 162.6 390.45 160.25 388.1 157.9 390.45 155.6 388.1 153.25 390.45 150.9 388.1 148.6 390.45 146.25 388.75 144.55 390.0 143.35 392.3 145.7 394.65 143.35 397.0 145.7 399.3 143.35 401.65 145.7 404.0 143.35 406.3 145.7 408.65 143.35 411.0 145.7 413.3 143.35 415.65 145.7 418.0 143.35 420.3 145.7 422.65 143.35 425.0 145.7 427.3 143.35 429.65 145.7 432.0 143.35 433.9 145.25 433.7 145.4 434.2 145.85 436.5 143.55 438.85 145.85 441.2 143.55 443.5 145.85 445.85 143.55 448.2 145.85 450.5 143.55 452.85 145.85 455.2 143.55 457.5 145.85 459.85 143.55 462.2 145.85 464.5 143.55 466.85 145.85 469.2 143.55 471.5 145.85 473.85 143.55 476.15 145.85 478.5 143.55 480.85 145.85 483.15 143.55 485.5 145.85 487.85 143.55 490.15 145.85 492.5 143.55 494.85 145.85 497.15 143.55 499.5 145.85 501.85 143.55 504.15 145.85 506.5 143.55 508.85 145.85 511.15 143.55 513.5 145.85 515.85 143.55 518.15 145.85 520.5 143.55 522.85 145.85 525.15 143.55 527.5 145.85 529.85 143.55 532.15 145.85 534.5 143.55 536.85 145.85 539.15 143.55 541.5 145.85 543.85 143.55 546.15 145.85 548.5 143.55 550.85 145.85 553.15 143.55 555.5 145.85 557.85 143.55 560.15 145.85 562.45 143.55 562.5 143.55 564.8 145.85 567.1 143.55 569.45 145.85 571.75 143.55 574.1 145.85 576.45 143.55 578.75 145.85 581.1 143.55 583.45 145.85 585.75 143.55 588.1 145.85 590.45 143.55 592.75 145.85 595.1 143.55 597.45 145.85 599.75 143.55 602.1 145.85 604.45 143.55 606.75 145.85 609.1 143.55 611.4 145.85 613.75 143.55 616.1 145.85 618.4 143.55 620.75 145.85 623.1 143.55 625.4 145.85 627.75 143.55 630.1 145.85 632.4 143.55 634.75 145.85 637.1 143.55 639.4 145.85 641.75 143.55 644.1 145.85 646.4 143.55 648.75 145.85 651.1 143.55 653.4 145.85 655.75 143.55 658.1 145.85 660.4 143.55 662.75 145.85 665.1 143.55 667.4 145.85 669.75 143.55 672.1 145.85 674.4 143.55 676.75 145.85 679.1 143.55 681.4 145.85 683.75 143.55 686.1 145.85 688.4 143.55 690.75 145.85 693.1 143.55 695.4 145.85 696.25 145.05 697.75 146.55 697.75 146.95 695.65 149.1 697.8 151.25 697.8 151.55 695.65 153.75 697.9 156.0 697.9 156.2 695.65 158.4 697.95 160.75 697.95 160.8 695.65 163.1 697.95 165.4 695.65 167.75 697.95 170.1 695.65 172.4 697.95 174.75 695.65 177.1 697.95 179.4 695.65 181.75 697.95 184.1 695.65 186.4 697.95 188.75 696.9 189.8 696.3 189.15 693.95 191.5 691.7 189.25 689.35 191.55 687.4 189.6 685.05 191.95 682.55 189.4 680.2 191.75 677.75 189.3 675.4 191.65 673.0 189.25 670.7 191.55 667.4 189.55 665.1 191.9 663.5 189.55 661.15 191.9 658.9 189.1 656.55 191.45 654.4 189.3 652.1 191.65 648.75 188.3 646.4 190.65 644.1 188.3 641.75 190.65 639.4 188.3 637.1 190.65 634.75 188.3 632.4 190.65 630.1 188.3 627.75 190.65 625.4 188.3 623.1 190.65 620.75 188.3 618.4 190.65 616.1 188.3 613.75 190.65 611.4 188.3 609.1 190.65 606.75 188.3 604.45 190.65 602.1 188.3 599.75 190.65 597.45 188.3 595.1 190.65 592.75 188.3 590.45 190.65 588.1 188.3 585.75 190.65 583.45 188.3 581.1 190.65 578.75 188.3 576.45 190.65 574.1 188.3 571.75 190.65 569.45 188.3 567.1 190.65 565.65 189.2 563.35 191.5 562.45 190.6 562.45 190.65 561.05 189.25 558.75 191.55 556.8 189.6 554.5 191.95 551.95 189.4 549.6 191.75 547.15 189.3 544.85 191.65 542.45 189.25 540.1 191.55 536.85 189.55 534.5 191.9 532.9 189.55 530.6 191.9 528.3 189.1 526.0 191.45 523.85 189.3 521.5 191.65 518.15 188.3 515.85 190.65 513.5 188.3 511.15 190.65 508.85 188.3 506.5 190.65 504.15 188.3 501.85 190.65 499.5 188.3 497.15 190.65 494.85 188.3 492.5 190.65 490.15 188.3 487.85 190.65 485.5 188.3 483.15 190.65 480.85 188.3 478.5 190.65 476.15 188.3 473.85 190.65 471.5 188.3 469.2 190.65 466.85 188.3 464.5 190.65 462.2 188.3 459.85 190.65 457.5 188.3 455.2 190.65 452.85 188.3 450.5 190.65 448.2 188.3 445.85 190.65 443.5 188.3 441.2 190.65 438.85 188.3 436.5 190.65 434.2 188.3 433.55 188.9 435.2 190.6 432.9 192.9 435.2 195.25 432.9 197.55 435.2 199.9 432.9 202.25 435.2 204.55 432.9 206.9 435.2 209.25 432.9 211.55 435.2 213.9 432.9 216.25 435.4 218.7 433.05 221.05 435.4 223.4 433.05 225.7 435.4 228.05 433.05 230.4 435.4 232.7 433.05 235.05 435.4 237.4 433.05 239.7 435.4 242.05 433.05 244.4 435.4 246.7 433.05 249.05 435.4 251.4 433.05 253.7 435.4 256.05 433.05 258.4 435.4 260.7 433.5 262.6 432.5 261.6 430.15 263.95 427.85 261.6 425.5 263.95 423.15 261.6 420.85 263.95 418.5 261.6 416.15 263.95 413.85 261.6 411.5 263.95 409.15 261.6 406.85 263.95 404.5 261.6 402.15 263.95 399.85 261.6 397.5 263.95 395.15 261.6 392.85 263.95 390.5 261.6 388.15 263.95 385.85 261.6 383.5 263.95 381.15 261.6 378.85 263.95 376.5 261.6 374.15 263.95 371.85 261.6 369.5 263.95 367.15 261.6 364.85 263.95 362.5 261.6 360.15 263.95 357.85 261.6 355.5 263.95 353.15 261.6 350.85 263.95 348.5 261.6 346.15 263.95 343.85 261.6 341.5 263.95 339.15 261.6 336.85 263.95 334.5 261.6 332.15 263.95 329.85 261.6 327.5 263.95 325.2 261.6 322.85 263.95 320.5 261.6 318.2 263.95 315.85 261.6 313.5 263.95 311.2 261.6 308.85 263.95 306.5 261.6 304.2 263.95 301.85 261.6 299.5 263.95 298.65 263.1 297.85 263.9 296.4 262.4 296.35 262.45 295.5 261.6 293.2 263.9 290.85 261.55 288.55 263.9 286.4 261.8 284.1 264.1 286.45 266.4 284.1 268.75 286.45 271.05 284.1 273.4 286.45 275.75 284.1 278.05 286.45 280.4 284.1 282.75 286.45 285.05 284.1 287.4 286.45 289.75 284.1 292.05 286.45 294.4 284.1 296.75 286.45 299.05 284.1 301.4 286.45 303.75 284.1 306.05 286.45 308.4 284.1 310.75 286.45 313.05 284.1 315.4 286.45 317.75 284.1 320.05 286.45 322.4 284.1 324.75 286.45 327.05 284.1 329.4 286.45 331.75 285.1 333.1 288.25 336.3 290.6 333.95 292.95 336.3 295.25 333.95 297.6 336.3 299.95 333.95 302.25 336.3 304.6 333.95 306.95 336.3 309.25 333.95 311.6 336.3 313.95 333.95 316.25 336.3 318.6 333.95 320.9 336.3 320.9 362.75 318.6 365.05 316.25 362.75 313.95 365.05 311.6 362.75 309.25 365.05 306.95 362.75 304.6 365.05 302.25 362.75 299.95 365.05 297.6 362.75 295.25 365.05 292.95 362.75 290.6 365.05 288.25 362.75 285.95 365.05 283.6 362.75 281.25 365.05 278.95 362.75 276.6 365.05 274.25 362.75 271.95 365.05 269.6 362.75 267.25 365.05 264.95 362.75 262.6 365.05 260.25 362.75 257.95 365.05 255.6 362.75 253.25 365.05 250.95 362.75 248.6 365.05 246.25 362.75 243.95 365.05 241.6 362.75 240.75 363.55 240.7 363.45 239.2 364.95 236.85 362.6 234.55 364.95 232.2 362.6 229.85 364.95 227.55 362.6 225.2 364.95 223.15 362.9 221.1 364.95 220.8 364.7 220.55 364.95 218.5 362.9 216.45 364.95 216.15 364.65 215.85 364.95 213.85 362.9 211.85 364.95 211.5 364.65 211.2 364.95 209.2 362.95 207.2 364.95 206.85 364.6 206.55 364.95 204.55 362.95 202.6 364.95 202.25 364.6 201.85 364.95 199.9 363.0 197.95 364.95 197.6 364.55 197.2 364.95 195.25 363.0 193.35 364.95 192.95 364.55 192.55 364.95 190.6 363.05 188.7 364.95 188.3 364.55 187.85 364.95 185.95 363.05 184.1 364.95 183.65 364.5 183.2 364.95 181.35 363.05 179.45 364.95 179.0 364.5 178.55 364.95 176.7 363.1 174.85 364.95 174.35 364.45 173.85 364.95 172.05 363.1 170.2 364.95 169.7 364.45 169.2 364.95 167.4 363.15 165.6 364.95 165.05 364.45 164.55 364.95 162.75 363.15 160.95 364.95 160.4 364.4 159.9 364.95 158.1 363.2 156.35 364.95 155.8 364.4 155.2 364.95 153.45 363.2 151.7 364.95 151.15 364.35 150.55 364.95 148.8 363.2 147.1 364.95 146.9 364.8 146.45 364.95 146.0 364.85 145.9 364.95 144.15 363.25 142.45 364.95 142.25 364.75 141.75 364.95 141.35 364.85 141.2 364.95 139.5 363.25 137.85 364.95 137.65 364.75 137.1 364.95 136.65 364.85 136.55 364.95 134.9 363.3 133.2 364.95 133.0 364.7 132.45 364.95 132.0 364.85 131.9 364.95 130.25 363.3 128.6 364.95 128.35 364.7 127.75 364.95 127.35 364.85 127.2 364.95 125.6 363.35 125.15 363.8 125.55 364.2 124.5 364.95 124.1 364.85 123.95 364.95 123.7 364.65 123.1 364.95 122.65 364.85 122.55 364.95 121.35 363.8 119.9 364.95 119.45 364.85 119.35 364.95 119.05 364.65 118.45 364.9 118.4 364.9 118.0 364.85 117.9 364.95 116.75 363.8 115.3 364.95 114.85 364.85 114.75 364.95 114.4 364.65 113.85 364.85 113.35 364.85 113.2 364.95 112.1 363.8 110.65 364.95 110.25 364.85 110.1 364.95 109.75 364.6 109.25 365.1 108.95 365.1 107.55 363.7 106.05 364.95 105.6 364.85 105.5 364.95 105.1 364.6 104.65 365.05 104.2 365.05 102.9 363.75 101.4 364.95 101.0 364.85 100.85 364.95 98.95 363.05 96.8 364.9 96.75 364.9 96.35 364.85 96.25 364.95 94.35 363.05 92.25 364.85 91.75 364.85 91.6 364.95 89.7 363.05 87.7 365.1 87.4 365.1 85.2 362.95 83.1 365.05 82.7 365.05 79.7 362.35 82.0 360.05 79.7 357.7 82.0 355.35 79.7 353.05 82.0 350.7 79.7 348.35 82.0 346.05 79.7 343.7 81.85 341.55 79.7 339.35 79.85 339.2 79.7 339.05 81.85 336.85 79.7 334.7 82.05 332.35 79.7 330.05 82.05 327.7 79.7 325.35 82.05 323.05 79.7 320.7 82.05 318.35 79.7 316.05 82.05 313.7 79.7 311.35 82.05 309.05 79.7 306.7 82.05 304.35 80.8 303.1 80.65 303.2 79.45 302.0 81.8 299.65 79.45 297.35 81.8 295.0 79.45 292.65 81.8 290.35 79.45 288.0 81.8 285.65 79.45 283.35 81.8 281.0 79.45 278.65 81.8 276.35 79.45 274.0 81.8 271.65 79.45 269.35 81.8 267.0 79.45 264.65 81.8 262.35 79.45 260.0 81.35 258.1 82.35 259.1 84.7 256.8 87.0 259.1 89.35 256.8 91.7 259.1 94.0 256.8 96.35 259.1 98.7 256.8 101.0 259.1 103.35 256.8 105.7 259.1 108.0 256.8 110.35 259.1 112.7 256.8 114.7 258.8 115.35 258.1 115.7 258.45 117.35 256.8 118.0 257.45 118.7 256.8 120.35 258.45 122.0 256.8 122.7 257.45 123.35 256.8 125.0 258.45 126.7 256.8 127.35 257.45 128.0 256.8 129.7 258.45 131.35 256.8 132.0 257.45 132.7 256.8 134.35 258.45 136.0 256.8 136.7 257.45 137.35 256.8 139.0 258.45 140.65 256.8 141.35 257.45 142.0 256.8 143.7 258.45 145.35 256.8 146.0 257.45 146.7 256.8 148.35 258.45 150.0 256.8 150.65 257.45 151.35 256.8 153.0 258.45 154.65 256.8 155.35 257.45 156.0 256.8 156.95 257.7 158.4 256.25 156.05 253.95 158.4 251.6 156.05 249.25 158.4 246.95 156.05 244.6 158.4 242.25 156.05 239.95 158.4 237.6 156.05 235.25 158.4 232.95 156.05 230.6 158.4 228.25 156.05 225.95 158.4 223.6 156.05 221.25 158.4 218.95 156.05 216.6 158.4 214.25 156.05 211.95 158.4 209.6 156.05 207.25 158.4 204.95 156.05 202.6 158.4 200.3 156.05 197.95 158.4 195.6 156.05 193.3 158.4 190.95 156.05 188.6 158.4 186.3 156.05 183.95 158.4 181.6 156.05 179.3 158.4 176.95 156.05 174.6 158.4 172.3 155.05 168.95 157.4 166.6 155.25 164.45 157.6 162.15 154.8 159.85 157.15 157.55 154.8 155.95 157.15 153.6 155.15 150.35 157.45 148.0 155.05 145.6 157.4 143.3 154.95 140.85 157.3 138.5 154.75 135.95 157.1 133.65 155.15 131.7 157.45 129.35 155.2 127.1 157.55 124.75 156.9 124.1 157.05 124.0 155.55 122.5 157.9 120.2 155.55 117.85 157.9 115.5 155.55 113.2 157.9 110.85 155.55 108.5 157.9 106.2 155.55 103.85 157.9 101.5 155.55 99.2 157.9 96.85 155.55 94.5 157.9 92.2 155.55 89.85 157.9 87.5 155.55 85.2 157.9 82.85 155.55 80.5 157.9 78.2 155.55 75.85 157.9 73.55 155.55 71.2 157.9 68.85 155.55 66.55 157.9 64.2 155.55 61.85 157.9 59.55 155.55 57.2 157.9 54.85 155.55 52.55 157.9 50.2 155.55 47.85 157.15 46.25 155.0 44.1 155.75 43.35 154.55 42.2 156.15 40.6 155.0 39.45 155.75 38.7 154.75 37.7 156.35 36.1 155.0 34.75 155.6 34.15 154.3 33.1 156.15 31.25 155.0 30.1 155.25 29.85 154.3 29.2 156.55 26.95 155.0 25.45 155.5 24.95 154.65 23.6 156.25 22.0 155.0 20.75 155.75 20.05 154.55 18.85 156.15 17.25 155.0 16.1 155.75 15.35 154.45 14.1 156.05 12.45 155.0 11.45 155.75 10.7 154.25 9.2 155.85 7.6 155.0 6.75 155.75 6.05 154.65 4.95 156.25 3.35 155.0 2.1 155.75 1.35 155.15 0.75 202.2 0.75" fill="#cb9d6b" fill-rule="evenodd" stroke="none"/>
    <path d="M155.15 0.75 L155.75 1.35 155.0 2.1 156.25 3.35 154.65 4.95 155.75 6.05 155.0 6.75 155.85 7.6 154.25 9.2 155.75 10.7 155.0 11.45 156.05 12.45 154.45 14.1 155.75 15.35 155.0 16.1 156.15 17.25 154.55 18.85 155.75 20.05 155.0 20.75 156.25 22.0 154.65 23.6 155.5 24.95 155.0 25.45 156.55 26.95 154.3 29.2 155.25 29.85 155.0 30.1 156.15 31.25 154.3 33.1 155.6 34.15 155.0 34.75 156.35 36.1 154.75 37.7 155.75 38.7 155.0 39.45 156.15 40.6 154.55 42.2 155.75 43.35 155.0 44.1 157.15 46.25 155.55 47.85 157.9 50.2 155.55 52.55 157.9 54.85 155.55 57.2 157.9 59.55 155.55 61.85 157.9 64.2 155.55 66.55 157.9 68.85 155.55 71.2 157.9 73.55 155.55 75.85 157.9 78.2 155.55 80.5 157.9 82.85 155.55 85.2 157.9 87.5 155.55 89.85 157.9 92.2 155.55 94.5 157.9 96.85 155.55 99.2 157.9 101.5 155.55 103.85 157.9 106.2 155.55 108.5 157.9 110.85 155.55 113.2 157.9 115.5 155.55 117.85 157.9 120.2 155.55 122.5 157.05 124.0 156.9 124.1 157.55 124.75 155.2 127.1 157.45 129.35 155.15 131.7 157.1 133.65 154.75 135.95 157.3 138.5 154.95 140.85 157.4 143.3 155.05 145.6 157.45 148.0 155.15 150.35 157.15 153.6 154.8 155.95 157.15 157.55 154.8 159.85 157.6 162.15 155.25 164.45 157.4 166.6 155.05 168.95 158.4 172.3 156.05 174.6 158.4 176.95 156.05 179.3 158.4 181.6 156.05 183.95 158.4 186.3 156.05 188.6 158.4 190.95 156.05 193.3 158.4 195.6 156.05 197.95 158.4 200.3 156.05 202.6 158.4 204.95 156.05 207.25 158.4 209.6 156.05 211.95 158.4 214.25 156.05 216.6 158.4 218.95 156.05 221.25 158.4 223.6 156.05 225.95 158.4 228.25 156.05 230.6 158.4 232.95 156.05 235.25 158.4 237.6 156.05 239.95 158.4 242.25 156.05 244.6 158.4 246.95 156.05 249.25 158.4 251.6 156.05 253.95 158.4 256.25 156.95 257.7 156.0 256.8 155.35 257.45 154.65 256.8 153.0 258.45 151.35 256.8 150.65 257.45 150.0 256.8 148.35 258.45 146.7 256.8 146.0 257.45 145.35 256.8 143.7 258.45 142.0 256.8 141.35 257.45 140.65 256.8 139.0 258.45 137.35 256.8 136.7 257.45 136.0 256.8 134.35 258.45 132.7 256.8 132.0 257.45 131.35 256.8 129.7 258.45 128.0 256.8 127.35 257.45 126.7 256.8 125.0 258.45 123.35 256.8 122.7 257.45 122.0 256.8 120.35 258.45 118.7 256.8 118.0 257.45 117.35 256.8 115.7 258.45 115.35 258.1 114.7 258.8 112.7 256.8 110.35 259.1 108.0 256.8 105.7 259.1 103.35 256.8 101.0 259.1 98.7 256.8 96.35 259.1 94.0 256.8 91.7 259.1 89.35 256.8 87.0 259.1 84.7 256.8 82.35 259.1 81.35 258.1 79.45 260.0 81.8 262.35 79.45 264.65 81.8 267.0 79.45 269.35 81.8 271.65 79.45 274.0 81.8 276.35 79.45 278.65 81.8 281.0 79.45 283.35 81.8 285.65 79.45 288.0 81.8 290.35 79.45 292.65 81.8 295.0 79.45 297.35 81.8 299.65 79.45 302.0 80.65 303.2 80.8 303.1 82.05 304.35 79.7 306.7 82.05 309.05 79.7 311.35 82.05 313.7 79.7 316.05 82.05 318.35 79.7 320.7 82.05 323.05 79.7 325.35 82.05 327.7 79.7 330.05 82.05 332.35 79.7 334.7 81.85 336.85 79.7 339.05 79.85 339.2 79.7 339.35 81.85 341.55 79.7 343.7 82.0 346.05 79.7 348.35 82.0 350.7 79.7 353.05 82.0 355.35 79.7 357.7 82.0 360.05 79.7 362.35 82.7 365.05 83.1 365.05 85.2 362.95 87.4 365.1 87.7 365.1 89.7 363.05 91.6 364.95 91.75 364.85 92.25 364.85 94.35 363.05 96.25 364.95 96.35 364.85 96.75 364.9 96.8 364.9 98.95 363.05 100.85 364.95 101.0 364.85 101.4 364.95 102.9 363.75 104.2 365.05 104.65 365.05 105.1 364.6 105.5 364.95 105.6 364.85 106.05 364.95 107.55 363.7 108.95 365.1 109.25 365.1 109.75 364.6 110.1 364.95 110.25 364.85 110.65 364.95 112.1 363.8 113.2 364.95 113.35 364.85 113.85 364.85 114.4 364.65 114.75 364.95 114.85 364.85 115.3 364.95 116.75 363.8 117.9 364.95 118.0 364.85 118.4 364.9 118.45 364.9 119.05 364.65 119.35 364.95 119.45 364.85 119.9 364.95 121.35 363.8 122.55 364.95 122.65 364.85 123.1 364.95 123.7 364.65 123.95 364.95 124.1 364.85 124.5 364.95 125.55 364.2 125.15 363.8 125.6 363.35 127.2 364.95 127.35 364.85 127.75 364.95 128.35 364.7 128.6 364.95 130.25 363.3 131.9 364.95 132.0 364.85 132.45 364.95 133.0 364.7 133.2 364.95 134.9 363.3 136.55 364.95 136.65 364.85 137.1 364.95 137.65 364.75 137.85 364.95 139.5 363.25 141.2 364.95 141.35 364.85 141.75 364.95 142.25 364.75 142.45 364.95 144.15 363.25 145.9 364.95 146.0 364.85 146.45 364.95 146.9 364.8 147.1 364.95 148.8 363.2 150.55 364.95 151.15 364.35 151.7 364.95 153.45 363.2 155.2 364.95 155.8 364.4 156.35 364.95 158.1 363.2 159.9 364.95 160.4 364.4 160.95 364.95 162.75 363.15 164.55 364.95 165.05 364.45 165.6 364.95 167.4 363.15 169.2 364.95 169.7 364.45 170.2 364.95 172.05 363.1 173.85 364.95 174.35 364.45 174.85 364.95 176.7 363.1 178.55 364.95 179.0 364.5 179.45 364.95 181.35 363.05 183.2 364.95 183.65 364.5 184.1 364.95 185.95 363.05 187.85 364.95 188.3 364.55 188.7 364.95 190.6 363.05 192.55 364.95 192.95 364.55 193.35 364.95 195.25 363.0 197.2 364.95 197.6 364.55 197.95 364.95 199.9 363.0 201.85 364.95 202.25 364.6 202.6 364.95 204.55 362.95 206.55 364.95 206.85 364.6 207.2 364.95 209.2 362.95 211.2 364.95 211.5 364.65 211.85 364.95 213.85 362.9 215.85 364.95 216.15 364.65 216.45 364.95 218.5 362.9 220.55 364.95 220.8 364.7 221.1 364.95 223.15 362.9 225.2 364.95 227.55 362.6 229.85 364.95 232.2 362.6 234.55 364.95 236.85 362.6 239.2 364.95 240.7 363.45 240.75 363.55 241.6 362.75 243.95 365.05 246.25 362.75 248.6 365.05 250.95 362.75 253.25 365.05 255.6 362.75 257.95 365.05 260.25 362.75 262.6 365.05 264.95 362.75 267.25 365.05 269.6 362.75 271.95 365.05 274.25 362.75 276.6 365.05 278.95 362.75 281.25 365.05 283.6 362.75 285.95 365.05 288.25 362.75 290.6 365.05 292.95 362.75 295.25 365.05 297.6 362.75 299.95 365.05 302.25 362.75 304.6 365.05 306.95 362.75 309.25 365.05 311.6 362.75 313.95 365.05 316.25 362.75 318.6 365.05 320.9 362.75 320.9 336.3 318.6 333.95 316.25 336.3 313.95 333.95 311.6 336.3 309.25 333.95 306.95 336.3 304.6 333.95 302.25 336.3 299.95 333.95 297.6 336.3 295.25 333.95 292.95 336.3 290.6 333.95 288.25 336.3 285.1 333.1 286.45 331.75 284.1 329.4 286.45 327.05 284.1 324.75 286.45 322.4 284.1 320.05 286.45 317.75 284.1 315.4 286.45 313.05 284.1 310.75 286.45 308.4 284.1 306.05 286.45 303.75 284.1 301.4 286.45 299.05 284.1 296.75 286.45 294.4 284.1 292.05 286.45 289.75 284.1 287.4 286.45 285.05 284.1 282.75 286.45 280.4 284.1 278.05 286.45 275.75 284.1 273.4 286.45 271.05 284.1 268.75 286.45 266.4 284.1 264.1 286.4 261.8 288.55 263.9 290.85 261.55 293.2 263.9 295.5 261.6 296.35 262.45 296.4 262.4 297.85 263.9 298.65 263.1 299.5 263.95 301.85 261.6 304.2 263.95 306.5 261.6 308.85 263.95 311.2 261.6 313.5 263.95 315.85 261.6 318.2 263.95 320.5 261.6 322.85 263.95 325.2 261.6 327.5 263.95 329.85 261.6 332.15 263.95 334.5 261.6 336.85 263.95 339.15 261.6 341.5 263.95 343.85 261.6 346.15 263.95 348.5 261.6 350.85 263.95 353.15 261.6 355.5 263.95 357.85 261.6 360.15 263.95 362.5 261.6 364.85 263.95 367.15 261.6 369.5 263.95 371.85 261.6 374.15 263.95 376.5 261.6 378.85 263.95 381.15 261.6 383.5 263.95 385.85 261.6 388.15 263.95 390.5 261.6 392.85 263.95 395.15 261.6 397.5 263.95 399.85 261.6 402.15 263.95 404.5 261.6 406.85 263.95 409.15 261.6 411.5 263.95 413.85 261.6 416.15 263.95 418.5 261.6 420.85 263.95 423.15 261.6 425.5 263.95 427.85 261.6 430.15 263.95 432.5 261.6 433.5 262.6 435.4 260.7 433.05 258.4 435.4 256.05 433.05 253.7 435.4 251.4 433.05 249.05 435.4 246.7 433.05 244.4 435.4 242.05 433.05 239.7 435.4 237.4 433.05 235.05 435.4 232.7 433.05 230.4 435.4 228.05 433.05 225.7 435.4 223.4 433.05 221.05 435.4 218.7 432.9 216.25 435.2 213.9 432.9 211.55 435.2 209.25 432.9 206.9 435.2 204.55 432.9 202.25 435.2 199.9 432.9 197.55 435.2 195.25 432.9 192.9 435.2 190.6 433.55 188.9 434.2 188.3 436.5 190.65 438.85 188.3 441.2 190.65 443.5 188.3 445.85 190.65 448.2 188.3 450.5 190.65 452.85 188.3 455.2 190.65 457.5 188.3 459.85 190.65 462.2 188.3 464.5 190.65 466.85 188.3 469.2 190.65 471.5 188.3 473.85 190.65 476.15 188.3 478.5 190.65 480.85 188.3 483.15 190.65 485.5 188.3 487.85 190.65 490.15 188.3 492.5 190.65 494.85 188.3 497.15 190.65 499.5 188.3 501.85 190.65 504.15 188.3 506.5 190.65 508.85 188.3 511.15 190.65 513.5 188.3 515.85 190.65 518.15 188.3 521.5 191.65 523.85 189.3 526.0 191.45 528.3 189.1 530.6 191.9 532.9 189.55 534.5 191.9 536.85 189.55 540.1 191.55 542.45 189.25 544.85 191.65 547.15 189.3 549.6 191.75 551.95 189.4 554.5 191.95 556.8 189.6 558.75 191.55 561.05 189.25 562.45 190.65 562.45 190.6 563.35 191.5 565.65 189.2 567.1 190.65 569.45 188.3 571.75 190.65 574.1 188.3 576.45 190.65 578.75 188.3 581.1 190.65 583.45 188.3 585.75 190.65 588.1 188.3 590.45 190.65 592.75 188.3 595.1 190.65 597.45 188.3 599.75 190.65 602.1 188.3 604.45 190.65 606.75 188.3 609.1 190.65 611.4 188.3 613.75 190.65 616.1 188.3 618.4 190.65 620.75 188.3 623.1 190.65 625.4 188.3 627.75 190.65 630.1 188.3 632.4 190.65 634.75 188.3 637.1 190.65 639.4 188.3 641.75 190.65 644.1 188.3 646.4 190.65 648.75 188.3 652.1 191.65 654.4 189.3 656.55 191.45 658.9 189.1 661.15 191.9 663.5 189.55 665.1 191.9 667.4 189.55 670.7 191.55 673.0 189.25 675.4 191.65 677.75 189.3 680.2 191.75 682.55 189.4 685.05 191.95 687.4 189.6 689.35 191.55 691.7 189.25 693.95 191.5 696.3 189.15 696.9 189.8 697.95 188.75 695.65 186.4 697.95 184.1 695.65 181.75 697.95 179.4 695.65 177.1 697.95 174.75 695.65 172.4 697.95 170.1 695.65 167.75 697.95 165.4 695.65 163.1 697.95 160.8 697.95 160.75 695.65 158.4 697.9 156.2 697.9 156.0 695.65 153.75 697.8 151.55 697.8 151.25 695.65 149.1 697.75 146.95 697.75 146.55 696.25 145.05 695.4 145.85 693.1 143.55 690.75 145.85 688.4 143.55 686.1 145.85 683.75 143.55 681.4 145.85 679.1 143.55 676.75 145.85 674.4 143.55 672.1 145.85 669.75 143.55 667.4 145.85 665.1 143.55 662.75 145.85 660.4 143.55 658.1 145.85 655.75 143.55 653.4 145.85 651.1 143.55 648.75 145.85 646.4 143.55 644.1 145.85 641.75 143.55 639.4 145.85 637.1 143.55 634.75 145.85 632.4 143.55 630.1 145.85 627.75 143.55 625.4 145.85 623.1 143.55 620.75 145.85 618.4 143.55 616.1 145.85 613.75 143.55 611.4 145.85 609.1 143.55 606.75 145.85 604.45 143.55 602.1 145.85 599.75 143.55 597.45 145.85 595.1 143.55 592.75 145.85 590.45 143.55 588.1 145.85 585.75 143.55 583.45 145.85 581.1 143.55 578.75 145.85 576.45 143.55 574.1 145.85 571.75 143.55 569.45 145.85 567.1 143.55 564.8 145.85 562.5 143.55 562.45 143.55 560.15 145.85 557.85 143.55 555.5 145.85 553.15 143.55 550.85 145.85 548.5 143.55 546.15 145.85 543.85 143.55 541.5 145.85 539.15 143.55 536.85 145.85 534.5 143.55 532.15 145.85 529.85 143.55 527.5 145.85 525.15 143.55 522.85 145.85 520.5 143.55 518.15 145.85 515.85 143.55 513.5 145.85 511.15 143.55 508.85 145.85 506.5 143.55 504.15 145.85 501.85 143.55 499.5 145.85 497.15 143.55 494.85 145.85 492.5 143.55 490.15 145.85 487.85 143.55 485.5 145.85 483.15 143.55 480.85 145.85 478.5 143.55 476.15 145.85 473.85 143.55 471.5 145.85 469.2 143.55 466.85 145.85 464.5 143.55 462.2 145.85 459.85 143.55 457.5 145.85 455.2 143.55 452.85 145.85 450.5 143.55 448.2 145.85 445.85 143.55 443.5 145.85 441.2 143.55 438.85 145.85 436.5 143.55 434.2 145.85 433.7 145.4 433.9 145.25 432.0 143.35 429.65 145.7 427.3 143.35 425.0 145.7 422.65 143.35 420.3 145.7 418.0 143.35 415.65 145.7 413.3 143.35 411.0 145.7 408.65 143.35 406.3 145.7 404.0 143.35 401.65 145.7 399.3 143.35 397.0 145.7 394.65 143.35 392.3 145.7 390.0 143.35 388.75 144.55 390.45 146.25 388.1 148.6 390.45 150.9 388.1 153.25 390.45 155.6 388.1 157.9 390.45 160.25 388.1 162.6 390.45 164.9 388.1 167.25 390.45 169.6 388.1 171.9 390.45 174.25 388.1 176.6 390.45 178.9 388.1 181.25 390.45 183.6 388.1 185.9 390.45 188.25 388.1 190.6 390.45 192.9 388.1 195.25 390.45 197.55 388.1 199.9 390.45 202.25 388.1 204.55 390.45 206.9 388.1 209.25 390.45 211.55 388.1 213.9 390.45 216.25 389.0 217.7 388.15 216.85 385.85 219.15 383.5 216.85 381.15 219.15 378.85 216.85 376.5 219.15 374.15 216.85 371.85 219.15 369.5 216.85 367.15 219.15 364.85 216.85 362.5 219.15 360.15 216.85 357.85 219.15 355.5 216.85 353.15 219.15 350.85 216.85 348.5 219.15 346.15 216.85 343.85 219.15 340.5 215.85 338.15 218.15 336.05 216.05 333.7 218.35 331.4 215.6 329.1 217.9 327.5 215.6 325.2 217.9 321.9 215.9 319.55 218.25 317.2 215.85 314.85 218.15 312.4 215.7 310.05 218.05 307.55 215.55 305.2 217.85 303.25 215.9 301.0 218.15 298.75 215.95 298.65 216.0 298.65 215.95 296.45 218.15 294.15 215.85 292.2 217.8 289.85 215.5 287.35 218.0 285.0 215.7 282.55 218.15 280.2 215.8 277.8 218.2 275.5 215.85 272.2 217.9 269.9 215.55 268.3 217.9 265.95 215.55 263.7 218.3 261.35 216.0 259.2 218.15 256.9 215.8 253.55 219.15 251.2 216.8 248.9 219.15 246.55 216.8 244.2 219.15 241.9 216.8 239.55 219.15 237.2 216.8 234.9 219.15 232.55 216.8 230.2 219.15 227.9 216.8 225.55 219.15 223.2 216.8 220.9 219.15 218.55 216.8 216.2 219.15 213.9 216.8 211.55 219.15 209.2 216.8 206.9 219.15 204.55 216.8 202.2 219.15 201.45 218.35 203.15 216.6 200.85 214.25 203.15 211.95 200.85 209.6 203.15 207.25 200.85 204.95 203.15 202.6 200.85 200.3 203.15 197.95 200.85 195.6 203.15 193.3 200.85 190.95 203.15 188.6 200.85 186.3 203.15 183.95 200.85 181.6 203.15 179.3 200.85 176.95 203.15 174.6 200.85 172.3 203.15 169.95 200.85 167.6 203.15 165.3 200.85 162.95 203.15 160.6 200.85 158.3 203.15 155.95 200.85 153.6 203.15 151.3 200.85 148.95 203.15 146.6 200.85 144.3 203.15 141.95 200.85 139.6 203.15 137.3 201.2 135.3 201.35 135.2 200.95 134.8 203.15 132.6 202.55 132.0 202.65 131.85 200.95 130.15 203.15 127.95 202.55 127.3 202.65 127.2 200.95 125.5 201.65 124.8 201.05 124.15 202.65 122.5 200.35 120.2 202.65 117.85 200.35 115.5 202.65 113.2 200.35 110.85 202.65 108.5 200.35 106.2 202.65 103.85 200.35 101.5 202.65 99.2 200.35 96.85 202.65 94.5 200.35 92.2 202.65 89.85 200.35 87.5 202.65 85.2 200.35 82.85 202.65 80.5 200.35 78.2 202.65 75.85 200.35 73.55 202.65 71.2 200.35 68.85 202.65 66.55 200.35 64.2 202.65 61.85 200.35 59.55 202.65 57.2 200.35 54.85 202.65 52.55 200.35 50.2 202.65 47.85 200.5 45.7 202.1 44.1 201.95 43.9 202.65 43.2 200.5 41.05 202.1 39.45 201.95 39.25 202.65 38.55 200.5 36.35 202.1 34.75 201.95 34.6 202.65 33.85 200.5 31.7 202.1 30.1 201.95 29.95 202.65 29.2 200.5 27.05 202.1 25.45 201.95 25.25 202.65 24.55 200.5 22.35 202.1 20.75 201.95 20.6 202.65 19.85 200.5 17.7 202.1 16.1 201.95 15.95 202.65 15.2 200.5 13.05 202.1 11.45 201.95 11.25 202.65 10.55 200.5 8.35 202.1 6.75 201.95 6.6 202.65 5.85 200.5 3.7 202.1 2.1 201.95 1.95 202.65 1.2 202.2 0.75" fill="none" stroke="#8a634a" stroke-linecap="round" stroke-linejoin="round" stroke-width="0.5"/>
  </g>
</svg>
