<?xml version="1.0" encoding="UTF-8" standalone="no"?>
<svg xmlns:xlink="http://www.w3.org/1999/xlink" height="156.2px" width="281.85px" xmlns="http://www.w3.org/2000/svg">
  <g transform="matrix(1.0, 0.0, 0.0, 1.0, -318.65, -244.2)">
    <path d="M600.5 400.0 L321.15 400.0 321.15 298.0 600.5 298.0 600.5 400.0" fill="#2b7eaf" fill-rule="evenodd" stroke="none"/>
    <path d="M563.3 250.95 L563.3 400.3 448.05 400.3 448.05 250.95 563.3 250.95" fill="#2b7eaf" fill-rule="evenodd" stroke="none"/>
    <path d="M558.0 247.1 L560.9 244.2 563.3 247.35 563.3 254.0 446.1 254.0 446.0 247.1 448.35 244.8 450.65 247.1 453.0 244.8 455.35 247.1 457.65 244.8 460.0 247.1 462.35 244.8 464.65 247.1 467.0 244.8 469.35 247.1 471.65 244.8 474.0 247.1 476.35 244.8 478.65 247.1 481.0 244.8 483.35 247.1 485.65 244.8 488.0 247.1 490.35 244.8 492.65 247.1 495.0 244.8 497.35 247.1 499.65 244.8 502.0 247.1 504.35 244.8 506.65 247.1 509.0 244.8 511.3 247.1 513.65 244.8 516.0 247.1 518.3 244.8 520.65 247.1 523.0 244.8 525.3 247.1 527.65 244.8 530.0 247.1 532.3 244.8 534.65 247.1 537.0 244.8 539.3 247.1 541.65 244.8 544.0 247.1 546.3 244.8 548.65 247.1 551.0 244.8 553.3 247.1 555.65 244.8 558.0 247.1" fill="#23668d" fill-rule="evenodd" stroke="none"/>
    <path d="M442.85 248.75 L446.0 246.35 452.65 246.35 452.65 298.5 445.9 298.5 443.45 296.0 445.75 293.65 443.45 291.35 445.75 289.0 443.45 286.65 445.75 284.35 443.45 282.0 445.75 279.65 443.45 277.35 445.75 275.0 443.45 272.65 445.75 270.35 443.45 268.0 445.75 265.65 443.45 263.35 445.75 261.0 443.45 258.65 445.75 256.35 443.45 254.0 445.75 251.65 442.85 248.75" fill="#23668d" fill-rule="evenodd" stroke="none"/>
    <path d="M557.45 247.3 L564.35 247.3 566.65 249.65 564.35 252.0 566.65 254.3 564.35 256.65 566.65 259.0 564.35 261.3 566.65 263.65 564.35 266.0 566.65 268.3 564.35 270.65 566.65 273.0 564.35 275.3 566.65 277.65 564.35 280.0 566.65 282.3 564.35 284.65 566.65 287.0 564.35 289.3 566.65 291.65 564.35 294.0 566.65 296.3 564.35 298.65 567.3 301.6 564.1 303.95 557.45 303.95 557.45 247.3" fill="#23668d" fill-rule="evenodd" stroke="none"/>
    <path d="M450.55 294.75 L452.5 296.6 452.5 303.95 339.05 303.95 339.15 297.1 341.65 294.75 344.15 297.1 346.6 294.75 349.1 297.1 351.6 294.75 354.05 297.1 356.5 294.75 359.0 297.1 361.45 294.75 363.95 297.1 366.45 294.75 368.9 297.1 371.35 294.75 373.85 297.1 376.3 294.75 378.8 297.1 381.3 294.75 383.75 297.1 386.2 294.75 388.7 297.1 391.15 294.75 393.65 297.1 396.15 294.75 398.6 297.1 401.05 294.75 403.55 297.1 406.0 294.75 408.5 297.1 410.95 294.75 413.45 297.1 415.9 294.75 418.35 297.1 420.85 294.75 423.35 297.1 425.8 294.75 428.3 297.1 430.75 294.75 433.2 297.1 435.7 294.75 438.2 297.1 440.65 294.75 443.15 297.1 445.6 294.75 448.05 297.1 450.55 294.75" fill="#23668d" fill-rule="evenodd" stroke="none"/>
    <path d="M332.65 294.75 L334.85 297.1 337.05 294.75 339.3 297.1 339.5 303.95 321.75 303.95 321.6 297.1 323.8 294.75 326.0 297.1 328.25 294.75 330.45 297.1 332.65 294.75" fill="#23668d" fill-rule="evenodd" stroke="none"/>
    <path d="M321.1 308.95 L318.75 306.6 321.1 304.3 318.75 301.95 321.1 299.6 318.75 297.25 327.95 297.15 327.95 325.3 328.0 325.3 328.0 400.15 318.75 400.4 321.1 398.05 318.75 395.7 321.1 393.35 318.75 391.0 321.1 388.7 318.75 386.35 321.1 384.0 318.75 381.65 321.1 379.3 318.75 376.95 321.1 374.6 318.75 372.25 321.1 369.9 318.75 367.55 321.1 365.25 318.75 362.9 321.1 360.55 318.75 358.2 321.1 355.85 318.75 353.5 321.1 351.15 318.75 348.8 321.1 346.5 318.75 344.15 321.1 341.8 318.75 339.45 321.1 337.1 318.75 334.75 321.1 332.4 318.75 330.05 321.1 327.7 318.75 325.4 321.1 323.05 318.75 320.7 321.1 318.35 318.75 316.0 321.1 313.65 318.75 311.3 321.1 308.95" fill="#23668d" fill-rule="evenodd" stroke="none"/>
    <path d="M334.75 368.3 L333.0 369.15 330.75 367.25 329.3 368.3 329.3 360.35 334.75 360.35 334.75 368.3" fill="#5a3d1b" fill-rule="evenodd" stroke="none"/>
    <path d="M373.9 368.3 L372.15 367.9 370.45 368.5 368.7 368.05 368.45 360.35 373.9 360.35 373.9 368.3" fill="#5a3d1b" fill-rule="evenodd" stroke="none"/>
    <path d="M415.8 368.95 L414.05 368.6 411.8 368.95 410.35 368.3 410.35 360.35 415.8 360.35 415.8 368.95" fill="#5a3d1b" fill-rule="evenodd" stroke="none"/>
    <path d="M407.2 341.05 L407.2 333.1 412.65 333.1 412.65 341.05 411.2 340.0 408.95 341.9 407.2 341.05" fill="#5a3d1b" fill-rule="evenodd" stroke="none"/>
    <path d="M369.1 341.05 L369.1 333.1 374.55 333.1 374.3 340.8 372.55 341.25 370.85 340.65 369.1 341.05" fill="#5a3d1b" fill-rule="evenodd" stroke="none"/>
    <path d="M329.55 341.7 L329.55 333.1 335.0 333.1 335.0 341.05 333.55 341.7 331.3 341.35 329.55 341.7" fill="#5a3d1b" fill-rule="evenodd" stroke="none"/>
    <path d="M421.65 338.7 L318.65 338.7 318.65 333.7 421.65 333.7 421.65 338.7" fill="#5a3d1b" fill-rule="evenodd" stroke="none"/>
    <path d="M421.65 361.7 L318.65 361.7 318.65 356.7 421.65 356.7 421.65 361.7" fill="#5a3d1b" fill-rule="evenodd" stroke="none"/>
    <path d="M324.8 365.85 L320.2 365.85 320.2 329.0 324.8 329.0 324.8 365.85" fill="#5a3d1b" fill-rule="evenodd" stroke="none"/>
    <path d="M324.4 365.55 L319.8 365.55 319.8 328.7 324.4 328.7 324.4 365.55" fill="#905b1b" fill-rule="evenodd" stroke="none"/>
    <path d="M330.45 365.85 L325.85 365.85 325.85 329.0 330.45 329.0 330.45 365.85" fill="#5a3d1b" fill-rule="evenodd" stroke="none"/>
    <path d="M330.05 365.55 L325.45 365.55 325.45 328.7 330.05 328.7 330.05 365.55" fill="#905b1b" fill-rule="evenodd" stroke="none"/>
    <path d="M336.1 365.85 L331.5 365.85 331.5 329.0 336.1 329.0 336.1 365.85" fill="#5a3d1b" fill-rule="evenodd" stroke="none"/>
    <path d="M335.7 365.55 L331.1 365.55 331.1 328.7 335.7 328.7 335.7 365.55" fill="#905b1b" fill-rule="evenodd" stroke="none"/>
    <path d="M341.75 365.85 L337.15 365.85 337.15 329.0 341.75 329.0 341.75 365.85" fill="#5a3d1b" fill-rule="evenodd" stroke="none"/>
    <path d="M341.35 365.55 L336.75 365.55 336.75 328.7 341.35 328.7 341.35 365.55" fill="#905b1b" fill-rule="evenodd" stroke="none"/>
    <path d="M347.4 365.85 L342.8 365.85 342.8 329.0 347.4 329.0 347.4 365.85" fill="#5a3d1b" fill-rule="evenodd" stroke="none"/>
    <path d="M347.0 365.55 L342.4 365.55 342.4 328.7 347.0 328.7 347.0 365.55" fill="#905b1b" fill-rule="evenodd" stroke="none"/>
    <path d="M353.05 365.85 L348.45 365.85 348.45 329.0 353.05 329.0 353.05 365.85" fill="#5a3d1b" fill-rule="evenodd" stroke="none"/>
    <path d="M352.65 365.55 L348.05 365.55 348.05 328.7 352.65 328.7 352.65 365.55" fill="#905b1b" fill-rule="evenodd" stroke="none"/>
    <path d="M358.75 365.85 L354.15 365.85 354.15 329.0 358.75 329.0 358.75 365.85" fill="#5a3d1b" fill-rule="evenodd" stroke="none"/>
    <path d="M358.3 365.55 L353.7 365.55 353.7 328.7 358.3 328.7 358.3 365.55" fill="#905b1b" fill-rule="evenodd" stroke="none"/>
    <path d="M364.4 365.85 L359.8 365.85 359.8 329.0 364.4 329.0 364.4 365.85" fill="#5a3d1b" fill-rule="evenodd" stroke="none"/>
    <path d="M363.95 365.55 L359.35 365.55 359.35 328.7 363.95 328.7 363.95 365.55" fill="#905b1b" fill-rule="evenodd" stroke="none"/>
    <path d="M370.05 365.85 L365.45 365.85 365.45 329.0 370.05 329.0 370.05 365.85" fill="#5a3d1b" fill-rule="evenodd" stroke="none"/>
    <path d="M369.6 365.55 L365.0 365.55 365.0 328.7 369.6 328.7 369.6 365.55" fill="#905b1b" fill-rule="evenodd" stroke="none"/>
    <path d="M375.7 365.85 L371.1 365.85 371.1 329.0 375.7 329.0 375.7 365.85" fill="#5a3d1b" fill-rule="evenodd" stroke="none"/>
    <path d="M375.25 365.55 L370.65 365.55 370.65 328.7 375.25 328.7 375.25 365.55" fill="#905b1b" fill-rule="evenodd" stroke="none"/>
    <path d="M381.35 365.85 L376.75 365.85 376.75 329.0 381.35 329.0 381.35 365.85" fill="#5a3d1b" fill-rule="evenodd" stroke="none"/>
    <path d="M380.9 365.55 L376.3 365.55 376.3 328.7 380.9 328.7 380.9 365.55" fill="#905b1b" fill-rule="evenodd" stroke="none"/>
    <path d="M387.0 365.85 L382.4 365.85 382.4 329.0 387.0 329.0 387.0 365.85" fill="#5a3d1b" fill-rule="evenodd" stroke="none"/>
    <path d="M386.55 365.55 L381.95 365.55 381.95 328.7 386.55 328.7 386.55 365.55" fill="#905b1b" fill-rule="evenodd" stroke="none"/>
    <path d="M392.65 365.85 L388.05 365.85 388.05 329.0 392.65 329.0 392.65 365.85" fill="#5a3d1b" fill-rule="evenodd" stroke="none"/>
    <path d="M392.2 365.55 L387.6 365.55 387.6 328.7 392.2 328.7 392.2 365.55" fill="#905b1b" fill-rule="evenodd" stroke="none"/>
    <path d="M398.3 365.85 L393.7 365.85 393.7 329.0 398.3 329.0 398.3 365.85" fill="#5a3d1b" fill-rule="evenodd" stroke="none"/>
    <path d="M397.85 365.55 L393.25 365.55 393.25 328.7 397.85 328.7 397.85 365.55" fill="#905b1b" fill-rule="evenodd" stroke="none"/>
    <path d="M403.95 365.85 L399.35 365.85 399.35 329.0 403.95 329.0 403.95 365.85" fill="#5a3d1b" fill-rule="evenodd" stroke="none"/>
    <path d="M403.55 365.55 L398.95 365.55 398.95 328.7 403.55 328.7 403.55 365.55" fill="#905b1b" fill-rule="evenodd" stroke="none"/>
    <path d="M409.6 365.85 L405.0 365.85 405.0 329.0 409.6 329.0 409.6 365.85" fill="#5a3d1b" fill-rule="evenodd" stroke="none"/>
    <path d="M409.2 365.55 L404.6 365.55 404.6 328.7 409.2 328.7 409.2 365.55" fill="#905b1b" fill-rule="evenodd" stroke="none"/>
    <path d="M415.25 365.85 L410.65 365.85 410.65 329.0 415.25 329.0 415.25 365.85" fill="#5a3d1b" fill-rule="evenodd" stroke="none"/>
    <path d="M414.85 365.55 L410.25 365.55 410.25 328.7 414.85 328.7 414.85 365.55" fill="#905b1b" fill-rule="evenodd" stroke="none"/>
    <path d="M420.9 365.85 L416.3 365.85 416.3 329.0 420.9 329.0 420.9 365.85" fill="#5a3d1b" fill-rule="evenodd" stroke="none"/>
    <path d="M420.5 365.55 L415.9 365.55 415.9 328.7 420.5 328.7 420.5 365.55" fill="#905b1b" fill-rule="evenodd" stroke="none"/>
  </g>
</svg>
