<?xml version="1.0" encoding="UTF-8" standalone="no"?>
<svg xmlns:xlink="http://www.w3.org/1999/xlink" height="353.0px" width="318.8px" xmlns="http://www.w3.org/2000/svg">
  <g transform="matrix(1.0, 0.0, 0.0, 1.0, 0.0, -47.8)">
    <path d="M14.85 106.65 L5.25 130.55 0.5 131.3 1.0 104.3 14.85 106.65 M0.5 47.8 L16.0 48.3 9.25 81.05 0.65 76.2 0.5 47.8 M14.15 161.95 L4.0 211.8 1.0 211.8 1.0 167.3 8.5 161.3 14.15 161.95 M0.5 226.8 L13.5 230.8 6.85 250.65 0.0 247.8 0.5 226.8 M31.5 289.3 L10.15 328.65 0.5 329.3 0.5 284.3 15.0 289.8 31.5 289.3 M57.0 387.8 L62.85 373.8 94.85 388.45 91.0 394.3 83.5 399.8 57.0 400.8 57.0 387.8 M27.5 351.3 L35.5 383.3 27.0 388.8 1.0 394.8 0.5 367.8 14.0 355.3 27.5 351.3 M144.8 375.15 L185.95 385.8 185.45 390.8 177.45 400.3 144.95 400.3 147.45 387.3 144.8 375.15 M264.5 388.85 L261.0 399.85 212.5 399.85 214.85 374.5 264.5 388.85 M318.8 400.4 L299.0 399.35 294.15 376.5 318.8 400.4" fill="#999999" fill-opacity="0.28235295" fill-rule="evenodd" stroke="none"/>
  </g>
</svg>
