<?xml version="1.0" encoding="UTF-8" standalone="no"?>
<svg xmlns:xlink="http://www.w3.org/1999/xlink" height="46.6px" width="31.4px" xmlns="http://www.w3.org/2000/svg">
  <g transform="matrix(1.0, 0.0, 0.0, 1.0, 15.7, 23.3)">
    <path d="M0.1 -12.3 L15.65 -19.2 15.65 16.3 0.1 23.2 0.1 -12.3" fill="#f7c7ae" fill-rule="evenodd" stroke="none"/>
    <path d="M0.1 10.55 L5.65 8.1 Q6.35 10.4 7.9 9.85 9.45 9.0 10.15 6.1 L15.65 3.65 15.65 16.05 15.4 16.15 Q14.7 13.25 12.35 14.1 9.95 15.4 9.25 18.85 L6.5 20.1 Q5.85 17.2 3.45 18.05 1.05 19.35 0.4 22.8 L0.1 22.95 0.1 10.55" fill="#ebaa29" fill-rule="evenodd" stroke="none"/>
    <path d="M15.7 10.55 L0.1 17.4 0.1 10.8 5.6 8.4 Q6.3 10.65 7.9 10.1 9.5 9.25 10.2 6.35 L15.7 3.9 15.7 10.55" fill="#f7de58" fill-rule="evenodd" stroke="none"/>
    <path d="M15.7 10.55 L15.7 16.3 15.65 16.3 Q14.95 13.45 12.45 14.3 10.0 15.6 9.3 19.15 L6.5 20.4 Q5.8 17.5 3.35 18.35 0.85 19.7 0.15 23.2 L0.1 23.2 0.1 17.45 15.7 10.55" fill="#19519d" fill-rule="evenodd" stroke="none"/>
    <path d="M3.3 18.4 Q5.75 17.5 6.5 20.4 L0.15 23.2 Q0.85 19.7 3.3 18.4" fill="#000000" fill-rule="evenodd" stroke="none"/>
    <path d="M12.45 14.35 Q14.9 13.45 15.65 16.35 L9.3 19.15 Q10.0 15.65 12.45 14.35" fill="#000000" fill-rule="evenodd" stroke="none"/>
    <path d="M0.1 -4.25 L0.05 -12.4 15.65 -19.3 15.65 -11.15 Q9.25 -2.8 4.75 -3.2 0.3 -3.55 0.1 -4.25" fill="#891009" fill-rule="evenodd" stroke="none"/>
    <path d="M0.1 -4.45 L0.05 -12.35 15.65 -19.2 15.65 -11.35 Q9.15 -3.55 4.7 -3.7 0.3 -3.8 0.1 -4.45" fill="#e23c19" fill-rule="evenodd" stroke="none"/>
    <path d="M8.4 -15.55 Q6.9 -14.3 5.65 -11.45 4.05 -5.75 7.35 -7.9 8.2 -8.7 9.0 -10.4 9.8 -12.05 9.45 -12.5 8.2 -13.0 7.4 -11.3 L6.55 -9.3 Q6.2 -9.95 8.0 -12.8 11.2 -15.3 9.1 -9.8 6.75 -5.8 6.0 -6.15 3.4 -5.85 5.65 -12.3 9.25 -17.6 10.1 -16.7 L8.4 -15.55" fill="#891009" fill-rule="evenodd" stroke="none"/>
    <path d="M2.25 13.85 L1.8 14.85 1.4 14.25 1.8 13.25 2.25 13.85" fill="#ecb328" fill-rule="evenodd" stroke="none"/>
    <path d="M3.15 11.5 L2.7 12.45 2.3 11.85 2.7 10.85 3.15 11.5" fill="#ecb328" fill-rule="evenodd" stroke="none"/>
    <path d="M5.2 13.65 L4.75 14.65 4.35 14.05 4.75 13.05 5.2 13.65" fill="#ecb328" fill-rule="evenodd" stroke="none"/>
    <path d="M7.0 11.6 L6.55 12.6 6.15 12.0 6.55 11.0 7.0 11.6" fill="#ecb328" fill-rule="evenodd" stroke="none"/>
    <path d="M5.2 10.7 L4.75 11.65 4.35 11.05 4.75 10.05 5.2 10.7" fill="#ecb328" fill-rule="evenodd" stroke="none"/>
    <path d="M9.9 11.5 L9.45 12.45 9.05 11.85 9.45 10.85 9.9 11.5" fill="#ecb328" fill-rule="evenodd" stroke="none"/>
    <path d="M11.05 8.6 L10.6 9.55 10.2 8.95 10.6 7.95 11.05 8.6" fill="#ecb328" fill-rule="evenodd" stroke="none"/>
    <path d="M11.9 9.45 L11.45 10.4 11.05 9.8 11.45 8.8 11.9 9.45" fill="#ecb328" fill-rule="evenodd" stroke="none"/>
    <path d="M13.15 9.6 L12.7 10.55 12.3 9.95 12.7 8.95 13.15 9.6" fill="#ecb328" fill-rule="evenodd" stroke="none"/>
    <path d="M13.05 7.2 L12.6 8.15 12.2 7.55 12.6 6.55 13.05 7.2" fill="#ecb328" fill-rule="evenodd" stroke="none"/>
    <path d="M14.65 7.45 L14.2 8.4 13.8 7.8 14.2 6.8 14.65 7.45" fill="#ecb328" fill-rule="evenodd" stroke="none"/>
    <path d="M1.1 15.7 L0.65 16.65 0.25 16.05 0.65 15.05 1.1 15.7" fill="#ecb328" fill-rule="evenodd" stroke="none"/>
    <path d="M1.7 12.05 L1.25 13.0 0.85 12.4 1.25 11.4 1.7 12.05" fill="#ecb328" fill-rule="evenodd" stroke="none"/>
    <path d="M15.05 9.3 L14.6 10.25 14.2 9.65 14.6 8.65 15.05 9.3" fill="#ecb328" fill-rule="evenodd" stroke="none"/>
    <path d="M8.5 12.55 L8.05 13.5 7.65 12.9 8.05 11.9 8.5 12.55" fill="#ecb328" fill-rule="evenodd" stroke="none"/>
    <path d="M3.7 13.6 L3.25 14.6 2.85 14.0 3.25 13.0 3.7 13.6" fill="#ecb328" fill-rule="evenodd" stroke="none"/>
    <path d="M-15.65 -16.25 L0.15 -12.25 0.15 23.3 -15.65 19.25 -15.65 -16.25" fill="#eaa98b" fill-rule="evenodd" stroke="none"/>
    <path d="M0.15 10.6 L0.15 23.0 -15.65 19.0 -15.65 6.6 0.15 10.6" fill="#ebaa29" fill-rule="evenodd" stroke="none"/>
    <path d="M-15.65 -6.15 L-15.7 -16.35 0.15 -12.3 0.15 -4.2 Q-8.0 -1.8 -11.85 -3.75 -15.7 -5.65 -15.65 -6.15" fill="#891009" fill-rule="evenodd" stroke="none"/>
    <path d="M-15.65 -6.95 L-15.7 -16.35 0.15 -12.25 0.15 -4.35 Q-8.55 -2.25 -12.15 -4.35 -15.75 -6.45 -15.65 -6.95" fill="#cd3d1b" fill-rule="evenodd" stroke="none"/>
    <path d="M-15.65 13.55 L-15.65 6.9 0.2 10.95 0.2 17.55 -15.65 13.55" fill="#f6c457" fill-rule="evenodd" stroke="none"/>
    <path d="M-11.15 -4.3 L-8.75 -3.5 Q-8.65 -3.0 -9.45 0.4 -10.25 3.8 -12.75 4.0 -14.15 -0.1 -12.8 -2.2 L-11.15 -4.3" fill="#891009" fill-rule="evenodd" stroke="none"/>
    <path d="M-10.8 -4.3 L-8.95 -3.7 -9.65 -0.05 Q-10.4 3.1 -12.55 3.55 -13.75 -0.25 -12.45 -2.25 L-10.8 -4.3" fill="#e23c19" fill-rule="evenodd" stroke="none"/>
    <path d="M-12.45 -4.55 Q-12.2 -5.5 -11.4 -5.2 L-8.2 -3.75 Q-7.4 -3.25 -7.5 -2.2 -7.7 -1.25 -8.5 -1.5 L-11.7 -3.0 Q-12.5 -3.5 -12.45 -4.55" fill="#891009" fill-rule="evenodd" stroke="none"/>
    <path d="M-15.65 19.2 L-15.65 13.5 0.2 17.55 0.2 23.25 -15.65 19.2" fill="#193088" fill-rule="evenodd" stroke="none"/>
    <path d="M-2.4 15.8 Q-2.2 17.7 -3.6 17.95 -5.0 17.85 -5.5 16.0 L-2.4 15.8" fill="#eaa98b" fill-rule="evenodd" stroke="none"/>
    <path d="M-2.1 16.25 Q-2.1 16.65 -2.4 16.6 L-2.7 16.1 -2.4 15.8 Q-2.1 15.9 -2.1 16.25" fill="#eaa98b" fill-rule="evenodd" stroke="none"/>
    <path d="M-12.5 9.9 L-13.1 10.55 -13.75 9.6 -13.1 8.95 -12.5 9.9" fill="#eca229" fill-rule="evenodd" stroke="none"/>
    <path d="M-11.25 12.85 L-11.85 13.5 -12.5 12.55 -11.85 11.9 -11.25 12.85" fill="#eca229" fill-rule="evenodd" stroke="none"/>
    <path d="M-9.7 10.45 L-10.3 11.1 -10.95 10.15 -10.3 9.5 -9.7 10.45" fill="#eca229" fill-rule="evenodd" stroke="none"/>
    <path d="M-7.95 11.5 L-8.55 12.15 -9.2 11.2 -8.55 10.55 -7.95 11.5" fill="#eca229" fill-rule="evenodd" stroke="none"/>
    <path d="M-5.55 11.1 L-6.15 11.75 -6.8 10.8 -6.15 10.15 -5.55 11.1" fill="#eca229" fill-rule="evenodd" stroke="none"/>
    <path d="M-4.0 13.3 L-4.6 13.95 -5.25 13.0 -4.6 12.35 -4.0 13.3" fill="#eca229" fill-rule="evenodd" stroke="none"/>
    <path d="M-1.45 14.6 L-2.05 15.25 -2.7 14.3 -2.05 13.65 -1.45 14.6" fill="#eca229" fill-rule="evenodd" stroke="none"/>
    <path d="M-6.6 14.25 L-7.2 14.9 -7.85 13.95 -7.2 13.3 -6.6 14.25" fill="#eca229" fill-rule="evenodd" stroke="none"/>
    <path d="M-13.45 12.7 L-14.05 13.35 -14.7 12.4 -14.05 11.75 -13.45 12.7" fill="#eca229" fill-rule="evenodd" stroke="none"/>
    <path d="M-15.7 -16.4 L-15.6 -16.65 0.2 -23.3 15.65 -19.25 0.15 -12.3 -15.7 -16.4" fill="#e54919" fill-rule="evenodd" stroke="none"/>
  </g>
</svg>
