<?xml version="1.0" encoding="UTF-8" standalone="no"?>
<svg xmlns:xlink="http://www.w3.org/1999/xlink" height="373.95px" width="715.0px" xmlns="http://www.w3.org/2000/svg">
  <g transform="matrix(1.0, 0.0, 0.0, 1.0, 45.95, -11.5)">
    <path d="M531.6 238.9 L522.45 238.45 Q506.9 238.45 495.9 242.85 484.95 247.25 484.95 253.45 484.95 259.65 495.9 264.05 506.9 268.45 522.45 268.45 533.1 268.45 541.65 266.4 L544.45 266.45 Q555.2 266.45 562.8 262.35 567.1 260.05 568.95 257.2 L568.95 275.85 Q567.2 273.9 563.85 272.3 556.85 268.95 546.95 268.95 537.05 268.95 530.0 272.3 523.0 275.7 523.0 280.45 523.0 285.2 530.0 288.55 537.05 291.95 546.95 291.95 556.85 291.95 563.85 288.55 567.2 286.95 568.95 285.05 L568.95 307.95 561.45 307.95 561.45 385.45 424.9 385.45 424.9 367.9 355.9 367.9 355.9 350.9 256.95 350.9 256.95 181.7 288.7 181.7 288.7 185.7 294.2 185.7 294.2 189.2 325.7 189.2 325.7 181.2 324.95 181.2 324.95 178.45 297.2 178.45 297.2 177.7 296.7 177.7 296.7 172.45 294.2 172.45 294.2 168.45 265.45 168.45 265.45 157.7 233.45 157.7 233.45 157.95 169.95 157.95 169.95 160.95 159.45 160.95 159.45 168.45 159.95 168.45 159.95 168.7 155.95 168.7 155.95 171.7 129.7 171.7 129.7 175.95 128.7 175.95 128.7 182.7 102.95 182.7 102.95 185.95 90.7 185.95 90.2 191.2 115.2 191.45 115.2 188.45 128.7 188.45 128.7 188.95 135.45 188.95 135.45 179.95 169.95 179.95 169.95 295.95 -45.95 295.95 -45.95 11.5 168.95 11.5 167.8 105.7 151.7 105.7 153.7 113.7 124.95 117.95 97.7 127.2 95.45 128.95 93.2 133.7 95.8 140.7 98.7 133.2 125.55 131.95 128.7 123.2 154.95 122.45 156.7 112.95 172.2 112.95 172.2 112.7 174.95 112.7 174.95 112.65 249.95 112.0 249.95 112.45 266.7 112.45 270.7 123.45 297.45 124.95 300.7 136.5 324.7 133.45 329.2 142.7 333.7 129.75 315.2 124.7 268.45 109.7 268.45 106.95 256.95 106.95 256.95 11.5 593.9 11.5 593.9 40.95 669.05 40.95 669.05 91.95 589.9 91.95 589.9 99.45 583.95 99.45 583.95 147.45 585.45 147.45 585.45 228.95 568.95 228.95 568.95 247.75 568.35 246.9 Q566.45 244.5 562.8 242.55 555.2 238.45 544.45 238.45 535.2 238.45 528.25 241.5 529.6 240.1 531.6 238.9 M102.95 232.45 Q102.95 229.95 98.85 228.2 94.75 226.45 88.95 226.45 83.15 226.45 79.05 228.2 74.95 229.95 74.95 232.45 74.95 234.95 79.05 236.7 83.15 238.45 88.95 238.45 94.75 238.45 98.85 236.7 102.95 234.95 102.95 232.45 M71.45 122.45 Q65.85 122.45 61.9 124.8 57.95 127.15 57.95 130.45 57.95 133.75 61.9 136.1 65.85 138.45 71.45 138.45 77.05 138.45 81.0 136.1 84.95 133.75 84.95 130.45 84.95 127.15 81.0 124.8 77.05 122.45 71.45 122.45 M91.95 87.45 Q91.95 84.55 88.85 82.5 85.8 80.45 81.45 80.45 77.1 80.45 74.0 82.5 70.95 84.55 70.95 87.45 70.95 90.35 74.0 92.4 77.1 94.45 81.45 94.45 85.8 94.45 88.85 92.4 91.95 90.35 91.95 87.45 M98.8 98.4 Q96.2 96.95 92.45 96.95 88.7 96.95 86.05 98.4 83.45 99.9 83.45 101.95 83.45 104.0 86.05 105.45 88.7 106.95 92.45 106.95 96.2 106.95 98.8 105.45 101.45 104.0 101.45 101.95 101.45 99.9 98.8 98.4 M526.45 354.95 Q521.05 354.95 517.25 356.55 513.45 358.15 513.45 360.45 513.45 362.75 517.25 364.35 521.05 365.95 526.45 365.95 531.85 365.95 535.65 364.35 539.45 362.75 539.45 360.45 539.45 358.15 535.65 356.55 531.85 354.95 526.45 354.95 M430.95 319.45 Q430.95 316.75 427.0 314.85 423.05 312.95 417.45 312.95 411.85 312.95 407.9 314.85 403.95 316.75 403.95 319.45 403.95 322.15 407.9 324.05 411.85 325.95 417.45 325.95 423.05 325.95 427.0 324.05 430.95 322.15 430.95 319.45 M483.3 343.5 Q479.65 341.45 474.45 341.45 469.25 341.45 465.6 343.5 461.95 345.55 461.95 348.45 461.95 351.35 465.6 353.4 469.25 355.45 474.45 355.45 479.65 355.45 483.3 353.4 486.95 351.35 486.95 348.45 486.95 345.55 483.3 343.5 M345.45 297.45 Q339.45 297.45 335.2 299.65 330.95 301.85 330.95 304.95 330.95 308.05 335.2 310.25 339.45 312.45 345.45 312.45 351.45 312.45 355.7 310.25 359.95 308.05 359.95 304.95 359.95 301.85 355.7 299.65 351.45 297.45 345.45 297.45 M356.45 279.45 Q356.45 281.95 359.65 283.7 362.9 285.45 367.45 285.45 372.0 285.45 375.2 283.7 378.45 281.95 378.45 279.45 378.45 276.95 375.2 275.2 372.0 273.45 367.45 273.45 362.9 273.45 359.65 275.2 356.45 276.95 356.45 279.45 M337.95 285.95 Q337.95 283.05 334.0 281.0 330.05 278.95 324.45 278.95 318.85 278.95 314.9 281.0 310.95 283.05 310.95 285.95 310.95 288.85 314.9 290.9 318.85 292.95 324.45 292.95 330.05 292.95 334.0 290.9 337.95 288.85 337.95 285.95 M363.7 260.2 Q359.45 258.45 353.45 258.45 347.45 258.45 343.2 260.2 338.95 261.95 338.95 264.45 338.95 266.95 343.2 268.7 347.45 270.45 353.45 270.45 359.45 270.45 363.7 268.7 367.95 266.95 367.95 264.45 367.95 261.95 363.7 260.2 M472.95 295.45 Q472.95 292.35 469.15 290.15 465.35 287.95 459.95 287.95 454.55 287.95 450.75 290.15 446.95 292.35 446.95 295.45 446.95 298.55 450.75 300.75 454.55 302.95 459.95 302.95 465.35 302.95 469.15 300.75 472.95 298.55 472.95 295.45 M398.55 106.7 Q391.95 109.5 391.95 113.45 391.95 117.4 398.55 120.15 405.15 122.95 414.45 122.95 423.75 122.95 430.35 120.15 436.95 117.4 436.95 113.45 436.95 109.5 430.35 106.7 423.75 103.95 414.45 103.95 405.15 103.95 398.55 106.7 M371.95 108.45 Q371.95 105.15 367.85 102.8 363.75 100.45 357.95 100.45 352.15 100.45 348.05 102.8 343.95 105.15 343.95 108.45 343.95 111.75 348.05 114.1 352.15 116.45 357.95 116.45 363.75 116.45 367.85 114.1 371.95 111.75 371.95 108.45 M432.95 62.95 Q423.4 62.95 416.65 65.85 409.95 68.8 409.95 72.95 409.95 77.1 416.65 80.0 423.4 82.95 432.95 82.95 442.5 82.95 449.2 80.0 455.95 77.1 455.95 72.95 455.95 68.8 449.2 65.85 442.5 62.95 432.95 62.95" fill="#000000" fill-opacity="0.101960786" fill-rule="evenodd" stroke="none"/>
    <path d="M528.25 241.5 Q529.6 240.1 531.6 238.9" fill="none" stroke="#006633" stroke-linecap="round" stroke-linejoin="round" stroke-width="1.0"/>
  </g>
</svg>
