<?xml version="1.0" encoding="UTF-8" standalone="no"?>
<svg xmlns:xlink="http://www.w3.org/1999/xlink" height="143.2px" width="611.95px" xmlns="http://www.w3.org/2000/svg">
  <g transform="matrix(1.0, 0.0, 0.0, 1.0, 3.3, -47.3)">
    <path d="M-3.05 143.9 L-2.9 144.05 -0.6 141.75 1.75 144.05 4.1 141.75 6.4 144.05 8.75 141.75 11.05 144.05 13.4 141.75 15.75 144.05 18.05 141.75 20.4 144.05 22.75 141.75 25.05 144.05 27.4 141.75 29.75 144.05 32.05 141.75 34.4 144.05 36.75 141.75 39.05 144.05 41.4 141.75 43.75 144.05 46.05 141.75 48.4 144.05 50.75 141.75 53.05 144.05 55.4 141.75 57.75 144.05 60.05 141.75 62.4 144.05 64.75 141.75 67.05 144.05 69.4 141.75 71.75 144.05 74.05 141.75 76.4 144.05 78.75 141.75 81.05 144.05 83.4 141.75 85.75 144.05 88.05 141.75 90.4 144.05 92.75 141.75 95.05 144.05 95.9 143.25 97.4 144.75 97.4 145.15 95.3 147.3 97.45 149.45 97.45 149.75 95.3 151.95 97.55 154.2 97.55 154.4 95.3 156.6 97.6 158.95 97.6 159.0 95.3 161.3 97.6 163.6 95.3 165.95 97.6 168.3 95.3 170.6 97.6 172.95 95.3 175.3 97.6 177.6 95.3 179.95 97.6 182.3 95.3 184.6 97.6 186.95 96.55 188.0 95.95 187.35 93.6 189.7 91.35 187.45 89.0 189.75 87.05 187.8 84.7 190.15 82.2 187.6 79.85 189.95 77.4 187.5 75.05 189.85 72.65 187.45 70.35 189.75 67.05 187.75 64.75 190.1 63.15 187.75 60.8 190.1 58.55 187.3 56.2 189.65 54.05 187.5 51.75 189.85 48.4 186.5 46.05 188.85 43.75 186.5 41.4 188.85 39.05 186.5 36.75 188.85 34.4 186.5 32.05 188.85 29.75 186.5 27.4 188.85 25.05 186.5 22.75 188.85 20.4 186.5 18.05 188.85 15.75 186.5 13.4 188.85 11.05 186.5 8.75 188.85 6.4 186.5 4.1 188.85 1.75 186.5 -0.6 188.85 -2.9 186.5 -3.05 186.65 -3.05 143.9" fill="#cb9d6b" fill-rule="evenodd" stroke="none"/>
    <path d="M-3.05 186.65 L-2.9 186.5 -0.6 188.85 1.75 186.5 4.1 188.85 6.4 186.5 8.75 188.85 11.05 186.5 13.4 188.85 15.75 186.5 18.05 188.85 20.4 186.5 22.75 188.85 25.05 186.5 27.4 188.85 29.75 186.5 32.05 188.85 34.4 186.5 36.75 188.85 39.05 186.5 41.4 188.85 43.75 186.5 46.05 188.85 48.4 186.5 51.75 189.85 54.05 187.5 56.2 189.65 58.55 187.3 60.8 190.1 63.15 187.75 64.75 190.1 67.05 187.75 70.35 189.75 72.65 187.45 75.05 189.85 77.4 187.5 79.85 189.95 82.2 187.6 84.7 190.15 87.05 187.8 89.0 189.75 91.35 187.45 93.6 189.7 95.95 187.35 96.55 188.0 97.6 186.95 95.3 184.6 97.6 182.3 95.3 179.95 97.6 177.6 95.3 175.3 97.6 172.95 95.3 170.6 97.6 168.3 95.3 165.95 97.6 163.6 95.3 161.3 97.6 159.0 97.6 158.95 95.3 156.6 97.55 154.4 97.55 154.2 95.3 151.95 97.45 149.75 97.45 149.45 95.3 147.3 97.4 145.15 97.4 144.75 95.9 143.25 95.05 144.05 92.75 141.75 90.4 144.05 88.05 141.75 85.75 144.05 83.4 141.75 81.05 144.05 78.75 141.75 76.4 144.05 74.05 141.75 71.75 144.05 69.4 141.75 67.05 144.05 64.75 141.75 62.4 144.05 60.05 141.75 57.75 144.05 55.4 141.75 53.05 144.05 50.75 141.75 48.4 144.05 46.05 141.75 43.75 144.05 41.4 141.75 39.05 144.05 36.75 141.75 34.4 144.05 32.05 141.75 29.75 144.05 27.4 141.75 25.05 144.05 22.75 141.75 20.4 144.05 18.05 141.75 15.75 144.05 13.4 141.75 11.05 144.05 8.75 141.75 6.4 144.05 4.1 141.75 1.75 144.05 -0.6 141.75 -2.9 144.05 -3.05 143.9" fill="none" stroke="#8a634a" stroke-linecap="round" stroke-linejoin="round" stroke-width="0.5"/>
    <path d="M608.2 50.85 L608.2 51.3 606.05 53.4 608.25 55.6 608.25 55.9 606.05 58.1 608.3 60.35 608.3 60.5 606.05 62.75 608.4 65.05 608.4 65.1 606.05 67.4 608.4 69.75 606.05 72.1 608.4 74.4 606.05 76.75 608.4 79.1 606.05 81.4 608.4 83.75 606.05 86.1 608.4 88.4 606.05 90.75 608.4 93.1 607.35 94.15 605.85 92.65 603.5 94.95 601.2 92.65 598.85 94.95 596.5 92.65 594.2 94.95 591.85 92.65 589.5 94.95 587.2 92.65 584.85 94.95 582.5 92.65 580.2 94.95 577.85 92.65 575.5 94.95 573.2 92.65 570.85 94.95 568.5 92.65 566.2 94.95 563.85 92.65 561.5 94.95 559.2 92.65 556.85 94.95 554.5 92.65 552.2 94.95 549.85 92.65 547.5 94.95 545.2 92.65 542.85 94.95 540.5 92.65 538.2 94.95 535.85 92.65 533.5 94.95 531.2 92.65 528.85 94.95 526.55 92.65 524.2 94.95 521.85 92.65 519.55 94.95 517.2 92.65 514.85 94.95 512.55 92.65 510.2 94.95 508.8 93.6 505.65 96.75 507.95 99.1 505.65 101.45 507.95 103.75 505.65 106.1 507.95 108.45 505.65 110.75 507.95 113.1 505.65 115.45 507.95 117.75 505.65 120.1 507.95 122.45 505.65 124.75 507.95 127.1 505.65 129.45 507.95 131.75 505.65 134.1 507.95 136.45 505.65 138.75 507.95 141.1 505.65 143.45 507.95 145.75 505.65 148.1 507.95 150.45 505.65 152.75 507.95 155.1 505.65 157.45 507.95 159.75 505.65 162.1 507.95 164.45 505.65 166.75 507.95 169.1 505.65 171.45 507.95 173.75 505.65 176.1 507.95 178.45 505.65 180.75 507.95 183.1 505.65 185.45 507.3 187.1 506.1 188.3 503.75 186.0 501.4 188.3 499.1 186.0 496.75 188.3 494.4 186.0 492.1 188.3 489.75 186.0 487.4 188.3 485.1 186.0 482.75 188.3 480.4 186.0 478.1 188.3 475.75 186.0 473.4 188.3 471.1 186.0 468.75 188.3 466.4 186.0 464.1 188.3 463.45 187.7 461.35 189.8 459.1 187.5 456.75 189.85 454.8 187.9 452.45 190.25 449.95 187.7 447.6 190.05 445.15 187.6 442.8 189.9 440.4 187.5 438.1 189.85 434.8 187.85 432.5 190.15 430.9 187.85 428.55 190.15 426.3 187.4 423.95 189.75 421.8 187.6 419.5 189.9 416.15 186.6 413.8 188.9 411.5 186.6 409.15 188.9 406.8 186.6 404.5 188.9 402.15 186.6 399.8 188.9 397.5 186.6 395.15 188.9 392.8 186.6 390.5 188.9 388.15 186.6 385.8 188.9 383.5 186.6 381.15 188.9 378.8 186.6 376.5 188.9 374.15 186.6 371.85 188.9 369.5 186.6 367.15 188.9 364.85 186.6 362.5 188.9 360.15 186.6 357.85 188.9 355.5 186.6 353.15 188.9 350.85 186.6 348.5 188.9 346.15 186.6 343.85 188.9 341.5 186.6 339.15 188.9 336.85 186.6 334.5 188.9 332.15 186.6 329.85 188.9 327.5 186.6 325.8 188.25 324.6 187.05 326.95 184.7 324.6 182.35 326.95 180.05 324.6 177.7 326.95 175.35 324.6 173.05 326.95 170.7 324.6 168.35 326.95 166.05 324.6 163.7 326.95 161.35 324.6 159.05 326.95 156.7 324.6 154.35 326.95 152.05 324.6 149.7 326.95 147.4 324.6 145.05 326.5 143.15 327.5 144.15 329.85 141.8 332.15 144.15 334.5 141.8 336.85 144.15 339.15 141.8 341.5 144.15 343.85 141.8 346.15 144.15 348.5 141.8 350.85 144.15 353.15 141.8 355.5 144.15 357.85 141.8 360.15 144.15 362.5 141.8 364.85 144.15 367.15 141.8 369.5 144.15 371.85 141.8 374.15 144.15 376.5 141.8 378.8 144.15 381.15 141.8 383.5 144.15 385.8 141.8 388.15 144.15 390.5 141.8 392.8 144.15 395.15 141.8 397.5 144.15 399.8 141.8 402.15 144.15 404.5 141.8 406.8 144.15 409.15 141.8 411.5 144.15 413.8 141.8 416.15 144.15 418.5 141.8 420.8 144.15 423.15 141.8 425.5 144.15 427.8 141.8 430.15 144.15 432.5 141.8 434.8 144.15 437.15 141.8 439.5 144.15 441.8 141.8 444.15 144.15 446.5 141.8 448.8 144.15 451.15 141.8 453.5 144.15 455.8 141.8 458.15 144.15 460.5 141.8 460.85 141.1 463.2 138.75 460.85 136.45 463.2 134.1 460.85 131.75 463.2 129.45 460.85 127.1 463.2 124.75 460.85 122.45 463.2 120.1 460.85 117.75 463.2 115.45 460.85 113.1 463.2 110.75 460.85 108.45 463.2 106.1 460.85 103.75 463.2 101.45 460.85 99.1 463.2 96.75 460.85 94.45 463.2 92.1 460.85 89.75 463.2 87.45 460.85 85.1 463.2 82.75 460.85 80.45 463.2 78.1 460.85 75.8 463.2 73.45 460.85 71.1 463.2 68.8 460.85 66.45 463.2 64.1 460.85 61.8 463.2 59.45 460.85 57.1 463.2 54.8 460.85 52.45 463.2 50.1 462.35 49.3 463.85 47.75 464.3 47.75 466.4 49.9 468.6 47.7 468.9 47.7 470.95 49.75 472.85 47.85 473.0 48.0 473.35 47.65 473.5 47.65 475.65 49.75 477.55 47.85 477.65 48.0 478.05 47.6 478.1 47.6 480.3 49.75 482.2 47.85 482.3 48.0 482.75 47.55 484.95 49.75 486.85 47.85 487.0 48.0 487.4 47.55 489.65 49.75 491.55 47.85 491.65 48.0 492.1 47.55 494.3 49.75 496.2 47.85 496.3 48.0 496.75 47.55 498.95 49.75 500.85 47.85 501.0 48.0 501.4 47.55 503.65 49.75 505.55 47.85 505.65 48.0 506.1 47.55 507.15 48.6 506.7 49.05 507.85 50.2 510.2 47.85 512.55 50.2 514.85 47.85 517.2 50.2 519.55 47.85 521.85 50.2 524.2 47.85 526.55 50.2 528.85 47.85 531.2 50.2 533.5 47.85 535.85 50.2 538.2 47.85 540.5 50.2 542.85 47.85 545.2 50.2 547.5 47.85 549.85 50.2 552.2 47.85 554.5 50.2 556.85 47.85 559.2 50.2 561.5 47.85 563.85 50.2 566.2 47.85 568.5 50.2 570.85 47.85 573.2 50.2 575.5 47.85 577.85 50.2 580.2 47.85 582.5 50.2 584.85 47.85 587.2 50.2 589.5 47.85 591.85 50.2 594.2 47.85 596.5 50.2 598.85 47.85 601.2 50.2 603.5 47.85 605.85 50.2 606.7 49.35 608.2 50.85" fill="#cb9d6b" fill-rule="evenodd" stroke="none"/>
    <path d="M608.2 50.85 L606.7 49.35 605.85 50.2 603.5 47.85 601.2 50.2 598.85 47.85 596.5 50.2 594.2 47.85 591.85 50.2 589.5 47.85 587.2 50.2 584.85 47.85 582.5 50.2 580.2 47.85 577.85 50.2 575.5 47.85 573.2 50.2 570.85 47.85 568.5 50.2 566.2 47.85 563.85 50.2 561.5 47.85 559.2 50.2 556.85 47.85 554.5 50.2 552.2 47.85 549.85 50.2 547.5 47.85 545.2 50.2 542.85 47.85 540.5 50.2 538.2 47.85 535.85 50.2 533.5 47.85 531.2 50.2 528.85 47.85 526.55 50.2 524.2 47.85 521.85 50.2 519.55 47.85 517.2 50.2 514.85 47.85 512.55 50.2 510.2 47.85 507.85 50.2 506.7 49.05 507.15 48.6 506.1 47.55 505.65 48.0 505.55 47.85 503.65 49.75 501.4 47.55 501.0 48.0 500.85 47.85 498.95 49.75 496.75 47.55 496.3 48.0 496.2 47.85 494.3 49.75 492.1 47.55 491.65 48.0 491.55 47.85 489.65 49.75 487.4 47.55 487.0 48.0 486.85 47.85 484.95 49.75 482.75 47.55 482.3 48.0 482.2 47.85 480.3 49.75 478.1 47.6 478.05 47.6 477.65 48.0 477.55 47.85 475.65 49.75 473.5 47.65 473.35 47.65 473.0 48.0 472.85 47.85 470.95 49.75 468.9 47.7 468.6 47.7 466.4 49.9 464.3 47.75 463.85 47.75 462.35 49.3 463.2 50.1 460.85 52.45 463.2 54.8 460.85 57.1 463.2 59.45 460.85 61.8 463.2 64.1 460.85 66.45 463.2 68.8 460.85 71.1 463.2 73.45 460.85 75.8 463.2 78.1 460.85 80.45 463.2 82.75 460.85 85.1 463.2 87.45 460.85 89.75 463.2 92.1 460.85 94.45 463.2 96.75 460.85 99.1 463.2 101.45 460.85 103.75 463.2 106.1 460.85 108.45 463.2 110.75 460.85 113.1 463.2 115.45 460.85 117.75 463.2 120.1 460.85 122.45 463.2 124.75 460.85 127.1 463.2 129.45 460.85 131.75 463.2 134.1 460.85 136.45 463.2 138.75 460.85 141.1 460.5 141.8 458.15 144.15 455.8 141.8 453.5 144.15 451.15 141.8 448.8 144.15 446.5 141.8 444.15 144.15 441.8 141.8 439.5 144.15 437.15 141.8 434.8 144.15 432.5 141.8 430.15 144.15 427.8 141.8 425.5 144.15 423.15 141.8 420.8 144.15 418.5 141.8 416.15 144.15 413.8 141.8 411.5 144.15 409.15 141.8 406.8 144.15 404.5 141.8 402.15 144.15 399.8 141.8 397.5 144.15 395.15 141.8 392.8 144.15 390.5 141.8 388.15 144.15 385.8 141.8 383.5 144.15 381.15 141.8 378.8 144.15 376.5 141.8 374.15 144.15 371.85 141.8 369.5 144.15 367.15 141.8 364.85 144.15 362.5 141.8 360.15 144.15 357.85 141.8 355.5 144.15 353.15 141.8 350.85 144.15 348.5 141.8 346.15 144.15 343.85 141.8 341.5 144.15 339.15 141.8 336.85 144.15 334.5 141.8 332.15 144.15 329.85 141.8 327.5 144.15 326.5 143.15 324.6 145.05 326.95 147.4 324.6 149.7 326.95 152.05 324.6 154.35 326.95 156.7 324.6 159.05 326.95 161.35 324.6 163.7 326.95 166.05 324.6 168.35 326.95 170.7 324.6 173.05 326.95 175.35 324.6 177.7 326.95 180.05 324.6 182.35 326.95 184.7 324.6 187.05 325.8 188.25 327.5 186.6 329.85 188.9 332.15 186.6 334.5 188.9 336.85 186.6 339.15 188.9 341.5 186.6 343.85 188.9 346.15 186.6 348.5 188.9 350.85 186.6 353.15 188.9 355.5 186.6 357.85 188.9 360.15 186.6 362.5 188.9 364.85 186.6 367.15 188.9 369.5 186.6 371.85 188.9 374.15 186.6 376.5 188.9 378.8 186.6 381.15 188.9 383.5 186.6 385.8 188.9 388.15 186.6 390.5 188.9 392.8 186.6 395.15 188.9 397.5 186.6 399.8 188.9 402.15 186.6 404.5 188.9 406.8 186.6 409.15 188.9 411.5 186.6 413.8 188.9 416.15 186.6 419.5 189.9 421.8 187.6 423.95 189.75 426.3 187.4 428.55 190.15 430.9 187.85 432.5 190.15 434.8 187.85 438.1 189.85 440.4 187.5 442.8 189.9 445.15 187.6 447.6 190.05 449.95 187.7 452.45 190.25 454.8 187.9 456.75 189.85 459.1 187.5 461.35 189.8 463.45 187.7 464.1 188.3 466.4 186.0 468.75 188.3 471.1 186.0 473.4 188.3 475.75 186.0 478.1 188.3 480.4 186.0 482.75 188.3 485.1 186.0 487.4 188.3 489.75 186.0 492.1 188.3 494.4 186.0 496.75 188.3 499.1 186.0 501.4 188.3 503.75 186.0 506.1 188.3 507.3 187.1 505.65 185.45 507.95 183.1 505.65 180.75 507.95 178.45 505.65 176.1 507.95 173.75 505.65 171.45 507.95 169.1 505.65 166.75 507.95 164.45 505.65 162.1 507.95 159.75 505.65 157.45 507.95 155.1 505.65 152.75 507.95 150.45 505.65 148.1 507.95 145.75 505.65 143.45 507.95 141.1 505.65 138.75 507.95 136.45 505.65 134.1 507.95 131.75 505.65 129.45 507.95 127.1 505.65 124.75 507.95 122.45 505.65 120.1 507.95 117.75 505.65 115.45 507.95 113.1 505.65 110.75 507.95 108.45 505.65 106.1 507.95 103.75 505.65 101.45 507.95 99.1 505.65 96.75 508.8 93.6 510.2 94.95 512.55 92.65 514.85 94.95 517.2 92.65 519.55 94.95 521.85 92.65 524.2 94.95 526.55 92.65 528.85 94.95 531.2 92.65 533.5 94.95 535.85 92.65 538.2 94.95 540.5 92.65 542.85 94.95 545.2 92.65 547.5 94.95 549.85 92.65 552.2 94.95 554.5 92.65 556.85 94.95 559.2 92.65 561.5 94.95 563.85 92.65 566.2 94.95 568.5 92.65 570.85 94.95 573.2 92.65 575.5 94.95 577.85 92.65 580.2 94.95 582.5 92.65 584.85 94.95 587.2 92.65 589.5 94.95 591.85 92.65 594.2 94.95 596.5 92.65 598.85 94.95 601.2 92.65 603.5 94.95 605.85 92.65 607.35 94.15 608.4 93.1 606.05 90.75 608.4 88.4 606.05 86.1 608.4 83.75 606.05 81.4 608.4 79.1 606.05 76.75 608.4 74.4 606.05 72.1 608.4 69.75 606.05 67.4 608.4 65.1 608.4 65.05 606.05 62.75 608.3 60.5 608.3 60.35 606.05 58.1 608.25 55.9 608.25 55.6 606.05 53.4 608.2 51.3 608.2 50.85 Z" fill="none" stroke="#8a634a" stroke-linecap="round" stroke-linejoin="round" stroke-width="0.5"/>
  </g>
</svg>
