<?xml version="1.0" encoding="UTF-8" standalone="no"?>
<svg xmlns:xlink="http://www.w3.org/1999/xlink" height="400.0px" width="615.05px" xmlns="http://www.w3.org/2000/svg">
  <g transform="matrix(1.0, 0.0, 0.0, 1.0, 14.55, -0.3)">
    <path d="M253.8 0.3 L253.8 400.3 172.8 400.3 172.8 0.3 253.8 0.3" fill="#2b7eaf" fill-rule="evenodd" stroke="none"/>
    <path d="M359.65 400.3 L0.5 400.3 0.5 352.65 359.65 352.65 359.65 400.3" fill="#2b7eaf" fill-rule="evenodd" stroke="none"/>
    <path d="M427.65 400.3 L333.0 400.3 333.0 369.15 427.65 369.15 427.65 400.3" fill="#2b7eaf" fill-rule="evenodd" stroke="none"/>
    <path d="M200.85 375.35 L0.5 375.35 0.5 298.0 200.85 298.0 200.85 375.35" fill="#2b7eaf" fill-rule="evenodd" stroke="none"/>
    <path d="M124.4 294.2 L126.8 297.35 126.8 304.0 -14.55 304.0 -14.55 296.4 -13.85 297.1 -11.5 294.8 -9.2 297.1 -6.85 294.8 -4.5 297.1 -2.2 294.8 0.15 297.1 2.5 294.8 4.8 297.1 7.15 294.8 9.5 297.1 11.8 294.8 14.15 297.1 16.5 294.8 18.8 297.1 21.15 294.8 23.5 297.1 25.8 294.8 28.15 297.1 30.5 294.8 32.8 297.1 35.15 294.8 37.5 297.1 39.8 294.8 42.15 297.1 44.5 294.8 46.8 297.1 49.15 294.8 51.45 297.1 53.8 294.8 56.15 297.1 58.45 294.8 60.8 297.1 63.15 294.8 65.45 297.1 67.8 294.8 70.15 297.1 72.45 294.8 74.8 297.1 77.15 294.8 79.45 297.1 81.8 294.8 84.15 297.1 86.45 294.8 88.8 297.1 91.15 294.8 93.45 297.1 95.8 294.8 98.15 297.1 100.45 294.8 102.8 297.1 105.15 294.8 107.45 297.1 109.8 294.8 112.15 297.1 114.45 294.8 116.8 297.1 119.15 294.8 121.45 297.1 124.4 294.2" fill="#23668d" fill-rule="evenodd" stroke="none"/>
    <path d="M172.45 294.2 L174.85 297.35 174.85 304.0 33.5 304.0 33.5 296.4 34.2 297.1 36.55 294.8 38.85 297.1 41.2 294.8 43.55 297.1 45.85 294.8 48.2 297.1 50.55 294.8 52.85 297.1 55.2 294.8 57.55 297.1 59.85 294.8 62.2 297.1 64.55 294.8 66.85 297.1 69.2 294.8 71.55 297.1 73.85 294.8 76.2 297.1 78.55 294.8 80.85 297.1 83.2 294.8 85.55 297.1 87.85 294.8 90.2 297.1 92.55 294.8 94.85 297.1 97.2 294.8 99.5 297.1 101.85 294.8 104.2 297.1 106.5 294.8 108.85 297.1 111.2 294.8 113.5 297.1 115.85 294.8 118.2 297.1 120.5 294.8 122.85 297.1 125.2 294.8 127.5 297.1 129.85 294.8 132.2 297.1 134.5 294.8 136.85 297.1 139.2 294.8 141.5 297.1 143.85 294.8 146.2 297.1 148.5 294.8 150.85 297.1 153.2 294.8 155.5 297.1 157.85 294.8 160.2 297.1 162.5 294.8 164.85 297.1 167.2 294.8 169.5 297.1 172.45 294.2" fill="#23668d" fill-rule="evenodd" stroke="none"/>
    <path d="M168.75 167.6 L165.85 164.7 169.0 162.3 175.65 162.3 175.65 303.65 168.05 303.65 168.75 302.95 166.45 300.6 168.75 298.25 166.45 295.95 168.75 293.6 166.45 291.25 168.75 288.95 166.45 286.6 168.75 284.25 166.45 281.95 168.75 279.6 166.45 277.25 168.75 274.95 166.45 272.6 168.75 270.25 166.45 267.95 168.75 265.6 166.45 263.25 168.75 260.95 166.45 258.6 168.75 256.25 166.45 253.95 168.75 251.6 166.45 249.25 168.75 246.95 166.45 244.6 168.75 242.25 166.45 239.95 168.75 237.6 166.45 235.25 168.75 232.95 166.45 230.6 168.75 228.3 166.45 225.95 168.75 223.6 166.45 221.3 168.75 218.95 166.45 216.6 168.75 214.3 166.45 211.95 168.75 209.6 166.45 207.3 168.75 204.95 166.45 202.6 168.75 200.3 166.45 197.95 168.75 195.6 166.45 193.3 168.75 190.95 166.45 188.6 168.75 186.3 166.45 183.95 168.75 181.6 166.45 179.3 168.75 176.95 166.45 174.6 168.75 172.3 166.45 169.95 168.75 167.6" fill="#23668d" fill-rule="evenodd" stroke="none"/>
    <path d="M168.75 31.95 L165.85 29.05 169.0 26.65 175.65 26.65 175.65 168.0 168.05 168.0 168.75 167.3 166.45 164.95 168.75 162.6 166.45 160.3 168.75 157.95 166.45 155.6 168.75 153.3 166.45 150.95 168.75 148.6 166.45 146.3 168.75 143.95 166.45 141.6 168.75 139.3 166.45 136.95 168.75 134.6 166.45 132.3 168.75 129.95 166.45 127.6 168.75 125.3 166.45 122.95 168.75 120.6 166.45 118.3 168.75 115.95 166.45 113.6 168.75 111.3 166.45 108.95 168.75 106.6 166.45 104.3 168.75 101.95 166.45 99.6 168.75 97.3 166.45 94.95 168.75 92.65 166.45 90.3 168.75 87.95 166.45 85.65 168.75 83.3 166.45 80.95 168.75 78.65 166.45 76.3 168.75 73.95 166.45 71.65 168.75 69.3 166.45 66.95 168.75 64.65 166.45 62.3 168.75 59.95 166.45 57.65 168.75 55.3 166.45 52.95 168.75 50.65 166.45 48.3 168.75 45.95 166.45 43.65 168.75 41.3 166.45 38.95 168.75 36.65 166.45 34.3 168.75 31.95" fill="#23668d" fill-rule="evenodd" stroke="none"/>
    <path d="M167.35 0.3 L175.6 0.3 175.6 32.3 168.05 32.3 168.75 31.6 166.4 29.25 168.75 26.95 166.4 24.6 168.75 22.25 166.4 19.95 168.75 17.6 166.4 15.25 168.75 12.95 166.4 10.6 168.75 8.25 166.4 5.95 168.75 3.6 166.4 1.25 167.35 0.3" fill="#23668d" fill-rule="evenodd" stroke="none"/>
    <path d="M256.35 147.1 L258.65 149.45 256.35 151.8 258.65 154.1 256.35 156.45 258.65 158.8 256.35 161.1 258.65 163.45 256.35 165.8 258.65 168.1 256.35 170.45 258.65 172.8 256.35 175.1 258.65 177.45 256.35 179.8 258.65 182.1 256.35 184.45 258.65 186.8 256.35 189.1 258.65 191.45 256.35 193.8 258.65 196.1 256.35 198.45 258.65 200.8 256.35 203.1 258.65 205.45 256.35 207.8 258.65 210.1 256.35 212.45 258.65 214.75 256.35 217.1 258.65 219.45 256.35 221.75 258.65 224.1 256.35 226.45 258.65 228.75 256.35 231.1 258.65 233.45 256.35 235.75 258.65 238.1 256.35 240.45 258.65 242.75 256.35 245.1 258.65 247.45 256.35 249.75 258.65 252.1 256.35 254.45 258.65 256.75 256.35 259.1 258.65 261.45 256.35 263.75 258.65 266.1 256.35 268.45 258.65 270.75 256.35 273.1 258.65 275.45 256.35 277.75 258.65 280.1 256.35 282.45 257.05 283.15 249.45 283.15 249.45 141.8 256.1 141.8 259.25 144.2 256.35 147.1" fill="#23668d" fill-rule="evenodd" stroke="none"/>
    <path d="M536.45 14.85 L533.5 11.9 531.2 14.2 528.85 11.9 526.5 14.2 524.2 11.9 521.85 14.2 519.5 11.9 517.2 14.2 514.85 11.9 512.5 14.2 510.2 11.9 507.85 14.2 505.5 11.9 503.2 14.2 500.85 11.9 498.5 14.2 496.2 11.9 493.85 14.2 491.5 11.9 489.2 14.2 486.85 11.9 484.5 14.2 482.2 11.9 479.85 14.2 477.5 11.9 475.2 14.2 472.85 11.9 470.5 14.2 468.2 11.9 465.85 14.2 463.5 11.9 461.2 14.2 458.85 11.9 456.55 14.2 454.2 11.9 451.85 14.2 449.55 11.9 447.2 14.2 444.85 11.9 442.55 14.2 440.2 11.9 437.85 14.2 435.55 11.9 433.2 14.2 430.85 11.9 428.55 14.2 426.2 11.9 423.85 14.2 421.55 11.9 419.2 14.2 416.85 11.9 414.55 14.2 412.2 11.9 409.85 14.2 407.55 11.9 405.2 14.2 402.85 11.9 400.55 14.2 398.2 11.9 397.5 12.6 397.5 5.0 538.85 5.0 538.85 11.65 536.45 14.85" fill="#863200" fill-rule="evenodd" stroke="none"/>
    <path d="M259.25 270.2 L256.35 273.1 258.65 275.45 256.35 277.8 258.65 280.1 256.35 282.45 258.65 284.8 256.35 287.1 258.65 289.45 256.35 291.8 258.65 294.1 256.35 296.45 258.65 298.8 256.35 301.1 258.65 303.45 256.35 305.8 258.65 308.1 256.35 310.45 258.65 312.8 256.35 315.1 258.65 317.45 256.35 319.8 258.65 322.1 256.35 324.45 258.65 326.8 256.35 329.1 258.65 331.45 256.35 333.8 258.65 336.1 256.35 338.45 258.65 340.75 256.35 343.1 258.65 345.45 256.35 347.75 258.65 350.1 256.35 352.45 249.45 352.3 249.45 267.8 256.1 267.8 259.25 270.2" fill="#23668d" fill-rule="evenodd" stroke="none"/>
    <path d="M334.0 356.15 L249.5 356.15 249.5 349.5 251.9 346.35 254.8 349.25 257.15 346.95 259.5 349.25 261.8 346.95 264.15 349.25 266.5 346.95 268.8 349.25 271.15 346.95 273.5 349.25 275.8 346.95 278.15 349.25 280.5 346.95 282.8 349.25 285.15 346.95 287.5 349.25 289.8 346.95 292.15 349.25 294.5 346.95 296.8 349.25 299.15 346.95 301.5 349.25 303.8 346.95 306.15 349.25 308.5 346.95 310.8 349.25 313.15 346.95 315.5 349.25 317.8 346.95 320.15 349.25 322.45 346.95 324.8 349.25 327.15 346.95 329.45 349.25 331.8 346.95 334.15 349.25 334.0 356.15" fill="#23668d" fill-rule="evenodd" stroke="none"/>
    <path d="M357.65 356.15 L273.15 356.15 273.15 349.5 275.55 346.35 278.45 349.25 280.8 346.95 283.15 349.25 285.45 346.95 287.8 349.25 290.15 346.95 292.45 349.25 294.8 346.95 297.15 349.25 299.45 346.95 301.8 349.25 304.15 346.95 306.45 349.25 308.8 346.95 311.15 349.25 313.45 346.95 315.8 349.25 318.15 346.95 320.45 349.25 322.8 346.95 325.15 349.25 327.45 346.95 329.8 349.25 332.15 346.95 334.45 349.25 336.8 346.95 339.15 349.25 341.45 346.95 343.8 349.25 346.15 346.95 348.45 349.25 350.8 346.95 353.1 349.25 355.45 346.95 357.8 349.25 357.65 356.15" fill="#23668d" fill-rule="evenodd" stroke="none"/>
    <path d="M427.8 375.45 L360.3 375.45 360.3 366.25 362.65 368.6 364.95 366.25 367.3 368.6 369.65 366.25 371.95 368.6 374.3 366.25 376.65 368.6 378.95 366.25 381.3 368.6 383.65 366.25 385.95 368.6 388.3 366.25 390.65 368.6 392.95 366.25 395.3 368.6 397.65 366.25 399.95 368.6 402.3 366.25 404.65 368.6 406.95 366.25 409.3 368.6 411.65 366.25 413.95 368.6 416.3 366.25 418.6 368.6 420.95 366.25 423.3 368.6 425.6 366.25 427.95 368.6 427.8 375.45" fill="#23668d" fill-rule="evenodd" stroke="none"/>
    <path d="M360.1 361.35 L362.4 363.7 360.1 366.05 362.4 368.35 360.1 370.7 362.4 373.05 360.1 375.35 353.2 375.5 353.2 349.7 362.4 349.7 360.1 352.05 362.4 354.35 360.1 356.7 362.4 359.05 360.1 361.35" fill="#23668d" fill-rule="evenodd" stroke="none"/>
    <path d="M428.25 386.15 L430.55 388.5 428.25 390.85 430.55 393.15 428.25 395.5 430.55 397.85 428.25 400.15 421.35 400.3 421.35 374.5 430.55 374.5 428.25 376.85 430.55 379.15 428.25 381.5 430.55 383.85 428.25 386.15" fill="#23668d" fill-rule="evenodd" stroke="none"/>
    <path d="M428.25 381.4 L430.55 383.75 428.25 386.1 430.55 388.4 428.25 390.75 430.55 393.1 428.25 395.4 421.35 395.55 421.35 369.75 430.55 369.75 428.25 372.1 430.55 374.4 428.25 376.75 430.55 379.1 428.25 381.4" fill="#23668d" fill-rule="evenodd" stroke="none"/>
    <path d="M395.45 10.15 L397.85 7.0 397.85 11.65 395.45 14.8 392.5 11.9 390.2 14.2 387.85 11.9 385.5 14.2 383.2 11.9 380.85 14.2 378.5 11.9 376.2 14.2 373.85 11.9 371.5 14.2 369.2 11.9 366.85 14.2 364.5 11.9 362.2 14.2 359.85 11.9 357.5 14.2 355.2 11.9 352.85 14.2 350.5 11.9 348.2 14.2 345.85 11.9 343.5 14.2 341.2 11.9 338.85 14.2 336.5 11.9 334.2 14.2 331.85 11.9 329.5 14.2 327.2 11.9 324.85 14.2 322.5 11.9 320.2 14.2 317.85 11.9 315.55 14.2 313.2 11.9 310.85 14.2 308.55 11.9 306.2 14.2 303.85 11.9 301.55 14.2 299.2 11.9 296.85 14.2 294.55 11.9 292.2 14.2 289.85 11.9 287.55 14.2 285.2 11.9 282.85 14.2 280.55 11.9 278.2 14.2 275.85 11.9 273.55 14.2 271.2 11.9 268.85 14.2 266.55 11.9 264.2 14.2 261.85 11.9 259.55 14.2 258.35 13.05 258.7 12.65 256.5 10.45 256.5 10.2 258.35 8.35 259.55 9.55 261.85 7.2 264.2 9.55 266.55 7.2 268.85 9.55 271.2 7.2 273.55 9.55 275.85 7.2 278.2 9.55 280.55 7.2 282.85 9.55 285.2 7.2 287.55 9.55 289.85 7.2 292.2 9.55 294.55 7.2 296.85 9.55 299.2 7.2 301.55 9.55 303.85 7.2 306.2 9.55 308.55 7.2 310.85 9.55 313.2 7.2 315.55 9.55 317.85 7.2 320.2 9.55 322.5 7.2 324.85 9.55 327.2 7.2 329.5 9.55 331.85 7.2 334.2 9.55 336.5 7.2 338.85 9.55 341.2 7.2 343.5 9.55 345.85 7.2 348.2 9.55 350.5 7.2 352.85 9.55 355.2 7.2 357.5 9.55 359.85 7.2 362.2 9.55 364.5 7.2 366.85 9.55 369.2 7.2 371.5 9.55 373.85 7.2 376.2 9.55 378.5 7.2 380.85 9.55 383.2 7.2 385.5 9.55 387.85 7.2 390.2 9.55 392.5 7.2 395.45 10.15" fill="#863200" fill-rule="evenodd" stroke="none"/>
    <path d="M397.85 0.3 L397.85 4.95 257.05 4.95 259.3 2.7 259.5 2.85 259.35 2.65 259.3 2.7 256.5 0.55 256.5 0.3 397.85 0.3" fill="#5b2600" fill-rule="evenodd" stroke="none"/>
    <path d="M397.85 5.0 L397.85 7.0 395.45 10.15 392.5 7.2 390.2 9.55 387.85 7.2 385.5 9.55 383.2 7.2 380.85 9.55 378.5 7.2 376.2 9.55 373.85 7.2 371.5 9.55 369.2 7.2 366.85 9.55 364.5 7.2 362.2 9.55 359.85 7.2 357.5 9.55 355.2 7.2 352.85 9.55 350.5 7.2 348.2 9.55 345.85 7.2 343.5 9.55 341.2 7.2 338.85 9.55 336.5 7.2 334.2 9.55 331.85 7.2 329.5 9.55 327.2 7.2 324.85 9.55 322.5 7.2 320.2 9.55 317.85 7.2 315.55 9.55 313.2 7.2 310.85 9.55 308.55 7.2 306.2 9.55 303.85 7.2 301.55 9.55 299.2 7.2 296.85 9.55 294.55 7.2 292.2 9.55 289.85 7.2 287.55 9.55 285.2 7.2 282.85 9.55 280.55 7.2 278.2 9.55 275.85 7.2 273.55 9.55 271.2 7.2 268.85 9.55 266.55 7.2 264.2 9.55 261.85 7.2 259.55 9.55 258.35 8.35 258.7 8.0 256.5 5.75 256.5 5.55 257.05 5.0 397.85 5.0" fill="#5b2600" fill-rule="evenodd" stroke="none"/>
    <path d="M256.1 0.3 L259.25 2.7 256.35 5.6 258.65 7.95 256.35 10.3 258.65 12.6 256.35 14.95 258.65 17.3 256.35 19.6 258.65 21.95 256.35 24.3 258.65 26.6 256.35 28.95 258.65 31.3 256.35 33.6 258.65 35.95 256.35 38.3 258.65 40.6 256.35 42.95 258.65 45.3 256.35 47.6 258.65 49.95 256.35 52.3 258.65 54.6 256.35 56.95 258.65 59.3 256.35 61.6 258.65 63.95 256.35 66.3 258.65 68.6 256.35 70.95 258.65 73.25 256.35 75.6 258.65 77.95 256.35 80.25 258.65 82.6 256.35 84.95 258.65 87.25 256.35 89.6 258.65 91.95 256.35 94.25 258.65 96.6 256.35 98.95 258.65 101.25 256.35 103.6 258.65 105.95 256.35 108.25 258.65 110.6 256.35 112.95 258.65 115.25 256.35 117.6 258.65 119.95 256.35 122.25 258.65 124.6 256.35 126.95 258.65 129.25 256.35 131.6 258.65 133.95 256.35 136.25 258.65 138.6 256.35 140.95 257.05 141.65 249.45 141.65 249.45 0.3 256.1 0.3" fill="#23668d" fill-rule="evenodd" stroke="none"/>
    <path d="M536.45 10.15 L533.5 7.2 531.2 9.5 528.85 7.2 526.5 9.5 524.2 7.2 521.85 9.5 519.5 7.2 517.2 9.5 514.85 7.2 512.5 9.5 510.2 7.2 507.85 9.5 505.5 7.2 503.2 9.5 500.85 7.2 498.5 9.5 496.2 7.2 493.85 9.5 491.5 7.2 489.2 9.5 486.85 7.2 484.5 9.5 482.2 7.2 479.85 9.5 477.5 7.2 475.2 9.5 472.85 7.2 470.5 9.5 468.2 7.2 465.85 9.5 463.5 7.2 461.2 9.5 458.85 7.2 456.55 9.5 454.2 7.2 451.85 9.5 449.55 7.2 447.2 9.5 444.85 7.2 442.55 9.5 440.2 7.2 437.85 9.5 435.55 7.2 433.2 9.5 430.85 7.2 428.55 9.5 426.2 7.2 423.85 9.5 421.55 7.2 419.2 9.5 416.85 7.2 414.55 9.5 412.2 7.2 409.85 9.5 407.55 7.2 405.2 9.5 402.85 7.2 400.55 9.5 398.2 7.2 397.5 7.9 397.5 0.3 538.85 0.3 538.85 6.95 536.45 10.15" fill="#5b2600" fill-rule="evenodd" stroke="none"/>
    <path d="M600.5 5.0 L600.5 12.85 599.5 11.9 597.2 14.2 594.85 11.9 592.5 14.2 590.2 11.9 587.85 14.2 585.5 11.9 583.2 14.2 580.85 11.9 578.5 14.2 576.2 11.9 573.85 14.2 571.5 11.9 569.2 14.2 566.85 11.9 564.5 14.2 562.2 11.9 559.85 14.2 557.5 11.9 555.2 14.2 552.85 11.9 550.5 14.2 548.2 11.9 545.85 14.2 543.5 11.9 541.2 14.2 538.85 11.9 538.15 12.6 538.15 5.0 600.5 5.0" fill="#863200" fill-rule="evenodd" stroke="none"/>
    <path d="M600.45 8.15 L599.5 7.2 597.2 9.5 594.85 7.2 592.5 9.5 590.2 7.2 587.85 9.5 585.5 7.2 583.2 9.5 580.85 7.2 578.5 9.5 576.2 7.2 573.85 9.5 571.5 7.2 569.2 9.5 566.85 7.2 564.5 9.5 562.2 7.2 559.85 9.5 557.5 7.2 555.2 9.5 552.85 7.2 550.5 9.5 548.2 7.2 545.85 9.5 543.5 7.2 541.2 9.5 538.85 7.2 538.15 7.9 538.15 0.3 600.5 0.3 600.45 8.15" fill="#5b2600" fill-rule="evenodd" stroke="none"/>
    <path d="M569.85 395.65 L428.5 395.65 428.5 389.0 430.9 385.85 433.8 388.75 436.15 386.45 438.5 388.75 440.8 386.45 443.15 388.75 445.5 386.45 447.8 388.75 450.15 386.45 452.5 388.75 454.8 386.45 457.15 388.75 459.5 386.45 461.8 388.75 464.15 386.45 466.5 388.75 468.8 386.45 471.15 388.75 473.5 386.45 475.8 388.75 478.15 386.45 480.5 388.75 482.8 386.45 485.15 388.75 487.5 386.45 489.8 388.75 492.15 386.45 494.45 388.75 496.8 386.45 499.15 388.75 501.45 386.45 503.8 388.75 506.15 386.45 508.45 388.75 510.8 386.45 513.15 388.75 515.45 386.45 517.8 388.75 520.15 386.45 522.45 388.75 524.8 386.45 527.15 388.75 529.45 386.45 531.8 388.75 534.15 386.45 536.45 388.75 538.8 386.45 541.15 388.75 543.45 386.45 545.8 388.75 548.15 386.45 550.45 388.75 552.8 386.45 555.15 388.75 557.45 386.45 559.8 388.75 562.15 386.45 564.45 388.75 566.8 386.45 569.15 388.75 569.85 388.05 569.85 395.65" fill="#863200" fill-rule="evenodd" stroke="none"/>
    <path d="M569.85 400.3 L428.5 400.3 428.5 393.65 430.9 390.5 433.8 393.4 436.15 391.1 438.5 393.4 440.8 391.1 443.15 393.4 445.5 391.1 447.8 393.4 450.15 391.1 452.5 393.4 454.8 391.1 457.15 393.4 459.5 391.1 461.8 393.4 464.15 391.1 466.5 393.4 468.8 391.1 471.15 393.4 473.5 391.1 475.8 393.4 478.15 391.1 480.5 393.4 482.8 391.1 485.15 393.4 487.5 391.1 489.8 393.4 492.15 391.1 494.5 393.4 496.8 391.1 499.15 393.4 501.45 391.1 503.8 393.4 506.15 391.1 508.45 393.4 510.8 391.1 513.15 393.4 515.45 391.1 517.8 393.4 520.15 391.1 522.45 393.4 524.8 391.1 527.15 393.4 529.45 391.1 531.8 393.4 534.15 391.1 536.45 393.4 538.8 391.1 541.15 393.4 543.45 391.1 545.8 393.4 548.15 391.1 550.45 393.4 552.8 391.1 555.15 393.4 557.45 391.1 559.8 393.4 562.15 391.1 564.45 393.4 566.8 391.1 569.15 393.4 569.85 392.7 569.85 400.3" fill="#5b2600" fill-rule="evenodd" stroke="none"/>
    <path d="M142.3 11.6 L139.9 14.8 136.95 11.85 134.6 14.15 132.25 11.85 129.95 14.15 127.6 11.85 125.25 14.15 122.9 11.85 120.55 14.15 118.25 11.85 115.9 14.15 113.55 11.85 111.2 14.15 108.85 11.85 106.55 14.15 104.2 11.85 101.85 14.15 99.5 11.85 97.15 14.15 94.85 11.85 92.5 14.15 90.15 11.85 87.8 14.15 85.45 11.85 83.1 14.15 80.8 11.85 78.45 14.15 76.1 11.85 73.75 14.15 71.4 11.85 69.1 14.15 66.75 11.85 64.4 14.15 62.05 11.85 59.7 14.15 57.4 11.85 55.05 14.15 52.7 11.85 50.35 14.15 48.0 11.85 45.65 14.15 43.35 11.85 41.0 14.15 38.65 11.85 36.3 14.15 33.95 11.85 31.65 14.15 29.3 11.85 26.95 14.15 24.6 11.85 22.25 14.15 19.95 11.85 17.6 14.15 15.25 11.85 12.9 14.15 10.55 11.85 8.2 14.15 5.9 11.85 3.55 14.15 1.2 11.85 0.5 12.55 0.5 4.95 142.3 4.95 142.3 11.6" fill="#863200" fill-rule="evenodd" stroke="none"/>
    <path d="M139.8 10.1 L136.9 7.2 134.55 9.5 132.2 7.2 129.85 9.5 127.5 7.2 125.2 9.5 122.85 7.2 120.5 9.5 118.15 7.2 115.8 9.5 113.5 7.2 111.15 9.5 108.8 7.2 106.45 9.5 104.15 7.2 101.8 9.5 99.45 7.2 97.1 9.5 94.75 7.2 92.45 9.5 90.1 7.2 87.75 9.5 85.4 7.2 83.1 9.5 80.75 7.2 78.4 9.5 76.05 7.2 73.7 9.5 71.4 7.2 69.05 9.5 66.7 7.2 64.35 9.5 62.0 7.2 59.7 9.5 57.35 7.2 55.0 9.5 52.65 7.2 50.35 9.5 48.0 7.2 45.65 9.5 43.3 7.2 40.95 9.5 38.65 7.2 36.3 9.5 33.95 7.2 31.6 9.5 29.25 7.2 26.95 9.5 24.6 7.2 22.25 9.5 19.9 7.2 17.6 9.5 15.25 7.2 12.9 9.5 10.55 7.2 8.2 9.5 5.9 7.2 3.55 9.5 1.2 7.2 0.5 7.9 0.5 0.3 142.2 0.3 142.2 6.95 139.8 10.1" fill="#5b2600" fill-rule="evenodd" stroke="none"/>
    <path d="M166.45 10.6 L168.8 12.9 167.7 14.0 165.55 11.85 163.2 14.2 160.85 11.85 158.55 14.2 156.2 11.85 153.85 14.2 151.55 11.85 149.2 14.2 146.85 11.85 144.55 14.2 142.2 11.85 141.5 12.55 141.5 7.9 142.2 7.2 144.55 9.55 146.85 7.2 149.2 9.55 151.55 7.2 153.85 9.55 156.2 7.2 158.55 9.55 160.85 7.2 163.2 9.55 165.55 7.2 167.7 9.35 166.45 10.6" fill="#863200" fill-rule="evenodd" stroke="none"/>
    <path d="M167.4 4.95 L141.5 4.95 141.5 0.3 167.4 0.3 166.45 1.25 168.8 3.6 167.4 4.95" fill="#5b2600" fill-rule="evenodd" stroke="none"/>
    <path d="M167.4 4.95 L166.45 5.9 168.8 8.25 167.7 9.3 165.55 7.15 163.2 9.5 160.85 7.15 158.55 9.5 156.2 7.15 153.85 9.5 151.55 7.15 149.2 9.5 146.85 7.15 144.55 9.5 142.2 7.15 141.5 7.85 141.5 4.95 167.4 4.95" fill="#5b2600" fill-rule="evenodd" stroke="none"/>
    <path d="M600.15 395.25 L569.5 395.25 569.5 388.55 571.85 385.4 574.8 388.35 577.15 386.0 579.5 388.35 581.8 386.0 584.15 388.35 586.5 386.0 588.8 388.35 591.15 386.0 593.5 388.35 595.8 386.0 598.15 388.35 600.5 386.0 600.15 395.25" fill="#863200" fill-rule="evenodd" stroke="none"/>
    <path d="M600.15 400.3 L569.5 400.3 569.5 393.6 571.85 390.45 574.8 393.4 577.15 391.05 579.5 393.4 581.8 391.05 584.15 393.4 586.5 391.05 588.8 393.4 591.15 391.05 593.5 393.4 595.8 391.05 598.15 393.4 600.5 391.05 600.15 400.3" fill="#5b2600" fill-rule="evenodd" stroke="none"/>
    <path d="M266.1 143.3 L266.9 143.3 266.9 144.85 269.65 150.0 269.65 150.45 295.55 150.45 295.55 150.05 295.75 150.45 296.6 150.45 296.6 151.95 299.3 157.15 325.85 157.15 325.85 156.95 329.6 164.05 329.6 193.9 325.85 186.8 325.85 187.0 298.3 187.0 298.3 185.05 295.75 180.3 269.0 180.3 269.0 178.7 266.1 173.15 158.85 173.15 155.9 178.7 155.9 180.3 129.15 180.3 126.65 185.05 126.65 187.0 99.1 187.0 99.1 186.8 95.35 193.9 95.35 164.05 99.1 156.95 99.1 157.15 125.65 157.15 128.35 151.95 128.35 150.45 129.15 150.45 129.4 150.05 129.4 150.45 155.3 150.45 155.3 150.0 158.0 144.85 158.0 143.3 158.85 143.3 159.05 142.9 159.05 143.3 265.9 143.3 265.9 142.9 266.1 143.3" fill="#000000" fill-opacity="0.3019608" fill-rule="evenodd" stroke="none"/>
  </g>
</svg>
