<?xml version="1.0" encoding="UTF-8" standalone="no"?>
<svg xmlns:xlink="http://www.w3.org/1999/xlink" height="379.85px" width="39.75px" xmlns="http://www.w3.org/2000/svg">
  <g transform="matrix(1.0, 0.0, 0.0, 1.0, -561.75, -15.3)">
    <path d="M591.5 23.65 L590.7 15.45 597.3 16.95 600.5 15.3 600.5 29.3 596.8 28.8 595.0 31.25 591.5 23.65 M600.5 37.3 L600.5 47.6 591.5 40.15 596.65 39.15 600.5 37.3 M600.5 104.65 L601.0 131.65 596.25 130.9 586.65 107.0 600.5 104.65 M592.95 161.65 L600.45 167.65 600.45 212.15 597.45 212.15 587.3 162.3 592.95 161.65 M601.0 227.15 L601.5 248.15 594.65 251.0 588.0 231.15 601.0 227.15 M576.5 288.65 L586.5 290.15 601.0 284.65 601.0 329.65 591.35 329.0 576.5 288.65 M566.0 383.65 L574.0 351.65 587.5 355.65 601.0 368.15 600.5 395.15 561.75 390.05 566.0 383.65" fill="#999999" fill-opacity="0.2901961" fill-rule="evenodd" stroke="none"/>
  </g>
</svg>
