<?xml version="1.0" encoding="UTF-8" standalone="no"?>
<svg xmlns:xlink="http://www.w3.org/1999/xlink" height="88.65px" width="100.75px" xmlns="http://www.w3.org/2000/svg">
  <g transform="matrix(1.0, 0.0, 0.0, 1.0, 51.7, 46.7)">
    <path d="M45.8 18.45 L48.9 16.05 48.9 16.45 45.8 18.7 45.8 18.45" fill="#ff9000" fill-rule="evenodd" stroke="none"/>
    <path d="M15.65 13.45 L30.9 1.95 32.15 1.2 36.9 5.3 49.05 15.7 48.9 16.05 45.8 18.45 15.65 13.45" fill="#ff6f00" fill-rule="evenodd" stroke="none"/>
    <path d="M18.8 0.8 L20.05 1.95 Q22.05 6.95 19.05 8.45 16.6 6.65 17.4 1.95 L18.05 0.95 18.8 0.8 M27.3 2.55 L26.4 1.95 Q23.85 -3.4 27.05 -4.95 29.9 -1.4 28.3 1.95 L27.3 2.55" fill="#000000" fill-rule="evenodd" stroke="none"/>
    <path d="M22.8 -10.95 Q25.35 -14.2 27.15 -10.95 30.55 -5.9 28.9 1.95 27.05 6.45 24.15 1.95 20.85 -5.15 22.8 -10.95 M27.3 2.55 L28.3 1.95 Q29.9 -1.4 27.05 -4.95 23.85 -3.4 26.4 1.95 L27.3 2.55 M18.8 0.8 L18.05 0.95 17.4 1.95 Q16.6 6.65 19.05 8.45 22.05 6.95 20.05 1.95 L18.8 0.8 M15.55 7.05 L14.05 1.95 Q13.1 -6.4 16.9 -6.95 19.9 -6.9 21.4 1.95 22.15 9.85 18.4 10.05 16.1 9.05 15.55 7.05" fill="#ffffff" fill-rule="evenodd" stroke="none"/>
    <path d="M1.3 -22.2 L27.55 -38.95 37.4 3.05 37.65 4.55 36.9 5.3 32.15 1.2 30.9 1.95 15.65 13.45 17.15 17.8 20.05 17.95 12.9 23.45 12.55 23.3 1.3 -22.2 M22.8 -10.95 Q20.85 -5.15 24.15 1.95 27.05 6.45 28.9 1.95 30.55 -5.9 27.15 -10.95 25.35 -14.2 22.8 -10.95 M15.55 7.05 Q16.1 9.05 18.4 10.05 22.15 9.85 21.4 1.95 19.9 -6.9 16.9 -6.95 13.1 -6.4 14.05 1.95 L15.55 7.05" fill="#ffff61" fill-rule="evenodd" stroke="none"/>
    <path d="M12.55 23.3 L12.9 23.45 20.05 17.95 29.05 18.2 28.8 28.55 11.65 41.95 11.8 40.55 11.9 23.2 12.55 23.3" fill="#ffff5c" fill-rule="evenodd" stroke="none"/>
    <path d="M1.3 -22.2 L12.55 23.3 11.9 23.2 11.8 40.55 11.65 41.95 -16.45 31.3 -42.95 12.8 -43.35 1.7 -41.7 1.95 -39.45 2.55 -31.85 4.45 -24.95 6.2 -25.1 0.2 -25.1 0.05 -25.2 -6.45 -25.2 -6.55 -25.35 -9.8 -25.7 -30.55 1.3 -22.2 M-43.1 1.3 L-51.7 -5.2 -49.1 -8.45 -39.35 -1.05 -43.1 1.3" fill="#dcbe2b" fill-rule="evenodd" stroke="none"/>
    <path d="M20.05 17.95 L17.15 17.8 15.65 13.45 45.8 18.45 45.8 18.7 29.05 18.2 20.05 17.95" fill="#e64400" fill-rule="evenodd" stroke="none"/>
    <path d="M-25.2 -6.55 L-25.2 -6.45 -25.35 -6.45 -25.2 -6.55 M-25.1 0.05 L-25.1 0.2 -25.2 0.2 -25.1 0.05" fill="#ffff5e" fill-rule="evenodd" stroke="none"/>
    <path d="M-31.2 -6.3 L-25.35 -9.8 -25.2 -6.55 -25.35 -6.45 -39.45 2.55 -41.7 1.95 -43.35 1.7 -43.1 1.3 -39.35 -1.05 -31.2 -6.3" fill="#fff142" fill-rule="evenodd" stroke="none"/>
    <path d="M-25.35 -6.45 L-25.2 -6.45 -25.1 0.05 -25.2 0.2 -31.85 4.45 -39.45 2.55 -25.35 -6.45" fill="#ffed40" fill-rule="evenodd" stroke="none"/>
    <path d="M27.55 -38.95 L1.3 -22.2 -25.7 -30.55 1.3 -46.7 27.55 -38.95 M-25.1 0.2 L-24.95 6.2 -31.85 4.45 -25.2 0.2 -25.1 0.2" fill="#ffe93e" fill-rule="evenodd" stroke="none"/>
    <path d="M-49.1 -8.45 L-36.1 -16.3 -31.2 -6.3 -39.35 -1.05 -49.1 -8.45" fill="#ffff5d" fill-rule="evenodd" stroke="none"/>
  </g>
</svg>
