<?xml version="1.0" encoding="UTF-8" standalone="no"?>
<svg xmlns:xlink="http://www.w3.org/1999/xlink" height="87.15px" width="108.75px" xmlns="http://www.w3.org/2000/svg">
  <g transform="matrix(1.0, 0.0, 0.0, 1.0, 55.95, 46.45)">
    <path d="M29.65 -0.95 Q28.55 4.1 25.9 -0.05 L24.4 -4.05 Q23.3 -9.4 23.65 -10.95 25.1 -18.2 28.3 -10.95 L29.3 -7.95 29.8 -2.45 28.55 -6.55 27.4 -7.2 26.65 -5.8 Q27.15 2.5 29.65 -0.95 M24.05 5.2 Q22.3 13.05 18.55 1.95 16.65 -8.45 19.8 -8.3 23.35 -6.45 24.15 1.95 L24.05 4.7 23.65 1.95 Q21.75 -3.6 20.9 1.95 L21.15 4.05 21.9 6.05 22.9 6.7 23.4 6.55 24.05 5.2" fill="#ffffff" fill-rule="evenodd" stroke="none"/>
    <path d="M29.8 -2.45 L29.3 -7.95 28.3 -10.95 Q25.1 -18.2 23.65 -10.95 23.3 -9.4 24.4 -4.05 L25.9 -0.05 Q28.55 4.1 29.65 -0.95 L29.65 -1.55 29.8 -2.2 29.8 -2.45 M24.05 4.7 L24.15 1.95 Q23.35 -6.45 19.8 -8.3 16.65 -8.45 18.55 1.95 22.3 13.05 24.05 5.2 L24.05 4.7 M36.4 1.2 L32.05 -1.45 20.4 11.95 21.8 16.2 24.15 16.05 19.05 22.2 18.8 22.05 6.4 -22.3 25.3 -40.8 36.4 1.2" fill="#ffff6a" fill-rule="evenodd" stroke="none"/>
    <path d="M29.65 -0.95 Q27.15 2.5 26.65 -5.8 L27.4 -7.2 28.55 -6.55 29.8 -2.45 29.8 -2.2 29.65 -1.55 29.65 -0.95 M24.05 5.2 L23.4 6.55 22.9 6.7 21.9 6.05 21.15 4.05 20.9 1.95 Q21.75 -3.6 23.65 1.95 L24.05 4.7 24.05 5.2" fill="#000000" fill-rule="evenodd" stroke="none"/>
    <path d="M20.4 11.95 L32.05 -1.45 36.4 1.2 52.8 11.3 52.8 11.8 52.4 12.2 52.3 12.45 51.9 12.8 51.9 12.95 51.55 13.3 51.4 13.55 51.05 13.95 50.9 14.2 50.55 14.2 20.4 11.95" fill="#ff7000" fill-rule="evenodd" stroke="none"/>
    <path d="M20.4 11.95 L50.55 14.2 50.65 14.55 28.55 15.8 24.15 16.05 21.8 16.2 20.4 11.95" fill="#e64400" fill-rule="evenodd" stroke="none"/>
    <path d="M18.8 22.05 L19.05 22.2 24.15 16.05 28.55 15.8 28.3 26.2 16.3 40.55 16.4 21.55 18.8 22.05" fill="#ffff66" fill-rule="evenodd" stroke="none"/>
    <path d="M50.55 14.2 L50.9 14.2 50.65 14.55 50.55 14.2" fill="#ffa000" fill-rule="evenodd" stroke="none"/>
    <path d="M-23.2 -1.45 L-23.35 -1.3 -23.2 -1.3 -23.1 7.7 -23.95 8.55 -40.95 6.05 -29.35 -4.7 -27.2 -7.05 -23.35 -6.55 -23.2 -1.45" fill="#f3d636" fill-rule="evenodd" stroke="none"/>
    <path d="M6.4 -22.3 L18.8 22.05 16.4 21.55 16.3 40.55 16.15 40.7 16.05 40.7 -15.1 32.95 -44.95 16.8 -45.45 5.95 -55.95 -0.55 -52.85 -4.05 -43.45 1.95 -42.45 2.7 -36.2 -3.2 -31.45 -7.55 -27.2 -7.05 -29.35 -4.7 -40.95 6.05 -23.95 8.55 -22.95 8.7 -23.1 7.7 -23.2 -1.3 -23.2 -1.45 -23.35 -6.55 -23.7 -28.55 6.4 -22.3" fill="#dcbe2b" fill-rule="evenodd" stroke="none"/>
    <path d="M-23.2 -1.3 L-23.35 -1.3 -23.2 -1.45 -23.2 -1.3" fill="#ffff67" fill-rule="evenodd" stroke="none"/>
    <path d="M-36.2 -3.2 L-42.45 2.7 -43.45 1.95 -52.85 -4.05 -42.85 -13.05 -42.35 -12.95 -36.2 -3.2" fill="#ffff63" fill-rule="evenodd" stroke="none"/>
    <path d="M-23.95 8.55 L-23.1 7.7 -22.95 8.7 -23.95 8.55" fill="#ffe33c" fill-rule="evenodd" stroke="none"/>
    <path d="M25.3 -40.8 L6.4 -22.3 -23.7 -28.55 -3.7 -46.45 25.3 -40.8" fill="#ffe93e" fill-rule="evenodd" stroke="none"/>
  </g>
</svg>
