<?xml version="1.0" encoding="UTF-8" standalone="no"?>
<svg xmlns:xlink="http://www.w3.org/1999/xlink" height="85.15px" width="113.35px" xmlns="http://www.w3.org/2000/svg">
  <g transform="matrix(1.0, 0.0, 0.0, 1.0, 58.45, 45.95)">
    <path d="M-20.85 -26.8 L-8.35 -45.95 22.05 -42.7 22.3 -42.3 11.4 -22.95 -20.85 -26.8" fill="#ffe93e" fill-rule="evenodd" stroke="none"/>
    <path d="M28.8 -8.3 L28.05 -9.3 27.4 -9.3 27.15 -6.45 28.15 -2.95 28.4 -2.45 29.4 -2.3 29.4 -1.05 29.3 -0.7 Q26.4 0.15 24.55 -10.95 23.9 -22.2 28.3 -10.95 L28.8 -8.3 M25.65 -1.55 Q23.1 -5.05 24.3 1.95 L24.9 3.7 25.4 4.55 26.3 4.45 26.3 5.7 26.15 6.05 25.4 6.45 24.65 6.05 22.65 1.95 21.05 -5.45 21.05 -8.7 21.55 -9.8 Q24.7 -8.7 25.65 -1.55" fill="#ffffff" fill-rule="evenodd" stroke="none"/>
    <path d="M22.3 -42.3 L33.8 -2.8 30.8 -3.95 29.4 -1.05 29.4 -2.3 29.65 -4.55 28.8 -8.3 28.3 -10.95 Q23.9 -22.2 24.55 -10.95 26.4 0.15 29.3 -0.7 L26.3 5.7 26.3 4.45 26.4 1.95 25.65 -1.55 Q24.7 -8.7 21.55 -9.8 L21.05 -8.7 21.05 -5.45 22.65 1.95 24.65 6.05 25.4 6.45 26.15 6.05 24.4 10.05 25.8 14.05 27.3 14.05 27.05 15.05 24.55 20.05 11.4 -22.95 22.3 -42.3" fill="#ffff72" fill-rule="evenodd" stroke="none"/>
    <path d="M29.4 -2.3 L28.4 -2.45 28.15 -2.95 27.15 -6.45 27.4 -9.3 28.05 -9.3 28.8 -8.3 29.65 -4.55 29.4 -2.3 M26.3 4.45 L25.4 4.55 24.9 3.7 24.3 1.95 Q23.1 -5.05 25.65 -1.55 L26.4 1.95 26.3 4.45" fill="#000000" fill-rule="evenodd" stroke="none"/>
    <path d="M33.8 -2.8 L54.3 6.45 54.9 6.8 53.9 9.7 24.4 10.05 26.15 6.05 26.3 5.7 29.3 -0.7 29.4 -1.05 30.8 -3.95 33.8 -2.8" fill="#ff7200" fill-rule="evenodd" stroke="none"/>
    <path d="M53.9 9.7 L53.8 10.2 27.3 14.05 25.8 14.05 24.4 10.05 53.9 9.7" fill="#e64400" fill-rule="evenodd" stroke="none"/>
    <path d="M27.05 15.05 L26.8 24.2 20.15 38.95 20.4 19.8 24.4 20.3 24.55 20.05 27.05 15.05" fill="#ffff6e" fill-rule="evenodd" stroke="none"/>
    <path d="M20.15 38.95 L19.9 39.2 -13.2 34.3 -45.45 21.05 -46.1 11.05 -58.45 4.45 -51.7 -5.3 -49.45 -7.55 -54.95 0.45 -44.2 6.7 -40.1 0.45 -36.6 -4.7 -32.1 -4.45 -41.35 9.8 -20.35 10.8 -20.35 7.2 -20.35 6.8 -20.6 -3.95 -20.85 -26.8 11.4 -22.95 24.55 20.05 24.4 20.3 20.4 19.8 20.15 38.95" fill="#dcbe2b" fill-rule="evenodd" stroke="none"/>
    <path d="M-32.1 -4.45 L-20.6 -3.95 -20.35 6.8 -20.45 7.2 -20.35 7.2 -20.35 10.8 -41.35 9.8 -32.1 -4.45" fill="#e7ca30" fill-rule="evenodd" stroke="none"/>
    <path d="M-49.45 -7.55 L-48.2 -9.3 -47.85 -9.2 -40.1 0.45 -44.2 6.7 -54.95 0.45 -49.45 -7.55" fill="#ffff67" fill-rule="evenodd" stroke="none"/>
    <path d="M-20.35 7.2 L-20.45 7.2 -20.35 6.8 -20.35 7.2" fill="#ffff6f" fill-rule="evenodd" stroke="none"/>
  </g>
</svg>
