<?xml version="1.0" encoding="UTF-8" standalone="no"?>
<svg xmlns:xlink="http://www.w3.org/1999/xlink" height="82.25px" width="114.4px" xmlns="http://www.w3.org/2000/svg">
  <g transform="matrix(1.0, 0.0, 0.0, 1.0, 59.1, 45.05)">
    <path d="M30.3 -6.05 L54.9 1.95 55.3 2.05 55.3 5.05 27.8 7.8 27.9 4.2 28.05 2.45 28.3 1.95 28.3 -0.45 28.55 -2.8 28.65 -4.45 28.9 -6.45 30.3 -6.05" fill="#ff7300" fill-rule="evenodd" stroke="none"/>
    <path d="M28.65 -4.45 L28.55 -2.8 27.8 -3.2 26.9 -5.05 25.15 -10.95 Q21.95 -25.65 27.05 -11.55 L26.65 -11.45 26.65 -10.95 27.4 -6.55 28.05 -4.8 28.65 -4.45 M28.05 2.45 L27.9 4.2 27.3 3.95 26.8 3.05 24.4 -4.05 Q22.95 -9.65 23.3 -10.95 L23.4 -11.7 23.8 -11.7 24.3 -10.95 25.4 -8.55 26.55 -4.7 26.05 -4.7 26.05 -3.2 27.4 1.95 28.05 2.45" fill="#ffffff" fill-rule="evenodd" stroke="none"/>
    <path d="M29.65 11.8 L29.3 17.7 16.15 -23.8 16.05 -23.95 18.8 -43.55 30.3 -6.05 28.9 -6.45 28.4 -8.95 27.55 -10.95 27.05 -11.55 Q21.95 -25.65 25.15 -10.95 L26.9 -5.05 27.8 -3.2 28.55 -2.8 28.3 -0.45 27.3 -3.55 26.55 -4.7 25.4 -8.55 24.3 -10.95 23.8 -11.7 23.4 -11.7 23.3 -10.95 Q22.95 -9.65 24.4 -4.05 L26.8 3.05 27.3 3.95 27.9 4.2 27.8 7.8 28.9 11.45 29.05 11.8 29.65 11.8" fill="#ffff77" fill-rule="evenodd" stroke="none"/>
    <path d="M28.9 -6.45 L28.65 -4.45 28.05 -4.8 27.4 -6.55 26.65 -10.95 26.65 -11.45 27.05 -11.55 27.55 -10.95 28.4 -8.95 28.9 -6.45 M28.3 -0.45 L28.3 1.95 28.05 2.45 27.4 1.95 26.05 -3.2 26.05 -4.7 26.55 -4.7 27.3 -3.55 28.3 -0.45" fill="#000000" fill-rule="evenodd" stroke="none"/>
    <path d="M29.3 17.7 L25.05 17.8 23.8 17.7 23.55 34.7 23.4 37.2 -10.85 35.7 -44.7 25.2 -45.2 15.95 -58.95 9.8 -59.1 9.2 -55.85 -0.8 -52.45 -4.7 -55.6 5.3 -44.45 10.8 -42.6 4.55 -40.85 -1.3 -36.2 -1.45 -40.2 13.55 -16.85 12.55 -17.1 -2.2 -17.1 -2.3 -17.35 -25.2 16.05 -23.95 16.15 -23.8 29.3 17.7" fill="#dcbe2b" fill-rule="evenodd" stroke="none"/>
    <path d="M55.3 5.05 L55.3 5.45 29.65 11.8 29.05 11.8 28.9 11.45 27.8 7.8 55.3 5.05" fill="#f04b00" fill-rule="evenodd" stroke="none"/>
    <path d="M25.05 17.8 L23.55 34.7 23.8 17.7 25.05 17.8" fill="#ffff73" fill-rule="evenodd" stroke="none"/>
    <path d="M-17.35 -25.2 L-12.7 -45.05 18.8 -44.05 18.8 -43.55 16.05 -23.95 -17.35 -25.2" fill="#ffe93e" fill-rule="evenodd" stroke="none"/>
    <path d="M-52.45 -4.7 L-51.95 -4.95 -42.6 4.55 -44.45 10.8 -55.6 5.3 -52.45 -4.7" fill="#ffff6b" fill-rule="evenodd" stroke="none"/>
    <path d="M-36.2 -1.45 L-17.2 -2.2 -17.1 -2.2 -16.85 12.55 -40.2 13.55 -36.2 -1.45" fill="#e7ca30" fill-rule="evenodd" stroke="none"/>
    <path d="M-17.2 -2.2 L-17.1 -2.3 -17.1 -2.2 -17.2 -2.2" fill="#ffff75" fill-rule="evenodd" stroke="none"/>
  </g>
</svg>
