<?xml version="1.0" encoding="UTF-8" standalone="no"?>
<svg xmlns:xlink="http://www.w3.org/1999/xlink" height="81.9px" width="113.5px" xmlns="http://www.w3.org/2000/svg">
  <g transform="matrix(1.0, 0.0, 0.0, 1.0, 58.45, 45.2)">
    <path d="M24.15 -13.45 L24.4 -13.55 22.4 -19.95 22.65 -20.2 25.15 -13.55 25.55 -11.55 25.8 -10.95 29.05 0.05 29.3 1.2 29.05 1.8 24.15 -13.45" fill="#ffffff" fill-rule="evenodd" stroke="none"/>
    <path d="M22.65 -20.2 L22.4 -19.95 24.4 -13.55 24.15 -13.45 20.3 -25.3 17.15 -36.7 17.15 -36.95 22.65 -20.2" fill="#ffff7b" fill-rule="evenodd" stroke="none"/>
    <path d="M29.05 1.8 L29.3 1.2 29.05 0.05 Q30.1 -2.75 27.4 -6.8 L27.4 -8.3 54.05 -2.45 55.05 0.45 30.05 5.45 29.05 1.95 29.05 1.8" fill="#ff7300" fill-rule="evenodd" stroke="none"/>
    <path d="M55.05 0.45 L55.05 0.8 31.4 9.3 30.05 5.45 55.05 0.45" fill="#ff6100" fill-rule="evenodd" stroke="none"/>
    <path d="M29.05 0.05 L25.8 -10.95 25.55 -11.55 25.15 -13.55 26.3 -12.55 27.4 -8.3 27.4 -6.8 Q30.1 -2.75 29.05 0.05" fill="#000000" fill-rule="evenodd" stroke="none"/>
    <path d="M24.15 -13.45 L29.05 1.8 29.05 1.95 30.05 5.45 31.4 9.3 33.15 15.3 26.55 15.55 26.05 34.95 -7.95 36.7 -42.35 29.3 -42.95 20.7 -42.85 20.7 -42.85 17.7 -43.2 15.05 -43.1 14.8 -43.7 8.8 -43.85 8.7 -43.7 8.7 -43.95 2.45 -39.2 1.95 -37.85 17.05 -27.95 15.8 -13.35 13.95 -15.7 -1.05 -16.2 -4.55 -16.6 -42.7 -13.2 -23.8 20.3 -25.3 24.15 -13.45 M-58.1 14.7 L-58.45 4.2 -54.85 -0.2 -54.35 10.3 -58.1 14.7" fill="#dcbe2b" fill-rule="evenodd" stroke="none"/>
    <path d="M17.15 -36.95 L17.15 -36.7 20.3 -25.3 -13.2 -23.8 -16.6 -42.7 -16.6 -43.95 14.8 -45.2 16.9 -37.8 17.05 -37.45 17.15 -36.95" fill="#ffe93e" fill-rule="evenodd" stroke="none"/>
    <path d="M-39.2 1.95 L-29.7 0.7 -28.6 7.55 -27.95 15.8 -37.85 17.05 -39.2 1.95" fill="#e7c930" fill-rule="evenodd" stroke="none"/>
    <path d="M-54.85 -0.2 L-54.45 -0.3 -43.85 8.7 -43.7 8.8 -43.1 14.8 -43.2 15.05 -54.35 10.3 -54.85 -0.2" fill="#ffff6d" fill-rule="evenodd" stroke="none"/>
    <path d="M-42.95 20.7 L-56.6 15.55 -58.1 14.7 -54.35 10.3 -43.2 15.05 -42.85 17.7 -42.85 20.7 -42.95 20.7" fill="#eece33" fill-rule="evenodd" stroke="none"/>
    <path d="M-29.7 0.7 L-15.7 -1.05 -13.35 13.95 -27.95 15.8 -28.6 7.55 -29.7 0.7" fill="#e7ca30" fill-rule="evenodd" stroke="none"/>
  </g>
</svg>
