<?xml version="1.0" encoding="UTF-8" standalone="no"?>
<svg xmlns:xlink="http://www.w3.org/1999/xlink" height="84.35px" width="107.75px" xmlns="http://www.w3.org/2000/svg">
  <g transform="matrix(1.0, 0.0, 0.0, 1.0, 58.1, 46.55)">
    <path d="M31.55 -11.45 L46.9 -10.7 49.65 -8.2 34.55 -0.95 31.65 -10.95 31.55 -11.45" fill="#ff7300" fill-rule="evenodd" stroke="none"/>
    <path d="M34.55 -0.95 L49.65 -8.2 49.4 -7.7 35.4 2.05 35.4 1.95 34.55 -0.95" fill="#ff8a00" fill-rule="evenodd" stroke="none"/>
    <path d="M31.55 -11.45 L31.65 -10.95 34.55 -0.95 35.4 1.95 35.4 2.05 37.4 9.2 29.05 11.3 -3.2 19.2 -3.6 18.95 -3.6 -22.3 26.4 -28.8 31.55 -11.45 M-1.7 37.8 L-30.85 36.8 -33.6 36.45 -33.85 24.95 -29.35 23.45 -20.2 20.45 -6.6 15.95 -6.2 16.45 -1.7 37.8" fill="#fbdb38" fill-rule="evenodd" stroke="none"/>
    <path d="M-23.1 -40.55 L-21.35 -41.2 5.65 -46.55 26.4 -28.8 -3.6 -22.3 -23.1 -40.55" fill="#ffe93e" fill-rule="evenodd" stroke="none"/>
    <path d="M-33.6 36.45 L-33.85 36.2 -33.95 36.05 -33.95 35.95 -40.95 27.45 -39.45 27.7 -37.35 28.3 -37.2 27.7 -37.35 22.95 -37.6 22.55 -42.7 16.55 -45.6 14.8 -45.85 14.7 -45.85 14.55 -45.95 10.95 -45.45 10.3 -41.6 9.2 -39.6 11.05 -29.35 23.45 -33.85 24.95 -33.6 36.45 M-50.1 24.8 L-58.1 14.55 -54.85 9.45 -54.45 9.55 -46.35 19.45 -50.1 24.8 M-19.6 2.2 L-19.45 1.95 -22.35 -1.05 -23.1 -40.55 -3.6 -22.3 -3.6 18.95 -6.2 16.45 -6.6 15.95 -7.45 14.8 -19.6 2.2" fill="#dcbe2b" fill-rule="evenodd" stroke="none"/>
    <path d="M-54.45 9.55 L-45.95 14.55 -45.85 14.7 -45.6 14.8 -42.7 16.55 -37.6 22.55 -46.35 19.45 -54.45 9.55" fill="#ffff6c" fill-rule="evenodd" stroke="none"/>
    <path d="M-45.95 14.55 L-45.85 14.55 -45.85 14.7 -45.95 14.55" fill="#ffe03b" fill-rule="evenodd" stroke="none"/>
    <path d="M-41.6 9.2 L-32.6 6.3 -26.35 12.95 -20.2 20.45 -29.35 23.45 -39.6 11.05 -41.6 9.2" fill="#e7c930" fill-rule="evenodd" stroke="none"/>
    <path d="M-40.95 27.45 L-41.1 27.3 -50.1 24.8 -46.35 19.45 -37.6 22.55 -37.35 22.95 -37.2 27.7 -37.35 28.3 -39.45 27.7 -40.95 27.45" fill="#ffff4b" fill-rule="evenodd" stroke="none"/>
    <path d="M-32.6 6.3 L-19.6 2.2 -7.45 14.8 -6.6 15.95 -20.2 20.45 -26.35 12.95 -32.6 6.3" fill="#e7ca30" fill-rule="evenodd" stroke="none"/>
    <path d="M29.05 11.3 L28.65 30.05 -1.7 37.8 -6.2 16.45 -3.6 18.95 -3.2 19.2 29.05 11.3" fill="#fcdc39" fill-rule="evenodd" stroke="none"/>
  </g>
</svg>
