<?xml version="1.0" encoding="UTF-8" standalone="no"?>
<svg xmlns:xlink="http://www.w3.org/1999/xlink" height="86.15px" width="100.0px" xmlns="http://www.w3.org/2000/svg">
  <g transform="matrix(1.0, 0.0, 0.0, 1.0, 55.2, 46.7)">
    <path d="M35.05 -4.95 L43.4 -10.95 44.8 -11.8 44.8 -11.45 35.8 -2.3 35.05 -4.95" fill="#ff9b00" fill-rule="evenodd" stroke="none"/>
    <path d="M44.8 -11.8 L43.4 -10.95 35.05 -4.95 32.8 -13.95 41.4 -14.2 44.8 -12.2 44.8 -11.8" fill="#ff7200" fill-rule="evenodd" stroke="none"/>
    <path d="M35.05 -4.95 L35.8 -2.3 37.9 5.95 29.15 9.3 1.9 19.3 1.3 19.2 1.55 -22.2 28.15 -30.8 32.8 -13.95 35.05 -4.95" fill="#fff845" fill-rule="evenodd" stroke="none"/>
    <path d="M29.15 9.3 L28.65 27.55 1.55 37.95 -2.45 16.7 1.3 19.2 1.9 19.3 29.15 9.3" fill="#fff946" fill-rule="evenodd" stroke="none"/>
    <path d="M-27.35 39.45 L-27.6 39.3 -38.85 30.3 -32.6 31.55 -32.6 26.2 -32.95 25.8 -40.2 20.2 -44.7 17.95 -44.7 17.8 -44.85 14.8 -40.7 12.8 -23.45 25.95 -27.6 27.8 -27.35 39.45 M-43.35 29.2 L-55.2 19.8 -52.1 14.2 -51.85 14.2 -51.45 14.45 -39.95 23.45 -43.35 29.2 M-20.45 3.95 L-24.35 1.05 -25.2 -38.8 1.55 -22.2 1.3 19.2 -2.45 16.7 -2.85 16.45 -20.45 3.95" fill="#dcbe2b" fill-rule="evenodd" stroke="none"/>
    <path d="M-51.45 14.45 L-44.85 17.8 -44.7 17.95 -40.2 20.2 -32.95 25.8 -39.95 23.45 -51.45 14.45" fill="#ffff6a" fill-rule="evenodd" stroke="none"/>
    <path d="M-44.85 17.8 L-44.7 17.8 -44.7 17.95 -44.85 17.8" fill="#fffc47" fill-rule="evenodd" stroke="none"/>
    <path d="M-38.85 30.3 L-38.95 30.3 -39.1 30.2 -43.35 29.2 -39.95 23.45 -32.95 25.8 -32.6 26.2 -32.6 31.55 -38.85 30.3" fill="#ffff56" fill-rule="evenodd" stroke="none"/>
    <path d="M1.55 37.95 L-27.35 39.45 -27.6 27.8 -23.45 25.95 -15.1 22.05 -2.85 16.45 -2.45 16.7 1.55 37.95" fill="#fff745" fill-rule="evenodd" stroke="none"/>
    <path d="M-40.7 12.8 L-32.7 9.3 -23.95 15.2 -15.1 22.05 -23.45 25.95 -40.7 12.8" fill="#e7c930" fill-rule="evenodd" stroke="none"/>
    <path d="M-32.7 9.3 L-20.45 3.95 -2.85 16.45 -15.1 22.05 -23.95 15.2 -32.7 9.3" fill="#e7ca30" fill-rule="evenodd" stroke="none"/>
    <path d="M-25.2 -38.8 L1.05 -46.7 28.15 -30.8 1.55 -22.2 -25.2 -38.8" fill="#ffe93e" fill-rule="evenodd" stroke="none"/>
  </g>
</svg>
