<?xml version="1.0" encoding="UTF-8" standalone="no"?>
<svg xmlns:xlink="http://www.w3.org/1999/xlink" height="88.25px" width="89.75px" xmlns="http://www.w3.org/2000/svg">
  <g transform="matrix(1.0, 0.0, 0.0, 1.0, 50.6, 46.45)">
    <path d="M34.9 -8.2 L34.4 -9.8 39.05 -14.8 34.9 -8.2" fill="#ffa900" fill-rule="evenodd" stroke="none"/>
    <path d="M34.4 -9.8 L32.9 -16.95 35.15 -17.05 39.15 -15.3 39.05 -14.8 34.4 -9.8" fill="#ff7100" fill-rule="evenodd" stroke="none"/>
    <path d="M32.9 -16.95 L34.4 -9.8 34.9 -8.2 37.15 2.95 28.15 7.8 27.9 25.2 4.65 37.7 1.3 16.7 6.3 19.05 6.55 -22.3 29.3 -32.8 32.9 -16.95" fill="#ffff52" fill-rule="evenodd" stroke="none"/>
    <path d="M29.3 -32.8 L6.55 -22.3 -25.85 -36.7 -26.6 -36.8 -4.7 -46.2 -3.35 -46.45 29.3 -32.8" fill="#ffe93e" fill-rule="evenodd" stroke="none"/>
    <path d="M6.55 -22.3 L6.3 19.05 1.3 16.7 1.15 16.7 -20.85 5.7 -25.45 3.45 -25.6 3.05 -26.6 -36.8 -25.85 -36.7 6.55 -22.3 M-20.2 41.8 L-20.45 41.7 -41.85 29.95 -41.85 29.3 -50.6 24.55 -50.45 24.3 -47.7 18.55 -47.6 18.55 -42.2 20.95 -42.35 18.55 -38.6 16.3 -16.85 27.8 -20.35 30.05 -20.1 40.55 -20.2 41.8 M-27.85 28.3 L-32.2 26.8 -35.2 32.8 -26.85 34.45 -26.85 28.8 -27.85 28.3" fill="#dcbe2b" fill-rule="evenodd" stroke="none"/>
    <path d="M-27.85 28.3 L-26.85 28.8 -26.85 34.45 -35.2 32.8 -32.2 26.8 -27.85 28.3" fill="#ffff60" fill-rule="evenodd" stroke="none"/>
    <path d="M-20.85 5.7 L1.15 16.7 -16.6 27.7 -16.85 27.8 -38.6 16.3 -20.85 5.7" fill="#e7ca30" fill-rule="evenodd" stroke="none"/>
    <path d="M1.3 16.7 L4.65 37.7 -20.2 41.8 -20.1 40.55 -20.35 30.05 -16.85 27.8 -16.6 27.7 1.15 16.7 1.3 16.7" fill="#ffff51" fill-rule="evenodd" stroke="none"/>
  </g>
</svg>
