<?xml version="1.0" encoding="UTF-8" standalone="no"?>
<svg xmlns:xlink="http://www.w3.org/1999/xlink" height="89.4px" width="79.75px" xmlns="http://www.w3.org/2000/svg">
  <g transform="matrix(1.0, 0.0, 0.0, 1.0, 44.2, 45.95)">
    <path d="M29.4 -34.95 L35.55 0.3 26.8 6.8 26.4 22.95 7.8 37.3 4.9 16.55 4.9 16.45 10.8 18.45 11.3 -22.95 29.4 -34.95" fill="#ffff5c" fill-rule="evenodd" stroke="none"/>
    <path d="M11.3 -22.95 L10.8 18.45 4.9 16.45 -20.45 7.55 -26.1 5.55 -26.2 5.2 -27.1 -34.8 11.3 -22.95 M-12.6 43.45 L-12.85 43.3 -37.95 33.55 -38.1 31.2 -44.2 28.55 -41.85 22.45 -38.45 23.55 -38.45 22.05 -35.35 19.55 -9.7 29.05 -12.6 31.7 -12.6 43.45 M-20.35 30.95 L-23.45 29.3 -25.85 35.7 -20.35 36.55 -20.35 30.95" fill="#dcbe2b" fill-rule="evenodd" stroke="none"/>
    <path d="M4.9 16.45 L4.9 16.55 -9.7 29.05 -35.35 19.55 -20.45 7.55 4.9 16.45" fill="#e7ca30" fill-rule="evenodd" stroke="none"/>
    <path d="M4.9 16.55 L7.8 37.3 -12.6 43.45 -12.6 31.7 -9.7 29.05 4.9 16.55" fill="#ffff5b" fill-rule="evenodd" stroke="none"/>
    <path d="M29.4 -34.95 L11.3 -22.95 -27.1 -34.8 -8.2 -45.95 29.4 -34.95" fill="#ffe93e" fill-rule="evenodd" stroke="none"/>
    <path d="M-20.35 30.95 L-20.35 36.55 -25.85 35.7 -23.45 29.3 -20.35 30.95" fill="#ffff68" fill-rule="evenodd" stroke="none"/>
  </g>
</svg>
