<?xml version="1.0" encoding="UTF-8" standalone="no"?>
<svg xmlns:xlink="http://www.w3.org/1999/xlink" height="89.5px" width="69.75px" xmlns="http://www.w3.org/2000/svg">
  <g transform="matrix(1.0, 0.0, 0.0, 1.0, 36.6, 45.2)">
    <path d="M15.55 -23.8 L28.65 -36.7 28.9 -36.8 33.15 -2.45 24.4 7.3 15.05 17.3 15.55 -23.8" fill="#ffff66" fill-rule="evenodd" stroke="none"/>
    <path d="M28.9 -36.8 L28.65 -36.7 15.55 -23.8 -26.85 -32.8 -12.2 -45.2 28.9 -36.8" fill="#ffe93e" fill-rule="evenodd" stroke="none"/>
    <path d="M15.05 17.3 L24.4 7.3 Q24.6 19.2 24.05 21.05 L10.55 36.45 8.55 16.05 8.55 15.95 14.4 17.45 15.05 17.3" fill="#ffff65" fill-rule="evenodd" stroke="none"/>
    <path d="M-26.6 17.2 L2.05 24.2 -2.35 29.7 -31.2 22.55 -26.6 17.2" fill="#e7cb31" fill-rule="evenodd" stroke="none"/>
    <path d="M15.55 -23.8 L15.05 17.3 14.4 17.45 8.55 15.95 -19.85 9.2 -25.95 7.55 -26.85 -32.8 15.55 -23.8 M-4.6 44.3 L-4.7 44.2 -32.95 36.8 -33.35 33.2 -36.6 32.2 -34.85 25.8 -33.45 26.05 -33.45 25.2 -31.2 22.55 -2.35 29.7 -4.45 32.45 -4.6 44.3 M-14.1 31.05 L-15.95 37.7 -13.2 38.2 -13.2 32.55 -14.1 31.05" fill="#dcbe2b" fill-rule="evenodd" stroke="none"/>
    <path d="M-26.6 17.2 L-19.85 9.2 8.55 15.95 8.55 16.05 2.05 24.2 -26.6 17.2" fill="#e7ca30" fill-rule="evenodd" stroke="none"/>
    <path d="M2.05 24.2 L8.55 16.05 10.55 36.45 9.9 37.05 -4.6 44.3 -4.45 32.45 -2.35 29.7 2.05 24.2" fill="#ffff64" fill-rule="evenodd" stroke="none"/>
    <path d="M-14.1 31.05 L-13.2 32.55 -13.2 38.2 -15.95 37.7 -14.1 31.05" fill="#ffff6e" fill-rule="evenodd" stroke="none"/>
  </g>
</svg>
