<?xml version="1.0" encoding="UTF-8" standalone="no"?>
<svg xmlns:xlink="http://www.w3.org/1999/xlink" height="88.65px" width="57.85px" xmlns="http://www.w3.org/2000/svg">
  <g transform="matrix(1.0, 0.0, 0.0, 1.0, 27.95, 44.2)">
    <path d="M27.65 -38.7 L29.9 -4.7 21.65 11.05 21.65 19.05 13.05 35.45 11.8 15.55 11.8 15.2 18.8 16.05 18.65 14.8 19.4 -25.05 27.65 -38.7" fill="#ffff6d" fill-rule="evenodd" stroke="none"/>
    <path d="M-26.1 24.95 L-22.95 19.3 7.65 23.95 4.9 29.7 -26.1 24.95" fill="#e7cb31" fill-rule="evenodd" stroke="none"/>
    <path d="M3.4 44.45 L-27.35 39.45 -27.45 35.3 -27.95 35.05 -27.6 27.8 -26.1 24.95 4.9 29.7 3.55 32.7 3.4 44.45 M-18.35 10.8 L-25.1 9.8 -25.85 -30.95 19.4 -25.05 18.65 14.8 18.8 16.05 11.8 15.2 11.3 15.2 10.8 15.05 10.4 15.05 10.05 14.95 9.55 14.95 9.55 14.8 9.15 14.8 8.65 14.8 8.3 14.7 7.9 14.7 7.4 14.55 7.05 14.55 6.55 14.45 6.15 14.45 5.8 14.3 5.3 14.3 4.9 14.2 4.4 14.2 4.05 14.05 3.65 14.05 3.15 13.95 2.8 13.95 2.4 13.8 1.9 13.8 1.55 13.7 1.05 13.7 0.65 13.55 0.15 13.55 -0.2 13.45 -0.6 13.45 -1.1 13.3 -1.45 13.3 -1.85 13.2 -2.35 13.2 -2.7 13.05 -3.2 13.05 -3.6 12.95 -4.1 12.95 -4.45 12.8 -4.85 12.8 -5.35 12.7 -5.7 12.7 -6.1 12.55 -6.6 12.55 -6.95 12.45 -7.45 12.45 -7.85 12.3 -8.2 12.3 -8.7 12.2 -9.1 12.2 -9.6 12.05 -9.95 12.05 -10.35 11.95 -10.85 11.95 -11.2 11.8 -11.7 11.8 -12.1 11.7 -12.45 11.7 -12.95 11.55 -13.35 11.55 -13.7 11.45 -14.2 11.45 -14.6 11.3 -15.1 11.3 -15.45 11.2 -15.95 11.2 -16.35 11.05 -16.7 11.05 -17.2 10.95 -17.6 10.95 -17.95 10.8 -18.35 10.8" fill="#dcbe2b" fill-rule="evenodd" stroke="none"/>
    <path d="M-22.95 19.3 L-18.35 10.8 -17.95 10.8 -17.6 10.95 -17.2 10.95 -16.7 11.05 -16.35 11.05 -15.95 11.2 -15.45 11.2 -15.1 11.3 -14.6 11.3 -14.2 11.45 -13.7 11.45 -13.35 11.55 -12.95 11.55 -12.45 11.7 -12.1 11.7 -11.7 11.8 -11.2 11.8 -10.85 11.95 -10.35 11.95 -9.95 12.05 -9.6 12.05 -9.1 12.2 -8.7 12.2 -8.2 12.3 -7.85 12.3 -7.45 12.45 -6.95 12.45 -6.6 12.55 -6.1 12.55 -5.7 12.7 -5.35 12.7 -4.85 12.8 -4.45 12.8 -4.1 12.95 -3.6 12.95 -3.2 13.05 -2.7 13.05 -2.35 13.2 -1.85 13.2 -1.45 13.3 -1.1 13.3 -0.6 13.45 -0.2 13.45 0.15 13.55 0.65 13.55 1.05 13.7 1.55 13.7 1.9 13.8 2.4 13.8 2.8 13.95 3.15 13.95 3.65 14.05 4.05 14.05 4.4 14.2 4.9 14.2 5.3 14.3 5.8 14.3 6.15 14.45 6.55 14.45 7.05 14.55 7.4 14.55 7.9 14.7 8.3 14.7 8.65 14.8 9.15 14.8 9.55 14.95 10.05 14.95 10.4 15.05 10.8 15.05 11.3 15.2 11.8 15.2 11.8 15.55 7.65 23.95 -22.95 19.3" fill="#e7ca30" fill-rule="evenodd" stroke="none"/>
    <path d="M9.55 14.95 L9.15 14.8 9.55 14.8 9.55 14.95" fill="#fff142" fill-rule="evenodd" stroke="none"/>
    <path d="M13.05 35.45 L13.05 35.8 3.8 44.45 3.4 44.45 3.55 32.7 4.9 29.7 7.65 23.95 11.8 15.55 13.05 35.45" fill="#ffff6c" fill-rule="evenodd" stroke="none"/>
    <path d="M-25.85 -30.95 L-15.95 -44.2 27.65 -38.7 19.4 -25.05 -25.85 -30.95" fill="#ffe93e" fill-rule="evenodd" stroke="none"/>
  </g>
</svg>
