<?xml version="1.0" encoding="UTF-8" standalone="no"?>
<svg xmlns:xlink="http://www.w3.org/1999/xlink" height="86.9px" width="50.4px" xmlns="http://www.w3.org/2000/svg">
  <g transform="matrix(1.0, 0.0, 0.0, 1.0, 24.35, 42.95)">
    <path d="M25.65 -39.55 L26.05 -6.2 22.05 13.45 22.65 -26.45 25.65 -39.55" fill="#ffff73" fill-rule="evenodd" stroke="none"/>
    <path d="M-24.35 -29.05 L-19.2 -42.95 25.65 -40.55 25.65 -39.55 22.65 -26.45 -24.35 -29.05" fill="#ffe93e" fill-rule="evenodd" stroke="none"/>
    <path d="M22.05 13.45 L22.05 13.7 21.9 14.05 21.8 14.7 18.55 14.45 14.9 14.3 14.25 14.25 14.05 14.2 13.05 14.2 12.05 14.05 9.15 13.95 8.15 13.8 7.15 13.8 6.3 13.7 5.3 13.7 4.3 13.55 1.3 13.45 0.4 13.3 -2.6 13.2 -3.45 13.05 -6.45 12.95 -7.35 12.8 -10.35 12.7 -11.35 12.55 -12.35 12.55 -13.2 12.45 -14.2 12.45 -15.2 12.3 -16.35 12.3 -23.45 11.7 -24.35 -29.05 22.65 -26.45 22.05 13.45 M11.4 43.7 L11.15 43.95 -20.6 41.7 -20.85 30.05 -20.2 26.95 12.05 29.2 11.4 32.2 11.4 43.7" fill="#dcbe2b" fill-rule="evenodd" stroke="none"/>
    <path d="M-18.7 21.05 L-16.35 12.3 -15.2 12.3 -14.2 12.45 -13.2 12.45 -12.35 12.55 -11.35 12.55 -10.35 12.7 -7.35 12.8 -6.45 12.95 -3.45 13.05 -2.6 13.2 0.4 13.3 1.3 13.45 4.3 13.55 5.3 13.7 6.3 13.7 7.15 13.8 8.15 13.8 9.15 13.95 12.05 14.05 13.05 14.2 14.05 14.2 14.25 14.25 14.8 14.3 14.8 15.05 14.15 17.2 13.15 23.2 -18.7 21.05" fill="#e7ca30" fill-rule="evenodd" stroke="none"/>
    <path d="M14.9 14.3 L14.8 14.3 14.25 14.25 14.9 14.3" fill="#fff042" fill-rule="evenodd" stroke="none"/>
    <path d="M18.55 14.45 L18.55 17.8 15.15 33.45 14.8 15.05 14.8 14.3 14.9 14.3 18.55 14.45" fill="#ffff72" fill-rule="evenodd" stroke="none"/>
    <path d="M15.15 33.45 L15.05 34.8 11.4 43.7 11.4 32.2 12.05 29.2 13.15 23.2 14.15 17.2 14.8 15.05 15.15 33.45" fill="#ffff71" fill-rule="evenodd" stroke="none"/>
    <path d="M-20.2 26.95 L-18.7 21.05 13.15 23.2 12.05 29.2 -20.2 26.95" fill="#e7cc31" fill-rule="evenodd" stroke="none"/>
  </g>
</svg>
