<?xml version="1.0" encoding="UTF-8" standalone="no"?>
<svg xmlns:xlink="http://www.w3.org/1999/xlink" height="85.35px" width="47.35px" xmlns="http://www.w3.org/2000/svg">
  <g transform="matrix(1.0, 0.0, 0.0, 1.0, 21.95, 42.05)">
    <path d="M-21.95 -27.45 L-21.85 -41.45 23.4 -42.05 25.4 -28.05 -21.95 -27.45" fill="#ffe93e" fill-rule="evenodd" stroke="none"/>
    <path d="M-21.95 -27.45 L25.4 -28.05 24.55 12.95 17.4 13.05 -14.2 13.55 -21.2 13.7 -21.95 -27.45 M18.8 27.95 L19.05 37.45 18.65 42.7 -13.45 43.3 -14.1 26.2 -13.95 27.7 -13.95 28.45 18.8 27.95" fill="#dcbe2b" fill-rule="evenodd" stroke="none"/>
    <path d="M17.4 13.05 L18.3 22.05 -14.1 22.55 -14.2 13.55 17.4 13.05" fill="#e7ca30" fill-rule="evenodd" stroke="none"/>
    <path d="M18.3 22.05 L18.8 27.95 -13.95 28.45 -13.95 27.7 -14.1 26.2 -14.1 22.55 18.3 22.05" fill="#e8ce32" fill-rule="evenodd" stroke="none"/>
  </g>
</svg>
