<?xml version="1.0" encoding="UTF-8" standalone="no"?>
<svg xmlns:xlink="http://www.w3.org/1999/xlink" height="87.65px" width="52.9px" xmlns="http://www.w3.org/2000/svg">
  <g transform="matrix(1.0, 0.0, 0.0, 1.0, 25.35, 43.45)">
    <path d="M25.9 29.3 L23.9 29.95 1.4 31.95 0.8 32.05 0.8 32.8 -0.95 33.05 -6.2 32.45 -7.45 27.95 24.4 24.8 25.9 29.3" fill="#f1d234" fill-rule="evenodd" stroke="none"/>
    <path d="M27.55 -29.7 L26.55 10.8 25.9 11.2 19.4 11.8 18.55 11.8 17.9 11.95 17.15 11.95 16.55 12.05 15.9 12.05 15.3 12.2 14.55 12.2 13.9 12.3 13.15 12.3 12.55 12.45 11.9 12.45 11.3 12.55 10.55 12.55 9.9 12.7 9.15 12.7 8.55 12.8 7.9 12.8 7.3 12.95 6.55 12.95 5.9 13.05 5.15 13.05 4.55 13.2 3.9 13.2 3.3 13.3 2.55 13.3 1.9 13.45 1.15 13.45 0.55 13.55 -0.1 13.55 -0.7 13.7 -1.45 13.7 -2.1 13.8 -2.85 13.8 -3.45 13.95 -4.1 13.95 -4.7 14.05 -5.45 14.05 -6.1 14.2 -6.85 14.2 -7.45 14.3 -8.1 14.3 -8.7 14.45 -9.45 14.45 -10.1 14.55 -10.85 14.55 -11.45 14.7 -11.45 14.8 -11.35 15.55 -7.6 27.7 -7.45 27.95 -6.2 32.45 -0.95 33.05 0.8 32.8 0.9 33.3 1.55 38.8 1.9 38.95 23.9 36.7 24.65 36.55 24.65 35.95 23.9 29.95 25.9 29.3 25.55 40.95 -5.85 44.2 -6.2 43.95 -12.1 35.2 -12.2 34.2 -17.45 18.45 -17.6 15.2 -18.45 15.3 -18.6 14.45 -25.35 -5.95 -24.1 -39.3 -19.1 -25.95 27.55 -29.7" fill="#dcbe2b" fill-rule="evenodd" stroke="none"/>
    <path d="M27.55 -29.7 L-19.1 -25.95 -24.1 -39.3 -24.2 -39.95 20.55 -43.45 27.55 -29.7" fill="#ffe93e" fill-rule="evenodd" stroke="none"/>
    <path d="M-7.45 27.95 L-7.6 27.7 -11.35 15.55 -11.45 14.8 -11.45 14.7 -10.85 14.55 -10.1 14.55 -9.45 14.45 -8.7 14.45 -8.1 14.3 -7.45 14.3 -6.85 14.2 -6.1 14.2 -5.45 14.05 -4.7 14.05 -4.1 13.95 -3.45 13.95 -2.85 13.8 -2.1 13.8 -1.45 13.7 -0.7 13.7 -0.1 13.55 0.55 13.55 1.15 13.45 1.9 13.45 2.55 13.3 3.3 13.3 3.9 13.2 4.55 13.2 5.15 13.05 5.9 13.05 6.55 12.95 7.3 12.95 7.9 12.8 8.55 12.8 9.15 12.7 9.9 12.7 10.55 12.55 11.3 12.55 11.9 12.45 12.55 12.45 13.15 12.3 13.9 12.3 14.55 12.2 15.3 12.2 15.9 12.05 16.55 12.05 17.15 11.95 17.9 11.95 18.55 11.8 19.4 11.8 24.4 24.8 -7.45 27.95" fill="#e7ca30" fill-rule="evenodd" stroke="none"/>
    <path d="M23.9 29.95 L24.65 35.95 24.65 36.55 23.9 36.7 1.9 38.95 1.55 38.8 0.9 33.3 0.8 32.8 0.8 32.05 1.4 31.95 23.9 29.95" fill="#ebcb31" fill-rule="evenodd" stroke="none"/>
  </g>
</svg>
