<?xml version="1.0" encoding="UTF-8" standalone="no"?>
<svg xmlns:xlink="http://www.w3.org/1999/xlink" height="89.0px" width="62.4px" xmlns="http://www.w3.org/2000/svg">
  <g transform="matrix(1.0, 0.0, 0.0, 1.0, 28.85, 44.55)">
    <path d="M3.3 32.8 L30.4 27.7 30.15 27.95 10.65 31.55 10.15 31.7 10.3 32.2 6.55 32.95 3.3 32.8" fill="#f5da38" fill-rule="evenodd" stroke="none"/>
    <path d="M30.4 27.7 L32.15 27.05 32.15 27.7 31.4 27.7 30.15 27.95 30.4 27.7 M31.9 34.7 L31.9 38.2 31.55 38.7 23.15 36.55 29.15 35.2 29.3 35.2 29.8 35.05 30.05 35.05 30.4 34.95 31.9 34.7" fill="#e4c52e" fill-rule="evenodd" stroke="none"/>
    <path d="M30.15 27.95 L31.4 27.7 32.15 27.7 33.55 33.8 33.55 34.3 31.9 34.7 30.4 34.95 30.05 35.05 29.8 35.05 29.3 35.2 29.15 35.2 11.65 38.45 11.05 36.3 10.55 33.2 10.4 32.95 10.3 32.2 10.15 31.7 10.65 31.55 30.15 27.95" fill="#ffe03b" fill-rule="evenodd" stroke="none"/>
    <path d="M32.15 27.05 L30.4 27.7 3.3 32.8 1.55 32.7 -8.35 15.95 -8.45 15.55 -8.1 15.45 -7.7 15.45 -7.35 15.3 -6.35 15.2 -5.95 15.05 -4.95 14.95 -4.6 14.8 -2.85 14.55 -2.45 14.45 -2.1 14.45 -1.7 14.3 -0.7 14.2 -0.35 14.05 0.05 14.05 0.4 13.95 1.4 13.8 1.8 13.7 2.15 13.7 2.55 13.55 3.55 13.45 3.9 13.3 5.65 13.05 6.05 12.95 7.8 12.7 8.15 12.55 9.15 12.45 9.55 12.3 11.3 12.05 11.65 11.95 12.05 11.95 12.4 11.8 13.4 11.7 13.8 11.55 14.8 11.45 15.15 11.3 15.55 11.3 15.9 11.2 17.65 10.95 18.05 10.8 19.8 10.55 20.15 10.45 21.15 10.3 32.15 27.05 M-25.85 -37.95 L-24.35 -38.45 17.15 -44.55 28.8 -31.55 -15.7 -24.55 -24.7 -36.7 -25.85 -37.95" fill="#ffe93e" fill-rule="evenodd" stroke="none"/>
    <path d="M21.15 10.3 L20.15 10.45 19.8 10.55 18.05 10.8 17.65 10.95 15.9 11.2 15.55 11.3 15.15 11.3 14.8 11.45 13.8 11.55 13.4 11.7 12.4 11.8 12.05 11.95 11.65 11.95 11.3 12.05 9.55 12.3 9.15 12.45 8.15 12.55 7.8 12.7 6.05 12.95 5.65 13.05 3.9 13.3 3.55 13.45 2.55 13.55 2.15 13.7 1.8 13.7 1.4 13.8 0.4 13.95 0.05 14.05 -0.35 14.05 -0.7 14.2 -1.7 14.3 -2.1 14.45 -2.45 14.45 -2.85 14.55 -4.6 14.8 -4.95 14.8 -4.95 14.95 -5.95 15.05 -6.35 15.2 -7.35 15.3 -7.7 15.45 -8.1 15.45 -8.45 15.55 -15.2 16.7 -15.35 16.3 -15.2 14.8 -15.7 -24.55 28.8 -31.55 27.8 8.95 21.15 10.3" fill="#e9ca31" fill-rule="evenodd" stroke="none"/>
    <path d="M-8.45 15.55 L-8.35 15.95 1.55 32.7 1.4 44.3 -9.95 35.8 -20.35 19.8 -20.6 8.8 -28.85 -4.05 -25.85 -37.95 -24.7 -36.7 -15.7 -24.55 -15.2 14.8 -15.35 16.3 -15.2 16.7 -8.45 15.55 M29.15 35.2 L23.15 36.55 11.05 38.8 10.8 38.8 11.05 36.3 11.65 38.45 29.15 35.2" fill="#dcbe2b" fill-rule="evenodd" stroke="none"/>
    <path d="M-4.6 14.8 L-4.95 14.95 -4.95 14.8 -4.6 14.8" fill="#fff042" fill-rule="evenodd" stroke="none"/>
    <path d="M1.55 32.7 L3.3 32.8 6.55 32.95 9.55 33.05 10.4 32.95 10.55 33.2 11.05 36.3 10.8 38.8 11.05 38.8 23.15 36.55 31.55 38.7 1.9 44.45 1.4 44.3 1.55 32.7" fill="#e3c52e" fill-rule="evenodd" stroke="none"/>
    <path d="M10.3 32.2 L10.4 32.95 9.55 33.05 6.55 32.95 10.3 32.2" fill="#eccf33" fill-rule="evenodd" stroke="none"/>
  </g>
</svg>
