<?xml version="1.0" encoding="UTF-8" standalone="no"?>
<svg xmlns:xlink="http://www.w3.org/1999/xlink" height="89.5px" width="73.25px" xmlns="http://www.w3.org/2000/svg">
  <g transform="matrix(1.0, 0.0, 0.0, 1.0, 31.7, 45.45)">
    <path d="M37.55 25.3 L39.55 24.8 41.55 31.3 37.15 32.7 21.4 37.2 19.3 30.7 33.8 26.45 37.55 25.3" fill="#fff544" fill-rule="evenodd" stroke="none"/>
    <path d="M22.4 8.7 L37.15 23.8 37.4 24.45 35.8 25.2 10.9 32.3 9.3 32.3 -5.2 16.3 -5.2 16.2 22.4 8.7" fill="#fff845" fill-rule="evenodd" stroke="none"/>
    <path d="M37.4 24.45 L37.55 25.3 33.8 26.45 35.8 25.2 37.4 24.45 M37.15 32.7 L36.9 35.95 9.3 44.05 9.15 44.05 9.3 32.3 10.9 32.3 14.05 32.2 16.65 32.2 18.05 31.8 17.8 32.2 17.8 37.8 21.4 37.2 37.15 32.7" fill="#ffdf3a" fill-rule="evenodd" stroke="none"/>
    <path d="M10.9 32.3 L35.8 25.2 33.8 26.45 19.3 30.7 19.15 30.7 14.05 32.2 10.9 32.3" fill="#fff142" fill-rule="evenodd" stroke="none"/>
    <path d="M29.4 -33.45 L28.4 7.05 22.4 8.7 -5.2 16.2 -11.2 17.8 -11.6 17.55 -11.95 -23.55 29.4 -33.45" fill="#ffe43c" fill-rule="evenodd" stroke="none"/>
    <path d="M-26.85 -36.2 L13.05 -45.45 13.8 -45.3 29.4 -33.45 -11.95 -23.55 -12.2 -23.8 -26.85 -36.2" fill="#ffe93e" fill-rule="evenodd" stroke="none"/>
    <path d="M9.15 44.05 L-7.45 36.8 -22.7 21.55 -23.1 6.8 -31.7 -1.8 -26.85 -36.2 -12.2 -23.8 -11.95 -23.55 -11.6 17.55 -11.2 17.8 -5.2 16.2 -5.2 16.3 9.3 32.3 9.15 44.05 M19.3 30.7 L21.4 37.2 17.8 37.8 17.8 32.2 18.05 31.8 19.15 30.7 19.3 30.7" fill="#dcbe2b" fill-rule="evenodd" stroke="none"/>
    <path d="M14.05 32.2 L19.15 30.7 18.05 31.8 16.65 32.2 14.05 32.2" fill="#ffe73e" fill-rule="evenodd" stroke="none"/>
  </g>
</svg>
