<?xml version="1.0" encoding="UTF-8" standalone="no"?>
<svg xmlns:xlink="http://www.w3.org/1999/xlink" height="89.1px" width="82.0px" xmlns="http://www.w3.org/2000/svg">
  <g transform="matrix(1.0, 0.0, 0.0, 1.0, 33.7, 46.05)">
    <path d="M29.4 -35.3 L28.4 4.95 23.15 7.05 -1.7 16.55 -1.85 16.55 -7.6 18.55 -7.7 -22.8 29.4 -35.3" fill="#fffd48" fill-rule="evenodd" stroke="none"/>
    <path d="M36.15 25.2 L35.9 25.45 27.9 28.8 27.8 28.8 27.65 28.95 27.55 28.95 23.15 30.7 20.8 30.95 33.05 25.8 36.15 25.2" fill="#fff948" fill-rule="evenodd" stroke="none"/>
    <path d="M36.15 25.2 L33.05 25.8 20.8 30.95 16.8 31.3 -1.7 16.55 23.15 7.05 41.8 21.3 36.15 25.2" fill="#fffc4b" fill-rule="evenodd" stroke="none"/>
    <path d="M35.9 25.45 L36.15 25.2 41.8 21.3 41.8 23.05 35.9 25.45 M41.55 30.7 L41.3 32.8 37.4 32.45 41.55 30.7" fill="#fff946" fill-rule="evenodd" stroke="none"/>
    <path d="M27.55 28.95 L27.65 28.95 27.8 28.8 27.9 28.8 30.55 35.2 24.3 36.2 24.4 30.55 27.55 28.95 M16.4 43.05 L-4.85 37.3 -24.6 23.45 -24.95 6.95 -33.7 0.8 -30.95 -14.3 -30.85 -15.05 -30.2 -17.95 -27.2 -34.3 -7.7 -22.8 -7.6 18.55 -1.85 16.55 -1.7 16.55 16.8 31.3 16.65 40.55 16.4 43.05" fill="#dcbe2b" fill-rule="evenodd" stroke="none"/>
    <path d="M27.9 28.8 L35.9 25.45 41.8 23.05 45.9 21.7 48.3 27.8 41.55 30.7 37.4 32.45 30.55 35.2 27.9 28.8" fill="#ffff4e" fill-rule="evenodd" stroke="none"/>
    <path d="M-31.85 -16.55 L-31.85 -16.7 -31.95 -16.8 -32.1 -17.45 -30.2 -17.95 -30.85 -15.05 -30.95 -15.05 -31.85 -16.55" fill="#ff6300" fill-rule="evenodd" stroke="none"/>
    <path d="M-31.1 -14.55 L-31.85 -16.55 -30.95 -15.05 -31.1 -14.55" fill="#e64400" fill-rule="evenodd" stroke="none"/>
    <path d="M-30.95 -14.3 L-31.1 -14.55 -30.95 -15.05 -30.85 -15.05 -30.95 -14.3" fill="#fff343" fill-rule="evenodd" stroke="none"/>
    <path d="M-27.2 -34.3 L9.55 -46.05 29.4 -35.3 -7.7 -22.8 -27.2 -34.3" fill="#ffe93e" fill-rule="evenodd" stroke="none"/>
    <path d="M20.8 30.95 L23.15 30.7 24.4 30.55 24.3 36.2 30.55 35.2 37.4 32.45 41.3 32.8 17.05 42.95 16.4 43.05 16.65 40.55 16.8 31.3 20.8 30.95" fill="#fff845" fill-rule="evenodd" stroke="none"/>
    <path d="M23.15 30.7 L27.55 28.95 24.4 30.55 23.15 30.7" fill="#fff745" fill-rule="evenodd" stroke="none"/>
  </g>
</svg>
