<?xml version="1.0" encoding="UTF-8" standalone="no"?>
<svg xmlns:xlink="http://www.w3.org/1999/xlink" height="88.1px" width="91.75px" xmlns="http://www.w3.org/2000/svg">
  <g transform="matrix(1.0, 0.0, 0.0, 1.0, 37.95, 46.55)">
    <path d="M31.3 27.95 L35.9 26.3 38.9 32.45 30.3 33.95 30.3 28.45 31.3 27.95 M1.65 16.7 L23.9 29.8 23.65 40.55 23.55 41.55 -1.95 37.8 -25.85 25.55 -26.2 7.95 -35.1 3.3 -32.7 -6.8 -32.7 -7.05 -32.35 -8.8 -30.6 -16.45 -26.85 -32.45 -3.35 -22.3 -3.35 19.05 1.55 16.8 1.65 16.7" fill="#dcbe2b" fill-rule="evenodd" stroke="none"/>
    <path d="M35.9 26.3 L31.3 27.95 31.55 27.7 39.4 23.2 45.05 20.45 48.8 18.95 35.9 26.3" fill="#e9ca31" fill-rule="evenodd" stroke="none"/>
    <path d="M31.3 27.95 L30.3 28.45 23.9 29.8 1.65 16.7 23.15 5.45 45.15 17.8 45.05 18.05 39.4 23.2 31.55 27.7 31.3 27.95" fill="#fffd51" fill-rule="evenodd" stroke="none"/>
    <path d="M45.05 20.45 L39.4 23.2 45.05 18.05 45.05 20.45 M44.55 29.45 L44.3 29.45 44.65 29.2 44.55 29.45" fill="#ffff51" fill-rule="evenodd" stroke="none"/>
    <path d="M30.3 28.45 L30.3 33.95 38.9 32.45 44.3 29.45 44.55 29.45 23.55 41.55 23.65 40.55 23.9 29.8 30.3 28.45" fill="#ffff50" fill-rule="evenodd" stroke="none"/>
    <path d="M38.9 32.45 L35.9 26.3 48.8 18.95 Q50.8 15.0 53.8 23.8 L44.65 29.2 44.3 29.45 38.9 32.45" fill="#ffff56" fill-rule="evenodd" stroke="none"/>
    <path d="M23.15 5.45 L1.65 16.7 1.55 16.8 -3.35 19.05 -3.35 -22.3 28.65 -37.2 27.8 2.95 23.15 5.45" fill="#ffff53" fill-rule="evenodd" stroke="none"/>
    <path d="M-37.7 -14.3 L-37.95 -14.55 -37.6 -15.05 -33.85 -16.7 -30.6 -16.45 -32.35 -8.8 -37.7 -14.3" fill="#ff6100" fill-rule="evenodd" stroke="none"/>
    <path d="M-37.7 -14.3 L-32.35 -8.8 -32.7 -7.05 -32.85 -6.95 -37.7 -14.3" fill="#e64400" fill-rule="evenodd" stroke="none"/>
    <path d="M-32.85 -6.95 L-32.7 -7.05 -32.7 -6.8 -32.85 -6.95" fill="#ffff4d" fill-rule="evenodd" stroke="none"/>
    <path d="M-26.85 -32.45 L5.3 -46.55 28.65 -37.2 -3.35 -22.3 -26.85 -32.45" fill="#ffe93e" fill-rule="evenodd" stroke="none"/>
  </g>
</svg>
