<?xml version="1.0" encoding="UTF-8" standalone="no"?>
<svg xmlns:xlink="http://www.w3.org/1999/xlink" height="84.35px" width="107.75px" xmlns="http://www.w3.org/2000/svg">
  <g transform="matrix(1.0, 0.0, 0.0, 1.0, 47.35, 46.55)">
    <path d="M25.4 -40.55 L24.65 -0.95 21.8 2.2 8.65 16.05 8.4 16.45 5.65 19.05 5.8 -22.3 25.4 -40.55" fill="#ffff65" fill-rule="evenodd" stroke="none"/>
    <path d="M21.8 2.2 L48.15 10.55 48.15 11.05 44.9 16.7 40.05 22.7 39.8 22.95 36.05 25.05 8.65 16.05 21.8 2.2" fill="#fffe5b" fill-rule="evenodd" stroke="none"/>
    <path d="M48.15 14.7 L56.55 9.8 48.55 19.7 52.15 25.05 43.15 27.55 42.15 27.7 39.55 28.45 39.65 27.7 39.8 22.95 40.05 22.7 44.9 16.7 48.15 14.8 48.15 14.7 M35.8 36.45 L35.55 36.8 4.05 37.8 -26.35 29.95 -26.85 11.2 -35.1 9.2 -33.1 2.05 -33.1 1.95 -32.2 -1.05 -29.35 -10.95 -29.1 -11.55 -23.95 -28.8 5.8 -22.3 5.65 19.05 8.4 16.45 8.65 16.05 36.05 25.05 35.8 36.45" fill="#dcbe2b" fill-rule="evenodd" stroke="none"/>
    <path d="M43.15 27.55 L36.05 36.2 35.8 36.45 36.05 25.05 39.8 22.95 39.65 27.7 39.55 28.45 42.15 27.7 43.15 27.55" fill="#ffff63" fill-rule="evenodd" stroke="none"/>
    <path d="M56.55 9.8 L57.15 9.55 60.4 14.55 60.4 15.05 52.15 25.05 48.55 19.7 56.55 9.8" fill="#ffff66" fill-rule="evenodd" stroke="none"/>
    <path d="M48.15 11.05 L48.15 14.7 48.15 14.8 44.9 16.7 48.15 11.05" fill="#ffff64" fill-rule="evenodd" stroke="none"/>
    <path d="M-47.35 -8.3 L-44.35 -10.8 -29.1 -11.55 -29.35 -10.95 -32.2 -1.05 -47.35 -8.3" fill="#ff5e00" fill-rule="evenodd" stroke="none"/>
    <path d="M-33.1 2.05 L-33.2 1.95 -33.1 1.95 -33.1 2.05" fill="#ffff5f" fill-rule="evenodd" stroke="none"/>
    <path d="M-33.2 1.95 L-46.1 -7.05 -47.35 -8.3 -32.2 -1.05 -33.1 1.95 -33.2 1.95" fill="#e64400" fill-rule="evenodd" stroke="none"/>
    <path d="M-23.95 -28.8 L-3.2 -46.55 25.4 -40.55 5.8 -22.3 -23.95 -28.8" fill="#ffe93e" fill-rule="evenodd" stroke="none"/>
  </g>
</svg>
