<?xml version="1.0" encoding="UTF-8" standalone="no"?>
<svg xmlns:xlink="http://www.w3.org/1999/xlink" height="110.9px" width="234.9px" xmlns="http://www.w3.org/2000/svg">
  <g transform="matrix(1.0, 0.0, 0.0, 1.0, 116.7, 36.9)">
    <path d="M-92.1 32.7 L-92.0 32.7 -96.35 23.85 Q-98.1 17.2 -93.35 3.6 L-83.75 -7.05 -77.0 -13.65 -62.0 -22.4 Q-58.15 -24.25 -54.35 -26.15 L-29.0 -34.05 Q-15.0 -36.85 1.5 -36.9 33.15 -36.6 57.25 -25.55 62.7 -23.3 78.9 -13.55 L95.15 3.85 97.9 14.95 97.9 23.95 93.5 32.7 84.75 35.2 66.65 38.85 53.0 40.95 26.75 42.7 27.25 41.1 27.0 40.35 25.75 38.85 Q22.45 35.8 14.4 38.85 L13.4 39.7 12.9 41.1 13.65 42.85 0.9 43.1 -12.1 42.85 Q-10.5 40.8 -12.85 38.85 -16.2 35.8 -24.25 38.85 L-25.6 40.6 -25.75 41.35 -25.25 42.7 -41.35 41.95 Q-59.25 40.25 -65.1 38.85 L-75.1 37.1 -92.0 32.85 -92.1 32.7 M22.9 68.95 Q-4.25 72.2 -21.35 68.95 L-3.6 64.6 -3.35 64.6 -2.75 64.6 -0.25 64.95 4.25 64.6 4.9 64.6 5.15 64.6 5.25 64.7 5.65 64.7 5.75 64.85 22.9 68.95 M71.15 53.1 L67.9 54.85 57.0 54.95 71.15 53.1 M54.0 60.85 L50.75 62.1 40.15 61.1 54.0 60.85 M-49.25 62.1 L-52.5 60.85 -38.6 61.1 -49.25 62.1 M-69.6 53.1 L-55.5 54.95 -66.35 54.85 Q-67.95 54.0 -69.6 53.1" fill="#b19771" fill-rule="evenodd" stroke="none"/>
    <path d="M86.15 50.2 L89.65 51.7 92.75 53.85 67.9 54.85 71.15 53.1 86.15 50.2 M96.15 55.95 Q108.25 64.0 98.9 71.35 95.55 76.0 69.0 72.45 L69.9 72.2 70.15 71.6 68.25 70.6 55.15 67.6 Q89.9 66.6 87.15 64.6 L84.65 63.95 50.75 62.1 54.0 60.85 Q59.05 61.15 80.9 58.7 L96.15 55.95 M-67.5 72.45 Q-94.9 75.85 -96.75 71.7 -99.95 69.9 -100.35 68.85 L-101.5 63.7 -98.0 58.6 Q-96.7 56.9 -94.6 55.95 -86.3 58.05 -70.75 59.7 L-52.5 60.85 -49.25 62.1 -81.35 63.85 -85.6 64.6 Q-85.7 65.9 -72.5 66.95 L-53.6 67.6 -66.6 70.6 Q-70.2 71.65 -67.5 72.45 M-91.25 53.85 L-88.5 51.95 -84.6 50.2 -69.6 53.1 Q-67.95 54.0 -66.35 54.85 L-91.25 53.85" fill="#573f70" fill-rule="evenodd" stroke="none"/>
    <path d="M93.5 32.7 L112.75 27.1 Q119.45 25.95 117.9 28.35 115.65 34.1 90.9 42.85 137.5 35.4 86.15 50.2 L71.15 53.1 57.0 54.95 67.9 54.85 92.75 53.85 99.5 54.1 Q99.7 55.15 96.15 55.95 L80.9 58.7 Q59.05 61.15 54.0 60.85 L40.15 61.1 50.75 62.1 84.65 63.95 87.15 64.6 Q89.9 66.6 55.15 67.6 L68.25 70.6 70.15 71.6 69.9 72.2 69.0 72.45 Q54.3 74.95 22.9 68.95 L5.75 64.85 5.65 64.7 5.25 64.7 5.15 64.6 4.9 64.6 11.65 62.6 25.65 56.45 34.5 51.7 35.25 51.45 Q44.15 47.0 37.0 45.35 L23.9 45.1 0.9 45.45 -24.6 45.1 -35.5 45.35 Q-42.55 46.55 -33.85 51.35 L-33.75 51.45 -33.0 51.7 -24.1 56.45 -16.5 59.95 -6.85 63.7 -3.35 64.6 -3.6 64.6 -21.35 68.95 Q-43.05 74.2 -67.5 72.45 -70.2 71.65 -66.6 70.6 L-53.6 67.6 -72.5 66.95 Q-85.7 65.9 -85.6 64.6 L-81.35 63.85 -49.25 62.1 -38.6 61.1 -52.5 60.85 -70.75 59.7 Q-86.3 58.05 -94.6 55.95 -98.95 54.9 -98.0 54.1 L-91.25 53.85 -66.35 54.85 -55.5 54.95 -69.6 53.1 -84.6 50.2 Q-106.8 44.95 -111.75 40.7 L-111.75 39.95 -111.35 39.7 -108.35 39.7 -89.35 42.85 Q-111.8 35.5 -116.5 27.95 -117.7 26.15 -111.1 27.1 L-92.1 32.7 -92.0 32.85 -75.1 37.1 -65.1 38.85 Q-59.25 40.25 -41.35 41.95 L-25.25 42.7 Q-15.8 47.4 -12.1 42.85 L0.9 43.1 13.65 42.85 Q22.8 47.4 26.75 42.7 L53.0 40.95 66.65 38.85 84.75 35.2 93.5 32.7" fill="#5f3f2a" fill-rule="evenodd" stroke="none"/>
    <path d="M-25.25 42.7 L-25.75 41.35 -25.6 40.6 -24.25 38.85 Q-16.2 35.8 -12.85 38.85 -10.5 40.8 -12.1 42.85 -15.8 47.4 -25.25 42.7 M13.65 42.85 L12.9 41.1 13.4 39.7 14.4 38.85 Q22.45 35.8 25.75 38.85 L27.0 40.35 27.25 41.1 26.75 42.7 Q22.8 47.4 13.65 42.85" fill="#000000" fill-rule="evenodd" stroke="none"/>
    <path d="M-3.35 64.6 L-6.85 63.7 -16.5 59.95 -24.1 56.45 -33.0 51.7 -33.75 51.45 -33.85 51.35 Q-42.55 46.55 -35.5 45.35 L-24.6 45.1 0.9 45.45 23.9 45.1 37.0 45.35 Q44.15 47.0 35.25 51.45 L34.5 51.7 25.65 56.45 11.65 62.6 4.9 64.6 4.25 64.6 -0.25 64.95 -2.75 64.6 -3.35 64.6" fill="#ff488c" fill-rule="evenodd" stroke="none"/>
  </g>
</svg>
