<?xml version="1.0" encoding="UTF-8" standalone="no"?>
<svg xmlns:xlink="http://www.w3.org/1999/xlink" height="82.4px" width="113.4px" xmlns="http://www.w3.org/2000/svg">
  <g transform="matrix(1.0, 0.0, 0.0, 1.0, 52.35, 45.45)">
    <path d="M57.3 0.95 L58.05 1.45 61.05 5.45 59.8 16.05 56.05 11.45 57.3 0.95 M45.15 21.7 L44.8 23.7 44.8 24.05 44.65 24.55 44.05 28.55 44.05 27.8 43.9 27.7 44.3 18.7 44.9 17.55 44.9 21.7 45.15 21.7" fill="#ffff71" fill-rule="evenodd" stroke="none"/>
    <path d="M59.8 16.05 L45.15 21.7 44.9 21.7 44.9 17.55 46.05 9.8 46.55 9.45 57.3 0.95 56.05 11.45 59.8 16.05 M44.05 28.55 L44.05 29.05 43.9 29.45 43.8 30.3 9.55 36.95 -24.2 34.45 -24.7 15.05 -31.45 14.55 -29.6 8.55 -29.7 8.55 -29.6 8.45 -28.45 4.8 -28.45 4.7 -28.35 4.7 -26.95 0.05 -26.85 -0.05 -26.85 -0.7 -26.45 -1.95 -26.35 -2.05 -24.6 -7.55 -24.6 -7.7 -24.45 -8.05 -23.7 -10.55 -23.6 -10.7 -23.6 -10.95 -23.1 -11.95 -23.1 -12.05 -22.95 -12.3 -22.95 -12.45 -22.85 -12.55 -22.85 -12.8 -22.7 -12.95 -22.35 -14.3 -18.6 -25.7 14.55 -23.55 14.15 16.8 14.8 14.8 14.9 14.3 44.3 18.7 43.9 27.7 44.05 27.8 44.05 28.55" fill="#dcbe2b" fill-rule="evenodd" stroke="none"/>
    <path d="M46.4 8.2 L46.55 9.45 46.05 9.8 46.4 8.2" fill="#ffff72" fill-rule="evenodd" stroke="none"/>
    <path d="M18.55 -0.7 L46.8 3.45 46.55 7.05 46.4 7.95 46.4 8.2 46.05 9.8 44.9 17.55 44.3 18.7 14.9 14.3 18.55 -0.7" fill="#ffff55" fill-rule="evenodd" stroke="none"/>
    <path d="M-18.6 -25.7 L-11.45 -45.3 -11.1 -45.45 19.4 -43.7 19.9 -43.55 19.8 -42.3 14.65 -23.8 14.55 -23.55 -18.6 -25.7" fill="#ffe93e" fill-rule="evenodd" stroke="none"/>
    <path d="M19.8 -42.3 L19.3 -3.8 18.55 -0.7 14.9 14.3 14.8 14.8 14.15 16.8 14.55 -23.55 14.65 -23.8 19.8 -42.3" fill="#ffff73" fill-rule="evenodd" stroke="none"/>
    <path d="M-24.6 -8.8 L-23.45 -13.2 -22.85 -14.2 -22.35 -14.3 -22.7 -12.95 -22.85 -12.8 -22.85 -12.55 -22.95 -12.45 -22.95 -12.3 -23.1 -12.05 -23.1 -11.95 -23.6 -10.95 -23.6 -10.7 -23.7 -10.55 -24.45 -8.05 -24.7 -8.05 -24.6 -8.8 M-24.6 -7.55 L-26.35 -2.05 -26.45 -1.95 -26.85 -0.7 Q-27.2 -6.25 -24.6 -7.55" fill="#000000" fill-rule="evenodd" stroke="none"/>
    <path d="M-52.35 -0.7 L-50.95 -3.55 -24.6 -8.8 -24.7 -8.05 -24.6 -7.7 -24.6 -7.55 Q-27.2 -6.25 -26.85 -0.7 L-26.85 -0.05 -26.95 0.05 -28.35 4.7 -28.45 4.7 -52.35 -0.7" fill="#ff5d00" fill-rule="evenodd" stroke="none"/>
    <path d="M-24.7 -8.05 L-24.45 -8.05 -24.6 -7.7 -24.7 -8.05" fill="#ffffff" fill-rule="evenodd" stroke="none"/>
    <path d="M-29.7 8.55 L-52.35 -0.3 -52.35 -0.7 -28.45 4.7 -28.45 4.8 -29.6 8.45 -29.7 8.55" fill="#e64400" fill-rule="evenodd" stroke="none"/>
  </g>
</svg>
