<?xml version="1.0" encoding="UTF-8" standalone="no"?>
<svg xmlns:xlink="http://www.w3.org/1999/xlink" height="81.15px" width="114.4px" xmlns="http://www.w3.org/2000/svg">
  <g transform="matrix(1.0, 0.0, 0.0, 1.0, 53.1, 44.7)">
    <path d="M55.55 -3.2 L57.55 7.2 61.3 11.3 61.15 11.7 46.8 17.7 46.4 26.7 12.15 36.05 -22.2 36.45 -22.6 16.95 -28.45 17.05 -28.2 15.95 -28.2 10.8 -27.45 10.95 -26.2 6.95 -26.1 3.05 -25.6 2.95 -25.1 1.95 -22.45 -5.95 -21.45 -10.95 -21.35 -12.55 -21.85 -12.45 -22.7 -10.95 Q-19.05 -26.95 -24.1 -12.45 L-24.6 -12.2 -25.2 -10.95 -26.2 -7.05 -26.85 -7.05 -15.85 -42.2 -15.2 -43.3 -15.2 -24.45 18.55 -24.7 18.15 -1.8 17.9 13.2 22.3 13.45 42.05 14.8 42.55 14.8 46.9 15.2 46.9 14.8 45.4 5.95 55.3 -3.3 55.55 -3.2" fill="#dcbe2b" fill-rule="evenodd" stroke="none"/>
    <path d="M55.55 -3.2 L59.3 1.05 61.3 11.3 57.55 7.2 55.55 -3.2" fill="#ffff75" fill-rule="evenodd" stroke="none"/>
    <path d="M20.9 -1.7 L44.4 0.05 45.4 5.95 46.9 14.8 46.9 15.2 42.55 14.8 42.05 14.8 22.3 13.45 20.9 -1.7" fill="#ffff56" fill-rule="evenodd" stroke="none"/>
    <path d="M-15.2 -43.3 L-15.2 -43.7 -15.1 -44.45 16.55 -44.7 18.55 -24.7 -15.2 -24.45 -15.2 -43.3" fill="#ffe93e" fill-rule="evenodd" stroke="none"/>
    <path d="M-26.2 -7.05 L-25.2 -10.95 -24.6 -12.2 -24.1 -12.45 -23.85 -11.45 -24.1 -10.95 -24.45 -8.7 -25.45 -5.55 -25.85 -5.55 -26.2 -7.05 M-25.7 -3.8 L-25.7 -3.95 -25.6 -3.95 -24.45 -5.7 Q-22.9 -7.0 -26.1 1.45 L-26.45 0.45 -25.7 -3.8" fill="#000000" fill-rule="evenodd" stroke="none"/>
    <path d="M-24.1 -12.45 Q-19.05 -26.95 -22.7 -10.95 L-21.85 -12.45 -21.35 -12.55 -21.45 -10.95 -22.45 -5.95 -25.1 1.95 -25.6 2.95 -26.1 3.05 -26.1 1.45 Q-22.9 -7.0 -24.45 -5.7 L-25.6 -3.95 -25.7 -3.95 -25.7 -3.8 -25.85 -3.95 -25.85 -5.55 -25.45 -5.55 -24.45 -8.7 -24.1 -10.95 -23.85 -11.45 -24.1 -12.45" fill="#ffffff" fill-rule="evenodd" stroke="none"/>
    <path d="M-53.1 3.45 L-52.7 0.45 -26.85 -6.95 -26.85 -7.05 -26.2 -7.05 -25.85 -5.55 -25.85 -3.95 -25.7 -3.8 -26.45 0.45 -26.1 1.45 -26.1 3.05 -26.2 6.95 -53.1 3.45" fill="#ff5c00" fill-rule="evenodd" stroke="none"/>
    <path d="M-28.2 10.8 L-53.1 3.8 -53.1 3.45 -26.2 6.95 -27.45 10.95 -28.2 10.8" fill="#e64400" fill-rule="evenodd" stroke="none"/>
    <path d="M18.15 -1.8 L20.9 -1.7 22.3 13.45 17.9 13.2 18.15 -1.8" fill="#ffff49" fill-rule="evenodd" stroke="none"/>
  </g>
</svg>
