<?xml version="1.0" encoding="UTF-8" standalone="no"?>
<svg xmlns:xlink="http://www.w3.org/1999/xlink" height="83.85px" width="114.25px" xmlns="http://www.w3.org/2000/svg">
  <g transform="matrix(1.0, 0.0, 0.0, 1.0, 52.95, 45.55)">
    <path d="M52.55 -7.05 L57.3 1.95 57.65 2.8 61.05 6.3 61.3 6.95 48.15 13.3 47.65 22.95 14.4 34.95 -19.35 38.3 -23.85 23.05 -23.95 19.2 -24.6 19.2 -24.45 18.8 -26.2 12.95 -25.1 13.2 -24.85 12.8 -23.6 9.05 -24.6 5.2 -23.7 4.95 -23.2 4.3 -22.2 1.95 Q-18.7 -8.4 -20.2 -10.95 L-20.7 -10.95 -22.45 -8.2 -23.95 -3.3 -24.85 -0.55 -25.1 1.95 -24.95 3.2 -25.1 3.2 -25.6 1.95 -26.7 -1.8 Q-25.3 -1.9 -24.1 -5.2 L-22.6 -10.95 Q-20.55 -24.2 -25.7 -10.95 L-25.85 -10.2 -26.95 -6.8 -27.1 -3.7 -27.7 -5.2 -29.95 -4.45 -30.1 -4.45 -18.35 -42.8 -11.2 -23.45 21.9 -25.95 21.4 -3.05 21.15 11.7 48.15 11.55 43.65 2.3 52.3 -7.2 52.4 -7.2 52.55 -7.05" fill="#dcbe2b" fill-rule="evenodd" stroke="none"/>
    <path d="M52.55 -7.05 L56.15 -2.95 61.05 6.3 57.65 2.8 57.3 1.95 52.55 -7.05" fill="#ffff77" fill-rule="evenodd" stroke="none"/>
    <path d="M21.4 -3.05 L41.15 -2.95 43.65 2.3 48.15 11.55 21.15 11.7 21.4 -3.05" fill="#ffff58" fill-rule="evenodd" stroke="none"/>
    <path d="M-18.35 -42.8 L-18.35 -43.3 -17.35 -43.45 12.8 -45.55 21.9 -25.95 -11.2 -23.45 -18.35 -42.8" fill="#ffe93e" fill-rule="evenodd" stroke="none"/>
    <path d="M-27.1 -3.55 L-26.95 -3.55 -26.85 -3.45 -26.35 -3.45 -25.85 -4.05 -24.7 -8.8 -24.7 -9.8 -24.85 -10.55 -25.85 -10.2 -25.7 -10.95 Q-20.55 -24.2 -22.6 -10.95 L-24.1 -5.2 Q-25.3 -1.9 -26.7 -1.8 L-27.1 -3.55 M-23.95 -3.3 L-22.45 -8.2 -20.7 -10.95 -20.2 -10.95 Q-18.7 -8.4 -22.2 1.95 L-23.2 4.3 -23.7 4.95 -24.6 5.2 -25.1 3.2 -24.95 3.2 -24.95 3.3 -24.85 3.45 -23.95 3.05 -23.6 1.95 Q-21.4 -5.45 -23.95 -3.3" fill="#ffffff" fill-rule="evenodd" stroke="none"/>
    <path d="M-25.85 -10.2 L-24.85 -10.55 -24.7 -9.8 -24.7 -8.8 -25.85 -4.05 -26.35 -3.45 -26.85 -3.45 -26.95 -3.55 -27.1 -3.55 -27.1 -3.7 -26.95 -6.8 -25.85 -10.2 M-23.95 -3.3 Q-21.4 -5.45 -23.6 1.95 L-23.95 3.05 -24.85 3.45 -24.95 3.3 -24.95 3.2 -25.1 1.95 -24.85 -0.55 -23.95 -3.3" fill="#000000" fill-rule="evenodd" stroke="none"/>
    <path d="M-30.1 -4.3 L-30.1 -4.45 -29.95 -4.45 -30.1 -4.3" fill="#ff6e00" fill-rule="evenodd" stroke="none"/>
    <path d="M-52.45 7.55 L-52.95 5.2 -52.95 4.55 -52.6 4.45 -30.1 -4.3 -29.95 -4.45 -27.7 -5.2 -27.1 -3.7 -27.1 -3.55 -26.7 -1.8 -25.6 1.95 -25.1 3.2 -24.6 5.2 -23.6 9.05 -52.45 7.55" fill="#ff5c00" fill-rule="evenodd" stroke="none"/>
    <path d="M-26.2 12.95 L-51.85 8.05 -52.45 7.55 -23.6 9.05 -24.85 12.8 -25.1 13.2 -26.2 12.95" fill="#e64400" fill-rule="evenodd" stroke="none"/>
  </g>
</svg>
