<?xml version="1.0" encoding="UTF-8" standalone="no"?>
<svg xmlns:xlink="http://www.w3.org/1999/xlink" height="86.0px" width="111.85px" xmlns="http://www.w3.org/2000/svg">
  <g transform="matrix(1.0, 0.0, 0.0, 1.0, 51.95, 46.2)">
    <path d="M48.05 -10.8 L48.15 -10.95 48.15 -10.8 48.05 -10.8" fill="#ffff77" fill-rule="evenodd" stroke="none"/>
    <path d="M48.15 -10.8 L59.9 2.3 48.3 8.8 48.3 7.95 40.8 -1.05 48.05 -10.8 48.15 -10.8 M-16.45 39.45 Q-21.2 32.1 -25.45 24.55 L-25.6 14.7 -23.85 14.8 -23.7 14.95 -21.7 14.8 -20.35 10.8 -22.7 6.8 -21.45 6.95 -20.85 6.45 -18.7 1.95 -17.45 -4.2 Q-17.2 -9.1 -18.45 -9.45 -22.15 -7.65 -22.9 0.3 L-22.95 0.3 -22.95 0.45 -23.1 0.8 -23.1 0.95 -23.2 1.95 -23.2 2.05 -23.35 2.2 -23.2 4.7 -23.1 4.8 -23.1 4.95 -22.95 6.2 -27.1 0.05 Q-23.65 1.3 -21.95 -10.95 -21.8 -20.95 -26.35 -10.95 L-27.2 -6.2 -27.35 -5.8 -27.35 -5.7 -27.45 -4.55 -27.6 -4.45 -27.35 -1.7 -27.2 -0.45 -28.95 -2.95 -32.7 -1.2 -21.35 -41.8 -6.95 -22.7 -19.95 20.8 -19.2 21.05 -16.6 20.55 -16.45 39.45" fill="#dcbe2b" fill-rule="evenodd" stroke="none"/>
    <path d="M24.3 -4.95 L36.9 -5.8 40.8 -1.05 48.3 7.95 25.65 9.8 23.9 7.7 24.3 -4.95" fill="#ffff57" fill-rule="evenodd" stroke="none"/>
    <path d="M48.3 8.8 L47.8 19.2 16.3 33.8 20.3 14.8 20.55 14.05 23.8 13.55 23.9 9.95 25.65 9.8 48.3 7.95 48.3 8.8" fill="#e8c930" fill-rule="evenodd" stroke="none"/>
    <path d="M23.9 9.95 L23.9 7.7 25.65 9.8 23.9 9.95" fill="#ffff49" fill-rule="evenodd" stroke="none"/>
    <path d="M24.65 -27.45 L24.3 -4.95 23.9 7.7 23.9 9.95 23.8 13.55 20.55 14.05 -16.6 20.55 -19.2 21.05 -19.95 20.8 -6.95 -22.7 24.65 -27.45" fill="#e6c72f" fill-rule="evenodd" stroke="none"/>
    <path d="M-27.2 -6.2 L-26.35 -10.95 Q-21.8 -20.95 -21.95 -10.95 -23.65 1.3 -27.1 0.05 L-27.2 -0.45 -27.35 -1.7 -26.85 -1.3 -26.1 -1.7 -24.85 -5.05 Q-24.4 -11.25 -27.2 -6.2 M-22.95 6.2 L-23.1 4.95 -22.1 5.3 -21.35 4.45 -20.6 1.95 Q-20.2 -5.2 -22.85 0.2 L-22.9 0.3 Q-22.15 -7.65 -18.45 -9.45 -17.2 -9.1 -17.45 -4.2 L-18.7 1.95 -20.85 6.45 -21.45 6.95 -22.7 6.8 -22.7 6.7 -22.85 6.55 -22.95 6.2" fill="#ffffff" fill-rule="evenodd" stroke="none"/>
    <path d="M-50.45 11.55 L-51.95 9.05 -51.95 8.7 -51.35 8.45 -32.85 -1.05 -32.7 -1.2 -28.95 -2.95 -27.2 -0.45 -27.1 0.05 -22.95 6.2 -22.85 6.55 -22.7 6.7 -22.7 6.8 -20.35 10.8 -50.45 11.55" fill="#ff5c00" fill-rule="evenodd" stroke="none"/>
    <path d="M-27.2 -6.2 Q-24.4 -11.25 -24.85 -5.05 L-26.1 -1.7 -26.85 -1.3 -27.35 -1.7 -27.6 -4.45 -27.45 -4.55 -27.35 -5.7 -27.35 -5.8 -27.2 -6.2 M-23.1 4.95 L-23.1 4.8 -23.2 4.7 -23.35 2.2 -23.2 2.05 -23.2 1.95 -23.1 0.95 -23.1 0.8 -22.95 0.45 -22.95 0.3 -22.9 0.3 -22.85 0.2 Q-20.2 -5.2 -20.6 1.95 L-21.35 4.45 -22.1 5.3 -23.1 4.95" fill="#000000" fill-rule="evenodd" stroke="none"/>
    <path d="M-25.6 14.7 L-50.35 12.05 -50.45 11.55 -20.35 10.8 -21.7 14.8 -23.7 14.95 -23.85 14.8 -25.6 14.7" fill="#e64400" fill-rule="evenodd" stroke="none"/>
    <path d="M16.3 33.8 L-11.45 39.05 Q-17.2 40.35 -16.45 39.45 L-16.6 20.55 20.55 14.05 20.3 14.8 16.3 33.8" fill="#e7c830" fill-rule="evenodd" stroke="none"/>
    <path d="M-21.35 -41.8 L8.8 -46.2 24.65 -27.45 -6.95 -22.7 -21.35 -41.8" fill="#ffe93e" fill-rule="evenodd" stroke="none"/>
  </g>
</svg>
