<?xml version="1.0" encoding="UTF-8" standalone="no"?>
<svg xmlns:xlink="http://www.w3.org/1999/xlink" height="88.75px" width="98.5px" xmlns="http://www.w3.org/2000/svg">
  <g transform="matrix(1.0, 0.0, 0.0, 1.0, 45.7, 46.7)">
    <path d="M21.8 -28.7 L28.4 -30.95 27.9 -9.2 27.9 -6.05 27.55 5.7 27.55 9.7 22.05 11.8 21.3 11.95 21.05 2.3 21.8 -28.7" fill="#fffd48" fill-rule="evenodd" stroke="none"/>
    <path d="M28.4 -30.95 L21.8 -28.7 8.8 -24.3 2.3 -22.2 -25.35 -38.45 -25.1 -38.8 0.3 -46.7 28.4 -30.95" fill="#ffe93e" fill-rule="evenodd" stroke="none"/>
    <path d="M50.3 -9.3 L52.8 -6.45 52.8 -5.95 44.55 0.55 40.65 -1.8 50.3 -9.3" fill="#edce32" fill-rule="evenodd" stroke="none"/>
    <path d="M27.9 -6.05 L27.9 -9.2 32.15 -6.8 36.55 -16.8 36.9 -16.95 50.3 -9.3 40.65 -1.8 44.55 0.55 44.9 0.95 41.3 1.95 27.9 -6.05 M-25.35 -38.45 L2.3 -22.2 -3.45 1.55 -3.7 1.95 -8.95 23.55 -8.85 23.55 -8.6 42.05 -26.45 29.2 -26.7 18.8 -13.45 18.05 -12.1 13.55 -29.1 1.95 -29.35 1.7 -29.95 1.95 -34.35 6.05 -35.45 5.3 -35.45 4.8 -25.35 -38.45 M-24.7 -10.95 Q-28.45 -4.9 -26.7 1.95 -25.1 6.95 -21.45 1.95 -17.95 -8.15 -20.45 -10.95 -22.1 -13.95 -24.7 -10.95 M-10.95 1.95 Q-10.55 -6.45 -13.35 -6.8 -16.65 -7.95 -18.7 1.95 -19.2 8.8 -16.2 10.2 -11.85 9.55 -10.95 1.95" fill="#dcbe2b" fill-rule="evenodd" stroke="none"/>
    <path d="M27.55 5.7 L27.9 -6.05 41.3 1.95 40.9 1.95 27.55 5.7" fill="#e7d335" fill-rule="evenodd" stroke="none"/>
    <path d="M22.05 11.8 L27.55 9.7 27.55 5.7 40.9 1.95 41.3 1.95 44.9 0.95 44.65 11.8 44.3 12.3 18.8 31.05 22.05 11.8" fill="#fffe48" fill-rule="evenodd" stroke="none"/>
    <path d="M21.8 -28.7 L21.05 2.3 21.3 11.95 22.05 11.8 18.8 31.05 -8.6 42.05 -8.85 23.55 -2.95 21.3 9.15 16.55 8.55 -11.8 8.8 -24.3 21.8 -28.7" fill="#fffc47" fill-rule="evenodd" stroke="none"/>
    <path d="M2.3 -22.2 L8.8 -24.3 8.55 -11.8 9.15 16.55 -2.95 21.3 -3.45 1.55 2.3 -22.2" fill="#fffb47" fill-rule="evenodd" stroke="none"/>
    <path d="M-24.7 -10.95 Q-22.1 -13.95 -20.45 -10.95 -17.95 -8.15 -21.45 1.95 -25.1 6.95 -26.7 1.95 -28.45 -4.9 -24.7 -10.95 M-24.35 2.7 L-23.85 1.95 -22.85 -0.45 Q-22.6 -4.1 -23.85 -4.7 -27.3 -4.0 -25.95 1.95 L-25.1 2.8 -24.35 2.7 M-17.1 1.95 Q-18.8 7.85 -16.7 8.55 -13.85 8.85 -14.45 1.95 L-15.35 0.95 -16.35 1.05 -17.1 1.95 M-10.95 1.95 Q-11.85 9.55 -16.2 10.2 -19.2 8.8 -18.7 1.95 -16.65 -7.95 -13.35 -6.8 -10.55 -6.45 -10.95 1.95" fill="#ffffff" fill-rule="evenodd" stroke="none"/>
    <path d="M-24.35 2.7 L-25.1 2.8 -25.95 1.95 Q-27.3 -4.0 -23.85 -4.7 -22.6 -4.1 -22.85 -0.45 L-23.85 1.95 -24.35 2.7 M-17.1 1.95 L-16.35 1.05 -15.35 0.95 -14.45 1.95 Q-13.85 8.85 -16.7 8.55 -18.8 7.85 -17.1 1.95" fill="#000000" fill-rule="evenodd" stroke="none"/>
    <path d="M-45.7 16.8 L-34.35 6.05 -29.95 1.95 -29.35 1.7 -29.1 1.95 -12.1 13.55 -42.2 19.2 -45.7 16.8" fill="#ff5d00" fill-rule="evenodd" stroke="none"/>
    <path d="M-26.7 18.8 L-42.35 19.45 -45.7 16.8 -42.2 19.2 -12.1 13.55 -13.45 18.05 -26.7 18.8" fill="#e64400" fill-rule="evenodd" stroke="none"/>
    <path d="M-8.85 23.55 L-8.95 23.55 -3.7 1.95 -3.45 1.55 -2.95 21.3 -8.85 23.55" fill="#fffa47" fill-rule="evenodd" stroke="none"/>
  </g>
</svg>
