<?xml version="1.0" encoding="UTF-8" standalone="no"?>
<svg xmlns:xlink="http://www.w3.org/1999/xlink" height="89.15px" width="88.25px" xmlns="http://www.w3.org/2000/svg">
  <g transform="matrix(1.0, 0.0, 0.0, 1.0, 40.6, 46.45)">
    <path d="M45.3 -12.8 L47.65 -9.7 40.4 -3.05 36.65 -4.7 45.3 -12.8" fill="#ffe93f" fill-rule="evenodd" stroke="none"/>
    <path d="M45.3 -12.8 L36.65 -4.7 40.4 -3.05 41.8 -2.3 38.55 -1.05 28.65 -5.45 29.15 -17.55 29.8 -19.2 29.9 -19.3 45.3 -12.8 M-4.35 42.7 L-25.95 31.45 -26.2 21.55 -26.2 21.45 -8.7 19.05 -7.35 14.45 -28.35 4.05 -28.85 4.05 -32.7 9.45 -35.35 8.2 -35.35 7.55 -26.6 -36.7 -26.2 -36.7 6.8 -22.3 -3.1 24.2 -4.35 23.7 -4.2 40.55 -4.35 42.7 M-25.95 1.95 Q-23.3 10.7 -18.35 1.95 -15.65 -8.5 -20.7 -10.7 -26.35 -10.25 -25.95 1.95 M-15.7 1.95 Q-16.3 10.65 -12.1 11.45 -7.45 10.7 -6.85 1.95 -6.4 -4.2 -10.2 -5.8 -13.45 -7.2 -15.7 1.95" fill="#dcbe2b" fill-rule="evenodd" stroke="none"/>
    <path d="M19.4 29.45 L19.3 29.8 -3.7 42.7 -4.35 42.7 -4.2 40.55 -4.35 23.7 -3.1 24.2 6.8 -22.3 29.3 -32.95 29.15 -17.55 28.65 -5.45 28.4 3.05 28.3 7.55 22.15 10.95 19.4 29.45" fill="#ffff52" fill-rule="evenodd" stroke="none"/>
    <path d="M28.65 -5.45 L38.55 -1.05 28.4 3.05 28.65 -5.45" fill="#e7d335" fill-rule="evenodd" stroke="none"/>
    <path d="M41.8 -2.3 L41.55 8.55 41.15 9.05 19.8 29.45 19.4 29.45 22.15 10.95 28.3 7.55 28.4 3.05 38.55 -1.05 41.8 -2.3" fill="#ffff53" fill-rule="evenodd" stroke="none"/>
    <path d="M-26.6 -36.7 L-3.7 -46.45 29.3 -32.95 6.8 -22.3 -26.2 -36.7 -26.6 -36.7" fill="#ffe93e" fill-rule="evenodd" stroke="none"/>
    <path d="M-22.6 -2.95 L-21.6 -2.45 -20.95 -1.2 -20.95 1.95 -21.85 4.05 -22.7 4.7 -23.6 4.7 -24.6 3.45 -24.85 1.95 Q-24.95 -2.4 -22.6 -2.95 M-11.2 2.45 L-10.6 3.45 -10.35 6.55 -11.35 9.05 -12.85 9.8 -13.85 9.2 -14.35 7.95 -14.45 5.05 -13.6 2.95 -12.2 2.05 -11.2 2.45" fill="#000000" fill-rule="evenodd" stroke="none"/>
    <path d="M-22.6 -2.95 Q-24.95 -2.4 -24.85 1.95 L-24.6 3.45 -23.6 4.7 -22.7 4.7 -21.85 4.05 -20.95 1.95 -20.95 -1.2 -21.6 -2.45 -22.6 -2.95 M-25.95 1.95 Q-26.35 -10.25 -20.7 -10.7 -15.65 -8.5 -18.35 1.95 -23.3 10.7 -25.95 1.95 M-11.2 2.45 L-12.2 2.05 -13.6 2.95 -14.45 5.05 -14.35 7.95 -13.85 9.2 -12.85 9.8 -11.35 9.05 -10.35 6.55 -10.6 3.45 -11.2 2.45 M-15.7 1.95 Q-13.45 -7.2 -10.2 -5.8 -6.4 -4.2 -6.85 1.95 -7.45 10.7 -12.1 11.45 -16.3 10.65 -15.7 1.95" fill="#ffffff" fill-rule="evenodd" stroke="none"/>
    <path d="M-40.6 20.3 L-32.7 9.45 -28.85 4.05 -28.35 4.05 -7.35 14.45 -36.2 22.45 -40.6 20.3" fill="#ff5d00" fill-rule="evenodd" stroke="none"/>
    <path d="M-36.35 22.8 L-40.45 20.7 -40.6 20.3 -36.2 22.45 -36.35 22.8" fill="#e64400" fill-rule="evenodd" stroke="none"/>
    <path d="M-26.35 21.55 L-36.35 22.8 -36.2 22.45 -7.35 14.45 -8.7 19.05 -26.2 21.45 -26.35 21.55" fill="#fb5100" fill-rule="evenodd" stroke="none"/>
    <path d="M-26.2 21.55 L-26.35 21.55 -26.2 21.45 -26.2 21.55" fill="#ffff54" fill-rule="evenodd" stroke="none"/>
  </g>
</svg>
