<?xml version="1.0" encoding="UTF-8" standalone="no"?>
<svg xmlns:xlink="http://www.w3.org/1999/xlink" height="88.9px" width="75.9px" xmlns="http://www.w3.org/2000/svg">
  <g transform="matrix(1.0, 0.0, 0.0, 1.0, 34.35, 45.95)">
    <path d="M28.65 -1.3 L30.15 -0.8 28.65 -0.05 28.65 -1.3" fill="#e7d335" fill-rule="evenodd" stroke="none"/>
    <path d="M28.65 -1.3 L28.8 -5.8 35.3 -3.8 30.15 -0.8 28.65 -1.3" fill="#e7d234" fill-rule="evenodd" stroke="none"/>
    <path d="M28.8 -5.8 L28.65 -1.3 28.65 -0.05 28.55 5.45 21.65 10.55 19.55 27.7 19.65 27.8 19.55 28.3 0.3 42.95 0.3 23.45 2.9 24.3 11.3 -22.95 29.55 -34.8 29.15 -18.95 28.8 -5.8" fill="#ffff5c" fill-rule="evenodd" stroke="none"/>
    <path d="M30.15 -0.8 L35.3 -3.8 37.65 -5.05 37.4 5.95 19.65 27.8 19.55 27.7 21.65 10.55 28.55 5.45 28.65 -0.05 30.15 -0.8" fill="#ffff5d" fill-rule="evenodd" stroke="none"/>
    <path d="M35.3 -3.8 L28.8 -5.8 29.15 -18.95 39.55 -15.8 31.65 -7.3 35.4 -6.05 37.8 -5.3 37.65 -5.05 35.3 -3.8 M11.3 -22.95 L2.9 24.3 0.3 23.45 0.3 42.95 -24.85 33.55 -25.1 24.7 -4.35 19.8 Q-3.8 21.75 -2.45 14.95 L-2.45 14.8 -26.95 6.2 -29.7 12.55 -34.1 11.05 -34.35 10.45 -27.1 -34.8 11.3 -22.95 M-12.35 1.95 Q-14.05 9.25 -7.95 12.3 -2.15 10.25 -2.6 1.95 -3.1 -4.6 -6.6 -5.05 -10.45 -5.8 -12.35 1.95 M-18.1 -9.05 Q-24.7 -9.05 -24.35 1.95 -20.45 14.2 -15.1 1.95 -13.6 -6.6 -18.1 -9.05" fill="#dcbe2b" fill-rule="evenodd" stroke="none"/>
    <path d="M35.4 -6.05 L31.65 -7.3 39.55 -15.8 41.55 -12.95 35.4 -6.05" fill="#ffff4a" fill-rule="evenodd" stroke="none"/>
    <path d="M-22.45 4.8 L-22.6 1.95 Q-19.55 -4.35 -18.2 1.95 -17.85 3.85 -19.45 6.05 L-21.2 6.45 -22.45 4.8 M-7.6 3.05 L-6.85 3.7 -6.1 6.55 Q-6.6 11.25 -9.1 10.7 -12.65 5.55 -8.45 2.95 L-7.6 3.05" fill="#000000" fill-rule="evenodd" stroke="none"/>
    <path d="M-22.45 4.8 L-21.2 6.45 -19.45 6.05 Q-17.85 3.85 -18.2 1.95 -19.55 -4.35 -22.6 1.95 L-22.45 4.8 M-7.6 3.05 L-8.45 2.95 Q-12.65 5.55 -9.1 10.7 -6.6 11.25 -6.1 6.55 L-6.85 3.7 -7.6 3.05 M-18.1 -9.05 Q-13.6 -6.6 -15.1 1.95 -20.45 14.2 -24.35 1.95 -24.7 -9.05 -18.1 -9.05 M-12.35 1.95 Q-10.45 -5.8 -6.6 -5.05 -3.1 -4.6 -2.6 1.95 -2.15 10.25 -7.95 12.3 -14.05 9.25 -12.35 1.95" fill="#ffffff" fill-rule="evenodd" stroke="none"/>
    <path d="M-29.2 25.55 L-34.2 23.8 -34.2 23.45 -29.2 25.2 -29.2 25.55" fill="#e64400" fill-rule="evenodd" stroke="none"/>
    <path d="M-2.45 14.95 Q-3.8 21.75 -4.35 19.8 L-25.1 24.7 -29.2 25.55 -29.2 25.2 -2.45 14.95" fill="#ff6400" fill-rule="evenodd" stroke="none"/>
    <path d="M-29.7 12.55 L-26.95 6.2 -2.45 14.8 -2.45 14.95 -29.2 25.2 -34.2 23.45 -29.7 12.55" fill="#ff5e00" fill-rule="evenodd" stroke="none"/>
    <path d="M29.55 -34.8 L11.3 -22.95 -27.1 -34.8 -8.35 -45.95 29.55 -34.8" fill="#ffe93e" fill-rule="evenodd" stroke="none"/>
  </g>
</svg>
