<?xml version="1.0" encoding="UTF-8" standalone="no"?>
<svg xmlns:xlink="http://www.w3.org/1999/xlink" height="88.0px" width="67.0px" xmlns="http://www.w3.org/2000/svg">
  <g transform="matrix(1.0, 0.0, 0.0, 1.0, 32.45, 45.2)">
    <path d="M-26.85 -32.95 L-12.2 -45.2 28.9 -36.7 28.9 -36.55 15.4 -23.8 -26.85 -32.95" fill="#ffe93e" fill-rule="evenodd" stroke="none"/>
    <path d="M33.05 -18.3 L34.55 -15.55 29.4 -8.55 28.3 -8.8 28.4 -12.55 33.05 -18.3" fill="#ffff55" fill-rule="evenodd" stroke="none"/>
    <path d="M28.55 -19.3 L33.05 -18.3 28.4 -12.55 28.55 -19.3 M29.4 -8.55 L32.65 -7.95 32.8 -7.55 31.05 -6.2 28.3 -6.8 28.3 -8.8 29.4 -8.55 M4.8 42.8 L-23.1 35.7 -23.2 27.3 -21.35 27.7 1.55 19.95 2.65 15.05 2.3 14.8 -24.35 8.3 -24.7 8.3 -25.45 14.8 -25.6 15.3 -32.45 13.7 -32.35 13.45 -26.85 -32.95 15.4 -23.8 8.9 23.95 4.8 22.95 4.8 42.8 M-21.35 6.05 Q-21.3 7.55 -17.95 9.55 -12.65 9.85 -11.6 1.95 -10.85 -5.25 -15.6 -7.7 -20.55 -9.5 -22.2 1.95 L-21.35 6.05 M-8.6 1.95 Q-9.55 11.25 -4.7 12.8 2.8 11.75 1.8 1.95 1.55 -2.85 -2.2 -4.55 -7.55 -4.55 -8.6 1.95" fill="#dcbe2b" fill-rule="evenodd" stroke="none"/>
    <path d="M28.9 -36.55 L28.55 -19.3 28.4 -12.55 28.3 -8.8 28.3 -6.8 28.15 -3.8 28.05 3.45 20.65 11.45 19.4 26.2 19.15 26.95 4.8 42.8 4.8 22.95 8.9 23.95 15.4 -23.8 28.9 -36.55" fill="#ffff65" fill-rule="evenodd" stroke="none"/>
    <path d="M31.05 -6.2 L28.15 -3.8 28.3 -6.8 31.05 -6.2" fill="#e7d335" fill-rule="evenodd" stroke="none"/>
    <path d="M32.8 -7.55 L32.65 3.2 19.4 26.2 20.65 11.45 28.05 3.45 28.15 -3.8 31.05 -6.2 32.8 -7.55" fill="#ffff66" fill-rule="evenodd" stroke="none"/>
    <path d="M-26.95 25.95 L-25.6 15.3 -25.45 14.8 -24.7 8.3 -24.35 8.3 2.3 14.8 2.65 15.05 -21.35 27.3 -26.95 25.95" fill="#ff6000" fill-rule="evenodd" stroke="none"/>
    <path d="M-23.2 27.3 L-26.95 26.3 -26.95 25.95 -21.35 27.3 -21.35 27.7 -23.2 27.3" fill="#e64400" fill-rule="evenodd" stroke="none"/>
    <path d="M2.65 15.05 L1.55 19.95 -21.35 27.7 -21.35 27.3 2.65 15.05" fill="#ff7600" fill-rule="evenodd" stroke="none"/>
    <path d="M-21.35 6.05 L-22.2 1.95 Q-20.55 -9.5 -15.6 -7.7 -10.85 -5.25 -11.6 1.95 -12.65 9.85 -17.95 9.55 -21.3 7.55 -21.35 6.05 M-3.2 3.7 L-4.45 3.55 -6.1 4.95 -6.6 6.55 -6.6 8.45 -5.85 10.55 -4.1 11.3 Q-1.8 11.1 -1.7 6.7 L-2.6 4.2 -3.2 3.7 M-8.6 1.95 Q-7.55 -4.55 -2.2 -4.55 1.55 -2.85 1.8 1.95 2.8 11.75 -4.7 12.8 -9.55 11.25 -8.6 1.95 M-18.1 8.05 Q-14.9 8.85 -15.45 1.95 -17.75 -1.35 -19.45 1.95 -20.9 5.85 -18.1 8.05" fill="#ffffff" fill-rule="evenodd" stroke="none"/>
    <path d="M-3.2 3.7 L-2.6 4.2 -1.7 6.7 Q-1.8 11.1 -4.1 11.3 L-5.85 10.55 -6.6 8.45 -6.6 6.55 -6.1 4.95 -4.45 3.55 -3.2 3.7 M-18.1 8.05 Q-20.9 5.85 -19.45 1.95 -17.75 -1.35 -15.45 1.95 -14.9 8.85 -18.1 8.05" fill="#000000" fill-rule="evenodd" stroke="none"/>
  </g>
</svg>
