<?xml version="1.0" encoding="UTF-8" standalone="no"?>
<svg xmlns:xlink="http://www.w3.org/1999/xlink" height="117.2px" width="258.45px" xmlns="http://www.w3.org/2000/svg">
  <g transform="matrix(1.0, 0.0, 0.0, 1.0, 128.4, 38.35)">
    <path d="M-76.35 46.85 L-82.6 41.85 -89.75 34.35 -95.1 22.6 -95.35 14.95 -92.35 2.6 -90.75 0.7 Q-80.95 -10.8 -76.35 -14.8 L-61.0 -24.05 Q-28.6 -39.4 0.25 -38.3 33.45 -38.2 59.4 -25.55 78.65 -18.35 93.9 2.6 L96.75 14.35 96.65 22.6 91.25 34.35 Q83.7 43.1 77.9 46.85 L75.5 48.7 Q69.4 47.15 43.25 43.35 L37.05 42.8 34.75 42.55 24.4 41.6 26.4 40.1 26.75 38.85 Q27.55 36.15 21.15 34.7 13.25 34.4 12.9 38.85 L13.0 39.6 14.25 41.1 0.75 40.45 -12.75 41.1 -11.75 40.1 -11.35 38.85 Q-11.35 35.4 -16.85 34.7 -24.2 34.15 -25.25 38.85 L-24.85 40.1 -22.85 41.6 Q-38.55 42.0 -74.0 48.7 L-76.35 46.85 M18.25 68.85 L0.0 69.85 -16.75 68.85 -2.85 62.85 2.5 63.1 4.4 62.85 18.25 68.85 M40.0 64.7 L34.65 62.45 42.0 64.2 40.0 64.7 M-40.35 64.2 L-33.1 62.45 -38.1 64.6 -38.5 64.7 -40.35 64.2" fill="#b19771" fill-rule="evenodd" stroke="none"/>
    <path d="M-22.85 41.6 L-24.85 40.1 -25.25 38.85 Q-24.2 34.15 -16.85 34.7 -11.35 35.4 -11.35 38.85 L-11.75 40.1 -12.75 41.1 Q-15.95 43.6 -22.85 41.6 M14.25 41.1 L13.0 39.6 12.9 38.85 Q13.25 34.4 21.15 34.7 27.55 36.15 26.75 38.85 L26.4 40.1 24.4 41.6 Q17.7 43.55 14.25 41.1" fill="#000000" fill-rule="evenodd" stroke="none"/>
    <path d="M89.0 51.7 Q118.8 59.0 128.4 66.6 132.15 70.2 127.4 70.35 L121.75 69.6 102.15 64.7 101.9 64.6 95.0 63.1 101.65 66.6 Q107.65 70.35 100.15 70.1 L95.65 69.35 75.75 64.6 55.0 60.6 65.25 64.6 Q80.15 71.7 72.5 72.35 L42.0 64.2 34.65 62.45 40.0 64.7 46.75 68.1 Q67.3 82.65 38.65 71.45 44.25 78.0 38.4 78.85 L36.5 78.35 18.25 68.85 4.4 62.85 11.4 60.7 31.15 51.2 38.15 46.7 Q40.95 43.95 38.5 43.2 38.2 42.95 37.05 42.8 L43.25 43.35 Q69.4 47.15 75.5 48.7 L89.0 51.7 M-16.75 68.85 Q-22.7 71.35 -33.85 77.85 L-37.0 78.85 Q-42.7 78.25 -37.1 71.45 -66.05 82.4 -45.25 68.1 L-38.5 64.7 -38.1 64.6 -33.1 62.45 -40.35 64.2 -42.35 64.6 -65.5 71.1 Q-71.3 72.7 -72.85 72.35 -77.2 71.2 -63.75 64.6 L-53.5 60.6 -74.25 64.6 -88.6 68.1 -98.6 70.1 Q-106.05 70.25 -100.25 66.7 L-93.5 63.1 -100.35 64.6 -100.6 64.7 -118.6 69.2 -125.85 70.35 Q-130.45 69.5 -126.75 66.45 -119.05 59.75 -87.6 51.85 L-87.5 51.7 -74.0 48.7 Q-38.55 42.0 -22.85 41.6 -15.95 43.6 -12.75 41.1 L0.75 40.45 14.25 41.1 Q17.7 43.55 24.4 41.6 L34.75 42.55 31.4 42.45 0.75 42.85 -29.75 42.45 -36.5 43.1 Q-42.95 43.5 -29.6 51.2 L-28.35 51.7 -21.5 55.45 -6.75 61.85 -2.85 62.85 -16.75 68.85" fill="#5f3f2a" fill-rule="evenodd" stroke="none"/>
    <path d="M34.75 42.55 L37.05 42.8 Q38.2 42.95 38.5 43.2 40.95 43.95 38.15 46.7 L31.15 51.2 11.4 60.7 4.4 62.85 2.5 63.1 -2.85 62.85 -6.75 61.85 -21.5 55.45 -28.35 51.7 -29.6 51.2 Q-42.95 43.5 -36.5 43.1 L-29.75 42.45 0.75 42.85 31.4 42.45 34.75 42.55" fill="#ff488c" fill-rule="evenodd" stroke="none"/>
    <path d="M77.9 46.85 L89.0 51.7 75.5 48.7 77.9 46.85 M102.15 64.7 L101.65 66.6 95.0 63.1 101.9 64.6 102.15 64.7 M100.15 70.1 Q88.3 78.55 46.75 68.1 L40.0 64.7 42.0 64.2 72.5 72.35 Q80.15 71.7 65.25 64.6 L55.0 60.6 75.75 64.6 95.65 69.35 100.15 70.1 M-45.25 68.1 Q-84.05 78.6 -98.6 70.1 L-88.6 68.1 -74.25 64.6 -53.5 60.6 -63.75 64.6 Q-77.2 71.2 -72.85 72.35 -71.3 72.7 -65.5 71.1 L-42.35 64.6 -40.35 64.2 -38.5 64.7 -45.25 68.1 M-100.25 66.7 Q-100.7 65.75 -100.6 64.7 L-100.35 64.6 -93.5 63.1 -100.25 66.7 M-87.5 51.7 L-76.35 46.85 -74.0 48.7 -87.5 51.7" fill="#573f70" fill-rule="evenodd" stroke="none"/>
  </g>
</svg>
