<?xml version="1.0" encoding="UTF-8" standalone="no"?>
<svg xmlns:xlink="http://www.w3.org/1999/xlink" height="86.65px" width="57.4px" xmlns="http://www.w3.org/2000/svg">
  <g transform="matrix(1.0, 0.0, 0.0, 1.0, 29.6, 44.2)">
    <path d="M-25.95 -31.05 L-15.7 -44.2 27.8 -38.7 27.65 -38.2 19.15 -24.95 -25.95 -31.05" fill="#ffe93e" fill-rule="evenodd" stroke="none"/>
    <path d="M27.65 -38.2 L27.05 0.3 26.9 1.3 18.65 24.45 19.05 15.7 14.9 22.7 19.15 -24.95 27.65 -38.2" fill="#ffff6d" fill-rule="evenodd" stroke="none"/>
    <path d="M-19.85 22.2 L-20.85 14.8 -21.2 13.7 -21.6 10.2 -21.2 10.2 7.55 14.7 -12.7 28.8 -18.85 27.95 -18.95 27.7 -19.7 22.8 -19.85 22.45 -19.85 22.2" fill="#ff6100" fill-rule="evenodd" stroke="none"/>
    <path d="M9.3 42.2 L8.55 42.45 -20.6 37.55 -20.95 18.3 -19.85 22.2 -19.85 22.45 -19.7 22.8 -18.95 27.7 -18.85 27.95 -18.85 28.3 -12.7 29.2 6.8 19.55 7.8 14.8 7.55 14.7 -21.2 10.2 -21.6 10.2 -21.2 13.7 -21.1 17.45 -29.6 16.05 -25.95 -31.05 19.15 -24.95 14.9 22.7 14.8 23.05 9.3 22.3 9.15 40.55 9.3 42.2 M1.65 -4.45 Q-1.65 -6.15 -4.7 1.95 -5.7 11.6 -0.2 13.05 7.55 11.35 6.3 1.95 5.1 -3.65 1.65 -4.45 M-12.85 -6.55 Q-18.65 -6.3 -19.2 1.95 -19.45 8.75 -14.7 10.8 -8.6 11.25 -7.95 1.95 -7.55 -4.1 -12.85 -6.55" fill="#dcbe2b" fill-rule="evenodd" stroke="none"/>
    <path d="M-20.95 18.3 L-21.1 17.45 -21.2 13.7 -20.85 14.8 -19.85 22.2 -20.95 18.3 M-18.85 27.95 L-12.7 28.8 -12.7 29.2 -18.85 28.3 -18.85 27.95" fill="#e64400" fill-rule="evenodd" stroke="none"/>
    <path d="M1.65 -4.45 Q5.1 -3.65 6.3 1.95 7.55 11.35 -0.2 13.05 -5.7 11.6 -4.7 1.95 -1.65 -6.15 1.65 -4.45 M-13.45 1.7 L-15.1 1.95 Q-18.4 6.65 -14.45 9.45 -9.45 7.95 -12.95 1.95 L-13.45 1.7 M-12.85 -6.55 Q-7.55 -4.1 -7.95 1.95 -8.6 11.25 -14.7 10.8 -19.45 8.75 -19.2 1.95 -18.65 -6.3 -12.85 -6.55 M-0.2 3.8 Q-4.85 9.4 0.55 11.55 5.4 5.9 -0.2 3.8" fill="#ffffff" fill-rule="evenodd" stroke="none"/>
    <path d="M-13.45 1.7 L-12.95 1.95 Q-9.45 7.95 -14.45 9.45 -18.4 6.65 -15.1 1.95 L-13.45 1.7 M-0.2 3.8 Q5.4 5.9 0.55 11.55 -4.85 9.4 -0.2 3.8" fill="#000000" fill-rule="evenodd" stroke="none"/>
    <path d="M-12.7 28.8 L7.55 14.7 7.8 14.8 6.8 19.55 -12.7 29.2 -12.7 28.8" fill="#ff8700" fill-rule="evenodd" stroke="none"/>
    <path d="M18.65 24.45 L18.55 25.3 9.3 42.2 9.15 40.55 9.3 22.3 14.8 23.05 14.9 22.7 19.05 15.7 18.65 24.45" fill="#ffff6c" fill-rule="evenodd" stroke="none"/>
  </g>
</svg>
