<?xml version="1.0" encoding="UTF-8" standalone="no"?>
<svg xmlns:xlink="http://www.w3.org/1999/xlink" height="84.6px" width="51.75px" xmlns="http://www.w3.org/2000/svg">
  <g transform="matrix(1.0, 0.0, 0.0, 1.0, 25.95, 43.05)">
    <path d="M22.4 -26.3 L24.8 -35.05 24.9 -36.7 25.8 -38.8 25.05 -0.05 20.3 20.7 22.4 -26.3" fill="#ffff73" fill-rule="evenodd" stroke="none"/>
    <path d="M25.8 -38.8 L24.9 -36.7 24.8 -35.05 22.4 -26.3 -24.45 -29.2 -18.95 -43.05 25.65 -40.45 25.8 -38.8" fill="#ffe93e" fill-rule="evenodd" stroke="none"/>
    <path d="M3.4 4.05 L4.3 3.7 Q9.85 5.8 5.15 11.45 L3.65 11.3 3.05 10.8 2.05 8.55 2.4 5.3 3.4 4.05 M-12.45 4.45 L-11.45 3.05 -10.7 2.7 Q-4.95 4.55 -9.7 10.45 L-11.1 10.3 -11.95 9.55 -12.85 7.05 -12.45 4.45" fill="#000000" fill-rule="evenodd" stroke="none"/>
    <path d="M3.4 4.05 L2.4 5.3 2.05 8.55 3.05 10.8 3.65 11.3 5.15 11.45 Q9.85 5.8 4.3 3.7 L3.4 4.05 M10.55 1.95 Q10.3 14.2 4.05 12.95 -1.05 12.4 -0.85 1.95 -0.3 -3.55 5.55 -4.55 10.3 -2.85 10.55 1.95 M-12.45 4.45 L-12.85 7.05 -11.95 9.55 -11.1 10.3 -9.7 10.45 Q-4.95 4.55 -10.7 2.7 L-11.45 3.05 -12.45 4.45 M-9.35 -5.55 Q-4.4 -3.6 -4.2 1.95 -4.8 12.7 -10.6 11.95 -15.8 11.15 -15.7 1.95 -14.9 -5.3 -9.35 -5.55" fill="#ffffff" fill-rule="evenodd" stroke="none"/>
    <path d="M22.4 -26.3 L20.3 20.7 20.05 21.8 17.55 21.55 13.55 21.3 13.3 40.55 13.4 40.7 13.3 41.55 12.65 41.55 -17.6 39.3 -17.85 19.05 -25.95 18.45 -24.45 -29.2 22.4 -26.3 M10.55 1.95 Q10.3 -2.85 5.55 -4.55 -0.3 -3.55 -0.85 1.95 -1.05 12.4 4.05 12.95 10.3 14.2 10.55 1.95 M-9.35 -5.55 Q-14.9 -5.3 -15.7 1.95 -15.8 11.15 -10.6 11.95 -4.8 12.7 -4.2 1.95 -4.4 -3.6 -9.35 -5.55 M12.55 14.2 L11.05 13.8 -17.35 11.8 -17.85 11.8 -17.6 12.8 -17.45 16.95 -11.1 27.7 -10.35 28.7 -10.2 29.2 -10.1 29.55 -3.7 30.05 11.8 19.05 12.4 14.8 12.55 14.2" fill="#dcbe2b" fill-rule="evenodd" stroke="none"/>
    <path d="M-17.6 12.8 L-17.85 11.8 -17.35 11.8 11.05 13.8 12.55 14.2 11.55 14.8 -3.7 29.7 -10.2 29.2 -10.35 28.7 -10.7 27.7 -17.6 12.8" fill="#ff6300" fill-rule="evenodd" stroke="none"/>
    <path d="M-17.6 12.8 L-10.7 27.7 -10.35 28.7 -11.1 27.7 -17.45 16.95 -17.6 12.8 M-10.2 29.2 L-3.7 29.7 -3.7 30.05 -10.1 29.55 -10.2 29.2" fill="#e64400" fill-rule="evenodd" stroke="none"/>
    <path d="M-3.7 29.7 L11.55 14.8 12.55 14.2 12.4 14.8 11.8 19.05 -3.7 30.05 -3.7 29.7" fill="#ff9600" fill-rule="evenodd" stroke="none"/>
    <path d="M13.4 40.7 L13.3 40.55 13.55 21.3 17.55 21.55 17.4 23.8 13.4 40.7" fill="#ffff72" fill-rule="evenodd" stroke="none"/>
  </g>
</svg>
