<?xml version="1.0" encoding="UTF-8" standalone="no"?>
<svg xmlns:xlink="http://www.w3.org/1999/xlink" height="82.65px" width="47.5px" xmlns="http://www.w3.org/2000/svg">
  <g transform="matrix(1.0, 0.0, 0.0, 1.0, 22.2, 41.95)">
    <path d="M-22.2 -27.55 L-21.85 -41.55 23.55 -41.95 25.3 -27.8 -22.2 -27.55" fill="#ffe93e" fill-rule="evenodd" stroke="none"/>
    <path d="M-22.2 -27.55 L25.3 -27.8 25.05 19.8 17.55 20.2 17.3 40.45 -14.1 40.7 -14.35 20.45 -21.6 20.3 -22.2 -27.55 M3.15 1.95 Q1.65 9.35 8.65 12.55 14.6 12.85 14.8 1.95 12.9 -5.35 9.05 -5.05 4.7 -5.05 3.15 1.95 M-11.85 1.95 Q-12.15 11.8 -6.2 12.7 0.35 11.8 -0.35 1.95 -5.85 -11.85 -11.85 1.95 M16.9 13.45 L17.05 12.95 -13.45 13.2 -13.7 13.3 -13.35 13.8 -13.35 14.8 -12.95 18.3 -1.1 29.95 5.65 29.8 16.55 18.05 16.9 14.8 16.9 13.45" fill="#dcbe2b" fill-rule="evenodd" stroke="none"/>
    <path d="M9.05 3.2 L10.15 3.55 11.3 4.95 11.65 7.95 11.3 9.3 10.4 10.55 8.65 11.05 6.9 9.8 6.3 7.8 6.3 6.45 7.05 4.3 8.3 3.3 9.05 3.2 M-6.95 3.55 L-5.95 3.3 Q-3.05 4.1 -3.35 8.2 L-4.6 10.7 -6.35 11.2 -7.95 10.05 -8.45 9.05 -8.7 6.45 -7.95 4.45 -6.95 3.55" fill="#000000" fill-rule="evenodd" stroke="none"/>
    <path d="M9.05 3.2 L8.3 3.3 7.05 4.3 6.3 6.45 6.3 7.8 6.9 9.8 8.65 11.05 10.4 10.55 11.3 9.3 11.65 7.95 11.3 4.95 10.15 3.55 9.05 3.2 M3.15 1.95 Q4.7 -5.05 9.05 -5.05 12.9 -5.35 14.8 1.95 14.6 12.85 8.65 12.55 1.65 9.35 3.15 1.95 M-6.95 3.55 L-7.95 4.45 -8.7 6.45 -8.45 9.05 -7.95 10.05 -6.35 11.2 -4.6 10.7 -3.35 8.2 Q-3.05 4.1 -5.95 3.3 L-6.95 3.55 M-11.85 1.95 Q-5.85 -11.85 -0.35 1.95 0.35 11.8 -6.2 12.7 -12.15 11.8 -11.85 1.95" fill="#ffffff" fill-rule="evenodd" stroke="none"/>
    <path d="M-13.35 13.8 L-13.7 13.3 -13.45 13.2 17.05 12.95 16.9 13.45 15.8 14.8 5.65 29.7 -1.1 29.7 -12.35 14.8 -13.35 13.8" fill="#ff6400" fill-rule="evenodd" stroke="none"/>
    <path d="M-13.35 13.8 L-12.35 14.8 -1.1 29.7 5.65 29.7 5.65 29.8 -1.1 29.95 -12.95 18.3 -13.35 14.8 -13.35 13.8" fill="#e64400" fill-rule="evenodd" stroke="none"/>
    <path d="M5.65 29.7 L15.8 14.8 16.9 13.45 16.9 14.8 16.55 18.05 5.65 29.8 5.65 29.7" fill="#ffa300" fill-rule="evenodd" stroke="none"/>
  </g>
</svg>
