<?xml version="1.0" encoding="UTF-8" standalone="no"?>
<svg xmlns:xlink="http://www.w3.org/1999/xlink" height="85.1px" width="53.4px" xmlns="http://www.w3.org/2000/svg">
  <g transform="matrix(1.0, 0.0, 0.0, 1.0, 24.1, 43.3)">
    <path d="M27.4 -29.55 L29.3 17.7 29.15 18.05 20.9 18.8 20.65 38.95 -9.35 41.8 -10.2 41.8 -10.2 41.05 -15.45 24.45 -15.7 22.05 -16.7 21.95 -16.7 21.2 -23.2 0.05 -24.1 -39.45 -19.35 -25.95 27.4 -29.55 M13.3 -5.7 Q8.4 -6.25 7.05 1.95 7.55 11.75 13.05 11.8 18.55 11.25 18.55 1.95 17.9 -4.5 13.3 -5.7 M-1.45 -4.45 Q-5.9 -5.15 -7.6 1.95 -8.4 11.6 -1.95 13.05 4.45 12.6 3.65 1.95 2.95 -3.15 -1.45 -4.45 M21.05 12.45 L21.15 11.55 20.3 11.55 -8.2 14.05 -8.95 14.2 -8.85 14.55 -8.85 14.8 -8.1 19.3 8.05 29.8 14.3 29.45 14.65 28.95 15.15 27.8 15.4 27.7 20.8 16.8 21.05 12.45" fill="#dcbe2b" fill-rule="evenodd" stroke="none"/>
    <path d="M27.4 -29.55 L-19.35 -25.95 -24.1 -39.45 -24.1 -39.95 -23.7 -40.05 20.65 -43.3 27.4 -29.55" fill="#ffe93e" fill-rule="evenodd" stroke="none"/>
    <path d="M12.55 2.55 L14.05 2.7 14.9 3.45 15.8 6.2 15.15 8.95 14.3 9.95 13.3 10.3 11.9 9.95 11.15 9.2 10.55 7.55 10.8 4.3 11.9 2.8 12.55 2.55 M-1.1 3.8 L0.15 4.7 1.05 7.45 0.4 10.3 -0.7 11.45 -1.35 11.55 Q-6.95 8.4 -2.1 3.8 L-1.1 3.8" fill="#000000" fill-rule="evenodd" stroke="none"/>
    <path d="M12.55 2.55 L11.9 2.8 10.8 4.3 10.55 7.55 11.15 9.2 11.9 9.95 13.3 10.3 14.3 9.95 15.15 8.95 15.8 6.2 14.9 3.45 14.05 2.7 12.55 2.55 M13.3 -5.7 Q17.9 -4.5 18.55 1.95 18.55 11.25 13.05 11.8 7.55 11.75 7.05 1.95 8.4 -6.25 13.3 -5.7 M-1.45 -4.45 Q2.95 -3.15 3.65 1.95 4.45 12.6 -1.95 13.05 -8.4 11.6 -7.6 1.95 -5.9 -5.15 -1.45 -4.45 M-1.1 3.8 L-2.1 3.8 Q-6.95 8.4 -1.35 11.55 L-0.7 11.45 0.4 10.3 1.05 7.45 0.15 4.7 -1.1 3.8" fill="#ffffff" fill-rule="evenodd" stroke="none"/>
    <path d="M-8.85 14.55 L-8.35 14.8 8.15 29.55 14.65 28.95 14.3 29.45 8.05 29.8 -8.1 19.3 -8.85 14.8 -8.85 14.55" fill="#e64400" fill-rule="evenodd" stroke="none"/>
    <path d="M-8.85 14.55 L-8.95 14.2 -8.2 14.05 20.3 11.55 21.15 11.55 21.05 12.45 19.9 14.8 15.05 27.7 15.15 27.8 14.65 28.95 8.15 29.55 -8.35 14.8 -8.85 14.55" fill="#ff6600" fill-rule="evenodd" stroke="none"/>
    <path d="M15.15 27.8 L15.05 27.7 19.9 14.8 21.05 12.45 20.8 16.8 15.4 27.7 15.15 27.8" fill="#ffae00" fill-rule="evenodd" stroke="none"/>
  </g>
</svg>
