<?xml version="1.0" encoding="UTF-8" standalone="no"?>
<svg xmlns:xlink="http://www.w3.org/1999/xlink" height="87.0px" width="59.25px" xmlns="http://www.w3.org/2000/svg">
  <g transform="matrix(1.0, 0.0, 0.0, 1.0, 26.6, 44.45)">
    <path d="M24.55 14.7 L24.3 14.8 24.4 14.95 24.3 17.05 23.8 22.2 23.65 22.3 23.65 25.05 23.3 27.55 17.15 28.55 -3.95 15.05 -4.1 14.8 24.65 9.8 24.55 14.7" fill="#ff6800" fill-rule="evenodd" stroke="none"/>
    <path d="M24.4 14.95 L24.65 14.8 24.55 14.7 24.65 9.8 -4.1 14.8 -3.95 15.05 -2.95 19.8 0.15 21.3 -5.95 22.45 -10.45 23.3 -11.1 23.3 -11.2 22.95 -15.95 -24.7 28.8 -31.45 32.65 15.7 24.3 17.05 24.4 14.95 M6.05 -2.05 Q4.3 -4.2 3.05 -4.3 -1.6 -5.2 -3.2 1.95 -3.6 11.6 1.55 13.05 8.7 13.1 7.65 1.95 L6.05 -2.05 M10.8 1.95 Q10.35 7.8 16.15 10.7 22.05 9.8 21.9 1.95 21.8 -5.0 16.65 -6.7 11.85 -7.5 10.8 1.95" fill="#f4d435" fill-rule="evenodd" stroke="none"/>
    <path d="M24.55 14.7 L24.65 14.8 24.4 14.95 24.3 14.8 24.55 14.7" fill="#ffb700" fill-rule="evenodd" stroke="none"/>
    <path d="M-5.95 22.45 L0.15 21.3 17.05 28.95 23.3 27.7 23.3 27.55 23.65 25.05 23.55 37.2 -5.2 42.55 -5.95 42.55 -6.1 42.2 -5.95 40.55 -5.95 22.45" fill="#e6c72f" fill-rule="evenodd" stroke="none"/>
    <path d="M23.3 27.55 L23.3 27.7 17.05 28.95 17.15 28.55 23.3 27.55" fill="#ea4700" fill-rule="evenodd" stroke="none"/>
    <path d="M-15.95 -24.7 L-11.2 22.95 -11.1 23.3 -10.45 23.3 -5.95 22.45 -5.95 40.55 -6.1 42.2 -16.6 25.45 -16.7 24.7 -26.35 1.45 -26.6 -9.3 -25.1 -9.7 -25.2 -15.3 -25.2 -15.8 -25.35 -15.55 -26.45 -17.3 -25.6 -19.8 -25.45 -19.8 -25.35 -19.3 -25.35 -19.95 -25.7 -37.95 -24.6 -36.7 -15.95 -24.7 M-25.1 -7.7 L-25.1 -7.95 -25.2 -7.95 -25.1 -7.7" fill="#dcbe2b" fill-rule="evenodd" stroke="none"/>
    <path d="M-25.2 -15.3 L-25.35 -15.55 -25.2 -15.8 -25.2 -15.3 M-25.45 -19.95 L-25.35 -19.95 -25.35 -19.3 -25.45 -19.8 -25.45 -19.95 M-25.1 -7.7 L-25.2 -7.95 -25.1 -7.95 -25.1 -7.7" fill="#edce32" fill-rule="evenodd" stroke="none"/>
    <path d="M28.8 -31.45 L-15.95 -24.7 -24.6 -36.7 -25.7 -37.95 -25.6 -38.3 17.4 -44.45 28.8 -31.45" fill="#ffe93e" fill-rule="evenodd" stroke="none"/>
    <path d="M-25.6 -19.8 L-25.45 -19.95 -25.45 -19.8 -25.6 -19.8" fill="#fff343" fill-rule="evenodd" stroke="none"/>
    <path d="M3.4 3.95 L4.55 4.8 5.4 7.45 5.05 9.8 4.3 11.05 3.4 11.55 2.3 11.55 1.3 10.95 0.3 8.55 Q0.45 3.7 2.4 3.8 L3.4 3.95 M17.3 1.45 L18.15 1.95 Q21.3 8.3 16.4 9.2 12.85 7.05 15.55 1.95 L17.3 1.45" fill="#000000" fill-rule="evenodd" stroke="none"/>
    <path d="M17.3 1.45 L15.55 1.95 Q12.85 7.05 16.4 9.2 21.3 8.3 18.15 1.95 L17.3 1.45 M3.4 3.95 L2.4 3.8 Q0.45 3.7 0.3 8.55 L1.3 10.95 2.3 11.55 3.4 11.55 4.3 11.05 5.05 9.8 5.4 7.45 4.55 4.8 3.4 3.95 M10.8 1.95 Q11.85 -7.5 16.65 -6.7 21.8 -5.0 21.9 1.95 22.05 9.8 16.15 10.7 10.35 7.8 10.8 1.95 M6.05 -2.05 L7.65 1.95 Q8.7 13.1 1.55 13.05 -3.6 11.6 -3.2 1.95 -1.6 -5.2 3.05 -4.3 4.3 -4.2 6.05 -2.05" fill="#ffffff" fill-rule="evenodd" stroke="none"/>
    <path d="M0.15 21.3 L-2.95 19.8 -3.95 15.05 17.15 28.55 17.05 28.95 0.15 21.3" fill="#e64400" fill-rule="evenodd" stroke="none"/>
  </g>
</svg>
