<?xml version="1.0" encoding="UTF-8" standalone="no"?>
<svg xmlns:xlink="http://www.w3.org/1999/xlink" height="88.4px" width="69.25px" xmlns="http://www.w3.org/2000/svg">
  <g transform="matrix(1.0, 0.0, 0.0, 1.0, 33.95, 45.45)">
    <path d="M29.55 -33.3 L35.3 12.3 35.3 13.05 29.05 14.7 27.8 8.05 27.4 7.95 1.55 14.8 1.05 15.2 2.15 19.95 5.8 21.05 -1.6 23.2 -4.35 23.95 -5.35 23.8 -12.1 -23.55 29.55 -33.3 M11.55 1.95 Q9.65 -4.6 6.8 -4.55 1.3 -3.8 1.3 1.95 0.9 11.0 6.05 12.8 12.05 13.75 11.55 1.95 M14.4 1.95 Q15.1 7.75 19.05 9.3 24.15 9.5 24.8 1.95 24.6 -6.2 20.15 -7.8 14.55 -9.2 14.4 1.95" fill="#ffee41" fill-rule="evenodd" stroke="none"/>
    <path d="M29.05 14.7 L31.3 25.45 25.55 26.95 1.05 15.2 1.55 14.8 27.4 7.95 27.8 8.05 29.05 14.7" fill="#ff6a00" fill-rule="evenodd" stroke="none"/>
    <path d="M5.8 21.05 L2.15 19.95 1.05 15.2 25.55 26.95 25.4 27.3 5.8 21.05" fill="#e64400" fill-rule="evenodd" stroke="none"/>
    <path d="M31.3 25.45 L31.15 25.8 26.05 27.3 25.4 27.3 25.55 26.95 31.3 25.45" fill="#ff5a00" fill-rule="evenodd" stroke="none"/>
    <path d="M26.05 27.3 L25.8 35.2 -0.85 42.95 -1.6 42.8 -1.45 40.55 -1.6 23.2 5.8 21.05 25.4 27.3 26.05 27.3" fill="#ffe13b" fill-rule="evenodd" stroke="none"/>
    <path d="M-1.6 42.8 L-17.1 27.2 -17.35 26.55 -31.6 3.8 -31.95 -7.2 -29.85 -5.7 -25.95 -2.7 -26.1 -6.55 -26.1 -8.7 -28.7 -8.05 -33.95 -15.05 -32.6 -17.7 -26.35 -10.2 -26.2 -9.95 -26.2 -10.2 -26.35 -19.2 -26.35 -19.3 -26.7 -36.2 -12.2 -23.8 -12.1 -23.55 -5.35 23.8 -4.35 23.95 -1.6 23.2 -1.45 40.55 -1.6 42.8" fill="#dcbe2b" fill-rule="evenodd" stroke="none"/>
    <path d="M-26.7 -36.2 L-24.6 -36.95 13.55 -45.45 29.55 -33.3 -12.1 -23.55 -12.2 -23.8 -26.7 -36.2" fill="#ffe93e" fill-rule="evenodd" stroke="none"/>
    <path d="M-32.6 -17.7 L-26.45 -19.2 -26.35 -19.2 -26.2 -10.2 -26.35 -10.2 -32.6 -17.7" fill="#ffff4a" fill-rule="evenodd" stroke="none"/>
    <path d="M-26.45 -19.2 L-26.35 -19.3 -26.35 -19.2 -26.45 -19.2 M-26.2 -10.2 L-26.2 -9.95 -26.35 -10.2 -26.2 -10.2" fill="#ffe83e" fill-rule="evenodd" stroke="none"/>
    <path d="M-31.95 -7.2 L-28.7 -8.05 -26.1 -8.7 -26.1 -6.55 -29.85 -5.7 -31.95 -7.2" fill="#ddbf2c" fill-rule="evenodd" stroke="none"/>
    <path d="M-26.1 -6.55 L-25.95 -2.7 -29.85 -5.7 -26.1 -6.55" fill="#e8ce32" fill-rule="evenodd" stroke="none"/>
    <path d="M8.65 4.3 L7.9 3.7 6.65 3.55 Q2.35 8.65 7.8 11.3 L9.3 9.8 9.65 7.2 8.65 4.3 M11.55 1.95 Q12.05 13.75 6.05 12.8 0.9 11.0 1.3 1.95 1.3 -3.8 6.8 -4.55 9.65 -4.6 11.55 1.95 M14.4 1.95 Q14.55 -9.2 20.15 -7.8 24.6 -6.2 24.8 1.95 24.15 9.5 19.05 9.3 15.1 7.75 14.4 1.95 M18.8 7.05 L19.9 7.8 Q23.45 7.75 22.3 1.95 21.1 -1.6 18.15 1.95 L18.05 5.45 18.8 7.05" fill="#ffffff" fill-rule="evenodd" stroke="none"/>
    <path d="M8.65 4.3 L9.65 7.2 9.3 9.8 7.8 11.3 Q2.35 8.65 6.65 3.55 L7.9 3.7 8.65 4.3 M18.8 7.05 L18.05 5.45 18.15 1.95 Q21.1 -1.6 22.3 1.95 23.45 7.75 19.9 7.8 L18.8 7.05" fill="#000000" fill-rule="evenodd" stroke="none"/>
  </g>
</svg>
