<?xml version="1.0" encoding="UTF-8" standalone="no"?>
<svg xmlns:xlink="http://www.w3.org/1999/xlink" height="89.0px" width="79.0px" xmlns="http://www.w3.org/2000/svg">
  <g transform="matrix(1.0, 0.0, 0.0, 1.0, 40.85, 46.05)">
    <path d="M22.3 -9.3 Q27.45 -6.7 26.9 1.95 25.8 8.25 22.15 7.8 19.05 7.0 17.9 1.95 15.95 -8.2 22.3 -9.3 M22.8 6.2 Q25.05 7.05 25.3 1.95 23.2 -4.85 20.9 1.95 L21.3 4.45 21.9 5.55 22.8 6.2 M10.9 2.95 Q7.2 8.55 11.8 10.7 L12.9 9.95 13.65 8.2 13.65 6.05 13.3 4.7 12.3 3.3 10.9 2.95 M5.65 1.95 Q6.2 -5.3 10.55 -5.05 14.7 -3.1 15.15 1.95 15.3 13.3 10.4 12.2 6.05 11.05 5.65 1.95" fill="#ffffff" fill-rule="evenodd" stroke="none"/>
    <path d="M22.3 -9.3 Q15.95 -8.2 17.9 1.95 19.05 7.0 22.15 7.8 25.8 8.25 26.9 1.95 27.45 -6.7 22.3 -9.3 M29.4 -35.2 L37.05 10.2 32.9 11.8 30.15 6.2 29.65 5.8 6.05 14.8 6.15 15.05 7.4 19.7 11.05 20.45 3.05 23.55 0.65 24.2 -7.85 -22.8 29.4 -35.2 M5.65 1.95 Q6.05 11.05 10.4 12.2 15.3 13.3 15.15 1.95 14.7 -3.1 10.55 -5.05 6.2 -5.3 5.65 1.95" fill="#ffff4c" fill-rule="evenodd" stroke="none"/>
    <path d="M22.8 6.2 L21.9 5.55 21.3 4.45 20.9 1.95 Q23.2 -4.85 25.3 1.95 25.05 7.05 22.8 6.2 M10.9 2.95 L12.3 3.3 13.3 4.7 13.65 6.05 13.65 8.2 12.9 9.95 11.8 10.7 Q7.2 8.55 10.9 2.95" fill="#000000" fill-rule="evenodd" stroke="none"/>
    <path d="M6.15 15.05 L6.05 14.8 29.65 5.8 30.15 6.2 32.9 11.8 38.15 22.8 33.3 24.7 6.15 15.05" fill="#ff6b00" fill-rule="evenodd" stroke="none"/>
    <path d="M27.8 23.95 L27.65 23.95 27.65 23.8 27.8 23.95" fill="#ff6400" fill-rule="evenodd" stroke="none"/>
    <path d="M11.05 20.45 L7.4 19.7 6.15 15.05 33.3 24.7 33.15 24.95 27.8 23.95 27.65 23.8 11.05 20.45" fill="#e64400" fill-rule="evenodd" stroke="none"/>
    <path d="M3.05 23.55 L11.05 20.45 27.65 23.8 27.65 23.95 27.4 33.05 4.55 42.55 2.9 42.95 3.05 23.55" fill="#fffb47" fill-rule="evenodd" stroke="none"/>
    <path d="M38.15 22.8 L38.15 23.2 33.15 24.95 33.3 24.7 38.15 22.8" fill="#ff6d00" fill-rule="evenodd" stroke="none"/>
    <path d="M29.4 -35.2 L-7.85 -22.8 -27.1 -34.3 9.3 -46.05 11.05 -45.45 29.4 -35.2" fill="#ffe93e" fill-rule="evenodd" stroke="none"/>
    <path d="M-38.95 -14.95 L-26.85 -19.2 -26.7 -19.05 -26.45 -8.2 -26.6 -8.05 -30.85 -6.7 -38.95 -14.95" fill="#ffff51" fill-rule="evenodd" stroke="none"/>
    <path d="M-7.85 -22.8 L0.65 24.2 3.05 23.55 2.9 42.95 -17.45 28.3 -36.2 6.55 -36.6 -4.55 -33.85 -3.2 -28.45 -0.3 -26.35 0.8 -26.35 -1.05 -26.45 -5.7 -26.45 -5.8 -26.45 -8.05 -26.45 -8.2 -26.7 -19.05 -26.85 -19.2 -27.1 -34.3 -7.85 -22.8 M-34.45 -5.45 L-40.85 -12.2 -38.95 -14.95 -30.85 -6.7 -34.45 -5.45" fill="#dcbe2b" fill-rule="evenodd" stroke="none"/>
    <path d="M-26.45 -8.05 L-26.6 -8.05 -26.45 -8.2 -26.45 -8.05 M-26.45 -5.8 L-26.45 -5.7 -26.6 -5.7 -26.45 -5.8" fill="#ffff4a" fill-rule="evenodd" stroke="none"/>
    <path d="M-36.6 -4.55 L-34.45 -5.45 -30.85 -6.7 -26.6 -8.05 -26.45 -8.05 -26.45 -5.8 -26.6 -5.7 -33.85 -3.2 -36.6 -4.55" fill="#f0d134" fill-rule="evenodd" stroke="none"/>
    <path d="M-26.45 -5.7 L-26.35 -1.05 -28.45 -0.3 -33.85 -3.2 -26.6 -5.7 -26.45 -5.7" fill="#f5d937" fill-rule="evenodd" stroke="none"/>
    <path d="M-26.35 -1.05 L-26.35 0.8 -28.45 -0.3 -26.35 -1.05" fill="#fae13b" fill-rule="evenodd" stroke="none"/>
  </g>
</svg>
