<?xml version="1.0" encoding="UTF-8" standalone="no"?>
<svg xmlns:xlink="http://www.w3.org/1999/xlink" height="89.15px" width="91.0px" xmlns="http://www.w3.org/2000/svg">
  <g transform="matrix(1.0, 0.0, 0.0, 1.0, 46.7, 46.45)">
    <path d="M23.4 -10.95 L23.9 -10.95 Q28.95 -9.4 28.3 1.95 24.6 10.2 21.15 1.95 18.3 -9.65 23.4 -10.95 M27.15 -0.8 L26.65 -2.05 25.65 -3.05 Q22.65 -3.05 23.65 1.95 25.1 6.95 27.3 1.95 L27.15 -0.8 M9.9 1.95 Q9.55 -5.7 14.15 -5.8 17.45 -4.7 18.55 1.95 18.95 11.75 14.65 11.3 11.05 10.75 9.9 1.95 M15.8 9.7 Q19.55 5.0 14.8 2.05 11.55 7.0 15.8 9.7" fill="#ffffff" fill-rule="evenodd" stroke="none"/>
    <path d="M23.4 -10.95 Q18.3 -9.65 21.15 1.95 24.6 10.2 28.3 1.95 28.95 -9.4 23.9 -10.95 L23.4 -10.95 M28.65 -37.2 L37.8 7.2 37.55 7.7 35.65 8.7 31.4 3.45 11.65 13.8 11.05 14.45 12.4 18.95 15.8 19.3 7.4 23.95 6.8 24.05 -3.35 -22.3 28.65 -37.2 M9.9 1.95 Q11.05 10.75 14.65 11.3 18.95 11.75 18.55 1.95 17.45 -4.7 14.15 -5.8 9.55 -5.7 9.9 1.95" fill="#ffff57" fill-rule="evenodd" stroke="none"/>
    <path d="M27.15 -0.8 L27.3 1.95 Q25.1 6.95 23.65 1.95 22.65 -3.05 25.65 -3.05 L26.65 -2.05 27.15 -0.8 M15.8 9.7 Q11.55 7.0 14.8 2.05 19.55 5.0 15.8 9.7" fill="#000000" fill-rule="evenodd" stroke="none"/>
    <path d="M39.9 22.05 L28.65 20.8 15.8 19.3 12.4 18.95 11.05 14.45 13.15 14.8 40.05 21.8 39.9 22.05" fill="#e64400" fill-rule="evenodd" stroke="none"/>
    <path d="M44.3 19.55 L44.3 19.95 40.3 22.2 39.9 22.05 40.05 21.8 44.3 19.55" fill="#ff7f00" fill-rule="evenodd" stroke="none"/>
    <path d="M35.65 8.7 L44.3 19.55 40.05 21.8 13.15 14.8 11.05 14.45 11.65 13.8 31.4 3.45 35.65 8.7" fill="#ff6d00" fill-rule="evenodd" stroke="none"/>
    <path d="M-44.45 -11.95 L-29.2 -18.8 -26.45 -10.8 -26.2 -9.8 -26.2 -8.3 -35.45 -4.05 -44.45 -11.95" fill="#ffff58" fill-rule="evenodd" stroke="none"/>
    <path d="M7.3 42.55 L-17.2 29.8 -40.1 9.45 -40.45 -1.55 -37.1 -0.45 -30.6 1.95 -25.95 3.7 -26.1 -0.05 -26.2 -5.55 -26.2 -8.3 -26.2 -9.8 -26.35 -10.8 -26.85 -32.45 -3.35 -22.3 6.8 24.05 7.4 23.95 7.3 42.55 M-39.2 -2.3 L-46.7 -9.05 -44.45 -11.95 -35.45 -4.05 -39.2 -2.3" fill="#dcbe2b" fill-rule="evenodd" stroke="none"/>
    <path d="M-26.45 -10.8 L-26.35 -10.8 -26.2 -9.8 -26.45 -10.8" fill="#ffff54" fill-rule="evenodd" stroke="none"/>
    <path d="M-30.6 1.95 L-37.1 -0.45 -26.2 -5.55 -26.1 -0.05 -30.6 1.95" fill="#ffe43c" fill-rule="evenodd" stroke="none"/>
    <path d="M-40.45 -1.55 L-39.2 -2.3 -35.45 -4.05 -26.2 -8.3 -26.2 -5.55 -37.1 -0.45 -40.45 -1.55" fill="#ffe23b" fill-rule="evenodd" stroke="none"/>
    <path d="M-30.6 1.95 L-26.1 -0.05 -25.95 3.7 -30.6 1.95" fill="#ffe53d" fill-rule="evenodd" stroke="none"/>
    <path d="M28.65 20.8 L28.4 30.95 Q18.05 36.85 7.65 42.7 L7.3 42.55 7.4 23.95 15.8 19.3 28.65 20.8" fill="#ffff52" fill-rule="evenodd" stroke="none"/>
    <path d="M-26.85 -32.45 L5.55 -46.45 28.65 -37.2 -3.35 -22.3 -26.85 -32.45" fill="#ffe93e" fill-rule="evenodd" stroke="none"/>
  </g>
</svg>
