<?xml version="1.0" encoding="UTF-8" standalone="no"?>
<svg xmlns:xlink="http://www.w3.org/1999/xlink" height="125.0px" width="201.8px" xmlns="http://www.w3.org/2000/svg">
  <g transform="matrix(1.0, 0.0, 0.0, 1.0, 100.15, 50.15)">
    <path d="M-71.35 38.85 L-87.1 23.7 Q-94.35 7.75 -92.1 4.1 L-88.85 -8.9 -82.25 -17.3 Q-79.85 -21.1 -74.0 -25.65 L-60.25 -35.05 -35.5 -45.05 Q-34.75 -46.25 -4.5 -50.15 36.05 -49.05 53.9 -38.4 77.95 -28.5 90.75 -8.3 L93.5 3.45 93.5 10.85 88.65 23.7 72.9 38.85 Q57.25 32.15 38.2 28.7 L38.15 28.7 Q38.0 27.15 33.9 26.85 L21.25 26.6 23.0 25.95 Q29.65 21.25 20.25 18.85 8.05 19.75 15.15 25.95 L15.15 26.1 14.75 25.95 0.75 24.95 -13.25 25.95 -13.6 26.1 -13.6 25.95 Q-6.8 21.75 -16.25 18.85 L-20.0 19.1 -23.25 20.6 Q-26.1 23.15 -21.5 25.95 L-19.75 26.6 -21.35 26.7 Q-37.75 26.25 -36.6 28.6 L-36.75 28.7 Q-56.45 32.4 -71.35 38.85 M18.75 59.1 Q3.5 62.05 -17.25 59.1 L-13.25 55.7 -7.0 51.7 -2.1 49.2 3.65 49.2 13.0 54.45 18.75 59.1 M37.9 55.2 L31.4 50.1 35.75 51.7 41.15 54.35 37.9 55.2 M51.65 50.6 L50.5 49.85 51.9 50.35 51.65 50.6 M-50.1 50.6 L-50.35 50.35 -49.0 49.85 -50.1 50.6 M-39.6 54.35 L-34.25 51.7 -29.85 50.1 -36.35 55.2 -39.6 54.35" fill="#b19771" fill-rule="evenodd" stroke="none"/>
    <path d="M-19.75 26.6 L-21.5 25.95 Q-26.1 23.15 -23.25 20.6 L-20.0 19.1 -16.25 18.85 Q-6.8 21.75 -13.6 25.95 L-13.6 26.1 -16.0 26.7 -19.1 26.7 -19.75 26.6 M15.15 26.1 L15.15 25.95 Q8.05 19.75 20.25 18.85 29.65 21.25 23.0 25.95 L21.25 26.6 17.5 26.7 15.15 26.1" fill="#000000" fill-rule="evenodd" stroke="none"/>
    <path d="M72.9 38.85 Q90.7 45.9 99.25 56.7 104.25 64.85 98.75 71.45 L95.9 73.7 Q94.3 74.9 92.0 74.85 L91.25 74.1 Q91.25 70.3 89.75 67.6 L88.0 64.6 85.5 61.6 83.0 59.6 83.9 61.95 84.15 64.6 Q80.7 73.1 75.5 64.6 71.65 60.3 65.25 56.6 L55.5 51.7 51.9 50.35 50.5 49.85 51.65 50.6 53.15 51.7 Q61.65 57.75 60.65 64.6 L59.75 65.6 58.4 65.7 56.4 64.6 49.75 59.35 41.15 54.35 35.75 51.7 31.4 50.1 37.9 55.2 40.75 58.6 Q42.05 60.05 42.65 63.1 L42.5 66.2 41.75 67.2 40.15 67.45 38.5 66.6 Q35.45 63.05 31.65 60.6 32.0 69.15 27.4 68.95 L26.15 67.95 Q24.5 64.95 20.9 60.95 L18.75 59.1 13.0 54.45 3.65 49.2 10.25 47.1 15.0 44.85 28.9 36.95 Q40.6 29.2 38.2 28.7 57.25 32.15 72.9 38.85 M-17.25 59.1 L-21.25 63.1 Q-25.45 69.65 -25.85 68.95 -30.25 69.4 -30.1 60.6 L-30.25 60.6 Q-41.55 73.1 -41.1 63.1 -40.45 59.9 -39.5 58.95 L-36.35 55.2 -29.85 50.1 -34.25 51.7 -39.6 54.35 -47.5 58.85 -54.85 64.6 Q-58.75 66.85 -59.1 64.6 -59.85 57.5 -51.6 51.7 L-50.1 50.6 -49.0 49.85 -50.35 50.35 -54.0 51.7 Q-69.75 59.0 -74.0 64.6 -81.45 73.1 -82.6 64.6 L-82.35 61.95 -81.5 59.6 -82.75 60.35 -86.5 64.6 -88.25 67.7 -89.35 70.85 -90.0 74.6 Q-94.25 75.55 -99.0 69.1 -101.2 65.0 -99.1 59.2 -94.0 48.4 -71.35 38.85 -56.45 32.4 -36.75 28.7 L-36.6 28.7 -36.6 29.45 -35.0 31.6 -27.35 36.95 -14.0 44.6 -5.85 48.2 -2.1 49.2 -7.0 51.7 -13.25 55.7 -17.25 59.1 M-21.35 26.7 L-19.75 26.6 -19.1 26.7 -21.35 26.7 M-13.6 26.1 L-13.25 25.95 0.75 24.95 14.75 25.95 15.15 26.1 17.5 26.7 -16.0 26.7 -13.6 26.1" fill="#5f3f2a" fill-rule="evenodd" stroke="none"/>
    <path d="M-36.75 28.7 L-36.6 28.6 Q-37.75 26.25 -21.35 26.7 L-19.1 26.7 -16.0 26.7 17.5 26.7 21.25 26.6 33.9 26.85 Q38.0 27.15 38.15 28.7 L38.2 28.7 Q40.6 29.2 28.9 36.95 L15.0 44.85 10.25 47.1 3.65 49.2 -2.1 49.2 -5.85 48.2 -14.0 44.6 -27.35 36.95 -35.0 31.6 -36.6 29.45 -36.6 28.7 -36.75 28.7" fill="#ff488c" fill-rule="evenodd" stroke="none"/>
    <path d="M89.75 67.6 Q80.3 76.3 42.65 63.1 42.05 60.05 40.75 58.6 L37.9 55.2 41.15 54.35 49.75 59.35 56.4 64.6 58.4 65.7 59.75 65.6 60.65 64.6 Q61.65 57.75 53.15 51.7 L51.65 50.6 51.9 50.35 55.5 51.7 65.25 56.6 Q71.65 60.3 75.5 64.6 80.7 73.1 84.15 64.6 L83.9 61.95 83.0 59.6 85.5 61.6 88.0 64.6 89.75 67.6 M-41.1 63.1 Q-77.05 76.0 -88.25 67.7 L-86.5 64.6 -82.75 60.35 -81.5 59.6 -82.35 61.95 -82.6 64.6 Q-81.45 73.1 -74.0 64.6 -69.75 59.0 -54.0 51.7 L-50.35 50.35 -50.1 50.6 -51.6 51.7 Q-59.85 57.5 -59.1 64.6 -58.75 66.85 -54.85 64.6 L-47.5 58.85 -39.6 54.35 -36.35 55.2 -39.5 58.95 Q-40.45 59.9 -41.1 63.1" fill="#573f70" fill-rule="evenodd" stroke="none"/>
  </g>
</svg>
