<?xml version="1.0" encoding="UTF-8" standalone="no"?>
<svg xmlns:xlink="http://www.w3.org/1999/xlink" height="434.5px" width="726.5px" xmlns="http://www.w3.org/2000/svg">
  <g transform="matrix(1.0, 0.0, 0.0, 1.0, 57.45, -11.5)">
    <path d="M598.9 77.95 L596.9 77.95 596.9 159.95 531.9 159.95 531.9 86.95 524.95 86.95 524.95 71.95 495.45 71.95 495.45 159.95 414.45 159.95 414.45 159.45 394.45 159.45 394.45 239.45 195.45 239.45 195.45 256.45 195.95 256.45 195.95 278.45 303.95 278.45 303.95 276.95 392.45 276.95 392.45 343.95 403.9 343.95 403.9 353.9 427.9 353.9 427.9 194.95 596.9 194.95 596.9 396.95 518.9 396.95 518.9 310.45 519.45 310.45 519.45 269.45 514.45 269.45 514.45 268.95 484.95 268.95 484.95 394.95 394.9 394.95 394.9 393.95 323.95 393.95 323.95 340.45 321.45 340.45 321.45 328.45 290.95 328.45 290.95 328.95 288.95 328.95 288.95 398.95 294.95 398.95 294.95 446.0 230.9 446.0 230.9 407.45 230.95 407.45 230.95 339.95 227.95 339.95 227.95 327.95 189.95 327.95 189.95 397.95 15.95 397.95 15.95 216.95 82.95 216.95 82.95 184.95 72.95 184.95 72.95 181.95 72.45 181.95 72.45 179.45 15.95 179.45 15.95 125.95 112.95 125.95 112.95 217.45 113.45 217.45 113.45 262.95 60.45 262.95 60.45 264.95 59.45 264.95 59.45 286.45 60.45 286.45 60.45 289.45 113.45 289.45 113.45 350.95 122.95 350.95 122.95 364.45 135.45 364.45 135.45 363.9 135.95 363.9 135.95 364.9 146.95 364.9 146.95 193.95 335.95 193.95 335.95 106.45 335.45 106.45 335.45 89.95 300.45 89.95 300.45 156.45 146.95 156.45 146.95 115.95 145.95 115.95 145.95 106.95 138.45 106.95 138.45 103.95 -57.45 103.95 -55.45 11.5 -9.05 11.5 -9.05 43.95 0.95 43.95 0.95 42.95 15.9 42.95 15.9 11.5 203.95 11.5 203.95 109.95 214.95 109.95 214.95 110.45 245.95 110.45 245.95 11.5 385.45 11.5 385.45 110.45 428.45 110.45 428.45 11.5 598.9 11.5 598.9 77.95 M668.9 435.95 L669.05 435.95 669.05 446.0 668.9 446.0 668.9 435.95" fill="#000000" fill-opacity="0.19215687" fill-rule="evenodd" stroke="none"/>
  </g>
</svg>
