<?xml version="1.0" encoding="UTF-8" standalone="no"?>
<svg xmlns:xlink="http://www.w3.org/1999/xlink" height="170.0px" width="170.05px" xmlns="http://www.w3.org/2000/svg">
  <g transform="matrix(1.0, 0.0, 0.0, 1.0, 85.0, 85.0)">
    <path d="M41.55 -40.9 Q24.5 -58.0 0.3 -58.0 -23.9 -58.0 -40.95 -40.9 -58.0 -23.85 -58.0 0.3 -58.0 24.5 -40.95 41.55 -23.9 58.6 0.3 58.6 24.5 58.6 41.55 41.55 58.6 24.5 58.6 0.3 58.6 -23.85 41.55 -40.9 M60.1 -60.15 Q85.05 -35.2 85.05 0.0 85.05 35.2 60.1 60.05 35.2 85.0 0.05 85.0 -35.2 85.0 -60.15 60.05 -85.0 35.2 -85.0 0.0 -85.0 -35.2 -60.15 -60.15 -35.2 -85.0 0.05 -85.0 35.2 -85.0 60.1 -60.15" fill="url(#gradient0)" fill-rule="evenodd" stroke="none"/>
  </g>
  <defs>
    <radialGradient cx="0" cy="0" gradientTransform="matrix(0.1046, 0.0, 0.0, 0.1046, 0.0, 0.0)" gradientUnits="userSpaceOnUse" id="gradient0" r="819.2" spreadMethod="pad">
      <stop offset="0.7058823529411765" stop-color="#000000" stop-opacity="0.0"/>
      <stop offset="1.0" stop-color="#000000"/>
    </radialGradient>
  </defs>
</svg>
