<?xml version="1.0" encoding="UTF-8" standalone="no"?>
<svg xmlns:xlink="http://www.w3.org/1999/xlink" height="138.9px" width="207.85px" xmlns="http://www.w3.org/2000/svg">
  <g transform="matrix(1.0, 0.0, 0.0, 1.0, 103.0, 65.05)">
    <path d="M-73.5 22.2 L-83.1 10.6 Q-89.2 -7.75 -87.5 -8.3 L-84.6 -22.3 -74.75 -36.15 -60.1 -47.65 -56.85 -49.8 -37.75 -58.55 -13.75 -64.3 3.9 -65.05 16.15 -64.15 Q65.45 -56.0 85.0 -24.05 L86.15 -22.3 89.15 -8.3 88.75 -3.05 84.5 10.85 75.0 22.2 62.4 16.7 42.5 10.45 35.9 9.1 Q35.3 7.15 33.0 6.95 L20.75 6.45 Q26.5 3.6 22.75 0.2 19.1 -2.8 13.0 0.2 9.45 4.3 15.15 6.45 L15.0 6.45 0.75 5.35 -13.6 6.45 Q-7.7 3.35 -11.5 0.2 -15.15 -2.8 -21.25 0.2 -25.2 3.75 -18.85 6.6 L-30.6 6.85 Q-34.0 6.95 -34.35 9.1 L-41.35 10.6 -50.1 13.1 -62.75 17.45 -73.5 22.2 M19.9 48.1 Q2.25 50.8 -18.35 48.1 L-21.5 47.6 -16.5 42.2 -7.5 35.2 -1.35 31.7 2.9 31.7 6.25 33.45 14.0 38.85 18.0 42.2 23.0 47.6 19.9 48.1 M40.75 42.35 L37.65 38.85 33.9 35.45 29.75 32.45 35.5 34.85 43.25 38.85 45.9 40.6 40.75 42.35 M54.9 36.85 L48.25 31.85 48.4 31.85 56.75 35.45 54.9 36.85 M32.5 45.1 L32.15 45.2 32.0 44.85 32.5 45.1 M-44.35 40.6 L-35.35 35.45 -28.25 32.45 -32.85 35.85 -39.25 42.35 -44.35 40.6 M-31.0 45.1 L-30.6 44.85 -30.5 44.85 -30.6 45.2 -31.0 45.1 M-55.25 35.45 L-46.75 31.85 -53.25 36.7 -53.35 36.7 -55.25 35.45" fill="#b19771" fill-rule="evenodd" stroke="none"/>
    <path d="M-18.85 6.6 Q-25.2 3.75 -21.25 0.2 -15.15 -2.8 -11.5 0.2 -7.7 3.35 -13.6 6.45 L-14.0 6.6 -18.85 6.6 M15.15 6.45 Q9.45 4.3 13.0 0.2 19.1 -2.8 22.75 0.2 26.5 3.6 20.75 6.45 L15.15 6.45" fill="#000000" fill-rule="evenodd" stroke="none"/>
    <path d="M75.0 22.2 Q96.05 32.4 102.9 44.85 107.7 56.15 100.75 59.2 L98.65 58.1 Q94.2 51.5 89.0 46.7 L83.0 42.1 82.9 42.1 84.5 44.6 Q86.15 47.55 86.25 49.6 L85.75 51.7 85.5 52.35 84.75 52.7 83.9 52.85 81.65 51.7 69.9 42.7 63.65 38.85 56.75 35.45 48.4 31.85 48.25 31.85 54.9 36.85 56.9 38.85 Q71.4 60.45 45.9 40.6 L43.25 38.85 35.5 34.85 29.75 32.45 33.9 35.45 37.65 38.85 40.75 42.35 43.4 46.7 Q44.8 51.2 44.0 51.7 L43.15 52.85 42.15 52.85 40.25 51.7 32.5 45.1 32.0 44.85 32.15 45.2 32.65 47.95 32.4 51.7 31.4 54.2 30.75 54.7 29.65 54.85 27.75 53.7 23.0 47.6 18.0 42.2 14.0 38.85 6.25 33.45 2.9 31.7 8.0 30.1 Q11.35 28.3 14.65 26.45 L15.25 25.95 20.4 22.85 27.5 17.85 33.15 13.1 35.9 9.95 35.9 9.1 42.5 10.45 62.4 16.7 75.0 22.2 M-26.25 53.7 L-28.1 54.85 -29.25 54.7 -29.85 54.2 -30.85 51.7 -31.1 48.1 -30.6 45.2 -30.5 44.85 -30.6 44.85 -31.0 45.1 -38.75 51.7 -40.75 52.85 -41.6 52.85 -42.5 51.7 Q-43.85 49.15 -39.25 42.35 L-32.85 35.85 -28.25 32.45 -35.35 35.45 -44.35 40.6 Q-69.9 60.45 -55.35 38.85 L-53.35 36.85 -53.35 36.7 -53.25 36.7 -46.75 31.85 -55.25 35.45 -62.1 38.85 -71.85 45.2 -80.1 51.7 Q-83.8 53.95 -84.25 51.7 L-84.75 49.6 -84.0 46.7 -81.35 42.1 Q-84.75 42.6 -98.6 59.1 -103.75 60.5 -102.85 48.7 -99.8 35.7 -73.5 22.2 L-62.75 17.45 -50.1 13.1 -41.35 10.6 -34.35 9.1 -34.35 9.85 -33.6 11.1 -26.0 17.85 -12.5 26.85 -5.25 30.6 -1.35 31.7 -7.5 35.2 -16.5 42.2 -21.5 47.6 -26.25 53.7 M-13.6 6.45 L0.75 5.35 15.0 6.45 -14.0 6.6 -13.6 6.45" fill="#5f3f2a" fill-rule="evenodd" stroke="none"/>
    <path d="M-34.35 9.1 Q-34.0 6.95 -30.6 6.85 L-18.85 6.6 -14.0 6.6 15.0 6.45 15.15 6.45 20.75 6.45 33.0 6.95 Q35.3 7.15 35.9 9.1 L35.9 9.95 33.15 13.1 27.5 17.85 20.4 22.85 15.25 25.95 14.65 26.45 Q11.35 28.3 8.0 30.1 L2.9 31.7 -1.35 31.7 -5.25 30.6 -12.5 26.85 -26.0 17.85 -33.6 11.1 -34.35 9.85 -34.35 9.1" fill="#ff488c" fill-rule="evenodd" stroke="none"/>
    <path d="M86.25 49.6 Q87.9 50.0 90.0 59.7 L89.15 67.6 Q89.45 68.95 85.5 72.35 L81.15 73.6 Q66.9 75.95 29.65 54.85 L30.75 54.7 31.4 54.2 32.4 51.7 32.65 47.95 32.15 45.2 32.5 45.1 40.25 51.7 42.15 52.85 43.15 52.85 44.0 51.7 Q44.8 51.2 43.4 46.7 L40.75 42.35 45.9 40.6 Q71.4 60.45 56.9 38.85 L54.9 36.85 56.75 35.45 63.65 38.85 69.9 42.7 81.65 51.7 83.9 52.85 84.75 52.7 85.5 52.35 85.75 51.7 86.25 49.6 M27.75 53.7 L19.9 48.1 23.0 47.6 27.75 53.7 M-18.35 48.1 L-26.25 53.7 -21.5 47.6 -18.35 48.1 M-28.1 54.85 Q-63.2 76.2 -82.5 72.6 L-84.25 72.2 -84.75 71.6 Q-88.05 68.3 -87.6 67.6 -88.3 63.65 -88.5 59.7 L-86.5 52.35 -85.85 50.85 -84.75 49.6 -84.25 51.7 Q-83.8 53.95 -80.1 51.7 L-71.85 45.2 -62.1 38.85 -55.25 35.45 -53.35 36.7 -53.35 36.85 -55.35 38.85 Q-69.9 60.45 -44.35 40.6 L-39.25 42.35 Q-43.85 49.15 -42.5 51.7 L-41.6 52.85 -40.75 52.85 -38.75 51.7 -31.0 45.1 -30.6 45.2 -31.1 48.1 -30.85 51.7 -29.85 54.2 -29.25 54.7 -28.1 54.85" fill="#573f70" fill-rule="evenodd" stroke="none"/>
  </g>
</svg>
