<?xml version="1.0" encoding="UTF-8" standalone="no"?>
<svg xmlns:xlink="http://www.w3.org/1999/xlink" height="409.35px" width="669.1px" xmlns="http://www.w3.org/2000/svg">
  <g transform="matrix(1.0, 0.0, 0.0, 1.0, 0.05, -28.15)">
    <path d="M363.85 277.45 L363.9 277.45 363.95 277.45 364.15 277.8 364.45 278.6 363.7 277.65 363.95 277.65 363.65 277.6 363.6 277.55 363.55 277.55 363.2 277.45 363.85 277.45 M663.9 74.45 L669.05 74.45 669.05 434.5 462.45 437.5 456.95 427.05 456.95 422.95 454.95 422.95 458.95 401.2 436.45 387.95 416.95 385.95 405.45 365.0 388.45 364.5 386.95 355.45 362.95 347.95 359.95 330.0 338.4 327.5 332.9 316.95 301.45 311.45 267.45 331.95 165.95 320.95 124.95 346.95 80.95 305.7 62.95 266.95 -0.05 250.95 42.95 181.95 95.95 170.95 202.45 58.95 296.75 34.45 374.4 28.15 456.45 46.85 490.95 30.95 518.45 45.25 513.95 87.45 522.9 99.95 536.15 123.8 467.95 89.45 388.95 96.55 388.95 96.45 387.9 96.2 396.2 73.95 358.7 54.95 308.45 77.2 308.75 77.3 246.7 76.45 174.35 165.45 174.2 165.45 174.2 165.65 173.95 165.95 174.2 166.0 174.2 167.35 159.2 236.2 188.35 250.6 187.45 253.45 193.3 253.0 230.95 271.95 231.6 271.3 363.7 277.65 364.5 278.75 364.45 278.6 372.25 288.5 394.5 293.75 400.25 309.5 420.5 310.0 423.5 323.5 440.0 326.5 448.25 341.0 452.05 341.2 452.0 341.25 Q470.0 344.1 488.1 346.15 L492.75 346.0 488.75 342.25 452.25 338.5 453.0 338.75 452.45 340.15 443.0 321.5 425.75 319.75 422.0 304.0 401.25 304.25 395.0 287.75 373.25 284.0 368.25 277.45 Q365.65 275.1 365.1 273.65 L342.95 271.05 236.95 265.95 228.95 265.95 228.95 264.95 223.95 264.95 223.95 260.95 214.45 255.95 202.45 253.45 191.95 249.95 191.95 247.45 189.3 247.45 204.95 196.45 301.7 197.45 352.45 143.45 388.4 237.2 479.75 235.1 543.95 270.45 563.95 173.9 663.9 74.45" fill="#000000" fill-opacity="0.19215687" fill-rule="evenodd" stroke="none"/>
  </g>
</svg>
