<?xml version="1.0" encoding="UTF-8" standalone="no"?>
<svg xmlns:xlink="http://www.w3.org/1999/xlink" height="134.1px" width="207.1px" xmlns="http://www.w3.org/2000/svg">
  <g transform="matrix(1.0, 0.0, 0.0, 1.0, -186.8, -137.4)">
    <path d="M362.7 164.35 L366.7 164.5 367.45 166.15 365.65 168.3 365.6 168.35 368.75 169.1 368.8 169.25 Q368.55 169.7 367.95 170.0 L367.85 170.25 366.95 170.5 Q366.75 170.35 366.45 170.5 366.0 171.3 365.8 172.45 L365.85 173.1 Q366.75 173.05 367.85 172.25 L367.95 173.75 367.6 174.25 367.6 175.25 371.5 175.6 371.7 176.1 Q371.3 177.85 369.95 179.1 L369.85 179.25 372.85 179.35 373.2 180.1 373.4 180.25 373.65 180.9 371.95 182.25 371.2 182.85 373.35 183.1 Q373.5 183.55 372.95 184.1 371.95 184.5 371.35 185.5 L371.35 185.6 371.7 186.6 371.7 186.85 371.1 187.75 373.35 186.35 373.45 186.15 373.1 187.75 Q372.3 188.45 372.35 189.6 L372.35 189.85 377.0 189.65 377.35 190.55 376.95 190.5 377.2 190.8 375.95 192.1 375.95 192.25 375.6 192.25 Q375.05 192.35 374.95 192.6 L375.2 193.35 Q376.85 193.55 378.35 193.35 L378.4 193.45 Q377.75 194.75 377.45 196.1 L377.45 196.25 376.9 196.6 376.35 196.75 Q377.0 197.65 378.85 197.25 L379.75 197.3 380.0 198.05 379.45 198.0 Q378.9 198.0 378.6 198.35 L377.7 198.35 Q376.65 199.0 376.65 200.25 L376.85 201.0 378.2 200.85 Q379.05 200.4 380.1 200.35 L379.75 201.0 379.6 201.25 379.6 201.75 Q378.8 202.85 378.6 204.1 L378.6 204.25 381.95 204.05 382.15 204.65 Q380.75 205.8 380.2 207.35 L380.2 207.5 383.15 207.3 384.15 209.95 384.1 210.0 382.85 210.1 382.5 210.4 382.1 210.85 382.2 211.2 382.45 211.5 383.35 211.25 Q383.6 211.0 383.95 211.1 L384.1 211.75 383.85 212.5 383.35 212.85 382.85 213.6 382.8 213.85 Q382.75 214.3 383.1 214.5 L383.1 215.85 382.7 216.6 384.45 216.85 384.7 216.85 Q385.5 216.3 386.4 215.85 L387.15 217.85 386.45 218.75 385.95 218.85 Q385.2 219.75 384.1 220.25 383.8 220.3 383.95 220.6 384.7 221.45 386.2 221.1 L386.35 221.1 Q387.25 220.65 388.3 220.85 L388.55 221.4 388.1 222.1 387.95 222.35 387.95 222.85 387.7 223.35 386.95 223.75 Q387.05 224.15 388.2 224.0 L388.45 224.1 388.0 225.55 387.6 226.1 387.6 229.0 390.1 229.1 391.25 228.55 391.85 230.1 390.7 230.75 390.45 231.25 389.6 231.6 Q389.25 232.0 389.35 232.5 L389.35 232.85 392.1 233.0 392.85 232.6 393.9 235.4 230.7 271.5 229.3 271.0 186.8 251.5 195.5 223.0 Q191.8 206.95 206.0 194.9 L301.8 194.25 Q323.35 163.95 352.4 137.4 L361.0 153.35 360.45 153.35 360.45 157.75 362.1 157.9 362.1 160.35 364.8 160.35 365.4 161.65 365.05 161.95 364.95 162.1 364.85 162.6 Q363.8 163.4 362.7 163.75 L362.7 164.35" fill="#000000" fill-opacity="0.2" fill-rule="evenodd" stroke="none"/>
  </g>
</svg>
