<?xml version="1.0" encoding="UTF-8" standalone="no"?>
<svg xmlns:xlink="http://www.w3.org/1999/xlink" height="152.3px" width="217.45px" xmlns="http://www.w3.org/2000/svg">
  <g transform="matrix(1.0, 0.0, 0.0, 1.0, 107.75, 81.9)">
    <path d="M-74.25 2.7 L-78.1 -3.05 -81.75 -18.65 -82.1 -21.9 -79.25 -37.15 -70.35 -51.65 -57.0 -63.9 -38.6 -73.9 -18.6 -80.05 0.9 -81.9 Q23.75 -80.85 30.15 -77.05 L40.15 -73.9 57.75 -64.4 71.9 -51.65 80.75 -37.15 83.65 -21.9 83.25 -18.55 79.65 -3.05 75.75 2.7 70.65 0.2 Q54.15 -7.05 48.65 -8.3 L33.25 -12.4 33.25 -12.65 32.25 -14.05 30.75 -14.65 20.0 -15.4 Q26.0 -19.35 17.5 -23.05 7.3 -22.05 12.9 -15.55 L-11.6 -15.4 Q-5.85 -20.6 -14.1 -23.05 -24.45 -22.1 -18.5 -15.4 L-29.1 -14.65 -30.6 -14.15 -31.75 -12.65 -31.75 -12.4 -31.85 -12.4 Q-45.75 -9.15 -55.6 -5.4 L-74.25 2.7 M61.4 18.35 L59.25 20.1 57.9 21.1 54.4 17.85 45.75 11.6 49.9 13.1 61.4 18.35 M16.75 37.2 Q5.5 40.45 -15.25 37.2 L-26.5 35.1 -18.1 25.95 -9.85 18.7 -1.85 13.1 -0.55 12.5 -0.5 12.45 2.0 12.45 2.1 12.5 3.4 13.1 9.65 17.35 19.65 25.95 28.0 35.1 16.75 37.2 M-57.75 20.1 L-59.85 18.35 -48.35 13.1 -44.25 11.6 -53.1 18.1 -56.35 21.1 -57.75 20.1 M34.4 33.2 L32.65 27.1 38.5 31.45 34.4 33.2 M44.4 28.7 L42.5 25.95 37.25 20.2 28.25 13.1 28.0 12.95 28.65 13.1 39.0 17.95 Q47.75 22.5 51.5 25.35 L44.4 28.7 M-50.0 25.35 L-40.1 19.35 -27.1 13.1 -26.75 13.1 -35.75 20.2 -41.0 25.95 -42.85 28.6 -43.0 28.6 -50.0 25.35 M-37.0 31.45 L-31.1 27.1 -32.85 33.2 -37.0 31.45" fill="#b19771" fill-rule="evenodd" stroke="none"/>
    <path d="M75.75 2.7 Q104.45 18.4 108.9 31.35 111.15 36.7 106.9 36.6 L103.0 34.6 88.0 23.95 81.4 20.2 81.25 20.2 84.25 23.35 87.65 27.95 Q89.8 32.7 86.25 31.95 L83.15 30.7 Q69.5 21.9 61.4 18.35 L49.9 13.1 45.75 11.6 54.4 17.85 57.9 21.1 62.0 25.95 Q66.9 36.95 52.75 25.95 L51.5 25.35 Q47.75 22.5 39.0 17.95 L28.65 13.1 28.0 12.95 28.25 13.1 37.25 20.2 42.5 25.95 44.4 28.7 Q50.8 41.35 38.5 31.45 L32.65 27.1 34.4 33.2 Q35.8 43.0 28.0 35.1 L19.65 25.95 9.65 17.35 3.4 13.1 2.1 12.5 Q2.95 12.8 7.5 10.6 L13.0 7.1 25.9 -3.15 32.0 -9.4 33.25 -11.65 33.25 -12.4 48.65 -8.3 Q54.15 -7.05 70.65 0.2 L75.75 2.7 M-59.85 18.35 L-64.1 20.35 -81.35 30.6 -84.85 31.95 Q-90.95 32.35 -79.75 20.2 L-81.75 21.1 -90.5 26.6 -103.5 35.85 Q-108.75 39.4 -107.5 31.7 -102.85 18.2 -74.25 2.7 L-55.6 -5.4 Q-45.75 -9.15 -31.85 -12.4 L-31.75 -12.3 -30.5 -9.4 -24.35 -3.15 -12.25 6.6 -5.85 10.7 Q-1.2 12.75 -0.55 12.5 L-1.85 13.1 -9.85 18.7 -18.1 25.95 -26.5 35.1 Q-33.7 42.45 -33.1 34.85 L-32.85 33.2 -31.1 27.1 -37.0 31.45 Q-49.3 41.3 -42.85 28.7 L-43.0 28.6 -42.85 28.6 -41.0 25.95 -35.75 20.2 -26.75 13.1 -27.1 13.1 -40.1 19.35 -50.0 25.35 -51.1 25.95 Q-67.2 36.95 -60.5 25.95 L-56.35 21.1 -53.1 18.1 -44.25 11.6 -48.35 13.1 -59.85 18.35" fill="#5f3f2a" fill-rule="evenodd" stroke="none"/>
    <path d="M-31.85 -12.4 L-31.75 -12.4 -31.75 -12.65 -30.6 -14.15 -29.1 -14.65 -18.5 -15.4 -11.6 -15.4 12.9 -15.55 20.0 -15.4 30.75 -14.65 32.25 -14.05 33.25 -12.65 33.25 -12.4 33.25 -11.65 32.0 -9.4 25.9 -3.15 13.0 7.1 7.5 10.6 Q2.95 12.8 2.1 12.5 L2.0 12.45 -0.5 12.45 -0.55 12.5 Q-1.2 12.75 -5.85 10.7 L-12.25 6.6 -24.35 -3.15 -30.5 -9.4 -31.75 -12.3 -31.85 -12.4" fill="#ff488c" fill-rule="evenodd" stroke="none"/>
    <path d="M-18.5 -15.4 Q-24.45 -22.1 -14.1 -23.05 -5.85 -20.6 -11.6 -15.4 L-18.5 -15.4 M12.9 -15.55 Q7.3 -22.05 17.5 -23.05 26.0 -19.35 20.0 -15.4 L12.9 -15.55" fill="#000000" fill-rule="evenodd" stroke="none"/>
    <path d="M59.25 20.1 Q71.2 25.7 84.9 46.85 L87.9 54.85 88.65 57.85 88.5 64.35 Q88.9 64.95 85.25 68.6 L84.65 69.2 82.4 69.7 Q51.45 70.2 16.75 37.2 L28.0 35.1 Q35.8 43.0 34.4 33.2 L38.5 31.45 Q50.8 41.35 44.4 28.7 L51.5 25.35 52.75 25.95 Q66.9 36.95 62.0 25.95 L57.9 21.1 59.25 20.1 M-15.25 37.2 Q-19.6 45.25 -47.5 61.1 -73.3 73.85 -82.35 69.1 L-83.75 68.85 -84.25 68.2 Q-88.05 66.45 -87.1 57.7 L-83.35 46.85 Q-71.95 27.95 -57.75 20.1 L-56.35 21.1 -60.5 25.95 Q-67.2 36.95 -51.1 25.95 L-50.0 25.35 -43.0 28.6 -42.85 28.7 Q-49.3 41.3 -37.0 31.45 L-32.85 33.2 -33.1 34.85 Q-33.7 42.45 -26.5 35.1 L-15.25 37.2" fill="#573f70" fill-rule="evenodd" stroke="none"/>
  </g>
</svg>
