<?xml version="1.0" encoding="UTF-8" standalone="no"?>
<svg xmlns:xlink="http://www.w3.org/1999/xlink" height="25.5px" width="16.45px" xmlns="http://www.w3.org/2000/svg">
  <g transform="matrix(1.0, 0.0, 0.0, 1.0, 0.5, 0.5)">
    <path d="M5.05 24.5 L5.15 22.1 5.2 16.15 5.15 9.8 5.05 4.8 5.0 2.75 9.6 2.55 9.15 4.95 8.3 10.75 Q7.9 14.2 7.95 17.7 8.05 20.9 8.85 23.25 L8.7 23.4 Q6.9 25.35 5.05 24.5" fill="#ff4200" fill-rule="evenodd" stroke="none"/>
    <path d="M8.85 23.25 Q8.05 20.9 7.95 17.7 7.9 14.2 8.3 10.75 L9.15 4.95 9.6 2.55 5.0 2.75 5.05 4.8 5.15 9.8 5.2 16.15 5.15 22.1 5.05 24.5" fill="none" stroke="#000000" stroke-linecap="round" stroke-linejoin="round" stroke-width="1.0"/>
    <path d="M15.45 0.0 Q15.1 2.65 13.95 3.95 12.85 5.25 11.45 5.5 L8.95 5.45 Q7.8 5.05 7.5 4.45 5.1 5.7 3.6 5.5 2.1 5.3 1.35 4.45 0.55 3.6 0.25 2.8 L0.0 1.9 15.45 0.0" fill="#ffffff" fill-rule="evenodd" stroke="none"/>
    <path d="M0.0 1.9 L0.25 2.8 Q0.55 3.6 1.35 4.45 2.1 5.3 3.6 5.5 5.1 5.7 7.5 4.45 7.8 5.05 8.95 5.45 L11.45 5.5 Q12.85 5.25 13.95 3.95 15.1 2.65 15.45 0.0" fill="none" stroke="#000000" stroke-linecap="round" stroke-linejoin="round" stroke-width="1.0"/>
  </g>
</svg>
