<?xml version="1.0" encoding="UTF-8" standalone="no"?>
<svg xmlns:xlink="http://www.w3.org/1999/xlink" height="13.35px" width="26.95px" xmlns="http://www.w3.org/2000/svg">
  <g transform="matrix(1.0, 0.0, 0.0, 1.0, 0.5, 0.5)">
    <path d="M4.0 1.4 L4.15 1.9 7.55 1.5 13.45 1.05 20.15 0.55 25.95 0.0 Q25.5 0.85 24.45 1.6 L22.1 2.95 19.6 4.0 22.0 4.6 Q23.05 4.8 23.5 5.45 22.5 6.0 20.75 6.45 L17.6 7.15 16.1 7.45 16.7 8.5 Q17.25 9.6 17.5 12.35 L7.35 9.35 Q3.4 8.2 1.55 7.1 -0.25 6.0 0.05 4.15 L0.2 2.65 3.85 1.55 4.0 1.4" fill="#ff4200" fill-rule="evenodd" stroke="none"/>
    <path d="M0.2 2.65 L0.05 4.15 Q-0.25 6.0 1.55 7.1 3.4 8.2 7.35 9.35 L17.5 12.35 Q17.25 9.6 16.7 8.5 L16.1 7.45 17.6 7.15 20.75 6.45 Q22.5 6.0 23.5 5.45 23.05 4.8 22.0 4.6 L19.6 4.0 22.1 2.95 24.45 1.6 Q25.5 0.85 25.95 0.0 L20.15 0.55 13.45 1.05 7.55 1.5 4.15 1.9 4.0 1.4" fill="none" stroke="#000000" stroke-linecap="round" stroke-linejoin="round" stroke-width="1.0"/>
  </g>
</svg>
