<?xml version="1.0" encoding="UTF-8" standalone="no"?>
<svg xmlns:xlink="http://www.w3.org/1999/xlink" height="161.6px" width="218.3px" xmlns="http://www.w3.org/2000/svg">
  <g transform="matrix(1.0, 0.0, 0.0, 1.0, 108.4, 99.4)">
    <path d="M-73.35 -18.55 Q-84.05 -53.3 -53.0 -80.55 -44.85 -85.65 -36.75 -90.8 -17.35 -99.5 0.0 -99.4 L19.65 -97.3 36.15 -91.55 39.65 -89.9 54.75 -80.4 67.0 -67.15 75.15 -51.4 77.75 -35.15 74.9 -18.55 57.9 -25.55 43.0 -30.3 30.5 -33.4 Q30.45 -35.25 27.65 -35.8 L18.9 -36.55 20.25 -38.4 Q21.45 -42.8 16.4 -44.15 9.95 -45.05 10.25 -38.4 L11.25 -36.8 -9.75 -36.8 -8.75 -38.4 Q-7.35 -42.8 -12.5 -44.15 -19.6 -44.55 -18.75 -38.4 L-17.35 -36.55 -26.1 -35.8 Q-28.7 -35.5 -29.0 -33.4 L-41.25 -30.4 -56.35 -25.55 -73.35 -18.55 M65.4 -0.3 L60.65 4.45 55.9 0.2 42.75 -8.8 52.9 -5.4 65.4 -0.4 65.4 -0.3 M56.75 8.6 L54.75 10.7 53.4 12.1 48.4 14.95 47.4 13.1 40.9 5.45 34.9 0.2 26.75 -5.9 26.9 -5.9 40.75 0.2 56.75 8.6 M15.25 28.6 L4.25 29.6 -13.75 28.6 -31.25 23.45 -34.25 22.2 Q-32.85 22.4 -30.0 19.85 L-8.85 0.2 0.0 -6.4 1.5 -6.4 10.4 0.2 32.4 20.6 Q34.45 22.25 35.75 22.2 L34.25 22.95 15.25 28.6 M-53.25 10.7 L-55.25 8.6 -39.1 0.2 -25.25 -5.9 -33.35 0.2 -39.35 5.45 -45.85 13.1 -47.0 14.95 -51.35 12.45 -53.25 10.7 M-59.25 4.45 L-64.0 -0.3 -52.75 -4.9 -41.25 -8.8 -49.35 -3.55 -54.35 0.2 -59.1 4.45 -59.25 4.45 M36.65 21.85 L37.15 20.35 37.0 18.6 35.0 13.1 32.9 9.1 45.25 16.95 36.65 21.85 M-43.75 16.95 L-31.5 9.1 -33.5 13.1 -35.5 18.85 -35.6 20.6 -35.1 21.85 -43.75 16.95" fill="#b19771" fill-rule="evenodd" stroke="none"/>
    <path d="M74.9 -18.55 Q100.65 -6.6 109.9 6.6 L109.5 8.1 108.65 8.35 105.75 7.95 100.0 5.85 Q80.25 -3.25 77.0 -4.05 104.75 17.35 65.5 -0.3 L65.4 -0.3 65.4 -0.4 52.9 -5.4 42.75 -8.8 55.9 0.2 60.65 4.45 Q70.3 15.15 56.75 8.6 L40.75 0.2 26.9 -5.9 26.75 -5.9 34.9 0.2 40.9 5.45 47.4 13.1 48.4 14.95 Q50.95 19.2 45.25 16.95 L32.9 9.1 35.0 13.1 37.0 18.6 37.15 20.35 36.65 21.85 35.75 22.2 Q34.45 22.25 32.4 20.6 L10.4 0.2 1.5 -6.4 Q3.55 -6.25 6.9 -8.3 L12.15 -12.3 12.4 -12.65 12.65 -12.8 17.75 -17.4 25.65 -25.55 Q27.55 -27.15 29.75 -30.8 L30.5 -33.4 43.0 -30.3 57.9 -25.55 74.9 -18.55 M-55.25 8.6 Q-68.75 15.05 -59.25 4.6 L-59.25 4.45 -59.1 4.45 -54.35 0.2 -49.35 -3.55 -41.25 -8.8 -52.75 -4.9 -64.0 -0.3 Q-103.25 17.3 -75.5 -4.05 -109.3 12.0 -108.35 6.85 -107.6 -0.5 -73.35 -18.55 L-56.35 -25.55 -41.25 -30.4 -29.0 -33.4 -29.0 -32.55 -28.1 -30.55 -22.5 -23.65 -11.0 -12.65 -10.85 -12.65 -10.6 -12.3 -5.1 -8.15 Q-1.7 -6.05 0.0 -6.4 L-8.85 0.2 -30.0 19.85 Q-32.85 22.4 -34.25 22.2 L-35.1 21.85 -35.6 20.6 -35.5 18.85 -33.5 13.1 -31.5 9.1 -43.75 16.95 Q-49.35 18.7 -47.0 14.95 L-45.85 13.1 -39.35 5.45 -33.35 0.2 -25.25 -5.9 -39.1 0.2 -55.25 8.6" fill="#5f3f2a" fill-rule="evenodd" stroke="none"/>
    <path d="M-29.0 -33.4 Q-28.7 -35.5 -26.1 -35.8 L-17.35 -36.55 -9.75 -36.8 11.25 -36.8 18.9 -36.55 27.65 -35.8 Q30.45 -35.25 30.5 -33.4 L29.75 -30.8 Q27.55 -27.15 25.65 -25.55 L17.75 -17.4 12.65 -12.8 12.4 -12.65 12.15 -12.3 6.9 -8.3 Q3.55 -6.25 1.5 -6.4 L0.0 -6.4 Q-1.7 -6.05 -5.1 -8.15 L-10.6 -12.3 -10.85 -12.65 -11.0 -12.65 -22.5 -23.65 -28.1 -30.55 -29.0 -32.55 -29.0 -33.4" fill="#ff488c" fill-rule="evenodd" stroke="none"/>
    <path d="M-17.35 -36.55 L-18.75 -38.4 Q-19.6 -44.55 -12.5 -44.15 -7.35 -42.8 -8.75 -38.4 L-9.75 -36.8 -17.35 -36.55 M11.25 -36.8 L10.25 -38.4 Q9.95 -45.05 16.4 -44.15 21.45 -42.8 20.25 -38.4 L18.9 -36.55 11.25 -36.8" fill="#000000" fill-rule="evenodd" stroke="none"/>
    <path d="M54.75 10.7 Q67.65 15.15 85.5 39.35 93.05 54.1 84.9 60.85 78.0 65.75 49.65 52.95 23.8 40.15 15.25 28.6 L34.25 22.95 35.75 22.2 36.65 21.85 45.25 16.95 Q50.95 19.2 48.4 14.95 L53.4 12.1 54.75 10.7 M-13.75 28.6 Q-20.3 38.6 -48.1 53.1 -76.5 65.85 -82.85 60.6 L-84.35 60.35 -84.75 59.85 Q-88.8 57.9 -87.6 48.7 L-83.85 38.95 Q-65.95 15.1 -53.25 10.7 L-51.35 12.45 -47.0 14.95 Q-49.35 18.7 -43.75 16.95 L-35.1 21.85 -34.25 22.2 -31.25 23.45 -13.75 28.6" fill="#573f70" fill-rule="evenodd" stroke="none"/>
  </g>
</svg>
