<?xml version="1.0" encoding="UTF-8" standalone="no"?>
<svg xmlns:xlink="http://www.w3.org/1999/xlink" height="44.35px" width="52.35px" xmlns="http://www.w3.org/2000/svg">
  <g transform="matrix(1.0, 0.0, 0.0, 1.0, 0.0, 0.0)">
    <path d="M41.85 17.95 Q38.1 22.1 36.05 25.5 34.0 28.85 32.95 31.2 L31.0 34.65 Q30.1 35.8 28.65 35.4 27.15 34.95 26.6 33.45 26.05 32.0 26.05 30.25 26.05 28.45 26.3 27.2 L26.5 25.85 25.9 27.4 24.3 31.15 22.0 35.75 19.3 39.65 Q17.85 41.25 16.5 41.5 15.15 41.65 14.65 40.45 14.15 39.2 14.15 37.3 14.2 35.4 14.5 33.5 L15.1 30.25 15.45 28.95 14.6 30.6 12.4 34.65 9.1 39.4 Q7.2 41.75 5.05 43.15 2.9 44.6 0.65 44.3 -0.05 43.95 0.0 42.1 0.1 40.2 0.75 37.45 1.4 34.65 2.5 31.65 3.6 28.6 5.0 25.9 6.35 23.25 7.8 21.6 11.0 18.15 15.45 15.25 19.9 12.3 24.9 9.9 29.9 7.5 34.75 5.65 39.6 3.8 43.55 2.55 L49.9 0.65 52.35 0.0 41.85 17.95" fill="#ffffff" fill-rule="evenodd" stroke="none"/>
    <path d="M52.35 0.0 L49.9 0.65 43.55 2.55 Q39.6 3.8 34.75 5.65 29.9 7.5 24.9 9.9 19.9 12.3 15.45 15.25 11.0 18.15 7.8 21.6 6.35 23.25 5.0 25.9 3.6 28.6 2.5 31.65 1.4 34.65 0.75 37.45 0.1 40.2 0.0 42.1 -0.05 43.95 0.65 44.3 2.9 44.6 5.05 43.15 7.2 41.75 9.1 39.4 L12.4 34.65 14.6 30.6 15.45 28.95 15.1 30.25 14.5 33.5 Q14.2 35.4 14.15 37.3 14.15 39.2 14.65 40.45 15.15 41.65 16.5 41.5 17.85 41.25 19.3 39.65 L22.0 35.75 24.3 31.15 25.9 27.4 26.5 25.85 26.3 27.2 Q26.05 28.45 26.05 30.25 26.05 32.0 26.6 33.45 27.15 34.95 28.65 35.4 30.1 35.8 31.0 34.65 L32.95 31.2 Q34.0 28.85 36.05 25.5 38.1 22.1 41.85 17.95" fill="none" stroke="#000000" stroke-linecap="round" stroke-linejoin="round" stroke-width="0.05"/>
  </g>
</svg>
