<?xml version="1.0" encoding="UTF-8" standalone="no"?>
<svg xmlns:xlink="http://www.w3.org/1999/xlink" height="20.95px" width="38.35px" xmlns="http://www.w3.org/2000/svg">
  <g transform="matrix(1.0, 0.0, 0.0, 1.0, 19.7, 8.8)">
    <path d="M1.35 9.25 Q2.7 11.1 2.25 11.5 L-0.25 11.2 -4.75 10.2 -9.1 9.55 Q-10.9 9.25 -11.0 8.5 L-17.2 1.0 -15.2 1.75 Q-14.0 1.9 -12.95 2.6 L-10.6 3.95 Q-9.3 4.6 -7.3 4.65 -4.7 4.9 -2.35 6.15 -0.05 7.35 1.35 9.25" fill="#ff4200" fill-rule="evenodd" stroke="none"/>
    <path d="M1.35 9.25 Q-0.05 7.35 -2.35 6.15 -4.7 4.9 -7.3 4.65 -9.3 4.6 -10.6 3.95 L-12.95 2.6 Q-14.0 1.9 -15.2 1.75 L-17.2 1.0 -11.0 8.5 Q-10.9 9.25 -9.1 9.55 L-4.75 10.2 -0.25 11.2 2.25 11.5 Q2.7 11.1 1.35 9.25 Z" fill="none" stroke="#000000" stroke-linecap="round" stroke-linejoin="round" stroke-width="1.0"/>
    <path d="M15.7 -7.85 L18.15 -8.15 Q18.15 -7.85 15.05 -5.9 11.9 -3.95 8.25 -3.3 L0.5 -1.9 -7.25 -0.75 -9.35 1.55 -19.2 1.55 -18.4 0.2 -16.35 -2.85 Q-15.15 -4.65 -13.25 -5.0 L-10.5 -5.7 Q-9.65 -5.95 -7.95 -6.9 -6.25 -7.85 -3.0 -7.6 L3.65 -7.2 Q7.1 -7.0 10.2 -7.1 13.25 -7.15 15.7 -7.85" fill="#ff4200" fill-rule="evenodd" stroke="none"/>
    <path d="M15.7 -7.85 L18.15 -8.15 Q18.15 -7.85 15.05 -5.9 11.9 -3.95 8.25 -3.3 L0.5 -1.9 -7.25 -0.75 -9.35 1.55 -19.2 1.55 -18.4 0.2 -16.35 -2.85 Q-15.15 -4.65 -13.25 -5.0 L-10.5 -5.7 Q-9.65 -5.95 -7.95 -6.9 -6.25 -7.85 -3.0 -7.6 L3.65 -7.2 Q7.1 -7.0 10.2 -7.1 13.25 -7.15 15.7 -7.85 Z" fill="none" stroke="#000000" stroke-linecap="round" stroke-linejoin="round" stroke-width="1.0"/>
  </g>
</svg>
