<?xml version="1.0" encoding="UTF-8" standalone="no"?>
<svg xmlns:xlink="http://www.w3.org/1999/xlink" height="170.1px" width="205.8px" xmlns="http://www.w3.org/2000/svg">
  <g transform="matrix(1.0, 0.0, 0.0, 1.0, 102.25, 116.15)">
    <path d="M-69.6 -40.8 L-70.5 -46.3 -68.0 -64.55 -61.0 -81.15 -48.75 -96.8 -33.85 -107.65 -17.25 -114.15 Q1.55 -117.15 7.65 -115.65 14.8 -117.05 34.75 -107.9 L50.25 -96.8 62.5 -81.15 69.15 -65.4 Q73.65 -41.55 71.15 -40.65 L49.75 -47.15 27.75 -52.15 27.15 -53.3 25.4 -54.15 17.65 -55.05 Q20.5 -61.85 14.4 -62.9 7.5 -62.65 10.15 -55.4 L-8.5 -55.4 Q-5.6 -61.95 -12.75 -62.9 -19.05 -62.1 -16.1 -55.05 L-23.85 -54.15 -25.5 -53.4 -26.25 -52.15 -48.75 -47.05 -69.5 -40.8 -69.6 -40.8 M66.15 -20.4 L62.5 -12.15 62.0 -12.65 54.5 -18.4 38.9 -27.4 66.15 -20.4 M60.5 -9.3 L50.25 3.6 37.15 13.1 Q22.65 20.45 14.15 21.85 L0.9 23.2 -12.6 21.85 -17.1 21.1 -33.85 14.45 -48.75 3.6 -59.0 -9.3 -52.35 -11.3 -23.25 -22.8 -37.25 -12.65 -46.6 -4.15 Q-49.35 -1.35 -49.1 0.2 L-48.35 0.85 -45.85 0.2 -39.0 -2.8 -31.35 -6.9 -36.0 0.2 Q-43.0 13.95 -26.0 0.2 L0.4 -22.4 1.15 -22.4 27.5 0.2 Q42.75 13.95 37.5 0.2 L32.9 -6.9 44.25 -0.9 49.65 0.85 50.65 0.2 Q50.2 -2.3 48.0 -4.3 L38.75 -12.65 24.75 -22.8 57.15 -10.15 60.5 -9.3 M-61.0 -12.3 L-64.6 -20.4 -37.35 -27.4 -53.0 -18.4 -61.0 -12.3" fill="#b19771" fill-rule="evenodd" stroke="none"/>
    <path d="M-16.1 -55.05 Q-19.05 -62.1 -12.75 -62.9 -5.6 -61.95 -8.5 -55.4 L-16.1 -55.05 M10.15 -55.4 Q7.5 -62.65 14.4 -62.9 20.5 -61.85 17.65 -55.05 L10.15 -55.4" fill="#000000" fill-rule="evenodd" stroke="none"/>
    <path d="M-26.25 -52.15 L-25.5 -53.4 -23.85 -54.15 -16.1 -55.05 -8.5 -55.4 10.15 -55.4 17.65 -55.05 25.4 -54.15 27.15 -53.3 27.75 -52.15 27.75 -51.3 27.0 -48.4 16.4 -34.55 11.15 -28.9 5.0 -23.65 Q2.95 -22.3 1.15 -22.4 L0.4 -22.4 -1.85 -22.8 -3.1 -23.4 -9.6 -28.9 -20.75 -41.55 -25.5 -48.55 -26.25 -51.3 -26.25 -52.15" fill="#ff488c" fill-rule="evenodd" stroke="none"/>
    <path d="M71.15 -40.65 Q104.95 -28.25 103.5 -24.05 L102.65 -23.05 98.15 -22.8 92.25 -23.55 70.65 -27.9 Q100.4 -12.15 66.15 -20.4 L38.9 -27.4 54.5 -18.4 62.0 -12.65 62.5 -12.15 Q66.25 -8.35 60.5 -9.3 L57.15 -10.15 24.75 -22.8 38.75 -12.65 48.0 -4.3 Q50.2 -2.3 50.65 0.2 L49.65 0.85 44.25 -0.9 32.9 -6.9 37.5 0.2 Q42.75 13.95 27.5 0.2 L1.15 -22.4 Q2.95 -22.3 5.0 -23.65 L11.15 -28.9 16.4 -34.55 27.0 -48.4 27.75 -51.3 27.75 -52.15 49.75 -47.15 71.15 -40.65 M-59.0 -9.3 Q-64.75 -8.3 -61.0 -12.3 L-53.0 -18.4 -37.35 -27.4 -64.6 -20.4 Q-98.85 -12.2 -69.1 -27.9 L-91.5 -23.4 Q-102.25 -22.0 -102.0 -23.8 -105.2 -27.35 -69.6 -40.65 L-69.6 -40.8 -69.5 -40.8 -48.75 -47.05 -26.25 -52.15 -26.25 -51.3 -25.5 -48.55 -20.75 -41.55 -9.6 -28.9 -3.1 -23.4 -1.85 -22.8 0.4 -22.4 -26.0 0.2 Q-43.0 13.95 -36.0 0.2 L-31.35 -6.9 -39.0 -2.8 -45.85 0.2 -48.35 0.85 -49.1 0.2 Q-49.35 -1.35 -46.6 -4.15 L-37.25 -12.65 -23.25 -22.8 -52.35 -11.3 -59.0 -9.3" fill="#5f3f2a" fill-rule="evenodd" stroke="none"/>
    <path d="M50.25 3.6 Q65.8 8.25 85.65 31.7 L90.0 41.35 90.15 48.35 Q90.3 49.35 86.75 52.35 78.3 57.15 51.65 46.2 25.65 35.9 14.15 21.85 22.65 20.45 37.15 13.1 L50.25 3.6 M-12.6 21.85 Q-20.0 33.15 -48.85 45.7 -78.1 57.2 -83.35 52.7 L-85.5 52.2 -86.1 51.45 Q-89.95 50.55 -88.5 41.2 L-83.6 31.1 Q-66.05 9.6 -48.75 3.6 L-33.85 14.45 -17.1 21.1 -12.6 21.85" fill="#573f70" fill-rule="evenodd" stroke="none"/>
  </g>
</svg>
