<?xml version="1.0" encoding="UTF-8" standalone="no"?>
<svg xmlns:xlink="http://www.w3.org/1999/xlink" height="317.0px" width="630.1px" xmlns="http://www.w3.org/2000/svg">
  <g transform="matrix(1.0, 0.0, 0.0, 1.0, -38.95, -114.95)">
    <path d="M76.45 336.45 Q76.45 335.15 75.75 334.0 76.45 339.0 76.45 336.45 M379.45 276.95 Q379.45 270.55 368.45 266.0 357.5 261.45 341.95 261.45 326.4 261.45 315.4 266.0 304.45 270.55 304.45 276.95 304.45 283.35 315.4 287.9 326.4 292.45 341.95 292.45 357.5 292.45 368.45 287.9 379.45 283.35 379.45 276.95 M669.05 133.95 L669.05 385.45 250.95 385.45 250.95 366.5 Q256.45 365.35 261.1 363.4 271.95 358.85 271.95 352.45 271.95 346.05 261.1 341.5 253.6 338.35 243.95 337.4 L243.95 328.35 Q252.45 325.25 252.45 321.45 252.45 315.85 234.15 311.9 215.85 307.95 189.95 307.95 164.05 307.95 167.0 311.15 169.9 314.35 158.45 320.05 147.0 325.75 159.95 335.85 L140.95 367.95 139.45 367.95 139.45 426.95 140.45 426.95 140.45 431.95 59.45 431.95 59.45 377.55 57.25 377.85 Q42.25 379.9 38.95 382.5 L38.95 177.2 Q72.15 161.1 108.7 169.75 109.15 170.95 110.2 171.4 129.95 179.0 151.7 184.0 163.65 197.3 181.85 194.2 L195.35 191.7 Q244.0 182.0 293.95 183.4 313.7 183.9 317.95 167.25 323.65 162.3 326.65 156.85 L327.5 157.7 Q337.65 167.45 351.15 171.7 372.7 178.5 394.95 180.75 398.4 186.35 404.95 186.45 428.7 186.85 451.7 182.6 470.3 179.15 488.85 173.75 L495.45 172.35 Q512.05 170.15 521.7 157.35 525.9 151.75 526.8 144.45 528.25 132.85 533.35 122.2 535.2 118.35 535.95 114.95 L536.2 115.0 Q540.75 122.35 549.05 123.45 555.25 124.3 560.9 126.4 L560.9 133.95 577.95 133.95 Q585.4 137.1 593.25 139.8 598.7 141.65 603.65 139.15 608.65 136.65 610.8 133.95 L669.05 133.95" fill="#000000" fill-opacity="0.2" fill-rule="evenodd" stroke="none"/>
  </g>
</svg>
