<?xml version="1.0" encoding="UTF-8" standalone="no"?>
<svg xmlns:xlink="http://www.w3.org/1999/xlink" height="178.1px" width="184.7px" xmlns="http://www.w3.org/2000/svg">
  <g transform="matrix(1.0, 0.0, 0.0, 1.0, 91.8, 131.05)">
    <path d="M-64.6 -60.9 Q-63.8 -97.75 -32.25 -121.8 L-15.5 -129.15 -10.75 -130.3 Q6.7 -132.45 18.4 -128.55 L33.25 -122.05 47.25 -110.3 58.15 -93.4 Q67.4 -71.7 66.15 -60.9 L25.0 -66.05 24.4 -66.65 22.0 -67.55 16.4 -68.15 Q19.4 -73.55 13.4 -76.4 6.9 -75.85 9.4 -68.55 L4.4 -68.8 -7.75 -68.55 Q-5.05 -74.6 -11.6 -76.4 -18.05 -73.8 -14.75 -68.15 L-21.35 -67.3 -23.5 -66.05 -23.6 -66.05 -64.6 -60.9 M66.0 -48.15 L65.9 -47.4 63.4 -48.05 66.0 -48.15 M65.0 -39.05 L64.65 -35.4 61.75 -27.8 Q60.4 -29.85 54.5 -32.65 L35.65 -41.05 54.5 -39.3 65.0 -39.05 M61.4 -26.3 L58.25 -17.15 48.5 -2.3 46.75 -0.4 45.9 0.2 34.0 10.45 18.0 17.95 12.9 18.85 1.65 20.45 -11.35 18.85 -16.5 17.95 -32.35 10.45 -44.35 0.2 -45.25 -0.4 -46.5 -1.55 -56.75 -17.3 -59.85 -26.3 Q-46.2 -25.75 -21.75 -34.4 L-35.5 -25.55 Q-66.45 -4.7 -31.1 -18.3 L-35.75 -12.65 Q-47.85 4.85 -23.0 -12.65 L-13.75 -20.05 0.5 -32.9 1.0 -32.9 16.9 -18.65 24.5 -12.65 Q48.65 4.85 37.25 -12.65 L32.65 -18.3 Q67.95 -4.65 37.0 -25.55 L23.25 -34.4 Q59.7 -23.25 61.4 -26.3 M-60.35 -27.8 L-63.1 -35.3 -63.5 -39.05 -50.75 -39.4 -34.1 -41.05 -55.6 -31.3 Q-59.25 -29.3 -60.35 -27.8 M-64.5 -47.4 L-64.5 -48.15 -61.85 -48.05 -64.35 -47.4 -64.5 -47.4" fill="#b19771" fill-rule="evenodd" stroke="none"/>
    <path d="M66.15 -60.9 Q92.75 -58.2 92.9 -53.9 90.05 -49.3 66.0 -48.15 L63.4 -48.05 65.9 -47.4 Q91.05 -40.85 65.0 -39.05 L54.5 -39.3 35.65 -41.05 54.5 -32.65 Q60.4 -29.85 61.75 -27.8 L62.0 -27.05 61.4 -26.3 Q59.7 -23.25 23.25 -34.4 L37.0 -25.55 Q67.95 -4.65 32.65 -18.3 L37.25 -12.65 Q48.65 4.85 24.5 -12.65 L16.9 -18.65 1.0 -32.9 Q3.05 -32.9 5.4 -34.9 L10.4 -40.15 10.75 -40.65 15.4 -46.4 21.0 -54.3 24.75 -60.9 25.4 -64.15 25.5 -65.3 25.0 -66.05 66.15 -60.9 M-59.85 -26.3 L-60.5 -27.05 -60.35 -27.8 Q-59.25 -29.3 -55.6 -31.3 L-34.1 -41.05 -50.75 -39.4 -63.5 -39.05 Q-89.5 -40.7 -64.5 -47.3 L-64.5 -47.4 -64.35 -47.4 -61.85 -48.05 -64.5 -48.15 Q-88.55 -49.2 -91.35 -54.15 -95.25 -57.05 -64.6 -60.9 L-23.6 -66.05 -23.6 -65.9 -24.0 -64.15 Q-24.55 -64.2 -22.85 -60.15 L-19.5 -54.3 -9.25 -40.55 -2.85 -34.15 -1.6 -33.4 0.5 -32.9 -13.75 -20.05 -23.0 -12.65 Q-47.85 4.85 -35.75 -12.65 L-31.1 -18.3 Q-66.45 -4.7 -35.5 -25.55 L-21.75 -34.4 Q-46.2 -25.75 -59.85 -26.3" fill="#5f3f2a" fill-rule="evenodd" stroke="none"/>
    <path d="M-23.6 -66.05 L-23.5 -66.05 -21.35 -67.3 -14.75 -68.15 -7.75 -68.55 4.4 -68.8 9.4 -68.55 16.4 -68.15 22.0 -67.55 24.4 -66.65 25.0 -66.05 25.5 -65.3 25.4 -64.15 24.75 -60.9 21.0 -54.3 15.4 -46.4 10.75 -40.65 10.4 -40.15 5.4 -34.9 Q3.05 -32.9 1.0 -32.9 L0.5 -32.9 -1.6 -33.4 -2.85 -34.15 -9.25 -40.55 -19.5 -54.3 -22.85 -60.15 Q-24.55 -64.2 -24.0 -64.15 L-23.6 -65.9 -23.6 -66.05" fill="#ff488c" fill-rule="evenodd" stroke="none"/>
    <path d="M-14.75 -68.15 Q-18.05 -73.8 -11.6 -76.4 -5.05 -74.6 -7.75 -68.55 L-14.75 -68.15 M9.4 -68.55 Q6.9 -75.85 13.4 -76.4 19.4 -73.55 16.4 -68.15 L9.4 -68.55" fill="#000000" fill-rule="evenodd" stroke="none"/>
    <path d="M46.75 -0.4 Q57.75 1.05 83.25 24.1 L88.4 31.35 90.75 35.6 91.65 41.7 91.5 42.95 90.75 43.95 88.65 45.2 88.25 45.85 Q79.25 49.65 53.75 41.2 L41.65 36.7 28.9 31.2 20.0 26.35 Q13.8 22.55 12.9 18.85 L18.0 17.95 34.0 10.45 45.9 0.2 46.75 -0.4 M-11.35 18.85 L-13.5 22.45 -18.75 26.45 -26.35 30.7 Q-36.45 35.7 -50.75 40.7 -77.55 49.95 -87.1 45.7 L-90.0 42.95 -89.6 37.2 -88.35 33.7 -82.25 24.7 Q-64.25 6.25 -45.25 -0.4 L-44.35 0.2 -32.35 10.45 -16.5 17.95 -11.35 18.85" fill="#573f70" fill-rule="evenodd" stroke="none"/>
  </g>
</svg>
