<?xml version="1.0" encoding="UTF-8" standalone="no"?>
<svg xmlns:xlink="http://www.w3.org/1999/xlink" height="12.2px" width="15.05px" xmlns="http://www.w3.org/2000/svg">
  <g transform="matrix(1.0, 0.0, 0.0, 1.0, 0.0, 0.0)">
    <path d="M10.25 2.0 L10.95 7.2 13.8 2.85 13.75 10.4 Q12.5 11.35 11.8 11.15 11.1 10.95 10.75 10.1 L10.25 8.4 9.95 7.05 Q10.15 8.3 9.6 9.35 9.0 10.4 8.05 10.8 7.15 11.15 6.25 10.35 5.35 9.55 4.9 7.05 4.65 9.45 4.0 10.4 3.3 11.35 2.45 11.45 L1.05 11.3 0.45 11.0 0.0 4.5 2.6 6.65 2.55 2.3 4.7 5.45 7.05 0.0 7.85 6.35 10.25 2.0" fill="#3b3b3b" fill-rule="evenodd" stroke="none"/>
    <path d="M11.25 11.6 Q10.35 11.45 9.95 10.35 9.65 11.4 8.4 11.85 L6.0 12.1 Q4.8 11.8 4.45 10.55 4.15 11.2 3.1 11.55 2.05 11.9 1.1 11.55 0.1 11.2 0.0 9.75 L0.8 4.7 3.0 9.4 3.3 4.15 6.1 7.8 6.55 1.55 8.55 6.9 11.45 2.1 11.95 7.8 15.05 5.0 15.05 6.25 14.9 8.7 Q14.75 10.0 14.4 10.5 L13.05 11.35 11.25 11.6" fill="#66633a" fill-rule="evenodd" stroke="none"/>
  </g>
</svg>
