<?xml version="1.0" encoding="UTF-8" standalone="no"?>
<svg xmlns:xlink="http://www.w3.org/1999/xlink" height="348.55px" width="715.0px" xmlns="http://www.w3.org/2000/svg">
  <g transform="matrix(1.0, 0.0, 0.0, 1.0, 45.95, -85.95)">
    <path d="M669.05 85.95 L669.05 434.5 47.95 434.5 47.95 354.95 -45.95 354.95 -45.95 150.95 -3.05 150.95 -3.05 148.35 85.95 109.7 Q21.8 165.65 75.95 245.9 L124.6 271.9 167.95 275.95 637.9 275.95 636.9 175.95 464.9 174.85 425.9 107.95 430.35 107.95 516.9 114.95 520.9 111.6 531.35 107.95 533.9 107.95 533.9 107.05 594.3 85.95 669.05 85.95" fill="#000000" fill-opacity="0.2" fill-rule="evenodd" stroke="none"/>
    <path d="M418.9 107.05 L417.9 106.95" fill="none" stroke="#00cccc" stroke-linecap="round" stroke-linejoin="round" stroke-width="1.0"/>
  </g>
</svg>
