<?xml version="1.0" encoding="UTF-8" standalone="no"?>
<svg xmlns:xlink="http://www.w3.org/1999/xlink" height="161.0px" width="544.75px" xmlns="http://www.w3.org/2000/svg">
  <g transform="matrix(1.0, 0.0, 0.0, 1.0, -57.5, -109.2)">
    <path d="M520.3 197.5 L602.25 197.5 602.25 268.9 416.7 268.9 413.3 269.45 408.8 270.2 403.25 270.15 387.7 270.05 363.7 269.9 332.85 269.7 296.6 269.5 256.65 269.35 214.55 269.25 171.8 269.2 Q147.85 269.1 129.3 264.4 110.8 259.7 97.35 251.35 83.9 243.05 75.2 232.0 66.5 221.0 62.15 208.35 57.85 195.65 57.55 182.25 57.2 168.85 60.55 155.7 63.9 142.6 70.55 130.7 77.2 118.85 86.8 109.2 L100.4 109.2 122.65 109.2 151.75 109.2 186.0 109.2 223.65 109.2 263.0 109.2 302.2 109.2 339.55 109.2 373.35 109.2 401.8 109.2 Q418.9 109.2 430.35 110.7 441.8 112.2 448.6 114.95 455.4 117.65 458.65 121.35 461.9 125.05 462.55 129.5 463.25 133.95 462.45 138.9 L460.3 149.0 Q459.05 154.2 458.3 159.4 457.6 164.55 458.5 169.5 459.35 174.45 462.9 178.9 466.45 183.35 473.7 187.05 480.9 190.75 492.85 193.45 504.0 196.0 520.3 197.5" fill="#244fc4" fill-rule="evenodd" stroke="none"/>
  </g>
</svg>
