<?xml version="1.0" encoding="UTF-8" standalone="no"?>
<svg xmlns:xlink="http://www.w3.org/1999/xlink" height="184.65px" width="183.7px" xmlns="http://www.w3.org/2000/svg">
  <g transform="matrix(1.0, 0.0, 0.0, 1.0, 91.15, 141.1)">
    <path d="M-59.85 -75.8 L-59.6 -80.05 -53.85 -100.05 -53.1 -101.65 -43.35 -118.9 -30.6 -131.4 -13.6 -139.8 Q-7.8 -141.4 5.75 -141.05 L13.0 -140.3 15.65 -139.65 32.4 -131.3 45.15 -118.65 54.5 -101.9 Q62.55 -77.5 61.4 -75.8 43.95 -71.4 21.25 -72.05 L15.15 -72.9 16.0 -74.65 16.15 -77.05 Q15.95 -80.95 12.5 -81.8 8.2 -81.4 8.15 -77.05 L8.4 -74.4 9.0 -73.4 -7.35 -73.4 -6.6 -75.4 -6.5 -77.05 Q-6.95 -81.2 -10.1 -81.8 -14.35 -81.4 -14.6 -77.05 L-14.5 -74.9 -13.6 -72.9 -19.75 -72.05 Q-39.95 -71.15 -59.85 -75.8 M62.4 -63.05 L62.75 -60.9 56.65 -60.65 62.4 -63.05 M62.15 -52.65 L60.9 -38.05 55.0 -18.55 45.5 -1.8 44.25 -0.55 43.15 0.2 30.65 11.45 17.4 18.95 12.5 19.85 12.4 19.95 1.5 21.7 -10.85 19.95 -11.0 19.95 -11.0 19.85 -15.35 19.2 Q-21.05 16.5 -26.0 13.1 L-29.0 11.45 -41.5 0.2 -42.75 -0.55 -44.5 -2.8 -53.5 -18.55 -59.35 -38.3 -60.75 -52.65 -46.6 -48.65 Q-36.95 -47.0 -31.0 -47.05 L-54.35 -40.9 Q-57.0 -40.4 -58.1 -38.4 -49.55 -31.75 -20.25 -38.3 L-29.35 -33.15 -45.1 -25.55 Q-52.75 -21.85 -48.35 -19.9 L-40.75 -20.15 -30.85 -22.4 -36.5 -16.8 -39.85 -12.65 Q-44.8 -3.9 -27.5 -12.65 -24.35 -13.9 -16.75 -19.65 L-9.85 -25.55 0.5 -35.3 1.0 -35.3 11.4 -25.55 Q14.05 -22.7 21.5 -17.3 L29.0 -12.65 35.75 -9.3 39.75 -8.3 Q44.45 -7.85 41.4 -12.65 L38.0 -16.8 32.4 -22.4 Q61.0 -16.1 46.65 -25.55 L30.9 -33.15 21.75 -38.3 Q51.05 -31.75 59.65 -38.4 60.95 -40.6 32.5 -47.05 38.45 -47.0 48.15 -48.65 L62.15 -52.65 M-61.25 -60.9 L-61.0 -63.05 -55.25 -60.65 -61.25 -60.9" fill="#b19771" fill-rule="evenodd" stroke="none"/>
    <path d="M-13.6 -72.9 L-14.5 -74.9 -14.6 -77.05 Q-14.35 -81.4 -10.1 -81.8 -6.95 -81.2 -6.5 -77.05 L-6.6 -75.4 -7.35 -73.4 -13.6 -72.9 M9.0 -73.4 L8.4 -74.4 8.15 -77.05 Q8.2 -81.4 12.5 -81.8 15.95 -80.95 16.15 -77.05 L16.0 -74.65 15.15 -72.9 9.0 -73.4" fill="#000000" fill-rule="evenodd" stroke="none"/>
    <path d="M-19.75 -72.05 L-13.6 -72.9 -7.35 -73.4 9.0 -73.4 15.15 -72.9 21.25 -72.05 Q25.65 -71.75 22.5 -64.15 L20.0 -58.9 15.25 -51.3 14.65 -50.15 10.15 -43.65 9.9 -43.15 4.4 -36.8 3.15 -35.9 1.0 -35.3 0.5 -35.3 -1.6 -35.9 -4.35 -38.4 -8.35 -43.15 -8.6 -43.65 -18.5 -58.9 -21.0 -64.15 Q-24.1 -71.75 -19.75 -72.05" fill="#ff488c" fill-rule="evenodd" stroke="none"/>
    <path d="M61.4 -75.8 L76.5 -78.8 Q82.4 -79.2 81.25 -77.05 78.45 -70.3 62.4 -63.05 L56.65 -60.65 62.75 -60.9 Q80.55 -61.05 62.15 -52.65 L48.15 -48.65 Q38.45 -47.0 32.5 -47.05 60.95 -40.6 59.65 -38.4 51.05 -31.75 21.75 -38.3 L30.9 -33.15 46.65 -25.55 Q61.0 -16.1 32.4 -22.4 L38.0 -16.8 41.4 -12.65 Q44.45 -7.85 39.75 -8.3 L35.75 -9.3 29.0 -12.65 21.5 -17.3 Q14.05 -22.7 11.4 -25.55 L1.0 -35.3 3.15 -35.9 4.4 -36.8 9.9 -43.15 10.15 -43.65 14.65 -50.15 15.25 -51.3 20.0 -58.9 22.5 -64.15 Q25.65 -71.75 21.25 -72.05 43.95 -71.4 61.4 -75.8 M-60.75 -52.65 Q-79.0 -61.3 -61.25 -60.9 L-55.25 -60.65 -61.0 -63.05 Q-96.2 -83.05 -65.6 -77.05 L-59.85 -75.8 Q-39.95 -71.15 -19.75 -72.05 -24.1 -71.75 -21.0 -64.15 L-18.5 -58.9 -8.6 -43.65 -8.35 -43.15 -4.35 -38.4 -1.6 -35.9 0.5 -35.3 -9.85 -25.55 -16.75 -19.65 Q-24.35 -13.9 -27.5 -12.65 -44.8 -3.9 -39.85 -12.65 L-36.5 -16.8 -30.85 -22.4 -40.75 -20.15 -48.35 -19.9 Q-52.75 -21.85 -45.1 -25.55 L-29.35 -33.15 -20.25 -38.3 Q-49.55 -31.75 -58.1 -38.4 -57.0 -40.4 -54.35 -40.9 L-31.0 -47.05 Q-36.95 -47.0 -46.6 -48.65 L-60.75 -52.65" fill="#5f3f2a" fill-rule="evenodd" stroke="none"/>
    <path d="M44.25 -0.55 Q56.7 0.9 79.4 19.6 L89.65 32.2 Q94.05 40.4 91.75 41.35 87.7 47.05 45.9 36.85 13.05 29.0 12.5 19.95 L12.4 19.95 12.5 19.85 17.4 18.95 30.65 11.45 43.15 0.2 44.25 -0.55 M-11.0 19.95 L-11.5 23.35 -14.0 25.7 -20.75 29.2 Q-26.6 31.75 -38.0 35.1 -86.8 47.6 -89.85 41.6 -93.1 42.1 -88.35 32.6 L-78.6 20.2 Q-57.55 2.1 -42.75 -0.55 L-41.5 0.2 -29.0 11.45 -26.0 13.1 Q-21.05 16.5 -15.35 19.2 L-11.0 19.85 -11.0 19.95" fill="#573f70" fill-rule="evenodd" stroke="none"/>
  </g>
</svg>
