<?xml version="1.0" encoding="UTF-8" standalone="no"?>
<svg xmlns:xlink="http://www.w3.org/1999/xlink" height="161.0px" width="544.75px" xmlns="http://www.w3.org/2000/svg">
  <g transform="matrix(1.0, 0.0, 0.0, 1.0, 0.0, 0.0)">
    <path d="M544.75 159.7 L359.2 159.7 355.8 160.25 351.3 161.0 345.75 160.95 330.2 160.85 306.2 160.7 275.35 160.5 239.1 160.3 199.15 160.15 157.05 160.05 114.3 160.0 Q90.35 159.9 71.8 155.2 53.3 150.5 39.85 142.15 26.4 133.85 17.7 122.8 9.0 111.8 4.65 99.15 0.35 86.45 0.05 73.05 -0.3 59.65 3.05 46.5 6.4 33.4 13.05 21.5 19.7 9.65 29.3 0.0 33.7 0.15 40.75 1.65 47.8 3.15 53.8 3.25 L53.8 3.9 74.2 5.8 75.2 5.45 78.1 6.15 79.1 6.3 85.55 8.25 192.2 22.5 195.3 21.2 200.45 21.7 207.85 21.7 Q227.3 26.85 243.75 23.6 L241.85 0.0 244.7 0.0 282.05 0.0 315.85 0.0 344.3 0.0 371.25 0.85 Q384.85 13.95 392.7 35.9 391.8 48.1 399.25 61.05 L404.9 69.95 411.25 79.15 Q414.5 83.65 421.5 87.55 L429.5 92.4 544.75 92.4 544.75 159.7" fill="#3c6cc1" fill-opacity="0.27058825" fill-rule="evenodd" stroke="none"/>
  </g>
</svg>
