<?xml version="1.0" encoding="UTF-8" standalone="no"?>
<svg xmlns:xlink="http://www.w3.org/1999/xlink" height="1352.0px" width="136.65px" xmlns="http://www.w3.org/2000/svg">
  <g transform="matrix(1.0, 0.0, 0.0, 1.0, 0.0, 676.0)">
    <path d="M6.7 -601.2 Q9.65 -672.5 13.0 -676.0 L123.45 -676.0 Q126.8 -672.5 129.75 -601.2 132.8 -528.9 130.45 -499.0 129.4 -485.4 133.9 -441.55 138.35 -397.75 135.6 -291.7 132.8 -185.7 132.8 -166.4 132.8 -147.1 129.75 -74.8 128.55 -45.55 125.05 -20.3 123.3 -7.75 121.8 0.5 123.3 8.2 125.05 20.55 128.55 45.45 129.75 74.8 132.8 147.1 130.45 177.0 129.4 190.6 133.9 234.45 138.35 278.25 135.6 384.3 132.8 490.3 132.8 509.6 132.8 528.9 129.75 601.2 126.8 672.5 123.45 676.0 L13.0 676.0 Q9.65 672.5 6.7 601.2 3.65 528.9 1.75 500.05 -0.2 471.15 0.0 335.8 0.2 200.4 1.95 173.75 3.65 147.1 6.7 74.8 9.75 0.0 6.7 -74.8 3.65 -147.1 1.75 -175.95 -0.2 -204.85 0.0 -340.2 0.2 -475.6 1.95 -502.25 3.65 -528.9 6.7 -601.2" fill="#244fc4" fill-opacity="0.4" fill-rule="evenodd" stroke="none"/>
  </g>
</svg>
