<?xml version="1.0" encoding="UTF-8" standalone="no"?>
<svg xmlns:xlink="http://www.w3.org/1999/xlink" height="187.05px" width="170.9px" xmlns="http://www.w3.org/2000/svg">
  <g transform="matrix(1.0, 0.0, 0.0, 1.0, 85.0, 146.9)">
    <path d="M-55.85 -85.55 L-51.75 -102.8 -43.85 -119.05 -42.1 -122.05 -29.6 -136.05 -15.1 -144.4 0.5 -146.9 14.9 -144.9 Q15.9 -145.2 21.9 -141.4 L31.5 -135.8 44.0 -121.55 53.15 -103.05 57.4 -85.55 53.15 -82.55 43.0 -77.05 Q34.95 -72.05 16.15 -69.55 L14.25 -69.8 Q15.45 -71.85 15.4 -73.65 L14.65 -77.05 Q12.7 -81.55 8.5 -77.05 L7.9 -74.65 Q7.45 -72.7 8.75 -70.15 L-7.1 -70.15 -6.25 -73.15 -6.35 -75.55 -6.85 -77.05 Q-8.8 -81.55 -13.0 -77.05 -14.7 -71.95 -12.6 -69.8 L-14.5 -69.55 -28.1 -71.9 Q-33.45 -73.1 -41.5 -77.05 L-47.25 -79.9 -55.85 -85.55 M58.9 -72.9 L59.4 -68.9 51.0 -65.55 58.9 -72.9 M59.75 -61.3 L60.0 -58.9 58.0 -36.9 52.4 -15.9 43.65 1.35 42.4 2.7 37.9 5.6 29.5 13.1 Q15.75 25.35 12.5 24.6 L1.25 26.2 -11.0 24.6 Q-13.55 25.8 -27.85 13.1 L-36.25 5.6 -40.85 2.7 -42.35 0.85 -51.25 -17.05 -56.5 -36.65 -58.5 -58.55 -58.35 -61.3 -50.0 -54.55 -39.25 -48.8 Q-33.85 -46.5 -29.0 -45.4 L-35.1 -44.65 -53.85 -44.55 Q-58.75 -43.1 -49.6 -38.4 -38.5 -32.55 -19.35 -34.65 L-28.0 -30.8 Q-35.8 -27.9 -45.85 -25.55 -58.45 -19.3 -30.75 -19.55 L-39.1 -12.65 Q-44.95 -8.4 -39.5 -6.15 -28.35 -6.9 -20.25 -12.65 -19.05 -12.8 -10.6 -19.4 L0.4 -30.05 1.15 -30.05 14.0 -17.9 21.75 -12.65 Q30.4 -7.2 38.5 -6.15 47.7 -5.9 40.65 -12.65 L32.25 -19.55 32.4 -19.55 Q59.9 -19.3 47.4 -25.55 L33.75 -29.3 Q24.7 -32.35 20.9 -34.65 39.0 -32.3 51.15 -38.4 60.25 -43.1 55.4 -44.55 L39.9 -44.55 30.5 -45.4 40.65 -48.65 45.75 -51.3 Q46.0 -50.75 54.75 -56.9 L59.75 -61.3 M-57.85 -68.9 L-57.5 -72.9 -49.5 -65.55 -57.85 -68.9" fill="#b19771" fill-rule="evenodd" stroke="none"/>
    <path d="M-12.6 -69.8 Q-14.7 -71.95 -13.0 -77.05 -8.8 -81.55 -6.85 -77.05 L-6.35 -75.55 -6.25 -73.15 -7.1 -70.15 -12.6 -69.8 M8.75 -70.15 Q7.45 -72.7 7.9 -74.65 L8.5 -77.05 Q12.7 -81.55 14.65 -77.05 L15.4 -73.65 Q15.45 -71.85 14.25 -69.8 L8.75 -70.15" fill="#000000" fill-rule="evenodd" stroke="none"/>
    <path d="M-14.5 -69.55 L-12.6 -69.8 -7.1 -70.15 8.75 -70.15 14.25 -69.8 16.15 -69.55 Q24.55 -68.75 22.25 -64.15 L21.9 -61.8 19.4 -56.05 14.15 -46.15 9.5 -38.65 9.25 -38.4 5.65 -33.15 Q3.65 -30.5 1.15 -30.05 L0.4 -30.05 Q-2.1 -30.5 -4.1 -33.15 L-7.75 -38.4 -8.0 -38.65 -12.6 -46.15 -20.25 -61.3 -21.0 -64.15 Q-22.75 -69.0 -14.5 -69.55" fill="#ff488c" fill-rule="evenodd" stroke="none"/>
    <path d="M57.4 -85.55 L67.5 -91.9 Q70.7 -93.45 70.15 -89.9 68.2 -84.55 66.0 -81.65 L58.9 -72.9 51.0 -65.55 59.4 -68.9 Q69.95 -73.25 59.75 -61.3 L54.75 -56.9 Q46.0 -50.75 45.75 -51.3 L40.65 -48.65 30.5 -45.4 39.9 -44.55 55.4 -44.55 Q60.25 -43.1 51.15 -38.4 39.0 -32.3 20.9 -34.65 24.7 -32.35 33.75 -29.3 L47.4 -25.55 Q59.9 -19.3 32.4 -19.55 L32.25 -19.55 40.65 -12.65 Q47.7 -5.9 38.5 -6.15 30.4 -7.2 21.75 -12.65 L14.0 -17.9 1.15 -30.05 Q3.65 -30.5 5.65 -33.15 L9.25 -38.4 9.5 -38.65 14.15 -46.15 19.4 -56.05 21.9 -61.8 22.25 -64.15 Q24.55 -68.75 16.15 -69.55 34.95 -72.05 43.0 -77.05 L53.15 -82.55 57.4 -85.55 M-58.35 -61.3 Q-68.35 -73.75 -57.85 -68.9 L-49.5 -65.55 -57.5 -72.9 Q-77.5 -99.2 -62.5 -89.9 L-55.85 -85.55 -47.25 -79.9 -41.5 -77.05 Q-33.45 -73.1 -28.1 -71.9 L-14.5 -69.55 Q-22.75 -69.0 -21.0 -64.15 L-20.25 -61.3 -12.6 -46.15 -8.0 -38.65 -7.75 -38.4 -4.1 -33.15 Q-2.1 -30.5 0.4 -30.05 L-10.6 -19.4 Q-19.05 -12.8 -20.25 -12.65 -28.35 -6.9 -39.5 -6.15 -44.95 -8.4 -39.1 -12.65 L-30.75 -19.55 Q-58.45 -19.3 -45.85 -25.55 -35.8 -27.9 -28.0 -30.8 L-19.35 -34.65 Q-38.5 -32.55 -49.6 -38.4 -58.75 -43.1 -53.85 -44.55 L-35.1 -44.65 -29.0 -45.4 Q-33.85 -46.5 -39.25 -48.8 L-50.0 -54.55 -58.35 -61.3" fill="#5f3f2a" fill-rule="evenodd" stroke="none"/>
    <path d="M42.4 2.7 Q55.95 4.75 61.25 8.1 L73.75 16.2 Q87.25 28.8 85.75 38.95 77.95 42.9 22.9 34.1 10.3 33.8 12.5 24.6 15.75 25.35 29.5 13.1 L37.9 5.6 42.4 2.7 M-11.0 24.6 Q-8.45 31.95 -17.6 33.35 -69.2 42.45 -84.0 39.1 -88.55 34.2 -72.35 16.35 L-61.1 8.7 Q-53.75 4.45 -40.85 2.7 L-36.25 5.6 -27.85 13.1 Q-13.55 25.8 -11.0 24.6" fill="#573f70" fill-rule="evenodd" stroke="none"/>
  </g>
</svg>
