<?xml version="1.0" encoding="UTF-8" standalone="no"?>
<svg xmlns:xlink="http://www.w3.org/1999/xlink" height="96.8px" width="424.65px" xmlns="http://www.w3.org/2000/svg">
  <g transform="matrix(1.0, 0.0, 0.0, 1.0, 0.25, -302.35)">
    <path d="M424.4 399.15 L375.75 399.15 375.75 383.5 424.4 383.5 424.4 399.15" fill="#c7bf57" fill-rule="evenodd" stroke="none"/>
    <path d="M345.7 351.0 L0.0 352.7 -0.25 304.0 345.45 302.35 345.7 351.0" fill="#c7bf57" fill-rule="evenodd" stroke="none"/>
    <path d="M408.75 336.35 Q416.1 346.35 420.15 358.35 424.2 370.4 424.25 383.75 L424.25 384.05 375.3 384.05 375.3 383.75 Q375.25 377.2 372.85 371.55 370.45 365.9 366.15 361.6 361.85 357.3 356.2 354.9 350.55 352.45 344.0 352.4 L344.0 303.5 Q357.35 303.55 369.35 307.6 381.35 311.65 391.4 319.0 401.4 326.35 408.75 336.35" fill="#c7bf57" fill-rule="evenodd" stroke="none"/>
  </g>
</svg>
