<?xml version="1.0" encoding="UTF-8" standalone="no"?>
<svg xmlns:xlink="http://www.w3.org/1999/xlink" height="190.0px" width="163.9px" xmlns="http://www.w3.org/2000/svg">
  <g transform="matrix(1.0, 0.0, 0.0, 1.0, 81.3, 147.55)">
    <path d="M-52.75 -90.65 L-52.6 -90.65 Q-53.45 -96.65 -42.0 -120.15 L-30.0 -135.05 -15.1 -144.4 0.15 -147.55 16.75 -144.4 21.65 -141.4 Q48.15 -125.55 54.15 -90.65 L54.15 -90.55 48.0 -82.8 42.65 -77.05 35.15 -70.15 Q26.25 -64.15 24.9 -64.15 24.25 -63.35 18.15 -61.8 L14.65 -59.8 13.5 -59.9 14.4 -61.65 14.75 -64.15 Q14.4 -69.5 11.5 -70.05 7.95 -70.25 7.65 -64.15 L7.75 -62.3 8.75 -60.15 -7.25 -60.15 -6.25 -62.4 -6.1 -64.15 Q-6.3 -69.5 -9.25 -70.05 -12.75 -70.25 -13.25 -64.15 L-13.0 -62.15 -12.0 -59.9 -13.0 -59.8 -16.6 -61.8 Q-22.75 -63.35 -23.35 -64.15 -24.75 -64.2 -33.6 -70.15 L-41.1 -77.05 -46.5 -82.8 -52.6 -90.55 -52.75 -90.65 M56.25 -79.9 L56.75 -78.4 57.15 -71.15 54.65 -69.55 46.5 -62.9 46.4 -62.9 51.5 -70.55 56.25 -79.9 M57.4 -65.3 L58.0 -54.15 56.15 -32.4 50.9 -11.15 42.15 7.85 41.0 7.85 39.5 8.45 28.0 18.6 21.25 25.95 14.65 30.7 13.65 31.85 12.5 32.2 3.65 33.35 Q-4.75 33.65 -11.1 32.2 L-19.6 25.95 -20.1 25.85 Q-20.05 25.15 -29.25 15.7 L-37.25 8.85 -39.35 7.85 -40.6 7.85 Q-60.45 -34.05 -56.0 -65.4 L-55.1 -64.15 -50.85 -57.15 -46.0 -51.3 Q-35.95 -40.75 -29.1 -38.4 L-27.25 -37.4 -30.75 -37.55 -38.85 -38.9 -50.85 -42.4 Q-54.85 -43.15 -51.35 -38.4 -41.85 -27.6 -26.85 -25.55 L-23.1 -25.05 -18.75 -25.05 Q-21.95 -21.8 -49.35 -19.55 -51.5 -16.5 -40.1 -12.65 L-35.0 -11.4 -30.6 -11.05 Q-47.35 -1.9 -42.1 0.2 -38.75 3.45 -26.85 0.2 -12.3 -5.35 -6.0 -12.65 L0.15 -18.8 1.4 -18.8 7.5 -12.65 Q19.05 -2.1 28.4 0.2 38.75 3.45 43.65 0.2 48.9 -1.95 32.15 -11.05 L36.5 -11.4 41.65 -12.65 Q53.0 -16.5 50.9 -19.55 L48.65 -20.3 Q33.05 -19.9 20.25 -25.05 L26.4 -25.15 28.4 -25.55 Q43.4 -27.6 52.9 -38.4 L54.4 -40.55 54.5 -41.8 53.5 -42.4 50.15 -41.9 Q37.95 -37.9 37.5 -38.4 L35.4 -37.9 28.75 -37.4 30.65 -38.4 Q37.45 -40.75 47.5 -51.3 51.55 -55.55 53.9 -59.3 L57.4 -65.3 M-55.75 -71.15 L-55.6 -71.15 -55.25 -78.55 -54.85 -79.9 -50.0 -70.55 -44.85 -62.9 -53.6 -69.9 -55.75 -71.15" fill="#b19771" fill-rule="evenodd" stroke="none"/>
    <path d="M-52.75 -90.65 L-52.6 -90.55 -46.5 -82.8 -41.1 -77.05 -33.6 -70.15 Q-24.75 -64.2 -23.35 -64.15 -22.75 -63.35 -16.6 -61.8 L-13.0 -59.8 Q-23.05 -60.05 -19.35 -51.3 L-17.75 -46.9 -8.1 -28.4 -7.85 -28.05 -8.0 -27.9 -7.85 -27.9 -3.5 -21.4 Q-0.8 -18.5 0.15 -18.8 L-6.0 -12.65 Q-12.3 -5.35 -26.85 0.2 -38.75 3.45 -42.1 0.2 -47.35 -1.9 -30.6 -11.05 L-35.0 -11.4 -40.1 -12.65 Q-51.5 -16.5 -49.35 -19.55 -21.95 -21.8 -18.75 -25.05 L-23.1 -25.05 -26.85 -25.55 Q-41.85 -27.6 -51.35 -38.4 -54.85 -43.15 -50.85 -42.4 L-38.85 -38.9 -30.75 -37.55 -27.25 -37.4 -29.1 -38.4 Q-35.95 -40.75 -46.0 -51.3 L-50.85 -57.15 -55.1 -64.15 -56.0 -65.4 -57.35 -69.9 -57.0 -71.3 -55.75 -71.15 -53.6 -69.9 -44.85 -62.9 -50.0 -70.55 -54.85 -79.9 Q-64.2 -102.8 -52.75 -90.65 M14.65 -59.8 L18.15 -61.8 Q24.25 -63.35 24.9 -64.15 26.25 -64.15 35.15 -70.15 L42.65 -77.05 48.0 -82.8 54.15 -90.55 54.15 -90.65 54.25 -90.65 Q65.75 -102.8 56.25 -79.9 L51.5 -70.55 46.4 -62.9 46.5 -62.9 54.65 -69.55 57.15 -71.15 58.5 -71.3 58.75 -70.05 58.75 -69.65 57.4 -65.3 53.9 -59.3 Q51.55 -55.55 47.5 -51.3 37.45 -40.75 30.65 -38.4 L28.75 -37.4 35.4 -37.9 37.5 -38.4 Q37.95 -37.9 50.15 -41.9 L53.5 -42.4 54.5 -41.8 54.4 -40.55 52.9 -38.4 Q43.4 -27.6 28.4 -25.55 L26.4 -25.15 20.25 -25.05 Q33.05 -19.9 48.65 -20.3 L50.9 -19.55 Q53.0 -16.5 41.65 -12.65 L36.5 -11.4 32.15 -11.05 Q48.9 -1.95 43.65 0.2 38.75 3.45 28.4 0.2 19.05 -2.1 7.5 -12.65 L1.4 -18.8 Q2.3 -18.5 5.0 -21.4 L9.65 -28.4 19.25 -46.9 20.9 -51.3 Q24.5 -60.05 14.65 -59.8" fill="#5f3f2a" fill-rule="evenodd" stroke="none"/>
    <path d="M-13.0 -59.8 L-12.0 -59.9 -7.25 -60.15 8.75 -60.15 13.5 -59.9 14.65 -59.8 Q24.5 -60.05 20.9 -51.3 L19.25 -46.9 9.65 -28.4 5.0 -21.4 Q2.3 -18.5 1.4 -18.8 L0.15 -18.8 Q-0.8 -18.5 -3.5 -21.4 L-7.85 -27.9 -8.0 -27.9 -7.85 -28.05 -8.1 -28.4 -17.75 -46.9 -19.35 -51.3 Q-23.05 -60.05 -13.0 -59.8" fill="#ff488c" fill-rule="evenodd" stroke="none"/>
    <path d="M-12.0 -59.9 L-13.0 -62.15 -13.25 -64.15 Q-12.75 -70.25 -9.25 -70.05 -6.3 -69.5 -6.1 -64.15 L-6.25 -62.4 -7.25 -60.15 -12.0 -59.9 M8.75 -60.15 L7.75 -62.3 7.65 -64.15 Q7.95 -70.25 11.5 -70.05 14.4 -69.5 14.75 -64.15 L14.4 -61.65 13.5 -59.9 8.75 -60.15" fill="#000000" fill-rule="evenodd" stroke="none"/>
    <path d="M42.15 7.85 Q56.95 7.95 68.0 15.1 L70.75 17.35 Q78.05 24.3 78.15 25.35 83.5 33.65 82.4 39.2 82.65 39.85 77.9 40.45 L53.75 42.1 19.4 42.45 Q9.8 42.05 12.5 32.2 L13.65 31.85 14.65 30.7 21.25 25.95 28.0 18.6 39.5 8.45 41.0 7.85 42.15 7.85 M-11.1 32.2 Q-9.75 42.25 -14.85 42.1 -36.75 43.3 -75.1 40.6 L-75.25 40.45 -76.0 40.45 -76.35 40.35 -77.0 40.35 -77.1 40.2 Q-83.6 41.2 -80.1 32.2 L-76.5 25.1 Q-76.35 24.2 -69.25 17.35 -54.8 7.1 -40.6 7.85 L-39.35 7.85 -37.25 8.85 -29.25 15.7 Q-20.05 25.15 -20.1 25.85 L-19.6 25.95 -11.1 32.2" fill="#573f70" fill-rule="evenodd" stroke="none"/>
  </g>
</svg>
