<?xml version="1.0" encoding="UTF-8" standalone="no"?>
<svg xmlns:xlink="http://www.w3.org/1999/xlink" height="474.05px" width="715.0px" xmlns="http://www.w3.org/2000/svg">
  <g transform="matrix(1.0, 0.0, 0.0, 1.0, 45.95, 39.55)">
    <path d="M232.45 115.3 L232.45 115.45 289.95 115.45 289.95 115.3 232.45 115.3 M567.05 265.2 Q583.75 263.8 580.75 259.75 595.95 167.45 590.1 68.95 L669.05 68.95 669.05 434.5 427.05 434.5 427.05 401.45 431.95 328.95 Q582.45 297.3 567.05 265.2 M232.45 -37.4 Q260.05 -41.9 281.45 -36.9 277.45 30.05 286.45 93.4 L304.9 94.3 334.15 111.5 334.05 112.0 356.75 123.15 364.15 128.6 439.0 126.1 446.0 117.1 478.65 79.3 478.55 77.05 513.2 77.05 513.2 210.5 Q409.95 220.4 416.65 236.7 L416.5 236.8 Q384.4 188.65 334.65 181.75 L240.45 179.75 249.45 269.4 327.65 269.4 331.15 271.3 Q337.8 288.2 351.65 294.35 L351.35 395.05 350.05 395.05 350.05 434.5 -45.95 434.5 -45.95 84.95 -2.55 84.95 -2.6 85.7 6.35 86.0 6.35 87.15 7.4 87.15 84.1 121.25 156.75 83.75 159.95 84.45 181.4 88.6 181.4 95.3 185.9 95.3 188.75 95.75 232.45 93.8 Q238.8 28.2 232.45 -37.4 M175.45 181.75 L-6.45 181.75 -6.45 269.4 175.45 269.4 175.45 181.75" fill="#000000" fill-opacity="0.2" fill-rule="evenodd" stroke="none"/>
  </g>
</svg>
