<?xml version="1.0" encoding="UTF-8" standalone="no"?>
<svg xmlns:xlink="http://www.w3.org/1999/xlink" height="31.95px" width="90.95px" xmlns="http://www.w3.org/2000/svg">
  <g transform="matrix(1.0, 0.0, 0.0, 1.0, -509.2, -42.95)">
    <path d="M594.0 59.45 Q598.1 64.6 600.15 72.2 L598.65 73.15 597.8 73.35 597.45 71.25 Q597.1 69.2 595.65 65.95 594.2 62.75 591.1 59.1 588.05 55.5 582.7 52.3 577.35 49.1 569.15 47.1 560.9 45.1 549.25 45.15 540.4 45.2 533.95 47.35 527.5 49.45 523.15 52.85 518.8 56.2 516.1 60.0 513.4 63.8 512.05 67.15 510.65 70.55 510.15 72.7 L509.7 74.9 509.2 71.85 509.5 69.7 Q509.85 67.65 511.1 64.35 512.35 61.1 514.95 57.45 517.6 53.75 522.1 50.5 526.6 47.2 533.5 45.15 540.35 43.05 550.1 42.95 L554.9 43.0 563.4 43.75 Q568.35 44.45 573.9 46.15 579.4 47.85 584.65 51.1 589.9 54.3 594.0 59.45" fill="#5c5c5c" fill-rule="evenodd" stroke="none"/>
  </g>
</svg>
