<?xml version="1.0" encoding="UTF-8" standalone="no"?>
<svg xmlns:xlink="http://www.w3.org/1999/xlink" height="31.4px" width="80.8px" xmlns="http://www.w3.org/2000/svg">
  <g transform="matrix(1.0, 0.0, 0.0, 1.0, -512.9, -45.8)">
    <path d="M592.5 63.1 Q592.7 64.05 592.3 64.8 591.9 65.65 590.9 65.75 589.9 65.9 588.5 64.8 587.15 63.7 586.6 62.8 586.05 61.9 586.0 60.85 586.0 60.1 586.75 59.75 L588.6 59.5 Q589.7 59.7 590.75 60.7 592.25 62.2 592.5 63.1" fill="#3b3b3b" fill-rule="evenodd" stroke="none"/>
    <path d="M527.5 56.4 Q527.35 57.45 526.7 58.25 L524.55 60.05 Q523.05 61.0 522.1 60.75 521.15 60.5 520.8 59.6 520.45 58.8 520.8 57.9 521.15 57.0 522.8 55.7 523.95 54.8 525.05 54.75 526.2 54.7 526.9 55.2 527.6 55.65 527.5 56.4" fill="#3b3b3b" fill-rule="evenodd" stroke="none"/>
    <path d="M536.5 52.1 L535.6 53.45 533.55 54.55 531.45 54.7 Q530.75 54.35 530.65 53.6 530.5 52.9 530.9 52.25 531.3 51.55 532.85 50.75 L535.65 50.6 Q536.75 51.15 536.5 52.1" fill="#3b3b3b" fill-rule="evenodd" stroke="none"/>
    <path d="M566.3 54.45 Q567.35 54.35 568.3 54.8 L570.55 56.45 Q571.85 57.65 571.85 58.65 571.85 59.65 571.05 60.15 570.35 60.7 569.4 60.6 568.5 60.45 566.8 59.2 565.65 58.3 565.35 57.25 565.0 56.15 565.3 55.4 565.6 54.6 566.3 54.45" fill="#3b3b3b" fill-rule="evenodd" stroke="none"/>
    <path d="M566.45 53.9 Q567.5 53.8 568.45 54.25 569.4 54.7 570.7 55.9 572.0 57.1 572.0 58.1 572.0 59.1 571.2 59.6 570.5 60.15 569.55 60.05 568.65 59.9 566.95 58.65 565.8 57.75 565.5 56.7 565.15 55.6 565.45 54.85 565.75 54.05 566.45 53.9" fill="#7d7d7d" fill-rule="evenodd" stroke="none"/>
    <path d="M564.7 53.2 Q564.9 54.25 564.5 55.2 L563.05 57.55 Q561.9 58.95 560.9 59.0 559.9 59.05 559.35 58.35 558.75 57.7 558.8 56.75 558.85 55.75 560.0 54.0 560.8 52.8 561.85 52.4 L563.7 52.25 Q564.55 52.45 564.7 53.2" fill="#3b3b3b" fill-rule="evenodd" stroke="none"/>
    <path d="M564.75 52.55 Q564.95 53.6 564.55 54.55 564.2 55.55 563.1 56.9 561.95 58.3 560.95 58.35 559.95 58.4 559.4 57.7 558.8 57.05 558.85 56.1 558.9 55.1 560.05 53.35 560.85 52.15 561.9 51.75 L563.75 51.6 Q564.6 51.8 564.75 52.55" fill="#7d7d7d" fill-rule="evenodd" stroke="none"/>
    <path d="M561.55 51.1 Q560.8 51.85 559.8 52.15 L557.05 52.3 Q555.25 52.15 554.65 51.4 554.0 50.6 554.3 49.75 554.5 48.9 555.3 48.35 556.1 47.85 558.2 47.75 559.65 47.75 560.55 48.35 561.5 48.95 561.8 49.75 562.05 50.55 561.55 51.1" fill="#3b3b3b" fill-rule="evenodd" stroke="none"/>
    <path d="M561.65 50.5 L559.9 51.55 557.15 51.7 Q555.35 51.55 554.75 50.8 554.1 50.0 554.4 49.15 554.6 48.3 555.4 47.75 556.2 47.25 558.3 47.15 559.75 47.15 560.65 47.75 561.6 48.35 561.9 49.15 562.15 49.95 561.65 50.5" fill="#7d7d7d" fill-rule="evenodd" stroke="none"/>
    <path d="M549.3 57.9 Q548.5 58.6 547.45 58.75 L544.7 58.55 Q542.95 58.2 542.4 57.4 541.9 56.55 542.25 55.7 542.55 54.9 543.4 54.45 L546.35 54.2 Q547.8 54.35 548.65 55.05 549.5 55.8 549.7 56.6 549.9 57.45 549.3 57.9" fill="#3b3b3b" fill-rule="evenodd" stroke="none"/>
    <path d="M549.1 57.3 Q548.3 58.0 547.25 58.15 L544.5 57.95 Q542.75 57.6 542.2 56.8 541.7 55.95 542.05 55.1 542.35 54.3 543.2 53.85 L546.15 53.6 Q547.6 53.75 548.45 54.45 549.3 55.2 549.5 56.0 549.7 56.85 549.1 57.3" fill="#7d7d7d" fill-rule="evenodd" stroke="none"/>
    <path d="M572.7 52.25 Q571.95 53.0 570.95 53.3 L568.2 53.45 Q566.4 53.3 565.8 52.55 565.15 51.75 565.45 50.9 565.65 50.05 566.45 49.5 567.25 49.0 569.35 48.9 570.8 48.9 571.7 49.5 572.65 50.1 572.95 50.9 573.2 51.7 572.7 52.25" fill="#3b3b3b" fill-rule="evenodd" stroke="none"/>
    <path d="M572.8 51.7 Q572.05 52.45 571.05 52.75 L568.3 52.9 Q566.5 52.75 565.9 52.0 565.25 51.2 565.55 50.35 565.75 49.5 566.55 48.95 567.35 48.45 569.45 48.35 570.9 48.35 571.8 48.95 572.75 49.55 573.05 50.35 573.3 51.15 572.8 51.7" fill="#7d7d7d" fill-rule="evenodd" stroke="none"/>
    <path d="M558.35 54.4 Q558.65 55.25 558.45 56.0 L557.4 57.7 Q556.5 58.65 555.6 58.55 554.7 58.45 554.1 57.8 553.5 57.2 553.4 56.45 553.3 55.7 554.15 54.45 554.75 53.6 555.65 53.4 L557.35 53.55 Q558.15 53.8 558.35 54.4" fill="#3b3b3b" fill-rule="evenodd" stroke="none"/>
    <path d="M558.3 53.7 Q558.65 54.55 558.4 55.3 L557.35 57.0 Q556.45 57.95 555.55 57.85 554.65 57.75 554.05 57.1 553.45 56.5 553.35 55.75 553.3 55.0 554.1 53.75 554.7 52.9 555.6 52.7 L557.3 52.85 Q558.1 53.1 558.3 53.7" fill="#7d7d7d" fill-rule="evenodd" stroke="none"/>
    <path d="M591.95 72.55 Q592.25 73.4 592.05 74.15 L591.0 75.85 Q590.1 76.8 589.2 76.7 588.3 76.6 587.7 75.95 587.1 75.35 587.0 74.6 586.9 73.85 587.75 72.6 588.35 71.75 589.25 71.55 L590.95 71.7 Q591.75 71.95 591.95 72.55" fill="#3b3b3b" fill-rule="evenodd" stroke="none"/>
    <path d="M591.95 71.8 Q592.3 72.65 592.05 73.4 L591.0 75.1 Q590.1 76.05 589.2 75.95 588.3 75.85 587.7 75.2 587.1 74.6 587.0 73.85 586.95 73.1 587.75 71.85 588.35 71.0 589.25 70.8 L590.95 70.95 Q591.75 71.2 591.95 71.8" fill="#7d7d7d" fill-rule="evenodd" stroke="none"/>
    <path d="M548.2 48.5 Q548.5 49.35 548.3 50.1 548.1 50.85 547.25 51.8 546.35 52.75 545.45 52.65 544.55 52.55 543.95 51.9 543.35 51.3 543.25 50.55 543.15 49.8 544.0 48.55 544.6 47.7 545.5 47.5 L547.2 47.65 Q548.0 47.9 548.2 48.5" fill="#3b3b3b" fill-rule="evenodd" stroke="none"/>
    <path d="M548.25 47.95 Q548.6 48.8 548.35 49.55 L547.3 51.25 Q546.4 52.2 545.5 52.1 544.6 52.0 544.0 51.35 543.4 50.75 543.3 50.0 543.25 49.25 544.05 48.0 544.65 47.15 545.55 46.95 L547.25 47.1 Q548.05 47.35 548.25 47.95" fill="#7d7d7d" fill-rule="evenodd" stroke="none"/>
    <path d="M553.3 54.05 Q552.65 54.55 550.85 54.75 549.65 54.8 548.8 54.3 548.0 53.8 547.7 53.1 547.45 52.4 547.85 51.9 L549.25 50.9 551.6 50.65 Q553.15 50.7 553.7 51.35 554.25 52.0 554.1 52.8 L553.3 54.05" fill="#3b3b3b" fill-rule="evenodd" stroke="none"/>
    <path d="M553.3 53.45 Q552.65 53.95 550.85 54.1 549.65 54.2 548.8 53.7 548.0 53.2 547.7 52.5 547.45 51.8 547.85 51.3 L549.25 50.3 551.6 50.05 Q553.15 50.1 553.7 50.75 554.25 51.4 554.05 52.2 553.95 52.95 553.3 53.45" fill="#7d7d7d" fill-rule="evenodd" stroke="none"/>
    <path d="M538.45 51.8 L539.6 51.0 541.5 50.8 Q542.75 50.85 543.2 51.4 543.65 51.9 543.5 52.55 L542.85 53.6 540.9 54.1 Q539.4 54.15 538.7 53.3 537.95 52.45 538.45 51.8" fill="#3b3b3b" fill-rule="evenodd" stroke="none"/>
    <path d="M538.4 51.35 Q538.85 50.8 539.55 50.55 L541.45 50.35 Q542.7 50.4 543.15 50.95 543.6 51.45 543.45 52.1 L542.8 53.15 540.85 53.65 Q539.35 53.7 538.65 52.85 537.9 52.0 538.4 51.35" fill="#7d7d7d" fill-rule="evenodd" stroke="none"/>
    <path d="M565.6 48.1 Q565.8 48.7 565.65 49.2 L564.95 50.35 Q564.35 51.0 563.75 50.9 563.15 50.85 562.7 50.4 562.3 50.0 562.25 49.5 562.2 49.0 562.75 48.15 563.4 47.3 564.35 47.4 565.35 47.5 565.6 48.1" fill="#3b3b3b" fill-rule="evenodd" stroke="none"/>
    <path d="M565.6 47.6 Q565.8 48.2 565.65 48.7 L564.95 49.85 Q564.35 50.5 563.75 50.4 563.15 50.35 562.7 49.9 562.3 49.5 562.25 49.0 562.2 48.5 562.75 47.65 563.4 46.8 564.35 46.9 565.35 47.0 565.6 47.6" fill="#7d7d7d" fill-rule="evenodd" stroke="none"/>
    <path d="M580.2 60.15 Q580.65 60.7 580.35 61.5 580.0 62.3 579.05 62.85 578.1 63.4 576.65 63.3 574.55 63.1 573.8 62.5 573.0 61.95 572.85 61.1 572.65 60.2 573.3 59.45 573.95 58.75 575.75 58.7 L578.5 59.0 580.2 60.15" fill="#3b3b3b" fill-rule="evenodd" stroke="none"/>
    <path d="M580.45 59.65 Q580.9 60.2 580.6 61.0 580.25 61.8 579.3 62.35 578.35 62.9 576.9 62.8 574.8 62.6 574.0 62.0 573.25 61.45 573.1 60.6 572.9 59.7 573.55 58.95 574.2 58.25 576.0 58.2 L578.75 58.5 Q579.75 58.85 580.45 59.65" fill="#7d7d7d" fill-rule="evenodd" stroke="none"/>
    <path d="M582.25 60.3 L583.65 60.25 Q584.4 60.6 584.9 61.6 585.35 62.6 585.15 64.05 584.8 66.1 584.2 66.85 583.6 67.6 582.7 67.65 581.8 67.85 581.1 67.1 580.4 66.4 580.5 64.6 580.65 62.85 581.05 61.9 581.4 60.9 582.25 60.3" fill="#3b3b3b" fill-rule="evenodd" stroke="none"/>
    <path d="M582.6 59.85 L584.0 59.8 Q584.75 60.15 585.25 61.15 585.7 62.15 585.5 63.6 585.15 65.65 584.55 66.4 583.95 67.15 583.05 67.2 582.15 67.4 581.45 66.65 580.75 65.95 580.85 64.15 581.0 62.4 581.4 61.45 581.75 60.45 582.6 59.85" fill="#7d7d7d" fill-rule="evenodd" stroke="none"/>
    <path d="M592.8 62.65 Q593.0 63.6 592.6 64.35 592.2 65.2 591.2 65.3 590.2 65.45 588.8 64.35 587.45 63.25 586.9 62.35 586.3 61.45 586.3 60.4 586.3 59.65 587.05 59.3 587.8 58.9 588.9 59.05 590.0 59.25 591.05 60.25 592.55 61.75 592.8 62.65" fill="#7d7d7d" fill-rule="evenodd" stroke="none"/>
    <path d="M583.5 56.4 Q583.7 57.35 583.3 58.1 582.9 58.95 581.9 59.05 580.9 59.2 579.5 58.1 578.15 57.0 577.6 56.1 577.05 55.2 577.0 54.15 577.0 53.4 577.75 53.05 L579.6 52.8 Q580.7 53.0 581.75 54.0 583.25 55.5 583.5 56.4" fill="#3b3b3b" fill-rule="evenodd" stroke="none"/>
    <path d="M583.8 55.9 Q584.0 56.85 583.6 57.6 583.2 58.45 582.2 58.55 581.2 58.7 579.8 57.6 L577.9 55.6 Q577.3 54.7 577.3 53.65 577.3 52.9 578.05 52.55 578.8 52.15 579.9 52.3 581.0 52.5 582.05 53.5 583.55 55.0 583.8 55.9" fill="#7d7d7d" fill-rule="evenodd" stroke="none"/>
    <path d="M587.4 65.55 Q588.15 65.9 588.7 66.65 589.25 67.4 589.1 68.45 588.9 69.9 588.3 70.4 587.75 70.9 586.9 70.95 586.0 71.0 585.3 70.45 584.55 69.9 584.55 68.6 584.6 67.3 584.9 66.65 585.25 65.95 586.05 65.55 586.65 65.25 587.4 65.55" fill="#3b3b3b" fill-rule="evenodd" stroke="none"/>
    <path d="M587.9 65.0 Q588.65 65.35 589.2 66.1 589.75 66.85 589.6 67.85 589.35 69.35 588.8 69.85 588.25 70.35 587.4 70.4 586.5 70.45 585.75 69.9 585.05 69.35 585.05 68.05 585.1 66.75 585.4 66.1 585.75 65.4 586.55 65.0 587.15 64.7 587.9 65.0" fill="#7d7d7d" fill-rule="evenodd" stroke="none"/>
    <path d="M585.0 55.95 Q585.65 55.65 586.4 56.25 587.2 56.85 587.1 57.9 L586.55 59.25 585.6 59.6 584.5 59.25 Q584.0 58.9 584.0 58.0 584.0 57.15 584.25 56.7 584.45 56.2 585.0 55.95" fill="#3b3b3b" fill-rule="evenodd" stroke="none"/>
    <path d="M585.35 55.6 Q586.0 55.3 586.75 55.9 587.55 56.5 587.45 57.55 L586.9 58.9 585.95 59.25 Q585.35 59.3 584.85 58.9 584.35 58.55 584.35 57.65 584.35 56.8 584.6 56.35 584.8 55.85 585.35 55.6" fill="#7d7d7d" fill-rule="evenodd" stroke="none"/>
    <path d="M574.6 49.3 Q575.25 49.0 576.0 49.6 576.8 50.2 576.7 51.25 L576.15 52.6 Q575.75 52.95 575.2 52.95 574.6 53.0 574.1 52.6 573.6 52.25 573.6 51.35 573.6 50.5 573.85 50.05 574.05 49.55 574.6 49.3" fill="#3b3b3b" fill-rule="evenodd" stroke="none"/>
    <path d="M574.7 49.0 Q575.35 48.7 576.1 49.3 576.9 49.9 576.8 50.95 L576.25 52.3 575.3 52.65 Q574.7 52.7 574.2 52.3 573.7 51.95 573.7 51.05 573.7 50.2 573.95 49.75 574.15 49.25 574.7 49.0" fill="#7d7d7d" fill-rule="evenodd" stroke="none"/>
    <path d="M551.45 55.25 Q552.3 55.05 552.7 55.5 L553.05 56.4 Q553.1 56.9 552.75 57.6 L551.9 58.45 550.9 58.3 Q550.4 58.1 550.25 57.65 550.05 57.25 550.3 56.35 550.6 55.45 551.45 55.25" fill="#3b3b3b" fill-rule="evenodd" stroke="none"/>
    <path d="M551.4 54.75 Q552.25 54.55 552.65 55.0 L553.0 55.9 Q553.05 56.4 552.7 57.1 L551.85 57.95 550.85 57.8 Q550.35 57.6 550.2 57.15 550.0 56.75 550.25 55.85 550.55 54.95 551.4 54.75" fill="#7d7d7d" fill-rule="evenodd" stroke="none"/>
    <path d="M592.1 67.15 Q592.95 66.95 593.35 67.4 L593.7 68.3 Q593.75 68.8 593.4 69.5 L592.55 70.35 591.55 70.2 Q591.05 70.0 590.9 69.55 590.7 69.15 590.95 68.25 591.25 67.35 592.1 67.15" fill="#3b3b3b" fill-rule="evenodd" stroke="none"/>
    <path d="M592.0 66.65 Q592.85 66.45 593.25 66.9 L593.6 67.8 Q593.65 68.3 593.3 69.0 L592.45 69.85 591.45 69.7 Q590.95 69.5 590.8 69.05 590.6 68.65 590.85 67.75 591.15 66.85 592.0 66.65" fill="#7d7d7d" fill-rule="evenodd" stroke="none"/>
    <path d="M541.6 57.45 L541.9 58.2 541.65 59.15 540.95 59.85 540.1 59.75 539.55 59.2 Q539.4 58.85 539.6 58.15 539.85 57.4 540.55 57.25 541.25 57.1 541.6 57.45" fill="#3b3b3b" fill-rule="evenodd" stroke="none"/>
    <path d="M541.55 57.05 L541.85 57.8 541.6 58.75 540.9 59.45 540.05 59.35 539.5 58.8 Q539.35 58.45 539.55 57.75 539.8 57.0 540.5 56.85 541.2 56.7 541.55 57.05" fill="#7d7d7d" fill-rule="evenodd" stroke="none"/>
    <path d="M538.1 59.2 L535.6 59.35 Q534.35 59.2 533.65 58.6 532.95 57.95 532.8 57.25 532.65 56.55 533.15 56.15 533.85 55.6 534.7 55.5 L537.1 55.65 Q538.6 56.0 539.0 56.7 539.45 57.45 539.1 58.15 538.85 58.85 538.1 59.2" fill="#3b3b3b" fill-rule="evenodd" stroke="none"/>
    <path d="M537.95 58.75 L535.45 58.9 Q534.2 58.75 533.5 58.15 532.8 57.5 532.65 56.8 532.5 56.1 533.0 55.7 533.7 55.15 534.55 55.05 L536.95 55.2 Q538.45 55.55 538.85 56.25 539.3 57.0 538.95 57.7 538.7 58.4 537.95 58.75" fill="#7d7d7d" fill-rule="evenodd" stroke="none"/>
    <path d="M531.45 56.15 Q532.1 56.75 532.3 57.6 L532.5 59.95 Q532.4 61.45 531.75 62.0 531.1 62.55 530.35 62.3 529.65 62.15 529.2 61.5 528.75 60.8 528.65 59.05 528.6 57.85 529.1 57.05 529.6 56.25 530.3 56.0 L531.45 56.15" fill="#3b3b3b" fill-rule="evenodd" stroke="none"/>
    <path d="M531.2 55.6 Q531.85 56.2 532.05 57.05 L532.25 59.4 Q532.15 60.9 531.5 61.45 530.85 62.0 530.1 61.75 L528.95 60.95 Q528.5 60.25 528.4 58.5 528.35 57.3 528.85 56.5 529.35 55.7 530.05 55.45 L531.2 55.6" fill="#7d7d7d" fill-rule="evenodd" stroke="none"/>
    <path d="M527.25 55.85 Q527.1 56.9 526.45 57.7 L524.3 59.5 Q522.8 60.45 521.85 60.2 520.9 59.95 520.55 59.05 520.2 58.25 520.55 57.35 520.9 56.45 522.55 55.15 523.7 54.25 524.8 54.2 525.95 54.15 526.65 54.65 527.35 55.1 527.25 55.85" fill="#7d7d7d" fill-rule="evenodd" stroke="none"/>
    <path d="M536.4 51.65 Q536.15 52.45 535.5 53.0 L533.45 54.1 531.35 54.25 Q530.65 53.9 530.55 53.15 530.4 52.45 530.8 51.8 531.2 51.1 532.75 50.3 L535.55 50.15 Q536.65 50.7 536.4 51.65" fill="#7d7d7d" fill-rule="evenodd" stroke="none"/>
    <path d="M526.65 59.8 L527.7 59.9 Q528.3 60.3 528.5 60.9 528.75 61.45 528.65 62.5 528.55 63.55 527.9 63.9 L526.55 64.15 Q525.9 64.05 525.45 63.6 525.05 63.15 525.0 61.95 525.0 61.1 525.5 60.55 526.0 60.0 526.65 59.8" fill="#3b3b3b" fill-rule="evenodd" stroke="none"/>
    <path d="M526.25 59.35 L527.3 59.45 528.1 60.45 Q528.35 61.0 528.25 62.05 528.15 63.1 527.5 63.45 L526.15 63.7 Q525.5 63.6 525.05 63.15 524.65 62.7 524.6 61.5 524.6 60.65 525.1 60.1 525.6 59.55 526.25 59.35" fill="#7d7d7d" fill-rule="evenodd" stroke="none"/>
    <path d="M515.25 71.75 L516.6 71.85 517.65 73.05 Q517.9 73.8 517.8 75.05 517.65 76.35 516.85 76.8 L515.2 77.15 Q514.35 77.0 513.85 76.45 513.35 75.9 513.25 74.4 513.25 73.35 513.85 72.65 514.45 71.95 515.25 71.75" fill="#3b3b3b" fill-rule="evenodd" stroke="none"/>
    <path d="M514.95 71.3 L516.3 71.4 517.35 72.6 Q517.6 73.35 517.5 74.6 517.35 75.9 516.55 76.35 515.8 76.85 514.9 76.7 514.05 76.55 513.55 76.0 513.05 75.45 512.95 73.95 512.95 72.9 513.55 72.2 514.15 71.5 514.95 71.3" fill="#7d7d7d" fill-rule="evenodd" stroke="none"/>
    <path d="M521.8 62.6 Q521.55 63.4 520.2 64.6 519.25 65.4 518.3 65.45 L516.7 65.15 Q516.1 64.75 516.1 64.1 516.15 63.15 516.7 62.45 517.2 61.7 518.4 60.85 519.65 60.0 520.5 60.2 521.35 60.4 521.7 61.15 522.05 61.85 521.8 62.6" fill="#3b3b3b" fill-rule="evenodd" stroke="none"/>
    <path d="M521.45 62.15 Q521.2 62.95 519.85 64.15 518.9 64.95 517.95 65.0 L516.35 64.7 Q515.75 64.3 515.75 63.65 515.8 62.7 516.3 62.0 L518.05 60.4 Q519.3 59.55 520.15 59.75 521.0 59.95 521.35 60.7 521.7 61.4 521.45 62.15" fill="#7d7d7d" fill-rule="evenodd" stroke="none"/>
    <path d="M529.4 52.1 Q529.9 52.45 530.05 52.9 L530.15 54.25 Q530.05 55.15 529.55 55.45 L528.4 55.65 Q527.85 55.6 527.5 55.2 527.15 54.8 527.1 53.8 527.15 52.75 527.95 52.25 L529.4 52.1" fill="#3b3b3b" fill-rule="evenodd" stroke="none"/>
    <path d="M529.1 51.7 Q529.6 52.05 529.75 52.5 L529.85 53.85 Q529.75 54.75 529.25 55.05 L528.1 55.25 Q527.55 55.2 527.2 54.8 526.85 54.4 526.8 53.4 526.85 52.35 527.65 51.85 L529.1 51.7" fill="#7d7d7d" fill-rule="evenodd" stroke="none"/>
    <path d="M523.7 63.0 Q524.25 63.15 524.55 63.5 L525.0 64.6 Q525.15 65.4 524.8 65.8 L523.9 66.3 523.0 66.15 Q522.6 65.95 522.25 65.1 522.0 64.15 522.55 63.5 523.1 62.85 523.7 63.0" fill="#3b3b3b" fill-rule="evenodd" stroke="none"/>
    <path d="M523.35 62.65 Q523.9 62.8 524.2 63.15 L524.65 64.25 Q524.8 65.05 524.45 65.45 524.1 65.85 523.55 65.95 L522.65 65.8 Q522.25 65.6 521.9 64.75 521.65 63.8 522.2 63.15 522.75 62.5 523.35 62.65" fill="#7d7d7d" fill-rule="evenodd" stroke="none"/>
    <path d="M514.85 64.15 Q515.4 64.3 515.7 64.65 L516.15 65.75 Q516.3 66.55 515.95 66.95 515.6 67.35 515.05 67.45 L514.15 67.3 513.4 66.25 Q513.15 65.3 513.7 64.65 514.25 64.0 514.85 64.15" fill="#3b3b3b" fill-rule="evenodd" stroke="none"/>
    <path d="M514.5 63.8 L515.35 64.3 515.8 65.4 Q515.95 66.2 515.6 66.6 515.25 67.0 514.7 67.1 L513.8 66.95 513.05 65.9 Q512.8 64.95 513.35 64.3 513.9 63.65 514.5 63.8" fill="#7d7d7d" fill-rule="evenodd" stroke="none"/>
    <path d="M522.2 66.55 Q522.2 67.6 521.65 68.5 L519.8 70.55 Q518.4 71.7 517.4 71.6 516.45 71.5 516.0 70.65 515.55 69.9 515.8 69.0 516.0 68.05 517.45 66.5 518.45 65.5 519.55 65.25 L521.4 65.45 Q522.15 65.8 522.2 66.55" fill="#3b3b3b" fill-rule="evenodd" stroke="none"/>
    <path d="M521.95 66.2 Q521.95 67.25 521.4 68.15 L519.55 70.2 Q518.15 71.35 517.15 71.25 516.2 71.15 515.75 70.3 515.3 69.55 515.55 68.65 515.75 67.7 517.2 66.15 518.2 65.15 519.3 64.9 L521.15 65.1 Q521.9 65.45 521.95 66.2" fill="#7d7d7d" fill-rule="evenodd" stroke="none"/>
    <path d="M534.75 59.35 L535.0 60.05 534.8 60.9 534.15 61.55 533.35 61.45 532.85 60.95 Q532.7 60.65 532.9 60.0 533.15 59.3 533.8 59.15 534.45 59.0 534.75 59.35" fill="#3b3b3b" fill-rule="evenodd" stroke="none"/>
    <path d="M534.7 59.0 L534.95 59.7 534.75 60.55 534.1 61.2 533.3 61.1 532.8 60.6 Q532.65 60.3 532.85 59.65 533.1 58.95 533.75 58.8 534.4 58.65 534.7 59.0" fill="#7d7d7d" fill-rule="evenodd" stroke="none"/>
    <path d="M514.9 68.55 L515.15 69.25 514.95 70.1 514.3 70.75 513.5 70.65 513.0 70.15 Q512.85 69.85 513.05 69.2 513.3 68.5 513.95 68.35 514.6 68.2 514.9 68.55" fill="#3b3b3b" fill-rule="evenodd" stroke="none"/>
    <path d="M514.85 68.15 L515.1 68.85 514.9 69.7 514.25 70.35 513.45 70.25 512.95 69.75 Q512.8 69.45 513.0 68.8 513.25 68.1 513.9 67.95 514.55 67.8 514.85 68.15" fill="#7d7d7d" fill-rule="evenodd" stroke="none"/>
    <path d="M537.9 52.85 L538.15 53.55 537.95 54.4 537.3 55.05 536.5 54.95 536.0 54.45 Q535.85 54.15 536.05 53.5 536.3 52.8 536.95 52.65 537.6 52.5 537.9 52.85" fill="#3b3b3b" fill-rule="evenodd" stroke="none"/>
    <path d="M537.85 52.5 L538.1 53.2 537.9 54.05 537.25 54.7 536.45 54.6 535.95 54.1 Q535.8 53.8 536.0 53.15 536.25 52.45 536.9 52.3 537.55 52.15 537.85 52.5" fill="#7d7d7d" fill-rule="evenodd" stroke="none"/>
    <path d="M539.15 54.3 L540.0 54.4 Q540.8 54.5 541.2 54.95 L541.5 55.7 541.3 56.35 540.6 56.7 539.65 56.6 Q538.85 56.15 538.75 55.6 538.7 55.1 538.9 54.7 L539.15 54.3" fill="#3b3b3b" fill-rule="evenodd" stroke="none"/>
    <path d="M539.15 53.9 L540.0 54.0 Q540.8 54.1 541.2 54.55 L541.5 55.3 541.3 55.95 540.6 56.3 539.65 56.2 Q538.85 55.75 538.75 55.2 538.7 54.7 538.9 54.3 L539.15 53.9" fill="#7d7d7d" fill-rule="evenodd" stroke="none"/>
    <path d="M576.55 56.15 L576.2 57.3 Q575.9 57.8 574.95 57.95 L573.3 57.75 Q571.85 56.95 571.7 56.0 571.55 55.0 571.95 54.35 L572.4 53.6 573.15 53.65 574.8 54.0 576.1 54.75 Q576.65 55.5 576.55 56.15" fill="#3b3b3b" fill-rule="evenodd" stroke="none"/>
    <path d="M576.55 55.85 L576.2 57.0 Q575.9 57.5 574.95 57.65 L573.3 57.45 Q571.85 56.65 571.7 55.7 571.55 54.7 571.95 54.05 L572.4 53.3 573.15 53.35 574.8 53.7 Q575.65 53.95 576.1 54.4 576.65 55.2 576.55 55.85" fill="#7d7d7d" fill-rule="evenodd" stroke="none"/>
    <path d="M537.6 47.55 L538.45 48.05 538.9 49.15 Q539.05 49.95 538.7 50.35 L537.8 50.85 536.9 50.7 536.15 49.65 Q535.9 48.7 536.45 48.05 537.0 47.4 537.6 47.55" fill="#3b3b3b" fill-rule="evenodd" stroke="none"/>
    <path d="M537.25 47.15 L538.1 47.65 538.55 48.75 Q538.7 49.55 538.35 49.95 538.0 50.35 537.45 50.45 L536.55 50.3 535.8 49.25 Q535.55 48.3 536.1 47.65 536.65 47.0 537.25 47.15" fill="#7d7d7d" fill-rule="evenodd" stroke="none"/>
    <path d="M541.5 46.65 L542.35 47.15 542.8 48.25 Q542.95 49.05 542.6 49.45 542.25 49.85 541.7 49.95 L540.8 49.8 540.05 48.75 Q539.8 47.8 540.35 47.15 540.9 46.5 541.5 46.65" fill="#3b3b3b" fill-rule="evenodd" stroke="none"/>
    <path d="M541.15 46.3 L542.0 46.8 542.45 47.9 Q542.6 48.7 542.25 49.1 541.9 49.5 541.35 49.6 L540.45 49.45 Q540.05 49.25 539.7 48.4 539.45 47.45 540.0 46.8 540.55 46.15 541.15 46.3" fill="#7d7d7d" fill-rule="evenodd" stroke="none"/>
    <path d="M551.4 46.3 L552.65 46.25 553.55 46.95 553.75 48.15 Q553.6 48.95 552.9 49.3 L551.4 49.6 550.15 49.3 Q549.7 49.0 549.6 48.1 549.6 47.45 550.15 47.0 550.7 46.55 551.4 46.3" fill="#3b3b3b" fill-rule="evenodd" stroke="none"/>
    <path d="M551.05 45.9 L552.3 45.85 553.2 46.55 553.4 47.75 Q553.25 48.55 552.55 48.9 L551.05 49.2 549.8 48.9 Q549.35 48.6 549.25 47.7 549.2 47.05 549.75 46.6 L551.05 45.9" fill="#7d7d7d" fill-rule="evenodd" stroke="none"/>
  </g>
</svg>
