<?xml version="1.0" encoding="UTF-8" standalone="no"?>
<svg xmlns:xlink="http://www.w3.org/1999/xlink" height="196.9px" width="159.5px" xmlns="http://www.w3.org/2000/svg">
  <g transform="matrix(1.0, 0.0, 0.0, 1.0, 79.25, 142.8)">
    <path d="M-50.85 -88.65 Q-52.85 -88.9 -41.35 -114.65 L-29.75 -129.8 -14.5 -139.9 0.65 -142.8 16.0 -139.9 31.25 -129.8 42.9 -114.65 Q54.4 -88.95 52.4 -88.65 L51.25 -88.4 50.15 -87.05 41.0 -70.9 36.25 -64.15 Q28.4 -53.85 23.0 -51.3 21.4 -49.8 18.25 -48.8 L14.0 -45.05 12.9 -45.05 14.25 -48.4 14.25 -51.3 13.4 -54.05 11.5 -55.55 Q8.7 -55.9 7.65 -51.3 L7.5 -49.05 8.75 -45.3 -7.25 -45.3 -6.1 -47.9 -6.1 -51.3 -6.85 -53.8 -7.6 -54.8 -8.85 -55.55 Q-11.7 -55.9 -12.75 -51.3 L-12.6 -47.8 -11.25 -45.05 -12.35 -45.05 -16.75 -48.8 Q-19.85 -49.8 -21.5 -51.3 L-27.35 -55.65 Q-35.45 -63.95 -34.75 -64.15 L-38.85 -69.9 -48.0 -86.05 Q-50.05 -89.5 -50.85 -88.65 M53.15 -84.3 L55.75 -72.55 57.0 -48.05 55.4 -29.05 Q56.55 -29.55 49.0 0.45 L45.0 8.7 Q44.8 7.75 40.9 5.6 L32.25 1.7 37.65 0.2 Q53.05 -6.5 50.25 -10.4 25.45 -7.3 19.9 -11.15 L23.4 -11.4 28.4 -12.65 Q42.55 -17.75 48.0 -25.55 53.4 -31.65 52.25 -34.3 L50.15 -33.9 39.0 -27.9 32.0 -25.55 27.65 -24.55 29.15 -25.55 Q32.45 -27.4 36.5 -31.3 L42.65 -38.4 48.15 -46.8 50.4 -51.3 Q52.05 -54.25 54.0 -60.9 L54.15 -64.15 53.9 -64.65 52.5 -64.15 43.15 -53.4 43.0 -53.4 46.9 -61.55 50.15 -70.65 53.15 -84.3 M43.4 12.35 L42.4 14.7 Q36.4 14.6 28.4 25.95 24.2 29.5 18.25 36.85 L14.0 39.6 12.65 41.2 Q5.05 44.95 -11.25 41.2 L-12.6 39.45 -16.35 37.2 Q-22.45 29.55 -26.75 25.95 -34.7 14.55 -40.85 14.7 L-41.85 12.35 -40.0 13.1 Q-37.1 15.35 -25.25 13.1 -12.6 9.5 -4.0 0.2 L-0.1 -3.65 1.5 -3.8 1.65 -3.65 5.5 0.2 Q14.15 9.5 26.75 13.1 L33.15 14.2 Q39.95 14.25 41.5 13.1 L43.4 12.35 M-43.5 8.85 L-47.5 0.45 -53.6 -26.15 -55.5 -49.3 Q-54.95 -77.35 -51.6 -84.65 L-48.75 -71.05 -44.5 -59.55 -41.5 -53.4 -42.5 -54.15 Q-50.5 -64.45 -51.0 -64.15 L-51.85 -64.65 -52.35 -64.65 -52.6 -64.15 Q-53.2 -63.2 -52.0 -59.15 L-48.85 -51.3 -44.0 -42.4 -41.1 -38.4 -35.0 -31.3 Q-30.95 -27.45 -27.6 -25.55 L-26.1 -24.55 -36.6 -27.55 Q-49.45 -34.7 -50.0 -34.3 -53.75 -35.2 -46.5 -25.55 -36.55 -14.75 -26.85 -12.65 L-21.85 -11.4 -18.35 -11.15 Q-24.05 -7.3 -48.5 -10.4 -51.0 -9.5 -46.5 -5.3 L-40.85 -1.65 -36.1 0.2 -30.75 1.7 -41.0 6.45 -43.5 8.85" fill="#b19771" fill-rule="evenodd" stroke="none"/>
    <path d="M-11.25 -45.05 L-12.6 -47.8 -12.75 -51.3 Q-11.7 -55.9 -8.85 -55.55 L-7.6 -54.8 -6.85 -53.8 -6.1 -51.3 -6.1 -47.9 -7.25 -45.3 -11.25 -45.05 M8.75 -45.3 L7.5 -49.05 7.65 -51.3 Q8.7 -55.9 11.5 -55.55 L13.4 -54.05 14.25 -51.3 14.25 -48.4 12.9 -45.05 8.75 -45.3" fill="#000000" fill-rule="evenodd" stroke="none"/>
    <path d="M-50.85 -88.65 Q-50.05 -89.5 -48.0 -86.05 L-38.85 -69.9 -34.75 -64.15 Q-35.45 -63.95 -27.35 -55.65 L-21.5 -51.3 Q-19.85 -49.8 -16.75 -48.8 L-12.35 -45.05 Q-20.85 -45.6 -19.35 -38.4 L-17.85 -33.3 -12.35 -21.55 -7.75 -12.9 -7.5 -12.65 -3.6 -6.55 Q-0.85 -3.5 -0.1 -3.65 L-4.0 0.2 Q-12.6 9.5 -25.25 13.1 -37.1 15.35 -40.0 13.1 L-41.85 12.35 -43.25 10.95 -43.6 10.1 -43.5 8.85 -41.0 6.45 -30.75 1.7 -36.1 0.2 -40.85 -1.65 -46.5 -5.3 Q-51.0 -9.5 -48.5 -10.4 -24.05 -7.3 -18.35 -11.15 L-21.85 -11.4 -26.85 -12.65 Q-36.55 -14.75 -46.5 -25.55 -53.75 -35.2 -50.0 -34.3 -49.45 -34.7 -36.6 -27.55 L-26.1 -24.55 -27.6 -25.55 Q-30.95 -27.45 -35.0 -31.3 L-41.1 -38.4 -44.0 -42.4 -48.85 -51.3 -52.0 -59.15 Q-53.2 -63.2 -52.6 -64.15 L-52.35 -64.65 -51.85 -64.65 -51.0 -64.15 Q-50.5 -64.45 -42.5 -54.15 L-41.5 -53.4 -44.5 -59.55 -48.75 -71.05 -51.6 -84.65 -51.5 -87.4 -50.85 -88.65 M14.0 -45.05 L18.25 -48.8 Q21.4 -49.8 23.0 -51.3 28.4 -53.85 36.25 -64.15 L41.0 -70.9 50.15 -87.05 51.25 -88.4 52.4 -88.65 53.0 -87.4 53.15 -84.3 50.15 -70.65 46.9 -61.55 43.0 -53.4 43.15 -53.4 52.5 -64.15 53.9 -64.65 54.15 -64.15 54.0 -60.9 Q52.05 -54.25 50.4 -51.3 L48.15 -46.8 42.65 -38.4 36.5 -31.3 Q32.45 -27.4 29.15 -25.55 L27.65 -24.55 32.0 -25.55 39.0 -27.9 50.15 -33.9 52.25 -34.3 Q53.4 -31.65 48.0 -25.55 42.55 -17.75 28.4 -12.65 L23.4 -11.4 19.9 -11.15 Q25.45 -7.3 50.25 -10.4 53.05 -6.5 37.65 0.2 L32.25 1.7 40.9 5.6 Q44.8 7.75 45.0 8.7 L45.15 10.2 44.5 11.45 43.4 12.35 41.5 13.1 Q39.95 14.25 33.15 14.2 L26.75 13.1 Q14.15 9.5 5.5 0.2 L1.65 -3.65 Q2.35 -3.35 5.15 -6.55 L9.65 -13.65 13.9 -21.55 19.4 -33.3 20.5 -36.4 20.75 -38.4 Q22.4 -45.6 14.0 -45.05" fill="#5f3f2a" fill-rule="evenodd" stroke="none"/>
    <path d="M-12.35 -45.05 L-11.25 -45.05 -7.25 -45.3 8.75 -45.3 12.9 -45.05 14.0 -45.05 Q22.4 -45.6 20.75 -38.4 L20.5 -36.4 19.4 -33.3 13.9 -21.55 9.65 -13.65 5.15 -6.55 Q2.35 -3.35 1.65 -3.65 L1.5 -3.8 -0.1 -3.65 Q-0.85 -3.5 -3.6 -6.55 L-7.5 -12.65 -7.75 -12.9 -12.35 -21.55 -17.85 -33.3 -19.35 -38.4 Q-20.85 -45.6 -12.35 -45.05" fill="#ff488c" fill-rule="evenodd" stroke="none"/>
    <path d="M42.4 14.7 Q56.55 13.1 66.5 19.45 79.65 28.0 80.25 43.35 65.5 53.6 25.75 53.85 10.05 55.9 12.65 41.2 L14.0 39.6 18.25 36.85 Q24.2 29.5 28.4 25.95 36.4 14.6 42.4 14.7 M-11.25 41.2 Q-8.2 52.25 -18.35 53.6 -60.75 54.45 -77.6 44.35 L-78.6 43.45 -79.25 42.2 -79.1 39.95 -76.85 33.45 -73.25 27.1 -66.5 20.7 Q-55.3 12.7 -40.85 14.7 -34.7 14.55 -26.75 25.95 -22.45 29.55 -16.35 37.2 L-12.6 39.45 -11.25 41.2" fill="#573f70" fill-rule="evenodd" stroke="none"/>
  </g>
</svg>
