<?xml version="1.0" encoding="UTF-8" standalone="no"?>
<svg xmlns:xlink="http://www.w3.org/1999/xlink" height="95.35px" width="96.15px" xmlns="http://www.w3.org/2000/svg">
  <g transform="matrix(1.0, 0.0, 0.0, 1.0, -208.65, -4.95)">
    <path d="M250.85 65.7 L235.0 91.8 235.55 92.3 279.2 89.75 266.15 65.7 250.85 65.7 M280.45 8.2 L280.45 90.5 233.75 92.8 233.75 8.95 280.45 8.2" fill="#000000" fill-rule="evenodd" stroke="none"/>
    <path d="M250.85 65.7 L266.15 65.7 279.2 89.75 235.55 92.3 235.0 91.8 250.85 65.7" fill="#000000" fill-opacity="0.3529412" fill-rule="evenodd" stroke="none"/>
    <path d="M228.0 5.4 L233.75 8.95 233.75 92.8 229.75 91.25 228.0 5.4" fill="#7d7d7d" fill-rule="evenodd" stroke="none"/>
    <path d="M285.2 4.95 L280.45 8.2 233.75 8.95 228.0 5.4 285.2 4.95" fill="#7d7d7d" fill-rule="evenodd" stroke="none"/>
    <path d="M285.2 4.95 L283.95 89.8 282.7 88.25 281.9 91.25 280.45 90.5 280.45 8.2 285.2 4.95" fill="#5c5c5c" fill-rule="evenodd" stroke="none"/>
    <path d="M279.65 90.5 L279.95 90.75 265.4 91.3 279.65 90.5" fill="#a9a9a9" fill-rule="evenodd" stroke="none"/>
    <path d="M227.25 72.95 L228.95 74.95 210.9 75.7 209.15 72.95 227.25 72.95" fill="#b2b2b2" fill-rule="evenodd" stroke="none"/>
    <path d="M208.65 72.7 L211.15 75.2 211.15 100.3 208.65 97.8 208.65 72.7" fill="#5c5c5c" fill-rule="evenodd" stroke="none"/>
    <path d="M210.9 74.95 L228.95 74.95 228.95 100.05 210.9 100.05 210.9 74.95" fill="#7d7d7d" fill-rule="evenodd" stroke="none"/>
    <path d="M224.45 55.15 L225.7 56.65 213.15 57.15 211.95 55.15 224.45 55.15" fill="#b2b2b2" fill-rule="evenodd" stroke="none"/>
    <path d="M213.4 56.9 L213.4 74.2 211.65 72.45 211.65 55.15 213.4 56.9" fill="#5c5c5c" fill-rule="evenodd" stroke="none"/>
    <path d="M225.7 56.65 L225.7 73.95 213.15 73.95 213.15 56.65 225.7 56.65" fill="#7d7d7d" fill-rule="evenodd" stroke="none"/>
    <path d="M215.65 46.1 L222.2 46.1 222.7 47.1 216.2 47.35 215.65 46.1" fill="#b2b2b2" fill-rule="evenodd" stroke="none"/>
    <path d="M216.45 47.1 L216.45 56.1 215.4 55.15 215.4 46.1 216.45 47.1" fill="#5c5c5c" fill-rule="evenodd" stroke="none"/>
    <path d="M222.7 46.85 L222.7 56.1 216.2 56.1 216.2 46.85 222.7 46.85" fill="#7d7d7d" fill-rule="evenodd" stroke="none"/>
    <path d="M302.8 70.2 L304.8 72.45 286.75 72.95 284.7 70.2 302.8 70.2" fill="#7d7d7d" fill-rule="evenodd" stroke="none"/>
    <path d="M284.2 69.95 L286.75 72.45 286.75 97.55 284.2 95.05 284.2 69.95" fill="#505050" fill-rule="evenodd" stroke="none"/>
    <path d="M286.45 72.2 L304.55 72.2 304.55 97.3 286.45 97.3 286.45 72.2" fill="#6e6e6e" fill-rule="evenodd" stroke="none"/>
    <path d="M300.05 52.65 L301.5 54.1 289.0 54.35 287.45 52.65 300.05 52.65" fill="#7d7d7d" fill-rule="evenodd" stroke="none"/>
    <path d="M289.0 54.1 L289.0 71.45 287.2 69.65 287.2 52.4 289.0 54.1" fill="#505050" fill-rule="evenodd" stroke="none"/>
    <path d="M301.25 53.85 L301.25 71.45 289.0 71.45 289.0 53.85 301.25 53.85" fill="#6e6e6e" fill-rule="evenodd" stroke="none"/>
    <path d="M297.75 43.6 L298.5 44.35 292.0 44.6 291.25 43.6 297.75 43.6" fill="#7d7d7d" fill-rule="evenodd" stroke="none"/>
    <path d="M291.0 43.6 L292.0 44.35 292.0 53.35 291.0 52.65 291.0 43.6" fill="#505050" fill-rule="evenodd" stroke="none"/>
    <path d="M292.0 44.35 L298.5 44.35 298.5 53.35 292.0 53.35 292.0 44.35" fill="#6e6e6e" fill-rule="evenodd" stroke="none"/>
  </g>
</svg>
