<?xml version="1.0" encoding="UTF-8" standalone="no"?>
<svg xmlns:xlink="http://www.w3.org/1999/xlink" height="480.5px" width="715.0px" xmlns="http://www.w3.org/2000/svg">
  <g transform="matrix(1.0, 0.0, 0.0, 1.0, 45.95, 46.0)">
    <path d="M506.95 72.1 Q482.4 56.75 447.1 72.1 411.8 87.45 409.2 93.05 406.55 98.65 402.2 101.6 397.85 104.55 387.25 126.0 376.65 147.45 427.55 161.45 478.45 175.45 487.8 169.1 497.15 162.75 493.2 148.95 L669.05 148.95 669.05 434.5 573.9 434.5 573.9 367.95 351.9 367.95 351.9 434.5 293.9 434.5 293.9 355.95 57.95 355.95 58.95 433.5 -45.95 434.5 -45.95 299.9 17.95 299.9 17.95 226.25 18.6 226.6 Q23.3 228.95 29.95 228.95 36.6 228.95 41.25 226.6 45.95 224.25 45.95 220.95 45.95 217.65 41.25 215.3 36.6 212.95 29.95 212.95 23.3 212.95 18.6 215.3 L17.95 215.65 17.95 86.95 16.95 86.95 16.95 82.85 38.95 83.95 88.95 66.9 Q103.95 121.05 248.9 83.95 L268.9 48.95 360.95 70.25 360.95 70.6 360.05 70.85 Q357.7 72.3 357.7 74.2 357.7 76.1 360.05 77.55 362.35 78.95 365.7 78.95 369.05 78.95 371.35 77.55 373.7 76.1 373.7 74.2 L373.7 74.15 375.05 74.15 375.05 73.5 389.9 76.95 511.9 -43.0 669.05 -46.0 669.05 89.95 514.75 89.95 Q521.7 81.25 506.95 72.1 M312.35 237.85 Q289.75 227.0 264.95 226.0 240.1 225.0 221.2 234.05 202.25 243.05 183.9 253.95 165.55 264.85 202.85 267.9 240.1 270.95 264.9 270.95 289.75 270.95 312.35 268.1 334.9 265.25 334.9 256.95 334.9 248.65 312.35 237.85 M75.5 148.55 Q69.95 151.2 69.95 154.95 69.95 158.7 75.5 161.3 81.1 163.95 88.95 163.95 96.8 163.95 102.35 161.3 107.95 158.7 107.95 154.95 107.95 151.2 102.35 148.55 96.8 145.95 88.95 145.95 81.1 145.95 75.5 148.55 M57.95 147.85 Q53.0 144.95 45.95 144.95 38.9 144.95 33.9 147.85 28.95 150.8 28.95 154.95 28.95 159.1 33.9 162.0 38.9 164.95 45.95 164.95 53.0 164.95 57.95 162.0 62.95 159.1 62.95 154.95 62.95 150.8 57.95 147.85 M575.9 267.95 Q575.9 264.2 570.3 261.55 564.75 258.95 556.9 258.95 549.05 258.95 543.45 261.55 537.9 264.2 537.9 267.95 537.9 271.7 543.45 274.3 549.05 276.95 556.9 276.95 564.75 276.95 570.3 274.3 575.9 271.7 575.9 267.95" fill="#000000" fill-opacity="0.2" fill-rule="evenodd" stroke="none"/>
  </g>
</svg>
