<?xml version="1.0" encoding="UTF-8" standalone="no"?>
<svg xmlns:xlink="http://www.w3.org/1999/xlink" height="480.5px" width="717.1px" xmlns="http://www.w3.org/2000/svg">
  <g transform="matrix(1.0, 0.0, 0.0, 1.0, 48.05, 46.0)">
    <path d="M669.05 -46.0 L669.05 89.95 514.75 89.95 Q521.7 81.25 506.95 72.1 482.4 56.75 447.1 72.1 411.8 87.45 409.2 93.05 406.55 98.65 402.2 101.6 397.85 104.55 387.25 126.0 376.65 147.45 427.55 161.45 478.45 175.45 487.8 169.1 497.15 162.75 493.2 148.95 L669.05 148.95 669.05 434.5 573.9 434.5 573.9 367.95 351.9 367.95 351.9 434.5 293.9 434.5 293.9 355.95 57.95 355.95 58.95 433.5 -45.95 434.5 -45.95 92.95 -48.05 79.6 38.95 83.95 88.95 66.9 Q103.95 121.05 248.9 83.95 L268.9 48.95 389.9 76.95 511.9 -43.0 669.05 -46.0 M333.35 94.85 Q331.0 93.45 327.7 93.45 324.4 93.45 322.05 94.85 319.7 96.25 319.7 98.2 319.7 100.15 322.05 101.55 324.4 102.95 327.7 102.95 331.0 102.95 333.35 101.55 335.7 100.15 335.7 98.2 335.7 96.25 333.35 94.85 M41.25 226.6 Q45.95 224.25 45.95 220.95 45.95 217.65 41.25 215.3 36.6 212.95 29.95 212.95 23.3 212.95 18.6 215.3 13.95 217.65 13.95 220.95 13.95 224.25 18.6 226.6 23.3 228.95 29.95 228.95 36.6 228.95 41.25 226.6 M69.95 154.95 Q69.95 158.7 75.5 161.3 81.1 163.95 88.95 163.95 96.8 163.95 102.35 161.3 107.95 158.7 107.95 154.95 107.95 151.2 102.35 148.55 96.8 145.95 88.95 145.95 81.1 145.95 75.5 148.55 69.95 151.2 69.95 154.95 M57.95 147.85 Q53.0 144.95 45.95 144.95 38.9 144.95 33.9 147.85 28.95 150.8 28.95 154.95 28.95 159.1 33.9 162.0 38.9 164.95 45.95 164.95 53.0 164.95 57.95 162.0 62.95 159.1 62.95 154.95 62.95 150.8 57.95 147.85 M570.3 274.3 Q575.9 271.7 575.9 267.95 575.9 264.2 570.3 261.55 564.75 258.95 556.9 258.95 549.05 258.95 543.45 261.55 537.9 264.2 537.9 267.95 537.9 271.7 543.45 274.3 549.05 276.95 556.9 276.95 564.75 276.95 570.3 274.3 M280.95 236.45 L296.4 262.35 Q298.55 261.25 308.95 260.6 329.9 259.25 329.9 250.95 329.9 242.65 312.35 234.7 294.75 226.7 269.9 226.45 245.05 226.2 227.5 234.45 209.9 242.65 209.9 250.95 209.9 259.25 224.85 261.6 235.1 263.2 246.7 263.25 L259.95 239.45 280.95 236.45" fill="#000000" fill-opacity="0.2" fill-rule="evenodd" stroke="none"/>
    <path d="M333.35 94.85 Q335.7 96.25 335.7 98.2 335.7 100.15 333.35 101.55 331.0 102.95 327.7 102.95 324.4 102.95 322.05 101.55 319.7 100.15 319.7 98.2 319.7 96.25 322.05 94.85 324.4 93.45 327.7 93.45 331.0 93.45 333.35 94.85" fill="#000000" fill-rule="evenodd" stroke="none"/>
    <path d="M333.35 94.85 Q335.7 96.25 335.7 98.2 335.7 100.15 333.35 101.55 331.0 102.95 327.7 102.95 324.4 102.95 322.05 101.55 319.7 100.15 319.7 98.2 319.7 96.25 322.05 94.85 324.4 93.45 327.7 93.45 331.0 93.45 333.35 94.85 Z" fill="none" stroke="#000000" stroke-linecap="round" stroke-linejoin="round" stroke-width="1.0"/>
  </g>
</svg>
