<?xml version="1.0" encoding="UTF-8" standalone="no"?>
<svg xmlns:xlink="http://www.w3.org/1999/xlink" height="191.95px" width="161.1px" xmlns="http://www.w3.org/2000/svg">
  <g transform="matrix(1.0, 0.0, 0.0, 1.0, 79.75, 128.4)">
    <path d="M-50.1 4.7 L-53.6 -9.15 -56.35 -37.65 -55.1 -60.05 -50.35 -81.65 -41.75 -101.3 -28.85 -117.4 Q-9.95 -129.4 -10.75 -127.4 -3.3 -128.75 4.9 -128.3 L13.65 -127.05 16.15 -126.05 28.75 -118.4 30.5 -117.15 43.5 -100.9 Q53.45 -83.35 56.65 -60.05 L57.9 -36.8 Q55.25 -1.3 51.65 4.7 L48.5 4.85 Q39.45 7.4 34.65 7.7 L26.25 7.7 20.15 6.45 Q26.05 7.1 37.75 0.2 41.55 -1.8 46.65 -7.3 L50.65 -12.65 Q59.0 -24.95 41.9 -12.65 L36.5 -9.65 Q31.0 -7.3 28.0 -6.9 L32.65 -10.3 35.0 -12.65 Q35.15 -12.05 40.75 -18.9 L45.15 -25.55 49.75 -34.65 51.15 -38.4 Q57.85 -58.2 44.15 -38.4 L42.25 -35.9 42.15 -35.9 46.15 -45.65 49.5 -58.9 50.15 -64.15 Q51.3 -77.45 44.75 -64.15 L38.4 -51.3 34.5 -44.8 29.4 -38.4 26.25 -35.15 Q16.4 -29.25 13.5 -25.55 L13.4 -25.3 12.9 -25.3 13.0 -25.55 Q16.65 -32.25 11.75 -35.65 5.55 -34.75 9.15 -25.55 L9.15 -25.4 -7.5 -25.4 -7.5 -25.55 Q-4.0 -31.5 -9.0 -35.65 -15.3 -34.5 -11.35 -25.55 L-11.25 -25.3 -11.75 -25.3 -11.85 -25.55 -15.0 -27.9 -15.85 -29.15 -22.0 -32.9 -27.85 -38.4 -32.25 -43.65 -36.85 -51.3 -43.25 -64.15 Q-48.3 -77.45 -48.6 -64.15 L-48.1 -59.55 -46.25 -51.3 -43.85 -43.4 -40.6 -35.9 -42.75 -38.4 Q-55.05 -58.2 -49.6 -38.4 L-46.0 -29.8 -38.85 -18.4 -31.1 -10.3 -26.5 -6.9 -33.5 -9.05 -40.35 -12.65 Q-56.25 -24.95 -49.1 -12.65 L-45.1 -7.3 Q-40.05 -1.8 -36.25 0.2 -25.3 6.8 -18.6 6.45 -26.85 10.05 -50.1 4.7 M50.4 8.7 L49.65 12.35 44.5 22.2 33.15 18.1 Q37.9 17.1 40.65 15.6 L47.75 11.2 50.4 8.7 M12.75 50.95 Q1.75 55.7 -11.25 50.95 L-11.35 50.95 -11.35 50.85 -15.0 49.35 -18.5 45.2 -25.1 38.85 -32.6 30.2 Q-28.35 30.25 -22.1 28.6 L-15.85 25.95 Q-11.45 24.0 -6.25 19.85 L-0.35 14.45 1.0 14.7 1.9 14.45 Q4.7 17.7 11.25 22.45 L17.4 25.95 Q17.3 26.5 26.5 29.35 L34.25 30.2 26.75 38.85 Q15.3 49.6 16.65 49.35 L12.75 50.95 M-43.0 22.2 L-48.1 12.35 -49.0 8.7 -44.6 12.45 -38.6 15.85 -31.6 18.2 -43.0 22.2" fill="#b19771" fill-rule="evenodd" stroke="none"/>
    <path d="M51.65 4.7 L52.15 5.1 52.0 6.45 50.4 8.7 47.75 11.2 40.65 15.6 Q37.9 17.1 33.15 18.1 L44.5 22.2 46.5 23.85 46.75 24.85 46.4 25.95 Q45.45 29.35 34.25 30.2 L26.5 29.35 Q17.3 26.5 17.4 25.95 L11.25 22.45 Q4.7 17.7 1.9 14.45 L3.0 13.95 3.75 13.1 5.15 11.95 9.5 5.45 14.25 -3.05 20.0 -14.8 Q25.3 -26.3 13.4 -25.3 L13.5 -25.55 Q16.4 -29.25 26.25 -35.15 L29.4 -38.4 34.5 -44.8 38.4 -51.3 44.75 -64.15 Q51.3 -77.45 50.15 -64.15 L49.5 -58.9 46.15 -45.65 42.15 -35.9 42.25 -35.9 44.15 -38.4 Q57.85 -58.2 51.15 -38.4 L49.75 -34.65 45.15 -25.55 40.75 -18.9 Q35.15 -12.05 35.0 -12.65 L32.65 -10.3 28.0 -6.9 Q31.0 -7.3 36.5 -9.65 L41.9 -12.65 Q59.0 -24.95 50.65 -12.65 L46.65 -7.3 Q41.55 -1.8 37.75 0.2 26.05 7.1 20.15 6.45 L26.25 7.7 34.65 7.7 Q39.45 7.4 48.5 4.85 L51.65 4.7 M-45.0 23.85 L-43.0 22.2 -31.6 18.2 -38.6 15.85 -44.6 12.45 -49.0 8.7 -50.5 6.35 -50.6 5.1 -50.1 4.7 Q-26.85 10.05 -18.6 6.45 -25.3 6.8 -36.25 0.2 -40.05 -1.8 -45.1 -7.3 L-49.1 -12.65 Q-56.25 -24.95 -40.35 -12.65 L-33.5 -9.05 -26.5 -6.9 -31.1 -10.3 -38.85 -18.4 -46.0 -29.8 -49.6 -38.4 Q-55.05 -58.2 -42.75 -38.4 L-40.6 -35.9 -43.85 -43.4 -46.25 -51.3 -48.1 -59.55 -48.6 -64.15 Q-48.3 -77.45 -43.25 -64.15 L-36.85 -51.3 -32.25 -43.65 -27.85 -38.4 -22.0 -32.9 -15.85 -29.15 -15.0 -27.9 -11.85 -25.55 -11.75 -25.3 -16.85 -24.8 -19.1 -23.65 -20.0 -22.05 -20.0 -19.8 -18.5 -14.8 -12.85 -3.05 -8.0 5.45 -8.0 5.6 -7.85 5.6 -4.25 11.1 -1.5 13.95 -0.35 14.45 -6.25 19.85 Q-11.45 24.0 -15.85 25.95 L-22.1 28.6 Q-28.35 30.25 -32.6 30.2 -44.0 29.3 -44.85 25.95 L-45.25 25.2 -45.0 23.85" fill="#5f3f2a" fill-rule="evenodd" stroke="none"/>
    <path d="M-11.75 -25.3 L-11.25 -25.3 -7.5 -25.4 9.15 -25.4 12.9 -25.3 13.4 -25.3 Q25.3 -26.3 20.0 -14.8 L14.25 -3.05 9.5 5.45 5.15 11.95 3.75 13.1 3.0 13.95 1.9 14.45 1.0 14.7 -0.35 14.45 -1.5 13.95 -4.25 11.1 -7.85 5.6 -8.0 5.6 -8.0 5.45 -12.85 -3.05 -18.5 -14.8 -20.0 -19.8 -20.0 -22.05 -19.1 -23.65 -16.85 -24.8 -11.75 -25.3" fill="#ff488c" fill-rule="evenodd" stroke="none"/>
    <path d="M-11.25 -25.3 L-11.35 -25.55 Q-15.3 -34.5 -9.0 -35.65 -4.0 -31.5 -7.5 -25.55 L-7.5 -25.4 -11.25 -25.3 M9.15 -25.4 L9.15 -25.55 Q5.55 -34.75 11.75 -35.65 16.65 -32.25 13.0 -25.55 L12.9 -25.3 9.15 -25.4" fill="#000000" fill-rule="evenodd" stroke="none"/>
    <path d="M46.5 23.85 Q59.15 21.95 72.75 32.6 75.25 34.7 76.75 37.35 L80.25 44.85 Q83.05 51.5 78.65 53.45 67.15 62.45 25.65 63.45 9.8 64.7 12.75 50.95 L16.65 49.35 Q15.3 49.6 26.75 38.85 L34.25 30.2 Q45.45 29.35 46.4 25.95 L46.75 24.85 46.5 23.85 M-11.35 50.95 Q-9.0 64.7 -22.6 63.45 -64.1 62.75 -76.6 53.85 L-79.1 51.6 -79.75 50.45 -79.6 48.1 -77.1 40.85 Q-73.75 34.4 -71.85 33.2 L-66.75 28.95 -63.1 26.85 -54.75 24.1 -45.0 23.85 -45.25 25.2 -44.85 25.95 Q-44.0 29.3 -32.6 30.2 L-25.1 38.85 -18.5 45.2 -15.0 49.35 -11.35 50.85 -11.35 50.95" fill="#573f70" fill-rule="evenodd" stroke="none"/>
  </g>
</svg>
