<?xml version="1.0" encoding="UTF-8" standalone="no"?>
<svg xmlns:xlink="http://www.w3.org/1999/xlink" height="480.5px" width="617.85px" xmlns="http://www.w3.org/2000/svg">
  <g transform="matrix(1.0, 0.0, 0.0, 1.0, 45.95, 46.0)">
    <path d="M114.25 325.0 Q118.95 322.1 118.95 317.95 118.95 313.8 114.25 310.85 109.6 307.95 102.95 307.95 96.3 307.95 91.6 310.85 86.95 313.8 86.95 317.95 86.95 322.1 91.6 325.0 96.3 327.95 102.95 327.95 109.6 327.95 114.25 325.0 M509.9 388.95 Q517.75 388.95 523.3 386.9 528.9 384.85 528.9 381.95 528.9 379.05 523.3 377.0 517.75 374.95 509.9 374.95 502.05 374.95 496.45 377.0 490.9 379.05 490.9 381.95 490.9 384.85 496.45 386.9 502.05 388.95 509.9 388.95 M433.9 283.95 Q433.9 287.7 440.6 290.3 447.35 292.95 456.9 292.95 466.45 292.95 473.15 290.3 479.9 287.7 479.9 283.95 479.9 280.2 473.15 277.55 466.45 274.95 456.9 274.95 447.35 274.95 440.6 277.55 433.9 280.2 433.9 283.95 M474.1 -46.0 Q470.75 -31.0 471.95 -15.0 473.0 -12.5 474.25 -10.15 469.0 5.95 473.95 28.0 L479.95 36.0 489.95 57.0 Q488.25 69.5 495.95 78.0 499.4 78.15 502.25 79.25 509.8 82.25 516.95 86.0 L518.95 91.0 518.85 93.0 518.25 97.95 362.9 90.7 361.9 143.95 362.4 143.95 366.9 152.95 366.95 152.95 366.95 165.45 379.95 165.45 379.95 152.95 405.55 152.95 Q401.6 153.95 398.35 156.05 391.9 160.15 391.9 165.95 391.9 171.75 398.35 175.85 404.8 179.95 413.9 179.95 423.0 179.95 429.45 175.85 435.9 171.75 435.9 165.95 435.9 160.15 429.45 156.05 426.2 153.95 422.25 152.95 L466.9 152.95 466.9 150.95 521.1 150.95 Q516.2 179.65 510.95 208.0 508.55 208.8 506.65 210.7 502.25 215.2 501.95 221.0 L504.95 227.0 Q506.35 228.65 508.9 228.65 519.5 229.65 527.95 235.0 L530.95 240.0 Q530.35 244.45 530.95 248.15 531.95 254.35 536.95 259.0 L542.95 262.0 553.0 261.7 569.95 261.0 571.9 262.5 571.9 434.5 -45.95 434.5 -45.95 151.95 135.85 150.05 Q126.3 150.45 120.55 152.35 115.95 153.85 108.05 158.6 91.95 168.25 91.95 181.95 91.95 195.6 108.05 205.25 124.2 214.95 146.95 214.95 169.7 214.95 185.85 205.25 201.95 195.6 201.95 181.95 201.95 168.25 185.85 158.6 173.6 151.25 144.1 150.05 L257.9 151.95 257.9 152.95 300.45 152.95 300.45 164.95 315.95 164.95 315.95 152.95 317.9 152.95 317.9 113.95 316.9 113.95 316.9 100.95 314.45 100.95 314.7 85.7 294.45 84.7 291.95 100.95 -45.95 100.95 -45.95 -46.0 474.1 -46.0" fill="#000000" fill-opacity="0.2" fill-rule="evenodd" stroke="none"/>
  </g>
</svg>
