<?xml version="1.0" encoding="UTF-8" standalone="no"?>
<svg xmlns:xlink="http://www.w3.org/1999/xlink" height="37.45px" width="11.55px" xmlns="http://www.w3.org/2000/svg">
  <g transform="matrix(1.0, 0.0, 0.0, 1.0, -315.8, -90.3)">
    <path d="M316.9 90.3 L324.35 95.45 320.7 99.15 323.15 100.05 327.3 100.75 Q325.1 103.6 323.3 104.8 321.45 105.95 320.0 106.45 L324.7 108.2 319.7 112.2 Q320.6 112.25 321.6 112.85 322.65 113.4 324.0 114.8 L327.35 118.85 Q325.35 118.45 323.45 119.45 321.55 120.45 320.05 122.0 L317.6 124.85 316.7 126.2 316.9 90.3" fill="#52330c" fill-rule="evenodd" stroke="none"/>
    <path d="M316.0 91.2 L323.45 96.35 319.8 100.1 322.25 100.95 326.4 101.65 Q324.2 104.5 322.35 105.7 L319.1 107.35 323.8 109.1 318.8 113.1 Q319.7 113.15 320.7 113.75 321.75 114.3 323.1 115.7 L326.45 119.75 Q324.45 119.35 322.55 120.45 320.65 121.55 319.15 123.25 L316.7 126.3 315.8 127.75 316.0 91.2" fill="#8ccf36" fill-rule="evenodd" stroke="none"/>
  </g>
</svg>
