<?xml version="1.0" encoding="UTF-8" standalone="no"?>
<svg xmlns:xlink="http://www.w3.org/1999/xlink" height="255.65px" width="609.0px" xmlns="http://www.w3.org/2000/svg">
  <g transform="matrix(1.0, 0.0, 0.0, 1.0, 5.6, 0.0)">
    <path d="M603.4 112.9 L-5.6 112.95 -5.6 111.15 603.4 111.15 603.4 112.9" fill="#7d7d7d" fill-rule="evenodd" stroke="none"/>
    <path d="M603.4 114.65 L-5.6 114.7 -5.6 112.9 603.4 112.9 603.4 114.65" fill="#000000" fill-rule="evenodd" stroke="none"/>
    <path d="M603.4 129.7 L-5.6 129.75 -5.6 127.95 603.4 127.95 603.4 129.7" fill="#7d7d7d" fill-rule="evenodd" stroke="none"/>
    <path d="M603.4 131.45 L-5.6 131.5 -5.6 129.7 603.4 129.7 603.4 131.45" fill="#000000" fill-rule="evenodd" stroke="none"/>
    <path d="M595.75 82.35 L593.85 104.65 553.2 255.65 507.85 242.65 495.85 223.65 473.85 213.65 482.85 161.65 436.85 139.65 420.85 103.65 427.65 82.35 595.75 82.35" fill="#000000" fill-opacity="0.2" fill-rule="evenodd" stroke="none"/>
    <path d="M583.85 90.65 L583.85 146.65 529.85 157.15 531.2 154.6 534.5 148.0 538.5 138.9 Q540.5 133.95 542.0 128.9 543.5 123.9 543.85 119.65 544.1 115.4 543.0 110.35 541.9 105.35 540.05 100.4 L536.35 91.3 533.2 84.7 531.85 82.15 554.85 67.65 Q588.45 61.9 583.85 90.65" fill="#000000" fill-opacity="0.5019608" fill-rule="evenodd" stroke="none"/>
    <path d="M595.75 74.35 L595.1 82.35 427.0 82.35 427.2 81.65 409.2 68.65 417.2 0.0 595.75 0.0 595.75 74.35" fill="#000000" fill-opacity="0.2" fill-rule="evenodd" stroke="none"/>
  </g>
</svg>
