<?xml version="1.0" encoding="UTF-8" standalone="no"?>
<svg xmlns:xlink="http://www.w3.org/1999/xlink" height="51.15px" width="82.45px" xmlns="http://www.w3.org/2000/svg">
  <g transform="matrix(1.0, 0.0, 0.0, 1.0, 237.8, -81.75)">
    <path d="M-161.25 127.3 Q-167.05 127.75 -172.0 122.65 L-172.75 121.8 -174.0 120.4 -176.9 117.0 -177.0 116.9 -178.0 115.15 Q-178.2 114.45 -178.0 113.9 -177.75 113.25 -177.0 112.75 L-174.0 116.1 -172.0 118.15 Q-167.05 123.05 -161.35 127.05 L-161.25 127.3 M-160.4 121.9 Q-157.05 125.45 -155.45 129.85 -155.3 130.15 -155.4 130.55 -163.75 134.75 -171.25 131.4 -164.95 129.5 -158.15 129.15 -159.3 126.9 -161.25 125.4 L-161.75 125.05 Q-163.15 123.4 -162.15 121.8 L-161.5 121.3 -160.9 121.55 -160.4 121.9 M-213.9 89.5 L-212.6 90.9 -211.4 92.5 Q-210.7 95.7 -212.1 98.55 -212.75 99.85 -214.0 100.65 -216.55 101.2 -218.25 99.4 -218.25 96.75 -217.9 94.2 L-217.25 91.5 -217.6 90.75 Q-217.8 89.4 -216.5 89.25 L-214.55 89.35 -213.9 89.5 M-214.75 92.9 L-215.5 94.0 -215.75 94.4 -215.75 97.4 -215.75 97.75 Q-215.9 98.65 -214.75 98.0 -212.8 95.35 -214.65 92.85 L-214.75 92.9 M-189.5 81.75 Q-183.85 90.05 -182.65 100.4 -182.5 101.85 -183.5 102.65 L-184.0 102.7 Q-185.05 102.7 -185.25 101.75 -185.45 97.4 -186.95 93.15 L-188.15 90.15 Q-188.8 91.25 -190.0 92.05 L-191.9 93.5 -192.5 93.65 -194.25 93.5 -194.65 93.15 -195.75 92.0 Q-196.2 87.6 -194.25 83.85 -193.4 82.25 -192.0 81.75 L-189.5 81.75 M-190.25 84.75 Q-190.25 83.65 -191.75 84.5 L-193.05 87.5 -193.25 87.9 -193.25 90.5 -193.25 90.9 Q-192.1 90.7 -191.0 89.65 -190.1 87.55 -190.25 85.15 L-190.25 84.75 M-198.9 105.5 L-199.6 106.0 -200.5 106.25 Q-201.45 106.1 -202.1 105.35 L-202.75 104.65 Q-202.9 107.9 -203.8 110.95 -204.25 112.3 -205.5 112.75 -209.9 111.1 -209.4 106.15 L-209.25 103.9 Q-209.25 103.2 -208.55 102.7 L-207.75 102.0 -206.0 101.85 -205.4 101.9 -204.75 101.6 -204.05 101.35 -204.0 101.25 Q-200.55 102.45 -198.9 105.2 L-198.9 105.5 M-206.7 104.65 L-206.75 104.9 Q-207.0 107.05 -206.25 108.95 L-205.9 109.5 -205.2 104.8 Q-205.1 104.15 -205.5 104.15 L-206.7 104.65 M-205.15 122.3 Q-204.55 123.3 -205.0 124.3 -215.25 121.9 -222.45 112.85 L-222.9 112.15 Q-224.95 111.0 -226.6 109.35 L-226.8 108.75 -226.2 108.15 -225.55 107.75 Q-217.75 114.45 -209.0 120.35 L-208.4 120.65 -207.0 120.4 -206.4 120.55 -205.15 122.3 M-226.8 101.75 L-226.8 102.15 Q-226.9 102.85 -227.55 103.15 -229.05 103.1 -230.15 103.9 -232.65 107.7 -234.35 111.9 -234.95 113.5 -236.05 114.65 L-237.2 114.3 -237.8 113.75 Q-236.25 107.6 -232.2 102.55 -231.1 101.15 -229.55 100.75 -228.0 100.35 -227.05 101.4 L-226.8 101.75" fill="#000000" fill-rule="evenodd" stroke="none"/>
  </g>
</svg>
