<?xml version="1.0" encoding="UTF-8" standalone="no"?>
<svg xmlns:xlink="http://www.w3.org/1999/xlink" height="402.9px" width="565.4px" xmlns="http://www.w3.org/2000/svg">
  <g transform="matrix(1.0, 0.0, 0.0, 1.0, -5.5, 30.0)">
    <path d="M175.95 -30.0 L175.95 39.95 570.9 39.95 570.9 350.9 546.95 350.9 546.95 371.95 135.95 371.95 124.95 370.95 114.95 370.95 72.95 372.9 72.95 299.95 5.8 272.95 Q4.15 195.95 11.45 118.95 L56.95 118.95 56.95 92.95 23.95 92.95 23.95 56.95 37.95 56.95 37.95 -30.0 175.95 -30.0 M304.45 241.45 Q284.7 241.7 266.95 241.45 L263.95 263.95 306.95 263.95 304.45 241.45 M285.65 112.6 Q289.45 110.25 289.45 106.95 289.45 103.65 285.65 101.3 281.85 98.95 276.45 98.95 271.05 98.95 267.25 101.3 263.45 103.65 263.45 106.95 263.45 110.25 267.25 112.6 271.05 114.95 276.45 114.95 281.85 114.95 285.65 112.6 M494.25 277.4 Q490.45 278.9 490.45 280.95 490.45 283.05 494.25 284.45 498.1 285.95 503.45 285.95 508.85 285.95 512.65 284.45 516.45 283.05 516.45 280.95 516.45 278.9 512.65 277.4 508.75 275.95 503.45 275.95 498.15 275.95 494.25 277.4 M361.95 134.45 L348.95 134.45 348.95 133.95 251.95 133.95 251.95 133.45 220.45 133.45 220.45 168.45 212.45 168.45 193.45 176.95 196.95 185.95 196.95 188.2 183.45 170.95 Q163.45 166.9 145.45 178.95 148.9 195.7 172.95 201.45 L196.95 195.55 196.95 197.45 219.95 197.45 222.45 193.45 349.45 192.95 361.95 201.45 370.7 201.45 369.45 202.95 397.95 208.95 Q428.65 208.8 430.45 181.45 406.75 176.55 386.55 178.45 L374.45 179.95 365.95 168.45 361.95 168.45 361.95 134.45 M333.35 117.2 Q337.45 115.45 337.45 112.95 337.45 110.45 333.35 108.7 329.25 106.95 323.45 106.95 317.65 106.95 313.55 108.7 309.45 110.45 309.45 112.95 309.45 115.45 313.55 117.2 317.65 118.95 323.45 118.95 329.25 118.95 333.35 117.2 M344.85 65.7 Q349.85 68.95 356.9 68.95 363.95 68.95 368.9 65.7 373.9 62.5 373.9 57.95 373.9 53.4 368.9 50.15 363.95 46.95 356.9 46.95 349.85 46.95 344.85 50.15 339.9 53.4 339.9 57.95 339.9 62.5 344.85 65.7 M474.4 89.75 Q477.95 87.55 477.95 84.45 477.95 81.35 474.4 79.15 470.85 76.95 465.95 76.95 461.0 76.95 457.45 79.15 453.95 81.3 453.95 84.45 453.95 87.6 457.45 89.75 461.0 91.95 465.95 91.95 470.85 91.95 474.4 89.75 M417.5 74.7 Q421.45 73.0 421.45 70.45 421.45 67.9 417.5 66.2 413.45 64.45 407.95 64.45 402.45 64.45 398.4 66.2 394.45 67.9 394.45 70.45 394.45 73.0 398.4 74.7 402.45 76.45 407.95 76.45 413.45 76.45 417.5 74.7 M541.8 165.95 Q545.2 167.45 549.95 167.45 554.7 167.45 558.05 165.95 561.45 164.5 561.45 162.45 561.45 160.4 558.05 158.9 554.6 157.45 549.95 157.45 545.25 157.45 541.8 158.9 538.45 160.4 538.45 162.45 538.45 164.55 541.8 165.95 M501.95 175.95 Q497.45 175.95 494.15 177.55 490.95 179.1 490.95 181.45 490.95 183.8 494.15 185.35 497.45 186.95 501.95 186.95 506.4 186.95 509.7 185.35 512.95 183.75 512.95 181.45 512.95 179.15 509.7 177.55 506.4 175.95 501.95 175.95" fill="#000000" fill-opacity="0.2" fill-rule="evenodd" stroke="none"/>
  </g>
</svg>
