<?xml version="1.0" encoding="UTF-8" standalone="no"?>
<svg xmlns:xlink="http://www.w3.org/1999/xlink" height="138.8px" width="194.8px" xmlns="http://www.w3.org/2000/svg">
  <g transform="matrix(1.0, 0.0, 0.0, 1.0, 96.65, 65.65)">
    <path d="M-75.0 6.95 L-75.6 -0.65 -73.35 -16.4 -66.1 -31.15 Q-66.1 -32.3 -51.1 -47.9 L-32.35 -58.9 -23.35 -61.8 Q-5.7 -68.1 15.25 -64.15 L26.9 -61.3 Q33.75 -59.5 36.65 -57.4 L52.5 -48.05 63.9 -35.9 67.65 -31.15 75.15 -15.8 77.15 -0.65 76.5 6.95 73.65 7.6 61.15 14.7 62.75 13.1 Q64.9 11.45 69.0 5.85 L72.0 0.2 Q79.45 -19.05 60.65 0.2 53.0 7.75 40.9 13.1 30.25 17.95 20.15 18.85 20.65 13.95 17.15 13.1 L15.65 12.85 13.5 13.1 Q8.45 14.7 10.65 19.85 L5.9 20.35 0.9 21.6 -4.25 20.35 -9.0 19.7 Q-7.05 14.5 -11.85 13.1 L-13.0 12.85 -15.6 13.1 Q-19.85 15.2 -18.6 18.85 -28.75 17.95 -39.35 13.1 -50.0 8.75 -59.1 0.2 L-67.1 -7.4 -70.1 -9.4 Q-74.7 -10.25 -70.5 0.2 L-67.5 5.85 Q-63.35 11.45 -61.25 13.1 L-59.6 14.7 -72.1 7.6 -75.0 6.95 M75.15 12.2 L73.0 22.45 69.5 28.2 56.9 31.45 Q46.8 33.7 40.5 33.95 45.45 32.65 52.15 29.6 L58.75 25.95 Q70.2 19.15 74.4 13.1 L75.15 12.2 M65.25 34.95 L64.5 36.35 Q58.8 43.15 57.7 43.8 L57.5 43.85 57.4 43.95 44.25 44.45 28.75 43.2 Q44.45 42.65 54.9 38.85 L59.65 37.35 65.25 34.95 M16.25 64.95 Q3.25 67.95 -14.75 64.95 L-19.75 63.85 -32.85 58.95 Q-22.85 57.4 -17.85 55.6 L-1.5 48.85 0.9 49.2 3.0 48.85 9.4 51.7 Q18.4 55.55 22.4 56.45 L34.4 58.95 26.25 62.2 Q19.0 64.75 17.75 64.6 L16.25 64.95 M-56.0 43.85 L-58.0 42.1 -63.0 36.35 -63.75 34.95 -56.1 38.1 -53.35 38.85 Q-42.95 42.65 -27.25 43.2 L-38.25 44.35 Q-54.2 44.5 -55.85 43.95 L-56.0 43.85 M-68.0 28.2 L-71.5 22.45 -73.75 12.2 -72.85 13.1 Q-66.7 20.9 -57.25 25.95 L-49.0 30.35 -39.0 33.95 -49.25 32.7 -68.0 28.2 M-46.0 51.35 L-43.35 51.6 -45.1 51.95 -45.35 51.7 -46.0 51.35 M46.75 52.1 L45.4 51.7 44.9 51.6 47.65 51.35 47.0 51.7 46.75 52.1" fill="#b19771" fill-rule="evenodd" stroke="none"/>
    <path d="M76.5 6.95 L77.15 8.2 75.15 12.2 74.4 13.1 Q70.2 19.15 58.75 25.95 L52.15 29.6 Q45.45 32.65 40.5 33.95 46.8 33.7 56.9 31.45 L69.5 28.2 Q81.9 26.1 65.25 34.95 L59.65 37.35 54.9 38.85 Q44.45 42.65 28.75 43.2 L44.25 44.45 57.4 43.95 57.75 43.95 Q78.0 41.8 68.25 46.2 L59.4 49.2 47.65 51.35 44.9 51.6 45.4 51.7 46.75 52.1 Q66.2 55.4 59.9 57.95 52.4 60.95 34.4 58.95 L22.4 56.45 Q18.4 55.55 9.4 51.7 L3.0 48.85 Q4.25 48.85 7.5 46.85 L13.75 42.2 19.75 36.95 27.5 29.1 29.65 25.95 Q32.95 20.65 17.0 21.6 L18.9 20.45 20.0 18.95 20.15 18.85 Q30.25 17.95 40.9 13.1 53.0 7.75 60.65 0.2 79.45 -19.05 72.0 0.2 L69.0 5.85 Q64.9 11.45 62.75 13.1 L61.15 14.7 73.65 7.6 76.5 6.95 M-66.75 46.2 Q-76.25 41.85 -56.25 43.95 L-55.85 43.95 Q-54.2 44.5 -38.25 44.35 L-27.25 43.2 Q-42.95 42.65 -53.35 38.85 L-56.1 38.1 -63.75 34.95 Q-80.6 25.55 -68.0 28.2 L-49.25 32.7 -39.0 33.95 -49.0 30.35 -57.25 25.95 Q-66.7 20.9 -72.85 13.1 L-73.75 12.2 Q-75.8 8.8 -75.6 7.95 L-75.0 6.95 -72.1 7.6 -59.6 14.7 -61.25 13.1 Q-63.35 11.45 -67.5 5.85 L-70.5 0.2 Q-74.7 -10.25 -70.1 -9.4 L-67.1 -7.4 -59.1 0.2 Q-50.0 8.75 -39.35 13.1 -28.75 17.95 -18.6 18.85 L-16.85 20.95 -15.35 21.6 Q-30.5 20.4 -28.1 25.95 L-26.0 29.1 -18.25 36.95 -12.25 42.2 -4.75 47.6 -1.5 48.85 -17.85 55.6 Q-22.85 57.4 -32.85 58.95 -50.25 61.0 -58.6 57.85 -60.95 55.7 -58.0 55.1 L-45.1 51.95 -43.35 51.6 -46.0 51.35 -57.35 49.35 -66.75 46.2 M-9.0 19.7 L-4.25 20.35 0.9 21.6 5.9 20.35 10.65 19.85 11.75 20.95 13.15 21.6 -12.1 21.7 -10.1 20.85 -9.0 19.7" fill="#5f3f2a" fill-rule="evenodd" stroke="none"/>
    <path d="M-18.6 18.85 Q-19.85 15.2 -15.6 13.1 L-13.0 12.85 -11.85 13.1 Q-7.05 14.5 -9.0 19.7 L-10.1 20.85 -12.1 21.7 -15.35 21.6 -16.85 20.95 -18.6 18.85 M10.65 19.85 Q8.45 14.7 13.5 13.1 L15.65 12.85 17.15 13.1 Q20.65 13.95 20.15 18.85 L20.0 18.95 18.9 20.45 17.0 21.6 13.15 21.6 11.75 20.95 10.65 19.85" fill="#000000" fill-rule="evenodd" stroke="none"/>
    <path d="M-15.35 21.6 L-12.1 21.7 13.15 21.6 17.0 21.6 Q32.95 20.65 29.65 25.95 L27.5 29.1 19.75 36.95 13.75 42.2 7.5 46.85 Q4.25 48.85 3.0 48.85 L0.9 49.2 -1.5 48.85 -4.75 47.6 -12.25 42.2 -18.25 36.95 -26.0 29.1 -28.1 25.95 Q-30.5 20.4 -15.35 21.6" fill="#ff488c" fill-rule="evenodd" stroke="none"/>
    <path d="M57.7 43.8 L57.75 43.95 57.4 43.95 57.5 43.85 57.7 43.8 M68.25 46.2 Q74.55 47.0 88.65 54.6 L96.0 61.6 Q97.2 62.7 98.15 68.35 L98.15 70.2 97.75 71.1 95.75 72.35 88.25 73.1 71.0 72.45 33.0 68.2 Q20.6 66.6 16.25 64.95 L17.75 64.6 Q19.0 64.75 26.25 62.2 L34.4 58.95 Q52.4 60.95 59.9 57.95 66.2 55.4 46.75 52.1 L47.0 51.7 47.65 51.35 59.4 49.2 68.25 46.2 M-14.75 64.95 Q-21.25 66.95 -29.75 67.95 L-69.75 72.45 Q-91.75 73.85 -94.75 72.2 -98.95 70.15 -93.85 60.85 L-86.6 54.35 Q-73.3 47.15 -66.75 46.2 L-57.35 49.35 -46.0 51.35 -45.35 51.7 -45.1 51.95 -58.0 55.1 Q-60.95 55.7 -58.6 57.85 -50.25 61.0 -32.85 58.95 L-19.75 63.85 -14.75 64.95 M-56.25 43.95 L-56.0 43.85 -55.85 43.95 -56.25 43.95" fill="#573f70" fill-rule="evenodd" stroke="none"/>
  </g>
</svg>
