<?xml version="1.0" encoding="UTF-8" standalone="no"?>
<svg xmlns:xlink="http://www.w3.org/1999/xlink" height="486.2px" width="849.2px" xmlns="http://www.w3.org/2000/svg">
  <g transform="matrix(1.0, 0.0, 0.0, 1.0, 70.75, 28.8)">
    <path d="M452.1 212.35 L426.65 220.8 418.0 205.35 155.05 182.5 Q63.15 -41.15 146.05 -28.1 L739.05 -25.1 Q799.55 92.9 692.95 177.3 680.35 187.25 691.4 192.05 L778.45 217.5 778.45 352.8 Q765.3 363.2 726.55 457.4 L460.45 443.2 -45.75 428.05 Q-31.0 402.15 -70.75 13.85 L-27.0 13.85 Q68.05 273.65 96.0 324.0 L101.0 324.0 101.0 319.25 469.25 336.55 Q496.8 295.35 481.1 279.25 465.35 263.15 460.05 261.0 454.7 258.8 457.5 236.5 453.05 218.45 452.1 212.35" fill="#000000" fill-opacity="0.16078432" fill-rule="evenodd" stroke="none"/>
  </g>
</svg>
