<?xml version="1.0" encoding="UTF-8" standalone="no"?>
<svg xmlns:xlink="http://www.w3.org/1999/xlink" height="65.55px" width="340.45px" xmlns="http://www.w3.org/2000/svg">
  <g transform="matrix(1.0, 0.0, 0.0, 1.0, -128.65, -176.7)">
    <path d="M163.65 181.0 L161.5 180.1 156.05 178.4 Q152.65 177.5 148.7 177.25 144.75 177.0 141.0 178.1 137.2 179.15 134.35 182.3 127.65 190.0 129.55 196.45 131.45 202.9 141.1 208.1 150.75 213.3 167.35 217.3 174.5 219.0 183.35 219.95 L202.2 221.6 222.35 223.05 242.45 225.0 Q252.3 226.2 261.05 228.25 269.8 230.3 276.7 233.55 283.6 236.85 287.9 241.75" fill="none" stroke="#000000" stroke-linecap="round" stroke-linejoin="round" stroke-width="1.0"/>
    <path d="M412.7 186.0 L415.6 186.4 423.1 187.65 433.45 189.95 Q439.15 191.4 444.95 193.55 450.7 195.65 455.75 198.55 460.75 201.4 464.15 205.15 467.55 208.9 468.4 213.6 469.25 218.25 466.7 224.0 463.2 231.45 455.9 235.5 448.65 239.55 438.6 240.9 428.6 242.25 416.8 241.5 405.0 240.75 392.45 238.6 379.9 236.45 367.6 233.6 355.3 230.7 344.25 227.7 L330.0 223.9 Q329.75 225.0 328.75 226.1 326.95 228.05 323.35 229.2 319.8 230.4 315.35 230.35 310.9 230.15 308.15 228.7 305.4 227.25 304.7 225.35 304.0 223.45 305.75 222.05 307.45 220.6 312.05 220.45 316.6 220.3 324.35 222.35 L330.0 223.9 Q330.1 223.0 329.8 222.1 329.05 219.95 324.9 218.15 320.7 216.35 312.35 215.35 305.75 214.65 301.2 216.0 296.65 217.3 293.8 219.95 290.95 222.6 289.55 225.85 288.15 229.1 287.85 232.3 287.5 235.5 288.0 237.9 288.5 240.3 289.45 241.25" fill="none" stroke="#000000" stroke-linecap="round" stroke-linejoin="round" stroke-width="1.0"/>
  </g>
</svg>
