<?xml version="1.0" encoding="UTF-8" standalone="no"?>
<svg xmlns:xlink="http://www.w3.org/1999/xlink" height="465.65px" width="613.55px" xmlns="http://www.w3.org/2000/svg">
  <g transform="matrix(1.0, 0.0, 0.0, 1.0, -20.95, 27.7)">
    <path d="M634.5 -27.7 L634.5 437.95 20.95 437.95 20.95 269.55 103.5 348.55 345.55 309.55 262.5 240.55 20.95 267.4 20.95 225.15 22.0 225.15 Q26.35 225.15 29.4 222.85 32.45 220.55 32.5 217.3 32.45 213.95 29.4 211.75 26.3 209.4 22.0 209.4 L20.95 209.45 20.95 152.9 21.55 153.35 Q24.65 155.65 29.0 155.65 33.3 155.65 36.4 153.35 39.45 151.05 39.5 147.8 39.45 144.5 36.4 142.25 33.3 139.9 29.0 139.9 24.65 139.9 21.55 142.25 L20.95 142.7 20.95 -27.7 634.5 -27.7 M132.55 144.75 Q132.5 141.45 129.45 139.2 126.35 136.85 122.05 136.85 117.7 136.85 114.6 139.2 111.55 141.45 111.55 144.75 111.55 148.0 114.6 150.3 117.7 152.6 122.05 152.6 126.35 152.6 129.45 150.3 132.5 148.0 132.55 144.75 M88.45 87.7 Q85.35 85.35 81.05 85.35 76.7 85.35 73.6 87.7 70.55 89.95 70.55 93.25 70.55 96.5 73.6 98.8 76.7 101.1 81.05 101.1 85.35 101.1 88.45 98.8 91.5 96.5 91.55 93.25 91.5 89.95 88.45 87.7 M259.1 137.85 Q254.75 137.85 251.65 140.2 248.6 142.45 248.6 145.75 248.6 149.0 251.65 151.3 254.75 153.6 259.1 153.6 263.4 153.6 266.5 151.3 269.55 149.0 269.6 145.75 269.55 142.45 266.5 140.2 263.4 137.85 259.1 137.85 M536.1 338.05 Q536.1 341.3 539.15 343.6 542.25 345.9 546.6 345.9 550.9 345.9 554.0 343.6 557.05 341.3 557.1 338.05 557.05 334.75 554.0 332.5 550.9 330.15 546.6 330.15 542.25 330.15 539.15 332.5 536.1 334.75 536.1 338.05 M469.6 343.6 Q472.7 345.9 477.05 345.9 481.35 345.9 484.45 343.6 487.5 341.3 487.55 338.05 487.5 334.75 484.45 332.5 481.35 330.15 477.05 330.15 472.7 330.15 469.6 332.5 466.55 334.75 466.55 338.05 466.55 341.3 469.6 343.6 M485.85 262.95 Q482.8 265.2 482.8 268.5 482.8 271.75 485.85 274.05 488.95 276.35 493.3 276.35 497.6 276.35 500.7 274.05 503.75 271.75 503.8 268.5 503.75 265.2 500.7 262.95 497.6 260.6 493.3 260.6 488.95 260.6 485.85 262.95" fill="#009900" fill-opacity="0.3019608" fill-rule="evenodd" stroke="none"/>
  </g>
</svg>
