<?xml version="1.0" encoding="UTF-8" standalone="no"?>
<svg xmlns:xlink="http://www.w3.org/1999/xlink" height="403.5px" width="528.2px" xmlns="http://www.w3.org/2000/svg">
  <g transform="matrix(1.0, 0.0, 0.0, 1.0, -76.25, 1.0)">
    <path d="M280.45 331.1 L280.45 331.25 281.0 331.25 281.25 330.9 280.75 331.25 280.45 331.1 M387.45 -0.75 L387.45 -1.0 433.25 -0.75 433.25 95.75 440.7 99.0 446.25 113.75 450.25 113.75 450.25 117.0 466.5 117.0 466.5 116.25 599.3 117.0 599.3 118.0 604.45 118.0 604.45 166.5 560.45 166.5 560.45 166.15 472.5 166.6 472.5 166.5 440.0 167.05 440.0 178.5 429.1 178.5 430.5 402.3 376.0 402.5 377.5 347.0 327.0 346.75 327.0 348.75 309.0 348.75 309.0 352.25 295.5 352.25 295.5 354.0 295.0 354.0 295.0 355.0 262.25 355.0 262.25 352.7 261.05 352.0 259.75 352.0 259.75 355.0 251.5 355.0 251.5 352.0 246.0 352.0 246.0 350.5 238.75 350.5 238.75 348.5 220.25 348.5 220.25 341.5 201.25 341.5 201.25 334.0 191.0 334.0 191.0 331.0 186.0 331.0 186.5 322.05 Q185.0 318.1 184.0 317.45 L177.35 312.7 Q171.7 308.45 156.5 309.85 141.3 311.2 105.7 304.2 93.65 301.8 86.5 298.25 L86.5 291.0 81.5 291.0 81.5 287.0 76.35 287.0 Q75.85 283.65 77.55 279.8 84.95 262.4 105.35 261.0 125.7 259.55 152.6 261.1 179.5 262.65 194.05 254.25 208.55 245.85 218.8 271.65 214.1 301.9 224.75 306.85 235.4 311.8 246.6 315.75 251.55 317.5 253.9 320.15 256.8 319.3 256.0 322.1 L262.25 327.25 269.25 331.25 269.25 334.0 Q271.6 327.8 276.25 327.75 L279.8 331.25 280.15 331.25 280.3 330.9 279.3 329.4 Q278.25 327.5 282.95 325.45 287.65 323.35 300.15 325.1 L303.75 322.0 Q312.65 325.9 313.85 330.0 L314.0 330.0 314.0 326.0 Q315.3 316.9 332.35 320.75 L332.5 322.0 371.65 321.85 373.65 99.25 373.25 99.25 373.25 -0.75 387.45 -0.75" fill="#c7bf57" fill-rule="evenodd" stroke="none"/>
  </g>
</svg>
