<?xml version="1.0" encoding="UTF-8" standalone="no"?>
<svg xmlns:xlink="http://www.w3.org/1999/xlink" height="481.65px" width="701.2px" xmlns="http://www.w3.org/2000/svg">
  <g transform="matrix(1.0, 0.0, 0.0, 1.0, 51.75, 40.2)">
    <path d="M152.45 379.25 Q147.25 379.25 143.6 380.7 139.95 382.2 139.95 384.25 139.95 386.3 143.6 387.75 147.25 389.25 152.45 389.25 157.65 389.25 161.3 387.75 164.95 386.3 164.95 384.25 164.95 382.2 161.3 380.7 157.65 379.25 152.45 379.25 M66.3 343.25 Q69.95 341.8 69.95 339.75 69.95 337.7 66.3 336.2 62.65 334.75 57.45 334.75 52.25 334.75 48.6 336.2 44.95 337.7 44.95 339.75 44.95 341.8 48.6 343.25 52.25 344.75 57.45 344.75 62.65 344.75 66.3 343.25 M99.8 290.25 Q103.45 288.8 103.45 286.75 103.45 284.7 99.8 283.2 96.15 281.75 90.95 281.75 85.75 281.75 82.1 283.2 78.45 284.7 78.45 286.75 78.45 288.8 82.1 290.25 85.75 291.75 90.95 291.75 96.15 291.75 99.8 290.25 M114.3 109.95 Q117.95 108.5 117.95 106.45 117.95 104.4 114.3 102.9 110.65 101.45 105.45 101.45 100.25 101.45 96.6 102.9 92.95 104.4 92.95 106.45 92.95 108.5 96.6 109.95 100.25 111.45 105.45 111.45 110.65 111.45 114.3 109.95 M481.95 213.75 Q481.95 215.8 485.6 217.25 489.25 218.75 494.45 218.75 499.65 218.75 503.3 217.25 506.95 215.8 506.95 213.75 506.95 211.7 503.3 210.2 499.65 208.75 494.45 208.75 489.25 208.75 485.6 210.2 481.95 211.7 481.95 213.75 M352.3 95.5 L350.9 94.35 Q347.1 91.2 330.45 90.45 319.1 89.85 308.3 94.7 297.45 99.5 297.45 103.45 297.45 107.4 305.95 110.15 314.45 112.95 325.1 113.35 335.75 113.75 341.4 111.95 347.05 110.05 345.1 118.8 L351.9 117.45 Q390.15 103.6 421.65 117.45 L429.2 116.35 427.45 110.1 427.45 -40.2 649.45 -40.2 649.45 262.0 449.25 262.0 Q436.9 258.25 435.15 255.95 431.75 251.5 427.45 249.2 L423.4 235.75 422.15 156.7 Q388.15 146.75 352.15 158.45 L351.9 271.8 Q363.65 292.7 384.25 318.75 404.7 344.55 437.25 352.9 L649.45 352.9 649.45 441.45 -51.75 441.45 -51.75 -40.2 352.3 -40.2 352.3 95.5 M557.8 98.25 Q561.45 96.8 561.45 94.75 561.45 92.7 557.8 91.2 554.15 89.75 548.95 89.75 543.75 89.75 540.1 91.2 536.45 92.7 536.45 94.75 536.45 96.8 540.1 98.25 543.75 99.75 548.95 99.75 554.15 99.75 557.8 98.25" fill="#009900" fill-opacity="0.3019608" fill-rule="evenodd" stroke="none"/>
  </g>
</svg>
