<?xml version="1.0" encoding="UTF-8" standalone="no"?>
<svg xmlns:xlink="http://www.w3.org/1999/xlink" height="163.6px" width="602.15px" xmlns="http://www.w3.org/2000/svg">
  <g transform="matrix(1.0, 0.0, 0.0, 1.0, -0.15, -0.05)">
    <path d="M602.3 163.65 L0.15 163.65 0.15 115.0 154.75 115.0 154.75 114.55 155.1 114.55 Q161.6 114.5 167.25 112.1 172.95 109.7 177.2 105.4 181.5 101.1 183.95 95.45 186.35 89.8 186.4 83.25 L187.8 83.25 187.4 0.3 236.05 0.05 236.45 83.25 237.65 83.25 Q237.7 89.8 240.15 95.45 242.55 101.1 246.85 105.4 251.15 109.7 256.8 112.1 262.45 114.5 269.0 114.55 L269.3 114.55 269.3 115.0 602.3 115.0 602.3 163.65" fill="#c7bf57" fill-rule="evenodd" stroke="none"/>
  </g>
</svg>
