<?xml version="1.0" encoding="UTF-8" standalone="no"?>
<svg xmlns:xlink="http://www.w3.org/1999/xlink" height="117.7px" width="250.7px" xmlns="http://www.w3.org/2000/svg">
  <g transform="matrix(1.0, 0.0, 0.0, 1.0, -351.75, -218.2)">
    <path d="M436.95 250.7 Q443.25 257.0 451.55 260.55 459.85 264.1 469.45 264.15 L469.9 264.1 469.9 335.85 469.45 335.9 Q449.85 335.8 432.25 329.9 414.6 323.95 399.95 313.2 385.25 302.4 374.45 287.7 363.65 273.0 357.75 255.4 351.85 237.8 351.75 218.2 L423.5 218.2 Q423.55 227.75 427.1 236.1 430.65 244.4 436.95 250.7" fill="#3d1c0c" fill-rule="evenodd" stroke="none"/>
    <path d="M602.45 335.8 L469.3 335.8 469.3 264.4 602.45 264.4 602.45 335.8" fill="#3d1c0c" fill-rule="evenodd" stroke="none"/>
  </g>
</svg>
