<?xml version="1.0" encoding="UTF-8" standalone="no"?>
<svg xmlns:xlink="http://www.w3.org/1999/xlink" height="351.3px" width="250.7px" xmlns="http://www.w3.org/2000/svg">
  <g transform="matrix(1.0, 0.0, 0.0, 1.0, -64.6, -3.3)">
    <path d="M136.3 3.3 L136.3 236.9 136.35 236.9 Q136.4 246.45 139.95 254.8 143.5 263.1 149.8 269.4 156.1 275.7 164.4 279.25 172.7 282.8 182.3 282.85 L182.75 282.8 182.75 283.1 315.3 283.1 315.3 354.5 182.75 354.5 182.75 354.55 182.3 354.6 Q162.7 354.5 145.1 348.6 127.45 342.65 112.8 331.9 98.1 321.1 87.3 306.4 76.5 291.7 70.6 274.1 64.7 256.5 64.6 236.9 L64.9 236.9 64.9 3.3 136.3 3.3" fill="#244fc4" fill-rule="evenodd" stroke="none"/>
  </g>
</svg>
