<?xml version="1.0" encoding="UTF-8" standalone="no"?>
<svg xmlns:xlink="http://www.w3.org/1999/xlink" height="492.0px" width="726.5px" xmlns="http://www.w3.org/2000/svg">
  <g transform="matrix(1.0, 0.0, 0.0, 1.0, 57.45, 46.0)">
    <path d="M589.9 151.95 L560.9 151.95 560.9 354.95 561.0 354.95 561.0 373.5 564.7 373.5 564.7 375.7 586.1 375.7 586.1 354.95 589.9 354.95 589.9 151.95 M298.9 -46.0 L354.9 -46.0 354.9 31.3 Q344.55 58.5 350.95 85.75 L350.95 110.45 457.45 110.45 457.45 102.95 526.45 102.95 526.45 74.45 553.95 74.45 553.95 68.95 564.9 68.95 564.9 -46.0 669.05 -46.0 669.05 446.0 403.9 446.0 403.9 343.95 395.2 336.95 Q399.15 312.6 388.35 309.05 377.55 305.4 373.4 300.45 369.25 295.5 368.1 292.45 366.95 289.4 342.9 277.9 L333.9 262.95 164.2 262.95 Q166.85 251.05 164.0 238.95 L160.0 234.95 159.05 234.8 Q156.2 233.9 154.0 230.95 L148.8 230.8 Q143.65 229.45 141.0 225.95 140.0 225.95 139.35 225.45 135.55 222.85 131.0 221.95 L127.0 218.0 124.0 211.0 122.95 209.05 Q119.4 202.6 113.0 199.0 L111.7 197.4 Q98.15 187.35 85.0 176.0 L81.0 176.0 79.2 174.55 78.95 170.95 15.95 168.95 15.95 262.95 -57.45 262.95 -57.45 -46.0 45.95 -46.0 45.95 39.95 49.95 39.95 49.95 65.95 61.95 65.95 63.95 77.95 82.95 107.95 196.95 107.4 196.95 109.95 294.45 109.95 294.45 104.3 Q299.55 76.35 297.95 52.95 L298.3 39.95 298.9 39.95 298.95 14.95 298.9 14.95 298.9 -46.0 M342.9 164.65 L298.0 162.0 295.0 163.0 267.0 163.0 Q228.05 165.15 184.0 160.0 175.6 164.2 171.0 164.0 168.65 162.05 162.5 185.2 179.25 182.4 191.45 187.3 203.65 192.15 206.0 193.5 L211.95 192.75 211.95 204.95 226.95 204.95 Q228.0 205.75 229.0 206.0 232.95 217.45 240.95 227.25 L240.95 238.45 251.95 238.45 251.95 238.95 260.95 238.95 260.95 239.45 282.95 242.45 282.95 229.05 285.0 225.95 Q284.3 216.25 287.05 208.45 L364.2 208.45 364.95 216.0 366.95 219.0 Q367.15 232.75 370.35 246.65 371.65 252.15 373.95 256.95 L384.95 264.95 403.95 264.95 404.95 318.95 408.95 321.95 409.95 325.95 412.95 327.95 412.95 331.95 Q416.15 339.05 422.2 341.55 L422.2 367.6 460.6 367.6 460.6 379.4 487.15 379.4 487.15 362.85 Q490.9 356.0 489.55 342.5 L507.85 342.5 507.85 315.8 Q513.0 302.5 499.9 281.25 L499.9 204.95 492.9 204.95 492.9 176.95 465.95 176.95 466.95 175.95 387.95 167.95 387.95 165.95 356.0 165.95 342.9 164.65 M311.65 362.45 L317.45 369.95 Q320.8 374.55 327.9 373.15 L327.9 446.0 -57.45 446.0 -57.45 357.9 308.3 357.9 Q309.2 359.5 311.65 362.45 M162.5 185.2 Q163.25 167.8 162.0 168.0 L157.0 176.0 Q161.0 172.35 162.5 185.2" fill="#000000" fill-opacity="0.2" fill-rule="evenodd" stroke="none"/>
  </g>
</svg>
