<?xml version="1.0" encoding="UTF-8" standalone="no"?>
<svg xmlns:xlink="http://www.w3.org/1999/xlink" height="117.2px" width="188.65px" xmlns="http://www.w3.org/2000/svg">
  <g transform="matrix(1.0, 0.0, 0.0, 1.0, 61.95, 6.8)">
    <path d="M-45.95 19.35 L-43.7 17.1 -28.05 7.1 -9.45 -0.3 11.05 -5.05 32.7 -6.8 Q57.25 -5.35 59.55 -3.65 L73.2 -0.55 92.05 6.85 107.95 16.85 110.55 19.35 113.05 22.1 113.3 22.2 113.2 22.45 119.3 29.1 123.45 41.7 123.55 43.45 119.95 57.45 109.95 69.35 95.05 79.45 92.45 80.95 81.7 85.1 76.8 86.45 Q57.8 92.4 55.8 92.1 L54.8 92.7 Q34.3 96.95 9.8 92.7 L9.7 92.6 6.8 91.6 -1.55 89.7 -12.05 86.45 Q-23.4 83.2 -30.45 79.45 L-44.55 70.1 -55.3 57.45 -58.8 44.2 -58.7 41.35 -54.8 29.2 -48.7 22.35 -48.7 22.2 -48.55 22.2 -45.95 19.35" fill="#b19771" fill-rule="evenodd" stroke="none"/>
    <path d="M-30.45 79.45 Q-23.4 83.2 -12.05 86.45 L-1.55 89.7 6.8 91.6 9.7 92.6 9.8 92.7 Q26.0 103.3 10.95 107.95 -6.25 113.75 -34.2 104.85 L-44.8 100.85 -54.2 95.95 Q-62.05 91.9 -61.95 84.6 -59.2 75.65 -30.45 79.45 M54.8 92.7 L55.8 92.1 Q57.8 92.4 76.8 86.45 L81.7 85.1 92.45 80.95 95.05 79.45 Q122.55 75.45 126.55 84.45 127.1 85.9 125.45 90.1 L123.45 92.6 Q117.1 97.45 110.55 100.35 L100.8 104.2 Q69.3 113.75 55.8 108.6 37.55 103.75 54.8 92.7" fill="#573f70" fill-rule="evenodd" stroke="none"/>
    <path d="M-45.95 19.35 L-48.55 22.2 -48.7 22.2 Q-51.75 18.9 -49.55 18.85 L-48.05 18.7 -45.95 19.35 M113.3 22.2 L113.05 22.1 110.55 19.35 Q117.7 17.15 113.3 22.2" fill="#5f3f2a" fill-rule="evenodd" stroke="none"/>
  </g>
</svg>
