<?xml version="1.0" encoding="UTF-8" standalone="no"?>
<svg xmlns:xlink="http://www.w3.org/1999/xlink" height="120.7px" width="407.1px" xmlns="http://www.w3.org/2000/svg">
  <g transform="matrix(1.0, 0.0, 0.0, 1.0, 203.55, 60.35)">
    <path d="M82.9 -60.35 Q102.95 -60.25 121.05 -54.2 139.1 -48.15 154.15 -37.05 169.2 -26.0 180.3 -10.95 191.35 4.1 197.4 22.2 203.45 40.25 203.55 60.35 L130.0 60.35 130.0 60.3 Q129.9 50.5 126.3 42.0 122.65 33.5 116.2 27.05 109.75 20.55 101.25 16.95 92.7 13.3 82.9 13.25 L82.4 13.25 82.4 12.95 -203.55 12.95 -203.55 -60.25 82.4 -60.25 82.4 -60.35 82.9 -60.35" fill="#244fc4" fill-rule="evenodd" stroke="none"/>
  </g>
</svg>
