<?xml version="1.0" encoding="UTF-8" standalone="no"?>
<svg xmlns:xlink="http://www.w3.org/1999/xlink" height="562.0px" width="677.5px" xmlns="http://www.w3.org/2000/svg">
  <g transform="matrix(1.0, 0.0, 0.0, 1.0, 88.95, 76.0)">
    <path d="M459.95 143.35 Q455.6 140.75 449.4 140.75 443.2 140.75 438.8 143.35 434.45 145.95 434.45 149.6 434.45 151.3 435.45 152.8 399.0 144.75 343.7 149.2 276.8 154.6 239.75 167.6 202.65 180.55 202.2 195.7 201.75 210.8 232.55 221.2 263.35 231.55 316.6 241.3 367.25 250.5 423.25 225.1 429.8 231.45 441.0 233.65 442.5 233.45 440.15 232.8 437.75 232.1 451.7 231.5 459.65 226.9 494.8 220.0 496.1 214.65 509.1 206.45 L495.65 197.2 Q491.35 191.4 484.9 188.55 488.45 184.65 488.55 181.75 489.0 170.25 453.85 158.1 457.25 157.45 459.95 155.85 464.35 153.25 464.35 149.6 464.35 145.95 459.95 143.35 M588.55 26.35 L563.4 26.35 563.4 222.7 561.6 222.7 561.6 268.95 Q546.05 271.1 530.6 274.15 501.2 280.2 473.55 289.4 442.7 299.75 413.75 312.5 L411.15 316.05 Q404.8 317.9 401.45 323.95 355.4 355.3 357.9 411.85 358.7 429.5 362.25 451.1 367.1 480.45 373.45 486.0 L-78.5 486.0 -78.5 370.05 Q-72.65 370.5 -50.5 370.8 L-22.8 370.95 Q10.3 369.55 44.25 369.0 L68.6 367.1 73.9 361.35 Q74.45 359.85 74.9 336.6 L76.45 267.85 Q77.5 222.4 76.45 194.35 75.35 166.3 69.35 153.85 L-9.75 152.3 -10.6 115.3 -11.5 115.3 -11.5 127.45 -88.95 115.3 -88.95 -76.0 588.55 -76.0 588.55 26.35 M523.85 220.5 L522.5 218.3 522.2 218.05 523.85 220.5 M190.1 76.55 Q190.1 80.35 195.9 83.05 201.7 85.75 209.9 85.75 218.1 85.75 223.9 83.05 229.7 80.35 229.7 76.55 229.7 72.75 223.9 70.05 218.1 67.35 209.9 67.35 201.7 67.35 195.9 70.05 190.1 72.75 190.1 76.55" fill="#000000" fill-opacity="0.21176471" fill-rule="evenodd" stroke="none"/>
  </g>
</svg>
