<?xml version="1.0" encoding="UTF-8" standalone="no"?>
<svg xmlns:xlink="http://www.w3.org/1999/xlink" height="118.25px" width="198.05px" xmlns="http://www.w3.org/2000/svg">
  <g transform="matrix(1.0, 0.0, 0.0, 1.0, 66.7, 7.9)">
    <path d="M120.55 51.1 L119.2 56.7 118.3 58.1 108.7 69.7 94.3 79.35 Q89.55 82.25 75.8 86.45 L67.05 89.2 54.7 92.45 54.55 92.6 Q39.8 96.8 10.05 92.6 L9.95 92.45 8.55 91.85 -1.95 89.35 -15.2 85.45 -25.2 81.6 -29.7 79.35 -44.05 69.7 -53.7 58.1 -54.55 56.7 -55.95 51.1 -58.2 41.85 -54.2 28.7 -43.7 16.7 -28.05 6.35 -8.55 -1.55 11.7 -6.3 32.45 -7.9 Q57.6 -6.8 64.05 -3.65 69.6 -3.85 92.45 6.2 L108.05 16.45 118.8 28.7 122.8 41.85 120.55 51.1" fill="#b19771" fill-rule="evenodd" stroke="none"/>
    <path d="M120.55 51.1 Q143.2 65.85 118.3 58.1 L119.2 56.7 120.55 51.1 M-53.7 58.1 Q-78.55 65.8 -55.95 51.1 L-54.55 56.7 -53.7 58.1" fill="#5f3f2a" fill-rule="evenodd" stroke="none"/>
    <path d="M94.3 79.35 Q121.95 75.4 126.05 84.2 125.7 91.75 122.3 93.1 117.3 97.2 112.3 99.35 L100.45 104.2 Q69.25 113.95 54.3 108.2 38.45 103.0 54.55 92.6 L54.7 92.45 67.05 89.2 75.8 86.45 Q89.55 82.25 94.3 79.35 M10.05 92.6 Q25.5 103.0 11.7 107.7 -4.05 114.2 -35.8 104.2 L-45.45 100.45 Q-53.45 96.9 -58.45 92.6 L-60.3 90.2 Q-62.25 85.4 -61.45 84.35 -57.3 75.35 -29.7 79.35 L-25.2 81.6 -15.2 85.45 -1.95 89.35 8.55 91.85 9.95 92.45 10.05 92.6" fill="#573f70" fill-rule="evenodd" stroke="none"/>
  </g>
</svg>
