<?xml version="1.0" encoding="UTF-8" standalone="no"?>
<svg xmlns:xlink="http://www.w3.org/1999/xlink" height="143.75px" width="263.45px" xmlns="http://www.w3.org/2000/svg">
  <g transform="matrix(1.0, 0.0, 0.0, 1.0, 5.1, -2.65)">
    <path d="M256.8 30.2 L257.85 30.1 257.85 41.05 256.8 41.15 256.8 48.2 257.9 48.1 257.9 145.75 10.2 146.4 Q10.0 138.45 12.0 129.3 13.95 120.2 18.95 110.45 23.95 100.65 32.7 90.75 41.4 80.85 54.7 71.3 68.0 61.75 86.6 53.1 105.15 44.45 129.8 37.15 154.45 29.8 184.3 23.15 214.2 16.5 257.25 12.6 256.8 23.2 256.8 30.2" fill="#244fc4" fill-rule="evenodd" stroke="none"/>
    <path d="M258.35 2.65 L258.35 10.05 Q213.5 14.75 178.6 22.05 143.65 29.3 117.45 38.65 91.3 47.9 72.75 58.6 54.15 69.2 42.1 80.55 30.0 91.95 23.2 103.35 16.35 114.7 13.7 125.6 11.05 136.4 11.4 145.95 L-4.65 145.85 Q-5.65 137.3 -4.3 127.6 -2.95 117.8 1.6 107.3 6.1 96.8 14.85 86.05 23.6 75.35 37.45 64.95 51.2 54.55 71.1 45.0 91.0 35.4 118.0 27.25 144.85 19.1 179.75 12.8 214.55 6.5 258.35 2.65" fill="#ffffff" fill-opacity="0.0" fill-rule="evenodd" stroke="none"/>
  </g>
</svg>
