<?xml version="1.0" encoding="UTF-8" standalone="no"?>
<svg xmlns:xlink="http://www.w3.org/1999/xlink" height="119.25px" width="177.3px" xmlns="http://www.w3.org/2000/svg">
  <g transform="matrix(1.0, 0.0, 0.0, 1.0, 56.5, 17.95)">
    <path d="M-45.95 56.85 L-45.95 56.7 -52.05 48.95 -52.3 48.2 -55.7 35.1 -55.95 32.85 -52.2 19.45 -42.05 6.95 Q-2.55 -23.8 53.95 -16.55 98.25 -8.1 115.3 17.6 L116.8 19.45 120.55 33.45 116.8 48.7 110.45 56.85 107.2 60.7 106.7 61.6 102.95 64.2 91.55 72.2 84.3 75.35 79.45 77.35 Q58.7 82.7 54.95 84.6 43.8 89.3 9.7 84.6 5.85 82.55 -14.2 77.6 L-19.7 75.35 -26.55 72.45 -38.3 64.2 -42.05 61.6 -42.55 60.7 -45.8 56.85 -45.95 56.85" fill="#b19771" fill-rule="evenodd" stroke="none"/>
    <path d="M110.45 56.85 Q113.2 65.0 107.45 71.45 L105.7 71.95 105.2 71.35 102.95 64.2 106.7 61.6 107.2 60.7 110.45 56.85 M-38.3 64.2 L-40.7 71.7 -41.95 71.95 -42.95 71.35 Q-48.45 65.05 -45.95 56.85 L-45.8 56.85 -42.55 60.7 -42.05 61.6 -38.3 64.2" fill="#5f3f2a" fill-rule="evenodd" stroke="none"/>
    <path d="M84.3 75.35 Q110.6 71.9 119.2 78.2 122.85 84.1 118.3 88.45 L114.95 91.45 108.2 94.6 Q84.3 103.65 53.95 99.95 38.2 96.65 54.95 84.6 58.7 82.7 79.45 77.35 L84.3 75.35 M9.7 84.6 L13.05 87.1 Q18.6 93.25 18.45 94.7 L18.2 96.35 Q15.75 98.75 14.55 98.95 -9.4 104.55 -36.55 96.7 L-43.8 94.45 Q-49.3 92.5 -51.3 90.85 -59.05 82.4 -55.3 79.2 -45.4 71.4 -19.7 75.35 L-14.2 77.6 Q5.85 82.55 9.7 84.6" fill="#573f70" fill-rule="evenodd" stroke="none"/>
  </g>
</svg>
