<?xml version="1.0" encoding="UTF-8" standalone="no"?>
<svg xmlns:xlink="http://www.w3.org/1999/xlink" height="111.9px" width="348.25px" xmlns="http://www.w3.org/2000/svg">
  <g transform="matrix(1.0, 0.0, 0.0, 1.0, 0.0, 0.0)">
    <path d="M54.9 4.1 Q66.9 0.05 80.25 0.0 L80.25 48.9 Q73.7 48.95 68.05 51.4 62.4 53.8 58.1 58.1 53.8 62.4 51.35 68.05 48.95 73.7 48.9 80.25 L48.95 80.55 0.0 80.55 0.0 80.25 Q0.05 66.9 4.1 54.85 8.15 42.85 15.5 32.85 22.85 22.85 32.85 15.5 42.85 8.15 54.9 4.1" fill="#7a7d4d" fill-rule="evenodd" stroke="none"/>
    <path d="M348.25 50.05 L74.6 50.3 74.55 1.65 348.2 1.4 348.25 50.05" fill="#7a7d4d" fill-rule="evenodd" stroke="none"/>
    <path d="M51.2 111.85 L2.55 111.9 2.3 78.55 24.35 67.0 50.95 81.1 51.2 111.85" fill="#7a7d4d" fill-rule="evenodd" stroke="none"/>
  </g>
</svg>
