<?xml version="1.0" encoding="UTF-8" standalone="no"?>
<svg xmlns:xlink="http://www.w3.org/1999/xlink" height="126.15px" width="170.85px" xmlns="http://www.w3.org/2000/svg">
  <g transform="matrix(1.0, 0.0, 0.0, 1.0, 53.05, 31.95)">
    <path d="M-46.3 42.1 L-48.7 38.7 -52.55 22.2 -49.2 7.95 -39.7 -5.15 -25.7 -16.3 Q9.8 -38.25 56.3 -29.4 L72.2 -25.05 90.2 -16.4 104.45 -5.15 113.8 7.95 117.2 22.1 113.55 37.95 Q114.35 37.65 110.95 42.1 L105.2 49.85 103.8 51.85 89.05 63.1 76.05 68.95 66.8 70.95 58.7 73.6 54.95 75.45 Q38.3 80.95 9.7 75.45 L6.05 73.6 -1.45 71.1 -11.2 69.1 -11.3 68.95 -11.45 68.95 -24.45 63.1 -38.45 52.45 -40.55 49.85 -46.3 42.1" fill="#b19771" fill-rule="evenodd" stroke="none"/>
    <path d="M76.05 68.95 Q83.75 67.8 98.2 70.2 L109.8 74.35 Q121.85 82.5 115.7 92.45 L111.7 93.7 101.05 94.2 84.8 93.1 50.55 89.45 50.45 89.35 Q44.25 89.25 46.8 83.95 L49.2 80.2 Q51.3 77.6 54.95 75.45 L58.7 73.6 66.8 70.95 76.05 68.95 M9.7 75.45 L12.95 77.7 Q16.25 80.55 17.3 82.95 L18.45 86.6 18.2 87.95 16.7 88.95 Q-33.25 95.65 -47.95 93.6 -53.7 93.75 -52.95 84.7 -53.25 83.65 -51.3 79.85 L-45.2 74.35 -34.2 70.35 Q-18.8 67.75 -11.45 68.95 L-11.3 68.95 -11.2 69.1 -1.45 71.1 6.05 73.6 9.7 75.45" fill="#573f70" fill-rule="evenodd" stroke="none"/>
    <path d="M110.95 42.1 Q115.45 48.7 112.95 56.35 L112.05 56.95 110.8 56.85 109.7 55.85 105.2 49.85 110.95 42.1 M-40.55 49.85 L-45.55 56.35 -46.55 56.95 -47.45 56.95 -48.3 56.35 Q-51.3 51.95 -46.3 42.1 L-40.55 49.85" fill="#5f3f2a" fill-rule="evenodd" stroke="none"/>
  </g>
</svg>
