<?xml version="1.0" encoding="UTF-8" standalone="no"?>
<svg xmlns:xlink="http://www.w3.org/1999/xlink" height="480.5px" width="715.0px" xmlns="http://www.w3.org/2000/svg">
  <g transform="matrix(1.0, 0.0, 0.0, 1.0, 45.95, 46.0)">
    <path d="M199.95 181.1 Q196.8 182.45 198.65 180.95 L183.45 191.95 204.35 190.95 Q218.3 189.3 212.7 198.25 L208.7 205.7 237.15 195.2 Q246.15 192.2 257.45 198.0 268.75 203.8 280.25 203.45 L276.95 202.2 Q269.55 197.25 274.95 195.2 L297.2 199.35 Q283.05 184.95 276.85 172.5 L275.1 171.75 Q265.8 168.0 243.2 168.45 220.55 168.85 213.05 173.75 205.5 178.6 199.95 181.1 M515.45 85.45 Q515.45 88.6 519.85 90.75 524.35 92.95 530.45 92.95 536.6 92.95 541.05 90.75 545.45 88.6 545.45 85.45 545.45 82.3 541.05 80.15 536.6 77.95 530.45 77.95 524.35 77.95 519.85 80.15 515.45 82.3 515.45 85.45 M20.95 -46.0 L669.05 -46.0 669.05 249.9 599.9 249.9 599.9 251.9 577.9 251.9 577.9 372.9 578.9 372.9 578.9 375.9 598.9 375.9 598.9 376.9 669.05 376.9 669.05 434.5 -45.95 434.5 -45.95 11.95 -29.05 11.95 -29.05 12.95 21.95 12.95 20.95 -46.0" fill="#000000" fill-opacity="0.2" fill-rule="evenodd" stroke="none"/>
  </g>
</svg>
