<?xml version="1.0" encoding="UTF-8" standalone="no"?>
<svg xmlns:xlink="http://www.w3.org/1999/xlink" height="480.5px" width="715.0px" xmlns="http://www.w3.org/2000/svg">
  <g transform="matrix(1.0, 0.0, 0.0, 1.0, 45.95, 46.0)">
    <path d="M20.95 -46.0 L669.05 -46.0 669.05 434.5 -45.95 434.5 -45.95 11.95 -29.05 11.95 -29.05 12.95 21.95 12.95 20.95 -46.0 M198.65 180.95 L183.45 191.95 204.35 190.95 Q218.3 189.3 212.7 198.25 L208.7 205.7 228.4 182.45 Q242.85 173.4 255.8 188.6 268.75 203.8 280.25 203.45 L276.95 202.2 Q269.55 197.25 274.95 195.2 L297.2 199.35 Q283.05 184.95 276.85 172.5 L275.1 171.75 Q265.8 168.0 243.2 168.45 220.55 168.85 213.05 173.75 205.5 178.6 199.95 181.1 196.8 182.45 198.65 180.95 M541.05 120.75 Q545.45 118.55 545.45 115.45 545.45 112.35 541.05 110.15 536.65 107.95 530.45 107.95 524.25 107.95 519.85 110.15 515.45 112.35 515.45 115.45 515.45 118.55 519.85 120.75 524.25 122.95 530.45 122.95 536.65 122.95 541.05 120.75" fill="#000000" fill-opacity="0.2" fill-rule="evenodd" stroke="none"/>
  </g>
</svg>
