<?xml version="1.0" encoding="UTF-8" standalone="no"?>
<svg xmlns:xlink="http://www.w3.org/1999/xlink" height="369.45px" width="603.35px" xmlns="http://www.w3.org/2000/svg">
  <g transform="matrix(1.0, 0.0, 0.0, 1.0, 1.2, 30.65)">
    <path d="M425.45 -30.65 L425.95 72.05 422.4 72.1 Q422.85 76.8 424.7 81.0 427.1 86.65 431.4 90.95 435.7 95.25 441.35 97.65 447.0 100.05 453.55 100.1 L453.85 100.1 453.85 102.3 601.9 101.6 602.15 150.25 575.95 150.4 571.95 150.4 569.95 150.4 567.95 150.45 561.95 150.45 552.95 150.5 537.95 150.6 536.95 150.6 510.95 150.7 505.95 150.75 500.95 150.75 495.95 150.8 494.95 150.8 493.95 150.8 488.95 150.8 463.95 150.95 453.45 151.0 453.45 149.05 Q440.15 149.0 428.15 144.95 416.15 140.9 406.15 133.55 396.15 126.2 388.8 116.2 381.45 106.15 377.4 94.15 373.35 82.15 373.3 68.8 L377.3 68.8 376.8 -30.4 425.45 -30.65" fill="#c7bf57" fill-rule="evenodd" stroke="none"/>
    <path d="M240.15 175.0 L266.75 189.1 267.0 258.15 266.7 258.15 266.7 258.3 Q266.65 271.6 262.6 283.65 258.55 295.65 251.2 305.65 243.85 315.65 233.85 323.05 223.8 330.4 211.8 334.4 199.8 338.45 186.45 338.5 L186.45 337.5 185.9 338.55 -1.15 338.8 -1.2 290.15 186.45 289.9 186.45 289.6 Q193.0 289.55 198.65 287.15 204.3 284.7 208.6 280.4 212.9 276.15 215.3 270.45 217.7 264.8 217.75 258.3 L217.75 257.95 218.35 257.95 218.1 186.55 240.15 175.0" fill="#6ea60f" fill-rule="evenodd" stroke="none"/>
  </g>
</svg>
