<?xml version="1.0" encoding="UTF-8" standalone="no"?>
<svg xmlns:xlink="http://www.w3.org/1999/xlink" height="480.5px" width="715.0px" xmlns="http://www.w3.org/2000/svg">
  <g transform="matrix(1.0, 0.0, 0.0, 1.0, 45.95, 46.0)">
    <path d="M248.0 279.95 L246.95 279.6 246.95 279.5 253.5 281.4 Q252.0 281.3 248.0 279.95 M244.9 293.25 Q259.3 289.5 262.45 285.45 263.05 284.7 262.9 284.1 L305.95 296.45 379.45 284.95 287.95 241.95 216.7 269.95 216.45 269.95 216.45 270.05 215.45 270.45 216.45 270.75 216.45 273.25 Q205.35 273.1 190.65 277.2 173.0 282.1 175.2 289.75 177.35 297.35 191.45 298.4 205.5 299.45 218.0 298.2 230.45 296.95 244.9 293.25 M91.95 210.95 Q91.95 207.2 86.65 204.55 81.4 201.95 73.95 201.95 66.5 201.95 61.2 204.55 55.95 207.2 55.95 210.95 55.95 214.7 61.2 217.3 66.5 219.95 73.95 219.95 81.4 219.95 86.65 217.3 91.95 214.7 91.95 210.95 M200.9 83.95 Q200.9 80.2 195.65 77.55 190.4 74.95 182.95 74.95 175.5 74.95 170.25 77.55 165.0 80.2 165.0 83.95 165.0 87.7 170.25 90.3 175.5 92.95 182.95 92.95 190.4 92.95 195.65 90.3 200.9 87.7 200.9 83.95 M348.45 365.55 L350.15 343.45 270.95 343.45 267.95 366.45 348.45 365.55 M427.95 241.95 L436.95 265.45 Q475.4 273.4 521.95 266.95 L528.45 241.95 427.95 241.95 M460.9 46.95 Q460.9 42.8 455.9 39.85 450.95 36.95 443.9 36.95 436.85 36.95 431.85 39.85 426.9 42.8 426.9 46.95 426.9 51.1 431.85 54.0 436.85 56.95 443.9 56.95 450.95 56.95 455.9 54.0 460.9 51.1 460.9 46.95 M669.05 197.95 L669.05 327.9 589.9 327.9 586.4 375.45 349.95 382.25 349.95 434.5 141.9 434.5 141.9 363.85 199.45 364.45 200.45 350.45 16.95 351.95 16.95 250.95 -8.5 250.95 54.35 198.95 118.95 198.95 118.95 189.45 43.95 189.45 43.95 193.15 -23.75 249.1 -22.2 250.95 -45.95 250.95 -45.95 -46.0 669.05 -46.0 669.05 185.95 172.95 185.95 172.95 197.95 669.05 197.95" fill="#000000" fill-opacity="0.2" fill-rule="evenodd" stroke="none"/>
  </g>
</svg>
