<?xml version="1.0" encoding="UTF-8" standalone="no"?>
<svg xmlns:xlink="http://www.w3.org/1999/xlink" height="141.25px" width="170.85px" xmlns="http://www.w3.org/2000/svg">
  <g transform="matrix(1.0, 0.0, 0.0, 1.0, 53.15, 48.15)">
    <path d="M-45.3 24.2 L-45.3 24.1 Q-56.55 -5.6 -23.3 -31.05 L-6.55 -40.15 14.05 -46.4 32.3 -48.15 Q53.8 -47.35 64.3 -42.3 66.85 -43.35 87.7 -31.15 L101.55 -18.65 110.05 -4.55 112.8 9.85 112.55 12.35 109.8 24.2 109.05 27.95 106.55 31.95 99.95 42.1 Q85.6 56.1 74.55 59.6 L66.8 60.7 58.2 63.2 Q53.35 65.25 51.8 67.1 37.8 71.8 12.8 67.1 11.95 65.55 6.05 63.1 L-2.05 60.7 -9.95 59.6 Q-21.0 56.05 -35.3 42.1 L-41.95 31.95 -44.45 27.95 -45.2 24.2 -45.3 24.2" fill="#b19771" fill-rule="evenodd" stroke="none"/>
    <path d="M109.8 24.2 Q117.6 31.2 117.7 37.7 115.8 39.1 113.95 37.45 L106.55 31.95 109.05 27.95 109.8 24.2 M-41.95 31.95 L-49.3 37.45 Q-51.2 39.1 -53.05 37.7 -53.95 32.95 -45.3 24.2 L-45.2 24.2 -44.45 27.95 -41.95 31.95" fill="#5f3f2a" fill-rule="evenodd" stroke="none"/>
    <path d="M74.55 59.6 Q93.35 58.8 108.95 71.1 L114.8 78.45 116.3 81.85 117.2 86.7 116.95 88.85 114.8 91.2 113.2 91.95 Q100.05 96.75 49.45 81.35 41.25 79.7 51.8 67.1 53.35 65.25 58.2 63.2 L66.8 60.7 74.55 59.6 M12.8 67.1 Q23.0 78.5 15.45 81.2 -18.5 93.75 -48.2 92.1 -58.4 88.85 -44.3 71.1 -31.5 59.85 -9.95 59.6 L-2.05 60.7 6.05 63.1 Q11.95 65.55 12.8 67.1" fill="#573f70" fill-rule="evenodd" stroke="none"/>
  </g>
</svg>
