<?xml version="1.0" encoding="UTF-8" standalone="no"?>
<svg xmlns:xlink="http://www.w3.org/1999/xlink" height="480.5px" width="709.85px" xmlns="http://www.w3.org/2000/svg">
  <g transform="matrix(1.0, 0.0, 0.0, 1.0, 45.95, 46.0)">
    <path d="M273.5 335.25 Q275.7 333.95 275.7 332.1 275.7 330.25 273.5 328.9 271.3 327.6 268.25 327.6 265.15 327.6 262.95 328.9 260.8 330.25 260.8 332.1 260.8 334.0 262.95 335.25 265.15 336.6 268.25 336.6 271.35 336.6 273.5 335.25 M181.1 224.7 Q178.95 224.7 177.35 225.85 175.8 227.05 175.8 228.7 175.8 230.4 177.35 231.5 178.95 232.7 181.1 232.7 183.3 232.7 184.85 231.5 186.4 230.4 186.4 228.7 186.4 227.05 184.85 225.85 183.25 224.7 181.1 224.7 M268.55 215.2 Q270.6 214.15 270.6 212.6 270.6 211.1 268.55 209.95 266.55 208.9 263.7 208.9 260.85 208.9 258.8 209.95 256.8 211.05 256.8 212.6 256.8 214.15 258.8 215.2 260.8 216.3 263.7 216.3 266.55 216.3 268.55 215.2 M64.05 372.65 Q69.2 375.0 76.45 375.0 83.7 375.0 88.8 372.65 93.95 370.35 93.95 367.05 93.95 363.75 88.8 361.4 83.7 359.1 76.45 359.1 69.2 359.1 64.05 361.4 58.95 363.75 58.95 367.05 58.95 370.35 64.05 372.65 M57.75 235.25 Q62.1 233.1 62.1 230.0 62.1 226.9 57.75 224.7 53.4 222.55 47.25 222.55 41.1 222.55 36.75 224.7 32.4 226.9 32.4 230.0 32.4 233.1 36.75 235.25 41.1 237.45 47.25 237.45 53.4 237.45 57.75 235.25 M415.25 192.5 L410.1 139.65 Q370.0 124.45 334.15 140.2 L326.7 226.8 Q311.15 237.25 311.8 257.1 312.65 277.8 341.05 304.35 L385.7 337.85 Q425.55 381.2 491.35 402.7 L491.35 434.5 21.95 434.5 21.95 328.05 4.95 328.05 4.95 327.05 -45.95 327.05 -45.95 199.0 44.45 199.0 44.45 184.5 -45.95 184.5 -45.95 -46.0 333.6 -46.0 333.6 98.8 Q373.5 84.4 409.55 98.8 L409.55 -46.0 663.9 -46.0 663.9 192.5 415.25 192.5 M466.45 38.8 Q460.7 36.0 452.55 36.0 444.4 36.0 438.6 38.8 432.85 41.6 432.85 45.6 432.85 49.6 438.6 52.4 444.4 55.2 452.55 55.2 460.7 55.2 466.45 52.4 472.25 49.6 472.25 45.6 472.25 41.6 466.45 38.8" fill="#73420a" fill-opacity="0.2" fill-rule="evenodd" stroke="none"/>
  </g>
</svg>
