<?xml version="1.0" encoding="UTF-8" standalone="no"?>
<svg xmlns:xlink="http://www.w3.org/1999/xlink" height="218.9px" width="462.3px" xmlns="http://www.w3.org/2000/svg">
  <g transform="matrix(1.0, 0.0, 0.0, 1.0, 0.0, 0.0)">
    <path d="M460.35 5.6 L461.15 5.6 461.35 10.7 Q461.5 12.55 461.75 13.45 L462.15 15.05 462.3 16.7 462.3 218.9 313.1 218.9 308.25 216.55 295.05 209.9 275.6 199.45 Q264.6 193.35 252.0 185.75 239.4 178.15 226.25 169.3 213.1 160.5 200.5 150.7 187.85 140.9 176.75 130.4 165.65 119.9 157.1 108.95 148.6 98.0 143.65 86.9 141.35 80.05 141.25 73.75 141.15 67.45 142.4 61.75 143.65 56.05 145.45 51.0 L148.75 41.6 Q150.3 37.25 150.75 33.65 151.2 30.05 149.75 27.3 148.25 24.5 144.1 22.6 139.95 20.7 132.25 19.7 L125.25 19.05 Q107.75 19.75 94.05 22.15 74.8 25.5 62.05 31.55 49.3 37.65 42.15 45.95 35.0 54.2 32.55 64.15 30.05 74.1 31.4 85.1 32.8 96.15 37.1 107.7 41.35 119.3 47.7 130.85 54.05 142.45 61.6 153.5 69.1 164.5 76.9 174.45 84.7 184.35 91.85 192.65 99.05 200.95 104.75 207.05 L113.8 216.45 116.15 218.8 76.5 218.9 72.9 214.65 63.5 202.85 50.3 185.0 Q43.05 174.75 35.45 162.65 27.85 150.55 21.0 137.3 14.1 124.05 8.95 110.4 3.85 96.8 1.45 83.55 -0.9 70.3 0.55 58.15 2.0 46.05 8.3 35.8 14.6 25.6 26.8 18.0 38.95 10.4 58.05 6.2 77.15 2.0 104.2 1.9 L124.25 1.85 138.0 1.8 147.45 1.65 154.65 1.5 161.7 1.3 170.7 1.05 183.65 0.85 202.6 0.65 229.7 0.45 266.95 0.25 316.45 0.1 380.2 0.05 460.35 0.0 460.35 5.6 M461.15 25.1 L422.55 25.15 393.3 25.25 371.6 25.4 355.75 25.6 344.05 25.8 334.7 26.05 326.0 26.25 316.25 26.45 303.65 26.6 290.35 26.7 284.15 27.6 Q280.3 28.55 278.65 29.85 276.95 31.15 276.8 32.55 276.6 33.95 277.15 35.15 L278.4 37.15 279.15 37.9 188.65 52.4 189.15 50.95 189.9 47.45 Q190.25 45.4 189.9 43.35 189.55 41.35 188.05 40.05 186.55 38.75 183.35 38.95 180.55 39.1 176.2 40.8 169.15 44.65 165.15 49.45 159.3 56.4 158.9 64.85 158.5 73.25 162.6 82.75 166.65 92.25 174.25 102.35 181.8 112.5 191.9 122.8 202.0 133.15 213.6 143.25 225.2 153.35 237.35 162.85 249.5 172.35 261.2 180.75 L283.15 196.15 Q293.4 203.15 301.3 208.2 L313.6 216.05 318.15 218.85 461.15 218.85 461.15 25.1" fill="#9c5712" fill-rule="evenodd" stroke="none"/>
  </g>
</svg>
