<?xml version="1.0" encoding="UTF-8" standalone="no"?>
<svg xmlns:xlink="http://www.w3.org/1999/xlink" height="269.7px" width="111.1px" xmlns="http://www.w3.org/2000/svg">
  <g transform="matrix(1.0, 0.0, 0.0, 1.0, 55.55, 134.85)">
    <path d="M-55.55 -134.85 L15.85 -134.85 15.85 62.95 20.2 72.55 Q18.35 68.75 19.9 72.15 L25.35 83.45 Q29.2 91.3 34.7 101.3 40.2 111.25 46.4 120.45 51.0 127.35 55.55 132.45 L-24.15 132.45 Q-29.35 137.55 -38.9 131.8 -48.5 126.05 -51.25 104.1 -54.05 82.15 -55.55 62.95 L-55.55 55.15 -55.55 33.6 -55.55 8.15 -55.55 -19.5 -55.55 -47.55 -55.55 -74.4 -55.55 -98.25 -55.55 -117.45 -55.55 -130.2 -55.55 -134.85" fill="#244fc4" fill-rule="evenodd" stroke="none"/>
  </g>
</svg>
