<?xml version="1.0" encoding="UTF-8" standalone="no"?>
<svg xmlns:xlink="http://www.w3.org/1999/xlink" height="148.15px" width="173.3px" xmlns="http://www.w3.org/2000/svg">
  <g transform="matrix(1.0, 0.0, 0.0, 1.0, 54.35, 64.8)">
    <path d="M-42.3 4.6 L-42.2 4.45 -43.3 -1.8 -40.95 -17.65 -33.3 -32.9 -20.95 -46.15 -5.05 -56.15 Q32.75 -73.95 71.3 -55.15 L85.2 -46.4 97.95 -32.9 105.55 -17.65 107.95 -1.8 106.8 4.6 105.2 12.45 Q101.45 34.15 75.7 49.6 63.25 50.0 49.05 59.7 38.05 63.95 15.55 59.7 2.1 50.25 -11.05 49.6 -36.8 34.15 -40.55 12.45 L-42.2 4.6 -42.3 4.6" fill="#b19771" fill-rule="evenodd" stroke="none"/>
    <path d="M106.8 4.6 Q131.85 24.65 105.2 12.45 L106.8 4.6 M-40.55 12.45 Q-67.2 24.4 -42.3 4.6 L-42.2 4.6 -40.55 12.45" fill="#5f3f2a" fill-rule="evenodd" stroke="none"/>
    <path d="M75.7 49.6 Q89.1 48.95 108.3 61.85 L114.05 68.6 115.95 72.6 117.05 78.1 116.7 79.6 114.7 81.85 113.45 82.45 Q97.05 86.25 53.7 74.35 L48.95 72.45 Q47.0 71.5 45.8 69.85 44.7 65.9 49.05 59.7 63.25 50.0 75.7 49.6 M15.55 59.7 Q24.05 70.45 12.55 73.7 -27.0 85.6 -48.8 82.45 -53.7 80.05 -52.05 75.7 L-50.2 69.85 Q-48.8 67.15 -43.95 62.2 L-41.3 60.2 -32.55 54.85 Q-19.8 49.45 -11.05 49.6 2.1 50.25 15.55 59.7" fill="#573f70" fill-rule="evenodd" stroke="none"/>
  </g>
</svg>
