<?xml version="1.0" encoding="UTF-8" standalone="no"?>
<svg xmlns:xlink="http://www.w3.org/1999/xlink" height="16.3px" width="23.7px" xmlns="http://www.w3.org/2000/svg">
  <g transform="matrix(1.0, 0.0, 0.0, 1.0, 11.85, 8.15)">
    <path d="M10.3 -3.15 Q11.45 -3.05 11.8 -2.5 12.0 -2.05 11.35 -1.55 L9.75 -0.5 7.85 0.55 Q7.0 1.1 6.7 1.6 6.45 2.3 7.0 3.65 L8.0 6.25 Q8.4 7.5 7.8 8.0 7.1 8.4 5.85 7.75 L3.05 6.3 Q1.45 5.5 -0.4 5.25 L-3.2 5.65 Q-4.65 6.15 -5.95 6.8 L-8.25 7.8 -9.9 7.6 Q-10.5 6.95 -9.9 5.8 L-8.55 3.45 Q-7.75 2.2 -7.75 1.4 -7.85 0.85 -8.6 0.0 L-10.25 -1.75 -11.6 -3.3 Q-12.1 -4.0 -11.65 -4.2 L-9.2 -4.35 -6.75 -3.75 Q-5.55 -3.45 -4.6 -3.75 -3.65 -4.2 -2.75 -5.2 L-1.05 -7.15 Q-0.2 -8.1 0.75 -8.15 1.65 -8.1 2.3 -7.0 L3.6 -4.75 Q4.3 -3.6 5.3 -3.35 L7.75 -3.2 10.3 -3.15" fill="#e82900" fill-rule="evenodd" stroke="none"/>
    <path d="M-11.55 -3.95 L-10.4 -3.4 -8.15 -2.25 -6.65 -1.05 Q-6.45 -0.55 -6.85 0.45 L-7.75 2.25 -8.3 3.1 -8.05 2.3 Q-7.85 1.5 -8.05 0.8 -8.3 0.25 -9.15 -0.6 L-10.85 -2.3 -11.85 -3.65 -11.75 -4.0 -11.55 -3.95" fill="#ab3000" fill-rule="evenodd" stroke="none"/>
    <path d="M7.45 8.15 Q6.65 8.2 5.4 7.5 L2.6 6.1 Q1.1 5.35 -0.5 5.25 -2.1 5.25 -3.7 5.85 L-6.6 7.05 Q-7.85 7.7 -8.35 7.75 L-7.05 6.8 -4.0 4.85 Q-2.2 3.85 -0.85 3.7 L1.6 4.05 4.45 5.1 Q5.9 5.75 6.75 6.6 7.65 7.4 7.45 8.15" fill="#ab3000" fill-rule="evenodd" stroke="none"/>
  </g>
</svg>
