<?xml version="1.0" encoding="UTF-8" standalone="no"?>
<svg xmlns:xlink="http://www.w3.org/1999/xlink" height="153.75px" width="167.3px" xmlns="http://www.w3.org/2000/svg">
  <g transform="matrix(1.0, 0.0, 0.0, 1.0, 51.55, 81.4)">
    <path d="M-37.8 -15.4 L-37.7 -15.55 -36.05 -30.05 -29.45 -46.4 -17.95 -61.15 -1.8 -73.05 14.8 -79.55 Q14.85 -80.35 31.7 -81.4 L39.8 -80.9 Q44.85 -82.55 66.2 -73.15 L82.55 -61.15 94.05 -46.4 100.7 -30.05 102.3 -15.4 102.7 -13.05 101.95 -7.55 99.2 8.7 92.45 23.35 Q79.8 39.6 76.7 40.85 L64.55 44.85 51.3 50.85 46.55 54.45 Q37.6 58.2 17.95 54.45 L17.85 54.05 Q17.95 54.75 13.55 50.95 L0.95 45.2 Q-6.55 42.15 -12.05 40.85 L-15.8 37.85 -27.05 24.85 -34.45 9.2 -37.3 -7.55 -38.05 -12.05 -37.7 -15.4 -37.8 -15.4" fill="#b19771" fill-rule="evenodd" stroke="none"/>
    <path d="M102.3 -15.4 Q129.25 -2.1 101.95 -7.55 L102.7 -13.05 102.3 -15.4 M-37.3 -7.55 Q-64.55 -2.35 -37.8 -15.4 L-37.7 -15.4 -38.05 -12.05 -37.3 -7.55" fill="#5f3f2a" fill-rule="evenodd" stroke="none"/>
    <path d="M76.7 40.85 Q95.5 43.45 106.55 52.6 119.95 65.5 113.8 71.2 112.3 72.15 107.3 72.35 L96.05 72.2 75.7 69.95 54.2 66.45 Q40.5 65.2 46.55 54.45 L51.3 50.85 64.55 44.85 76.7 40.85 M17.95 54.45 Q22.3 62.4 15.7 65.1 -30.45 74.5 -48.05 71.7 L-50.95 69.85 -51.55 67.7 Q-49.8 59.4 -45.05 55.35 -34.3 44.1 -12.05 40.85 -6.55 42.15 0.95 45.2 L13.55 50.95 Q17.95 54.75 17.85 54.05 L17.95 54.45" fill="#573f70" fill-rule="evenodd" stroke="none"/>
  </g>
</svg>
