<?xml version="1.0" encoding="UTF-8" standalone="no"?>
<svg xmlns:xlink="http://www.w3.org/1999/xlink" height="67.3px" width="95.9px" xmlns="http://www.w3.org/2000/svg">
  <g transform="matrix(1.0, 0.0, 0.0, 1.0, 0.0, 0.0)">
    <path d="M63.3 62.6 Q55.45 64.25 43.75 64.9 L24.45 64.1 Q16.8 62.8 12.5 60.75 8.15 58.75 6.4 57.2 L4.7 55.5 7.0 53.7 12.1 49.3 19.4 43.5 Q23.5 40.45 28.2 37.65 32.95 34.9 37.95 33.1 42.9 31.35 47.85 31.15 51.75 31.1 55.95 32.75 60.15 34.35 64.25 36.95 68.35 39.55 71.95 42.5 L78.35 48.1 82.75 52.4 84.35 54.15 82.4 55.6 Q80.45 57.0 75.8 58.95 71.15 60.9 63.3 62.6" fill="#142b61" fill-rule="evenodd" stroke="none"/>
    <path d="M31.35 66.5 L31.0 66.15 Q30.7 65.8 30.2 65.6 L29.2 65.65 27.65 66.35 26.85 66.5 26.85 50.5 31.35 50.5 31.35 66.5" fill="#ffffff" fill-rule="evenodd" stroke="none"/>
    <path d="M66.55 67.3 L66.2 66.95 Q65.9 66.6 65.4 66.4 L64.4 66.45 62.85 67.15 62.05 67.3 62.05 51.3 66.55 51.3 66.55 67.3" fill="#ffffff" fill-rule="evenodd" stroke="none"/>
    <path d="M26.9 62.35 L26.75 51.15 31.3 50.6 31.3 52.55 31.3 57.0 31.3 61.9 Q30.05 61.2 29.05 61.35 28.05 61.5 27.5 61.9 L26.9 62.35" fill="#bdbdbd" fill-rule="evenodd" stroke="none"/>
    <path d="M66.65 63.4 L66.0 63.0 Q65.4 62.6 64.4 62.5 63.4 62.4 62.2 63.15 L62.0 58.25 61.85 53.8 61.75 51.85 66.3 52.2 66.65 63.4" fill="#bdbdbd" fill-rule="evenodd" stroke="none"/>
    <path d="M48.85 66.7 L48.5 66.35 Q48.2 66.0 47.7 65.8 L46.7 65.85 45.15 66.55 44.35 66.7 44.35 50.7 48.85 50.7 48.85 66.7" fill="#ffffff" fill-rule="evenodd" stroke="none"/>
    <path d="M48.95 60.45 L48.3 60.05 Q47.7 59.65 46.7 59.55 45.7 59.45 44.5 60.2 L44.3 55.3 44.15 50.85 44.05 48.9 48.6 49.25 48.95 60.45" fill="#bdbdbd" fill-rule="evenodd" stroke="none"/>
    <path d="M94.75 9.1 L91.65 8.4 83.55 6.7 72.25 4.7 59.5 3.05 47.05 2.3 34.65 3.0 22.05 4.7 10.95 6.7 3.0 8.4 0.0 9.1 0.0 6.8 3.95 5.75 Q7.8 4.7 14.4 3.4 21.05 2.05 29.35 1.05 L46.75 0.0 60.9 0.7 73.95 2.4 84.7 4.4 92.05 6.05 94.75 6.8 94.75 9.1" fill="#7d7d7d" fill-rule="evenodd" stroke="none"/>
    <path d="M6.7 22.4 L3.2 22.4 3.2 6.15 6.7 6.15 6.7 22.4" fill="#7d7d7d" fill-rule="evenodd" stroke="none"/>
    <path d="M7.8 22.4 L4.3 22.4 4.3 6.15 7.8 6.15 7.8 22.4" fill="#ffffff" fill-rule="evenodd" stroke="none"/>
    <path d="M25.1 19.15 L21.6 19.15 21.6 2.9 25.1 2.9 25.1 19.15" fill="#7d7d7d" fill-rule="evenodd" stroke="none"/>
    <path d="M26.2 19.15 L22.7 19.15 22.7 2.9 26.2 2.9 26.2 19.15" fill="#ffffff" fill-rule="evenodd" stroke="none"/>
    <path d="M48.15 16.95 L44.65 16.95 44.65 0.7 48.15 0.7 48.15 16.95" fill="#7d7d7d" fill-rule="evenodd" stroke="none"/>
    <path d="M49.25 16.95 L45.75 16.95 45.75 0.7 49.25 0.7 49.25 16.95" fill="#ffffff" fill-rule="evenodd" stroke="none"/>
    <path d="M68.6 19.35 L65.1 19.35 65.1 3.1 68.6 3.1 68.6 19.35" fill="#7d7d7d" fill-rule="evenodd" stroke="none"/>
    <path d="M69.7 19.35 L66.2 19.35 66.2 3.1 69.7 3.1 69.7 19.35" fill="#ffffff" fill-rule="evenodd" stroke="none"/>
    <path d="M87.25 21.55 L83.75 21.55 83.75 5.3 87.25 5.3 87.25 21.55" fill="#7d7d7d" fill-rule="evenodd" stroke="none"/>
    <path d="M88.35 21.55 L84.85 21.55 84.85 5.3 88.35 5.3 88.35 21.55" fill="#ffffff" fill-rule="evenodd" stroke="none"/>
    <path d="M95.9 9.35 L92.8 8.65 84.7 6.95 73.4 4.95 60.65 3.3 48.2 2.55 35.8 3.25 23.2 4.95 12.1 6.95 4.15 8.65 1.15 9.35 1.15 7.05 5.1 6.0 Q8.95 4.95 15.55 3.65 22.2 2.3 30.5 1.3 L47.9 0.25 62.05 0.95 75.1 2.65 85.85 4.65 93.2 6.3 95.9 7.05 95.9 9.35" fill="#ffffff" fill-rule="evenodd" stroke="none"/>
    <path d="M0.6 63.6 L0.8 22.85 3.0 22.05 7.5 20.55 6.95 61.4 2.25 62.95 0.6 63.6" fill="#7d7d7d" fill-rule="evenodd" stroke="none"/>
    <path d="M9.3 20.05 L16.35 18.2 15.5 59.1 Q11.25 60.1 8.1 61.05 L9.3 20.05" fill="#7d7d7d" fill-rule="evenodd" stroke="none"/>
    <path d="M18.05 17.8 L24.7 16.5 24.15 57.3 17.15 58.65 18.05 17.8" fill="#7d7d7d" fill-rule="evenodd" stroke="none"/>
    <path d="M26.1 16.3 L32.4 15.45 32.35 56.15 25.7 57.05 26.1 16.3" fill="#7d7d7d" fill-rule="evenodd" stroke="none"/>
    <path d="M34.15 15.25 L42.4 14.7 41.0 55.4 33.75 55.95 34.15 15.25" fill="#7d7d7d" fill-rule="evenodd" stroke="none"/>
    <path d="M46.35 14.65 L50.9 14.75 50.3 55.35 46.6 55.3 43.4 55.35 44.3 14.65 46.35 14.65" fill="#7d7d7d" fill-rule="evenodd" stroke="none"/>
    <path d="M52.75 14.8 L59.7 15.35 58.85 55.9 51.6 55.4 52.75 14.8" fill="#7d7d7d" fill-rule="evenodd" stroke="none"/>
    <path d="M61.35 15.55 L67.9 16.5 67.35 57.0 60.45 56.05 61.35 15.55" fill="#7d7d7d" fill-rule="evenodd" stroke="none"/>
    <path d="M69.35 16.75 L75.65 18.05 75.6 58.65 68.95 57.3 69.35 16.75" fill="#7d7d7d" fill-rule="evenodd" stroke="none"/>
    <path d="M77.35 18.45 Q82.0 19.6 85.35 20.65 L83.95 60.85 76.95 58.95 77.35 18.45" fill="#7d7d7d" fill-rule="evenodd" stroke="none"/>
    <path d="M91.85 22.95 L91.85 63.6 Q91.8 63.55 90.5 63.05 L86.65 61.7 87.05 21.2 90.6 22.45 91.85 22.95" fill="#7d7d7d" fill-rule="evenodd" stroke="none"/>
    <path d="M1.6 62.6 L1.8 21.85 4.0 21.05 8.5 19.55 7.95 60.4 3.25 61.95 Q1.6 62.55 1.6 62.6" fill="#ffffff" fill-rule="evenodd" stroke="none"/>
    <path d="M10.3 19.05 Q13.4 18.15 17.35 17.2 L16.5 58.1 Q12.25 59.1 9.1 60.05 L10.3 19.05" fill="#ffffff" fill-rule="evenodd" stroke="none"/>
    <path d="M19.05 16.8 L25.7 15.5 25.15 56.3 18.15 57.65 19.05 16.8" fill="#ffffff" fill-rule="evenodd" stroke="none"/>
    <path d="M27.1 15.3 L33.4 14.45 33.35 55.15 26.7 56.05 27.1 15.3" fill="#ffffff" fill-rule="evenodd" stroke="none"/>
    <path d="M35.15 14.25 L43.4 13.7 42.0 54.4 34.75 54.95 35.15 14.25" fill="#ffffff" fill-rule="evenodd" stroke="none"/>
    <path d="M47.35 13.65 L51.9 13.75 51.3 54.35 47.6 54.3 44.4 54.35 45.3 13.65 47.35 13.65" fill="#ffffff" fill-rule="evenodd" stroke="none"/>
    <path d="M53.75 13.8 L60.7 14.35 59.85 54.9 52.6 54.4 53.75 13.8" fill="#ffffff" fill-rule="evenodd" stroke="none"/>
    <path d="M62.35 14.55 L68.9 15.5 68.35 56.0 61.45 55.05 62.35 14.55" fill="#ffffff" fill-rule="evenodd" stroke="none"/>
    <path d="M70.35 15.75 L76.65 17.05 76.6 57.65 69.95 56.3 70.35 15.75" fill="#ffffff" fill-rule="evenodd" stroke="none"/>
    <path d="M78.35 17.45 L86.35 19.65 84.95 59.85 77.95 57.95 78.35 17.45" fill="#ffffff" fill-rule="evenodd" stroke="none"/>
    <path d="M92.85 21.95 L92.85 62.6 91.5 62.05 87.65 60.7 88.05 20.2 91.6 21.45 92.85 21.95" fill="#ffffff" fill-rule="evenodd" stroke="none"/>
  </g>
</svg>
