<?xml version="1.0" encoding="UTF-8" standalone="no"?>
<svg xmlns:xlink="http://www.w3.org/1999/xlink" height="41.75px" width="81.7px" xmlns="http://www.w3.org/2000/svg">
  <g transform="matrix(1.0, 0.0, 0.0, 1.0, -210.7, -228.6)">
    <path d="M222.05 245.05 L210.7 234.9 245.05 229.35 258.0 238.75 222.05 245.05 M273.45 250.05 L290.05 262.1 250.4 270.35 240.4 261.4 238.75 260.4 234.95 258.05 230.65 255.15 227.55 252.6 Q227.1 252.1 226.9 251.25 L226.6 249.75 226.55 249.05 222.4 245.4 258.4 239.1 273.0 249.7 251.7 253.85 273.45 250.05" fill="#52330c" fill-rule="evenodd" stroke="none"/>
    <path d="M251.55 231.6 L216.7 237.4 213.05 234.15 247.4 228.6 251.55 231.6" fill="#244fc4" fill-rule="evenodd" stroke="none"/>
    <path d="M255.9 234.75 L220.5 240.75 216.7 237.4 251.55 231.6 255.9 234.75" fill="#ffe000" fill-rule="evenodd" stroke="none"/>
    <path d="M260.3 238.0 L224.4 244.3 220.45 240.8 255.85 234.75 260.3 238.0" fill="#ff1f70" fill-rule="evenodd" stroke="none"/>
    <path d="M260.75 238.3 L265.4 241.7 228.85 248.25 224.75 244.6 260.75 238.3" fill="#244fc4" fill-rule="evenodd" stroke="none"/>
    <path d="M262.35 247.15 L254.7 248.85 246.8 250.45 240.05 251.55 236.15 251.7 232.65 249.65 229.95 248.55 228.9 248.25 265.45 241.7 270.3 245.25 268.05 245.8 262.35 247.15" fill="#ffe000" fill-rule="evenodd" stroke="none"/>
    <path d="M270.25 245.25 L275.3 248.95 240.0 255.7 239.35 254.95 238.0 253.55 Q237.2 252.35 236.05 251.55 L234.1 250.35 233.2 249.95 270.25 245.25" fill="#ff1f70" fill-rule="evenodd" stroke="none"/>
    <path d="M275.8 249.25 L281.05 253.1 242.7 260.6 240.1 255.55 275.8 249.25" fill="#244fc4" fill-rule="evenodd" stroke="none"/>
    <path d="M281.1 253.15 L286.65 257.15 247.65 265.0 242.75 260.65 281.1 253.15" fill="#ffe000" fill-rule="evenodd" stroke="none"/>
    <path d="M286.65 257.15 L292.4 261.35 252.75 269.55 247.65 265.0 286.65 257.15" fill="#ff1f70" fill-rule="evenodd" stroke="none"/>
  </g>
</svg>
