<?xml version="1.0" encoding="UTF-8" standalone="no"?>
<svg xmlns:xlink="http://www.w3.org/1999/xlink" height="158.65px" width="165.35px" xmlns="http://www.w3.org/2000/svg">
  <g transform="matrix(1.0, 0.0, 0.0, 1.0, 50.75, 96.15)">
    <path d="M-31.95 -34.4 L-31.55 -39.65 -25.45 -58.05 -15.55 -73.55 -0.05 -87.05 15.05 -94.05 19.2 -95.05 33.55 -96.15 Q47.8 -95.35 50.05 -93.8 L64.8 -87.05 80.05 -73.65 90.2 -57.9 Q98.7 -34.1 96.6 -34.4 L96.55 -34.4 97.3 -26.4 97.8 -20.55 94.45 2.6 87.95 19.45 76.95 34.45 76.2 34.95 73.55 37.45 Q56.2 45.0 52.8 47.85 L49.05 50.45 45.3 51.95 Q37.8 55.7 19.3 51.95 L16.05 50.7 7.55 45.1 Q-0.9 41.7 -9.05 37.35 L-11.55 34.95 -12.3 34.45 -23.2 19.7 -29.8 2.7 -33.2 -20.3 -32.7 -26.4 -31.95 -34.4" fill="#b19771" fill-rule="evenodd" stroke="none"/>
    <path d="M96.6 -34.4 Q120.7 -30.2 97.3 -26.4 L96.55 -34.4 96.6 -34.4 M-32.7 -26.4 Q-56.05 -30.65 -31.95 -34.4 L-32.7 -26.4" fill="#5f3f2a" fill-rule="evenodd" stroke="none"/>
    <path d="M76.95 34.45 Q86.3 33.75 105.2 45.35 117.05 55.75 113.95 61.45 107.65 63.85 48.95 60.7 42.75 60.55 45.3 51.95 L49.05 50.45 52.8 47.85 Q56.2 45.0 73.55 37.45 L76.2 34.95 76.95 34.45 M19.3 51.95 Q21.45 60.9 16.55 60.6 -31.0 63.65 -49.3 61.45 -54.45 60.1 -41.05 45.7 -23.95 34.6 -12.3 34.45 L-11.55 34.95 -9.05 37.35 Q-0.9 41.7 7.55 45.1 L16.05 50.7 19.3 51.95" fill="#573f70" fill-rule="evenodd" stroke="none"/>
  </g>
</svg>
