<?xml version="1.0" encoding="UTF-8" standalone="no"?>
<svg xmlns:xlink="http://www.w3.org/1999/xlink" height="195.0px" width="288.9px" xmlns="http://www.w3.org/2000/svg">
  <g transform="matrix(1.0, 0.0, 0.0, 1.0, 13.75, -83.2)">
    <path d="M272.45 95.9 L272.45 96.0 272.75 96.0 273.4 106.45 275.15 277.55 272.15 277.55 272.15 277.6 273.65 277.6 273.65 278.2 163.3 278.2 158.6 275.35 145.75 267.4 126.75 255.2 103.6 239.55 Q91.2 231.0 78.2 221.35 65.15 211.7 52.55 201.45 39.9 191.15 28.6 180.7 17.3 170.2 8.3 159.95 -0.65 149.7 -6.3 140.05 -12.05 130.4 -13.4 121.9 -14.8 113.3 -10.95 106.25 -7.05 99.15 3.1 94.0 13.2 88.85 30.6 86.05 47.95 83.25 73.55 83.2 L114.2 83.2 144.3 83.2 165.65 83.2 180.1 83.2 189.6 83.2 195.9 83.2 200.85 83.2 206.45 83.2 214.45 83.2 226.7 83.2 245.15 83.2 271.65 83.2 272.75 96.0 272.45 95.9" fill="#244fc4" fill-rule="evenodd" stroke="none"/>
    <path d="M270.0 95.25 L236.4 95.25 220.65 95.25 210.9 95.25 205.0 95.25 200.7 95.25 195.85 95.25 188.3 95.25 175.8 95.25 156.2 95.25 127.35 95.25 87.0 95.25 Q63.45 95.3 47.5 97.7 31.5 100.1 22.15 104.55 12.85 109.0 9.25 115.1 5.7 121.2 6.95 128.6 8.25 135.95 13.45 144.3 18.7 152.6 26.95 161.45 35.25 170.3 45.65 179.35 56.05 188.35 67.7 197.2 79.35 206.1 91.3 214.4 L114.7 230.05 136.0 243.55 161.5 259.1 177.55 268.35 175.5 268.35 171.05 265.85 158.9 258.8 132.95 242.95 Q122.75 236.7 111.05 229.1 99.3 221.5 87.0 213.0 74.7 204.45 62.75 195.35 50.75 186.25 40.05 176.95 29.4 167.65 20.9 158.55 12.4 149.45 7.0 140.95 1.65 132.4 0.35 124.8 -1.0 117.2 2.7 110.95 6.35 104.7 15.95 100.1 25.55 95.55 41.95 93.05 58.4 90.6 82.6 90.55 L121.1 90.55 149.5 90.55 169.6 90.55 183.05 90.55 191.65 90.55 197.05 90.55 201.05 90.55 205.35 90.55 211.65 90.55 221.7 90.55 237.25 90.55 269.95 90.55 270.0 95.25" fill="#ffffff" fill-rule="evenodd" stroke="none"/>
    <path d="M217.0 100.25 L225.4 100.25 271.0 100.25 271.0 106.55 270.95 104.9 228.1 104.9 220.6 104.9 216.25 104.9 213.2 104.9 209.3 104.9 202.65 104.9 191.15 104.9 172.85 104.9 145.7 104.9 107.7 104.9 Q83.85 104.95 68.2 107.55 52.55 110.2 44.05 115.0 35.55 119.8 33.15 126.3 30.75 132.85 33.4 140.65 36.0 148.5 42.65 157.15 49.25 165.85 58.75 175.0 68.25 184.1 79.65 193.2 91.0 202.35 103.15 211.05 115.25 219.7 127.15 227.55 L149.5 241.9 168.1 253.2 188.85 265.65 193.55 268.3 187.35 268.3 161.4 252.9 Q153.05 248.0 142.25 241.25 L119.2 226.5 Q107.0 218.45 94.5 209.5 82.0 200.55 70.35 191.15 58.65 181.8 48.85 172.4 39.05 163.0 32.25 154.05 25.45 145.1 22.75 137.05 20.0 129.0 22.5 122.3 24.95 115.6 33.7 110.65 42.45 105.7 58.55 103.0 74.65 100.3 99.25 100.25 L138.35 100.25 166.3 100.25 185.2 100.25 197.15 100.25 204.2 100.25 208.5 100.25 212.05 100.25 217.0 100.25" fill="#ffffff" fill-rule="evenodd" stroke="none"/>
  </g>
</svg>
