<?xml version="1.0" encoding="UTF-8" standalone="no"?>
<svg xmlns:xlink="http://www.w3.org/1999/xlink" height="263.95px" width="465.55px" xmlns="http://www.w3.org/2000/svg">
  <g transform="matrix(1.0, 0.0, 0.0, 1.0, 45.95, 46.0)">
    <path d="M335.5 -14.65 Q337.25 -2.25 340.5 9.5 L342.5 12.5 Q342.5 17.7 346.5 21.5 348.2 24.1 349.0 27.0 L350.5 28.0 Q354.85 35.3 359.5 42.0 366.5 49.95 374.0 56.0 391.65 73.7 409.3 92.15 414.4 97.45 419.1 103.35 L419.6 103.95 419.0 109.5 Q417.7 110.25 417.9 111.5 L418.0 112.5 Q414.35 122.95 408.6 132.55 L350.95 75.45 Q287.9 75.0 231.45 84.95 L209.45 118.45 277.6 159.6 276.45 160.45 278.2 159.95 278.45 160.1 278.45 159.85 330.35 200.8 Q321.25 203.75 311.8 206.2 L280.95 213.8 Q273.9 215.5 267.4 217.95 L201.0 217.95 Q198.85 215.5 196.3 213.2 195.75 212.75 195.0 212.5 188.7 204.2 179.0 201.0 L177.1 200.75 176.0 200.0 172.0 200.0 170.5 199.0 Q144.6 195.15 122.05 207.25 114.4 211.4 112.15 190.95 L-42.95 192.95 -45.95 -46.0 331.7 -46.0 Q333.3 -30.25 335.5 -14.65" fill="#000000" fill-opacity="0.101960786" fill-rule="evenodd" stroke="none"/>
  </g>
</svg>
