<?xml version="1.0" encoding="UTF-8" standalone="no"?>
<svg xmlns:xlink="http://www.w3.org/1999/xlink" height="257.05px" width="486.35px" xmlns="http://www.w3.org/2000/svg">
  <g transform="matrix(1.0, 0.0, 0.0, 1.0, 300.65, 193.6)">
    <path d="M17.0 -165.2 Q19.15 -168.25 20.3 -173.3 18.95 -182.35 20.2 -193.6 L185.7 -193.6 185.7 63.45 -300.0 63.45 -300.65 -10.3 -216.95 -10.3 Q-210.95 -10.95 -204.9 -12.3 -193.1 -14.9 -181.0 -19.15 -168.9 -23.4 -156.25 -28.4 L-130.3 -38.3 Q-116.75 -43.3 -108.45 -48.65 -100.2 -54.05 -96.2 -59.8 -92.2 -65.5 -91.35 -71.4 -90.55 -77.3 -91.9 -83.3 -93.25 -89.3 -95.75 -95.25 L-100.75 -107.0 Q-103.3 -112.8 -104.85 -118.3 -106.4 -123.85 -105.95 -128.95 -105.5 -134.1 -101.95 -138.7 -98.45 -143.3 -90.8 -147.3 -78.1 -153.8 -64.2 -157.15 -50.35 -160.45 -35.85 -160.8 -21.4 -161.15 -6.9 -158.75 L1.5 -157.9 Q5.9 -157.75 10.0 -159.3 14.05 -160.85 17.0 -165.2" fill="#9c5712" fill-rule="evenodd" stroke="none"/>
  </g>
</svg>
