<?xml version="1.0" encoding="UTF-8" standalone="no"?>
<svg xmlns:xlink="http://www.w3.org/1999/xlink" height="287.4px" width="474.0px" xmlns="http://www.w3.org/2000/svg">
  <g transform="matrix(1.0, 0.0, 0.0, 1.0, 298.3, 192.95)">
    <path d="M88.5 -115.65 L72.05 -128.65 Q63.45 -135.65 55.1 -144.4 46.8 -153.1 39.7 -164.35 37.1 -168.45 35.85 -175.8 34.55 -183.15 35.5 -192.95 L175.7 -192.95 175.7 94.45 -298.3 94.45 -298.3 11.65 -294.7 11.65 -285.1 11.65 -271.3 11.65 -255.2 11.65 -238.6 11.65 -223.35 11.65 -211.3 11.65 Q-199.2 11.6 -190.3 9.95 -181.4 8.25 -174.8 5.75 -168.2 3.25 -163.0 0.65 -157.85 -1.95 -153.25 -3.9 -148.7 -5.8 -143.8 -6.35 -138.9 -6.7 -133.95 -5.05 -129.0 -3.4 -123.6 -0.65 L-111.95 4.9 Q-105.65 7.7 -98.1 9.65 -90.55 11.6 -81.3 11.65 L-74.05 11.9 -59.45 12.15 -39.1 11.45 -14.75 8.95 Q-1.75 7.15 12.05 3.85 25.8 0.5 39.5 -4.8 53.25 -10.05 66.05 -17.75 78.9 -25.45 90.0 -36.0 101.15 -46.55 109.7 -60.35 114.75 -70.05 115.1 -77.7 115.45 -85.35 112.05 -91.7 108.65 -98.05 102.5 -103.85 96.4 -109.65 88.5 -115.65 M45.4 -125.35 Q58.45 -119.5 68.65 -112.0 78.85 -104.5 85.15 -95.9 91.45 -87.25 92.85 -78.0 94.25 -68.75 89.7 -59.35 85.15 -49.9 73.65 -40.85 62.1 -31.8 42.55 -23.6 22.9 -15.5 3.9 -10.5 -15.1 -5.55 -32.55 -3.25 -49.95 -0.9 -64.95 -0.85 -79.9 -0.75 -91.5 -2.45 -103.1 -4.15 -110.4 -7.15 -117.7 -10.2 -119.75 -14.1 -121.8 -18.05 -117.75 -22.45 -113.7 -26.8 -102.55 -31.2 -90.85 -35.8 -83.75 -40.95 -76.7 -46.15 -73.35 -51.7 -70.0 -57.3 -69.5 -63.1 -69.0 -68.9 -70.4 -74.8 -71.8 -80.65 -74.2 -86.4 L-79.15 -97.6 Q-81.65 -103.05 -83.3 -108.05 -85.0 -113.05 -84.95 -117.4 -84.9 -121.75 -82.2 -125.3 -79.5 -128.9 -73.25 -131.45 -59.2 -137.0 -43.85 -139.0 -28.5 -140.95 -12.9 -139.85 2.7 -138.7 17.55 -134.95 32.4 -131.25 45.4 -125.35" fill="#73420a" fill-rule="evenodd" stroke="none"/>
  </g>
</svg>
