<?xml version="1.0" encoding="UTF-8" standalone="no"?>
<svg xmlns:xlink="http://www.w3.org/1999/xlink" height="169.7px" width="161.6px" xmlns="http://www.w3.org/2000/svg">
  <g transform="matrix(1.0, 0.0, 0.0, 1.0, 48.6, 106.55)">
    <path d="M-26.7 -49.55 L-26.55 -49.55 -22.3 -65.15 -13.05 -82.15 0.45 -95.8 15.95 -104.15 31.55 -106.55 47.3 -104.55 48.95 -104.05 63.3 -96.4 66.3 -93.8 78.05 -81.55 Q89.25 -64.8 91.2 -49.55 L92.3 -45.8 92.55 -41.8 Q98.25 -2.9 76.85 31.05 L76.7 31.2 75.3 33.45 68.7 39.35 Q62.95 42.35 55.2 47.85 L52.8 49.85 Q44.85 52.35 44.2 53.35 35.3 56.55 20.45 53.35 L20.3 53.35 20.3 53.2 Q18.6 51.8 12.2 49.95 L9.55 47.85 Q1.95 42.4 -4.2 39.2 L-10.45 33.7 -12.05 31.2 -12.2 31.0 Q-32.4 3.3 -27.95 -41.8 L-28.05 -41.8 -27.95 -41.9 -27.95 -42.3 -27.7 -45.8 -26.7 -49.4 -26.7 -49.55" fill="#b19771" fill-rule="evenodd" stroke="none"/>
    <path d="M-26.7 -49.55 L-26.7 -49.4 -27.7 -45.8 -27.95 -42.3 -27.95 -41.9 -28.05 -41.8 Q-43.75 -53.15 -26.7 -49.55 M92.55 -41.8 L92.3 -45.8 91.2 -49.55 Q108.25 -52.45 92.55 -41.8" fill="#5f3f2a" fill-rule="evenodd" stroke="none"/>
    <path d="M-12.2 31.0 L-12.05 31.2 -10.45 33.7 -4.2 39.2 Q1.95 42.4 9.55 47.85 L12.2 49.95 Q18.6 51.8 20.3 53.2 L20.3 53.35 Q23.45 62.25 8.55 62.95 -14.55 63.9 -47.7 55.6 -51.9 54.15 -36.8 39.45 L-27.2 34.2 Q-13.5 30.4 -12.2 31.0 M44.2 53.35 Q44.85 52.35 52.8 49.85 L55.2 47.85 Q62.95 42.35 68.7 39.35 L75.3 33.45 76.7 31.2 76.85 31.05 Q78.05 30.35 91.8 34.2 L101.45 39.45 109.45 47.6 Q114.45 54.15 112.45 55.45 95.75 61.4 59.8 63.1 41.6 63.95 44.2 53.35" fill="#573f70" fill-rule="evenodd" stroke="none"/>
  </g>
</svg>
