<?xml version="1.0" encoding="UTF-8" standalone="no"?>
<svg xmlns:xlink="http://www.w3.org/1999/xlink" height="436.35px" width="635.35px" xmlns="http://www.w3.org/2000/svg">
  <g transform="matrix(1.0, 0.0, 0.0, 1.0, 312.55, 426.4)">
    <path d="M322.8 -423.3 L316.8 9.95 -307.2 8.0 Q-289.4 -188.95 -312.55 -190.95 L-190.7 -188.95 Q-183.25 -189.05 -176.9 -190.55 -170.55 -192.05 -164.9 -194.15 L-153.95 -198.05 Q-148.6 -199.85 -143.2 -200.45 -137.8 -200.95 -133.5 -199.6 -129.2 -198.25 -125.3 -196.0 L-117.15 -191.5 Q-112.95 -189.25 -107.7 -187.95 -103.3 -186.9 -94.75 -185.85 L-74.4 -184.2 Q-62.55 -183.6 -48.4 -183.95 L-18.55 -186.15 Q-2.85 -188.0 13.45 -191.75 29.7 -195.55 45.7 -201.75 61.7 -207.95 76.55 -217.1 91.4 -226.3 104.15 -238.85 116.95 -251.45 126.8 -267.95 132.7 -278.35 133.55 -286.8 134.4 -295.3 131.3 -302.55 128.15 -309.85 122.1 -316.55 116.0 -323.25 108.1 -330.1 L91.45 -344.6 Q82.75 -352.2 74.3 -361.3 65.9 -370.4 59.95 -380.85 L36.75 -420.2 Q32.45 -427.6 177.2 -426.2 249.6 -425.5 322.8 -423.3" fill="#244fc4" fill-rule="evenodd" stroke="none"/>
    <path d="M173.4 -264.95 Q171.65 -257.85 167.15 -249.95 158.3 -235.1 146.15 -223.25 134.0 -211.4 119.45 -202.3 104.85 -193.15 88.7 -186.45 72.55 -179.7 55.6 -175.05 38.65 -170.35 21.8 -167.45 4.95 -164.55 -11.0 -163.0 L-41.15 -161.1 Q-55.35 -160.7 -66.95 -161.05 L-86.8 -162.2 Q-95.05 -163.0 -99.0 -163.95 -104.25 -165.25 -108.5 -167.5 L-116.65 -172.0 Q-120.55 -174.25 -124.85 -175.6 -129.15 -176.95 -134.5 -176.45 -138.8 -175.95 -142.2 -174.7 -145.6 -173.4 -148.7 -171.75 -151.8 -170.1 -155.2 -168.55 -158.65 -167.0 -163.0 -166.0 -167.4 -165.0 -173.35 -164.95 L-182.95 -164.95 -197.3 -164.95 -214.9 -164.95 -234.1 -164.95 -246.2 -164.95 -246.2 -165.2 -299.85 -165.2 -299.85 -172.0 -299.35 -172.0 -299.35 -171.95 -299.2 -171.95 -295.0 -171.95 -283.4 -171.95 -266.65 -171.95 -246.85 -171.95 -226.1 -171.95 -206.55 -171.95 -190.25 -171.95 -179.35 -171.95 Q-173.4 -172.0 -169.0 -173.0 -164.65 -174.0 -161.2 -175.55 -157.8 -177.1 -154.7 -178.75 -151.6 -180.4 -148.2 -181.7 -144.8 -182.95 -140.5 -183.45 -135.15 -183.95 -130.85 -182.6 -126.55 -181.25 -122.65 -179.0 L-114.5 -174.5 Q-110.25 -172.25 -105.0 -170.95 -101.05 -170.0 -92.65 -169.2 L-72.35 -168.05 Q-60.45 -167.7 -45.85 -168.1 L-14.9 -170.0 Q1.5 -171.55 18.8 -174.45 36.15 -177.35 53.5 -182.05 70.85 -186.7 87.4 -193.45 103.95 -200.15 118.8 -209.3 133.65 -218.4 146.0 -230.25 158.3 -242.1 167.15 -256.95 170.5 -262.75 172.3 -268.15 174.1 -273.55 174.5 -278.6 175.15 -272.05 173.4 -264.95" fill="#ffffff" fill-rule="evenodd" stroke="none"/>
    <path d="M68.1 -407.7 L68.0 -408.35 82.2 -408.25 82.25 -407.7 82.45 -404.0 83.3 -398.2 83.45 -397.35 83.6 -396.8 83.7 -396.3 Q84.75 -391.9 86.2 -388.25 87.85 -384.15 89.65 -381.3 96.75 -370.05 104.8 -360.35 112.9 -350.6 121.05 -341.95 L136.4 -325.2 Q143.6 -317.1 149.0 -309.15 154.35 -301.2 156.9 -292.9 L157.05 -292.35 157.2 -291.85 Q158.65 -286.75 158.65 -281.25 L158.3 -275.85 158.25 -275.5 Q157.05 -266.4 151.15 -256.0 141.3 -239.45 127.7 -226.9 114.1 -214.3 97.9 -205.15 L93.85 -202.85 63.9 -189.75 Q46.15 -183.55 27.9 -179.75 9.65 -176.0 -7.95 -174.15 L-8.5 -174.1 -37.6 -172.1 -41.55 -172.0 -45.25 -171.9 -69.05 -172.15 -69.85 -172.15 -70.7 -172.2 -71.5 -172.25 -72.3 -172.25 -72.7 -172.3 -89.9 -173.5 -93.25 -173.9 Q-102.6 -174.95 -107.0 -176.0 L-112.0 -177.5 -116.5 -179.5 -124.65 -184.0 -128.65 -186.05 -132.85 -187.65 Q-137.15 -189.0 -142.5 -188.5 L-146.55 -187.75 -150.2 -186.7 -150.4 -186.6 -154.4 -184.9 -156.7 -183.8 -159.05 -182.55 -163.2 -180.6 -163.4 -180.5 -163.6 -180.4 -168.05 -178.8 -171.0 -178.05 Q-175.4 -177.05 -181.35 -177.0 L-192.15 -177.0 -208.2 -177.0 -227.45 -177.0 -247.85 -177.0 -267.3 -177.0 -283.7 -177.0 -295.1 -177.0 -299.2 -177.0 -299.35 -177.0 -299.35 -176.95 -299.85 -176.95 -299.85 -182.0 -299.2 -182.0 -295.55 -182.0 -284.05 -182.0 -267.45 -182.0 -247.85 -182.0 -227.3 -182.0 -207.9 -182.0 -191.7 -182.0 -180.85 -182.0 Q-174.9 -182.0 -170.5 -183.05 -166.15 -184.05 -162.7 -185.6 -159.3 -187.15 -156.2 -188.8 -153.1 -190.45 -149.7 -191.7 -146.3 -193.0 -142.0 -193.5 -136.65 -193.95 -132.35 -192.6 -128.05 -191.25 -124.15 -189.0 L-116.0 -184.55 Q-111.75 -182.3 -106.5 -181.0 -102.1 -179.95 -93.25 -178.85 L-72.1 -177.2 Q-59.8 -176.6 -44.95 -177.0 L-13.75 -179.15 Q2.65 -181.0 19.65 -184.75 36.65 -188.55 53.3 -194.75 69.95 -201.0 85.3 -210.15 100.65 -219.3 113.7 -231.9 126.8 -244.5 136.65 -261.0 142.55 -271.35 143.75 -280.5 145.0 -289.6 142.4 -297.9 139.85 -306.2 134.5 -314.15 129.1 -322.1 121.9 -330.2 L106.55 -346.95 Q98.4 -355.6 90.3 -365.35 82.25 -375.05 75.15 -386.3 72.8 -390.0 70.85 -395.65 68.95 -401.0 68.1 -407.7" fill="#ffffff" fill-rule="evenodd" stroke="none"/>
  </g>
</svg>
