<?xml version="1.0" encoding="UTF-8" standalone="no"?>
<svg xmlns:xlink="http://www.w3.org/1999/xlink" height="181.75px" width="149.75px" xmlns="http://www.w3.org/2000/svg">
  <g transform="matrix(1.0, 0.0, 0.0, 1.0, 42.5, 112.05)">
    <path d="M-21.55 -60.05 Q-23.05 -63.25 -11.05 -86.15 L1.2 -100.15 16.7 -109.15 32.3 -112.05 47.95 -109.15 63.45 -100.15 75.55 -86.3 84.3 -68.15 86.2 -60.05 87.8 -53.8 Q89.35 -54.75 90.7 -26.9 L88.8 -5.05 88.3 -2.15 82.45 19.1 76.45 30.45 74.05 34.95 Q74.85 35.2 68.45 41.45 L57.45 50.95 43.8 57.45 Q36.3 60.2 20.8 57.45 L7.45 51.1 3.45 47.85 Q-4.4 41.75 -9.45 34.95 L-11.8 30.45 -17.7 19.45 -24.05 -4.15 -26.05 -26.8 Q-24.75 -54.85 -23.2 -53.65 L-23.05 -53.8 -21.55 -60.05" fill="#b19771" fill-rule="evenodd" stroke="none"/>
    <path d="M86.2 -60.05 Q94.6 -65.45 87.8 -53.8 L86.2 -60.05 M-23.2 -53.65 Q-30.0 -65.75 -21.55 -60.05 L-23.05 -53.8 -23.2 -53.65" fill="#5f3f2a" fill-rule="evenodd" stroke="none"/>
    <path d="M76.45 30.45 Q93.7 30.7 100.45 38.95 111.2 52.3 104.95 55.2 92.75 65.7 64.8 69.7 41.05 69.55 43.8 57.45 L57.45 50.95 68.45 41.45 Q74.85 35.2 74.05 34.95 L76.45 30.45 M20.8 57.45 Q21.25 60.4 20.45 62.6 L18.05 65.85 Q11.45 69.65 1.3 69.7 -14.45 70.3 -38.7 56.45 -47.3 53.65 -36.45 39.6 L-30.2 34.35 -28.7 33.6 -20.7 30.85 -11.8 30.45 -9.45 34.95 Q-4.4 41.75 3.45 47.85 L7.45 51.1 20.8 57.45" fill="#573f70" fill-rule="evenodd" stroke="none"/>
  </g>
</svg>
