<?xml version="1.0" encoding="UTF-8" standalone="no"?>
<svg xmlns:xlink="http://www.w3.org/1999/xlink" height="36.5px" width="23.05px" xmlns="http://www.w3.org/2000/svg">
  <g transform="matrix(1.0, 0.0, 0.0, 1.0, 12.9, 36.5)">
    <path d="M10.15 -5.35 Q10.25 -2.55 8.55 -1.45 6.9 -0.35 4.35 -0.45 1.75 -0.6 -0.8 -1.55 -3.35 -2.45 -5.05 -3.8 L-7.1 -1.8 Q-8.3 -0.7 -9.55 -0.2 -10.85 0.3 -11.75 -0.45 -12.65 -1.2 -12.85 -3.95 -13.05 -7.75 -11.7 -10.9 -10.35 -14.0 -7.85 -16.0 -5.4 -17.95 -2.2 -18.2 1.05 -18.35 3.75 -16.7 6.45 -15.05 8.15 -12.05 9.85 -9.1 10.15 -5.35" fill="#ffffff" fill-rule="evenodd" stroke="none"/>
    <path d="M-0.3 -36.45 L-0.75 -17.15 -3.0 -17.2 -2.5 -36.5 -0.3 -36.45" fill="#000000" fill-rule="evenodd" stroke="none"/>
  </g>
</svg>
