<?xml version="1.0" encoding="UTF-8" standalone="no"?>
<svg xmlns:xlink="http://www.w3.org/1999/xlink" height="25.6px" width="59.85px" xmlns="http://www.w3.org/2000/svg">
  <g transform="matrix(1.0, 0.0, 0.0, 1.0, 29.9, 25.6)">
    <path d="M29.95 -25.6 L29.85 -25.15 29.75 -24.9 29.4 -23.6 29.25 -23.2 27.95 -18.95 27.75 -18.6 26.95 -16.6 26.25 -15.4 25.95 -14.7 23.85 -11.7 23.75 -11.65 23.7 -11.55 23.55 -11.35 22.3 -10.05 21.95 -9.75 21.65 -9.4 21.25 -9.1 20.9 -8.75 19.3 -7.55 18.0 -6.8 17.8 -6.75 17.55 -6.6 13.35 -5.2 -3.45 -1.1 -3.9 -1.05 -8.7 0.0 -9.05 -12.75 -14.3 -15.1 -14.1 -16.25 -21.05 -18.7 -22.3 -18.6 -26.05 -20.25 -11.5 -21.8 -11.5 -21.65 1.9 -16.45 6.6 -17.75 6.55 -17.85 15.5 -20.0 6.9 -22.75 0.4 -22.2 -1.75 -22.8 29.95 -25.6" fill="#6ea60f" fill-rule="evenodd" stroke="none"/>
    <path d="M6.9 -22.75 L15.5 -20.0 6.6 -17.9 6.1 -20.75 0.4 -22.25 6.9 -22.75" fill="#990000" fill-rule="evenodd" stroke="none"/>
    <path d="M-11.5 -21.7 L-9.6 -20.95 -11.5 -21.65 -11.5 -21.7 M6.65 -17.8 L1.95 -16.5 1.85 -19.7 -11.55 -24.2 -8.0 -24.45 6.1 -20.75 6.6 -17.9 6.65 -17.8" fill="#cc6635" fill-rule="evenodd" stroke="none"/>
    <path d="M-11.5 -21.65 L-11.55 -24.2 1.85 -19.7 1.95 -16.5 -11.5 -21.65" fill="#993300" fill-rule="evenodd" stroke="none"/>
    <path d="M-29.9 -17.8 L-21.05 -18.7 -14.15 -16.25 -22.95 -15.35 -29.9 -17.8" fill="#666666" fill-rule="evenodd" stroke="none"/>
    <path d="M-26.45 -20.45 L-22.25 -18.6 -26.4 -18.2 -26.45 -20.45" fill="#425d18" fill-rule="evenodd" stroke="none"/>
    <path d="M-29.2 -13.35 L-29.6 -15.65 -29.55 -15.65 -23.05 -13.05 -14.6 -13.95 -15.0 -12.15 -23.15 -11.0 -29.2 -13.35" fill="#ffffff" fill-rule="evenodd" stroke="none"/>
    <path d="M-14.15 -16.25 L-15.3 -9.2 -17.2 -9.05 -17.1 -3.7 -17.05 -3.25 -18.95 -2.5 -20.6 -3.15 -20.6 -8.85 -23.0 -8.65 -26.15 -10.05 -26.25 -10.05 -26.35 -10.15 -29.0 -11.25 -29.4 -14.25 -29.25 -13.35 -23.2 -11.0 -15.0 -12.15 -14.6 -13.95 -23.1 -13.05 -29.6 -15.65 -29.9 -17.85 -22.95 -15.4 -14.15 -16.25" fill="#000000" fill-rule="evenodd" stroke="none"/>
    <path d="M-9.0 -12.75 L-8.7 0.0 -17.05 -3.7 -17.2 -9.05 -15.3 -9.15 -14.3 -15.1 -9.0 -12.75" fill="#425d18" fill-rule="evenodd" stroke="none"/>
    <path d="M-20.55 -8.85 L-20.55 -5.25 -25.7 -7.55 -26.15 -7.7 -26.2 -10.05 -26.1 -10.05 -26.05 -10.0 -22.95 -8.7 -20.55 -8.85" fill="#425d18" fill-rule="evenodd" stroke="none"/>
  </g>
</svg>
