<?xml version="1.0" encoding="UTF-8" standalone="no"?>
<svg xmlns:xlink="http://www.w3.org/1999/xlink" height="190.8px" width="141.8px" xmlns="http://www.w3.org/2000/svg">
  <g transform="matrix(1.0, 0.0, 0.0, 1.0, 38.6, 112.15)">
    <path d="M-12.05 31.6 Q-16.7 26.7 -21.8 1.35 L-23.8 -23.8 Q-24.3 -43.55 -17.8 -66.3 L-9.7 -84.9 2.3 -99.9 16.8 -109.15 32.7 -112.15 47.8 -109.15 62.3 -99.9 74.05 -85.4 82.3 -66.8 86.8 -46.55 Q91.6 6.9 76.7 31.6 L72.05 41.45 60.7 54.45 47.45 62.35 43.55 63.7 Q34.05 65.7 21.05 63.7 L18.45 62.95 4.2 54.7 -7.45 41.45 -12.05 31.6" fill="#b19771" fill-rule="evenodd" stroke="none"/>
    <path d="M76.7 31.6 Q90.1 28.55 99.8 41.6 102.85 47.05 103.2 49.6 L102.7 54.95 99.7 59.6 95.05 64.45 Q71.85 81.45 60.45 77.95 40.85 74.3 43.55 63.7 L47.45 62.35 60.7 54.45 72.05 41.45 76.7 31.6 M21.05 63.7 Q23.75 74.35 4.2 77.95 -6.45 81.75 -30.55 64.35 -42.5 55.55 -36.7 44.35 L-33.2 38.7 Q-32.45 36.9 -24.2 32.35 L-15.2 31.2 -12.05 31.6 -7.45 41.45 4.2 54.7 18.45 62.95 21.05 63.7" fill="#573f70" fill-rule="evenodd" stroke="none"/>
  </g>
</svg>
