<?xml version="1.0" encoding="UTF-8" standalone="no"?>
<svg xmlns:xlink="http://www.w3.org/1999/xlink" height="196.0px" width="354.4px" xmlns="http://www.w3.org/2000/svg">
  <g transform="matrix(1.0, 0.0, 0.0, 1.0, 182.65, 103.85)">
    <path d="M23.85 -89.65 L-14.3 -91.4 -52.45 -89.65 Q-70.7 -87.9 -86.7 -84.65 -102.7 -81.4 -115.75 -76.9 -128.75 -72.35 -138.15 -66.85 -147.55 -61.3 -152.65 -55.0 -157.7 -48.7 -157.75 -41.8 -157.75 -36.6 -155.7 -29.25 -153.7 -21.9 -149.7 -13.2 -145.65 -4.5 -139.75 4.75 -133.8 14.0 -126.0 23.0 -118.15 32.0 -108.5 39.95 -98.85 47.95 -87.4 54.05 -76.0 60.2 -62.8 63.7 -49.65 67.2 -34.8 67.25 -22.95 67.2 -14.55 64.65 -6.15 62.05 -0.35 57.7 5.4 53.3 9.4 47.8 13.4 42.3 16.45 36.35 L22.35 24.75 Q25.25 19.05 28.8 14.3 32.35 9.55 37.45 6.45 42.5 3.35 49.85 2.55 67.75 0.75 82.3 -3.6 96.85 -8.0 107.3 -14.1 117.8 -20.25 123.45 -27.35 129.1 -34.45 129.15 -41.8 129.1 -48.65 124.05 -55.0 118.95 -61.3 109.6 -66.85 100.2 -72.35 87.15 -76.9 74.1 -81.4 58.1 -84.65 42.1 -87.9 23.85 -89.65 M84.0 -95.5 Q103.75 -91.5 119.85 -85.9 135.95 -80.35 147.55 -73.5 159.15 -66.7 165.45 -58.9 171.7 -51.1 171.75 -42.6 171.7 -33.55 164.7 -24.75 157.75 -15.95 144.8 -8.35 131.85 -0.8 113.85 4.6 95.9 9.95 73.8 12.2 64.7 13.15 58.45 17.0 52.2 20.85 47.8 26.7 43.4 32.6 39.85 39.6 L32.55 54.0 Q28.8 61.3 23.85 68.1 18.9 74.9 11.75 80.35 4.6 85.75 -5.75 88.9 -16.15 92.1 -30.75 92.15 -49.1 92.05 -65.4 87.75 -81.65 83.4 -95.8 75.85 -109.9 68.25 -121.8 58.45 -133.75 48.6 -143.4 37.45 -153.05 26.35 -160.4 14.9 -167.75 3.45 -172.7 -7.3 -177.65 -18.0 -180.15 -27.1 -182.65 -36.2 -182.65 -42.6 -182.6 -51.1 -176.3 -58.9 -170.05 -66.7 -158.45 -73.5 -146.85 -80.35 -130.75 -85.9 -114.65 -91.5 -94.9 -95.5 -75.15 -99.5 -52.55 -101.65 -30.0 -103.85 -5.45 -103.85 19.1 -103.85 41.65 -101.65 64.25 -99.5 84.0 -95.5" fill="#9c5712" fill-rule="evenodd" stroke="none"/>
  </g>
</svg>
