<?xml version="1.0" encoding="UTF-8" standalone="no"?>
<svg xmlns:xlink="http://www.w3.org/1999/xlink" height="227.8px" width="411.95px" xmlns="http://www.w3.org/2000/svg">
  <g transform="matrix(1.0, 0.0, 0.0, 1.0, 205.95, 113.9)">
    <path d="M23.85 -89.65 Q42.1 -87.9 58.1 -84.65 74.1 -81.4 87.15 -76.9 100.2 -72.35 109.6 -66.85 118.95 -61.3 124.05 -55.0 129.1 -48.65 129.15 -41.8 129.1 -34.45 123.45 -27.35 117.8 -20.25 107.3 -14.1 96.85 -8.0 82.3 -3.6 67.75 0.75 49.85 2.55 42.5 3.35 37.45 6.45 32.35 9.55 28.8 14.3 25.25 19.05 22.35 24.75 L16.45 36.35 Q13.4 42.3 9.4 47.8 5.4 53.3 -0.35 57.7 -6.15 62.05 -14.55 64.65 -22.95 67.2 -34.8 67.25 -49.65 67.2 -62.8 63.7 -76.0 60.2 -87.4 54.05 -98.85 47.95 -108.5 39.95 -118.15 32.0 -126.0 23.0 -133.8 14.0 -139.75 4.75 -145.65 -4.5 -149.7 -13.2 -153.7 -21.9 -155.7 -29.25 -157.75 -36.6 -157.75 -41.8 -157.7 -48.7 -152.65 -55.0 -147.55 -61.3 -138.15 -66.85 -128.75 -72.35 -115.75 -76.9 -102.7 -81.4 -86.7 -84.65 -70.7 -87.9 -52.45 -89.65 L-14.3 -91.4 23.85 -89.65 M0.05 -113.9 Q28.55 -113.85 54.8 -111.35 81.0 -108.85 104.0 -104.2 126.95 -99.5 145.7 -93.05 164.4 -86.6 177.9 -78.65 191.35 -70.7 198.65 -61.65 205.9 -52.55 206.0 -42.7 205.95 -34.3 200.7 -26.0 195.45 -17.75 185.55 -10.15 175.65 -2.6 161.7 3.7 147.7 10.0 130.15 14.45 112.65 18.95 92.15 21.0 82.7 22.0 75.95 25.65 69.2 29.3 64.3 34.95 59.4 40.6 55.55 47.55 51.7 54.5 48.0 62.05 44.35 69.55 40.0 77.0 35.7 84.45 29.95 91.05 24.2 97.7 16.1 102.8 8.05 107.95 -3.1 110.9 -14.3 113.85 -29.4 113.9 -48.35 113.85 -65.4 109.85 -82.45 105.85 -97.55 98.7 -112.65 91.55 -125.75 82.05 -138.8 72.55 -149.85 61.55 -160.85 50.55 -169.8 38.8 -178.7 27.05 -185.45 15.35 -192.2 3.7 -196.8 -7.1 -201.35 -17.85 -203.65 -27.0 -205.95 -36.1 -205.95 -42.7 -205.85 -52.55 -198.6 -61.65 -191.3 -70.7 -177.85 -78.65 -164.35 -86.6 -145.6 -93.05 -126.9 -99.5 -103.95 -104.2 -80.95 -108.85 -54.7 -111.35 -28.5 -113.85 0.05 -113.9 M84.0 -95.5 Q64.25 -99.5 41.65 -101.65 19.1 -103.85 -5.45 -103.85 -30.0 -103.85 -52.55 -101.65 -75.15 -99.5 -94.9 -95.5 -114.65 -91.5 -130.75 -85.9 -146.85 -80.35 -158.45 -73.5 -170.05 -66.7 -176.3 -58.9 -182.6 -51.1 -182.65 -42.6 -182.65 -36.2 -180.15 -27.1 -177.65 -18.0 -172.7 -7.3 -167.75 3.45 -160.4 14.9 -153.05 26.35 -143.4 37.45 -133.75 48.6 -121.8 58.45 -109.9 68.25 -95.8 75.85 -81.65 83.4 -65.4 87.75 -49.1 92.05 -30.75 92.15 -16.15 92.1 -5.75 88.9 4.6 85.75 11.75 80.35 18.9 74.9 23.85 68.1 28.8 61.3 32.55 54.0 L39.85 39.6 Q43.4 32.6 47.8 26.7 52.2 20.85 58.45 17.0 64.7 13.15 73.8 12.2 95.9 9.95 113.85 4.6 131.85 -0.8 144.8 -8.35 157.75 -15.95 164.7 -24.75 171.7 -33.55 171.75 -42.6 171.7 -51.1 165.45 -58.9 159.15 -66.7 147.55 -73.5 135.95 -80.35 119.85 -85.9 103.75 -91.5 84.0 -95.5" fill="#73420a" fill-rule="evenodd" stroke="none"/>
  </g>
</svg>
