<?xml version="1.0" encoding="UTF-8" standalone="no"?>
<svg xmlns:xlink="http://www.w3.org/1999/xlink" height="145.35px" width="184.3px" xmlns="http://www.w3.org/2000/svg">
  <g transform="matrix(1.0, 0.0, 0.0, 1.0, 0.8, 0.0)">
    <path d="M183.5 65.1 Q183.45 78.45 179.4 90.45 175.4 102.45 168.05 112.5 160.65 122.5 150.65 129.85 140.65 137.2 128.65 141.25 116.65 145.3 103.3 145.35 L102.95 145.35 102.95 144.25 -0.55 144.45 -0.8 95.8 108.4 95.55 108.4 96.0 Q112.1 95.4 115.45 93.95 121.15 91.55 125.4 87.25 129.7 82.95 132.15 77.3 134.3 72.2 134.6 66.4 L132.75 66.4 132.75 0.25 181.4 0.0 181.45 65.1 183.5 65.1" fill="#c7bf57" fill-rule="evenodd" stroke="none"/>
  </g>
</svg>
