<?xml version="1.0" encoding="UTF-8" standalone="no"?>
<svg xmlns:xlink="http://www.w3.org/1999/xlink" height="434.5px" width="554.2px" xmlns="http://www.w3.org/2000/svg">
  <g transform="matrix(1.0, 0.0, 0.0, 1.0, -11.55, 46.0)">
    <path d="M543.9 -46.0 L543.9 77.95 552.9 77.95 552.9 111.95 558.9 111.95 Q572.65 148.5 558.9 192.95 L304.9 193.45 304.9 200.95 558.9 200.95 558.9 264.95 559.9 264.95 559.9 388.5 47.95 388.5 47.95 277.95 39.95 277.95 39.95 215.95 35.95 215.95 35.95 204.45 155.15 204.45 85.95 225.95 120.45 245.95 130.7 244.1 128.15 244.6 152.95 255.45 227.45 246.45 209.45 228.95 189.4 204.45 251.95 203.95 250.95 196.45 217.45 196.45 217.45 196.4 35.95 195.9 35.95 131.95 11.55 131.95 11.55 48.95 175.95 48.95 175.95 75.95 205.95 75.95 205.95 48.95 214.95 48.95 214.95 69.95 243.95 69.95 243.95 48.95 252.95 48.95 252.95 -46.0 543.9 -46.0 M116.45 290.45 Q106.3 290.45 99.1 292.8 91.95 295.15 91.95 298.45 91.95 301.75 99.1 304.1 106.3 306.45 116.45 306.45 126.6 306.45 133.75 304.1 140.95 301.75 140.95 298.45 140.95 295.15 133.75 292.8 126.6 290.45 116.45 290.45 M510.3 339.25 Q513.95 337.05 513.95 333.95 513.95 330.85 510.3 328.65 506.65 326.45 501.45 326.45 496.25 326.45 492.6 328.65 488.95 330.85 488.95 333.95 488.95 337.05 492.6 339.25 496.25 341.45 501.45 341.45 506.65 341.45 510.3 339.25 M536.95 341.45 Q532.0 341.45 528.45 343.5 524.95 345.55 524.95 348.45 524.95 351.35 528.45 353.4 532.0 355.45 536.95 355.45 541.9 355.45 545.4 353.4 548.95 351.35 548.95 348.45 548.95 345.55 545.4 343.5 541.9 341.45 536.95 341.45 M471.45 225.45 Q461.9 225.45 455.15 228.5 448.45 231.6 448.45 235.95 448.45 240.3 455.15 243.35 461.9 246.45 471.45 246.45 481.0 246.45 487.7 243.35 494.45 240.3 494.45 235.95 494.45 231.6 487.7 228.5 481.0 225.45 471.45 225.45 M388.95 145.45 Q388.95 141.95 381.6 139.45 374.3 136.95 363.95 136.95 353.6 136.95 346.25 139.45 338.95 141.95 338.95 145.45 338.95 148.95 346.25 151.45 353.6 153.95 363.95 153.95 374.3 153.95 381.6 151.45 388.95 148.95 388.95 145.45" fill="#000000" fill-opacity="0.2" fill-rule="evenodd" stroke="none"/>
  </g>
</svg>
