<?xml version="1.0" encoding="UTF-8" standalone="no"?>
<svg xmlns:xlink="http://www.w3.org/1999/xlink" height="194.35px" width="137.3px" xmlns="http://www.w3.org/2000/svg">
  <g transform="matrix(1.0, 0.0, 0.0, 1.0, 36.05, 106.9)">
    <path d="M-13.2 34.85 Q-30.3 -15.25 -15.95 -62.05 L-8.05 -80.55 3.8 -95.8 17.95 -104.65 Q32.6 -107.65 35.05 -106.65 L46.05 -104.9 47.55 -104.3 60.8 -95.8 72.05 -81.55 80.8 -61.4 85.55 -39.8 87.05 -14.9 85.3 7.85 Q80.1 32.95 78.3 34.85 78.0 35.1 77.8 34.85 L77.7 34.95 71.95 47.85 60.7 61.7 47.45 70.35 43.45 71.35 33.05 73.2 21.2 71.35 17.95 70.7 4.95 62.45 -7.3 47.85 -13.05 34.95 -13.2 34.85" fill="#b19771" fill-rule="evenodd" stroke="none"/>
    <path d="M78.3 34.85 Q95.5 34.15 99.55 48.1 105.2 57.1 92.3 72.6 71.35 90.45 61.2 86.85 41.3 82.3 43.45 71.35 L47.45 70.35 60.7 61.7 71.95 47.85 77.7 34.95 77.8 34.85 Q78.0 35.1 78.3 34.85 M21.2 71.35 Q23.3 82.35 3.45 86.85 -7.9 89.25 -25.45 74.95 -36.4 65.95 -36.05 51.45 -33.0 34.25 -13.2 34.85 L-13.05 34.95 -7.3 47.85 4.95 62.45 17.95 70.7 21.2 71.35" fill="#573f70" fill-rule="evenodd" stroke="none"/>
  </g>
</svg>
