<?xml version="1.0" encoding="UTF-8" standalone="no"?>
<svg xmlns:xlink="http://www.w3.org/1999/xlink" height="209.0px" width="585.65px" xmlns="http://www.w3.org/2000/svg">
  <g transform="matrix(1.0, 0.0, 0.0, 1.0, -13.45, -165.15)">
    <path d="M119.1 252.15 L106.1 244.65 13.45 236.5 26.1 165.15 204.1 206.15 154.1 254.65 119.1 252.15" fill="#000000" fill-opacity="0.2" fill-rule="evenodd" stroke="none"/>
    <path d="M408.8 312.0 L408.6 312.75 406.1 312.15 408.8 312.0 M450.5 254.95 L450.55 255.55 448.1 255.15 450.5 254.95" fill="#000000" fill-rule="evenodd" stroke="none"/>
    <path d="M408.8 312.0 L415.95 311.55 426.0 310.85 437.5 309.8 448.9 308.4 458.85 306.65 Q463.2 305.7 465.7 304.6 468.25 303.45 468.1 302.15 467.75 300.4 464.7 298.4 461.65 296.4 457.05 294.35 452.4 292.35 447.25 290.55 L437.5 287.25 430.05 285.0 427.1 284.15 430.6 283.9 439.6 283.15 451.95 281.85 465.5 280.05 477.95 277.65 Q483.7 276.35 487.25 274.7 490.8 273.1 491.1 271.15 491.25 269.2 489.05 267.45 486.8 265.65 483.0 264.05 479.2 262.45 474.6 261.05 L465.35 258.6 456.8 256.75 450.55 255.55 450.5 254.95 572.1 243.15 599.1 254.15 578.8 362.95 514.1 374.15 440.8 337.15 443.0 337.25 448.75 337.45 456.6 337.55 465.05 337.45 472.75 336.95 478.25 335.9 Q480.25 335.2 480.1 334.15 479.85 333.2 476.65 331.75 473.4 330.35 468.1 328.6 L456.25 325.0 442.75 321.3 429.25 317.8 417.5 314.9 409.25 312.9 408.6 312.75 408.8 312.0" fill="#000000" fill-opacity="0.2" fill-rule="evenodd" stroke="none"/>
  </g>
</svg>
