<?xml version="1.0" encoding="UTF-8" standalone="no"?>
<svg xmlns:xlink="http://www.w3.org/1999/xlink" height="431.9px" width="629.1px" xmlns="http://www.w3.org/2000/svg">
  <g transform="matrix(1.0, 0.0, 0.0, 1.0, -39.95, 46.0)">
    <path d="M139.15 98.7 Q135.35 96.95 129.95 96.95 124.55 96.95 120.75 98.7 116.95 100.45 116.95 102.95 116.95 105.45 120.75 107.2 124.55 108.95 129.95 108.95 135.35 108.95 139.15 107.2 142.95 105.45 142.95 102.95 142.95 100.45 139.15 98.7 M225.45 130.95 Q225.45 133.45 229.4 135.2 233.35 136.95 238.95 136.95 244.55 136.95 248.5 135.2 252.45 133.45 252.45 130.95 252.45 128.45 248.5 126.7 244.55 124.95 238.95 124.95 233.35 124.95 229.4 126.7 225.45 128.45 225.45 130.95 M471.95 204.45 Q471.95 207.75 475.45 210.1 479.0 212.45 483.95 212.45 488.9 212.45 492.4 210.1 495.95 207.75 495.95 204.45 495.95 201.15 492.4 198.8 488.9 196.45 483.95 196.45 479.0 196.45 475.45 198.8 471.95 201.15 471.95 204.45 M428.65 141.05 Q431.9 142.95 436.45 142.95 441.0 142.95 444.2 141.05 447.45 139.15 447.45 136.45 447.45 133.75 444.2 131.85 441.0 129.95 436.45 129.95 431.9 129.95 428.65 131.85 425.45 133.75 425.45 136.45 425.45 139.15 428.65 141.05 M538.4 193.2 Q538.4 190.0 534.95 187.7 533.3 186.65 531.35 186.1 531.95 183.85 530.0 180.25 527.5 172.35 521.0 166.3 505.95 152.4 488.2 143.0 484.9 141.25 481.7 139.3 L459.05 125.3 Q457.4 118.25 448.35 118.15 L405.75 117.95 357.85 117.75 356.75 117.75 Q340.85 117.55 325.05 118.5 L311.35 118.05 Q286.45 114.8 261.0 116.0 254.55 116.25 250.05 120.3 L249.9 120.6 249.55 121.75 249.5 122.1 249.55 123.25 249.6 123.6 Q249.8 124.45 250.35 125.05 251.45 126.3 252.8 127.05 252.55 138.0 265.75 141.35 L266.6 142.8 Q275.45 157.55 288.6 168.25 299.95 180.45 315.0 188.35 315.6 192.0 317.1 194.5 313.1 194.65 310.15 196.35 306.95 198.25 306.95 200.95 306.95 203.65 310.15 205.55 313.4 207.45 317.95 207.45 322.5 207.45 325.7 205.55 328.95 203.65 328.95 200.95 L328.65 199.35 330.5 199.1 333.15 198.8 Q365.2 196.1 397.55 196.7 L399.3 197.05 Q409.35 197.95 419.45 197.5 L472.45 195.1 Q493.6 194.1 514.95 193.95 515.3 196.65 518.35 198.65 521.8 200.95 526.65 200.95 531.5 200.95 534.95 198.65 538.4 196.4 538.4 193.2 M515.4 175.45 Q517.4 178.6 520.0 181.35 520.05 183.3 520.45 185.15 505.95 184.55 491.5 184.5 L472.1 185.55 449.5 186.6 401.1 188.6 Q399.95 187.85 397.95 187.8 360.8 186.2 326.0 188.5 324.55 181.1 318.0 177.4 297.6 166.05 283.0 148.05 280.95 145.5 279.35 142.7 275.55 136.05 269.35 131.9 L267.05 130.2 262.45 126.55 262.75 126.25 Q283.45 125.8 303.85 127.2 329.3 128.9 355.1 128.35 380.3 127.8 406.0 128.25 L446.05 129.9 450.35 129.9 Q455.5 135.95 462.3 140.55 468.5 144.7 475.25 147.85 496.25 157.6 514.1 172.75 514.6 174.15 515.4 175.45 M669.05 -46.0 L669.05 385.9 39.95 385.9 39.95 -46.0 669.05 -46.0" fill="#000000" fill-opacity="0.2" fill-rule="evenodd" stroke="none"/>
  </g>
</svg>
