<?xml version="1.0" encoding="UTF-8" standalone="no"?>
<svg xmlns:xlink="http://www.w3.org/1999/xlink" height="188.9px" width="505.35px" xmlns="http://www.w3.org/2000/svg">
  <g transform="matrix(1.0, 0.0, 0.0, 1.0, -78.0, -140.0)">
    <path d="M176.3 301.05 L175.8 302.2 174.35 304.85 172.4 307.75 Q171.35 309.15 170.25 309.7 169.2 310.3 168.25 309.45 167.35 308.55 167.9 307.45 168.45 306.35 169.75 305.2 171.1 304.1 172.6 303.15 174.1 302.2 175.15 301.65 L176.3 301.05" fill="#425c0a" fill-rule="evenodd" stroke="none"/>
    <path d="M168.4 307.4 Q167.9 308.85 166.15 308.65 164.45 308.4 162.35 307.35 160.3 306.25 158.8 305.25 L157.2 304.2 158.5 304.15 161.5 304.15 164.95 304.5 Q166.7 304.8 167.7 305.5 168.7 306.2 168.4 307.4" fill="#425c0a" fill-rule="evenodd" stroke="none"/>
    <path d="M165.2 302.95 L167.7 303.85 168.45 304.8 Q169.2 305.75 169.7 307.4 170.2 309.1 169.7 311.25 169.2 312.4 168.5 312.25 167.8 312.1 167.35 311.25 167.9 309.4 167.35 307.5 166.8 305.6 166.05 304.3 L165.2 302.95" fill="#425c0a" fill-rule="evenodd" stroke="none"/>
    <path d="M170.85 297.5 L169.7 299.5 172.1 300.1 Q173.05 300.6 173.05 301.3 173.05 301.9 172.25 302.4 L170.2 303.0 Q170.9 303.95 171.05 304.8 171.25 305.6 170.85 306.05 L169.4 306.25 Q168.45 305.95 167.4 305.1 167.3 306.55 166.8 307.45 166.3 308.4 165.6 308.45 164.9 308.4 164.4 307.4 163.9 306.4 163.8 304.9 L161.65 306.25 160.1 306.1 Q159.65 305.6 159.9 304.65 160.2 303.7 161.05 302.65 159.6 302.55 158.65 302.05 157.75 301.55 157.7 300.85 157.7 300.2 158.5 299.75 L160.55 299.1 159.7 297.35 Q159.5 296.5 159.9 296.1 160.4 295.65 161.35 295.9 162.35 296.2 163.4 297.05 163.5 295.6 164.0 294.65 164.45 293.75 165.15 293.7 165.9 293.75 166.4 294.75 166.9 295.7 166.95 297.25 168.05 296.25 169.1 295.9 L170.7 296.05 Q171.15 296.55 170.85 297.5" fill="#ffff00" fill-rule="evenodd" stroke="none"/>
    <path d="M163.1 300.9 Q163.1 300.05 163.7 299.45 164.3 298.85 165.15 298.85 166.05 298.85 166.65 299.45 167.2 300.05 167.25 300.9 167.2 301.8 166.6 302.4 166.05 302.95 165.15 303.0 164.3 302.95 163.7 302.35 163.1 301.8 163.1 300.9" fill="#527312" fill-rule="evenodd" stroke="none"/>
    <path d="M311.3 209.05 L310.8 210.2 309.35 212.85 307.4 215.75 Q306.35 217.15 305.25 217.7 304.2 218.3 303.25 217.45 302.35 216.55 302.9 215.45 303.45 214.35 304.75 213.2 L307.6 211.15 310.15 209.65 311.3 209.05" fill="#425c0a" fill-rule="evenodd" stroke="none"/>
    <path d="M303.4 215.4 Q302.9 216.85 301.15 216.65 299.45 216.4 297.35 215.35 L293.8 213.25 292.2 212.2 293.5 212.15 296.5 212.15 299.95 212.5 Q301.7 212.8 302.7 213.5 303.7 214.2 303.4 215.4" fill="#425c0a" fill-rule="evenodd" stroke="none"/>
    <path d="M300.2 210.95 L302.7 211.85 303.45 212.8 Q304.2 213.75 304.7 215.4 305.2 217.1 304.7 219.25 304.2 220.4 303.5 220.25 302.8 220.1 302.35 219.25 302.9 217.4 302.35 215.5 301.8 213.6 301.05 212.3 L300.2 210.95" fill="#425c0a" fill-rule="evenodd" stroke="none"/>
    <path d="M305.85 205.5 Q305.6 206.45 304.7 207.5 L307.1 208.1 Q308.05 208.6 308.05 209.3 308.05 209.9 307.25 210.4 L305.2 211.0 Q305.9 211.95 306.05 212.8 306.25 213.6 305.85 214.05 L304.4 214.25 Q303.45 213.95 302.4 213.1 302.3 214.55 301.8 215.45 301.3 216.4 300.6 216.45 299.9 216.4 299.4 215.4 298.9 214.4 298.8 212.9 L296.65 214.25 295.1 214.1 Q294.65 213.6 294.9 212.65 295.2 211.7 296.05 210.65 294.6 210.55 293.65 210.05 292.75 209.55 292.7 208.85 292.7 208.2 293.5 207.75 294.3 207.3 295.55 207.1 294.9 206.15 294.7 205.35 294.5 204.5 294.9 204.1 L296.35 203.9 Q297.35 204.2 298.4 205.05 298.5 203.6 299.0 202.65 299.45 201.75 300.15 201.7 300.9 201.75 301.4 202.75 301.9 203.7 301.95 205.25 303.05 204.25 304.1 203.9 L305.7 204.05 Q306.15 204.55 305.85 205.5" fill="#ffff00" fill-rule="evenodd" stroke="none"/>
    <path d="M298.1 208.9 Q298.1 208.05 298.7 207.45 299.3 206.85 300.15 206.85 301.05 206.85 301.65 207.45 302.2 208.05 302.25 208.9 302.2 209.8 301.6 210.4 301.05 210.95 300.15 211.0 299.3 210.95 298.7 210.35 298.1 209.8 298.1 208.9" fill="#527312" fill-rule="evenodd" stroke="none"/>
    <path d="M275.3 217.05 L274.8 218.2 273.35 220.85 271.4 223.75 Q270.35 225.15 269.25 225.7 268.2 226.3 267.25 225.45 266.35 224.55 266.9 223.45 267.45 222.35 268.75 221.2 L271.6 219.15 274.15 217.65 275.3 217.05" fill="#425c0a" fill-rule="evenodd" stroke="none"/>
    <path d="M267.4 223.4 Q266.9 224.85 265.15 224.65 263.45 224.4 261.35 223.35 L257.8 221.25 256.2 220.2 257.5 220.15 260.5 220.15 263.95 220.5 Q265.7 220.8 266.7 221.5 267.7 222.2 267.4 223.4" fill="#425c0a" fill-rule="evenodd" stroke="none"/>
    <path d="M264.2 218.95 L266.7 219.85 267.45 220.8 Q268.2 221.75 268.7 223.4 269.2 225.1 268.7 227.25 268.2 228.4 267.5 228.25 266.8 228.1 266.35 227.25 266.9 225.4 266.35 223.5 265.8 221.6 265.05 220.3 L264.2 218.95" fill="#425c0a" fill-rule="evenodd" stroke="none"/>
    <path d="M269.85 213.5 Q269.6 214.45 268.7 215.5 L271.1 216.1 Q272.05 216.6 272.05 217.3 272.05 217.9 271.25 218.4 L269.2 219.0 Q269.9 219.95 270.05 220.8 270.25 221.6 269.85 222.05 L268.4 222.25 Q267.45 221.95 266.4 221.1 266.3 222.55 265.8 223.45 265.3 224.4 264.6 224.45 263.9 224.4 263.4 223.4 262.9 222.4 262.8 220.9 261.7 221.9 260.65 222.25 L259.1 222.1 Q258.65 221.6 258.9 220.65 259.2 219.7 260.05 218.65 258.6 218.55 257.65 218.05 256.75 217.55 256.7 216.85 256.7 216.2 257.5 215.75 258.3 215.3 259.55 215.1 L258.7 213.35 Q258.5 212.5 258.9 212.1 L260.35 211.9 Q261.35 212.2 262.4 213.05 262.5 211.6 263.0 210.65 263.45 209.75 264.15 209.7 264.9 209.75 265.4 210.75 265.9 211.7 265.95 213.25 267.05 212.25 268.1 211.9 L269.7 212.05 Q270.15 212.55 269.85 213.5" fill="#ffff00" fill-rule="evenodd" stroke="none"/>
    <path d="M262.1 216.9 Q262.1 216.05 262.7 215.45 263.3 214.85 264.15 214.85 265.05 214.85 265.65 215.45 266.2 216.05 266.25 216.9 266.2 217.8 265.6 218.4 265.05 218.95 264.15 219.0 263.3 218.95 262.7 218.35 262.1 217.8 262.1 216.9" fill="#527312" fill-rule="evenodd" stroke="none"/>
    <path d="M294.35 190.1 L293.85 191.25 292.4 193.9 290.45 196.8 Q289.4 198.2 288.3 198.75 287.25 199.35 286.3 198.5 285.4 197.6 285.95 196.5 286.5 195.4 287.8 194.25 L290.65 192.2 293.2 190.7 294.35 190.1" fill="#425c0a" fill-rule="evenodd" stroke="none"/>
    <path d="M286.45 196.45 Q285.95 197.9 284.2 197.7 282.5 197.45 280.4 196.4 L276.85 194.3 275.25 193.25 276.55 193.2 279.55 193.2 283.0 193.55 Q284.75 193.85 285.75 194.55 286.75 195.25 286.45 196.45" fill="#425c0a" fill-rule="evenodd" stroke="none"/>
    <path d="M283.2 192.05 L285.7 192.95 286.45 193.9 Q287.2 194.85 287.7 196.5 288.2 198.2 287.7 200.35 287.2 201.5 286.5 201.35 285.8 201.2 285.35 200.35 285.9 198.5 285.35 196.6 284.8 194.7 284.05 193.4 L283.2 192.05" fill="#425c0a" fill-rule="evenodd" stroke="none"/>
    <path d="M288.9 186.6 L287.75 188.6 Q289.2 188.7 290.15 189.2 291.1 189.7 291.1 190.4 291.1 191.0 290.3 191.5 289.5 191.95 288.25 192.1 288.95 193.05 289.1 193.9 289.3 194.7 288.9 195.15 L287.45 195.35 285.45 194.2 Q285.35 195.65 284.85 196.55 284.35 197.5 283.65 197.55 282.95 197.5 282.45 196.5 281.95 195.5 281.85 194.0 L279.7 195.35 278.15 195.2 Q277.7 194.7 277.95 193.75 278.25 192.8 279.1 191.75 277.65 191.65 276.7 191.15 275.8 190.65 275.75 189.95 275.75 189.3 276.55 188.85 277.35 188.4 278.6 188.2 L277.75 186.45 Q277.55 185.6 277.95 185.2 278.45 184.75 279.4 185.0 280.4 185.3 281.45 186.15 281.55 184.7 282.05 183.75 282.5 182.85 283.2 182.8 283.95 182.85 284.45 183.85 284.95 184.8 285.0 186.35 286.1 185.35 287.15 185.0 L288.75 185.15 Q289.2 185.65 288.9 186.6" fill="#ffff00" fill-rule="evenodd" stroke="none"/>
    <path d="M281.15 189.95 Q281.15 189.1 281.75 188.5 282.35 187.9 283.2 187.9 284.1 187.9 284.7 188.5 285.25 189.1 285.3 189.95 285.25 190.85 284.65 191.45 284.1 192.0 283.2 192.05 282.35 192.0 281.75 191.4 281.15 190.85 281.15 189.95" fill="#527312" fill-rule="evenodd" stroke="none"/>
    <path d="M113.1 147.35 L112.6 148.5 111.15 151.15 109.2 154.05 107.05 156.0 Q106.0 156.6 105.05 155.75 104.15 154.85 104.7 153.75 105.25 152.65 106.55 151.5 107.9 150.4 109.4 149.45 L111.95 147.95 113.1 147.35" fill="#425c0a" fill-rule="evenodd" stroke="none"/>
    <path d="M105.2 153.7 Q104.7 155.15 102.95 154.95 101.25 154.7 99.15 153.65 L95.6 151.55 94.0 150.5 95.3 150.45 98.3 150.45 101.75 150.8 Q103.5 151.1 104.5 151.8 105.5 152.5 105.2 153.7" fill="#425c0a" fill-rule="evenodd" stroke="none"/>
    <path d="M102.0 149.25 L104.5 150.15 105.25 151.1 Q106.0 152.05 106.5 153.7 107.0 155.4 106.5 157.55 106.0 158.7 105.3 158.55 104.6 158.4 104.15 157.55 104.7 155.7 104.15 153.8 103.6 151.9 102.85 150.6 L102.0 149.25" fill="#425c0a" fill-rule="evenodd" stroke="none"/>
    <path d="M107.65 143.8 Q107.4 144.75 106.5 145.8 L108.9 146.4 Q109.85 146.9 109.85 147.6 109.85 148.2 109.05 148.7 L107.0 149.3 Q107.7 150.25 107.85 151.1 108.05 151.9 107.65 152.35 L106.2 152.55 Q105.25 152.25 104.2 151.4 104.1 152.85 103.6 153.75 103.1 154.7 102.4 154.75 101.7 154.7 101.2 153.7 100.7 152.7 100.6 151.2 L98.45 152.55 96.9 152.4 Q96.45 151.9 96.7 150.95 97.0 150.0 97.85 148.95 96.4 148.85 95.45 148.35 94.55 147.85 94.5 147.15 94.5 146.5 95.3 146.05 96.1 145.6 97.35 145.4 L96.5 143.65 Q96.3 142.8 96.7 142.4 97.2 141.95 98.15 142.2 99.15 142.5 100.2 143.35 100.3 141.9 100.8 140.95 101.25 140.05 101.95 140.0 102.7 140.05 103.2 141.05 103.7 142.0 103.75 143.55 104.85 142.55 105.9 142.2 L107.5 142.35 Q107.95 142.85 107.65 143.8" fill="#eb4a82" fill-rule="evenodd" stroke="none"/>
    <path d="M99.9 147.2 Q99.9 146.35 100.5 145.75 101.1 145.15 101.95 145.15 102.85 145.15 103.45 145.75 104.0 146.35 104.05 147.2 104.0 148.1 103.4 148.7 102.85 149.25 101.95 149.3 101.1 149.25 100.5 148.65 99.9 148.1 99.9 147.2" fill="#ab385c" fill-rule="evenodd" stroke="none"/>
    <path d="M97.1 160.35 L96.6 161.5 95.15 164.15 93.2 167.05 91.05 169.0 Q90.0 169.6 89.05 168.75 88.15 167.85 88.7 166.75 89.25 165.65 90.55 164.5 91.9 163.4 93.4 162.45 L95.95 160.95 97.1 160.35" fill="#425c0a" fill-rule="evenodd" stroke="none"/>
    <path d="M89.2 166.7 Q88.7 168.15 86.95 167.95 85.25 167.7 83.15 166.65 L79.6 164.55 78.0 163.5 79.3 163.45 82.3 163.45 85.75 163.8 Q87.5 164.1 88.5 164.8 89.5 165.5 89.2 166.7" fill="#425c0a" fill-rule="evenodd" stroke="none"/>
    <path d="M86.0 162.25 L88.5 163.15 89.25 164.1 Q90.0 165.05 90.5 166.7 91.0 168.4 90.5 170.55 90.0 171.7 89.3 171.55 88.6 171.4 88.15 170.55 88.7 168.7 88.15 166.8 87.6 164.9 86.85 163.6 L86.0 162.25" fill="#425c0a" fill-rule="evenodd" stroke="none"/>
    <path d="M91.65 156.8 L90.5 158.8 92.9 159.4 Q93.85 159.9 93.85 160.6 93.85 161.2 93.05 161.7 L91.0 162.3 Q91.7 163.25 91.85 164.1 92.05 164.9 91.65 165.35 L90.2 165.55 88.2 164.4 Q88.1 165.85 87.6 166.75 87.1 167.7 86.4 167.75 85.7 167.7 85.2 166.7 84.7 165.7 84.6 164.2 83.5 165.2 82.45 165.55 L80.9 165.4 Q80.45 164.9 80.7 163.95 81.0 163.0 81.85 161.95 80.4 161.85 79.45 161.35 78.55 160.85 78.5 160.15 78.5 159.5 79.3 159.05 80.1 158.6 81.35 158.4 80.7 157.45 80.5 156.65 80.3 155.8 80.7 155.4 81.2 154.95 82.15 155.2 L84.2 156.35 Q84.3 154.9 84.8 153.95 85.25 153.05 85.95 153.0 86.7 153.05 87.2 154.05 87.7 155.0 87.75 156.55 88.85 155.55 89.9 155.2 L91.5 155.35 Q91.95 155.85 91.65 156.8" fill="#eb4a82" fill-rule="evenodd" stroke="none"/>
    <path d="M83.9 160.2 Q83.9 159.35 84.5 158.75 85.1 158.15 85.95 158.15 86.85 158.15 87.45 158.75 88.0 159.35 88.05 160.2 88.0 161.1 87.4 161.7 86.85 162.25 85.95 162.3 85.1 162.25 84.5 161.65 83.9 161.1 83.9 160.2" fill="#ab385c" fill-rule="evenodd" stroke="none"/>
    <path d="M582.65 309.95 L582.95 311.65 583.3 315.85 Q583.45 318.35 583.1 321.05 582.7 323.7 581.5 325.8 580.3 327.9 577.9 328.75 575.8 329.3 575.65 327.65 575.45 325.95 576.5 323.05 L578.9 317.2 581.45 312.1 582.65 309.95" fill="#425d18" fill-rule="evenodd" stroke="none"/>
  </g>
</svg>
