<?xml version="1.0" encoding="UTF-8" standalone="no"?>
<svg xmlns:xlink="http://www.w3.org/1999/xlink" height="189.35px" width="137.15px" xmlns="http://www.w3.org/2000/svg">
  <g transform="matrix(1.0, 0.0, 0.0, 1.0, 36.35, 93.9)">
    <path d="M-14.95 42.1 L-16.3 39.1 -21.3 17.95 -22.95 -5.9 -21.45 -27.4 -16.55 -48.65 -15.8 -51.05 -7.55 -69.3 4.2 -82.9 Q23.1 -95.0 23.3 -92.8 44.55 -97.75 62.3 -80.9 L72.2 -69.3 80.95 -49.55 85.95 -27.9 87.55 -6.05 86.05 16.45 81.7 36.1 Q81.25 39.1 79.55 42.1 L72.95 56.6 61.7 70.35 48.45 78.85 Q49.2 79.2 43.45 80.1 L43.3 80.2 32.7 82.35 21.3 80.2 21.2 80.2 21.2 80.1 17.05 79.35 3.3 70.7 -8.2 56.85 -14.95 42.1" fill="#b19771" fill-rule="evenodd" stroke="none"/>
    <path d="M79.55 42.1 Q94.8 39.25 100.55 56.7 102.5 71.6 89.2 83.95 74.25 96.5 62.05 95.35 51.6 93.25 46.45 88.45 L43.95 83.7 43.3 81.2 43.45 80.2 43.3 80.2 43.45 80.1 Q49.2 79.2 48.45 78.85 L61.7 70.35 72.95 56.6 79.55 42.1 M21.2 80.2 L20.95 82.85 Q19.25 87.6 18.3 88.35 L13.7 91.6 Q7.55 94.75 3.95 95.2 -8.5 97.15 -24.2 84.35 -37.15 72.15 -36.3 58.2 -32.5 40.25 -14.95 42.1 L-8.2 56.85 3.3 70.7 17.05 79.35 21.2 80.1 21.2 80.2" fill="#573f70" fill-rule="evenodd" stroke="none"/>
  </g>
</svg>
