<?xml version="1.0" encoding="UTF-8" standalone="no"?>
<svg xmlns:xlink="http://www.w3.org/1999/xlink" height="434.5px" width="715.0px" xmlns="http://www.w3.org/2000/svg">
  <g transform="matrix(1.0, 0.0, 0.0, 1.0, 45.95, 46.0)">
    <path d="M74.95 161.45 Q74.95 163.75 78.45 165.35 82.0 166.95 86.95 166.95 91.9 166.95 95.4 165.35 98.95 163.75 98.95 161.45 98.95 159.15 95.4 157.55 91.9 155.95 86.95 155.95 82.0 155.95 78.45 157.55 74.95 159.15 74.95 161.45 M63.9 131.2 Q67.45 129.45 67.45 126.95 67.45 124.45 63.9 122.7 60.4 120.95 55.45 120.95 50.5 120.95 46.95 122.7 43.45 124.45 43.45 126.95 43.45 129.45 46.95 131.2 50.5 132.95 55.45 132.95 60.4 132.95 63.9 131.2 M29.95 49.45 Q34.9 49.45 38.4 47.4 41.95 45.35 41.95 42.45 41.95 39.55 38.4 37.5 34.9 35.45 29.95 35.45 25.0 35.45 21.45 37.5 17.95 39.55 17.95 42.45 17.95 45.35 21.45 47.4 25.0 49.45 29.95 49.45 M116.4 69.1 Q119.95 66.75 119.95 63.45 119.95 60.15 116.4 57.8 112.9 55.45 107.95 55.45 103.0 55.45 99.45 57.8 95.95 60.15 95.95 63.45 95.95 66.75 99.45 69.1 103.0 71.45 107.95 71.45 112.9 71.45 116.4 69.1 M345.9 276.3 Q390.7 262.55 389.35 242.95 387.95 223.3 342.4 210.1 296.85 196.95 232.45 196.95 168.05 196.95 122.5 210.1 76.95 223.3 76.65 242.95 76.3 262.6 121.0 278.3 165.7 293.95 233.4 292.0 301.1 290.0 345.9 276.3 M349.0 72.05 Q352.95 70.15 352.95 67.45 352.95 64.75 349.0 62.85 345.05 60.95 339.45 60.95 333.85 60.95 329.9 62.85 325.95 64.75 325.95 67.45 325.95 70.15 329.9 72.05 333.85 73.95 339.45 73.95 345.05 73.95 349.0 72.05 M524.05 42.95 L524.25 42.95 524.05 43.1 524.05 42.95 M541.1 39.75 L541.1 37.95 669.05 37.95 669.05 388.5 -45.95 388.5 -45.95 -46.0 351.05 -46.0 351.05 16.95 353.05 16.95 351.05 60.95 400.95 54.05 400.9 54.05 Q396.95 56.7 396.95 60.45 396.95 64.2 400.9 66.8 404.85 69.45 410.45 69.45 416.05 69.45 420.0 66.8 422.85 64.95 423.65 62.5 438.9 76.15 468.85 72.65 471.4 73.45 474.45 73.45 479.85 73.45 483.65 70.95 L485.25 69.7 Q502.7 65.6 524.05 56.95 L524.05 50.8 526.35 52.25 Q528.75 53.45 531.7 54.0 L536.95 54.45 542.2 54.0 Q545.15 53.45 547.55 52.25 551.95 50.05 551.95 46.95 551.95 43.85 547.55 41.65 544.7 40.25 541.1 39.75" fill="#000000" fill-opacity="0.2" fill-rule="evenodd" stroke="none"/>
  </g>
</svg>
