<?xml version="1.0" encoding="UTF-8" standalone="no"?>
<svg xmlns:xlink="http://www.w3.org/1999/xlink" height="137.85px" width="167.2px" xmlns="http://www.w3.org/2000/svg">
  <g transform="matrix(1.0, 0.0, 0.0, 1.0, 51.25, 33.15)">
    <path d="M-27.7 64.6 Q-29.85 63.25 -37.95 45.45 L-40.45 29.95 -37.8 13.1 -29.7 -2.65 -17.2 -16.15 Q-3.3 -27.5 15.05 -31.55 32.45 -35.6 55.8 -29.4 L67.3 -25.4 82.05 -16.05 94.45 -2.55 102.45 13.1 105.05 28.6 102.55 45.6 95.05 60.95 91.8 64.6 83.55 73.6 Q72.2 82.9 60.8 86.45 L50.45 90.45 45.2 91.35 32.55 92.6 19.45 91.35 15.2 90.85 3.95 86.45 Q-6.15 83.9 -18.95 73.6 L-27.2 64.6 Q-27.4 64.8 -27.7 64.6" fill="#b19771" fill-rule="evenodd" stroke="none"/>
    <path d="M91.8 64.6 Q114.55 64.75 115.3 73.2 118.8 82.0 102.8 91.1 89.1 101.1 64.2 104.1 51.35 102.65 47.3 98.95 43.6 93.75 45.2 91.35 L50.45 90.45 60.8 86.45 Q72.2 82.9 83.55 73.6 L91.8 64.6 M19.45 91.35 Q23.55 99.95 3.2 104.1 -5.45 107.5 -38.05 91.2 -54.0 82.2 -50.7 73.2 -49.45 64.6 -27.7 64.6 -27.4 64.8 -27.2 64.6 L-18.95 73.6 Q-6.15 83.9 3.95 86.45 L15.2 90.85 19.45 91.35" fill="#573f70" fill-rule="evenodd" stroke="none"/>
  </g>
</svg>
