<?xml version="1.0" encoding="UTF-8" standalone="no"?>
<svg xmlns:xlink="http://www.w3.org/1999/xlink" height="16.2px" width="35.85px" xmlns="http://www.w3.org/2000/svg">
  <g transform="matrix(1.0, 0.0, 0.0, 1.0, 17.9, 8.1)">
    <path d="M16.9 -4.3 Q18.45 -2.65 17.75 0.4 16.85 3.85 13.95 5.65 11.0 7.45 6.95 7.9 2.9 8.35 -1.45 7.9 -5.8 7.4 -9.55 6.3 -13.3 5.2 -15.6 3.9 -17.9 2.6 -17.9 1.4 -17.75 0.4 -15.65 -0.85 -13.5 -2.1 -10.05 -3.3 -6.65 -4.55 -2.65 -5.45 L5.3 -6.7 12.25 -6.5 Q15.35 -5.95 16.9 -4.3" fill="#5c5c5c" fill-rule="evenodd" stroke="none"/>
    <path d="M14.55 2.8 Q16.85 1.6 17.65 0.75 16.95 3.55 13.65 5.35 10.35 7.15 5.35 7.65 L-5.5 7.05 Q-11.3 6.0 -17.0 3.05 -8.4 5.2 -2.2 5.45 L8.1 4.9 Q12.25 4.05 14.55 2.8" fill="#3b3b3b" fill-rule="evenodd" stroke="none"/>
    <path d="M-8.5 -3.65 L-8.0 -4.7 -6.75 -6.7 Q-6.0 -7.75 -5.15 -8.05 -4.3 -8.25 -3.95 -7.5 L-3.6 -6.0 -3.6 -5.15 -8.5 -3.65" fill="#5c5c5c" fill-rule="evenodd" stroke="none"/>
    <path d="M-4.6 -2.3 L-10.2 -0.75 -10.15 -1.6 -9.85 -3.55 -9.25 -5.55 Q-8.9 -6.5 -8.3 -6.8 -7.65 -7.0 -7.0 -6.4 L-5.8 -4.8 -4.95 -3.1 -4.6 -2.3" fill="#3b3b3b" fill-rule="evenodd" stroke="none"/>
  </g>
</svg>
