<?xml version="1.0" encoding="UTF-8" standalone="no"?>
<svg xmlns:xlink="http://www.w3.org/1999/xlink" height="434.5px" width="569.85px" xmlns="http://www.w3.org/2000/svg">
  <g transform="matrix(1.0, 0.0, 0.0, 1.0, 45.95, 46.0)">
    <path d="M497.95 -22.0 Q466.45 -5.5 435.95 14.0 L402.75 31.3 Q370.1 48.15 375.1 87.1 380.1 126.05 441.9 146.25 503.7 166.4 501.85 178.6 500.0 190.8 491.2 199.7 L476.0 209.9 Q471.8 211.75 435.1 231.65 399.55 250.9 388.85 255.2 L289.65 292.4 Q203.8 324.45 201.95 326.0 181.7 331.0 98.65 356.95 13.4 383.6 3.55 388.5 L-45.95 388.5 -45.95 38.95 21.95 38.95 21.95 -46.0 523.9 -46.0 520.95 -42.0 Q508.35 -34.55 497.95 -22.0 M25.35 271.0 Q30.8 273.95 38.45 273.95 46.1 273.95 51.5 271.0 56.95 268.1 56.95 263.95 56.95 259.8 51.5 256.85 46.1 253.95 38.45 253.95 30.8 253.95 25.35 256.85 19.95 259.8 19.95 263.95 19.95 268.1 25.35 271.0 M161.95 265.75 L126.35 275.35 163.55 307.95 204.95 299.15 161.95 265.75 M128.8 291.9 Q126.45 289.55 123.15 289.55 119.85 289.55 117.5 291.9 115.15 294.25 115.15 297.55 115.15 300.85 117.5 303.2 119.85 305.55 123.15 305.55 126.45 305.55 128.8 303.2 131.15 300.85 131.15 297.55 131.15 294.25 128.8 291.9 M137.4 187.45 Q132.45 189.95 132.45 193.45 132.45 196.95 137.4 199.45 142.4 201.95 149.45 201.95 156.5 201.95 161.45 199.45 166.45 196.95 166.45 193.45 166.45 189.95 161.45 187.45 156.5 184.95 149.45 184.95 142.4 184.95 137.4 187.45 M225.45 178.45 Q233.1 178.45 238.5 175.5 243.9 172.6 243.9 168.45 243.9 164.3 238.5 161.35 233.1 158.45 225.45 158.45 217.8 158.45 212.4 161.35 207.0 164.3 207.0 168.45 207.0 172.6 212.4 175.5 217.8 178.45 225.45 178.45 M350.3 205.85 L378.55 231.55 419.7 222.7 371.7 184.7 Q350.95 187.45 350.3 205.85 M343.3 227.05 Q345.95 225.15 345.95 222.45 345.95 219.75 343.3 217.85 340.7 215.95 336.95 215.95 333.2 215.95 330.55 217.85 327.95 219.75 327.95 222.45 327.95 225.15 330.55 227.05 333.2 228.95 336.95 228.95 340.7 228.95 343.3 227.05" fill="#244fc4" fill-opacity="0.33333334" fill-rule="evenodd" stroke="none"/>
  </g>
</svg>
