<?xml version="1.0" encoding="UTF-8" standalone="no"?>
<svg xmlns:xlink="http://www.w3.org/1999/xlink" height="401.0px" width="597.95px" xmlns="http://www.w3.org/2000/svg">
  <g transform="matrix(1.0, 0.0, 0.0, 1.0, 316.5, 400.5)">
    <path d="M20.4 -400.45 L18.4 -400.45 85.4 -400.5 85.55 -400.25 63.6 -400.35 20.4 -400.45 M238.25 -398.85 L261.45 -399.15 276.25 -399.4 281.45 -399.5 281.45 -399.25 273.45 -399.15 250.3 -398.85 219.9 -398.6 183.5 -398.5 Q171.55 -394.45 159.1 -389.05 146.7 -383.7 134.7 -377.2 122.75 -370.75 112.15 -363.3 101.6 -355.9 93.4 -347.8 85.2 -339.65 80.35 -331.0 75.45 -322.3 74.85 -313.3 74.3 -304.3 78.95 -295.15 83.6 -286.0 94.45 -276.85 105.35 -267.75 123.35 -258.85 141.35 -249.95 167.5 -241.5 184.25 -236.05 192.2 -229.35 200.1 -222.6 200.15 -214.85 200.25 -207.1 193.5 -198.5 186.8 -189.9 174.3 -180.7 161.85 -171.45 144.65 -161.85 127.45 -152.2 106.65 -142.4 85.8 -132.6 62.3 -122.8 38.85 -113.0 13.8 -103.4 -11.2 -93.85 -36.8 -84.75 -62.35 -75.6 -87.45 -67.15 -112.5 -58.7 -136.0 -51.1 -159.5 -43.55 -180.4 -37.05 L-218.6 -25.35 -248.45 -16.45 -267.9 -10.8 -274.85 -8.85 -273.5 0.5 -277.5 0.5 -278.1 -1.5 -316.5 -1.5 -315.1 -5.8 -310.8 -17.55 Q-307.85 -25.1 -303.2 -35.1 -298.6 -45.15 -292.1 -56.9 -285.65 -68.6 -277.2 -81.2 -268.75 -93.8 -258.2 -106.45 -247.65 -119.05 -234.8 -130.9 -222.0 -142.75 -206.75 -153.0 -191.55 -163.25 -173.75 -171.1 -155.95 -178.9 -135.5 -183.5 -108.35 -189.5 -88.45 -194.95 -68.6 -200.4 -55.0 -205.4 -41.45 -210.45 -33.25 -215.2 -25.05 -219.9 -21.25 -224.45 -17.5 -229.0 -17.25 -233.45 -17.0 -237.9 -19.35 -242.4 -21.65 -246.95 -25.6 -251.6 L-34.25 -261.25 Q-38.9 -266.2 -43.35 -271.55 -47.75 -276.9 -51.05 -282.8 -54.3 -288.65 -55.5 -295.15 -56.65 -301.65 -54.8 -308.9 -52.9 -316.15 -47.1 -324.3 -41.25 -332.4 -30.5 -341.5 -28.55 -343.3 -29.1 -347.3 -29.7 -351.3 -32.1 -356.7 -34.5 -362.1 -37.95 -368.1 -41.35 -374.05 -45.1 -379.8 L-52.1 -390.2 -57.4 -397.65 -59.5 -400.5 -21.5 -400.5 Q-11.3 -389.25 -3.8 -379.35 3.65 -369.45 7.4 -360.95 11.15 -352.45 10.15 -345.3 9.2 -338.2 2.5 -332.5 -8.25 -323.4 -14.15 -315.25 -20.1 -307.1 -22.1 -299.8 -24.1 -292.5 -23.1 -285.9 -22.05 -279.3 -18.95 -273.3 -15.85 -267.3 -11.55 -261.75 -7.25 -256.25 -2.65 -251.1 L5.9 -241.0 Q9.85 -236.1 12.25 -231.3 14.7 -226.5 14.65 -221.7 14.65 -216.9 11.3 -212.0 7.9 -207.1 0.3 -202.0 -7.35 -196.85 -20.1 -191.4 -32.9 -185.9 -51.8 -179.95 -70.65 -174.05 -96.5 -167.5 -125.9 -160.0 -149.25 -150.05 -172.6 -140.05 -190.55 -128.45 -208.5 -116.85 -221.75 -104.4 -235.05 -91.95 -244.35 -79.5 -253.65 -67.1 -259.65 -55.45 L-264.7 -45.0 -265.15 -42.75 Q-265.55 -38.8 -263.9 -36.15 -262.2 -33.55 -259.35 -32.0 -256.45 -30.45 -253.2 -29.8 L-247.15 -29.1 -242.85 -29.5 Q-220.55 -35.45 -195.4 -42.7 -170.2 -49.9 -143.3 -58.2 -116.35 -66.45 -88.75 -75.5 -61.1 -84.55 -33.9 -94.2 -6.7 -103.85 19.05 -113.8 44.8 -123.8 67.95 -133.85 91.15 -143.95 110.65 -153.95 130.15 -163.9 144.95 -173.5 159.75 -183.15 168.7 -192.2 177.7 -201.25 179.75 -209.45 181.8 -217.7 175.9 -224.9 169.95 -232.1 155.0 -238.0 129.45 -248.05 111.8 -258.05 94.15 -268.0 83.45 -277.8 72.8 -287.6 68.2 -297.1 63.65 -306.55 64.2 -315.65 64.75 -324.7 69.5 -333.2 74.25 -341.75 82.3 -349.6 90.35 -357.5 100.75 -364.55 111.15 -371.65 123.0 -377.85 134.85 -384.05 147.2 -389.25 159.55 -394.45 171.5 -398.5 L207.9 -398.6 231.7 -398.75 238.25 -398.85" fill="#9c5712" fill-rule="evenodd" stroke="none"/>
  </g>
</svg>
