<?xml version="1.0" encoding="UTF-8" standalone="no"?>
<svg xmlns:xlink="http://www.w3.org/1999/xlink" height="401.0px" width="600.35px" xmlns="http://www.w3.org/2000/svg">
  <g transform="matrix(1.0, 0.0, 0.0, 1.0, 274.85, 400.5)">
    <path d="M20.4 -400.45 L63.6 -400.35 85.55 -400.25 106.0 -400.2 145.5 -400.0 179.95 -399.8 207.15 -399.65 225.05 -399.55 231.5 -399.5 231.7 -398.75 207.9 -398.6 171.5 -398.5 Q159.55 -394.45 147.2 -389.25 134.85 -384.05 123.0 -377.85 111.15 -371.65 100.75 -364.55 90.35 -357.5 82.3 -349.6 74.25 -341.75 69.5 -333.2 64.75 -324.7 64.2 -315.65 63.65 -306.55 68.2 -297.1 72.8 -287.6 83.45 -277.8 94.15 -268.0 111.8 -258.05 129.45 -248.05 155.0 -238.0 169.95 -232.1 175.9 -224.9 181.8 -217.7 179.75 -209.45 177.7 -201.25 168.7 -192.2 159.75 -183.15 144.95 -173.5 130.15 -163.9 110.65 -153.95 91.15 -143.95 67.95 -133.85 44.8 -123.8 19.05 -113.8 -6.7 -103.85 -33.9 -94.2 -61.1 -84.55 -88.75 -75.5 -116.35 -66.45 -143.3 -58.2 -170.2 -49.9 -195.4 -42.7 -220.55 -35.45 -242.85 -29.5 L-247.15 -29.1 -253.2 -29.8 Q-256.45 -30.45 -259.35 -32.0 -262.2 -33.55 -263.9 -36.15 -265.55 -38.8 -265.15 -42.75 L-264.7 -45.0 -259.65 -55.45 Q-253.65 -67.1 -244.35 -79.5 -235.05 -91.95 -221.75 -104.4 -208.5 -116.85 -190.55 -128.45 -172.6 -140.05 -149.25 -150.05 -125.9 -160.0 -96.5 -167.5 -70.65 -174.05 -51.8 -179.95 -32.9 -185.9 -20.1 -191.4 -7.35 -196.85 0.3 -202.0 7.9 -207.1 11.3 -212.0 14.65 -216.9 14.65 -221.7 14.7 -226.5 12.25 -231.3 9.85 -236.1 5.9 -241.0 L-2.65 -251.1 Q-7.25 -256.25 -11.55 -261.75 -15.85 -267.3 -18.95 -273.3 -22.05 -279.3 -23.1 -285.9 -24.1 -292.5 -22.1 -299.8 -20.1 -307.1 -14.15 -315.25 -8.25 -323.4 2.5 -332.5 9.2 -338.2 10.15 -345.3 11.15 -352.45 7.4 -360.95 3.65 -369.45 -3.8 -379.35 -11.3 -389.25 -21.5 -400.5 L18.4 -400.45 20.4 -400.45 M219.9 -398.6 L250.3 -398.85 273.45 -399.15 281.45 -399.25 288.25 -399.4 293.45 -399.5 293.45 -136.55 325.5 -0.5 293.45 -0.5 293.45 0.05 -273.5 0.5 -274.85 -8.85 -267.9 -10.8 -248.45 -16.45 -218.6 -25.35 -180.4 -37.05 Q-159.5 -43.55 -136.0 -51.1 -112.5 -58.7 -87.45 -67.15 -62.35 -75.6 -36.8 -84.75 -11.2 -93.85 13.8 -103.4 38.85 -113.0 62.3 -122.8 85.8 -132.6 106.65 -142.4 127.45 -152.2 144.65 -161.85 161.85 -171.45 174.3 -180.7 186.8 -189.9 193.5 -198.5 200.25 -207.1 200.15 -214.85 200.1 -222.6 192.2 -229.35 184.25 -236.05 167.5 -241.5 141.35 -249.95 123.35 -258.85 105.35 -267.75 94.45 -276.85 83.6 -286.0 78.95 -295.15 74.3 -304.3 74.85 -313.3 75.45 -322.3 80.35 -331.0 85.2 -339.65 93.4 -347.8 101.6 -355.9 112.15 -363.3 122.75 -370.75 134.7 -377.2 146.7 -383.7 159.1 -389.05 171.55 -394.45 183.5 -398.5 L219.9 -398.6" fill="#73420a" fill-rule="evenodd" stroke="none"/>
  </g>
</svg>
