<?xml version="1.0" encoding="UTF-8" standalone="no"?>
<svg xmlns:xlink="http://www.w3.org/1999/xlink" height="41.45px" width="80.5px" xmlns="http://www.w3.org/2000/svg">
  <g transform="matrix(1.0, 0.0, 0.0, 1.0, -337.5, -189.8)">
    <path d="M348.85 205.95 L337.5 195.8 371.85 190.25 384.8 199.65 348.85 205.95 M400.25 210.95 L416.85 223.0 377.2 231.25 367.2 222.3 365.55 221.3 361.75 218.95 357.45 216.05 354.35 213.5 Q353.9 213.0 353.7 212.15 L353.4 210.65 353.35 209.95 349.2 206.3 385.2 200.0 399.8 210.6 378.5 214.75 400.25 210.95" fill="#52330c" fill-rule="evenodd" stroke="none"/>
    <path d="M350.0 205.5 L338.65 195.35 373.0 189.8 385.95 199.2 350.0 205.5 M401.4 210.5 L418.0 222.55 378.35 230.8 368.35 221.85 365.8 216.85 365.6 216.9 365.0 216.15 363.6 214.8 Q362.85 213.7 361.85 212.9 L361.75 212.9 359.05 211.25 358.8 211.15 358.85 211.15 355.75 209.85 354.5 209.5 350.35 205.85 386.35 199.55 400.95 210.15 379.65 214.3 401.4 210.5" fill="#246ec2" fill-rule="evenodd" stroke="none"/>
  </g>
</svg>
