<?xml version="1.0" encoding="UTF-8" standalone="no"?>
<svg xmlns:xlink="http://www.w3.org/1999/xlink" height="31.95px" width="39.5px" xmlns="http://www.w3.org/2000/svg">
  <g transform="matrix(1.0, 0.0, 0.0, 1.0, 23.0, 16.85)">
    <path d="M0.2 -14.9 L-1.45 -14.85 -1.85 -10.5 -0.45 -10.6 2.6 -10.75 5.6 -10.95 6.8 -11.05 6.15 -10.15 4.75 -7.85 3.25 -5.25 -9.85 -7.05 -7.2 -8.35 -6.0 -8.9 -8.8 -12.25 -10.3 -11.6 -13.75 -10.1 Q-13.8 -10.85 -13.45 -11.75 -12.25 -14.9 -10.35 -15.95 -8.4 -17.0 -6.4 -16.85 -4.4 -16.65 -3.0 -16.1 L-1.6 -15.45 -1.35 -15.2 2.25 -14.95 0.2 -14.9 M-10.4 -4.0 Q-11.6 -4.55 -12.2 -5.7 L-12.4 -5.55 -10.1 -6.9 -5.1 -2.05 -6.45 -2.25 -7.8 -3.55 Q-9.2 -3.4 -10.4 -4.0 M-20.6 -1.05 Q-22.55 -1.9 -22.95 -2.95 -23.2 -4.0 -21.75 -5.25 L-18.8 -7.3 Q-20.3 -6.45 -21.25 -5.5 -22.5 -4.3 -22.25 -3.35 -21.85 -2.3 -19.9 -1.5 -17.95 -0.65 -15.35 0.0 L-10.35 1.05 -6.6 1.65 -4.15 4.2 -0.25 8.1 3.85 11.95 Q6.2 13.95 8.85 14.45 11.45 14.95 13.6 14.05 13.8 14.0 13.95 13.9 12.6 14.8 10.8 15.0 L10.15 15.05 8.4 14.85 7.4 14.7 Q5.8 14.25 4.3 13.25 L2.75 12.0 -1.25 8.2 -4.95 4.5 -7.3 2.05 -11.05 1.45 -16.05 0.4 Q-18.65 -0.25 -20.6 -1.05 M5.7 -10.1 L6.15 -10.65 5.75 -10.6 4.6 -10.5 4.25 -9.85 3.95 -9.55 4.35 -9.15 4.75 -8.6 5.7 -10.1 M16.45 8.0 L16.05 6.85 16.45 7.95 16.5 8.05 16.45 8.0" fill="#3d1c0c" fill-rule="evenodd" stroke="none"/>
  </g>
</svg>
