<?xml version="1.0" encoding="UTF-8" standalone="no"?>
<svg xmlns:xlink="http://www.w3.org/1999/xlink" height="29.6px" width="39.1px" xmlns="http://www.w3.org/2000/svg">
  <g transform="matrix(1.0, 0.0, 0.0, 1.0, 22.3, 14.95)">
    <path d="M-13.7 -4.3 Q-13.5 -3.95 -12.4 -3.6 L-9.75 -2.95 -6.95 -2.35 -6.45 -2.25 -5.1 -2.05 -10.1 -6.9 -12.4 -5.55 -12.7 -5.4 Q-13.8 -4.65 -13.7 -4.3 M2.25 -14.95 L3.95 -14.9 8.05 -14.5 Q9.95 -14.1 10.7 -13.25 11.25 -12.45 10.8 -10.8 10.4 -9.15 9.45 -7.2 L7.6 -3.7 9.35 -2.65 Q10.55 -1.75 11.95 0.05 L14.6 3.95 16.05 6.85 16.45 8.0 16.5 8.05 Q17.05 9.95 16.65 11.05 15.85 12.95 14.0 13.9 L13.95 13.9 Q13.8 14.0 13.6 14.05 11.45 14.95 8.85 14.45 6.2 13.95 3.85 11.95 L-0.25 8.1 -4.15 4.2 -6.6 1.65 -10.35 1.05 -15.35 0.0 Q-17.95 -0.65 -19.9 -1.5 -21.85 -2.3 -22.25 -3.35 -22.5 -4.3 -21.25 -5.5 -20.3 -6.45 -18.8 -7.3 L-18.65 -7.4 -17.95 -7.85 -13.85 -10.05 -13.75 -10.1 -10.3 -11.6 -8.8 -12.25 -6.0 -8.9 -7.2 -8.35 -9.85 -7.05 3.25 -5.25 4.75 -7.85 6.15 -10.15 6.8 -11.05 5.6 -10.95 2.6 -10.75 -0.45 -10.6 -1.85 -10.5 -1.45 -14.85 0.2 -14.9 2.25 -14.95" fill="#909090" fill-rule="evenodd" stroke="none"/>
  </g>
</svg>
