<?xml version="1.0" encoding="UTF-8" standalone="no"?>
<svg xmlns:xlink="http://www.w3.org/1999/xlink" height="16.0px" width="21.15px" xmlns="http://www.w3.org/2000/svg">
  <g transform="matrix(1.0, 0.0, 0.0, 1.0, 13.05, 17.25)">
    <path d="M7.3 -6.0 Q8.0 -4.55 8.0 -3.25 8.05 -2.0 6.6 -1.45 5.05 -1.0 2.35 -1.45 -0.3 -1.95 -3.1 -2.8 L-7.85 -4.35 -9.9 -5.1 -10.95 -6.05 Q-11.9 -7.0 -12.65 -8.6 -13.4 -10.15 -12.8 -12.15 -11.6 -15.3 -9.65 -16.35 -7.7 -17.4 -5.7 -17.25 -3.7 -17.05 -2.35 -16.5 L-0.9 -15.85 5.0 -9.55 5.85 -8.5 7.3 -6.0" fill="#6b6b6b" fill-rule="evenodd" stroke="none"/>
    <path d="M-2.75 -10.35 Q-2.05 -8.7 -2.8 -7.0 -3.55 -5.35 -5.4 -4.45 -7.3 -3.65 -9.05 -4.15 -10.8 -4.65 -11.6 -6.3 -12.3 -7.95 -11.55 -9.65 -10.8 -11.3 -8.95 -12.2 L-5.3 -12.5 Q-3.55 -12.0 -2.75 -10.35" fill="#000000" fill-rule="evenodd" stroke="none"/>
    <path d="M-3.3 -13.9 Q-2.3 -15.25 -0.55 -15.65 1.25 -16.05 3.0 -15.3 4.75 -14.5 5.25 -13.1 5.8 -11.65 4.9 -10.25 3.95 -8.9 2.15 -8.5 0.35 -8.1 -1.4 -8.85 -3.1 -9.65 -3.65 -11.1 -4.2 -12.5 -3.3 -13.9" fill="#000000" fill-rule="evenodd" stroke="none"/>
    <path d="M-8.6 -11.65 L-9.0 -10.85 -9.8 -8.95 -10.5 -6.65 Q-11.0 -8.55 -10.45 -9.65 L-8.6 -11.65" fill="#ffffff" fill-rule="evenodd" stroke="none"/>
    <path d="M-2.4 -13.35 L-0.55 -14.8 -1.35 -13.6 -2.55 -11.25 Q-3.0 -12.6 -2.4 -13.35" fill="#ffffff" fill-rule="evenodd" stroke="none"/>
    <path d="M8.1 -3.1 Q8.05 -2.3 7.45 -1.8 6.85 -1.25 6.05 -1.25 L5.15 -1.4 Q4.95 -1.55 5.0 -2.3 5.0 -3.1 5.55 -3.55 6.1 -4.0 6.9 -4.0 L7.9 -3.95 8.1 -3.1" fill="#f5a4c0" fill-rule="evenodd" stroke="none"/>
  </g>
</svg>
