<?xml version="1.0" encoding="UTF-8" standalone="no"?>
<svg xmlns:xlink="http://www.w3.org/1999/xlink" height="8.65px" width="10.55px" xmlns="http://www.w3.org/2000/svg">
  <g transform="matrix(1.0, 0.0, 0.0, 1.0, 5.25, 4.35)">
    <path d="M5.25 -3.55 L4.75 -1.7 4.0 0.2 3.6 1.1 -1.6 -0.2 -1.15 0.4 Q-0.75 0.95 -0.6 1.75 -0.45 2.5 -1.1 3.25 -1.8 3.95 -3.85 4.3 L-4.5 2.95 Q-5.1 1.65 -5.25 -0.1 -5.4 -1.9 -4.2 -3.35 -3.2 -4.35 -2.05 -4.35 L0.2 -3.85 Q1.3 -3.35 2.0 -2.85 L2.7 -2.3 3.0 -2.8 3.75 -3.7 Q4.25 -4.15 4.9 -4.3 5.4 -4.35 5.25 -3.55" fill="#6b6b6b" fill-rule="evenodd" stroke="none"/>
  </g>
</svg>
