<?xml version="1.0" encoding="UTF-8" standalone="no"?>
<svg xmlns:xlink="http://www.w3.org/1999/xlink" height="129.55px" width="213.55px" xmlns="http://www.w3.org/2000/svg">
  <g transform="matrix(1.0, 0.0, 0.0, 1.0, 57.8, -3.5)">
    <path d="M-21.5 33.95 L-21.4 33.95 -15.15 27.7 5.0 16.35 28.35 8.35 Q61.6 1.2 78.35 4.6 134.3 11.9 153.5 43.45 L155.5 56.7 Q156.9 58.1 149.6 73.95 L138.6 84.7 Q130.85 91.6 130.1 90.95 L112.85 99.35 Q91.75 103.45 72.6 105.6 L64.75 108.2 Q23.6 109.0 -14.0 85.6 L-17.9 82.85 -21.0 79.6 -21.15 79.6 -21.15 79.45 -24.25 76.1 -25.75 73.95 -28.15 71.7 -29.0 70.45 -29.4 68.95 -30.65 66.2 -31.25 63.45 -32.5 57.95 -32.5 57.7 -32.65 56.1 -31.75 51.95 -31.65 51.85 -27.15 39.7 -25.4 37.95 -25.4 37.85 -25.25 37.85 -21.5 34.1 -21.5 33.95" fill="#b19771" fill-rule="evenodd" stroke="none"/>
    <path d="M130.1 90.95 Q132.3 96.7 122.25 100.45 130.65 101.25 134.85 107.35 136.8 109.45 135.0 115.1 L130.0 118.7 Q124.9 123.1 72.6 131.45 36.3 135.9 35.75 128.1 37.25 116.25 64.75 108.2 L72.6 105.6 Q91.75 103.45 112.85 99.35 L130.1 90.95" fill="#573f70" fill-rule="evenodd" stroke="none"/>
    <path d="M-14.0 85.6 L-12.4 95.2 Q-12.15 102.1 -13.4 103.95 -17.5 110.15 -20.65 97.6 -24.95 102.15 -28.0 99.95 L-28.15 98.45 Q-25.0 90.0 -25.4 87.35 -30.95 92.75 -38.75 90.95 L-39.5 90.35 -39.5 89.6 -33.9 84.35 -32.25 81.85 Q-40.7 83.8 -47.9 80.35 -56.45 75.4 -45.25 75.7 -57.5 70.25 -57.75 63.6 -58.75 61.5 -46.25 66.7 L-43.15 66.95 -41.25 66.7 -39.0 66.1 -36.4 64.2 -35.5 63.7 -31.25 63.45 -30.65 66.2 -29.4 68.95 -29.0 70.45 -28.15 71.7 -25.75 73.95 -24.25 76.1 -21.15 79.45 -21.15 79.6 -21.0 79.6 -17.9 82.85 -14.0 85.6 M-25.4 37.85 Q-24.35 25.0 -21.5 33.95 L-21.5 34.1 -25.25 37.85 -25.4 37.85" fill="#5f3f2a" fill-rule="evenodd" stroke="none"/>
    <path d="M-41.25 66.7 L-40.25 63.1 -40.15 63.1 -37.75 64.1 -36.4 64.2 -39.0 66.1 -41.25 66.7 M-34.9 57.7 L-34.15 57.2 -32.5 57.7 -32.5 57.95 -34.9 57.7" fill="#ff488c" fill-rule="evenodd" stroke="none"/>
    <path d="M-40.25 63.1 L-40.25 62.95 Q-43.7 58.1 -34.9 57.7 L-32.5 57.95 -31.25 63.45 -35.5 63.7 -36.4 64.2 -37.75 64.1 -40.15 63.1 -40.25 63.1 M-34.15 57.2 Q-38.35 53.35 -31.75 51.95 L-32.65 56.1 -32.5 57.7 -34.15 57.2" fill="#000000" fill-rule="evenodd" stroke="none"/>
  </g>
</svg>
