<?xml version="1.0" encoding="UTF-8" standalone="no"?>
<svg xmlns:xlink="http://www.w3.org/1999/xlink" height="400.0px" width="601.9px" xmlns="http://www.w3.org/2000/svg">
  <g transform="matrix(1.0, 0.0, 0.0, 1.0, 300.95, 400.0)">
    <path d="M-262.15 0.0 L-300.95 0.0 -294.35 -1.95 -275.9 -7.5 -247.3 -16.3 -210.5 -27.9 -167.3 -41.9 Q-144.35 -49.45 -119.55 -57.9 -94.8 -66.35 -69.15 -75.5 -43.45 -84.65 -17.85 -94.3 7.8 -103.95 32.45 -113.85 57.15 -123.8 79.95 -133.8 102.75 -143.85 122.75 -153.75 142.75 -163.65 159.0 -173.2 175.3 -182.8 186.9 -191.9 198.55 -200.95 204.65 -209.3 210.7 -217.65 210.3 -225.05 209.85 -232.45 202.05 -238.75 194.2 -245.05 178.05 -250.0 151.8 -258.05 133.55 -266.45 115.3 -274.85 104.15 -283.45 93.0 -292.05 88.05 -300.65 83.05 -309.3 83.3 -317.75 83.55 -326.25 88.05 -334.4 92.6 -342.6 100.45 -350.3 108.35 -357.95 118.65 -365.0 128.95 -372.05 140.7 -378.25 152.5 -384.5 164.8 -389.7 177.1 -394.95 189.05 -399.0 L225.45 -399.1 255.85 -399.35 279.05 -399.65 293.85 -399.9 299.0 -400.0 299.0 -399.95 297.15 -399.9 289.2 -399.65 274.1 -399.35 250.55 -399.1 249.1 -399.05 256.95 -399.1 279.15 -399.35 292.6 -399.65 299.2 -399.9 299.5 -399.9 299.5 -399.95 300.0 -400.0 300.0 -399.95 300.95 -400.0 300.95 -0.45 -197.0 0.0 -196.9 0.0 -219.55 0.0 -246.3 0.0 -246.25 0.0 -262.15 0.0 M275.65 -399.5 L258.75 -399.25 260.05 -399.25 290.35 -399.75 291.7 -399.8 275.65 -399.5" fill="#244fc4" fill-rule="evenodd" stroke="none"/>
    <path d="M299.0 -399.95 L299.5 -400.0 299.5 -399.95 299.5 -399.9 299.2 -399.9 292.6 -399.65 279.15 -399.35 256.95 -399.1 249.1 -399.05 250.55 -399.1 274.1 -399.35 289.2 -399.65 297.15 -399.9 299.0 -399.95 M-219.55 0.0 L-219.65 0.0 -219.55 0.0 M-262.15 0.0 L-262.3 0.0 -262.15 0.0 M275.65 -399.5 L291.7 -399.8 290.35 -399.75 260.05 -399.25 258.75 -399.25 275.65 -399.5" fill="#ffffff" fill-rule="evenodd" stroke="none"/>
    <path d="M224.0 -399.0 Q212.05 -394.95 199.75 -389.7 187.45 -384.5 175.65 -378.25 163.9 -372.05 153.6 -365.0 143.3 -357.95 135.4 -350.3 127.55 -342.6 123.0 -334.4 118.5 -326.25 118.25 -317.75 118.0 -309.3 123.0 -300.65 127.95 -292.05 139.1 -283.45 150.25 -274.85 168.5 -266.45 186.75 -258.05 213.0 -250.0 230.15 -244.75 238.7 -237.95 247.25 -231.2 248.2 -223.2 249.15 -215.15 243.5 -206.15 237.85 -197.1 226.55 -187.3 215.3 -177.5 199.45 -167.2 183.6 -156.9 164.15 -146.3 144.7 -135.7 122.65 -125.05 100.6 -114.45 77.0 -104.0 53.4 -93.55 29.2 -83.6 5.0 -73.6 -18.75 -64.35 -42.5 -55.05 -64.85 -46.7 L-107.05 -31.2 -143.4 -18.25 -171.85 -8.45 -190.35 -2.2 -196.9 0.0 -219.65 0.0 -219.55 0.0 -212.85 -2.2 Q-206.15 -4.35 -193.8 -8.45 L-164.6 -18.25 -127.25 -31.2 -83.85 -46.7 Q-60.9 -55.05 -36.45 -64.35 -12.0 -73.6 12.9 -83.6 37.85 -93.55 62.2 -104.0 86.55 -114.45 109.3 -125.05 132.05 -135.7 152.2 -146.3 172.35 -156.9 188.8 -167.2 205.3 -177.5 217.15 -187.3 228.95 -197.1 235.05 -206.15 241.15 -215.15 240.55 -223.2 239.95 -231.2 231.55 -237.95 223.2 -244.75 206.0 -250.0 179.75 -258.05 161.5 -266.45 143.25 -274.85 132.1 -283.45 121.0 -292.05 116.0 -300.65 111.0 -309.3 111.25 -317.75 111.5 -326.25 116.0 -334.4 120.55 -342.6 128.45 -350.3 136.3 -357.95 146.6 -365.0 156.9 -372.05 168.65 -378.25 180.45 -384.5 192.75 -389.7 205.1 -394.95 217.0 -399.0 L224.0 -399.0" fill="#ffffff" fill-rule="evenodd" stroke="none"/>
    <path d="M207.05 -399.0 Q195.1 -394.95 182.8 -389.7 170.45 -384.5 158.7 -378.25 146.9 -372.05 136.6 -365.0 126.35 -357.95 118.45 -350.3 110.55 -342.6 106.05 -334.4 101.5 -326.25 101.3 -317.75 101.05 -309.3 106.0 -300.65 111.0 -292.05 122.15 -283.45 133.3 -274.85 151.55 -266.45 169.8 -258.05 196.05 -250.0 213.2 -244.75 221.4 -237.95 229.6 -231.2 229.85 -223.2 230.15 -215.15 223.55 -206.15 216.95 -197.1 204.55 -187.3 192.15 -177.5 175.0 -167.2 157.8 -156.9 136.95 -146.3 116.05 -135.7 92.55 -125.05 69.0 -114.45 43.85 -104.0 18.75 -93.55 -6.95 -83.6 -32.65 -73.6 -57.85 -64.35 -83.0 -55.05 -106.65 -46.7 L-151.3 -31.2 -189.7 -18.25 -219.75 -8.45 -239.3 -2.2 -246.25 0.0 -262.3 0.0 -262.15 0.0 -255.2 -2.2 -235.25 -8.45 -204.6 -18.25 Q-186.9 -24.0 -165.45 -31.2 -144.0 -38.35 -119.85 -46.7 -95.75 -55.05 -70.05 -64.35 -44.3 -73.6 -18.05 -83.6 8.15 -93.55 33.85 -104.0 59.55 -114.45 83.65 -125.05 107.75 -135.7 129.15 -146.3 150.55 -156.9 168.2 -167.2 185.85 -177.5 198.65 -187.3 211.5 -197.1 218.45 -206.15 225.35 -215.15 225.35 -223.2 225.3 -231.2 217.25 -237.95 209.2 -244.75 192.05 -250.0 165.8 -258.05 147.55 -266.45 129.3 -274.85 118.15 -283.45 107.0 -292.05 102.0 -300.65 97.05 -309.3 97.3 -317.75 97.5 -326.25 102.05 -334.4 106.55 -342.6 114.45 -350.3 122.35 -357.95 132.6 -365.0 142.9 -372.05 154.7 -378.25 166.45 -384.5 178.8 -389.7 191.1 -394.95 203.05 -399.0 L207.05 -399.0" fill="#ffffff" fill-rule="evenodd" stroke="none"/>
  </g>
</svg>
