<?xml version="1.0" encoding="UTF-8" standalone="no"?>
<svg xmlns:xlink="http://www.w3.org/1999/xlink" height="100.15px" width="181.95px" xmlns="http://www.w3.org/2000/svg">
  <g transform="matrix(1.0, 0.0, 0.0, 1.0, -123.55, -207.55)">
    <path d="M299.4 207.55 L303.3 207.85 302.0 221.2 304.2 221.6 305.5 224.9 304.7 230.05 303.7 229.4 302.4 229.65 301.45 229.25 299.4 228.6 297.65 228.65 296.65 229.2 296.5 229.3 294.45 229.65 294.7 229.3 295.2 223.4 297.55 221.2 299.25 221.15 299.4 207.55 M302.35 210.05 L302.0 209.3 Q301.7 208.95 301.25 208.95 300.8 208.95 300.45 209.3 300.15 209.6 300.15 210.05 300.15 210.5 300.5 210.8 300.8 211.15 301.25 211.15 L302.0 210.8 302.35 210.05" fill="#eb4a82" fill-rule="evenodd" stroke="none"/>
    <path d="M295.25 229.45 L296.3 223.95 297.8 222.15 303.65 222.4 304.65 225.25 295.25 229.45" fill="url(#gradient0)" fill-rule="evenodd" stroke="none"/>
    <path d="M288.05 210.45 L288.2 212.55 288.5 217.65 288.75 224.05 288.6 229.95 Q287.55 231.85 285.6 232.9 283.7 233.95 281.5 234.3 L277.45 234.45 Q275.65 234.25 274.8 233.6 274.15 233.05 273.15 231.05 L271.0 226.4 268.95 221.15 267.35 216.9 266.7 215.15 288.05 210.45" fill="url(#gradient1)" fill-rule="evenodd" stroke="none"/>
    <path d="M288.05 210.45 Q288.3 211.65 287.05 212.9 285.85 214.15 283.55 215.25 281.3 216.35 278.3 217.0 L272.8 217.65 Q270.25 217.6 268.6 216.95 267.0 216.35 266.7 215.15 266.45 214.0 267.7 212.75 268.9 211.45 271.2 210.35 273.45 209.3 276.45 208.6 L281.95 208.0 Q284.5 208.05 286.15 208.65 287.75 209.3 288.05 210.45" fill="#000000" fill-rule="evenodd" stroke="none"/>
    <path d="M288.6 213.35 L288.85 214.2 Q289.0 215.65 288.3 217.6 287.65 219.55 286.3 221.4 285.0 223.3 283.2 224.6 281.35 225.95 279.2 226.2 L273.9 225.8 Q271.45 225.1 269.9 223.7 268.4 222.25 268.15 220.35 268.1 219.9 268.2 219.4 269.05 221.9 272.05 223.3 275.0 224.65 279.05 224.3 281.0 224.1 282.65 222.75 284.3 221.4 285.5 219.5 L287.45 215.75 Q288.15 213.9 288.3 212.55 L288.6 213.35" fill="#000000" fill-rule="evenodd" stroke="none"/>
    <path d="M134.9 282.4 L123.55 272.25 157.9 266.7 170.85 276.1 134.9 282.4 M186.3 287.4 L202.9 299.45 163.25 307.7 153.25 298.75 151.6 297.75 147.8 295.4 143.5 292.5 140.4 289.95 Q139.95 289.45 139.75 288.6 L139.45 287.1 139.4 286.4 135.25 282.75 171.25 276.45 185.85 287.05 164.55 291.2 186.3 287.4" fill="#52330c" fill-rule="evenodd" stroke="none"/>
    <path d="M136.05 281.95 L124.7 271.8 159.05 266.25 172.0 275.65 136.05 281.95 M140.55 285.95 L136.4 282.3 172.4 276.0 187.0 286.6 165.7 290.75 187.45 286.95 204.05 299.0 164.4 307.25 154.4 298.3 151.85 293.3 151.65 293.35 151.05 292.6 149.65 291.25 147.9 289.35 147.8 289.35 145.1 287.7 144.85 287.6 144.9 287.6 Q143.0 286.7 141.8 286.3 L140.55 285.95" fill="#ffe000" fill-rule="evenodd" stroke="none"/>
  </g>
  <defs>
    <linearGradient gradientTransform="matrix(0.0, -0.0045, 0.0045, 0.0, 299.95, 225.8)" gradientUnits="userSpaceOnUse" id="gradient0" spreadMethod="pad" x1="-819.2" x2="819.2">
      <stop offset="0.0" stop-color="#eb4a82"/>
      <stop offset="1.0" stop-color="#ab385c"/>
    </linearGradient>
    <linearGradient gradientTransform="matrix(0.0088, -0.0137, 0.0137, 0.0088, 279.0, 220.45)" gradientUnits="userSpaceOnUse" id="gradient1" spreadMethod="pad" x1="-819.2" x2="819.2">
      <stop offset="0.0" stop-color="#eb4a82"/>
      <stop offset="1.0" stop-color="#ab385c"/>
    </linearGradient>
  </defs>
</svg>
