<?xml version="1.0" encoding="UTF-8" standalone="no"?>
<svg xmlns:xlink="http://www.w3.org/1999/xlink" height="9.9px" width="13.1px" xmlns="http://www.w3.org/2000/svg">
  <g transform="matrix(1.0, 0.0, 0.0, 1.0, -223.9, -232.7)">
    <path d="M227.4 242.2 Q225.3 241.65 224.4 240.0 223.5 238.4 224.2 236.4 225.0 234.4 226.9 233.4 228.8 232.4 230.95 232.85 233.05 233.35 233.95 235.0 234.85 236.65 234.15 238.65 233.35 240.6 231.45 241.6 229.55 242.6 227.4 242.2" fill="#fdf8ce" fill-rule="evenodd" stroke="none"/>
    <path d="M229.0 242.35 Q227.25 241.95 226.45 240.6 225.6 239.25 226.1 237.55 226.65 235.9 228.15 235.05 229.7 234.15 231.45 234.5 233.2 234.9 234.05 236.25 234.9 237.6 234.4 239.25 233.85 240.9 232.3 241.8 230.8 242.65 229.0 242.35" fill="#e3c588" fill-rule="evenodd" stroke="none"/>
    <path d="M231.65 242.6 Q230.15 242.4 229.2 241.35 228.25 240.25 228.3 238.8 228.45 237.35 229.5 236.5 230.55 235.65 232.05 235.75 233.55 235.95 234.5 237.05 235.45 238.15 235.4 239.6 235.25 241.05 234.2 241.9 233.15 242.75 231.65 242.6" fill="#fdf8ce" fill-rule="evenodd" stroke="none"/>
    <path d="M233.7 241.75 Q232.65 241.75 231.75 241.05 230.9 240.35 230.6 239.3 230.35 238.25 230.85 237.55 231.35 236.85 232.4 236.8 233.5 236.8 234.35 237.5 235.25 238.2 235.55 239.25 235.8 240.3 235.3 241.0 234.75 241.7 233.7 241.75" fill="#e3c588" fill-rule="evenodd" stroke="none"/>
    <path d="M234.9 240.95 Q234.15 240.95 233.5 240.45 232.85 240.0 232.55 239.25 232.3 238.5 232.65 237.95 232.95 237.45 233.7 237.4 234.15 237.4 234.45 237.7 L235.25 238.3 236.95 238.75 Q237.15 239.5 236.45 240.2 235.7 240.85 234.9 240.95" fill="#fdf8ce" fill-rule="evenodd" stroke="none"/>
  </g>
</svg>
