<?xml version="1.0" encoding="UTF-8" standalone="no"?>
<svg xmlns:xlink="http://www.w3.org/1999/xlink" height="259.65px" width="546.5px" xmlns="http://www.w3.org/2000/svg">
  <g transform="matrix(1.0, 0.0, 0.0, 1.0, -26.3, -79.2)">
    <path d="M238.65 179.0 Q237.1 179.35 232.9 180.65 228.7 181.95 232.7 184.95 236.7 187.95 239.2 188.85 L244.2 189.7 Q246.7 189.7 248.45 188.3 250.2 186.9 250.2 184.95 250.2 183.6 249.4 182.55 L262.5 182.75 Q272.1 181.9 282.0 182.25 L282.75 181.75 286.4 181.55 285.95 181.8 Q284.2 182.9 284.2 184.45 284.2 186.0 285.95 187.1 287.7 188.2 290.2 188.2 292.7 188.2 294.45 187.1 296.2 186.0 296.2 184.45 296.2 182.9 295.0 181.8 294.1 181.0 294.15 180.4 L293.4 179.3 292.55 178.9 292.05 178.8 291.05 178.8 291.4 178.6 281.5 177.9 Q273.25 177.15 263.85 177.95 L253.25 178.8 240.9 178.8 238.65 179.0 M166.85 192.6 Q172.45 190.25 172.45 186.95 172.45 183.65 166.85 181.3 164.5 180.3 161.7 179.75 174.2 178.8 190.35 175.7 206.5 172.6 203.25 156.9 199.95 141.15 182.65 132.8 165.4 124.45 140.95 124.45 116.5 124.45 99.2 132.8 81.95 141.15 81.95 152.95 81.95 164.75 99.2 173.1 116.05 181.25 139.7 181.45 134.45 183.75 134.45 186.95 134.45 190.25 140.0 192.6 145.6 194.95 153.45 194.95 161.3 194.95 166.85 192.6 M390.95 121.45 Q376.85 121.45 364.95 124.45 L360.2 124.2 352.1 124.95 351.45 124.95 Q345.25 124.95 340.85 128.0 336.45 131.1 336.45 135.45 336.45 136.85 336.9 138.1 327.2 146.5 324.1 169.25 321.0 191.95 340.65 199.25 360.25 206.5 389.1 200.05 417.95 193.6 443.2 189.4 468.45 185.2 464.15 166.6 459.85 148.0 450.7 144.45 L450.7 143.95 Q450.7 136.4 441.75 131.05 433.3 126.0 421.55 125.75 407.8 121.45 390.95 121.45 M549.65 129.45 Q560.4 135.1 566.4 140.95 572.4 146.8 572.8 152.7 573.05 157.95 568.8 164.15 564.55 170.35 556.65 177.1 548.75 183.8 538.05 190.75 527.3 197.65 514.5 204.35 501.75 211.05 487.8 217.15 473.8 223.25 459.4 228.35 445.0 233.5 431.05 237.25 417.05 241.0 404.3 243.0 394.9 244.5 388.2 248.4 381.45 252.3 376.45 257.95 371.5 263.6 367.4 270.4 L359.3 284.6 Q355.3 291.95 350.45 299.25 345.65 306.55 339.15 313.2 332.7 319.85 323.7 325.2 314.7 330.55 302.35 334.05 290.0 337.5 273.45 338.5 249.85 339.75 228.4 336.7 206.95 333.6 187.65 326.95 168.3 320.35 151.2 311.0 134.1 301.65 119.2 290.35 104.35 279.1 91.8 266.7 79.2 254.25 69.0 241.55 58.8 228.85 50.95 216.6 43.15 204.35 37.75 193.4 32.4 182.45 29.5 173.6 26.65 164.75 26.3 158.8 25.9 150.35 32.2 142.4 38.55 134.4 50.5 127.1 62.45 119.75 79.05 113.25 95.6 106.75 115.7 101.25 135.85 95.75 158.45 91.45 181.05 87.15 205.1 84.2 229.1 81.3 253.55 79.9 270.65 78.95 290.0 79.3 L330.15 81.25 372.15 85.35 Q393.45 87.95 414.35 91.45 435.25 94.95 454.95 99.2 474.6 103.4 492.2 108.25 509.75 113.15 524.35 118.45 538.9 123.8 549.65 129.45" fill="#000000" fill-opacity="0.16078432" fill-rule="evenodd" stroke="none"/>
  </g>
</svg>
