<?xml version="1.0" encoding="UTF-8" standalone="no"?>
<svg xmlns:xlink="http://www.w3.org/1999/xlink" height="130.35px" width="195.1px" xmlns="http://www.w3.org/2000/svg">
  <g transform="matrix(1.0, 0.0, 0.0, 1.0, 39.3, -2.7)">
    <path d="M-29.5 50.35 L-29.4 50.2 -24.25 37.7 -11.65 25.6 8.75 14.2 Q46.15 -2.0 90.35 4.6 135.85 13.4 154.35 43.95 L155.5 57.45 Q157.25 57.35 149.5 73.7 136.6 87.35 129.75 90.95 L112.85 99.1 Q90.3 103.25 73.0 105.2 L65.1 107.85 Q22.75 108.25 -12.65 84.45 L-16.0 82.1 -16.15 81.85 -17.5 80.95 -19.0 79.2 -19.15 79.2 -19.15 79.1 -21.75 75.95 -21.9 75.95 -21.9 75.85 -23.0 73.95 -25.0 71.85 -27.15 68.95 -28.5 65.95 -29.15 61.85 -30.15 56.2 -30.15 56.1 -30.4 54.7 -29.5 50.35" fill="#b19771" fill-rule="evenodd" stroke="none"/>
    <path d="M129.75 90.95 Q130.3 99.0 122.6 100.35 130.8 101.3 134.75 107.85 136.25 114.95 134.75 115.1 L130.1 118.6 Q124.15 123.25 70.0 131.7 37.7 135.7 36.0 127.7 37.65 115.9 65.1 107.85 L73.0 105.2 Q90.3 103.25 112.85 99.1 L129.75 90.95" fill="#573f70" fill-rule="evenodd" stroke="none"/>
    <path d="M-38.15 61.2 L-38.15 61.1 Q-41.15 56.4 -32.65 55.95 L-30.9 56.1 -32.15 55.45 Q-35.95 51.5 -29.5 50.35 L-30.4 54.7 -30.15 56.1 -30.15 56.2 -29.15 61.85 -31.25 62.45 -32.9 62.45 -34.75 62.45 -38.0 61.2 -38.15 61.2" fill="#000000" fill-rule="evenodd" stroke="none"/>
    <path d="M-35.9 70.1 Q-41.25 66.5 -38.15 61.2 L-38.0 61.2 -34.75 62.45 -32.9 62.45 -34.65 65.95 -35.9 70.1 M-32.65 55.95 L-32.15 55.45 -30.9 56.1 -32.65 55.95" fill="#ff488c" fill-rule="evenodd" stroke="none"/>
    <path d="M-12.65 84.45 L-8.65 94.45 -2.65 106.35 Q-1.6 110.0 -8.75 103.45 -5.6 114.3 -16.65 97.7 -11.85 116.5 -22.25 98.6 -18.6 118.45 -26.15 107.85 L-25.25 117.45 -25.5 118.6 -26.15 118.7 -27.5 118.1 Q-31.5 114.7 -35.5 100.85 -39.1 87.95 -35.9 70.1 L-34.65 65.95 -32.9 62.45 -31.25 62.45 -29.15 61.85 -28.5 65.95 -27.15 68.95 -25.0 71.85 -23.0 73.95 -21.9 75.85 -21.9 75.95 -21.75 75.95 -19.15 79.1 -19.15 79.2 -19.0 79.2 -17.5 80.95 -16.15 81.85 -16.0 82.1 -12.65 84.45" fill="#5f3f2a" fill-rule="evenodd" stroke="none"/>
  </g>
</svg>
