<?xml version="1.0" encoding="UTF-8" standalone="no"?>
<svg xmlns:xlink="http://www.w3.org/1999/xlink" height="212.9px" width="471.75px" xmlns="http://www.w3.org/2000/svg">
  <g transform="matrix(1.0, 0.0, 0.0, 1.0, 241.1, 118.2)">
    <path d="M223.8 -65.15 Q230.25 -59.55 230.65 -53.9 230.85 -49.4 226.25 -44.7 221.7 -40.0 213.35 -35.3 204.95 -30.55 193.75 -25.95 182.55 -21.3 169.5 -16.95 156.45 -12.65 142.45 -8.7 128.45 -4.8 114.5 -1.45 L87.6 4.5 63.65 8.8 Q54.6 10.25 48.55 14.45 42.55 18.65 38.5 24.75 34.45 30.85 31.25 38.05 L24.8 52.8 Q21.45 60.35 16.9 67.45 12.35 74.5 5.55 80.3 -1.3 86.1 -11.5 89.85 -21.65 93.6 -36.25 94.5 -52.6 95.35 -68.95 92.15 -85.35 88.95 -101.3 82.5 -117.25 76.1 -132.4 67.3 -147.5 58.5 -161.3 48.15 -175.05 37.8 -187.1 26.7 -199.1 15.65 -208.85 4.65 -218.65 -6.35 -225.75 -16.4 -232.85 -26.45 -236.8 -34.7 -240.75 -43.0 -241.1 -48.7 -241.45 -55.95 -236.2 -62.85 -230.9 -69.8 -220.9 -76.2 -210.9 -82.6 -196.95 -88.3 -183.05 -94.0 -166.05 -98.85 -149.1 -103.65 -129.9 -107.5 -110.75 -111.3 -90.2 -113.85 -69.7 -116.45 -48.7 -117.65 -32.3 -118.55 -13.45 -118.0 L25.75 -115.7 Q46.05 -113.9 66.75 -111.05 87.4 -108.2 107.4 -104.45 127.35 -100.7 145.55 -96.2 163.75 -91.7 179.1 -86.65 194.45 -81.6 205.9 -76.2 217.35 -70.8 223.8 -65.15" fill="#9c5712" fill-rule="evenodd" stroke="none"/>
  </g>
</svg>
