<?xml version="1.0" encoding="UTF-8" standalone="no"?>
<svg xmlns:xlink="http://www.w3.org/1999/xlink" height="10.5px" width="12.6px" xmlns="http://www.w3.org/2000/svg">
  <g transform="matrix(1.0, 0.0, 0.0, 1.0, 6.6, 9.75)">
    <path d="M3.55 -8.0 Q5.45 -6.95 5.85 -5.15 6.3 -3.3 5.15 -1.55 3.85 0.15 1.75 0.6 -0.35 1.05 -2.3 0.1 -4.2 -0.95 -4.65 -2.75 -5.1 -4.6 -3.9 -6.35 -2.6 -8.05 -0.5 -8.5 1.6 -8.95 3.55 -8.0" fill="#fdf8ce" fill-rule="evenodd" stroke="none"/>
    <path d="M-1.25 -8.9 Q0.4 -9.35 2.05 -8.55 3.65 -7.7 4.1 -6.2 4.55 -4.7 3.65 -3.2 2.65 -1.75 0.95 -1.3 -0.75 -0.85 -2.35 -1.6 -3.95 -2.45 -4.4 -4.0 -4.85 -5.5 -3.95 -7.0 -2.95 -8.45 -1.25 -8.9" fill="#e3c588" fill-rule="evenodd" stroke="none"/>
    <path d="M-0.45 -9.5 Q0.95 -8.9 1.6 -7.6 2.25 -6.35 1.8 -4.95 1.3 -3.55 0.05 -3.0 -1.2 -2.45 -2.6 -3.0 -4.0 -3.6 -4.6 -4.9 -5.25 -6.15 -4.85 -7.55 -4.35 -8.9 -3.1 -9.45 L-0.45 -9.5" fill="#fdf8ce" fill-rule="evenodd" stroke="none"/>
    <path d="M-2.65 -9.2 Q-1.65 -8.9 -0.95 -8.0 -0.3 -7.1 -0.3 -6.05 -0.35 -4.95 -1.0 -4.4 -1.7 -3.85 -2.7 -4.1 -3.75 -4.4 -4.4 -5.3 -5.1 -6.2 -5.1 -7.3 -5.05 -8.4 -4.4 -8.9 -3.7 -9.45 -2.65 -9.2" fill="#e3c588" fill-rule="evenodd" stroke="none"/>
    <path d="M-2.2 -6.5 Q-2.15 -5.7 -2.6 -5.3 -3.1 -4.9 -3.8 -5.05 -4.25 -5.15 -4.45 -5.5 L-5.05 -6.3 Q-5.45 -6.75 -6.6 -7.15 -6.55 -7.95 -5.7 -8.45 L-4.05 -8.75 Q-3.3 -8.55 -2.8 -7.95 -2.3 -7.3 -2.2 -6.5" fill="#fdf8ce" fill-rule="evenodd" stroke="none"/>
  </g>
</svg>
