<?xml version="1.0" encoding="UTF-8" standalone="no"?>
<svg xmlns:xlink="http://www.w3.org/1999/xlink" height="8.95px" width="20.0px" xmlns="http://www.w3.org/2000/svg">
  <g transform="matrix(1.0, 0.0, 0.0, 1.0, 10.25, 5.45)">
    <path d="M-4.25 -1.0 L-3.1 0.0 -8.25 -1.3 -10.25 2.0 -8.9 -2.65 -7.9 -2.35 -5.85 -1.65 -4.25 -1.0" fill="#000000" fill-rule="evenodd" stroke="none"/>
    <path d="M-2.25 0.1 L-1.55 0.7 -5.05 1.35 -7.4 3.5 -6.05 0.5 -2.25 0.1" fill="#000000" fill-rule="evenodd" stroke="none"/>
    <path d="M6.1 -4.6 L7.25 -5.45 9.75 -1.6 7.25 -3.95 6.1 -3.6 6.1 -4.6" fill="#000000" fill-rule="evenodd" stroke="none"/>
    <path d="M5.6 -2.65 L6.9 -2.65 8.75 0.5 6.4 -1.65 5.15 -1.55 5.6 -2.65" fill="#000000" fill-rule="evenodd" stroke="none"/>
    <path d="M0.3 0.6 L0.3 1.1 -0.75 1.1 -1.45 3.35 -1.6 -0.3 0.3 0.6" fill="#000000" fill-rule="evenodd" stroke="none"/>
  </g>
</svg>
