<?xml version="1.0" encoding="UTF-8" standalone="no"?>
<svg xmlns:xlink="http://www.w3.org/1999/xlink" height="6.75px" width="20.9px" xmlns="http://www.w3.org/2000/svg">
  <g transform="matrix(1.0, 0.0, 0.0, 1.0, 10.45, 5.75)">
    <path d="M-3.95 -1.2 L-3.75 0.3 -6.8 -4.05 -10.45 -2.85 -6.4 -5.45 -5.85 -4.55 -4.75 -2.75 -3.95 -1.2" fill="#000000" fill-rule="evenodd" stroke="none"/>
    <path d="M-2.5 -0.7 L-2.2 0.15 -5.55 -1.1 -8.65 -0.45 -5.95 -2.3 -2.5 -0.7" fill="#000000" fill-rule="evenodd" stroke="none"/>
    <path d="M5.85 -4.5 L6.45 -5.75 10.45 -3.5 7.15 -4.4 6.3 -3.6 5.85 -4.5" fill="#000000" fill-rule="evenodd" stroke="none"/>
    <path d="M5.2 -2.5 L6.15 -3.35 9.65 -2.2 6.45 -2.25 5.6 -1.4 5.2 -2.5" fill="#000000" fill-rule="evenodd" stroke="none"/>
    <path d="M0.2 0.75 L-0.25 1.0 -0.85 0.15 -3.05 0.9 -0.2 -1.35 0.2 0.75" fill="#000000" fill-rule="evenodd" stroke="none"/>
  </g>
</svg>
