<?xml version="1.0" encoding="UTF-8" standalone="no"?>
<svg xmlns:xlink="http://www.w3.org/1999/xlink" height="7.15px" width="18.85px" xmlns="http://www.w3.org/2000/svg">
  <g transform="matrix(1.0, 0.0, 0.0, 1.0, 10.4, 4.55)">
    <path d="M-4.15 -1.1 L-3.1 0.0 -8.1 -1.8 -10.4 1.25 -8.6 -3.2 -7.65 -2.8 -5.7 -1.9 -4.15 -1.1" fill="#000000" fill-rule="evenodd" stroke="none"/>
    <path d="M-2.65 -0.65 L-1.95 -0.05 -5.45 0.5 -7.9 2.55 -6.4 -0.4 -2.65 -0.65" fill="#000000" fill-rule="evenodd" stroke="none"/>
    <path d="M6.5 -4.55 L7.95 -4.35 7.1 0.15 6.9 -3.25 5.85 -3.8 6.5 -4.55" fill="#000000" fill-rule="evenodd" stroke="none"/>
    <path d="M5.65 -2.7 L6.95 -2.6 8.45 0.7 6.35 -1.65 5.1 -1.65 5.65 -2.7" fill="#000000" fill-rule="evenodd" stroke="none"/>
    <path d="M0.1 -0.1 L0.1 0.4 -0.95 0.35 -1.7 2.6 -1.8 -1.05 0.1 -0.1" fill="#000000" fill-rule="evenodd" stroke="none"/>
  </g>
</svg>
