<?xml version="1.0" encoding="UTF-8" standalone="no"?>
<svg xmlns:xlink="http://www.w3.org/1999/xlink" height="400.0px" width="600.0px" xmlns="http://www.w3.org/2000/svg">
  <g transform="matrix(1.0, 0.0, 0.0, 1.0, 300.0, 400.0)">
    <path d="M192.25 -291.7 Q174.65 -296.55 155.0 -300.75 135.3 -305.0 114.4 -308.5 93.5 -312.0 72.2 -314.6 L30.2 -318.7 -9.95 -320.65 Q-29.3 -321.0 -46.4 -320.05 -70.85 -318.65 -94.85 -315.75 -118.9 -312.8 -141.5 -308.5 -164.1 -304.2 -184.25 -298.7 -204.35 -293.2 -220.9 -286.7 -237.5 -280.2 -249.45 -272.85 -261.4 -265.55 -267.75 -257.55 -274.05 -249.6 -273.65 -241.15 -273.3 -235.2 -270.45 -226.35 -267.55 -217.5 -262.2 -206.55 -256.8 -195.6 -249.0 -183.35 -241.15 -171.1 -230.95 -158.4 -220.75 -145.7 -208.15 -133.25 -195.6 -120.85 -180.75 -109.6 -165.85 -98.3 -148.75 -88.95 -131.65 -79.6 -112.3 -73.0 -93.0 -66.35 -71.55 -63.25 -50.1 -60.2 -26.5 -61.45 -9.95 -62.45 2.4 -65.9 14.75 -69.4 23.75 -74.75 32.75 -80.1 39.2 -86.75 45.7 -93.4 50.5 -100.7 55.35 -108.0 59.35 -115.35 L67.45 -129.55 Q71.55 -136.35 76.5 -142.0 81.5 -147.65 88.25 -151.55 94.95 -155.45 104.35 -156.95 117.1 -158.95 131.1 -162.7 145.05 -166.45 159.45 -171.6 173.85 -176.7 187.85 -182.8 201.8 -188.9 214.55 -195.6 227.35 -202.3 238.1 -209.2 248.8 -216.15 256.7 -222.85 264.6 -229.6 268.85 -235.8 273.1 -242.0 272.85 -247.25 272.45 -253.15 266.45 -259.0 260.45 -264.85 249.7 -270.5 238.95 -276.15 224.4 -281.5 209.8 -286.8 192.25 -291.7 M300.0 0.0 L-300.0 0.0 -300.0 -400.0 300.0 -400.0 300.0 0.0" fill="#244fc4" fill-rule="evenodd" stroke="none"/>
    <path d="M230.4 -285.6 Q215.35 -291.15 197.2 -296.15 179.05 -301.2 158.75 -305.6 138.45 -310.0 116.85 -313.6 95.25 -317.2 73.3 -319.85 L29.9 -324.1 -11.55 -326.1 Q-31.55 -326.45 -49.2 -325.45 -74.45 -323.95 -99.25 -320.9 -124.1 -317.8 -147.45 -313.3 -170.8 -308.8 -191.55 -303.05 -212.35 -297.35 -229.45 -290.55 -246.55 -283.8 -258.95 -276.15 -271.3 -268.55 -277.85 -260.25 -284.4 -251.95 -284.0 -243.2 -283.65 -237.0 -280.7 -227.8 -277.7 -218.6 -272.15 -207.2 -266.65 -195.85 -258.55 -183.15 -250.5 -170.4 -239.95 -157.2 -229.4 -144.0 -216.45 -131.1 -203.5 -118.25 -188.15 -106.5 -172.8 -94.8 -155.15 -85.1 -137.5 -75.4 -117.55 -68.55 -97.6 -61.7 -75.45 -58.5 -53.3 -55.3 -28.95 -56.65 -11.8 -57.7 0.95 -61.35 13.7 -64.95 23.0 -70.55 32.25 -76.1 38.95 -83.05 45.65 -89.95 50.65 -97.55 55.65 -105.1 59.8 -112.8 63.95 -120.45 68.2 -127.5 72.4 -134.6 77.55 -140.5 82.7 -146.35 89.65 -150.4 96.65 -154.45 106.3 -156.05 119.45 -158.15 133.9 -162.05 148.35 -166.0 163.25 -171.35 178.1 -176.65 192.55 -183.0 207.0 -189.35 220.2 -196.35 233.35 -203.3 244.45 -210.5 255.55 -217.7 263.7 -224.7 271.85 -231.75 276.25 -238.15 280.65 -244.6 280.4 -250.05 280.0 -256.2 273.8 -262.3 267.6 -268.35 256.55 -274.25 245.45 -280.1 230.4 -285.6 M169.95 -309.55 Q191.3 -304.85 210.35 -299.45 229.4 -294.05 245.2 -288.15 261.0 -282.2 272.65 -275.95 284.3 -269.65 290.8 -263.15 297.3 -256.65 297.75 -250.1 298.0 -244.25 293.4 -237.35 288.8 -230.5 280.25 -223.0 271.7 -215.5 260.05 -207.85 248.4 -200.15 234.55 -192.7 220.7 -185.25 205.55 -178.5 190.4 -171.7 174.8 -166.0 159.2 -160.35 144.05 -156.15 128.9 -152.0 115.05 -149.75 104.9 -148.1 97.6 -143.75 90.3 -139.45 84.9 -133.15 79.5 -126.9 75.05 -119.3 70.65 -111.75 66.3 -103.55 61.95 -95.4 56.7 -87.25 51.5 -79.15 44.45 -71.75 37.45 -64.4 27.7 -58.45 17.95 -52.5 4.55 -48.6 -8.85 -44.75 -26.8 -43.65 -52.35 -42.25 -75.6 -45.7 -98.85 -49.1 -119.8 -56.45 -140.75 -63.85 -159.3 -74.2 -177.85 -84.6 -193.95 -97.15 -210.1 -109.7 -223.7 -123.45 -237.35 -137.25 -248.4 -151.4 -259.5 -165.5 -267.95 -179.1 -276.45 -192.7 -282.25 -204.9 -288.1 -217.05 -291.2 -226.9 -294.35 -236.75 -294.7 -243.35 -295.1 -251.55 -289.85 -259.35 -284.65 -267.15 -274.55 -274.45 -264.45 -281.75 -250.3 -288.35 -236.1 -295.0 -218.6 -300.85 -201.1 -306.7 -181.05 -311.65 -161.0 -316.55 -139.15 -320.45 -117.25 -324.3 -94.4 -327.0 -71.5 -329.65 -48.35 -331.0 -29.8 -332.05 -8.8 -331.65 L34.7 -329.5 80.25 -324.9 Q103.3 -322.0 125.95 -318.15 148.65 -314.25 169.95 -309.55" fill="#ffffff" fill-rule="evenodd" stroke="none"/>
  </g>
</svg>
