<?xml version="1.0" encoding="UTF-8" standalone="no"?>
<svg xmlns:xlink="http://www.w3.org/1999/xlink" height="16.3px" width="23.7px" xmlns="http://www.w3.org/2000/svg">
  <g transform="matrix(1.0, 0.0, 0.0, 1.0, 11.85, 8.15)">
    <path d="M-11.85 -3.85 L-11.65 -4.2 -9.2 -4.35 -6.75 -3.75 Q-5.55 -3.45 -4.6 -3.75 -3.65 -4.2 -2.75 -5.2 L-1.05 -7.15 Q-0.2 -8.1 0.75 -8.15 1.65 -8.1 2.3 -7.0 L3.6 -4.75 Q4.3 -3.6 5.3 -3.35 L7.75 -3.2 10.3 -3.15 Q11.45 -3.05 11.8 -2.5 12.0 -2.05 11.35 -1.55 L9.75 -0.5 7.85 0.55 Q7.0 1.1 6.7 1.6 6.45 2.3 7.0 3.65 L8.0 6.25 Q8.4 7.5 7.8 8.0 L7.5 8.15 Q7.7 7.4 6.8 6.6 5.95 5.75 4.5 5.1 L1.65 4.05 -0.8 3.7 Q-2.15 3.85 -3.95 4.85 L-7.0 6.8 -8.3 7.75 -6.55 7.05 -5.35 6.55 -5.95 6.8 -8.25 7.8 -9.9 7.6 Q-10.5 6.95 -9.9 5.8 L-8.55 3.45 -8.3 3.05 -8.25 3.0 -7.75 2.2 -6.85 0.4 Q-6.45 -0.6 -6.65 -1.1 L-8.15 -2.3 -10.4 -3.45 -11.55 -4.0 -11.75 -4.05 -11.85 -3.85 M7.3 8.15 Q6.7 8.2 5.85 7.75 L3.05 6.3 5.45 7.5 7.3 8.15 M2.95 6.25 Q1.4 5.5 -0.4 5.25 1.15 5.35 2.65 6.1 L2.95 6.25 M-9.35 -0.85 L-9.15 -0.65 -8.1 0.6 -8.6 0.0 -9.35 -0.85" fill="#8ccf36" fill-rule="evenodd" stroke="none"/>
    <path d="M-11.85 -3.85 L-11.75 -4.05 -11.55 -4.0 -10.4 -3.45 -8.15 -2.3 -6.65 -1.1 Q-6.45 -0.6 -6.85 0.4 L-7.75 2.2 -8.25 3.0 -8.05 2.25 Q-7.85 1.45 -8.05 0.75 L-8.1 0.6 -9.15 -0.65 -9.35 -0.85 -10.25 -1.75 -10.55 -2.05 -10.85 -2.35 -11.85 -3.7 -11.85 -3.85 M-5.35 6.55 L-6.55 7.05 -8.3 7.75 -7.0 6.8 -3.95 4.85 Q-2.15 3.85 -0.8 3.7 L1.65 4.05 4.5 5.1 Q5.95 5.75 6.8 6.6 7.7 7.4 7.5 8.15 L7.3 8.15 5.45 7.5 3.05 6.3 2.95 6.25 2.65 6.1 Q1.15 5.35 -0.4 5.25 L-0.45 5.25 -3.65 5.85 -5.35 6.55" fill="#7da326" fill-rule="evenodd" stroke="none"/>
  </g>
</svg>
