<?xml version="1.0" encoding="UTF-8" standalone="no"?>
<svg xmlns:xlink="http://www.w3.org/1999/xlink" height="32.0px" width="47.05px" xmlns="http://www.w3.org/2000/svg">
  <g transform="matrix(1.0, 0.0, 0.0, 1.0, 23.5, 32.0)">
    <path d="M8.45 -0.05 Q6.65 -0.45 4.6 -1.65 L0.25 -3.95 Q-2.05 -5.05 -4.6 -5.1 -4.65 -2.95 -5.95 -1.85 -7.25 -0.75 -8.95 -0.4 L-11.95 0.0 -13.35 -0.05 -12.45 -1.45 Q-11.6 -2.9 -11.05 -5.65 -10.5 -8.35 -11.15 -12.25 -11.8 -16.2 -14.65 -21.15 -17.5 -26.1 -23.5 -32.0 -12.1 -31.95 -4.1 -29.95 3.85 -27.95 9.05 -24.8 14.2 -21.65 17.2 -18.1 20.15 -14.55 21.5 -11.4 22.9 -8.2 23.25 -6.2 L23.55 -4.15 21.7 -3.4 17.35 -1.85 12.35 -0.4 8.45 -0.05" fill="#000000" fill-rule="evenodd" stroke="none"/>
  </g>
</svg>
