<?xml version="1.0" encoding="UTF-8" standalone="no"?>
<svg xmlns:xlink="http://www.w3.org/1999/xlink" height="155.45px" width="181.0px" xmlns="http://www.w3.org/2000/svg">
  <g transform="matrix(1.0, 0.0, 0.0, 1.0, 24.65, 22.9)">
    <path d="M-14.9 23.35 L-14.5 21.95 -6.75 8.6 6.5 -3.3 24.25 -13.05 44.35 -19.8 51.5 -21.15 65.6 -22.8 Q84.85 -23.35 90.6 -21.15 129.05 -15.45 151.25 13.85 L156.35 27.7 154.85 41.85 154.1 45.7 146.25 59.35 132.75 71.1 128.25 74.1 115.5 80.35 113.35 80.45 95.1 85.1 87.85 87.95 77.75 89.2 57.1 88.35 47.75 87.2 Q46.0 87.2 24.75 80.2 L23.35 79.7 3.0 67.6 2.1 66.95 2.0 66.95 1.85 66.7 -7.25 57.45 -7.4 57.45 -7.4 57.35 -8.5 56.1 -9.15 55.6 -9.25 55.6 -10.65 53.2 -10.75 53.2 -10.75 52.95 -11.9 50.35 -12.0 50.35 -12.0 50.1 -12.15 48.2 -13.4 45.7 -15.9 37.45 -15.75 34.2 -15.15 27.7 -15.4 27.6 -14.9 23.35" fill="#b19771" fill-rule="evenodd" stroke="none"/>
    <path d="M132.75 71.1 Q137.8 76.45 127.6 81.35 134.3 83.5 138.25 88.45 140.6 91.9 140.0 93.1 L137.25 95.7 Q95.4 119.15 58.35 131.85 47.75 135.65 51.6 118.2 59.65 102.0 80.0 92.1 54.65 95.45 57.1 88.35 L77.75 89.2 87.85 87.95 95.1 85.1 113.35 80.45 115.5 80.35 128.25 74.1 132.75 71.1" fill="#573f70" fill-rule="evenodd" stroke="none"/>
    <path d="M-23.0 32.35 Q-24.1 28.25 -18.9 27.45 -19.65 24.5 -14.9 23.35 L-15.4 27.6 -15.15 27.7 -15.75 34.2 -18.5 34.35 -21.15 33.85 -23.0 32.35" fill="#000000" fill-rule="evenodd" stroke="none"/>
    <path d="M3.0 67.6 L2.35 67.7 2.25 67.7 Q5.6 78.9 -7.0 60.85 L-5.5 70.6 -3.15 81.2 Q-2.5 84.35 -5.9 81.45 -5.85 85.95 -9.5 79.45 L-9.5 84.1 Q-10.2 85.05 -12.15 82.1 L-11.0 91.35 -11.4 92.45 -12.65 91.95 -9.4 103.35 Q-8.85 105.4 -12.0 102.2 -18.25 93.8 -21.5 80.45 -25.6 65.4 -22.4 44.1 L-22.0 43.2 -20.25 37.6 -18.5 34.35 -15.75 34.2 -15.9 37.45 -13.4 45.7 -12.15 48.2 -12.0 50.1 -12.0 50.35 -11.9 50.35 -10.75 52.95 -10.75 53.2 -10.65 53.2 -9.25 55.6 -9.15 55.6 -8.5 56.1 -7.4 57.35 -7.4 57.45 -7.25 57.45 1.85 66.7 2.0 66.95 2.1 66.95 3.0 67.6" fill="#5f3f2a" fill-rule="evenodd" stroke="none"/>
    <path d="M-22.4 44.1 Q-26.6 38.2 -23.0 32.35 L-21.15 33.85 -18.5 34.35 -20.25 37.6 -22.0 43.2 -22.4 44.1" fill="#ff488c" fill-rule="evenodd" stroke="none"/>
  </g>
</svg>
