<?xml version="1.0" encoding="UTF-8" standalone="no"?>
<svg xmlns:xlink="http://www.w3.org/1999/xlink" height="152.25px" width="194.75px" xmlns="http://www.w3.org/2000/svg">
  <g transform="matrix(1.0, 0.0, 0.0, 1.0, 87.4, 74.5)">
    <path d="M1.35 -24.5 L75.6 -37.25 75.85 -37.25 85.1 -39.0 85.85 -39.0 86.6 -39.25 87.85 -39.5 88.6 -39.5 89.35 -39.75 90.1 -39.75 90.6 -40.0 91.6 -40.0 92.1 -40.25 92.85 -40.25 93.35 -40.5 94.35 -40.5 94.85 -40.75 102.6 -42.0 106.35 -41.75 20.1 -26.75 19.85 -26.75 12.6 -25.5 11.85 -25.25 11.1 -25.25 10.6 -25.0 9.85 -25.0 9.1 -24.75 8.35 -24.75 7.85 -24.5 6.85 -24.5 6.35 -24.25 5.6 -24.25 5.1 -24.0 4.1 -24.0 3.6 -23.75 -2.15 -22.75 1.35 -24.5 M0.35 30.25 L-0.4 35.5 -0.65 36.25 -0.65 37.0 -1.4 41.25 -1.4 41.5 -4.65 66.75 -7.65 77.5 -7.9 77.75 -7.65 76.5 -2.65 29.75 0.35 30.25" fill="#7e0000" fill-rule="evenodd" stroke="none"/>
    <path d="M-7.25 -74.1 L-6.9 -74.5 -6.9 -73.75 -7.25 -74.1" fill="#ff0000" fill-rule="evenodd" stroke="none"/>
    <path d="M0.1 -32.75 L0.1 -32.25 1.35 -24.5 -2.15 -22.75 -2.9 -22.75 -6.9 -73.75 0.1 -32.75" fill="url(#gradient0)" fill-rule="evenodd" stroke="none"/>
    <path d="M-6.9 -74.5 L-6.65 -74.5 -3.9 -72.0 0.1 -32.75 -6.9 -73.75 -6.9 -74.5" fill="url(#gradient1)" fill-rule="evenodd" stroke="none"/>
    <path d="M106.35 -41.75 L107.35 -23.25 106.35 49.25 0.35 30.25 -2.65 29.75 -7.65 76.5 -7.9 77.75 -87.4 7.0 -7.25 -74.1 -6.9 -73.75 -2.9 -22.75 -2.15 -22.75 3.6 -23.75 4.1 -24.0 5.1 -24.0 5.6 -24.25 6.35 -24.25 6.85 -24.5 7.85 -24.5 8.35 -24.75 9.1 -24.75 9.85 -25.0 10.6 -25.0 11.1 -25.25 11.85 -25.25 12.6 -25.5 19.85 -26.75 20.1 -26.75 106.35 -41.75" fill="#ff1a00" fill-rule="evenodd" stroke="none"/>
  </g>
  <defs>
    <linearGradient gradientTransform="matrix(-0.0025, 2.0E-4, -0.0935, -0.9956, -0.9, -24.3)" gradientUnits="userSpaceOnUse" id="gradient0" spreadMethod="pad" x1="-819.2" x2="819.2">
      <stop offset="0.0" stop-color="#980000"/>
      <stop offset="1.0" stop-color="#9d0000"/>
    </linearGradient>
    <linearGradient gradientTransform="matrix(-0.0014, 2.0E-4, -0.1119, -0.9937, -5.35, -72.0)" gradientUnits="userSpaceOnUse" id="gradient1" spreadMethod="pad" x1="-819.2" x2="819.2">
      <stop offset="0.0" stop-color="#980000"/>
      <stop offset="1.0" stop-color="#9c0000"/>
    </linearGradient>
  </defs>
</svg>
