<?xml version="1.0" encoding="UTF-8" standalone="no"?>
<svg xmlns:xlink="http://www.w3.org/1999/xlink" height="152.75px" width="194.75px" xmlns="http://www.w3.org/2000/svg">
  <g transform="matrix(1.0, 0.0, 0.0, 1.0, 87.4, 75.5)">
    <path d="M1.35 -24.25 L106.6 -42.5 107.35 -42.5 106.6 48.75 0.6 29.5 -2.65 29.0 -2.9 29.0 -7.9 76.5 -8.15 77.25 -87.4 6.25 -6.9 -75.25 -6.65 -74.5 -6.65 -73.75 -2.9 -23.5 1.35 -24.25" fill="#ff0000" fill-rule="evenodd" stroke="none"/>
    <path d="M-6.9 -75.25 L-6.4 -75.5 -3.65 -70.25 0.1 -32.5 -6.65 -73.75 -6.65 -74.5 -6.9 -75.25" fill="url(#gradient0)" fill-rule="evenodd" stroke="none"/>
    <path d="M0.1 -32.5 L0.1 -32.25 1.35 -24.25 -2.9 -23.5 -6.65 -73.75 0.1 -32.5" fill="url(#gradient1)" fill-rule="evenodd" stroke="none"/>
    <path d="M0.6 29.5 L-0.9 38.25 -0.9 38.5 -7.9 76.5 -7.65 76.5 -8.15 77.25 -7.9 76.5 -2.9 29.0 -2.65 29.0 0.6 29.5" fill="url(#gradient2)" fill-rule="evenodd" stroke="none"/>
    <path d="M-0.9 38.5 L-4.65 67.0 -7.65 76.5 -7.9 76.5 -0.9 38.5" fill="#990000" fill-rule="evenodd" stroke="none"/>
  </g>
  <defs>
    <linearGradient gradientTransform="matrix(-0.0013, 2.0E-4, -0.1212, -0.9926, -5.1, -71.15)" gradientUnits="userSpaceOnUse" id="gradient0" spreadMethod="pad" x1="-819.2" x2="819.2">
      <stop offset="0.0" stop-color="#970000"/>
      <stop offset="1.0" stop-color="#9b0000"/>
    </linearGradient>
    <linearGradient gradientTransform="matrix(-0.0024, 2.0E-4, -0.0948, -0.9955, -0.75, -23.6)" gradientUnits="userSpaceOnUse" id="gradient1" spreadMethod="pad" x1="-819.2" x2="819.2">
      <stop offset="0.0" stop-color="#980000"/>
      <stop offset="1.0" stop-color="#9c0000"/>
    </linearGradient>
    <linearGradient gradientTransform="matrix(-0.002, -3.0E-4, 0.1259, -0.992, -0.35, 23.95)" gradientUnits="userSpaceOnUse" id="gradient2" spreadMethod="pad" x1="-819.2" x2="819.2">
      <stop offset="0.0" stop-color="#980000"/>
      <stop offset="1.0" stop-color="#9c0000"/>
    </linearGradient>
  </defs>
</svg>
