<?xml version="1.0" encoding="UTF-8" standalone="no"?>
<svg xmlns:xlink="http://www.w3.org/1999/xlink" height="152.5px" width="194.5px" xmlns="http://www.w3.org/2000/svg">
  <g transform="matrix(1.0, 0.0, 0.0, 1.0, 87.65, 77.0)">
    <path d="M0.85 -26.5 L106.35 -44.75 106.85 -45.0 106.85 46.5 1.1 27.5 -2.9 26.75 -8.4 74.25 -8.4 75.0 -8.65 75.5 -87.65 3.75 -6.4 -77.0 -6.15 -76.25 -6.15 -75.25 -2.65 -25.75 0.85 -26.5" fill="#ff0000" fill-rule="evenodd" stroke="none"/>
    <path d="M-6.15 -76.25 L-3.4 -68.5 -0.15 -34.25 -6.15 -75.25 -6.15 -76.25" fill="#970000" fill-rule="evenodd" stroke="none"/>
    <path d="M-0.15 -34.25 L-0.15 -33.75 0.1 -32.5 0.1 -31.5 0.35 -30.5 0.85 -26.5 -2.65 -25.75 -6.15 -75.25 -0.15 -34.25" fill="url(#gradient0)" fill-rule="evenodd" stroke="none"/>
    <path d="M1.1 27.5 L-0.15 34.25 -0.15 34.5 -8.4 74.25 -2.9 26.75 1.1 27.5" fill="url(#gradient1)" fill-rule="evenodd" stroke="none"/>
    <path d="M-0.15 34.5 L-5.4 71.5 -8.4 75.0 -8.4 74.25 -0.15 34.5" fill="url(#gradient2)" fill-rule="evenodd" stroke="none"/>
  </g>
  <defs>
    <linearGradient gradientTransform="matrix(-0.0022, 2.0E-4, -0.097, -0.9953, -0.4, -21.25)" gradientUnits="userSpaceOnUse" id="gradient0" spreadMethod="pad" x1="-819.2" x2="819.2">
      <stop offset="0.0" stop-color="#960000"/>
      <stop offset="1.0" stop-color="#9b0000"/>
    </linearGradient>
    <linearGradient gradientTransform="matrix(-0.0024, -3.0E-4, 0.1305, -0.9914, -0.8, 26.25)" gradientUnits="userSpaceOnUse" id="gradient1" spreadMethod="pad" x1="-819.2" x2="819.2">
      <stop offset="0.0" stop-color="#9a0000"/>
      <stop offset="1.0" stop-color="#9f0000"/>
    </linearGradient>
    <linearGradient gradientTransform="matrix(-0.0013, -2.0E-4, 0.1506, -0.9886, -6.7, 71.15)" gradientUnits="userSpaceOnUse" id="gradient2" spreadMethod="pad" x1="-819.2" x2="819.2">
      <stop offset="0.0" stop-color="#9a0000"/>
      <stop offset="1.0" stop-color="#9e0000"/>
    </linearGradient>
  </defs>
</svg>
