<?xml version="1.0" encoding="UTF-8" standalone="no"?>
<svg xmlns:xlink="http://www.w3.org/1999/xlink" height="154.0px" width="195.5px" xmlns="http://www.w3.org/2000/svg">
  <g transform="matrix(1.0, 0.0, 0.0, 1.0, 87.9, 78.5)">
    <path d="M-52.05 32.55 L-71.15 14.75 -72.4 13.75 -87.9 -0.75 -5.4 -78.5 -5.15 -76.25 -2.4 -29.5 0.35 -30.0 105.6 -47.75 106.35 -48.0 107.6 41.75 106.85 41.75 106.35 41.5 105.35 41.5 104.1 41.25 103.85 41.25 -2.9 22.0 -3.15 22.0 -9.4 71.25 -52.05 32.55" fill="#ff0000" fill-rule="evenodd" stroke="none"/>
    <path d="M-5.4 -78.5 L-5.15 -78.0 -5.15 -76.25 -4.65 -75.5 -4.65 -74.5 -4.4 -73.25 -4.4 -72.75 -2.4 -60.25 -1.15 -43.5 -1.15 -42.5 -0.9 -41.25 -0.9 -40.0 -0.65 -39.0 -0.65 -37.5 -0.4 -36.75 0.35 -30.0 -2.4 -29.5 -5.15 -76.25 -5.4 -78.5 M-7.15 75.0 L-52.05 32.55 -9.4 71.25 -7.15 75.0" fill="#7e0000" fill-rule="evenodd" stroke="none"/>
    <path d="M1.1 30.5 L0.1 34.25 0.1 34.5 -9.4 71.25 -3.15 22.0 -2.9 22.0 1.1 30.5" fill="url(#gradient0)" fill-rule="evenodd" stroke="none"/>
    <path d="M3.85 30.75 L3.35 30.75 2.35 30.5 1.1 30.5 -2.9 22.0 103.85 41.25 3.85 30.75" fill="url(#gradient1)" fill-rule="evenodd" stroke="none"/>
    <path d="M0.1 34.5 L-6.15 74.75 -6.4 75.5 -7.15 75.0 -9.4 71.25 0.1 34.5" fill="url(#gradient2)" fill-rule="evenodd" stroke="none"/>
    <path d="M107.6 41.75 L101.6 48.5 3.85 30.75 103.85 41.25 104.1 41.25 105.35 41.5 106.35 41.5 106.85 41.75 107.6 41.75" fill="url(#gradient3)" fill-rule="evenodd" stroke="none"/>
  </g>
  <defs>
    <linearGradient gradientTransform="matrix(-0.003, -4.0E-4, 0.1266, -0.9919, -1.6, 29.85)" gradientUnits="userSpaceOnUse" id="gradient0" spreadMethod="pad" x1="-819.2" x2="819.2">
      <stop offset="0.0" stop-color="#9e0000"/>
      <stop offset="1.0" stop-color="#a40000"/>
    </linearGradient>
    <linearGradient gradientTransform="matrix(0.0011, -0.0056, 0.9812, 0.1927, 1.8, 25.6)" gradientUnits="userSpaceOnUse" id="gradient1" spreadMethod="pad" x1="-819.2" x2="819.2">
      <stop offset="0.0" stop-color="#990000"/>
      <stop offset="1.0" stop-color="#9e0000"/>
    </linearGradient>
    <linearGradient gradientTransform="matrix(-0.0021, -3.0E-4, 0.1619, -0.9868, -8.25, 75.05)" gradientUnits="userSpaceOnUse" id="gradient2" spreadMethod="pad" x1="-819.2" x2="819.2">
      <stop offset="0.0" stop-color="#9e0000"/>
      <stop offset="1.0" stop-color="#a40000"/>
    </linearGradient>
    <linearGradient gradientTransform="matrix(8.0E-4, -0.0046, 0.9842, 0.1768, 1.6, 26.45)" gradientUnits="userSpaceOnUse" id="gradient3" spreadMethod="pad" x1="-819.2" x2="819.2">
      <stop offset="0.0" stop-color="#990000"/>
      <stop offset="1.0" stop-color="#9e0000"/>
    </linearGradient>
  </defs>
</svg>
