<?xml version="1.0" encoding="UTF-8" standalone="no"?>
<svg xmlns:xlink="http://www.w3.org/1999/xlink" height="156.25px" width="196.0px" xmlns="http://www.w3.org/2000/svg">
  <g transform="matrix(1.0, 0.0, 0.0, 1.0, 87.65, 77.5)">
    <path d="M-87.4 -6.25 L-86.9 -6.0 -85.15 -4.5 -10.9 75.75 -77.15 15.0 -87.4 -6.25" fill="#8a0000" fill-rule="evenodd" stroke="none"/>
    <path d="M-85.15 -4.5 L-86.9 -6.0 -87.4 -6.25 -87.65 -7.0 -4.15 -77.5 -1.9 -33.5 -0.15 -34.0 104.6 -50.25 105.35 -50.0 108.35 33.0 107.35 33.0 -3.15 14.25 -3.4 14.25 -10.65 61.5 -85.15 -4.5" fill="#ff0000" fill-rule="evenodd" stroke="none"/>
    <path d="M-0.15 -34.0 L-1.9 -33.5 -4.15 -77.5 -0.15 -34.0" fill="#7e0000" fill-rule="evenodd" stroke="none"/>
    <path d="M-10.65 61.5 L-3.4 14.25 -3.15 14.25 0.6 34.75 0.1 36.0 -10.65 61.5" fill="url(#gradient0)" fill-rule="evenodd" stroke="none"/>
    <path d="M-3.15 14.25 L107.35 33.0 1.35 34.75 0.6 34.75 -3.15 14.25" fill="url(#gradient1)" fill-rule="evenodd" stroke="none"/>
    <path d="M-10.65 61.5 L0.1 36.0 -7.4 77.75 -7.65 78.75 -8.15 78.5 -10.65 61.5" fill="url(#gradient2)" fill-rule="evenodd" stroke="none"/>
    <path d="M107.35 33.0 L108.35 33.0 103.1 52.25 1.35 34.75 107.35 33.0" fill="url(#gradient3)" fill-rule="evenodd" stroke="none"/>
    <path d="M-10.9 75.75 L-85.15 -4.5 -10.65 61.5 -8.15 78.5 -10.9 75.75" fill="#8c0000" fill-rule="evenodd" stroke="none"/>
  </g>
  <defs>
    <linearGradient gradientTransform="matrix(-0.0048, -5.0E-4, 0.1142, -0.9935, -3.5, 34.1)" gradientUnits="userSpaceOnUse" id="gradient0" spreadMethod="pad" x1="-819.2" x2="819.2">
      <stop offset="0.0" stop-color="#a30000"/>
      <stop offset="1.0" stop-color="#ac0000"/>
    </linearGradient>
    <linearGradient gradientTransform="matrix(0.0027, -0.0137, 0.9804, 0.1972, 2.7, 23.3)" gradientUnits="userSpaceOnUse" id="gradient1" spreadMethod="pad" x1="-819.2" x2="819.2">
      <stop offset="0.0" stop-color="#bf0000"/>
      <stop offset="1.0" stop-color="#cc0000"/>
    </linearGradient>
    <linearGradient gradientTransform="matrix(-0.0041, -6.0E-4, 0.152, -0.9884, -2.95, 34.0)" gradientUnits="userSpaceOnUse" id="gradient2" spreadMethod="pad" x1="-819.2" x2="819.2">
      <stop offset="0.0" stop-color="#a30000"/>
      <stop offset="1.0" stop-color="#ac0000"/>
    </linearGradient>
    <linearGradient gradientTransform="matrix(0.0029, -0.014, 0.9793, 0.2023, 2.8, 23.05)" gradientUnits="userSpaceOnUse" id="gradient3" spreadMethod="pad" x1="-819.2" x2="819.2">
      <stop offset="0.0" stop-color="#bf0000"/>
      <stop offset="1.0" stop-color="#cc0000"/>
    </linearGradient>
  </defs>
</svg>
