<?xml version="1.0" encoding="UTF-8" standalone="no"?>
<svg xmlns:xlink="http://www.w3.org/1999/xlink" height="122.0px" width="194.75px" xmlns="http://www.w3.org/2000/svg">
  <g transform="matrix(1.0, 0.0, 0.0, 1.0, 85.65, 56.0)">
    <path d="M-85.65 -22.25 L-85.65 -22.5 -3.65 -11.75 -12.9 14.25 -85.65 -22.25" fill="url(#gradient0)" fill-rule="evenodd" stroke="none"/>
    <path d="M-3.65 -11.75 L-85.65 -22.5 -85.15 -22.75 -0.15 -35.5 -3.65 -11.75" fill="url(#gradient1)" fill-rule="evenodd" stroke="none"/>
    <path d="M-12.65 65.75 L-79.65 26.5 -85.65 -22.25 -12.65 65.75" fill="url(#gradient2)" fill-rule="evenodd" stroke="none"/>
    <path d="M101.6 -43.5 L102.35 -43.25 109.1 -1.75 -3.15 -11.75 101.6 -43.5" fill="url(#gradient3)" fill-rule="evenodd" stroke="none"/>
    <path d="M-85.15 -22.75 L-0.65 -56.0 -0.15 -35.75 -0.15 -35.5 -85.15 -22.75" fill="url(#gradient4)" fill-rule="evenodd" stroke="none"/>
    <path d="M-0.15 -35.75 L101.6 -43.5 -3.15 -11.75 -3.65 -11.75 -0.15 -35.5 -0.15 -35.75" fill="url(#gradient5)" fill-rule="evenodd" stroke="none"/>
    <path d="M-12.9 14.25 L-3.65 -11.75 -3.15 -11.75 -1.4 37.75 -12.9 14.25" fill="url(#gradient6)" fill-rule="evenodd" stroke="none"/>
    <path d="M-1.15 38.25 L-12.15 66.0 -12.9 14.25 -1.4 37.75 -1.15 38.25" fill="url(#gradient7)" fill-rule="evenodd" stroke="none"/>
    <path d="M109.1 -1.75 L106.6 48.0 105.85 49.25 -1.15 38.25 -1.4 37.75 -3.15 -11.75 109.1 -1.75" fill="#ff0000" fill-rule="evenodd" stroke="none"/>
    <path d="M-85.65 -22.25 L-12.9 14.25 -12.15 66.0 -12.65 65.75 -85.65 -22.25" fill="url(#gradient8)" fill-rule="evenodd" stroke="none"/>
  </g>
  <defs>
    <linearGradient gradientTransform="matrix(0.0029, 0.0269, -0.994, 0.1093, -83.2, -0.7)" gradientUnits="userSpaceOnUse" id="gradient0" spreadMethod="pad" x1="-819.2" x2="819.2">
      <stop offset="0.0" stop-color="#c60000"/>
      <stop offset="1.0" stop-color="#dc0000"/>
    </linearGradient>
    <linearGradient gradientTransform="matrix(0.0021, 0.014, -0.9886, 0.1508, 1.6, -24.3)" gradientUnits="userSpaceOnUse" id="gradient1" spreadMethod="pad" x1="-819.2" x2="819.2">
      <stop offset="0.0" stop-color="#c60000"/>
      <stop offset="1.0" stop-color="#d00000"/>
    </linearGradient>
    <linearGradient gradientTransform="matrix(0.0285, -0.0105, 0.3467, 0.938, -56.45, 17.55)" gradientUnits="userSpaceOnUse" id="gradient2" spreadMethod="pad" x1="-819.2" x2="819.2">
      <stop offset="0.0" stop-color="#c70000"/>
      <stop offset="1.0" stop-color="#d80000"/>
    </linearGradient>
    <linearGradient gradientTransform="matrix(4.0E-4, 0.0256, -0.9998, 0.0169, 102.35, -22.7)" gradientUnits="userSpaceOnUse" id="gradient3" spreadMethod="pad" x1="-819.2" x2="819.2">
      <stop offset="0.0" stop-color="#c30000"/>
      <stop offset="1.0" stop-color="#d50000"/>
    </linearGradient>
    <linearGradient gradientTransform="matrix(0.0019, 0.0123, -0.9886, 0.1508, 0.85, -46.2)" gradientUnits="userSpaceOnUse" id="gradient4" spreadMethod="pad" x1="-819.2" x2="819.2">
      <stop offset="0.0" stop-color="#be0000"/>
      <stop offset="1.0" stop-color="#c60000"/>
    </linearGradient>
    <linearGradient gradientTransform="matrix(2.0E-4, 0.0189, -1.0, 0.0086, 102.15, -28.2)" gradientUnits="userSpaceOnUse" id="gradient5" spreadMethod="pad" x1="-819.2" x2="819.2">
      <stop offset="0.0" stop-color="#c30000"/>
      <stop offset="1.0" stop-color="#d00000"/>
    </linearGradient>
    <linearGradient gradientTransform="matrix(-0.0079, -4.0E-4, 0.0555, -0.9984, -7.75, 37.8)" gradientUnits="userSpaceOnUse" id="gradient6" spreadMethod="pad" x1="-819.2" x2="819.2">
      <stop offset="0.0" stop-color="#b30000"/>
      <stop offset="1.0" stop-color="#c00000"/>
    </linearGradient>
    <linearGradient gradientTransform="matrix(-0.0086, -0.001, 0.111, -0.9938, -8.35, 37.35)" gradientUnits="userSpaceOnUse" id="gradient7" spreadMethod="pad" x1="-819.2" x2="819.2">
      <stop offset="0.0" stop-color="#b30000"/>
      <stop offset="1.0" stop-color="#c00000"/>
    </linearGradient>
    <linearGradient gradientTransform="matrix(0.0272, -0.0132, 0.4352, 0.9003, -63.3, -33.5)" gradientUnits="userSpaceOnUse" id="gradient8" spreadMethod="pad" x1="-819.2" x2="819.2">
      <stop offset="0.0" stop-color="#cb0000"/>
      <stop offset="1.0" stop-color="#e20000"/>
    </linearGradient>
  </defs>
</svg>
