<?xml version="1.0" encoding="UTF-8" standalone="no"?>
<svg xmlns:xlink="http://www.w3.org/1999/xlink" height="169.5px" width="172.95px" xmlns="http://www.w3.org/2000/svg">
  <g transform="matrix(1.0, 0.0, 0.0, 1.0, 16.95, 39.5)">
    <path d="M-5.0 6.45 L-4.4 4.6 4.1 -9.4 17.6 -21.65 35.0 -31.15 Q78.15 -46.25 105.6 -34.05 L113.6 -31.55 130.6 -22.3 144.25 -9.9 153.0 4.35 156.0 19.2 152.1 37.45 143.25 51.7 131.6 61.7 129.6 63.45 118.85 68.95 117.85 69.6 Q100.75 71.9 89.6 78.45 L78.75 79.7 Q71.5 80.25 61.25 78.6 L61.1 78.6 61.1 78.45 Q20.05 70.4 4.75 50.6 L4.6 50.6 4.5 50.2 3.6 48.95 3.5 48.95 3.5 48.7 -1.4 41.7 -1.5 41.7 -1.5 41.45 -2.75 39.7 -2.9 39.7 -2.9 39.45 -3.65 37.7 -3.75 37.7 -3.75 37.2 -4.4 34.85 -4.5 34.85 -4.5 34.6 -4.15 31.6 -4.4 30.35 -5.0 29.1 -4.9 27.45 -6.5 19.1 -6.25 17.45 -6.4 16.95 Q-4.1 8.85 -5.5 9.7 L-5.0 6.45" fill="#b19771" fill-rule="evenodd" stroke="none"/>
    <path d="M61.1 78.6 L61.25 78.6 Q71.5 80.25 78.75 79.7 L89.6 78.45 Q100.75 71.9 117.85 69.6 L118.85 68.95 129.6 63.45 131.6 61.7 Q136.05 66.95 127.75 71.2 144.35 79.25 135.0 85.1 93.35 114.2 62.75 128.85 52.6 134.05 55.0 115.35 L58.6 106.7 Q65.65 96.15 74.5 89.35 55.65 95.7 61.1 78.6" fill="#573f70" fill-rule="evenodd" stroke="none"/>
    <path d="M-5.0 6.45 L-5.5 9.7 Q-4.1 8.85 -6.4 16.95 L-8.5 16.95 -10.9 16.1 -12.25 14.45 -12.25 12.35 -11.4 11.2 -8.65 9.7 -8.15 8.2 -7.5 7.6 -5.0 6.45" fill="#000000" fill-rule="evenodd" stroke="none"/>
    <path d="M-12.25 14.45 L-10.9 16.1 -8.5 16.95 -10.5 20.6 -13.15 27.95 -14.4 21.35 Q-13.95 15.75 -12.25 14.45" fill="#ff488c" fill-rule="evenodd" stroke="none"/>
    <path d="M-6.4 16.95 L-6.25 17.45 -6.5 19.1 -4.9 27.45 -5.0 29.1 -4.4 30.35 -4.15 31.6 -4.5 34.6 -4.5 34.85 -4.4 34.85 -3.75 37.2 -3.75 37.7 -3.65 37.7 -2.9 39.45 -2.9 39.7 -2.75 39.7 -1.5 41.45 -1.5 41.7 -1.4 41.7 3.5 48.7 3.5 48.95 3.6 48.95 4.5 50.2 4.6 50.6 4.6 52.7 4.1 53.2 Q5.25 64.45 -1.65 49.2 L-1.75 49.2 -2.15 66.2 Q-2.15 70.5 -4.65 67.6 L-5.15 68.35 -5.9 68.2 -7.25 65.1 -7.9 67.2 -8.65 67.35 -9.5 66.1 -10.5 71.7 -10.9 72.6 -11.9 72.6 Q-13.45 94.5 -16.75 65.2 -17.85 48.1 -13.15 27.95 L-10.5 20.6 -8.5 16.95 -6.4 16.95" fill="#5f3f2a" fill-rule="evenodd" stroke="none"/>
  </g>
</svg>
