<?xml version="1.0" encoding="UTF-8" standalone="no"?>
<svg xmlns:xlink="http://www.w3.org/1999/xlink" height="70.5px" width="192.25px" xmlns="http://www.w3.org/2000/svg">
  <g transform="matrix(1.0, 0.0, 0.0, 1.0, 83.4, 31.0)">
    <path d="M-83.4 -27.5 L-81.9 -27.5 -12.65 -23.75 -14.4 39.5 -83.4 -27.5" fill="url(#gradient0)" fill-rule="evenodd" stroke="none"/>
    <path d="M-83.4 -27.5 L-14.4 39.5 -82.15 28.75 -83.4 -27.5" fill="url(#gradient1)" fill-rule="evenodd" stroke="none"/>
    <path d="M-12.65 -23.75 L-81.9 -27.5 0.85 -31.0 0.6 -29.0 100.6 -29.75 108.85 -25.5 -2.65 -26.5 -3.4 -26.5 -12.65 -23.75" fill="#7e0000" fill-rule="evenodd" stroke="none"/>
    <path d="M-12.65 -23.75 L-3.4 -26.5 -2.65 -26.5 -2.4 30.75 -12.65 -23.75" fill="url(#gradient2)" fill-rule="evenodd" stroke="none"/>
    <path d="M108.85 -25.5 L108.1 35.25 -2.15 32.0 -2.4 30.75 -2.65 -26.5 108.85 -25.5" fill="#ff0000" fill-rule="evenodd" stroke="none"/>
    <path d="M-14.4 39.5 L-12.65 -23.75 -2.4 30.75 -2.15 32.0 -14.4 39.5" fill="url(#gradient3)" fill-rule="evenodd" stroke="none"/>
  </g>
  <defs>
    <linearGradient gradientTransform="matrix(0.0428, -0.0025, 0.0589, 0.9983, -48.25, -29.85)" gradientUnits="userSpaceOnUse" id="gradient0" spreadMethod="pad" x1="-819.2" x2="819.2">
      <stop offset="0.0" stop-color="#d70000"/>
      <stop offset="1.0" stop-color="#f30000"/>
    </linearGradient>
    <linearGradient gradientTransform="matrix(0.0414, -9.0E-4, 0.0211, 0.9998, -49.45, -28.5)" gradientUnits="userSpaceOnUse" id="gradient1" spreadMethod="pad" x1="-819.2" x2="819.2">
      <stop offset="0.0" stop-color="#d70000"/>
      <stop offset="1.0" stop-color="#f10000"/>
    </linearGradient>
    <linearGradient gradientTransform="matrix(-0.0067, -1.0E-4, 0.0121, -0.9999, -7.85, 31.75)" gradientUnits="userSpaceOnUse" id="gradient2" spreadMethod="pad" x1="-819.2" x2="819.2">
      <stop offset="0.0" stop-color="#ba0000"/>
      <stop offset="1.0" stop-color="#c40000"/>
    </linearGradient>
    <linearGradient gradientTransform="matrix(-0.007, -2.0E-4, 0.0229, -0.9997, -8.15, 31.65)" gradientUnits="userSpaceOnUse" id="gradient3" spreadMethod="pad" x1="-819.2" x2="819.2">
      <stop offset="0.0" stop-color="#ba0000"/>
      <stop offset="1.0" stop-color="#c40000"/>
    </linearGradient>
  </defs>
</svg>
