<?xml version="1.0" encoding="UTF-8" standalone="no"?>
<svg xmlns:xlink="http://www.w3.org/1999/xlink" height="109.25px" width="194.5px" xmlns="http://www.w3.org/2000/svg">
  <g transform="matrix(1.0, 0.0, 0.0, 1.0, 84.9, 59.25)">
    <path d="M-84.15 25.0 L-84.9 24.75 -3.4 17.0 0.1 34.75 -84.15 25.0" fill="url(#gradient0)" fill-rule="evenodd" stroke="none"/>
    <path d="M-84.9 24.75 L-80.65 -27.0 -15.15 -2.25 -84.9 24.75" fill="url(#gradient1)" fill-rule="evenodd" stroke="none"/>
    <path d="M-1.4 -36.75 L106.85 -45.25 107.6 -43.25 109.6 10.0 108.35 10.0 -3.15 17.0 -3.4 13.5 -1.4 -36.75" fill="#ff0000" fill-rule="evenodd" stroke="none"/>
    <path d="M-80.65 -27.0 L-10.9 -59.25 -10.9 -58.75 -15.15 -2.25 -80.65 -27.0" fill="url(#gradient2)" fill-rule="evenodd" stroke="none"/>
    <path d="M-10.9 -59.25 L-1.4 -36.75 -3.4 13.5 -10.9 -58.75 -10.9 -59.25" fill="url(#gradient3)" fill-rule="evenodd" stroke="none"/>
    <path d="M-3.15 17.0 L-3.4 17.0 -15.15 -2.25 -10.9 -58.75 -3.4 13.5 -3.15 17.0" fill="url(#gradient4)" fill-rule="evenodd" stroke="none"/>
    <path d="M0.1 34.75 L-3.4 17.0 -3.15 17.0 108.35 10.0 0.1 34.75" fill="url(#gradient5)" fill-rule="evenodd" stroke="none"/>
    <path d="M109.6 10.0 L101.35 41.0 0.35 35.0 0.1 34.75 108.35 10.0 109.6 10.0" fill="url(#gradient6)" fill-rule="evenodd" stroke="none"/>
    <path d="M0.35 35.0 L-1.9 50.0 -84.15 25.0 0.1 34.75 0.35 35.0" fill="url(#gradient7)" fill-rule="evenodd" stroke="none"/>
    <path d="M-3.4 17.0 L-84.9 24.75 -15.15 -2.25 -3.4 17.0" fill="url(#gradient8)" fill-rule="evenodd" stroke="none"/>
  </g>
  <defs>
    <linearGradient gradientTransform="matrix(0.001, -0.0106, 0.9951, 0.0982, 1.0, 26.05)" gradientUnits="userSpaceOnUse" id="gradient0" spreadMethod="pad" x1="-819.2" x2="819.2">
      <stop offset="0.0" stop-color="#c40000"/>
      <stop offset="1.0" stop-color="#cf0000"/>
    </linearGradient>
    <linearGradient gradientTransform="matrix(0.0405, 0.0137, -0.3205, 0.9472, -47.4, -16.05)" gradientUnits="userSpaceOnUse" id="gradient1" spreadMethod="pad" x1="-819.2" x2="819.2">
      <stop offset="0.0" stop-color="#c50000"/>
      <stop offset="1.0" stop-color="#e00000"/>
    </linearGradient>
    <linearGradient gradientTransform="matrix(0.0371, 0.0203, -0.4803, 0.8771, -50.1, -10.6)" gradientUnits="userSpaceOnUse" id="gradient2" spreadMethod="pad" x1="-819.2" x2="819.2">
      <stop offset="0.0" stop-color="#c50000"/>
      <stop offset="1.0" stop-color="#e00000"/>
    </linearGradient>
    <linearGradient gradientTransform="matrix(-0.0047, 3.0E-4, -0.0636, -0.998, -5.45, -36.5)" gradientUnits="userSpaceOnUse" id="gradient3" spreadMethod="pad" x1="-819.2" x2="819.2">
      <stop offset="0.0" stop-color="#b70000"/>
      <stop offset="1.0" stop-color="#bd0000"/>
    </linearGradient>
    <linearGradient gradientTransform="matrix(-0.0063, 4.0E-4, -0.0677, -0.9977, -8.45, 17.25)" gradientUnits="userSpaceOnUse" id="gradient4" spreadMethod="pad" x1="-819.2" x2="819.2">
      <stop offset="0.0" stop-color="#bb0000"/>
      <stop offset="1.0" stop-color="#c40000"/>
    </linearGradient>
    <linearGradient gradientTransform="matrix(-1.0E-4, -0.0149, 1.0, -0.0042, 0.05, 22.45)" gradientUnits="userSpaceOnUse" id="gradient5" spreadMethod="pad" x1="-819.2" x2="819.2">
      <stop offset="0.0" stop-color="#c40000"/>
      <stop offset="1.0" stop-color="#d30000"/>
    </linearGradient>
    <linearGradient gradientTransform="matrix(5.0E-4, -0.0191, 0.9997, 0.0254, 101.55, 25.25)" gradientUnits="userSpaceOnUse" id="gradient6" spreadMethod="pad" x1="-819.2" x2="819.2">
      <stop offset="0.0" stop-color="#c20000"/>
      <stop offset="1.0" stop-color="#d30000"/>
    </linearGradient>
    <linearGradient gradientTransform="matrix(0.001, -0.0104, 0.9956, 0.0939, -1.05, 41.25)" gradientUnits="userSpaceOnUse" id="gradient7" spreadMethod="pad" x1="-819.2" x2="819.2">
      <stop offset="0.0" stop-color="#bc0000"/>
      <stop offset="1.0" stop-color="#c50000"/>
    </linearGradient>
    <linearGradient gradientTransform="matrix(0.0021, -0.0207, 0.995, 0.1001, -83.2, 7.75)" gradientUnits="userSpaceOnUse" id="gradient8" spreadMethod="pad" x1="-819.2" x2="819.2">
      <stop offset="0.0" stop-color="#c50000"/>
      <stop offset="1.0" stop-color="#da0000"/>
    </linearGradient>
  </defs>
</svg>
