<?xml version="1.0" encoding="UTF-8" standalone="no"?>
<svg xmlns:xlink="http://www.w3.org/1999/xlink" height="152.0px" width="195.25px" xmlns="http://www.w3.org/2000/svg">
  <g transform="matrix(1.0, 0.0, 0.0, 1.0, 87.65, 74.5)">
    <path d="M106.6 -44.75 L107.6 -44.0 106.35 46.5 1.1 28.0 -2.65 27.25 -2.65 27.5 -8.15 77.5 -87.65 -2.25 -10.65 -74.5 -2.9 -25.25 -2.15 -25.25 -1.65 -25.5 -1.4 -25.5 5.1 -26.5 5.6 -26.75 6.35 -26.75 6.85 -27.0 7.85 -27.0 8.35 -27.25 9.1 -27.25 9.85 -27.5 11.1 -27.75 11.85 -27.75 12.6 -28.0 13.85 -28.25 14.6 -28.25 15.35 -28.5 22.35 -29.75 22.6 -29.75 106.6 -44.75" fill="#ff0000" fill-rule="evenodd" stroke="none"/>
    <path d="M1.35 -26.75 L77.35 -40.25 77.6 -40.25 86.6 -42.0 87.35 -42.0 88.1 -42.25 88.85 -42.25 101.35 -44.75 106.6 -44.75 22.6 -29.75 22.35 -29.75 15.35 -28.5 14.6 -28.25 13.85 -28.25 12.6 -28.0 11.85 -27.75 11.1 -27.75 9.85 -27.5 9.1 -27.25 8.35 -27.25 7.85 -27.0 6.85 -27.0 6.35 -26.75 5.6 -26.75 5.1 -26.5 -1.4 -25.5 1.35 -26.75" fill="#7e0000" fill-rule="evenodd" stroke="none"/>
    <path d="M-10.65 -74.5 L-4.15 -72.25 -3.9 -71.0 -2.9 -25.25 -10.65 -74.5" fill="url(#gradient0)" fill-rule="evenodd" stroke="none"/>
    <path d="M-3.9 -71.0 L1.35 -26.75 -1.4 -25.5 -1.65 -25.5 -2.15 -25.25 -2.9 -25.25 -3.9 -71.0" fill="url(#gradient1)" fill-rule="evenodd" stroke="none"/>
    <path d="M-1.65 65.0 L-1.9 68.0 -7.4 77.5 -8.15 77.5 -2.65 27.5 -1.65 65.0" fill="url(#gradient2)" fill-rule="evenodd" stroke="none"/>
    <path d="M1.1 28.0 L-1.65 65.0 -2.65 27.5 -2.65 27.25 1.1 28.0" fill="url(#gradient3)" fill-rule="evenodd" stroke="none"/>
  </g>
  <defs>
    <linearGradient gradientTransform="matrix(-0.0036, 5.0E-4, -0.1514, -0.9885, -7.0, -71.75)" gradientUnits="userSpaceOnUse" id="gradient0" spreadMethod="pad" x1="-819.2" x2="819.2">
      <stop offset="0.0" stop-color="#9d0000"/>
      <stop offset="1.0" stop-color="#a20000"/>
    </linearGradient>
    <linearGradient gradientTransform="matrix(-0.0032, 4.0E-4, -0.1372, -0.9905, -6.65, -71.85)" gradientUnits="userSpaceOnUse" id="gradient1" spreadMethod="pad" x1="-819.2" x2="819.2">
      <stop offset="0.0" stop-color="#9d0000"/>
      <stop offset="1.0" stop-color="#a20000"/>
    </linearGradient>
    <linearGradient gradientTransform="matrix(-0.0034, -4.0E-4, 0.123, -0.9924, -4.7, 66.95)" gradientUnits="userSpaceOnUse" id="gradient2" spreadMethod="pad" x1="-819.2" x2="819.2">
      <stop offset="0.0" stop-color="#9d0000"/>
      <stop offset="1.0" stop-color="#a30000"/>
    </linearGradient>
    <linearGradient gradientTransform="matrix(-0.0025, -2.0E-4, 0.084, -0.9965, -3.9, 67.1)" gradientUnits="userSpaceOnUse" id="gradient3" spreadMethod="pad" x1="-819.2" x2="819.2">
      <stop offset="0.0" stop-color="#9d0000"/>
      <stop offset="1.0" stop-color="#a30000"/>
    </linearGradient>
  </defs>
</svg>
