<?xml version="1.0" encoding="UTF-8" standalone="no"?>
<svg xmlns:xlink="http://www.w3.org/1999/xlink" height="155.25px" width="195.25px" xmlns="http://www.w3.org/2000/svg">
  <g transform="matrix(1.0, 0.0, 0.0, 1.0, 86.65, 76.25)">
    <path d="M-86.4 -17.0 L-86.65 -17.5 -6.9 -76.25 -1.65 -38.0 -1.65 -36.75 -0.4 -37.0 103.85 -52.75 104.6 -53.0 104.85 -51.75 108.6 26.25 107.85 26.25 -3.4 8.5 -11.4 56.5 -12.4 55.75 -86.4 -17.0" fill="#ff0000" fill-rule="evenodd" stroke="none"/>
    <path d="M-75.15 10.5 L-76.9 9.0 -86.4 -17.0 -12.4 55.75 -75.15 10.5" fill="url(#gradient0)" fill-rule="evenodd" stroke="none"/>
    <path d="M-6.9 -76.25 L-1.4 -47.5 -1.4 -43.25 -0.4 -37.0 -1.65 -36.75 -1.65 -38.0 -6.9 -76.25" fill="#7e0000" fill-rule="evenodd" stroke="none"/>
    <path d="M-3.4 8.5 L107.85 26.25 0.35 34.0 -3.15 10.5 -3.4 8.5" fill="url(#gradient1)" fill-rule="evenodd" stroke="none"/>
    <path d="M-4.9 78.0 L-4.9 79.0 -5.4 78.75 -11.4 56.5 -3.4 8.5 -3.15 10.5 -4.9 78.0" fill="url(#gradient2)" fill-rule="evenodd" stroke="none"/>
    <path d="M-5.4 78.75 L-75.15 10.5 -12.4 55.75 -11.4 56.5 -5.4 78.75" fill="url(#gradient3)" fill-rule="evenodd" stroke="none"/>
    <path d="M0.35 34.0 L-4.9 78.0 -3.15 10.5 0.35 34.0" fill="url(#gradient4)" fill-rule="evenodd" stroke="none"/>
    <path d="M108.6 26.25 L103.6 50.25 102.85 50.5 0.35 34.0 107.85 26.25 108.6 26.25" fill="url(#gradient5)" fill-rule="evenodd" stroke="none"/>
  </g>
  <defs>
    <linearGradient gradientTransform="matrix(0.0105, -0.0083, 0.6184, 0.7858, -68.0, 2.2)" gradientUnits="userSpaceOnUse" id="gradient0" spreadMethod="pad" x1="-819.2" x2="819.2">
      <stop offset="0.0" stop-color="#8e0000"/>
      <stop offset="1.0" stop-color="#930000"/>
    </linearGradient>
    <linearGradient gradientTransform="matrix(0.0038, -0.018, 0.9778, 0.2095, 3.45, 19.0)" gradientUnits="userSpaceOnUse" id="gradient1" spreadMethod="pad" x1="-819.2" x2="819.2">
      <stop offset="0.0" stop-color="#d00000"/>
      <stop offset="1.0" stop-color="#df0000"/>
    </linearGradient>
    <linearGradient gradientTransform="matrix(-0.0048, -4.0E-4, 0.0797, -0.9968, -9.0, 78.55)" gradientUnits="userSpaceOnUse" id="gradient2" spreadMethod="pad" x1="-819.2" x2="819.2">
      <stop offset="0.0" stop-color="#aa0000"/>
      <stop offset="1.0" stop-color="#b20000"/>
    </linearGradient>
    <linearGradient gradientTransform="matrix(0.0077, -0.0069, 0.6667, 0.7453, -70.3, 3.3)" gradientUnits="userSpaceOnUse" id="gradient3" spreadMethod="pad" x1="-819.2" x2="819.2">
      <stop offset="0.0" stop-color="#8e0000"/>
      <stop offset="1.0" stop-color="#930000"/>
    </linearGradient>
    <linearGradient gradientTransform="matrix(-0.0034, -3.0E-4, 0.0768, -0.997, -2.5, 33.5)" gradientUnits="userSpaceOnUse" id="gradient4" spreadMethod="pad" x1="-819.2" x2="819.2">
      <stop offset="0.0" stop-color="#a80000"/>
      <stop offset="1.0" stop-color="#ae0000"/>
    </linearGradient>
    <linearGradient gradientTransform="matrix(0.0034, -0.0172, 0.9807, 0.1957, 3.1, 19.65)" gradientUnits="userSpaceOnUse" id="gradient5" spreadMethod="pad" x1="-819.2" x2="819.2">
      <stop offset="0.0" stop-color="#d00000"/>
      <stop offset="1.0" stop-color="#df0000"/>
    </linearGradient>
  </defs>
</svg>
