<?xml version="1.0" encoding="UTF-8" standalone="no"?>
<svg xmlns:xlink="http://www.w3.org/1999/xlink" height="107.25px" width="192.25px" xmlns="http://www.w3.org/2000/svg">
  <g transform="matrix(1.0, 0.0, 0.0, 1.0, 83.15, 58.25)">
    <path d="M-82.4 28.0 L-83.15 28.0 -11.65 -58.25 -11.15 -1.0 -82.4 28.0" fill="url(#gradient0)" fill-rule="evenodd" stroke="none"/>
    <path d="M-83.15 28.0 L-82.4 28.0 -3.15 18.5 0.1 35.5 -82.4 28.25 -83.15 28.0" fill="url(#gradient1)" fill-rule="evenodd" stroke="none"/>
    <path d="M-11.65 -58.25 L-83.15 28.0 -79.15 -23.75 -11.65 -58.25" fill="url(#gradient2)" fill-rule="evenodd" stroke="none"/>
    <path d="M-1.4 -35.5 L106.6 -43.5 107.35 -42.5 109.1 12.0 108.1 12.0 -2.9 18.5 -1.65 -34.0 -1.4 -35.5" fill="#ff0000" fill-rule="evenodd" stroke="none"/>
    <path d="M-11.15 -1.0 L-11.65 -58.25 -10.65 -58.25 -1.4 -35.5 -1.65 -34.0 -11.15 -1.0" fill="url(#gradient3)" fill-rule="evenodd" stroke="none"/>
    <path d="M-2.9 18.5 L-3.15 18.5 -11.15 -1.0 -1.65 -34.0 -2.9 18.5" fill="url(#gradient4)" fill-rule="evenodd" stroke="none"/>
    <path d="M-3.15 18.5 L-2.9 18.5 108.1 12.0 0.1 35.5 -3.15 18.5" fill="url(#gradient5)" fill-rule="evenodd" stroke="none"/>
    <path d="M-82.4 28.0 L-11.15 -1.0 -3.15 18.5 -82.4 28.0" fill="url(#gradient6)" fill-rule="evenodd" stroke="none"/>
    <path d="M0.1 35.5 L-1.9 49.0 -82.4 28.25 0.1 35.5" fill="url(#gradient7)" fill-rule="evenodd" stroke="none"/>
    <path d="M109.1 12.0 L101.1 41.25 0.1 35.5 108.1 12.0 109.1 12.0" fill="url(#gradient8)" fill-rule="evenodd" stroke="none"/>
  </g>
  <defs>
    <linearGradient gradientTransform="matrix(0.0316, 0.0127, -0.3735, 0.9276, -57.15, 38.45)" gradientUnits="userSpaceOnUse" id="gradient0" spreadMethod="pad" x1="-819.2" x2="819.2">
      <stop offset="0.0" stop-color="#c50000"/>
      <stop offset="1.0" stop-color="#dd0000"/>
    </linearGradient>
    <linearGradient gradientTransform="matrix(9.0E-4, -0.01, 0.9962, 0.0867, 1.05, 27.0)" gradientUnits="userSpaceOnUse" id="gradient1" spreadMethod="pad" x1="-819.2" x2="819.2">
      <stop offset="0.0" stop-color="#c10000"/>
      <stop offset="1.0" stop-color="#cb0000"/>
    </linearGradient>
    <linearGradient gradientTransform="matrix(0.0336, 0.0088, -0.2546, 0.967, -51.5, -16.55)" gradientUnits="userSpaceOnUse" id="gradient2" spreadMethod="pad" x1="-819.2" x2="819.2">
      <stop offset="0.0" stop-color="#c20000"/>
      <stop offset="1.0" stop-color="#d40000"/>
    </linearGradient>
    <linearGradient gradientTransform="matrix(-0.0078, 7.0E-4, -0.0917, -0.9958, -7.85, -34.95)" gradientUnits="userSpaceOnUse" id="gradient3" spreadMethod="pad" x1="-819.2" x2="819.2">
      <stop offset="0.0" stop-color="#ad0000"/>
      <stop offset="1.0" stop-color="#b90000"/>
    </linearGradient>
    <linearGradient gradientTransform="matrix(-0.0067, 2.0E-4, -0.0362, -0.9993, -6.9, -35.3)" gradientUnits="userSpaceOnUse" id="gradient4" spreadMethod="pad" x1="-819.2" x2="819.2">
      <stop offset="0.0" stop-color="#ad0000"/>
      <stop offset="1.0" stop-color="#b90000"/>
    </linearGradient>
    <linearGradient gradientTransform="matrix(0.0, -0.0145, 1.0, 0.0028, 0.35, 23.35)" gradientUnits="userSpaceOnUse" id="gradient5" spreadMethod="pad" x1="-819.2" x2="819.2">
      <stop offset="0.0" stop-color="#c10000"/>
      <stop offset="1.0" stop-color="#cf0000"/>
    </linearGradient>
    <linearGradient gradientTransform="matrix(0.0014, -0.0207, 0.9976, 0.0695, -81.9, 11.05)" gradientUnits="userSpaceOnUse" id="gradient6" spreadMethod="pad" x1="-819.2" x2="819.2">
      <stop offset="0.0" stop-color="#c10000"/>
      <stop offset="1.0" stop-color="#d70000"/>
    </linearGradient>
    <linearGradient gradientTransform="matrix(7.0E-4, -0.0084, 0.9962, 0.0867, -1.1, 42.05)" gradientUnits="userSpaceOnUse" id="gradient7" spreadMethod="pad" x1="-819.2" x2="819.2">
      <stop offset="0.0" stop-color="#ba0000"/>
      <stop offset="1.0" stop-color="#c10000"/>
    </linearGradient>
    <linearGradient gradientTransform="matrix(2.0E-4, -0.018, 1.0, 0.0086, 101.0, 26.45)" gradientUnits="userSpaceOnUse" id="gradient8" spreadMethod="pad" x1="-819.2" x2="819.2">
      <stop offset="0.0" stop-color="#be0000"/>
      <stop offset="1.0" stop-color="#cf0000"/>
    </linearGradient>
  </defs>
</svg>
