<?xml version="1.0" encoding="UTF-8" standalone="no"?>
<svg xmlns:xlink="http://www.w3.org/1999/xlink" height="154.0px" width="195.25px" xmlns="http://www.w3.org/2000/svg">
  <g transform="matrix(1.0, 0.0, 0.0, 1.0, 86.15, 78.5)">
    <path d="M-86.15 18.5 L-84.9 17.5 -9.65 -53.0 -3.4 -6.0 -2.9 -6.0 108.35 -22.75 109.1 -22.75 103.6 53.5 -0.9 38.0 -1.65 38.0 -4.9 75.5 -86.15 19.25 -86.15 18.5" fill="#ff0000" fill-rule="evenodd" stroke="none"/>
    <path d="M-84.9 17.5 L-86.15 18.5 -76.65 -10.25 -9.4 -76.25 -84.9 17.5" fill="#8a0000" fill-rule="evenodd" stroke="none"/>
    <path d="M109.1 -22.75 L108.35 -22.75 -2.9 -6.0 103.1 -50.0 104.1 -50.25 104.35 -49.25 109.1 -22.75" fill="url(#gradient0)" fill-rule="evenodd" stroke="none"/>
    <path d="M-9.65 -53.0 L-84.9 17.5 -9.4 -76.25 -7.15 -78.5 -9.65 -53.0" fill="#8c0000" fill-rule="evenodd" stroke="none"/>
    <path d="M-3.4 -6.0 L-9.65 -53.0 -0.15 -35.0 0.35 -34.0 -3.4 -6.0" fill="url(#gradient1)" fill-rule="evenodd" stroke="none"/>
    <path d="M-7.15 -78.5 L-0.15 -35.0 -9.65 -53.0 -7.15 -78.5" fill="url(#gradient2)" fill-rule="evenodd" stroke="none"/>
    <path d="M-2.9 -6.0 L-3.4 -6.0 0.35 -34.0 103.1 -50.0 -2.9 -6.0" fill="url(#gradient3)" fill-rule="evenodd" stroke="none"/>
    <path d="M-4.9 75.5 L-1.65 38.0 -0.9 38.0 -4.9 75.5" fill="#7e0000" fill-rule="evenodd" stroke="none"/>
  </g>
  <defs>
    <linearGradient gradientTransform="matrix(0.0036, 0.0166, -0.9778, 0.2097, 106.85, -36.7)" gradientUnits="userSpaceOnUse" id="gradient0" spreadMethod="pad" x1="-819.2" x2="819.2">
      <stop offset="0.0" stop-color="#c60000"/>
      <stop offset="1.0" stop-color="#d20000"/>
    </linearGradient>
    <linearGradient gradientTransform="matrix(-0.0049, 4.0E-4, -0.0862, -0.9963, -3.8, -33.8)" gradientUnits="userSpaceOnUse" id="gradient1" spreadMethod="pad" x1="-819.2" x2="819.2">
      <stop offset="0.0" stop-color="#a10000"/>
      <stop offset="1.0" stop-color="#a90000"/>
    </linearGradient>
    <linearGradient gradientTransform="matrix(-0.0044, 5.0E-4, -0.1213, -0.9926, -3.45, -33.7)" gradientUnits="userSpaceOnUse" id="gradient2" spreadMethod="pad" x1="-819.2" x2="819.2">
      <stop offset="0.0" stop-color="#a10000"/>
      <stop offset="1.0" stop-color="#a90000"/>
    </linearGradient>
    <linearGradient gradientTransform="matrix(0.0033, 0.016, -0.98, 0.1988, 2.9, -21.0)" gradientUnits="userSpaceOnUse" id="gradient3" spreadMethod="pad" x1="-819.2" x2="819.2">
      <stop offset="0.0" stop-color="#c40000"/>
      <stop offset="1.0" stop-color="#cf0000"/>
    </linearGradient>
  </defs>
</svg>
