<?xml version="1.0" encoding="UTF-8" standalone="no"?>
<svg xmlns:xlink="http://www.w3.org/1999/xlink" height="176.1px" width="164.35px" xmlns="http://www.w3.org/2000/svg">
  <g transform="matrix(1.0, 0.0, 0.0, 1.0, 10.35, 56.6)">
    <path d="M4.7 -10.35 Q3.15 -10.1 15.75 -29.05 L27.75 -40.4 44.6 -49.8 Q84.5 -64.75 116.85 -46.9 L119.35 -45.9 135.25 -34.4 146.0 -21.15 152.75 -5.15 154.0 11.45 149.0 29.95 139.85 44.45 128.25 54.95 126.85 56.1 126.5 56.6 119.5 60.2 Q102.05 60.85 85.85 68.95 L82.35 71.35 72.85 71.35 Q63.4 70.65 59.25 69.2 L59.1 69.2 59.1 69.1 41.35 63.35 23.5 51.95 11.35 38.7 9.0 33.7 8.85 33.7 8.5 32.6 8.35 32.6 8.25 32.2 5.6 26.6 5.5 26.6 5.5 26.35 4.75 24.6 4.6 24.6 4.5 24.2 3.75 22.85 4.1 20.85 3.75 18.95 4.5 14.85 4.0 12.6 4.35 9.7 3.75 2.45 3.1 1.1 3.35 -0.4 5.1 -7.55 5.0 -8.15 4.35 -8.3 4.85 -10.4 4.7 -10.35" fill="#b19771" fill-rule="evenodd" stroke="none"/>
    <path d="M59.1 69.2 L59.25 69.2 Q63.4 70.65 72.85 71.35 L82.35 71.35 85.85 68.95 Q102.05 60.85 119.5 60.2 L126.5 56.6 126.85 56.1 128.25 54.95 Q130.05 58.8 129.1 59.7 L125.85 62.85 Q140.0 72.15 130.1 77.2 89.0 105.85 58.85 118.95 48.85 122.2 51.35 106.95 52.3 97.6 69.0 81.7 L63.85 82.45 Q58.9 82.45 58.75 81.45 55.8 74.35 59.1 69.2" fill="#573f70" fill-rule="evenodd" stroke="none"/>
    <path d="M4.7 -10.35 L4.85 -10.4 4.35 -8.3 5.0 -8.15 5.1 -7.55 3.35 -0.4 1.85 -0.55 -0.4 -1.65 -1.4 -3.3 Q-1.75 -7.1 1.85 -8.15 L3.1 -9.8 4.7 -10.35" fill="#000000" fill-rule="evenodd" stroke="none"/>
    <path d="M3.35 -0.4 L3.1 1.1 3.75 2.45 4.35 9.7 4.0 12.6 4.5 14.85 3.75 18.95 4.1 20.85 3.75 22.85 4.5 24.2 4.6 24.6 4.75 24.6 5.5 26.35 5.5 26.6 5.6 26.6 8.25 32.2 8.35 32.6 8.5 32.6 8.85 33.7 8.35 37.2 Q7.3 50.5 4.0 37.6 L3.85 37.6 2.25 47.2 0.75 53.6 Q-0.4 56.45 -1.5 52.85 L-2.25 52.7 -3.0 48.45 -3.4 48.95 -4.0 48.95 -4.75 46.95 -5.65 49.1 -6.25 49.85 -7.15 49.7 -7.25 49.7 Q-11.1 60.55 -10.15 45.45 L-7.65 28.2 -3.5 11.6 0.5 1.45 1.85 -0.55 3.35 -0.4" fill="#5f3f2a" fill-rule="evenodd" stroke="none"/>
    <path d="M-1.4 -3.3 L-0.4 -1.65 1.85 -0.55 0.5 1.45 -3.5 11.6 Q-4.6 -2.75 -1.4 -3.3" fill="#ff488c" fill-rule="evenodd" stroke="none"/>
  </g>
</svg>
