<?xml version="1.0" encoding="UTF-8" standalone="no"?>
<svg xmlns:xlink="http://www.w3.org/1999/xlink" height="156.25px" width="195.0px" xmlns="http://www.w3.org/2000/svg">
  <g transform="matrix(1.0, 0.0, 0.0, 1.0, 87.15, 77.5)">
    <path d="M-86.65 13.25 L-76.65 -4.5 -5.9 -77.5 -8.4 -65.25 -86.65 13.25 M-0.65 35.5 L-6.15 78.75 -2.15 35.25 -0.65 35.5" fill="#7e0000" fill-rule="evenodd" stroke="none"/>
    <path d="M107.85 -32.5 L105.1 53.25 -0.65 35.5 -2.15 35.25 -6.15 78.75 -87.15 14.0 -86.65 13.25 -8.4 -65.25 -8.4 -64.5 -3.4 -14.0 -3.15 -14.0 -2.9 -14.25 -2.15 -14.25 107.85 -32.5" fill="#ff0000" fill-rule="evenodd" stroke="none"/>
    <path d="M101.1 -47.25 L101.35 -47.25 101.85 -47.5 103.1 -47.75 107.85 -32.5 -2.15 -14.25 101.1 -47.25" fill="url(#gradient0)" fill-rule="evenodd" stroke="none"/>
    <path d="M-5.9 -77.5 L-5.15 -75.75 0.35 -32.5 -8.4 -64.5 -8.4 -65.25 -5.9 -77.5" fill="url(#gradient1)" fill-rule="evenodd" stroke="none"/>
    <path d="M0.35 -32.5 L0.85 -30.5 -2.9 -14.25 -3.15 -14.0 -3.4 -14.0 -8.4 -64.5 0.35 -32.5" fill="url(#gradient2)" fill-rule="evenodd" stroke="none"/>
    <path d="M0.85 -30.5 L101.1 -47.25 -2.15 -14.25 -2.9 -14.25 0.85 -30.5" fill="url(#gradient3)" fill-rule="evenodd" stroke="none"/>
  </g>
  <defs>
    <linearGradient gradientTransform="matrix(0.0018, 0.0095, -0.9823, 0.1875, 104.35, -40.0)" gradientUnits="userSpaceOnUse" id="gradient0" spreadMethod="pad" x1="-819.2" x2="819.2">
      <stop offset="0.0" stop-color="#9e0000"/>
      <stop offset="1.0" stop-color="#a40000"/>
    </linearGradient>
    <linearGradient gradientTransform="matrix(-0.003, 4.0E-4, -0.1171, -0.9931, -1.8, -30.25)" gradientUnits="userSpaceOnUse" id="gradient1" spreadMethod="pad" x1="-819.2" x2="819.2">
      <stop offset="0.0" stop-color="#9d0000"/>
      <stop offset="1.0" stop-color="#a30000"/>
    </linearGradient>
    <linearGradient gradientTransform="matrix(-0.0034, 3.0E-4, -0.1011, -0.9949, -2.05, -30.25)" gradientUnits="userSpaceOnUse" id="gradient2" spreadMethod="pad" x1="-819.2" x2="819.2">
      <stop offset="0.0" stop-color="#9d0000"/>
      <stop offset="1.0" stop-color="#a30000"/>
    </linearGradient>
    <linearGradient gradientTransform="matrix(0.0016, 0.0093, -0.9861, 0.1664, 2.0, -22.9)" gradientUnits="userSpaceOnUse" id="gradient3" spreadMethod="pad" x1="-819.2" x2="819.2">
      <stop offset="0.0" stop-color="#9e0000"/>
      <stop offset="1.0" stop-color="#a30000"/>
    </linearGradient>
  </defs>
</svg>
