<?xml version="1.0" encoding="UTF-8" standalone="no"?>
<svg xmlns:xlink="http://www.w3.org/1999/xlink" height="153.75px" width="194.75px" xmlns="http://www.w3.org/2000/svg">
  <g transform="matrix(1.0, 0.0, 0.0, 1.0, 87.15, 75.0)">
    <path d="M98.6 -44.0 L98.85 -44.0 102.35 -44.75 107.6 -38.25 0.1 -19.75 98.6 -44.0" fill="#830000" fill-rule="evenodd" stroke="none"/>
    <path d="M0.35 -31.75 L0.35 -31.0 0.6 -30.25 1.1 -27.25 -2.65 -19.25 -3.15 -19.0 -7.65 -70.75 0.35 -31.75" fill="url(#gradient0)" fill-rule="evenodd" stroke="none"/>
    <path d="M-6.65 -73.0 L-5.15 -75.0 -4.4 -74.0 0.35 -31.75 -7.65 -70.75 -6.65 -73.0" fill="url(#gradient1)" fill-rule="evenodd" stroke="none"/>
    <path d="M-0.15 32.75 L-2.9 52.0 -2.9 52.25 -5.15 67.75 -5.4 68.75 -5.4 69.5 -5.65 70.25 -5.65 71.0 -5.9 72.0 -5.9 72.75 -6.15 73.5 -6.15 74.5 -6.4 75.0 -7.15 78.75 -2.4 32.5 -0.15 32.75 M-40.15 -38.5 L-6.65 -73.0 -7.65 -70.75 -40.15 -38.5" fill="#7e0000" fill-rule="evenodd" stroke="none"/>
    <path d="M107.6 -38.25 L105.85 51.5 -0.15 32.75 -2.4 32.5 -7.15 78.75 -87.15 10.25 -40.15 -38.5 -7.65 -70.75 -3.15 -19.0 -2.65 -19.25 -1.9 -19.25 -1.4 -19.5 -0.15 -19.75 0.1 -19.75 107.6 -38.25" fill="#ff0000" fill-rule="evenodd" stroke="none"/>
    <path d="M1.1 -27.25 L98.6 -44.0 0.1 -19.75 -0.15 -19.75 -1.4 -19.5 -1.9 -19.25 -2.65 -19.25 1.1 -27.25" fill="#820000" fill-rule="evenodd" stroke="none"/>
  </g>
  <defs>
    <linearGradient gradientTransform="matrix(-0.0029, 2.0E-4, -0.0867, -0.9962, -1.35, -27.1)" gradientUnits="userSpaceOnUse" id="gradient0" spreadMethod="pad" x1="-819.2" x2="819.2">
      <stop offset="0.0" stop-color="#9a0000"/>
      <stop offset="1.0" stop-color="#9f0000"/>
    </linearGradient>
    <linearGradient gradientTransform="matrix(-0.0019, 2.0E-4, -0.1204, -0.9927, -6.4, -74.95)" gradientUnits="userSpaceOnUse" id="gradient1" spreadMethod="pad" x1="-819.2" x2="819.2">
      <stop offset="0.0" stop-color="#9a0000"/>
      <stop offset="1.0" stop-color="#9f0000"/>
    </linearGradient>
  </defs>
</svg>
