<?xml version="1.0" encoding="UTF-8" standalone="no"?>
<svg xmlns:xlink="http://www.w3.org/1999/xlink" height="151.5px" width="194.5px" xmlns="http://www.w3.org/2000/svg">
  <g transform="matrix(1.0, 0.0, 0.0, 1.0, 87.4, 73.5)">
    <path d="M1.35 -25.25 L91.6 -40.75 91.85 -40.75 98.1 -42.0 98.85 -42.0 99.35 -42.25 102.6 -42.5 107.1 -41.0 6.1 -23.5 5.85 -23.5 3.1 -23.0 2.35 -22.75 1.6 -22.75 1.1 -22.5 -2.4 -22.0 1.35 -25.25 M0.1 31.0 L-0.9 38.5 -1.15 39.25 -1.15 40.0 -1.65 42.75 -1.65 43.0 -4.65 66.5 -6.9 75.5 -7.15 76.25 -7.15 77.0 -7.65 78.0 -7.65 77.5 -7.4 76.25 -2.65 30.5 0.1 31.0" fill="#7e0000" fill-rule="evenodd" stroke="none"/>
    <path d="M-7.15 -73.5 L-4.15 -72.75 0.1 -32.75 -7.15 -73.5" fill="#9a0000" fill-rule="evenodd" stroke="none"/>
    <path d="M0.1 -32.75 L0.1 -32.5 1.35 -25.25 -2.4 -22.0 -2.9 -21.75 -7.15 -73.5 0.1 -32.75" fill="url(#gradient0)" fill-rule="evenodd" stroke="none"/>
    <path d="M107.1 -41.0 L106.35 49.75 0.1 31.0 -2.65 30.5 -7.4 76.25 -7.65 77.5 -7.65 78.0 -87.4 7.75 -7.15 -73.5 -2.9 -21.75 -2.4 -22.0 1.1 -22.5 1.6 -22.75 2.35 -22.75 3.1 -23.0 5.85 -23.5 6.1 -23.5 107.1 -41.0" fill="#ff0000" fill-rule="evenodd" stroke="none"/>
  </g>
  <defs>
    <linearGradient gradientTransform="matrix(-0.0027, 3.0E-4, -0.1131, -0.9936, -1.05, -24.95)" gradientUnits="userSpaceOnUse" id="gradient0" spreadMethod="pad" x1="-819.2" x2="819.2">
      <stop offset="0.0" stop-color="#990000"/>
      <stop offset="1.0" stop-color="#9e0000"/>
    </linearGradient>
  </defs>
</svg>
