<?xml version="1.0" encoding="UTF-8" standalone="no"?>
<svg xmlns:xlink="http://www.w3.org/1999/xlink" height="182.25px" width="151.5px" xmlns="http://www.w3.org/2000/svg">
  <g transform="matrix(1.0, 0.0, 0.0, 1.0, 0.65, 73.25)">
    <path d="M13.35 -25.9 L14.1 -29.05 22.6 -44.65 36.0 -58.4 51.5 -67.55 68.85 -72.55 85.6 -73.15 Q88.9 -73.45 90.5 -72.65 L105.5 -68.9 122.6 -59.8 136.0 -47.15 145.5 -31.55 150.1 -15.3 Q155.55 24.5 122.25 52.1 L117.25 54.85 Q115.3 51.2 91.1 56.1 88.85 55.95 80.6 59.35 L71.75 64.85 63.5 63.6 Q62.0 63.7 53.5 59.85 38.4 53.05 39.6 52.85 L26.1 41.1 16.5 26.35 14.75 20.6 14.6 20.6 14.35 19.45 14.25 19.45 14.25 19.2 12.6 13.95 12.5 13.95 12.5 13.7 12.0 11.95 11.85 11.95 11.85 11.7 11.25 9.7 11.1 9.7 11.25 9.45 11.75 7.45 11.5 4.85 11.5 4.6 Q12.65 2.0 12.6 0.2 L12.25 -2.3 12.85 -6.65 12.75 -12.15 Q11.35 -15.9 11.7 -16.15 L11.85 -16.15 13.75 -24.3 13.0 -24.55 13.35 -25.9" fill="#b19771" fill-rule="evenodd" stroke="none"/>
    <path d="M122.25 52.1 L122.6 54.6 Q123.1 55.1 120.6 57.6 130.65 66.4 123.0 71.45 86.3 95.15 50.85 108.1 40.05 112.4 43.5 95.95 45.75 86.2 60.5 73.45 50.05 73.95 51.35 71.95 49.3 63.75 53.5 59.85 62.0 63.7 63.5 63.6 L71.75 64.85 80.6 59.35 Q88.85 55.95 91.1 56.1 115.3 51.2 117.25 54.85 L122.25 52.1" fill="#573f70" fill-rule="evenodd" stroke="none"/>
    <path d="M5.25 -4.05 L5.0 -6.55 5.85 -15.05 6.0 -15.15 7.1 -18.15 8.1 -19.05 8.25 -19.05 9.0 -17.4 Q9.95 -16.75 10.85 -16.15 L8.6 -12.4 5.25 -4.05" fill="#ff488c" fill-rule="evenodd" stroke="none"/>
    <path d="M8.1 -19.05 L8.25 -19.15 Q7.5 -23.3 11.25 -24.4 L12.35 -25.55 13.35 -25.9 13.0 -24.55 13.75 -24.3 11.85 -16.15 11.7 -16.15 10.85 -16.15 Q9.95 -16.75 9.0 -17.4 L8.25 -19.05 8.1 -19.05" fill="#000000" fill-rule="evenodd" stroke="none"/>
    <path d="M14.6 20.6 Q14.45 20.75 14.25 20.85 L14.25 21.1 14.1 21.95 14.1 22.45 14.0 22.85 Q12.6 38.0 9.75 26.45 L6.0 40.2 Q3.4 45.0 3.6 38.1 L3.1 36.35 3.35 30.7 3.0 30.7 2.6 29.95 2.75 24.7 2.1 25.35 1.35 25.35 0.75 22.35 Q-3.5 23.5 5.25 -4.05 L8.6 -12.4 10.85 -16.15 11.7 -16.15 Q11.35 -15.9 12.75 -12.15 L12.85 -6.65 12.25 -2.3 12.6 0.2 Q12.65 2.0 11.5 4.6 L11.5 4.85 11.75 7.45 11.25 9.45 11.1 9.7 11.25 9.7 11.85 11.7 11.85 11.95 12.0 11.95 12.5 13.7 12.5 13.95 12.6 13.95 14.25 19.2 14.25 19.45 14.35 19.45 14.6 20.6" fill="#5f3f2a" fill-rule="evenodd" stroke="none"/>
  </g>
</svg>
