<?xml version="1.0" encoding="UTF-8" standalone="no"?>
<svg xmlns:xlink="http://www.w3.org/1999/xlink" height="165.05px" width="190.6px" xmlns="http://www.w3.org/2000/svg">
  <g transform="matrix(1.0, 0.0, 0.0, 1.0, 105.5, 79.3)">
    <path d="M19.85 -54.15 L24.0 -72.25 28.1 -73.0 67.85 -64.4 19.85 -54.15" fill="#a54916" fill-rule="evenodd" stroke="none"/>
    <path d="M28.1 -73.0 L24.0 -72.25 19.85 -54.15 19.85 -54.0 19.25 -54.0 -29.4 -43.5 -105.5 -65.75 -38.0 -77.25 -38.0 -66.0 -37.65 -66.0 -37.55 -65.65 -36.9 -64.55 -35.5 -63.35 Q-31.75 -61.1 -21.9 -61.3 L-17.1 -61.55 -5.5 -62.75 Q-3.85 -62.7 -1.4 -64.4 L-1.25 -66.0 -0.75 -66.0 -0.75 -79.3 28.1 -73.0" fill="#974012" fill-rule="evenodd" stroke="none"/>
    <path d="M52.1 -23.75 L47.6 -25.4 41.85 -24.75 45.5 -28.25 46.75 -29.25 51.25 -31.4 56.5 -33.75 65.6 -34.15 67.35 -33.5 74.1 -30.4 80.5 -22.9 84.25 -12.65 85.1 0.25 Q83.55 15.6 81.25 18.5 L79.25 17.1 76.75 16.85 78.5 11.75 79.85 1.5 79.0 -9.15 76.6 -15.4 Q77.9 -15.35 71.0 -23.0 L64.5 -26.0 56.25 -25.75 52.1 -23.75" fill="#868686" fill-rule="evenodd" stroke="none"/>
    <path d="M19.85 -54.15 L67.85 -64.4 67.35 -33.5 65.6 -34.15 32.6 -43.0 Q20.55 -43.4 20.25 -41.95 L19.85 -54.0 19.85 -54.15" fill="#8f3c10" fill-rule="evenodd" stroke="none"/>
    <path d="M76.75 16.85 L75.35 20.85 69.5 31.1 64.5 36.1 Q44.65 51.35 34.6 36.1 L30.85 28.1 29.5 17.1 31.1 5.35 35.0 -5.5 40.35 -14.15 48.1 -21.75 52.1 -23.75 56.25 -25.75 64.5 -26.0 71.0 -23.0 Q77.9 -15.35 76.6 -15.4 L79.0 -9.15 79.85 1.5 78.5 11.75 76.75 16.85 M37.0 49.25 L45.6 51.6 55.0 50.0 61.6 46.1 61.5 47.6 -21.25 79.1 -21.5 71.0 -21.15 70.75 37.0 49.25 M-89.25 7.5 L-88.25 10.35 -88.5 12.5 -89.75 13.1 -90.5 13.25 -91.4 12.75 -92.5 10.35 -92.5 7.6 -91.4 6.85 -90.15 6.75 -89.25 7.5" fill="#000000" fill-rule="evenodd" stroke="none"/>
    <path d="M41.85 -24.75 L37.5 -20.65 29.6 -8.25 25.1 4.5 23.25 18.25 24.75 32.25 29.5 42.5 36.35 48.85 4.35 35.75 -2.9 29.25 -7.75 19.0 -9.5 7.1 -8.0 -6.25 -3.15 -19.65 2.5 -28.25 Q1.4 -28.75 12.6 -38.25 L18.25 -40.75 51.25 -31.4 46.75 -29.25 45.5 -28.25 41.85 -24.75" fill="#676767" fill-rule="evenodd" stroke="none"/>
    <path d="M52.1 -23.75 L48.1 -21.75 40.35 -14.15 35.0 -5.5 31.1 5.35 29.5 17.1 30.85 28.1 34.6 36.1 Q44.65 51.35 64.5 36.1 L69.5 31.1 75.35 20.85 76.75 16.85 79.25 17.1 81.25 18.5 Q74.1 36.85 65.5 43.25 L64.25 44.5 61.6 46.1 55.0 50.0 45.6 51.6 37.0 49.25 36.35 48.85 29.5 42.5 24.75 32.25 23.25 18.25 25.1 4.5 29.6 -8.25 37.5 -20.65 41.85 -24.75 47.6 -25.4 52.1 -23.75" fill="#838383" fill-rule="evenodd" stroke="none"/>
    <path d="M20.25 -41.95 Q20.55 -43.4 32.6 -43.0 L65.6 -34.15 56.5 -33.75 51.25 -31.4 18.25 -40.75 18.75 -41.15 20.25 -41.75 20.25 -41.95" fill="#b7b7b7" fill-rule="evenodd" stroke="none"/>
    <path d="M-29.4 -43.5 L19.25 -54.0 19.85 -54.0 20.25 -41.95 20.25 -41.75 18.75 -41.15 18.25 -40.75 12.6 -38.25 Q1.4 -28.75 2.5 -28.25 L-3.15 -19.65 -8.0 -6.25 -9.5 7.1 -7.75 19.0 -2.9 29.25 4.35 35.75 36.35 48.85 37.0 49.25 -21.15 70.75 -21.5 71.0 -21.25 79.1 61.5 47.6 61.6 46.1 64.25 44.5 65.5 43.25 65.5 50.25 -26.4 85.75 -29.4 -43.5" fill="#84340c" fill-rule="evenodd" stroke="none"/>
    <path d="M-84.65 -11.5 L-72.9 -14.4 -70.25 -14.4 -82.9 -11.25 -84.65 -11.5 M-57.0 5.75 L-56.5 7.85 -56.65 10.35 Q-56.7 20.5 -63.0 22.1 L-68.55 23.7 -74.15 25.25 -73.15 24.6 -72.15 23.25 Q-68.6 17.9 -69.75 10.35 L-69.9 9.1 -57.0 5.75" fill="#767676" fill-rule="evenodd" stroke="none"/>
    <path d="M-105.5 -65.75 L-29.4 -43.5 -26.4 85.75 -75.5 60.1 -76.15 36.1 -76.25 35.25 -76.4 26.1 -76.25 26.0 -75.65 25.85 -68.55 23.7 -63.0 22.1 Q-56.7 20.5 -56.65 10.35 L-56.5 7.85 -57.0 5.75 -57.5 1.6 -58.9 -2.5 Q-64.2 -14.35 -70.25 -14.4 L-72.9 -14.4 -84.65 -11.5 Q-88.65 -11.75 -91.15 -2.5 L-91.25 3.35 -91.25 3.5 Q-94.1 3.05 -93.65 10.35 L-92.15 51.1 -92.25 51.1 -99.0 47.5 -105.5 -65.75" fill="#5d1d02" fill-rule="evenodd" stroke="none"/>
    <path d="M-91.25 3.35 L-91.15 -2.5 Q-88.65 -11.75 -84.65 -11.5 L-82.9 -11.25 Q-77.85 -10.9 -73.5 -2.5 L-72.15 0.1 Q-70.0 6.1 -69.9 9.1 L-69.75 10.35 Q-68.6 17.9 -72.15 23.25 L-73.15 24.6 -74.15 25.25 -75.65 25.85 -76.25 26.0 -76.5 26.0 -76.9 10.35 Q-77.65 1.2 -81.4 1.1 L-82.0 1.0 -91.25 3.35" fill="#636363" fill-rule="evenodd" stroke="none"/>
    <path d="M-70.25 -14.4 Q-64.2 -14.35 -58.9 -2.5 L-57.5 1.6 -57.0 5.75 -69.9 9.1 Q-70.0 6.1 -72.15 0.1 L-73.5 -2.5 Q-77.85 -10.9 -82.9 -11.25 L-70.25 -14.4 M-68.55 23.7 L-75.65 25.85 -74.15 25.25 -68.55 23.7 M-76.25 26.0 L-76.4 26.1 -76.5 26.0 -76.25 26.0" fill="#afafaf" fill-rule="evenodd" stroke="none"/>
    <path d="M-98.15 72.35 Q-101.1 73.45 -103.25 68.1 -105.2 61.4 -101.9 60.5 L-100.65 60.85 -99.65 61.85 -98.0 64.5 -97.25 67.75 -97.15 70.35 -98.15 72.35 M-91.9 57.1 L-92.15 51.25 -92.15 51.1 -93.65 10.35 Q-94.1 3.05 -91.25 3.5 L-90.75 3.6 Q-88.0 4.2 -86.75 10.35 L-85.75 38.0 -85.15 61.85 Q-87.85 54.7 -91.75 57.1 L-91.9 57.1 M-89.25 7.5 L-90.15 6.75 -91.4 6.85 -92.5 7.6 -92.5 10.35 -91.4 12.75 -90.5 13.25 -89.75 13.1 -88.5 12.5 -88.25 10.35 -89.25 7.5" fill="#7c0000" fill-rule="evenodd" stroke="none"/>
    <path d="M-75.5 60.1 Q-75.2 64.1 -76.65 65.1 L-98.15 72.35 -97.15 70.35 -97.25 67.75 -84.9 63.75 -85.15 61.85 -85.75 38.0 -76.25 35.25 -76.15 36.1 -75.5 60.1 M-91.9 57.25 L-91.9 57.1 -91.75 57.1 -91.9 57.25 M-81.4 1.1 L-90.75 3.6 -91.25 3.5 -91.25 3.35 -82.0 1.0 -81.4 1.1" fill="#940000" fill-rule="evenodd" stroke="none"/>
    <path d="M-101.9 60.5 L-91.9 57.25 -91.75 57.1 Q-87.85 54.7 -85.15 61.85 L-84.9 63.75 -97.25 67.75 -98.0 64.5 -99.65 61.85 -100.65 60.85 -101.9 60.5 M-76.4 26.1 L-76.25 35.25 -85.75 38.0 -86.75 10.35 Q-88.0 4.2 -90.75 3.6 L-81.4 1.1 Q-77.65 1.2 -76.9 10.35 L-76.5 26.0 -76.4 26.1" fill="#dd0000" fill-rule="evenodd" stroke="none"/>
    <path d="M-92.15 51.25 L-92.25 51.1 -92.15 51.1 -92.15 51.25" fill="#970000" fill-rule="evenodd" stroke="none"/>
  </g>
</svg>
