<?xml version="1.0" encoding="UTF-8" standalone="no"?>
<svg xmlns:xlink="http://www.w3.org/1999/xlink" height="83.05px" width="65.6px" xmlns="http://www.w3.org/2000/svg">
  <g transform="matrix(1.0, 0.0, 0.0, 1.0, 53.1, 142.4)">
    <path d="M-39.05 -82.35 L-39.05 -82.5 -42.7 -85.5 -46.15 -89.45 -48.25 -92.75 -48.35 -92.85 -48.5 -93.65 -49.65 -95.1 Q-56.4 -107.1 -49.9 -123.7 -42.0 -139.45 -24.35 -142.1 L-23.15 -142.1 -23.1 -142.25 Q-1.75 -144.0 9.95 -121.9 13.15 -114.25 12.3 -108.35 L12.3 -107.55 12.15 -106.5 12.15 -105.6 12.05 -104.8 12.05 -104.15 11.75 -103.1 11.6 -103.0 11.1 -100.35 11.0 -100.2 11.0 -99.85 10.85 -99.55 8.75 -93.55 5.85 -88.8 Q1.55 -83.65 -0.2 -82.75 L-0.7 -82.35 -2.95 -81.3 -5.05 -80.95 Q-26.5 -77.45 -38.8 -82.25 L-39.05 -82.35 M-41.5 -122.15 L-41.75 -119.9 Q-41.9 -117.3 -39.65 -115.75 L-39.5 -114.65 Q-38.2 -111.65 -35.0 -112.75 -34.25 -113.3 -33.85 -114.15 -31.35 -119.8 -27.4 -124.65 L-27.6 -125.35 Q-28.3 -127.35 -30.4 -127.65 L-30.45 -127.75 Q-31.85 -129.4 -34.0 -129.15 L-34.05 -129.05 -35.25 -128.85 -35.5 -128.75 -36.25 -128.1 Q-39.15 -125.35 -41.5 -122.15" fill="#e1ad1b" fill-rule="evenodd" stroke="none"/>
    <path d="M-39.05 -82.35 L-38.8 -82.25 Q-26.5 -77.45 -5.05 -80.95 L-4.75 -60.85 Q-38.55 -56.35 -38.65 -65.2 L-39.05 -82.35 M-0.7 -82.35 L-0.2 -82.75 -0.3 -79.45 -0.7 -82.35" fill="#6d6d6d" fill-rule="evenodd" stroke="none"/>
    <path d="M-5.05 -80.95 L-2.95 -81.3 -0.7 -82.35 -0.3 -79.45 -0.2 -65.2 -0.45 -62.55 Q-3.05 -60.8 -4.75 -60.85 L-5.05 -80.95" fill="#cbcbcb" fill-rule="evenodd" stroke="none"/>
    <path d="M-41.5 -122.15 Q-39.15 -125.35 -36.25 -128.1 L-35.5 -128.75 -35.25 -128.85 -34.05 -129.05 -34.0 -129.15 Q-31.85 -129.4 -30.45 -127.75 L-30.4 -127.65 Q-28.3 -127.35 -27.6 -125.35 L-27.4 -124.65 Q-31.35 -119.8 -33.85 -114.15 -34.25 -113.3 -35.0 -112.75 -38.2 -111.65 -39.5 -114.65 L-39.65 -115.75 Q-41.9 -117.3 -41.75 -119.9 L-41.5 -122.15" fill="#ffff00" fill-rule="evenodd" stroke="none"/>
  </g>
</svg>
