<?xml version="1.0" encoding="UTF-8" standalone="no"?>
<svg xmlns:xlink="http://www.w3.org/1999/xlink" height="165.75px" width="193.25px" xmlns="http://www.w3.org/2000/svg">
  <g transform="matrix(1.0, 0.0, 0.0, 1.0, 106.5, 80.0)">
    <path d="M22.35 -54.65 L22.1 -72.75 26.0 -73.5 67.6 -65.25 22.35 -54.65" fill="#a54916" fill-rule="evenodd" stroke="none"/>
    <path d="M55.75 -32.5 L60.6 -34.9 69.35 -35.25 77.1 -31.65 82.85 -24.4 86.35 -13.65 Q88.65 13.85 78.25 28.35 L77.0 26.25 75.0 24.85 77.75 19.75 80.75 10.35 82.25 0.0 81.35 -10.9 79.75 -15.4 Q80.6 -16.9 74.0 -24.4 L67.6 -27.4 Q60.1 -28.5 53.1 -23.15 L45.6 -15.4 43.0 -11.0 40.75 -12.4 40.75 -12.75 Q44.05 -19.75 47.6 -22.25 L46.75 -25.65 51.1 -30.15 55.75 -32.5" fill="#8c8c8c" fill-rule="evenodd" stroke="none"/>
    <path d="M40.35 47.35 L41.5 47.6 49.5 50.1 53.0 49.6 -16.75 79.1 -16.9 70.85 -16.5 70.6 40.35 47.35 M43.0 -11.0 L45.6 -15.4 53.1 -23.15 Q60.1 -28.5 67.6 -27.4 L74.0 -24.4 Q80.6 -16.9 79.75 -15.4 L81.35 -10.9 82.25 0.0 80.75 10.35 77.75 19.75 75.0 24.85 72.5 29.35 66.35 36.1 Q49.55 48.6 41.0 36.1 L39.75 34.85 36.35 27.0 35.1 16.25 36.5 4.85 40.25 -6.25 43.0 -11.0 M-89.75 8.5 L-88.15 7.75 -86.75 8.25 -85.65 10.35 -85.4 12.75 -85.75 13.75 -86.9 14.25 -88.15 14.25 -89.25 13.25 -90.15 10.35 -89.75 8.5" fill="#000000" fill-rule="evenodd" stroke="none"/>
    <path d="M20.75 -41.25 L22.5 -42.25 22.5 -42.5 Q23.0 -43.75 34.1 -43.75 L67.1 -35.9 69.35 -35.25 60.6 -34.9 55.75 -32.5 20.75 -41.25" fill="#b7b7b7" fill-rule="evenodd" stroke="none"/>
    <path d="M20.75 -41.25 L55.75 -32.5 51.1 -30.15 46.75 -25.65 42.5 -21.4 35.5 -9.65 30.75 4.6 29.25 17.5 30.6 31.0 34.85 41.0 41.5 47.6 40.35 47.35 10.25 36.1 Q9.65 37.9 0.85 29.0 L-3.75 19.0 -5.4 5.85 -3.75 -7.25 0.6 -20.0 5.75 -28.25 Q3.75 -27.9 15.75 -39.0 L20.25 -41.15 20.75 -41.25" fill="#676767" fill-rule="evenodd" stroke="none"/>
    <path d="M41.5 47.6 L34.85 41.0 30.6 31.0 29.25 17.5 30.75 4.6 35.5 -9.65 42.5 -21.4 46.75 -25.65 47.6 -22.25 Q44.05 -19.75 40.75 -12.75 L40.75 -12.4 43.0 -11.0 40.25 -6.25 36.5 4.85 35.1 16.25 36.35 27.0 39.75 34.85 41.0 36.1 Q49.55 48.6 66.35 36.1 L72.5 29.35 75.0 24.85 77.0 26.25 78.25 28.35 75.25 34.1 Q66.0 45.25 65.25 44.35 L59.0 48.35 53.0 49.6 49.5 50.1 41.5 47.6" fill="#888888" fill-rule="evenodd" stroke="none"/>
    <path d="M22.35 -54.65 L67.6 -65.25 67.1 -35.9 34.1 -43.75 Q23.0 -43.75 22.5 -42.5 L22.35 -54.5 22.35 -54.65" fill="#953f12" fill-rule="evenodd" stroke="none"/>
    <path d="M-24.25 -43.5 L22.35 -54.5 22.5 -42.5 22.5 -42.25 20.75 -41.25 20.25 -41.15 15.75 -39.0 Q3.75 -27.9 5.75 -28.25 L0.6 -20.0 -3.75 -7.25 -5.4 5.85 -3.75 19.0 0.85 29.0 Q9.65 37.9 10.25 36.1 L40.35 47.35 -16.5 70.6 -16.9 70.85 -16.75 79.1 53.0 49.6 59.0 48.35 65.25 44.35 65.25 48.6 -21.75 85.75 -24.25 -43.5" fill="#89380e" fill-rule="evenodd" stroke="none"/>
    <path d="M-38.0 -80.0 L-38.0 -77.5 -38.05 -80.0 -38.0 -80.0" fill="#6f6f6f" fill-rule="evenodd" stroke="none"/>
    <path d="M26.0 -73.5 L22.1 -72.75 22.35 -54.65 22.35 -54.5 -24.25 -43.5 -106.5 -64.9 -38.0 -77.5 -38.0 -66.0 -37.85 -66.0 Q-38.3 -62.25 -28.65 -61.5 -13.75 -60.35 -4.9 -62.9 -2.95 -63.1 -1.25 -64.5 L-1.25 -66.0 -0.75 -66.0 -0.75 -78.75 26.0 -73.5" fill="#974012" fill-rule="evenodd" stroke="none"/>
    <path d="M-106.5 -64.9 L-24.25 -43.5 -21.75 85.75 -76.15 60.35 -74.9 26.85 -73.4 27.0 -72.5 26.6 -61.9 23.25 Q-53.4 20.4 -53.9 11.85 L-53.65 9.0 -54.5 3.0 -56.4 -2.5 Q-62.75 -14.45 -68.65 -13.65 L-70.75 -13.75 -82.5 -10.5 -86.0 -8.9 Q-88.15 -7.1 -89.25 -2.5 L-89.65 -0.65 -89.65 4.75 -91.0 6.6 -91.4 10.35 -92.5 52.6 -99.9 49.25 -106.5 -64.9" fill="#5d1d02" fill-rule="evenodd" stroke="none"/>
    <path d="M-66.4 15.6 L-66.15 12.75 -66.5 10.35 Q-66.35 7.7 -68.9 1.1 L-70.9 -2.5 Q-76.1 -10.35 -80.5 -10.4 L-68.65 -13.65 Q-62.75 -14.45 -56.4 -2.5 L-54.5 3.0 -53.65 9.0 -53.9 11.85 -66.4 15.6" fill="#b1b1b1" fill-rule="evenodd" stroke="none"/>
    <path d="M-72.5 26.6 L-70.4 25.75 -68.4 23.25 -66.5 18.35 -66.4 15.6 -53.9 11.85 Q-53.4 20.4 -61.9 23.25 L-72.5 26.6 M-80.5 -10.4 L-82.5 -10.5 -70.75 -13.75 -68.65 -13.65 -80.5 -10.4" fill="#767676" fill-rule="evenodd" stroke="none"/>
    <path d="M-76.15 60.35 Q-75.75 62.9 -77.9 64.75 L-98.4 72.1 -97.15 70.35 -97.0 67.85 -85.25 63.75 -85.25 62.0 -85.15 61.85 -83.65 12.1 -74.4 9.5 -74.25 10.35 -74.9 26.85 -76.15 60.35 M-102.4 60.25 L-92.5 56.6 -90.75 56.25 -101.9 60.25 -102.4 60.25" fill="#930000" fill-rule="evenodd" stroke="none"/>
    <path d="M-89.65 4.75 L-89.65 -0.65 -89.25 -2.5 Q-88.15 -7.1 -86.0 -8.9 L-82.5 -10.5 -80.5 -10.4 Q-76.1 -10.35 -70.9 -2.5 L-68.9 1.1 Q-66.35 7.7 -66.5 10.35 L-66.15 12.75 -66.4 15.6 -66.5 18.35 -68.4 23.25 -70.4 25.75 -72.5 26.6 -73.4 27.0 -74.9 26.85 -74.25 10.35 -74.4 9.5 Q-74.75 4.1 -78.15 2.25 L-79.65 2.0 -88.65 4.6 -89.65 4.75" fill="#636363" fill-rule="evenodd" stroke="none"/>
    <path d="M-98.4 72.1 Q-101.7 72.9 -103.75 67.5 -105.45 61.1 -102.4 60.25 L-101.9 60.25 -100.5 60.75 -99.4 61.85 -97.75 64.6 -97.0 67.85 -97.15 70.35 -98.4 72.1 M-92.5 56.6 L-92.5 52.6 -91.4 10.35 -91.0 6.6 -89.65 4.75 -88.65 4.6 Q-87.2 4.3 -85.5 6.75 L-83.9 10.35 -83.65 12.1 -85.15 61.85 -85.25 62.0 -85.4 61.85 -87.25 57.85 Q-88.25 56.15 -90.75 56.25 L-92.5 56.6 M-89.75 8.5 L-90.15 10.35 -89.25 13.25 -88.15 14.25 -86.9 14.25 -85.75 13.75 -85.4 12.75 -85.65 10.35 -86.75 8.25 -88.15 7.75 -89.75 8.5" fill="#7c0000" fill-rule="evenodd" stroke="none"/>
    <path d="M-88.65 4.6 L-79.65 2.0 -78.15 2.25 Q-74.75 4.1 -74.4 9.5 L-83.65 12.1 -83.9 10.35 -85.5 6.75 Q-87.2 4.3 -88.65 4.6 M-90.75 56.25 Q-88.25 56.15 -87.25 57.85 L-85.4 61.85 -85.25 62.0 -85.25 63.75 -97.0 67.85 -97.75 64.6 -99.4 61.85 -100.5 60.75 -101.9 60.25 -90.75 56.25" fill="#e10000" fill-rule="evenodd" stroke="none"/>
  </g>
</svg>
