<?xml version="1.0" encoding="UTF-8" standalone="no"?>
<svg xmlns:xlink="http://www.w3.org/1999/xlink" height="186.85px" width="137.4px" xmlns="http://www.w3.org/2000/svg">
  <g transform="matrix(1.0, 0.0, 0.0, 1.0, -9.2, 87.9)">
    <path d="M19.0 -37.3 L19.1 -37.3 20.0 -41.15 28.25 -58.55 40.0 -72.55 55.1 -82.55 72.35 -87.8 90.1 -87.9 107.25 -82.55 122.25 -72.55 133.85 -59.05 142.6 -41.15 146.6 -22.4 146.35 -2.05 141.85 16.6 132.5 35.2 120.35 48.7 114.0 52.6 111.35 54.1 Q110.4 48.9 85.25 50.45 L78.1 50.95 Q73.0 52.4 66.35 56.1 L60.75 59.35 57.75 58.1 46.6 51.45 46.5 51.45 46.5 51.35 Q26.55 38.75 19.85 12.95 L19.75 12.85 19.75 12.7 19.6 12.6 19.6 11.85 18.25 6.35 18.1 6.35 18.0 4.6 17.75 4.1 17.0 1.1 17.85 -2.65 17.6 -5.9 18.5 -8.3 18.85 -9.9 18.6 -13.55 19.25 -17.3 19.0 -25.4 18.0 -27.8 19.75 -36.55 19.0 -36.55 19.1 -37.15 19.0 -37.3 M17.1 -27.55 L17.1 -27.65 17.25 -27.55 17.1 -27.55" fill="#b19771" fill-rule="evenodd" stroke="none"/>
    <path d="M46.5 51.45 L46.6 51.45 57.75 58.1 60.75 59.35 66.35 56.1 Q73.0 52.4 78.1 50.95 L85.25 50.45 Q110.4 48.9 111.35 54.1 L114.0 52.6 114.25 54.95 113.25 56.6 115.85 61.2 Q117.6 65.3 117.35 66.95 L116.75 68.2 113.5 70.85 Q70.05 92.5 38.85 98.95 L34.75 98.85 33.5 98.6 32.0 97.35 31.5 94.7 33.5 86.2 Q32.75 86.0 40.5 75.6 L50.75 66.35 47.6 66.2 43.35 65.35 42.5 64.7 42.0 63.6 Q41.5 55.15 46.5 51.45" fill="#573f70" fill-rule="evenodd" stroke="none"/>
    <path d="M12.0 -17.9 L12.75 -26.15 12.85 -26.3 14.0 -29.65 15.0 -30.55 15.85 -28.8 17.1 -27.65 17.1 -27.55 12.0 -17.9" fill="#ff488c" fill-rule="evenodd" stroke="none"/>
    <path d="M19.0 -37.3 L19.1 -37.15 19.0 -36.55 19.75 -36.55 18.0 -27.8 17.25 -27.55 17.1 -27.65 15.85 -28.8 15.0 -30.55 Q14.4 -36.05 18.1 -36.55 L19.0 -37.3" fill="#000000" fill-rule="evenodd" stroke="none"/>
    <path d="M18.0 -27.8 L19.0 -25.4 19.25 -17.3 18.6 -13.55 18.85 -9.9 18.5 -8.3 17.6 -5.9 17.85 -2.65 17.0 1.1 17.75 4.1 18.0 4.6 18.1 6.35 18.25 6.35 19.6 11.85 19.6 12.6 Q17.9 28.75 15.5 18.7 L15.35 18.7 Q9.05 42.5 9.5 26.1 L9.5 22.2 10.6 14.95 9.85 14.45 9.75 12.45 11.5 3.1 Q7.8 5.2 10.85 -5.65 L10.85 -5.8 Q7.05 -8.5 12.0 -17.9 L17.1 -27.55 17.25 -27.55 18.0 -27.8" fill="#5f3f2a" fill-rule="evenodd" stroke="none"/>
  </g>
</svg>
