<?xml version="1.0" encoding="UTF-8" standalone="no"?>
<svg xmlns:xlink="http://www.w3.org/1999/xlink" height="163.8px" width="197.05px" xmlns="http://www.w3.org/2000/svg">
  <g transform="matrix(1.0, 0.0, 0.0, 1.0, 107.5, 78.2)">
    <path d="M66.5 -67.0 L66.75 -65.9 66.1 -39.25 37.1 -45.0 Q26.5 -44.9 26.5 -43.25 L26.25 -55.4 26.25 -55.5 66.5 -67.0" fill="#9f4614" fill-rule="evenodd" stroke="none"/>
    <path d="M26.5 -43.25 Q26.5 -44.9 37.1 -45.0 L66.1 -39.25 74.5 -37.5 66.85 -36.9 62.85 -34.5 25.1 -42.25 26.5 -43.25 M-60.15 16.85 L-59.9 13.85 -60.5 10.35 Q-59.7 9.85 -63.15 1.85 L-66.0 -2.5 -70.25 -6.75 Q-74.55 -8.95 -75.85 -9.05 L-64.9 -12.4 Q-58.65 -13.35 -51.9 -2.5 L-49.25 3.85 -48.4 10.35 -48.75 12.85 -60.15 16.85" fill="#b7b7b7" fill-rule="evenodd" stroke="none"/>
    <path d="M74.5 -37.5 L81.25 -34.15 86.35 -26.75 89.25 -16.75 Q91.05 10.75 82.1 25.25 L80.85 23.1 Q83.35 19.0 84.85 12.35 L83.0 12.0 84.5 6.6 85.5 -2.5 85.1 -12.9 82.35 -21.65 Q78.1 -28.85 75.85 -28.25 L73.25 -29.65 Q64.6 -29.1 65.5 -28.25 L60.6 -25.15 57.1 -21.4 55.6 -24.15 55.35 -26.4 54.85 -27.4 58.85 -32.15 62.85 -34.5 66.85 -36.9 74.5 -37.5" fill="#979797" fill-rule="evenodd" stroke="none"/>
    <path d="M57.1 -21.4 L60.6 -25.15 65.5 -28.25 Q64.6 -29.1 73.25 -29.65 L75.85 -28.25 Q78.1 -28.85 82.35 -21.65 L85.1 -12.9 85.5 -2.5 84.5 6.6 83.0 12.0 81.75 16.35 78.5 23.25 Q78.65 24.75 72.1 32.75 L67.85 36.1 Q57.4 43.1 51.75 36.1 L48.5 32.6 45.6 24.6 44.6 14.5 45.85 2.85 49.1 -7.9 54.1 -17.75 57.1 -21.4 M50.0 45.25 L54.5 46.75 -8.75 78.75 -8.75 70.35 45.0 43.85 50.0 45.25 M-79.9 15.0 L-80.25 15.6 -81.15 16.0 Q-86.25 15.55 -84.4 10.35 L-83.4 9.85 -81.9 9.75 -81.0 10.35 -79.75 12.75 -79.9 15.0" fill="#000000" fill-rule="evenodd" stroke="none"/>
    <path d="M26.25 -55.5 L26.25 -55.4 -15.25 -43.65 -107.5 -63.15 -38.0 -78.2 -38.0 -66.0 -37.6 -66.0 -37.55 -65.7 Q-37.25 -62.0 -28.4 -61.5 -13.2 -60.25 -4.75 -63.0 -1.15 -64.1 -1.0 -64.9 L-1.0 -66.0 -0.75 -66.0 -0.75 -78.05 22.1 -74.4 18.6 -73.5 18.6 -73.15 26.25 -55.5" fill="#974012" fill-rule="evenodd" stroke="none"/>
    <path d="M26.25 -55.4 L26.5 -43.25 25.1 -42.25 22.85 -41.15 Q23.25 -43.35 13.6 -32.25 L6.75 -20.0 3.1 -7.9 1.6 5.5 3.1 18.6 5.1 23.25 Q5.1 27.3 13.1 34.1 L45.0 43.85 -8.75 70.35 -8.75 78.75 54.5 46.75 57.6 47.5 64.1 45.75 -13.15 85.6 -15.25 -43.65 26.25 -55.4" fill="#913d10" fill-rule="evenodd" stroke="none"/>
    <path d="M45.0 43.85 L13.1 34.1 Q5.1 27.3 5.1 23.25 L3.1 18.6 1.6 5.5 3.1 -7.9 6.75 -20.0 13.6 -32.25 Q23.25 -43.35 22.85 -41.15 L25.1 -42.25 62.85 -34.5 58.85 -32.15 54.85 -27.4 51.35 -23.4 44.85 -10.75 40.85 2.6 39.35 16.5 40.6 29.35 44.35 39.25 50.0 45.25 45.0 43.85" fill="#676767" fill-rule="evenodd" stroke="none"/>
    <path d="M82.1 25.25 Q73.6 42.25 64.1 45.75 L57.6 47.5 54.5 46.75 50.0 45.25 44.35 39.25 40.6 29.35 39.35 16.5 40.85 2.6 44.85 -10.75 51.35 -23.4 54.85 -27.4 55.35 -26.4 55.6 -24.15 57.1 -21.4 54.1 -17.75 49.1 -7.9 45.85 2.85 44.6 14.5 45.6 24.6 48.5 32.6 51.75 36.1 Q57.4 43.1 67.85 36.1 L72.1 32.75 Q78.65 24.75 78.5 23.25 L81.75 16.35 83.0 12.0 84.85 12.35 Q83.35 19.0 80.85 23.1 L82.1 25.25" fill="#929292" fill-rule="evenodd" stroke="none"/>
    <path d="M66.5 -67.0 L26.25 -55.5 18.6 -73.15 18.6 -73.5 22.1 -74.4 66.5 -67.0" fill="#a54916" fill-rule="evenodd" stroke="none"/>
    <path d="M-64.9 27.25 L-62.0 24.1 -60.4 19.6 -60.15 16.85 -48.75 12.85 Q-50.25 22.4 -54.25 23.25 L-64.9 27.25 M-75.85 -9.05 L-76.4 -8.9 -78.4 -9.0 -67.15 -12.5 -64.9 -12.4 -75.85 -9.05" fill="#7a7a7a" fill-rule="evenodd" stroke="none"/>
    <path d="M-13.15 85.6 L-77.0 61.35 -71.65 28.35 -68.25 28.6 -64.9 27.25 -54.25 23.25 Q-50.25 22.4 -48.75 12.85 L-48.4 10.35 -49.25 3.85 -51.9 -2.5 Q-58.65 -13.35 -64.9 -12.4 L-67.15 -12.5 -78.4 -9.0 -82.0 -7.4 Q-85.9 -3.35 -85.25 -2.5 -87.1 0.5 -86.15 8.5 L-93.0 55.1 -100.75 52.25 -100.9 51.6 -107.5 -63.15 -15.25 -43.65 -13.15 85.6" fill="#5d1d02" fill-rule="evenodd" stroke="none"/>
    <path d="M-86.15 8.5 Q-87.1 0.5 -85.25 -2.5 -85.9 -3.35 -82.0 -7.4 L-78.4 -9.0 -76.4 -8.9 -75.85 -9.05 Q-74.55 -8.95 -70.25 -6.75 L-66.0 -2.5 -63.15 1.85 Q-59.7 9.85 -60.5 10.35 L-59.9 13.85 -60.15 16.85 -60.4 19.6 -62.0 24.1 -64.9 27.25 -68.25 28.6 -71.65 28.35 -69.15 11.75 -69.15 10.35 Q-69.35 5.45 -74.75 3.6 L-83.75 6.5 -85.0 7.0 -86.15 8.5" fill="#636363" fill-rule="evenodd" stroke="none"/>
    <path d="M-74.75 3.6 Q-69.35 5.45 -69.15 10.35 L-69.15 11.75 -77.75 14.6 -78.15 11.5 -78.65 10.35 Q-79.45 8.4 -81.0 7.25 L-83.0 6.5 -74.75 3.6 M-85.0 62.0 L-85.15 62.5 -85.15 63.35 -96.25 68.0 -96.9 64.35 -98.25 61.85 -99.65 60.5 -101.4 59.75 -90.65 55.35 Q-86.85 55.35 -85.25 61.85 L-85.0 62.0" fill="#e70000" fill-rule="evenodd" stroke="none"/>
    <path d="M-97.4 71.25 Q-100.1 73.35 -103.5 68.0 -106.2 61.35 -102.15 59.75 L-101.4 59.75 -99.65 60.5 -98.25 61.85 -96.9 64.35 -96.25 68.0 -96.25 69.1 -96.65 70.35 -97.4 71.25 M-93.15 56.0 L-93.0 55.1 -86.15 8.5 -85.0 7.0 -83.75 6.5 -83.0 6.5 -81.0 7.25 Q-79.45 8.4 -78.65 10.35 L-78.15 11.5 -77.75 14.6 -84.9 61.85 -85.0 62.0 -85.25 61.85 Q-86.85 55.35 -90.65 55.35 L-91.25 55.25 -93.15 56.0 M-79.9 15.0 L-79.75 12.75 -81.0 10.35 -81.9 9.75 -83.4 9.85 -84.4 10.35 Q-86.25 15.55 -81.15 16.0 L-80.25 15.6 -79.9 15.0" fill="#7c0000" fill-rule="evenodd" stroke="none"/>
    <path d="M-77.0 61.35 L-77.25 62.1 -78.5 63.35 -97.4 71.25 -96.65 70.35 -96.25 69.1 -96.25 68.0 -85.15 63.35 -85.15 62.5 -85.0 62.0 -84.9 61.85 -77.75 14.6 -69.15 11.75 -71.65 28.35 -77.0 61.35 M-102.15 59.75 L-93.15 56.0 -91.25 55.25 -90.65 55.35 -101.4 59.75 -102.15 59.75 M-83.75 6.5 L-74.75 3.6 -83.0 6.5 -83.75 6.5" fill="#9f0000" fill-rule="evenodd" stroke="none"/>
  </g>
</svg>
