<?xml version="1.0" encoding="UTF-8" standalone="no"?>
<svg xmlns:xlink="http://www.w3.org/1999/xlink" height="164.6px" width="199.75px" xmlns="http://www.w3.org/2000/svg">
  <g transform="matrix(1.0, 0.0, 0.0, 1.0, 107.9, 80.0)">
    <path d="M63.85 -69.4 L64.1 -68.65 63.5 -43.5 41.0 -46.9 33.85 -46.25 31.6 -44.75 31.5 -56.9 31.6 -57.0 63.85 -69.4" fill="#ad4e18" fill-rule="evenodd" stroke="none"/>
    <path d="M80.6 -41.0 L86.1 -37.4 Q90.3 -32.45 91.75 -21.25 92.65 6.55 85.85 20.1 L84.75 17.75 83.75 17.1 85.6 12.35 88.0 1.75 88.85 -7.0 88.6 -15.4 Q89.3 -15.2 86.75 -25.25 L83.75 -30.65 79.75 -33.15 74.6 -32.4 69.75 -28.25 65.1 -21.25 63.0 -16.15 61.6 -17.25 60.25 -20.0 62.85 -26.4 68.5 -35.0 71.6 -37.65 74.75 -40.15 80.6 -41.0" fill="#a6a6a6" fill-rule="evenodd" stroke="none"/>
    <path d="M31.6 -44.75 L33.85 -46.25 41.0 -46.9 63.5 -43.5 80.6 -41.0 74.75 -40.15 71.6 -37.65 30.75 -43.9 31.6 -44.75 M65.75 42.85 L61.25 41.85 57.0 40.85 48.75 39.1 28.25 34.5 24.75 33.35 63.25 42.0 65.75 42.85" fill="#bebebe" fill-rule="evenodd" stroke="none"/>
    <path d="M63.0 -16.15 L65.1 -21.25 69.75 -28.25 74.6 -32.4 79.75 -33.15 83.75 -30.65 86.75 -25.25 Q89.3 -15.2 88.6 -15.4 L88.85 -7.0 88.0 1.75 85.6 12.35 83.75 17.1 82.25 21.25 81.0 23.25 Q66.1 47.5 58.75 23.25 L58.0 21.0 57.5 10.35 58.35 0.35 61.25 -11.75 63.0 -16.15 M48.75 39.1 L57.0 40.85 3.1 77.5 3.25 69.25 48.75 39.1 M-74.15 12.35 L-72.75 12.1 -71.75 12.6 -70.25 14.85 -70.4 17.6 -72.0 18.75 -73.4 18.75 -74.15 18.35 -75.65 16.6 Q-76.65 12.5 -74.15 12.35" fill="#000000" fill-rule="evenodd" stroke="none"/>
    <path d="M24.75 33.35 Q20.85 34.9 15.0 23.25 L12.85 17.1 11.75 3.35 12.75 -8.5 16.25 -22.15 21.0 -33.0 27.0 -41.15 30.75 -43.9 71.6 -37.65 68.5 -35.0 62.85 -26.4 60.25 -20.0 58.35 -15.4 54.5 0.1 53.35 14.75 54.1 25.85 56.75 34.85 57.5 36.1 61.1 41.1 63.25 42.0 24.75 33.35" fill="#686868" fill-rule="evenodd" stroke="none"/>
    <path d="M31.6 -57.0 L31.5 -56.9 -1.9 -44.25 -107.9 -60.65 -38.15 -79.75 -38.0 -74.9 -38.0 -66.0 -37.6 -66.0 Q-37.1 -64.25 -35.05 -63.15 -31.15 -61.05 -21.55 -61.3 L-17.3 -61.5 -6.15 -62.65 Q-4.2 -62.6 -1.5 -64.25 L-1.25 -65.15 -1.1 -66.0 -0.75 -66.0 -0.75 -77.35 15.75 -75.4 12.75 -74.25 31.6 -57.0" fill="#974012" fill-rule="evenodd" stroke="none"/>
    <path d="M31.5 -56.9 L31.6 -44.75 30.75 -43.9 27.0 -41.15 21.0 -33.0 16.25 -22.15 12.75 -8.5 11.75 3.35 12.85 17.1 15.0 23.25 Q20.85 34.9 24.75 33.35 L28.25 34.5 48.75 39.1 3.25 69.25 3.1 77.5 57.0 40.85 61.25 41.85 -0.65 84.6 -1.9 -44.25 31.5 -56.9" fill="#9c4313" fill-rule="evenodd" stroke="none"/>
    <path d="M85.85 20.1 L83.85 26.0 78.85 34.6 72.85 40.85 67.1 43.1 66.1 43.0 66.0 42.85 65.75 42.85 63.25 42.0 61.1 41.1 57.5 36.1 56.75 34.85 54.1 25.85 53.35 14.75 54.5 0.1 58.35 -15.4 60.25 -20.0 61.6 -17.25 63.0 -16.15 61.25 -11.75 58.35 0.35 57.5 10.35 58.0 21.0 58.75 23.25 Q66.1 47.5 81.0 23.25 L82.25 21.25 83.75 17.1 84.75 17.75 85.85 20.1" fill="#a0a0a0" fill-rule="evenodd" stroke="none"/>
    <path d="M63.85 -69.4 L31.6 -57.0 12.75 -74.25 15.75 -75.4 63.85 -69.4" fill="#a54916" fill-rule="evenodd" stroke="none"/>
    <path d="M-38.15 -79.75 L-38.15 -80.0 -38.0 -80.0 -38.0 -74.9 -38.15 -79.75 M-1.25 -65.15 L-1.25 -66.0 -1.1 -66.0 -1.25 -65.15" fill="#6c6c6c" fill-rule="evenodd" stroke="none"/>
    <path d="M-0.65 84.6 L-80.15 62.5 -77.65 60.85 -77.0 59.85 -66.0 30.05 Q-66.05 30.6 -59.75 30.75 L-55.5 29.0 -46.0 24.5 -42.4 20.75 Q-39.65 15.9 -40.4 13.85 L-40.0 10.35 -41.25 4.0 Q-43.6 -2.05 -44.65 -2.5 -50.7 -11.1 -58.5 -10.9 L-61.0 -10.9 -70.9 -6.75 -74.75 -5.25 -77.5 -2.5 Q-81.6 2.55 -80.4 10.35 L-79.75 14.1 -79.15 15.5 -79.15 15.6 -92.9 54.85 -98.0 57.5 -101.0 56.5 -107.9 -60.65 -1.9 -44.25 -0.65 84.6" fill="#5d1d02" fill-rule="evenodd" stroke="none"/>
    <path d="M-68.0 -6.9 Q-63.35 -9.1 -58.5 -10.9 -50.7 -11.1 -44.65 -2.5 -43.6 -2.05 -41.25 4.0 L-40.0 10.35 -40.4 13.85 -50.0 18.25 -49.75 15.0 -50.5 10.35 -53.25 3.5 Q-57.7 -3.05 -58.4 -2.5 L-61.25 -4.9 Q-66.45 -7.35 -68.0 -6.9" fill="#bfbfbf" fill-rule="evenodd" stroke="none"/>
    <path d="M-70.9 -6.75 L-68.4 -6.75 -68.0 -6.9 Q-66.45 -7.35 -61.25 -4.9 L-58.4 -2.5 Q-57.7 -3.05 -53.25 3.5 L-50.5 10.35 -49.75 15.0 -50.0 18.25 -50.25 21.1 -52.15 25.5 -55.5 29.0 -59.75 30.75 Q-66.05 30.6 -66.0 30.05 L-66.0 30.0 -60.4 14.6 -60.4 11.5 -60.75 10.35 Q-61.5 8.35 -63.25 6.85 L-65.9 5.75 -68.25 6.0 -75.15 9.1 -76.9 10.35 -79.0 15.5 -79.15 15.5 -79.75 14.1 -80.4 10.35 Q-81.6 2.55 -77.5 -2.5 L-74.75 -5.25 -70.9 -6.75" fill="#636363" fill-rule="evenodd" stroke="none"/>
    <path d="M-70.9 -6.75 L-61.0 -10.9 -58.5 -10.9 Q-63.35 -9.1 -68.0 -6.9 L-68.4 -6.75 -70.9 -6.75 M-40.4 13.85 Q-39.65 15.9 -42.4 20.75 L-46.0 24.5 -55.5 29.0 -52.15 25.5 -50.25 21.1 -50.0 18.25 -40.4 13.85" fill="#808080" fill-rule="evenodd" stroke="none"/>
    <path d="M-95.4 70.5 Q-99.45 72.45 -102.75 66.5 -104.7 60.65 -100.9 59.1 L-99.0 59.1 -97.75 59.6 -95.4 61.85 -94.15 64.35 -93.75 66.0 -93.9 67.85 -94.0 68.85 -95.4 70.5 M-79.0 15.5 L-76.9 10.35 -75.15 9.1 -73.15 9.0 -70.5 10.35 -68.5 13.0 Q-67.35 15.8 -67.9 17.85 L-83.9 61.75 Q-85.1 54.7 -89.5 54.25 L-90.15 54.0 -91.5 54.25 -92.9 54.85 -79.15 15.6 -79.0 15.5 M-74.15 12.35 Q-76.65 12.5 -75.65 16.6 L-74.15 18.35 -73.4 18.75 -72.0 18.75 -70.4 17.6 -70.25 14.85 -71.75 12.6 -72.75 12.1 -74.15 12.35" fill="#7c0000" fill-rule="evenodd" stroke="none"/>
    <path d="M-65.9 5.75 L-63.25 6.85 Q-61.5 8.35 -60.75 10.35 L-60.4 11.5 -60.4 14.6 -67.9 17.85 Q-67.35 15.8 -68.5 13.0 L-70.5 10.35 -73.15 9.0 -65.9 5.75 M-89.5 54.25 Q-85.1 54.7 -83.9 61.75 L-83.9 61.85 -84.0 62.0 -84.15 62.75 -93.9 67.85 -93.75 66.0 -94.15 64.35 -95.4 61.85 -97.75 59.6 -99.0 59.1 -89.5 54.25" fill="#ee0000" fill-rule="evenodd" stroke="none"/>
    <path d="M-80.15 62.5 L-95.4 70.5 -94.0 68.85 -93.9 67.85 -84.15 62.75 -84.0 62.0 -83.9 61.85 -83.9 61.75 -67.9 17.85 -60.4 14.6 -66.0 30.0 -66.0 30.05 -77.0 59.85 -77.65 60.85 -80.15 62.5 M-100.9 59.1 L-98.0 57.5 -92.9 54.85 -91.5 54.25 -90.15 54.0 -89.5 54.25 -99.0 59.1 -100.9 59.1 M-75.15 9.1 L-68.25 6.0 -65.9 5.75 -73.15 9.0 -75.15 9.1" fill="#9c0000" fill-rule="evenodd" stroke="none"/>
    <path d="M-79.15 15.5 L-79.0 15.5 -79.15 15.6 -79.15 15.5" fill="#950000" fill-rule="evenodd" stroke="none"/>
  </g>
</svg>
