<?xml version="1.0" encoding="UTF-8" standalone="no"?>
<svg xmlns:xlink="http://www.w3.org/1999/xlink" height="162.5px" width="197.4px" xmlns="http://www.w3.org/2000/svg">
  <g transform="matrix(1.0, 0.0, 0.0, 1.0, 105.65, 80.4)">
    <path d="M73.85 -24.5 L75.5 -31.65 77.0 -35.25 78.6 -39.65 82.25 -44.75 84.0 -45.25 85.6 -45.75 87.6 -44.0 88.85 -42.25 90.75 -35.9 91.75 -27.15 91.75 -14.4 Q90.65 1.15 89.85 2.0 L89.35 1.0 88.5 1.0 89.85 -15.4 89.85 -23.5 89.25 -28.25 Q86.85 -48.05 77.5 -28.25 L75.25 -21.25 74.35 -22.25 73.85 -24.5" fill="#b8b8b8" fill-rule="evenodd" stroke="none"/>
    <path d="M37.35 -47.25 L38.75 -48.75 41.25 -49.25 84.0 -45.25 82.25 -44.75 78.6 -39.65 77.0 -35.25 37.5 -39.15 Q36.05 -39.25 40.85 -45.9 L36.75 -46.4 37.35 -47.25" fill="#a7a7a7" fill-rule="evenodd" stroke="none"/>
    <path d="M41.25 -49.25 L43.35 -49.65 57.75 -48.4 85.6 -45.75 84.0 -45.25 41.25 -49.25 M49.5 32.85 Q29.85 30.65 30.25 29.25 L27.0 23.25 25.0 14.6 24.25 2.85 25.0 -10.4 27.25 -24.15 30.5 -35.25 34.5 -43.9 36.75 -46.4 40.85 -45.9 Q36.05 -39.25 37.5 -39.15 L77.0 -35.25 75.5 -31.65 73.85 -24.5 72.35 -19.5 70.0 -2.5 69.35 10.35 69.6 20.6 71.0 29.1 73.0 34.1 73.6 35.25 75.75 36.1 76.35 36.6 56.35 33.85 56.25 33.75 54.6 33.6 49.5 32.85" fill="#676767" fill-rule="evenodd" stroke="none"/>
    <path d="M76.35 36.6 L75.75 36.1 73.6 35.25 73.0 34.1 71.0 29.1 69.6 20.6 69.35 10.35 70.0 -2.5 72.35 -19.5 73.85 -24.5 74.35 -22.25 75.25 -21.25 74.0 -15.4 72.25 -2.5 71.75 4.5 72.0 15.75 73.25 23.25 Q77.1 34.75 82.5 23.25 L83.25 22.0 85.75 14.75 88.5 1.0 89.35 1.0 89.85 2.0 Q84.85 34.4 76.35 36.6" fill="#b1b1b1" fill-rule="evenodd" stroke="none"/>
    <path d="M49.5 32.85 L54.6 33.6 54.6 34.35 18.35 74.75 18.35 66.75 34.6 49.0 46.5 36.1 49.5 32.85 M75.25 -21.25 L77.5 -28.25 Q86.85 -48.05 89.25 -28.25 L89.85 -23.5 89.85 -15.4 88.5 1.0 85.75 14.75 83.25 22.0 82.5 23.25 Q77.1 34.75 73.25 23.25 L72.0 15.75 71.75 4.5 72.25 -2.5 74.0 -15.4 75.25 -21.25 M-58.0 14.75 L-57.15 15.0 -55.25 16.75 -54.9 19.35 -55.25 20.25 -55.9 20.6 -57.15 21.5 -58.5 21.5 -60.75 20.0 Q-62.65 16.15 -59.5 15.1 L-58.0 14.75" fill="#000000" fill-rule="evenodd" stroke="none"/>
    <path d="M37.25 -59.15 L37.25 -59.25 58.0 -72.25 57.75 -48.4 43.35 -49.65 41.25 -49.25 38.75 -48.75 37.35 -47.25 37.25 -59.15" fill="#bc581d" fill-rule="evenodd" stroke="none"/>
    <path d="M37.25 -59.25 L37.25 -59.15 15.6 -45.65 -105.65 -57.15 -46.9 -80.4 -38.0 -79.75 -38.0 -66.0 -37.65 -66.0 -37.65 -65.85 Q-37.75 -62.05 -27.4 -61.4 L-15.15 -61.25 Q-9.6 -61.4 -4.75 -63.0 -1.15 -64.1 -1.0 -64.9 L-1.0 -66.0 -0.75 -66.0 -0.75 -76.85 5.6 -76.4 3.75 -75.25 37.25 -59.25" fill="#974012" fill-rule="evenodd" stroke="none"/>
    <path d="M15.6 -45.65 L37.25 -59.15 37.35 -47.25 36.75 -46.4 34.5 -43.9 30.5 -35.25 27.25 -24.15 25.0 -10.4 24.25 2.85 25.0 14.6 27.0 23.25 30.25 29.25 Q29.85 30.65 49.5 32.85 L46.5 36.1 34.6 49.0 18.35 66.75 18.35 74.75 54.6 34.35 54.6 33.6 56.25 33.75 56.25 33.85 56.25 36.5 17.0 81.25 15.75 82.1 15.6 -45.65" fill="#a94c17" fill-rule="evenodd" stroke="none"/>
    <path d="M56.25 33.75 L56.35 33.85 56.25 33.85 56.25 33.75" fill="#686868" fill-rule="evenodd" stroke="none"/>
    <path d="M37.25 -59.25 L3.75 -75.25 5.6 -76.4 58.0 -72.25 37.25 -59.25" fill="#a54916" fill-rule="evenodd" stroke="none"/>
    <path d="M-105.65 -57.15 L15.6 -45.65 15.75 82.1 -83.65 65.35 -75.0 58.5 -56.5 31.5 Q-43.5 34.75 -40.5 30.0 L-34.15 25.35 -32.0 23.25 Q-30.9 23.15 -28.25 17.35 L-28.0 14.75 -27.5 11.6 -28.9 5.0 Q-31.25 -1.05 -33.65 -2.5 -33.95 -4.05 -40.0 -7.5 L-45.4 -9.0 -45.75 -9.25 -50.9 -9.0 -56.25 -6.9 -62.75 -2.75 -63.4 -2.5 -67.4 1.35 Q-70.6 6.6 -70.0 10.35 -70.65 10.95 -69.25 17.1 L-67.75 20.5 -67.65 20.6 -89.75 53.75 -96.5 58.75 -97.9 60.0 -98.5 61.35 -98.75 61.5 -105.65 -57.15" fill="#5d1d02" fill-rule="evenodd" stroke="none"/>
    <path d="M-34.9 19.5 L-34.5 16.5 -35.75 10.35 -38.5 4.75 Q-42.65 -0.9 -46.75 -2.5 L-50.4 -3.9 -45.4 -9.0 -40.0 -7.5 Q-33.95 -4.05 -33.65 -2.5 -31.25 -1.05 -28.9 5.0 L-27.5 11.6 -28.0 14.75 -34.9 19.5" fill="#cbcbcb" fill-rule="evenodd" stroke="none"/>
    <path d="M-40.5 30.0 L-37.65 27.35 -35.15 21.75 -34.9 19.5 -28.0 14.75 -28.25 17.35 Q-30.9 23.15 -32.0 23.25 L-34.15 25.35 -40.5 30.0 M-50.4 -3.9 Q-51.2 -5.15 -58.75 -4.4 L-62.75 -2.75 -56.25 -6.9 -50.9 -9.0 -45.75 -9.25 -45.4 -9.0 -50.4 -3.9" fill="#888888" fill-rule="evenodd" stroke="none"/>
    <path d="M-53.9 8.0 L-50.75 8.5 -48.4 10.35 -46.9 13.0 Q-46.2 16.15 -47.25 17.6 L-52.5 21.1 Q-50.7 13.6 -59.15 11.6 L-53.9 8.0 M-79.9 61.25 L-80.4 62.1 -87.75 67.5 -87.5 64.5 -88.5 61.85 Q-90.0 59.55 -91.5 59.0 L-94.25 58.25 -86.9 52.75 Q-79.65 53.7 -79.9 61.25" fill="#ef0000" fill-rule="evenodd" stroke="none"/>
    <path d="M-67.75 20.5 L-69.25 17.1 Q-70.65 10.95 -70.0 10.35 -70.6 6.6 -67.4 1.35 L-63.4 -2.5 -62.75 -2.75 -58.75 -4.4 Q-51.2 -5.15 -50.4 -3.9 L-46.75 -2.5 Q-42.65 -0.9 -38.5 4.75 L-35.75 10.35 -34.5 16.5 -34.9 19.5 -35.15 21.75 -37.65 27.35 -40.5 30.0 Q-43.5 34.75 -56.5 31.5 L-47.25 17.6 Q-46.2 16.15 -46.9 13.0 L-48.4 10.35 -50.75 8.5 -53.9 8.0 -55.0 8.1 -60.9 11.85 -63.15 13.75 -67.65 20.5 -67.75 20.5" fill="#636363" fill-rule="evenodd" stroke="none"/>
    <path d="M-60.9 11.85 L-55.0 8.1 -53.9 8.0 -59.15 11.6 -60.9 11.85 M-47.25 17.6 L-56.5 31.5 -75.0 58.5 -83.65 65.35 -88.9 69.1 -87.75 67.5 -80.4 62.1 -79.9 61.25 -52.5 21.1 -47.25 17.6 M-86.9 52.75 L-94.25 58.25 -96.5 58.75 -89.75 53.75 -88.0 52.85 -86.9 52.75" fill="#9c0000" fill-rule="evenodd" stroke="none"/>
    <path d="M-67.65 20.5 L-63.15 13.75 -60.9 11.85 -59.15 11.6 Q-50.7 13.6 -52.5 21.1 L-79.9 61.25 Q-79.65 53.7 -86.9 52.75 L-88.0 52.85 -89.75 53.75 -67.65 20.6 -67.65 20.5 M-58.0 14.75 L-59.5 15.1 Q-62.65 16.15 -60.75 20.0 L-58.5 21.5 -57.15 21.5 -55.9 20.6 -55.25 20.25 -54.9 19.35 -55.25 16.75 -57.15 15.0 -58.0 14.75 M-94.25 58.25 L-91.5 59.0 Q-90.0 59.55 -88.5 61.85 L-87.5 64.5 -87.75 67.5 -88.9 69.1 Q-97.5 72.45 -98.65 61.85 L-98.75 61.75 -98.75 61.6 -98.5 61.35 -97.9 60.0 -96.5 58.75 -94.25 58.25" fill="#7c0000" fill-rule="evenodd" stroke="none"/>
    <path d="M-67.75 20.5 L-67.65 20.5 -67.65 20.6 -67.75 20.5" fill="#a00000" fill-rule="evenodd" stroke="none"/>
    <path d="M-98.75 61.6 L-98.75 61.5 -98.5 61.35 -98.75 61.6" fill="#f10000" fill-rule="evenodd" stroke="none"/>
  </g>
</svg>
