<?xml version="1.0" encoding="UTF-8" standalone="no"?>
<svg xmlns:xlink="http://www.w3.org/1999/xlink" height="158.9px" width="178.65px" xmlns="http://www.w3.org/2000/svg">
  <g transform="matrix(1.0, 0.0, 0.0, 1.0, 86.4, 80.0)">
    <path d="M54.85 -53.65 L54.6 -54.0 51.25 -57.4 80.5 -58.65 Q86.15 -57.9 89.6 -40.15 L54.75 -38.5 54.85 -53.65" fill="#a9a9a9" fill-rule="evenodd" stroke="none"/>
    <path d="M51.25 -57.4 L50.75 -57.9 79.5 -59.0 80.5 -58.65 51.25 -57.4 M54.75 -38.5 L89.6 -40.15 Q96.1 -5.1 86.6 15.25 L83.5 16.85 53.75 18.75 54.75 -38.5" fill="#696969" fill-rule="evenodd" stroke="none"/>
    <path d="M-12.65 -50.75 L54.85 -53.65 54.75 -38.5 53.75 18.75 53.0 68.75 -73.5 78.5 Q-74.35 80.35 -74.4 73.75 L-77.75 33.85 -79.4 -0.4 -77.9 -0.65 -79.75 -40.0 -79.75 -40.75 -80.0 -41.15 -79.9 -41.75 -79.9 -42.0 -81.75 -58.65 -82.25 -58.9 -82.65 -70.4 -80.0 -47.9 -12.65 -50.75 M7.75 3.35 L5.5 -1.15 0.85 -5.25 Q-5.45 -8.7 -7.5 -7.9 -17.25 -8.85 -23.5 -2.5 -25.95 -1.45 -29.15 5.85 L-29.9 11.85 Q-28.95 18.35 -27.75 20.35 L-27.4 22.1 -58.9 45.85 Q-61.95 48.3 -61.75 49.0 L-62.4 51.6 -60.9 61.25 -60.9 61.85 Q-61.4 66.65 -54.9 68.25 -48.0 68.15 -47.15 61.85 L-47.65 59.1 -47.65 58.1 -14.9 33.6 Q0.85 37.05 9.1 23.25 11.1 21.25 11.6 14.75 L10.35 8.1 8.0 3.75 7.75 3.5 7.75 3.35" fill="#5d1d02" fill-rule="evenodd" stroke="none"/>
    <path d="M51.25 -57.4 L54.6 -54.0 54.85 -53.65 -12.65 -50.75 -13.25 -51.5 -14.4 -61.4 -6.4 -62.4 -4.9 -62.9 Q-3.0 -63.0 -1.15 -64.65 L-1.15 -66.0 -0.75 -66.0 -0.75 -78.0 29.5 -79.0 50.75 -57.9 51.25 -57.4" fill="#a14715" fill-rule="evenodd" stroke="none"/>
    <path d="M-14.4 -61.4 L-13.25 -51.5 -12.65 -50.75 -80.0 -47.9 -82.65 -70.4 -82.9 -72.5 -82.9 -75.15 -38.0 -76.65 -38.0 -66.0 -37.85 -66.0 Q-38.3 -61.3 -21.0 -61.25 L-18.65 -61.25 -14.4 -61.4" fill="#933e11" fill-rule="evenodd" stroke="none"/>
    <path d="M-38.0 -79.35 L-38.0 -80.0 -38.0 -79.35" fill="#6f6f6f" fill-rule="evenodd" stroke="none"/>
    <path d="M-27.75 20.35 Q-28.95 18.35 -29.9 11.85 L-29.15 5.85 Q-25.95 -1.45 -23.5 -2.5 -17.25 -8.85 -7.5 -7.9 L-5.5 -3.15 -8.5 -3.4 -12.9 -2.5 Q-20.5 -2.2 -27.15 10.35 L-27.5 11.0 -28.25 16.25 -27.75 20.35" fill="#727272" fill-rule="evenodd" stroke="none"/>
    <path d="M7.75 3.35 L7.75 3.5 8.0 3.75 10.35 8.1 11.6 14.75 Q11.1 21.25 9.1 23.25 0.85 37.05 -14.9 33.6 L-3.0 24.75 -1.65 23.25 Q1.4 20.35 -1.25 15.5 L-1.25 15.35 -2.0 13.5 -2.15 13.35 -2.15 13.25 -2.25 13.1 -3.0 11.5 -4.25 10.35 -6.15 9.5 -9.25 9.6 -11.5 10.35 -27.4 22.1 -27.75 20.35 -28.25 16.25 -27.5 11.0 -27.15 10.35 Q-20.5 -2.2 -12.9 -2.5 L-8.5 -3.4 -5.5 -3.15 -1.5 -2.5 2.85 -0.65 7.75 3.35 M-79.4 -0.4 L-83.0 -0.5 -83.65 -12.15 -83.75 -12.5 -83.75 -14.4 -83.75 -14.5 -83.75 -14.6 -83.9 -15.15 -83.9 -16.15 -83.9 -17.0 -84.0 -17.4 -84.0 -17.75 -85.0 -39.75 -79.75 -40.0 -77.9 -0.65 -79.4 -0.4 M-85.25 -40.4 L-85.25 -40.9 -85.15 -41.0 -85.15 -40.4 -85.25 -40.4 M-85.4 -42.0 L-85.4 -43.4 -85.4 -43.5 -85.25 -42.0 -85.4 -42.0 M-85.5 -43.9 L-85.5 -45.15 -85.4 -43.65 -85.5 -43.9 M-85.5 -45.25 L-85.65 -45.9 -85.65 -46.9 -85.5 -45.25 M-85.9 -48.65 L-85.75 -48.75 -85.75 -48.65 -85.9 -48.65" fill="#636363" fill-rule="evenodd" stroke="none"/>
    <path d="M-7.5 -7.9 Q-5.45 -8.7 0.85 -5.25 L5.5 -1.15 7.75 3.35 2.85 -0.65 -1.5 -2.5 -5.5 -3.15 -7.5 -7.9" fill="#e2e2e2" fill-rule="evenodd" stroke="none"/>
    <path d="M-47.65 58.1 L-47.65 59.1 -48.25 58.0 -49.0 53.0 -48.5 53.75 -47.65 58.1 M-60.9 61.25 L-62.4 51.6 -61.75 49.0 Q-61.95 48.3 -58.9 45.85 L-27.4 22.1 -11.5 10.35 -9.25 9.6 -7.75 13.35 -11.0 14.85 -58.4 50.6 -56.25 50.0 -55.25 55.85 -58.25 57.1 Q-59.7 57.8 -60.9 61.25 M-1.4 15.35 L-1.25 15.35 -1.25 15.5 -1.4 15.35" fill="#840000" fill-rule="evenodd" stroke="none"/>
    <path d="M-9.25 9.6 L-6.15 9.5 -4.25 10.35 -3.0 11.5 -2.25 13.1 -2.15 13.25 -2.15 13.35 -2.0 13.5 -1.25 15.35 -1.4 15.35 Q-2.35 14.1 -4.5 13.35 L-7.75 13.35 -9.25 9.6 M-49.0 53.0 L-48.25 58.0 Q-49.65 56.45 -51.5 56.0 L-55.25 55.85 -56.25 50.0 Q-52.4 48.45 -49.0 53.0" fill="#f60000" fill-rule="evenodd" stroke="none"/>
    <path d="M-14.9 33.6 L-47.65 58.1 -48.5 53.75 -49.0 53.0 Q-52.4 48.45 -56.25 50.0 L-58.4 50.6 -11.0 14.85 -7.75 13.35 -4.5 13.35 Q-2.35 14.1 -1.4 15.35 L-1.25 15.5 Q1.4 20.35 -1.65 23.25 L-3.0 24.75 -14.9 33.6 M-47.65 59.1 L-47.15 61.85 Q-48.0 68.15 -54.9 68.25 -61.4 66.65 -60.9 61.85 L-60.9 61.25 Q-59.7 57.8 -58.25 57.1 L-55.25 55.85 -51.5 56.0 Q-49.65 56.45 -48.25 58.0 L-47.65 59.1 M-5.25 23.0 Q-1.15 19.15 -4.5 17.1 -7.35 15.35 -9.4 18.1 -11.2 23.65 -5.25 23.0" fill="#7c0000" fill-rule="evenodd" stroke="none"/>
    <path d="M-83.75 -14.4 L-83.75 -14.6 -83.75 -14.5 -83.75 -14.4 M-83.9 -16.15 L-84.0 -17.4 -83.9 -17.0 -83.9 -16.15 M-84.0 -17.75 L-84.65 -23.25 -85.25 -40.4 -85.15 -40.4 -85.0 -39.75 -84.0 -17.75 M-85.25 -40.9 L-85.4 -42.0 -85.25 -42.0 -85.15 -41.15 -85.15 -41.0 -85.25 -40.9 M-85.4 -43.4 L-85.5 -43.9 -85.4 -43.65 -85.4 -43.5 -85.4 -43.4 M-85.75 -48.4 L-85.9 -48.65 -85.75 -48.65 -85.75 -48.4 M-5.25 23.0 Q-11.2 23.65 -9.4 18.1 -7.35 15.35 -4.5 17.1 -1.15 19.15 -5.25 23.0" fill="#000000" fill-rule="evenodd" stroke="none"/>
    <path d="M-85.5 -45.15 L-85.5 -45.25 -85.65 -46.9 -85.65 -47.0 -85.75 -48.4 -85.75 -48.65 -85.75 -48.75 -86.0 -53.4 -86.15 -53.5 -86.4 -58.75 -82.25 -58.9 -81.75 -58.65 -79.9 -42.0 -79.9 -41.75 -80.0 -41.15 -79.75 -40.75 -79.75 -40.0 -85.0 -39.75 -85.15 -40.4 -85.15 -41.0 -85.15 -41.15 -85.25 -42.0 -85.4 -43.5 -85.4 -43.65 -85.5 -45.15" fill="#a1a1a1" fill-rule="evenodd" stroke="none"/>
  </g>
</svg>
