<?xml version="1.0" encoding="UTF-8" standalone="no"?>
<svg xmlns:xlink="http://www.w3.org/1999/xlink" height="165.65px" width="187.85px" xmlns="http://www.w3.org/2000/svg">
  <g transform="matrix(1.0, 0.0, 0.0, 1.0, 100.0, 81.15)">
    <path d="M53.1 -65.15 L66.6 -65.75 73.5 -61.65 Q88.05 -44.8 87.35 -27.4 L66.0 -23.5 66.75 -60.5 53.1 -65.15 M74.25 4.35 L72.35 5.1 65.35 6.6 65.35 6.1 74.25 4.35" fill="#b2b2b2" fill-rule="evenodd" stroke="none"/>
    <path d="M66.75 -60.5 L66.0 -23.5 65.35 6.1 65.35 6.6 64.35 48.85 9.5 58.35 9.0 36.25 9.0 36.1 15.85 30.75 Q27.65 30.0 31.25 23.25 33.8 21.3 36.1 14.6 L36.6 10.35 Q37.75 2.8 32.85 -2.5 L30.35 -4.9 28.85 -5.5 21.1 -9.25 17.6 -10.75 Q10.85 -11.25 9.6 -9.75 L8.0 -9.25 8.85 -52.4 66.75 -60.5" fill="#732a08" fill-rule="evenodd" stroke="none"/>
    <path d="M66.0 -23.5 L87.35 -27.4 87.85 -21.15 86.25 -10.4 82.75 -2.15 Q77.25 5.1 74.25 4.35 L65.35 6.1 66.0 -23.5" fill="#727272" fill-rule="evenodd" stroke="none"/>
    <path d="M15.85 30.75 L9.0 36.1 9.0 36.25 -9.5 50.85 -9.9 50.85 -9.9 50.75 -10.25 50.6 -10.25 50.5 -10.75 50.25 -10.75 50.1 -11.15 50.0 -11.15 49.85 -12.0 49.35 -12.0 49.25 -12.4 49.1 -12.4 49.0 -12.9 48.75 -12.9 48.6 -13.25 48.5 -13.25 48.35 -13.65 48.25 -13.65 48.1 -14.15 47.85 -14.15 47.75 -14.5 47.6 -14.5 47.5 Q-15.85 46.65 -17.25 45.75 L-20.0 45.85 -21.75 46.6 -22.15 46.5 -21.9 46.25 23.5 10.35 26.1 9.25 28.5 9.1 30.5 10.35 Q35.0 17.15 25.0 23.25 L15.85 30.75 M23.75 16.85 L23.85 17.25 Q25.05 20.1 28.5 18.0 31.1 13.45 27.75 12.5 23.25 12.15 23.75 16.6 L23.75 16.85" fill="#8e0000" fill-rule="evenodd" stroke="none"/>
    <path d="M20.25 6.0 L21.25 5.75 23.25 6.25 28.5 9.1 26.1 9.25 20.25 6.0 M-20.0 45.85 L-17.25 45.75 Q-15.85 46.65 -14.5 47.5 L-14.5 47.6 -14.15 47.75 -14.15 47.85 -13.65 48.1 -13.65 48.25 -13.25 48.35 -13.25 48.5 -12.9 48.6 -12.9 48.75 -12.4 49.0 -12.4 49.1 -12.0 49.25 -12.0 49.35 -11.15 49.85 -11.15 50.0 -10.75 50.1 -10.75 50.25 -10.25 50.5 -10.25 50.6 -9.9 50.75 -9.9 50.85 -9.9 51.0 -12.9 51.0 -20.0 45.85" fill="#f80000" fill-rule="evenodd" stroke="none"/>
    <path d="M3.5 18.1 L3.1 14.75 3.75 10.35 6.35 3.6 Q11.35 -3.1 11.85 -2.5 L14.6 -4.65 17.5 -5.75 20.1 -6.65 26.35 -6.5 28.85 -5.5 30.35 -4.9 32.85 -2.5 Q37.75 2.8 36.6 10.35 L36.1 14.6 Q33.8 21.3 31.25 23.25 27.65 30.0 15.85 30.75 L25.0 23.25 Q35.0 17.15 30.5 10.35 L28.5 9.1 23.25 6.25 21.25 5.75 20.25 6.0 19.25 6.1 17.85 7.0 3.5 18.1" fill="#757575" fill-rule="evenodd" stroke="none"/>
    <path d="M8.0 -9.25 L9.6 -9.75 17.5 -5.75 14.6 -4.65 11.85 -2.5 Q11.35 -3.1 6.35 3.6 L3.75 10.35 3.1 14.75 3.5 18.1 -0.9 21.5 -3.75 16.35 -4.5 10.35 -3.9 5.0 Q-1.1 -2.5 0.0 -2.5 L2.5 -5.65 7.1 -9.0 8.0 -9.25 M21.1 -9.25 L28.85 -5.5 26.35 -6.5 21.1 -9.25" fill="#676767" fill-rule="evenodd" stroke="none"/>
    <path d="M23.75 16.85 L23.75 16.6 Q23.25 12.15 27.75 12.5 31.1 13.45 28.5 18.0 25.05 20.1 23.85 17.25 L23.75 16.85 M-92.5 -19.15 L-94.0 -47.0 -93.65 -47.0 -65.5 -31.15 -65.15 -28.25 -64.15 -2.5 -64.25 -0.5 -92.5 -19.15" fill="#000000" fill-rule="evenodd" stroke="none"/>
    <path d="M64.35 48.85 L64.25 56.85 -45.0 84.5 -49.0 -44.25 8.75 -52.4 8.85 -52.4 8.0 -9.25 7.1 -9.0 2.5 -5.65 0.0 -2.5 Q-1.1 -2.5 -3.9 5.0 L-4.5 10.35 -3.75 16.35 -0.9 21.5 -29.5 44.25 Q-31.35 46.35 -31.4 49.0 -31.85 50.8 -29.5 53.35 L-17.4 62.35 Q-13.2 65.6 -9.25 61.85 -7.7 60.8 -6.9 58.5 L-6.5 54.75 -7.5 52.6 -9.15 51.25 -9.5 50.85 9.0 36.25 9.5 58.35 64.35 48.85" fill="#702807" fill-rule="evenodd" stroke="none"/>
    <path d="M53.1 -65.15 L66.75 -60.5 8.85 -52.4 8.75 -52.4 6.85 -53.0 -10.5 -61.75 -5.0 -62.9 Q-2.0 -63.4 -1.0 -64.9 L-1.0 -66.0 -0.75 -66.0 -0.75 -80.75 4.25 -81.15 53.1 -65.15 M-48.0 -75.4 L-38.0 -76.5 -38.0 -71.9 -46.25 -74.5 -48.0 -75.4" fill="#a14715" fill-rule="evenodd" stroke="none"/>
    <path d="M-100.0 -69.4 L-48.0 -75.4 -46.25 -74.5 -38.0 -71.9 -38.0 -66.0 -37.8 -66.0 Q-38.5 -61.55 -22.65 -61.35 L-17.6 -61.4 -10.5 -61.75 6.85 -53.0 8.75 -52.4 -49.0 -44.25 -100.0 -69.4" fill="#933e11" fill-rule="evenodd" stroke="none"/>
    <path d="M17.5 -5.75 L9.6 -9.75 Q10.85 -11.25 17.6 -10.75 L21.1 -9.25 26.35 -6.5 20.1 -6.65 17.5 -5.75" fill="#c1c1c1" fill-rule="evenodd" stroke="none"/>
    <path d="M-0.9 21.5 L3.5 18.1 17.85 7.0 19.25 6.1 20.25 6.0 26.1 9.25 23.5 10.35 -21.9 46.25 -22.15 46.5 -21.75 46.6 -20.0 45.85 -12.9 51.0 -9.9 51.0 -9.9 50.85 -9.5 50.85 -9.15 51.25 -7.5 52.6 -6.5 54.75 -6.9 58.5 Q-7.7 60.8 -9.25 61.85 -13.2 65.6 -17.4 62.35 L-29.5 53.35 Q-31.85 50.8 -31.4 49.0 -31.35 46.35 -29.5 44.25 L-0.9 21.5" fill="#880000" fill-rule="evenodd" stroke="none"/>
    <path d="M-95.75 -52.4 L-63.5 -34.9 -62.0 5.6 -93.15 -15.4 -93.9 -16.15 -95.75 -52.4 M-92.5 -19.15 L-64.25 -0.5 -64.15 -2.5 -65.15 -28.25 -65.5 -31.15 -93.65 -47.0 -94.0 -47.0 -92.5 -19.15" fill="#636363" fill-rule="evenodd" stroke="none"/>
    <path d="M-95.75 -52.4 Q-90.65 -53.65 -91.0 -52.9 L-58.9 -35.5 -63.5 -34.9 -95.75 -52.4" fill="#a1a1a1" fill-rule="evenodd" stroke="none"/>
    <path d="M-45.0 84.5 L-93.9 41.5 -100.0 -69.4 -49.0 -44.25 -45.0 84.5 M-58.9 -35.5 L-91.0 -52.9 Q-90.65 -53.65 -95.75 -52.4 L-93.9 -16.15 -93.15 -15.4 -62.0 5.6 -57.25 4.75 -58.9 -35.5" fill="#5d1d02" fill-rule="evenodd" stroke="none"/>
    <path d="M-63.5 -34.9 L-58.9 -35.5 -57.25 4.75 -62.0 5.6 -63.5 -34.9" fill="#7d7d7d" fill-rule="evenodd" stroke="none"/>
  </g>
</svg>
