<?xml version="1.0" encoding="UTF-8" standalone="no"?>
<svg xmlns:xlink="http://www.w3.org/1999/xlink" height="165.1px" width="175.35px" xmlns="http://www.w3.org/2000/svg">
  <g transform="matrix(1.0, 0.0, 0.0, 1.0, 108.0, 80.0)">
    <path d="M66.5 -27.5 L64.35 -26.75 64.85 -46.25 Q66.1 -47.4 67.35 -33.0 L66.5 -27.5" fill="#c9c9c9" fill-rule="evenodd" stroke="none"/>
    <path d="M64.35 -26.75 L66.5 -27.5 65.75 -22.9 64.25 -20.0 64.35 -26.75" fill="#848484" fill-rule="evenodd" stroke="none"/>
    <path d="M29.0 -56.25 L29.25 -56.25 64.0 -18.65 62.85 43.0 -5.15 85.1 -6.65 -44.0 29.0 -56.25 M30.5 -15.15 Q25.3 -11.95 22.85 -2.5 22.05 -1.2 21.5 5.85 L21.85 10.35 Q22.35 17.3 26.85 19.5 L13.35 36.1 Q9.85 41.3 11.85 46.25 L13.0 47.35 35.35 53.25 Q38.65 53.85 40.25 49.0 42.5 40.35 38.75 40.25 L33.6 38.85 41.75 28.25 55.75 10.35 57.0 7.85 57.35 4.25 56.85 1.35 56.1 0.35 55.0 0.1 54.5 0.0 54.5 -2.5 Q54.55 -12.1 47.85 -14.4 L35.35 -16.9 Q31.5 -16.65 30.6 -15.4 L30.5 -15.15" fill="#994112" fill-rule="evenodd" stroke="none"/>
    <path d="M29.25 -56.25 L29.0 -56.25 -6.65 -62.4 -6.65 -62.5 Q-4.5 -62.5 -1.9 -64.0 L-1.5 -64.75 -0.9 -65.5 -0.9 -66.0 -0.75 -66.0 -0.75 -70.45 17.6 -75.0 65.1 -68.5 29.25 -56.25" fill="#a54916" fill-rule="evenodd" stroke="none"/>
    <path d="M30.5 -15.15 L30.6 -15.4 Q31.5 -16.65 35.35 -16.9 L47.85 -14.4 45.1 -13.9 43.1 -12.65 30.5 -15.15" fill="#c1c1c1" fill-rule="evenodd" stroke="none"/>
    <path d="M26.85 19.5 Q22.35 17.3 21.85 10.35 L21.5 5.85 Q22.05 -1.2 22.85 -2.5 25.3 -11.95 30.5 -15.15 L43.1 -12.65 41.6 -11.5 40.1 -9.4 38.75 -7.65 36.35 -2.5 34.75 3.6 34.35 10.35 26.85 19.5" fill="#6a6a6a" fill-rule="evenodd" stroke="none"/>
    <path d="M47.85 -14.4 Q54.55 -12.1 54.5 -2.5 L54.5 0.0 49.25 -1.15 Q48.3 -6.9 43.1 -3.65 L40.1 -9.4 41.6 -11.5 43.1 -12.65 45.1 -13.9 47.85 -14.4" fill="#a6a6a6" fill-rule="evenodd" stroke="none"/>
    <path d="M64.0 -18.65 L29.25 -56.25 65.1 -68.5 64.85 -46.25 64.35 -26.75 64.25 -20.0 64.0 -18.65" fill="#a94c17" fill-rule="evenodd" stroke="none"/>
    <path d="M34.35 10.35 L34.75 3.6 36.35 -2.5 38.75 -7.65 40.1 -9.4 43.1 -3.65 Q48.3 -6.9 49.25 -1.15 L45.5 -1.9 44.0 -1.0 34.35 10.35" fill="#a4a4a4" fill-rule="evenodd" stroke="none"/>
    <path d="M54.5 0.0 L55.0 0.1 53.35 0.85 44.0 -1.0 45.5 -1.9 49.25 -1.15 54.5 0.0 M33.6 38.85 L38.75 40.25 37.6 40.5 36.6 41.25 24.0 38.1 24.0 37.75 25.6 37.0 26.6 37.1 27.0 37.25 27.1 37.25 27.5 37.35 27.6 37.35 28.0 37.5 28.1 37.5 28.5 37.6 28.6 37.6 29.0 37.75 29.6 37.85 30.0 38.0 30.1 38.0 30.5 38.1 30.6 38.1 31.0 38.25 31.1 38.25 31.5 38.35 31.6 38.35 32.0 38.5 33.6 38.85" fill="#ea0000" fill-rule="evenodd" stroke="none"/>
    <path d="M56.25 3.85 L56.5 4.75 56.25 7.5 55.25 9.35 54.35 9.75 52.85 9.1 52.5 8.1 52.6 6.0 53.35 4.1 54.1 3.35 55.25 3.35 56.25 3.85 M-90.9 -39.25 L-90.25 -39.25 -32.9 -27.9 -32.4 3.1 -89.4 -10.15 -90.9 -39.25" fill="#000000" fill-rule="evenodd" stroke="none"/>
    <path d="M55.0 0.1 L56.1 0.35 56.85 1.35 57.35 4.25 57.0 7.85 55.75 10.35 41.75 28.25 Q45.15 17.85 38.85 19.0 L53.35 0.85 55.0 0.1 M56.25 3.85 L55.25 3.35 54.1 3.35 53.35 4.1 52.6 6.0 52.5 8.1 52.85 9.1 54.35 9.75 55.25 9.35 56.25 7.5 56.5 4.75 56.25 3.85" fill="#cb0000" fill-rule="evenodd" stroke="none"/>
    <path d="M35.35 53.25 L13.0 47.35 11.85 46.25 Q9.85 41.3 13.35 36.1 L26.85 19.5 34.35 10.35 44.0 -1.0 53.35 0.85 38.85 19.0 25.1 36.1 24.0 37.75 24.0 38.1 36.6 41.25 34.6 44.5 33.75 49.0 34.0 51.35 34.5 52.5 35.35 53.25" fill="#840000" fill-rule="evenodd" stroke="none"/>
    <path d="M41.75 28.25 L33.6 38.85 32.0 38.5 31.6 38.35 31.5 38.35 31.1 38.25 31.0 38.25 30.6 38.1 30.5 38.1 30.1 38.0 30.0 38.0 29.6 37.85 29.0 37.75 28.6 37.6 28.5 37.6 28.1 37.5 28.0 37.5 27.6 37.35 27.5 37.35 27.1 37.25 27.0 37.25 26.6 37.1 25.6 37.0 24.0 37.75 25.1 36.1 38.85 19.0 Q45.15 17.85 41.75 28.25" fill="#c40000" fill-rule="evenodd" stroke="none"/>
    <path d="M38.75 40.25 Q42.5 40.35 40.25 49.0 38.65 53.85 35.35 53.25 L34.5 52.5 34.0 51.35 33.75 49.0 34.6 44.5 36.6 41.25 37.6 40.5 38.75 40.25" fill="#bf0000" fill-rule="evenodd" stroke="none"/>
    <path d="M-38.0 -80.0 L-38.0 -79.15 -38.0 -80.0" fill="#6b6b6b" fill-rule="evenodd" stroke="none"/>
    <path d="M29.0 -56.25 L-6.65 -44.0 -108.0 -61.5 -38.0 -79.15 -38.0 -66.0 Q-38.4 -62.15 -27.05 -61.6 -22.2 -61.4 -15.15 -61.75 L-6.65 -62.4 29.0 -56.25 M17.6 -75.0 L-0.75 -70.45 -0.75 -77.6 17.6 -75.0" fill="#964012" fill-rule="evenodd" stroke="none"/>
    <path d="M-26.25 -33.4 L-25.9 -32.75 -25.5 -13.0 -28.75 -11.75 -29.25 -32.25 -26.25 -33.4" fill="#ababab" fill-rule="evenodd" stroke="none"/>
    <path d="M-6.65 -44.0 L-5.15 85.1 -101.15 55.0 -108.0 -61.5 -6.65 -44.0 M-94.4 -44.65 L-92.4 -6.25 -28.25 8.85 -25.0 7.35 -25.5 -13.0 -25.9 -32.75 -26.25 -33.4 -58.5 -39.5 -90.25 -45.65 Q-90.45 -46.15 -94.4 -44.65" fill="#5d1d02" fill-rule="evenodd" stroke="none"/>
    <path d="M-58.5 -39.5 L-26.25 -33.4 -29.25 -32.25 -61.5 -38.5 -58.5 -39.5" fill="#a5a5a5" fill-rule="evenodd" stroke="none"/>
    <path d="M-28.25 8.85 L-92.4 -6.25 -94.4 -44.65 -61.5 -38.5 -29.25 -32.25 -28.75 -11.75 -28.25 8.85 M-90.9 -39.25 L-89.4 -10.15 -32.4 3.1 -32.9 -27.9 -90.25 -39.25 -90.9 -39.25" fill="#636363" fill-rule="evenodd" stroke="none"/>
    <path d="M-25.5 -13.0 L-25.0 7.35 -28.25 8.85 -28.75 -11.75 -25.5 -13.0" fill="#a8a8a8" fill-rule="evenodd" stroke="none"/>
    <path d="M-94.4 -44.65 Q-90.45 -46.15 -90.25 -45.65 L-58.5 -39.5 -61.5 -38.5 -94.4 -44.65" fill="#a0a0a0" fill-rule="evenodd" stroke="none"/>
  </g>
</svg>
