<?xml version="1.0" encoding="UTF-8" standalone="no"?>
<svg xmlns:xlink="http://www.w3.org/1999/xlink" height="155.6px" width="175.6px" xmlns="http://www.w3.org/2000/svg">
  <g transform="matrix(1.0, 0.0, 0.0, 1.0, 97.5, 78.5)">
    <path d="M-26.0 -61.4 L-22.4 -61.35 -17.95 -61.35 Q-5.85 -61.55 -4.75 -63.0 -2.35 -63.45 -1.15 -64.65 L-1.15 -66.0 -0.75 -66.0 -0.75 -77.0 47.0 -75.9 46.85 -75.15 36.1 -48.65 -30.65 -50.65 -26.0 -61.4" fill="#a04615" fill-rule="evenodd" stroke="none"/>
    <path d="M36.1 -48.65 L46.85 -75.15 46.25 -27.5 45.0 -24.75 42.35 -24.9 42.0 -24.5 41.0 -19.75 40.1 -10.15 35.85 6.85 36.1 -48.65" fill="#c35c1f" fill-rule="evenodd" stroke="none"/>
    <path d="M56.5 -24.15 L56.1 -23.75 55.6 -19.25 41.0 -19.75 42.0 -24.5 56.5 -24.15" fill="#adadad" fill-rule="evenodd" stroke="none"/>
    <path d="M46.35 -24.75 L56.0 -24.5 56.6 -24.4 56.5 -24.15 42.0 -24.5 42.35 -24.9 45.0 -24.75 46.35 -24.75 M53.35 11.5 L45.85 11.25 40.85 11.1 40.6 10.35 40.1 7.6 40.1 -10.15 41.0 -19.75 55.6 -19.25 55.25 -13.65 54.85 -2.9 54.85 -2.5 53.85 6.75 53.35 11.5" fill="#696969" fill-rule="evenodd" stroke="none"/>
    <path d="M46.25 -27.5 L46.35 -24.75 45.0 -24.75 46.25 -27.5 M45.85 11.25 L45.6 30.85 35.35 76.1 35.25 74.75 35.85 6.85 40.1 -10.15 40.1 7.6 40.6 10.35 40.85 11.1 45.85 11.25" fill="#b6531a" fill-rule="evenodd" stroke="none"/>
    <path d="M56.5 -24.15 L57.0 -22.4 57.1 -12.4 56.5 -12.4 56.35 -14.75 55.85 -14.65 55.85 -12.75 55.25 -13.65 55.6 -19.25 56.1 -23.75 56.5 -24.15" fill="#cccccc" fill-rule="evenodd" stroke="none"/>
    <path d="M55.25 -13.65 L55.85 -12.75 55.85 -14.65 56.35 -14.75 56.5 -12.4 56.0 -12.15 54.85 -2.9 55.25 -13.65" fill="#c9c9c9" fill-rule="evenodd" stroke="none"/>
    <path d="M78.0 26.85 L77.6 36.75 76.25 36.75 75.25 36.6 73.35 36.6 72.35 36.5 70.6 36.5 69.6 36.35 65.0 36.25 64.0 36.1 62.1 36.1 61.1 36.0 59.35 36.0 58.35 35.85 56.5 35.85 55.5 35.75 53.75 35.75 52.75 35.6 Q50.15 39.15 53.35 11.5 L53.85 6.75 64.85 7.1 63.5 23.25 63.5 23.5 63.5 24.0 63.35 24.5 70.0 24.75 70.75 24.85 70.6 25.25 71.1 25.5 77.85 26.35 78.0 26.85" fill="#890000" fill-rule="evenodd" stroke="none"/>
    <path d="M57.1 -12.4 L66.6 -12.15 66.6 -11.5 66.35 -8.9 66.35 -8.65 66.25 -7.4 66.25 -7.15 65.35 1.75 65.25 2.0 65.25 3.25 65.1 3.5 65.1 4.75 65.0 5.6 65.0 5.85 64.85 7.1 53.85 6.75 54.85 -2.5 54.85 -2.9 56.0 -12.15 56.5 -12.4 57.1 -12.4 M64.35 23.5 L78.1 24.1 78.1 25.35 77.85 26.35 71.1 25.5 70.6 25.25 70.75 24.85 70.0 24.75 63.35 24.5 63.5 24.0 63.5 23.5 64.35 23.5" fill="#eb0000" fill-rule="evenodd" stroke="none"/>
    <path d="M65.35 9.75 L65.35 9.85 65.25 10.0 65.35 10.5 65.35 10.6 65.25 10.75 65.25 11.0 64.35 23.5 63.5 23.5 63.5 23.25 64.85 7.1 65.0 5.85 65.1 6.1 65.35 9.75 M65.1 3.5 L65.25 3.25 65.25 3.5 65.1 3.5 M65.25 2.0 L65.35 1.75 65.35 2.0 65.25 2.0" fill="#f20000" fill-rule="evenodd" stroke="none"/>
    <path d="M66.75 -9.0 L67.25 -8.9 67.1 -3.0 66.6 -3.0 66.25 -7.15 66.25 -7.4 66.35 -8.65 66.35 -8.9 66.75 -9.0 M6.6 -29.4 L6.85 1.5 -68.4 -1.4 -68.9 -1.75 -70.15 -31.9 6.6 -29.4" fill="#000000" fill-rule="evenodd" stroke="none"/>
    <path d="M66.6 -11.5 L66.75 -9.0 66.35 -8.9 66.6 -11.5 M66.6 -3.0 L65.35 9.75 65.1 6.1 65.0 5.85 65.0 5.6 65.1 4.75 65.1 3.5 65.25 3.5 65.25 3.25 65.25 2.0 65.35 2.0 65.35 1.75 66.25 -7.15 66.6 -3.0 M65.35 9.85 L65.35 10.5 65.25 10.0 65.35 9.85 M65.35 10.6 L65.25 11.0 65.25 10.75 65.35 10.6" fill="#fb0000" fill-rule="evenodd" stroke="none"/>
    <path d="M78.1 25.35 L78.0 26.85 77.85 26.35 78.1 25.35" fill="#ef0000" fill-rule="evenodd" stroke="none"/>
    <path d="M-30.65 -50.65 L36.1 -48.65 35.85 6.85 35.25 74.75 35.35 76.1 35.0 77.1 -90.75 70.5 -97.5 -52.5 -30.65 -50.65 M12.0 -35.0 L12.1 -35.5 11.35 -35.65 -30.65 -36.9 -73.75 -38.25 -74.9 -37.0 -73.0 3.25 10.85 6.5 11.6 6.25 12.25 5.1 12.1 -14.9 12.0 -35.0" fill="#5d1d02" fill-rule="evenodd" stroke="none"/>
    <path d="M-26.0 -61.4 L-30.65 -50.65 -97.5 -52.5 -64.25 -78.5 -38.0 -77.9 -38.0 -66.0 -37.9 -66.0 Q-38.35 -62.1 -26.0 -61.4" fill="#943e11" fill-rule="evenodd" stroke="none"/>
    <path d="M-30.65 -36.9 L11.35 -35.65 12.1 -35.5 12.0 -35.0 11.35 -34.25 -31.65 -35.65 -30.65 -36.9" fill="#aaaaaa" fill-rule="evenodd" stroke="none"/>
    <path d="M12.0 -35.0 L12.1 -14.9 11.6 -14.4 11.5 -15.4 11.35 -34.25 12.0 -35.0" fill="#d0d0d0" fill-rule="evenodd" stroke="none"/>
    <path d="M12.1 -14.9 L12.25 5.1 11.6 6.25 11.6 -14.4 12.1 -14.9" fill="#cbcbcb" fill-rule="evenodd" stroke="none"/>
    <path d="M11.6 6.25 L10.85 6.5 -73.0 3.25 -74.9 -37.0 -31.65 -35.65 11.35 -34.25 11.5 -15.4 11.6 -14.4 11.6 6.25 M6.6 -29.4 L-70.15 -31.9 -68.9 -1.75 -68.4 -1.4 6.85 1.5 6.6 -29.4" fill="#636363" fill-rule="evenodd" stroke="none"/>
    <path d="M-74.9 -37.0 L-73.75 -38.25 -30.65 -36.9 -31.65 -35.65 -74.9 -37.0" fill="#a1a1a1" fill-rule="evenodd" stroke="none"/>
  </g>
</svg>
