<?xml version="1.0" encoding="UTF-8" standalone="no"?>
<svg xmlns:xlink="http://www.w3.org/1999/xlink" height="163.1px" width="187.8px" xmlns="http://www.w3.org/2000/svg">
  <g transform="matrix(1.0, 0.0, 0.0, 1.0, 93.9, 80.5)">
    <path d="M3.5 -36.75 L2.1 -38.0 42.35 -42.25 44.1 -41.15 44.1 -41.0 3.5 -36.75" fill="#afafaf" fill-rule="evenodd" stroke="none"/>
    <path d="M0.6 -51.5 L63.35 -57.5 62.6 -17.15 62.25 -2.5 62.35 -2.0 62.0 9.6 62.0 9.85 61.0 62.0 -56.75 82.5 -57.9 82.6 -58.25 82.1 -63.0 -45.4 0.6 -51.5 M44.1 -41.0 L44.1 -41.15 42.35 -42.25 2.1 -38.0 -38.75 -33.75 -38.65 -33.5 -37.5 7.1 -36.25 8.5 43.75 -1.75 43.85 -2.5 44.1 -41.0" fill="#611f03" fill-rule="evenodd" stroke="none"/>
    <path d="M62.6 -17.15 L63.5 -16.25 79.35 8.5 90.75 7.0 Q93.25 8.9 93.25 10.6 L71.85 13.6 70.35 10.35 62.35 -2.0 62.25 -2.5 62.6 -17.15 M62.1 9.85 L62.0 9.85 62.0 9.6 62.1 9.85" fill="#ea0000" fill-rule="evenodd" stroke="none"/>
    <path d="M71.1 21.5 L70.1 21.6 69.35 21.25 62.1 9.85 62.0 9.6 62.35 -2.0 70.35 10.35 71.85 13.6 Q73.25 19.9 71.1 21.5" fill="#7c0000" fill-rule="evenodd" stroke="none"/>
    <path d="M40.0 -35.75 L-32.4 -27.9 -31.65 3.1 39.75 -6.0 40.0 -35.75 M3.5 -36.75 L44.1 -41.0 43.85 -2.5 43.75 -1.75 -36.25 8.5 -37.25 -32.5 3.5 -36.75" fill="#666666" fill-rule="evenodd" stroke="none"/>
    <path d="M93.25 10.6 Q94.85 15.5 92.5 18.35 L71.1 21.5 Q73.25 19.9 71.85 13.6 L93.25 10.6" fill="#8f0000" fill-rule="evenodd" stroke="none"/>
    <path d="M40.0 -35.75 L39.75 -6.0 -31.65 3.1 -32.4 -27.9 40.0 -35.75" fill="#000000" fill-rule="evenodd" stroke="none"/>
    <path d="M-1.1 -66.0 L-1.25 -65.15 -1.25 -66.0 -1.1 -66.0 M-38.0 -76.4 L-38.05 -80.0 -38.0 -80.0 -38.0 -76.4" fill="#6c6c6c" fill-rule="evenodd" stroke="none"/>
    <path d="M-1.1 -66.0 L-0.75 -66.0 -0.75 -79.4 13.5 -80.5 15.1 -80.5 63.35 -57.5 0.6 -51.5 -19.0 -61.15 -9.15 -61.9 -6.15 -62.65 Q-4.2 -62.6 -1.5 -64.25 L-1.25 -65.15 -1.1 -66.0 M-39.15 -76.25 L-38.0 -76.4 -38.0 -75.5 -39.15 -76.25" fill="#a04614" fill-rule="evenodd" stroke="none"/>
    <path d="M-19.0 -61.15 L0.6 -51.5 -63.0 -45.4 -93.9 -71.9 -39.15 -76.25 -38.0 -75.5 -38.0 -66.0 -37.75 -66.0 -37.75 -65.25 -36.9 -63.65 -35.15 -63.0 -34.25 -62.5 -29.5 -61.65 -19.0 -61.15" fill="#933e11" fill-rule="evenodd" stroke="none"/>
    <path d="M2.1 -38.0 L3.5 -36.75 -37.25 -32.5 -38.65 -33.5 -38.75 -33.75 2.1 -38.0" fill="#a5a5a5" fill-rule="evenodd" stroke="none"/>
    <path d="M-38.65 -33.5 L-37.25 -32.5 -36.25 8.5 -37.5 7.1 -38.65 -33.5" fill="#636363" fill-rule="evenodd" stroke="none"/>
    <path d="M-58.25 82.1 L-88.15 37.1 -93.9 -71.9 -63.0 -45.4 -58.25 82.1" fill="#5d1d02" fill-rule="evenodd" stroke="none"/>
  </g>
</svg>
