<?xml version="1.0" encoding="UTF-8" standalone="no"?>
<svg xmlns:xlink="http://www.w3.org/1999/xlink" height="163.95px" width="195.35px" xmlns="http://www.w3.org/2000/svg">
  <g transform="matrix(1.0, 0.0, 0.0, 1.0, 116.75, 78.45)">
    <path d="M57.6 -50.4 L54.1 -51.0 28.85 -42.9 27.35 -42.5 27.25 -55.65 27.25 -55.75 66.25 -67.4 65.35 -16.9 61.6 -15.5 28.35 1.85 28.0 1.75 27.85 -1.25 32.25 -3.15 57.0 -13.15 57.6 -50.4" fill="#a24715" fill-rule="evenodd" stroke="none"/>
    <path d="M28.85 -42.9 L54.1 -51.0 57.6 -50.4 32.35 -42.15 28.85 -42.9" fill="#b2b2b2" fill-rule="evenodd" stroke="none"/>
    <path d="M27.25 -55.75 L27.25 -55.65 -13.0 -43.75 -107.9 -62.75 -95.4 -65.65 -86.15 -67.75 -38.0 -78.45 -38.0 -66.0 -37.8 -66.0 Q-37.9 -61.35 -22.85 -61.4 L-17.05 -61.55 -7.5 -62.25 Q-0.95 -63.1 -0.85 -66.0 L-0.75 -66.0 -0.75 -77.9 20.85 -74.5 17.6 -73.65 27.25 -55.75" fill="#974012" fill-rule="evenodd" stroke="none"/>
    <path d="M27.35 -42.5 L28.85 -42.9 32.35 -42.15 32.25 -42.0 7.0 -33.75 3.25 -34.5 27.35 -42.5" fill="#a9a9a9" fill-rule="evenodd" stroke="none"/>
    <path d="M32.25 -3.15 L27.85 -1.25 7.5 7.1 7.1 7.0 7.0 -33.75 32.25 -42.0 31.1 -39.4 32.5 -37.4 10.1 -29.75 10.25 -28.25 10.35 0.85 32.35 -7.75 33.6 -6.15 32.25 -3.15" fill="#9f9f9f" fill-rule="evenodd" stroke="none"/>
    <path d="M57.6 -50.4 L57.0 -13.15 32.25 -3.15 33.6 -6.15 32.35 -7.75 54.6 -16.65 55.1 -44.9 32.5 -37.4 31.1 -39.4 32.25 -42.0 32.35 -42.15 57.6 -50.4" fill="#a7a7a7" fill-rule="evenodd" stroke="none"/>
    <path d="M27.85 -1.25 L28.0 1.75 28.35 1.85 61.6 -15.5 65.35 -16.9 65.1 -5.5 64.85 1.75 64.75 9.1 64.75 9.35 64.0 45.0 -11.0 85.5 -13.0 -43.75 27.25 -55.65 27.35 -42.5 3.25 -34.5 3.5 5.85 3.75 6.25 7.1 7.0 7.5 7.1 27.85 -1.25" fill="#933e11" fill-rule="evenodd" stroke="none"/>
    <path d="M32.35 -7.75 L10.35 0.85 10.25 -28.25 10.1 -29.75 32.5 -37.4 55.1 -44.9 54.6 -16.65 32.35 -7.75" fill="#000000" fill-rule="evenodd" stroke="none"/>
    <path d="M67.35 -3.75 L67.6 -3.5 72.6 -5.9 Q79.4 -4.8 78.5 0.35 L66.35 5.75 66.0 3.6 65.25 1.85 64.85 1.75 65.1 -5.5 67.35 -3.75" fill="#f50000" fill-rule="evenodd" stroke="none"/>
    <path d="M72.6 -5.9 L67.6 -3.5 67.35 -3.75 72.6 -5.9 M66.35 5.75 L78.5 0.35 Q78.6 2.85 76.75 3.85 L64.75 9.35 64.75 9.1 65.35 8.75 66.1 7.35 66.35 5.75" fill="#910000" fill-rule="evenodd" stroke="none"/>
    <path d="M64.85 1.75 L65.25 1.85 66.0 3.6 66.35 5.75 66.1 7.35 65.35 8.75 64.75 9.1 64.85 1.75" fill="#7c0000" fill-rule="evenodd" stroke="none"/>
    <path d="M66.25 -67.4 L27.25 -55.75 17.6 -73.65 20.85 -74.5 66.25 -67.4" fill="#a54916" fill-rule="evenodd" stroke="none"/>
    <path d="M-86.15 -67.75 L-95.4 -65.65 -90.9 -67.65 -86.15 -67.75 M-104.25 -1.0 Q-116.5 -11.45 -116.75 -24.65 L-115.9 -37.4 Q-113.35 -49.25 -107.5 -55.65 L-107.25 -54.0 -104.25 -1.0" fill="#6a6a6a" fill-rule="evenodd" stroke="none"/>
    <path d="M7.0 -33.75 L7.1 7.0 3.75 6.25 3.5 5.85 3.25 -34.5 7.0 -33.75" fill="#636363" fill-rule="evenodd" stroke="none"/>
    <path d="M-107.9 -62.75 L-13.0 -43.75 -11.0 85.5 -100.9 53.0 -104.25 -1.0 -107.25 -54.0 -107.5 -55.65 -107.9 -62.75" fill="#5d1d02" fill-rule="evenodd" stroke="none"/>
  </g>
</svg>
