<?xml version="1.0" encoding="UTF-8" standalone="no"?>
<svg xmlns:xlink="http://www.w3.org/1999/xlink" height="191.15px" width="128.0px" xmlns="http://www.w3.org/2000/svg">
  <g transform="matrix(1.0, 0.0, 0.0, 1.0, -14.1, 98.15)">
    <path d="M21.6 -41.4 L21.75 -41.55 22.6 -46.4 30.1 -65.65 40.25 -80.3 52.85 -90.4 55.25 -91.9 71.35 -97.8 88.35 -98.15 104.25 -93.05 114.5 -85.55 Q115.8 -87.55 130.35 -67.55 L138.0 -49.65 142.1 -29.05 142.1 -7.05 Q136.9 38.9 105.5 57.6 L103.75 58.2 102.35 56.1 Q99.5 50.55 73.6 48.6 67.55 47.85 52.75 55.1 L44.5 49.6 41.0 45.45 32.75 35.35 24.75 17.85 23.5 12.95 23.35 12.95 23.35 11.95 22.0 5.85 21.85 5.85 21.85 5.35 22.0 4.6 21.5 2.85 20.75 -1.3 21.75 -5.9 21.6 -8.3 21.35 -9.55 22.5 -13.55 22.25 -18.4 22.6 -21.15 22.75 -28.65 Q22.55 -31.85 21.1 -32.3 L22.5 -40.05 22.5 -41.4 21.6 -41.4 M20.5 -31.9 L20.35 -31.65 20.25 -31.55 20.25 -32.05 20.5 -31.9" fill="#b19771" fill-rule="evenodd" stroke="none"/>
    <path d="M41.0 45.45 L44.5 49.6 52.75 55.1 Q67.55 47.85 73.6 48.6 99.5 50.55 102.35 56.1 L103.75 58.2 105.5 57.6 105.6 59.45 105.0 60.45 107.0 65.95 Q108.1 70.2 107.75 71.95 L106.85 73.45 103.85 75.2 Q67.3 88.6 26.0 92.95 15.75 93.75 23.0 82.35 34.75 64.25 41.5 61.95 30.4 59.8 32.6 58.2 35.15 49.1 41.0 45.45" fill="#573f70" fill-rule="evenodd" stroke="none"/>
    <path d="M21.6 -41.4 L22.5 -41.4 22.5 -40.05 21.1 -32.3 20.6 -31.9 20.5 -31.9 20.25 -32.05 18.85 -34.05 18.5 -34.65 Q17.65 -40.55 21.6 -41.4" fill="#000000" fill-rule="evenodd" stroke="none"/>
    <path d="M21.1 -32.3 Q22.55 -31.85 22.75 -28.65 L22.6 -21.15 22.25 -18.4 22.5 -13.55 21.35 -9.55 21.6 -8.3 21.75 -5.9 20.75 -1.3 21.5 2.85 22.0 4.6 21.85 5.35 21.85 5.85 22.0 5.85 23.35 11.95 23.35 12.95 Q22.25 24.2 19.6 15.95 12.65 41.5 14.5 19.85 L14.6 15.1 16.25 5.35 15.6 5.2 15.1 4.45 15.0 2.45 16.5 -4.65 17.5 -7.65 16.75 -8.3 16.1 -9.05 15.1 -13.15 Q14.75 -15.05 15.85 -17.9 L16.85 -18.55 16.0 -21.05 16.0 -21.9 Q14.1 -39.35 17.75 -34.05 L19.1 -31.65 19.6 -31.15 20.25 -31.55 20.35 -31.65 20.5 -31.9 20.6 -31.9 21.1 -32.3" fill="#5f3f2a" fill-rule="evenodd" stroke="none"/>
    <path d="M20.25 -31.55 L19.6 -31.15 19.1 -31.65 17.75 -34.05 18.5 -34.65 18.85 -34.05 20.25 -32.05 20.25 -31.55 M16.0 -21.05 L16.85 -18.55 15.85 -17.9 16.0 -21.05 M16.1 -9.05 L16.75 -8.3 17.5 -7.65 16.5 -4.65 16.1 -9.05" fill="#ff488c" fill-rule="evenodd" stroke="none"/>
  </g>
</svg>
