<?xml version="1.0" encoding="UTF-8" standalone="no"?>
<svg xmlns:xlink="http://www.w3.org/1999/xlink" height="158.1px" width="182.4px" xmlns="http://www.w3.org/2000/svg">
  <g transform="matrix(1.0, 0.0, 0.0, 1.0, 131.55, 80.0)">
    <path d="M49.1 -74.9 L32.75 -48.0 -33.25 -50.65 -29.25 -54.0 -18.5 -61.15 -10.9 -61.65 -5.15 -62.9 Q-3.6 -62.85 -1.25 -64.5 L-1.25 -66.0 -0.75 -66.0 -0.75 -76.85 48.25 -75.4 49.25 -75.25 49.1 -74.9" fill="#a04614" fill-rule="evenodd" stroke="none"/>
    <path d="M50.75 -58.4 L46.0 -49.5 41.35 -49.65 46.6 -59.15 49.0 -59.0 50.85 -59.0 50.75 -58.4" fill="#b3b3b3" fill-rule="evenodd" stroke="none"/>
    <path d="M49.0 -59.0 L46.6 -59.15 41.35 -49.65 36.6 -41.15 36.25 -40.15 35.85 -0.75 37.75 -0.65 33.75 5.85 32.6 8.35 32.75 -48.0 49.1 -74.9 49.0 -59.0" fill="#c35c1e" fill-rule="evenodd" stroke="none"/>
    <path d="M46.0 -45.25 L50.0 -53.0 50.35 -53.15 50.25 -33.15 50.25 -31.15 50.0 -28.25 50.1 -28.15 50.0 -26.5 47.25 -20.25 41.6 -7.25 41.25 -7.15 41.6 -36.5 46.0 -45.25" fill="#000000" fill-rule="evenodd" stroke="none"/>
    <path d="M50.25 -33.15 L50.35 -53.15 50.0 -53.0 46.0 -45.25 45.6 -46.5 45.75 -48.75 46.0 -49.5 50.75 -58.4 50.35 -33.15 50.25 -33.15 M47.25 -20.25 L50.0 -26.5 50.35 -26.25 50.35 -26.15 50.25 -25.25 47.6 -20.25 47.25 -20.25 M50.1 -28.15 L50.0 -28.25 50.25 -31.15 50.35 -31.15 50.35 -28.15 50.1 -28.15" fill="#d1d1d1" fill-rule="evenodd" stroke="none"/>
    <path d="M46.0 -49.5 L45.75 -48.75 41.6 -41.15 40.85 -40.0 36.25 -40.15 36.6 -41.15 41.35 -49.65 46.0 -49.5" fill="#adadad" fill-rule="evenodd" stroke="none"/>
    <path d="M46.0 -45.25 L41.6 -36.5 41.25 -7.15 41.6 -7.25 47.25 -20.25 47.6 -20.25 50.25 -25.25 50.35 -26.15 50.35 -23.4 48.35 -18.5 41.5 -2.5 40.6 -0.75 40.5 -2.5 40.85 -40.0 41.6 -41.15 45.75 -48.75 45.6 -46.5 46.0 -45.25 M50.0 -26.5 L50.1 -28.15 50.35 -28.15 50.35 -26.25 50.0 -26.5 M50.25 -31.15 L50.25 -33.15 50.35 -33.15 50.35 -31.15 50.25 -31.15" fill="#cacaca" fill-rule="evenodd" stroke="none"/>
    <path d="M37.75 -0.65 L35.85 -0.75 36.25 -40.15 40.85 -40.0 40.5 -2.5 40.6 -0.75 37.75 -0.65" fill="#636363" fill-rule="evenodd" stroke="none"/>
    <path d="M32.6 8.35 L33.75 5.85 37.75 -0.65 40.6 -0.75 41.5 -2.5 48.35 -18.5 47.75 31.75 32.1 77.75 32.6 8.35" fill="#b4521a" fill-rule="evenodd" stroke="none"/>
    <path d="M32.75 -48.0 L32.6 8.35 32.1 77.75 32.0 78.1 30.85 78.1 -92.5 69.25 -95.4 18.75 -99.15 -48.25 -99.4 -53.25 -33.25 -50.65 32.75 -48.0" fill="#5d1d02" fill-rule="evenodd" stroke="none"/>
    <path d="M-38.0 -78.15 L-38.05 -80.0 -38.0 -80.0 -38.0 -78.15" fill="#6e6e6e" fill-rule="evenodd" stroke="none"/>
    <path d="M-99.4 -53.25 L-98.5 -54.0 -93.5 -57.4 -92.75 -57.9 -61.25 -78.9 -38.0 -78.15 -38.0 -66.0 -37.7 -66.0 -37.65 -65.8 Q-36.4 -60.6 -18.5 -61.15 L-29.25 -54.0 -33.25 -50.65 -99.4 -53.25" fill="#943e11" fill-rule="evenodd" stroke="none"/>
    <path d="M-125.25 -49.25 L-99.15 -48.25 -95.4 18.75 -119.25 17.1 -123.0 15.85 -126.9 10.5 Q-136.95 -25.65 -125.25 -49.25 M-93.5 -57.4 L-116.15 -58.4 -114.4 -58.75 -92.75 -57.9 -93.5 -57.4" fill="#666666" fill-rule="evenodd" stroke="none"/>
    <path d="M-125.25 -49.25 Q-124.65 -52.95 -119.0 -57.9 L-116.15 -58.4 -93.5 -57.4 -98.5 -54.0 -99.4 -53.25 -99.15 -48.25 -125.25 -49.25" fill="#999999" fill-rule="evenodd" stroke="none"/>
  </g>
</svg>
