<?xml version="1.0" encoding="UTF-8" standalone="no"?>
<svg xmlns:xlink="http://www.w3.org/1999/xlink" height="161.0px" width="187.25px" xmlns="http://www.w3.org/2000/svg">
  <g transform="matrix(1.0, 0.0, 0.0, 1.0, 127.15, 80.0)">
    <path d="M-5.5 -51.15 L60.1 -55.75 57.85 65.0 -65.15 81.0 -65.65 80.6 -83.4 35.85 Q-84.1 35.85 -84.0 30.35 L-84.0 30.25 -83.4 30.25 -83.15 33.0 -67.15 72.85 Q-66.4 64.35 -68.65 61.85 L-81.75 30.1 -74.65 29.1 Q-73.15 29.3 -72.65 23.25 L-72.0 10.35 -72.5 -2.5 -73.9 -18.15 -75.15 -28.25 -77.5 -41.15 Q-80.6 -52.6 -81.4 -50.25 L-82.0 -50.75 -88.15 -50.25 -89.15 -73.0 -71.0 -46.4 -5.5 -51.15" fill="#5d1d02" fill-rule="evenodd" stroke="none"/>
    <path d="M-13.0 -61.5 L-7.15 -52.5 -6.15 -52.15 -5.5 -51.15 -71.0 -46.4 -89.15 -73.0 -89.0 -73.5 -38.0 -76.5 -38.0 -66.0 -37.55 -66.0 -37.5 -65.25 Q-37.15 -61.35 -21.5 -61.3 L-18.3 -61.3 -13.0 -61.5" fill="#933e11" fill-rule="evenodd" stroke="none"/>
    <path d="M-13.0 -61.5 L-7.25 -62.4 Q-0.85 -63.05 -0.85 -66.0 L-0.75 -66.0 -0.75 -78.65 21.35 -80.0 21.85 -79.75 60.1 -55.75 -5.5 -51.15 -6.15 -52.15 -7.15 -52.5 -13.0 -61.5" fill="#a14715" fill-rule="evenodd" stroke="none"/>
    <path d="M-84.15 30.35 L-119.65 34.1 -119.9 33.75 -119.25 32.5 -119.15 23.25 -119.75 10.35 -123.0 -26.75 -81.15 -30.0 -80.4 -29.9 -80.15 -28.25 Q-79.35 -26.55 -78.75 -17.75 L-73.9 -18.15 -72.5 -2.5 -72.0 10.35 -72.65 23.25 Q-73.15 29.3 -74.65 29.1 L-81.75 30.1 -83.4 30.25 -84.0 30.25 -84.15 30.35 M-127.15 -47.5 L-88.15 -50.25 -82.0 -50.75 -81.4 -50.25 -126.65 -47.15 -127.15 -47.5" fill="#696969" fill-rule="evenodd" stroke="none"/>
    <path d="M-123.0 -26.75 L-125.0 -41.15 -126.25 -46.75 -126.65 -47.15 -81.4 -50.25 Q-80.6 -52.6 -77.5 -41.15 L-75.15 -28.25 -73.9 -18.15 -78.75 -17.75 Q-79.35 -26.55 -80.15 -28.25 L-80.4 -29.9 -81.15 -30.0 -123.0 -26.75" fill="#9b9b9b" fill-rule="evenodd" stroke="none"/>
    <path d="M-119.9 33.75 Q-127.25 1.85 -127.15 -47.5 L-126.65 -47.15 -126.25 -46.75 -125.0 -41.15 -123.0 -26.75 -119.75 10.35 -119.15 23.25 -119.25 32.5 -119.9 33.75 M-124.9 -2.5 L-122.4 19.35 -121.5 23.25 Q-120.5 29.25 -120.0 23.25 L-120.25 10.35 -121.15 -2.5 -123.75 -28.25 Q-127.3 -51.55 -126.75 -28.25 L-124.9 -2.5" fill="#636363" fill-rule="evenodd" stroke="none"/>
    <path d="M-124.9 -2.5 L-126.75 -28.25 Q-127.3 -51.55 -123.75 -28.25 L-121.15 -2.5 -120.25 10.35 -120.0 23.25 Q-120.5 29.25 -121.5 23.25 L-122.4 19.35 -124.9 -2.5 M-81.75 30.1 L-68.65 61.85 Q-66.4 64.35 -67.15 72.85 L-83.15 33.0 -83.4 30.25 -81.75 30.1" fill="#000000" fill-rule="evenodd" stroke="none"/>
    <path d="M-84.0 30.35 L-84.15 30.35 -84.0 30.25 -84.0 30.35" fill="#752b08" fill-rule="evenodd" stroke="none"/>
  </g>
</svg>
