<?xml version="1.0" encoding="UTF-8" standalone="no"?>
<svg xmlns:xlink="http://www.w3.org/1999/xlink" height="165.6px" width="198.95px" xmlns="http://www.w3.org/2000/svg">
  <g transform="matrix(1.0, 0.0, 0.0, 1.0, 130.95, 80.0)">
    <path d="M17.25 -53.65 L17.5 -53.65 66.75 -12.15 65.5 51.5 -30.25 85.6 -33.25 -43.65 17.25 -53.65" fill="#81320b" fill-rule="evenodd" stroke="none"/>
    <path d="M66.75 -12.15 L17.5 -53.65 68.0 -63.65 66.75 -12.15" fill="#8b390f" fill-rule="evenodd" stroke="none"/>
    <path d="M-1.1 -66.0 L-1.25 -65.15 -1.25 -66.0 -1.1 -66.0 M-38.0 -77.0 L-38.05 -80.0 -38.0 -80.0 -38.0 -77.0" fill="#6c6c6c" fill-rule="evenodd" stroke="none"/>
    <path d="M17.25 -53.65 L-33.25 -43.65 -104.75 -66.5 -56.4 -74.15 -38.0 -69.7 -38.0 -66.0 -37.8 -66.0 Q-37.55 -61.55 -23.2 -61.4 L-17.25 -61.5 -9.0 -62.0 17.25 -53.65" fill="#933e11" fill-rule="evenodd" stroke="none"/>
    <path d="M17.5 -53.65 L17.25 -53.65 -9.0 -62.0 -6.15 -62.65 Q-4.2 -62.6 -1.5 -64.25 L-1.25 -65.15 -1.1 -66.0 -0.75 -66.0 -0.75 -79.8 68.0 -63.65 17.5 -53.65 M-56.4 -74.15 L-38.0 -77.0 -38.0 -69.7 -56.4 -74.15" fill="#a14615" fill-rule="evenodd" stroke="none"/>
    <path d="M-33.25 -43.65 L-30.25 85.6 -97.0 47.1 -96.7 47.05 -95.9 46.8 -92.25 45.75 -34.25 78.85 -34.25 70.6 -83.75 43.25 -74.65 40.5 -59.15 36.0 Q-52.45 35.6 -48.0 23.25 L-46.4 18.5 -45.65 6.0 -46.4 0.0 -47.4 -7.5 -51.15 -20.0 -55.4 -28.25 Q-54.65 -29.3 -63.9 -39.75 L-71.15 -44.25 -74.65 -44.4 -78.65 -44.65 -103.25 -40.0 -104.75 -66.5 -33.25 -43.65" fill="#5d1d02" fill-rule="evenodd" stroke="none"/>
    <path d="M-115.9 -36.75 L-74.65 -44.4 -71.15 -44.25 -63.9 -39.75 Q-54.65 -29.3 -55.4 -28.25 L-51.15 -20.0 -47.4 -7.5 -46.4 0.0 -88.25 10.0 -89.25 2.5 -93.25 -11.0 -99.15 -23.0 -103.15 -28.25 Q-103.65 -30.95 -112.65 -36.4 L-115.9 -36.75 M-74.65 40.5 L-83.75 43.25 -92.25 45.75 -95.9 46.8 -95.3 46.3 -74.65 40.5 M-96.7 47.05 L-97.0 47.1 -100.0 47.85 -97.0 46.75 -96.7 47.05" fill="#aaaaaa" fill-rule="evenodd" stroke="none"/>
    <path d="M-118.9 -37.0 L-103.25 -40.0 -78.65 -44.65 -74.65 -44.4 -115.9 -36.75 -118.9 -37.0 M-88.25 10.0 L-46.4 0.0 -45.65 6.0 -46.4 18.5 -48.0 23.25 Q-52.45 35.6 -59.15 36.0 L-74.65 40.5 -95.3 46.3 Q-93.6 44.6 -90.4 39.6 L-87.75 30.0 -87.25 16.6 -88.15 10.35 -88.25 10.0" fill="#757575" fill-rule="evenodd" stroke="none"/>
    <path d="M-127.0 -2.5 L-125.65 7.35 -122.75 17.5 -120.15 23.25 Q-114.15 34.8 -111.15 36.1 -102.6 44.35 -96.25 36.1 L-94.0 32.85 Q-91.0 22.4 -92.0 23.25 L-91.65 14.6 -93.15 3.6 -96.5 -7.75 -101.15 -17.4 -106.5 -24.5 -111.9 -28.25 -117.4 -29.15 -122.15 -26.25 Q-126.25 -20.2 -126.4 -15.4 L-127.0 -12.5 -127.0 -2.5 M-100.0 47.85 Q-115.1 51.2 -128.9 8.1 L-130.75 -4.65 Q-131.6 -17.75 -128.65 -26.4 L-124.75 -33.5 -119.4 -37.0 -118.9 -37.0 -115.9 -36.75 -112.65 -36.4 Q-103.65 -30.95 -103.15 -28.25 L-99.15 -23.0 -93.25 -11.0 -89.25 2.5 -88.25 10.0 -88.15 10.35 -87.25 16.6 -87.75 30.0 -90.4 39.6 Q-93.6 44.6 -95.3 46.3 L-95.9 46.8 -96.7 47.05 -97.0 46.75 -100.0 47.85" fill="#636363" fill-rule="evenodd" stroke="none"/>
    <path d="M-127.0 -2.5 L-127.0 -12.5 -126.4 -15.4 Q-126.25 -20.2 -122.15 -26.25 L-117.4 -29.15 -111.9 -28.25 -106.5 -24.5 -101.15 -17.4 -96.5 -7.75 -93.15 3.6 -91.65 14.6 -92.0 23.25 Q-91.0 22.4 -94.0 32.85 L-96.25 36.1 Q-102.6 44.35 -111.15 36.1 -114.15 34.8 -120.15 23.25 L-122.75 17.5 -125.65 7.35 -127.0 -2.5 M-83.75 43.25 L-34.25 70.6 -34.25 78.85 -92.25 45.75 -83.75 43.25" fill="#000000" fill-rule="evenodd" stroke="none"/>
  </g>
</svg>
