<?xml version="1.0" encoding="UTF-8" standalone="no"?>
<svg xmlns:xlink="http://www.w3.org/1999/xlink" height="164.55px" width="180.75px" xmlns="http://www.w3.org/2000/svg">
  <g transform="matrix(1.0, 0.0, 0.0, 1.0, 117.75, 80.3)">
    <path d="M62.75 -70.15 L63.0 -69.4 61.85 -20.5 32.6 -57.25 62.75 -70.15" fill="#b2511a" fill-rule="evenodd" stroke="none"/>
    <path d="M32.6 -57.25 L61.85 -20.5 60.75 40.35 3.6 84.1 3.0 84.25 2.1 -44.5 32.25 -57.25 32.6 -57.25" fill="#a04614" fill-rule="evenodd" stroke="none"/>
    <path d="M62.75 -70.15 L32.6 -57.25 32.25 -57.25 -5.75 -62.65 -5.5 -62.75 Q-3.85 -62.7 -1.4 -64.4 L-1.0 -71.5 -0.75 -71.55 12.85 -75.65 62.75 -70.15" fill="#a54916" fill-rule="evenodd" stroke="none"/>
    <path d="M-38.15 -80.0 L-38.0 -80.0 -38.0 -75.3 -38.15 -80.0" fill="#6d6d6d" fill-rule="evenodd" stroke="none"/>
    <path d="M-107.5 -59.9 L-38.5 -80.3 -38.5 -80.0 -38.15 -80.0 -38.0 -75.3 -38.0 -66.0 -37.6 -66.0 Q-37.1 -64.2 -34.9 -63.1 -30.95 -61.1 -21.5 -61.3 L-17.4 -61.45 -5.75 -62.65 32.25 -57.25 2.1 -44.5 -107.5 -59.9 M-0.75 -71.55 L-0.75 -77.2 12.85 -75.65 -0.75 -71.55" fill="#963f12" fill-rule="evenodd" stroke="none"/>
    <path d="M3.0 84.25 L-100.75 58.0 -101.65 43.75 -101.5 43.75 -101.4 43.75 -101.25 43.85 -96.75 47.6 -96.25 55.0 -2.75 78.25 -2.5 70.0 -2.9 69.85 -64.0 55.1 -59.4 53.25 -31.75 37.25 -30.75 36.1 -24.0 30.0 -19.15 19.75 -18.65 14.1 -17.75 6.25 -19.9 -6.4 -25.65 -19.15 -32.9 -28.25 Q-42.85 -38.9 -56.0 -40.5 L-66.0 -40.15 -96.0 -29.0 -105.65 -24.65 -107.75 -58.9 -107.5 -59.9 2.1 -44.5 3.0 84.25" fill="#5d1d02" fill-rule="evenodd" stroke="none"/>
    <path d="M-79.0 -27.25 L-59.25 -39.0 -56.0 -40.5 Q-42.85 -38.9 -32.9 -28.25 L-25.65 -19.15 -19.9 -6.4 -17.75 6.25 -18.65 14.1 -46.15 28.6 -45.5 23.25 -45.75 19.75 -47.75 7.85 -53.9 -5.9 -62.65 -17.15 -73.4 -25.25 -79.0 -27.25" fill="#bebebe" fill-rule="evenodd" stroke="none"/>
    <path d="M-101.65 43.6 L-109.9 32.6 Q-116.95 19.7 -117.75 7.35 L-117.0 -5.5 -112.9 -16.4 -105.65 -24.65 -96.0 -29.0 -84.75 -29.25 -79.0 -27.25 -73.4 -25.25 -62.65 -17.15 -53.9 -5.9 -47.75 7.85 -45.75 19.75 -45.5 23.25 -46.15 28.6 -46.65 33.75 -47.25 36.1 -51.75 46.0 -59.4 53.25 -64.0 55.1 Q-82.1 60.65 -94.9 49.0 L-96.75 47.6 -101.25 43.85 -101.4 43.75 -101.5 43.75 -101.65 43.6 M-110.9 -1.5 L-111.5 8.25 -109.5 19.25 -104.9 29.6 -98.15 38.5 -90.25 44.85 -81.15 48.75 -71.75 49.0 -64.15 46.35 -63.4 45.75 -57.65 40.25 -53.65 31.25 -52.5 20.35 -54.25 10.35 -55.15 7.5 -58.75 -0.75 -59.9 -2.5 -66.65 -11.25 -75.25 -17.75 -84.5 -21.15 -93.9 -20.9 Q-103.95 -16.9 -103.25 -15.4 L-107.5 -10.5 -110.9 -1.5" fill="#636363" fill-rule="evenodd" stroke="none"/>
    <path d="M-110.9 -1.5 L-107.5 -10.5 -103.25 -15.4 Q-103.95 -16.9 -93.9 -20.9 L-84.5 -21.15 -75.25 -17.75 -66.65 -11.25 -59.9 -2.5 -58.75 -0.75 -55.15 7.5 -54.25 10.35 -52.5 20.35 -53.65 31.25 -57.65 40.25 -63.4 45.75 -64.15 46.35 -71.75 49.0 -81.15 48.75 -90.25 44.85 -98.15 38.5 -104.9 29.6 -109.5 19.25 -111.5 8.25 -110.9 -1.5 M-64.0 55.1 L-2.9 69.85 -2.5 70.0 -2.75 78.25 -96.25 55.0 -96.75 47.6 -94.9 49.0 Q-82.1 60.65 -64.0 55.1" fill="#000000" fill-rule="evenodd" stroke="none"/>
    <path d="M-79.0 -27.25 L-84.75 -29.25 -96.0 -29.0 -66.0 -40.15 -56.0 -40.5 -59.25 -39.0 -79.0 -27.25 M-18.65 14.1 L-19.15 19.75 -24.0 30.0 -30.75 36.1 -31.75 37.25 -59.4 53.25 -51.75 46.0 -47.25 36.1 -46.65 33.75 -46.15 28.6 -18.65 14.1" fill="#828282" fill-rule="evenodd" stroke="none"/>
    <path d="M-101.65 43.75 L-101.65 43.6 -101.5 43.75 -101.65 43.75" fill="#c8c8c8" fill-rule="evenodd" stroke="none"/>
  </g>
</svg>
