<?xml version="1.0" encoding="UTF-8" standalone="no"?>
<svg xmlns:xlink="http://www.w3.org/1999/xlink" height="158.85px" width="155.7px" xmlns="http://www.w3.org/2000/svg">
  <g transform="matrix(1.0, 0.0, 0.0, 1.0, 104.2, 80.0)">
    <path d="M51.25 -74.65 L51.5 -73.75 50.6 -26.4 39.6 -13.0 29.1 9.1 29.25 -47.5 51.25 -74.65" fill="#be591d" fill-rule="evenodd" stroke="none"/>
    <path d="M29.1 9.1 L39.6 -13.0 50.6 -26.4 49.85 32.6 28.75 78.85 29.0 10.35 29.1 9.1" fill="#b2511a" fill-rule="evenodd" stroke="none"/>
    <path d="M29.25 -47.5 L29.1 9.1 29.0 10.35 28.75 78.85 -94.15 67.85 -96.25 32.6 -96.75 23.35 -96.75 23.25 -96.9 21.75 -96.9 21.6 -98.25 -2.65 -98.4 -4.65 -99.15 -17.75 -99.15 -18.4 -101.0 -54.15 -36.15 -50.75 29.25 -47.5 M4.85 12.75 L6.1 5.6 3.6 -7.9 -2.25 -19.4 -11.75 -29.15 -23.4 -35.75 -30.15 -37.25 Q-51.35 -42.0 -66.25 -28.25 L-77.65 -19.15 -87.25 -9.75 -92.9 2.0 -94.25 16.0 -91.5 28.6 -84.75 41.25 -74.9 51.25 -62.0 58.35 -89.0 56.0 -88.75 64.0 21.1 74.0 22.35 74.0 22.35 65.85 -36.5 60.6 -34.5 60.1 -23.5 55.6 -14.0 47.1 -13.25 45.75 -12.5 45.1 -1.15 28.1 3.85 18.85 4.85 12.75" fill="#5d1d02" fill-rule="evenodd" stroke="none"/>
    <path d="M51.25 -74.65 L29.25 -47.5 -36.15 -50.75 -27.15 -61.5 Q-15.3 -60.8 -11.9 -61.5 L-5.65 -62.75 Q-3.25 -62.95 -1.4 -64.4 L-1.25 -65.25 -1.1 -66.0 -0.75 -66.0 -0.75 -76.85 51.25 -74.65" fill="#a04615" fill-rule="evenodd" stroke="none"/>
    <path d="M-38.0 -78.5 L-38.05 -80.0 -38.0 -80.0 -38.0 -78.5 M-1.25 -65.25 L-1.25 -66.0 -1.1 -66.0 -1.25 -65.25" fill="#6d6d6d" fill-rule="evenodd" stroke="none"/>
    <path d="M-101.0 -54.15 L-58.0 -79.25 -38.0 -78.5 -38.0 -66.0 -37.75 -66.0 -37.75 -65.4 -36.65 -63.5 -33.65 -62.4 -27.15 -61.5 -36.15 -50.75 -101.0 -54.15" fill="#943e11" fill-rule="evenodd" stroke="none"/>
    <path d="M-30.15 -37.25 L-23.4 -35.75 -11.75 -29.15 -2.25 -19.4 3.6 -7.9 6.1 5.6 4.85 12.75 -4.5 25.85 -6.75 28.5 -5.75 21.6 -7.75 10.35 -8.65 7.1 -15.5 -5.5 -25.15 -15.4 -38.25 -22.75 -45.0 -24.25 -30.15 -37.25" fill="#d2d2d2" fill-rule="evenodd" stroke="none"/>
    <path d="M-36.5 60.6 L22.35 65.85 22.35 74.0 21.1 74.0 -88.75 64.0 -89.0 56.0 -62.0 58.35 -61.9 58.35 -61.5 58.5 -48.9 61.35 -36.5 60.6 M-65.25 -15.4 Q-67.35 -16.4 -51.65 -17.4 L-40.4 -14.9 -30.15 -9.15 -21.5 -0.25 -16.15 10.35 -14.15 21.25 -15.75 32.5 -20.65 41.6 -27.9 48.25 -29.25 49.0 -38.4 52.85 -49.75 53.6 -60.25 51.1 -70.65 45.25 -78.65 37.1 -79.0 36.1 -84.0 27.25 -86.25 16.0 -85.15 5.1 -81.5 -2.5 Q-83.45 -2.15 -73.15 -11.75 L-65.25 -15.4" fill="#000000" fill-rule="evenodd" stroke="none"/>
    <path d="M-13.25 45.75 L-14.0 47.1 -23.5 55.6 -34.5 60.1 -36.5 60.6 -48.9 61.35 -61.5 58.5 -61.9 58.35 -62.0 58.35 -74.9 51.25 -84.75 41.25 -91.5 28.6 -94.25 16.0 -92.9 2.0 -87.25 -9.75 -77.65 -19.15 -65.4 -24.5 -51.9 -25.75 -45.0 -24.25 -38.25 -22.75 -25.15 -15.4 -15.5 -5.5 -8.65 7.1 -7.75 10.35 -5.75 21.6 -6.75 28.5 -7.65 34.85 -8.15 36.1 -13.25 45.75 M-65.25 -15.4 L-73.15 -11.75 Q-83.45 -2.15 -81.5 -2.5 L-85.15 5.1 -86.25 16.0 -84.0 27.25 -79.0 36.1 -78.65 37.1 -70.65 45.25 -60.25 51.1 -49.75 53.6 -38.4 52.85 -29.25 49.0 -27.9 48.25 -20.65 41.6 -15.75 32.5 -14.15 21.25 -16.15 10.35 -21.5 -0.25 -30.15 -9.15 -40.4 -14.9 -51.65 -17.4 Q-67.35 -16.4 -65.25 -15.4" fill="#636363" fill-rule="evenodd" stroke="none"/>
    <path d="M4.85 12.75 L3.85 18.85 -1.15 28.1 -12.5 45.1 -13.25 45.75 -8.15 36.1 -7.65 34.85 -6.75 28.5 -4.5 25.85 4.85 12.75 M-77.65 -19.15 L-66.25 -28.25 Q-51.35 -42.0 -30.15 -37.25 L-45.0 -24.25 -51.9 -25.75 -65.4 -24.5 -77.65 -19.15" fill="#8b8b8b" fill-rule="evenodd" stroke="none"/>
    <path d="M-98.25 -2.65 L-98.4 -3.25 -98.4 -4.65 -98.25 -2.65 M-99.25 -17.75 L-99.15 -18.4 -99.15 -17.75 -99.25 -17.75" fill="#ce6222" fill-rule="evenodd" stroke="none"/>
    <path d="M-96.25 32.6 L-102.5 32.1 -103.5 31.25 Q-104.45 29.4 -104.15 26.35 L-103.15 22.85 -96.9 23.25 -96.75 23.35 -96.25 32.6 M-101.65 21.35 L-96.9 21.6 -96.9 21.75 -101.65 21.35 M-98.4 -3.25 L-100.15 -13.15 Q-100.1 -16.85 -99.25 -17.75 L-99.15 -17.75 -98.4 -4.65 -98.4 -3.25" fill="#840000" fill-rule="evenodd" stroke="none"/>
    <path d="M-103.15 22.85 L-102.25 21.5 -101.65 21.35 -96.9 21.75 -96.75 23.25 -96.9 23.25 -103.15 22.85" fill="#d10000" fill-rule="evenodd" stroke="none"/>
    <path d="M-96.75 23.25 L-96.75 23.35 -96.9 23.25 -96.75 23.25" fill="#c15a1d" fill-rule="evenodd" stroke="none"/>
  </g>
</svg>
