<?xml version="1.0" encoding="UTF-8" standalone="no"?>
<svg xmlns:xlink="http://www.w3.org/1999/xlink" height="155.1px" width="160.95px" xmlns="http://www.w3.org/2000/svg">
  <g transform="matrix(1.0, 0.0, 0.0, 1.0, 113.6, 80.0)">
    <path d="M1.5 -10.0 L9.6 -2.5 15.5 7.85 17.5 19.0 15.6 30.1 10.35 39.85 Q-0.35 50.8 -0.75 49.0 -19.95 60.25 -40.4 49.0 L-42.15 48.25 -50.65 40.75 -56.25 31.1 -58.5 19.75 -57.0 8.85 -52.0 -1.15 -43.5 -9.5 Q-30.15 -16.85 -29.25 -15.4 L-20.65 -16.65 -11.65 -15.4 Q-12.2 -16.85 1.5 -10.0 M-11.05 61.35 L39.6 60.5 39.35 68.5 -76.4 70.5 -76.65 62.35 -26.65 61.5 -20.4 62.35 -12.9 61.35 -11.05 61.35 M-104.4 -5.4 L-104.75 -7.5 -104.5 -9.25 -104.4 -5.75 -104.4 -5.4" fill="#000000" fill-rule="evenodd" stroke="none"/>
    <path d="M23.85 5.1 L21.35 -10.25 15.1 -21.65 8.1 -28.25 Q10.35 -28.95 -6.4 -36.4 L-13.0 -37.25 -20.25 -38.4 -34.0 -36.15 -46.15 -30.0 -55.15 -20.9 -61.15 -9.0 -65.0 5.25 -65.5 6.25 -67.25 19.6 -64.5 33.35 -57.5 45.5 -47.25 54.5 -33.9 60.6 -26.65 61.5 -76.65 62.35 -76.4 70.5 39.35 68.5 39.6 60.5 -11.05 61.35 Q-4.8 60.75 7.1 54.0 L17.25 44.35 23.85 31.75 26.0 18.6 23.85 5.6 23.85 5.1 M-20.75 -50.5 L47.35 -51.25 45.75 72.75 -82.5 75.1 -86.0 9.6 -87.25 -15.4 -87.4 -16.65 -87.75 -25.75 -87.9 -26.15 -89.0 -49.9 -20.75 -50.5" fill="#5d1d02" fill-rule="evenodd" stroke="none"/>
    <path d="M-24.15 -61.25 L-13.15 -61.4 -6.5 -62.5 Q-0.85 -63.75 -1.4 -65.0 L-0.9 -65.4 -0.9 -66.0 -0.75 -66.0 -0.75 -77.4 38.0 -77.75 47.35 -51.25 -20.75 -50.5 -24.15 -61.25" fill="#a14614" fill-rule="evenodd" stroke="none"/>
    <path d="M-38.0 -77.15 L-38.05 -80.0 -38.0 -80.0 -38.0 -77.15" fill="#6b6b6b" fill-rule="evenodd" stroke="none"/>
    <path d="M-24.15 -61.25 L-20.75 -50.5 -89.0 -49.9 -74.65 -76.75 -38.0 -77.15 -38.0 -66.0 -37.75 -66.0 -37.75 -65.95 Q-37.1 -61.2 -24.15 -61.25" fill="#933e11" fill-rule="evenodd" stroke="none"/>
    <path d="M1.5 -10.0 Q-12.2 -16.85 -11.65 -15.4 L-20.65 -16.65 -29.25 -15.4 Q-30.15 -16.85 -43.5 -9.5 L-52.0 -1.15 -57.0 8.85 -58.5 19.75 -56.25 31.1 -50.65 40.75 -42.15 48.25 -40.4 49.0 Q-19.95 60.25 -0.75 49.0 -0.35 50.8 10.35 39.85 L15.6 30.1 17.5 19.0 15.5 7.85 9.6 -2.5 1.5 -10.0 M23.85 5.6 L26.0 18.6 23.85 31.75 17.25 44.35 7.1 54.0 Q-4.8 60.75 -11.05 61.35 L-12.9 61.35 -20.4 62.35 -26.65 61.5 -33.9 60.6 -47.25 54.5 -57.5 45.5 -64.5 33.35 -67.25 19.6 -65.5 6.25 -65.0 5.25 -59.25 -6.0 -49.9 -15.4 -48.65 -16.4 Q-42.05 -19.55 -35.5 -22.75 L-21.65 -25.0 -14.0 -24.0 -6.15 -22.75 Q9.75 -15.7 8.1 -15.4 L16.75 -7.25 23.75 5.1 23.85 5.6" fill="#636363" fill-rule="evenodd" stroke="none"/>
    <path d="M-13.0 -37.25 L-6.4 -36.4 Q10.35 -28.95 8.1 -28.25 L15.1 -21.65 21.35 -10.25 23.85 5.1 23.75 5.1 16.75 -7.25 8.1 -15.4 Q9.75 -15.7 -6.15 -22.75 L-14.0 -24.0 -13.0 -37.25" fill="#dfdfdf" fill-rule="evenodd" stroke="none"/>
    <path d="M23.85 5.1 L23.85 5.6 23.75 5.1 23.85 5.1 M-65.0 5.25 L-61.15 -9.0 -55.15 -20.9 -46.15 -30.0 -34.0 -36.15 -20.25 -38.4 -13.0 -37.25 -14.0 -24.0 -21.65 -25.0 -35.5 -22.75 Q-42.05 -19.55 -48.65 -16.4 L-49.9 -15.4 -59.25 -6.0 -65.0 5.25" fill="#757575" fill-rule="evenodd" stroke="none"/>
    <path d="M-86.0 9.6 L-90.65 9.6 -92.4 9.75 Q-94.65 10.6 -95.4 -2.5 L-95.5 -11.9 -95.5 -14.15 -95.4 -16.5 -87.4 -16.65 -87.25 -15.4 -86.0 9.6 M-93.4 -25.75 L-91.75 -26.15 -87.9 -26.15 -87.75 -25.75 -93.4 -25.75" fill="#666666" fill-rule="evenodd" stroke="none"/>
    <path d="M-95.4 -16.5 L-94.65 -22.9 -93.9 -25.5 -93.4 -25.75 -87.75 -25.75 -87.4 -16.65 -95.4 -16.5" fill="#9c9c9c" fill-rule="evenodd" stroke="none"/>
    <path d="M-113.5 37.1 L-113.0 33.5 -112.75 33.1 -101.15 32.85 -100.9 36.1 -100.75 37.0 -113.5 37.1 M-104.25 -11.75 L-103.9 -13.65 -103.4 -14.0 -95.5 -14.15 -95.5 -11.9 -104.25 -11.75" fill="#cc0000" fill-rule="evenodd" stroke="none"/>
    <path d="M-89.5 44.0 L-112.75 44.35 Q-113.9 42.45 -113.5 37.1 L-100.75 37.0 -100.9 36.1 -101.15 32.85 -104.25 -5.15 -104.4 -5.75 -104.5 -9.25 -104.25 -11.75 -95.5 -11.9 -95.4 -2.5 Q-94.65 10.6 -92.4 9.75 L-92.4 10.35 -90.0 42.1 -89.5 44.0" fill="#830000" fill-rule="evenodd" stroke="none"/>
    <path d="M-90.65 9.6 L-88.65 36.0 Q-88.45 44.0 -89.5 44.0 L-90.0 42.1 -92.4 10.35 -92.4 9.75 -90.65 9.6 M-104.25 -5.15 L-104.4 -5.4 -104.4 -5.75 -104.25 -5.15" fill="#7c0000" fill-rule="evenodd" stroke="none"/>
  </g>
</svg>
