<?xml version="1.0" encoding="UTF-8" standalone="no"?>
<svg xmlns:xlink="http://www.w3.org/1999/xlink" height="159.5px" width="173.5px" xmlns="http://www.w3.org/2000/svg">
  <g transform="matrix(1.0, 0.0, 0.0, 1.0, 115.4, 79.65)">
    <path d="M24.75 -26.4 L28.75 -22.9 38.5 -12.25 33.25 -17.15 24.75 -26.4 M-39.5 34.5 L-46.4 18.85 -49.0 6.1 -47.15 -7.15 -41.15 -19.4 -31.75 -29.25 -20.0 -35.9 -6.65 -38.9 0.5 -38.15 10.85 -25.4 Q7.05 -27.85 -10.0 -23.0 L-23.5 -15.4 -33.15 -5.25 -39.75 7.85 -41.75 21.6 -41.65 23.25 -39.5 34.5" fill="#707070" fill-rule="evenodd" stroke="none"/>
    <path d="M24.75 -26.4 L18.5 -32.5 6.75 -37.65 0.5 -38.15 -6.65 -38.9 -20.0 -35.9 -31.75 -29.25 -41.15 -19.4 -47.15 -7.15 -49.0 6.1 -46.4 18.85 -39.5 34.5 -38.9 36.1 -32.65 46.6 -22.0 55.6 Q-11.55 60.05 -7.25 60.9 L-63.4 66.5 -63.0 74.75 50.1 62.85 50.25 55.0 16.0 58.5 Q20.35 56.95 31.6 49.0 L40.1 40.1 46.35 27.85 48.6 14.25 46.6 1.25 40.6 -10.15 38.5 -12.25 28.75 -22.9 24.75 -26.4 M58.1 -54.75 L55.85 66.6 -68.0 79.85 -69.4 79.85 -69.5 78.85 -81.4 33.25 -82.25 14.0 -82.25 13.85 -77.15 13.35 -76.65 10.35 -77.4 -7.65 -78.75 -19.65 -79.65 -22.4 -79.75 -22.75 -84.15 -22.5 -86.5 -73.65 -75.0 -47.0 -8.25 -50.9 58.1 -54.75" fill="#5d1d02" fill-rule="evenodd" stroke="none"/>
    <path d="M38.5 -12.25 L40.6 -10.15 46.6 1.25 48.6 14.25 46.35 27.85 40.1 40.1 31.6 49.0 Q20.35 56.95 16.0 58.5 L13.6 58.75 4.75 61.0 -4.4 60.6 Q-4.85 61.35 -7.25 60.9 -11.55 60.05 -22.0 55.6 L-32.65 46.6 -38.9 36.1 -39.5 34.5 -41.65 23.25 -41.75 21.6 -39.75 7.85 -33.15 -5.25 -23.5 -15.4 -10.0 -23.0 Q7.05 -27.85 10.85 -25.4 L18.35 -24.75 31.0 -19.15 33.25 -17.15 38.5 -12.25 M25.5 -12.5 L18.75 -15.4 Q4.3 -19.9 -6.4 -15.4 L-8.25 -14.75 -17.9 -9.25 -26.65 0.1 -31.5 10.35 -33.15 21.5 -31.0 32.5 -25.5 41.75 -17.65 48.35 -16.25 49.0 Q5.85 57.5 18.0 49.0 L25.5 44.75 33.6 36.1 38.75 26.0 40.5 14.75 38.75 4.25 35.1 -2.5 Q36.9 -2.8 25.5 -12.5 M-94.75 -9.65 L-95.0 -20.9 -94.75 -21.5 -94.65 -21.4 -93.5 -15.4 -92.65 -6.65 -91.75 10.35 -92.0 12.6 -93.25 -6.25 -93.65 -9.4 -94.75 -9.65" fill="#636363" fill-rule="evenodd" stroke="none"/>
    <path d="M0.5 -38.15 L6.75 -37.65 18.5 -32.5 24.75 -26.4 33.25 -17.15 31.0 -19.15 18.35 -24.75 10.85 -25.4 0.5 -38.15" fill="#d9d9d9" fill-rule="evenodd" stroke="none"/>
    <path d="M16.0 58.5 L50.25 55.0 50.1 62.85 -63.0 74.75 -63.4 66.5 -7.25 60.9 Q-4.85 61.35 -4.4 60.6 L4.75 61.0 13.6 58.75 16.0 58.5 M25.5 -12.5 Q36.9 -2.8 35.1 -2.5 L38.75 4.25 40.5 14.75 38.75 26.0 33.6 36.1 25.5 44.75 18.0 49.0 Q5.85 57.5 -16.25 49.0 L-17.65 48.35 -25.5 41.75 -31.0 32.5 -33.15 21.5 -31.5 10.35 -26.65 0.1 -17.9 -9.25 -8.25 -14.75 -6.4 -15.4 Q4.3 -19.9 18.75 -15.4 L25.5 -12.5 M-104.25 0.35 L-104.9 0.35 -105.0 -0.25 -105.25 -5.75 -104.65 -5.75 -104.65 -5.9 -104.5 -5.75 -104.4 -5.75 -104.4 -5.5 -104.0 0.35 -104.25 0.35" fill="#000000" fill-rule="evenodd" stroke="none"/>
    <path d="M-21.25 -61.15 L-14.9 -61.25 -8.0 -62.15 Q-0.8 -63.1 -0.8 -66.0 L-0.75 -66.0 -0.75 -78.4 25.0 -79.65 58.1 -54.75 -8.25 -50.9 -21.25 -61.15" fill="#a04615" fill-rule="evenodd" stroke="none"/>
    <path d="M-86.5 -73.65 L-86.4 -74.25 -38.0 -76.5 -38.0 -66.0 -37.5 -66.0 -37.5 -64.25 -35.65 -63.0 Q-32.55 -61.85 -27.4 -61.4 L-21.25 -61.15 -8.25 -50.9 -75.0 -47.0 -86.5 -73.65" fill="#933e11" fill-rule="evenodd" stroke="none"/>
    <path d="M-92.65 -6.65 L-93.5 -15.4 -94.65 -21.4 -79.65 -22.4 -78.75 -19.65 -77.4 -7.65 -92.65 -6.65" fill="#9d9d9d" fill-rule="evenodd" stroke="none"/>
    <path d="M-82.4 14.0 L-92.0 14.75 -92.0 12.6 -91.75 10.35 -92.65 -6.65 -77.4 -7.65 -76.65 10.35 -77.15 13.35 -82.25 13.85 -82.4 14.0 M-94.75 -21.5 L-94.0 -21.9 -84.15 -22.5 -79.75 -22.75 -79.65 -22.4 -94.65 -21.4 -94.75 -21.5" fill="#666666" fill-rule="evenodd" stroke="none"/>
    <path d="M-115.0 48.1 L-115.0 47.75 -115.15 47.1 -115.4 42.5 -101.9 41.25 -101.65 41.5 -101.15 46.85 -115.0 48.1 M-104.65 -7.5 L-104.5 -8.9 -94.75 -9.65 -93.65 -9.4 -93.25 -6.25 -104.4 -5.5 -104.4 -5.75 -104.65 -7.5" fill="#ce0000" fill-rule="evenodd" stroke="none"/>
    <path d="M-101.9 41.25 L-104.25 0.35 -104.0 0.35 -101.65 41.5 -101.9 41.25 M-104.65 -5.9 L-104.65 -7.5 -104.4 -5.75 -104.5 -5.75 -104.65 -5.9" fill="#7c0000" fill-rule="evenodd" stroke="none"/>
    <path d="M-92.0 14.75 L-90.25 51.85 -90.65 52.0 -91.5 52.0 -92.0 52.1 -92.9 52.1 -93.25 52.25 -94.15 52.25 -94.65 52.35 -95.5 52.35 -95.9 52.5 -96.75 52.5 -97.15 52.6 -98.15 52.6 -98.5 52.75 -99.4 52.75 -99.75 52.85 -100.75 52.85 -101.25 53.0 -102.0 53.0 -102.5 53.1 -103.4 53.1 -103.9 53.25 -104.65 53.25 -105.15 53.35 -106.0 53.35 -106.5 53.5 -107.4 53.5 -107.75 53.6 -108.65 53.6 -109.0 53.75 -110.0 53.75 -110.4 53.85 -111.25 53.85 -111.65 54.0 -112.65 54.0 -113.0 54.1 -114.5 54.1 -115.0 48.1 -101.15 46.85 -101.65 41.5 -104.0 0.35 -104.4 -5.5 -93.25 -6.25 -92.0 12.6 -92.0 14.75" fill="#850000" fill-rule="evenodd" stroke="none"/>
    <path d="M-82.25 14.0 L-82.4 14.0 -82.25 13.85 -82.25 14.0" fill="#702807" fill-rule="evenodd" stroke="none"/>
  </g>
</svg>
