<?xml version="1.0" encoding="UTF-8" standalone="no"?>
<svg xmlns:xlink="http://www.w3.org/1999/xlink" height="163.5px" width="177.6px" xmlns="http://www.w3.org/2000/svg">
  <g transform="matrix(1.0, 0.0, 0.0, 1.0, 113.85, 80.65)">
    <path d="M62.5 0.0 L63.6 9.5 62.1 20.5 61.5 23.25 55.35 36.1 46.75 46.5 36.25 53.75 35.25 54.35 23.25 58.35 9.1 58.5 -2.15 54.75 -12.0 46.35 -17.9 36.1 -20.4 23.25 -18.5 8.25 -12.5 -4.9 -2.65 -16.25 9.6 -24.15 22.5 -27.75 29.25 -27.5 36.25 -27.15 46.6 -22.75 48.35 -21.65 56.5 -13.9 62.0 -2.5 62.5 0.0 M-95.9 -5.65 L-95.65 -14.4 Q-95.1 -18.2 -93.75 -18.25 L-93.0 -18.0 -92.4 -17.65 -91.0 -15.4 -89.65 -11.5 -87.9 -3.15 -87.9 -2.5 -87.4 0.0 -86.9 10.35 -87.25 15.1 Q-87.9 18.75 -89.0 18.35 L-90.25 -1.0 -91.15 -4.9 -91.9 -5.9 -95.9 -5.65 M2.35 -10.15 L-6.15 0.1 -10.65 10.35 -12.15 20.5 -11.9 23.25 -10.25 32.1 -5.0 41.35 Q4.05 49.8 6.85 49.0 L12.0 50.85 Q25.65 51.55 28.1 49.0 L33.25 47.35 41.5 41.75 42.6 40.85 49.75 32.35 54.0 23.25 54.75 21.1 56.25 11.75 54.85 0.75 50.0 -8.65 42.6 -15.4 33.85 -19.0 24.35 -19.5 22.25 -19.4 12.35 -16.5 10.35 -15.4 2.35 -10.15" fill="#636363" fill-rule="evenodd" stroke="none"/>
    <path d="M46.6 -22.75 L36.25 -27.15 29.25 -27.5 10.35 -39.4 15.5 -39.15 17.35 -38.65 27.35 -34.4 46.6 -22.75" fill="#d6d6d6" fill-rule="evenodd" stroke="none"/>
    <path d="M-103.25 4.1 L-103.75 1.5 -103.65 -1.5 -102.25 -1.5 -101.5 1.1 -101.5 4.5 -102.65 4.75 -103.25 4.1 M9.1 58.5 L23.25 58.35 35.25 54.35 36.25 53.75 56.25 50.35 56.1 58.1 -50.65 77.1 -50.9 68.85 -50.65 68.85 9.1 58.5 M2.35 -10.15 L10.35 -15.4 12.35 -16.5 22.25 -19.4 24.35 -19.5 33.85 -19.0 42.6 -15.4 50.0 -8.65 54.85 0.75 56.25 11.75 54.75 21.1 54.0 23.25 49.75 32.35 42.6 40.85 41.5 41.75 33.25 47.35 28.1 49.0 Q25.65 51.55 12.0 50.85 L6.85 49.0 Q4.05 49.8 -5.0 41.35 L-10.25 32.1 -11.9 23.25 -12.15 20.5 -10.65 10.35 -6.15 0.1 2.35 -10.15" fill="#000000" fill-rule="evenodd" stroke="none"/>
    <path d="M63.75 -57.9 L62.5 0.0 62.0 -2.5 56.5 -13.9 48.35 -21.65 46.6 -22.75 27.35 -34.4 17.35 -38.65 15.5 -39.15 10.35 -39.4 3.6 -39.75 -8.5 -36.4 -19.5 -29.5 -20.9 -28.25 -29.0 -18.9 -34.9 -6.25 -36.65 6.85 -34.25 19.5 -28.15 30.25 -12.0 46.35 -2.15 54.75 9.1 58.5 -50.65 68.85 -50.9 68.85 -50.65 77.1 56.1 58.1 56.25 50.35 36.25 53.75 46.75 46.5 55.35 36.1 61.5 23.25 62.1 20.5 61.35 61.5 -56.25 82.85 -56.9 82.6 -61.65 -45.25 1.35 -51.65 63.75 -57.9" fill="#622003" fill-rule="evenodd" stroke="none"/>
    <path d="M-93.75 -18.25 L-91.75 -18.65 -79.5 -20.0 -78.5 -19.75 -93.0 -18.0 -93.75 -18.25 M-38.0 -76.4 L-38.05 -80.0 -38.0 -80.0 -38.0 -76.4 M-89.0 18.35 Q-87.9 18.75 -87.25 15.1 L-86.9 10.35 -87.4 0.0 -87.9 -2.5 -87.9 -3.15 -72.9 -5.0 -72.4 -2.5 -71.9 3.0 -72.0 10.35 Q-72.85 16.75 -74.4 16.6 L-89.0 18.6 -89.0 18.35" fill="#6c6c6c" fill-rule="evenodd" stroke="none"/>
    <path d="M-94.5 -71.65 L-40.0 -76.25 -38.0 -74.75 -38.0 -66.2 Q-39.05 -61.3 -18.9 -61.15 L1.35 -51.65 -61.65 -45.25 -94.5 -71.65" fill="#933e11" fill-rule="evenodd" stroke="none"/>
    <path d="M-18.9 -61.15 L-10.15 -61.75 -5.9 -62.65 Q-3.85 -62.85 -1.5 -64.25 L-1.15 -66.9 -1.25 -78.9 -1.15 -79.5 12.85 -80.65 14.25 -80.5 63.75 -57.9 1.35 -51.65 -18.9 -61.15 M-40.0 -76.25 L-38.0 -76.4 -38.0 -74.75 -40.0 -76.25" fill="#a04614" fill-rule="evenodd" stroke="none"/>
    <path d="M29.25 -27.5 L22.5 -27.75 9.6 -24.15 -2.65 -16.25 -12.5 -4.9 -18.5 8.25 -20.4 23.25 -17.9 36.1 -12.0 46.35 -28.15 30.25 -34.25 19.5 -36.65 6.85 -34.9 -6.25 -29.0 -18.9 -20.9 -28.25 -19.5 -29.5 -8.5 -36.4 3.6 -39.75 10.35 -39.4 29.25 -27.5" fill="#6f6f6f" fill-rule="evenodd" stroke="none"/>
    <path d="M-87.9 -3.15 L-89.65 -11.5 -91.0 -15.4 -92.4 -17.65 -93.0 -18.0 -78.5 -19.75 -77.4 -19.15 Q-75.6 -16.8 -75.5 -15.4 L-74.5 -13.0 -72.9 -5.0 -87.9 -3.15" fill="#a5a5a5" fill-rule="evenodd" stroke="none"/>
    <path d="M-56.9 82.6 L-87.9 39.0 -89.0 18.6 -74.4 16.6 Q-72.85 16.75 -72.0 10.35 L-71.9 3.0 -72.4 -2.5 -72.9 -5.0 -74.5 -13.0 -75.5 -15.4 Q-75.6 -16.8 -77.4 -19.15 L-78.5 -19.75 -79.5 -20.0 -91.75 -18.65 -94.5 -71.65 -61.65 -45.25 -56.9 82.6" fill="#5d1d02" fill-rule="evenodd" stroke="none"/>
    <path d="M-111.9 61.1 Q-114.5 58.55 -113.65 49.25 L-113.4 49.35 -112.75 50.5 -111.9 54.6 -111.5 57.6 -111.9 61.1 M-100.75 47.1 L-103.25 4.1 -102.65 4.75 -101.5 4.5 -101.5 1.1 -102.25 -1.5 -103.65 -1.5 -103.65 -3.5 -103.0 -4.65 -102.75 -4.65 -101.75 -2.5 -101.15 0.35 -98.25 50.5 -99.25 47.75 -99.9 47.25 -100.65 47.1 -100.75 47.1" fill="#7c0000" fill-rule="evenodd" stroke="none"/>
    <path d="M-101.15 0.35 L-101.75 -2.5 -102.75 -4.65 -91.9 -5.9 -91.15 -4.9 -90.25 -1.0 -101.15 0.35 M-113.4 49.35 L-99.9 47.25 -99.25 47.75 -98.25 50.5 -98.15 52.5 -111.9 54.6 -112.75 50.5 -113.4 49.35" fill="#d30000" fill-rule="evenodd" stroke="none"/>
    <path d="M-87.9 39.0 Q-86.6 58.4 -87.5 57.1 L-111.9 61.1 -111.5 57.6 -111.9 54.6 -98.15 52.5 -98.25 50.5 -101.15 0.35 -90.25 -1.0 -89.0 18.35 -89.0 18.6 -87.9 39.0 M-113.65 49.25 L-100.75 47.25 -100.65 47.1 -99.9 47.25 -113.4 49.35 -113.65 49.25 M-103.0 -4.65 L-95.9 -5.65 -91.9 -5.9 -102.75 -4.65 -103.0 -4.65" fill="#890000" fill-rule="evenodd" stroke="none"/>
    <path d="M-100.75 47.25 L-100.75 47.1 -100.65 47.1 -100.75 47.25" fill="#8b0000" fill-rule="evenodd" stroke="none"/>
  </g>
</svg>
