<?xml version="1.0" encoding="UTF-8" standalone="no"?>
<svg xmlns:xlink="http://www.w3.org/1999/xlink" height="165.75px" width="183.9px" xmlns="http://www.w3.org/2000/svg">
  <g transform="matrix(1.0, 0.0, 0.0, 1.0, 110.65, 81.25)">
    <path d="M9.0 -40.0 L8.75 -52.4 66.5 -60.25 65.6 -18.25 58.85 -25.0 48.35 -29.4 23.0 -40.4 11.1 -40.65 9.0 -40.0" fill="#742b08" fill-rule="evenodd" stroke="none"/>
    <path d="M64.5 34.0 L62.6 36.1 57.85 42.6 50.35 48.6 49.75 49.0 Q36.25 59.35 20.75 55.75 L12.85 53.25 11.35 52.0 11.0 51.85 11.0 51.75 3.85 45.75 -1.25 36.1 -2.15 33.75 -4.0 21.6 -1.75 6.85 4.1 -6.4 13.0 -17.5 23.85 -25.5 30.1 -27.65 36.25 -29.65 48.35 -29.4 58.85 -25.0 65.6 -18.25 Q81.4 4.6 64.5 34.0 M10.35 -2.5 L5.5 8.35 3.75 20.0 5.35 31.0 8.1 36.1 Q7.55 38.9 17.25 46.0 L25.85 48.75 35.5 48.25 44.5 44.75 53.75 37.75 60.5 28.85 64.85 18.5 66.5 7.0 65.25 -2.5 61.25 -11.4 57.1 -15.4 Q57.5 -17.45 46.35 -21.25 L36.25 -21.5 26.5 -18.15 17.35 -11.4 10.35 -2.5" fill="#6b6b6b" fill-rule="evenodd" stroke="none"/>
    <path d="M5.85 -38.9 L9.0 -40.0 11.1 -40.65 23.0 -40.4 48.35 -29.4 36.25 -29.65 30.1 -27.65 5.85 -38.9" fill="#bcbcbc" fill-rule="evenodd" stroke="none"/>
    <path d="M50.35 48.6 L59.35 46.6 59.25 54.25 -40.25 78.35 -40.4 70.1 20.75 55.75 Q36.25 59.35 49.75 49.0 L50.35 48.6 M10.35 -2.5 L17.35 -11.4 26.5 -18.15 36.25 -21.5 46.35 -21.25 Q57.5 -17.45 57.1 -15.4 L61.25 -11.4 65.25 -2.5 66.5 7.0 64.85 18.5 60.5 28.85 53.75 37.75 44.5 44.75 35.5 48.25 25.85 48.75 17.25 46.0 Q7.55 38.9 8.1 36.1 L5.35 31.0 3.75 20.0 5.5 8.35 10.35 -2.5 M-101.15 3.1 L-101.0 3.1 -100.4 1.75 -99.4 1.5 -98.75 2.0 -97.9 4.5 -98.0 7.5 -99.25 8.0 -99.75 7.85 -100.9 5.6 -101.15 3.1" fill="#000000" fill-rule="evenodd" stroke="none"/>
    <path d="M8.6 -52.4 L8.75 -52.4 9.0 -40.0 5.85 -38.9 -0.5 -36.9 -10.4 -29.9 -12.0 -28.25 -19.4 -19.0 -25.0 -6.15 -26.75 7.25 -24.65 19.85 -18.9 30.25 -11.4 36.1 -9.9 37.6 11.0 51.75 11.0 51.85 11.35 52.0 12.85 53.25 20.75 55.75 -40.4 70.1 -40.25 78.35 59.25 54.25 59.35 46.6 50.35 48.6 57.85 42.6 62.6 36.1 64.5 34.0 64.0 57.35 -45.75 84.5 -46.25 84.25 -50.4 -44.25 8.6 -52.4" fill="#6f2706" fill-rule="evenodd" stroke="none"/>
    <path d="M8.6 -52.4 L-50.4 -44.25 -99.5 -69.65 -46.9 -75.5 -38.0 -71.05 -38.0 -66.0 -37.9 -66.0 Q-38.55 -61.4 -20.65 -61.2 L-19.2 -61.2 -17.0 -61.25 8.6 -52.4" fill="#943e11" fill-rule="evenodd" stroke="none"/>
    <path d="M8.75 -52.4 L8.6 -52.4 -17.0 -61.25 -9.25 -61.9 -5.15 -62.9 Q-2.4 -63.2 -1.15 -64.75 L-1.15 -66.0 -0.75 -66.0 -0.75 -80.7 5.75 -80.9 66.5 -60.25 8.75 -52.4 M-46.9 -75.5 L-38.0 -76.5 -38.0 -71.05 -46.9 -75.5" fill="#a04614" fill-rule="evenodd" stroke="none"/>
    <path d="M11.0 51.75 L-9.9 37.6 -11.4 36.1 -18.9 30.25 -24.65 19.85 -26.75 7.25 -25.0 -6.15 -19.4 -19.0 -12.0 -28.25 -10.4 -29.9 -0.5 -36.9 5.85 -38.9 30.1 -27.65 23.85 -25.5 13.0 -17.5 4.1 -6.4 -1.75 6.85 -4.0 21.6 -2.15 33.75 -1.25 36.1 3.85 45.75 11.0 51.75" fill="#666666" fill-rule="evenodd" stroke="none"/>
    <path d="M-81.9 5.25 L-82.15 2.25 -83.25 -2.5 Q-84.95 -9.6 -87.4 -12.9 L-90.15 -15.4 -91.65 -15.65 -76.75 -17.9 Q-74.6 -17.65 -73.15 -15.4 L-70.9 -11.65 Q-68.0 -4.45 -68.15 -2.5 L-67.25 2.85 -81.9 5.25 M-85.15 21.25 L-84.4 21.0 -70.65 18.5 -71.15 18.85 -85.0 21.5 -85.15 21.25" fill="#a5a5a5" fill-rule="evenodd" stroke="none"/>
    <path d="M-91.65 -15.65 L-90.15 -15.4 -87.4 -12.9 Q-84.95 -9.6 -83.25 -2.5 L-82.15 2.25 -81.9 5.25 -81.65 10.35 Q-81.5 19.05 -84.4 21.0 L-85.15 21.25 -86.4 3.25 -87.15 -0.5 -88.15 -2.5 -88.9 -3.25 -89.5 -3.25 -94.9 -2.5 -95.25 -2.4 -95.25 -2.5 Q-95.6 -14.35 -92.15 -15.4 L-91.65 -15.65" fill="#636363" fill-rule="evenodd" stroke="none"/>
    <path d="M-50.4 -44.25 L-46.25 84.25 -83.15 50.6 -85.0 21.5 -71.15 18.85 -70.65 18.5 Q-69.5 19.15 -67.9 15.1 L-67.15 10.35 -67.25 2.85 -68.15 -2.5 Q-68.0 -4.45 -70.9 -11.65 L-73.15 -15.4 Q-74.6 -17.65 -76.75 -17.9 L-91.65 -15.65 -92.15 -15.4 Q-95.6 -14.35 -95.25 -2.5 L-95.25 -2.4 -95.65 -2.4 -95.75 -2.4 -99.5 -69.65 -50.4 -44.25" fill="#5d1d02" fill-rule="evenodd" stroke="none"/>
    <path d="M-101.15 3.1 L-101.15 0.0 -100.65 -1.25 -100.15 -1.5 -99.65 -1.5 -98.25 0.25 -97.0 5.1 -93.5 55.85 -94.75 52.85 -95.4 52.0 -96.0 51.85 -96.25 51.6 -97.65 51.85 -100.9 5.6 -99.75 7.85 -99.25 8.0 -98.0 7.5 -97.9 4.5 -98.75 2.0 -99.4 1.5 -100.4 1.75 -101.0 3.1 -101.15 3.1 M-106.65 61.5 L-106.5 64.35 -107.15 66.5 -108.25 66.25 -109.15 64.85 -110.5 60.1 -110.65 56.1 -110.25 54.85 -109.5 54.5 -109.25 54.6 -107.75 56.85 -106.65 61.5" fill="#7c0000" fill-rule="evenodd" stroke="none"/>
    <path d="M-95.25 -2.4 L-94.9 -2.5 -89.5 -3.25 -99.65 -1.5 -100.15 -1.5 -95.75 -2.25 -95.65 -2.4 -95.25 -2.4 M-86.4 3.25 L-85.15 21.25 -85.0 21.5 -83.15 50.6 Q-82.0 62.05 -83.4 61.25 L-107.15 66.5 -106.5 64.35 -106.65 61.5 -93.15 58.6 -93.5 55.85 -97.0 5.1 -86.4 3.25 M-97.65 51.85 L-96.25 51.6 -96.0 51.85 -109.25 54.6 -109.5 54.5 -97.65 51.85" fill="#890000" fill-rule="evenodd" stroke="none"/>
    <path d="M-89.5 -3.25 L-88.9 -3.25 -88.15 -2.5 -87.15 -0.5 -86.4 3.25 -97.0 5.1 -98.25 0.25 -99.65 -1.5 -89.5 -3.25 M-96.0 51.85 L-95.4 52.0 -94.75 52.85 -93.5 55.85 -93.15 58.6 -106.65 61.5 -107.75 56.85 -109.25 54.6 -96.0 51.85" fill="#d50000" fill-rule="evenodd" stroke="none"/>
    <path d="M-81.9 5.25 L-67.25 2.85 -67.15 10.35 -67.9 15.1 Q-69.5 19.15 -70.65 18.5 L-84.4 21.0 Q-81.5 19.05 -81.65 10.35 L-81.9 5.25" fill="#6c6c6c" fill-rule="evenodd" stroke="none"/>
    <path d="M-95.75 -2.25 L-95.75 -2.4 -95.65 -2.4 -95.75 -2.25" fill="#8b0000" fill-rule="evenodd" stroke="none"/>
  </g>
</svg>
