<?xml version="1.0" encoding="UTF-8" standalone="no"?>
<svg xmlns:xlink="http://www.w3.org/1999/xlink" height="192.25px" width="122.3px" xmlns="http://www.w3.org/2000/svg">
  <g transform="matrix(1.0, 0.0, 0.0, 1.0, -15.9, 103.65)">
    <path d="M22.25 -39.05 L22.75 -43.9 28.75 -64.65 38.1 -81.8 51.0 -94.65 66.1 -102.15 80.6 -103.65 84.1 -103.55 98.6 -99.55 113.25 -89.3 124.85 -74.3 132.85 -55.55 Q139.3 -33.0 138.0 -13.65 L138.0 -10.9 135.1 10.35 128.75 30.2 118.0 48.6 105.75 59.85 97.25 63.7 95.35 64.45 Q94.4 60.7 89.75 57.45 L86.0 56.1 Q84.55 54.8 73.85 51.6 L66.1 49.85 Q60.65 49.5 54.0 50.95 L45.5 53.85 36.75 43.2 36.25 42.7 36.1 42.7 36.25 42.6 Q27.15 24.9 25.85 18.95 L25.75 18.95 25.75 18.35 24.1 11.2 24.1 10.6 Q23.6 9.35 23.6 8.1 L23.35 4.6 22.75 2.45 23.75 -1.55 Q23.75 -6.75 23.25 -6.65 L23.75 -8.3 24.25 -13.65 23.75 -16.9 24.25 -25.05 23.85 -28.05 23.25 -29.8 22.6 -30.4 22.25 -32.15 22.6 -34.05 23.0 -38.9 22.25 -39.05" fill="#b19771" fill-rule="evenodd" stroke="none"/>
    <path d="M97.25 63.7 L97.35 65.95 97.1 67.95 96.75 68.2 Q102.0 84.25 94.25 84.1 74.35 88.6 27.0 88.6 14.4 87.65 16.1 82.45 18.0 70.65 34.35 59.6 21.5 57.0 36.1 42.7 L36.25 42.7 36.75 43.2 45.5 53.85 54.0 50.95 Q60.65 49.5 66.1 49.85 L73.85 51.6 Q84.55 54.8 86.0 56.1 L89.75 57.45 Q94.4 60.7 95.35 64.45 L97.25 63.7" fill="#573f70" fill-rule="evenodd" stroke="none"/>
    <path d="M25.75 18.95 Q24.85 25.0 22.5 19.35 15.25 45.0 18.0 19.95 L17.6 16.6 19.6 4.95 Q17.9 3.25 18.0 0.85 L18.5 -2.9 19.5 -3.9 20.25 -6.55 19.35 -8.3 18.0 -14.05 18.0 -14.8 17.85 -15.3 17.75 -23.8 18.1 -26.8 18.25 -27.15 17.6 -35.4 17.5 -47.3 17.75 -48.8 18.35 -49.15 19.25 -46.9 21.0 -38.3 22.25 -32.15 22.6 -30.4 23.25 -29.8 23.85 -28.05 24.25 -25.05 23.75 -16.9 24.25 -13.65 23.75 -8.3 23.25 -6.65 Q23.75 -6.75 23.75 -1.55 L22.75 2.45 23.35 4.6 23.6 8.1 Q23.6 9.35 24.1 10.6 L24.1 11.2 25.75 18.35 25.75 18.95" fill="#5f3f2a" fill-rule="evenodd" stroke="none"/>
    <path d="M21.0 -38.3 L22.25 -39.05 23.0 -38.9 22.6 -34.05 22.25 -32.15 21.0 -38.3" fill="#000000" fill-rule="evenodd" stroke="none"/>
    <path d="M18.5 -2.9 L18.0 -14.05 19.35 -8.3 20.25 -6.55 19.5 -3.9 18.5 -2.9" fill="#ff488c" fill-rule="evenodd" stroke="none"/>
  </g>
</svg>
