<?xml version="1.0" encoding="UTF-8" standalone="no"?>
<svg xmlns:xlink="http://www.w3.org/1999/xlink" height="165.55px" width="186.55px" xmlns="http://www.w3.org/2000/svg">
  <g transform="matrix(1.0, 0.0, 0.0, 1.0, 104.15, 80.05)">
    <path d="M67.25 -30.15 L70.35 -28.75 77.0 -21.25 81.1 -11.0 82.25 0.1 Q83.75 12.75 72.25 32.35 L70.6 30.0 68.35 28.6 71.35 24.0 71.5 23.25 75.1 13.75 76.6 2.35 75.75 -6.75 72.25 -15.4 66.85 -21.4 59.6 -24.65 50.5 -24.25 Q40.55 -20.85 38.35 -17.15 L36.35 -19.9 35.35 -23.5 41.0 -28.25 45.6 -30.25 50.85 -32.5 61.35 -32.65 67.25 -30.15" fill="#7e7e7e" fill-rule="evenodd" stroke="none"/>
    <path d="M68.35 28.6 L65.75 32.75 62.1 36.1 Q60.0 40.1 50.35 44.1 L41.5 45.35 33.85 43.0 27.75 37.35 23.75 28.75 22.35 17.85 23.85 6.75 27.35 -2.5 Q33.6 -13.6 36.35 -15.4 L38.35 -17.15 Q40.55 -20.85 50.5 -24.25 L59.6 -24.65 66.85 -21.4 72.25 -15.4 75.75 -6.75 76.6 2.35 75.1 13.75 71.5 23.25 71.35 24.0 68.35 28.6 M32.85 51.25 L39.5 53.25 49.75 51.85 59.85 46.5 61.25 45.25 61.25 49.0 61.1 49.6 -26.9 79.1 -26.75 70.75 32.85 51.25 M9.0 63.0 Q17.55 63.05 18.35 61.85 22.0 62.25 23.6 58.1 L9.0 63.0 M-91.75 11.25 L-93.0 11.75 -94.25 11.35 -94.75 10.35 -95.5 8.35 -95.5 6.6 -94.65 5.5 Q-91.45 4.55 -91.5 10.35 L-91.75 11.25" fill="#000000" fill-rule="evenodd" stroke="none"/>
    <path d="M72.25 32.35 L69.0 37.6 65.6 41.0 63.35 43.1 61.25 45.25 59.85 46.5 49.75 51.85 39.5 53.25 32.85 51.25 29.6 50.1 22.35 43.6 17.25 32.85 15.6 19.35 17.35 5.85 22.85 -8.15 30.35 -19.25 35.35 -23.5 36.35 -19.9 38.35 -17.15 36.35 -15.4 Q33.6 -13.6 27.35 -2.5 L23.85 6.75 22.35 17.85 23.75 28.75 27.75 37.35 33.85 43.0 41.5 45.35 50.35 44.1 Q60.0 40.1 62.1 36.1 L65.75 32.75 68.35 28.6 70.6 30.0 72.25 32.35" fill="#7c7c7c" fill-rule="evenodd" stroke="none"/>
    <path d="M29.6 50.1 L0.25 36.1 -7.4 29.75 -12.5 19.6 -14.4 6.5 -12.9 -6.15 -8.0 -19.0 -0.4 -30.0 8.85 -37.75 14.85 -40.15 45.6 -30.25 41.0 -28.25 35.35 -23.5 30.35 -19.25 22.85 -8.15 17.35 5.85 15.6 19.35 17.25 32.85 22.35 43.6 29.6 50.1" fill="#676767" fill-rule="evenodd" stroke="none"/>
    <path d="M14.85 -40.15 L17.0 -41.15 17.1 -41.25 17.1 -41.6 29.85 -42.25 61.35 -32.65 50.85 -32.5 45.6 -30.25 14.85 -40.15" fill="#b7b7b7" fill-rule="evenodd" stroke="none"/>
    <path d="M68.0 -63.15 L67.25 -30.15 61.35 -32.65 29.85 -42.25 17.1 -41.6 16.85 -53.5 68.0 -63.15 M65.6 41.0 L65.6 44.35 63.6 44.85 63.35 43.1 65.6 41.0" fill="#85350d" fill-rule="evenodd" stroke="none"/>
    <path d="M-35.5 -43.65 L16.85 -53.5 17.1 -41.6 17.1 -41.25 17.0 -41.15 14.85 -40.15 8.85 -37.75 -0.4 -30.0 -8.0 -19.0 -12.9 -6.15 -14.4 6.5 -12.5 19.6 -7.4 29.75 0.25 36.1 29.6 50.1 32.85 51.25 -26.75 70.75 -26.9 79.1 61.1 49.6 61.25 49.0 61.25 45.25 63.35 43.1 63.6 44.85 65.6 44.35 65.5 52.25 -32.25 85.5 -35.5 -43.65" fill="#7e310a" fill-rule="evenodd" stroke="none"/>
    <path d="M-35.5 -43.65 L-103.65 -66.9 -104.15 -66.9 -54.9 -74.4 -38.0 -68.75 -38.0 -66.0 -37.65 -66.0 -37.65 -65.0 -37.15 -64.0 -34.5 -62.65 Q-31.2 -61.6 -25.15 -61.25 L-14.4 -61.4 16.85 -53.5 -35.5 -43.65" fill="#943f11" fill-rule="evenodd" stroke="none"/>
    <path d="M-104.15 -66.9 L-103.65 -66.9 -35.5 -43.65 -32.25 85.5 -67.0 64.5 -67.15 62.35 -75.9 24.0 -65.4 21.1 Q-59.9 19.25 -59.9 10.35 L-59.75 7.6 -60.25 5.0 -60.5 1.6 -61.75 -2.5 Q-67.9 -16.85 -72.5 -15.4 L-73.65 -15.5 -74.65 -15.4 -87.0 -12.65 Q-92.9 -9.95 -92.75 -2.5 L-92.75 1.6 -94.4 2.1 Q-97.5 3.25 -95.65 10.35 L-85.9 52.75 -86.0 52.75 -97.75 45.75 -104.15 -66.9" fill="#5d1d02" fill-rule="evenodd" stroke="none"/>
    <path d="M-38.0 -80.0 L-38.0 -77.0 -38.05 -80.0 -38.0 -80.0" fill="#6b6b6b" fill-rule="evenodd" stroke="none"/>
    <path d="M16.85 -53.5 L-14.4 -61.4 -6.25 -62.5 -1.65 -64.15 -1.4 -65.0 -0.9 -65.4 -0.9 -66.0 -0.75 -66.0 -0.75 -80.05 68.0 -63.15 16.85 -53.5 M-38.0 -68.75 L-54.9 -74.4 -38.15 -76.9 -38.0 -76.9 -38.0 -68.75" fill="#9f4514" fill-rule="evenodd" stroke="none"/>
    <path d="M-38.0 -76.9 L-38.15 -76.9 -38.0 -77.0 -38.0 -76.9" fill="#6e6e6e" fill-rule="evenodd" stroke="none"/>
    <path d="M-73.65 -15.5 L-72.5 -15.4 Q-67.9 -16.85 -61.75 -2.5 L-60.5 1.6 -60.25 5.0 -73.65 8.1 -74.4 3.75 -76.5 -2.5 Q-81.0 -12.35 -85.5 -12.4 L-73.65 -15.5 M-65.4 21.1 L-75.9 24.0 -76.0 23.75 -65.4 21.1" fill="#acacac" fill-rule="evenodd" stroke="none"/>
    <path d="M-87.0 -12.65 L-74.65 -15.4 -73.65 -15.5 -85.5 -12.4 -87.0 -12.65 M-60.25 5.0 L-59.75 7.6 -59.9 10.35 Q-59.9 19.25 -65.4 21.1 L-76.0 23.75 -76.25 22.75 Q-74.4 21.85 -73.5 16.5 L-73.4 10.35 -73.65 8.1 -60.25 5.0" fill="#757575" fill-rule="evenodd" stroke="none"/>
    <path d="M-92.75 1.6 L-92.75 -2.5 Q-92.9 -9.95 -87.0 -12.65 L-85.5 -12.4 Q-81.0 -12.35 -76.5 -2.5 L-74.4 3.75 -73.65 8.1 -73.4 10.35 -73.5 16.5 Q-74.4 21.85 -76.25 22.75 L-80.75 3.5 Q-81.75 0.55 -84.25 -0.15 L-92.75 1.6" fill="#636363" fill-rule="evenodd" stroke="none"/>
    <path d="M-94.4 2.1 L-92.75 1.6 -84.25 -0.15 -93.9 2.1 -94.4 2.1 M-67.15 62.35 L-67.0 64.5 -67.25 66.0 -68.0 67.35 -90.5 74.25 -90.65 74.25 -89.75 72.0 -89.9 69.1 -67.15 62.35" fill="#920000" fill-rule="evenodd" stroke="none"/>
    <path d="M-85.9 52.75 L-95.65 10.35 Q-97.5 3.25 -94.4 2.1 L-93.9 2.1 Q-91.75 1.7 -89.65 10.35 L-77.9 61.5 Q-79.4 57.15 -84.4 59.1 L-85.9 52.85 -85.9 52.75 M-94.4 62.1 Q-90.9 63.1 -89.9 69.1 L-89.75 72.0 -90.65 74.25 -90.75 74.35 -90.9 74.35 -91.15 74.5 Q-93.75 75.3 -95.9 68.35 -96.65 61.75 -94.4 62.1 M-91.75 11.25 L-91.5 10.35 Q-91.45 4.55 -94.65 5.5 L-95.5 6.6 -95.5 8.35 -94.75 10.35 -94.25 11.35 -93.0 11.75 -91.75 11.25" fill="#7c0000" fill-rule="evenodd" stroke="none"/>
    <path d="M-75.9 24.0 L-67.15 62.35 -89.9 69.1 Q-90.9 63.1 -94.4 62.1 L-84.4 59.1 Q-79.4 57.15 -77.9 61.5 L-89.65 10.35 Q-91.75 1.7 -93.9 2.1 L-84.25 -0.15 Q-81.75 0.55 -80.75 3.5 L-76.25 22.75 -76.0 23.75 -75.9 24.0 M-90.65 74.25 L-90.5 74.25 -90.75 74.35 -90.65 74.25" fill="#d90000" fill-rule="evenodd" stroke="none"/>
    <path d="M-86.0 52.75 L-85.9 52.75 -85.9 52.85 -86.0 52.75" fill="#dc0000" fill-rule="evenodd" stroke="none"/>
    <path d="M9.0 63.0 L23.6 58.1 Q22.0 62.25 18.35 61.85 17.55 63.05 9.0 63.0" fill="#68bfdb" fill-rule="evenodd" stroke="none"/>
  </g>
</svg>
