<?xml version="1.0" encoding="UTF-8" standalone="no"?>
<svg xmlns:xlink="http://www.w3.org/1999/xlink" height="165.6px" width="188.8px" xmlns="http://www.w3.org/2000/svg">
  <g transform="matrix(1.0, 0.0, 0.0, 1.0, 105.15, 80.0)">
    <path d="M67.85 -63.9 L68.1 -62.4 67.35 -32.0 63.75 -33.5 31.6 -42.65 21.25 -42.5 18.85 -41.5 18.5 -53.75 18.6 -53.9 67.85 -63.9" fill="#8c3a0f" fill-rule="evenodd" stroke="none"/>
    <path d="M63.75 -33.5 L67.35 -32.0 72.6 -29.65 79.0 -22.25 83.0 -11.75 Q86.1 15.05 74.25 31.1 L72.75 28.75 70.5 27.5 73.1 23.25 77.1 12.5 78.5 1.85 77.5 -8.5 74.25 -16.65 69.1 -22.4 62.1 -25.5 53.85 -25.15 Q43.6 -21.35 41.85 -17.75 L40.0 -20.5 39.0 -24.15 43.35 -28.25 48.85 -30.9 54.0 -33.15 63.75 -33.5" fill="#838383" fill-rule="evenodd" stroke="none"/>
    <path d="M70.5 27.5 L68.1 31.5 63.5 36.1 Q42.3 52.85 31.35 36.1 L27.75 28.25 26.5 16.85 27.85 6.25 31.85 -4.75 38.0 -14.25 41.85 -17.75 Q43.6 -21.35 53.85 -25.15 L62.1 -25.5 69.1 -22.4 74.25 -16.65 77.5 -8.5 78.5 1.85 77.1 12.5 73.1 23.25 70.5 27.5 M61.35 46.0 L61.25 48.5 -23.75 79.25 -23.9 70.85 35.25 50.1 42.6 52.25 43.75 52.25 52.85 50.75 61.35 46.0 M22.5 61.85 Q26.65 60.3 25.1 57.5 L8.0 63.5 10.75 63.85 17.1 63.5 22.5 61.85 M-89.65 10.35 L-89.9 11.85 -91.15 12.5 -91.9 12.6 -92.5 12.25 -93.65 10.35 -93.9 7.25 -93.4 6.35 -92.75 6.25 Q-89.85 6.15 -89.65 10.35" fill="#000000" fill-rule="evenodd" stroke="none"/>
    <path d="M74.25 31.1 L71.1 36.5 65.6 42.1 61.35 46.0 52.85 50.75 43.75 52.25 42.6 52.25 35.25 50.1 33.35 49.35 33.1 49.0 26.35 43.0 21.5 32.35 19.85 19.5 21.75 5.1 26.75 -8.4 34.25 -19.9 39.0 -24.15 40.0 -20.5 41.85 -17.75 38.0 -14.25 31.85 -4.75 27.85 6.25 26.5 16.85 27.75 28.25 31.35 36.1 Q42.3 52.85 63.5 36.1 L68.1 31.5 70.5 27.5 72.75 28.75 74.25 31.1" fill="#808080" fill-rule="evenodd" stroke="none"/>
    <path d="M33.35 49.35 L32.35 49.0 3.0 36.1 -4.9 29.5 -9.75 19.35 -11.65 6.85 -10.15 -6.25 -5.4 -19.15 Q-2.55 -23.85 0.75 -28.25 -0.75 -28.25 11.25 -38.25 L16.6 -40.5 48.85 -30.9 43.35 -28.25 39.0 -24.15 34.25 -19.9 26.75 -8.4 21.75 5.1 19.85 19.5 21.5 32.35 26.35 43.0 33.1 49.0 33.35 49.35" fill="#676767" fill-rule="evenodd" stroke="none"/>
    <path d="M18.85 -41.5 L21.25 -42.5 31.6 -42.65 63.75 -33.5 54.0 -33.15 48.85 -30.9 16.6 -40.5 18.85 -41.5" fill="#b7b7b7" fill-rule="evenodd" stroke="none"/>
    <path d="M18.5 -53.75 L18.85 -41.5 16.6 -40.5 11.25 -38.25 Q-0.75 -28.25 0.75 -28.25 -2.55 -23.85 -5.4 -19.15 L-10.15 -6.25 -11.65 6.85 -9.75 19.35 -4.9 29.5 3.0 36.1 32.35 49.0 33.35 49.35 35.25 50.1 -23.9 70.85 -23.75 79.25 61.25 48.5 61.35 46.0 65.6 42.1 65.25 51.25 -26.5 85.0 -29.0 85.6 -32.15 -43.5 18.5 -53.75" fill="#81330b" fill-rule="evenodd" stroke="none"/>
    <path d="M-29.0 85.6 L-62.5 67.0 -58.15 65.25 -57.4 63.6 -57.25 61.85 -57.5 60.75 Q-57.1 60.15 -58.4 56.85 L-71.4 23.85 -64.25 21.75 Q-57.85 19.65 -58.15 10.35 L-57.9 8.25 -58.25 5.35 -58.75 1.85 -60.15 -2.5 Q-66.5 -16.15 -71.4 -14.75 L-72.9 -15.0 -85.65 -12.0 Q-89.2 -11.35 -90.5 -7.9 L-91.9 -2.5 -91.9 2.6 -92.65 2.85 Q-95.85 3.1 -94.25 10.35 L-76.15 57.75 -77.9 58.25 -98.5 46.6 -105.15 -66.15 -104.9 -66.4 -32.15 -43.5 -29.0 85.6" fill="#5d1d02" fill-rule="evenodd" stroke="none"/>
    <path d="M18.6 -53.9 L18.5 -53.75 -32.15 -43.5 -104.9 -66.4 -38.0 -77.15 -37.75 -66.9 Q-39.7 -59.0 -5.9 -62.65 -3.85 -62.85 -1.5 -64.25 L-1.15 -66.9 -1.25 -78.65 -1.15 -78.65 -0.75 -78.55 25.0 -72.0 18.6 -53.9" fill="#964011" fill-rule="evenodd" stroke="none"/>
    <path d="M-38.0 -77.15 L-38.05 -80.0 -38.0 -80.0 -38.0 -77.15" fill="#6c6c6c" fill-rule="evenodd" stroke="none"/>
    <path d="M67.85 -63.9 L18.6 -53.9 25.0 -72.0 -0.75 -78.55 -0.75 -79.6 67.85 -63.9" fill="#a24715" fill-rule="evenodd" stroke="none"/>
    <path d="M-85.65 -12.0 L-72.9 -15.0 -71.4 -14.75 -84.0 -11.75 -85.65 -12.0 M-58.25 5.35 L-57.9 8.25 -58.15 10.35 Q-57.85 19.65 -64.25 21.75 L-71.5 23.6 -72.65 20.6 -71.4 16.6 -71.15 11.5 -71.65 8.6 -58.25 5.35" fill="#787878" fill-rule="evenodd" stroke="none"/>
    <path d="M-91.9 2.6 L-91.9 -2.5 -90.5 -7.9 Q-89.2 -11.35 -85.65 -12.0 L-84.0 -11.75 Q-78.6 -10.65 -74.9 -2.5 L-72.9 2.35 Q-71.75 5.2 -71.65 8.6 L-71.15 11.5 -71.4 16.6 -72.65 20.6 -80.0 2.5 -81.25 1.1 -82.75 0.6 -91.9 2.6" fill="#636363" fill-rule="evenodd" stroke="none"/>
    <path d="M-71.4 -14.75 Q-66.5 -16.15 -60.15 -2.5 L-58.75 1.85 -58.25 5.35 -71.65 8.6 Q-71.75 5.2 -72.9 2.35 L-74.9 -2.5 Q-78.6 -10.65 -84.0 -11.75 L-71.4 -14.75 M-64.25 21.75 L-71.4 23.85 -71.5 23.6 -64.25 21.75" fill="#afafaf" fill-rule="evenodd" stroke="none"/>
    <path d="M-80.9 72.85 L-82.15 73.25 -84.0 72.1 -86.15 68.35 Q-88.15 61.3 -84.65 60.5 L-83.4 60.85 -82.4 61.85 -81.0 64.0 -79.9 67.85 -79.75 70.5 -80.15 72.0 -80.9 72.85 M-92.25 3.0 L-90.75 3.75 -89.9 4.85 -68.9 58.35 Q-71.0 54.9 -76.15 57.75 L-94.25 10.35 Q-95.85 3.1 -92.65 2.85 L-92.25 3.0 M-89.65 10.35 Q-89.85 6.15 -92.75 6.25 L-93.4 6.35 -93.9 7.25 -93.65 10.35 -92.5 12.25 -91.9 12.6 -91.15 12.5 -89.9 11.85 -89.65 10.35" fill="#7c0000" fill-rule="evenodd" stroke="none"/>
    <path d="M-84.65 60.5 L-77.9 58.25 -76.15 57.75 Q-71.0 54.9 -68.9 58.35 L-89.9 4.85 -90.75 3.75 -92.25 3.0 -82.75 0.6 -81.25 1.1 -80.0 2.5 -72.65 20.6 -71.5 23.6 -71.4 23.85 -58.4 56.85 Q-57.1 60.15 -57.5 60.75 L-79.9 67.85 -81.0 64.0 -82.4 61.85 -83.4 60.85 -84.65 60.5" fill="#dc0000" fill-rule="evenodd" stroke="none"/>
    <path d="M-62.5 67.0 L-80.9 72.85 -80.15 72.0 -79.75 70.5 -79.9 67.85 -57.5 60.75 -57.25 61.85 -57.4 63.6 -58.15 65.25 -62.5 67.0 M-82.75 0.6 L-92.25 3.0 -92.65 2.85 -91.9 2.6 -82.75 0.6" fill="#930000" fill-rule="evenodd" stroke="none"/>
    <path d="M22.5 61.85 L17.1 63.5 10.75 63.85 8.0 63.5 25.1 57.5 Q26.65 60.3 22.5 61.85" fill="#68bfdb" fill-rule="evenodd" stroke="none"/>
  </g>
</svg>
