<?xml version="1.0" encoding="UTF-8" standalone="no"?>
<svg xmlns:xlink="http://www.w3.org/1999/xlink" height="165.75px" width="189.9px" xmlns="http://www.w3.org/2000/svg">
  <g transform="matrix(1.0, 0.0, 0.0, 1.0, 105.4, 80.0)">
    <path d="M67.75 -64.15 L19.25 -54.0 24.5 -72.0 25.0 -72.15 28.6 -72.9 67.75 -64.15" fill="#a54916" fill-rule="evenodd" stroke="none"/>
    <path d="M19.25 -54.0 L19.1 -54.0 19.1 -53.9 -31.0 -43.5 -105.4 -66.15 -38.0 -77.15 -38.0 -66.0 -37.65 -66.0 -37.55 -65.65 Q-37.25 -64.8 -36.55 -64.1 L-36.0 -63.65 Q-32.45 -61.05 -21.6 -61.3 L-17.35 -61.5 -5.75 -62.65 Q-3.2 -63.0 -1.4 -64.4 L-1.25 -66.0 -0.75 -66.0 -0.75 -79.5 28.6 -72.9 25.0 -72.15 24.5 -72.0 19.25 -54.0" fill="#974012" fill-rule="evenodd" stroke="none"/>
    <path d="M67.75 -64.15 L68.1 -64.0 67.35 -32.65 64.5 -33.75 32.1 -42.75 21.85 -42.65 19.5 -41.65 19.1 -53.9 19.1 -54.0 19.25 -54.0 67.75 -64.15" fill="#8d3a0f" fill-rule="evenodd" stroke="none"/>
    <path d="M64.5 -33.75 L67.35 -32.65 Q72.75 -32.45 79.6 -22.5 L83.25 -12.9 84.5 0.1 Q83.05 15.9 80.35 19.0 L78.35 17.6 75.85 17.35 77.75 12.0 77.85 10.35 79.1 1.85 78.1 -8.75 75.1 -16.65 69.85 -22.65 63.0 -25.75 54.85 -25.4 50.75 -23.4 46.0 -25.15 40.35 -24.5 44.25 -28.25 49.85 -31.15 54.85 -33.4 64.5 -33.75" fill="#848484" fill-rule="evenodd" stroke="none"/>
    <path d="M75.85 17.35 L74.1 22.35 68.6 31.5 64.0 36.1 Q42.85 52.1 32.75 36.1 L29.0 28.1 27.75 16.85 29.1 6.1 33.1 -5.0 39.1 -14.4 46.75 -21.5 50.75 -23.4 54.85 -25.4 63.0 -25.75 69.85 -22.65 75.1 -16.65 78.1 -8.75 79.1 1.85 77.85 10.35 77.75 12.0 75.85 17.35 M36.0 49.75 L44.5 52.0 Q57.15 50.5 56.1 49.0 L61.35 46.1 61.5 48.1 29.65 59.85 Q30.75 59.4 25.75 57.25 L6.85 64.1 Q7.3 65.8 15.0 65.25 L-22.75 79.25 -22.65 70.85 36.0 49.75 M-89.0 10.35 L-89.25 12.0 -90.5 12.75 -91.4 12.85 -92.15 12.35 -93.15 10.35 -93.4 7.6 -92.75 6.6 -92.15 6.5 -90.65 6.6 -90.0 7.35 -89.0 10.35" fill="#000000" fill-rule="evenodd" stroke="none"/>
    <path d="M40.35 -24.5 L35.5 -20.15 28.0 -8.5 23.25 4.6 21.25 19.1 22.85 32.5 27.6 42.75 34.6 49.0 34.75 49.25 3.1 35.75 -4.0 29.35 -9.0 18.85 -10.75 7.0 -9.15 -6.65 -4.15 -19.9 3.0 -30.5 11.5 -38.0 17.25 -40.65 49.85 -31.15 44.25 -28.25 40.35 -24.5" fill="#676767" fill-rule="evenodd" stroke="none"/>
    <path d="M80.35 19.0 Q72.8 37.9 65.5 42.6 L63.5 44.75 61.35 46.1 56.1 49.0 Q57.15 50.5 44.5 52.0 L36.0 49.75 34.75 49.25 34.6 49.0 27.6 42.75 22.85 32.5 21.25 19.1 23.25 4.6 28.0 -8.5 35.5 -20.15 40.35 -24.5 46.0 -25.15 50.75 -23.4 46.75 -21.5 39.1 -14.4 33.1 -5.0 29.1 6.1 27.75 16.85 29.0 28.1 32.75 36.1 Q42.85 52.1 64.0 36.1 L68.6 31.5 74.1 22.35 75.85 17.35 78.35 17.6 80.35 19.0" fill="#818181" fill-rule="evenodd" stroke="none"/>
    <path d="M19.5 -41.65 L21.85 -42.65 32.1 -42.75 64.5 -33.75 54.85 -33.4 49.85 -31.15 17.25 -40.65 19.5 -41.65" fill="#b7b7b7" fill-rule="evenodd" stroke="none"/>
    <path d="M19.1 -53.9 L19.5 -41.65 17.25 -40.65 11.5 -38.0 3.0 -30.5 -4.15 -19.9 -9.15 -6.65 -10.75 7.0 -9.0 18.85 -4.0 29.35 3.1 35.75 34.75 49.25 36.0 49.75 -22.65 70.85 -22.75 79.25 15.0 65.25 22.35 64.25 Q29.6 62.15 28.35 61.85 L29.75 60.85 29.6 59.85 29.65 59.85 61.5 48.1 61.35 46.1 63.5 44.75 65.5 42.6 Q65.85 47.5 65.25 50.85 L-27.9 85.75 -31.0 -43.5 19.1 -53.9" fill="#82330c" fill-rule="evenodd" stroke="none"/>
    <path d="M29.65 59.85 L29.6 59.85 29.75 60.85 28.35 61.85 Q29.6 62.15 22.35 64.25 L15.0 65.25 Q7.3 65.8 6.85 64.1 L25.75 57.25 Q30.75 59.4 29.65 59.85" fill="#68bfdb" fill-rule="evenodd" stroke="none"/>
    <path d="M-38.0 -77.15 L-38.05 -80.0 -38.0 -80.0 -38.0 -77.15" fill="#6d6d6d" fill-rule="evenodd" stroke="none"/>
    <path d="M-44.25 34.25 L-43.9 36.1 Q-43.85 39.1 -45.5 40.1 L-68.75 47.35 -67.9 46.85 -67.25 45.85 -66.9 44.35 -67.15 41.0 -44.25 34.25 M-72.25 34.1 L-69.65 33.25 -59.15 30.35 -71.65 34.1 -72.25 34.1 M-92.5 3.25 L-91.65 2.85 -83.0 0.85 -92.0 3.25 -92.5 3.25" fill="#8c0000" fill-rule="evenodd" stroke="none"/>
    <path d="M-27.9 85.75 L-98.75 47.1 -105.4 -66.15 -31.0 -43.5 -27.9 85.75 M-85.25 -11.75 Q-88.65 -11.2 -90.0 -7.9 L-91.5 -2.5 -91.65 2.85 -92.5 3.25 Q-95.35 4.4 -93.9 10.35 L-92.5 13.75 -86.25 19.25 -86.0 19.6 -83.75 22.75 -82.9 23.25 -80.9 24.85 -79.0 25.35 -69.65 33.25 -72.25 34.1 -73.5 34.6 -74.25 36.1 Q-75.75 44.7 -68.75 47.35 L-45.5 40.1 Q-43.85 39.1 -43.9 36.1 L-44.25 34.25 Q-43.65 33.65 -46.0 29.35 L-59.4 18.35 -59.0 18.1 -57.65 13.85 -57.4 7.6 -57.75 5.5 -58.4 1.35 -59.65 -2.5 Q-64.85 -14.45 -70.75 -14.65 L-73.4 -14.65 -85.25 -11.75" fill="#5d1d02" fill-rule="evenodd" stroke="none"/>
    <path d="M-59.4 18.35 L-46.0 29.35 Q-43.65 33.65 -44.25 34.25 L-67.15 41.0 -67.9 38.1 -69.0 36.1 -70.4 34.75 -71.65 34.1 -59.15 30.35 -58.15 30.25 -90.5 3.75 -92.0 3.25 -83.0 0.85 -81.75 0.75 -80.5 1.5 -71.0 9.1 -59.4 18.35" fill="#da0000" fill-rule="evenodd" stroke="none"/>
    <path d="M-85.25 -11.75 L-73.4 -14.65 -70.75 -14.65 -83.65 -11.5 -85.25 -11.75 M-57.75 5.5 L-57.4 7.6 -57.65 13.85 -59.0 18.1 -59.4 18.35 -71.0 9.1 -70.9 8.75 -57.75 5.5" fill="#797979" fill-rule="evenodd" stroke="none"/>
    <path d="M-91.65 2.85 L-91.5 -2.5 -90.0 -7.9 Q-88.65 -11.2 -85.25 -11.75 L-83.65 -11.5 Q-78.6 -11.05 -74.25 -2.5 L-73.0 0.0 Q-70.6 7.1 -70.9 8.75 L-71.0 9.1 -80.5 1.5 -81.75 0.75 -83.0 0.85 -91.65 2.85 M-79.0 25.35 L-80.9 24.85 -82.9 23.25 -83.75 22.75 -86.0 19.6 -85.9 19.6 -79.0 25.35" fill="#636363" fill-rule="evenodd" stroke="none"/>
    <path d="M-70.75 -14.65 Q-64.85 -14.45 -59.65 -2.5 L-58.4 1.35 -57.75 5.5 -70.9 8.75 Q-70.6 7.1 -73.0 0.0 L-74.25 -2.5 Q-78.6 -11.05 -83.65 -11.5 L-70.75 -14.65" fill="#b0b0b0" fill-rule="evenodd" stroke="none"/>
    <path d="M-68.75 47.35 Q-75.75 44.7 -74.25 36.1 L-73.5 34.6 -72.25 34.1 -71.65 34.1 -70.4 34.75 -69.0 36.1 -67.9 38.1 -67.15 41.0 -66.9 44.35 -67.25 45.85 -67.9 46.85 -68.75 47.35 M-69.65 33.25 L-79.0 25.35 -85.9 19.6 -86.25 19.25 -92.5 13.75 -93.9 10.35 Q-95.35 4.4 -92.5 3.25 L-92.0 3.25 -90.5 3.75 -58.15 30.25 -59.15 30.35 -69.65 33.25 M-89.0 10.35 L-90.0 7.35 -90.65 6.6 -92.15 6.5 -92.75 6.6 -93.4 7.6 -93.15 10.35 -92.15 12.35 -91.4 12.85 -90.5 12.75 -89.25 12.0 -89.0 10.35" fill="#7c0000" fill-rule="evenodd" stroke="none"/>
    <path d="M-86.0 19.6 L-86.25 19.25 -85.9 19.6 -86.0 19.6" fill="#dd0000" fill-rule="evenodd" stroke="none"/>
  </g>
</svg>
