<?xml version="1.0" encoding="UTF-8" standalone="no"?>
<svg xmlns:xlink="http://www.w3.org/1999/xlink" height="165.75px" width="189.9px" xmlns="http://www.w3.org/2000/svg">
  <g transform="matrix(1.0, 0.0, 0.0, 1.0, 105.4, 80.0)">
    <path d="M67.75 -64.15 L19.25 -54.0 24.5 -72.0 25.0 -72.15 28.6 -72.9 67.75 -64.15" fill="#a54916" fill-rule="evenodd" stroke="none"/>
    <path d="M19.25 -54.0 L19.1 -54.0 19.1 -53.9 -31.0 -43.5 -105.4 -66.15 -38.0 -77.15 -38.0 -66.0 -37.65 -66.0 -37.55 -65.65 Q-37.25 -64.8 -36.55 -64.1 L-36.0 -63.65 Q-32.45 -61.05 -21.6 -61.3 L-17.35 -61.5 -5.75 -62.65 Q-3.2 -63.0 -1.4 -64.4 L-1.25 -66.0 -0.75 -66.0 -0.75 -79.5 28.6 -72.9 25.0 -72.15 24.5 -72.0 19.25 -54.0" fill="#974012" fill-rule="evenodd" stroke="none"/>
    <path d="M67.75 -64.15 L68.1 -64.0 67.35 -32.65 64.5 -33.75 32.1 -42.75 21.85 -42.65 19.5 -41.65 19.1 -53.9 19.1 -54.0 19.25 -54.0 67.75 -64.15" fill="#8d3a0f" fill-rule="evenodd" stroke="none"/>
    <path d="M64.5 -33.75 L67.35 -32.65 Q72.75 -32.45 79.6 -22.5 L83.25 -12.9 84.5 0.1 Q83.05 15.9 80.35 19.0 L78.35 17.6 75.85 17.35 77.75 12.0 77.85 10.35 79.1 1.85 78.1 -8.75 75.1 -16.65 69.85 -22.65 63.0 -25.75 54.85 -25.4 50.75 -23.4 46.0 -25.15 40.35 -24.5 44.25 -28.25 49.85 -31.15 54.85 -33.4 64.5 -33.75" fill="#848484" fill-rule="evenodd" stroke="none"/>
    <path d="M75.85 17.35 L74.1 22.35 68.6 31.5 64.0 36.1 Q42.85 52.1 32.75 36.1 L29.0 28.1 27.75 16.85 29.1 6.1 33.1 -5.0 39.1 -14.4 46.75 -21.5 50.75 -23.4 54.85 -25.4 63.0 -25.75 69.85 -22.65 75.1 -16.65 78.1 -8.75 79.1 1.85 77.85 10.35 77.75 12.0 75.85 17.35 M36.0 49.75 L44.5 52.0 Q57.15 50.5 56.1 49.0 L61.35 46.1 61.5 48.1 31.75 59.1 22.75 58.25 8.5 63.5 Q9.65 65.9 12.6 66.1 L-22.75 79.25 -22.65 70.85 36.0 49.75 M-89.0 10.35 L-89.25 12.0 -90.5 12.75 -91.4 12.85 -92.15 12.35 -93.15 10.35 -93.4 7.6 -92.75 6.6 -92.15 6.5 Q-90.2 5.05 -89.0 10.35" fill="#000000" fill-rule="evenodd" stroke="none"/>
    <path d="M40.35 -24.5 L35.5 -20.15 28.0 -8.5 23.25 4.6 21.25 19.1 22.85 32.5 27.6 42.75 34.6 49.0 34.75 49.25 3.1 35.75 -4.0 29.35 -9.0 18.85 -10.75 7.0 -9.15 -6.65 -4.15 -19.9 3.0 -30.5 11.5 -38.0 17.25 -40.65 49.85 -31.15 44.25 -28.25 40.35 -24.5" fill="#676767" fill-rule="evenodd" stroke="none"/>
    <path d="M80.35 19.0 Q72.8 37.9 65.5 42.6 L63.5 44.75 61.35 46.1 56.1 49.0 Q57.15 50.5 44.5 52.0 L36.0 49.75 34.75 49.25 34.6 49.0 27.6 42.75 22.85 32.5 21.25 19.1 23.25 4.6 28.0 -8.5 35.5 -20.15 40.35 -24.5 46.0 -25.15 50.75 -23.4 46.75 -21.5 39.1 -14.4 33.1 -5.0 29.1 6.1 27.75 16.85 29.0 28.1 32.75 36.1 Q42.85 52.1 64.0 36.1 L68.6 31.5 74.1 22.35 75.85 17.35 78.35 17.6 80.35 19.0" fill="#818181" fill-rule="evenodd" stroke="none"/>
    <path d="M19.5 -41.65 L21.85 -42.65 32.1 -42.75 64.5 -33.75 54.85 -33.4 49.85 -31.15 17.25 -40.65 19.5 -41.65" fill="#b7b7b7" fill-rule="evenodd" stroke="none"/>
    <path d="M19.1 -53.9 L19.5 -41.65 17.25 -40.65 11.5 -38.0 3.0 -30.5 -4.15 -19.9 -9.15 -6.65 -10.75 7.0 -9.0 18.85 -4.0 29.35 3.1 35.75 34.75 49.25 36.0 49.75 -22.65 70.85 -22.75 79.25 12.6 66.1 Q20.55 67.0 32.75 61.85 L34.35 61.0 34.25 60.0 31.75 59.1 61.5 48.1 61.35 46.1 63.5 44.75 65.5 42.6 Q65.85 47.5 65.25 50.85 L-27.9 85.75 -31.0 -43.5 19.1 -53.9" fill="#82330c" fill-rule="evenodd" stroke="none"/>
    <path d="M31.75 59.1 L34.25 60.0 34.35 61.0 32.75 61.85 Q20.55 67.0 12.6 66.1 9.65 65.9 8.5 63.5 L22.75 58.25 31.75 59.1" fill="#68bfdb" fill-rule="evenodd" stroke="none"/>
    <path d="M-38.0 -77.15 L-38.05 -80.0 -38.0 -80.0 -38.0 -77.15" fill="#6d6d6d" fill-rule="evenodd" stroke="none"/>
    <path d="M-27.9 85.75 L-98.75 47.1 -105.4 -66.15 -31.0 -43.5 -27.9 85.75 M-82.25 -20.9 L-83.15 -20.5 -84.15 -19.0 -84.5 -15.4 -83.75 -12.15 -85.25 -11.75 Q-88.65 -11.2 -90.0 -7.9 L-91.5 -2.5 -91.65 1.5 -94.15 5.0 Q-94.75 8.8 -93.9 10.35 -91.7 16.55 -89.25 15.5 L-88.4 15.35 -86.75 18.85 Q-83.7 23.15 -82.9 23.25 L-80.5 25.1 -77.65 25.75 -76.65 25.6 -68.45 23.2 -63.25 21.75 Q-57.4 19.4 -57.5 10.35 L-57.4 7.6 -57.75 5.5 -58.4 1.35 -59.65 -2.5 -61.4 -6.25 -54.4 -13.9 -53.75 -15.4 -53.5 -17.65 Q-53.45 -24.4 -58.65 -26.15 L-60.25 -25.75 -60.4 -25.75 -61.4 -25.5 -61.5 -25.5 -62.5 -25.25 -62.65 -25.25 -63.65 -25.0 -63.75 -25.0 -64.75 -24.75 -64.9 -24.75 -65.9 -24.5 -66.0 -24.5 -67.0 -24.25 -67.15 -24.25 -68.15 -24.0 -68.25 -24.0 -70.4 -23.5 -70.5 -23.5 -73.75 -22.75 -73.9 -22.75 -76.0 -22.25 -76.15 -22.25 -77.15 -22.0 -77.25 -22.0 -78.25 -21.75 -78.4 -21.75 -79.4 -21.5 -79.5 -21.5 -80.5 -21.25 -80.65 -21.25 -81.65 -21.0 -81.75 -21.0 -82.25 -20.9" fill="#5d1d02" fill-rule="evenodd" stroke="none"/>
    <path d="M-89.25 15.5 L-65.4 -10.65 -78.75 -7.5 -77.75 -8.4 -77.15 -9.65 -76.9 -12.15 -53.5 -17.65 -53.75 -15.4 -54.4 -13.9 -61.4 -6.25 -71.65 4.85 -79.5 13.0 -88.4 15.35 -89.25 15.5 M-81.75 -20.9 L-82.25 -20.9 -81.75 -21.0 -81.75 -20.9" fill="#840000" fill-rule="evenodd" stroke="none"/>
    <path d="M-83.75 -12.15 L-84.5 -15.4 -84.15 -19.0 -83.15 -20.5 -82.25 -20.9 -81.75 -20.9 -80.0 -20.25 -78.9 -18.9 -77.25 -15.4 -76.9 -12.15 -77.15 -9.65 -77.75 -8.4 -78.75 -7.5 -65.4 -10.65 -89.25 15.5 Q-91.7 16.55 -93.9 10.35 -94.75 8.8 -94.15 5.0 L-91.65 1.5 -82.25 -9.15 -83.65 -11.5 -83.75 -12.15 M-89.0 10.35 Q-90.2 5.05 -92.15 6.5 L-92.75 6.6 -93.4 7.6 -93.15 10.35 -92.15 12.35 -91.4 12.85 -90.5 12.75 -89.25 12.0 -89.0 10.35" fill="#7c0000" fill-rule="evenodd" stroke="none"/>
    <path d="M-76.9 -12.15 L-77.25 -15.4 -78.9 -18.9 -80.0 -20.25 -81.75 -20.9 -81.75 -21.0 -81.65 -21.0 -80.65 -21.25 -80.5 -21.25 -79.5 -21.5 -79.4 -21.5 -78.4 -21.75 -78.25 -21.75 -77.25 -22.0 -77.15 -22.0 -76.15 -22.25 -76.0 -22.25 -73.9 -22.75 -73.75 -22.75 -70.5 -23.5 -70.4 -23.5 -68.25 -24.0 -68.15 -24.0 -67.15 -24.25 -67.0 -24.25 -66.0 -24.5 -65.9 -24.5 -64.9 -24.75 -64.75 -24.75 -63.75 -25.0 -63.65 -25.0 -62.65 -25.25 -62.5 -25.25 -61.5 -25.5 -61.4 -25.5 -60.4 -25.75 -60.25 -25.75 -58.65 -26.15 Q-53.45 -24.4 -53.5 -17.65 L-76.9 -12.15" fill="#ce0000" fill-rule="evenodd" stroke="none"/>
    <path d="M-61.4 -6.25 L-59.65 -2.5 -58.4 1.35 -57.75 5.5 -70.9 8.75 -71.65 4.85 -61.4 -6.25 M-68.45 23.2 L-76.65 25.6 -75.15 25.0 -68.45 23.2" fill="#b0b0b0" fill-rule="evenodd" stroke="none"/>
    <path d="M-83.65 -11.5 L-82.25 -9.15 -91.65 1.5 -91.5 -2.5 -90.0 -7.9 Q-88.65 -11.2 -85.25 -11.75 L-83.65 -11.5 M-76.65 25.6 L-77.65 25.75 -80.5 25.1 -82.9 23.25 Q-83.7 23.15 -86.75 18.85 L-88.4 15.35 -79.5 13.0 -71.65 4.85 -70.9 8.75 -70.65 10.35 -70.75 17.35 Q-71.95 22.9 -73.4 23.25 L-74.15 24.5 -75.15 25.0 -76.65 25.6" fill="#636363" fill-rule="evenodd" stroke="none"/>
    <path d="M-83.75 -12.15 L-83.65 -11.5 -85.25 -11.75 -83.75 -12.15 M-57.75 5.5 L-57.4 7.6 -57.5 10.35 Q-57.4 19.4 -63.25 21.75 L-68.45 23.2 -75.15 25.0 -74.15 24.5 -73.4 23.25 Q-71.95 22.9 -70.75 17.35 L-70.65 10.35 -70.9 8.75 -57.75 5.5" fill="#797979" fill-rule="evenodd" stroke="none"/>
  </g>
</svg>
