<?xml version="1.0" encoding="UTF-8" standalone="no"?>
<svg xmlns:xlink="http://www.w3.org/1999/xlink" height="165.75px" width="189.9px" xmlns="http://www.w3.org/2000/svg">
  <g transform="matrix(1.0, 0.0, 0.0, 1.0, 105.4, 80.0)">
    <path d="M67.75 -64.15 L19.25 -54.0 24.5 -72.0 25.0 -72.15 28.6 -72.9 67.75 -64.15" fill="#a54916" fill-rule="evenodd" stroke="none"/>
    <path d="M19.25 -54.0 L19.1 -54.0 19.1 -53.9 -31.0 -43.5 -105.4 -66.15 -38.0 -77.15 -38.0 -66.0 -37.65 -66.0 -37.55 -65.65 Q-37.25 -64.8 -36.55 -64.1 L-36.0 -63.65 Q-32.45 -61.05 -21.6 -61.3 L-17.35 -61.5 -5.75 -62.65 Q-3.2 -63.0 -1.4 -64.4 L-1.25 -66.0 -0.75 -66.0 -0.75 -79.5 28.6 -72.9 25.0 -72.15 24.5 -72.0 19.25 -54.0" fill="#974012" fill-rule="evenodd" stroke="none"/>
    <path d="M67.75 -64.15 L68.1 -64.0 67.35 -32.65 64.5 -33.75 32.1 -42.75 21.85 -42.65 19.5 -41.65 19.1 -53.9 19.1 -54.0 19.25 -54.0 67.75 -64.15" fill="#8d3a0f" fill-rule="evenodd" stroke="none"/>
    <path d="M64.5 -33.75 L67.35 -32.65 Q72.75 -32.45 79.6 -22.5 L83.25 -12.9 84.5 0.1 Q83.05 15.9 80.35 19.0 L78.35 17.6 75.85 17.35 77.75 12.0 77.85 10.35 79.1 1.85 78.1 -8.75 75.1 -16.65 69.85 -22.65 63.0 -25.75 54.85 -25.4 50.75 -23.4 46.0 -25.15 40.35 -24.5 44.25 -28.25 49.85 -31.15 54.85 -33.4 64.5 -33.75" fill="#848484" fill-rule="evenodd" stroke="none"/>
    <path d="M75.85 17.35 L74.1 22.35 68.6 31.5 64.0 36.1 Q42.85 52.1 32.75 36.1 L29.0 28.1 27.75 16.85 29.1 6.1 33.1 -5.0 39.1 -14.4 46.75 -21.5 50.75 -23.4 54.85 -25.4 63.0 -25.75 69.85 -22.65 75.1 -16.65 78.1 -8.75 79.1 1.85 77.85 10.35 77.75 12.0 75.85 17.35 M36.0 49.75 L41.5 51.35 -13.0 71.25 -11.4 72.5 -10.65 72.6 9.5 63.35 10.0 63.35 12.75 66.1 -22.75 79.25 -22.65 70.85 36.0 49.75 M45.85 51.75 L53.75 50.5 61.35 46.1 61.5 48.1 31.1 59.35 22.25 58.75 45.85 51.75 M-90.0 7.25 L-89.0 10.35 -89.25 12.0 -90.5 12.75 -91.4 12.85 -92.15 12.35 -93.15 10.35 -93.4 7.6 -92.75 6.6 -92.15 6.5 -90.75 6.5 -90.0 7.25" fill="#000000" fill-rule="evenodd" stroke="none"/>
    <path d="M40.35 -24.5 L35.5 -20.15 28.0 -8.5 23.25 4.6 21.25 19.1 22.85 32.5 27.6 42.75 34.6 49.0 34.75 49.25 3.1 35.75 -4.0 29.35 -9.0 18.85 -10.75 7.0 -9.15 -6.65 -4.15 -19.9 3.0 -30.5 11.5 -38.0 17.25 -40.65 49.85 -31.15 44.25 -28.25 40.35 -24.5" fill="#676767" fill-rule="evenodd" stroke="none"/>
    <path d="M80.35 19.0 Q72.8 37.9 65.5 42.6 L63.5 44.75 61.35 46.1 53.75 50.5 45.85 51.75 43.75 52.0 41.5 51.35 36.0 49.75 34.75 49.25 34.6 49.0 27.6 42.75 22.85 32.5 21.25 19.1 23.25 4.6 28.0 -8.5 35.5 -20.15 40.35 -24.5 46.0 -25.15 50.75 -23.4 46.75 -21.5 39.1 -14.4 33.1 -5.0 29.1 6.1 27.75 16.85 29.0 28.1 32.75 36.1 Q42.85 52.1 64.0 36.1 L68.6 31.5 74.1 22.35 75.85 17.35 78.35 17.6 80.35 19.0" fill="#818181" fill-rule="evenodd" stroke="none"/>
    <path d="M19.5 -41.65 L21.85 -42.65 32.1 -42.75 64.5 -33.75 54.85 -33.4 49.85 -31.15 17.25 -40.65 19.5 -41.65" fill="#b7b7b7" fill-rule="evenodd" stroke="none"/>
    <path d="M19.1 -53.9 L19.5 -41.65 17.25 -40.65 11.5 -38.0 3.0 -30.5 -4.15 -19.9 -9.15 -6.65 -10.75 7.0 -9.0 18.85 -4.0 29.35 3.1 35.75 34.75 49.25 36.0 49.75 -22.65 70.85 -22.75 79.25 12.75 66.1 Q16.1 67.4 22.5 65.5 L33.1 61.85 Q41.35 59.35 31.1 59.35 L61.5 48.1 61.35 46.1 63.5 44.75 65.5 42.6 Q65.85 47.5 65.25 50.85 L-27.9 85.75 -31.0 -43.5 19.1 -53.9" fill="#82330c" fill-rule="evenodd" stroke="none"/>
    <path d="M41.5 51.35 L43.75 52.0 45.85 51.75 22.25 58.75 31.1 59.35 Q41.35 59.35 33.1 61.85 L22.5 65.5 Q16.1 67.4 12.75 66.1 L10.0 63.35 9.5 63.35 -10.65 72.6 -11.4 72.5 -13.0 71.25 41.5 51.35" fill="#68bfdb" fill-rule="evenodd" stroke="none"/>
    <path d="M-38.0 -77.15 L-38.05 -80.0 -38.0 -80.0 -38.0 -77.15" fill="#6d6d6d" fill-rule="evenodd" stroke="none"/>
    <path d="M-92.65 -35.0 L-92.9 -38.5 -93.9 -41.15 -95.0 -42.9 -96.65 -44.0 -73.75 -48.4 Q-70.0 -47.8 -69.25 -41.15 L-69.25 -39.65 -92.65 -35.0 M-88.75 15.25 L-88.5 15.25 -88.5 15.35 -89.0 15.35 -88.75 15.25" fill="#ce0000" fill-rule="evenodd" stroke="none"/>
    <path d="M-27.9 85.75 L-98.75 47.1 -105.4 -66.15 -31.0 -43.5 -27.9 85.75 M-97.5 -44.0 L-98.65 -43.5 -99.4 -42.4 -99.65 -41.15 Q-99.4 -30.35 -94.65 -30.75 L-88.4 -32.0 -94.4 6.75 -93.9 10.35 Q-92.35 16.1 -89.0 15.35 L-88.5 15.35 -86.25 19.5 Q-82.95 24.1 -82.9 23.25 L-80.5 25.1 -77.65 25.75 -76.65 25.6 -68.45 23.2 -63.25 21.75 Q-57.4 19.4 -57.5 10.35 L-57.4 7.6 -57.75 5.5 -58.4 1.35 -59.65 -2.5 Q-64.85 -14.45 -70.75 -14.65 L-73.4 -14.65 -73.5 -14.65 -69.25 -39.65 -69.25 -41.15 Q-70.0 -47.8 -73.75 -48.4 L-75.9 -48.25 -97.5 -44.0" fill="#5d1d02" fill-rule="evenodd" stroke="none"/>
    <path d="M-96.65 -44.0 L-97.5 -44.0 -75.9 -48.25 -73.75 -48.4 -96.65 -44.0 M-94.65 -30.75 L-93.75 -31.25 -93.0 -32.4 -92.65 -35.0 -69.25 -39.65 -73.5 -14.65 -73.5 -14.5 -73.65 -14.0 -75.25 -4.0 -75.65 -2.5 -77.9 10.35 -78.75 12.5 -82.25 13.6 -82.4 13.6 -82.75 13.75 -84.15 14.1 -84.25 14.1 -84.65 14.25 -84.75 14.25 -86.15 14.6 -86.5 14.75 -86.65 14.75 -88.5 15.25 -88.75 15.25 -88.0 14.35 -87.5 12.75 -79.85 -34.2 Q-80.85 -33.1 -88.4 -32.0 L-94.65 -30.75" fill="#910000" fill-rule="evenodd" stroke="none"/>
    <path d="M-96.65 -44.0 L-95.0 -42.9 -93.9 -41.15 -92.9 -38.5 -92.65 -35.0 -93.0 -32.4 -93.75 -31.25 -94.65 -30.75 Q-99.4 -30.35 -99.65 -41.15 L-99.4 -42.4 -98.65 -43.5 -97.5 -44.0 -96.65 -44.0 M-88.4 -32.0 Q-80.85 -33.1 -79.85 -34.2 L-87.5 12.75 -88.0 14.35 -88.75 15.25 -89.0 15.35 Q-92.35 16.1 -93.9 10.35 L-94.4 6.75 -88.4 -32.0 M-90.0 7.25 L-90.75 6.5 -92.15 6.5 -92.75 6.6 -93.4 7.6 -93.15 10.35 -92.15 12.35 -91.4 12.85 -90.5 12.75 -89.25 12.0 -89.0 10.35 -90.0 7.25" fill="#7c0000" fill-rule="evenodd" stroke="none"/>
    <path d="M-73.65 -14.0 L-73.5 -14.5 -73.4 -14.65 -70.75 -14.65 -73.65 -14.0 M-57.75 5.5 L-57.4 7.6 -57.5 10.35 Q-57.4 19.4 -63.25 21.75 L-68.45 23.2 -75.15 25.0 -74.15 24.5 -73.4 23.25 Q-71.95 22.9 -70.75 17.35 L-70.65 10.35 -70.9 8.75 -57.75 5.5" fill="#797979" fill-rule="evenodd" stroke="none"/>
    <path d="M-73.5 -14.5 L-73.5 -14.65 -73.4 -14.65 -73.5 -14.5" fill="#777777" fill-rule="evenodd" stroke="none"/>
    <path d="M-75.25 -4.0 L-73.65 -14.0 -70.75 -14.65 Q-64.85 -14.45 -59.65 -2.5 L-58.4 1.35 -57.75 5.5 -70.9 8.75 Q-70.6 7.1 -73.0 0.0 L-74.25 -2.5 -75.25 -4.0 M-68.45 23.2 L-76.65 25.6 -75.15 25.0 -68.45 23.2" fill="#b0b0b0" fill-rule="evenodd" stroke="none"/>
    <path d="M-88.5 15.25 L-86.65 14.75 -86.5 14.75 -86.15 14.6 -84.75 14.25 -84.65 14.25 -84.25 14.1 -84.15 14.1 -82.75 13.75 -82.4 13.6 -82.25 13.6 -78.75 12.5 -77.9 10.35 -75.65 -2.5 -75.25 -4.0 -74.25 -2.5 -73.0 0.0 Q-70.6 7.1 -70.9 8.75 L-70.65 10.35 -70.75 17.35 Q-71.95 22.9 -73.4 23.25 L-74.15 24.5 -75.15 25.0 -76.65 25.6 -77.65 25.75 -80.5 25.1 -82.9 23.25 Q-82.95 24.1 -86.25 19.5 L-88.5 15.35 -88.5 15.25" fill="#636363" fill-rule="evenodd" stroke="none"/>
  </g>
</svg>
