<?xml version="1.0" encoding="UTF-8" standalone="no"?>
<svg xmlns:xlink="http://www.w3.org/1999/xlink" height="199.15px" width="121.05px" xmlns="http://www.w3.org/2000/svg">
  <g transform="matrix(1.0, 0.0, 0.0, 1.0, -12.95, 104.3)">
    <path d="M21.5 -32.05 L21.6 -32.05 21.75 -35.65 26.35 -57.8 34.5 -76.9 45.6 -91.15 60.5 -101.05 75.85 -104.3 91.85 -101.3 106.5 -92.3 118.1 -78.55 119.0 -77.3 127.5 -58.65 132.5 -37.15 134.0 -12.3 Q134.15 16.2 119.1 47.2 L117.5 50.45 105.75 64.1 90.0 73.1 88.35 73.45 87.35 70.85 86.1 68.95 Q85.5 66.0 76.85 61.35 L66.25 56.1 Q59.15 51.25 40.35 55.2 L37.0 51.35 33.25 43.2 32.75 42.35 28.75 33.95 27.1 28.6 27.0 28.6 27.1 28.35 25.35 21.45 25.25 21.45 25.25 21.2 25.35 20.2 24.75 17.95 24.75 17.45 24.5 14.2 23.6 11.45 24.25 9.95 24.5 7.7 24.35 4.6 23.85 1.85 24.5 -2.9 24.25 -8.3 23.85 -10.05 Q24.5 -13.85 24.1 -17.9 L22.5 -25.05 22.0 -29.15 22.1 -30.55 21.6 -30.55 21.5 -30.9 21.5 -32.05" fill="#b19771" fill-rule="evenodd" stroke="none"/>
    <path d="M32.75 42.35 L33.25 43.2 37.0 51.35 40.35 55.2 Q59.15 51.25 66.25 56.1 L76.85 61.35 Q85.5 66.0 86.1 68.95 L87.35 70.85 88.35 73.45 90.0 73.1 90.1 74.6 89.5 76.7 Q93.8 95.1 85.85 94.45 66.75 96.5 23.6 87.85 L15.75 84.6 Q12.6 83.05 13.0 80.1 16.1 66.95 30.25 59.35 19.25 54.6 32.75 42.35" fill="#573f70" fill-rule="evenodd" stroke="none"/>
    <path d="M21.5 -32.05 L21.5 -30.9 21.6 -30.55 22.0 -29.15 22.5 -25.05 24.1 -17.9 Q24.5 -13.85 23.85 -10.05 L24.25 -8.3 24.5 -2.9 23.85 1.85 24.35 4.6 24.5 7.7 24.25 9.95 23.6 11.45 24.5 14.2 24.75 17.45 24.75 17.95 25.35 20.2 25.25 21.2 25.25 21.45 25.35 21.45 27.1 28.35 27.0 28.6 26.5 29.45 25.6 29.7 24.25 27.85 Q18.1 53.2 20.0 26.6 18.05 24.9 20.85 14.45 L20.85 14.2 21.1 12.6 21.1 12.45 20.0 10.6 20.0 10.35 19.85 10.2 19.6 8.85 19.5 8.7 19.0 0.7 19.5 -0.8 20.1 -0.8 18.5 -10.8 18.5 -12.05 18.35 -12.4 18.0 -28.15 18.1 -28.3 18.1 -28.65 17.25 -36.65 16.6 -51.8 16.85 -52.8 17.5 -52.3 21.5 -32.05" fill="#5f3f2a" fill-rule="evenodd" stroke="none"/>
    <path d="M21.6 -30.55 L22.1 -30.55 22.0 -29.15 21.6 -30.55" fill="#000000" fill-rule="evenodd" stroke="none"/>
    <path d="M18.5 -10.8 L20.1 -0.8 19.5 -0.8 19.0 0.7 18.35 -5.55 18.5 -10.8 M20.0 10.6 L21.1 12.45 21.1 12.6 20.85 14.2 20.1 12.35 20.0 10.6" fill="#ff488c" fill-rule="evenodd" stroke="none"/>
  </g>
</svg>
