<?xml version="1.0" encoding="UTF-8" standalone="no"?>
<svg xmlns:xlink="http://www.w3.org/1999/xlink" height="165.75px" width="200.85px" xmlns="http://www.w3.org/2000/svg">
  <g transform="matrix(1.0, 0.0, 0.0, 1.0, 116.35, 80.0)">
    <path d="M67.75 -64.15 L19.25 -54.0 24.5 -72.0 25.0 -72.15 28.6 -72.9 67.75 -64.15" fill="#a54916" fill-rule="evenodd" stroke="none"/>
    <path d="M19.25 -54.0 L19.1 -54.0 19.1 -53.9 -31.0 -43.5 -105.4 -66.15 -38.0 -77.15 -38.0 -66.0 -37.65 -66.0 -37.55 -65.65 Q-37.25 -64.8 -36.55 -64.1 L-36.0 -63.65 Q-32.45 -61.05 -21.6 -61.3 L-17.35 -61.5 -5.75 -62.65 Q-3.2 -63.0 -1.4 -64.4 L-1.25 -66.0 -0.75 -66.0 -0.75 -79.5 28.6 -72.9 25.0 -72.15 24.5 -72.0 19.25 -54.0" fill="#974012" fill-rule="evenodd" stroke="none"/>
    <path d="M67.75 -64.15 L68.1 -64.0 67.35 -32.65 64.5 -33.75 32.1 -42.75 21.85 -42.65 19.5 -41.65 19.1 -53.9 19.1 -54.0 19.25 -54.0 67.75 -64.15" fill="#8d3a0f" fill-rule="evenodd" stroke="none"/>
    <path d="M64.5 -33.75 L67.35 -32.65 Q72.75 -32.45 79.6 -22.5 L83.25 -12.9 84.5 0.1 Q83.05 15.9 80.35 19.0 L78.35 17.6 75.85 17.35 77.75 12.0 77.85 10.35 79.1 1.85 78.1 -8.75 75.1 -16.65 69.85 -22.65 63.0 -25.75 54.85 -25.4 50.75 -23.4 46.0 -25.15 40.35 -24.5 44.25 -28.25 49.85 -31.15 54.85 -33.4 64.5 -33.75" fill="#848484" fill-rule="evenodd" stroke="none"/>
    <path d="M75.85 17.35 L74.1 22.35 68.6 31.5 64.0 36.1 Q42.85 52.1 32.75 36.1 L29.0 28.1 27.75 16.85 29.1 6.1 33.1 -5.0 39.1 -14.4 46.75 -21.5 50.75 -23.4 54.85 -25.4 63.0 -25.75 69.85 -22.65 75.1 -16.65 78.1 -8.75 79.1 1.85 77.85 10.35 77.75 12.0 75.85 17.35 M36.0 49.75 L41.5 51.35 3.85 65.1 Q4.6 66.05 0.35 68.25 L-6.15 68.75 -10.5 70.25 -7.9 72.1 -5.65 73.0 -22.75 79.25 -22.65 70.85 36.0 49.75 M47.25 51.5 L53.75 50.5 61.35 46.1 61.5 48.1 50.75 52.1 47.25 51.5 M-89.0 10.35 L-89.25 12.0 -90.5 12.75 -91.4 12.85 -92.15 12.35 -93.15 10.35 -93.4 7.6 -92.75 6.6 -92.15 6.5 -90.65 6.6 -90.0 7.35 -89.0 10.35" fill="#000000" fill-rule="evenodd" stroke="none"/>
    <path d="M40.35 -24.5 L35.5 -20.15 28.0 -8.5 23.25 4.6 21.25 19.1 22.85 32.5 27.6 42.75 34.6 49.0 34.75 49.25 3.1 35.75 -4.0 29.35 -9.0 18.85 -10.75 7.0 -9.15 -6.65 -4.15 -19.9 3.0 -30.5 11.5 -38.0 17.25 -40.65 49.85 -31.15 44.25 -28.25 40.35 -24.5" fill="#676767" fill-rule="evenodd" stroke="none"/>
    <path d="M80.35 19.0 Q72.8 37.9 65.5 42.6 L63.5 44.75 61.35 46.1 53.75 50.5 47.25 51.5 43.85 52.0 41.5 51.35 36.0 49.75 34.75 49.25 34.6 49.0 27.6 42.75 22.85 32.5 21.25 19.1 23.25 4.6 28.0 -8.5 35.5 -20.15 40.35 -24.5 46.0 -25.15 50.75 -23.4 46.75 -21.5 39.1 -14.4 33.1 -5.0 29.1 6.1 27.75 16.85 29.0 28.1 32.75 36.1 Q42.85 52.1 64.0 36.1 L68.6 31.5 74.1 22.35 75.85 17.35 78.35 17.6 80.35 19.0" fill="#818181" fill-rule="evenodd" stroke="none"/>
    <path d="M19.5 -41.65 L21.85 -42.65 32.1 -42.75 64.5 -33.75 54.85 -33.4 49.85 -31.15 17.25 -40.65 19.5 -41.65" fill="#b7b7b7" fill-rule="evenodd" stroke="none"/>
    <path d="M19.1 -53.9 L19.5 -41.65 17.25 -40.65 11.5 -38.0 3.0 -30.5 -4.15 -19.9 -9.15 -6.65 -10.75 7.0 -9.0 18.85 -4.0 29.35 3.1 35.75 34.75 49.25 36.0 49.75 -22.65 70.85 -22.75 79.25 -5.65 73.0 2.75 72.75 59.45 51.55 50.75 52.1 61.5 48.1 61.35 46.1 63.5 44.75 65.5 42.6 Q65.85 47.5 65.25 50.85 L-27.9 85.75 -31.0 -43.5 19.1 -53.9" fill="#82330c" fill-rule="evenodd" stroke="none"/>
    <path d="M41.5 51.35 L43.85 52.0 47.25 51.5 50.75 52.1 59.45 51.55 2.75 72.75 -5.65 73.0 -7.9 72.1 -10.5 70.25 -6.15 68.75 0.35 68.25 Q4.6 66.05 3.85 65.1 L41.5 51.35" fill="#68bfdb" fill-rule="evenodd" stroke="none"/>
    <path d="M-38.0 -77.15 L-38.05 -80.0 -38.0 -80.0 -38.0 -77.15" fill="#6d6d6d" fill-rule="evenodd" stroke="none"/>
    <path d="M-75.15 25.0 L-74.15 24.5 -73.4 23.25 Q-71.95 22.9 -70.75 17.35 L-70.65 10.35 -70.9 8.75 -57.75 5.5 -57.4 7.6 -57.5 10.35 Q-57.4 19.4 -63.25 21.75 L-66.2 22.6 -68.45 23.2 -75.15 25.0 M-83.65 -11.5 L-85.25 -11.75 -73.4 -14.65 -70.75 -14.65 -83.65 -11.5" fill="#797979" fill-rule="evenodd" stroke="none"/>
    <path d="M-27.9 85.75 L-88.9 52.6 -81.5 24.5 Q-80.45 25.35 -77.65 25.75 L-76.65 25.6 -68.45 23.2 -66.2 22.6 -63.25 21.75 Q-57.4 19.4 -57.5 10.35 L-57.4 7.6 -57.75 5.5 -58.4 1.35 -59.65 -2.5 Q-64.85 -14.45 -70.75 -14.65 L-73.4 -14.65 -85.25 -11.75 Q-88.65 -11.2 -90.0 -7.9 L-91.5 -2.5 -91.65 3.0 -91.9 3.1 -92.9 3.25 -93.9 4.5 -99.65 28.1 -99.75 28.1 -105.4 -66.15 -31.0 -43.5 -27.9 85.75" fill="#5d1d02" fill-rule="evenodd" stroke="none"/>
    <path d="M-99.75 28.35 L-99.75 28.1 -99.65 28.1 -99.75 28.35" fill="#910000" fill-rule="evenodd" stroke="none"/>
    <path d="M-111.15 60.25 L-112.65 60.1 -114.0 59.1 -115.9 55.35 Q-117.15 48.75 -114.9 48.6 L-114.15 48.5 -113.15 49.0 -111.4 51.25 Q-110.35 53.05 -110.0 56.1 L-110.15 58.6 -111.15 60.25 M-103.65 45.1 L-99.75 28.35 -99.65 28.1 -93.9 4.5 -92.9 3.25 -91.9 3.1 Q-87.75 5.2 -87.65 10.35 L-87.5 10.6 -87.65 13.25 -97.4 52.6 -97.75 52.75 -97.75 52.35 -98.5 49.0 Q-99.65 45.95 -100.75 45.5 L-102.65 45.0 -103.65 45.1 M-89.0 10.35 L-90.0 7.35 -90.65 6.6 -92.15 6.5 -92.75 6.6 -93.4 7.6 -93.15 10.35 -92.15 12.35 -91.4 12.85 -90.5 12.75 -89.25 12.0 -89.0 10.35" fill="#7c0000" fill-rule="evenodd" stroke="none"/>
    <path d="M-91.65 3.0 L-91.5 -2.5 -90.0 -7.9 Q-88.65 -11.2 -85.25 -11.75 L-83.65 -11.5 Q-78.6 -11.05 -74.25 -2.5 L-73.0 0.0 Q-70.6 7.1 -70.9 8.75 L-70.65 10.35 -70.75 17.35 Q-71.95 22.9 -73.4 23.25 L-74.15 24.5 -75.15 25.0 -76.65 25.6 -77.65 25.75 Q-80.45 25.35 -81.5 24.5 L-77.9 10.35 -77.75 8.25 -78.25 5.25 Q-78.7 3.45 -80.4 1.75 L-81.0 1.1 -82.65 0.75 -91.65 3.0" fill="#636363" fill-rule="evenodd" stroke="none"/>
    <path d="M-76.65 25.6 L-75.15 25.0 -68.45 23.2 -76.65 25.6 M-70.9 8.75 Q-70.6 7.1 -73.0 0.0 L-74.25 -2.5 Q-78.6 -11.05 -83.65 -11.5 L-70.75 -14.65 Q-64.85 -14.45 -59.65 -2.5 L-58.4 1.35 -57.75 5.5 -70.9 8.75" fill="#b0b0b0" fill-rule="evenodd" stroke="none"/>
    <path d="M-114.15 48.35 L-114.0 48.35 -112.9 48.0 -112.75 48.0 -112.0 47.75 -111.9 47.75 -110.75 47.35 -110.65 47.35 -109.9 47.1 -109.4 47.0 -108.65 46.75 -108.5 46.75 -107.75 46.5 -107.65 46.5 -106.5 46.1 -106.0 46.0 -105.65 45.85 -105.5 45.85 -103.9 45.35 -102.65 45.0 -100.75 45.5 Q-99.65 45.95 -98.5 49.0 L-97.75 52.35 -110.0 56.1 Q-110.35 53.05 -111.4 51.25 L-113.15 49.0 -114.15 48.5 -114.15 48.35 M-91.65 3.0 L-82.65 0.75 -81.0 1.1 -80.4 1.75 Q-78.7 3.45 -78.25 5.25 L-77.75 8.25 -87.5 10.6 -87.65 10.35 Q-87.75 5.2 -91.9 3.1 L-91.65 3.0" fill="#dd0000" fill-rule="evenodd" stroke="none"/>
    <path d="M-88.9 52.6 L-89.75 53.75 -111.15 60.25 -110.15 58.6 -110.0 56.1 -97.75 52.35 -97.75 52.75 -97.4 52.6 -87.65 13.25 -87.5 10.6 -77.75 8.25 -77.9 10.35 -81.5 24.5 -88.9 52.6 M-114.9 48.6 L-114.15 48.35 -114.15 48.5 -114.9 48.6 M-103.9 45.35 L-103.65 45.1 -102.65 45.0 -103.9 45.35" fill="#8e0000" fill-rule="evenodd" stroke="none"/>
  </g>
</svg>
