<?xml version="1.0" encoding="UTF-8" standalone="no"?>
<svg xmlns:xlink="http://www.w3.org/1999/xlink" height="165.75px" width="189.9px" xmlns="http://www.w3.org/2000/svg">
  <g transform="matrix(1.0, 0.0, 0.0, 1.0, 105.4, 80.0)">
    <path d="M67.75 -64.15 L19.25 -54.0 24.5 -72.0 25.0 -72.15 28.6 -72.9 67.75 -64.15" fill="#a54916" fill-rule="evenodd" stroke="none"/>
    <path d="M19.25 -54.0 L19.1 -54.0 19.1 -53.9 -31.0 -43.5 -105.4 -66.15 -38.0 -77.15 -38.0 -66.0 -37.65 -66.0 -37.55 -65.65 Q-37.25 -64.8 -36.55 -64.1 L-36.0 -63.65 Q-32.45 -61.05 -21.6 -61.3 L-17.35 -61.5 -5.75 -62.65 Q-3.2 -63.0 -1.4 -64.4 L-1.25 -66.0 -0.75 -66.0 -0.75 -79.5 28.6 -72.9 25.0 -72.15 24.5 -72.0 19.25 -54.0" fill="#974012" fill-rule="evenodd" stroke="none"/>
    <path d="M67.75 -64.15 L68.1 -64.0 67.35 -32.65 64.5 -33.75 32.1 -42.75 21.85 -42.65 19.5 -41.65 19.1 -53.9 19.1 -54.0 19.25 -54.0 67.75 -64.15" fill="#8d3a0f" fill-rule="evenodd" stroke="none"/>
    <path d="M64.5 -33.75 L67.35 -32.65 Q72.75 -32.45 79.6 -22.5 L83.25 -12.9 84.5 0.1 Q83.05 15.9 80.35 19.0 L78.35 17.6 75.85 17.35 77.75 12.0 77.85 10.35 79.1 1.85 78.1 -8.75 75.1 -16.65 69.85 -22.65 63.0 -25.75 54.85 -25.4 50.75 -23.4 46.0 -25.15 40.35 -24.5 44.25 -28.25 49.85 -31.15 54.85 -33.4 64.5 -33.75" fill="#848484" fill-rule="evenodd" stroke="none"/>
    <path d="M75.85 17.35 L74.1 22.35 68.6 31.5 64.0 36.1 Q42.85 52.1 32.75 36.1 L29.0 28.1 27.75 16.85 29.1 6.1 33.1 -5.0 39.1 -14.4 46.75 -21.5 50.75 -23.4 54.85 -25.4 63.0 -25.75 69.85 -22.65 75.1 -16.65 78.1 -8.75 79.1 1.85 77.85 10.35 77.75 12.0 75.85 17.35 M36.0 49.75 L41.6 51.35 5.5 64.5 6.6 65.1 6.1 67.1 2.6 69.35 -9.75 70.5 -5.4 72.85 -22.75 79.25 -22.65 70.85 36.0 49.75 M46.85 51.6 L53.75 50.5 61.35 46.1 61.5 48.1 50.35 52.1 49.5 51.75 47.25 51.75 46.85 51.6 M-90.0 7.35 L-89.0 10.35 -89.25 12.0 -90.5 12.75 -91.4 12.85 -92.15 12.35 -93.15 10.35 -93.4 7.6 -92.75 6.6 -92.15 6.5 -90.65 6.6 -90.0 7.35" fill="#000000" fill-rule="evenodd" stroke="none"/>
    <path d="M40.35 -24.5 L35.5 -20.15 28.0 -8.5 23.25 4.6 21.25 19.1 22.85 32.5 27.6 42.75 34.6 49.0 34.75 49.25 3.1 35.75 -4.0 29.35 -9.0 18.85 -10.75 7.0 -9.15 -6.65 -4.15 -19.9 3.0 -30.5 11.5 -38.0 17.25 -40.65 49.85 -31.15 44.25 -28.25 40.35 -24.5" fill="#676767" fill-rule="evenodd" stroke="none"/>
    <path d="M80.35 19.0 Q72.8 37.9 65.5 42.6 L63.5 44.75 61.35 46.1 53.75 50.5 46.85 51.6 44.5 52.0 41.6 51.35 36.0 49.75 34.75 49.25 34.6 49.0 27.6 42.75 22.85 32.5 21.25 19.1 23.25 4.6 28.0 -8.5 35.5 -20.15 40.35 -24.5 46.0 -25.15 50.75 -23.4 46.75 -21.5 39.1 -14.4 33.1 -5.0 29.1 6.1 27.75 16.85 29.0 28.1 32.75 36.1 Q42.85 52.1 64.0 36.1 L68.6 31.5 74.1 22.35 75.85 17.35 78.35 17.6 80.35 19.0" fill="#818181" fill-rule="evenodd" stroke="none"/>
    <path d="M19.5 -41.65 L21.85 -42.65 32.1 -42.75 64.5 -33.75 54.85 -33.4 49.85 -31.15 17.25 -40.65 19.5 -41.65" fill="#b7b7b7" fill-rule="evenodd" stroke="none"/>
    <path d="M19.1 -53.9 L19.5 -41.65 17.25 -40.65 11.5 -38.0 3.0 -30.5 -4.15 -19.9 -9.15 -6.65 -10.75 7.0 -9.0 18.85 -4.0 29.35 3.1 35.75 34.75 49.25 36.0 49.75 -22.65 70.85 -22.75 79.25 -5.4 72.85 Q-2.95 74.3 2.75 73.5 L63.1 51.0 Q54.65 53.3 50.5 52.35 L50.35 52.1 61.5 48.1 61.35 46.1 63.5 44.75 65.5 42.6 Q65.85 47.5 65.25 50.85 L-27.9 85.75 -31.0 -43.5 19.1 -53.9" fill="#82330c" fill-rule="evenodd" stroke="none"/>
    <path d="M41.6 51.35 L44.5 52.0 46.85 51.6 47.25 51.75 49.5 51.75 50.35 52.1 50.5 52.35 Q54.65 53.3 63.1 51.0 L2.75 73.5 Q-2.95 74.3 -5.4 72.85 L-9.75 70.5 2.6 69.35 6.1 67.1 6.6 65.1 5.5 64.5 41.6 51.35" fill="#68bfdb" fill-rule="evenodd" stroke="none"/>
    <path d="M-38.0 -77.15 L-38.05 -80.0 -38.0 -80.0 -38.0 -77.15" fill="#6d6d6d" fill-rule="evenodd" stroke="none"/>
    <path d="M-74.75 24.85 L-73.4 23.25 Q-71.95 22.9 -70.75 17.35 L-70.65 10.35 -70.9 8.75 -57.75 5.5 -57.4 7.6 -57.5 10.35 Q-57.4 19.4 -63.25 21.75 L-66.1 22.55 -74.75 24.85 M-83.65 -11.5 L-85.25 -11.75 -73.4 -14.65 -70.75 -14.65 -83.65 -11.5" fill="#797979" fill-rule="evenodd" stroke="none"/>
    <path d="M-27.9 85.75 L-68.65 63.6 -74.9 25.1 -66.1 22.55 -63.25 21.75 Q-57.4 19.4 -57.5 10.35 L-57.4 7.6 -57.75 5.5 -58.4 1.35 -59.65 -2.5 Q-64.85 -14.45 -70.75 -14.65 L-73.4 -14.65 -85.25 -11.75 Q-88.65 -11.2 -90.0 -7.9 L-91.5 -2.5 -91.65 3.0 -91.9 3.1 Q-95.6 4.0 -94.0 10.35 L-86.75 53.5 -86.9 53.5 -98.65 47.25 -98.75 46.85 -105.4 -66.15 -31.0 -43.5 -27.9 85.75" fill="#5d1d02" fill-rule="evenodd" stroke="none"/>
    <path d="M-91.65 3.0 L-91.5 -2.5 -90.0 -7.9 Q-88.65 -11.2 -85.25 -11.75 L-83.65 -11.5 Q-78.6 -11.05 -74.25 -2.5 L-73.0 0.0 Q-70.6 7.1 -70.9 8.75 L-70.65 10.35 -70.75 17.35 Q-71.95 22.9 -73.4 23.25 L-74.75 24.85 -74.9 24.85 -78.25 5.25 Q-79.4 2.3 -81.0 1.1 L-82.0 0.75 -83.15 0.85 -91.65 3.0" fill="#636363" fill-rule="evenodd" stroke="none"/>
    <path d="M-74.9 24.85 L-74.75 24.85 -66.1 22.55 -74.9 25.1 -74.9 24.85 M-70.9 8.75 Q-70.6 7.1 -73.0 0.0 L-74.25 -2.5 Q-78.6 -11.05 -83.65 -11.5 L-70.75 -14.65 Q-64.85 -14.45 -59.65 -2.5 L-58.4 1.35 -57.75 5.5 -70.9 8.75" fill="#b0b0b0" fill-rule="evenodd" stroke="none"/>
    <path d="M-68.65 63.6 L-68.75 63.85 -90.65 71.0 -91.9 66.25 Q-94.2 62.8 -95.25 63.1 L-95.25 63.0 -95.15 63.0 -94.9 62.85 -94.75 62.85 -94.5 62.75 -94.4 62.75 -94.15 62.6 -93.9 62.6 -93.65 62.5 -93.5 62.5 -93.25 62.35 -93.15 62.35 -92.9 62.25 -92.75 62.25 -92.5 62.1 -92.4 62.1 -92.15 62.0 -92.0 62.0 -91.75 61.85 -91.65 61.85 -91.4 61.75 -91.15 61.75 -90.9 61.6 -90.75 61.6 -90.5 61.5 -90.4 61.5 -90.15 61.35 -90.0 61.35 -89.75 61.25 -89.65 61.25 -88.15 60.75 -88.0 60.75 -87.75 60.6 -87.65 60.6 -87.4 60.5 -87.25 60.5 -86.25 60.1 -86.15 60.1 -85.9 60.0 -85.75 60.0 -85.5 59.85 -84.9 59.75 -83.4 59.25 -82.4 59.25 -81.0 60.0 -79.65 61.85 -79.0 63.1 -78.75 63.1 -87.5 10.35 Q-87.65 7.55 -89.75 4.5 L-91.9 3.1 -91.65 3.0 -83.15 0.85 -82.0 0.75 -81.0 1.1 Q-79.4 2.3 -78.25 5.25 L-74.9 24.85 -74.9 25.1 -68.65 63.6" fill="#da0000" fill-rule="evenodd" stroke="none"/>
    <path d="M-91.75 75.25 Q-93.95 76.95 -96.9 70.25 -98.4 64.5 -95.9 63.25 L-95.75 63.1 -95.5 63.1 -95.25 63.1 Q-94.2 62.8 -91.9 66.25 L-90.65 71.0 -90.65 73.1 -91.25 74.75 -91.75 75.25 M-85.75 59.85 L-86.75 53.6 -86.75 53.5 -94.0 10.35 Q-95.6 4.0 -91.9 3.1 L-89.75 4.5 Q-87.65 7.55 -87.5 10.35 L-78.75 63.1 -79.0 63.1 -79.65 61.85 -81.0 60.0 -82.4 59.25 -83.4 59.25 -84.9 59.75 -85.5 59.85 -85.75 59.85 M-90.0 7.35 L-90.65 6.6 -92.15 6.5 -92.75 6.6 -93.4 7.6 -93.15 10.35 -92.15 12.35 -91.4 12.85 -90.5 12.75 -89.25 12.0 -89.0 10.35 -90.0 7.35" fill="#7c0000" fill-rule="evenodd" stroke="none"/>
    <path d="M-86.75 53.6 L-86.9 53.5 -86.75 53.5 -86.75 53.6" fill="#e00000" fill-rule="evenodd" stroke="none"/>
    <path d="M-68.75 63.85 Q-67.95 66.65 -70.4 68.25 L-91.75 75.25 -91.25 74.75 -90.65 73.1 -90.65 71.0 -68.75 63.85 M-95.5 63.1 L-95.25 63.0 -95.25 63.1 -95.5 63.1 M-85.75 60.0 L-85.75 59.85 -85.5 59.85 -85.75 60.0" fill="#8a0000" fill-rule="evenodd" stroke="none"/>
  </g>
</svg>
