<?xml version="1.0" encoding="UTF-8" standalone="no"?>
<svg xmlns:xlink="http://www.w3.org/1999/xlink" height="165.75px" width="189.9px" xmlns="http://www.w3.org/2000/svg">
  <g transform="matrix(1.0, 0.0, 0.0, 1.0, 105.4, 80.0)">
    <path d="M67.75 -64.15 L19.25 -54.0 24.5 -72.0 25.0 -72.15 28.6 -72.9 67.75 -64.15" fill="#a54916" fill-rule="evenodd" stroke="none"/>
    <path d="M19.25 -54.0 L19.1 -54.0 19.1 -53.9 -31.0 -43.5 -105.4 -66.15 -38.0 -77.15 -38.0 -66.0 -37.65 -66.0 -37.55 -65.65 Q-37.25 -64.8 -36.55 -64.1 L-36.0 -63.65 Q-32.45 -61.05 -21.6 -61.3 L-17.35 -61.5 -5.75 -62.65 Q-3.2 -63.0 -1.4 -64.4 L-1.25 -66.0 -0.75 -66.0 -0.75 -79.5 28.6 -72.9 25.0 -72.15 24.5 -72.0 19.25 -54.0" fill="#974012" fill-rule="evenodd" stroke="none"/>
    <path d="M67.75 -64.15 L68.1 -64.0 67.35 -32.65 64.5 -33.75 32.1 -42.75 21.85 -42.65 19.5 -41.65 19.1 -53.9 19.1 -54.0 19.25 -54.0 67.75 -64.15" fill="#8d3a0f" fill-rule="evenodd" stroke="none"/>
    <path d="M64.5 -33.75 L67.35 -32.65 Q72.75 -32.45 79.6 -22.5 L83.25 -12.9 84.5 0.1 Q83.05 15.9 80.35 19.0 L78.35 17.6 75.85 17.35 77.75 12.0 77.85 10.35 79.1 1.85 78.1 -8.75 75.1 -16.65 69.85 -22.65 63.0 -25.75 54.85 -25.4 50.75 -23.4 46.0 -25.15 40.35 -24.5 44.25 -28.25 49.85 -31.15 54.85 -33.4 64.5 -33.75" fill="#848484" fill-rule="evenodd" stroke="none"/>
    <path d="M75.85 17.35 L74.1 22.35 68.6 31.5 64.0 36.1 Q42.85 52.1 32.75 36.1 L29.0 28.1 27.75 16.85 29.1 6.1 33.1 -5.0 39.1 -14.4 46.75 -21.5 50.75 -23.4 54.85 -25.4 63.0 -25.75 69.85 -22.65 75.1 -16.65 78.1 -8.75 79.1 1.85 77.85 10.35 77.75 12.0 75.85 17.35 M36.0 49.75 L41.6 51.35 4.5 64.85 Q6.55 64.85 10.85 66.85 L-4.65 72.6 -4.75 72.6 -22.75 79.25 -22.65 70.85 36.0 49.75 M59.6 47.1 L61.35 46.1 61.5 48.1 60.6 48.35 60.25 47.35 59.6 47.1 M49.35 52.5 L49.0 52.75 48.75 52.5 49.35 52.5 M-89.15 10.35 L-89.25 12.0 -90.5 12.75 -91.4 12.85 -92.15 12.35 -93.15 10.35 -93.4 7.6 -92.75 6.6 -92.15 6.5 Q-89.4 6.3 -89.15 10.35" fill="#000000" fill-rule="evenodd" stroke="none"/>
    <path d="M40.35 -24.5 L35.5 -20.15 28.0 -8.5 23.25 4.6 21.25 19.1 22.85 32.5 27.6 42.75 34.6 49.0 34.75 49.25 3.1 35.75 -4.0 29.35 -9.0 18.85 -10.75 7.0 -9.15 -6.65 -4.15 -19.9 3.0 -30.5 11.5 -38.0 17.25 -40.65 49.85 -31.15 44.25 -28.25 40.35 -24.5" fill="#676767" fill-rule="evenodd" stroke="none"/>
    <path d="M80.35 19.0 Q72.8 37.9 65.5 42.6 L63.5 44.75 61.35 46.1 59.6 47.1 53.75 50.5 44.5 52.0 41.6 51.35 36.0 49.75 34.75 49.25 34.6 49.0 27.6 42.75 22.85 32.5 21.25 19.1 23.25 4.6 28.0 -8.5 35.5 -20.15 40.35 -24.5 46.0 -25.15 50.75 -23.4 46.75 -21.5 39.1 -14.4 33.1 -5.0 29.1 6.1 27.75 16.85 29.0 28.1 32.75 36.1 Q42.85 52.1 64.0 36.1 L68.6 31.5 74.1 22.35 75.85 17.35 78.35 17.6 80.35 19.0" fill="#818181" fill-rule="evenodd" stroke="none"/>
    <path d="M19.5 -41.65 L21.85 -42.65 32.1 -42.75 64.5 -33.75 54.85 -33.4 49.85 -31.15 17.25 -40.65 19.5 -41.65" fill="#b7b7b7" fill-rule="evenodd" stroke="none"/>
    <path d="M19.1 -53.9 L19.5 -41.65 17.25 -40.65 11.5 -38.0 3.0 -30.5 -4.15 -19.9 -9.15 -6.65 -10.75 7.0 -9.0 18.85 -4.0 29.35 3.1 35.75 34.75 49.25 36.0 49.75 -22.65 70.85 -22.75 79.25 -4.75 72.6 0.75 75.0 -27.9 85.75 -31.0 -43.5 19.1 -53.9 M65.5 42.6 L65.5 50.75 57.25 53.85 49.0 52.75 49.35 52.5 57.5 51.6 60.85 50.25 60.75 49.0 60.6 48.35 61.5 48.1 61.35 46.1 63.5 44.75 65.5 42.6 M10.85 66.85 L11.75 67.25 11.25 69.1 7.75 71.1 -4.65 72.6 10.85 66.85" fill="#82330c" fill-rule="evenodd" stroke="none"/>
    <path d="M57.25 53.85 L64.35 54.0 69.85 53.35 44.35 62.35 56.6 59.25 52.6 60.6 52.35 60.75 49.35 61.85 49.1 62.0 48.75 62.1 48.5 62.25 48.1 62.35 46.5 63.0 Q31.05 69.5 30.85 67.5 L10.25 76.1 6.75 76.1 0.75 75.0 -4.75 72.6 -4.65 72.6 7.75 71.1 11.25 69.1 11.75 67.25 10.85 66.85 Q6.55 64.85 4.5 64.85 L41.6 51.35 44.5 52.0 53.75 50.5 59.6 47.1 60.25 47.35 60.6 48.35 60.75 49.0 60.85 50.25 57.5 51.6 49.35 52.5 48.75 52.5 49.0 52.75 57.25 53.85" fill="#68bfdb" fill-rule="evenodd" stroke="none"/>
    <path d="M-38.0 -77.15 L-38.05 -80.0 -38.0 -80.0 -38.0 -77.15" fill="#6d6d6d" fill-rule="evenodd" stroke="none"/>
    <path d="M-43.5 27.0 Q-43.45 31.4 -45.15 32.1 L-68.0 38.85 -67.0 37.75 -66.65 36.1 -66.5 33.6 -43.5 27.0" fill="#890000" fill-rule="evenodd" stroke="none"/>
    <path d="M-27.9 85.75 L-98.75 47.1 -105.4 -66.15 -31.0 -43.5 -27.9 85.75 M-85.25 -11.75 Q-88.65 -11.2 -90.0 -7.9 L-91.5 -2.5 -91.65 3.0 -91.9 3.1 Q-95.4 3.5 -93.9 10.35 -93.1 13.35 -92.0 14.35 L-87.5 17.25 -87.4 17.35 Q-87.95 17.45 -84.25 22.1 L-80.5 25.1 -77.65 25.75 -76.65 25.6 -74.25 25.0 -72.75 25.85 Q-75.85 29.7 -72.65 36.1 L-70.65 38.5 -69.25 39.1 -68.0 38.85 -45.15 32.1 Q-43.45 31.4 -43.5 27.0 L-43.5 25.75 -44.4 23.25 Q-45.45 20.6 -47.25 19.5 L-57.75 13.75 -57.4 7.6 -57.75 5.5 -58.4 1.35 -59.65 -2.5 Q-64.85 -14.45 -70.75 -14.65 L-73.4 -14.65 -85.25 -11.75" fill="#5d1d02" fill-rule="evenodd" stroke="none"/>
    <path d="M-91.65 3.0 L-82.0 0.75 -71.4 6.35 -68.15 8.1 -57.75 13.75 -47.25 19.5 Q-45.45 20.6 -44.4 23.25 L-43.5 25.75 -43.5 27.0 -66.5 33.6 Q-67.25 27.1 -71.5 25.6 L-63.5 23.25 Q-58.7 21.75 -58.0 21.9 L-58.0 21.85 -91.9 3.1 -91.65 3.0" fill="#d40000" fill-rule="evenodd" stroke="none"/>
    <path d="M-83.65 -11.5 L-85.25 -11.75 -73.4 -14.65 -70.75 -14.65 -83.65 -11.5 M-57.75 5.5 L-57.4 7.6 -57.75 13.75 -68.15 8.1 -57.75 5.5" fill="#797979" fill-rule="evenodd" stroke="none"/>
    <path d="M-91.65 3.0 L-91.5 -2.5 -90.0 -7.9 Q-88.65 -11.2 -85.25 -11.75 L-83.65 -11.5 Q-78.6 -11.05 -74.25 -2.5 L-73.0 0.0 -71.25 5.75 -71.4 6.35 -82.0 0.75 -91.65 3.0 M-76.65 25.6 L-77.65 25.75 -80.5 25.1 -84.25 22.1 Q-87.95 17.45 -87.4 17.35 L-74.65 24.75 -74.65 24.85 -74.75 24.85 -76.65 25.6" fill="#636363" fill-rule="evenodd" stroke="none"/>
    <path d="M-71.4 6.35 L-71.25 5.75 -73.0 0.0 -74.25 -2.5 Q-78.6 -11.05 -83.65 -11.5 L-70.75 -14.65 Q-64.85 -14.45 -59.65 -2.5 L-58.4 1.35 -57.75 5.5 -68.15 8.1 -71.4 6.35 M-74.25 25.0 L-76.65 25.6 -74.75 24.85 -74.65 24.85 -74.5 24.85 -74.25 25.0" fill="#b0b0b0" fill-rule="evenodd" stroke="none"/>
    <path d="M-68.0 38.85 L-69.25 39.1 -70.65 38.5 -72.65 36.1 Q-75.85 29.7 -72.75 25.85 L-74.25 25.0 -74.5 24.85 -74.65 24.75 -87.4 17.35 -87.5 17.25 -92.0 14.35 Q-93.1 13.35 -93.9 10.35 -95.4 3.5 -91.9 3.1 L-58.0 21.85 -58.0 21.9 Q-58.7 21.75 -63.5 23.25 L-71.5 25.6 Q-67.25 27.1 -66.5 33.6 L-66.65 36.1 -67.0 37.75 -68.0 38.85 M-89.15 10.35 Q-89.4 6.3 -92.15 6.5 L-92.75 6.6 -93.4 7.6 -93.15 10.35 -92.15 12.35 -91.4 12.85 -90.5 12.75 -89.25 12.0 -89.15 10.35" fill="#7c0000" fill-rule="evenodd" stroke="none"/>
    <path d="M-74.65 24.85 L-74.65 24.75 -74.5 24.85 -74.65 24.85" fill="#d90000" fill-rule="evenodd" stroke="none"/>
  </g>
</svg>
