<?xml version="1.0" encoding="UTF-8" standalone="no"?>
<svg xmlns:xlink="http://www.w3.org/1999/xlink" height="165.75px" width="189.9px" xmlns="http://www.w3.org/2000/svg">
  <g transform="matrix(1.0, 0.0, 0.0, 1.0, 105.4, 80.0)">
    <path d="M67.75 -64.15 L19.25 -54.0 24.5 -72.0 25.0 -72.15 28.6 -72.9 67.75 -64.15" fill="#a54916" fill-rule="evenodd" stroke="none"/>
    <path d="M19.25 -54.0 L19.1 -54.0 19.1 -53.9 -31.0 -43.5 -105.4 -66.15 -38.0 -77.15 -38.0 -66.0 -37.65 -66.0 -37.55 -65.65 Q-37.25 -64.8 -36.55 -64.1 L-36.0 -63.65 Q-32.45 -61.05 -21.6 -61.3 L-17.35 -61.5 -5.75 -62.65 Q-3.2 -63.0 -1.4 -64.4 L-1.25 -66.0 -0.75 -66.0 -0.75 -79.5 28.6 -72.9 25.0 -72.15 24.5 -72.0 19.25 -54.0" fill="#974012" fill-rule="evenodd" stroke="none"/>
    <path d="M67.75 -64.15 L68.1 -64.0 67.35 -32.65 64.5 -33.75 32.1 -42.75 21.85 -42.65 19.5 -41.65 19.1 -53.9 19.1 -54.0 19.25 -54.0 67.75 -64.15" fill="#8d3a0f" fill-rule="evenodd" stroke="none"/>
    <path d="M64.5 -33.75 L67.35 -32.65 Q72.75 -32.45 79.6 -22.5 L83.25 -12.9 84.5 0.1 Q83.05 15.9 80.35 19.0 L78.35 17.6 75.85 17.35 77.75 12.0 77.85 10.35 79.1 1.85 78.1 -8.75 75.1 -16.65 69.85 -22.65 63.0 -25.75 54.85 -25.4 50.75 -23.4 46.0 -25.15 40.35 -24.5 44.25 -28.25 49.85 -31.15 54.85 -33.4 64.5 -33.75" fill="#848484" fill-rule="evenodd" stroke="none"/>
    <path d="M75.85 17.35 L74.1 22.35 68.6 31.5 64.0 36.1 Q42.85 52.1 32.75 36.1 L29.0 28.1 27.75 16.85 29.1 6.1 33.1 -5.0 39.1 -14.4 46.75 -21.5 50.75 -23.4 54.85 -25.4 63.0 -25.75 69.85 -22.65 75.1 -16.65 78.1 -8.75 79.1 1.85 77.85 10.35 77.75 12.0 75.85 17.35 M36.0 49.75 L41.6 51.35 3.5 65.25 10.5 66.85 -22.75 79.25 -22.65 70.85 36.0 49.75 M58.85 47.5 L61.35 46.1 61.5 47.85 58.85 47.5 M-9.4 70.0 L-7.65 70.6 -6.15 69.1 -6.0 68.85 -6.4 68.85 -9.4 70.0 M-89.0 10.35 L-89.25 12.0 -90.5 12.75 -91.4 12.85 -92.15 12.35 -93.15 10.35 -93.4 7.6 -92.75 6.6 -92.15 6.5 -90.65 6.6 -90.0 7.35 -89.0 10.35" fill="#000000" fill-rule="evenodd" stroke="none"/>
    <path d="M40.35 -24.5 L35.5 -20.15 28.0 -8.5 23.25 4.6 21.25 19.1 22.85 32.5 27.6 42.75 34.6 49.0 34.75 49.25 3.1 35.75 -4.0 29.35 -9.0 18.85 -10.75 7.0 -9.15 -6.65 -4.15 -19.9 3.0 -30.5 11.5 -38.0 17.25 -40.65 49.85 -31.15 44.25 -28.25 40.35 -24.5" fill="#676767" fill-rule="evenodd" stroke="none"/>
    <path d="M80.35 19.0 Q72.8 37.9 65.5 42.6 L63.5 44.75 61.35 46.1 58.85 47.5 53.75 50.5 44.5 52.0 41.6 51.35 36.0 49.75 34.75 49.25 34.6 49.0 27.6 42.75 22.85 32.5 21.25 19.1 23.25 4.6 28.0 -8.5 35.5 -20.15 40.35 -24.5 46.0 -25.15 50.75 -23.4 46.75 -21.5 39.1 -14.4 33.1 -5.0 29.1 6.1 27.75 16.85 29.0 28.1 32.75 36.1 Q42.85 52.1 64.0 36.1 L68.6 31.5 74.1 22.35 75.85 17.35 78.35 17.6 80.35 19.0" fill="#818181" fill-rule="evenodd" stroke="none"/>
    <path d="M19.5 -41.65 L21.85 -42.65 32.1 -42.75 64.5 -33.75 54.85 -33.4 49.85 -31.15 17.25 -40.65 19.5 -41.65" fill="#b7b7b7" fill-rule="evenodd" stroke="none"/>
    <path d="M19.1 -53.9 L19.5 -41.65 17.25 -40.65 11.5 -38.0 3.0 -30.5 -4.15 -19.9 -9.15 -6.65 -10.75 7.0 -9.0 18.85 -4.0 29.35 3.1 35.75 34.75 49.25 36.0 49.75 -22.65 70.85 -22.75 79.25 10.5 66.85 14.25 68.25 13.75 70.25 6.75 72.85 -1.65 73.75 -2.15 74.0 -0.4 74.75 0.35 75.25 -27.9 85.75 -31.0 -43.5 19.1 -53.9 M65.5 42.6 L65.5 50.75 60.85 52.35 63.35 51.35 63.35 49.75 63.0 49.0 62.35 48.0 61.5 47.85 61.35 46.1 63.5 44.75 65.5 42.6 M59.6 52.85 L55.35 54.5 51.0 53.6 59.6 52.85" fill="#82330c" fill-rule="evenodd" stroke="none"/>
    <path d="M60.85 52.35 L59.6 52.85 51.0 53.6 55.35 54.5 62.85 56.0 73.1 56.75 46.6 65.75 Q68.95 63.4 60.35 67.85 36.05 75.75 34.0 70.6 L13.35 80.0 9.75 79.1 0.35 75.25 -0.4 74.75 -2.15 74.0 -1.65 73.75 6.75 72.85 10.6 72.35 13.75 70.25 14.25 68.25 10.5 66.85 3.5 65.25 41.6 51.35 44.5 52.0 53.75 50.5 58.85 47.5 61.5 47.85 62.35 48.0 63.0 49.0 63.35 49.75 63.35 51.35 60.85 52.35 M-9.4 70.0 L-6.4 68.85 -6.0 68.85 -6.15 69.1 -7.65 70.6 -9.4 70.0" fill="#68bfdb" fill-rule="evenodd" stroke="none"/>
    <path d="M-38.0 -77.15 L-38.05 -80.0 -38.0 -80.0 -38.0 -77.15" fill="#6d6d6d" fill-rule="evenodd" stroke="none"/>
    <path d="M-78.4 -12.75 L-70.75 -14.65 -54.75 -18.15 Q-52.9 -17.8 -51.5 -15.4 L-50.75 -13.75 -50.15 -10.65 -73.5 -5.0 Q-75.35 -12.9 -78.4 -12.75 M-74.9 0.5 L-74.75 0.5 -74.9 0.6 -74.9 0.5" fill="#cf0000" fill-rule="evenodd" stroke="none"/>
    <path d="M-27.9 85.75 L-98.75 47.1 -105.4 -66.15 -31.0 -43.5 -27.9 85.75 M-85.25 -11.75 Q-88.65 -11.2 -90.0 -7.9 L-91.5 -2.5 -91.75 2.35 Q-95.45 3.85 -93.9 10.35 -92.9 14.8 -89.4 15.5 L-89.25 15.35 -88.9 15.35 -88.75 15.25 -88.65 15.25 -88.5 15.25 -86.75 18.85 Q-83.7 23.15 -82.9 23.25 L-80.5 25.1 -77.65 25.75 -76.65 25.6 -68.45 23.2 -63.25 21.75 Q-57.4 19.4 -57.5 10.35 L-57.4 7.6 -57.75 5.5 -58.25 1.75 -59.0 -0.4 -56.0 -2.5 Q-48.45 -5.95 -50.15 -10.65 L-50.75 -13.75 -51.5 -15.4 Q-52.9 -17.8 -54.75 -18.15 L-70.75 -14.65 -73.4 -14.65 -85.25 -11.75" fill="#5d1d02" fill-rule="evenodd" stroke="none"/>
    <path d="M-74.9 0.5 L-74.15 -0.4 -73.65 -2.5 -73.5 -5.0 -50.15 -10.65 Q-48.45 -5.95 -56.0 -2.5 L-59.0 -0.4 -71.0 7.5 -78.75 12.6 -88.5 15.25 -88.65 15.25 -62.25 -2.5 -62.75 -2.5 -74.75 0.5 -74.9 0.5" fill="#8a0000" fill-rule="evenodd" stroke="none"/>
    <path d="M-83.65 -11.5 L-85.25 -11.75 -73.4 -14.65 -70.75 -14.65 -78.4 -12.75 -78.75 -12.75 -78.9 -12.65 -79.15 -12.65 -79.25 -12.5 -79.5 -12.5 -83.65 -11.5 M-57.75 5.5 L-57.4 7.6 -57.5 10.35 Q-57.4 19.4 -63.25 21.75 L-68.45 23.2 -75.15 25.0 -74.15 24.5 -73.4 23.25 Q-71.95 22.9 -70.75 17.35 L-70.65 10.35 -70.9 8.75 -57.75 5.5" fill="#797979" fill-rule="evenodd" stroke="none"/>
    <path d="M-91.75 2.35 L-80.9 -5.15 -81.25 -8.25 -80.9 -10.5 -80.5 -11.5 -79.5 -12.5 -79.25 -12.5 -79.15 -12.65 -78.9 -12.65 -78.75 -12.75 -78.4 -12.75 Q-75.35 -12.9 -73.5 -5.0 L-73.65 -2.5 -74.15 -0.4 -74.9 0.5 -74.9 0.6 -74.75 0.5 -62.75 -2.5 -62.25 -2.5 -88.65 15.25 -88.75 15.25 -88.9 15.35 -89.25 15.35 -89.4 15.5 Q-92.9 14.8 -93.9 10.35 -95.45 3.85 -91.75 2.35 M-89.0 10.35 L-90.0 7.35 -90.65 6.6 -92.15 6.5 -92.75 6.6 -93.4 7.6 -93.15 10.35 -92.15 12.35 -91.4 12.85 -90.5 12.75 -89.25 12.0 -89.0 10.35" fill="#7c0000" fill-rule="evenodd" stroke="none"/>
    <path d="M-83.65 -11.5 L-82.15 -11.4 -80.9 -10.5 -81.25 -8.25 -80.9 -5.15 -91.75 2.35 -91.5 -2.5 -90.0 -7.9 Q-88.65 -11.2 -85.25 -11.75 L-83.65 -11.5 M-88.5 15.25 L-78.75 12.6 -71.0 7.5 -70.9 8.75 -70.65 10.35 -70.75 17.35 Q-71.95 22.9 -73.4 23.25 L-74.15 24.5 -75.15 25.0 -76.65 25.6 -77.65 25.75 -80.5 25.1 -82.9 23.25 Q-83.7 23.15 -86.75 18.85 L-88.5 15.25" fill="#636363" fill-rule="evenodd" stroke="none"/>
    <path d="M-80.9 -10.5 L-82.15 -11.4 -83.65 -11.5 -79.5 -12.5 -80.5 -11.5 -80.9 -10.5 M-71.0 7.5 L-59.0 -0.4 -58.25 1.75 -57.75 5.5 -70.9 8.75 -71.0 7.5 M-75.15 25.0 L-68.45 23.2 -76.65 25.6 -75.15 25.0" fill="#b0b0b0" fill-rule="evenodd" stroke="none"/>
  </g>
</svg>
