<?xml version="1.0" encoding="UTF-8" standalone="no"?>
<svg xmlns:xlink="http://www.w3.org/1999/xlink" height="165.75px" width="189.9px" xmlns="http://www.w3.org/2000/svg">
  <g transform="matrix(1.0, 0.0, 0.0, 1.0, 105.4, 80.0)">
    <path d="M67.75 -64.15 L19.25 -54.0 24.5 -72.0 25.0 -72.15 28.6 -72.9 67.75 -64.15" fill="#a54916" fill-rule="evenodd" stroke="none"/>
    <path d="M19.25 -54.0 L19.1 -54.0 19.1 -53.9 -31.0 -43.5 -105.4 -66.15 -38.0 -77.15 -38.0 -66.0 -37.65 -66.0 -37.55 -65.65 Q-37.25 -64.8 -36.55 -64.1 L-36.0 -63.65 Q-32.45 -61.05 -21.6 -61.3 L-17.35 -61.5 -5.75 -62.65 Q-3.2 -63.0 -1.4 -64.4 L-1.25 -66.0 -0.75 -66.0 -0.75 -79.5 28.6 -72.9 25.0 -72.15 24.5 -72.0 19.25 -54.0" fill="#974012" fill-rule="evenodd" stroke="none"/>
    <path d="M67.75 -64.15 L68.1 -64.0 67.35 -32.65 64.5 -33.75 32.1 -42.75 21.85 -42.65 19.5 -41.65 19.1 -53.9 19.1 -54.0 19.25 -54.0 67.75 -64.15" fill="#8d3a0f" fill-rule="evenodd" stroke="none"/>
    <path d="M64.5 -33.75 L67.35 -32.65 Q72.75 -32.45 79.6 -22.5 L83.25 -12.9 84.5 0.1 Q83.05 15.9 80.35 19.0 L78.35 17.6 75.85 17.35 77.75 12.0 77.85 10.35 79.1 1.85 78.1 -8.75 75.1 -16.65 69.85 -22.65 63.0 -25.75 54.85 -25.4 50.75 -23.4 46.0 -25.15 40.35 -24.5 44.25 -28.25 49.85 -31.15 54.85 -33.4 64.5 -33.75" fill="#848484" fill-rule="evenodd" stroke="none"/>
    <path d="M75.85 17.35 L74.1 22.35 68.6 31.5 64.0 36.1 Q42.85 52.1 32.75 36.1 L29.0 28.1 27.75 16.85 29.1 6.1 33.1 -5.0 39.1 -14.4 46.75 -21.5 50.75 -23.4 54.85 -25.4 63.0 -25.75 69.85 -22.65 75.1 -16.65 78.1 -8.75 79.1 1.85 77.85 10.35 77.75 12.0 75.85 17.35 M36.0 49.75 L41.6 51.35 22.0 58.5 Q16.35 63.3 16.25 61.85 L10.35 62.75 -9.9 70.1 -5.5 71.75 -3.65 69.85 0.0 67.25 5.25 66.5 9.5 67.25 -22.75 79.25 -22.65 70.85 36.0 49.75 M45.75 51.75 L46.75 51.6 46.5 52.1 45.75 51.75 M58.0 48.0 L61.35 46.1 61.5 48.1 60.85 48.35 58.0 48.0 M-89.0 10.35 L-89.25 12.0 -90.5 12.75 -91.4 12.85 -92.15 12.35 -93.15 10.35 -93.4 7.6 -92.75 6.6 -92.15 6.5 -90.65 6.6 -90.0 7.35 -89.0 10.35" fill="#000000" fill-rule="evenodd" stroke="none"/>
    <path d="M40.35 -24.5 L35.5 -20.15 28.0 -8.5 23.25 4.6 21.25 19.1 22.85 32.5 27.6 42.75 34.6 49.0 34.75 49.25 3.1 35.75 -4.0 29.35 -9.0 18.85 -10.75 7.0 -9.15 -6.65 -4.15 -19.9 3.0 -30.5 11.5 -38.0 17.25 -40.65 49.85 -31.15 44.25 -28.25 40.35 -24.5" fill="#676767" fill-rule="evenodd" stroke="none"/>
    <path d="M80.35 19.0 Q72.8 37.9 65.5 42.6 L63.5 44.75 61.35 46.1 58.0 48.0 53.75 50.5 46.75 51.6 45.75 51.75 43.75 52.0 41.6 51.35 36.0 49.75 34.75 49.25 34.6 49.0 27.6 42.75 22.85 32.5 21.25 19.1 23.25 4.6 28.0 -8.5 35.5 -20.15 40.35 -24.5 46.0 -25.15 50.75 -23.4 46.75 -21.5 39.1 -14.4 33.1 -5.0 29.1 6.1 27.75 16.85 29.0 28.1 32.75 36.1 Q42.85 52.1 64.0 36.1 L68.6 31.5 74.1 22.35 75.85 17.35 78.35 17.6 80.35 19.0" fill="#818181" fill-rule="evenodd" stroke="none"/>
    <path d="M19.5 -41.65 L21.85 -42.65 32.1 -42.75 64.5 -33.75 54.85 -33.4 49.85 -31.15 17.25 -40.65 19.5 -41.65" fill="#b7b7b7" fill-rule="evenodd" stroke="none"/>
    <path d="M65.35 49.85 L65.75 53.0 Q63.35 55.1 56.5 54.75 L54.25 54.85 53.6 54.85 54.0 55.0 75.75 61.85 49.25 70.35 61.75 72.0 Q68.0 74.3 63.75 78.85 L57.6 80.75 Q51.05 81.65 45.25 80.85 45.4 81.55 40.35 79.0 L36.75 75.35 15.85 85.6 0.25 75.5 12.5 74.6 16.1 72.35 16.6 70.1 16.75 69.85 15.75 69.5 12.5 67.85 9.5 67.25 5.25 66.5 0.0 67.25 -3.65 69.85 -5.5 71.75 -9.9 70.1 10.35 62.75 16.25 61.85 Q16.35 63.3 22.0 58.5 L41.6 51.35 43.75 52.0 45.75 51.75 46.5 52.1 46.75 51.6 53.75 50.5 58.0 48.0 60.85 48.35 64.75 49.1 65.35 49.85" fill="#68bfdb" fill-rule="evenodd" stroke="none"/>
    <path d="M19.1 -53.9 L19.5 -41.65 17.25 -40.65 11.5 -38.0 3.0 -30.5 -4.15 -19.9 -9.15 -6.65 -10.75 7.0 -9.0 18.85 -4.0 29.35 3.1 35.75 34.75 49.25 36.0 49.75 -22.65 70.85 -22.75 79.25 9.5 67.25 12.5 67.85 15.75 69.5 -27.9 85.75 -31.0 -43.5 19.1 -53.9 M65.5 42.6 L65.35 49.85 64.75 49.1 60.85 48.35 61.5 48.1 61.35 46.1 63.5 44.75 65.5 42.6 M54.25 54.85 L54.0 55.0 53.6 54.85 54.25 54.85" fill="#82330c" fill-rule="evenodd" stroke="none"/>
    <path d="M-38.0 -77.15 L-38.05 -80.0 -38.0 -80.0 -38.0 -77.15" fill="#6d6d6d" fill-rule="evenodd" stroke="none"/>
    <path d="M-27.9 85.75 L-98.75 47.1 -105.4 -66.15 -31.0 -43.5 -27.9 85.75 M-91.25 -43.0 L-95.65 -42.15 -96.5 -41.9 -97.15 -41.15 Q-99.85 -32.05 -92.75 -28.9 L-91.65 -29.15 -91.5 -29.15 -91.0 -29.25 -90.9 -29.25 -90.5 -29.4 -90.25 -29.4 -89.9 -29.5 -89.75 -29.5 -89.25 -29.65 -89.15 -29.65 -88.65 -29.75 -88.5 -29.75 Q-88.3 -29.8 -88.15 -29.9 L-87.9 -29.9 -87.5 -30.0 -87.4 -30.0 -87.15 -30.0 -94.4 6.35 -93.9 10.35 Q-92.7 15.9 -88.75 15.25 L-88.5 15.25 -86.75 18.85 Q-83.7 23.15 -82.9 23.25 L-80.5 25.1 -77.65 25.75 -76.65 25.6 -68.45 23.2 -63.25 21.75 Q-57.4 19.4 -57.5 10.35 L-57.4 7.6 -57.75 5.5 -58.4 1.35 -59.65 -2.5 Q-64.85 -14.45 -70.75 -14.65 L-72.25 -14.75 -72.15 -15.4 -67.4 -36.9 -67.4 -39.4 -67.65 -41.15 Q-67.9 -44.85 -72.15 -46.75 L-90.75 -43.15 -91.15 -43.0 -91.25 -43.0" fill="#5d1d02" fill-rule="evenodd" stroke="none"/>
    <path d="M-94.9 -42.15 L-91.25 -43.0 -91.15 -43.0 -90.75 -43.15 -72.15 -46.75 Q-67.9 -44.85 -67.65 -41.15 L-67.4 -39.4 -90.75 -34.75 -91.5 -38.25 -93.25 -41.15 -94.9 -42.15 M-87.15 -30.0 L-87.4 -30.0 -86.9 -30.15 -87.15 -30.0 M-91.65 -29.15 L-92.75 -28.9 -92.15 -29.15 -91.65 -29.15" fill="#d00000" fill-rule="evenodd" stroke="none"/>
    <path d="M-95.65 -42.15 L-91.25 -43.0 -94.9 -42.15 -95.65 -42.15 M-67.4 -39.4 L-67.4 -36.9 -72.15 -15.4 -72.25 -14.75 -72.4 -14.25 -74.75 -3.15 -75.0 -2.5 -78.15 11.5 -79.15 12.75 -88.5 15.25 -88.75 15.25 -87.65 13.25 -78.0 -32.4 -78.15 -32.65 -79.75 -31.65 -80.25 -31.5 -80.4 -31.5 -80.75 -31.4 -81.0 -31.4 -82.0 -31.15 -82.15 -31.15 -82.65 -31.0 -82.75 -31.0 -83.15 -30.9 -83.4 -30.9 -84.4 -30.65 -84.5 -30.65 -85.0 -30.5 -85.15 -30.5 -85.5 -30.4 -85.75 -30.4 -86.15 -30.25 -86.25 -30.25 -86.75 -30.15 -86.9 -30.15 -87.4 -30.0 -87.5 -30.0 -87.9 -29.9 -88.15 -29.9 Q-88.3 -29.8 -88.5 -29.75 L-88.65 -29.75 -89.15 -29.65 -89.25 -29.65 -89.75 -29.5 -89.9 -29.5 -90.25 -29.4 -90.5 -29.4 -90.9 -29.25 -91.0 -29.25 -91.5 -29.15 -91.65 -29.15 -92.15 -29.15 -91.25 -30.25 -90.75 -31.75 -90.75 -34.75 -67.4 -39.4" fill="#920000" fill-rule="evenodd" stroke="none"/>
    <path d="M-95.65 -42.15 L-94.9 -42.15 -93.25 -41.15 -91.5 -38.25 -90.75 -34.75 -90.75 -31.75 -91.25 -30.25 -92.15 -29.15 -92.75 -28.9 Q-99.85 -32.05 -97.15 -41.15 L-96.5 -41.9 -95.65 -42.15 M-88.75 15.25 Q-92.7 15.9 -93.9 10.35 L-94.4 6.35 -87.15 -30.0 -86.9 -30.15 -86.75 -30.15 -86.25 -30.25 -86.15 -30.25 -85.75 -30.4 -85.5 -30.4 -85.15 -30.5 -85.0 -30.5 -84.5 -30.65 -84.4 -30.65 -83.4 -30.9 -83.15 -30.9 -82.75 -31.0 -82.65 -31.0 -82.15 -31.15 -82.0 -31.15 -81.0 -31.4 -80.75 -31.4 -80.4 -31.5 -80.25 -31.5 -79.75 -31.65 -78.15 -32.65 -78.0 -32.4 -87.65 13.25 -88.75 15.25 M-89.0 10.35 L-90.0 7.35 -90.65 6.6 -92.15 6.5 -92.75 6.6 -93.4 7.6 -93.15 10.35 -92.15 12.35 -91.4 12.85 -90.5 12.75 -89.25 12.0 -89.0 10.35" fill="#7c0000" fill-rule="evenodd" stroke="none"/>
    <path d="M-72.25 -14.75 L-70.75 -14.65 -72.4 -14.25 -72.25 -14.75 M-57.75 5.5 L-57.4 7.6 -57.5 10.35 Q-57.4 19.4 -63.25 21.75 L-68.45 23.2 -75.15 25.0 -74.15 24.5 -73.4 23.25 Q-71.95 22.9 -70.75 17.35 L-70.65 10.35 -70.9 8.75 -57.75 5.5" fill="#797979" fill-rule="evenodd" stroke="none"/>
    <path d="M-70.75 -14.65 Q-64.85 -14.45 -59.65 -2.5 L-58.4 1.35 -57.75 5.5 -70.9 8.75 Q-70.6 7.1 -73.0 0.0 L-74.25 -2.5 -74.75 -3.15 -72.4 -14.25 -70.75 -14.65 M-68.45 23.2 L-76.65 25.6 -75.15 25.0 -68.45 23.2" fill="#b0b0b0" fill-rule="evenodd" stroke="none"/>
    <path d="M-76.65 25.6 L-77.65 25.75 -80.5 25.1 -82.9 23.25 Q-83.7 23.15 -86.75 18.85 L-88.5 15.25 -79.15 12.75 -78.15 11.5 -75.0 -2.5 -74.75 -3.15 -74.25 -2.5 -73.0 0.0 Q-70.6 7.1 -70.9 8.75 L-70.65 10.35 -70.75 17.35 Q-71.95 22.9 -73.4 23.25 L-74.15 24.5 -75.15 25.0 -76.65 25.6" fill="#636363" fill-rule="evenodd" stroke="none"/>
  </g>
</svg>
