<?xml version="1.0" encoding="UTF-8" standalone="no"?>
<svg xmlns:xlink="http://www.w3.org/1999/xlink" height="172.6px" width="200.9px" xmlns="http://www.w3.org/2000/svg">
  <g transform="matrix(1.0, 0.0, 0.0, 1.0, 116.4, 80.0)">
    <path d="M67.75 -64.15 L19.25 -54.0 24.5 -72.0 25.0 -72.15 28.6 -72.9 67.75 -64.15" fill="#a54916" fill-rule="evenodd" stroke="none"/>
    <path d="M19.25 -54.0 L19.1 -54.0 19.1 -53.9 -31.0 -43.5 -105.4 -66.15 -38.0 -77.15 -38.0 -66.0 -37.65 -66.0 -37.55 -65.65 Q-37.25 -64.8 -36.55 -64.1 L-36.0 -63.65 Q-32.45 -61.05 -21.6 -61.3 L-17.35 -61.5 -5.75 -62.65 Q-3.2 -63.0 -1.4 -64.4 L-1.25 -66.0 -0.75 -66.0 -0.75 -79.5 28.6 -72.9 25.0 -72.15 24.5 -72.0 19.25 -54.0" fill="#974012" fill-rule="evenodd" stroke="none"/>
    <path d="M67.75 -64.15 L68.1 -64.0 67.35 -32.65 64.5 -33.75 32.1 -42.75 21.85 -42.65 19.5 -41.65 19.1 -53.9 19.1 -54.0 19.25 -54.0 67.75 -64.15" fill="#8d3a0f" fill-rule="evenodd" stroke="none"/>
    <path d="M64.5 -33.75 L67.35 -32.65 Q72.75 -32.45 79.6 -22.5 L83.25 -12.9 84.5 0.1 Q83.05 15.9 80.35 19.0 L78.35 17.6 75.85 17.35 77.75 12.0 77.85 10.35 79.1 1.85 78.1 -8.75 75.1 -16.65 69.85 -22.65 63.0 -25.75 54.85 -25.4 50.75 -23.4 46.0 -25.15 40.35 -24.5 44.25 -28.25 49.85 -31.15 54.85 -33.4 64.5 -33.75" fill="#848484" fill-rule="evenodd" stroke="none"/>
    <path d="M75.85 17.35 L74.1 22.35 68.6 31.5 64.0 36.1 Q42.85 52.1 32.75 36.1 L29.0 28.1 27.75 16.85 29.1 6.1 33.1 -5.0 39.1 -14.4 46.75 -21.5 50.75 -23.4 54.85 -25.4 63.0 -25.75 69.85 -22.65 75.1 -16.65 78.1 -8.75 79.1 1.85 77.85 10.35 77.75 12.0 75.85 17.35 M36.0 49.75 L41.6 51.35 23.75 57.85 Q25.85 59.6 21.0 61.85 12.05 65.05 8.35 63.5 L-10.5 70.35 -10.4 70.6 -4.65 72.5 -22.75 79.25 -22.65 70.85 36.0 49.75 M46.1 51.75 L49.75 51.1 48.75 52.85 48.25 53.0 46.1 51.75 M56.75 48.75 L61.35 46.1 61.5 48.1 59.25 49.0 56.75 48.75 M-1.65 71.35 L2.5 68.25 8.25 67.75 -1.65 71.35 M-89.0 10.35 L-89.25 12.0 -90.5 12.75 -91.4 12.85 -92.15 12.35 -93.15 10.35 -93.4 7.6 -92.75 6.6 -92.15 6.5 -90.75 6.5 -90.0 7.25 -89.0 10.35" fill="#000000" fill-rule="evenodd" stroke="none"/>
    <path d="M40.35 -24.5 L35.5 -20.15 28.0 -8.5 23.25 4.6 21.25 19.1 22.85 32.5 27.6 42.75 34.6 49.0 34.75 49.25 3.1 35.75 -4.0 29.35 -9.0 18.85 -10.75 7.0 -9.15 -6.65 -4.15 -19.9 3.0 -30.5 11.5 -38.0 17.25 -40.65 49.85 -31.15 44.25 -28.25 40.35 -24.5" fill="#676767" fill-rule="evenodd" stroke="none"/>
    <path d="M80.35 19.0 Q72.8 37.9 65.5 42.6 L63.5 44.75 61.35 46.1 56.75 48.75 56.1 49.0 53.75 50.5 50.1 51.0 49.75 51.1 46.1 51.75 43.6 52.0 41.6 51.35 36.0 49.75 34.75 49.25 34.6 49.0 27.6 42.75 22.85 32.5 21.25 19.1 23.25 4.6 28.0 -8.5 35.5 -20.15 40.35 -24.5 46.0 -25.15 50.75 -23.4 46.75 -21.5 39.1 -14.4 33.1 -5.0 29.1 6.1 27.75 16.85 29.0 28.1 32.75 36.1 Q42.85 52.1 64.0 36.1 L68.6 31.5 74.1 22.35 75.85 17.35 78.35 17.6 80.35 19.0" fill="#818181" fill-rule="evenodd" stroke="none"/>
    <path d="M19.5 -41.65 L21.85 -42.65 32.1 -42.75 64.5 -33.75 54.85 -33.4 49.85 -31.15 17.25 -40.65 19.5 -41.65" fill="#b7b7b7" fill-rule="evenodd" stroke="none"/>
    <path d="M19.1 -53.9 L19.5 -41.65 17.25 -40.65 11.5 -38.0 3.0 -30.5 -4.15 -19.9 -9.15 -6.65 -10.75 7.0 -9.0 18.85 -4.0 29.35 3.1 35.75 34.75 49.25 36.0 49.75 -22.65 70.85 -22.75 79.25 -4.65 72.5 -3.15 73.0 -1.65 71.35 8.25 67.75 14.1 69.1 15.0 69.75 -27.9 85.75 -31.0 -43.5 19.1 -53.9 M65.5 42.6 L65.5 50.25 60.1 49.0 59.25 49.0 61.5 48.1 61.35 46.1 63.5 44.75 65.5 42.6 M48.75 52.85 L48.6 53.25 48.25 53.0 48.75 52.85" fill="#82330c" fill-rule="evenodd" stroke="none"/>
    <path d="M65.5 50.25 Q68.05 49.7 67.85 55.25 L64.5 56.75 55.75 56.75 Q71.25 63.9 77.75 68.35 L51.25 76.25 63.75 80.75 Q68.25 84.35 67.25 88.0 L65.25 90.85 59.25 92.6 53.6 92.25 46.35 90.5 43.1 87.6 42.1 86.85 39.0 81.25 18.0 92.6 7.85 82.25 2.35 77.5 15.1 77.35 Q19.4 75.25 19.0 72.1 L15.0 69.75 14.1 69.1 8.25 67.75 2.5 68.25 -1.65 71.35 -3.15 73.0 -4.65 72.5 -10.4 70.6 -10.5 70.35 8.35 63.5 Q12.05 65.05 21.0 61.85 25.85 59.6 23.75 57.85 L41.6 51.35 43.6 52.0 46.1 51.75 48.25 53.0 48.6 53.25 48.75 52.85 49.75 51.1 50.1 51.0 53.75 50.5 56.1 49.0 56.75 48.75 59.25 49.0 60.1 49.0 65.5 50.25" fill="#68bfdb" fill-rule="evenodd" stroke="none"/>
    <path d="M-38.0 -77.15 L-38.05 -80.0 -38.0 -80.0 -38.0 -77.15" fill="#6d6d6d" fill-rule="evenodd" stroke="none"/>
    <path d="M-103.9 -40.65 L-111.65 -39.15 -110.25 -40.25 -109.65 -42.75 -96.65 -45.15 -97.15 -42.75 -97.75 -42.0 -98.9 -41.65 -99.25 -41.5 -99.5 -41.5 -99.9 -41.4 -101.65 -41.15 -102.25 -40.9 -103.9 -40.65 M-113.9 -52.0 L-104.65 -53.75 -90.65 -56.0 -113.4 -51.9 -113.9 -52.0 M-88.5 15.25 L-88.75 15.25 -87.65 13.35 -87.5 10.6 -77.9 8.25 -77.9 10.35 -78.15 11.5 -79.15 12.75 -88.5 15.25" fill="#930000" fill-rule="evenodd" stroke="none"/>
    <path d="M-111.65 -39.15 Q-115.1 -39.55 -116.25 -45.4 -116.95 -51.85 -113.9 -52.0 L-113.4 -51.9 Q-110.5 -51.7 -109.65 -42.75 L-110.25 -40.25 -111.65 -39.15 M-88.75 15.25 Q-91.2 17.15 -93.9 10.35 L-102.25 -40.9 -101.65 -41.15 -99.9 -41.4 -99.5 -41.5 -99.25 -41.5 -98.9 -41.65 -97.75 -42.0 -97.15 -42.75 -96.65 -45.15 -96.25 -45.15 -87.65 10.35 -87.5 10.6 -87.65 13.35 -88.75 15.25 M-89.0 10.35 L-90.0 7.25 -90.75 6.5 -92.15 6.5 -92.75 6.6 -93.4 7.6 -93.15 10.35 -92.15 12.35 -91.4 12.85 -90.5 12.75 -89.25 12.0 -89.0 10.35" fill="#7c0000" fill-rule="evenodd" stroke="none"/>
    <path d="M-90.65 -56.0 L-88.9 -55.0 -88.25 -54.0 -87.15 -51.75 -81.0 -12.9 -80.9 -12.25 -80.5 -10.0 -77.9 8.25 -87.5 10.6 -87.65 10.35 -96.25 -45.15 -96.65 -45.15 -109.65 -42.75 Q-110.5 -51.7 -113.4 -51.9 L-90.65 -56.0" fill="#d30000" fill-rule="evenodd" stroke="none"/>
    <path d="M-27.9 85.75 L-98.75 47.1 -103.9 -40.65 -102.25 -40.9 -93.9 10.35 Q-91.2 17.15 -88.75 15.25 L-88.5 15.25 -86.75 18.85 Q-83.7 23.15 -82.9 23.25 L-80.5 25.1 -77.65 25.75 -76.65 25.6 -68.45 23.2 -63.25 21.75 Q-57.4 19.4 -57.5 10.35 L-57.4 7.6 -57.75 5.5 -58.4 1.35 -59.65 -2.5 Q-64.85 -14.45 -70.75 -14.65 L-72.75 -14.75 -81.0 -12.9 -87.15 -51.75 -88.25 -54.0 -88.9 -55.0 -90.65 -56.0 -104.65 -53.75 -105.4 -66.15 -31.0 -43.5 -27.9 85.75" fill="#5d1d02" fill-rule="evenodd" stroke="none"/>
    <path d="M-81.0 -12.9 L-72.75 -14.75 -70.75 -14.65 -80.9 -12.25 -81.0 -12.9 M-57.75 5.5 L-57.4 7.6 -57.5 10.35 Q-57.4 19.4 -63.25 21.75 L-68.45 23.2 -75.15 25.0 -74.15 24.5 -73.4 23.25 Q-71.95 22.9 -70.75 17.35 L-70.65 10.35 -70.9 8.75 -57.75 5.5" fill="#797979" fill-rule="evenodd" stroke="none"/>
    <path d="M-76.65 25.6 L-77.65 25.75 -80.5 25.1 -82.9 23.25 Q-83.7 23.15 -86.75 18.85 L-88.5 15.25 -79.15 12.75 -78.15 11.5 -77.9 10.35 -77.9 8.25 -80.5 -10.0 -78.4 -8.65 Q-75.2 -5.2 -74.25 -2.5 L-73.0 0.0 Q-70.6 7.1 -70.9 8.75 L-70.65 10.35 -70.75 17.35 Q-71.95 22.9 -73.4 23.25 L-74.15 24.5 -75.15 25.0 -76.65 25.6" fill="#636363" fill-rule="evenodd" stroke="none"/>
    <path d="M-70.75 -14.65 Q-64.85 -14.45 -59.65 -2.5 L-58.4 1.35 -57.75 5.5 -70.9 8.75 Q-70.6 7.1 -73.0 0.0 L-74.25 -2.5 Q-75.2 -5.2 -78.4 -8.65 L-80.5 -10.0 -80.9 -12.25 -70.75 -14.65 M-68.45 23.2 L-76.65 25.6 -75.15 25.0 -68.45 23.2" fill="#b0b0b0" fill-rule="evenodd" stroke="none"/>
  </g>
</svg>
