<?xml version="1.0" encoding="UTF-8" standalone="no"?>
<svg xmlns:xlink="http://www.w3.org/1999/xlink" height="193.25px" width="219.9px" xmlns="http://www.w3.org/2000/svg">
  <g transform="matrix(1.0, 0.0, 0.0, 1.0, 135.4, 80.0)">
    <path d="M67.75 -64.15 L19.25 -54.0 24.5 -72.0 25.0 -72.15 28.6 -72.9 67.75 -64.15" fill="#a54916" fill-rule="evenodd" stroke="none"/>
    <path d="M19.25 -54.0 L19.1 -54.0 19.1 -53.9 -31.0 -43.5 -105.4 -66.15 -38.0 -77.15 -38.0 -66.0 -37.65 -66.0 -37.55 -65.65 Q-37.25 -64.8 -36.55 -64.1 L-36.0 -63.65 Q-32.45 -61.05 -21.6 -61.3 L-17.35 -61.5 -5.75 -62.65 Q-3.2 -63.0 -1.4 -64.4 L-1.25 -66.0 -0.75 -66.0 -0.75 -79.5 28.6 -72.9 25.0 -72.15 24.5 -72.0 19.25 -54.0" fill="#974012" fill-rule="evenodd" stroke="none"/>
    <path d="M67.75 -64.15 L68.1 -64.0 67.35 -32.65 64.5 -33.75 32.1 -42.75 21.85 -42.65 19.5 -41.65 19.1 -53.9 19.1 -54.0 19.25 -54.0 67.75 -64.15" fill="#8d3a0f" fill-rule="evenodd" stroke="none"/>
    <path d="M64.5 -33.75 L67.35 -32.65 Q72.75 -32.45 79.6 -22.5 L83.25 -12.9 84.5 0.1 Q83.05 15.9 80.35 19.0 L78.35 17.6 75.85 17.35 77.75 12.0 77.85 10.35 79.1 1.85 78.1 -8.75 75.1 -16.65 69.85 -22.65 63.0 -25.75 54.85 -25.4 50.75 -23.4 46.0 -25.15 40.35 -24.5 44.25 -28.25 49.85 -31.15 54.85 -33.4 64.5 -33.75" fill="#848484" fill-rule="evenodd" stroke="none"/>
    <path d="M75.85 17.35 L74.1 22.35 68.6 31.5 64.0 36.1 Q42.85 52.1 32.75 36.1 L29.0 28.1 27.75 16.85 29.1 6.1 33.1 -5.0 39.1 -14.4 46.75 -21.5 50.75 -23.4 54.85 -25.4 63.0 -25.75 69.85 -22.65 75.1 -16.65 78.1 -8.75 79.1 1.85 77.85 10.35 77.75 12.0 75.85 17.35 M36.0 49.75 L41.75 51.35 24.85 57.5 Q27.65 57.65 27.75 60.6 L13.85 65.75 Q9.3 65.4 7.5 63.85 L-10.75 70.5 -11.5 71.0 -6.0 73.1 -22.75 79.25 -22.65 70.85 36.0 49.75 M46.75 51.6 L53.75 50.5 61.35 46.1 61.5 48.1 48.5 52.85 46.75 51.6 M-90.0 7.35 L-89.0 10.35 -89.25 12.0 -90.5 12.75 -91.4 12.85 -92.15 12.35 -93.15 10.35 -93.4 7.6 -92.75 6.6 -92.15 6.5 -90.65 6.6 -90.0 7.35" fill="#000000" fill-rule="evenodd" stroke="none"/>
    <path d="M40.35 -24.5 L35.5 -20.15 28.0 -8.5 23.25 4.6 21.25 19.1 22.85 32.5 27.6 42.75 34.6 49.0 34.75 49.25 3.1 35.75 -4.0 29.35 -9.0 18.85 -10.75 7.0 -9.15 -6.65 -4.15 -19.9 3.0 -30.5 11.5 -38.0 17.25 -40.65 49.85 -31.15 44.25 -28.25 40.35 -24.5" fill="#676767" fill-rule="evenodd" stroke="none"/>
    <path d="M80.35 19.0 Q72.8 37.9 65.5 42.6 L63.5 44.75 61.35 46.1 53.75 50.5 46.75 51.6 44.5 52.0 41.75 51.35 36.0 49.75 34.75 49.25 34.6 49.0 27.6 42.75 22.85 32.5 21.25 19.1 23.25 4.6 28.0 -8.5 35.5 -20.15 40.35 -24.5 46.0 -25.15 50.75 -23.4 46.75 -21.5 39.1 -14.4 33.1 -5.0 29.1 6.1 27.75 16.85 29.0 28.1 32.75 36.1 Q42.85 52.1 64.0 36.1 L68.6 31.5 74.1 22.35 75.85 17.35 78.35 17.6 80.35 19.0" fill="#818181" fill-rule="evenodd" stroke="none"/>
    <path d="M19.5 -41.65 L21.85 -42.65 32.1 -42.75 64.5 -33.75 54.85 -33.4 49.85 -31.15 17.25 -40.65 19.5 -41.65" fill="#b7b7b7" fill-rule="evenodd" stroke="none"/>
    <path d="M63.25 51.6 L65.1 52.0 70.75 54.6 71.35 57.0 71.35 60.75 67.75 62.75 62.35 61.75 59.35 61.5 Q71.25 71.2 78.1 82.0 L52.35 88.85 62.5 97.1 Q65.85 102.9 64.25 108.0 L61.85 111.75 Q55.55 114.55 51.5 112.1 L50.25 111.75 44.75 108.35 41.85 103.0 40.25 94.6 39.85 94.25 18.75 107.1 Q16.35 100.65 11.5 91.5 L6.0 83.0 6.1 82.75 18.1 84.5 21.75 81.5 22.5 77.5 18.0 73.1 12.0 70.75 Q5.5 69.1 2.0 74.5 L0.75 76.25 -0.75 75.6 -2.15 74.75 -6.0 73.1 -11.5 71.0 -10.75 70.5 7.5 63.85 Q9.3 65.4 13.85 65.75 16.65 66.85 23.75 65.5 L28.0 61.85 27.75 60.6 Q27.65 57.65 24.85 57.5 L41.75 51.35 44.5 52.0 46.75 51.6 48.5 52.85 52.25 55.75 52.6 56.0 52.6 55.6 53.85 53.25 53.85 53.1 55.25 51.35 59.25 51.0 63.25 51.6" fill="#68bfdb" fill-rule="evenodd" stroke="none"/>
    <path d="M19.1 -53.9 L19.5 -41.65 17.25 -40.65 11.5 -38.0 3.0 -30.5 -4.15 -19.9 -9.15 -6.65 -10.75 7.0 -9.0 18.85 -4.0 29.35 3.1 35.75 34.75 49.25 36.0 49.75 -22.65 70.85 -22.75 79.25 -6.0 73.1 -2.15 74.75 -0.75 75.6 -27.9 85.75 -31.0 -43.5 19.1 -53.9 M65.5 42.6 L65.5 50.75 63.25 51.6 59.25 51.0 55.25 51.35 53.85 53.1 53.85 53.25 52.6 55.6 52.25 55.75 48.5 52.85 61.5 48.1 61.35 46.1 63.5 44.75 65.5 42.6 M12.0 70.75 L2.0 74.5 Q5.5 69.1 12.0 70.75 M27.75 60.6 L28.0 61.85 23.75 65.5 Q16.65 66.85 13.85 65.75 L27.75 60.6" fill="#82330c" fill-rule="evenodd" stroke="none"/>
    <path d="M-38.0 -77.15 L-38.05 -80.0 -38.0 -80.0 -38.0 -77.15" fill="#6d6d6d" fill-rule="evenodd" stroke="none"/>
    <path d="M-27.9 85.75 L-98.75 47.1 -101.15 5.75 -100.9 5.85 -91.65 14.75 -90.4 15.5 -89.25 15.5 -88.5 15.35 -86.25 19.5 Q-82.95 24.1 -82.9 23.25 L-80.5 25.1 -77.65 25.75 -76.65 25.6 -68.45 23.2 -63.25 21.75 Q-57.4 19.4 -57.5 10.35 L-57.4 7.6 -57.75 5.5 -58.4 1.35 -59.65 -2.5 Q-64.85 -14.45 -70.75 -14.65 L-73.4 -14.65 -85.25 -11.75 -88.15 -10.5 -90.25 -7.4 -102.5 -18.5 -102.5 -18.65 -105.4 -66.15 -31.0 -43.5 -27.9 85.75" fill="#5d1d02" fill-rule="evenodd" stroke="none"/>
    <path d="M-83.65 -11.5 L-85.25 -11.75 -73.4 -14.65 -70.75 -14.65 -83.65 -11.5 M-57.75 5.5 L-57.4 7.6 -57.5 10.35 Q-57.4 19.4 -63.25 21.75 L-68.45 23.2 -75.15 25.0 -74.15 24.5 -73.4 23.25 Q-71.95 22.9 -70.75 17.35 L-70.65 10.35 -70.9 8.75 -57.75 5.5" fill="#797979" fill-rule="evenodd" stroke="none"/>
    <path d="M-126.8 -22.95 L-124.75 -23.4 -124.65 -23.4 -112.0 -26.0 -110.9 -26.0 -110.0 -25.4 -102.65 -18.65 -102.5 -18.5 -90.25 -7.4 -79.65 2.5 Q-77.5 5.6 -77.9 9.25 L-87.5 11.6 -87.5 10.35 Q-88.0 6.4 -90.0 4.25 L-118.25 -22.15 Q-116.6 -17.65 -117.15 -16.15 L-129.5 -13.5 -129.75 -15.4 Q-130.2 -18.6 -131.4 -20.0 L-133.0 -21.5 -126.8 -22.95" fill="#da0000" fill-rule="evenodd" stroke="none"/>
    <path d="M-101.15 5.6 L-119.65 -12.15 -117.75 -12.9 -117.0 -15.4 -117.15 -16.15 Q-116.6 -17.65 -118.25 -22.15 L-90.0 4.25 Q-88.0 6.4 -87.5 10.35 L-87.5 11.6 -87.9 14.0 Q-88.75 14.55 -89.25 15.5 L-90.4 15.5 -91.65 14.75 -100.9 5.85 -101.15 5.6 M-131.0 -9.65 Q-134.1 -9.55 -135.4 -15.4 L-135.25 -20.15 -134.65 -21.15 -133.65 -21.5 -133.0 -21.5 -131.4 -20.0 Q-130.2 -18.6 -129.75 -15.4 L-129.5 -13.5 -129.75 -11.25 -130.4 -10.0 -131.0 -9.65 M-90.0 7.35 L-90.65 6.6 -92.15 6.5 -92.75 6.6 -93.4 7.6 -93.15 10.35 -92.15 12.35 -91.4 12.85 -90.5 12.75 -89.25 12.0 -89.0 10.35 -90.0 7.35" fill="#7c0000" fill-rule="evenodd" stroke="none"/>
    <path d="M-119.65 -12.15 L-131.0 -9.65 -130.4 -10.0 -129.75 -11.25 -129.5 -13.5 -117.15 -16.15 -117.0 -15.4 -117.75 -12.9 -119.65 -12.15 M-133.65 -21.5 L-126.8 -22.95 -133.0 -21.5 -133.65 -21.5 M-87.5 11.6 L-77.9 9.25 -77.9 10.35 -78.15 11.6 -78.9 12.6 -88.5 15.35 -89.25 15.5 Q-88.75 14.55 -87.9 14.0 L-87.5 11.6" fill="#960000" fill-rule="evenodd" stroke="none"/>
    <path d="M-102.65 -18.65 L-102.5 -18.65 -102.5 -18.5 -102.65 -18.65" fill="#9c4413" fill-rule="evenodd" stroke="none"/>
    <path d="M-101.15 5.75 L-101.15 5.6 -100.9 5.85 -101.15 5.75" fill="#e00000" fill-rule="evenodd" stroke="none"/>
    <path d="M-77.9 9.25 Q-77.5 5.6 -79.65 2.5 L-90.25 -7.4 -88.15 -10.5 -85.25 -11.75 -83.65 -11.5 Q-78.6 -11.05 -74.25 -2.5 L-73.0 0.0 Q-70.6 7.1 -70.9 8.75 L-70.65 10.35 -70.75 17.35 Q-71.95 22.9 -73.4 23.25 L-74.15 24.5 -75.15 25.0 -76.65 25.6 -77.65 25.75 -80.5 25.1 -82.9 23.25 Q-82.95 24.1 -86.25 19.5 L-88.5 15.35 -78.9 12.6 -78.15 11.6 -77.9 10.35 -77.9 9.25" fill="#636363" fill-rule="evenodd" stroke="none"/>
    <path d="M-70.75 -14.65 Q-64.85 -14.45 -59.65 -2.5 L-58.4 1.35 -57.75 5.5 -70.9 8.75 Q-70.6 7.1 -73.0 0.0 L-74.25 -2.5 Q-78.6 -11.05 -83.65 -11.5 L-70.75 -14.65 M-68.45 23.2 L-76.65 25.6 -75.15 25.0 -68.45 23.2" fill="#b0b0b0" fill-rule="evenodd" stroke="none"/>
  </g>
</svg>
