<?xml version="1.0" encoding="UTF-8" standalone="no"?>
<svg xmlns:xlink="http://www.w3.org/1999/xlink" height="199.85px" width="218.8px" xmlns="http://www.w3.org/2000/svg">
  <g transform="matrix(1.0, 0.0, 0.0, 1.0, 134.3, 80.0)">
    <path d="M67.75 -64.15 L19.25 -54.0 24.5 -72.0 25.0 -72.15 28.6 -72.9 67.75 -64.15" fill="#a54916" fill-rule="evenodd" stroke="none"/>
    <path d="M19.25 -54.0 L19.1 -54.0 19.1 -53.9 -31.0 -43.5 -105.4 -66.15 -38.0 -77.15 -38.0 -66.0 -37.65 -66.0 -37.55 -65.65 Q-37.25 -64.8 -36.55 -64.1 L-36.0 -63.65 Q-32.45 -61.05 -21.6 -61.3 L-17.35 -61.5 -5.75 -62.65 Q-3.2 -63.0 -1.4 -64.4 L-1.25 -66.0 -0.75 -66.0 -0.75 -79.5 28.6 -72.9 25.0 -72.15 24.5 -72.0 19.25 -54.0" fill="#974012" fill-rule="evenodd" stroke="none"/>
    <path d="M67.75 -64.15 L68.1 -64.0 67.35 -32.65 64.5 -33.75 32.1 -42.75 21.85 -42.65 19.5 -41.65 19.1 -53.9 19.1 -54.0 19.25 -54.0 67.75 -64.15" fill="#8d3a0f" fill-rule="evenodd" stroke="none"/>
    <path d="M64.5 -33.75 L67.35 -32.65 Q72.75 -32.45 79.6 -22.5 L83.25 -12.9 84.5 0.1 Q83.05 15.9 80.35 19.0 L78.35 17.6 75.85 17.35 77.75 12.0 77.85 10.35 79.1 1.85 78.1 -8.75 75.1 -16.65 69.85 -22.65 63.0 -25.75 54.85 -25.4 50.75 -23.4 46.0 -25.15 40.35 -24.5 44.25 -28.25 49.85 -31.15 54.85 -33.4 64.5 -33.75" fill="#848484" fill-rule="evenodd" stroke="none"/>
    <path d="M75.85 17.35 L74.1 22.35 68.6 31.5 64.0 36.1 Q42.85 52.1 32.75 36.1 L29.0 28.1 27.75 16.85 29.1 6.1 33.1 -5.0 39.1 -14.4 46.75 -21.5 50.75 -23.4 54.85 -25.4 63.0 -25.75 69.85 -22.65 75.1 -16.65 78.1 -8.75 79.1 1.85 77.85 10.35 77.75 12.0 75.85 17.35 M36.0 49.75 L41.75 51.35 24.85 57.5 Q30.3 59.65 29.0 60.1 L12.6 66.25 11.6 66.1 7.5 64.0 6.35 64.25 -11.75 70.85 -12.0 71.1 -6.65 73.25 -22.75 79.25 -22.65 70.85 36.0 49.75 M46.85 51.6 L53.75 50.5 61.35 46.1 61.5 48.1 48.75 52.85 46.85 51.6 M-90.0 7.35 L-89.0 10.35 -89.25 12.0 -90.5 12.75 -91.4 12.85 -92.15 12.35 -93.15 10.35 -93.4 7.6 -92.75 6.6 -92.15 6.5 -90.65 6.6 -90.0 7.35" fill="#000000" fill-rule="evenodd" stroke="none"/>
    <path d="M40.35 -24.5 L35.5 -20.15 28.0 -8.5 23.25 4.6 21.25 19.1 22.85 32.5 27.6 42.75 34.6 49.0 34.75 49.25 3.1 35.75 -4.0 29.35 -9.0 18.85 -10.75 7.0 -9.15 -6.65 -4.15 -19.9 3.0 -30.5 11.5 -38.0 17.25 -40.65 49.85 -31.15 44.25 -28.25 40.35 -24.5" fill="#676767" fill-rule="evenodd" stroke="none"/>
    <path d="M80.35 19.0 Q72.8 37.9 65.5 42.6 L63.5 44.75 61.35 46.1 53.75 50.5 46.85 51.6 44.5 52.0 41.75 51.35 36.0 49.75 34.75 49.25 34.6 49.0 27.6 42.75 22.85 32.5 21.25 19.1 23.25 4.6 28.0 -8.5 35.5 -20.15 40.35 -24.5 46.0 -25.15 50.75 -23.4 46.75 -21.5 39.1 -14.4 33.1 -5.0 29.1 6.1 27.75 16.85 29.0 28.1 32.75 36.1 Q42.85 52.1 64.0 36.1 L68.6 31.5 74.1 22.35 75.85 17.35 78.35 17.6 80.35 19.0" fill="#818181" fill-rule="evenodd" stroke="none"/>
    <path d="M19.5 -41.65 L21.85 -42.65 32.1 -42.75 64.5 -33.75 54.85 -33.4 49.85 -31.15 17.25 -40.65 19.5 -41.65" fill="#b7b7b7" fill-rule="evenodd" stroke="none"/>
    <path d="M61.25 52.25 L66.5 53.6 72.25 57.0 72.6 60.0 72.35 64.0 68.75 65.85 60.75 63.85 Q71.05 75.15 76.6 87.25 L51.75 94.1 51.35 94.25 60.25 103.1 61.6 109.5 Q62.0 114.35 58.35 118.25 L53.25 119.85 Q38.0 119.3 39.25 99.5 L17.5 112.75 13.6 99.75 Q11.8 94.15 7.25 85.85 13.6 86.4 19.0 88.25 L22.75 84.85 23.6 80.5 19.75 75.75 18.35 74.75 13.25 72.1 8.25 72.25 Q4.5 74.05 2.25 78.1 L-1.65 75.85 -6.65 73.25 -12.0 71.1 -11.75 70.85 6.35 64.25 7.5 64.0 11.6 66.1 12.6 66.25 18.25 67.6 21.35 67.35 25.35 67.0 27.35 65.1 29.5 63.35 29.0 60.1 Q30.3 59.65 24.85 57.5 L41.75 51.35 44.5 52.0 46.85 51.6 48.75 52.85 52.1 55.75 54.1 57.6 55.25 54.6 56.6 52.6 60.85 52.25 61.25 52.25" fill="#68bfdb" fill-rule="evenodd" stroke="none"/>
    <path d="M19.1 -53.9 L19.5 -41.65 17.25 -40.65 11.5 -38.0 3.0 -30.5 -4.15 -19.9 -9.15 -6.65 -10.75 7.0 -9.0 18.85 -4.0 29.35 3.1 35.75 34.75 49.25 36.0 49.75 -22.65 70.85 -22.75 79.25 -6.65 73.25 -1.65 75.85 -27.9 85.75 -31.0 -43.5 19.1 -53.9 M65.5 42.6 L65.5 50.75 61.25 52.25 60.85 52.25 56.6 52.6 55.25 54.6 52.1 55.75 48.75 52.85 61.5 48.1 61.35 46.1 63.5 44.75 65.5 42.6 M27.35 65.1 L21.35 67.35 18.25 67.6 12.6 66.25 29.0 60.1 29.5 63.35 27.35 65.1" fill="#82330c" fill-rule="evenodd" stroke="none"/>
    <path d="M-38.0 -77.15 L-38.05 -80.0 -38.0 -80.0 -38.0 -77.15" fill="#6d6d6d" fill-rule="evenodd" stroke="none"/>
    <path d="M-75.15 25.0 L-74.15 24.5 -73.4 23.25 Q-71.95 22.9 -70.75 17.35 L-70.65 10.35 -70.9 8.75 -57.75 5.5 -57.4 7.6 -57.5 10.35 Q-57.4 19.4 -63.25 21.75 L-68.45 23.2 -75.15 25.0 M-83.65 -11.5 L-85.25 -11.75 -73.4 -14.65 -70.75 -14.65 -83.65 -11.5" fill="#797979" fill-rule="evenodd" stroke="none"/>
    <path d="M-27.9 85.75 L-98.15 47.5 -98.75 46.85 -100.65 14.35 -90.9 15.5 -88.75 15.25 -88.5 15.25 -86.75 18.85 Q-83.7 23.15 -82.9 23.25 L-80.5 25.1 -77.65 25.75 -76.65 25.6 -68.45 23.2 -63.25 21.75 Q-57.4 19.4 -57.5 10.35 L-57.4 7.6 -57.75 5.5 -58.4 1.35 -59.65 -2.5 Q-64.85 -14.45 -70.75 -14.65 L-73.4 -14.65 -85.25 -11.75 Q-88.65 -11.2 -90.0 -7.9 L-91.5 -2.5 -91.65 0.0 -97.15 -0.4 -101.5 -0.75 -105.4 -66.15 -31.0 -43.5 -27.9 85.75" fill="#5d1d02" fill-rule="evenodd" stroke="none"/>
    <path d="M-117.75 12.35 L-129.25 15.1 -128.4 13.5 -128.25 10.75 -122.15 9.35 -122.0 10.35 -122.15 10.85 -121.65 10.85 -116.0 9.5 -116.5 11.6 -117.75 12.35 M-132.15 3.6 L-119.9 0.75 -119.75 0.75 -119.65 0.85 -131.65 3.85 -132.15 3.6" fill="#980000" fill-rule="evenodd" stroke="none"/>
    <path d="M-100.65 14.35 L-117.75 12.35 -116.5 11.6 -116.0 9.5 Q-116.2 1.8 -119.65 0.85 L-119.75 0.75 -91.75 3.1 Q-87.85 5.2 -87.65 10.35 L-87.5 10.6 -87.65 13.35 -88.75 15.25 -90.9 15.5 -100.65 14.35 M-129.25 15.1 L-130.5 15.35 -131.0 15.1 -132.15 14.1 -133.9 10.25 Q-135.25 4.3 -132.15 3.6 L-131.65 3.85 -130.25 5.0 -129.4 6.5 -128.4 10.35 -128.25 10.75 -128.4 13.5 -129.25 15.1 M-90.0 7.35 L-90.65 6.6 -92.15 6.5 -92.75 6.6 -93.4 7.6 -93.15 10.35 -92.15 12.35 -91.4 12.85 -90.5 12.75 -89.25 12.0 -89.0 10.35 -90.0 7.35" fill="#7c0000" fill-rule="evenodd" stroke="none"/>
    <path d="M-115.15 -0.4 L-110.9 -1.5 -101.5 -0.75 -97.15 -0.4 -115.15 -0.4 M-77.75 8.1 L-77.9 10.35 -78.15 11.5 -79.15 12.75 -88.5 15.25 -88.75 15.25 -87.65 13.35 -87.5 10.6 -77.75 8.1" fill="#930000" fill-rule="evenodd" stroke="none"/>
    <path d="M-119.65 0.85 Q-116.2 1.8 -116.0 9.5 L-121.65 10.85 -122.15 10.85 -122.0 10.35 -122.15 9.35 -128.25 10.75 -128.4 10.35 -129.4 6.5 -130.25 5.0 -131.65 3.85 -119.65 0.85" fill="#e10000" fill-rule="evenodd" stroke="none"/>
    <path d="M-119.9 0.75 L-115.15 -0.4 -97.15 -0.4 -91.65 0.0 -83.0 0.6 -81.0 1.1 -78.9 3.75 -77.75 8.1 -87.5 10.6 -87.65 10.35 Q-87.85 5.2 -91.75 3.1 L-119.75 0.75 -119.9 0.75" fill="#d90000" fill-rule="evenodd" stroke="none"/>
    <path d="M-91.65 0.0 L-91.5 -2.5 -90.0 -7.9 Q-88.65 -11.2 -85.25 -11.75 L-83.65 -11.5 Q-78.6 -11.05 -74.25 -2.5 L-73.0 0.0 Q-70.6 7.1 -70.9 8.75 L-70.65 10.35 -70.75 17.35 Q-71.95 22.9 -73.4 23.25 L-74.15 24.5 -75.15 25.0 -76.65 25.6 -77.65 25.75 -80.5 25.1 -82.9 23.25 Q-83.7 23.15 -86.75 18.85 L-88.5 15.25 -79.15 12.75 -78.15 11.5 -77.9 10.35 -77.75 8.1 -78.9 3.75 -81.0 1.1 -83.0 0.6 -91.65 0.0" fill="#636363" fill-rule="evenodd" stroke="none"/>
    <path d="M-76.65 25.6 L-75.15 25.0 -68.45 23.2 -76.65 25.6 M-70.9 8.75 Q-70.6 7.1 -73.0 0.0 L-74.25 -2.5 Q-78.6 -11.05 -83.65 -11.5 L-70.75 -14.65 Q-64.85 -14.45 -59.65 -2.5 L-58.4 1.35 -57.75 5.5 -70.9 8.75" fill="#b0b0b0" fill-rule="evenodd" stroke="none"/>
  </g>
</svg>
