<?xml version="1.0" encoding="UTF-8" standalone="no"?>
<svg xmlns:xlink="http://www.w3.org/1999/xlink" height="206.85px" width="203.4px" xmlns="http://www.w3.org/2000/svg">
  <g transform="matrix(1.0, 0.0, 0.0, 1.0, 118.9, 80.0)">
    <path d="M67.75 -64.15 L19.25 -54.0 24.5 -72.0 25.0 -72.15 28.6 -72.9 67.75 -64.15" fill="#a54916" fill-rule="evenodd" stroke="none"/>
    <path d="M19.25 -54.0 L19.1 -54.0 19.1 -53.9 -31.0 -43.5 -105.4 -66.15 -38.0 -77.15 -38.0 -66.0 -37.65 -66.0 -37.55 -65.65 Q-37.25 -64.8 -36.55 -64.1 L-36.0 -63.65 Q-32.45 -61.05 -21.6 -61.3 L-17.35 -61.5 -5.75 -62.65 Q-3.2 -63.0 -1.4 -64.4 L-1.25 -66.0 -0.75 -66.0 -0.75 -79.5 28.6 -72.9 25.0 -72.15 24.5 -72.0 19.25 -54.0" fill="#974012" fill-rule="evenodd" stroke="none"/>
    <path d="M67.75 -64.15 L68.1 -64.0 67.35 -32.65 64.5 -33.75 32.1 -42.75 21.85 -42.65 19.5 -41.65 19.1 -53.9 19.1 -54.0 19.25 -54.0 67.75 -64.15" fill="#8d3a0f" fill-rule="evenodd" stroke="none"/>
    <path d="M64.5 -33.75 L67.35 -32.65 Q72.75 -32.45 79.6 -22.5 L83.25 -12.9 84.5 0.1 Q83.05 15.9 80.35 19.0 L78.35 17.6 75.85 17.35 77.75 12.0 77.85 10.35 79.1 1.85 78.1 -8.75 75.1 -16.65 69.85 -22.65 63.0 -25.75 54.85 -25.4 50.75 -23.4 46.0 -25.15 40.35 -24.5 44.25 -28.25 49.85 -31.15 54.85 -33.4 64.5 -33.75" fill="#848484" fill-rule="evenodd" stroke="none"/>
    <path d="M75.85 17.35 L74.1 22.35 68.6 31.5 64.0 36.1 Q42.85 52.1 32.75 36.1 L29.0 28.1 27.75 16.85 29.1 6.1 33.1 -5.0 39.1 -14.4 46.75 -21.5 50.75 -23.4 54.85 -25.4 63.0 -25.75 69.85 -22.65 75.1 -16.65 78.1 -8.75 79.1 1.85 77.85 10.35 77.75 12.0 75.85 17.35 M36.0 49.75 L41.6 51.35 24.1 57.75 Q26.1 57.85 29.1 60.0 L11.85 66.5 Q8.5 65.2 8.6 63.5 L-12.15 71.0 -12.65 71.35 Q-11.5 71.2 -7.4 73.6 L-22.75 79.25 -22.65 70.85 36.0 49.75 M47.25 51.5 L53.75 50.5 61.35 46.1 61.5 48.1 48.85 52.75 47.25 51.5 M-90.0 7.35 L-89.0 10.35 -89.25 12.0 -90.5 12.75 -91.4 12.85 -92.15 12.35 -93.15 10.35 -93.4 7.6 -92.75 6.6 -92.15 6.5 -90.65 6.6 -90.0 7.35" fill="#000000" fill-rule="evenodd" stroke="none"/>
    <path d="M40.35 -24.5 L35.5 -20.15 28.0 -8.5 23.25 4.6 21.25 19.1 22.85 32.5 27.6 42.75 34.6 49.0 34.75 49.25 3.1 35.75 -4.0 29.35 -9.0 18.85 -10.75 7.0 -9.15 -6.65 -4.15 -19.9 3.0 -30.5 11.5 -38.0 17.25 -40.65 49.85 -31.15 44.25 -28.25 40.35 -24.5" fill="#676767" fill-rule="evenodd" stroke="none"/>
    <path d="M80.35 19.0 Q72.8 37.9 65.5 42.6 L63.5 44.75 61.35 46.1 53.75 50.5 47.25 51.5 44.5 52.0 41.6 51.35 36.0 49.75 34.75 49.25 34.6 49.0 27.6 42.75 22.85 32.5 21.25 19.1 23.25 4.6 28.0 -8.5 35.5 -20.15 40.35 -24.5 46.0 -25.15 50.75 -23.4 46.75 -21.5 39.1 -14.4 33.1 -5.0 29.1 6.1 27.75 16.85 29.0 28.1 32.75 36.1 Q42.85 52.1 64.0 36.1 L68.6 31.5 74.1 22.35 75.85 17.35 78.35 17.6 80.35 19.0" fill="#818181" fill-rule="evenodd" stroke="none"/>
    <path d="M19.5 -41.65 L21.85 -42.65 32.1 -42.75 64.5 -33.75 54.85 -33.4 49.85 -31.15 17.25 -40.65 19.5 -41.65" fill="#b7b7b7" fill-rule="evenodd" stroke="none"/>
    <path d="M52.1 55.75 L56.1 60.5 57.6 57.25 57.75 57.1 59.25 54.85 63.25 54.75 68.75 56.6 74.0 61.0 74.0 65.5 73.25 68.85 69.35 70.75 64.75 68.85 62.1 68.25 Q68.65 76.55 74.0 93.6 L49.35 100.5 56.5 109.75 Q58.75 117.15 53.0 124.85 L52.6 125.35 47.25 126.85 42.35 125.25 38.1 121.35 36.85 115.85 37.25 106.0 15.1 119.5 Q12.65 100.9 12.0 100.1 L8.75 90.5 12.25 91.1 19.85 93.6 23.6 90.25 25.0 85.75 24.85 84.85 21.25 79.0 15.5 75.1 10.25 75.0 Q5.85 78.1 4.5 81.25 L4.25 81.5 Q1.4 78.55 -2.65 76.35 L-4.75 74.75 -7.4 73.6 Q-11.5 71.2 -12.65 71.35 L-12.15 71.0 8.6 63.5 Q8.5 65.2 11.85 66.5 L14.0 68.0 17.0 68.85 Q30.9 73.55 31.6 63.5 L31.5 61.25 29.1 60.0 Q26.1 57.85 24.1 57.75 L41.6 51.35 44.5 52.0 47.25 51.5 48.85 52.75 52.1 55.75" fill="#68bfdb" fill-rule="evenodd" stroke="none"/>
    <path d="M19.1 -53.9 L19.5 -41.65 17.25 -40.65 11.5 -38.0 3.0 -30.5 -4.15 -19.9 -9.15 -6.65 -10.75 7.0 -9.0 18.85 -4.0 29.35 3.1 35.75 34.75 49.25 36.0 49.75 -22.65 70.85 -22.75 79.25 -7.4 73.6 -4.75 74.75 -2.65 76.35 -27.9 85.75 -31.0 -43.5 19.1 -53.9 M65.5 42.6 L65.5 50.75 52.1 55.75 48.85 52.75 61.5 48.1 61.35 46.1 63.5 44.75 65.5 42.6 M29.1 60.0 L31.5 61.25 31.6 63.5 17.0 68.85 14.0 68.0 11.85 66.5 29.1 60.0" fill="#82330c" fill-rule="evenodd" stroke="none"/>
    <path d="M-38.0 -77.15 L-38.05 -80.0 -38.0 -80.0 -38.0 -77.15" fill="#6d6d6d" fill-rule="evenodd" stroke="none"/>
    <path d="M-27.9 85.75 L-93.25 50.0 -92.15 49.5 -91.9 49.0 -82.5 23.6 -80.5 25.1 -77.65 25.75 -76.65 25.6 -68.45 23.2 -63.25 21.75 Q-57.4 19.4 -57.5 10.35 L-57.4 7.6 -57.75 5.5 -58.4 1.35 -59.65 -2.5 Q-64.85 -14.45 -70.75 -14.65 L-73.4 -14.65 -85.25 -11.75 Q-88.65 -11.2 -90.0 -7.9 L-91.5 -2.5 -91.65 2.85 -92.5 3.25 -93.5 3.75 -94.15 4.85 -99.9 22.25 -100.0 22.35 -100.0 22.5 -100.15 22.5 -105.4 -66.15 -31.0 -43.5 -27.9 85.75" fill="#5d1d02" fill-rule="evenodd" stroke="none"/>
    <path d="M-85.25 -11.75 L-73.4 -14.65 -70.75 -14.65 -83.65 -11.5 -85.25 -11.75 M-57.75 5.5 L-57.4 7.6 -57.5 10.35 Q-57.4 19.4 -63.25 21.75 L-68.45 23.2 -75.15 25.0 -74.15 24.5 -73.4 23.25 Q-71.95 22.9 -70.75 17.35 L-70.65 10.35 -70.9 8.75 -57.75 5.5" fill="#797979" fill-rule="evenodd" stroke="none"/>
    <path d="M-100.15 22.75 L-100.15 22.5 -100.0 22.5 -100.15 22.75" fill="#8b0000" fill-rule="evenodd" stroke="none"/>
    <path d="M-114.25 56.35 Q-116.75 56.85 -118.75 50.85 L-118.9 46.1 -118.25 45.0 -117.5 44.6 -116.75 44.6 -115.5 45.35 -114.5 46.6 -113.5 49.0 -112.75 52.6 -113.0 54.85 -113.5 55.85 -114.25 56.35 M-106.25 41.25 L-100.15 22.75 -100.0 22.5 -100.0 22.35 -99.9 22.25 -94.15 4.85 -93.5 3.75 -92.5 3.25 -91.9 3.25 Q-90.35 3.3 -89.0 5.6 L-87.5 10.35 -87.5 11.25 -87.65 13.1 -100.25 49.35 -100.65 49.1 -100.65 49.0 Q-100.65 42.65 -105.15 41.1 L-106.25 41.25 M-90.0 7.35 L-90.65 6.6 -92.15 6.5 -92.75 6.6 -93.4 7.6 -93.15 10.35 -92.15 12.35 -91.4 12.85 -90.5 12.75 -89.25 12.0 -89.0 10.35 -90.0 7.35" fill="#7c0000" fill-rule="evenodd" stroke="none"/>
    <path d="M-91.65 2.85 L-91.5 -2.5 -90.0 -7.9 Q-88.65 -11.2 -85.25 -11.75 L-83.65 -11.5 Q-78.6 -11.05 -74.25 -2.5 L-73.0 0.0 Q-70.6 7.1 -70.9 8.75 L-70.65 10.35 -70.75 17.35 Q-71.95 22.9 -73.4 23.25 L-74.15 24.5 -75.15 25.0 -76.65 25.6 -77.65 25.75 -80.5 25.1 -82.5 23.6 -77.9 10.35 -77.75 8.85 Q-78.4 0.85 -83.0 0.85 L-91.65 2.85" fill="#636363" fill-rule="evenodd" stroke="none"/>
    <path d="M-70.75 -14.65 Q-64.85 -14.45 -59.65 -2.5 L-58.4 1.35 -57.75 5.5 -70.9 8.75 Q-70.6 7.1 -73.0 0.0 L-74.25 -2.5 Q-78.6 -11.05 -83.65 -11.5 L-70.75 -14.65 M-68.45 23.2 L-76.65 25.6 -75.15 25.0 -68.45 23.2" fill="#b0b0b0" fill-rule="evenodd" stroke="none"/>
    <path d="M-77.75 8.85 L-87.5 11.25 -87.5 10.35 -89.0 5.6 Q-90.35 3.3 -91.9 3.25 L-83.0 0.85 Q-78.4 0.85 -77.75 8.85 M-100.65 49.1 L-112.75 52.6 -113.5 49.0 -114.5 46.6 -115.5 45.35 -116.75 44.6 -105.15 41.1 Q-100.65 42.65 -100.65 49.0 L-100.65 49.1" fill="#dd0000" fill-rule="evenodd" stroke="none"/>
    <path d="M-93.25 50.0 L-114.25 56.35 -113.5 55.85 -113.0 54.85 -112.75 52.6 -100.65 49.1 -100.25 49.35 -87.65 13.1 -87.5 11.25 -77.75 8.85 -77.9 10.35 -82.5 23.6 -91.9 49.0 -92.15 49.5 -93.25 50.0 M-117.5 44.6 L-106.25 41.25 -105.15 41.1 -116.75 44.6 -117.5 44.6 M-91.9 3.25 L-92.5 3.25 -91.65 2.85 -83.0 0.85 -91.9 3.25" fill="#880000" fill-rule="evenodd" stroke="none"/>
  </g>
</svg>
