<?xml version="1.0" encoding="UTF-8" standalone="no"?>
<svg xmlns:xlink="http://www.w3.org/1999/xlink" height="208.1px" width="194.3px" xmlns="http://www.w3.org/2000/svg">
  <g transform="matrix(1.0, 0.0, 0.0, 1.0, 109.8, 80.0)">
    <path d="M67.75 -64.15 L19.25 -54.0 24.5 -72.0 25.0 -72.15 28.6 -72.9 67.75 -64.15" fill="#a54916" fill-rule="evenodd" stroke="none"/>
    <path d="M19.25 -54.0 L19.1 -54.0 19.1 -53.9 -31.0 -43.5 -105.4 -66.15 -38.0 -77.15 -38.0 -66.0 -37.65 -66.0 -37.55 -65.65 Q-37.25 -64.8 -36.55 -64.1 L-36.0 -63.65 Q-32.45 -61.05 -21.6 -61.3 L-17.35 -61.5 -5.75 -62.65 Q-3.2 -63.0 -1.4 -64.4 L-1.25 -66.0 -0.75 -66.0 -0.75 -79.5 28.6 -72.9 25.0 -72.15 24.5 -72.0 19.25 -54.0" fill="#974012" fill-rule="evenodd" stroke="none"/>
    <path d="M67.75 -64.15 L68.1 -64.0 67.35 -32.65 64.5 -33.75 32.1 -42.75 21.85 -42.65 19.5 -41.65 19.1 -53.9 19.1 -54.0 19.25 -54.0 67.75 -64.15" fill="#8d3a0f" fill-rule="evenodd" stroke="none"/>
    <path d="M64.5 -33.75 L67.35 -32.65 Q72.75 -32.45 79.6 -22.5 L83.25 -12.9 84.5 0.1 Q83.05 15.9 80.35 19.0 L78.35 17.6 75.85 17.35 77.75 12.0 77.85 10.35 79.1 1.85 78.1 -8.75 75.1 -16.65 69.85 -22.65 63.0 -25.75 54.85 -25.4 50.75 -23.4 46.0 -25.15 40.35 -24.5 44.25 -28.25 49.85 -31.15 54.85 -33.4 64.5 -33.75" fill="#848484" fill-rule="evenodd" stroke="none"/>
    <path d="M75.85 17.35 L74.1 22.35 68.6 31.5 64.0 36.1 Q42.85 52.1 32.75 36.1 L29.0 28.1 27.75 16.85 29.1 6.1 33.1 -5.0 39.1 -14.4 46.75 -21.5 50.75 -23.4 54.85 -25.4 63.0 -25.75 69.85 -22.65 75.1 -16.65 78.1 -8.75 79.1 1.85 77.85 10.35 77.75 12.0 75.85 17.35 M36.0 49.75 L41.6 51.35 23.1 58.1 Q27.6 58.35 29.1 60.1 L11.75 66.5 Q9.1 65.85 9.5 63.25 L-12.5 71.1 -12.9 71.35 Q-9.5 72.2 -7.65 73.6 L-22.75 79.25 -22.65 70.85 36.0 49.75 M47.5 51.5 L53.75 50.5 61.35 46.1 61.5 48.1 49.0 52.75 47.5 51.5 M-89.0 10.35 L-89.25 12.0 -90.5 12.75 -91.4 12.85 -92.15 12.35 -93.15 10.35 -93.4 7.6 -92.75 6.6 -92.15 6.5 Q-90.2 5.05 -89.0 10.35" fill="#000000" fill-rule="evenodd" stroke="none"/>
    <path d="M40.35 -24.5 L35.5 -20.15 28.0 -8.5 23.25 4.6 21.25 19.1 22.85 32.5 27.6 42.75 34.6 49.0 34.75 49.25 3.1 35.75 -4.0 29.35 -9.0 18.85 -10.75 7.0 -9.15 -6.65 -4.15 -19.9 3.0 -30.5 11.5 -38.0 17.25 -40.65 49.85 -31.15 44.25 -28.25 40.35 -24.5" fill="#676767" fill-rule="evenodd" stroke="none"/>
    <path d="M80.35 19.0 Q72.8 37.9 65.5 42.6 L63.5 44.75 61.35 46.1 53.75 50.5 47.5 51.5 44.5 52.0 41.6 51.35 36.0 49.75 34.75 49.25 34.6 49.0 27.6 42.75 22.85 32.5 21.25 19.1 23.25 4.6 28.0 -8.5 35.5 -20.15 40.35 -24.5 46.0 -25.15 50.75 -23.4 46.75 -21.5 39.1 -14.4 33.1 -5.0 29.1 6.1 27.75 16.85 29.0 28.1 32.75 36.1 Q42.85 52.1 64.0 36.1 L68.6 31.5 74.1 22.35 75.85 17.35 78.35 17.6 80.35 19.0" fill="#818181" fill-rule="evenodd" stroke="none"/>
    <path d="M19.5 -41.65 L21.85 -42.65 32.1 -42.75 64.5 -33.75 54.85 -33.4 49.85 -31.15 17.25 -40.65 19.5 -41.65" fill="#b7b7b7" fill-rule="evenodd" stroke="none"/>
    <path d="M52.25 55.6 L56.85 61.35 58.5 58.0 58.5 57.85 59.85 55.6 64.1 55.5 69.5 57.5 74.0 61.1 74.6 62.1 74.6 66.35 74.0 69.75 73.6 70.1 69.75 71.75 63.35 69.25 62.85 69.5 67.85 77.75 Q68.85 78.9 74.35 94.85 L49.75 101.75 56.85 111.0 Q59.35 117.65 53.35 126.1 L53.0 126.6 47.75 128.1 42.75 126.5 38.6 122.75 37.25 117.0 37.6 107.25 15.5 120.75 Q13.4 104.05 12.6 102.1 L9.5 91.75 13.1 92.35 20.5 94.85 24.0 91.6 Q25.75 87.15 25.5 86.0 L22.0 80.1 16.35 76.1 10.85 75.85 Q6.15 79.65 5.25 82.25 L5.0 82.5 Q2.4 79.55 -2.9 76.35 L-5.25 74.75 -7.65 73.6 Q-9.5 72.2 -12.9 71.35 L-12.5 71.1 9.5 63.25 Q9.1 65.85 11.75 66.5 L14.85 68.75 16.35 69.1 21.75 71.1 28.35 70.75 32.75 66.5 32.35 63.25 32.25 61.85 29.1 60.1 Q27.6 58.35 23.1 58.1 L41.6 51.35 44.5 52.0 47.5 51.5 49.0 52.75 52.25 55.6" fill="#68bfdb" fill-rule="evenodd" stroke="none"/>
    <path d="M19.1 -53.9 L19.5 -41.65 17.25 -40.65 11.5 -38.0 3.0 -30.5 -4.15 -19.9 -9.15 -6.65 -10.75 7.0 -9.0 18.85 -4.0 29.35 3.1 35.75 34.75 49.25 36.0 49.75 -22.65 70.85 -22.75 79.25 -7.65 73.6 -5.25 74.75 -2.9 76.35 -27.9 85.75 -31.0 -43.5 19.1 -53.9 M65.5 42.6 L65.5 50.75 Q58.9 53.2 52.25 55.6 L49.0 52.75 61.5 48.1 61.35 46.1 63.5 44.75 65.5 42.6 M16.35 69.1 L14.85 68.75 11.75 66.5 29.1 60.1 32.25 61.85 32.35 63.25 16.35 69.1" fill="#82330c" fill-rule="evenodd" stroke="none"/>
    <path d="M-38.0 -77.15 L-38.05 -80.0 -38.0 -80.0 -38.0 -77.15" fill="#6d6d6d" fill-rule="evenodd" stroke="none"/>
    <path d="M-27.9 85.75 Q-54.7 71.15 -81.5 56.5 L-79.0 25.5 -76.65 25.6 -68.45 23.2 -63.25 21.75 Q-57.4 19.4 -57.5 10.35 L-57.4 7.6 -57.75 5.5 -58.4 1.35 -59.65 -2.5 Q-64.85 -14.45 -70.75 -14.65 L-73.4 -14.65 -85.25 -11.75 Q-88.65 -11.2 -90.0 -7.9 L-91.5 -2.5 -91.65 2.85 -92.5 3.25 -93.5 3.75 -94.15 5.0 -97.25 47.85 -98.75 46.85 -105.4 -66.15 -31.0 -43.5 -27.9 85.75" fill="#5d1d02" fill-rule="evenodd" stroke="none"/>
    <path d="M-75.15 25.0 L-74.15 24.5 -73.4 23.25 Q-71.95 22.9 -70.75 17.35 L-70.65 10.35 -70.9 8.75 -57.75 5.5 -57.4 7.6 -57.5 10.35 Q-57.4 19.4 -63.25 21.75 L-68.45 23.2 -75.15 25.0 M-83.65 -11.5 L-85.25 -11.75 -73.4 -14.65 -70.75 -14.65 -83.65 -11.5" fill="#797979" fill-rule="evenodd" stroke="none"/>
    <path d="M-91.65 2.85 L-91.5 -2.5 -90.0 -7.9 Q-88.65 -11.2 -85.25 -11.75 L-83.65 -11.5 Q-78.6 -11.05 -74.25 -2.5 L-73.0 0.0 Q-70.6 7.1 -70.9 8.75 L-70.65 10.35 -70.75 17.35 Q-71.95 22.9 -73.4 23.25 L-74.15 24.5 -75.15 25.0 -76.65 25.6 -79.0 25.5 -77.75 8.75 Q-77.9 1.9 -83.0 0.85 L-91.65 2.85" fill="#636363" fill-rule="evenodd" stroke="none"/>
    <path d="M-76.65 25.6 L-75.15 25.0 -68.45 23.2 -76.65 25.6 M-70.9 8.75 Q-70.6 7.1 -73.0 0.0 L-74.25 -2.5 Q-78.6 -11.05 -83.65 -11.5 L-70.75 -14.65 Q-64.85 -14.45 -59.65 -2.5 L-58.4 1.35 -57.75 5.5 -70.9 8.75" fill="#b0b0b0" fill-rule="evenodd" stroke="none"/>
    <path d="M-104.65 67.75 Q-107.2 68.95 -109.5 62.25 -110.5 55.4 -108.0 55.85 L-107.75 55.85 Q-105.6 55.85 -103.65 61.85 L-103.4 64.0 -103.5 66.0 -104.0 67.25 -104.65 67.75 M-97.5 52.5 L-97.25 47.85 -94.15 5.0 -93.5 3.75 -92.5 3.25 -91.65 3.1 -89.4 5.0 Q-88.6 5.55 -87.5 10.35 L-87.5 11.25 -91.15 58.6 -92.75 54.25 -93.9 52.85 -94.9 52.25 -95.65 52.25 -97.5 52.5 M-89.0 10.35 Q-90.2 5.05 -92.15 6.5 L-92.75 6.6 -93.4 7.6 -93.15 10.35 -92.15 12.35 -91.4 12.85 -90.5 12.75 -89.25 12.0 -89.0 10.35" fill="#7c0000" fill-rule="evenodd" stroke="none"/>
    <path d="M-83.0 0.85 Q-77.9 1.9 -77.75 8.75 L-87.5 11.25 -87.5 10.35 Q-88.6 5.55 -89.4 5.0 L-91.65 3.1 -83.0 0.85 M-95.65 52.25 L-94.9 52.25 -93.9 52.85 -92.75 54.25 -91.15 58.6 -91.0 59.35 -91.15 60.25 -103.4 64.0 -103.65 61.85 Q-105.6 55.85 -107.75 55.85 L-95.65 52.25" fill="#dd0000" fill-rule="evenodd" stroke="none"/>
    <path d="M-81.5 56.5 Q-81.4 60.0 -83.25 61.0 L-104.65 67.75 -104.0 67.25 -103.5 66.0 -103.4 64.0 -91.15 60.25 -91.0 59.35 -91.15 58.6 -87.5 11.25 -77.75 8.75 -79.0 25.5 -81.5 56.5 M-108.0 55.85 L-97.5 52.5 -95.65 52.25 -107.75 55.85 -108.0 55.85 M-91.65 2.85 L-83.0 0.85 -91.65 3.1 -92.5 3.25 -91.65 2.85" fill="#8b0000" fill-rule="evenodd" stroke="none"/>
  </g>
</svg>
