<?xml version="1.0" encoding="UTF-8" standalone="no"?>
<svg xmlns:xlink="http://www.w3.org/1999/xlink" height="205.25px" width="189.9px" xmlns="http://www.w3.org/2000/svg">
  <g transform="matrix(1.0, 0.0, 0.0, 1.0, 105.4, 80.0)">
    <path d="M67.75 -64.15 L19.25 -54.0 24.5 -72.0 25.0 -72.15 28.6 -72.9 67.75 -64.15" fill="#a54916" fill-rule="evenodd" stroke="none"/>
    <path d="M19.25 -54.0 L19.1 -54.0 19.1 -53.9 -31.0 -43.5 -105.4 -66.15 -38.0 -77.15 -38.0 -66.0 -37.65 -66.0 -37.55 -65.65 Q-37.25 -64.8 -36.55 -64.1 L-36.0 -63.65 Q-32.45 -61.05 -21.6 -61.3 L-17.35 -61.5 -5.75 -62.65 Q-3.2 -63.0 -1.4 -64.4 L-1.25 -66.0 -0.75 -66.0 -0.75 -79.5 28.6 -72.9 25.0 -72.15 24.5 -72.0 19.25 -54.0" fill="#974012" fill-rule="evenodd" stroke="none"/>
    <path d="M67.75 -64.15 L68.1 -64.0 67.35 -32.65 64.5 -33.75 32.1 -42.75 21.85 -42.65 19.5 -41.65 19.1 -53.9 19.1 -54.0 19.25 -54.0 67.75 -64.15" fill="#8d3a0f" fill-rule="evenodd" stroke="none"/>
    <path d="M64.5 -33.75 L67.35 -32.65 Q72.75 -32.45 79.6 -22.5 L83.25 -12.9 84.5 0.1 Q83.05 15.9 80.35 19.0 L78.35 17.6 75.85 17.35 77.75 12.0 77.85 10.35 79.1 1.85 78.1 -8.75 75.1 -16.65 69.85 -22.65 63.0 -25.75 54.85 -25.4 50.75 -23.4 46.0 -25.15 40.35 -24.5 44.25 -28.25 49.85 -31.15 54.85 -33.4 64.5 -33.75" fill="#848484" fill-rule="evenodd" stroke="none"/>
    <path d="M75.85 17.35 L74.1 22.35 68.6 31.5 64.0 36.1 Q42.85 52.1 32.75 36.1 L29.0 28.1 27.75 16.85 29.1 6.1 33.1 -5.0 39.1 -14.4 46.75 -21.5 50.75 -23.4 54.85 -25.4 63.0 -25.75 69.85 -22.65 75.1 -16.65 78.1 -8.75 79.1 1.85 77.85 10.35 77.75 12.0 75.85 17.35 M36.0 49.75 L41.6 51.35 22.75 58.25 Q29.55 59.1 29.1 60.0 L11.85 66.5 10.75 65.85 10.25 63.6 10.0 62.85 -12.65 71.1 -13.0 71.5 -7.65 73.6 -22.75 79.25 -22.65 70.85 36.0 49.75 M47.6 51.5 L53.75 50.5 61.35 46.1 61.5 48.1 49.25 52.6 47.6 51.5 M-89.0 10.35 L-89.25 12.0 -90.5 12.75 -91.4 12.85 -92.15 12.35 -93.15 10.35 -93.4 7.6 -92.75 6.6 -92.15 6.5 -90.75 6.5 -90.0 7.25 -89.0 10.35" fill="#000000" fill-rule="evenodd" stroke="none"/>
    <path d="M40.35 -24.5 L35.5 -20.15 28.0 -8.5 23.25 4.6 21.25 19.1 22.85 32.5 27.6 42.75 34.6 49.0 34.75 49.25 3.1 35.75 -4.0 29.35 -9.0 18.85 -10.75 7.0 -9.15 -6.65 -4.15 -19.9 3.0 -30.5 11.5 -38.0 17.25 -40.65 49.85 -31.15 44.25 -28.25 40.35 -24.5" fill="#676767" fill-rule="evenodd" stroke="none"/>
    <path d="M80.35 19.0 Q72.8 37.9 65.5 42.6 L63.5 44.75 61.35 46.1 53.75 50.5 47.6 51.5 44.5 52.0 41.6 51.35 36.0 49.75 34.75 49.25 34.6 49.0 27.6 42.75 22.85 32.5 21.25 19.1 23.25 4.6 28.0 -8.5 35.5 -20.15 40.35 -24.5 46.0 -25.15 50.75 -23.4 46.75 -21.5 39.1 -14.4 33.1 -5.0 29.1 6.1 27.75 16.85 29.0 28.1 32.75 36.1 Q42.85 52.1 64.0 36.1 L68.6 31.5 74.1 22.35 75.85 17.35 78.35 17.6 80.35 19.0" fill="#818181" fill-rule="evenodd" stroke="none"/>
    <path d="M19.5 -41.65 L21.85 -42.65 32.1 -42.75 64.5 -33.75 54.85 -33.4 49.85 -31.15 17.25 -40.65 19.5 -41.65" fill="#b7b7b7" fill-rule="evenodd" stroke="none"/>
    <path d="M52.75 55.5 L57.85 61.1 59.35 57.85 60.85 55.6 64.85 55.5 70.85 57.5 76.0 61.0 76.35 65.0 75.85 68.6 72.25 70.35 64.85 68.25 Q69.3 73.15 80.0 92.35 L54.6 99.35 63.75 108.25 Q66.65 113.45 64.35 120.25 L62.1 123.6 56.35 125.25 50.85 123.5 46.0 120.0 43.5 113.35 42.5 105.85 42.25 104.85 20.85 118.35 15.35 100.85 11.0 90.75 11.5 90.5 22.75 93.25 26.25 90.0 27.35 85.25 23.1 79.5 17.1 75.85 11.75 75.85 Q7.75 78.8 6.25 82.0 L5.85 82.1 Q4.3 80.3 -2.5 76.25 L-7.65 73.6 -13.0 71.5 -12.65 71.1 10.0 62.85 10.25 63.6 10.75 65.85 11.85 66.5 15.6 69.0 16.35 69.1 22.5 71.1 29.25 70.6 33.6 66.6 33.0 63.0 33.1 62.1 29.1 60.0 Q29.55 59.1 22.75 58.25 L41.6 51.35 44.5 52.0 47.6 51.5 49.25 52.6 52.75 55.5" fill="#68bfdb" fill-rule="evenodd" stroke="none"/>
    <path d="M19.1 -53.9 L19.5 -41.65 17.25 -40.65 11.5 -38.0 3.0 -30.5 -4.15 -19.9 -9.15 -6.65 -10.75 7.0 -9.0 18.85 -4.0 29.35 3.1 35.75 34.75 49.25 36.0 49.75 -22.65 70.85 -22.75 79.25 -7.65 73.6 -2.5 76.25 -27.9 85.75 -31.0 -43.5 19.1 -53.9 M65.5 42.6 L65.5 50.75 52.75 55.5 49.25 52.6 61.5 48.1 61.35 46.1 63.5 44.75 65.5 42.6 M16.35 69.1 L15.6 69.0 11.85 66.5 29.1 60.0 33.1 62.1 33.0 63.0 16.35 69.1" fill="#82330c" fill-rule="evenodd" stroke="none"/>
    <path d="M-38.0 -77.15 L-38.05 -80.0 -38.0 -80.0 -38.0 -77.15" fill="#6d6d6d" fill-rule="evenodd" stroke="none"/>
    <path d="M-85.25 -11.75 L-73.4 -14.65 -70.75 -14.65 -83.65 -11.5 -85.25 -11.75 M-57.75 5.5 L-57.4 7.6 -57.5 10.35 Q-57.4 19.4 -63.25 21.75 L-68.15 23.15 -74.5 24.85 -74.5 24.6 -73.4 23.25 Q-71.95 22.9 -70.75 17.35 L-70.65 10.35 -70.9 8.75 -57.75 5.5" fill="#797979" fill-rule="evenodd" stroke="none"/>
    <path d="M-27.9 85.75 L-67.15 64.5 -67.25 63.75 -74.5 25.0 -68.15 23.15 -63.25 21.75 Q-57.4 19.4 -57.5 10.35 L-57.4 7.6 -57.75 5.5 -58.4 1.35 -59.65 -2.5 Q-64.85 -14.45 -70.75 -14.65 L-73.4 -14.65 -85.25 -11.75 Q-88.65 -11.2 -90.0 -7.9 L-91.5 -2.5 -91.65 3.0 -91.9 3.1 Q-95.35 3.5 -94.0 10.35 L-91.5 23.25 Q-90.05 29.6 -89.0 36.1 L-85.65 54.1 -85.75 54.1 -98.75 47.0 -105.4 -66.15 -31.0 -43.5 -27.9 85.75" fill="#5d1d02" fill-rule="evenodd" stroke="none"/>
    <path d="M-70.75 -14.65 Q-64.85 -14.45 -59.65 -2.5 L-58.4 1.35 -57.75 5.5 -70.9 8.75 Q-70.6 7.1 -73.0 0.0 L-74.25 -2.5 Q-78.6 -11.05 -83.65 -11.5 L-70.75 -14.65 M-68.15 23.15 L-74.5 25.0 -74.5 24.85 -68.15 23.15" fill="#b0b0b0" fill-rule="evenodd" stroke="none"/>
    <path d="M-91.65 3.0 L-91.5 -2.5 -90.0 -7.9 Q-88.65 -11.2 -85.25 -11.75 L-83.65 -11.5 Q-78.6 -11.05 -74.25 -2.5 L-73.0 0.0 Q-70.6 7.1 -70.9 8.75 L-70.65 10.35 -70.75 17.35 Q-71.95 22.9 -73.4 23.25 L-74.5 24.6 -74.9 23.25 -78.4 4.85 Q-78.65 3.4 -80.9 1.25 L-82.75 0.75 -91.65 3.0" fill="#636363" fill-rule="evenodd" stroke="none"/>
    <path d="M-94.0 63.25 L-93.75 63.25 -93.65 63.1 -93.4 63.1 -93.25 63.0 -93.0 63.0 -92.9 62.85 -92.65 62.85 -92.5 62.75 -92.15 62.75 -92.0 62.6 -91.75 62.6 -91.65 62.5 -91.4 62.5 -91.25 62.35 -91.0 62.35 -90.9 62.25 -90.65 62.25 -90.5 62.1 -90.25 62.1 -90.15 62.0 -89.9 62.0 -89.75 61.85 -89.5 61.85 -89.4 61.75 -88.25 61.5 -88.15 61.35 -87.9 61.35 -87.75 61.25 -87.5 61.25 -87.4 61.1 -87.15 61.1 -86.9 61.0 -86.75 61.0 -86.5 60.85 -86.25 60.85 -86.15 60.75 -85.9 60.75 -85.75 60.6 -85.5 60.6 -85.4 60.5 -85.15 60.5 -85.0 60.35 -84.75 60.35 -84.65 60.25 -84.5 60.25 -84.4 60.25 -84.15 60.1 -84.0 60.1 -83.75 60.0 -83.65 60.0 -83.4 59.85 -81.65 59.35 -80.25 59.75 -78.4 61.85 -77.75 63.1 -77.5 63.1 -87.5 10.35 Q-88.6 3.95 -91.9 3.1 L-91.65 3.0 -82.75 0.75 -80.9 1.25 Q-78.65 3.4 -78.4 4.85 L-74.9 23.25 -74.5 24.6 -74.5 24.85 -74.5 25.0 -67.25 63.75 -89.25 71.0 -90.65 66.25 Q-92.95 62.9 -94.0 63.35 L-94.0 63.25" fill="#db0000" fill-rule="evenodd" stroke="none"/>
    <path d="M-90.4 75.5 Q-92.1 77.6 -95.5 70.75 -97.2 64.15 -94.15 63.35 L-94.0 63.35 Q-92.95 62.9 -90.65 66.25 L-89.25 71.0 -89.25 73.5 -89.75 74.75 -90.4 75.5 M-84.5 60.1 L-85.65 54.25 -85.65 54.1 -89.0 36.1 Q-90.05 29.6 -91.5 23.25 L-94.0 10.35 Q-95.35 3.5 -91.9 3.1 -88.6 3.95 -87.5 10.35 L-77.5 63.1 -77.75 63.1 -78.4 61.85 -80.25 59.75 -81.65 59.35 -83.4 59.85 -83.65 60.0 -83.75 60.0 -84.0 60.1 -84.15 60.1 -84.4 60.1 -84.5 60.1 M-89.0 10.35 L-90.0 7.25 -90.75 6.5 -92.15 6.5 -92.75 6.6 -93.4 7.6 -93.15 10.35 -92.15 12.35 -91.4 12.85 -90.5 12.75 -89.25 12.0 -89.0 10.35" fill="#7c0000" fill-rule="evenodd" stroke="none"/>
    <path d="M-85.65 54.25 L-85.75 54.1 -85.65 54.1 -85.65 54.25" fill="#e00000" fill-rule="evenodd" stroke="none"/>
    <path d="M-84.5 60.25 L-84.5 60.1 -84.4 60.1 -84.4 60.25 -84.5 60.25" fill="#920000" fill-rule="evenodd" stroke="none"/>
    <path d="M-67.15 64.5 Q-67.45 68.1 -68.5 68.25 L-90.4 75.5 -89.75 74.75 -89.25 73.5 -89.25 71.0 -67.25 63.75 -67.15 64.5 M-94.15 63.35 L-94.0 63.25 -94.0 63.35 -94.15 63.35 M-84.15 60.1 L-84.4 60.25 -84.4 60.1 -84.15 60.1" fill="#8e0000" fill-rule="evenodd" stroke="none"/>
  </g>
</svg>
