<?xml version="1.0" encoding="UTF-8" standalone="no"?>
<svg xmlns:xlink="http://www.w3.org/1999/xlink" height="198.1px" width="189.9px" xmlns="http://www.w3.org/2000/svg">
  <g transform="matrix(1.0, 0.0, 0.0, 1.0, 105.4, 80.0)">
    <path d="M67.75 -64.15 L19.25 -54.0 24.5 -72.0 25.0 -72.15 28.6 -72.9 67.75 -64.15" fill="#a54916" fill-rule="evenodd" stroke="none"/>
    <path d="M19.25 -54.0 L19.1 -54.0 19.1 -53.9 -31.0 -43.5 -105.4 -66.15 -38.0 -77.15 -38.0 -66.0 -37.65 -66.0 -37.55 -65.65 Q-37.25 -64.8 -36.55 -64.1 L-36.0 -63.65 Q-32.45 -61.05 -21.6 -61.3 L-17.35 -61.5 -5.75 -62.65 Q-3.2 -63.0 -1.4 -64.4 L-1.25 -66.0 -0.75 -66.0 -0.75 -79.5 28.6 -72.9 25.0 -72.15 24.5 -72.0 19.25 -54.0" fill="#974012" fill-rule="evenodd" stroke="none"/>
    <path d="M67.75 -64.15 L68.1 -64.0 67.35 -32.65 64.5 -33.75 32.1 -42.75 21.85 -42.65 19.5 -41.65 19.1 -53.9 19.1 -54.0 19.25 -54.0 67.75 -64.15" fill="#8d3a0f" fill-rule="evenodd" stroke="none"/>
    <path d="M64.5 -33.75 L67.35 -32.65 Q72.75 -32.45 79.6 -22.5 L83.25 -12.9 84.5 0.1 Q83.05 15.9 80.35 19.0 L78.35 17.6 75.85 17.35 77.75 12.0 77.85 10.35 79.1 1.85 78.1 -8.75 75.1 -16.65 69.85 -22.65 63.0 -25.75 54.85 -25.4 50.75 -23.4 46.0 -25.15 40.35 -24.5 44.25 -28.25 49.85 -31.15 54.85 -33.4 64.5 -33.75" fill="#848484" fill-rule="evenodd" stroke="none"/>
    <path d="M75.85 17.35 L74.1 22.35 68.6 31.5 64.0 36.1 Q42.85 52.1 32.75 36.1 L29.0 28.1 27.75 16.85 29.1 6.1 33.1 -5.0 39.1 -14.4 46.75 -21.5 50.75 -23.4 54.85 -25.4 63.0 -25.75 69.85 -22.65 75.1 -16.65 78.1 -8.75 79.1 1.85 77.85 10.35 77.75 12.0 75.85 17.35 M36.0 49.75 L41.6 51.35 22.75 58.25 Q29.65 59.1 29.35 60.0 L12.0 66.35 Q10.15 66.6 10.1 62.85 L-12.65 71.1 -13.0 71.5 -7.5 73.6 -22.75 79.25 -22.65 70.85 36.0 49.75 M47.6 51.5 L53.75 50.5 61.35 46.1 61.5 48.1 49.35 52.6 47.6 51.5 M-89.0 10.35 L-89.5 12.35 -90.5 12.75 -91.4 12.85 -92.15 12.35 -93.15 10.35 -93.4 7.6 -92.75 6.6 -92.15 6.5 -90.65 6.6 -90.0 7.35 -89.0 10.35" fill="#000000" fill-rule="evenodd" stroke="none"/>
    <path d="M40.35 -24.5 L35.5 -20.15 28.0 -8.5 23.25 4.6 21.25 19.1 22.85 32.5 27.6 42.75 34.6 49.0 34.75 49.25 3.1 35.75 -4.0 29.35 -9.0 18.85 -10.75 7.0 -9.15 -6.65 -4.15 -19.9 3.0 -30.5 11.5 -38.0 17.25 -40.65 49.85 -31.15 44.25 -28.25 40.35 -24.5" fill="#676767" fill-rule="evenodd" stroke="none"/>
    <path d="M80.35 19.0 Q72.8 37.9 65.5 42.6 L63.5 44.75 61.35 46.1 53.75 50.5 47.6 51.5 44.5 52.0 41.6 51.35 36.0 49.75 34.75 49.25 34.6 49.0 27.6 42.75 22.85 32.5 21.25 19.1 23.25 4.6 28.0 -8.5 35.5 -20.15 40.35 -24.5 46.0 -25.15 50.75 -23.4 46.75 -21.5 39.1 -14.4 33.1 -5.0 29.1 6.1 27.75 16.85 29.0 28.1 32.75 36.1 Q42.85 52.1 64.0 36.1 L68.6 31.5 74.1 22.35 75.85 17.35 78.35 17.6 80.35 19.0" fill="#818181" fill-rule="evenodd" stroke="none"/>
    <path d="M19.5 -41.65 L21.85 -42.65 32.1 -42.75 64.5 -33.75 54.85 -33.4 49.85 -31.15 17.25 -40.65 19.5 -41.65" fill="#b7b7b7" fill-rule="evenodd" stroke="none"/>
    <path d="M19.1 -53.9 L19.5 -41.65 17.25 -40.65 11.5 -38.0 3.0 -30.5 -4.15 -19.9 -9.15 -6.65 -10.75 7.0 -9.0 18.85 -4.0 29.35 3.1 35.75 34.75 49.25 36.0 49.75 -22.65 70.85 -22.75 79.25 -7.5 73.6 -2.15 76.1 -27.9 85.75 -31.0 -43.5 19.1 -53.9 M65.5 42.6 L65.5 50.75 53.0 55.35 49.35 52.6 61.5 48.1 61.35 46.1 63.5 44.75 65.5 42.6 M29.35 60.0 L33.1 61.85 33.25 62.85 17.0 68.85 15.6 68.6 12.0 66.35 29.35 60.0" fill="#82330c" fill-rule="evenodd" stroke="none"/>
    <path d="M53.0 55.35 L58.1 60.1 59.6 57.1 59.6 57.0 61.1 55.0 65.0 54.75 71.25 56.25 76.5 59.1 76.75 60.0 77.1 62.25 77.0 66.0 73.1 67.75 68.0 66.6 65.0 66.25 Q69.75 69.35 84.0 87.0 L83.85 87.35 58.1 94.5 69.0 102.35 Q72.6 107.35 71.25 112.85 L69.35 116.0 69.1 116.5 63.1 118.1 57.25 116.75 51.25 113.5 48.0 108.0 46.0 100.0 24.6 113.0 16.35 96.0 11.75 88.5 11.75 88.25 14.6 88.5 23.85 90.25 27.35 87.1 28.1 82.75 23.5 77.85 17.35 74.85 12.0 75.1 Q7.55 78.25 6.35 80.85 L-2.15 76.1 -7.5 73.6 -13.0 71.5 -12.65 71.1 10.1 62.85 Q10.15 66.6 12.0 66.35 L15.6 68.6 17.0 68.85 23.35 70.35 29.5 69.75 33.75 65.85 33.25 62.85 33.1 61.85 29.35 60.0 Q29.65 59.1 22.75 58.25 L41.6 51.35 44.5 52.0 47.6 51.5 49.35 52.6 53.0 55.35" fill="#68bfdb" fill-rule="evenodd" stroke="none"/>
    <path d="M-38.0 -77.15 L-38.05 -80.0 -38.0 -80.0 -38.0 -77.15" fill="#6d6d6d" fill-rule="evenodd" stroke="none"/>
    <path d="M-85.25 -11.75 L-73.4 -14.65 -70.75 -14.65 -83.65 -11.5 -85.25 -11.75 M-57.75 5.5 L-57.4 7.6 -57.5 10.35 Q-57.4 19.4 -63.25 21.75 L-73.0 24.35 -73.4 23.25 -73.25 23.1 Q-72.0 22.5 -70.75 17.35 L-70.65 10.35 -70.9 8.75 -57.75 5.5" fill="#797979" fill-rule="evenodd" stroke="none"/>
    <path d="M-27.9 85.75 L-62.5 66.85 -62.25 64.5 -62.5 61.85 -72.9 24.6 -63.25 21.75 Q-57.4 19.4 -57.5 10.35 L-57.4 7.6 -57.75 5.5 -58.4 1.35 -59.65 -2.5 Q-64.85 -14.45 -70.75 -14.65 L-73.4 -14.65 -85.25 -11.75 Q-88.65 -11.2 -90.0 -7.9 L-91.5 -2.5 -91.65 2.85 -92.5 3.25 Q-95.35 4.4 -93.9 10.35 L-81.15 56.6 -98.75 47.1 -105.4 -66.15 -31.0 -43.5 -27.9 85.75" fill="#5d1d02" fill-rule="evenodd" stroke="none"/>
    <path d="M-70.75 -14.65 Q-64.85 -14.45 -59.65 -2.5 L-58.4 1.35 -57.75 5.5 -70.9 8.75 Q-70.6 7.1 -73.0 0.0 L-74.25 -2.5 Q-78.6 -11.05 -83.65 -11.5 L-70.75 -14.65 M-63.25 21.75 L-72.9 24.6 -73.0 24.35 -63.25 21.75" fill="#b0b0b0" fill-rule="evenodd" stroke="none"/>
    <path d="M-91.65 2.85 L-91.5 -2.5 -90.0 -7.9 Q-88.65 -11.2 -85.25 -11.75 L-83.65 -11.5 Q-78.6 -11.05 -74.25 -2.5 L-73.0 0.0 Q-70.6 7.1 -70.9 8.75 L-70.65 10.35 -70.75 17.35 Q-72.0 22.5 -73.25 23.1 L-76.9 10.35 Q-79.4 -0.65 -82.9 0.85 L-91.65 2.85" fill="#636363" fill-rule="evenodd" stroke="none"/>
    <path d="M-72.9 24.6 L-62.5 61.85 -62.25 64.5 -77.5 69.6 -78.0 69.6 -78.4 67.85 -84.5 69.85 Q-86.15 63.9 -88.75 63.25 L-76.65 59.25 -75.9 59.25 -74.75 60.0 -73.4 61.85 -73.0 61.85 -87.4 10.35 Q-87.9 7.55 -89.4 5.0 L-91.65 3.1 -82.9 0.85 Q-79.4 -0.65 -76.9 10.35 L-73.25 23.1 -73.4 23.25 -73.0 24.35 -72.9 24.6" fill="#db0000" fill-rule="evenodd" stroke="none"/>
    <path d="M-85.75 75.6 Q-88.45 76.7 -90.9 70.35 -92.35 63.9 -89.5 63.25 L-88.75 63.25 Q-86.15 63.9 -84.5 69.85 L-84.4 73.0 -85.0 74.75 -85.75 75.6 M-80.15 60.1 L-81.15 56.6 -93.9 10.35 Q-95.35 4.4 -92.5 3.25 L-91.65 3.1 -89.4 5.0 Q-87.9 7.55 -87.4 10.35 L-73.0 61.85 -73.4 61.85 -74.75 60.0 -75.9 59.25 -76.65 59.25 -80.15 60.1 M-89.0 10.35 L-90.0 7.35 -90.65 6.6 -92.15 6.5 -92.75 6.6 -93.4 7.6 -93.15 10.35 -92.15 12.35 -91.4 12.85 -90.5 12.75 -89.5 12.35 -89.0 10.35" fill="#7c0000" fill-rule="evenodd" stroke="none"/>
    <path d="M-62.5 66.85 L-63.15 67.85 -64.0 68.35 -85.75 75.6 -85.0 74.75 -84.4 73.0 -84.5 69.85 -78.4 67.85 -78.0 69.6 -77.5 69.6 -62.25 64.5 -62.5 66.85 M-89.5 63.25 L-80.15 60.1 -76.65 59.25 -88.75 63.25 -89.5 63.25 M-82.9 0.85 L-91.65 3.1 -92.5 3.25 -91.65 2.85 -82.9 0.85" fill="#870000" fill-rule="evenodd" stroke="none"/>
  </g>
</svg>
