<?xml version="1.0" encoding="UTF-8" standalone="no"?>
<svg xmlns:xlink="http://www.w3.org/1999/xlink" height="200.6px" width="119.25px" xmlns="http://www.w3.org/2000/svg">
  <g transform="matrix(1.0, 0.0, 0.0, 1.0, -9.5, 85.3)">
    <path d="M20.1 -30.4 L20.25 -30.4 25.85 -49.05 35.0 -65.8 47.5 -78.3 62.1 -84.9 78.25 -85.3 94.0 -79.3 107.35 -68.05 118.1 -51.05 125.1 -30.8 128.5 -9.55 128.75 14.85 125.35 37.35 117.5 59.85 107.75 75.35 Q93.1 90.7 82.5 91.6 L81.1 91.85 Q79.55 87.75 77.75 85.45 L73.5 81.85 Q55.85 68.75 51.25 68.95 L47.5 68.1 Q33.3 67.9 33.35 68.95 L33.0 69.1 33.0 68.95 28.25 61.2 27.35 58.45 27.25 58.35 26.25 55.2 26.1 55.1 26.1 54.95 26.0 54.95 26.0 54.85 24.5 50.2 24.35 50.2 24.25 49.7 23.35 46.85 22.75 43.2 21.75 40.7 Q22.4 40.4 22.35 35.85 L21.35 30.85 21.35 23.2 20.35 18.1 20.5 17.45 19.85 9.2 16.75 -4.05 19.0 -24.05 19.0 -24.4 19.1 -24.4 20.1 -30.05 20.1 -30.4" fill="#b19771" fill-rule="evenodd" stroke="none"/>
    <path d="M22.1 63.7 Q17.1 72.5 19.1 54.1 L17.75 49.45 17.6 45.1 18.1 44.45 19.35 44.95 19.25 44.35 19.5 43.2 19.6 41.6 19.5 41.35 18.35 39.45 17.5 36.7 17.35 36.7 17.35 36.45 17.35 36.2 17.25 36.2 17.25 35.6 17.1 35.35 15.75 24.6 15.6 24.45 15.6 22.7 16.0 21.7 15.25 18.45 15.25 18.1 15.1 17.7 15.1 17.1 15.0 16.85 13.0 1.2 12.5 -7.05 10.25 -21.9 9.75 -29.3 10.25 -29.65 10.6 -28.9 16.75 -4.05 19.85 9.2 20.5 17.45 20.35 18.1 21.35 23.2 21.35 30.85 22.35 35.85 Q22.4 40.4 21.75 40.7 L22.75 43.2 23.35 46.85 24.25 49.7 24.35 50.2 24.5 50.2 26.0 54.85 26.0 54.95 25.5 55.2 24.85 55.2 23.85 54.35 23.35 57.85 22.25 63.45 22.1 63.7 M19.0 -24.4 L18.35 -30.15 18.35 -34.8 18.85 -34.8 20.1 -30.4 20.1 -30.05 19.1 -24.4 19.0 -24.4" fill="#5f3f2a" fill-rule="evenodd" stroke="none"/>
    <path d="M19.25 44.35 L18.25 41.45 17.35 36.7 17.5 36.7 18.35 39.45 19.5 41.35 19.6 41.6 19.5 43.2 19.25 44.35 M17.35 36.45 L17.25 36.2 17.35 36.2 17.35 36.45 M15.6 22.7 L15.25 18.45 16.0 21.7 15.6 22.7" fill="#ff488c" fill-rule="evenodd" stroke="none"/>
    <path d="M82.5 91.6 L81.85 94.2 82.75 100.95 Q82.8 109.2 82.1 110.95 L81.0 113.6 77.1 114.7 Q70.75 118.15 27.35 102.35 L18.1 98.1 Q11.4 94.7 9.5 90.35 12.85 74.85 28.25 70.35 L25.1 67.45 22.25 63.7 22.1 63.7 22.25 63.45 23.35 57.85 25.5 55.2 26.0 54.95 26.1 54.95 26.1 55.1 26.25 55.2 27.25 58.35 27.35 58.45 28.25 61.2 33.0 68.95 33.0 69.1 33.35 68.95 Q33.3 67.9 47.5 68.1 L51.25 68.95 Q55.85 68.75 73.5 81.85 L77.75 85.45 Q79.55 87.75 81.1 91.85 L82.5 91.6" fill="#573f70" fill-rule="evenodd" stroke="none"/>
  </g>
</svg>
