<?xml version="1.0" encoding="UTF-8" standalone="no"?>
<svg xmlns:xlink="http://www.w3.org/1999/xlink" height="200.9px" width="189.9px" xmlns="http://www.w3.org/2000/svg">
  <g transform="matrix(1.0, 0.0, 0.0, 1.0, 105.4, 79.5)">
    <path d="M67.75 -64.15 L19.25 -54.0 24.5 -72.0 25.0 -72.15 28.6 -72.9 67.75 -64.15" fill="#a54916" fill-rule="evenodd" stroke="none"/>
    <path d="M19.25 -54.0 L19.1 -54.0 19.1 -53.9 -31.0 -43.5 -105.4 -66.15 -38.0 -77.15 -38.0 -66.0 -37.65 -66.0 -37.55 -65.65 Q-37.25 -64.8 -36.55 -64.1 L-36.0 -63.65 Q-32.45 -61.05 -21.6 -61.3 L-17.35 -61.5 -5.75 -62.65 Q-3.2 -63.0 -1.4 -64.4 L-1.25 -66.0 -0.75 -66.0 -0.75 -79.5 28.6 -72.9 25.0 -72.15 24.5 -72.0 19.25 -54.0" fill="#974012" fill-rule="evenodd" stroke="none"/>
    <path d="M67.75 -64.15 L68.1 -64.0 67.35 -32.65 64.5 -33.75 32.1 -42.75 21.85 -42.65 19.5 -41.65 19.1 -53.9 19.1 -54.0 19.25 -54.0 67.75 -64.15" fill="#8d3a0f" fill-rule="evenodd" stroke="none"/>
    <path d="M64.5 -33.75 L67.35 -32.65 Q72.75 -32.45 79.6 -22.5 L83.25 -12.9 84.5 0.1 Q83.05 15.9 80.35 19.0 L78.35 17.6 75.85 17.35 77.75 12.0 77.85 10.35 79.1 1.85 78.1 -8.75 75.1 -16.65 69.85 -22.65 63.0 -25.75 54.85 -25.4 50.75 -23.4 46.0 -25.15 40.35 -24.5 44.25 -28.25 49.85 -31.15 54.85 -33.4 64.5 -33.75" fill="#848484" fill-rule="evenodd" stroke="none"/>
    <path d="M75.85 17.35 L74.1 22.35 68.6 31.5 64.0 36.1 Q42.85 52.1 32.75 36.1 L29.0 28.1 27.75 16.85 29.1 6.1 33.1 -5.0 39.1 -14.4 46.75 -21.5 50.75 -23.4 54.85 -25.4 63.0 -25.75 69.85 -22.65 75.1 -16.65 78.1 -8.75 79.1 1.85 77.85 10.35 77.75 12.0 75.85 17.35 M36.0 49.75 L41.6 51.35 22.75 58.25 Q29.25 59.1 29.25 60.0 L11.85 66.35 Q10.75 67.1 10.1 62.85 L-12.65 71.1 -13.0 71.5 -7.65 73.6 -22.75 79.25 -22.65 70.85 36.0 49.75 M47.6 51.5 L53.75 50.5 61.35 46.1 61.5 48.1 49.25 52.6 47.6 51.5 M-89.0 10.35 L-89.25 12.0 -90.5 12.75 -91.4 12.85 -92.15 12.35 -93.15 10.35 -93.4 7.6 -92.75 6.6 -92.15 6.5 -90.65 6.6 -90.0 7.25 -89.0 10.35" fill="#000000" fill-rule="evenodd" stroke="none"/>
    <path d="M40.35 -24.5 L35.5 -20.15 28.0 -8.5 23.25 4.6 21.25 19.1 22.85 32.5 27.6 42.75 34.6 49.0 34.75 49.25 3.1 35.75 -4.0 29.35 -9.0 18.85 -10.75 7.0 -9.15 -6.65 -4.15 -19.9 3.0 -30.5 11.5 -38.0 17.25 -40.65 49.85 -31.15 44.25 -28.25 40.35 -24.5" fill="#676767" fill-rule="evenodd" stroke="none"/>
    <path d="M80.35 19.0 Q72.8 37.9 65.5 42.6 L63.5 44.75 61.35 46.1 53.75 50.5 47.6 51.5 44.5 52.0 41.6 51.35 36.0 49.75 34.75 49.25 34.6 49.0 27.6 42.75 22.85 32.5 21.25 19.1 23.25 4.6 28.0 -8.5 35.5 -20.15 40.35 -24.5 46.0 -25.15 50.75 -23.4 46.75 -21.5 39.1 -14.4 33.1 -5.0 29.1 6.1 27.75 16.85 29.0 28.1 32.75 36.1 Q42.85 52.1 64.0 36.1 L68.6 31.5 74.1 22.35 75.85 17.35 78.35 17.6 80.35 19.0" fill="#818181" fill-rule="evenodd" stroke="none"/>
    <path d="M19.5 -41.65 L21.85 -42.65 32.1 -42.75 64.5 -33.75 54.85 -33.4 49.85 -31.15 17.25 -40.65 19.5 -41.65" fill="#b7b7b7" fill-rule="evenodd" stroke="none"/>
    <path d="M52.85 55.5 L58.0 60.6 59.6 57.5 59.6 57.35 61.0 55.35 65.0 55.1 70.75 56.6 76.35 60.1 76.75 65.0 76.35 67.35 72.75 69.1 64.6 67.25 Q71.6 73.65 82.1 89.85 L56.5 97.1 66.6 105.5 Q69.75 111.35 68.35 116.25 L65.75 120.5 Q52.35 124.05 47.0 113.35 46.1 113.95 44.25 102.6 L23.0 115.85 15.85 98.1 11.35 89.6 11.85 89.35 23.5 91.75 26.85 88.5 27.75 84.0 23.35 78.75 17.25 75.35 11.75 75.5 Q7.5 78.75 6.25 81.5 L-2.25 76.25 -7.65 73.6 -13.0 71.5 -12.65 71.1 10.1 62.85 Q10.75 67.1 11.85 66.35 L15.1 68.5 16.75 69.1 Q34.0 74.25 33.25 62.85 L33.0 61.85 29.25 60.0 Q29.25 59.1 22.75 58.25 L41.6 51.35 44.5 52.0 47.6 51.5 49.25 52.6 52.85 55.5" fill="#68bfdb" fill-rule="evenodd" stroke="none"/>
    <path d="M19.1 -53.9 L19.5 -41.65 17.25 -40.65 11.5 -38.0 3.0 -30.5 -4.15 -19.9 -9.15 -6.65 -10.75 7.0 -9.0 18.85 -4.0 29.35 3.1 35.75 34.75 49.25 36.0 49.75 -22.65 70.85 -22.75 79.25 -7.65 73.6 -2.25 76.25 -27.9 85.75 -31.0 -43.5 19.1 -53.9 M65.5 42.6 L65.5 50.75 52.85 55.5 49.25 52.6 61.5 48.1 61.35 46.1 63.5 44.75 65.5 42.6 M29.25 60.0 L33.0 61.85 33.25 62.85 16.75 69.1 15.1 68.5 11.85 66.35 29.25 60.0" fill="#82330c" fill-rule="evenodd" stroke="none"/>
    <path d="M-75.15 25.0 L-74.15 24.5 -73.4 23.25 Q-71.95 22.9 -70.75 17.35 L-70.65 10.35 -70.9 8.75 -57.75 5.5 -57.4 7.6 -57.5 10.35 Q-57.4 19.4 -63.25 21.75 L-68.45 23.2 -75.15 25.0 M-83.65 -11.5 L-85.25 -11.75 -73.4 -14.65 -70.75 -14.65 -83.65 -11.5" fill="#797979" fill-rule="evenodd" stroke="none"/>
    <path d="M-27.9 85.75 L-77.0 59.1 -77.5 25.75 -76.65 25.6 -68.45 23.2 -63.25 21.75 Q-57.4 19.4 -57.5 10.35 L-57.4 7.6 -57.75 5.5 -58.4 1.35 -59.65 -2.5 Q-64.85 -14.45 -70.75 -14.65 L-73.4 -14.65 -85.25 -11.75 Q-88.65 -11.2 -90.0 -7.9 L-91.5 -2.5 -91.65 3.0 -91.9 3.1 Q-94.65 2.0 -94.4 10.35 L-93.4 49.85 -93.5 49.85 -98.75 47.0 -105.4 -66.15 -31.0 -43.5 -27.9 85.75" fill="#5d1d02" fill-rule="evenodd" stroke="none"/>
    <path d="M-91.65 3.0 L-91.5 -2.5 -90.0 -7.9 Q-88.65 -11.2 -85.25 -11.75 L-83.65 -11.5 Q-78.6 -11.05 -74.25 -2.5 L-73.0 0.0 Q-70.6 7.1 -70.9 8.75 L-70.65 10.35 -70.75 17.35 Q-71.95 22.9 -73.4 23.25 L-74.15 24.5 -75.15 25.0 -76.65 25.6 -77.5 25.75 -77.65 10.35 -77.9 7.85 Q-78.35 2.1 -82.0 0.85 L-83.9 1.0 -91.65 3.0" fill="#636363" fill-rule="evenodd" stroke="none"/>
    <path d="M-76.65 25.6 L-75.15 25.0 -68.45 23.2 -76.65 25.6 M-70.9 8.75 Q-70.6 7.1 -73.0 0.0 L-74.25 -2.5 Q-78.6 -11.05 -83.65 -11.5 L-70.75 -14.65 Q-64.85 -14.45 -59.65 -2.5 L-58.4 1.35 -57.75 5.5 -70.9 8.75" fill="#b0b0b0" fill-rule="evenodd" stroke="none"/>
    <path d="M-77.0 59.1 Q-76.4 62.65 -78.25 64.5 L-99.75 71.35 -99.25 70.85 -98.75 69.1 -98.9 66.85 -86.65 63.1 -86.5 62.1 -86.65 61.85 -86.65 61.1 -87.65 10.25 -77.9 7.85 -77.65 10.35 -77.5 25.75 -77.0 59.1 M-93.4 50.0 L-93.5 49.85 -93.4 49.85 -93.4 50.0 M-91.65 3.0 L-83.9 1.0 -82.0 0.85 -91.5 3.25 -91.9 3.1 -91.65 3.0" fill="#970000" fill-rule="evenodd" stroke="none"/>
    <path d="M-99.75 71.35 Q-102.2 73.05 -104.9 66.5 -106.5 60.0 -103.15 59.5 L-102.25 59.85 -100.5 61.85 -99.65 63.6 -98.9 66.85 -98.75 69.1 -99.25 70.85 -99.75 71.35 M-93.25 56.25 L-93.4 50.0 -93.4 49.85 -94.4 10.35 Q-94.65 2.0 -91.9 3.1 L-91.5 3.25 Q-88.7 3.95 -87.65 10.25 L-86.65 61.1 Q-88.6 54.3 -93.25 56.25 M-89.0 10.35 L-90.0 7.25 -90.65 6.6 -92.15 6.5 -92.75 6.6 -93.4 7.6 -93.15 10.35 -92.15 12.35 -91.4 12.85 -90.5 12.75 -89.25 12.0 -89.0 10.35" fill="#7c0000" fill-rule="evenodd" stroke="none"/>
    <path d="M-103.15 59.5 L-93.25 56.25 Q-88.6 54.3 -86.65 61.1 L-86.65 61.85 -86.5 62.1 -86.65 63.1 -98.9 66.85 -99.65 63.6 -100.5 61.85 -102.25 59.85 -103.15 59.5 M-82.0 0.85 Q-78.35 2.1 -77.9 7.85 L-87.65 10.25 Q-88.7 3.95 -91.5 3.25 L-82.0 0.85" fill="#df0000" fill-rule="evenodd" stroke="none"/>
  </g>
</svg>
