<?xml version="1.0" encoding="UTF-8" standalone="no"?>
<svg xmlns:xlink="http://www.w3.org/1999/xlink" height="148.75px" width="162.55px" xmlns="http://www.w3.org/2000/svg">
  <g transform="matrix(1.0, 0.0, 0.0, 1.0, 21.05, 23.9)">
    <path d="M-1.65 16.35 L-1.5 16.35 5.0 4.95 18.1 -7.65 35.5 -17.55 52.5 -22.55 71.6 -23.9 88.35 -21.15 Q131.6 -7.5 140.35 27.45 L141.5 43.85 136.5 63.95 127.75 78.1 Q109.9 96.1 98.35 98.6 L94.85 100.1 Q89.7 97.5 61.1 94.7 L51.5 93.85 44.6 94.7 33.1 97.6 32.95 97.7 Q31.3 97.4 14.0 85.45 L4.85 75.2 4.75 75.2 4.75 75.1 3.0 73.1 2.85 73.1 2.85 72.95 1.6 71.45 0.75 69.45 0.6 69.45 0.75 69.35 0.6 68.95 0.25 66.85 -1.25 64.1 Q-0.85 63.05 -2.15 59.6 L-3.65 56.95 -3.65 56.1 -4.5 51.35 -6.25 47.7 -6.4 47.6 -6.25 47.6 -7.4 38.45 -7.25 36.2 -4.15 21.45 -4.0 21.35 -4.0 20.85 -1.65 16.45 -1.65 16.35" fill="#b19771" fill-rule="evenodd" stroke="none"/>
    <path d="M32.95 97.7 L33.1 97.6 44.6 94.7 51.5 93.85 61.1 94.7 Q89.7 97.5 94.85 100.1 L98.35 98.6 98.1 99.85 96.35 101.7 98.85 105.7 Q100.35 109.8 100.35 112.45 L100.0 116.95 Q100.6 117.85 96.25 119.7 68.4 126.35 23.35 124.45 6.6 123.15 7.35 116.6 L10.0 111.35 12.1 108.6 20.35 102.85 32.95 97.7" fill="#573f70" fill-rule="evenodd" stroke="none"/>
    <path d="M-1.65 16.35 L-1.65 16.45 -4.0 20.85 Q-5.2 3.85 -1.65 16.35 M-6.4 47.6 L-6.25 47.7 -4.5 51.35 -3.65 56.1 -3.65 56.95 -2.15 59.6 Q-0.85 63.05 -1.25 64.1 L0.25 66.85 0.6 68.95 0.75 69.35 0.6 69.45 0.75 69.45 1.6 71.45 2.85 72.95 2.85 73.1 3.0 73.1 4.75 75.1 4.75 75.2 4.5 84.35 Q3.6 90.95 2.25 92.6 -2.9 98.05 -2.0 84.6 -5.65 84.9 -6.75 81.95 -7.4 81.15 -3.5 76.6 L-2.9 73.45 Q-7.15 74.9 -11.4 68.1 L-12.0 65.6 -11.25 65.1 -7.75 66.2 -6.25 65.85 -5.9 65.6 -6.5 65.35 Q-8.9 64.25 -10.75 61.95 L-14.15 56.85 -17.25 49.2 Q-18.6 43.2 -17.15 44.7 L-19.5 37.95 -21.0 31.35 Q-21.45 24.6 -18.65 30.35 L-14.15 39.2 -11.5 43.35 Q-7.85 48.95 -6.4 47.6" fill="#5f3f2a" fill-rule="evenodd" stroke="none"/>
    <path d="M-7.4 38.45 L-6.25 47.6 -6.4 47.6 Q-7.85 48.95 -11.5 43.35 L-10.25 42.1 -8.5 41.35 -8.4 39.7 -7.4 38.45" fill="#000000" fill-rule="evenodd" stroke="none"/>
    <path d="M-6.5 65.35 L-5.9 65.6 -6.25 65.85 -6.5 65.35" fill="#ff488c" fill-rule="evenodd" stroke="none"/>
  </g>
</svg>
