<?xml version="1.0" encoding="UTF-8" standalone="no"?>
<svg xmlns:xlink="http://www.w3.org/1999/xlink" height="8.3px" width="25.55px" xmlns="http://www.w3.org/2000/svg">
  <g transform="matrix(1.0, 0.0, 0.0, 1.0, 12.75, 4.15)">
    <path d="M12.3 0.0 Q11.85 3.35 7.1 3.65 2.3 3.35 1.85 0.0 2.3 -3.35 7.1 -3.65 11.85 -3.35 12.3 0.0 M-12.25 0.0 Q-11.8 -3.35 -7.0 -3.65 -2.25 -3.35 -1.8 0.0 -2.25 3.35 -7.0 3.65 -11.8 3.35 -12.25 0.0" fill="#4c8335" fill-rule="evenodd" stroke="none"/>
    <path d="M12.3 0.0 Q11.85 -3.35 7.1 -3.65 2.3 -3.35 1.85 0.0 2.3 3.35 7.1 3.65 11.85 3.35 12.3 0.0 M-12.25 0.0 Q-11.8 -3.35 -7.0 -3.65 -2.25 -3.35 -1.8 0.0 -2.25 3.35 -7.0 3.65 -11.8 3.35 -12.25 0.0" fill="none" stroke="#000000" stroke-linecap="round" stroke-linejoin="round" stroke-width="1.0"/>
  </g>
</svg>
