<?xml version="1.0" encoding="UTF-8" standalone="no"?>
<svg xmlns:xlink="http://www.w3.org/1999/xlink" height="19.45px" width="28.9px" xmlns="http://www.w3.org/2000/svg">
  <g transform="matrix(1.0, 0.0, 0.0, 1.0, 13.9, 9.75)">
    <path d="M11.1 -5.6 Q12.6 -5.8 14.5 -6.4 5.55 9.75 0.8 9.2 -3.95 8.65 -7.1 4.75 -10.25 0.85 -13.4 -5.25 -12.4 -6.5 -10.7 -6.8 -6.1 0.05 -3.8 2.7 -1.35 5.4 1.95 5.6 5.2 5.75 11.1 -5.6" fill="#4c8335" fill-rule="evenodd" stroke="none"/>
    <path d="M9.35 -6.85 Q9.75 -5.65 11.45 -6.35 L11.1 -5.6 Q9.65 -5.4 9.35 -6.85 9.65 -5.4 11.1 -5.6 5.2 5.75 1.95 5.6 -1.35 5.4 -3.8 2.7 -6.1 0.05 -10.7 -6.8 L-11.1 -7.4 -10.65 -6.8 Q-9.55 -7.05 -8.2 -6.8 -4.7 -6.25 -2.45 -7.2 -0.35 -8.65 2.1 -9.2 4.2 -9.65 6.05 -6.45 7.0 -5.7 9.35 -6.85 M-10.7 -6.8 L-10.65 -6.8 -10.7 -6.8" fill="#fb0f0c" fill-rule="evenodd" stroke="none"/>
    <path d="M11.1 -5.6 L11.45 -6.35 Q9.75 -5.65 9.35 -6.85 9.65 -5.4 11.1 -5.6 12.6 -5.8 14.5 -6.4 5.55 9.75 0.8 9.2 -3.95 8.65 -7.1 4.75 -10.25 0.85 -13.4 -5.25 -12.4 -6.5 -10.7 -6.8 L-11.1 -7.4 -10.65 -6.8 Q-9.55 -7.05 -8.2 -6.8 -4.7 -6.25 -2.45 -7.2 -0.35 -8.65 2.1 -9.2 4.2 -9.65 6.05 -6.45 7.0 -5.7 9.35 -6.85 M-10.65 -6.8 L-10.7 -6.8 Q-6.1 0.05 -3.8 2.7 -1.35 5.4 1.95 5.6 5.2 5.75 11.1 -5.6 Z" fill="none" stroke="#000000" stroke-linecap="round" stroke-linejoin="round" stroke-width="1.0"/>
  </g>
</svg>
