<?xml version="1.0" encoding="UTF-8" standalone="no"?>
<svg xmlns:xlink="http://www.w3.org/1999/xlink" height="28.95px" width="49.35px" xmlns="http://www.w3.org/2000/svg">
  <g transform="matrix(1.0, 0.0, 0.0, 1.0, 24.25, 25.25)">
    <path d="M-14.45 -2.3 Q-15.05 -1.85 -15.45 3.2 -18.5 -2.4 -17.95 -3.3 L-14.45 -2.3" fill="#ffffff" fill-rule="evenodd" stroke="none"/>
    <path d="M-17.95 -3.3 Q-18.5 -2.4 -15.45 3.2 -15.05 -1.85 -14.45 -2.3" fill="none" stroke="#000000" stroke-linecap="round" stroke-linejoin="round" stroke-width="1.0"/>
    <path d="M-5.7 -23.4 L0.6 -23.1 -0.4 -2.45 -1.1 -2.45 -9.1 -2.05 Q-14.65 -1.7 -18.95 -4.15 -23.2 -6.6 -23.75 -15.1 -23.6 -22.1 -19.2 -23.7 -14.9 -25.3 -10.45 -24.5 L-5.7 -23.4" fill="#4c8335" fill-rule="evenodd" stroke="none"/>
    <path d="M-5.7 -23.4 L-10.45 -24.5 Q-14.9 -25.3 -19.2 -23.7 -23.6 -22.1 -23.75 -15.1 -23.2 -6.6 -18.95 -4.15 -14.65 -1.7 -9.1 -2.05 L-1.1 -2.45 -0.4 -2.45" fill="none" stroke="#000000" stroke-linecap="round" stroke-linejoin="round" stroke-width="1.0"/>
    <path d="M-16.95 -17.9 Q-15.05 -18.7 -12.8 -14.65 -10.5 -10.65 -13.55 -7.85 -17.0 -6.35 -17.7 -11.1 -18.4 -15.85 -16.95 -17.9" fill="#000000" fill-rule="evenodd" stroke="none"/>
    <path d="M17.95 -4.0 Q18.5 -3.15 15.4 2.45 15.0 -2.6 14.4 -3.05 L17.95 -4.0" fill="#ffffff" fill-rule="evenodd" stroke="none"/>
    <path d="M17.95 -4.0 Q18.5 -3.15 15.4 2.45 15.0 -2.6 14.4 -3.05" fill="none" stroke="#000000" stroke-linecap="round" stroke-linejoin="round" stroke-width="1.0"/>
    <path d="M8.35 -23.65 L12.95 -24.3 Q17.1 -24.85 21.05 -23.35 25.0 -21.85 24.55 -16.0 22.1 -3.8 15.4 -2.95 8.7 -2.2 1.2 -2.75 L-1.3 -2.6 -0.9 -23.25 8.35 -23.65" fill="#4c8335" fill-rule="evenodd" stroke="none"/>
    <path d="M-1.3 -2.6 L1.2 -2.75 Q8.7 -2.2 15.4 -2.95 22.1 -3.8 24.55 -16.0 25.0 -21.85 21.05 -23.35 17.1 -24.85 12.95 -24.3 L8.35 -23.65" fill="none" stroke="#000000" stroke-linecap="round" stroke-linejoin="round" stroke-width="1.0"/>
    <path d="M14.95 -18.1 Q16.35 -16.0 15.6 -11.25 14.9 -6.55 11.4 -8.1 8.4 -10.9 10.75 -14.9 13.05 -18.9 14.95 -18.1" fill="#000000" fill-rule="evenodd" stroke="none"/>
  </g>
</svg>
