<?xml version="1.0" encoding="UTF-8" standalone="no"?>
<svg xmlns:xlink="http://www.w3.org/1999/xlink" height="28.3px" width="48.35px" xmlns="http://www.w3.org/2000/svg">
  <g transform="matrix(1.0, 0.0, 0.0, 1.0, 24.15, 28.35)">
    <path d="M-19.75 -7.4 L-16.5 -5.75 Q-17.2 -5.45 -18.55 -0.55 -20.45 -6.65 -19.75 -7.4" fill="#ffffff" fill-rule="evenodd" stroke="none"/>
    <path d="M-19.75 -7.4 Q-20.45 -6.65 -18.55 -0.55 -17.2 -5.45 -16.5 -5.75" fill="none" stroke="#000000" stroke-linecap="round" stroke-linejoin="round" stroke-width="1.0"/>
    <path d="M-4.05 -24.8 L2.05 -23.3 -2.85 -3.2 -3.55 -3.35 -11.4 -4.5 Q-16.95 -5.15 -20.7 -8.4 -24.45 -11.55 -23.4 -20.0 -21.95 -26.9 -17.3 -27.6 -12.75 -28.35 -8.5 -26.75 L-4.05 -24.8" fill="#4c8335" fill-rule="evenodd" stroke="none"/>
    <path d="M-4.05 -24.8 L-8.5 -26.75 Q-12.75 -28.35 -17.3 -27.6 -21.95 -26.9 -23.4 -20.0 -24.45 -11.55 -20.7 -8.4 -16.95 -5.15 -11.4 -4.5 L-3.55 -3.35 -2.85 -3.2" fill="none" stroke="#000000" stroke-linecap="round" stroke-linejoin="round" stroke-width="1.0"/>
    <path d="M-16.05 -21.4 Q-14.1 -21.9 -12.65 -17.45 -11.1 -13.05 -14.6 -10.95 -18.3 -10.1 -18.05 -14.85 -17.9 -19.65 -16.05 -21.4" fill="#000000" fill-rule="evenodd" stroke="none"/>
    <path d="M16.05 -6.3 L19.35 -7.9 Q20.05 -7.1 18.0 -1.1 16.7 -6.0 16.05 -6.3" fill="#ffffff" fill-rule="evenodd" stroke="none"/>
    <path d="M19.35 -7.9 Q20.05 -7.1 18.0 -1.1 16.7 -6.0 16.05 -6.3" fill="none" stroke="#000000" stroke-linecap="round" stroke-linejoin="round" stroke-width="1.0"/>
    <path d="M6.4 -25.35 Q6.65 -25.65 10.75 -26.85 14.75 -28.15 18.95 -27.4 23.1 -26.65 23.7 -20.75 23.5 -8.35 17.05 -6.3 10.65 -4.35 3.15 -3.5 L-2.7 -3.15 -2.6 -23.3 6.4 -25.35" fill="#4c8335" fill-rule="evenodd" stroke="none"/>
    <path d="M-2.7 -3.15 L3.15 -3.5 Q10.65 -4.35 17.05 -6.3 23.5 -8.35 23.7 -20.75 23.1 -26.65 18.95 -27.4 14.75 -28.15 10.75 -26.85 6.65 -25.65 6.4 -25.35" fill="none" stroke="#000000" stroke-linecap="round" stroke-linejoin="round" stroke-width="1.0"/>
    <path d="M13.75 -21.1 Q15.55 -19.3 15.65 -14.55 15.85 -9.75 12.1 -10.65 8.65 -12.85 10.25 -17.2 11.75 -21.6 13.75 -21.1" fill="#000000" fill-rule="evenodd" stroke="none"/>
  </g>
</svg>
