<?xml version="1.0" encoding="UTF-8" standalone="no"?>
<svg xmlns:xlink="http://www.w3.org/1999/xlink" height="86.4px" width="67.55px" xmlns="http://www.w3.org/2000/svg">
  <g transform="matrix(1.0, 0.0, 0.0, 1.0, 33.8, 85.9)">
    <path d="M9.4 -48.4 Q10.35 -47.1 10.8 -41.2 L11.45 -29.6 11.6 -23.55 16.15 -21.35 Q20.2 -19.3 21.9 -17.4 24.1 -7.95 21.0 -4.25 17.9 -0.55 17.25 -0.7 16.75 0.05 1.25 -1.7 L-9.9 -1.1 Q-15.3 0.15 -18.4 -0.05 -22.65 -1.55 -22.65 -8.05 -22.6 -14.55 -21.4 -17.05 -20.05 -18.95 -16.55 -21.05 L-12.65 -23.3 -12.9 -26.3 -13.15 -32.8 Q-13.2 -38.1 -12.6 -42.85 -12.05 -47.6 -11.2 -48.85 -10.0 -50.0 -5.45 -50.15 L3.65 -49.8 Q8.2 -49.25 9.4 -48.4" fill="#7c4806" fill-rule="evenodd" stroke="none"/>
    <path d="M9.4 -48.4 Q10.35 -47.1 10.8 -41.2 L11.45 -29.6 11.6 -23.55 16.15 -21.35 Q20.2 -19.3 21.9 -17.4 24.1 -7.95 21.0 -4.25 17.9 -0.55 17.25 -0.7 16.75 0.05 1.25 -1.7 L-9.9 -1.1 Q-15.3 0.15 -18.4 -0.05 -22.65 -1.55 -22.65 -8.05 -22.6 -14.55 -21.4 -17.05 -20.05 -18.95 -16.55 -21.05 L-12.65 -23.3 -12.9 -26.3 -13.15 -32.8 Q-13.2 -38.1 -12.6 -42.85 -12.05 -47.6 -11.2 -48.85 -10.0 -50.0 -5.45 -50.15 L3.65 -49.8 Q8.2 -49.25 9.4 -48.4 Z" fill="none" stroke="#000000" stroke-linecap="round" stroke-linejoin="round" stroke-width="1.0"/>
    <path d="M-26.85 -79.3 L-21.95 -79.0 Q-17.15 -78.65 -16.15 -76.95 -16.5 -75.2 -21.35 -74.2 L-26.6 -73.2 -22.6 -72.9 Q-18.8 -72.5 -18.25 -70.65 -18.85 -68.75 -23.15 -68.15 L-28.1 -67.6 -28.2 -67.1 -27.6 -59.4 Q-26.9 -54.65 -23.0 -52.25 -19.15 -49.9 -15.45 -49.1 L-11.45 -48.4 -11.0 -47.7 Q-10.75 -47.05 -12.15 -45.9 -25.25 -47.05 -28.85 -52.15 -32.5 -57.25 -32.05 -57.95 L-32.9 -63.25 Q-33.6 -68.25 -33.05 -74.25 -32.55 -80.25 -29.05 -83.6 -26.2 -84.95 -21.5 -84.7 -16.8 -84.5 -16.15 -83.05 -16.55 -80.8 -21.6 -80.05 L-26.85 -79.3 -27.4 -79.3 -26.85 -79.3 M-26.9 -73.2 L-26.6 -73.2 -26.9 -73.2" fill="#e6b98a" fill-rule="evenodd" stroke="none"/>
    <path d="M-26.6 -73.2 L-21.35 -74.2 Q-16.5 -75.2 -16.15 -76.95 -17.15 -78.65 -21.95 -79.0 L-26.85 -79.3 -27.4 -79.3 M-26.85 -79.3 L-21.6 -80.05 Q-16.55 -80.8 -16.15 -83.05 -16.8 -84.5 -21.5 -84.7 -26.2 -84.95 -29.05 -83.6 -32.55 -80.25 -33.05 -74.25 -33.6 -68.25 -32.9 -63.25 L-32.05 -57.95 Q-32.5 -57.25 -28.85 -52.15 -25.25 -47.05 -12.15 -45.9 -10.75 -47.05 -11.0 -47.7 L-11.45 -48.4 -15.45 -49.1 Q-19.15 -49.9 -23.0 -52.25 -26.9 -54.65 -27.6 -59.4 L-28.2 -67.1 -28.1 -67.6 -23.15 -68.15 Q-18.85 -68.75 -18.25 -70.65 -18.8 -72.5 -22.6 -72.9 L-26.6 -73.2 -26.9 -73.2" fill="none" stroke="#000000" stroke-linecap="round" stroke-linejoin="round" stroke-width="1.0"/>
    <path d="M32.85 -64.7 Q32.1 -57.85 31.75 -56.65 31.7 -55.05 27.05 -50.85 22.4 -46.7 9.2 -46.5 7.85 -47.75 8.2 -48.35 L8.65 -49.0 12.95 -49.25 Q16.95 -49.6 21.2 -51.5 25.4 -53.45 26.45 -58.1 L27.6 -65.8 27.6 -66.3 22.35 -67.05 Q17.75 -67.85 17.2 -69.75 17.8 -71.65 21.4 -72.3 L25.4 -72.9 20.05 -73.9 Q15.3 -74.85 15.0 -76.6 16.1 -78.3 20.9 -78.65 L24.5 -78.9 21.45 -79.0 Q17.2 -79.2 17.05 -81.3 17.35 -82.9 20.25 -84.45 23.2 -86.0 28.45 -85.05 32.3 -84.7 32.95 -78.15 33.6 -71.55 32.85 -64.7 M26.35 -78.95 L24.5 -78.9 26.35 -78.95" fill="#e6b98a" fill-rule="evenodd" stroke="none"/>
    <path d="M32.85 -64.7 Q32.1 -57.85 31.75 -56.65 31.7 -55.05 27.05 -50.85 22.4 -46.7 9.2 -46.5 7.85 -47.75 8.2 -48.35 L8.65 -49.0 12.95 -49.25 Q16.95 -49.6 21.2 -51.5 25.4 -53.45 26.45 -58.1 L27.6 -65.8 27.6 -66.3 22.35 -67.05 Q17.75 -67.85 17.2 -69.75 17.8 -71.65 21.4 -72.3 L25.4 -72.9 20.05 -73.9 Q15.3 -74.85 15.0 -76.6 16.1 -78.3 20.9 -78.65 L24.5 -78.9 21.45 -79.0 Q17.2 -79.2 17.05 -81.3 17.35 -82.9 20.25 -84.45 23.2 -86.0 28.45 -85.05 32.3 -84.7 32.95 -78.15 33.6 -71.55 32.85 -64.7 M24.5 -78.9 L26.35 -78.95" fill="none" stroke="#000000" stroke-linecap="round" stroke-linejoin="round" stroke-width="1.0"/>
    <path d="M-9.95 -46.65 L-10.9 -42.65 Q-10.9 -42.35 -13.85 -40.35 -16.85 -38.35 -22.7 -38.8 -21.25 -43.6 -15.95 -45.2 -10.65 -46.8 -9.95 -46.65" fill="#73420d" fill-rule="evenodd" stroke="none"/>
    <path d="M-9.95 -46.65 Q-10.65 -46.8 -15.95 -45.2 -21.25 -43.6 -22.7 -38.8 -16.85 -38.35 -13.85 -40.35 -10.9 -42.35 -10.9 -42.65" fill="none" stroke="#000000" stroke-linecap="round" stroke-linejoin="round" stroke-width="1.0"/>
    <path d="M9.6 -42.65 L8.65 -46.65 Q9.35 -46.8 14.65 -45.2 19.95 -43.6 21.4 -38.8 15.55 -38.35 12.55 -40.35 9.6 -42.35 9.6 -42.65" fill="#73420d" fill-rule="evenodd" stroke="none"/>
    <path d="M8.65 -46.65 Q9.35 -46.8 14.65 -45.2 19.95 -43.6 21.4 -38.8 15.55 -38.35 12.55 -40.35 9.6 -42.35 9.6 -42.65" fill="none" stroke="#000000" stroke-linecap="round" stroke-linejoin="round" stroke-width="1.0"/>
  </g>
</svg>
