<?xml version="1.0" encoding="UTF-8" standalone="no"?>
<svg xmlns:xlink="http://www.w3.org/1999/xlink" height="113.8px" width="45.85px" xmlns="http://www.w3.org/2000/svg">
  <g transform="matrix(1.0, 0.0, 0.0, 1.0, 22.95, 113.3)">
    <path d="M10.75 -112.8 L11.1 -95.35 14.75 -84.4 21.8 -56.1 22.4 0.0 8.85 0.0 8.15 -2.75 -6.3 -2.45 Q-6.25 -2.2 -6.55 0.0 L-21.2 0.0 -22.45 -24.3 -15.7 -82.9 -7.0 -96.05 -7.35 -112.8 10.75 -112.8" fill="#7c4806" fill-rule="evenodd" stroke="none"/>
    <path d="M10.75 -112.8 L11.1 -95.35 14.75 -84.4 21.8 -56.1 22.4 0.0 M8.85 0.0 L8.15 -2.75 -6.3 -2.45 Q-6.25 -2.2 -6.55 0.0 M-21.2 0.0 L-22.45 -24.3 -15.7 -82.9 -7.0 -96.05 -7.35 -112.8" fill="none" stroke="#000000" stroke-linecap="round" stroke-linejoin="round" stroke-width="1.0"/>
  </g>
</svg>
