<?xml version="1.0" encoding="UTF-8" standalone="no"?>
<svg xmlns:xlink="http://www.w3.org/1999/xlink" height="61.7px" width="44.7px" xmlns="http://www.w3.org/2000/svg">
  <g transform="matrix(1.0, 0.0, 0.0, 1.0, -0.1, 0.0)">
    <path d="M44.8 16.45 L44.8 25.75 44.8 35.9 44.8 45.25 44.8 52.05 44.8 54.75 Q44.75 56.7 41.75 58.25 38.8 59.8 33.75 60.75 L22.45 61.7 11.15 60.75 Q6.15 59.8 3.15 58.25 0.15 56.7 0.1 54.75 L0.1 52.05 0.1 45.25 0.1 35.9 0.1 25.75 0.1 16.45 0.1 9.6 0.1 6.9 Q0.15 5.0 3.15 3.45 6.15 1.85 11.15 0.95 16.2 0.0 22.45 0.0 L33.75 0.95 Q38.8 1.85 41.75 3.4 44.75 5.0 44.8 6.9 L44.8 9.6 44.8 16.45" fill="#00cc66" fill-rule="evenodd" stroke="none"/>
  </g>
</svg>
