<?xml version="1.0" encoding="UTF-8" standalone="no"?>
<svg xmlns:xlink="http://www.w3.org/1999/xlink" height="31.25px" width="31.65px" xmlns="http://www.w3.org/2000/svg">
  <g transform="matrix(1.0, 0.0, 0.0, 1.0, 15.8, 15.6)">
    <path d="M8.7 -0.05 Q7.95 7.8 0.1 8.55 -7.8 7.8 -8.55 -0.05 -7.8 -7.95 0.1 -8.7 7.95 -7.95 8.7 -0.05" fill="#4d4d4d" fill-rule="evenodd" stroke="none"/>
    <path d="M-0.1 -6.7 Q-2.9 -6.9 -3.5 -7.8 -1.8 -10.25 -1.0 -12.85 L-0.2 -15.6 3.15 -7.8 Q3.05 -7.25 -0.1 -6.7" fill="#4d4d4d" fill-rule="evenodd" stroke="none"/>
    <path d="M-0.1 -6.75 Q0.4 -13.0 0.15 -14.8 L3.15 -7.85 Q3.25 -7.3 -0.1 -6.75" fill="#737373" fill-rule="evenodd" stroke="none"/>
    <path d="M5.0 -4.75 Q3.15 -6.85 3.35 -7.9 6.3 -8.45 8.65 -9.7 L11.2 -11.1 8.05 -3.2 Q7.6 -2.9 5.0 -4.75" fill="#4d4d4d" fill-rule="evenodd" stroke="none"/>
    <path d="M5.0 -4.75 Q9.9 -8.95 10.9 -10.4 L8.05 -3.2 Q7.7 -2.8 5.0 -4.75" fill="#737373" fill-rule="evenodd" stroke="none"/>
    <path d="M1.0 -3.3 Q-1.4 -4.75 -1.5 -5.85 4.15 -9.1 4.65 -10.0 L4.4 -2.7 Q4.0 -2.3 1.0 -3.3" fill="#4d4d4d" fill-rule="evenodd" stroke="none"/>
    <path d="M1.0 -3.3 Q4.1 -7.95 4.65 -9.35 L4.4 -2.75 Q4.15 -2.25 1.0 -3.3" fill="#737373" fill-rule="evenodd" stroke="none"/>
    <path d="M-6.9 0.2 Q-7.1 3.0 -8.0 3.6 -10.45 1.95 -13.05 1.1 L-15.8 0.3 -8.0 -3.05 Q-7.45 -2.95 -6.9 0.2" fill="#4d4d4d" fill-rule="evenodd" stroke="none"/>
    <path d="M-8.0 -3.05 Q-7.45 -3.1 -6.9 0.2 -13.3 -0.3 -15.05 0.05 L-8.0 -3.05" fill="#737373" fill-rule="evenodd" stroke="none"/>
    <path d="M-4.9 -4.9 Q-7.0 -3.05 -8.05 -3.25 -8.6 -6.2 -9.85 -8.55 L-11.25 -11.1 -3.35 -8.0 Q-3.05 -7.5 -4.9 -4.9" fill="#4d4d4d" fill-rule="evenodd" stroke="none"/>
    <path d="M-4.9 -4.9 Q-9.05 -9.75 -10.5 -10.75 L-3.35 -8.0 Q-2.95 -7.65 -4.9 -4.9" fill="#737373" fill-rule="evenodd" stroke="none"/>
    <path d="M-3.45 -0.85 Q-4.95 1.5 -6.05 1.6 -9.2 -3.85 -10.0 -4.2 L-2.9 -4.25 Q-2.45 -3.9 -3.45 -0.85" fill="#4d4d4d" fill-rule="evenodd" stroke="none"/>
    <path d="M-3.5 -0.85 Q-7.7 -3.6 -9.15 -4.15 L-2.9 -4.25 Q-2.4 -4.05 -3.5 -0.85" fill="#737373" fill-rule="evenodd" stroke="none"/>
    <path d="M0.15 6.75 Q2.95 6.9 3.55 7.85 1.9 10.3 1.05 12.85 L0.25 15.65 -3.1 7.85 Q-3.0 7.3 0.15 6.75" fill="#4d4d4d" fill-rule="evenodd" stroke="none"/>
    <path d="M-3.1 7.85 Q-3.15 7.3 0.15 6.75 -0.35 13.15 0.0 14.9 L-3.1 7.85" fill="#737373" fill-rule="evenodd" stroke="none"/>
    <path d="M-8.0 3.2 Q-7.5 2.9 -4.9 4.75 -3.05 6.85 -3.25 7.9 -6.2 8.45 -8.55 9.7 L-11.1 11.1 -8.0 3.2" fill="#4d4d4d" fill-rule="evenodd" stroke="none"/>
    <path d="M-8.0 3.2 Q-7.65 2.8 -4.9 4.75 -9.7 8.8 -10.75 10.35 L-8.0 3.2" fill="#737373" fill-rule="evenodd" stroke="none"/>
    <path d="M-4.3 2.7 Q-3.95 2.3 -0.9 3.3 1.5 4.8 1.6 5.85 -1.0 7.15 -2.75 8.6 L-4.5 10.2 -4.3 2.7" fill="#4d4d4d" fill-rule="evenodd" stroke="none"/>
    <path d="M-4.35 2.75 Q-4.1 2.25 -0.95 3.35 -3.95 7.95 -4.45 9.45 L-4.35 2.75" fill="#737373" fill-rule="evenodd" stroke="none"/>
    <path d="M6.95 -0.2 Q7.1 -3.0 8.05 -3.6 10.5 -1.9 13.05 -1.1 L15.85 -0.3 8.05 3.05 Q7.5 2.95 6.95 -0.2" fill="#4d4d4d" fill-rule="evenodd" stroke="none"/>
    <path d="M6.95 -0.2 L15.05 0.05 8.05 3.05 Q7.5 3.15 6.95 -0.2" fill="#737373" fill-rule="evenodd" stroke="none"/>
    <path d="M3.45 7.95 Q3.15 7.5 5.0 4.9 7.1 3.05 8.15 3.25 8.7 6.2 9.95 8.55 L11.35 11.1 3.45 7.95" fill="#4d4d4d" fill-rule="evenodd" stroke="none"/>
    <path d="M3.45 7.95 Q3.05 7.6 5.0 4.9 9.15 9.75 10.65 10.8 L3.45 7.95" fill="#737373" fill-rule="evenodd" stroke="none"/>
    <path d="M2.95 4.25 Q2.55 3.9 3.55 0.9 5.05 -1.5 6.1 -1.6 9.35 4.0 10.2 4.5 L2.95 4.25" fill="#4d4d4d" fill-rule="evenodd" stroke="none"/>
    <path d="M2.95 4.3 Q2.45 4.05 3.55 0.9 8.05 3.9 9.45 4.45 L2.95 4.3" fill="#737373" fill-rule="evenodd" stroke="none"/>
    <path d="M0.8 -2.45 L0.25 -0.2 -2.35 -0.9 -1.45 -1.85 Q-0.6 -2.7 0.8 -2.45" fill="#737373" fill-rule="evenodd" stroke="none"/>
    <path d="M-0.35 2.15 L0.2 -0.15 2.8 0.55 1.9 1.5 Q1.05 2.35 -0.35 2.15" fill="#737373" fill-rule="evenodd" stroke="none"/>
  </g>
</svg>
