<?xml version="1.0" encoding="UTF-8" standalone="no"?>
<svg xmlns:xlink="http://www.w3.org/1999/xlink" height="40.1px" width="33.75px" xmlns="http://www.w3.org/2000/svg">
  <g transform="matrix(1.0, 0.0, 0.0, 1.0, 16.9, 40.1)">
    <path d="M-12.7 -34.45 L16.8 -34.45 16.8 0.0 -12.7 0.0 -12.7 -34.45" fill="#fdc8ae" fill-rule="evenodd" stroke="none"/>
    <path d="M16.3 -0.25 Q15.0 -3.35 10.45 -3.55 5.95 -3.35 4.65 -0.25 L-0.55 -0.25 Q-1.85 -3.35 -6.4 -3.55 -10.9 -3.35 -12.2 -0.25 L-12.85 -0.25 -12.85 -12.25 -2.25 -12.25 Q-0.9 -9.75 2.05 -9.6 4.95 -9.75 6.3 -12.25 L16.7 -12.25 16.7 -0.25 16.3 -0.25" fill="#890c08" fill-rule="evenodd" stroke="none"/>
    <path d="M16.85 -5.55 L-12.75 -5.6 -12.75 -12.0 -2.35 -12.0 Q-0.95 -9.5 2.05 -9.35 5.05 -9.5 6.45 -12.0 L16.85 -12.0 16.85 -5.55" fill="#ff0000" fill-rule="evenodd" stroke="none"/>
    <path d="M16.75 0.0 Q15.4 -3.1 10.75 -3.3 6.05 -3.05 4.75 0.0 L-0.65 0.0 Q-1.95 -3.1 -6.65 -3.3 -11.3 -3.05 -12.65 0.0 L-12.75 0.0 -12.75 -5.6 16.85 -5.55 16.85 0.0 16.75 0.0" fill="#0a50a1" fill-rule="evenodd" stroke="none"/>
    <path d="M-6.65 -3.3 Q-2.0 -3.05 -0.65 0.0 L-12.65 0.0 Q-11.3 -3.05 -6.65 -3.3" fill="#000000" fill-rule="evenodd" stroke="none"/>
    <path d="M10.7 -3.3 Q15.35 -3.05 16.7 0.0 L4.7 0.0 Q6.05 -3.05 10.7 -3.3" fill="#000000" fill-rule="evenodd" stroke="none"/>
    <path d="M-12.7 -26.65 L-12.8 -34.55 16.8 -34.55 16.8 -26.65 Q4.65 -21.3 -3.85 -23.6 -12.35 -25.85 -12.7 -26.65" fill="#3c2912" fill-rule="evenodd" stroke="none"/>
    <path d="M-12.7 -26.85 L-12.8 -34.55 16.8 -34.45 16.8 -26.85 Q4.45 -22.1 -3.95 -24.15 -12.35 -26.15 -12.7 -26.85" fill="#5a3d1b" fill-rule="evenodd" stroke="none"/>
    <path d="M-10.15 -26.2 Q-9.5 -25.7 -1.0 -24.3 7.5 -22.9 16.25 -26.45 8.1 -22.2 -0.65 -23.9 -9.45 -25.6 -10.15 -26.2" fill="#3c2912" fill-rule="evenodd" stroke="none"/>
    <path d="M-10.05 -29.15 Q-9.45 -28.6 -1.15 -26.3 7.15 -24.0 16.2 -26.6 7.7 -23.25 -0.85 -25.85 -9.4 -28.5 -10.05 -29.15" fill="#3c2912" fill-rule="evenodd" stroke="none"/>
    <path d="M-9.7 -31.3 Q-9.15 -30.7 -1.05 -27.75 7.0 -24.8 16.2 -26.7 7.5 -24.0 -0.8 -27.3 -9.1 -30.6 -9.7 -31.3" fill="#3c2912" fill-rule="evenodd" stroke="none"/>
    <path d="M-9.1 -34.05 Q-8.6 -33.4 -0.85 -29.6 6.9 -25.85 16.2 -26.8 7.3 -25.0 -0.65 -29.15 -8.55 -33.25 -9.1 -34.05" fill="#3c2912" fill-rule="evenodd" stroke="none"/>
    <path d="M-16.9 -40.1 L-12.75 -34.55 -12.75 -0.05 -16.9 -8.15 -16.9 -40.1" fill="#caa08b" fill-rule="evenodd" stroke="none"/>
    <path d="M-12.75 -12.35 L-12.75 -0.25 -16.9 -8.35 -16.9 -20.4 -12.75 -12.35" fill="#890c08" fill-rule="evenodd" stroke="none"/>
    <path d="M-16.9 -8.2 L-16.9 -13.75 -12.75 -5.65 -12.75 -0.1 -16.9 -8.2" fill="#084081" fill-rule="evenodd" stroke="none"/>
    <path d="M-16.9 -13.7 L-16.9 -20.15 -12.75 -12.05 -12.75 -5.6 -16.9 -13.7" fill="#cc0000" fill-rule="evenodd" stroke="none"/>
    <path d="M-12.75 -34.55 L-12.75 -26.65 Q-12.85 -27.1 -13.55 -27.55 -14.25 -28.0 -14.3 -23.2 -14.65 -26.65 -14.9 -25.85 L-15.15 -24.7 -15.5 -21.3 Q-15.85 -18.45 -16.9 -20.15 L-16.9 -32.1 -16.9 -40.05 -12.75 -34.55" fill="#20160a" fill-rule="evenodd" stroke="none"/>
    <path d="M-12.75 -34.55 L-12.75 -26.85 Q-12.85 -27.3 -13.55 -28.0 -14.25 -28.7 -14.35 -24.55 -14.7 -27.35 -14.95 -26.4 L-15.15 -25.1 -15.5 -21.8 Q-15.85 -19.05 -16.9 -20.75 L-16.9 -32.35 -16.9 -40.05 -12.75 -34.55" fill="#3d2913" fill-rule="evenodd" stroke="none"/>
    <path d="M-13.5 -7.95 Q-13.4 -6.0 -13.8 -6.2 -14.2 -6.75 -14.35 -8.75 L-13.5 -7.95" fill="#e4b49d" fill-rule="evenodd" stroke="none"/>
    <path d="M-13.4 -7.4 L-13.45 -7.2 -13.55 -7.75 -13.45 -7.95 -13.4 -7.4" fill="#e4b49d" fill-rule="evenodd" stroke="none"/>
    <path d="M-16.9 -40.05 L10.2 -40.05 16.8 -34.55 -12.75 -34.55 -16.9 -40.05" fill="#694720" fill-rule="evenodd" stroke="none"/>
  </g>
</svg>
