<?xml version="1.0" encoding="UTF-8" standalone="no"?>
<svg xmlns:xlink="http://www.w3.org/1999/xlink" height="19.85px" width="34.05px" xmlns="http://www.w3.org/2000/svg">
  <g transform="matrix(1.0, 0.0, 0.0, 1.0, 16.8, 40.2)">
    <path d="M-16.8 -30.5 L-16.8 -40.2 -11.45 -34.3 -11.45 -26.3 Q-14.25 -25.3 -15.5 -27.65 L-16.8 -30.5" fill="#d6a82b" fill-rule="evenodd" stroke="none"/>
    <path d="M-16.8 -31.3 L-16.8 -40.2 -11.45 -34.2 -11.45 -26.45 Q-14.4 -25.75 -15.6 -28.3 -16.85 -30.8 -16.8 -31.3" fill="#e1bd48" fill-rule="evenodd" stroke="none"/>
    <path d="M-15.35 -28.1 L-14.55 -26.95 -14.65 -25.05 Q-14.7 -23.3 -15.0 -21.7 -15.3 -20.1 -15.85 -20.4 -16.35 -24.55 -15.9 -26.35 L-15.35 -28.1" fill="#d6a82b" fill-rule="evenodd" stroke="none"/>
    <path d="M-15.1 -28.05 L-14.5 -27.2 -14.75 -23.85 Q-15.0 -20.9 -15.7 -20.8 -16.1 -24.6 -15.65 -26.35 L-15.1 -28.05" fill="#e1bd48" fill-rule="evenodd" stroke="none"/>
    <path d="M-15.7 -28.95 Q-15.6 -29.8 -15.35 -29.4 L-14.3 -27.5 Q-14.0 -26.95 -14.0 -25.95 -14.1 -25.05 -14.4 -25.45 L-15.45 -27.35 Q-15.75 -27.95 -15.7 -28.95" fill="#196233" fill-rule="evenodd" stroke="none"/>
    <path d="M-13.3 -27.6 Q-14.1 -28.9 -14.5 -28.65 L-14.85 -28.35 -14.55 -29.0 Q-14.2 -29.45 -13.3 -27.6" fill="#d6a82b" fill-rule="evenodd" stroke="none"/>
    <path d="M-13.2 -28.65 Q-14.0 -29.95 -14.4 -29.7 L-14.75 -29.4 -14.45 -30.05 Q-14.1 -30.5 -13.2 -28.65" fill="#d6a82b" fill-rule="evenodd" stroke="none"/>
    <path d="M-13.05 -29.65 Q-13.85 -30.95 -14.25 -30.7 L-14.6 -30.4 -14.3 -31.05 Q-13.95 -31.5 -13.05 -29.65" fill="#d6a82b" fill-rule="evenodd" stroke="none"/>
    <path d="M-13.0 -30.65 Q-13.8 -31.95 -14.2 -31.7 L-14.55 -31.4 -14.25 -32.05 Q-13.9 -32.5 -13.0 -30.65" fill="#d6a82b" fill-rule="evenodd" stroke="none"/>
    <path d="M-12.9 -31.65 Q-13.7 -32.95 -14.1 -32.7 L-14.45 -32.4 -14.15 -33.05 Q-13.8 -33.5 -12.9 -31.65" fill="#d6a82b" fill-rule="evenodd" stroke="none"/>
    <path d="M-14.85 -28.8 L-15.1 -30.4 Q-15.3 -31.9 -16.0 -34.0 -15.15 -31.9 -15.0 -30.4 L-14.85 -28.8" fill="#d6a82b" fill-rule="evenodd" stroke="none"/>
    <path d="M-14.75 -29.75 L-15.0 -31.3 Q-15.2 -32.8 -15.9 -34.9 -15.05 -32.8 -14.9 -31.3 L-14.75 -29.75" fill="#d6a82b" fill-rule="evenodd" stroke="none"/>
    <path d="M-14.7 -30.8 L-14.95 -32.35 Q-15.15 -33.85 -15.85 -35.95 -15.0 -33.85 -14.85 -32.35 L-14.7 -30.8" fill="#d6a82b" fill-rule="evenodd" stroke="none"/>
    <path d="M-14.55 -31.75 L-14.8 -33.3 Q-15.0 -34.8 -15.7 -36.9 -14.85 -34.8 -14.7 -33.3 L-14.55 -31.75" fill="#d6a82b" fill-rule="evenodd" stroke="none"/>
    <path d="M-14.5 -32.7 L-14.7 -34.25 -15.65 -37.85 Q-14.8 -35.75 -14.65 -34.3 L-14.5 -32.7" fill="#d6a82b" fill-rule="evenodd" stroke="none"/>
    <path d="M17.15 -34.3 L17.15 -26.45 Q9.45 -22.6 3.0 -22.85 -3.45 -23.05 -7.4 -24.6 L-11.4 -26.4 -11.5 -34.3 17.15 -34.3" fill="#d6a82b" fill-rule="evenodd" stroke="none"/>
    <path d="M17.15 -34.2 L17.15 -26.6 Q9.3 -23.2 2.85 -23.45 -3.55 -23.6 -7.45 -25.05 -11.3 -26.45 -11.4 -26.6 L-11.5 -34.3 17.15 -34.2" fill="#f5d458" fill-rule="evenodd" stroke="none"/>
    <path d="M3.1 -26.0 L2.1 -27.1 Q1.0 -28.1 -1.85 -28.6 1.45 -28.45 2.3 -27.3 L3.1 -26.0" fill="#d6a82b" fill-rule="evenodd" stroke="none"/>
    <path d="M3.1 -27.2 L2.1 -28.3 Q1.0 -29.3 -1.85 -29.8 1.45 -29.65 2.3 -28.5 L3.1 -27.2" fill="#d6a82b" fill-rule="evenodd" stroke="none"/>
    <path d="M3.1 -28.3 L2.1 -29.4 Q1.0 -30.4 -1.85 -30.9 1.45 -30.75 2.3 -29.6 L3.1 -28.3" fill="#d6a82b" fill-rule="evenodd" stroke="none"/>
    <path d="M3.1 -29.45 L2.1 -30.55 Q1.0 -31.55 -1.85 -32.05 1.45 -31.9 2.3 -30.75 L3.1 -29.45" fill="#d6a82b" fill-rule="evenodd" stroke="none"/>
    <path d="M3.1 -30.6 L2.1 -31.7 Q1.0 -32.7 -1.85 -33.2 1.45 -33.05 2.3 -31.9 L3.1 -30.6" fill="#d6a82b" fill-rule="evenodd" stroke="none"/>
    <path d="M4.5 -27.3 Q5.4 -28.45 8.65 -28.6 5.8 -28.1 4.7 -27.1 L3.7 -26.0 4.5 -27.3" fill="#d6a82b" fill-rule="evenodd" stroke="none"/>
    <path d="M4.5 -28.5 Q5.4 -29.65 8.65 -29.8 5.8 -29.3 4.7 -28.3 L3.7 -27.2 4.5 -28.5" fill="#d6a82b" fill-rule="evenodd" stroke="none"/>
    <path d="M4.5 -29.6 Q5.4 -30.75 8.65 -30.9 5.8 -30.4 4.7 -29.4 L3.7 -28.3 4.5 -29.6" fill="#d6a82b" fill-rule="evenodd" stroke="none"/>
    <path d="M4.5 -30.75 Q5.4 -31.9 8.65 -32.05 5.8 -31.55 4.7 -30.55 L3.7 -29.45 4.5 -30.75" fill="#d6a82b" fill-rule="evenodd" stroke="none"/>
    <path d="M4.5 -31.9 Q5.4 -33.05 8.65 -33.2 5.8 -32.7 4.7 -31.7 L3.7 -30.6 4.5 -31.9" fill="#d6a82b" fill-rule="evenodd" stroke="none"/>
    <path d="M2.3 -32.85 Q1.6 -33.65 -0.3 -34.3 L0.55 -34.3 Q2.15 -33.7 2.6 -32.9 L3.0 -32.05 2.3 -32.85" fill="#d6a82b" fill-rule="evenodd" stroke="none"/>
    <path d="M2.45 -34.25 L3.05 -33.15 2.05 -34.25 2.45 -34.25" fill="#d6a82b" fill-rule="evenodd" stroke="none"/>
    <path d="M6.15 -34.3 L6.95 -34.25 Q5.1 -33.6 4.4 -32.85 L3.7 -32.05 4.1 -32.9 Q4.55 -33.7 6.15 -34.3" fill="#d6a82b" fill-rule="evenodd" stroke="none"/>
    <path d="M9.95 -40.15 L17.25 -34.1 -11.4 -34.1 -16.8 -40.2 9.95 -40.15" fill="#f2dc6f" fill-rule="evenodd" stroke="none"/>
    <path d="M3.45 -33.35 L1.9 -34.2 Q0.35 -35.0 -2.65 -35.4 0.6 -35.25 2.0 -34.35 L3.45 -33.35" fill="#d6a82b" fill-rule="evenodd" stroke="none"/>
    <path d="M2.95 -34.35 L1.4 -35.2 Q-0.15 -36.0 -3.15 -36.4 0.1 -36.25 1.5 -35.35 L2.95 -34.35" fill="#d6a82b" fill-rule="evenodd" stroke="none"/>
    <path d="M4.05 -33.35 Q3.85 -33.45 4.1 -34.35 4.35 -35.25 7.45 -35.4 4.95 -35.0 4.45 -34.2 3.9 -33.45 4.05 -33.35" fill="#d6a82b" fill-rule="evenodd" stroke="none"/>
    <path d="M3.4 -34.35 Q3.2 -34.45 3.45 -35.35 3.7 -36.25 6.8 -36.4 4.3 -36.0 3.8 -35.2 3.25 -34.45 3.4 -34.35" fill="#d6a82b" fill-rule="evenodd" stroke="none"/>
    <path d="M2.2 -35.35 L0.65 -36.2 Q-0.9 -37.0 -3.9 -37.4 -0.65 -37.25 0.75 -36.35 L2.2 -35.35" fill="#d6a82b" fill-rule="evenodd" stroke="none"/>
    <path d="M1.55 -36.25 L0.0 -37.1 Q-1.55 -37.9 -4.55 -38.3 -1.3 -38.15 0.1 -37.25 L1.55 -36.25" fill="#d6a82b" fill-rule="evenodd" stroke="none"/>
    <path d="M1.1 -37.2 L-0.45 -38.05 Q-2.0 -38.85 -5.0 -39.25 -1.75 -39.1 -0.35 -38.2 L1.1 -37.2" fill="#d6a82b" fill-rule="evenodd" stroke="none"/>
    <path d="M0.45 -38.15 L-1.1 -39.0 Q-2.65 -39.8 -5.65 -40.2 -2.4 -40.05 -1.0 -39.15 L0.45 -38.15" fill="#d6a82b" fill-rule="evenodd" stroke="none"/>
    <path d="M-1.85 -40.2 Q-0.1 -39.2 -0.15 -39.05 -0.15 -39.2 -2.4 -40.2 L-1.85 -40.2" fill="#d6a82b" fill-rule="evenodd" stroke="none"/>
    <path d="M2.85 -35.35 Q2.65 -35.45 2.9 -36.35 3.15 -37.25 6.25 -37.4 3.75 -37.0 3.25 -36.2 2.7 -35.45 2.85 -35.35" fill="#d6a82b" fill-rule="evenodd" stroke="none"/>
    <path d="M2.2 -36.25 Q2.0 -36.35 2.25 -37.25 2.5 -38.15 5.6 -38.3 3.1 -37.9 2.6 -37.1 2.05 -36.35 2.2 -36.25" fill="#d6a82b" fill-rule="evenodd" stroke="none"/>
    <path d="M1.55 -37.2 Q1.35 -37.3 1.6 -38.2 1.85 -39.1 4.95 -39.25 2.45 -38.85 1.95 -38.05 1.4 -37.3 1.55 -37.2" fill="#d6a82b" fill-rule="evenodd" stroke="none"/>
    <path d="M1.0 -38.15 Q0.8 -38.25 1.05 -39.15 1.3 -40.05 4.4 -40.2 1.9 -39.8 1.4 -39.0 0.85 -38.25 1.0 -38.15" fill="#d6a82b" fill-rule="evenodd" stroke="none"/>
    <path d="M0.5 -40.2 L1.05 -40.15 Q0.15 -39.2 0.35 -39.05 0.1 -39.2 0.5 -40.2" fill="#d6a82b" fill-rule="evenodd" stroke="none"/>
  </g>
</svg>
