<?xml version="1.0" encoding="UTF-8" standalone="no"?>
<svg xmlns:xlink="http://www.w3.org/1999/xlink" height="48.85px" width="32.05px" xmlns="http://www.w3.org/2000/svg">
  <g transform="matrix(1.0, 0.0, 0.0, 1.0, 16.0, 24.45)">
    <path d="M-15.9 -22.3 L2.4 -14.6 2.4 24.35 -15.9 16.65 -15.9 -22.3" fill="#caa08b" fill-rule="evenodd" stroke="none"/>
    <path d="M-4.15 7.75 L2.3 10.45 2.3 24.05 2.05 23.95 Q1.25 20.1 -1.55 18.65 -4.35 17.75 -5.2 20.9 L-8.4 19.55 Q-9.2 15.7 -12.0 14.25 -14.8 13.35 -15.65 16.5 L-15.9 16.4 -15.9 2.8 -9.45 5.5 Q-8.6 8.7 -6.8 9.65 -5.0 10.25 -4.15 7.75" fill="#092564" fill-rule="evenodd" stroke="none"/>
    <path d="M2.4 16.5 L-15.95 8.75 -15.95 3.1 -9.5 5.8 Q-8.95 8.55 -6.8 9.9 -4.65 10.4 -4.05 8.1 L2.4 10.8 2.4 16.5" fill="#6fa9b7" fill-rule="evenodd" stroke="none"/>
    <path d="M-8.45 19.85 Q-9.25 16.0 -12.15 14.5 -15.05 13.55 -15.9 16.7 L-15.95 16.65 -15.95 8.65 2.4 16.4 2.4 24.4 2.35 24.35 Q1.5 20.5 -1.4 19.05 -4.3 18.1 -5.1 21.25 L-8.45 19.85" fill="#084081" fill-rule="evenodd" stroke="none"/>
    <path d="M-12.15 14.5 Q-9.25 16.0 -8.4 19.85 L-15.85 16.7 Q-15.0 13.55 -12.15 14.5" fill="#000000" fill-rule="evenodd" stroke="none"/>
    <path d="M-1.4 19.05 Q1.5 20.55 2.35 24.4 L-5.1 21.25 Q-4.25 18.1 -1.4 19.05" fill="#000000" fill-rule="evenodd" stroke="none"/>
    <path d="M-15.95 -13.45 L-16.0 -22.45 2.35 -14.75 2.35 -5.8 Q-1.85 -0.5 -6.05 -2.65 -10.2 -4.85 -13.0 -8.9 -15.85 -13.0 -15.95 -13.45" fill="#092564" fill-rule="evenodd" stroke="none"/>
    <path d="M-15.95 -13.7 L-16.0 -22.45 2.35 -14.65 2.35 -6.0 Q-1.65 -1.0 -5.85 -3.15 -10.05 -5.3 -12.95 -9.3 L-15.95 -13.7" fill="#084081" fill-rule="evenodd" stroke="none"/>
    <path d="M-15.9 -13.7 Q-15.5 -13.0 -9.7 -9.15 -3.9 -5.25 2.35 -6.5 -4.15 -4.6 -9.8 -8.75 -15.5 -12.9 -15.9 -13.7" fill="#092564" fill-rule="evenodd" stroke="none"/>
    <path d="M-11.4 4.85 L-11.4 12.5 -12.35 12.1 -12.35 4.45 -11.4 4.85" fill="#084081" fill-rule="evenodd" stroke="none"/>
    <path d="M-1.75 8.9 L-1.75 16.55 -2.7 16.15 -2.7 8.5 -1.75 8.9" fill="#084081" fill-rule="evenodd" stroke="none"/>
    <path d="M-11.35 8.35 L-11.15 9.45 Q-10.95 10.6 -9.9 11.15 -9.4 11.4 -10.35 11.1 L-11.5 10.75 -11.35 8.35" fill="#084081" fill-rule="evenodd" stroke="none"/>
    <path d="M-2.7 12.05 L-2.55 14.6 -3.7 13.95 Q-4.65 13.45 -4.15 13.65 -3.1 13.95 -2.9 13.0 L-2.7 12.05" fill="#084081" fill-rule="evenodd" stroke="none"/>
    <path d="M-12.35 7.95 L-12.2 10.5 -13.35 9.85 Q-14.3 9.35 -13.8 9.55 -12.75 9.85 -12.55 8.9 L-12.35 7.95" fill="#084081" fill-rule="evenodd" stroke="none"/>
    <path d="M-1.75 12.45 L-1.55 13.55 Q-1.35 14.7 -0.3 15.25 0.2 15.5 -0.75 15.2 L-1.9 14.85 -1.75 12.45" fill="#084081" fill-rule="evenodd" stroke="none"/>
    <path d="M16.0 -17.45 L16.0 21.65 2.4 24.35 2.4 -14.75 16.0 -17.45" fill="#fdc8ae" fill-rule="evenodd" stroke="none"/>
    <path d="M2.4 24.05 L2.4 10.4 15.95 7.7 15.95 21.35 2.4 24.05" fill="#092564" fill-rule="evenodd" stroke="none"/>
    <path d="M16.0 21.55 L2.4 24.3 2.4 16.25 16.0 13.55 16.0 21.55" fill="#0a50a1" fill-rule="evenodd" stroke="none"/>
    <path d="M16.0 13.55 L2.4 16.25 2.4 10.7 16.0 8.0 16.0 13.55" fill="#8bd3e5" fill-rule="evenodd" stroke="none"/>
    <path d="M2.4 -5.85 L2.4 -14.7 16.05 -17.45 16.05 -8.6 2.4 -5.85" fill="#092564" fill-rule="evenodd" stroke="none"/>
    <path d="M2.4 -6.1 L2.4 -14.7 16.05 -17.45 16.05 -8.85 2.4 -6.1" fill="#0a50a1" fill-rule="evenodd" stroke="none"/>
    <path d="M5.6 19.7 L5.35 20.0 4.95 20.1 3.9 14.1 4.55 13.65 5.6 19.7" fill="#000000" fill-rule="evenodd" stroke="none"/>
    <path d="M5.3 15.2 L5.75 19.5 Q4.5 19.9 4.15 18.0 4.05 15.95 5.3 15.2" fill="#fdc8ae" fill-rule="evenodd" stroke="none"/>
    <path d="M5.75 19.5 L5.3 15.35 5.8 15.0 8.25 14.65 7.6 18.2 5.75 19.5" fill="#8bd3e5" fill-rule="evenodd" stroke="none"/>
    <path d="M5.35 13.05 L5.2 13.65 3.45 14.7 3.15 14.45 3.0 13.75 Q2.95 13.35 3.2 13.15 L4.95 12.1 Q5.15 11.95 5.25 12.35 L5.35 13.05" fill="#000000" fill-rule="evenodd" stroke="none"/>
    <path d="M-16.0 -22.4 L-1.2 -24.45 16.05 -17.45 2.4 -14.7 -16.0 -22.4" fill="#2166ac" fill-rule="evenodd" stroke="none"/>
  </g>
</svg>
