<?xml version="1.0" encoding="UTF-8" standalone="no"?>
<svg xmlns:xlink="http://www.w3.org/1999/xlink" height="4.5px" width="2.7px" xmlns="http://www.w3.org/2000/svg">
  <g transform="matrix(1.0, 0.0, 0.0, 1.0, 1.35, 2.25)">
    <path d="M1.35 1.65 Q1.3 2.35 0.8 2.25 0.35 1.95 0.3 1.2 L0.3 -1.0 Q0.35 -1.7 0.8 -1.55 1.3 -1.3 1.35 -0.55 L1.35 1.65" fill="#000000" fill-rule="evenodd" stroke="none"/>
    <path d="M1.15 -0.05 L1.0 0.1 Q0.85 0.05 0.85 -0.2 L0.85 -0.8 Q0.85 -1.05 1.0 -1.0 L1.15 -0.7 1.15 -0.05" fill="#ffffff" fill-rule="evenodd" stroke="none"/>
    <path d="M-0.3 1.0 Q-0.35 1.7 -0.85 1.6 -1.3 1.3 -1.35 0.55 L-1.35 -1.65 Q-1.3 -2.35 -0.85 -2.2 -0.35 -1.95 -0.3 -1.2 L-0.3 1.0" fill="#000000" fill-rule="evenodd" stroke="none"/>
    <path d="M-0.5 -0.75 Q-0.5 -0.55 -0.65 -0.6 L-0.8 -0.9 -0.8 -1.5 -0.65 -1.7 -0.5 -1.4 -0.5 -0.75" fill="#ffffff" fill-rule="evenodd" stroke="none"/>
  </g>
</svg>
