<?xml version="1.0" encoding="UTF-8" standalone="no"?>
<svg xmlns:xlink="http://www.w3.org/1999/xlink" height="14.15px" width="37.2px" xmlns="http://www.w3.org/2000/svg">
  <g transform="matrix(1.0, 0.0, 0.0, 1.0, 12.95, -4.6)">
    <path d="M-8.1 12.35 L-9.4 12.1 -11.0 11.6 -12.35 10.8 Q-12.9 10.35 -12.95 9.7 -13.0 9.1 -12.3 8.25 -11.55 7.45 -10.85 7.65 -10.2 7.8 -9.6 8.55 L-8.5 10.15 -7.8 11.7 -7.55 12.4 -8.1 12.35" fill="#1e43a6" fill-opacity="0.0" fill-rule="evenodd" stroke="none"/>
    <path d="M7.2 5.45 Q7.55 4.8 8.15 4.65 8.75 4.5 9.7 5.05 10.6 5.6 10.6 6.3 10.55 7.0 9.95 7.75 L8.55 9.1 7.15 10.05 6.5 10.45 6.45 9.9 6.45 8.55 Q6.5 7.75 6.7 6.9 6.85 6.05 7.2 5.45" fill="#1e43a6" fill-opacity="0.0" fill-rule="evenodd" stroke="none"/>
    <path d="M20.9 15.7 Q21.65 15.3 22.35 15.2 23.05 15.05 23.6 15.45 24.1 15.8 24.25 16.9 24.35 17.95 23.8 18.4 L22.3 18.75 20.35 18.5 18.75 18.0 18.0 17.75 18.45 17.35 19.5 16.55 20.9 15.7" fill="#1e43a6" fill-opacity="0.0" fill-rule="evenodd" stroke="none"/>
  </g>
</svg>
