<?xml version="1.0" encoding="UTF-8" standalone="no"?>
<svg xmlns:xlink="http://www.w3.org/1999/xlink" height="100.55px" width="61.1px" xmlns="http://www.w3.org/2000/svg">
  <g transform="matrix(1.0, 0.0, 0.0, 1.0, 27.2, 93.05)">
    <path d="M16.0 -70.9 L33.65 -74.9 33.9 1.65 16.0 7.5 16.0 -70.9" fill="#a98160" fill-rule="evenodd" stroke="none"/>
    <path d="M33.65 -75.0 L16.0 -71.0 -5.75 -90.7 13.65 -93.05 33.65 -75.0" fill="#b99565" fill-rule="evenodd" stroke="none"/>
    <path d="M-27.05 -78.15 L-5.75 -90.6 16.0 -70.9 16.0 7.45 6.65 5.9 6.75 -35.65 -2.65 -36.8 -2.65 -2.8 -19.2 1.45 -27.2 0.2 -27.05 -78.15" fill="#5a3d1b" fill-rule="evenodd" stroke="none"/>
    <path d="M-19.25 1.45 L-19.25 -38.3 -2.65 -36.8 -2.65 -2.8 -19.25 1.45" fill="#452f15" fill-rule="evenodd" stroke="none"/>
    <path d="M-2.65 -2.8 L6.6 -1.35 6.55 5.85 -19.25 1.45 -2.65 -2.8" fill="#000000" fill-opacity="0.3019608" fill-rule="evenodd" stroke="none"/>
  </g>
</svg>
