<?xml version="1.0" encoding="UTF-8" standalone="no"?>
<svg xmlns:xlink="http://www.w3.org/1999/xlink" height="116.3px" width="85.8px" xmlns="http://www.w3.org/2000/svg">
  <g transform="matrix(1.0, 0.0, 0.0, 1.0, 47.25, 131.15)">
    <path d="M-5.4 -78.75 L27.3 -71.55 32.35 -60.0 26.85 -51.35 0.65 -58.5 -5.5 -60.2 -5.55 -19.7 -11.7 -14.85 -11.95 -14.85 -17.6 -24.45 -17.85 -63.7 -41.75 -70.25 -42.95 -70.75 -47.25 -79.7 -43.2 -87.0 -18.0 -81.45 -18.0 -83.9 -18.25 -123.85 -11.8 -130.75 -5.35 -122.75 -5.4 -78.75" fill="#b30000" fill-rule="evenodd" stroke="none"/>
    <path d="M27.3 -71.55 L33.55 -72.9 38.55 -61.55 32.35 -60.0 27.3 -71.55" fill="#5b0a0d" fill-rule="evenodd" stroke="none"/>
    <path d="M32.35 -60.0 L38.55 -61.55 33.15 -53.15 26.85 -51.35 32.35 -60.0" fill="#210203" fill-rule="evenodd" stroke="none"/>
    <path d="M33.55 -72.9 L27.3 -71.55 -5.4 -78.75 -5.35 -78.75 0.8 -79.85 33.55 -72.9" fill="#7e1216" fill-rule="evenodd" stroke="none"/>
    <path d="M0.8 -79.85 L-5.35 -78.75 -5.4 -78.75 -5.35 -122.75 1.0 -123.15 0.8 -79.85" fill="#640c0f" fill-rule="evenodd" stroke="none"/>
    <path d="M-11.8 -130.75 L-5.35 -131.15 1.0 -123.15 -5.35 -122.75 -11.8 -130.75" fill="#54090c" fill-rule="evenodd" stroke="none"/>
    <path d="M-43.2 -87.0 L-37.55 -87.95 -36.6 -87.85 -18.0 -83.9 -18.0 -81.45 -43.2 -87.0" fill="#8b1e22" fill-rule="evenodd" stroke="none"/>
    <path d="M0.65 -58.5 L0.25 -21.55 -5.5 -19.7 -5.55 -19.7 -5.5 -60.2 0.65 -58.5" fill="#590a0d" fill-rule="evenodd" stroke="none"/>
    <path d="M0.25 -21.55 L-5.8 -16.85 -11.7 -14.85 -5.55 -19.7 -5.5 -19.7 0.25 -21.55" fill="#410708" fill-rule="evenodd" stroke="none"/>
  </g>
</svg>
