<?xml version="1.0" encoding="UTF-8" standalone="no"?>
<svg xmlns:xlink="http://www.w3.org/1999/xlink" height="115.05px" width="85.65px" xmlns="http://www.w3.org/2000/svg">
  <g transform="matrix(1.0, 0.0, 0.0, 1.0, 47.25, 130.8)">
    <path d="M32.2 -56.35 L27.65 -68.2 33.85 -69.6 38.4 -58.3 38.35 -58.0 32.2 -56.35" fill="#5c0b0d" fill-rule="evenodd" stroke="none"/>
    <path d="M32.2 -56.35 L38.35 -58.0 32.45 -50.05 26.3 -48.35 32.2 -56.35" fill="#280304" fill-rule="evenodd" stroke="none"/>
    <path d="M33.85 -69.6 L27.65 -68.2 -4.95 -78.05 1.15 -79.25 33.85 -69.6" fill="#7e1014" fill-rule="evenodd" stroke="none"/>
    <path d="M-4.95 -78.05 L-5.1 -78.3 -3.25 -121.9 -3.2 -121.9 3.2 -122.3 1.15 -79.25 -4.95 -78.05" fill="#610b0f" fill-rule="evenodd" stroke="none"/>
    <path d="M-3.25 -121.9 L-9.45 -130.45 -2.95 -130.8 3.2 -122.3 -3.2 -121.9 -3.25 -121.9" fill="#590a0d" fill-rule="evenodd" stroke="none"/>
    <path d="M-17.5 -84.75 L-17.6 -81.9 -17.85 -81.9 -42.9 -89.5 -36.6 -90.3 -17.5 -84.75" fill="#821519" fill-rule="evenodd" stroke="none"/>
    <path d="M-7.55 -20.0 L-5.9 -59.75 0.15 -57.55 -1.55 -22.05 -1.85 -21.8 -1.95 -21.8 -7.55 -20.0" fill="#560a0c" fill-rule="evenodd" stroke="none"/>
    <path d="M-13.8 -15.85 L-7.55 -20.0 -1.95 -21.8 -1.85 -21.8 -7.7 -17.95 -13.8 -15.85" fill="#47080a" fill-rule="evenodd" stroke="none"/>
    <path d="M27.65 -68.2 L32.2 -56.35 26.3 -48.35 0.15 -57.55 -5.9 -59.75 -7.55 -20.0 -13.8 -15.85 -14.05 -15.75 -19.4 -25.7 -18.15 -64.25 -43.2 -73.2 -47.25 -82.7 -42.9 -89.5 -17.85 -81.9 -17.6 -81.9 -17.5 -84.75 -16.3 -123.85 -16.05 -124.3 -9.45 -130.45 -3.25 -121.9 -5.1 -78.3 -4.95 -78.05 27.65 -68.2" fill="#b30000" fill-rule="evenodd" stroke="none"/>
  </g>
</svg>
