<?xml version="1.0" encoding="UTF-8" standalone="no"?>
<svg xmlns:xlink="http://www.w3.org/1999/xlink" height="113.45px" width="85.2px" xmlns="http://www.w3.org/2000/svg">
  <g transform="matrix(1.0, 0.0, 0.0, 1.0, 47.15, 130.35)">
    <path d="M33.9 -66.35 L34.2 -65.95 38.05 -54.45 31.9 -52.85 27.8 -64.85 33.9 -66.35" fill="#5c0b0d" fill-rule="evenodd" stroke="none"/>
    <path d="M31.9 -52.85 L38.05 -54.45 31.8 -47.25 25.7 -45.45 31.9 -52.85" fill="#2e0405" fill-rule="evenodd" stroke="none"/>
    <path d="M33.9 -66.35 L27.8 -64.85 -4.65 -77.4 1.45 -78.5 33.9 -66.35" fill="#7d1014" fill-rule="evenodd" stroke="none"/>
    <path d="M-7.05 -130.0 L-0.7 -130.35 -0.55 -130.2 5.3 -121.3 -1.15 -120.85 -7.05 -130.0" fill="#5c0b0e" fill-rule="evenodd" stroke="none"/>
    <path d="M5.3 -121.3 L1.45 -78.5 -4.65 -77.4 -1.15 -120.85 5.3 -121.3" fill="#5e0b0e" fill-rule="evenodd" stroke="none"/>
    <path d="M-42.5 -91.95 L-37.1 -92.75 -36.1 -92.65 -17.0 -85.5 Q-17.15 -81.75 -17.35 -82.2 L-42.5 -91.95" fill="#7e1115" fill-rule="evenodd" stroke="none"/>
    <path d="M-0.4 -56.8 L-3.5 -22.45 -3.85 -22.3 -9.45 -20.5 -6.2 -59.35 -0.4 -56.8" fill="#53090c" fill-rule="evenodd" stroke="none"/>
    <path d="M-3.85 -22.3 L-9.55 -19.1 -15.9 -16.9 -9.45 -20.5 -3.85 -22.3" fill="#4d080b" fill-rule="evenodd" stroke="none"/>
    <path d="M27.8 -64.85 L31.9 -52.85 25.7 -45.45 -0.4 -56.8 -6.2 -59.35 -9.45 -20.5 -15.9 -16.9 -16.2 -17.0 -21.2 -27.15 -18.45 -64.8 -43.4 -75.75 -47.15 -85.6 -42.5 -91.95 -17.35 -82.2 Q-17.15 -81.75 -17.0 -85.5 L-14.25 -124.15 -7.05 -130.0 -1.15 -120.85 -4.65 -77.4 27.8 -64.85" fill="#b30000" fill-rule="evenodd" stroke="none"/>
  </g>
</svg>
