<?xml version="1.0" encoding="UTF-8" standalone="no"?>
<svg xmlns:xlink="http://www.w3.org/1999/xlink" height="111.5px" width="84.65px" xmlns="http://www.w3.org/2000/svg">
  <g transform="matrix(1.0, 0.0, 0.0, 1.0, 47.0, 129.65)">
    <path d="M34.0 -63.1 L37.65 -51.2 37.45 -51.05 31.4 -49.35 31.35 -49.65 27.85 -61.55 34.0 -63.1" fill="#5b0b0d" fill-rule="evenodd" stroke="none"/>
    <path d="M1.85 -77.85 L34.0 -63.1 27.85 -61.55 -4.35 -76.65 1.85 -77.85" fill="#7d1014" fill-rule="evenodd" stroke="none"/>
    <path d="M37.45 -51.05 L31.05 -44.55 24.85 -42.7 31.4 -49.35 37.45 -51.05" fill="#340506" fill-rule="evenodd" stroke="none"/>
    <path d="M-4.65 -129.25 L1.8 -129.65 7.35 -120.05 0.95 -119.6 -4.65 -129.25" fill="#5f0b0e" fill-rule="evenodd" stroke="none"/>
    <path d="M0.95 -119.6 L7.35 -120.05 1.85 -77.85 -4.35 -76.65 0.95 -119.6" fill="#5e0b0e" fill-rule="evenodd" stroke="none"/>
    <path d="M-42.15 -94.3 L-35.95 -95.15 -16.45 -86.2 -16.75 -82.8 -17.0 -82.5 -42.15 -94.3" fill="#7b1014" fill-rule="evenodd" stroke="none"/>
    <path d="M-1.0 -56.1 L-5.35 -23.05 -6.2 -22.75 -11.4 -21.1 -6.65 -58.95 -1.0 -56.1" fill="#560a0c" fill-rule="evenodd" stroke="none"/>
    <path d="M-6.2 -22.75 L-11.65 -20.25 -17.75 -18.25 -11.4 -21.1 -6.2 -22.75" fill="#53090c" fill-rule="evenodd" stroke="none"/>
    <path d="M-4.65 -129.25 L0.95 -119.6 -4.35 -76.65 27.85 -61.55 31.35 -49.65 31.4 -49.35 24.85 -42.7 -1.0 -56.1 -6.65 -58.95 -11.4 -21.1 -17.75 -18.25 -18.25 -18.15 -22.8 -28.55 -18.75 -65.45 -43.55 -78.35 -47.0 -88.3 -42.15 -94.3 -17.0 -82.5 -16.75 -82.8 -16.45 -86.2 -12.2 -124.1 -4.65 -129.25" fill="#b30000" fill-rule="evenodd" stroke="none"/>
  </g>
</svg>
