<?xml version="1.0" encoding="UTF-8" standalone="no"?>
<svg xmlns:xlink="http://www.w3.org/1999/xlink" height="106.5px" width="82.6px" xmlns="http://www.w3.org/2000/svg">
  <g transform="matrix(1.0, 0.0, 0.0, 1.0, 46.35, 127.55)">
    <path d="M5.05 -116.55 L11.5 -117.1 2.4 -76.35 -3.8 -75.2 5.05 -116.55" fill="#600b0e" fill-rule="evenodd" stroke="none"/>
    <path d="M11.5 -117.1 L5.05 -116.55 0.0 -127.2 6.6 -127.55 11.5 -117.1" fill="#640c0f" fill-rule="evenodd" stroke="none"/>
    <path d="M-3.8 -75.2 L2.4 -76.35 33.7 -56.75 27.5 -55.1 -3.7 -75.1 -3.8 -75.2" fill="#7c0f13" fill-rule="evenodd" stroke="none"/>
    <path d="M27.5 -55.1 L33.7 -56.75 36.25 -44.8 36.0 -44.55 30.0 -42.75 27.5 -55.1" fill="#590a0d" fill-rule="evenodd" stroke="none"/>
    <path d="M30.0 -42.75 L36.0 -44.55 29.1 -39.4 22.9 -37.5 30.0 -42.75" fill="#400708" fill-rule="evenodd" stroke="none"/>
    <path d="M-40.9 -98.95 L-34.6 -99.65 -15.2 -87.45 -16.05 -83.05 -40.9 -98.95" fill="#770f13" fill-rule="evenodd" stroke="none"/>
    <path d="M-2.4 -54.8 L-9.1 -24.85 -15.05 -22.8 -7.45 -58.35 -2.4 -54.85 -2.4 -54.8" fill="#5b0a0d" fill-rule="evenodd" stroke="none"/>
    <path d="M5.05 -116.55 L-3.8 -75.2 -3.7 -75.1 27.5 -55.1 30.0 -42.75 22.9 -37.5 22.65 -37.4 -2.4 -54.8 -2.4 -54.85 -7.45 -58.35 -15.05 -22.8 -22.2 -21.05 -26.05 -31.65 -19.25 -66.65 -43.45 -83.45 -46.35 -93.9 -40.9 -98.95 -16.05 -83.05 -15.2 -87.45 -8.05 -123.3 0.0 -127.2 5.05 -116.55" fill="#b30000" fill-rule="evenodd" stroke="none"/>
  </g>
</svg>
