<?xml version="1.0" encoding="UTF-8" standalone="no"?>
<svg xmlns:xlink="http://www.w3.org/1999/xlink" height="103.55px" width="81.15px" xmlns="http://www.w3.org/2000/svg">
  <g transform="matrix(1.0, 0.0, 0.0, 1.0, 45.85, 126.3)">
    <path d="M7.05 -114.8 L13.5 -115.4 2.65 -75.6 -3.55 -74.45 7.05 -114.8" fill="#610b0e" fill-rule="evenodd" stroke="none"/>
    <path d="M13.5 -115.4 L7.05 -114.8 2.4 -125.85 8.4 -126.3 8.9 -126.3 9.0 -126.0 13.5 -115.4" fill="#650c0f" fill-rule="evenodd" stroke="none"/>
    <path d="M-3.55 -74.45 L2.65 -75.6 33.2 -53.65 27.1 -52.0 -3.55 -74.45" fill="#7a0f13" fill-rule="evenodd" stroke="none"/>
    <path d="M27.1 -52.0 L33.2 -53.65 35.3 -41.6 35.0 -41.45 29.1 -39.65 27.1 -52.0" fill="#570a0d" fill-rule="evenodd" stroke="none"/>
    <path d="M21.8 -35.05 L29.1 -39.65 35.0 -41.45 27.65 -36.85 21.8 -35.05" fill="#450709" fill-rule="evenodd" stroke="none"/>
    <path d="M-40.2 -101.1 L-35.0 -101.8 -33.75 -101.75 -14.4 -87.85 -15.65 -83.2 -40.2 -101.1" fill="#750e12" fill-rule="evenodd" stroke="none"/>
    <path d="M-3.2 -54.3 L-10.95 -25.75 -17.0 -23.85 -7.9 -58.05 -3.2 -54.3" fill="#5d0b0e" fill-rule="evenodd" stroke="none"/>
    <path d="M2.4 -125.85 L7.05 -114.8 -3.55 -74.45 27.1 -52.0 29.1 -39.65 21.8 -35.05 21.6 -35.0 -3.2 -54.3 -7.9 -58.05 -17.0 -23.85 -24.15 -22.75 -27.6 -33.45 -19.5 -67.3 -43.3 -85.9 -45.85 -96.55 -40.2 -101.1 -15.65 -83.2 -14.4 -87.85 -6.0 -122.7 2.4 -125.85" fill="#b30000" fill-rule="evenodd" stroke="none"/>
  </g>
</svg>
