<?xml version="1.0" encoding="UTF-8" standalone="no"?>
<svg xmlns:xlink="http://www.w3.org/1999/xlink" height="96.75px" width="77.6px" xmlns="http://www.w3.org/2000/svg">
  <g transform="matrix(1.0, 0.0, 0.0, 1.0, 44.55, 123.05)">
    <path d="M10.95 -110.75 L7.15 -122.6 13.6 -123.05 17.3 -111.4 10.95 -110.75" fill="#650c0f" fill-rule="evenodd" stroke="none"/>
    <path d="M10.95 -110.75 L17.3 -111.4 3.0 -74.0 -3.1 -72.9 -3.2 -72.9 10.95 -110.75" fill="#610b0f" fill-rule="evenodd" stroke="none"/>
    <path d="M25.85 -46.05 L-3.2 -72.9 -3.1 -72.9 3.0 -74.0 32.05 -47.9 32.0 -47.75 25.85 -46.05" fill="#760e12" fill-rule="evenodd" stroke="none"/>
    <path d="M26.9 -33.85 L25.85 -46.05 32.0 -47.75 33.05 -36.0 32.2 -35.55 26.9 -33.85" fill="#52090c" fill-rule="evenodd" stroke="none"/>
    <path d="M19.7 -30.9 L26.9 -33.85 32.2 -35.55 19.7 -30.9" fill="#4e090b" fill-rule="evenodd" stroke="none"/>
    <path d="M-12.95 -88.6 L-14.65 -83.45 -38.4 -105.35 -33.0 -106.0 -31.95 -105.85 -12.95 -88.6" fill="#700d11" fill-rule="evenodd" stroke="none"/>
    <path d="M-20.45 -26.3 L-8.85 -57.65 -4.75 -53.8 -14.4 -28.35 -14.6 -28.1 -20.45 -26.3" fill="#600b0f" fill-rule="evenodd" stroke="none"/>
    <path d="M7.15 -122.6 L10.95 -110.75 -3.2 -72.9 25.85 -46.05 26.9 -33.85 19.7 -30.9 18.95 -30.65 -4.75 -53.8 -8.85 -57.65 -20.45 -26.3 -27.75 -26.4 -30.55 -37.35 -19.8 -68.55 -42.65 -90.8 -44.55 -101.8 -38.4 -105.35 -14.65 -83.45 -12.95 -88.6 -1.8 -120.85 7.15 -122.6" fill="#b30000" fill-rule="evenodd" stroke="none"/>
  </g>
</svg>
