<?xml version="1.0" encoding="UTF-8" standalone="no"?>
<svg xmlns:xlink="http://www.w3.org/1999/xlink" height="93.5px" width="75.5px" xmlns="http://www.w3.org/2000/svg">
  <g transform="matrix(1.0, 0.0, 0.0, 1.0, 43.75, 121.2)">
    <path d="M9.4 -120.65 L15.85 -121.2 19.15 -109.2 12.75 -108.5 9.4 -120.65" fill="#640c0f" fill-rule="evenodd" stroke="none"/>
    <path d="M12.75 -108.5 L19.15 -109.2 3.2 -73.25 -2.95 -72.0 12.75 -108.5" fill="#610b0f" fill-rule="evenodd" stroke="none"/>
    <path d="M3.2 -73.25 L31.2 -45.0 25.05 -43.15 -2.95 -72.0 3.2 -73.25" fill="#730e12" fill-rule="evenodd" stroke="none"/>
    <path d="M31.2 -45.0 L31.75 -33.2 25.6 -31.2 25.05 -43.15 31.2 -45.0" fill="#4f090b" fill-rule="evenodd" stroke="none"/>
    <path d="M-37.5 -107.35 L-31.2 -108.0 -12.1 -88.75 -14.25 -83.5 -37.5 -107.35" fill="#6d0d11" fill-rule="evenodd" stroke="none"/>
    <path d="M-5.55 -53.55 L-16.15 -29.75 Q-15.75 -29.5 -22.25 -27.7 L-9.3 -57.55 -5.55 -53.55" fill="#620c0f" fill-rule="evenodd" stroke="none"/>
    <path d="M9.4 -120.65 L12.75 -108.5 -2.95 -72.0 25.05 -43.15 25.6 -31.2 17.45 -28.7 -5.55 -53.55 -9.3 -57.55 -22.25 -27.7 -29.45 -28.35 -31.9 -39.4 -19.95 -69.2 -42.3 -93.35 -43.75 -104.3 -37.5 -107.35 -14.25 -83.5 -12.1 -88.75 0.3 -119.65 9.4 -120.65" fill="#b30000" fill-rule="evenodd" stroke="none"/>
  </g>
</svg>
