<?xml version="1.0" encoding="UTF-8" standalone="no"?>
<svg xmlns:xlink="http://www.w3.org/1999/xlink" height="92.15px" width="73.25px" xmlns="http://www.w3.org/2000/svg">
  <g transform="matrix(1.0, 0.0, 0.0, 1.0, 42.9, 119.1)">
    <path d="M17.75 -119.1 L18.1 -119.05 20.85 -106.75 20.8 -106.75 14.5 -106.1 11.65 -118.55 16.95 -119.05 17.6 -119.05 17.75 -119.05 17.75 -119.1" fill="#630c0f" fill-rule="evenodd" stroke="none"/>
    <path d="M3.5 -118.35 L16.95 -119.05 11.65 -118.55 3.5 -118.35 M17.6 -119.05 L17.75 -119.1 17.75 -119.05 17.6 -119.05" fill="#be7376" fill-rule="evenodd" stroke="none"/>
    <path d="M20.85 -106.75 L3.35 -72.45 -2.85 -71.25 14.5 -106.1 20.8 -106.75 20.85 -106.75 M-6.45 -53.5 L-17.85 -31.15 -23.85 -29.3 -9.7 -57.4 -6.45 -53.55 -6.45 -53.5" fill="#600c0f" fill-rule="evenodd" stroke="none"/>
    <path d="M30.35 -42.3 L30.25 -30.75 24.15 -28.65 24.2 -40.45 30.35 -42.3" fill="#4c080b" fill-rule="evenodd" stroke="none"/>
    <path d="M3.35 -72.45 L30.35 -42.3 24.2 -40.45 -2.85 -71.25 3.35 -72.45" fill="#710e11" fill-rule="evenodd" stroke="none"/>
    <path d="M-36.3 -109.25 L-30.05 -109.8 -11.25 -88.85 -13.8 -83.6 -36.3 -109.25" fill="#6b0d10" fill-rule="evenodd" stroke="none"/>
    <path d="M24.15 -28.65 L15.9 -26.95 -6.45 -53.5 -6.45 -53.55 -9.7 -57.4 -23.85 -29.3 -23.9 -29.25 -24.0 -29.25 -31.2 -30.5 -33.2 -41.55 -20.0 -69.85 -41.75 -95.6 -42.9 -106.75 -36.3 -109.25 -13.8 -83.6 -11.25 -88.85 2.35 -118.2 2.95 -118.35 3.5 -118.35 11.65 -118.55 14.5 -106.1 -2.85 -71.25 24.2 -40.45 24.15 -28.65" fill="#b30000" fill-rule="evenodd" stroke="none"/>
  </g>
</svg>
