<?xml version="1.0" encoding="UTF-8" standalone="no"?>
<svg xmlns:xlink="http://www.w3.org/1999/xlink" height="92.0px" width="71.15px" xmlns="http://www.w3.org/2000/svg">
  <g transform="matrix(1.0, 0.0, 0.0, 1.0, 41.9, 117.3)">
    <path d="M19.65 -116.8 L20.25 -116.7 22.6 -104.3 16.2 -103.5 13.75 -116.25 19.65 -116.8" fill="#620c0f" fill-rule="evenodd" stroke="none"/>
    <path d="M22.6 -104.3 L3.45 -71.7 -2.8 -70.45 16.2 -103.5 22.6 -104.3" fill="#610d10" fill-rule="evenodd" stroke="none"/>
    <path d="M4.5 -116.7 L10.7 -117.3 19.65 -116.8 13.75 -116.25 4.5 -116.7" fill="#94484b" fill-rule="evenodd" stroke="none"/>
    <path d="M29.25 -39.75 L28.8 -28.4 22.65 -26.4 23.15 -37.85 29.25 -39.75" fill="#48080a" fill-rule="evenodd" stroke="none"/>
    <path d="M3.45 -71.7 L29.25 -39.75 23.15 -37.85 -2.8 -70.45 3.45 -71.7" fill="#720e12" fill-rule="evenodd" stroke="none"/>
    <path d="M-35.15 -111.05 L-29.25 -111.65 -28.8 -111.4 -10.5 -88.85 -13.2 -83.6 -13.25 -83.6 -35.15 -111.05" fill="#6d0d11" fill-rule="evenodd" stroke="none"/>
    <path d="M-7.2 -53.55 L-19.55 -32.6 -25.55 -30.9 -10.3 -57.4 -7.2 -53.55" fill="#600c0f" fill-rule="evenodd" stroke="none"/>
    <path d="M22.65 -26.4 L14.95 -25.3 14.3 -25.4 -7.2 -53.55 -10.3 -57.4 -25.55 -30.9 -32.85 -32.75 -34.45 -43.6 -20.15 -70.55 -41.1 -98.0 -41.9 -109.1 -35.15 -111.05 -13.25 -83.6 -13.2 -83.6 -10.5 -88.85 4.5 -116.7 13.75 -116.25 16.2 -103.5 -2.8 -70.45 23.15 -37.85 22.65 -26.4" fill="#b30000" fill-rule="evenodd" stroke="none"/>
  </g>
</svg>
