<?xml version="1.0" encoding="UTF-8" standalone="no"?>
<svg xmlns:xlink="http://www.w3.org/1999/xlink" height="92.75px" width="66.5px" xmlns="http://www.w3.org/2000/svg">
  <g transform="matrix(1.0, 0.0, 0.0, 1.0, 39.65, 114.95)">
    <path d="M17.85 -110.95 L24.2 -111.65 25.6 -98.95 19.3 -98.0 17.85 -110.95" fill="#5d0b0e" fill-rule="evenodd" stroke="none"/>
    <path d="M24.2 -111.65 L17.85 -110.95 8.6 -113.15 14.35 -113.75 24.2 -111.65" fill="#64171a" fill-rule="evenodd" stroke="none"/>
    <path d="M19.3 -22.2 L20.7 -33.15 26.85 -35.05 25.35 -24.35 19.3 -22.2" fill="#400709" fill-rule="evenodd" stroke="none"/>
    <path d="M20.7 -33.15 L-2.65 -68.85 3.5 -70.15 26.85 -35.05 20.7 -33.15" fill="#740e12" fill-rule="evenodd" stroke="none"/>
    <path d="M-8.75 -88.55 L-12.2 -83.45 -32.6 -114.35 -26.45 -114.95 -26.2 -114.8 -8.75 -88.55" fill="#710e11" fill-rule="evenodd" stroke="none"/>
    <path d="M-28.55 -34.45 L-11.25 -57.4 -9.0 -53.95 -22.5 -36.25 -28.55 -34.45" fill="#600c0f" fill-rule="evenodd" stroke="none"/>
    <path d="M19.3 -98.0 L25.6 -98.95 3.5 -70.15 -2.65 -68.85 19.3 -98.0" fill="#641114" fill-rule="evenodd" stroke="none"/>
    <path d="M17.85 -110.95 L19.3 -98.0 -2.65 -68.85 20.7 -33.15 19.3 -22.2 10.95 -22.6 -9.0 -53.95 -11.25 -57.4 -28.55 -34.45 -35.75 -37.35 -36.7 -48.1 -20.3 -71.65 -20.3 -71.95 -39.65 -102.25 -39.65 -113.6 -32.6 -114.35 -12.2 -83.45 -8.75 -88.55 8.3 -113.05 8.6 -113.15 17.85 -110.95" fill="#b30000" fill-rule="evenodd" stroke="none"/>
  </g>
</svg>
