<?xml version="1.0" encoding="UTF-8" standalone="no"?>
<svg xmlns:xlink="http://www.w3.org/1999/xlink" height="99.25px" width="66.9px" xmlns="http://www.w3.org/2000/svg">
  <g transform="matrix(1.0, 0.0, 0.0, 1.0, 38.65, 118.1)">
    <path d="M21.65 -105.15 L27.95 -105.95 28.25 -93.05 22.05 -92.1 21.95 -92.1 21.65 -105.15" fill="#570a0d" fill-rule="evenodd" stroke="none"/>
    <path d="M27.95 -105.95 L21.65 -105.15 12.25 -108.9 18.7 -109.55 27.95 -105.95" fill="#580b0e" fill-rule="evenodd" stroke="none"/>
    <path d="M24.05 -31.0 L21.75 -21.05 15.6 -18.85 18.0 -28.95 24.05 -31.0" fill="#380607" fill-rule="evenodd" stroke="none"/>
    <path d="M3.5 -68.6 L24.05 -31.0 18.0 -28.95 -2.65 -67.3 3.5 -68.6" fill="#750e12" fill-rule="evenodd" stroke="none"/>
    <path d="M-23.8 -117.7 L-23.4 -117.7 -7.05 -87.75 -11.25 -83.1 -11.3 -83.1 -29.7 -117.15 -23.8 -117.7" fill="#740e12" fill-rule="evenodd" stroke="none"/>
    <path d="M-36.55 -117.65 L-31.45 -118.1 -23.8 -117.7 -29.7 -117.15 -36.55 -117.65" fill="#c47679" fill-rule="evenodd" stroke="none"/>
    <path d="M-10.65 -54.65 L-25.4 -40.05 -31.45 -38.35 -12.25 -57.65 -10.65 -54.65" fill="#600c0f" fill-rule="evenodd" stroke="none"/>
    <path d="M21.95 -92.1 L22.05 -92.1 28.25 -93.05 3.5 -68.6 -2.65 -67.3 21.95 -92.1" fill="#641114" fill-rule="evenodd" stroke="none"/>
    <path d="M21.65 -105.15 L21.95 -92.1 -2.65 -67.3 18.0 -28.95 15.6 -18.85 7.3 -20.5 -10.65 -54.65 -12.25 -57.65 -31.45 -38.35 -38.45 -42.3 -38.65 -52.9 -20.3 -73.05 -20.3 -73.25 -37.8 -106.3 -37.1 -117.5 -36.55 -117.65 -29.7 -117.15 -11.3 -83.1 -11.25 -83.1 -7.05 -87.75 12.25 -108.9 21.65 -105.15" fill="#b30000" fill-rule="evenodd" stroke="none"/>
  </g>
</svg>
