<?xml version="1.0" encoding="UTF-8" standalone="no"?>
<svg xmlns:xlink="http://www.w3.org/1999/xlink" height="102.5px" width="69.35px" xmlns="http://www.w3.org/2000/svg">
  <g transform="matrix(1.0, 0.0, 0.0, 1.0, 39.7, 119.95)">
    <path d="M23.35 -101.95 L14.0 -106.55 20.5 -107.25 29.65 -102.85 23.35 -101.95" fill="#560a0d" fill-rule="evenodd" stroke="none"/>
    <path d="M23.15 -89.0 L23.35 -101.95 29.65 -102.85 29.4 -90.0 23.2 -89.0 23.15 -89.0" fill="#53090c" fill-rule="evenodd" stroke="none"/>
    <path d="M-2.7 -66.5 L23.15 -89.0 23.2 -89.0 29.4 -90.0 3.45 -67.8 -2.7 -66.5" fill="#580a0d" fill-rule="evenodd" stroke="none"/>
    <path d="M13.65 -17.45 L16.45 -27.15 22.4 -29.1 22.5 -29.1 19.8 -19.65 13.65 -17.45" fill="#330507" fill-rule="evenodd" stroke="none"/>
    <path d="M16.45 -27.15 L-2.7 -66.5 3.45 -67.8 22.5 -29.1 22.4 -29.1 16.45 -27.15" fill="#750e12" fill-rule="evenodd" stroke="none"/>
    <path d="M-28.15 -118.4 L-35.35 -119.5 -29.1 -119.95 -21.85 -118.85 -28.15 -118.4" fill="#9a4d50" fill-rule="evenodd" stroke="none"/>
    <path d="M-6.2 -87.2 L-10.85 -82.85 -28.15 -118.4 -21.85 -118.85 -6.2 -87.2" fill="#740e12" fill-rule="evenodd" stroke="none"/>
    <path d="M-32.75 -40.45 L-12.8 -57.8 -11.45 -55.2 -11.45 -55.1 -26.7 -42.05 -32.75 -40.45" fill="#600b0e" fill-rule="evenodd" stroke="none"/>
    <path d="M14.0 -106.55 L23.35 -101.95 23.15 -89.0 -2.7 -66.5 16.45 -27.15 13.65 -17.45 5.35 -19.85 -11.45 -55.1 -11.45 -55.2 -12.8 -57.8 -32.75 -40.45 -39.7 -44.95 -39.5 -55.35 -20.25 -73.8 -36.75 -108.5 -35.6 -119.5 -35.35 -119.5 -28.15 -118.4 -10.85 -82.85 -6.2 -87.2 14.0 -106.55" fill="#b30000" fill-rule="evenodd" stroke="none"/>
  </g>
</svg>
