<?xml version="1.0" encoding="UTF-8" standalone="no"?>
<svg xmlns:xlink="http://www.w3.org/1999/xlink" height="105.35px" width="72.15px" xmlns="http://www.w3.org/2000/svg">
  <g transform="matrix(1.0, 0.0, 0.0, 1.0, 40.9, 121.65)">
    <path d="M15.7 -104.0 L22.05 -104.85 31.25 -99.55 24.9 -98.7 15.7 -104.0" fill="#540a0c" fill-rule="evenodd" stroke="none"/>
    <path d="M31.25 -99.55 L30.65 -88.9 30.35 -86.85 30.25 -86.85 24.2 -85.8 24.15 -85.8 24.9 -98.7 31.25 -99.55" fill="#4f090b" fill-rule="evenodd" stroke="none"/>
    <path d="M30.35 -86.85 L3.35 -67.05 -2.65 -65.8 -2.7 -65.8 24.15 -85.8 24.2 -85.8 30.25 -86.85 30.35 -86.85" fill="#5b0b0d" fill-rule="evenodd" stroke="none"/>
    <path d="M-2.85 -65.65 L-2.7 -65.8 -2.7 -65.75 -2.85 -65.65" fill="#ff0000" fill-rule="evenodd" stroke="none"/>
    <path d="M20.85 -27.45 L17.75 -18.4 11.7 -16.3 14.8 -25.45 20.85 -27.45" fill="#320607" fill-rule="evenodd" stroke="none"/>
    <path d="M3.35 -67.05 L20.85 -27.45 14.8 -25.45 -2.85 -65.65 -2.7 -65.75 -2.7 -65.8 -2.65 -65.8 3.35 -67.05 M-20.3 -119.95 L-5.4 -86.7 -10.25 -82.65 -10.3 -82.65 -26.5 -119.5 -20.3 -119.95" fill="#750e12" fill-rule="evenodd" stroke="none"/>
    <path d="M-33.8 -121.2 L-27.6 -121.65 -20.3 -119.95 -26.5 -119.5 -33.8 -121.2" fill="#7b2f32" fill-rule="evenodd" stroke="none"/>
    <path d="M-12.25 -55.65 L-27.85 -44.25 -33.95 -42.6 -13.2 -58.05 -12.2 -55.7 -12.25 -55.65" fill="#640c0f" fill-rule="evenodd" stroke="none"/>
    <path d="M11.7 -16.3 L3.5 -19.2 -12.25 -55.65 -12.2 -55.7 -13.2 -58.05 -33.95 -42.6 -40.9 -47.65 -40.35 -57.75 -20.55 -74.0 -20.25 -74.5 -35.6 -110.2 -34.05 -121.2 -33.8 -121.2 -26.5 -119.5 -10.3 -82.65 -10.25 -82.65 -5.4 -86.7 15.7 -104.0 24.9 -98.7 24.15 -85.8 -2.7 -65.8 -2.85 -65.65 14.8 -25.45 11.7 -16.3" fill="#b30000" fill-rule="evenodd" stroke="none"/>
  </g>
</svg>
