<?xml version="1.0" encoding="UTF-8" standalone="no"?>
<svg xmlns:xlink="http://www.w3.org/1999/xlink" height="107.9px" width="74.65px" xmlns="http://www.w3.org/2000/svg">
  <g transform="matrix(1.0, 0.0, 0.0, 1.0, 41.9, 123.2)">
    <path d="M17.25 -101.35 L23.65 -102.2 32.75 -96.2 26.4 -95.3 17.25 -101.35" fill="#560a0d" fill-rule="evenodd" stroke="none"/>
    <path d="M32.75 -96.2 L31.4 -83.8 31.2 -83.65 31.1 -83.65 25.05 -82.55 26.4 -95.3 32.75 -96.2" fill="#4a080a" fill-rule="evenodd" stroke="none"/>
    <path d="M31.2 -83.65 L3.25 -66.35 -2.85 -65.0 25.05 -82.55 31.1 -83.65 31.2 -83.65" fill="#5f0b0e" fill-rule="evenodd" stroke="none"/>
    <path d="M19.15 -26.0 L15.7 -17.4 9.65 -15.35 13.2 -24.0 19.15 -26.0" fill="#360b0c" fill-rule="evenodd" stroke="none"/>
    <path d="M3.25 -66.35 L19.15 -26.0 13.2 -24.0 -2.95 -65.0 -2.85 -65.0 3.25 -66.35" fill="#740e12" fill-rule="evenodd" stroke="none"/>
    <path d="M-18.7 -121.0 L-18.3 -120.45 -4.65 -85.95 -9.75 -82.35 -9.85 -82.35 -24.9 -120.5 -18.7 -121.0" fill="#750e12" fill-rule="evenodd" stroke="none"/>
    <path d="M-32.25 -122.85 L-26.05 -123.2 -18.7 -121.0 -24.9 -120.5 -32.25 -122.85" fill="#661c1f" fill-rule="evenodd" stroke="none"/>
    <path d="M-12.95 -56.35 L-29.3 -46.25 -35.05 -44.85 Q-24.45 -51.55 -13.8 -58.3 L-12.95 -56.35" fill="#670c10" fill-rule="evenodd" stroke="none"/>
    <path d="M9.65 -15.35 L9.65 -15.3 9.55 -15.3 1.8 -18.6 1.45 -19.05 -12.95 -56.35 -13.8 -58.3 Q-24.45 -51.55 -35.05 -44.85 L-35.45 -44.85 -41.9 -50.3 -41.05 -60.3 -20.3 -74.8 -20.15 -75.1 -34.45 -111.9 -32.5 -122.55 -32.25 -122.85 -24.9 -120.5 -9.85 -82.35 -9.75 -82.35 -4.65 -85.95 17.25 -101.35 26.4 -95.3 25.05 -82.55 -2.85 -65.0 -2.95 -65.0 13.2 -24.0 9.65 -15.35" fill="#b30000" fill-rule="evenodd" stroke="none"/>
  </g>
</svg>
