<?xml version="1.0" encoding="UTF-8" standalone="no"?>
<svg xmlns:xlink="http://www.w3.org/1999/xlink" height="110.25px" width="76.95px" xmlns="http://www.w3.org/2000/svg">
  <g transform="matrix(1.0, 0.0, 0.0, 1.0, 42.9, 124.7)">
    <path d="M27.7 -91.7 L18.8 -98.65 25.2 -99.45 34.05 -92.8 27.7 -91.7" fill="#5a0a0d" fill-rule="evenodd" stroke="none"/>
    <path d="M25.85 -79.25 L27.7 -91.7 34.05 -92.8 32.2 -80.65 32.0 -80.5 25.85 -79.25" fill="#450709" fill-rule="evenodd" stroke="none"/>
    <path d="M-2.95 -64.35 L25.85 -79.25 32.0 -80.5 3.1 -65.65 -2.95 -64.35" fill="#620b0f" fill-rule="evenodd" stroke="none"/>
    <path d="M11.4 -22.65 L-3.05 -63.8 -3.05 -64.35 -2.95 -64.35 3.1 -65.65 17.45 -24.7 11.4 -22.65" fill="#730e12" fill-rule="evenodd" stroke="none"/>
    <path d="M7.5 -14.45 L11.4 -22.65 17.45 -24.7 13.65 -16.7 7.5 -14.45" fill="#401415" fill-rule="evenodd" stroke="none"/>
    <path d="M-23.1 -121.3 L-30.7 -124.25 -24.35 -124.7 -16.9 -121.75 -23.1 -121.3" fill="#5a1114" fill-rule="evenodd" stroke="none"/>
    <path d="M-3.85 -85.3 L-9.4 -82.05 -23.1 -121.3 -16.9 -121.75 -3.85 -85.3" fill="#750e12" fill-rule="evenodd" stroke="none"/>
    <path d="M-36.25 -47.1 L-14.35 -58.5 -14.05 -58.3 -13.65 -57.1 -13.75 -57.05 -30.4 -48.5 -36.25 -47.1" fill="#6a0d10" fill-rule="evenodd" stroke="none"/>
    <path d="M18.8 -98.65 L27.7 -91.7 25.85 -79.25 -2.95 -64.35 -3.05 -64.35 -3.05 -63.8 11.4 -22.65 7.5 -14.45 -0.4 -18.55 -13.75 -57.05 -13.65 -57.1 -14.05 -58.3 -14.35 -58.5 -36.25 -47.1 -36.85 -47.45 -42.9 -53.15 -41.6 -62.85 -20.25 -75.4 -20.1 -75.8 -33.15 -113.55 -30.7 -124.25 -23.1 -121.3 -9.4 -82.05 -3.85 -85.3 18.8 -98.65" fill="#b30000" fill-rule="evenodd" stroke="none"/>
  </g>
</svg>
