<?xml version="1.0" encoding="UTF-8" standalone="no"?>
<svg xmlns:xlink="http://www.w3.org/1999/xlink" height="112.2px" width="79.0px" xmlns="http://www.w3.org/2000/svg">
  <g transform="matrix(1.0, 0.0, 0.0, 1.0, 43.75, 126.0)">
    <path d="M35.25 -89.25 L28.95 -88.15 20.2 -95.75 26.55 -96.7 35.25 -89.25" fill="#5c0b0e" fill-rule="evenodd" stroke="none"/>
    <path d="M35.25 -89.25 L32.8 -77.4 32.35 -77.15 26.45 -76.0 28.95 -88.15 35.25 -89.25" fill="#3f0608" fill-rule="evenodd" stroke="none"/>
    <path d="M26.45 -76.0 L32.35 -77.15 2.85 -64.95 -3.1 -63.65 26.45 -76.0" fill="#650c0f" fill-rule="evenodd" stroke="none"/>
    <path d="M2.85 -64.95 L15.75 -23.7 15.6 -23.55 9.65 -21.5 -3.35 -63.55 -3.1 -63.65 2.85 -64.95" fill="#710e12" fill-rule="evenodd" stroke="none"/>
    <path d="M-28.95 -125.55 L-22.5 -126.0 -15.0 -122.4 -21.35 -122.0 -28.95 -125.55" fill="#520c0e" fill-rule="evenodd" stroke="none"/>
    <path d="M-15.0 -122.4 L-3.2 -84.4 -8.85 -81.65 -8.95 -81.65 -21.35 -122.0 -15.0 -122.4" fill="#740e12" fill-rule="evenodd" stroke="none"/>
    <path d="M-14.4 -57.8 L-31.2 -50.9 -37.35 -49.45 -36.9 -49.65 -14.9 -58.8 -14.6 -58.75 -14.35 -57.9 -14.4 -57.8" fill="#6d0d11" fill-rule="evenodd" stroke="none"/>
    <path d="M28.95 -88.15 L26.45 -76.0 -3.1 -63.65 -3.35 -63.55 9.65 -21.5 5.45 -13.8 -2.3 -18.4 -14.4 -57.8 -14.35 -57.9 -14.6 -58.75 -14.9 -58.8 -36.9 -49.65 -37.35 -49.45 -37.7 -49.6 -43.75 -55.7 -42.05 -65.45 -20.0 -76.15 -19.95 -76.35 -31.75 -115.0 -28.95 -125.55 -21.35 -122.0 -8.95 -81.65 -8.85 -81.65 -3.2 -84.4 20.2 -95.75 28.95 -88.15" fill="#b30000" fill-rule="evenodd" stroke="none"/>
    <path d="M15.6 -23.55 L11.4 -15.9 5.45 -13.8 9.65 -21.5 15.6 -23.55" fill="#401415" fill-rule="evenodd" stroke="none"/>
  </g>
</svg>
