<?xml version="1.0" encoding="UTF-8" standalone="no"?>
<svg xmlns:xlink="http://www.w3.org/1999/xlink" height="113.75px" width="80.8px" xmlns="http://www.w3.org/2000/svg">
  <g transform="matrix(1.0, 0.0, 0.0, 1.0, 44.55, 127.2)">
    <path d="M21.5 -92.75 L27.85 -93.75 36.25 -85.65 29.95 -84.5 21.5 -92.75" fill="#5e0b0e" fill-rule="evenodd" stroke="none"/>
    <path d="M36.25 -85.65 L33.3 -73.95 32.6 -73.8 27.0 -72.65 29.95 -84.5 36.25 -85.65" fill="#3a0607" fill-rule="evenodd" stroke="none"/>
    <path d="M32.6 -73.8 L2.65 -64.25 -3.05 -63.0 27.0 -72.65 32.6 -73.8" fill="#680c10" fill-rule="evenodd" stroke="none"/>
    <path d="M2.65 -64.25 L13.8 -22.6 7.85 -20.6 -3.55 -62.95 -3.35 -62.95 -3.1 -63.0 -3.05 -63.0 2.65 -64.25 M-15.05 -58.65 L-30.95 -53.65 -37.95 -51.95 -15.3 -59.2 -15.0 -58.75 -15.05 -58.65" fill="#6f0d11" fill-rule="evenodd" stroke="none"/>
    <path d="M-26.95 -126.8 L-20.65 -127.2 -13.2 -122.9 -19.5 -122.45 -26.95 -126.8" fill="#4c0a0c" fill-rule="evenodd" stroke="none"/>
    <path d="M-13.2 -122.9 L-2.55 -83.5 -8.35 -81.25 -8.45 -81.25 -19.5 -122.45 -13.2 -122.9" fill="#740e12" fill-rule="evenodd" stroke="none"/>
    <path d="M3.35 -13.45 L-4.35 -18.55 -15.05 -58.65 -15.0 -58.75 -15.3 -59.2 -37.95 -51.95 -38.45 -51.85 -44.55 -58.65 -42.6 -67.95 -19.8 -76.9 -30.35 -116.5 -26.95 -126.8 -19.5 -122.45 -8.45 -81.25 -8.35 -81.25 -2.55 -83.5 21.5 -92.75 29.95 -84.5 27.0 -72.65 -3.05 -63.0 -3.1 -63.0 -3.35 -62.95 -3.55 -62.95 7.85 -20.6 3.35 -13.45" fill="#b30000" fill-rule="evenodd" stroke="none"/>
    <path d="M13.8 -22.6 L9.3 -15.5 3.35 -13.45 7.85 -20.6 13.8 -22.6" fill="#401415" fill-rule="evenodd" stroke="none"/>
  </g>
</svg>
