<?xml version="1.0" encoding="UTF-8" standalone="no"?>
<svg xmlns:xlink="http://www.w3.org/1999/xlink" height="114.9px" width="82.45px" xmlns="http://www.w3.org/2000/svg">
  <g transform="matrix(1.0, 0.0, 0.0, 1.0, 45.3, 128.1)">
    <path d="M30.9 -80.8 L22.65 -89.7 29.05 -90.7 37.15 -82.05 30.9 -80.8" fill="#600b0e" fill-rule="evenodd" stroke="none"/>
    <path d="M27.4 -69.3 L30.9 -80.8 37.15 -82.05 33.7 -70.75 27.4 -69.3" fill="#340507" fill-rule="evenodd" stroke="none"/>
    <path d="M1.15 -13.2 L5.95 -19.8 11.8 -21.75 11.85 -21.75 7.2 -15.35 1.15 -13.2" fill="#320506" fill-rule="evenodd" stroke="none"/>
    <path d="M5.95 -19.8 L-3.7 -61.85 -3.7 -62.25 -3.25 -62.4 2.4 -63.65 12.0 -21.9 11.85 -21.75 11.8 -21.75 5.95 -19.8" fill="#6d0d11" fill-rule="evenodd" stroke="none"/>
    <path d="M-17.6 -122.85 L-25.05 -127.7 -18.6 -128.1 -11.25 -123.2 -17.6 -122.85" fill="#4e090b" fill-rule="evenodd" stroke="none"/>
    <path d="M-1.95 -82.55 L-7.75 -80.8 -8.05 -80.85 -8.05 -81.15 -17.6 -122.85 -11.25 -123.2 -1.95 -82.55" fill="#730e12" fill-rule="evenodd" stroke="none"/>
    <path d="M22.65 -89.7 L30.9 -80.8 27.4 -69.3 2.4 -63.65 -3.25 -62.4 -3.7 -62.25 -3.7 -61.85 5.95 -19.8 1.15 -13.2 0.05 -13.8 -6.35 -18.95 -15.6 -59.6 -39.35 -54.25 -45.3 -61.45 -42.95 -70.55 -19.65 -77.45 -28.8 -117.55 -25.05 -127.7 -17.6 -122.85 -8.05 -81.15 -8.05 -80.85 -7.75 -80.8 -1.95 -82.55 22.65 -89.7" fill="#b30000" fill-rule="evenodd" stroke="none"/>
  </g>
</svg>
