<?xml version="1.0" encoding="UTF-8" standalone="no"?>
<svg xmlns:xlink="http://www.w3.org/1999/xlink" height="115.8px" width="83.75px" xmlns="http://www.w3.org/2000/svg">
  <g transform="matrix(1.0, 0.0, 0.0, 1.0, 45.85, 128.95)">
    <path d="M31.6 -76.95 L23.75 -86.55 30.0 -87.7 37.9 -78.3 31.6 -76.95" fill="#610b0f" fill-rule="evenodd" stroke="none"/>
    <path d="M27.55 -65.95 L31.6 -76.95 37.9 -78.3 33.85 -67.45 27.55 -65.95" fill="#2f0507" fill-rule="evenodd" stroke="none"/>
    <path d="M-1.0 -13.15 L4.05 -19.2 4.1 -19.2 9.85 -21.1 9.95 -21.1 5.05 -15.3 -1.0 -13.15" fill="#360507" fill-rule="evenodd" stroke="none"/>
    <path d="M4.05 -19.2 L-4.0 -61.6 2.25 -62.5 10.1 -21.35 9.95 -21.1 9.85 -21.1 4.1 -19.2 4.05 -19.2" fill="#6b0d10" fill-rule="evenodd" stroke="none"/>
    <path d="M-15.65 -123.0 L-23.05 -128.6 -16.6 -128.95 -9.3 -123.45 -15.65 -123.0" fill="#50090c" fill-rule="evenodd" stroke="none"/>
    <path d="M-1.3 -81.55 L-7.55 -80.35 -7.6 -80.35 -15.65 -123.0 -9.3 -123.45 -1.3 -81.55" fill="#710e11" fill-rule="evenodd" stroke="none"/>
    <path d="M23.75 -86.55 L31.6 -76.95 27.55 -65.95 2.25 -62.5 -4.0 -61.6 4.05 -19.2 -1.0 -13.15 -1.65 -13.45 -8.3 -19.2 -15.95 -60.0 -40.2 -56.75 -45.85 -64.4 -43.3 -73.1 -19.5 -77.9 -27.25 -118.85 -23.05 -128.6 -15.65 -123.0 -7.6 -80.35 -7.55 -80.35 -1.3 -81.55 23.75 -86.55" fill="#b30000" fill-rule="evenodd" stroke="none"/>
  </g>
</svg>
