<?xml version="1.0" encoding="UTF-8" standalone="no"?>
<svg xmlns:xlink="http://www.w3.org/1999/xlink" height="116.45px" width="84.8px" xmlns="http://www.w3.org/2000/svg">
  <g transform="matrix(1.0, 0.0, 0.0, 1.0, 46.4, 129.65)">
    <path d="M30.2 -84.4 L30.45 -84.4 30.5 -84.5 31.1 -84.35 38.4 -74.6 32.2 -73.25 24.6 -83.35 30.2 -84.4" fill="#610b0f" fill-rule="evenodd" stroke="none"/>
    <path d="M38.4 -74.6 L33.9 -64.2 27.65 -62.65 32.2 -73.25 38.4 -74.6" fill="#30090a" fill-rule="evenodd" stroke="none"/>
    <path d="M-0.9 -80.95 L30.2 -84.4 24.6 -83.35 -6.0 -79.9 -0.9 -80.95" fill="#c2555a" fill-rule="evenodd" stroke="none"/>
    <path d="M2.05 -61.4 L8.15 -20.9 8.0 -20.65 7.95 -20.65 2.1 -18.7 -4.35 -61.1 2.05 -61.4" fill="#670c10" fill-rule="evenodd" stroke="none"/>
    <path d="M8.0 -20.65 L2.8 -15.35 -3.25 -13.2 2.1 -18.7 7.95 -20.65 8.0 -20.65" fill="#3a0607" fill-rule="evenodd" stroke="none"/>
    <path d="M-21.05 -129.25 L-14.6 -129.65 -7.3 -123.45 -13.75 -123.05 -21.05 -129.25" fill="#52090c" fill-rule="evenodd" stroke="none"/>
    <path d="M-7.3 -123.45 L-0.9 -80.95 -6.0 -79.9 -6.15 -79.9 -6.45 -79.85 -7.2 -79.9 -13.75 -123.05 -7.3 -123.45" fill="#6f0d11" fill-rule="evenodd" stroke="none"/>
    <path d="M-42.5 -75.8 L-37.65 -76.75 -19.3 -78.85 -19.3 -78.35 -42.5 -75.8" fill="#f68f94" fill-rule="evenodd" stroke="none"/>
    <path d="M27.65 -62.65 L2.05 -61.4 -4.35 -61.1 2.1 -18.7 -3.25 -13.2 -10.25 -19.7 -16.45 -60.45 -40.9 -59.2 -46.4 -67.2 -43.55 -75.65 -42.95 -75.75 -42.65 -75.8 -42.5 -75.8 -19.3 -78.35 -19.3 -78.85 -25.6 -119.9 -21.05 -129.25 -13.75 -123.05 -7.2 -79.9 -6.45 -79.85 -6.15 -79.9 -6.0 -79.9 24.6 -83.35 32.2 -73.25 27.65 -62.65" fill="#b30000" fill-rule="evenodd" stroke="none"/>
  </g>
</svg>
