<?xml version="1.0" encoding="UTF-8" standalone="no"?>
<svg xmlns:xlink="http://www.w3.org/1999/xlink" height="116.6px" width="85.65px" xmlns="http://www.w3.org/2000/svg">
  <g transform="matrix(1.0, 0.0, 0.0, 1.0, 46.8, 130.1)">
    <path d="M31.5 -81.3 L32.0 -81.0 38.85 -70.85 32.6 -69.45 25.45 -80.1 31.5 -81.3" fill="#610b0f" fill-rule="evenodd" stroke="none"/>
    <path d="M31.5 -81.3 L25.45 -80.1 -6.5 -79.25 -0.55 -80.4 31.5 -81.3" fill="#a13338" fill-rule="evenodd" stroke="none"/>
    <path d="M32.6 -69.45 L38.85 -70.85 33.85 -61.0 27.65 -59.45 32.6 -69.45" fill="#371314" fill-rule="evenodd" stroke="none"/>
    <path d="M1.7 -60.3 L6.15 -21.1 5.95 -20.35 5.9 -20.35 0.15 -18.4 -4.65 -60.5 1.7 -60.3" fill="#640c0f" fill-rule="evenodd" stroke="none"/>
    <path d="M5.95 -20.35 L0.7 -15.65 -5.4 -13.5 0.15 -18.4 5.9 -20.35 5.95 -20.35" fill="#3e0608" fill-rule="evenodd" stroke="none"/>
    <path d="M-18.85 -129.75 L-12.35 -130.0 -5.25 -123.3 -11.7 -122.9 -18.85 -129.75" fill="#54090c" fill-rule="evenodd" stroke="none"/>
    <path d="M-5.25 -123.3 L-0.55 -80.4 -6.5 -79.25 -6.75 -79.25 -11.7 -122.9 -5.25 -123.3" fill="#6d0d11" fill-rule="evenodd" stroke="none"/>
    <path d="M-43.15 -78.3 L-37.55 -79.3 -19.1 -79.85 -19.0 -78.95 -43.15 -78.3" fill="#d36367" fill-rule="evenodd" stroke="none"/>
    <path d="M25.45 -80.1 L32.6 -69.45 27.65 -59.45 1.7 -60.3 -4.65 -60.5 0.15 -18.4 -5.4 -13.5 -12.2 -20.4 -12.2 -20.65 -16.9 -60.95 -41.6 -61.75 -46.8 -70.0 -46.8 -70.3 -43.7 -78.15 -43.15 -78.3 -19.0 -78.95 -19.1 -79.85 -23.9 -120.85 -18.85 -129.75 -11.7 -122.9 -6.75 -79.25 -6.5 -79.25 25.45 -80.1" fill="#b30000" fill-rule="evenodd" stroke="none"/>
  </g>
</svg>
