<?xml version="1.0" encoding="UTF-8" standalone="no"?>
<svg xmlns:xlink="http://www.w3.org/1999/xlink" height="115.9px" width="86.6px" xmlns="http://www.w3.org/2000/svg">
  <g transform="matrix(1.0, 0.0, 0.0, 1.0, 47.4, 130.6)">
    <path d="M26.6 -73.5 L-5.8 -78.05 0.25 -79.25 32.8 -74.8 26.6 -73.5" fill="#84161a" fill-rule="evenodd" stroke="none"/>
    <path d="M32.9 -61.9 L32.75 -62.4 26.6 -73.5 32.8 -74.8 39.2 -63.45 32.9 -61.9" fill="#5f0b0e" fill-rule="evenodd" stroke="none"/>
    <path d="M27.1 -53.05 L32.9 -61.9 39.2 -63.45 33.3 -54.8 27.1 -53.05" fill="#250304" fill-rule="evenodd" stroke="none"/>
    <path d="M-7.6 -122.05 L-14.35 -130.2 -8.0 -130.6 -1.25 -122.55 -7.6 -122.05" fill="#570a0c" fill-rule="evenodd" stroke="none"/>
    <path d="M-5.8 -78.05 L-6.05 -78.2 -7.6 -122.05 -1.25 -122.55 0.25 -79.25 -5.8 -78.05" fill="#680c10" fill-rule="evenodd" stroke="none"/>
    <path d="M-18.55 -81.8 L-18.45 -79.85 -43.55 -83.35 -37.4 -84.35 -18.55 -81.8" fill="#9a2a2f" fill-rule="evenodd" stroke="none"/>
    <path d="M-3.8 -18.4 L-5.35 -59.45 -5.25 -59.45 0.95 -58.2 2.2 -20.4 1.95 -20.25 -3.7 -18.4 -3.8 -18.4" fill="#5d0b0e" fill-rule="evenodd" stroke="none"/>
    <path d="M-9.6 -14.7 L-3.8 -18.4 -3.7 -18.4 1.95 -20.25 -3.8 -16.6 -9.6 -14.7" fill="#440709" fill-rule="evenodd" stroke="none"/>
    <path d="M26.6 -73.5 L32.75 -62.4 32.9 -61.9 27.1 -53.05 0.95 -58.2 -5.25 -59.45 -5.35 -59.45 -3.8 -18.4 -9.6 -14.7 -10.0 -14.75 -15.95 -22.35 -17.75 -62.0 -42.35 -66.8 -42.65 -67.05 -47.4 -76.0 -43.55 -83.35 -18.45 -79.85 -18.55 -81.8 -20.25 -122.25 -14.35 -130.2 -7.6 -122.05 -6.05 -78.2 -5.8 -78.05 26.6 -73.5" fill="#b30000" fill-rule="evenodd" stroke="none"/>
  </g>
</svg>
