<?xml version="1.0" encoding="UTF-8" standalone="no"?>
<svg xmlns:xlink="http://www.w3.org/1999/xlink" height="56.65px" width="40.45px" xmlns="http://www.w3.org/2000/svg">
  <g transform="matrix(1.0, 0.0, 0.0, 1.0, 30.2, 54.85)">
    <path d="M-9.75 -31.5 L-15.15 -32.55 -17.2 -36.75 -13.8 -39.95 -8.35 -38.95 -6.35 -34.7 -9.75 -31.5" fill="#ffff00" fill-rule="evenodd" stroke="none"/>
    <path d="M6.7 -18.1 L6.4 -17.05 1.05 -15.6 1.35 -16.7 6.7 -18.1" fill="#619600" fill-rule="evenodd" stroke="none"/>
    <path d="M2.6 -20.8 L7.9 -22.4 6.7 -18.1 1.35 -16.7 2.6 -20.8" fill="#88d100" fill-rule="evenodd" stroke="none"/>
    <path d="M1.15 1.8 L-1.9 1.2 -3.15 -20.3 -0.1 -19.75 1.15 1.8" fill="#5a8a00" fill-rule="evenodd" stroke="none"/>
    <path d="M-0.05 -19.75 L-3.15 -20.3 -9.6 -32.4 -6.55 -31.85 -0.05 -19.75" fill="#4a7100" fill-rule="evenodd" stroke="none"/>
    <path d="M-6.55 -31.8 L-9.6 -32.4 -9.2 -35.4 -6.15 -34.85 -6.55 -31.8" fill="#649b00" fill-rule="evenodd" stroke="none"/>
    <path d="M-6.15 -34.85 L1.45 -22.35 2.95 1.25 1.15 1.75 -0.1 -19.75 -6.55 -31.85 -6.15 -34.85" fill="#79ba00" fill-rule="evenodd" stroke="none"/>
    <path d="M-16.15 -39.1 L-12.7 -38.95 -14.05 -34.5 -17.5 -34.65 -16.15 -39.1" fill="#c06a00" fill-rule="evenodd" stroke="none"/>
    <path d="M-28.15 -44.4 L-24.7 -44.25 -12.7 -38.9 -16.15 -39.05 -28.15 -44.4" fill="#b26200" fill-rule="evenodd" stroke="none"/>
    <path d="M-17.5 -34.65 L-14.05 -34.5 -11.5 -31.25 -14.95 -31.4 -17.5 -34.65" fill="#dd7a00" fill-rule="evenodd" stroke="none"/>
    <path d="M-14.9 -31.35 L-11.45 -31.2 -20.7 -20.8 -24.15 -20.95 -14.9 -31.35" fill="#965300" fill-rule="evenodd" stroke="none"/>
    <path d="M-12.35 -41.2 L-8.9 -41.05 -12.55 -39.15 -16.0 -39.25 -12.35 -41.2" fill="#814700" fill-rule="evenodd" stroke="none"/>
    <path d="M-17.05 -54.85 L-13.6 -54.7 -8.85 -41.35 -12.3 -41.5 -17.05 -54.85" fill="#e67f00" fill-rule="evenodd" stroke="none"/>
    <path d="M-17.5 -34.6 L-14.9 -31.35 -11.1 -33.2 -5.8 -19.85 -12.85 -17.15 -14.9 -31.35 -24.15 -20.95 -28.8 -27.5 -17.9 -34.65 -30.2 -36.25 -28.15 -44.4 -16.15 -39.05 -17.5 -34.6" fill="#ba6700" fill-rule="evenodd" stroke="none"/>
    <path d="M-11.1 -33.2 L-7.65 -33.05 -2.35 -19.75 -5.8 -19.85 -11.1 -33.2" fill="#e67f00" fill-rule="evenodd" stroke="none"/>
    <path d="M-5.75 -19.9 L-2.3 -19.75 -9.4 -17.05 -12.85 -17.2 -5.75 -19.9" fill="#804700" fill-rule="evenodd" stroke="none"/>
    <path d="M1.65 -43.7 L5.1 -43.55 -6.5 -37.5 -9.95 -37.65 1.65 -43.7" fill="#814700" fill-rule="evenodd" stroke="none"/>
    <path d="M-2.4 -50.7 L1.05 -50.55 5.1 -43.55 1.65 -43.7 -2.4 -50.7" fill="#e37e00" fill-rule="evenodd" stroke="none"/>
    <path d="M-9.95 -37.65 L-6.5 -37.5 6.15 -35.15 2.7 -35.3 -9.95 -37.65" fill="#9b5600" fill-rule="evenodd" stroke="none"/>
    <path d="M2.75 -35.3 L6.2 -35.15 4.15 -27.05 0.7 -27.15 2.75 -35.3" fill="#c56d00" fill-rule="evenodd" stroke="none"/>
    <path d="M1.7 -43.7 L-9.95 -37.65 2.7 -35.3 0.7 -27.15 -10.95 -33.1 -10.05 -37.7 -12.35 -41.2 -16.0 -39.3 -23.65 -50.85 -17.05 -54.85 -12.3 -41.5 -2.4 -50.75 1.7 -43.7" fill="#ba6700" fill-rule="evenodd" stroke="none"/>
    <path d="M0.05 -16.4 L-0.35 -14.95 -4.25 -9.9 -3.8 -11.35 0.05 -16.4" fill="#558300" fill-rule="evenodd" stroke="none"/>
    <path d="M-3.8 -11.35 L-4.25 -9.9 -13.6 -9.75 -13.15 -11.2 -3.8 -11.35" fill="#619600" fill-rule="evenodd" stroke="none"/>
    <path d="M-8.1 -15.9 L0.1 -16.4 -3.8 -11.35 -13.15 -11.2 -8.1 -15.9" fill="#88d100" fill-rule="evenodd" stroke="none"/>
    <path d="M10.25 -4.7 L9.4 -3.1 5.85 -2.35 6.7 -3.95 10.25 -4.7" fill="#679717" fill-rule="evenodd" stroke="none"/>
    <path d="M6.7 -3.9 L5.85 -2.3 -3.55 -5.95 -2.7 -7.55 6.7 -3.9" fill="#77ae1a" fill-rule="evenodd" stroke="none"/>
    <path d="M5.95 -7.1 L10.2 -4.65 6.7 -3.9 -2.7 -7.55 5.95 -7.1" fill="#8ccc1f" fill-rule="evenodd" stroke="none"/>
  </g>
</svg>
