<?xml version="1.0" encoding="UTF-8" standalone="no"?>
<svg xmlns:xlink="http://www.w3.org/1999/xlink" height="173.7px" width="134.05px" xmlns="http://www.w3.org/2000/svg">
  <g transform="matrix(1.0, 0.0, 0.0, 1.0, 67.0, 148.7)">
    <path d="M57.05 7.7 L-22.45 25.0 -22.45 -42.3 57.05 -55.65 57.05 7.7" fill="#00a0c6" fill-rule="evenodd" stroke="none"/>
    <path d="M-64.05 -67.7 L-22.4 -42.7 -22.4 24.95 -64.05 -0.05 -64.05 -67.7" fill="#0081b3" fill-rule="evenodd" stroke="none"/>
    <path d="M-22.7 -42.0 L56.3 -55.0 -22.45 -29.0 -22.7 -42.0" fill="#0081b3" fill-rule="evenodd" stroke="none"/>
    <path d="M47.0 -37.65 L50.35 -10.3 -16.6 2.7 -16.6 -31.45 47.0 -37.65" fill="#000000" fill-rule="evenodd" stroke="none"/>
    <path d="M8.85 -12.85 L2.15 -11.65 -16.6 -31.45 -9.9 -32.65 8.85 -12.85" fill="#ffd900" fill-rule="evenodd" stroke="none"/>
    <path d="M15.3 -14.0 L8.6 -12.8 -10.15 -32.6 -3.45 -33.8 15.3 -14.0" fill="#ffff58" fill-rule="evenodd" stroke="none"/>
    <path d="M21.8 -15.15 L15.1 -13.95 -3.65 -33.75 3.05 -34.95 21.8 -15.15" fill="#ffd900" fill-rule="evenodd" stroke="none"/>
    <path d="M28.25 -16.3 L21.55 -15.1 2.8 -34.9 9.5 -36.1 28.25 -16.3" fill="#ffff58" fill-rule="evenodd" stroke="none"/>
    <path d="M34.7 -17.45 L28.0 -16.25 9.25 -36.05 15.95 -37.25 34.7 -17.45" fill="#ffd900" fill-rule="evenodd" stroke="none"/>
    <path d="M41.15 -18.6 L34.45 -17.4 15.7 -37.2 22.4 -38.4 41.15 -18.6" fill="#ffff58" fill-rule="evenodd" stroke="none"/>
    <path d="M47.6 -19.75 L40.9 -18.55 22.15 -38.35 28.85 -39.55 47.6 -19.75" fill="#ffd900" fill-rule="evenodd" stroke="none"/>
    <path d="M54.05 -20.9 L47.35 -19.7 28.6 -39.5 35.3 -40.7 54.05 -20.9" fill="#ffff58" fill-rule="evenodd" stroke="none"/>
    <path d="M60.5 -22.05 L53.8 -20.85 35.05 -40.65 41.75 -41.85 60.5 -22.05" fill="#ffd900" fill-rule="evenodd" stroke="none"/>
    <path d="M66.95 -23.2 L60.25 -22.0 41.5 -41.8 48.2 -43.0 66.95 -23.2" fill="#ffff58" fill-rule="evenodd" stroke="none"/>
    <path d="M5.1 -9.2 Q2.5 -9.35 1.9 -11.8 L8.3 -13.0 8.35 -12.5 Q8.05 -9.5 5.1 -9.2" fill="#ffd900" fill-rule="evenodd" stroke="none"/>
    <path d="M14.8 -14.2 L14.8 -14.1 14.85 -13.5 Q14.6 -10.5 11.6 -10.2 8.9 -10.35 8.4 -13.05 L14.8 -14.2" fill="#ffff58" fill-rule="evenodd" stroke="none"/>
    <path d="M14.75 -14.15 L21.15 -15.35 21.2 -14.85 Q20.9 -11.9 17.95 -11.55 15.45 -11.7 14.8 -14.05 L14.75 -14.15" fill="#ffd900" fill-rule="evenodd" stroke="none"/>
    <path d="M21.25 -15.4 L27.65 -16.55 27.65 -16.45 27.7 -15.85 Q27.45 -12.9 24.45 -12.55 21.75 -12.75 21.25 -15.4" fill="#ffff58" fill-rule="evenodd" stroke="none"/>
    <path d="M27.65 -16.45 L27.65 -16.55 34.05 -17.7 34.1 -17.25 Q33.8 -14.25 30.85 -13.95 28.35 -14.1 27.65 -16.45" fill="#ffd900" fill-rule="evenodd" stroke="none"/>
    <path d="M34.1 -17.75 L40.5 -18.9 40.5 -18.85 40.55 -18.25 Q40.3 -15.25 37.3 -14.95 34.6 -15.1 34.1 -17.75" fill="#ffff58" fill-rule="evenodd" stroke="none"/>
    <path d="M40.5 -18.85 L40.5 -18.95 46.9 -20.1 46.95 -19.65 Q46.65 -16.7 43.7 -16.35 41.2 -16.5 40.5 -18.85" fill="#ffd900" fill-rule="evenodd" stroke="none"/>
    <path d="M46.95 -20.1 L53.35 -21.25 53.4 -20.6 Q53.15 -17.65 50.15 -17.3 47.5 -17.5 46.95 -20.1" fill="#ffff58" fill-rule="evenodd" stroke="none"/>
    <path d="M53.35 -21.25 L60.1 -22.5 60.15 -22.05 Q59.85 -19.05 56.7 -18.75 54.05 -18.9 53.35 -21.25" fill="#ffd900" fill-rule="evenodd" stroke="none"/>
    <path d="M60.2 -22.5 L66.95 -23.75 67.05 -23.0 Q66.75 -20.05 63.6 -19.7 60.75 -19.9 60.2 -22.5" fill="#ffff58" fill-rule="evenodd" stroke="none"/>
    <path d="M59.5 -55.0 L-24.0 -41.0 -24.0 -53.95 59.5 -67.95 59.5 -55.0" fill="#00a0c6" fill-rule="evenodd" stroke="none"/>
    <path d="M-24.05 -40.9 L-67.0 -64.7 -67.0 -77.75 -24.05 -53.95 -24.05 -40.9" fill="#0077ae" fill-rule="evenodd" stroke="none"/>
    <path d="M-67.0 -77.75 L7.0 -87.85 58.8 -67.65 -24.05 -53.95 -67.0 -77.75" fill="#00aee3" fill-rule="evenodd" stroke="none"/>
    <path d="M-6.1 -71.1 L-23.1 -119.6 -7.1 -112.6 -6.1 -71.1" fill="#ebac53" fill-rule="evenodd" stroke="none"/>
    <path d="M-6.1 -71.1 L-7.1 -112.1 7.9 -116.6 -6.1 -71.1" fill="#fecf6f" fill-rule="evenodd" stroke="none"/>
    <path d="M-17.65 -111.75 L-29.0 -115.45 -28.5 -131.15 -17.15 -127.45 -17.65 -111.75" fill="#527d87" fill-rule="evenodd" stroke="none"/>
    <path d="M-17.15 -127.5 L-28.5 -131.2 -17.0 -134.45 -5.65 -130.75 -17.15 -127.5" fill="#659aa7" fill-rule="evenodd" stroke="none"/>
    <path d="M-5.65 -130.75 L-6.15 -115.05 -17.65 -111.75 -17.15 -127.5 -5.65 -130.75" fill="#77b5c4" fill-rule="evenodd" stroke="none"/>
    <path d="M0.6 -109.5 L-10.75 -113.2 -10.25 -128.9 1.1 -125.2 0.6 -109.5" fill="#65812d" fill-rule="evenodd" stroke="none"/>
    <path d="M1.1 -125.25 L-10.25 -128.95 1.25 -132.2 12.6 -128.5 1.1 -125.25" fill="#7d9f38" fill-rule="evenodd" stroke="none"/>
    <path d="M12.6 -128.5 L12.1 -112.8 0.6 -109.5 1.1 -125.25 12.6 -128.5" fill="#92bb42" fill-rule="evenodd" stroke="none"/>
    <path d="M-6.9 -126.0 L-18.25 -129.7 -17.75 -145.4 -6.4 -141.7 -6.9 -126.0" fill="#965151" fill-rule="evenodd" stroke="none"/>
    <path d="M-6.4 -141.75 L-17.75 -145.45 -6.25 -148.7 5.1 -145.0 -6.4 -141.75" fill="#ba6565" fill-rule="evenodd" stroke="none"/>
    <path d="M5.05 -145.0 L4.55 -129.3 -6.95 -126.0 -6.45 -141.75 5.05 -145.0" fill="#da7676" fill-rule="evenodd" stroke="none"/>
    <path d="M-31.75 -79.3 L-23.45 -84.05 -23.6 -76.75 -31.85 -72.0 -31.75 -79.3" fill="#c4c400" fill-rule="evenodd" stroke="none"/>
    <path d="M-31.85 -72.05 L-23.6 -76.8 -16.65 -76.0 Q-20.75 -73.6 -24.9 -71.25 L-31.85 -72.05" fill="#afaf00" fill-rule="evenodd" stroke="none"/>
    <path d="M-24.8 -78.5 L-24.9 -71.25 -31.85 -72.0 -31.75 -79.3 -24.8 -78.5" fill="#000000" fill-rule="evenodd" stroke="none"/>
    <path d="M-24.8 -78.55 L-16.5 -83.3 -16.65 -76.0 Q-20.75 -73.6 -24.9 -71.25 L-24.8 -78.55" fill="#000000" fill-rule="evenodd" stroke="none"/>
    <path d="M-31.75 -79.3 L-23.5 -84.05 -16.55 -83.25 -24.8 -78.5 -31.75 -79.3" fill="#000000" fill-rule="evenodd" stroke="none"/>
    <path d="M-18.4 -84.35 L-10.15 -89.1 -10.5 -68.75 -18.75 -64.0 -18.4 -84.35" fill="#c4c400" fill-rule="evenodd" stroke="none"/>
    <path d="M-37.85 -86.55 L-29.6 -91.3 -10.15 -89.1 -18.45 -84.35 -37.85 -86.55" fill="#afaf00" fill-rule="evenodd" stroke="none"/>
    <path d="M-37.85 -86.55 L-18.45 -84.35 -18.8 -64.0 -38.2 -66.2 -37.85 -86.55 M-24.9 -71.25 L-24.8 -78.5 -31.75 -79.3 -31.85 -72.05 -24.9 -71.25" fill="#b7b700" fill-rule="evenodd" stroke="none"/>
    <path d="M16.7 -89.35 L0.3 -96.65 2.45 -99.8 18.85 -92.55 16.7 -89.35" fill="#ab5883" fill-rule="evenodd" stroke="none"/>
    <path d="M16.55 -89.2 L0.15 -96.45 0.25 -96.65 16.65 -89.4 16.55 -89.2" fill="#ab5883" fill-rule="evenodd" stroke="none"/>
    <path d="M29.55 -76.8 L13.2 -84.05 0.15 -96.45 16.55 -89.2 29.55 -76.8" fill="#783e5c" fill-rule="evenodd" stroke="none"/>
    <path d="M18.85 -92.55 L31.85 -80.15 29.6 -76.85 16.55 -89.2 16.65 -89.4 18.85 -92.55" fill="#cd6a9d" fill-rule="evenodd" stroke="none"/>
    <path d="M27.4 -73.65 L11.05 -80.9 -2.0 -93.3 14.4 -86.05 27.4 -73.65" fill="#000000" fill-rule="evenodd" stroke="none"/>
    <path d="M16.5 -89.2 L29.55 -76.85 27.4 -73.7 14.35 -86.05 16.5 -89.2" fill="#000000" fill-rule="evenodd" stroke="none"/>
    <path d="M14.4 -86.05 L-2.0 -93.3 0.3 -96.65 16.65 -89.4 14.4 -86.05" fill="#000000" fill-rule="evenodd" stroke="none"/>
    <path d="M12.1 -82.7 L-4.3 -89.95 -2.0 -93.3 14.35 -86.05 12.1 -82.7" fill="#ab5883" fill-rule="evenodd" stroke="none"/>
    <path d="M25.1 -70.35 L8.75 -77.6 -4.3 -90.0 12.1 -82.75 25.1 -70.35" fill="#783e5c" fill-rule="evenodd" stroke="none"/>
    <path d="M14.4 -86.05 L27.4 -73.65 25.15 -70.35 12.1 -82.7 14.4 -86.05" fill="#cd6a9d" fill-rule="evenodd" stroke="none"/>
    <path d="M5.05 -60.75 L-15.35 -67.15 -15.3 -68.8 5.1 -62.4 5.05 -60.75" fill="#959595" fill-rule="evenodd" stroke="none"/>
    <path d="M5.05 -62.4 L-15.35 -68.8 2.1 -73.6 22.5 -67.2 5.05 -62.4" fill="#b8b8b8" fill-rule="evenodd" stroke="none"/>
    <path d="M22.55 -67.2 L22.5 -65.55 5.05 -60.75 5.1 -62.4 22.55 -67.2" fill="#dcdcdc" fill-rule="evenodd" stroke="none"/>
    <path d="M5.05 -62.6 L-15.35 -69.0 -15.3 -70.65 5.1 -64.25 5.05 -62.6" fill="#000000" fill-rule="evenodd" stroke="none"/>
    <path d="M5.1 -64.25 L-15.3 -70.65 2.15 -75.45 22.55 -69.05 5.1 -64.25" fill="#000000" fill-rule="evenodd" stroke="none"/>
    <path d="M22.6 -69.05 L22.55 -67.4 5.1 -62.6 5.15 -64.25 22.6 -69.05" fill="#000000" fill-rule="evenodd" stroke="none"/>
    <path d="M5.2 -68.9 L22.65 -73.7 22.55 -69.05 5.1 -64.25 5.2 -68.9" fill="#dcdc00" fill-rule="evenodd" stroke="none"/>
    <path d="M5.2 -68.9 L-15.2 -75.3 2.25 -80.1 22.65 -73.7 5.2 -68.9" fill="#b8b800" fill-rule="evenodd" stroke="none"/>
    <path d="M5.1 -64.25 L-15.3 -70.65 -15.2 -75.45 5.2 -69.05 5.1 -64.25" fill="#959500" fill-rule="evenodd" stroke="none"/>
    <path d="M5.2 -68.9 L-15.2 -75.3 -15.2 -75.45 5.2 -69.05 5.2 -68.9" fill="#000000" fill-rule="evenodd" stroke="none"/>
    <path d="M5.2 -69.1 L-15.2 -75.5 -15.15 -77.0 5.25 -70.6 5.2 -69.1" fill="#000000" fill-rule="evenodd" stroke="none"/>
    <path d="M5.25 -70.6 L-15.15 -77.0 2.3 -81.8 22.7 -75.4 5.25 -70.6" fill="#000000" fill-rule="evenodd" stroke="none"/>
    <path d="M5.25 -70.6 L22.7 -75.4 22.65 -73.75 5.2 -68.95 5.25 -70.6" fill="#000000" fill-rule="evenodd" stroke="none"/>
    <path d="M5.25 -70.8 L-15.15 -77.2 -15.1 -78.85 5.3 -72.45 5.25 -70.8" fill="#959595" fill-rule="evenodd" stroke="none"/>
    <path d="M5.25 -72.4 L-15.15 -78.8 2.3 -83.6 22.7 -77.2 5.25 -72.4" fill="#b8b8b8" fill-rule="evenodd" stroke="none"/>
    <path d="M22.75 -77.25 L22.7 -75.6 5.25 -70.8 5.3 -72.45 22.75 -77.25" fill="#dcdcdc" fill-rule="evenodd" stroke="none"/>
    <path d="M53.35 -20.95 L53.45 -20.3 Q53.15 -17.35 50.2 -17.0 47.5 -17.2 46.95 -19.8 L53.35 -20.95 60.1 -22.2 60.15 -21.75 Q59.85 -18.75 56.7 -18.45 54.05 -18.6 53.35 -20.95 M37.3 -14.6 Q34.65 -14.8 34.1 -17.4 L46.9 -19.75 46.9 -19.35 Q46.65 -16.35 43.65 -16.05 41.2 -16.2 40.5 -18.55 L40.55 -17.9 Q40.3 -14.95 37.3 -14.6 M27.65 -16.15 L27.7 -15.55 Q27.45 -12.55 24.45 -12.25 21.75 -12.4 21.25 -15.05 L27.6 -16.25 27.65 -16.25 34.0 -17.4 34.05 -16.95 Q33.8 -13.95 30.8 -13.65 28.3 -13.8 27.65 -16.15 M21.15 -15.05 L21.2 -14.55 Q20.95 -11.6 17.95 -11.25 15.45 -11.4 14.8 -13.75 L14.85 -13.15 Q14.55 -10.15 11.6 -9.85 8.85 -10.05 8.4 -12.7 L21.15 -15.05 M63.6 -19.4 Q60.75 -19.6 60.2 -22.2 L66.95 -23.45 67.05 -22.7 Q66.75 -19.75 63.6 -19.4 M8.35 -12.15 Q8.05 -9.2 5.1 -8.85 2.5 -9.05 1.9 -11.5 L8.3 -12.65 8.35 -12.15" fill="#000000" fill-opacity="0.101960786" fill-rule="evenodd" stroke="none"/>
  </g>
</svg>
