<?xml version="1.0" encoding="UTF-8" standalone="no"?>
<svg xmlns:xlink="http://www.w3.org/1999/xlink" height="66.4px" width="53.35px" xmlns="http://www.w3.org/2000/svg">
  <g transform="matrix(1.0, 0.0, 0.0, 1.0, 31.65, 61.25)">
    <path d="M21.7 -25.9 L20.75 -25.1 12.8 -28.5 12.8 -28.55 Q12.35 -30.15 11.3 -29.3 L11.0 -32.7 8.45 -34.0 9.15 -34.85 8.35 -36.15 9.55 -47.2 9.3 -35.05 11.6 -33.65 11.25 -33.0 11.6 -33.4 11.95 -29.95 21.7 -25.9 M-21.35 -20.45 L-23.35 -19.5 -25.25 -19.9 -22.6 -21.15 -21.35 -20.45 M-25.65 -23.05 L-26.75 -20.25 -28.8 -20.7 -25.0 -31.05 -25.05 -24.65 -25.55 -23.4 -25.65 -23.05 M-26.75 -30.85 L-29.1 -30.05 -31.65 -31.0 -28.1 -32.65 -27.35 -32.15 -26.1 -32.5 -26.75 -30.85 M-27.0 -49.05 L-25.35 -48.7 -24.0 -47.4 -23.55 -45.15 -24.05 -41.9 -25.45 -42.2 -27.0 -49.05 M4.3 -35.15 L6.95 -32.7 6.8 -32.6 5.4 -32.9 4.5 -33.75 4.3 -35.15 M5.05 -29.25 L7.45 -30.1 6.85 -29.4 Q6.6 -29.4 6.5 -29.25 L6.35 -28.9 5.9 -28.75 -1.2 -26.35 -3.2 -32.8 -1.9 -32.25 -0.3 -27.3 4.85 -29.15 4.95 -29.1 5.05 -29.1 5.05 -29.25 M9.15 -26.9 L9.75 -27.95 11.9 -19.4 11.55 -20.05 10.85 -20.25 9.15 -26.9 M3.2 -18.45 L0.9 -19.5 3.6 -18.7 3.2 -18.45 M-18.35 -41.95 L-18.75 -40.85 -22.25 -41.55 -21.2 -44.7 -18.35 -41.95 M-20.95 -30.6 L-22.15 -28.7 -23.1 -32.45 -22.75 -32.4 -20.95 -30.6 M-23.8 -33.15 L-23.9 -32.6 -23.75 -31.85 -24.65 -30.95 -26.0 -32.55 -23.8 -33.15" fill="#d28400" fill-rule="evenodd" stroke="none"/>
    <path d="M-19.55 -19.35 L-21.35 -20.45 -22.6 -21.15 -25.1 -22.7 -25.65 -23.05 -25.55 -23.4 -25.0 -24.2 -22.15 -28.7 -20.95 -30.6 -18.35 -34.65 -17.45 -36.1 -16.1 -35.4 -17.25 -37.1 -15.95 -35.35 -13.8 -34.15 -19.55 -19.35 M-29.35 -37.3 L-29.8 -43.0 -29.0 -42.85 -25.45 -42.2 -24.05 -41.9 -22.25 -41.55 -18.75 -40.85 -16.95 -40.25 -17.25 -37.1 -17.3 -37.15 -29.05 -33.55 -29.35 -37.3 M-25.35 -48.7 L-28.15 -51.55 -22.5 -59.25 -13.65 -43.45 -17.1 -40.75 -18.35 -41.95 -21.2 -44.7 -23.25 -46.65 -24.0 -47.4 -25.35 -48.7 M-13.65 -44.5 L-11.7 -61.25 -2.95 -56.05 -10.7 -42.05 -13.65 -43.95 -13.65 -44.5 M-7.7 -42.25 L0.7 -44.6 2.65 -45.05 4.3 -35.15 4.5 -33.75 4.6 -33.05 5.05 -29.25 5.05 -29.1 4.95 -29.1 4.6 -30.45 -9.75 -36.7 -9.7 -40.85 -9.65 -41.7 -7.7 -42.25 M6.95 -32.7 L8.45 -34.0 11.0 -32.7 11.3 -29.3 9.4 -28.1 6.85 -29.4 7.45 -30.1 6.8 -32.6 6.95 -32.7 M-9.15 -35.7 L-4.95 -29.5 -3.6 -27.5 -0.4 -22.55 -10.9 -18.9 -12.45 -28.65 -13.0 -32.0 -13.25 -33.85 -9.7 -36.25 -9.15 -35.7 M-16.7 -40.2 L-16.1 -40.0 -15.8 -39.9 -15.9 -38.15 -15.85 -39.85 -16.7 -40.2 M-23.1 -32.45 L-23.75 -31.85 -23.9 -32.6 -23.8 -33.15 -23.15 -33.3 -23.2 -32.8 -22.75 -32.4 -23.1 -32.45" fill="#ffff00" fill-rule="evenodd" stroke="none"/>
    <path d="M12.8 -28.5 L18.65 -20.65 17.2 -19.75 15.8 -19.05 12.85 -17.6 11.9 -19.4 9.75 -27.95 9.15 -26.9 7.9 -21.45 6.9 -21.45 3.6 -18.7 0.9 -19.5 5.95 -28.3 6.35 -28.9 6.5 -29.25 Q6.6 -29.4 6.85 -29.4 L9.4 -28.1 11.3 -29.3 Q12.35 -30.15 12.8 -28.55 L12.8 -28.5 M-25.25 -19.9 L-25.1 -22.7 -22.6 -21.15 -25.25 -19.9 M-28.8 -20.7 L-29.55 -23.65 -26.75 -30.85 -26.1 -32.5 -26.1 -32.55 -26.0 -32.55 -24.65 -30.95 -23.75 -31.85 -23.1 -32.45 -22.15 -28.7 -25.0 -24.2 -25.05 -24.65 -25.0 -31.05 -28.8 -20.7 M-31.65 -31.0 L-30.1 -37.55 -29.35 -37.3 -29.05 -33.55 -28.1 -32.65 -31.65 -31.0 M-29.0 -42.85 L-29.25 -43.6 -27.0 -49.05 -25.45 -42.2 -29.0 -42.85 M0.7 -44.6 L2.35 -46.2 8.35 -36.15 9.15 -34.85 8.45 -34.0 6.95 -32.7 4.3 -35.15 2.65 -45.05 0.7 -44.6 M9.55 -47.2 L16.45 -43.4 11.6 -33.65 9.3 -35.05 9.55 -47.2 M11.6 -33.4 L19.15 -35.9 21.7 -25.9 11.95 -29.95 11.6 -33.4 M5.4 -32.9 L6.8 -32.6 7.45 -30.1 5.05 -29.25 4.6 -33.05 5.4 -32.9 M4.85 -29.15 L-0.3 -27.3 -1.9 -32.25 4.85 -29.15 M-9.75 -36.7 L-9.15 -35.7 -9.7 -36.25 -13.25 -33.85 -13.8 -34.15 -15.95 -35.35 -15.9 -38.15 -15.8 -39.9 -12.55 -42.4 -9.7 -40.85 -9.75 -36.7 M-18.35 -34.65 L-20.95 -30.6 -22.75 -32.4 -23.2 -32.8 -23.15 -33.3 -18.35 -34.65 M-23.55 -45.15 L-23.25 -46.65 -21.2 -44.7 -22.25 -41.55 -24.05 -41.9 -23.55 -45.15" fill="#ffad22" fill-rule="evenodd" stroke="none"/>
    <path d="M-15.5 -25.55 L-18.2 -18.8 -19.55 -19.35 -13.8 -34.15 -13.25 -33.85 -13.0 -32.0 -13.75 -30.05 -14.65 -27.75 -15.5 -25.55 M-22.5 -59.25 L-13.65 -44.5 -13.65 -43.95 -10.7 -42.05 -2.95 -56.05 -1.1 -53.65 -7.7 -42.25 -9.65 -41.7 -9.7 -40.85 -12.55 -42.4 -15.8 -39.9 -16.1 -40.0 -17.1 -40.75 -13.65 -43.45 -22.5 -59.25 M4.95 -29.1 L4.85 -29.15 -1.9 -32.25 -3.2 -32.8 -7.1 -34.6 -4.95 -29.5 -9.15 -35.7 -9.75 -36.7 4.6 -30.45 4.95 -29.1 M-16.95 -40.25 L-16.7 -40.2 -15.85 -39.85 -15.9 -38.15 -15.95 -35.35 -17.25 -37.1 -16.95 -40.25 M-10.9 -18.9 L-0.4 -22.55 -1.4 -21.75 -1.85 -21.6 -5.65 -20.1 -6.25 -19.9 -7.75 -19.35 -8.75 -19.05 -10.35 -18.5 -10.9 -18.9 M-17.25 -37.1 L-16.1 -35.4 -17.45 -36.1 -18.35 -34.65 -23.15 -33.3 -23.8 -33.15 -26.0 -32.55 -26.1 -32.55 -26.1 -32.5 -27.35 -32.15 -28.1 -32.65 -29.05 -33.55 -17.3 -37.15 -17.25 -37.1" fill="#b0b000" fill-rule="evenodd" stroke="none"/>
    <path d="M17.2 -19.75 L20.3 -19.05 20.55 -16.85 20.25 -19.0 18.35 -16.0 12.7 -14.85 13.25 -12.85 14.85 -0.75 11.5 -0.4 10.3 -12.6 12.6 -15.85 15.8 -19.05 17.2 -19.75 M18.7 -13.3 L18.65 -13.25 18.6 -14.0 18.7 -13.3 M2.2 -8.55 L2.9 -2.65 Q2.05 -8.75 0.35 -14.65 L1.45 -11.95 1.7 -10.85 2.35 -11.9 6.45 -11.8 5.7 -11.15 1.8 -10.55 2.2 -8.55 M-6.85 -8.9 L-5.55 -0.3 -8.7 0.55 -9.5 -7.55 -6.85 -8.9 M-16.95 -10.25 L-16.75 -10.45 -13.4 -13.45 -10.3 -13.8 -10.6 -15.6 -9.15 -14.0 -4.1 -14.35 Q-8.2 -12.5 -12.5 -11.15 -14.65 -10.45 -16.95 -10.25 M-19.5 -13.55 L-16.35 -15.6 -12.95 -15.75 -19.5 -13.55 M5.9 -28.75 L6.35 -28.9 5.95 -28.3 5.9 -28.75 M-4.95 -29.5 L-7.1 -34.6 -3.6 -27.5 -4.95 -29.5 M9.15 -26.9 L10.85 -20.25 11.55 -20.05 7.35 -15.85 0.25 -15.0 -1.85 -21.6 -1.4 -21.75 0.4 -16.05 3.2 -18.45 3.6 -18.7 6.9 -21.45 7.9 -21.45 9.15 -26.9 M-12.45 -28.65 L-10.9 -18.9 -10.35 -18.5 -8.75 -19.05 -8.6 -18.35 -7.75 -19.35 -6.25 -19.9 -5.55 -19.05 -8.85 -16.0 -10.6 -15.75 -12.8 -25.9 -14.65 -27.75 -13.75 -30.05 -12.45 -28.65" fill="#cfff30" fill-rule="evenodd" stroke="none"/>
    <path d="M20.55 -16.85 L18.7 -13.3 18.6 -14.0 18.65 -13.25 13.25 -12.85 12.7 -14.85 18.35 -16.0 20.25 -19.0 20.55 -16.85 M11.5 -0.4 L9.7 -1.25 Q10.05 -4.2 9.1 -11.4 L5.5 -8.3 2.2 -8.55 1.8 -10.55 5.7 -11.15 6.45 -11.8 2.35 -11.9 1.45 -11.95 0.35 -14.65 Q2.05 -8.75 2.9 -2.65 L3.8 4.85 -1.7 5.15 -3.25 -10.8 -6.85 -8.9 -9.5 -7.55 -8.7 0.55 -11.75 -0.2 -12.0 -6.85 -16.05 -7.65 -16.95 -10.25 Q-14.65 -10.45 -12.5 -11.15 -8.2 -12.5 -4.1 -14.35 L-9.15 -14.0 -10.6 -15.6 -10.3 -13.8 -13.4 -13.45 -16.75 -10.45 -19.5 -13.55 -12.95 -15.75 -14.6 -24.8 -15.5 -25.55 -14.65 -27.75 -12.8 -25.9 -10.6 -15.75 -8.85 -16.0 -5.55 -19.05 -5.65 -20.1 -1.85 -21.6 0.25 -15.0 7.35 -15.85 11.55 -20.05 11.9 -19.4 12.85 -17.6 13.25 -16.85 12.6 -15.85 10.3 -12.6 11.5 -0.4" fill="#9fce00" fill-rule="evenodd" stroke="none"/>
  </g>
</svg>
