<?xml version="1.0" encoding="UTF-8" standalone="no"?>
<svg xmlns:xlink="http://www.w3.org/1999/xlink" height="63.0px" width="54.75px" xmlns="http://www.w3.org/2000/svg">
  <g transform="matrix(1.0, 0.0, 0.0, 1.0, 31.45, 57.85)">
    <path d="M-4.9 -39.8 L1.2 -41.0 6.2 -41.95 7.0 -33.15 7.1 -31.85 7.3 -27.9 7.3 -27.6 7.3 -26.95 7.0 -28.1 -7.45 -34.7 -7.05 -38.7 -6.85 -39.45 -4.9 -39.8 M-19.15 -18.5 L-20.7 -19.5 -21.7 -20.2 -24.85 -22.3 -25.35 -22.65 -25.0 -23.25 -24.7 -23.65 -21.55 -27.45 -20.2 -29.1 -16.6 -33.5 -15.25 -34.55 -14.2 -34.0 -12.0 -32.55 -19.15 -18.5 M-27.95 -36.7 L-27.8 -42.4 -24.1 -41.5 -22.35 -41.0 -20.25 -40.4 -16.75 -39.45 -15.4 -39.05 -15.3 -35.65 -28.0 -33.2 -27.95 -36.7 M-21.0 -46.0 L-24.85 -50.4 -23.15 -52.65 Q-20.95 -55.45 -17.85 -57.15 L-10.7 -42.4 -6.95 -57.85 1.5 -52.35 -7.95 -39.8 -10.8 -41.85 -10.15 -40.75 -10.9 -41.4 -14.75 -39.05 -16.15 -40.65 -18.8 -43.6 -21.0 -46.0 M-22.85 -32.45 L-22.05 -32.55 -22.35 -31.35 -22.0 -30.95 -22.25 -30.95 -23.0 -30.5 -23.25 -30.95 -22.85 -32.45 M8.4 -31.45 L8.6 -31.55 10.15 -32.6 12.7 -31.2 12.7 -27.95 10.7 -26.75 8.15 -28.4 8.75 -29.55 8.4 -31.45 M-10.9 -26.9 L-11.25 -30.6 -11.4 -32.2 -7.5 -34.25 -7.0 -33.8 -6.75 -33.55 -2.25 -26.35 1.15 -20.9 -10.05 -17.7 -10.9 -26.9" fill="#ffff00" fill-rule="evenodd" stroke="none"/>
    <path d="M10.3 -34.8 L12.55 -44.85 11.2 -33.6 13.45 -32.15 12.95 -31.45 13.45 -31.9 13.25 -28.65 12.7 -27.95 12.7 -31.2 10.15 -32.6 11.05 -33.25 10.3 -34.8 M23.3 -24.4 Q22.2 -23.45 22.2 -23.65 L14.35 -27.15 14.25 -28.15 23.3 -24.4 M-20.7 -19.5 L-23.35 -18.65 -25.15 -19.0 -21.7 -20.2 -20.7 -19.5 M-25.35 -22.65 L-26.75 -19.6 -28.95 -20.15 -24.35 -29.85 -25.4 -31.5 -26.05 -30.3 -28.8 -29.75 -31.45 -30.75 -26.75 -31.95 -22.85 -32.45 -23.25 -30.95 -23.0 -30.5 -24.05 -29.55 -24.7 -23.95 -25.0 -23.25 -25.35 -22.65 M-24.9 -47.7 L-22.2 -47.0 -21.7 -43.45 -22.35 -41.0 -24.1 -41.5 -24.9 -47.7 M8.6 -31.55 L8.4 -31.45 7.1 -31.85 7.0 -33.15 8.6 -31.55 M-0.3 -30.5 L0.55 -27.05 4.8 -28.1 5.85 -27.6 -0.65 -26.45 -1.65 -31.1 -0.3 -30.5 M10.35 -25.8 L10.7 -26.75 12.7 -18.8 11.75 -19.05 10.35 -25.8 M-16.15 -40.65 L-16.75 -39.45 -20.25 -40.4 -18.8 -43.6 -16.15 -40.65 M-20.2 -29.1 L-21.55 -27.45 -22.25 -30.95 -22.0 -30.95 -20.2 -29.1" fill="#d28400" fill-rule="evenodd" stroke="none"/>
    <path d="M1.2 -41.0 L5.45 -44.55 10.3 -34.8 11.05 -33.25 10.15 -32.6 8.6 -31.55 7.0 -33.15 6.2 -41.95 1.2 -41.0 M12.55 -44.85 L19.2 -40.8 13.45 -32.15 11.2 -33.6 12.55 -44.85 M13.45 -31.9 L21.3 -33.8 23.3 -24.4 14.25 -28.15 14.35 -27.15 19.8 -19.45 18.35 -18.8 16.1 -17.8 14.0 -16.95 13.15 -18.6 12.7 -18.8 10.7 -26.75 12.7 -27.95 13.25 -28.65 13.45 -31.9 M-25.15 -19.0 L-24.85 -22.3 -21.7 -20.2 -25.15 -19.0 M-28.95 -20.15 L-29.6 -23.4 -26.05 -30.3 -25.4 -31.5 -24.35 -29.85 -28.95 -20.15 M-31.45 -30.75 L-29.3 -37.25 -27.95 -36.7 -28.0 -33.2 -26.75 -31.95 -31.45 -30.75 M-27.8 -42.4 L-27.85 -42.9 -24.9 -47.7 -24.1 -41.5 -27.8 -42.4 M-21.7 -43.45 L-21.0 -46.0 -18.8 -43.6 -20.25 -40.4 -22.35 -41.0 -21.7 -43.45 M-22.05 -32.55 L-16.6 -33.5 -20.2 -29.1 -22.0 -30.95 -22.35 -31.35 -22.05 -32.55 M-14.2 -34.0 L-13.55 -38.25 -9.9 -40.4 -7.05 -38.7 -7.45 -34.7 -7.0 -33.8 -7.5 -34.25 -11.4 -32.2 -12.0 -32.55 -14.2 -34.0 M8.4 -31.45 L8.75 -29.55 8.15 -28.4 10.7 -26.75 10.35 -25.8 8.45 -20.05 4.7 -17.5 1.15 -19.25 6.95 -27.1 7.3 -26.95 7.3 -27.6 7.55 -27.95 7.3 -27.9 7.1 -31.85 8.4 -31.45 M4.8 -28.1 L0.55 -27.05 -0.3 -30.5 4.8 -28.1 M-21.55 -27.45 L-24.7 -23.65 -24.7 -23.95 -24.05 -29.55 -23.0 -30.5 -22.25 -30.95 -21.55 -27.45" fill="#ffad22" fill-rule="evenodd" stroke="none"/>
    <path d="M1.5 -52.35 L3.15 -50.1 -4.9 -39.8 -6.85 -39.45 -7.05 -38.7 -9.9 -40.4 -13.55 -38.25 -14.2 -34.0 -15.25 -34.55 -16.6 -33.5 -22.05 -32.55 -22.85 -32.45 -26.75 -31.95 -28.0 -33.2 -15.3 -35.65 -15.4 -39.05 -13.8 -38.4 -14.75 -39.05 -10.9 -41.4 -10.15 -40.75 -10.8 -41.85 -7.95 -39.8 1.5 -52.35 M-14.5 -24.35 L-17.75 -18.15 Q-17.5 -17.75 -19.15 -18.5 L-12.0 -32.55 -11.4 -32.2 -11.25 -30.6 -12.35 -28.45 -13.5 -26.25 -14.5 -24.35 M-0.3 -30.5 L-1.65 -31.1 -5.0 -32.7 -6.75 -33.55 -7.0 -33.8 -7.45 -34.7 7.0 -28.1 7.3 -26.95 6.95 -27.1 5.85 -27.6 4.8 -28.1 -0.3 -30.5 M-0.1 -20.15 L-0.55 -20.0 -4.65 -18.7 -5.15 -18.6 -7.1 -18.05 -7.9 -17.8 -9.4 -17.35 -10.05 -17.7 1.15 -20.9 -0.1 -20.15" fill="#b0b000" fill-rule="evenodd" stroke="none"/>
    <path d="M18.35 -18.8 L21.2 -18.1 19.15 -15.25 13.6 -14.35 14.65 -15.6 14.35 -16.3 16.1 -17.8 18.35 -18.8 M13.55 -12.4 Q15.1 -2.9 14.9 -0.8 L11.45 -0.4 10.7 -11.0 13.2 -13.9 13.55 -12.4 M2.65 -8.15 L3.8 4.75 1.1 -13.8 -0.55 -20.0 -0.1 -20.15 1.25 -15.1 4.7 -17.5 8.45 -20.05 10.35 -25.8 11.75 -19.05 12.7 -18.8 13.15 -18.6 8.6 -14.75 1.1 -13.8 2.1 -11.25 6.1 -11.05 5.65 -10.7 2.3 -10.35 2.65 -8.15 M-6.4 -8.5 L-5.55 -0.3 -8.7 0.55 -9.2 -7.2 -6.4 -8.5 M-17.1 -9.85 L-16.7 -10.2 -13.2 -12.95 -9.8 -13.25 -10.05 -14.85 -8.65 -13.35 -3.65 -13.55 -17.1 -9.85 M-19.4 -13.25 L-16.2 -15.2 -12.45 -15.15 -19.4 -13.25 M7.3 -27.9 L7.55 -27.95 7.3 -27.6 7.3 -27.9 M-12.35 -28.45 L-10.9 -26.9 -10.05 -17.7 -9.4 -17.35 -7.9 -17.8 -7.8 -17.35 -7.1 -18.05 -5.15 -18.6 -4.4 -17.8 -8.1 -15.0 -10.05 -14.9 -11.8 -24.7 -13.5 -26.25 -12.35 -28.45 M-2.25 -26.35 L-6.75 -33.55 -5.0 -32.7 -2.25 -26.35" fill="#cfff30" fill-rule="evenodd" stroke="none"/>
    <path d="M21.2 -18.1 L21.3 -16.1 19.1 -12.65 13.55 -12.4 13.2 -13.9 10.7 -11.0 11.45 -0.4 9.65 -1.65 9.15 -10.95 5.45 -8.0 2.65 -8.15 2.3 -10.35 5.65 -10.7 6.1 -11.05 2.1 -11.25 1.1 -13.8 8.6 -14.75 13.15 -18.6 14.0 -16.95 14.35 -16.3 14.65 -15.6 13.6 -14.35 19.15 -15.25 21.2 -18.1 M3.8 4.75 L-1.7 5.15 -2.85 -10.2 -6.4 -8.5 -9.2 -7.2 -8.7 0.55 -11.7 -0.25 -11.8 -6.35 -16.3 -7.3 -17.1 -9.85 -3.65 -13.55 -8.65 -13.35 -10.05 -14.85 -9.8 -13.25 -13.2 -12.95 -16.7 -10.2 -19.4 -13.25 -12.45 -15.15 -13.75 -23.75 -14.5 -24.35 -13.5 -26.25 -11.8 -24.7 -10.05 -14.9 -8.1 -15.0 -4.4 -17.8 -4.65 -18.7 -0.55 -20.0 1.1 -13.8 3.8 4.75" fill="#9fce00" fill-rule="evenodd" stroke="none"/>
  </g>
</svg>
