<?xml version="1.0" encoding="UTF-8" standalone="no"?>
<svg xmlns:xlink="http://www.w3.org/1999/xlink" height="60.1px" width="56.05px" xmlns="http://www.w3.org/2000/svg">
  <g transform="matrix(1.0, 0.0, 0.0, 1.0, 31.1, 54.95)">
    <path d="M4.0 -38.05 L3.15 -39.1 2.4 -38.65 8.55 -43.0 12.35 -33.5 12.95 -32.05 11.9 -31.3 10.15 -30.4 10.35 -28.15 9.75 -27.65 9.85 -38.65 4.0 -38.05 M15.6 -42.4 L21.95 -38.25 15.3 -30.65 13.2 -32.15 15.6 -42.4 M15.3 -30.4 L23.5 -31.65 24.95 -22.9 15.8 -26.85 15.85 -25.85 20.9 -18.35 19.45 -17.8 16.5 -16.75 15.15 -16.3 14.7 -17.15 13.65 -17.5 12.25 -25.75 14.15 -26.75 14.75 -27.45 15.3 -30.4 M-25.1 -18.15 L-24.45 -22.0 -20.65 -19.2 -25.1 -18.15 M-29.05 -19.7 L-29.6 -23.25 -25.2 -29.8 -24.7 -30.5 -23.7 -28.7 -29.05 -19.7 M-31.1 -30.6 L-28.35 -37.0 -26.3 -36.2 -26.8 -33.1 -25.15 -31.7 -25.35 -31.1 -31.1 -30.6 M-25.75 -39.9 L-26.25 -42.25 -22.7 -46.25 -22.45 -41.15 -25.3 -42.2 -25.75 -39.9 M-19.8 -41.4 L-18.15 -45.45 -17.1 -43.95 -16.25 -41.6 -17.7 -39.35 -20.2 -40.3 -19.8 -41.4 M1.3 -28.8 L4.25 -27.3 1.55 -27.0 1.3 -28.8 M7.6 -25.65 L9.55 -24.85 9.75 -27.4 12.05 -25.7 11.6 -24.8 8.6 -17.9 6.8 -16.85 2.7 -18.95 2.85 -19.05 2.7 -19.25 2.3 -20.0 7.6 -25.65 M-5.1 -32.75 L-4.75 -31.95 -5.15 -32.35 -9.45 -30.7 -10.0 -31.05 -12.25 -32.6 -11.2 -36.75 -7.1 -38.45 -4.2 -36.55 -5.1 -32.75 M-20.7 -32.0 L-14.65 -32.45 -24.25 -23.35 -23.35 -28.65 -22.0 -29.2 -21.15 -29.5 -20.7 -32.0" fill="#ffad22" fill-rule="evenodd" stroke="none"/>
    <path d="M2.75 -37.95 L4.0 -38.05 9.85 -38.65 9.75 -27.65 10.35 -28.15 10.15 -30.4 11.9 -31.3 14.45 -29.55 14.15 -26.75 12.25 -25.75 12.05 -25.7 9.75 -27.4 9.55 -24.85 9.45 -25.7 Q2.15 -29.25 -5.1 -32.75 L-4.2 -36.55 -3.9 -37.25 -2.05 -37.45 2.75 -37.95 M-18.8 -17.85 L-19.8 -18.6 -20.65 -19.2 -24.45 -22.0 -24.9 -22.35 -24.25 -23.35 -14.65 -32.45 -13.4 -33.3 -12.25 -32.6 -10.0 -31.05 -18.8 -17.85 M-26.3 -36.2 L-25.75 -39.9 -25.3 -42.2 -22.45 -41.15 -20.2 -40.3 -17.7 -39.35 -14.3 -38.05 -12.9 -37.5 -13.2 -34.25 -26.8 -33.1 -26.3 -36.2 M-18.15 -45.45 L-21.1 -49.45 Q-16.95 -53.65 -12.9 -54.95 L-7.95 -39.35 -12.2 -37.5 -13.55 -39.2 -17.1 -43.95 -18.15 -45.45 M-7.65 -40.3 L-1.95 -54.45 6.05 -48.55 -5.0 -37.6 -7.65 -40.3 M-4.75 -31.95 L-4.55 -31.7 -0.9 -25.5 2.3 -20.0 2.7 -19.25 -9.3 -16.6 -9.45 -25.35 -9.5 -29.2 -9.45 -30.7 -5.15 -32.35 -4.75 -31.95 M-21.75 -31.95 L-20.7 -32.0 -21.15 -29.5 -22.0 -29.2 -22.45 -29.95 -21.75 -31.95" fill="#ffff00" fill-rule="evenodd" stroke="none"/>
    <path d="M2.75 -37.95 L2.4 -38.65 3.15 -39.1 4.0 -38.05 2.75 -37.95 M12.35 -33.5 L15.6 -42.4 13.2 -32.15 15.3 -30.65 14.7 -30.0 15.3 -30.4 14.75 -27.45 14.15 -26.75 14.45 -29.55 11.9 -31.3 12.95 -32.05 12.35 -33.5 M24.95 -22.9 L23.8 -22.2 Q19.8 -24.0 15.85 -25.85 L15.8 -26.85 24.95 -22.9 M-19.8 -18.6 L-25.1 -18.15 -20.65 -19.2 -19.8 -18.6 M-24.9 -22.35 L-26.8 -19.2 Q-29.2 -19.6 -29.05 -19.7 L-23.7 -28.7 -24.7 -30.5 -25.2 -29.8 -28.4 -29.65 -31.1 -30.6 -25.35 -31.1 -25.15 -31.7 -21.75 -31.95 -22.45 -29.95 -22.0 -29.2 -23.35 -28.65 -24.25 -23.35 -24.9 -22.35 M-22.7 -46.25 L-19.95 -45.45 -19.8 -41.4 -20.2 -40.3 -22.45 -41.15 -22.7 -46.25 M4.25 -27.3 L5.5 -26.7 0.35 -26.05 -0.1 -29.5 1.3 -28.8 1.55 -27.0 4.25 -27.3 M12.05 -25.7 L12.25 -25.75 13.65 -17.5 12.65 -17.8 12.5 -18.25 11.9 -22.75 11.6 -24.8 12.05 -25.7 M2.0 -18.75 L2.7 -18.95 6.8 -16.85 6.25 -16.55 2.0 -18.75 M-17.7 -39.35 L-16.25 -41.6 -17.1 -43.95 -13.55 -39.2 -14.3 -38.05 -17.7 -39.35" fill="#d28400" fill-rule="evenodd" stroke="none"/>
    <path d="M-13.5 -23.3 L-17.55 -17.35 -18.8 -17.85 -10.0 -31.05 -9.45 -30.7 -9.5 -29.2 -11.0 -27.0 -12.4 -24.9 -13.5 -23.3 M-12.9 -54.95 L-11.8 -53.55 -7.65 -40.3 -5.0 -37.6 6.05 -48.55 7.4 -46.45 -2.05 -37.45 -3.9 -37.25 -4.2 -36.55 -7.1 -38.45 -11.2 -36.75 -12.25 -32.6 -13.4 -33.3 -14.65 -32.45 -20.7 -32.0 -21.75 -31.95 -25.15 -31.7 -26.8 -33.1 -13.2 -34.25 -12.9 -37.5 -11.4 -36.85 -12.2 -37.5 -7.95 -39.35 -12.9 -54.95 M4.25 -27.3 L1.3 -28.8 -0.1 -29.5 -2.9 -30.9 -4.55 -31.7 -4.75 -31.95 -5.1 -32.75 Q2.15 -29.25 9.45 -25.7 L9.55 -24.85 7.6 -25.65 5.5 -26.7 4.25 -27.3 M2.7 -19.25 L2.85 -19.05 2.7 -18.95 2.0 -18.75 1.1 -18.5 0.7 -18.45 -3.7 -17.4 -4.05 -17.3 -6.25 -16.85 -7.05 -16.65 -8.65 -16.3 -9.3 -16.6 2.7 -19.25" fill="#b0b000" fill-rule="evenodd" stroke="none"/>
    <path d="M19.45 -17.8 L22.1 -17.2 19.8 -14.55 15.6 -13.95 16.05 -14.45 15.3 -15.9 16.5 -16.75 19.45 -17.8 M13.85 -11.9 L14.85 -0.8 11.5 -0.35 10.9 -10.05 11.5 -10.05 13.85 -11.9 M9.3 -10.15 L9.3 -10.2 9.35 -10.15 9.3 -10.15 M3.1 -7.9 L3.85 4.75 1.9 -12.9 0.7 -18.45 1.1 -18.5 2.05 -14.1 6.25 -16.55 6.8 -16.85 8.6 -17.9 11.6 -24.8 11.9 -22.75 11.55 -21.9 12.5 -18.25 12.65 -17.8 13.65 -17.5 14.7 -17.15 9.75 -13.55 1.9 -12.9 2.55 -10.6 5.5 -10.4 2.75 -10.15 3.1 -7.9 M-5.95 -8.15 L-5.55 -0.35 -8.7 0.55 -8.85 -6.9 -5.95 -8.15 M-17.3 -9.55 L-16.75 -10.0 -13.1 -12.55 -9.3 -12.75 -9.45 -14.05 -10.8 -23.5 -12.4 -24.9 -11.0 -27.0 -9.45 -25.35 -9.3 -16.6 -8.65 -16.3 -7.05 -16.65 -7.0 -16.3 -6.25 -16.85 -4.05 -17.3 -3.6 -16.85 -3.5 -16.35 -7.35 -13.95 -9.45 -14.05 -8.25 -12.8 -2.95 -12.85 Q-7.55 -11.25 -12.3 -10.15 L-17.3 -9.55 M-19.35 -13.05 L-15.9 -14.9 -12.0 -14.6 -19.35 -13.05 M-4.55 -31.7 L-2.9 -30.9 -0.9 -25.5 -4.55 -31.7" fill="#cfff30" fill-rule="evenodd" stroke="none"/>
    <path d="M22.1 -17.2 L22.0 -15.35 19.65 -12.15 13.85 -11.9 11.5 -10.05 10.9 -10.05 11.5 -0.35 9.6 -1.25 Q9.75 -4.35 9.3 -10.15 L9.35 -10.15 9.3 -10.2 8.7 -10.2 5.25 -7.7 3.1 -7.9 2.75 -10.15 5.5 -10.4 2.55 -10.6 1.9 -12.9 9.75 -13.55 14.7 -17.15 15.15 -16.3 15.3 -15.9 16.05 -14.45 15.6 -13.95 19.8 -14.55 22.1 -17.2 M3.85 4.75 L-1.7 5.15 -2.45 -9.65 -5.95 -8.15 -8.85 -6.9 -8.7 0.55 -11.65 -0.2 -11.6 -6.0 -16.55 -7.1 -17.3 -9.55 -12.3 -10.15 Q-7.55 -11.25 -2.95 -12.85 L-8.25 -12.8 -9.45 -14.05 -7.35 -13.95 -3.5 -16.35 -3.6 -16.85 -3.7 -17.4 0.7 -18.45 1.9 -12.9 3.85 4.75 M-16.75 -10.0 L-19.35 -13.05 -12.0 -14.6 -12.95 -22.85 -13.5 -23.3 -12.4 -24.9 -10.8 -23.5 -9.45 -14.05 -9.3 -12.75 -13.1 -12.55 -16.75 -10.0" fill="#9fce00" fill-rule="evenodd" stroke="none"/>
  </g>
</svg>
