<?xml version="1.0" encoding="UTF-8" standalone="no"?>
<svg xmlns:xlink="http://www.w3.org/1999/xlink" height="57.8px" width="57.0px" xmlns="http://www.w3.org/2000/svg">
  <g transform="matrix(1.0, 0.0, 0.0, 1.0, 30.5, 52.65)">
    <path d="M-18.4 -17.5 L-18.55 -17.6 -23.95 -22.2 -24.2 -22.4 -24.65 -22.9 -23.55 -23.65 -20.15 -26.05 -19.15 -26.75 -12.9 -31.15 -12.3 -31.6 -11.3 -32.3 -10.05 -31.5 -7.65 -29.6 -18.4 -17.5 M-24.2 -35.95 L-23.65 -37.6 -21.95 -42.35 -20.15 -41.45 -17.7 -40.2 -17.6 -40.15 -17.1 -39.9 -10.8 -36.6 -9.9 -36.15 -10.7 -33.0 -25.0 -33.5 -24.2 -35.95 M-13.0 -42.65 L-16.35 -48.7 Q-11.05 -52.1 -7.1 -52.65 L-4.55 -37.4 -9.25 -36.05 -10.7 -38.6 -13.0 -42.65 M-4.2 -38.15 L3.75 -50.7 11.25 -44.4 -1.8 -35.4 -4.2 -38.15 M8.6 -35.05 L13.75 -35.1 13.15 -29.85 13.8 -30.05 16.3 -28.3 15.75 -25.55 13.9 -24.85 13.45 -24.8 12.55 -25.8 12.0 -22.65 12.05 -23.15 -2.55 -30.85 -1.1 -34.4 -0.9 -34.85 1.1 -35.0 7.1 -35.05 8.6 -35.05 M11.95 -22.3 L11.95 -22.35 12.0 -22.5 12.05 -22.45 11.95 -22.35 11.95 -22.3 M-2.25 -30.1 L-2.15 -29.9 0.45 -24.95 2.9 -20.2 3.6 -18.85 4.1 -17.9 2.2 -16.95 1.85 -16.85 -2.9 -16.15 -3.15 -16.1 -5.15 -15.85 -6.25 -15.65 -7.95 -15.4 -8.55 -15.65 -7.8 -23.7 -7.45 -28.05 -7.3 -29.3 -2.6 -30.5 -2.25 -30.1 M-20.25 -31.7 L-19.0 -31.3 -20.2 -28.0 -20.4 -28.0 -21.0 -27.85 -21.55 -29.0 -20.25 -31.7 M-7.6 -29.55 L-7.55 -29.55 -7.5 -29.45 -7.6 -29.55" fill="#ffff00" fill-rule="evenodd" stroke="none"/>
    <path d="M8.3 -39.9 L12.15 -41.35 14.75 -32.1 15.15 -30.7 13.8 -30.05 13.15 -29.85 13.75 -35.1 8.6 -35.05 6.3 -38.5 8.3 -39.9 M18.95 -39.75 L24.9 -35.4 17.45 -29.2 15.4 -30.85 18.95 -39.75 M17.3 -28.9 L25.85 -29.3 26.5 -21.2 16.8 -26.05 17.3 -28.9 M17.55 -24.55 L22.1 -17.2 20.25 -16.75 17.05 -15.85 15.95 -15.6 14.55 -16.05 13.9 -24.85 15.75 -25.55 17.05 -25.25 17.55 -24.55 M-12.85 -21.85 L-13.15 -21.1 -13.5 -21.15 -12.85 -21.85 M-18.55 -17.6 L-25.1 -17.75 -23.95 -22.2 -18.55 -17.6 M-29.25 -19.4 L-29.55 -23.55 -24.1 -29.4 -22.9 -27.6 -29.25 -19.4 M-30.5 -30.85 L-27.0 -37.05 -24.2 -35.95 -25.0 -33.5 -23.65 -32.05 -24.45 -30.15 -30.5 -30.85 M-23.65 -37.6 L-24.25 -41.65 Q-21.7 -44.3 -19.95 -44.7 L-20.15 -41.45 -21.95 -42.35 -23.65 -37.6 M-17.6 -40.2 L-17.6 -40.15 -17.7 -40.2 -17.6 -40.2 M-17.1 -39.9 L-15.05 -43.35 -13.8 -38.4 -10.4 -37.05 -10.8 -36.6 -17.1 -39.9 M8.0 -24.35 L11.95 -22.3 9.8 -18.6 8.7 -16.6 8.65 -16.55 8.35 -16.1 3.6 -18.85 2.9 -20.2 8.0 -24.35 M12.0 -22.5 L12.0 -22.65 12.55 -25.8 13.45 -24.8 12.95 -23.9 12.05 -22.45 12.0 -22.5 M-2.55 -30.85 L-2.25 -30.1 -2.6 -30.5 -7.3 -29.3 -7.5 -29.45 -7.55 -29.55 -7.6 -29.55 -7.65 -29.6 -10.05 -31.5 -8.35 -35.3 -3.95 -36.55 -1.1 -34.4 -2.55 -30.85 M-12.9 -31.15 L-19.15 -26.75 -20.2 -28.0 -19.0 -31.3 -20.25 -31.7 -20.6 -31.95 -15.8 -31.7 -16.15 -31.3 -14.9 -31.2 -12.9 -31.15 M-20.15 -26.05 L-23.55 -23.65 Q-23.55 -25.4 -22.8 -26.65 -22.05 -27.9 -21.0 -27.85 L-20.4 -28.0 -20.15 -26.05" fill="#ffad22" fill-rule="evenodd" stroke="none"/>
    <path d="M11.25 -44.4 L12.25 -42.5 8.3 -39.9 6.3 -38.5 5.25 -37.8 1.1 -35.0 -0.9 -34.85 -1.1 -34.4 -3.95 -36.55 -8.35 -35.3 -10.05 -31.5 -11.3 -32.3 -12.3 -31.6 -15.8 -31.7 -20.6 -31.95 -23.65 -32.05 -25.0 -33.5 -10.7 -33.0 -9.9 -36.15 -8.6 -35.5 -9.25 -36.05 -4.55 -37.4 -7.1 -52.65 -6.35 -51.3 -4.2 -38.15 -1.8 -35.4 11.25 -44.4 M-12.5 -22.25 L-12.85 -21.85 -13.5 -21.15 -17.1 -17.0 -18.4 -17.5 -7.65 -29.6 -7.6 -29.55 -7.5 -29.45 -7.3 -29.3 -7.45 -28.05 -9.6 -25.6 -11.25 -23.65 -12.5 -22.25 M4.3 -26.4 Q2.85 -27.2 1.45 -27.95 L-0.65 -29.1 -2.15 -29.9 -2.25 -30.1 -2.55 -30.85 12.05 -23.15 12.0 -22.65 12.0 -22.5 11.95 -22.35 11.95 -22.3 8.0 -24.35 4.3 -26.4" fill="#b0b000" fill-rule="evenodd" stroke="none"/>
    <path d="M14.75 -32.1 L18.95 -39.75 15.4 -30.85 17.45 -29.2 16.7 -28.55 17.3 -28.9 16.8 -26.05 26.5 -21.2 25.2 -20.7 17.55 -24.55 17.05 -25.25 15.75 -25.55 16.3 -28.3 13.8 -30.05 15.15 -30.7 14.75 -32.1 M-24.2 -22.4 L-26.95 -18.9 -29.25 -19.4 -22.9 -27.6 -24.1 -29.4 -30.5 -30.85 -24.45 -30.15 -23.65 -32.05 -20.6 -31.95 -20.25 -31.7 -21.55 -29.0 -21.0 -27.85 Q-22.05 -27.9 -22.8 -26.65 -23.55 -25.4 -23.55 -23.65 L-24.65 -22.9 -24.2 -22.4 M-19.95 -44.7 L-17.35 -43.95 -17.6 -40.2 -17.7 -40.2 -20.15 -41.45 -19.95 -44.7 M-15.05 -43.35 L-13.0 -42.65 -10.7 -38.6 -10.4 -37.05 -13.8 -38.4 -15.05 -43.35 M5.25 -37.8 L6.3 -38.5 8.6 -35.05 7.1 -35.05 5.25 -37.8 M1.45 -27.95 Q2.85 -27.2 4.3 -26.4 L1.45 -26.45 1.45 -27.95 M13.45 -24.8 L13.9 -24.85 14.55 -16.05 13.5 -16.4 13.05 -22.1 12.95 -23.9 13.45 -24.8 M4.1 -17.9 L3.6 -18.85 8.35 -16.1 7.75 -15.75 4.1 -17.9 M-19.15 -26.75 L-20.15 -26.05 -20.4 -28.0 -20.2 -28.0 -19.15 -26.75" fill="#d28400" fill-rule="evenodd" stroke="none"/>
    <path d="M20.25 -16.75 L22.95 -16.1 20.4 -13.6 17.2 -13.4 16.35 -15.45 17.05 -15.85 20.25 -16.75 M14.2 -10.45 Q14.95 -3.4 14.9 -0.8 L11.4 -0.35 11.0 -9.2 12.35 -9.05 14.2 -10.45 M3.4 -7.7 L3.8 5.05 2.6 -11.95 3.4 -7.7 M-5.6 -7.85 Q-5.35 -4.9 -5.55 -0.35 L-8.7 0.5 -8.65 -6.75 -5.6 -7.85 M-17.6 -9.55 L-16.9 -10.05 -13.05 -12.35 -8.85 -12.4 -9.85 -22.35 -11.25 -23.65 -9.6 -25.6 -7.8 -23.7 -8.55 -15.65 -7.95 -15.4 -6.25 -15.65 -6.2 -15.25 -5.15 -15.85 -3.15 -16.1 -2.85 -15.8 -2.7 -14.75 -6.65 -12.85 -8.85 -13.35 -7.95 -12.4 -2.4 -12.25 Q-7.35 -10.8 -12.35 -9.95 L-17.6 -9.55 M-19.4 -13.05 L-15.7 -14.75 -11.6 -14.1 -18.1 -12.55 -19.4 -13.05 M-2.15 -29.9 L-0.65 -29.1 0.45 -24.95 -2.15 -29.9 M12.95 -23.9 L13.05 -22.1 12.4 -21.0 13.5 -16.4 14.55 -16.05 15.95 -15.6 16.3 -15.45 Q10.25 -10.2 2.45 -12.2 L1.85 -16.85 2.2 -16.95 2.75 -13.15 8.75 -15.95 10.15 -16.6 9.8 -18.6 11.95 -22.3 11.95 -22.35 12.05 -22.45 12.95 -23.9 M8.65 -16.55 L8.7 -16.6 8.7 -16.55 8.65 -16.55 M-15.8 -31.7 L-14.9 -31.2 -16.15 -31.3 -15.8 -31.7" fill="#cfff30" fill-rule="evenodd" stroke="none"/>
    <path d="M22.95 -16.1 L22.7 -14.45 20.05 -11.5 15.45 -11.45 14.2 -10.45 12.35 -9.05 11.0 -9.2 11.4 -0.35 9.55 -1.25 9.3 -9.35 8.0 -9.45 5.05 -7.55 3.4 -7.7 2.6 -11.95 3.8 5.05 -1.7 5.15 -2.15 -9.2 -5.6 -7.85 -8.65 -6.75 -8.7 0.5 -11.65 -0.15 -11.5 -5.7 -17.0 -7.1 -17.6 -9.55 -12.35 -9.95 Q-7.35 -10.8 -2.4 -12.25 L-7.95 -12.4 -8.85 -13.35 -6.65 -12.85 -2.7 -14.75 -2.85 -15.8 -2.9 -16.15 1.85 -16.85 2.45 -12.2 Q10.25 -10.2 16.3 -15.45 L16.35 -15.45 17.2 -13.4 20.4 -13.6 22.95 -16.1 M-16.9 -10.05 L-19.4 -13.05 -18.1 -12.55 -11.6 -14.1 -12.5 -22.25 -11.25 -23.65 -9.85 -22.35 -8.85 -12.4 -13.05 -12.35 -16.9 -10.05 M9.8 -18.6 L10.15 -16.6 8.75 -15.95 8.7 -16.55 8.7 -16.6 9.8 -18.6" fill="#9fce00" fill-rule="evenodd" stroke="none"/>
  </g>
</svg>
