<?xml version="1.0" encoding="UTF-8" standalone="no"?>
<svg xmlns:xlink="http://www.w3.org/1999/xlink" height="59.45px" width="59.4px" xmlns="http://www.w3.org/2000/svg">
  <g transform="matrix(1.0, 0.0, 0.0, 1.0, 25.25, 54.25)">
    <path d="M24.05 -42.25 Q27.3 -41.05 28.95 -39.05 L27.9 -36.85 27.35 -40.4 23.7 -39.65 24.05 -42.25 M28.5 -31.95 L32.2 -33.1 34.15 -27.7 26.0 -28.45 25.05 -30.75 23.85 -31.3 25.25 -31.1 25.15 -30.95 25.65 -31.05 27.8 -30.85 28.5 -31.95 M26.65 -27.3 L31.85 -23.3 29.75 -17.95 24.85 -25.15 25.1 -25.55 24.0 -26.3 25.8 -27.95 Q26.2 -27.65 26.65 -27.3 M24.2 -23.4 L24.85 -16.6 18.7 -17.9 24.05 -24.15 24.2 -23.4 M17.6 -17.6 L16.9 -17.8 17.15 -18.35 17.6 -17.6 M-17.15 -17.15 Q-18.9 -17.9 -21.9 -19.7 L-17.45 -26.9 -16.1 -29.0 -13.95 -27.6 -13.55 -28.0 -11.1 -29.55 -9.9 -25.55 -9.45 -24.4 -7.25 -25.4 -4.75 -22.9 -11.3 -17.1 -12.9 -23.65 -13.95 -27.6 -16.1 -16.65 -17.15 -17.15 M-25.25 -24.7 L-24.15 -31.8 -16.4 -32.8 -16.35 -29.4 -25.25 -24.7 M-16.55 -32.95 L-21.45 -40.5 -14.55 -45.75 -14.65 -34.7 -16.55 -32.95 M-12.2 -39.65 L-9.5 -46.4 -9.05 -46.25 Q-5.2 -45.1 -2.5 -42.05 L-4.6 -42.7 -9.9 -35.5 -12.3 -35.2 -10.9 -29.55 -12.2 -30.1 -11.85 -32.8 -12.55 -33.15 -14.15 -34.3 -12.2 -39.65 M19.25 -41.95 L20.35 -38.9 16.35 -38.05 19.25 -41.95 M20.55 -31.6 L22.05 -31.4 21.75 -30.95 21.45 -30.6 20.55 -31.6 M20.35 -30.2 L20.95 -28.35 18.3 -30.15 18.6 -30.2 20.35 -30.2 M13.0 -32.6 L10.15 -30.75 9.9 -30.45 5.35 -31.8 5.3 -32.6 4.55 -35.95 8.0 -38.15 12.05 -36.45 13.0 -32.6 M-2.8 -27.55 L-2.4 -27.75 -1.25 -27.25 -2.8 -27.55 M9.8 -26.65 L9.75 -26.65 9.75 -26.7 9.8 -26.65 M10.3 -28.7 L14.3 -22.6 12.85 -21.65 13.45 -22.1 10.3 -28.7 M-14.45 -28.6 L-14.45 -28.55 -14.6 -28.6 -14.45 -28.6" fill="#ffad22" fill-rule="evenodd" stroke="none"/>
    <path d="M34.15 -27.7 L32.25 -26.9 26.65 -27.3 Q26.2 -27.65 25.8 -27.95 L24.0 -26.3 23.4 -26.7 24.25 -27.55 23.2 -30.25 21.75 -30.95 22.05 -31.4 23.85 -31.3 25.05 -30.75 26.0 -28.45 34.15 -27.7 M29.75 -17.95 L28.25 -17.6 24.2 -23.4 24.05 -24.15 24.85 -25.15 29.75 -17.95 M24.85 -16.6 L18.15 -17.5 18.5 -17.75 18.7 -17.9 24.85 -16.6 M-17.45 -26.9 L-23.2 -23.8 -25.25 -24.7 -16.35 -29.4 -16.4 -32.8 -16.55 -32.95 -14.65 -34.7 -14.55 -45.75 -12.55 -44.5 -12.2 -39.65 -14.15 -34.3 -12.55 -33.15 -14.35 -31.9 -14.45 -28.6 -14.6 -28.6 -14.45 -28.55 -13.55 -28.0 -13.95 -27.6 -16.1 -29.0 -17.45 -26.9 M-2.5 -42.05 L-7.0 -35.75 -9.9 -35.5 -4.6 -42.7 -2.5 -42.05 M14.45 -37.7 L16.9 -40.9 19.25 -41.95 16.35 -38.05 14.45 -37.7 M21.95 -39.25 Q21.95 -40.5 22.6 -41.35 23.2 -42.25 24.05 -42.25 L23.7 -39.65 21.95 -39.25 M20.55 -31.6 L21.45 -30.6 20.35 -30.2 18.6 -30.2 17.05 -31.95 20.55 -31.6 M-7.25 -25.4 Q-6.9 -25.6 -6.5 -25.75 L-4.05 -23.35 -3.25 -22.45 -4.0 -21.65 -6.85 -19.15 -9.4 -16.9 -10.1 -16.75 -11.3 -17.1 -4.75 -22.9 -7.25 -25.4 M-2.4 -27.75 L-0.8 -28.5 -1.25 -27.25 -2.4 -27.75 M9.8 -28.5 L10.25 -28.85 10.3 -28.7 13.45 -22.1 12.85 -21.65 12.45 -21.35 12.4 -21.35 9.8 -26.65 9.75 -26.7 9.8 -28.5 M-14.0 -17.85 L-14.3 -16.35 -16.1 -16.65 -13.95 -27.6 -12.9 -23.65 -14.0 -17.85" fill="#d28400" fill-rule="evenodd" stroke="none"/>
    <path d="M27.9 -36.85 L28.65 -32.25 13.45 -33.9 12.95 -37.3 14.45 -37.7 16.35 -38.05 20.35 -38.9 21.95 -39.25 23.7 -39.65 27.35 -40.4 27.9 -36.85 M-7.0 -35.75 L3.05 -36.95 4.3 -37.05 4.55 -35.95 5.3 -32.6 -9.9 -25.55 -11.1 -29.55 -13.55 -28.0 -14.45 -28.55 -14.45 -28.6 -14.35 -31.9 -12.55 -33.15 -11.85 -32.8 -12.2 -30.1 -10.9 -29.55 -12.3 -35.2 -9.9 -35.5 -7.0 -35.75 M-4.55 -47.25 L4.45 -53.75 7.9 -39.5 5.25 -37.25 -4.55 -47.25 M8.25 -39.05 L13.15 -54.25 21.8 -49.4 12.35 -36.75 Q12.0 -36.4 12.25 -36.7 L12.5 -37.15 8.25 -39.05 M21.45 -30.6 L21.75 -30.95 23.2 -30.25 24.25 -27.55 23.4 -26.7 24.0 -26.3 25.1 -25.55 24.85 -25.15 24.05 -24.15 18.7 -17.9 18.5 -17.75 10.15 -30.75 13.0 -32.6 13.85 -33.15 Q14.6 -32.6 15.4 -32.1 L18.3 -30.15 20.95 -28.35 20.35 -30.2 21.45 -30.6 M5.05 -31.35 L5.35 -31.8 9.9 -30.45 9.8 -29.5 9.8 -29.0 9.8 -28.5 9.75 -26.7 9.75 -26.65 9.55 -16.3 -2.3 -19.2 5.05 -31.35" fill="#ffff00" fill-rule="evenodd" stroke="none"/>
    <path d="M28.65 -32.25 L28.5 -31.95 27.8 -30.85 25.65 -31.05 25.25 -31.1 23.85 -31.3 22.05 -31.4 20.55 -31.6 17.05 -31.95 15.4 -32.1 Q14.6 -32.6 13.85 -33.15 L13.0 -32.6 12.05 -36.45 8.0 -38.15 4.55 -35.95 4.3 -37.05 3.05 -36.95 -5.35 -45.3 -4.55 -47.25 5.25 -37.25 7.9 -39.5 8.0 -38.4 8.25 -39.05 12.5 -37.15 12.25 -36.7 Q12.0 -36.4 12.35 -36.75 L12.95 -37.3 13.45 -33.9 28.65 -32.25 M18.15 -17.5 L17.85 -17.3 17.6 -17.6 17.15 -18.35 16.35 -19.5 14.5 -22.35 14.3 -22.6 10.3 -28.7 10.25 -28.85 9.95 -29.25 9.8 -29.5 9.9 -30.45 10.15 -30.75 18.5 -17.75 18.15 -17.5 M5.3 -32.6 L5.35 -31.8 5.05 -31.35 -0.8 -28.5 -2.4 -27.75 -2.8 -27.55 -5.45 -26.25 -6.5 -25.75 Q-6.9 -25.6 -7.25 -25.4 L-9.45 -24.4 -9.9 -25.55 5.3 -32.6 M9.55 -16.3 L5.7 -16.85 1.2 -17.95 -2.3 -19.2 9.55 -16.3" fill="#b0b000" fill-rule="evenodd" stroke="none"/>
    <path d="M24.2 -13.35 L23.5 -11.85 20.65 -10.1 18.5 -10.55 18.65 -9.15 15.0 -7.7 13.25 -7.05 11.75 -7.5 11.5 -0.35 9.6 -1.25 10.05 -8.05 4.55 -9.85 3.85 4.75 -1.7 5.2 -0.55 -8.95 -3.2 -8.15 -4.6 -9.45 -5.35 -9.3 -8.25 -8.8 -8.7 0.55 -11.65 -0.25 -11.0 -9.15 -14.75 -11.65 -15.8 -11.7 -18.0 -16.75 -16.85 -15.25 -9.2 -14.35 0.25 -13.75 0.35 -13.85 1.2 -17.95 5.7 -16.85 5.5 -15.8 5.1 -13.55 7.35 -13.2 5.0 -12.9 4.8 -12.3 4.65 -12.25 Q11.45 -8.3 18.4 -11.2 L15.55 -13.15 21.5 -12.2 24.2 -13.35 M10.95 -14.4 L12.45 -21.3 12.45 -21.35 12.85 -21.65 14.3 -22.6 14.5 -22.35 14.1 -21.9 12.5 -13.8 10.95 -14.4 M-6.85 -19.15 L-7.35 -16.3 -9.4 -16.9 -6.85 -19.15" fill="#9fce00" fill-rule="evenodd" stroke="none"/>
    <path d="M16.35 -19.5 L15.45 -13.8 20.85 -15.0 24.2 -13.35 21.5 -12.2 15.55 -13.15 18.4 -11.2 Q11.45 -8.3 4.65 -12.25 L4.8 -12.3 5.0 -12.9 7.35 -13.2 5.1 -13.55 5.5 -15.8 10.95 -14.4 12.5 -13.8 14.1 -21.9 14.5 -22.35 16.35 -19.5 M15.0 -7.7 L14.95 -0.8 11.5 -0.35 11.75 -7.5 13.25 -7.05 15.0 -7.7 M-5.35 -9.3 L-5.5 -0.3 -8.7 0.55 -8.25 -8.8 -5.35 -9.3 M-18.0 -16.75 L-17.15 -17.15 -16.1 -16.65 -14.3 -16.35 -14.0 -17.85 -11.5 -16.2 -10.1 -16.75 -9.4 -16.9 -7.35 -16.3 -6.85 -19.15 -4.0 -21.65 -4.9 -15.5 0.35 -13.85 0.25 -13.75 -9.2 -14.35 -16.85 -15.25 -18.0 -16.75 M-6.5 -25.75 L-5.45 -26.25 -4.05 -23.35 -6.5 -25.75 M9.95 -29.25 L9.8 -29.0 9.8 -29.5 9.95 -29.25 M12.45 -21.3 L12.4 -21.35 12.45 -21.35 12.45 -21.3" fill="#cfff30" fill-rule="evenodd" stroke="none"/>
  </g>
</svg>
