<?xml version="1.0" encoding="UTF-8" standalone="no"?>
<svg xmlns:xlink="http://www.w3.org/1999/xlink" height="61.95px" width="58.45px" xmlns="http://www.w3.org/2000/svg">
  <g transform="matrix(1.0, 0.0, 0.0, 1.0, 23.85, 56.8)">
    <path d="M22.0 -44.0 L22.95 -39.7 18.55 -39.15 18.25 -39.7 22.0 -44.0 M26.7 -43.6 Q29.7 -41.9 30.9 -39.6 L29.5 -37.25 29.4 -40.4 25.8 -40.0 26.7 -43.6 M29.7 -32.45 L33.2 -33.1 34.6 -27.7 26.95 -29.55 26.7 -31.15 28.7 -30.8 29.7 -32.1 29.7 -32.45 M27.7 -27.8 L32.0 -23.45 29.8 -18.4 25.7 -25.7 22.8 -28.2 24.2 -27.5 24.95 -27.35 26.75 -28.85 27.7 -27.8 M24.9 -24.2 L25.05 -17.35 19.55 -19.0 24.85 -24.7 24.9 -24.2 M-16.55 -18.05 L-20.85 -20.9 -16.05 -28.4 -14.7 -30.3 -12.25 -29.1 -9.95 -30.5 -7.2 -26.95 -7.2 -26.65 -7.0 -26.65 -4.2 -22.95 -10.7 -17.6 -11.9 -24.65 -12.55 -28.7 -15.4 -17.4 -16.55 -18.05 M-23.85 -26.3 L-22.45 -34.0 -14.85 -34.45 -19.2 -43.25 -12.05 -48.3 -12.9 -36.2 -14.85 -34.45 -14.9 -30.85 -23.85 -26.3 M-10.2 -41.05 L-6.85 -48.25 -6.35 -48.1 Q-2.5 -46.55 -0.4 -42.85 L-2.35 -43.55 -6.6 -38.45 -8.95 -38.3 -8.6 -35.85 -10.25 -34.05 -8.4 -34.3 -7.7 -29.6 -8.45 -29.8 -9.1 -30.15 -10.8 -31.1 -10.35 -33.9 -11.15 -34.6 -12.45 -36.05 -10.2 -41.05 M20.05 -31.85 L21.9 -31.65 22.3 -28.7 18.8 -31.7 20.05 -31.85 M14.9 -33.9 L12.0 -32.15 11.75 -31.9 7.55 -33.55 7.6 -34.5 7.25 -38.0 10.7 -40.05 14.35 -37.9 14.9 -33.9 M25.15 -31.5 L24.5 -31.3 23.9 -31.7 25.15 -31.5 M0.55 -30.1 L0.05 -28.5 0.5 -30.05 0.55 -30.1 M13.65 -23.0 L13.7 -23.05 14.7 -23.85 13.9 -26.3 15.1 -23.9 13.7 -23.05 13.65 -22.95 13.65 -23.0" fill="#ffad22" fill-rule="evenodd" stroke="none"/>
    <path d="M16.1 -38.9 L19.55 -43.0 22.0 -44.0 18.25 -39.7 18.55 -39.15 16.1 -38.9 M24.1 -39.8 L24.85 -43.0 26.7 -43.6 25.8 -40.0 24.1 -39.8 M34.6 -27.7 L32.75 -26.85 27.7 -27.8 26.75 -28.85 24.95 -27.35 24.2 -27.5 25.25 -28.45 24.5 -31.3 25.15 -31.5 26.7 -31.15 26.95 -29.55 34.6 -27.7 M29.8 -18.4 L28.25 -18.15 24.9 -24.2 24.85 -24.7 25.7 -25.7 29.8 -18.4 M25.05 -17.35 L19.05 -18.45 19.55 -19.0 25.05 -17.35 M-16.05 -28.4 L-22.15 -25.35 -23.85 -26.3 -14.9 -30.85 -14.85 -34.45 -12.9 -36.2 -12.05 -48.3 -10.15 -47.0 -10.2 -41.05 -12.45 -36.05 -11.15 -34.6 -12.95 -33.45 -13.2 -29.9 -12.25 -29.1 -14.7 -30.3 -16.05 -28.4 M-0.4 -42.85 L-3.9 -38.6 -6.6 -38.45 -2.35 -43.55 -0.4 -42.85 M22.7 -32.0 L21.9 -31.65 20.05 -31.85 19.6 -32.6 22.7 -32.0 M0.05 -28.5 L-0.1 -27.95 -0.55 -27.1 -3.6 -28.2 0.5 -30.05 0.05 -28.5 M-3.5 -23.55 L-2.75 -22.5 -3.9 -21.55 -6.65 -19.25 -7.95 -18.15 -9.15 -17.15 -10.35 -17.4 -10.7 -17.6 -4.2 -22.95 -7.0 -26.65 -6.25 -27.0 -3.5 -23.55 M11.6 -30.6 L11.65 -30.6 11.7 -30.6 13.85 -26.4 13.9 -26.3 14.7 -23.85 13.7 -23.05 13.65 -23.0 11.45 -28.95 11.6 -30.6 M-9.1 -30.15 L-8.45 -29.8 -7.55 -28.65 -7.4 -27.9 -7.2 -26.95 -9.95 -30.5 -9.1 -30.15 M-8.4 -34.3 L-10.25 -34.05 -8.6 -35.85 -8.4 -34.3 M-11.9 -24.65 L-13.3 -18.6 -13.65 -17.1 -15.4 -17.4 -12.55 -28.7 -11.9 -24.65" fill="#d28400" fill-rule="evenodd" stroke="none"/>
    <path d="M11.05 -41.0 L17.65 -56.05 17.75 -56.2 Q22.4 -54.35 25.5 -50.35 L14.75 -38.25 Q14.3 -37.85 14.65 -38.2 L15.0 -38.65 11.05 -41.0 M15.4 -38.8 L16.1 -38.9 18.55 -39.15 22.95 -39.7 24.1 -39.8 25.8 -40.0 29.4 -40.4 29.5 -37.25 29.7 -32.45 29.7 -32.1 15.55 -35.2 15.4 -38.8 M19.05 -18.45 L18.9 -18.4 12.0 -32.15 14.9 -33.9 15.85 -34.45 17.25 -33.1 18.8 -31.7 22.3 -28.7 21.9 -31.65 22.7 -32.0 23.9 -31.7 24.5 -31.3 25.25 -28.45 24.2 -27.5 22.8 -28.2 25.7 -25.7 24.85 -24.7 19.55 -19.0 19.05 -18.45 M-3.9 -38.6 L5.85 -39.15 7.1 -39.2 7.25 -38.0 7.6 -34.5 -7.4 -27.9 -7.55 -28.65 -7.7 -29.6 -8.4 -34.3 -8.6 -35.85 -8.95 -38.3 -6.6 -38.45 -3.9 -38.6 M-0.2 -50.7 L9.1 -56.8 10.85 -41.5 8.1 -39.35 -0.2 -50.7 M7.55 -33.55 L11.75 -31.9 11.65 -30.7 11.6 -30.6 11.45 -28.95 10.35 -17.4 -0.75 -20.9 7.15 -33.0 7.25 -33.15 7.55 -33.55 M11.65 -30.6 L11.7 -30.65 11.7 -30.6 11.65 -30.6 M13.9 -26.3 L13.85 -26.4 13.9 -26.3 M-11.15 -34.6 L-10.35 -33.9 -10.8 -31.1 -9.1 -30.15 -9.95 -30.5 -12.25 -29.1 -13.2 -29.9 -12.95 -33.45 -11.15 -34.6" fill="#ffff00" fill-rule="evenodd" stroke="none"/>
    <path d="M14.75 -38.25 L15.4 -38.8 15.55 -35.2 29.7 -32.1 28.7 -30.8 26.7 -31.15 25.15 -31.5 23.9 -31.7 22.7 -32.0 19.6 -32.6 17.25 -33.1 15.85 -34.45 14.9 -33.9 14.35 -37.9 10.7 -40.05 7.25 -38.0 7.1 -39.2 5.85 -39.15 -1.3 -48.65 -0.2 -50.7 8.1 -39.35 10.85 -41.5 10.75 -40.3 11.05 -41.0 15.0 -38.65 14.65 -38.2 Q14.3 -37.85 14.75 -38.25 M18.9 -18.4 L18.2 -17.95 17.05 -20.15 15.4 -23.3 15.1 -23.9 13.9 -26.3 13.85 -26.4 11.7 -30.6 11.7 -30.65 11.65 -30.7 11.75 -31.9 12.0 -32.15 18.9 -18.4 M7.6 -34.5 L7.55 -33.55 7.25 -33.15 7.15 -33.1 0.55 -30.1 0.5 -30.05 -3.6 -28.2 -4.9 -27.6 -6.25 -27.0 -7.0 -26.65 -7.2 -26.65 -7.2 -26.95 -7.4 -27.9 7.6 -34.5 M2.3 -19.4 L-0.75 -20.9 10.35 -17.4 6.5 -18.05 2.3 -19.4" fill="#b0b000" fill-rule="evenodd" stroke="none"/>
    <path d="M17.05 -20.15 L15.85 -14.35 21.1 -15.35 24.15 -13.55 21.55 -12.55 15.75 -13.7 18.25 -11.5 12.9 -11.25 Q8.35 -11.7 5.3 -13.1 L8.1 -13.9 5.7 -14.8 6.15 -16.9 11.55 -15.15 12.6 -14.35 15.4 -23.3 17.05 -20.15 M15.15 -8.15 Q14.85 -4.95 14.9 -0.9 L11.45 -0.35 12.0 -7.8 13.15 -7.4 15.15 -8.15 M-5.5 -9.9 Q-5.85 -6.05 -5.6 -0.35 L-8.75 0.5 -8.25 -9.4 -5.5 -9.9 M-13.6 -12.25 L-13.7 -12.25 -13.7 -12.35 -13.6 -12.25 M-17.45 -17.65 L-16.55 -18.05 -15.4 -17.4 -13.65 -17.1 -13.3 -18.6 -11.3 -17.05 -10.35 -17.4 -9.15 -17.15 -7.95 -18.15 -7.0 -17.75 -6.65 -19.25 -3.9 -21.55 -4.75 -16.9 1.05 -14.75 Q-6.3 -12.45 -13.1 -16.25 L-13.2 -15.65 -16.35 -16.0 -17.45 -17.65 M7.15 -33.1 L7.25 -33.15 7.15 -33.0 7.15 -33.1 M-4.9 -27.6 L-3.5 -23.55 -6.25 -27.0 -4.9 -27.6 M11.65 -30.6 L11.6 -30.6 11.65 -30.7 11.7 -30.65 11.65 -30.6 M0.05 -10.25 L0.0 -9.75 -0.8 -10.75 -0.1 -10.9 0.05 -10.25 M-8.45 -29.8 L-7.7 -29.6 -7.55 -28.65 -8.45 -29.8" fill="#cfff30" fill-rule="evenodd" stroke="none"/>
    <path d="M24.15 -13.55 L23.45 -12.05 20.65 -10.35 18.3 -10.95 18.45 -9.4 15.15 -8.15 13.15 -7.4 12.0 -7.8 11.45 -0.35 9.6 -1.25 10.4 -8.35 4.95 -10.4 3.8 5.1 -1.7 5.15 0.0 -9.45 -3.5 -8.5 -4.85 -10.0 -5.5 -9.9 -8.25 -9.4 -8.75 0.5 -11.7 -0.25 Q-11.75 -3.5 -10.85 -10.45 L-13.6 -12.25 -13.7 -12.35 -13.7 -12.25 -15.6 -12.25 -17.45 -17.65 -16.35 -16.0 -13.2 -15.65 -13.1 -16.25 Q-6.3 -12.45 1.05 -14.75 L2.3 -19.4 6.5 -18.05 6.15 -16.9 5.7 -14.8 8.1 -13.9 5.3 -13.1 Q8.35 -11.7 12.9 -11.25 L18.25 -11.5 15.75 -13.7 21.55 -12.55 24.15 -13.55 M15.1 -23.9 L15.4 -23.3 12.6 -14.35 11.55 -15.15 13.65 -22.95 13.7 -23.05 15.1 -23.9 M0.05 -10.25 L0.25 -10.95 -0.1 -10.9 -0.8 -10.75 0.0 -9.75 0.05 -10.25 M-7.95 -18.15 L-6.65 -19.25 -7.0 -17.75 -7.95 -18.15" fill="#9fce00" fill-rule="evenodd" stroke="none"/>
  </g>
</svg>
