<?xml version="1.0" encoding="UTF-8" standalone="no"?>
<svg xmlns:xlink="http://www.w3.org/1999/xlink" height="64.15px" width="57.6px" xmlns="http://www.w3.org/2000/svg">
  <g transform="matrix(1.0, 0.0, 0.0, 1.0, 22.8, 59.0)">
    <path d="M21.4 -44.4 Q22.6 -45.05 24.05 -45.35 L24.6 -40.25 20.55 -40.1 19.9 -41.4 17.5 -40.2 17.8 -40.75 21.4 -44.4 M28.5 -44.55 L28.55 -44.55 Q31.15 -42.7 32.05 -39.8 L30.5 -37.65 30.65 -40.5 27.15 -40.35 28.5 -44.55 M30.3 -32.85 L33.85 -33.2 34.8 -27.7 27.7 -30.1 27.55 -31.25 29.25 -30.8 30.3 -32.15 30.3 -32.85 M28.45 -28.2 L32.15 -23.6 29.75 -18.75 25.6 -28.1 27.15 -29.55 28.45 -28.2 M25.4 -24.8 L25.3 -17.9 20.1 -19.8 25.35 -25.15 25.4 -24.8 M-16.0 -18.7 L-20.1 -21.65 -15.05 -29.4 -13.75 -31.3 -11.8 -29.55 -14.85 -17.95 -16.0 -18.7 M-22.8 -27.45 L-21.2 -35.55 -13.75 -35.65 -13.9 -31.85 -22.8 -27.45 M-13.75 -35.75 L-17.6 -45.15 -10.2 -50.15 -11.7 -37.35 -13.75 -35.75 M-8.85 -42.0 L-5.0 -49.6 Q-3.4 -49.6 -0.55 -46.25 L1.05 -43.45 -0.9 -44.15 -4.1 -40.5 -6.55 -40.45 -6.4 -38.0 -9.2 -34.9 -6.55 -35.0 -6.15 -35.0 -5.65 -29.65 -7.7 -30.55 -8.15 -30.8 -9.75 -31.8 -9.35 -34.8 -10.15 -35.65 -11.3 -36.9 -8.85 -42.0 M21.1 -33.1 L22.9 -32.6 23.3 -29.75 22.8 -29.45 19.45 -32.9 21.1 -33.1 M24.95 -28.3 L25.35 -26.7 23.25 -29.3 24.95 -28.3 M9.15 -39.55 L12.6 -41.4 15.95 -39.0 16.2 -34.85 13.35 -33.3 13.1 -33.0 9.45 -35.3 9.1 -34.85 9.3 -35.9 9.15 -39.55 M-3.85 -28.85 L-1.6 -29.85 -2.25 -28.15 -1.55 -27.8 -3.85 -28.85 M15.6 -25.15 L15.65 -25.15 15.75 -24.8 14.55 -24.1 14.5 -24.15 15.6 -25.15 M-11.25 -25.4 L-11.3 -29.95 -9.05 -31.2 -3.8 -23.1 -10.25 -17.9 -11.25 -25.4" fill="#ffad22" fill-rule="evenodd" stroke="none"/>
    <path d="M25.5 -40.3 L26.65 -43.95 28.5 -44.55 27.15 -40.35 25.5 -40.3 M34.8 -27.7 L32.95 -26.9 28.45 -28.2 27.15 -29.55 25.6 -28.1 29.75 -18.75 28.35 -18.35 25.4 -24.8 25.35 -25.15 26.1 -25.9 25.35 -26.7 24.95 -28.3 25.8 -29.05 25.4 -31.85 27.55 -31.25 27.7 -30.1 34.8 -27.7 M25.3 -17.9 L24.1 -17.6 19.55 -19.2 20.1 -19.8 25.3 -17.9 M-15.05 -29.4 L-21.05 -26.4 -22.8 -27.45 -13.9 -31.85 -13.75 -35.65 -13.75 -35.75 -11.7 -37.35 -10.2 -50.15 -8.45 -48.75 -8.85 -42.0 -11.3 -36.9 -10.15 -35.65 -11.85 -34.6 -12.3 -30.85 -11.3 -29.95 -11.25 -25.4 -12.85 -19.05 -13.2 -17.65 -14.85 -17.95 -11.8 -29.55 -13.75 -31.3 -15.05 -29.4 M1.05 -43.45 L-1.55 -40.55 -4.1 -40.5 -0.9 -44.15 1.05 -43.45 M17.55 -39.95 L17.5 -40.2 19.9 -41.4 20.55 -40.1 17.55 -39.95 M-1.6 -29.85 L1.45 -31.2 0.05 -27.25 -1.55 -27.8 -2.25 -28.15 -1.6 -29.85 M12.7 -30.5 L12.95 -31.65 15.55 -25.3 15.6 -25.15 14.5 -24.15 12.7 -30.5 M-6.4 -38.0 L-6.2 -35.4 -6.55 -35.0 -9.2 -34.9 -6.4 -38.0 M-8.15 -30.8 L-7.7 -30.55 -3.25 -24.0 -2.45 -22.7 -3.8 -21.6 -8.8 -17.55 -10.25 -17.9 -3.8 -23.1 -9.05 -31.2 -8.15 -30.8" fill="#d28400" fill-rule="evenodd" stroke="none"/>
    <path d="M12.95 -43.0 L12.65 -41.7 12.95 -42.2 16.7 -39.8 16.35 -39.3 17.1 -39.85 16.95 -36.2 30.3 -32.15 29.25 -30.8 27.55 -31.25 25.4 -31.85 22.9 -32.6 21.1 -33.1 18.55 -33.8 17.15 -35.3 16.2 -34.85 15.95 -39.0 12.6 -41.4 9.15 -39.55 9.1 -40.8 7.85 -40.75 1.6 -51.05 2.9 -53.15 10.1 -40.9 12.95 -43.0 M19.25 -18.9 L18.45 -18.4 17.5 -20.65 16.1 -24.0 15.75 -24.8 15.65 -25.15 15.55 -25.3 12.95 -31.65 13.1 -33.0 13.35 -33.3 19.25 -18.9 M9.3 -35.9 L9.1 -34.85 8.85 -34.45 8.65 -34.35 1.45 -31.2 -1.6 -29.85 -3.85 -28.85 -4.45 -28.6 -5.5 -28.1 -5.65 -29.55 9.3 -35.9 M0.45 -22.05 L10.9 -18.15 7.1 -19.0 3.15 -20.45 3.1 -20.45 0.25 -21.5 0.45 -22.05" fill="#b0b000" fill-rule="evenodd" stroke="none"/>
    <path d="M2.9 -53.15 L12.6 -59.0 12.95 -43.0 10.1 -40.9 2.9 -53.15 M12.95 -42.2 L21.2 -57.75 27.9 -50.95 21.4 -44.4 17.8 -40.75 16.35 -39.3 16.7 -39.8 12.95 -42.2 M24.6 -40.25 L25.5 -40.3 27.15 -40.35 30.65 -40.5 30.5 -37.65 30.3 -32.85 30.3 -32.15 16.95 -36.2 17.1 -39.85 17.55 -39.95 20.55 -40.1 24.6 -40.25 M19.55 -19.2 L19.25 -18.9 13.35 -33.3 16.2 -34.85 17.15 -35.3 18.55 -33.8 19.45 -32.9 22.8 -29.45 23.3 -29.75 22.9 -32.6 25.4 -31.85 25.8 -29.05 24.95 -28.3 23.25 -29.3 25.35 -26.7 26.1 -25.9 25.35 -25.15 20.1 -19.8 19.55 -19.2 M-1.55 -40.55 L7.85 -40.75 9.1 -40.8 9.15 -39.55 9.3 -35.9 -5.65 -29.55 -5.65 -29.65 -6.15 -35.0 -6.2 -35.4 -6.4 -38.0 -6.55 -40.45 -4.1 -40.5 -1.55 -40.55 M8.85 -34.45 L9.1 -34.85 9.45 -35.3 13.1 -33.0 12.95 -31.65 12.7 -30.5 10.9 -18.15 0.45 -22.05 8.65 -34.2 8.85 -34.45 M15.55 -25.3 L15.65 -25.15 15.6 -25.15 15.55 -25.3 M3.15 -20.45 L3.1 -20.45 3.15 -20.45 M-11.3 -29.95 L-12.3 -30.85 -11.85 -34.6 -10.15 -35.65 -9.35 -34.8 -9.75 -31.8 -8.15 -30.8 -9.05 -31.2 -11.3 -29.95" fill="#ffff00" fill-rule="evenodd" stroke="none"/>
    <path d="M24.15 -13.7 L23.45 -12.2 20.65 -10.55 18.25 -11.2 18.25 -9.65 15.3 -8.5 13.15 -7.7 12.25 -8.05 11.45 -0.35 9.6 -1.3 10.6 -8.65 5.2 -10.75 3.7 5.15 -1.7 5.1 0.65 -11.4 -0.3 -11.2 -1.05 -11.1 -0.05 -9.8 -3.6 -8.75 -5.0 -10.35 -5.55 -10.25 -8.2 -9.8 -8.8 0.5 -11.7 -0.25 -10.65 -11.35 -12.45 -12.6 -15.35 -12.55 -17.1 -18.3 -16.0 -16.55 -12.35 -16.1 -12.1 -17.15 Q-5.65 -13.25 1.65 -15.35 L2.9 -19.85 3.15 -20.45 7.1 -19.0 6.65 -17.4 6.2 -15.5 8.65 -14.35 5.9 -14.15 5.55 -13.5 Q9.2 -12.2 13.0 -11.7 15.55 -11.35 18.2 -11.8 L16.0 -14.15 21.65 -12.85 24.15 -13.7 M15.75 -24.8 L16.1 -24.0 13.1 -15.25 12.05 -15.65 14.55 -24.1 15.75 -24.8" fill="#9fce00" fill-rule="evenodd" stroke="none"/>
    <path d="M17.5 -20.65 L16.15 -14.75 21.25 -15.65 24.15 -13.7 21.65 -12.85 16.0 -14.15 18.2 -11.8 Q15.55 -11.35 13.0 -11.7 9.2 -12.2 5.55 -13.5 L5.9 -14.15 8.65 -14.35 6.2 -15.5 6.65 -17.4 12.05 -15.65 13.1 -15.25 16.1 -24.0 17.5 -20.65 M15.3 -8.5 Q14.85 -4.8 14.95 -0.85 L11.45 -0.35 12.25 -8.05 13.15 -7.7 15.3 -8.5 M-0.3 -11.2 L-0.05 -9.8 -1.05 -11.1 -0.3 -11.2 M-5.55 -10.25 Q-6.05 -4.8 -5.7 -0.4 L-8.8 0.5 -8.2 -9.8 -5.55 -10.25 M-17.1 -18.3 L-16.0 -18.7 -14.85 -17.95 -13.2 -17.65 -12.85 -19.05 -11.1 -17.6 -10.25 -17.9 -8.8 -17.55 -3.8 -21.6 -4.55 -18.0 1.65 -15.35 Q-5.65 -13.25 -12.1 -17.15 L-12.35 -16.1 -16.0 -16.55 -17.1 -18.3 M-5.65 -29.55 L-5.5 -28.1 -4.45 -28.6 -3.25 -24.0 -7.7 -30.55 -5.65 -29.65 -5.65 -29.55 M8.65 -34.35 L8.85 -34.45 8.65 -34.2 8.65 -34.35 M3.15 -20.45 L2.9 -19.85 3.1 -20.45 3.15 -20.45" fill="#cfff30" fill-rule="evenodd" stroke="none"/>
  </g>
</svg>
