<?xml version="1.0" encoding="UTF-8" standalone="no"?>
<svg xmlns:xlink="http://www.w3.org/1999/xlink" height="64.6px" width="57.25px" xmlns="http://www.w3.org/2000/svg">
  <g transform="matrix(1.0, 0.0, 0.0, 1.0, 22.4, 59.9)">
    <path d="M24.65 -46.0 L25.2 -40.55 21.3 -40.45 20.6 -42.05 24.65 -46.0 M29.15 -45.0 Q31.9 -42.45 32.6 -40.25 L30.95 -37.85 31.15 -40.65 27.65 -40.55 29.15 -45.0 M30.65 -33.1 L34.05 -33.3 34.85 -27.75 27.95 -30.4 27.9 -31.35 29.45 -30.9 30.55 -32.25 30.65 -33.1 M28.7 -28.4 L32.2 -23.65 29.9 -18.95 25.85 -28.45 27.6 -29.85 28.7 -28.4 M25.55 -25.05 L25.35 -18.15 20.35 -20.1 25.55 -25.35 25.55 -25.05 M-15.75 -18.95 L-19.8 -22.0 -14.65 -29.85 -13.35 -31.75 -11.5 -29.9 -14.6 -18.2 -15.75 -18.95 M-22.4 -27.9 L-20.7 -36.2 -13.3 -36.2 -17.0 -45.95 -9.5 -50.9 -11.2 -37.85 -13.3 -36.2 -13.5 -32.25 -22.4 -27.9 M-8.3 -42.45 L-4.3 -50.2 Q-1.9 -50.05 1.55 -43.8 L-0.3 -44.4 -3.15 -41.3 -5.5 -41.3 -5.55 -38.75 -8.8 -35.25 -6.25 -35.3 -5.3 -35.35 -4.95 -30.2 -4.9 -29.7 -4.95 -29.7 -7.35 -30.85 -7.85 -31.15 -9.35 -32.1 -8.85 -35.2 -9.75 -36.1 -10.8 -37.35 -8.3 -42.45 M21.15 -33.45 L23.35 -32.75 23.65 -30.15 23.0 -29.7 19.7 -33.45 21.15 -33.45 M25.25 -28.6 L25.6 -28.35 25.6 -26.8 23.15 -29.55 23.65 -29.7 25.25 -28.6 M18.2 -40.9 L18.35 -41.1 18.4 -41.0 18.2 -40.9 M9.95 -40.2 L13.35 -42.0 16.55 -39.45 16.7 -35.3 13.9 -33.75 13.6 -33.45 10.15 -35.8 9.7 -35.4 9.95 -36.45 9.95 -40.2 M-2.0 -28.2 L-3.9 -29.15 -1.2 -30.3 -2.0 -28.2 M16.0 -25.45 L16.05 -25.25 15.0 -24.6 16.0 -25.45 M14.9 -24.55 L14.9 -24.6 15.0 -24.6 14.9 -24.55 M-11.9 -31.25 L-12.0 -31.3 -11.9 -31.3 -11.9 -31.25 M-10.95 -25.75 L-11.5 -29.9 -10.95 -30.3 -8.75 -31.55 -3.65 -23.25 -10.15 -18.15 -10.95 -25.75" fill="#ffad22" fill-rule="evenodd" stroke="none"/>
    <path d="M22.4 -45.1 L24.65 -46.0 20.6 -42.05 21.3 -40.45 18.3 -40.45 18.2 -40.9 18.4 -41.0 18.35 -41.1 22.4 -45.1 M26.0 -40.55 L27.25 -44.35 29.15 -45.0 27.65 -40.55 26.0 -40.55 M34.85 -27.75 L33.05 -26.95 28.7 -28.4 27.6 -29.85 25.85 -28.45 29.9 -18.95 28.4 -18.55 25.55 -25.05 25.55 -25.35 26.25 -26.1 25.6 -26.8 25.6 -28.35 25.25 -28.6 26.1 -29.35 25.75 -32.05 27.9 -31.35 27.95 -30.4 34.85 -27.75 M25.35 -18.15 L24.05 -17.9 19.75 -19.5 20.35 -20.1 25.35 -18.15 M-14.65 -29.85 L-20.8 -26.8 -22.4 -27.9 -13.5 -32.25 -13.3 -36.2 -11.2 -37.85 -9.5 -50.9 -7.75 -49.45 -8.3 -42.45 -10.8 -37.35 -9.75 -36.1 -11.45 -34.85 -11.9 -31.3 -12.0 -31.3 -11.9 -31.25 -10.95 -30.3 -11.5 -29.9 -10.95 -25.75 -12.65 -19.3 -13.05 -17.85 -14.6 -18.2 -11.5 -29.9 -13.35 -31.75 -14.65 -29.85 M1.55 -43.8 L-0.65 -41.35 -3.15 -41.3 -0.3 -44.4 1.55 -43.8 M1.85 -31.65 L0.15 -27.15 -2.0 -28.2 -1.2 -30.3 1.85 -31.65 M-3.15 -24.25 L-2.3 -22.85 -3.7 -21.7 -7.25 -18.9 Q-8.85 -17.1 -10.15 -18.15 L-3.65 -23.25 -8.75 -31.55 -7.85 -31.15 -7.35 -30.85 -3.15 -24.25 M13.2 -31.1 L13.35 -32.05 16.0 -25.45 15.0 -24.6 14.9 -24.6 13.2 -31.1 M-5.55 -38.75 L-5.4 -36.2 -6.25 -35.3 -8.8 -35.25 -5.55 -38.75" fill="#d28400" fill-rule="evenodd" stroke="none"/>
    <path d="M4.1 -54.15 L13.9 -59.9 13.7 -43.6 10.9 -41.5 4.1 -54.15 M13.75 -42.85 L22.4 -58.4 28.75 -51.25 22.4 -45.1 18.35 -41.1 17.1 -39.9 16.8 -39.6 16.8 -39.65 17.35 -40.25 13.75 -42.85 M25.2 -40.55 L26.0 -40.55 27.65 -40.55 31.15 -40.65 30.95 -37.85 30.65 -33.1 30.55 -32.25 17.5 -36.65 17.75 -40.35 18.3 -40.45 21.3 -40.45 25.2 -40.55 M19.75 -19.5 L19.4 -19.2 13.9 -33.75 16.7 -35.3 17.65 -35.75 19.1 -34.15 19.7 -33.45 23.0 -29.7 23.65 -30.15 23.35 -32.75 25.75 -32.05 26.1 -29.35 25.25 -28.6 23.65 -29.7 23.15 -29.55 25.6 -26.8 26.25 -26.1 25.55 -25.35 20.35 -20.1 19.75 -19.5 M-0.65 -41.35 L8.65 -41.45 9.9 -41.45 9.95 -40.2 9.95 -36.45 -4.95 -30.2 -5.3 -35.35 -5.4 -36.2 -5.55 -38.75 -5.5 -41.3 -3.15 -41.3 -0.65 -41.35 M0.9 -22.55 L9.2 -34.7 9.5 -35.0 9.7 -35.4 10.15 -35.8 13.6 -33.45 13.35 -32.05 13.2 -31.1 11.15 -18.5 0.9 -22.55 M-4.9 -29.7 L-4.9 -29.65 -4.95 -29.7 -4.9 -29.7 M-11.9 -31.25 L-11.9 -31.3 -11.45 -34.85 -9.75 -36.1 -8.85 -35.2 -9.35 -32.1 -7.85 -31.15 -8.75 -31.55 -10.95 -30.3 -11.9 -31.25" fill="#ffff00" fill-rule="evenodd" stroke="none"/>
    <path d="M13.7 -43.6 L13.4 -42.3 13.75 -42.85 17.35 -40.25 16.8 -39.65 16.75 -39.6 16.8 -39.6 17.1 -39.9 17.75 -40.35 17.5 -36.65 30.55 -32.25 29.45 -30.9 27.9 -31.35 25.75 -32.05 23.35 -32.75 21.15 -33.45 19.1 -34.15 17.65 -35.75 16.7 -35.3 16.55 -39.45 13.35 -42.0 9.95 -40.2 9.9 -41.45 8.65 -41.45 2.7 -52.0 4.1 -54.15 10.9 -41.5 13.7 -43.6 M19.4 -19.2 L18.6 -18.65 17.75 -20.9 16.4 -24.3 16.05 -25.25 16.0 -25.45 13.35 -32.05 13.6 -33.45 13.9 -33.75 19.4 -19.2 M-3.9 -29.15 L-4.25 -28.95 -4.85 -28.75 -4.9 -29.65 -4.9 -29.7 -4.95 -30.2 9.95 -36.45 9.7 -35.4 9.5 -35.0 9.25 -34.9 1.85 -31.65 -1.2 -30.3 -3.9 -29.15 M3.5 -20.9 L0.75 -22.0 0.9 -22.55 11.15 -18.5 10.85 -18.15 7.4 -19.35 3.5 -20.9" fill="#b0b000" fill-rule="evenodd" stroke="none"/>
    <path d="M17.75 -20.9 L16.3 -14.9 21.35 -15.8 24.25 -13.85 21.7 -13.0 16.1 -14.3 16.1 -13.8 18.25 -12.0 13.05 -11.85 Q9.4 -12.35 5.9 -13.6 L6.05 -14.4 8.9 -14.65 6.45 -15.8 6.9 -17.6 7.3 -17.9 12.25 -15.9 13.35 -15.3 16.4 -24.3 17.75 -20.9 M15.35 -8.7 Q14.9 -4.5 14.95 -0.9 L11.45 -0.35 12.35 -8.2 13.15 -7.9 15.35 -8.7 M-0.3 -11.4 L-0.1 -9.9 -1.05 -11.25 -0.3 -11.4 M-5.55 -10.45 Q-6.15 -4.7 -5.65 -0.35 L-8.75 0.5 -8.2 -9.95 -5.55 -10.45 M-16.9 -18.55 L-15.75 -18.95 -14.6 -18.2 -13.05 -17.85 -12.65 -19.3 -10.95 -17.8 -10.15 -18.15 Q-8.85 -17.1 -7.25 -18.9 L-3.7 -21.7 -4.45 -18.4 1.9 -15.6 Q-5.35 -13.5 -11.65 -17.5 L-11.95 -16.25 -15.85 -16.75 -16.9 -18.55 M-4.25 -28.95 L-3.15 -24.25 -7.35 -30.85 -4.95 -29.7 -4.9 -29.65 -4.85 -28.75 -4.25 -28.95 M3.15 -20.05 L3.5 -20.9 3.15 -20.05 M9.2 -34.7 L9.25 -34.9 9.5 -35.0 9.2 -34.7" fill="#cfff30" fill-rule="evenodd" stroke="none"/>
    <path d="M24.25 -13.85 L23.5 -12.3 20.75 -10.65 18.25 -11.35 18.25 -9.8 15.35 -8.7 13.15 -7.9 12.35 -8.2 11.45 -0.35 9.6 -1.35 10.75 -8.8 5.35 -10.95 3.75 4.7 -1.7 4.7 0.8 -11.6 -0.3 -11.4 -1.05 -11.25 -0.1 -9.9 -3.9 -9.2 -5.05 -10.5 -5.55 -10.45 -8.2 -9.95 -8.75 0.5 -11.7 -0.7 -10.55 -11.7 -12.0 -12.8 -15.25 -12.7 -16.9 -18.55 -15.85 -16.75 -11.95 -16.25 -11.65 -17.5 Q-5.35 -13.5 1.9 -15.6 L3.15 -20.05 3.5 -20.9 7.4 -19.35 6.9 -17.6 6.45 -15.8 8.9 -14.65 6.05 -14.4 5.9 -13.6 Q9.4 -12.35 13.05 -11.85 L18.25 -12.0 16.1 -13.8 16.1 -14.3 21.7 -13.0 24.25 -13.85 M16.05 -25.25 L16.4 -24.3 13.35 -15.3 12.25 -15.9 14.9 -24.55 15.0 -24.6 16.05 -25.25" fill="#9fce00" fill-rule="evenodd" stroke="none"/>
  </g>
</svg>
