<?xml version="1.0" encoding="UTF-8" standalone="no"?>
<svg xmlns:xlink="http://www.w3.org/1999/xlink" height="57.2px" width="60.05px" xmlns="http://www.w3.org/2000/svg">
  <g transform="matrix(1.0, 0.0, 0.0, 1.0, 26.7, 52.05)">
    <path d="M33.35 -28.15 L31.6 -27.3 25.15 -26.9 24.4 -27.25 23.6 -26.2 Q23.2 -26.35 22.8 -26.55 L21.65 -29.35 20.1 -29.75 20.7 -30.55 23.45 -29.8 24.7 -27.65 33.35 -28.15 M29.7 -17.7 L28.2 -17.35 23.2 -22.85 22.95 -24.0 23.45 -24.75 29.7 -17.7 M16.15 -16.55 L16.5 -17.95 17.4 -17.0 16.15 -16.55 M-19.0 -25.4 L-24.55 -22.2 -26.7 -23.0 -17.9 -28.1 -18.15 -31.25 -18.45 -31.4 -16.6 -33.2 -17.4 -43.1 -15.2 -41.85 -14.55 -38.2 -16.05 -32.85 -14.35 -32.1 -16.0 -31.8 -15.6 -30.75 -16.05 -30.4 -15.9 -27.3 Q-17.2 -27.35 -18.1 -26.75 -19.05 -26.2 -19.0 -25.4 M12.65 -37.0 L13.7 -38.65 15.95 -39.65 14.75 -37.7 12.65 -37.0 M19.15 -39.15 L19.15 -40.2 20.8 -40.8 20.8 -39.75 19.15 -39.15 M13.35 -31.35 L16.8 -31.4 19.6 -29.05 18.55 -28.65 18.45 -28.9 18.15 -28.85 13.7 -31.0 13.35 -31.35 M-7.15 -24.5 L-6.55 -24.8 -5.3 -23.85 -3.9 -22.75 -4.3 -22.2 -7.05 -19.5 -10.2 -16.5 -12.0 -16.9 -5.55 -23.2 -7.15 -24.5 M8.05 -24.05 L7.85 -26.25 8.0 -26.3 12.1 -20.25 11.25 -19.65 8.05 -24.05 M-8.4 -40.5 L-6.5 -39.15 -9.95 -33.35 -12.2 -32.5 -13.4 -32.25 -8.4 -40.5 M-1.2 -34.5 L-4.05 -33.95 -3.7 -35.65 -1.2 -34.5 M-14.85 -17.0 L-15.0 -15.8 -16.95 -16.0 -15.35 -26.65 -14.0 -22.8 -14.85 -17.0" fill="#d28400" fill-rule="evenodd" stroke="none"/>
    <path d="M24.85 -39.45 L26.3 -38.6 25.7 -36.85 24.85 -39.45 M24.0 -31.55 L23.65 -30.25 30.6 -33.4 33.35 -28.15 24.7 -27.65 23.45 -29.8 20.7 -30.55 20.1 -29.75 19.6 -29.05 16.8 -31.4 24.0 -31.55 M25.15 -26.9 L31.5 -23.5 29.7 -17.7 23.45 -24.75 24.25 -25.85 23.6 -26.2 24.4 -27.25 25.15 -26.9 M23.2 -22.85 L24.55 -15.95 16.15 -16.55 17.4 -17.0 18.05 -17.45 22.95 -24.0 23.2 -22.85 M-17.5 -16.2 L-23.05 -18.6 -19.0 -25.4 Q-19.05 -26.2 -18.1 -26.75 -17.2 -27.35 -15.9 -27.3 -14.5 -27.35 -13.5 -26.05 -12.5 -24.8 -12.5 -23.0 L-11.75 -22.0 -7.15 -24.5 -5.55 -23.2 -12.0 -16.9 -14.0 -22.8 -15.35 -26.65 -16.95 -16.0 -17.5 -16.2 M-26.7 -23.0 L-25.95 -29.4 -18.15 -31.25 -17.9 -28.1 -26.7 -23.0 M-18.45 -31.4 L-23.9 -37.75 -17.4 -43.1 -16.6 -33.2 -18.45 -31.4 M-14.55 -38.2 L-12.6 -44.5 -9.35 -43.55 -9.5 -43.4 -10.0 -41.6 -8.4 -40.5 -13.4 -32.25 -14.35 -32.1 -16.05 -32.85 -14.55 -38.2 M15.95 -39.65 L16.7 -38.35 14.75 -37.7 15.95 -39.65 M20.8 -40.8 L22.5 -40.35 20.8 -39.75 20.8 -40.8 M1.4 -33.85 L4.8 -36.3 9.35 -34.85 10.75 -31.65 7.9 -29.45 7.65 -29.1 2.8 -30.15 2.6 -30.8 1.4 -33.85 M8.0 -26.3 L9.1 -26.65 13.6 -21.35 13.0 -20.9 12.1 -20.25 8.0 -26.3 M18.15 -28.85 L18.45 -28.9 18.55 -28.65 18.15 -28.85 M-4.05 -33.95 L-12.2 -32.5 -9.95 -33.35 -3.7 -35.65 -4.05 -33.95" fill="#ffad22" fill-rule="evenodd" stroke="none"/>
    <path d="M25.7 -36.85 L26.95 -32.95 10.95 -32.8 9.95 -36.0 12.65 -37.0 14.75 -37.7 16.7 -38.35 19.15 -39.15 20.8 -39.75 22.5 -40.35 24.35 -40.9 24.85 -39.45 25.7 -36.85 M-9.35 -43.55 L-1.15 -50.4 4.4 -37.6 2.0 -35.1 -9.5 -43.4 -9.35 -43.55 M4.75 -36.55 L4.8 -36.55 4.8 -36.45 4.75 -36.55 M4.8 -37.15 L7.45 -52.05 17.05 -48.8 9.45 -35.45 4.8 -37.15 M20.1 -29.75 L21.65 -29.35 22.8 -26.55 Q23.2 -26.35 23.6 -26.2 L24.25 -25.85 23.45 -24.75 22.95 -24.0 18.05 -17.45 7.9 -29.45 10.75 -31.65 11.45 -32.1 13.05 -31.35 Q13.4 -31.2 13.7 -31.0 L18.15 -28.85 18.55 -28.65 19.6 -29.05 20.1 -29.75 M-0.15 -34.7 L1.0 -34.85 1.4 -33.85 2.6 -30.8 -12.5 -23.0 Q-12.5 -24.8 -13.5 -26.05 -14.5 -27.35 -15.9 -27.3 L-16.05 -30.4 -15.6 -30.75 -16.0 -31.8 -14.35 -32.1 -13.4 -32.25 -12.2 -32.5 -4.05 -33.95 -1.2 -34.5 -0.15 -34.7 M2.5 -29.55 L2.8 -30.15 7.65 -29.1 7.7 -28.3 7.8 -27.45 7.85 -26.25 8.05 -24.05 8.65 -15.25 4.9 -15.75 0.1 -16.5 -3.9 -17.2 2.5 -29.55" fill="#ffff00" fill-rule="evenodd" stroke="none"/>
    <path d="M26.95 -32.95 L26.35 -31.65 24.0 -31.55 16.8 -31.4 13.35 -31.35 13.05 -31.35 11.45 -32.1 10.75 -31.65 9.35 -34.85 4.8 -36.3 1.4 -33.85 1.0 -34.85 -0.15 -34.7 -6.5 -39.15 -8.4 -40.5 -10.0 -41.6 -9.5 -43.4 2.0 -35.1 4.4 -37.6 4.75 -36.55 4.8 -36.45 4.8 -36.55 4.8 -37.15 9.45 -35.45 9.95 -36.0 10.95 -32.8 26.95 -32.95 M16.5 -17.95 L15.6 -19.05 13.6 -21.35 9.1 -26.65 8.0 -27.95 7.7 -28.3 7.65 -29.1 7.9 -29.45 18.05 -17.45 17.4 -17.0 16.5 -17.95 M2.8 -30.15 L2.5 -29.55 -6.0 -25.05 -6.55 -24.8 -7.15 -24.5 -11.75 -22.0 -12.5 -23.0 2.6 -30.8 2.8 -30.15" fill="#b0b000" fill-rule="evenodd" stroke="none"/>
    <path d="M15.6 -19.05 L15.05 -13.35 20.6 -14.85 24.2 -13.3 21.45 -12.0 16.15 -12.6 18.55 -11.2 Q15.6 -10.45 12.7 -10.5 L4.45 -11.45 4.3 -11.55 4.75 -14.65 10.25 -13.7 11.95 -13.55 13.0 -20.9 13.6 -21.35 15.6 -19.05 M14.8 -7.4 L14.9 -0.85 11.45 -0.35 11.45 -7.35 13.35 -6.85 14.8 -7.4 M-5.3 -8.75 L-5.45 -0.3 -8.65 0.6 -8.25 -8.1 -5.3 -8.75 M-18.55 -15.8 L-17.5 -16.2 -16.95 -16.0 -15.0 -15.8 -14.85 -17.0 -11.65 -15.3 -10.95 -15.6 -10.35 -15.45 -7.65 -14.75 -7.05 -19.5 -4.3 -22.2 -5.0 -14.15 -0.45 -13.0 Q-8.5 -10.25 -15.9 -13.55 L-14.25 -14.2 -17.35 -14.4 -18.55 -15.8 M-6.55 -24.8 L-6.0 -25.05 -5.3 -23.85 -6.55 -24.8 M7.8 -27.45 L7.7 -28.3 8.0 -27.95 7.8 -27.45" fill="#cfff30" fill-rule="evenodd" stroke="none"/>
    <path d="M24.2 -13.3 L23.65 -11.95 20.6 -10.0 18.75 -10.25 18.95 -9.15 14.8 -7.4 13.35 -6.85 11.45 -7.35 11.45 -0.35 9.6 -1.25 9.7 -7.85 4.2 -9.3 3.8 5.15 -1.7 5.1 -0.95 -8.65 -3.4 -8.25 -4.15 -8.95 -5.3 -8.75 -8.25 -8.1 -8.65 0.6 -11.7 -0.3 -11.2 -7.9 -15.95 -10.2 -18.55 -15.8 -17.35 -14.4 -14.25 -14.2 -15.9 -13.55 Q-8.5 -10.25 -0.45 -13.0 L0.1 -16.5 4.9 -15.75 4.75 -14.65 4.3 -11.55 4.45 -11.45 12.7 -10.5 Q15.6 -10.45 18.55 -11.2 L16.15 -12.6 21.45 -12.0 24.2 -13.3 M12.1 -20.25 L13.0 -20.9 11.95 -13.55 10.25 -13.7 11.25 -19.65 12.1 -20.25 M-7.05 -19.5 L-7.65 -14.75 -10.35 -15.45 -10.2 -16.5 -7.05 -19.5" fill="#9fce00" fill-rule="evenodd" stroke="none"/>
  </g>
</svg>
