<?xml version="1.0" encoding="UTF-8" standalone="no"?>
<svg xmlns:xlink="http://www.w3.org/1999/xlink" height="55.3px" width="60.1px" xmlns="http://www.w3.org/2000/svg">
  <g transform="matrix(1.0, 0.0, 0.0, 1.0, 27.95, 50.15)">
    <path d="M21.85 -30.0 L28.2 -34.0 22.0 -29.25 23.25 -27.25 32.15 -29.1 23.5 -26.75 22.8 -26.8 20.65 -27.7 19.9 -28.75 18.3 -28.95 18.7 -29.5 21.65 -29.25 21.85 -30.0 M29.55 -17.9 L28.0 -17.55 22.15 -22.55 21.45 -24.55 21.6 -24.8 29.55 -17.9 M15.45 -15.6 L15.9 -18.0 17.0 -17.4 16.65 -15.75 15.45 -15.6 M-16.55 -15.65 L-17.65 -15.75 -16.9 -24.1 -15.15 -21.0 -15.55 -15.95 -15.6 -15.5 -16.55 -15.65 M-20.55 -24.15 L-25.8 -20.75 -27.95 -21.4 -19.45 -27.15 -19.7 -29.95 -20.25 -30.2 -18.6 -32.1 -20.25 -40.75 -17.85 -39.55 -17.0 -36.85 -18.05 -31.9 -15.5 -31.15 -17.6 -29.0 -19.35 -28.55 -18.3 -26.6 Q-19.25 -26.6 -19.9 -25.85 -20.6 -25.15 -20.55 -24.15 M16.8 -32.0 L18.35 -32.25 18.65 -29.7 16.8 -32.0 M10.85 -18.5 L10.2 -18.05 6.65 -21.55 6.55 -21.65 6.15 -23.65 10.85 -18.5 M-10.45 -36.2 L-11.5 -33.7 -15.35 -31.5 -12.7 -37.25 -10.45 -36.2 M-6.5 -32.0 L-6.3 -34.2 -3.45 -32.8 -6.5 -32.0 M-5.45 -22.7 L-7.35 -20.55 -10.35 -17.2 -10.9 -16.75 -12.7 -17.2 -6.55 -24.2 -4.8 -23.65 -5.45 -22.7" fill="#d28400" fill-rule="evenodd" stroke="none"/>
    <path d="M22.2 -38.8 L23.2 -38.5 22.95 -37.35 22.2 -38.8 M22.25 -32.75 L21.85 -30.0 21.65 -29.25 18.7 -29.5 18.3 -28.95 10.4 -31.1 16.8 -32.0 18.65 -29.7 18.35 -32.25 22.25 -32.75 M28.2 -34.0 L32.15 -29.1 23.25 -27.25 22.0 -29.25 28.2 -34.0 M23.5 -26.75 L30.9 -24.15 29.55 -17.9 21.6 -24.8 22.8 -26.8 23.5 -26.75 M22.15 -22.55 L24.2 -15.65 15.45 -15.6 16.65 -15.75 17.0 -17.4 17.35 -17.75 21.45 -24.55 22.15 -22.55 M-17.65 -15.75 L-24.0 -17.65 -20.55 -24.15 Q-20.6 -25.15 -19.9 -25.85 -19.25 -26.6 -18.3 -26.6 L-16.9 -24.1 -17.65 -15.75 M-27.95 -21.4 L-27.5 -27.2 -19.7 -29.95 -19.45 -27.15 -27.95 -21.4 M-20.25 -30.2 L-26.3 -35.15 -20.25 -40.75 -18.6 -32.1 -20.25 -30.2 M-17.0 -36.85 L-15.75 -42.95 -11.8 -42.5 -14.4 -39.8 -14.5 -38.15 -12.7 -37.25 -15.35 -31.5 -11.5 -33.7 -8.65 -35.3 -6.3 -34.2 -6.5 -32.0 -15.5 -29.55 -15.5 -31.15 -18.05 -31.9 -17.0 -36.85 M-1.7 -32.1 L1.45 -34.95 6.15 -34.3 8.2 -31.15 5.45 -28.6 5.3 -28.2 0.15 -28.8 -0.1 -29.35 -1.7 -32.1 M6.15 -23.95 L8.5 -24.8 13.15 -20.55 11.9 -19.4 10.85 -18.5 6.15 -23.65 6.15 -23.95 M6.55 -21.65 L6.65 -21.55 6.6 -21.55 6.55 -21.65 M-4.8 -23.65 L-6.55 -24.2 -12.7 -17.2 -13.85 -19.9 -6.2 -24.45 -4.8 -23.65" fill="#ffad22" fill-rule="evenodd" stroke="none"/>
    <path d="M22.95 -37.35 L24.45 -34.5 8.1 -32.25 6.7 -35.25 20.5 -41.95 22.2 -38.8 22.95 -37.35 M-11.8 -42.5 L-6.95 -47.3 0.7 -36.05 -1.4 -33.45 -14.4 -39.8 -11.8 -42.5 M1.35 -35.1 L1.4 -35.1 1.4 -35.05 1.35 -35.1 M1.25 -35.75 L1.4 -50.15 11.35 -48.7 6.45 -34.85 6.15 -34.4 1.25 -35.75 M18.3 -28.95 L19.9 -28.75 20.65 -27.7 22.8 -26.8 21.6 -24.8 21.45 -24.55 17.35 -17.75 5.45 -28.6 8.2 -31.15 8.9 -31.6 10.4 -31.1 18.3 -28.95 M-1.7 -32.1 L-0.1 -29.35 -14.85 -20.65 -15.15 -21.0 -16.9 -24.1 -18.3 -26.6 -19.35 -28.55 -17.6 -29.0 -15.5 -31.15 -15.5 -29.55 -6.5 -32.0 -3.45 -32.8 -2.3 -33.1 -1.7 -32.1 M0.15 -28.8 L5.3 -28.2 5.4 -27.7 5.7 -26.1 6.15 -23.95 6.15 -23.65 6.55 -21.65 6.6 -21.55 7.85 -14.8 4.35 -15.05 4.2 -15.05 -0.75 -15.45 -4.95 -15.85 -4.9 -17.5 -0.1 -28.15 0.15 -28.8" fill="#ffff00" fill-rule="evenodd" stroke="none"/>
    <path d="M24.45 -34.5 L24.2 -33.1 22.25 -32.75 18.35 -32.25 16.8 -32.0 10.4 -31.1 8.9 -31.6 8.2 -31.15 6.15 -34.3 1.45 -34.95 -1.7 -32.1 -2.3 -33.1 -3.45 -32.8 -6.3 -34.2 -8.65 -35.3 -10.45 -36.2 -12.7 -37.25 -14.5 -38.15 -14.4 -39.8 -1.4 -33.45 0.7 -36.05 1.35 -35.1 1.4 -35.05 1.4 -35.1 1.25 -35.75 6.15 -34.4 6.45 -34.85 6.7 -35.25 8.1 -32.25 24.45 -34.5 M15.9 -18.0 L14.85 -18.95 13.15 -20.55 8.5 -24.8 6.0 -27.15 5.4 -27.7 5.3 -28.2 5.45 -28.6 17.35 -17.75 17.0 -17.4 15.9 -18.0 M-0.1 -29.35 L0.15 -28.8 -0.1 -28.15 -6.2 -24.45 -13.85 -19.9 -14.85 -20.65 -0.1 -29.35" fill="#b0b000" fill-rule="evenodd" stroke="none"/>
    <path d="M14.85 -18.95 L14.7 -13.55 15.3 -13.25 20.4 -14.9 24.2 -13.55 21.4 -12.0 17.3 -12.3 18.65 -11.6 3.95 -11.15 4.2 -15.05 4.35 -15.05 4.25 -13.6 9.8 -13.1 11.5 -13.45 11.9 -19.4 13.15 -20.55 14.85 -18.95 M14.7 -7.45 L14.95 -0.8 11.5 -0.35 11.3 -7.45 13.5 -7.0 14.7 -7.45 M5.8 -8.7 L4.1 -8.4 4.1 -9.05 5.8 -8.7 M-5.15 -8.2 Q-5.25 -2.2 -5.45 -0.35 L-8.65 0.6 -8.2 -7.55 -5.15 -8.2 M-18.95 -14.8 L-16.55 -15.65 -15.6 -15.5 -15.55 -15.95 -14.9 -16.05 -10.65 -14.1 -7.85 -13.6 -7.35 -20.55 -5.45 -22.7 -4.7 -21.75 -4.9 -17.5 -4.95 -15.85 -5.0 -13.35 -2.0 -13.75 -1.0 -12.8 -1.05 -12.1 -11.45 -11.45 -17.0 -12.05 -13.65 -13.6 -17.65 -13.6 -18.95 -14.8 M5.7 -26.1 L5.4 -27.7 6.0 -27.15 5.7 -26.1" fill="#cfff30" fill-rule="evenodd" stroke="none"/>
    <path d="M24.2 -13.55 L23.65 -12.15 20.65 -10.05 19.05 -10.25 19.15 -9.55 14.7 -7.45 13.5 -7.0 11.3 -7.45 11.5 -0.35 9.6 -1.35 9.5 -7.8 5.8 -8.7 4.1 -9.05 4.1 -8.4 3.8 5.15 -1.7 5.15 -1.3 -8.6 -2.8 -8.0 -3.6 -8.6 -5.15 -8.2 -8.2 -7.55 -8.65 0.6 -11.65 -0.2 -11.25 -6.85 -16.75 -9.05 -17.0 -11.45 -18.95 -14.8 -17.65 -13.6 -13.65 -13.6 -17.0 -12.05 -11.45 -11.45 -1.05 -12.1 -1.0 -12.8 -0.75 -15.45 4.2 -15.05 3.95 -11.15 18.65 -11.6 17.3 -12.3 21.4 -12.0 24.2 -13.55 M11.9 -19.4 L11.5 -13.45 9.8 -13.1 10.2 -18.05 10.85 -18.5 11.9 -19.4 M-10.35 -17.2 L-7.35 -20.55 -7.85 -13.6 -10.65 -14.1 -10.35 -17.2" fill="#9fce00" fill-rule="evenodd" stroke="none"/>
  </g>
</svg>
