<?xml version="1.0" encoding="UTF-8" standalone="no"?>
<svg xmlns:xlink="http://www.w3.org/1999/xlink" height="54.3px" width="59.15px" xmlns="http://www.w3.org/2000/svg">
  <g transform="matrix(1.0, 0.0, 0.0, 1.0, 28.85, 49.2)">
    <path d="M19.6 -35.0 L19.6 -30.2 19.6 -29.1 25.65 -35.4 30.3 -30.6 21.5 -26.95 29.75 -25.35 29.0 -18.5 20.2 -24.6 21.35 -26.95 20.15 -26.5 21.5 -27.25 20.55 -28.45 16.3 -29.75 15.1 -33.75 19.6 -35.0 M20.8 -22.65 L23.6 -15.65 20.25 -15.3 20.0 -15.3 15.25 -14.95 16.0 -15.1 16.3 -18.95 19.0 -24.3 Q19.7 -24.35 20.25 -23.85 L20.8 -22.65 M-13.5 -18.15 L-14.05 -19.2 -11.35 -21.15 -13.5 -18.15 M-18.25 -15.95 L-24.75 -17.0 -21.95 -23.2 -21.25 -24.65 -18.2 -20.65 -18.25 -15.95 M-28.85 -20.2 L-28.65 -25.35 -21.4 -29.2 -20.8 -26.65 -20.2 -26.45 -22.0 -25.7 -28.85 -20.2 M-21.95 -29.5 L-28.25 -33.0 -22.9 -38.8 -20.45 -31.55 -21.95 -29.5 M-19.45 -35.85 L-18.85 -41.85 Q-15.4 -42.9 -14.55 -42.4 L-18.85 -36.75 -18.5 -35.2 -16.3 -34.55 -17.25 -31.6 -14.4 -33.95 -9.05 -32.25 -17.2 -29.25 -17.3 -30.6 -19.7 -31.35 -19.45 -35.85 M19.45 -38.9 L19.6 -38.9 19.6 -38.7 19.45 -38.9 M7.5 -31.55 L12.15 -32.85 14.25 -31.0 15.35 -29.95 7.5 -31.55 M8.3 -23.7 L12.85 -20.3 11.1 -18.4 9.75 -17.1 4.95 -21.2 4.7 -22.0 8.3 -23.7 M2.9 -28.5 L2.8 -27.95 -2.4 -28.1 -2.8 -28.6 -4.75 -31.0 -1.95 -34.2 2.85 -34.2 5.35 -31.4 2.9 -28.5 M-15.9 -28.75 L-14.85 -28.45 -16.85 -27.7 -15.9 -28.75" fill="#ffad22" fill-rule="evenodd" stroke="none"/>
    <path d="M19.6 -30.2 L25.65 -35.4 19.6 -29.1 19.6 -30.2 M29.0 -18.5 L27.55 -18.1 20.8 -22.65 20.25 -23.85 Q19.7 -24.35 19.0 -24.3 L20.55 -28.45 21.5 -27.25 20.15 -26.5 21.35 -26.95 20.2 -24.6 29.0 -18.5 M-10.7 -18.6 L-11.4 -17.6 -13.5 -18.15 -11.35 -21.15 -6.25 -24.8 -7.0 -23.65 -8.95 -20.95 -10.7 -18.6 M-16.1 -18.4 L-16.15 -15.75 -18.25 -15.95 -18.2 -20.65 -16.65 -18.75 -16.1 -18.4 M-21.95 -23.2 L-26.4 -19.65 -28.85 -20.2 -22.0 -25.7 -21.25 -24.65 -21.95 -23.2 M-21.4 -29.2 L-20.1 -28.85 -21.95 -29.5 -20.45 -31.55 -22.9 -38.8 -20.3 -37.6 -19.45 -35.85 -19.7 -31.35 -17.3 -30.6 -19.15 -28.5 -18.75 -27.0 -20.2 -26.45 -20.8 -26.65 -21.4 -29.2 M13.55 -33.25 L15.1 -33.75 16.3 -29.75 15.35 -29.95 14.25 -31.0 13.55 -33.25 M15.2 -18.6 L15.8 -18.25 16.2 -18.8 16.3 -18.95 16.0 -15.1 15.25 -14.95 15.2 -18.6 M5.5 -19.55 L4.95 -21.2 9.75 -17.1 9.5 -16.9 8.9 -16.6 5.5 -19.55 M-16.3 -34.55 L-14.4 -33.95 -17.25 -31.6 -16.3 -34.55 M-9.05 -32.25 L-6.65 -31.55 -14.85 -28.45 -15.9 -28.75 -17.2 -29.25 -9.05 -32.25" fill="#d28400" fill-rule="evenodd" stroke="none"/>
    <path d="M-14.55 -42.4 L-12.6 -44.8 -2.95 -35.15 -4.75 -32.4 -18.85 -36.75 -14.55 -42.4 M-2.15 -34.35 L-2.15 -34.45 -2.05 -34.3 -2.15 -34.35 M-2.4 -34.95 L-4.8 -48.85 5.1 -49.2 3.1 -35.25 15.4 -44.2 19.45 -38.9 19.6 -38.7 20.9 -37.0 5.0 -32.4 3.05 -35.2 2.85 -34.3 2.75 -34.95 -2.4 -34.95 M5.35 -31.4 L5.8 -31.9 7.5 -31.55 15.35 -29.95 16.3 -29.75 20.55 -28.45 19.0 -24.3 16.3 -18.95 16.2 -18.8 2.9 -28.5 5.35 -31.4 M2.8 -27.95 L2.9 -27.65 3.65 -25.35 4.7 -22.0 4.95 -21.2 5.5 -19.55 6.8 -14.95 3.75 -14.95 3.6 -14.95 -1.45 -14.95 -5.2 -15.0 -6.45 -15.0 -5.35 -19.5 -2.65 -27.35 -2.4 -28.1 2.8 -27.95 M-4.75 -31.0 L-2.8 -28.6 -16.65 -18.75 -18.2 -20.65 -21.25 -24.65 -22.0 -25.7 -20.2 -26.45 -18.75 -27.0 -19.15 -28.5 -17.3 -30.6 -17.2 -29.25 -15.9 -28.75 -16.85 -27.7 -14.85 -28.45 -6.65 -31.55 -5.45 -31.75 -4.75 -31.0" fill="#ffff00" fill-rule="evenodd" stroke="none"/>
    <path d="M20.9 -37.0 L21.0 -35.4 19.6 -35.0 15.1 -33.75 13.55 -33.25 12.15 -32.85 7.5 -31.55 5.8 -31.9 5.35 -31.4 2.85 -34.2 -1.95 -34.2 -4.75 -31.0 -5.45 -31.75 -6.65 -31.55 -9.05 -32.25 -14.4 -33.95 -16.3 -34.55 -18.5 -35.2 -18.85 -36.75 -4.75 -32.4 -2.95 -35.15 -2.15 -34.35 -2.05 -34.3 -2.15 -34.45 -2.4 -34.95 2.75 -34.95 2.85 -34.3 3.05 -35.2 5.0 -32.4 20.9 -37.0 M-14.05 -19.2 L-15.6 -18.15 -16.1 -18.4 -16.65 -18.75 -2.8 -28.6 -2.4 -28.1 -2.65 -27.35 -6.25 -24.8 -11.35 -21.15 -14.05 -19.2 M2.9 -27.65 L2.8 -27.95 2.9 -28.5 16.2 -18.8 15.8 -18.25 15.2 -18.6 14.1 -19.45 12.85 -20.3 8.3 -23.7 3.85 -27.0 2.9 -27.65" fill="#b0b000" fill-rule="evenodd" stroke="none"/>
    <path d="M20.25 -15.3 L24.05 -14.15 21.25 -12.3 Q16.55 -13.0 11.95 -11.75 8.0 -10.65 3.6 -11.1 L3.5 -11.15 3.6 -14.95 3.75 -14.95 3.85 -12.8 9.4 -13.45 11.1 -13.95 11.1 -18.4 12.85 -20.3 14.1 -19.45 14.3 -14.2 15.75 -13.55 20.0 -15.3 20.25 -15.3 M19.1 -10.4 L19.05 -10.4 19.05 -10.45 19.1 -10.4 M14.6 -7.95 L14.9 -0.85 11.45 -0.35 11.15 -7.75 13.45 -7.35 14.6 -7.95 M3.95 -8.0 L3.85 1.25 3.7 -10.05 3.95 -8.0 M-5.1 -7.9 Q-5.1 -3.45 -5.5 -0.35 L-8.7 0.55 -8.25 -7.05 -5.1 -7.9 M-17.7 -10.75 L-17.3 -11.0 -12.75 -13.15 -17.95 -12.9 -19.2 -13.9 -15.25 -15.3 -10.9 -13.8 -10.9 -13.25 -8.1 -12.7 -8.05 -20.85 -8.95 -20.95 -7.0 -23.65 -5.4 -21.75 -5.35 -19.5 -6.45 -15.0 -5.2 -15.0 -5.2 -13.55 -2.2 -14.3 -1.5 -13.65 -1.55 -11.7 -17.7 -10.75 M2.9 -27.65 L3.85 -27.0 3.65 -25.35 2.9 -27.65" fill="#cfff30" fill-rule="evenodd" stroke="none"/>
    <path d="M24.05 -14.15 Q24.05 -12.6 22.6 -11.5 21.1 -10.4 19.1 -10.4 L19.05 -10.45 19.05 -10.4 14.6 -7.95 13.45 -7.35 11.15 -7.75 11.45 -0.35 9.6 -1.25 Q9.25 -4.2 9.35 -8.1 L6.4 -8.55 4.85 -7.85 3.95 -8.0 3.7 -10.05 3.85 1.25 3.8 4.9 -1.7 5.1 -1.6 -8.8 -5.1 -7.9 -8.25 -7.05 -8.7 0.55 -11.7 -0.25 -11.55 -6.15 -17.25 -8.05 -17.7 -10.75 -1.55 -11.7 -1.5 -13.65 -1.45 -14.95 3.6 -14.95 3.5 -11.15 3.6 -11.1 Q8.0 -10.65 11.95 -11.75 16.55 -13.0 21.25 -12.3 L24.05 -14.15 M-17.3 -11.0 L-19.2 -13.9 -17.95 -12.9 -12.75 -13.15 -17.3 -11.0 M-10.9 -13.8 L-10.7 -18.6 -8.95 -20.95 -8.05 -20.85 -8.1 -12.7 -10.9 -13.25 -10.9 -13.8 M11.1 -18.4 L11.1 -13.95 9.4 -13.45 9.5 -16.9 9.75 -17.1 11.1 -18.4" fill="#9fce00" fill-rule="evenodd" stroke="none"/>
  </g>
</svg>
