<?xml version="1.0" encoding="UTF-8" standalone="no"?>
<svg xmlns:xlink="http://www.w3.org/1999/xlink" height="55.75px" width="57.7px" xmlns="http://www.w3.org/2000/svg">
  <g transform="matrix(1.0, 0.0, 0.0, 1.0, 29.7, 50.6)">
    <path d="M17.5 -31.25 L16.95 -29.35 16.65 -28.45 18.25 -27.1 17.4 -24.65 15.45 -24.15 14.45 -20.65 0.25 -29.3 2.2 -32.55 2.6 -33.1 4.35 -32.9 8.85 -32.5 11.2 -32.25 12.85 -32.15 17.15 -31.75 17.6 -31.7 17.5 -31.25 M-21.85 -35.65 L-21.6 -36.25 -17.75 -43.1 -17.65 -43.15 -17.0 -42.7 -14.7 -41.05 -14.6 -41.0 -12.85 -39.75 -8.25 -36.5 -6.3 -35.1 -7.85 -32.35 -22.35 -34.65 -21.85 -35.65 M-5.5 -34.55 L-5.55 -34.65 -5.35 -34.5 -5.5 -34.55 M-5.9 -35.1 L-10.8 -48.4 Q-5.05 -50.7 -0.95 -50.6 L-0.9 -35.75 -5.9 -35.1 M-0.5 -36.3 L9.85 -47.1 16.4 -40.4 1.7 -33.55 -0.5 -36.3 M-7.5 -30.85 L-5.1 -28.55 -17.75 -17.75 -18.85 -18.85 -22.9 -23.0 -23.7 -23.85 -22.35 -24.6 -13.65 -29.1 -12.9 -29.5 -9.65 -31.2 -8.45 -31.6 -7.5 -30.85 M-4.9 -28.35 L0.35 -28.65 0.4 -28.45 1.9 -24.9 3.7 -20.75 4.2 -19.6 4.8 -18.35 5.8 -15.9 3.1 -15.65 2.85 -15.6 -2.1 -15.2 -2.6 -15.2 -3.15 -15.15 -5.6 -15.0 -7.7 -15.1 -6.3 -22.05 -5.1 -27.35 -4.9 -28.35 M1.55 -27.75 L1.65 -27.7 1.55 -27.7 1.55 -27.75 M-17.45 -29.8 L-19.1 -26.8 -19.8 -26.75 -20.4 -28.5 -18.9 -30.75 -18.75 -30.2 -17.45 -29.8" fill="#ffff00" fill-rule="evenodd" stroke="none"/>
    <path d="M16.95 -29.35 L17.5 -29.65 19.55 -27.95 18.75 -27.35 19.45 -27.7 18.6 -25.1 28.0 -19.7 26.5 -19.25 19.25 -23.4 18.5 -24.8 17.4 -24.65 18.25 -27.1 16.65 -28.45 16.95 -29.35 M-11.3 -20.7 L-12.2 -19.1 -13.85 -19.55 -10.3 -22.7 -10.25 -22.6 -11.3 -20.7 M-16.7 -17.25 L-16.75 -16.5 -18.75 -16.75 -18.85 -18.85 -17.75 -17.75 -16.7 -17.25 M-23.0 -22.8 L-26.8 -19.0 -29.2 -19.5 -21.9 -26.85 -22.7 -29.1 -21.5 -28.85 -23.2 -29.5 -22.1 -31.7 -25.2 -37.65 -22.45 -36.5 -21.85 -35.65 -22.35 -34.65 -21.55 -33.15 -21.4 -31.6 -19.1 -31.95 -18.9 -30.75 -20.4 -28.5 -19.8 -26.75 Q-20.85 -26.75 -21.6 -26.1 -22.35 -25.5 -22.35 -24.6 L-23.7 -23.85 -22.9 -23.0 -23.0 -22.8 M-16.9 -43.3 L-14.35 -42.6 -14.6 -41.05 -14.7 -41.05 -17.0 -42.7 -16.9 -43.3 M9.75 -35.35 L10.95 -35.95 12.85 -32.15 11.2 -32.25 9.75 -35.35 M14.3 -20.25 L14.45 -20.65 15.45 -24.15 15.35 -14.9 14.8 -14.85 14.2 -15.1 14.3 -20.25 M9.0 -16.3 L8.2 -15.95 4.8 -18.35 4.2 -19.6 9.0 -16.3 M-17.45 -29.8 L-18.75 -30.2 -15.7 -32.2 -11.6 -31.55 -13.7 -30.2 -14.95 -29.35 -17.45 -29.8" fill="#d28400" fill-rule="evenodd" stroke="none"/>
    <path d="M17.5 -31.25 L22.65 -37.4 27.9 -32.8 18.75 -27.35 19.55 -27.95 17.5 -29.65 16.95 -29.35 17.5 -31.25 M19.45 -27.7 L28.0 -27.1 28.0 -19.7 18.6 -25.1 19.45 -27.7 M19.25 -23.4 L23.0 -16.25 20.7 -15.8 18.25 -15.35 15.35 -14.9 15.45 -24.15 17.4 -24.65 18.5 -24.8 19.25 -23.4 M-16.75 -16.5 L-24.95 -16.95 -23.0 -22.8 -22.9 -23.0 -18.85 -18.85 -18.75 -16.75 -16.75 -16.5 M-29.2 -19.5 L-29.3 -24.15 -22.7 -29.1 -21.9 -26.85 -29.2 -19.5 M-21.5 -28.85 L-29.7 -31.6 -25.2 -37.65 -22.1 -31.7 -23.2 -29.5 -21.5 -28.85 M-21.6 -36.25 L-21.65 -41.55 Q-18.65 -43.3 -17.75 -43.1 L-21.6 -36.25 M-17.65 -43.15 L-16.9 -43.3 -17.0 -42.7 -17.65 -43.15 M-14.6 -41.05 L-14.6 -41.0 -14.7 -41.05 -14.6 -41.05 M-12.85 -39.75 L-11.95 -40.7 -8.7 -39.45 -8.25 -36.5 -12.85 -39.75 M16.15 -38.3 L17.15 -31.75 12.85 -32.15 10.95 -35.95 16.15 -38.3 M6.65 -33.95 L8.85 -32.5 4.35 -32.9 6.65 -33.95 M0.25 -29.3 L0.35 -28.65 -4.9 -28.35 -5.1 -28.55 -7.5 -30.85 -5.2 -34.4 -0.5 -35.05 2.2 -32.55 0.25 -29.3 M8.2 -23.6 L12.5 -20.95 10.45 -18.15 9.05 -16.3 9.0 -16.3 4.2 -19.6 3.7 -20.75 8.2 -23.6 M-19.8 -26.75 L-19.1 -26.8 -17.45 -29.8 -14.95 -29.35 -13.65 -29.1 -22.35 -24.6 Q-22.35 -25.5 -21.6 -26.1 -20.85 -26.75 -19.8 -26.75 M-18.75 -30.2 L-18.9 -30.75 -19.1 -31.95 -21.4 -31.6 -21.55 -33.15 -15.7 -32.2 -18.75 -30.2 M-10.15 -22.85 L-10.25 -22.6 -10.3 -22.7 -10.15 -22.85" fill="#ffad22" fill-rule="evenodd" stroke="none"/>
    <path d="M-13.85 -19.55 L-16.7 -17.25 -17.75 -17.75 -5.1 -28.55 -4.9 -28.35 -5.1 -27.35 -8.3 -24.5 -10.15 -22.85 -10.3 -22.7 -13.85 -19.55 M-6.3 -35.1 L-5.5 -34.55 -5.35 -34.5 -5.55 -34.65 -5.9 -35.1 -0.9 -35.75 -0.95 -50.6 -0.5 -36.3 1.7 -33.55 16.4 -40.4 16.95 -38.8 Q17.3 -38.75 16.15 -38.3 L10.95 -35.95 9.75 -35.35 6.65 -33.95 4.35 -32.9 2.6 -33.1 2.2 -32.55 -0.5 -35.05 -5.2 -34.4 -7.5 -30.85 -8.45 -31.6 -9.65 -31.2 -11.6 -31.55 -15.7 -32.2 -21.55 -33.15 -22.35 -34.65 -7.85 -32.35 -6.3 -35.1 M0.35 -28.65 L0.25 -29.3 14.45 -20.65 14.3 -20.25 14.15 -20.0 13.4 -20.45 12.5 -20.95 8.2 -23.6 1.65 -27.7 1.55 -27.75 0.4 -28.45 0.35 -28.65" fill="#b0b000" fill-rule="evenodd" stroke="none"/>
    <path d="M20.7 -15.8 L23.65 -15.0 20.95 -12.9 18.05 -12.8 17.6 -13.8 Q11.0 -9.0 3.1 -11.5 L2.85 -15.6 3.1 -15.65 3.45 -12.4 9.15 -14.45 10.7 -15.0 10.45 -18.15 12.5 -20.95 13.4 -20.45 14.2 -15.1 14.8 -14.85 16.2 -14.35 18.25 -15.35 20.7 -15.8 M14.45 -8.95 L14.95 -0.85 11.45 -0.35 11.1 -8.4 13.15 -8.15 14.45 -8.95 M3.75 -7.7 L3.85 4.75 3.3 -10.7 3.75 -7.7 M-5.25 -7.75 L-5.6 -0.25 -8.7 0.55 -8.35 -6.75 -5.25 -7.75 M-17.75 -9.95 L-17.1 -10.3 -13.0 -12.55 -8.4 -12.35 -8.85 -21.4 -10.25 -22.6 -10.15 -22.85 -8.3 -24.5 -6.3 -22.05 -7.7 -15.1 -5.6 -15.0 -5.55 -14.25 -3.15 -15.15 -2.6 -15.2 -2.05 -14.7 -2.0 -13.2 -4.75 -12.2 -1.95 -11.8 Q-7.1 -10.6 -12.3 -10.0 -15.0 -9.7 -17.75 -9.95 M-19.3 -13.35 L-15.5 -14.85 -11.15 -13.8 -18.05 -12.6 -19.3 -13.35 M0.4 -28.45 L1.55 -27.75 1.55 -27.7 1.9 -24.9 0.4 -28.45 M-13.65 -29.1 L-14.95 -29.35 -13.7 -30.2 -12.9 -29.5 -13.65 -29.1" fill="#cfff30" fill-rule="evenodd" stroke="none"/>
    <path d="M23.65 -15.0 L23.25 -13.5 20.4 -10.85 17.5 -10.9 14.45 -8.95 13.15 -8.15 11.1 -8.4 11.45 -0.35 9.55 -1.25 9.35 -8.6 7.15 -8.85 4.9 -7.55 3.75 -7.7 3.3 -10.7 3.85 4.75 -1.7 5.15 -1.85 -8.85 -5.25 -7.75 -8.35 -6.75 -8.7 0.55 -11.65 -0.25 -11.55 -5.8 -17.25 -7.45 -17.75 -9.95 Q-15.0 -9.7 -12.3 -10.0 -7.1 -10.6 -1.95 -11.8 L-4.75 -12.2 -2.0 -13.2 -2.05 -14.7 -2.1 -15.2 2.85 -15.6 3.1 -11.5 Q11.0 -9.0 17.6 -13.8 L18.05 -12.8 20.95 -12.9 23.65 -15.0 M-17.1 -10.3 L-19.3 -13.35 -18.05 -12.6 -11.15 -13.8 -11.3 -20.7 -10.25 -22.6 -8.85 -21.4 -8.4 -12.35 -13.0 -12.55 -17.1 -10.3 M10.45 -18.15 L10.7 -15.0 9.15 -14.45 9.05 -16.3 10.45 -18.15" fill="#9fce00" fill-rule="evenodd" stroke="none"/>
  </g>
</svg>
