<?xml version="1.0" encoding="UTF-8" standalone="no"?>
<svg xmlns:xlink="http://www.w3.org/1999/xlink" height="65.45px" width="53.8px" xmlns="http://www.w3.org/2000/svg">
  <g transform="matrix(1.0, 0.0, 0.0, 1.0, 31.65, 60.3)">
    <path d="M12.1 -33.2 L11.75 -32.6 11.45 -32.25 8.95 -33.6 9.7 -34.25 8.95 -35.75 10.4 -46.55 9.85 -34.65 12.1 -33.2 M22.15 -25.5 L21.2 -24.65 13.25 -28.1 12.45 -29.25 11.8 -28.95 12.4 -29.55 22.15 -25.5 M-21.2 -20.15 L-23.35 -19.25 -25.2 -19.65 -22.35 -20.9 -21.2 -20.15 M-25.55 -22.95 L-26.75 -20.1 -28.9 -20.6 -24.85 -30.75 -25.85 -32.25 -26.6 -30.7 -28.95 -29.9 -31.65 -30.95 -27.8 -32.45 Q-27.25 -31.85 -27.05 -32.05 L-23.55 -32.95 -23.6 -31.4 -24.45 -30.6 -24.95 -24.5 -25.4 -23.3 -25.55 -22.95 M-26.45 -48.65 L-24.4 -48.2 -23.5 -47.3 -23.05 -44.75 -23.65 -41.65 -25.1 -41.95 -26.45 -48.65 M5.2 -33.15 L5.05 -34.6 7.45 -32.4 7.25 -32.25 5.8 -32.6 5.2 -33.15 M-2.75 -32.35 L-1.5 -31.8 -0.1 -27.2 4.9 -28.85 5.6 -28.55 5.6 -29.1 7.8 -29.8 7.2 -29.1 6.8 -28.95 6.7 -28.65 6.2 -28.5 -1.0 -26.3 -2.75 -32.35 M9.5 -26.6 L10.1 -27.65 11.95 -19.65 11.1 -19.9 9.5 -26.6 M4.0 -18.45 L3.65 -18.15 0.95 -19.45 4.0 -18.45 M-17.8 -41.55 L-18.2 -40.5 -21.75 -41.2 -20.6 -44.4 -17.8 -41.55 M-22.9 -32.05 L-22.6 -32.0 -20.7 -30.2 -22.0 -28.3 -22.9 -32.05" fill="#d28400" fill-rule="evenodd" stroke="none"/>
    <path d="M-19.45 -19.05 L-21.2 -20.15 -22.35 -20.9 -25.05 -22.6 -25.55 -22.95 -25.4 -23.3 -24.95 -24.0 -22.0 -28.3 -20.7 -30.2 -17.9 -34.3 -16.85 -35.7 -15.5 -34.95 -13.3 -33.75 -19.45 -19.05 M-29.0 -37.15 L-29.25 -42.8 -28.7 -42.75 -25.1 -41.95 -23.65 -41.65 -21.75 -41.2 -18.2 -40.5 -17.05 -40.2 -16.75 -36.7 -28.8 -33.45 -29.0 -37.15 M-24.4 -48.2 L-27.25 -51.2 Q-24.45 -56.65 -21.25 -58.7 L-12.9 -42.9 -16.45 -40.25 -17.8 -41.55 -20.6 -44.4 -22.65 -46.45 -23.5 -47.3 -24.4 -48.2 M-12.85 -43.9 L-10.35 -60.3 -1.7 -55.0 -9.95 -41.4 -12.85 -43.35 -12.85 -43.9 M-6.9 -41.55 L0.75 -43.5 3.65 -44.2 5.25 -29.8 -9.15 -36.1 -8.95 -40.25 -8.85 -41.1 -6.9 -41.55 M-8.6 -35.2 L-8.35 -34.95 -3.25 -27.2 0.05 -22.05 -10.65 -18.5 -12.0 -28.1 -12.5 -31.6 -12.75 -33.35 -9.1 -35.65 -8.6 -35.2 M7.45 -32.4 L8.95 -33.6 11.45 -32.25 11.7 -28.9 9.75 -27.8 7.2 -29.1 7.8 -29.8 7.25 -32.25 7.45 -32.4 M-23.55 -32.95 L-22.85 -33.1 -22.95 -32.45 -22.6 -32.0 -22.9 -32.05 -23.6 -31.4 -23.55 -32.95" fill="#ffff00" fill-rule="evenodd" stroke="none"/>
    <path d="M10.4 -46.55 L17.2 -42.6 12.1 -33.2 9.85 -34.65 10.4 -46.55 M11.75 -32.6 L19.8 -35.3 22.15 -25.5 12.4 -29.55 11.8 -28.95 12.45 -29.25 13.25 -28.1 19.0 -20.25 17.5 -19.5 15.85 -18.65 13.15 -17.4 11.95 -19.65 10.1 -27.65 9.5 -26.6 8.05 -20.85 7.25 -21.0 4.0 -18.45 0.95 -19.45 6.25 -28.0 6.7 -28.65 6.8 -28.95 7.2 -29.1 9.75 -27.8 11.7 -28.9 11.45 -32.25 11.75 -32.6 M-25.2 -19.65 L-25.05 -22.6 -22.35 -20.9 -25.2 -19.65 M-28.9 -20.6 L-29.55 -23.6 -26.6 -30.7 -25.85 -32.25 -24.85 -30.75 -28.9 -20.6 M-31.65 -30.95 L-29.9 -37.45 -29.0 -37.15 -28.8 -33.45 -27.8 -32.45 -31.65 -30.95 M-28.7 -42.75 L-28.9 -43.35 -26.45 -48.65 -25.1 -41.95 -28.7 -42.75 M0.75 -43.5 L3.15 -45.8 8.95 -35.75 9.7 -34.25 8.95 -33.6 7.45 -32.4 5.05 -34.6 3.65 -44.2 0.75 -43.5 M-9.15 -36.1 L-8.6 -35.2 -9.1 -35.65 -12.75 -33.35 -13.3 -33.75 -15.5 -34.95 -15.2 -39.45 -11.85 -41.85 -8.95 -40.25 -9.15 -36.1 M-1.5 -31.8 L4.9 -28.85 -0.1 -27.2 -1.5 -31.8 M5.6 -29.1 L5.25 -32.7 5.8 -32.6 7.25 -32.25 7.8 -29.8 5.6 -29.1 M-22.85 -33.1 L-17.9 -34.3 -20.7 -30.2 -22.6 -32.0 -22.95 -32.45 -22.85 -33.1 M-20.6 -44.4 L-21.75 -41.2 -23.65 -41.65 -23.05 -44.75 -22.65 -46.45 -20.6 -44.4 M-23.6 -31.4 L-22.9 -32.05 -22.0 -28.3 -24.95 -24.0 -24.95 -24.5 -24.45 -30.6 -23.6 -31.4" fill="#ffad22" fill-rule="evenodd" stroke="none"/>
    <path d="M-15.25 -25.25 L-18.15 -18.6 -19.45 -19.05 -13.3 -33.75 -12.75 -33.35 -12.5 -31.6 -13.4 -29.55 -14.35 -27.3 -15.25 -25.25 M-21.25 -58.7 L-19.6 -57.25 -12.85 -43.9 -12.85 -43.35 -9.95 -41.4 -1.7 -55.0 0.1 -52.7 -6.9 -41.55 -8.85 -41.1 -8.95 -40.25 -11.85 -41.85 -15.2 -39.45 -15.5 -34.95 -16.85 -35.7 -17.9 -34.3 -22.85 -33.1 -23.55 -32.95 -27.05 -32.05 Q-27.25 -31.85 -27.8 -32.45 L-28.8 -33.45 -16.75 -36.7 -17.05 -40.2 -15.4 -39.5 -16.45 -40.25 -12.9 -42.9 -21.25 -58.7 M5.2 -33.15 L5.25 -32.7 5.6 -29.1 5.6 -28.55 4.9 -28.85 -1.5 -31.8 -2.75 -32.35 -6.55 -34.1 -8.35 -34.95 -8.6 -35.2 -9.15 -36.1 5.25 -29.8 3.65 -44.2 5.05 -34.6 5.2 -33.15 M-1.05 -21.3 L-1.5 -21.15 -5.35 -19.75 -6.0 -19.5 -7.55 -19.0 -8.5 -18.7 -9.95 -18.15 -10.65 -18.5 0.05 -22.05 -1.05 -21.3" fill="#b0b000" fill-rule="evenodd" stroke="none"/>
    <path d="M17.5 -19.5 L20.55 -18.8 18.65 -15.8 12.8 -14.75 13.35 -12.75 14.85 -0.8 11.5 -0.4 10.4 -12.1 13.65 -16.5 15.85 -18.65 17.5 -19.5 M2.35 -8.45 L3.8 4.85 0.55 -14.45 1.65 -11.75 1.85 -11.05 2.25 -11.75 6.4 -11.6 5.7 -11.05 1.95 -10.5 2.35 -8.45 M-6.75 -8.8 L-5.55 -0.3 -8.7 0.55 -9.4 -7.4 -6.75 -8.8 M-16.95 -10.1 L-16.75 -10.35 -13.3 -13.25 -10.15 -13.7 -10.45 -15.45 -9.0 -13.8 -3.95 -14.4 Q-9.65 -9.75 -16.95 -10.1 M-19.4 -13.5 L-16.4 -15.45 -12.8 -15.6 -19.4 -13.5 M-8.35 -34.95 L-6.55 -34.1 -3.25 -27.2 -8.35 -34.95 M6.25 -28.0 L6.2 -28.5 6.7 -28.65 6.25 -28.0 M9.5 -26.6 L11.1 -19.9 11.95 -19.65 7.75 -15.55 0.55 -14.45 -1.5 -21.15 -1.05 -21.3 0.65 -15.75 3.65 -18.15 4.0 -18.45 7.25 -21.0 8.05 -20.85 9.5 -26.6 M-12.0 -28.1 L-10.65 -18.5 -9.95 -18.15 -8.5 -18.7 -8.4 -18.1 -7.55 -19.0 -6.0 -19.5 -5.3 -18.7 -8.6 -15.75 -10.45 -15.55 -12.5 -25.55 -14.35 -27.3 -13.4 -29.55 -12.0 -28.1 M-5.0 -18.45 L-4.9 -18.35 -5.0 -18.45" fill="#cfff30" fill-rule="evenodd" stroke="none"/>
    <path d="M20.55 -18.8 L20.75 -16.65 18.8 -13.1 13.35 -12.75 12.8 -14.75 18.65 -15.8 20.55 -18.8 M11.5 -0.4 L9.65 -1.25 9.2 -11.25 5.5 -8.25 2.35 -8.45 1.95 -10.5 5.7 -11.05 6.4 -11.6 2.25 -11.75 1.65 -11.75 0.55 -14.45 3.8 4.85 -1.7 5.15 -3.15 -10.65 -6.75 -8.8 -9.4 -7.4 -8.7 0.55 -11.75 -0.25 -11.9 -6.7 -16.1 -7.55 -16.95 -10.1 Q-9.65 -9.75 -3.95 -14.4 L-9.0 -13.8 -10.45 -15.45 -10.15 -13.7 -13.3 -13.25 -16.75 -10.35 -19.4 -13.5 -12.8 -15.6 -14.35 -24.5 -15.25 -25.25 -14.35 -27.3 -12.5 -25.55 -10.45 -15.55 -8.6 -15.75 -5.3 -18.7 -5.0 -18.45 -5.35 -19.75 -1.5 -21.15 0.55 -14.45 7.75 -15.55 11.95 -19.65 13.15 -17.4 13.65 -16.5 10.4 -12.1 11.5 -0.4 M-5.0 -18.45 L-4.9 -18.35 -5.0 -18.45" fill="#9fce00" fill-rule="evenodd" stroke="none"/>
  </g>
</svg>
