<?xml version="1.0" encoding="UTF-8" standalone="no"?>
<svg xmlns:xlink="http://www.w3.org/1999/xlink" height="7.15px" width="10.0px" xmlns="http://www.w3.org/2000/svg">
  <g transform="matrix(1.0, 0.0, 0.0, 1.0, 5.0, 3.6)">
    <path d="M-1.45 2.65 L-5.0 2.0 -4.1 -3.6 -0.55 -3.0 -1.45 2.65" fill="#ffffff" fill-rule="evenodd" stroke="none"/>
    <path d="M4.1 3.55 L0.55 2.9 1.45 -2.7 5.0 -2.1 4.1 3.55" fill="#ffffff" fill-rule="evenodd" stroke="none"/>
    <path d="M-1.95 2.5 L-4.5 2.1 -3.85 -1.9 -1.35 -1.45 -1.95 2.5" fill="#000000" fill-rule="evenodd" stroke="none"/>
    <path d="M3.5 3.4 L1.0 3.0 1.65 -1.0 4.15 -0.55 3.5 3.4" fill="#000000" fill-rule="evenodd" stroke="none"/>
    <path d="M2.65 0.95 L1.85 0.8 2.05 -0.45 2.85 -0.3 2.65 0.95" fill="#ffffff" fill-rule="evenodd" stroke="none"/>
    <path d="M-2.9 0.1 L-3.7 -0.05 -3.5 -1.3 -2.7 -1.15 -2.9 0.1" fill="#ffffff" fill-rule="evenodd" stroke="none"/>
  </g>
</svg>
