<?xml version="1.0" encoding="UTF-8" standalone="no"?>
<svg xmlns:xlink="http://www.w3.org/1999/xlink" height="53.9px" width="38.85px" xmlns="http://www.w3.org/2000/svg">
  <g transform="matrix(1.0, 0.0, 0.0, 1.0, 19.75, 51.1)">
    <path d="M0.05 -39.95 L0.05 2.8 -1.8 1.7 -1.8 -41.05 0.05 -39.95" fill="#974c2b" fill-rule="evenodd" stroke="none"/>
    <path d="M2.6 -40.3 L2.6 1.95 -0.05 2.7 -0.05 -39.95 2.6 -40.3" fill="#ac641c" fill-rule="evenodd" stroke="none"/>
    <path d="M-1.8 -41.05 L0.6 -41.3 2.6 -40.3 -0.05 -39.95 -1.8 -41.05" fill="#974c2b" fill-rule="evenodd" stroke="none"/>
    <path d="M10.8 -31.95 L8.15 -33.05 16.4 -33.8 19.05 -32.7 10.8 -31.95" fill="#a00000" fill-rule="evenodd" stroke="none"/>
    <path d="M1.7 -12.2 L-0.95 -13.3 -1.0 -13.35 1.65 -12.25 1.7 -12.2" fill="#800000" fill-rule="evenodd" stroke="none"/>
    <path d="M1.4 -20.8 L-1.25 -21.9 8.15 -33.05 10.8 -31.95 1.4 -20.8" fill="#8f0000" fill-rule="evenodd" stroke="none"/>
    <path d="M1.65 -12.2 L-1.0 -13.3 -1.3 -21.95 1.35 -20.85 1.65 -12.2" fill="#800000" fill-rule="evenodd" stroke="none"/>
    <path d="M10.8 -31.95 L19.05 -32.7 1.7 -12.2 1.65 -12.2 1.35 -20.85 1.4 -20.8 10.8 -31.95" fill="#e40000" fill-rule="evenodd" stroke="none"/>
    <path d="M10.75 -31.95 L8.15 -33.05 -2.05 -42.5 0.6 -41.4 10.75 -31.95" fill="#808080" fill-rule="evenodd" stroke="none"/>
    <path d="M0.65 -41.4 L-2.0 -42.5 -2.35 -51.1 0.3 -50.0 0.65 -41.4" fill="#808080" fill-rule="evenodd" stroke="none"/>
    <path d="M0.3 -50.05 L19.1 -32.8 19.05 -32.75 10.8 -32.0 0.65 -41.45 0.3 -50.05" fill="#e4e4e4" fill-rule="evenodd" stroke="none"/>
    <path d="M-17.0 -29.4 L-19.65 -30.5 -11.4 -31.25 -8.75 -30.15 -17.0 -29.4" fill="#a0a0a0" fill-rule="evenodd" stroke="none"/>
    <path d="M-17.0 -29.4 L-8.75 -30.15 1.35 -20.85 1.65 -12.2 -17.0 -29.4" fill="#e4e4e4" fill-rule="evenodd" stroke="none"/>
    <path d="M1.65 -12.25 L-1.0 -13.3 -19.65 -30.5 -17.0 -29.4 1.65 -12.25" fill="#808080" fill-rule="evenodd" stroke="none"/>
    <path d="M-17.05 -29.4 L-19.7 -30.5 -19.75 -30.55 -17.1 -29.45 -17.05 -29.4" fill="#800000" fill-rule="evenodd" stroke="none"/>
    <path d="M-17.1 -29.45 L-19.75 -30.55 -2.4 -51.1 0.25 -50.0 -17.1 -29.45" fill="#8f0000" fill-rule="evenodd" stroke="none"/>
    <path d="M0.25 -50.05 L0.6 -41.4 -8.85 -30.25 -8.8 -30.2 -17.05 -29.45 -17.1 -29.5 0.25 -50.05" fill="#e40000" fill-rule="evenodd" stroke="none"/>
  </g>
</svg>
