<?xml version="1.0" encoding="UTF-8" standalone="no"?>
<svg xmlns:xlink="http://www.w3.org/1999/xlink" height="58.95px" width="52.1px" xmlns="http://www.w3.org/2000/svg">
  <g transform="matrix(1.0, 0.0, 0.0, 1.0, 26.05, 53.95)">
    <path d="M0.4 4.95 L-7.0 2.35 -6.9 -38.5 0.45 -35.85 0.4 4.95" fill="#32220f" fill-rule="evenodd" stroke="none"/>
    <path d="M0.5 -35.85 L-6.9 -38.5 2.15 -40.45 9.55 -37.8 0.5 -35.85" fill="#402b13" fill-rule="evenodd" stroke="none"/>
    <path d="M9.55 -37.8 L9.45 3.05 0.4 5.0 0.5 -35.85 9.55 -37.8" fill="#4f3618" fill-rule="evenodd" stroke="none"/>
    <path d="M9.9 -25.8 L26.05 -30.5 15.95 -7.8 9.65 -25.25 9.9 -25.8" fill="#309121" fill-rule="evenodd" stroke="none"/>
    <path d="M9.65 -26.3 L16.55 -49.45 26.05 -30.5 9.9 -25.85 9.65 -26.3" fill="#349f24" fill-rule="evenodd" stroke="none"/>
    <path d="M9.65 -25.25 L15.95 -7.8 -3.65 -4.1 9.2 -25.15 9.65 -25.25" fill="#2e8d20" fill-rule="evenodd" stroke="none"/>
    <path d="M9.65 -25.25 L9.15 -25.15 8.9 -25.65 9.15 -26.2 9.65 -26.3 9.9 -25.8 9.65 -25.25" fill="#339c23" fill-rule="evenodd" stroke="none"/>
    <path d="M9.2 -26.2 L-3.0 -45.7 16.6 -49.45 9.7 -26.3 9.2 -26.2" fill="#37a726" fill-rule="evenodd" stroke="none"/>
    <path d="M-3.0 -45.7 L-15.9 -50.2 3.7 -53.95 16.6 -49.45 -3.0 -45.7" fill="#297c1c" fill-rule="evenodd" stroke="none"/>
    <path d="M-3.7 -4.05 L-16.55 -8.55 -26.05 -27.5 -13.15 -23.0 -3.7 -4.05" fill="#1d5914" fill-rule="evenodd" stroke="none"/>
    <path d="M-13.15 -23.0 L-26.05 -27.5 -15.9 -50.2 -3.05 -45.7 -13.15 -23.0" fill="#26731a" fill-rule="evenodd" stroke="none"/>
    <path d="M8.9 -25.65 L-13.15 -23.0 -3.0 -45.7 9.2 -26.2 8.9 -25.65" fill="#35a124" fill-rule="evenodd" stroke="none"/>
    <path d="M9.15 -25.1 L-3.65 -4.05 -13.15 -23.0 8.9 -25.6 9.15 -25.1" fill="#319422" fill-rule="evenodd" stroke="none"/>
  </g>
</svg>
