<?xml version="1.0" encoding="UTF-8" standalone="no"?>
<svg xmlns:xlink="http://www.w3.org/1999/xlink" height="40.1px" width="33.75px" xmlns="http://www.w3.org/2000/svg">
  <g transform="matrix(1.0, 0.0, 0.0, 1.0, 18.4, 35.1)">
    <path d="M11.15 -29.45 L-18.35 -29.45 -18.35 5.0 11.15 5.0 11.15 -29.45" fill="#fdc8ae" fill-rule="evenodd" stroke="none"/>
    <path d="M-17.85 4.75 Q-16.55 1.65 -12.0 1.45 -7.5 1.65 -6.2 4.75 L-1.0 4.75 Q0.3 1.65 4.85 1.45 9.35 1.65 10.65 4.75 L11.3 4.75 11.3 -7.25 0.7 -7.25 Q-0.65 -4.75 -3.6 -4.6 -6.5 -4.75 -7.85 -7.25 L-18.25 -7.25 -18.25 4.75 -17.85 4.75" fill="#24701f" fill-rule="evenodd" stroke="none"/>
    <path d="M-18.4 -0.55 L11.2 -0.6 11.2 -7.0 0.8 -7.0 Q-0.6 -4.5 -3.6 -4.35 -6.6 -4.5 -8.0 -7.0 L-18.4 -7.0 -18.4 -0.55" fill="#33a02c" fill-rule="evenodd" stroke="none"/>
    <path d="M-18.3 5.0 Q-16.95 1.9 -12.3 1.7 -7.6 1.95 -6.3 5.0 L-0.9 5.0 Q0.4 1.9 5.1 1.7 9.75 1.95 11.1 5.0 L11.2 5.0 11.2 -0.6 -18.4 -0.55 -18.4 5.0 -18.3 5.0" fill="#8a634a" fill-rule="evenodd" stroke="none"/>
    <path d="M5.1 1.7 Q0.45 1.95 -0.9 5.0 L11.1 5.0 Q9.75 1.95 5.1 1.7" fill="#000000" fill-rule="evenodd" stroke="none"/>
    <path d="M-12.3 1.7 Q-16.95 1.95 -18.3 5.0 L-6.3 5.0 Q-7.65 1.95 -12.3 1.7" fill="#000000" fill-rule="evenodd" stroke="none"/>
    <path d="M4.55 -11.2 Q4.35 -10.75 -0.3 -9.4 -4.95 -8.05 -11.75 -11.1" fill="none" stroke="#000000" stroke-linecap="round" stroke-linejoin="round" stroke-width="0.35000000000000003"/>
    <path d="M11.15 -21.65 L11.25 -29.55 -18.35 -29.55 -18.35 -21.65 Q-6.2 -16.3 2.3 -18.6 10.8 -20.85 11.15 -21.65" fill="#bb8e21" fill-rule="evenodd" stroke="none"/>
    <path d="M-6.45 -12.05 Q-6.35 -11.4 -5.6 -11.35 -4.8 -11.4 -4.75 -12.05 L-4.75 -14.0 Q-4.8 -14.65 -5.6 -14.7 -6.35 -14.65 -6.45 -14.0 L-6.45 -12.05" fill="#000000" fill-rule="evenodd" stroke="none"/>
    <path d="M11.15 -21.85 L11.25 -29.55 -18.35 -29.45 -18.35 -21.85 Q-6.0 -17.1 2.4 -19.15 10.8 -21.15 11.15 -21.85" fill="#edb329" fill-rule="evenodd" stroke="none"/>
    <path d="M8.6 -21.2 Q7.95 -20.7 -0.55 -19.3 -9.05 -17.9 -17.8 -21.45 -9.65 -17.2 -0.9 -18.9 7.9 -20.6 8.6 -21.2" fill="#bb8e21" fill-rule="evenodd" stroke="none"/>
    <path d="M8.5 -24.15 Q7.9 -23.6 -0.4 -21.3 -8.7 -19.0 -17.75 -21.6 -9.25 -18.25 -0.7 -20.85 7.85 -23.5 8.5 -24.15" fill="#bb8e21" fill-rule="evenodd" stroke="none"/>
    <path d="M8.15 -26.25 Q7.6 -25.65 -0.5 -22.7 -8.55 -19.75 -17.75 -21.65 -9.05 -18.95 -0.75 -22.25 7.55 -25.55 8.15 -26.25" fill="#bb8e21" fill-rule="evenodd" stroke="none"/>
    <path d="M7.5 -29.05 Q7.0 -28.4 -0.75 -24.6 -8.5 -20.85 -17.8 -21.8 -8.9 -20.0 -0.95 -24.15 6.95 -28.25 7.5 -29.05" fill="#bb8e21" fill-rule="evenodd" stroke="none"/>
    <path d="M-6.15 -13.55 L-5.9 -13.3 Q-5.65 -13.35 -5.65 -13.55 L-5.65 -14.1 Q-5.65 -14.3 -5.9 -14.3 L-6.15 -14.1 -6.15 -13.55" fill="#ffffff" fill-rule="evenodd" stroke="none"/>
    <path d="M-3.8 -12.05 Q-3.7 -11.4 -2.95 -11.35 -2.15 -11.4 -2.1 -12.05 L-2.1 -14.0 Q-2.15 -14.65 -2.95 -14.7 -3.7 -14.65 -3.8 -14.0 L-3.8 -12.05" fill="#000000" fill-rule="evenodd" stroke="none"/>
    <path d="M-3.5 -13.55 L-3.25 -13.3 Q-3.0 -13.35 -3.0 -13.55 L-3.0 -14.1 Q-3.0 -14.3 -3.25 -14.3 L-3.5 -14.1 -3.5 -13.55" fill="#ffffff" fill-rule="evenodd" stroke="none"/>
    <path d="M15.35 -35.1 L11.2 -29.55 11.2 4.95 15.35 -3.15 15.35 -35.1" fill="#caa08b" fill-rule="evenodd" stroke="none"/>
    <path d="M11.2 -7.35 L11.2 4.75 15.35 -3.35 15.35 -15.4 11.2 -7.35" fill="#1f601a" fill-rule="evenodd" stroke="none"/>
    <path d="M15.35 -3.2 L15.35 -8.75 11.2 -0.65 11.2 4.9 15.35 -3.2" fill="#674a37" fill-rule="evenodd" stroke="none"/>
    <path d="M15.35 -8.7 L15.35 -15.15 11.2 -7.05 11.2 -0.6 15.35 -8.7" fill="#298023" fill-rule="evenodd" stroke="none"/>
    <path d="M11.2 -29.55 L11.2 -21.65 Q11.3 -22.1 12.0 -22.55 12.7 -23.0 12.75 -18.2 13.1 -21.65 13.35 -20.85 L13.6 -19.7 13.95 -16.3 Q14.3 -13.45 15.35 -15.15 L15.35 -27.1 15.35 -35.05 11.2 -29.55" fill="#8a6818" fill-rule="evenodd" stroke="none"/>
    <path d="M11.2 -29.55 L11.2 -21.85 12.0 -23.0 Q12.7 -23.7 12.8 -19.55 13.15 -22.35 13.4 -21.4 L13.6 -20.1 13.95 -16.8 Q14.3 -14.05 15.35 -15.75 L15.35 -27.35 15.35 -35.05 11.2 -29.55" fill="#bb8e21" fill-rule="evenodd" stroke="none"/>
    <path d="M11.95 -2.95 Q11.85 -1.0 12.25 -1.2 12.65 -1.75 12.8 -3.75 L11.95 -2.95" fill="#e4b49d" fill-rule="evenodd" stroke="none"/>
    <path d="M11.85 -2.35 L11.9 -2.15 12.0 -2.7 11.9 -2.9 11.85 -2.35" fill="#e4b49d" fill-rule="evenodd" stroke="none"/>
    <path d="M15.35 -35.05 L-11.75 -35.05 -18.35 -29.55 11.2 -29.55 15.35 -35.05" fill="#f6c94f" fill-rule="evenodd" stroke="none"/>
  </g>
</svg>
