<?xml version="1.0" encoding="UTF-8" standalone="no"?>
<svg xmlns:xlink="http://www.w3.org/1999/xlink" height="187.75px" width="266.45px" xmlns="http://www.w3.org/2000/svg">
  <g transform="matrix(1.0, 0.0, 0.0, 1.0, 133.2, 93.85)">
    <path d="M132.5 -7.4 Q133.9 -0.35 132.75 6.1 130.15 20.6 120.95 31.95 109.3 46.25 91.15 49.95 89.4 59.4 84.65 67.75 80.25 75.45 73.15 80.4 56.25 92.15 35.35 91.1 16.6 90.3 2.9 78.0 -1.2 82.3 -6.5 85.5 -15.8 91.25 -26.65 92.85 -26.65 93.35 -26.9 93.6 L-27.65 93.85 Q-43.8 94.3 -59.1 87.2 -70.45 81.85 -77.45 71.4 -80.95 66.05 -82.6 59.8 -84.05 54.15 -86.55 50.85 L-93.45 49.5 Q-112.35 45.1 -123.85 29.5 -129.65 21.75 -131.8 12.4 -135.9 -5.6 -127.85 -22.55 -121.65 -35.65 -109.05 -42.9 -94.45 -51.2 -77.6 -51.9 -75.95 -56.75 -73.65 -61.25 -63.75 -80.8 -42.3 -85.15 -34.6 -86.6 -26.7 -86.75 -6.85 -87.1 7.3 -73.85 L10.8 -77.6 Q25.5 -91.85 46.2 -93.3 L46.25 -93.8 Q65.35 -94.65 80.3 -82.05 95.95 -68.85 100.15 -48.9 117.75 -42.6 126.1 -25.85 130.5 -17.1 132.5 -7.4" fill="#ffffff" fill-rule="evenodd" stroke="none"/>
  </g>
</svg>
