<?xml version="1.0" encoding="UTF-8" standalone="no"?>
<svg xmlns:xlink="http://www.w3.org/1999/xlink" height="49.6px" width="61.55px" xmlns="http://www.w3.org/2000/svg">
  <g transform="matrix(1.0, 0.0, 0.0, 1.0, 30.75, 34.05)">
    <path d="M19.65 -27.2 L18.35 -28.0 1.45 -28.0 -5.2 -33.55 -10.7 -33.55 -4.05 -28.0 -23.85 -28.0 -30.75 -33.55 10.3 -34.05 19.65 -27.2 M-20.7 -25.5 L-1.05 -25.5 7.35 -18.5 7.35 15.05 -12.65 15.05 -13.2 15.05 -13.2 14.6 -12.65 15.05 -12.65 -19.05 -20.7 -25.5 M12.35 15.05 L12.35 -19.05 4.5 -25.5 22.0 -25.5 30.8 -19.05 30.8 15.05 12.35 15.05" fill="#ffffff" fill-rule="evenodd" stroke="none"/>
    <path d="M-23.85 -28.0 L-24.2 -28.0 -24.2 5.75 -30.75 0.55 -30.75 -33.55 -23.85 -28.0 M-22.9 6.85 L-20.75 8.1 -20.75 -25.5 -20.7 -25.5 -12.65 -19.05 -12.65 15.05 -13.2 14.6 -22.9 6.85" fill="#cccccc" fill-rule="evenodd" stroke="none"/>
    <path d="M19.65 -27.2 L22.35 -25.5 22.0 -25.5 4.5 -25.5 12.35 -19.05 12.35 15.05 12.35 15.55 7.35 15.55 7.35 15.05 7.35 -18.5 -1.05 -25.5 -20.7 -25.5 -20.75 -25.5 -20.75 8.1 -22.9 6.85 -24.2 6.05 -24.2 5.75 -24.2 -28.0 -23.85 -28.0 -4.05 -28.0 -10.7 -33.55 -5.2 -33.55 1.45 -28.0 18.35 -28.0 19.65 -27.2" fill="#00cc00" fill-rule="evenodd" stroke="none"/>
  </g>
</svg>
