<?xml version="1.0" encoding="UTF-8" standalone="no"?>
<svg xmlns:xlink="http://www.w3.org/1999/xlink" height="60.65px" width="55.0px" xmlns="http://www.w3.org/2000/svg">
  <g transform="matrix(1.0, 0.0, 0.0, 1.0, 27.5, 55.65)">
    <path d="M-1.85 4.95 L-9.25 2.35 -9.15 -38.5 -1.8 -35.85 -1.85 4.95" fill="#32220f" fill-rule="evenodd" stroke="none"/>
    <path d="M-1.8 -35.85 L-9.2 -38.5 -0.15 -40.45 7.25 -37.8 -1.8 -35.85" fill="#402b13" fill-rule="evenodd" stroke="none"/>
    <path d="M7.25 -37.8 L7.15 3.05 -1.9 5.0 -1.8 -35.85 7.25 -37.8" fill="#4f3618" fill-rule="evenodd" stroke="none"/>
    <path d="M-6.4 -27.55 L-16.5 -8.75 -27.5 -31.45 -6.4 -27.6 -6.4 -27.55" fill="#1d451d" fill-rule="evenodd" stroke="none"/>
    <path d="M-6.4 -27.55 L6.6 -5.85 -16.5 -8.7 -6.45 -27.55 -6.4 -27.55" fill="#1f481f" fill-rule="evenodd" stroke="none"/>
    <path d="M-6.4 -27.6 L-27.5 -31.45 -15.4 -51.3 -6.4 -27.6" fill="#204a20" fill-rule="evenodd" stroke="none"/>
    <path d="M-6.4 -27.5 L-6.45 -27.55 -6.45 -27.6 -6.4 -27.6 -6.4 -27.5" fill="#214e21" fill-rule="evenodd" stroke="none"/>
    <path d="M18.7 -25.7 L27.5 -30.05 15.35 -10.2 6.6 -5.85 18.7 -25.7" fill="#1b3f1b" fill-rule="evenodd" stroke="none"/>
    <path d="M-6.4 -27.55 L18.7 -25.7 6.6 -5.85 -6.4 -27.5 -6.4 -27.55" fill="#235123" fill-rule="evenodd" stroke="none"/>
    <path d="M7.7 -48.4 L16.45 -52.75 27.5 -30.05 18.7 -25.7 7.7 -48.4" fill="#2b652b" fill-rule="evenodd" stroke="none"/>
    <path d="M-6.4 -27.6 L-15.4 -51.3 7.7 -48.45 -6.4 -27.6" fill="#245424" fill-rule="evenodd" stroke="none"/>
    <path d="M-15.4 -51.3 L-6.65 -55.65 16.5 -52.8 7.7 -48.45 -15.4 -51.3" fill="#204b20" fill-rule="evenodd" stroke="none"/>
    <path d="M-6.4 -27.6 L7.7 -48.45 18.7 -25.75 -6.4 -27.6" fill="#255725" fill-rule="evenodd" stroke="none"/>
  </g>
</svg>
