<?xml version="1.0" encoding="UTF-8" standalone="no"?>
<svg xmlns:xlink="http://www.w3.org/1999/xlink" height="53.6px" width="42.15px" xmlns="http://www.w3.org/2000/svg">
  <g transform="matrix(1.0, 0.0, 0.0, 1.0, 19.3, 21.45)">
    <path d="M15.35 -13.65 L15.65 -13.65 17.25 -12.55 15.35 -12.3 13.8 -13.35 15.35 -13.55 15.35 -13.65 M-12.3 9.05 L-15.05 9.5 -15.0 6.3 -12.3 9.05" fill="#ff7c8f" fill-rule="evenodd" stroke="none"/>
    <path d="M-12.15 9.2 L-11.75 12.2 -14.95 12.75 -15.15 12.7 -15.05 9.5 -12.3 9.05 -12.15 9.2" fill="#ff788b" fill-rule="evenodd" stroke="none"/>
    <path d="M15.35 -13.65 L15.35 -13.55 13.8 -13.35 15.35 -12.3 17.25 -12.55 18.95 -11.4 17.0 -11.15 17.0 -11.1 -5.35 -7.95 -7.5 -7.65 -10.4 -10.05 -9.95 -10.15 -10.0 -10.65 -14.65 -14.55 -14.65 -14.6 -19.3 -18.45 4.3 -21.45 4.55 -21.4 15.4 -14.1 15.35 -13.65" fill="#ff7f92" fill-rule="evenodd" stroke="none"/>
    <path d="M18.95 -11.4 L19.15 -1.75 18.15 -1.65 17.4 -1.3 17.05 -9.75 17.0 -11.0 17.0 -11.1 17.0 -11.15 18.95 -11.4 M-4.3 14.1 L-3.95 17.5 -6.95 18.0 -6.9 14.75 -6.85 14.55 -4.3 14.1" fill="#ff6b7c" fill-rule="evenodd" stroke="none"/>
    <path d="M17.0 -11.1 L17.0 -11.0 12.25 -3.65 5.85 -2.7 -5.35 -7.95 17.0 -11.1" fill="#ff96ac" fill-rule="evenodd" stroke="none"/>
    <path d="M16.85 -4.45 L16.75 -4.45 16.85 -4.5 16.85 -4.45" fill="#ff5463" fill-rule="evenodd" stroke="none"/>
    <path d="M17.0 -11.0 L17.05 -9.75 16.85 -4.5 16.75 -4.45 16.85 -4.45 16.7 2.15 15.05 6.4 13.75 9.6 13.0 3.05 13.0 2.9 12.25 -3.65 17.0 -11.0 M14.35 3.0 Q14.9 2.75 14.65 1.7 L14.35 1.35 14.15 1.4 14.1 1.7 14.1 2.5 14.35 3.0" fill="#ff7082" fill-rule="evenodd" stroke="none"/>
    <path d="M14.35 3.0 L14.1 2.5 14.1 1.7 14.15 1.4 14.35 1.35 14.65 1.7 Q14.9 2.75 14.35 3.0 M1.45 5.0 Q0.25 3.35 2.15 3.1 3.5 3.8 2.55 5.0 L2.25 5.2 1.85 5.2 1.45 5.0" fill="#000000" fill-rule="evenodd" stroke="none"/>
    <path d="M19.15 -1.75 L19.3 7.85 17.75 8.5 17.65 8.3 17.7 8.25 17.4 -1.3 18.15 -1.65 19.15 -1.75" fill="#ff5c6c" fill-rule="evenodd" stroke="none"/>
    <path d="M17.65 8.3 L16.7 6.15 16.7 2.15 16.85 -4.45 16.85 -4.5 17.05 -9.75 17.4 -1.3 17.7 8.25 17.65 8.3 M14.95 32.15 Q12.35 31.65 10.1 26.9 L8.75 24.1 7.5 20.3 Q6.85 18.0 6.3 14.75 L5.7 13.05 5.25 12.7 5.35 12.3 5.55 11.75 5.5 11.5 5.3 11.05 5.25 10.95 3.9 10.35 3.45 12.6 0.8 13.05 0.75 13.05 0.65 13.05 0.6 13.05 0.5 13.1 0.4 13.1 -4.35 14.05 -4.4 14.05 -4.55 14.05 -4.7 14.1 -4.75 14.1 -4.85 14.15 -5.25 14.2 -7.15 12.3 -6.95 14.5 -6.85 14.55 -6.9 14.75 -6.95 18.0 -7.05 21.3 -7.1 21.45 -8.8 19.55 -8.15 13.3 -8.6 12.8 -7.85 12.8 -6.65 2.4 -5.35 -7.95 5.85 -2.7 6.55 4.05 6.6 4.1 8.65 19.5 9.6 22.65 11.35 26.5 12.35 27.85 12.45 28.05 13.35 28.9 14.55 29.4 14.95 32.15 M-9.6 12.65 L-10.25 11.05 -12.15 9.2 -12.3 9.05 -15.0 6.3 -15.05 9.5 -15.15 12.7 -16.65 11.05 -16.1 5.15 -16.05 5.2 -16.1 5.1 -19.3 -18.45 -14.65 -14.6 -14.65 -14.55 -10.0 -10.65 -9.95 -10.15 -10.4 -10.05 -7.5 -7.65 -8.55 2.55 -9.6 12.65 M1.45 5.0 L1.85 5.2 2.25 5.2 2.55 5.0 Q3.5 3.8 2.15 3.1 0.25 3.35 1.45 5.0" fill="#bf313d" fill-rule="evenodd" stroke="none"/>
    <path d="M12.75 12.45 L12.5 13.35 12.1 14.65 12.0 14.75 12.05 18.0 Q11.85 18.1 12.75 22.05 L13.5 24.45 Q15.35 28.25 17.65 28.8 L14.55 29.4 13.35 28.9 12.45 28.05 12.35 27.85 11.35 26.5 9.6 22.65 8.65 19.5 6.6 4.1 6.55 4.05 5.85 -2.7 12.25 -3.65 13.0 2.9 13.0 3.05 13.75 9.6 13.55 10.2 13.2 11.15 12.75 12.45" fill="#ff899d" fill-rule="evenodd" stroke="none"/>
    <path d="M14.1 10.9 Q18.0 16.0 22.7 17.8 L22.85 17.85 22.8 18.0 22.65 18.05 22.5 18.2 18.3 16.0 14.7 12.95 13.2 11.15 13.55 10.2 14.0 10.8 14.1 10.9 M22.7 18.25 L22.7 18.5 22.4 18.75 22.45 18.45 22.7 18.25 M1.2 22.75 L0.45 22.65 0.45 22.3 1.2 22.45 1.2 22.75 M0.45 22.0 L2.45 16.6 3.35 12.8 3.4 12.8 3.4 12.7 3.45 12.6 3.9 10.35 5.25 10.95 5.3 11.05 4.55 13.85 2.85 18.75 1.2 22.1 0.45 22.0" fill="#ffffff" fill-rule="evenodd" stroke="none"/>
    <path d="M5.3 11.05 L5.5 11.5 5.55 11.75 5.35 12.3 Q5.2 12.0 4.8 13.55 L4.55 13.85 5.3 11.05" fill="#f4ffff" fill-rule="evenodd" stroke="none"/>
    <path d="M3.35 12.8 L-4.3 14.1 -6.85 14.55 -6.95 14.5 -7.15 12.3 -5.25 14.2 -4.85 14.15 -4.75 14.1 -4.7 14.1 -4.55 14.05 -4.4 14.05 -4.35 14.05 3.4 12.7 3.4 12.8 3.35 12.8" fill="#ff6576" fill-rule="evenodd" stroke="none"/>
    <path d="M15.85 10.55 L14.1 10.9 14.0 10.8 15.85 10.55 M3.45 12.6 L3.4 12.7 -4.35 14.05 0.4 13.1 0.5 13.1 0.6 13.05 0.65 13.05 0.75 13.05 0.8 13.05 3.45 12.6" fill="#ff7c90" fill-rule="evenodd" stroke="none"/>
    <path d="M5.25 12.7 Q4.1 17.5 1.2 22.75 L1.2 22.45 1.2 22.1 2.85 18.75 4.55 13.85 4.8 13.55 Q5.2 12.0 5.35 12.3 L5.25 12.7" fill="#f1ffff" fill-rule="evenodd" stroke="none"/>
    <path d="M16.7 6.15 L16.65 6.2 15.05 6.4 16.7 2.15 16.7 6.15" fill="#ff5564" fill-rule="evenodd" stroke="none"/>
    <path d="M16.65 6.2 L16.55 10.45 16.25 10.5 16.15 10.55 16.05 10.55 15.9 10.55 15.85 10.55 14.0 10.8 13.55 10.2 13.75 9.6 15.05 6.4 16.65 6.2" fill="#d73d4a" fill-rule="evenodd" stroke="none"/>
    <path d="M12.5 13.35 L12.65 14.55 12.1 14.65 12.5 13.35" fill="#ff6e80" fill-rule="evenodd" stroke="none"/>
    <path d="M12.65 14.55 L12.95 17.8 12.05 18.0 12.0 14.75 12.1 14.65 12.65 14.55" fill="#ff6a7b" fill-rule="evenodd" stroke="none"/>
    <path d="M17.9 16.7 L15.7 15.2 Q13.9 13.75 12.75 12.45 L13.2 11.15 14.7 12.95 18.3 16.0 17.9 16.7" fill="#a5cdff" fill-rule="evenodd" stroke="none"/>
    <path d="M22.4 18.75 L19.9 17.85 17.9 16.7 18.3 16.0 22.5 18.2 22.45 18.45 22.4 18.75" fill="#a7cfff" fill-rule="evenodd" stroke="none"/>
    <path d="M17.65 28.8 L18.05 31.55 14.95 32.15 14.55 29.4 17.65 28.8" fill="#ff6474" fill-rule="evenodd" stroke="none"/>
    <path d="M22.8 18.0 L22.7 18.25 22.45 18.45 22.5 18.2 22.65 18.05 22.8 18.0" fill="#b4dbff" fill-rule="evenodd" stroke="none"/>
    <path d="M-7.5 -7.65 L-5.35 -7.95 -6.65 2.4 -7.65 2.4 -8.55 2.55 -7.5 -7.65" fill="#ff6373" fill-rule="evenodd" stroke="none"/>
    <path d="M-8.6 12.8 L-9.6 12.8 -9.6 12.65 -8.55 2.55 -7.65 2.4 -6.65 2.4 -7.85 12.8 -8.6 12.8" fill="#ff5868" fill-rule="evenodd" stroke="none"/>
    <path d="M-16.1 5.15 L-16.1 5.1 -16.05 5.2 -16.1 5.15" fill="#ff798c" fill-rule="evenodd" stroke="none"/>
    <path d="M-3.95 17.5 L-3.55 20.85 -7.0 21.5 -7.1 21.45 -7.05 21.3 -6.95 18.0 -3.95 17.5" fill="#ff6778" fill-rule="evenodd" stroke="none"/>
    <path d="M0.45 22.3 L0.45 22.0 1.2 22.1 1.2 22.45 0.45 22.3" fill="#9fc7ff" fill-rule="evenodd" stroke="none"/>
  </g>
</svg>
