<?xml version="1.0" encoding="UTF-8" standalone="no"?>
<svg xmlns:xlink="http://www.w3.org/1999/xlink" height="51.5px" width="42.15px" xmlns="http://www.w3.org/2000/svg">
  <g transform="matrix(1.0, 0.0, 0.0, 1.0, 19.35, 21.45)">
    <path d="M-7.5 -7.65 L-10.4 -10.1 -10.0 -10.15 -10.0 -10.7 -14.65 -14.6 -14.7 -14.6 -19.35 -18.45 4.3 -21.45 4.5 -21.4 15.4 -14.15 15.35 -13.65 15.35 -13.55 13.8 -13.35 15.35 -12.3 15.35 -12.25 17.0 -11.15 17.0 -11.1 6.25 -9.6 -5.35 -7.95 -5.4 -7.95 -7.5 -7.65" fill="#ff7f92" fill-rule="evenodd" stroke="none"/>
    <path d="M-19.35 -18.45 L-14.7 -14.6 -14.65 -14.6 -10.0 -10.7 -10.0 -10.15 -10.4 -10.1 -7.5 -7.65 -8.55 2.55 -9.6 12.65 -10.25 11.05 -12.15 9.2 -12.3 9.05 -15.0 6.25 -15.1 9.45 -15.2 12.65 -16.65 11.05 -16.15 5.15 -16.05 5.15 -16.15 5.1 -19.35 -18.45 M-5.4 -7.95 L-5.35 -7.95 5.85 -2.7 6.55 4.0 7.85 14.7 7.85 14.75 8.35 18.05 8.7 19.45 9.75 22.55 10.85 24.55 Q12.6 27.85 14.6 27.1 L15.0 28.45 15.35 29.85 Q12.85 30.95 10.35 26.6 L9.15 24.45 7.9 21.25 Q7.65 21.0 6.9 17.75 L6.35 14.8 5.7 13.1 5.25 12.75 5.35 12.25 5.55 11.75 5.45 11.5 5.3 11.0 5.25 10.95 3.9 10.35 3.4 12.6 0.8 13.0 0.75 13.0 0.65 13.05 0.6 13.05 0.45 13.1 0.4 13.1 -4.35 14.05 -4.4 14.05 -4.55 14.05 -4.7 14.1 -4.75 14.1 -4.85 14.15 -5.25 14.15 -7.15 12.3 -6.95 14.5 -6.9 14.55 -6.9 14.75 -6.95 18.0 -7.05 21.3 -7.1 21.4 -8.8 19.55 -8.15 13.3 -8.6 12.8 -7.85 12.8 -6.65 2.4 -5.4 -7.95 M17.05 -9.75 L17.35 -1.35 17.7 8.25 17.65 8.25 16.65 6.1 16.7 2.1 16.85 -4.45 16.85 -4.5 17.05 -9.75 M2.55 5.0 Q3.5 3.8 2.1 3.05 0.25 3.35 1.4 5.0 L1.85 5.15 2.2 5.15 2.55 5.0" fill="#bf313d" fill-rule="evenodd" stroke="none"/>
    <path d="M15.35 -12.3 L13.8 -13.35 15.35 -13.55 15.35 -13.65 15.65 -13.65 17.25 -12.55 15.35 -12.3 M-15.1 9.45 L-15.0 6.25 -12.3 9.05 -15.1 9.45" fill="#ff7c8f" fill-rule="evenodd" stroke="none"/>
    <path d="M17.0 -11.15 L15.35 -12.25 15.35 -12.3 17.25 -12.55 18.95 -11.4 17.0 -11.15" fill="#ff8397" fill-rule="evenodd" stroke="none"/>
    <path d="M17.0 -11.1 L17.0 -11.15 18.95 -11.4 19.15 -1.8 18.15 -1.65 17.35 -1.35 17.05 -9.75 17.0 -11.05 17.0 -11.1 M-6.95 18.0 L-6.9 14.75 -6.9 14.55 -4.3 14.1 -3.95 17.5 -6.95 18.0" fill="#ff6b7c" fill-rule="evenodd" stroke="none"/>
    <path d="M6.25 -9.6 L17.0 -11.1 17.0 -11.05 12.25 -3.7 9.05 -3.2 6.25 -9.6" fill="#ff96ac" fill-rule="evenodd" stroke="none"/>
    <path d="M17.0 -11.05 L17.05 -9.75 16.85 -4.5 16.75 -4.45 16.85 -4.45 16.7 2.1 15.0 6.4 13.7 9.6 12.25 -3.7 17.0 -11.05 M14.15 1.4 L14.1 1.7 14.1 2.45 14.35 3.0 Q14.9 2.75 14.65 1.7 L14.35 1.3 14.15 1.4" fill="#ff7082" fill-rule="evenodd" stroke="none"/>
    <path d="M-15.2 12.65 L-15.1 9.45 -12.3 9.05 -12.15 9.2 -11.8 12.2 -14.95 12.75 -15.2 12.65" fill="#ff788b" fill-rule="evenodd" stroke="none"/>
    <path d="M-16.15 5.1 L-16.05 5.15 -16.15 5.15 -16.15 5.1 M14.6 27.1 L16.7 26.65 16.8 26.65 16.85 26.65 16.9 26.6 17.0 26.6 17.05 26.6 17.15 26.6 17.2 26.55 17.8 26.45 18.15 27.85 15.0 28.45 14.6 27.1" fill="#ff798c" fill-rule="evenodd" stroke="none"/>
    <path d="M16.85 -4.45 L16.75 -4.45 16.85 -4.5 16.85 -4.45" fill="#ff5463" fill-rule="evenodd" stroke="none"/>
    <path d="M14.15 1.4 L14.35 1.3 14.65 1.7 Q14.9 2.75 14.35 3.0 L14.1 2.45 14.1 1.7 14.15 1.4 M2.55 5.0 L2.2 5.15 1.85 5.15 1.4 5.0 Q0.25 3.35 2.1 3.05 3.5 3.8 2.55 5.0" fill="#000000" fill-rule="evenodd" stroke="none"/>
    <path d="M17.35 -1.35 L18.15 -1.65 19.15 -1.8 19.3 7.85 17.75 8.5 17.65 8.25 17.7 8.25 17.35 -1.35" fill="#ff5c6c" fill-rule="evenodd" stroke="none"/>
    <path d="M16.7 2.1 L16.65 6.1 16.65 6.2 15.0 6.4 16.7 2.1" fill="#ff5564" fill-rule="evenodd" stroke="none"/>
    <path d="M15.0 6.4 L16.65 6.2 16.55 10.45 16.2 10.5 16.1 10.5 16.05 10.5 15.85 10.55 14.0 10.75 13.55 10.15 13.7 9.6 15.0 6.4 M16.85 26.6 L16.9 26.6 16.85 26.65 16.85 26.6" fill="#d73d4a" fill-rule="evenodd" stroke="none"/>
    <path d="M13.55 10.15 L13.2 11.15 13.1 11.35 13.1 11.5 12.75 12.4 12.5 13.35 12.05 14.65 12.0 14.75 12.0 17.1 12.1 17.95 Q12.85 25.2 16.7 26.65 L14.6 27.1 Q12.6 27.85 10.85 24.55 L9.75 22.55 8.7 19.45 8.35 18.05 7.85 14.75 7.85 14.7 6.55 4.0 5.85 -2.7 9.05 -3.2 12.25 -3.7 13.7 9.6 13.55 10.15" fill="#ff899d" fill-rule="evenodd" stroke="none"/>
    <path d="M13.2 11.15 L14.7 12.9 16.7 14.75 18.3 16.0 17.85 16.7 15.7 15.2 12.75 12.4 13.1 11.5 13.1 11.35 13.2 11.15" fill="#a5cdff" fill-rule="evenodd" stroke="none"/>
    <path d="M13.2 11.15 L13.55 10.15 14.0 10.75 14.1 10.85 Q18.0 16.0 22.7 17.8 L22.8 17.85 22.75 17.95 22.65 18.05 22.5 18.2 20.3 17.2 18.3 16.0 16.7 14.75 14.7 12.9 13.2 11.15 M3.4 12.6 L3.9 10.35 5.25 10.95 5.3 11.0 4.5 13.85 2.8 18.75 1.15 22.1 0.45 22.0 2.45 16.55 3.35 12.8 3.4 12.75 3.4 12.7 3.4 12.6 M1.15 22.45 L1.2 22.7 0.45 22.6 0.45 22.3 1.15 22.45 M22.7 18.2 L22.7 18.5 22.4 18.75 22.45 18.45 22.7 18.2" fill="#ffffff" fill-rule="evenodd" stroke="none"/>
    <path d="M14.1 10.85 L14.0 10.75 15.85 10.55 14.1 10.85 M-4.35 14.05 L0.4 13.1 0.45 13.1 0.6 13.05 0.65 13.05 0.75 13.0 0.8 13.0 3.4 12.6 3.4 12.7 -4.35 14.05" fill="#ff7c90" fill-rule="evenodd" stroke="none"/>
    <path d="M12.1 17.95 L12.0 17.1 12.0 14.75 12.05 14.65 12.65 14.55 12.95 17.85 12.1 17.95" fill="#ff6a7b" fill-rule="evenodd" stroke="none"/>
    <path d="M12.05 14.65 L12.5 13.35 12.65 14.55 12.05 14.65" fill="#ff6e80" fill-rule="evenodd" stroke="none"/>
    <path d="M-5.35 -7.95 L6.25 -9.6 9.05 -3.2 5.85 -2.7 -5.35 -7.95" fill="#ff91a6" fill-rule="evenodd" stroke="none"/>
    <path d="M-9.6 12.65 L-8.55 2.55 -7.65 2.4 -6.65 2.4 -7.85 12.8 -8.6 12.8 -9.6 12.75 -9.6 12.65" fill="#ff5868" fill-rule="evenodd" stroke="none"/>
    <path d="M-7.5 -7.65 L-5.4 -7.95 -6.65 2.4 -7.65 2.4 -8.55 2.55 -7.5 -7.65" fill="#ff6373" fill-rule="evenodd" stroke="none"/>
    <path d="M-6.9 14.55 L-6.95 14.5 -7.15 12.3 -5.25 14.15 -4.85 14.15 -4.75 14.1 -4.7 14.1 -4.55 14.05 -4.4 14.05 -4.35 14.05 3.4 12.7 3.4 12.75 3.35 12.8 -4.3 14.1 -6.9 14.55" fill="#ff6576" fill-rule="evenodd" stroke="none"/>
    <path d="M5.3 11.0 L5.45 11.5 5.55 11.75 5.35 12.25 Q5.2 12.0 4.8 13.55 L4.5 13.85 5.3 11.0" fill="#f4ffff" fill-rule="evenodd" stroke="none"/>
    <path d="M5.35 12.25 L5.25 12.75 3.7 17.6 Q1.85 22.05 1.2 22.7 L1.15 22.45 1.15 22.1 2.8 18.75 4.5 13.85 4.8 13.55 Q5.2 12.0 5.35 12.25" fill="#f1ffff" fill-rule="evenodd" stroke="none"/>
    <path d="M1.15 22.1 L1.15 22.45 0.45 22.3 0.45 22.0 1.15 22.1" fill="#9fc7ff" fill-rule="evenodd" stroke="none"/>
    <path d="M-7.1 21.4 L-7.05 21.3 -6.95 18.0 -3.95 17.5 -3.55 20.85 -7.05 21.5 -7.1 21.4" fill="#ff6778" fill-rule="evenodd" stroke="none"/>
    <path d="M22.5 18.2 L22.65 18.05 22.75 17.95 22.7 18.2 22.45 18.45 22.5 18.2" fill="#b4dbff" fill-rule="evenodd" stroke="none"/>
    <path d="M18.3 16.0 L20.3 17.2 22.5 18.2 22.45 18.45 22.4 18.75 19.9 17.85 17.85 16.7 18.3 16.0" fill="#a7cfff" fill-rule="evenodd" stroke="none"/>
    <path d="M16.8 26.65 L16.85 26.6 16.85 26.65 16.8 26.65" fill="#ff7e92" fill-rule="evenodd" stroke="none"/>
    <path d="M15.35 29.85 L15.0 28.45 18.15 27.85 18.5 29.2 15.35 29.85" fill="#ff788a" fill-rule="evenodd" stroke="none"/>
  </g>
</svg>
