<?xml version="1.0" encoding="UTF-8" standalone="no"?>
<svg xmlns:xlink="http://www.w3.org/1999/xlink" height="46.4px" width="42.2px" xmlns="http://www.w3.org/2000/svg">
  <g transform="matrix(1.0, 0.0, 0.0, 1.0, 19.4, 21.5)">
    <path d="M15.3 -13.85 L15.65 -13.8 17.2 -12.75 15.3 -12.5 15.25 -12.5 13.75 -13.55 15.3 -13.75 15.3 -13.85" fill="#ff7b8e" fill-rule="evenodd" stroke="none"/>
    <path d="M15.3 -13.85 L15.3 -13.75 13.75 -13.55 15.25 -12.5 15.3 -12.5 16.95 -11.4 6.2 -9.9 -5.5 -8.25 -7.55 -7.95 -7.7 -8.05 -10.45 -10.3 -10.05 -10.4 -10.05 -10.9 -19.4 -18.5 4.25 -21.5 4.45 -21.45 15.3 -14.35 15.3 -13.85 M-2.55 -10.05 L-2.65 -9.95 -2.6 -9.95 -2.55 -10.05" fill="#ff7f92" fill-rule="evenodd" stroke="none"/>
    <path d="M15.3 -12.5 L17.2 -12.75 18.9 -11.65 16.95 -11.4 15.3 -12.5" fill="#ff8296" fill-rule="evenodd" stroke="none"/>
    <path d="M17.65 8.1 L16.7 5.95 16.7 1.9 16.7 1.7 16.8 -4.75 16.95 -9.85 17.3 -1.6 17.65 8.1 M13.25 20.15 L13.3 20.15 13.45 18.0 13.55 18.05 14.7 18.95 14.6 20.5 17.7 19.9 17.6 21.45 16.95 23.2 15.65 24.35 12.65 24.9 11.4 24.7 9.9 23.55 8.1 20.5 5.7 12.85 5.25 12.5 5.55 11.5 5.3 10.8 5.25 10.7 3.9 10.1 3.45 12.25 3.4 12.3 3.45 12.3 3.4 12.35 0.55 12.85 0.5 12.85 0.4 12.85 0.35 12.85 0.25 12.9 -4.5 13.85 -4.55 13.85 -4.65 13.9 -4.7 13.9 -4.8 13.9 -5.3 13.95 -7.2 12.1 -6.95 14.35 -6.85 14.4 -6.95 17.85 -7.1 21.25 -8.8 19.5 -8.75 19.45 -8.15 13.15 -8.1 13.2 -8.15 13.1 -8.65 12.6 -7.85 12.6 -7.75 11.55 -7.75 11.5 -6.7 2.2 -5.5 -7.45 -5.5 -8.2 -5.1 -8.05 0.15 -5.65 5.8 -3.0 7.85 14.4 8.4 17.1 8.7 18.05 Q8.55 18.3 10.05 20.8 L11.15 21.85 11.65 22.05 12.1 22.1 12.2 21.95 12.9 21.3 13.3 20.15 13.25 20.15 M-9.6 12.4 L-10.25 11.0 -12.15 9.15 -12.2 9.05 -15.0 6.3 -15.05 9.5 -15.15 12.7 -16.65 11.15 -16.65 11.05 -16.1 5.2 -16.1 5.15 -16.05 5.2 -15.95 5.3 -16.1 5.1 -19.4 -18.5 -10.05 -10.9 -10.05 -10.4 -10.45 -10.3 -7.7 -8.05 -7.55 -7.95 -8.6 2.3 -9.6 12.4 M2.85 3.5 Q2.55 2.75 1.7 2.8 0.8 3.0 0.9 4.0 1.2 5.0 2.2 4.9 3.05 4.6 2.85 3.5" fill="#bf313d" fill-rule="evenodd" stroke="none"/>
    <path d="M5.8 -3.0 L0.15 -5.65 7.6 -6.65 6.2 -9.9 16.95 -11.4 16.95 -11.35 16.95 -11.3 12.2 -3.95 5.8 -3.0" fill="#ff95ab" fill-rule="evenodd" stroke="none"/>
    <path d="M0.15 -5.65 L-5.1 -8.05 -5.5 -8.2 -5.5 -8.25 6.2 -9.9 7.6 -6.65 0.15 -5.65" fill="#ff90a5" fill-rule="evenodd" stroke="none"/>
    <path d="M18.9 -11.65 L19.1 -2.0 18.1 -1.85 17.3 -1.6 16.95 -9.85 16.95 -11.3 16.95 -11.35 16.95 -11.4 18.9 -11.65 M-4.3 13.95 L-3.9 17.35 -6.95 17.85 -6.85 14.4 -4.3 13.95" fill="#ff6c7d" fill-rule="evenodd" stroke="none"/>
    <path d="M16.95 -11.3 L16.95 -9.85 16.8 -4.75 14.4 -1.15 12.95 2.6 12.2 -3.95 16.95 -11.3" fill="#ff7183" fill-rule="evenodd" stroke="none"/>
    <path d="M19.1 -2.0 L19.3 7.65 17.8 8.3 17.65 8.25 17.65 8.1 17.3 -1.6 18.1 -1.85 19.1 -2.0" fill="#ff5d6d" fill-rule="evenodd" stroke="none"/>
    <path d="M12.95 2.6 L14.4 -1.15 16.8 -4.75 16.7 1.7 16.7 1.9 15.0 6.15 13.7 9.35 12.95 2.6 M14.7 1.7 Q14.2 0.35 14.05 1.7 14.2 3.75 14.7 1.7" fill="#ff7082" fill-rule="evenodd" stroke="none"/>
    <path d="M12.75 12.15 L12.5 13.1 12.25 13.65 12.0 14.5 12.0 14.75 12.1 16.55 12.35 17.8 12.45 18.15 13.25 20.15 13.3 20.15 12.9 21.3 12.2 21.95 11.65 22.05 11.15 21.85 10.05 20.8 Q8.55 18.3 8.7 18.05 L8.4 17.1 7.85 14.4 5.8 -3.0 12.2 -3.95 12.95 2.6 13.7 9.35 13.55 9.95 13.2 10.9 12.75 12.15" fill="#ff899d" fill-rule="evenodd" stroke="none"/>
    <path d="M14.1 10.65 Q17.8 15.5 22.8 17.6 L22.5 17.9 21.05 17.3 18.3 15.7 15.4 13.4 13.2 10.9 13.55 9.95 14.05 10.55 14.1 10.65 M22.7 17.95 L22.7 18.25 22.4 18.5 22.45 18.15 22.7 17.95 M1.2 22.45 L0.45 22.3 0.45 22.0 1.2 22.1 1.2 22.45 M0.45 21.7 L2.15 17.3 3.35 12.65 3.35 12.55 3.4 12.35 3.45 12.3 3.45 12.25 3.9 10.1 5.25 10.7 5.3 10.8 4.55 13.55 1.45 21.3 1.2 21.8 0.45 21.7" fill="#ffffff" fill-rule="evenodd" stroke="none"/>
    <path d="M22.8 17.6 L22.7 17.95 22.45 18.15 22.45 18.05 22.5 17.9 22.8 17.6" fill="#b5dcff" fill-rule="evenodd" stroke="none"/>
    <path d="M22.4 18.5 L19.8 17.5 17.9 16.4 18.3 15.7 21.05 17.3 22.5 17.9 22.45 18.05 22.45 18.15 22.4 18.5" fill="#a8d0ff" fill-rule="evenodd" stroke="none"/>
    <path d="M16.7 5.95 L16.6 6.0 15.0 6.15 16.7 1.9 16.7 5.95" fill="#ff5665" fill-rule="evenodd" stroke="none"/>
    <path d="M14.7 1.7 Q14.2 3.75 14.05 1.7 14.2 0.35 14.7 1.7 M2.85 3.5 Q3.05 4.6 2.2 4.9 1.2 5.0 0.9 4.0 0.8 3.0 1.7 2.8 2.55 2.75 2.85 3.5" fill="#000000" fill-rule="evenodd" stroke="none"/>
    <path d="M17.9 16.4 L15.9 15.1 12.75 12.15 13.2 10.9 15.4 13.4 18.3 15.7 17.9 16.4" fill="#a6ceff" fill-rule="evenodd" stroke="none"/>
    <path d="M16.6 6.0 L16.55 10.25 16.3 10.25 16.2 10.3 16.15 10.3 14.05 10.55 13.55 9.95 13.7 9.35 15.0 6.15 16.6 6.0 M11.65 22.05 L12.2 21.95 12.1 22.1 11.65 22.05" fill="#d83e4b" fill-rule="evenodd" stroke="none"/>
    <path d="M16.15 10.3 L14.1 10.65 14.05 10.55 16.15 10.3 M3.4 12.35 L3.35 12.55 -4.5 13.85 0.25 12.9 0.35 12.85 0.4 12.85 0.5 12.85 0.55 12.85 3.4 12.35 M-12.2 9.05 L-15.05 9.5 -15.0 6.3 -12.2 9.05" fill="#ff7c8f" fill-rule="evenodd" stroke="none"/>
    <path d="M3.45 12.25 L3.45 12.3 3.4 12.3 3.45 12.25" fill="#fdffff" fill-rule="evenodd" stroke="none"/>
    <path d="M5.25 12.5 L5.05 13.05 4.8 13.2 4.55 13.55 5.3 10.8 5.55 11.5 5.25 12.5" fill="#f5ffff" fill-rule="evenodd" stroke="none"/>
    <path d="M5.05 13.05 Q3.7 18.3 1.2 22.45 L1.2 22.1 1.2 21.8 1.45 21.3 4.55 13.55 4.8 13.2 5.05 13.05" fill="#f2ffff" fill-rule="evenodd" stroke="none"/>
    <path d="M3.35 12.65 L-4.3 13.95 -6.85 14.4 -6.95 14.35 -7.2 12.1 -5.3 13.95 -4.8 13.9 -4.7 13.9 -4.65 13.9 -4.55 13.85 -4.5 13.85 3.35 12.55 3.35 12.65" fill="#ff6677" fill-rule="evenodd" stroke="none"/>
    <path d="M0.45 22.0 L0.45 21.7 1.2 21.8 1.2 22.1 0.45 22.0" fill="#9fc7ff" fill-rule="evenodd" stroke="none"/>
    <path d="M15.05 17.7 L16.65 17.4 17.85 18.35 16.3 18.6 15.05 17.7" fill="#ff92a8" fill-rule="evenodd" stroke="none"/>
    <path d="M12.6 14.45 L13.0 17.7 12.35 17.8 12.1 16.55 12.0 14.75 12.0 14.5 12.6 14.45" fill="#ff6b7c" fill-rule="evenodd" stroke="none"/>
    <path d="M12.5 13.1 L12.6 14.45 12.0 14.5 12.25 13.65 12.5 13.1" fill="#ff6f80" fill-rule="evenodd" stroke="none"/>
    <path d="M13.45 18.0 L15.05 17.7 16.3 18.6 14.7 18.95 13.55 18.05 13.45 18.0" fill="#ff91a6" fill-rule="evenodd" stroke="none"/>
    <path d="M17.85 18.35 L17.7 19.9 14.6 20.5 14.7 18.95 16.3 18.6 17.85 18.35" fill="#c83642" fill-rule="evenodd" stroke="none"/>
    <path d="M-2.55 -10.05 L-2.6 -9.95 -2.65 -9.95 -2.55 -10.05" fill="#ff7e91" fill-rule="evenodd" stroke="none"/>
    <path d="M-5.5 -8.2 L-5.5 -7.45 -6.7 2.2 -7.65 2.15 -8.6 2.3 -7.55 -7.95 -5.5 -8.25 -5.5 -8.2" fill="#ff6474" fill-rule="evenodd" stroke="none"/>
    <path d="M-8.65 12.6 L-9.6 12.55 -9.6 12.4 -8.6 2.3 -7.65 2.15 -6.7 2.2 -7.75 11.5 -7.75 11.55 -7.85 12.6 -8.65 12.6" fill="#ff5968" fill-rule="evenodd" stroke="none"/>
    <path d="M-16.1 5.15 L-16.1 5.1 -15.95 5.3 -16.05 5.2 -16.1 5.15" fill="#ff798c" fill-rule="evenodd" stroke="none"/>
    <path d="M-12.15 9.15 L-11.75 12.2 -14.95 12.75 -15.15 12.7 -15.05 9.5 -12.2 9.05 -12.15 9.15" fill="#ff788b" fill-rule="evenodd" stroke="none"/>
    <path d="M-8.15 13.15 L-8.15 13.1 -8.1 13.2 -8.15 13.15" fill="#ff8498" fill-rule="evenodd" stroke="none"/>
    <path d="M-3.9 17.35 L-3.5 20.7 -6.85 21.35 -7.1 21.25 -6.95 17.85 -3.9 17.35" fill="#ff6879" fill-rule="evenodd" stroke="none"/>
  </g>
</svg>
