<?xml version="1.0" encoding="UTF-8" standalone="no"?>
<svg xmlns:xlink="http://www.w3.org/1999/xlink" height="44.6px" width="42.2px" xmlns="http://www.w3.org/2000/svg">
  <g transform="matrix(1.0, 0.0, 0.0, 1.0, 19.5, 21.65)">
    <path d="M13.45 -14.25 L9.5 -13.7 7.5 -12.2 -2.75 -10.8 -2.85 -10.75 -1.45 -9.7 -5.7 -9.1 -7.75 -8.8 -10.65 -11.0 -10.2 -11.05 -10.25 -11.6 -19.5 -18.65 4.1 -21.65 15.05 -15.0 15.0 -14.5 15.0 -14.4 13.45 -14.25" fill="#ff7f92" fill-rule="evenodd" stroke="none"/>
    <path d="M-19.5 -18.65 L-10.25 -11.6 -10.2 -11.05 -10.65 -11.0 -7.75 -8.8 -8.7 1.55 -8.7 1.7 -9.6 11.5 -9.65 11.8 -10.1 10.85 -12.15 8.95 -15.0 6.25 -15.05 9.45 -15.15 12.65 -16.65 11.05 -16.1 5.15 -15.65 5.55 -16.1 5.1 -19.5 -18.65 M17.55 7.5 L16.55 5.3 16.5 5.0 16.55 1.15 16.6 -5.5 16.75 -10.35 17.15 -2.3 17.55 7.5 M16.9 18.45 L16.8 19.7 15.85 21.8 14.75 22.35 11.75 22.95 10.25 22.45 8.15 19.7 Q7.4 18.3 5.65 12.2 L5.3 11.85 5.15 11.7 5.25 11.2 5.45 10.6 5.2 9.95 5.1 9.8 3.75 9.3 3.3 11.5 3.3 11.55 3.3 11.7 0.35 12.15 0.3 12.15 0.2 12.2 0.15 12.2 -4.75 13.25 -4.8 13.25 -5.2 13.35 -5.3 13.3 -7.2 11.6 -6.95 13.9 -6.9 13.95 -7.0 17.4 -7.15 20.85 -8.85 19.0 -8.2 12.75 -8.95 11.95 -7.9 11.95 -6.8 1.45 -5.75 -8.1 -5.7 -8.35 -5.7 -9.05 -0.05 -6.55 5.6 -3.95 7.45 11.5 7.9 14.4 8.35 16.15 8.95 17.7 9.2 18.05 10.2 19.55 10.8 19.85 11.3 20.1 Q11.6 19.9 11.95 19.75 L12.0 19.6 12.55 18.35 12.65 17.4 12.65 17.35 12.7 16.65 12.5 14.3 12.6 14.3 13.6 14.15 13.9 18.05 13.8 19.05 16.9 18.45 M1.55 1.95 Q0.9 1.9 0.8 3.15 1.0 4.15 2.1 4.0 2.8 3.7 2.75 2.9 2.55 1.9 1.55 1.95" fill="#bf313d" fill-rule="evenodd" stroke="none"/>
    <path d="M-1.45 -9.7 L-2.85 -10.75 -2.75 -10.8 7.5 -12.2 9.5 -13.7 13.45 -14.25 15.05 -13.25 16.7 -12.25 16.7 -12.2 5.95 -10.7 -1.45 -9.7 M-12.15 8.95 L-12.2 9.05 -15.05 9.45 -15.0 6.25 -12.15 8.95" fill="#ff7c8f" fill-rule="evenodd" stroke="none"/>
    <path d="M-5.7 -9.1 L-1.45 -9.7 5.95 -10.7 7.4 -7.55 -0.05 -6.55 -5.7 -9.05 -5.7 -9.1" fill="#ff90a5" fill-rule="evenodd" stroke="none"/>
    <path d="M13.45 -14.25 L15.0 -14.4 15.0 -14.5 15.3 -14.55 16.95 -13.5 15.05 -13.25 13.45 -14.25 M-16.1 5.15 L-16.1 5.1 -15.65 5.55 -16.1 5.15" fill="#ff798c" fill-rule="evenodd" stroke="none"/>
    <path d="M16.7 -12.25 L15.05 -13.25 16.95 -13.5 18.65 -12.5 16.7 -12.25" fill="#ff8093" fill-rule="evenodd" stroke="none"/>
    <path d="M5.95 -10.7 L16.7 -12.2 16.65 -12.1 12.0 -4.9 5.6 -3.95 -0.05 -6.55 7.4 -7.55 5.95 -10.7" fill="#ff95ab" fill-rule="evenodd" stroke="none"/>
    <path d="M16.7 -12.2 L16.7 -12.25 18.65 -12.5 18.9 -2.7 17.9 -2.55 17.15 -2.3 16.75 -10.35 16.65 -12.1 16.7 -12.2" fill="#ff6f80" fill-rule="evenodd" stroke="none"/>
    <path d="M16.65 -12.1 L16.75 -10.35 16.6 -5.5 14.3 -2.05 12.8 1.7 12.0 -4.8 12.0 -4.9 16.65 -12.1" fill="#ff7385" fill-rule="evenodd" stroke="none"/>
    <path d="M-3.95 16.9 L-3.55 20.25 -7.05 20.9 -7.15 20.85 -7.0 17.4 -3.95 16.9 M12.0 -4.9 L12.0 -4.8 12.0 -4.9" fill="#ff6778" fill-rule="evenodd" stroke="none"/>
    <path d="M12.0 -4.8 L12.8 1.7 12.75 1.7 13.55 8.45 13.4 9.05 13.1 10.05 13.0 10.25 12.65 11.4 12.4 12.25 11.9 13.7 11.95 14.1 12.05 15.55 12.55 17.35 12.65 17.4 12.55 18.35 12.0 19.6 10.8 19.85 10.2 19.55 9.2 18.05 8.95 17.7 8.35 16.15 7.9 14.4 7.45 11.5 5.6 -3.95 12.0 -4.9 12.0 -4.8" fill="#ff899d" fill-rule="evenodd" stroke="none"/>
    <path d="M14.35 1.7 L14.3 1.85 14.15 1.9 14.05 1.7 Q13.65 0.05 14.15 0.2 14.8 0.8 14.35 1.7 M1.55 1.95 Q2.55 1.9 2.75 2.9 2.8 3.7 2.1 4.0 1.0 4.15 0.8 3.15 0.9 1.9 1.55 1.95" fill="#000000" fill-rule="evenodd" stroke="none"/>
    <path d="M12.8 1.7 L14.3 -2.05 16.6 -5.5 16.55 1.15 14.8 5.5 13.55 8.45 12.75 1.7 12.8 1.7 M14.35 1.7 Q14.8 0.8 14.15 0.2 13.65 0.05 14.05 1.7 L14.15 1.9 14.3 1.85 14.35 1.7" fill="#ff7082" fill-rule="evenodd" stroke="none"/>
    <path d="M18.9 -2.7 L19.2 7.05 Q17.1 8.05 17.55 7.5 L17.15 -2.3 17.9 -2.55 18.9 -2.7" fill="#ff5f6f" fill-rule="evenodd" stroke="none"/>
    <path d="M16.55 5.3 L16.5 5.3 14.8 5.5 16.55 1.15 16.5 5.0 16.55 5.3" fill="#ff5867" fill-rule="evenodd" stroke="none"/>
    <path d="M16.5 5.3 L16.5 9.6 16.35 9.65 16.25 9.65 16.15 9.65 14.0 9.85 13.4 9.05 13.55 8.45 14.8 5.5 16.5 5.3" fill="#dc404d" fill-rule="evenodd" stroke="none"/>
    <path d="M17.8 15.6 L16.9 15.05 16.8 13.85 18.1 14.75 18.2 14.85 17.8 15.6 M13.1 10.05 L15.45 12.65 16.55 13.6 15.25 13.85 14.55 13.25 12.65 11.4 13.0 10.25 13.1 10.05" fill="#a9d1ff" fill-rule="evenodd" stroke="none"/>
    <path d="M14.15 10.0 Q18.25 15.05 22.7 16.75 L22.45 17.0 20.4 16.15 18.2 14.85 18.1 14.75 16.8 13.85 16.75 13.6 16.55 13.6 15.45 12.65 13.1 10.05 13.4 9.05 14.0 9.85 14.15 10.0 M22.65 17.1 L22.65 17.35 22.35 17.6 22.4 17.25 22.65 17.1 M1.15 21.5 L1.1 21.55 0.4 21.4 0.4 21.1 1.1 21.2 1.15 21.3 1.15 21.5 M0.4 20.8 Q0.95 19.85 2.1 16.3 L3.15 12.2 3.25 11.9 3.3 11.7 3.3 11.55 3.3 11.5 3.75 9.3 5.1 9.8 5.2 9.95 4.45 12.75 3.8 14.75 2.1 19.05 1.15 20.9 0.4 20.8" fill="#ffffff" fill-rule="evenodd" stroke="none"/>
    <path d="M16.15 9.65 L14.15 10.0 14.0 9.85 16.15 9.65 M-4.75 13.25 L0.15 12.2 0.2 12.2 0.3 12.15 0.35 12.15 3.3 11.7 3.25 11.9 -4.75 13.25" fill="#ff7a8d" fill-rule="evenodd" stroke="none"/>
    <path d="M12.4 12.25 L12.55 14.0 11.95 14.1 11.9 13.7 12.4 12.25" fill="#ff6e7f" fill-rule="evenodd" stroke="none"/>
    <path d="M12.55 14.0 L12.6 14.3 12.5 14.3 12.7 16.65 12.65 17.35 12.6 17.35 12.55 17.35 12.05 15.55 11.95 14.1 12.55 14.0" fill="#ff6a7b" fill-rule="evenodd" stroke="none"/>
    <path d="M16.9 15.05 L17.05 16.95 16.9 18.45 13.8 19.05 13.9 18.05 13.6 14.15 15.25 13.85 16.55 13.6 16.75 13.6 16.8 13.85 16.9 15.05" fill="#f3505e" fill-rule="evenodd" stroke="none"/>
    <path d="M-7.75 -8.8 L-5.7 -9.1 -5.7 -9.05 -5.7 -8.35 -5.75 -8.1 -6.8 1.45 -7.75 1.45 -8.7 1.55 -7.75 -8.8" fill="#ff6677" fill-rule="evenodd" stroke="none"/>
    <path d="M-8.95 11.95 L-9.65 11.9 -9.65 11.8 -9.6 11.5 -8.7 1.7 -8.7 1.55 -7.75 1.45 -6.8 1.45 -7.9 11.95 -8.95 11.95" fill="#ff5b6b" fill-rule="evenodd" stroke="none"/>
    <path d="M-4.35 13.5 L-4.35 13.55 -6.9 13.95 -4.35 13.5" fill="#ff869a" fill-rule="evenodd" stroke="none"/>
    <path d="M5.3 11.85 L5.15 11.85 5.15 11.7 5.3 11.85 M3.15 12.2 L-4.35 13.5 -6.9 13.95 -6.95 13.9 -7.2 11.6 -5.3 13.3 -5.2 13.35 -4.8 13.25 -4.75 13.25 3.25 11.9 3.15 12.2" fill="#ff6879" fill-rule="evenodd" stroke="none"/>
    <path d="M-4.35 13.55 L-3.95 16.9 -7.0 17.4 -6.9 13.95 -4.35 13.55" fill="#ff6b7c" fill-rule="evenodd" stroke="none"/>
    <path d="M5.15 11.85 L3.6 16.55 Q2.15 20.2 1.15 21.5 L1.15 21.3 1.1 21.2 1.15 20.9 2.1 19.05 3.8 14.75 4.45 12.75 4.75 12.4 Q5.0 11.0 5.25 11.2 L5.15 11.7 5.15 11.85" fill="#f6ffff" fill-rule="evenodd" stroke="none"/>
    <path d="M5.2 9.95 L5.45 10.6 5.25 11.2 Q5.0 11.0 4.75 12.4 L4.45 12.75 5.2 9.95" fill="#f9ffff" fill-rule="evenodd" stroke="none"/>
    <path d="M0.4 21.1 L0.4 20.8 1.15 20.9 1.1 21.2 0.4 21.1" fill="#9fc7ff" fill-rule="evenodd" stroke="none"/>
    <path d="M22.7 16.75 L22.65 17.1 22.4 17.25 22.45 17.0 22.7 16.75" fill="#b9e0ff" fill-rule="evenodd" stroke="none"/>
    <path d="M22.35 17.6 L19.95 16.75 17.8 15.6 18.2 14.85 20.4 16.15 22.45 17.0 22.4 17.25 22.35 17.6" fill="#abd3ff" fill-rule="evenodd" stroke="none"/>
    <path d="M12.6 17.35 L12.65 17.4 12.55 17.35 12.6 17.35" fill="#ff94a9" fill-rule="evenodd" stroke="none"/>
    <path d="M12.65 17.35 L12.65 17.4 12.6 17.35 12.65 17.35" fill="#c93642" fill-rule="evenodd" stroke="none"/>
    <path d="M12.0 19.6 L11.95 19.75 Q11.6 19.9 11.3 20.1 L10.8 19.85 12.0 19.6" fill="#ff8094" fill-rule="evenodd" stroke="none"/>
    <path d="M-12.2 9.05 L-11.8 12.2 -14.95 12.75 -15.15 12.65 -15.05 9.45 -12.2 9.05" fill="#ff788b" fill-rule="evenodd" stroke="none"/>
  </g>
</svg>
