<?xml version="1.0" encoding="UTF-8" standalone="no"?>
<svg xmlns:xlink="http://www.w3.org/1999/xlink" height="42.65px" width="42.15px" xmlns="http://www.w3.org/2000/svg">
  <g transform="matrix(1.0, 0.0, 0.0, 1.0, 19.65, 22.0)">
    <path d="M-8.05 -10.2 L-8.85 0.35 -9.7 10.75 -9.85 10.5 -12.15 8.6 -12.5 8.25 -14.9 6.2 -14.95 9.45 -15.05 12.7 -16.55 11.1 -16.0 5.2 -16.0 5.15 -16.05 5.1 -19.65 -18.95 -10.5 -12.75 -10.45 -12.2 -10.9 -12.15 -8.05 -10.2 M-6.95 0.25 L-5.95 -10.45 -0.35 -8.0 5.25 -5.5 6.1 1.3 0.3 -0.9 -5.8 -3.6 -5.35 12.25 -7.2 10.7 -6.95 13.1 -7.05 13.1 -6.9 13.35 -7.05 16.75 -7.2 20.15 -8.95 18.05 -8.2 12.1 -8.2 12.05 -9.45 10.95 -7.95 10.95 -6.95 0.25 M16.3 -11.75 L16.35 -11.35 16.8 -3.45 17.35 6.55 16.3 4.35 16.3 4.25 16.25 0.05 16.25 -6.75 16.3 -11.75 M11.8 20.5 L10.35 20.65 8.25 18.45 7.1 15.95 5.55 11.1 5.5 11.05 5.05 10.55 5.0 10.5 5.25 9.45 6.85 8.25 6.95 8.2 7.0 8.25 7.8 13.0 8.25 14.75 8.85 16.1 10.2 17.6 10.75 17.65 11.2 17.55 11.3 17.4 11.65 16.95 11.75 16.6 12.0 14.85 12.0 14.8 12.0 14.2 11.95 14.15 11.95 14.05 11.9 13.2 11.8 12.9 11.8 12.85 11.35 10.85 12.2 9.75 13.05 13.2 13.15 14.8 13.25 16.15 12.75 19.15 11.8 20.5 M0.0 11.1 L3.15 10.35 3.1 10.6 0.0 11.1" fill="#bf313d" fill-rule="evenodd" stroke="none"/>
    <path d="M-5.95 -10.5 L-6.0 -10.5 -8.05 -10.2 -10.9 -12.15 -10.45 -12.2 -10.5 -12.75 -19.65 -18.95 3.55 -21.9 Q3.4 -22.3 5.35 -21.15 L14.65 -16.1 14.6 -15.6 14.55 -15.5 13.1 -15.3 14.65 -14.45 16.25 -13.55 5.6 -12.05 -5.95 -10.5" fill="#ff7f92" fill-rule="evenodd" stroke="none"/>
    <path d="M-8.05 -10.2 L-6.0 -10.5 -5.95 -10.5 -5.95 -10.45 -6.95 0.25 -7.9 0.2 -8.85 0.35 -8.05 -10.2 M5.5 11.1 L4.8 11.2 4.95 10.55 5.05 10.55 5.5 11.05 5.5 11.1 M2.9 11.55 L-4.45 12.75 -6.55 13.15 -6.95 13.1 -7.2 10.7 -5.35 12.25 -5.1 12.25 -5.0 12.2 -4.95 12.2 3.05 10.9 2.9 11.5 2.9 11.55" fill="#ff6a7b" fill-rule="evenodd" stroke="none"/>
    <path d="M-5.95 -10.45 L-5.95 -10.5 5.6 -12.05 7.0 -9.05 -0.35 -8.0 -5.95 -10.45" fill="#ff8fa4" fill-rule="evenodd" stroke="none"/>
    <path d="M14.65 -14.45 L13.1 -15.3 14.55 -15.5 14.6 -15.6 14.9 -15.6 16.5 -14.7 14.65 -14.45" fill="#ff7588" fill-rule="evenodd" stroke="none"/>
    <path d="M5.6 -12.05 L16.25 -13.55 16.25 -13.45 11.6 -6.4 5.25 -5.5 -0.35 -8.0 7.0 -9.05 5.6 -12.05" fill="#ff94aa" fill-rule="evenodd" stroke="none"/>
    <path d="M16.8 -3.45 L16.35 -11.35 16.3 -11.75 16.25 -13.45 16.25 -13.55 18.15 -13.8 18.25 -13.15 18.6 -3.85 17.6 -3.7 16.8 -3.45" fill="#ff7385" fill-rule="evenodd" stroke="none"/>
    <path d="M16.25 -13.55 L14.65 -14.45 16.5 -14.7 18.15 -13.8 16.25 -13.55 M-12.15 8.6 L-12.1 9.0 -14.95 9.45 -14.9 6.2 -12.5 8.25 -12.15 8.6" fill="#ff7c8f" fill-rule="evenodd" stroke="none"/>
    <path d="M16.3 -11.75 L16.25 -6.75 13.9 -3.25 12.85 -0.45 12.5 0.2 11.6 -6.4 16.25 -13.45 16.3 -11.75" fill="#ff7688" fill-rule="evenodd" stroke="none"/>
    <path d="M-12.1 9.0 L-11.7 12.2 -15.0 12.75 -15.05 12.7 -14.95 9.45 -12.1 9.0" fill="#ff788b" fill-rule="evenodd" stroke="none"/>
    <path d="M17.35 6.55 L16.8 -3.45 17.6 -3.7 18.6 -3.85 19.0 6.1 Q16.9 7.1 17.35 6.55" fill="#ff6373" fill-rule="evenodd" stroke="none"/>
    <path d="M16.25 -6.75 L16.25 0.05 14.45 4.35 13.35 7.0 12.5 0.2 12.85 -0.45 13.9 -3.25 16.25 -6.75 M13.75 -1.15 Q13.25 -0.45 13.95 0.55 14.6 -0.1 13.75 -1.15 M14.4 9.3 L15.35 9.15 15.75 10.85 16.0 12.0 16.15 12.65 16.2 13.35 16.2 14.25 13.15 14.8 13.05 13.2 12.2 9.75 12.6 9.6 13.45 9.45 14.4 9.3" fill="#ff7082" fill-rule="evenodd" stroke="none"/>
    <path d="M13.75 -1.15 Q14.6 -0.1 13.95 0.55 13.25 -0.45 13.75 -1.15 M1.1 2.55 L0.8 2.3 0.55 1.7 Q0.7 0.3 1.65 0.55 L2.1 0.75 2.35 1.05 2.55 1.7 Q2.4 2.75 1.4 2.65 L1.1 2.55" fill="#000000" fill-rule="evenodd" stroke="none"/>
    <path d="M11.6 -6.4 L12.5 0.2 13.35 7.0 13.2 7.75 12.85 8.7 12.6 9.6 12.2 9.75 11.35 10.85 11.8 12.85 11.8 12.9 11.95 14.05 11.95 14.15 12.0 14.2 12.0 14.8 12.0 14.85 11.75 16.6 11.65 16.95 11.3 17.4 10.2 17.6 8.85 16.1 8.25 14.75 7.8 13.0 7.0 8.25 6.95 8.2 6.1 1.3 5.25 -5.5 11.6 -6.4" fill="#ff899d" fill-rule="evenodd" stroke="none"/>
    <path d="M16.3 4.25 L16.3 4.35 16.3 8.65 16.1 8.65 13.95 8.8 13.2 7.75 13.35 7.0 14.45 4.35 16.3 4.25" fill="#e34451" fill-rule="evenodd" stroke="none"/>
    <path d="M14.15 9.0 L14.4 9.3 13.45 9.45 12.85 8.7 13.2 7.75 13.95 8.8 14.15 9.0 M15.75 10.85 Q19.05 13.95 22.5 15.35 L22.25 15.6 19.2 14.2 17.25 13.0 16.0 12.0 15.75 10.85 M22.5 15.65 L22.45 15.95 22.2 16.2 22.2 15.85 22.5 15.65 M1.1 20.0 L1.1 20.05 0.35 19.95 0.35 19.65 1.1 19.75 1.1 20.0 M0.35 19.3 Q1.1 17.9 2.05 14.95 L2.9 11.55 2.9 11.5 3.05 10.9 3.1 10.6 3.15 10.35 3.55 8.25 3.55 8.0 3.7 8.0 4.95 8.5 5.05 8.65 3.6 13.65 2.9 15.6 1.85 18.05 1.1 19.4 0.35 19.3" fill="#ffffff" fill-rule="evenodd" stroke="none"/>
    <path d="M16.1 8.65 L14.15 9.0 13.95 8.8 16.1 8.65 M5.0 10.5 L5.05 10.55 4.95 10.55 5.0 10.5 M-4.95 12.2 L-0.15 11.1 0.0 11.1 3.1 10.6 3.05 10.9 -4.95 12.2" fill="#ff778a" fill-rule="evenodd" stroke="none"/>
    <path d="M17.6 14.25 L16.2 13.35 16.15 12.65 16.0 12.0 17.25 13.0 17.6 14.25 M12.85 8.7 L13.45 9.45 12.6 9.6 12.85 8.7" fill="#aed5ff" fill-rule="evenodd" stroke="none"/>
    <path d="M11.8 12.9 L11.9 13.2 11.95 14.05 11.8 12.9" fill="#ff7284" fill-rule="evenodd" stroke="none"/>
    <path d="M12.0 14.8 L12.0 14.85 12.0 14.8" fill="#ff95ab" fill-rule="evenodd" stroke="none"/>
    <path d="M22.2 16.2 Q19.4 15.45 17.6 14.25 L17.25 13.0 19.2 14.2 22.25 15.6 22.2 15.85 22.2 16.2" fill="#b0d7ff" fill-rule="evenodd" stroke="none"/>
    <path d="M16.25 0.05 L16.3 4.25 14.45 4.35 16.25 0.05" fill="#ff5b6b" fill-rule="evenodd" stroke="none"/>
    <path d="M16.2 14.25 L16.3 15.7 15.7 18.7 14.8 19.95 11.8 20.5 12.75 19.15 13.25 16.15 13.15 14.8 16.2 14.25" fill="#cb3743" fill-rule="evenodd" stroke="none"/>
    <path d="M6.95 8.2 L6.85 8.25 5.25 9.45 5.3 9.3 5.05 8.65 4.95 8.5 3.7 8.0 3.55 8.0 3.55 8.25 3.15 10.35 0.0 11.1 -0.15 11.1 -4.95 12.2 -5.0 12.2 -5.1 12.25 -5.35 12.25 -5.8 -3.6 0.3 -0.9 6.1 1.3 6.95 8.2 M1.1 2.55 L1.4 2.65 Q2.4 2.75 2.55 1.7 L2.35 1.05 2.1 0.75 1.65 0.55 Q0.7 0.3 0.55 1.7 L0.8 2.3 1.1 2.55" fill="#c1323e" fill-rule="evenodd" stroke="none"/>
    <path d="M-8.85 0.35 L-7.9 0.2 -6.95 0.25 -7.95 10.95 -9.45 10.95 -9.7 10.9 -9.7 10.75 -8.85 0.35" fill="#ff5e6e" fill-rule="evenodd" stroke="none"/>
    <path d="M-4.45 12.75 L-4.35 12.9 -6.9 13.35 -7.05 13.1 -6.95 13.1 -6.55 13.15 -4.45 12.75" fill="#ff889c" fill-rule="evenodd" stroke="none"/>
    <path d="M-4.35 12.9 L-4.05 16.25 -7.05 16.75 -6.9 13.35 -4.35 12.9" fill="#ff6778" fill-rule="evenodd" stroke="none"/>
    <path d="M4.8 11.2 L4.45 12.2 Q4.1 12.3 3.9 13.5 L3.6 13.65 5.05 8.65 5.3 9.3 5.25 9.45 5.0 10.5 4.95 10.55 4.8 11.2" fill="#feffff" fill-rule="evenodd" stroke="none"/>
    <path d="M4.45 12.2 Q3.05 17.3 1.1 20.0 L1.1 19.75 1.1 19.4 1.85 18.05 2.9 15.6 3.6 13.65 3.9 13.5 Q4.1 12.3 4.45 12.2" fill="#fbffff" fill-rule="evenodd" stroke="none"/>
    <path d="M5.55 11.1 L5.5 11.1 5.5 11.05 5.55 11.1" fill="#ff8498" fill-rule="evenodd" stroke="none"/>
    <path d="M0.35 19.65 L0.35 19.3 1.1 19.4 1.1 19.75 0.35 19.65" fill="#9fc7ff" fill-rule="evenodd" stroke="none"/>
    <path d="M-4.05 16.25 L-3.7 19.6 -7.2 20.15 -7.05 16.75 -4.05 16.25" fill="#ff6474" fill-rule="evenodd" stroke="none"/>
    <path d="M22.5 15.35 L22.5 15.65 22.2 15.85 22.25 15.6 22.5 15.35" fill="#bfe7ff" fill-rule="evenodd" stroke="none"/>
    <path d="M11.3 17.4 L11.2 17.55 10.75 17.65 10.2 17.6 11.3 17.4" fill="#ff8094" fill-rule="evenodd" stroke="none"/>
  </g>
</svg>
