<?xml version="1.0" encoding="UTF-8" standalone="no"?>
<svg xmlns:xlink="http://www.w3.org/1999/xlink" height="41.45px" width="42.1px" xmlns="http://www.w3.org/2000/svg">
  <g transform="matrix(1.0, 0.0, 0.0, 1.0, 19.85, 22.25)">
    <path d="M-19.85 -19.35 L3.35 -22.25 3.7 -22.2 14.05 -17.5 14.1 -17.0 14.4 -17.0 15.95 -16.25 14.1 -16.0 15.7 -15.3 15.7 -15.25 5.1 -13.8 -6.35 -12.25 -8.45 -12.0 -11.2 -13.6 -10.8 -13.7 -10.85 -14.25 -19.85 -19.35" fill="#ff7f92" fill-rule="evenodd" stroke="none"/>
    <path d="M-19.85 -19.35 L-10.85 -14.25 -10.8 -13.7 -11.2 -13.6 -8.45 -12.0 -9.05 -1.25 -9.75 9.4 -9.75 9.55 -8.0 9.65 -7.2 -1.35 -7.15 -1.55 -6.45 -11.35 -6.4 -11.4 -6.35 -12.25 -0.75 -9.9 4.8 -7.5 5.75 -0.65 0.3 -2.55 -6.1 -5.25 -5.4 10.9 -7.3 9.55 -6.95 12.15 -7.35 11.9 -6.9 12.5 -7.15 15.85 -7.4 19.2 -9.05 16.9 -8.2 11.25 -8.2 11.2 -8.2 11.15 -12.15 8.15 -14.7 6.1 -14.95 5.95 -14.8 6.15 -14.85 9.45 -14.95 12.7 -16.4 11.1 -15.9 5.1 -15.9 5.05 -19.85 -19.35 M17.1 5.35 L16.0 3.15 15.95 2.9 15.85 -1.45 15.8 -13.45 16.4 -4.9 16.4 -4.8 17.1 5.0 17.1 5.35 M15.5 13.35 L15.4 15.2 14.65 17.05 13.5 17.85 10.4 18.35 8.15 16.65 Q7.25 15.65 5.6 10.1 L5.35 9.5 5.05 9.2 4.8 8.9 5.05 7.8 6.7 6.3 7.2 9.6 7.85 12.05 8.1 12.95 8.75 14.15 9.95 15.25 10.9 14.75 11.05 14.5 11.05 14.4 11.3 13.7 11.35 11.45 11.1 9.8 10.35 7.8 10.85 5.9 12.05 9.05 12.55 11.95 12.5 13.9 15.5 13.35 M12.95 5.45 L13.0 5.45 12.95 5.5 12.95 5.45 M-0.3 9.65 L2.9 8.85 2.85 9.15 -0.3 9.65 M-15.9 5.05 L-15.8 5.15 -15.9 5.05" fill="#bf313d" fill-rule="evenodd" stroke="none"/>
    <path d="M-8.45 -12.0 L-6.35 -12.25 -6.4 -11.4 -6.45 -11.35 -7.15 -1.55 -7.2 -1.35 -8.0 -1.35 -9.05 -1.25 -8.45 -12.0" fill="#ff6e80" fill-rule="evenodd" stroke="none"/>
    <path d="M-6.35 -12.25 L5.1 -13.8 6.35 -11.35 6.55 -10.85 -0.75 -9.9 -6.35 -12.25 M11.3 13.7 L8.75 14.15 8.1 12.95 7.85 12.05 11.35 11.45 11.3 13.7" fill="#ff8ea3" fill-rule="evenodd" stroke="none"/>
    <path d="M5.1 -13.8 L15.7 -15.25 15.7 -15.2 11.15 -8.35 4.8 -7.5 -0.75 -9.9 6.55 -10.85 6.35 -11.35 5.1 -13.8" fill="#ff93a9" fill-rule="evenodd" stroke="none"/>
    <path d="M15.7 -15.25 L15.7 -15.3 15.7 -15.25" fill="#ff7486" fill-rule="evenodd" stroke="none"/>
    <path d="M15.7 -15.3 L14.1 -16.0 15.95 -16.25 17.6 -15.55 15.7 -15.3" fill="#ff7789" fill-rule="evenodd" stroke="none"/>
    <path d="M17.6 -15.55 L18.15 -5.3 17.2 -5.2 16.4 -4.9 15.8 -13.45 15.7 -15.2 15.7 -15.25 15.7 -15.3 17.6 -15.55 M-12.05 9.0 L-11.65 12.2 -14.65 12.75 -14.95 12.7 -14.85 9.45 -12.05 9.0" fill="#ff788b" fill-rule="evenodd" stroke="none"/>
    <path d="M15.7 -15.2 L15.8 -13.45 15.85 -1.45 14.0 2.9 13.05 5.05 12.95 5.0 12.05 -1.55 12.1 -1.7 11.15 -8.35 15.7 -15.2 M13.15 -2.4 L13.3 -1.55 13.5 -1.2 13.65 -1.3 13.75 -1.55 Q14.0 -2.45 13.35 -2.9 L13.2 -2.8 13.15 -2.4" fill="#ff7082" fill-rule="evenodd" stroke="none"/>
    <path d="M-15.9 5.05 L-15.8 5.15 -15.9 5.05 M-14.7 6.1 L-14.8 6.15 -14.95 5.95 -14.7 6.1" fill="#ff798c" fill-rule="evenodd" stroke="none"/>
    <path d="M-12.15 8.15 L-12.05 9.0 -14.85 9.45 -14.8 6.15 -14.7 6.1 -12.15 8.15" fill="#ff7c8f" fill-rule="evenodd" stroke="none"/>
    <path d="M18.15 -5.3 L18.7 4.85 17.25 5.5 17.1 5.45 17.1 5.35 17.1 5.0 16.4 -4.8 16.4 -4.9 17.2 -5.2 18.15 -5.3" fill="#ff6778" fill-rule="evenodd" stroke="none"/>
    <path d="M13.15 -2.4 L13.2 -2.8 13.35 -2.9 Q14.0 -2.45 13.75 -1.55 L13.65 -1.3 13.5 -1.2 13.3 -1.55 13.15 -2.4 M0.6 -1.05 L1.15 -1.25 Q2.0 -1.3 2.2 -0.3 L2.15 0.25 1.95 0.65 1.35 0.9 0.75 0.75 0.5 0.5 0.3 -0.05 Q0.2 -0.6 0.6 -1.05" fill="#000000" fill-rule="evenodd" stroke="none"/>
    <path d="M12.95 5.0 L13.05 5.05 13.0 5.1 12.95 5.0" fill="#ff5e6e" fill-rule="evenodd" stroke="none"/>
    <path d="M11.15 -8.35 L12.1 -1.7 12.05 -1.55 12.95 5.0 13.0 5.1 12.95 5.45 12.95 5.5 10.9 5.8 10.85 5.9 10.35 7.8 11.1 9.8 11.35 11.45 7.85 12.05 7.2 9.6 6.7 6.3 5.75 -0.6 5.75 -0.65 4.8 -7.5 11.15 -8.35" fill="#ff899d" fill-rule="evenodd" stroke="none"/>
    <path d="M-4.1 15.35 L-3.9 18.6 -7.4 19.2 -7.15 15.85 -4.1 15.35 M14.0 2.9 L15.85 -1.45 15.95 2.9 14.0 2.9" fill="#ff5f6f" fill-rule="evenodd" stroke="none"/>
    <path d="M16.0 3.15 L16.05 7.3 15.95 7.35 14.7 7.4 14.0 5.35 13.0 5.45 12.95 5.45 13.0 5.1 13.05 5.05 14.0 2.9 15.95 2.9 16.0 3.15" fill="#ec4856" fill-rule="evenodd" stroke="none"/>
    <path d="M14.75 7.55 L15.2 8.9 15.35 9.95 15.6 11.45 15.5 13.35 12.5 13.9 12.55 11.95 12.05 9.05 10.85 5.9 10.9 5.8 12.95 5.5 13.0 5.45 14.0 5.35 14.7 7.4 14.75 7.55" fill="#ff7487" fill-rule="evenodd" stroke="none"/>
    <path d="M15.95 7.35 L14.75 7.55 14.7 7.4 15.95 7.35 M-5.2 10.9 L-0.3 9.65 2.85 9.15 2.75 9.55 -5.2 10.9 M4.8 8.9 L5.05 9.2 4.7 9.25 4.8 8.9" fill="#ff7385" fill-rule="evenodd" stroke="none"/>
    <path d="M11.3 13.7 L11.05 14.4 10.9 14.4 11.05 14.5 10.9 14.75 9.95 15.25 8.75 14.15 11.3 13.7" fill="#ff91a6" fill-rule="evenodd" stroke="none"/>
    <path d="M11.05 14.5 L10.9 14.4 11.05 14.4 11.05 14.5" fill="#ff93a8" fill-rule="evenodd" stroke="none"/>
    <path d="M17.35 12.5 L15.6 11.45 15.35 9.95 17.0 11.2 17.35 12.5" fill="#b3dbff" fill-rule="evenodd" stroke="none"/>
    <path d="M21.85 14.4 L19.55 13.6 17.35 12.5 17.0 11.2 19.65 12.8 22.0 13.7 21.95 14.0 21.85 14.4" fill="#b6ddff" fill-rule="evenodd" stroke="none"/>
    <path d="M15.2 8.9 Q18.85 12.3 22.25 13.55 L22.0 13.7 19.65 12.8 17.0 11.2 15.35 9.95 15.2 8.9 M22.2 13.85 L22.2 14.15 21.85 14.4 21.95 14.0 22.2 13.85 M4.35 10.3 Q3.5 14.05 1.0 18.1 L0.25 18.05 0.25 17.7 1.0 17.8 1.0 17.45 0.3 17.4 1.9 13.1 2.55 10.6 2.75 9.55 2.85 9.15 2.9 8.85 3.35 6.25 4.8 6.85 5.05 7.6 5.05 7.8 4.8 8.9 4.7 9.25 4.35 10.3" fill="#ffffff" fill-rule="evenodd" stroke="none"/>
    <path d="M22.25 13.55 L22.2 13.85 21.95 14.0 22.0 13.7 22.25 13.55" fill="#c7efff" fill-rule="evenodd" stroke="none"/>
    <path d="M0.6 -1.05 Q0.2 -0.6 0.3 -0.05 L0.5 0.5 0.75 0.75 1.35 0.9 1.95 0.65 2.15 0.25 2.2 -0.3 Q2.0 -1.3 1.15 -1.25 L0.6 -1.05 M5.75 -0.65 L5.75 -0.6 6.7 6.3 5.05 7.8 5.05 7.6 4.8 6.85 3.35 6.25 2.9 8.85 -0.3 9.65 -5.2 10.9 -5.25 10.9 -5.3 10.95 -5.4 10.9 -6.1 -5.25 0.3 -2.55 5.75 -0.65" fill="#c53540" fill-rule="evenodd" stroke="none"/>
    <path d="M-7.2 -1.35 L-8.0 9.65 -9.75 9.55 -9.75 9.4 -9.05 -1.25 -8.0 -1.35 -7.2 -1.35" fill="#ff6272" fill-rule="evenodd" stroke="none"/>
    <path d="M5.6 10.1 L4.35 10.3 4.7 9.25 5.05 9.2 5.35 9.5 5.6 10.1 M2.55 10.6 L-4.55 11.8 -6.75 12.2 -6.95 12.15 -7.3 9.55 -5.4 10.9 -5.3 10.95 -5.25 10.9 -5.2 10.9 2.75 9.55 2.55 10.6" fill="#ff6e7f" fill-rule="evenodd" stroke="none"/>
    <path d="M-4.55 11.8 L-4.35 12.05 -6.9 12.5 -7.35 11.9 -6.95 12.15 -6.75 12.2 -4.55 11.8" fill="#ff8b9f" fill-rule="evenodd" stroke="none"/>
    <path d="M-8.2 11.2 L-8.2 11.15 -8.2 11.2" fill="#ff5665" fill-rule="evenodd" stroke="none"/>
    <path d="M-4.35 12.05 L-4.1 15.35 -7.15 15.85 -6.9 12.5 -4.35 12.05" fill="#ff6273" fill-rule="evenodd" stroke="none"/>
    <path d="M0.25 17.7 L0.3 17.4 1.0 17.45 1.0 17.8 0.25 17.7" fill="#9fc7ff" fill-rule="evenodd" stroke="none"/>
  </g>
</svg>
