<?xml version="1.0" encoding="UTF-8" standalone="no"?>
<svg xmlns:xlink="http://www.w3.org/1999/xlink" height="40.8px" width="41.95px" xmlns="http://www.w3.org/2000/svg">
  <g transform="matrix(1.0, 0.0, 0.0, 1.0, 20.05, 22.7)">
    <path d="M4.55 -15.85 L-6.8 -14.35 -6.85 -14.35 -8.85 -14.05 -11.55 -15.3 -11.15 -15.35 -11.2 -15.95 -20.05 -19.85 3.0 -22.7 13.45 -19.15 13.45 -18.55 13.85 -18.55 16.9 -17.5 15.05 -17.25 15.0 -17.25 4.55 -15.85" fill="#ff7f92" fill-rule="evenodd" stroke="none"/>
    <path d="M-6.8 -14.35 L-7.45 -3.15 -8.3 -3.2 -9.3 -3.05 -8.85 -14.05 -6.85 -14.35 -6.8 -14.35" fill="#ff7385" fill-rule="evenodd" stroke="none"/>
    <path d="M-1.25 -12.05 L-6.8 -14.35 4.55 -15.85 6.0 -13.05 -1.25 -12.05" fill="#ff8ca1" fill-rule="evenodd" stroke="none"/>
    <path d="M-6.8 -14.35 L-1.25 -12.05 4.3 -9.75 6.35 4.05 7.35 9.15 7.6 9.95 7.8 10.75 8.5 11.9 9.1 12.3 9.75 12.7 10.5 12.05 10.55 11.95 10.55 11.9 10.65 11.55 10.65 11.5 10.85 10.6 10.75 9.4 10.75 8.6 10.3 6.6 9.5 5.0 9.75 2.65 11.15 5.3 11.85 8.25 11.95 10.25 12.0 12.2 11.45 14.55 11.25 14.75 10.3 15.85 8.95 15.2 8.6 15.05 8.6 15.2 8.35 14.9 8.05 14.75 7.5 13.7 6.8 12.85 6.85 12.55 6.9 12.6 6.85 12.45 5.6 8.95 5.05 7.6 4.6 7.15 4.45 7.15 4.5 7.05 4.8 5.8 4.6 5.0 4.5 4.8 3.15 4.3 3.05 4.3 2.55 7.45 -0.5 7.95 -5.35 9.3 -5.5 9.3 -7.2 8.25 -7.35 8.15 -7.35 8.25 -6.95 11.0 -7.35 10.8 -6.9 11.45 -6.9 11.5 -7.2 14.75 -7.2 14.8 -7.5 18.05 -7.55 18.05 -9.2 15.5 -8.2 10.15 -12.1 7.65 -14.5 6.05 -14.95 5.75 -14.7 6.1 -14.75 9.4 -14.8 12.75 -16.25 11.15 -15.75 5.15 -15.8 5.05 -15.8 5.0 -20.05 -19.85 -11.2 -15.95 -11.15 -15.35 -11.55 -15.3 -8.85 -14.05 -9.3 -3.05 -9.8 7.85 -9.7 8.0 -8.1 8.1 -7.45 -3.15 -6.8 -14.35 M16.75 3.9 L15.65 1.75 15.6 1.7 15.6 1.25 15.4 -3.2 15.15 -15.5 15.95 -6.6 16.75 3.9 M0.95 -3.4 Q-0.6 -2.9 0.2 -1.55 0.55 -0.85 1.6 -1.55 2.3 -3.05 0.95 -3.4 M0.15 9.85 L0.5 9.8 0.45 10.15 0.15 9.85" fill="#bf313d" fill-rule="evenodd" stroke="none"/>
    <path d="M-1.25 -12.05 L6.0 -13.05 4.55 -15.85 15.0 -17.25 15.05 -17.25 15.0 -17.15 10.6 -10.65 4.3 -9.75 -1.25 -12.05" fill="#ff92a8" fill-rule="evenodd" stroke="none"/>
    <path d="M15.05 -17.25 L16.9 -17.5 17.0 -17.35 17.65 -7.0 16.8 -6.95 15.95 -6.6 15.15 -15.5 15.0 -17.15 15.05 -17.25" fill="#ff7d91" fill-rule="evenodd" stroke="none"/>
    <path d="M15.0 -17.15 L15.15 -15.5 15.4 -3.2 13.45 1.2 12.95 2.2 12.85 2.1 12.5 2.1 12.45 2.1 12.4 1.7 11.6 -3.8 11.6 -3.95 10.6 -10.65 15.0 -17.15 M12.7 -4.8 L12.7 -4.0 13.0 -3.25 Q13.7 -3.9 13.05 -4.8 L12.9 -4.95 12.75 -4.95 12.7 -4.8" fill="#ff7082" fill-rule="evenodd" stroke="none"/>
    <path d="M9.75 2.65 L9.5 5.0 10.3 6.6 10.75 8.6 7.35 9.15 6.35 4.05 4.3 -9.75 10.6 -10.65 11.6 -3.95 11.6 -3.8 12.4 1.7 12.45 2.1 12.45 2.15 10.1 2.5 9.75 2.65 M10.75 9.4 L10.85 10.6 10.65 11.5 10.65 11.55 10.2 11.65 8.5 11.9 7.8 10.75 7.6 9.95 10.75 9.4" fill="#ff899d" fill-rule="evenodd" stroke="none"/>
    <path d="M17.65 -7.0 L18.35 3.4 16.9 4.0 16.8 4.0 16.75 3.9 15.95 -6.6 16.8 -6.95 17.65 -7.0" fill="#ff6b7d" fill-rule="evenodd" stroke="none"/>
    <path d="M12.7 -4.8 L12.75 -4.95 12.9 -4.95 13.05 -4.8 Q13.7 -3.9 13.0 -3.25 L12.7 -4.0 12.7 -4.8 M0.95 -3.4 Q2.3 -3.05 1.6 -1.55 0.55 -0.85 0.2 -1.55 -0.6 -2.9 0.95 -3.4" fill="#000000" fill-rule="evenodd" stroke="none"/>
    <path d="M11.95 10.25 L11.85 8.25 11.15 5.3 9.75 2.65 10.1 2.5 12.45 2.15 12.5 2.1 12.85 2.1 12.95 2.2 14.2 5.0 14.4 5.8 14.45 6.0 14.6 6.65 14.85 7.8 14.9 9.15 14.9 9.75 11.95 10.25" fill="#ff8195" fill-rule="evenodd" stroke="none"/>
    <path d="M12.45 2.1 L12.5 2.1 12.45 2.15 12.45 2.1" fill="#e74653" fill-rule="evenodd" stroke="none"/>
    <path d="M15.65 1.75 L15.7 5.8 15.6 5.8 14.4 5.8 14.2 5.0 12.95 2.2 13.45 1.2 15.6 1.25 15.6 1.7 15.65 1.75" fill="#f54d5b" fill-rule="evenodd" stroke="none"/>
    <path d="M13.45 1.2 L15.4 -3.2 15.6 1.25 13.45 1.2" fill="#ff6373" fill-rule="evenodd" stroke="none"/>
    <path d="M17.05 10.45 L16.75 10.35 14.9 9.15 14.85 7.8 15.8 8.5 15.55 8.95 16.75 9.75 16.9 9.9 17.05 10.45" fill="#bae1ff" fill-rule="evenodd" stroke="none"/>
    <path d="M2.55 7.45 L3.05 4.3 3.15 4.3 4.5 4.8 4.6 5.0 4.8 5.8 4.5 7.05 4.45 7.15 4.3 7.7 3.9 9.2 2.65 12.65 Q1.45 15.25 0.85 15.85 L0.15 15.8 0.1 15.45 0.8 15.5 0.8 15.2 0.15 15.1 1.25 12.5 1.95 10.0 2.1 9.55 2.35 8.25 2.45 8.05 2.4 8.05 2.45 8.0 2.55 7.45 M14.6 6.65 Q18.65 10.4 21.9 11.3 L21.65 11.5 21.6 11.55 21.55 11.5 19.4 10.7 Q16.75 9.4 15.8 8.5 L14.85 7.8 14.6 6.65 M21.8 11.7 L21.8 12.0 21.55 12.2 21.55 11.85 21.8 11.7" fill="#ffffff" fill-rule="evenodd" stroke="none"/>
    <path d="M21.55 12.2 Q19.35 11.8 17.05 10.45 L16.9 9.9 16.75 9.75 15.55 8.95 15.8 8.5 Q16.75 9.4 19.4 10.7 L21.55 11.5 21.6 11.55 21.55 11.85 21.55 12.2" fill="#bce3ff" fill-rule="evenodd" stroke="none"/>
    <path d="M-5.35 9.3 L-0.5 7.95 2.55 7.45 2.45 8.0 2.4 8.05 -5.35 9.3 M4.45 7.15 L4.6 7.15 5.05 7.6 4.3 7.7 4.45 7.15 M15.6 5.8 L14.45 6.0 14.4 5.8 15.6 5.8" fill="#ff6e80" fill-rule="evenodd" stroke="none"/>
    <path d="M-6.9 11.45 L-7.35 10.8 -6.95 11.0 -6.7 11.0 -4.65 10.7 -4.4 11.05 -6.9 11.45 M10.65 11.55 L10.55 11.9 10.5 11.9 10.2 11.65 10.65 11.55 M10.5 12.05 L9.75 12.7 9.1 12.3 10.5 12.05" fill="#ff8da2" fill-rule="evenodd" stroke="none"/>
    <path d="M10.55 11.9 L10.55 11.95 10.5 11.9 10.55 11.9" fill="#cd3845" fill-rule="evenodd" stroke="none"/>
    <path d="M10.55 11.95 L10.5 12.05 9.1 12.3 8.5 11.9 10.2 11.65 10.5 11.9 10.55 11.95" fill="#ff8ca0" fill-rule="evenodd" stroke="none"/>
    <path d="M10.3 15.85 L11.25 14.75 11.45 14.55 12.0 12.2 11.95 10.25 14.9 9.75 14.95 11.65 14.4 14.05 13.35 15.3 10.3 15.85" fill="#cb3743" fill-rule="evenodd" stroke="none"/>
    <path d="M10.75 8.6 L10.75 9.4 7.6 9.95 7.35 9.15 10.75 8.6" fill="#ff8599" fill-rule="evenodd" stroke="none"/>
    <path d="M21.9 11.3 L21.8 11.7 21.55 11.85 21.6 11.55 21.65 11.5 21.9 11.3" fill="#d1f8ff" fill-rule="evenodd" stroke="none"/>
    <path d="M-7.45 -3.15 L-8.1 8.1 -9.7 8.0 -9.8 7.85 -9.3 -3.05 -8.3 -3.2 -7.45 -3.15" fill="#ff6676" fill-rule="evenodd" stroke="none"/>
    <path d="M-6.95 11.0 L-7.35 8.25 -7.35 8.15 -7.2 8.25 -5.5 9.3 -5.35 9.3 2.4 8.05 2.45 8.05 2.35 8.25 2.1 9.55 0.5 9.8 0.15 9.85 -4.65 10.7 -6.7 11.0 -6.95 11.0 M5.05 7.6 L5.6 8.95 3.9 9.2 4.3 7.7 5.05 7.6" fill="#ff7183" fill-rule="evenodd" stroke="none"/>
    <path d="M-7.2 14.8 L-7.2 14.75 -6.9 11.5 -6.9 11.45 -4.4 11.05 -4.25 14.3 -7.2 14.8" fill="#ff5e6e" fill-rule="evenodd" stroke="none"/>
    <path d="M-7.55 18.05 L-7.5 18.05 -7.2 14.8 -4.25 14.3 -4.1 17.5 -7.45 18.1 -7.55 18.05" fill="#ff5b6b" fill-rule="evenodd" stroke="none"/>
    <path d="M0.5 9.8 L2.1 9.55 1.95 10.0 0.45 10.15 0.5 9.8" fill="#ff7a8d" fill-rule="evenodd" stroke="none"/>
    <path d="M0.15 15.1 L0.8 15.2 0.8 15.5 0.1 15.45 0.15 15.1" fill="#9fc7ff" fill-rule="evenodd" stroke="none"/>
    <path d="M6.85 12.45 L6.9 12.6 6.85 12.55 6.85 12.45" fill="#ff94aa" fill-rule="evenodd" stroke="none"/>
    <path d="M8.6 15.2 L8.6 15.05 8.95 15.2 8.7 15.25 8.6 15.2" fill="#ff5d6d" fill-rule="evenodd" stroke="none"/>
    <path d="M-14.7 6.1 L-14.95 5.75 -14.5 6.05 -14.7 6.1" fill="#ff798c" fill-rule="evenodd" stroke="none"/>
    <path d="M-14.75 9.4 L-14.7 6.1 -14.5 6.05 -12.1 7.65 -11.9 8.95 -14.75 9.4" fill="#ff7b8e" fill-rule="evenodd" stroke="none"/>
    <path d="M-14.8 12.75 L-14.75 9.4 -11.9 8.95 -11.55 12.2 -14.8 12.75" fill="#ff788a" fill-rule="evenodd" stroke="none"/>
  </g>
</svg>
