<?xml version="1.0" encoding="UTF-8" standalone="no"?>
<svg xmlns:xlink="http://www.w3.org/1999/xlink" height="40.0px" width="41.65px" xmlns="http://www.w3.org/2000/svg">
  <g transform="matrix(1.0, 0.0, 0.0, 1.0, 20.2, 23.05)">
    <path d="M-20.2 -20.3 L2.35 -23.05 2.85 -23.05 12.8 -20.85 12.8 -20.3 13.2 -20.3 16.2 -19.6 14.3 -19.35 3.95 -18.0 -7.25 -16.55 -7.35 -16.55 -9.3 -16.3 -11.9 -17.1 -11.55 -17.2 -11.65 -17.75 -20.2 -20.3 M-4.5 -17.45 L-4.4 -17.4 -4.35 -17.5 -4.5 -17.45" fill="#ff7f92" fill-rule="evenodd" stroke="none"/>
    <path d="M-7.25 -16.55 L3.95 -18.0 5.4 -15.35 -1.7 -14.4 -7.25 -16.55" fill="#ff899e" fill-rule="evenodd" stroke="none"/>
    <path d="M-20.2 -20.3 L-11.65 -17.75 -11.55 -17.2 -11.9 -17.1 -9.3 -16.3 -9.55 -5.0 -9.9 6.25 -9.75 6.3 -8.2 6.4 -8.2 6.3 -7.75 -5.1 -7.25 -16.55 -1.7 -14.4 3.75 -12.25 5.95 1.65 6.0 1.7 6.6 5.0 7.05 6.9 7.3 7.65 7.65 8.65 8.25 9.55 8.85 9.85 9.4 10.15 9.8 9.7 10.1 9.4 10.15 9.25 10.15 9.2 10.35 8.25 10.35 7.2 10.35 7.15 10.3 6.35 10.2 5.35 10.1 5.0 Q10.0 3.85 8.95 2.4 L9.05 -0.2 10.5 2.2 11.3 5.0 11.45 7.05 11.55 9.1 11.15 11.5 11.15 11.65 10.0 13.3 8.5 12.8 8.25 14.05 6.55 11.65 6.7 10.7 5.65 7.7 4.9 5.85 3.9 6.0 4.2 5.0 4.5 3.65 4.2 2.65 4.1 2.5 2.75 2.1 2.3 5.0 2.3 5.1 2.3 5.15 2.05 6.35 -5.4 7.55 -5.45 7.55 -5.55 7.55 -7.45 6.7 -6.95 9.75 -7.35 9.55 -6.9 10.3 -7.25 13.6 -7.65 16.9 -9.25 14.25 -8.25 9.05 -12.0 7.15 -14.2 5.95 -14.9 5.6 -14.5 6.0 -14.6 9.35 -14.65 12.75 -16.05 11.2 -15.6 5.1 -15.6 5.05 -15.65 5.05 -20.2 -20.3 M16.35 2.3 L15.2 0.2 15.15 -0.5 14.95 -4.8 14.9 -5.1 14.7 -11.35 14.6 -12.2 14.45 -17.45 15.35 -8.45 16.35 1.7 16.35 2.3 M15.35 4.15 L14.2 4.35 14.15 4.05 15.35 4.15 M0.45 10.25 L-1.1 8.8 0.45 8.55 0.45 10.25 M1.2 -5.35 L0.65 -5.65 0.35 -5.65 -0.05 -5.45 -0.4 -4.8 Q-0.55 -3.75 0.3 -3.45 1.45 -3.35 1.4 -4.8 L1.2 -5.35" fill="#bf313d" fill-rule="evenodd" stroke="none"/>
    <path d="M-9.3 -16.3 L-7.35 -16.55 -7.25 -16.55 -7.75 -5.1 -8.65 -5.15 -9.55 -5.0 -9.3 -16.3" fill="#ff778a" fill-rule="evenodd" stroke="none"/>
    <path d="M-4.5 -17.45 L-4.35 -17.5 -4.4 -17.4 -4.5 -17.45" fill="#ff6677" fill-rule="evenodd" stroke="none"/>
    <path d="M3.95 -18.0 L14.3 -19.35 14.3 -19.25 9.95 -13.1 3.75 -12.25 -1.7 -14.4 5.4 -15.35 3.95 -18.0" fill="#ff90a5" fill-rule="evenodd" stroke="none"/>
    <path d="M14.3 -19.35 L16.2 -19.6 17.05 -8.9 16.1 -8.8 15.35 -8.45 14.45 -17.45 14.45 -17.55 14.45 -17.75 14.45 -17.9 14.3 -19.25 14.3 -19.35" fill="#ff8396" fill-rule="evenodd" stroke="none"/>
    <path d="M17.05 -8.9 L17.95 1.7 17.95 1.85 16.5 2.45 16.35 2.45 16.35 2.3 16.35 1.7 15.35 -8.45 16.1 -8.8 17.05 -8.9 M14.3 -19.25 L14.45 -17.9 14.45 -17.75 14.45 -17.55 14.45 -17.45 14.6 -12.2 14.7 -11.35 14.9 -5.1 12.8 -0.7 12.5 -0.15 12.1 -0.75 11.95 -0.75 11.9 -0.75 11.05 -6.2 11.05 -6.35 9.95 -13.1 14.3 -19.25 M12.6 -5.5 Q13.1 -6.8 12.25 -7.15 11.9 -6.35 12.6 -5.5" fill="#ff7082" fill-rule="evenodd" stroke="none"/>
    <path d="M9.95 -13.1 L11.05 -6.35 11.05 -6.2 11.9 -0.75 9.1 -0.3 9.05 -0.2 8.95 2.4 Q10.0 3.85 10.1 5.0 L10.2 5.35 10.3 6.35 7.05 6.9 6.6 5.0 6.0 1.7 5.95 1.65 3.75 -12.25 9.95 -13.1 M10.35 7.2 L10.35 8.25 10.15 9.2 10.15 9.25 10.1 9.4 9.9 9.3 8.25 9.55 7.65 8.65 7.3 7.65 10.35 7.2 M9.8 9.7 L9.4 10.15 8.85 9.85 9.8 9.7" fill="#ff899d" fill-rule="evenodd" stroke="none"/>
    <path d="M-15.6 5.1 L-15.65 5.05 -15.6 5.05 -15.6 5.1" fill="#ff7183" fill-rule="evenodd" stroke="none"/>
    <path d="M-14.2 5.95 L-14.5 6.0 -14.9 5.6 -14.2 5.95" fill="#ff798c" fill-rule="evenodd" stroke="none"/>
    <path d="M-12.0 7.15 L-11.85 8.95 -14.6 9.35 -14.5 6.0 -14.2 5.95 -12.0 7.15" fill="#ff7b8e" fill-rule="evenodd" stroke="none"/>
    <path d="M-11.85 8.95 L-11.4 12.25 -14.4 12.75 -14.65 12.75 -14.6 9.35 -11.85 8.95" fill="#ff788a" fill-rule="evenodd" stroke="none"/>
    <path d="M14.9 -5.1 L14.95 -4.8 15.15 -0.5 12.8 -0.7 14.9 -5.1" fill="#ff6778" fill-rule="evenodd" stroke="none"/>
    <path d="M12.6 -5.5 Q11.9 -6.35 12.25 -7.15 13.1 -6.8 12.6 -5.5 M1.2 -5.35 L1.4 -4.8 Q1.45 -3.35 0.3 -3.45 -0.55 -3.75 -0.4 -4.8 L-0.05 -5.45 0.35 -5.65 0.65 -5.65 1.2 -5.35" fill="#000000" fill-rule="evenodd" stroke="none"/>
    <path d="M11.9 -0.75 L11.95 -0.75 11.9 -0.75" fill="#ff5362" fill-rule="evenodd" stroke="none"/>
    <path d="M14.2 4.35 L14.25 4.55 14.3 5.45 14.4 6.55 11.45 7.05 11.3 5.0 10.5 2.2 9.05 -0.2 9.1 -0.3 11.9 -0.75 11.95 -0.75 12.1 -0.75 12.5 -0.15 13.5 1.7 14.15 4.05 14.2 4.35" fill="#ff869b" fill-rule="evenodd" stroke="none"/>
    <path d="M15.2 0.2 L15.35 4.15 14.15 4.05 13.5 1.7 12.5 -0.15 12.8 -0.7 15.15 -0.5 15.2 0.2" fill="#fc5261" fill-rule="evenodd" stroke="none"/>
    <path d="M21.1 9.8 L18.8 9.2 16.65 8.25 16.5 7.6 16.3 7.45 15.15 6.75 15.4 6.3 17.45 7.6 20.1 8.8 21.15 9.1 21.15 9.45 21.1 9.8" fill="#c2e9ff" fill-rule="evenodd" stroke="none"/>
    <path d="M16.65 8.25 L16.05 7.95 14.4 6.9 14.4 6.85 14.4 6.55 14.3 5.45 15.4 6.3 15.15 6.75 16.3 7.45 16.5 7.6 16.65 8.25" fill="#c0e7ff" fill-rule="evenodd" stroke="none"/>
    <path d="M14.25 4.55 Q17.9 7.95 21.45 8.95 L21.15 9.1 20.1 8.8 17.45 7.6 15.4 6.3 14.3 5.45 14.25 4.55 M21.45 9.3 L21.4 9.65 21.1 9.8 21.15 9.45 21.45 9.3 M2.6 9.9 L1.7 11.85 0.7 13.35 -0.05 13.3 -0.05 12.95 0.65 13.0 0.65 12.65 -0.1 12.6 0.7 10.9 1.0 10.15 1.55 8.35 2.05 6.35 2.3 5.15 2.3 5.1 2.3 5.0 2.75 2.1 4.1 2.5 4.2 2.65 4.5 3.65 4.2 5.0 3.9 6.0 3.3 8.1 2.6 9.9 M14.4 6.85 L14.4 6.9 14.4 6.85" fill="#ffffff" fill-rule="evenodd" stroke="none"/>
    <path d="M7.05 6.9 L10.3 6.35 10.35 7.15 10.35 7.2 7.3 7.65 7.05 6.9" fill="#ff889d" fill-rule="evenodd" stroke="none"/>
    <path d="M10.15 9.25 L10.15 9.2 10.15 9.25 M10.35 7.15 L10.35 7.2 10.35 7.15" fill="#d63d49" fill-rule="evenodd" stroke="none"/>
    <path d="M14.4 6.9 L14.45 8.7 14.0 11.2 13.1 12.75 11.55 13.0 10.0 13.3 11.15 11.65 11.15 11.5 11.55 9.1 11.45 7.05 14.4 6.55 14.4 6.85 14.4 6.9" fill="#d33b48" fill-rule="evenodd" stroke="none"/>
    <path d="M8.25 9.55 L9.9 9.3 10.1 9.4 9.8 9.7 8.85 9.85 8.25 9.55" fill="#ff879b" fill-rule="evenodd" stroke="none"/>
    <path d="M11.55 13.0 L11.55 13.6 8.35 14.15 8.25 14.05 8.5 12.8 10.0 13.3 11.55 13.0" fill="#ff5b6b" fill-rule="evenodd" stroke="none"/>
    <path d="M21.45 8.95 L21.45 9.3 21.15 9.45 21.15 9.1 21.45 8.95" fill="#daffff" fill-rule="evenodd" stroke="none"/>
    <path d="M-7.75 -5.1 L-8.2 6.3 -8.2 6.4 -9.75 6.3 -9.9 6.25 -9.55 -5.0 -8.65 -5.15 -7.75 -5.1" fill="#ff6a7b" fill-rule="evenodd" stroke="none"/>
    <path d="M5.65 7.7 L3.35 8.1 3.3 8.1 3.9 6.0 4.9 5.85 5.65 7.7 M-1.1 8.8 L-4.75 9.4 -6.95 9.75 -7.45 6.7 -5.55 7.55 -5.45 7.55 -5.4 7.55 2.05 6.35 1.55 8.35 0.45 8.55 -1.1 8.8" fill="#ff7487" fill-rule="evenodd" stroke="none"/>
    <path d="M-4.45 9.9 L-4.35 13.15 -7.25 13.6 -6.9 10.3 -4.45 9.9" fill="#ff5d6c" fill-rule="evenodd" stroke="none"/>
    <path d="M-4.75 9.4 L-4.45 9.9 -6.9 10.3 -7.35 9.55 -6.95 9.75 -4.75 9.4" fill="#ff8ea3" fill-rule="evenodd" stroke="none"/>
    <path d="M-4.35 13.15 L-4.25 16.35 -7.65 16.95 -7.65 16.9 -7.25 13.6 -4.35 13.15" fill="#ff5969" fill-rule="evenodd" stroke="none"/>
    <path d="M3.35 8.1 L3.55 9.75 2.6 9.9 3.3 8.1 3.35 8.1 M1.0 10.15 L0.45 10.25 0.45 8.55 1.55 8.35 1.0 10.15" fill="#ff7a8d" fill-rule="evenodd" stroke="none"/>
    <path d="M-0.05 12.95 L-0.1 12.6 0.65 12.65 0.65 13.0 -0.05 12.95" fill="#9fc7ff" fill-rule="evenodd" stroke="none"/>
  </g>
</svg>
