<?xml version="1.0" encoding="UTF-8" standalone="no"?>
<svg xmlns:xlink="http://www.w3.org/1999/xlink" height="39.25px" width="41.25px" xmlns="http://www.w3.org/2000/svg">
  <g transform="matrix(1.0, 0.0, 0.0, 1.0, 20.3, 23.45)">
    <path d="M-4.85 -19.5 L-4.95 -19.45 -4.85 -19.45 -4.85 -19.5 M-9.75 -18.55 L-11.95 -18.85 -11.9 -19.0 12.15 -22.0 15.4 -21.7 13.6 -21.5 13.5 -21.5 3.35 -20.2 -7.75 -18.8 -7.85 -18.8 -9.75 -18.55 M-12.0 -19.6 L-20.2 -20.75 1.95 -23.45 12.05 -22.6 -12.0 -19.6" fill="#ff7f92" fill-rule="evenodd" stroke="none"/>
    <path d="M-4.85 -19.5 L-4.85 -19.45 -4.95 -19.45 -4.85 -19.5" fill="#ff5e6e" fill-rule="evenodd" stroke="none"/>
    <path d="M-2.2 -16.75 L-7.75 -18.75 -7.75 -18.8 3.35 -20.2 4.8 -17.7 -2.2 -16.75" fill="#ff869b" fill-rule="evenodd" stroke="none"/>
    <path d="M-7.75 -18.75 L-7.75 -18.0 -7.75 -17.9 -8.0 -7.05 -8.8 -7.15 -9.85 -7.05 -9.75 -18.55 -7.85 -18.8 -7.75 -18.8 -7.75 -18.75" fill="#ff7b8f" fill-rule="evenodd" stroke="none"/>
    <path d="M-8.0 -7.05 L-7.75 -17.9 -7.75 -18.0 -7.75 -18.75 -2.2 -16.75 3.2 -14.75 3.25 -14.6 4.35 -8.1 4.4 -7.85 5.45 -1.55 5.55 -0.85 6.25 2.8 7.2 6.2 7.9 7.25 9.1 7.75 9.8 6.95 10.1 5.4 10.05 5.0 10.05 4.9 10.05 4.85 9.9 2.95 9.6 1.7 8.65 -0.3 8.85 -2.8 10.25 -0.4 11.0 2.55 11.1 4.6 11.2 6.6 10.8 9.2 9.65 10.9 8.45 10.6 8.05 13.0 6.35 10.6 6.7 8.95 6.35 8.35 5.65 6.35 4.7 4.1 3.45 4.3 4.1 1.5 4.2 1.45 4.15 1.45 4.15 1.3 3.85 0.35 3.8 0.25 2.45 -0.1 1.95 3.1 1.95 3.15 1.65 4.6 -5.6 5.75 -5.75 5.75 -7.55 5.15 -6.95 8.25 -6.95 8.4 -7.4 8.25 -6.95 9.05 -7.25 12.4 -7.65 15.7 -9.25 13.2 -8.25 7.9 -11.95 6.55 -13.85 5.8 -14.75 5.5 -14.35 5.95 -14.4 9.35 -14.5 12.75 -15.9 11.25 -15.45 5.25 -15.45 5.05 -15.45 5.0 -20.3 -20.65 -20.3 -20.75 -20.2 -20.75 -12.0 -19.6 -11.9 -19.0 -12.25 -18.9 -11.95 -18.85 -9.75 -18.55 -9.85 -7.05 -10.0 4.35 -9.9 4.55 -8.35 4.65 -8.0 -7.05 M-7.1 -11.35 L-7.15 -11.35 -7.1 -11.35 M13.8 -19.65 L14.8 -10.35 15.95 0.65 14.8 -1.35 14.75 -1.55 14.7 -2.3 14.0 -14.2 13.8 -19.65 M14.9 2.45 L14.15 2.55 13.95 2.45 13.95 2.3 14.9 2.45 M1.0 -6.7 Q1.1 -7.95 0.0 -7.95 L-0.45 -7.75 -0.75 -7.25 -0.8 -6.4 -0.6 -6.1 -0.4 -5.9 Q0.45 -5.3 1.0 -6.7 M-0.2 9.75 L-1.2 8.85 -1.05 7.45 0.5 7.2 0.45 8.25 0.5 8.25 0.45 8.4 -0.15 9.75 -0.2 9.75" fill="#bf313d" fill-rule="evenodd" stroke="none"/>
    <path d="M4.15 1.45 L4.2 1.45 4.1 1.5 4.15 1.45 M10.05 4.85 L10.05 4.9 10.0 4.9 10.05 4.85 M-7.1 -11.35 L-7.15 -11.35 -7.1 -11.35" fill="#d63d4a" fill-rule="evenodd" stroke="none"/>
    <path d="M3.2 -14.75 L-2.2 -16.75 4.8 -17.7 3.35 -20.2 13.5 -21.5 13.6 -21.5 13.6 -21.4 13.35 -21.15 9.35 -15.55 3.2 -14.75" fill="#ff8da2" fill-rule="evenodd" stroke="none"/>
    <path d="M4.4 -7.85 L4.35 -8.1 3.25 -14.6 3.2 -14.75 9.35 -15.55 10.5 -8.8 10.5 -8.7 4.4 -7.85" fill="#ff8ca0" fill-rule="evenodd" stroke="none"/>
    <path d="M-11.9 -19.0 L-12.0 -19.6 12.05 -22.6 12.15 -22.55 12.15 -22.0 -11.9 -19.0" fill="#ff879c" fill-rule="evenodd" stroke="none"/>
    <path d="M15.4 -21.7 L15.55 -21.7 16.5 -10.75 15.5 -10.65 14.8 -10.35 13.8 -19.65 13.8 -19.85 13.75 -19.95 13.6 -21.4 13.6 -21.5 15.4 -21.7" fill="#ff879b" fill-rule="evenodd" stroke="none"/>
    <path d="M13.6 -21.4 L13.75 -19.95 13.8 -19.85 13.8 -19.65 14.0 -14.2 12.0 -11.55 10.6 -8.8 10.5 -8.8 9.35 -15.55 13.35 -21.15 13.6 -21.4" fill="#ff7082" fill-rule="evenodd" stroke="none"/>
    <path d="M10.6 -8.8 L12.0 -11.55 14.0 -14.2 14.7 -2.3 12.25 -2.65 12.15 -2.8 11.9 -3.35 11.4 -3.3 10.5 -8.7 10.5 -8.8 10.6 -8.8 M12.25 -8.8 L12.05 -9.15 11.8 -9.4 Q11.4 -9.85 11.8 -8.1 L12.0 -7.75 12.15 -7.75 12.25 -8.1 12.25 -8.8" fill="#ff6b7c" fill-rule="evenodd" stroke="none"/>
    <path d="M14.8 -10.35 L15.5 -10.65 16.5 -10.75 17.5 0.2 16.05 0.8 15.95 0.65 14.8 -10.35" fill="#ff7487" fill-rule="evenodd" stroke="none"/>
    <path d="M12.25 -8.8 L12.25 -8.1 12.15 -7.75 12.0 -7.75 11.8 -8.1 Q11.4 -9.85 11.8 -9.4 L12.05 -9.15 12.25 -8.8 M1.0 -6.7 Q0.45 -5.3 -0.4 -5.9 L-0.6 -6.1 -0.8 -6.4 -0.75 -7.25 -0.45 -7.75 0.0 -7.95 Q1.1 -7.95 1.0 -6.7" fill="#000000" fill-rule="evenodd" stroke="none"/>
    <path d="M10.5 -8.8 L10.6 -8.8 10.5 -8.8" fill="#ff8296" fill-rule="evenodd" stroke="none"/>
    <path d="M-11.95 -18.85 L-12.25 -18.9 -11.9 -19.0 -11.95 -18.85 M14.8 -1.35 L14.9 2.45 13.95 2.3 13.2 -0.85 12.25 -2.65 14.7 -2.3 14.75 -1.55 14.8 -1.35" fill="#ff5766" fill-rule="evenodd" stroke="none"/>
    <path d="M11.1 4.6 L11.0 2.55 10.25 -0.4 8.85 -2.8 8.85 -2.9 11.4 -3.3 11.9 -3.35 12.15 -2.8 12.25 -2.65 13.2 -0.85 13.95 2.3 13.95 2.45 13.95 3.2 14.0 4.1 11.1 4.6" fill="#ff869a" fill-rule="evenodd" stroke="none"/>
    <path d="M1.65 4.6 L1.95 3.15 1.95 3.1 2.45 -0.1 3.8 0.25 3.85 0.35 4.15 1.3 4.15 1.45 4.1 1.5 3.45 4.3 2.6 6.9 2.05 8.25 0.95 10.2 0.45 10.75 0.4 10.0 -0.3 10.0 -0.2 9.75 -0.15 9.75 0.45 8.4 0.5 8.25 0.55 8.25 0.95 7.15 1.65 4.6 M14.15 2.55 L15.1 3.45 16.55 4.5 18.95 5.75 20.95 6.45 20.7 6.6 18.55 5.95 16.55 5.0 15.0 4.0 13.95 3.2 13.95 2.45 14.15 2.55 M20.95 6.85 L20.95 7.2 20.7 7.4 20.6 7.35 20.7 6.95 20.95 6.85" fill="#ffffff" fill-rule="evenodd" stroke="none"/>
    <path d="M8.85 -2.8 L8.65 -0.3 9.6 1.7 9.9 2.95 10.05 4.85 10.0 4.9 10.05 4.9 10.05 5.0 10.1 5.4 9.8 6.95 7.9 7.25 7.2 6.2 6.25 2.8 5.55 -0.85 5.45 -1.55 4.4 -7.85 10.5 -8.7 11.4 -3.3 8.85 -2.9 8.85 -2.8" fill="#ff899d" fill-rule="evenodd" stroke="none"/>
    <path d="M20.6 7.35 L18.2 6.75 16.25 5.95 16.05 5.25 14.75 4.45 15.0 4.0 16.55 5.0 18.55 5.95 20.7 6.6 20.7 6.95 20.6 7.35" fill="#c8efff" fill-rule="evenodd" stroke="none"/>
    <path d="M16.25 5.95 L14.05 4.65 14.0 4.1 13.95 3.2 15.0 4.0 14.75 4.45 16.05 5.25 16.25 5.95" fill="#c6edff" fill-rule="evenodd" stroke="none"/>
    <path d="M9.65 10.9 L10.8 9.2 11.2 6.6 11.1 4.6 14.0 4.1 14.05 4.65 14.1 6.2 13.6 8.8 12.75 10.4 11.25 10.7 9.65 10.9" fill="#d43c48" fill-rule="evenodd" stroke="none"/>
    <path d="M8.05 13.0 L8.45 10.6 9.65 10.9 11.25 10.7 11.3 12.55 8.2 13.1 8.05 13.0" fill="#ff5d6d" fill-rule="evenodd" stroke="none"/>
    <path d="M20.95 6.45 L20.95 6.85 20.7 6.95 20.7 6.6 20.95 6.45" fill="#e4ffff" fill-rule="evenodd" stroke="none"/>
    <path d="M-8.0 -7.05 L-8.35 4.65 -9.9 4.55 -10.0 4.35 -9.85 -7.05 -8.8 -7.15 -8.0 -7.05" fill="#ff6e7f" fill-rule="evenodd" stroke="none"/>
    <path d="M-4.85 8.1 L-4.5 8.65 -5.7 8.85 -5.35 8.15 -4.85 8.1" fill="#ff8ea3" fill-rule="evenodd" stroke="none"/>
    <path d="M-6.95 8.4 L-6.95 8.25 -7.55 5.15 -5.75 5.75 -5.6 5.75 1.65 4.6 0.95 7.15 0.5 7.2 -1.05 7.45 -4.85 8.1 -5.35 8.15 -6.95 8.4 M3.45 4.3 L4.7 4.1 5.65 6.35 3.15 6.75 2.6 6.9 3.45 4.3" fill="#ff788b" fill-rule="evenodd" stroke="none"/>
    <path d="M-6.95 9.05 L-7.4 8.25 -6.95 8.4 -5.35 8.15 -5.7 8.85 -6.95 9.05" fill="#ff8ca1" fill-rule="evenodd" stroke="none"/>
    <path d="M-7.25 12.4 L-6.95 9.05 -5.7 8.85 -4.5 8.65 -4.35 11.95 -7.25 12.4" fill="#ff5f6f" fill-rule="evenodd" stroke="none"/>
    <path d="M-7.65 15.7 L-7.25 12.4 -4.35 11.95 -4.3 15.25 -7.4 15.8 -7.65 15.8 -7.65 15.7" fill="#ff5b6b" fill-rule="evenodd" stroke="none"/>
    <path d="M9.8 6.95 L9.1 7.75 7.9 7.25 9.8 6.95" fill="#ff8599" fill-rule="evenodd" stroke="none"/>
    <path d="M0.95 10.2 L2.05 8.25 2.6 6.9 3.15 6.75 3.45 9.8 0.95 10.2 M0.95 7.15 L0.55 8.25 0.5 8.25 0.45 8.25 0.5 7.2 0.95 7.15" fill="#ff7a8d" fill-rule="evenodd" stroke="none"/>
    <path d="M-0.3 10.0 L0.4 10.0 0.45 10.75 -0.25 10.75 -0.3 10.0" fill="#9fc7ff" fill-rule="evenodd" stroke="none"/>
    <path d="M-14.4 9.35 L-14.35 5.95 -13.85 5.8 -11.95 6.55 -11.7 8.95 -14.4 9.35" fill="#ff7b8e" fill-rule="evenodd" stroke="none"/>
    <path d="M-14.35 5.95 L-14.75 5.5 -13.85 5.8 -14.35 5.95" fill="#ff798c" fill-rule="evenodd" stroke="none"/>
    <path d="M-14.5 12.75 L-14.4 9.35 -11.7 8.95 -11.3 12.3 -14.5 12.75" fill="#ff778a" fill-rule="evenodd" stroke="none"/>
  </g>
</svg>
