<?xml version="1.0" encoding="UTF-8" standalone="no"?>
<svg xmlns:xlink="http://www.w3.org/1999/xlink" height="24.35px" width="34.25px" xmlns="http://www.w3.org/2000/svg">
  <g transform="matrix(1.0, 0.0, 0.0, 1.0, 17.15, 12.2)">
    <path d="M-17.05 -7.25 L-16.6 -6.25 -7.65 2.6 Q-5.55 4.25 -2.05 3.75 L14.9 0.55 Q17.2 -0.05 17.05 -1.2 L17.1 -1.2 17.0 7.0 Q17.15 8.25 14.8 8.85 L-2.05 12.05 Q-5.65 12.55 -7.65 10.85 L-16.6 2.1 Q-17.25 1.5 -17.1 0.95 L-17.1 -7.25 -17.05 -7.25" fill="url(#gradient0)" fill-rule="evenodd" stroke="none"/>
    <path d="M17.05 -1.2 Q17.2 -0.05 14.9 0.55 L-2.05 3.75 Q-5.55 4.25 -7.65 2.6 L-16.6 -6.25 -17.05 -7.25 Q-17.1 -8.3 -14.8 -8.9 L2.05 -12.1 Q5.55 -12.6 7.65 -10.9 L16.65 -2.1 17.05 -1.2 M1.55 -1.45 L5.5 -2.15 1.8 -5.3 5.35 -6.05 -3.25 -8.6 -5.45 -3.85 -1.55 -4.45 1.55 -1.45" fill="#ee3f1a" fill-rule="evenodd" stroke="none"/>
    <path d="M1.55 -1.45 L-1.55 -4.45 -5.45 -3.85 -3.25 -8.6 5.35 -6.05 1.8 -5.3 5.5 -2.15 1.55 -1.45" fill="#ffffff" fill-rule="evenodd" stroke="none"/>
  </g>
  <defs>
    <linearGradient gradientTransform="matrix(0.0209, 0.0, 0.0, 0.0209, 0.0, 2.45)" gradientUnits="userSpaceOnUse" id="gradient0" spreadMethod="pad" x1="-819.2" x2="819.2">
      <stop offset="0.30196078431372547" stop-color="#7e1f08"/>
      <stop offset="0.4823529411764706" stop-color="#de2d09"/>
    </linearGradient>
  </defs>
</svg>
