<?xml version="1.0" encoding="UTF-8" standalone="no"?>
<svg xmlns:xlink="http://www.w3.org/1999/xlink" height="39.1px" width="40.95px" xmlns="http://www.w3.org/2000/svg">
  <g transform="matrix(1.0, 0.0, 0.0, 1.0, 20.45, 24.25)">
    <path d="M-8.4 -20.9 L-8.2 -20.9 -8.2 -21.05 -9.15 -20.9 -9.1 -20.8 -8.4 -20.9 M-6.55 -21.35 L-6.55 -21.25 -5.55 -21.35 -6.55 -21.35 M-9.75 -20.9 L-9.75 -20.95 -10.45 -20.9 -12.25 -20.7 -12.4 -21.3 -16.25 -21.25 -16.4 -21.2 -20.3 -21.1 1.5 -23.75 11.35 -24.2 11.45 -24.25 11.55 -24.2 11.5 -23.6 13.0 -23.65 11.75 -23.5 11.75 -23.4 2.8 -22.25 4.25 -19.9 -2.75 -19.0 -8.2 -20.9 -8.3 -9.0 -9.2 -9.05 -10.1 -8.95 -10.2 -20.65 -11.3 -20.65 -9.75 -20.9 M11.0 -5.35 L12.15 -5.5 13.2 -2.75 13.85 0.55 13.85 1.2 13.85 2.55 10.95 3.0 10.9 0.75 10.45 -1.55 10.15 -2.55 9.25 -4.8 9.15 -4.95 9.25 -5.1 11.0 -5.35" fill="#ff7f92" fill-rule="evenodd" stroke="none"/>
    <path d="M-6.55 -21.35 L-5.55 -21.35 -6.55 -21.25 -6.55 -21.35 M-9.75 -20.9 L-10.45 -20.9 -9.75 -20.95 -9.75 -20.9" fill="#fc505f" fill-rule="evenodd" stroke="none"/>
    <path d="M-9.15 -20.9 L-8.2 -21.05 -8.2 -20.9 -8.4 -20.9 -9.15 -20.9 M11.75 -23.4 L11.75 -23.5 12.4 -23.5 12.8 -23.5 11.75 -23.4" fill="#ff5463" fill-rule="evenodd" stroke="none"/>
    <path d="M-10.45 -20.9 L-9.75 -20.9 -11.3 -20.65 -12.4 -20.65 -12.25 -20.7 -10.45 -20.9" fill="#fb505e" fill-rule="evenodd" stroke="none"/>
    <path d="M-8.4 -20.9 L-9.1 -20.8 -9.15 -20.9 -8.4 -20.9" fill="#ff5362" fill-rule="evenodd" stroke="none"/>
    <path d="M-12.25 -20.7 L-12.4 -20.65 -11.3 -20.65 -10.2 -20.65 -10.1 -8.95 -10.1 2.65 -9.95 2.8 -8.45 2.95 -8.35 1.7 -8.3 -9.0 -8.2 -20.9 -2.75 -19.0 2.65 -17.15 3.95 -10.25 5.9 0.55 6.35 2.4 6.65 3.2 6.85 4.0 7.5 5.0 7.55 5.1 8.15 5.4 8.75 5.75 9.25 5.25 9.45 5.05 9.55 5.0 9.55 4.8 9.85 3.55 9.85 2.7 9.85 1.85 9.85 1.7 9.45 -0.85 8.75 -2.65 9.15 -4.95 9.25 -4.8 10.15 -2.55 10.45 -1.55 10.9 0.75 10.95 3.0 10.95 5.0 10.45 7.4 9.3 8.95 8.45 8.7 8.05 12.15 6.35 10.05 6.8 7.55 6.1 6.45 5.65 5.1 5.6 5.0 4.55 2.4 4.55 2.35 4.5 2.4 3.0 2.6 3.85 -0.7 3.6 -1.55 3.45 -1.85 3.4 -1.95 2.1 -2.25 1.6 1.15 1.6 1.2 1.25 2.9 -5.8 4.0 -5.85 4.0 -7.65 3.65 -6.95 7.15 -7.45 7.05 -6.95 7.7 -7.2 11.25 -7.2 11.5 -7.45 14.75 -8.95 12.75 -9.0 12.6 -8.25 6.85 -11.9 6.0 -13.3 5.7 -14.6 5.4 -14.2 5.8 -14.25 9.3 -14.3 12.75 -15.7 11.25 -15.25 5.15 -20.45 -21.05 -20.3 -21.1 -16.4 -21.2 -16.25 -21.25 -12.4 -21.3 -12.25 -20.7 M13.4 -16.15 L13.1 -21.15 13.15 -21.5 13.25 -21.15 14.25 -12.15 15.55 -0.9 14.35 -2.85 13.4 -16.15 M14.55 0.75 L14.2 0.8 14.05 0.65 14.55 0.75 M0.35 10.3 L-1.2 8.9 -0.95 6.2 -0.95 6.15 0.25 5.95 -0.55 7.45 -0.5 8.25 0.2 8.25 0.4 8.1 0.45 8.25 0.35 10.3 M0.05 -8.1 Q1.3 -9.65 -0.25 -10.2 -1.95 -9.45 -0.75 -8.1 L-0.5 -7.95 0.05 -8.1" fill="#bf313d" fill-rule="evenodd" stroke="none"/>
    <path d="M8.75 -17.95 L8.75 -17.9 9.95 -11.15 9.95 -11.05 3.95 -10.25 2.65 -17.15 8.75 -17.95 M4.5 2.4 L4.55 2.35 4.55 2.4 4.5 2.4" fill="#ff8ea3" fill-rule="evenodd" stroke="none"/>
    <path d="M9.95 -11.15 L8.75 -17.9 8.75 -17.95 12.95 -23.45 13.15 -21.5 13.1 -21.15 13.4 -16.15 11.3 -13.45 10.15 -11.35 9.95 -11.15" fill="#ff7082" fill-rule="evenodd" stroke="none"/>
    <path d="M-2.75 -19.0 L4.25 -19.9 2.8 -22.25 11.75 -23.4 12.8 -23.5 12.95 -23.5 12.95 -23.45 8.75 -17.95 2.65 -17.15 -2.75 -19.0" fill="#ff8a9f" fill-rule="evenodd" stroke="none"/>
    <path d="M13.15 -21.5 L12.95 -23.45 12.95 -23.5 14.6 -23.75 14.85 -23.7 15.9 -12.55 14.95 -12.45 14.25 -12.15 13.25 -21.15 13.15 -21.5 M9.85 1.85 L9.85 2.7 6.65 3.2 6.35 2.4 9.85 1.85" fill="#ff8ba0" fill-rule="evenodd" stroke="none"/>
    <path d="M11.75 -23.5 L13.0 -23.65 14.6 -23.75 12.95 -23.5 12.8 -23.5 12.4 -23.5 11.75 -23.5" fill="#ff5867" fill-rule="evenodd" stroke="none"/>
    <path d="M11.1 -11.55 L11.2 -11.6 11.45 -11.35 11.7 -10.8 11.7 -10.15 11.6 -9.95 11.5 -9.9 11.2 -10.4 11.05 -11.35 11.1 -11.55 M0.05 -8.1 L-0.5 -7.95 -0.75 -8.1 Q-1.95 -9.45 -0.25 -10.2 1.3 -9.65 0.05 -8.1" fill="#000000" fill-rule="evenodd" stroke="none"/>
    <path d="M9.95 -11.05 L9.95 -11.15 10.15 -11.35 11.3 -13.45 13.4 -16.15 14.35 -2.85 14.55 0.75 14.05 0.65 13.85 0.55 13.2 -2.75 12.15 -5.5 11.0 -5.35 9.95 -11.05 M11.1 -11.55 L11.05 -11.35 11.2 -10.4 11.5 -9.9 11.6 -9.95 11.7 -10.15 11.7 -10.8 11.45 -11.35 11.2 -11.6 11.1 -11.55" fill="#ff6979" fill-rule="evenodd" stroke="none"/>
    <path d="M15.9 -12.55 L17.05 -1.4 15.6 -0.8 15.55 -0.9 14.25 -12.15 14.95 -12.45 15.9 -12.55" fill="#ff788b" fill-rule="evenodd" stroke="none"/>
    <path d="M3.95 -10.25 L9.95 -11.05 11.0 -5.35 9.25 -5.1 9.15 -4.95 8.75 -2.65 9.45 -0.85 9.85 1.7 9.85 1.85 6.35 2.4 5.9 0.55 3.95 -10.25 M9.85 2.7 L9.85 3.55 9.55 4.8 9.2 4.85 7.55 5.1 7.5 5.0 6.85 4.0 6.65 3.2 9.85 2.7" fill="#ff899d" fill-rule="evenodd" stroke="none"/>
    <path d="M14.2 0.8 L15.1 1.55 16.1 2.25 18.4 3.4 20.5 4.05 20.2 4.2 17.95 3.55 Q16.15 2.8 15.75 2.45 L14.55 1.75 14.55 1.7 13.85 1.2 13.85 0.55 14.05 0.65 14.2 0.8 M20.5 4.4 L20.45 4.8 20.2 4.95 20.2 4.55 20.5 4.4 M1.25 2.9 L1.6 1.2 1.6 1.15 2.1 -2.25 3.4 -1.95 3.45 -1.85 3.6 -1.55 3.85 -0.7 3.0 2.6 1.95 5.65 1.35 6.75 0.4 8.1 0.2 8.25 0.15 7.45 -0.55 7.45 0.25 5.95 0.7 4.7 1.25 2.9" fill="#ffffff" fill-rule="evenodd" stroke="none"/>
    <path d="M15.8 3.65 L13.85 2.6 13.85 2.55 13.85 1.2 14.55 1.7 14.55 1.75 14.3 2.25 15.45 2.9 15.6 2.95 15.8 3.65" fill="#cbf3ff" fill-rule="evenodd" stroke="none"/>
    <path d="M13.85 2.6 L13.8 4.6 13.25 7.0 12.3 8.45 11.15 8.65 9.3 8.95 10.45 7.4 10.95 5.0 10.95 3.0 13.85 2.55 13.85 2.6" fill="#cd3845" fill-rule="evenodd" stroke="none"/>
    <path d="M20.2 4.95 L17.75 4.45 15.8 3.65 15.6 2.95 15.45 2.9 14.3 2.25 14.55 1.75 15.75 2.45 Q16.15 2.8 17.95 3.55 L20.2 4.2 20.2 4.55 20.2 4.95" fill="#cef5ff" fill-rule="evenodd" stroke="none"/>
    <path d="M11.15 8.65 L11.25 11.65 8.3 12.15 8.05 12.15 8.45 8.7 9.3 8.95 11.15 8.65" fill="#ff6575" fill-rule="evenodd" stroke="none"/>
    <path d="M20.5 4.05 L20.5 4.4 20.2 4.55 20.2 4.2 20.5 4.05" fill="#edffff" fill-rule="evenodd" stroke="none"/>
    <path d="M5.65 5.1 L3.0 5.5 1.95 5.65 3.0 2.6 4.5 2.4 4.55 2.4 5.6 5.0 5.65 5.1 M-0.95 6.2 L-4.9 6.8 -6.95 7.15 -7.65 3.65 -5.85 4.0 -5.8 4.0 1.25 2.9 0.7 4.7 0.25 5.95 -0.95 6.15 -0.95 6.2 M-11.9 6.0 L-11.55 8.9 -14.25 9.3 -14.2 5.8 -13.3 5.7 -11.9 6.0" fill="#ff7b8e" fill-rule="evenodd" stroke="none"/>
    <path d="M-10.1 -8.95 L-9.2 -9.05 -8.3 -9.0 -8.35 1.7 -8.45 2.95 -9.95 2.8 -10.1 2.65 -10.1 -8.95" fill="#ff7183" fill-rule="evenodd" stroke="none"/>
    <path d="M-4.9 6.8 L-4.55 7.3 -6.95 7.7 -7.45 7.05 -6.95 7.15 -4.9 6.8" fill="#ff899e" fill-rule="evenodd" stroke="none"/>
    <path d="M-4.35 10.8 L-4.1 14.3 -7.35 14.85 -7.45 14.75 -7.2 11.5 -7.2 11.25 -4.35 10.8" fill="#ff6273" fill-rule="evenodd" stroke="none"/>
    <path d="M-4.55 7.3 L-4.35 10.8 -7.2 11.25 -6.95 7.7 -4.55 7.3" fill="#ff6677" fill-rule="evenodd" stroke="none"/>
    <path d="M9.45 5.05 L9.25 5.25 8.15 5.4 7.55 5.1 9.2 4.85 9.45 5.05" fill="#ff8599" fill-rule="evenodd" stroke="none"/>
    <path d="M9.55 4.8 L9.55 5.0 9.45 5.05 9.2 4.85 9.55 4.8 M9.25 5.25 L8.75 5.75 8.15 5.4 9.25 5.25" fill="#ff879c" fill-rule="evenodd" stroke="none"/>
    <path d="M0.2 8.25 L-0.5 8.25 -0.55 7.45 0.15 7.45 0.2 8.25" fill="#9fc7ff" fill-rule="evenodd" stroke="none"/>
    <path d="M3.05 6.5 L3.35 9.85 0.6 10.3 0.35 10.3 0.45 8.25 0.4 8.1 1.35 6.75 3.05 6.5" fill="#ff7a8c" fill-rule="evenodd" stroke="none"/>
    <path d="M3.0 5.5 L3.05 6.5 1.35 6.75 1.95 5.65 3.0 5.5" fill="#ff7e91" fill-rule="evenodd" stroke="none"/>
    <path d="M-13.3 5.7 L-14.2 5.8 -14.6 5.4 -13.3 5.7" fill="#ff798c" fill-rule="evenodd" stroke="none"/>
    <path d="M-11.55 8.9 L-11.2 12.3 -14.25 12.85 -14.3 12.75 -14.25 9.3 -11.55 8.9" fill="#ff778a" fill-rule="evenodd" stroke="none"/>
  </g>
</svg>
