<?xml version="1.0" encoding="UTF-8" standalone="no"?>
<svg xmlns:xlink="http://www.w3.org/1999/xlink" height="39.6px" width="40.55px" xmlns="http://www.w3.org/2000/svg">
  <g transform="matrix(1.0, 0.0, 0.0, 1.0, 20.5, 25.7)">
    <path d="M-10.55 -22.6 L-8.6 -22.8 -8.55 -10.75 -9.4 -10.8 -10.35 -10.7 -10.55 -22.6" fill="#ff8295" fill-rule="evenodd" stroke="none"/>
    <path d="M-8.6 -22.8 L2.3 -24.1 3.75 -21.95 3.65 -21.9 -3.2 -21.05 -8.6 -22.8" fill="#ff8093" fill-rule="evenodd" stroke="none"/>
    <path d="M-8.6 -22.8 L-10.55 -22.6 -12.6 -22.25 -12.7 -22.9 10.8 -25.7 10.95 -25.65 10.95 -25.2 2.3 -24.1 -8.6 -22.8" fill="#ff8ba1" fill-rule="evenodd" stroke="none"/>
    <path d="M-10.35 -10.7 L-9.4 -10.8 -8.55 -10.75 -8.5 -1.55 -8.55 1.4 -10.15 1.25 -10.2 1.05 -10.35 -10.7" fill="#ff7486" fill-rule="evenodd" stroke="none"/>
    <path d="M-1.5 -10.6 L-1.5 -11.35 Q-1.45 -11.9 -0.95 -12.1 L-0.45 -12.2 -0.05 -12.0 0.2 -11.35 Q0.2 -9.95 -0.8 -9.95 -1.3 -10.0 -1.5 -10.6 M11.05 -11.85 Q10.4 -12.7 10.65 -13.55 11.6 -13.05 11.05 -11.85" fill="#000000" fill-rule="evenodd" stroke="none"/>
    <path d="M-10.55 -22.6 L-10.35 -10.7 -10.2 1.05 -10.15 1.25 -8.55 1.4 -8.5 -1.55 -8.55 -10.75 -8.6 -22.8 -3.2 -21.05 2.2 -19.3 3.45 -12.45 3.5 -12.4 4.8 -5.4 4.95 -4.8 6.05 0.35 6.35 1.25 6.55 2.05 7.25 3.3 7.85 3.7 8.5 4.1 9.35 3.5 9.35 3.45 9.5 2.95 9.55 2.9 9.75 2.3 9.85 0.7 9.85 0.55 9.9 0.25 9.9 -0.05 9.75 -0.05 9.7 -0.2 9.8 -0.55 9.85 -0.55 9.85 -0.75 9.8 -1.55 9.15 -4.25 9.85 -6.1 10.75 -2.6 11.05 0.5 10.9 2.4 10.75 4.25 10.1 6.35 8.85 7.4 8.4 7.2 8.4 7.55 8.25 11.25 6.55 9.8 6.85 6.4 5.8 4.55 5.6 3.9 4.4 0.8 4.35 0.75 4.35 0.8 2.6 1.05 3.5 -2.65 3.15 -3.9 3.0 -4.0 1.75 -4.2 1.3 -0.6 1.25 -0.6 1.3 -0.6 0.85 1.3 -5.95 2.4 -7.75 2.3 -7.0 5.95 -7.5 5.9 -6.95 6.35 -7.05 10.15 -7.1 13.9 -8.65 12.4 -8.2 5.8 -11.8 5.55 -12.35 5.5 -14.5 5.3 -14.05 5.75 -14.1 9.3 -14.15 12.75 -15.55 11.25 -15.1 5.1 -20.5 -21.4 -12.7 -22.9 -12.6 -22.25 -10.55 -22.6 M-1.5 -10.6 Q-1.3 -10.0 -0.8 -9.95 0.2 -9.95 0.2 -11.35 L-0.05 -12.0 -0.45 -12.2 -0.95 -12.1 Q-1.45 -11.9 -1.5 -11.35 L-1.5 -10.6 M13.95 -4.2 L12.95 -17.9 12.85 -17.9 12.55 -23.45 13.8 -13.8 15.15 -2.35 13.95 -4.2 M0.3 10.35 L-1.25 8.9 -0.85 4.95 -0.6 4.9 -0.65 5.0 -0.75 5.15 -0.75 5.55 -0.7 5.95 0.0 5.95 0.45 5.55 0.45 6.9 0.3 10.35 M9.9 -0.05 L9.9 -0.1 9.9 -0.05" fill="#bf313d" fill-rule="evenodd" stroke="none"/>
    <path d="M2.3 -24.1 L10.95 -25.2 12.35 -25.35 12.35 -25.3 8.2 -20.05 2.2 -19.3 -3.2 -21.05 3.65 -21.9 3.75 -21.95 2.3 -24.1" fill="#ff879b" fill-rule="evenodd" stroke="none"/>
    <path d="M3.5 -12.4 L3.45 -12.45 2.2 -19.3 8.2 -20.05 9.45 -13.3 9.45 -13.2 3.5 -12.4" fill="#ff90a5" fill-rule="evenodd" stroke="none"/>
    <path d="M9.45 -13.2 L9.45 -13.3 10.75 -15.25 12.85 -17.9 12.95 -17.9 13.95 -4.2 14.15 -0.9 13.85 -1.1 13.65 -3.2 12.85 -6.6 10.75 -6.3 9.45 -13.2 M11.05 -11.85 Q11.6 -13.05 10.65 -13.55 10.4 -12.7 11.05 -11.85" fill="#ff6c7e" fill-rule="evenodd" stroke="none"/>
    <path d="M10.75 -6.3 L12.85 -6.6 13.65 -3.2 13.85 -1.1 13.9 -0.5 13.85 0.8 13.75 1.95 10.9 2.4 11.05 0.5 10.75 -2.6 9.85 -6.1 9.95 -6.2 10.75 -6.3 M12.85 -17.9 L10.75 -15.25 9.45 -13.3 8.2 -20.05 12.35 -25.3 12.5 -23.7 12.55 -23.6 12.55 -23.45 12.85 -17.9" fill="#ff7082" fill-rule="evenodd" stroke="none"/>
    <path d="M9.45 -13.2 L10.75 -6.3 9.95 -6.2 9.85 -6.1 9.15 -4.25 9.8 -1.55 9.85 -0.75 9.8 -0.55 9.7 -0.2 6.05 0.35 4.95 -4.8 4.8 -5.4 3.5 -12.4 9.45 -13.2 M9.85 0.7 L9.75 2.3 9.55 2.9 9.5 2.95 8.85 3.05 9.3 3.45 9.3 3.5 7.85 3.7 7.25 3.3 6.55 2.05 6.35 1.25 9.85 0.7" fill="#ff899d" fill-rule="evenodd" stroke="none"/>
    <path d="M12.35 -25.35 L14.2 -25.55 15.4 -14.2 14.45 -14.1 13.8 -13.8 12.55 -23.45 12.55 -23.6 12.5 -23.7 12.35 -25.3 12.35 -25.35" fill="#ff8ea3" fill-rule="evenodd" stroke="none"/>
    <path d="M13.8 -13.8 L14.45 -14.1 15.4 -14.2 16.65 -2.85 15.2 -2.25 15.15 -2.35 13.8 -13.8" fill="#ff7b8f" fill-rule="evenodd" stroke="none"/>
    <path d="M-11.8 5.55 L-11.45 8.85 -14.1 9.3 -14.05 5.75 -12.35 5.5 -11.8 5.55" fill="#ff7b8e" fill-rule="evenodd" stroke="none"/>
    <path d="M-14.05 5.75 L-14.5 5.3 -12.35 5.5 -14.05 5.75" fill="#ff7b8d" fill-rule="evenodd" stroke="none"/>
    <path d="M-11.45 8.85 L-11.05 12.35 -14.0 12.85 -14.15 12.75 -14.1 9.3 -11.45 8.85" fill="#ff778a" fill-rule="evenodd" stroke="none"/>
    <path d="M20.05 1.85 L20.0 2.25 19.75 2.35 19.75 1.95 20.05 1.85" fill="#f5ffff" fill-rule="evenodd" stroke="none"/>
    <path d="M13.85 -1.1 L14.15 -0.9 15.7 0.2 Q16.35 0.65 18.1 1.3 L20.05 1.85 19.75 1.95 17.5 1.35 Q16.05 0.85 15.35 0.35 L14.95 0.2 13.9 -0.5 13.85 -1.1 M20.0 2.25 L20.0 2.65 19.7 2.7 19.75 2.35 20.0 2.25 M0.85 1.3 L1.3 -0.6 1.25 -0.6 1.3 -0.6 1.75 -4.2 3.0 -4.0 3.15 -3.9 3.5 -2.65 2.6 1.05 2.05 2.75 1.1 4.6 0.45 5.55 0.0 5.95 -0.05 5.55 -0.05 5.15 -0.75 5.15 -0.65 5.0 -0.6 4.9 0.0 3.8 0.5 2.6 0.85 1.3" fill="#ffffff" fill-rule="evenodd" stroke="none"/>
    <path d="M9.8 -0.55 L9.85 -0.75 9.85 -0.55 9.8 -0.55 M9.9 -0.05 L9.9 -0.1 9.9 -0.05 M9.9 0.25 L9.85 0.55 9.85 0.25 9.9 0.25" fill="#ff7284" fill-rule="evenodd" stroke="none"/>
    <path d="M5.6 3.9 L2.8 4.35 1.1 4.6 2.05 2.75 2.6 1.05 4.35 0.8 4.4 0.8 5.6 3.9 M-0.85 4.95 L-5.0 5.6 -7.0 5.95 -7.75 2.3 -5.95 2.4 0.85 1.3 0.5 2.6 0.0 3.8 -0.6 4.9 -0.85 4.95 M9.75 -0.05 L9.9 -0.05 9.9 0.25 9.85 0.25 9.75 -0.05" fill="#ff7d91" fill-rule="evenodd" stroke="none"/>
    <path d="M9.7 -0.2 L9.75 -0.05 9.85 0.25 9.85 0.55 9.85 0.7 6.35 1.25 6.05 0.35 9.7 -0.2" fill="#ff8ba0" fill-rule="evenodd" stroke="none"/>
    <path d="M16.6 2.0 L15.55 1.7 13.85 0.8 13.9 -0.5 14.95 0.2 15.15 0.9 Q16.2 1.15 16.6 2.0" fill="#d0f7ff" fill-rule="evenodd" stroke="none"/>
    <path d="M13.75 1.95 Q13.3 7.15 11.1 7.05 L8.85 7.4 10.1 6.35 10.75 4.25 10.9 2.4 13.75 1.95" fill="#c2333f" fill-rule="evenodd" stroke="none"/>
    <path d="M19.7 2.7 L18.6 2.6 Q17.1 2.3 16.6 2.0 16.2 1.15 15.15 0.9 L14.95 0.2 15.35 0.35 Q16.05 0.85 17.5 1.35 L19.75 1.95 19.75 2.35 19.7 2.7" fill="#d3faff" fill-rule="evenodd" stroke="none"/>
    <path d="M11.1 7.05 L11.1 7.15 8.4 7.55 8.4 7.2 8.85 7.4 11.1 7.05" fill="#ff7587" fill-rule="evenodd" stroke="none"/>
    <path d="M11.1 7.15 L11.4 10.75 8.25 11.25 8.4 7.55 11.1 7.15" fill="#ff7081" fill-rule="evenodd" stroke="none"/>
    <path d="M4.35 0.8 L4.35 0.75 4.4 0.8 4.35 0.8" fill="#ff8fa4" fill-rule="evenodd" stroke="none"/>
    <path d="M-0.75 5.55 L-0.75 5.15 -0.05 5.15 -0.05 5.55 -0.75 5.55" fill="#a1c8ff" fill-rule="evenodd" stroke="none"/>
    <path d="M0.0 5.95 L-0.7 5.95 -0.75 5.55 -0.05 5.55 0.0 5.95" fill="#9fc7ff" fill-rule="evenodd" stroke="none"/>
    <path d="M-5.0 5.6 L-4.65 5.95 -6.95 6.35 -7.5 5.9 -7.0 5.95 -5.0 5.6" fill="#ff7f93" fill-rule="evenodd" stroke="none"/>
    <path d="M-4.25 9.7 L-3.8 13.4 -7.1 13.9 -7.05 10.15 -4.25 9.7" fill="#ff6d7e" fill-rule="evenodd" stroke="none"/>
    <path d="M-4.65 5.95 L-4.25 9.7 -7.05 10.15 -6.95 6.35 -4.65 5.95" fill="#ff7183" fill-rule="evenodd" stroke="none"/>
    <path d="M9.35 3.45 L9.35 3.5 9.3 3.5 9.3 3.45 9.35 3.45" fill="#c53440" fill-rule="evenodd" stroke="none"/>
    <path d="M9.5 2.95 L9.35 3.45 9.3 3.45 8.85 3.05 9.5 2.95 M9.35 3.5 L8.5 4.1 7.85 3.7 9.3 3.5 9.35 3.5" fill="#ff8b9f" fill-rule="evenodd" stroke="none"/>
    <path d="M2.8 4.35 L3.0 6.5 0.45 6.9 0.45 5.55 1.1 4.6 2.8 4.35" fill="#ff7e91" fill-rule="evenodd" stroke="none"/>
    <path d="M3.0 6.5 L3.3 9.9 0.3 10.35 0.45 6.9 3.0 6.5" fill="#ff798c" fill-rule="evenodd" stroke="none"/>
  </g>
</svg>
