<?xml version="1.0" encoding="UTF-8" standalone="no"?>
<svg xmlns:xlink="http://www.w3.org/1999/xlink" height="41.05px" width="39.85px" xmlns="http://www.w3.org/2000/svg">
  <g transform="matrix(1.0, 0.0, 0.0, 1.0, 20.5, 28.2)">
    <path d="M-9.15 -25.6 L-9.05 -25.6 -8.85 -25.65 -8.8 -25.65 -8.6 -25.65 -8.5 -25.65 -8.3 -25.7 -8.25 -25.7 -8.05 -25.75 -7.95 -25.75 -7.75 -25.75 -7.65 -25.75 -7.5 -25.8 -7.4 -25.8 -7.2 -25.8 -7.15 -25.8 -6.95 -25.85 -6.9 -25.85 -6.7 -25.9 -6.6 -25.9 -6.4 -25.9 -6.35 -25.9 -6.15 -25.95 -6.05 -25.95 -5.85 -26.0 -5.75 -26.0 -5.6 -26.0 -5.5 -26.0 -5.3 -26.05 -5.25 -26.05 -5.05 -26.1 -5.0 -26.1 -4.8 -26.1 -4.7 -26.1 -4.5 -26.15 -4.4 -26.15 -4.2 -26.2 -4.15 -26.2 -3.95 -26.2 -3.85 -26.2 -3.7 -26.25 -3.6 -26.25 -3.4 -26.25 -3.35 -26.25 -3.15 -26.3 -3.1 -26.3 -2.9 -26.35 -2.8 -26.35 -2.6 -26.35 -2.5 -26.35 -2.3 -26.4 -2.25 -26.4 -2.05 -26.45 -1.95 -26.45 -1.75 -26.45 -1.7 -26.45 -1.5 -26.5 -1.45 -26.5 -1.25 -26.5 -1.15 -26.5 -1.0 -26.55 -0.9 -26.55 -0.7 -26.6 -0.6 -26.6 -0.4 -26.6 -0.35 -26.6 -0.15 -26.65 -0.05 -26.65 0.15 -26.7 0.2 -26.7 0.4 -26.7 0.45 -26.7 0.65 -26.75 0.75 -26.75 0.95 -26.75 1.0 -26.75 1.2 -26.8 1.3 -26.8 1.5 -26.85 1.55 -26.85 1.75 -26.85 1.85 -26.85 2.05 -26.9 2.1 -26.9 2.3 -26.95 2.35 -26.95 2.55 -26.95 2.65 -26.95 2.85 -27.0 2.9 -27.0 3.1 -27.05 3.2 -27.05 3.4 -27.05 3.45 -27.05 3.65 -27.1 3.75 -27.1 3.95 -27.15 4.0 -27.15 4.2 -27.15 4.25 -27.15 4.45 -27.2 4.55 -27.2 4.75 -27.2 4.8 -27.2 5.0 -27.25 5.1 -27.25 5.3 -27.3 5.35 -27.3 5.55 -27.3 5.65 -27.3 5.85 -27.35 5.9 -27.35 6.1 -27.4 6.15 -27.4 6.35 -27.4 6.45 -27.4 6.65 -27.45 6.7 -27.45 6.9 -27.45 7.0 -27.45 7.2 -27.5 7.3 -27.5 7.45 -27.55 7.55 -27.55 7.75 -27.55 7.8 -27.55 8.0 -27.55 6.0 -25.15 -3.8 -24.0 -9.15 -25.55 -9.15 -25.6 M2.2 2.75 L2.55 3.05 0.45 3.35 0.15 3.05 2.2 2.75" fill="#ff7c8f" fill-rule="evenodd" stroke="none"/>
    <path d="M-3.8 -24.0 L6.0 -25.15 8.0 -27.55 8.0 -27.6 8.05 -27.6 8.25 -27.65 8.35 -27.65 8.55 -27.65 8.6 -27.65 8.8 -27.7 8.9 -27.7 9.1 -27.7 9.2 -27.7 9.35 -27.75 9.45 -27.75 9.65 -27.8 9.7 -27.8 9.9 -27.85 9.95 -27.85 11.5 -28.0 11.5 -27.9 11.25 -27.65 7.45 -23.15 1.5 -22.45 -3.8 -24.0" fill="#ff8396" fill-rule="evenodd" stroke="none"/>
    <path d="M8.0 -27.55 L7.8 -27.55 8.0 -27.6 8.0 -27.55 M-13.1 -25.15 L-11.05 -25.4 -11.05 -25.35 -13.0 -24.6 -13.1 -25.15" fill="#ff8ea3" fill-rule="evenodd" stroke="none"/>
    <path d="M1.5 -22.45 L7.45 -23.15 10.1 -9.5 9.8 -7.6 9.7 -6.8 9.45 -5.0 9.4 -4.35 9.2 -3.05 9.3 -2.3 9.4 -1.55 Q9.3 -1.4 9.9 0.4 L10.15 0.85 10.15 0.9 9.65 2.2 9.2 2.55 9.15 2.6 8.5 2.7 7.9 2.5 6.65 0.85 Q5.85 -1.0 5.85 -1.55 L5.05 -4.8 4.35 -8.1 4.25 -8.5 1.5 -22.45" fill="#ff899d" fill-rule="evenodd" stroke="none"/>
    <path d="M-9.15 -25.6 L-9.15 -25.55 -9.05 -24.6 -9.1 -24.4 -8.85 -13.25 -9.75 -13.3 -10.65 -13.2 -11.05 -25.35 -11.05 -25.4 -10.95 -25.4 -10.85 -25.4 -10.7 -25.4 -10.6 -25.45 -10.4 -25.45 -10.3 -25.5 -10.15 -25.5 -10.05 -25.5 -9.85 -25.5 -9.75 -25.55 -9.6 -25.55 -9.5 -25.55 -9.3 -25.55 -9.25 -25.6 -9.15 -25.6 M-4.7 3.85 L-3.9 7.55 -6.7 8.0 -7.05 4.2 -7.05 4.1 -4.75 3.75 -4.7 3.85" fill="#ff8599" fill-rule="evenodd" stroke="none"/>
    <path d="M-9.15 -25.55 L-3.8 -24.0 1.5 -22.45 4.25 -8.5 4.35 -8.1 5.05 -4.8 5.85 -1.55 Q5.85 -1.0 6.65 0.85 L7.9 2.5 8.5 2.7 9.15 2.6 9.2 2.6 9.2 2.55 9.65 2.2 10.15 0.9 10.15 0.85 10.4 -0.2 10.4 -0.4 10.6 -1.6 10.6 -2.45 10.6 -2.5 10.55 -2.5 10.45 -2.45 10.35 -2.45 10.25 -2.4 10.15 -2.4 10.05 -2.4 9.9 -2.4 9.8 -2.35 9.7 -2.35 9.6 -2.3 9.5 -2.3 9.4 -2.3 9.3 -2.3 9.2 -3.05 9.4 -4.35 10.65 -3.95 10.8 -3.8 10.6 -3.75 11.25 -3.6 11.7 -3.5 11.6 0.45 11.45 1.55 14.25 1.1 Q13.3 5.95 11.25 5.6 L9.35 5.9 8.5 5.85 8.85 9.35 11.7 8.85 10.25 9.3 7.3 9.8 7.2 9.8 7.05 4.8 6.2 3.85 5.45 2.2 5.2 1.7 4.15 -1.5 4.1 -1.5 4.0 -1.45 3.9 -1.45 3.75 -1.45 3.7 -1.45 3.55 -1.4 3.5 -1.4 3.35 -1.35 3.25 -1.35 3.15 -1.35 3.05 -1.35 2.95 -1.3 2.85 -1.3 2.75 -1.25 2.65 -1.25 2.55 -1.25 2.45 -1.25 2.35 -1.2 2.25 -1.2 2.1 -1.15 2.0 -1.15 3.05 -5.5 3.4 -6.3 2.8 -6.35 2.65 -6.8 2.55 -6.9 1.4 -7.05 1.35 -7.05 0.8 -3.1 0.3 -0.9 0.25 -0.9 0.15 -0.9 0.05 -0.85 -0.05 -0.85 -0.15 -0.85 -0.25 -0.85 -0.35 -0.8 -0.5 -0.8 -0.6 -0.75 -0.65 -0.75 -0.8 -0.75 -0.9 -0.75 -1.0 -0.7 -1.1 -0.7 -1.2 -0.65 -1.3 -0.65 -1.4 -0.65 -1.5 -0.65 -1.6 -0.6 -1.7 -0.6 -1.8 -0.6 -1.95 -0.6 -2.05 -0.55 -2.15 -0.55 -2.25 -0.5 -2.35 -0.5 -2.45 -0.45 -2.55 -0.45 -2.65 -0.45 -2.75 -0.45 -2.85 -0.4 -2.95 -0.4 -3.1 -0.4 -3.15 -0.4 -3.25 -0.35 -3.35 -0.35 -3.5 -0.3 -3.6 -0.3 -3.7 -0.3 -3.8 -0.3 -3.9 -0.25 -4.0 -0.25 -4.1 -0.2 -4.2 -0.2 -4.3 -0.2 -4.4 -0.2 -4.55 -0.15 -4.65 -0.15 -4.75 -0.15 -4.8 -0.15 -4.95 -0.1 -5.05 -0.1 -5.15 -0.05 -5.25 -0.05 -5.35 -0.05 -5.45 -0.05 -5.6 0.0 -5.7 0.0 -5.75 0.05 -5.85 0.05 -6.0 0.05 -6.1 0.05 -6.2 0.05 -6.2 0.1 -6.25 0.1 -6.4 0.1 -6.5 0.1 -6.65 0.15 -6.7 0.15 -6.85 0.2 -6.9 0.2 -7.05 0.2 -7.1 0.2 -7.25 0.25 -7.35 0.25 -7.45 0.3 -7.55 0.3 -7.65 0.3 -7.75 0.3 -7.85 0.35 -7.05 4.1 -7.05 4.2 -6.7 8.0 -6.25 11.9 -3.25 11.4 -4.55 11.8 -7.65 12.35 -7.75 12.3 -7.75 12.05 -8.1 4.45 -7.6 4.3 -12.0 4.85 -14.25 5.15 -13.8 5.6 -13.85 9.2 -13.9 12.8 -15.25 11.4 -14.85 5.2 -14.85 5.15 -14.85 5.05 -14.85 5.0 -20.5 -21.95 -13.1 -25.15 -13.0 -24.6 -11.05 -25.35 -10.65 -13.2 -10.25 -1.55 -10.25 -1.15 -10.2 -1.0 -8.7 -0.85 -8.6 -1.55 -8.85 -13.25 -9.1 -24.4 -9.05 -24.6 -9.15 -25.55 M14.55 -4.45 L13.4 -6.1 12.15 -20.45 11.75 -25.85 13.05 -16.2 14.55 -4.45 M0.2 10.4 L-1.25 9.0 -0.75 3.2 0.15 3.05 0.45 3.35 0.35 6.9 0.2 10.4 M-1.3 -12.85 Q-0.05 -12.95 -0.4 -14.6 -0.8 -15.65 -1.9 -14.6 -2.4 -13.2 -1.3 -12.85" fill="#bf313d" fill-rule="evenodd" stroke="none"/>
    <path d="M-8.85 -13.25 L-8.6 -1.55 -8.7 -0.85 -10.2 -1.0 -10.25 -1.15 -10.25 -1.55 -10.65 -13.2 -9.75 -13.3 -8.85 -13.25" fill="#ff788a" fill-rule="evenodd" stroke="none"/>
    <path d="M-1.3 -12.85 Q-2.4 -13.2 -1.9 -14.6 -0.8 -15.65 -0.4 -14.6 -0.05 -12.95 -1.3 -12.85 M9.95 -16.4 Q10.85 -15.7 10.4 -14.7 9.75 -15.25 9.95 -16.4" fill="#000000" fill-rule="evenodd" stroke="none"/>
    <path d="M11.5 -28.0 L13.25 -28.2 13.35 -28.2 13.35 -28.0 14.65 -16.55 13.75 -16.5 13.05 -16.2 11.75 -25.85 11.75 -25.9 11.55 -27.65 11.5 -27.9 11.5 -28.0" fill="#ff91a7" fill-rule="evenodd" stroke="none"/>
    <path d="M13.4 -6.1 L13.5 -4.2 13.05 -4.1 11.4 -5.65 9.8 -7.6 10.1 -9.5 7.45 -23.15 11.25 -27.65 11.5 -27.9 11.55 -27.65 11.75 -25.9 11.75 -25.85 12.15 -20.45 13.4 -6.1 M9.4 -4.35 L9.45 -5.0 9.7 -4.8 10.65 -3.95 9.4 -4.35 M9.95 -16.4 Q9.75 -15.25 10.4 -14.7 10.85 -15.7 9.95 -16.4" fill="#ff7082" fill-rule="evenodd" stroke="none"/>
    <path d="M14.65 -16.55 L16.0 -4.95 14.65 -4.35 14.55 -4.45 13.05 -16.2 13.75 -16.5 14.65 -16.55 M14.0 -4.05 L14.55 -3.95 11.7 -3.5 11.25 -3.6 14.0 -4.05" fill="#ff8093" fill-rule="evenodd" stroke="none"/>
    <path d="M14.6 -3.0 L15.05 -2.75 17.3 -1.8 19.35 -1.35 19.3 -0.9 19.05 -0.85 19.05 -1.25 16.5 -1.85 Q15.05 -2.35 14.7 -2.65 L14.6 -2.65 14.6 -3.0 M9.7 -6.8 L9.8 -7.6 11.4 -5.65 13.05 -4.1 12.5 -4.05 11.9 -4.55 9.7 -6.8 M2.8 -6.35 L3.05 -5.5 2.0 -1.15 1.5 0.1 0.55 1.7 0.25 2.1 -0.3 2.6 -0.4 2.2 -0.4 1.75 -1.1 1.85 -1.0 1.7 -0.35 0.75 0.15 -0.45 0.25 -0.9 0.3 -0.9 0.8 -3.1 1.35 -7.05 1.4 -7.05 2.55 -6.9 2.65 -6.8 2.8 -6.35" fill="#ffffff" fill-rule="evenodd" stroke="none"/>
    <path d="M9.45 -5.0 L9.7 -6.8 11.9 -4.55 11.6 -3.95 10.8 -3.8 10.65 -3.95 9.7 -4.8 9.45 -5.0" fill="#d5fcff" fill-rule="evenodd" stroke="none"/>
    <path d="M13.5 -4.2 L14.0 -4.05 11.25 -3.6 10.6 -3.75 10.8 -3.8 11.6 -3.95 12.5 -4.05 13.05 -4.1 13.5 -4.2" fill="#ff7e91" fill-rule="evenodd" stroke="none"/>
    <path d="M19.0 -0.45 L16.95 -0.7 14.55 -1.45 14.6 -2.65 14.7 -2.65 Q15.05 -2.35 16.5 -1.85 L19.05 -1.25 19.05 -0.85 19.0 -0.45 M11.6 -3.95 L11.9 -4.55 12.5 -4.05 11.6 -3.95" fill="#d8feff" fill-rule="evenodd" stroke="none"/>
    <path d="M14.55 -3.95 L14.6 -3.0 14.6 -2.65 14.55 -1.45 14.5 -0.4 14.25 1.1 11.45 1.55 11.6 0.45 11.7 -3.5 14.55 -3.95" fill="#ee4a58" fill-rule="evenodd" stroke="none"/>
    <path d="M5.45 2.2 L2.2 2.75 0.15 3.05 -0.75 3.2 -4.7 3.85 -4.75 3.75 -7.05 4.1 -7.85 0.35 -7.75 0.3 -7.65 0.3 -7.55 0.3 -7.45 0.3 -7.35 0.25 -7.25 0.25 -7.1 0.2 -7.05 0.2 -6.9 0.2 -6.85 0.2 -6.7 0.15 -6.65 0.15 -6.5 0.1 -6.4 0.1 -6.25 0.1 -6.2 0.1 -6.1 0.05 -6.0 0.05 -5.85 0.05 -5.75 0.05 -5.7 0.0 -5.6 0.0 -5.45 -0.05 -5.35 -0.05 -5.25 -0.05 -5.15 -0.05 -5.05 -0.1 -4.95 -0.1 -4.8 -0.15 -4.75 -0.15 -4.65 -0.15 -4.55 -0.15 -4.4 -0.2 -4.3 -0.2 -4.2 -0.2 -4.1 -0.2 -4.0 -0.25 -3.9 -0.25 -3.8 -0.3 -3.7 -0.3 -3.6 -0.3 -3.5 -0.3 -3.35 -0.35 -3.25 -0.35 -3.15 -0.4 -3.1 -0.4 -2.95 -0.4 -2.85 -0.4 -2.75 -0.45 -2.65 -0.45 -2.55 -0.45 -2.45 -0.45 -2.35 -0.5 -2.25 -0.5 -2.15 -0.55 -2.05 -0.55 -1.95 -0.6 -1.8 -0.6 -1.7 -0.6 -1.6 -0.6 -1.5 -0.65 -1.4 -0.65 -1.3 -0.65 -1.2 -0.65 -1.1 -0.7 -1.0 -0.7 -0.9 -0.75 -0.8 -0.75 -0.65 -0.75 -0.6 -0.75 -0.5 -0.8 -0.35 -0.8 -0.25 -0.85 -0.15 -0.85 -0.05 -0.85 0.05 -0.85 0.15 -0.9 0.25 -0.9 0.15 -0.45 -0.35 0.75 -1.0 1.7 -1.1 1.85 -1.05 2.25 -1.0 2.65 -0.3 2.6 0.25 2.1 0.55 1.7 1.5 0.1 2.0 -1.15 2.1 -1.15 2.25 -1.2 2.35 -1.2 2.45 -1.25 2.55 -1.25 2.65 -1.25 2.75 -1.25 2.85 -1.3 2.95 -1.3 3.05 -1.35 3.15 -1.35 3.25 -1.35 3.35 -1.35 3.5 -1.4 3.55 -1.4 3.7 -1.45 3.75 -1.45 3.9 -1.45 4.0 -1.45 4.1 -1.5 4.15 -1.5 5.2 1.7 5.45 2.2 M10.15 0.85 L9.9 0.4 Q9.3 -1.4 9.4 -1.55 L9.3 -2.3 9.4 -2.3 9.5 -2.3 9.6 -2.3 9.7 -2.35 9.8 -2.35 9.9 -2.4 10.05 -2.4 10.15 -2.4 10.25 -2.4 10.35 -2.4 10.4 -0.4 10.4 -0.2 10.15 0.85" fill="#ff8194" fill-rule="evenodd" stroke="none"/>
    <path d="M10.6 -2.45 L10.55 -2.45 10.55 -2.5 10.6 -2.5 10.6 -2.45 M10.4 -0.4 L10.4 -0.2 10.4 -0.4" fill="#f34e5c" fill-rule="evenodd" stroke="none"/>
    <path d="M10.35 -2.45 L10.35 -2.4 10.25 -2.4 10.35 -2.45 M10.55 -2.45 L10.45 -2.45 10.55 -2.5 10.55 -2.45 M-6.2 0.1 L-6.2 0.05 -6.1 0.05 -6.2 0.1 M-6.25 0.1 L-6.4 0.1 -6.25 0.1" fill="#ff6071" fill-rule="evenodd" stroke="none"/>
    <path d="M19.3 -0.9 L19.3 -0.5 19.0 -0.45 19.05 -0.85 19.3 -0.9 M-0.4 2.2 L-0.3 2.6 -1.0 2.65 -1.05 2.25 -0.4 2.2" fill="#9fc7ff" fill-rule="evenodd" stroke="none"/>
    <path d="M11.25 5.6 L11.9 8.8 11.7 8.85 8.85 9.35 8.5 5.85 9.35 5.9 11.25 5.6" fill="#ff859a" fill-rule="evenodd" stroke="none"/>
    <path d="M3.05 -5.5 L2.8 -6.35 3.4 -6.3 3.05 -5.5" fill="#de414e" fill-rule="evenodd" stroke="none"/>
    <path d="M-1.1 1.85 L-0.4 1.75 -0.4 2.2 -1.05 2.25 -1.1 1.85" fill="#a7cfff" fill-rule="evenodd" stroke="none"/>
    <path d="M9.15 2.6 L9.2 2.55 9.2 2.6 9.15 2.6" fill="#ff869a" fill-rule="evenodd" stroke="none"/>
    <path d="M-3.9 7.55 L-3.1 11.3 -3.25 11.4 -6.25 11.9 -6.7 8.0 -3.9 7.55" fill="#ff8195" fill-rule="evenodd" stroke="none"/>
    <path d="M2.55 3.05 L2.8 6.5 0.35 6.9 0.45 3.35 2.55 3.05" fill="#ff7d91" fill-rule="evenodd" stroke="none"/>
    <path d="M2.8 6.5 L3.15 10.0 0.3 10.5 0.2 10.4 0.35 6.9 2.8 6.5" fill="#ff798c" fill-rule="evenodd" stroke="none"/>
    <path d="M-12.0 4.85 L-11.65 5.3 -11.3 8.85 -13.85 9.2 -13.8 5.6 -14.25 5.15 -12.0 4.85" fill="#ff7b8e" fill-rule="evenodd" stroke="none"/>
    <path d="M-14.85 5.05 L-14.85 5.0 -14.85 5.05" fill="#ff7284" fill-rule="evenodd" stroke="none"/>
    <path d="M-11.3 8.85 L-10.9 12.35 -13.65 12.85 -13.9 12.8 -13.85 9.2 -11.3 8.85" fill="#ff7789" fill-rule="evenodd" stroke="none"/>
  </g>
</svg>
