<?xml version="1.0" encoding="UTF-8" standalone="no"?>
<svg xmlns:xlink="http://www.w3.org/1999/xlink" height="41.65px" width="39.6px" xmlns="http://www.w3.org/2000/svg">
  <g transform="matrix(1.0, 0.0, 0.0, 1.0, 20.45, 28.8)">
    <path d="M7.3 -23.85 L1.4 -23.15 -3.8 -24.7 5.9 -25.85 7.8 -28.2 11.35 -28.6 11.35 -28.55 7.3 -23.85" fill="#ff8295" fill-rule="evenodd" stroke="none"/>
    <path d="M7.8 -28.2 L5.9 -25.85 -3.8 -24.7 -9.15 -26.25 7.8 -28.2 M-13.75 9.2 L-13.75 5.55 -14.15 5.15 -13.75 5.05 -13.65 5.05 -13.6 5.05 -13.45 5.0 -13.4 5.0 -13.3 5.0 -13.25 5.0 -12.0 4.8 -11.55 5.25 -11.2 8.8 -13.75 9.2" fill="#ff7b8e" fill-rule="evenodd" stroke="none"/>
    <path d="M1.4 -23.15 L7.3 -23.85 9.95 -10.2 9.9 -9.4 9.7 -8.2 9.65 -8.1 9.6 -7.4 9.3 -5.65 9.2 -4.9 9.2 -4.8 9.05 -3.6 9.2 -2.65 9.3 -1.55 9.7 0.1 10.05 0.9 10.35 1.5 10.55 1.95 10.4 2.4 9.55 3.35 9.4 3.4 Q8.9 3.8 7.8 2.75 L6.55 0.7 5.85 -1.55 4.1 -9.2 1.4 -23.15" fill="#ff899d" fill-rule="evenodd" stroke="none"/>
    <path d="M-9.15 -26.25 L-8.9 -13.8 -9.65 -13.9 -10.65 -13.8 -11.15 -26.0 -9.15 -26.25" fill="#ff859a" fill-rule="evenodd" stroke="none"/>
    <path d="M-3.8 -24.7 L1.4 -23.15 4.1 -9.2 5.85 -1.55 6.55 0.7 7.8 2.75 Q8.9 3.8 9.4 3.4 L9.55 3.35 10.4 2.4 10.55 1.95 10.6 1.95 10.9 1.15 11.3 -1.1 12.4 0.3 12.1 1.7 12.1 1.8 14.9 1.4 14.65 2.8 13.95 4.6 12.7 6.0 11.65 6.2 9.4 6.5 8.75 6.5 9.05 8.45 12.05 8.0 10.6 9.3 7.55 9.75 7.15 5.25 5.95 3.4 5.4 2.0 2.05 2.55 -0.05 2.9 0.45 3.35 0.35 6.9 0.2 10.45 -1.25 9.05 -0.75 3.05 -4.65 3.65 -4.7 3.45 5.35 1.9 4.25 -1.55 4.1 -1.85 1.8 -1.55 2.15 -2.55 2.95 -5.95 3.3 -6.9 2.7 -7.0 2.55 -7.4 2.55 -7.5 1.3 -7.65 0.7 -3.65 0.2 -1.55 0.1 -1.25 -7.85 -0.05 -7.1 3.6 -7.05 3.75 -7.1 3.8 -7.05 3.8 -6.55 7.2 -6.0 11.0 -2.85 10.5 -4.15 11.8 -7.35 12.25 -8.0 4.6 -8.0 4.45 -7.75 4.15 -12.0 4.8 -13.25 5.0 -13.3 5.0 -13.4 5.0 -13.45 5.0 -13.6 5.05 -13.65 5.05 -13.75 5.05 -14.15 5.15 -13.75 5.55 -13.75 9.2 -13.8 12.85 -15.2 11.4 -14.75 5.15 -14.75 5.1 -14.75 5.0 -14.75 4.95 -20.45 -22.2 -13.15 -25.7 -13.05 -25.2 -13.0 -25.2 -11.4 -25.9 -11.15 -26.0 -10.65 -13.8 -10.25 -1.6 -10.2 -1.55 -8.7 -1.35 -8.6 -1.55 -8.9 -13.8 -9.15 -26.25 -3.8 -24.7 M9.2 -2.65 L9.05 -3.6 9.2 -4.8 9.2 -4.9 9.5 -4.8 10.6 -4.45 10.65 -4.4 12.3 -3.15 10.2 -2.8 9.2 -2.65 M-1.45 -15.7 L-1.9 -15.35 -2.1 -14.6 -2.05 -13.95 -1.75 -13.65 -1.35 -13.45 -0.85 -13.65 Q-0.55 -13.7 -0.35 -14.6 -0.3 -15.65 -1.2 -15.8 L-1.45 -15.7 M11.95 -21.0 L12.0 -21.15 11.55 -26.7 12.9 -16.75 14.35 -4.95 13.2 -6.55 11.95 -21.0" fill="#bf313d" fill-rule="evenodd" stroke="none"/>
    <path d="M-8.9 -13.8 L-8.6 -1.55 -8.7 -1.35 -10.2 -1.55 -10.25 -1.6 -10.65 -13.8 -9.65 -13.9 -8.9 -13.8" fill="#ff788b" fill-rule="evenodd" stroke="none"/>
    <path d="M-1.45 -15.7 L-1.2 -15.8 Q-0.3 -15.65 -0.35 -14.6 -0.55 -13.7 -0.85 -13.65 L-1.35 -13.45 -1.75 -13.65 -2.05 -13.95 -2.1 -14.6 -1.9 -15.35 -1.45 -15.7 M10.4 -15.75 L10.25 -15.3 10.1 -15.4 9.7 -16.4 9.75 -17.05 10.0 -16.95 10.3 -16.55 10.3 -16.5 10.35 -16.4 10.4 -15.85 10.4 -15.75" fill="#000000" fill-rule="evenodd" stroke="none"/>
    <path d="M7.3 -23.85 L11.35 -28.55 11.55 -26.9 11.55 -26.8 11.55 -26.7 12.0 -21.15 11.95 -21.0 9.9 -18.65 10.3 -16.55 10.0 -16.95 9.75 -17.05 9.7 -16.4 10.1 -15.4 10.25 -15.3 10.4 -15.75 10.5 -15.75 11.3 -11.8 9.95 -9.4 9.9 -9.4 9.95 -10.2 7.3 -23.85" fill="#ff7082" fill-rule="evenodd" stroke="none"/>
    <path d="M11.35 -28.55 L11.35 -28.6 13.2 -28.8 14.5 -17.1 13.55 -17.0 12.9 -16.75 11.55 -26.7 11.55 -26.8 11.55 -26.9 11.35 -28.55" fill="#ff92a7" fill-rule="evenodd" stroke="none"/>
    <path d="M9.2 -4.9 L9.3 -5.65 10.6 -4.45 9.5 -4.8 9.2 -4.9 M9.7 -8.2 L9.9 -9.4 9.95 -9.4 11.3 -11.8 10.5 -15.75 10.4 -15.85 10.35 -16.4 10.3 -16.5 10.3 -16.55 9.9 -18.65 11.95 -21.0 13.2 -6.55 13.35 -4.4 11.6 -5.85 Q10.85 -6.55 9.8 -8.1 L9.7 -8.2" fill="#ff6f81" fill-rule="evenodd" stroke="none"/>
    <path d="M12.9 -16.75 L13.55 -17.0 14.5 -17.1 15.85 -5.4 14.45 -4.8 14.35 -4.95 12.9 -16.75" fill="#ff8094" fill-rule="evenodd" stroke="none"/>
    <path d="M10.05 0.9 L9.7 0.1 9.3 -1.55 9.2 -2.65 10.2 -2.8 10.25 0.85 10.05 0.9 M-7.05 3.8 L-7.1 3.8 -7.05 3.75 -7.05 3.8 M-7.1 3.6 L-7.85 -0.05 0.1 -1.25 0.05 -1.1 -0.5 0.25 -1.1 1.15 -1.1 1.55 -1.1 1.7 -1.05 2.0 -0.4 1.9 -0.1 1.7 1.0 0.35 1.8 -1.55 4.1 -1.85 4.25 -1.55 5.35 1.9 -4.7 3.45 -4.75 3.25 -4.9 3.25 -7.1 3.6 M10.4 -15.85 L10.5 -15.75 10.4 -15.75 10.4 -15.85 M9.95 -9.4 L9.9 -9.4 9.95 -9.4" fill="#ff8195" fill-rule="evenodd" stroke="none"/>
    <path d="M9.6 -7.4 L9.65 -8.1 9.7 -8.2 9.8 -8.1 Q10.85 -6.55 11.6 -5.85 L13.35 -4.4 14.9 -3.35 15.65 -3.0 17.6 -2.3 19.15 -1.95 19.1 -1.55 18.85 -1.55 18.8 -1.55 18.85 -1.9 17.25 -2.2 15.35 -2.85 12.95 -4.2 11.75 -5.15 9.6 -7.4 M0.1 -1.25 L0.2 -1.55 0.7 -3.65 1.3 -7.65 2.55 -7.5 2.55 -7.4 2.7 -7.0 2.95 -5.95 2.15 -2.55 1.8 -1.55 1.0 0.35 -0.1 1.7 -0.4 1.9 -0.45 1.5 -0.5 1.1 -1.1 1.15 -0.5 0.25 0.05 -1.1 0.1 -1.25" fill="#ffffff" fill-rule="evenodd" stroke="none"/>
    <path d="M18.8 -1.1 Q16.7 -1.0 13.8 -2.4 L13.5 -3.15 Q12.35 -3.75 11.45 -4.55 L11.75 -5.15 12.95 -4.2 15.35 -2.85 17.25 -2.2 18.85 -1.9 18.8 -1.55 18.85 -1.55 18.8 -1.1" fill="#d8ffff" fill-rule="evenodd" stroke="none"/>
    <path d="M9.3 -5.65 L9.6 -7.4 11.75 -5.15 11.45 -4.55 Q12.35 -3.75 13.5 -3.15 L13.8 -2.4 12.3 -3.15 10.65 -4.4 10.6 -4.45 9.3 -5.65" fill="#d6fdff" fill-rule="evenodd" stroke="none"/>
    <path d="M12.75 -1.4 L14.15 -1.6 14.2 -1.55 15.25 -0.15 13.85 0.05 12.75 -1.4" fill="#ff93a9" fill-rule="evenodd" stroke="none"/>
    <path d="M12.4 0.3 L11.3 -1.1 11.6 -1.25 12.75 -1.4 13.85 0.05 12.4 0.3" fill="#ff91a7" fill-rule="evenodd" stroke="none"/>
    <path d="M10.35 1.5 L10.05 0.9 10.25 0.85 10.35 1.5" fill="#ff91a6" fill-rule="evenodd" stroke="none"/>
    <path d="M14.9 1.4 L12.1 1.8 12.1 1.7 12.4 0.3 13.85 0.05 15.25 -0.15 14.9 1.4" fill="#c4343f" fill-rule="evenodd" stroke="none"/>
    <path d="M19.1 -1.55 L19.1 -1.15 18.8 -1.1 18.85 -1.55 19.1 -1.55 M-0.45 1.5 L-0.4 1.9 -1.05 2.0 -1.1 1.7 -1.1 1.55 -0.45 1.5" fill="#9fc7ff" fill-rule="evenodd" stroke="none"/>
    <path d="M12.05 8.0 L9.05 8.45 8.75 6.5 9.4 6.5 11.65 6.2 12.15 7.9 12.05 8.0" fill="#ff8da2" fill-rule="evenodd" stroke="none"/>
    <path d="M2.7 -7.0 L3.3 -6.9 2.95 -5.95 2.7 -7.0" fill="#e0424f" fill-rule="evenodd" stroke="none"/>
    <path d="M-0.45 1.5 L-1.1 1.55 -1.1 1.15 -0.5 1.1 -0.45 1.5" fill="#a9d0ff" fill-rule="evenodd" stroke="none"/>
    <path d="M0.45 3.35 L-0.05 2.9 2.05 2.55 2.5 3.0 0.45 3.35" fill="#ff7c8f" fill-rule="evenodd" stroke="none"/>
    <path d="M-6.55 7.2 L-7.05 3.8 -7.05 3.75 -7.1 3.6 -4.9 3.25 -4.75 3.25 -4.7 3.45 -4.65 3.65 -3.8 6.75 -6.55 7.2" fill="#ff8ca0" fill-rule="evenodd" stroke="none"/>
    <path d="M-2.85 10.5 L-6.0 11.0 -6.55 7.2 -3.8 6.75 -2.85 10.2 -2.85 10.5" fill="#ff889d" fill-rule="evenodd" stroke="none"/>
    <path d="M0.35 6.9 L0.45 3.35 2.5 3.0 2.8 6.5 0.35 6.9" fill="#ff7d90" fill-rule="evenodd" stroke="none"/>
    <path d="M0.2 10.45 L0.35 6.9 2.8 6.5 3.05 10.05 0.2 10.45" fill="#ff798c" fill-rule="evenodd" stroke="none"/>
    <path d="M-11.4 -25.9 L-13.0 -25.2 -13.05 -25.2 -13.15 -25.7 -11.4 -25.9" fill="#ff8ea3" fill-rule="evenodd" stroke="none"/>
    <path d="M-14.75 4.95 L-14.75 5.0 -14.75 4.95" fill="#ff7284" fill-rule="evenodd" stroke="none"/>
    <path d="M-13.8 12.85 L-13.75 9.2 -11.2 8.8 -10.85 12.35 -13.8 12.85" fill="#ff7789" fill-rule="evenodd" stroke="none"/>
  </g>
</svg>
