<?xml version="1.0" encoding="UTF-8" standalone="no"?>
<svg xmlns:xlink="http://www.w3.org/1999/xlink" height="40.95px" width="39.3px" xmlns="http://www.w3.org/2000/svg">
  <g transform="matrix(1.0, 0.0, 0.0, 1.0, 20.15, 27.8)">
    <path d="M1.95 -26.6 L3.35 -24.45 -3.4 -23.65 -8.7 -25.35 1.95 -26.6 M15.75 -16.3 L18.0 -4.95 17.95 -4.85 16.8 -4.1 16.65 -4.1 16.65 -4.2 16.55 -4.8 14.2 -15.65 14.9 -16.05 15.75 -16.3 M2.5 3.2 L2.8 6.5 0.3 6.9 0.4 3.5 2.5 3.2" fill="#ff7d90" fill-rule="evenodd" stroke="none"/>
    <path d="M-3.4 -23.65 L3.35 -24.45 1.95 -26.6 10.4 -27.55 10.4 -27.6 11.75 -27.7 11.7 -27.65 7.65 -22.65 1.85 -21.95 -3.4 -23.65" fill="#ff8498" fill-rule="evenodd" stroke="none"/>
    <path d="M-8.7 -25.35 L-3.4 -23.65 1.85 -21.95 3.1 -14.9 3.1 -14.8 3.15 -14.6 4.35 -8.1 4.35 -7.75 5.85 -0.4 6.1 0.8 6.65 2.5 7.8 5.0 8.75 6.25 9.2 6.45 Q10.1 6.95 10.85 6.2 L11.2 5.9 11.3 5.6 11.3 5.55 11.35 5.55 11.4 5.45 11.4 5.4 11.45 5.4 11.9 4.35 12.8 6.65 15.65 6.2 Q14.65 8.65 13.8 9.1 L11.3 9.55 10.8 10.15 7.85 10.65 7.8 10.6 7.5 7.9 5.9 4.8 5.2 2.75 4.15 -0.9 2.2 -0.6 2.8 -3.0 2.85 -3.0 2.8 -3.05 3.15 -4.7 3.25 -4.75 3.15 -4.8 2.8 -6.0 2.8 -6.1 1.5 -6.35 1.0 -2.45 0.45 -0.3 -5.95 0.65 -7.65 0.8 -6.95 4.35 -6.95 4.55 -6.95 4.6 -6.85 5.0 -6.4 7.75 -5.75 11.45 -2.65 10.95 -3.85 12.65 -6.85 13.15 -7.0 13.1 -7.85 5.55 -7.4 4.7 -11.7 5.0 -14.05 5.1 -13.65 5.55 -13.7 9.2 -13.8 12.8 -15.1 11.35 -14.7 5.1 -14.7 5.05 -14.7 4.95 -14.7 4.85 -20.15 -22.5 -12.7 -25.1 -12.5 -24.3 -12.2 -24.4 -10.5 -24.9 -11.3 -12.6 -12.1 -0.5 -12.1 -0.35 -10.5 0.05 -9.75 -9.6 -9.05 -6.6 -9.4 -10.25 -9.55 -11.35 -9.6 -11.5 -9.55 -12.4 -8.6 -24.1 -8.65 -24.85 -10.05 -24.9 -8.75 -25.3 -8.7 -25.35 M-1.7 -12.8 Q-1.55 -12.35 -1.05 -12.25 -0.3 -12.2 -0.05 -13.3 -0.05 -14.6 -0.95 -14.6 L-1.5 -14.25 -1.75 -13.55 -1.7 -12.8 M13.1 -9.0 L12.25 -20.05 11.9 -26.25 14.2 -15.65 16.55 -4.8 16.65 -4.2 13.1 -9.0 M10.4 -3.35 L10.45 -3.35 11.95 -2.05 10.25 -1.8 9.25 -1.7 9.2 -2.2 9.4 -3.65 10.4 -3.35 M0.2 10.45 L-1.25 9.1 -0.8 3.7 -0.5 3.65 -0.2 3.6 -0.1 3.6 0.4 3.5 0.3 6.9 0.2 10.45 M-9.0 -6.0 L-9.0 -6.15 -9.05 -6.1 -9.0 -6.0" fill="#bf313d" fill-rule="evenodd" stroke="none"/>
    <path d="M-10.5 -24.9 L-10.05 -24.9 -8.65 -24.85 -8.6 -24.1 -9.55 -12.4 -10.35 -12.6 -11.3 -12.6 -10.5 -24.9" fill="#ff8397" fill-rule="evenodd" stroke="none"/>
    <path d="M1.95 -26.6 L-8.7 -25.35 -8.75 -25.3 -10.05 -24.9 -10.5 -24.9 -12.2 -24.4 -12.5 -24.3 -12.7 -25.1 10.25 -27.8 10.4 -27.8 10.4 -27.6 10.4 -27.55 1.95 -26.6 M-9.6 -11.5 L-9.55 -11.35 -9.4 -10.25 -9.7 -10.25 -9.65 -11.35 -9.6 -11.5" fill="#ff8ca2" fill-rule="evenodd" stroke="none"/>
    <path d="M-9.4 -10.25 L-9.05 -6.6 -9.75 -9.6 -9.7 -10.25 -9.4 -10.25 M9.25 -1.7 L10.25 -1.8 10.25 1.6 9.7 1.7 9.4 0.15 9.3 -0.9 9.25 -1.55 9.25 -1.7 M5.2 2.75 L2.5 3.2 0.4 3.5 -0.1 3.6 0.65 2.7 1.75 0.55 2.2 -0.6 4.15 -0.9 5.2 2.75 M-0.8 3.7 L-4.55 4.3 -4.65 3.95 -4.8 3.95 -6.95 4.35 -7.65 0.8 -5.95 0.65 0.45 -0.3 0.3 0.4 -0.25 1.7 -0.95 2.8 -0.9 3.25 -0.85 3.65 -0.5 3.65 -0.8 3.7 M-9.0 -6.0 L-9.05 -6.1 -9.0 -6.15 -9.0 -6.0 M-6.95 4.55 L-6.95 4.6 -6.95 4.55" fill="#ff7e92" fill-rule="evenodd" stroke="none"/>
    <path d="M-11.3 -12.6 L-10.35 -12.6 -9.55 -12.4 -9.6 -11.5 -9.65 -11.35 -9.7 -10.25 -9.75 -9.6 -10.5 0.05 -12.1 -0.35 -12.1 -0.5 -11.3 -12.6" fill="#ff7487" fill-rule="evenodd" stroke="none"/>
    <path d="M-1.7 -12.8 L-1.75 -13.55 -1.5 -14.25 -0.95 -14.6 Q-0.05 -14.6 -0.05 -13.3 -0.3 -12.2 -1.05 -12.25 -1.55 -12.35 -1.7 -12.8 M10.65 -14.85 L10.65 -14.6 10.55 -14.1 10.45 -14.05 10.15 -14.6 9.95 -15.45 10.0 -15.8 10.15 -15.85 10.55 -15.35 10.65 -14.85" fill="#000000" fill-rule="evenodd" stroke="none"/>
    <path d="M3.1 -14.9 L8.95 -15.65 10.15 -8.9 9.9 -6.85 9.75 -6.05 9.5 -4.25 9.4 -3.65 9.2 -2.2 9.25 -1.7 9.25 -1.55 9.3 -0.9 5.85 -0.4 4.35 -7.75 4.35 -8.1 3.15 -14.6 3.1 -14.8 3.1 -14.9" fill="#ff899d" fill-rule="evenodd" stroke="none"/>
    <path d="M7.65 -22.65 L11.7 -27.65 11.75 -27.7 11.8 -27.25 11.8 -27.2 11.9 -26.25 12.25 -20.05 13.1 -9.0 13.45 -2.95 12.75 -3.5 10.9 -5.5 9.9 -6.85 10.15 -8.9 8.95 -15.65 8.95 -15.7 7.65 -22.65 M10.65 -14.85 L10.55 -15.35 10.15 -15.85 10.0 -15.8 9.95 -15.45 10.15 -14.6 10.45 -14.05 10.55 -14.1 10.65 -14.6 10.65 -14.85" fill="#ff7082" fill-rule="evenodd" stroke="none"/>
    <path d="M1.85 -21.95 L7.65 -22.65 8.95 -15.7 8.95 -15.65 3.1 -14.9 1.85 -21.95 M9.7 1.7 L10.6 4.35 10.9 4.95 11.3 5.55 11.3 5.6 11.2 5.9 10.85 6.2 9.2 6.45 8.75 6.25 7.8 5.0 6.65 2.5 6.1 0.8 5.85 -0.4 9.3 -0.9 9.4 0.15 9.7 1.7 M13.4 4.05 L14.8 3.85 15.15 5.0 13.4 4.05" fill="#ff8fa4" fill-rule="evenodd" stroke="none"/>
    <path d="M11.9 -26.25 L11.8 -27.2 11.9 -27.25 12.15 -27.3 12.35 -27.4 13.5 -27.65 15.75 -16.3 14.9 -16.05 14.2 -15.65 11.9 -26.25 M11.3 5.55 L10.9 4.95 11.2 4.9 11.4 5.4 11.4 5.45 11.35 5.55 11.3 5.55" fill="#ff90a5" fill-rule="evenodd" stroke="none"/>
    <path d="M11.8 -27.2 L11.8 -27.25 11.9 -27.25 11.8 -27.2" fill="#e74653" fill-rule="evenodd" stroke="none"/>
    <path d="M10.4 -27.6 L10.4 -27.55 10.4 -27.6" fill="#e84654" fill-rule="evenodd" stroke="none"/>
    <path d="M-11.7 5.0 L-11.55 5.2 -11.15 8.8 -13.7 9.2 -13.65 5.55 -14.05 5.1 -11.7 5.0" fill="#ff7b8e" fill-rule="evenodd" stroke="none"/>
    <path d="M-11.15 8.8 L-10.75 12.4 -13.4 12.85 -13.8 12.8 -13.7 9.2 -11.15 8.8" fill="#ff7789" fill-rule="evenodd" stroke="none"/>
    <path d="M9.9 -6.85 L10.9 -5.5 12.75 -3.5 13.45 -2.95 15.0 -1.85 15.75 -1.45 17.6 -0.7 19.15 -0.3 18.9 -0.2 17.05 -0.65 15.4 -1.3 14.2 -1.95 12.15 -3.45 9.75 -6.05 9.9 -6.85 M18.85 0.6 L18.9 0.2 19.15 0.1 19.15 0.5 18.85 0.6 M3.15 -4.8 L3.15 -4.7 2.8 -3.05 2.8 -3.0 2.2 -0.6 1.75 0.55 0.65 2.7 -0.1 3.6 -0.2 3.6 -0.25 3.25 -0.3 2.8 -0.95 2.8 -0.25 1.7 0.3 0.4 0.45 -0.3 1.0 -2.45 1.5 -6.35 2.8 -6.1 2.8 -6.0 3.15 -4.8" fill="#ffffff" fill-rule="evenodd" stroke="none"/>
    <path d="M9.75 -6.05 L12.15 -3.45 14.2 -1.95 14.05 -1.4 Q15.4 -1.0 15.85 -0.05 L14.45 -0.55 11.95 -2.05 10.45 -3.35 10.4 -3.35 9.5 -4.25 9.75 -6.05" fill="#d2f9ff" fill-rule="evenodd" stroke="none"/>
    <path d="M14.2 -1.95 L15.4 -1.3 17.05 -0.65 18.9 -0.2 18.9 0.2 18.85 0.6 17.7 0.5 15.85 -0.05 Q15.4 -1.0 14.05 -1.4 L14.2 -1.95" fill="#d5fcff" fill-rule="evenodd" stroke="none"/>
    <path d="M10.9 4.95 L10.6 4.35 9.7 1.7 10.25 1.6 11.2 4.9 10.9 4.95" fill="#ff93a9" fill-rule="evenodd" stroke="none"/>
    <path d="M18.9 -0.2 L19.15 -0.3 19.15 0.1 18.9 0.2 18.9 -0.2" fill="#fbffff" fill-rule="evenodd" stroke="none"/>
    <path d="M15.15 5.0 L15.65 6.2 12.8 6.65 11.9 4.35 12.1 4.25 13.4 4.05 15.15 5.0" fill="#ff8ca1" fill-rule="evenodd" stroke="none"/>
    <path d="M10.4 -3.35 L9.4 -3.65 9.5 -4.25 10.4 -3.35" fill="#ff6e80" fill-rule="evenodd" stroke="none"/>
    <path d="M3.15 -4.7 L3.15 -4.8 3.25 -4.75 3.15 -4.7" fill="#e14350" fill-rule="evenodd" stroke="none"/>
    <path d="M2.8 -3.0 L2.8 -3.05 2.85 -3.0 2.8 -3.0" fill="#ff91a6" fill-rule="evenodd" stroke="none"/>
    <path d="M-0.25 3.25 L-0.2 3.6 -0.5 3.65 -0.85 3.65 -0.9 3.25 -0.25 3.25" fill="#9fc7ff" fill-rule="evenodd" stroke="none"/>
    <path d="M-4.55 4.3 L-3.65 7.35 -6.4 7.75 -6.85 5.0 -6.95 4.6 -6.95 4.55 -6.95 4.35 -4.8 3.95 -4.65 3.95 -4.55 4.3" fill="#ff8ea3" fill-rule="evenodd" stroke="none"/>
    <path d="M-3.65 7.35 L-2.65 10.55 -2.65 10.95 -5.75 11.45 -6.4 7.75 -3.65 7.35" fill="#ff8ba0" fill-rule="evenodd" stroke="none"/>
    <path d="M2.8 6.5 L3.05 10.05 0.35 10.5 0.2 10.45 0.3 6.9 2.8 6.5" fill="#ff798c" fill-rule="evenodd" stroke="none"/>
    <path d="M-0.95 2.8 L-0.3 2.8 -0.25 3.25 -0.9 3.25 -0.95 2.8" fill="#a5ccff" fill-rule="evenodd" stroke="none"/>
    <path d="M9.2 6.45 L10.85 6.2 Q10.1 6.95 9.2 6.45" fill="#ff778a" fill-rule="evenodd" stroke="none"/>
  </g>
</svg>
