<?xml version="1.0" encoding="UTF-8" standalone="no"?>
<svg xmlns:xlink="http://www.w3.org/1999/xlink" height="41.75px" width="41.6px" xmlns="http://www.w3.org/2000/svg">
  <g transform="matrix(1.0, 0.0, 0.0, 1.0, 19.55, 25.65)">
    <path d="M-2.4 -20.35 L-7.65 -22.4 3.0 -23.7 4.35 -21.2 -2.4 -20.35" fill="#ff8599" fill-rule="evenodd" stroke="none"/>
    <path d="M-19.5 -22.85 L-11.7 -22.9 -11.45 -21.6 -10.0 -21.55 -10.05 -22.45 -7.65 -22.4 -2.4 -20.35 2.8 -18.3 4.95 -3.7 6.5 5.0 6.9 6.7 7.95 9.65 9.0 11.5 9.65 12.35 Q10.8 13.2 11.2 12.9 L11.4 12.9 11.45 12.9 11.45 12.85 12.3 12.2 12.65 13.6 12.95 14.75 12.95 15.05 15.7 14.55 14.6 15.5 11.85 15.95 Q8.55 17.3 5.15 5.05 L5.15 5.0 4.6 2.7 4.35 2.1 2.9 2.3 3.3 0.5 3.35 0.5 3.3 0.45 3.7 -1.1 3.35 -2.3 3.25 -2.45 2.1 -2.75 2.05 -2.7 1.55 0.8 1.2 2.6 -5.5 3.65 -5.6 3.65 -7.35 3.3 -6.75 6.55 -6.7 6.75 -6.75 6.75 -6.7 6.85 -6.2 10.0 -5.6 13.75 -2.5 13.25 -3.75 14.7 -6.9 15.2 -7.65 7.6 -7.15 6.8 -11.45 5.75 -12.85 5.4 -14.0 5.15 -13.65 5.5 -13.7 9.2 -13.75 12.8 -15.1 11.4 -14.65 4.85 -14.65 4.8 -14.7 4.8 -15.1 2.2 -14.05 2.75 -10.75 -9.15 -10.2 -11.35 -9.9 -12.05 -9.25 -8.1 -9.2 -8.0 -8.7 -4.8 -8.55 -4.4 -8.55 -4.8 -8.8 -8.05 -8.8 -8.1 -9.4 -14.15 -7.55 -20.65 -7.55 -21.0 -9.4 -21.55 -12.45 -9.8 -15.45 1.7 -15.55 1.8 -18.6 -11.75 -17.8 -13.0 -17.8 -13.05 -19.55 -22.7 -19.5 -22.85 M-1.05 -9.75 L-0.8 -9.05 -0.5 -8.8 -0.05 -8.75 Q0.6 -8.8 0.7 -10.05 L0.5 -10.75 0.2 -11.0 -0.25 -11.05 -0.5 -10.95 -0.8 -10.65 -1.05 -9.75 M20.8 -3.0 L13.25 -11.8 12.9 -23.05 16.85 -13.1 20.8 -3.0 M13.75 0.6 L13.55 0.65 13.35 0.5 13.75 0.6 M11.35 1.0 L10.5 1.15 9.7 1.25 9.95 -0.35 10.2 -0.3 11.35 1.0 M12.3 10.7 L11.8 11.2 11.45 10.8 12.3 10.7 M0.2 10.5 L-1.25 9.15 -1.0 6.0 0.2 5.8 -0.5 7.3 -0.5 8.1 0.2 8.1 0.25 8.1 0.3 8.25 0.2 10.5" fill="#bf313d" fill-rule="evenodd" stroke="none"/>
    <path d="M-7.65 -22.4 L-10.05 -22.45 -10.0 -21.55 -11.45 -21.6 -11.7 -22.9 -19.5 -22.85 1.1 -25.3 11.1 -25.65 11.35 -25.6 11.35 -24.85 12.55 -24.85 3.0 -23.7 -7.65 -22.4" fill="#ff7f92" fill-rule="evenodd" stroke="none"/>
    <path d="M-9.4 -14.15 L-8.8 -8.1 -8.8 -8.05 -9.2 -8.0 -9.25 -8.1 -9.9 -12.05 -9.4 -14.15" fill="#ff889d" fill-rule="evenodd" stroke="none"/>
    <path d="M-12.45 -9.8 L-9.4 -21.55 -7.55 -21.0 -7.55 -20.65 -9.4 -14.15 -9.9 -12.05 -10.2 -11.35 -10.75 -9.15 -11.45 -9.5 -12.45 -9.8" fill="#ff7c8f" fill-rule="evenodd" stroke="none"/>
    <path d="M-1.05 -9.75 L-0.8 -10.65 -0.5 -10.95 -0.25 -11.05 0.2 -11.0 0.5 -10.75 0.7 -10.05 Q0.6 -8.8 -0.05 -8.75 L-0.5 -8.8 -0.8 -9.05 -1.05 -9.75 M11.35 -11.35 Q11.15 -9.85 10.8 -11.35 10.65 -13.45 11.35 -11.35" fill="#000000" fill-rule="evenodd" stroke="none"/>
    <path d="M-2.5 13.25 L-5.6 13.75 -6.2 10.0 -3.5 9.55 -2.45 13.2 -2.5 13.25 M12.3 12.2 L11.45 12.85 11.4 12.9 11.2 12.9 Q10.8 13.2 9.65 12.35 L9.0 11.5 7.95 9.65 6.9 6.7 6.5 5.0 4.95 -3.7 2.8 -18.3 8.65 -19.05 10.7 -4.8 10.45 -3.15 10.3 -2.2 9.95 -0.55 9.95 -0.35 9.7 1.25 9.6 1.7 9.7 3.85 10.1 6.4 10.35 7.3 10.8 9.2 11.45 10.8 11.8 11.2 12.3 11.9 12.7 12.1 12.3 12.2 M14.45 -24.35 L18.25 -14.25 17.5 -13.75 16.95 -13.1 16.85 -13.1 12.9 -23.05 12.85 -23.35 14.45 -24.35" fill="#ff899d" fill-rule="evenodd" stroke="none"/>
    <path d="M-6.2 10.0 L-6.7 6.85 -6.7 6.75 -6.75 6.55 -4.45 6.15 -4.3 6.5 -3.5 9.55 -6.2 10.0 M2.8 -18.3 L-2.4 -20.35 4.35 -21.2 3.0 -23.7 12.55 -24.85 12.75 -24.8 8.65 -19.05 2.8 -18.3" fill="#ff8ca1" fill-rule="evenodd" stroke="none"/>
    <path d="M12.75 -24.8 L12.85 -24.35 12.85 -24.3 12.85 -23.35 12.9 -23.05 13.25 -11.8 13.8 -0.75 13.75 0.6 13.35 0.5 12.45 -0.4 10.45 -3.15 10.7 -4.8 8.65 -19.05 12.75 -24.8 M11.35 -11.35 Q10.65 -13.45 10.8 -11.35 11.15 -9.85 11.35 -11.35" fill="#ff7082" fill-rule="evenodd" stroke="none"/>
    <path d="M12.85 -24.35 L12.95 -24.35 12.85 -24.3 12.85 -24.35" fill="#f34c5a" fill-rule="evenodd" stroke="none"/>
    <path d="M12.95 -24.35 L14.45 -24.35 12.85 -23.35 12.85 -24.3 12.95 -24.35" fill="#fa4f5e" fill-rule="evenodd" stroke="none"/>
    <path d="M-13.75 12.8 L-13.7 9.2 -11.15 8.8 -10.75 12.4 -13.35 12.85 -13.75 12.8 M18.25 -14.25 L22.05 -4.1 20.95 -2.9 20.8 -3.0 16.85 -13.1 16.95 -13.1 17.5 -13.75 18.25 -14.25" fill="#ff7789" fill-rule="evenodd" stroke="none"/>
    <path d="M1.2 2.6 L1.55 0.8 2.05 -2.7 2.1 -2.75 3.25 -2.45 3.35 -2.3 3.7 -1.1 3.3 0.45 3.3 0.5 2.9 2.3 1.75 5.55 1.15 6.75 0.25 8.1 0.2 8.1 0.15 7.3 -0.5 7.3 0.2 5.8 0.7 4.45 1.2 2.6 M13.55 0.65 L14.3 1.4 16.05 2.65 17.45 3.35 19.4 4.05 19.15 4.2 17.0 3.5 14.9 2.35 13.05 0.9 12.0 -0.1 10.3 -2.2 10.45 -3.15 12.45 -0.4 13.35 0.5 13.55 0.65 M19.4 4.45 L19.4 4.8 19.1 5.0 19.15 4.55 19.4 4.45" fill="#ffffff" fill-rule="evenodd" stroke="none"/>
    <path d="M9.95 -0.35 L9.95 -0.55 10.2 -0.3 9.95 -0.35" fill="#ff6778" fill-rule="evenodd" stroke="none"/>
    <path d="M15.0 3.6 L13.25 2.55 11.35 1.0 10.2 -0.3 9.95 -0.55 10.3 -2.2 12.0 -0.1 13.05 0.9 12.75 1.45 14.65 2.8 14.75 2.85 15.0 3.6" fill="#c8efff" fill-rule="evenodd" stroke="none"/>
    <path d="M-8.8 -8.05 L-8.55 -4.8 -8.55 -4.4 -8.7 -4.8 -9.2 -8.0 -8.8 -8.05 M-6.7 6.85 L-6.75 6.75 -6.7 6.75 -6.7 6.85 M-6.75 6.55 L-7.35 3.3 -5.6 3.65 -5.5 3.65 1.2 2.6 0.7 4.45 0.2 5.8 -1.0 6.0 -4.3 6.5 -4.45 6.15 -6.75 6.55 M2.9 2.3 L4.35 2.1 4.6 2.7 5.15 5.0 5.15 5.05 2.7 5.4 1.75 5.55 2.9 2.3 M10.5 1.15 L10.4 3.75 9.7 3.85 9.6 1.7 9.7 1.25 10.5 1.15" fill="#ff788b" fill-rule="evenodd" stroke="none"/>
    <path d="M19.1 5.0 L16.8 4.45 15.0 3.6 14.75 2.85 14.65 2.8 12.75 1.45 13.05 0.9 14.9 2.35 17.0 3.5 19.15 4.2 19.15 4.55 19.1 5.0" fill="#caf1ff" fill-rule="evenodd" stroke="none"/>
    <path d="M19.4 4.05 L19.4 4.45 19.15 4.55 19.15 4.2 19.4 4.05" fill="#ebffff" fill-rule="evenodd" stroke="none"/>
    <path d="M10.4 3.75 L11.35 7.15 10.35 7.3 10.1 6.4 9.7 3.85 10.4 3.75" fill="#ff91a6" fill-rule="evenodd" stroke="none"/>
    <path d="M11.35 7.15 L12.3 10.7 11.45 10.8 10.8 9.2 10.35 7.3 11.35 7.15" fill="#ff8da2" fill-rule="evenodd" stroke="none"/>
    <path d="M-13.65 5.5 L-14.0 5.15 -12.85 5.4 -13.65 5.5 M12.65 13.6 L12.3 12.2 12.7 12.1 15.15 11.7 15.4 13.15 12.65 13.6" fill="#ff7b8e" fill-rule="evenodd" stroke="none"/>
    <path d="M11.45 12.85 L11.45 12.9 11.4 12.9 11.45 12.85" fill="#ff8296" fill-rule="evenodd" stroke="none"/>
    <path d="M15.7 14.55 L12.95 15.05 12.95 14.75 12.65 13.6 15.4 13.15 15.8 14.55 15.7 14.55 M0.25 8.1 L1.15 6.75 2.75 6.5 3.05 10.05 0.2 10.5 0.3 8.25 0.25 8.1" fill="#ff798c" fill-rule="evenodd" stroke="none"/>
    <path d="M3.3 0.45 L3.35 0.5 3.3 0.5 3.3 0.45" fill="#ff8da1" fill-rule="evenodd" stroke="none"/>
    <path d="M0.2 8.1 L-0.5 8.1 -0.5 7.3 0.15 7.3 0.2 8.1" fill="#9fc7ff" fill-rule="evenodd" stroke="none"/>
    <path d="M1.15 6.75 L1.75 5.55 2.7 5.4 2.75 6.5 1.15 6.75" fill="#ff7d90" fill-rule="evenodd" stroke="none"/>
    <path d="M-17.8 -13.05 L-17.8 -13.0 -17.8 -13.05" fill="#e34451" fill-rule="evenodd" stroke="none"/>
    <path d="M-15.55 1.8 L-15.45 1.7 -12.45 -9.8 -11.45 -9.5 -10.75 -9.15 -14.05 2.75 -15.1 2.2 -15.5 1.95 -15.55 1.8" fill="#ff6c7e" fill-rule="evenodd" stroke="none"/>
    <path d="M-13.7 9.2 L-13.65 5.5 -12.85 5.4 -11.45 5.75 -11.15 8.8 -13.7 9.2" fill="#ff7b8d" fill-rule="evenodd" stroke="none"/>
    <path d="M-14.7 4.8 L-14.65 4.8 -14.65 4.85 -14.7 4.8" fill="#ff7284" fill-rule="evenodd" stroke="none"/>
  </g>
</svg>
