<?xml version="1.0" encoding="UTF-8" standalone="no"?>
<svg xmlns:xlink="http://www.w3.org/1999/xlink" height="47.95px" width="44.1px" xmlns="http://www.w3.org/2000/svg">
  <g transform="matrix(1.0, 0.0, 0.0, 1.0, 19.15, 24.65)">
    <path d="M-9.05 -18.25 L11.0 -20.8 12.7 -20.4 14.25 -19.9 4.25 -18.6 -6.5 -17.25 -9.05 -18.25 M12.75 -21.65 L-10.75 -18.7 -19.1 -22.05 2.55 -24.65 3.85 -24.4 12.75 -21.65 M-3.8 -18.2 L-3.75 -18.3 -3.9 -18.25 -3.8 -18.2" fill="#ff7f92" fill-rule="evenodd" stroke="none"/>
    <path d="M12.7 -20.4 L11.0 -20.8 -9.05 -18.25 -8.95 -16.45 -10.5 -17.05 -10.75 -18.7 12.75 -21.65 12.7 -20.4 M-9.35 -8.75 L-8.65 -10.3 -8.3 -4.35 -8.65 -4.35 -9.35 -8.75" fill="#ff8195" fill-rule="evenodd" stroke="none"/>
    <path d="M14.4 -19.65 L14.25 -19.55 14.25 -19.7 14.4 -19.65" fill="#ff5968" fill-rule="evenodd" stroke="none"/>
    <path d="M14.25 -19.55 L14.4 -19.65 15.95 -19.15 14.35 -17.85 14.25 -17.9 14.25 -19.55" fill="#ff5d6c" fill-rule="evenodd" stroke="none"/>
    <path d="M4.25 -18.6 L14.25 -19.9 14.25 -19.85 14.2 -19.75 9.9 -13.25 4.0 -12.45 -1.25 -14.85 5.6 -15.75 4.25 -18.6" fill="#ff92a8" fill-rule="evenodd" stroke="none"/>
    <path d="M14.25 -19.85 L14.25 -19.7 14.2 -19.75 14.25 -19.85" fill="#ff7c90" fill-rule="evenodd" stroke="none"/>
    <path d="M14.25 -19.7 L14.25 -19.55 14.25 -17.9 14.35 -11.1 14.35 -4.85 12.3 -0.35 11.65 1.05 9.9 -13.25 14.2 -19.75 14.25 -19.7 M10.35 6.9 L10.65 5.35 11.0 5.3 10.85 6.85 10.35 6.9 M11.95 -7.05 Q11.6 -6.0 12.2 -5.3 12.8 -6.2 11.95 -7.05 M3.75 6.45 L4.65 6.3 5.25 8.1 3.2 8.45 3.75 6.45 M2.05 6.75 L1.55 8.75 0.35 8.95 -1.05 9.15 -4.15 9.7 -4.3 9.35 -6.65 9.75 -7.05 6.9 -5.3 7.9 -5.2 7.95 2.05 6.75 M-8.3 -4.35 L-8.15 -0.9 -8.65 -4.35 -8.3 -4.35 M-6.6 9.95 L-6.6 10.05 -6.65 9.95 -6.6 9.95" fill="#ff7082" fill-rule="evenodd" stroke="none"/>
    <path d="M-9.05 -18.25 L-6.5 -17.25 -1.25 -14.85 4.0 -12.45 5.8 1.7 5.8 2.15 7.45 12.4 8.2 14.75 Q8.0 14.7 9.25 17.3 L9.65 18.05 Q11.05 20.6 12.6 20.15 L14.95 19.7 15.35 19.65 12.9 20.15 13.1 21.6 13.35 23.1 Q11.05 24.1 8.75 19.45 7.75 18.1 6.35 13.45 L5.25 8.1 4.65 6.3 3.75 6.45 4.0 5.45 4.3 4.1 4.05 3.1 3.95 2.9 2.75 2.5 2.05 6.75 -5.2 7.95 -5.3 7.9 -7.05 6.9 -6.65 9.75 -6.6 9.95 -6.65 9.95 -6.6 10.05 -6.2 13.4 -5.8 17.25 -2.65 16.7 -3.9 17.2 -7.15 17.8 -7.25 17.45 -7.65 10.0 -7.1 9.8 -11.5 7.05 -14.15 5.4 -13.9 5.7 -13.95 9.25 -14.0 12.8 -15.35 11.3 -14.9 4.8 -14.95 4.75 -15.0 4.3 -15.0 4.2 -11.25 -4.45 -9.35 -8.75 -8.65 -4.35 -8.15 -0.9 -8.3 -4.35 -8.65 -10.3 -6.5 -15.35 -8.3 -16.15 -12.85 -5.35 -17.4 5.35 -19.15 -9.65 -19.15 -9.85 -17.45 -11.35 -19.1 -22.05 -10.75 -18.7 -10.5 -17.05 -8.95 -16.45 -9.05 -18.25 M14.25 -17.9 L14.35 -17.85 19.1 -9.1 23.75 -0.45 14.35 -11.1 14.25 -17.9 M11.2 14.5 L11.15 14.25 12.45 14.05 11.2 14.5 M10.65 5.35 L10.8 4.75 11.2 5.25 11.0 5.3 10.65 5.35 M1.4 -5.3 L0.9 -5.65 0.6 -5.65 0.2 -5.45 -0.15 -4.8 Q-0.4 -3.75 0.65 -3.35 1.55 -3.2 1.6 -4.8 L1.4 -5.3 M13.3 4.9 L13.05 4.55 14.45 4.7 13.3 4.9 M4.0 5.45 L4.05 5.45 4.0 5.45 M0.25 10.4 L-1.05 9.15 0.35 8.95 0.25 10.4 M-17.45 -11.35 L-17.4 -11.35 -17.45 -11.35" fill="#bf313d" fill-rule="evenodd" stroke="none"/>
    <path d="M14.35 -17.85 L15.95 -19.15 20.45 -10.45 19.65 -9.8 19.1 -9.1 14.35 -17.85" fill="#ff7e91" fill-rule="evenodd" stroke="none"/>
    <path d="M-6.5 -17.25 L4.25 -18.6 5.6 -15.75 -1.25 -14.85 -6.5 -17.25" fill="#ff8ca1" fill-rule="evenodd" stroke="none"/>
    <path d="M9.9 -13.25 L11.65 1.05 11.4 2.2 11.15 3.2 10.8 4.75 10.65 5.35 10.35 6.9 10.25 7.35 10.45 10.55 10.55 11.5 11.15 14.25 11.2 14.5 Q12.4 19.35 14.95 19.7 L12.6 20.15 Q11.05 20.6 9.65 18.05 L9.25 17.3 Q8.0 14.7 8.2 14.75 L7.45 12.4 5.8 2.15 5.8 1.7 4.0 -12.45 9.9 -13.25" fill="#ff899d" fill-rule="evenodd" stroke="none"/>
    <path d="M1.4 -5.3 L1.6 -4.8 Q1.55 -3.2 0.65 -3.35 -0.4 -3.75 -0.15 -4.8 L0.2 -5.45 0.6 -5.65 0.9 -5.65 1.4 -5.3 M11.95 -7.05 Q12.8 -6.2 12.2 -5.3 11.6 -6.0 11.95 -7.05" fill="#000000" fill-rule="evenodd" stroke="none"/>
    <path d="M12.3 -0.35 L14.35 -4.85 14.4 -0.2 12.3 -0.35" fill="#ff6575" fill-rule="evenodd" stroke="none"/>
    <path d="M11.65 1.05 L12.3 -0.35 14.4 -0.2 14.45 4.7 13.05 4.55 11.4 2.2 11.65 1.05" fill="#fb5160" fill-rule="evenodd" stroke="none"/>
    <path d="M19.1 -9.1 L19.65 -9.8 20.45 -10.45 24.95 -1.7 23.9 -0.35 23.85 -0.3 23.75 -0.45 19.1 -9.1 M13.1 21.6 L12.9 20.15 15.35 19.65 15.45 19.65 15.5 19.65 15.75 19.65 15.9 21.1 13.1 21.6" fill="#ff6d7f" fill-rule="evenodd" stroke="none"/>
    <path d="M-3.8 -18.2 L-3.9 -18.25 -3.75 -18.3 -3.8 -18.2" fill="#ff697a" fill-rule="evenodd" stroke="none"/>
    <path d="M-12.85 -5.35 L-8.3 -16.15 -6.5 -15.35 -8.65 -10.3 -9.35 -8.75 -11.25 -4.45 -12.05 -5.0 -12.85 -5.35" fill="#ff7284" fill-rule="evenodd" stroke="none"/>
    <path d="M-17.45 -11.35 L-17.4 -11.35 -17.45 -11.35" fill="#c63541" fill-rule="evenodd" stroke="none"/>
    <path d="M-15.05 4.3 L-16.0 6.45 Q-17.65 5.35 -17.4 5.35 L-12.85 -5.35 -12.05 -5.0 -11.25 -4.45 -15.0 4.2 -15.05 4.3" fill="#ff6374" fill-rule="evenodd" stroke="none"/>
    <path d="M-4.15 9.7 L-3.45 12.95 -6.2 13.4 -6.6 10.05 -6.6 9.95 -6.65 9.75 -4.3 9.35 -4.15 9.7" fill="#ff859a" fill-rule="evenodd" stroke="none"/>
    <path d="M-15.0 4.3 L-15.05 4.3 -15.0 4.2 -15.0 4.3" fill="#ff7f93" fill-rule="evenodd" stroke="none"/>
    <path d="M-11.5 7.05 L-11.3 8.85 -13.95 9.25 -13.9 5.7 -14.15 5.4 -11.5 7.05" fill="#ff7b8e" fill-rule="evenodd" stroke="none"/>
    <path d="M-11.3 8.85 L-10.95 12.35 -14.0 12.8 -13.95 9.25 -11.3 8.85" fill="#ff7789" fill-rule="evenodd" stroke="none"/>
    <path d="M-3.45 12.95 L-2.55 16.65 -2.65 16.7 -5.8 17.25 -6.2 13.4 -3.45 12.95" fill="#ff8295" fill-rule="evenodd" stroke="none"/>
    <path d="M-0.1 13.4 L0.6 13.5 0.6 13.85 -0.1 13.8 -0.1 13.4" fill="#9fc7ff" fill-rule="evenodd" stroke="none"/>
    <path d="M11.15 3.2 L11.4 2.2 13.05 4.55 13.3 4.9 15.0 6.7 16.05 7.65 18.55 9.2 20.25 9.9 20.2 9.95 19.95 10.15 17.85 9.3 14.6 7.1 13.05 5.6 11.15 3.2 M19.85 10.9 L19.9 10.45 20.15 10.35 20.15 10.7 19.85 10.9 M4.0 5.45 L3.75 6.45 3.2 8.45 3.1 8.95 2.65 10.05 2.05 11.75 0.6 14.2 -0.05 14.2 -0.1 13.8 0.6 13.85 0.6 13.5 -0.1 13.4 0.6 11.95 1.1 10.35 1.2 10.15 1.55 8.75 2.05 6.75 2.75 2.5 3.95 2.9 4.05 3.1 4.3 4.1 4.0 5.45" fill="#ffffff" fill-rule="evenodd" stroke="none"/>
    <path d="M10.8 4.75 L11.15 3.2 13.05 5.6 14.6 7.1 14.35 7.5 Q15.8 8.35 15.7 9.1 L13.65 7.7 11.2 5.25 10.8 4.75" fill="#bbe2ff" fill-rule="evenodd" stroke="none"/>
    <path d="M10.45 10.55 L10.25 7.35 10.35 6.9 10.85 6.85 11.65 10.35 10.45 10.55" fill="#ff8a9e" fill-rule="evenodd" stroke="none"/>
    <path d="M14.6 7.1 L17.85 9.3 19.95 10.15 19.9 10.45 19.85 10.9 17.65 10.15 15.7 9.1 Q15.8 8.35 14.35 7.5 L14.6 7.1" fill="#bde4ff" fill-rule="evenodd" stroke="none"/>
    <path d="M11.15 14.25 L10.55 11.5 10.45 10.55 11.65 10.35 12.5 14.0 12.45 14.05 11.15 14.25" fill="#ff8599" fill-rule="evenodd" stroke="none"/>
    <path d="M19.95 10.15 L20.2 9.95 20.15 10.35 19.9 10.45 19.95 10.15" fill="#d7feff" fill-rule="evenodd" stroke="none"/>
    <path d="M4.0 5.45 L4.05 5.45 4.0 5.45" fill="#ff8a9f" fill-rule="evenodd" stroke="none"/>
    <path d="M1.55 8.75 L1.2 10.15 1.1 10.35 0.35 10.45 0.25 10.4 0.35 8.95 1.55 8.75 M2.65 10.05 L3.1 8.95 3.2 9.95 2.65 10.05" fill="#ff798c" fill-rule="evenodd" stroke="none"/>
    <path d="M13.35 23.1 L13.1 21.6 15.9 21.1 Q16.35 23.0 16.0 22.6 L13.35 23.1" fill="#ff6c7d" fill-rule="evenodd" stroke="none"/>
  </g>
</svg>
