<?xml version="1.0" encoding="UTF-8" standalone="no"?>
<svg xmlns:xlink="http://www.w3.org/1999/xlink" height="52.15px" width="45.1px" xmlns="http://www.w3.org/2000/svg">
  <g transform="matrix(1.0, 0.0, 0.0, 1.0, 19.15, 22.8)">
    <path d="M-10.0 -12.1 L-10.35 -12.2 -8.85 -11.15 -7.6 -10.2 -12.35 0.05 -17.05 10.15 -19.05 -6.3 -19.05 -6.5 -17.4 -7.55 -17.4 -7.6 -19.15 -19.95 -10.15 -13.55 -10.0 -12.1 M-7.2 -10.65 L-8.4 -11.55 -8.45 -13.05 -5.7 -11.2 -5.7 -11.15 5.2 -6.0 5.9 0.95 -0.25 -1.55 -5.35 -4.05 -5.6 -4.1 -5.25 12.15 -7.05 10.55 -6.8 12.9 -6.55 16.55 -6.4 20.25 -8.0 19.55 -7.9 12.4 -7.4 12.55 -7.6 12.35 -11.8 8.45 -11.9 8.45 -12.05 8.25 -13.6 6.9 -10.65 0.75 -8.85 -3.0 -8.45 -0.2 -8.05 2.55 -8.1 -0.25 -8.2 -4.3 -5.7 -9.5 -5.7 -9.6 -5.8 -9.65 -7.2 -10.65 M24.6 3.85 L15.9 -7.15 15.85 -7.2 15.85 -7.25 16.0 -12.4 20.35 -4.2 24.6 3.85 M15.45 8.65 L13.7 8.95 13.5 8.75 15.45 8.65 M14.2 29.35 Q11.7 29.3 9.5 24.6 L8.3 22.0 6.95 17.95 5.9 12.6 5.35 11.05 5.25 10.75 4.9 10.45 4.75 10.45 4.9 9.8 5.05 9.3 6.7 8.0 6.8 8.25 7.95 16.3 9.1 20.45 10.0 22.6 Q10.95 24.55 11.15 24.55 11.8 25.65 12.65 26.15 L13.8 26.5 14.2 29.35 M2.9 10.8 L-4.9 12.1 3.0 10.25 2.9 10.8 M-14.7 12.75 L-16.1 11.25 -16.05 10.8 -15.7 11.0 -15.55 11.0 -14.6 9.05 -14.6 9.35 -14.7 12.75" fill="#bf313d" fill-rule="evenodd" stroke="none"/>
    <path d="M-8.85 -11.15 L-10.35 -12.2 -10.0 -12.1 -8.4 -11.55 -7.2 -10.65 -8.85 -11.15" fill="#ff7e91" fill-rule="evenodd" stroke="none"/>
    <path d="M-10.0 -12.1 L-10.15 -13.55 14.4 -16.75 14.3 -15.4 14.2 -15.2 12.85 -15.95 -8.25 -13.15 -8.45 -13.05 -8.4 -11.55 -10.0 -12.1 M-8.2 -4.3 L-8.1 -0.25 -8.45 -0.2 -8.85 -3.0 -8.2 -4.3" fill="#ff798b" fill-rule="evenodd" stroke="none"/>
    <path d="M-7.6 -10.2 L-8.85 -11.15 -7.2 -10.65 -5.8 -9.65 -7.6 -10.2" fill="#ff8397" fill-rule="evenodd" stroke="none"/>
    <path d="M-12.35 0.05 L-7.6 -10.2 -5.8 -9.65 -5.7 -9.6 -5.7 -9.5 -8.2 -4.3 -8.85 -3.0 -10.65 0.75 -11.25 0.35 -12.35 0.05" fill="#ff6778" fill-rule="evenodd" stroke="none"/>
    <path d="M-10.15 -13.55 L-19.15 -19.95 3.85 -22.8 14.4 -16.75 -10.15 -13.55 M-5.7 -11.2 L-8.45 -13.05 -8.25 -13.15 12.85 -15.95 14.2 -15.2 14.25 -15.1 14.35 -15.1 15.75 -14.3 15.95 -14.15 5.55 -12.7 -5.7 -11.2 M-2.95 -12.7 L-2.9 -12.75 -3.0 -12.7 -2.95 -12.7 M11.8 10.55 L11.9 10.7 12.3 13.3 11.3 13.45 11.25 12.6 11.8 10.55" fill="#ff7f92" fill-rule="evenodd" stroke="none"/>
    <path d="M-2.95 -12.7 L-3.0 -12.7 -2.9 -12.75 -2.95 -12.7" fill="#ff798c" fill-rule="evenodd" stroke="none"/>
    <path d="M5.2 -6.0 L-5.7 -11.15 -5.7 -11.2 5.55 -12.7 8.25 -6.45 5.2 -6.0" fill="#ff90a5" fill-rule="evenodd" stroke="none"/>
    <path d="M14.2 -15.2 L14.3 -15.4 14.55 -15.45 16.1 -14.55 15.75 -14.3 14.35 -15.1 14.2 -15.2" fill="#ff6a7b" fill-rule="evenodd" stroke="none"/>
    <path d="M14.35 -15.1 L14.25 -15.1 14.2 -15.2 14.35 -15.1" fill="#ff7285" fill-rule="evenodd" stroke="none"/>
    <path d="M16.1 -14.55 L17.7 -13.6 16.0 -12.45 15.95 -14.05 15.95 -14.15 15.75 -14.3 16.1 -14.55" fill="#ff6f81" fill-rule="evenodd" stroke="none"/>
    <path d="M15.95 -14.05 L11.35 -6.9 8.25 -6.45 5.55 -12.7 15.95 -14.15 15.95 -14.05" fill="#ff96ab" fill-rule="evenodd" stroke="none"/>
    <path d="M17.7 -13.6 L21.85 -5.4 21.15 -4.9 20.35 -4.2 16.0 -12.4 16.0 -12.45 17.7 -13.6" fill="#ff7183" fill-rule="evenodd" stroke="none"/>
    <path d="M16.0 -12.45 L16.0 -12.4 15.85 -7.25 15.85 -7.2 13.55 -3.65 12.15 -0.15 11.35 -6.9 15.95 -14.05 16.0 -12.45" fill="#ff7487" fill-rule="evenodd" stroke="none"/>
    <path d="M21.85 -5.4 L25.95 2.7 Q24.3 4.8 24.6 3.85 L20.35 -4.2 21.15 -4.9 21.85 -5.4" fill="#ff6374" fill-rule="evenodd" stroke="none"/>
    <path d="M15.85 -7.2 L15.9 -7.15 15.85 -7.2" fill="#ff5a69" fill-rule="evenodd" stroke="none"/>
    <path d="M15.9 -7.15 L15.75 -0.15 13.95 4.2 12.9 6.8 12.15 0.05 12.15 -0.15 13.55 -3.65 15.85 -7.2 15.9 -7.15 M13.35 -1.45 Q12.95 -0.6 13.5 0.25 14.2 -0.75 13.35 -1.45" fill="#ff7082" fill-rule="evenodd" stroke="none"/>
    <path d="M13.35 -1.45 Q14.2 -0.75 13.5 0.25 12.95 -0.6 13.35 -1.45 M1.35 2.3 L0.85 2.0 0.7 1.7 Q0.2 0.25 1.65 0.15 2.8 0.7 2.35 1.7 L2.2 2.1 1.9 2.3 1.35 2.3" fill="#000000" fill-rule="evenodd" stroke="none"/>
    <path d="M5.9 0.95 L5.2 -6.0 8.25 -6.45 11.35 -6.9 12.15 -0.15 12.15 0.05 5.95 1.0 5.9 0.95 M11.55 17.1 Q13.1 25.6 16.75 25.9 L13.8 26.5 12.65 26.15 Q11.8 25.65 11.15 24.55 10.95 24.55 10.0 22.6 L9.1 20.45 7.95 16.3 9.6 16.05 9.35 13.95 11.3 13.65 11.3 14.75 11.55 17.1" fill="#ff8b9f" fill-rule="evenodd" stroke="none"/>
    <path d="M15.75 4.1 L15.65 8.6 15.55 8.65 15.45 8.65 13.5 8.75 12.7 7.6 12.9 6.8 13.95 4.2 15.75 4.1" fill="#e54452" fill-rule="evenodd" stroke="none"/>
    <path d="M13.7 8.95 Q16.3 12.8 21.65 15.45 L21.4 15.65 19.45 14.75 17.85 13.85 16.6 13.0 13.95 10.5 12.4 8.55 12.7 7.6 13.5 8.75 13.7 8.95 M21.6 15.75 L21.6 16.05 Q21.45 16.2 21.25 16.3 L21.4 15.95 21.6 15.75 M1.0 19.95 L0.85 20.0 0.25 19.9 0.25 19.6 1.0 19.7 1.0 19.95 M0.25 19.25 L1.85 15.05 2.7 11.5 2.9 10.8 3.0 10.25 3.45 7.8 3.55 7.8 4.6 8.25 4.85 8.4 4.1 11.25 4.0 11.5 2.6 15.85 1.0 19.35 0.25 19.25" fill="#ffffff" fill-rule="evenodd" stroke="none"/>
    <path d="M11.95 10.0 L11.8 10.55 11.25 12.6 11.3 13.45 11.3 13.65 9.35 13.95 9.6 16.05 7.95 16.3 6.8 8.25 6.7 8.0 5.95 1.0 12.15 0.05 12.9 6.8 12.7 7.6 12.4 8.55 11.95 10.0" fill="#ff899d" fill-rule="evenodd" stroke="none"/>
    <path d="M12.3 13.3 L12.95 16.85 11.55 17.1 11.3 14.75 11.3 13.65 11.3 13.45 12.3 13.3" fill="#ff7a8d" fill-rule="evenodd" stroke="none"/>
    <path d="M21.25 16.3 L18.95 15.45 16.95 14.3 16.6 13.0 17.85 13.85 19.45 14.75 21.4 15.65 21.4 15.95 21.25 16.3" fill="#afd6ff" fill-rule="evenodd" stroke="none"/>
    <path d="M16.95 14.3 L14.9 12.85 11.95 10.0 12.4 8.55 13.95 10.5 16.6 13.0 16.95 14.3" fill="#add4ff" fill-rule="evenodd" stroke="none"/>
    <path d="M-17.05 10.15 L-12.35 0.05 -11.25 0.35 -10.65 0.75 -13.6 6.9 -14.6 9.05 -15.55 11.0 -15.7 11.0 -16.05 10.8 -17.0 10.25 -17.05 10.15 M15.75 -0.15 L15.75 4.1 13.95 4.2 15.75 -0.15" fill="#ff5b6a" fill-rule="evenodd" stroke="none"/>
    <path d="M-5.25 12.15 L-5.6 -4.1 -5.35 -4.05 -0.25 -1.55 5.9 0.95 5.95 1.0 6.7 8.0 5.05 9.3 4.85 8.4 4.6 8.25 3.55 7.8 3.45 7.8 3.0 10.25 -4.9 12.1 -4.95 12.1 -5.05 12.15 -5.15 12.15 -5.2 12.15 -5.25 12.15 M1.35 2.3 L1.9 2.3 2.2 2.1 2.35 1.7 Q2.8 0.7 1.65 0.15 0.2 0.25 0.7 1.7 L0.85 2.0 1.35 2.3" fill="#c1323e" fill-rule="evenodd" stroke="none"/>
    <path d="M-8.1 -0.25 L-8.05 2.55 -8.45 -0.2 -8.1 -0.25 M-6.8 12.9 L-7.05 10.55 -5.25 12.15 -5.2 12.15 -5.15 12.15 -5.05 12.15 -4.95 12.1 -4.9 12.1 2.9 10.8 2.7 11.5 -4.25 12.65 -4.3 12.5 -6.8 12.9 M5.35 11.05 L4.55 11.2 4.75 10.45 4.9 10.45 5.25 10.75 5.35 11.05" fill="#ff697a" fill-rule="evenodd" stroke="none"/>
    <path d="M-7.6 12.35 L-7.4 12.55 -7.9 12.4 -7.6 12.35" fill="#ff7486" fill-rule="evenodd" stroke="none"/>
    <path d="M-13.6 6.9 L-12.05 8.25 -11.9 8.45 -11.85 8.95 -14.6 9.35 -14.6 9.05 -13.6 6.9 M-6.55 16.55 L-6.8 12.9 -4.3 12.5 -4.25 12.65 -3.6 16.05 -6.55 16.55" fill="#ff7b8e" fill-rule="evenodd" stroke="none"/>
    <path d="M5.05 9.3 L4.9 9.8 4.65 9.95 4.4 10.95 4.2 11.25 4.1 11.25 4.85 8.4 5.05 9.3" fill="#fdffff" fill-rule="evenodd" stroke="none"/>
    <path d="M4.55 11.2 Q3.35 16.05 1.0 19.95 L1.0 19.7 1.0 19.35 2.6 15.85 4.0 11.5 4.1 11.25 4.2 11.25 4.4 10.95 4.65 9.95 4.9 9.8 4.75 10.45 4.55 11.2" fill="#faffff" fill-rule="evenodd" stroke="none"/>
    <path d="M0.25 19.6 L0.25 19.25 1.0 19.35 1.0 19.7 0.25 19.6" fill="#9fc7ff" fill-rule="evenodd" stroke="none"/>
    <path d="M-6.4 20.25 L-6.55 16.55 -3.6 16.05 -2.95 19.7 -6.4 20.25" fill="#ff7789" fill-rule="evenodd" stroke="none"/>
    <path d="M21.65 15.45 L21.6 15.75 21.4 15.95 21.4 15.65 21.65 15.45" fill="#c0e8ff" fill-rule="evenodd" stroke="none"/>
    <path d="M16.75 25.9 L17.2 28.8 14.2 29.35 13.8 26.5 16.75 25.9" fill="#ff6677" fill-rule="evenodd" stroke="none"/>
    <path d="M-11.85 8.95 L-11.45 12.25 -14.6 12.8 -14.7 12.75 -14.6 9.35 -11.85 8.95" fill="#ff788a" fill-rule="evenodd" stroke="none"/>
  </g>
</svg>
