<?xml version="1.0" encoding="UTF-8" standalone="no"?>
<svg xmlns:xlink="http://www.w3.org/1999/xlink" height="53.55px" width="45.3px" xmlns="http://www.w3.org/2000/svg">
  <g transform="matrix(1.0, 0.0, 0.0, 1.0, 19.6, 20.9)">
    <path d="M15.6 -12.4 L15.8 -12.45 17.45 -11.3 16.65 -10.85 15.05 -12.0 15.55 -12.25 15.6 -12.4" fill="#ff7789" fill-rule="evenodd" stroke="none"/>
    <path d="M-19.6 -17.85 L4.55 -20.9 15.7 -13.45 15.6 -12.4 15.55 -12.25 15.05 -12.0 16.65 -10.85 17.35 -10.35 6.4 -8.8 -5.45 -7.15 -8.3 -9.45 -8.3 -9.55 -8.35 -9.55 -8.3 -9.45 -8.3 -8.5 -10.0 -8.8 -10.1 -9.9 -19.6 -17.85" fill="#ff7f92" fill-rule="evenodd" stroke="none"/>
    <path d="M17.45 -11.3 L19.2 -10.1 17.35 -9.25 17.3 -10.25 17.35 -10.35 16.65 -10.85 17.45 -11.3" fill="#ff7d90" fill-rule="evenodd" stroke="none"/>
    <path d="M17.35 -10.35 L17.3 -10.25 12.5 -2.9 9.25 -2.4 6.4 -8.8 17.35 -10.35" fill="#ff96ac" fill-rule="evenodd" stroke="none"/>
    <path d="M24.15 7.0 L17.25 -2.8 17.2 -3.9 17.35 -9.05 20.8 -1.0 24.15 7.0 M15.35 32.65 Q13.05 32.2 10.75 27.95 L9.0 24.4 7.65 20.4 6.55 15.2 5.9 13.6 5.45 13.2 5.7 12.3 5.45 11.55 5.45 11.5 4.05 10.9 3.55 12.95 3.55 13.0 1.45 13.35 1.4 13.35 1.25 13.4 1.1 13.45 0.95 13.45 0.85 13.45 0.75 13.5 0.7 13.5 0.6 13.55 -3.8 14.35 -3.95 14.4 -4.1 14.4 -4.15 14.4 -4.3 14.45 -4.35 14.45 -4.45 14.5 -4.55 14.5 -4.65 14.5 -5.3 14.55 -5.45 14.5 -7.25 12.65 -7.05 14.75 -7.0 14.8 -7.0 18.2 -7.0 21.3 -7.05 21.65 -8.8 20.0 -8.3 13.65 -8.1 13.7 -8.2 13.6 -12.15 9.55 -9.75 3.9 -8.8 1.7 -8.7 1.6 -8.65 1.7 -8.55 2.45 -8.2 4.85 -8.2 2.45 -8.25 0.55 -5.5 -5.75 -5.4 -6.05 -5.5 -6.1 -6.95 -7.3 -8.3 -8.5 -8.3 -9.45 -5.45 -7.15 -5.45 -7.1 6.0 -1.9 6.8 4.75 7.5 11.45 7.55 11.5 8.35 17.2 8.9 20.05 9.9 23.25 11.7 26.95 12.35 27.8 13.65 29.25 14.95 29.9 15.35 32.65 M-15.7 13.3 L-15.95 12.1 -16.95 11.05 -16.9 11.0 -16.65 8.25 -18.9 -3.9 -17.75 -4.55 -17.75 -4.6 -19.6 -17.85 -10.1 -9.9 -10.0 -8.8 -10.35 -8.85 -8.9 -7.6 -7.45 -6.35 -11.55 3.5 -15.7 13.3 M3.05 5.0 Q3.1 4.0 2.15 3.75 1.05 3.6 1.05 5.0 2.2 6.7 3.05 5.0" fill="#bf313d" fill-rule="evenodd" stroke="none"/>
    <path d="M-12.15 9.55 L-12.3 9.9 -13.35 12.4 -14.05 13.9 -15.6 13.4 -15.7 13.3 -11.55 3.5 -10.6 3.8 -9.75 3.9 -12.15 9.55" fill="#ff5665" fill-rule="evenodd" stroke="none"/>
    <path d="M-12.3 9.9 L-12.0 12.15 -13.35 12.4 -12.3 9.9" fill="#ff798b" fill-rule="evenodd" stroke="none"/>
    <path d="M19.2 -10.1 L22.45 -1.95 21.85 -1.5 20.8 -1.0 17.35 -9.05 17.35 -9.25 19.2 -10.1" fill="#ff6a7b" fill-rule="evenodd" stroke="none"/>
    <path d="M22.45 -1.95 L25.7 6.2 Q23.8 7.85 24.15 7.0 L20.8 -1.0 21.85 -1.5 22.45 -1.95" fill="#ff5d6c" fill-rule="evenodd" stroke="none"/>
    <path d="M17.25 -2.8 L17.1 2.6 15.4 6.85 14.05 10.2 13.3 3.7 13.3 3.55 12.5 -2.9 17.3 -10.25 17.35 -9.25 17.35 -9.05 17.2 -3.9 17.25 -2.8 M-4.35 14.5 L-3.85 17.65 -7.0 18.2 -7.0 14.8 -6.95 14.75 -5.45 14.5 -5.3 14.55 -4.65 14.5 -4.55 14.5 -4.45 14.5 -4.35 14.5 M14.6 1.95 Q14.15 3.05 14.75 3.6 15.5 2.6 14.6 1.95" fill="#ff7082" fill-rule="evenodd" stroke="none"/>
    <path d="M17.1 2.6 L17.05 6.6 15.4 6.85 17.1 2.6" fill="#ff5463" fill-rule="evenodd" stroke="none"/>
    <path d="M17.05 6.6 L16.95 10.75 16.35 10.85 16.3 10.9 16.2 10.9 16.05 10.95 14.3 11.15 13.95 10.7 14.05 10.2 15.4 6.85 17.05 6.6" fill="#d33c48" fill-rule="evenodd" stroke="none"/>
    <path d="M12.35 18.15 Q12.25 18.7 13.1 22.55 L13.95 24.95 Q15.85 28.75 18.1 29.25 L14.95 29.9 13.65 29.25 12.35 27.8 11.7 26.95 9.9 23.25 8.9 20.05 8.35 17.2 12.25 16.5 12.3 18.05 12.35 18.15 M12.5 -2.9 L13.3 3.55 13.3 3.7 6.8 4.75 6.0 -1.9 9.25 -2.4 12.5 -2.9" fill="#ff899e" fill-rule="evenodd" stroke="none"/>
    <path d="M13.1 12.9 L12.9 13.6 12.5 14.75 12.25 15.45 12.25 16.5 8.35 17.2 7.55 11.5 7.5 11.45 6.8 4.75 13.3 3.7 14.05 10.2 13.95 10.7 13.55 11.65 13.1 12.9" fill="#ff899d" fill-rule="evenodd" stroke="none"/>
    <path d="M14.35 11.2 Q17.0 15.25 23.35 18.35 L23.05 18.6 20.7 17.6 17.95 15.85 15.95 14.25 13.55 11.65 13.95 10.7 14.3 11.15 14.35 11.2 M23.3 18.65 L23.2 19.0 22.95 19.2 23.05 18.9 23.3 18.65 M1.25 23.25 L0.5 23.1 0.5 22.85 1.25 22.95 1.25 23.25 M0.5 22.55 Q2.8 17.35 3.55 13.1 L3.55 13.0 3.55 12.95 4.05 10.9 5.45 11.5 5.45 11.55 4.25 15.7 3.1 18.9 1.25 22.65 0.5 22.55" fill="#ffffff" fill-rule="evenodd" stroke="none"/>
    <path d="M16.05 10.95 L14.35 11.2 14.3 11.15 16.05 10.95 M3.55 13.1 L-3.8 14.35 0.6 13.55 0.7 13.5 0.75 13.5 0.85 13.45 0.95 13.45 1.1 13.45 1.25 13.4 1.4 13.35 1.45 13.35 3.55 13.0 3.55 13.1 M-4.35 14.45 L-4.35 14.5 -4.45 14.5 -4.35 14.45" fill="#ff7e91" fill-rule="evenodd" stroke="none"/>
    <path d="M13.05 14.65 L13.45 17.9 13.35 18.0 12.35 18.15 12.3 18.05 12.25 16.5 12.25 15.45 12.5 14.75 13.05 14.65" fill="#ff6f81" fill-rule="evenodd" stroke="none"/>
    <path d="M12.9 13.6 L13.05 14.65 12.5 14.75 12.9 13.6 M-8.25 0.55 L-8.2 2.45 -8.55 2.45 -8.65 1.7 -8.7 1.6 -8.25 0.55" fill="#ff7385" fill-rule="evenodd" stroke="none"/>
    <path d="M17.45 16.55 L15.4 15.1 13.1 12.9 13.55 11.65 15.95 14.25 17.95 15.85 17.45 16.55" fill="#a4cbff" fill-rule="evenodd" stroke="none"/>
    <path d="M14.6 1.95 Q15.5 2.6 14.75 3.6 14.15 3.05 14.6 1.95 M3.05 5.0 Q2.2 6.7 1.05 5.0 1.05 3.6 2.15 3.75 3.1 4.0 3.05 5.0" fill="#000000" fill-rule="evenodd" stroke="none"/>
    <path d="M6.4 -8.8 L9.25 -2.4 6.0 -1.9 -5.45 -7.1 -5.45 -7.15 6.4 -8.8" fill="#ff91a6" fill-rule="evenodd" stroke="none"/>
    <path d="M-6.95 -7.3 L-5.5 -6.1 -7.45 -6.35 -8.9 -7.6 -6.95 -7.3" fill="#ff8599" fill-rule="evenodd" stroke="none"/>
    <path d="M-5.5 -6.1 L-5.4 -6.05 -5.5 -6.1" fill="#e14350" fill-rule="evenodd" stroke="none"/>
    <path d="M-5.4 -6.05 L-5.5 -5.75 -8.25 0.55 -8.7 1.6 -8.8 1.7 -9.75 3.9 -10.6 3.8 -11.55 3.5 -7.45 -6.35 -5.5 -6.1 -5.4 -6.05" fill="#ff6171" fill-rule="evenodd" stroke="none"/>
    <path d="M-8.3 -9.45 L-8.35 -9.55 -8.3 -9.55 -8.3 -9.45" fill="#ff788b" fill-rule="evenodd" stroke="none"/>
    <path d="M-8.3 -8.5 L-6.95 -7.3 -8.9 -7.6 -10.35 -8.85 -10.0 -8.8 -8.3 -8.5" fill="#ff8093" fill-rule="evenodd" stroke="none"/>
    <path d="M-8.2 2.45 L-8.2 4.85 -8.55 2.45 -8.2 2.45 M-5.45 14.5 L-6.95 14.75 -7.0 14.8 -7.05 14.75 -7.25 12.65 -5.45 14.5" fill="#ff6576" fill-rule="evenodd" stroke="none"/>
    <path d="M-8.3 13.65 L-8.2 13.6 -8.1 13.7 -8.3 13.65" fill="#ff8195" fill-rule="evenodd" stroke="none"/>
    <path d="M5.45 13.2 L4.85 15.1 4.55 15.5 4.25 15.7 5.45 11.55 5.7 12.3 5.45 13.2" fill="#f2ffff" fill-rule="evenodd" stroke="none"/>
    <path d="M4.85 15.1 Q3.5 19.8 1.25 23.25 L1.25 22.95 1.25 22.65 3.1 18.9 4.25 15.7 4.55 15.5 4.85 15.1" fill="#f0ffff" fill-rule="evenodd" stroke="none"/>
    <path d="M0.5 22.85 L0.5 22.55 1.25 22.65 1.25 22.95 0.5 22.85" fill="#9fc7ff" fill-rule="evenodd" stroke="none"/>
    <path d="M-3.85 17.65 L-3.4 21.05 -6.65 21.65 -7.05 21.65 -7.0 21.3 -7.0 18.2 -3.85 17.65" fill="#ff6c7d" fill-rule="evenodd" stroke="none"/>
    <path d="M23.35 18.35 L23.3 18.65 23.05 18.9 23.05 18.6 23.35 18.35" fill="#b0d8ff" fill-rule="evenodd" stroke="none"/>
    <path d="M22.95 19.2 Q21.05 18.8 17.45 16.55 L17.95 15.85 20.7 17.6 23.05 18.6 23.05 18.9 22.95 19.2" fill="#a6cdff" fill-rule="evenodd" stroke="none"/>
    <path d="M18.1 29.25 L18.55 32.05 15.35 32.65 14.95 29.9 18.1 29.25" fill="#ff6475" fill-rule="evenodd" stroke="none"/>
  </g>
</svg>
