<?xml version="1.0" encoding="UTF-8" standalone="no"?>
<svg xmlns:xlink="http://www.w3.org/1999/xlink" height="83.35px" width="246.65px" xmlns="http://www.w3.org/2000/svg">
  <g transform="matrix(1.0, 0.0, 0.0, 1.0, 123.35, 41.65)">
    <path d="M61.9 -9.2 Q72.8 -0.55 63.6 10.75 71.65 7.3 90.45 6.45 109.25 5.65 119.55 13.1 129.75 20.45 112.05 41.7 L56.95 41.7 -20.85 41.7 -90.3 41.7 -120.25 41.7 Q-121.15 40.45 -123.0 25.55 -124.85 10.65 -116.95 -2.2 -109.0 -15.15 -80.55 -10.5 -74.6 -22.75 -64.35 -31.8 -54.15 -40.9 -42.85 -41.65 -28.25 -41.55 -18.4 -31.3 -8.6 -21.0 -5.25 -7.65 11.75 -19.75 31.45 -18.75 51.1 -17.9 61.9 -9.2" fill="#e6f6f9" fill-rule="evenodd" stroke="none"/>
  </g>
</svg>
