<?xml version="1.0" encoding="UTF-8" standalone="no"?>
<svg xmlns:xlink="http://www.w3.org/1999/xlink" height="53.5px" width="44.1px" xmlns="http://www.w3.org/2000/svg">
  <g transform="matrix(1.0, 0.0, 0.0, 1.0, 19.95, 20.2)">
    <path d="M16.7 -10.15 L15.0 -11.3 16.05 -11.6 16.05 -11.75 16.35 -11.7 18.0 -10.55 16.7 -10.15 M-10.2 -8.0 L-8.45 -7.95 -7.0 -6.7 -9.1 -6.75 -10.6 -8.0 -10.2 -8.0 M-15.7 9.55 L-15.65 6.5 -15.45 6.6 -14.65 9.4 -15.7 9.55" fill="#ff7c8f" fill-rule="evenodd" stroke="none"/>
    <path d="M17.85 -9.35 L16.7 -10.15 18.0 -10.55 19.75 -9.35 17.85 -8.8 17.8 -9.25 17.85 -9.35" fill="#ff8296" fill-rule="evenodd" stroke="none"/>
    <path d="M15.0 -11.3 L15.0 -11.35 14.45 -11.7 -8.45 -8.5 -8.45 -8.45 -8.45 -7.95 -10.2 -8.0 -10.2 -8.1 -10.25 -8.8 16.1 -12.5 16.05 -11.75 16.05 -11.6 15.0 -11.3" fill="#ff7285" fill-rule="evenodd" stroke="none"/>
    <path d="M15.0 -11.3 L16.7 -10.15 17.85 -9.35 6.65 -7.75 -5.45 -6.0 -5.5 -6.0 -8.45 -8.45 -8.45 -8.5 14.45 -11.7 15.0 -11.35 15.0 -11.3 M-19.95 -17.0 L4.7 -20.2 16.1 -12.5 -10.25 -8.8 -19.95 -17.0 M3.7 13.6 L3.6 13.65 3.6 13.6 3.7 13.6 M3.55 13.65 L3.4 13.7 3.4 13.65 3.55 13.65 M3.35 13.7 L3.2 13.7 3.3 13.7 3.35 13.7 M-2.85 14.75 L-2.95 14.8 -2.95 14.75 -2.85 14.75" fill="#ff7f92" fill-rule="evenodd" stroke="none"/>
    <path d="M20.0 -0.05 L21.2 -0.45 21.8 -0.8 23.8 7.65 Q21.9 9.05 22.15 8.4 L22.1 8.25 20.0 -0.05" fill="#ff5b6b" fill-rule="evenodd" stroke="none"/>
    <path d="M21.8 -0.8 L21.2 -0.45 20.0 -0.05 17.95 -8.1 17.85 -8.2 17.85 -8.8 19.75 -9.35 21.8 -0.8" fill="#ff6879" fill-rule="evenodd" stroke="none"/>
    <path d="M6.65 -7.75 L17.85 -9.35 17.8 -9.25 12.95 -1.85 9.55 -1.35 6.65 -7.75" fill="#ff96ac" fill-rule="evenodd" stroke="none"/>
    <path d="M-8.45 -8.45 L-5.5 -6.0 -5.45 -6.0 6.25 -0.85 7.05 5.65 7.05 5.7 7.85 12.25 7.8 12.3 8.7 17.85 9.2 20.3 10.35 23.8 11.3 25.9 12.4 27.8 Q13.25 29.2 14.25 29.95 L15.55 30.6 15.8 31.95 15.95 33.3 Q12.9 32.15 10.9 28.0 L9.35 24.8 8.0 20.95 6.85 15.95 6.2 14.3 5.75 13.85 5.8 13.45 6.0 13.0 5.75 12.35 5.6 12.2 4.2 11.65 3.8 13.6 3.7 13.6 3.6 13.6 3.6 13.65 3.55 13.65 3.4 13.65 3.4 13.7 3.35 13.7 3.3 13.7 3.2 13.7 3.15 13.7 3.0 13.75 2.65 13.8 2.6 13.8 2.45 13.85 2.3 13.85 2.25 13.85 2.1 13.9 1.95 13.95 1.9 13.95 1.75 13.95 1.7 13.95 1.55 14.0 1.5 14.0 1.35 14.05 1.2 14.05 1.15 14.05 1.0 14.1 0.8 14.15 0.65 14.15 0.6 14.15 0.45 14.2 0.3 14.25 0.25 14.25 0.15 14.25 0.05 14.25 -0.05 14.3 -0.15 14.3 -0.25 14.3 -0.3 14.3 -0.4 14.35 -0.5 14.35 -0.6 14.4 -0.65 14.4 -0.8 14.4 -0.85 14.4 -0.95 14.45 -1.0 14.45 -1.15 14.5 -1.2 14.5 -1.35 14.5 -1.4 14.5 -1.5 14.55 -1.6 14.55 -1.7 14.55 -1.75 14.55 -1.9 14.6 -1.95 14.6 -2.05 14.65 -2.15 14.65 -2.2 14.65 -2.3 14.65 -2.4 14.7 -2.65 14.75 -2.75 14.75 -2.85 14.75 -2.95 14.75 -2.95 14.8 -3.4 14.85 -3.5 14.9 -4.35 15.05 -5.4 15.2 -5.6 15.0 -5.8 14.75 -7.4 13.2 -7.15 14.75 -7.15 15.15 -7.1 15.25 -7.2 18.55 -7.35 21.85 -9.15 19.85 -8.45 13.9 -8.4 13.9 -8.45 13.85 -10.65 11.6 -8.6 5.0 -8.55 4.8 -8.35 5.4 -8.35 4.25 -5.6 -4.8 -5.55 -4.95 -5.45 -5.4 -5.55 -5.5 -7.0 -6.7 -8.45 -7.95 -8.45 -8.45 M-10.25 -8.8 L-10.2 -8.1 -10.2 -8.0 -10.6 -8.0 -9.1 -6.75 -7.6 -5.45 -10.45 4.35 -13.3 14.05 -13.8 12.4 -14.65 9.4 -15.45 6.6 -15.65 6.5 -15.7 9.55 -15.8 12.65 -17.35 11.0 -16.75 5.35 -16.7 5.35 -16.75 5.3 -17.7 -1.25 -17.7 -1.3 -17.7 -1.35 -18.1 -3.05 -17.95 -3.2 -17.95 -3.25 -19.95 -17.0 -10.25 -8.8 M20.0 -0.05 L22.1 8.25 22.15 8.4 22.05 8.4 17.75 1.15 17.85 -8.1 17.85 -8.2 17.95 -8.1 20.0 -0.05 M-8.35 5.85 L-8.35 5.8 -8.35 5.6 -8.4 5.75 -8.35 5.85 M2.3 4.65 Q2.05 4.5 1.35 5.0 0.6 6.0 2.1 6.7 3.8 6.6 2.9 5.0 L2.3 4.65" fill="#bf313d" fill-rule="evenodd" stroke="none"/>
    <path d="M17.85 -8.8 L17.85 -8.2 17.85 -8.1 17.75 1.15 17.65 3.35 16.0 7.45 14.55 11.0 13.75 4.6 13.8 4.45 12.95 -1.85 17.8 -9.25 17.85 -8.8 M15.1 2.8 Q14.65 3.85 15.2 4.45 16.05 3.55 15.1 2.8" fill="#ff7082" fill-rule="evenodd" stroke="none"/>
    <path d="M16.0 7.45 L17.65 3.35 17.6 7.2 16.0 7.45" fill="#ff5362" fill-rule="evenodd" stroke="none"/>
    <path d="M14.55 11.0 L16.0 7.45 17.6 7.2 17.55 11.2 15.05 11.65 14.95 11.7 14.85 11.7 14.75 11.7 14.55 11.5 14.45 11.4 14.55 11.0" fill="#ce3945" fill-rule="evenodd" stroke="none"/>
    <path d="M12.95 -1.85 L13.8 4.45 13.75 4.6 14.55 11.0 14.45 11.4 14.1 12.35 13.6 13.55 13.35 14.35 13.2 14.75 13.15 14.9 12.75 16.15 12.75 17.15 8.7 17.85 7.8 12.3 7.85 12.25 7.05 5.7 7.05 5.65 6.25 -0.85 9.55 -1.35 12.95 -1.85" fill="#ff899d" fill-rule="evenodd" stroke="none"/>
    <path d="M14.45 11.4 L14.55 11.5 14.75 11.7 16.35 13.6 17.85 15.0 Q20.2 17.1 24.15 19.0 L23.9 19.25 22.75 18.8 19.95 17.35 17.75 15.85 15.7 14.15 14.1 12.35 14.45 11.4 M1.45 23.95 L1.3 24.0 0.65 23.9 0.65 23.55 1.4 23.7 1.45 23.95 M0.65 23.3 L2.05 19.85 2.75 17.7 3.8 13.6 4.2 11.65 5.6 12.2 5.75 12.35 5.0 14.75 4.95 15.05 3.95 17.95 2.55 21.3 1.4 23.4 0.65 23.3 M23.85 19.45 L24.1 19.3 24.1 19.45 23.75 19.8 23.85 19.45" fill="#ffffff" fill-rule="evenodd" stroke="none"/>
    <path d="M13.35 14.35 L13.45 14.9 13.15 14.9 13.2 14.75 13.35 14.35" fill="#ff6e80" fill-rule="evenodd" stroke="none"/>
    <path d="M13.45 14.9 L13.8 18.05 12.75 18.2 12.75 18.05 12.75 17.15 12.75 16.15 13.15 14.9 13.45 14.9" fill="#ff6a7b" fill-rule="evenodd" stroke="none"/>
    <path d="M14.1 12.35 L15.7 14.15 17.75 15.85 18.0 17.15 15.75 15.5 13.6 13.55 14.1 12.35" fill="#a2c9ff" fill-rule="evenodd" stroke="none"/>
    <path d="M15.1 2.8 Q16.05 3.55 15.2 4.45 14.65 3.85 15.1 2.8 M2.3 4.65 L2.9 5.0 Q3.8 6.6 2.1 6.7 0.6 6.0 1.35 5.0 2.05 4.5 2.3 4.65" fill="#000000" fill-rule="evenodd" stroke="none"/>
    <path d="M-5.45 -6.0 L6.65 -7.75 9.55 -1.35 6.25 -0.85 -5.45 -6.0" fill="#ff91a6" fill-rule="evenodd" stroke="none"/>
    <path d="M-5.45 -5.4 L-5.55 -4.95 -5.6 -4.8 -8.35 4.25 -8.5 4.5 -9.5 4.5 -10.45 4.35 -7.6 -5.45 -5.45 -5.4" fill="#ff6070" fill-rule="evenodd" stroke="none"/>
    <path d="M-7.0 -6.7 L-5.55 -5.5 -5.45 -5.4 -7.6 -5.45 -9.1 -6.75 -7.0 -6.7" fill="#ff8194" fill-rule="evenodd" stroke="none"/>
    <path d="M-8.45 -8.5 L-8.45 -8.45 -8.45 -8.5 M-13.8 12.4 L-15.55 12.65 -15.8 12.65 -15.7 9.55 -14.65 9.4 -13.8 12.4" fill="#ff798c" fill-rule="evenodd" stroke="none"/>
    <path d="M-8.35 4.25 L-8.35 5.4 -8.55 4.8 -8.5 4.5 -8.35 4.25 M-8.35 5.85 L-8.4 5.75 -8.35 5.6 -8.35 5.8 -8.35 5.85 M-7.1 15.25 L-7.15 15.15 -7.15 14.75 -7.4 13.2 -5.8 14.75 -5.6 15.0 -7.1 15.25" fill="#ff6575" fill-rule="evenodd" stroke="none"/>
    <path d="M-10.65 11.6 L-11.5 14.4 -13.3 14.15 -13.3 14.05 -10.45 4.35 -9.5 4.5 -8.5 4.5 -8.55 4.8 -8.6 5.0 -10.65 11.6" fill="#ff5665" fill-rule="evenodd" stroke="none"/>
    <path d="M-8.45 13.9 L-8.45 13.85 -8.4 13.9 -8.45 13.9" fill="#ff8498" fill-rule="evenodd" stroke="none"/>
    <path d="M-4.35 15.05 L-4.0 18.0 -7.2 18.55 -7.1 15.25 -5.6 15.0 -5.4 15.2 -4.35 15.05" fill="#ff6b7c" fill-rule="evenodd" stroke="none"/>
    <path d="M5.75 13.85 Q4.3 19.05 1.45 23.95 L1.4 23.7 1.4 23.4 2.55 21.3 3.95 17.95 4.95 15.05 5.05 15.05 5.25 14.7 5.55 13.7 5.8 13.45 5.75 13.85" fill="#eeffff" fill-rule="evenodd" stroke="none"/>
    <path d="M5.75 12.35 L6.0 13.0 5.8 13.45 5.55 13.7 5.25 14.7 5.05 15.05 4.95 15.05 5.0 14.75 5.75 12.35" fill="#f1ffff" fill-rule="evenodd" stroke="none"/>
    <path d="M12.75 18.2 Q13.15 26.85 18.85 29.95 L15.55 30.6 14.25 29.95 Q13.25 29.2 12.4 27.8 L11.3 25.9 10.35 23.8 9.2 20.3 8.7 17.85 12.75 17.15 12.75 18.05 12.75 18.2" fill="#ff8b9f" fill-rule="evenodd" stroke="none"/>
    <path d="M0.65 23.55 L0.65 23.3 1.4 23.4 1.4 23.7 0.65 23.55" fill="#9fc7ff" fill-rule="evenodd" stroke="none"/>
    <path d="M-4.0 18.0 L-3.6 21.2 -7.25 21.9 -7.35 21.85 -7.2 18.55 -4.0 18.0" fill="#ff6778" fill-rule="evenodd" stroke="none"/>
    <path d="M17.75 15.85 L19.95 17.35 22.75 18.8 23.9 19.25 23.85 19.45 23.75 19.8 21.4 18.95 Q18.95 17.8 18.0 17.15 L17.75 15.85" fill="#a4ccff" fill-rule="evenodd" stroke="none"/>
    <path d="M23.9 19.25 L24.15 19.0 24.1 19.3 23.85 19.45 23.9 19.25" fill="#acd3ff" fill-rule="evenodd" stroke="none"/>
    <path d="M18.85 29.95 L19.05 31.3 15.8 31.95 15.55 30.6 18.85 29.95" fill="#ff6576" fill-rule="evenodd" stroke="none"/>
    <path d="M19.05 31.3 L19.3 32.65 15.95 33.3 15.8 31.95 19.05 31.3" fill="#ff6474" fill-rule="evenodd" stroke="none"/>
    <path d="M-16.75 5.35 L-16.75 5.3 -16.7 5.35 -16.75 5.35" fill="#ff798b" fill-rule="evenodd" stroke="none"/>
  </g>
</svg>
