<?xml version="1.0" encoding="UTF-8" standalone="no"?>
<svg xmlns:xlink="http://www.w3.org/1999/xlink" height="53.55px" width="43.05px" xmlns="http://www.w3.org/2000/svg">
  <g transform="matrix(1.0, 0.0, 0.0, 1.0, 19.6, 20.8)">
    <path d="M-19.6 -17.75 L4.4 -20.8 4.8 -20.7 15.75 -13.3 -10.15 -9.75 -19.6 -17.7 -19.6 -17.75 M-8.35 -9.3 L-8.3 -9.4 14.1 -12.5 14.3 -12.35 15.95 -11.3 17.4 -10.2 6.45 -8.65 -5.45 -7.0 -8.35 -9.3" fill="#ff7f92" fill-rule="evenodd" stroke="none"/>
    <path d="M-10.15 -9.75 L15.75 -13.3 15.7 -12.75 15.65 -12.6 14.3 -12.35 14.1 -12.5 -8.3 -9.4 -8.35 -9.3 -8.35 -9.2 -10.0 -9.05 -10.1 -9.15 -10.15 -9.75" fill="#ff7385" fill-rule="evenodd" stroke="none"/>
    <path d="M17.6 -11.6 L19.35 -10.4 17.45 -10.05 17.4 -10.1 17.4 -10.2 15.95 -11.3 17.6 -11.6" fill="#ff8397" fill-rule="evenodd" stroke="none"/>
    <path d="M17.4 -10.1 L17.45 -10.05 17.45 -8.9 17.15 2.7 15.55 6.9 14.15 10.3 13.35 3.85 13.35 3.65 12.6 -2.75 17.4 -10.1 M14.7 2.05 Q14.2 3.05 14.8 3.75 15.6 3.1 14.7 2.05" fill="#ff7082" fill-rule="evenodd" stroke="none"/>
    <path d="M6.45 -8.65 L17.4 -10.2 17.4 -10.1 12.6 -2.75 9.35 -2.3 6.45 -8.65" fill="#ff96ac" fill-rule="evenodd" stroke="none"/>
    <path d="M19.35 -10.4 L20.1 -1.15 19.4 -0.85 18.3 -0.65 17.45 -8.9 17.45 -10.05 19.35 -10.4 M13.0 14.7 L13.35 17.95 12.4 18.1 12.3 16.6 12.3 15.55 12.6 14.75 13.0 14.7 M-8.25 9.45 L-8.25 9.8 -8.3 9.8 -8.25 9.45" fill="#ff6a7b" fill-rule="evenodd" stroke="none"/>
    <path d="M15.7 -12.75 L16.05 -12.7 17.6 -11.6 15.95 -11.3 14.3 -12.35 15.65 -12.6 15.7 -12.75" fill="#ff7d90" fill-rule="evenodd" stroke="none"/>
    <path d="M-19.6 -17.75 L-19.6 -17.7 -19.6 -17.75" fill="#ff6677" fill-rule="evenodd" stroke="none"/>
    <path d="M-19.6 -17.7 L-10.15 -9.75 -10.1 -9.15 -10.45 -9.1 -9.05 -7.85 -7.6 -6.6 -9.15 3.4 -10.75 13.3 -12.15 9.55 -12.35 9.45 -12.65 9.1 -15.3 6.4 -15.35 9.55 -15.45 12.65 -17.0 11.0 -16.45 5.25 -16.4 5.25 -16.45 5.2 -19.6 -17.7 M19.15 8.6 L17.2 4.6 17.15 2.7 17.45 -8.9 18.3 -0.65 19.15 8.25 19.15 8.6 M15.45 32.75 Q12.75 32.15 10.35 27.1 L9.05 24.5 7.75 20.7 6.55 15.25 5.95 13.7 5.5 13.3 5.75 12.25 5.5 11.65 5.25 11.5 4.15 11.0 4.0 11.05 3.6 13.05 3.6 13.1 3.55 13.1 1.75 13.4 1.4 13.45 1.25 13.5 1.2 13.5 1.1 13.55 1.0 13.55 0.9 13.55 0.85 13.55 0.75 13.6 -2.4 14.2 -3.5 14.4 -3.85 14.45 -4.0 14.5 -4.05 14.5 -4.2 14.5 -4.25 14.5 -4.35 14.55 -4.45 14.55 -4.55 14.55 -4.6 14.55 -4.7 14.6 -5.3 14.65 -5.4 14.6 -7.25 12.75 -7.05 14.75 -7.05 14.8 -7.0 14.9 -7.05 18.05 -7.1 18.3 -7.15 21.3 -7.2 21.6 -8.95 19.7 -8.3 13.6 -8.25 13.6 -8.3 13.55 -8.85 13.0 -8.3 9.8 -8.25 9.8 -8.25 9.45 -7.2 3.4 -5.5 -6.2 -5.4 -6.8 -5.45 -6.85 -5.4 -6.95 6.05 -1.8 6.05 -1.55 6.8 4.85 6.8 5.0 7.55 11.5 7.55 11.55 8.45 17.3 8.95 20.2 9.95 23.25 11.7 26.95 12.4 27.8 13.7 29.35 15.05 29.95 15.45 32.75 M-8.35 -9.3 L-5.45 -7.0 -5.45 -6.95 -5.45 -6.85 -6.95 -8.05 -6.95 -8.1 -8.35 -9.2 -8.35 -9.3 M1.35 5.6 L1.55 5.8 2.2 5.95 Q2.95 5.95 3.05 5.0 3.1 4.15 2.15 3.85 1.2 3.7 1.05 5.0 L1.35 5.6" fill="#bf313d" fill-rule="evenodd" stroke="none"/>
    <path d="M-15.35 9.55 L-15.3 6.4 -12.65 9.1 -15.35 9.55" fill="#ff7c8f" fill-rule="evenodd" stroke="none"/>
    <path d="M-12.35 9.45 L-12.0 12.15 -15.05 12.65 -15.45 12.65 -15.35 9.55 -12.65 9.1 -12.35 9.45 M-16.45 5.25 L-16.45 5.2 -16.4 5.25 -16.45 5.25" fill="#ff798b" fill-rule="evenodd" stroke="none"/>
    <path d="M20.1 -1.15 L20.85 7.9 20.85 8.1 19.35 8.75 19.2 8.75 19.15 8.6 19.15 8.25 18.3 -0.65 19.4 -0.85 20.1 -1.15" fill="#ff5c6b" fill-rule="evenodd" stroke="none"/>
    <path d="M17.2 4.6 L17.15 6.7 15.55 6.9 17.15 2.7 17.2 4.6" fill="#ff5463" fill-rule="evenodd" stroke="none"/>
    <path d="M17.15 6.7 L17.05 10.75 17.0 10.85 16.5 10.95 16.35 10.95 16.3 10.95 16.15 11.0 16.1 11.0 14.4 11.25 14.0 10.75 14.15 10.3 15.55 6.9 17.15 6.7" fill="#d23b47" fill-rule="evenodd" stroke="none"/>
    <path d="M13.2 13.0 L12.9 13.8 12.6 14.75 12.3 15.55 12.3 16.6 8.45 17.3 7.55 11.55 7.55 11.5 6.8 5.0 6.8 4.85 6.05 -1.55 6.05 -1.8 9.35 -2.3 12.6 -2.75 13.35 3.65 13.35 3.85 14.15 10.3 14.0 10.75 13.7 11.5 13.65 11.75 13.2 13.0" fill="#ff899d" fill-rule="evenodd" stroke="none"/>
    <path d="M16.1 11.0 L14.4 11.3 14.4 11.25 16.1 11.0 M3.6 13.2 L-2.4 14.2 0.75 13.6 0.85 13.55 0.9 13.55 1.0 13.55 1.1 13.55 1.2 13.5 1.25 13.5 1.4 13.45 1.75 13.4 3.55 13.1 3.6 13.1 3.6 13.2" fill="#ff7e91" fill-rule="evenodd" stroke="none"/>
    <path d="M14.4 11.3 L15.75 12.95 17.3 14.5 Q19.7 16.65 23.45 18.45 L23.2 18.7 21.65 18.05 19.6 17.0 17.25 15.35 15.7 14.0 13.65 11.75 13.7 11.5 14.0 10.75 14.4 11.25 14.4 11.3 M23.4 18.8 L23.35 19.05 23.05 19.3 23.15 18.9 23.4 18.8 M1.3 23.35 L0.55 23.25 0.55 22.95 1.3 23.05 1.3 23.35 M0.55 22.65 L1.85 19.4 2.6 17.1 3.6 13.2 3.6 13.1 3.6 13.05 4.0 11.05 4.15 11.0 5.25 11.5 5.5 11.65 4.3 15.75 3.05 19.25 1.3 22.8 0.55 22.65" fill="#ffffff" fill-rule="evenodd" stroke="none"/>
    <path d="M12.9 13.8 L13.0 14.7 12.6 14.75 12.9 13.8" fill="#ff6e80" fill-rule="evenodd" stroke="none"/>
    <path d="M17.5 16.6 Q17.55 16.8 15.35 15.05 L13.2 13.0 13.65 11.75 15.7 14.0 17.25 15.35 17.5 16.6" fill="#a3cbff" fill-rule="evenodd" stroke="none"/>
    <path d="M14.7 2.05 Q15.6 3.1 14.8 3.75 14.2 3.05 14.7 2.05 M1.35 5.6 L1.05 5.0 Q1.2 3.7 2.15 3.85 3.1 4.15 3.05 5.0 2.95 5.95 2.2 5.95 L1.55 5.8 1.35 5.6" fill="#000000" fill-rule="evenodd" stroke="none"/>
    <path d="M-5.45 -7.0 L6.45 -8.65 9.35 -2.3 6.05 -1.8 -5.4 -6.95 -5.45 -6.95 -5.45 -7.0" fill="#ff91a6" fill-rule="evenodd" stroke="none"/>
    <path d="M-5.4 -6.95 L-5.45 -6.85 -5.45 -6.95 -5.4 -6.95" fill="#e14350" fill-rule="evenodd" stroke="none"/>
    <path d="M-5.4 -6.8 L-5.5 -6.2 -7.2 3.4 -8.1 3.5 -9.15 3.4 -7.6 -6.6 -5.4 -6.8" fill="#ff6172" fill-rule="evenodd" stroke="none"/>
    <path d="M-5.45 -6.85 L-5.4 -6.8 -7.6 -6.6 -9.05 -7.85 -6.95 -8.05 -5.45 -6.85" fill="#ff7b8e" fill-rule="evenodd" stroke="none"/>
    <path d="M-8.35 -9.2 L-6.95 -8.1 -6.95 -8.05 -9.05 -7.85 -10.45 -9.1 -10.1 -9.15 -10.0 -9.05 -8.35 -9.2" fill="#ff7789" fill-rule="evenodd" stroke="none"/>
    <path d="M-8.85 13.0 L-8.95 13.55 -10.5 13.45 -10.75 13.45 -10.75 13.3 -9.15 3.4 -8.1 3.5 -7.2 3.4 -8.25 9.45 -8.3 9.8 -8.85 13.0" fill="#ff5766" fill-rule="evenodd" stroke="none"/>
    <path d="M-8.3 13.6 L-8.3 13.55 -8.25 13.6 -8.3 13.6" fill="#ff8498" fill-rule="evenodd" stroke="none"/>
    <path d="M-7.0 14.9 L-7.05 14.8 -7.05 14.75 -7.25 12.75 -5.4 14.6 -7.0 14.9" fill="#ff6576" fill-rule="evenodd" stroke="none"/>
    <path d="M-4.35 14.55 L-3.95 17.75 -7.1 18.3 -7.05 18.05 -7.0 14.9 -5.4 14.6 -5.3 14.65 -4.7 14.6 -4.6 14.55 -4.55 14.55 -4.45 14.55 -4.35 14.55" fill="#ff6b7c" fill-rule="evenodd" stroke="none"/>
    <path d="M3.6 13.1 L3.55 13.1 3.6 13.1" fill="#fcffff" fill-rule="evenodd" stroke="none"/>
    <path d="M5.5 13.3 L5.3 13.85 5.05 14.05 4.6 15.55 4.5 15.7 4.3 15.75 5.5 11.65 5.75 12.25 5.5 13.3" fill="#f2ffff" fill-rule="evenodd" stroke="none"/>
    <path d="M5.3 13.85 Q3.85 19.15 1.3 23.35 L1.3 23.05 1.3 22.8 3.05 19.25 4.3 15.75 4.5 15.7 4.6 15.55 5.05 14.05 5.3 13.85" fill="#f0ffff" fill-rule="evenodd" stroke="none"/>
    <path d="M12.4 18.1 Q12.3 18.8 13.2 22.6 L13.95 24.95 Q15.8 28.6 18.2 29.35 L15.05 29.95 13.7 29.35 12.4 27.8 11.7 26.95 9.95 23.25 8.95 20.2 8.45 17.3 12.3 16.6 12.4 18.1" fill="#ff899e" fill-rule="evenodd" stroke="none"/>
    <path d="M0.55 22.95 L0.55 22.65 1.3 22.8 1.3 23.05 0.55 22.95" fill="#9fc7ff" fill-rule="evenodd" stroke="none"/>
    <path d="M-3.95 17.75 L-3.55 21.0 -6.9 21.65 -7.2 21.6 -7.15 21.3 -7.1 18.3 -3.95 17.75" fill="#ff6778" fill-rule="evenodd" stroke="none"/>
    <path d="M23.05 19.3 Q21.25 18.95 17.5 16.6 L17.25 15.35 19.6 17.0 21.65 18.05 23.2 18.7 23.15 18.9 23.05 19.3" fill="#a6cdff" fill-rule="evenodd" stroke="none"/>
    <path d="M23.45 18.45 L23.4 18.8 23.15 18.9 23.2 18.7 23.45 18.45" fill="#b0d7ff" fill-rule="evenodd" stroke="none"/>
    <path d="M18.2 29.35 L18.65 31.85 18.65 32.1 15.45 32.75 15.05 29.95 18.2 29.35" fill="#ff6475" fill-rule="evenodd" stroke="none"/>
  </g>
</svg>
