<?xml version="1.0" encoding="UTF-8" standalone="no"?>
<svg xmlns:xlink="http://www.w3.org/1999/xlink" height="58.9px" width="52.1px" xmlns="http://www.w3.org/2000/svg">
  <g transform="matrix(1.0, 0.0, 0.0, 1.0, 26.05, 53.9)">
    <path d="M-7.0 2.4 L-6.9 -38.45 0.45 -35.8 0.4 5.0 -7.0 2.4" fill="#32220f" fill-rule="evenodd" stroke="none"/>
    <path d="M-6.95 -38.45 L2.1 -40.4 9.5 -37.75 0.45 -35.8 -6.95 -38.45" fill="#402b13" fill-rule="evenodd" stroke="none"/>
    <path d="M9.45 3.05 L0.4 5.0 0.5 -35.85 9.55 -37.8 9.45 3.05" fill="#4f3618" fill-rule="evenodd" stroke="none"/>
    <path d="M15.95 -7.75 L9.65 -25.2 9.9 -25.75 26.05 -30.45 15.95 -7.75" fill="#275a27" fill-rule="evenodd" stroke="none"/>
    <path d="M16.55 -49.4 L26.05 -30.45 9.9 -25.8 9.65 -26.25 16.55 -49.4" fill="#2a632a" fill-rule="evenodd" stroke="none"/>
    <path d="M15.9 -7.75 L-3.7 -4.05 9.15 -25.1 9.6 -25.2 15.9 -7.75" fill="#255725" fill-rule="evenodd" stroke="none"/>
    <path d="M9.15 -25.1 L8.9 -25.6 9.15 -26.15 9.65 -26.25 9.9 -25.75 9.65 -25.2 9.15 -25.1" fill="#296129" fill-rule="evenodd" stroke="none"/>
    <path d="M-3.05 -45.65 L16.55 -49.4 9.65 -26.25 9.15 -26.15 -3.05 -45.65" fill="#2c682c" fill-rule="evenodd" stroke="none"/>
    <path d="M-15.9 -50.15 L3.7 -53.9 16.6 -49.4 -3.0 -45.65 -15.9 -50.15" fill="#214d21" fill-rule="evenodd" stroke="none"/>
    <path d="M-16.55 -8.5 L-26.05 -27.45 -13.15 -22.95 -3.7 -4.0 -16.55 -8.5" fill="#183718" fill-rule="evenodd" stroke="none"/>
    <path d="M-26.05 -27.45 L-15.9 -50.15 -3.05 -45.65 -13.15 -22.95 -26.05 -27.45" fill="#1f481f" fill-rule="evenodd" stroke="none"/>
    <path d="M-13.15 -22.95 L-3.0 -45.65 9.2 -26.15 8.9 -25.6 -13.15 -22.95" fill="#2b642b" fill-rule="evenodd" stroke="none"/>
    <path d="M-3.65 -4.05 L-13.15 -23.0 8.9 -25.6 9.15 -25.1 -3.65 -4.05" fill="#275c27" fill-rule="evenodd" stroke="none"/>
  </g>
</svg>
