<?xml version="1.0" encoding="UTF-8" standalone="no"?>
<svg xmlns:xlink="http://www.w3.org/1999/xlink" height="563.95px" width="684.95px" xmlns="http://www.w3.org/2000/svg">
  <g transform="matrix(1.0, 0.0, 0.0, 1.0, 50.95, 63.0)">
    <path d="M2.75 -4.55 Q-3.6 -3.95 -4.2 2.4 L-4.2 396.15 Q-3.6 402.5 2.75 403.1 L30.9 403.15 104.6 403.2 207.75 403.3 324.15 403.4 437.75 403.5 532.35 403.55 595.9 403.6 Q603.0 403.1 604.35 399.05 605.65 395.0 605.3 394.5 L604.85 2.4 Q604.35 -3.95 597.9 -4.55 L2.75 -4.55 M634.0 500.95 L-50.95 500.95 -50.95 -63.0 634.0 -63.0 634.0 500.95" fill="#006699" fill-rule="evenodd" stroke="none"/>
  </g>
</svg>
