<?xml version="1.0" encoding="UTF-8" standalone="no"?>
<svg xmlns:xlink="http://www.w3.org/1999/xlink" height="73.05px" width="596.55px" xmlns="http://www.w3.org/2000/svg">
  <g transform="matrix(1.0, 0.0, 0.0, 1.0, -1.75, -398.0)">
    <path d="M166.05 407.55 Q166.6 408.2 167.75 415.65 168.85 423.1 164.0 429.55 159.15 436.0 141.65 433.7 138.05 439.85 131.75 444.35 125.5 448.9 118.6 449.3 109.65 449.25 103.6 444.1 97.6 438.95 95.55 432.25 85.1 438.3 73.05 437.85 61.0 437.4 54.35 433.05 47.7 428.7 53.4 423.05 49.05 424.75 41.65 424.9 34.3 425.1 28.6 421.35 22.95 417.65 23.65 407.55 L57.45 407.55 105.1 407.55 147.65 407.55 166.05 407.55" fill="#ccecf4" fill-rule="evenodd" stroke="none"/>
    <path d="M471.65 416.9 Q471.75 417.3 469.4 421.95 467.05 426.6 461.4 430.85 455.7 435.1 445.85 434.3 443.0 445.4 430.85 448.15 418.65 450.85 403.85 439.45 396.35 452.25 384.5 455.95 372.65 459.65 363.35 455.0 354.05 450.35 354.15 438.05 342.3 443.25 331.95 439.25 321.55 435.25 319.65 415.55 L359.3 415.95 409.8 416.4 453.2 416.75 471.65 416.9" fill="#ccecf4" fill-rule="evenodd" stroke="none"/>
    <path d="M310.45 414.85 L305.5 420.95 Q300.6 426.65 291.55 432.7 282.5 438.7 270.0 440.0 257.5 441.3 242.25 432.95 235.3 443.5 221.35 450.65 207.4 457.8 193.25 459.6 186.5 460.4 177.0 458.15 167.5 455.85 159.8 449.95 152.05 444.1 150.6 434.0 142.5 437.15 131.45 435.6 120.35 434.0 113.65 428.15 107.0 422.35 112.25 412.7 L142.7 412.8 193.05 413.1 248.05 413.4 292.3 413.65 310.45 413.75 310.45 414.85" fill="#ccecf4" fill-rule="evenodd" stroke="none"/>
    <path d="M94.35 398.0 L122.65 398.0 Q131.75 406.9 126.5 410.0 121.2 413.1 111.55 412.75 101.9 412.4 97.75 410.95 102.5 415.7 96.9 419.35 91.35 423.0 81.25 423.4 71.15 423.75 62.4 418.7 60.7 424.3 55.65 428.6 50.6 432.9 43.1 432.95 37.3 432.6 32.05 428.85 26.8 425.05 23.75 419.9 9.15 421.85 5.05 416.4 1.0 411.0 1.95 404.8 2.9 398.55 3.35 398.0 L18.75 398.0 54.4 398.0 94.35 398.0" fill="#ffffff" fill-rule="evenodd" stroke="none"/>
    <path d="M598.2 401.2 Q598.9 411.3 593.2 415.0 587.55 418.75 580.15 418.55 572.8 418.4 568.45 416.7 574.15 422.35 567.5 426.7 560.85 431.05 548.8 431.5 536.75 431.95 526.3 425.9 524.25 432.6 518.2 437.75 512.2 442.9 503.25 442.95 496.35 442.55 490.05 438.0 483.8 433.5 480.15 427.35 462.7 429.65 457.85 423.2 453.0 416.75 454.1 409.3 455.25 401.85 455.8 401.2 L474.2 401.2 516.75 401.2 564.4 401.2 598.2 401.2" fill="#ffffff" fill-rule="evenodd" stroke="none"/>
    <path d="M270.2 400.2 Q268.3 419.9 257.95 423.9 247.55 427.9 235.7 422.7 235.85 435.0 226.5 439.65 217.2 444.3 205.35 440.6 193.5 436.9 186.0 424.1 171.2 435.5 159.05 432.8 146.85 430.05 144.0 418.95 134.15 419.75 128.5 415.5 122.85 411.25 120.5 406.6 118.15 401.95 118.2 401.55 L136.65 401.4 180.1 401.05 230.6 400.6 270.2 400.2" fill="#ffffff" fill-rule="evenodd" stroke="none"/>
    <path d="M424.8 401.8 L455.25 401.7 Q460.5 411.35 453.85 417.15 447.15 423.0 436.05 424.6 425.0 426.15 416.9 423.0 415.45 433.1 407.7 438.95 400.0 444.85 390.5 447.15 381.0 449.4 374.25 448.6 360.1 446.8 346.15 439.65 332.2 432.5 325.25 421.95 310.0 430.3 297.5 429.0 285.0 427.7 275.95 421.7 266.9 415.65 262.0 409.95 L257.05 403.85 257.05 402.75 275.2 402.65 319.45 402.4 374.45 402.1 424.8 401.8" fill="#ffffff" fill-rule="evenodd" stroke="none"/>
    <path d="M264.55 413.75 Q263.55 413.3 262.25 413.2 260.95 413.3 259.95 413.75 L229.2 413.85 228.25 413.7 227.25 413.85 200.25 413.95 Q199.9 414.0 199.85 414.4 L200.5 469.25 198.4 467.4 196.1 465.15 196.05 456.5 196.0 437.4 196.0 418.3 196.1 409.65 217.4 409.65 268.15 409.6 328.65 409.6 379.2 409.65 400.1 409.75 400.85 465.25 397.75 469.85 397.75 469.7 396.95 421.05 397.4 419.0 396.85 416.75 396.8 414.5 396.8 414.05 396.8 413.75 Q396.75 413.35 396.35 413.3 L392.15 413.35 391.2 413.2 390.3 413.35 264.55 413.75" fill="#890c08" fill-rule="evenodd" stroke="none"/>
    <path d="M307.55 414.2 Q303.65 414.55 303.3 418.2 303.65 421.8 307.55 422.15 311.45 421.85 311.8 418.2 311.45 414.55 307.55 414.2 M316.0 418.15 Q316.35 421.75 320.25 422.1 324.15 421.75 324.5 418.15 324.15 414.5 320.25 414.15 316.35 414.5 316.0 418.15 M285.0 414.75 Q281.7 415.05 281.4 418.1 281.7 421.2 285.0 421.45 288.25 421.2 288.55 418.1 288.25 415.05 285.0 414.75 M293.55 418.5 Q293.85 421.6 297.15 421.85 300.4 421.6 300.7 418.5 300.4 415.45 297.15 415.15 293.85 415.45 293.55 418.5 M271.2 417.55 Q271.5 420.65 274.8 420.9 278.05 420.65 278.35 417.55 278.05 414.5 274.8 414.2 271.5 414.5 271.2 417.55 M259.95 413.75 Q257.45 414.85 257.15 418.0 257.6 422.4 262.25 422.8 266.95 422.4 267.4 418.0 267.1 414.85 264.55 413.75 L390.3 413.35 389.2 413.6 327.35 413.85 330.75 413.85 376.6 413.75 388.8 413.75 Q385.45 415.0 385.05 419.0 385.6 424.25 391.2 424.75 395.65 424.35 396.95 421.05 L397.75 469.7 397.75 469.85 397.3 470.15 392.0 470.15 Q394.8 469.75 395.1 466.85 394.8 463.8 391.55 463.5 388.25 463.8 387.95 466.85 388.25 469.75 391.1 470.15 L324.7 470.15 Q326.55 468.95 326.85 466.25 326.4 461.85 321.7 461.45 317.05 461.85 316.6 466.25 316.9 468.95 318.75 470.15 L266.45 470.15 Q269.5 469.15 269.85 465.6 269.4 461.05 264.6 460.65 259.8 461.05 259.35 465.6 259.7 469.15 262.8 470.15 L200.9 470.15 Q200.55 470.1 200.5 469.7 L200.5 469.25 199.85 414.4 Q199.9 414.0 200.25 413.95 L227.25 413.85 Q224.3 414.55 224.0 417.7 224.35 421.35 228.25 421.7 232.15 421.35 232.55 417.7 232.2 414.5 229.2 413.85 L259.95 413.75 M247.65 418.65 Q247.95 421.75 251.25 422.0 254.5 421.75 254.8 418.65 254.5 415.6 251.25 415.3 247.95 415.6 247.65 418.65 M280.2 466.25 Q279.9 463.2 276.65 462.9 273.35 463.2 273.05 466.25 273.35 469.35 276.65 469.6 279.9 469.35 280.2 466.25 M249.2 465.6 Q249.5 468.7 252.8 468.95 256.05 468.7 256.35 465.6 256.05 462.55 252.8 462.25 249.5 462.55 249.2 465.6 M309.6 462.5 Q306.3 462.8 306.0 465.85 306.3 468.95 309.6 469.2 312.85 468.95 313.15 465.85 312.85 462.8 309.6 462.5 M290.8 465.95 Q290.5 462.9 287.25 462.6 283.95 462.9 283.65 465.95 283.95 469.05 287.25 469.3 290.5 469.05 290.8 465.95 M302.35 466.1 Q302.05 463.05 298.8 462.75 295.5 463.05 295.2 466.1 295.5 469.2 298.8 469.45 302.05 469.2 302.35 466.1 M238.95 415.35 Q235.65 415.65 235.35 418.7 235.65 421.8 238.95 422.05 242.2 421.8 242.5 418.7 242.2 415.65 238.95 415.35 M205.5 414.65 Q201.6 415.0 201.25 418.65 201.6 422.3 205.5 422.65 209.4 422.3 209.8 418.65 209.4 415.0 205.5 414.65 M217.15 414.25 Q213.85 414.55 213.55 417.6 213.85 420.7 217.15 420.95 220.4 420.7 220.7 417.6 220.4 414.55 217.15 414.25 M211.3 424.25 Q210.9 424.3 210.85 424.7 L211.05 458.25 Q211.1 458.65 211.5 458.7 L386.25 458.7 386.7 458.25 385.85 426.35 Q385.8 425.95 385.4 425.9 L211.3 424.25 M205.7 426.95 Q202.65 427.25 202.35 430.55 202.65 433.8 205.7 434.1 208.8 433.8 209.05 430.55 208.8 427.25 205.7 426.95 M202.75 442.7 Q203.05 445.95 206.1 446.25 209.2 445.95 209.45 442.7 209.2 439.4 206.1 439.1 203.05 439.4 202.75 442.7 M226.05 465.9 Q226.35 469.0 229.65 469.25 232.9 469.0 233.2 465.9 232.9 462.85 229.65 462.55 226.35 462.85 226.05 465.9 M236.45 464.8 Q236.9 469.35 241.7 469.75 246.5 469.35 246.95 464.8 246.5 460.35 241.7 459.9 236.9 460.3 236.45 464.8 M205.8 450.5 Q202.75 450.8 202.45 454.1 202.75 457.35 205.8 457.65 208.9 457.35 209.15 454.1 208.9 450.8 205.8 450.5 M210.25 465.75 Q209.95 462.7 206.7 462.4 203.4 462.7 203.1 465.75 203.4 468.85 206.7 469.1 209.95 468.85 210.25 465.75 M218.1 469.4 Q221.35 469.15 221.65 466.05 221.35 463.0 218.1 462.7 214.8 463.0 214.5 466.05 214.8 469.15 218.1 469.4 M393.15 413.55 L392.15 413.35 396.35 413.3 Q396.75 413.35 396.8 413.75 L396.8 414.05 Q396.3 413.0 395.75 413.55 L393.15 413.55 M396.8 414.5 L396.85 416.75 Q395.9 414.6 393.65 413.75 L396.05 413.75 396.8 414.5 M365.55 415.9 Q362.25 416.2 361.95 419.25 362.25 422.35 365.55 422.6 368.8 422.35 369.1 419.25 368.8 416.2 365.55 415.9 M373.9 418.25 Q374.2 421.35 377.5 421.6 380.75 421.35 381.05 418.25 380.75 415.2 377.5 414.9 374.2 415.2 373.9 418.25 M388.9 443.65 Q389.2 446.9 392.25 447.2 395.35 446.9 395.6 443.65 395.35 440.35 392.25 440.05 389.2 440.35 388.9 443.65 M392.45 435.65 Q395.55 435.35 395.8 432.1 395.55 428.8 392.45 428.5 389.4 428.8 389.1 432.1 389.4 435.35 392.45 435.65 M351.0 418.65 Q351.3 421.75 354.6 422.0 357.85 421.75 358.15 418.65 357.85 415.6 354.6 415.3 351.3 415.6 351.0 418.65 M339.6 418.7 Q339.9 421.8 343.2 422.05 346.45 421.8 346.75 418.7 346.45 415.65 343.2 415.35 339.9 415.65 339.6 418.7 M326.45 418.25 Q326.8 421.85 330.7 422.2 334.6 421.85 334.95 418.25 334.6 414.6 330.7 414.25 326.8 414.6 326.45 418.25 M348.4 465.95 Q348.1 462.9 344.85 462.6 341.55 462.9 341.25 465.95 341.55 469.05 344.85 469.3 348.1 469.05 348.4 465.95 M355.7 462.3 Q352.4 462.6 352.1 465.65 352.4 468.75 355.7 469.0 358.95 468.75 359.25 465.65 358.95 462.6 355.7 462.3 M329.55 466.55 Q329.85 469.65 333.15 469.9 336.4 469.65 336.7 466.55 336.4 463.5 333.15 463.2 329.85 463.5 329.55 466.55 M388.0 454.45 Q388.3 457.7 391.35 458.0 394.45 457.7 394.7 454.45 394.45 451.15 391.35 450.85 388.3 451.15 388.0 454.45 M367.8 463.05 Q364.5 463.35 364.2 466.4 364.5 469.5 367.8 469.75 371.05 469.5 371.35 466.4 371.05 463.35 367.8 463.05 M379.95 470.05 Q383.2 469.8 383.5 466.7 383.2 463.65 379.95 463.35 376.65 463.65 376.35 466.7 376.65 469.8 379.95 470.05" fill="#ff1a00" fill-rule="evenodd" stroke="none"/>
    <path d="M294.65 430.4 L294.3 429.75 Q293.65 429.1 293.55 429.25 L293.0 429.25 285.6 429.25 285.05 429.25 276.9 429.25 Q276.7 429.3 276.65 429.55 L276.7 452.85 Q276.7 453.15 276.95 453.2 L278.6 453.25 278.6 454.0 278.85 454.35 285.1 454.45 293.5 454.55 Q295.55 454.35 296.2 452.95 L296.75 451.4 296.8 450.75 296.9 445.15 Q296.85 442.05 295.85 441.9 L294.6 441.3 294.5 441.15 294.7 441.15 Q296.0 440.95 296.4 440.1 L296.75 439.1 296.8 438.45 296.8 437.95 296.9 434.45 Q296.85 431.55 296.2 430.9 295.55 430.25 295.45 430.4 L294.9 430.4 294.65 430.4 M313.45 430.3 Q313.05 429.35 311.75 429.15 L305.3 428.9 300.4 428.75 299.9 428.75 298.6 429.0 Q297.5 429.3 297.3 430.4 L297.25 436.05 297.2 444.95 297.2 449.6 297.2 450.25 297.35 451.9 Q297.55 453.3 298.45 453.6 L299.4 453.65 Q299.65 454.5 300.35 454.75 L307.1 454.7 312.85 454.5 313.4 454.5 Q313.55 454.65 314.5 454.0 315.45 453.4 315.8 450.5 316.0 446.85 315.85 440.6 L315.7 433.7 315.7 433.05 315.45 431.7 Q315.1 430.55 313.65 430.3 L313.45 430.3 M287.3 434.0 L287.15 435.5 287.15 436.15 286.5 436.4 284.55 436.45 284.4 436.45 284.4 434.6 284.4 434.2 284.95 434.0 287.3 434.0 M286.3 447.9 L286.3 446.15 286.3 444.7 286.3 444.2 Q286.45 444.05 286.85 443.95 L289.2 443.9 289.15 445.45 289.05 446.75 289.05 447.4 288.4 447.85 286.45 447.9 286.3 447.9 M310.95 434.35 L310.95 434.8 310.95 435.45 310.95 439.95 310.9 445.05 Q310.1 446.05 309.45 445.9 L308.9 445.9 306.6 446.0 304.5 446.05 304.5 445.8 304.5 445.15 304.45 441.45 304.45 436.05 Q305.05 433.3 305.45 433.85 L306.0 433.85 308.75 434.1 310.95 434.35 M324.2 429.95 L323.9 429.1 323.55 428.8 317.1 428.85 Q316.85 428.9 316.85 429.2 L316.65 453.25 316.9 453.6 318.55 453.65 318.55 454.4 318.8 454.75 322.7 454.85 322.95 454.5 323.1 443.4 324.6 449.55 324.9 449.85 326.3 449.85 326.5 450.7 326.8 451.0 332.4 451.0 332.75 450.7 334.0 446.2 333.95 453.6 334.25 453.95 335.85 453.95 335.85 454.75 336.15 455.1 341.9 455.0 342.15 454.65 342.0 430.25 341.7 429.95 340.1 429.95 340.1 429.1 339.8 428.8 332.65 428.8 332.3 429.1 328.35 437.9 325.8 430.25 Q325.7 430.0 325.45 429.95 L324.2 429.95 M258.5 443.4 L258.5 430.45 258.25 430.15 256.6 430.1 256.6 429.3 256.35 429.0 252.8 428.9 Q252.6 428.9 252.55 429.2 L252.55 431.35 Q252.2 430.35 250.85 430.1 L250.6 430.1 Q250.2 429.2 248.95 429.0 L241.9 429.0 236.4 429.1 235.85 429.1 234.4 429.35 Q233.15 429.6 232.9 430.7 L232.9 432.0 Q232.65 431.1 232.25 430.7 L231.35 429.95 230.8 429.85 230.6 429.85 230.35 429.55 229.45 428.75 228.9 428.7 221.3 428.7 220.75 428.7 212.25 428.7 212.0 429.0 212.1 453.55 212.35 453.9 214.0 453.95 214.0 454.7 214.25 455.05 220.8 455.15 229.55 455.25 Q231.7 455.05 232.4 453.65 L233.0 452.0 233.05 451.55 Q233.25 452.75 234.2 453.0 L235.05 453.05 Q235.35 453.9 236.1 454.1 L243.6 454.25 250.1 454.35 250.6 454.35 Q250.75 454.5 251.7 453.85 252.2 453.5 252.55 452.4 L252.55 452.65 252.8 452.95 254.45 452.95 254.45 453.8 Q254.45 454.05 254.7 454.1 L266.1 454.0 266.35 453.65 266.35 444.85 Q266.35 444.55 266.1 444.55 L264.45 444.55 264.45 443.7 264.2 443.4 258.5 443.4 M247.05 434.1 L247.05 434.7 247.05 435.35 247.05 440.05 247.0 445.35 Q246.35 446.4 245.8 446.2 L245.25 446.25 243.15 446.25 241.3 446.2 241.35 445.9 241.35 445.25 241.25 441.5 Q241.2 438.15 241.3 436.1 241.85 433.4 242.25 433.9 L242.8 433.95 245.3 434.05 247.05 434.1 M268.6 434.15 L268.6 434.45 Q268.7 435.55 268.85 435.3 L269.35 435.25 271.45 435.3 274.2 435.25 Q275.35 434.8 275.1 434.75 L275.15 434.15 275.2 432.8 275.3 431.0 Q275.1 430.05 274.95 430.15 L274.45 430.0 273.4 430.05 273.4 429.85 Q273.25 428.9 273.05 429.0 L272.55 428.85 267.35 428.95 266.9 429.2 266.7 429.25 266.7 429.7 266.7 431.15 266.7 433.3 Q266.8 434.4 266.95 434.15 L267.45 434.1 268.6 434.15 M273.35 437.35 L273.35 436.55 273.05 436.25 267.1 436.15 Q266.85 436.15 266.8 436.45 L266.75 453.05 267.0 453.4 268.65 453.4 268.65 454.15 268.9 454.5 274.9 454.5 275.15 454.15 275.2 437.65 274.95 437.35 273.35 437.35 M211.3 424.25 L385.4 425.9 Q385.8 425.95 385.85 426.35 L386.7 458.25 386.25 458.7 211.5 458.7 Q211.1 458.65 211.05 458.25 L210.85 424.7 Q210.9 424.3 211.3 424.25 M220.2 436.85 L220.15 435.0 220.15 434.55 220.75 434.4 223.1 434.35 222.95 435.9 222.95 436.55 222.3 436.75 220.35 436.85 220.2 436.85 M222.05 448.3 L222.05 446.5 222.05 445.1 222.05 444.6 222.65 444.35 225.0 444.3 224.95 445.85 224.85 447.15 224.85 447.75 Q225.0 447.85 224.2 448.2 L222.25 448.3 222.05 448.3 M232.8 443.05 Q232.55 442.35 232.05 442.3 L230.85 441.7 230.7 441.5 230.85 441.5 Q232.2 441.3 232.6 440.4 L232.85 439.95 232.8 443.05 M377.65 454.6 L377.7 455.45 378.0 455.75 382.95 455.75 383.25 455.45 383.2 447.25 Q383.15 439.9 383.25 436.05 383.25 431.4 382.0 430.4 380.75 429.4 380.55 429.6 L380.4 429.6 380.05 429.25 Q378.8 428.25 378.6 428.45 L378.05 428.45 367.2 428.45 366.65 428.45 364.2 428.45 Q363.95 428.5 363.95 428.75 L363.95 433.75 Q363.55 431.65 362.2 431.0 L361.1 430.5 360.3 429.9 358.45 429.2 357.9 429.15 343.05 429.15 342.8 429.45 342.8 452.55 342.8 453.2 342.8 453.65 343.05 453.95 344.7 453.95 344.7 454.3 344.7 454.7 344.95 455.05 351.4 455.05 351.65 454.7 351.65 446.3 Q351.65 446.0 351.9 445.95 L358.25 445.55 Q361.7 445.2 362.8 443.8 L363.3 443.2 363.2 446.25 363.1 451.1 Q363.25 452.95 364.15 453.65 L365.15 454.3 365.7 454.35 366.1 454.8 367.1 455.45 367.65 455.5 370.6 455.6 375.0 455.5 376.9 454.6 377.65 454.6 M376.55 436.55 L376.65 437.15 Q376.75 438.95 376.55 438.9 L376.15 439.15 372.2 439.05 366.05 438.9 Q364.65 439.05 364.0 439.85 L364.1 435.9 364.2 435.9 365.9 435.85 365.9 436.75 Q365.9 437.05 366.15 437.05 L375.55 436.6 376.1 436.55 376.55 436.55 M372.35 446.65 L372.35 444.45 372.35 444.0 372.9 443.75 374.85 443.75 374.7 445.65 374.7 446.3 374.1 446.55 372.35 446.65 M353.05 434.95 L352.95 436.5 352.9 437.7 352.85 438.35 352.1 438.8 349.8 438.85 349.3 438.85 349.3 437.15 349.3 435.75 349.3 435.3 Q349.5 435.05 349.9 435.0 L353.05 434.95" fill="#7fc31c" fill-rule="evenodd" stroke="none"/>
    <path d="M316.0 418.15 Q316.35 414.5 320.25 414.15 324.15 414.5 324.5 418.15 324.15 421.75 320.25 422.1 316.35 421.75 316.0 418.15 M293.55 418.5 Q293.85 415.45 297.15 415.15 300.4 415.45 300.7 418.5 300.4 421.6 297.15 421.85 293.85 421.6 293.55 418.5 M271.2 417.55 Q271.5 414.5 274.8 414.2 278.05 414.5 278.35 417.55 278.05 420.65 274.8 420.9 271.5 420.65 271.2 417.55 M229.2 413.85 Q232.2 414.5 232.55 417.7 232.15 421.35 228.25 421.7 224.35 421.35 224.0 417.7 224.3 414.55 227.25 413.85 L228.25 413.7 229.2 413.85 M318.75 470.15 Q316.9 468.95 316.6 466.25 317.05 461.85 321.7 461.45 326.4 461.85 326.85 466.25 326.55 468.95 324.7 470.15 323.5 470.9 321.7 471.05 319.9 470.9 318.75 470.15 M391.1 470.15 Q388.25 469.75 387.95 466.85 388.25 463.8 391.55 463.5 394.8 463.8 395.1 466.85 394.8 469.75 392.0 470.15 L391.55 470.2 391.1 470.15 M396.95 421.05 Q395.65 424.35 391.2 424.75 385.6 424.25 385.05 419.0 385.45 415.0 388.8 413.75 L389.2 413.6 390.3 413.35 391.2 413.2 392.15 413.35 393.15 413.55 393.65 413.75 Q395.9 414.6 396.85 416.75 L397.4 419.0 396.95 421.05 M247.65 418.65 Q247.95 415.6 251.25 415.3 254.5 415.6 254.8 418.65 254.5 421.75 251.25 422.0 247.95 421.75 247.65 418.65 M249.2 465.6 Q249.5 462.55 252.8 462.25 256.05 462.55 256.35 465.6 256.05 468.7 252.8 468.95 249.5 468.7 249.2 465.6 M280.2 466.25 Q279.9 469.35 276.65 469.6 273.35 469.35 273.05 466.25 273.35 463.2 276.65 462.9 279.9 463.2 280.2 466.25 M302.35 466.1 Q302.05 469.2 298.8 469.45 295.5 469.2 295.2 466.1 295.5 463.05 298.8 462.75 302.05 463.05 302.35 466.1 M205.5 414.65 Q209.4 415.0 209.8 418.65 209.4 422.3 205.5 422.65 201.6 422.3 201.25 418.65 201.6 415.0 205.5 414.65 M202.75 442.7 Q203.05 439.4 206.1 439.1 209.2 439.4 209.45 442.7 209.2 445.95 206.1 446.25 203.05 445.95 202.75 442.7 M226.05 465.9 Q226.35 462.85 229.65 462.55 232.9 462.85 233.2 465.9 232.9 469.0 229.65 469.25 226.35 469.0 226.05 465.9 M210.25 465.75 Q209.95 468.85 206.7 469.1 203.4 468.85 203.1 465.75 203.4 462.7 206.7 462.4 209.95 462.7 210.25 465.75 M365.55 415.9 Q368.8 416.2 369.1 419.25 368.8 422.35 365.55 422.6 362.25 422.35 361.95 419.25 362.25 416.2 365.55 415.9 M388.9 443.65 Q389.2 440.35 392.25 440.05 395.35 440.35 395.6 443.65 395.35 446.9 392.25 447.2 389.2 446.9 388.9 443.65 M339.6 418.7 Q339.9 415.65 343.2 415.35 346.45 415.65 346.75 418.7 346.45 421.8 343.2 422.05 339.9 421.8 339.6 418.7 M348.4 465.95 Q348.1 469.05 344.85 469.3 341.55 469.05 341.25 465.95 341.55 462.9 344.85 462.6 348.1 462.9 348.4 465.95 M367.8 463.05 Q371.05 463.35 371.35 466.4 371.05 469.5 367.8 469.75 364.5 469.5 364.2 466.4 364.5 463.35 367.8 463.05" fill="#ffff4d" fill-rule="evenodd" stroke="none"/>
    <path d="M388.8 413.75 L376.6 413.75 330.75 413.85 327.35 413.85 389.2 413.6 388.8 413.75 M396.8 414.05 L396.8 414.5 396.05 413.75 393.65 413.75 393.15 413.55 395.75 413.55 Q396.3 413.0 396.8 414.05" fill="#ffb300" fill-rule="evenodd" stroke="none"/>
    <path d="M307.55 414.2 Q311.45 414.55 311.8 418.2 311.45 421.85 307.55 422.15 303.65 421.8 303.3 418.2 303.65 414.55 307.55 414.2 M264.55 413.75 Q267.1 414.85 267.4 418.0 266.95 422.4 262.25 422.8 257.6 422.4 257.15 418.0 257.45 414.85 259.95 413.75 260.95 413.3 262.25 413.2 263.55 413.3 264.55 413.75 M290.8 465.95 Q290.5 469.05 287.25 469.3 283.95 469.05 283.65 465.95 283.95 462.9 287.25 462.6 290.5 462.9 290.8 465.95 M217.15 414.25 Q220.4 414.55 220.7 417.6 220.4 420.7 217.15 420.95 213.85 420.7 213.55 417.6 213.85 414.55 217.15 414.25 M205.8 450.5 Q208.9 450.8 209.15 454.1 208.9 457.35 205.8 457.65 202.75 457.35 202.45 454.1 202.75 450.8 205.8 450.5 M236.45 464.8 Q236.9 460.3 241.7 459.9 246.5 460.35 246.95 464.8 246.5 469.35 241.7 469.75 236.9 469.35 236.45 464.8 M351.0 418.65 Q351.3 415.6 354.6 415.3 357.85 415.6 358.15 418.65 357.85 421.75 354.6 422.0 351.3 421.75 351.0 418.65 M392.45 435.65 Q389.4 435.35 389.1 432.1 389.4 428.8 392.45 428.5 395.55 428.8 395.8 432.1 395.55 435.35 392.45 435.65 M329.55 466.55 Q329.85 463.5 333.15 463.2 336.4 463.5 336.7 466.55 336.4 469.65 333.15 469.9 329.85 469.65 329.55 466.55 M379.95 470.05 Q376.65 469.8 376.35 466.7 376.65 463.65 379.95 463.35 383.2 463.65 383.5 466.7 383.2 469.8 379.95 470.05" fill="#f33699" fill-rule="evenodd" stroke="none"/>
    <path d="M285.0 414.75 Q288.25 415.05 288.55 418.1 288.25 421.2 285.0 421.45 281.7 421.2 281.4 418.1 281.7 415.05 285.0 414.75 M262.8 470.15 Q259.7 469.15 259.35 465.6 259.8 461.05 264.6 460.65 269.4 461.05 269.85 465.6 269.5 469.15 266.45 470.15 L264.6 470.5 262.8 470.15 M309.6 462.5 Q312.85 462.8 313.15 465.85 312.85 468.95 309.6 469.2 306.3 468.95 306.0 465.85 306.3 462.8 309.6 462.5 M238.95 415.35 Q242.2 415.65 242.5 418.7 242.2 421.8 238.95 422.05 235.65 421.8 235.35 418.7 235.65 415.65 238.95 415.35 M205.7 426.95 Q208.8 427.25 209.05 430.55 208.8 433.8 205.7 434.1 202.65 433.8 202.35 430.55 202.65 427.25 205.7 426.95 M218.1 469.4 Q214.8 469.15 214.5 466.05 214.8 463.0 218.1 462.7 221.35 463.0 221.65 466.05 221.35 469.15 218.1 469.4 M373.9 418.25 Q374.2 415.2 377.5 414.9 380.75 415.2 381.05 418.25 380.75 421.35 377.5 421.6 374.2 421.35 373.9 418.25 M326.45 418.25 Q326.8 414.6 330.7 414.25 334.6 414.6 334.95 418.25 334.6 421.85 330.7 422.2 326.8 421.85 326.45 418.25 M355.7 462.3 Q358.95 462.6 359.25 465.65 358.95 468.75 355.7 469.0 352.4 468.75 352.1 465.65 352.4 462.6 355.7 462.3 M388.0 454.45 Q388.3 451.15 391.35 450.85 394.45 451.15 394.7 454.45 394.45 457.7 391.35 458.0 388.3 457.7 388.0 454.45" fill="#67c5ca" fill-rule="evenodd" stroke="none"/>
    <path d="M278.6 453.25 L283.2 453.3 291.55 453.4 Q293.65 453.2 294.3 451.8 L294.85 450.25 294.9 449.6 295.0 444.0 Q294.95 442.1 294.6 441.3 L295.85 441.9 Q296.85 442.05 296.9 445.15 L296.8 450.75 296.75 451.4 296.2 452.95 Q295.55 454.35 293.5 454.55 L285.1 454.45 278.85 454.35 278.6 454.0 278.6 453.25 M294.5 441.15 L293.95 440.75 Q292.55 439.95 292.15 440.1 L291.6 440.1 Q290.85 440.1 292.8 440.0 294.1 439.8 294.5 438.95 L294.85 437.95 294.9 437.3 294.9 436.8 295.0 433.3 294.65 430.4 294.9 430.4 295.45 430.4 Q295.55 430.25 296.2 430.9 296.85 431.55 296.9 434.45 L296.8 437.95 296.8 438.45 296.75 439.1 296.4 440.1 Q296.0 440.95 294.7 441.15 L294.5 441.15 M299.4 453.65 L305.2 453.55 310.95 453.35 311.5 453.35 Q311.65 453.5 312.6 452.85 313.55 452.25 313.9 449.35 314.1 445.7 313.95 439.45 L313.8 432.55 313.8 431.9 313.55 430.55 313.45 430.3 313.65 430.3 Q315.1 430.55 315.45 431.7 L315.7 433.05 315.7 433.7 315.85 440.6 Q316.0 446.85 315.8 450.5 315.45 453.4 314.5 454.0 313.55 454.65 313.4 454.5 L312.85 454.5 307.1 454.7 300.35 454.75 Q299.65 454.5 299.4 453.65 M284.4 436.45 L283.1 436.4 282.55 436.45 282.5 435.85 282.5 433.45 282.5 433.05 283.05 432.85 286.6 432.75 287.1 432.9 287.3 433.45 287.3 434.0 284.95 434.0 284.4 434.2 284.4 434.6 284.4 436.45 M289.2 443.9 L286.85 443.95 Q286.45 444.05 286.3 444.2 L286.3 444.7 286.3 446.15 286.3 447.9 285.0 447.85 284.45 447.9 284.35 447.05 284.35 445.0 284.35 443.55 284.35 443.1 284.95 442.8 288.5 442.7 289.0 442.85 289.2 443.7 289.2 443.9 M304.5 446.05 L303.55 446.05 Q302.4 445.3 302.6 444.65 L302.6 444.0 302.55 440.3 Q302.5 436.9 302.6 434.9 303.15 432.15 303.55 432.7 L304.1 432.7 306.85 432.95 310.2 433.25 Q310.85 433.8 310.95 434.35 L308.75 434.1 306.0 433.85 305.45 433.85 Q305.05 433.3 304.45 436.05 L304.45 441.45 304.5 445.15 304.5 445.8 304.5 446.05 M318.55 453.65 L320.8 453.7 321.05 453.35 321.25 436.25 Q321.25 435.95 321.3 436.2 L323.1 443.4 322.95 454.5 322.7 454.85 318.8 454.75 318.55 454.4 318.55 453.65 M326.3 449.85 L330.5 449.85 330.85 449.55 333.95 438.35 Q334.05 438.15 334.05 438.4 L334.0 446.2 332.75 450.7 332.4 451.0 326.8 451.0 326.5 450.7 326.3 449.85 M335.85 453.95 L340.0 453.85 340.3 453.5 340.1 429.95 341.7 429.95 342.0 430.25 342.15 454.65 341.9 455.0 336.15 455.1 335.85 454.75 335.85 453.95 M328.35 437.9 L327.6 439.5 Q327.45 439.75 327.35 439.5 L324.2 429.95 325.45 429.95 Q325.7 430.0 325.8 430.25 L328.35 437.9 M256.6 430.1 L258.25 430.15 258.5 430.45 258.5 443.4 256.9 443.4 256.6 443.1 256.6 430.1 M264.45 444.55 L266.1 444.55 Q266.35 444.55 266.35 444.85 L266.35 453.65 266.1 454.0 254.7 454.1 Q254.45 454.05 254.45 453.8 L254.45 452.95 264.2 452.85 264.45 452.5 264.45 444.55 M252.55 452.4 Q252.2 453.5 251.7 453.85 250.75 454.5 250.6 454.35 L250.1 454.35 243.6 454.25 236.1 454.1 Q235.35 453.9 235.05 453.05 L241.7 453.15 248.2 453.25 248.7 453.25 Q248.85 453.4 249.8 452.75 250.7 452.1 251.05 449.25 L251.15 439.3 251.0 432.4 250.95 431.75 250.7 430.4 250.6 430.1 250.85 430.1 Q252.2 430.35 252.55 431.35 L252.55 452.4 M233.05 451.55 L233.0 452.0 232.4 453.65 Q231.7 455.05 229.55 455.25 L220.8 455.15 214.25 455.05 214.0 454.7 214.0 453.95 218.9 454.0 227.65 454.1 Q229.8 453.9 230.5 452.5 L231.1 450.85 231.15 450.25 231.2 444.45 Q231.2 442.5 230.85 441.7 L232.05 442.3 Q232.55 442.35 232.8 443.05 L232.8 444.7 232.8 449.15 232.8 449.8 233.0 451.35 233.05 451.55 M230.6 429.85 L230.8 429.85 231.35 429.95 232.25 430.7 Q232.65 431.1 232.9 432.0 L232.85 436.15 232.85 439.95 232.6 440.4 Q232.2 441.3 230.85 441.5 L230.7 441.5 Q230.5 441.2 230.15 441.15 228.65 440.3 228.2 440.45 L227.7 440.45 228.95 440.35 Q230.3 440.15 230.7 439.25 L231.1 438.25 231.15 437.6 231.15 437.1 231.2 433.45 Q231.15 430.9 230.6 429.85 M241.3 446.2 L240.4 446.15 Q239.2 445.45 239.45 444.8 L239.45 444.15 239.35 440.4 Q239.3 437.05 239.4 435.0 239.95 432.3 240.35 432.8 L240.9 432.85 243.4 432.95 246.4 433.05 247.05 434.1 245.3 434.05 242.8 433.95 242.25 433.9 Q241.85 433.4 241.3 436.1 241.2 438.15 241.25 441.5 L241.35 445.25 241.35 445.9 241.3 446.2 M273.4 430.05 L274.45 430.0 274.95 430.15 Q275.1 430.05 275.3 431.0 L275.2 432.8 275.15 434.15 275.1 434.75 Q275.35 434.8 274.2 435.25 L271.45 435.3 269.35 435.25 268.85 435.3 Q268.7 435.55 268.6 434.45 L268.6 434.15 269.55 434.15 272.3 434.1 273.2 433.6 273.25 433.0 273.3 431.65 273.4 430.05 M268.65 453.4 L273.0 453.4 273.25 453.05 273.35 437.35 274.95 437.35 275.2 437.65 275.15 454.15 274.9 454.5 268.9 454.5 268.65 454.15 268.65 453.4 M223.1 434.35 L220.75 434.4 220.15 434.55 220.15 435.0 220.2 436.85 218.9 436.8 218.35 436.8 218.25 436.25 218.25 433.85 218.25 433.45 Q218.45 433.25 218.85 433.2 L222.4 433.15 Q222.65 433.15 222.9 433.3 L223.1 433.85 223.1 434.35 M225.0 444.3 L222.65 444.35 222.05 444.6 222.05 445.1 222.05 446.5 222.05 448.3 220.8 448.25 220.25 448.3 220.15 447.45 220.15 445.35 220.15 443.95 220.15 443.45 Q220.35 443.25 220.75 443.2 L224.3 443.1 224.8 443.25 225.0 444.05 225.0 444.3 M380.4 429.6 L380.55 429.6 Q380.75 429.4 382.0 430.4 383.25 431.4 383.25 436.05 383.15 439.9 383.2 447.25 L383.25 455.45 382.95 455.75 378.0 455.75 377.7 455.45 377.65 454.6 381.0 454.6 381.3 454.3 381.25 446.1 Q381.2 438.75 381.3 434.9 381.3 430.9 380.4 429.6 M376.9 454.6 L375.0 455.5 370.6 455.6 367.65 455.5 367.1 455.45 366.1 454.8 365.7 454.35 368.65 454.45 373.05 454.35 Q375.7 453.3 375.45 452.65 375.6 452.4 375.6 452.7 L375.75 454.3 376.05 454.6 376.9 454.6 M363.3 443.2 L362.8 443.8 Q361.7 445.2 358.25 445.55 L351.9 445.95 Q351.65 446.0 351.65 446.3 L351.65 454.7 351.4 455.05 344.95 455.05 344.7 454.7 344.7 454.3 344.7 453.95 349.5 453.95 349.75 453.65 349.75 445.2 Q349.8 444.9 350.0 444.85 L356.35 444.45 Q359.8 444.1 360.9 442.7 L361.95 441.1 362.05 440.5 362.2 433.7 Q362.0 431.5 361.1 430.5 L362.2 431.0 Q363.55 431.65 363.95 433.75 L363.95 435.6 364.1 435.9 364.0 439.85 Q363.7 440.2 363.55 440.75 363.2 442.35 363.3 442.6 L363.3 443.2 M365.9 435.85 L373.6 435.45 374.15 435.4 376.15 435.4 376.45 435.75 376.55 436.55 376.1 436.55 375.55 436.6 366.15 437.05 Q365.9 437.05 365.9 436.75 L365.9 435.85 M374.85 443.75 L372.9 443.75 372.35 444.0 372.35 444.45 372.35 446.65 371.0 446.6 370.45 446.65 370.4 445.95 370.4 443.3 370.4 442.85 370.95 442.6 374.15 442.55 374.65 442.7 374.85 443.3 374.85 443.75 M349.3 438.85 L348.1 438.8 347.55 438.85 Q347.45 439.1 347.4 438.05 L347.4 436.05 347.4 434.65 347.4 434.2 Q347.6 433.95 348.0 433.9 L352.25 433.8 352.75 433.95 Q352.9 433.9 353.05 434.75 L353.05 434.95 349.9 435.0 Q349.5 435.05 349.3 435.3 L349.3 435.75 349.3 437.15 349.3 438.85" fill="#000000" fill-rule="evenodd" stroke="none"/>
    <path d="M278.6 453.25 L276.95 453.2 Q276.7 453.15 276.7 452.85 L276.65 429.55 Q276.7 429.3 276.9 429.25 L285.05 429.25 285.6 429.25 293.0 429.25 293.55 429.25 Q293.65 429.1 294.3 429.75 L294.65 430.4 295.0 433.3 294.9 436.8 294.9 437.3 294.85 437.95 294.5 438.95 Q294.1 439.8 292.8 440.0 290.85 440.1 291.6 440.1 L292.15 440.1 Q292.55 439.95 293.95 440.75 L294.5 441.15 294.6 441.3 Q294.95 442.1 295.0 444.0 L294.9 449.6 294.85 450.25 294.3 451.8 Q293.65 453.2 291.55 453.4 L283.2 453.3 278.6 453.25 M299.4 453.65 L298.45 453.6 Q297.55 453.3 297.35 451.9 L297.2 450.25 297.2 449.6 297.2 444.95 297.25 436.05 297.3 430.4 Q297.5 429.3 298.6 429.0 L299.9 428.75 300.4 428.75 305.3 428.9 311.75 429.15 Q313.05 429.35 313.45 430.3 L313.55 430.55 313.8 431.9 313.8 432.55 313.95 439.45 Q314.1 445.7 313.9 449.35 313.55 452.25 312.6 452.85 311.65 453.5 311.5 453.35 L310.95 453.35 305.2 453.55 299.4 453.65 M287.3 434.0 L287.3 433.45 287.1 432.9 286.6 432.75 283.05 432.85 282.5 433.05 282.5 433.45 282.5 435.85 282.55 436.45 283.1 436.4 284.4 436.45 284.55 436.45 286.5 436.4 287.15 436.15 287.15 435.5 287.3 434.0 M289.2 443.9 L289.2 443.7 289.0 442.85 288.5 442.7 284.95 442.8 284.35 443.1 284.35 443.55 284.35 445.0 284.35 447.05 284.45 447.9 285.0 447.85 286.3 447.9 286.45 447.9 288.4 447.85 289.05 447.4 289.05 446.75 289.15 445.45 289.2 443.9 M310.95 434.35 Q310.85 433.8 310.2 433.25 L306.85 432.95 304.1 432.7 303.55 432.7 Q303.15 432.15 302.6 434.9 302.5 436.9 302.55 440.3 L302.6 444.0 302.6 444.65 Q302.4 445.3 303.55 446.05 L304.5 446.05 306.6 446.0 308.9 445.9 309.45 445.9 Q310.1 446.05 310.9 445.05 L310.95 439.95 310.95 435.45 310.95 434.8 310.95 434.35 M318.55 453.65 L316.9 453.6 316.65 453.25 316.85 429.2 Q316.85 428.9 317.1 428.85 L323.55 428.8 323.9 429.1 324.2 429.95 327.35 439.5 Q327.45 439.75 327.6 439.5 L328.35 437.9 332.3 429.1 332.65 428.8 339.8 428.8 340.1 429.1 340.1 429.95 340.3 453.5 340.0 453.85 335.85 453.95 334.25 453.95 333.95 453.6 334.0 446.2 334.05 438.4 Q334.05 438.15 333.95 438.35 L330.85 449.55 330.5 449.85 326.3 449.85 324.9 449.85 324.6 449.55 323.1 443.4 321.3 436.2 Q321.25 435.95 321.25 436.25 L321.05 453.35 320.8 453.7 318.55 453.65 M256.6 430.1 L256.6 443.1 256.9 443.4 258.5 443.4 264.2 443.4 264.45 443.7 264.45 444.55 264.45 452.5 264.2 452.85 254.45 452.95 252.8 452.95 252.55 452.65 252.55 452.4 252.55 431.35 252.55 429.2 Q252.6 428.9 252.8 428.9 L256.35 429.0 256.6 429.3 256.6 430.1 M235.05 453.05 L234.2 453.0 Q233.25 452.75 233.05 451.55 L233.0 451.35 232.8 449.8 232.8 449.15 232.8 444.7 232.8 443.05 232.85 439.95 232.85 436.15 232.9 432.0 232.9 430.7 Q233.15 429.6 234.4 429.35 L235.85 429.1 236.4 429.1 241.9 429.0 248.95 429.0 Q250.2 429.2 250.6 430.1 L250.7 430.4 250.95 431.75 251.0 432.4 251.15 439.3 251.05 449.25 Q250.7 452.1 249.8 452.75 248.85 453.4 248.7 453.25 L248.2 453.25 241.7 453.15 235.05 453.05 M214.0 453.95 L212.35 453.9 212.1 453.55 212.0 429.0 212.25 428.7 220.75 428.7 221.3 428.7 228.9 428.7 229.45 428.75 230.35 429.55 230.6 429.85 Q231.15 430.9 231.2 433.45 L231.15 437.1 231.15 437.6 231.1 438.25 230.7 439.25 Q230.3 440.15 228.95 440.35 L227.7 440.45 228.2 440.45 Q228.65 440.3 230.15 441.15 230.5 441.2 230.7 441.5 L230.85 441.7 Q231.2 442.5 231.2 444.45 L231.15 450.25 231.1 450.85 230.5 452.5 Q229.8 453.9 227.65 454.1 L218.9 454.0 214.0 453.95 M247.05 434.1 L246.4 433.05 243.4 432.95 240.9 432.85 240.35 432.8 Q239.95 432.3 239.4 435.0 239.3 437.05 239.35 440.4 L239.45 444.15 239.45 444.8 Q239.2 445.45 240.4 446.15 L241.3 446.2 243.15 446.25 245.25 446.25 245.8 446.2 Q246.35 446.4 247.0 445.35 L247.05 440.05 247.05 435.35 247.05 434.7 247.05 434.1 M273.4 430.05 L273.3 431.65 273.25 433.0 273.2 433.6 272.3 434.1 269.55 434.15 268.6 434.15 267.45 434.1 266.95 434.15 Q266.8 434.4 266.7 433.3 L266.7 431.15 266.7 429.7 266.7 429.25 266.9 429.2 267.35 428.95 272.55 428.85 273.05 429.0 Q273.25 428.9 273.4 429.85 L273.4 430.05 M268.65 453.4 L267.0 453.4 266.75 453.05 266.8 436.45 Q266.85 436.15 267.1 436.15 L273.05 436.25 273.35 436.55 273.35 437.35 273.25 453.05 273.0 453.4 268.65 453.4 M223.1 434.35 L223.1 433.85 222.9 433.3 Q222.65 433.15 222.4 433.15 L218.85 433.2 Q218.45 433.25 218.25 433.45 L218.25 433.85 218.25 436.25 218.35 436.8 218.9 436.8 220.2 436.85 220.35 436.85 222.3 436.75 222.95 436.55 222.95 435.9 223.1 434.35 M225.0 444.3 L225.0 444.05 224.8 443.25 224.3 443.1 220.75 443.2 Q220.35 443.25 220.15 443.45 L220.15 443.95 220.15 445.35 220.15 447.45 220.25 448.3 220.8 448.25 222.05 448.3 222.25 448.3 224.2 448.2 Q225.0 447.85 224.85 447.75 L224.85 447.15 224.95 445.85 225.0 444.3 M380.4 429.6 Q381.3 430.9 381.3 434.9 381.2 438.75 381.25 446.1 L381.3 454.3 381.0 454.6 377.65 454.6 376.9 454.6 376.05 454.6 375.75 454.3 375.6 452.7 Q375.6 452.4 375.45 452.65 375.7 453.3 373.05 454.35 L368.65 454.45 365.7 454.35 365.15 454.3 364.15 453.65 Q363.25 452.95 363.1 451.1 L363.2 446.25 363.3 443.2 363.3 442.6 Q363.2 442.35 363.55 440.75 363.7 440.2 364.0 439.85 364.65 439.05 366.05 438.9 L372.2 439.05 376.15 439.15 376.55 438.9 Q376.75 438.95 376.65 437.15 L376.55 436.55 376.45 435.75 376.15 435.4 374.15 435.4 373.6 435.45 365.9 435.85 364.2 435.9 364.1 435.9 363.95 435.6 363.95 433.75 363.95 428.75 Q363.95 428.5 364.2 428.45 L366.65 428.45 367.2 428.45 378.05 428.45 378.6 428.45 Q378.8 428.25 380.05 429.25 L380.4 429.6 M344.7 453.95 L343.05 453.95 342.8 453.65 342.8 453.2 342.8 452.55 342.8 429.45 343.05 429.15 357.9 429.15 358.45 429.2 360.3 429.9 361.1 430.5 Q362.0 431.5 362.2 433.7 L362.05 440.5 361.95 441.1 360.9 442.7 Q359.8 444.1 356.35 444.45 L350.0 444.85 Q349.8 444.9 349.75 445.2 L349.75 453.65 349.5 453.95 344.7 453.95 M374.85 443.75 L374.85 443.3 374.65 442.7 374.15 442.55 370.95 442.6 370.4 442.85 370.4 443.3 370.4 445.95 370.45 446.65 371.0 446.6 372.35 446.65 374.1 446.55 374.7 446.3 374.7 445.65 374.85 443.75 M353.05 434.95 L353.05 434.75 Q352.9 433.9 352.75 433.95 L352.25 433.8 348.0 433.9 Q347.6 433.95 347.4 434.2 L347.4 434.65 347.4 436.05 347.4 438.05 Q347.45 439.1 347.55 438.85 L348.1 438.8 349.3 438.85 349.8 438.85 352.1 438.8 352.85 438.35 352.9 437.7 352.95 436.5 353.05 434.95" fill="#ffffff" fill-rule="evenodd" stroke="none"/>
  </g>
</svg>
