<?xml version="1.0" encoding="UTF-8" standalone="no"?>
<svg xmlns:xlink="http://www.w3.org/1999/xlink" height="24.35px" width="34.25px" xmlns="http://www.w3.org/2000/svg">
  <g transform="matrix(1.0, 0.0, 0.0, 1.0, 17.1, 12.2)">
    <path d="M17.15 -0.9 L17.05 7.0 Q17.2 8.25 14.85 8.85 L-2.0 12.05 Q-5.6 12.55 -7.6 10.85 L-16.55 2.1 Q-17.2 1.5 -17.05 0.95 L-17.05 -7.25 -17.0 -7.25 -16.55 -6.25 -7.6 2.6 Q-5.5 4.25 -2.0 3.75 L14.95 0.55 Q16.95 0.0 17.15 -0.9" fill="url(#gradient0)" fill-rule="evenodd" stroke="none"/>
    <path d="M17.15 -0.9 Q16.95 0.0 14.95 0.55 L-2.0 3.75 Q-5.5 4.25 -7.6 2.6 L-16.55 -6.25 -17.0 -7.25 Q-17.05 -8.3 -14.75 -8.9 L2.1 -12.1 Q5.6 -12.6 7.7 -10.9 L16.7 -2.1 17.15 -1.2 17.15 -0.9 M5.15 -1.75 L6.4 -6.2 -0.65 -8.05 1.3 -6.05 -5.5 -4.8 -2.85 -2.2 3.35 -3.6 5.15 -1.75" fill="#ee3f1a" fill-rule="evenodd" stroke="none"/>
    <path d="M5.15 -1.75 L3.35 -3.6 -2.85 -2.2 -5.5 -4.8 1.3 -6.05 -0.65 -8.05 6.4 -6.2 5.15 -1.75" fill="#ffffff" fill-rule="evenodd" stroke="none"/>
  </g>
  <defs>
    <linearGradient gradientTransform="matrix(0.0209, 0.0, 0.0, 0.0209, 0.05, 2.45)" gradientUnits="userSpaceOnUse" id="gradient0" spreadMethod="pad" x1="-819.2" x2="819.2">
      <stop offset="0.30196078431372547" stop-color="#7e1f08"/>
      <stop offset="0.4823529411764706" stop-color="#de2d09"/>
    </linearGradient>
  </defs>
</svg>
