<?xml version="1.0" encoding="UTF-8" standalone="no"?>
<svg xmlns:xlink="http://www.w3.org/1999/xlink" height="55.65px" width="105.95px" xmlns="http://www.w3.org/2000/svg">
  <g transform="matrix(1.0, 0.0, 0.0, 1.0, -2.9, -2.15)">
    <path d="M76.8 20.25 Q73.0 19.65 72.85 15.85 73.4 12.05 77.25 11.9 79.45 12.1 80.55 13.85 81.45 14.9 82.75 13.75 L82.95 2.8 55.45 3.1 55.8 13.9 Q56.95 14.75 58.15 13.5 59.35 11.95 61.45 11.85 65.25 12.2 65.65 16.0 65.3 19.8 61.5 20.2 59.3 20.15 58.1 18.45 57.1 17.45 55.9 18.7 L56.25 29.1 67.15 28.25 Q68.65 29.3 67.6 30.4 66.0 31.75 66.05 33.9 66.6 37.7 70.45 37.85 74.25 37.25 74.35 33.45 74.2 31.35 72.55 30.2 71.2 29.05 72.15 27.8 L82.45 26.95 82.65 18.55 Q81.5 17.6 80.2 18.75 78.9 20.3 76.8 20.25 Z" fill="none" stroke="#aec9cf" stroke-linecap="round" stroke-linejoin="round" stroke-width="0.5"/>
    <path d="M97.8 29.2 Q97.0 30.35 98.2 31.55 99.75 32.75 99.85 34.85 99.5 38.65 95.7 39.05 91.9 38.7 91.5 34.9 91.55 32.7 93.25 31.5 94.25 30.5 93.0 29.3 L82.6 29.65 83.4 40.8 Q82.25 41.9 81.3 41.0 80.0 39.4 77.8 39.4 74.0 40.0 73.85 43.85 74.45 47.6 78.25 47.75 80.35 47.6 81.5 45.95 82.5 44.75 83.75 45.35 L84.55 56.35 108.4 56.35 108.6 28.85 97.8 29.2 Z" fill="none" stroke="#aec9cf" stroke-linecap="round" stroke-linejoin="round" stroke-width="0.5"/>
    <path d="M82.35 18.6 L82.1 29.2 92.55 28.9 Q94.5 29.95 93.2 31.15 91.55 32.35 91.45 34.55 91.85 38.4 95.65 38.75 99.45 38.35 99.8 34.55 99.75 32.45 98.15 31.2 96.7 29.8 98.1 28.75 L108.15 28.45 108.4 2.6 82.75 2.4 82.5 13.45 Q81.4 14.7 80.0 13.3 78.8 11.75 76.7 11.7 72.9 12.1 72.55 15.9 72.95 19.75 76.75 20.05 78.95 19.95 80.15 18.25 81.2 17.15 82.35 18.6 Z" fill="none" stroke="#aec9cf" stroke-linecap="round" stroke-linejoin="round" stroke-width="0.5"/>
    <path d="M61.15 11.7 Q59.05 11.8 57.85 13.4 56.45 14.8 55.35 13.5 L54.95 3.0 29.3 3.1 29.55 13.75 Q28.4 14.65 27.15 13.4 25.95 11.85 23.85 11.8 20.05 12.2 19.7 16.0 20.1 19.85 23.9 20.15 26.1 20.05 27.3 18.35 28.5 17.05 29.55 19.0 L29.7 18.6 29.95 28.95 40.75 29.1 Q41.65 27.95 40.45 26.7 38.95 25.45 38.95 23.35 39.45 19.55 43.25 19.3 47.1 19.8 47.3 23.65 47.15 25.85 45.4 27.0 44.35 27.9 45.55 29.15 L56.0 29.3 55.55 18.7 Q56.7 17.2 57.75 18.35 59.0 20.0 61.2 20.05 65.0 19.7 65.35 15.85 64.95 12.05 61.15 11.7 Z" fill="none" stroke="#aec9cf" stroke-linecap="round" stroke-linejoin="round" stroke-width="0.5"/>
    <path d="M29.3 19.15 Q28.25 17.25 27.05 18.55 25.85 20.25 23.65 20.35 19.85 20.0 19.45 16.2 19.8 12.35 23.6 12.0 25.7 12.05 26.95 13.6 28.05 14.7 29.25 14.0 L28.8 2.8 3.15 2.9 3.8 28.75 13.95 28.9 Q15.5 27.95 14.1 26.4 12.55 25.1 12.6 23.0 13.1 19.2 16.95 19.0 20.75 19.55 20.95 23.35 20.75 25.55 19.05 26.7 17.7 27.8 19.5 28.95 L29.8 28.65 29.45 18.85 29.3 19.15 Z" fill="none" stroke="#aec9cf" stroke-linecap="round" stroke-linejoin="round" stroke-width="0.5"/>
    <path d="M82.45 27.0 L72.4 27.9 Q70.9 28.95 72.5 30.4 74.15 31.55 74.35 33.6 74.2 37.45 70.4 38.05 66.55 37.9 66.0 34.1 65.95 31.9 67.55 30.6 68.8 29.3 66.8 28.4 L56.2 29.3 56.7 39.75 Q55.65 41.55 54.5 40.3 53.25 38.65 51.05 38.6 47.25 39.05 46.95 42.85 47.4 46.7 51.2 46.95 53.3 46.85 54.5 45.3 L57.0 45.35 57.35 56.7 84.55 56.5 83.8 45.6 Q82.55 44.8 81.45 46.1 80.3 47.75 78.25 47.9 74.4 47.8 73.8 44.0 73.95 40.15 77.75 39.6 79.95 39.55 81.25 41.15 82.25 42.1 83.4 40.85 L82.45 29.7 82.45 27.0 Z" fill="none" stroke="#aec9cf" stroke-linecap="round" stroke-linejoin="round" stroke-width="0.5"/>
    <path d="M43.5 19.45 Q39.65 19.6 39.1 23.4 39.05 25.5 40.55 26.8 41.65 27.95 40.9 29.1 L30.15 28.85 30.8 40.55 30.75 40.4 Q29.8 42.4 28.55 41.2 27.25 39.55 25.05 39.6 21.25 40.2 21.1 44.0 21.7 47.8 25.5 47.95 27.6 47.75 28.75 46.15 29.9 44.8 31.1 45.65 L31.55 57.55 57.0 56.85 56.6 44.5 Q55.35 44.1 54.4 45.2 53.3 46.8 51.2 47.0 47.35 46.9 46.8 43.1 46.9 39.25 50.7 38.65 52.9 38.65 54.2 40.25 55.2 41.2 56.35 39.95 L55.8 29.45 45.35 29.2 Q44.6 27.9 45.5 27.15 47.25 26.05 47.45 23.85 47.3 20.0 43.5 19.45 Z" fill="none" stroke="#aec9cf" stroke-linecap="round" stroke-linejoin="round" stroke-width="0.5"/>
    <path d="M28.45 41.05 L30.45 41.1 29.8 28.7 19.75 28.8 Q18.0 27.65 19.25 26.55 20.95 25.35 21.1 23.15 20.8 19.35 17.0 18.9 13.15 19.2 12.75 23.0 12.75 25.1 14.3 26.35 15.7 27.8 14.3 28.8 L3.95 28.9 4.35 57.1 31.25 57.35 30.65 45.25 Q29.4 45.0 28.6 46.0 27.5 47.65 25.4 47.8 21.55 47.7 21.0 43.9 21.15 40.05 24.9 39.5 27.1 39.45 28.45 41.05 Z" fill="none" stroke="#aec9cf" stroke-linecap="round" stroke-linejoin="round" stroke-width="0.5"/>
  </g>
</svg>
