<?xml version="1.0" encoding="UTF-8" standalone="no"?>
<svg xmlns:xlink="http://www.w3.org/1999/xlink" height="34.65px" width="34.55px" xmlns="http://www.w3.org/2000/svg">
  <g transform="matrix(1.0, 0.0, 0.0, 1.0, 17.25, 17.3)">
    <path d="M5.2 -11.15 L1.95 -8.4 Q-2.35 -4.9 -6.7 -4.3 L-7.6 -4.15 -11.15 -4.15 -11.45 -3.2 Q-12.2 -1.3 -12.25 0.55 L-12.25 0.65 Q-12.2 2.55 -11.45 4.45 L-11.45 4.5 -11.25 5.35 -7.45 5.35 -7.15 5.4 Q-3.1 5.8 1.65 8.85 L6.65 12.25 7.35 12.35 Q8.8 12.0 10.25 9.35 12.2 5.55 12.3 0.0 L12.3 -0.1 Q12.15 -5.65 10.2 -9.3 L10.25 -9.3 Q8.85 -11.75 7.5 -12.25 6.3 -11.9 5.2 -11.15 M6.95 -17.25 L7.6 -17.3 Q11.45 -17.35 14.6 -11.7 17.15 -7.1 17.3 -0.1 L17.3 0.0 Q17.2 7.0 14.65 11.7 11.55 17.4 7.6 17.35 L7.45 17.35 4.65 16.85 3.9 16.45 3.3 16.0 3.15 15.85 Q2.75 15.5 -1.05 13.05 -4.55 10.8 -7.55 10.35 L-10.95 10.35 -11.55 10.4 -11.8 10.4 Q-14.55 10.45 -16.15 6.25 L-16.1 6.25 Q-17.2 3.5 -17.25 0.65 L-17.25 0.55 Q-17.2 -2.25 -16.1 -5.0 -14.55 -9.1 -11.9 -9.1 L-11.55 -9.15 -8.2 -9.15 -7.65 -9.2 Q-4.4 -9.65 -1.2 -12.25 L-1.25 -12.25 2.4 -15.35 2.45 -15.4 2.75 -15.75 Q3.45 -16.5 4.5 -16.5 L4.6 -16.5 6.95 -17.25" fill="#ffffff" fill-rule="evenodd" stroke="none"/>
    <path d="M7.15 -14.6 Q9.8 -14.45 12.1 -10.3 14.35 -6.15 14.5 0.15 14.4 6.45 12.15 10.7 9.9 14.9 7.15 15.05 L5.2 14.7 5.2 14.75 0.3 11.4 Q-4.15 8.45 -7.75 8.05 L-11.5 8.05 -11.85 8.1 Q-13.2 7.95 -14.1 5.55 -15.0 3.2 -15.05 0.8 -15.0 -1.55 -14.1 -3.9 -13.2 -6.25 -11.85 -6.45 L-7.9 -6.45 -7.85 -6.5 Q-3.85 -6.95 0.05 -10.15 L4.2 -13.8 4.2 -13.75 Q5.6 -14.6 7.15 -14.6" fill="url(#gradient0)" fill-rule="evenodd" stroke="none"/>
    <path d="M14.45 0.1 Q14.35 6.4 12.25 10.65 10.2 14.85 7.65 15.0 4.15 14.85 1.85 10.7 -0.45 6.5 -0.55 0.2 -0.45 -6.1 1.85 -10.25 4.15 -14.45 7.65 -14.6 10.1 -14.45 12.2 -10.3 14.3 -6.15 14.45 0.1" fill="#9b2e93" fill-rule="evenodd" stroke="none"/>
    <path d="M13.2 0.15 Q13.1 5.1 11.45 8.4 9.85 11.7 7.85 11.8 5.15 11.7 3.3 8.45 1.5 5.15 1.45 0.25 1.5 -4.7 3.3 -7.95 5.15 -11.25 7.85 -11.35 9.8 -11.25 11.45 -8.0 13.1 -4.75 13.2 0.15" fill="#ffffff" fill-rule="evenodd" stroke="none"/>
  </g>
  <defs>
    <linearGradient gradientTransform="matrix(0.0059, -0.0163, 0.0163, 0.0059, 1.0, -1.9)" gradientUnits="userSpaceOnUse" id="gradient0" spreadMethod="pad" x1="-819.2" x2="819.2">
      <stop offset="0.0" stop-color="#360a39"/>
      <stop offset="1.0" stop-color="#811788"/>
    </linearGradient>
  </defs>
</svg>
