<?xml version="1.0" encoding="UTF-8" standalone="no"?>
<svg xmlns:xlink="http://www.w3.org/1999/xlink" height="408.15px" width="609.55px" xmlns="http://www.w3.org/2000/svg">
  <g transform="matrix(1.0, 0.0, 0.0, 1.0, 4.2, 4.55)">
    <path d="M599.9 48.05 Q599.3 41.65 592.95 41.05 L7.7 41.05 Q1.35 41.65 0.75 48.05 L0.75 351.2 Q1.35 357.55 7.7 358.15 L592.95 358.15 Q599.3 357.55 599.9 351.2 L599.9 48.05 M2.75 -4.55 L597.9 -4.55 Q604.35 -3.95 604.85 2.4 L605.3 394.5 Q605.65 395.0 604.35 399.05 603.0 403.1 595.9 403.6 L532.35 403.55 437.75 403.5 324.15 403.4 207.75 403.3 104.6 403.2 30.9 403.15 2.75 403.1 Q-3.6 402.5 -4.2 396.15 L-4.2 2.4 Q-3.6 -3.95 2.75 -4.55" fill="#ffffff" fill-rule="evenodd" stroke="none"/>
  </g>
</svg>
