<?xml version="1.0" encoding="UTF-8" standalone="no"?>
<svg xmlns:xlink="http://www.w3.org/1999/xlink" height="73.35px" width="6.75px" xmlns="http://www.w3.org/2000/svg">
  <g transform="matrix(1.0, 0.0, 0.0, 1.0, 2.85, 50.85)">
    <path d="M2.75 -23.5 Q1.6 -3.1 2.35 6.6 3.1 16.3 0.25 17.0 L0.7 17.0 2.2 22.25 0.25 20.7 -2.1 21.65 -1.2 16.95 0.05 17.0 Q-3.25 16.35 -1.05 3.5 1.1 -9.4 -1.1 -28.0 -3.35 -46.6 -2.25 -48.7 -1.1 -50.8 1.7 -50.6 4.45 -50.45 3.35 -43.1 2.2 -35.75 2.75 -23.5 M0.05 17.0 L0.25 17.0 0.05 17.0" fill="#ff0000" fill-rule="evenodd" stroke="none"/>
    <path d="M2.75 -23.5 Q1.6 -3.1 2.35 6.6 3.1 16.3 0.25 17.0 L0.7 17.0 2.2 22.25 0.25 20.7 -2.1 21.65 -1.2 16.95 0.05 17.0 Q-3.25 16.35 -1.05 3.5 1.1 -9.4 -1.1 -28.0 -3.35 -46.6 -2.25 -48.7 -1.1 -50.8 1.7 -50.6 4.45 -50.45 3.35 -43.1 2.2 -35.75 2.75 -23.5 M0.25 17.0 L0.05 17.0" fill="none" stroke="#000000" stroke-linecap="round" stroke-linejoin="round" stroke-width="0.55"/>
  </g>
</svg>
