<?xml version="1.0" encoding="UTF-8" standalone="no"?>
<svg xmlns:xlink="http://www.w3.org/1999/xlink" height="32.35px" width="12.2px" xmlns="http://www.w3.org/2000/svg">
  <g transform="matrix(1.0, 0.0, 0.0, 1.0, 1.1, 8.2)">
    <path d="M-0.2 8.3 L-0.5 -7.9 Q1.7 -7.95 5.15 -6.4 8.6 -4.8 10.55 2.55 11.5 8.6 8.7 10.65 5.9 12.7 4.3 13.1 6.9 21.6 6.2 22.5 L4.95 21.4 4.8 23.2 3.9 21.85 Q4.05 22.95 3.6 23.85 2.05 19.85 0.55 17.6 -0.9 15.35 -0.8 13.9 -0.15 12.45 1.5 10.4 3.1 8.4 -0.2 8.3" fill="#4c8335" fill-rule="evenodd" stroke="none"/>
    <path d="M-0.2 8.3 Q3.1 8.4 1.5 10.4 -0.15 12.45 -0.8 13.9 -0.9 15.35 0.55 17.6 2.05 19.85 3.6 23.85 4.05 22.95 3.9 21.85 L4.8 23.2 4.95 21.4 6.2 22.5 Q6.9 21.6 4.3 13.1 5.9 12.7 8.7 10.65 11.5 8.6 10.55 2.55 8.6 -4.8 5.15 -6.4 1.7 -7.95 -0.5 -7.9" fill="none" stroke="#000000" stroke-linecap="round" stroke-linejoin="round" stroke-width="0.6000000000000001"/>
  </g>
</svg>
