<?xml version="1.0" encoding="UTF-8" standalone="no"?>
<svg xmlns:xlink="http://www.w3.org/1999/xlink" height="14.6px" width="4.4px" xmlns="http://www.w3.org/2000/svg">
  <g transform="matrix(1.0, 0.0, 0.0, 1.0, 2.15, 14.6)">
    <path d="M-0.5 -11.25 L-0.15 -13.6 Q0.0 -11.0 0.3 -10.45 0.0 -11.1 0.85 -13.4 0.6 -11.7 0.95 -10.1 L1.45 -5.85 1.95 -1.6 Q0.5 0.1 -0.65 0.0 L-1.8 -0.2 -1.85 -0.35 Q-0.05 -6.35 -1.05 -10.75 -1.5 -14.3 -1.1 -14.3 L-0.5 -11.25 -0.35 -10.25 -0.5 -11.25" fill="#4c8335" fill-rule="evenodd" stroke="none"/>
    <path d="M1.95 -1.6 L1.45 -5.85 0.95 -10.1 Q0.6 -11.7 0.85 -13.4 0.0 -11.1 0.3 -10.45 0.0 -11.0 -0.15 -13.6 L-0.5 -11.25 -0.35 -10.25 M-0.5 -11.25 L-1.1 -14.3 Q-1.5 -14.3 -1.05 -10.75 -0.05 -6.35 -1.85 -0.35" fill="none" stroke="#000000" stroke-linecap="round" stroke-linejoin="round" stroke-width="0.6000000000000001"/>
  </g>
</svg>
