<?xml version="1.0" encoding="UTF-8" standalone="no"?>
<svg xmlns:xlink="http://www.w3.org/1999/xlink" height="81.85px" width="42.15px" xmlns="http://www.w3.org/2000/svg">
  <g transform="matrix(1.0, 0.0, 0.0, 1.0, 28.05, 8.55)">
    <path d="M-6.55 19.15 L-19.5 59.45 -27.35 72.6 -27.75 69.9 -25.7 69.25 -27.0 66.45 -25.0 65.5 -26.6 62.4 -23.55 60.5 -25.95 57.6 -22.65 56.3 -24.6 53.85 -22.3 52.45 -23.5 49.55 -21.5 48.2 -23.5 45.3 -21.35 43.3 -24.4 40.5 -21.45 38.4 -23.9 35.25 -20.65 33.7 -22.75 30.2 -19.25 29.85 -20.05 25.95 -16.65 26.25 -17.5 21.75 -13.1 21.7 -14.25 18.8 -10.55 18.85 -12.35 16.15 -8.9 16.25 -10.55 13.6 -7.7 13.3 -8.9 11.15 -7.4 10.8 -9.3 8.7 -8.15 7.6 -10.15 6.6 -8.85 5.05 -5.8 11.35 -6.55 19.15" fill="#f3e016" fill-rule="evenodd" stroke="none"/>
    <path d="M-6.55 19.15 L-19.5 59.45 -27.35 72.6 -27.75 69.9 -25.7 69.25 -27.0 66.45 -25.0 65.5 -26.6 62.4 -23.55 60.5 -25.95 57.6 -22.65 56.3 -24.6 53.85 -22.3 52.45 -23.5 49.55 -21.5 48.2 -23.5 45.3 -21.35 43.3 -24.4 40.5 -21.45 38.4 -23.9 35.25 -20.65 33.7 -22.75 30.2 -19.25 29.85 -20.05 25.95 -16.65 26.25 -17.5 21.75 -13.1 21.7 -14.25 18.8 -10.55 18.85 -12.35 16.15 -8.9 16.25 -10.55 13.6 -7.7 13.3 -8.9 11.15 -7.4 10.8 -9.3 8.7 -8.15 7.6 -10.15 6.6 -8.85 5.05 -5.8 11.35 -6.55 19.15 Z" fill="none" stroke="#000000" stroke-linecap="round" stroke-linejoin="round" stroke-width="0.6000000000000001"/>
    <path d="M-27.15 72.15 L-25.05 65.95 Q-22.8 58.9 -21.65 44.7 -21.9 33.8 -18.65 28.65 -15.35 23.55 -9.8 17.2 -7.5 13.8 -7.75 10.95 -8.0 8.05 -8.35 6.1 L-7.55 2.95 Q-6.7 0.3 -4.9 1.6 -5.3 2.3 -3.75 6.85 -2.2 11.4 2.6 17.2 3.45 17.5 8.45 24.2 13.5 30.85 12.85 39.95 12.15 49.0 -4.05 56.6 -7.15 57.75 -8.7 58.1 -10.25 58.45 -16.65 61.35 -22.3 64.75 -24.95 68.7 L-27.15 72.15" fill="#4c8335" fill-rule="evenodd" stroke="none"/>
    <path d="M-27.15 72.15 L-25.05 65.95 Q-22.8 58.9 -21.65 44.7 -21.9 33.8 -18.65 28.65 -15.35 23.55 -9.8 17.2 -7.5 13.8 -7.75 10.95 -8.0 8.05 -8.35 6.1 L-7.55 2.95 Q-6.7 0.3 -4.9 1.6 -5.3 2.3 -3.75 6.85 -2.2 11.4 2.6 17.2 3.45 17.5 8.45 24.2 13.5 30.85 12.85 39.95 12.15 49.0 -4.05 56.6 -7.15 57.75 -8.7 58.1 -10.25 58.45 -16.65 61.35 -22.3 64.75 -24.95 68.7 L-27.15 72.15 -27.6 73.0" fill="none" stroke="#000000" stroke-linecap="round" stroke-linejoin="round" stroke-width="0.6000000000000001"/>
    <path d="M-7.2 25.2 Q-4.8 22.4 -3.75 20.0 -2.7 17.55 -0.75 16.9 1.1 16.5 1.95 17.8 2.8 19.1 6.3 21.4 8.95 23.0 12.05 30.55 15.15 38.05 12.7 46.35 10.3 54.65 -3.75 58.5 -10.7 50.45 -10.95 40.1 -11.2 29.75 -7.2 25.2" fill="#f3e016" fill-rule="evenodd" stroke="none"/>
    <path d="M-7.2 25.2 Q-11.2 29.75 -10.95 40.1 -10.7 50.45 -3.75 58.5 10.3 54.65 12.7 46.35 15.15 38.05 12.05 30.55 8.95 23.0 6.3 21.4 2.8 19.1 1.95 17.8 1.1 16.5 -0.75 16.9 -2.7 17.55 -3.75 20.0 -4.8 22.4 -7.2 25.2 Z" fill="none" stroke="#000000" stroke-linecap="round" stroke-linejoin="round" stroke-width="0.6000000000000001"/>
    <path d="M-7.2 -5.05 L-8.65 4.95 -11.25 3.9 -9.5 2.3 -12.35 1.4 -10.65 0.05 -13.05 -1.75 Q-11.15 -1.8 -10.8 -2.2 -12.2 -2.9 -12.75 -4.6 -10.6 -3.65 -10.5 -4.15 -11.2 -4.7 -10.65 -7.35 -9.65 -5.2 -9.3 -5.7 -9.95 -6.4 -5.5 -8.25 -7.25 -6.75 -7.3 -5.9 L-7.2 -5.05" fill="#f3e016" fill-rule="evenodd" stroke="none"/>
    <path d="M-7.2 -5.05 L-8.65 4.95 -11.25 3.9 -9.5 2.3 -12.35 1.4 -10.65 0.05 -13.05 -1.75 Q-11.15 -1.8 -10.8 -2.2 -12.2 -2.9 -12.75 -4.6 -10.6 -3.65 -10.5 -4.15 -11.2 -4.7 -10.65 -7.35 -9.65 -5.2 -9.3 -5.7 -9.95 -6.4 -5.5 -8.25 -7.25 -6.75 -7.3 -5.9 L-7.2 -5.05 Z" fill="none" stroke="#000000" stroke-linecap="round" stroke-linejoin="round" stroke-width="0.6000000000000001"/>
    <path d="M-7.8 9.25 Q-8.45 5.75 -9.25 4.2 L-10.35 1.7 -10.95 -1.95 Q-11.1 -4.05 -10.1 -5.15 -8.25 -7.45 -4.3 -3.45 -1.85 -0.25 1.65 -0.95 1.95 -0.7 1.7 1.1 1.45 2.9 -2.75 3.65 L-3.65 1.65 -7.8 9.25" fill="#4c8335" fill-rule="evenodd" stroke="none"/>
    <path d="M-7.8 9.25 Q-8.45 5.75 -9.25 4.2 L-10.35 1.7 -10.95 -1.95 Q-11.1 -4.05 -10.1 -5.15 -8.25 -7.45 -4.3 -3.45 -1.85 -0.25 1.65 -0.95 1.95 -0.7 1.7 1.1 1.45 2.9 -2.75 3.65 L-3.65 1.65" fill="none" stroke="#000000" stroke-linecap="round" stroke-linejoin="round" stroke-width="0.6000000000000001"/>
    <path d="M-4.65 2.1 L-1.95 2.85 -3.3 3.1 Q-4.45 3.35 -4.75 4.4 L-4.65 2.1" fill="#4c8335" fill-rule="evenodd" stroke="none"/>
    <path d="M-4.75 4.4 Q-4.45 3.35 -3.3 3.1 L-1.95 2.85 -4.65 2.1" fill="none" stroke="#000000" stroke-linecap="round" stroke-linejoin="round" stroke-width="0.6000000000000001"/>
    <path d="M1.15 4.0 Q0.85 4.4 1.0 6.3 -0.4 5.05 -0.75 4.15 L1.15 4.0" fill="#ffffff" fill-rule="evenodd" stroke="none"/>
    <path d="M1.15 4.0 Q0.85 4.4 1.0 6.3 -0.4 5.05 -0.75 4.15" fill="none" stroke="#000000" stroke-linecap="round" stroke-linejoin="round" stroke-width="0.6000000000000001"/>
    <path d="M5.95 1.2 L5.8 2.35 Q5.7 3.4 5.3 3.9 4.6 2.1 4.15 1.9 L5.95 1.2" fill="#ffffff" fill-rule="evenodd" stroke="none"/>
    <path d="M4.15 1.9 Q4.6 2.1 5.3 3.9 5.7 3.4 5.8 2.35 L5.95 1.2" fill="none" stroke="#000000" stroke-linecap="round" stroke-linejoin="round" stroke-width="0.6000000000000001"/>
    <path d="M-2.15 -0.3 Q-0.65 -2.3 2.2 -2.25 4.4 -3.9 5.25 -3.4 8.05 -2.15 5.35 2.05 L3.75 2.4 Q2.45 2.5 0.95 4.2 0.4 5.15 -0.5 5.3 -1.35 5.5 -3.45 3.4 -4.8 1.85 -5.95 1.9 -7.1 2.0 -9.25 0.2 L-2.15 -0.3" fill="#4c8335" fill-rule="evenodd" stroke="none"/>
    <path d="M-2.15 -0.3 Q-0.65 -2.3 2.2 -2.25 4.4 -3.9 5.25 -3.4 8.05 -2.15 5.35 2.05 L3.75 2.4 Q2.45 2.5 0.95 4.2 0.4 5.15 -0.5 5.3 -1.35 5.5 -3.45 3.4 -4.8 1.85 -5.95 1.9 -7.1 2.0 -9.25 0.2" fill="none" stroke="#000000" stroke-linecap="round" stroke-linejoin="round" stroke-width="0.6000000000000001"/>
    <path d="M0.65 1.25 Q1.1 2.3 0.6 2.65 0.0 2.75 -0.5 1.8 -0.95 0.8 -0.4 0.45 0.15 0.25 0.65 1.25" fill="#000000" fill-rule="evenodd" stroke="none"/>
    <path d="M5.7 -0.5 Q5.55 0.7 4.9 0.75 4.25 0.6 4.3 -0.6 4.45 -1.8 5.15 -1.85 5.75 -1.7 5.7 -0.5" fill="#000000" fill-rule="evenodd" stroke="none"/>
    <path d="M-3.25 -4.35 Q-2.85 -3.2 -3.6 -2.75 -4.5 -2.5 -5.05 -3.6 -5.4 -4.75 -4.65 -5.2 -3.8 -5.45 -3.25 -4.35" fill="#ffffff" fill-rule="evenodd" stroke="none"/>
    <path d="M-3.25 -4.35 Q-2.85 -3.2 -3.6 -2.75 -4.5 -2.5 -5.05 -3.6 -5.4 -4.75 -4.65 -5.2 -3.8 -5.45 -3.25 -4.35 Z" fill="none" stroke="#000000" stroke-linecap="round" stroke-linejoin="round" stroke-width="0.55"/>
    <path d="M-4.5 -4.25 Q-4.25 -4.3 -4.1 -4.05 -4.05 -3.8 -4.25 -3.7 -4.5 -3.6 -4.6 -3.85 L-4.5 -4.25" fill="#000000" fill-rule="evenodd" stroke="none"/>
    <path d="M-5.75 -3.4 Q-5.65 -2.2 -6.5 -1.95 -7.4 -1.95 -7.65 -3.15 -7.75 -4.4 -6.85 -4.6 -6.0 -4.6 -5.75 -3.4" fill="#ffffff" fill-rule="evenodd" stroke="none"/>
    <path d="M-5.75 -3.4 Q-5.65 -2.2 -6.5 -1.95 -7.4 -1.95 -7.65 -3.15 -7.75 -4.4 -6.85 -4.6 -6.0 -4.6 -5.75 -3.4 Z" fill="none" stroke="#000000" stroke-linecap="round" stroke-linejoin="round" stroke-width="0.55"/>
    <path d="M-6.65 -3.25 Q-6.65 -2.95 -6.9 -2.9 L-7.2 -3.15 -6.95 -3.5 -6.65 -3.25" fill="#000000" fill-rule="evenodd" stroke="none"/>
  </g>
</svg>
