<?xml version="1.0" encoding="UTF-8" standalone="no"?>
<svg xmlns:xlink="http://www.w3.org/1999/xlink" height="16.8px" width="70.0px" xmlns="http://www.w3.org/2000/svg">
  <g transform="matrix(1.0, 0.0, 0.0, 1.0, 0.0, 0.0)">
    <path d="M69.75 11.8 Q69.6 12.6 68.4 13.9 L66.65 15.8 Q65.65 16.75 64.15 16.8 L3.4 16.8 Q0.3 16.55 0.0 13.4 L0.0 6.05 Q0.05 4.4 1.2 3.45 L2.8 1.75 Q3.85 0.55 4.6 0.4 L64.15 2.6 Q67.3 2.9 67.6 6.05 L69.75 11.8" fill="#890c08" fill-rule="evenodd" stroke="none"/>
    <path d="M70.0 10.8 Q69.7 13.9 66.55 14.2 L5.8 14.2 Q2.7 13.9 2.4 10.8 L2.4 3.4 Q2.7 0.3 5.8 0.0 L66.55 0.0 Q69.7 0.3 70.0 3.4 L70.0 10.8" fill="#ffffff" fill-rule="evenodd" stroke="none"/>
    <path d="M7.45 1.7 L7.45 12.75 7.05 12.75 Q4.65 12.55 4.4 10.1 L4.4 4.35 Q4.65 1.95 7.05 1.7 L7.45 1.7" fill="#ff0000" fill-rule="evenodd" stroke="none"/>
  </g>
</svg>
