<?xml version="1.0" encoding="UTF-8" standalone="no"?>
<svg xmlns:xlink="http://www.w3.org/1999/xlink" height="24.3px" width="34.25px" xmlns="http://www.w3.org/2000/svg">
  <g transform="matrix(1.0, 0.0, 0.0, 1.0, 17.15, 12.15)">
    <path d="M-17.05 -7.25 Q-17.05 -8.25 -14.8 -8.85 L2.05 -12.05 Q5.55 -12.55 7.65 -10.85 L16.65 -2.05 17.1 -1.2 17.1 -0.8 Q16.9 0.05 14.9 0.6 L-2.05 3.8 Q-5.55 4.3 -7.65 2.65 L-16.6 -6.2 Q-17.1 -6.75 -17.05 -7.25 M2.9 -6.2 L-3.3 -4.8 -5.05 -6.65 -6.3 -2.2 0.8 -0.35 -1.2 -2.35 5.6 -3.65 2.9 -6.2" fill="#ee3f1a" fill-rule="evenodd" stroke="none"/>
    <path d="M2.9 -6.2 L5.6 -3.65 -1.2 -2.35 0.8 -0.35 -6.3 -2.2 -5.05 -6.65 -3.3 -4.8 2.9 -6.2" fill="#ffffff" fill-rule="evenodd" stroke="none"/>
    <path d="M17.1 -0.8 L17.0 7.0 Q17.15 8.25 14.8 8.85 L-2.05 12.05 Q-5.65 12.55 -7.65 10.85 L-16.6 2.1 Q-17.25 1.5 -17.1 0.95 L-17.1 -7.25 -17.05 -7.25 Q-17.1 -6.75 -16.6 -6.2 L-7.65 2.65 Q-5.55 4.3 -2.05 3.8 L14.9 0.6 Q16.9 0.05 17.1 -0.8" fill="url(#gradient0)" fill-rule="evenodd" stroke="none"/>
  </g>
  <defs>
    <linearGradient gradientTransform="matrix(0.0209, 0.0, 0.0, 0.0209, 0.0, 2.45)" gradientUnits="userSpaceOnUse" id="gradient0" spreadMethod="pad" x1="-819.2" x2="819.2">
      <stop offset="0.30196078431372547" stop-color="#7e1f08"/>
      <stop offset="0.4823529411764706" stop-color="#de2d09"/>
    </linearGradient>
  </defs>
</svg>
