<?xml version="1.0" encoding="UTF-8" standalone="no"?>
<svg xmlns:xlink="http://www.w3.org/1999/xlink" height="273.85px" width="298.65px" xmlns="http://www.w3.org/2000/svg">
  <g transform="matrix(1.0, 0.0, 0.0, 1.0, 149.15, 136.9)">
    <path d="M14.3 -136.0 Q18.75 -137.55 23.5 -136.45 L29.0 -135.7 31.5 -135.15 Q37.5 -132.35 42.85 -129.35 L46.1 -126.8 Q50.4 -122.55 54.2 -117.8 57.1 -114.2 59.35 -109.6 59.35 -103.3 58.1 -97.2 56.9 -91.1 53.35 -86.0 48.55 -79.0 45.35 -71.1 L52.8 -70.35 57.1 -70.1 57.35 -70.1 58.6 -70.2 69.25 -71.2 77.5 -72.1 86.85 -73.35 102.85 -75.85 127.5 -79.95 135.0 -81.2 142.0 -82.1 127.35 15.65 Q126.7 15.55 126.25 15.15 121.9 11.85 118.3 7.75 113.4 2.25 106.95 -1.1 101.95 -3.8 96.4 -4.95 L88.35 -5.2 Q82.85 -4.45 77.95 -2.05 72.75 0.55 68.6 4.6 66.6 6.55 65.25 9.1 64.75 10.1 64.6 11.2 63.95 16.25 63.75 21.4 L63.85 24.65 64.15 26.25 Q65.9 31.2 68.7 35.65 70.95 39.2 74.25 42.0 79.9 46.7 87.0 47.8 L90.75 48.3 Q98.3 49.95 105.8 47.0 L108.75 45.65 Q115.6 42.1 121.9 37.15 123.55 35.85 125.6 35.65 127.55 51.05 129.85 66.15 133.65 91.15 143.95 114.5 147.15 121.7 149.5 129.4 L148.1 129.65 86.35 120.55 70.85 119.15 34.6 118.3 34.6 117.4 35.65 116.1 Q41.95 109.9 46.95 102.65 L47.3 101.85 Q48.1 97.7 49.25 93.8 48.65 83.9 44.4 74.95 L43.85 74.1 Q41.3 70.9 38.05 68.2 35.45 65.95 32.5 64.4 30.75 63.45 28.9 63.0 23.3 61.8 18.0 63.0 8.05 64.95 0.05 70.95 -8.7 77.65 -10.95 88.95 -11.55 92.05 -11.4 95.3 -11.15 99.95 -9.35 104.25 -6.3 111.65 -0.4 117.3 L-0.15 118.55 -1.4 119.05 -53.75 128.05 -59.4 129.1 Q-76.6 132.45 -93.7 136.3 L-101.25 136.8 Q-101.55 135.1 -101.35 133.4 L-98.7 105.4 -96.6 82.6 Q-95.45 71.1 -94.85 59.55 L-94.85 56.4 Q-94.9 53.5 -95.85 51.25 -98.25 51.1 -100.45 52.1 L-105.85 54.8 Q-116.9 60.55 -128.9 56.15 -130.9 55.35 -133.05 54.0 L-137.35 50.8 Q-141.1 47.5 -143.65 43.35 -146.75 38.35 -148.05 32.7 -150.15 23.55 -148.15 15.15 -143.45 8.45 -136.85 4.15 L-135.3 3.35 Q-130.05 0.75 -124.5 -1.35 L-115.3 -0.3 Q-110.9 0.5 -106.85 2.85 L-100.85 6.1 -93.0 10.15 -92.45 5.15 Q-92.35 4.45 -92.4 3.65 -92.9 -6.05 -94.15 -15.7 -97.65 -43.0 -101.5 -70.45 -101.85 -73.1 -101.75 -75.7 L-56.4 -71.35 -48.65 -70.6 -43.65 -70.35 Q-22.35 -70.15 -1.1 -70.25 L-1.15 -70.35 -1.2 -70.6 Q0.0 -73.45 -3.65 -76.15 L-5.35 -77.65 Q-11.85 -84.6 -15.15 -93.7 L-15.45 -94.65 Q-16.85 -100.45 -17.15 -106.6 L-14.5 -114.85 -13.7 -116.55 -7.75 -124.2 -6.05 -125.8 -1.3 -129.15 2.4 -131.6 Q4.4 -133.05 6.75 -133.7 L14.3 -136.0" fill="#11b1ee" fill-rule="evenodd" stroke="none"/>
  </g>
</svg>
