<?xml version="1.0" encoding="UTF-8" standalone="no"?>
<svg xmlns:xlink="http://www.w3.org/1999/xlink" height="76.65px" width="266.5px" xmlns="http://www.w3.org/2000/svg">
  <g transform="matrix(1.0, 0.0, 0.0, 1.0, 133.25, 38.35)">
    <path d="M-44.1 -35.6 Q-31.5 -39.3 -22.55 -38.0 -3.75 -35.1 14.8 -23.45 33.35 -11.8 42.6 5.35 62.85 -8.25 79.5 -6.1 96.1 -4.0 108.1 5.8 120.15 15.6 126.65 24.85 133.15 34.15 133.25 34.85 L133.25 36.55 109.1 36.75 50.3 37.15 -22.75 37.7 -89.7 38.1 -130.15 38.3 Q-137.15 22.65 -128.3 13.15 -119.45 3.65 -104.7 1.05 -89.95 -1.5 -79.2 3.65 -77.25 -12.75 -67.0 -22.35 -56.75 -31.9 -44.1 -35.6" fill="#e6f6f9" fill-rule="evenodd" stroke="none"/>
  </g>
</svg>
