<?xml version="1.0" encoding="UTF-8" standalone="no"?>
<svg xmlns:xlink="http://www.w3.org/1999/xlink" height="51.1px" width="59.3px" xmlns="http://www.w3.org/2000/svg">
  <g transform="matrix(1.0, 0.0, 0.0, 1.0, 14.6, 25.7)">
    <path d="M17.4 -4.1 L17.0 -3.9 17.3 -4.05 17.4 -4.1 M22.95 -5.7 L23.8 -5.75 24.25 -5.8 24.55 -5.8 22.95 -5.7 M30.55 11.45 L30.4 11.5 30.35 11.5 30.55 11.45 M30.3 11.5 L30.2 11.5 30.1 11.5 29.85 11.55 29.6 11.55 29.5 11.6 29.35 11.6 28.55 11.75 28.45 11.75 22.35 14.4 22.25 14.45 22.15 14.5 21.8 14.75 21.75 14.75 21.8 14.75 22.15 14.5 21.8 14.75 Q25.9 11.75 30.3 11.5 M16.8 17.8 L16.6 17.85 17.5 17.55 16.8 17.8" fill="#648e4c" fill-rule="evenodd" stroke="none"/>
    <path d="M39.85 9.2 Q37.95 16.25 35.7 17.65 35.9 15.35 34.7 12.5 L34.3 11.7 35.15 11.8 37.25 11.55 39.85 9.2 M21.8 14.75 L21.85 14.75 20.6 17.15 Q19.4 20.0 19.6 22.3 18.25 21.5 16.8 17.8 L17.5 17.55 19.85 16.2 20.1 16.0 20.25 15.9 20.35 15.85 20.9 15.4 21.75 14.75 21.8 14.75" fill="#ffffff" fill-rule="evenodd" stroke="none"/>
    <path d="M36.0 1.95 Q37.35 -2.25 39.65 -1.55 41.95 -0.8 40.6 3.45 39.15 7.65 36.9 6.9 34.55 6.15 36.0 1.95 M21.05 9.75 Q18.85 10.2 18.05 6.15 17.25 2.15 19.4 1.7 21.55 1.25 22.45 5.3 23.25 9.3 21.05 9.75" fill="#000000" fill-rule="evenodd" stroke="none"/>
    <path d="M17.4 -4.1 L17.3 -4.05 17.0 -3.9 17.4 -4.1 17.45 -4.1 17.55 -4.2 18.2 -4.5 22.95 -5.7 24.55 -5.8 28.2 -5.55 29.05 -5.4 29.7 -5.3 30.15 -5.2 Q34.55 -7.25 37.2 -7.4 38.9 -7.5 41.2 -6.6 45.75 -4.85 44.35 1.1 43.35 5.5 39.85 9.2 L37.25 11.55 35.15 11.8 34.3 11.7 31.65 11.45 31.5 11.45 31.05 11.45 30.8 11.45 30.7 11.45 30.65 11.45 30.55 11.45 30.35 11.5 30.3 11.5 Q25.9 11.75 21.8 14.75 L21.75 14.75 20.9 15.4 20.35 15.85 20.25 15.9 20.1 16.0 19.85 16.2 17.5 17.55 16.6 17.85 16.45 17.9 15.65 17.95 15.55 17.95 15.35 17.9 Q11.9 17.25 7.05 9.2 L6.9 8.85 6.7 8.5 Q2.9 9.1 2.0 11.6 L1.8 10.05 -11.85 25.4 Q-11.2 15.3 -12.75 7.55 -14.45 1.0 -14.55 -1.6 -15.25 -20.55 -8.4 -24.15 -3.9 -26.85 0.0 -24.8 4.2 -22.65 9.6 -14.1 14.05 -6.9 16.8 -4.6 L17.4 -4.1 M-9.75 -5.85 Q-5.8 0.05 -0.2 2.4 L0.95 2.95 Q4.9 4.95 6.9 8.85 4.9 4.95 0.95 2.95 L-0.2 2.4 Q-5.8 0.05 -9.75 -5.85 M17.0 -3.9 L16.65 -3.7 Q15.5 -3.05 14.5 -2.2 15.5 -3.05 16.65 -3.7 L17.0 -3.9 M21.05 9.75 Q23.25 9.3 22.45 5.3 21.55 1.25 19.4 1.7 17.25 2.15 18.05 6.15 18.85 10.2 21.05 9.75 M36.0 1.95 Q34.55 6.15 36.9 6.9 39.15 7.65 40.6 3.45 41.95 -0.8 39.65 -1.55 37.35 -2.25 36.0 1.95" fill="#4c8335" fill-rule="evenodd" stroke="none"/>
    <path d="M17.4 -4.1 L17.3 -4.05 17.0 -3.9 17.4 -4.1 16.8 -4.6 Q14.05 -6.9 9.6 -14.1 4.2 -22.65 0.0 -24.8 -3.9 -26.85 -8.4 -24.15 -15.25 -20.55 -14.55 -1.6 -14.45 1.0 -12.75 7.55 -11.2 15.3 -11.85 25.4 M2.0 11.6 Q2.9 9.1 6.7 8.5 L6.9 8.85 Q4.9 4.95 0.95 2.95 L-0.2 2.4 Q-5.8 0.05 -9.75 -5.85 M17.4 -4.1 L17.45 -4.1 17.55 -4.2 17.4 -4.1 M14.5 -2.2 Q15.5 -3.05 16.65 -3.7 L17.0 -3.9 M17.55 -4.2 L18.2 -4.5 22.95 -5.7 23.8 -5.75 24.25 -5.8 24.55 -5.8 28.2 -5.55 29.05 -5.4 29.7 -5.3 30.15 -5.2 Q34.55 -7.25 37.2 -7.4 38.9 -7.5 41.2 -6.6 45.75 -4.85 44.35 1.1 43.35 5.5 39.85 9.2 37.95 16.25 35.7 17.65 35.9 15.35 34.7 12.5 L34.3 11.7 31.65 11.45 31.5 11.45 31.05 11.45 30.8 11.45 30.7 11.45 30.65 11.45 30.55 11.45 30.35 11.5 30.3 11.5 30.2 11.5 30.1 11.5 29.85 11.55 29.6 11.55 29.5 11.6 29.35 11.6 28.55 11.75 28.45 11.75 22.35 14.4 22.15 14.5 21.8 14.75 Q25.9 11.75 30.3 11.5 M21.85 14.75 L20.6 17.15 Q19.4 20.0 19.6 22.3 18.25 21.5 16.8 17.8 M16.6 17.85 L16.45 17.9 15.65 17.95 15.55 17.95 15.35 17.9 Q11.9 17.25 7.05 9.2 L6.9 8.85 M22.95 -5.7 L24.55 -5.8 M39.85 9.2 L37.25 11.55 35.15 11.8 34.3 11.7 M21.8 14.75 L21.75 14.75 20.9 15.4 20.35 15.85 20.25 15.9 20.1 16.0 19.85 16.2 17.5 17.55 16.6 17.85 M22.35 14.4 L22.25 14.45" fill="none" stroke="#000000" stroke-linecap="round" stroke-linejoin="round" stroke-width="0.05"/>
  </g>
</svg>
