<?xml version="1.0" encoding="UTF-8" standalone="no"?>
<svg xmlns:xlink="http://www.w3.org/1999/xlink" height="51.1px" width="59.4px" xmlns="http://www.w3.org/2000/svg">
  <g transform="matrix(1.0, 0.0, 0.0, 1.0, 14.6, 25.7)">
    <path d="M1.6 10.75 L1.75 10.8 1.3 11.65 1.6 10.75 M6.25 5.05 L5.75 3.85 5.6 3.9 5.7 3.65 5.75 3.85 5.7 3.65 5.9 3.25 6.9 4.35 6.25 5.05" fill="#648e4c" fill-rule="evenodd" stroke="none"/>
    <path d="M39.7 -7.1 Q42.0 -6.3 40.65 -2.1 39.3 2.15 36.95 1.4 34.7 0.7 36.05 -3.6 37.45 -7.85 39.7 -7.1 M5.6 3.9 Q5.6 4.6 6.7 7.6 7.45 10.25 5.7 10.05 2.85 9.65 -2.4 1.0 -2.65 0.6 -2.35 0.4 L0.35 1.1 Q3.35 1.55 4.5 2.2 L5.9 3.25 5.7 3.65 5.6 3.9 M22.5 -0.25 Q23.3 3.75 21.15 4.2 18.9 4.65 18.15 0.65 17.25 -3.4 19.5 -3.85 21.7 -4.3 22.5 -0.25" fill="#000000" fill-rule="evenodd" stroke="none"/>
    <path d="M39.95 3.65 Q38.0 10.75 35.75 12.1 35.95 9.8 34.75 6.95 L34.35 6.15 35.2 6.25 37.3 6.05 39.95 3.65 M21.75 9.3 L21.95 9.25 20.7 11.65 Q19.5 14.5 19.7 16.8 18.35 16.0 16.95 13.45 L18.5 12.25 21.0 9.85 21.75 9.3" fill="#ffffff" fill-rule="evenodd" stroke="none"/>
    <path d="M39.7 -7.1 Q37.45 -7.85 36.05 -3.6 34.7 0.7 36.95 1.4 39.3 2.15 40.65 -2.1 42.0 -6.3 39.7 -7.1 M15.65 -7.85 L14.2 -6.7 15.65 -7.85 Q21.85 -12.45 30.2 -10.75 34.65 -12.8 37.25 -12.95 39.0 -13.05 41.25 -12.15 45.85 -10.4 44.45 -4.4 43.4 0.0 39.95 3.65 L37.3 6.05 35.2 6.25 34.35 6.15 31.7 5.9 Q26.55 5.75 21.75 9.3 L21.0 9.85 18.5 12.25 16.95 13.45 16.0 13.8 Q12.9 14.35 8.2 6.55 L6.9 4.35 5.9 3.25 4.5 2.2 Q3.35 1.55 0.35 1.1 L-2.35 0.4 Q-2.65 0.6 -2.4 1.0 2.85 9.65 5.7 10.05 7.45 10.25 6.7 7.6 5.6 4.6 5.6 3.9 L5.75 3.85 6.25 5.05 Q9.0 12.1 7.8 12.3 7.3 12.4 4.3 10.4 L3.5 10.05 3.45 10.0 1.75 10.8 1.6 10.75 1.9 9.95 -11.85 25.4 Q-11.2 15.3 -12.75 7.55 -14.45 1.0 -14.55 -1.6 -15.25 -20.55 -8.4 -24.15 -3.9 -26.85 0.0 -24.8 4.2 -22.65 9.6 -14.1 12.5 -9.45 15.65 -7.85 M-9.75 -5.85 Q-6.65 -1.25 -2.35 0.4 -6.65 -1.25 -9.75 -5.85 M22.5 -0.25 Q21.7 -4.3 19.5 -3.85 17.25 -3.4 18.15 0.65 18.9 4.65 21.15 4.2 23.3 3.75 22.5 -0.25" fill="#4c8335" fill-rule="evenodd" stroke="none"/>
    <path d="M14.2 -6.7 L15.65 -7.85 Q12.5 -9.45 9.6 -14.1 4.2 -22.65 0.0 -24.8 -3.9 -26.85 -8.4 -24.15 -15.25 -20.55 -14.55 -1.6 -14.45 1.0 -12.75 7.55 -11.2 15.3 -11.85 25.4 M1.75 10.8 L3.45 10.0 3.5 10.05 4.3 10.4 Q7.3 12.4 7.8 12.3 9.0 12.1 6.25 5.05 L5.75 3.85 M-2.35 0.4 Q-6.65 -1.25 -9.75 -5.85 M15.65 -7.85 Q21.85 -12.45 30.2 -10.75 34.65 -12.8 37.25 -12.95 39.0 -13.05 41.25 -12.15 45.85 -10.4 44.45 -4.4 43.4 0.0 39.95 3.65 38.0 10.75 35.75 12.1 35.95 9.8 34.75 6.95 L34.35 6.15 31.7 5.9 Q26.55 5.75 21.75 9.3 L21.0 9.85 18.5 12.25 16.95 13.45 16.0 13.8 Q12.9 14.35 8.2 6.55 L6.9 4.35 5.9 3.25 4.5 2.2 Q3.35 1.55 0.35 1.1 L-2.35 0.4 M21.95 9.25 L20.7 11.65 Q19.5 14.5 19.7 16.8 18.35 16.0 16.95 13.45 M39.95 3.65 L37.3 6.05 35.2 6.25 34.35 6.15 M5.7 3.65 L5.75 3.85 M1.75 10.8 L1.3 11.65" fill="none" stroke="#000000" stroke-linecap="round" stroke-linejoin="round" stroke-width="0.05"/>
  </g>
</svg>
