<?xml version="1.0" encoding="UTF-8" standalone="no"?>
<svg xmlns:xlink="http://www.w3.org/1999/xlink" height="51.1px" width="59.4px" xmlns="http://www.w3.org/2000/svg">
  <g transform="matrix(1.0, 0.0, 0.0, 1.0, 14.6, 25.7)">
    <path d="M1.65 7.7 L1.75 7.65 Q4.15 10.15 5.3 10.3 6.6 10.45 6.75 8.95 L6.75 8.4 6.85 8.9 6.9 9.0 7.15 11.15 7.2 11.3 6.95 12.3 6.8 12.3 Q6.55 12.35 3.0 10.8 1.4 10.05 0.8 11.5 L1.65 7.7 M7.15 11.15 Q7.2 12.25 6.8 12.3 7.2 12.25 7.15 11.15" fill="#648e4c" fill-rule="evenodd" stroke="none"/>
    <path d="M19.5 -5.85 Q21.7 -6.3 22.5 -2.25 23.3 1.75 21.15 2.2 18.9 2.65 18.15 -1.35 17.25 -5.4 19.5 -5.85 M1.75 7.65 L-0.4 5.3 Q-3.65 1.5 -4.75 -0.35 -5.05 -0.8 -4.65 -1.05 L-4.05 -0.75 -4.65 -1.05 -4.6 -1.05 -4.05 -0.75 0.2 0.1 0.35 0.1 4.5 0.5 Q5.45 0.85 6.25 1.7 L6.0 3.8 6.7 7.65 6.75 8.4 6.75 8.95 Q6.6 10.45 5.3 10.3 4.15 10.15 1.75 7.65 M39.7 -9.1 Q42.0 -8.3 40.65 -4.1 39.3 0.15 36.95 -0.6 34.7 -1.3 36.05 -5.6 37.45 -9.85 39.7 -9.1" fill="#000000" fill-rule="evenodd" stroke="none"/>
    <path d="M39.95 1.65 Q38.0 8.75 35.75 10.1 35.95 7.8 34.75 4.95 L34.6 4.6 34.35 4.15 35.2 4.25 37.3 4.05 39.95 1.65 M21.65 7.35 L21.95 7.25 20.7 9.65 Q19.5 12.5 19.7 14.8 18.25 13.95 16.75 11.55 L15.75 9.8 15.95 9.8 Q18.65 9.7 21.0 7.85 L21.65 7.35 M34.6 4.6 L34.35 4.15 34.6 4.6" fill="#ffffff" fill-rule="evenodd" stroke="none"/>
    <path d="M19.5 -5.85 Q17.25 -5.4 18.15 -1.35 18.9 2.65 21.15 2.2 23.3 1.75 22.5 -2.25 21.7 -6.3 19.5 -5.85 M15.4 -8.7 L14.2 -7.7 15.4 -8.7 Q22.4 -14.35 30.2 -12.75 34.65 -14.8 37.25 -14.95 39.0 -15.05 41.25 -14.15 45.85 -12.4 44.45 -6.4 43.4 -2.0 39.95 1.65 L37.3 4.05 35.2 4.25 34.35 4.15 31.7 3.9 Q26.5 3.75 21.65 7.35 L21.0 7.85 Q18.65 9.7 15.95 9.8 L15.75 9.8 Q11.4 9.9 8.2 4.55 7.3 2.75 6.25 1.7 5.45 0.85 4.5 0.5 L0.35 0.1 0.2 0.1 -4.05 -0.75 -4.6 -1.05 -4.65 -1.05 Q-5.05 -0.8 -4.75 -0.35 -3.65 1.5 -0.4 5.3 L1.75 7.65 1.65 7.7 1.35 8.1 1.25 8.25 -11.85 25.4 Q-11.2 15.3 -12.75 7.55 -14.45 1.0 -14.55 -1.6 -15.25 -20.55 -8.4 -24.15 -3.9 -26.85 0.0 -24.8 4.2 -22.65 9.6 -14.1 12.25 -9.8 15.4 -8.7 M-9.75 -5.85 Q-7.5 -2.5 -4.65 -1.05 -7.5 -2.5 -9.75 -5.85 M39.7 -9.1 Q37.45 -9.85 36.05 -5.6 34.7 -1.3 36.95 -0.6 39.3 0.15 40.65 -4.1 42.0 -8.3 39.7 -9.1" fill="#4c8335" fill-rule="evenodd" stroke="none"/>
    <path d="M14.2 -7.7 L15.4 -8.7 Q12.25 -9.8 9.6 -14.1 4.2 -22.65 0.0 -24.8 -3.9 -26.85 -8.4 -24.15 -15.25 -20.55 -14.55 -1.6 -14.45 1.0 -12.75 7.55 -11.2 15.3 -11.85 25.4 M-4.65 -1.05 Q-7.5 -2.5 -9.75 -5.85 M15.4 -8.7 Q22.4 -14.35 30.2 -12.75 34.65 -14.8 37.25 -14.95 39.0 -15.05 41.25 -14.15 45.85 -12.4 44.45 -6.4 43.4 -2.0 39.95 1.65 38.0 8.75 35.75 10.1 35.95 7.8 34.75 4.95 L34.6 4.6 M34.35 4.15 L31.7 3.9 Q26.5 3.75 21.65 7.35 L21.0 7.85 Q18.65 9.7 15.95 9.8 L15.75 9.8 Q11.4 9.9 8.2 4.55 7.3 2.75 6.25 1.7 5.45 0.85 4.5 0.5 L0.35 0.1 0.2 0.1 -4.05 -0.75 -4.65 -1.05 M21.95 7.25 L20.7 9.65 Q19.5 12.5 19.7 14.8 18.25 13.95 16.75 11.55 L15.75 9.8 M6.75 8.4 L6.85 8.9 6.9 9.0 7.15 11.15 7.2 11.3 6.95 12.3 6.8 12.3 Q6.55 12.35 3.0 10.8 1.4 10.05 0.8 11.5 L0.5 12.85 M39.95 1.65 L37.3 4.05 35.2 4.25 34.35 4.15 34.6 4.6 M6.8 12.3 Q7.2 12.25 7.15 11.15" fill="none" stroke="#000000" stroke-linecap="round" stroke-linejoin="round" stroke-width="0.05"/>
  </g>
</svg>
