<?xml version="1.0" encoding="UTF-8" standalone="no"?>
<svg xmlns:xlink="http://www.w3.org/1999/xlink" height="35.75px" width="59.9px" xmlns="http://www.w3.org/2000/svg">
  <g transform="matrix(1.0, 0.0, 0.0, 1.0, 1.6, 1.5)">
    <path d="M54.95 16.0 Q51.2 10.6 45.75 8.2 40.25 5.85 37.0 4.9 33.9 4.0 31.7 4.4 L29.4 4.9 28.4 5.35 26.25 4.2 25.6 4.35 Q24.35 2.45 20.95 0.9 17.5 -0.7 12.65 3.1 6.75 7.4 3.55 4.0 0.35 0.55 0.3 -0.3 L-0.4 0.45 1.2 3.1 Q2.75 5.5 5.7 6.65 8.65 7.8 12.8 4.35 17.1 0.95 20.15 2.15 23.2 3.4 24.45 5.1 L24.0 5.85 24.75 7.65 24.5 7.8 Q22.15 9.75 22.15 11.15 22.1 12.55 22.3 12.6 22.0 12.85 24.25 17.7 26.5 22.55 34.55 29.05 43.1 34.55 48.55 32.45 53.95 30.35 54.6 29.15 55.55 28.45 56.75 25.0 57.95 21.55 54.95 16.0 Z" fill="none" stroke="#ffffff" stroke-linecap="round" stroke-linejoin="round" stroke-width="2.4000000000000004"/>
    <path d="M25.0 8.4 L23.9 5.7 Q23.6 5.05 26.15 4.05 L29.7 5.8 25.0 8.4" fill="#545454" fill-rule="evenodd" stroke="none"/>
    <path d="M25.95 4.8 L24.9 5.7 Q24.8 5.0 21.4 2.55 18.05 0.15 12.65 4.2 8.5 7.6 5.55 6.45 2.6 5.3 1.05 2.9 L-0.55 0.25 0.15 -0.5 Q0.2 0.35 3.4 3.8 6.6 7.25 12.5 2.95 18.45 -1.45 22.15 1.3 25.85 4.05 25.95 4.8" fill="#545454" fill-rule="evenodd" stroke="none"/>
    <path d="M54.8 15.85 Q57.8 21.4 56.6 24.85 55.4 28.3 54.45 29.0 53.85 30.25 48.4 32.3 42.95 34.4 34.4 28.9 26.35 22.45 24.1 17.55 21.85 12.7 22.15 12.45 21.95 12.4 22.0 11.0 22.0 9.65 24.35 7.7 29.35 4.35 29.25 4.75 L31.55 4.25 Q33.75 3.85 36.85 4.75 40.15 5.7 45.6 8.1 51.05 10.45 54.8 15.85" fill="url(#gradient0)" fill-rule="evenodd" stroke="none"/>
    <path d="M23.55 11.4 Q23.8 9.5 25.8 8.1 27.75 6.65 28.05 6.6 L35.7 10.95 32.65 12.65 28.7 15.05 Q27.0 16.9 27.25 17.35 L25.45 15.15 Q23.8 13.05 23.55 11.4" fill="#890c08" fill-rule="evenodd" stroke="none"/>
    <path d="M29.2 6.0 L30.85 5.4 Q32.2 4.8 36.1 5.45 39.85 6.4 42.7 7.75 L41.1 8.15 37.0 10.2 29.2 6.0" fill="#890c08" fill-rule="evenodd" stroke="none"/>
    <path d="M23.45 10.45 Q23.75 8.6 25.75 7.2 27.8 5.85 28.1 5.8 L35.6 10.35 32.45 12.1 Q29.6 13.7 28.35 14.55 26.95 15.9 26.95 16.3 L25.25 14.15 Q23.65 12.15 23.45 10.45" fill="#ee3f1a" fill-rule="evenodd" stroke="none"/>
    <path d="M29.25 5.45 Q29.6 5.1 31.05 4.65 L36.25 4.8 Q39.6 5.95 42.1 7.45 40.7 7.6 40.3 7.9 L37.05 9.6 29.25 5.45" fill="#ee3f1a" fill-rule="evenodd" stroke="none"/>
  </g>
  <defs>
    <linearGradient gradientTransform="matrix(0.0083, -0.0119, 0.0119, 0.0083, 39.5, 17.9)" gradientUnits="userSpaceOnUse" id="gradient0" spreadMethod="pad" x1="-819.2" x2="819.2">
      <stop offset="0.0" stop-color="#7e1f08"/>
      <stop offset="0.396078431372549" stop-color="#ee3f1a"/>
    </linearGradient>
  </defs>
</svg>
