<?xml version="1.0" encoding="UTF-8" standalone="no"?>
<svg xmlns:xlink="http://www.w3.org/1999/xlink" height="21.85px" width="21.1px" xmlns="http://www.w3.org/2000/svg">
  <g transform="matrix(1.0, 0.0, 0.0, 1.0, 10.55, 21.85)">
    <path d="M2.0 -16.6 Q5.45 -18.45 8.25 -20.85 L8.75 -20.85 8.85 -21.0 10.1 -21.85 10.55 -15.75 Q8.55 -19.65 8.0 -19.2 7.1 -18.35 5.15 -11.4 2.95 -13.0 2.4 -11.1 L2.45 -9.45 Q-0.25 -11.15 -0.9 -10.3 -1.55 -9.8 -2.6 -5.45 L-3.1 -8.15 -3.7 -9.9 Q-4.35 -11.1 -4.8 -9.8 -5.15 -7.05 -4.65 -1.65 L-4.8 -1.05 -4.85 -1.1 Q-6.1 -5.05 -6.9 -5.1 -7.95 -5.55 -8.95 -2.75 -9.4 0.1 -9.55 0.0 L-10.55 -7.55 -9.4 -8.6 -9.0 -9.25 -7.9 -10.0 -7.4 -10.1 -5.25 -11.75 Q-4.85 -11.75 -4.5 -12.0 L-4.4 -12.1 Q-3.05 -13.3 -1.65 -14.1 0.15 -15.55 2.0 -16.6" fill="#000000" fill-rule="evenodd" stroke="none"/>
  </g>
</svg>
