<?xml version="1.0" encoding="UTF-8" standalone="no"?>
<svg xmlns:xlink="http://www.w3.org/1999/xlink" height="163.8px" width="268.2px" xmlns="http://www.w3.org/2000/svg">
  <g transform="matrix(1.0, 0.0, 0.0, 1.0, 241.1, -53.1)">
    <path d="M0.25 53.1 L26.85 67.2 27.1 136.25 26.8 136.25 26.8 136.4 Q26.75 149.7 22.7 161.75 18.65 173.75 11.3 183.75 3.95 193.75 -6.05 201.15 -16.1 208.5 -28.1 212.5 -40.1 216.55 -53.45 216.6 L-53.45 215.6 -54.0 216.65 -241.05 216.9 -241.1 168.25 -53.45 168.0 -53.45 167.7 Q-46.9 167.65 -41.25 165.25 -35.6 162.8 -31.3 158.5 -27.0 154.25 -24.6 148.55 -22.2 142.9 -22.15 136.4 L-22.15 136.05 -21.55 136.05 -21.8 64.65 0.25 53.1" fill="#6ea60f" fill-rule="evenodd" stroke="none"/>
  </g>
</svg>
