<?xml version="1.0" encoding="UTF-8" standalone="no"?>
<svg xmlns:xlink="http://www.w3.org/1999/xlink" height="56.4px" width="176.85px" xmlns="http://www.w3.org/2000/svg">
  <g transform="matrix(1.0, 0.0, 0.0, 1.0, -136.55, -160.35)">
    <path d="M173.0 167.1 L185.95 167.5 Q190.35 165.5 196.85 163.95 203.4 162.45 211.5 161.5 L228.75 160.4 248.25 161.05 Q257.35 161.9 264.2 163.55 271.1 165.2 275.0 167.45 278.95 169.75 279.05 172.45 L279.05 172.6 Q286.4 173.1 292.1 174.3 297.75 175.5 301.0 177.25 304.25 179.05 304.35 181.15 304.35 183.15 301.5 184.9 298.65 186.7 293.55 188.1 299.45 188.8 303.9 190.0 308.35 191.2 310.85 192.75 313.35 194.3 313.4 196.15 313.4 198.45 309.65 200.45 305.95 202.45 299.4 203.9 292.9 205.35 284.55 206.0 L284.65 206.55 Q284.6 208.5 281.8 210.3 279.05 212.05 274.05 213.45 269.05 214.85 262.45 215.7 L248.2 216.7 233.55 216.2 Q226.75 215.55 221.7 214.25 216.6 213.0 213.9 211.25 L209.7 211.35 195.45 210.9 Q188.8 210.25 183.75 209.05 178.7 207.85 175.85 206.2 173.0 204.55 172.9 202.55 172.9 200.9 174.85 199.4 167.8 198.85 162.4 197.65 157.0 196.45 153.9 194.7 150.8 193.0 150.7 190.95 150.7 189.4 152.4 188.0 154.05 186.6 157.15 185.4 151.05 184.75 146.45 183.55 141.8 182.35 139.2 180.75 136.65 179.15 136.55 177.25 136.55 175.3 139.35 173.55 142.15 171.75 147.15 170.35 152.15 168.95 158.75 168.1 L173.0 167.1" fill="#000000" fill-opacity="0.2" fill-rule="evenodd" stroke="none"/>
  </g>
</svg>
