<?xml version="1.0" encoding="UTF-8" standalone="no"?>
<svg xmlns:xlink="http://www.w3.org/1999/xlink" height="169.4px" width="120.75px" xmlns="http://www.w3.org/2000/svg">
  <g transform="matrix(1.0, 0.0, 0.0, 1.0, 71.65, 82.7)">
    <path d="M-21.5 -38.45 L17.25 -3.7 17.35 -3.7 17.35 -3.45 -71.4 -24.95 -21.5 -38.45 M-37.0 22.2 L17.25 -3.2 17.35 -3.2 17.35 -3.05 33.75 63.05 33.85 64.3 2.6 57.05 2.85 56.3 17.25 -2.7 -38.65 86.55 -38.9 86.7 -39.0 86.7 -37.0 22.2 M32.75 15.95 L17.5 -3.3 17.5 -3.45 49.1 -16.8 32.75 15.95 M22.85 -32.7 L17.5 -4.05 3.0 -81.7 22.85 -32.7" fill="#ffff2d" fill-rule="evenodd" stroke="none"/>
    <path d="M-71.4 -24.95 L17.35 -3.45 17.35 -3.7 17.25 -3.7 -21.5 -38.45 2.0 -81.8 2.75 -82.7 3.0 -81.7 17.5 -4.05 22.85 -32.7 49.1 -16.8 17.5 -3.45 17.5 -3.3 32.75 15.95 33.75 63.05 17.35 -3.05 17.35 -3.2 17.25 -3.2 -37.0 22.2 -71.4 -24.45 -71.65 -24.95 -71.4 -24.95 M2.6 57.05 L-38.65 86.55 17.25 -2.7 2.85 56.3 2.6 57.05" fill="#ffd300" fill-rule="evenodd" stroke="none"/>
  </g>
</svg>
