<?xml version="1.0" encoding="UTF-8" standalone="no"?>
<svg xmlns:xlink="http://www.w3.org/1999/xlink" height="172.6px" width="87.75px" xmlns="http://www.w3.org/2000/svg">
  <g transform="matrix(1.0, 0.0, 0.0, 1.0, 53.65, 82.55)">
    <path d="M16.75 -32.05 L34.1 -16.55 34.0 -16.05 20.35 -3.3 20.35 -3.2 20.25 -3.2 -26.5 23.2 -53.65 -26.45 20.25 -3.55 20.35 -3.55 20.35 -3.7 20.25 -3.7 -14.9 -39.2 2.35 -82.3 2.75 -82.55 3.85 -77.95 4.0 -77.55 4.0 -77.45 19.85 -6.8 16.75 -32.05 M23.35 15.05 L23.85 54.45 20.75 -0.55 23.35 15.05 M2.6 57.05 L-27.5 89.8 20.0 -2.2 2.6 57.05" fill="#ffd300" fill-rule="evenodd" stroke="none"/>
    <path d="M16.75 -32.05 L19.85 -6.8 4.0 -77.45 16.75 -32.05 M-14.9 -39.2 L20.25 -3.7 20.35 -3.7 20.35 -3.55 20.25 -3.55 -53.65 -26.45 -14.9 -39.2 M-26.5 23.2 L20.25 -3.2 20.35 -3.2 20.35 -3.3 34.0 -16.05 23.35 15.05 20.75 -0.55 23.85 54.45 24.1 62.45 2.6 57.05 20.0 -2.2 -27.5 89.8 -28.0 90.05 -26.5 23.2" fill="#ffff2d" fill-rule="evenodd" stroke="none"/>
  </g>
</svg>
