<?xml version="1.0" encoding="UTF-8" standalone="no"?>
<svg xmlns:xlink="http://www.w3.org/1999/xlink" height="174.5px" width="49.9px" xmlns="http://www.w3.org/2000/svg">
  <g transform="matrix(1.0, 0.0, 0.0, 1.0, 27.9, 82.2)">
    <path d="M21.85 -3.8 L-6.5 -39.8 -7.65 -39.3 0.35 -73.2 0.35 -73.3 0.5 -73.7 0.5 -73.95 0.6 -74.2 0.6 -74.55 0.75 -74.8 0.75 -75.05 0.85 -75.3 0.85 -75.7 1.0 -75.8 1.1 -76.8 1.25 -76.95 2.35 -82.2 2.85 -82.2 21.85 -3.8 M-27.9 -27.55 L21.85 -3.55 22.0 -3.55 22.0 -3.05 21.85 -3.05 -12.9 23.8 -15.5 15.2 -27.9 -27.55 M2.6 57.05 L-12.25 89.7 20.1 2.45 2.6 57.05" fill="#ffd300" fill-rule="evenodd" stroke="none"/>
    <path d="M21.85 -3.8 L22.0 -3.55 21.85 -3.55 -27.9 -27.55 Q-17.75 -33.4 -7.65 -39.3 L-6.5 -39.8 21.85 -3.8 M22.0 -3.05 L22.0 -2.8 21.85 -2.7 21.85 -2.05 13.6 61.3 2.6 57.05 20.1 2.45 -12.25 89.7 -13.25 92.2 -13.65 92.3 -15.5 15.2 -12.9 23.8 21.85 -3.05 22.0 -3.05" fill="#ffff2d" fill-rule="evenodd" stroke="none"/>
  </g>
</svg>
