<?xml version="1.0" encoding="UTF-8" standalone="no"?>
<svg xmlns:xlink="http://www.w3.org/1999/xlink" height="176.25px" width="39.4px" xmlns="http://www.w3.org/2000/svg">
  <g transform="matrix(1.0, 0.0, 0.0, 1.0, 17.15, 82.7)">
    <path d="M22.0 -4.45 L22.1 -4.05 22.0 -4.05 2.6 -27.95 2.5 -27.8 -17.15 -3.7 -17.0 -4.05 2.5 -39.55 2.6 -39.95 22.0 -4.45 M22.25 -2.8 L3.1 91.7 2.6 93.55 2.5 92.45 -17.0 -2.8 2.5 23.8 2.6 24.05 22.25 -2.8" fill="#ffff2d" fill-rule="evenodd" stroke="none"/>
    <path d="M22.1 -4.05 L22.25 -3.7 22.25 -2.8 2.6 24.05 2.5 23.8 -17.0 -2.8 -17.15 -3.7 2.5 -27.8 2.6 -27.95 22.0 -4.05 22.1 -4.05 M-17.0 -4.05 L2.6 -82.7 3.0 -81.55 22.0 -4.45 2.6 -39.95 2.5 -39.55 -17.0 -4.05" fill="#ffd300" fill-rule="evenodd" stroke="none"/>
  </g>
</svg>
