<?xml version="1.0" encoding="UTF-8" standalone="no"?>
<svg xmlns:xlink="http://www.w3.org/1999/xlink" height="175.0px" width="50.0px" xmlns="http://www.w3.org/2000/svg">
  <g transform="matrix(1.0, 0.0, 0.0, 1.0, 16.9, 82.7)">
    <path d="M12.75 -39.3 L11.75 -39.8 -14.5 -6.55 -14.75 -5.8 -16.75 -3.8 2.6 -82.7 3.85 -77.05 4.0 -76.7 4.1 -75.95 4.25 -75.55 4.25 -75.45 4.5 -74.45 4.5 -74.3 12.75 -39.3 M-16.9 -3.45 L33.1 -27.55 20.75 15.2 18.0 23.8 -16.9 -3.2 -16.9 -3.45 M17.6 90.05 L2.6 57.05 -14.9 2.45 17.6 90.05" fill="#ffd300" fill-rule="evenodd" stroke="none"/>
    <path d="M12.75 -39.3 L33.1 -27.55 -16.9 -3.45 -16.75 -3.8 -14.75 -5.8 -14.5 -6.55 11.75 -39.8 12.75 -39.3 M20.75 15.2 L18.75 92.05 18.6 92.3 18.6 92.05 18.0 90.95 17.85 90.8 17.85 90.55 17.75 90.45 17.75 90.3 17.6 90.2 17.6 90.05 -14.9 2.45 2.6 57.05 -8.4 61.3 -16.65 -2.05 -16.65 -2.3 -16.75 -2.45 -16.75 -2.7 -16.9 -2.8 -16.9 -3.2 18.0 23.8 20.75 15.2" fill="#ffff2d" fill-rule="evenodd" stroke="none"/>
  </g>
</svg>
