<?xml version="1.0" encoding="UTF-8" standalone="no"?>
<svg xmlns:xlink="http://www.w3.org/1999/xlink" height="169.4px" width="120.75px" xmlns="http://www.w3.org/2000/svg">
  <g transform="matrix(1.0, 0.0, 0.0, 1.0, 43.9, 82.7)">
    <path d="M76.6 -24.95 L76.85 -24.8 42.25 22.2 -12.25 -3.3 -12.25 -3.45 76.6 -24.95 M43.75 86.55 L2.6 57.05 2.35 56.3 -12.0 -2.7 43.75 86.55 M-28.65 63.45 L-27.5 15.95 -12.5 -2.95 -12.25 -2.95 -12.25 -3.05 -12.0 -2.8 -12.25 -2.8 -28.65 63.45 M-43.9 -16.8 L-17.75 -32.7 -12.25 -4.05 2.25 -81.8 2.25 -82.05 2.35 -82.2 2.5 -82.7 2.85 -82.45 26.75 -38.45 -6.5 -8.3 -12.25 -3.55 -12.25 -3.45 -43.9 -16.8 M-12.25 -3.3 L-12.25 -3.2 -12.4 -3.2 -12.25 -3.3" fill="#ffd300" fill-rule="evenodd" stroke="none"/>
    <path d="M76.6 -24.95 L-12.25 -3.45 -12.25 -3.3 42.25 22.2 44.25 86.7 43.75 86.55 -12.0 -2.7 2.35 56.3 2.6 57.05 -28.4 64.3 -28.65 63.45 -12.25 -2.8 -12.0 -2.8 -12.25 -3.05 -12.25 -2.95 -12.5 -2.95 -27.5 15.95 -43.9 -16.8 -12.25 -3.45 -12.25 -3.55 -6.5 -8.3 26.75 -38.45 76.6 -24.95 M-17.75 -32.7 L2.25 -81.8 -12.25 -4.05 -17.75 -32.7 M-12.25 -3.3 L-12.4 -3.2 -12.25 -3.2 -12.25 -3.3" fill="#ffff2d" fill-rule="evenodd" stroke="none"/>
  </g>
</svg>
