<?xml version="1.0" encoding="UTF-8" standalone="no"?>
<svg xmlns:xlink="http://www.w3.org/1999/xlink" height="160.9px" width="157.25px" xmlns="http://www.w3.org/2000/svg">
  <g transform="matrix(1.0, 0.0, 0.0, 1.0, 69.4, 82.7)">
    <path d="M87.85 -21.45 L51.85 19.8 -3.0 -3.3 -2.9 -3.05 -3.15 -3.05 -43.25 69.45 -43.75 69.8 -41.9 17.55 -3.15 -3.2 -3.0 -3.3 -3.0 -3.45 -3.15 -3.45 -69.4 -18.7 -26.5 -34.3 -3.15 -3.7 2.35 -82.3 2.5 -82.7 2.85 -82.55 33.6 -36.45 -2.75 -3.45 87.85 -21.45 M53.75 78.05 L2.6 57.05 -2.9 -2.95 3.0 5.05 53.75 78.05" fill="#ffd300" fill-rule="evenodd" stroke="none"/>
    <path d="M51.85 19.8 L54.1 78.2 53.75 78.05 3.0 5.05 -2.9 -2.95 2.6 57.05 -42.75 69.95 -43.75 69.8 -43.25 69.45 -3.15 -3.05 -2.9 -3.05 -3.0 -3.3 51.85 19.8 M-41.9 17.55 L-69.4 -18.7 -3.15 -3.45 -3.0 -3.45 -3.0 -3.3 -3.15 -3.2 -41.9 17.55 M-26.5 -34.3 L2.35 -82.3 -3.15 -3.7 -26.5 -34.3 M33.6 -36.45 L87.85 -21.45 -2.75 -3.45 33.6 -36.45" fill="#ffff2d" fill-rule="evenodd" stroke="none"/>
  </g>
</svg>
