<?xml version="1.0" encoding="UTF-8" standalone="no"?>
<svg xmlns:xlink="http://www.w3.org/1999/xlink" height="156.5px" width="161.75px" xmlns="http://www.w3.org/2000/svg">
  <g transform="matrix(1.0, 0.0, 0.0, 1.0, 78.25, 82.55)">
    <path d="M83.5 -19.95 L2.75 -3.45 33.75 -35.3 83.5 -19.95 M2.75 -82.3 L2.35 -3.7 -28.5 -35.3 2.6 -82.55 2.75 -82.45 2.75 -82.3 M-78.25 -19.95 L2.5 -3.45 2.5 -3.3 51.0 18.7 53.1 73.8 52.75 73.8 2.6 -2.95 2.75 56.3 2.6 57.05 -47.5 73.95 -47.9 73.7 2.5 -3.05 2.6 -3.05 2.5 -3.2 2.35 -3.2 -45.75 18.7 -78.25 -19.95" fill="#ffff2d" fill-rule="evenodd" stroke="none"/>
    <path d="M83.5 -19.95 L51.0 18.7 2.5 -3.3 2.5 -3.45 -78.25 -19.95 -28.5 -35.3 2.35 -3.7 2.75 -82.3 4.85 -79.55 33.75 -35.3 2.75 -3.45 83.5 -19.95 M52.75 73.8 L2.6 57.05 2.75 56.3 2.6 -2.95 52.75 73.8 M-47.9 73.7 L-45.75 18.7 2.35 -3.2 2.5 -3.2 2.6 -3.05 2.5 -3.05 -47.9 73.7" fill="#ffd300" fill-rule="evenodd" stroke="none"/>
  </g>
</svg>
