<?xml version="1.0" encoding="UTF-8" standalone="no"?>
<svg xmlns:xlink="http://www.w3.org/1999/xlink" height="160.6px" width="157.25px" xmlns="http://www.w3.org/2000/svg">
  <g transform="matrix(1.0, 0.0, 0.0, 1.0, 82.65, 82.55)">
    <path d="M74.6 -18.7 L47.1 17.55 8.35 -3.2 8.1 -3.3 8.1 -3.45 -82.65 -21.45 -28.4 -36.45 8.1 -3.55 2.5 -82.55 3.0 -82.3 31.75 -34.3 8.25 -3.55 8.25 -3.45 74.6 -18.7 M48.85 69.7 L48.6 70.05 2.6 57.05 2.75 56.3 8.25 -3.05 48.85 69.7 M-48.9 78.05 L-46.65 19.8 7.85 -3.2 -48.9 78.05" fill="#ffd300" fill-rule="evenodd" stroke="none"/>
    <path d="M74.6 -18.7 L8.25 -3.45 8.25 -3.55 31.75 -34.3 74.6 -18.7 M2.5 -82.55 L8.1 -3.55 -28.4 -36.45 2.5 -82.55 M-82.65 -21.45 L8.1 -3.45 8.1 -3.3 8.35 -3.2 47.1 17.55 48.85 69.7 8.25 -3.05 2.75 56.3 2.6 57.05 -47.5 77.8 -48.9 78.05 7.85 -3.2 -46.65 19.8 -82.65 -21.45" fill="#ffff2d" fill-rule="evenodd" stroke="none"/>
  </g>
</svg>
