<?xml version="1.0" encoding="UTF-8" standalone="no"?>
<svg xmlns:xlink="http://www.w3.org/1999/xlink" height="165.1px" width="143.65px" xmlns="http://www.w3.org/2000/svg">
  <g transform="matrix(1.0, 0.0, 0.0, 1.0, 80.9, 82.55)">
    <path d="M28.0 -33.45 L62.0 -18.2 62.75 -17.55 13.25 -3.45 13.25 -3.55 13.1 -3.55 -26.15 -37.45 2.6 -82.55 2.75 -82.45 2.85 -82.2 13.35 -3.8 28.0 -33.45 M40.85 16.7 L42.25 66.3 13.25 -3.3 13.1 -3.2 -43.75 21.05 -80.9 -23.2 13.1 -3.45 13.25 -3.45 13.25 -3.3 40.85 16.7 M2.6 57.05 L-45.9 82.55 -45.4 81.95 12.6 -2.55 13.1 -2.8 2.6 57.05" fill="#ffff2d" fill-rule="evenodd" stroke="none"/>
    <path d="M28.0 -33.45 L13.35 -3.8 2.85 -82.2 28.0 -33.45 M-26.15 -37.45 L13.1 -3.55 13.25 -3.55 13.25 -3.45 62.75 -17.55 40.85 16.7 13.25 -3.3 13.25 -3.45 13.1 -3.45 -80.9 -23.2 -26.15 -37.45 M42.25 66.3 L42.25 66.8 41.85 66.8 2.6 57.05 13.1 -2.8 12.6 -2.55 -45.4 81.95 -45.9 82.55 -43.75 21.05 13.1 -3.2 13.25 -3.3 42.25 66.3" fill="#ffd300" fill-rule="evenodd" stroke="none"/>
  </g>
</svg>
