<?xml version="1.0" encoding="UTF-8" standalone="no"?>
<svg xmlns:xlink="http://www.w3.org/1999/xlink" height="174.6px" width="49.9px" xmlns="http://www.w3.org/2000/svg">
  <g transform="matrix(1.0, 0.0, 0.0, 1.0, 27.9, 82.3)">
    <path d="M21.85 -3.8 L-5.5 -38.7 -6.65 -39.7 -7.5 -39.3 -7.65 -39.3 -0.4 -69.55 -0.4 -69.7 -0.25 -70.2 -0.25 -70.3 -0.15 -70.7 -0.15 -70.8 0.0 -71.2 2.6 -82.3 21.85 -3.8 M-27.9 -27.55 L21.85 -3.55 22.0 -3.55 22.0 -3.05 21.85 -3.05 -12.9 23.8 -15.25 15.7 -15.65 14.95 -15.65 14.45 -27.9 -27.55 M2.6 57.05 L-12.25 89.7 20.1 2.45 2.6 57.05" fill="#ffff2d" fill-rule="evenodd" stroke="none"/>
    <path d="M21.85 -3.8 L22.0 -3.55 21.85 -3.55 -27.9 -27.55 -7.75 -39.05 -7.65 -39.3 -7.5 -39.3 -6.65 -39.7 -5.5 -38.7 21.85 -3.8 M22.0 -3.05 L22.0 -2.8 21.85 -2.7 21.85 -2.05 13.6 61.3 2.6 57.05 20.1 2.45 -12.25 89.7 -13.25 92.2 -13.65 92.3 -15.65 14.95 -15.25 15.7 -12.9 23.8 21.85 -3.05 22.0 -3.05" fill="#ffd300" fill-rule="evenodd" stroke="none"/>
  </g>
</svg>
