<?xml version="1.0" encoding="UTF-8" standalone="no"?>
<svg xmlns:xlink="http://www.w3.org/1999/xlink" height="175.35px" width="39.4px" xmlns="http://www.w3.org/2000/svg">
  <g transform="matrix(1.0, 0.0, 0.0, 1.0, 17.15, 82.3)">
    <path d="M22.0 -4.45 L22.1 -4.05 22.0 -4.05 2.5 -27.95 2.35 -27.7 -17.15 -3.7 -16.75 -4.45 2.6 -39.8 22.0 -4.45 M22.25 -2.8 L3.0 92.3 2.75 93.05 2.35 92.95 2.35 92.3 -17.15 -3.05 2.35 23.55 2.6 23.95 22.25 -2.8" fill="#ffd300" fill-rule="evenodd" stroke="none"/>
    <path d="M22.1 -4.05 L22.25 -3.7 22.25 -2.8 2.6 23.95 2.35 23.55 -17.15 -3.05 -17.15 -3.7 2.35 -27.7 2.5 -27.95 22.0 -4.05 22.1 -4.05 M-16.75 -4.45 L2.35 -81.3 2.5 -82.3 2.85 -82.05 22.0 -4.45 2.6 -39.8 -16.75 -4.45" fill="#ffff2d" fill-rule="evenodd" stroke="none"/>
  </g>
</svg>
