<?xml version="1.0" encoding="UTF-8" standalone="no"?>
<svg xmlns:xlink="http://www.w3.org/1999/xlink" height="172.85px" width="87.75px" xmlns="http://www.w3.org/2000/svg">
  <g transform="matrix(1.0, 0.0, 0.0, 1.0, 28.9, 82.55)">
    <path d="M20.1 -39.2 L-15.25 -3.45 58.85 -26.45 31.75 23.2 -15.25 -3.3 -15.25 -3.45 -15.4 -3.55 -28.9 -16.05 -28.75 -16.7 -11.65 -32.05 -14.65 -6.8 1.25 -77.45 1.25 -77.55 2.5 -82.55 2.85 -82.45 20.1 -39.2 M32.75 89.8 L2.6 57.05 -14.75 -2.2 32.75 89.8 M-18.65 54.45 L-18.25 15.05 -15.5 -0.55 -18.65 54.45 M-15.25 -2.8 L-15.25 -3.05 -14.9 -2.45 -15.25 -2.8" fill="#ffff2d" fill-rule="evenodd" stroke="none"/>
    <path d="M20.1 -39.2 L58.85 -26.45 -15.25 -3.45 20.1 -39.2 M31.75 23.2 L33.25 90.3 32.75 89.8 -14.75 -2.2 2.6 57.05 -18.9 62.45 -18.65 54.45 -15.5 -0.55 -18.25 15.05 -28.9 -16.05 -15.4 -3.55 -15.25 -3.45 -15.25 -3.3 31.75 23.2 M-11.65 -32.05 L1.25 -77.45 -14.65 -6.8 -11.65 -32.05 M-15.25 -2.8 L-14.9 -2.45 -15.25 -3.05 -15.25 -2.8" fill="#ffd300" fill-rule="evenodd" stroke="none"/>
  </g>
</svg>
