<?xml version="1.0" encoding="UTF-8" standalone="no"?>
<svg xmlns:xlink="http://www.w3.org/1999/xlink" height="165.15px" width="143.75px" xmlns="http://www.w3.org/2000/svg">
  <g transform="matrix(1.0, 0.0, 0.0, 1.0, 57.65, 82.7)">
    <path d="M49.0 21.05 L51.25 82.45 50.85 82.45 50.6 81.95 -7.4 -2.55 -7.9 -2.8 2.6 57.05 -35.5 66.55 -37.0 66.8 -37.0 66.3 -8.15 -2.95 -7.9 -2.95 -8.15 -3.2 -8.15 -3.05 -8.25 -3.05 -35.65 16.7 -57.65 -17.55 -8.15 -3.45 -8.0 -3.45 -8.0 -3.3 49.0 21.05 M-22.75 -33.45 L2.35 -82.2 -8.15 -3.8 -22.75 -33.45 M31.25 -37.55 L86.1 -23.2 -7.9 -3.45 31.25 -37.55" fill="#ffd300" fill-rule="evenodd" stroke="none"/>
    <path d="M86.1 -23.2 L49.0 21.05 -8.0 -3.3 -8.0 -3.45 -8.15 -3.45 -57.65 -17.55 -22.75 -33.45 -8.15 -3.8 2.35 -82.2 2.75 -82.7 31.25 -37.55 -7.9 -3.45 86.1 -23.2 M50.85 82.45 L2.6 57.05 -7.9 -2.8 -7.4 -2.55 50.6 81.95 50.85 82.45 M-37.0 66.3 L-35.65 16.7 -8.25 -3.05 -8.15 -3.05 -8.15 -3.2 -7.9 -2.95 -8.15 -2.95 -37.0 66.3" fill="#ffff2d" fill-rule="evenodd" stroke="none"/>
  </g>
</svg>
