<?xml version="1.0" encoding="UTF-8" standalone="no"?>
<svg xmlns:xlink="http://www.w3.org/1999/xlink" height="270.25px" width="346.95px" xmlns="http://www.w3.org/2000/svg">
  <g transform="matrix(1.0, 0.0, 0.0, 1.0, 182.0, 231.5)">
    <path d="M119.75 -20.0 L82.0 -20.0 86.5 29.05 Q48.95 37.8 12.2 38.75 13.05 38.2 13.55 37.0 15.3 32.6 12.7 30.25 12.1 27.65 8.65 27.4 L8.3 27.4 Q8.5 26.3 8.0 25.3 L7.8 24.95 8.8 24.7 Q20.3 22.4 15.0 12.85 15.1 11.1 13.45 4.55 11.8 -2.0 -9.4 1.75 -28.15 7.95 -22.55 15.4 -17.0 22.85 -16.4 24.05 L-16.15 24.5 Q-17.7 25.2 -19.25 26.25 -22.9 25.9 -25.55 28.15 -28.8 30.9 -25.95 34.0 -22.95 37.25 -18.7 37.15 L-19.05 38.15 Q-60.55 35.4 -101.0 22.5 L-95.5 -17.0 -154.45 -17.0 Q-168.2 -22.2 -182.0 -28.5 L-145.0 -217.0 Q-27.5 -252.65 93.95 -200.5 L164.95 -42.5 Q142.5 -30.05 119.75 -20.0" fill="#ff0000" fill-opacity="0.5019608" fill-rule="evenodd" stroke="none"/>
  </g>
</svg>
