<?xml version="1.0" encoding="UTF-8" standalone="no"?>
<svg xmlns:xlink="http://www.w3.org/1999/xlink" height="87.95px" width="50.15px" xmlns="http://www.w3.org/2000/svg">
  <g transform="matrix(1.0, 0.0, 0.0, 1.0, -120.2, 80.05)">
    <path d="M146.2 -76.3 L145.95 -76.0 146.85 -76.55 147.85 -77.35 147.6 -76.05 147.55 -75.65 146.6 -75.25 144.85 -74.6 143.9 -73.6 Q142.7 -72.45 141.35 -71.85 140.0 -71.25 138.6 -71.85 136.8 -72.9 135.9 -74.5 L135.7 -74.85 Q136.55 -73.85 137.85 -73.1 139.2 -72.5 140.55 -73.1 L142.35 -74.15 Q140.4 -74.0 138.25 -74.7 L138.45 -74.7 143.25 -74.95 145.0 -76.95 145.7 -77.95 146.15 -76.45 146.2 -76.3 M130.2 -75.35 Q128.25 -74.3 125.65 -74.15 L125.85 -74.2 Q128.9 -75.15 130.65 -76.45 132.35 -77.85 133.0 -78.95 L133.65 -80.05 133.9 -78.7 134.0 -78.35 133.3 -77.65 130.2 -75.35 M157.55 -69.0 L155.1 -67.7 Q153.6 -67.05 152.1 -66.95 150.6 -66.9 149.55 -67.95 L149.25 -68.35 146.9 -68.2 147.25 -69.35 148.5 -69.55 Q148.1 -70.45 147.95 -71.4 L147.9 -71.8 Q148.25 -70.75 148.95 -69.75 L149.15 -69.8 Q150.4 -70.45 151.05 -71.2 L151.75 -71.95 151.95 -70.9 152.05 -70.2 151.85 -69.95 150.15 -68.7 151.8 -68.4 Q153.35 -68.5 154.85 -69.1 L157.3 -70.4 158.35 -71.15 158.2 -69.55 158.2 -69.4 157.55 -69.0 M153.15 -64.95 L153.15 -66.2 157.25 -66.45 161.1 -66.9 162.65 -67.15 161.35 -65.6 158.0 -65.2 153.15 -64.95 M160.95 -62.9 L161.85 -63.4 161.65 -62.3 161.5 -61.6 161.2 -61.45 158.95 -60.85 Q157.5 -60.75 155.95 -61.6 L156.75 -62.55 158.65 -62.3 Q160.05 -62.45 160.95 -62.9 M157.75 -59.35 L158.75 -60.5 161.15 -60.05 Q162.75 -59.7 163.75 -58.75 L163.2 -58.4 161.95 -58.85 159.05 -59.3 157.75 -59.35 M159.3 -51.95 L161.25 -51.85 Q162.6 -51.7 163.6 -50.8 L162.1 -50.6 162.0 -50.6 159.5 -50.7 158.3 -50.5 159.25 -51.9 159.3 -51.95 M160.7 -56.35 L161.15 -57.5 Q163.1 -56.85 165.05 -56.3 L168.8 -55.35 170.35 -55.0 168.55 -54.05 165.3 -54.9 160.7 -56.35 M161.7 -42.0 L161.8 -42.05 163.55 -41.25 Q164.8 -40.6 165.4 -39.45 L163.9 -39.8 163.85 -39.8 161.55 -40.75 160.4 -41.05 161.7 -42.0 M168.35 -46.8 L167.75 -46.65 166.7 -47.5 164.2 -48.95 162.95 -49.5 164.35 -50.2 166.4 -48.95 Q167.75 -48.05 168.35 -46.8" fill="#3d1c0d" fill-rule="evenodd" stroke="none"/>
    <path d="M132.0 1.65 L134.0 -1.45 134.0 1.85 132.15 3.5 132.0 1.65 M120.45 3.85 L120.2 0.2 120.95 0.8 120.45 3.85 M121.35 1.15 L122.8 2.35 122.75 -2.0 124.9 1.15 127.25 -4.3 127.8 0.05 126.75 -2.75 126.3 3.5 123.5 -0.15 123.2 5.1 121.35 1.15 M128.35 1.55 L130.45 -2.3 130.7 -0.6 128.75 2.6 128.35 1.55" fill="#6d9726" fill-rule="evenodd" stroke="none"/>
    <path d="M130.7 -0.6 L131.65 -2.2 132.0 1.65 132.15 3.5 134.0 1.85 135.25 0.7 135.25 1.95 135.1 4.4 Q134.95 5.7 134.6 6.2 L133.25 7.05 131.45 7.3 Q130.55 7.15 130.15 6.05 129.85 7.1 128.6 7.55 L126.2 7.8 Q125.0 7.5 124.65 6.25 124.35 6.9 123.3 7.25 122.25 7.6 121.3 7.25 120.3 6.9 120.2 5.45 L120.45 3.85 120.95 0.8 121.0 0.4 121.35 1.15 123.2 5.1 123.5 -0.15 126.3 3.5 126.75 -2.75 127.8 0.05 128.35 1.55 128.75 2.6 130.7 -0.6" fill="#87d12e" fill-rule="evenodd" stroke="none"/>
  </g>
</svg>
