<?xml version="1.0" encoding="UTF-8" standalone="no"?>
<svg xmlns:xlink="http://www.w3.org/1999/xlink" height="274.4px" width="225.4px" xmlns="http://www.w3.org/2000/svg">
  <g transform="matrix(1.0, 0.0, 0.0, 1.0, 23.05, 116.2)">
    <path d="M191.6 -73.8 Q197.8 -62.85 200.55 -50.4 203.25 -37.9 201.9 -24.75 L201.85 -24.5 174.05 0.9 153.6 -32.4 Q154.25 -38.85 152.5 -44.75 150.65 -50.7 146.85 -55.6 143.05 -60.5 137.75 -63.75 132.4 -67.05 125.95 -68.1 L131.1 -116.2 Q144.3 -114.05 155.7 -108.2 167.15 -102.35 176.3 -93.55 185.35 -84.8 191.6 -73.8" fill="#c7bf57" fill-rule="evenodd" stroke="none"/>
    <path d="M107.6 -114.15 L109.8 -65.5 47.4 -66.0 45.25 -114.6 107.6 -114.15" fill="#c7bf57" fill-rule="evenodd" stroke="none"/>
    <path d="M33.85 -110.1 Q45.85 -114.15 59.2 -114.2 L59.2 -65.3 Q52.65 -65.25 47.0 -62.8 41.35 -60.4 37.05 -56.1 32.75 -51.8 30.3 -46.15 27.9 -40.5 27.85 -33.95 L27.9 -33.65 -21.05 -33.65 -21.05 -33.95 Q-21.0 -47.3 -16.95 -59.35 -12.9 -71.35 -5.55 -81.35 1.8 -91.35 11.8 -98.7 21.8 -106.05 33.85 -110.1" fill="#c7bf57" fill-rule="evenodd" stroke="none"/>
    <path d="M147.75 -114.1 L147.75 -65.45 106.6 -65.45 106.6 -114.1 147.75 -114.1" fill="#c7bf57" fill-rule="evenodd" stroke="none"/>
    <path d="M-22.0 -33.85 L26.7 -34.8 25.6 157.25 -23.05 158.2 -22.0 -33.85" fill="#c7bf57" fill-rule="evenodd" stroke="none"/>
    <path d="M125.95 4.15 L126.65 9.35 129.5 5.0 129.45 12.55 Q128.2 13.5 127.5 13.3 126.8 13.1 126.45 12.25 L125.95 10.55 125.65 9.2 Q125.85 10.45 125.3 11.5 124.7 12.55 123.75 12.95 122.85 13.3 121.95 12.5 121.05 11.7 120.6 9.2 120.35 11.6 119.7 12.55 119.0 13.5 118.15 13.6 L116.75 13.45 116.15 13.15 115.7 6.65 118.3 8.8 118.25 4.45 120.4 7.6 122.75 2.15 123.55 8.5 125.95 4.15" fill="#6d9726" fill-rule="evenodd" stroke="none"/>
    <path d="M126.95 13.75 Q126.05 13.6 125.65 12.5 125.35 13.55 124.1 14.0 L121.7 14.25 Q120.5 13.95 120.15 12.7 119.85 13.35 118.8 13.7 117.75 14.05 116.8 13.7 115.8 13.35 115.7 11.9 L116.5 6.85 118.7 11.55 119.0 6.3 121.8 9.95 122.25 3.7 124.25 9.05 127.15 4.25 127.65 9.95 130.75 7.15 130.75 8.4 130.6 10.85 Q130.45 12.15 130.1 12.65 L128.75 13.5 126.95 13.75" fill="#87d12e" fill-rule="evenodd" stroke="none"/>
  </g>
</svg>
