<?xml version="1.0" encoding="UTF-8" standalone="no"?>
<svg xmlns:xlink="http://www.w3.org/1999/xlink" height="49.45px" width="24.7px" xmlns="http://www.w3.org/2000/svg">
  <g transform="matrix(1.0, 0.0, 0.0, 1.0, 12.5, 56.05)">
    <path d="M0.65 -39.05 Q-2.75 -35.6 -1.6 -31.85 L-0.15 -30.6 -1.95 -28.6 -1.95 -28.55 -0.2 -27.65 -1.45 -25.2 0.7 -25.5 -0.3 -22.95 Q2.75 -20.75 6.25 -24.55 9.75 -28.35 9.5 -34.4 9.65 -40.7 6.85 -41.6 4.05 -42.55 0.65 -39.05 M2.75 -28.8 Q3.25 -30.8 5.1 -31.05 6.7 -30.8 6.6 -28.5 L6.6 -28.4 Q6.15 -25.2 3.95 -25.1 1.95 -25.75 2.75 -28.8 M2.8 -30.9 Q0.8 -30.5 2.25 -35.25 3.4 -38.15 4.85 -38.5 6.1 -38.45 5.75 -36.05 5.05 -32.3 2.8 -30.9 M10.35 -19.15 L10.0 -19.2 9.45 -18.35 9.0 -18.25 Q7.2 -16.4 4.85 -15.5 1.25 -12.85 -2.65 -10.75 L-2.9 -10.35 Q-5.65 -8.75 -8.0 -6.85 L-8.45 -6.6 -12.5 -36.9 9.45 -56.05 12.2 -20.8 10.35 -19.15 M0.5 -17.55 L0.4 -18.2 -3.25 -24.8 -2.45 -35.55 Q-2.65 -36.8 -3.8 -35.65 L-4.2 -34.0 -4.2 -34.05 Q-4.8 -35.05 -5.45 -34.25 L-5.65 -33.55 -5.55 -32.95 -4.25 -31.15 -4.65 -27.45 -4.7 -27.45 -4.7 -27.5 -7.15 -31.85 Q-7.65 -32.15 -8.2 -31.45 -8.7 -30.5 -8.15 -29.65 L-9.25 -28.7 Q-9.7 -27.3 -8.65 -27.45 L-7.25 -28.0 -4.85 -23.75 -5.35 -16.55 -5.6 -15.95 -7.1 -13.5 Q-7.3 -11.7 -6.0 -13.25 L-5.55 -13.95 -5.55 -13.25 -5.35 -12.7 Q-4.9 -12.25 -4.2 -13.4 L-4.15 -13.4 -3.4 -21.2 -2.1 -18.95 -2.45 -16.1 -2.4 -15.55 Q-2.05 -14.85 -1.25 -16.05 L-1.1 -17.0 -1.05 -17.0 -0.9 -16.65 Q-0.2 -16.35 0.2 -16.95 L0.5 -17.55" fill="#000000" fill-rule="evenodd" stroke="none"/>
    <path d="M2.75 -28.8 Q1.95 -25.75 3.95 -25.1 6.15 -25.2 6.6 -28.4 L6.6 -28.5 Q6.7 -30.8 5.1 -31.05 3.25 -30.8 2.75 -28.8 M0.65 -39.05 Q4.05 -42.55 6.85 -41.6 9.65 -40.7 9.5 -34.4 9.75 -28.35 6.25 -24.55 2.75 -20.75 -0.3 -22.95 L0.7 -25.5 -1.45 -25.2 -0.2 -27.65 -1.95 -28.55 -1.95 -28.6 -0.15 -30.6 -1.6 -31.85 Q-2.75 -35.6 0.65 -39.05 M2.8 -30.9 Q5.05 -32.3 5.75 -36.05 6.1 -38.45 4.85 -38.5 3.4 -38.15 2.25 -35.25 0.8 -30.5 2.8 -30.9 M0.5 -17.55 L0.2 -16.95 Q-0.2 -16.35 -0.9 -16.65 L-1.05 -17.0 -1.1 -17.0 -1.25 -16.05 Q-2.05 -14.85 -2.4 -15.55 L-2.45 -16.1 -2.1 -18.95 -3.4 -21.2 -4.15 -13.4 -4.2 -13.4 Q-4.9 -12.25 -5.35 -12.7 L-5.55 -13.25 -5.55 -13.95 -6.0 -13.25 Q-7.3 -11.7 -7.1 -13.5 L-5.6 -15.95 -5.35 -16.55 -4.85 -23.75 -7.25 -28.0 -8.65 -27.45 Q-9.7 -27.3 -9.25 -28.7 L-8.15 -29.65 Q-8.7 -30.5 -8.2 -31.45 -7.65 -32.15 -7.15 -31.85 L-4.7 -27.5 -4.7 -27.45 -4.65 -27.45 -4.25 -31.15 -5.55 -32.95 -5.65 -33.55 -5.45 -34.25 Q-4.8 -35.05 -4.2 -34.05 L-4.2 -34.0 -3.8 -35.65 Q-2.65 -36.8 -2.45 -35.55 L-3.25 -24.8 0.4 -18.2 0.5 -17.55" fill="#ebebeb" fill-rule="evenodd" stroke="none"/>
  </g>
</svg>
