<?xml version="1.0" encoding="UTF-8" standalone="no"?>
<svg xmlns:xlink="http://www.w3.org/1999/xlink" height="163.4px" width="587.7px" xmlns="http://www.w3.org/2000/svg">
  <g transform="matrix(1.0, 0.0, 0.0, 1.0, 213.35, 41.95)">
    <path d="M186.65 11.95 Q197.45 26.6 203.35 44.25 209.25 61.85 209.35 81.45 L137.6 81.45 Q137.55 71.85 134.0 63.55 130.45 55.25 124.15 48.95 117.85 42.65 109.55 39.1 101.25 35.55 91.7 35.5 L91.2 35.5 91.2 -36.25 91.7 -36.25 Q111.25 -36.15 128.9 -30.25 146.5 -24.35 161.2 -13.55 175.85 -2.75 186.65 11.95" fill="#3d1c0c" fill-rule="evenodd" stroke="none"/>
    <path d="M91.8 35.25 L-213.35 35.25 -213.35 -36.15 91.8 -36.15 91.8 35.25" fill="#3d1c0c" fill-rule="evenodd" stroke="none"/>
    <path d="M255.9 3.75 L256.35 3.75 256.35 75.5 255.9 75.5 Q246.3 75.55 238.0 79.1 229.7 82.65 223.4 88.95 217.1 95.25 213.55 103.55 210.0 111.85 209.95 121.45 L208.3 121.45 Q206.25 106.15 200.55 92.35 194.85 78.55 186.05 66.75 177.2 55.0 165.8 45.7 176.65 32.8 190.7 23.45 204.75 14.05 221.25 8.95 237.75 3.8 255.9 3.75" fill="#3d1c0c" fill-rule="evenodd" stroke="none"/>
    <path d="M368.35 -4.75 Q362.45 12.85 351.65 27.55 340.85 42.25 326.2 53.05 311.5 63.8 293.9 69.75 276.25 75.65 256.7 75.75 L256.2 75.7 256.2 3.95 256.7 4.0 Q266.25 3.95 274.55 0.4 282.85 -3.15 289.15 -9.45 295.45 -15.75 299.0 -24.05 302.55 -32.4 302.6 -41.95 L374.35 -41.95 Q374.25 -22.35 368.35 -4.75" fill="#3d1c0c" fill-rule="evenodd" stroke="none"/>
  </g>
</svg>
