<?xml version="1.0" encoding="UTF-8" standalone="no"?>
<svg xmlns:xlink="http://www.w3.org/1999/xlink" height="348.6px" width="587.7px" xmlns="http://www.w3.org/2000/svg">
  <g transform="matrix(1.0, 0.0, 0.0, 1.0, 0.0, 0.0)">
    <path d="M516.3 139.6 L516.3 0.0 587.7 0.0 587.7 140.0 587.5 140.0 Q587.35 159.4 581.5 176.8 575.6 194.4 564.8 209.1 554.0 223.8 539.35 234.6 524.65 245.35 507.05 251.3 489.4 257.2 469.85 257.3 L469.35 257.25 469.35 257.05 Q459.8 257.1 451.5 260.65 443.2 264.2 436.9 270.5 430.6 276.8 427.05 285.1 423.5 293.4 423.45 303.0 L422.55 303.0 422.55 348.6 351.15 348.6 351.15 262.65 351.1 262.65 Q351.05 253.05 347.5 244.75 343.95 236.45 337.65 230.15 331.35 223.85 323.05 220.3 314.75 216.75 305.2 216.7 L304.7 216.7 304.7 216.45 0.0 216.45 0.0 145.05 304.7 145.05 304.7 144.95 305.2 144.95 Q319.25 145.0 332.4 148.1 345.5 151.25 357.35 157.1 369.15 163.0 379.3 171.25 390.75 180.55 399.55 192.3 403.5 197.6 406.85 203.3 418.6 195.85 432.2 191.3 449.8 185.4 469.4 185.3 L469.85 185.3 469.85 185.55 Q479.4 185.5 487.7 181.95 496.0 178.4 502.3 172.1 508.6 165.8 512.15 157.5 515.7 149.15 515.75 139.6 L516.3 139.6" fill="#244fc4" fill-rule="evenodd" stroke="none"/>
  </g>
</svg>
