<?xml version="1.0" encoding="UTF-8" standalone="no"?>
<svg xmlns:xlink="http://www.w3.org/1999/xlink" height="19.15px" width="14.95px" xmlns="http://www.w3.org/2000/svg">
  <g transform="matrix(1.0, 0.0, 0.0, 1.0, -6.45, 0.5)">
    <path d="M6.9 4.25 L6.9 4.2 6.85 4.2 6.85 4.1 6.45 2.85 6.75 1.15 7.15 0.45 7.85 -0.1 8.95 -0.5 9.85 -0.5 12.3 -0.05 13.7 1.05 Q14.25 2.3 11.7 3.75 8.4 5.3 6.9 4.25 M21.4 16.1 L21.4 16.2 12.85 18.65 Q12.85 16.4 15.95 12.75 L16.15 12.75 19.65 14.25 20.5 15.0 21.4 16.1" fill="#b00000" fill-rule="evenodd" stroke="none"/>
    <path d="M13.7 1.05 Q14.35 0.9 16.25 3.95 L17.25 6.55 17.3 8.45 17.25 8.9 16.95 10.35 16.0 12.7 Q9.1 9.4 6.9 4.25 8.4 5.3 11.7 3.75 14.25 2.3 13.7 1.05" fill="#178b38" fill-rule="evenodd" stroke="none"/>
  </g>
</svg>
