<?xml version="1.0" encoding="UTF-8" standalone="no"?>
<svg xmlns:xlink="http://www.w3.org/1999/xlink" height="19.85px" width="16.5px" xmlns="http://www.w3.org/2000/svg">
  <g transform="matrix(1.0, 0.0, 0.0, 1.0, -4.15, 4.05)">
    <path d="M4.8 1.25 L4.15 -0.1 4.2 -2.05 4.8 -3.2 5.15 -3.55 6.2 -3.85 7.15 -4.05 9.65 -3.6 11.15 -2.55 Q12.0 -1.95 9.3 0.25 5.95 2.15 4.8 1.25 M20.65 12.55 Q16.5 14.2 12.45 15.8 12.2 13.4 14.85 9.55 19.4 10.3 20.6 12.5 L20.65 12.55" fill="#b00000" fill-rule="evenodd" stroke="none"/>
    <path d="M11.15 -2.55 Q11.85 -2.6 14.1 0.35 L15.4 3.1 15.75 5.35 Q15.8 7.0 14.9 9.5 7.75 6.95 4.8 1.25 5.95 2.15 9.3 0.25 12.0 -1.95 11.15 -2.55" fill="#178b38" fill-rule="evenodd" stroke="none"/>
  </g>
</svg>
