<?xml version="1.0" encoding="UTF-8" standalone="no"?>
<svg xmlns:xlink="http://www.w3.org/1999/xlink" height="20.3px" width="20.15px" xmlns="http://www.w3.org/2000/svg">
  <g transform="matrix(1.0, 0.0, 0.0, 1.0, 0.4, 12.8)">
    <path d="M0.65 -6.5 L-0.05 -7.85 -0.4 -10.15 -0.2 -11.95 0.0 -12.6 2.7 -12.75 5.1 -12.05 6.4 -11.2 Q5.3 -9.35 0.65 -6.5 M12.9 1.55 L16.3 1.6 17.15 1.7 Q17.95 1.85 19.75 2.8 L12.6 7.5 Q11.35 5.4 12.8 1.6 L12.9 1.55" fill="#b00000" fill-rule="evenodd" stroke="none"/>
    <path d="M6.4 -11.2 Q13.75 -5.8 12.85 1.55 L12.9 1.55 12.8 1.6 12.8 1.55 Q5.15 1.05 0.65 -6.5 5.3 -9.35 6.4 -11.2" fill="#178b38" fill-rule="evenodd" stroke="none"/>
  </g>
</svg>
