<?xml version="1.0" encoding="UTF-8" standalone="no"?>
<svg xmlns:xlink="http://www.w3.org/1999/xlink" height="18.7px" width="20.5px" xmlns="http://www.w3.org/2000/svg">
  <g transform="matrix(1.0, 0.0, 0.0, 1.0, 1.95, 16.65)">
    <path d="M-0.9 -10.25 L-1.65 -11.55 -1.95 -14.05 -1.7 -15.85 -1.5 -16.4 -0.8 -16.55 0.85 -16.65 3.3 -16.0 4.45 -15.25 4.45 -15.2 Q1.6 -13.5 -0.9 -10.25 M11.7 -3.0 L18.55 -3.35 12.1 2.05 Q10.6 0.9 11.65 -2.95 L11.7 -2.95 11.7 -3.0" fill="#b00000" fill-rule="evenodd" stroke="none"/>
    <path d="M4.45 -15.2 Q11.55 -10.15 11.65 -3.0 L11.7 -3.0 11.7 -2.95 11.65 -2.95 11.65 -3.0 Q3.7 -2.3 -0.9 -10.25 1.6 -13.5 4.45 -15.2" fill="#178b38" fill-rule="evenodd" stroke="none"/>
  </g>
</svg>
