<?xml version="1.0" encoding="UTF-8" standalone="no"?>
<svg xmlns:xlink="http://www.w3.org/1999/xlink" height="15.45px" width="20.05px" xmlns="http://www.w3.org/2000/svg">
  <g transform="matrix(1.0, 0.0, 0.0, 1.0, 5.1, 23.2)">
    <path d="M8.8 -11.8 L8.9 -11.85 Q12.9 -14.35 14.95 -14.6 L9.75 -7.75 Q8.95 -8.4 8.9 -8.9 L8.8 -11.8 M0.35 -22.5 Q-1.25 -22.1 -2.55 -20.1 -4.25 -17.65 -3.9 -16.75 L-4.6 -17.8 -4.7 -18.05 -5.1 -20.65 -4.7 -22.15 Q-4.5 -22.8 -3.0 -23.2 L-0.8 -23.1 0.35 -22.5" fill="#b00000" fill-rule="evenodd" stroke="none"/>
    <path d="M8.9 -11.85 L8.8 -11.8 Q1.05 -9.2 -3.9 -16.75 -4.25 -17.65 -2.55 -20.1 -1.25 -22.1 0.35 -22.5 7.5 -18.5 8.8 -11.85 L8.9 -11.85" fill="#178b38" fill-rule="evenodd" stroke="none"/>
  </g>
</svg>
