<?xml version="1.0" encoding="UTF-8" standalone="no"?>
<svg xmlns:xlink="http://www.w3.org/1999/xlink" height="15.3px" width="21.35px" xmlns="http://www.w3.org/2000/svg">
  <g transform="matrix(1.0, 0.0, 0.0, 1.0, 7.65, 26.35)">
    <path d="M7.4 -15.7 L10.1 -17.35 11.15 -17.85 11.2 -17.85 Q11.9 -18.25 13.7 -18.5 L9.15 -11.05 Q7.5 -11.75 7.35 -15.65 L7.4 -15.7 M-6.05 -19.55 L-7.05 -20.85 -7.65 -22.9 -7.65 -23.5 -7.55 -24.85 -7.4 -25.15 -7.05 -25.6 -5.5 -26.25 -3.55 -26.35 -2.4 -25.9 Q-3.15 -26.0 -4.95 -23.3 -6.6 -20.25 -6.05 -19.55" fill="#b00000" fill-rule="evenodd" stroke="none"/>
    <path d="M7.35 -15.65 Q-0.25 -12.6 -6.05 -19.55 -6.6 -20.25 -4.95 -23.3 -3.15 -26.0 -2.4 -25.9 5.4 -22.45 7.4 -15.7 L7.35 -15.65" fill="#178b38" fill-rule="evenodd" stroke="none"/>
  </g>
</svg>
