<?xml version="1.0" encoding="UTF-8" standalone="no"?>
<svg xmlns:xlink="http://www.w3.org/1999/xlink" height="15.4px" width="23.55px" xmlns="http://www.w3.org/2000/svg">
  <g transform="matrix(1.0, 0.0, 0.0, 1.0, 11.05, 29.1)">
    <path d="M-8.55 -21.85 L-9.6 -22.8 -10.75 -25.1 -11.05 -26.8 -11.05 -27.55 -9.2 -28.7 -6.95 -29.1 -5.6 -28.75 Q-8.75 -25.2 -8.55 -21.85 M5.8 -19.15 L8.8 -20.9 10.7 -21.65 12.5 -21.9 8.65 -13.7 7.7 -14.5 6.9 -15.4 6.6 -16.15 5.8 -19.15" fill="#b00000" fill-rule="evenodd" stroke="none"/>
    <path d="M-8.55 -21.85 Q-8.75 -25.2 -5.6 -28.75 2.95 -26.45 5.8 -19.15 -1.7 -15.75 -8.55 -21.85" fill="#178b38" fill-rule="evenodd" stroke="none"/>
  </g>
</svg>
