<?xml version="1.0" encoding="UTF-8" standalone="no"?>
<svg xmlns:xlink="http://www.w3.org/1999/xlink" height="14.95px" width="25.2px" xmlns="http://www.w3.org/2000/svg">
  <g transform="matrix(1.0, 0.0, 0.0, 1.0, 14.65, 31.0)">
    <path d="M-10.95 -23.5 L-12.3 -24.4 -13.8 -26.45 -14.5 -28.15 -14.65 -28.85 -14.05 -29.45 -12.65 -30.35 -10.25 -31.0 -8.8 -30.9 Q-10.85 -26.85 -10.95 -23.5 M4.0 -22.25 L6.85 -24.1 Q7.4 -24.55 8.75 -24.75 L10.55 -24.9 7.45 -16.05 Q5.15 -17.25 3.95 -22.15 L4.0 -22.2 4.0 -22.25" fill="#b00000" fill-rule="evenodd" stroke="none"/>
    <path d="M-8.8 -30.9 Q0.75 -29.7 3.95 -22.25 L4.0 -22.25 4.0 -22.2 3.95 -22.15 3.95 -22.2 Q-3.2 -18.6 -10.95 -23.5 -10.85 -26.85 -8.8 -30.9" fill="#178b38" fill-rule="evenodd" stroke="none"/>
  </g>
</svg>
