<?xml version="1.0" encoding="UTF-8" standalone="no"?>
<svg xmlns:xlink="http://www.w3.org/1999/xlink" height="12.75px" width="22.9px" xmlns="http://www.w3.org/2000/svg">
  <g transform="matrix(1.0, 0.0, 0.0, 1.0, 19.4, 33.2)">
    <path d="M-0.55 -26.9 L1.15 -28.95 Q1.95 -29.9 2.55 -30.05 L3.45 -30.35 3.5 -30.25 2.2 -20.45 Q0.6 -22.0 -0.55 -26.85 L-0.55 -26.9 M-14.45 -24.95 L-16.0 -25.55 -17.9 -26.95 -19.0 -28.4 -19.4 -29.1 -19.05 -29.8 -17.9 -31.15 -17.65 -31.35 -15.6 -32.65 -14.0 -32.9 Q-13.45 -30.65 -14.45 -24.95" fill="#b00000" fill-rule="evenodd" stroke="none"/>
    <path d="M-0.55 -26.85 Q-5.8 -22.45 -14.45 -24.95 -13.45 -30.65 -14.0 -32.9 -13.45 -33.45 -9.05 -33.0 L-5.65 -32.05 -3.35 -30.6 Q-1.95 -29.5 -0.55 -26.9 L-0.55 -26.85" fill="#178b38" fill-rule="evenodd" stroke="none"/>
  </g>
</svg>
