<?xml version="1.0" encoding="UTF-8" standalone="no"?>
<svg xmlns:xlink="http://www.w3.org/1999/xlink" height="11.6px" width="21.3px" xmlns="http://www.w3.org/2000/svg">
  <g transform="matrix(1.0, 0.0, 0.0, 1.0, 21.15, 33.5)">
    <path d="M-16.0 -24.9 L-17.6 -25.25 -19.6 -26.6 -20.8 -27.95 -21.15 -28.6 -20.9 -29.3 -19.8 -30.95 -17.9 -32.45 -16.25 -32.95 Q-15.35 -29.05 -16.0 -24.9 M-2.8 -28.2 L-1.25 -30.9 -0.65 -31.55 0.15 -32.0 -0.2 -21.9 -0.55 -22.55 -0.6 -22.65 -0.65 -22.7 -1.45 -24.1 -2.8 -28.1 -2.8 -28.2" fill="#b00000" fill-rule="evenodd" stroke="none"/>
    <path d="M-16.0 -24.9 Q-15.35 -29.05 -16.25 -32.95 -6.75 -35.15 -2.8 -28.2 L-2.8 -28.1 Q-7.05 -23.25 -16.0 -24.9" fill="#178b38" fill-rule="evenodd" stroke="none"/>
  </g>
</svg>
