<?xml version="1.0" encoding="UTF-8" standalone="no"?>
<svg xmlns:xlink="http://www.w3.org/1999/xlink" height="10.25px" width="22.1px" xmlns="http://www.w3.org/2000/svg">
  <g transform="matrix(1.0, 0.0, 0.0, 1.0, 23.3, 33.05)">
    <path d="M-17.75 -24.25 Q-17.95 -29.2 -18.6 -32.2 -9.35 -35.0 -4.7 -28.55 L-4.7 -28.5 Q-8.7 -23.05 -17.75 -24.25" fill="#178b38" fill-rule="evenodd" stroke="none"/>
    <path d="M-17.75 -24.25 L-19.3 -24.5 -21.5 -25.7 -22.85 -26.95 -23.3 -27.6 -22.95 -28.4 -21.95 -30.0 -20.2 -31.6 Q-19.4 -31.85 -18.6 -32.2 -17.95 -29.2 -17.75 -24.25 M-4.7 -28.55 L-3.5 -31.25 -2.6 -32.3 -1.75 -32.9 -1.2 -22.8 Q-2.7 -23.85 -4.7 -28.5 L-4.7 -28.55" fill="#b00000" fill-rule="evenodd" stroke="none"/>
  </g>
</svg>
