<?xml version="1.0" encoding="UTF-8" standalone="no"?>
<svg xmlns:xlink="http://www.w3.org/1999/xlink" height="10.4px" width="23.55px" xmlns="http://www.w3.org/2000/svg">
  <g transform="matrix(1.0, 0.0, 0.0, 1.0, 25.05, 33.2)">
    <path d="M-20.8 -30.6 Q-16.65 -32.8 -10.6 -31.05 L-10.25 -30.95 -8.55 -30.0 -6.5 -28.25 -6.5 -28.2 Q-10.25 -22.15 -19.35 -22.9 -20.3 -24.45 -20.8 -30.6" fill="#178b38" fill-rule="evenodd" stroke="none"/>
    <path d="M-6.5 -28.25 L-4.85 -31.65 -3.75 -32.7 -2.95 -33.2 -1.5 -23.35 Q-3.75 -24.05 -6.5 -28.2 L-6.5 -28.25 M-19.35 -22.9 L-20.9 -23.1 -23.1 -24.15 -24.5 -25.35 -25.0 -26.05 -24.8 -26.7 -23.9 -28.35 -22.1 -30.05 -20.8 -30.6 Q-20.3 -24.45 -19.35 -22.9" fill="#b00000" fill-rule="evenodd" stroke="none"/>
  </g>
</svg>
