<?xml version="1.0" encoding="UTF-8" standalone="no"?>
<svg xmlns:xlink="http://www.w3.org/1999/xlink" height="12.0px" width="23.55px" xmlns="http://www.w3.org/2000/svg">
  <g transform="matrix(1.0, 0.0, 0.0, 1.0, 25.8, 33.0)">
    <path d="M-8.3 -27.3 L-6.95 -30.45 Q-6.85 -31.0 -5.8 -31.95 L-4.45 -33.0 -2.25 -23.5 Q-4.8 -23.5 -8.3 -27.25 L-8.3 -27.3 M-20.55 -21.05 L-21.95 -21.2 -24.05 -22.2 -25.45 -23.4 -25.8 -23.95 -25.65 -24.65 -25.1 -26.05 -23.6 -27.85 -22.4 -28.45 Q-23.1 -27.75 -22.15 -24.2 L-21.5 -22.45 -20.55 -21.05" fill="#b00000" fill-rule="evenodd" stroke="none"/>
    <path d="M-8.3 -27.3 L-8.3 -27.25 Q-11.75 -20.6 -20.55 -21.05 L-21.5 -22.45 -22.15 -24.2 Q-23.1 -27.75 -22.4 -28.45 -14.4 -32.1 -8.3 -27.3" fill="#178b38" fill-rule="evenodd" stroke="none"/>
  </g>
</svg>
