<?xml version="1.0" encoding="UTF-8" standalone="no"?>
<svg xmlns:xlink="http://www.w3.org/1999/xlink" height="13.1px" width="21.8px" xmlns="http://www.w3.org/2000/svg">
  <g transform="matrix(1.0, 0.0, 0.0, 1.0, 25.7, 31.95)">
    <path d="M-10.25 -25.7 L-9.25 -28.85 -8.7 -29.9 -8.2 -30.7 -6.95 -31.95 -6.85 -31.8 -3.9 -22.95 Q-6.4 -22.5 -10.25 -25.65 L-10.25 -25.7 M-21.2 -18.85 L-22.5 -18.95 -24.35 -19.95 -24.9 -20.4 -25.7 -21.55 -25.7 -22.45 -25.55 -23.45 -24.65 -25.05 -23.55 -25.85 Q-24.4 -24.75 -23.35 -21.7 -22.3 -19.25 -21.2 -18.85" fill="#b00000" fill-rule="evenodd" stroke="none"/>
    <path d="M-10.25 -25.65 Q-13.15 -18.6 -21.2 -18.85 -22.3 -19.25 -23.35 -21.7 -24.4 -24.75 -23.55 -25.85 L-23.55 -25.9 Q-23.2 -26.6 -19.9 -27.4 L-16.8 -27.65 -14.4 -27.35 Q-12.3 -26.8 -10.25 -25.7 L-10.25 -25.65" fill="#178b38" fill-rule="evenodd" stroke="none"/>
  </g>
</svg>
