<?xml version="1.0" encoding="UTF-8" standalone="no"?>
<svg xmlns:xlink="http://www.w3.org/1999/xlink" height="13.65px" width="19.7px" xmlns="http://www.w3.org/2000/svg">
  <g transform="matrix(1.0, 0.0, 0.0, 1.0, 25.95, 29.95)">
    <path d="M-12.35 -23.6 L-11.65 -26.85 -10.9 -28.65 -9.95 -29.9 -9.85 -29.95 -6.25 -21.5 Q-8.5 -20.9 -12.35 -23.55 L-12.35 -23.6 M-21.95 -16.3 L-22.7 -16.35 -23.3 -16.55 -24.9 -17.65 Q-25.45 -18.1 -25.65 -18.65 L-25.95 -19.55 -25.9 -20.45 -25.4 -22.15 -24.65 -22.8 Q-25.35 -21.05 -24.2 -18.85 -22.85 -16.55 -21.95 -16.3" fill="#b00000" fill-rule="evenodd" stroke="none"/>
    <path d="M-12.35 -23.6 L-12.35 -23.55 Q-14.7 -16.2 -21.7 -16.3 L-21.95 -16.3 Q-22.85 -16.55 -24.2 -18.85 -25.35 -21.05 -24.65 -22.8 -23.9 -23.85 -21.7 -24.5 L-19.05 -25.0 -17.65 -24.9 -17.5 -24.85 -17.15 -24.85 -17.1 -24.85 -14.75 -24.4 -12.35 -23.6" fill="#178b38" fill-rule="evenodd" stroke="none"/>
  </g>
</svg>
