<?xml version="1.0" encoding="UTF-8" standalone="no"?>
<svg xmlns:xlink="http://www.w3.org/1999/xlink" height="14.15px" width="18.3px" xmlns="http://www.w3.org/2000/svg">
  <g transform="matrix(1.0, 0.0, 0.0, 1.0, 26.75, 27.4)">
    <path d="M-14.5 -21.05 L-14.15 -24.35 -13.55 -26.15 -12.7 -27.4 -8.45 -19.5 Q-10.35 -18.7 -14.45 -21.0 L-14.5 -21.05 M-22.5 -13.3 Q-24.4 -12.95 -26.35 -15.45 -26.65 -15.85 -26.75 -16.55 L-26.7 -18.35 -26.45 -18.85 -26.0 -19.3 Q-26.25 -14.95 -22.5 -13.3" fill="#b00000" fill-rule="evenodd" stroke="none"/>
    <path d="M-14.5 -21.05 L-14.45 -21.0 Q-16.2 -13.65 -22.5 -13.3 -26.25 -14.95 -26.0 -19.3 L-25.15 -20.4 -23.5 -21.25 -21.55 -21.8 -20.2 -21.95 -17.2 -21.7 -14.5 -21.05" fill="#178b38" fill-rule="evenodd" stroke="none"/>
  </g>
</svg>
