<?xml version="1.0" encoding="UTF-8" standalone="no"?>
<svg xmlns:xlink="http://www.w3.org/1999/xlink" height="15.05px" width="18.15px" xmlns="http://www.w3.org/2000/svg">
  <g transform="matrix(1.0, 0.0, 0.0, 1.0, 28.45, 24.75)">
    <path d="M-16.65 -18.3 L-16.45 -21.55 -15.95 -23.4 -15.2 -24.75 -10.3 -17.25 Q-12.45 -16.35 -16.6 -18.25 L-16.65 -18.3 M-23.9 -9.85 L-24.85 -9.7 -25.45 -9.85 -27.1 -10.6 -27.9 -11.45 -28.45 -12.65 -28.45 -14.35 -28.3 -14.85 -27.85 -15.5 Q-28.2 -14.05 -26.85 -12.05 -25.8 -10.25 -23.9 -9.85" fill="#b00000" fill-rule="evenodd" stroke="none"/>
    <path d="M-16.65 -18.3 L-16.6 -18.25 Q-17.7 -10.8 -23.9 -9.85 -25.8 -10.25 -26.85 -12.05 -28.2 -14.05 -27.85 -15.5 L-27.0 -16.65 -25.55 -17.65 -25.05 -17.9 -23.1 -18.55 -23.1 -18.6 -22.9 -18.6 -22.85 -18.6 -22.7 -18.6 -22.7 -18.65 -22.5 -18.65 -22.45 -18.7 -22.25 -18.7 -22.2 -18.7 -21.95 -18.7 -16.65 -18.3" fill="#178b38" fill-rule="evenodd" stroke="none"/>
  </g>
</svg>
