<?xml version="1.0" encoding="UTF-8" standalone="no"?>
<svg xmlns:xlink="http://www.w3.org/1999/xlink" height="13.75px" width="11.35px" xmlns="http://www.w3.org/2000/svg">
  <g transform="matrix(1.0, 0.0, 0.0, 1.0, 5.65, 13.75)">
    <path d="M5.1 -10.5 Q5.65 -9.15 5.7 -7.6 5.65 -4.95 4.25 -3.2 2.9 -1.5 0.85 -1.4 -1.25 -1.5 -2.6 -3.25 -1.4 -2.2 0.15 -2.15 2.2 -2.2 3.55 -3.95 4.95 -5.7 5.0 -8.3 4.9 -10.9 3.6 -12.65 4.55 -11.8 5.1 -10.5" fill="#c3c3c3" fill-rule="evenodd" stroke="none"/>
    <path d="M0.85 -13.75 Q2.4 -13.7 3.6 -12.65 4.9 -10.9 4.95 -8.35 4.9 -5.7 3.55 -3.95 2.2 -2.25 0.15 -2.15 -1.4 -2.2 -2.6 -3.25 -3.95 -5.0 -4.0 -7.6 -3.95 -10.2 -2.6 -11.95 -1.2 -13.7 0.85 -13.75" fill="#ffffff" fill-rule="evenodd" stroke="none"/>
    <path d="M3.35 -1.75 Q3.35 -0.9 2.3 -0.1 L1.6 0.0 Q0.95 0.0 0.2 -0.65 -0.6 -1.35 -1.05 -3.4 L0.15 -2.95 0.45 -2.75 1.05 -3.65 1.85 -2.6 2.55 -3.75 2.95 -3.15 Q3.35 -2.6 3.35 -1.75" fill="#ec6829" fill-rule="evenodd" stroke="none"/>
    <path d="M-1.25 -2.15 Q-1.25 -1.3 -2.3 -0.5 L-3.0 -0.4 Q-3.65 -0.4 -4.4 -1.05 -5.2 -1.75 -5.65 -3.8 L-4.45 -3.35 -4.15 -3.15 -3.55 -4.05 -2.75 -3.0 -2.05 -4.15 -1.65 -3.55 Q-1.25 -3.0 -1.25 -2.15" fill="#ec6829" fill-rule="evenodd" stroke="none"/>
  </g>
</svg>
