<?xml version="1.0" encoding="UTF-8" standalone="no"?>
<svg xmlns:xlink="http://www.w3.org/1999/xlink" height="16.8px" width="17.55px" xmlns="http://www.w3.org/2000/svg">
  <g transform="matrix(1.0, 0.0, 0.0, 1.0, 32.65, 18.55)">
    <path d="M-21.25 -12.4 L-21.8 -15.5 -21.85 -16.35 -21.25 -18.55 -15.1 -11.95 Q-17.1 -10.85 -21.2 -12.4 L-21.25 -12.4 M-27.2 -2.25 L-28.25 -1.8 -30.15 -1.75 -30.7 -1.85 Q-32.0 -2.25 -32.1 -2.4 L-32.3 -2.8 -32.65 -4.45 -32.45 -6.2 -31.95 -7.2 Q-30.75 -3.45 -27.2 -2.25" fill="#b00000" fill-rule="evenodd" stroke="none"/>
    <path d="M-21.2 -12.4 Q-20.55 -5.6 -27.2 -2.25 -30.75 -3.45 -31.95 -7.2 -31.6 -8.5 -29.55 -10.25 L-27.25 -11.75 -25.15 -12.4 -23.25 -12.55 -21.25 -12.4 -21.2 -12.4" fill="#178b38" fill-rule="evenodd" stroke="none"/>
  </g>
</svg>
