<?xml version="1.0" encoding="UTF-8" standalone="no"?>
<svg xmlns:xlink="http://www.w3.org/1999/xlink" height="16.75px" width="15.65px" xmlns="http://www.w3.org/2000/svg">
  <g transform="matrix(1.0, 0.0, 0.0, 1.0, 34.3, 14.7)">
    <path d="M-23.8 -9.45 L-23.75 -9.4 Q-22.05 -3.15 -28.4 1.05 -30.7 0.75 -33.65 -3.5 L-33.6 -3.6 -33.6 -3.65 Q-29.85 -10.55 -23.8 -9.45" fill="#178b38" fill-rule="evenodd" stroke="none"/>
    <path d="M-23.75 -9.4 L-23.8 -9.45 Q-25.65 -13.05 -25.25 -14.7 L-18.65 -8.55 Q-20.1 -7.9 -23.75 -9.4 M-33.65 -3.5 Q-30.7 0.75 -28.4 1.05 L-29.5 1.65 -31.6 2.05 -33.15 1.95 -33.8 1.75 Q-34.9 -0.4 -33.65 -3.5" fill="#b00000" fill-rule="evenodd" stroke="none"/>
  </g>
</svg>
