<?xml version="1.0" encoding="UTF-8" standalone="no"?>
<svg xmlns:xlink="http://www.w3.org/1999/xlink" height="15.95px" width="13.4px" xmlns="http://www.w3.org/2000/svg">
  <g transform="matrix(1.0, 0.0, 0.0, 1.0, 35.55, 10.8)">
    <path d="M-26.25 -6.7 L-28.0 -8.95 -29.1 -10.8 -28.95 -10.8 -24.1 -6.95 -24.05 -6.85 -24.0 -6.85 -22.15 -5.3 -22.2 -5.3 -22.6 -5.4 -23.6 -5.55 -26.15 -6.65 -26.25 -6.7 M-29.6 3.8 L-30.65 4.6 -32.65 5.15 -34.35 5.15 -35.0 5.05 -35.25 4.35 -35.55 2.85 -35.5 0.6 -35.05 -0.45 Q-31.95 2.85 -29.6 3.8" fill="#b00000" fill-rule="evenodd" stroke="none"/>
    <path d="M-26.15 -6.65 Q-23.45 -1.2 -29.6 3.8 -31.95 2.85 -35.05 -0.45 -31.8 -7.65 -26.25 -6.7 L-26.15 -6.65" fill="#178b38" fill-rule="evenodd" stroke="none"/>
  </g>
</svg>
