<?xml version="1.0" encoding="UTF-8" standalone="no"?>
<svg xmlns:xlink="http://www.w3.org/1999/xlink" height="15.6px" width="11.75px" xmlns="http://www.w3.org/2000/svg">
  <g transform="matrix(1.0, 0.0, 0.0, 1.0, 36.65, 7.9)">
    <path d="M-30.65 6.1 L-31.65 6.9 -33.5 7.6 -35.15 7.7 -35.9 7.65 -36.2 6.95 -36.6 5.4 -36.65 3.35 -36.3 2.25 Q-32.25 5.5 -30.65 6.1 M-28.45 -4.5 L-31.9 -7.9 -31.85 -7.85 -31.5 -7.65 Q-28.85 -6.6 -25.1 -3.25 L-24.9 -3.05 -25.0 -3.1 -25.0 -3.15 -25.05 -3.15 -25.1 -3.15 -26.2 -3.45 -28.3 -4.45 -28.4 -4.45 -28.45 -4.5" fill="#b00000" fill-rule="evenodd" stroke="none"/>
    <path d="M-36.3 2.25 Q-33.6 -5.0 -28.45 -4.5 L-28.4 -4.45 -28.3 -4.45 Q-24.85 0.3 -30.65 6.1 -32.25 5.5 -36.3 2.25" fill="#178b38" fill-rule="evenodd" stroke="none"/>
  </g>
</svg>
