<?xml version="1.0" encoding="UTF-8" standalone="no"?>
<svg xmlns:xlink="http://www.w3.org/1999/xlink" height="131.4px" width="52.15px" xmlns="http://www.w3.org/2000/svg">
  <g transform="matrix(1.0, 0.0, 0.0, 1.0, 29.8, -51.05)">
    <path d="M21.8 51.05 L22.35 182.2 -26.35 182.45 -26.85 51.3 21.8 51.05" fill="#c7bf57" fill-rule="evenodd" stroke="none"/>
    <path d="M-28.9 56.35 L-26.45 59.4 Q-24.95 61.1 -23.05 62.25 -21.15 63.35 -19.15 62.9 L-22.5 66.95 Q-23.85 68.35 -24.9 68.95 L-26.8 69.6 -21.8 73.6 -26.5 75.35 Q-25.05 75.8 -23.25 77.0 -21.4 78.2 -19.2 81.0 L-23.35 81.7 -25.8 82.6 -22.15 86.35 -29.6 91.5 -29.8 54.9 -28.9 56.35" fill="#8ccf36" fill-rule="evenodd" stroke="none"/>
  </g>
</svg>
