<?xml version="1.0" encoding="UTF-8" standalone="no"?>
<svg xmlns:xlink="http://www.w3.org/1999/xlink" height="6.35px" width="6.3px" xmlns="http://www.w3.org/2000/svg">
  <g transform="matrix(1.0, 0.0, 0.0, 1.0, 2.65, 16.05)">
    <path d="M3.25 -13.35 Q3.25 -14.4 2.65 -15.2 3.65 -14.3 3.65 -12.9 3.65 -11.55 2.75 -10.65 1.85 -9.75 0.5 -9.7 -1.15 -9.8 -2.05 -11.05 -1.15 -10.2 0.1 -10.15 1.45 -10.2 2.35 -11.1 3.25 -12.0 3.25 -13.35" fill="#c3c3c3" fill-rule="evenodd" stroke="none"/>
    <path d="M0.5 -16.05 Q1.8 -16.0 2.65 -15.2 3.25 -14.4 3.3 -13.35 3.25 -12.0 2.35 -11.1 1.45 -10.2 0.1 -10.15 -1.15 -10.2 -2.05 -11.0 -2.6 -11.85 -2.65 -12.9 -2.6 -14.25 -1.7 -15.1 -0.85 -16.0 0.5 -16.05" fill="#ffffff" fill-rule="evenodd" stroke="none"/>
    <path d="M-0.25 -12.6 L1.1 -11.9 -1.35 -10.55 -1.35 -12.25 -0.25 -12.6" fill="#ec6829" fill-rule="evenodd" stroke="none"/>
    <path d="M1.8 -13.2 Q1.8 -12.8 1.4 -12.8 1.05 -12.8 1.0 -13.2 1.05 -13.55 1.4 -13.6 L1.8 -13.2" fill="#000000" fill-rule="evenodd" stroke="none"/>
    <path d="M-0.45 -13.5 Q-0.45 -13.1 -0.85 -13.1 L-1.25 -13.5 -0.85 -13.9 Q-0.45 -13.85 -0.45 -13.5" fill="#000000" fill-rule="evenodd" stroke="none"/>
  </g>
</svg>
