<?xml version="1.0" encoding="UTF-8" standalone="no"?>
<svg xmlns:xlink="http://www.w3.org/1999/xlink" height="4.65px" width="265.4px" xmlns="http://www.w3.org/2000/svg">
  <g transform="matrix(1.0, 0.0, 0.0, 1.0, 0.0, 0.0)">
    <path d="M251.0 4.6 L235.5 4.6 216.7 4.5 196.15 4.45 175.6 4.4 156.7 4.35 141.1 4.35 130.4 4.35 Q134.1 4.25 137.05 3.2 139.95 2.15 141.65 1.1 L143.4 0.0 145.2 0.95 Q147.0 1.85 150.6 2.7 L159.4 3.65 167.6 3.2 175.35 2.15 181.15 1.15 183.4 0.65 186.1 1.5 193.05 3.0 202.75 3.85 212.75 2.95 220.4 1.25 223.4 0.35 224.95 1.1 Q226.5 1.85 229.35 2.55 L236.25 3.35 242.45 2.9 248.3 2.0 252.7 1.1 254.4 0.65 265.4 4.65 261.55 4.65 251.0 4.6" fill="#244fc4" fill-rule="evenodd" stroke="none"/>
    <path d="M124.0 0.65 L135.0 4.65 131.15 4.65 120.6 4.6 105.1 4.6 86.3 4.5 65.75 4.45 45.2 4.4 26.3 4.35 10.7 4.35 0.0 4.35 Q3.7 4.25 6.65 3.2 9.55 2.15 11.25 1.1 L13.0 0.0 14.8 0.95 Q16.6 1.85 20.2 2.7 23.75 3.6 29.0 3.65 L37.2 3.2 44.95 2.15 50.75 1.15 53.0 0.65 55.7 1.5 62.65 3.0 72.35 3.85 82.35 2.95 90.0 1.25 93.0 0.35 94.55 1.1 98.95 2.55 105.85 3.35 112.05 2.9 117.9 2.0 122.3 1.1 124.0 0.65" fill="#244fc4" fill-rule="evenodd" stroke="none"/>
  </g>
</svg>
