<?xml version="1.0" encoding="UTF-8" standalone="no"?>
<svg xmlns:xlink="http://www.w3.org/1999/xlink" height="18.55px" width="19.1px" xmlns="http://www.w3.org/2000/svg">
  <g transform="matrix(1.0, 0.0, 0.0, 1.0, -33.65, -59.55)">
    <path d="M39.55 66.7 Q39.55 65.85 40.15 65.25 40.75 64.65 41.6 64.65 42.5 64.65 43.1 65.25 43.65 65.85 43.7 66.7 43.65 67.6 43.05 68.2 42.5 68.75 41.6 68.8 40.75 68.75 40.15 68.15 39.55 67.6 39.55 66.7" fill="#527312" fill-rule="evenodd" stroke="none"/>
    <path d="M39.55 66.7 Q39.55 67.6 40.15 68.15 40.75 68.75 41.6 68.8 42.5 68.75 43.05 68.2 43.65 67.6 43.7 66.7 43.65 65.85 43.1 65.25 42.5 64.65 41.6 64.65 40.75 64.65 40.15 65.25 39.55 65.85 39.55 66.7 M36.65 69.95 Q36.95 69.25 37.55 68.5 36.1 68.4 35.15 67.9 34.25 67.4 34.2 66.7 34.2 66.05 35.0 65.6 35.8 65.15 37.05 64.95 36.4 64.0 36.2 63.2 36.0 62.35 36.4 61.95 36.9 61.5 37.85 61.75 38.85 62.05 39.9 62.9 40.0 61.45 40.5 60.5 40.95 59.6 41.65 59.55 42.4 59.6 42.9 60.6 43.4 61.55 43.45 63.1 44.55 62.1 45.6 61.75 L47.2 61.9 Q47.65 62.4 47.35 63.35 47.1 64.3 46.2 65.35 47.65 65.45 48.6 65.95 49.55 66.45 49.55 67.15 49.55 67.75 48.75 68.25 47.95 68.7 46.7 68.85 L47.4 70.1 47.55 70.65 Q47.75 71.45 47.35 71.9 L45.9 72.1 45.35 71.9 44.1 71.1 43.9 70.95 43.9 71.15 43.3 73.3 Q42.8 74.25 42.1 74.3 41.4 74.25 40.9 73.25 40.4 72.25 40.3 70.75 39.2 71.75 38.15 72.1 L37.1 72.2 36.6 71.95 36.55 71.85 Q36.15 71.35 36.4 70.5 L36.65 69.95" fill="#ffff00" fill-rule="evenodd" stroke="none"/>
    <path d="M47.4 70.1 L49.05 68.95 51.6 67.45 52.75 66.85 52.25 68.0 50.8 70.65 48.85 73.55 Q47.8 74.95 46.7 75.5 L45.2 75.6 44.7 75.25 Q44.2 74.75 44.15 74.2 L42.6 74.45 Q40.9 74.2 38.8 73.15 L37.1 72.2 38.15 72.1 Q39.2 71.75 40.3 70.75 40.4 72.25 40.9 73.25 41.4 74.25 42.1 74.3 42.8 74.25 43.3 73.3 L43.9 71.15 44.15 71.3 44.3 71.4 44.85 72.5 45.35 71.9 45.9 72.1 47.35 71.9 Q47.75 71.45 47.55 70.65 L47.4 70.1 M36.55 71.85 L35.25 71.05 33.65 70.0 34.95 69.95 36.65 69.95 36.4 70.5 Q36.15 71.35 36.55 71.85" fill="#425c0a" fill-rule="evenodd" stroke="none"/>
    <path d="M45.2 75.6 L44.95 77.1 M44.3 71.4 L44.1 71.1 M44.85 72.5 L44.3 71.4" fill="none" stroke="#425c0a" stroke-linecap="round" stroke-linejoin="round" stroke-width="2.0"/>
  </g>
</svg>
