<?xml version="1.0" encoding="UTF-8" standalone="no"?>
<svg xmlns:xlink="http://www.w3.org/1999/xlink" height="96.85px" width="74.25px" xmlns="http://www.w3.org/2000/svg">
  <g transform="matrix(1.0, 0.0, 0.0, 1.0, 36.4, 48.15)">
    <path d="M-24.85 4.3 L-22.85 5.25 -20.1 4.3 Q-19.05 5.2 -18.1 6.05 L-15.85 4.3 -13.3 5.25 -14.05 47.4 -24.85 47.4 -24.85 4.3" fill="#ffd400" fill-rule="evenodd" stroke="none"/>
    <path d="M9.5 3.5 L11.55 4.3 14.3 3.25 16.3 4.75 18.55 3.0 21.05 4.05 22.55 46.2 11.8 46.7 9.5 3.5" fill="#ffd400" fill-rule="evenodd" stroke="none"/>
    <path d="M11.05 -45.65 L21.85 -45.65 21.85 -3.75 19.8 -4.5 17.05 -3.75 15.05 -5.3 12.8 -3.75 10.25 -4.75 11.05 -45.65" fill="#9f7800" fill-rule="evenodd" stroke="none"/>
    <path d="M-25.6 -44.15 L-14.8 -44.65 -12.8 -1.75 -14.8 -2.75 -17.3 -1.5 -19.55 -3.25 -21.55 -1.5 -24.35 -2.25 -25.6 -44.15" fill="#9f7800" fill-rule="evenodd" stroke="none"/>
    <path d="M10.25 -6.75 L11.05 -47.7 21.85 -47.7 21.85 -5.75 19.8 -6.5 17.05 -5.75 15.05 -7.25 12.8 -5.75 10.25 -6.75" fill="#ffd400" fill-rule="evenodd" stroke="none"/>
    <path d="M-25.6 -46.15 L-14.8 -46.65 -12.8 -3.75 -14.8 -4.75 -17.3 -3.5 -19.55 -5.3 -21.55 -3.5 -24.35 -4.25 -25.6 -46.15" fill="#ffd400" fill-rule="evenodd" stroke="none"/>
    <path d="M-32.85 10.3 L28.6 8.55 30.6 11.3 32.85 26.6 -34.85 28.15 -34.6 12.55 -32.85 10.3" fill="#9f7800" fill-rule="evenodd" stroke="none"/>
    <path d="M-32.85 10.3 L28.35 8.55 30.6 24.85 -33.4 26.6 -32.85 10.3" fill="#d9b324" fill-rule="evenodd" stroke="none"/>
    <path d="M35.35 30.9 L37.85 47.15 -36.4 48.7 -36.15 32.4 -34.15 30.15 33.1 28.15 35.35 30.9" fill="#9f7800" fill-rule="evenodd" stroke="none"/>
    <path d="M32.85 28.15 L35.35 45.15 -34.6 47.15 -34.15 30.15 32.85 28.15" fill="#d9b324" fill-rule="evenodd" stroke="none"/>
    <path d="M26.6 -30.85 L-33.1 -29.6 -32.6 -44.4 -31.15 -46.65 22.55 -48.15 24.35 -45.65 26.6 -30.85" fill="#9f7800" fill-rule="evenodd" stroke="none"/>
    <path d="M24.6 -32.6 L-31.65 -31.1 -31.15 -46.65 22.3 -48.15 24.6 -32.6" fill="#d9b324" fill-rule="evenodd" stroke="none"/>
    <path d="M28.85 -11.25 L-34.85 -10.05 -34.6 -25.35 -32.85 -27.6 24.6 -29.35 26.35 -26.6 28.85 -11.25" fill="#9f7800" fill-rule="evenodd" stroke="none"/>
    <path d="M26.6 -13.3 L-33.65 -11.5 -32.85 -27.6 24.35 -29.35 26.6 -13.3" fill="#d9b324" fill-rule="evenodd" stroke="none"/>
  </g>
</svg>
