<?xml version="1.0" encoding="UTF-8" standalone="no"?>
<svg xmlns:xlink="http://www.w3.org/1999/xlink" height="253.55px" width="631.7px" xmlns="http://www.w3.org/2000/svg">
  <g transform="matrix(1.0, 0.0, 0.0, 1.0, -20.95, -157.95)">
    <path d="M652.65 271.0 L563.9 271.0 563.9 333.9 569.9 333.9 569.9 380.9 584.9 380.9 584.9 397.9 595.9 397.9 595.9 411.5 148.9 411.5 148.9 362.9 20.95 362.9 20.95 287.9 44.95 287.9 44.95 266.95 158.85 266.95 173.95 293.45 359.4 295.45 329.4 249.45 149.45 250.45 152.6 255.95 44.95 255.95 44.95 164.95 70.9 164.95 70.9 206.9 120.9 206.9 120.9 190.9 232.9 190.9 232.9 157.95 244.9 157.95 244.9 164.95 374.45 164.95 374.45 173.75 Q370.5 176.0 370.5 178.95 370.5 182.7 376.9 185.3 383.35 187.95 392.45 187.95 401.55 187.95 407.95 185.3 414.4 182.7 414.4 178.95 414.4 176.2 410.95 174.05 L410.95 164.95 563.9 164.95 563.9 211.55 652.65 211.55 652.65 271.0 M473.9 257.95 Q473.9 268.1 481.5 275.25 489.15 282.45 499.9 282.45 510.65 282.45 518.25 275.25 525.9 268.1 525.9 257.95 525.9 247.8 518.25 240.6 510.65 233.45 499.9 233.45 489.15 233.45 481.5 240.6 473.9 247.8 473.9 257.95" fill="#000000" fill-opacity="0.101960786" fill-rule="evenodd" stroke="none"/>
  </g>
</svg>
