<?xml version="1.0" encoding="UTF-8" standalone="no"?>
<svg xmlns:xlink="http://www.w3.org/1999/xlink" height="371.6px" width="368.25px" xmlns="http://www.w3.org/2000/svg">
  <g transform="matrix(1.0, 0.0, 0.0, 1.0, 97.0, 181.1)">
    <path d="M-79.1 190.25 L-79.55 189.85 -77.95 188.2 -79.25 186.95 -76.9 184.6 -79.25 182.25 -76.9 179.95 -79.25 177.6 -76.9 175.25 -79.25 172.95 -76.9 170.6 -79.25 168.25 -76.9 165.95 -79.25 163.6 -76.9 161.25 -79.25 158.95 -76.9 156.6 -79.25 154.25 -76.9 151.95 -79.25 149.6 -76.9 147.25 -79.25 144.95 -76.9 142.6 -79.25 140.25 -76.9 137.95 -79.25 135.6 -76.9 133.25 -79.25 130.95 -76.9 128.6 -79.25 126.3 -76.9 123.95 -79.25 121.6 -76.9 119.3 -79.25 116.95 -76.9 114.6 -79.25 112.3 -76.9 109.95 -79.25 107.6 -76.9 105.3 -79.25 102.95 -76.9 100.6 -77.75 99.8 -76.25 98.25 -75.8 98.25 -73.7 100.4 -71.5 98.2 -71.2 98.2 -69.0 100.4 -66.75 98.15 -66.6 98.15 -64.35 100.4 -62.05 98.1 -62.0 98.1 -59.7 100.4 -57.35 98.05 -55.0 100.4 -52.7 98.05 -50.35 100.4 -48.0 98.05 -46.65 99.45 -46.5 99.3 -45.55 100.25 -43.35 98.05 -43.3 98.1 -43.2 98.0 -40.9 100.25 -38.7 98.05 -38.65 98.1 -38.5 98.0 -36.25 100.25 -34.0 98.05 -33.95 98.1 -33.85 98.0 -31.5 100.3 -29.2 98.0 -26.85 100.3 -24.5 98.0 -22.2 100.3 -19.85 98.0 -17.55 100.3 -15.2 98.0 -12.85 100.3 -10.55 98.0 -8.2 100.3 -5.85 98.0 -3.55 100.3 -1.2 98.0 1.15 100.3 3.45 98.0 5.8 100.3 8.15 98.0 10.45 100.3 12.8 98.0 15.15 100.3 17.45 98.0 19.8 100.3 22.15 98.0 24.45 100.3 26.8 98.0 29.15 100.3 31.45 98.0 33.8 100.3 36.15 98.0 38.45 100.3 40.8 98.0 43.15 100.3 45.45 98.0 47.8 100.3 50.15 98.0 52.45 100.3 54.8 98.0 57.15 100.3 59.45 98.0 61.8 100.3 64.15 98.0 66.45 100.3 68.8 98.0 71.15 100.3 73.45 98.0 75.8 100.3 78.15 98.0 79.45 99.3 79.5 99.3 80.45 100.3 82.8 98.0 85.15 100.3 87.45 98.0 87.5 98.0 89.8 100.3 90.6 99.5 90.65 99.5 92.15 98.0 94.5 100.3 96.8 98.0 99.15 100.3 101.5 98.0 103.8 100.3 106.15 98.0 108.45 100.3 110.8 98.0 113.15 100.3 115.45 98.0 117.8 100.3 120.15 98.0 122.45 100.3 124.8 98.0 127.15 100.3 129.45 98.0 131.8 100.3 134.15 98.0 136.45 100.3 138.8 98.0 140.55 99.7 142.15 98.6 139.8 96.25 142.5 94.1 141.9 93.5 142.0 93.4 140.25 91.65 140.8 91.15 140.2 90.55 141.8 88.95 140.05 87.2 140.7 86.55 140.15 85.95 142.1 84.0 139.75 81.65 142.3 79.15 139.95 76.8 142.4 74.35 140.05 72.0 142.45 69.6 140.15 67.3 142.15 64.0 139.8 61.7 142.15 60.1 139.8 57.75 142.6 55.5 140.25 53.15 142.4 51.0 140.05 48.7 142.8 45.95 141.05 44.2 141.65 43.6 141.05 43.0 142.8 41.25 141.05 39.55 141.65 38.95 141.05 38.35 142.8 36.6 141.05 34.85 141.65 34.25 141.05 33.7 142.8 31.95 141.05 30.2 141.65 29.6 141.05 29.0 142.8 27.25 141.05 25.55 141.65 24.95 141.05 24.35 142.8 22.6 141.05 20.85 141.65 20.3 141.05 19.7 142.8 17.95 141.05 16.2 141.65 15.6 141.05 15.0 142.8 13.3 141.05 11.55 141.65 10.95 141.05 10.35 142.8 8.6 141.05 6.85 141.65 6.3 141.05 5.7 142.8 3.95 141.05 2.2 141.65 1.6 141.05 1.05 142.8 -0.7 141.05 -2.45 141.65 -3.05 141.05 -3.65 142.8 -5.4 141.75 -6.5 142.3 -7.05 141.05 -8.3 143.4 -10.65 141.05 -12.95 143.4 -15.3 141.05 -17.65 143.4 -19.95 141.05 -22.3 143.4 -24.65 141.05 -26.95 143.4 -29.3 141.05 -31.65 143.4 -33.95 141.05 -36.3 143.4 -38.65 141.05 -40.95 143.4 -43.3 141.75 -45.0 142.95 -46.2 145.3 -43.85 147.6 -46.2 149.95 -43.85 152.3 -46.2 154.6 -43.85 156.95 -46.2 159.3 -43.85 161.6 -46.2 163.95 -43.85 166.3 -46.2 168.6 -43.85 170.95 -46.2 173.3 -43.85 175.6 -46.2 177.95 -43.85 180.3 -46.2 182.6 -43.85 184.95 -46.2 186.85 -44.3 185.85 -43.3 188.15 -40.95 185.85 -38.65 188.15 -36.3 185.85 -33.95 188.15 -31.65 185.85 -29.3 188.15 -26.95 185.85 -24.65 188.15 -22.3 185.85 -19.95 188.15 -17.65 185.85 -15.3 188.15 -12.95 185.85 -10.65 188.15 -8.3 186.25 -6.4 186.85 -5.8 186.45 -5.4 188.15 -3.65 187.6 -3.05 188.15 -2.45 186.45 -0.7 188.15 1.05 187.6 1.6 188.15 2.2 186.45 3.95 188.15 5.7 187.6 6.3 188.15 6.85 186.45 8.6 188.15 10.35 187.6 10.95 188.15 11.55 186.45 13.3 188.15 15.0 187.6 15.6 188.15 16.2 186.45 17.95 188.15 19.7 187.6 20.3 188.15 20.85 186.45 22.6 188.15 24.35 187.6 24.95 188.15 25.55 186.45 27.25 188.15 29.0 187.6 29.6 188.15 30.2 186.45 31.95 188.15 33.7 187.6 34.25 188.15 34.85 186.45 36.6 188.15 38.35 187.6 38.95 188.15 39.55 186.45 41.25 188.15 43.0 187.6 43.6 188.15 44.2 186.45 45.95 188.15 47.7 187.6 48.25 188.15 48.85 186.45 50.6 188.15 52.35 187.6 52.95 188.15 53.5 186.45 55.25 188.15 57.0 187.6 57.6 188.15 58.2 186.45 59.95 188.15 61.7 187.6 62.25 188.15 62.85 186.45 64.6 188.15 66.35 187.6 66.95 188.15 67.5 186.45 69.25 188.15 71.0 187.6 71.6 188.15 72.2 186.45 73.95 188.15 75.7 187.6 76.25 188.15 76.85 186.45 78.6 188.15 80.35 187.6 80.95 188.15 81.5 186.45 83.25 188.15 85.0 187.6 85.6 188.15 86.2 186.45 87.95 188.15 89.7 187.6 90.25 188.15 90.85 186.45 92.6 186.65 92.85 186.1 93.45 188.15 95.5 185.85 97.85 188.05 100.05 188.05 100.4 188.9 101.25 188.9 101.65 187.9 102.65 187.8 104.8 188.95 105.95 188.95 106.25 187.65 107.6 187.55 109.25 189.0 110.7 189.0 110.9 187.35 112.55 187.3 113.65 189.1 115.45 189.1 115.5 187.1 117.5 187.05 118.05 189.1 120.1 186.8 122.4 186.8 122.5 189.1 124.8 186.75 127.1 189.1 129.45 186.75 131.8 189.1 134.1 186.75 136.45 189.1 138.8 186.75 141.1 189.1 143.45 188.05 144.5 187.4 143.85 185.5 145.8 185.45 146.35 185.25 146.05 185.1 146.2 183.4 144.5 181.55 146.35 181.05 145.7 180.5 146.25 178.55 144.3 176.2 146.65 174.05 144.5 172.45 146.1 172.1 145.7 171.35 146.45 168.9 144.0 166.55 146.35 164.15 143.95 161.8 146.25 158.55 144.25 156.2 146.6 156.35 143.95 155.15 142.75 152.8 145.1 150.45 142.75 148.15 145.1 145.8 142.75 143.45 145.1 141.15 142.75 138.8 145.1 136.45 142.75 134.15 145.1 131.8 142.75 129.45 145.1 127.15 142.75 124.8 145.1 122.45 142.75 120.15 145.1 117.8 142.75 115.45 145.1 113.15 142.75 110.8 145.1 108.45 142.75 106.15 145.1 103.8 142.75 101.5 145.1 99.15 142.75 96.8 145.1 94.5 142.75 92.15 145.1 90.65 143.6 88.35 145.95 86.05 143.7 83.75 146.0 81.75 144.05 79.45 146.4 76.9 143.85 74.6 146.2 72.15 143.75 69.8 146.1 67.4 143.7 65.05 146.0 61.8 144.0 59.45 146.35 57.9 144.0 55.55 146.35 53.3 143.55 50.95 145.9 48.8 143.75 46.45 146.1 43.15 142.75 40.8 145.1 38.45 142.75 36.15 145.1 33.8 142.75 31.45 145.1 29.15 142.75 26.8 145.1 24.45 142.75 22.15 145.1 19.8 142.75 17.45 145.1 15.15 142.75 12.8 145.1 10.45 142.75 8.15 145.1 5.8 142.75 3.45 145.1 1.15 142.75 -1.2 145.1 -3.55 142.75 -5.85 145.1 -8.2 142.75 -10.55 145.1 -12.85 142.75 -15.2 145.1 -17.55 142.75 -19.85 145.1 -22.2 142.75 -24.5 145.1 -26.85 142.75 -29.2 145.1 -31.5 142.75 -31.95 143.15 -31.15 143.95 -34.45 147.25 -32.15 149.6 -34.45 151.95 -32.15 154.25 -34.45 156.6 -32.15 158.95 -34.45 161.25 -32.15 163.6 -34.45 165.95 -32.15 168.25 -34.45 170.6 -32.15 172.95 -34.45 175.25 -32.15 177.6 -34.45 179.95 -32.15 182.25 -34.45 184.6 -32.15 186.95 -33.75 188.55 -32.05 190.25 -79.1 190.25" fill="#cb9d6b" fill-rule="evenodd" stroke="none"/>
    <path d="M-32.05 190.25 L-33.75 188.55 -32.15 186.95 -34.45 184.6 -32.15 182.25 -34.45 179.95 -32.15 177.6 -34.45 175.25 -32.15 172.95 -34.45 170.6 -32.15 168.25 -34.45 165.95 -32.15 163.6 -34.45 161.25 -32.15 158.95 -34.45 156.6 -32.15 154.25 -34.45 151.95 -32.15 149.6 -34.45 147.25 -31.15 143.95 -31.95 143.15 -31.5 142.75 -29.2 145.1 -26.85 142.75 -24.5 145.1 -22.2 142.75 -19.85 145.1 -17.55 142.75 -15.2 145.1 -12.85 142.75 -10.55 145.1 -8.2 142.75 -5.85 145.1 -3.55 142.75 -1.2 145.1 1.15 142.75 3.45 145.1 5.8 142.75 8.15 145.1 10.45 142.75 12.8 145.1 15.15 142.75 17.45 145.1 19.8 142.75 22.15 145.1 24.45 142.75 26.8 145.1 29.15 142.75 31.45 145.1 33.8 142.75 36.15 145.1 38.45 142.75 40.8 145.1 43.15 142.75 46.45 146.1 48.8 143.75 50.95 145.9 53.3 143.55 55.55 146.35 57.9 144.0 59.45 146.35 61.8 144.0 65.05 146.0 67.4 143.7 69.8 146.1 72.15 143.75 74.6 146.2 76.9 143.85 79.45 146.4 81.75 144.05 83.75 146.0 86.05 143.7 88.35 145.95 90.65 143.6 92.15 145.1 94.5 142.75 96.8 145.1 99.15 142.75 101.5 145.1 103.8 142.75 106.15 145.1 108.45 142.75 110.8 145.1 113.15 142.75 115.45 145.1 117.8 142.75 120.15 145.1 122.45 142.75 124.8 145.1 127.15 142.75 129.45 145.1 131.8 142.75 134.15 145.1 136.45 142.75 138.8 145.1 141.15 142.75 143.45 145.1 145.8 142.75 148.15 145.1 150.45 142.75 152.8 145.1 155.15 142.75 156.35 143.95 156.2 146.6 158.55 144.25 161.8 146.25 164.15 143.95 166.55 146.35 168.9 144.0 171.35 146.45 172.1 145.7 172.45 146.1 174.05 144.5 176.2 146.65 178.55 144.3 180.5 146.25 181.05 145.7 181.55 146.35 183.4 144.5 185.1 146.2 185.25 146.05 185.45 146.35 185.5 145.8 187.4 143.85 188.05 144.5 189.1 143.45 186.75 141.1 189.1 138.8 186.75 136.45 189.1 134.1 186.75 131.8 189.1 129.45 186.75 127.1 189.1 124.8 186.8 122.5 186.8 122.4 189.1 120.1 187.05 118.05 187.1 117.5 189.1 115.5 189.1 115.45 187.3 113.65 187.35 112.55 189.0 110.9 189.0 110.7 187.55 109.25 187.65 107.6 188.95 106.25 188.95 105.95 187.8 104.8 187.9 102.65 188.9 101.65 188.9 101.25 188.05 100.4 188.05 100.05 185.85 97.85 188.15 95.5 186.1 93.45 186.65 92.85 186.45 92.6 188.15 90.85 187.6 90.25 188.15 89.7 186.45 87.95 188.15 86.2 187.6 85.6 188.15 85.0 186.45 83.25 188.15 81.5 187.6 80.95 188.15 80.35 186.45 78.6 188.15 76.85 187.6 76.25 188.15 75.7 186.45 73.95 188.15 72.2 187.6 71.6 188.15 71.0 186.45 69.25 188.15 67.5 187.6 66.95 188.15 66.35 186.45 64.6 188.15 62.85 187.6 62.25 188.15 61.7 186.45 59.95 188.15 58.2 187.6 57.6 188.15 57.0 186.45 55.25 188.15 53.5 187.6 52.95 188.15 52.35 186.45 50.6 188.15 48.85 187.6 48.25 188.15 47.7 186.45 45.95 188.15 44.2 187.6 43.6 188.15 43.0 186.45 41.25 188.15 39.55 187.6 38.95 188.15 38.35 186.45 36.6 188.15 34.85 187.6 34.25 188.15 33.7 186.45 31.95 188.15 30.2 187.6 29.6 188.15 29.0 186.45 27.25 188.15 25.55 187.6 24.95 188.15 24.35 186.45 22.6 188.15 20.85 187.6 20.3 188.15 19.7 186.45 17.95 188.15 16.2 187.6 15.6 188.15 15.0 186.45 13.3 188.15 11.55 187.6 10.95 188.15 10.35 186.45 8.6 188.15 6.85 187.6 6.3 188.15 5.7 186.45 3.95 188.15 2.2 187.6 1.6 188.15 1.05 186.45 -0.7 188.15 -2.45 187.6 -3.05 188.15 -3.65 186.45 -5.4 186.85 -5.8 186.25 -6.4 188.15 -8.3 185.85 -10.65 188.15 -12.95 185.85 -15.3 188.15 -17.65 185.85 -19.95 188.15 -22.3 185.85 -24.65 188.15 -26.95 185.85 -29.3 188.15 -31.65 185.85 -33.95 188.15 -36.3 185.85 -38.65 188.15 -40.95 185.85 -43.3 186.85 -44.3 184.95 -46.2 182.6 -43.85 180.3 -46.2 177.95 -43.85 175.6 -46.2 173.3 -43.85 170.95 -46.2 168.6 -43.85 166.3 -46.2 163.95 -43.85 161.6 -46.2 159.3 -43.85 156.95 -46.2 154.6 -43.85 152.3 -46.2 149.95 -43.85 147.6 -46.2 145.3 -43.85 142.95 -46.2 141.75 -45.0 143.4 -43.3 141.05 -40.95 143.4 -38.65 141.05 -36.3 143.4 -33.95 141.05 -31.65 143.4 -29.3 141.05 -26.95 143.4 -24.65 141.05 -22.3 143.4 -19.95 141.05 -17.65 143.4 -15.3 141.05 -12.95 143.4 -10.65 141.05 -8.3 142.3 -7.05 141.75 -6.5 142.8 -5.4 141.05 -3.65 141.65 -3.05 141.05 -2.45 142.8 -0.7 141.05 1.05 141.65 1.6 141.05 2.2 142.8 3.95 141.05 5.7 141.65 6.3 141.05 6.85 142.8 8.6 141.05 10.35 141.65 10.95 141.05 11.55 142.8 13.3 141.05 15.0 141.65 15.6 141.05 16.2 142.8 17.95 141.05 19.7 141.65 20.3 141.05 20.85 142.8 22.6 141.05 24.35 141.65 24.95 141.05 25.55 142.8 27.25 141.05 29.0 141.65 29.6 141.05 30.2 142.8 31.95 141.05 33.7 141.65 34.25 141.05 34.85 142.8 36.6 141.05 38.35 141.65 38.95 141.05 39.55 142.8 41.25 141.05 43.0 141.65 43.6 141.05 44.2 142.8 45.95 140.05 48.7 142.4 51.0 140.25 53.15 142.6 55.5 139.8 57.75 142.15 60.1 139.8 61.7 142.15 64.0 140.15 67.3 142.45 69.6 140.05 72.0 142.4 74.35 139.95 76.8 142.3 79.15 139.75 81.65 142.1 84.0 140.15 85.95 140.7 86.55 140.05 87.2 141.8 88.95 140.2 90.55 140.8 91.15 140.25 91.65 142.0 93.4 141.9 93.5 142.5 94.1 139.8 96.25 142.15 98.6 140.55 99.7 138.8 98.0 136.45 100.3 134.15 98.0 131.8 100.3 129.45 98.0 127.15 100.3 124.8 98.0 122.45 100.3 120.15 98.0 117.8 100.3 115.45 98.0 113.15 100.3 110.8 98.0 108.45 100.3 106.15 98.0 103.8 100.3 101.5 98.0 99.15 100.3 96.8 98.0 94.5 100.3 92.15 98.0 90.65 99.5 90.6 99.5 89.8 100.3 87.5 98.0 87.45 98.0 85.15 100.3 82.8 98.0 80.45 100.3 79.5 99.3 79.45 99.3 78.15 98.0 75.8 100.3 73.45 98.0 71.15 100.3 68.8 98.0 66.45 100.3 64.15 98.0 61.8 100.3 59.45 98.0 57.15 100.3 54.8 98.0 52.45 100.3 50.15 98.0 47.8 100.3 45.45 98.0 43.15 100.3 40.8 98.0 38.45 100.3 36.15 98.0 33.8 100.3 31.45 98.0 29.15 100.3 26.8 98.0 24.45 100.3 22.15 98.0 19.8 100.3 17.45 98.0 15.15 100.3 12.8 98.0 10.45 100.3 8.15 98.0 5.8 100.3 3.45 98.0 1.15 100.3 -1.2 98.0 -3.55 100.3 -5.85 98.0 -8.2 100.3 -10.55 98.0 -12.85 100.3 -15.2 98.0 -17.55 100.3 -19.85 98.0 -22.2 100.3 -24.5 98.0 -26.85 100.3 -29.2 98.0 -31.5 100.3 -33.85 98.0 -33.95 98.1 -34.0 98.05 -36.25 100.25 -38.5 98.0 -38.65 98.1 -38.7 98.05 -40.9 100.25 -43.2 98.0 -43.3 98.1 -43.35 98.05 -45.55 100.25 -46.5 99.3 -46.65 99.45 -48.0 98.05 -50.35 100.4 -52.7 98.05 -55.0 100.4 -57.35 98.05 -59.7 100.4 -62.0 98.1 -62.05 98.1 -64.35 100.4 -66.6 98.15 -66.75 98.15 -69.0 100.4 -71.2 98.2 -71.5 98.2 -73.7 100.4 -75.8 98.25 -76.25 98.25 -77.75 99.8 -76.9 100.6 -79.25 102.95 -76.9 105.3 -79.25 107.6 -76.9 109.95 -79.25 112.3 -76.9 114.6 -79.25 116.95 -76.9 119.3 -79.25 121.6 -76.9 123.95 -79.25 126.3 -76.9 128.6 -79.25 130.95 -76.9 133.25 -79.25 135.6 -76.9 137.95 -79.25 140.25 -76.9 142.6 -79.25 144.95 -76.9 147.25 -79.25 149.6 -76.9 151.95 -79.25 154.25 -76.9 156.6 -79.25 158.95 -76.9 161.25 -79.25 163.6 -76.9 165.95 -79.25 168.25 -76.9 170.6 -79.25 172.95 -76.9 175.25 -79.25 177.6 -76.9 179.95 -79.25 182.25 -76.9 184.6 -79.25 186.95 -77.95 188.2 -79.55 189.85 -79.1 190.25" fill="none" stroke="#8a634a" stroke-linecap="round" stroke-linejoin="round" stroke-width="0.5"/>
    <path d="M83.25 -147.5 L83.25 -147.45 83.2 -147.45 83.2 -147.5 83.25 -147.5" fill="#297e1c" fill-rule="evenodd" stroke="none"/>
    <path d="M257.25 -65.7 L262.25 -71.65 261.8 -70.1 257.6 -65.15 257.25 -65.7" fill="#fec758" fill-rule="evenodd" stroke="none"/>
    <path d="M257.25 -55.2 L257.6 -56.6 261.8 -61.65 262.25 -61.25 257.25 -55.2" fill="#fec758" fill-rule="evenodd" stroke="none"/>
    <path d="M257.3 -65.8 L257.75 -65.65 257.75 -56.8 257.3 -55.25 257.3 -65.8" fill="#febb58" fill-rule="evenodd" stroke="none"/>
    <path d="M262.2 -71.65 L262.2 -61.15 261.75 -61.6 261.75 -70.4 262.2 -71.65" fill="#fecd58" fill-rule="evenodd" stroke="none"/>
    <path d="M257.25 -78.05 L262.25 -83.9 261.8 -82.4 257.6 -77.45 257.25 -78.05" fill="#fec758" fill-rule="evenodd" stroke="none"/>
    <path d="M257.25 -67.55 L257.6 -68.95 261.8 -73.9 262.25 -73.45 257.25 -67.55" fill="#fec758" fill-rule="evenodd" stroke="none"/>
    <path d="M257.3 -78.1 L257.75 -77.95 257.75 -69.1 257.3 -67.55 257.3 -78.1" fill="#febb58" fill-rule="evenodd" stroke="none"/>
    <path d="M262.2 -83.9 L262.2 -73.4 261.75 -73.85 261.75 -82.65 262.2 -83.9" fill="#fecd58" fill-rule="evenodd" stroke="none"/>
    <path d="M257.25 -90.4 L262.25 -96.2 261.8 -94.7 257.6 -89.8 257.25 -90.4" fill="#fec758" fill-rule="evenodd" stroke="none"/>
    <path d="M257.25 -79.9 L257.6 -81.3 261.8 -86.2 262.25 -85.75 257.25 -79.9" fill="#fec758" fill-rule="evenodd" stroke="none"/>
    <path d="M257.3 -90.45 L257.75 -90.25 257.75 -81.45 257.3 -79.9 257.3 -90.45" fill="#febb58" fill-rule="evenodd" stroke="none"/>
    <path d="M262.2 -96.2 L262.2 -85.7 261.75 -86.15 261.75 -94.95 262.2 -96.2" fill="#fecd58" fill-rule="evenodd" stroke="none"/>
    <path d="M263.3 -72.9 L268.25 -78.75 267.8 -77.25 263.65 -72.3 263.3 -72.9" fill="#fec758" fill-rule="evenodd" stroke="none"/>
    <path d="M263.3 -62.45 L263.65 -63.85 267.8 -68.8 268.25 -68.4 263.3 -62.45" fill="#fec758" fill-rule="evenodd" stroke="none"/>
    <path d="M263.3 -72.95 L263.75 -72.8 263.75 -64.0 263.3 -62.5 263.3 -72.95" fill="#febb58" fill-rule="evenodd" stroke="none"/>
    <path d="M268.2 -78.75 L268.2 -68.35 267.75 -68.75 267.75 -77.5 268.2 -78.75" fill="#fecd58" fill-rule="evenodd" stroke="none"/>
    <path d="M263.3 -85.1 L268.25 -90.9 267.8 -89.4 263.65 -84.55 263.3 -85.1" fill="#fec758" fill-rule="evenodd" stroke="none"/>
    <path d="M263.3 -74.7 L263.65 -76.1 267.8 -81.0 268.25 -80.55 263.3 -74.7" fill="#fec758" fill-rule="evenodd" stroke="none"/>
    <path d="M263.3 -85.2 L263.75 -85.0 263.75 -76.25 263.3 -74.75 263.3 -85.2" fill="#febb58" fill-rule="evenodd" stroke="none"/>
    <path d="M268.2 -90.9 L268.2 -80.5 267.75 -80.95 267.75 -89.65 268.2 -90.9" fill="#fecd58" fill-rule="evenodd" stroke="none"/>
    <path d="M263.3 -97.4 L268.25 -103.1 267.8 -101.6 263.65 -96.8 263.3 -97.4" fill="#fec758" fill-rule="evenodd" stroke="none"/>
    <path d="M263.3 -86.95 L263.65 -88.3 267.8 -93.15 268.25 -92.7 263.3 -86.95" fill="#fec758" fill-rule="evenodd" stroke="none"/>
    <path d="M263.3 -97.45 L263.75 -97.25 263.75 -88.5 263.3 -87.0 263.3 -97.45" fill="#febb58" fill-rule="evenodd" stroke="none"/>
    <path d="M268.2 -103.1 L268.2 -92.7 267.75 -93.15 267.75 -101.85 268.2 -103.1" fill="#fecd58" fill-rule="evenodd" stroke="none"/>
    <path d="M261.65 -86.25 L257.8 -81.7 257.8 -89.95 261.65 -94.45 261.65 -86.25" fill="#bde1e5" fill-rule="evenodd" stroke="none"/>
    <path d="M267.6 -93.2 L263.85 -88.8 263.85 -97.0 267.6 -101.35 267.6 -93.2" fill="#bde1e5" fill-rule="evenodd" stroke="none"/>
    <path d="M261.65 -73.95 L257.8 -69.35 257.8 -77.6 261.65 -82.15 261.65 -73.95" fill="#bde1e5" fill-rule="evenodd" stroke="none"/>
    <path d="M267.6 -81.0 L263.85 -76.55 263.85 -84.75 267.6 -89.15 267.6 -81.0" fill="#bde1e5" fill-rule="evenodd" stroke="none"/>
    <path d="M261.65 -61.9 L257.8 -57.25 257.8 -65.5 261.65 -70.1 261.65 -61.9" fill="#bde1e5" fill-rule="evenodd" stroke="none"/>
    <path d="M267.6 -69.05 L263.85 -64.55 263.85 -72.7 267.6 -77.2 267.6 -69.05" fill="#bde1e5" fill-rule="evenodd" stroke="none"/>
    <path d="M258.05 -89.75 L261.45 -93.7 261.45 -86.45 261.15 -86.6 261.15 -92.75 258.3 -89.45 258.05 -89.75" fill="#ffffff" fill-rule="evenodd" stroke="none"/>
    <path d="M264.0 -96.7 L267.35 -100.55 267.35 -93.35 267.05 -93.5 267.05 -99.6 264.25 -96.4 264.0 -96.7" fill="#ffffff" fill-rule="evenodd" stroke="none"/>
    <path d="M258.05 -77.45 L261.45 -81.45 261.45 -74.2 261.15 -74.35 261.15 -80.45 258.3 -77.15 258.05 -77.45" fill="#ffffff" fill-rule="evenodd" stroke="none"/>
    <path d="M264.0 -84.55 L267.35 -88.45 267.35 -81.25 267.05 -81.4 267.05 -87.5 264.25 -84.25 264.0 -84.55" fill="#ffffff" fill-rule="evenodd" stroke="none"/>
    <path d="M258.05 -65.4 L261.45 -69.45 261.45 -62.2 261.15 -62.35 261.15 -68.45 258.3 -65.1 258.05 -65.4" fill="#ffffff" fill-rule="evenodd" stroke="none"/>
    <path d="M264.0 -72.55 L267.35 -76.5 267.35 -69.3 267.05 -69.45 267.05 -75.55 264.25 -72.25 264.0 -72.55" fill="#ffffff" fill-rule="evenodd" stroke="none"/>
    <path d="M115.35 -128.8 L115.35 -76.8 98.6 -56.6 98.6 -108.55 115.35 -128.8" fill="#fedc5b" fill-rule="evenodd" stroke="none"/>
    <path d="M101.9 -122.2 L101.9 -112.1 98.65 -108.15 98.65 -118.25 101.9 -122.2" fill="#fedc5b" fill-rule="evenodd" stroke="none"/>
    <path d="M108.65 -130.35 L108.65 -120.25 105.4 -116.3 105.4 -126.4 108.65 -130.35" fill="#fedc5b" fill-rule="evenodd" stroke="none"/>
    <path d="M115.35 -138.45 L115.35 -128.35 112.1 -124.4 112.1 -134.5 115.35 -138.45" fill="#fedc5b" fill-rule="evenodd" stroke="none"/>
    <path d="M167.3 -72.1 L115.3 -76.6 115.3 -128.6 167.3 -124.05 167.3 -72.1" fill="#fecd58" fill-rule="evenodd" stroke="none"/>
    <path d="M125.5 -137.35 L125.5 -127.25 115.35 -128.15 115.35 -138.25 125.5 -137.35" fill="#fecd58" fill-rule="evenodd" stroke="none"/>
    <path d="M146.4 -135.55 L146.4 -125.45 136.25 -126.35 136.25 -136.45 146.4 -135.55" fill="#fecd58" fill-rule="evenodd" stroke="none"/>
    <path d="M167.25 -133.7 L167.25 -123.6 157.1 -124.5 157.1 -134.6 167.25 -133.7" fill="#fecd58" fill-rule="evenodd" stroke="none"/>
    <path d="M150.45 -97.35 L98.5 -102.05 115.4 -121.6 166.65 -117.25 150.45 -97.35" fill="#ffe879" fill-rule="evenodd" stroke="none"/>
    <path d="M150.4 -52.6 L98.4 -57.1 98.4 -109.1 150.4 -104.55 150.4 -52.6" fill="#fecd58" fill-rule="evenodd" stroke="none"/>
    <path d="M108.65 -117.8 L108.65 -107.7 98.5 -108.6 98.5 -118.7 108.65 -117.8" fill="#fecd58" fill-rule="evenodd" stroke="none"/>
    <path d="M129.5 -116.0 L129.5 -105.9 119.35 -106.8 119.35 -116.9 129.5 -116.0" fill="#fecd58" fill-rule="evenodd" stroke="none"/>
    <path d="M150.4 -114.15 L150.4 -104.05 140.25 -104.95 140.25 -115.05 150.4 -114.15" fill="#fecd58" fill-rule="evenodd" stroke="none"/>
    <path d="M167.15 -124.6 L167.15 -72.6 150.4 -52.4 150.4 -104.35 167.15 -124.6" fill="#fedc5b" fill-rule="evenodd" stroke="none"/>
    <path d="M153.65 -118.0 L153.65 -107.9 150.4 -103.95 150.4 -114.05 153.65 -118.0" fill="#fedc5b" fill-rule="evenodd" stroke="none"/>
    <path d="M160.4 -126.1 L160.4 -116.0 157.15 -112.05 157.15 -122.15 160.4 -126.1" fill="#fedc5b" fill-rule="evenodd" stroke="none"/>
    <path d="M167.15 -134.25 L167.15 -124.15 163.9 -120.2 163.9 -130.3 167.15 -134.25" fill="#fedc5b" fill-rule="evenodd" stroke="none"/>
    <path d="M219.1 -119.25 L202.35 -99.0 202.35 -151.0 219.1 -164.1 219.1 -119.25" fill="#fedc5b" fill-rule="evenodd" stroke="none"/>
    <path d="M202.5 -47.9 L150.5 -52.4 150.5 -104.4 202.5 -99.85 202.5 -47.9" fill="#fecd58" fill-rule="evenodd" stroke="none"/>
    <path d="M202.5 -99.1 L150.5 -103.6 150.5 -155.6 202.5 -151.05 202.5 -99.1" fill="#fecd58" fill-rule="evenodd" stroke="none"/>
    <path d="M219.35 -119.8 L219.35 -67.8 202.6 -47.6 202.6 -99.55 219.35 -119.8" fill="#fedc5b" fill-rule="evenodd" stroke="none"/>
    <path d="M205.85 -113.2 L205.85 -103.1 202.6 -99.15 202.6 -109.25 205.85 -113.2" fill="#fedc5b" fill-rule="evenodd" stroke="none"/>
    <path d="M212.6 -121.35 L212.6 -111.25 209.35 -107.3 209.35 -117.4 212.6 -121.35" fill="#fedc5b" fill-rule="evenodd" stroke="none"/>
    <path d="M219.35 -129.45 L219.35 -119.35 216.1 -115.4 216.1 -125.5 219.35 -129.45" fill="#fedc5b" fill-rule="evenodd" stroke="none"/>
    <path d="M271.25 -63.15 L219.25 -67.65 219.25 -119.65 271.25 -115.1 271.25 -63.15" fill="#fecd58" fill-rule="evenodd" stroke="none"/>
    <path d="M229.5 -128.35 L229.5 -118.25 219.35 -119.15 219.35 -129.25 229.5 -128.35" fill="#fecd58" fill-rule="evenodd" stroke="none"/>
    <path d="M250.35 -126.55 L250.35 -116.45 240.2 -117.35 240.2 -127.45 250.35 -126.55" fill="#fecd58" fill-rule="evenodd" stroke="none"/>
    <path d="M271.25 -124.7 L271.25 -114.6 261.1 -115.5 261.1 -125.6 271.25 -124.7" fill="#fecd58" fill-rule="evenodd" stroke="none"/>
    <path d="M254.4 -88.35 L202.45 -93.05 219.35 -112.6 270.55 -108.25 254.4 -88.35" fill="#ffe879" fill-rule="evenodd" stroke="none"/>
    <path d="M216.95 -109.9 L206.3 -97.9 205.7 -131.6 216.95 -142.1 216.95 -109.9" fill="#5b3f00" fill-rule="evenodd" stroke="none"/>
    <path d="M254.35 -43.6 L202.35 -48.1 202.35 -100.1 254.35 -95.55 254.35 -43.6" fill="#fecd58" fill-rule="evenodd" stroke="none"/>
    <path d="M212.6 -108.8 L212.6 -98.7 202.45 -99.6 202.45 -109.7 212.6 -108.8" fill="#fecd58" fill-rule="evenodd" stroke="none"/>
    <path d="M233.45 -107.0 L233.45 -96.9 223.3 -97.8 223.3 -107.9 233.45 -107.0" fill="#fecd58" fill-rule="evenodd" stroke="none"/>
    <path d="M254.35 -105.15 L254.35 -95.05 244.2 -95.95 244.2 -106.05 254.35 -105.15" fill="#fecd58" fill-rule="evenodd" stroke="none"/>
    <path d="M271.1 -115.6 L271.1 -63.6 254.35 -43.4 254.35 -95.35 271.1 -115.6" fill="#fedc5b" fill-rule="evenodd" stroke="none"/>
    <path d="M257.6 -109.0 L257.6 -98.9 254.35 -94.95 254.35 -105.05 257.6 -109.0" fill="#fedc5b" fill-rule="evenodd" stroke="none"/>
    <path d="M264.35 -117.1 L264.35 -107.0 261.1 -103.05 261.1 -113.15 264.35 -117.1" fill="#fedc5b" fill-rule="evenodd" stroke="none"/>
    <path d="M271.1 -125.25 L271.1 -115.15 267.85 -111.2 267.85 -121.3 271.1 -125.25" fill="#fedc5b" fill-rule="evenodd" stroke="none"/>
    <path d="M150.5 -155.6 L182.5 -181.1 202.5 -151.05 150.5 -155.6" fill="#fecd58" fill-rule="evenodd" stroke="none"/>
    <path d="M219.15 -164.1 L202.5 -151.05 182.5 -181.1 219.15 -164.1" fill="#fedc5b" fill-rule="evenodd" stroke="none"/>
    <path d="M162.75 -96.25 L187.05 -78.35 187.05 -39.7 139.7 -44.05 139.7 -78.7 162.75 -96.25" fill="#febb58" fill-rule="evenodd" stroke="none"/>
    <path d="M187.0 -39.75 L187.0 -78.35 197.45 -84.25 197.25 -48.6 187.0 -39.75" fill="#fedc5b" fill-rule="evenodd" stroke="none"/>
    <path d="M197.3 -84.3 L186.95 -78.4 162.75 -96.25 174.45 -100.45 197.3 -84.3" fill="#fedc5b" fill-rule="evenodd" stroke="none"/>
    <path d="M142.55 -46.3 L142.55 -76.9 162.15 -92.0 162.15 -44.55 142.55 -46.3" fill="#fedc5b" fill-rule="evenodd" stroke="none"/>
    <path d="M163.35 -44.35 L163.35 -92.0 184.3 -75.95 184.3 -42.45 163.35 -44.35" fill="#fedc5b" fill-rule="evenodd" stroke="none"/>
    <path d="M166.3 -123.7 L175.6 -123.2 174.7 -122.35 166.95 -122.8 166.3 -123.7" fill="#fec758" fill-rule="evenodd" stroke="none"/>
    <path d="M166.3 -114.45 L166.95 -115.3 174.7 -114.85 175.6 -113.95 166.3 -114.45" fill="#fec758" fill-rule="evenodd" stroke="none"/>
    <path d="M166.35 -123.7 L167.2 -123.0 167.2 -115.25 166.35 -114.4 166.35 -123.7" fill="#febb58" fill-rule="evenodd" stroke="none"/>
    <path d="M175.5 -123.2 L175.5 -113.9 174.65 -114.85 174.65 -122.6 175.5 -123.2" fill="#fecd58" fill-rule="evenodd" stroke="none"/>
    <path d="M166.3 -134.55 L175.6 -134.05 174.7 -133.2 166.95 -133.65 166.3 -134.55" fill="#fec758" fill-rule="evenodd" stroke="none"/>
    <path d="M166.3 -125.3 L166.95 -126.15 174.7 -125.7 175.6 -124.8 166.3 -125.3" fill="#fec758" fill-rule="evenodd" stroke="none"/>
    <path d="M166.35 -134.55 L167.2 -133.85 167.2 -126.1 166.35 -125.25 166.35 -134.55" fill="#febb58" fill-rule="evenodd" stroke="none"/>
    <path d="M175.5 -134.05 L175.5 -124.75 174.65 -125.7 174.65 -133.45 175.5 -134.05" fill="#fecd58" fill-rule="evenodd" stroke="none"/>
    <path d="M166.3 -145.4 L175.6 -144.9 174.7 -144.05 166.95 -144.5 166.3 -145.4" fill="#fec758" fill-rule="evenodd" stroke="none"/>
    <path d="M166.3 -136.15 L166.95 -137.0 174.7 -136.55 175.6 -135.65 166.3 -136.15" fill="#fec758" fill-rule="evenodd" stroke="none"/>
    <path d="M166.35 -145.4 L167.2 -144.7 167.2 -136.95 166.35 -136.1 166.35 -145.4" fill="#febb58" fill-rule="evenodd" stroke="none"/>
    <path d="M175.5 -144.9 L175.5 -135.6 174.65 -136.55 174.65 -144.3 175.5 -144.9" fill="#fecd58" fill-rule="evenodd" stroke="none"/>
    <path d="M177.5 -123.05 L186.8 -122.55 185.9 -121.7 178.15 -122.15 177.5 -123.05" fill="#fec758" fill-rule="evenodd" stroke="none"/>
    <path d="M177.5 -113.8 L178.15 -114.65 185.9 -114.2 186.8 -113.3 177.5 -113.8" fill="#fec758" fill-rule="evenodd" stroke="none"/>
    <path d="M177.55 -123.1 L178.4 -122.4 178.4 -114.65 177.55 -113.8 177.55 -123.1" fill="#febb58" fill-rule="evenodd" stroke="none"/>
    <path d="M186.7 -122.6 L186.7 -113.3 185.85 -114.25 185.85 -122.0 186.7 -122.6" fill="#fecd58" fill-rule="evenodd" stroke="none"/>
    <path d="M177.5 -133.9 L186.8 -133.4 185.9 -132.55 178.15 -133.0 177.5 -133.9" fill="#fec758" fill-rule="evenodd" stroke="none"/>
    <path d="M177.5 -124.65 L178.15 -125.5 185.9 -125.05 186.8 -124.15 177.5 -124.65" fill="#fec758" fill-rule="evenodd" stroke="none"/>
    <path d="M177.55 -133.95 L178.4 -133.25 178.4 -125.5 177.55 -124.65 177.55 -133.95" fill="#febb58" fill-rule="evenodd" stroke="none"/>
    <path d="M186.7 -133.45 L186.7 -124.15 185.85 -125.1 185.85 -132.85 186.7 -133.45" fill="#fecd58" fill-rule="evenodd" stroke="none"/>
    <path d="M177.5 -144.8 L186.8 -144.3 185.9 -143.45 178.15 -143.9 177.5 -144.8" fill="#fec758" fill-rule="evenodd" stroke="none"/>
    <path d="M177.5 -135.5 L178.15 -136.35 185.9 -135.9 186.8 -135.0 177.5 -135.5" fill="#fec758" fill-rule="evenodd" stroke="none"/>
    <path d="M177.55 -144.8 L178.4 -144.1 178.4 -136.35 177.55 -135.5 177.55 -144.8" fill="#febb58" fill-rule="evenodd" stroke="none"/>
    <path d="M186.7 -144.3 L186.7 -135.0 185.85 -135.95 185.85 -143.7 186.7 -144.3" fill="#fecd58" fill-rule="evenodd" stroke="none"/>
    <path d="M174.45 -136.75 L167.25 -137.15 167.25 -144.4 174.45 -144.0 174.45 -136.75" fill="#bde1e5" fill-rule="evenodd" stroke="none"/>
    <path d="M185.65 -136.15 L178.55 -136.55 178.55 -143.8 185.65 -143.4 185.65 -136.15" fill="#bde1e5" fill-rule="evenodd" stroke="none"/>
    <path d="M174.45 -125.9 L167.25 -126.3 167.25 -133.55 174.45 -133.15 174.45 -125.9" fill="#bde1e5" fill-rule="evenodd" stroke="none"/>
    <path d="M185.65 -125.25 L178.55 -125.65 178.55 -132.9 185.65 -132.5 185.65 -125.25" fill="#bde1e5" fill-rule="evenodd" stroke="none"/>
    <path d="M174.45 -115.2 L167.25 -115.6 167.25 -122.85 174.45 -122.45 174.45 -115.2" fill="#bde1e5" fill-rule="evenodd" stroke="none"/>
    <path d="M185.65 -114.6 L178.55 -115.0 178.55 -122.25 185.65 -121.85 185.65 -114.6" fill="#bde1e5" fill-rule="evenodd" stroke="none"/>
    <path d="M167.75 -143.95 L174.05 -143.6 174.05 -137.15 173.45 -137.7 173.45 -143.1 168.25 -143.4 167.75 -143.95" fill="#ffffff" fill-rule="evenodd" stroke="none"/>
    <path d="M178.85 -143.35 L185.15 -143.0 185.15 -136.55 184.55 -137.1 184.55 -142.5 179.35 -142.8 178.85 -143.35" fill="#ffffff" fill-rule="evenodd" stroke="none"/>
    <path d="M167.75 -133.15 L174.05 -132.8 174.05 -126.35 173.45 -126.9 173.45 -132.3 168.25 -132.6 167.75 -133.15" fill="#ffffff" fill-rule="evenodd" stroke="none"/>
    <path d="M178.85 -132.55 L185.15 -132.2 185.15 -125.75 184.55 -126.3 184.55 -131.7 179.35 -132.0 178.85 -132.55" fill="#ffffff" fill-rule="evenodd" stroke="none"/>
    <path d="M167.75 -122.55 L174.05 -122.2 174.05 -115.75 173.45 -116.3 173.45 -121.7 168.25 -122.0 167.75 -122.55" fill="#ffffff" fill-rule="evenodd" stroke="none"/>
    <path d="M178.85 -121.9 L185.15 -121.55 185.15 -115.1 184.55 -115.65 184.55 -121.05 179.35 -121.35 178.85 -121.9" fill="#ffffff" fill-rule="evenodd" stroke="none"/>
    <path d="M113.3 -73.7 L122.6 -73.2 121.7 -72.35 113.95 -72.8 113.3 -73.7" fill="#fec758" fill-rule="evenodd" stroke="none"/>
    <path d="M113.3 -64.45 L113.95 -65.3 121.7 -64.85 122.6 -63.95 113.3 -64.45" fill="#fec758" fill-rule="evenodd" stroke="none"/>
    <path d="M113.35 -73.7 L114.2 -73.0 114.2 -65.25 113.35 -64.4 113.35 -73.7" fill="#febb58" fill-rule="evenodd" stroke="none"/>
    <path d="M122.55 -73.2 L122.55 -63.9 121.7 -64.85 121.7 -72.6 122.55 -73.2" fill="#fecd58" fill-rule="evenodd" stroke="none"/>
    <path d="M113.3 -84.55 L122.6 -84.05 121.7 -83.2 113.95 -83.65 113.3 -84.55" fill="#fec758" fill-rule="evenodd" stroke="none"/>
    <path d="M113.3 -75.3 L113.95 -76.15 121.7 -75.7 122.6 -74.8 113.3 -75.3" fill="#fec758" fill-rule="evenodd" stroke="none"/>
    <path d="M113.35 -84.55 L114.2 -83.85 114.2 -76.1 113.35 -75.25 113.35 -84.55" fill="#febb58" fill-rule="evenodd" stroke="none"/>
    <path d="M122.55 -84.05 L122.55 -74.75 121.7 -75.7 121.7 -83.45 122.55 -84.05" fill="#fecd58" fill-rule="evenodd" stroke="none"/>
    <path d="M113.3 -95.4 L122.6 -94.9 121.7 -94.05 113.95 -94.5 113.3 -95.4" fill="#fec758" fill-rule="evenodd" stroke="none"/>
    <path d="M113.3 -86.15 L113.95 -87.0 121.7 -86.55 122.6 -85.65 113.3 -86.15" fill="#fec758" fill-rule="evenodd" stroke="none"/>
    <path d="M113.35 -95.45 L114.2 -94.75 114.2 -87.0 113.35 -86.15 113.35 -95.45" fill="#febb58" fill-rule="evenodd" stroke="none"/>
    <path d="M122.55 -94.95 L122.55 -85.65 121.7 -86.6 121.7 -94.35 122.55 -94.95" fill="#fecd58" fill-rule="evenodd" stroke="none"/>
    <path d="M124.5 -73.1 L133.8 -72.6 132.9 -71.75 125.15 -72.2 124.5 -73.1" fill="#fec758" fill-rule="evenodd" stroke="none"/>
    <path d="M124.5 -63.85 L125.15 -64.7 132.9 -64.25 133.8 -63.35 124.5 -63.85" fill="#fec758" fill-rule="evenodd" stroke="none"/>
    <path d="M124.55 -73.1 L125.4 -72.4 125.4 -64.65 124.55 -63.8 124.55 -73.1" fill="#febb58" fill-rule="evenodd" stroke="none"/>
    <path d="M133.75 -72.6 L133.75 -63.3 132.9 -64.25 132.9 -72.0 133.75 -72.6" fill="#fecd58" fill-rule="evenodd" stroke="none"/>
    <path d="M124.5 -83.95 L133.8 -83.45 132.9 -82.6 125.15 -83.05 124.5 -83.95" fill="#fec758" fill-rule="evenodd" stroke="none"/>
    <path d="M124.5 -74.7 L125.15 -75.55 132.9 -75.1 133.8 -74.2 124.5 -74.7" fill="#fec758" fill-rule="evenodd" stroke="none"/>
    <path d="M124.55 -83.95 L125.4 -83.25 125.4 -75.5 124.55 -74.65 124.55 -83.95" fill="#febb58" fill-rule="evenodd" stroke="none"/>
    <path d="M133.75 -83.45 L133.75 -74.15 132.9 -75.1 132.9 -82.85 133.75 -83.45" fill="#fecd58" fill-rule="evenodd" stroke="none"/>
    <path d="M124.5 -94.8 L133.8 -94.3 132.9 -93.45 125.15 -93.9 124.5 -94.8" fill="#fec758" fill-rule="evenodd" stroke="none"/>
    <path d="M124.5 -85.55 L125.15 -86.4 132.9 -85.95 133.8 -85.05 124.5 -85.55" fill="#fec758" fill-rule="evenodd" stroke="none"/>
    <path d="M124.55 -94.8 L125.4 -94.1 125.4 -86.35 124.55 -85.5 124.55 -94.8" fill="#febb58" fill-rule="evenodd" stroke="none"/>
    <path d="M133.75 -94.3 L133.75 -85.0 132.9 -85.95 132.9 -93.7 133.75 -94.3" fill="#fecd58" fill-rule="evenodd" stroke="none"/>
    <path d="M121.5 -86.75 L114.3 -87.15 114.3 -94.4 121.5 -94.0 121.5 -86.75" fill="#bde1e5" fill-rule="evenodd" stroke="none"/>
    <path d="M132.7 -86.15 L125.6 -86.55 125.6 -93.8 132.7 -93.4 132.7 -86.15" fill="#bde1e5" fill-rule="evenodd" stroke="none"/>
    <path d="M121.5 -75.9 L114.3 -76.3 114.3 -83.55 121.5 -83.15 121.5 -75.9" fill="#bde1e5" fill-rule="evenodd" stroke="none"/>
    <path d="M132.7 -75.3 L125.6 -75.7 125.6 -82.95 132.7 -82.55 132.7 -75.3" fill="#bde1e5" fill-rule="evenodd" stroke="none"/>
    <path d="M121.5 -65.25 L114.3 -65.65 114.3 -72.9 121.5 -72.5 121.5 -65.25" fill="#bde1e5" fill-rule="evenodd" stroke="none"/>
    <path d="M132.7 -64.6 L125.6 -65.0 125.6 -72.25 132.7 -71.85 132.7 -64.6" fill="#bde1e5" fill-rule="evenodd" stroke="none"/>
    <path d="M114.75 -94.0 L121.05 -93.65 121.05 -87.2 120.45 -87.75 120.45 -93.15 115.25 -93.45 114.75 -94.0" fill="#ffffff" fill-rule="evenodd" stroke="none"/>
    <path d="M125.85 -93.4 L132.15 -93.05 132.15 -86.6 131.55 -87.15 131.55 -92.55 126.35 -92.85 125.85 -93.4" fill="#ffffff" fill-rule="evenodd" stroke="none"/>
    <path d="M114.75 -83.15 L121.05 -82.8 121.05 -76.35 120.45 -76.9 120.45 -82.3 115.25 -82.6 114.75 -83.15" fill="#ffffff" fill-rule="evenodd" stroke="none"/>
    <path d="M125.85 -82.55 L132.15 -82.2 132.15 -75.75 131.55 -76.3 131.55 -81.7 126.35 -82.0 125.85 -82.55" fill="#ffffff" fill-rule="evenodd" stroke="none"/>
    <path d="M114.75 -72.55 L121.05 -72.2 121.05 -65.75 120.45 -66.3 120.45 -71.7 115.25 -72.0 114.75 -72.55" fill="#ffffff" fill-rule="evenodd" stroke="none"/>
    <path d="M125.85 -71.95 L132.15 -71.6 132.15 -65.15 131.55 -65.7 131.55 -71.1 126.35 -71.4 125.85 -71.95" fill="#ffffff" fill-rule="evenodd" stroke="none"/>
    <path d="M220.25 -66.35 L229.55 -65.85 228.65 -65.0 220.9 -65.45 220.25 -66.35" fill="#fec758" fill-rule="evenodd" stroke="none"/>
    <path d="M220.25 -57.1 L220.9 -57.95 228.65 -57.5 229.55 -56.6 220.25 -57.1" fill="#fec758" fill-rule="evenodd" stroke="none"/>
    <path d="M220.35 -66.4 L221.2 -65.7 221.2 -57.95 220.35 -57.1 220.35 -66.4" fill="#febb58" fill-rule="evenodd" stroke="none"/>
    <path d="M229.5 -65.9 L229.5 -56.6 228.65 -57.55 228.65 -65.3 229.5 -65.9" fill="#fecd58" fill-rule="evenodd" stroke="none"/>
    <path d="M220.25 -77.2 L229.55 -76.7 228.65 -75.85 220.9 -76.3 220.25 -77.2" fill="#fec758" fill-rule="evenodd" stroke="none"/>
    <path d="M220.25 -67.95 L220.9 -68.8 228.65 -68.35 229.55 -67.45 220.25 -67.95" fill="#fec758" fill-rule="evenodd" stroke="none"/>
    <path d="M220.35 -77.25 L221.2 -76.55 221.2 -68.8 220.35 -67.95 220.35 -77.25" fill="#febb58" fill-rule="evenodd" stroke="none"/>
    <path d="M229.5 -76.75 L229.5 -67.45 228.65 -68.4 228.65 -76.15 229.5 -76.75" fill="#fecd58" fill-rule="evenodd" stroke="none"/>
    <path d="M220.25 -88.1 L229.55 -87.6 228.65 -86.75 220.9 -87.2 220.25 -88.1" fill="#fec758" fill-rule="evenodd" stroke="none"/>
    <path d="M220.25 -78.85 L220.9 -79.7 228.65 -79.25 229.55 -78.35 220.25 -78.85" fill="#fec758" fill-rule="evenodd" stroke="none"/>
    <path d="M220.35 -88.1 L221.2 -87.4 221.2 -79.65 220.35 -78.8 220.35 -88.1" fill="#febb58" fill-rule="evenodd" stroke="none"/>
    <path d="M229.5 -87.6 L229.5 -78.3 228.65 -79.25 228.65 -87.0 229.5 -87.6" fill="#fecd58" fill-rule="evenodd" stroke="none"/>
    <path d="M231.45 -65.75 L240.75 -65.25 239.85 -64.4 232.1 -64.85 231.45 -65.75" fill="#fec758" fill-rule="evenodd" stroke="none"/>
    <path d="M231.45 -56.5 L232.1 -57.35 239.85 -56.9 240.75 -56.0 231.45 -56.5" fill="#fec758" fill-rule="evenodd" stroke="none"/>
    <path d="M231.55 -65.75 L232.4 -65.05 232.4 -57.3 231.55 -56.45 231.55 -65.75" fill="#febb58" fill-rule="evenodd" stroke="none"/>
    <path d="M240.7 -65.25 L240.7 -55.95 239.85 -56.9 239.85 -64.65 240.7 -65.25" fill="#fecd58" fill-rule="evenodd" stroke="none"/>
    <path d="M231.45 -76.6 L240.75 -76.1 239.85 -75.25 232.1 -75.7 231.45 -76.6" fill="#fec758" fill-rule="evenodd" stroke="none"/>
    <path d="M231.45 -67.35 L232.1 -68.2 239.85 -67.75 240.75 -66.85 231.45 -67.35" fill="#fec758" fill-rule="evenodd" stroke="none"/>
    <path d="M231.55 -76.65 L232.4 -75.95 232.4 -68.2 231.55 -67.35 231.55 -76.65" fill="#febb58" fill-rule="evenodd" stroke="none"/>
    <path d="M240.7 -76.1 L240.7 -66.8 239.85 -67.75 239.85 -75.5 240.7 -76.1" fill="#fecd58" fill-rule="evenodd" stroke="none"/>
    <path d="M231.45 -87.45 L240.75 -86.95 239.85 -86.1 232.1 -86.55 231.45 -87.45" fill="#fec758" fill-rule="evenodd" stroke="none"/>
    <path d="M231.45 -78.2 L232.1 -79.05 239.85 -78.6 240.75 -77.7 231.45 -78.2" fill="#fec758" fill-rule="evenodd" stroke="none"/>
    <path d="M231.55 -87.5 L232.4 -86.8 232.4 -79.05 231.55 -78.2 231.55 -87.5" fill="#febb58" fill-rule="evenodd" stroke="none"/>
    <path d="M240.7 -87.0 L240.7 -77.7 239.85 -78.65 239.85 -86.4 240.7 -87.0" fill="#fecd58" fill-rule="evenodd" stroke="none"/>
    <path d="M228.45 -79.45 L221.25 -79.85 221.25 -87.1 228.45 -86.7 228.45 -79.45" fill="#bde1e5" fill-rule="evenodd" stroke="none"/>
    <path d="M239.65 -78.8 L232.55 -79.2 232.55 -86.45 239.65 -86.05 239.65 -78.8" fill="#bde1e5" fill-rule="evenodd" stroke="none"/>
    <path d="M228.45 -68.6 L221.25 -69.0 221.25 -76.25 228.45 -75.85 228.45 -68.6" fill="#bde1e5" fill-rule="evenodd" stroke="none"/>
    <path d="M239.65 -67.95 L232.55 -68.35 232.55 -75.6 239.65 -75.2 239.65 -67.95" fill="#bde1e5" fill-rule="evenodd" stroke="none"/>
    <path d="M228.45 -57.9 L221.25 -58.3 221.25 -65.55 228.45 -65.15 228.45 -57.9" fill="#bde1e5" fill-rule="evenodd" stroke="none"/>
    <path d="M239.65 -57.3 L232.55 -57.7 232.55 -64.95 239.65 -64.55 239.65 -57.3" fill="#bde1e5" fill-rule="evenodd" stroke="none"/>
    <path d="M221.7 -86.65 L228.0 -86.3 228.0 -79.85 227.4 -80.4 227.4 -85.8 222.2 -86.1 221.7 -86.65" fill="#ffffff" fill-rule="evenodd" stroke="none"/>
    <path d="M232.8 -86.05 L239.1 -85.7 239.1 -79.25 238.5 -79.8 238.5 -85.2 233.3 -85.5 232.8 -86.05" fill="#ffffff" fill-rule="evenodd" stroke="none"/>
    <path d="M221.7 -75.85 L228.0 -75.5 228.0 -69.05 227.4 -69.6 227.4 -75.0 222.2 -75.3 221.7 -75.85" fill="#ffffff" fill-rule="evenodd" stroke="none"/>
    <path d="M232.8 -75.25 L239.1 -74.9 239.1 -68.45 238.5 -69.0 238.5 -74.4 233.3 -74.7 232.8 -75.25" fill="#ffffff" fill-rule="evenodd" stroke="none"/>
    <path d="M221.7 -65.2 L228.0 -64.85 228.0 -58.4 227.4 -58.95 227.4 -64.35 222.2 -64.65 221.7 -65.2" fill="#ffffff" fill-rule="evenodd" stroke="none"/>
    <path d="M232.8 -64.6 L239.1 -64.25 239.1 -57.8 238.5 -58.35 238.5 -63.75 233.3 -64.05 232.8 -64.6" fill="#ffffff" fill-rule="evenodd" stroke="none"/>
    <path d="M-70.55 -72.25 L-77.95 -74.85 -77.85 -115.7 -70.5 -113.05 -70.55 -72.25" fill="#32220f" fill-rule="evenodd" stroke="none"/>
    <path d="M-70.45 -113.05 L-77.85 -115.7 -68.8 -117.65 -61.4 -115.0 -70.45 -113.05" fill="#402b13" fill-rule="evenodd" stroke="none"/>
    <path d="M-61.4 -115.0 L-61.5 -74.15 -70.55 -72.2 -70.45 -113.05 -61.4 -115.0" fill="#4f3618" fill-rule="evenodd" stroke="none"/>
    <path d="M-61.05 -103.05 L-44.9 -107.7 -55.0 -85.0 -61.3 -102.45 -61.05 -103.05" fill="#588d25" fill-rule="evenodd" stroke="none"/>
    <path d="M-61.3 -103.45 L-54.4 -126.6 -44.9 -107.65 -61.05 -103.0 -61.3 -103.45" fill="#609b29" fill-rule="evenodd" stroke="none"/>
    <path d="M-61.3 -102.45 L-55.0 -85.0 -74.6 -81.3 -61.75 -102.35 -61.3 -102.45" fill="#558924" fill-rule="evenodd" stroke="none"/>
    <path d="M-61.3 -102.45 L-61.8 -102.35 -62.05 -102.85 -61.8 -103.4 -61.3 -103.5 -61.05 -103.0 -61.3 -102.45" fill="#5e9728" fill-rule="evenodd" stroke="none"/>
    <path d="M-61.75 -103.35 L-73.95 -122.85 -54.35 -126.6 -61.25 -103.45 -61.75 -103.35" fill="#65a32b" fill-rule="evenodd" stroke="none"/>
    <path d="M-73.95 -122.85 L-86.85 -127.35 -67.25 -131.1 -54.35 -126.6 -73.95 -122.85" fill="#4b7820" fill-rule="evenodd" stroke="none"/>
    <path d="M-74.65 -81.25 L-87.5 -85.75 -97.0 -104.7 -84.1 -100.2 -74.65 -81.25" fill="#365617" fill-rule="evenodd" stroke="none"/>
    <path d="M-84.1 -100.2 L-97.0 -104.7 -86.85 -127.4 -74.0 -122.9 -84.1 -100.2" fill="#46701d" fill-rule="evenodd" stroke="none"/>
    <path d="M-62.05 -102.85 L-84.1 -100.2 -73.95 -122.9 -61.75 -103.4 -62.05 -102.85" fill="#619c29" fill-rule="evenodd" stroke="none"/>
    <path d="M-61.8 -102.3 L-74.6 -81.25 -84.1 -100.2 -62.05 -102.8 -61.8 -102.3" fill="#5a9026" fill-rule="evenodd" stroke="none"/>
  </g>
</svg>
