<?xml version="1.0" encoding="UTF-8" standalone="no"?>
<svg xmlns:xlink="http://www.w3.org/1999/xlink" height="15.5px" width="15.8px" xmlns="http://www.w3.org/2000/svg">
  <g transform="matrix(1.0, 0.0, 0.0, 1.0, 7.9, 7.75)">
    <path d="M-3.05 -1.4 L-4.35 -6.45 0.7 -7.75 2.0 -2.7 -3.05 -1.4" fill="#ff7000" fill-rule="evenodd" stroke="none"/>
    <path d="M-0.7 7.75 L-2.0 2.7 3.05 1.4 4.35 6.45 -0.7 7.75" fill="#ff7000" fill-rule="evenodd" stroke="none"/>
    <path d="M2.85 1.95 L1.55 -3.1 6.6 -4.4 7.9 0.65 2.85 1.95" fill="#ff7000" fill-rule="evenodd" stroke="none"/>
    <path d="M-6.6 4.4 L-7.9 -0.65 -2.85 -1.95 -1.55 3.1 -6.6 4.4" fill="#ff7000" fill-rule="evenodd" stroke="none"/>
    <path d="M-3.55 0.95 L-0.9 -3.55 3.55 -0.9 0.95 3.55 -3.55 0.95" fill="#ffff00" fill-rule="evenodd" stroke="none"/>
    <path d="M-1.6 -1.0 L0.95 -1.65 1.65 0.9 -0.95 1.6 -1.6 -1.0" fill="#ff0000" fill-rule="evenodd" stroke="none"/>
  </g>
</svg>
