<?xml version="1.0" encoding="UTF-8" standalone="no"?>
<svg xmlns:xlink="http://www.w3.org/1999/xlink" height="15.15px" width="15.4px" xmlns="http://www.w3.org/2000/svg">
  <g transform="matrix(1.0, 0.0, 0.0, 1.0, 7.7, 7.55)">
    <path d="M-3.35 -0.35 L-6.15 -4.75 -1.75 -7.55 1.05 -3.15 -3.35 -0.35" fill="#811788" fill-rule="evenodd" stroke="none"/>
    <path d="M1.75 7.6 L-1.05 3.2 3.35 0.4 6.15 4.8 1.75 7.6" fill="#811788" fill-rule="evenodd" stroke="none"/>
    <path d="M3.3 1.0 L0.5 -3.4 4.9 -6.2 7.7 -1.8 3.3 1.0" fill="#811788" fill-rule="evenodd" stroke="none"/>
    <path d="M-4.9 6.25 L-7.7 1.85 -3.3 -0.95 -0.5 3.45 -4.9 6.25" fill="#811788" fill-rule="evenodd" stroke="none"/>
    <path d="M-3.1 2.0 L-1.95 -3.1 3.1 -1.95 2.0 3.1 -3.1 2.0" fill="#fbc0df" fill-rule="evenodd" stroke="none"/>
    <path d="M-1.85 -0.45 L0.4 -1.85 1.8 0.4 -0.45 1.8 -1.85 -0.45" fill="#cd82be" fill-rule="evenodd" stroke="none"/>
  </g>
</svg>
