<?xml version="1.0" encoding="UTF-8" standalone="no"?>
<svg xmlns:xlink="http://www.w3.org/1999/xlink" height="125.2px" width="271.95px" xmlns="http://www.w3.org/2000/svg">
  <g transform="matrix(1.0, 0.0, 0.0, 1.0, 167.5, 132.1)">
    <path d="M-132.6 -69.05 L-132.5 -109.9 -125.15 -107.25 -125.2 -66.45 -132.6 -69.05" fill="#32220f" fill-rule="evenodd" stroke="none"/>
    <path d="M-132.55 -109.9 L-123.5 -111.85 -116.1 -109.2 -125.15 -107.25 -132.55 -109.9" fill="#402b13" fill-rule="evenodd" stroke="none"/>
    <path d="M-116.15 -68.4 L-125.2 -66.45 -125.1 -107.3 -116.05 -109.25 -116.15 -68.4" fill="#4f3618" fill-rule="evenodd" stroke="none"/>
    <path d="M-109.65 -79.2 L-115.95 -96.65 -115.7 -97.2 -99.55 -101.9 -109.65 -79.2" fill="#275a27" fill-rule="evenodd" stroke="none"/>
    <path d="M-109.05 -120.85 L-99.55 -101.9 -115.7 -97.25 -115.95 -97.7 -109.05 -120.85" fill="#2a632a" fill-rule="evenodd" stroke="none"/>
    <path d="M-109.7 -79.2 L-129.3 -75.5 -116.45 -96.55 -116.0 -96.65 -109.7 -79.2" fill="#255725" fill-rule="evenodd" stroke="none"/>
    <path d="M-116.45 -96.55 L-116.7 -97.05 -116.45 -97.6 -115.95 -97.7 -115.7 -97.2 -115.95 -96.65 -116.45 -96.55" fill="#296129" fill-rule="evenodd" stroke="none"/>
    <path d="M-128.65 -117.1 L-109.05 -120.85 -115.95 -97.7 -116.45 -97.6 -128.65 -117.1" fill="#2c682c" fill-rule="evenodd" stroke="none"/>
    <path d="M-141.5 -121.6 L-121.9 -125.35 -109.0 -120.85 -128.6 -117.1 -141.5 -121.6" fill="#214d21" fill-rule="evenodd" stroke="none"/>
    <path d="M-142.15 -79.95 L-151.65 -98.9 -138.75 -94.4 -129.3 -75.45 -142.15 -79.95" fill="#183718" fill-rule="evenodd" stroke="none"/>
    <path d="M-151.65 -98.9 L-141.5 -121.6 -128.65 -117.1 -138.75 -94.4 -151.65 -98.9" fill="#1f481f" fill-rule="evenodd" stroke="none"/>
    <path d="M-138.75 -94.4 L-128.6 -117.1 -116.4 -97.6 -116.7 -97.05 -138.75 -94.4" fill="#2b642b" fill-rule="evenodd" stroke="none"/>
    <path d="M-129.25 -75.5 L-138.75 -94.45 -116.7 -97.05 -116.45 -96.55 -129.25 -75.5" fill="#275c27" fill-rule="evenodd" stroke="none"/>
    <path d="M-104.05 -37.45 L-111.45 -40.05 -111.35 -80.9 -104.0 -78.25 -104.05 -37.45" fill="#32220f" fill-rule="evenodd" stroke="none"/>
    <path d="M-104.0 -78.25 L-111.4 -80.9 -102.35 -82.85 -94.95 -80.2 -104.0 -78.25" fill="#402b13" fill-rule="evenodd" stroke="none"/>
    <path d="M-94.9 -80.2 L-95.0 -39.35 -104.05 -37.4 -103.95 -78.25 -94.9 -80.2" fill="#4f3618" fill-rule="evenodd" stroke="none"/>
    <path d="M-108.6 -69.95 L-118.7 -51.15 -129.7 -73.85 -108.6 -70.0 -108.6 -69.95" fill="#246f19" fill-rule="evenodd" stroke="none"/>
    <path d="M-108.6 -70.0 L-129.7 -73.85 -117.6 -93.7 -108.6 -70.0" fill="#27781b" fill-rule="evenodd" stroke="none"/>
    <path d="M-108.6 -69.95 L-95.55 -48.25 -118.7 -51.1 -108.65 -69.95 -108.6 -69.95" fill="#26741a" fill-rule="evenodd" stroke="none"/>
    <path d="M-83.45 -68.1 L-74.7 -72.45 -86.8 -52.6 -95.55 -48.25 -83.45 -68.1" fill="#216517" fill-rule="evenodd" stroke="none"/>
    <path d="M-108.55 -69.95 L-83.45 -68.1 -95.55 -48.25 -108.55 -69.9 -108.55 -69.95" fill="#2b821d" fill-rule="evenodd" stroke="none"/>
    <path d="M-94.45 -90.8 L-85.7 -95.15 -74.65 -72.45 -83.45 -68.1 -94.45 -90.8" fill="#35a225" fill-rule="evenodd" stroke="none"/>
    <path d="M-108.6 -70.0 L-117.6 -93.7 -94.45 -90.85 -108.55 -70.0 -108.6 -70.0" fill="#2c871e" fill-rule="evenodd" stroke="none"/>
    <path d="M-117.6 -93.7 L-108.85 -98.05 -85.7 -95.2 -94.45 -90.85 -117.6 -93.7" fill="#28791b" fill-rule="evenodd" stroke="none"/>
    <path d="M-108.55 -70.05 L-94.45 -90.85 -83.45 -68.15 -108.55 -70.0 -108.55 -70.05" fill="#2e8c20" fill-rule="evenodd" stroke="none"/>
    <path d="M-81.3 -10.8 L-88.7 -13.4 -88.6 -54.25 -81.25 -51.6 -81.3 -10.8" fill="#32220f" fill-rule="evenodd" stroke="none"/>
    <path d="M-81.25 -51.6 L-88.65 -54.25 -79.6 -56.2 -72.2 -53.55 -81.25 -51.6" fill="#402b13" fill-rule="evenodd" stroke="none"/>
    <path d="M-72.2 -53.55 L-72.3 -12.7 -81.35 -10.75 -81.25 -51.6 -72.2 -53.55" fill="#4f3618" fill-rule="evenodd" stroke="none"/>
    <path d="M-85.85 -43.3 L-95.95 -24.5 -106.95 -47.2 -85.85 -43.35 -85.85 -43.3" fill="#1d451d" fill-rule="evenodd" stroke="none"/>
    <path d="M-85.85 -43.3 L-72.85 -21.6 -95.95 -24.45 -85.9 -43.3 -85.85 -43.3" fill="#1f481f" fill-rule="evenodd" stroke="none"/>
    <path d="M-85.85 -43.35 L-106.95 -47.2 -94.85 -67.05 -85.85 -43.35" fill="#204a20" fill-rule="evenodd" stroke="none"/>
    <path d="M-85.85 -43.25 L-85.9 -43.3 -85.9 -43.35 -85.85 -43.35 -85.85 -43.25" fill="#214e21" fill-rule="evenodd" stroke="none"/>
    <path d="M-60.75 -41.45 L-51.95 -45.8 -64.1 -25.95 -72.85 -21.6 -60.75 -41.45" fill="#1b3f1b" fill-rule="evenodd" stroke="none"/>
    <path d="M-85.85 -43.3 L-60.75 -41.45 -72.85 -21.6 -85.85 -43.25 -85.85 -43.3" fill="#235123" fill-rule="evenodd" stroke="none"/>
    <path d="M-71.75 -64.15 L-63.0 -68.5 -51.95 -45.8 -60.75 -41.45 -71.75 -64.15" fill="#2b652b" fill-rule="evenodd" stroke="none"/>
    <path d="M-85.85 -43.35 L-94.85 -67.05 -71.75 -64.2 -85.85 -43.35" fill="#245424" fill-rule="evenodd" stroke="none"/>
    <path d="M-94.85 -67.05 L-86.1 -71.4 -62.95 -68.55 -71.75 -64.2 -94.85 -67.05" fill="#204b20" fill-rule="evenodd" stroke="none"/>
    <path d="M-85.85 -43.35 L-71.75 -64.2 -60.75 -41.5 -85.85 -43.35" fill="#255725" fill-rule="evenodd" stroke="none"/>
    <path d="M-10.55 -71.5 L-17.95 -74.1 -17.85 -114.95 -10.5 -112.3 -10.55 -71.5" fill="#32220f" fill-rule="evenodd" stroke="none"/>
    <path d="M-10.5 -112.3 L-17.9 -114.95 -8.85 -116.9 -1.45 -114.25 -10.5 -112.3" fill="#402b13" fill-rule="evenodd" stroke="none"/>
    <path d="M-1.4 -114.25 L-1.5 -73.4 -10.55 -71.45 -10.45 -112.3 -1.4 -114.25" fill="#4f3618" fill-rule="evenodd" stroke="none"/>
    <path d="M-15.1 -104.0 L-25.2 -85.2 -36.2 -107.9 -15.1 -104.05 -15.1 -104.0" fill="#246f19" fill-rule="evenodd" stroke="none"/>
    <path d="M-15.1 -104.05 L-36.2 -107.9 -24.1 -127.75 -15.1 -104.05" fill="#27781b" fill-rule="evenodd" stroke="none"/>
    <path d="M-15.1 -104.0 L-2.05 -82.3 -25.2 -85.15 -15.15 -104.0 -15.1 -104.0" fill="#26741a" fill-rule="evenodd" stroke="none"/>
    <path d="M10.05 -102.15 L18.8 -106.5 6.7 -86.65 -2.05 -82.3 10.05 -102.15" fill="#216517" fill-rule="evenodd" stroke="none"/>
    <path d="M-15.05 -104.0 L10.05 -102.15 -2.05 -82.3 -15.05 -103.95 -15.05 -104.0" fill="#2b821d" fill-rule="evenodd" stroke="none"/>
    <path d="M-0.95 -124.85 L7.8 -129.2 18.85 -106.5 10.05 -102.15 -0.95 -124.85" fill="#35a225" fill-rule="evenodd" stroke="none"/>
    <path d="M-15.1 -104.05 L-24.1 -127.75 -0.95 -124.9 -15.05 -104.05 -15.1 -104.05" fill="#2c871e" fill-rule="evenodd" stroke="none"/>
    <path d="M-24.1 -127.75 Q-19.7 -129.9 -15.35 -132.1 L7.8 -129.25 -0.95 -124.9 -24.1 -127.75" fill="#28791b" fill-rule="evenodd" stroke="none"/>
    <path d="M-15.05 -104.1 L-0.95 -124.9 10.05 -102.2 -15.05 -104.05 -15.05 -104.1" fill="#2e8c20" fill-rule="evenodd" stroke="none"/>
    <path d="M71.4 -66.2 L71.5 -107.05 78.85 -104.4 78.8 -63.6 71.4 -66.2" fill="#32220f" fill-rule="evenodd" stroke="none"/>
    <path d="M71.45 -107.05 L80.5 -109.0 87.9 -106.35 78.85 -104.4 71.45 -107.05" fill="#402b13" fill-rule="evenodd" stroke="none"/>
    <path d="M87.85 -65.55 L78.8 -63.6 78.9 -104.45 87.95 -106.4 87.85 -65.55" fill="#4f3618" fill-rule="evenodd" stroke="none"/>
    <path d="M94.35 -76.35 L88.05 -93.8 88.3 -94.35 104.45 -99.05 94.35 -76.35" fill="#275a27" fill-rule="evenodd" stroke="none"/>
    <path d="M94.95 -118.0 L104.45 -99.05 88.3 -94.4 88.05 -94.85 94.95 -118.0" fill="#2a632a" fill-rule="evenodd" stroke="none"/>
    <path d="M94.3 -76.35 L74.7 -72.65 87.55 -93.7 88.0 -93.8 94.3 -76.35" fill="#255725" fill-rule="evenodd" stroke="none"/>
    <path d="M87.55 -93.7 L87.3 -94.2 87.55 -94.75 88.05 -94.85 88.3 -94.35 88.05 -93.8 87.55 -93.7" fill="#296129" fill-rule="evenodd" stroke="none"/>
    <path d="M75.35 -114.25 L94.95 -118.0 88.05 -94.85 87.55 -94.75 75.35 -114.25" fill="#2c682c" fill-rule="evenodd" stroke="none"/>
    <path d="M62.5 -118.75 L82.1 -122.5 95.0 -118.0 75.4 -114.25 62.5 -118.75" fill="#214d21" fill-rule="evenodd" stroke="none"/>
    <path d="M61.85 -77.1 L52.35 -96.05 65.25 -91.55 74.7 -72.6 61.85 -77.1" fill="#183718" fill-rule="evenodd" stroke="none"/>
    <path d="M52.35 -96.05 L62.5 -118.75 75.35 -114.25 65.25 -91.55 52.35 -96.05" fill="#1f481f" fill-rule="evenodd" stroke="none"/>
    <path d="M65.25 -91.55 L75.4 -114.25 87.6 -94.75 87.3 -94.2 65.25 -91.55" fill="#2b642b" fill-rule="evenodd" stroke="none"/>
    <path d="M74.75 -72.65 L65.25 -91.6 87.3 -94.2 87.55 -93.7 74.75 -72.65" fill="#275c27" fill-rule="evenodd" stroke="none"/>
    <path d="M-26.85 -36.45 L-34.25 -39.05 -34.15 -79.9 -26.8 -77.25 -26.85 -36.45" fill="#32220f" fill-rule="evenodd" stroke="none"/>
    <path d="M-26.8 -77.25 L-34.2 -79.9 -25.15 -81.85 -17.75 -79.2 -26.8 -77.25" fill="#402b13" fill-rule="evenodd" stroke="none"/>
    <path d="M-17.75 -79.2 L-17.85 -38.35 -26.9 -36.4 -26.8 -77.25 -17.75 -79.2" fill="#4f3618" fill-rule="evenodd" stroke="none"/>
    <path d="M-31.4 -68.95 L-41.5 -50.15 -52.5 -72.85 -31.4 -69.0 -31.4 -68.95" fill="#1d451d" fill-rule="evenodd" stroke="none"/>
    <path d="M-31.4 -68.95 L-18.4 -47.25 -41.5 -50.1 -31.45 -68.95 -31.4 -68.95" fill="#1f481f" fill-rule="evenodd" stroke="none"/>
    <path d="M-31.4 -69.0 L-52.5 -72.85 -40.4 -92.7 -31.4 -69.0" fill="#204a20" fill-rule="evenodd" stroke="none"/>
    <path d="M-31.4 -68.9 L-31.45 -68.95 -31.45 -69.0 -31.4 -69.0 -31.4 -68.9" fill="#214e21" fill-rule="evenodd" stroke="none"/>
    <path d="M-6.3 -67.1 L2.5 -71.45 -9.65 -51.6 -18.4 -47.25 -6.3 -67.1" fill="#1b3f1b" fill-rule="evenodd" stroke="none"/>
    <path d="M-31.4 -68.95 L-6.3 -67.1 -18.4 -47.25 -31.4 -68.9 -31.4 -68.95" fill="#235123" fill-rule="evenodd" stroke="none"/>
    <path d="M-17.3 -89.8 L-8.55 -94.15 2.5 -71.45 -6.3 -67.1 -17.3 -89.8" fill="#2b652b" fill-rule="evenodd" stroke="none"/>
    <path d="M-31.4 -69.0 L-40.4 -92.7 -17.3 -89.85 -31.4 -69.0" fill="#245424" fill-rule="evenodd" stroke="none"/>
    <path d="M-40.4 -92.7 L-31.65 -97.05 -8.5 -94.2 -17.3 -89.85 -40.4 -92.7" fill="#204b20" fill-rule="evenodd" stroke="none"/>
    <path d="M-31.4 -69.0 L-17.3 -89.85 -6.3 -67.15 -31.4 -69.0" fill="#255725" fill-rule="evenodd" stroke="none"/>
    <path d="M28.45 -52.95 L21.05 -55.55 21.15 -96.4 28.5 -93.75 28.45 -52.95" fill="#32220f" fill-rule="evenodd" stroke="none"/>
    <path d="M28.55 -93.75 L21.15 -96.4 30.2 -98.35 37.6 -95.7 28.55 -93.75" fill="#402b13" fill-rule="evenodd" stroke="none"/>
    <path d="M37.6 -95.7 L37.5 -54.85 28.45 -52.9 28.55 -93.75 37.6 -95.7" fill="#4f3618" fill-rule="evenodd" stroke="none"/>
    <path d="M37.95 -83.7 L54.1 -88.4 44.0 -65.7 37.7 -83.15 37.95 -83.7" fill="#309121" fill-rule="evenodd" stroke="none"/>
    <path d="M37.7 -84.2 L44.6 -107.35 54.1 -88.4 37.95 -83.75 37.7 -84.2" fill="#349f24" fill-rule="evenodd" stroke="none"/>
    <path d="M37.7 -83.15 L44.0 -65.7 24.4 -62.0 37.25 -83.05 37.7 -83.15" fill="#2e8d20" fill-rule="evenodd" stroke="none"/>
    <path d="M37.7 -83.15 L37.2 -83.05 36.95 -83.55 37.2 -84.1 37.7 -84.2 37.95 -83.7 37.7 -83.15" fill="#339c23" fill-rule="evenodd" stroke="none"/>
    <path d="M37.25 -84.1 L25.05 -103.6 44.65 -107.35 37.75 -84.2 37.25 -84.1" fill="#37a726" fill-rule="evenodd" stroke="none"/>
    <path d="M25.05 -103.6 L12.15 -108.1 31.75 -111.85 44.65 -107.35 25.05 -103.6" fill="#297c1c" fill-rule="evenodd" stroke="none"/>
    <path d="M24.35 -61.95 L11.5 -66.45 2.0 -85.4 14.9 -80.9 24.35 -61.95" fill="#1d5914" fill-rule="evenodd" stroke="none"/>
    <path d="M14.9 -80.9 L2.0 -85.4 12.15 -108.1 25.0 -103.6 14.9 -80.9" fill="#26731a" fill-rule="evenodd" stroke="none"/>
    <path d="M36.95 -83.55 L14.9 -80.9 25.05 -103.6 37.25 -84.1 36.95 -83.55" fill="#35a124" fill-rule="evenodd" stroke="none"/>
    <path d="M37.2 -83.0 L24.4 -61.95 14.9 -80.9 36.95 -83.5 37.2 -83.0" fill="#319422" fill-rule="evenodd" stroke="none"/>
    <path d="M-141.05 -6.95 L-148.45 -9.55 -148.35 -50.4 -141.0 -47.75 -141.05 -6.95" fill="#32220f" fill-rule="evenodd" stroke="none"/>
    <path d="M-140.95 -47.75 L-148.35 -50.4 -139.3 -52.35 -131.9 -49.7 -140.95 -47.75" fill="#402b13" fill-rule="evenodd" stroke="none"/>
    <path d="M-131.9 -49.7 L-132.0 -8.85 -141.05 -6.9 -140.95 -47.75 -131.9 -49.7" fill="#4f3618" fill-rule="evenodd" stroke="none"/>
    <path d="M-131.55 -37.75 L-115.4 -42.4 -125.5 -19.7 -131.8 -37.15 -131.55 -37.75" fill="#588d25" fill-rule="evenodd" stroke="none"/>
    <path d="M-131.8 -38.15 L-124.9 -61.3 -115.4 -42.35 -131.55 -37.7 -131.8 -38.15" fill="#609b29" fill-rule="evenodd" stroke="none"/>
    <path d="M-131.8 -37.15 L-125.5 -19.7 -145.1 -16.0 -132.25 -37.05 -131.8 -37.15" fill="#558924" fill-rule="evenodd" stroke="none"/>
    <path d="M-131.8 -37.15 L-132.3 -37.05 -132.55 -37.55 -132.3 -38.1 -131.8 -38.2 -131.55 -37.7 -131.8 -37.15" fill="#5e9728" fill-rule="evenodd" stroke="none"/>
    <path d="M-132.25 -38.05 L-144.45 -57.55 -124.85 -61.3 -131.75 -38.15 -132.25 -38.05" fill="#65a32b" fill-rule="evenodd" stroke="none"/>
    <path d="M-144.45 -57.55 L-157.35 -62.05 -137.75 -65.8 -124.85 -61.3 -144.45 -57.55" fill="#4b7820" fill-rule="evenodd" stroke="none"/>
    <path d="M-145.15 -15.95 L-158.0 -20.45 -167.5 -39.4 -154.6 -34.9 -145.15 -15.95" fill="#365617" fill-rule="evenodd" stroke="none"/>
    <path d="M-154.6 -34.9 L-167.5 -39.4 -157.35 -62.1 -144.5 -57.6 -154.6 -34.9" fill="#46701d" fill-rule="evenodd" stroke="none"/>
    <path d="M-132.55 -37.55 L-154.6 -34.9 -144.45 -57.6 -132.25 -38.1 -132.55 -37.55" fill="#619c29" fill-rule="evenodd" stroke="none"/>
    <path d="M-132.3 -37.0 L-145.1 -15.95 -154.6 -34.9 -132.55 -37.5 -132.3 -37.0" fill="#5a9026" fill-rule="evenodd" stroke="none"/>
  </g>
</svg>
