<?xml version="1.0" encoding="UTF-8" standalone="no"?>
<svg xmlns:xlink="http://www.w3.org/1999/xlink" height="152.95px" width="204.85px" xmlns="http://www.w3.org/2000/svg">
  <g transform="matrix(1.0, 0.0, 0.0, 1.0, 94.6, 132.55)">
    <path d="M57.35 -28.55 L58.25 -72.3 68.05 -63.35 67.15 -19.55 57.35 -28.55" fill="#52330c" fill-rule="evenodd" stroke="none"/>
    <path d="M58.5 -24.85 L59.15 -68.8 66.95 -61.65 66.25 -17.6 58.5 -24.85" fill="#9c5712" fill-rule="evenodd" stroke="none"/>
    <path d="M65.35 -61.55 L65.4 -58.9 65.45 -52.35 65.4 -43.8 65.25 -35.3 64.8 -28.8 Q64.55 -26.3 64.1 -26.25 63.2 -26.45 62.75 -28.5 62.3 -30.55 62.2 -33.75 62.05 -36.95 62.05 -40.55 L62.15 -47.35 62.15 -52.65 Q62.1 -54.7 61.8 -54.95 61.35 -55.1 61.1 -53.1 L60.7 -47.75 60.5 -40.6 60.35 -33.3 60.2 -27.55 59.9 -24.95 59.7 -29.4 59.75 -36.75 60.0 -45.4 60.5 -53.55 Q60.85 -57.35 61.3 -59.6 61.8 -61.9 62.45 -61.85 62.8 -61.65 62.95 -59.7 L63.15 -54.7 63.15 -48.3 63.1 -41.9 Q63.1 -38.85 63.25 -36.85 63.4 -34.9 63.75 -34.7 64.2 -34.55 64.4 -36.4 L64.7 -41.3 64.8 -47.8 64.85 -54.4 64.95 -59.5 Q65.1 -61.45 65.35 -61.55" fill="#73420a" fill-rule="evenodd" stroke="none"/>
    <path d="M72.2 -58.95 L84.5 -47.95 83.05 -3.0 74.65 -13.95 72.2 -58.95" fill="#52330c" fill-rule="evenodd" stroke="none"/>
    <path d="M76.1 -53.2 L84.55 -45.55 83.65 -2.5 75.6 -9.7 76.1 -53.2" fill="#9c5712" fill-rule="evenodd" stroke="none"/>
    <path d="M77.15 -49.4 L77.2 -47.1 77.3 -41.75 77.4 -34.9 77.5 -28.1 77.6 -22.85 77.75 -20.65 Q78.0 -20.55 78.15 -22.5 L78.3 -27.5 78.45 -34.05 78.65 -40.5 Q78.8 -43.5 79.05 -45.2 79.35 -46.9 79.85 -46.5 80.25 -46.05 80.55 -43.9 L81.1 -38.5 81.5 -31.6 81.75 -24.45 Q82.0 -24.35 82.15 -26.3 L82.5 -31.25 82.7 -37.15 82.8 -41.95 82.85 -43.5 Q83.15 -43.1 83.2 -40.4 L83.05 -33.6 82.65 -25.05 82.15 -16.65 81.75 -10.2 81.55 -7.6 81.5 -10.0 81.4 -15.9 81.2 -23.65 80.9 -31.45 80.5 -37.6 80.05 -40.35 Q79.7 -40.55 79.45 -38.45 L79.1 -32.75 78.85 -25.2 78.6 -17.55 78.3 -11.8 Q78.1 -9.65 77.85 -9.8 77.55 -10.15 77.35 -13.15 L77.0 -20.75 76.75 -30.35 76.7 -39.8 Q76.7 -44.2 76.85 -46.9 76.95 -49.55 77.15 -49.4" fill="#73420a" fill-rule="evenodd" stroke="none"/>
    <path d="M67.1 -18.35 L67.5 -63.5 76.0 -55.25 74.9 -13.6 67.1 -18.35" fill="#52330c" fill-rule="evenodd" stroke="none"/>
    <path d="M66.9 -17.55 L67.5 -61.1 75.95 -52.85 74.95 -9.65 66.9 -17.55" fill="#9c5712" fill-rule="evenodd" stroke="none"/>
    <path d="M69.6 -57.4 L69.55 -55.6 69.4 -51.0 69.25 -45.0 69.2 -38.95 69.3 -34.15 Q69.4 -32.2 69.6 -31.9 69.8 -31.75 69.95 -33.3 L70.2 -37.4 70.45 -42.9 70.7 -48.3 Q70.85 -50.85 71.1 -52.3 71.3 -53.8 71.65 -53.5 71.9 -53.15 72.0 -50.8 L72.05 -44.85 71.95 -37.3 71.8 -29.75 71.8 -23.9 Q71.85 -21.6 72.05 -21.35 72.3 -21.2 72.45 -23.35 L72.85 -29.0 73.15 -36.45 73.4 -44.0 73.55 -49.85 73.6 -52.15 73.65 -50.0 73.7 -44.4 73.65 -36.8 73.5 -28.7 73.1 -21.5 Q72.8 -18.3 72.35 -16.6 71.85 -14.95 71.15 -15.5 71.0 -15.7 71.0 -17.95 L71.1 -23.5 71.3 -30.25 71.45 -36.45 71.45 -40.15 70.85 -30.75 Q70.55 -27.7 70.2 -27.25 69.85 -26.85 69.55 -28.45 69.2 -30.05 69.0 -33.0 68.8 -35.95 68.75 -39.6 L68.85 -45.8 69.15 -51.55 69.45 -55.75 69.6 -57.4" fill="#73420a" fill-rule="evenodd" stroke="none"/>
    <path d="M32.65 -50.4 L33.4 -94.25 42.25 -86.2 41.45 -42.25 32.65 -50.4" fill="#52330c" fill-rule="evenodd" stroke="none"/>
    <path d="M32.65 -47.65 L33.3 -91.6 41.1 -84.45 40.4 -40.4 32.65 -47.65" fill="#9c5712" fill-rule="evenodd" stroke="none"/>
    <path d="M39.55 -84.35 L39.6 -81.7 39.65 -75.15 39.6 -66.6 39.45 -58.1 39.0 -51.6 Q38.75 -49.1 38.3 -49.05 37.4 -49.25 36.95 -51.3 36.55 -53.35 36.4 -56.55 36.25 -59.75 36.25 -63.35 L36.35 -70.15 36.35 -75.45 Q36.3 -77.5 36.0 -77.7 35.55 -77.85 35.3 -75.85 L34.9 -70.55 34.7 -63.4 34.55 -56.1 34.4 -50.3 34.1 -47.75 33.9 -52.2 33.95 -59.55 34.2 -68.2 34.7 -76.35 Q35.05 -80.15 35.5 -82.4 36.0 -84.7 36.65 -84.65 37.0 -84.45 37.15 -82.5 L37.35 -77.5 37.35 -71.1 37.3 -64.7 Q37.3 -61.65 37.45 -59.65 37.6 -57.7 37.95 -57.5 38.4 -57.35 38.6 -59.2 L38.9 -64.1 39.0 -70.6 39.05 -77.2 39.15 -82.3 Q39.3 -84.25 39.55 -84.35" fill="#73420a" fill-rule="evenodd" stroke="none"/>
    <path d="M46.4 -81.75 L58.7 -70.75 57.25 -25.8 48.85 -36.75 46.4 -81.75" fill="#52330c" fill-rule="evenodd" stroke="none"/>
    <path d="M50.25 -76.0 L58.7 -68.35 57.8 -25.3 49.75 -32.5 50.25 -76.0" fill="#9c5712" fill-rule="evenodd" stroke="none"/>
    <path d="M51.35 -72.2 L51.4 -69.9 51.5 -64.55 51.6 -57.7 51.7 -50.9 51.8 -45.65 51.95 -43.45 Q52.2 -43.35 52.35 -45.3 L52.5 -50.3 52.65 -56.85 52.85 -63.3 Q53.0 -66.3 53.25 -68.0 53.55 -69.7 54.05 -69.3 54.45 -68.85 54.75 -66.7 L55.3 -61.3 55.7 -54.4 55.95 -47.25 Q56.2 -47.15 56.35 -49.1 L56.7 -54.05 56.9 -59.95 57.0 -64.75 57.05 -66.3 Q57.35 -65.9 57.4 -63.2 L57.25 -56.4 56.85 -47.85 56.35 -39.45 55.95 -33.0 55.75 -30.4 55.7 -32.8 55.6 -38.7 55.4 -46.45 55.1 -54.25 54.7 -60.4 54.25 -63.15 Q53.9 -63.35 53.65 -61.25 L53.3 -55.55 53.05 -48.0 52.8 -40.35 52.5 -34.6 Q52.3 -32.45 52.05 -32.6 51.75 -32.95 51.55 -35.95 L51.2 -43.55 50.95 -53.15 50.9 -62.6 Q50.9 -67.0 51.05 -69.7 51.15 -72.35 51.35 -72.2" fill="#73420a" fill-rule="evenodd" stroke="none"/>
    <path d="M41.25 -41.15 L41.65 -86.3 50.15 -78.05 49.05 -36.4 41.25 -41.15" fill="#52330c" fill-rule="evenodd" stroke="none"/>
    <path d="M41.1 -40.4 L41.7 -83.95 50.15 -75.7 49.15 -32.5 41.1 -40.4" fill="#9c5712" fill-rule="evenodd" stroke="none"/>
    <path d="M43.8 -80.2 L43.75 -78.4 43.6 -73.8 43.45 -67.8 43.4 -61.75 43.5 -56.95 Q43.6 -55.0 43.8 -54.7 44.0 -54.55 44.15 -56.1 L44.4 -60.2 44.65 -65.7 44.9 -71.1 45.3 -75.1 Q45.5 -76.6 45.85 -76.3 46.1 -75.95 46.2 -73.6 L46.25 -67.65 46.15 -60.1 46.0 -52.55 46.0 -46.7 Q46.05 -44.4 46.25 -44.15 46.5 -44.0 46.7 -46.15 L47.05 -51.8 47.35 -59.25 47.6 -66.8 47.75 -72.65 47.8 -74.95 47.85 -72.8 47.9 -67.2 47.85 -59.6 47.7 -51.5 47.3 -44.3 Q47.0 -41.1 46.55 -39.4 46.05 -37.75 45.35 -38.3 45.2 -38.5 45.2 -40.75 L45.3 -46.3 45.5 -53.05 45.65 -59.25 45.65 -62.95 45.05 -53.55 Q44.75 -50.5 44.4 -50.05 44.05 -49.65 43.75 -51.25 43.4 -52.85 43.2 -55.8 43.0 -58.75 42.95 -62.4 L43.05 -68.6 43.35 -74.35 43.65 -78.55 43.8 -80.2" fill="#73420a" fill-rule="evenodd" stroke="none"/>
    <path d="M82.65 -4.75 L83.4 -48.6 92.25 -40.55 91.45 3.4 82.65 -4.75" fill="#52330c" fill-rule="evenodd" stroke="none"/>
    <path d="M82.7 -2.0 L83.35 -45.95 91.15 -38.8 90.45 5.25 82.7 -2.0" fill="#9c5712" fill-rule="evenodd" stroke="none"/>
    <path d="M89.55 -38.7 L89.6 -36.05 89.65 -29.5 89.6 -20.95 89.45 -12.45 89.0 -5.95 Q88.75 -3.45 88.3 -3.4 87.4 -3.6 86.95 -5.65 86.5 -7.7 86.4 -10.9 86.25 -14.1 86.25 -17.7 L86.35 -24.5 86.35 -29.8 Q86.3 -31.85 86.0 -32.05 85.55 -32.2 85.3 -30.2 L84.9 -24.9 84.7 -17.75 84.55 -10.45 84.4 -4.65 84.1 -2.1 83.9 -6.55 83.95 -13.9 84.2 -22.55 84.7 -30.7 Q85.05 -34.5 85.5 -36.75 86.0 -39.05 86.65 -39.0 87.0 -38.8 87.15 -36.85 L87.35 -31.85 87.35 -25.45 87.3 -19.05 Q87.3 -16.0 87.45 -14.0 87.6 -12.05 87.95 -11.85 88.4 -11.7 88.6 -13.55 L88.9 -18.45 89.0 -24.95 89.05 -31.55 89.15 -36.65 Q89.3 -38.6 89.55 -38.7" fill="#73420a" fill-rule="evenodd" stroke="none"/>
    <path d="M96.4 -36.1 L108.7 -25.1 107.25 19.85 98.85 8.9 96.4 -36.1" fill="#52330c" fill-rule="evenodd" stroke="none"/>
    <path d="M100.3 -30.3 L108.75 -22.65 107.85 20.4 99.8 13.2 100.3 -30.3" fill="#9c5712" fill-rule="evenodd" stroke="none"/>
    <path d="M101.35 -26.5 L101.4 -24.2 101.5 -18.85 101.6 -12.0 101.7 -5.2 101.8 0.05 101.95 2.25 Q102.2 2.35 102.35 0.4 L102.5 -4.6 102.65 -11.15 102.85 -17.6 103.25 -22.3 Q103.55 -24.0 104.05 -23.6 104.45 -23.15 104.75 -21.0 L105.3 -15.6 105.7 -8.7 105.95 -1.55 Q106.2 -1.45 106.35 -3.4 L106.7 -8.35 106.9 -14.25 107.0 -19.05 107.05 -20.6 Q107.35 -20.2 107.4 -17.5 L107.25 -10.7 106.85 -2.15 106.35 6.25 105.95 12.7 105.75 15.3 105.7 12.9 105.6 7.0 105.4 -0.75 105.1 -8.55 104.7 -14.7 104.25 -17.45 Q103.9 -17.65 103.65 -15.55 L103.3 -9.85 103.05 -2.3 102.8 5.35 102.5 11.1 Q102.3 13.25 102.05 13.1 101.75 12.75 101.55 9.75 L101.2 2.15 100.95 -7.45 100.9 -16.9 Q100.9 -21.3 101.05 -24.0 101.15 -26.65 101.35 -26.5" fill="#73420a" fill-rule="evenodd" stroke="none"/>
    <path d="M91.25 4.55 L91.65 -40.6 100.15 -32.35 99.05 9.3 91.25 4.55" fill="#52330c" fill-rule="evenodd" stroke="none"/>
    <path d="M91.1 5.3 L91.7 -38.25 100.15 -30.0 99.15 13.2 91.1 5.3" fill="#9c5712" fill-rule="evenodd" stroke="none"/>
    <path d="M93.8 -34.45 L93.7 -32.7 93.6 -28.1 93.45 -22.1 93.4 -16.05 93.5 -11.25 Q93.6 -9.3 93.8 -9.0 94.0 -8.85 94.15 -10.4 L94.4 -14.5 94.65 -20.0 94.9 -25.4 95.3 -29.4 Q95.5 -30.9 95.85 -30.6 96.1 -30.25 96.2 -27.9 L96.25 -21.95 96.15 -14.4 96.0 -6.85 96.0 -1.0 Q96.05 1.3 96.25 1.55 96.5 1.7 96.65 -0.45 L97.05 -6.1 97.35 -13.55 97.6 -21.1 97.75 -26.95 97.8 -29.25 97.85 -27.1 97.9 -21.5 97.85 -13.9 97.7 -5.8 97.3 1.4 96.55 6.3 Q96.05 7.95 95.35 7.4 95.2 7.2 95.2 4.95 L95.3 -0.6 95.5 -7.35 95.65 -13.55 95.65 -17.25 95.05 -7.85 Q94.75 -4.8 94.4 -4.35 94.05 -3.95 93.75 -5.55 93.4 -7.15 93.2 -10.1 93.0 -13.05 92.95 -16.7 L93.05 -22.9 93.35 -28.65 93.65 -32.85 93.8 -34.45" fill="#73420a" fill-rule="evenodd" stroke="none"/>
    <path d="M-39.3 -25.65 L-40.95 16.65 -56.15 16.45 -54.6 -25.7 -39.3 -25.65" fill="#52330c" fill-rule="evenodd" stroke="none"/>
    <path d="M-41.15 -23.0 L-42.35 19.25 -54.4 19.05 -53.3 -23.1 -41.15 -23.0" fill="#9c5712" fill-rule="evenodd" stroke="none"/>
    <path d="M-43.6 -21.55 L-43.55 -19.1 -43.5 -12.9 -43.55 -4.85 -43.85 3.35 Q-44.1 7.3 -44.55 9.9 -44.95 12.5 -45.7 12.9 -47.05 13.5 -47.75 11.9 -48.45 10.35 -48.65 7.45 L-48.8 1.15 -48.65 -5.35 -48.65 -10.4 Q-48.7 -12.3 -49.15 -12.25 -49.85 -12.0 -50.25 -9.9 L-50.9 -4.5 -51.25 2.45 -51.45 9.45 -51.75 15.05 Q-51.9 17.3 -52.2 17.75 L-52.5 13.7 -52.45 6.7 -52.0 -1.7 -51.15 -9.85 -49.9 -16.3 Q-49.1 -18.85 -48.1 -19.4 -47.55 -19.55 -47.3 -17.8 -47.1 -16.05 -47.05 -13.2 L-47.1 -7.15 -47.15 -1.05 -46.95 3.6 Q-46.75 5.35 -46.2 5.25 -45.5 5.0 -45.15 3.05 -44.8 1.1 -44.65 -1.85 -44.5 -4.8 -44.5 -8.1 L-44.4 -14.35 -44.2 -19.3 Q-44.0 -21.25 -43.6 -21.55" fill="#73420a" fill-rule="evenodd" stroke="none"/>
    <path d="M-32.9 -24.95 L-13.75 -25.05 -16.15 18.7 -29.2 15.5 -32.9 -24.95" fill="#52330c" fill-rule="evenodd" stroke="none"/>
    <path d="M-26.9 -22.8 L-13.7 -22.8 -15.25 18.7 -27.8 18.8 -26.9 -22.8" fill="#9c5712" fill-rule="evenodd" stroke="none"/>
    <path d="M-16.45 -17.9 L-16.35 -19.4 Q-15.9 -19.25 -15.85 -16.7 L-16.1 -10.2 -16.75 -1.75 -17.55 6.65 -18.25 13.1 -18.55 15.7 -18.6 13.5 -18.75 8.0 -19.05 0.85 -19.45 -6.25 Q-19.7 -9.65 -20.05 -11.75 -20.35 -13.9 -20.75 -13.95 -21.3 -13.9 -21.7 -11.7 L-22.3 -6.0 -22.7 1.4 -23.1 8.8 Q-23.3 12.3 -23.6 14.5 -23.9 16.75 -24.3 16.8 -24.75 16.7 -25.05 14.05 L-25.6 7.2 -25.95 -1.7 -26.0 -10.6 -25.8 -17.4 Q-25.6 -20.05 -25.3 -20.05 L-25.15 -17.95 -25.05 -12.95 -24.95 -6.55 -24.8 -0.2 -24.65 4.65 -24.4 6.6 Q-24.0 6.5 -23.8 4.55 L-23.5 -0.35 -23.3 -6.65 -22.95 -12.95 Q-22.7 -15.9 -22.25 -17.75 -21.8 -19.65 -21.0 -19.65 -20.45 -19.55 -20.0 -17.75 -19.5 -16.0 -19.15 -13.15 L-18.55 -6.95 -18.2 -0.4 Q-17.8 -0.5 -17.5 -2.5 -17.2 -4.5 -17.0 -7.45 L-16.65 -13.25 -16.45 -17.9" fill="#73420a" fill-rule="evenodd" stroke="none"/>
    <path d="M-27.1 -24.65 L-28.95 15.75 -41.05 17.9 -40.25 -25.2 -27.1 -24.65" fill="#52330c" fill-rule="evenodd" stroke="none"/>
    <path d="M-27.05 -22.45 L-28.75 19.35 -41.3 18.75 -40.25 -23.0 -27.05 -22.45" fill="#9c5712" fill-rule="evenodd" stroke="none"/>
    <path d="M-30.75 -19.75 L-30.7 -17.0 -30.65 -10.2 -30.8 -1.35 Q-30.95 3.35 -31.4 7.5 -31.8 11.7 -32.6 14.35 -33.4 17.0 -34.7 17.1 -34.95 17.0 -34.95 14.9 L-34.75 9.55 -34.45 2.95 -34.15 -3.05 -34.15 -6.55 Q-34.55 -0.3 -35.1 2.9 -35.6 6.05 -36.15 6.75 -36.7 7.45 -37.2 6.2 -37.65 4.95 -37.95 2.35 L-38.35 -3.7 -38.2 -9.65 -37.7 -15.35 -37.2 -19.6 -37.0 -21.25 -37.1 -19.5 -37.3 -15.05 -37.55 -9.25 -37.65 -3.45 -37.5 1.0 Q-37.4 2.75 -37.05 2.85 -36.7 2.8 -36.4 0.6 L-35.95 -4.9 -35.5 -11.55 -34.85 -17.05 Q-34.45 -19.3 -33.8 -19.35 -33.35 -19.25 -33.25 -17.05 -33.1 -14.9 -33.2 -11.5 L-33.4 -4.25 -33.6 3.0 -33.65 8.55 Q-33.6 10.75 -33.25 10.8 -32.9 10.7 -32.6 8.5 L-32.0 2.85 -31.5 -4.5 -31.1 -11.85 -30.85 -17.5 -30.75 -19.75" fill="#73420a" fill-rule="evenodd" stroke="none"/>
    <path d="M-79.5 -25.2 L-80.9 17.1 -94.6 16.9 -93.25 -25.25 -79.5 -25.2" fill="#52330c" fill-rule="evenodd" stroke="none"/>
    <path d="M-81.35 -22.55 L-82.55 19.7 -94.6 19.5 -93.5 -22.65 -81.35 -22.55" fill="#9c5712" fill-rule="evenodd" stroke="none"/>
    <path d="M-83.75 -21.1 L-83.7 -18.65 -83.65 -12.45 -83.7 -4.4 -84.0 3.8 Q-84.25 7.75 -84.7 10.35 -85.1 12.95 -85.85 13.35 -87.2 13.95 -87.9 12.35 -88.6 10.8 -88.8 7.9 L-88.95 1.6 -88.8 -4.9 -88.8 -9.95 Q-88.85 -11.85 -89.3 -11.8 -90.0 -11.55 -90.4 -9.45 L-91.05 -4.05 -91.4 2.9 -91.6 9.9 -91.9 15.5 Q-92.05 17.75 -92.35 18.2 L-92.65 14.15 -92.6 7.15 -92.15 -1.25 -91.3 -9.4 -90.05 -15.85 Q-89.25 -18.4 -88.25 -18.95 -87.7 -19.1 -87.45 -17.35 -87.25 -15.6 -87.2 -12.75 L-87.25 -6.7 -87.3 -0.6 -87.1 4.05 Q-86.9 5.8 -86.35 5.7 -85.65 5.45 -85.3 3.5 L-84.8 -1.4 Q-84.65 -4.35 -84.65 -7.65 L-84.55 -13.9 -84.35 -18.85 Q-84.15 -20.8 -83.75 -21.1" fill="#73420a" fill-rule="evenodd" stroke="none"/>
    <path d="M-73.1 -24.45 L-53.95 -24.55 -56.35 19.2 -69.4 16.0 -73.1 -24.45" fill="#52330c" fill-rule="evenodd" stroke="none"/>
    <path d="M-67.1 -22.35 L-53.9 -22.35 -55.45 19.15 -68.0 19.25 -67.1 -22.35" fill="#9c5712" fill-rule="evenodd" stroke="none"/>
    <path d="M-56.6 -17.45 L-56.5 -18.95 Q-56.05 -18.8 -56.0 -16.25 L-56.25 -9.75 -56.9 -1.3 -57.7 7.1 -58.4 13.55 -58.7 16.15 -58.75 13.95 -58.9 8.45 -59.2 1.3 -59.6 -5.8 Q-59.85 -9.2 -60.2 -11.3 -60.5 -13.45 -60.9 -13.5 -61.45 -13.45 -61.85 -11.25 L-62.45 -5.55 -62.85 1.85 -63.25 9.25 -63.75 14.95 Q-64.05 17.2 -64.45 17.25 -64.9 17.15 -65.2 14.5 L-65.75 7.65 -66.1 -1.25 -66.15 -10.15 -65.95 -16.95 Q-65.75 -19.6 -65.45 -19.6 L-65.3 -17.5 -65.2 -12.5 -65.1 -6.1 -64.95 0.25 -64.8 5.1 -64.55 7.05 Q-64.15 6.95 -63.95 5.0 L-63.65 0.1 -63.45 -6.2 -63.1 -12.5 Q-62.85 -15.45 -62.4 -17.3 -61.95 -19.2 -61.15 -19.2 -60.6 -19.1 -60.15 -17.35 -59.65 -15.55 -59.3 -12.7 L-58.7 -6.5 -58.35 0.05 Q-57.95 -0.05 -57.65 -2.05 -57.35 -4.05 -57.15 -7.0 L-56.8 -12.8 -56.6 -17.45" fill="#73420a" fill-rule="evenodd" stroke="none"/>
    <path d="M-67.3 -24.2 L-69.15 16.2 -81.25 18.35 -80.45 -24.75 -67.3 -24.2" fill="#52330c" fill-rule="evenodd" stroke="none"/>
    <path d="M-67.25 -21.95 L-68.95 19.85 -81.5 19.25 -80.45 -22.5 -67.25 -21.95" fill="#9c5712" fill-rule="evenodd" stroke="none"/>
    <path d="M-70.95 -19.25 L-70.9 -16.5 -70.85 -9.7 -71.0 -0.85 Q-71.15 3.85 -71.6 8.0 -72.0 12.2 -72.8 14.85 -73.6 17.5 -74.9 17.6 -75.15 17.5 -75.15 15.4 L-74.95 10.05 -74.65 3.45 -74.35 -2.55 -74.35 -6.05 Q-74.75 0.2 -75.3 3.4 -75.8 6.55 -76.35 7.25 -76.9 7.95 -77.4 6.7 -77.85 5.45 -78.15 2.85 L-78.55 -3.2 -78.4 -9.15 -77.9 -14.85 -77.4 -19.1 -77.2 -20.75 -77.3 -19.0 -77.5 -14.55 -77.75 -8.75 -77.85 -2.95 -77.7 1.5 Q-77.6 3.25 -77.25 3.35 -76.9 3.3 -76.6 1.1 L-76.15 -4.4 -75.7 -11.05 -75.05 -16.55 Q-74.65 -18.8 -74.0 -18.85 -73.55 -18.75 -73.45 -16.55 -73.3 -14.4 -73.4 -11.0 L-73.6 -3.75 -73.8 3.5 -73.85 9.05 Q-73.8 11.25 -73.45 11.3 -73.1 11.2 -72.8 9.0 L-72.2 3.35 -71.7 -4.0 -71.3 -11.35 -71.05 -17.0 -70.95 -19.25" fill="#73420a" fill-rule="evenodd" stroke="none"/>
    <path d="M83.3 -27.8 L81.15 13.3 65.15 12.95 67.2 -28.0 83.3 -27.8" fill="#52330c" fill-rule="evenodd" stroke="none"/>
    <path d="M81.35 -25.3 L79.65 15.8 66.95 15.45 68.55 -25.5 81.35 -25.3" fill="#9c5712" fill-rule="evenodd" stroke="none"/>
    <path d="M78.8 -23.85 L78.8 -21.45 78.8 -15.45 78.65 -7.6 78.25 0.4 Q77.95 4.15 77.45 6.7 77.0 9.25 76.2 9.65 74.75 10.2 74.05 8.65 73.35 7.1 73.15 4.3 72.95 1.45 73.05 -1.85 L73.3 -8.15 73.35 -13.05 Q73.3 -14.95 72.85 -14.9 72.1 -14.65 71.65 -12.6 71.15 -10.55 70.9 -7.35 70.6 -4.2 70.45 -0.6 L70.15 6.2 69.85 11.65 Q69.65 13.8 69.3 14.25 69.1 13.2 69.05 10.3 L69.2 3.5 69.7 -4.65 70.7 -12.6 Q71.25 -16.3 72.1 -18.8 72.95 -21.3 74.0 -21.8 74.6 -21.9 74.8 -20.25 L75.05 -15.8 74.95 -9.85 74.8 -3.95 75.0 0.55 Q75.2 2.25 75.75 2.15 76.5 1.9 76.9 0.05 L77.45 -4.7 77.7 -10.8 77.85 -16.85 Q77.9 -19.75 78.1 -21.65 78.35 -23.55 78.8 -23.85" fill="#73420a" fill-rule="evenodd" stroke="none"/>
    <path d="M90.05 -27.05 L110.25 -26.9 107.25 15.6 93.5 12.35 90.05 -27.05" fill="#52330c" fill-rule="evenodd" stroke="none"/>
    <path d="M96.4 -24.9 L110.25 -24.75 108.2 15.6 95.0 15.5 96.4 -24.9" fill="#9c5712" fill-rule="evenodd" stroke="none"/>
    <path d="M107.35 -20.0 L107.45 -21.45 Q107.95 -21.3 108.0 -18.85 L107.7 -12.5 106.9 -4.3 105.95 3.85 105.15 10.15 104.8 12.65 104.8 10.5 104.65 5.15 104.45 -1.8 104.05 -8.75 103.55 -14.1 Q103.2 -16.2 102.8 -16.25 102.2 -16.15 101.8 -14.05 101.4 -11.9 101.1 -8.5 L100.55 -1.3 100.1 5.9 99.5 11.45 Q99.2 13.6 98.75 13.65 98.3 13.55 97.95 10.95 97.65 8.35 97.45 4.3 97.25 0.2 97.2 -4.4 97.15 -8.95 97.25 -13.05 L97.55 -19.65 Q97.75 -22.2 98.1 -22.2 L98.2 -20.15 98.25 -15.3 98.3 -9.1 98.4 -2.9 98.55 1.85 Q98.6 3.65 98.75 3.7 99.15 3.6 99.35 1.75 L99.75 -3.0 100.05 -9.15 Q100.2 -12.4 100.5 -15.3 100.75 -18.15 101.25 -19.95 101.75 -21.75 102.55 -21.75 103.15 -21.65 103.65 -19.95 L104.5 -15.4 105.05 -9.35 105.35 -3.0 Q105.75 -3.1 106.1 -5.05 L106.7 -9.85 107.1 -15.45 107.35 -20.0" fill="#73420a" fill-rule="evenodd" stroke="none"/>
    <path d="M96.2 -26.7 L93.85 12.55 81.05 14.5 82.35 -27.4 96.2 -26.7" fill="#52330c" fill-rule="evenodd" stroke="none"/>
    <path d="M96.2 -24.5 L93.95 16.1 80.75 15.35 82.3 -25.2 96.2 -24.5" fill="#9c5712" fill-rule="evenodd" stroke="none"/>
    <path d="M92.3 -21.95 L92.35 -19.3 92.35 -12.7 92.05 -4.1 91.35 4.55 Q90.85 8.6 90.0 11.15 89.1 13.7 87.75 13.8 87.5 13.7 87.55 11.65 L87.75 6.5 88.2 0.1 88.55 -5.75 88.6 -9.15 Q87.95 -1.6 87.2 1.4 86.45 4.4 85.8 3.95 85.1 3.45 84.65 0.6 84.2 -2.25 84.15 -6.45 L84.4 -12.25 84.95 -17.75 85.5 -21.9 85.75 -23.5 85.65 -21.8 85.35 -17.45 85.05 -11.85 84.85 -6.2 84.95 -1.85 Q85.05 -0.15 85.4 -0.05 85.85 -0.1 86.15 -2.25 L86.7 -7.6 87.25 -14.05 Q87.55 -17.25 88.0 -19.4 88.45 -21.55 89.1 -21.6 89.55 -21.5 89.65 -19.4 L89.65 -13.95 89.4 -6.9 89.05 0.1 88.95 5.55 Q89.0 7.65 89.35 7.7 89.7 7.6 90.1 5.5 L90.75 0.0 91.35 -7.15 91.85 -14.25 92.2 -19.75 92.3 -21.95" fill="#73420a" fill-rule="evenodd" stroke="none"/>
    <path d="M41.0 -27.75 L38.9 14.65 23.4 14.3 25.4 -28.0 41.0 -27.75" fill="#52330c" fill-rule="evenodd" stroke="none"/>
    <path d="M39.05 -25.3 L37.35 15.8 24.65 15.45 26.25 -25.5 39.05 -25.3" fill="#9c5712" fill-rule="evenodd" stroke="none"/>
    <path d="M36.5 -23.85 L36.5 -21.45 36.5 -15.45 36.35 -7.6 35.95 0.4 Q35.65 4.15 35.15 6.7 34.7 9.25 33.9 9.65 32.45 10.2 31.75 8.65 31.05 7.1 30.85 4.3 30.65 1.45 30.75 -1.85 L31.0 -8.15 31.05 -13.05 Q31.0 -14.95 30.55 -14.9 29.8 -14.65 29.35 -12.6 28.85 -10.55 28.6 -7.35 28.3 -4.2 28.15 -0.6 L27.85 6.2 27.55 11.65 Q27.35 13.8 27.0 14.25 26.8 13.2 26.75 10.3 L26.9 3.5 27.4 -4.65 28.4 -12.6 Q28.95 -16.3 29.8 -18.8 30.65 -21.3 31.7 -21.8 32.3 -21.9 32.5 -20.25 L32.75 -15.8 32.65 -9.85 32.5 -3.95 32.7 0.55 Q32.9 2.25 33.45 2.15 34.2 1.9 34.6 0.05 L35.15 -4.7 35.4 -10.8 35.55 -16.85 Q35.6 -19.75 35.8 -21.65 36.05 -23.55 36.5 -23.85" fill="#73420a" fill-rule="evenodd" stroke="none"/>
    <path d="M47.75 -27.05 L67.95 -26.9 64.95 15.6 51.2 12.35 47.75 -27.05" fill="#52330c" fill-rule="evenodd" stroke="none"/>
    <path d="M54.05 -24.9 L67.9 -24.75 65.85 15.6 52.65 15.5 54.05 -24.9" fill="#9c5712" fill-rule="evenodd" stroke="none"/>
    <path d="M65.0 -20.0 L65.1 -21.45 Q65.6 -21.3 65.65 -18.85 L65.35 -12.5 64.55 -4.3 63.6 3.85 62.8 10.15 62.45 12.65 62.45 10.5 62.3 5.15 62.1 -1.8 61.7 -8.75 61.2 -14.1 Q60.85 -16.2 60.45 -16.25 59.85 -16.15 59.45 -14.05 59.05 -11.9 58.75 -8.5 L58.2 -1.3 57.75 5.9 57.15 11.45 Q56.85 13.6 56.4 13.65 55.95 13.55 55.6 10.95 L55.1 4.3 Q54.9 0.2 54.85 -4.4 54.8 -8.95 54.9 -13.05 L55.2 -19.65 Q55.4 -22.2 55.75 -22.2 L55.85 -20.15 55.9 -15.3 55.95 -9.1 56.05 -2.9 56.2 1.85 Q56.25 3.65 56.4 3.7 56.8 3.6 57.0 1.75 L57.4 -3.0 57.7 -9.15 Q57.85 -12.4 58.15 -15.3 58.4 -18.15 58.9 -19.95 59.4 -21.75 60.2 -21.75 60.8 -21.65 61.3 -19.95 L62.15 -15.4 62.7 -9.35 63.0 -3.0 Q63.4 -3.1 63.75 -5.05 L64.35 -9.85 64.75 -15.45 65.0 -20.0" fill="#73420a" fill-rule="evenodd" stroke="none"/>
    <path d="M53.85 -26.7 L51.5 12.55 38.7 14.5 40.0 -27.4 53.85 -26.7" fill="#52330c" fill-rule="evenodd" stroke="none"/>
    <path d="M53.85 -24.5 L51.6 16.1 38.4 15.35 39.95 -25.2 53.85 -24.5" fill="#9c5712" fill-rule="evenodd" stroke="none"/>
    <path d="M49.95 -21.95 L50.0 -19.3 50.0 -12.7 49.7 -4.1 49.0 4.55 Q48.5 8.6 47.65 11.15 46.75 13.7 45.4 13.8 45.15 13.7 45.2 11.65 L45.4 6.5 45.85 0.1 46.2 -5.75 46.25 -9.15 Q45.6 -1.6 44.85 1.4 44.1 4.4 43.45 3.95 42.75 3.45 42.3 0.6 41.85 -2.25 41.8 -6.45 L42.05 -12.25 42.6 -17.75 43.15 -21.9 43.4 -23.5 43.3 -21.8 43.0 -17.45 42.7 -11.85 42.5 -6.2 42.6 -1.85 Q42.7 -0.15 43.05 -0.05 43.5 -0.1 43.8 -2.25 L44.35 -7.6 44.9 -14.05 Q45.2 -17.25 45.65 -19.4 46.1 -21.55 46.75 -21.6 47.2 -21.5 47.3 -19.4 L47.3 -13.95 47.05 -6.9 46.7 0.1 46.6 5.55 Q46.65 7.65 47.0 7.7 47.35 7.6 47.75 5.5 L48.4 0.0 49.0 -7.15 49.5 -14.25 49.85 -19.75 49.95 -21.95" fill="#73420a" fill-rule="evenodd" stroke="none"/>
    <path d="M35.85 -131.75 L19.7 -35.85 14.9 -35.8 30.95 -132.55 35.85 -131.75" fill="#52330c" fill-rule="evenodd" stroke="none"/>
    <path d="M51.2 -101.9 Q50.1 -95.65 46.25 -91.05 42.45 -86.5 36.9 -84.35 31.3 -82.2 25.05 -83.15 18.8 -84.25 14.2 -88.1 9.65 -91.9 7.5 -97.45 5.35 -103.05 6.3 -109.3 7.4 -115.55 11.25 -120.15 15.05 -124.7 20.65 -126.85 26.2 -129.0 32.45 -128.05 38.7 -126.95 43.3 -123.1 47.85 -119.3 50.0 -113.7 52.15 -108.15 51.2 -101.9" fill="#e82900" fill-rule="evenodd" stroke="none"/>
    <path d="M44.6 -102.45 Q43.8 -98.0 41.1 -94.7 38.35 -91.45 34.4 -89.95 30.45 -88.4 26.0 -89.1 21.55 -89.9 18.25 -92.6 15.0 -95.35 13.45 -99.3 11.95 -103.25 12.6 -107.7 13.4 -112.15 16.15 -115.45 18.85 -118.7 22.85 -120.25 26.8 -121.75 31.25 -121.1 35.7 -120.3 39.0 -117.55 42.25 -114.85 43.75 -110.85 45.3 -106.9 44.6 -102.45" fill="#ffff2e" fill-rule="evenodd" stroke="none"/>
    <path d="M38.55 -108.8 Q37.3 -107.35 36.9 -105.7 36.5 -104.05 36.6 -102.6 36.7 -101.15 36.95 -100.2 35.8 -100.55 35.05 -101.2 L33.95 -102.45 33.55 -103.15 33.55 -103.2 33.5 -103.2 33.5 -103.15 32.35 -102.45 Q31.35 -101.9 29.8 -101.65 28.2 -101.4 26.4 -102.15 27.15 -103.4 28.8 -105.0 30.4 -106.65 32.85 -107.85 35.3 -109.0 38.55 -108.8" fill="#000000" fill-rule="evenodd" stroke="none"/>
    <path d="M36.65 -98.65 Q37.7 -98.3 39.15 -98.65 40.6 -98.95 42.4 -100.2 L41.35 -98.55 38.2 -95.05 Q36.15 -93.1 33.1 -91.85 30.05 -90.6 26.1 -91.15 21.75 -92.0 19.25 -94.1 16.75 -96.25 15.6 -98.7 14.45 -101.15 14.15 -102.95 L13.9 -104.8 14.35 -103.95 Q14.85 -103.15 15.9 -102.4 16.9 -101.65 18.6 -101.75 20.3 -101.8 22.75 -103.45 L22.75 -103.5 22.8 -103.5 22.8 -103.45 Q24.45 -101.3 26.15 -100.55 27.95 -99.8 29.5 -100.05 31.1 -100.35 32.1 -100.9 L33.25 -101.6 33.7 -100.85 34.8 -99.65 Q35.55 -98.95 36.65 -98.65" fill="#000000" fill-rule="evenodd" stroke="none"/>
    <path d="M20.2 -40.7 L20.9 -35.5 23.75 -39.85 23.7 -32.3 Q22.45 -31.35 21.75 -31.55 21.05 -31.75 20.7 -32.6 L20.2 -34.3 19.9 -35.65 Q20.1 -34.4 19.55 -33.35 18.95 -32.3 18.0 -31.9 17.1 -31.55 16.2 -32.35 15.3 -33.15 14.85 -35.65 14.6 -33.25 13.95 -32.3 13.25 -31.35 12.4 -31.25 L11.0 -31.4 10.4 -31.7 9.95 -38.2 12.55 -36.05 12.5 -40.4 14.65 -37.25 17.0 -42.7 17.8 -36.35 20.2 -40.7" fill="#6d9726" fill-rule="evenodd" stroke="none"/>
    <path d="M21.2 -31.1 Q20.3 -31.25 19.9 -32.35 19.6 -31.3 18.35 -30.85 L15.95 -30.6 Q14.75 -30.9 14.4 -32.15 14.1 -31.5 13.05 -31.15 12.0 -30.8 11.05 -31.15 10.05 -31.5 9.95 -32.95 L10.75 -38.0 12.95 -33.3 13.25 -38.55 16.05 -34.9 16.5 -41.15 18.5 -35.8 21.4 -40.6 21.9 -34.9 25.0 -37.7 25.0 -36.45 24.85 -34.0 Q24.7 -32.7 24.35 -32.2 L23.0 -31.35 21.2 -31.1" fill="#87d12e" fill-rule="evenodd" stroke="none"/>
  </g>
</svg>
