<?xml version="1.0" encoding="UTF-8" standalone="no"?>
<svg xmlns:xlink="http://www.w3.org/1999/xlink" height="50.8px" width="41.25px" xmlns="http://www.w3.org/2000/svg">
  <g transform="matrix(1.0, 0.0, 0.0, 1.0, 14.5, 27.35)">
    <path d="M0.9 -22.9 L-0.95 19.95 -14.5 22.6 -12.75 -20.1 0.9 -22.9" fill="#52330c" fill-rule="evenodd" stroke="none"/>
    <path d="M0.15 -20.1 L-1.35 21.3 -12.45 23.45 -11.05 -17.85 0.15 -20.1" fill="#9c5712" fill-rule="evenodd" stroke="none"/>
    <path d="M-2.1 -18.2 L-2.05 -15.8 -2.1 -9.8 -2.2 -1.9 Q-2.3 2.3 -2.55 6.15 -2.8 10.0 -3.25 12.6 -3.65 15.25 -4.35 15.8 -5.6 16.65 -6.2 15.25 -6.85 13.85 -7.0 11.05 L-7.1 4.9 -6.9 -1.45 -6.85 -6.35 Q-6.85 -8.2 -7.3 -8.1 -7.95 -7.7 -8.35 -5.55 L-9.0 -0.2 -9.35 6.65 -9.65 13.5 -9.9 19.0 Q-10.1 21.25 -10.4 21.75 L-10.6 17.85 -10.5 11.0 -10.0 2.8 -9.2 -5.35 Q-8.65 -9.2 -7.95 -11.85 -7.2 -14.5 -6.25 -15.2 -5.75 -15.45 -5.55 -13.8 L-5.35 -9.4 -5.45 -3.45 -5.55 2.45 -5.4 6.95 Q-5.25 8.6 -4.75 8.4 -3.95 7.9 -3.6 5.25 -3.25 2.6 -3.15 -1.15 L-2.95 -8.65 -2.75 -15.05 Q-2.55 -17.7 -2.1 -18.2" fill="#73420a" fill-rule="evenodd" stroke="none"/>
    <path d="M7.75 -23.55 L25.4 -27.35 22.8 15.75 10.8 15.15 7.75 -23.55" fill="#52330c" fill-rule="evenodd" stroke="none"/>
    <path d="M13.25 -22.65 L25.4 -25.2 23.6 15.55 12.05 18.05 13.25 -22.65" fill="#9c5712" fill-rule="evenodd" stroke="none"/>
    <path d="M23.0 -21.4 Q23.4 -21.35 23.45 -18.9 L23.15 -12.5 22.5 -4.15 21.65 4.2 20.95 10.65 20.65 13.2 20.65 11.1 20.55 5.75 20.35 -1.15 20.0 -8.0 19.55 -13.25 Q19.25 -15.25 18.9 -15.25 18.4 -15.1 18.0 -12.85 17.65 -10.65 17.4 -7.2 L16.95 0.1 16.5 7.4 16.0 13.05 Q15.75 15.25 15.35 15.4 14.95 15.4 14.65 12.85 L14.25 6.3 Q14.05 2.25 14.0 -2.35 13.95 -6.9 14.05 -11.0 14.1 -15.05 14.3 -17.65 14.5 -20.2 14.8 -20.3 L14.85 -18.3 14.9 -13.45 14.95 -7.25 15.05 -1.1 15.15 3.65 15.35 5.45 Q15.7 5.3 15.9 3.4 L16.2 -1.45 16.5 -7.65 16.85 -13.85 Q17.1 -16.8 17.55 -18.7 18.0 -20.6 18.7 -20.75 19.2 -20.75 19.65 -19.15 L20.35 -14.75 20.85 -8.85 21.1 -2.55 Q21.5 -2.7 21.8 -4.7 L22.3 -9.65 22.7 -15.35 22.9 -19.9 23.0 -21.4" fill="#73420a" fill-rule="evenodd" stroke="none"/>
    <path d="M13.1 -24.4 L11.05 15.3 -0.15 19.75 0.95 -22.4 13.1 -24.4" fill="#52330c" fill-rule="evenodd" stroke="none"/>
    <path d="M13.1 -22.2 L11.15 18.8 -0.4 20.65 0.95 -20.2 13.1 -22.2" fill="#9c5712" fill-rule="evenodd" stroke="none"/>
    <path d="M9.7 -18.9 L9.7 -16.25 9.7 -9.6 9.5 -0.95 8.85 7.8 Q8.4 11.95 7.65 14.65 6.9 17.4 5.7 17.75 5.5 17.75 5.5 15.65 L5.7 10.45 6.1 3.95 6.4 -1.95 6.45 -5.35 Q5.9 2.3 5.25 5.45 4.6 8.6 4.0 8.25 3.4 7.95 3.0 5.15 2.6 2.35 2.55 -1.8 L2.75 -7.65 3.25 -13.25 3.75 -17.5 3.95 -19.15 3.85 -17.4 3.6 -13.05 3.35 -7.35 3.2 -1.7 Q3.15 0.95 3.25 2.65 3.35 4.3 3.65 4.35 4.05 4.25 4.3 2.05 L4.75 -3.45 5.25 -10.0 5.9 -15.5 Q6.3 -17.75 6.9 -17.9 7.3 -17.9 7.35 -15.8 L7.4 -10.35 7.15 -3.25 6.85 3.85 6.75 9.25 Q6.8 11.35 7.1 11.35 7.4 11.2 7.75 9.0 L8.35 3.35 8.85 -3.9 9.3 -11.1 9.6 -16.65 9.7 -18.9" fill="#73420a" fill-rule="evenodd" stroke="none"/>
    <path d="M24.3 -19.5 L25.35 -19.75 26.35 -19.45 Q26.75 -19.2 26.75 -18.8 L26.65 -11.8 Q26.6 -11.4 26.2 -11.15 L25.15 -10.9 Q24.55 -10.95 24.1 -11.2 23.7 -11.45 23.7 -11.85 L23.85 -18.85 Q23.85 -19.25 24.3 -19.5" fill="#d9b324" fill-rule="evenodd" stroke="none"/>
    <path d="M23.5 2.85 L24.55 2.6 Q25.15 2.6 25.55 2.9 25.95 3.15 25.95 3.55 L25.85 10.55 25.4 11.2 24.35 11.45 23.3 11.15 Q22.9 10.9 22.9 10.5 L23.05 3.5 Q23.05 3.1 23.5 2.85" fill="#d9b324" fill-rule="evenodd" stroke="none"/>
  </g>
</svg>
