<?xml version="1.0" encoding="UTF-8" standalone="no"?>
<svg xmlns:xlink="http://www.w3.org/1999/xlink" height="29.95px" width="22.65px" xmlns="http://www.w3.org/2000/svg">
  <g transform="matrix(1.0, 0.0, 0.0, 1.0, 11.15, 1.5)">
    <path d="M11.5 28.45 L-8.95 28.45 -8.95 6.85 11.5 6.85 11.5 28.45" fill="#ffff00" fill-rule="evenodd" stroke="none"/>
    <path d="M-8.85 28.45 L-11.15 26.35 -11.15 4.75 -8.85 6.85 -8.85 28.45" fill="#d9b324" fill-rule="evenodd" stroke="none"/>
    <path d="M-11.15 4.75 L6.9 4.85 11.2 6.85 -8.85 6.85 -11.15 4.75" fill="#d9b324" fill-rule="evenodd" stroke="none"/>
    <path d="M5.1 0.7 Q7.2 2.8 7.3 6.0 L5.0 6.0 Q4.95 3.8 3.5 2.3 2.05 0.85 -0.15 0.8 -2.35 0.85 -3.85 2.3 -5.3 3.8 -5.35 6.0 L-7.65 6.0 Q-7.55 2.8 -5.45 0.7 -3.35 -1.4 -0.15 -1.5 3.0 -1.4 5.1 0.7" fill="#ffe000" fill-rule="evenodd" stroke="none"/>
    <path d="M4.85 14.65 Q4.8 16.15 3.8 17.15 2.8 18.15 1.3 18.2 -0.2 18.15 -1.15 17.15 -2.15 16.15 -2.2 14.65 -2.15 13.15 -1.15 12.2 -0.2 11.2 1.3 11.15 2.8 11.2 3.8 12.2 4.8 13.15 4.85 14.65" fill="#000000" fill-rule="evenodd" stroke="none"/>
    <path d="M0.25 15.6 L2.3 15.6 5.1 24.6 -2.65 24.7 0.25 15.6" fill="#000000" fill-rule="evenodd" stroke="none"/>
  </g>
</svg>
