<?xml version="1.0" encoding="UTF-8" standalone="no"?>
<svg xmlns:xlink="http://www.w3.org/1999/xlink" height="58.15px" width="19.1px" xmlns="http://www.w3.org/2000/svg">
  <g transform="matrix(1.0, 0.0, 0.0, 1.0, -7.65, 43.55)">
    <path d="M14.3 -37.95 L13.5 3.75 7.65 -1.95 8.4 -43.55 14.3 -37.95" fill="#52330c" fill-rule="evenodd" stroke="none"/>
    <path d="M13.95 -35.55 L13.35 4.9 8.55 0.2 9.15 -40.25 13.95 -35.55" fill="#9c5712" fill-rule="evenodd" stroke="none"/>
    <path d="M13.0 -35.05 L13.05 -32.6 13.0 -26.65 12.95 -18.8 12.8 -11.0 12.5 -4.95 Q12.35 -2.55 12.05 -2.45 11.5 -2.35 11.25 -4.15 10.95 -5.95 10.9 -8.85 L10.85 -15.05 10.95 -21.25 10.95 -26.15 Q10.95 -28.0 10.75 -28.15 10.5 -28.15 10.3 -26.25 L10.05 -21.3 9.9 -14.7 9.75 -8.0 9.65 -2.65 9.45 -0.25 9.35 -4.25 9.4 -11.05 9.6 -18.95 9.95 -26.6 10.5 -32.3 Q10.8 -34.5 11.2 -34.6 11.45 -34.55 11.5 -32.8 L11.6 -28.25 11.55 -22.35 11.5 -16.55 11.6 -11.95 Q11.65 -10.2 11.85 -10.1 12.2 -10.1 12.35 -12.55 L12.55 -18.65 12.65 -26.05 12.75 -32.3 Q12.8 -34.85 13.0 -35.05" fill="#73420a" fill-rule="evenodd" stroke="none"/>
    <path d="M17.25 -34.35 L24.85 -27.25 23.75 14.25 18.55 6.25 17.25 -34.35" fill="#52330c" fill-rule="evenodd" stroke="none"/>
    <path d="M19.6 -30.0 L24.85 -25.05 24.05 14.6 19.1 9.95 19.6 -30.0" fill="#9c5712" fill-rule="evenodd" stroke="none"/>
    <path d="M23.75 -22.8 Q23.95 -22.5 23.95 -20.0 L23.85 -13.8 23.55 -5.85 23.2 1.95 22.9 8.0 22.75 10.35 22.75 8.25 22.7 2.85 22.65 -4.2 22.5 -11.25 22.3 -16.75 22.0 -19.2 Q21.8 -19.35 21.6 -17.35 L21.35 -12.05 21.15 -5.05 21.0 2.0 20.75 7.35 20.5 9.3 Q20.3 9.05 20.2 6.3 L20.0 -0.5 19.9 -9.3 19.9 -17.9 20.05 -24.4 Q20.1 -26.85 20.25 -26.75 L20.25 -24.75 20.3 -19.85 20.3 -13.6 20.35 -7.4 20.4 -2.6 20.5 -0.65 20.7 -2.4 20.85 -7.05 21.0 -13.05 21.15 -19.05 21.45 -23.45 Q21.6 -25.1 21.9 -24.8 L22.35 -22.6 22.65 -17.8 22.85 -11.55 22.95 -5.1 Q23.15 -5.0 23.25 -6.85 L23.45 -11.5 23.65 -16.95 23.75 -21.35 23.75 -22.8" fill="#73420a" fill-rule="evenodd" stroke="none"/>
    <path d="M19.55 -31.85 L18.65 6.55 13.85 4.1 14.3 -37.35 19.55 -31.85" fill="#52330c" fill-rule="evenodd" stroke="none"/>
    <path d="M19.55 -29.65 L18.7 10.15 13.75 4.85 14.35 -35.15 19.55 -29.65" fill="#9c5712" fill-rule="evenodd" stroke="none"/>
    <path d="M18.1 -28.5 L18.1 -25.85 18.1 -19.2 18.0 -10.65 17.7 -2.3 17.2 3.8 Q16.85 6.1 16.35 5.7 L16.25 3.45 16.35 -1.6 16.55 -7.85 16.65 -13.55 16.7 -16.95 16.15 -6.9 Q15.9 -4.15 15.6 -4.85 15.35 -5.55 15.2 -8.55 L15.0 -15.8 15.1 -21.55 15.3 -26.8 15.5 -30.75 15.6 -32.3 15.55 -30.6 15.45 -26.4 15.35 -20.85 15.3 -15.3 15.3 -10.9 15.45 -8.95 Q15.65 -8.8 15.75 -10.85 L15.95 -16.1 16.15 -22.35 16.45 -27.45 Q16.6 -29.45 16.85 -29.2 17.05 -28.95 17.05 -26.85 L17.1 -21.35 17.0 -14.4 16.85 -7.5 16.8 -2.15 16.95 0.15 Q17.1 0.2 17.25 -1.8 L17.5 -7.05 17.7 -14.0 17.9 -20.95 18.05 -26.3 18.1 -28.5" fill="#73420a" fill-rule="evenodd" stroke="none"/>
    <path d="M24.3 -19.5 L25.35 -19.75 26.35 -19.45 Q26.75 -19.2 26.75 -18.8 L26.65 -11.8 Q26.6 -11.4 26.2 -11.15 L25.15 -10.9 Q24.55 -10.95 24.1 -11.2 23.7 -11.45 23.7 -11.85 L23.85 -18.85 Q23.85 -19.25 24.3 -19.5" fill="#d9b324" fill-rule="evenodd" stroke="none"/>
    <path d="M23.5 2.85 L24.55 2.6 Q25.15 2.6 25.55 2.9 25.95 3.15 25.95 3.55 L25.85 10.55 25.4 11.2 24.35 11.45 23.3 11.15 Q22.9 10.9 22.9 10.5 L23.05 3.5 Q23.05 3.1 23.5 2.85" fill="#d9b324" fill-rule="evenodd" stroke="none"/>
  </g>
</svg>
