<?xml version="1.0" encoding="UTF-8" standalone="no"?>
<svg xmlns:xlink="http://www.w3.org/1999/xlink" height="74.85px" width="109.15px" xmlns="http://www.w3.org/2000/svg">
  <g transform="matrix(1.0, 0.0, 0.0, 1.0, 54.55, 47.85)">
    <path d="M-26.2 -2.85 Q-26.15 -0.25 -25.05 1.85 -23.9 3.95 -22.0 5.2 -20.05 6.45 -17.7 6.5 -15.3 6.45 -13.4 5.2 -11.45 3.95 -10.3 1.85 -9.2 -0.25 -9.15 -2.85 -9.2 -5.45 -10.35 -7.55 -11.45 -9.65 -13.4 -10.9 -15.3 -12.15 -17.7 -12.2 -20.05 -12.15 -22.0 -10.9 -23.9 -9.65 -25.05 -7.55 -26.15 -5.45 -26.2 -2.85 M-22.35 -24.4 Q-23.35 -25.65 -24.85 -25.7 -26.35 -25.65 -27.35 -24.4 -28.35 -23.2 -28.35 -21.35 -28.35 -19.5 -27.35 -18.3 -26.35 -17.05 -24.85 -17.0 -23.35 -17.05 -22.35 -18.3 -21.35 -19.5 -21.35 -21.35 -21.35 -23.2 -22.35 -24.4 M30.85 -47.45 L32.85 -6.8 -40.5 16.35 -40.1 -33.1 30.85 -47.45 M16.85 -14.1 Q15.95 -13.05 15.9 -11.5 15.95 -9.95 16.85 -8.9 17.75 -7.9 19.15 -7.85 20.55 -7.9 21.45 -8.9 22.35 -9.95 22.4 -11.5 22.4 -13.05 21.45 -14.1 20.55 -15.15 19.15 -15.2 17.75 -15.15 16.85 -14.1 M0.0 -11.5 Q2.35 -11.6 3.9 -13.35 5.45 -15.15 5.5 -17.85 5.45 -20.55 3.9 -22.35 2.35 -24.1 0.0 -24.2 -2.35 -24.1 -3.9 -22.35 -5.5 -20.55 -5.55 -17.85 -5.5 -15.15 -3.9 -13.35 -2.35 -11.6 0.0 -11.5 M23.4 -28.35 Q24.85 -29.95 24.9 -32.35 24.8 -34.75 23.4 -36.35 21.95 -37.95 19.8 -38.0 17.65 -37.95 16.25 -36.35 14.8 -34.75 14.75 -32.35 14.8 -29.95 16.25 -28.35 17.65 -26.75 19.8 -26.7 21.95 -26.75 23.4 -28.35" fill="#ff9d00" fill-rule="evenodd" stroke="none"/>
    <path d="M-38.7 -13.5 L-37.05 -6.5 -47.4 7.9 -51.65 10.2 -54.45 9.35 -38.7 -13.5" fill="#3d1c0c" fill-rule="evenodd" stroke="none"/>
    <path d="M-54.55 9.6 L-43.0 -7.45 -42.15 -3.9 -51.65 10.2 -54.55 9.6" fill="#52330c" fill-rule="evenodd" stroke="none"/>
    <path d="M32.85 -6.8 L30.45 -6.2 28.65 -43.25 -37.1 -29.9 -36.5 15.15 -40.5 16.35 -40.1 -33.1 30.85 -47.45 32.85 -6.8" fill="#9c5712" fill-rule="evenodd" stroke="none"/>
    <path d="M30.85 -47.45 L-40.0 -32.3 -40.5 16.35 -43.9 14.05 -43.75 -33.65 26.05 -47.85 30.85 -47.45" fill="#52330c" fill-rule="evenodd" stroke="none"/>
    <path d="M-24.9 14.9 L-6.1 21.3 43.9 5.8 23.15 -0.7 29.5 -2.3 54.6 5.5 -6.6 27.0 -31.35 17.05 -24.9 14.9" fill="#ffffff" fill-opacity="0.5019608" fill-rule="evenodd" stroke="none"/>
  </g>
</svg>
