<?xml version="1.0" encoding="UTF-8" standalone="no"?>
<svg xmlns:xlink="http://www.w3.org/1999/xlink" height="28.4px" width="52.55px" xmlns="http://www.w3.org/2000/svg">
  <g transform="matrix(1.0, 0.0, 0.0, 1.0, 9.5, -19.15)">
    <path d="M42.35 47.55 Q39.8 45.3 36.4 43.55 32.1 41.3 27.1 39.75 L25.2 39.15 23.4 38.65 Q18.2 37.25 13.0 36.35 L1.8 34.8 -6.35 34.1 -9.45 33.95 -9.5 33.95 -6.9 32.15 Q-4.3 30.4 0.0 27.9 4.3 25.45 9.55 23.15 14.8 20.85 20.2 19.75 L27.1 19.15 30.35 19.55 30.6 19.6 Q35.2 20.65 38.4 24.55 41.7 28.5 42.8 36.5 L43.0 38.65 Q43.2 43.1 42.35 47.55" fill="#6b6b6b" fill-rule="evenodd" stroke="none"/>
  </g>
</svg>
