<?xml version="1.0" encoding="UTF-8" standalone="no"?>
<svg xmlns:xlink="http://www.w3.org/1999/xlink" height="92.25px" width="47.5px" xmlns="http://www.w3.org/2000/svg">
  <g transform="matrix(1.0, 0.0, 0.0, 1.0, 24.25, 45.65)">
    <path d="M-4.9 22.6 L-9.95 34.3 -17.1 31.2 -12.05 19.5 -4.9 22.6" fill="#e82900" fill-rule="evenodd" stroke="none"/>
    <path d="M-0.3 11.95 L-5.35 23.65 -12.5 20.55 -7.45 8.85 -0.3 11.95" fill="#ffff2e" fill-rule="evenodd" stroke="none"/>
    <path d="M4.6 0.6 L-0.45 12.3 -7.6 9.2 -2.55 -2.5 4.6 0.6" fill="#e82900" fill-rule="evenodd" stroke="none"/>
    <path d="M9.2 -10.1 L4.15 1.6 -3.0 -1.5 2.05 -13.2 9.2 -10.1" fill="#ffff2e" fill-rule="evenodd" stroke="none"/>
    <path d="M14.1 -21.45 L9.05 -9.75 1.9 -12.85 6.95 -24.55 14.1 -21.45" fill="#e82900" fill-rule="evenodd" stroke="none"/>
    <path d="M18.7 -32.1 L13.65 -20.4 6.5 -23.5 11.55 -35.2 18.7 -32.1" fill="#ffff2e" fill-rule="evenodd" stroke="none"/>
    <path d="M23.25 -42.55 L18.2 -30.85 11.05 -33.95 16.1 -45.65 23.25 -42.55" fill="#e82900" fill-rule="evenodd" stroke="none"/>
    <path d="M-6.3 36.1 Q-6.0 38.3 -6.95 40.5 -7.9 42.65 -9.7 43.95 -11.5 45.25 -13.7 45.55 -15.9 45.85 -18.1 44.9 -20.3 43.95 -21.6 42.15 -22.9 40.35 -23.2 38.15 -23.45 35.95 -22.55 33.75 -21.6 31.55 -19.8 30.25 -18.0 28.95 -15.8 28.65 -13.55 28.4 -11.35 29.3 -9.2 30.25 -7.9 32.05 -6.6 33.85 -6.3 36.1" fill="#ffff2e" fill-rule="evenodd" stroke="none"/>
    <path d="M-6.3 36.1 Q-6.0 38.3 -6.95 40.5 -7.9 42.65 -9.7 43.95 -11.5 45.25 -13.7 45.55 -15.9 45.85 -18.1 44.9 -20.3 43.95 -21.6 42.15 -22.9 40.35 -23.2 38.15 -23.45 35.95 -22.55 33.75 -21.6 31.55 -19.8 30.25 -18.0 28.95 -15.8 28.65 -13.55 28.4 -11.35 29.3 -9.2 30.25 -7.9 32.05 -6.6 33.85 -6.3 36.1 Z" fill="none" stroke="#000000" stroke-linecap="round" stroke-linejoin="round" stroke-width="2.0"/>
  </g>
</svg>
