<?xml version="1.0" encoding="UTF-8" standalone="no"?>
<svg xmlns:xlink="http://www.w3.org/1999/xlink" height="30.25px" width="71.55px" xmlns="http://www.w3.org/2000/svg">
  <g transform="matrix(1.0, 0.0, 0.0, 1.0, 28.85, 22.75)">
    <path d="M-23.2 -19.95 L-23.2 -19.8 -23.2 7.2 -28.85 7.2 -28.85 -19.8 -28.75 -19.8 -28.8 -19.95 Q-28.75 -21.15 -27.95 -21.95 -27.2 -22.7 -26.0 -22.75 -24.8 -22.7 -24.0 -21.95 -23.2 -21.15 -23.2 -19.95" fill="#73420a" fill-rule="evenodd" stroke="none"/>
    <path d="M-22.2 -19.65 L-22.2 -19.5 -22.2 7.5 -27.85 7.5 -27.85 -19.5 -27.75 -19.5 -27.8 -19.65 Q-27.75 -20.85 -26.95 -21.65 -26.2 -22.4 -25.0 -22.45 -23.8 -22.4 -23.0 -21.65 -22.2 -20.85 -22.2 -19.65" fill="#9c5712" fill-rule="evenodd" stroke="none"/>
    <path d="M-24.35 -19.9 Q-24.4 -19.2 -25.1 -19.15 -25.8 -19.2 -25.85 -19.9 -25.8 -20.6 -25.1 -20.65 -24.4 -20.6 -24.35 -19.9" fill="#000000" fill-rule="evenodd" stroke="none"/>
    <path d="M41.7 -17.65 L41.7 6.6 36.2 6.6 36.2 -17.65 41.7 -17.65" fill="#73420a" fill-rule="evenodd" stroke="none"/>
    <path d="M42.7 -16.95 L42.7 7.3 37.2 7.3 37.2 -16.95 42.7 -16.95" fill="#9c5712" fill-rule="evenodd" stroke="none"/>
  </g>
</svg>
