<?xml version="1.0" encoding="UTF-8" standalone="no"?>
<svg xmlns:xlink="http://www.w3.org/1999/xlink" height="30.3px" width="67.65px" xmlns="http://www.w3.org/2000/svg">
  <g transform="matrix(1.0, 0.0, 0.0, 1.0, 26.55, 22.7)">
    <path d="M40.1 -17.55 L40.1 6.7 34.6 6.7 34.6 -17.55 40.1 -17.55" fill="#73420a" fill-rule="evenodd" stroke="none"/>
    <path d="M41.1 -16.9 L41.1 7.35 35.6 7.35 35.6 -16.9 41.1 -16.9" fill="#9c5712" fill-rule="evenodd" stroke="none"/>
    <path d="M-20.9 -19.9 L-20.9 -19.75 -20.9 7.25 -26.55 7.25 -26.55 -19.75 -26.45 -19.75 -26.5 -19.9 Q-26.45 -21.1 -25.65 -21.9 -24.9 -22.65 -23.7 -22.7 -22.5 -22.65 -21.7 -21.9 -20.9 -21.1 -20.9 -19.9" fill="#73420a" fill-rule="evenodd" stroke="none"/>
    <path d="M-19.9 -19.55 L-19.9 -19.4 -19.9 7.6 -25.55 7.6 -25.55 -19.4 -25.45 -19.4 -25.5 -19.55 Q-25.45 -20.75 -24.65 -21.55 -23.9 -22.3 -22.7 -22.35 -21.5 -22.3 -20.7 -21.55 -19.9 -20.75 -19.9 -19.55" fill="#9c5712" fill-rule="evenodd" stroke="none"/>
    <path d="M-22.05 -19.85 Q-22.1 -19.15 -22.8 -19.1 -23.5 -19.15 -23.55 -19.85 -23.5 -20.55 -22.8 -20.6 -22.1 -20.55 -22.05 -19.85" fill="#000000" fill-rule="evenodd" stroke="none"/>
  </g>
</svg>
