<?xml version="1.0" encoding="UTF-8" standalone="no"?>
<svg xmlns:xlink="http://www.w3.org/1999/xlink" height="92.3px" width="134.25px" xmlns="http://www.w3.org/2000/svg">
  <g transform="matrix(1.0, 0.0, 0.0, 1.0, 1.15, 51.05)">
    <path d="M67.75 -32.3 L68.85 -50.3 76.75 -50.9 74.1 -33.4 67.75 -32.3" fill="#7c7c7d" fill-rule="evenodd" stroke="none"/>
    <path d="M69.0 -32.4 L70.8 -50.45 78.7 -51.05 76.05 -33.55 69.0 -32.4" fill="#ffffff" fill-rule="evenodd" stroke="none"/>
    <path d="M57.8 -31.1 L58.9 -49.1 66.8 -49.7 64.15 -32.2 57.8 -31.1" fill="#7c7c7d" fill-rule="evenodd" stroke="none"/>
    <path d="M59.05 -31.2 L60.85 -49.25 68.75 -49.85 66.1 -32.35 59.05 -31.2" fill="#ffffff" fill-rule="evenodd" stroke="none"/>
    <path d="M47.85 -29.95 L48.95 -47.95 56.85 -48.55 54.2 -31.05 47.85 -29.95" fill="#7c7c7d" fill-rule="evenodd" stroke="none"/>
    <path d="M49.1 -30.05 L50.9 -48.1 58.8 -48.7 56.15 -31.2 49.1 -30.05" fill="#ffffff" fill-rule="evenodd" stroke="none"/>
    <path d="M37.9 -28.75 L39.0 -46.75 46.9 -47.35 44.25 -29.85 37.9 -28.75" fill="#7c7c7d" fill-rule="evenodd" stroke="none"/>
    <path d="M39.15 -28.85 L40.95 -46.9 48.85 -47.5 46.2 -30.0 39.15 -28.85" fill="#ffffff" fill-rule="evenodd" stroke="none"/>
    <path d="M28.7 -28.0 L29.8 -46.0 37.7 -46.6 35.05 -29.1 28.7 -28.0" fill="#7c7c7d" fill-rule="evenodd" stroke="none"/>
    <path d="M29.95 -28.1 L31.75 -46.15 39.65 -46.75 37.0 -29.25 29.95 -28.1" fill="#ffffff" fill-rule="evenodd" stroke="none"/>
    <path d="M18.75 -26.8 L19.85 -44.8 27.75 -45.4 25.1 -27.9 18.75 -26.8" fill="#7c7c7d" fill-rule="evenodd" stroke="none"/>
    <path d="M20.0 -26.9 L21.8 -44.95 29.7 -45.55 27.05 -28.05 20.0 -26.9" fill="#ffffff" fill-rule="evenodd" stroke="none"/>
    <path d="M8.8 -25.6 L9.9 -43.6 17.8 -44.2 15.15 -26.7 8.8 -25.6" fill="#7c7c7d" fill-rule="evenodd" stroke="none"/>
    <path d="M10.05 -25.7 L11.85 -43.75 19.75 -44.35 17.1 -26.85 10.05 -25.7" fill="#ffffff" fill-rule="evenodd" stroke="none"/>
    <path d="M-1.15 -24.45 L-0.05 -42.45 7.85 -43.05 5.2 -25.55 -1.15 -24.45" fill="#7c7c7d" fill-rule="evenodd" stroke="none"/>
    <path d="M0.1 -24.55 L1.9 -42.6 9.8 -43.2 7.15 -25.7 0.1 -24.55" fill="#ffffff" fill-rule="evenodd" stroke="none"/>
    <path d="M84.0 -30.55 L79.75 -33.3 80.9 -50.35 86.3 -47.65 84.0 -30.55" fill="#7c7c7d" fill-rule="evenodd" stroke="none"/>
    <path d="M83.15 -31.0 L78.4 -34.0 79.55 -51.05 84.95 -48.35 83.15 -31.0" fill="#ffffff" fill-rule="evenodd" stroke="none"/>
    <path d="M90.75 -26.75 L86.5 -29.5 87.65 -46.55 93.05 -43.85 90.75 -26.75" fill="#7c7c7d" fill-rule="evenodd" stroke="none"/>
    <path d="M89.9 -27.15 L85.15 -30.15 86.3 -47.2 91.7 -44.5 89.9 -27.15" fill="#ffffff" fill-rule="evenodd" stroke="none"/>
    <path d="M97.5 -22.9 L93.25 -25.65 94.4 -42.7 99.8 -40.0 97.5 -22.9" fill="#7c7c7d" fill-rule="evenodd" stroke="none"/>
    <path d="M96.65 -23.35 L91.9 -26.35 93.05 -43.4 98.45 -40.7 96.65 -23.35" fill="#ffffff" fill-rule="evenodd" stroke="none"/>
    <path d="M104.25 -19.1 L100.0 -21.85 101.15 -38.9 106.55 -36.2 104.25 -19.1" fill="#7c7c7d" fill-rule="evenodd" stroke="none"/>
    <path d="M103.4 -19.55 L98.65 -22.55 99.8 -39.6 105.2 -36.9 103.4 -19.55" fill="#ffffff" fill-rule="evenodd" stroke="none"/>
    <path d="M110.55 -15.9 L106.3 -18.65 107.45 -35.7 112.85 -33.0 110.55 -15.9" fill="#7c7c7d" fill-rule="evenodd" stroke="none"/>
    <path d="M109.7 -16.3 L104.95 -19.3 106.1 -36.35 111.5 -33.65 109.7 -16.3" fill="#ffffff" fill-rule="evenodd" stroke="none"/>
    <path d="M117.3 -12.05 L113.05 -14.8 114.2 -31.85 119.6 -29.15 117.3 -12.05" fill="#7c7c7d" fill-rule="evenodd" stroke="none"/>
    <path d="M116.45 -12.5 L111.7 -15.5 112.85 -32.55 118.25 -29.85 116.45 -12.5" fill="#ffffff" fill-rule="evenodd" stroke="none"/>
    <path d="M124.05 -8.25 L119.8 -11.0 120.95 -28.05 126.35 -25.35 124.05 -8.25" fill="#7c7c7d" fill-rule="evenodd" stroke="none"/>
    <path d="M123.2 -8.7 L118.45 -11.7 119.6 -28.75 125.0 -26.05 123.2 -8.7" fill="#ffffff" fill-rule="evenodd" stroke="none"/>
    <path d="M130.8 -4.45 L126.55 -7.2 127.7 -24.25 133.1 -21.55 130.8 -4.45" fill="#7c7c7d" fill-rule="evenodd" stroke="none"/>
    <path d="M129.95 -4.85 L125.2 -7.85 126.35 -24.9 131.75 -22.2 129.95 -4.85" fill="#ffffff" fill-rule="evenodd" stroke="none"/>
    <path d="M118.4 34.45 L119.45 17.2 127.0 16.6 124.5 33.4 118.4 34.45" fill="#7c7c7d" fill-rule="evenodd" stroke="none"/>
    <path d="M119.6 34.35 L121.35 17.05 128.9 16.45 126.35 33.25 119.6 34.35" fill="#ffffff" fill-rule="evenodd" stroke="none"/>
    <path d="M108.85 35.55 L109.9 18.3 117.45 17.7 114.95 34.5 108.85 35.55" fill="#7c7c7d" fill-rule="evenodd" stroke="none"/>
    <path d="M110.05 35.5 L111.8 18.2 119.35 17.6 116.8 34.4 110.05 35.5" fill="#ffffff" fill-rule="evenodd" stroke="none"/>
    <path d="M99.3 36.7 L100.35 19.45 107.9 18.85 105.4 35.65 99.3 36.7" fill="#7c7c7d" fill-rule="evenodd" stroke="none"/>
    <path d="M100.5 36.6 L102.25 19.3 109.8 18.7 107.25 35.5 100.5 36.6" fill="#ffffff" fill-rule="evenodd" stroke="none"/>
    <path d="M89.75 37.85 L90.8 20.6 98.35 20.0 95.85 36.8 89.75 37.85" fill="#7c7c7d" fill-rule="evenodd" stroke="none"/>
    <path d="M90.95 37.75 L92.7 20.45 100.25 19.85 97.7 36.65 90.95 37.75" fill="#ffffff" fill-rule="evenodd" stroke="none"/>
    <path d="M80.2 38.95 L81.25 21.7 88.8 21.1 86.3 37.9 80.2 38.95" fill="#7c7c7d" fill-rule="evenodd" stroke="none"/>
    <path d="M81.4 38.9 L83.15 21.6 90.7 21.0 88.15 37.8 81.4 38.9" fill="#ffffff" fill-rule="evenodd" stroke="none"/>
    <path d="M70.65 40.1 L71.7 22.85 79.25 22.25 76.75 39.05 70.65 40.1" fill="#7c7c7d" fill-rule="evenodd" stroke="none"/>
    <path d="M71.85 40.0 L73.6 22.7 81.15 22.1 78.6 38.9 71.85 40.0" fill="#ffffff" fill-rule="evenodd" stroke="none"/>
    <path d="M61.1 41.25 L62.15 24.0 69.7 23.4 67.2 40.2 61.1 41.25" fill="#7c7c7d" fill-rule="evenodd" stroke="none"/>
    <path d="M62.3 41.15 L64.05 23.85 71.6 23.25 69.05 40.05 62.3 41.15" fill="#ffffff" fill-rule="evenodd" stroke="none"/>
    <path d="M124.75 -2.4 L124.75 -2.1 Q124.45 -0.35 119.4 0.45 114.3 1.25 106.8 0.75 99.3 0.15 94.45 -1.4 89.55 -2.95 89.5 -4.75 L89.65 -6.3 89.8 -7.85 90.05 -11.7 107.55 -7.05 125.25 -9.05 124.75 -2.4" fill="#000000" fill-rule="evenodd" stroke="none"/>
  </g>
</svg>
