<?xml version="1.0" encoding="UTF-8" standalone="no"?>
<svg xmlns:xlink="http://www.w3.org/1999/xlink" height="17.2px" width="18.75px" xmlns="http://www.w3.org/2000/svg">
  <g transform="matrix(1.0, 0.0, 0.0, 1.0, 0.0, 0.25)">
    <path d="M9.05 1.2 L9.1 1.2 Q9.45 0.65 10.15 0.6 10.9 0.55 11.65 1.0 L12.6 2.0 Q12.9 2.6 12.7 3.2 13.15 2.85 13.8 2.85 14.45 2.85 15.1 3.25 15.85 3.75 16.1 4.45 16.35 5.15 16.0 5.75 L15.8 5.95 17.35 6.35 Q18.1 6.85 18.35 7.55 18.6 8.25 18.25 8.85 L17.95 9.2 16.9 9.5 17.35 9.7 17.4 9.7 18.4 10.9 Q18.65 11.6 18.3 12.2 L18.0 12.55 17.95 12.55 17.45 12.8 16.3 12.7 16.6 13.15 16.8 13.75 16.65 14.7 16.25 15.1 15.5 15.35 Q14.75 15.4 14.0 14.95 L13.5 14.5 13.7 15.25 13.5 16.0 13.2 16.3 13.2 16.35 Q12.85 16.6 12.35 16.65 11.6 16.7 10.85 16.25 L9.95 15.3 9.95 15.35 9.7 15.65 9.65 15.7 8.8 16.0 Q8.05 16.05 7.3 15.6 L6.35 14.55 Q6.1 13.95 6.25 13.4 5.8 13.75 5.15 13.75 4.5 13.75 3.85 13.35 3.1 12.85 2.85 12.15 2.6 11.45 2.95 10.85 L3.05 10.75 Q2.4 10.75 1.7 10.35 0.95 9.85 0.7 9.15 0.45 8.45 0.8 7.85 L0.85 7.85 1.5 7.35 1.95 7.2 2.35 7.25 2.5 7.25 2.35 7.25 1.4 6.8 Q0.65 6.3 0.4 5.6 0.15 4.95 0.5 4.35 L0.55 4.3 1.4 3.75 1.95 3.75 2.6 3.85 2.0 2.8 Q1.85 2.2 2.15 1.75 L2.2 1.75 Q2.55 1.2 3.3 1.1 4.0 1.05 4.7 1.5 L4.8 1.55 5.0 1.7 Q4.9 1.1 5.15 0.65 L5.2 0.6 Q5.6 0.05 6.3 0.0 7.05 -0.05 7.8 0.4 L8.75 1.5 8.85 1.8 9.05 1.2 M15.4 9.45 L16.1 9.3 15.6 9.1 Q14.85 8.6 14.6 7.9 14.35 7.2 14.7 6.6 L14.9 6.35 Q14.15 6.45 13.35 5.95 12.7 5.55 12.45 4.95 12.15 4.35 12.3 3.75 L11.25 4.1 9.95 3.7 Q9.1 3.15 8.9 2.35 L8.7 2.9 8.4 3.2 8.4 3.25 7.6 3.5 Q6.85 3.6 6.05 3.1 L5.85 2.95 5.9 3.5 5.7 4.0 5.4 4.35 4.8 4.6 3.6 4.5 3.95 4.95 4.2 5.55 Q4.35 6.15 4.05 6.6 L3.75 6.9 3.75 6.95 2.9 7.25 2.5 7.25 3.1 7.45 3.45 7.65 Q4.2 8.15 4.45 8.85 4.7 9.55 4.35 10.1 L4.3 10.2 Q4.95 10.2 5.6 10.6 6.25 11.05 6.55 11.65 6.8 12.25 6.65 12.8 7.1 12.45 7.75 12.45 8.4 12.5 9.05 12.9 L9.9 13.8 9.9 13.85 9.95 13.75 Q10.35 13.2 11.1 13.1 11.8 13.05 12.6 13.55 L13.1 13.95 Q12.7 13.15 13.1 12.45 L13.15 12.45 13.15 12.4 13.95 11.85 14.55 11.85 15.1 11.95 Q14.7 11.45 14.6 10.95 14.5 10.4 14.75 9.95 L14.8 9.9 Q15.0 9.6 15.4 9.45" fill="#ffe000" fill-rule="evenodd" stroke="none"/>
    <path d="M17.95 9.2 L17.35 9.7 16.9 9.5 17.95 9.2 M17.95 12.55 L17.15 13.1 16.6 13.15 16.3 12.7 17.45 12.8 17.95 12.55 M16.25 15.1 Q15.9 15.55 15.2 15.65 14.45 15.7 13.7 15.25 L13.5 14.5 14.0 14.95 Q14.75 15.4 15.5 15.35 L16.25 15.1 M13.2 16.35 Q12.8 16.85 12.05 16.95 11.3 17.0 10.55 16.55 L9.7 15.65 9.95 15.35 9.95 15.3 10.85 16.25 Q11.6 16.7 12.35 16.65 12.85 16.6 13.2 16.35 M9.65 15.7 Q9.2 16.2 8.5 16.3 L7.0 15.9 Q6.35 15.45 6.05 14.85 5.8 14.25 5.95 13.7 L4.85 14.05 Q4.2 14.05 3.55 13.65 2.8 13.15 2.55 12.45 2.3 11.75 2.65 11.15 L2.75 11.05 1.4 10.65 Q0.65 10.15 0.4 9.45 0.15 8.75 0.5 8.15 L0.8 7.85 Q0.45 8.45 0.7 9.15 0.95 9.85 1.7 10.35 2.4 10.75 3.05 10.75 L2.95 10.85 Q2.6 11.45 2.85 12.15 3.1 12.85 3.85 13.35 4.5 13.75 5.15 13.75 5.8 13.75 6.25 13.4 6.1 13.95 6.35 14.55 L7.3 15.6 Q8.05 16.05 8.8 16.0 L9.65 15.7 M1.5 7.35 L1.1 7.1 Q0.35 6.6 0.1 5.9 -0.15 5.25 0.2 4.65 L0.55 4.3 0.5 4.35 Q0.15 4.95 0.4 5.6 0.65 6.3 1.4 6.8 L2.35 7.25 1.95 7.2 1.5 7.35 M1.95 3.75 L1.7 3.1 Q1.55 2.5 1.85 2.05 L2.15 1.75 Q1.85 2.2 2.0 2.8 L2.6 3.85 1.95 3.75 M4.7 1.5 Q4.7 1.2 4.85 0.95 L5.2 0.6 5.15 0.65 Q4.9 1.1 5.0 1.7 L4.8 1.55 4.7 1.5 M8.75 1.5 L9.05 1.2 8.85 1.8 8.75 1.5 M8.7 2.9 L8.9 2.35 Q9.1 3.15 9.95 3.7 L11.25 4.1 12.3 3.75 Q12.15 4.35 12.45 4.95 12.7 5.55 13.35 5.95 14.15 6.45 14.9 6.35 L14.7 6.6 Q14.35 7.2 14.6 7.9 14.85 8.6 15.6 9.1 L16.1 9.3 15.4 9.45 15.3 9.4 Q14.55 8.9 14.3 8.2 14.05 7.5 14.4 6.9 L14.6 6.65 Q13.85 6.75 13.05 6.25 12.4 5.85 12.15 5.25 11.85 4.65 12.0 4.05 11.55 4.4 10.9 4.4 10.3 4.4 9.65 4.0 8.95 3.55 8.7 2.9 M14.8 9.9 L14.75 9.95 Q14.5 10.4 14.6 10.95 14.7 11.45 15.1 11.95 L14.55 11.85 14.3 11.25 Q14.2 10.7 14.45 10.25 L14.8 9.9 M13.15 12.45 L13.1 12.45 Q12.7 13.15 13.1 13.95 L12.6 13.55 12.8 12.75 13.15 12.45 M9.95 13.75 L9.9 13.85 9.9 13.8 9.95 13.75 M3.1 7.45 L2.5 7.25 2.9 7.25 3.75 6.95 3.1 7.45 M5.4 4.35 L4.5 4.9 3.95 4.95 3.6 4.5 4.8 4.6 5.4 4.35 M5.9 3.5 L5.85 2.95 6.05 3.1 Q6.85 3.6 7.6 3.5 L8.4 3.25 Q8.0 3.75 7.3 3.8 L5.9 3.5" fill="#9c5708" fill-rule="evenodd" stroke="none"/>
    <path d="M8.7 2.9 Q8.95 3.55 9.65 4.0 10.3 4.4 10.9 4.4 11.55 4.4 12.0 4.05 11.85 4.65 12.15 5.25 12.4 5.85 13.05 6.25 13.85 6.75 14.6 6.65 L14.4 6.9 Q14.05 7.5 14.3 8.2 14.55 8.9 15.3 9.4 L15.4 9.45 Q15.0 9.6 14.8 9.9 L14.45 10.25 Q14.2 10.7 14.3 11.25 L14.55 11.85 13.95 11.85 13.15 12.4 13.15 12.45 12.8 12.75 12.6 13.55 Q11.8 13.05 11.1 13.1 10.35 13.2 9.95 13.75 L9.9 13.8 9.05 12.9 Q8.4 12.5 7.75 12.45 7.1 12.45 6.65 12.8 6.8 12.25 6.55 11.65 6.25 11.05 5.6 10.6 4.95 10.2 4.3 10.2 L4.35 10.1 Q4.7 9.55 4.45 8.85 4.2 8.15 3.45 7.65 L3.1 7.45 3.75 6.95 3.75 6.9 4.05 6.6 Q4.35 6.15 4.2 5.55 L3.95 4.95 4.5 4.9 5.4 4.35 5.7 4.0 5.9 3.5 7.3 3.8 Q8.0 3.75 8.4 3.25 L8.4 3.2 8.7 2.9" fill="#d9b324" fill-rule="evenodd" stroke="none"/>
    <path d="M9.05 1.2 L9.1 1.2 Q9.45 0.65 10.15 0.6 10.9 0.55 11.65 1.0 L12.6 2.0 Q12.9 2.6 12.7 3.2 13.15 2.85 13.8 2.85 14.45 2.85 15.1 3.25 15.85 3.75 16.1 4.45 16.35 5.15 16.0 5.75 L15.8 5.95 17.35 6.35 Q18.1 6.85 18.35 7.55 18.6 8.25 18.25 8.85 L17.95 9.2 16.9 9.5 17.35 9.7 17.4 9.7 18.4 10.9 Q18.65 11.6 18.3 12.2 L18.0 12.55 17.95 12.55 17.45 12.8 16.3 12.7 16.6 13.15 16.8 13.75 16.65 14.7 16.25 15.1 15.5 15.35 Q14.75 15.4 14.0 14.95 L13.5 14.5 13.7 15.25 13.5 16.0 13.2 16.3 13.2 16.35 Q12.85 16.6 12.35 16.65 11.6 16.7 10.85 16.25 L9.95 15.3 9.95 15.35 9.7 15.65 9.65 15.7 8.8 16.0 Q8.05 16.05 7.3 15.6 L6.35 14.55 Q6.1 13.95 6.25 13.4 5.8 13.75 5.15 13.75 4.5 13.75 3.85 13.35 3.1 12.85 2.85 12.15 2.6 11.45 2.95 10.85 L3.05 10.75 Q2.4 10.75 1.7 10.35 0.95 9.85 0.7 9.15 0.45 8.45 0.8 7.85 L0.85 7.85 1.5 7.35 M0.55 4.3 L1.4 3.75 1.95 3.75 2.6 3.85 2.0 2.8 Q1.85 2.2 2.15 1.75 L2.2 1.75 Q2.55 1.2 3.3 1.1 4.0 1.05 4.7 1.5 L4.8 1.55 5.0 1.7 Q4.9 1.1 5.15 0.65 L5.2 0.6 Q5.6 0.05 6.3 0.0 7.05 -0.05 7.8 0.4 L8.75 1.5 M9.05 1.2 L8.85 1.8 8.75 1.5 M15.4 9.45 L16.1 9.3 15.6 9.1 Q14.85 8.6 14.6 7.9 14.35 7.2 14.7 6.6 L14.9 6.35 Q14.15 6.45 13.35 5.95 12.7 5.55 12.45 4.95 12.15 4.35 12.3 3.75 L11.25 4.1 9.95 3.7 Q9.1 3.15 8.9 2.35 L8.7 2.9 M15.4 9.45 Q15.0 9.6 14.8 9.9 L14.75 9.95 Q14.5 10.4 14.6 10.95 14.7 11.45 15.1 11.95 L14.55 11.85 13.95 11.85 13.15 12.4 13.15 12.45 13.1 12.45 Q12.7 13.15 13.1 13.95 L12.6 13.55 Q11.8 13.05 11.1 13.1 10.35 13.2 9.95 13.75 L9.9 13.85 9.9 13.8 9.05 12.9 Q8.4 12.5 7.75 12.45 7.1 12.45 6.65 12.8 6.8 12.25 6.55 11.65 6.25 11.05 5.6 10.6 4.95 10.2 4.3 10.2 L4.35 10.1 Q4.7 9.55 4.45 8.85 4.2 8.15 3.45 7.65 L3.1 7.45 2.5 7.25 2.35 7.25 1.95 7.2 1.5 7.35 M5.9 3.5 L5.7 4.0 5.4 4.35 4.8 4.6 3.6 4.5 3.95 4.95 4.2 5.55 Q4.35 6.15 4.05 6.6 L3.75 6.9 3.75 6.95 M8.4 3.25 L7.6 3.5 Q6.85 3.6 6.05 3.1 L5.85 2.95 5.9 3.5 M8.4 3.25 L8.4 3.2 8.7 2.9 M2.35 7.25 L1.4 6.8 Q0.65 6.3 0.4 5.6 0.15 4.95 0.5 4.35 L0.55 4.3 M2.5 7.25 L2.9 7.25 3.75 6.95" fill="none" stroke="#9c5708" stroke-linecap="round" stroke-linejoin="round" stroke-width="0.5"/>
  </g>
</svg>
