<?xml version="1.0" encoding="UTF-8" standalone="no"?>
<svg xmlns:xlink="http://www.w3.org/1999/xlink" height="18.55px" width="19.1px" xmlns="http://www.w3.org/2000/svg">
  <g transform="matrix(1.0, 0.0, 0.0, 1.0, 11.05, 18.55)">
    <path d="M-1.65 -8.2 Q1.35 -5.35 0.25 -1.0" fill="none" stroke="#425c0a" stroke-linecap="round" stroke-linejoin="round" stroke-width="2.0"/>
    <path d="M-11.05 -8.1 L-9.75 -8.15 -6.75 -8.15 -3.3 -7.8 Q-1.55 -7.5 -0.55 -6.8 0.45 -6.1 0.15 -4.9 -0.35 -3.45 -2.1 -3.65 -3.8 -3.9 -5.9 -4.95 L-9.45 -7.05 -11.05 -8.1" fill="#425c0a" fill-rule="evenodd" stroke="none"/>
    <path d="M7.55 -10.1 L6.1 -7.45 4.15 -4.55 Q3.1 -3.15 2.0 -2.6 0.95 -2.0 0.0 -2.85 -0.9 -3.75 -0.35 -4.85 0.2 -5.95 1.5 -7.1 2.85 -8.2 4.35 -9.15 L6.9 -10.65 8.05 -11.25 7.55 -10.1" fill="#425c0a" fill-rule="evenodd" stroke="none"/>
    <path d="M1.5 -12.75 L3.9 -12.15 Q4.85 -11.65 4.85 -10.95 4.85 -10.35 4.05 -9.85 3.25 -9.4 2.0 -9.25 2.7 -8.3 2.85 -7.45 3.05 -6.65 2.65 -6.2 2.15 -5.75 1.2 -6.0 0.25 -6.3 -0.8 -7.15 -0.9 -5.7 -1.4 -4.8 -1.9 -3.85 -2.6 -3.8 -3.3 -3.85 -3.8 -4.85 -4.3 -5.85 -4.4 -7.35 -5.5 -6.35 -6.55 -6.0 L-8.1 -6.15 Q-8.55 -6.65 -8.3 -7.6 L-7.15 -9.6 Q-8.6 -9.7 -9.55 -10.2 -10.45 -10.7 -10.5 -11.4 -10.5 -12.05 -9.7 -12.5 L-7.65 -13.15 -8.5 -14.9 Q-8.7 -15.75 -8.3 -16.15 L-6.85 -16.35 Q-5.85 -16.05 -4.8 -15.2 -4.7 -16.65 -4.2 -17.6 -3.75 -18.5 -3.05 -18.55 -2.3 -18.5 -1.8 -17.5 -1.3 -16.55 -1.25 -15.0 -0.15 -16.0 0.9 -16.35 L2.5 -16.2 Q2.95 -15.7 2.65 -14.75 2.4 -13.8 1.5 -12.75" fill="#246ec2" fill-rule="evenodd" stroke="none"/>
    <path d="M-5.15 -11.4 Q-5.15 -12.25 -4.55 -12.85 -3.95 -13.45 -3.1 -13.45 -2.2 -13.45 -1.6 -12.85 -1.05 -12.25 -1.0 -11.4 -1.05 -10.5 -1.65 -9.9 -2.2 -9.35 -3.1 -9.3 -3.95 -9.35 -4.55 -9.95 -5.15 -10.5 -5.15 -11.4" fill="#142b61" fill-rule="evenodd" stroke="none"/>
  </g>
</svg>
