<?xml version="1.0" encoding="UTF-8" standalone="no"?>
<svg xmlns:xlink="http://www.w3.org/1999/xlink" height="57.1px" width="16.95px" xmlns="http://www.w3.org/2000/svg">
  <g transform="matrix(1.0, 0.0, 0.0, 1.0, 0.5, 4.3)">
    <path d="M0.6 52.3 L0.5 52.05 0.05 50.6 Q-0.15 49.8 0.2 48.65 L0.85 45.5 1.95 39.4 3.25 31.85 4.55 24.35 5.65 18.4 Q6.1 16.0 6.3 15.5 L7.35 12.55 7.7 9.9 7.95 6.4 Q8.2 4.2 9.4 2.8 10.55 1.35 11.65 0.7 L12.85 0.0 11.8 21.25 9.4 29.55 Q8.25 33.95 7.65 38.7 7.05 43.4 7.55 48.25 7.45 49.25 6.95 50.2 L6.0 52.05 5.9 52.3 0.6 52.3" fill="#7c4806" fill-rule="evenodd" stroke="none"/>
    <path d="M0.6 52.3 L0.5 52.05 0.05 50.6 Q-0.15 49.8 0.2 48.65 L0.85 45.5 1.95 39.4 3.25 31.85 4.55 24.35 5.65 18.4 Q6.1 16.0 6.3 15.5 L7.35 12.55 7.7 9.9 7.95 6.4 Q8.2 4.2 9.4 2.8 10.55 1.35 11.65 0.7 L12.85 0.0 M11.8 21.25 L9.4 29.55 Q8.25 33.95 7.65 38.7 7.05 43.4 7.55 48.25 7.45 49.25 6.95 50.2 L6.0 52.05 5.9 52.3" fill="none" stroke="#000000" stroke-linecap="round" stroke-linejoin="round" stroke-width="1.0"/>
    <path d="M15.3 -2.55 L16.0 -0.85 Q17.1 3.1 15.6 6.65 L15.05 7.35 14.9 7.95 14.8 8.4 14.3 9.1 14.1 9.3 Q14.0 10.45 14.3 11.65 14.6 12.95 13.95 14.15 16.75 17.95 14.5 19.7 12.25 21.4 10.0 20.6 L5.7 18.85 Q3.7 17.9 3.75 16.3 3.8 14.45 5.35 13.6 L5.35 11.1 Q5.35 10.4 5.75 9.8 5.55 8.9 5.65 7.95 5.7 7.4 6.05 6.95 L6.1 6.85 Q5.45 4.45 6.25 2.2 6.5 1.35 7.35 1.05 7.05 -3.5 11.7 -4.25 14.05 -4.65 15.3 -2.55" fill="#ffffff" fill-rule="evenodd" stroke="none"/>
  </g>
</svg>
