<?xml version="1.0" encoding="UTF-8" standalone="no"?>
<svg xmlns:xlink="http://www.w3.org/1999/xlink" height="12.6px" width="28.0px" xmlns="http://www.w3.org/2000/svg">
  <g transform="matrix(1.0, 0.0, 0.0, 1.0, 7.2, 20.9)">
    <path d="M3.0 -8.55 Q0.85 -7.85 -1.05 -9.2 -3.0 -10.65 -4.5 -13.0 -6.0 -15.45 -6.7 -17.65 -7.45 -19.95 -7.1 -20.9 L-5.55 -19.8 -1.95 -17.15 1.85 -13.8 Q3.55 -12.1 4.05 -10.65 4.55 -9.25 3.0 -8.55" fill="#425c0a" fill-rule="evenodd" stroke="none"/>
    <path d="M18.95 -12.95 L20.8 -12.55 Q20.3 -11.65 18.2 -10.6 16.1 -9.65 13.3 -9.0 L8.2 -8.85 Q5.8 -9.3 4.9 -11.3 4.25 -12.95 5.65 -13.55 7.0 -14.2 9.5 -14.15 L14.5 -13.7 18.95 -12.95" fill="#425c0a" fill-rule="evenodd" stroke="none"/>
  </g>
</svg>
