<?xml version="1.0" encoding="UTF-8" standalone="no"?>
<svg xmlns:xlink="http://www.w3.org/1999/xlink" height="116.25px" width="99.15px" xmlns="http://www.w3.org/2000/svg">
  <g transform="matrix(1.0, 0.0, 0.0, 1.0, 41.4, 111.25)">
    <path d="M9.1 -50.85 L3.9 5.0 -2.35 4.45 2.8 -51.45 9.1 -50.85" fill="#73420a" fill-rule="evenodd" stroke="none"/>
    <path d="M2.8 -51.45 L-2.35 4.45 -5.8 0.85 -0.95 -50.15 2.8 -51.45" fill="#52330c" fill-rule="evenodd" stroke="none"/>
    <path d="M31.85 -71.9 Q31.25 -67.7 27.85 -64.7 24.45 -61.7 19.2 -60.3 13.9 -58.95 7.75 -59.7 1.55 -60.55 -3.2 -63.2 -7.9 -65.9 -10.45 -69.65 -12.95 -73.45 -12.45 -77.65 -11.85 -81.85 -8.45 -84.85 -5.05 -87.85 0.2 -89.2 5.45 -90.6 11.65 -89.8 17.85 -88.95 22.55 -86.3 27.3 -83.65 29.8 -79.9 32.3 -76.1 31.85 -71.9" fill="#246ec2" fill-rule="evenodd" stroke="none"/>
    <path d="M26.65 -49.45 Q26.05 -45.25 22.65 -42.25 19.25 -39.25 14.0 -37.85 8.7 -36.5 2.55 -37.25 -3.65 -38.1 -8.4 -40.75 -13.1 -43.45 -15.65 -47.2 -18.15 -51.0 -17.65 -55.2 -17.05 -59.4 -13.65 -62.4 -10.25 -65.4 -5.0 -66.75 0.25 -68.15 6.45 -67.35 12.65 -66.5 17.35 -63.85 22.1 -61.2 24.6 -57.45 27.1 -53.65 26.65 -49.45" fill="#246ec2" fill-rule="evenodd" stroke="none"/>
    <path d="M4.95 -55.75 Q-0.95 -57.15 -5.2 -58.55 -9.4 -59.95 -11.65 -60.95 L-13.9 -61.95 -11.5 -71.45 -9.55 -69.9 Q-7.6 -68.45 -3.5 -66.7 0.65 -64.9 7.15 -63.8 L4.95 -55.75" fill="#7e3000" fill-rule="evenodd" stroke="none"/>
    <path d="M25.25 -56.8 Q25.25 -56.75 23.75 -56.25 L19.5 -55.25 13.05 -54.75 Q9.35 -54.75 4.9 -55.7 L7.1 -63.8 17.65 -62.75 Q21.75 -62.65 23.65 -62.85 L25.5 -63.15 25.25 -56.8" fill="#ab3000" fill-rule="evenodd" stroke="none"/>
    <path d="M11.45 -54.9 L2.65 -56.05 3.75 -64.55 12.55 -63.4 11.45 -54.9" fill="#ffd400" fill-rule="evenodd" stroke="none"/>
    <path d="M49.9 -58.25 L55.95 -53.7 49.9 -55.8 57.6 -46.3 46.95 -53.3 51.65 -41.55 45.4 -52.35 46.2 -41.85 39.9 -52.35 48.1 -60.8 49.9 -58.25" fill="#d9b324" fill-rule="evenodd" stroke="none"/>
    <path d="M45.3 -57.1 L47.9 -55.55 51.6 -41.55 45.3 -57.1" fill="#ffe000" fill-rule="evenodd" stroke="none"/>
    <path d="M46.0 -58.2 L57.75 -51.05 47.75 -54.3 46.0 -58.2" fill="#ffe000" fill-rule="evenodd" stroke="none"/>
    <path d="M43.4 -55.2 L48.05 -42.5 43.0 -51.7 43.4 -55.2" fill="#ffe000" fill-rule="evenodd" stroke="none"/>
    <path d="M47.45 -60.0 L55.4 -52.75 46.4 -58.1 47.45 -60.0" fill="#ffe000" fill-rule="evenodd" stroke="none"/>
    <path d="M45.7 -59.15 L53.35 -49.8 45.05 -56.0 45.7 -59.15" fill="#b38824" fill-rule="evenodd" stroke="none"/>
    <path d="M44.5 -57.5 L48.35 -46.05 42.8 -54.75 44.5 -57.5" fill="#b38824" fill-rule="evenodd" stroke="none"/>
    <path d="M43.2 -56.25 L44.3 -44.2 40.9 -54.0 43.2 -56.25" fill="#b38824" fill-rule="evenodd" stroke="none"/>
    <path d="M42.7 -55.65 L53.55 -47.5 41.6 -53.75 42.7 -55.65" fill="#ffe000" fill-rule="evenodd" stroke="none"/>
    <path d="M27.55 -82.7 L29.6 -80.6 34.6 -75.45 40.75 -69.0 46.35 -62.85 49.65 -58.7 Q47.05 -58.85 45.35 -57.55 43.65 -56.25 42.7 -54.45 41.75 -52.65 41.35 -51.2 L41.0 -49.75 26.3 -66.65 27.55 -82.7" fill="#246ec2" fill-rule="evenodd" stroke="none"/>
    <path d="M45.15 -57.35 Q43.7 -56.1 42.75 -54.5 41.85 -52.85 41.4 -51.6 L41.0 -50.3 22.75 -71.15 24.85 -69.45 30.6 -65.5 Q34.25 -63.2 38.9 -61.25 43.55 -59.3 48.7 -58.6 46.65 -58.55 45.15 -57.35" fill="#244fc4" fill-rule="evenodd" stroke="none"/>
    <path d="M-3.85 -39.6 Q-7.05 -40.75 -10.25 -42.65 -13.45 -44.5 -15.5 -47.15 -17.6 -49.85 -17.5 -53.35 -17.4 -56.9 -14.0 -61.35 -12.9 -57.05 -10.8 -53.35 -8.7 -49.65 -6.2 -46.7 -3.7 -43.75 -1.4 -41.7 L2.35 -38.5 3.85 -37.35 1.6 -37.9 -3.85 -39.6" fill="#244fc4" fill-rule="evenodd" stroke="none"/>
    <path d="M-1.8 -68.1 Q0.35 -66.35 1.8 -65.55 L3.35 -64.75 1.8 -65.05 -1.9 -66.1 Q-4.1 -66.85 -6.3 -68.0 -8.5 -69.15 -9.95 -70.8 -11.4 -72.4 -11.4 -74.6 -11.4 -76.8 -9.25 -79.6 -8.0 -75.55 -5.95 -72.7 -3.9 -69.9 -1.8 -68.1" fill="#244fc4" fill-rule="evenodd" stroke="none"/>
    <path d="M-30.9 -70.05 L-28.5 -72.05 -22.75 -61.75 -31.5 -53.25 -28.05 -63.2 -36.85 -54.35 -29.3 -64.5 -41.4 -60.45 -31.5 -67.7 -37.9 -67.2 -30.9 -70.05" fill="#d9b324" fill-rule="evenodd" stroke="none"/>
    <path d="M-26.75 -67.8 L-36.85 -54.4 -29.7 -67.0 -26.75 -67.8" fill="#ffe000" fill-rule="evenodd" stroke="none"/>
    <path d="M-27.15 -69.05 L-29.9 -65.7 -40.35 -65.15 -27.15 -69.05" fill="#ffe000" fill-rule="evenodd" stroke="none"/>
    <path d="M-25.45 -65.45 L-25.95 -61.95 -33.15 -54.35 -25.45 -65.45" fill="#ffe000" fill-rule="evenodd" stroke="none"/>
    <path d="M-28.1 -71.15 L-27.55 -69.05 -37.65 -66.15 -28.1 -71.15" fill="#ffe000" fill-rule="evenodd" stroke="none"/>
    <path d="M-26.6 -69.85 L-26.8 -66.65 -36.4 -62.8 -26.6 -69.85" fill="#b38824" fill-rule="evenodd" stroke="none"/>
    <path d="M-25.9 -68.0 L-24.95 -64.9 -32.55 -57.9 -25.9 -68.0" fill="#b38824" fill-rule="evenodd" stroke="none"/>
    <path d="M-24.95 -66.45 L-23.3 -63.65 -29.1 -55.1 -24.95 -66.45" fill="#b38824" fill-rule="evenodd" stroke="none"/>
    <path d="M-24.65 -65.7 L-24.05 -63.6 -37.2 -60.6 -24.65 -65.7" fill="#ffe000" fill-rule="evenodd" stroke="none"/>
    <path d="M-3.1 -88.0 L-6.0 -72.15 -24.5 -59.55 -24.5 -61.1 Q-24.5 -62.55 -24.95 -64.55 -25.4 -66.55 -26.75 -68.25 -28.05 -69.95 -30.6 -70.45 L-26.35 -73.6 -19.35 -78.1 -11.75 -82.8 -5.6 -86.5 -3.1 -88.0" fill="#246ec2" fill-rule="evenodd" stroke="none"/>
    <path d="M-5.55 -85.9 L-9.75 -81.55 -15.1 -75.25 Q-17.9 -71.7 -20.3 -67.75 -22.75 -63.85 -24.15 -59.95 -24.05 -63.5 -24.85 -65.7 -25.65 -67.9 -26.75 -69.05 -27.9 -70.2 -28.75 -70.6 L-29.65 -71.0 -3.9 -87.55 -5.55 -85.9" fill="#244fc4" fill-rule="evenodd" stroke="none"/>
    <path d="M21.75 -85.5 Q21.65 -84.75 20.0 -84.25 L15.7 -83.7 9.7 -83.9 3.8 -84.8 Q1.2 -85.45 -0.3 -86.2 -1.85 -86.95 -1.8 -87.7 -1.7 -88.45 -0.05 -88.95 L4.25 -89.5 10.25 -89.35 16.15 -88.4 Q18.75 -87.8 20.3 -87.05 21.8 -86.25 21.75 -85.5" fill="#244fc4" fill-rule="evenodd" stroke="none"/>
    <path d="M7.9 -93.95 L6.35 -90.1 6.35 -90.35 5.95 -93.3 4.75 -101.9 6.4 -97.8 7.9 -93.95 M3.5 -91.7 L5.75 -88.55 4.45 -85.35 4.25 -85.4 3.3 -85.65 -1.15 -97.15 -2.2 -99.9 -1.4 -98.75 3.5 -91.7 M7.9 -84.75 L9.25 -90.65 11.0 -86.2 11.5 -88.25 12.6 -92.95 14.8 -102.45 14.95 -94.75 15.05 -85.95 15.05 -85.35 15.05 -84.8 15.05 -84.4 13.25 -84.35 11.05 -86.1 11.75 -84.4 9.65 -84.55 9.25 -84.6 8.3 -84.9 8.45 -84.65 7.9 -84.75" fill="#b38824" fill-rule="evenodd" stroke="none"/>
    <path d="M4.85 -108.6 L8.85 -96.3 7.9 -93.95 6.4 -97.8 4.05 -110.85 4.85 -108.6 M6.35 -90.35 L4.55 -95.2 5.95 -93.3 6.35 -90.35 M2.1 -98.55 L3.5 -91.7 -1.4 -98.75 -2.4 -104.8 2.1 -98.55 M9.25 -90.65 L9.85 -93.3 11.5 -88.25 11.0 -86.2 9.25 -90.65 M12.6 -92.95 L11.6 -95.1 16.35 -111.25 16.65 -97.5 14.95 -94.75 14.8 -102.45 12.6 -92.95 M17.0 -91.75 L17.7 -92.95 15.05 -85.35 15.05 -85.95 17.0 -91.75 M19.9 -96.65 L21.65 -99.6 21.5 -97.6 19.35 -88.4 19.6 -85.1 19.05 -84.9 18.35 -84.75 19.9 -96.65 M16.05 -84.45 L15.1 -84.4 15.05 -84.4 15.05 -84.8 16.05 -84.45 M13.25 -84.35 L11.75 -84.4 11.05 -86.1 13.25 -84.35 M9.25 -84.6 L8.45 -84.65 8.3 -84.9 9.25 -84.6 M-1.15 -97.15 L3.3 -85.65 Q1.65 -86.05 0.6 -86.55 L-1.15 -97.15" fill="#d9b324" fill-rule="evenodd" stroke="none"/>
    <path d="M4.85 -108.6 L4.1 -110.85 9.85 -98.75 12.6 -105.55 10.7 -97.0 11.6 -95.1 12.6 -92.95 11.5 -88.25 9.85 -93.3 9.25 -90.65 7.9 -84.75 4.45 -85.35 5.75 -88.55 3.5 -91.7 2.1 -98.55 0.6 -105.95 4.55 -95.2 6.35 -90.35 6.35 -90.1 7.9 -93.95 8.85 -96.3 4.85 -108.6 M16.65 -97.5 L21.55 -105.5 17.0 -91.75 15.05 -85.95 14.95 -94.75 16.65 -97.5 M17.7 -92.95 L20.45 -100.95 19.9 -96.65 18.35 -84.75 16.05 -84.45 15.05 -84.8 15.05 -85.35 17.7 -92.95" fill="#ffe000" fill-rule="evenodd" stroke="none"/>
  </g>
</svg>
