<?xml version="1.0" encoding="UTF-8" standalone="no"?>
<svg xmlns:xlink="http://www.w3.org/1999/xlink" height="151.2px" width="84.15px" xmlns="http://www.w3.org/2000/svg">
  <g transform="matrix(1.0, 0.0, 0.0, 1.0, 35.3, 153.0)">
    <path d="M-9.15 -149.9 L-8.3 -151.35 -7.3 -147.85 -6.65 -148.1 Q-6.0 -148.4 -5.4 -149.45 -4.85 -150.45 -5.0 -152.6 -2.65 -150.05 -2.15 -148.2 -1.65 -146.3 -2.25 -145.0 -2.85 -143.75 -3.9 -143.05 -4.9 -142.3 -5.65 -142.1 -5.3 -143.4 -6.0 -143.95 -6.7 -144.55 -7.55 -144.65 L-8.5 -144.75 -8.85 -144.35 -9.15 -140.1 Q-8.85 -140.05 -9.25 -138.4 -10.5 -137.6 -11.4 -139.0 L-10.85 -144.15 -11.15 -144.9 -11.65 -145.05 Q-12.1 -145.1 -13.1 -144.6 -14.05 -144.1 -15.55 -142.4 -17.1 -143.7 -17.25 -145.2 -17.4 -146.75 -16.75 -148.25 L-15.05 -151.0 -13.15 -153.0 Q-12.95 -150.8 -12.5 -149.9 -12.05 -149.0 -11.65 -148.85 L-11.25 -148.75 -9.75 -151.5 -9.15 -149.9" fill="#000000" fill-rule="evenodd" stroke="none"/>
    <path d="M14.15 -112.75 L6.45 -112.05 5.85 -125.85 14.15 -112.8 14.15 -112.75 M5.7 -99.05 L-1.55 -98.4 -2.45 -110.3 5.2 -111.0 5.7 -99.05 M35.1 -101.7 L39.25 -106.6 38.75 -84.55 33.5 -84.7 35.1 -101.7 M6.5 -111.15 L14.15 -111.85 14.35 -99.9 7.0 -99.2 6.5 -111.15 M5.15 -111.9 L-2.3 -111.2 4.6 -125.7 5.15 -111.9 M7.6 -85.75 L7.05 -98.3 14.35 -99.0 14.5 -86.3 7.6 -85.75 M44.25 -66.25 L48.85 -60.9 48.75 -43.8 39.4 -43.3 39.0 -59.8 44.25 -66.25 M40.5 -107.4 L44.45 -101.9 44.7 -84.45 40.15 -84.55 40.5 -107.4 M6.25 -85.65 L-0.5 -85.1 -1.45 -97.5 5.7 -98.2 6.25 -85.65 M26.25 -31.15 L31.45 -36.5 36.0 -31.15 36.95 -14.3 26.55 -13.55 26.25 -31.15 M32.25 -65.5 L36.75 -60.0 36.95 -43.25 26.55 -42.5 26.25 -60.1 32.25 -65.5 M14.8 -64.25 L19.35 -58.9 20.3 -42.05 10.55 -41.55 9.6 -58.9 14.8 -64.25 M2.7 -63.5 L7.25 -58.15 8.2 -41.3 -2.2 -40.55 -2.5 -58.15 2.7 -63.5 M18.6 -26.9 Q19.65 -25.15 20.0 -23.8 L20.3 -22.4 22.1 -3.1 -0.75 -1.8 -0.4 -21.7 -0.3 -23.2 Q-0.15 -24.65 0.7 -26.55 1.55 -28.45 3.55 -29.9 5.6 -31.3 9.25 -31.4 13.0 -31.35 15.25 -30.0 17.5 -28.65 18.6 -26.9 M-33.5 -56.65 L-28.3 -62.0 -23.75 -56.65 -22.8 -39.8 -33.2 -39.05 -33.5 -56.65 M39.15 -14.3 L38.85 -31.9 44.05 -37.25 48.6 -31.9 47.3 -15.05 39.15 -14.3 M-35.3 -94.3 L-31.45 -100.5 -30.8 -77.7 -35.3 -76.8 -35.3 -94.3 M-29.4 -78.0 L-30.15 -99.95 -25.95 -95.8 -24.15 -79.1 -29.4 -78.0 M-14.45 -32.25 L-9.9 -26.9 -8.45 -10.55 -18.85 -9.8 -19.65 -26.9 -14.45 -32.25" fill="#000000" fill-rule="evenodd" stroke="none"/>
  </g>
</svg>
