<?xml version="1.0" encoding="UTF-8" standalone="no"?>
<svg xmlns:xlink="http://www.w3.org/1999/xlink" height="38.0px" width="594.35px" xmlns="http://www.w3.org/2000/svg">
  <g transform="matrix(1.0, 0.0, 0.0, 1.0, 0.5, 36.0)">
    <path d="M281.0 -32.65 L279.0 -0.5" fill="none" stroke="#000000" stroke-linecap="round" stroke-linejoin="round" stroke-width="1.0"/>
    <path d="M295.65 -32.7 L296.4 -0.55" fill="none" stroke="#000000" stroke-linecap="round" stroke-linejoin="round" stroke-width="1.0"/>
    <path d="M310.75 -32.05 L311.35 -0.55" fill="none" stroke="#000000" stroke-linecap="round" stroke-linejoin="round" stroke-width="1.0"/>
    <path d="M326.3 -31.25 L327.05 -0.85" fill="none" stroke="#000000" stroke-linecap="round" stroke-linejoin="round" stroke-width="1.0"/>
    <path d="M342.3 -30.95 L342.3 -0.5" fill="none" stroke="#000000" stroke-linecap="round" stroke-linejoin="round" stroke-width="1.0"/>
    <path d="M358.5 -32.65 L356.4 -0.5" fill="none" stroke="#000000" stroke-linecap="round" stroke-linejoin="round" stroke-width="1.0"/>
    <path d="M279.0 -3.5 L356.65 -3.85" fill="none" stroke="#000000" stroke-linecap="round" stroke-linejoin="round" stroke-width="1.0"/>
    <path d="M279.0 -25.5 L357.65 -25.85" fill="none" stroke="#000000" stroke-linecap="round" stroke-linejoin="round" stroke-width="1.0"/>
    <path d="M295.65 -14.5 Q295.6 -11.45 294.55 -8.95 293.5 -6.45 291.7 -5.0 289.9 -3.55 287.65 -3.5 285.4 -3.55 283.6 -5.0 281.8 -6.45 280.75 -8.95 279.7 -11.45 279.65 -14.5 279.7 -17.55 280.75 -20.05 281.8 -22.55 283.6 -24.0 285.4 -25.45 287.65 -25.5 289.9 -25.45 291.7 -24.0 293.5 -22.55 294.55 -20.05 295.6 -17.55 295.65 -14.5 Z" fill="none" stroke="#000000" stroke-linecap="round" stroke-linejoin="round" stroke-width="1.0"/>
    <path d="M311.1 -14.55 Q311.05 -11.5 310.05 -9.05 309.0 -6.55 307.25 -5.1 305.55 -3.65 303.35 -3.6 301.2 -3.65 299.45 -5.1 297.75 -6.55 296.7 -9.05 295.65 -11.5 295.65 -14.55 295.65 -17.6 296.7 -20.1 297.75 -22.55 299.45 -24.0 301.2 -25.45 303.35 -25.5 305.5 -25.45 307.25 -24.0 309.0 -22.55 310.05 -20.1 311.05 -17.6 311.1 -14.55 Z" fill="none" stroke="#000000" stroke-linecap="round" stroke-linejoin="round" stroke-width="1.0"/>
    <path d="M326.75 -14.55 Q326.7 -11.5 325.7 -9.05 324.65 -6.55 322.9 -5.1 321.2 -3.65 319.0 -3.6 316.85 -3.65 315.1 -5.1 313.4 -6.55 312.35 -9.05 311.3 -11.5 311.3 -14.55 311.3 -17.6 312.35 -20.1 313.4 -22.55 315.1 -24.0 316.85 -25.45 319.0 -25.5 321.15 -25.45 322.9 -24.0 324.65 -22.55 325.7 -20.1 326.7 -17.6 326.75 -14.55 Z" fill="none" stroke="#000000" stroke-linecap="round" stroke-linejoin="round" stroke-width="1.0"/>
    <path d="M342.1 -14.55 Q342.05 -11.5 341.05 -9.05 340.0 -6.55 338.25 -5.1 336.55 -3.65 334.35 -3.6 332.2 -3.65 330.45 -5.1 328.75 -6.55 327.7 -9.05 326.65 -11.5 326.65 -14.55 326.65 -17.6 327.7 -20.1 328.75 -22.55 330.45 -24.0 332.2 -25.45 334.35 -25.5 336.5 -25.45 338.25 -24.0 340.0 -22.55 341.05 -20.1 342.05 -17.6 342.1 -14.55 Z" fill="none" stroke="#000000" stroke-linecap="round" stroke-linejoin="round" stroke-width="1.0"/>
    <path d="M357.45 -14.9 Q357.4 -11.85 356.4 -9.4 355.35 -6.9 353.6 -5.45 351.9 -4.0 349.7 -3.95 347.55 -4.0 345.8 -5.45 344.1 -6.9 343.05 -9.4 342.0 -11.85 342.0 -14.9 342.0 -17.95 343.05 -20.45 344.1 -22.9 345.8 -24.35 347.55 -25.8 349.7 -25.85 351.85 -25.8 353.6 -24.35 355.35 -22.9 356.4 -20.45 357.4 -17.95 357.45 -14.9 Z" fill="none" stroke="#000000" stroke-linecap="round" stroke-linejoin="round" stroke-width="1.0"/>
    <path d="M279.3 -30.85 L281.05 -34.85 282.45 -30.85 279.3 -30.85" fill="#000000" fill-rule="evenodd" stroke="none"/>
    <path d="M294.0 -31.0 L295.75 -35.0 297.15 -31.0 294.0 -31.0" fill="#000000" fill-rule="evenodd" stroke="none"/>
    <path d="M309.3 -30.35 L311.05 -34.35 312.45 -30.35 309.3 -30.35" fill="#000000" fill-rule="evenodd" stroke="none"/>
    <path d="M324.65 -29.85 L326.4 -33.85 327.8 -29.85 324.65 -29.85" fill="#000000" fill-rule="evenodd" stroke="none"/>
    <path d="M340.8 -29.5 L342.55 -33.5 343.95 -29.5 340.8 -29.5" fill="#000000" fill-rule="evenodd" stroke="none"/>
    <path d="M356.8 -30.7 L358.55 -34.7 359.95 -30.7 356.8 -30.7" fill="#000000" fill-rule="evenodd" stroke="none"/>
    <path d="M373.65 -33.2 L374.4 -1.05" fill="none" stroke="#000000" stroke-linecap="round" stroke-linejoin="round" stroke-width="1.0"/>
    <path d="M388.75 -32.55 L389.35 -1.05" fill="none" stroke="#000000" stroke-linecap="round" stroke-linejoin="round" stroke-width="1.0"/>
    <path d="M404.3 -31.75 L405.05 -1.35" fill="none" stroke="#000000" stroke-linecap="round" stroke-linejoin="round" stroke-width="1.0"/>
    <path d="M420.3 -31.45 L420.3 -1.0" fill="none" stroke="#000000" stroke-linecap="round" stroke-linejoin="round" stroke-width="1.0"/>
    <path d="M436.5 -33.15 L434.4 -1.0" fill="none" stroke="#000000" stroke-linecap="round" stroke-linejoin="round" stroke-width="1.0"/>
    <path d="M357.0 -4.0 L434.65 -4.35" fill="none" stroke="#000000" stroke-linecap="round" stroke-linejoin="round" stroke-width="1.0"/>
    <path d="M357.0 -26.0 L435.65 -26.35" fill="none" stroke="#000000" stroke-linecap="round" stroke-linejoin="round" stroke-width="1.0"/>
    <path d="M373.65 -15.0 Q373.6 -11.95 372.55 -9.45 371.5 -6.95 369.7 -5.5 367.9 -4.05 365.65 -4.0 363.4 -4.05 361.6 -5.5 359.8 -6.95 358.75 -9.45 357.7 -11.95 357.65 -15.0 357.7 -18.05 358.75 -20.55 359.8 -23.05 361.6 -24.5 363.4 -25.95 365.65 -26.0 367.9 -25.95 369.7 -24.5 371.5 -23.05 372.55 -20.55 373.6 -18.05 373.65 -15.0 Z" fill="none" stroke="#000000" stroke-linecap="round" stroke-linejoin="round" stroke-width="1.0"/>
    <path d="M389.1 -15.05 Q389.05 -12.0 388.05 -9.55 387.0 -7.05 385.25 -5.6 383.55 -4.15 381.35 -4.1 379.2 -4.15 377.45 -5.6 375.75 -7.05 374.7 -9.55 373.65 -12.0 373.65 -15.05 373.65 -18.1 374.7 -20.6 375.75 -23.05 377.45 -24.5 379.2 -25.95 381.35 -26.0 383.5 -25.95 385.25 -24.5 387.0 -23.05 388.05 -20.6 389.05 -18.1 389.1 -15.05 Z" fill="none" stroke="#000000" stroke-linecap="round" stroke-linejoin="round" stroke-width="1.0"/>
    <path d="M404.75 -15.05 Q404.7 -12.0 403.7 -9.55 402.65 -7.05 400.9 -5.6 399.2 -4.15 397.0 -4.1 394.85 -4.15 393.1 -5.6 391.4 -7.05 390.35 -9.55 389.3 -12.0 389.3 -15.05 389.3 -18.1 390.35 -20.6 391.4 -23.05 393.1 -24.5 394.85 -25.95 397.0 -26.0 399.15 -25.95 400.9 -24.5 402.65 -23.05 403.7 -20.6 404.7 -18.1 404.75 -15.05 Z" fill="none" stroke="#000000" stroke-linecap="round" stroke-linejoin="round" stroke-width="1.0"/>
    <path d="M420.1 -15.05 Q420.05 -12.0 419.05 -9.55 418.0 -7.05 416.25 -5.6 414.55 -4.15 412.35 -4.1 410.2 -4.15 408.45 -5.6 406.75 -7.05 405.7 -9.55 404.65 -12.0 404.65 -15.05 404.65 -18.1 405.7 -20.6 406.75 -23.05 408.45 -24.5 410.2 -25.95 412.35 -26.0 414.5 -25.95 416.25 -24.5 418.0 -23.05 419.05 -20.6 420.05 -18.1 420.1 -15.05 Z" fill="none" stroke="#000000" stroke-linecap="round" stroke-linejoin="round" stroke-width="1.0"/>
    <path d="M435.45 -15.4 Q435.4 -12.35 434.4 -9.9 433.35 -7.4 431.6 -5.95 429.9 -4.5 427.7 -4.45 425.55 -4.5 423.8 -5.95 422.1 -7.4 421.05 -9.9 420.0 -12.35 420.0 -15.4 420.0 -18.45 421.05 -20.95 422.1 -23.4 423.8 -24.85 425.55 -26.3 427.7 -26.35 429.85 -26.3 431.6 -24.85 433.35 -23.4 434.4 -20.95 435.4 -18.45 435.45 -15.4 Z" fill="none" stroke="#000000" stroke-linecap="round" stroke-linejoin="round" stroke-width="1.0"/>
    <path d="M387.3 -30.85 L389.05 -34.85 390.45 -30.85 387.3 -30.85" fill="#000000" fill-rule="evenodd" stroke="none"/>
    <path d="M402.65 -30.35 L404.4 -34.35 405.8 -30.35 402.65 -30.35" fill="#000000" fill-rule="evenodd" stroke="none"/>
    <path d="M418.8 -30.0 L420.55 -34.0 421.95 -30.0 418.8 -30.0" fill="#000000" fill-rule="evenodd" stroke="none"/>
    <path d="M434.8 -31.2 L436.55 -35.2 437.95 -31.2 434.8 -31.2" fill="#000000" fill-rule="evenodd" stroke="none"/>
    <path d="M453.15 -33.7 L453.9 -1.55" fill="none" stroke="#000000" stroke-linecap="round" stroke-linejoin="round" stroke-width="1.0"/>
    <path d="M468.25 -33.05 L468.85 -1.55" fill="none" stroke="#000000" stroke-linecap="round" stroke-linejoin="round" stroke-width="1.0"/>
    <path d="M483.8 -32.25 L484.55 -1.85" fill="none" stroke="#000000" stroke-linecap="round" stroke-linejoin="round" stroke-width="1.0"/>
    <path d="M499.8 -31.95 L499.8 -1.5" fill="none" stroke="#000000" stroke-linecap="round" stroke-linejoin="round" stroke-width="1.0"/>
    <path d="M516.0 -33.65 L513.9 -1.5" fill="none" stroke="#000000" stroke-linecap="round" stroke-linejoin="round" stroke-width="1.0"/>
    <path d="M436.5 -4.5 L514.15 -4.85" fill="none" stroke="#000000" stroke-linecap="round" stroke-linejoin="round" stroke-width="1.0"/>
    <path d="M436.5 -26.5 L515.15 -26.85" fill="none" stroke="#000000" stroke-linecap="round" stroke-linejoin="round" stroke-width="1.0"/>
    <path d="M453.15 -15.5 Q453.1 -12.45 452.05 -9.95 451.0 -7.45 449.2 -6.0 447.4 -4.55 445.15 -4.5 442.9 -4.55 441.1 -6.0 439.3 -7.45 438.25 -9.95 437.2 -12.45 437.15 -15.5 437.2 -18.55 438.25 -21.05 439.3 -23.55 441.1 -25.0 442.9 -26.45 445.15 -26.5 447.4 -26.45 449.2 -25.0 451.0 -23.55 452.05 -21.05 453.1 -18.55 453.15 -15.5 Z" fill="none" stroke="#000000" stroke-linecap="round" stroke-linejoin="round" stroke-width="1.0"/>
    <path d="M468.6 -15.55 Q468.55 -12.5 467.55 -10.05 466.5 -7.55 464.75 -6.1 463.05 -4.65 460.85 -4.6 458.7 -4.65 456.95 -6.1 455.25 -7.55 454.2 -10.05 453.15 -12.5 453.15 -15.55 453.15 -18.6 454.2 -21.1 455.25 -23.55 456.95 -25.0 458.7 -26.45 460.85 -26.5 463.0 -26.45 464.75 -25.0 466.5 -23.55 467.55 -21.1 468.55 -18.6 468.6 -15.55 Z" fill="none" stroke="#000000" stroke-linecap="round" stroke-linejoin="round" stroke-width="1.0"/>
    <path d="M484.25 -15.55 Q484.2 -12.5 483.2 -10.05 482.15 -7.55 480.4 -6.1 478.7 -4.65 476.5 -4.6 474.35 -4.65 472.6 -6.1 470.9 -7.55 469.85 -10.05 468.8 -12.5 468.8 -15.55 468.8 -18.6 469.85 -21.1 470.9 -23.55 472.6 -25.0 474.35 -26.45 476.5 -26.5 478.65 -26.45 480.4 -25.0 482.15 -23.55 483.2 -21.1 484.2 -18.6 484.25 -15.55 Z" fill="none" stroke="#000000" stroke-linecap="round" stroke-linejoin="round" stroke-width="1.0"/>
    <path d="M499.6 -15.55 Q499.55 -12.5 498.55 -10.05 497.5 -7.55 495.75 -6.1 494.05 -4.65 491.85 -4.6 489.7 -4.65 487.95 -6.1 486.25 -7.55 485.2 -10.05 484.15 -12.5 484.15 -15.55 484.15 -18.6 485.2 -21.1 486.25 -23.55 487.95 -25.0 489.7 -26.45 491.85 -26.5 494.0 -26.45 495.75 -25.0 497.5 -23.55 498.55 -21.1 499.55 -18.6 499.6 -15.55 Z" fill="none" stroke="#000000" stroke-linecap="round" stroke-linejoin="round" stroke-width="1.0"/>
    <path d="M514.95 -15.9 Q514.9 -12.85 513.9 -10.4 512.85 -7.9 511.1 -6.45 509.4 -5.0 507.2 -4.95 505.05 -5.0 503.3 -6.45 501.6 -7.9 500.55 -10.4 499.5 -12.85 499.5 -15.9 499.5 -18.95 500.55 -21.45 501.6 -23.9 503.3 -25.35 505.05 -26.8 507.2 -26.85 509.35 -26.8 511.1 -25.35 512.85 -23.9 513.9 -21.45 514.9 -18.95 514.95 -15.9 Z" fill="none" stroke="#000000" stroke-linecap="round" stroke-linejoin="round" stroke-width="1.0"/>
    <path d="M451.5 -32.0 L453.25 -36.0 454.65 -32.0 451.5 -32.0" fill="#000000" fill-rule="evenodd" stroke="none"/>
    <path d="M466.8 -31.35 L468.55 -35.35 469.95 -31.35 466.8 -31.35" fill="#000000" fill-rule="evenodd" stroke="none"/>
    <path d="M482.15 -30.85 L483.9 -34.85 485.3 -30.85 482.15 -30.85" fill="#000000" fill-rule="evenodd" stroke="none"/>
    <path d="M498.3 -30.5 L500.05 -34.5 501.45 -30.5 498.3 -30.5" fill="#000000" fill-rule="evenodd" stroke="none"/>
    <path d="M514.3 -31.7 L516.05 -35.7 517.45 -31.7 514.3 -31.7" fill="#000000" fill-rule="evenodd" stroke="none"/>
    <path d="M530.5 -33.7 L531.25 -1.55" fill="none" stroke="#000000" stroke-linecap="round" stroke-linejoin="round" stroke-width="1.0"/>
    <path d="M545.55 -33.05 L546.15 -1.55" fill="none" stroke="#000000" stroke-linecap="round" stroke-linejoin="round" stroke-width="1.0"/>
    <path d="M561.15 -32.25 L561.9 -1.85" fill="none" stroke="#000000" stroke-linecap="round" stroke-linejoin="round" stroke-width="1.0"/>
    <path d="M577.15 -31.95 L577.15 -1.5" fill="none" stroke="#000000" stroke-linecap="round" stroke-linejoin="round" stroke-width="1.0"/>
    <path d="M593.35 -33.65 L591.25 -1.5" fill="none" stroke="#000000" stroke-linecap="round" stroke-linejoin="round" stroke-width="1.0"/>
    <path d="M513.8 -4.5 L591.45 -4.85" fill="none" stroke="#000000" stroke-linecap="round" stroke-linejoin="round" stroke-width="1.0"/>
    <path d="M513.8 -26.5 L592.45 -26.85" fill="none" stroke="#000000" stroke-linecap="round" stroke-linejoin="round" stroke-width="1.0"/>
    <path d="M530.5 -15.5 Q530.45 -12.45 529.4 -9.95 528.35 -7.45 526.55 -6.0 524.75 -4.55 522.5 -4.5 520.25 -4.55 518.45 -6.0 516.65 -7.45 515.6 -9.95 514.55 -12.45 514.5 -15.5 514.55 -18.55 515.6 -21.05 516.65 -23.55 518.45 -25.0 520.25 -26.45 522.5 -26.5 524.75 -26.45 526.55 -25.0 528.35 -23.55 529.4 -21.05 530.45 -18.55 530.5 -15.5 Z" fill="none" stroke="#000000" stroke-linecap="round" stroke-linejoin="round" stroke-width="1.0"/>
    <path d="M545.95 -15.55 Q545.9 -12.5 544.9 -10.05 543.85 -7.55 542.1 -6.1 540.4 -4.65 538.2 -4.6 536.05 -4.65 534.3 -6.1 532.6 -7.55 531.55 -10.05 530.5 -12.5 530.5 -15.55 530.5 -18.6 531.55 -21.1 532.6 -23.55 534.3 -25.0 536.05 -26.45 538.2 -26.5 540.35 -26.45 542.1 -25.0 543.85 -23.55 544.9 -21.1 545.9 -18.6 545.95 -15.55 Z" fill="none" stroke="#000000" stroke-linecap="round" stroke-linejoin="round" stroke-width="1.0"/>
    <path d="M592.25 -15.9 Q592.2 -12.85 591.2 -10.4 590.15 -7.9 588.4 -6.45 586.7 -5.0 584.5 -4.95 582.35 -5.0 580.6 -6.45 578.9 -7.9 577.85 -10.4 576.8 -12.85 576.8 -15.9 576.8 -18.95 577.85 -21.45 578.9 -23.9 580.6 -25.35 582.35 -26.8 584.5 -26.85 586.65 -26.8 588.4 -25.35 590.15 -23.9 591.2 -21.45 592.2 -18.95 592.25 -15.9 Z" fill="none" stroke="#000000" stroke-linecap="round" stroke-linejoin="round" stroke-width="1.0"/>
    <path d="M528.8 -32.0 L530.55 -36.0 531.95 -32.0 528.8 -32.0" fill="#000000" fill-rule="evenodd" stroke="none"/>
    <path d="M544.15 -31.35 L545.9 -35.35 547.3 -31.35 544.15 -31.35" fill="#000000" fill-rule="evenodd" stroke="none"/>
    <path d="M577.05 -15.9 Q577.0 -12.85 576.0 -10.4 574.95 -7.9 573.2 -6.45 571.5 -5.0 569.3 -4.95 567.15 -5.0 565.4 -6.45 563.7 -7.9 562.65 -10.4 561.6 -12.85 561.6 -15.9 561.6 -18.95 562.65 -21.45 563.7 -23.9 565.4 -25.35 567.15 -26.8 569.3 -26.85 571.45 -26.8 573.2 -25.35 574.95 -23.9 576.0 -21.45 577.0 -18.95 577.05 -15.9 Z" fill="none" stroke="#000000" stroke-linecap="round" stroke-linejoin="round" stroke-width="1.0"/>
    <path d="M561.45 -15.9 Q561.4 -12.85 560.4 -10.4 559.35 -7.9 557.6 -6.45 555.9 -5.0 553.7 -4.95 551.55 -5.0 549.8 -6.45 548.1 -7.9 547.05 -10.4 546.0 -12.85 546.0 -15.9 546.0 -18.95 547.05 -21.45 548.1 -23.9 549.8 -25.35 551.55 -26.8 553.7 -26.85 555.85 -26.8 557.6 -25.35 559.35 -23.9 560.4 -21.45 561.4 -18.95 561.45 -15.9 Z" fill="none" stroke="#000000" stroke-linecap="round" stroke-linejoin="round" stroke-width="1.0"/>
    <path d="M372.0 -31.5 L373.75 -35.5 375.15 -31.5 372.0 -31.5" fill="#000000" fill-rule="evenodd" stroke="none"/>
    <path d="M143.0 -30.65 L141.0 1.5" fill="none" stroke="#000000" stroke-linecap="round" stroke-linejoin="round" stroke-width="1.0"/>
    <path d="M157.65 -30.7 L158.4 1.45" fill="none" stroke="#000000" stroke-linecap="round" stroke-linejoin="round" stroke-width="1.0"/>
    <path d="M172.75 -30.05 L173.35 1.45" fill="none" stroke="#000000" stroke-linecap="round" stroke-linejoin="round" stroke-width="1.0"/>
    <path d="M188.3 -29.25 L189.05 1.15" fill="none" stroke="#000000" stroke-linecap="round" stroke-linejoin="round" stroke-width="1.0"/>
    <path d="M204.3 -28.95 L204.3 1.5" fill="none" stroke="#000000" stroke-linecap="round" stroke-linejoin="round" stroke-width="1.0"/>
    <path d="M220.5 -30.65 L218.4 1.5" fill="none" stroke="#000000" stroke-linecap="round" stroke-linejoin="round" stroke-width="1.0"/>
    <path d="M141.0 -1.5 L218.65 -1.85" fill="none" stroke="#000000" stroke-linecap="round" stroke-linejoin="round" stroke-width="1.0"/>
    <path d="M141.0 -23.5 L219.65 -23.85" fill="none" stroke="#000000" stroke-linecap="round" stroke-linejoin="round" stroke-width="1.0"/>
    <path d="M157.65 -12.5 Q157.6 -9.45 156.55 -6.95 155.5 -4.45 153.7 -3.0 151.9 -1.55 149.65 -1.5 147.4 -1.55 145.6 -3.0 143.8 -4.45 142.75 -6.95 141.7 -9.45 141.65 -12.5 141.7 -15.55 142.75 -18.05 143.8 -20.55 145.6 -22.0 147.4 -23.45 149.65 -23.5 151.9 -23.45 153.7 -22.0 155.5 -20.55 156.55 -18.05 157.6 -15.55 157.65 -12.5 Z" fill="none" stroke="#000000" stroke-linecap="round" stroke-linejoin="round" stroke-width="1.0"/>
    <path d="M173.1 -12.55 Q173.05 -9.5 172.05 -7.05 171.0 -4.55 169.25 -3.1 167.55 -1.65 165.35 -1.6 163.2 -1.65 161.45 -3.1 159.75 -4.55 158.7 -7.05 157.65 -9.5 157.65 -12.55 157.65 -15.6 158.7 -18.1 159.75 -20.55 161.45 -22.0 163.2 -23.45 165.35 -23.5 167.5 -23.45 169.25 -22.0 171.0 -20.55 172.05 -18.1 173.05 -15.6 173.1 -12.55 Z" fill="none" stroke="#000000" stroke-linecap="round" stroke-linejoin="round" stroke-width="1.0"/>
    <path d="M188.75 -12.55 Q188.7 -9.5 187.7 -7.05 186.65 -4.55 184.9 -3.1 183.2 -1.65 181.0 -1.6 178.85 -1.65 177.1 -3.1 175.4 -4.55 174.35 -7.05 173.3 -9.5 173.3 -12.55 173.3 -15.6 174.35 -18.1 175.4 -20.55 177.1 -22.0 178.85 -23.45 181.0 -23.5 183.15 -23.45 184.9 -22.0 186.65 -20.55 187.7 -18.1 188.7 -15.6 188.75 -12.55 Z" fill="none" stroke="#000000" stroke-linecap="round" stroke-linejoin="round" stroke-width="1.0"/>
    <path d="M204.1 -12.55 Q204.05 -9.5 203.05 -7.05 202.0 -4.55 200.25 -3.1 198.55 -1.65 196.35 -1.6 194.2 -1.65 192.45 -3.1 190.75 -4.55 189.7 -7.05 188.65 -9.5 188.65 -12.55 188.65 -15.6 189.7 -18.1 190.75 -20.55 192.45 -22.0 194.2 -23.45 196.35 -23.5 198.5 -23.45 200.25 -22.0 202.0 -20.55 203.05 -18.1 204.05 -15.6 204.1 -12.55 Z" fill="none" stroke="#000000" stroke-linecap="round" stroke-linejoin="round" stroke-width="1.0"/>
    <path d="M219.45 -12.9 Q219.4 -9.85 218.4 -7.4 217.35 -4.9 215.6 -3.45 213.9 -2.0 211.7 -1.95 209.55 -2.0 207.8 -3.45 206.1 -4.9 205.05 -7.4 204.0 -9.85 204.0 -12.9 204.0 -15.95 205.05 -18.45 206.1 -20.9 207.8 -22.35 209.55 -23.8 211.7 -23.85 213.85 -23.8 215.6 -22.35 217.35 -20.9 218.4 -18.45 219.4 -15.95 219.45 -12.9 Z" fill="none" stroke="#000000" stroke-linecap="round" stroke-linejoin="round" stroke-width="1.0"/>
    <path d="M141.3 -28.85 L143.05 -32.85 144.45 -28.85 141.3 -28.85" fill="#000000" fill-rule="evenodd" stroke="none"/>
    <path d="M156.0 -29.0 L157.75 -33.0 159.15 -29.0 156.0 -29.0" fill="#000000" fill-rule="evenodd" stroke="none"/>
    <path d="M171.3 -28.35 L173.05 -32.35 174.45 -28.35 171.3 -28.35" fill="#000000" fill-rule="evenodd" stroke="none"/>
    <path d="M186.65 -27.85 L188.4 -31.85 189.8 -27.85 186.65 -27.85" fill="#000000" fill-rule="evenodd" stroke="none"/>
    <path d="M202.8 -27.5 L204.55 -31.5 205.95 -27.5 202.8 -27.5" fill="#000000" fill-rule="evenodd" stroke="none"/>
    <path d="M218.8 -28.7 L220.55 -32.7 221.95 -28.7 218.8 -28.7" fill="#000000" fill-rule="evenodd" stroke="none"/>
    <path d="M31.75 -31.05 L32.35 0.45" fill="none" stroke="#000000" stroke-linecap="round" stroke-linejoin="round" stroke-width="1.0"/>
    <path d="M47.3 -30.25 L48.05 0.15" fill="none" stroke="#000000" stroke-linecap="round" stroke-linejoin="round" stroke-width="1.0"/>
    <path d="M63.3 -29.95 L63.3 0.5" fill="none" stroke="#000000" stroke-linecap="round" stroke-linejoin="round" stroke-width="1.0"/>
    <path d="M79.5 -31.65 L77.4 0.5" fill="none" stroke="#000000" stroke-linecap="round" stroke-linejoin="round" stroke-width="1.0"/>
    <path d="M0.0 -2.5 L77.65 -2.85" fill="none" stroke="#000000" stroke-linecap="round" stroke-linejoin="round" stroke-width="1.0"/>
    <path d="M0.0 -24.5 L78.65 -24.85" fill="none" stroke="#000000" stroke-linecap="round" stroke-linejoin="round" stroke-width="1.0"/>
    <path d="M32.1 -13.55 Q32.05 -10.5 31.05 -8.05 30.0 -5.55 28.25 -4.1 26.55 -2.65 24.35 -2.6 22.2 -2.65 20.45 -4.1 18.75 -5.55 17.7 -8.05 16.65 -10.5 16.65 -13.55 16.65 -16.6 17.7 -19.1 18.75 -21.55 20.45 -23.0 22.2 -24.45 24.35 -24.5 26.5 -24.45 28.25 -23.0 30.0 -21.55 31.05 -19.1 32.05 -16.6 32.1 -13.55 Z" fill="none" stroke="#000000" stroke-linecap="round" stroke-linejoin="round" stroke-width="1.0"/>
    <path d="M47.75 -13.55 Q47.7 -10.5 46.7 -8.05 45.65 -5.55 43.9 -4.1 42.2 -2.65 40.0 -2.6 37.85 -2.65 36.1 -4.1 34.4 -5.55 33.35 -8.05 32.3 -10.5 32.3 -13.55 32.3 -16.6 33.35 -19.1 34.4 -21.55 36.1 -23.0 37.85 -24.45 40.0 -24.5 42.15 -24.45 43.9 -23.0 45.65 -21.55 46.7 -19.1 47.7 -16.6 47.75 -13.55 Z" fill="none" stroke="#000000" stroke-linecap="round" stroke-linejoin="round" stroke-width="1.0"/>
    <path d="M63.1 -13.55 Q63.05 -10.5 62.05 -8.05 61.0 -5.55 59.25 -4.1 57.55 -2.65 55.35 -2.6 53.2 -2.65 51.45 -4.1 49.75 -5.55 48.7 -8.05 47.65 -10.5 47.65 -13.55 47.65 -16.6 48.7 -19.1 49.75 -21.55 51.45 -23.0 53.2 -24.45 55.35 -24.5 57.5 -24.45 59.25 -23.0 61.0 -21.55 62.05 -19.1 63.05 -16.6 63.1 -13.55 Z" fill="none" stroke="#000000" stroke-linecap="round" stroke-linejoin="round" stroke-width="1.0"/>
    <path d="M78.45 -13.9 Q78.4 -10.85 77.4 -8.4 76.35 -5.9 74.6 -4.45 72.9 -3.0 70.7 -2.95 68.55 -3.0 66.8 -4.45 65.1 -5.9 64.05 -8.4 63.0 -10.85 63.0 -13.9 63.0 -16.95 64.05 -19.45 65.1 -21.9 66.8 -23.35 68.55 -24.8 70.7 -24.85 72.85 -24.8 74.6 -23.35 76.35 -21.9 77.4 -19.45 78.4 -16.95 78.45 -13.9 Z" fill="none" stroke="#000000" stroke-linecap="round" stroke-linejoin="round" stroke-width="1.0"/>
    <path d="M30.3 -29.35 L32.05 -33.35 33.45 -29.35 30.3 -29.35" fill="#000000" fill-rule="evenodd" stroke="none"/>
    <path d="M45.65 -28.85 L47.4 -32.85 48.8 -28.85 45.65 -28.85" fill="#000000" fill-rule="evenodd" stroke="none"/>
    <path d="M61.8 -28.5 L63.55 -32.5 64.95 -28.5 61.8 -28.5" fill="#000000" fill-rule="evenodd" stroke="none"/>
    <path d="M77.8 -29.7 L79.55 -33.7 80.95 -29.7 77.8 -29.7" fill="#000000" fill-rule="evenodd" stroke="none"/>
  </g>
</svg>
