<?xml version="1.0" encoding="UTF-8" standalone="no"?>
<svg xmlns:xlink="http://www.w3.org/1999/xlink" height="147.2px" width="158.05px" xmlns="http://www.w3.org/2000/svg">
  <g transform="matrix(1.0, 0.0, 0.0, 1.0, 69.2, 118.75)">
    <path d="M15.65 -45.65 L17.7 25.0 -60.2 6.1 -67.4 -58.3 15.65 -45.65" fill="#d8d8d8" fill-rule="evenodd" stroke="none"/>
    <path d="M15.0 -50.25 L51.55 -96.3 85.95 -62.1 84.8 17.1 18.85 25.0 15.0 -50.25" fill="#ffffff" fill-rule="evenodd" stroke="none"/>
    <path d="M18.05 -52.95 L23.3 26.9 17.35 28.45 12.85 -52.75 18.05 -52.95" fill="#9c5712" fill-rule="evenodd" stroke="none"/>
    <path d="M8.45 -52.95 L12.85 -52.75 17.35 28.45 13.45 26.9 8.45 -52.95" fill="#73420a" fill-rule="evenodd" stroke="none"/>
    <path d="M88.25 -62.05 L88.85 18.05 83.7 19.15 83.0 -64.1 88.25 -62.05" fill="#9c5712" fill-rule="evenodd" stroke="none"/>
    <path d="M81.7 -61.85 L83.85 -62.1 83.65 19.1 81.45 18.15 81.7 -61.85" fill="#73420a" fill-rule="evenodd" stroke="none"/>
    <path d="M75.5 -59.7 L76.1 20.4 70.95 21.5 70.25 -61.75 75.5 -59.7" fill="#9c5712" fill-rule="evenodd" stroke="none"/>
    <path d="M69.0 -59.55 L71.15 -59.8 70.95 21.4 68.75 20.45 69.0 -59.55" fill="#73420a" fill-rule="evenodd" stroke="none"/>
    <path d="M38.6 -55.15 L42.9 24.85 37.75 26.15 33.3 -56.95 38.6 -55.15" fill="#9c5712" fill-rule="evenodd" stroke="none"/>
    <path d="M32.1 -54.7 L34.25 -55.0 37.75 26.15 35.5 25.3 32.1 -54.7" fill="#73420a" fill-rule="evenodd" stroke="none"/>
    <path d="M86.1 -61.75 L86.7 -52.0 16.6 -44.3 16.35 -53.35 86.1 -61.75" fill="#9c5712" fill-rule="evenodd" stroke="none"/>
    <path d="M88.65 -61.45 L12.3 -52.3 14.05 -54.1 86.5 -62.95 88.65 -61.45" fill="#73420a" fill-rule="evenodd" stroke="none"/>
    <path d="M87.35 -62.0 L80.2 -60.85 50.7 -95.55 50.95 -102.65 87.35 -62.0" fill="#73420a" fill-rule="evenodd" stroke="none"/>
    <path d="M87.95 -62.15 L82.25 -61.7 51.05 -97.55 49.8 -103.1 87.95 -62.15" fill="#9c5712" fill-rule="evenodd" stroke="none"/>
    <path d="M12.5 -51.4 L12.15 -44.1 -68.55 -54.95 -69.05 -63.5 12.5 -51.4" fill="#73420a" fill-rule="evenodd" stroke="none"/>
    <path d="M12.25 -52.4 L50.7 -103.0 53.3 -94.8 21.45 -50.7 12.25 -52.4" fill="#9c5712" fill-rule="evenodd" stroke="none"/>
    <path d="M9.05 -91.05 L9.05 -118.75 21.85 -117.7 21.7 -103.35 15.8 -103.0 9.05 -91.05" fill="#ffffff" fill-rule="evenodd" stroke="none"/>
    <path d="M9.05 -91.05 L-2.55 -91.9 -0.65 -117.9 9.05 -118.75 9.05 -91.05" fill="#d8d8d8" fill-rule="evenodd" stroke="none"/>
    <path d="M36.2 -74.75 L38.45 -55.2 33.25 -54.65 32.4 -69.2 36.2 -74.75" fill="#9c5712" fill-rule="evenodd" stroke="none"/>
    <path d="M33.45 -55.05 L30.95 -54.9 30.7 -63.55 32.6 -66.15 33.45 -55.05" fill="#73420a" fill-rule="evenodd" stroke="none"/>
    <path d="M73.95 -71.8 L75.35 -59.35 71.0 -59.0 70.15 -75.8 73.95 -71.8" fill="#9c5712" fill-rule="evenodd" stroke="none"/>
    <path d="M71.35 -59.4 L68.75 -59.25 68.45 -75.8 70.5 -72.85 71.35 -59.4" fill="#73420a" fill-rule="evenodd" stroke="none"/>
    <path d="M37.25 -57.45 L61.5 -86.35 65.3 -81.85 41.6 -55.35 37.4 -54.5 37.25 -57.45" fill="#9c5712" fill-rule="evenodd" stroke="none"/>
    <path d="M71.2 -63.15 L72.1 -59.0 68.6 -58.45 41.6 -80.95 45.4 -85.65 71.2 -63.15" fill="#9c5712" fill-rule="evenodd" stroke="none"/>
    <path d="M61.15 -85.8 L54.45 -77.7 52.85 -79.2 58.95 -86.35 61.15 -85.8" fill="#73420a" fill-rule="evenodd" stroke="none"/>
    <path d="M54.65 -70.05 L67.9 -59.05 65.25 -58.7 53.2 -68.25 54.65 -70.05" fill="#73420a" fill-rule="evenodd" stroke="none"/>
    <path d="M50.65 -73.45 L37.95 -58.3 37.6 -61.15 47.75 -72.7 41.65 -78.85 42.6 -80.05 50.65 -73.45" fill="#73420a" fill-rule="evenodd" stroke="none"/>
    <path d="M-69.2 -58.9 L-64.25 -58.35 -61.35 7.9 -65.0 6.7 -69.2 -58.9" fill="#73420a" fill-rule="evenodd" stroke="none"/>
    <path d="M-64.1 -54.3 L-62.0 -54.15 -58.3 6.65 -61.5 7.85 -64.1 -54.3" fill="#52330c" fill-rule="evenodd" stroke="none"/>
    <path d="M-47.0 -53.3 L-42.05 -52.75 -39.15 13.5 -42.8 12.3 -47.0 -53.3" fill="#73420a" fill-rule="evenodd" stroke="none"/>
    <path d="M-42.4 -51.35 L-40.3 -51.2 -36.05 12.3 -39.25 13.45 -42.4 -51.35" fill="#52330c" fill-rule="evenodd" stroke="none"/>
    <path d="M-19.15 -48.4 L-14.2 -47.85 -11.5 20.25 -14.95 19.4 -19.15 -48.4" fill="#73420a" fill-rule="evenodd" stroke="none"/>
    <path d="M-14.25 -47.8 L-12.35 -47.45 -8.45 18.95 -11.6 20.25 -14.25 -47.8" fill="#52330c" fill-rule="evenodd" stroke="none"/>
    <path d="M-14.25 -47.8 L13.35 15.65 13.7 27.45 -14.35 -40.8 -14.25 -47.8" fill="#73420a" fill-rule="evenodd" stroke="none"/>
    <path d="M6.45 -45.0 L9.05 -45.15 9.4 -40.65 -11.75 20.3 -12.25 12.35 6.45 -45.0" fill="#73420a" fill-rule="evenodd" stroke="none"/>
    <path d="M-11.5 20.05 L-1.5 -9.7 0.45 -5.15 -8.45 18.95 -11.5 20.05" fill="#52330c" fill-rule="evenodd" stroke="none"/>
    <path d="M12.1 5.75 L12.75 14.3 0.3 -14.4 9.25 -40.25 9.65 -34.0 3.8 -14.65 12.1 5.75" fill="#52330c" fill-rule="evenodd" stroke="none"/>
    <path d="M-14.25 -47.8 L-10.5 -47.1 -0.5 -23.85 -1.9 -19.05 -14.25 -47.8" fill="#52330c" fill-rule="evenodd" stroke="none"/>
    <path d="M-64.3 -54.65 L-42.95 2.25 -42.7 12.5 -64.3 -48.05 -64.3 -54.65" fill="#73420a" fill-rule="evenodd" stroke="none"/>
    <path d="M-48.2 -52.05 L-46.25 -52.2 -45.95 -48.05 -61.8 7.75 -62.25 0.65 -48.2 -52.05" fill="#73420a" fill-rule="evenodd" stroke="none"/>
    <path d="M-61.6 7.5 L-54.1 -19.7 -52.65 -15.65 -59.25 6.35 -61.6 7.5" fill="#52330c" fill-rule="evenodd" stroke="none"/>
    <path d="M-52.75 -24.0 L-46.0 -47.7 -45.7 -42.0 -50.1 -24.3 -43.85 -6.4 -43.35 1.1 -52.75 -24.0" fill="#52330c" fill-rule="evenodd" stroke="none"/>
    <path d="M-64.25 -54.65 L-61.25 -54.0 -53.4 -32.55 -54.45 -28.15 -64.25 -54.65" fill="#52330c" fill-rule="evenodd" stroke="none"/>
    <path d="M-42.15 -38.2 L-16.95 -35.85 -17.2 -30.95 -41.9 -33.8 -42.15 -38.2" fill="#73420a" fill-rule="evenodd" stroke="none"/>
    <path d="M-40.55 -9.65 L-15.4 -6.7 -15.8 -1.75 -40.4 -5.25 -40.55 -9.65" fill="#73420a" fill-rule="evenodd" stroke="none"/>
    <path d="M-40.25 -9.7 L-37.75 -10.4 -16.4 -8.2 -16.45 -6.35 -40.25 -9.7" fill="#52330c" fill-rule="evenodd" stroke="none"/>
    <path d="M-41.6 -38.2 L-39.15 -39.1 -18.2 -37.15 -18.2 -35.6 -41.6 -38.2" fill="#52330c" fill-rule="evenodd" stroke="none"/>
    <path d="M-38.95 -33.25 L-17.65 -30.9 -16.45 -8.15 -37.5 -10.4 -38.95 -33.25" fill="#bae8f2" fill-rule="evenodd" stroke="none"/>
    <path d="M39.0 -46.7 L68.95 -49.9 68.75 19.0 42.65 21.95 39.0 -46.7" fill="#000000" fill-rule="evenodd" stroke="none"/>
    <path d="M40.7 -44.75 L50.75 -46.65 51.45 24.25 41.45 25.9 40.7 -44.75" fill="#52330c" fill-rule="evenodd" stroke="none"/>
    <path d="M47.7 -44.55 L47.8 -41.45 48.05 -33.4 48.3 -22.3 48.5 -10.05 48.5 1.35 48.25 10.1 Q48.0 13.55 47.6 14.2 46.75 15.25 46.25 13.45 45.7 11.7 45.4 7.95 45.1 4.25 44.95 -0.55 L44.75 -10.2 44.6 -19.2 44.45 -25.7 Q44.3 -28.15 44.0 -28.0 43.55 -27.6 43.35 -24.8 L43.05 -17.6 43.05 -7.95 43.15 2.5 43.25 12.25 43.25 19.7 43.05 23.35 42.7 17.85 42.45 8.4 42.35 -3.4 42.45 -15.85 Q42.55 -22.0 42.8 -27.2 43.05 -32.45 43.45 -35.9 43.85 -39.35 44.5 -40.2 44.85 -40.5 45.05 -38.35 L45.4 -32.5 45.65 -24.15 45.8 -15.0 46.0 -6.65 46.35 -0.65 Q46.55 1.5 46.9 1.3 47.35 0.85 47.5 -1.7 L47.7 -8.25 47.65 -16.9 47.5 -26.25 47.35 -34.95 47.35 -41.5 Q47.4 -44.1 47.7 -44.55" fill="#73420a" fill-rule="evenodd" stroke="none"/>
    <path d="M69.4 -49.3 L69.2 19.65 59.8 20.5 55.45 -46.35 69.4 -49.3" fill="#52330c" fill-rule="evenodd" stroke="none"/>
    <path d="M67.65 -44.9 Q67.95 -44.8 68.05 -41.6 L68.2 -33.0 68.15 -21.35 68.0 -8.6 67.75 3.1 67.6 11.65 67.5 14.95 67.4 12.15 67.15 5.0 66.75 -4.8 66.25 -15.5 65.75 -25.3 65.2 -32.4 Q64.9 -35.1 64.65 -35.1 64.3 -34.95 64.15 -32.05 63.95 -29.2 63.9 -24.55 L63.85 -14.3 63.9 -3.15 63.85 7.1 63.75 14.65 Q63.6 17.45 63.35 17.6 63.1 17.6 62.85 15.0 L62.35 7.95 61.85 -2.05 61.4 -13.55 61.05 -25.05 60.85 -35.05 60.85 -42.15 Q60.9 -44.75 61.1 -44.75 L61.25 -42.05 61.45 -35.5 61.75 -26.7 62.05 -17.15 62.35 -8.4 62.65 -2.05 62.85 0.35 Q63.1 0.15 63.15 -2.35 L63.2 -8.8 63.15 -17.55 63.1 -27.05 Q63.05 -31.8 63.15 -35.75 63.25 -39.7 63.5 -42.15 63.75 -44.55 64.25 -44.65 64.65 -44.6 65.05 -41.65 L65.85 -33.9 66.55 -23.5 67.1 -12.45 67.45 -15.05 67.65 -21.4 67.7 -29.5 67.7 -37.45 67.65 -43.2 67.65 -44.9" fill="#73420a" fill-rule="evenodd" stroke="none"/>
    <path d="M50.1 -45.7 L59.75 -46.6 60.0 20.95 51.1 23.9 50.1 -45.7" fill="#52330c" fill-rule="evenodd" stroke="none"/>
    <path d="M54.3 -39.4 Q54.5 -42.15 54.9 -42.25 L55.35 -39.4 55.6 -32.1 55.75 -22.1 55.9 -11.2 56.0 -1.25 56.2 6.05 Q56.35 8.75 56.55 8.8 L56.9 5.85 57.1 -1.65 57.15 -11.8 57.2 -22.9 57.15 -33.05 57.1 -40.45 57.1 -43.25 57.2 -39.9 57.5 -31.0 57.75 -18.8 57.85 -5.45 57.65 6.85 57.0 15.95 Q56.55 19.45 55.75 19.7 55.6 19.65 55.5 17.1 L55.4 10.4 55.35 1.4 55.35 -7.95 55.3 -15.85 55.2 -20.45 54.85 -4.35 Q54.6 1.15 54.25 2.4 53.9 3.6 53.5 1.55 53.1 -0.5 52.75 -4.9 52.4 -9.25 52.2 -15.05 L52.1 -25.15 52.2 -34.85 52.4 -42.15 52.5 -44.95 52.5 -42.75 52.5 -36.9 52.55 -28.9 52.65 -20.2 52.8 -12.25 53.05 -6.4 Q53.2 -4.15 53.4 -4.1 53.65 -4.15 53.75 -6.9 L53.9 -13.9 53.95 -23.1 54.05 -32.3 Q54.1 -36.6 54.3 -39.4" fill="#73420a" fill-rule="evenodd" stroke="none"/>
  </g>
</svg>
