<?xml version="1.0" encoding="UTF-8" standalone="no"?>
<svg xmlns:xlink="http://www.w3.org/1999/xlink" height="73.8px" width="600.3px" xmlns="http://www.w3.org/2000/svg">
  <g transform="matrix(1.0, 0.0, 0.0, 1.0, 300.15, 36.9)">
    <path d="M-63.85 -19.35 L-129.3 -22.3 -128.85 -26.3 -62.9 -22.95 -63.85 -19.35" fill="#d8d8d8" fill-rule="evenodd" stroke="none"/>
    <path d="M-63.3 -5.5 L-124.85 -6.35 -124.55 -10.35 -62.45 -9.15 -63.3 -5.5" fill="#d8d8d8" fill-rule="evenodd" stroke="none"/>
    <path d="M-127.8 -3.55 L-130.4 -28.6 -127.75 -32.9 -125.45 -28.25 -123.8 -3.5 -127.8 -3.55" fill="#ffffff" fill-rule="evenodd" stroke="none"/>
    <path d="M-113.75 -3.6 L-114.6 -28.8 -111.65 -32.9 -109.7 -28.1 -109.75 -3.3 -113.75 -3.6" fill="#ffffff" fill-rule="evenodd" stroke="none"/>
    <path d="M-80.55 -1.55 L-79.95 -26.75 -76.8 -30.65 -75.15 -25.75 -76.6 -1.0 -80.55 -1.55" fill="#ffffff" fill-rule="evenodd" stroke="none"/>
    <path d="M-96.25 -3.15 L-97.6 -28.3 -94.7 -32.45 -92.7 -27.7 -92.25 -2.9 -96.25 -3.15" fill="#ffffff" fill-rule="evenodd" stroke="none"/>
    <path d="M41.0 -29.85 L122.45 -28.65 121.35 -25.0 40.55 -25.85 41.0 -29.85" fill="#d8d8d8" fill-rule="evenodd" stroke="none"/>
    <path d="M122.35 -11.2 L46.45 -10.05 46.75 -14.05 123.3 -14.85 122.35 -11.2" fill="#d8d8d8" fill-rule="evenodd" stroke="none"/>
    <path d="M42.6 -7.15 L39.3 -32.15 41.85 -36.5 44.25 -31.9 46.6 -7.25 42.6 -7.15" fill="#ffffff" fill-rule="evenodd" stroke="none"/>
    <path d="M56.55 -7.55 L55.05 -32.75 57.9 -36.9 59.95 -32.15 60.55 -7.35 56.55 -7.55" fill="#ffffff" fill-rule="evenodd" stroke="none"/>
    <path d="M89.85 -6.4 L89.75 -31.6 92.85 -35.6 94.6 -30.75 93.8 -5.95 89.85 -6.4" fill="#ffffff" fill-rule="evenodd" stroke="none"/>
    <path d="M104.45 -6.1 L104.35 -31.3 107.45 -35.3 109.2 -30.45 108.4 -5.65 104.45 -6.1" fill="#ffffff" fill-rule="evenodd" stroke="none"/>
    <path d="M74.1 -7.55 L72.05 -32.7 74.8 -36.9 76.95 -32.2 78.1 -7.45 74.1 -7.55" fill="#ffffff" fill-rule="evenodd" stroke="none"/>
    <path d="M120.4 -28.6 L201.85 -27.4 200.75 -23.75 119.95 -24.6 120.4 -28.6" fill="#d8d8d8" fill-rule="evenodd" stroke="none"/>
    <path d="M201.75 -9.95 L125.85 -8.8 126.15 -12.8 202.7 -13.6 201.75 -9.95" fill="#d8d8d8" fill-rule="evenodd" stroke="none"/>
    <path d="M121.95 -5.9 L118.65 -30.9 121.2 -35.25 123.6 -30.65 125.95 -6.0 121.95 -5.9" fill="#ffffff" fill-rule="evenodd" stroke="none"/>
    <path d="M135.95 -6.35 L134.45 -31.55 137.3 -35.7 139.35 -30.95 139.95 -6.15 135.95 -6.35" fill="#ffffff" fill-rule="evenodd" stroke="none"/>
    <path d="M169.25 -5.15 L169.15 -30.35 172.25 -34.35 174.0 -29.5 173.2 -4.7 169.25 -5.15" fill="#ffffff" fill-rule="evenodd" stroke="none"/>
    <path d="M183.85 -4.85 L183.75 -30.05 186.85 -34.05 188.6 -29.2 187.8 -4.4 183.85 -4.85" fill="#ffffff" fill-rule="evenodd" stroke="none"/>
    <path d="M153.5 -6.35 L151.45 -31.5 154.2 -35.7 156.35 -31.0 157.5 -6.25 153.5 -6.35" fill="#ffffff" fill-rule="evenodd" stroke="none"/>
    <path d="M198.7 -27.3 L280.15 -26.1 279.05 -22.45 198.25 -23.3 198.7 -27.3" fill="#d8d8d8" fill-rule="evenodd" stroke="none"/>
    <path d="M280.1 -8.65 L204.2 -7.5 204.5 -11.5 281.05 -12.3 280.1 -8.65" fill="#d8d8d8" fill-rule="evenodd" stroke="none"/>
    <path d="M200.3 -4.6 L197.0 -29.6 199.55 -33.95 201.95 -29.35 204.3 -4.7 200.3 -4.6" fill="#ffffff" fill-rule="evenodd" stroke="none"/>
    <path d="M214.25 -5.0 L212.75 -30.2 215.6 -34.35 217.65 -29.6 218.25 -4.8 214.25 -5.0" fill="#ffffff" fill-rule="evenodd" stroke="none"/>
    <path d="M247.55 -3.85 L247.45 -29.05 250.55 -33.05 252.3 -28.2 251.5 -3.4 247.55 -3.85" fill="#ffffff" fill-rule="evenodd" stroke="none"/>
    <path d="M262.2 -3.55 L262.1 -28.75 265.2 -32.75 266.95 -27.9 266.15 -3.1 262.2 -3.55" fill="#ffffff" fill-rule="evenodd" stroke="none"/>
    <path d="M231.85 -5.0 L229.8 -30.15 232.55 -34.35 234.7 -29.65 235.85 -4.9 231.85 -5.0" fill="#ffffff" fill-rule="evenodd" stroke="none"/>
    <path d="M278.85 -25.8 L299.9 -24.6 299.65 -20.95 278.75 -21.8 278.85 -25.8" fill="#d8d8d8" fill-rule="evenodd" stroke="none"/>
    <path d="M280.35 -10.0 L300.15 -10.8 299.95 -7.15 280.3 -6.0 280.35 -10.0" fill="#d8d8d8" fill-rule="evenodd" stroke="none"/>
    <path d="M280.8 -3.1 L277.5 -28.1 280.05 -32.45 282.45 -27.85 284.8 -3.2 280.8 -3.1" fill="#ffffff" fill-rule="evenodd" stroke="none"/>
    <path d="M294.75 -3.5 L293.25 -28.7 296.1 -32.85 298.15 -28.1 298.75 -3.3 294.75 -3.5" fill="#ffffff" fill-rule="evenodd" stroke="none"/>
    <path d="M-249.05 -4.6 L-293.85 29.55 -292.2 23.8 -250.35 -8.3 -249.05 -4.6" fill="#d8d8d8" fill-rule="evenodd" stroke="none"/>
    <path d="M-252.7 -17.55 L-297.4 14.15 -298.8 9.3 -253.6 -21.95 -252.7 -17.55" fill="#d8d8d8" fill-rule="evenodd" stroke="none"/>
    <path d="M-257.85 6.55 L-262.65 9.4 -266.0 -24.55 -263.6 -29.7 -260.65 -27.2 -257.85 6.55" fill="#ffffff" fill-rule="evenodd" stroke="none"/>
    <path d="M-269.85 15.55 L-274.35 19.05 -278.0 -15.55 -275.6 -20.7 -272.65 -18.2 -269.85 15.55" fill="#ffffff" fill-rule="evenodd" stroke="none"/>
    <path d="M-281.35 26.05 L-285.85 29.55 -289.5 -5.05 -287.1 -10.2 -284.15 -7.7 -281.35 26.05" fill="#ffffff" fill-rule="evenodd" stroke="none"/>
    <path d="M-292.0 33.4 L-296.5 36.9 -300.15 2.3 -297.75 -2.85 -294.8 -0.35 -292.0 33.4" fill="#ffffff" fill-rule="evenodd" stroke="none"/>
    <path d="M-186.6 -4.8 L-248.15 -5.65 -247.85 -9.65 -185.75 -8.45 -186.6 -4.8" fill="#d8d8d8" fill-rule="evenodd" stroke="none"/>
    <path d="M-251.15 -2.9 L-253.75 -27.95 -251.1 -32.25 -248.8 -27.6 -247.15 -2.85 -251.15 -2.9" fill="#ffffff" fill-rule="evenodd" stroke="none"/>
    <path d="M-237.1 -2.95 L-237.95 -28.15 -235.0 -32.25 -233.05 -27.45 -233.1 -2.65 -237.1 -2.95" fill="#ffffff" fill-rule="evenodd" stroke="none"/>
    <path d="M-203.85 -0.9 L-203.25 -26.1 -200.1 -30.0 -198.45 -25.1 -199.9 -0.35 -203.85 -0.9" fill="#ffffff" fill-rule="evenodd" stroke="none"/>
    <path d="M-189.25 -0.25 L-188.65 -25.45 -185.5 -29.35 -183.85 -24.45 -185.3 0.3 -189.25 -0.25" fill="#ffffff" fill-rule="evenodd" stroke="none"/>
    <path d="M-219.6 -2.5 L-220.95 -27.65 -218.05 -31.8 -216.05 -27.05 -215.6 -2.25 -219.6 -2.5" fill="#ffffff" fill-rule="evenodd" stroke="none"/>
    <path d="M-65.15 -0.25 L-64.55 -25.45 -61.4 -29.35 -59.75 -24.45 -61.2 0.3 -65.15 -0.25" fill="#ffffff" fill-rule="evenodd" stroke="none"/>
  </g>
</svg>
