<?xml version="1.0" encoding="UTF-8" standalone="no"?>
<svg xmlns:xlink="http://www.w3.org/1999/xlink" height="33.9px" width="213.2px" xmlns="http://www.w3.org/2000/svg">
  <g transform="matrix(1.0, 0.0, 0.0, 1.0, 106.6, 27.95)">
    <path d="M103.3 -13.05 L37.85 -16.0 38.3 -20.0 104.25 -16.65 103.3 -13.05" fill="#d8d8d8" fill-rule="evenodd" stroke="none"/>
    <path d="M103.85 0.8 L42.3 -0.05 42.6 -4.05 104.7 -2.85 103.85 0.8" fill="#d8d8d8" fill-rule="evenodd" stroke="none"/>
    <path d="M39.35 2.75 L36.75 -22.3 39.4 -26.6 41.7 -21.95 43.35 2.8 39.35 2.75" fill="#ffffff" fill-rule="evenodd" stroke="none"/>
    <path d="M53.4 2.7 L52.55 -22.5 55.5 -26.6 57.45 -21.8 57.4 3.0 53.4 2.7" fill="#ffffff" fill-rule="evenodd" stroke="none"/>
    <path d="M86.6 4.75 L87.2 -20.45 90.35 -24.35 92.0 -19.45 90.55 5.3 86.6 4.75" fill="#ffffff" fill-rule="evenodd" stroke="none"/>
    <path d="M101.2 5.4 L101.8 -19.8 104.95 -23.7 106.6 -18.8 105.15 5.95 101.2 5.4" fill="#ffffff" fill-rule="evenodd" stroke="none"/>
    <path d="M70.9 3.15 L69.55 -22.0 72.45 -26.15 74.45 -21.4 74.9 3.4 70.9 3.15" fill="#ffffff" fill-rule="evenodd" stroke="none"/>
    <path d="M-40.0 -14.35 L-105.45 -17.3 -105.0 -21.3 -39.05 -17.95 -40.0 -14.35" fill="#d8d8d8" fill-rule="evenodd" stroke="none"/>
    <path d="M-39.45 -0.5 L-101.0 -1.35 -100.7 -5.35 -38.6 -4.15 -39.45 -0.5" fill="#d8d8d8" fill-rule="evenodd" stroke="none"/>
    <path d="M-104.0 1.4 L-106.6 -23.65 -103.95 -27.95 -101.65 -23.3 -100.0 1.45 -104.0 1.4" fill="#ffffff" fill-rule="evenodd" stroke="none"/>
    <path d="M-89.95 1.35 L-90.8 -23.85 -87.85 -27.95 -85.9 -23.15 -85.95 1.65 -89.95 1.35" fill="#ffffff" fill-rule="evenodd" stroke="none"/>
    <path d="M-56.7 3.4 L-56.1 -21.8 -52.95 -25.7 -51.3 -20.8 -52.75 3.95 -56.7 3.4" fill="#ffffff" fill-rule="evenodd" stroke="none"/>
    <path d="M-42.1 4.05 L-41.5 -21.15 -38.35 -25.05 -36.7 -20.15 -38.15 4.6 -42.1 4.05" fill="#ffffff" fill-rule="evenodd" stroke="none"/>
    <path d="M-72.45 1.8 L-73.8 -23.35 -70.9 -27.5 -68.9 -22.75 -68.45 2.05 -72.45 1.8" fill="#ffffff" fill-rule="evenodd" stroke="none"/>
  </g>
</svg>
