<?xml version="1.0" encoding="UTF-8" standalone="no"?>
<svg xmlns:xlink="http://www.w3.org/1999/xlink" height="95.65px" width="120.85px" xmlns="http://www.w3.org/2000/svg">
  <g transform="matrix(1.0, 0.0, 0.0, 1.0, 56.9, 83.05)">
    <path d="M50.45 -22.55 L47.75 4.3 -39.15 2.05 -41.4 -24.5 50.45 -22.55" fill="#ffffff" fill-rule="evenodd" stroke="none"/>
    <path d="M-40.65 -27.25 L-44.55 -63.85 -40.35 -64.3 -37.35 -28.3 -40.65 -27.25" fill="#73420a" fill-rule="evenodd" stroke="none"/>
    <path d="M47.6 -22.45 L44.0 -23.65 46.4 -63.85 50.9 -63.25 47.6 -22.45" fill="#73420a" fill-rule="evenodd" stroke="none"/>
    <path d="M52.9 -23.0 L-46.15 -25.05 Q-40.6 -27.95 -35.1 -30.9 L41.2 -28.65 52.9 -23.0" fill="#9c5712" fill-rule="evenodd" stroke="none"/>
    <path d="M52.45 -19.4 L-46.15 -21.65 -46.15 -25.05 52.25 -23.0 52.45 -19.4" fill="#73420a" fill-rule="evenodd" stroke="none"/>
    <path d="M53.25 -82.45 L63.75 -62.35 -56.9 -62.05 -46.4 -83.05 53.25 -82.45" fill="#246ec2" fill-rule="evenodd" stroke="none"/>
    <path d="M50.75 -62.35 L53.6 -62.35 50.15 -24.4 47.75 -25.45 50.75 -62.35" fill="#9c5712" fill-rule="evenodd" stroke="none"/>
    <path d="M-44.4 -62.2 L-40.5 -28.2 -42.55 -26.85 -46.6 -62.2 -44.4 -62.2" fill="#52330c" fill-rule="evenodd" stroke="none"/>
    <path d="M-38.25 -83.05 L-30.3 -83.05 -34.95 -62.5 -44.55 -62.8 -38.25 -83.05" fill="#ffffff" fill-rule="evenodd" stroke="none"/>
    <path d="M-21.3 -82.9 L-13.35 -82.9 -14.55 -62.35 -24.75 -62.65 -21.3 -82.9" fill="#ffffff" fill-rule="evenodd" stroke="none"/>
    <path d="M-3.75 -83.05 L4.2 -83.05 4.35 -62.5 -5.1 -62.5 -3.75 -83.05" fill="#ffffff" fill-rule="evenodd" stroke="none"/>
    <path d="M13.65 -82.9 L21.6 -82.9 22.95 -62.35 13.8 -62.65 13.65 -82.9" fill="#ffffff" fill-rule="evenodd" stroke="none"/>
    <path d="M31.5 -82.6 L39.45 -82.6 42.6 -62.35 33.2 -62.55 31.5 -82.6" fill="#ffffff" fill-rule="evenodd" stroke="none"/>
    <path d="M47.75 -82.45 L53.6 -82.45 63.95 -62.4 53.05 -62.3 47.75 -82.45" fill="#ffffff" fill-rule="evenodd" stroke="none"/>
    <path d="M-44.55 -61.9 L-34.95 -61.6 -34.95 -60.45 -35.1 -57.15 Q-36.95 -55.3 -38.55 -55.0 L-41.35 -55.3 Q-42.55 -55.85 -43.2 -56.5 L-43.85 -57.25 -44.55 -61.9" fill="#3b3b3b" fill-rule="evenodd" stroke="none"/>
    <path d="M-56.85 -61.3 L-44.7 -61.75 -44.35 -60.6 Q-44.0 -59.45 -44.15 -57.25 -46.6 -55.35 -48.65 -55.05 L-52.25 -55.2 Q-53.8 -55.7 -54.65 -56.3 L-55.5 -57.0 -56.85 -61.3" fill="#3b3b3b" fill-rule="evenodd" stroke="none"/>
    <path d="M-35.25 -61.65 L-25.1 -61.65 -24.65 -60.45 Q-24.25 -59.25 -24.35 -57.05 -26.8 -55.15 -28.75 -54.85 L-32.1 -55.15 Q-33.5 -55.7 -34.25 -56.4 L-35.0 -57.15 -35.25 -61.65" fill="#3b3b3b" fill-rule="evenodd" stroke="none"/>
    <path d="M-14.55 -61.6 L-5.15 -61.25 -4.75 -60.05 Q-4.4 -58.85 -4.55 -56.65 -6.9 -54.85 -8.75 -54.65 -10.65 -54.45 -11.95 -55.15 -13.25 -55.8 -13.95 -56.55 L-14.65 -57.35 -14.55 -61.6" fill="#3b3b3b" fill-rule="evenodd" stroke="none"/>
    <path d="M4.15 -61.7 L13.55 -61.35 13.95 -60.15 Q14.3 -58.95 14.15 -56.75 11.8 -54.95 9.95 -54.75 8.05 -54.55 6.75 -55.25 L4.75 -56.65 4.05 -57.45 4.15 -61.7" fill="#3b3b3b" fill-rule="evenodd" stroke="none"/>
    <path d="M23.2 -61.6 L33.1 -61.55 33.25 -60.2 33.2 -56.65 Q30.85 -54.85 29.0 -54.65 27.1 -54.45 25.8 -55.15 24.5 -55.8 23.8 -56.55 L23.1 -57.35 23.2 -61.6" fill="#3b3b3b" fill-rule="evenodd" stroke="none"/>
    <path d="M42.55 -61.6 L53.35 -61.45 53.65 -60.35 Q53.9 -59.25 53.7 -57.05 51.35 -55.25 49.3 -55.0 L45.75 -55.35 Q44.2 -55.95 43.35 -56.6 L42.45 -57.35 42.55 -61.6" fill="#3b3b3b" fill-rule="evenodd" stroke="none"/>
    <path d="M-24.85 -61.8 L-14.5 -61.5 -14.5 -60.35 -14.65 -57.05 Q-16.7 -55.2 -18.4 -54.9 L-21.4 -55.2 Q-22.65 -55.75 -23.4 -56.4 L-24.1 -57.15 -24.85 -61.8" fill="#3b3b3b" fill-rule="evenodd" stroke="none"/>
    <path d="M-5.05 -61.8 L4.4 -61.65 4.05 -57.25 Q2.05 -55.4 0.5 -55.1 L-2.1 -55.3 Q-3.2 -55.8 -3.75 -56.45 L-4.3 -57.15 -5.05 -61.8" fill="#3b3b3b" fill-rule="evenodd" stroke="none"/>
    <path d="M13.75 -61.75 L23.1 -61.5 22.75 -56.55 Q20.65 -54.5 19.05 -54.25 17.5 -53.95 16.4 -54.6 15.3 -55.25 14.75 -56.05 L14.2 -56.9 13.75 -61.75" fill="#3b3b3b" fill-rule="evenodd" stroke="none"/>
    <path d="M33.2 -61.75 L42.55 -61.5 42.2 -56.55 Q40.1 -54.5 38.5 -54.25 36.95 -53.95 35.85 -54.6 34.75 -55.25 34.2 -56.05 L33.65 -56.9 33.2 -61.75" fill="#3b3b3b" fill-rule="evenodd" stroke="none"/>
    <path d="M53.15 -61.5 L63.75 -62.35 Q63.6 -59.75 63.0 -58.25 L62.05 -56.25 Q60.4 -54.55 59.0 -54.35 57.6 -54.15 56.55 -54.75 L54.95 -56.05 54.4 -56.8 53.15 -61.5" fill="#3b3b3b" fill-rule="evenodd" stroke="none"/>
    <path d="M-44.55 -62.8 L-34.95 -62.5 -34.95 -61.35 -35.1 -58.05 Q-36.95 -56.2 -38.55 -55.9 L-41.35 -56.2 Q-42.55 -56.75 -43.2 -57.4 L-43.85 -58.15 -44.55 -62.8" fill="#d8d8d8" fill-rule="evenodd" stroke="none"/>
    <path d="M-56.85 -62.2 L-44.7 -62.65 -44.35 -61.5 Q-44.0 -60.35 -44.15 -58.15 -46.6 -56.25 -48.65 -55.95 L-52.25 -56.1 Q-53.8 -56.6 -54.65 -57.2 L-55.5 -57.9 -56.85 -62.2" fill="#244fc4" fill-rule="evenodd" stroke="none"/>
    <path d="M-35.25 -62.55 L-25.1 -62.55 -24.65 -61.35 Q-24.25 -60.15 -24.35 -57.95 -26.8 -56.05 -28.75 -55.75 L-32.1 -56.05 Q-33.5 -56.6 -34.25 -57.3 L-35.0 -58.05 -35.25 -62.55" fill="#244fc4" fill-rule="evenodd" stroke="none"/>
    <path d="M-14.55 -62.5 L-5.15 -62.15 -4.75 -60.95 Q-4.4 -59.75 -4.55 -57.55 -6.9 -55.75 -8.75 -55.55 -10.65 -55.35 -11.95 -56.05 -13.25 -56.7 -13.95 -57.45 L-14.65 -58.25 -14.55 -62.5" fill="#244fc4" fill-rule="evenodd" stroke="none"/>
    <path d="M4.15 -62.6 L13.55 -62.25 13.95 -61.05 Q14.3 -59.85 14.15 -57.65 11.8 -55.85 9.95 -55.65 8.05 -55.45 6.75 -56.15 L4.75 -57.55 4.05 -58.35 4.15 -62.6" fill="#244fc4" fill-rule="evenodd" stroke="none"/>
    <path d="M23.2 -62.5 L33.1 -62.45 33.25 -61.1 33.2 -57.55 Q30.85 -55.75 29.0 -55.55 27.1 -55.35 25.8 -56.05 24.5 -56.7 23.8 -57.45 L23.1 -58.25 23.2 -62.5" fill="#244fc4" fill-rule="evenodd" stroke="none"/>
    <path d="M42.55 -62.5 L53.35 -62.35 53.65 -61.25 Q53.9 -60.15 53.7 -57.95 51.35 -56.15 49.3 -55.9 L45.75 -56.25 Q44.2 -56.85 43.35 -57.5 L42.45 -58.25 42.55 -62.5" fill="#244fc4" fill-rule="evenodd" stroke="none"/>
    <path d="M-24.85 -62.7 L-14.5 -62.4 -14.5 -61.25 -14.65 -57.95 Q-16.7 -56.1 -18.4 -55.8 L-21.4 -56.1 Q-22.65 -56.65 -23.4 -57.3 L-24.1 -58.05 -24.85 -62.7" fill="#d8d8d8" fill-rule="evenodd" stroke="none"/>
    <path d="M-5.05 -62.7 L4.4 -62.55 4.05 -58.15 Q2.05 -56.3 0.5 -56.0 L-2.1 -56.2 Q-3.2 -56.7 -3.75 -57.35 L-4.3 -58.05 -5.05 -62.7" fill="#d8d8d8" fill-rule="evenodd" stroke="none"/>
    <path d="M13.75 -62.65 L23.1 -62.4 22.75 -57.45 Q20.65 -55.4 19.05 -55.15 17.5 -54.85 16.4 -55.5 15.3 -56.15 14.75 -56.95 L14.2 -57.8 13.75 -62.65" fill="#d8d8d8" fill-rule="evenodd" stroke="none"/>
    <path d="M33.2 -62.65 L42.55 -62.4 42.2 -57.45 Q40.1 -55.4 38.5 -55.15 36.95 -54.85 35.85 -55.5 34.75 -56.15 34.2 -56.95 L33.65 -57.8 33.2 -62.65" fill="#d8d8d8" fill-rule="evenodd" stroke="none"/>
    <path d="M63.75 -62.25 L63.35 -61.0 62.4 -58.35 Q61.8 -56.9 61.05 -56.1 59.35 -54.9 58.1 -54.9 56.85 -54.95 56.0 -55.6 L54.8 -56.95 54.4 -57.65 53.15 -62.4 63.75 -62.25" fill="#d8d8d8" fill-rule="evenodd" stroke="none"/>
    <path d="M16.95 -2.7 L17.65 2.5 20.5 -1.85 20.45 5.7 Q19.2 6.65 18.5 6.45 17.8 6.25 17.45 5.4 L16.95 3.7 16.65 2.35 Q16.85 3.6 16.3 4.65 15.7 5.7 14.75 6.1 13.85 6.45 12.95 5.65 12.05 4.85 11.6 2.35 11.35 4.75 10.7 5.7 10.0 6.65 9.15 6.75 L7.75 6.6 7.15 6.3 6.7 -0.2 9.3 1.95 9.25 -2.4 11.4 0.75 13.75 -4.7 14.55 1.65 16.95 -2.7" fill="#6d9726" fill-rule="evenodd" stroke="none"/>
    <path d="M17.95 6.9 Q17.05 6.75 16.65 5.65 16.35 6.7 15.1 7.15 L12.7 7.4 Q11.5 7.1 11.15 5.85 10.85 6.5 9.8 6.85 8.75 7.2 7.8 6.85 6.8 6.5 6.7 5.05 L7.5 0.0 9.7 4.7 10.0 -0.55 12.8 3.1 13.25 -3.15 15.25 2.2 18.15 -2.6 18.65 3.1 21.75 0.3 21.75 1.55 21.6 4.0 Q21.45 5.3 21.1 5.8 L19.75 6.65 17.95 6.9" fill="#87d12e" fill-rule="evenodd" stroke="none"/>
    <path d="M31.5 -9.55 L31.5 -7.7 31.5 -3.2 31.45 2.15 31.45 6.65 31.45 8.6 Q31.4 9.2 29.85 9.75 L25.6 10.55 19.65 10.85 13.85 10.55 9.65 9.8 Q8.05 9.3 7.85 8.7 L7.7 -9.85 31.5 -9.55" fill="#73420a" fill-rule="evenodd" stroke="none"/>
    <path d="M31.55 -9.95 Q31.5 -9.3 29.95 -8.8 L25.65 -8.0 19.7 -7.7 13.7 -8.0 9.4 -8.8 Q7.85 -9.3 7.8 -9.95 7.85 -10.6 9.4 -11.1 L13.7 -11.9 19.7 -12.2 25.7 -11.9 29.95 -11.1 Q31.5 -10.6 31.55 -9.95" fill="#9c5712" fill-rule="evenodd" stroke="none"/>
    <path d="M28.35 3.15 L34.65 0.8 35.1 1.2 35.65 2.3 Q35.8 2.95 35.0 3.75 L32.75 5.4 30.35 6.85 29.25 7.45 28.35 3.15" fill="#73420a" fill-rule="evenodd" stroke="none"/>
    <path d="M10.0 -2.1 L9.45 0.6 8.75 0.25 7.2 -0.7 5.8 -1.75 Q5.25 -2.25 5.35 -2.65 L5.7 -3.35 6.0 -3.6 10.0 -2.1" fill="#73420a" fill-rule="evenodd" stroke="none"/>
    <path d="M10.45 9.55 Q10.6 10.55 10.0 11.3 9.4 12.0 8.65 11.75 7.85 11.5 7.5 9.55 7.3 11.4 6.65 11.85 L5.45 12.1 4.85 11.85 4.6 8.05 6.1 9.35 6.1 6.75 7.35 8.6 8.75 5.4 9.2 9.15 10.65 6.6 11.05 9.65 12.75 7.05 12.7 11.55 Q11.75 12.25 11.3 11.85 L10.7 10.7 10.45 9.55" fill="#6d9726" fill-rule="evenodd" stroke="none"/>
    <path d="M10.5 11.5 Q10.3 12.1 9.55 12.4 L8.15 12.5 Q7.4 12.35 7.25 11.6 L6.45 12.2 Q5.8 12.4 5.25 12.2 4.65 12.0 4.6 11.15 L5.05 8.15 6.35 10.95 6.55 7.85 8.2 10.0 8.45 6.3 9.65 9.45 11.35 6.65 11.65 10.0 13.45 8.35 13.45 9.05 13.35 10.5 13.1 11.55 Q12.65 12.0 11.75 12.2 10.85 12.4 10.5 11.5" fill="#87d12e" fill-rule="evenodd" stroke="none"/>
    <path d="M-22.75 -2.05 L-22.05 3.15 -19.2 -1.2 -19.25 6.35 Q-20.5 7.3 -21.2 7.1 -21.9 6.9 -22.25 6.05 L-22.75 4.35 -23.05 3.0 Q-22.85 4.25 -23.4 5.3 -24.0 6.35 -24.95 6.75 -25.85 7.1 -26.75 6.3 -27.65 5.5 -28.1 3.0 -28.35 5.4 -29.0 6.35 -29.7 7.3 -30.55 7.4 L-31.95 7.25 -32.55 6.95 -33.0 0.45 -30.4 2.6 -30.45 -1.75 -28.3 1.4 -25.95 -4.05 -25.15 2.3 -22.75 -2.05" fill="#6d9726" fill-rule="evenodd" stroke="none"/>
    <path d="M-21.75 7.55 Q-22.65 7.4 -23.05 6.3 -23.35 7.35 -24.6 7.8 L-27.0 8.05 Q-28.2 7.75 -28.55 6.5 -28.85 7.15 -29.9 7.5 -30.95 7.85 -31.9 7.5 -32.9 7.15 -33.0 5.7 L-32.2 0.65 -30.0 5.35 -29.7 0.1 -26.9 3.75 -26.45 -2.5 -24.45 2.85 -21.55 -1.95 -21.05 3.75 -17.95 0.95 -17.95 2.2 -18.1 4.65 Q-18.25 5.95 -18.6 6.45 L-19.95 7.3 -21.75 7.55" fill="#87d12e" fill-rule="evenodd" stroke="none"/>
    <path d="M-35.4 -1.2 L-34.7 4.0 -31.85 -0.35 -31.9 7.2 Q-33.15 8.15 -33.85 7.95 -34.55 7.75 -34.9 6.9 L-35.4 5.2 -35.7 3.85 Q-35.5 5.1 -36.05 6.15 -36.65 7.2 -37.6 7.6 -38.5 7.95 -39.4 7.15 -40.3 6.35 -40.75 3.85 -41.0 6.25 -41.65 7.2 -42.35 8.15 -43.2 8.25 L-44.6 8.1 -45.2 7.8 -45.65 1.3 -43.05 3.45 -43.1 -0.9 -40.95 2.25 -38.6 -3.2 -37.8 3.15 -35.4 -1.2" fill="#6d9726" fill-rule="evenodd" stroke="none"/>
    <path d="M-34.4 8.4 Q-35.3 8.25 -35.7 7.15 -36.0 8.2 -37.25 8.65 L-39.65 8.9 Q-40.85 8.6 -41.2 7.35 -41.5 8.0 -42.55 8.35 -43.6 8.7 -44.55 8.35 -45.55 8.0 -45.65 6.55 L-44.85 1.5 -42.65 6.2 -42.35 0.95 -39.55 4.6 -39.1 -1.65 -37.1 3.7 -34.2 -1.1 -33.7 4.6 -30.6 1.8 -30.6 3.05 -30.75 5.5 Q-30.9 6.8 -31.25 7.3 -31.7 7.75 -32.6 8.15 L-34.4 8.4" fill="#87d12e" fill-rule="evenodd" stroke="none"/>
    <path d="M-10.3 -10.05 L-10.3 -8.2 -10.3 -3.7 -10.35 1.65 -10.35 6.15 -10.35 8.1 Q-10.4 8.7 -11.95 9.25 L-16.2 10.05 -22.15 10.35 -27.95 10.05 -32.15 9.3 Q-33.75 8.8 -33.95 8.2 L-34.1 -10.35 -10.3 -10.05" fill="#73420a" fill-rule="evenodd" stroke="none"/>
    <path d="M-10.3 -10.45 Q-10.35 -9.8 -11.9 -9.3 L-16.2 -8.5 -22.15 -8.2 -28.15 -8.5 -32.45 -9.3 Q-34.0 -9.8 -34.05 -10.45 -34.0 -11.1 -32.45 -11.6 L-28.15 -12.4 -22.15 -12.7 -16.15 -12.4 -11.9 -11.6 Q-10.35 -11.1 -10.3 -10.45" fill="#9c5712" fill-rule="evenodd" stroke="none"/>
    <path d="M-7.4 -4.0 L-9.5 -2.2 -11.8 -0.6 -12.85 0.1 -14.05 -4.1 -12.75 -4.85 -10.05 -6.2 -7.95 -6.9 Q-6.95 -6.85 -6.6 -6.05 -6.25 -5.25 -7.4 -4.0" fill="#73420a" fill-rule="evenodd" stroke="none"/>
    <path d="M-32.15 -0.45 L-32.7 2.25 -33.4 1.9 -34.95 0.95 -36.35 -0.1 Q-36.9 -0.6 -36.8 -1.0 L-36.45 -1.7 -36.15 -1.95 -32.15 -0.45" fill="#73420a" fill-rule="evenodd" stroke="none"/>
  </g>
</svg>
