<?xml version="1.0" encoding="UTF-8" standalone="no"?>
<svg xmlns:xlink="http://www.w3.org/1999/xlink" height="10.55px" width="9.6px" xmlns="http://www.w3.org/2000/svg">
  <g transform="matrix(1.0, 0.0, 0.0, 1.0, 0.35, 0.35)">
    <path d="M2.85 9.15 L2.0 9.8 0.85 9.65 0.1 8.8 Q-0.1 8.25 0.15 7.7 0.45 7.2 1.0 7.05 L2.15 7.2 2.9 8.1 2.85 9.15" fill="#e0b38c" fill-rule="evenodd" stroke="none"/>
    <path d="M2.85 9.15 L2.0 9.8 0.85 9.65 0.1 8.8 Q-0.1 8.25 0.15 7.7 0.45 7.2 1.0 7.05 L2.15 7.2 2.9 8.1 2.85 9.15 Z" fill="none" stroke="#000000" stroke-linecap="round" stroke-linejoin="round" stroke-width="0.75"/>
    <path d="M6.85 3.05 Q6.15 3.35 5.65 4.3 L4.3 6.9 3.3 8.2 1.85 8.1 Q1.15 7.65 0.8 6.9 0.65 6.4 1.2 5.2 1.75 4.0 2.6 2.65 3.2 1.75 4.15 1.0 5.05 0.25 5.55 0.15 L7.75 0.25 Q8.55 0.7 8.9 1.65 8.75 2.35 8.15 2.55 L6.85 3.05" fill="#f3e016" fill-rule="evenodd" stroke="none"/>
    <path d="M6.85 3.05 L8.15 2.55 Q8.75 2.35 8.9 1.65 8.55 0.7 7.75 0.25 L5.55 0.15 Q5.05 0.25 4.15 1.0 3.2 1.75 2.6 2.65 1.75 4.0 1.2 5.2 0.65 6.4 0.8 6.9 1.15 7.65 1.85 8.1 L3.3 8.2 4.3 6.9 5.65 4.3 Q6.15 3.35 6.85 3.05 Z" fill="none" stroke="#000000" stroke-linecap="round" stroke-linejoin="round" stroke-width="0.75"/>
  </g>
</svg>
