<?xml version="1.0" encoding="UTF-8" standalone="no"?>
<svg xmlns:xlink="http://www.w3.org/1999/xlink" height="10.55px" width="9.6px" xmlns="http://www.w3.org/2000/svg">
  <g transform="matrix(1.0, 0.0, 0.0, 1.0, 0.35, 0.35)">
    <path d="M0.9 7.1 L0.8 6.9 Q0.65 6.4 1.2 5.2 1.75 4.0 2.6 2.65 3.2 1.75 4.15 1.0 5.05 0.25 5.55 0.15 L7.75 0.25 Q8.55 0.7 8.9 1.65 8.75 2.35 8.15 2.55 L6.85 3.05 Q6.15 3.35 5.65 4.3 L4.3 6.9 3.3 8.2 2.95 8.35 1.85 8.1 0.9 7.1" fill="#f15cac" fill-rule="evenodd" stroke="none"/>
    <path d="M0.9 7.1 L1.85 8.1 2.95 8.35 2.85 9.15 2.0 9.8 0.85 9.65 0.1 8.8 Q-0.1 8.25 0.15 7.7 0.4 7.25 0.9 7.1" fill="#e0b38c" fill-rule="evenodd" stroke="none"/>
    <path d="M2.95 8.35 L3.3 8.2 4.3 6.9 5.65 4.3 Q6.15 3.35 6.85 3.05 L8.15 2.55 Q8.75 2.35 8.9 1.65 8.55 0.7 7.75 0.25 L5.55 0.15 Q5.05 0.25 4.15 1.0 3.2 1.75 2.6 2.65 1.75 4.0 1.2 5.2 0.65 6.4 0.8 6.9 L0.9 7.1 1.85 8.1 2.95 8.35 2.85 9.15 2.0 9.8 0.85 9.65 0.1 8.8 Q-0.1 8.25 0.15 7.7 0.4 7.25 0.9 7.1" fill="none" stroke="#000000" stroke-linecap="round" stroke-linejoin="round" stroke-width="0.75"/>
  </g>
</svg>
