<?xml version="1.0" encoding="UTF-8" standalone="no"?>
<svg xmlns:xlink="http://www.w3.org/1999/xlink" height="15.2px" width="15.45px" xmlns="http://www.w3.org/2000/svg">
  <g transform="matrix(1.0, 0.0, 0.0, 1.0, 7.7, 7.6)">
    <path d="M-4.55 2.6 L-3.75 -1.9 Q-1.55 1.35 0.85 3.35 3.25 5.3 5.0 6.2 L6.8 7.1 5.65 7.0 2.0 5.85 Q-0.5 4.9 -4.55 2.6" fill="#7c4806" fill-rule="evenodd" stroke="none"/>
    <path d="M-4.55 2.6 Q-0.5 4.9 2.0 5.85 L5.65 7.0 6.8 7.1 5.0 6.2 Q3.25 5.3 0.85 3.35 -1.55 1.35 -3.75 -1.9" fill="none" stroke="#000000" stroke-linecap="round" stroke-linejoin="round" stroke-width="1.0"/>
    <path d="M2.3 -6.55 L3.25 -5.05 5.2 -1.4 Q6.3 0.8 6.9 3.05 7.5 5.35 7.0 7.1 4.4 6.3 1.85 4.1 -0.65 1.9 -2.7 -0.7 L-5.95 -5.15 -7.2 -7.1 2.3 -6.55" fill="#ff0000" fill-rule="evenodd" stroke="none"/>
    <path d="M2.3 -6.55 L-7.2 -7.1 -5.95 -5.15 -2.7 -0.7 Q-0.65 1.9 1.85 4.1 4.4 6.3 7.0 7.1 7.5 5.35 6.9 3.05 6.3 0.8 5.2 -1.4 L3.25 -5.05 2.3 -6.55 Z" fill="none" stroke="#000000" stroke-linecap="round" stroke-linejoin="round" stroke-width="1.0"/>
  </g>
</svg>
