<?xml version="1.0" encoding="UTF-8" standalone="no"?>
<svg xmlns:xlink="http://www.w3.org/1999/xlink" height="10.7px" width="9.4px" xmlns="http://www.w3.org/2000/svg">
  <g transform="matrix(1.0, 0.0, 0.0, 1.0, 0.0, 0.35)">
    <path d="M5.45 8.5 L4.7 8.45 1.1 5.95 3.8 0.0 8.6 2.8 9.05 3.45 8.85 4.35 6.15 7.95 5.45 8.5" fill="#f15cac" fill-rule="evenodd" stroke="none"/>
    <path d="M5.45 8.5 L4.7 8.45 1.1 5.95 3.8 0.0 8.6 2.8 9.05 3.45 8.85 4.35 6.15 7.95 5.45 8.5 Z" fill="none" stroke="#000000" stroke-linecap="round" stroke-linejoin="round" stroke-width="0.75"/>
    <path d="M0.25 5.7 Q0.8 4.75 1.65 4.75 2.55 4.75 4.3 5.8 6.1 6.85 6.9 7.85 7.7 8.8 7.15 9.75 6.6 10.65 5.55 10.25 L2.7 8.7 Q0.9 7.7 0.3 7.15 -0.3 6.6 0.25 5.7" fill="#000000" fill-rule="evenodd" stroke="none"/>
  </g>
</svg>
