<?xml version="1.0" encoding="UTF-8" standalone="no"?>
<svg xmlns:xlink="http://www.w3.org/1999/xlink" height="11.5px" width="9.6px" xmlns="http://www.w3.org/2000/svg">
  <g transform="matrix(1.0, 0.0, 0.0, 1.0, 4.8, 5.75)">
    <path d="M4.25 -3.85 L4.45 3.2 4.05 4.1 Q3.7 4.45 3.2 4.45 L-3.25 5.4 -4.1 5.05 Q-4.45 4.7 -4.45 4.15 L-4.45 -4.2 -3.15 -5.25 -2.05 -5.35 -1.2 -5.2 -0.35 -5.1 1.5 -4.8 3.4 -4.35 Q4.2 -4.1 4.25 -3.85" fill="#f3e016" fill-rule="evenodd" stroke="none"/>
    <path d="M4.25 -3.85 L4.45 3.2 4.05 4.1 Q3.7 4.45 3.2 4.45 L-3.25 5.4 -4.1 5.05 Q-4.45 4.7 -4.45 4.15 L-4.45 -4.2 -3.15 -5.25 -2.05 -5.35 -1.2 -5.2 -0.35 -5.1 1.5 -4.8 3.4 -4.35 Q4.2 -4.1 4.25 -3.85 Z" fill="none" stroke="#000000" stroke-linecap="round" stroke-linejoin="round" stroke-width="0.75"/>
  </g>
</svg>
