<?xml version="1.0" encoding="UTF-8" standalone="no"?>
<svg xmlns:xlink="http://www.w3.org/1999/xlink" height="11.5px" width="9.6px" xmlns="http://www.w3.org/2000/svg">
  <g transform="matrix(1.0, 0.0, 0.0, 1.0, -1.15, 0.35)">
    <path d="M10.4 8.6 L10.0 9.5 Q9.65 9.85 9.15 9.85 L2.7 10.8 Q2.2 10.8 1.85 10.45 1.5 10.1 1.5 9.55 L1.5 1.2 2.8 0.15 3.9 0.05 4.75 0.2 5.6 0.3 7.45 0.6 9.35 1.05 10.2 1.55 10.4 8.6" fill="#4c8335" fill-rule="evenodd" stroke="none"/>
    <path d="M10.4 8.6 L10.0 9.5 Q9.65 9.85 9.15 9.85 L2.7 10.8 Q2.2 10.8 1.85 10.45 1.5 10.1 1.5 9.55 L1.5 1.2 2.8 0.15 3.9 0.05 4.75 0.2 5.6 0.3 7.45 0.6 9.35 1.05 10.2 1.55 10.4 8.6 Z" fill="none" stroke="#000000" stroke-linecap="round" stroke-linejoin="round" stroke-width="0.75"/>
  </g>
</svg>
