<?xml version="1.0" encoding="UTF-8" standalone="no"?>
<svg xmlns:xlink="http://www.w3.org/1999/xlink" height="12.85px" width="17.2px" xmlns="http://www.w3.org/2000/svg">
  <g transform="matrix(1.0, 0.0, 0.0, 1.0, 3.55, 1.0)">
    <path d="M13.3 9.9 Q9.95 11.95 4.5 11.35 -0.9 10.7 -3.2 8.9 -0.7 6.75 0.5 3.35 L1.75 -0.4 Q2.85 -1.3 4.55 1.1 6.25 3.45 7.9 4.05 8.85 4.0 9.65 2.95 10.4 1.9 10.45 2.25 10.25 2.5 10.3 5.3 10.4 8.05 13.3 9.9" fill="#8bd3e5" fill-rule="evenodd" stroke="none"/>
    <path d="M13.3 9.9 Q9.95 11.95 4.5 11.35 -0.9 10.7 -3.2 8.9 -0.7 6.75 0.5 3.35 L1.75 -0.4 Q2.85 -1.3 4.55 1.1 6.25 3.45 7.9 4.05 8.85 4.0 9.65 2.95 10.4 1.9 10.45 2.25 10.25 2.5 10.3 5.3 10.4 8.05 13.3 9.9 Z" fill="none" stroke="#000000" stroke-linecap="round" stroke-linejoin="round" stroke-width="0.75"/>
  </g>
</svg>
