<?xml version="1.0" encoding="UTF-8" standalone="no"?>
<svg xmlns:xlink="http://www.w3.org/1999/xlink" height="23.9px" width="23.05px" xmlns="http://www.w3.org/2000/svg">
  <g transform="matrix(1.0, 0.0, 0.0, 1.0, -1.8, -5.1)">
    <path d="M23.25 8.0 Q24.2 10.1 24.45 12.5 L24.3 16.2 Q24.05 18.65 23.05 21.4 22.05 24.1 20.05 26.15 18.1 28.2 14.85 28.6 11.75 28.85 9.45 27.4 7.15 26.0 5.6 23.7 4.05 21.35 3.25 18.95 2.4 16.5 2.25 14.75 2.0 12.4 2.5 10.25 3.5 10.5 4.6 9.85 L6.95 8.3 9.5 6.5 Q10.85 5.65 12.35 5.45 L15.45 5.85 Q17.0 6.4 18.4 7.1 L21.05 8.1 23.25 8.0" fill="#e0b38c" fill-rule="evenodd" stroke="none"/>
    <path d="M23.25 8.0 L21.05 8.1 18.4 7.1 Q17.0 6.4 15.45 5.85 L12.35 5.45 Q10.85 5.65 9.5 6.5 L6.95 8.3 4.6 9.85 Q3.5 10.5 2.5 10.25 2.0 12.4 2.25 14.75 2.4 16.5 3.25 18.95 4.05 21.35 5.6 23.7 7.15 26.0 9.45 27.4 11.75 28.85 14.85 28.6 18.1 28.2 20.05 26.15 22.05 24.1 23.05 21.4 24.05 18.65 24.3 16.2 L24.45 12.5 Q24.2 10.1 23.25 8.0 Z" fill="none" stroke="#000000" stroke-linecap="round" stroke-linejoin="round" stroke-width="0.75"/>
    <path d="M12.65 22.35 L13.3 22.95 15.1 24.05 17.95 24.75 Q19.6 24.9 21.6 24.05" fill="none" stroke="#000000" stroke-linecap="round" stroke-linejoin="round" stroke-width="0.75"/>
  </g>
</svg>
