<?xml version="1.0" encoding="UTF-8" standalone="no"?>
<svg xmlns:xlink="http://www.w3.org/1999/xlink" height="25.55px" width="26.4px" xmlns="http://www.w3.org/2000/svg">
  <g transform="matrix(1.0, 0.0, 0.0, 1.0, 0.35, 0.35)">
    <path d="M23.5 7.25 Q23.25 7.2 23.5 7.5 L24.7 9.35 25.7 11.3 Q24.95 11.1 24.85 11.3 L24.9 11.95 25.1 13.0 21.0 12.7 16.3 11.5 Q14.05 10.7 12.2 9.7 10.35 8.65 9.05 7.55 10.95 5.0 13.65 4.0 L19.1 3.85 20.8 4.6 22.9 5.8 24.45 6.95 23.5 7.25" fill="#73420d" fill-rule="evenodd" stroke="none"/>
    <path d="M23.5 7.25 L24.45 6.95 22.9 5.8 20.8 4.6 19.1 3.85 13.65 4.0 Q10.95 5.0 9.05 7.55 10.35 8.65 12.2 9.7 14.05 10.7 16.3 11.5 L21.0 12.7 25.1 13.0 24.9 11.95 24.85 11.3 Q24.95 11.1 25.7 11.3 L24.7 9.35 23.5 7.5 Q23.25 7.2 23.5 7.25 Z" fill="none" stroke="#000000" stroke-linecap="round" stroke-linejoin="round" stroke-width="0.75"/>
    <path d="M17.2 11.9 L14.4 12.0 Q13.3 12.7 12.5 14.15 L11.05 17.15 Q10.45 15.75 10.0 15.85 9.55 15.95 9.2 16.85 L8.6 18.65 8.3 19.8 Q7.9 18.7 7.75 19.1 7.55 19.5 7.45 20.7 L7.15 23.1 Q6.95 24.35 6.5 24.85 L5.45 23.9 Q4.95 23.45 4.45 23.4 3.95 23.4 3.55 24.25 L3.55 23.2 3.35 21.0 Q3.15 19.8 2.65 19.25 2.15 18.75 1.2 19.6 L1.8 16.65 Q2.0 15.45 1.65 15.05 1.3 14.65 0.0 15.35 -0.1 13.45 0.4 12.2 L1.5 10.1 2.5 8.5 2.1 8.2 1.2 8.05 0.85 7.8 1.95 6.8 3.6 5.75 4.8 4.9 Q5.1 4.65 4.8 4.3 4.55 3.95 3.6 3.5 L4.65 3.15 6.35 2.75 7.4 2.45 Q8.05 2.15 7.4 2.05 L5.05 1.6 Q6.45 1.0 7.9 1.0 L10.5 1.1 11.9 1.3 13.25 0.9 15.35 0.2 17.3 0.1 16.25 0.8 15.3 1.4 Q14.95 1.65 15.15 1.7 L17.2 2.1 20.3 2.9 Q22.0 3.45 23.45 4.5 L21.5 4.8 Q21.05 4.95 21.4 5.2 L17.2 11.9" fill="#73420d" fill-rule="evenodd" stroke="none"/>
    <path d="M17.2 11.9 L14.4 12.0 Q13.3 12.7 12.5 14.15 L11.05 17.15 Q10.45 15.75 10.0 15.85 9.55 15.95 9.2 16.85 L8.6 18.65 8.3 19.8 Q7.9 18.7 7.75 19.1 7.55 19.5 7.45 20.7 L7.15 23.1 Q6.95 24.35 6.5 24.85 L5.45 23.9 Q4.95 23.45 4.45 23.4 3.95 23.4 3.55 24.25 L3.55 23.2 3.35 21.0 Q3.15 19.8 2.65 19.25 2.15 18.75 1.2 19.6 L1.8 16.65 Q2.0 15.45 1.65 15.05 1.3 14.65 0.0 15.35 -0.1 13.45 0.4 12.2 L1.5 10.1 2.5 8.5 2.1 8.2 1.2 8.05 0.85 7.8 1.95 6.8 3.6 5.75 4.8 4.9 Q5.1 4.65 4.8 4.3 4.55 3.95 3.6 3.5 L4.65 3.15 6.35 2.75 7.4 2.45 Q8.05 2.15 7.4 2.05 L5.05 1.6 Q6.45 1.0 7.9 1.0 L10.5 1.1 11.9 1.3 13.25 0.9 15.35 0.2 17.3 0.1 16.25 0.8 15.3 1.4 Q14.95 1.65 15.15 1.7 L17.2 2.1 20.3 2.9 Q22.0 3.45 23.45 4.5 L21.5 4.8 Q21.05 4.95 21.4 5.2" fill="none" stroke="#000000" stroke-linecap="round" stroke-linejoin="round" stroke-width="0.75"/>
    <path d="M10.35 6.15 L9.7 7.7 9.15 7.9 6.7 8.7 Q7.85 7.1 8.65 6.6 9.45 6.05 9.9 6.1 L10.35 6.15" fill="#73420d" fill-rule="evenodd" stroke="none"/>
    <path d="M10.35 6.15 L9.9 6.1 Q9.45 6.05 8.65 6.6 7.85 7.1 6.7 8.7 L9.15 7.9 9.7 7.7" fill="none" stroke="#000000" stroke-linecap="round" stroke-linejoin="round" stroke-width="0.75"/>
    <path d="M15.05 7.2 L14.6 5.55 15.05 5.55 Q15.45 5.55 16.25 6.15 17.0 6.75 18.0 8.4 L15.65 7.4 15.05 7.2" fill="#73420d" fill-rule="evenodd" stroke="none"/>
    <path d="M14.6 5.55 L15.05 5.55 Q15.45 5.55 16.25 6.15 17.0 6.75 18.0 8.4 L15.65 7.4 15.05 7.2" fill="none" stroke="#000000" stroke-linecap="round" stroke-linejoin="round" stroke-width="0.75"/>
    <path d="M9.1 10.45 L13.45 10.1 12.25 11.2 9.1 13.25 Q7.1 14.3 4.55 14.4 L6.4 13.05 7.1 12.6 7.65 12.05 9.1 10.45" fill="#73420d" fill-rule="evenodd" stroke="none"/>
    <path d="M13.45 10.1 L12.25 11.2 9.1 13.25 Q7.1 14.3 4.55 14.4 L6.4 13.05 7.1 12.6 7.65 12.05 9.1 10.45" fill="none" stroke="#000000" stroke-linecap="round" stroke-linejoin="round" stroke-width="0.75"/>
  </g>
</svg>
