<?xml version="1.0" encoding="UTF-8" standalone="no"?>
<svg xmlns:xlink="http://www.w3.org/1999/xlink" height="8.2px" width="10.55px" xmlns="http://www.w3.org/2000/svg">
  <g transform="matrix(1.0, 0.0, 0.0, 1.0, 0.35, 0.35)">
    <path d="M5.5 3.75 Q5.25 5.15 4.3 5.95 3.4 6.75 2.2 6.6 1.05 6.4 0.45 5.3 -0.15 4.25 0.05 2.85 0.3 1.45 1.2 0.65 2.15 -0.15 3.3 0.0 4.5 0.25 5.1 1.3 5.7 2.35 5.5 3.75" fill="#ffffff" fill-rule="evenodd" stroke="none"/>
    <path d="M5.5 3.75 Q5.25 5.15 4.3 5.95 3.4 6.75 2.2 6.6 1.05 6.4 0.45 5.3 -0.15 4.25 0.05 2.85 0.3 1.45 1.2 0.65 2.15 -0.15 3.3 0.0 4.5 0.25 5.1 1.3 5.7 2.35 5.5 3.75 Z" fill="none" stroke="#000000" stroke-linecap="round" stroke-linejoin="round" stroke-width="0.75"/>
    <path d="M4.0 3.6 Q3.9 4.25 3.45 4.6 3.05 5.0 2.5 4.9 2.0 4.8 1.7 4.3 1.45 3.85 1.5 3.2 1.65 2.55 2.05 2.2 2.5 1.85 3.0 1.9 L3.8 2.5 Q4.1 3.0 4.0 3.6" fill="#000000" fill-rule="evenodd" stroke="none"/>
    <path d="M8.3 7.45 L7.95 7.5 Q6.8 7.3 6.2 6.2 5.6 5.15 5.8 3.75 6.05 2.35 6.95 1.55 7.9 0.75 9.05 0.9 L9.45 1.05 9.85 1.25 8.3 7.45" fill="#ffffff" fill-rule="evenodd" stroke="none"/>
    <path d="M9.85 1.25 L9.45 1.05 9.05 0.9 Q7.9 0.75 6.95 1.55 6.05 2.35 5.8 3.75 5.6 5.15 6.2 6.2 6.8 7.3 7.95 7.5 L8.3 7.45" fill="none" stroke="#000000" stroke-linecap="round" stroke-linejoin="round" stroke-width="0.75"/>
    <path d="M8.75 5.75 L8.25 5.8 7.45 5.2 Q7.2 4.75 7.3 4.1 7.4 3.45 7.8 3.1 8.25 2.75 8.75 2.8 9.15 2.9 9.4 3.15 L8.75 5.75" fill="#000000" fill-rule="evenodd" stroke="none"/>
  </g>
</svg>
