<?xml version="1.0" encoding="UTF-8" standalone="no"?>
<svg xmlns:xlink="http://www.w3.org/1999/xlink" height="85.75px" width="64.4px" xmlns="http://www.w3.org/2000/svg">
  <g transform="matrix(1.0, 0.0, 0.0, 1.0, 32.2, 42.85)">
    <path d="M-4.2 -8.45 L-3.0 -8.6 -0.05 -9.1 Q1.7 -9.5 2.35 -10.4 3.0 -11.3 2.55 -12.6 2.05 -13.95 3.8 -15.8 L7.6 -19.25 Q9.65 -20.85 10.35 -22.1 11.0 -23.4 8.6 -22.5 6.15 -21.6 5.55 -21.1 L3.65 -20.85 Q2.4 -21.05 1.55 -22.7 0.7 -24.4 0.6 -25.35 0.65 -26.35 1.8 -26.85 2.95 -27.4 4.5 -27.6 L7.2 -27.8 8.45 -27.85 7.4 -27.95 5.05 -28.45 Q3.7 -28.75 2.7 -29.35 L0.7 -30.6 Q-0.3 -31.25 0.55 -31.6 L4.25 -32.35 8.2 -32.7 9.2 -32.65 6.75 -33.5 2.55 -34.85 -0.2 -35.65 Q-0.9 -35.9 -1.25 -36.8 -1.65 -37.7 -1.3 -38.25 -1.0 -38.85 2.45 -40.65 5.85 -42.45 8.95 -41.8 L14.7 -41.15 Q17.35 -41.15 16.95 -38.85 16.55 -36.55 18.35 -33.8 20.1 -31.1 18.35 -27.15 16.55 -23.2 15.25 -19.25 13.9 -15.35 12.2 -12.3 10.45 -9.25 8.0 -8.05 3.85 -6.2 0.6 -5.5 L-4.55 -4.8 -6.5 -4.8 -4.2 -8.45 M-11.9 -39.95 Q-12.0 -38.75 -13.75 -37.85 -15.5 -36.9 -17.8 -36.25 -20.1 -35.6 -21.8 -35.3 L-23.65 -34.95 -22.25 -35.05 -19.2 -35.05 -16.1 -34.55 Q-14.8 -34.05 -14.65 -33.0 -14.65 -31.9 -15.8 -31.2 -16.95 -30.5 -18.5 -30.1 L-21.2 -29.55 -22.45 -29.4 -21.05 -29.4 -17.95 -29.15 -14.85 -28.35 Q-13.45 -27.8 -13.3 -26.7 -13.3 -25.65 -14.9 -25.1 L-18.6 -24.4 -22.35 -24.25 Q-23.95 -24.3 -21.95 -23.25 L-18.95 -21.6 Q-17.95 -20.95 -19.25 -19.15 -20.6 -17.35 -18.55 -17.5 -16.5 -17.65 -14.75 -13.95 -13.0 -10.3 -12.8 -8.85 -12.6 -7.45 -12.25 -6.8 -11.85 -6.15 -12.0 -5.35 -12.2 -4.5 -13.9 -4.0 -17.3 -4.25 -20.05 -6.75 -22.8 -9.2 -24.95 -13.05 -27.1 -16.9 -28.55 -21.25 -30.05 -25.6 -30.85 -29.6 -31.6 -33.65 -31.7 -36.55 -31.75 -39.4 -31.05 -40.3 -30.2 -41.3 -28.0 -41.75 L-23.1 -42.35 -17.8 -42.15 -13.55 -41.3 Q-11.9 -40.75 -11.9 -39.95" fill="#ffffff" fill-rule="evenodd" stroke="none"/>
    <path d="M-4.2 -8.45 L-3.0 -8.6 -0.05 -9.1 Q1.7 -9.5 2.35 -10.4 3.0 -11.3 2.55 -12.6 2.05 -13.95 3.8 -15.8 L7.6 -19.25 Q9.65 -20.85 10.35 -22.1 11.0 -23.4 8.6 -22.5 6.15 -21.6 5.55 -21.1 L3.65 -20.85 Q2.4 -21.05 1.55 -22.7 0.7 -24.4 0.6 -25.35 0.65 -26.35 1.8 -26.85 2.95 -27.4 4.5 -27.6 L7.2 -27.8 8.45 -27.85 7.4 -27.95 5.05 -28.45 Q3.7 -28.75 2.7 -29.35 L0.7 -30.6 Q-0.3 -31.25 0.55 -31.6 L4.25 -32.35 8.2 -32.7 9.2 -32.65 6.75 -33.5 2.55 -34.85 -0.2 -35.65 Q-0.9 -35.9 -1.25 -36.8 -1.65 -37.7 -1.3 -38.25 -1.0 -38.85 2.45 -40.65 5.85 -42.45 8.95 -41.8 L14.7 -41.15 Q17.35 -41.15 16.95 -38.85 16.55 -36.55 18.35 -33.8 20.1 -31.1 18.35 -27.15 16.55 -23.2 15.25 -19.25 13.9 -15.35 12.2 -12.3 10.45 -9.25 8.0 -8.05 3.85 -6.2 0.6 -5.5 L-4.55 -4.8 -6.5 -4.8 M-11.9 -39.95 Q-11.9 -40.75 -13.55 -41.3 L-17.8 -42.15 -23.1 -42.35 -28.0 -41.75 Q-30.2 -41.3 -31.05 -40.3 -31.75 -39.4 -31.7 -36.55 -31.6 -33.65 -30.85 -29.6 -30.05 -25.6 -28.55 -21.25 -27.1 -16.9 -24.95 -13.05 -22.8 -9.2 -20.05 -6.75 -17.3 -4.25 -13.9 -4.0 -12.2 -4.5 -12.0 -5.35 -11.85 -6.15 -12.25 -6.8 -12.6 -7.45 -12.8 -8.85 -13.0 -10.3 -14.75 -13.95 -16.5 -17.65 -18.55 -17.5 -20.6 -17.35 -19.25 -19.15 -17.95 -20.95 -18.95 -21.6 L-21.95 -23.25 Q-23.95 -24.3 -22.35 -24.25 L-18.6 -24.4 -14.9 -25.1 Q-13.3 -25.65 -13.3 -26.7 -13.45 -27.8 -14.85 -28.35 L-17.95 -29.15 -21.05 -29.4 -22.45 -29.4 -21.2 -29.55 -18.5 -30.1 Q-16.95 -30.5 -15.8 -31.2 -14.65 -31.9 -14.65 -33.0 -14.8 -34.05 -16.1 -34.55 L-19.2 -35.05 -22.25 -35.05 -23.65 -34.95 -21.8 -35.3 Q-20.1 -35.6 -17.8 -36.25 -15.5 -36.9 -13.75 -37.85 -12.0 -38.75 -11.9 -39.95" fill="none" stroke="#ffffff" stroke-linecap="round" stroke-linejoin="round" stroke-width="1.0"/>
    <path d="M0.8 -3.6 L2.65 -3.3 6.85 -2.15 Q9.25 -1.3 11.15 0.4 13.1 2.1 13.4 4.8 L6.55 5.3 Q3.45 4.9 1.55 4.1 L-0.35 3.25 0.8 -3.6" fill="#7c4806" fill-rule="evenodd" stroke="none"/>
    <path d="M0.8 -3.6 L2.65 -3.3 6.85 -2.15 Q9.25 -1.3 11.15 0.4 13.1 2.1 13.4 4.8 L6.55 5.3 Q3.45 4.9 1.55 4.1 L-0.35 3.25" fill="none" stroke="#000000" stroke-linecap="round" stroke-linejoin="round" stroke-width="1.0"/>
    <path d="M-20.8 29.25 Q-19.05 25.9 -18.85 23.05 -18.65 20.2 -19.3 17.75 -20.0 15.3 -20.85 13.1 -21.75 10.95 -22.1 8.9 -22.45 6.9 -21.65 4.9 -20.85 2.9 -18.15 0.85 L-18.25 -4.15 Q-18.1 -6.3 -17.1 -7.75 -16.15 -9.2 -13.75 -9.95 L-7.15 -10.75 -3.65 -10.5 Q-2.3 -10.25 -1.3 -9.55 L0.85 -7.6 3.75 -4.35 6.6 -0.45 7.75 1.6 8.3 2.9 9.3 4.55 11.95 9.7 15.05 14.05 Q16.9 16.2 20.25 19.15 20.95 19.65 22.5 19.75 L25.55 20.1 Q27.1 20.25 27.75 20.9 28.7 22.2 29.55 24.3 L30.95 28.8 Q31.55 31.15 31.65 33.2 31.8 35.25 31.25 36.4 30.05 38.55 27.3 39.5 24.6 40.4 21.05 40.9 L13.45 42.0 6.65 42.35 Q3.7 42.2 2.55 40.9 1.65 39.6 1.35 37.3 1.1 35.05 1.0 32.55 L0.7 28.1 Q0.5 26.1 -0.35 25.35 L-2.95 23.4 -7.15 19.95 -11.4 15.65 -20.8 29.25" fill="#7c4806" fill-rule="evenodd" stroke="none"/>
    <path d="M-11.4 15.65 L-7.15 19.95 -2.95 23.4 -0.35 25.35 Q0.5 26.1 0.7 28.1 L1.0 32.55 Q1.1 35.05 1.35 37.3 1.65 39.6 2.55 40.9 3.7 42.2 6.65 42.35 L13.45 42.0 21.05 40.9 Q24.6 40.4 27.3 39.5 30.05 38.55 31.25 36.4 31.8 35.25 31.65 33.2 31.55 31.15 30.95 28.8 L29.55 24.3 Q28.7 22.2 27.75 20.9 27.1 20.25 25.55 20.1 L22.5 19.75 Q20.95 19.65 20.25 19.15 16.9 16.2 15.05 14.05 L11.95 9.7 9.3 4.55 8.3 2.9 7.75 1.6 6.6 -0.45 3.75 -4.35 0.85 -7.6 -1.3 -9.55 Q-2.3 -10.25 -3.65 -10.5 L-7.15 -10.75 -13.75 -9.95 Q-16.15 -9.2 -17.1 -7.75 -18.1 -6.3 -18.25 -4.15 L-18.15 0.85 Q-20.85 2.9 -21.65 4.9 -22.45 6.9 -22.1 8.9 -21.75 10.95 -20.85 13.1 -20.0 15.3 -19.3 17.75 -18.65 20.2 -18.85 23.05 -19.05 25.9 -20.8 29.25" fill="none" stroke="#000000" stroke-linecap="round" stroke-linejoin="round" stroke-width="1.0"/>
    <path d="M-14.3 5.3 L-15.3 6.05 Q-16.3 6.75 -18.15 7.65 -20.0 8.55 -22.5 9.1 L-27.95 9.5 Q-28.15 7.25 -27.1 5.45 -26.05 3.7 -24.35 2.4 -22.65 1.05 -20.9 0.2 L-18.0 -1.05 -16.75 -1.45 -14.3 5.3" fill="#7c4806" fill-rule="evenodd" stroke="none"/>
    <path d="M-16.75 -1.45 L-18.0 -1.05 -20.9 0.2 Q-22.65 1.05 -24.35 2.4 -26.05 3.7 -27.1 5.45 -28.15 7.25 -27.95 9.5 L-22.5 9.1 Q-20.0 8.55 -18.15 7.65 -16.3 6.75 -15.3 6.05 L-14.3 5.3" fill="none" stroke="#000000" stroke-linecap="round" stroke-linejoin="round" stroke-width="1.0"/>
  </g>
</svg>
