<?xml version="1.0" encoding="UTF-8" standalone="no"?>
<svg xmlns:xlink="http://www.w3.org/1999/xlink" height="23.25px" width="26.7px" xmlns="http://www.w3.org/2000/svg">
  <g transform="matrix(1.0, 0.0, 0.0, 1.0, 0.5, 0.55)">
    <path d="M26.2 8.7 L24.35 10.2 25.2 12.6 23.4 11.35 22.8 12.7 20.55 11.7 20.1 12.7 17.55 11.05 16.95 12.1 15.6 11.3 15.1 13.05 13.0 11.7 12.2 13.65 10.7 12.6 9.8 14.7 8.45 14.35 Q8.3 14.65 8.4 16.45 7.4 16.65 6.5 17.1 6.6 18.3 7.05 19.95 5.6 19.2 4.6 19.2 4.4 21.3 4.6 22.7 L2.9 22.45 Q2.95 21.75 3.3 20.95 L1.95 20.5 2.45 18.8 0.7 18.15 1.6 16.3 -0.05 15.65 1.15 13.5 -0.5 10.9 1.45 10.25 -0.1 7.85 2.15 7.45 1.4 5.4 3.6 5.05 3.45 2.75 5.75 3.35 5.85 1.45 7.95 2.35 9.95 -0.4 11.35 1.45 12.95 -0.55 13.7 1.25 15.6 0.55 15.95 2.4 17.85 1.1 18.15 3.0 20.1 1.95 20.5 4.15 22.9 2.65 22.9 4.75 25.25 5.65 24.1 7.55 26.2 8.7" fill="#000000" fill-rule="evenodd" stroke="none"/>
  </g>
</svg>
