<?xml version="1.0" encoding="UTF-8" standalone="no"?>
<svg xmlns:xlink="http://www.w3.org/1999/xlink" height="20.3px" width="26.1px" xmlns="http://www.w3.org/2000/svg">
  <g transform="matrix(1.0, 0.0, 0.0, 1.0, 1.1, -2.45)">
    <path d="M7.05 13.65 Q3.2 17.6 -0.75 15.05 1.6 14.75 2.4 13.25 L3.15 11.6 7.05 13.65" fill="#f3e016" fill-rule="evenodd" stroke="none"/>
    <path d="M3.15 11.6 L2.4 13.25 Q1.6 14.75 -0.75 15.05 3.2 17.6 7.05 13.65" fill="none" stroke="#000000" stroke-linecap="round" stroke-linejoin="round" stroke-width="0.75"/>
    <path d="M24.25 9.0 Q25.0 14.4 24.35 13.55 24.2 12.2 22.95 13.4 21.7 14.55 21.15 12.85 20.65 11.2 19.3 12.45 17.95 13.7 17.65 12.2 17.35 10.7 15.7 12.2 14.0 13.7 13.15 12.05 10.85 12.0 9.3 14.85 L6.55 19.95 Q5.15 22.1 2.3 22.4 3.65 21.2 3.45 19.8 L3.15 18.25 3.2 18.25 Q2.0 15.1 2.15 13.95 1.7 12.8 2.8 8.15 3.9 3.45 13.5 2.8 23.45 3.6 24.25 9.0" fill="#f3e016" fill-rule="evenodd" stroke="none"/>
    <path d="M24.25 9.0 Q23.45 3.6 13.5 2.8 3.9 3.45 2.8 8.15 1.7 12.8 2.15 13.95 2.0 15.1 3.2 18.25 L3.15 18.25 3.45 19.8 Q3.65 21.2 2.3 22.4 5.15 22.1 6.55 19.95 L9.3 14.85 Q10.85 12.0 13.15 12.05 14.0 13.7 15.7 12.2 17.35 10.7 17.65 12.2 17.95 13.7 19.3 12.45 20.65 11.2 21.15 12.85 21.7 14.55 22.95 13.4 24.2 12.2 24.35 13.55 25.0 14.4 24.25 9.0 Z" fill="none" stroke="#000000" stroke-linecap="round" stroke-linejoin="round" stroke-width="0.75"/>
    <path d="M6.6 14.15 Q6.1 16.75 4.15 17.9 2.15 19.1 0.2 18.8 2.15 17.55 2.25 15.85 L2.2 14.0 6.6 14.15" fill="#f3e016" fill-rule="evenodd" stroke="none"/>
    <path d="M2.2 14.0 L2.25 15.85 Q2.15 17.55 0.2 18.8 2.15 19.1 4.15 17.9 6.1 16.75 6.6 14.15" fill="none" stroke="#000000" stroke-linecap="round" stroke-linejoin="round" stroke-width="0.75"/>
  </g>
</svg>
