<?xml version="1.0" encoding="UTF-8" standalone="no"?>
<svg xmlns:xlink="http://www.w3.org/1999/xlink" height="24.35px" width="27.0px" xmlns="http://www.w3.org/2000/svg">
  <g transform="matrix(1.0, 0.0, 0.0, 1.0, 2.1, -0.8)">
    <path d="M24.5 12.35 Q24.6 6.75 21.75 4.3 18.95 1.8 18.5 1.85 L20.5 8.25 22.35 9.6 Q24.0 10.85 24.5 12.35" fill="#73420d" fill-rule="evenodd" stroke="none"/>
    <path d="M24.5 12.35 Q24.0 10.85 22.35 9.6 L20.5 8.25 18.5 1.85 Q18.95 1.8 21.75 4.3 24.6 6.75 24.5 12.35 Z" fill="none" stroke="#000000" stroke-linecap="round" stroke-linejoin="round" stroke-width="0.8"/>
    <path d="M11.5 1.25 Q11.1 1.15 7.45 2.65 3.75 4.15 1.75 8.35 -0.2 12.6 4.35 20.75 4.15 17.7 5.7 16.25 7.3 14.8 8.75 14.65 18.05 11.9 19.85 9.4 21.65 6.9 21.1 6.15 21.55 5.75 20.4 3.3 19.25 0.9 11.5 1.25" fill="#73420d" fill-rule="evenodd" stroke="none"/>
    <path d="M11.5 1.25 Q11.1 1.15 7.45 2.65 3.75 4.15 1.75 8.35 -0.2 12.6 4.35 20.75 4.15 17.7 5.7 16.25 7.3 14.8 8.75 14.65 18.05 11.9 19.85 9.4 21.65 6.9 21.1 6.15 21.55 5.75 20.4 3.3 19.25 0.9 11.5 1.25 Z" fill="none" stroke="#000000" stroke-linecap="round" stroke-linejoin="round" stroke-width="0.8"/>
    <path d="M4.0 10.35 Q2.05 9.65 1.45 10.5 0.95 10.5 -0.9 14.1 -2.8 17.7 -0.2 24.75 3.95 22.35 4.5 18.15 5.05 13.9 4.85 13.45 5.05 12.65 4.0 10.35" fill="#73420d" fill-rule="evenodd" stroke="none"/>
    <path d="M4.0 10.35 Q2.05 9.65 1.45 10.5 0.95 10.5 -0.9 14.1 -2.8 17.7 -0.2 24.75 3.95 22.35 4.5 18.15 5.05 13.9 4.85 13.45 5.05 12.65 4.0 10.35 Z" fill="none" stroke="#000000" stroke-linecap="round" stroke-linejoin="round" stroke-width="0.8"/>
  </g>
</svg>
