<?xml version="1.0" encoding="UTF-8" standalone="no"?>
<svg xmlns:xlink="http://www.w3.org/1999/xlink" height="18.95px" width="27.8px" xmlns="http://www.w3.org/2000/svg">
  <g transform="matrix(1.0, 0.0, 0.0, 1.0, 1.15, -1.25)">
    <path d="M23.5 5.4 L24.3 8.7 Q25.05 11.7 26.3 13.4 23.85 12.55 23.2 10.8 22.6 9.05 22.7 8.8 L23.5 5.4" fill="#bfa14a" fill-rule="evenodd" stroke="none"/>
    <path d="M23.5 5.4 L24.3 8.7 Q25.05 11.7 26.3 13.4 23.85 12.55 23.2 10.8 22.6 9.05 22.7 8.8 L23.5 5.4 Z" fill="none" stroke="#000000" stroke-linecap="round" stroke-linejoin="round" stroke-width="0.75"/>
    <path d="M21.75 4.15 Q24.0 6.95 23.7 7.4 23.6 8.35 20.6 11.15 17.6 13.95 8.85 15.0 7.6 15.4 6.05 17.25 4.55 19.1 2.2 19.85 3.35 17.7 2.55 16.0 2.4 6.6 6.65 3.95 10.95 1.3 11.6 1.65 19.5 1.35 21.75 4.15" fill="#bfa14a" fill-rule="evenodd" stroke="none"/>
    <path d="M21.75 4.15 Q19.5 1.35 11.6 1.65 10.95 1.3 6.65 3.95 2.4 6.6 2.55 16.0 3.35 17.7 2.2 19.85 4.55 19.1 6.05 17.25 7.6 15.4 8.85 15.0 17.6 13.95 20.6 11.15 23.6 8.35 23.7 7.4 24.0 6.95 21.75 4.15 Z" fill="none" stroke="#000000" stroke-linecap="round" stroke-linejoin="round" stroke-width="0.75"/>
    <path d="M0.4 16.9 L1.2 15.55 Q1.9 14.3 1.4 13.0 0.75 10.0 3.65 5.5 6.55 1.0 17.65 2.05 26.6 4.55 21.9 8.0 17.2 11.45 9.2 14.1 L0.4 16.9" fill="#bfa14a" fill-rule="evenodd" stroke="none"/>
    <path d="M0.4 16.9 L1.2 15.55 Q1.9 14.3 1.4 13.0 0.75 10.0 3.65 5.5 6.55 1.0 17.65 2.05 26.6 4.55 21.9 8.0 17.2 11.45 9.2 14.1 L0.4 16.9 Z" fill="none" stroke="#000000" stroke-linecap="round" stroke-linejoin="round" stroke-width="0.9"/>
    <path d="M10.3 5.85 Q7.15 6.35 3.4 9.1 L-0.7 12.25 Q3.55 3.3 8.9 2.35 L14.7 1.95 10.3 5.85" fill="#bfa14a" fill-rule="evenodd" stroke="none"/>
    <path d="M14.7 1.95 L8.9 2.35 Q3.55 3.3 -0.7 12.25 L3.4 9.1 Q7.15 6.35 10.3 5.85" fill="none" stroke="#000000" stroke-linecap="round" stroke-linejoin="round" stroke-width="0.9"/>
    <path d="M12.4 10.6 Q9.4 10.0 5.25 11.7 1.05 13.45 0.65 13.75 2.9 8.15 6.45 6.6 10.0 5.0 10.4 5.2 L12.4 10.6" fill="#bfa14a" fill-rule="evenodd" stroke="none"/>
    <path d="M10.4 5.2 Q10.0 5.0 6.45 6.6 2.9 8.15 0.65 13.75 1.05 13.45 5.25 11.7 9.4 10.0 12.4 10.6" fill="none" stroke="#000000" stroke-linecap="round" stroke-linejoin="round" stroke-width="0.9"/>
    <path d="M21.05 6.45 Q20.95 6.95 16.2 9.45 11.45 11.95 3.25 10.55 L7.95 9.35 Q12.2 8.15 15.6 5.5 L21.05 6.45" fill="#bfa14a" fill-rule="evenodd" stroke="none"/>
    <path d="M21.05 6.45 Q20.95 6.95 16.2 9.45 11.45 11.95 3.25 10.55 L7.95 9.35 Q12.2 8.15 15.6 5.5" fill="none" stroke="#000000" stroke-linecap="round" stroke-linejoin="round" stroke-width="0.9"/>
  </g>
</svg>
