<?xml version="1.0" encoding="UTF-8" standalone="no"?>
<svg xmlns:xlink="http://www.w3.org/1999/xlink" height="8.1px" width="8.0px" xmlns="http://www.w3.org/2000/svg">
  <g transform="matrix(1.0, 0.0, 0.0, 1.0, -0.8, 0.35)">
    <path d="M8.8 6.4 Q8.85 7.45 8.0 7.6 L5.15 7.75 1.95 7.6 Q0.8 7.45 0.8 6.4 0.8 5.3 2.0 4.85 L5.25 4.45 8.05 4.85 Q8.85 5.3 8.8 6.4" fill="#000000" fill-rule="evenodd" stroke="none"/>
    <path d="M2.85 6.5 Q2.4 6.5 2.1 6.15 1.85 5.85 1.85 5.35 L1.85 1.15 Q1.85 0.65 2.1 0.3 2.4 0.0 2.85 0.0 L8.45 0.0 7.5 6.5 2.85 6.5" fill="#ff0000" fill-rule="evenodd" stroke="none"/>
    <path d="M2.85 6.5 Q2.4 6.5 2.1 6.15 1.85 5.85 1.85 5.35 L1.85 1.15 Q1.85 0.65 2.1 0.3 2.4 0.0 2.85 0.0 L8.45 0.0 7.5 6.5 2.85 6.5 Z" fill="none" stroke="#000000" stroke-linecap="round" stroke-linejoin="round" stroke-width="0.75"/>
  </g>
</svg>
