<?xml version="1.0" encoding="UTF-8" standalone="no"?>
<svg xmlns:xlink="http://www.w3.org/1999/xlink" height="13.75px" width="24.95px" xmlns="http://www.w3.org/2000/svg">
  <g transform="matrix(1.0, 0.0, 0.0, 1.0, 5.9, -9.45)">
    <path d="M18.7 20.45 Q14.55 22.3 6.65 22.85 -2.45 22.1 -5.55 20.35 -3.1 17.75 -1.8 14.45 L-0.45 10.85 Q0.4 9.85 2.2 9.8 1.75 10.65 6.05 11.55 10.3 11.0 9.8 10.45 L11.8 10.45 Q13.15 10.45 13.3 10.9 13.3 11.35 14.65 15.05 16.05 18.7 18.7 20.45" fill="#8bd3e5" fill-rule="evenodd" stroke="none"/>
    <path d="M18.7 20.45 Q14.55 22.3 6.65 22.85 -2.45 22.1 -5.55 20.35 -3.1 17.75 -1.8 14.45 L-0.45 10.85 Q0.4 9.85 2.2 9.8 1.75 10.65 6.05 11.55 10.3 11.0 9.8 10.45 L11.8 10.45 Q13.15 10.45 13.3 10.9 13.3 11.35 14.65 15.05 16.05 18.7 18.7 20.45 Z" fill="none" stroke="#000000" stroke-linecap="round" stroke-linejoin="round" stroke-width="0.75"/>
  </g>
</svg>
