<?xml version="1.0" encoding="UTF-8" standalone="no"?>
<svg xmlns:xlink="http://www.w3.org/1999/xlink" height="29.85px" width="29.3px" xmlns="http://www.w3.org/2000/svg">
  <g transform="matrix(1.0, 0.0, 0.0, 1.0, 0.9, 2.95)">
    <path d="M24.3 11.55 Q24.4 14.5 22.0 20.2 19.55 25.9 13.15 26.55 6.95 26.05 4.4 20.75 1.9 15.4 2.0 11.55 2.0 9.15 2.65 7.05 4.65 7.5 7.3 5.55 9.95 3.6 12.95 3.3 16.1 3.6 18.85 5.5 21.55 7.4 23.55 6.9 24.3 9.05 24.3 11.55" fill="#e0b38c" fill-rule="evenodd" stroke="none"/>
    <path d="M24.3 11.55 Q24.3 9.05 23.55 6.9 21.55 7.4 18.85 5.5 16.1 3.6 12.95 3.3 9.95 3.6 7.3 5.55 4.65 7.5 2.65 7.05 2.0 9.15 2.0 11.55 1.9 15.4 4.4 20.75 6.95 26.05 13.15 26.55 19.55 25.9 22.0 20.2 24.4 14.5 24.3 11.55 Z" fill="none" stroke="#000000" stroke-linecap="round" stroke-linejoin="round" stroke-width="0.75"/>
    <path d="M19.6 0.85 L22.2 -0.6 22.0 2.25 24.75 1.35 24.1 4.55 26.35 4.45 26.3 7.55 28.4 8.35 27.0 10.85 27.85 12.0 26.25 13.7 28.05 15.0 25.3 16.7 25.9 19.2 21.75 19.85 21.05 22.2 17.75 20.7 16.75 23.0 13.95 21.6 10.55 23.0 9.1 20.45 6.0 21.55 5.5 19.0 2.15 18.95 2.35 16.5 0.5 14.95 1.55 13.0 0.05 11.8 1.0 10.6 -0.9 8.55 1.4 7.35 1.3 4.45 3.25 4.6 2.95 1.35 5.55 2.0 5.45 -0.6 8.0 0.7 8.5 -2.5 10.3 -0.5 11.4 -2.7 13.55 -0.65 15.55 -2.95 17.0 -0.65 19.15 -2.5 19.6 0.85" fill="#000000" fill-rule="evenodd" stroke="none"/>
  </g>
</svg>
