<?xml version="1.0" encoding="UTF-8" standalone="no"?>
<svg xmlns:xlink="http://www.w3.org/1999/xlink" height="24.8px" width="25.95px" xmlns="http://www.w3.org/2000/svg">
  <g transform="matrix(1.0, 0.0, 0.0, 1.0, 0.4, -1.7)">
    <path d="M24.0 11.15 Q24.1 14.1 21.85 19.8 19.5 25.5 13.45 26.15 7.6 25.65 5.2 20.35 2.85 15.0 2.95 11.15 3.1 8.75 3.85 6.65 5.75 7.1 8.15 5.15 10.45 3.2 13.3 2.9 16.25 3.2 18.8 5.1 21.4 7.0 23.3 6.5 24.0 8.65 24.0 11.15" fill="#e0b38c" fill-rule="evenodd" stroke="none"/>
    <path d="M24.0 11.15 Q24.0 8.65 23.3 6.5 21.4 7.0 18.8 5.1 16.25 3.2 13.3 2.9 10.45 3.2 8.15 5.15 5.75 7.1 3.85 6.65 3.1 8.75 2.95 11.15 2.85 15.0 5.2 20.35 7.6 25.65 13.45 26.15 19.5 25.5 21.85 19.8 24.1 14.1 24.0 11.15 Z" fill="none" stroke="#000000" stroke-linecap="round" stroke-linejoin="round" stroke-width="0.75"/>
    <path d="M24.1 12.4 Q22.55 18.55 22.85 21.75 23.15 24.7 23.35 24.95 21.75 23.75 20.7 23.35 19.6 22.95 20.7 25.8 L18.45 24.05 Q16.9 23.05 16.15 26.1 L14.1 23.1 Q13.1 21.45 12.6 21.65 11.25 22.5 11.15 23.85 11.1 25.2 11.2 25.35 L10.0 24.35 Q8.95 23.35 8.9 21.85 7.75 22.95 5.6 23.65 3.4 24.4 2.6 24.2 3.85 21.2 3.05 17.8 2.2 14.35 2.1 12.05 L2.1 11.3 2.15 11.3 Q2.2 8.55 4.5 5.4 6.8 2.3 13.5 2.05 20.65 2.3 22.85 5.6 25.0 8.95 24.1 12.4" fill="#f3e016" fill-rule="evenodd" stroke="none"/>
    <path d="M24.1 12.4 Q25.0 8.95 22.85 5.6 20.65 2.3 13.5 2.05 6.8 2.3 4.5 5.4 2.2 8.55 2.15 11.3 L2.1 11.3 2.1 12.05 Q2.2 14.35 3.05 17.8 3.85 21.2 2.6 24.2 3.4 24.4 5.6 23.65 7.75 22.95 8.9 21.85 8.95 23.35 10.0 24.35 L11.2 25.35 Q11.1 25.2 11.15 23.85 11.25 22.5 12.6 21.65 13.1 21.45 14.1 23.1 L16.15 26.1 Q16.9 23.05 18.45 24.05 L20.7 25.8 Q19.6 22.95 20.7 23.35 21.75 23.75 23.35 24.95 23.15 24.7 22.85 21.75 22.55 18.55 24.1 12.4 Z" fill="none" stroke="#000000" stroke-linecap="round" stroke-linejoin="round" stroke-width="0.75"/>
    <path d="M2.3 14.35 L7.55 14.55 Q6.95 17.6 4.6 19.0 2.25 20.4 -0.05 20.05 2.25 18.55 2.35 16.55 2.5 14.55 2.3 14.35" fill="#f3e016" fill-rule="evenodd" stroke="none"/>
    <path d="M2.3 14.35 Q2.5 14.55 2.35 16.55 2.25 18.55 -0.05 20.05 2.25 20.4 4.6 19.0 6.95 17.6 7.55 14.55" fill="none" stroke="#000000" stroke-linecap="round" stroke-linejoin="round" stroke-width="0.75"/>
    <path d="M18.5 18.25 L23.25 16.25 23.15 18.9 Q23.2 21.25 25.2 22.5 23.25 22.95 21.25 21.85 19.2 20.8 18.5 18.25" fill="#f3e016" fill-rule="evenodd" stroke="none"/>
    <path d="M23.25 16.25 L23.15 18.9 Q23.2 21.25 25.2 22.5 23.25 22.95 21.25 21.85 19.2 20.8 18.5 18.25" fill="none" stroke="#000000" stroke-linecap="round" stroke-linejoin="round" stroke-width="0.75"/>
    <path d="M15.8 12.8 L19.3 11.05 19.3 12.75 Q19.4 14.25 20.7 15.3 17.85 16.4 15.8 12.8" fill="#f3e016" fill-rule="evenodd" stroke="none"/>
    <path d="M19.3 11.05 L19.3 12.75 Q19.4 14.25 20.7 15.3 17.85 16.4 15.8 12.8" fill="none" stroke="#000000" stroke-linecap="round" stroke-linejoin="round" stroke-width="0.75"/>
    <path d="M10.15 14.4 L13.85 15.15 Q12.2 19.05 9.15 18.5 10.55 17.35 10.4 15.95 L10.15 14.4" fill="#f3e016" fill-rule="evenodd" stroke="none"/>
    <path d="M10.15 14.4 L10.4 15.95 Q10.55 17.35 9.15 18.5 12.2 19.05 13.85 15.15" fill="none" stroke="#000000" stroke-linecap="round" stroke-linejoin="round" stroke-width="0.75"/>
    <path d="M13.55 19.3 L17.25 20.05 Q15.6 23.95 12.55 23.4 13.95 22.25 13.8 20.85 L13.55 19.3" fill="#f3e016" fill-rule="evenodd" stroke="none"/>
    <path d="M13.55 19.3 L13.8 20.85 Q13.95 22.25 12.55 23.4 15.6 23.95 17.25 20.05" fill="none" stroke="#000000" stroke-linecap="round" stroke-linejoin="round" stroke-width="0.75"/>
  </g>
</svg>
