<?xml version="1.0" encoding="UTF-8" standalone="no"?>
<svg xmlns:xlink="http://www.w3.org/1999/xlink" height="26.95px" width="28.9px" xmlns="http://www.w3.org/2000/svg">
  <g transform="matrix(1.0, 0.0, 0.0, 1.0, 1.4, 0.45)">
    <path d="M24.6 11.15 Q24.7 14.1 22.3 19.8 19.85 25.5 13.45 26.15 7.25 25.65 4.7 20.35 2.2 15.0 2.3 11.15 2.5 8.75 3.3 6.65 5.3 7.1 7.8 5.15 10.25 3.2 13.25 2.9 16.4 3.2 19.1 5.1 21.85 7.0 23.85 6.5 24.6 8.65 24.6 11.15" fill="#e0b38c" fill-rule="evenodd" stroke="none"/>
    <path d="M24.6 11.15 Q24.6 8.65 23.85 6.5 21.85 7.0 19.1 5.1 16.4 3.2 13.25 2.9 10.25 3.2 7.8 5.15 5.3 7.1 3.3 6.65 2.5 8.75 2.3 11.15 2.2 15.0 4.7 20.35 7.25 25.65 13.45 26.15 19.85 25.5 22.3 19.8 24.7 14.1 24.6 11.15 Z" fill="none" stroke="#000000" stroke-linecap="round" stroke-linejoin="round" stroke-width="0.75"/>
    <path d="M13.4 0.9 L13.45 6.7 13.45 16.85 13.4 24.0 Q8.1 24.55 5.85 20.65 3.6 16.75 2.15 12.2 1.3 9.6 3.65 5.05 6.0 0.45 11.9 -0.05 13.65 0.0 13.4 0.9" fill="#73420d" fill-rule="evenodd" stroke="none"/>
    <path d="M13.4 0.9 L13.45 6.7 13.45 16.85 13.4 24.0 Q8.1 24.55 5.85 20.65 3.6 16.75 2.15 12.2 1.3 9.6 3.65 5.05 6.0 0.45 11.9 -0.05 13.65 0.0 13.4 0.9 Z" fill="none" stroke="#000000" stroke-linecap="round" stroke-linejoin="round" stroke-width="0.8"/>
    <path d="M4.7 8.75 Q5.8 11.05 5.55 11.85 5.8 12.3 5.2 16.55 4.65 20.75 0.5 23.15 -2.1 16.1 -0.2 12.5 1.7 8.9 2.2 8.9 2.8 8.05 4.7 8.75" fill="#73420d" fill-rule="evenodd" stroke="none"/>
    <path d="M4.7 8.75 Q2.8 8.05 2.2 8.9 1.7 8.9 -0.2 12.5 -2.1 16.1 0.5 23.15 4.65 20.75 5.2 16.55 5.8 12.3 5.55 11.85 5.8 11.05 4.7 8.75 Z" fill="none" stroke="#000000" stroke-linecap="round" stroke-linejoin="round" stroke-width="0.8"/>
    <path d="M13.65 0.9 Q13.35 0.0 15.1 -0.05 21.05 0.45 23.4 5.05 25.7 9.6 24.9 12.2 23.45 16.75 21.2 20.65 18.9 24.55 13.65 24.0 L13.6 16.85 13.6 6.7 13.65 0.9" fill="#73420d" fill-rule="evenodd" stroke="none"/>
    <path d="M13.65 0.9 L13.6 6.7 13.6 16.85 13.65 24.0 Q18.9 24.55 21.2 20.65 23.45 16.75 24.9 12.2 25.7 9.6 23.4 5.05 21.05 0.45 15.1 -0.05 13.35 0.0 13.65 0.9 Z" fill="none" stroke="#000000" stroke-linecap="round" stroke-linejoin="round" stroke-width="0.8"/>
    <path d="M21.4 8.75 Q23.35 8.05 23.95 8.9 24.45 8.9 26.3 12.5 28.2 16.1 25.6 23.15 21.45 20.75 20.9 16.55 20.35 12.3 20.55 11.85 20.35 11.05 21.4 8.75" fill="#73420d" fill-rule="evenodd" stroke="none"/>
    <path d="M21.4 8.75 Q23.35 8.05 23.95 8.9 24.45 8.9 26.3 12.5 28.2 16.1 25.6 23.15 21.45 20.75 20.9 16.55 20.35 12.3 20.55 11.85 20.35 11.05 21.4 8.75 Z" fill="none" stroke="#000000" stroke-linecap="round" stroke-linejoin="round" stroke-width="0.8"/>
  </g>
</svg>
