<?xml version="1.0" encoding="UTF-8" standalone="no"?>
<svg xmlns:xlink="http://www.w3.org/1999/xlink" height="30.95px" width="30.95px" xmlns="http://www.w3.org/2000/svg">
  <g transform="matrix(1.0, 0.0, 0.0, 1.0, 2.45, 4.05)">
    <path d="M18.05 -2.9 Q20.6 -2.75 21.55 -0.6 L21.85 -0.65 Q25.25 -0.3 25.55 2.9 L25.55 3.3 26.1 4.1 Q27.4 5.15 27.5 6.85 L27.25 8.05 Q28.05 8.95 28.05 10.25 28.05 11.4 27.35 12.3 28.1 13.25 28.15 14.5 28.1 16.05 26.95 17.05 L27.05 17.85 Q26.9 20.35 24.4 21.2 L24.45 21.25 Q24.1 24.5 20.65 24.8 L19.75 24.7 Q18.7 26.45 16.45 26.55 15.2 26.55 14.25 25.9 13.3 26.55 12.05 26.55 10.35 26.5 9.25 25.4 L7.75 25.75 Q5.2 25.6 4.2 23.45 L3.95 23.5 Q0.5 23.2 0.15 19.9 L0.25 19.25 0.1 19.05 Q-1.7 18.05 -1.8 16.0 L-1.45 14.55 Q-2.0 13.7 -2.05 12.6 L-1.8 11.45 -1.35 10.45 Q-2.1 9.55 -2.1 8.35 -2.05 6.8 -0.95 5.8 L-1.05 5.0 Q-0.85 2.5 1.55 1.65 L1.55 1.6 Q1.85 -1.65 5.3 -1.95 L6.2 -1.85 Q7.25 -3.6 9.45 -3.7 10.7 -3.7 11.65 -3.05 12.55 -3.7 13.8 -3.7 15.45 -3.7 16.55 -2.55 L18.05 -2.9" fill="#5d3917" fill-rule="evenodd" stroke="none"/>
    <path d="M18.05 -2.9 L16.55 -2.55 Q15.45 -3.7 13.8 -3.7 12.55 -3.7 11.65 -3.05 10.7 -3.7 9.45 -3.7 7.25 -3.6 6.2 -1.85 L5.3 -1.95 Q1.85 -1.65 1.55 1.6 L1.55 1.65 Q-0.85 2.5 -1.05 5.0 L-0.95 5.8 Q-2.05 6.8 -2.1 8.35 -2.1 9.55 -1.35 10.45 L-1.8 11.45 -2.05 12.6 Q-2.0 13.7 -1.45 14.55 L-1.8 16.0 Q-1.7 18.05 0.1 19.05 L0.25 19.25 0.15 19.9 Q0.5 23.2 3.95 23.5 L4.2 23.45 Q5.2 25.6 7.75 25.75 L9.25 25.4 Q10.35 26.5 12.05 26.55 13.3 26.55 14.25 25.9 15.2 26.55 16.45 26.55 18.7 26.45 19.75 24.7 L20.65 24.8 Q24.1 24.5 24.45 21.25 L24.4 21.2 Q26.9 20.35 27.05 17.85 L26.95 17.05 Q28.1 16.05 28.15 14.5 28.1 13.25 27.35 12.3 28.05 11.4 28.05 10.25 28.05 8.95 27.25 8.05 L27.5 6.85 Q27.4 5.15 26.1 4.1 L25.55 3.3 25.55 2.9 Q25.25 -0.3 21.85 -0.65 L21.55 -0.6 Q20.6 -2.75 18.05 -2.9 Z" fill="none" stroke="#000000" stroke-linecap="round" stroke-linejoin="round" stroke-width="0.75"/>
    <path d="M3.25 14.8 L6.85 15.7 4.2 15.65 3.25 14.8" fill="#5d3917" fill-rule="evenodd" stroke="none"/>
    <path d="M3.25 14.8 L4.2 15.65 6.85 15.7" fill="none" stroke="#000000" stroke-linecap="round" stroke-linejoin="round" stroke-width="0.7000000000000001"/>
    <path d="M6.55 20.35 L10.2 20.85 Q8.55 21.65 7.55 21.1 L6.55 20.35" fill="#5d3917" fill-rule="evenodd" stroke="none"/>
    <path d="M6.55 20.35 L7.55 21.1 Q8.55 21.65 10.2 20.85" fill="none" stroke="#000000" stroke-linecap="round" stroke-linejoin="round" stroke-width="0.7000000000000001"/>
    <path d="M17.55 17.15 L21.2 17.75 Q19.5 18.55 18.55 17.95 L17.55 17.15" fill="#5d3917" fill-rule="evenodd" stroke="none"/>
    <path d="M17.55 17.15 L18.55 17.95 Q19.5 18.55 21.2 17.75" fill="none" stroke="#000000" stroke-linecap="round" stroke-linejoin="round" stroke-width="0.7000000000000001"/>
    <path d="M10.95 17.0 L14.65 16.5 Q13.25 17.75 12.15 17.45 L10.95 17.0" fill="#5d3917" fill-rule="evenodd" stroke="none"/>
    <path d="M10.95 17.0 L12.15 17.45 Q13.25 17.75 14.65 16.5" fill="none" stroke="#000000" stroke-linecap="round" stroke-linejoin="round" stroke-width="0.7000000000000001"/>
    <path d="M14.8 21.35 L18.5 20.85 Q17.1 22.1 16.0 21.8 L14.8 21.35" fill="#5d3917" fill-rule="evenodd" stroke="none"/>
    <path d="M14.8 21.35 L16.0 21.8 Q17.1 22.1 18.5 20.85" fill="none" stroke="#000000" stroke-linecap="round" stroke-linejoin="round" stroke-width="0.7000000000000001"/>
    <path d="M12.4 11.05 L16.05 11.75 13.35 11.85 12.4 11.05" fill="#5d3917" fill-rule="evenodd" stroke="none"/>
    <path d="M12.4 11.05 L13.35 11.85 16.05 11.75" fill="none" stroke="#000000" stroke-linecap="round" stroke-linejoin="round" stroke-width="0.7000000000000001"/>
    <path d="M19.65 12.5 L22.9 10.75 Q20.55 13.35 19.65 12.5" fill="#5d3917" fill-rule="evenodd" stroke="none"/>
    <path d="M19.65 12.5 Q20.55 13.35 22.9 10.75" fill="none" stroke="#000000" stroke-linecap="round" stroke-linejoin="round" stroke-width="0.7000000000000001"/>
    <path d="M3.7 8.55 L6.9 10.4 Q5.05 10.55 4.35 9.65 3.65 8.7 3.7 8.55" fill="#5d3917" fill-rule="evenodd" stroke="none"/>
    <path d="M3.7 8.55 Q3.65 8.7 4.35 9.65 5.05 10.55 6.9 10.4" fill="none" stroke="#000000" stroke-linecap="round" stroke-linejoin="round" stroke-width="0.7000000000000001"/>
  </g>
</svg>
