<?xml version="1.0" encoding="UTF-8" standalone="no"?>
<svg xmlns:xlink="http://www.w3.org/1999/xlink" height="26.7px" width="25.6px" xmlns="http://www.w3.org/2000/svg">
  <g transform="matrix(1.0, 0.0, 0.0, 1.0, -1.05, -0.55)">
    <path d="M4.3 7.4 Q6.1 7.85 8.35 5.9 10.6 3.95 13.35 3.6 16.25 3.95 18.7 5.85 21.15 7.75 23.0 7.25 23.65 9.4 23.7 11.85 23.8 14.8 21.6 20.55 19.35 26.25 13.5 26.9 7.85 26.35 5.55 21.05 3.25 15.75 3.35 11.85 3.55 9.5 4.3 7.4" fill="#e0b38c" fill-rule="evenodd" stroke="none"/>
    <path d="M4.3 7.4 Q3.55 9.5 3.35 11.85 3.25 15.75 5.55 21.05 7.85 26.35 13.5 26.9 19.35 26.25 21.6 20.55 23.8 14.8 23.7 11.85 23.65 9.4 23.0 7.25 21.15 7.75 18.7 5.85 16.25 3.95 13.35 3.6 10.6 3.95 8.35 5.9 6.1 7.85 4.3 7.4 Z" fill="none" stroke="#000000" stroke-linecap="round" stroke-linejoin="round" stroke-width="0.7000000000000001"/>
    <path d="M25.9 12.0 Q25.8 16.65 24.0 19.8 22.7 18.85 22.15 20.85 21.6 22.9 21.7 24.15 L20.35 23.3 Q19.3 22.45 18.2 22.95 17.3 23.6 16.45 24.85 L15.6 26.2 Q14.85 26.2 13.6 23.3 L13.6 23.2 Q11.75 25.85 11.95 26.3 11.6 25.6 9.5 23.9 L7.0 23.85 5.3 24.3 Q5.8 23.2 5.55 21.4 5.25 19.55 3.35 20.6 1.95 17.2 1.9 12.25 1.9 7.3 6.75 2.9 11.95 -0.15 14.2 1.6 L14.25 2.0 14.45 1.55 Q16.5 0.0 21.2 2.9 25.95 7.3 25.9 12.0" fill="#bfa14a" fill-rule="evenodd" stroke="none"/>
    <path d="M25.9 12.0 Q25.95 7.3 21.2 2.9 16.5 0.0 14.45 1.55 L14.25 2.0 14.2 1.6 Q11.95 -0.15 6.75 2.9 1.9 7.3 1.9 12.25 1.95 17.2 3.35 20.6 5.25 19.55 5.55 21.4 5.8 23.2 5.3 24.3 L7.0 23.85 9.5 23.9 Q11.6 25.6 11.95 26.3 11.75 25.85 13.6 23.2 L13.6 23.3 Q14.85 26.2 15.6 26.2 L16.45 24.85 Q17.3 23.6 18.2 22.95 19.3 22.45 20.35 23.3 L21.7 24.15 Q21.6 22.9 22.15 20.85 22.7 18.85 24.0 19.8 25.8 16.65 25.9 12.0 Z" fill="none" stroke="#000000" stroke-linecap="round" stroke-linejoin="round" stroke-width="0.8500000000000001"/>
    <path d="M7.3 7.5 Q4.3 8.15 2.9 11.3 1.45 14.45 1.45 14.9 1.4 7.55 4.25 4.65 7.05 1.75 9.65 1.55 L7.3 7.5" fill="#bfa14a" fill-rule="evenodd" stroke="none"/>
    <path d="M9.65 1.55 Q7.05 1.75 4.25 4.65 1.4 7.55 1.45 14.9 1.45 14.45 2.9 11.3 4.3 8.15 7.3 7.5" fill="none" stroke="#000000" stroke-linecap="round" stroke-linejoin="round" stroke-width="0.8500000000000001"/>
    <path d="M19.7 7.5 L17.55 1.1 Q20.2 1.35 23.2 4.4 26.25 7.5 26.25 14.85 L24.45 11.3 Q22.7 8.15 19.7 7.5" fill="#bfa14a" fill-rule="evenodd" stroke="none"/>
    <path d="M17.55 1.1 Q20.2 1.35 23.2 4.4 26.25 7.5 26.25 14.85 L24.45 11.3 Q22.7 8.15 19.7 7.5" fill="none" stroke="#000000" stroke-linecap="round" stroke-linejoin="round" stroke-width="0.8500000000000001"/>
    <path d="M6.95 7.7 L8.35 10.5 Q6.1 11.2 5.25 13.7 4.4 16.25 4.45 16.6 3.3 11.55 4.95 9.55 6.6 7.6 6.95 7.7" fill="#bfa14a" fill-rule="evenodd" stroke="none"/>
    <path d="M6.95 7.7 Q6.6 7.6 4.95 9.55 3.3 11.55 4.45 16.6 4.4 16.25 5.25 13.7 6.1 11.2 8.35 10.5" fill="none" stroke="#000000" stroke-linecap="round" stroke-linejoin="round" stroke-width="0.8500000000000001"/>
    <path d="M18.55 10.5 L19.35 7.45 Q19.7 7.3 21.7 8.9 23.7 10.55 23.55 15.7 L22.2 13.05 Q20.85 10.75 18.55 10.5" fill="#bfa14a" fill-rule="evenodd" stroke="none"/>
    <path d="M19.35 7.45 Q19.7 7.3 21.7 8.9 23.7 10.55 23.55 15.7 L22.2 13.05 Q20.85 10.75 18.55 10.5" fill="none" stroke="#000000" stroke-linecap="round" stroke-linejoin="round" stroke-width="0.8500000000000001"/>
    <path d="M16.4 12.65 L18.25 10.15 Q18.6 10.15 19.9 12.35 21.15 14.6 19.1 19.4 L18.8 16.4 Q18.45 13.75 16.4 12.65" fill="#bfa14a" fill-rule="evenodd" stroke="none"/>
    <path d="M18.25 10.15 Q18.6 10.15 19.9 12.35 21.15 14.6 19.1 19.4 L18.8 16.4 Q18.45 13.75 16.4 12.65" fill="none" stroke="#000000" stroke-linecap="round" stroke-linejoin="round" stroke-width="0.8500000000000001"/>
    <path d="M8.65 10.25 L11.0 12.25 Q9.25 13.75 9.5 16.45 L9.9 19.4 Q6.8 15.25 7.55 12.75 8.3 10.3 8.65 10.25" fill="#bfa14a" fill-rule="evenodd" stroke="none"/>
    <path d="M8.65 10.25 Q8.3 10.3 7.55 12.75 6.8 15.25 9.9 19.4 L9.5 16.45 Q9.25 13.75 11.0 12.25" fill="none" stroke="#000000" stroke-linecap="round" stroke-linejoin="round" stroke-width="0.8500000000000001"/>
    <path d="M11.05 11.95 L13.95 13.15 Q12.75 15.15 13.8 17.6 L15.1 20.3 Q10.9 17.3 10.8 14.7 10.75 12.15 11.05 11.95" fill="#bfa14a" fill-rule="evenodd" stroke="none"/>
    <path d="M11.05 11.95 Q10.75 12.15 10.8 14.7 10.9 17.3 15.1 20.3 L13.8 17.6 Q12.75 15.15 13.95 13.15" fill="none" stroke="#000000" stroke-linecap="round" stroke-linejoin="round" stroke-width="0.8500000000000001"/>
  </g>
</svg>
