<?xml version="1.0" encoding="UTF-8" standalone="no"?>
<svg xmlns:xlink="http://www.w3.org/1999/xlink" height="28.95px" width="26.65px" xmlns="http://www.w3.org/2000/svg">
  <g transform="matrix(1.0, 0.0, 0.0, 1.0, 0.35, 0.35)">
    <path d="M2.5 15.55 L1.8 15.7 1.5 13.8 Q1.3 13.0 0.0 13.55 0.05 11.65 0.7 10.45 1.3 9.25 2.0 8.45 L3.15 7.0 2.8 6.65 1.9 6.45 Q1.45 6.3 1.55 6.15 1.9 5.7 2.75 5.25 L4.5 4.4 5.8 3.65 Q6.1 3.4 5.9 3.05 L4.75 2.15 5.8 1.9 7.55 1.65 8.65 1.45 Q9.35 1.25 8.65 1.05 L6.4 0.4 9.3 0.05 11.85 0.45 13.25 0.8 14.6 0.5 16.8 0.05 18.75 0.15 17.65 0.7 16.65 1.2 Q16.25 1.4 16.4 1.5 L18.45 2.1 21.45 3.2 24.4 5.15 22.45 5.25 22.25 5.35 22.45 5.5 23.7 6.45 25.1 7.75 24.15 7.95 Q23.9 7.8 24.1 8.15 L25.15 10.1 25.95 12.15 24.85 12.25 24.75 13.6 24.6 13.6 20.9 13.0 Q18.8 12.45 16.55 11.4 L16.2 11.25 14.55 12.6 11.65 14.4 Q12.15 12.95 11.55 12.85 11.0 12.8 9.95 13.45 L7.95 14.8 6.8 15.65 Q7.35 14.15 6.45 14.25 5.55 14.3 4.15 14.95 L2.5 15.55 M18.25 9.15 L16.8 10.6 16.2 11.25 16.8 10.6 18.25 9.15 M24.3 16.05 L24.45 18.5 Q24.4 20.25 23.55 22.05 L23.3 20.3 23.25 19.7 24.1 16.85 24.3 16.05 M4.0 20.9 L3.9 21.4 3.95 22.05 4.0 23.85 Q2.85 22.2 2.55 20.45 2.2 18.7 2.3 17.5 L2.4 16.2 2.7 16.6 2.85 17.5 Q3.25 19.2 4.0 20.9 M9.35 5.35 L8.8 5.65 6.55 6.85 Q7.4 5.1 8.1 4.45 8.8 3.8 9.25 3.7 L9.65 3.7 9.25 3.7 Q8.8 3.8 8.1 4.45 7.4 5.1 6.55 6.85 L8.8 5.65 9.35 5.35 M12.75 8.05 L11.3 9.35 10.7 9.7 8.85 10.75 12.5 10.25 15.15 8.9 16.2 8.15 15.15 8.9 12.5 10.25 8.85 10.75 10.7 9.7 11.3 9.35 12.75 8.05 M16.4 4.35 L16.95 4.65 19.2 5.85 17.65 3.45 Q16.95 2.8 16.55 2.7 L16.1 2.7 16.55 2.7 Q16.95 2.8 17.65 3.45 L19.2 5.85 16.95 4.65 16.4 4.35" fill="#73420d" fill-rule="evenodd" stroke="none"/>
    <path d="M2.5 15.55 L4.15 14.95 Q5.55 14.3 6.45 14.25 7.35 14.15 6.8 15.65 L7.95 14.8 9.95 13.45 Q11.0 12.8 11.55 12.85 12.15 12.95 11.65 14.4 L14.55 12.6 16.2 11.25 16.55 11.4 Q18.8 12.45 20.9 13.0 L24.6 13.6 24.3 16.05 24.1 16.85 23.25 19.7 22.3 21.9 Q21.05 24.5 18.85 26.35 16.7 28.15 13.45 28.25 10.3 28.2 8.15 26.55 6.0 24.9 4.7 22.45 L4.0 20.9 Q3.25 19.2 2.85 17.5 L2.7 16.6 2.5 15.55 M19.6 22.55 Q17.2 24.15 14.95 24.4 L10.9 24.15 8.05 23.1 6.95 22.45 8.05 23.1 10.9 24.15 14.95 24.4 Q17.2 24.15 19.6 22.55" fill="#e0b38c" fill-rule="evenodd" stroke="none"/>
    <path d="M24.6 13.6 L24.75 13.6 24.85 12.25 25.95 12.15 25.15 10.1 24.1 8.15 Q23.9 7.8 24.15 7.95 L25.1 7.75 23.7 6.45 22.45 5.5 22.25 5.35 22.45 5.25 24.4 5.15 21.45 3.2 18.45 2.1 16.4 1.5 Q16.25 1.4 16.65 1.2 L17.65 0.7 18.75 0.15 16.8 0.05 14.6 0.5 13.25 0.8 11.85 0.45 9.3 0.05 6.4 0.4 8.65 1.05 Q9.35 1.25 8.65 1.45 L7.55 1.65 5.8 1.9 4.75 2.15 5.9 3.05 Q6.1 3.4 5.8 3.65 L4.5 4.4 2.75 5.25 Q1.9 5.7 1.55 6.15 1.45 6.3 1.9 6.45 L2.8 6.65 3.15 7.0 2.0 8.45 Q1.3 9.25 0.7 10.45 0.05 11.65 0.0 13.55 1.3 13.0 1.5 13.8 L1.8 15.7 2.5 15.55 4.15 14.95 Q5.55 14.3 6.45 14.25 7.35 14.15 6.8 15.65 L7.95 14.8 9.95 13.45 Q11.0 12.8 11.55 12.85 12.15 12.95 11.65 14.4 L14.55 12.6 16.2 11.25 16.8 10.6 18.25 9.15 M16.2 11.25 L16.55 11.4 Q18.8 12.45 20.9 13.0 L24.6 13.6 24.3 16.05 24.45 18.5 Q24.4 20.25 23.55 22.05 L23.3 20.3 23.25 19.7 22.3 21.9 Q21.05 24.5 18.85 26.35 16.7 28.15 13.45 28.25 10.3 28.2 8.15 26.55 6.0 24.9 4.7 22.45 L4.0 20.9 3.9 21.4 3.95 22.05 4.0 23.85 Q2.85 22.2 2.55 20.45 2.2 18.7 2.3 17.5 L2.4 16.2 M2.7 16.6 L2.5 15.55 M23.25 19.7 L24.1 16.85 24.3 16.05 M16.1 2.7 L16.55 2.7 Q16.95 2.8 17.65 3.45 L19.2 5.85 16.95 4.65 16.4 4.35 M16.2 8.15 L15.15 8.9 12.5 10.25 8.85 10.75 10.7 9.7 11.3 9.35 12.75 8.05 M9.65 3.7 L9.25 3.7 Q8.8 3.8 8.1 4.45 7.4 5.1 6.55 6.85 L8.8 5.65 9.35 5.35 M2.7 16.6 L2.85 17.5 Q3.25 19.2 4.0 20.9 M6.95 22.45 L8.05 23.1 10.9 24.15 14.95 24.4 Q17.2 24.15 19.6 22.55" fill="none" stroke="#000000" stroke-linecap="round" stroke-linejoin="round" stroke-width="0.75"/>
  </g>
</svg>
