<?xml version="1.0" encoding="UTF-8" standalone="no"?>
<svg xmlns:xlink="http://www.w3.org/1999/xlink" height="7.35px" width="14.65px" xmlns="http://www.w3.org/2000/svg">
  <g transform="matrix(1.0, 0.0, 0.0, 1.0, 0.35, 0.35)">
    <path d="M6.65 3.3 Q6.65 4.75 5.7 5.7 4.75 6.65 3.3 6.65 1.9 6.65 0.95 5.7 0.0 4.75 0.0 3.3 0.0 1.9 0.95 0.95 1.9 0.0 3.3 0.0 4.75 0.0 5.7 0.95 6.65 1.9 6.65 3.3" fill="#ffffff" fill-rule="evenodd" stroke="none"/>
    <path d="M6.65 3.3 Q6.65 4.75 5.7 5.7 4.75 6.65 3.3 6.65 1.9 6.65 0.95 5.7 0.0 4.75 0.0 3.3 0.0 1.9 0.95 0.95 1.9 0.0 3.3 0.0 4.75 0.0 5.7 0.95 6.65 1.9 6.65 3.3 Z" fill="none" stroke="#000000" stroke-linecap="round" stroke-linejoin="round" stroke-width="0.75"/>
    <path d="M13.95 3.3 Q13.95 4.75 13.0 5.7 12.05 6.65 10.6 6.65 9.2 6.65 8.25 5.7 7.3 4.75 7.3 3.3 7.3 1.9 8.25 0.95 9.2 0.0 10.6 0.0 12.05 0.0 13.0 0.95 13.95 1.9 13.95 3.3" fill="#ffffff" fill-rule="evenodd" stroke="none"/>
    <path d="M13.95 3.3 Q13.95 4.75 13.0 5.7 12.05 6.65 10.6 6.65 9.2 6.65 8.25 5.7 7.3 4.75 7.3 3.3 7.3 1.9 8.25 0.95 9.2 0.0 10.6 0.0 12.05 0.0 13.0 0.95 13.95 1.9 13.95 3.3 Z" fill="none" stroke="#000000" stroke-linecap="round" stroke-linejoin="round" stroke-width="0.75"/>
    <path d="M4.9 3.4 L4.45 4.5 Q4.0 4.9 3.35 4.95 2.7 4.95 2.3 4.5 1.85 4.05 1.85 3.4 1.85 2.75 2.3 2.35 2.7 1.9 3.35 1.9 4.0 1.9 4.45 2.35 4.85 2.75 4.9 3.4" fill="#000000" fill-rule="evenodd" stroke="none"/>
    <path d="M12.1 3.45 L11.65 4.55 Q11.2 5.0 10.55 5.0 L9.45 4.55 Q9.0 4.1 9.0 3.45 9.0 2.8 9.45 2.35 9.9 1.9 10.55 1.9 11.2 1.9 11.65 2.35 L12.1 3.45" fill="#000000" fill-rule="evenodd" stroke="none"/>
  </g>
</svg>
