<?xml version="1.0" encoding="UTF-8" standalone="no"?>
<svg xmlns:xlink="http://www.w3.org/1999/xlink" height="103.8px" width="89.6px" xmlns="http://www.w3.org/2000/svg">
  <g transform="matrix(1.0, 0.0, 0.0, 1.0, 24.35, -26.4)">
    <path d="M37.3 37.95 L33.7 40.55 Q31.7 38.2 28.75 36.75 25.2 38.45 24.65 42.15 23.25 53.1 33.4 50.25 L34.0 50.65 Q36.25 51.0 37.95 50.2 44.4 47.0 41.45 39.9 L40.35 39.05 Q39.05 38.2 37.3 37.95 M7.95 33.7 Q21.05 21.15 44.8 30.25 43.1 49.9 53.45 54.4 63.75 58.9 65.15 71.9 66.5 84.85 48.1 91.55 L-24.35 130.2 Q-19.4 84.15 -8.85 67.9 1.7 51.6 2.45 43.9 3.2 36.25 7.95 33.7" fill="#ffffff" fill-rule="evenodd" stroke="none"/>
  </g>
</svg>
