<?xml version="1.0" encoding="UTF-8" standalone="no"?>
<svg xmlns:xlink="http://www.w3.org/1999/xlink" height="26.9px" width="29.0px" xmlns="http://www.w3.org/2000/svg">
  <g transform="matrix(1.0, 0.0, 0.0, 1.0, 1.6, -1.45)">
    <path d="M22.75 20.65 Q24.35 16.6 24.6 14.1 L19.6 13.35 Q14.45 12.5 13.3 9.4 L13.2 5.85 13.05 9.4 Q11.9 12.5 6.75 13.35 L2.4 14.0 Q2.5 16.6 3.75 19.85 2.3 22.5 -0.45 23.9 -2.4 16.0 0.4 12.1 L1.05 11.3 1.7 7.95 Q2.95 2.55 11.85 1.8 12.95 1.85 13.2 2.2 13.4 1.85 14.5 1.8 23.4 2.55 24.65 7.95 L25.3 11.0 25.75 11.7 Q28.3 15.7 25.85 23.5 23.95 22.35 22.75 20.65 M24.6 14.1 L25.4 14.1 Q25.75 13.6 25.3 11.0 25.75 13.6 25.4 14.1 L24.6 14.1 M13.2 5.85 L13.15 2.7 Q13.05 2.4 13.2 2.2 13.05 2.4 13.15 2.7 L13.2 5.85 M1.05 11.3 Q0.65 13.6 0.95 14.1 L2.4 14.0 0.95 14.1 Q0.65 13.6 1.05 11.3" fill="#73420d" fill-rule="evenodd" stroke="none"/>
    <path d="M3.75 19.85 Q2.5 16.6 2.4 14.0 L6.75 13.35 Q11.9 12.5 13.05 9.4 L13.2 5.85 13.3 9.4 Q14.45 12.5 19.6 13.35 L24.6 14.1 Q24.35 16.6 22.75 20.65 L22.35 21.65 Q19.9 27.35 13.5 28.0 7.3 27.5 4.75 22.2 L3.75 19.85 M19.6 22.25 Q14.65 25.15 10.9 23.85 7.15 22.55 6.95 22.15 7.15 22.55 10.9 23.85 14.65 25.15 19.6 22.25" fill="#e0b38c" fill-rule="evenodd" stroke="none"/>
    <path d="M22.75 20.65 Q24.35 16.6 24.6 14.1 L19.6 13.35 Q14.45 12.5 13.3 9.4 L13.2 5.85 13.05 9.4 Q11.9 12.5 6.75 13.35 L2.4 14.0 Q2.5 16.6 3.75 19.85 L4.75 22.2 Q7.3 27.5 13.5 28.0 19.9 27.35 22.35 21.65 L22.75 20.65 Q23.95 22.35 25.85 23.5 28.3 15.7 25.75 11.7 L25.3 11.0 Q25.75 13.6 25.4 14.1 L24.6 14.1 M25.3 11.0 L24.65 7.95 Q23.4 2.55 14.5 1.8 13.4 1.85 13.2 2.2 13.05 2.4 13.15 2.7 L13.2 5.85 M3.75 19.85 Q2.3 22.5 -0.45 23.9 -2.4 16.0 0.4 12.1 L1.05 11.3 1.7 7.95 Q2.95 2.55 11.85 1.8 12.95 1.85 13.2 2.2 M2.4 14.0 L0.95 14.1 Q0.65 13.6 1.05 11.3 M6.95 22.15 Q7.15 22.55 10.9 23.85 14.65 25.15 19.6 22.25" fill="none" stroke="#000000" stroke-linecap="round" stroke-linejoin="round" stroke-width="0.75"/>
  </g>
</svg>
