<?xml version="1.0" encoding="UTF-8" standalone="no"?>
<svg xmlns:xlink="http://www.w3.org/1999/xlink" height="32.7px" width="30.45px" xmlns="http://www.w3.org/2000/svg">
  <g transform="matrix(1.0, 0.0, 0.0, 1.0, 1.65, 3.95)">
    <path d="M3.95 20.85 Q0.65 20.5 0.35 17.3 0.35 16.5 0.7 15.8 -1.15 14.85 -1.25 12.7 -1.2 11.5 -0.5 10.65 -1.3 9.7 -1.3 8.45 -1.3 6.9 -0.15 5.85 L-0.25 5.1 Q-0.05 2.6 2.35 1.75 L2.35 1.7 Q2.65 -1.55 6.1 -1.85 L7.0 -1.75 Q8.05 -3.55 10.25 -3.6 11.5 -3.6 12.45 -2.95 13.35 -3.6 14.6 -3.6 16.25 -3.6 17.35 -2.45 L18.85 -2.8 Q21.4 -2.65 22.35 -0.5 L22.65 -0.55 Q26.05 -0.2 26.35 3.0 L26.25 3.8 Q28.15 4.8 28.3 6.95 28.25 7.9 27.8 8.65 28.45 9.5 28.45 10.65 28.4 12.0 27.5 12.95 L27.5 13.0 27.7 14.05 Q27.6 15.9 26.15 16.9 L25.85 17.4 25.85 17.5 Q25.65 20.25 22.9 20.95 L22.7 21.15 Q24.7 16.05 24.6 13.35 25.5 10.65 13.25 10.45 2.2 10.7 2.3 13.35 2.2 16.6 3.95 20.85 M4.55 8.75 Q2.2 11.35 1.3 10.45 2.2 11.35 4.55 8.75 M8.4 5.0 Q6.55 5.15 5.85 4.25 5.15 3.3 5.2 3.15 5.15 3.3 5.85 4.25 6.55 5.15 8.4 5.0 M15.2 1.25 Q13.7 2.35 12.6 1.95 L11.5 1.4 12.6 1.95 Q13.7 2.35 15.2 1.25 M14.15 8.45 L11.45 8.55 10.5 7.75 11.45 8.55 14.15 8.45 M18.85 4.9 Q17.6 6.3 16.45 6.05 L15.25 5.7 16.45 6.05 Q17.6 6.3 18.85 4.9 M24.7 7.75 Q23.2 8.85 22.1 8.45 L21.0 7.9 22.1 8.45 Q23.2 8.85 24.7 7.75" fill="#5d3917" fill-rule="evenodd" stroke="none"/>
    <path d="M3.95 20.85 Q2.2 16.6 2.3 13.35 2.2 10.7 13.25 10.45 25.5 10.65 24.6 13.35 24.7 16.05 22.7 21.15 L22.3 22.05 Q19.85 27.75 13.45 28.4 7.25 27.85 4.7 22.55 L3.95 20.85 M19.55 22.65 Q14.6 25.55 10.85 24.25 7.1 22.95 6.9 22.55 7.1 22.95 10.85 24.25 14.6 25.55 19.55 22.65" fill="#e0b38c" fill-rule="evenodd" stroke="none"/>
    <path d="M22.7 21.15 L22.9 20.95 Q25.65 20.25 25.85 17.5 L25.85 17.4 26.15 16.9 Q27.6 15.9 27.7 14.05 L27.5 13.0 27.5 12.95 Q28.4 12.0 28.45 10.65 28.45 9.5 27.8 8.65 28.25 7.9 28.3 6.95 28.15 4.8 26.25 3.8 L26.35 3.0 Q26.05 -0.2 22.65 -0.55 L22.35 -0.5 Q21.4 -2.65 18.85 -2.8 L17.35 -2.45 Q16.25 -3.6 14.6 -3.6 13.35 -3.6 12.45 -2.95 11.5 -3.6 10.25 -3.6 8.05 -3.55 7.0 -1.75 L6.1 -1.85 Q2.65 -1.55 2.35 1.7 L2.35 1.75 Q-0.05 2.6 -0.25 5.1 L-0.15 5.85 Q-1.3 6.9 -1.3 8.45 -1.3 9.7 -0.5 10.65 -1.2 11.5 -1.25 12.7 -1.15 14.85 0.7 15.8 0.35 16.5 0.35 17.3 0.65 20.5 3.95 20.85 2.2 16.6 2.3 13.35 2.2 10.7 13.25 10.45 25.5 10.65 24.6 13.35 24.7 16.05 22.7 21.15 L22.3 22.05 Q19.85 27.75 13.45 28.4 7.25 27.85 4.7 22.55 L3.95 20.85 M6.9 22.55 Q7.1 22.95 10.85 24.25 14.6 25.55 19.55 22.65" fill="none" stroke="#000000" stroke-linecap="round" stroke-linejoin="round" stroke-width="0.75"/>
    <path d="M21.0 7.9 L22.1 8.45 Q23.2 8.85 24.7 7.75 M15.25 5.7 L16.45 6.05 Q17.6 6.3 18.85 4.9 M10.5 7.75 L11.45 8.55 14.15 8.45 M11.5 1.4 L12.6 1.95 Q13.7 2.35 15.2 1.25 M5.2 3.15 Q5.15 3.3 5.85 4.25 6.55 5.15 8.4 5.0 M1.3 10.45 Q2.2 11.35 4.55 8.75" fill="none" stroke="#000000" stroke-linecap="round" stroke-linejoin="round" stroke-width="0.7000000000000001"/>
  </g>
</svg>
