<?xml version="1.0" encoding="UTF-8" standalone="no"?>
<svg xmlns:xlink="http://www.w3.org/1999/xlink" height="13.75px" width="11.3px" xmlns="http://www.w3.org/2000/svg">
  <g transform="matrix(1.0, 0.0, 0.0, 1.0, 5.65, 13.75)">
    <path d="M-5.1 -10.5 Q-4.5 -11.8 -3.55 -12.65 -4.9 -10.9 -4.95 -8.3 -4.9 -5.7 -3.55 -3.95 -2.15 -2.2 -0.1 -2.15 1.45 -2.2 2.65 -3.25 1.25 -1.5 -0.8 -1.4 -2.85 -1.5 -4.25 -3.2 -5.6 -4.95 -5.65 -7.6 -5.65 -9.15 -5.1 -10.5" fill="#c3c3c3" fill-rule="evenodd" stroke="none"/>
    <path d="M-0.8 -13.75 Q1.25 -13.7 2.6 -11.95 3.95 -10.2 4.0 -7.6 3.95 -5.0 2.65 -3.25 1.45 -2.2 -0.1 -2.15 -2.15 -2.25 -3.55 -3.95 -4.9 -5.7 -4.95 -8.35 -4.9 -10.9 -3.55 -12.65 -2.35 -13.7 -0.8 -13.75" fill="#ffffff" fill-rule="evenodd" stroke="none"/>
    <path d="M-0.4 -2.75 L-0.1 -2.95 1.1 -3.4 Q0.65 -1.35 -0.15 -0.65 -0.9 0.0 -1.55 0.0 L-2.25 -0.1 Q-3.3 -0.9 -3.3 -1.75 -3.3 -2.6 -2.9 -3.15 L-2.5 -3.75 -1.8 -2.6 -1.0 -3.65 -0.4 -2.75" fill="#ec6829" fill-rule="evenodd" stroke="none"/>
    <path d="M4.15 -3.15 L4.45 -3.35 5.65 -3.8 Q5.2 -1.75 4.4 -1.05 3.65 -0.4 3.0 -0.4 L2.3 -0.5 Q1.25 -1.3 1.25 -2.15 1.25 -3.0 1.65 -3.55 L2.05 -4.15 2.75 -3.0 3.55 -4.05 4.15 -3.15" fill="#ec6829" fill-rule="evenodd" stroke="none"/>
  </g>
</svg>
