<?xml version="1.0" encoding="UTF-8" standalone="no"?>
<svg xmlns:xlink="http://www.w3.org/1999/xlink" height="65.75px" width="72.45px" xmlns="http://www.w3.org/2000/svg">
  <g transform="matrix(1.0, 0.0, 0.0, 1.0, 36.2, 73.25)">
    <path d="M-4.4 -55.95 L-2.7 -56.65 2.15 -8.7 2.2 -8.3 1.75 -7.7 0.0 -7.5 Q-0.95 -7.7 -1.5 -8.4 L-2.1 -9.15 -4.4 -55.95" fill="#000000" fill-rule="evenodd" stroke="none"/>
    <path d="M22.2 -28.7 L-9.25 -19.45 -32.3 -29.25 -36.2 -45.75 -28.2 -59.55 -15.05 -68.7 0.3 -73.25 16.3 -72.7 30.5 -65.45 36.25 -49.5 22.2 -28.7" fill="#ffe000" fill-rule="evenodd" stroke="none"/>
    <path d="M-9.1 -19.35 L-3.35 -55.3 22.15 -28.7 -9.1 -19.35" fill="#ff1f70" fill-rule="evenodd" stroke="none"/>
    <path d="M30.5 -65.45 L36.25 -49.45 35.8 -50.05 34.15 -51.25 Q33.0 -51.95 30.85 -52.4 L26.05 -53.05 19.05 -53.7 11.3 -54.3 4.05 -54.8 -1.25 -55.15 -3.35 -55.25 -0.8 -56.1 5.35 -58.2 13.0 -60.8 19.85 -63.2 Q22.8 -64.2 23.75 -64.55 25.2 -65.1 26.75 -65.25 L29.4 -65.45 30.5 -65.45" fill="#ff1f70" fill-rule="evenodd" stroke="none"/>
    <path d="M7.2 -65.95 L2.6 -61.3 -1.55 -57.1 -3.35 -55.3 0.3 -73.25 16.3 -72.7 15.35 -72.25 Q14.45 -71.8 13.1 -71.0 11.75 -70.2 10.45 -69.05 L7.2 -65.95" fill="#ff1f70" fill-rule="evenodd" stroke="none"/>
    <path d="M-5.4 -55.75 L-10.15 -56.75 -16.0 -58.05 -21.1 -59.1 -23.75 -59.65 -25.55 -59.7 -27.4 -59.6 -28.25 -59.55 -15.45 -68.55 -3.4 -55.3 -5.4 -55.75" fill="#ff1f70" fill-rule="evenodd" stroke="none"/>
    <path d="M-9.75 -50.5 L-15.75 -46.0 -21.75 -41.5 -26.45 -37.9 Q-29.4 -35.5 -30.65 -33.55 -31.9 -31.6 -32.15 -30.45 L-32.3 -29.3 -36.2 -45.75 -34.2 -46.95 -29.65 -49.05 -25.65 -50.2 -18.95 -51.8 -11.65 -53.45 -5.75 -54.75 -3.35 -55.3 Q-3.4 -55.25 -5.2 -53.95 L-9.75 -50.5" fill="#ff1f70" fill-rule="evenodd" stroke="none"/>
    <path d="M-9.1 -19.3 L-32.35 -29.25 -32.1 -30.3 -31.3 -32.6 Q-30.7 -33.9 -29.7 -34.85 L-26.9 -34.9 Q-24.8 -34.45 -21.95 -33.3 -19.1 -32.2 -16.25 -30.65 -13.4 -29.15 -11.3 -27.5 -9.15 -25.9 -8.45 -24.4 -8.3 -23.75 -8.45 -22.55 L-8.85 -20.35 -9.1 -19.3" fill="#d9b324" fill-rule="evenodd" stroke="none"/>
    <path d="M-36.2 -45.75 L-28.2 -59.55 -27.6 -59.55 -33.0 -47.4 -36.2 -45.75" fill="#d9b324" fill-rule="evenodd" stroke="none"/>
    <path d="M-9.1 -19.3 L-8.1 -24.6 22.15 -28.7 -9.1 -19.3" fill="#ab385c" fill-rule="evenodd" stroke="none"/>
    <path d="M-32.3 -29.3 L-36.2 -45.75 -33.0 -47.45 -32.0 -45.85 Q-31.1 -44.3 -30.25 -41.5 -29.45 -38.7 -29.7 -34.95 -31.45 -32.55 -31.9 -30.9 L-32.3 -29.3" fill="#ab385c" fill-rule="evenodd" stroke="none"/>
  </g>
</svg>
