<?xml version="1.0" encoding="UTF-8" standalone="no"?>
<svg xmlns:xlink="http://www.w3.org/1999/xlink" height="65.8px" width="72.45px" xmlns="http://www.w3.org/2000/svg">
  <g transform="matrix(1.0, 0.0, 0.0, 1.0, 36.2, 73.3)">
    <path d="M-4.35 -55.95 L-2.65 -56.65 2.2 -8.7 2.25 -8.3 Q2.25 -7.95 1.8 -7.7 L0.05 -7.5 Q-0.9 -7.7 -1.45 -8.4 L-2.05 -9.15 -4.35 -55.95" fill="#000000" fill-rule="evenodd" stroke="none"/>
    <path d="M22.2 -28.75 L-9.25 -19.5 -32.3 -29.3 -36.2 -45.8 -28.2 -59.6 -15.05 -68.75 0.3 -73.3 16.3 -72.75 30.5 -65.5 36.25 -49.55 22.2 -28.75" fill="#ffe000" fill-rule="evenodd" stroke="none"/>
    <path d="M-9.05 -19.4 L-3.35 -55.35 22.2 -28.75 -9.05 -19.4" fill="#6ea60f" fill-rule="evenodd" stroke="none"/>
    <path d="M30.5 -65.5 L36.25 -49.5 35.8 -50.1 34.15 -51.3 Q33.0 -52.0 30.85 -52.45 L26.05 -53.1 19.05 -53.75 11.3 -54.35 4.05 -54.85 -1.25 -55.2 -3.35 -55.3 -0.8 -56.15 5.35 -58.25 13.0 -60.85 19.85 -63.2 23.75 -64.6 Q25.2 -65.15 26.75 -65.3 L29.4 -65.5 30.5 -65.5" fill="#6ea60f" fill-rule="evenodd" stroke="none"/>
    <path d="M7.2 -66.0 L2.6 -61.35 -1.55 -57.15 -3.35 -55.35 0.3 -73.3 16.3 -72.75 15.35 -72.3 Q14.45 -71.85 13.1 -71.05 11.75 -70.25 10.45 -69.1 L7.2 -66.0" fill="#6ea60f" fill-rule="evenodd" stroke="none"/>
    <path d="M-5.35 -55.8 L-10.1 -56.8 -15.95 -58.1 -21.05 -59.2 -23.7 -59.7 -25.5 -59.75 -27.35 -59.65 -28.2 -59.6 -15.4 -68.6 -3.35 -55.35 -5.35 -55.8" fill="#6ea60f" fill-rule="evenodd" stroke="none"/>
    <path d="M-9.75 -50.55 L-15.75 -46.05 -21.75 -41.55 -26.45 -37.95 Q-29.4 -35.55 -30.65 -33.6 -31.9 -31.65 -32.15 -30.5 L-32.3 -29.35 -36.2 -45.8 -34.2 -47.0 -29.65 -49.1 -25.65 -50.25 -18.95 -51.85 -11.65 -53.5 -5.75 -54.8 -3.35 -55.35 Q-3.4 -55.3 -5.2 -54.0 L-9.75 -50.55" fill="#6ea60f" fill-rule="evenodd" stroke="none"/>
    <path d="M-9.05 -19.35 L-32.3 -29.3 -32.05 -30.35 -31.25 -32.65 Q-30.65 -33.95 -29.65 -34.9 L-26.85 -34.95 Q-24.75 -34.5 -21.9 -33.35 -19.05 -32.25 -16.2 -30.7 -13.35 -29.2 -11.25 -27.55 -9.1 -25.95 -8.4 -24.45 -8.25 -23.8 -8.4 -22.6 L-8.8 -20.4 -9.05 -19.35" fill="#d9b324" fill-rule="evenodd" stroke="none"/>
    <path d="M-36.2 -45.8 L-28.2 -59.6 -27.6 -59.6 -33.0 -47.45 -36.2 -45.8" fill="#d9b324" fill-rule="evenodd" stroke="none"/>
    <path d="M-9.05 -19.35 L-8.05 -24.65 22.2 -28.75 -9.05 -19.35" fill="#537419" fill-rule="evenodd" stroke="none"/>
    <path d="M-32.3 -29.3 L-36.2 -45.75 -33.0 -47.45 -32.0 -45.85 Q-31.1 -44.3 -30.25 -41.5 -29.45 -38.7 -29.7 -34.95 -31.45 -32.55 -31.9 -30.9 L-32.3 -29.3" fill="#537419" fill-rule="evenodd" stroke="none"/>
  </g>
</svg>
