<?xml version="1.0" encoding="UTF-8" standalone="no"?>
<svg xmlns:xlink="http://www.w3.org/1999/xlink" height="149.1px" width="97.05px" xmlns="http://www.w3.org/2000/svg">
  <g transform="matrix(1.0, 0.0, 0.0, 1.0, -62.5, -4.85)">
    <path d="M67.05 8.45 L68.7 68.05 65.0 65.25 62.5 7.05 67.05 8.45" fill="#000000" fill-rule="evenodd" stroke="none"/>
    <path d="M72.0 5.6 L71.2 66.2 68.3 68.15 67.1 8.6 62.55 7.1 68.1 4.85 72.0 5.6" fill="#3b3b3b" fill-rule="evenodd" stroke="none"/>
    <path d="M154.6 72.9 L156.25 153.85 152.55 151.05 150.05 71.5 154.6 72.9" fill="#000000" fill-rule="evenodd" stroke="none"/>
    <path d="M159.55 70.05 L158.75 152.0 155.85 153.95 154.65 73.05 150.1 71.55 155.65 69.3 159.55 70.05" fill="#3b3b3b" fill-rule="evenodd" stroke="none"/>
    <path d="M152.15 102.55 L64.8 38.65 64.8 11.3 152.15 75.25 152.15 102.55" fill="#000000" fill-rule="evenodd" stroke="none"/>
    <path d="M72.25 30.25 L64.8 24.8 64.8 11.3 72.25 16.75 72.25 30.25" fill="#ffffff" fill-rule="evenodd" stroke="none"/>
    <path d="M79.65 49.2 L72.2 43.75 72.2 30.25 79.65 35.7 79.65 49.2" fill="#ffffff" fill-rule="evenodd" stroke="none"/>
    <path d="M86.7 40.9 L79.25 35.45 79.25 21.95 86.7 27.4 86.7 40.9" fill="#ffffff" fill-rule="evenodd" stroke="none"/>
    <path d="M94.15 59.8 L86.7 54.35 86.7 40.85 94.15 46.3 94.15 59.8" fill="#ffffff" fill-rule="evenodd" stroke="none"/>
    <path d="M101.2 51.5 L93.75 46.05 93.75 32.55 101.2 38.0 101.2 51.5" fill="#ffffff" fill-rule="evenodd" stroke="none"/>
    <path d="M108.65 70.45 L101.2 65.0 101.2 51.5 108.65 56.95 108.65 70.45" fill="#ffffff" fill-rule="evenodd" stroke="none"/>
    <path d="M115.7 62.1 L108.25 56.65 108.25 43.15 115.7 48.6 115.7 62.1" fill="#ffffff" fill-rule="evenodd" stroke="none"/>
    <path d="M123.15 81.05 L115.7 75.6 115.7 62.1 123.15 67.55 123.15 81.05" fill="#ffffff" fill-rule="evenodd" stroke="none"/>
    <path d="M130.2 72.7 L122.75 67.25 122.75 53.75 130.2 59.2 130.2 72.7" fill="#ffffff" fill-rule="evenodd" stroke="none"/>
    <path d="M137.65 91.65 L130.2 86.2 130.2 72.7 137.65 78.15 137.65 91.65" fill="#ffffff" fill-rule="evenodd" stroke="none"/>
    <path d="M144.7 83.3 L137.25 77.85 137.25 64.35 144.7 69.8 144.7 83.3" fill="#ffffff" fill-rule="evenodd" stroke="none"/>
    <path d="M152.15 102.25 L144.7 96.8 144.7 83.3 152.15 88.75 152.15 102.25" fill="#ffffff" fill-rule="evenodd" stroke="none"/>
  </g>
</svg>
