<?xml version="1.0" encoding="UTF-8" standalone="no"?>
<svg xmlns:xlink="http://www.w3.org/1999/xlink" height="106.05px" width="101.65px" xmlns="http://www.w3.org/2000/svg">
  <g transform="matrix(1.0, 0.0, 0.0, 1.0, 92.1, 37.7)">
    <path d="M9.0 -8.9 L-10.55 -11.65 -14.75 -14.25 -3.0 -12.2 9.0 -8.9 M-50.0 -34.9 L-41.45 68.35 -83.0 35.25 -92.1 -37.15 -92.1 -37.7 -50.15 -35.1 -50.0 -34.9" fill="#000000" fill-rule="evenodd" stroke="none"/>
    <path d="M-49.95 -35.0 L-50.0 -34.9 -50.15 -35.1 -49.95 -35.0" fill="#999999" fill-rule="evenodd" stroke="none"/>
    <path d="M9.0 -8.9 L9.55 -8.8 9.55 -8.15 7.65 9.5 -9.9 24.4 -41.45 68.35 -50.0 -34.9 -49.95 -35.0 -14.75 -14.25 -10.55 -11.65 9.0 -8.9" fill="#5c5c5c" fill-rule="evenodd" stroke="none"/>
    <path d="M-68.05 -4.7 L-68.65 -3.05 Q-69.25 -1.5 -69.0 1.45 -68.75 4.25 -66.6 8.05 -64.6 11.85 -59.55 16.2 -67.1 14.8 -70.15 12.3 -73.35 9.8 -73.6 6.9 -73.7 4.05 -72.4 1.35 -71.1 -1.25 -69.55 -2.9 L-68.05 -4.7" fill="#666666" fill-rule="evenodd" stroke="none"/>
  </g>
</svg>
