<?xml version="1.0" encoding="UTF-8" standalone="no"?>
<svg xmlns:xlink="http://www.w3.org/1999/xlink" height="108.1px" width="107.95px" xmlns="http://www.w3.org/2000/svg">
  <g transform="matrix(1.0, 0.0, 0.0, 1.0, 98.65, 38.45)">
    <path d="M-26.05 69.65 L-31.2 -34.55 -5.0 -12.25 -4.3 -11.6 7.35 -9.5 7.4 -9.5 7.8 -9.35 9.3 -9.1 9.3 -8.35 7.4 8.75 7.0 9.4 -3.65 23.45 -25.95 69.65 -26.05 69.65" fill="#5c5c5c" fill-rule="evenodd" stroke="none"/>
    <path d="M-26.05 69.65 L-88.7 38.7 -98.65 -38.0 -98.65 -38.45 -31.2 -34.55 -26.05 69.65 M-5.0 -12.25 L7.35 -9.5 -4.3 -11.6 -5.0 -12.25" fill="#000000" fill-rule="evenodd" stroke="none"/>
    <path d="M-25.95 69.65 L-26.05 69.65 -25.95 69.65" fill="#999999" fill-rule="evenodd" stroke="none"/>
    <path d="M-66.1 -5.45 Q-66.7 -3.9 -66.45 -0.95 -66.2 1.85 -64.05 5.65 -62.05 9.45 -57.0 13.8 -64.55 12.4 -67.6 9.9 -70.8 7.4 -71.05 4.5 -71.15 1.65 -69.85 -1.05 -68.55 -3.65 -67.0 -5.3 L-65.5 -7.1 -66.1 -5.45" fill="#666666" fill-rule="evenodd" stroke="none"/>
  </g>
</svg>
