<?xml version="1.0" encoding="UTF-8" standalone="no"?>
<svg xmlns:xlink="http://www.w3.org/1999/xlink" height="154.4px" width="133.25px" xmlns="http://www.w3.org/2000/svg">
  <g transform="matrix(1.0, 0.0, 0.0, 1.0, 51.65, 65.15)">
    <path d="M34.75 -50.25 L75.6 -63.25 75.75 -63.25 76.0 -63.4 76.1 -63.4 76.35 -63.5 76.5 -63.5 76.75 -63.65 76.85 -63.65 77.1 -63.75 77.25 -63.75 77.5 -63.9 77.6 -63.9 77.85 -64.0 78.1 -64.0 78.25 -64.15 78.5 -64.15 78.6 -64.25 78.85 -64.25 79.0 -64.4 81.5 -65.15 81.6 -64.65 65.1 13.35 25.5 89.0 25.1 89.25 25.1 89.0 25.25 89.0 45.5 -52.75 34.75 -50.25 M-51.25 -40.0 L17.0 -46.0 -28.4 -35.0 -51.25 -40.0 M34.35 -50.15 L34.6 -50.25 34.6 -50.15 34.35 -50.15" fill="#000000" fill-rule="evenodd" stroke="none"/>
    <path d="M34.75 -50.25 L45.5 -52.75 25.25 89.0 25.1 89.0 -31.15 9.6 -50.65 -13.75 -51.65 -40.0 -51.25 -40.0 -28.4 -35.0 17.0 -46.0 17.35 -46.0 17.5 -46.15 34.0 -50.0 34.1 -50.15 34.35 -50.15 34.6 -50.15 34.6 -50.25 34.75 -50.25" fill="#666666" fill-rule="evenodd" stroke="none"/>
  </g>
</svg>
