<?xml version="1.0" encoding="UTF-8" standalone="no"?>
<svg xmlns:xlink="http://www.w3.org/1999/xlink" height="25.55px" width="37.8px" xmlns="http://www.w3.org/2000/svg">
  <g transform="matrix(1.0, 0.0, 0.0, 1.0, 18.0, 21.0)">
    <path d="M-18.0 -10.05 L-12.6 -19.0 15.9 -18.85 19.8 -10.35 -18.0 -10.05" fill="#9c5712" fill-rule="evenodd" stroke="none"/>
    <path d="M-8.05 -21.0 L11.75 -20.95 14.05 -13.5 -10.85 -13.5 -8.05 -21.0" fill="#3b3b3b" fill-rule="evenodd" stroke="none"/>
    <path d="M-7.35 -20.05 L4.8 -19.95 4.95 -17.6 -7.95 -17.75 -7.35 -20.05" fill="#5c5c5c" fill-rule="evenodd" stroke="none"/>
    <path d="M-8.35 -17.0 L5.05 -17.0 5.15 -14.65 -9.1 -14.45 -8.35 -17.0" fill="#5c5c5c" fill-rule="evenodd" stroke="none"/>
    <path d="M6.0 -20.1 L7.8 -20.0 8.35 -18.05 7.8 -18.05 6.8 -18.0 6.2 -18.05 6.1 -18.65 6.0 -19.65 5.95 -20.15 6.0 -20.1" fill="#87d12e" fill-rule="evenodd" stroke="none"/>
    <path d="M10.8 -20.15 L11.5 -18.2 10.95 -18.15 9.95 -18.15 9.35 -18.2 9.2 -18.75 9.05 -19.6 8.95 -20.05 10.8 -20.15" fill="#246ec2" fill-rule="evenodd" stroke="none"/>
    <path d="M6.45 -17.15 L8.45 -17.05 9.05 -14.9 8.45 -14.85 7.3 -14.8 6.65 -14.85 6.55 -15.5 6.45 -16.6 6.4 -17.2 6.45 -17.15" fill="#eb4a82" fill-rule="evenodd" stroke="none"/>
    <path d="M11.8 -17.15 L12.6 -15.0 12.0 -14.95 10.85 -14.9 10.2 -14.95 10.05 -15.55 9.85 -16.55 9.75 -17.05 11.8 -17.15" fill="#ffff00" fill-rule="evenodd" stroke="none"/>
    <path d="M-10.85 -13.5 L14.05 -13.5 12.9 -11.45 -9.9 -11.05 -10.85 -13.5" fill="#000000" fill-rule="evenodd" stroke="none"/>
    <path d="M-18.0 -10.0 L19.8 -10.3 17.9 4.55 14.75 4.1 15.15 -7.3 -14.7 -7.15 -14.85 3.75 -17.85 3.6 -18.0 -10.0" fill="#73420a" fill-rule="evenodd" stroke="none"/>
  </g>
</svg>
