<?xml version="1.0" encoding="UTF-8" standalone="no"?>
<svg xmlns:xlink="http://www.w3.org/1999/xlink" height="81.0px" width="70.6px" xmlns="http://www.w3.org/2000/svg">
  <g transform="matrix(1.0, 0.0, 0.0, 1.0, 34.85, 79.0)">
    <path d="M2.7 -79.0 L2.95 1.55 1.3 0.35 0.8 1.55 0.1 -2.7 -0.15 1.3 -1.05 0.6 -1.55 2.0 -2.75 -78.8 2.7 -79.0" fill="#545454" fill-rule="evenodd" stroke="none"/>
    <path d="M-4.85 -77.35 L-2.75 -78.8 -1.55 1.55 -2.25 0.6 -2.75 0.85 -3.25 -2.0 -5.1 0.15 -4.85 -77.35" fill="#000000" fill-rule="evenodd" stroke="none"/>
    <path d="M27.95 -49.25 L-27.05 -34.85 -31.8 -34.85 -31.3 -49.45 -34.85 -66.95 -30.4 -69.55 26.75 -66.95 31.95 -59.85 27.95 -49.25" fill="#073972" fill-rule="evenodd" stroke="none"/>
    <path d="M-30.4 -69.55 L27.75 -67.9 35.75 -58.7 31.5 -48.8 -27.3 -35.05 -27.55 -50.9 -30.4 -69.55" fill="#275da8" fill-rule="evenodd" stroke="none"/>
    <path d="M-6.05 -59.85 L-0.85 -65.3 1.55 -56.35 7.65 -53.95 0.35 -50.65 1.55 -44.5 -4.85 -50.2 -15.5 -49.0 -10.05 -55.15 -14.8 -62.95 -6.05 -59.85" fill="#ffff00" fill-rule="evenodd" stroke="none"/>
    <path d="M10.0 -62.25 L10.0 -65.55 12.35 -63.2 16.6 -63.85 14.25 -61.3 15.45 -58.0 12.35 -58.9 10.25 -55.4 9.55 -59.85 6.5 -60.6 10.0 -62.25" fill="#ffff00" fill-rule="evenodd" stroke="none"/>
  </g>
</svg>
