<?xml version="1.0" encoding="UTF-8" standalone="no"?>
<svg xmlns:xlink="http://www.w3.org/1999/xlink" height="81.7px" width="83.85px" xmlns="http://www.w3.org/2000/svg">
  <g transform="matrix(1.0, 0.0, 0.0, 1.0, 37.95, 81.7)">
    <path d="M-2.5 -81.0 L2.45 -80.5 1.75 0.0 1.25 -1.4 0.35 -0.7 0.1 -4.7 -0.6 -0.5 -1.1 -1.65 -2.75 -0.5 -2.5 -81.0" fill="#00a0c6" fill-rule="evenodd" stroke="none"/>
    <path d="M3.85 -81.7 L4.6 -1.15 3.15 -4.7 2.9 -1.15 2.45 -1.4 1.75 -0.5 2.45 -80.5 3.85 -81.7" fill="#8bd3e5" fill-rule="evenodd" stroke="none"/>
    <path d="M32.9 -39.9 L-33.95 -39.2 -35.35 -41.3 -35.8 -55.7 -37.7 -70.15 -35.1 -71.55 26.55 -70.6 45.9 -53.85 32.9 -39.9" fill="#8bd3e5" fill-rule="evenodd" stroke="none"/>
    <path d="M31.25 -37.8 L-37.2 -39.2 -37.95 -70.15 25.35 -69.2 44.5 -52.45 31.25 -37.8" fill="#00a0c6" fill-rule="evenodd" stroke="none"/>
    <path d="M-2.5 -81.0 L-0.85 -81.7 3.85 -81.7 2.45 -80.3 -2.5 -81.0" fill="#8bd3e5" fill-rule="evenodd" stroke="none"/>
    <path d="M-1.8 -59.5 L-2.25 -58.55 -2.25 -57.9 -2.5 -57.4 -2.75 -56.7 -2.75 -56.2 -2.95 -55.7 -2.95 -55.05 -2.25 -54.8 -1.8 -54.55 -1.35 -54.1 -0.6 -53.85 -0.15 -53.6 0.35 -53.1 0.8 -52.9 1.25 -52.45 1.5 -52.45 5.05 -55.5 5.05 -55.7 4.85 -55.7 4.85 -56.2 4.35 -57.15 4.35 -57.4 4.1 -57.4 4.1 -57.65 3.85 -57.9 3.85 -58.1 3.65 -58.55 3.65 -58.8 3.15 -59.3 2.9 -59.75 1.75 -59.75 1.05 -60.0 0.55 -59.75 -1.1 -59.75 -1.8 -59.5 M-3.7 -63.3 L-3.2 -63.75 -2.95 -63.75 -1.55 -64.0 2.45 -63.75 2.7 -63.5 3.15 -63.3 3.85 -62.6 4.35 -62.35 4.6 -62.1 5.05 -61.9 5.3 -61.9 5.75 -61.65 6.0 -61.4 6.45 -61.4 6.95 -60.9 9.55 -56.45 9.55 -55.7 9.3 -55.5 9.3 -55.05 9.05 -55.05 9.05 -54.55 8.85 -54.55 8.85 -54.3 8.6 -54.1 8.6 -53.85 8.35 -53.6 8.35 -52.2 8.6 -51.7 8.6 -51.25 8.35 -50.75 8.35 -49.35 8.6 -49.6 8.6 -49.35 9.05 -49.6 Q7.65 -45.35 3.4 -43.9 L4.1 -44.65 4.1 -44.9 4.35 -45.35 4.85 -45.8 5.05 -46.3 4.1 -46.75 3.65 -46.75 2.25 -47.5 2.0 -47.7 1.5 -47.9 1.5 -47.7 0.8 -47.5 0.35 -47.25 -0.15 -46.75 -2.05 -45.8 -2.5 -45.8 -2.5 -45.35 -2.25 -45.1 -2.25 -44.9 -2.05 -44.65 -2.05 -44.15 -1.1 -43.2 Q-6.55 -43.2 -9.35 -47.9 L-7.2 -47.9 -7.2 -48.15 -6.75 -48.15 -7.0 -48.65 -7.0 -52.9 -9.6 -55.3 -9.8 -55.05 -9.8 -54.8 -10.05 -54.8 -10.05 -54.55 -10.3 -54.1 -10.55 -53.85 -10.75 -53.35 -10.75 -52.9 -11.0 -52.7 Q-11.5 -57.15 -8.65 -60.25 L-8.4 -59.5 -7.95 -60.0 -7.45 -60.25 -7.2 -60.7 -7.0 -60.7 -6.75 -60.9 -5.8 -61.4 -5.1 -61.65 -4.65 -61.9 -4.65 -62.1 -3.95 -62.85 -3.7 -63.3" fill="#00708b" fill-rule="evenodd" stroke="none"/>
    <path d="M-2.5 -60.0 L-2.95 -59.05 -3.2 -58.3 -3.2 -57.9 -3.45 -57.4 -3.45 -56.7 -3.7 -56.2 -3.7 -55.5 -2.5 -55.05 -2.05 -54.55 -1.55 -54.3 -0.85 -54.1 -0.35 -53.6 0.1 -53.35 0.55 -52.9 4.1 -56.2 3.85 -56.7 3.85 -57.15 3.65 -57.65 3.4 -57.9 3.4 -58.3 3.15 -58.55 3.15 -58.8 2.7 -59.3 2.7 -59.5 2.45 -59.75 2.25 -60.25 1.5 -60.45 -0.85 -60.45 -1.35 -60.25 -2.05 -60.25 -2.5 -60.0 M-9.35 -60.9 L-9.35 -60.7 -9.15 -60.25 -8.65 -60.45 -7.95 -61.15 -7.7 -61.15 -7.45 -61.4 -6.05 -62.1 -5.35 -62.35 -5.35 -62.6 -5.1 -62.85 -4.85 -63.3 -4.65 -63.5 -3.95 -64.25 -2.25 -64.7 1.75 -64.25 2.25 -63.75 2.7 -63.5 3.15 -63.05 3.4 -62.85 3.85 -62.6 4.1 -62.35 4.6 -62.35 5.05 -62.1 5.3 -61.9 5.5 -61.9 6.0 -61.65 6.25 -61.65 8.85 -56.9 8.85 -56.45 8.6 -56.2 8.6 -55.7 8.35 -55.5 8.35 -55.3 8.1 -55.05 8.1 -54.8 7.85 -54.8 7.85 -54.55 7.65 -54.3 7.65 -50.1 8.35 -50.1 Q6.7 -46.05 2.7 -44.4 L2.9 -44.9 3.4 -45.35 3.65 -45.8 3.85 -46.05 4.1 -46.5 4.35 -46.75 4.35 -47.0 3.85 -47.0 3.4 -47.25 2.9 -47.25 1.05 -48.15 0.8 -48.4 0.8 -48.15 0.55 -48.4 0.1 -47.9 -0.85 -47.5 -1.35 -47.0 -1.8 -46.75 -2.25 -46.75 -3.2 -46.3 -3.2 -45.8 -2.95 -45.55 -2.95 -45.1 -2.75 -44.9 -2.5 -44.4 -2.25 -44.15 -2.05 -43.7 Q-7.3 -43.8 -10.3 -48.4 L-8.4 -48.4 -8.15 -48.65 -7.45 -48.65 -7.7 -49.35 -7.7 -51.0 -7.95 -51.25 -7.7 -51.5 -7.7 -53.35 -10.55 -55.7 -10.55 -55.5 -10.75 -55.5 -10.75 -55.05 -11.0 -55.05 -11.0 -54.8 -11.25 -54.55 -11.25 -54.3 -11.5 -53.85 -11.5 -53.35 -11.75 -53.1 Q-12.15 -57.9 -9.35 -60.9" fill="#ffffff" fill-rule="evenodd" stroke="none"/>
  </g>
</svg>
