<?xml version="1.0" encoding="UTF-8" standalone="no"?>
<svg xmlns:xlink="http://www.w3.org/1999/xlink" height="74.15px" width="82.65px" xmlns="http://www.w3.org/2000/svg">
  <g transform="matrix(1.0, 0.0, 0.0, 1.0, 36.8, 70.6)">
    <path d="M4.75 -69.7 L4.95 3.3 3.35 2.1 3.1 3.3 2.35 -0.9 1.95 3.1 0.95 2.35 0.5 3.55 -0.25 -69.2 4.75 -69.7" fill="#9c5715" fill-rule="evenodd" stroke="none"/>
    <path d="M-1.65 -70.4 L-0.25 -69.2 0.5 3.3 0.0 2.1 -0.65 2.6 -0.9 -0.9 -2.35 2.6 -1.65 -70.4" fill="#51330e" fill-rule="evenodd" stroke="none"/>
    <path d="M30.0 -34.45 L-34.2 -25.7 -36.1 -27.65 -36.8 -58.3 26.5 -64.95 44.2 -50.05 30.0 -34.45" fill="#993300" fill-rule="evenodd" stroke="none"/>
    <path d="M31.2 -32.6 L-34.2 -25.7 -34.95 -41.8 -34.7 -56.9 28.15 -63.75 45.85 -48.85 31.2 -32.6" fill="#ff0000" fill-rule="evenodd" stroke="none"/>
    <path d="M-1.65 -70.15 L2.35 -70.6 4.75 -69.45 -0.25 -69.2 -1.65 -70.15" fill="#51330e" fill-rule="evenodd" stroke="none"/>
    <path d="M9.5 -54.85 Q11.2 -54.25 11.4 -53.25 11.5 -52.25 10.05 -51.2 8.6 -50.15 5.95 -49.3 3.35 -48.4 0.05 -47.9 L-6.05 -47.7 Q-8.8 -47.9 -10.55 -48.65 -12.25 -49.35 -12.45 -50.4 -12.55 -51.4 -11.05 -52.25 -9.6 -53.15 -6.95 -53.9 L-1.0 -55.1 5.05 -55.5 9.5 -54.85 M17.1 -51.3 L19.55 -51.15 Q20.9 -50.9 21.95 -50.2 23.05 -49.45 23.15 -47.95 23.15 -46.45 21.9 -45.35 20.65 -44.25 19.0 -43.6 L16.05 -42.55 14.7 -42.25 14.95 -42.75 15.35 -44.25 Q18.15 -45.4 19.15 -46.3 20.1 -47.15 19.85 -47.8 19.6 -48.4 18.8 -48.8 L17.2 -49.35 16.4 -49.55 16.0 -51.25 17.1 -51.3 M1.6 -33.8 Q-2.4 -33.3 -5.25 -34.5 -8.1 -35.75 -10.0 -37.95 -11.85 -40.15 -12.95 -42.45 -14.0 -44.75 -14.45 -46.35 L-14.9 -48.05 -12.95 -47.45 -7.95 -46.5 -0.9 -46.3 Q3.0 -46.5 7.05 -48.05 11.05 -49.55 14.7 -52.9 15.45 -47.9 14.2 -43.9 13.0 -39.85 9.85 -37.2 6.65 -34.55 1.6 -33.8" fill="#ff6633" fill-rule="evenodd" stroke="none"/>
    <path d="M7.75 -56.0 Q9.35 -55.45 9.5 -54.55 9.6 -53.6 8.25 -52.65 6.9 -51.65 4.45 -50.85 2.05 -50.0 -1.05 -49.55 L-6.75 -49.3 Q-9.3 -49.5 -10.9 -50.15 -12.5 -50.8 -12.7 -51.75 -12.8 -52.7 -11.4 -53.5 -10.0 -54.35 -7.6 -55.05 L-2.05 -56.2 3.6 -56.6 7.75 -56.0 M16.1 -50.7 L15.3 -50.9 14.9 -52.6 16.0 -52.65 18.45 -52.5 Q19.8 -52.25 20.85 -51.55 21.95 -50.8 22.05 -49.3 22.05 -47.8 20.8 -46.7 19.55 -45.6 17.9 -44.95 16.2 -44.25 14.95 -43.9 L13.6 -43.6 13.85 -44.1 14.25 -45.6 Q17.05 -46.75 18.05 -47.65 19.0 -48.5 18.75 -49.15 18.5 -49.75 17.7 -50.15 L16.1 -50.7 M8.8 -38.5 Q5.6 -35.85 0.55 -35.1 -3.45 -34.6 -6.3 -35.8 -9.15 -37.05 -11.05 -39.25 -12.9 -41.45 -14.0 -43.75 L-15.5 -47.65 -15.95 -49.35 -14.0 -48.75 Q-12.15 -48.2 -9.0 -47.8 L-1.95 -47.6 Q1.95 -47.8 6.0 -49.35 10.0 -50.85 13.65 -54.2 14.4 -49.2 13.15 -45.2 11.95 -41.15 8.8 -38.5" fill="#ffffff" fill-rule="evenodd" stroke="none"/>
  </g>
</svg>
