<?xml version="1.0" encoding="UTF-8" standalone="no"?>
<svg xmlns:xlink="http://www.w3.org/1999/xlink" height="81.7px" width="84.35px" xmlns="http://www.w3.org/2000/svg">
  <g transform="matrix(1.0, 0.0, 0.0, 1.0, 0.0, 0.0)">
    <path d="M35.9 0.7 L41.6 0.95 40.15 81.7 39.7 80.3 38.75 81.05 38.5 77.0 37.8 81.25 37.55 80.1 35.65 81.25 35.9 0.7" fill="#73420d" fill-rule="evenodd" stroke="none"/>
    <path d="M42.5 0.25 L42.75 79.85 42.05 77.7 41.6 80.55 40.85 80.3 40.15 81.25 41.6 0.95 42.5 0.25" fill="#9c5715" fill-rule="evenodd" stroke="none"/>
    <path d="M71.8 39.9 L4.75 42.05 3.3 40.15 2.6 25.5 0.45 11.1 2.8 9.9 64.75 9.2 84.35 25.75 71.8 39.9" fill="#fecf38" fill-rule="evenodd" stroke="none"/>
    <path d="M69.9 42.05 L1.4 42.05 0.0 11.3 63.3 10.65 82.9 27.15 69.9 42.05" fill="#fe9e32" fill-rule="evenodd" stroke="none"/>
    <path d="M35.9 0.7 L37.55 0.0 42.5 0.0 41.35 0.95 35.9 0.7" fill="#9c5715" fill-rule="evenodd" stroke="none"/>
    <path d="M33.55 34.5 L30.2 32.1 28.35 34.5 27.2 30.5 49.85 27.4 58.35 23.4 50.3 32.35 45.6 31.9 45.35 33.55 43.7 31.4 39.45 33.75 36.15 32.1 33.55 34.5" fill="#f1822f" fill-rule="evenodd" stroke="none"/>
    <path d="M19.15 31.4 L17.7 25.5 25.75 30.0 27.2 34.7 24.8 30.95 23.4 32.85 22.65 29.75 21.25 32.35 20.55 28.8 19.15 31.4" fill="#f1822f" fill-rule="evenodd" stroke="none"/>
    <path d="M45.1 22.2 L58.1 22.9 48.9 26.7 26.7 29.5 17.95 24.55 41.35 22.2 40.85 21.25 37.35 21.7 35.0 17.0 48.65 25.5 50.05 25.3 45.1 22.2" fill="#f1822f" fill-rule="evenodd" stroke="none"/>
    <path d="M35.0 34.95 Q33.05 34.95 31.9 33.3 30.7 35.45 29.55 35.2 29.05 34.5 28.35 31.15 47.25 29.05 51.0 28.1 54.8 27.15 59.8 24.3 54.35 32.6 51.75 33.3 49.15 34.0 48.4 32.35 47.45 34.0 46.3 34.0 45.35 34.0 43.95 32.1 42.05 34.25 40.6 34.7 39.2 34.95 37.55 32.85 36.85 34.95 35.0 34.95" fill="#ffffff" fill-rule="evenodd" stroke="none"/>
    <path d="M18.9 26.2 L26.95 30.7 28.35 35.45 26.0 32.1 Q25.75 34.0 24.8 33.75 23.85 33.55 23.6 31.15 23.4 33.1 22.45 33.1 21.75 33.1 21.5 30.5 21.25 32.6 20.3 32.1 19.6 31.9 18.9 26.2" fill="#ffffff" fill-rule="evenodd" stroke="none"/>
    <path d="M46.3 22.9 L59.3 23.85 Q54.1 26.45 50.05 27.4 46.3 28.6 28.1 30.25 L19.15 25.5 42.75 22.9 42.3 21.95 38.5 22.45 36.4 17.7 49.85 26.2 51.25 26.0 46.3 22.9" fill="#ffffff" fill-rule="evenodd" stroke="none"/>
  </g>
</svg>
