<?xml version="1.0" encoding="UTF-8" standalone="no"?>
<svg xmlns:xlink="http://www.w3.org/1999/xlink" height="81.45px" width="83.85px" xmlns="http://www.w3.org/2000/svg">
  <g transform="matrix(1.0, 0.0, 0.0, 1.0, 0.0, 0.0)">
    <path d="M42.0 0.7 L47.0 1.15 46.3 81.45 45.8 80.3 44.85 81.0 44.4 77.0 43.7 81.25 43.45 80.05 41.8 81.25 42.0 0.7" fill="#811788" fill-rule="evenodd" stroke="none"/>
    <path d="M48.4 0.0 L49.15 80.55 47.7 77.0 47.45 80.55 46.8 80.05 46.3 81.25 47.0 1.15 48.4 0.0" fill="#a049a1" fill-rule="evenodd" stroke="none"/>
    <path d="M83.15 11.55 L83.15 25.95 83.85 42.25 82.65 44.15 15.8 35.45 1.65 19.85 19.35 4.95 83.15 11.55" fill="#a049a1" fill-rule="evenodd" stroke="none"/>
    <path d="M80.55 13.0 L81.25 27.85 82.65 44.15 14.6 37.3 0.0 21.0 17.45 6.1 80.55 13.0" fill="#811788" fill-rule="evenodd" stroke="none"/>
    <path d="M57.6 29.5 Q58.8 29.25 59.05 28.35 59.5 27.4 58.8 26.45 57.85 26.65 57.4 27.65 56.9 28.55 57.6 29.5 M51.0 26.9 Q50.3 27.65 50.3 28.55 50.55 29.5 51.5 30.0 52.2 29.25 51.95 28.35 51.95 27.65 51.0 26.9 M59.75 24.3 Q61.4 24.55 60.95 26.65 L58.6 30.45 Q57.6 33.3 56.7 33.5 56.9 32.85 56.45 31.4 54.1 30.45 51.0 32.1 L51.0 32.35 50.8 32.35 50.55 32.6 50.3 32.6 Q49.8 34.25 50.05 35.2 L48.4 32.6 48.2 32.6 45.8 30.25 45.6 29.75 45.1 35.65 37.05 34.25 Q38.25 31.4 37.8 28.8 L34.45 27.15 36.15 25.25 32.35 23.4 35.4 21.25 Q32.35 20.3 31.85 17.95 L34.25 18.65 35.4 18.45 Q33.8 13.65 34.25 13.25 34.95 15.6 37.3 16.25 37.3 12.5 39.2 11.3 39.0 13.65 39.9 14.85 41.1 12.75 45.6 13.25 42.75 14.4 42.25 15.85 44.85 16.25 47.0 19.85 L47.2 20.55 47.2 20.8 47.7 21.25 47.7 21.45 47.95 21.95 48.2 21.95 48.4 22.65 50.55 24.55 51.5 24.55 Q51.75 24.3 52.2 24.55 L52.65 24.55 54.1 25.05 54.55 25.25 54.8 25.5 55.25 25.75 Q58.6 24.05 59.75 24.3" fill="#67017d" fill-rule="evenodd" stroke="none"/>
    <path d="M51.75 28.1 Q51.75 28.8 52.65 29.5 53.4 28.8 53.4 27.85 53.4 26.9 52.4 26.45 51.5 27.15 51.75 28.1 M60.95 23.85 Q62.6 24.05 62.1 26.2 L59.75 30.0 60.0 30.0 Q58.8 32.6 58.1 33.05 L57.6 30.7 Q55.0 30.0 52.4 31.65 L52.2 31.85 51.95 31.85 51.75 32.1 Q51.0 33.5 51.25 34.45 50.05 33.05 49.8 32.1 L49.35 32.1 47.45 30.0 47.2 29.5 47.0 29.25 46.3 34.95 38.5 33.5 Q39.4 30.25 39.0 28.35 L35.9 26.45 37.3 24.55 33.8 22.65 36.8 20.8 Q33.8 19.6 33.05 17.45 L35.65 18.2 36.6 17.95 Q34.95 13.25 35.4 12.75 36.15 15.1 38.5 15.6 38.5 12.05 40.4 10.85 40.15 13.25 41.35 14.4 42.5 12.25 47.0 12.75 44.2 13.65 43.7 15.1 46.55 15.85 48.2 19.35 L48.65 20.05 48.65 20.3 48.9 20.8 49.15 20.8 49.35 21.45 51.75 24.05 52.9 23.85 53.6 23.85 54.1 24.05 54.8 24.05 54.8 24.3 55.25 24.55 56.0 24.8 56.7 25.25 Q59.75 23.4 60.95 23.85 M60.45 27.85 Q60.7 26.9 60.2 25.95 59.05 26.2 58.8 27.15 58.35 27.85 58.8 29.05 60.0 28.8 60.45 27.85" fill="#ffffff" fill-rule="evenodd" stroke="none"/>
    <path d="M46.8 21.45 Q46.8 22.9 45.35 22.9 43.95 22.65 43.95 21.25 43.95 19.85 45.6 19.85 47.2 19.85 46.8 21.45" fill="#67017d" fill-rule="evenodd" stroke="none"/>
    <path d="M50.3 21.25 Q50.3 22.9 48.65 22.45 47.2 22.45 47.2 21.0 47.7 19.6 48.9 19.6 50.3 19.6 50.3 21.25" fill="#67017d" fill-rule="evenodd" stroke="none"/>
    <path d="M46.05 21.25 Q45.8 21.95 45.35 21.95 L44.85 21.25 Q45.1 20.55 45.6 20.8 L46.05 21.25" fill="#ffffff" fill-rule="evenodd" stroke="none"/>
    <path d="M49.35 21.0 L48.9 21.7 Q48.2 21.25 48.2 21.0 48.65 20.3 48.9 20.3 49.6 20.8 49.35 21.0" fill="#ffffff" fill-rule="evenodd" stroke="none"/>
    <path d="M42.0 0.7 L43.2 0.0 48.2 0.45 46.8 1.4 42.0 0.7" fill="#811788" fill-rule="evenodd" stroke="none"/>
    <path d="M46.55 40.65 L41.8 55.75 41.8 40.15 46.55 40.65" fill="#67017d" fill-rule="evenodd" stroke="none"/>
  </g>
</svg>
