<?xml version="1.0" encoding="UTF-8" standalone="no"?>
<svg xmlns:xlink="http://www.w3.org/1999/xlink" height="81.75px" width="85.75px" xmlns="http://www.w3.org/2000/svg">
  <g transform="matrix(1.0, 0.0, 0.0, 1.0, 48.35, 78.4)">
    <path d="M3.6 -77.4 L3.85 2.9 2.2 1.7 1.7 2.9 1.0 -1.4 0.75 2.9 -0.15 1.95 -0.65 3.35 -1.35 -76.95 3.6 -77.4" fill="#4a4a4a" fill-rule="evenodd" stroke="none"/>
    <path d="M-3.0 -78.15 L-1.35 -76.95 -0.65 3.15 -1.35 1.95 -1.85 2.2 -2.05 -1.15 -3.5 2.2 -3.0 -78.15" fill="#000000" fill-rule="evenodd" stroke="none"/>
    <path d="M34.1 -68.2 L31.25 -55.45 33.35 -39.2 34.3 -37.25 -29.9 -39.6 -48.35 -56.6 -32.05 -72.2 30.75 -70.35 34.1 -68.2" fill="#000000" fill-rule="evenodd" stroke="none"/>
    <path d="M34.1 -68.45 L37.4 -37.25 -29.7 -39.2 -45.75 -54.25 -29.25 -70.35 34.1 -68.45" fill="#4a4a4a" fill-rule="evenodd" stroke="none"/>
    <path d="M3.6 -77.4 L-1.35 -76.95 -3.0 -78.15 2.2 -78.4 3.6 -77.4" fill="#000000" fill-rule="evenodd" stroke="none"/>
    <path d="M1.7 -57.1 Q2.9 -57.1 2.9 -59.0 2.9 -60.65 1.7 -60.65 0.3 -60.65 0.3 -59.0 0.3 -57.1 1.7 -57.1 M-3.0 -57.1 Q-1.85 -57.1 -1.85 -59.0 -1.85 -60.65 -3.0 -60.65 -4.45 -60.65 -4.45 -59.0 -4.45 -57.1 -3.0 -57.1 M-8.9 -59.45 Q-8.9 -65.85 -1.35 -65.85 5.5 -65.85 5.95 -59.7 L6.2 -59.2 5.95 -53.1 Q5.95 -47.9 7.15 -42.45 5.7 -45.55 2.7 -44.35 -0.15 -43.2 -0.4 -43.9 -1.1 -45.3 -3.7 -43.65 -7.5 -41.55 -9.15 -41.55 -6.55 -46.0 -8.9 -59.45" fill="#000000" fill-rule="evenodd" stroke="none"/>
    <path d="M-0.4 -59.45 Q-0.4 -61.15 -1.85 -61.15 -3.0 -60.4 -3.0 -59.45 -3.0 -58.55 -1.85 -57.6 -0.4 -57.6 -0.4 -59.45 M4.3 -59.45 Q4.3 -61.15 2.9 -61.15 1.7 -60.4 1.7 -59.45 1.7 -58.55 2.9 -57.6 4.3 -57.6 4.3 -59.45 M7.4 -60.2 L7.65 -59.7 7.4 -53.6 Q7.15 -48.15 8.3 -42.95 6.9 -46.0 4.1 -44.8 1.0 -43.65 0.75 -44.35 0.3 -45.8 -2.3 -44.15 -5.85 -42.0 -7.7 -42.0 -5.1 -46.25 -7.5 -59.95 -7.5 -66.35 -0.15 -66.35 6.9 -66.35 7.4 -60.2" fill="#ffffff" fill-rule="evenodd" stroke="none"/>
  </g>
</svg>
