<?xml version="1.0" encoding="UTF-8" standalone="no"?>
<svg xmlns:xlink="http://www.w3.org/1999/xlink" height="102.65px" width="45.45px" xmlns="http://www.w3.org/2000/svg">
  <g transform="matrix(1.0, 0.0, 0.0, 1.0, 30.0, 97.5)">
    <path d="M-12.85 -97.0 L-7.9 -97.5 2.4 0.0 -2.4 -0.3 -12.85 -97.0" fill="#52330c" fill-rule="evenodd" stroke="none"/>
    <path d="M11.05 -83.95 Q14.6 -79.15 15.35 -72.85 15.9 -66.55 13.45 -61.15 10.95 -55.7 6.2 -52.15 1.4 -48.6 -4.9 -47.85 -11.25 -47.3 -16.65 -49.75 -22.1 -52.25 -25.65 -57.0 -29.2 -61.8 -29.9 -68.1 -30.5 -74.45 -28.05 -79.85 -25.55 -85.3 -20.75 -88.85 -15.95 -92.4 -9.65 -93.1 -3.35 -93.7 2.05 -91.25 7.5 -88.75 11.05 -83.95" fill="#e82900" fill-rule="evenodd" stroke="none"/>
    <path d="M8.9 -71.65 Q9.3 -67.15 7.55 -63.3 5.8 -59.45 2.35 -56.9 -1.05 -54.35 -5.55 -53.85 -10.05 -53.45 -13.9 -55.2 -17.75 -56.95 -20.3 -60.4 -22.85 -63.8 -23.35 -68.3 -23.8 -72.8 -22.0 -76.65 -20.25 -80.5 -16.85 -83.05 -13.4 -85.6 -8.9 -86.1 -4.4 -86.55 -0.55 -84.75 3.3 -83.0 5.85 -79.6 8.4 -76.15 8.9 -71.65" fill="#ffff2e" fill-rule="evenodd" stroke="none"/>
    <path d="M-11.55 -75.65 Q-12.2 -74.95 -12.35 -73.95 -11.15 -74.9 -9.55 -75.05 L-6.7 -75.0 -5.4 -74.8 -5.85 -75.3 -7.1 -76.25 -9.15 -76.6 Q-10.85 -76.4 -11.55 -75.65 M-4.7 -76.6 L-3.9 -72.6 -3.7 -70.9 -3.55 -70.85 Q-1.6 -70.35 -0.35 -69.35 L1.5 -67.45 2.05 -66.5 1.0 -66.7 -1.1 -67.05 -2.75 -67.25 Q-3.1 -67.2 -2.55 -66.15 L-1.3 -64.0 -0.55 -62.85 0.1 -63.3 1.3 -64.1 1.85 -64.4 Q0.8 -63.05 0.65 -61.3 0.45 -59.55 0.9 -57.35 L0.1 -58.85 -0.65 -60.7 -1.0 -61.55 -1.9 -61.9 -3.9 -62.75 -5.85 -63.65 -7.7 -64.95 -9.5 -66.45 -10.35 -67.2 -11.3 -66.95 -13.45 -66.25 Q-14.7 -65.8 -15.7 -65.1 -15.6 -66.5 -15.05 -67.8 L-13.95 -69.9 -13.45 -70.65 -13.5 -70.75 -13.65 -71.75 Q-13.95 -73.9 -13.55 -76.5 -13.15 -79.1 -12.05 -81.3 -10.9 -83.5 -9.05 -84.5 -7.4 -83.3 -6.35 -81.15 -5.3 -78.95 -4.7 -76.6" fill="#000000" fill-rule="evenodd" stroke="none"/>
    <path d="M4.55 4.7 Q3.75 4.55 3.1 3.55 2.45 2.55 2.4 0.2 1.8 2.65 0.85 3.4 -0.1 4.15 -1.0 3.7 -1.9 3.25 -2.4 2.2 -2.95 1.1 -2.65 -0.15 L-3.05 1.2 -3.65 2.9 Q-4.05 3.7 -4.75 3.85 -5.45 4.0 -6.65 3.0 L-6.25 -4.55 -3.65 0.0 -2.65 -5.2 -0.5 -0.7 0.65 -7.0 2.65 -1.45 5.0 -4.45 4.7 -0.1 7.4 -2.1 6.6 4.35 5.95 4.6 4.55 4.7" fill="#6d9726" fill-rule="evenodd" stroke="none"/>
    <path d="M4.2 -2.65 L4.15 2.6 6.65 -1.95 7.15 3.15 Q6.95 4.6 5.95 4.85 L3.9 4.75 Q2.9 4.35 2.6 3.65 2.25 4.9 1.0 5.1 -0.2 5.3 -1.4 4.75 -2.6 4.2 -2.85 3.15 -3.3 4.2 -4.2 4.3 L-6.0 3.95 -7.25 3.0 Q-7.6 2.5 -7.65 1.2 L-7.65 -1.3 -7.6 -2.5 -4.7 0.45 -3.85 -5.2 -1.25 -0.25 1.05 -5.45 1.15 0.8 4.2 -2.65" fill="#87d12e" fill-rule="evenodd" stroke="none"/>
  </g>
</svg>
