<?xml version="1.0" encoding="UTF-8" standalone="no"?>
<svg xmlns:xlink="http://www.w3.org/1999/xlink" height="102.05px" width="45.5px" xmlns="http://www.w3.org/2000/svg">
  <g transform="matrix(1.0, 0.0, 0.0, 1.0, 11.0, 96.5)">
    <path d="M18.85 -95.7 L2.7 0.2 -2.1 0.25 13.95 -96.5 18.85 -95.7" fill="#52330c" fill-rule="evenodd" stroke="none"/>
    <path d="M34.2 -65.85 Q33.1 -59.6 29.25 -55.0 25.45 -50.45 19.9 -48.3 14.3 -46.15 8.05 -47.1 1.8 -48.2 -2.8 -52.05 -7.35 -55.85 -9.5 -61.4 -11.65 -67.0 -10.7 -73.25 -9.6 -79.5 -5.75 -84.1 -1.95 -88.65 3.65 -90.8 9.2 -92.95 15.45 -92.0 21.7 -90.9 26.3 -87.05 30.85 -83.25 33.0 -77.65 35.15 -72.1 34.2 -65.85" fill="#e82900" fill-rule="evenodd" stroke="none"/>
    <path d="M27.6 -66.4 Q26.8 -61.95 24.1 -58.65 21.35 -55.4 17.4 -53.9 13.45 -52.35 9.0 -53.05 4.55 -53.85 1.25 -56.55 -2.0 -59.3 -3.55 -63.25 -5.05 -67.2 -4.4 -71.65 -3.6 -76.1 -0.85 -79.4 1.85 -82.65 5.85 -84.2 9.8 -85.7 14.25 -85.05 18.7 -84.25 22.0 -81.5 25.25 -78.8 26.75 -74.8 28.3 -70.85 27.6 -66.4" fill="#ffff2e" fill-rule="evenodd" stroke="none"/>
    <path d="M21.55 -72.75 Q20.3 -71.3 19.9 -69.65 19.5 -68.0 19.6 -66.55 19.7 -65.1 19.95 -64.15 18.8 -64.5 18.05 -65.15 L16.95 -66.4 16.55 -67.1 16.55 -67.15 16.5 -67.15 16.5 -67.1 15.35 -66.4 Q14.35 -65.85 12.8 -65.6 11.2 -65.35 9.4 -66.1 L11.8 -68.95 Q13.4 -70.6 15.85 -71.8 18.3 -72.95 21.55 -72.75" fill="#000000" fill-rule="evenodd" stroke="none"/>
    <path d="M19.65 -62.6 Q20.7 -62.25 22.15 -62.6 23.6 -62.9 25.4 -64.15 L24.35 -62.5 Q23.3 -60.95 21.2 -59.0 19.15 -57.05 16.1 -55.8 13.05 -54.55 9.1 -55.1 4.75 -55.95 2.25 -58.05 -0.25 -60.2 -1.4 -62.65 -2.55 -65.1 -2.85 -66.9 L-3.1 -68.75 -2.65 -67.9 -1.1 -66.35 Q-0.1 -65.6 1.6 -65.7 3.3 -65.75 5.75 -67.4 L5.75 -67.45 5.8 -67.45 5.8 -67.4 Q7.45 -65.25 9.15 -64.5 10.95 -63.75 12.5 -64.0 14.1 -64.3 15.1 -64.85 L16.25 -65.55 16.7 -64.8 17.8 -63.6 Q18.55 -62.9 19.65 -62.6" fill="#000000" fill-rule="evenodd" stroke="none"/>
    <path d="M3.2 -4.65 L3.9 0.55 6.75 -3.8 6.7 3.75 Q5.45 4.7 4.75 4.5 4.05 4.3 3.7 3.45 L3.2 1.75 2.9 0.4 Q3.1 1.65 2.55 2.7 1.95 3.75 1.0 4.15 0.1 4.5 -0.8 3.7 -1.7 2.9 -2.15 0.4 -2.4 2.8 -3.05 3.75 -3.75 4.7 -4.6 4.8 L-6.0 4.65 -6.6 4.35 -7.05 -2.15 -4.45 0.0 -4.5 -4.35 -2.35 -1.2 0.0 -6.65 0.8 -0.3 3.2 -4.65" fill="#6d9726" fill-rule="evenodd" stroke="none"/>
    <path d="M4.2 4.95 Q3.3 4.8 2.9 3.7 2.6 4.75 1.35 5.2 L-1.05 5.45 Q-2.25 5.15 -2.6 3.9 -2.9 4.55 -3.95 4.9 -5.0 5.25 -5.95 4.9 -6.95 4.55 -7.05 3.1 L-6.25 -1.95 -4.05 2.75 -3.75 -2.5 -0.95 1.15 -0.5 -5.1 1.5 0.25 4.4 -4.55 4.9 1.15 8.0 -1.65 8.0 -0.4 7.85 2.05 Q7.7 3.35 7.35 3.85 L6.0 4.7 4.2 4.95" fill="#87d12e" fill-rule="evenodd" stroke="none"/>
  </g>
</svg>
