<?xml version="1.0" encoding="UTF-8" standalone="no"?>
<svg xmlns:xlink="http://www.w3.org/1999/xlink" height="74.15px" width="82.7px" xmlns="http://www.w3.org/2000/svg">
  <g transform="matrix(1.0, 0.0, 0.0, 1.0, 38.15, 70.3)">
    <path d="M3.45 -69.4 L3.65 3.6 2.05 2.4 1.8 3.6 1.05 -0.6 0.65 3.4 -0.35 2.65 -0.8 3.85 -1.55 -68.9 3.45 -69.4" fill="#9c5715" fill-rule="evenodd" stroke="none"/>
    <path d="M-2.95 -70.1 L-1.55 -68.9 -0.8 3.6 -1.3 2.4 -1.95 2.9 -2.2 -0.6 -3.65 2.9 -2.95 -70.1" fill="#51330e" fill-rule="evenodd" stroke="none"/>
    <path d="M28.7 -34.2 L-35.55 -25.4 -37.4 -27.35 -38.15 -58.0 25.2 -64.65 42.9 -49.8 28.7 -34.2" fill="#c97eac" fill-rule="evenodd" stroke="none"/>
    <path d="M29.9 -32.3 L-35.55 -25.4 -36.25 -41.5 -36.0 -56.6 26.85 -63.45 44.55 -48.6 29.9 -32.3" fill="#fbc0df" fill-rule="evenodd" stroke="none"/>
    <path d="M-2.95 -69.85 L1.05 -70.3 3.45 -69.15 -1.55 -68.9 -2.95 -69.85" fill="#51330e" fill-rule="evenodd" stroke="none"/>
    <path d="M-5.05 -38.2 Q-6.5 -38.2 -6.95 -37.25 -7.65 -36.3 -6.75 -35.15 -6.25 -34.9 -5.05 -36.05 -4.55 -36.55 -5.05 -38.2 M-14.75 -39.4 Q-14.75 -38.4 -13.55 -37.95 -13.35 -37.7 -12.6 -39.15 -12.6 -39.6 -13.55 -40.8 -14.5 -40.3 -14.75 -39.4 M4.85 -47.2 L5.35 -46.7 9.85 -46.7 13.35 -51.2 11.25 -44.1 7.95 -43.4 Q12.2 -41.5 11.45 -38.65 8.85 -38.65 6.05 -40.3 L5.8 -34.9 0.65 -34.4 Q0.85 -38.65 0.15 -38.2 L-2.7 -37.25 -2.95 -35.6 Q-5.75 -33.7 -6.75 -33.45 L-6.75 -32.55 Q-6.95 -31.8 -7.65 -31.8 L-9.1 -32.05 Q-9.55 -32.3 -9.75 -33.0 L-9.55 -34.65 -11.45 -35.8 -14.75 -36.05 -15.2 -35.6 Q-15.7 -35.35 -16.4 -35.6 L-17.1 -36.55 Q-17.35 -36.8 -17.1 -37.5 L-16.15 -38.4 -16.15 -39.15 Q-14.3 -43.15 -13.55 -42.9 L-10.75 -41.0 -6.25 -44.8 -10.75 -46.0 Q-9.75 -48.35 -5.05 -48.35 L-7.4 -50.95 -4.8 -57.6 -4.35 -51.4 -1.05 -49.05 4.85 -47.2" fill="#c97eac" fill-rule="evenodd" stroke="none"/>
    <path d="M-5.55 -37.25 Q-6.25 -36.3 -5.3 -35.15 -4.8 -34.65 -3.65 -36.05 -3.15 -36.55 -3.65 -38.2 -5.05 -38.2 -5.55 -37.25 M-12.15 -37.7 Q-11.9 -37.7 -11.2 -39.15 -11.2 -39.6 -12.15 -40.55 -13.1 -40.3 -13.35 -39.4 -13.35 -38.4 -12.15 -37.7 M-0.8 -41.0 Q0.65 -40.55 1.05 -42.45 1.55 -44.35 -0.35 -44.35 -1.75 -44.6 -2.2 -43.15 -2.7 -41.5 -0.8 -41.0 M12.9 -38.65 Q10.3 -38.65 7.45 -40.3 L7.25 -34.9 2.05 -34.4 Q2.25 -38.4 1.55 -38.2 L-1.3 -37.25 -1.55 -35.6 Q-4.35 -33.7 -5.3 -33.2 L-5.3 -32.3 Q-5.55 -31.8 -6.25 -31.8 L-7.65 -32.05 Q-8.15 -32.05 -8.35 -33.0 L-8.15 -34.65 -10.0 -35.8 -13.35 -36.05 -13.8 -35.6 Q-14.3 -35.35 -14.95 -35.6 L-15.7 -36.55 Q-15.95 -36.8 -15.7 -37.5 L-14.75 -38.4 -14.75 -39.15 Q-12.85 -43.15 -12.15 -42.9 L-9.35 -41.0 -7.15 -42.9 -7.15 -42.65 -6.75 -43.15 -5.3 -42.0 Q-3.9 -41.5 -3.4 -43.4 -2.95 -44.8 -4.8 -45.25 L-6.25 -45.05 -9.35 -46.0 Q-8.35 -48.35 -3.65 -48.35 L-6.0 -50.7 -3.4 -57.6 -2.95 -51.4 0.4 -49.05 6.25 -46.95 6.75 -46.7 11.25 -46.7 14.8 -51.2 12.65 -44.1 9.35 -43.4 Q13.6 -41.5 12.9 -38.65" fill="#ffffff" fill-rule="evenodd" stroke="none"/>
    <path d="M-1.05 -42.9 L-0.55 -43.15 -0.1 -42.65 -0.8 -42.2 Q-1.05 -42.2 -1.05 -42.9" fill="#ffffff" fill-rule="evenodd" stroke="none"/>
    <path d="M-5.55 -43.6 L-5.05 -44.1 -4.55 -43.6 Q-4.55 -43.15 -5.3 -43.15 L-5.55 -43.6" fill="#ffffff" fill-rule="evenodd" stroke="none"/>
  </g>
</svg>
