<?xml version="1.0" encoding="UTF-8" standalone="no"?>
<svg xmlns:xlink="http://www.w3.org/1999/xlink" height="82.8px" width="87.7px" xmlns="http://www.w3.org/2000/svg">
  <g transform="matrix(1.0, 0.0, 0.0, 1.0, 48.1, 78.25)">
    <path d="M3.6 -76.2 L3.85 4.1 2.2 2.9 1.95 4.1 1.25 -0.2 0.75 4.1 -0.15 3.15 -0.65 4.55 -1.35 -75.75 3.6 -76.2" fill="#9c5715" fill-rule="evenodd" stroke="none"/>
    <path d="M-2.75 -76.95 L-1.35 -75.75 -0.65 4.35 -1.1 3.15 -1.85 3.4 -2.05 0.05 -3.45 3.4 -2.75 -76.95" fill="#51330e" fill-rule="evenodd" stroke="none"/>
    <path d="M29.5 -76.85 L30.15 -63.45 38.05 -48.85 35.4 -46.55 -26.35 -34.85 -48.1 -47.35 -35.7 -66.1 26.05 -78.25 29.5 -76.85" fill="#b86937" fill-rule="evenodd" stroke="none"/>
    <path d="M29.45 -77.1 L39.6 -47.5 -26.05 -34.5 -44.75 -45.65 -32.25 -64.95 29.45 -77.1" fill="#ffa800" fill-rule="evenodd" stroke="none"/>
    <path d="M10.8 -73.2 L6.0 -74.65 5.25 -76.3 9.85 -74.65 10.8 -73.2" fill="#51330e" fill-rule="evenodd" stroke="none"/>
    <path d="M5.05 -62.3 L4.8 -62.25 5.6 -52.3 7.9 -53.1 Q12.45 -53.15 12.6 -50.3 12.9 -46.95 8.4 -46.45 4.4 -46.3 3.7 -49.25 L1.75 -62.05 -7.55 -61.4 -6.45 -48.15 -4.2 -48.9 Q0.3 -49.2 0.6 -45.85 0.75 -42.8 -3.45 -42.3 -7.5 -42.1 -8.05 -44.6 L-11.3 -65.15 4.5 -66.85 5.05 -62.3" fill="#51330e" fill-rule="evenodd" stroke="none"/>
    <path d="M-4.95 -48.95 L-2.65 -49.45 Q1.8 -50.0 2.1 -46.7 2.3 -43.6 -2.2 -43.05 -5.7 -42.75 -6.8 -45.4 L-9.85 -66.0 6.0 -67.65 6.9 -53.1 9.15 -53.85 Q13.65 -54.15 13.9 -50.9 14.2 -47.8 9.9 -47.3 5.35 -47.2 5.2 -50.05 L4.95 -50.0 3.05 -62.85 -6.0 -62.0 -4.95 -48.95" fill="#ffffff" fill-rule="evenodd" stroke="none"/>
  </g>
</svg>
