<?xml version="1.0" encoding="UTF-8" standalone="no"?>
<svg xmlns:xlink="http://www.w3.org/1999/xlink" height="39.3px" width="38.75px" xmlns="http://www.w3.org/2000/svg">
  <g transform="matrix(1.0, 0.0, 0.0, 1.0, 19.35, 19.65)">
    <path d="M-1.6 -1.3 L-0.05 1.35 -1.25 2.9 -4.2 6.6 -8.05 10.95 Q-10.1 13.1 -11.9 14.45 -13.7 15.7 -15.4 15.25 -17.1 14.75 -18.25 13.25 -19.35 11.7 -19.35 9.75 -19.35 7.85 -17.7 6.15 -16.0 4.5 -13.35 3.15 -10.7 1.8 -8.0 0.8 L-3.5 -0.75 -1.6 -1.3" fill="#ffff2e" fill-rule="evenodd" stroke="none"/>
    <path d="M15.6 -15.45 Q17.3 -14.9 18.4 -13.35 19.45 -11.8 19.4 -9.85 19.3 -7.95 17.65 -6.3 15.85 -4.7 13.15 -3.45 10.45 -2.2 7.7 -1.3 5.0 -0.35 3.15 0.1 L1.25 0.6 -0.2 -2.1 1.05 -3.65 4.15 -7.25 8.1 -11.45 12.05 -14.8 Q13.9 -15.95 15.6 -15.45" fill="#246ec2" fill-rule="evenodd" stroke="none"/>
    <path d="M-3.4 -13.45 Q-2.1 -10.75 -1.2 -8.05 L0.25 -3.5 0.75 -1.6 -1.95 -0.1 -3.5 -1.35 -7.1 -4.4 -11.35 -8.4 Q-13.45 -10.45 -14.75 -12.3 -15.9 -14.15 -15.4 -15.85 -14.9 -17.55 -13.3 -18.6 -11.75 -19.7 -9.85 -19.65 -7.9 -19.6 -6.25 -17.9 -4.7 -16.15 -3.4 -13.45" fill="#9c5712" fill-rule="evenodd" stroke="none"/>
    <path d="M-1.3 1.25 L1.45 -0.15 2.95 1.15 6.45 4.3 10.55 8.45 Q12.55 10.6 13.8 12.5 14.9 14.35 14.35 16.05 13.75 17.75 12.15 18.75 10.55 19.75 8.65 19.65 6.7 19.5 5.15 17.8 3.6 15.95 2.4 13.2 1.2 10.5 0.4 7.75 L-0.85 3.15 -1.3 1.25" fill="#ff1f70" fill-rule="evenodd" stroke="none"/>
    <path d="M-2.2 1.25 Q-2.85 0.4 -2.8 -0.55 -2.7 -1.55 -1.95 -2.25 -1.15 -2.9 -0.15 -2.85 0.85 -2.75 1.55 -2.0 2.2 -1.2 2.15 -0.2 2.05 0.8 1.3 1.5 0.45 2.15 -0.5 2.1 -1.5 2.0 -2.2 1.25" fill="#000000" fill-rule="evenodd" stroke="none"/>
  </g>
</svg>
