<?xml version="1.0" encoding="UTF-8" standalone="no"?>
<svg xmlns:xlink="http://www.w3.org/1999/xlink" height="38.65px" width="38.65px" xmlns="http://www.w3.org/2000/svg">
  <g transform="matrix(1.0, 0.0, 0.0, 1.0, 19.3, 19.35)">
    <path d="M17.15 -8.95 Q19.55 -4.5 19.35 0.9 19.0 6.3 16.25 10.55 13.45 14.75 8.95 17.1 4.5 19.5 -0.9 19.3 -6.3 18.95 -10.5 16.2 -14.75 13.4 -17.1 8.9 -19.5 4.45 -19.3 -0.95 -18.95 -6.35 -16.15 -10.55 -13.4 -14.8 -8.9 -17.15 -4.45 -19.55 0.95 -19.35 6.35 -19.0 10.6 -16.2 14.8 -13.45 17.15 -8.95 M15.2 0.7 Q15.35 -3.55 13.5 -7.05 11.65 -10.55 8.3 -12.75 5.0 -14.95 0.75 -15.2 -3.5 -15.35 -7.0 -13.5 -10.5 -11.6 -12.7 -8.3 -14.9 -5.0 -15.15 -0.75 -15.3 3.5 -13.45 7.0 -11.55 10.5 -8.25 12.7 -4.95 14.9 -0.7 15.15 3.55 15.3 7.05 13.45 10.55 11.6 12.75 8.25 14.95 4.95 15.2 0.7" fill="#000000" fill-rule="evenodd" stroke="none"/>
    <path d="M-15.35 -0.3 L15.15 1.15" fill="none" stroke="#000000" stroke-linecap="round" stroke-linejoin="round" stroke-width="0.5"/>
    <path d="M0.65 -14.95 L-0.8 15.55" fill="none" stroke="#000000" stroke-linecap="round" stroke-linejoin="round" stroke-width="0.5"/>
    <path d="M-10.45 -10.9 L10.05 11.7" fill="none" stroke="#000000" stroke-linecap="round" stroke-linejoin="round" stroke-width="0.5"/>
    <path d="M11.2 -9.95 L-11.4 10.55" fill="none" stroke="#000000" stroke-linecap="round" stroke-linejoin="round" stroke-width="0.5"/>
    <path d="M-5.55 -13.9 L5.15 14.65" fill="none" stroke="#000000" stroke-linecap="round" stroke-linejoin="round" stroke-width="0.5"/>
    <path d="M14.2 -5.0 L-14.35 5.7" fill="none" stroke="#000000" stroke-linecap="round" stroke-linejoin="round" stroke-width="0.5"/>
    <path d="M6.15 -13.6 L-6.45 14.15" fill="none" stroke="#000000" stroke-linecap="round" stroke-linejoin="round" stroke-width="0.5"/>
    <path d="M13.85 6.65 L-13.9 -5.95" fill="none" stroke="#000000" stroke-linecap="round" stroke-linejoin="round" stroke-width="0.5"/>
  </g>
</svg>
