<?xml version="1.0" encoding="UTF-8" standalone="no"?>
<svg xmlns:xlink="http://www.w3.org/1999/xlink" height="49.35px" width="26.25px" xmlns="http://www.w3.org/2000/svg">
  <g transform="matrix(1.0, 0.0, 0.0, 1.0, 13.15, 24.7)">
    <path d="M-2.15 -22.3 L-2.9 -13.0 4.5 22.45 3.5 22.85 1.2 23.2 Q-0.05 23.2 -0.95 22.25 -1.6 21.55 -2.55 21.8 -3.5 22.05 -4.4 22.7 L-5.95 24.0 -6.6 24.65 -12.7 -7.85 -13.0 -9.5 Q-13.25 -11.05 -13.1 -13.45 -12.95 -15.8 -11.85 -18.3 -10.95 -20.05 -9.35 -20.95 -7.8 -21.85 -6.15 -22.1 L-3.35 -22.35 -2.15 -22.3" fill="#7d7d7d" fill-rule="evenodd" stroke="none"/>
    <path d="M-1.5 -22.45 L-2.95 -22.0 Q-4.35 -21.5 -6.15 -20.35 -7.95 -19.15 -9.25 -17.05 -10.6 -14.9 -10.5 -11.65 L-9.95 -8.6 -8.9 -3.5 -7.65 2.45 -6.5 8.15 Q-5.95 10.75 -5.75 12.4 -4.95 17.9 -5.05 20.75 -5.2 23.6 -6.35 24.6 L-7.9 17.5 -9.55 8.95 -11.05 0.7 -12.15 -5.55 -12.55 -8.05 -12.9 -9.65 Q-13.15 -11.2 -13.05 -13.55 -13.0 -15.9 -11.9 -18.4 -10.95 -20.2 -9.3 -21.1 -7.6 -21.95 -5.85 -22.25 L-2.8 -22.5 -1.5 -22.45" fill="#6b6b6b" fill-rule="evenodd" stroke="none"/>
    <path d="M6.65 -23.75 L6.8 -23.7 Q8.95 -23.05 10.55 -21.35 12.2 -19.65 12.8 -17.25 13.4 -14.8 12.75 -12.55 12.1 -10.35 10.5 -8.7 8.9 -7.05 6.55 -6.45 L2.0 -6.6 1.3 -6.85 Q-0.45 -7.6 -1.8 -8.95 -3.4 -10.65 -4.05 -13.05 -4.6 -15.5 -3.95 -17.75 -3.35 -20.0 -1.7 -21.6 -0.1 -23.25 2.25 -23.85 L5.15 -24.05 6.1 -23.9 6.65 -23.75" fill="#7d7d7d" fill-rule="evenodd" stroke="none"/>
    <path d="M1.3 -6.85 L-0.55 -7.4 -1.55 -7.65 -2.15 -7.85 -2.3 -7.9 Q-4.0 -8.6 -5.25 -9.95 -6.8 -11.6 -7.45 -13.95 -8.0 -16.3 -7.4 -18.5 -6.75 -20.7 -5.2 -22.3 -3.6 -23.85 -1.35 -24.45 L-0.4 -24.65 1.05 -24.7 2.85 -24.4 5.15 -24.05 2.25 -23.85 Q-0.1 -23.25 -1.7 -21.6 -3.35 -20.0 -3.95 -17.75 -4.6 -15.5 -4.05 -13.05 -3.4 -10.65 -1.8 -8.95 -0.45 -7.6 1.3 -6.85 M6.1 -23.9 L6.65 -23.8 6.65 -23.75 6.1 -23.9" fill="#6b6b6b" fill-rule="evenodd" stroke="none"/>
  </g>
</svg>
