<?xml version="1.0" encoding="UTF-8" standalone="no"?>
<svg xmlns:xlink="http://www.w3.org/1999/xlink" height="71.25px" width="66.4px" xmlns="http://www.w3.org/2000/svg">
  <g transform="matrix(1.0, 0.0, 0.0, 1.0, 33.2, 35.65)">
    <path d="M11.8 12.6 L9.3 27.05 1.05 28.7 -1.3 27.95 -0.8 25.15 7.35 23.7 10.4 12.65 11.8 12.6" fill="#000000" fill-rule="evenodd" stroke="none"/>
    <path d="M-14.15 5.25 L-16.5 18.3 -25.25 18.85 -27.2 18.2 -26.7 15.65 -18.2 15.05 -15.65 5.25 -14.15 5.25" fill="#000000" fill-rule="evenodd" stroke="none"/>
    <path d="M32.5 -22.4 L32.95 -22.1 Q33.3 -21.75 33.15 -20.85 L32.45 -17.95 30.95 -11.7 29.05 -3.8 27.15 4.0 25.7 9.95 25.15 12.3 25.05 12.8 24.6 13.85 Q24.2 14.35 23.3 14.55 L20.7 14.7 16.85 14.7 13.35 14.65 11.8 14.65 22.25 -27.0 32.5 -22.4" fill="#4f291d" fill-rule="evenodd" stroke="none"/>
    <path d="M13.25 13.4 L12.4 14.45 11.5 14.6 -32.5 1.15 Q-33.05 0.95 -33.15 0.2 -33.3 -0.5 -33.05 -1.2 L-24.85 -34.8 -24.4 -35.4 -23.75 -35.65 21.9 -27.1 22.65 -26.7 Q23.0 -26.35 22.6 -25.2 L13.25 13.4" fill="#683c2c" fill-rule="evenodd" stroke="none"/>
    <path d="M6.45 -12.2 L4.2 -4.05 3.25 -1.15 Q2.95 -0.15 2.15 0.4 L0.3 0.65 -1.55 0.25 -6.55 -0.95 -13.7 -2.8 Q-19.5 -4.45 -22.8 -5.6 L-26.1 -6.85 Q-26.95 -7.1 -27.4 -7.9 -27.8 -8.7 -27.6 -9.65 L-27.3 -11.2 -26.6 -15.05 -25.55 -19.85 -24.35 -24.4 -23.4 -27.8 -23.0 -29.1 Q-22.75 -30.05 -22.0 -30.6 -21.3 -31.1 -20.4 -30.95 L-18.75 -30.75 -14.25 -30.1 -7.7 -28.95 -0.55 -27.4 4.75 -26.1 6.8 -25.55 Q7.85 -25.35 8.35 -24.5 8.85 -23.7 8.6 -22.65 L8.15 -20.05 6.45 -12.2" fill="#999999" fill-rule="evenodd" stroke="none"/>
    <path d="M6.45 -12.2 L4.2 -4.05 3.25 -1.15 Q2.95 -0.15 2.15 0.4 L0.3 0.65 -1.55 0.25 -6.55 -0.95 -13.7 -2.8 Q-19.5 -4.45 -22.8 -5.6 L-26.1 -6.85 Q-26.95 -7.1 -27.4 -7.9 -27.8 -8.7 -27.6 -9.65 L-27.3 -11.2 -26.6 -15.05 -25.55 -19.85 -24.35 -24.4 -23.4 -27.8 -23.0 -29.1 Q-22.75 -30.05 -22.0 -30.6 -21.3 -31.1 -20.4 -30.95 L-18.75 -30.75 -14.25 -30.1 -7.7 -28.95 -0.55 -27.4 4.75 -26.1 6.8 -25.55 Q7.85 -25.35 8.35 -24.5 8.85 -23.7 8.6 -22.65 L8.15 -20.05 6.45 -12.2 Z" fill="none" stroke="#000000" stroke-linecap="round" stroke-linejoin="round" stroke-width="5.0"/>
    <path d="M3.25 -1.15 Q2.95 -0.1 2.15 0.4 L0.3 0.65 -1.55 0.25 -6.55 -0.95 -13.7 -2.8 Q-19.5 -4.45 -22.8 -5.6 L-26.1 -6.85 Q-26.95 -7.1 -27.35 -7.9 -27.8 -8.65 -27.6 -9.65 L-27.3 -11.2 -26.6 -15.05 -25.55 -19.85 -24.35 -24.4 -23.4 -27.75 -23.0 -29.1 Q-22.75 -30.05 -22.0 -30.6 -21.3 -31.1 -20.4 -30.95 L-18.75 -30.75 -14.25 -30.1 -7.7 -28.95 -0.55 -27.4 4.75 -26.1 6.85 -25.55 Q7.85 -25.35 8.35 -24.5 8.85 -23.65 8.65 -22.6 L8.2 -20.05 6.45 -12.2 4.2 -4.05 3.25 -1.15" fill="#171717" fill-rule="evenodd" stroke="none"/>
    <path d="M17.65 -17.75 Q16.4 -16.85 15.0 -17.05 13.6 -17.2 12.7 -18.35 11.85 -19.55 12.05 -21.05 12.3 -22.5 13.5 -23.45 14.7 -24.35 16.1 -24.15 17.45 -23.95 18.4 -22.8 19.3 -21.55 19.05 -20.15 18.85 -18.75 17.65 -17.75 Z" fill="none" stroke="#a9775d" stroke-linecap="round" stroke-linejoin="round" stroke-width="0.35000000000000003"/>
    <path d="M17.25 -18.35 Q16.25 -17.6 15.15 -17.75 14.0 -17.9 13.3 -18.8 12.6 -19.75 12.8 -20.9 12.95 -22.0 13.9 -22.8 14.9 -23.5 16.0 -23.4 17.1 -23.25 17.85 -22.35 18.55 -21.4 18.4 -20.25 18.2 -19.1 17.25 -18.35" fill="#000000" fill-rule="evenodd" stroke="none"/>
    <path d="M14.15 -18.65 L13.65 -19.6 17.0 -22.45 17.75 -21.45 14.15 -18.65" fill="#683c2c" fill-rule="evenodd" stroke="none"/>
    <path d="M10.65 -5.85 Q10.4 -5.2 9.75 -5.3 9.1 -5.5 9.2 -6.2 9.45 -6.8 10.1 -6.75 10.75 -6.5 10.65 -5.85" fill="#000000" fill-rule="evenodd" stroke="none"/>
    <path d="M12.8 -5.25 Q12.6 -4.65 11.9 -4.7 11.25 -4.95 11.35 -5.65 11.6 -6.25 12.25 -6.2 12.9 -5.95 12.8 -5.25" fill="#000000" fill-rule="evenodd" stroke="none"/>
    <path d="M14.95 -4.75 Q14.75 -4.1 14.05 -4.2 13.45 -4.45 13.5 -5.15 13.75 -5.75 14.4 -5.7 15.1 -5.45 14.95 -4.75" fill="#000000" fill-rule="evenodd" stroke="none"/>
    <path d="M10.1 -3.65 Q9.85 -2.95 9.2 -3.1 8.55 -3.3 8.65 -4.0 8.9 -4.65 9.55 -4.55 10.2 -4.3 10.1 -3.65" fill="#000000" fill-rule="evenodd" stroke="none"/>
    <path d="M12.25 -3.1 Q12.05 -2.45 11.35 -2.55 10.7 -2.8 10.8 -3.5 11.05 -4.15 11.7 -4.05 12.35 -3.8 12.25 -3.1" fill="#000000" fill-rule="evenodd" stroke="none"/>
    <path d="M14.4 -2.55 Q14.2 -1.9 13.5 -2.0 12.9 -2.25 12.95 -2.95 13.2 -3.6 13.85 -3.5 14.5 -3.25 14.4 -2.55" fill="#000000" fill-rule="evenodd" stroke="none"/>
    <path d="M9.6 -1.45 Q9.35 -0.85 8.7 -0.95 8.05 -1.15 8.15 -1.85 8.4 -2.5 9.05 -2.4 9.7 -2.15 9.6 -1.45" fill="#000000" fill-rule="evenodd" stroke="none"/>
    <path d="M11.7 -0.9 Q11.5 -0.25 10.8 -0.35 10.15 -0.6 10.25 -1.3 10.5 -1.95 11.15 -1.85 11.8 -1.6 11.7 -0.9" fill="#000000" fill-rule="evenodd" stroke="none"/>
    <path d="M13.85 -0.35 Q13.65 0.3 12.95 0.2 12.3 -0.05 12.4 -0.75 12.65 -1.4 13.3 -1.3 13.95 -1.05 13.85 -0.35" fill="#000000" fill-rule="evenodd" stroke="none"/>
    <path d="M9.05 0.7 Q8.8 1.35 8.15 1.2 7.5 1.0 7.6 0.3 7.85 -0.35 8.5 -0.25 9.15 0.0 9.05 0.7" fill="#000000" fill-rule="evenodd" stroke="none"/>
    <path d="M11.2 1.3 Q11.0 1.95 10.3 1.85 9.65 1.6 9.75 0.9 10.0 0.25 10.65 0.35 11.3 0.6 11.2 1.3" fill="#000000" fill-rule="evenodd" stroke="none"/>
    <path d="M13.35 1.85 Q13.15 2.5 12.45 2.4 11.85 2.15 11.9 1.45 12.15 0.8 12.8 0.9 13.45 1.15 13.35 1.85" fill="#000000" fill-rule="evenodd" stroke="none"/>
    <path d="M8.55 2.9 Q8.3 3.55 7.65 3.4 7.0 3.2 7.1 2.5 7.35 1.85 8.0 1.95 8.65 2.2 8.55 2.9" fill="#000000" fill-rule="evenodd" stroke="none"/>
    <path d="M10.65 3.45 Q10.4 4.1 9.75 4.0 9.1 3.75 9.2 3.05 9.45 2.4 10.1 2.5 10.75 2.75 10.65 3.45" fill="#000000" fill-rule="evenodd" stroke="none"/>
    <path d="M12.8 4.05 Q12.6 4.7 11.9 4.6 11.25 4.35 11.35 3.65 11.6 3.0 12.25 3.15 12.9 3.35 12.8 4.05" fill="#000000" fill-rule="evenodd" stroke="none"/>
    <path d="M-17.75 1.35 L-17.95 1.3 Q-17.8 0.65 -18.25 0.55 L-18.3 0.55 -18.6 1.95 -18.5 2.15 -18.35 2.2 -18.4 2.45 -19.45 2.15 -19.4 1.9 -19.25 1.95 Q-19.05 2.05 -19.0 1.8 L-18.7 0.4 Q-19.15 0.25 -19.3 0.9 L-19.5 0.85 -19.3 0.0 -17.55 0.5 -17.75 1.35" fill="#e0d2b3" fill-rule="evenodd" stroke="none"/>
    <path d="M-16.2 1.4 L-16.45 2.45 -16.7 2.4 Q-16.55 1.9 -16.9 1.85 L-17.0 1.85 -17.15 2.55 -16.65 2.7 Q-16.25 2.9 -16.05 2.2 L-15.85 2.25 -16.05 3.15 -17.9 2.6 -17.85 2.35 -17.75 2.4 Q-17.55 2.5 -17.5 2.25 L-17.2 1.05 -17.35 0.8 -17.45 0.8 -17.4 0.55 -15.55 1.05 -15.75 1.9 -15.95 1.85 Q-15.8 1.2 -16.35 1.1 L-16.8 1.0 -16.95 1.6 -16.8 1.65 Q-16.5 1.75 -16.45 1.35 L-16.2 1.4" fill="#e0d2b3" fill-rule="evenodd" stroke="none"/>
    <path d="M-14.35 1.65 L-14.5 1.65 Q-14.7 1.55 -14.7 1.75 L-15.05 3.2 -14.7 3.3 -14.25 3.25 -14.05 2.8 -14.05 2.75 -13.8 2.85 -14.05 3.7 -15.8 3.2 -15.75 3.0 -15.65 3.0 Q-15.4 3.1 -15.4 2.85 L-15.1 1.65 Q-15.05 1.45 -15.25 1.4 L-15.35 1.4 -15.3 1.15 -14.3 1.45 -14.35 1.65" fill="#e0d2b3" fill-rule="evenodd" stroke="none"/>
    <path d="M-12.15 2.6 L-12.4 3.6 -12.6 3.55 Q-12.5 3.1 -12.8 3.05 L-12.9 3.0 -13.1 3.75 -12.6 3.9 Q-12.15 4.05 -11.95 3.4 L-11.75 3.45 -11.95 4.3 -13.85 3.75 -13.8 3.55 -13.7 3.55 Q-13.45 3.65 -13.45 3.45 L-13.15 2.2 Q-13.05 2.0 -13.3 1.95 L-13.4 1.95 -13.35 1.7 -11.45 2.25 -11.65 3.05 -11.9 3.0 Q-11.7 2.35 -12.25 2.25 L-12.7 2.15 -12.85 2.75 -12.75 2.8 Q-12.45 2.95 -12.35 2.5 L-12.15 2.6" fill="#e0d2b3" fill-rule="evenodd" stroke="none"/>
    <path d="M-10.05 3.15 L-10.3 4.2 -10.5 4.15 Q-10.35 3.65 -10.7 3.65 L-10.75 3.6 -10.9 4.15 -10.75 4.4 -10.6 4.45 -10.65 4.7 -11.7 4.4 -11.65 4.15 -11.55 4.2 Q-11.3 4.25 -11.3 4.05 L-11.0 2.8 Q-10.9 2.6 -11.15 2.55 L-11.25 2.55 -11.2 2.3 -9.4 2.8 -9.6 3.7 -9.85 3.6 -9.8 3.1 -10.2 2.85 -10.55 2.75 -10.7 3.4 -10.65 3.4 Q-10.35 3.55 -10.25 3.1 L-10.05 3.15" fill="#e0d2b3" fill-rule="evenodd" stroke="none"/>
    <path d="M-8.2 3.45 L-8.35 3.4 -8.6 3.55 -8.95 4.95 -8.55 5.05 -8.1 5.05 -7.9 4.6 -7.9 4.55 -7.65 4.6 -7.9 5.5 -9.7 5.0 -9.65 4.75 -9.55 4.8 -9.3 4.65 -9.0 3.4 Q-8.9 3.2 -9.15 3.15 L-9.25 3.15 -9.2 2.9 -8.15 3.2 -8.2 3.45" fill="#e0d2b3" fill-rule="evenodd" stroke="none"/>
    <path d="M-5.6 4.35 L-5.85 5.35 Q-6.05 6.1 -6.8 5.9 -7.6 5.65 -7.4 4.9 L-7.15 3.9 Q-7.1 3.7 -7.3 3.65 L-7.4 3.65 -7.35 3.4 -6.35 3.7 -6.4 3.95 -6.5 3.9 Q-6.75 3.8 -6.75 4.05 L-7.0 5.05 Q-7.15 5.45 -6.7 5.6 L-6.2 5.3 -5.95 4.25 Q-5.85 4.05 -6.1 4.0 L-6.2 4.0 -6.15 3.75 -5.2 4.0 -5.3 4.25 -5.4 4.2 -5.6 4.35" fill="#e0d2b3" fill-rule="evenodd" stroke="none"/>
    <path d="M-3.0 4.9 L-3.4 5.05 -3.95 5.4 -3.6 6.25 -3.3 6.55 -3.2 6.6 -3.3 6.85 -4.45 6.5 -4.35 6.25 -4.25 6.3 -4.1 6.3 -4.1 6.2 -4.3 5.65 -4.7 5.9 -4.8 6.05 -4.7 6.15 -4.55 6.2 -4.6 6.45 -5.65 6.15 -5.6 5.9 -5.5 5.95 -5.2 5.85 -4.45 5.35 -4.75 4.55 -5.0 4.3 -5.1 4.3 -5.05 4.05 -4.0 4.35 -4.05 4.6 -4.2 4.55 -4.3 4.6 -4.25 4.7 -4.1 5.1 -3.7 4.85 -3.6 4.8 Q-3.6 4.7 -3.75 4.7 L-3.85 4.65 -3.8 4.4 -2.85 4.7 -2.9 4.9 -3.0 4.9" fill="#e0d2b3" fill-rule="evenodd" stroke="none"/>
    <path d="M-15.65 10.8 L9.75 18.5 9.3 20.45 -16.25 12.45 -15.65 10.8" fill="#000000" fill-rule="evenodd" stroke="none"/>
    <path d="M-26.75 21.65 L-25.7 17.25" fill="none" stroke="#000000" stroke-linecap="round" stroke-linejoin="round" stroke-width="1.35"/>
    <path d="M-18.85 22.0 L-17.8 17.6" fill="none" stroke="#000000" stroke-linecap="round" stroke-linejoin="round" stroke-width="1.35"/>
    <path d="M-1.3 31.6 L-0.25 27.2" fill="none" stroke="#000000" stroke-linecap="round" stroke-linejoin="round" stroke-width="1.35"/>
    <path d="M6.95 30.55 L8.0 26.15" fill="none" stroke="#000000" stroke-linecap="round" stroke-linejoin="round" stroke-width="1.35"/>
    <path d="M-22.85 22.55 Q-23.1 23.5 -23.85 23.95 L-25.55 24.2 Q-26.5 23.95 -26.95 23.2 -27.45 22.45 -27.25 21.5 -27.0 20.6 -26.2 20.1 -25.45 19.65 -24.5 19.85 -23.6 20.1 -23.1 20.9 -22.65 21.65 -22.85 22.55" fill="#000000" fill-rule="evenodd" stroke="none"/>
    <path d="M-15.0 21.95 Q-15.2 22.8 -15.95 23.2 L-17.6 23.4 -19.0 22.45 Q-19.5 21.75 -19.3 20.9 -19.05 20.1 -18.35 19.65 L-16.65 19.45 Q-15.75 19.7 -15.3 20.4 -14.8 21.1 -15.0 21.95" fill="#000000" fill-rule="evenodd" stroke="none"/>
    <path d="M3.0 32.8 Q2.7 33.8 1.85 34.25 L-0.15 34.5 Q-1.25 34.2 -1.8 33.4 -2.35 32.55 -2.15 31.55 -1.9 30.6 -1.0 30.1 L1.0 29.9 Q2.05 30.2 2.65 31.0 3.2 31.85 3.0 32.8" fill="#000000" fill-rule="evenodd" stroke="none"/>
    <path d="M9.8 31.05 Q9.55 32.05 8.9 32.6 8.25 33.1 7.5 32.95 6.75 32.75 6.45 32.0 6.1 31.2 6.35 30.25 6.6 29.25 7.25 28.7 7.9 28.2 8.6 28.35 9.35 28.55 9.65 29.3 10.0 30.1 9.8 31.05" fill="#000000" fill-rule="evenodd" stroke="none"/>
    <path d="M-22.6 23.9 Q-22.85 24.85 -23.6 25.3 L-25.3 25.55 Q-26.25 25.3 -26.7 24.55 -27.2 23.8 -27.0 22.85 -26.75 21.95 -25.95 21.45 -25.2 21.0 -24.25 21.2 -23.35 21.45 -22.85 22.25 -22.4 23.0 -22.6 23.9" fill="#666666" fill-rule="evenodd" stroke="none"/>
    <path d="M-15.15 22.85 Q-15.35 23.7 -16.1 24.1 L-17.75 24.3 Q-18.7 24.05 -19.15 23.35 -19.65 22.65 -19.45 21.8 -19.2 21.0 -18.5 20.55 L-16.8 20.35 Q-15.9 20.6 -15.45 21.3 -14.95 22.0 -15.15 22.85" fill="#666666" fill-rule="evenodd" stroke="none"/>
    <path d="M2.85 33.8 Q2.55 34.8 1.7 35.25 L-0.3 35.5 Q-1.4 35.2 -1.95 34.4 -2.5 33.55 -2.3 32.55 -2.05 31.6 -1.15 31.1 L0.85 30.9 Q1.9 31.2 2.5 32.0 3.05 32.85 2.85 33.8" fill="#666666" fill-rule="evenodd" stroke="none"/>
    <path d="M10.8 31.55 Q10.55 32.55 9.9 33.1 9.25 33.6 8.5 33.45 7.75 33.25 7.45 32.5 7.1 31.7 7.35 30.75 7.6 29.75 8.25 29.2 8.9 28.7 9.6 28.85 10.35 29.05 10.65 29.8 11.0 30.6 10.8 31.55" fill="#666666" fill-rule="evenodd" stroke="none"/>
  </g>
</svg>
