<?xml version="1.0" encoding="UTF-8" standalone="no"?>
<svg xmlns:xlink="http://www.w3.org/1999/xlink" height="247.85px" width="480.9px" xmlns="http://www.w3.org/2000/svg">
  <g transform="matrix(1.0, 0.0, 0.0, 1.0, 240.7, 84.85)">
    <path d="M-191.8 -66.35 L-191.6 -65.7 -190.9 -64.6 -191.5 -65.2 -191.6 -65.3 -191.8 -66.35 -191.6 -65.3 -191.5 -65.2 -190.9 -64.6 -188.5 -61.7 -186.85 -59.9 Q-182.35 -54.95 -178.55 -49.25 L-173.2 -40.85 Q-170.15 -37.6 -168.75 -35.0 -168.4 -31.6 -168.8 -26.15 -169.3 -20.8 -168.9 -15.7 -167.95 -7.75 -166.65 -1.55 -165.35 4.7 -165.85 8.3 -167.25 14.95 -169.95 24.95 L-170.5 26.9 -169.9 27.55 Q-165.75 32.1 -164.95 35.85 L-164.9 35.9 -164.9 36.0 Q-164.95 38.85 -167.85 47.9 L-168.05 48.5 Q-167.2 51.6 -167.3 53.85 -168.85 59.95 -171.6 63.25 L-174.0 66.0 -174.55 67.55 -176.0 72.55 Q-179.65 85.1 -180.0 88.7 -179.9 92.55 -177.15 107.65 L-171.55 136.9 -168.55 152.05 Q-168.45 152.75 -171.6 156.9 -174.7 161.05 -182.45 160.95 -184.6 159.25 -181.3 154.75 L-177.6 149.85 -181.8 153.55 Q-185.9 157.15 -190.3 159.7 -194.7 162.25 -195.65 159.45 -195.0 150.1 -188.2 147.75 -181.45 145.3 -180.45 145.7 L-183.65 132.65 -189.55 107.35 Q-192.55 94.1 -192.75 90.15 -192.65 86.5 -190.55 78.1 -188.6 69.6 -186.5 62.15 L-184.95 56.65 -184.95 54.3 -185.2 54.35 Q-186.25 56.55 -187.85 58.45 L-187.7 59.7 Q-188.15 63.55 -190.5 61.05 -195.1 64.7 -201.55 65.0 L-201.9 65.0 Q-201.65 72.55 -200.95 79.95 L-199.45 93.6 Q-198.95 93.75 -197.3 98.85 -195.65 104.0 -199.2 111.9 -200.35 107.05 -200.9 102.45 -200.85 105.8 -200.1 109.75 -199.45 113.65 -199.8 114.45 -203.9 109.9 -204.7 104.7 -205.55 99.4 -203.35 95.55 -203.15 91.1 -204.05 79.5 L-204.95 64.7 Q-208.95 64.0 -212.15 61.75 -215.2 66.1 -215.75 61.6 L-215.5 58.75 -216.5 57.5 -218.35 57.65 -219.15 59.95 -217.6 63.9 -212.8 76.15 Q-210.3 82.7 -209.35 85.7 -208.35 90.1 -209.55 95.35 L-211.0 101.0 -220.65 142.5 Q-219.9 142.8 -214.85 147.5 -209.85 152.15 -209.25 158.25 -218.4 158.45 -222.25 149.7 -220.85 156.4 -222.05 159.45 -223.2 162.5 -223.5 162.5 -224.25 162.25 -229.3 158.5 -234.4 154.85 -235.2 150.8 -234.95 147.5 -230.7 134.3 L-222.15 107.75 Q-217.95 94.4 -217.65 90.8 -218.1 87.35 -223.55 75.8 L-228.3 65.65 -227.35 68.7 -230.55 64.45 Q-233.4 60.5 -234.7 57.05 -235.5 53.55 -235.4 50.4 -239.8 40.8 -240.2 37.6 -239.45 32.9 -233.9 28.6 L-233.4 28.2 -233.8 26.65 -237.85 10.65 Q-238.65 5.9 -237.65 -3.3 -236.75 -12.5 -235.35 -21.5 L-235.6 -31.65 Q-235.0 -34.0 -232.7 -36.55 -230.5 -39.15 -228.5 -42.65 -223.5 -51.4 -218.3 -56.85 L-213.55 -61.8 -213.75 -60.95 -213.7 -60.8 -212.7 -62.55 -212.65 -62.7 -212.25 -65.4 -210.35 -78.0 -195.1 -76.05 -191.8 -66.35 M-173.2 -40.85 L-172.25 -39.3 -178.15 -38.2 -186.5 -38.45 Q-189.0 -40.4 -190.7 -46.1 -192.4 -51.8 -192.5 -54.1 L-192.15 -60.45 -191.85 -65.2 -188.5 -61.7 -191.85 -65.2 -192.15 -60.45 -192.5 -54.1 Q-192.4 -51.8 -190.7 -46.1 -189.0 -40.4 -186.5 -38.45 L-178.15 -38.2 -172.25 -39.3 -173.2 -40.85 M-182.5 -25.1 Q-181.8 -25.2 -179.0 -19.85 -178.3 -17.1 -178.25 -3.25 L-178.25 -1.05 -178.85 -1.6 Q-181.8 -4.3 -184.8 -4.15 -188.3 -2.65 -194.15 7.8 -200.0 18.15 -199.0 24.35 L-196.7 29.45 -202.05 28.7 Q-209.75 29.0 -214.8 34.2 -219.15 38.65 -219.8 45.1 -220.65 42.65 -221.6 40.75 -223.9 36.15 -224.1 36.05 L-224.65 22.7 -225.35 4.9 -224.9 4.5 Q-218.75 -1.55 -212.5 -8.75 -206.3 -16.0 -205.5 -19.95 -204.1 -30.2 -205.45 -38.0 -206.85 -43.15 -210.1 -51.75 L-213.7 -60.8 -210.1 -51.75 Q-206.85 -43.15 -205.45 -38.0 -204.1 -30.2 -205.5 -19.95 -206.3 -16.0 -212.5 -8.75 -218.75 -1.55 -224.9 4.5 L-225.35 4.9 -224.65 22.7 -224.1 36.05 Q-223.9 36.15 -221.6 40.75 -220.65 42.65 -219.8 45.1 -219.15 38.65 -214.8 34.2 -209.75 29.0 -202.05 28.7 L-196.7 29.45 -199.0 24.35 Q-200.0 18.15 -194.15 7.8 -188.3 -2.65 -184.8 -4.15 -181.8 -4.3 -178.85 -1.6 L-178.25 -1.05 -178.25 -3.25 Q-178.3 -17.1 -179.0 -19.85 -181.8 -25.2 -182.5 -25.1 M-225.35 4.9 L-225.55 -2.55 Q-225.9 -15.45 -225.45 -17.85 -223.0 -22.8 -222.1 -23.2 -223.0 -22.8 -225.45 -17.85 -225.9 -15.45 -225.55 -2.55 L-225.35 4.9 M-72.4 -42.85 L-65.0 -39.45 Q-53.5 -34.2 -42.25 -26.75 -31.05 -19.3 -31.05 -12.6 -32.85 -4.2 -36.75 1.85 -35.7 4.95 -35.7 7.7 -35.7 19.55 -45.9 26.0 -52.7 30.4 -60.0 32.95 L-58.2 35.6 Q-55.0 40.4 -57.55 42.05 -59.1 43.0 -65.65 40.2 L-66.25 42.65 Q-68.15 50.65 -68.1 54.35 -65.15 54.1 -58.35 55.5 L-45.7 58.5 -39.45 60.2 -46.65 60.2 Q-53.05 60.3 -54.9 61.35 -53.05 64.15 -52.9 64.85 L-55.2 63.5 Q-57.3 62.35 -59.0 62.2 -60.75 62.0 -64.85 62.25 -68.9 62.45 -71.3 64.7 -71.95 62.2 -71.75 58.35 L-71.45 54.15 -69.1 38.6 -73.65 36.35 -79.25 37.25 Q-81.4 41.55 -83.0 41.2 -84.9 40.65 -85.95 38.0 L-86.5 36.6 -88.85 36.05 -94.2 38.95 -92.05 53.1 -91.75 57.3 Q-91.6 61.15 -92.25 63.65 -94.65 61.4 -98.7 61.2 -102.75 60.95 -104.55 61.15 -106.2 61.3 -108.25 62.45 L-110.55 63.8 Q-110.5 63.1 -108.6 60.3 -110.5 59.25 -116.8 59.15 L-124.0 59.15 -117.75 57.45 Q-111.9 55.9 -105.1 54.45 -98.4 53.05 -95.35 53.3 -95.35 49.6 -97.25 41.6 L-97.5 40.55 Q-103.6 43.35 -104.65 42.3 -106.4 40.6 -102.85 35.75 L-100.55 32.75 Q-108.85 29.7 -116.8 24.45 -127.3 17.45 -128.4 5.6 L-128.45 5.0 -129.25 3.9 Q-134.3 -2.7 -136.4 -12.6 -136.45 -19.3 -125.2 -26.75 -114.0 -34.2 -102.45 -39.45 L-93.9 -43.35 Q-82.95 -49.6 -72.4 -42.85 M-55.2 -22.75 Q-40.3 -8.45 -36.75 1.85 -40.3 -8.45 -55.2 -22.75 M-128.45 5.0 Q-129.1 -6.75 -112.55 -23.9 -129.1 -6.75 -128.45 5.0 M-177.3 149.55 L-177.6 149.85 -177.3 149.55 M-204.95 64.7 L-201.9 65.0 -204.95 64.7 M-187.85 58.45 Q-188.4 53.85 -190.75 52.15 -193.4 50.15 -193.75 50.3 -193.4 50.15 -190.75 52.15 -188.4 53.85 -187.85 58.45 M-195.25 54.05 Q-194.85 55.1 -191.5 59.75 L-190.5 61.05 -191.5 59.75 Q-194.85 55.1 -195.25 54.05 M-185.2 54.35 L-184.95 53.75 Q-183.65 50.45 -183.6 46.6 -184.0 38.85 -189.15 33.85 -192.4 30.65 -196.7 29.45 -192.4 30.65 -189.15 33.85 -184.0 38.85 -183.6 46.6 -183.65 50.45 -184.95 53.75 L-184.95 54.3 -184.95 53.75 -185.2 54.35 M-174.55 67.55 L-176.85 73.85 -186.6 65.6 -185.45 60.6 Q-185.05 58.6 -184.95 56.65 -185.05 58.6 -185.45 60.6 L-186.6 65.6 -176.85 73.85 -174.55 67.55 M-228.3 65.65 L-228.85 63.3 Q-230.0 58.25 -228.1 53.1 -228.3 57.5 -226.25 62.5 L-223.95 67.95 Q-223.5 67.5 -220.5 62.55 L-219.15 59.95 -220.5 62.55 Q-223.5 67.5 -223.95 67.95 L-226.25 62.5 Q-228.3 57.5 -228.1 53.1 -230.0 58.25 -228.85 63.3 L-228.3 65.65 M-217.85 55.25 L-217.8 52.75 Q-218.7 48.4 -219.8 45.1 -218.7 48.4 -217.8 52.75 L-217.85 55.25 -216.5 57.5 -217.85 55.25 -218.35 57.65 -217.85 55.25 M-215.5 58.75 Q-214.9 55.4 -212.95 53.95 -210.4 51.9 -210.0 52.05 -210.4 51.9 -212.95 53.95 -214.9 55.4 -215.5 58.75 M-208.4 55.75 Q-208.8 56.8 -212.0 61.55 L-212.15 61.75 -212.0 61.55 Q-208.8 56.8 -208.4 55.75 M-207.35 40.25 Q-207.75 41.3 -210.95 46.05 -214.1 50.75 -214.7 46.1 -214.55 40.45 -211.9 38.45 -209.35 36.4 -208.95 36.55 -209.35 36.4 -211.9 38.45 -214.55 40.45 -214.7 46.1 -214.1 50.75 -210.95 46.05 -207.75 41.3 -207.35 40.25 M-233.4 28.2 L-231.1 37.05 Q-231.6 37.45 -234.0 43.45 -235.3 46.7 -235.4 50.4 -235.3 46.7 -234.0 43.45 -231.6 37.45 -231.1 37.05 L-233.4 28.2 M-168.05 48.5 Q-168.7 46.15 -169.9 43.3 -172.6 36.75 -173.05 36.0 L-170.5 26.9 -173.05 36.0 Q-172.6 36.75 -169.9 43.3 -168.7 46.15 -168.05 48.5 M-178.25 -1.05 Q-178.3 11.6 -178.5 23.85 L-178.8 38.05 -181.05 42.5 Q-183.1 46.65 -183.85 51.4 -184.15 56.1 -182.9 59.75 L-181.55 63.6 Q-181.0 63.55 -177.5 60.3 -174.05 56.95 -174.4 50.25 -173.25 53.35 -173.85 59.65 L-174.65 66.6 -174.0 66.0 -174.65 66.6 -173.85 59.65 Q-173.25 53.35 -174.4 50.25 -174.05 56.95 -177.5 60.3 -181.0 63.55 -181.55 63.6 L-182.9 59.75 Q-184.15 56.1 -183.85 51.4 -183.1 46.65 -181.05 42.5 L-178.8 38.05 -178.5 23.85 Q-178.3 11.6 -178.25 -1.05 M-164.95 35.85 L-164.9 36.0 -164.95 35.85 M-196.0 39.7 Q-195.6 40.75 -192.25 45.4 -188.95 50.0 -188.45 45.35 -188.85 39.75 -191.5 37.8 -194.15 35.8 -194.5 35.95 -194.15 35.8 -191.5 37.8 -188.85 39.75 -188.45 45.35 -188.95 50.0 -192.25 45.4 -195.6 40.75 -196.0 39.7 M-97.5 40.55 L-99.3 33.2 -100.55 32.75 -99.3 33.2 -95.25 34.45 -94.9 34.55 -88.85 36.05 -94.9 34.55 -95.25 34.45 -99.3 33.2 -97.5 40.55 M-79.25 37.25 L-81.3 37.35 -86.5 36.6 -81.3 37.35 -79.25 37.25 M-94.9 34.55 L-94.2 38.95 -94.9 34.55 M-64.2 34.25 L-67.2 34.95 -68.6 35.3 -69.1 38.6 -68.6 35.3 -73.65 36.35 -68.6 35.3 -67.2 34.95 -64.2 34.25 -60.0 32.95 -64.2 34.25 -65.65 40.2 -64.2 34.25" fill="#000000" fill-rule="evenodd" stroke="none"/>
    <path d="M-190.9 -64.6 L-191.6 -65.7 -191.8 -66.35 -191.6 -65.3 -191.5 -65.2 -190.9 -64.6 -188.5 -61.7 -186.85 -59.9 Q-182.35 -54.95 -178.55 -49.25 L-173.2 -40.85 Q-170.15 -37.6 -168.75 -35.0 -168.4 -31.6 -168.8 -26.15 -169.3 -20.8 -168.9 -15.7 -167.95 -7.75 -166.65 -1.55 -165.35 4.7 -165.85 8.3 -167.25 14.95 -169.95 24.95 L-170.5 26.9 -169.9 27.55 Q-165.75 32.1 -164.95 35.85 L-164.9 35.9 -164.9 36.0 Q-164.95 38.85 -167.85 47.9 L-168.05 48.5 Q-167.2 51.6 -167.3 53.85 -168.85 59.95 -171.6 63.25 L-174.0 66.0 -174.55 67.55 -176.0 72.55 Q-179.65 85.1 -180.0 88.7 -179.9 92.55 -177.15 107.65 L-171.55 136.9 -168.55 152.05 Q-168.45 152.75 -171.6 156.9 -174.7 161.05 -182.45 160.95 -184.6 159.25 -181.3 154.75 L-177.6 149.85 -181.8 153.55 Q-185.9 157.15 -190.3 159.7 -194.7 162.25 -195.65 159.45 -195.0 150.1 -188.2 147.75 -181.45 145.3 -180.45 145.7 L-183.65 132.65 -189.55 107.35 Q-192.55 94.1 -192.75 90.15 -192.65 86.5 -190.55 78.1 -188.6 69.6 -186.5 62.15 L-184.95 56.65 -184.95 54.3 -185.2 54.35 Q-186.25 56.55 -187.85 58.45 L-187.7 59.7 Q-188.15 63.55 -190.5 61.05 -195.1 64.7 -201.55 65.0 L-201.9 65.0 Q-201.65 72.55 -200.95 79.95 L-199.45 93.6 Q-198.95 93.75 -197.3 98.85 -195.65 104.0 -199.2 111.9 -200.35 107.05 -200.9 102.45 -200.85 105.8 -200.1 109.75 -199.45 113.65 -199.8 114.45 -203.9 109.9 -204.7 104.7 -205.55 99.4 -203.35 95.55 -203.15 91.1 -204.05 79.5 L-204.95 64.7 Q-208.95 64.0 -212.15 61.75 -215.2 66.1 -215.75 61.6 L-215.5 58.75 -216.5 57.5 -218.35 57.65 -219.15 59.95 -217.6 63.9 -212.8 76.15 Q-210.3 82.7 -209.35 85.7 -208.35 90.1 -209.55 95.35 L-211.0 101.0 -220.65 142.5 Q-219.9 142.8 -214.85 147.5 -209.85 152.15 -209.25 158.25 -218.4 158.45 -222.25 149.7 -220.85 156.4 -222.05 159.45 -223.2 162.5 -223.5 162.5 -224.25 162.25 -229.3 158.5 -234.4 154.85 -235.2 150.8 -234.95 147.5 -230.7 134.3 L-222.15 107.75 Q-217.95 94.4 -217.65 90.8 -218.1 87.35 -223.55 75.8 L-228.3 65.65 -227.35 68.7 -230.55 64.45 Q-233.4 60.5 -234.7 57.05 -235.5 53.55 -235.4 50.4 -239.8 40.8 -240.2 37.6 -239.45 32.9 -233.9 28.6 L-233.4 28.2 -233.8 26.65 -237.85 10.65 Q-238.65 5.9 -237.65 -3.3 -236.75 -12.5 -235.35 -21.5 L-235.6 -31.65 Q-235.0 -34.0 -232.7 -36.55 -230.5 -39.15 -228.5 -42.65 -223.5 -51.4 -218.3 -56.85 L-213.55 -61.8 -212.7 -62.55 -212.25 -65.4 -210.35 -78.0 -195.1 -76.05 -191.8 -66.35 -193.7 -75.1 M-188.5 -61.7 L-191.85 -65.2 -192.15 -60.45 -192.5 -54.1 Q-192.4 -51.8 -190.7 -46.1 -189.0 -40.4 -186.5 -38.45 L-178.15 -38.2 -172.25 -39.3 -173.2 -40.85 M-212.25 -65.4 L-212.65 -62.7 -212.7 -62.55 -213.7 -60.8 -210.1 -51.75 Q-206.85 -43.15 -205.45 -38.0 -204.1 -30.2 -205.5 -19.95 -206.3 -16.0 -212.5 -8.75 -218.75 -1.55 -224.9 4.5 L-225.35 4.9 -224.65 22.7 -224.1 36.05 Q-223.9 36.15 -221.6 40.75 -220.65 42.65 -219.8 45.1 -219.15 38.65 -214.8 34.2 -209.75 29.0 -202.05 28.7 L-196.7 29.45 -199.0 24.35 Q-200.0 18.15 -194.15 7.8 -188.3 -2.65 -184.8 -4.15 -181.8 -4.3 -178.85 -1.6 L-178.25 -1.05 -178.25 -3.25 Q-178.3 -17.1 -179.0 -19.85 -181.8 -25.2 -182.5 -25.1 M-213.75 -60.95 L-213.7 -60.8 M-222.1 -23.2 Q-223.0 -22.8 -225.45 -17.85 -225.9 -15.45 -225.55 -2.55 L-225.35 4.9 M-72.4 -42.85 L-65.0 -39.45 Q-53.5 -34.2 -42.25 -26.75 -31.05 -19.3 -31.05 -12.6 -32.85 -4.2 -36.75 1.85 -35.7 4.95 -35.7 7.7 -35.7 19.55 -45.9 26.0 -52.7 30.4 -60.0 32.95 L-58.2 35.6 Q-55.0 40.4 -57.55 42.05 -59.1 43.0 -65.65 40.2 L-66.25 42.65 Q-68.15 50.65 -68.1 54.35 -65.15 54.1 -58.35 55.5 L-45.7 58.5 -39.45 60.2 -46.65 60.2 Q-53.05 60.3 -54.9 61.35 -53.05 64.15 -52.9 64.85 L-55.2 63.5 Q-57.3 62.35 -59.0 62.2 -60.75 62.0 -64.85 62.25 -68.9 62.45 -71.3 64.7 -71.95 62.2 -71.75 58.35 L-71.45 54.15 -69.1 38.6 -73.65 36.35 -79.25 37.25 Q-81.4 41.55 -83.0 41.2 -84.9 40.65 -85.95 38.0 L-86.5 36.6 -88.85 36.05 -94.2 38.95 -92.05 53.1 -91.75 57.3 Q-91.6 61.15 -92.25 63.65 -94.65 61.4 -98.7 61.2 -102.75 60.95 -104.55 61.15 -106.2 61.3 -108.25 62.45 L-110.55 63.8 Q-110.5 63.1 -108.6 60.3 -110.5 59.25 -116.8 59.15 L-124.0 59.15 -117.75 57.45 Q-111.9 55.9 -105.1 54.45 -98.4 53.05 -95.35 53.3 -95.35 49.6 -97.25 41.6 L-97.5 40.55 Q-103.6 43.35 -104.65 42.3 -106.4 40.6 -102.85 35.75 L-100.55 32.75 Q-108.85 29.7 -116.8 24.45 -127.3 17.45 -128.4 5.6 L-128.45 5.0 -129.25 3.9 Q-134.3 -2.7 -136.4 -12.6 -136.45 -19.3 -125.2 -26.75 -114.0 -34.2 -102.45 -39.45 L-93.9 -43.35 M-69.1 38.6 L-68.6 35.3 -73.65 36.35 M-60.0 32.95 L-64.2 34.25 -65.65 40.2 M-68.6 35.3 L-67.2 34.95 -64.2 34.25 M-100.55 32.75 L-99.3 33.2 -95.25 34.45 -94.9 34.55 -88.85 36.05 M-94.2 38.95 L-94.9 34.55 M-86.5 36.6 L-81.3 37.35 -79.25 37.25 M-99.3 33.2 L-97.5 40.55 M-196.7 29.45 Q-192.4 30.65 -189.15 33.85 -184.0 38.85 -183.6 46.6 -183.65 50.45 -184.95 53.75 L-184.95 54.3 M-194.5 35.95 Q-194.15 35.8 -191.5 37.8 -188.85 39.75 -188.45 45.35 -188.95 50.0 -192.25 45.4 -195.6 40.75 -196.0 39.7 M-164.9 36.0 L-164.95 35.85 M-174.0 66.0 L-174.65 66.6 -173.85 59.65 Q-173.25 53.35 -174.4 50.25 -174.05 56.95 -177.5 60.3 -181.0 63.55 -181.55 63.6 L-182.9 59.75 Q-184.15 56.1 -183.85 51.4 -183.1 46.65 -181.05 42.5 L-178.8 38.05 -178.5 23.85 Q-178.3 11.6 -178.25 -1.05 M-170.5 26.9 L-173.05 36.0 Q-172.6 36.75 -169.9 43.3 -168.7 46.15 -168.05 48.5 M-235.4 50.4 Q-235.3 46.7 -234.0 43.45 -231.6 37.45 -231.1 37.05 L-233.4 28.2 M-208.95 36.55 Q-209.35 36.4 -211.9 38.45 -214.55 40.45 -214.7 46.1 -214.1 50.75 -210.95 46.05 -207.75 41.3 -207.35 40.25 M-212.15 61.75 L-212.0 61.55 Q-208.8 56.8 -208.4 55.75 M-216.5 57.5 L-217.85 55.25 -218.35 57.65 M-210.0 52.05 Q-210.4 51.9 -212.95 53.95 -214.9 55.4 -215.5 58.75 M-219.8 45.1 Q-218.7 48.4 -217.8 52.75 L-217.85 55.25 M-219.15 59.95 L-220.5 62.55 Q-223.5 67.5 -223.95 67.95 L-226.25 62.5 Q-228.3 57.5 -228.1 53.1 -230.0 58.25 -228.85 63.3 L-228.3 65.65 M-184.95 56.65 Q-185.05 58.6 -185.45 60.6 L-186.6 65.6 -176.85 73.85 -174.55 67.55 M-184.95 53.75 L-185.2 54.35 M-190.5 61.05 L-191.5 59.75 Q-194.85 55.1 -195.25 54.05 M-193.75 50.3 Q-193.4 50.15 -190.75 52.15 -188.4 53.85 -187.85 58.45 M-201.9 65.0 L-204.95 64.7 M-177.6 149.85 L-177.3 149.55 M-112.55 -23.9 Q-129.1 -6.75 -128.45 5.0 M-36.75 1.85 Q-40.3 -8.45 -55.2 -22.75" fill="none" stroke="#000000" stroke-linecap="round" stroke-linejoin="round" stroke-width="1.0"/>
    <path d="M229.4 -80.1 Q231.2 -80.2 231.25 -81.5 231.3 -82.85 231.6 -83.9 235.8 -82.3 240.2 -82.15 L240.2 10.4 92.0 10.4 92.5 10.0 Q91.95 8.05 90.5 8.2 89.05 8.3 87.55 7.3 84.65 10.0 82.2 7.2 78.9 1.0 80.8 -5.2 82.75 -11.4 85.5 -17.65 88.9 -15.0 90.8 -10.85 92.75 -11.3 93.1 -13.25 92.3 -16.0 90.0 -17.2 92.65 -16.1 92.85 -18.35 93.1 -20.65 93.5 -22.5 94.55 -19.0 94.05 -14.95 93.55 -10.9 95.3 -7.0 97.35 -7.3 96.7 -8.9 96.1 -10.5 96.6 -11.85 98.2 -19.6 102.4 -26.35 108.65 -18.2 113.0 -9.3 L125.3 -13.1 125.4 -8.35 Q127.1 -7.6 128.75 -8.35 126.85 -1.55 122.85 4.7 125.3 7.55 128.5 5.05 131.7 2.6 135.2 2.3 137.15 1.85 139.1 2.3 141.05 2.7 143.0 1.35 L141.7 -7.2 Q146.25 -6.05 151.1 -4.25 155.9 -2.4 159.4 0.6 162.5 -1.9 164.5 -5.45 L168.1 -9.35 Q169.8 -8.05 170.3 -5.3 170.85 -2.5 173.4 -2.55 173.9 -3.8 173.5 -5.05 173.1 -6.35 174.1 -7.6 175.85 -9.15 177.7 -8.5 179.6 -7.85 180.95 -9.6 181.05 -12.0 182.25 -14.55 L184.1 -19.05 Q188.75 -14.5 193.0 -9.45 196.9 -9.15 196.2 -11.95 195.5 -14.75 196.0 -16.95 196.1 -20.25 197.95 -22.75 199.8 -25.25 200.65 -28.55 203.0 -26.35 204.85 -23.2 206.65 -20.05 210.25 -20.65 L209.45 -24.15 Q208.9 -25.95 210.8 -27.15 212.35 -27.35 213.8 -27.95 214.55 -29.35 213.6 -30.7 L211.3 -31.65 222.3 -40.65 Q223.0 -41.65 222.4 -42.6 212.5 -42.95 202.5 -46.6 L201.35 -47.05 Q208.45 -54.05 217.1 -59.5 L212.25 -70.85 Q214.0 -72.7 216.3 -71.35 218.55 -70.0 220.7 -70.15 224.65 -68.25 227.45 -70.65 230.2 -73.1 234.15 -73.5 232.85 -77.75 228.55 -79.65 L219.9 -83.25 Q221.05 -83.75 222.65 -82.75 224.3 -81.75 225.8 -82.9 225.25 -83.85 225.95 -84.85 226.7 -82.0 229.4 -80.1" fill="#000000" fill-rule="evenodd" stroke="none"/>
  </g>
</svg>
