<?xml version="1.0" encoding="UTF-8" standalone="no"?>
<svg xmlns:xlink="http://www.w3.org/1999/xlink" height="22.1px" width="32.7px" xmlns="http://www.w3.org/2000/svg">
  <g transform="matrix(1.0, 0.0, 0.0, 1.0, 16.8, 21.85)">
    <path d="M-16.3 -11.45 L-10.05 -15.5 Q-4.05 -19.1 3.35 -19.15 10.75 -19.2 15.4 -9.35 7.25 0.7 0.05 -0.35 -7.15 -1.45 -11.65 -6.15 -16.15 -10.85 -16.3 -11.45" fill="#9c5715" fill-rule="evenodd" stroke="none"/>
    <path d="M-16.3 -11.45 Q-16.15 -10.85 -11.65 -6.15 -7.15 -1.45 0.05 -0.35 7.25 0.7 15.4 -9.35 10.75 -19.2 3.35 -19.15 -4.05 -19.1 -10.05 -15.5 L-16.3 -11.45 Z" fill="none" stroke="#000000" stroke-linecap="round" stroke-linejoin="round" stroke-width="1.0"/>
    <path d="M-12.45 -12.55 L-7.4 -17.0 Q-2.6 -20.9 3.3 -21.35 9.25 -21.8 12.9 -12.05 7.0 -3.5 1.25 -4.05 -4.5 -4.75 -8.4 -8.35 -12.3 -12.05 -12.45 -12.55" fill="#fb0f0c" fill-rule="evenodd" stroke="none"/>
    <path d="M-12.45 -12.55 Q-12.3 -12.05 -8.4 -8.35 -4.5 -4.75 1.25 -4.05 7.0 -3.5 12.9 -12.05 9.25 -21.8 3.3 -21.35 -2.6 -20.9 -7.4 -17.0 L-12.45 -12.55 Z" fill="none" stroke="#000000" stroke-linecap="round" stroke-linejoin="round" stroke-width="1.0"/>
  </g>
</svg>
