<?xml version="1.0" encoding="UTF-8" standalone="no"?>
<svg xmlns:xlink="http://www.w3.org/1999/xlink" height="22.1px" width="32.7px" xmlns="http://www.w3.org/2000/svg">
  <g transform="matrix(1.0, 0.0, 0.0, 1.0, 16.8, 19.85)">
    <path d="M-16.3 -9.45 L-10.05 -13.5 Q-4.05 -17.1 3.35 -17.15 10.75 -17.2 15.4 -7.35 7.25 2.7 0.05 1.65 -7.15 0.55 -11.65 -4.15 -16.15 -8.85 -16.3 -9.45" fill="#9c5715" fill-rule="evenodd" stroke="none"/>
    <path d="M-16.3 -9.45 Q-16.15 -8.85 -11.65 -4.15 -7.15 0.55 0.05 1.65 7.25 2.7 15.4 -7.35 10.75 -17.2 3.35 -17.15 -4.05 -17.1 -10.05 -13.5 L-16.3 -9.45 Z" fill="none" stroke="#000000" stroke-linecap="round" stroke-linejoin="round" stroke-width="1.0"/>
    <path d="M-12.45 -10.55 L-7.4 -15.0 Q-2.6 -18.9 3.3 -19.35 9.25 -19.8 12.9 -10.05 7.0 -1.5 1.25 -2.05 -4.5 -2.75 -8.4 -6.35 -12.3 -10.05 -12.45 -10.55" fill="#fb0f0c" fill-rule="evenodd" stroke="none"/>
    <path d="M-12.45 -10.55 Q-12.3 -10.05 -8.4 -6.35 -4.5 -2.75 1.25 -2.05 7.0 -1.5 12.9 -10.05 9.25 -19.8 3.3 -19.35 -2.6 -18.9 -7.4 -15.0 L-12.45 -10.55 Z" fill="none" stroke="#000000" stroke-linecap="round" stroke-linejoin="round" stroke-width="1.0"/>
  </g>
</svg>
