<?xml version="1.0" encoding="UTF-8" standalone="no"?>
<svg xmlns:xlink="http://www.w3.org/1999/xlink" height="26.35px" width="52.0px" xmlns="http://www.w3.org/2000/svg">
  <g transform="matrix(1.0, 0.0, 0.0, 1.0, 26.75, 23.15)">
    <path d="M-20.2 -4.6 L-12.25 -7.65 -11.85 -3.15 Q-11.65 0.8 -12.35 1.85 -13.45 2.5 -16.15 2.65 -18.85 2.85 -20.05 1.9 -20.75 0.6 -20.55 -1.85 L-20.2 -4.6" fill="#fcfca8" fill-rule="evenodd" stroke="none"/>
    <path d="M-20.2 -4.6 L-20.55 -1.85 Q-20.75 0.6 -20.05 1.9 -18.85 2.85 -16.15 2.65 -13.45 2.5 -12.35 1.85 -11.65 0.8 -11.85 -3.15 L-12.25 -7.65" fill="none" stroke="#000000" stroke-linecap="round" stroke-linejoin="round" stroke-width="1.0"/>
    <path d="M12.95 -4.2 L19.5 -9.65 21.3 -5.5 Q22.75 -1.8 22.5 -0.6 L19.15 1.4 Q16.6 2.5 15.25 1.9 14.05 0.85 13.55 -1.5 12.9 -3.9 12.95 -4.2" fill="#fcfca8" fill-rule="evenodd" stroke="none"/>
    <path d="M12.95 -4.2 Q12.9 -3.9 13.55 -1.5 14.05 0.85 15.25 1.9 16.6 2.5 19.15 1.4 L22.5 -0.6 Q22.75 -1.8 21.3 -5.5 L19.5 -9.65" fill="none" stroke="#000000" stroke-linecap="round" stroke-linejoin="round" stroke-width="1.0"/>
    <path d="M12.2 -20.35 L16.5 -21.85 Q20.45 -23.2 23.0 -22.25 24.95 -20.6 24.75 -16.15 24.5 -11.7 23.55 -9.4 22.35 -7.35 18.65 -5.35 14.8 -3.4 13.2 -3.3 11.55 -3.8 7.05 -6.1 2.5 -8.4 -0.5 -8.85 L12.2 -20.35" fill="#ffffff" fill-rule="evenodd" stroke="none"/>
    <path d="M-0.5 -8.85 Q2.5 -8.4 7.05 -6.1 11.55 -3.8 13.2 -3.3 14.8 -3.4 18.65 -5.35 22.35 -7.35 23.55 -9.4 24.5 -11.7 24.75 -16.15 24.95 -20.6 23.0 -22.25 20.45 -23.2 16.5 -21.85 L12.2 -20.35" fill="none" stroke="#000000" stroke-linecap="round" stroke-linejoin="round" stroke-width="1.0"/>
    <path d="M11.15 -8.65 Q10.3 -9.3 10.75 -11.25 11.2 -13.15 12.05 -14.5 14.85 -17.45 17.75 -16.5 20.1 -14.5 17.8 -10.25 16.25 -8.45 14.2 -8.25 12.15 -8.1 11.15 -8.65" fill="#f4c0d7" fill-rule="evenodd" stroke="none"/>
    <path d="M11.15 -8.65 Q10.3 -9.3 10.75 -11.25 11.2 -13.15 12.05 -14.5 14.85 -17.45 17.75 -16.5 20.1 -14.5 17.8 -10.25 16.25 -8.45 14.2 -8.25 12.15 -8.1 11.15 -8.65 Z" fill="none" stroke="#000000" stroke-linecap="round" stroke-linejoin="round" stroke-width="1.0"/>
    <path d="M-0.25 -8.8 Q-3.35 -8.35 -9.7 -6.35 -16.0 -4.35 -19.15 -3.65 -21.9 -3.35 -23.9 -6.75 -25.95 -10.1 -26.25 -15.1 -26.25 -18.45 -25.05 -20.2 -23.85 -21.95 -23.05 -22.2 -21.8 -22.45 -17.7 -22.15 L-13.15 -21.8 -0.25 -8.8" fill="#9c5715" fill-rule="evenodd" stroke="none"/>
    <path d="M-13.15 -21.8 L-17.7 -22.15 Q-21.8 -22.45 -23.05 -22.2 -23.85 -21.95 -25.05 -20.2 -26.25 -18.45 -26.25 -15.1 -25.95 -10.1 -23.9 -6.75 -21.9 -3.35 -19.15 -3.65 -16.0 -4.35 -9.7 -6.35 -3.35 -8.35 -0.25 -8.8" fill="none" stroke="#000000" stroke-linecap="round" stroke-linejoin="round" stroke-width="1.0"/>
    <path d="M-19.7 -8.7 Q-20.75 -8.75 -21.6 -10.5 -22.45 -12.3 -22.5 -13.85 -22.5 -15.4 -21.5 -17.15 -20.5 -18.9 -19.25 -18.95 -16.15 -18.7 -15.45 -14.0 -15.55 -11.6 -17.05 -10.2 -18.55 -8.9 -19.7 -8.7" fill="#f4c0d7" fill-rule="evenodd" stroke="none"/>
    <path d="M-19.7 -8.7 Q-20.75 -8.75 -21.6 -10.5 -22.45 -12.3 -22.5 -13.85 -22.5 -15.4 -21.5 -17.15 -20.5 -18.9 -19.25 -18.95 -16.15 -18.7 -15.45 -14.0 -15.55 -11.6 -17.05 -10.2 -18.55 -8.9 -19.7 -8.7 Z" fill="none" stroke="#000000" stroke-linecap="round" stroke-linejoin="round" stroke-width="1.0"/>
  </g>
</svg>
