<?xml version="1.0" encoding="UTF-8" standalone="no"?>
<svg xmlns:xlink="http://www.w3.org/1999/xlink" height="22.1px" width="32.7px" xmlns="http://www.w3.org/2000/svg">
  <g transform="matrix(1.0, 0.0, 0.0, 1.0, 16.8, 18.85)">
    <path d="M-16.3 -8.45 L-10.05 -12.5 Q-4.05 -16.1 3.35 -16.15 10.75 -16.2 15.4 -6.35 7.25 3.7 0.05 2.65 -7.15 1.55 -11.65 -3.15 -16.15 -7.85 -16.3 -8.45" fill="#9c5715" fill-rule="evenodd" stroke="none"/>
    <path d="M-16.3 -8.45 Q-16.15 -7.85 -11.65 -3.15 -7.15 1.55 0.05 2.65 7.25 3.7 15.4 -6.35 10.75 -16.2 3.35 -16.15 -4.05 -16.1 -10.05 -12.5 L-16.3 -8.45 Z" fill="none" stroke="#000000" stroke-linecap="round" stroke-linejoin="round" stroke-width="1.0"/>
    <path d="M-12.45 -9.55 L-7.4 -14.0 Q-2.6 -17.9 3.3 -18.35 9.25 -18.8 12.9 -9.05 7.0 -0.5 1.25 -1.05 -4.5 -1.75 -8.4 -5.35 -12.3 -9.05 -12.45 -9.55" fill="#fb0f0c" fill-rule="evenodd" stroke="none"/>
    <path d="M-12.45 -9.55 Q-12.3 -9.05 -8.4 -5.35 -4.5 -1.75 1.25 -1.05 7.0 -0.5 12.9 -9.05 9.25 -18.8 3.3 -18.35 -2.6 -17.9 -7.4 -14.0 L-12.45 -9.55 Z" fill="none" stroke="#000000" stroke-linecap="round" stroke-linejoin="round" stroke-width="1.0"/>
  </g>
</svg>
