<?xml version="1.0" encoding="UTF-8" standalone="no"?>
<svg xmlns:xlink="http://www.w3.org/1999/xlink" height="26.5px" width="50.85px" xmlns="http://www.w3.org/2000/svg">
  <g transform="matrix(1.0, 0.0, 0.0, 1.0, 26.2, 24.9)">
    <path d="M-12.5 -8.75 Q-12.4 -8.25 -12.6 -4.3 -12.8 -0.3 -13.6 0.7 L-17.45 1.1 Q-20.2 1.0 -21.25 -0.1 -21.8 -1.4 -21.35 -3.85 L-20.7 -6.55 -12.5 -8.75" fill="#fcfca8" fill-rule="evenodd" stroke="none"/>
    <path d="M-20.7 -6.55 L-21.35 -3.85 Q-21.8 -1.4 -21.25 -0.1 -20.2 1.0 -17.45 1.1 L-13.6 0.7 Q-12.8 -0.3 -12.6 -4.3 -12.4 -8.25 -12.5 -8.75" fill="none" stroke="#000000" stroke-linecap="round" stroke-linejoin="round" stroke-width="1.0"/>
    <path d="M19.55 -11.35 L21.7 -7.4 Q23.55 -3.9 23.3 -2.6 22.5 -1.6 20.15 -0.35 17.75 1.0 16.35 0.55 15.1 -0.4 14.3 -2.7 L13.5 -5.3 19.55 -11.35" fill="#fcfca8" fill-rule="evenodd" stroke="none"/>
    <path d="M13.5 -5.3 L14.3 -2.7 Q15.1 -0.4 16.35 0.55 17.75 1.0 20.15 -0.35 22.5 -1.6 23.3 -2.6 23.55 -3.9 21.7 -7.4 L19.55 -11.35" fill="none" stroke="#000000" stroke-linecap="round" stroke-linejoin="round" stroke-width="1.0"/>
    <path d="M11.25 -21.25 Q11.55 -21.6 15.35 -23.2 19.15 -24.9 21.8 -24.15 23.9 -22.75 24.1 -18.3 24.25 -13.9 23.55 -11.5 22.55 -9.3 19.0 -7.0 15.4 -4.7 13.8 -4.45 12.1 -4.75 7.45 -6.65 2.7 -8.55 -0.35 -8.7 L11.25 -21.25" fill="#ffffff" fill-rule="evenodd" stroke="none"/>
    <path d="M-0.35 -8.7 Q2.7 -8.55 7.45 -6.65 12.1 -4.75 13.8 -4.45 15.4 -4.7 19.0 -7.0 22.55 -9.3 23.55 -11.5 24.25 -13.9 24.1 -18.3 23.9 -22.75 21.8 -24.15 19.15 -24.9 15.35 -23.2 11.55 -21.6 11.25 -21.25" fill="none" stroke="#000000" stroke-linecap="round" stroke-linejoin="round" stroke-width="1.0"/>
    <path d="M11.25 -9.6 Q10.35 -10.15 10.65 -12.15 10.9 -14.1 11.6 -15.5 14.15 -18.65 17.15 -18.0 19.6 -16.15 17.7 -11.8 16.3 -9.85 14.3 -9.45 L11.25 -9.6" fill="#f4c0d7" fill-rule="evenodd" stroke="none"/>
    <path d="M11.25 -9.6 Q10.35 -10.15 10.65 -12.15 10.9 -14.1 11.6 -15.5 14.15 -18.65 17.15 -18.0 19.6 -16.15 17.7 -11.8 16.3 -9.85 14.3 -9.45 L11.25 -9.6 Z" fill="none" stroke="#000000" stroke-linecap="round" stroke-linejoin="round" stroke-width="1.0"/>
    <path d="M-0.45 -8.6 L-10.15 -7.2 Q-16.6 -5.85 -19.85 -5.45 -22.55 -5.5 -24.2 -9.05 -25.85 -12.65 -25.7 -17.6 -25.35 -20.95 -23.95 -22.6 -22.6 -24.2 -21.7 -24.35 L-16.4 -23.75 -11.9 -22.9 -0.45 -8.6" fill="#9c5715" fill-rule="evenodd" stroke="none"/>
    <path d="M-11.9 -22.9 L-16.4 -23.75 -21.7 -24.35 Q-22.6 -24.2 -23.95 -22.6 -25.35 -20.95 -25.7 -17.6 -25.85 -12.65 -24.2 -9.05 -22.55 -5.5 -19.85 -5.45 -16.6 -5.85 -10.15 -7.2 L-0.45 -8.6" fill="none" stroke="#000000" stroke-linecap="round" stroke-linejoin="round" stroke-width="1.0"/>
    <path d="M-19.8 -10.6 Q-20.9 -10.75 -21.5 -12.65 -22.15 -14.45 -22.05 -16.05 -21.85 -17.6 -20.7 -19.15 -19.55 -20.8 -18.25 -20.75 -15.2 -20.2 -15.0 -15.45 -15.4 -13.05 -17.0 -11.85 -18.65 -10.65 -19.8 -10.6" fill="#f4c0d7" fill-rule="evenodd" stroke="none"/>
    <path d="M-19.8 -10.6 Q-20.9 -10.75 -21.5 -12.65 -22.15 -14.45 -22.05 -16.05 -21.85 -17.6 -20.7 -19.15 -19.55 -20.8 -18.25 -20.75 -15.2 -20.2 -15.0 -15.45 -15.4 -13.05 -17.0 -11.85 -18.65 -10.65 -19.8 -10.6 Z" fill="none" stroke="#000000" stroke-linecap="round" stroke-linejoin="round" stroke-width="1.0"/>
  </g>
</svg>
