<?xml version="1.0" encoding="UTF-8" standalone="no"?>
<svg xmlns:xlink="http://www.w3.org/1999/xlink" height="26.95px" width="50.3px" xmlns="http://www.w3.org/2000/svg">
  <g transform="matrix(1.0, 0.0, 0.0, 1.0, 25.75, 26.85)">
    <path d="M-21.2 -8.6 L-12.8 -9.85 Q-12.75 -9.3 -13.4 -5.4 -14.05 -1.45 -14.95 -0.6 -16.2 -0.2 -18.85 -0.6 -21.55 -1.0 -22.45 -2.25 -22.9 -3.65 -22.15 -6.0 L-21.2 -8.6" fill="#fcfca8" fill-rule="evenodd" stroke="none"/>
    <path d="M-21.2 -8.6 L-22.15 -6.0 Q-22.9 -3.65 -22.45 -2.25 -21.55 -1.0 -18.85 -0.6 -16.2 -0.2 -14.95 -0.6 -14.05 -1.45 -13.4 -5.4 -12.75 -9.3 -12.8 -9.85" fill="none" stroke="#000000" stroke-linecap="round" stroke-linejoin="round" stroke-width="1.0"/>
    <path d="M14.05 -6.3 L19.55 -12.8 22.05 -9.1 Q24.15 -5.75 24.05 -4.4 23.4 -3.35 21.15 -1.9 18.85 -0.4 17.4 -0.7 16.1 -1.5 15.1 -3.7 L14.05 -6.3" fill="#fcfca8" fill-rule="evenodd" stroke="none"/>
    <path d="M14.05 -6.3 L15.1 -3.7 Q16.1 -1.5 17.4 -0.7 18.85 -0.4 21.15 -1.9 23.4 -3.35 24.05 -4.4 24.15 -5.75 22.05 -9.1 L19.55 -12.8" fill="none" stroke="#000000" stroke-linecap="round" stroke-linejoin="round" stroke-width="1.0"/>
    <path d="M10.4 -22.0 Q10.7 -22.35 14.35 -24.25 18.05 -26.3 20.7 -25.8 22.95 -24.6 23.5 -20.2 24.05 -15.75 23.55 -13.3 22.75 -11.1 19.45 -8.45 16.05 -5.85 14.5 -5.5 12.75 -5.6 7.9 -7.1 3.0 -8.55 0.0 -8.45 L10.4 -22.0" fill="#ffffff" fill-rule="evenodd" stroke="none"/>
    <path d="M0.0 -8.45 Q3.0 -8.55 7.9 -7.1 12.75 -5.6 14.5 -5.5 16.05 -5.85 19.45 -8.45 22.75 -11.1 23.55 -13.3 24.05 -15.75 23.5 -20.2 22.95 -24.6 20.7 -25.8 18.05 -26.3 14.35 -24.25 10.7 -22.35 10.4 -22.0" fill="none" stroke="#000000" stroke-linecap="round" stroke-linejoin="round" stroke-width="1.0"/>
    <path d="M11.5 -10.35 Q10.55 -10.85 10.65 -12.8 10.75 -14.75 11.3 -16.2 13.5 -19.6 16.6 -19.2 19.25 -17.65 17.7 -13.05 16.5 -11.0 14.55 -10.5 L11.5 -10.35" fill="#f4c0d7" fill-rule="evenodd" stroke="none"/>
    <path d="M11.5 -10.35 Q10.55 -10.85 10.65 -12.8 10.75 -14.75 11.3 -16.2 13.5 -19.6 16.6 -19.2 19.25 -17.65 17.7 -13.05 16.5 -11.0 14.55 -10.5 L11.5 -10.35 Z" fill="none" stroke="#000000" stroke-linecap="round" stroke-linejoin="round" stroke-width="1.0"/>
    <path d="M-0.95 -8.35 L-10.7 -8.0 -20.5 -7.4 Q-23.25 -7.75 -24.5 -11.45 -25.75 -15.2 -24.95 -20.15 -24.2 -23.45 -22.7 -24.85 -21.15 -26.3 -20.25 -26.35 L-15.05 -25.2 -10.65 -23.85 -0.95 -8.35" fill="#9c5715" fill-rule="evenodd" stroke="none"/>
    <path d="M-10.65 -23.85 L-15.05 -25.2 -20.25 -26.35 Q-21.15 -26.3 -22.7 -24.85 -24.2 -23.45 -24.95 -20.15 -25.75 -15.2 -24.5 -11.45 -23.25 -7.75 -20.5 -7.4 L-10.7 -8.0 -0.95 -8.35" fill="none" stroke="#000000" stroke-linecap="round" stroke-linejoin="round" stroke-width="1.0"/>
    <path d="M-19.85 -12.5 Q-20.9 -12.75 -21.35 -14.65 -21.75 -16.6 -21.45 -18.1 -21.1 -19.65 -19.75 -21.05 -18.4 -22.55 -17.15 -22.35 -14.2 -21.5 -14.55 -16.65 -15.2 -14.35 -16.95 -13.35 -18.7 -12.4 -19.85 -12.5" fill="#f4c0d7" fill-rule="evenodd" stroke="none"/>
    <path d="M-19.85 -12.5 Q-20.9 -12.75 -21.35 -14.65 -21.75 -16.6 -21.45 -18.1 -21.1 -19.65 -19.75 -21.05 -18.4 -22.55 -17.15 -22.35 -14.2 -21.5 -14.55 -16.65 -15.2 -14.35 -16.95 -13.35 -18.7 -12.4 -19.85 -12.5 Z" fill="none" stroke="#000000" stroke-linecap="round" stroke-linejoin="round" stroke-width="1.0"/>
  </g>
</svg>
