<?xml version="1.0" encoding="UTF-8" standalone="no"?>
<svg xmlns:xlink="http://www.w3.org/1999/xlink" height="16.75px" width="29.5px" xmlns="http://www.w3.org/2000/svg">
  <g transform="matrix(1.0, 0.0, 0.0, 1.0, 13.7, 12.3)">
    <path d="M-10.15 -3.45 L0.6 -6.9 11.3 -3.35 0.5 0.25 -10.15 -3.45" fill="#8d1008" fill-rule="evenodd" stroke="none"/>
    <path d="M9.7 -3.25 Q7.35 -2.3 5.55 0.45 3.5 3.55 0.85 3.95 -1.8 3.55 -4.05 0.45 -6.1 -2.4 -8.7 -3.35 L0.8 -0.1 9.7 -3.25" fill="#fa420f" fill-rule="evenodd" stroke="none"/>
    <path d="M-8.7 -3.35 L-9.2 -3.55 M9.7 -3.25 L10.25 -3.45 M9.7 -3.25 L0.8 -0.1 -8.7 -3.35 Q-6.1 -2.4 -4.05 0.45 -1.8 3.55 0.85 3.95 3.5 3.55 5.55 0.45 7.35 -2.3 9.7 -3.25" fill="none" stroke="#000000" stroke-linecap="round" stroke-linejoin="round" stroke-width="1.0"/>
    <path d="M15.3 -4.7 Q12.95 -3.15 7.75 -4.15 2.55 -5.15 0.85 -3.6 -0.7 -5.1 -5.55 -4.1 -10.4 -3.1 -13.2 -4.55 -5.6 -4.9 -3.2 -7.6 -0.75 -10.3 -0.95 -10.7 -0.85 -11.35 1.45 -11.8 3.5 -11.1 3.3 -10.7 3.15 -10.3 5.8 -7.5 8.4 -4.75 15.3 -4.7" fill="#fa420f" fill-rule="evenodd" stroke="none"/>
    <path d="M15.3 -4.7 Q8.4 -4.75 5.8 -7.5 3.15 -10.3 3.3 -10.7 3.5 -11.1 1.45 -11.8 -0.85 -11.35 -0.95 -10.7 -0.75 -10.3 -3.2 -7.6 -5.6 -4.9 -13.2 -4.55 -10.4 -3.1 -5.55 -4.1 -0.7 -5.1 0.85 -3.6 2.55 -5.15 7.75 -4.15 12.95 -3.15 15.3 -4.7 Z" fill="none" stroke="#000000" stroke-linecap="round" stroke-linejoin="round" stroke-width="1.0"/>
  </g>
</svg>
