<?xml version="1.0" encoding="UTF-8" standalone="no"?>
<svg xmlns:xlink="http://www.w3.org/1999/xlink" height="16.75px" width="29.5px" xmlns="http://www.w3.org/2000/svg">
  <g transform="matrix(1.0, 0.0, 0.0, 1.0, 13.7, 12.2)">
    <path d="M-10.4 -3.85 L0.35 -7.3 11.05 -3.75 0.25 -0.15 -10.4 -3.85" fill="#8d1008" fill-rule="evenodd" stroke="none"/>
    <path d="M10.6 -3.45 Q8.9 -2.65 6.55 0.15 3.7 3.55 0.9 4.05 -1.8 3.55 -4.3 0.2 -5.85 -1.95 -7.7 -2.9 L0.85 -0.05 10.6 -3.45" fill="#fa420f" fill-rule="evenodd" stroke="none"/>
    <path d="M-7.7 -2.9 L-10.05 -3.7 M10.6 -3.45 L11.3 -3.7 M10.6 -3.45 L0.85 -0.05 -7.7 -2.9 Q-5.85 -1.95 -4.3 0.2 -1.8 3.55 0.9 4.05 3.7 3.55 6.55 0.15 8.9 -2.65 10.6 -3.45" fill="none" stroke="#000000" stroke-linecap="round" stroke-linejoin="round" stroke-width="1.0"/>
    <path d="M15.3 -4.6 Q12.95 -3.1 7.75 -4.6 2.55 -6.1 0.85 -4.65 -0.7 -6.05 -5.55 -4.55 -10.4 -3.05 -13.2 -4.45 -5.6 -4.8 -3.2 -7.5 -0.75 -10.2 -0.95 -10.6 -0.85 -11.25 1.45 -11.7 3.5 -11.0 3.3 -10.6 3.15 -10.2 5.8 -7.4 8.4 -4.65 15.3 -4.6" fill="#fa420f" fill-rule="evenodd" stroke="none"/>
    <path d="M15.3 -4.6 Q8.4 -4.65 5.8 -7.4 3.15 -10.2 3.3 -10.6 3.5 -11.0 1.45 -11.7 -0.85 -11.25 -0.95 -10.6 -0.75 -10.2 -3.2 -7.5 -5.6 -4.8 -13.2 -4.45 -10.4 -3.05 -5.55 -4.55 -0.7 -6.05 0.85 -4.65 2.55 -6.1 7.75 -4.6 12.95 -3.1 15.3 -4.6 Z" fill="none" stroke="#000000" stroke-linecap="round" stroke-linejoin="round" stroke-width="1.0"/>
  </g>
</svg>
