<?xml version="1.0" encoding="UTF-8" standalone="no"?>
<svg xmlns:xlink="http://www.w3.org/1999/xlink" height="50.55px" width="36.15px" xmlns="http://www.w3.org/2000/svg">
  <g transform="matrix(1.0, 0.0, 0.0, 1.0, 19.35, 35.95)">
    <path d="M-9.45 14.1 L-7.7 11.45 -7.5 -1.95 Q-9.3 -6.4 -13.8 -9.55 -18.3 -12.7 -18.85 -19.2 -18.65 -26.25 -13.35 -30.75 -8.1 -35.3 0.0 -35.45 L0.1 -35.45 Q7.95 -34.85 12.05 -29.0 16.15 -23.1 16.3 -18.2 15.8 -13.6 11.2 -8.8 6.6 -4.0 5.5 -1.7 6.1 0.7 5.5 11.8 L7.3 14.1 -9.45 14.1" fill="#ffffff" fill-rule="evenodd" stroke="none"/>
    <path d="M-9.45 14.1 L-7.7 11.45 -7.5 -1.95 Q-9.3 -6.4 -13.8 -9.55 -18.3 -12.7 -18.85 -19.2 -18.65 -26.25 -13.35 -30.75 -8.1 -35.3 0.0 -35.45 L0.1 -35.45 Q7.95 -34.85 12.05 -29.0 16.15 -23.1 16.3 -18.2 15.8 -13.6 11.2 -8.8 6.6 -4.0 5.5 -1.7 6.1 0.7 5.5 11.8 L7.3 14.1" fill="none" stroke="#000000" stroke-linecap="round" stroke-linejoin="round" stroke-width="1.0"/>
  </g>
</svg>
