<?xml version="1.0" encoding="UTF-8" standalone="no"?>
<svg xmlns:xlink="http://www.w3.org/1999/xlink" height="12.15px" width="21.0px" xmlns="http://www.w3.org/2000/svg">
  <g transform="matrix(1.0, 0.0, 0.0, 1.0, 0.45, 0.45)">
    <path d="M20.15 6.1 Q19.85 8.25 18.15 9.5 16.5 10.75 14.2 10.55 11.9 10.25 10.55 8.65 9.15 7.1 9.35 4.95 9.65 2.85 11.3 1.6 13.0 0.35 15.3 0.55 17.6 0.85 18.95 2.4 20.3 4.0 20.15 6.1" fill="#ff7712" fill-rule="evenodd" stroke="none"/>
    <path d="M20.15 6.1 Q19.85 8.25 18.15 9.5 16.5 10.75 14.2 10.55 11.9 10.25 10.55 8.65 9.15 7.1 9.35 4.95 9.65 2.85 11.3 1.6 13.0 0.35 15.3 0.55 17.6 0.85 18.95 2.4 20.3 4.0 20.15 6.1 Z" fill="none" stroke="#000000" stroke-linecap="round" stroke-linejoin="round" stroke-width="0.8"/>
    <path d="M18.65 5.3 Q18.6 5.85 18.2 6.2 17.85 6.55 17.3 6.5 16.8 6.4 16.5 6.0 16.2 5.6 16.25 5.05 16.35 4.5 16.7 4.2 17.1 3.85 17.6 3.9 18.1 3.95 18.4 4.4 18.7 4.8 18.65 5.3" fill="#000000" fill-rule="evenodd" stroke="none"/>
    <path d="M12.05 6.3 Q11.75 8.65 9.85 10.05 7.95 11.45 5.4 11.2 2.85 10.85 1.3 9.1 -0.2 7.35 0.0 4.95 0.3 2.6 2.2 1.2 4.05 -0.2 6.65 0.05 9.2 0.4 10.75 2.15 12.25 3.9 12.05 6.3" fill="#ff7712" fill-rule="evenodd" stroke="none"/>
    <path d="M12.05 6.3 Q11.75 8.65 9.85 10.05 7.95 11.45 5.4 11.2 2.85 10.85 1.3 9.1 -0.2 7.35 0.0 4.95 0.3 2.6 2.2 1.2 4.05 -0.2 6.65 0.05 9.2 0.4 10.75 2.15 12.25 3.9 12.05 6.3 Z" fill="none" stroke="#000000" stroke-linecap="round" stroke-linejoin="round" stroke-width="0.9"/>
    <path d="M9.85 5.2 Q9.8 5.8 9.35 6.15 8.95 6.5 8.4 6.45 L7.5 5.95 Q7.15 5.5 7.2 4.9 7.3 4.3 7.7 3.95 8.15 3.55 8.7 3.6 9.25 3.7 9.6 4.15 9.95 4.6 9.85 5.2" fill="#000000" fill-rule="evenodd" stroke="none"/>
  </g>
</svg>
