<?xml version="1.0" encoding="UTF-8" standalone="no"?>
<svg xmlns:xlink="http://www.w3.org/1999/xlink" height="16.35px" width="34.3px" xmlns="http://www.w3.org/2000/svg">
  <g transform="matrix(1.0, 0.0, 0.0, 1.0, 28.25, 27.55)">
    <path d="M-12.8 -18.35 L-5.45 -18.3 -4.5 -16.05 5.55 -17.5 5.45 -18.9 5.0 -22.1 4.3 -25.4 Q3.7 -26.8 2.9 -27.05 L-0.1 -26.75 -5.95 -25.55 -13.0 -23.95 -19.95 -22.15 -25.35 -20.55 Q-27.5 -19.85 -27.75 -19.5 -27.9 -19.05 -25.8 -18.75 L-20.2 -18.5 -12.8 -18.35" fill="#ff4200" fill-rule="evenodd" stroke="none"/>
    <path d="M-12.8 -18.35 L-5.45 -18.3 -4.5 -16.05 5.55 -17.5 5.45 -18.9 5.0 -22.1 4.3 -25.4 Q3.7 -26.8 2.9 -27.05 L-0.1 -26.75 -5.95 -25.55 -13.0 -23.95 -19.95 -22.15 -25.35 -20.55 Q-27.5 -19.85 -27.75 -19.5 -27.9 -19.05 -25.8 -18.75 L-20.2 -18.5 -12.8 -18.35 Z" fill="none" stroke="#000000" stroke-linecap="round" stroke-linejoin="round" stroke-width="1.0"/>
    <path d="M-15.85 -17.9 Q-16.0 -17.05 -14.8 -16.0 L-12.0 -14.0 -9.05 -12.4 -7.75 -11.7 4.05 -16.9 2.25 -17.2 0.15 -17.5 -2.5 -17.3 Q-3.9 -17.35 -4.95 -18.3 -6.6 -19.45 -9.05 -19.4 L-13.6 -18.85 Q-15.6 -18.35 -15.85 -17.9" fill="#ff4200" fill-rule="evenodd" stroke="none"/>
    <path d="M-15.85 -17.9 Q-15.6 -18.35 -13.6 -18.85 L-9.05 -19.4 Q-6.6 -19.45 -4.95 -18.3 -3.9 -17.35 -2.5 -17.3 L0.15 -17.5 2.25 -17.2 4.05 -16.9 -7.75 -11.7 -9.05 -12.4 -12.0 -14.0 -14.8 -16.0 Q-16.0 -17.05 -15.85 -17.9 Z" fill="none" stroke="#000000" stroke-linecap="round" stroke-linejoin="round" stroke-width="1.0"/>
  </g>
</svg>
