<?xml version="1.0" encoding="UTF-8" standalone="no"?>
<svg xmlns:xlink="http://www.w3.org/1999/xlink" height="113.95px" width="45.5px" xmlns="http://www.w3.org/2000/svg">
  <g transform="matrix(1.0, 0.0, 0.0, 1.0, 18.25, 64.45)">
    <path d="M-4.3 20.1 Q-3.45 19.9 0.1 15.95 1.05 13.8 3.9 1.8 L9.15 -21.85 11.85 -34.3 Q11.7 -34.5 10.65 -39.25 9.65 -44.1 10.1 -51.35 10.95 -55.85 14.9 -59.75 L19.45 -63.95 20.25 -58.35 Q20.9 -53.2 19.65 -49.15 22.7 -53.5 22.9 -58.45 L22.8 -63.8 24.7 -59.1 Q26.35 -54.75 26.75 -51.2 26.5 -43.8 22.85 -38.8 19.15 -33.8 18.6 -33.55 L18.6 -23.25 18.45 -7.45 Q18.05 -2.9 14.9 5.4 L8.35 21.75 6.15 31.2 Q5.0 33.15 2.25 35.0 -0.4 36.85 -3.1 39.65 -8.7 45.35 -13.9 49.0 L-13.8 48.6 -18.25 47.35 -4.3 20.1" fill="#000000" fill-rule="evenodd" stroke="none"/>
    <path d="M-4.3 20.1 Q-3.45 19.9 0.1 15.95 1.05 13.8 3.9 1.8 L9.15 -21.85 11.85 -34.3 Q11.7 -34.5 10.65 -39.25 9.65 -44.1 10.1 -51.35 10.95 -55.85 14.9 -59.75 L19.45 -63.95 20.25 -58.35 Q20.9 -53.2 19.65 -49.15 22.7 -53.5 22.9 -58.45 L22.8 -63.8 24.7 -59.1 Q26.35 -54.75 26.75 -51.2 26.5 -43.8 22.85 -38.8 19.15 -33.8 18.6 -33.55 L18.6 -23.25 18.45 -7.45 Q18.05 -2.9 14.9 5.4 L8.35 21.75 6.15 31.2 Q5.0 33.15 2.25 35.0 -0.4 36.85 -3.1 39.65 -8.7 45.35 -13.9 49.0" fill="none" stroke="#000000" stroke-linecap="round" stroke-linejoin="round" stroke-width="1.0"/>
  </g>
</svg>
