<?xml version="1.0" encoding="UTF-8" standalone="no"?>
<svg xmlns:xlink="http://www.w3.org/1999/xlink" height="8.45px" width="8.15px" xmlns="http://www.w3.org/2000/svg">
  <g transform="matrix(1.0, 0.0, 0.0, 1.0, 3.8, 4.65)">
    <path d="M2.85 -3.65 L3.75 -4.35 4.35 -4.4 4.0 -3.45 3.65 -2.85 Q3.5 -2.7 3.25 -2.65 3.0 -2.7 2.85 -2.85 2.7 -3.0 2.7 -3.25 L2.85 -3.65" fill="#666699" fill-rule="evenodd" stroke="none"/>
    <path d="M0.7 1.3 L-0.65 3.25 Q-1.2 3.8 -1.95 3.8 -2.7 3.8 -3.25 3.25 -3.8 2.7 -3.8 1.95 -3.8 1.15 -3.25 0.6 L-0.05 -1.4 Q2.6 -2.9 2.05 -1.5 L0.7 1.3" fill="url(#gradient0)" fill-rule="evenodd" stroke="none"/>
  </g>
  <defs>
    <radialGradient cx="0" cy="0" gradientTransform="matrix(0.0045, 0.0, 0.0, 0.0045, -2.0, 1.75)" gradientUnits="userSpaceOnUse" id="gradient0" r="819.2" spreadMethod="pad">
      <stop offset="0.0" stop-color="#d3d3e2"/>
      <stop offset="1.0" stop-color="#666699"/>
    </radialGradient>
  </defs>
</svg>
