<?xml version="1.0" encoding="UTF-8" standalone="no"?>
<svg xmlns:xlink="http://www.w3.org/1999/xlink" height="62.9px" width="68.35px" xmlns="http://www.w3.org/2000/svg">
  <g transform="matrix(1.0, 0.0, 0.0, 1.0, 34.15, 31.85)">
    <path d="M5.3 -10.15 L4.75 -10.4 Q8.0 -9.0 13.5 -9.4 L16.45 -9.7 16.5 -9.65 16.55 -9.65 Q20.4 -10.2 24.8 -11.6 L34.2 -7.25 Q27.95 -5.3 22.9 -4.95 17.15 -4.6 13.9 -6.1 L4.65 -10.4 5.3 -10.15 M-15.8 -27.45 Q-18.3 -25.2 -19.0 -22.75 L-19.3 -20.5 -18.85 -18.1 -17.4 -14.2 -17.05 -13.5 -16.55 -12.6 -16.4 -12.4 -16.35 -12.4 -10.6 -6.2 -10.45 -6.15 -14.6 -4.7 -20.2 -2.55 -21.9 -1.4 -22.1 -1.2 Q-23.2 -0.15 -24.25 1.55 L-24.45 2.0 -24.75 3.75 -24.75 3.95 Q-24.45 5.35 -22.65 6.6 L-20.2 7.75 Q-22.95 11.85 -22.6 13.8 L-22.35 14.75 -17.5 17.0 Q-17.95 17.5 -18.65 20.1 -18.95 21.2 -18.65 22.1 L-12.6 24.9 Q-14.55 29.75 -12.5 31.05 L-21.4 26.85 Q-23.85 26.0 -22.4 21.7 L-26.15 19.95 Q-28.75 18.3 -28.05 15.75 L-27.25 13.35 -28.3 12.85 -30.05 12.05 Q-31.65 11.4 -32.0 9.45 -32.3 7.45 -29.6 3.5 L-31.2 2.75 Q-34.1 1.3 -34.15 -0.65 L-33.8 -2.45 -32.75 -4.25 -32.7 -4.2 -31.55 -5.5 -29.6 -6.95 -27.65 -7.75 -22.75 -9.55 -19.9 -10.5 -19.85 -10.5 -18.9 -10.05 -19.9 -10.55 -25.6 -16.65 -25.7 -16.7 -26.5 -18.05 -26.85 -18.7 -28.05 -21.55 Q-28.55 -22.85 -28.65 -24.1 -28.8 -26.05 -28.1 -27.95 L-27.05 -30.1 -25.9 -31.3 -25.2 -31.85 -15.85 -27.5 -15.85 -27.45 -15.8 -27.45" fill="#1c5618" fill-rule="evenodd" stroke="none"/>
  </g>
</svg>
