<?xml version="1.0" encoding="UTF-8" standalone="no"?>
<svg xmlns:xlink="http://www.w3.org/1999/xlink" height="201.05px" width="115.05px" xmlns="http://www.w3.org/2000/svg">
  <g transform="matrix(1.0, 0.0, 0.0, 1.0, 56.6, 100.5)">
    <path d="M58.45 -72.0 L58.45 100.55 -54.95 100.55 -54.3 -71.85 58.45 -72.0" fill="#000000" fill-rule="evenodd" stroke="none"/>
    <path d="M-12.4 -81.9 Q-2.2 -81.9 1.7 -100.5 L1.7 97.95 -56.6 97.95 -56.6 -62.1 Q-56.6 -84.45 -38.65 -84.45 -42.5 -78.65 -39.75 -75.1 -37.15 -72.0 -32.15 -73.15 -27.0 -73.15 -27.3 -79.0 -27.6 -84.8 -31.65 -84.8 -31.65 -91.75 -23.9 -91.75 -19.85 -91.75 -17.4 -86.75 -14.85 -81.9 -12.4 -81.9" fill="#630b0d" fill-rule="evenodd" stroke="none"/>
    <path d="M-12.9 -80.6 Q-2.05 -80.6 0.7 -94.5 L0.7 95.55 -54.95 95.35 -54.65 -63.45 Q-54.65 -70.4 -52.05 -75.6 -48.5 -82.85 -41.05 -83.0 -44.45 -77.65 -40.7 -73.8 -36.85 -69.9 -30.05 -72.0 -25.35 -73.65 -25.8 -79.8 -26.3 -85.6 -29.7 -85.6 -29.7 -89.95 -23.4 -89.95 -20.15 -89.95 -18.05 -85.3 -15.95 -80.6 -12.9 -80.6" fill="#830d07" fill-rule="evenodd" stroke="none"/>
    <path d="M-11.1 8.6 Q-11.1 4.9 -7.35 4.9 -3.65 4.9 -3.65 8.6 -3.65 12.35 -7.35 12.35 -11.1 12.35 -11.1 8.6" fill="#000000" fill-rule="evenodd" stroke="none"/>
    <path d="M-7.85 5.7 L-5.75 6.05 -6.9 6.15 Q-8.65 6.35 -9.95 8.3 -9.95 6.05 -7.85 5.7" fill="#edbeb8" fill-rule="evenodd" stroke="none"/>
  </g>
</svg>
