<?xml version="1.0" encoding="UTF-8" standalone="no"?>
<svg xmlns:xlink="http://www.w3.org/1999/xlink" height="198.45px" width="58.3px" xmlns="http://www.w3.org/2000/svg">
  <g transform="matrix(1.0, 0.0, 0.0, 1.0, 29.15, 99.25)">
    <path d="M24.6 -74.3 Q21.0 -81.6 13.6 -81.75 17.0 -76.4 13.25 -72.55 9.35 -68.65 2.6 -70.75 -2.1 -72.4 -1.6 -78.5 -1.15 -84.35 2.25 -84.35 2.25 -88.75 -4.05 -88.7 -7.15 -88.7 -9.25 -84.0 -11.35 -79.35 -14.6 -79.35 -25.45 -79.35 -28.2 -93.25 L-28.2 96.8 27.55 96.65 27.2 -62.15 Q27.2 -69.15 24.6 -74.3 M11.15 -83.2 Q29.15 -83.2 29.15 -60.85 L29.15 99.2 -29.15 99.2 -29.15 -99.25 Q-25.25 -80.65 -15.05 -80.6 -12.65 -80.65 -10.05 -85.5 -7.65 -90.5 -3.55 -90.5 4.2 -90.5 4.2 -83.55 0.15 -83.55 -0.15 -77.7 -0.5 -71.9 4.7 -71.9 9.7 -70.75 12.3 -73.8 15.05 -77.4 11.15 -83.2" fill="#630b0d" fill-rule="evenodd" stroke="none"/>
    <path d="M24.6 -74.3 Q27.2 -69.15 27.2 -62.15 L27.55 96.65 -28.2 96.8 -28.2 -93.25 Q-25.45 -79.35 -14.6 -79.35 -11.35 -79.35 -9.25 -84.0 -7.15 -88.7 -4.05 -88.7 2.25 -88.75 2.25 -84.35 -1.15 -84.35 -1.6 -78.5 -2.1 -72.4 2.6 -70.75 9.35 -68.65 13.25 -72.55 17.0 -76.4 13.6 -81.75 21.0 -81.6 24.6 -74.3" fill="#830d07" fill-rule="evenodd" stroke="none"/>
  </g>
</svg>
