<?xml version="1.0" encoding="UTF-8" standalone="no"?>
<svg xmlns:xlink="http://www.w3.org/1999/xlink" height="17.35px" width="128.65px" xmlns="http://www.w3.org/2000/svg">
  <g transform="matrix(1.0, 0.0, 0.0, 1.0, 64.35, 8.7)">
    <path d="M61.35 -2.2 Q63.45 -2.2 63.45 -0.45 L63.3 7.0 Q62.95 8.95 60.85 8.6 58.75 8.6 58.75 6.85 L59.05 -0.6 Q59.05 -2.2 61.35 -2.2" fill="#8a8a8a" fill-rule="evenodd" stroke="none"/>
    <path d="M43.85 1.8 L43.85 2.65 Q43.5 4.6 45.65 4.6 L51.3 4.9 Q53.1 5.2 53.4 3.1 L53.4 2.5 Q53.4 0.7 51.65 0.35 L45.95 0.05 Q43.85 0.05 43.85 1.8 M40.8 1.35 Q41.1 -2.7 45.15 -2.7 L52.25 -2.2 Q56.65 -1.9 56.3 2.15 L56.15 3.75 Q55.85 8.0 51.8 7.65 L44.65 7.15 Q40.3 6.85 40.6 2.8 L40.8 1.35" fill="#8a8a8a" fill-rule="evenodd" stroke="none"/>
    <path d="M52.6 0.35 L62.15 0.85 Q64.55 1.2 64.25 3.25 64.25 5.4 62.0 5.4 L52.45 4.75 Q50.0 4.75 50.3 2.5 50.3 0.05 52.6 0.35" fill="#a1a1a1" fill-rule="evenodd" stroke="none"/>
    <path d="M24.9 -2.7 Q26.2 -3.85 28.0 -3.7 L35.1 -3.2 Q39.15 -2.85 39.15 1.2 L39.0 2.65 Q38.65 6.65 34.65 6.65 L27.35 6.2 Q23.1 5.9 23.45 1.8 L23.6 0.2 Q23.6 -1.4 24.9 -2.7 M26.7 0.85 L26.7 1.5 Q26.35 3.25 28.45 3.6 L34.15 3.95 Q35.95 3.95 36.25 2.15 L36.25 1.5 Q36.25 -0.6 34.45 -0.6 L28.65 -0.9 Q26.7 -0.9 26.7 0.85" fill="#8a8a8a" fill-rule="evenodd" stroke="none"/>
    <path d="M33.0 1.5 Q33.3 -0.9 35.45 -0.6 L45.0 -0.15 Q47.4 -0.15 47.1 2.3 47.1 4.4 44.85 4.4 L35.1 3.75 Q33.0 3.75 33.0 1.5" fill="#a1a1a1" fill-rule="evenodd" stroke="none"/>
    <path d="M6.3 0.85 L6.3 -0.75 Q6.6 -5.0 10.85 -4.65 L17.95 -4.15 Q22.15 -4.15 21.85 0.2 L21.85 1.65 Q21.5 5.9 17.5 5.55 L10.2 5.2 Q5.95 4.9 6.3 0.85 M9.55 -0.15 L9.35 0.55 Q9.35 2.3 11.3 2.65 L17.0 2.95 Q18.95 2.95 18.95 1.2 L19.1 0.35 Q19.1 -1.6 17.3 -1.6 L11.45 -1.9 Q9.55 -2.2 9.55 -0.15" fill="#8a8a8a" fill-rule="evenodd" stroke="none"/>
    <path d="M27.85 -1.1 Q30.25 -1.1 29.9 1.2 29.9 3.45 27.5 3.45 L17.95 2.8 Q15.85 2.8 15.85 0.35 16.15 -1.75 18.25 -1.75 L27.85 -1.1" fill="#a1a1a1" fill-rule="evenodd" stroke="none"/>
    <path d="M-7.8 -0.45 Q-7.8 1.5 -6.0 1.5 L-0.2 2.0 Q1.75 2.0 1.75 0.05 L1.95 -0.6 Q1.95 -2.55 0.0 -2.55 L-5.7 -2.85 Q-7.45 -3.2 -7.8 -1.1 L-7.8 -0.45 M4.65 -0.75 L4.65 0.7 Q4.35 4.9 0.15 4.6 L-7.0 4.25 Q-11.2 3.95 -10.85 -0.3 L-10.85 -1.75 Q-10.55 -5.95 -6.3 -5.6 L0.8 -5.3 Q5.0 -5.0 4.65 -0.75" fill="#8a8a8a" fill-rule="evenodd" stroke="none"/>
    <path d="M10.7 -2.05 Q12.75 -2.05 12.75 0.2 12.45 2.65 10.35 2.3 L0.8 1.8 Q-1.3 1.5 -1.3 -0.6 -1.0 -2.7 1.1 -2.7 L10.7 -2.05" fill="#a1a1a1" fill-rule="evenodd" stroke="none"/>
    <path d="M-28.05 -2.7 Q-27.7 -6.95 -23.65 -6.6 L-16.4 -6.25 Q-12.15 -5.95 -12.5 -1.9 L-12.5 -0.3 Q-12.8 3.95 -17.0 3.6 L-24.15 3.1 Q-28.2 3.1 -28.2 -1.25 L-28.05 -2.7 M-24.95 -2.05 L-24.95 -1.4 Q-24.95 0.55 -23.2 0.55 L-17.35 0.85 Q-15.4 1.2 -15.4 -0.9 L-15.4 -1.6 Q-15.05 -3.35 -17.2 -3.7 L-22.85 -4.0 Q-24.65 -4.0 -24.95 -2.05" fill="#8a8a8a" fill-rule="evenodd" stroke="none"/>
    <path d="M-18.45 -1.6 Q-18.45 -3.7 -16.05 -3.7 L-6.5 -3.2 Q-4.4 -2.85 -4.4 -0.75 -4.7 1.65 -6.8 1.35 L-16.4 0.85 Q-18.8 0.55 -18.45 -1.6" fill="#a1a1a1" fill-rule="evenodd" stroke="none"/>
    <path d="M-40.8 -7.7 L-33.55 -7.25 Q-29.3 -6.95 -29.65 -2.85 L-29.8 -1.25 Q-30.15 2.95 -34.15 2.65 L-41.3 2.15 Q-45.7 1.8 -45.35 -2.2 L-45.2 -3.7 Q-44.85 -7.7 -40.8 -7.7 M-40.35 -0.45 L-34.65 -0.15 Q-32.55 0.2 -32.55 -1.9 L-32.55 -2.55 Q-32.25 -4.3 -34.35 -4.65 L-40.0 -5.0 Q-42.1 -5.0 -42.1 -3.2 L-42.1 -2.35 Q-42.4 -0.45 -40.35 -0.45" fill="#8a8a8a" fill-rule="evenodd" stroke="none"/>
    <path d="M-35.65 -2.55 Q-35.65 -5.0 -33.4 -4.65 L-23.8 -4.15 Q-21.55 -3.85 -21.55 -1.75 -21.85 0.35 -23.95 0.35 L-33.55 -0.3 Q-35.95 -0.3 -35.65 -2.55" fill="#a1a1a1" fill-rule="evenodd" stroke="none"/>
    <path d="M-61.05 -7.7 Q-59.75 -8.85 -57.95 -8.7 L-50.85 -8.2 Q-46.5 -7.9 -46.8 -3.85 L-46.95 -2.35 Q-47.3 2.0 -51.35 1.65 L-58.65 1.2 Q-62.85 0.85 -62.5 -3.2 L-62.35 -4.8 Q-62.35 -6.45 -61.05 -7.7 M-59.3 -3.55 Q-59.6 -1.75 -57.5 -1.4 L-51.85 -1.1 Q-50.05 -1.1 -49.7 -2.85 L-49.7 -3.55 Q-49.7 -5.6 -51.5 -5.6 L-57.35 -5.95 Q-59.3 -5.95 -59.3 -4.15 L-59.3 -3.55" fill="#8a8a8a" fill-rule="evenodd" stroke="none"/>
    <path d="M-40.95 -5.15 Q-38.55 -5.15 -38.85 -2.7 -38.85 -0.6 -41.15 -0.6 L-50.7 -1.25 Q-53.1 -1.25 -52.8 -3.55 -52.8 -5.95 -50.55 -5.6 L-40.95 -5.15" fill="#a1a1a1" fill-rule="evenodd" stroke="none"/>
    <path d="M-64.3 -3.7 Q-64.3 -6.1 -62.0 -5.75 L-59.4 -5.6 Q-57.15 -5.6 -57.15 -3.2 -57.5 -1.1 -59.6 -1.1 L-62.2 -1.25 Q-64.6 -1.6 -64.3 -3.7" fill="#a1a1a1" fill-rule="evenodd" stroke="none"/>
  </g>
</svg>
