<?xml version="1.0" encoding="UTF-8" standalone="no"?>
<svg xmlns:xlink="http://www.w3.org/1999/xlink" height="35.0px" width="127.95px" xmlns="http://www.w3.org/2000/svg">
  <g transform="matrix(1.0, 0.0, 0.0, 1.0, 63.95, 14.4)">
    <path d="M-61.35 3.5 Q-58.9 3.2 -58.9 5.15 L-58.1 12.45 Q-57.75 14.05 -60.2 14.35 -62.3 14.65 -62.65 12.9 L-63.3 5.45 Q-63.6 3.85 -61.35 3.5" fill="#8a8a8a" fill-rule="evenodd" stroke="none"/>
    <path d="M-51.45 5.45 Q-53.4 5.8 -53.1 7.7 L-53.1 8.35 Q-52.75 10.3 -50.8 10.0 L-45.15 9.35 Q-43.2 9.05 -43.5 7.1 L-43.5 6.4 Q-43.85 4.5 -45.8 4.8 L-51.45 5.45 M-51.15 12.75 Q-55.15 13.4 -55.85 9.05 L-56.0 7.55 Q-56.6 3.5 -52.25 2.85 L-45.15 2.05 Q-41.1 1.4 -40.45 5.65 L-40.3 7.1 Q-39.65 11.45 -44.0 11.75 L-51.15 12.75" fill="#8a8a8a" fill-rule="evenodd" stroke="none"/>
    <path d="M-50.0 7.4 Q-49.7 9.65 -51.95 10.0 L-61.35 11.1 Q-63.6 11.45 -63.9 9.2 -64.25 7.1 -61.95 6.75 L-52.45 5.45 Q-50.3 5.15 -50.0 7.4" fill="#a1a1a1" fill-rule="evenodd" stroke="none"/>
    <path d="M-26.35 4.95 L-26.5 4.3 Q-26.85 2.4 -28.65 2.7 L-34.3 3.35 Q-36.05 3.7 -36.05 5.45 L-35.9 6.25 Q-35.6 8.2 -33.8 7.85 L-28.15 7.1 Q-26.05 7.1 -26.35 4.95 M-23.45 3.5 L-23.3 4.95 Q-22.65 9.05 -26.85 9.65 L-34.0 10.65 Q-38.0 10.95 -38.65 6.9 L-38.85 5.45 Q-39.45 1.4 -35.25 0.75 L-28.15 -0.05 Q-24.1 -0.7 -23.45 3.5" fill="#8a8a8a" fill-rule="evenodd" stroke="none"/>
    <path d="M-32.85 5.3 Q-32.5 7.55 -34.75 7.85 L-44.35 9.05 Q-46.4 9.35 -46.75 7.1 -47.1 4.8 -44.8 4.5 L-35.45 3.35 Q-33.15 3.0 -32.85 5.3" fill="#a1a1a1" fill-rule="evenodd" stroke="none"/>
    <path d="M-9.35 2.85 L-9.35 2.25 Q-9.7 0.3 -11.45 0.6 L-17.3 1.25 Q-19.25 1.55 -18.9 3.35 L-18.75 4.0 Q-18.75 5.8 -16.65 5.8 L-11.0 4.95 Q-9.05 4.65 -9.35 2.85 M-18.1 -1.35 L-11.0 -2.3 Q-6.9 -2.6 -6.3 1.4 L-6.15 2.85 Q-5.45 6.9 -9.85 7.55 L-17.0 8.35 Q-21.0 9.05 -21.65 4.8 L-21.85 3.35 Q-22.45 -0.7 -18.1 -1.35" fill="#8a8a8a" fill-rule="evenodd" stroke="none"/>
    <path d="M-15.85 3.2 Q-15.5 5.3 -17.8 5.65 L-27.2 6.9 Q-29.45 7.25 -29.75 4.95 -30.1 2.7 -27.8 2.4 L-18.25 1.25 Q-16.15 0.9 -15.85 3.2" fill="#a1a1a1" fill-rule="evenodd" stroke="none"/>
    <path d="M5.55 -1.65 L-0.1 -0.85 Q-2.05 -0.55 -1.75 1.25 L-1.75 1.9 Q-1.45 3.85 0.35 3.5 L6.2 2.85 Q8.15 2.55 7.8 0.75 L7.65 0.1 Q7.3 -2.0 5.55 -1.65 M6.0 -4.4 Q10.25 -4.9 10.7 -0.7 L10.85 0.75 Q11.55 4.8 7.3 5.45 L0.2 6.25 Q-3.85 6.9 -4.5 2.7 L-4.65 1.25 Q-5.3 -3.1 -1.1 -3.45 L6.0 -4.4" fill="#8a8a8a" fill-rule="evenodd" stroke="none"/>
    <path d="M-10.65 0.3 L-1.25 -0.85 Q1.0 -1.15 1.35 1.1 1.65 3.2 -0.6 3.5 L-10.2 4.8 Q-12.25 4.8 -12.6 2.7 -12.9 0.6 -10.65 0.3" fill="#a1a1a1" fill-rule="evenodd" stroke="none"/>
    <path d="M16.9 -2.95 Q14.95 -2.95 15.25 -0.85 L15.4 -0.2 Q15.4 1.75 17.5 1.4 L23.2 0.75 Q25.15 0.45 24.8 -1.35 L24.8 -2.15 Q24.45 -4.1 22.7 -3.8 L16.9 -2.95 M12.3 -1.0 Q12.0 -5.25 16.05 -5.55 L23.2 -6.5 Q27.25 -7.2 27.85 -2.95 L28.05 -1.35 Q28.7 2.7 24.3 3.35 L17.2 4.15 Q13.15 4.8 12.5 0.6 L12.3 -1.0" fill="#8a8a8a" fill-rule="evenodd" stroke="none"/>
    <path d="M18.5 -1.0 Q18.5 1.1 16.4 1.4 L7.0 2.55 Q4.75 2.85 4.4 0.6 4.05 -1.5 6.35 -1.85 L15.9 -3.1 Q18.15 -3.1 18.5 -1.0" fill="#a1a1a1" fill-rule="evenodd" stroke="none"/>
    <path d="M32.4 -2.3 Q32.7 -0.4 34.5 -0.7 L40.35 -1.35 Q42.3 -1.65 41.95 -3.6 L41.8 -4.25 Q41.8 -6.2 39.7 -5.9 L34.05 -5.25 Q32.1 -4.9 32.4 -2.95 L32.4 -2.3 M44.85 -5.05 L45.05 -3.6 Q45.7 0.75 41.45 1.1 L34.35 2.05 Q30.3 2.7 29.65 -1.65 L29.5 -3.1 Q28.85 -7.2 33.05 -7.8 L40.2 -8.65 Q44.55 -9.3 44.85 -5.05" fill="#8a8a8a" fill-rule="evenodd" stroke="none"/>
    <path d="M35.5 -3.3 Q35.8 -1.0 33.55 -0.7 L24.0 0.45 Q21.9 0.75 21.55 -1.5 21.25 -3.6 23.5 -3.95 L33.05 -5.25 Q35.15 -5.55 35.5 -3.3" fill="#a1a1a1" fill-rule="evenodd" stroke="none"/>
    <path d="M51.05 -7.35 Q49.1 -7.0 49.4 -5.25 L49.6 -4.4 Q49.9 -2.5 51.65 -2.8 L57.35 -3.6 Q59.3 -3.6 58.95 -5.7 L58.95 -6.35 Q58.65 -8.3 56.85 -7.95 L51.05 -7.35 M46.5 -5.25 Q46.2 -9.3 50.2 -9.9 L57.35 -10.75 Q61.4 -11.35 62.05 -7.2 L62.2 -5.7 Q62.85 -1.65 58.65 -1.0 L51.35 -0.05 Q47.15 0.3 46.8 -3.8 L46.5 -5.25" fill="#8a8a8a" fill-rule="evenodd" stroke="none"/>
    <path d="M52.65 -5.4 Q53.0 -3.1 50.7 -2.8 L41.15 -1.65 Q38.9 -1.35 38.55 -3.6 38.25 -5.9 40.5 -6.2 L50.05 -7.35 Q52.3 -7.65 52.65 -5.4" fill="#a1a1a1" fill-rule="evenodd" stroke="none"/>
    <path d="M63.95 -6.2 Q64.3 -4.1 62.05 -3.8 L59.45 -3.45 Q57.35 -3.1 57.0 -5.4 56.7 -7.5 58.95 -7.8 L61.55 -8.15 Q63.65 -8.45 63.95 -6.2" fill="#a1a1a1" fill-rule="evenodd" stroke="none"/>
    <path d="M61.4 0.1 Q63.5 0.45 63.5 2.05 L62.7 9.5 Q62.35 11.25 60.25 10.95 58.15 10.65 58.15 9.05 L58.95 1.55 Q59.3 -0.2 61.4 0.1" fill="#8a8a8a" fill-rule="evenodd" stroke="none"/>
    <path d="M53.15 4.15 Q53.45 2.4 51.5 2.05 L45.85 1.4 Q43.75 1.1 43.75 3.0 L43.6 3.7 Q43.25 5.45 45.2 5.8 L51.05 6.6 Q52.8 6.6 53.15 4.8 L53.15 4.15 M40.5 3.7 L40.65 2.25 Q41.0 -1.85 45.35 -1.5 L52.5 -0.55 Q56.7 0.1 56.05 4.15 L55.9 5.65 Q55.25 9.65 51.2 9.35 L44.05 8.35 Q39.85 7.7 40.5 3.7" fill="#8a8a8a" fill-rule="evenodd" stroke="none"/>
    <path d="M50.05 4.0 Q50.35 1.75 52.5 2.05 L62.05 3.2 Q64.3 3.5 63.95 5.8 63.65 8.05 61.55 7.7 L52.0 6.4 Q49.7 6.1 50.05 4.0" fill="#a1a1a1" fill-rule="evenodd" stroke="none"/>
    <path d="M36.1 2.05 Q36.45 0.3 34.5 -0.05 L28.7 -0.85 Q26.9 -0.85 26.6 0.9 L26.6 1.55 Q26.25 3.35 28.2 3.7 L33.85 4.3 Q36.0 4.65 36.0 2.7 L36.1 2.05 M28.2 -3.6 L35.3 -2.6 Q39.4 -2.0 39.05 2.05 L38.7 3.5 Q38.4 7.7 34.2 7.1 L27.05 6.25 Q22.7 5.65 23.35 1.55 L23.5 0.1 Q24.15 -4.25 28.2 -3.6" fill="#8a8a8a" fill-rule="evenodd" stroke="none"/>
    <path d="M32.9 1.9 Q33.2 -0.4 35.5 -0.05 L45.05 1.1 Q47.3 1.4 47.0 3.7 46.65 5.95 44.4 5.65 L34.85 4.3 Q32.55 4.0 32.9 1.9" fill="#a1a1a1" fill-rule="evenodd" stroke="none"/>
    <path d="M17.35 -2.15 L11.7 -2.95 Q9.6 -3.3 9.6 -1.35 L9.4 -0.55 Q9.1 1.25 11.05 1.55 L16.9 2.25 Q18.65 2.55 18.95 0.6 L18.95 -0.05 Q19.3 -2.15 17.35 -2.15 M6.5 -2.0 Q6.85 -6.35 11.2 -5.7 L18.35 -4.75 Q22.5 -4.4 21.9 -0.2 L21.75 1.4 Q21.05 5.65 17.05 4.95 L9.9 4.15 Q5.85 3.5 6.2 -0.55 L6.5 -2.0" fill="#8a8a8a" fill-rule="evenodd" stroke="none"/>
    <path d="M17.85 2.25 Q15.55 1.9 15.9 -0.2 16.2 -2.5 18.35 -2.15 L27.85 -1.0 Q30.15 -0.7 29.8 1.4 29.5 3.7 27.4 3.35 L17.85 2.25" fill="#a1a1a1" fill-rule="evenodd" stroke="none"/>
    <path d="M1.8 -1.5 L1.95 -2.15 Q2.3 -4.1 0.35 -4.4 L-5.45 -5.05 Q-7.25 -5.4 -7.6 -3.45 L-7.6 -2.8 Q-7.9 -0.85 -5.95 -0.55 L-0.3 0.1 Q1.5 0.45 1.8 -1.5 M1.15 -7.0 Q5.2 -6.35 4.9 -2.3 L4.55 -0.85 Q4.25 3.5 -0.1 2.85 L-7.25 1.9 Q-11.45 1.55 -10.8 -2.6 L-10.65 -4.25 Q-10.0 -8.45 -5.95 -7.8 L1.15 -7.0" fill="#8a8a8a" fill-rule="evenodd" stroke="none"/>
    <path d="M-1.25 -2.5 Q-0.95 -4.75 1.35 -4.4 L10.85 -3.1 Q13.15 -2.8 12.8 -0.7 12.5 1.55 10.25 1.25 L0.65 0.1 Q-1.6 -0.2 -1.25 -2.5" fill="#a1a1a1" fill-rule="evenodd" stroke="none"/>
    <path d="M-23.1 -2.8 L-17.45 -2.0 Q-15.5 -1.65 -15.2 -3.6 L-15.2 -4.4 Q-14.85 -6.2 -16.8 -6.5 L-22.45 -7.2 Q-24.4 -7.5 -24.75 -5.55 L-24.75 -4.9 Q-25.05 -2.8 -23.1 -2.8 M-23.1 -9.9 L-16.0 -9.1 Q-11.65 -8.45 -12.25 -4.4 L-12.45 -2.95 Q-13.1 1.4 -17.15 0.75 L-24.25 -0.2 Q-28.3 -0.7 -27.95 -4.9 L-27.65 -6.35 Q-27.35 -10.55 -23.1 -9.9" fill="#8a8a8a" fill-rule="evenodd" stroke="none"/>
    <path d="M-18.25 -4.55 Q-17.95 -6.85 -15.85 -6.5 L-6.3 -5.4 Q-4.0 -5.05 -4.35 -2.8 -4.65 -0.55 -6.8 -0.85 L-16.3 -2.0 Q-18.6 -2.3 -18.25 -4.55" fill="#a1a1a1" fill-rule="evenodd" stroke="none"/>
    <path d="M-41.75 -7.65 L-41.9 -7.0 Q-41.9 -5.25 -40.1 -4.9 L-34.45 -4.1 Q-32.65 -4.1 -32.35 -5.9 L-32.2 -6.5 Q-31.85 -8.3 -34.0 -8.65 L-39.65 -9.3 Q-41.4 -9.6 -41.75 -7.65 M-44.8 -8.45 Q-44.2 -12.5 -40.1 -12.2 L-33.0 -11.2 Q-28.8 -10.55 -29.45 -6.5 L-29.6 -5.05 Q-29.9 -1.0 -34.3 -1.35 L-41.4 -2.3 Q-45.65 -2.95 -44.95 -7.0 L-44.8 -8.45" fill="#8a8a8a" fill-rule="evenodd" stroke="none"/>
    <path d="M-23.45 -7.5 Q-21.35 -7.2 -21.35 -4.9 -21.65 -2.6 -23.95 -2.95 L-33.5 -4.25 Q-35.75 -4.25 -35.45 -6.7 -35.1 -8.95 -32.85 -8.65 L-23.45 -7.5" fill="#a1a1a1" fill-rule="evenodd" stroke="none"/>
    <path d="M-58.9 -9.1 Q-59.25 -7.35 -57.3 -7.0 L-51.6 -6.35 Q-49.7 -6.0 -49.35 -7.95 L-49.35 -8.65 Q-49.05 -10.4 -50.95 -10.75 L-56.6 -11.55 Q-58.55 -11.55 -58.9 -9.75 L-58.9 -9.1 M-62.15 -9.1 L-61.95 -10.55 Q-61.35 -14.95 -57.3 -14.3 L-50.15 -13.3 Q-45.95 -12.7 -46.4 -8.65 L-46.6 -7.2 Q-47.25 -2.95 -51.3 -3.6 L-58.4 -4.4 Q-62.45 -5.05 -62.15 -9.1" fill="#8a8a8a" fill-rule="evenodd" stroke="none"/>
    <path d="M-40.45 -9.6 Q-38.15 -9.3 -38.5 -7.0 -38.85 -4.75 -40.95 -5.05 L-50.5 -6.35 Q-52.75 -6.7 -52.45 -8.8 -52.1 -11.05 -50.0 -10.75 L-40.45 -9.6" fill="#a1a1a1" fill-rule="evenodd" stroke="none"/>
    <path d="M-63.9 -9.75 Q-63.6 -12.05 -61.35 -11.7 L-58.75 -11.35 Q-56.5 -11.05 -56.8 -8.8 -57.1 -6.5 -59.4 -6.85 L-61.95 -7.2 Q-64.25 -7.5 -63.9 -9.75" fill="#a1a1a1" fill-rule="evenodd" stroke="none"/>
    <path d="M9.6 13.2 Q9.05 16.4 6.7 18.45 4.35 20.55 1.0 20.6 -3.3 20.5 -5.4 18.95 -7.55 17.4 -8.15 15.45 -8.8 13.55 -8.75 12.35 L-8.75 8.65 -8.75 4.0 -8.75 1.75 -6.0 -0.1 9.6 1.85 9.6 13.2" fill="#edb329" fill-rule="evenodd" stroke="none"/>
    <path d="M6.2 -3.7 L4.45 -3.7 Q3.25 -5.75 0.95 -6.05 -0.65 -6.15 -1.75 -5.25 -2.9 -4.4 -3.1 -2.85 L-3.1 1.45 -5.15 1.25 -5.15 -2.95 -5.2 -2.95 -5.15 -3.05 Q-4.95 -5.5 -3.25 -6.9 -1.55 -8.3 0.95 -8.1 4.45 -7.65 6.2 -3.7" fill="#edb329" fill-rule="evenodd" stroke="none"/>
    <path d="M10.0 13.15 Q9.95 16.15 7.85 18.3 5.75 20.5 2.4 20.6 -1.55 20.5 -3.85 18.15 -6.15 15.75 -6.2 12.3 L-6.2 -0.1 10.0 1.8 10.0 13.15" fill="#fede58" fill-rule="evenodd" stroke="none"/>
    <path d="M3.45 3.4 Q4.8 3.5 5.65 4.45 6.5 5.4 6.55 6.75 6.4 9.0 4.5 9.9 L6.55 15.3 0.1 16.3 2.4 10.05 Q0.25 9.3 0.05 6.8 0.1 5.3 1.05 4.35 2.0 3.4 3.45 3.4" fill="#ca8221" fill-rule="evenodd" stroke="none"/>
    <path d="M2.4 3.35 Q3.8 3.45 4.65 4.4 5.55 5.35 5.6 6.75 5.5 9.05 3.5 9.95 L5.6 15.45 -1.05 16.45 1.35 10.1 Q-0.9 9.35 -1.1 6.85 -1.05 5.3 -0.05 4.3 0.95 3.35 2.4 3.35" fill="#000000" fill-rule="evenodd" stroke="none"/>
  </g>
</svg>
