<?xml version="1.0" encoding="UTF-8" standalone="no"?>
<svg xmlns:xlink="http://www.w3.org/1999/xlink" height="3.65px" width="10.9px" xmlns="http://www.w3.org/2000/svg">
  <g transform="matrix(1.0, 0.0, 0.0, 1.0, 17.7, -152.8)">
    <path d="M-8.3 154.7 L-7.8 154.45 -8.3 154.05 -9.45 154.3 -9.7 154.8 -8.3 154.7 M-10.55 153.95 L-11.45 154.55 -9.45 154.2 -10.55 153.95 M-16.05 153.8 L-13.95 153.05 -11.55 152.8 Q-6.95 152.8 -6.8 154.3 L-7.2 154.55 -10.2 155.2 -16.7 155.45 -15.7 156.3 -17.3 156.45 -16.45 156.05 -17.7 155.3 -15.8 155.05 -16.3 154.45 -16.05 153.8" fill="#ffffff" fill-rule="evenodd" stroke="none"/>
    <path d="M-8.3 154.7 L-9.7 154.8 -9.45 154.3 -8.3 154.05 -7.8 154.45 -8.3 154.7 M-10.55 153.95 L-9.45 154.2 -11.45 154.55 -10.55 153.95" fill="#000000" fill-rule="evenodd" stroke="none"/>
  </g>
</svg>
