<?xml version="1.0" encoding="UTF-8" standalone="no"?>
<svg xmlns:xlink="http://www.w3.org/1999/xlink" height="6.0px" width="15.05px" xmlns="http://www.w3.org/2000/svg">
  <g transform="matrix(1.0, 0.0, 0.0, 1.0, 8.95, -153.55)">
    <path d="M-7.2 156.45 L-7.2 155.95 -6.55 155.05 -3.7 153.95 -0.3 153.55 Q7.7 153.9 5.7 156.3 L0.55 157.55 -7.45 158.05 -5.8 159.2 -6.05 159.55 -8.95 159.55 -6.95 159.45 -7.3 158.8 -8.95 157.95 -6.3 157.45 -7.2 156.45 M2.3 156.7 L3.45 156.8 4.8 156.2 4.8 155.7 3.8 155.55 2.7 155.95 2.3 156.7 M2.3 155.45 L1.3 155.3 -0.2 156.05 0.05 156.55 1.2 156.45 2.3 155.95 2.3 155.45 M1.45 156.95 L0.95 156.7 0.7 156.95 1.45 156.95 M0.8 155.8 L1.45 155.95 0.55 156.05 0.8 155.8" fill="#ffffff" fill-rule="evenodd" stroke="none"/>
    <path d="M2.3 155.45 L2.3 155.95 1.2 156.45 0.05 156.55 -0.2 156.05 1.3 155.3 2.3 155.45 M2.3 156.7 L2.7 155.95 3.8 155.55 4.8 155.7 4.8 156.2 3.45 156.8 2.3 156.7 M0.8 155.8 L0.55 156.05 1.45 155.95 0.8 155.8 M1.45 156.95 L0.7 156.95 0.95 156.7 1.45 156.95" fill="#000000" fill-rule="evenodd" stroke="none"/>
  </g>
</svg>
