<?xml version="1.0" encoding="UTF-8" standalone="no"?>
<svg xmlns:xlink="http://www.w3.org/1999/xlink" height="9.9px" width="17.95px" xmlns="http://www.w3.org/2000/svg">
  <g transform="matrix(1.0, 0.0, 0.0, 1.0, 0.45, -153.05)">
    <path d="M-0.45 160.3 L2.7 159.55 Q-0.3 157.0 1.7 155.7 L2.7 154.8 4.7 153.95 8.95 153.05 Q18.2 153.1 17.45 156.95 14.45 158.85 12.45 159.05 L1.45 160.55 1.95 161.2 3.55 161.8 3.8 162.45 2.95 162.95 -0.05 162.8 -0.2 162.55 1.55 162.7 Q4.3 162.6 -0.45 160.3 M11.95 155.7 L10.55 156.2 10.05 156.7 10.05 157.45 11.55 157.7 12.45 157.3 13.05 156.05 11.95 155.7 M11.05 156.95 L11.55 156.45 11.8 156.8 11.05 156.95 M11.7 158.05 L11.8 158.45 12.2 158.3 11.7 158.05 M16.2 156.2 L15.45 155.95 13.7 156.55 13.3 157.7 14.7 157.95 15.7 157.55 16.3 156.7 16.2 156.2 M14.8 156.7 L15.2 156.95 14.7 157.3 14.45 156.95 14.8 156.7" fill="#ffffff" fill-rule="evenodd" stroke="none"/>
    <path d="M16.2 156.2 L16.3 156.7 15.7 157.55 14.7 157.95 13.3 157.7 13.7 156.55 15.45 155.95 16.2 156.2 M11.7 158.05 L12.2 158.3 11.8 158.45 11.7 158.05 M11.05 156.95 L11.8 156.8 11.55 156.45 11.05 156.95 M11.95 155.7 L13.05 156.05 12.45 157.3 11.55 157.7 10.05 157.45 10.05 156.7 10.55 156.2 11.95 155.7 M14.8 156.7 L14.45 156.95 14.7 157.3 15.2 156.95 14.8 156.7" fill="#000000" fill-rule="evenodd" stroke="none"/>
  </g>
</svg>
