<?xml version="1.0" encoding="UTF-8" standalone="no"?>
<svg xmlns:xlink="http://www.w3.org/1999/xlink" height="15.4px" width="19.5px" xmlns="http://www.w3.org/2000/svg">
  <g transform="matrix(1.0, 0.0, 0.0, 1.0, -6.2, -150.3)">
    <path d="M22.8 157.45 L21.7 157.55 Q19.7 155.6 22.2 154.45 L23.7 154.8 23.95 156.3 22.8 157.45 M18.3 155.45 L17.95 155.95 18.7 156.2 18.95 155.55 18.3 155.45 M17.55 157.3 L16.95 156.55 17.05 155.2 18.7 154.2 Q22.0 156.35 17.55 157.3 M22.45 156.45 L22.7 155.7 22.2 155.55 21.8 156.3 22.45 156.45 M19.55 158.3 L19.45 157.95 20.05 158.2 19.55 158.3" fill="#000000" fill-rule="evenodd" stroke="none"/>
    <path d="M9.45 160.7 Q10.55 160.55 6.7 157.95 L6.2 155.95 6.45 154.8 7.95 152.8 Q14.8 147.5 24.7 153.45 29.85 158.1 8.8 162.05 L8.45 162.2 8.8 162.8 11.55 164.05 Q14.1 165.75 7.95 165.7 L7.3 165.3 10.2 165.45 10.7 164.8 9.8 164.05 6.2 162.45 6.2 161.95 8.3 161.45 9.45 160.7 M17.55 157.3 Q22.0 156.35 18.7 154.2 L17.05 155.2 16.95 156.55 17.55 157.3 M18.3 155.45 L18.95 155.55 18.7 156.2 17.95 155.95 18.3 155.45 M22.8 157.45 L23.95 156.3 23.7 154.8 22.2 154.45 Q19.7 155.6 21.7 157.55 L22.8 157.45 M22.45 156.45 L21.8 156.3 22.2 155.55 22.7 155.7 22.45 156.45 M19.55 158.3 L20.05 158.2 19.45 157.95 19.55 158.3" fill="#ffffff" fill-rule="evenodd" stroke="none"/>
  </g>
</svg>
