<?xml version="1.0" encoding="UTF-8" standalone="no"?>
<svg xmlns:xlink="http://www.w3.org/1999/xlink" height="23.15px" width="21.1px" xmlns="http://www.w3.org/2000/svg">
  <g transform="matrix(1.0, 0.0, 0.0, 1.0, -5.65, -144.1)">
    <path d="M19.3 149.95 L20.7 151.2 Q22.1 154.7 19.8 154.7 L18.2 153.55 17.7 151.2 18.2 150.05 19.3 149.95 M21.95 151.2 L22.55 149.95 23.7 149.95 25.05 151.2 Q26.55 154.7 24.05 154.7 L22.55 153.55 21.95 151.2 M19.2 151.7 L18.95 151.95 18.95 152.55 19.55 152.95 19.95 152.2 19.2 151.7 M23.2 152.55 L24.05 152.95 24.2 152.2 23.3 151.7 23.2 152.55 M22.55 155.3 L22.7 155.8 22.3 156.05 21.55 155.45 22.55 155.3" fill="#000000" fill-rule="evenodd" stroke="none"/>
    <path d="M11.55 144.45 Q20.1 142.6 26.45 151.05 28.95 157.0 11.95 162.2 L11.8 162.7 12.2 163.05 14.45 164.05 Q20.65 166.9 13.85 167.25 15.9 167.05 15.55 166.2 L13.8 164.8 9.45 162.95 9.2 162.05 Q12.05 161.5 11.95 159.7 12.55 159.4 7.2 155.7 L5.95 153.05 Q4.35 147.35 11.55 144.45 M21.95 151.2 L22.55 153.55 24.05 154.7 Q26.55 154.7 25.05 151.2 L23.7 149.95 22.55 149.95 21.95 151.2 M19.3 149.95 L18.2 150.05 17.7 151.2 18.2 153.55 19.8 154.7 Q22.1 154.7 20.7 151.2 L19.3 149.95 M23.2 152.55 L23.3 151.7 24.2 152.2 24.05 152.95 23.2 152.55 M19.2 151.7 L19.95 152.2 19.55 152.95 18.95 152.55 18.95 151.95 19.2 151.7 M22.55 155.3 L21.55 155.45 22.3 156.05 22.7 155.8 22.55 155.3" fill="#ffffff" fill-rule="evenodd" stroke="none"/>
  </g>
</svg>
