<?xml version="1.0" encoding="UTF-8" standalone="no"?>
<svg xmlns:xlink="http://www.w3.org/1999/xlink" height="33.5px" width="23.65px" xmlns="http://www.w3.org/2000/svg">
  <g transform="matrix(1.0, 0.0, 0.0, 1.0, 2.9, -134.3)">
    <path d="M12.2 145.95 L13.2 146.45 13.2 145.8 12.8 145.05 12.05 144.7 11.8 145.2 12.2 145.95 M14.7 141.95 L15.2 141.8 Q20.55 144.9 19.45 148.55 L17.7 148.2 15.55 145.8 14.45 142.8 14.7 141.95 M16.45 144.45 L16.55 145.55 17.7 146.2 17.45 145.05 16.45 144.45 M10.55 142.2 Q16.3 145.3 14.55 148.95 9.3 146.55 10.55 142.2 M16.55 149.8 L17.3 150.05 17.7 149.8 17.8 150.7 17.2 150.7 16.55 149.8" fill="#000000" fill-rule="evenodd" stroke="none"/>
    <path d="M12.2 145.95 L11.8 145.2 12.05 144.7 12.8 145.05 13.2 145.8 13.2 146.45 12.2 145.95 M8.05 156.05 Q-4.3 149.9 -2.7 137.8 2.2 130.55 14.55 138.3 28.95 150.05 9.8 160.8 19.7 165.35 17.55 166.7 L16.7 167.55 15.8 167.8 12.45 167.45 15.7 166.95 15.95 166.05 Q16.05 165.5 12.7 163.7 L7.2 161.2 6.8 160.2 7.2 159.8 8.45 158.95 8.55 158.8 8.8 157.2 8.05 156.05 M14.7 141.95 L14.45 142.8 15.55 145.8 17.7 148.2 19.45 148.55 Q20.55 144.9 15.2 141.8 L14.7 141.95 M16.45 144.45 L17.45 145.05 17.7 146.2 16.55 145.55 16.45 144.45 M16.55 149.8 L17.2 150.7 17.8 150.7 17.7 149.8 17.3 150.05 16.55 149.8 M10.55 142.2 Q9.3 146.55 14.55 148.95 16.3 145.3 10.55 142.2" fill="#ffffff" fill-rule="evenodd" stroke="none"/>
  </g>
</svg>
