<?xml version="1.0" encoding="UTF-8" standalone="no"?>
<svg xmlns:xlink="http://www.w3.org/1999/xlink" height="44.85px" width="34.0px" xmlns="http://www.w3.org/2000/svg">
  <g transform="matrix(1.0, 0.0, 0.0, 1.0, 21.6, -121.0)">
    <path d="M-3.3 134.45 L-3.45 134.95 -2.95 135.8 -2.2 136.55 -1.45 136.7 -2.05 135.2 -3.3 134.45 M-1.2 130.45 L-0.3 130.45 Q5.2 134.25 6.2 138.3 L6.05 139.3 4.95 139.3 1.95 136.95 -0.7 133.45 -1.55 130.8 -1.2 130.45 M1.3 133.8 L1.2 134.2 2.2 135.55 2.7 136.05 3.3 136.05 2.95 134.95 1.95 133.95 1.3 133.8 M0.05 139.95 L-2.05 138.3 Q-8.3 131.4 -5.05 131.05 -0.7 133.65 1.2 138.3 L1.45 139.55 1.2 139.95 0.05 139.95 M4.45 141.45 L4.55 140.95 5.2 141.8 5.05 142.3 3.3 141.05 4.45 141.45" fill="#000000" fill-rule="evenodd" stroke="none"/>
    <path d="M-3.3 134.45 L-2.05 135.2 -1.45 136.7 -2.2 136.55 -2.95 135.8 -3.45 134.95 -3.3 134.45 M-1.2 130.45 L-1.55 130.8 -0.7 133.45 1.95 136.95 4.95 139.3 6.05 139.3 6.2 138.3 Q5.2 134.25 -0.3 130.45 L-1.2 130.45 M1.3 133.8 L1.95 133.95 2.95 134.95 3.3 136.05 2.7 136.05 2.2 135.55 1.2 134.2 1.3 133.8 M-14.7 140.95 Q-24.25 129.55 -20.55 122.2 -11.15 117.6 3.05 130.8 14.0 143.95 1.2 156.05 L1.95 157.2 3.3 158.05 10.45 161.45 11.45 162.3 12.2 164.05 Q13.45 166.55 7.2 165.55 16.95 164.75 -1.3 157.2 L-1.95 155.7 -1.2 154.95 -0.7 153.45 -1.7 151.05 Q-2.95 149.3 -9.7 145.55 L-14.7 140.95 M4.45 141.45 L3.3 141.05 5.05 142.3 5.2 141.8 4.55 140.95 4.45 141.45 M0.05 139.95 L1.2 139.95 1.45 139.55 1.2 138.3 Q-0.7 133.65 -5.05 131.05 -8.3 131.4 -2.05 138.3 L0.05 139.95" fill="#ffffff" fill-rule="evenodd" stroke="none"/>
  </g>
</svg>
