<?xml version="1.0" encoding="UTF-8" standalone="no"?>
<svg xmlns:xlink="http://www.w3.org/1999/xlink" height="56.8px" width="47.3px" xmlns="http://www.w3.org/2000/svg">
  <g transform="matrix(1.0, 0.0, 0.0, 1.0, 46.4, -105.25)">
    <path d="M-19.3 120.7 Q-19.75 122.25 -16.95 123.55 L-17.45 122.3 -18.2 121.3 -19.3 120.7 M-24.7 121.55 Q-24.7 123.35 -22.2 124.45 L-22.95 122.8 -24.05 121.7 -24.7 121.55 M-13.7 130.8 L-13.8 131.3 -15.95 129.8 -14.7 130.2 -14.55 129.7 -13.7 130.8 M-13.2 127.45 L-14.45 127.55 -17.3 125.45 Q-24.45 118.6 -22.05 116.55 -18.3 117.6 -13.55 125.45 L-13.05 126.7 -13.2 127.45 M-19.3 125.45 L-18.55 126.95 -18.45 128.2 -19.8 128.45 -21.95 127.05 -23.55 125.45 Q-29.9 118.9 -27.45 117.45 -24.0 118.4 -19.3 125.45" fill="#000000" fill-rule="evenodd" stroke="none"/>
    <path d="M-24.7 121.55 L-24.05 121.7 -22.95 122.8 -22.2 124.45 Q-24.7 123.35 -24.7 121.55 M-19.3 120.7 L-18.2 121.3 -17.45 122.3 -16.95 123.55 Q-19.75 122.25 -19.3 120.7 M-19.3 125.45 Q-24.0 118.4 -27.45 117.45 -29.9 118.9 -23.55 125.45 L-21.95 127.05 -19.8 128.45 -18.45 128.2 -18.55 126.95 -19.3 125.45 M-13.2 127.45 L-13.05 126.7 -13.55 125.45 Q-18.3 117.6 -22.05 116.55 -24.45 118.6 -17.3 125.45 L-14.45 127.55 -13.2 127.45 M-13.7 130.8 L-14.55 129.7 -14.7 130.2 -15.95 129.8 -13.8 131.3 -13.7 130.8 M-9.8 131.05 Q-7.9 139.85 -13.7 148.95 L-13.55 149.8 -11.8 151.2 -3.2 155.3 -0.45 157.45 Q2.85 162.35 -2.05 162.05 L-4.2 161.45 Q1.35 161.35 -2.8 157.55 L-6.3 155.45 Q-17.15 151.0 -16.2 150.8 -18.0 150.15 -16.55 146.05 L-17.95 143.45 -22.05 140.05 -29.2 135.8 -32.7 133.05 -40.05 124.95 Q-49.3 114.05 -45.05 106.2 -33.5 101.5 -15.2 119.55 L-11.45 125.7 -9.8 131.05" fill="#ffffff" fill-rule="evenodd" stroke="none"/>
  </g>
</svg>
