<?xml version="1.0" encoding="UTF-8" standalone="no"?>
<svg xmlns:xlink="http://www.w3.org/1999/xlink" height="65.85px" width="56.75px" xmlns="http://www.w3.org/2000/svg">
  <g transform="matrix(1.0, 0.0, 0.0, 1.0, 72.25, -90.25)">
    <path d="M-40.45 107.05 Q-41.4 108.65 -38.05 110.3 L-38.55 108.7 -40.45 107.05 M-47.3 107.95 Q-47.15 110.55 -44.7 111.2 -45.15 108.55 -47.3 107.95 M-34.2 112.55 Q-33.7 117.3 -38.7 112.55 -47.15 103.3 -42.8 102.55 -36.15 107.05 -34.2 112.55 M-41.2 112.55 Q-39.55 116.7 -41.95 115.8 L-43.8 114.8 -46.2 112.55 Q-53.75 103.4 -50.05 103.3 -44.5 105.9 -41.2 112.55 M-36.05 117.8 L-36.2 116.95 -35.2 118.3 -35.2 119.05 -36.8 118.3 -37.55 117.55 -37.3 117.45 -36.05 117.8" fill="#000000" fill-rule="evenodd" stroke="none"/>
    <path d="M-19.3 151.3 L-25.3 147.7 -34.95 143.45 -37.05 141.3 -37.3 140.7 -36.8 137.7 -37.2 136.3 -38.55 134.05 -43.45 129.95 -53.2 124.05 -57.3 120.7 -60.8 117.2 Q-77.15 98.85 -70.2 91.3 -53.75 86.6 -37.05 102.7 -23.7 115.0 -33.3 141.05 -33.5 142.75 -20.45 148.2 L-16.95 151.2 Q-12.8 157.45 -20.7 155.7 L-20.8 155.3 -20.45 155.05 -18.95 154.95 -17.8 154.3 -17.8 153.05 -19.3 151.3 M-47.3 107.95 Q-45.15 108.55 -44.7 111.2 -47.15 110.55 -47.3 107.95 M-40.45 107.05 L-38.55 108.7 -38.05 110.3 Q-41.4 108.65 -40.45 107.05 M-36.05 117.8 L-37.3 117.45 -37.55 117.55 -36.8 118.3 -35.2 119.05 -35.2 118.3 -36.2 116.95 -36.05 117.8 M-41.2 112.55 Q-44.5 105.9 -50.05 103.3 -53.75 103.4 -46.2 112.55 L-43.8 114.8 -41.95 115.8 Q-39.55 116.7 -41.2 112.55 M-34.2 112.55 Q-36.15 107.05 -42.8 102.55 -47.15 103.3 -38.7 112.55 -33.7 117.3 -34.2 112.55" fill="#ffffff" fill-rule="evenodd" stroke="none"/>
  </g>
</svg>
