<?xml version="1.0" encoding="UTF-8" standalone="no"?>
<svg xmlns:xlink="http://www.w3.org/1999/xlink" height="71.8px" width="57.85px" xmlns="http://www.w3.org/2000/svg">
  <g transform="matrix(1.0, 0.0, 0.0, 1.0, 92.9, -77.15)">
    <path d="M-55.8 95.45 Q-56.4 98.3 -53.7 98.7 -53.15 96.3 -55.8 95.45 M-53.55 107.7 L-54.7 107.3 -56.3 105.7 -54.45 106.45 -54.2 105.45 -53.45 106.7 -53.55 107.7 M-59.2 99.7 Q-57.8 104.75 -60.95 104.05 L-63.3 102.7 -65.95 99.7 Q-70.9 92.75 -66.55 91.05 -62.75 91.25 -59.2 99.7 M-58.8 95.55 L-59.05 92.2 -58.3 91.05 -56.45 90.8 Q-51.95 92.35 -49.95 99.7 -49.15 104.05 -52.05 103.45 L-54.05 102.45 -56.45 99.7 Q-57.75 98.5 -58.8 95.55 M-64.95 95.8 Q-65.5 98.6 -62.8 99.2 -62.25 96.85 -64.95 95.8" fill="#000000" fill-rule="evenodd" stroke="none"/>
    <path d="M-55.8 95.45 Q-53.15 96.3 -53.7 98.7 -56.4 98.3 -55.8 95.45 M-58.8 95.55 Q-57.75 98.5 -56.45 99.7 L-54.05 102.45 -52.05 103.45 Q-49.15 104.05 -49.95 99.7 -51.95 92.35 -56.45 90.8 L-58.3 91.05 -59.05 92.2 -58.8 95.55 M-59.2 99.7 Q-62.75 91.25 -66.55 91.05 -70.9 92.75 -65.95 99.7 L-63.3 102.7 -60.95 104.05 Q-57.8 104.75 -59.2 99.7 M-53.55 107.7 L-53.45 106.7 -54.2 105.45 -54.45 106.45 -56.3 105.7 -54.7 107.3 -53.55 107.7 M-64.95 95.8 Q-62.25 96.85 -62.8 99.2 -65.5 98.6 -64.95 95.8 M-70.7 78.2 Q-59.95 79.6 -49.2 89.8 -36.65 100.05 -54.8 131.3 -54.75 132.85 -52.45 134.2 L-43.55 138.3 -38.45 141.3 Q-36.7 142.55 -35.45 145.3 -33.45 150.25 -40.95 148.45 L-40.7 147.8 -38.55 147.55 -37.95 147.3 -37.45 146.45 -37.8 145.05 -39.55 143.2 Q-44.05 139.65 -56.55 134.7 L-58.45 133.05 -59.3 131.7 Q-58.2 129.05 -58.55 127.45 L-59.3 125.3 -60.7 123.3 -63.95 120.45 -75.95 112.95 -79.3 110.2 -85.8 103.05 Q-98.4 86.0 -88.7 79.2 -86.45 75.7 -70.7 78.2" fill="#ffffff" fill-rule="evenodd" stroke="none"/>
  </g>
</svg>
