<?xml version="1.0" encoding="UTF-8" standalone="no"?>
<svg xmlns:xlink="http://www.w3.org/1999/xlink" height="72.6px" width="60.45px" xmlns="http://www.w3.org/2000/svg">
  <g transform="matrix(1.0, 0.0, 0.0, 1.0, 105.0, -69.0)">
    <path d="M-56.95 83.45 L-54.95 84.3 -53.2 86.8 Q-52.65 96.25 -58.3 95.45 -64.7 91.75 -62.55 86.8 -61.15 83.0 -56.95 83.45 M-62.95 99.05 Q-64.5 99.65 -65.8 96.8 L-63.8 97.95 -63.05 97.7 -62.95 96.95 -62.55 97.05 -62.55 98.7 -62.95 99.05 M-57.95 90.8 Q-55.8 89.1 -58.7 87.7 -61.3 90.35 -57.95 90.8 M-70.3 82.95 L-67.8 84.3 -66.3 86.8 Q-65.3 96.3 -70.8 95.3 -75.9 93.55 -75.7 86.8 -74.65 82.25 -70.3 82.95 M-72.45 87.95 L-72.45 89.55 -71.8 90.45 -70.7 90.55 Q-68.8 88.4 -71.45 87.3 L-72.45 87.95" fill="#000000" fill-rule="evenodd" stroke="none"/>
    <path d="M-56.95 83.45 Q-61.15 83.0 -62.55 86.8 -64.7 91.75 -58.3 95.45 -52.65 96.25 -53.2 86.8 L-54.95 84.3 -56.95 83.45 M-57.95 90.8 Q-61.3 90.35 -58.7 87.7 -55.8 89.1 -57.95 90.8 M-62.95 99.05 L-62.55 98.7 -62.55 97.05 -62.95 96.95 -63.05 97.7 -63.8 97.95 -65.8 96.8 Q-64.5 99.65 -62.95 99.05 M-51.2 101.45 Q-70.65 121.25 -73.8 122.8 -76.75 124.55 -57.95 132.8 L-55.55 135.05 -54.8 136.3 -54.3 138.3 Q-52.95 142.95 -61.55 141.05 -47.2 138.25 -78.3 125.2 L-79.2 123.95 -79.45 122.8 -77.55 120.2 -77.2 117.7 -77.45 116.3 -78.55 114.3 -82.05 110.95 -92.2 104.55 -95.2 102.2 -98.8 98.45 Q-110.15 85.4 -100.7 73.95 -92.8 67.75 -76.95 69.3 -58.15 71.05 -47.05 81.3 -42.2 86.35 -46.8 95.7 L-51.2 101.45 M-70.3 82.95 Q-74.65 82.25 -75.7 86.8 -75.9 93.55 -70.8 95.3 -65.3 96.3 -66.3 86.8 L-67.8 84.3 -70.3 82.95 M-72.45 87.95 L-71.45 87.3 Q-68.8 88.4 -70.7 90.55 L-71.8 90.45 -72.45 89.55 -72.45 87.95" fill="#ffffff" fill-rule="evenodd" stroke="none"/>
  </g>
</svg>
