<?xml version="1.0" encoding="UTF-8" standalone="no"?>
<svg xmlns:xlink="http://www.w3.org/1999/xlink" height="69.85px" width="81.0px" xmlns="http://www.w3.org/2000/svg">
  <g transform="matrix(1.0, 0.0, 0.0, 1.0, 108.65, -65.8)">
    <path d="M-66.45 85.7 L-66.05 86.55 -63.8 86.45 Q-61.25 83.8 -63.95 83.7 L-65.45 84.2 -66.05 84.95 -66.45 85.7 M-62.05 92.8 L-60.2 93.95 -58.8 93.8 -57.95 93.05 -57.8 93.45 Q-61.45 97.0 -62.05 92.8 M-58.2 86.8 Q-62.3 91.7 -67.45 91.05 -70.9 90.4 -71.05 86.8 -68.0 78.85 -60.2 79.7 -54.2 81.1 -58.2 86.8 M-50.55 92.2 Q-55.45 91.1 -53.8 86.8 -50.0 80.6 -42.45 81.2 -37.25 82.1 -39.8 86.8 -43.95 92.35 -50.55 92.2 M-49.45 86.8 Q-49.95 89.05 -45.95 86.8 -44.05 84.75 -48.2 85.45 L-49.45 86.8" fill="#000000" fill-rule="evenodd" stroke="none"/>
    <path d="M-66.45 85.7 L-66.05 84.95 -65.45 84.2 -63.95 83.7 Q-61.25 83.8 -63.8 86.45 L-66.05 86.55 -66.45 85.7 M-50.55 92.2 Q-43.95 92.35 -39.8 86.8 -37.25 82.1 -42.45 81.2 -50.0 80.6 -53.8 86.8 -55.45 91.1 -50.55 92.2 M-58.2 86.8 Q-54.2 81.1 -60.2 79.7 -68.0 78.85 -71.05 86.8 -70.9 90.4 -67.45 91.05 -62.3 91.7 -58.2 86.8 M-62.05 92.8 Q-61.45 97.0 -57.8 93.45 L-57.95 93.05 -58.8 93.8 -60.2 93.95 -62.05 92.8 M-41.95 96.55 Q-81.75 115.05 -86.3 116.55 -88.3 117.25 -84.3 120.2 L-73.3 125.45 -69.8 127.95 Q-68.15 129.35 -68.7 132.55 -68.8 136.3 -77.45 135.55 L-78.8 134.95 -78.7 134.45 -75.2 134.3 -72.45 133.2 -71.95 132.55 -71.95 131.7 -72.7 130.05 Q-76.05 126.35 -92.95 118.95 L-93.7 117.7 -93.7 116.45 Q-86.4 112.8 -88.3 108.2 L-91.7 104.45 Q-93.15 104.05 -102.8 96.7 L-104.55 94.8 -106.8 91.45 -108.05 88.05 Q-110.2 82.55 -104.8 75.05 -99.8 66.95 -70.3 65.8 -45.8 66.85 -30.3 77.2 -23.75 83.35 -33.45 91.3 L-41.95 96.55 M-49.45 86.8 L-48.2 85.45 Q-44.05 84.75 -45.95 86.8 -49.95 89.05 -49.45 86.8" fill="#ffffff" fill-rule="evenodd" stroke="none"/>
  </g>
</svg>
