<?xml version="1.0" encoding="UTF-8" standalone="no"?>
<svg xmlns:xlink="http://www.w3.org/1999/xlink" height="66.25px" width="103.2px" xmlns="http://www.w3.org/2000/svg">
  <g transform="matrix(1.0, 0.0, 0.0, 1.0, 103.45, -66.05)">
    <path d="M-21.2 87.8 L-21.3 86.8 -22.45 86.55 -24.3 86.8 -26.55 88.3 -26.55 89.05 -25.3 89.45 -22.05 88.55 -21.2 87.8 M-16.55 82.8 Q-11.05 83.55 -13.05 86.8 -18.9 93.5 -29.45 93.45 -36.75 91.5 -30.8 86.8 -23.7 82.3 -16.55 82.8 M-42.05 84.8 L-42.95 84.45 -45.8 84.95 -46.95 85.7 -47.45 86.2 -47.45 86.8 -46.55 87.3 -43.95 86.8 -42.2 85.7 -42.05 84.8 M-38.05 80.55 Q-30.7 82.4 -36.3 86.8 -54.8 96.05 -53.8 86.8 -49.7 80.95 -38.05 80.55 M-45.2 93.2 Q-42.5 95.3 -40.35 94.3 -45.85 97.35 -45.2 93.2" fill="#000000" fill-rule="evenodd" stroke="none"/>
    <path d="M-21.2 87.8 L-22.05 88.55 -25.3 89.45 -26.55 89.05 -26.55 88.3 -24.3 86.8 -22.45 86.55 -21.3 86.8 -21.2 87.8 M-26.8 98.55 Q-86.55 113.6 -87.8 112.95 L-90.2 113.8 Q-95.3 115.1 -75.95 123.7 L-74.2 125.45 Q-72.55 128.75 -77.95 131.3 L-82.55 132.3 -88.55 131.7 -89.45 131.3 -89.55 130.95 -88.95 130.7 -83.3 130.7 -80.3 129.95 -79.05 128.95 -78.95 127.3 Q-79.5 124.15 -99.3 115.55 L-99.7 114.55 -99.2 112.95 -91.55 110.2 Q-88.65 108.95 -87.95 106.2 -88.05 104.4 -89.7 102.7 L-100.2 94.55 -101.95 92.45 -103.3 88.8 -103.3 86.45 Q-104.5 82.7 -94.95 74.95 -83.05 65.85 -46.2 66.05 -9.25 69.5 -1.05 79.7 3.2 88.0 -14.55 94.55 L-26.8 98.55 M-16.55 82.8 Q-23.7 82.3 -30.8 86.8 -36.75 91.5 -29.45 93.45 -18.9 93.5 -13.05 86.8 -11.05 83.55 -16.55 82.8 M-42.05 84.8 L-42.2 85.7 -43.95 86.8 -46.55 87.3 -47.45 86.8 -47.45 86.2 -46.95 85.7 -45.8 84.95 -42.95 84.45 -42.05 84.8 M-45.2 93.2 Q-45.85 97.35 -40.35 94.3 -42.5 95.3 -45.2 93.2 M-38.05 80.55 Q-49.7 80.95 -53.8 86.8 -54.8 96.05 -36.3 86.8 -30.7 82.4 -38.05 80.55" fill="#ffffff" fill-rule="evenodd" stroke="none"/>
  </g>
</svg>
