<?xml version="1.0" encoding="UTF-8" standalone="no"?>
<svg xmlns:xlink="http://www.w3.org/1999/xlink" height="65.3px" width="124.65px" xmlns="http://www.w3.org/2000/svg">
  <g transform="matrix(1.0, 0.0, 0.0, 1.0, 96.55, -66.45)">
    <path d="M-16.8 98.05 L-13.3 97.45 Q-20.25 101.35 -19.45 96.55 L-18.3 97.7 -16.8 98.05 M-18.8 90.3 L-16.3 89.55 Q-13.15 87.65 -17.2 87.3 L-20.2 88.3 -21.05 89.05 -21.2 89.95 -20.45 90.3 -18.8 90.3 M5.8 89.8 L3.7 90.55 2.45 91.55 2.3 92.45 4.55 92.8 7.2 91.95 8.55 90.45 7.8 89.8 5.8 89.8 M-0.8 97.2 Q-12.15 93.85 3.8 86.8 16.5 84.05 16.95 86.8 18.8 95.1 -0.8 97.2 M-25.2 86.8 Q-4.75 79.3 -6.05 86.8 -12.0 94.6 -24.2 94.7 -34.2 93.6 -25.2 86.8" fill="#000000" fill-rule="evenodd" stroke="none"/>
    <path d="M-16.8 98.05 L-18.3 97.7 -19.45 96.55 Q-20.25 101.35 -13.3 97.45 L-16.8 98.05 M5.8 89.8 L7.8 89.8 8.55 90.45 7.2 91.95 4.55 92.8 2.3 92.45 2.45 91.55 3.7 90.55 5.8 89.8 M-18.8 90.3 L-20.45 90.3 -21.2 89.95 -21.05 89.05 -20.2 88.3 -17.2 87.3 Q-13.15 87.65 -16.3 89.55 L-18.8 90.3 M-0.8 97.2 Q18.8 95.1 16.95 86.8 16.5 84.05 3.8 86.8 -12.15 93.85 -0.8 97.2 M8.55 98.55 L-0.05 100.95 -22.95 105.45 -60.8 111.3 -81.3 113.55 -84.55 114.3 -85.55 115.45 -85.2 116.3 -84.05 117.3 -74.45 121.95 Q-71.55 123.15 -69.2 125.45 -68.9 133.5 -89.8 131.3 L-91.2 130.8 -91.2 130.45 -90.45 130.2 -81.8 130.55 -78.2 129.95 -76.05 128.7 -75.8 127.2 Q-77.5 123.4 -95.45 116.2 L-96.55 114.95 -96.3 113.8 -95.3 112.95 Q-78.15 110.0 -78.2 106.8 L-78.2 105.2 -79.2 103.2 -86.8 97.2 -89.45 94.55 -90.7 91.95 -90.55 88.3 -89.8 86.55 Q-88.2 81.5 -75.55 75.2 -60.45 66.8 -19.8 66.45 15.95 68.75 27.2 81.3 32.25 90.95 8.55 98.55 M-25.2 86.8 Q-34.2 93.6 -24.2 94.7 -12.0 94.6 -6.05 86.8 -4.75 79.3 -25.2 86.8" fill="#ffffff" fill-rule="evenodd" stroke="none"/>
  </g>
</svg>
