<?xml version="1.0" encoding="UTF-8" standalone="no"?>
<svg xmlns:xlink="http://www.w3.org/1999/xlink" height="71.95px" width="134.0px" xmlns="http://www.w3.org/2000/svg">
  <g transform="matrix(1.0, 0.0, 0.0, 1.0, 85.45, -63.4)">
    <path d="M29.05 94.95 L30.55 94.95 32.7 93.95 Q35.2 91.35 31.7 91.05 L29.3 91.95 28.45 92.95 28.2 94.45 29.05 94.95 M31.45 99.7 Q28.5 100.6 25.8 100.3 L23.55 99.7 Q15.95 94.6 29.3 86.8 38.6 84.05 40.2 86.8 46.3 93.1 31.45 99.7 M0.45 97.95 Q-9.5 94.25 1.8 86.8 16.5 80.55 17.95 86.8 16.95 97.5 0.45 97.95 M7.3 89.2 L5.05 90.2 3.95 91.45 4.05 92.45 4.8 92.8 7.05 92.7 9.2 91.55 Q11.35 89.0 7.3 89.2 M7.2 100.2 Q9.75 102.9 13.55 101.2 6.25 105.45 7.2 100.2" fill="#000000" fill-rule="evenodd" stroke="none"/>
    <path d="M29.05 94.95 L28.2 94.45 28.45 92.95 29.3 91.95 31.7 91.05 Q35.2 91.35 32.7 93.95 L30.55 94.95 29.05 94.95 M31.45 99.7 Q46.3 93.1 40.2 86.8 38.6 84.05 29.3 86.8 15.95 94.6 23.55 99.7 L25.8 100.3 Q28.5 100.6 31.45 99.7 M20.7 104.3 Q12.05 106.6 -5.05 109.7 L-32.2 113.7 -70.3 117.2 Q-77.65 118.8 -60.7 125.45 -50.7 129.6 -57.2 133.05 -64.05 137.05 -82.45 134.05 L-83.55 133.3 -82.05 133.05 -74.8 133.8 -67.3 133.55 -64.45 132.55 -63.7 131.8 -63.55 130.55 Q-68.15 125.9 -69.45 125.8 L-84.05 119.2 -85.05 118.45 -85.45 117.05 -83.45 115.55 Q-70.2 114.0 -68.45 113.2 L-65.05 111.95 -62.3 110.05 -61.95 108.05 -62.95 105.8 -65.7 103.8 -73.05 97.05 -74.3 94.55 -74.2 90.95 -72.05 86.95 Q-67.2 79.8 -51.3 72.7 -28.15 62.8 3.8 63.45 39.1 66.85 47.7 82.05 52.25 91.0 33.05 100.2 L20.7 104.3 M0.45 97.95 Q16.95 97.5 17.95 86.8 16.5 80.55 1.8 86.8 -9.5 94.25 0.45 97.95 M7.3 89.2 Q11.35 89.0 9.2 91.55 L7.05 92.7 4.8 92.8 4.05 92.45 3.95 91.45 5.05 90.2 7.3 89.2 M7.2 100.2 Q6.25 105.45 13.55 101.2 9.75 102.9 7.2 100.2" fill="#ffffff" fill-rule="evenodd" stroke="none"/>
  </g>
</svg>
