<?xml version="1.0" encoding="UTF-8" standalone="no"?>
<svg xmlns:xlink="http://www.w3.org/1999/xlink" height="87.1px" width="126.55px" xmlns="http://www.w3.org/2000/svg">
  <g transform="matrix(1.0, 0.0, 0.0, 1.0, 69.95, -54.3)">
    <path d="M24.45 89.3 L24.3 88.05 23.8 87.45 21.95 86.95 Q17.7 88.5 20.95 91.8 L23.05 91.45 24.05 90.45 24.45 89.3 M26.45 100.95 L28.2 102.45 29.55 102.8 31.45 102.55 32.7 101.55 32.8 102.05 Q27.5 107.35 26.45 100.95 M31.05 86.8 Q32.1 91.95 27.45 96.05 L23.3 98.2 19.3 98.55 Q10.35 97.4 13.7 86.8 17.2 79.6 24.2 79.7 31.0 81.85 31.05 86.8 M44.2 87.95 Q40.3 92.15 45.45 92.95 L46.8 91.8 47.2 90.05 46.95 89.05 46.05 88.05 44.2 87.95 M46.2 99.95 L42.3 99.7 Q34.05 96.6 37.3 86.8 40.25 79.8 46.45 80.3 51.75 81.55 53.3 86.8 L53.95 88.95 53.7 92.95 Q53.2 97.45 46.2 99.95" fill="#000000" fill-rule="evenodd" stroke="none"/>
    <path d="M24.45 89.3 L24.05 90.45 23.05 91.45 20.95 91.8 Q17.7 88.5 21.95 86.95 L23.8 87.45 24.3 88.05 24.45 89.3 M31.05 86.8 Q31.0 81.85 24.2 79.7 17.2 79.6 13.7 86.8 10.35 97.4 19.3 98.55 L23.3 98.2 27.45 96.05 Q32.1 91.95 31.05 86.8 M26.45 100.95 Q27.5 107.35 32.8 102.05 L32.7 101.55 31.45 102.55 29.55 102.8 28.2 102.45 26.45 100.95 M44.2 87.95 L46.05 88.05 46.95 89.05 47.2 90.05 46.8 91.8 45.45 92.95 Q40.3 92.15 44.2 87.95 M53.7 92.95 L53.95 88.95 53.3 86.8 Q51.75 81.55 46.45 80.3 40.25 79.8 37.3 86.8 34.05 96.6 42.3 99.7 L46.2 99.95 Q44.75 103.45 11.55 112.45 -7.8 117.85 -53.7 121.55 -57.15 123.05 -53.8 125.05 L-42.8 130.3 -36.55 133.95 Q-33.05 135.7 -37.55 138.95 -47.6 143.9 -68.55 138.95 -44.0 141.5 -45.2 136.3 -49.9 131.65 -51.8 131.05 L-68.2 123.55 -69.3 122.95 -69.95 121.7 -69.55 120.8 -67.7 119.7 -54.8 117.8 -50.05 116.55 -46.55 114.8 -44.95 113.2 -44.8 111.45 -45.8 109.05 -55.7 101.05 -58.7 97.7 -59.95 94.05 Q-60.05 90.8 -59.2 89.05 -58.25 83.05 -45.05 71.55 -11.45 43.55 35.2 61.05 64.45 75.35 53.7 92.95" fill="#ffffff" fill-rule="evenodd" stroke="none"/>
  </g>
</svg>
