<?xml version="1.0" encoding="UTF-8" standalone="no"?>
<svg xmlns:xlink="http://www.w3.org/1999/xlink" height="108.4px" width="110.35px" xmlns="http://www.w3.org/2000/svg">
  <g transform="matrix(1.0, 0.0, 0.0, 1.0, 54.45, -40.15)">
    <path d="M51.55 93.95 Q44.3 97.25 38.55 86.8 35.0 81.0 36.2 73.95 36.55 69.75 41.45 69.8 L44.7 71.05 47.95 73.95 51.55 78.95 Q54.1 84.0 53.95 86.8 L53.95 90.05 53.3 91.7 51.55 93.95 M42.05 80.2 L42.05 81.8 42.7 83.7 43.7 85.05 44.3 85.55 45.8 85.8 46.8 84.95 46.7 82.7 45.2 80.05 44.3 79.45 43.05 79.3 42.05 80.2 M15.05 73.95 Q19.9 66.65 26.8 73.95 32.1 79.75 32.2 86.8 31.0 96.0 24.55 94.45 19.5 93.75 16.2 86.8 13.25 80.75 15.05 73.95 M21.95 79.55 Q18.7 84.15 24.45 85.8 27.45 81.9 21.95 79.55 M33.2 97.7 L33.3 97.2 35.05 98.7 36.05 99.05 Q39.0 99.35 39.2 97.45 L39.3 99.7 Q37.1 103.2 34.7 99.7 L33.2 97.7" fill="#000000" fill-rule="evenodd" stroke="none"/>
    <path d="M51.55 93.95 Q43.5 104.6 20.2 113.05 7.35 119.2 -38.7 125.8 -41.0 127.3 -36.55 129.8 L-25.55 134.95 -16.8 139.8 Q-12.9 142.1 -17.2 145.7 -27.45 151.3 -49.7 145.95 L-49.8 145.45 -46.95 145.3 -38.05 146.45 -31.05 146.45 Q-24.65 145.6 -25.45 143.05 -26.8 138.3 -53.2 127.55 L-54.45 126.45 -54.2 124.55 -52.2 123.2 Q-33.5 121.1 -31.55 115.3 L-32.05 112.55 -33.8 109.95 -45.8 100.95 -49.8 96.95 Q-53.45 93.9 -53.05 82.45 -52.55 73.5 -43.05 58.3 -30.25 43.3 -16.7 40.8 2.8 37.85 26.8 48.2 40.55 53.9 50.3 66.2 59.25 77.75 53.95 90.05 L53.95 86.8 Q54.1 84.0 51.55 78.95 L47.95 73.95 44.7 71.05 41.45 69.8 Q36.55 69.75 36.2 73.95 35.0 81.0 38.55 86.8 44.3 97.25 51.55 93.95 M42.05 80.2 L43.05 79.3 44.3 79.45 45.2 80.05 46.7 82.7 46.8 84.95 45.8 85.8 44.3 85.55 43.7 85.05 42.7 83.7 42.05 81.8 42.05 80.2 M15.05 73.95 Q13.25 80.75 16.2 86.8 19.5 93.75 24.55 94.45 31.0 96.0 32.2 86.8 32.1 79.75 26.8 73.95 19.9 66.65 15.05 73.95 M21.95 79.55 Q27.45 81.9 24.45 85.8 18.7 84.15 21.95 79.55 M33.2 97.7 L34.7 99.7 Q37.1 103.2 39.3 99.7 L39.2 97.45 Q39.0 99.35 36.05 99.05 L35.05 98.7 33.3 97.2 33.2 97.7" fill="#ffffff" fill-rule="evenodd" stroke="none"/>
  </g>
</svg>
