<?xml version="1.0" encoding="UTF-8" standalone="no"?>
<svg xmlns:xlink="http://www.w3.org/1999/xlink" height="130.85px" width="109.85px" xmlns="http://www.w3.org/2000/svg">
  <g transform="matrix(1.0, 0.0, 0.0, 1.0, 59.6, -24.1)">
    <path d="M23.45 61.05 Q24.3 54.95 28.7 56.3 L31.95 57.7 35.8 61.05 39.7 65.8 Q43.2 71.25 43.7 73.95 47.0 85.35 40.05 85.05 34.55 84.85 27.55 73.95 26.0 71.9 24.2 66.45 L23.45 61.05 M2.45 61.05 Q3.45 56.45 7.45 57.3 L10.45 58.45 13.8 61.05 17.7 65.55 Q20.95 70.1 22.2 73.95 25.75 86.5 18.05 85.8 12.5 85.5 5.7 73.95 2.05 67.85 2.45 61.05 M36.3 73.95 Q36.75 70.1 32.45 67.05 28.0 66.85 33.8 73.95 L35.05 74.55 35.95 74.45 36.3 73.95 M14.3 70.7 Q13.85 69.5 11.7 68.05 7.6 68.35 11.8 73.95 14.0 76.95 15.45 73.95 L14.3 70.7 M27.3 88.7 Q33.85 93.3 33.2 88.95 L34.05 91.3 33.8 93.3 Q30.8 94.6 27.3 88.7" fill="#000000" fill-rule="evenodd" stroke="none"/>
    <path d="M2.45 61.05 Q2.05 67.85 5.7 73.95 12.5 85.5 18.05 85.8 25.75 86.5 22.2 73.95 20.95 70.1 17.7 65.55 L13.8 61.05 10.45 58.45 7.45 57.3 Q3.45 56.45 2.45 61.05 M23.45 61.05 L24.2 66.45 Q26.0 71.9 27.55 73.95 34.55 84.85 40.05 85.05 47.0 85.35 43.7 73.95 43.2 71.25 39.7 65.8 L35.8 61.05 31.95 57.7 28.7 56.3 Q24.3 54.95 23.45 61.05 M14.3 70.7 L15.45 73.95 Q14.0 76.95 11.8 73.95 7.6 68.35 11.7 68.05 13.85 69.5 14.3 70.7 M36.3 73.95 L35.95 74.45 35.05 74.55 33.8 73.95 Q28.0 66.85 32.45 67.05 36.75 70.1 36.3 73.95 M27.3 88.7 Q30.8 94.6 33.8 93.3 L34.05 91.3 33.2 88.95 Q33.85 93.3 27.3 88.7 M48.45 66.7 Q55.45 83.0 34.95 101.55 L25.7 108.2 Q19.45 112.1 11.2 115.8 L-2.7 120.95 -14.3 124.05 -24.05 125.8 -26.7 126.7 -28.2 127.7 -28.55 128.2 -28.3 129.7 -25.05 132.3 -12.8 137.95 Q-5.05 141.5 -1.8 143.8 3.45 147.35 -0.3 151.2 -6.7 158.0 -31.55 152.55 L-32.2 151.95 -30.2 151.55 -18.2 152.7 -12.3 152.2 -9.2 150.55 -8.7 148.8 Q-9.15 143.65 -41.3 130.55 L-43.45 128.95 -43.7 126.8 -42.2 125.05 -33.7 122.8 Q-30.8 121.8 -27.45 119.3 L-25.7 117.2 -25.2 115.45 -25.45 113.55 -27.8 109.95 -30.45 107.3 Q-32.7 106.35 -42.95 98.7 L-49.45 93.2 Q-54.25 89.55 -58.3 74.95 L-59.2 69.55 -59.55 59.3 Q-60.65 37.3 -37.95 25.8 -20.25 20.3 12.7 32.8 39.55 44.1 48.45 66.7" fill="#ffffff" fill-rule="evenodd" stroke="none"/>
  </g>
</svg>
