<?xml version="1.0" encoding="UTF-8" standalone="no"?>
<svg xmlns:xlink="http://www.w3.org/1999/xlink" height="161.65px" width="133.9px" xmlns="http://www.w3.org/2000/svg">
  <g transform="matrix(1.0, 0.0, 0.0, 1.0, 91.05, 0.8)">
    <path d="M-15.45 32.55 L-12.95 33.3 -9.8 35.3 -6.3 39.3 Q-2.7 45.85 -2.55 48.2 -0.75 55.5 -4.2 61.05 -10.25 65.05 -14.05 61.05 -20.45 56.25 -23.3 48.2 -25.8 40.1 -22.8 35.3 -21.2 33.25 -19.55 32.95 L-15.45 32.55 M-11.05 48.2 L-12.2 45.3 -14.3 43.55 Q-18.2 42.75 -16.55 48.2 L-15.8 49.7 -15.3 50.45 -13.7 51.45 Q-10.75 52.3 -11.05 48.2 M12.95 61.05 Q7.25 58.0 3.8 48.2 1.7 41.6 6.05 35.3 14.3 30.8 18.55 35.3 23.7 39.1 25.3 48.2 26.5 56.0 21.95 61.05 15.95 64.05 12.95 61.05 M13.2 51.3 L14.3 51.3 15.55 50.7 16.2 48.2 15.3 45.45 13.2 43.7 Q9.8 42.45 10.45 48.2 L11.55 50.3 13.2 51.3 M1.05 66.3 Q8.3 71.85 8.05 66.7 L8.95 69.55 8.95 70.95 8.45 71.95 Q5.6 73.25 1.05 66.3" fill="#000000" fill-rule="evenodd" stroke="none"/>
    <path d="M-15.45 32.55 L-19.55 32.95 Q-21.2 33.25 -22.8 35.3 -25.8 40.1 -23.3 48.2 -20.45 56.25 -14.05 61.05 -10.25 65.05 -4.2 61.05 -0.75 55.5 -2.55 48.2 -2.7 45.85 -6.3 39.3 L-9.8 35.3 -12.95 33.3 -15.45 32.55 M-11.05 48.2 Q-10.75 52.3 -13.7 51.45 L-15.3 50.45 -15.8 49.7 -16.55 48.2 Q-18.2 42.75 -14.3 43.55 L-12.2 45.3 -11.05 48.2 M12.95 61.05 Q15.95 64.05 21.95 61.05 26.5 56.0 25.3 48.2 23.7 39.1 18.55 35.3 14.3 30.8 6.05 35.3 1.7 41.6 3.8 48.2 7.25 58.0 12.95 61.05 M13.2 51.3 L11.55 50.3 10.45 48.2 Q9.8 42.45 13.2 43.7 L15.3 45.45 16.2 48.2 15.55 50.7 14.3 51.3 13.2 51.3 M38.05 32.7 Q49.45 49.85 33.8 73.3 11.05 104.1 -29.2 122.7 L-29.2 124.8 Q-28.0 126.85 -25.05 128.7 -21.75 131.05 -5.2 137.95 L5.2 143.55 9.05 146.7 Q10.5 147.9 11.7 151.2 12.35 165.85 -15.2 158.3 L-14.3 157.55 Q-1.95 158.7 1.45 156.8 5.35 154.8 2.05 150.3 0.3 147.85 -11.45 141.2 L-39.7 128.45 -41.3 127.45 -43.3 125.3 -44.05 123.8 -44.05 121.3 -42.45 119.7 -37.3 117.05 -35.7 115.55 -33.95 112.95 -33.2 109.2 Q-33.5 106.0 -34.55 104.55 -35.8 99.25 -66.55 80.2 L-71.8 75.45 Q-75.55 71.75 -79.8 65.3 -104.25 24.45 -75.45 6.05 -57.15 -5.95 -15.55 3.05 27.1 13.5 38.05 32.7 M1.05 66.3 Q5.6 73.25 8.45 71.95 L8.95 70.95 8.95 69.55 8.05 66.7 Q8.3 71.85 1.05 66.3" fill="#ffffff" fill-rule="evenodd" stroke="none"/>
  </g>
</svg>
