<?xml version="1.0" encoding="UTF-8" standalone="no"?>
<svg xmlns:xlink="http://www.w3.org/1999/xlink" height="167.15px" width="151.6px" xmlns="http://www.w3.org/2000/svg">
  <g transform="matrix(1.0, 0.0, 0.0, 1.0, 100.5, 7.75)">
    <path d="M-26.95 35.3 Q-22.0 23.6 -13.3 25.2 -5.55 25.6 -2.8 35.3 L-2.7 41.2 Q-3.7 46.45 -5.2 48.2 -10.5 55.6 -15.55 54.3 -21.15 53.6 -24.45 48.2 -28.7 41.35 -26.95 35.3 M-12.8 38.55 Q-13.5 35.3 -16.45 35.55 -19.5 36.1 -19.3 39.95 L-18.3 42.3 -17.3 42.95 -15.8 43.2 Q-13.05 43.5 -12.8 38.55 M6.7 48.2 Q3.55 42.85 6.45 35.3 9.85 27.5 20.55 26.95 28.5 27.5 30.7 35.3 32.55 39.85 27.95 48.2 24.45 55.05 15.45 54.95 9.8 54.05 6.7 48.2 M-4.3 58.8 L-4.8 57.95 -4.55 57.8 -2.8 59.45 -1.2 60.3 Q3.0 61.1 3.45 58.2 L3.55 61.05 2.7 63.05 2.05 63.45 0.45 63.55 -1.95 62.05 -4.3 58.8 M18.2 37.2 L16.7 36.95 14.55 37.7 13.7 38.7 13.05 40.45 Q12.75 44.0 16.2 44.3 L18.45 43.55 19.3 42.55 19.95 40.7 19.45 38.2 18.2 37.2" fill="#000000" fill-rule="evenodd" stroke="none"/>
    <path d="M-26.95 35.3 Q-28.7 41.35 -24.45 48.2 -21.15 53.6 -15.55 54.3 -10.5 55.6 -5.2 48.2 -3.7 46.45 -2.7 41.2 L-2.8 35.3 Q-5.55 25.6 -13.3 25.2 -22.0 23.6 -26.95 35.3 M-12.8 38.55 Q-13.05 43.5 -15.8 43.2 L-17.3 42.95 -18.3 42.3 -19.3 39.95 Q-19.5 36.1 -16.45 35.55 -13.5 35.3 -12.8 38.55 M-4.3 58.8 L-1.95 62.05 0.45 63.55 2.05 63.45 2.7 63.05 3.55 61.05 3.45 58.2 Q3.0 61.1 -1.2 60.3 L-2.8 59.45 -4.55 57.8 -4.8 57.95 -4.3 58.8 M6.7 48.2 Q9.8 54.05 15.45 54.95 24.45 55.05 27.95 48.2 32.55 39.85 30.7 35.3 28.5 27.5 20.55 26.95 9.85 27.5 6.45 35.3 3.55 42.85 6.7 48.2 M18.2 37.2 L19.45 38.2 19.95 40.7 19.3 42.55 18.45 43.55 16.2 44.3 Q12.75 44.0 13.05 40.45 L13.7 38.7 14.55 37.7 16.7 36.95 18.2 37.2 M40.3 60.3 Q7.2 93.05 -37.45 116.8 -41.0 117.8 -32.8 124.3 -26.75 127.9 -12.95 133.55 -6.8 136.95 -0.7 140.3 7.05 146.35 6.3 151.2 6.85 163.25 -18.3 157.55 L-18.8 157.05 -18.05 156.2 Q-5.3 157.05 -3.05 154.45 0.3 152.8 -3.8 147.2 -11.4 139.1 -48.7 123.8 L-51.95 120.95 -53.2 118.8 -53.3 116.05 -52.2 114.7 -47.3 111.8 -45.3 109.8 -43.7 106.95 Q-41.95 102.05 -44.7 97.7 L-47.8 93.8 -52.2 89.7 -71.95 76.8 -79.2 71.45 -85.45 65.45 -91.2 57.95 Q-112.45 19.7 -85.2 2.45 -65.15 -11.75 -19.8 -6.2 30.7 1.3 47.2 23.8 57.6 38.8 40.3 60.3" fill="#ffffff" fill-rule="evenodd" stroke="none"/>
  </g>
</svg>
