<?xml version="1.0" encoding="UTF-8" standalone="no"?>
<svg xmlns:xlink="http://www.w3.org/1999/xlink" height="169.8px" width="168.75px" xmlns="http://www.w3.org/2000/svg">
  <g transform="matrix(1.0, 0.0, 0.0, 1.0, 105.05, 13.55)">
    <path d="M-6.8 31.05 Q-11.9 31.45 -12.2 35.3 L-12.05 36.95 -11.3 37.8 -10.2 38.3 -7.45 38.05 Q-6.05 37.95 -4.7 35.3 -3.15 32.15 -6.8 31.05 M45.7 35.3 Q45.7 41.1 35.7 48.2 22.3 53.7 18.45 48.2 13.05 43.6 16.2 35.3 23.6 23.25 35.3 23.45 47.6 25.0 45.7 35.3 M-0.8 52.95 L-0.55 52.7 Q1.25 55.1 2.8 55.3 L5.45 55.7 7.05 55.05 8.2 53.45 8.8 53.55 Q5.85 63.0 -0.3 54.2 L-0.45 54.05 -0.8 52.95 M3.05 22.45 Q9.3 25.25 7.05 35.3 6.3 42.1 -5.95 48.2 -7.3 49.0 -11.2 49.05 L-15.05 48.2 Q-22.4 46.1 -21.95 35.3 -20.25 27.0 -10.8 22.45 -0.75 19.4 3.05 22.45 M33.05 35.3 Q31.8 31.55 26.05 35.3 23.35 39.4 26.95 40.55 33.1 40.45 33.05 35.3" fill="#000000" fill-rule="evenodd" stroke="none"/>
    <path d="M-6.8 31.05 Q-3.15 32.15 -4.7 35.3 -6.05 37.95 -7.45 38.05 L-10.2 38.3 -11.3 37.8 -12.05 36.95 -12.2 35.3 Q-11.9 31.45 -6.8 31.05 M3.05 22.45 Q-0.75 19.4 -10.8 22.45 -20.25 27.0 -21.95 35.3 -22.4 46.1 -15.05 48.2 L-11.2 49.05 Q-7.3 49.0 -5.95 48.2 6.3 42.1 7.05 35.3 9.3 25.25 3.05 22.45 M-0.8 52.95 L-0.45 54.05 -0.3 54.2 Q5.85 63.0 8.8 53.55 L8.2 53.45 7.05 55.05 5.45 55.7 2.8 55.3 Q1.25 55.1 -0.55 52.7 L-0.8 52.95 M45.7 35.3 Q47.6 25.0 35.3 23.45 23.6 23.25 16.2 35.3 13.05 43.6 18.45 48.2 22.3 53.7 35.7 48.2 45.7 41.1 45.7 35.3 M33.05 35.3 Q33.1 40.45 26.95 40.55 23.35 39.4 26.05 35.3 31.8 31.55 33.05 35.3 M-1.3 86.95 L-23.2 99.05 Q-44.7 109.85 -45.7 109.45 L-46.95 110.2 -48.55 112.2 Q-49.0 115.85 -41.7 119.8 -38.0 122.1 -25.55 127.2 L-12.3 134.2 -8.3 137.05 Q-1.25 143.0 -4.95 151.2 -10.7 159.45 -27.95 154.2 L-28.55 153.55 -27.8 152.7 Q-14.9 153.45 -12.2 149.7 -10.0 146.8 -14.55 141.95 -20.95 134.65 -59.8 118.45 L-62.8 115.95 -64.2 113.7 -64.55 112.2 -64.3 110.05 Q-54.05 104.7 -52.8 98.8 L-52.7 98.55 Q-52.15 95.1 -52.8 93.45 L-54.3 90.45 -58.95 84.95 Q-94.05 63.35 -99.2 51.05 -111.25 25.25 -98.55 9.7 -86.45 -7.0 -45.8 -12.95 -10.0 -16.0 28.55 -3.3 74.7 12.8 60.3 42.45 57.95 49.1 37.05 64.05 L-1.3 86.95" fill="#ffffff" fill-rule="evenodd" stroke="none"/>
  </g>
</svg>
