<?xml version="1.0" encoding="UTF-8" standalone="no"?>
<svg xmlns:xlink="http://www.w3.org/1999/xlink" height="171.8px" width="182.95px" xmlns="http://www.w3.org/2000/svg">
  <g transform="matrix(1.0, 0.0, 0.0, 1.0, 106.15, 19.95)">
    <path d="M-10.8 35.3 Q-11.15 30.0 -2.7 22.45 14.25 12.9 20.95 22.45 24.3 28.5 20.2 35.3 12.8 46.75 -1.05 46.45 -11.2 44.75 -10.8 35.3 M1.8 30.45 L0.7 32.55 0.8 34.45 1.7 35.3 2.95 35.8 4.55 35.8 5.95 35.3 Q11.85 32.25 7.55 28.45 L5.2 28.45 4.05 28.8 1.8 30.45 M58.55 22.45 Q64.45 26.75 61.8 35.3 60.0 43.1 47.45 48.2 45.45 49.2 40.45 49.2 L36.2 48.2 Q28.35 45.85 30.3 35.3 32.85 27.25 41.7 22.45 54.75 17.9 58.55 22.45 M46.55 30.95 Q41.2 31.75 40.8 35.3 L40.8 36.55 41.45 37.8 42.8 38.45 Q47.0 39.0 48.95 35.3 50.6 31.25 46.55 30.95 M13.8 52.8 L16.2 53.45 18.95 53.05 21.05 51.3 21.45 51.8 Q13.4 61.3 10.95 50.3 11.5 51.55 13.8 52.8" fill="#000000" fill-rule="evenodd" stroke="none"/>
    <path d="M58.55 22.45 Q54.75 17.9 41.7 22.45 32.85 27.25 30.3 35.3 28.35 45.85 36.2 48.2 L40.45 49.2 Q45.45 49.2 47.45 48.2 60.0 43.1 61.8 35.3 64.45 26.75 58.55 22.45 M1.8 30.45 L4.05 28.8 5.2 28.45 7.55 28.45 Q11.85 32.25 5.95 35.3 L4.55 35.8 2.95 35.8 1.7 35.3 0.8 34.45 0.7 32.55 1.8 30.45 M-10.8 35.3 Q-11.2 44.75 -1.05 46.45 12.8 46.75 20.2 35.3 24.3 28.5 20.95 22.45 14.25 12.9 -2.7 22.45 -11.15 30.0 -10.8 35.3 M46.55 30.95 Q50.6 31.25 48.95 35.3 47.0 39.0 42.8 38.45 L41.45 37.8 40.8 36.55 40.8 35.3 Q41.2 31.75 46.55 30.95 M13.8 52.8 Q11.5 51.55 10.95 50.3 13.4 61.3 21.45 51.8 L21.05 51.3 18.95 53.05 16.2 53.45 13.8 52.8 M50.7 -5.2 Q91.0 15.25 69.05 43.45 62.3 51.75 43.05 62.3 L28.7 69.45 -7.05 85.95 Q-45.9 102.6 -52.95 104.05 L-56.45 106.05 -57.45 108.8 Q-57.3 110.55 -52.7 113.8 -44.3 118.6 -32.95 123.2 L-20.95 129.8 -18.8 131.3 -16.3 133.8 Q-8.95 145.85 -24.55 151.2 -32.0 153.15 -41.2 149.2 -43.2 147.45 -29.2 147.7 L-26.3 146.8 -24.2 145.55 Q-19.8 141.8 -26.95 135.55 L-38.3 128.05 -69.8 113.7 -72.2 112.05 -74.3 109.45 -74.95 107.45 -74.95 106.45 -74.2 104.55 Q-61.7 98.75 -60.2 94.7 L-58.8 90.8 Q-58.45 88.75 -59.55 85.95 L-63.05 80.95 -66.05 77.95 -86.55 63.8 -92.55 59.05 Q-100.25 52.8 -104.2 41.55 -108.7 29.8 -102.7 16.05 -97.95 4.3 -82.2 -4.95 -71.25 -12.0 -41.05 -18.3 -28.45 -21.5 2.7 -18.45 25.45 -16.1 50.7 -5.2" fill="#ffffff" fill-rule="evenodd" stroke="none"/>
  </g>
</svg>
