<?xml version="1.0" encoding="UTF-8" standalone="no"?>
<svg xmlns:xlink="http://www.w3.org/1999/xlink" height="175.55px" width="191.65px" xmlns="http://www.w3.org/2000/svg">
  <g transform="matrix(1.0, 0.0, 0.0, 1.0, 104.9, 28.35)">
    <path d="M56.45 28.3 L55.3 29.55 54.45 32.55 54.7 33.8 56.05 35.3 57.3 35.8 59.3 35.7 59.95 35.3 Q65.7 31.5 60.45 27.45 L58.05 27.55 56.45 28.3 M74.45 35.3 Q68.35 47.7 56.05 47.55 44.55 46.9 43.55 35.3 43.45 28.5 48.3 22.45 64.5 7.65 73.95 22.45 76.95 28.0 74.45 35.3 M1.8 35.3 Q1.1 28.5 5.7 22.45 13.05 13.0 22.95 13.3 33.2 15.25 34.45 22.45 36.6 26.5 32.05 35.3 26.55 44.0 14.05 44.95 3.95 44.75 1.8 35.3 M14.8 32.95 Q20.45 34.45 22.05 29.95 23.05 24.5 18.05 25.3 11.45 28.25 14.8 32.95 M36.2 50.3 Q28.65 60.75 25.2 48.95 30.45 54.75 36.2 50.3" fill="#000000" fill-rule="evenodd" stroke="none"/>
    <path d="M56.45 28.3 L58.05 27.55 60.45 27.45 Q65.7 31.5 59.95 35.3 L59.3 35.7 57.3 35.8 56.05 35.3 54.7 33.8 54.45 32.55 55.3 29.55 56.45 28.3 M74.45 35.3 Q76.95 28.0 73.95 22.45 64.5 7.65 48.3 22.45 43.45 28.5 43.55 35.3 44.55 46.9 56.05 47.55 68.35 47.7 74.45 35.3 M74.2 45.45 Q66.85 54.0 31.3 69.3 L19.55 74.2 -10.8 85.8 -36.2 94.3 Q-49.4 98.75 -57.8 100.45 L-60.3 101.45 -62.8 103.3 Q-64.7 106.6 -57.55 110.7 -35.0 120.55 -25.2 127.45 -19.45 131.25 -21.7 138.3 -25.9 150.5 -51.8 145.95 L-53.2 144.95 -51.45 143.8 -40.8 143.8 Q-35.0 142.8 -33.95 141.8 L-32.05 140.45 -31.45 139.45 -31.2 137.2 -32.7 133.7 Q-38.9 125.55 -77.8 109.45 L-80.7 107.3 -82.2 104.7 -82.2 101.95 -80.05 99.7 Q-68.75 96.3 -64.2 91.45 -59.55 86.25 -61.95 81.3 L-65.05 76.55 -68.05 73.45 Q-72.55 71.1 -88.55 59.05 L-94.55 53.95 -99.7 47.7 Q-103.05 42.1 -103.95 37.3 -106.95 25.35 -100.45 12.7 -94.45 -0.2 -77.95 -10.55 -55.95 -22.95 -29.45 -27.3 -11.4 -29.8 12.95 -26.3 34.25 -23.9 60.8 -11.2 77.6 -3.35 85.7 14.55 90.45 30.85 74.2 45.45 M1.8 35.3 Q3.95 44.75 14.05 44.95 26.55 44.0 32.05 35.3 36.6 26.5 34.45 22.45 33.2 15.25 22.95 13.3 13.05 13.0 5.7 22.45 1.1 28.5 1.8 35.3 M36.2 50.3 Q30.45 54.75 25.2 48.95 28.65 60.75 36.2 50.3 M14.8 32.95 Q11.45 28.25 18.05 25.3 23.05 24.5 22.05 29.95 20.45 34.45 14.8 32.95" fill="#ffffff" fill-rule="evenodd" stroke="none"/>
  </g>
</svg>
