<?xml version="1.0" encoding="UTF-8" standalone="no"?>
<svg xmlns:xlink="http://www.w3.org/1999/xlink" height="192.9px" width="202.45px" xmlns="http://www.w3.org/2000/svg">
  <g transform="matrix(1.0, 0.0, 0.0, 1.0, 102.3, 48.95)">
    <path d="M55.8 9.55 Q58.35 -0.4 69.2 -0.55 77.7 0.35 82.7 9.55 L85.2 15.45 Q86.25 18.9 86.05 22.45 86.75 28.25 81.7 35.3 77.0 40.3 70.55 39.3 L66.55 38.2 Q64.1 37.1 62.45 35.3 57.25 30.75 55.3 22.45 L54.7 17.05 Q54.6 13.55 55.8 9.55 M72.45 23.55 L72.95 22.45 Q74.35 16.0 69.05 14.3 63.05 15.0 66.05 22.45 L66.95 23.7 68.8 24.7 71.45 24.45 72.45 23.55 M54.3 43.45 L54.45 45.8 53.45 48.2 Q48.7 51.95 46.45 48.2 L43.95 44.8 43.2 42.95 43.45 42.7 46.05 45.2 Q53.2 48.3 54.3 43.45 M14.7 9.55 Q17.95 -1.55 29.2 -1.2 37.05 -0.35 42.45 9.55 L44.55 15.2 Q45.5 19.05 45.2 22.45 45.25 29.25 39.05 35.3 27.85 41.05 21.95 35.3 16.8 32.25 14.2 22.45 13.5 20.85 13.55 15.55 L14.7 9.55 M28.95 13.55 Q22.3 14.1 26.2 22.45 27.5 25.2 32.05 22.45 34.85 16.35 28.95 13.55" fill="#000000" fill-rule="evenodd" stroke="none"/>
    <path d="M55.8 9.55 Q54.6 13.55 54.7 17.05 L55.3 22.45 Q57.25 30.75 62.45 35.3 64.1 37.1 66.55 38.2 L70.55 39.3 Q77.0 40.3 81.7 35.3 86.75 28.25 86.05 22.45 86.25 18.9 85.2 15.45 L82.7 9.55 Q77.7 0.35 69.2 -0.55 58.35 -0.4 55.8 9.55 M72.45 23.55 L71.45 24.45 68.8 24.7 66.95 23.7 66.05 22.45 Q63.05 15.0 69.05 14.3 74.35 16.0 72.95 22.45 L72.45 23.55 M54.3 43.45 Q53.2 48.3 46.05 45.2 L43.45 42.7 43.2 42.95 43.95 44.8 46.45 48.2 Q48.7 51.95 53.45 48.2 L54.45 45.8 54.3 43.45 M89.55 -12.55 Q105.25 4.25 97.7 24.8 87.8 46.7 50.95 62.55 39.2 68.1 25.45 73.45 L0.05 82.45 Q-39.2 94.1 -58.45 97.05 L-61.3 98.05 -63.55 99.55 -64.2 100.95 Q-64.55 102.4 -62.45 104.45 L-59.55 106.55 Q-17.5 124.9 -20.2 130.8 -19.8 138.3 -35.45 142.8 -56.9 145.85 -65.55 140.7 L-63.95 139.8 -62.7 139.7 -48.2 140.3 -40.95 139.3 Q-32.0 136.0 -34.3 132.95 L-34.45 132.8 Q-36.4 128.85 -38.55 127.7 L-48.45 120.95 -83.2 104.95 Q-86.0 103.05 -86.55 101.7 -88.05 98.55 -84.05 95.45 L-70.8 91.55 Q-63.8 88.55 -61.3 86.05 L-58.05 81.95 -57.45 79.05 -57.55 77.95 -58.8 74.8 -62.2 70.05 -64.95 67.55 Q-92.65 49.9 -98.05 38.8 -106.25 23.25 -98.7 1.45 -86.65 -30.7 -47.3 -43.8 -20.05 -55.0 34.2 -41.95 69.5 -32.9 89.55 -12.55 M14.7 9.55 L13.55 15.55 Q13.5 20.85 14.2 22.45 16.8 32.25 21.95 35.3 27.85 41.05 39.05 35.3 45.25 29.25 45.2 22.45 45.5 19.05 44.55 15.2 L42.45 9.55 Q37.05 -0.35 29.2 -1.2 17.95 -1.55 14.7 9.55 M28.95 13.55 Q34.85 16.35 32.05 22.45 27.5 25.2 26.2 22.45 22.3 14.1 28.95 13.55" fill="#ffffff" fill-rule="evenodd" stroke="none"/>
  </g>
</svg>
