<?xml version="1.0" encoding="UTF-8" standalone="no"?>
<svg xmlns:xlink="http://www.w3.org/1999/xlink" height="203.75px" width="208.8px" xmlns="http://www.w3.org/2000/svg">
  <g transform="matrix(1.0, 0.0, 0.0, 1.0, 103.3, 58.6)">
    <path d="M81.2 -3.3 L84.45 1.2 Q85.95 3.25 87.45 9.55 L87.8 15.55 Q87.7 19.1 86.55 22.45 82.6 33.95 71.95 32.95 62.6 30.9 58.55 22.45 55.1 17.1 54.95 9.55 L55.55 3.55 Q57.5 -2.25 58.7 -3.3 62.85 -9.2 71.3 -8.55 73.45 -8.5 77.05 -6.7 L81.2 -3.3 M65.7 9.55 Q65.25 16.6 69.55 17.45 76.1 16.6 73.45 9.55 69.05 3.55 65.7 9.55 M38.8 -3.3 L42.45 2.45 Q44.05 5.85 44.7 9.55 L45.05 15.8 Q44.7 20.75 43.8 22.45 40.1 33.0 30.2 32.3 20.75 30.75 16.55 22.45 L13.95 17.2 Q12.2 11.75 12.45 9.55 12.05 1.75 15.2 -3.3 18.85 -9.9 27.3 -9.7 32.05 -10.15 38.8 -3.3 M55.95 37.55 L56.3 38.7 56.3 41.05 55.55 43.45 Q50.35 48.3 44.95 37.2 L47.55 39.45 Q55.6 43.1 55.95 37.55 M23.55 9.55 Q23.55 15.5 27.55 16.7 33.0 17.75 31.7 9.55 L30.7 7.55 29.3 6.3 27.95 5.8 Q23.85 5.45 23.55 9.55" fill="#000000" fill-rule="evenodd" stroke="none"/>
    <path d="M13.3 -56.05 Q34.2 -53.75 66.55 -40.2 88.3 -29.85 99.05 -14.45 109.7 -1.0 102.8 20.2 98.25 30.95 86.95 40.7 L76.3 48.55 Q62.8 56.85 53.3 61.45 L35.2 69.8 Q15.25 78.1 4.05 81.7 L-11.8 86.55 -33.3 92.05 Q-38.2 93.55 -53.55 96.05 L-56.55 96.95 -59.45 98.3 -60.8 99.95 -60.8 101.45 -58.8 104.05 -54.95 106.95 Q-20.3 122.5 -17.2 126.3 -10.25 130.55 -17.05 138.3 -34.4 150.45 -64.45 141.05 -61.2 139.5 -42.95 141.2 L-35.05 140.05 Q-26.8 138.0 -30.05 132.2 -29.15 132.3 -34.45 127.95 L-43.8 121.55 -67.2 111.05 -82.05 103.8 -83.2 103.05 -84.7 101.05 -85.05 97.95 -82.95 95.2 Q-53.5 88.05 -53.8 77.45 -54.45 72.15 -61.05 65.95 -90.0 46.05 -91.7 42.7 -99.0 35.65 -102.05 21.7 -106.15 8.1 -96.95 -15.7 -92.8 -27.75 -76.2 -40.55 -60.9 -51.75 -35.8 -57.2 -16.65 -60.5 13.3 -56.05 M81.2 -3.3 L77.05 -6.7 Q73.45 -8.5 71.3 -8.55 62.85 -9.2 58.7 -3.3 57.5 -2.25 55.55 3.55 L54.95 9.55 Q55.1 17.1 58.55 22.45 62.6 30.9 71.95 32.95 82.6 33.95 86.55 22.45 87.7 19.1 87.8 15.55 L87.45 9.55 Q85.95 3.25 84.45 1.2 L81.2 -3.3 M65.7 9.55 Q69.05 3.55 73.45 9.55 76.1 16.6 69.55 17.45 65.25 16.6 65.7 9.55 M55.95 37.55 Q55.6 43.1 47.55 39.45 L44.95 37.2 Q50.35 48.3 55.55 43.45 L56.3 41.05 56.3 38.7 55.95 37.55 M38.8 -3.3 Q32.05 -10.15 27.3 -9.7 18.85 -9.9 15.2 -3.3 12.05 1.75 12.45 9.55 12.2 11.75 13.95 17.2 L16.55 22.45 Q20.75 30.75 30.2 32.3 40.1 33.0 43.8 22.45 44.7 20.75 45.05 15.8 L44.7 9.55 Q44.05 5.85 42.45 2.45 L38.8 -3.3 M23.55 9.55 Q23.85 5.45 27.95 5.8 L29.3 6.3 30.7 7.55 31.7 9.55 Q33.0 17.75 27.55 16.7 23.55 15.5 23.55 9.55" fill="#ffffff" fill-rule="evenodd" stroke="none"/>
  </g>
</svg>
