<?xml version="1.0" encoding="UTF-8" standalone="no"?>
<svg xmlns:xlink="http://www.w3.org/1999/xlink" height="215.6px" width="216.75px" xmlns="http://www.w3.org/2000/svg">
  <g transform="matrix(1.0, 0.0, 0.0, 1.0, 105.2, 67.55)">
    <path d="M56.95 9.55 Q56.1 4.05 56.55 2.55 L58.05 -3.3 Q63.6 -16.05 75.95 -15.3 86.25 -13.85 90.3 -3.3 L91.8 3.05 Q92.0 8.55 91.45 9.55 91.05 15.6 84.7 22.45 73.45 30.7 64.2 22.45 58.8 17.85 56.95 9.55 M69.3 9.55 Q71.25 12.05 75.45 9.55 79.6 3.1 73.05 -0.05 65.45 0.1 69.3 9.55 M22.3 -16.2 Q24.3 -17.05 29.3 -16.95 L32.8 -16.2 Q41.05 -13.15 44.3 -3.3 45.1 -2.0 45.7 3.55 L45.2 9.55 Q44.3 17.1 38.45 22.45 26.55 28.7 20.7 22.45 14.5 18.1 12.05 9.55 9.8 3.0 11.55 -3.3 14.7 -13.9 22.3 -16.2 M55.45 31.2 L55.8 32.3 55.55 35.3 Q53.0 42.55 46.7 35.3 L44.55 32.3 44.45 32.2 43.7 30.7 43.95 30.55 Q45.85 32.9 47.05 33.3 L50.05 34.55 Q54.35 35.5 55.45 31.2 M27.95 9.55 Q32.1 8.75 31.55 3.2 30.0 -1.95 26.7 -1.55 22.8 -1.55 22.45 3.95 22.7 9.35 27.95 9.55" fill="#000000" fill-rule="evenodd" stroke="none"/>
    <path d="M10.05 -65.7 Q29.45 -63.9 60.8 -52.8 101.0 -38.45 110.95 -6.55 115.95 21.25 78.45 46.3 62.7 57.5 22.45 74.95 L-1.3 83.7 -28.55 91.45 Q-35.9 93.5 -49.45 95.8 L-53.55 97.3 -55.7 99.05 Q-58.3 101.0 -50.45 106.7 -22.65 119.05 -9.55 127.45 -2.05 134.0 -5.55 138.3 -7.8 144.45 -24.55 147.55 -42.75 149.6 -58.2 143.45 L-56.05 142.55 Q-38.15 144.8 -28.45 143.05 -18.0 139.7 -20.8 136.3 -22.65 132.4 -23.2 132.55 L-35.7 123.7 -41.05 120.95 Q-66.15 110.15 -76.45 104.95 L-79.05 103.3 -80.8 101.7 -81.7 98.7 -80.45 95.55 -78.2 93.95 -64.95 90.2 -57.8 86.7 Q-49.5 81.5 -50.45 75.05 -52.0 69.35 -59.3 62.95 -88.7 43.25 -91.55 38.8 -99.5 31.05 -103.2 17.3 L-104.45 11.45 Q-108.65 -14.7 -90.05 -39.3 -72.75 -58.7 -32.7 -66.55 L-16.95 -67.55 Q-6.7 -67.75 10.05 -65.7 M56.95 9.55 Q58.8 17.85 64.2 22.45 73.45 30.7 84.7 22.45 91.05 15.6 91.45 9.55 92.0 8.55 91.8 3.05 L90.3 -3.3 Q86.25 -13.85 75.95 -15.3 63.6 -16.05 58.05 -3.3 L56.55 2.55 Q56.1 4.05 56.95 9.55 M69.3 9.55 Q65.45 0.1 73.05 -0.05 79.6 3.1 75.45 9.55 71.25 12.05 69.3 9.55 M55.45 31.2 Q54.35 35.5 50.05 34.55 L47.05 33.3 Q45.85 32.9 43.95 30.55 L43.7 30.7 44.45 32.2 44.55 32.3 46.7 35.3 Q53.0 42.55 55.55 35.3 L55.8 32.3 55.45 31.2 M22.3 -16.2 Q14.7 -13.9 11.55 -3.3 9.8 3.0 12.05 9.55 14.5 18.1 20.7 22.45 26.55 28.7 38.45 22.45 44.3 17.1 45.2 9.55 L45.7 3.55 Q45.1 -2.0 44.3 -3.3 41.05 -13.15 32.8 -16.2 L29.3 -16.95 Q24.3 -17.05 22.3 -16.2 M27.95 9.55 Q22.7 9.35 22.45 3.95 22.8 -1.55 26.7 -1.55 30.0 -1.95 31.55 3.2 32.1 8.75 27.95 9.55" fill="#ffffff" fill-rule="evenodd" stroke="none"/>
  </g>
</svg>
