<?xml version="1.0" encoding="UTF-8" standalone="no"?>
<svg xmlns:xlink="http://www.w3.org/1999/xlink" height="228.05px" width="225.6px" xmlns="http://www.w3.org/2000/svg">
  <g transform="matrix(1.0, 0.0, 0.0, 1.0, 108.45, 76.2)">
    <path d="M95.2 -11.05 Q97.05 -7.2 97.45 -3.3 L97.55 2.05 Q97.05 6.8 95.55 9.55 89.1 22.7 76.95 21.3 67.35 20.4 62.55 9.55 60.1 5.0 60.95 -3.3 62.05 -11.4 66.7 -16.2 71.7 -22.4 81.2 -21.8 86.6 -21.4 91.8 -16.2 L95.2 -11.05 M81.7 -3.3 Q79.3 -8.35 73.45 -3.3 71.55 4.3 76.7 5.45 84.2 5.3 81.7 -3.3 M17.05 -16.2 Q22.85 -24.05 32.45 -23.45 40.3 -22.6 44.7 -16.2 L47.2 -12.05 Q48.95 -7.7 49.2 -3.3 L48.95 1.8 Q48.6 4.7 46.05 9.55 39.25 20.5 29.2 19.7 20.45 19.5 14.7 9.55 12.8 5.8 12.45 3.05 L12.2 -3.3 Q12.5 -9.9 17.05 -16.2 M56.95 25.55 L57.2 27.2 56.55 30.05 Q51.1 38.4 44.45 24.8 L46.55 26.95 49.05 28.3 Q55.6 30.45 56.95 25.55 M28.55 3.7 Q35.25 3.7 34.7 -3.3 30.5 -11.6 25.05 -3.3 24.3 2.65 28.55 3.7" fill="#000000" fill-rule="evenodd" stroke="none"/>
    <path d="M74.8 -56.7 Q114.7 -37.75 117.05 -8.05 119.25 16.25 81.2 42.8 60.2 57.2 21.2 74.55 -0.15 84.75 -44.7 95.2 L-48.45 96.55 -50.05 97.45 -51.05 98.55 -51.7 99.8 -51.55 100.95 -49.45 104.05 -45.45 106.95 Q-31.4 114.35 -19.55 119.05 L-4.55 127.05 -0.95 129.45 2.95 133.2 Q6.5 137.25 3.3 143.05 -1.0 149.0 -14.05 151.2 -30.25 153.55 -48.2 147.45 L-48.8 146.7 -46.05 145.95 Q-30.95 148.35 -17.3 146.05 -8.3 144.3 -12.8 136.55 L-18.05 132.05 -29.2 124.8 -55.45 113.05 -72.8 104.8 -75.05 103.45 -77.3 100.55 -77.8 97.7 -75.45 94.05 Q-59.2 90.35 -50.95 82.45 L-48.45 78.45 Q-47.3 75.25 -48.2 72.8 L-50.55 68.2 Q-52.95 64.65 -56.8 61.2 -61.15 58.4 -65.55 55.55 -88.45 39.35 -89.3 37.95 L-92.8 34.55 Q-100.8 26.85 -105.3 13.45 L-107.05 7.05 -108.45 -2.8 Q-108.4 -34.9 -87.55 -52.2 -57.15 -75.7 -14.95 -76.2 36.2 -74.7 74.8 -56.7 M95.2 -11.05 L91.8 -16.2 Q86.6 -21.4 81.2 -21.8 71.7 -22.4 66.7 -16.2 62.05 -11.4 60.95 -3.3 60.1 5.0 62.55 9.55 67.35 20.4 76.95 21.3 89.1 22.7 95.55 9.55 97.05 6.8 97.55 2.05 L97.45 -3.3 Q97.05 -7.2 95.2 -11.05 M81.7 -3.3 Q84.2 5.3 76.7 5.45 71.55 4.3 73.45 -3.3 79.3 -8.35 81.7 -3.3 M56.95 25.55 Q55.6 30.45 49.05 28.3 L46.55 26.95 44.45 24.8 Q51.1 38.4 56.55 30.05 L57.2 27.2 56.95 25.55 M17.05 -16.2 Q12.5 -9.9 12.2 -3.3 L12.45 3.05 Q12.8 5.8 14.7 9.55 20.45 19.5 29.2 19.7 39.25 20.5 46.05 9.55 48.6 4.7 48.95 1.8 L49.2 -3.3 Q48.95 -7.7 47.2 -12.05 L44.7 -16.2 Q40.3 -22.6 32.45 -23.45 22.85 -24.05 17.05 -16.2 M28.55 3.7 Q24.3 2.65 25.05 -3.3 30.5 -11.6 34.7 -3.3 35.25 3.7 28.55 3.7" fill="#ffffff" fill-rule="evenodd" stroke="none"/>
  </g>
</svg>
