<?xml version="1.0" encoding="UTF-8" standalone="no"?>
<svg xmlns:xlink="http://www.w3.org/1999/xlink" height="239.6px" width="235.15px" xmlns="http://www.w3.org/2000/svg">
  <g transform="matrix(1.0, 0.0, 0.0, 1.0, 112.25, 84.55)">
    <path d="M100.95 -16.2 L102.55 -11.05 Q103.35 -7.95 102.95 -3.3 L101.95 2.05 Q100.45 6.8 97.95 9.55 94.25 16.2 82.8 16.8 74.75 16.15 69.95 9.55 66.45 6.25 64.95 -3.3 L65.05 -9.55 66.95 -16.2 Q73.0 -28.95 85.8 -28.2 96.25 -26.7 100.95 -16.2 M86.95 -3.3 Q88.6 -9.7 83.05 -11.55 76.25 -11.7 77.7 -3.3 L79.2 -0.95 81.2 0.05 84.3 -0.2 Q86.0 -0.9 86.95 -3.3 M39.2 -29.05 Q45.05 -28.75 51.45 -16.2 L52.7 -11.55 Q53.15 -11.7 52.7 -3.3 L51.05 2.55 Q49.35 6.8 46.45 9.55 32.1 20.8 21.05 9.55 16.6 5.25 14.95 -3.3 L14.7 -9.2 16.2 -16.2 Q20.05 -26.25 28.45 -29.05 31.45 -30.2 35.95 -29.8 L39.2 -29.05 M60.8 22.45 L61.3 21.3 61.7 21.3 61.95 22.45 Q61.0 29.8 56.3 29.2 52.3 28.8 49.3 22.45 L48.55 20.7 48.95 20.55 50.7 22.45 Q56.6 27.45 60.8 22.45 M31.7 -1.55 L34.7 -1.8 36.55 -3.3 Q40.0 -11.15 33.7 -13.2 25.7 -13.15 29.2 -3.3 L30.2 -2.2 31.7 -1.55" fill="#000000" fill-rule="evenodd" stroke="none"/>
    <path d="M66.45 -69.8 Q111.45 -54.0 121.95 -20.95 128.55 6.0 90.2 34.7 67.2 50.8 28.2 69.45 L17.7 74.2 Q9.9 77.4 2.05 80.55 -36.45 94.05 -43.45 94.55 L-47.8 97.05 Q-51.4 101.15 -41.7 106.8 -12.95 119.65 2.3 128.55 L4.95 130.3 8.55 133.55 Q17.25 141.75 3.7 151.2 -12.75 159.25 -39.45 150.55 L-39.7 150.2 -39.45 149.7 -35.95 149.05 Q-14.05 151.55 -8.7 148.55 L-7.7 148.2 -4.05 145.3 -3.7 142.7 -5.3 138.95 Q-7.0 135.6 -25.95 124.55 L-48.7 114.55 -70.2 104.45 -71.45 103.7 -73.8 101.2 -75.05 98.8 Q-75.65 96.95 -74.45 94.55 L-71.7 92.3 Q-59.15 88.55 -58.8 87.8 L-51.8 83.05 Q-46.2 78.5 -47.05 71.2 -48.65 66.85 -50.95 64.3 L-56.3 58.55 Q-89.8 35.9 -93.3 31.8 -100.95 25.9 -108.05 9.55 L-109.7 4.45 -111.45 -3.2 Q-115.65 -28.05 -97.55 -52.45 -91.95 -60.0 -74.3 -69.8 -59.4 -78.2 -34.7 -83.05 -21.95 -86.0 9.8 -83.2 33.5 -81.15 66.45 -69.8 M100.95 -16.2 Q96.25 -26.7 85.8 -28.2 73.0 -28.95 66.95 -16.2 L65.05 -9.55 64.95 -3.3 Q66.45 6.25 69.95 9.55 74.75 16.15 82.8 16.8 94.25 16.2 97.95 9.55 100.45 6.8 101.95 2.05 L102.95 -3.3 Q103.35 -7.95 102.55 -11.05 L100.95 -16.2 M86.95 -3.3 Q86.0 -0.9 84.3 -0.2 L81.2 0.05 79.2 -0.95 77.7 -3.3 Q76.25 -11.7 83.05 -11.55 88.6 -9.7 86.95 -3.3 M60.8 22.45 Q56.6 27.45 50.7 22.45 L48.95 20.55 48.55 20.7 49.3 22.45 Q52.3 28.8 56.3 29.2 61.0 29.8 61.95 22.45 L61.7 21.3 61.3 21.3 60.8 22.45 M39.2 -29.05 L35.95 -29.8 Q31.45 -30.2 28.45 -29.05 20.05 -26.25 16.2 -16.2 L14.7 -9.2 14.95 -3.3 Q16.6 5.25 21.05 9.55 32.1 20.8 46.45 9.55 49.35 6.8 51.05 2.55 L52.7 -3.3 Q53.15 -11.7 52.7 -11.55 L51.45 -16.2 Q45.05 -28.75 39.2 -29.05 M31.7 -1.55 L30.2 -2.2 29.2 -3.3 Q25.7 -13.15 33.7 -13.2 40.0 -11.15 36.55 -3.3 L34.7 -1.8 31.7 -1.55" fill="#ffffff" fill-rule="evenodd" stroke="none"/>
  </g>
</svg>
