<?xml version="1.0" encoding="UTF-8" standalone="no"?>
<svg xmlns:xlink="http://www.w3.org/1999/xlink" height="249.35px" width="243.55px" xmlns="http://www.w3.org/2000/svg">
  <g transform="matrix(1.0, 0.0, 0.0, 1.0, 114.8, 92.75)">
    <path d="M101.3 -29.05 L104.7 -24.7 Q106.6 -21.7 107.8 -16.2 108.55 -13.75 108.3 -9.05 L107.2 -3.3 Q105.85 3.5 97.8 9.55 84.6 14.8 79.2 9.55 72.55 5.5 69.95 -3.3 68.8 -6.25 68.7 -9.95 L69.2 -16.2 Q71.35 -25.25 75.8 -29.05 89.3 -39.85 101.3 -29.05 M83.8 -16.2 Q78.8 -8.0 85.8 -5.05 95.55 -6.75 89.8 -16.2 L87.95 -17.05 Q84.75 -17.25 83.8 -16.2 M64.7 22.45 Q59.2 27.7 55.7 22.45 L53.05 18.8 51.95 16.3 52.2 16.05 54.05 18.2 55.7 19.2 Q63.0 23.05 65.55 16.95 L65.7 19.55 64.7 22.45 M54.3 -23.45 Q56.6 -16.6 56.2 -16.2 L56.3 -9.55 54.7 -3.3 Q51.85 5.75 42.3 9.55 41.95 10.3 35.55 10.55 L30.95 9.55 Q22.35 6.75 18.55 -3.3 17.1 -7.15 16.95 -10.2 L17.05 -16.2 Q18.6 -25.0 22.45 -29.05 30.75 -37.55 38.3 -36.05 47.5 -34.35 50.95 -29.05 L54.3 -23.45 M40.05 -16.2 Q37.5 -21.45 31.2 -16.2 28.5 -8.95 35.05 -6.7 42.3 -6.7 40.05 -16.2" fill="#000000" fill-rule="evenodd" stroke="none"/>
    <path d="M-8.2 -92.7 Q17.85 -91.85 42.2 -85.95 74.85 -77.6 90.8 -68.2 130.35 -45.35 128.7 -17.45 129.75 7.0 87.05 35.2 L61.8 49.8 Q56.85 52.95 25.2 68.05 L0.05 78.7 Q-27.5 89.05 -43.8 92.95 L-47.2 95.05 -48.45 97.95 -47.2 100.3 -45.8 102.05 -41.95 105.05 -29.95 111.3 Q-15.0 117.35 -2.3 124.2 L7.45 130.3 Q10.0 132.15 12.3 135.55 17.5 147.0 3.95 153.7 -4.05 157.6 -19.55 156.3 -48.4 149.85 -21.95 151.2 L-18.3 151.55 -13.2 151.2 Q-0.05 149.55 -0.95 143.95 -1.8 138.55 -6.2 135.7 L-21.7 125.45 -66.8 104.95 Q-72.2 102.55 -74.05 99.2 -75.65 95.35 -74.95 94.3 L-72.55 91.05 Q-54.7 85.35 -50.8 78.95 -46.25 74.25 -48.45 66.8 L-50.95 62.55 -57.3 55.45 -60.3 53.05 Q-98.8 27.6 -99.3 23.95 -112.05 10.6 -114.8 -12.95 -114.75 -50.05 -89.95 -68.2 -53.55 -93.95 -8.2 -92.7 M101.3 -29.05 Q89.3 -39.85 75.8 -29.05 71.35 -25.25 69.2 -16.2 L68.7 -9.95 Q68.8 -6.25 69.95 -3.3 72.55 5.5 79.2 9.55 84.6 14.8 97.8 9.55 105.85 3.5 107.2 -3.3 L108.3 -9.05 Q108.55 -13.75 107.8 -16.2 106.6 -21.7 104.7 -24.7 L101.3 -29.05 M83.8 -16.2 Q84.75 -17.25 87.95 -17.05 L89.8 -16.2 Q95.55 -6.75 85.8 -5.05 78.8 -8.0 83.8 -16.2 M54.3 -23.45 L50.95 -29.05 Q47.5 -34.35 38.3 -36.05 30.75 -37.55 22.45 -29.05 18.6 -25.0 17.05 -16.2 L16.95 -10.2 Q17.1 -7.15 18.55 -3.3 22.35 6.75 30.95 9.55 L35.55 10.55 Q41.95 10.3 42.3 9.55 51.85 5.75 54.7 -3.3 L56.3 -9.55 56.2 -16.2 Q56.6 -16.6 54.3 -23.45 M64.7 22.45 L65.7 19.55 65.55 16.95 Q63.0 23.05 55.7 19.2 L54.05 18.2 52.2 16.05 51.95 16.3 53.05 18.8 55.7 22.45 Q59.2 27.7 64.7 22.45 M40.05 -16.2 Q42.3 -6.7 35.05 -6.7 28.5 -8.95 31.2 -16.2 37.5 -21.45 40.05 -16.2" fill="#ffffff" fill-rule="evenodd" stroke="none"/>
  </g>
</svg>
