<?xml version="1.0" encoding="UTF-8" standalone="no"?>
<svg xmlns:xlink="http://www.w3.org/1999/xlink" height="256.35px" width="252.95px" xmlns="http://www.w3.org/2000/svg">
  <g transform="matrix(1.0, 0.0, 0.0, 1.0, 118.5, 100.65)">
    <path d="M36.7 -41.95 L42.05 -41.95 Q50.05 -42.15 57.55 -29.05 L59.3 -23.55 Q60.05 -20.25 59.8 -16.2 L58.7 -9.95 Q56.75 -4.5 55.55 -3.3 47.5 7.5 37.7 6.05 28.2 5.0 23.2 -3.3 21.05 -6.35 19.95 -10.3 L18.95 -16.2 Q18.7 -20.45 19.45 -23.7 L21.2 -29.05 Q26.7 -40.65 36.7 -41.95 M110.3 -29.05 L112.2 -24.55 Q113.3 -21.5 113.45 -16.2 L112.8 -10.45 Q112.1 -6.75 110.2 -3.3 103.6 8.6 91.3 7.8 82.35 7.6 75.7 -3.3 L73.45 -8.95 Q72.2 -14.35 72.45 -16.2 L73.2 -22.55 75.55 -29.05 Q82.1 -40.95 94.45 -40.3 103.5 -40.2 110.3 -29.05 M85.8 -16.2 Q85.95 -10.6 91.05 -9.95 96.55 -10.55 96.55 -16.2 96.7 -21.1 92.3 -22.45 87.05 -23.8 85.8 -16.2 M58.05 14.45 L61.05 15.95 Q66.5 18.3 69.2 12.7 L69.45 14.8 68.8 17.45 Q61.85 26.75 55.2 11.8 L58.05 14.45 M43.45 -16.2 Q44.95 -21.7 39.45 -24.2 32.8 -25.2 33.2 -16.2 38.05 -7.2 43.45 -16.2" fill="#000000" fill-rule="evenodd" stroke="none"/>
    <path d="M36.7 -41.95 Q26.7 -40.65 21.2 -29.05 L19.45 -23.7 Q18.7 -20.45 18.95 -16.2 L19.95 -10.3 Q21.05 -6.35 23.2 -3.3 28.2 5.0 37.7 6.05 47.5 7.5 55.55 -3.3 56.75 -4.5 58.7 -9.95 L59.8 -16.2 Q60.05 -20.25 59.3 -23.55 L57.55 -29.05 Q50.05 -42.15 42.05 -41.95 L36.7 -41.95 M23.2 -97.8 Q53.45 -93.25 80.2 -82.45 127.75 -62.95 134.05 -29.45 138.1 -2.95 100.95 24.55 L94.2 29.05 75.8 39.95 63.3 46.7 35.45 60.45 2.8 74.45 Q-37.9 89.3 -43.8 89.7 L-48.95 92.2 -50.55 95.7 Q-50.05 99.0 -44.55 102.55 -8.8 119.05 2.95 126.55 L7.3 130.05 Q17.8 141.0 3.3 151.2 -7.75 159.5 -35.05 152.55 L-36.2 151.55 -35.3 150.55 -32.2 150.05 -17.55 150.55 -12.05 149.7 -8.3 148.55 Q-0.5 146.55 -4.95 137.55 -7.0 134.85 -9.8 132.95 L-24.05 123.55 -48.8 112.45 -71.8 101.55 -74.3 99.8 -76.2 97.7 Q-79.65 94.35 -75.3 88.8 -57.2 83.2 -51.55 74.05 -48.25 66.1 -50.7 62.95 L-54.2 57.55 -58.8 52.45 Q-97.8 25.65 -99.3 22.95 -107.45 16.6 -114.55 -0.45 L-117.55 -12.3 Q-122.7 -39.75 -99.3 -68.45 -91.05 -77.45 -71.8 -86.95 -56.7 -94.95 -30.55 -99.45 -16.7 -102.5 23.2 -97.8 M110.3 -29.05 Q103.5 -40.2 94.45 -40.3 82.1 -40.95 75.55 -29.05 L73.2 -22.55 72.45 -16.2 Q72.2 -14.35 73.45 -8.95 L75.7 -3.3 Q82.35 7.6 91.3 7.8 103.6 8.6 110.2 -3.3 112.1 -6.75 112.8 -10.45 L113.45 -16.2 Q113.3 -21.5 112.2 -24.55 L110.3 -29.05 M85.8 -16.2 Q87.05 -23.8 92.3 -22.45 96.7 -21.1 96.55 -16.2 96.55 -10.55 91.05 -9.95 85.95 -10.6 85.8 -16.2 M58.05 14.45 L55.2 11.8 Q61.85 26.75 68.8 17.45 L69.45 14.8 69.2 12.7 Q66.5 18.3 61.05 15.95 L58.05 14.45 M43.45 -16.2 Q38.05 -7.2 33.2 -16.2 32.8 -25.2 39.45 -24.2 44.95 -21.7 43.45 -16.2" fill="#ffffff" fill-rule="evenodd" stroke="none"/>
  </g>
</svg>
