<?xml version="1.0" encoding="UTF-8" standalone="no"?>
<svg xmlns:xlink="http://www.w3.org/1999/xlink" height="261.5px" width="261.1px" xmlns="http://www.w3.org/2000/svg">
  <g transform="matrix(1.0, 0.0, 0.0, 1.0, 121.3, 108.2)">
    <path d="M28.2 -41.95 Q44.4 -53.7 55.7 -41.95 60.3 -37.65 62.45 -29.05 63.1 -27.15 63.05 -21.45 L62.2 -16.2 Q59.6 -6.9 54.8 -3.3 39.2 6.95 29.05 -3.3 23.25 -9.15 21.7 -16.2 L20.95 -20.8 Q20.6 -25.95 21.55 -29.05 L23.55 -35.2 Q26.25 -40.3 28.2 -41.95 M99.45 -45.95 L104.95 -44.45 108.95 -41.95 Q115.05 -36.9 117.2 -29.05 L118.2 -23.95 Q118.35 -17.05 117.8 -16.2 L116.05 -10.05 Q113.2 -4.2 111.8 -3.3 106.5 4.0 94.95 3.55 85.85 1.75 82.55 -3.3 77.8 -8.65 76.55 -16.2 L76.05 -21.8 Q76.25 -26.45 77.2 -29.05 79.3 -36.9 85.45 -41.95 92.45 -46.95 99.45 -45.95 M94.45 -27.55 L92.8 -27.05 90.55 -24.7 Q88.7 -19.2 91.8 -16.2 93.0 -13.45 98.95 -16.2 103.6 -24.75 96.55 -27.55 L94.45 -27.55 M71.8 9.55 L72.2 8.7 72.7 8.55 72.95 9.55 Q72.25 17.7 66.8 17.3 62.0 16.4 58.95 9.55 L58.2 8.05 58.45 7.7 60.2 9.55 Q66.85 15.55 71.8 9.55 M43.05 -29.05 L41.7 -29.45 38.7 -29.05 Q37.0 -28.4 36.05 -26.45 L35.3 -22.95 Q35.5 -17.65 39.95 -16.55 43.85 -15.9 46.05 -20.45 47.3 -26.9 43.05 -29.05" fill="#000000" fill-rule="evenodd" stroke="none"/>
    <path d="M33.2 -103.95 Q54.85 -100.9 88.3 -87.55 136.45 -64.95 139.55 -34.3 141.2 -20.7 132.3 -6.05 123.3 8.45 103.3 21.95 L95.05 27.2 77.95 36.95 65.3 43.55 36.45 57.3 7.8 69.3 Q-3.0 73.6 -29.55 82.2 L-47.3 86.95 -52.05 89.2 -53.45 90.55 Q-56.55 94.1 -48.2 99.95 -7.65 118.85 -0.8 124.05 L2.55 126.7 5.55 130.2 Q12.85 142.45 -8.05 151.2 -21.0 155.85 -41.7 150.3 L-43.05 149.05 -41.8 148.05 -36.2 147.55 -23.7 148.05 -17.55 147.05 -13.2 145.7 Q-5.75 143.35 -10.05 134.8 -10.25 133.75 -15.2 129.95 L-28.7 120.95 -58.55 107.45 -76.7 98.7 -80.7 95.05 -81.95 91.55 -81.2 87.55 -77.95 85.05 Q-69.25 82.6 -64.8 79.95 L-59.05 76.2 -56.3 73.7 -52.8 68.45 Q-51.3 62.8 -52.3 61.2 -54.45 54.9 -63.55 46.7 L-72.7 40.95 Q-100.95 21.05 -101.2 19.7 -111.2 11.3 -117.2 -4.05 L-119.3 -11.2 Q-120.9 -17.65 -121.2 -23.3 -122.8 -53.15 -96.45 -79.2 -88.0 -87.55 -62.3 -98.45 -46.65 -105.7 -18.2 -107.95 1.35 -109.2 33.2 -103.95 M99.45 -45.95 Q92.45 -46.95 85.45 -41.95 79.3 -36.9 77.2 -29.05 76.25 -26.45 76.05 -21.8 L76.55 -16.2 Q77.8 -8.65 82.55 -3.3 85.85 1.75 94.95 3.55 106.5 4.0 111.8 -3.3 113.2 -4.2 116.05 -10.05 L117.8 -16.2 Q118.35 -17.05 118.2 -23.95 L117.2 -29.05 Q115.05 -36.9 108.95 -41.95 L104.95 -44.45 99.45 -45.95 M28.2 -41.95 Q26.25 -40.3 23.55 -35.2 L21.55 -29.05 Q20.6 -25.95 20.95 -20.8 L21.7 -16.2 Q23.25 -9.15 29.05 -3.3 39.2 6.95 54.8 -3.3 59.6 -6.9 62.2 -16.2 L63.05 -21.45 Q63.1 -27.15 62.45 -29.05 60.3 -37.65 55.7 -41.95 44.4 -53.7 28.2 -41.95 M94.45 -27.55 L96.55 -27.55 Q103.6 -24.75 98.95 -16.2 93.0 -13.45 91.8 -16.2 88.7 -19.2 90.55 -24.7 L92.8 -27.05 94.45 -27.55 M71.8 9.55 Q66.85 15.55 60.2 9.55 L58.45 7.7 58.2 8.05 58.95 9.55 Q62.0 16.4 66.8 17.3 72.25 17.7 72.95 9.55 L72.7 8.55 72.2 8.7 71.8 9.55 M43.05 -29.05 Q47.3 -26.9 46.05 -20.45 43.85 -15.9 39.95 -16.55 35.5 -17.65 35.3 -22.95 L36.05 -26.45 Q37.0 -28.4 38.7 -29.05 L41.7 -29.45 43.05 -29.05" fill="#ffffff" fill-rule="evenodd" stroke="none"/>
  </g>
</svg>
