<?xml version="1.0" encoding="UTF-8" standalone="no"?>
<svg xmlns:xlink="http://www.w3.org/1999/xlink" height="266.3px" width="268.25px" xmlns="http://www.w3.org/2000/svg">
  <g transform="matrix(1.0, 0.0, 0.0, 1.0, 122.9, 115.3)">
    <path d="M118.05 -41.95 L120.7 -37.2 Q122.7 -31.75 122.7 -29.05 L122.8 -23.2 Q122.6 -19.95 121.2 -16.2 119.1 -8.65 111.3 -3.3 97.2 2.45 91.05 -3.3 85.0 -6.4 81.2 -16.2 L79.7 -22.55 79.7 -29.05 80.95 -35.05 Q81.5 -37.4 84.3 -41.95 89.6 -50.95 102.2 -51.45 112.75 -50.45 118.05 -41.95 M26.45 -41.95 Q32.7 -53.25 44.95 -53.3 55.7 -53.25 62.45 -41.95 L64.95 -36.2 Q65.85 -33.5 66.05 -29.05 L65.95 -24.05 Q65.55 -20.25 63.7 -16.2 60.45 -7.15 50.7 -3.3 44.1 -1.05 38.3 -3.3 31.6 -4.15 25.2 -16.2 L23.45 -21.45 Q22.75 -23.4 22.8 -29.05 L23.7 -35.2 Q25.3 -40.55 26.45 -41.95 M104.45 -29.05 Q100.0 -36.1 94.3 -29.05 92.05 -21.45 98.3 -19.3 106.5 -19.2 104.45 -29.05 M64.2 9.55 L62.05 6.3 61.2 4.3 61.45 3.8 63.8 6.3 66.95 8.05 69.8 8.8 71.3 8.8 Q73.2 8.7 74.55 7.05 L75.55 4.7 76.2 4.95 76.3 6.8 75.55 9.55 Q70.25 17.8 64.2 9.55 M48.95 -29.05 L47.7 -32.3 Q47.25 -33.35 44.55 -34.3 38.7 -34.95 37.8 -29.05 37.35 -22.25 42.2 -21.2 49.3 -20.75 48.95 -29.05" fill="#000000" fill-rule="evenodd" stroke="none"/>
    <path d="M26.45 -41.95 Q25.3 -40.55 23.7 -35.2 L22.8 -29.05 Q22.75 -23.4 23.45 -21.45 L25.2 -16.2 Q31.6 -4.15 38.3 -3.3 44.1 -1.05 50.7 -3.3 60.45 -7.15 63.7 -16.2 65.55 -20.25 65.95 -24.05 L66.05 -29.05 Q65.85 -33.5 64.95 -36.2 L62.45 -41.95 Q55.7 -53.25 44.95 -53.3 32.7 -53.25 26.45 -41.95 M118.05 -41.95 Q112.75 -50.45 102.2 -51.45 89.6 -50.95 84.3 -41.95 81.5 -37.4 80.95 -35.05 L79.7 -29.05 79.7 -22.55 81.2 -16.2 Q85.0 -6.4 91.05 -3.3 97.2 2.45 111.3 -3.3 119.1 -8.65 121.2 -16.2 122.6 -19.95 122.8 -23.2 L122.7 -29.05 Q122.7 -31.75 120.7 -37.2 L118.05 -41.95 M87.3 -96.2 Q140.95 -72.15 144.55 -41.3 147.7 -30.4 138.3 -11.7 134.75 -1.7 107.95 18.3 79.6 36.75 35.05 55.95 L1.2 69.2 -29.8 79.05 -49.55 84.05 -53.45 85.55 -56.45 87.3 -57.8 89.95 -57.7 91.2 -56.3 93.55 -51.95 97.3 -41.2 103.2 -19.55 112.95 -11.45 117.2 -1.3 123.55 Q8.05 132.4 3.45 138.3 -1.0 146.6 -17.2 150.2 -35.75 152.85 -50.55 146.8 L-50.95 146.3 -50.45 145.7 -47.2 145.05 Q-31.75 147.2 -17.55 143.3 L-12.95 139.7 Q-11.5 135.75 -14.3 132.05 L-20.05 127.05 Q-30.55 119.35 -35.05 117.45 L-58.55 106.95 -82.45 95.45 -84.55 93.05 Q-87.8 89.15 -86.05 85.3 -88.9 84.05 -67.45 76.8 L-59.7 71.55 Q-52.55 65.6 -54.45 57.45 -59.0 48.15 -64.8 43.95 -65.95 44.3 -100.05 18.7 L-106.05 13.05 Q-113.0 7.35 -119.7 -9.55 L-121.2 -14.95 -122.55 -22.05 Q-125.55 -57.55 -101.05 -82.55 -74.7 -106.7 -27.3 -114.3 -8.15 -117.05 27.3 -112.3 54.8 -108.65 87.3 -96.2 M104.45 -29.05 Q106.5 -19.2 98.3 -19.3 92.05 -21.45 94.3 -29.05 100.0 -36.1 104.45 -29.05 M64.2 9.55 Q70.25 17.8 75.55 9.55 L76.3 6.8 76.2 4.95 75.55 4.7 74.55 7.05 Q73.2 8.7 71.3 8.8 L69.8 8.8 66.95 8.05 63.8 6.3 61.45 3.8 61.2 4.3 62.05 6.3 64.2 9.55 M48.95 -29.05 Q49.3 -20.75 42.2 -21.2 37.35 -22.25 37.8 -29.05 38.7 -34.95 44.55 -34.3 47.25 -33.35 47.7 -32.3 L48.95 -29.05" fill="#ffffff" fill-rule="evenodd" stroke="none"/>
  </g>
</svg>
