<?xml version="1.0" encoding="UTF-8" standalone="no"?>
<svg xmlns:xlink="http://www.w3.org/1999/xlink" height="272.2px" width="275.15px" xmlns="http://www.w3.org/2000/svg">
  <g transform="matrix(1.0, 0.0, 0.0, 1.0, 124.85, 121.95)">
    <path d="M113.3 -54.8 Q119.75 -52.5 124.95 -41.95 L126.7 -36.45 Q127.45 -33.4 127.2 -29.05 L126.3 -22.7 123.7 -16.2 Q116.25 -3.45 103.55 -4.2 90.6 -6.45 86.45 -16.2 85.95 -16.1 83.95 -21.95 L82.8 -29.05 83.2 -35.55 85.05 -41.95 Q89.7 -52.0 96.8 -54.8 106.55 -58.35 113.3 -54.8 M26.2 -41.95 Q28.85 -50.25 35.3 -54.8 49.3 -62.1 58.3 -54.8 L63.3 -49.95 Q66.25 -45.95 67.45 -41.95 L68.7 -37.05 Q69.35 -33.85 68.8 -29.05 L67.7 -23.2 Q67.1 -20.7 64.3 -16.2 57.35 -5.75 45.7 -6.05 35.35 -6.75 29.3 -16.2 28.1 -17.4 26.2 -22.3 L24.7 -29.05 Q24.3 -35.3 24.95 -37.05 L26.2 -41.95 M66.3 2.45 Q68.35 4.1 71.7 5.05 L74.95 5.2 Q76.1 4.6 77.2 3.95 79.1 -0.65 79.3 1.55 80.0 6.8 75.95 9.55 L74.45 10.2 72.55 10.2 71.05 9.55 Q66.75 7.8 64.2 0.05 L66.3 2.45 M97.45 -29.05 Q98.3 -24.1 102.2 -23.55 107.1 -22.55 108.8 -29.05 109.75 -35.75 103.45 -37.2 96.95 -37.0 97.45 -29.05 M50.8 -29.05 Q53.05 -37.35 46.3 -39.05 38.5 -39.05 40.45 -29.05 L42.3 -26.45 44.95 -25.45 Q49.75 -25.4 50.8 -29.05" fill="#000000" fill-rule="evenodd" stroke="none"/>
    <path d="M26.2 -41.95 L24.95 -37.05 Q24.3 -35.3 24.7 -29.05 L26.2 -22.3 Q28.1 -17.4 29.3 -16.2 35.35 -6.75 45.7 -6.05 57.35 -5.75 64.3 -16.2 67.1 -20.7 67.7 -23.2 L68.8 -29.05 Q69.35 -33.85 68.7 -37.05 L67.45 -41.95 Q66.25 -45.95 63.3 -49.95 L58.3 -54.8 Q49.3 -62.1 35.3 -54.8 28.85 -50.25 26.2 -41.95 M113.3 -54.8 Q106.55 -58.35 96.8 -54.8 89.7 -52.0 85.05 -41.95 L83.2 -35.55 82.8 -29.05 83.95 -21.95 Q85.95 -16.1 86.45 -16.2 90.6 -6.45 103.55 -4.2 116.25 -3.45 123.7 -16.2 L126.3 -22.7 127.2 -29.05 Q127.45 -33.4 126.7 -36.45 L124.95 -41.95 Q119.75 -52.5 113.3 -54.8 M84.45 -104.95 Q136.5 -87.2 149.3 -47.45 153.2 -33.75 142.05 -13.8 132.85 1.5 108.45 17.55 L101.3 21.95 81.8 32.8 66.2 40.7 Q51.7 47.75 34.2 55.05 L23.05 59.55 2.55 67.05 -34.55 78.3 Q-54.55 82.5 -54.05 82.95 L-56.55 84.05 -58.45 85.45 Q-62.05 90.8 -52.7 96.2 -4.4 118.4 -0.8 122.7 9.0 130.6 4.05 138.3 2.6 144.45 -17.55 149.55 -37.5 152.1 -54.7 145.45 L-54.95 145.05 -54.7 144.45 -50.7 143.7 -31.8 144.8 Q-21.75 144.1 -18.45 142.7 -10.25 139.75 -13.8 132.55 -17.3 127.35 -34.8 116.95 L-62.7 104.45 Q-82.45 94.6 -82.7 95.05 -84.3 94.15 -85.95 93.2 L-87.7 91.8 -89.7 88.7 Q-90.8 85.05 -89.95 83.95 L-86.45 80.45 Q-65.65 74.6 -60.05 68.05 -52.95 61.1 -55.8 53.95 -55.3 53.6 -60.8 46.05 L-65.3 41.45 Q-69.95 39.75 -104.55 12.8 -114.0 5.55 -121.2 -12.7 L-124.05 -24.45 Q-128.75 -57.05 -105.2 -85.7 -96.0 -96.05 -76.55 -105.95 -60.75 -114.75 -32.2 -120.3 -23.1 -123.7 21.55 -120.05 43.85 -118.4 84.45 -104.95 M97.45 -29.05 Q96.95 -37.0 103.45 -37.2 109.75 -35.75 108.8 -29.05 107.1 -22.55 102.2 -23.55 98.3 -24.1 97.45 -29.05 M66.3 2.45 L64.2 0.05 Q66.75 7.8 71.05 9.55 L72.55 10.2 74.45 10.2 75.95 9.55 Q80.0 6.8 79.3 1.55 79.1 -0.65 77.2 3.95 76.1 4.6 74.95 5.2 L71.7 5.05 Q68.35 4.1 66.3 2.45 M50.8 -29.05 Q49.75 -25.4 44.95 -25.45 L42.3 -26.45 40.45 -29.05 Q38.5 -39.05 46.3 -39.05 53.05 -37.35 50.8 -29.05" fill="#ffffff" fill-rule="evenodd" stroke="none"/>
  </g>
</svg>
