<?xml version="1.0" encoding="UTF-8" standalone="no"?>
<svg xmlns:xlink="http://www.w3.org/1999/xlink" height="279.4px" width="281.9px" xmlns="http://www.w3.org/2000/svg">
  <g transform="matrix(1.0, 0.0, 0.0, 1.0, 127.05, 128.35)">
    <path d="M26.7 -41.95 L28.7 -48.7 Q30.85 -53.4 32.3 -54.8 49.6 -71.85 65.7 -54.8 L69.05 -49.2 Q71.25 -43.85 71.2 -41.95 71.95 -38.9 71.7 -34.55 L70.8 -29.05 68.7 -22.95 Q66.8 -19.05 63.95 -16.2 46.1 -3.2 34.05 -16.2 L30.3 -21.05 Q27.85 -25.35 27.2 -29.05 L26.2 -35.55 26.7 -41.95 M43.95 -41.95 Q38.8 -32.9 46.7 -29.55 57.45 -31.15 51.7 -41.95 49.3 -44.95 43.95 -41.95 M86.7 -41.95 Q87.5 -45.5 89.55 -49.3 L93.55 -54.8 Q111.55 -67.85 123.55 -54.8 L127.55 -49.45 Q129.85 -44.95 130.45 -41.95 L131.3 -36.95 Q131.55 -31.15 130.8 -29.05 L128.95 -22.45 Q126.8 -17.8 125.2 -16.2 107.5 0.8 92.05 -16.2 89.75 -18.7 88.2 -22.7 L86.3 -29.05 85.8 -36.2 86.7 -41.95 M66.45 -3.3 L66.8 -3.3 Q78.1 6.65 82.2 -2.3 83.0 6.25 76.05 7.05 71.35 7.5 66.45 -3.3 M102.8 -29.05 Q105.0 -26.05 110.45 -29.05 115.75 -37.65 107.8 -41.45 97.3 -40.65 102.8 -29.05" fill="#000000" fill-rule="evenodd" stroke="none"/>
    <path d="M26.7 -41.95 L26.2 -35.55 27.2 -29.05 Q27.85 -25.35 30.3 -21.05 L34.05 -16.2 Q46.1 -3.2 63.95 -16.2 66.8 -19.05 68.7 -22.95 L70.8 -29.05 71.7 -34.55 Q71.95 -38.9 71.2 -41.95 71.25 -43.85 69.05 -49.2 L65.7 -54.8 Q49.6 -71.85 32.3 -54.8 30.85 -53.4 28.7 -48.7 L26.7 -41.95 M43.95 -41.95 Q49.3 -44.95 51.7 -41.95 57.45 -31.15 46.7 -29.55 38.8 -32.9 43.95 -41.95 M86.7 -41.95 L85.8 -36.2 86.3 -29.05 88.2 -22.7 Q89.75 -18.7 92.05 -16.2 107.5 0.8 125.2 -16.2 126.8 -17.8 128.95 -22.45 L130.8 -29.05 Q131.55 -31.15 131.3 -36.95 L130.45 -41.95 Q129.85 -44.95 127.55 -49.45 L123.55 -54.8 Q111.55 -67.85 93.55 -54.8 L89.55 -49.3 Q87.5 -45.5 86.7 -41.95 M92.2 -109.05 Q146.3 -86.85 153.95 -52.05 157.35 -37.7 147.55 -19.3 137.5 -1.9 112.7 14.3 82.35 33.7 38.3 52.55 L24.55 58.2 7.8 64.45 Q-14.3 71.8 -30.45 76.2 L-50.8 80.8 -56.3 82.95 -58.8 84.95 Q-62.5 88.0 -51.95 95.3 -14.75 112.25 -1.3 120.45 L3.2 123.55 Q11.95 130.9 8.2 138.3 4.45 146.5 -13.3 150.45 -40.25 152.85 -53.45 145.55 L-50.05 144.3 -28.3 145.55 -20.95 144.8 -16.45 143.8 Q-6.3 141.25 -11.7 131.95 -12.0 129.85 -31.55 117.55 L-83.8 93.7 -87.8 91.3 -90.55 87.55 Q-91.5 87.25 -91.2 83.2 L-87.3 78.8 Q-68.2 74.25 -60.55 66.95 -52.7 57.85 -54.8 54.55 -54.9 49.85 -65.7 38.95 -106.55 11.25 -108.45 7.3 -118.55 -1.75 -124.2 -20.05 L-126.05 -28.8 Q-131.55 -58.65 -106.55 -91.2 -79.9 -118.2 -27.95 -127.2 -5.9 -130.0 25.45 -126.05 58.05 -122.1 92.2 -109.05 M102.8 -29.05 Q97.3 -40.65 107.8 -41.45 115.75 -37.65 110.45 -29.05 105.0 -26.05 102.8 -29.05 M66.45 -3.3 Q71.35 7.5 76.05 7.05 83.0 6.25 82.2 -2.3 78.1 6.65 66.8 -3.3 L66.45 -3.3" fill="#ffffff" fill-rule="evenodd" stroke="none"/>
  </g>
</svg>
