<?xml version="1.0" encoding="UTF-8" standalone="no"?>
<svg xmlns:xlink="http://www.w3.org/1999/xlink" height="287.0px" width="287.6px" xmlns="http://www.w3.org/2000/svg">
  <g transform="matrix(1.0, 0.0, 0.0, 1.0, 128.45, 134.35)">
    <path d="M27.8 -41.95 L28.95 -49.05 31.3 -54.8 Q35.85 -65.15 48.7 -67.7 L53.3 -67.7 Q62.8 -67.65 70.8 -54.8 L72.95 -49.55 Q74.05 -46.15 74.2 -41.95 L74.05 -36.55 Q72.8 -29.8 72.05 -29.05 70.35 -22.25 61.95 -16.2 47.1 -9.95 40.05 -16.2 32.6 -21.0 29.95 -29.05 L28.05 -35.8 27.8 -41.95 M43.8 -41.95 Q43.3 -34.5 48.8 -33.3 56.3 -33.0 55.8 -41.95 L54.45 -45.3 Q54.1 -46.25 51.05 -47.45 45.2 -48.2 43.8 -41.95 M88.8 -41.95 L90.7 -49.7 93.3 -54.8 Q99.8 -65.55 112.3 -65.8 123.7 -65.6 130.55 -54.8 L133.05 -49.8 Q134.35 -46.75 134.95 -41.95 L135.05 -35.55 133.7 -29.05 Q132.5 -23.0 125.55 -16.2 120.8 -11.0 110.05 -11.05 103.7 -11.5 98.3 -16.2 93.2 -20.0 90.05 -29.05 L88.8 -34.8 88.8 -41.95 M104.55 -41.95 Q102.1 -33.5 108.95 -31.3 117.25 -30.75 115.3 -41.95 L113.45 -44.45 111.2 -45.45 Q106.5 -46.2 104.55 -41.95 M70.3 -3.3 Q66.8 -9.85 72.8 -3.3 77.75 0.95 83.45 -3.3 L84.45 -5.55 84.95 -5.55 85.2 -3.3 Q84.8 3.5 78.45 4.05 74.25 3.75 70.3 -3.3" fill="#000000" fill-rule="evenodd" stroke="none"/>
    <path d="M27.8 -41.95 L28.05 -35.8 29.95 -29.05 Q32.6 -21.0 40.05 -16.2 47.1 -9.95 61.95 -16.2 70.35 -22.25 72.05 -29.05 72.8 -29.8 74.05 -36.55 L74.2 -41.95 Q74.05 -46.15 72.95 -49.55 L70.8 -54.8 Q62.8 -67.65 53.3 -67.7 L48.7 -67.7 Q35.85 -65.15 31.3 -54.8 L28.95 -49.05 27.8 -41.95 M43.8 -41.95 Q45.2 -48.2 51.05 -47.45 54.1 -46.25 54.45 -45.3 L55.8 -41.95 Q56.3 -33.0 48.8 -33.3 43.3 -34.5 43.8 -41.95 M45.05 -128.95 Q71.55 -124.9 108.55 -108.55 158.1 -82.6 158.95 -50.05 160.5 -37.95 149.8 -19.8 141.8 -5.65 113.3 13.3 L102.05 20.05 77.7 33.3 62.2 40.95 24.3 57.55 2.3 65.7 -26.95 74.8 Q-27.15 75.35 -49.05 80.2 L-54.3 82.3 -56.8 84.45 -57.45 85.95 -57.2 88.2 -55.05 91.05 -49.05 95.45 Q-35.2 103.0 -16.3 110.8 L0.05 119.55 6.2 123.7 10.2 127.7 Q20.7 141.7 -6.8 151.2 -28.8 155.3 -48.3 147.95 L-49.2 146.95 -46.05 145.95 Q-20.45 148.6 -11.3 144.55 -2.9 142.5 -8.2 132.7 -11.95 128.0 -29.2 117.55 -30.2 116.55 -58.2 104.55 L-82.7 93.05 -86.2 90.95 -89.2 86.95 Q-90.2 83.6 -89.7 82.55 L-86.45 78.45 Q-65.15 72.75 -58.55 65.3 -51.45 58.3 -54.3 50.8 -56.5 46.15 -58.45 44.05 L-64.2 37.7 -69.45 33.8 -75.95 29.95 Q-88.15 20.1 -96.55 15.05 L-105.3 8.2 -109.95 3.7 Q-118.3 -3.35 -125.2 -22.3 L-127.3 -31.3 -128.45 -41.8 Q-127.05 -80.7 -101.2 -102.55 -87.55 -114.55 -61.45 -124.55 -40.9 -133.0 -12.05 -134.2 8.35 -135.3 45.05 -128.95 M88.8 -41.95 L88.8 -34.8 90.05 -29.05 Q93.2 -20.0 98.3 -16.2 103.7 -11.5 110.05 -11.05 120.8 -11.0 125.55 -16.2 132.5 -23.0 133.7 -29.05 L135.05 -35.55 134.95 -41.95 Q134.35 -46.75 133.05 -49.8 L130.55 -54.8 Q123.7 -65.6 112.3 -65.8 99.8 -65.55 93.3 -54.8 L90.7 -49.7 88.8 -41.95 M104.55 -41.95 Q106.5 -46.2 111.2 -45.45 L113.45 -44.45 115.3 -41.95 Q117.25 -30.75 108.95 -31.3 102.1 -33.5 104.55 -41.95 M70.3 -3.3 Q74.25 3.75 78.45 4.05 84.8 3.5 85.2 -3.3 L84.95 -5.55 84.45 -5.55 83.45 -3.3 Q77.75 0.95 72.8 -3.3 66.8 -9.85 70.3 -3.3" fill="#ffffff" fill-rule="evenodd" stroke="none"/>
  </g>
</svg>
