<?xml version="1.0" encoding="UTF-8" standalone="no"?>
<svg xmlns:xlink="http://www.w3.org/1999/xlink" height="293.65px" width="292.9px" xmlns="http://www.w3.org/2000/svg">
  <g transform="matrix(1.0, 0.0, 0.0, 1.0, 129.75, 139.7)">
    <path d="M29.3 -41.95 Q28.85 -44.4 29.7 -49.55 L31.05 -54.8 Q34.0 -63.15 40.2 -67.7 57.25 -75.95 65.55 -67.7 71.25 -63.9 74.7 -54.8 L76.05 -49.95 Q76.8 -46.45 76.55 -41.95 L75.45 -35.3 Q74.25 -31.2 72.8 -29.05 69.0 -18.75 53.95 -16.2 L51.8 -16.2 Q40.25 -16.25 32.95 -29.05 L30.7 -34.2 Q29.35 -38.35 29.3 -41.95 M135.95 -54.8 L138.05 -48.3 138.7 -41.95 138.3 -36.95 Q137.25 -31.65 135.95 -29.05 133.85 -22.0 124.05 -16.2 112.2 -11.95 105.8 -16.2 98.2 -19.5 94.05 -29.05 L92.2 -34.05 Q91.1 -38.15 91.3 -41.95 L91.8 -48.05 93.95 -54.8 Q98.2 -64.15 105.45 -67.7 118.65 -71.95 124.45 -67.7 131.2 -64.65 135.95 -54.8 M47.05 -38.8 Q48.7 -37.1 50.3 -36.8 55.1 -35.5 57.7 -41.95 58.35 -50.1 52.8 -51.2 45.35 -52.3 45.7 -41.95 L47.05 -38.8 M106.7 -41.95 Q107.1 -35.35 112.3 -34.7 118.95 -34.8 119.05 -41.95 119.2 -47.85 113.8 -49.2 106.35 -48.55 106.7 -41.95 M71.8 -7.45 L71.05 -9.45 71.45 -9.45 Q73.6 -6.65 75.05 -6.05 L78.55 -4.45 81.7 -3.95 84.45 -4.7 85.8 -5.95 86.8 -8.3 87.45 -8.45 87.7 -6.45 87.05 -3.3 Q80.85 5.95 74.45 -3.3 L71.8 -7.45" fill="#000000" fill-rule="evenodd" stroke="none"/>
    <path d="M135.95 -54.8 Q131.2 -64.65 124.45 -67.7 118.65 -71.95 105.45 -67.7 98.2 -64.15 93.95 -54.8 L91.8 -48.05 91.3 -41.95 Q91.1 -38.15 92.2 -34.05 L94.05 -29.05 Q98.2 -19.5 105.8 -16.2 112.2 -11.95 124.05 -16.2 133.85 -22.0 135.95 -29.05 137.25 -31.65 138.3 -36.95 L138.7 -41.95 138.05 -48.3 135.95 -54.8 M29.3 -41.95 Q29.35 -38.35 30.7 -34.2 L32.95 -29.05 Q40.25 -16.25 51.8 -16.2 L53.95 -16.2 Q69.0 -18.75 72.8 -29.05 74.25 -31.2 75.45 -35.3 L76.55 -41.95 Q76.8 -46.45 76.05 -49.95 L74.7 -54.8 Q71.25 -63.9 65.55 -67.7 57.25 -75.95 40.2 -67.7 34.0 -63.15 31.05 -54.8 L29.7 -49.55 Q28.85 -44.4 29.3 -41.95 M106.7 -41.95 Q106.35 -48.55 113.8 -49.2 119.2 -47.85 119.05 -41.95 118.95 -34.8 112.3 -34.7 107.1 -35.35 106.7 -41.95 M47.05 -38.8 L45.7 -41.95 Q45.35 -52.3 52.8 -51.2 58.35 -50.1 57.7 -41.95 55.1 -35.5 50.3 -36.8 48.7 -37.1 47.05 -38.8 M109.3 -114.55 Q157.05 -92.6 162.8 -55.05 164.85 -42.9 154.2 -23.95 142.55 -6.15 119.95 8.45 L108.3 15.7 87.3 27.45 70.7 35.95 38.8 50.7 9.8 62.3 -23.95 73.45 Q-28.2 75.1 -47.45 79.55 L-50.8 80.8 Q-54.65 82.75 -54.7 83.45 -59.45 87.15 -46.7 95.45 -11.3 111.35 4.05 120.55 L7.05 122.55 11.3 126.2 Q17.8 131.9 13.8 141.2 10.85 146.7 -0.3 151.2 -13.65 157.3 -43.7 149.95 L-45.3 148.3 -41.95 147.2 -36.45 147.05 -23.2 148.05 -15.7 147.3 -8.8 145.55 Q-0.2 143.35 -5.05 133.45 L-10.55 128.45 -25.7 118.3 Q-30.8 115.4 -59.45 103.05 L-82.45 92.05 -86.8 87.8 Q-88.5 83.5 -87.95 82.95 L-86.45 79.45 -83.95 77.55 Q-69.25 73.2 -66.8 71.3 L-59.95 66.8 -55.95 62.8 Q-50.75 54.2 -52.8 50.55 -55.4 43.65 -63.7 35.8 -107.45 6.0 -108.2 3.45 -117.65 -3.75 -125.8 -24.2 L-127.8 -31.45 Q-129.4 -38.4 -129.7 -44.05 -130.95 -79.55 -103.2 -106.55 -93.3 -116.7 -62.95 -129.3 -43.5 -137.95 -11.3 -139.55 11.8 -140.7 48.95 -133.8 75.75 -129.2 109.3 -114.55 M71.8 -7.45 L74.45 -3.3 Q80.85 5.95 87.05 -3.3 L87.7 -6.45 87.45 -8.45 86.8 -8.3 85.8 -5.95 84.45 -4.7 81.7 -3.95 78.55 -4.45 75.05 -6.05 Q73.6 -6.65 71.45 -9.45 L71.05 -9.45 71.8 -7.45" fill="#ffffff" fill-rule="evenodd" stroke="none"/>
  </g>
</svg>
