<?xml version="1.0" encoding="UTF-8" standalone="no"?>
<svg xmlns:xlink="http://www.w3.org/1999/xlink" height="298.75px" width="297.65px" xmlns="http://www.w3.org/2000/svg">
  <g transform="matrix(1.0, 0.0, 0.0, 1.0, 131.1, 144.7)">
    <path d="M140.3 -54.8 L141.7 -48.55 141.7 -41.95 140.7 -36.55 Q139.55 -32.3 137.45 -29.05 129.35 -15.95 116.05 -16.8 104.85 -17.45 97.95 -29.05 L95.55 -33.95 Q94.45 -36.45 93.8 -41.95 L93.7 -47.8 95.05 -54.8 Q98.1 -63.9 102.95 -67.7 119.85 -79.45 132.55 -67.7 137.7 -63.15 140.3 -54.8 M30.95 -41.95 L30.45 -47.3 Q30.7 -53.3 31.45 -54.8 L33.55 -61.2 Q35.7 -65.45 37.8 -67.7 46.5 -76.75 56.45 -75.55 63.95 -75.5 71.45 -67.7 L74.95 -62.45 Q76.25 -60.5 77.8 -54.8 L78.7 -49.05 Q78.95 -45.4 78.2 -41.95 L76.55 -35.55 Q75.3 -32.05 73.05 -29.05 53.55 -8.55 36.05 -29.05 34.1 -31.65 32.45 -35.95 L30.95 -41.95 M52.05 -39.95 L55.55 -40.2 56.95 -40.95 57.8 -41.95 Q62.5 -51.65 54.45 -54.55 43.5 -52.65 48.8 -41.95 L50.3 -40.55 52.05 -39.95 M121.3 -41.95 Q123.1 -51.65 116.2 -52.55 107.3 -51.15 109.95 -41.95 L110.45 -40.7 111.8 -39.05 114.7 -37.8 Q119.85 -37.5 121.3 -41.95 M87.8 -3.3 Q82.3 0.95 78.8 -3.3 74.0 -7.9 73.45 -12.2 L75.3 -9.95 77.55 -8.45 Q87.8 -3.8 89.55 -11.2 90.95 -7.9 87.8 -3.3" fill="#000000" fill-rule="evenodd" stroke="none"/>
    <path d="M140.3 -54.8 Q137.7 -63.15 132.55 -67.7 119.85 -79.45 102.95 -67.7 98.1 -63.9 95.05 -54.8 L93.7 -47.8 93.8 -41.95 Q94.45 -36.45 95.55 -33.95 L97.95 -29.05 Q104.85 -17.45 116.05 -16.8 129.35 -15.95 137.45 -29.05 139.55 -32.3 140.7 -36.55 L141.7 -41.95 141.7 -48.55 140.3 -54.8 M44.95 -139.7 Q72.6 -135.4 108.05 -120.8 161.2 -96.75 166.3 -59.45 167.95 -43.65 158.05 -27.55 151.45 -14.4 124.3 5.05 L115.95 10.45 91.8 24.2 75.55 32.55 45.8 46.55 33.95 51.7 10.55 60.95 -27.55 73.55 -46.8 78.45 -52.7 81.05 -54.2 82.45 Q-58.4 86.4 -48.3 93.45 -3.8 114.25 5.2 120.3 L10.2 123.95 13.7 127.7 Q22.25 142.95 0.55 151.2 -22.65 157.4 -43.05 150.2 L-44.55 148.8 -42.8 147.7 -36.55 147.3 -21.45 148.2 -14.2 147.3 -7.95 145.55 -5.7 144.3 -2.8 141.45 -2.3 139.05 -2.45 137.3 -4.55 132.95 -10.3 127.8 Q-26.5 116.5 -26.95 116.95 L-54.55 104.55 -81.2 91.95 -86.3 87.3 -87.55 83.2 -86.2 78.7 -82.55 76.2 Q-72.95 73.75 -66.3 70.05 L-59.8 65.7 -55.95 61.8 Q-50.25 52.45 -52.8 48.55 -55.95 40.5 -66.05 32.2 -69.8 30.8 -99.55 8.95 L-108.8 1.2 Q-122.15 -11.5 -127.2 -27.95 L-129.7 -37.8 -130.95 -47.05 Q-133.05 -83.9 -101.7 -112.95 -64.4 -141.45 -11.3 -144.45 5.55 -145.8 44.95 -139.7 M30.95 -41.95 L32.45 -35.95 Q34.1 -31.65 36.05 -29.05 53.55 -8.55 73.05 -29.05 75.3 -32.05 76.55 -35.55 L78.2 -41.95 Q78.95 -45.4 78.7 -49.05 L77.8 -54.8 Q76.25 -60.5 74.95 -62.45 L71.45 -67.7 Q63.95 -75.5 56.45 -75.55 46.5 -76.75 37.8 -67.7 35.7 -65.45 33.55 -61.2 L31.45 -54.8 Q30.7 -53.3 30.45 -47.3 L30.95 -41.95 M121.3 -41.95 Q119.85 -37.5 114.7 -37.8 L111.8 -39.05 110.45 -40.7 109.95 -41.95 Q107.3 -51.15 116.2 -52.55 123.1 -51.65 121.3 -41.95 M52.05 -39.95 L50.3 -40.55 48.8 -41.95 Q43.5 -52.65 54.45 -54.55 62.5 -51.65 57.8 -41.95 L56.95 -40.95 55.55 -40.2 52.05 -39.95 M87.8 -3.3 Q90.95 -7.9 89.55 -11.2 87.8 -3.8 77.55 -8.45 L75.3 -9.95 73.45 -12.2 Q74.0 -7.9 78.8 -3.3 82.3 0.95 87.8 -3.3" fill="#ffffff" fill-rule="evenodd" stroke="none"/>
  </g>
</svg>
