<?xml version="1.0" encoding="UTF-8" standalone="no"?>
<svg xmlns:xlink="http://www.w3.org/1999/xlink" height="302.85px" width="302.2px" xmlns="http://www.w3.org/2000/svg">
  <g transform="matrix(1.0, 0.0, 0.0, 1.0, 132.3, 148.9)">
    <path d="M138.05 -67.7 L141.3 -62.45 Q143.25 -58.5 143.95 -54.8 L144.55 -50.45 Q144.8 -45.2 144.05 -41.95 L142.55 -36.45 Q140.8 -32.15 138.55 -29.05 133.25 -20.0 119.2 -19.2 108.85 -19.5 101.8 -29.05 101.2 -29.1 98.05 -35.55 L96.3 -41.95 Q95.6 -43.65 95.7 -50.05 L96.45 -54.8 Q97.2 -59.05 98.95 -62.3 L102.2 -67.7 Q109.25 -77.15 121.55 -76.8 130.05 -76.9 138.05 -67.7 M32.7 -41.95 L31.7 -47.55 31.95 -54.8 33.55 -61.45 36.7 -67.7 Q42.5 -78.3 57.05 -78.95 68.6 -78.35 75.45 -67.7 L78.3 -62.2 80.2 -54.8 80.55 -49.45 Q80.35 -44.45 79.45 -41.95 L77.7 -36.55 Q75.85 -32.3 72.8 -29.05 63.85 -20.2 54.7 -21.3 43.05 -23.2 39.45 -29.05 L35.95 -33.7 Q33.55 -37.85 32.7 -41.95 M53.55 -42.7 Q63.6 -42.65 59.95 -54.8 56.8 -60.35 49.7 -54.8 45.75 -46.9 53.55 -42.7 M121.05 -54.8 L119.3 -55.45 117.2 -55.45 115.05 -54.8 Q108.75 -50.25 114.2 -41.95 116.05 -39.2 121.95 -41.95 127.35 -49.75 121.05 -54.8 M75.05 -14.45 L77.2 -12.2 80.95 -9.95 Q88.8 -6.45 91.7 -13.45 L92.05 -11.7 91.05 -7.3 Q83.8 3.5 75.05 -14.45" fill="#000000" fill-rule="evenodd" stroke="none"/>
    <path d="M138.05 -67.7 Q130.05 -76.9 121.55 -76.8 109.25 -77.15 102.2 -67.7 L98.95 -62.3 Q97.2 -59.05 96.45 -54.8 L95.7 -50.05 Q95.6 -43.65 96.3 -41.95 L98.05 -35.55 Q101.2 -29.1 101.8 -29.05 108.85 -19.5 119.2 -19.2 133.25 -20.0 138.55 -29.05 140.8 -32.15 142.55 -36.45 L144.05 -41.95 Q144.8 -45.2 144.55 -50.45 L143.95 -54.8 Q143.25 -58.5 141.3 -62.45 L138.05 -67.7 M49.05 -143.45 Q81.95 -137.45 113.3 -123.45 165.1 -99.95 169.7 -59.45 171.35 -48.45 160.3 -28.95 148.75 -11.2 124.45 4.55 L109.45 13.7 Q100.5 18.65 91.55 23.55 L72.05 33.45 45.3 45.8 31.2 51.8 7.05 61.05 -26.7 72.05 -47.7 77.45 -53.2 79.95 -55.2 82.05 -55.95 84.05 -55.55 85.55 -52.7 89.55 -46.45 93.95 Q-10.15 110.15 6.45 120.45 L11.05 123.8 14.55 127.8 Q23.8 140.35 0.05 151.2 -17.9 157.35 -44.05 149.8 L-45.45 148.55 -43.95 147.45 -36.45 147.05 -20.45 147.8 -13.45 146.8 -8.05 145.3 -5.8 144.05 -2.8 141.05 -2.3 138.8 -2.45 136.95 -4.45 132.8 Q-7.3 128.3 -28.2 115.8 L-58.7 102.2 -82.7 90.7 -87.45 86.2 -88.7 82.45 Q-88.2 78.95 -87.2 77.45 L-83.7 75.05 Q-75.5 73.05 -66.55 68.55 L-60.95 64.8 -56.3 60.3 Q-50.9 52.0 -53.2 46.95 -56.45 38.75 -66.7 30.3 L-79.3 22.2 Q-110.95 -0.4 -110.05 -1.2 -120.45 -9.5 -128.3 -30.05 L-130.45 -37.8 Q-132.5 -48.1 -132.3 -51.3 -132.45 -91.4 -102.05 -117.2 -61.55 -147.15 -8.55 -148.8 12.6 -149.75 49.05 -143.45 M32.7 -41.95 Q33.55 -37.85 35.95 -33.7 L39.45 -29.05 Q43.05 -23.2 54.7 -21.3 63.85 -20.2 72.8 -29.05 75.85 -32.3 77.7 -36.55 L79.45 -41.95 Q80.35 -44.45 80.55 -49.45 L80.2 -54.8 78.3 -62.2 75.45 -67.7 Q68.6 -78.35 57.05 -78.95 42.5 -78.3 36.7 -67.7 L33.55 -61.45 31.95 -54.8 31.7 -47.55 32.7 -41.95 M121.05 -54.8 Q127.35 -49.75 121.95 -41.95 116.05 -39.2 114.2 -41.95 108.75 -50.25 115.05 -54.8 L117.2 -55.45 119.3 -55.45 121.05 -54.8 M53.55 -42.7 Q45.75 -46.9 49.7 -54.8 56.8 -60.35 59.95 -54.8 63.6 -42.65 53.55 -42.7 M75.05 -14.45 Q83.8 3.5 91.05 -7.3 L92.05 -11.7 91.7 -13.45 Q88.8 -6.45 80.95 -9.95 L77.2 -12.2 75.05 -14.45" fill="#ffffff" fill-rule="evenodd" stroke="none"/>
  </g>
</svg>
