<?xml version="1.0" encoding="UTF-8" standalone="no"?>
<svg xmlns:xlink="http://www.w3.org/1999/xlink" height="306.5px" width="305.95px" xmlns="http://www.w3.org/2000/svg">
  <g transform="matrix(1.0, 0.0, 0.0, 1.0, 133.45, 152.75)">
    <path d="M34.45 -41.95 Q33.75 -42.6 32.8 -48.7 L32.7 -54.8 33.8 -61.7 36.2 -67.7 Q42.3 -78.5 49.95 -80.55 58.25 -83.1 64.8 -80.55 72.45 -78.5 78.55 -67.7 L80.7 -62.55 Q81.75 -59.45 82.05 -54.8 L82.05 -49.7 Q81.2 -43.3 80.3 -41.95 L77.8 -36.05 Q75.7 -32.05 72.05 -29.05 54.75 -17.8 42.7 -29.05 L38.45 -33.7 Q36.2 -36.6 34.45 -41.95 M142.3 -67.7 L144.7 -62.95 Q146.95 -56.0 146.7 -54.8 L147.05 -49.45 145.95 -41.95 144.05 -36.55 Q141.3 -31.05 139.05 -29.05 119.85 -13.55 105.45 -29.05 100.55 -34.15 98.7 -41.95 L97.7 -46.55 Q97.1 -51.95 97.8 -54.8 L99.3 -61.55 102.2 -67.7 Q109.5 -79.7 123.05 -79.7 134.7 -79.45 142.3 -67.7 M62.3 -54.8 L61.05 -57.8 Q59.85 -59.65 56.95 -60.2 50.75 -60.15 49.8 -54.8 48.95 -46.45 55.05 -45.05 63.45 -44.95 62.3 -54.8 M125.55 -54.8 Q121.75 -61.35 114.7 -54.8 111.5 -45.5 119.05 -42.95 128.8 -43.25 125.55 -54.8 M76.7 -16.55 L77.05 -16.2 Q80.1 -11.9 86.95 -10.8 L89.7 -11.2 91.05 -12.05 Q92.1 -12.65 92.95 -15.45 L93.55 -15.3 Q93.75 -4.8 86.2 -5.3 81.0 -5.9 76.55 -16.2 L76.7 -16.55" fill="#000000" fill-rule="evenodd" stroke="none"/>
    <path d="M142.3 -67.7 Q134.7 -79.45 123.05 -79.7 109.5 -79.7 102.2 -67.7 L99.3 -61.55 97.8 -54.8 Q97.1 -51.95 97.7 -46.55 L98.7 -41.95 Q100.55 -34.15 105.45 -29.05 119.85 -13.55 139.05 -29.05 141.3 -31.05 144.05 -36.55 L145.95 -41.95 147.05 -49.45 146.7 -54.8 Q146.95 -56.0 144.7 -62.95 L142.3 -67.7 M34.45 -41.95 Q36.2 -36.6 38.45 -33.7 L42.7 -29.05 Q54.75 -17.8 72.05 -29.05 75.7 -32.05 77.8 -36.05 L80.3 -41.95 Q81.2 -43.3 82.05 -49.7 L82.05 -54.8 Q81.75 -59.45 80.7 -62.55 L78.55 -67.7 Q72.45 -78.5 64.8 -80.55 58.25 -83.1 49.95 -80.55 42.3 -78.5 36.2 -67.7 L33.8 -61.7 32.7 -54.8 32.8 -48.7 Q33.75 -42.6 34.45 -41.95 M125.55 -54.8 Q128.8 -43.25 119.05 -42.95 111.5 -45.5 114.7 -54.8 121.75 -61.35 125.55 -54.8 M62.3 -54.8 Q63.45 -44.95 55.05 -45.05 48.95 -46.45 49.8 -54.8 50.75 -60.15 56.95 -60.2 59.85 -59.65 61.05 -57.8 L62.3 -54.8 M115.2 -126.95 Q170.55 -100.15 172.45 -62.05 173.45 -46.3 160.45 -27.55 152.8 -14.65 122.2 5.55 L112.8 11.2 92.95 22.2 76.2 30.7 44.8 45.2 26.2 52.95 9.95 59.05 -23.95 70.05 -49.2 76.7 -51.7 77.7 -55.8 80.45 Q-59.05 85.8 -49.3 91.7 0.05 114.8 5.95 119.45 L9.05 121.55 13.3 125.3 Q24.5 142.6 -0.55 151.2 -19.75 157.15 -45.7 149.2 L-46.7 148.45 -46.8 147.8 -42.8 146.7 Q-17.55 149.2 -8.8 145.2 0.8 142.05 -4.05 132.95 L-8.95 128.05 -25.55 116.8 -33.05 113.05 -60.3 101.05 -84.55 89.45 -89.2 84.95 -90.3 81.05 Q-90.65 78.75 -88.7 76.2 L-85.7 74.05 Q-71.75 70.05 -68.05 67.55 L-60.7 62.7 -56.7 58.7 Q-51.25 49.05 -53.55 45.95 -55.5 41.15 -58.2 37.95 L-64.55 30.95 Q-73.95 25.55 -106.8 0.7 L-113.7 -5.7 Q-125.25 -17.9 -129.55 -32.3 L-131.7 -40.2 -133.45 -52.05 Q-134.2 -91.95 -105.45 -118.3 -93.4 -130.05 -61.05 -142.8 -43.5 -150.7 -8.7 -152.55 11.05 -153.95 54.3 -146.3 88.6 -139.25 115.2 -126.95 M76.7 -16.55 L76.55 -16.2 Q81.0 -5.9 86.2 -5.3 93.75 -4.8 93.55 -15.3 L92.95 -15.45 Q92.1 -12.65 91.05 -12.05 L89.7 -11.2 86.95 -10.8 Q80.1 -11.9 77.05 -16.2 L76.7 -16.55" fill="#ffffff" fill-rule="evenodd" stroke="none"/>
  </g>
</svg>
