<?xml version="1.0" encoding="UTF-8" standalone="no"?>
<svg xmlns:xlink="http://www.w3.org/1999/xlink" height="309.45px" width="309.45px" xmlns="http://www.w3.org/2000/svg">
  <g transform="matrix(1.0, 0.0, 0.0, 1.0, 134.6, 155.85)">
    <path d="M35.95 -41.95 L33.8 -49.3 33.45 -54.8 34.05 -61.3 36.05 -67.7 Q38.25 -74.5 46.2 -80.55 60.65 -87.85 70.7 -80.55 76.3 -77.5 80.95 -67.7 L82.8 -61.7 83.45 -54.8 83.2 -49.95 Q82.05 -43.7 80.95 -41.95 78.95 -35.15 70.95 -29.05 57.1 -21.3 46.05 -29.05 38.85 -34.15 35.95 -41.95 M145.45 -67.7 L147.3 -63.45 Q148.5 -60.0 148.95 -54.8 L148.95 -49.2 147.3 -41.95 Q145.35 -34.9 139.2 -29.05 121.8 -17.05 108.95 -29.05 103.55 -33.4 100.7 -41.95 L99.2 -48.55 99.05 -54.8 100.05 -61.2 102.55 -67.7 Q107.7 -77.5 115.8 -80.55 125.35 -83.6 132.2 -80.55 138.8 -79.0 145.45 -67.7 M63.7 -54.8 Q63.85 -60.6 58.3 -62.3 51.6 -63.3 50.7 -54.8 50.95 -47.95 56.2 -47.05 63.95 -47.45 63.7 -54.8 M128.2 -54.8 L126.7 -58.05 Q124.8 -60.0 122.95 -60.2 117.6 -61.15 115.55 -54.8 113.95 -47.75 120.8 -44.95 129.1 -44.5 128.2 -54.8 M94.45 -17.2 L94.95 -17.2 95.2 -16.2 Q95.25 -7.9 88.55 -6.8 83.55 -6.4 78.55 -16.2 L77.7 -18.2 78.05 -18.2 79.95 -16.2 Q88.95 -8.7 93.95 -16.2 L94.45 -17.2" fill="#000000" fill-rule="evenodd" stroke="none"/>
    <path d="M145.45 -67.7 Q138.8 -79.0 132.2 -80.55 125.35 -83.6 115.8 -80.55 107.7 -77.5 102.55 -67.7 L100.05 -61.2 99.05 -54.8 99.2 -48.55 100.7 -41.95 Q103.55 -33.4 108.95 -29.05 121.8 -17.05 139.2 -29.05 145.35 -34.9 147.3 -41.95 L148.95 -49.2 148.95 -54.8 Q148.5 -60.0 147.3 -63.45 L145.45 -67.7 M35.95 -41.95 Q38.85 -34.15 46.05 -29.05 57.1 -21.3 70.95 -29.05 78.95 -35.15 80.95 -41.95 82.05 -43.7 83.2 -49.95 L83.45 -54.8 82.8 -61.7 80.95 -67.7 Q76.3 -77.5 70.7 -80.55 60.65 -87.85 46.2 -80.55 38.25 -74.5 36.05 -67.7 L34.05 -61.3 33.45 -54.8 33.8 -49.3 35.95 -41.95 M128.2 -54.8 Q129.1 -44.5 120.8 -44.95 113.95 -47.75 115.55 -54.8 117.6 -61.15 122.95 -60.2 124.8 -60.0 126.7 -58.05 L128.2 -54.8 M63.7 -54.8 Q63.95 -47.45 56.2 -47.05 50.95 -47.95 50.7 -54.8 51.6 -63.3 58.3 -62.3 63.85 -60.6 63.7 -54.8 M116.3 -130.05 Q168.85 -106.9 174.7 -64.95 176.1 -51.75 165.3 -33.3 156.8 -18.15 128.3 1.3 L119.7 6.7 96.2 19.95 79.3 28.55 47.55 43.3 15.7 56.2 Q-8.95 64.8 -26.55 69.95 L-47.55 75.05 -51.95 76.55 -56.3 79.45 Q-61.25 83.8 -47.95 92.2 -10.15 109.3 4.45 117.95 L11.05 122.55 14.7 126.3 Q24.8 141.35 -1.05 151.2 -16.0 156.9 -46.2 149.2 L-47.7 147.55 -43.7 146.3 Q-17.3 149.05 -8.45 144.8 1.0 142.2 -4.8 131.55 -10.95 125.5 -27.05 115.7 L-33.95 112.3 -59.55 101.05 Q-72.4 94.95 -85.3 88.8 L-86.95 87.8 -90.45 83.95 Q-93.25 78.3 -89.3 74.7 L-87.3 73.3 Q-76.5 70.25 -69.45 66.95 L-61.3 61.7 -57.05 57.45 -54.55 53.3 Q-52.9 49.45 -53.95 45.05 -56.0 39.4 -59.3 35.8 L-64.95 29.7 -70.3 25.7 -77.95 21.05 Q-93.45 8.75 -99.95 5.2 L-109.8 -2.7 -113.45 -6.2 Q-122.55 -13.35 -130.7 -34.45 L-132.8 -42.55 Q-134.7 -52.75 -134.55 -56.2 -135.75 -93.2 -104.2 -122.7 -94.4 -132.4 -61.3 -145.8 -39.95 -154.65 -7.55 -155.7 15.15 -156.75 54.45 -149.55 79.25 -145.6 116.3 -130.05 M94.45 -17.2 L93.95 -16.2 Q88.95 -8.7 79.95 -16.2 L78.05 -18.2 77.7 -18.2 78.55 -16.2 Q83.55 -6.4 88.55 -6.8 95.25 -7.9 95.2 -16.2 L94.95 -17.2 94.45 -17.2" fill="#ffffff" fill-rule="evenodd" stroke="none"/>
  </g>
</svg>
