<?xml version="1.0" encoding="UTF-8" standalone="no"?>
<svg xmlns:xlink="http://www.w3.org/1999/xlink" height="312.05px" width="311.85px" xmlns="http://www.w3.org/2000/svg">
  <g transform="matrix(1.0, 0.0, 0.0, 1.0, 135.3, 158.4)">
    <path d="M37.3 -41.95 L35.2 -47.7 Q33.95 -52.9 34.2 -54.8 L34.45 -61.55 36.05 -67.7 Q38.85 -75.75 44.45 -80.55 62.3 -91.6 74.2 -80.55 L78.3 -76.05 Q81.45 -71.75 82.55 -67.7 L84.2 -61.7 84.55 -54.8 83.7 -48.55 81.3 -41.95 Q79.3 -35.15 69.3 -29.05 55.3 -24.3 49.3 -29.05 42.05 -32.15 37.3 -41.95 M137.3 -80.55 Q142.25 -78.5 147.95 -67.7 L149.55 -62.95 Q150.5 -60.0 150.7 -54.8 L150.45 -49.95 Q149.25 -43.2 148.3 -41.95 146.75 -35.65 138.95 -29.05 125.2 -19.8 111.95 -29.05 105.1 -34.15 102.55 -41.95 L100.7 -48.2 100.2 -54.8 100.95 -61.45 102.95 -67.7 Q106.45 -76.0 113.45 -80.55 127.5 -87.35 137.3 -80.55 M64.45 -54.8 Q65.7 -61.95 58.95 -64.05 51.35 -64.7 51.55 -54.8 52.2 -49.9 56.8 -48.7 62.75 -47.65 64.45 -54.8 M129.8 -54.8 Q129.55 -61.0 123.8 -61.95 117.85 -62.5 116.7 -54.8 116.5 -47.25 123.05 -46.45 129.45 -46.25 129.8 -54.8 M94.55 -16.2 L95.55 -18.55 96.05 -18.55 96.3 -16.2 Q95.7 -7.95 88.55 -8.2 84.5 -8.7 80.2 -16.2 76.6 -22.95 82.8 -16.2 88.45 -11.45 94.55 -16.2" fill="#000000" fill-rule="evenodd" stroke="none"/>
    <path d="M137.3 -80.55 Q127.5 -87.35 113.45 -80.55 106.45 -76.0 102.95 -67.7 L100.95 -61.45 100.2 -54.8 100.7 -48.2 102.55 -41.95 Q105.1 -34.15 111.95 -29.05 125.2 -19.8 138.95 -29.05 146.75 -35.65 148.3 -41.95 149.25 -43.2 150.45 -49.95 L150.7 -54.8 Q150.5 -60.0 149.55 -62.95 L147.95 -67.7 Q142.25 -78.5 137.3 -80.55 M37.3 -41.95 Q42.05 -32.15 49.3 -29.05 55.3 -24.3 69.3 -29.05 79.3 -35.15 81.3 -41.95 L83.7 -48.55 84.55 -54.8 84.2 -61.7 82.55 -67.7 Q81.45 -71.75 78.3 -76.05 L74.2 -80.55 Q62.3 -91.6 44.45 -80.55 38.85 -75.75 36.05 -67.7 L34.45 -61.55 34.2 -54.8 Q33.95 -52.9 35.2 -47.7 L37.3 -41.95 M129.8 -54.8 Q129.45 -46.25 123.05 -46.45 116.5 -47.25 116.7 -54.8 117.85 -62.5 123.8 -61.95 129.55 -61.0 129.8 -54.8 M64.45 -54.8 Q62.75 -47.65 56.8 -48.7 52.2 -49.9 51.55 -54.8 51.35 -64.7 58.95 -64.05 65.7 -61.95 64.45 -54.8 M118.55 -131.95 Q175.05 -104.2 176.55 -65.95 177.05 -48.2 164.05 -30.45 155.0 -16.8 128.7 0.8 L119.55 6.45 96.55 19.3 77.8 28.8 48.95 42.2 36.55 47.45 14.05 56.2 -21.7 67.8 Q-28.45 70.25 -49.2 74.95 L-51.95 75.95 -56.3 78.7 Q-61.45 83.65 -48.05 91.7 -10.55 108.5 6.95 119.05 L14.05 124.8 Q25.75 142.1 -0.8 151.2 -15.95 157.0 -46.55 149.05 L-48.05 147.55 -44.3 146.3 Q-16.0 148.8 -8.45 144.8 0.85 142.3 -4.05 132.3 -7.4 127.25 -27.95 114.95 L-64.95 98.3 Q-75.55 93.2 -86.2 88.05 L-87.45 87.3 -91.2 83.2 Q-93.75 78.95 -90.05 74.2 L-87.95 72.7 Q-71.2 67.6 -69.95 66.3 L-62.2 61.45 -57.7 57.2 -54.7 52.45 Q-52.95 48.5 -54.2 43.8 -55.8 39.25 -59.45 34.95 L-64.95 28.95 -69.55 25.3 -78.3 19.95 Q-93.45 8.0 -102.05 2.8 L-108.95 -2.7 -114.95 -8.3 Q-127.7 -22.0 -131.45 -35.95 L-133.8 -45.45 -135.3 -57.2 Q-136.0 -96.45 -104.95 -124.7 -95.05 -134.7 -60.2 -148.7 -41.7 -156.7 -6.7 -158.2 12.15 -159.5 55.05 -152.05 89.05 -145.4 118.55 -131.95 M94.55 -16.2 Q88.45 -11.45 82.8 -16.2 76.6 -22.95 80.2 -16.2 84.5 -8.7 88.55 -8.2 95.7 -7.95 96.3 -16.2 L96.05 -18.55 95.55 -18.55 94.55 -16.2" fill="#ffffff" fill-rule="evenodd" stroke="none"/>
  </g>
</svg>
