<?xml version="1.0" encoding="UTF-8" standalone="no"?>
<svg xmlns:xlink="http://www.w3.org/1999/xlink" height="313.85px" width="313.95px" xmlns="http://www.w3.org/2000/svg">
  <g transform="matrix(1.0, 0.0, 0.0, 1.0, 135.85, 160.25)">
    <path d="M140.45 -80.55 L145.3 -75.55 Q148.45 -71.25 149.55 -67.7 L151.2 -62.3 151.8 -54.8 151.45 -49.8 Q150.35 -44.5 149.05 -41.95 145.8 -33.65 138.55 -29.05 122.2 -22.05 114.3 -29.05 106.3 -34.9 103.8 -41.95 L101.7 -48.7 101.05 -54.8 101.45 -60.7 103.3 -67.7 Q107.7 -77.5 112.55 -80.55 128.6 -90.1 140.45 -80.55 M38.45 -41.95 L35.95 -47.8 34.7 -54.8 34.7 -60.8 36.05 -67.7 Q37.1 -71.4 39.45 -75.3 L43.55 -80.55 Q50.5 -87.9 61.7 -87.45 70.85 -86.4 76.3 -80.55 L80.05 -75.95 Q82.2 -72.6 83.8 -67.7 L85.05 -62.3 85.2 -54.8 84.3 -49.05 Q83.45 -45.4 81.55 -41.95 77.55 -33.15 67.55 -29.05 56.95 -26.3 52.3 -29.05 45.0 -30.65 38.45 -41.95 M64.95 -54.8 Q66.3 -63.85 59.7 -65.3 50.3 -64.55 52.45 -54.8 53.75 -50.35 57.8 -49.8 62.5 -49.05 64.95 -54.8 M130.95 -54.8 Q131.25 -61.9 124.8 -63.2 118.1 -63.65 117.7 -54.8 118.5 -48.4 123.05 -47.7 129.6 -46.65 130.95 -54.8 M94.55 -16.2 Q95.6 -16.75 96.45 -19.55 L96.95 -19.55 97.05 -16.2 Q94.75 -7.75 89.7 -9.05 85.5 -9.5 81.55 -16.2 L79.55 -20.05 79.45 -20.55 79.8 -20.55 82.95 -17.45 85.45 -16.2 Q90.1 -13.2 94.55 -16.2" fill="#000000" fill-rule="evenodd" stroke="none"/>
    <path d="M140.45 -80.55 Q128.6 -90.1 112.55 -80.55 107.7 -77.5 103.3 -67.7 L101.45 -60.7 101.05 -54.8 101.7 -48.7 103.8 -41.95 Q106.3 -34.9 114.3 -29.05 122.2 -22.05 138.55 -29.05 145.8 -33.65 149.05 -41.95 150.35 -44.5 151.45 -49.8 L151.8 -54.8 151.2 -62.3 149.55 -67.7 Q148.45 -71.25 145.3 -75.55 L140.45 -80.55 M-10.95 -159.95 Q9.25 -161.5 50.7 -154.8 80.1 -150.25 118.8 -133.95 170.8 -111.5 177.8 -68.3 179.75 -55.95 168.45 -36.05 158.85 -19.65 131.05 -0.95 L122.7 4.3 98.8 17.8 77.7 28.55 45.2 43.45 33.2 48.45 11.55 56.7 -23.8 68.05 Q-32.55 70.85 -47.3 73.95 L-52.3 75.7 -56.3 78.3 Q-60.8 83.65 -49.3 90.55 -4.9 110.65 9.3 120.3 L12.45 122.7 15.95 126.55 Q25.05 142.0 -0.3 151.2 -21.3 156.9 -46.3 149.2 L-47.95 147.55 -43.95 146.3 Q-17.25 149.1 -7.8 144.7 L-3.8 142.3 -2.3 140.3 -1.8 137.05 Q-1.25 136.9 -3.95 131.8 L-9.2 126.95 -25.45 116.05 Q-30.9 112.8 -60.55 100.05 L-87.05 87.3 -91.3 82.95 Q-92.8 79.5 -92.3 77.8 L-90.45 73.95 -87.95 72.2 Q-72.25 67.55 -70.3 65.95 L-61.7 60.55 -57.45 56.3 Q-52.05 47.95 -54.2 43.05 -57.55 35.05 -66.45 27.05 -110.9 -3.2 -113.05 -6.95 -122.9 -14.15 -131.95 -37.05 L-134.45 -47.2 -135.8 -58.05 Q-136.7 -96.45 -107.05 -124.8 -93.95 -137.0 -64.3 -148.95 -46.0 -157.45 -10.95 -159.95 M38.45 -41.95 Q45.0 -30.65 52.3 -29.05 56.95 -26.3 67.55 -29.05 77.55 -33.15 81.55 -41.95 83.45 -45.4 84.3 -49.05 L85.2 -54.8 85.05 -62.3 83.8 -67.7 Q82.2 -72.6 80.05 -75.95 L76.3 -80.55 Q70.85 -86.4 61.7 -87.45 50.5 -87.9 43.55 -80.55 L39.45 -75.3 Q37.1 -71.4 36.05 -67.7 L34.7 -60.8 34.7 -54.8 35.95 -47.8 38.45 -41.95 M130.95 -54.8 Q129.6 -46.65 123.05 -47.7 118.5 -48.4 117.7 -54.8 118.1 -63.65 124.8 -63.2 131.25 -61.9 130.95 -54.8 M64.95 -54.8 Q62.5 -49.05 57.8 -49.8 53.75 -50.35 52.45 -54.8 50.3 -64.55 59.7 -65.3 66.3 -63.85 64.95 -54.8 M94.55 -16.2 Q90.1 -13.2 85.45 -16.2 L82.95 -17.45 79.8 -20.55 79.45 -20.55 79.55 -20.05 81.55 -16.2 Q85.5 -9.5 89.7 -9.05 94.75 -7.75 97.05 -16.2 L96.95 -19.55 96.45 -19.55 Q95.6 -16.75 94.55 -16.2" fill="#ffffff" fill-rule="evenodd" stroke="none"/>
  </g>
</svg>
