<?xml version="1.0" encoding="UTF-8" standalone="no"?>
<svg xmlns:xlink="http://www.w3.org/1999/xlink" height="315.0px" width="315.05px" xmlns="http://www.w3.org/2000/svg">
  <g transform="matrix(1.0, 0.0, 0.0, 1.0, 136.15, 161.25)">
    <path d="M53.05 -54.8 L53.55 -53.55 54.95 -51.95 57.95 -50.55 Q63.35 -50.2 65.05 -54.8 67.5 -63.2 60.2 -66.05 50.75 -66.2 53.05 -54.8 M39.05 -41.95 L36.95 -46.45 Q35.85 -48.75 35.05 -54.8 L34.95 -61.2 36.2 -67.7 38.55 -73.95 Q39.75 -76.65 43.2 -80.55 63.0 -96.1 77.55 -80.55 L80.8 -76.3 Q82.95 -73.15 84.55 -67.7 L85.7 -61.95 85.7 -54.8 84.8 -49.8 Q83.7 -45.25 81.55 -41.95 77.1 -32.4 65.95 -29.05 63.95 -28.2 58.95 -28.3 L54.8 -29.05 Q43.95 -32.15 39.05 -41.95 M142.05 -80.55 L146.05 -76.3 Q148.3 -73.65 150.55 -67.7 L151.95 -62.95 Q152.85 -57.5 152.55 -54.8 L151.95 -49.3 Q150.7 -44.0 149.45 -41.95 147.3 -35.15 138.2 -29.05 122.75 -23.3 116.05 -29.05 107.0 -35.15 104.7 -41.95 L102.3 -48.95 101.7 -54.8 101.95 -61.2 103.55 -67.7 Q105.45 -72.7 107.3 -75.2 L112.05 -80.55 Q119.1 -86.8 129.45 -86.05 133.75 -85.6 136.8 -84.05 L142.05 -80.55 M131.45 -54.8 Q132.3 -62.25 125.7 -63.95 118.35 -64.5 118.3 -54.8 119.0 -49.1 124.45 -48.3 129.7 -47.55 131.45 -54.8 M95.95 -17.7 L96.95 -20.2 97.45 -20.2 97.8 -17.95 97.45 -16.2 Q95.0 -8.45 89.8 -9.7 85.25 -10.95 82.45 -16.2 L80.7 -19.05 79.95 -21.05 80.3 -21.2 Q82.0 -18.7 83.95 -17.7 L87.2 -16.2 90.2 -15.3 92.7 -15.45 94.2 -16.2 95.95 -17.7" fill="#000000" fill-rule="evenodd" stroke="none"/>
    <path d="M142.05 -80.55 L136.8 -84.05 Q133.75 -85.6 129.45 -86.05 119.1 -86.8 112.05 -80.55 L107.3 -75.2 Q105.45 -72.7 103.55 -67.7 L101.95 -61.2 101.7 -54.8 102.3 -48.95 104.7 -41.95 Q107.0 -35.15 116.05 -29.05 122.75 -23.3 138.2 -29.05 147.3 -35.15 149.45 -41.95 150.7 -44.0 151.95 -49.3 L152.55 -54.8 Q152.85 -57.5 151.95 -62.95 L150.55 -67.7 Q148.3 -73.65 146.05 -76.3 L142.05 -80.55 M39.05 -41.95 Q43.95 -32.15 54.8 -29.05 L58.95 -28.3 Q63.95 -28.2 65.95 -29.05 77.1 -32.4 81.55 -41.95 83.7 -45.25 84.8 -49.8 L85.7 -54.8 85.7 -61.95 84.55 -67.7 Q82.95 -73.15 80.8 -76.3 L77.55 -80.55 Q63.0 -96.1 43.2 -80.55 39.75 -76.65 38.55 -73.95 L36.2 -67.7 34.95 -61.2 35.05 -54.8 Q35.85 -48.75 36.95 -46.45 L39.05 -41.95 M53.05 -54.8 Q50.75 -66.2 60.2 -66.05 67.5 -63.2 65.05 -54.8 63.35 -50.2 57.95 -50.55 L54.95 -51.95 53.55 -53.55 53.05 -54.8 M131.45 -54.8 Q129.7 -47.55 124.45 -48.3 119.0 -49.1 118.3 -54.8 118.35 -64.5 125.7 -63.95 132.3 -62.25 131.45 -54.8 M121.05 -134.2 Q177.0 -106.4 178.7 -68.3 180.3 -55.05 167.95 -34.8 161.2 -21.8 129.95 -0.3 L120.55 5.45 96.55 18.8 72.05 31.05 43.2 44.05 10.2 56.95 -25.8 68.45 -47.2 73.7 -52.2 75.45 -56.45 78.2 Q-61.15 83.1 -48.55 90.8 4.6 115.35 8.05 119.2 L14.55 124.45 Q26.5 142.05 0.2 151.2 -17.9 157.15 -46.2 149.2 L-47.8 147.7 -43.55 146.3 Q-16.45 149.05 -7.8 144.8 1.75 142.5 -3.95 131.45 -7.9 126.55 -28.55 114.2 L-65.45 97.7 -86.8 87.3 -91.3 82.8 Q-93.95 78.8 -90.55 73.8 L-87.7 71.8 Q-77.8 69.2 -69.95 65.55 L-61.95 60.45 -57.45 56.05 Q-52.05 47.7 -54.2 42.8 -56.2 37.75 -58.7 34.95 L-65.2 27.7 -68.95 24.7 -78.3 18.95 Q-96.25 4.9 -100.45 2.95 L-109.8 -4.3 -114.8 -9.05 Q-127.7 -21.9 -132.55 -38.95 L-134.2 -45.2 -136.05 -57.95 Q-138.05 -96.25 -106.05 -126.8 -94.9 -137.8 -60.95 -151.3 -37.5 -160.65 -4.3 -161.2 18.15 -161.9 56.7 -154.8 85.0 -149.9 121.05 -134.2 M95.95 -17.7 L94.2 -16.2 92.7 -15.45 90.2 -15.3 87.2 -16.2 83.95 -17.7 Q82.0 -18.7 80.3 -21.2 L79.95 -21.05 80.7 -19.05 82.45 -16.2 Q85.25 -10.95 89.8 -9.7 95.0 -8.45 97.45 -16.2 L97.8 -17.95 97.45 -20.2 96.95 -20.2 95.95 -17.7" fill="#ffffff" fill-rule="evenodd" stroke="none"/>
  </g>
</svg>
