<?xml version="1.0" encoding="UTF-8" standalone="no"?>
<svg xmlns:xlink="http://www.w3.org/1999/xlink" height="315.4px" width="315.25px" xmlns="http://www.w3.org/2000/svg">
  <g transform="matrix(1.0, 0.0, 0.0, 1.0, 157.6, 157.7)">
    <path d="M80.5 -50.85 L81.65 -43.5 83.75 -38.0 Q87.95 -28.7 95.4 -25.1 104.0 -19.6 116.65 -25.1 125.8 -30.7 128.25 -38.0 129.3 -39.45 130.65 -44.6 L131.5 -50.85 131.15 -57.85 129.65 -63.75 Q129.5 -65.3 125.4 -72.1 L121.25 -76.6 Q108.3 -88.4 90.65 -76.6 L86.0 -71.25 Q83.3 -67.0 82.4 -63.75 L80.75 -57.0 80.5 -50.85 M64.65 -57.25 L63.5 -63.75 Q62.15 -68.65 59.75 -72.5 L56.65 -76.6 Q51.65 -83.15 41.15 -84.6 29.3 -85.35 21.75 -76.6 L18.0 -71.5 Q16.55 -69.35 14.9 -63.75 L13.75 -57.85 13.9 -50.85 Q13.75 -49.05 15.65 -43.0 L18.0 -38.0 Q23.25 -27.7 34.5 -25.1 L37.25 -24.6 43.75 -25.1 Q56.2 -28.7 60.4 -38.0 62.3 -41.25 63.5 -45.5 L64.5 -50.85 64.65 -57.25 M121.6 -5.55 L115.6 -1.15 109.15 3.25 98.25 9.95 72.75 24.0 53.75 33.5 26.65 45.9 12.65 51.75 -11.0 60.75 -47.75 72.5 -70.6 78.25 -73.35 79.25 -77.85 82.15 Q-82.8 86.3 -69.0 95.25 -30.1 112.75 -15.25 121.75 L-10.6 124.9 -6.75 128.25 Q5.15 146.55 -21.0 155.15 -41.0 161.1 -67.5 153.15 L-69.0 151.65 -65.1 150.4 -59.75 150.25 -44.75 151.4 -33.85 150.15 -29.0 148.75 Q-19.3 146.05 -25.35 135.15 -27.55 131.7 -50.0 118.0 L-83.6 103.0 -108.5 91.0 -112.75 86.5 -113.75 82.5 Q-114.05 80.75 -111.6 77.5 L-109.1 75.75 Q-91.5 70.55 -89.85 68.65 L-83.5 64.5 -78.85 60.15 Q-73.55 52.7 -75.5 46.5 -77.05 42.2 -80.85 37.65 L-87.35 30.75 -92.75 26.9 -100.5 22.15 Q-115.05 10.55 -125.85 3.75 L-131.25 -0.6 -137.25 -6.35 Q-147.1 -15.75 -153.5 -33.6 L-155.6 -41.6 Q-156.7 -45.4 -157.5 -54.6 -159.45 -92.7 -127.1 -123.5 -116.1 -134.5 -80.1 -148.5 -59.75 -156.7 -25.85 -157.6 -4.7 -158.45 34.25 -151.5 64.05 -146.4 100.65 -130.25 154.65 -103.9 157.65 -65.0 158.15 -46.1 145.65 -29.25 138.35 -18.25 121.6 -5.55" fill="#ffffff" fill-rule="evenodd" stroke="none"/>
  </g>
</svg>
