<?xml version="1.0" encoding="UTF-8" standalone="no"?>
<svg xmlns:xlink="http://www.w3.org/1999/xlink" height="62.3px" width="117.75px" xmlns="http://www.w3.org/2000/svg">
  <g transform="matrix(1.0, 0.0, 0.0, 1.0, -13.75, 84.65)">
    <path d="M80.5 -50.85 L80.75 -57.0 82.4 -63.75 Q83.3 -67.0 86.0 -71.25 L90.65 -76.6 Q108.3 -88.4 121.25 -76.6 L125.4 -72.1 Q129.5 -65.3 129.65 -63.75 L131.15 -57.85 131.5 -50.85 130.65 -44.6 Q129.3 -39.45 128.25 -38.0 125.8 -30.7 116.65 -25.1 104.0 -19.6 95.4 -25.1 87.95 -28.7 83.75 -38.0 L81.65 -43.5 80.5 -50.85 M56.65 -76.6 L59.75 -72.5 Q62.15 -68.65 63.5 -63.75 L64.65 -57.25 64.5 -50.85 63.5 -45.5 Q62.3 -41.25 60.4 -38.0 56.2 -28.7 43.75 -25.1 L37.25 -24.6 34.5 -25.1 Q23.25 -27.7 18.0 -38.0 L15.65 -43.0 Q13.75 -49.05 13.9 -50.85 L13.75 -57.85 14.9 -63.75 Q16.55 -69.35 18.0 -71.5 L21.75 -76.6 Q29.3 -85.35 41.15 -84.6 51.65 -83.15 56.65 -76.6 M32.0 -50.85 L32.5 -49.6 33.9 -48.1 36.65 -46.85 Q42.55 -46.6 43.75 -50.85 46.3 -59.9 39.15 -62.35 29.45 -62.6 32.0 -50.85 M104.65 -60.25 Q96.55 -60.2 97.25 -50.85 97.55 -46.0 103.15 -44.6 108.75 -44.0 110.4 -50.85 111.75 -57.45 104.65 -60.25" fill="#000000" fill-rule="evenodd" stroke="none"/>
    <path d="M104.65 -60.25 Q111.75 -57.45 110.4 -50.85 108.75 -44.0 103.15 -44.6 97.55 -46.0 97.25 -50.85 96.55 -60.2 104.65 -60.25 M32.0 -50.85 Q29.45 -62.6 39.15 -62.35 46.3 -59.9 43.75 -50.85 42.55 -46.6 36.65 -46.85 L33.9 -48.1 32.5 -49.6 32.0 -50.85" fill="#ffffff" fill-rule="evenodd" stroke="none"/>
  </g>
</svg>
