<?xml version="1.0" encoding="UTF-8" standalone="no"?>
<svg xmlns:xlink="http://www.w3.org/1999/xlink" height="62.3px" width="118.1px" xmlns="http://www.w3.org/2000/svg">
  <g transform="matrix(1.0, 0.0, 0.0, 1.0, -13.4, 84.65)">
    <path d="M13.95 -58.9 L14.9 -63.75 Q16.55 -69.35 18.0 -71.5 L21.75 -76.6 Q29.3 -85.35 41.15 -84.6 51.65 -83.15 56.65 -76.6 L59.75 -72.5 Q62.15 -68.65 63.5 -63.75 L64.65 -57.25 64.5 -50.85 63.5 -45.5 Q62.3 -41.25 60.4 -38.0 56.2 -28.7 43.75 -25.1 L37.25 -24.6 34.5 -25.1 Q23.25 -27.7 18.0 -38.0 L15.65 -43.0 Q13.75 -49.05 13.9 -50.85 L13.75 -57.85 13.95 -58.9 Q14.25 -56.8 15.65 -52.3 L18.0 -47.3 Q23.25 -37.0 34.5 -34.4 L37.25 -33.9 43.75 -34.4 Q56.2 -38.0 60.4 -47.3 62.3 -50.55 63.5 -54.8 62.3 -50.55 60.4 -47.3 56.2 -38.0 43.75 -34.4 L37.25 -33.9 34.5 -34.4 Q23.25 -37.0 18.0 -47.3 L15.65 -52.3 Q14.25 -56.8 13.95 -58.9 M80.5 -50.85 L80.75 -57.0 82.4 -63.75 Q83.3 -67.0 86.0 -71.25 L90.65 -76.6 Q108.3 -88.4 121.25 -76.6 L125.4 -72.1 Q129.5 -65.3 129.65 -63.75 L131.15 -57.85 131.5 -50.85 130.65 -44.6 Q129.3 -39.45 128.25 -38.0 125.8 -30.7 116.65 -25.1 104.0 -19.6 95.4 -25.1 87.95 -28.7 83.75 -38.0 L81.65 -43.5 80.5 -50.85 M130.65 -58.55 Q129.3 -53.4 128.25 -51.95 125.8 -44.65 116.65 -39.05 104.0 -33.55 95.4 -39.05 87.95 -42.65 83.75 -51.95 L81.65 -57.45 83.75 -51.95 Q87.95 -42.65 95.4 -39.05 104.0 -33.55 116.65 -39.05 125.8 -44.65 128.25 -51.95 129.3 -53.4 130.65 -58.55" fill="#ffffff" fill-rule="evenodd" stroke="none"/>
    <path d="M13.95 -58.9 Q14.25 -56.8 15.65 -52.3 L18.0 -47.3 Q23.25 -37.0 34.5 -34.4 L37.25 -33.9 43.75 -34.4 Q56.2 -38.0 60.4 -47.3 62.3 -50.55 63.5 -54.8 M13.9 -60.15 L13.95 -58.9 M81.65 -57.45 L83.75 -51.95 Q87.95 -42.65 95.4 -39.05 104.0 -33.55 116.65 -39.05 125.8 -44.65 128.25 -51.95 129.3 -53.4 130.65 -58.55" fill="none" stroke="#3f0102" stroke-linecap="round" stroke-linejoin="round" stroke-width="1.0"/>
  </g>
</svg>
