<?xml version="1.0" encoding="UTF-8" standalone="no"?>
<svg xmlns:xlink="http://www.w3.org/1999/xlink" height="26.4px" width="16.2px" xmlns="http://www.w3.org/2000/svg">
  <g transform="matrix(1.0, 0.0, 0.0, 1.0, 8.1, 4.5)">
    <path d="M3.8 2.6 Q4.6 1.8 4.65 0.65 4.6 -0.55 3.8 -1.3 3.05 -2.1 1.85 -2.15 0.55 -2.1 -0.25 -1.15 -1.05 -2.1 -2.35 -2.15 -3.55 -2.1 -4.3 -1.3 -5.1 -0.55 -5.1 0.65 -5.1 1.8 -4.3 2.6 -3.55 3.4 -2.35 3.4 -1.05 3.35 -0.25 2.45 0.55 3.35 1.85 3.4 3.05 3.4 3.8 2.6 M2.45 -4.5 Q4.65 -4.45 6.1 -3.0 7.55 -1.55 7.6 0.65 7.55 2.8 6.1 4.25 4.65 5.7 2.45 5.8 L0.9 5.55 0.9 11.6 4.5 11.6 4.5 14.05 0.9 14.05 0.9 14.95 4.5 14.95 4.5 17.4 0.9 17.4 0.9 18.3 4.5 18.3 4.5 20.75 3.55 20.75 1.85 20.75 Q1.3 21.0 1.1 21.4 L0.55 21.85 -0.85 21.5 Q-1.5 21.05 -1.5 19.75 L-1.5 15.6 -1.5 9.0 -1.5 5.55 -2.95 5.8 Q-5.15 5.7 -6.6 4.25 -8.05 2.8 -8.1 0.65 -8.05 -1.55 -6.6 -3.0 -5.15 -4.45 -2.95 -4.5 -1.45 -4.45 -0.25 -3.7 0.95 -4.45 2.45 -4.5" fill="#edb329" fill-rule="evenodd" stroke="none"/>
    <path d="M5.0 11.15 L5.0 13.6 1.4 13.6 1.4 14.5 5.0 14.5 5.0 16.95 1.4 16.95 1.4 17.85 5.0 17.85 5.0 20.3 2.85 20.3 -0.05 20.3 Q-0.8 20.25 -0.9 19.7 L-1.0 19.1 -1.0 9.35 1.4 9.75 1.4 11.15 5.0 11.15" fill="#edb329" fill-rule="evenodd" stroke="none"/>
    <path d="M0.15 3.3 L-0.3 3.35 -0.25 2.5 0.35 2.5 0.15 3.3" fill="#edb329" fill-rule="evenodd" stroke="none"/>
    <path d="M0.35 -1.1 L-0.25 -1.1 -0.3 -1.85 0.35 -1.85 0.35 -1.1" fill="#edb329" fill-rule="evenodd" stroke="none"/>
    <path d="M4.3 2.6 Q5.1 1.8 5.15 0.65 5.1 -0.55 4.3 -1.3 3.55 -2.1 2.35 -2.15 1.05 -2.1 0.25 -1.15 -0.55 -2.1 -1.85 -2.15 -3.05 -2.1 -3.8 -1.3 -4.6 -0.55 -4.6 0.65 -4.6 1.8 -3.8 2.6 -3.05 3.4 -1.85 3.4 -0.55 3.35 0.25 2.45 1.05 3.35 2.35 3.4 3.55 3.4 4.3 2.6 M2.95 -4.5 Q5.15 -4.45 6.6 -3.0 8.05 -1.55 8.1 0.65 8.05 2.8 6.6 4.25 5.15 5.7 2.95 5.8 L1.4 5.55 1.4 11.6 5.0 11.6 5.0 14.05 1.4 14.05 1.4 14.95 5.0 14.95 5.0 17.4 1.4 17.4 1.4 18.3 5.0 18.3 5.0 20.75 1.4 20.75 1.2 21.3 Q1.0 21.8 0.2 21.9 -0.6 21.8 -0.8 21.3 L-1.0 20.75 -1.0 5.55 -2.45 5.8 Q-4.65 5.7 -6.1 4.25 -7.55 2.8 -7.6 0.65 -7.55 -1.55 -6.1 -3.0 -4.65 -4.45 -2.45 -4.5 -0.95 -4.45 0.25 -3.7 1.45 -4.45 2.95 -4.5" fill="#fede58" fill-rule="evenodd" stroke="none"/>
    <path d="M1.9 14.0 L1.45 14.0 1.45 11.15 1.9 11.15 1.9 14.0" fill="#edb329" fill-rule="evenodd" stroke="none"/>
    <path d="M1.9 17.4 L1.45 17.4 1.45 14.55 1.9 14.55 1.9 17.4" fill="#edb329" fill-rule="evenodd" stroke="none"/>
    <path d="M1.9 20.75 L1.45 20.75 1.45 17.9 1.9 17.9 1.9 20.75" fill="#edb329" fill-rule="evenodd" stroke="none"/>
    <path d="M-1.3 5.65 L-0.7 5.5 0.4 5.0 1.45 5.55 Q1.65 5.65 1.5 5.7 L0.4 5.35 -0.55 5.7 -1.15 5.85 -1.3 5.65" fill="#edb329" fill-rule="evenodd" stroke="none"/>
  </g>
</svg>
