<?xml version="1.0" encoding="UTF-8" standalone="no"?>
<svg xmlns:xlink="http://www.w3.org/1999/xlink" height="170.95px" width="196.5px" xmlns="http://www.w3.org/2000/svg">
  <g transform="matrix(1.0, 0.0, 0.0, 1.0, 42.7, 112.0)">
    <path d="M4.9 -99.4 Q25.55 -104.15 64.25 -111.0 106.5 -119.5 145.85 -54.6 179.9 1.65 68.45 3.55 L60.9 22.65 61.1 22.65 60.9 22.7 60.85 22.8 Q55.15 21.3 51.0 21.0 46.85 20.65 42.65 22.3 L34.2 28.25 Q33.5 31.35 32.15 34.55 29.0 41.85 23.8 47.3 13.6 58.0 -3.3 58.95 -20.05 58.5 -31.15 47.4 -42.3 36.3 -42.7 19.55 -42.55 10.8 -37.45 -6.9 -32.4 -24.55 -28.7 -45.05 -25.05 -65.6 -30.6 -83.25 -32.95 -90.7 4.9 -99.4" fill="#1a8fe6" fill-opacity="0.3529412" fill-rule="evenodd" stroke="none"/>
  </g>
</svg>
