<?xml version="1.0" encoding="UTF-8" standalone="no"?>
<svg xmlns:xlink="http://www.w3.org/1999/xlink" height="97.0px" width="97.0px" xmlns="http://www.w3.org/2000/svg">
  <g transform="matrix(1.0, 0.0, 0.0, 1.0, 52.05, 28.1)">
    <path d="M-13.75 -16.75 Q2.15 -20.7 15.5 -13.05 28.85 -5.45 33.6 10.25 L33.6 10.2 Q37.5 26.1 29.9 39.45 22.25 52.8 6.6 57.55 L6.65 57.55 Q-9.25 61.45 -22.65 53.85 -36.0 46.2 -40.75 30.55 L-40.7 30.6 Q-44.65 14.7 -37.0 1.3 -29.4 -12.05 -13.7 -16.8 L-13.75 -16.75" fill="url(#gradient0)" fill-rule="evenodd" stroke="none"/>
    <path d="M-3.55 -28.1 Q17.05 -27.6 30.75 -13.9 44.4 -0.2 44.95 20.4 44.4 41.0 30.75 54.7 17.05 68.35 -3.55 68.9 -24.15 68.35 -37.85 54.7 -51.55 41.0 -52.05 20.4 -51.55 -0.2 -37.85 -13.9 -24.15 -27.6 -3.55 -28.1 M-14.3 -18.7 Q-30.8 -13.75 -38.75 0.3 -46.75 14.4 -42.65 31.1 L-42.65 31.15 Q-37.7 47.6 -23.65 55.6 -9.55 63.65 7.15 59.5 L7.2 59.45 Q23.65 54.5 31.65 40.45 39.6 26.4 35.55 9.7 L35.5 9.65 Q30.55 -6.85 16.5 -14.8 2.45 -22.8 -14.25 -18.7 L-14.3 -18.7" fill="#ee3f1a" fill-rule="evenodd" stroke="none"/>
    <path d="M-14.3 -18.7 L-14.25 -18.7 Q2.45 -22.8 16.5 -14.8 30.55 -6.85 35.5 9.65 L35.55 9.7 Q39.6 26.4 31.65 40.45 23.65 54.5 7.2 59.45 L7.15 59.5 Q-9.55 63.65 -23.65 55.6 -37.7 47.6 -42.65 31.15 L-42.65 31.1 Q-46.75 14.4 -38.75 0.3 -30.8 -13.75 -14.3 -18.7 M-13.75 -16.75 L-13.7 -16.8 Q-29.4 -12.05 -37.0 1.3 -44.65 14.7 -40.7 30.6 L-40.75 30.55 Q-36.0 46.2 -22.65 53.85 -9.25 61.45 6.65 57.55 L6.6 57.55 Q22.25 52.8 29.9 39.45 37.5 26.1 33.6 10.2 L33.6 10.25 Q28.85 -5.45 15.5 -13.05 2.15 -20.7 -13.75 -16.75" fill="#ffffff" fill-rule="evenodd" stroke="none"/>
  </g>
  <defs>
    <linearGradient gradientTransform="matrix(0.0465, -0.0127, 0.0127, 0.0465, -3.55, 20.4)" gradientUnits="userSpaceOnUse" id="gradient0" spreadMethod="pad" x1="-819.2" x2="819.2">
      <stop offset="0.0" stop-color="#ffffff"/>
      <stop offset="1.0" stop-color="#8bd3e5"/>
    </linearGradient>
  </defs>
</svg>
