<?xml version="1.0" encoding="UTF-8" standalone="no"?>
<svg xmlns:xlink="http://www.w3.org/1999/xlink" height="154.6px" width="160.55px" xmlns="http://www.w3.org/2000/svg">
  <g transform="matrix(1.0, 0.0, 0.0, 1.0, 80.35, 85.75)">
    <path d="M35.85 -73.4 L40.15 -76.65 44.3 -58.3 37.65 -38.45 -20.5 58.85 -66.3 65.95 -60.8 57.85 -53.5 60.95 -50.35 52.6 -39.35 53.9 -39.6 45.8 -32.0 46.55 -33.6 37.65 -25.2 37.95 -24.95 30.6 -18.9 28.25 -22.3 19.6 -15.5 15.65 -21.8 6.5 -12.9 2.85 -17.35 -6.85 -7.9 -8.95 -11.3 -19.45 -1.9 -18.15 -1.6 -28.85 7.0 -26.0 7.55 -38.3 19.05 -35.7 17.75 -44.05 27.45 -41.7 24.3 -49.8 33.2 -47.45 30.55 -55.4 38.15 -54.35 36.35 -60.7 40.5 -60.7 36.75 -67.35 40.4 -69.6 35.85 -73.4" fill="#f3e016" fill-rule="evenodd" stroke="none"/>
    <path d="M35.85 -73.4 L40.15 -76.65 44.3 -58.3 37.65 -38.45 -20.5 58.85 -66.3 65.95 -60.8 57.85 -53.5 60.95 -50.35 52.6 -39.35 53.9 -39.6 45.8 -32.0 46.55 -33.6 37.65 -25.2 37.95 -24.95 30.6 -18.9 28.25 -22.3 19.6 -15.5 15.65 -21.8 6.5 -12.9 2.85 -17.35 -6.85 -7.9 -8.95 -11.3 -19.45 -1.9 -18.15 -1.6 -28.85 7.0 -26.0 7.55 -38.3 19.05 -35.7 17.75 -44.05 27.45 -41.7 24.3 -49.8 33.2 -47.45 30.55 -55.4 38.15 -54.35 36.35 -60.7 40.5 -60.7 36.75 -67.35 40.4 -69.6 35.85 -73.4 Z" fill="none" stroke="#000000" stroke-linecap="round" stroke-linejoin="round" stroke-width="0.8"/>
    <path d="M52.45 -68.95 Q53.75 -56.1 62.8 -38.15 63.65 -37.6 70.1 -25.15 76.6 -12.7 78.85 4.75 81.15 22.25 69.3 37.9 57.45 53.6 21.65 60.6 15.15 61.3 8.75 59.7 2.4 58.1 -8.7 58.5 -19.8 58.9 -40.45 65.7 -57.5 69.75 -68.55 67.85 -79.55 66.0 -79.95 65.4 L-66.9 64.2 Q-54.6 62.5 -39.85 52.7 -25.15 42.9 -17.05 19.05 -13.15 -0.65 -6.65 -11.25 -0.2 -21.85 9.0 -29.05 L30.4 -45.55 Q38.4 -53.1 39.55 -60.7 40.65 -68.3 40.85 -73.7 L42.8 -77.9 Q44.65 -81.7 47.35 -84.25 50.05 -86.8 52.65 -83.4 51.2 -81.8 52.45 -68.95" fill="#4c8335" fill-rule="evenodd" stroke="none"/>
    <path d="M52.45 -68.95 Q53.75 -56.1 62.8 -38.15 63.65 -37.6 70.1 -25.15 76.6 -12.7 78.85 4.75 81.15 22.25 69.3 37.9 57.45 53.6 21.65 60.6 15.15 61.3 8.75 59.7 2.4 58.1 -8.7 58.5 -19.8 58.9 -40.45 65.7 -57.5 69.75 -68.55 67.85 -79.55 66.0 -79.95 65.4 L-66.9 64.2 Q-54.6 62.5 -39.85 52.7 -25.15 42.9 -17.05 19.05 -13.15 -0.65 -6.65 -11.25 -0.2 -21.85 9.0 -29.05 L30.4 -45.55 Q38.4 -53.1 39.55 -60.7 40.65 -68.3 40.85 -73.7 L42.8 -77.9 Q44.65 -81.7 47.35 -84.25 50.05 -86.8 52.65 -83.4 51.2 -81.8 52.45 -68.95 Z" fill="none" stroke="#000000" stroke-linecap="round" stroke-linejoin="round" stroke-width="0.8"/>
    <path d="M69.7 -24.8 Q73.8 -21.0 77.45 -7.1 81.15 6.85 79.05 23.65 76.95 40.45 63.8 52.85 50.65 65.25 21.15 65.95 11.9 49.75 11.9 31.2 11.9 12.65 17.85 -2.4 23.75 -17.45 32.2 -23.15 40.1 -28.9 44.3 -34.65 48.55 -40.35 54.05 -40.8 59.15 -40.85 60.55 -36.9 62.0 -32.95 69.7 -24.8" fill="#f3e016" fill-rule="evenodd" stroke="none"/>
    <path d="M69.7 -24.8 Q62.0 -32.95 60.55 -36.9 59.15 -40.85 54.05 -40.8 48.55 -40.35 44.3 -34.65 40.1 -28.9 32.2 -23.15 23.75 -17.45 17.85 -2.4 11.9 12.65 11.9 31.2 11.9 49.75 21.15 65.95 50.65 65.25 63.8 52.85 76.95 40.45 79.05 23.65 81.15 6.85 77.45 -7.1 73.8 -21.0 69.7 -24.8 Z" fill="none" stroke="#000000" stroke-linecap="round" stroke-linejoin="round" stroke-width="0.8"/>
  </g>
</svg>
