<?xml version="1.0" encoding="UTF-8" standalone="no"?>
<svg xmlns:xlink="http://www.w3.org/1999/xlink" height="51.1px" width="59.4px" xmlns="http://www.w3.org/2000/svg">
  <g transform="matrix(1.0, 0.0, 0.0, 1.0, 14.6, 25.7)">
    <path d="M7.45 8.65 L6.35 8.6 Q4.7 8.4 3.1 5.65 L1.9 2.9 Q3.2 3.45 3.9 3.95 5.9 5.45 7.45 8.65 M36.05 0.4 Q37.45 -3.85 39.7 -3.1 42.0 -2.3 40.65 1.9 39.3 6.15 36.95 5.4 34.7 4.7 36.05 0.4 M21.15 8.2 Q18.9 8.65 18.15 4.65 17.25 0.6 19.5 0.15 21.7 -0.3 22.5 3.75 23.3 7.75 21.15 8.2" fill="#000000" fill-rule="evenodd" stroke="none"/>
    <path d="M39.95 7.65 Q38.0 14.75 35.75 16.1 35.95 13.8 34.75 10.95 L34.35 10.15 35.2 10.25 37.3 10.05 39.95 7.65 M21.8 13.25 L21.95 13.25 20.7 15.65 Q19.5 18.5 19.7 20.8 18.25 19.95 16.8 16.6 18.3 16.0 21.0 13.85 L21.8 13.25" fill="#ffffff" fill-rule="evenodd" stroke="none"/>
    <path d="M17.35 -5.05 Q15.85 -4.2 14.5 -3.0 15.85 -4.2 17.35 -5.05 L17.6 -5.2 25.25 -7.2 29.35 -6.9 30.2 -6.75 Q34.65 -8.8 37.25 -8.95 39.0 -9.05 41.25 -8.15 45.85 -6.4 44.45 -0.4 43.4 4.0 39.95 7.65 L37.3 10.05 35.2 10.25 34.35 10.15 31.7 9.9 Q26.55 9.75 21.8 13.25 L21.0 13.85 Q18.3 16.0 16.8 16.6 L15.6 16.85 Q12.6 16.65 8.5 10.35 7.55 9.85 6.55 9.6 3.05 8.7 2.0 11.6 L2.05 9.75 -11.85 25.4 Q-11.2 15.3 -12.75 7.55 -14.45 1.0 -14.55 -1.6 -15.25 -20.55 -8.4 -24.15 -3.9 -26.85 0.0 -24.8 4.2 -22.65 9.6 -14.1 13.65 -7.55 16.85 -5.4 L17.35 -5.05 M7.45 8.65 L8.5 10.35 7.45 8.65 Q5.9 5.45 3.9 3.95 3.2 3.45 1.9 2.9 L3.1 5.65 Q4.7 8.4 6.35 8.6 L7.45 8.65 M-9.75 -5.85 Q-5.8 0.05 0.0 2.15 L1.9 2.9 0.0 2.15 Q-5.8 0.05 -9.75 -5.85 M36.05 0.4 Q34.7 4.7 36.95 5.4 39.3 6.15 40.65 1.9 42.0 -2.3 39.7 -3.1 37.45 -3.85 36.05 0.4 M21.15 8.2 Q23.3 7.75 22.5 3.75 21.7 -0.3 19.5 0.15 17.25 0.6 18.15 4.65 18.9 8.65 21.15 8.2" fill="#4c8335" fill-rule="evenodd" stroke="none"/>
    <path d="M14.5 -3.0 Q15.85 -4.2 17.35 -5.05 L16.85 -5.4 Q13.65 -7.55 9.6 -14.1 4.2 -22.65 0.0 -24.8 -3.9 -26.85 -8.4 -24.15 -15.25 -20.55 -14.55 -1.6 -14.45 1.0 -12.75 7.55 -11.2 15.3 -11.85 25.4 M2.0 11.6 Q3.05 8.7 6.55 9.6 7.55 9.85 8.5 10.35 L7.45 8.65 Q5.9 5.45 3.9 3.95 3.2 3.45 1.9 2.9 L0.0 2.15 Q-5.8 0.05 -9.75 -5.85 M17.6 -5.2 L25.25 -7.2 29.35 -6.9 30.2 -6.75 Q34.65 -8.8 37.25 -8.95 39.0 -9.05 41.25 -8.15 45.85 -6.4 44.45 -0.4 43.4 4.0 39.95 7.65 38.0 14.75 35.75 16.1 35.95 13.8 34.75 10.95 L34.35 10.15 31.7 9.9 Q26.55 9.75 21.8 13.25 L21.0 13.85 Q18.3 16.0 16.8 16.6 L15.6 16.85 Q12.6 16.65 8.5 10.35 M21.95 13.25 L20.7 15.65 Q19.5 18.5 19.7 20.8 18.25 19.95 16.8 16.6 M39.95 7.65 L37.3 10.05 35.2 10.25 34.35 10.15" fill="none" stroke="#000000" stroke-linecap="round" stroke-linejoin="round" stroke-width="0.05"/>
  </g>
</svg>
