<?xml version="1.0" encoding="UTF-8" standalone="no"?>
<svg xmlns:xlink="http://www.w3.org/1999/xlink" height="51.1px" width="59.4px" xmlns="http://www.w3.org/2000/svg">
  <g transform="matrix(1.0, 0.0, 0.0, 1.0, 14.6, 25.7)">
    <path d="M16.95 -5.8 L16.85 -5.9 17.0 -5.8 16.95 -5.8 M8.55 9.8 L7.95 8.85 7.6 8.25 8.55 9.8" fill="#648e4c" fill-rule="evenodd" stroke="none"/>
    <path d="M7.65 8.95 L6.45 8.95 Q4.75 8.75 2.9 6.15 1.25 3.75 1.25 2.55 L1.35 2.25 1.4 2.3 1.55 2.35 3.85 3.4 3.9 3.45 Q5.9 4.85 7.45 8.05 L7.6 8.25 7.95 8.85 7.65 8.95 M39.7 -4.1 Q42.0 -3.3 40.65 0.9 39.3 5.15 36.95 4.4 34.7 3.7 36.05 -0.6 37.45 -4.85 39.7 -4.1 M21.15 7.2 Q18.9 7.65 18.15 3.65 17.25 -0.4 19.5 -0.85 21.7 -1.3 22.5 2.75 23.3 6.75 21.15 7.2" fill="#000000" fill-rule="evenodd" stroke="none"/>
    <path d="M39.95 6.65 Q38.0 13.75 35.75 15.1 35.95 12.8 34.75 9.95 L34.35 9.15 35.2 9.25 37.3 9.05 39.95 6.65 M21.8 12.25 L21.95 12.25 20.7 14.65 Q19.5 17.5 19.7 19.8 18.3 18.95 16.85 15.7 18.35 15.0 21.0 12.85 L21.8 12.25" fill="#ffffff" fill-rule="evenodd" stroke="none"/>
    <path d="M16.95 -5.8 L14.5 -4.0 16.95 -5.8 17.0 -5.8 Q22.6 -9.3 30.2 -7.75 34.65 -9.8 37.25 -9.95 39.0 -10.05 41.25 -9.15 45.85 -7.4 44.45 -1.4 43.4 3.0 39.95 6.65 L37.3 9.05 35.2 9.25 34.35 9.15 31.7 8.9 Q26.55 8.75 21.8 12.25 L21.0 12.85 Q18.35 15.0 16.85 15.7 L15.75 16.05 15.6 16.05 15.2 16.0 15.15 16.0 15.05 16.0 15.0 15.95 14.9 15.95 14.8 15.9 8.55 9.8 7.6 8.25 7.45 8.05 Q5.9 4.85 3.9 3.45 L3.85 3.4 1.55 2.35 1.4 2.3 1.35 2.25 1.25 2.55 Q1.25 3.75 2.9 6.15 4.75 8.75 6.45 8.95 L7.65 8.95 9.35 11.4 Q7.75 10.35 5.9 9.85 2.4 8.9 1.35 11.6 L2.0 9.85 -11.85 25.4 Q-11.2 15.3 -12.75 7.55 -14.45 1.0 -14.55 -1.6 -15.25 -20.55 -8.4 -24.15 -3.9 -26.85 0.0 -24.8 4.2 -22.65 9.6 -14.1 13.45 -7.9 16.85 -5.9 L16.95 -5.8 M-9.75 -5.85 Q-5.8 0.1 0.0 1.8 L1.35 2.25 0.0 1.8 Q-5.8 0.1 -9.75 -5.85 M39.7 -4.1 Q37.45 -4.85 36.05 -0.6 34.7 3.7 36.95 4.4 39.3 5.15 40.65 0.9 42.0 -3.3 39.7 -4.1 M21.15 7.2 Q23.3 6.75 22.5 2.75 21.7 -1.3 19.5 -0.85 17.25 -0.4 18.15 3.65 18.9 7.65 21.15 7.2" fill="#4c8335" fill-rule="evenodd" stroke="none"/>
    <path d="M14.5 -4.0 L16.95 -5.8 17.0 -5.8 16.85 -5.9 Q13.45 -7.9 9.6 -14.1 4.2 -22.65 0.0 -24.8 -3.9 -26.85 -8.4 -24.15 -15.25 -20.55 -14.55 -1.6 -14.45 1.0 -12.75 7.55 -11.2 15.3 -11.85 25.4 M1.35 11.6 Q2.4 8.9 5.9 9.85 7.75 10.35 9.35 11.4 L7.65 8.95 M1.35 2.25 L0.0 1.8 Q-5.8 0.1 -9.75 -5.85 M17.0 -5.8 Q22.6 -9.3 30.2 -7.75 34.65 -9.8 37.25 -9.95 39.0 -10.05 41.25 -9.15 45.85 -7.4 44.45 -1.4 43.4 3.0 39.95 6.65 38.0 13.75 35.75 15.1 35.95 12.8 34.75 9.95 L34.35 9.15 31.7 8.9 Q26.55 8.75 21.8 12.25 L21.0 12.85 Q18.35 15.0 16.85 15.7 L15.75 16.05 15.6 16.05 15.2 16.0 15.15 16.0 15.05 16.0 M21.95 12.25 L20.7 14.65 Q19.5 17.5 19.7 19.8 18.3 18.95 16.85 15.7 M14.8 15.9 L8.55 9.8 7.6 8.25 7.45 8.05 Q5.9 4.85 3.9 3.45 L3.85 3.4 1.55 2.35 M39.95 6.65 L37.3 9.05 35.2 9.25 34.35 9.15" fill="none" stroke="#000000" stroke-linecap="round" stroke-linejoin="round" stroke-width="0.05"/>
  </g>
</svg>
