<?xml version="1.0" encoding="UTF-8" standalone="no"?>
<svg xmlns:xlink="http://www.w3.org/1999/xlink" height="93.8px" width="125.55px" xmlns="http://www.w3.org/2000/svg">
  <g transform="matrix(1.0, 0.0, 0.0, 1.0, -15.65, -48.8)">
    <path d="M114.2 50.55 Q117.6 49.25 118.75 52.5 119.2 53.8 119.1 55.25 120.2 57.35 120.3 59.75 L120.55 65.35 Q122.35 70.8 122.1 77.0 121.9 81.6 122.25 86.2 L123.5 101.55 Q127.6 101.1 130.05 104.1 L130.25 104.45 Q132.4 104.4 133.75 106.05 134.3 106.75 134.35 107.7 138.85 106.75 140.85 110.35 141.7 111.9 140.35 113.15 136.7 116.45 132.45 118.8 133.1 122.2 129.6 123.5 L125.5 124.95 125.55 125.1 125.6 125.7 125.55 126.25 125.55 126.45 Q130.75 131.35 124.65 136.45 121.55 139.0 117.5 140.6 111.05 143.1 104.35 142.45 103.0 142.3 102.8 140.95 102.25 137.35 105.6 135.55 100.15 137.45 98.4 133.05 98.0 132.0 98.5 130.95 L72.65 133.8 55.05 134.8 Q54.1 134.85 53.45 134.1 L32.05 135.9 Q30.95 135.95 30.4 134.9 30.05 134.2 30.1 133.35 25.45 134.3 21.55 131.9 20.95 131.55 20.8 130.75 20.1 130.1 19.8 129.2 19.45 127.9 19.85 126.65 L20.0 126.25 20.0 126.05 19.95 125.65 19.9 125.3 19.85 125.1 Q17.3 125.05 16.15 122.65 15.7 121.6 16.1 120.5 15.7 119.9 15.65 119.2 15.5 117.85 16.35 116.75 L16.7 116.35 Q14.1 111.15 19.9 108.9 L23.35 107.5 Q22.4 102.3 28.5 101.6 L32.3 100.95 Q30.1 99.15 31.7 96.9 33.15 94.8 35.85 94.5 L35.9 94.3 35.9 93.95 35.85 93.75 35.85 93.55 Q30.5 93.65 31.45 88.7 31.75 87.25 33.1 86.5 L33.55 86.2 Q30.15 83.7 32.7 80.2 34.2 78.15 36.1 76.45 36.25 75.95 35.95 75.45 35.5 74.6 35.65 73.6 L35.8 73.05 Q30.5 70.95 34.45 66.55 L38.45 61.55 Q41.15 57.8 44.45 55.2 44.9 54.85 45.5 54.8 50.05 51.0 51.95 56.15 52.45 57.45 51.55 58.6 L52.05 60.1 Q52.3 61.4 51.7 62.55 L51.35 63.1 53.0 63.9 Q53.8 64.2 54.2 64.95 58.45 64.35 58.45 68.3 58.5 70.05 57.0 71.1 L62.4 70.4 Q64.15 70.2 64.85 71.8 74.05 70.3 82.8 67.1 85.8 63.75 89.95 61.5 L91.75 60.05 Q97.65 53.25 105.65 49.7 107.05 49.05 108.5 48.85 111.45 48.6 113.9 50.4 L114.2 50.55" fill="#00ff00" fill-rule="evenodd" stroke="none"/>
  </g>
</svg>
