<?xml version="1.0" encoding="UTF-8" standalone="no"?>
<svg xmlns:xlink="http://www.w3.org/1999/xlink" height="50.0px" width="134.35px" xmlns="http://www.w3.org/2000/svg">
  <g transform="matrix(1.0, 0.0, 0.0, 1.0, -12.0, -97.1)">
    <path d="M118.5 97.1 L124.9 97.9 125.3 97.95 Q132.15 95.65 137.6 100.2 139.15 101.5 140.0 103.35 146.0 101.65 145.4 108.1 144.6 116.45 146.0 124.45 147.9 134.95 139.8 140.7 139.35 141.05 138.75 141.2 134.5 142.35 131.55 139.95 L129.6 139.25 129.4 139.05 129.1 138.75 Q126.45 141.0 123.15 141.75 121.7 142.05 121.0 140.8 117.5 134.8 124.85 132.9 126.15 132.55 126.9 131.55 126.95 131.2 126.4 130.95 L125.85 130.6 118.95 132.35 117.1 132.7 Q118.55 134.0 117.9 135.7 116.45 139.4 112.35 139.2 111.1 143.9 105.4 144.7 101.0 145.3 96.65 146.4 89.9 148.0 83.8 146.0 83.05 145.75 82.9 144.85 82.7 143.6 83.1 142.45 L82.05 141.45 81.95 141.3 81.45 140.25 65.9 143.85 Q62.75 144.5 61.2 142.1 L31.35 143.65 Q30.25 143.7 29.5 142.95 26.95 143.2 25.65 141.2 24.8 139.95 25.35 138.5 L25.45 138.3 25.1 137.7 24.8 137.35 24.75 137.25 Q22.55 137.35 21.25 135.65 20.35 134.5 20.75 133.1 L20.95 132.55 Q17.3 132.95 15.05 130.05 13.9 128.65 14.85 127.0 12.95 126.65 12.2 124.65 11.5 122.8 13.0 121.45 L13.5 120.6 Q11.7 115.75 17.6 114.4 22.95 113.2 27.65 115.1 28.7 115.5 28.7 116.75 28.65 118.55 27.6 120.1 30.9 119.9 33.15 122.4 34.25 123.65 33.5 125.2 L32.75 126.1 Q34.6 126.45 36.15 127.5 37.35 128.35 37.4 129.8 L37.3 130.35 37.8 130.95 38.25 131.3 Q43.05 130.35 46.35 133.2 47.1 133.85 47.1 134.85 59.25 130.55 72.85 128.7 77.1 128.15 80.7 129.95 L81.35 130.6 Q89.2 131.7 97.15 129.25 100.9 128.1 104.65 128.55 L107.75 128.35 115.25 126.6 Q114.15 125.85 113.95 124.55 113.7 123.15 114.5 121.95 L115.75 120.3 Q110.7 118.55 113.2 113.25 115.6 108.3 119.15 104.1 116.8 103.5 115.9 101.0 114.9 98.2 117.8 97.3 L118.5 97.1 M135.85 110.45 L130.85 110.0 Q133.15 111.15 133.0 113.95 L133.0 114.1 136.25 112.7 135.9 111.35 Q135.8 110.9 135.85 110.45 M125.8 105.5 L120.05 113.35 119.9 113.55 Q121.7 113.4 123.35 112.6 124.1 109.25 125.95 106.35 126.4 105.6 125.8 105.5" fill="#00ff00" fill-rule="evenodd" stroke="none"/>
  </g>
</svg>
