<?xml version="1.0" encoding="UTF-8" standalone="no"?>
<svg xmlns:xlink="http://www.w3.org/1999/xlink" height="39.3px" width="166.7px" xmlns="http://www.w3.org/2000/svg">
  <g transform="matrix(1.0, 0.0, 0.0, 1.0, 98.65, 10.75)">
    <path d="M-81.15 8.0 Q-78.7 15.15 -56.1 20.2 -33.55 25.2 -7.45 25.2 18.65 25.2 37.15 20.15 55.65 15.15 55.65 8.0 55.65 0.8 37.15 -4.25 18.65 -9.25 -7.45 -9.25 -33.55 -9.25 -58.6 -4.2 -83.65 0.8 -81.15 8.0" fill="#000000" fill-opacity="0.2901961" fill-rule="evenodd" stroke="none">
      <animate attributeName="fill" dur="2s" repeatCount="indefinite" values="#000000;#000001"/>
      <animate attributeName="fill-opacity" dur="2s" repeatCount="indefinite" values="0.2901961;0.2901961"/>
      <animate attributeName="d" dur="2s" repeatCount="indefinite" values="M-81.15 8.0 Q-78.7 15.15 -56.1 20.2 -33.55 25.2 -7.45 25.2 18.65 25.2 37.15 20.15 55.65 15.15 55.65 8.0 55.65 0.8 37.15 -4.25 18.65 -9.25 -7.45 -9.25 -33.55 -9.25 -58.6 -4.2 -83.65 0.8 -81.15 8.0;M-98.6 9.55 Q-97.3 17.7 -68.0 23.15 -38.7 28.55 -7.5 28.55 23.75 28.55 45.9 22.8 68.05 17.1 68.05 8.9 68.05 0.7 45.9 -5.05 23.75 -10.8 -7.5 -10.75 -38.7 -10.8 -69.3 -4.7 -99.9 1.4 -98.6 9.55"/>
    </path>
    <path d="M-81.15 8.0 Q-83.65 0.8 -58.6 -4.2 -33.55 -9.25 -7.45 -9.25 18.65 -9.25 37.15 -4.25 55.65 0.8 55.65 8.0 55.65 15.15 37.15 20.15 18.65 25.2 -7.45 25.2 -33.55 25.2 -56.1 20.2 -78.7 15.15 -81.15 8.0" fill="none" stroke="#000000" stroke-linecap="round" stroke-linejoin="round" stroke-opacity="0.0" stroke-width="1.0">
      <animate attributeName="stroke" dur="2s" repeatCount="indefinite" values="#000000;#000001"/>
      <animate attributeName="stroke-width" dur="2s" repeatCount="indefinite" values="0.0;0.0"/>
      <animate attributeName="fill-opacity" dur="2s" repeatCount="indefinite" values="0.0;0.0"/>
      <animate attributeName="d" dur="2s" repeatCount="indefinite" values="M-81.15 8.0 Q-83.65 0.8 -58.6 -4.2 -33.55 -9.25 -7.45 -9.25 18.65 -9.25 37.15 -4.25 55.65 0.8 55.65 8.0 55.65 15.15 37.15 20.15 18.65 25.2 -7.45 25.2 -33.55 25.2 -56.1 20.2 -78.7 15.15 -81.15 8.0;M-98.6 9.55 Q-99.9 1.4 -69.3 -4.7 -38.7 -10.8 -7.5 -10.75 23.75 -10.8 45.9 -5.05 68.05 0.7 68.05 8.9 68.05 17.1 45.9 22.8 23.75 28.55 -7.5 28.55 -38.7 28.55 -68.0 23.15 -97.3 17.7 -98.6 9.55"/>
    </path>
  </g>
</svg>
