<?xml version="1.0" encoding="UTF-8" standalone="no"?>
<svg xmlns:xlink="http://www.w3.org/1999/xlink" height="9.45px" width="100.3px" xmlns="http://www.w3.org/2000/svg">
  <g transform="matrix(1.0, 0.0, 0.0, 1.0, 49.75, 11.8)">
    <path d="M-49.75 -7.1 Q-49.75 -5.1 -40.1 -3.75 L-16.7 -2.35 6.65 -3.75 Q16.35 -5.1 16.35 -7.1 16.35 -9.1 6.65 -10.45 L-16.7 -11.8 -40.1 -10.45 Q-49.75 -9.1 -49.75 -7.1" fill="#000000" fill-opacity="0.2901961" fill-rule="evenodd" stroke="none">
      <animate attributeName="fill" dur="2s" repeatCount="indefinite" values="#000000;#000001"/>
      <animate attributeName="fill-opacity" dur="2s" repeatCount="indefinite" values="0.2901961;0.2901961"/>
      <animate attributeName="d" dur="2s" repeatCount="indefinite" values="M-49.75 -7.1 Q-49.75 -5.1 -40.1 -3.75 L-16.7 -2.35 6.65 -3.75 Q16.35 -5.1 16.35 -7.1 16.35 -9.1 6.65 -10.45 L-16.7 -11.8 -40.1 -10.45 Q-49.75 -9.1 -49.75 -7.1;M-35.6 -7.1 Q-35.6 -5.1 -23.0 -3.75 L7.5 -2.35 37.95 -3.75 Q50.55 -5.1 50.55 -7.1 50.55 -9.1 37.95 -10.45 L7.5 -11.8 -23.0 -10.45 Q-35.6 -9.1 -35.6 -7.1"/>
    </path>
    <path d="M-49.75 -7.1 Q-49.75 -9.1 -40.1 -10.45 L-16.7 -11.8 6.65 -10.45 Q16.35 -9.1 16.35 -7.1 16.35 -5.1 6.65 -3.75 L-16.7 -2.35 -40.1 -3.75 Q-49.75 -5.1 -49.75 -7.1" fill="none" stroke="#000000" stroke-linecap="round" stroke-linejoin="round" stroke-opacity="0.0" stroke-width="1.0">
      <animate attributeName="stroke" dur="2s" repeatCount="indefinite" values="#000000;#000001"/>
      <animate attributeName="stroke-width" dur="2s" repeatCount="indefinite" values="0.0;0.0"/>
      <animate attributeName="fill-opacity" dur="2s" repeatCount="indefinite" values="0.0;0.0"/>
      <animate attributeName="d" dur="2s" repeatCount="indefinite" values="M-49.75 -7.1 Q-49.75 -9.1 -40.1 -10.45 L-16.7 -11.8 6.65 -10.45 Q16.35 -9.1 16.35 -7.1 16.35 -5.1 6.65 -3.75 L-16.7 -2.35 -40.1 -3.75 Q-49.75 -5.1 -49.75 -7.1;M-35.6 -7.1 Q-35.6 -9.1 -23.0 -10.45 L7.5 -11.8 37.95 -10.45 Q50.55 -9.1 50.55 -7.1 50.55 -5.1 37.95 -3.75 L7.5 -2.35 -23.0 -3.75 Q-35.6 -5.1 -35.6 -7.1"/>
    </path>
  </g>
</svg>
