<?xml version="1.0" encoding="UTF-8" standalone="no"?>
<svg xmlns:xlink="http://www.w3.org/1999/xlink" height="51.0px" width="51.0px" xmlns="http://www.w3.org/2000/svg">
  <g transform="matrix(1.0, 0.0, 0.0, 1.0, 25.5, 25.5)">
    <path d="M-17.5 0.0 Q-17.5 7.25 -12.4 12.35 -7.25 17.5 0.0 17.5 7.25 17.5 12.35 12.35 17.5 7.25 17.5 0.0 17.5 -7.25 12.35 -12.4 7.25 -17.5 0.0 -17.5 -7.25 -17.5 -12.4 -12.4 -17.5 -7.25 -17.5 0.0" fill="#7695e7" fill-rule="evenodd" stroke="none">
      <animate attributeName="fill" dur="2s" repeatCount="indefinite" values="#7695e7;#7695e8"/>
      <animate attributeName="fill-opacity" dur="2s" repeatCount="indefinite" values="1.0;1.0"/>
      <animate attributeName="d" dur="2s" repeatCount="indefinite" values="M-17.5 0.0 Q-17.5 7.25 -12.4 12.35 -7.25 17.5 0.0 17.5 7.25 17.5 12.35 12.35 17.5 7.25 17.5 0.0 17.5 -7.25 12.35 -12.4 7.25 -17.5 0.0 -17.5 -7.25 -17.5 -12.4 -12.4 -17.5 -7.25 -17.5 0.0;M-25.5 0.0 Q-25.5 10.55 -18.05 18.0 -10.55 25.5 0.0 25.5 10.55 25.5 18.0 18.0 25.5 10.55 25.5 0.0 25.5 -10.55 18.0 -18.05 10.55 -25.5 0.0 -25.5 -10.55 -25.5 -18.05 -18.05 -25.5 -10.55 -25.5 0.0"/>
    </path>
    <path d="M-17.5 0.0 Q-17.5 -7.25 -12.4 -12.4 -7.25 -17.5 0.0 -17.5 7.25 -17.5 12.35 -12.4 17.5 -7.25 17.5 0.0 17.5 7.25 12.35 12.35 7.25 17.5 0.0 17.5 -7.25 17.5 -12.4 12.35 -17.5 7.25 -17.5 0.0" fill="none" stroke="#000000" stroke-linecap="round" stroke-linejoin="round" stroke-opacity="0.0" stroke-width="1.0">
      <animate attributeName="stroke" dur="2s" repeatCount="indefinite" values="#000000;#000001"/>
      <animate attributeName="stroke-width" dur="2s" repeatCount="indefinite" values="0.0;0.0"/>
      <animate attributeName="fill-opacity" dur="2s" repeatCount="indefinite" values="0.0;0.0"/>
      <animate attributeName="d" dur="2s" repeatCount="indefinite" values="M-17.5 0.0 Q-17.5 -7.25 -12.4 -12.4 -7.25 -17.5 0.0 -17.5 7.25 -17.5 12.35 -12.4 17.5 -7.25 17.5 0.0 17.5 7.25 12.35 12.35 7.25 17.5 0.0 17.5 -7.25 17.5 -12.4 12.35 -17.5 7.25 -17.5 0.0;M-25.5 0.0 Q-25.5 -10.55 -18.05 -18.05 -10.55 -25.5 0.0 -25.5 10.55 -25.5 18.0 -18.05 25.5 -10.55 25.5 0.0 25.5 10.55 18.0 18.0 10.55 25.5 0.0 25.5 -10.55 25.5 -18.05 18.0 -25.5 10.55 -25.5 0.0"/>
    </path>
  </g>
</svg>
