<?xml version="1.0" encoding="UTF-8" standalone="no"?>
<svg xmlns:xlink="http://www.w3.org/1999/xlink" height="6.4px" width="31.9px" xmlns="http://www.w3.org/2000/svg">
  <g transform="matrix(1.0, 0.0, 0.0, 1.0, 2.75, -0.2)">
    <path d="M-2.75 4.5 L-0.95 4.55 0.85 4.45 2.2 4.35 2.75 4.25 3.3 4.4 4.65 4.55 Q5.45 4.6 6.2 4.6 4.8 4.4 3.4 4.25 2.55 4.05 1.7 3.9 L0.6 4.2 Q-0.15 4.3 -0.85 4.4 L-2.75 4.5" fill="#428edb" fill-rule="evenodd" stroke="none">
      <animate attributeName="fill" dur="2s" repeatCount="indefinite" values="#428edb;#287dd1"/>
      <animate attributeName="fill-opacity" dur="2s" repeatCount="indefinite" values="1.0;1.0"/>
      <animate attributeName="d" dur="2s" repeatCount="indefinite" values="M-2.75 4.5 L-0.95 4.55 0.85 4.45 2.2 4.35 2.75 4.25 3.3 4.4 4.65 4.55 Q5.45 4.6 6.2 4.6 4.8 4.4 3.4 4.25 2.55 4.05 1.7 3.9 L0.6 4.2 Q-0.15 4.3 -0.85 4.4 L-2.75 4.5;M0.85 5.5 L5.7 5.85 8.6 5.15 11.7 3.7 12.1 3.35 18.45 5.35 23.65 6.35 Q26.65 6.75 29.15 6.45 23.9 5.1 20.2 3.3 16.4 1.55 14.85 0.2 L11.35 2.55 Q9.4 3.65 6.9 4.45 L0.85 5.5"/>
    </path>
    <path d="M-2.75 4.5 L-0.85 4.4 Q-0.15 4.3 0.6 4.2 L1.7 3.9 Q2.55 4.05 3.4 4.25 4.8 4.4 6.2 4.6 5.45 4.6 4.65 4.55 L3.3 4.4 2.75 4.25 2.2 4.35 0.85 4.45 -0.95 4.55 -2.75 4.5" fill="none" stroke="#000000" stroke-linecap="round" stroke-linejoin="round" stroke-opacity="0.0" stroke-width="1.0">
      <animate attributeName="stroke" dur="2s" repeatCount="indefinite" values="#000000;#000001"/>
      <animate attributeName="stroke-width" dur="2s" repeatCount="indefinite" values="0.0;0.0"/>
      <animate attributeName="fill-opacity" dur="2s" repeatCount="indefinite" values="0.0;0.0"/>
      <animate attributeName="d" dur="2s" repeatCount="indefinite" values="M-2.75 4.5 L-0.85 4.4 Q-0.15 4.3 0.6 4.2 L1.7 3.9 Q2.55 4.05 3.4 4.25 4.8 4.4 6.2 4.6 5.45 4.6 4.65 4.55 L3.3 4.4 2.75 4.25 2.2 4.35 0.85 4.45 -0.95 4.55 -2.75 4.5;M0.85 5.5 L6.9 4.45 Q9.4 3.65 11.35 2.55 L14.85 0.2 Q16.4 1.55 20.2 3.3 23.9 5.1 29.15 6.45 26.65 6.75 23.65 6.35 L18.45 5.35 12.1 3.35 11.7 3.7 8.6 5.15 5.7 5.85 0.85 5.5"/>
    </path>
  </g>
</svg>
