<?xml version="1.0" encoding="UTF-8" standalone="no"?>
<svg xmlns:xlink="http://www.w3.org/1999/xlink" height="143.65px" width="261.15px" xmlns="http://www.w3.org/2000/svg">
  <g transform="matrix(1.0, 0.0, 0.0, 1.0, 0.0, 0.0)">
    <path d="M0.0 134.65 L252.15 134.0 252.15 33.1 251.05 33.2 251.05 25.9 252.1 25.8 252.1 14.5 251.05 14.55 251.05 0.0 Q211.2 3.1 179.1 8.7 146.95 14.25 121.8 21.75 96.65 29.3 77.8 38.25 58.85 47.2 45.3 57.05 31.75 66.9 22.9 77.15 14.0 87.4 8.9 97.5 3.8 107.55 1.85 117.0 -0.2 126.45 0.0 134.65" fill="#244fc4" fill-rule="evenodd" stroke="none">
      <animate attributeName="fill" dur="2s" repeatCount="indefinite" values="#244fc4;#244fc5"/>
      <animate attributeName="fill-opacity" dur="2s" repeatCount="indefinite" values="1.0;1.0"/>
      <animate attributeName="d" dur="2s" repeatCount="indefinite" values="M0.0 134.65 L252.15 134.0 252.15 33.1 251.05 33.2 251.05 25.9 252.1 25.8 252.1 14.5 251.05 14.55 251.05 0.0 Q211.2 3.1 179.1 8.7 146.95 14.25 121.8 21.75 96.65 29.3 77.8 38.25 58.85 47.2 45.3 57.05 31.75 66.9 22.9 77.15 14.0 87.4 8.9 97.5 3.8 107.55 1.85 117.0 -0.2 126.45 0.0 134.65;M9.0 143.65 L261.15 143.0 261.15 42.1 260.05 42.2 260.05 34.9 261.1 34.8 261.1 23.5 260.05 23.55 260.05 9.0 Q220.2 12.1 188.1 17.7 155.95 23.25 130.8 30.75 105.65 38.3 86.8 47.25 67.85 56.2 54.3 66.05 40.75 75.9 31.9 86.15 23.0 96.4 17.9 106.5 12.8 116.55 10.85 126.0 8.8 135.45 9.0 143.65"/>
    </path>
    <path d="M0.0 134.65 Q-0.2 126.45 1.85 117.0 3.8 107.55 8.9 97.5 14.0 87.4 22.9 77.15 31.75 66.9 45.3 57.05 58.85 47.2 77.8 38.25 96.65 29.3 121.8 21.75 146.95 14.25 179.1 8.7 211.2 3.1 251.05 0.0 L251.05 14.55 252.1 14.5 252.1 25.8 251.05 25.9 251.05 33.2 252.15 33.1 252.15 134.0 0.0 134.65" fill="none" stroke="#000000" stroke-linecap="round" stroke-linejoin="round" stroke-opacity="0.0" stroke-width="1.0">
      <animate attributeName="stroke" dur="2s" repeatCount="indefinite" values="#000000;#000001"/>
      <animate attributeName="stroke-width" dur="2s" repeatCount="indefinite" values="0.0;0.0"/>
      <animate attributeName="fill-opacity" dur="2s" repeatCount="indefinite" values="0.0;0.0"/>
      <animate attributeName="d" dur="2s" repeatCount="indefinite" values="M0.0 134.65 Q-0.2 126.45 1.85 117.0 3.8 107.55 8.9 97.5 14.0 87.4 22.9 77.15 31.75 66.9 45.3 57.05 58.85 47.2 77.8 38.25 96.65 29.3 121.8 21.75 146.95 14.25 179.1 8.7 211.2 3.1 251.05 0.0 L251.05 14.55 252.1 14.5 252.1 25.8 251.05 25.9 251.05 33.2 252.15 33.1 252.15 134.0 0.0 134.65;M9.0 143.65 Q8.8 135.45 10.85 126.0 12.8 116.55 17.9 106.5 23.0 96.4 31.9 86.15 40.75 75.9 54.3 66.05 67.85 56.2 86.8 47.25 105.65 38.3 130.8 30.75 155.95 23.25 188.1 17.7 220.2 12.1 260.05 9.0 L260.05 23.55 261.1 23.5 261.1 34.8 260.05 34.9 260.05 42.2 261.15 42.1 261.15 143.0 9.0 143.65"/>
    </path>
  </g>
</svg>
