<?xml version="1.0" encoding="UTF-8" standalone="no"?>
<svg xmlns:xlink="http://www.w3.org/1999/xlink" height="229.3px" width="378.55px" xmlns="http://www.w3.org/2000/svg">
  <g transform="matrix(1.0, 0.0, 0.0, 1.0, -24.95, -5.7)">
    <path d="M155.8 235.0 L403.5 234.35 403.5 136.7 402.4 136.8 402.4 129.75 403.45 129.65 403.45 118.7 402.4 118.8 Q402.4 111.75 402.4 104.7 363.25 107.7 331.7 113.1 300.15 118.5 275.45 125.75 250.75 133.05 232.2 141.7 213.6 150.35 200.3 159.9 187.0 169.45 178.3 179.35 169.55 189.25 164.55 199.05 159.55 208.8 157.6 217.9 155.6 227.05 155.8 235.0" fill="#244fc4" fill-rule="evenodd" stroke="none">
      <animate attributeName="fill" dur="2s" repeatCount="indefinite" values="#244fc4;#244fc5"/>
      <animate attributeName="fill-opacity" dur="2s" repeatCount="indefinite" values="1.0;1.0"/>
      <animate attributeName="d" dur="2s" repeatCount="indefinite" values="M155.8 235.0 L403.5 234.35 403.5 136.7 402.4 136.8 402.4 129.75 403.45 129.65 403.45 118.7 402.4 118.8 Q402.4 111.75 402.4 104.7 363.25 107.7 331.7 113.1 300.15 118.5 275.45 125.75 250.75 133.05 232.2 141.7 213.6 150.35 200.3 159.9 187.0 169.45 178.3 179.35 169.55 189.25 164.55 199.05 159.55 208.8 157.6 217.9 155.6 227.05 155.8 235.0;M24.95 139.5 L272.65 138.85 272.65 41.2 271.55 41.3 271.55 34.25 272.6 34.15 272.6 23.2 271.55 23.3 Q271.55 16.3 272.0 5.7 228.95 9.6 199.05 16.25 169.2 22.9 144.55 30.25 119.9 37.55 101.35 46.2 82.75 54.85 69.45 64.4 56.15 73.95 47.45 83.85 38.7 93.75 33.7 103.55 28.7 113.3 26.75 122.4 24.75 131.55 24.95 139.5"/>
    </path>
    <path d="M155.8 235.0 Q155.6 227.05 157.6 217.9 159.55 208.8 164.55 199.05 169.55 189.25 178.3 179.35 187.0 169.45 200.3 159.9 213.6 150.35 232.2 141.7 250.75 133.05 275.45 125.75 300.15 118.5 331.7 113.1 363.25 107.7 402.4 104.7 402.4 111.75 402.4 118.8 L403.45 118.7 403.45 129.65 402.4 129.75 402.4 136.8 403.5 136.7 403.5 234.35 155.8 235.0" fill="none" stroke="#000000" stroke-linecap="round" stroke-linejoin="round" stroke-opacity="0.0" stroke-width="1.0">
      <animate attributeName="stroke" dur="2s" repeatCount="indefinite" values="#000000;#000001"/>
      <animate attributeName="stroke-width" dur="2s" repeatCount="indefinite" values="0.0;0.0"/>
      <animate attributeName="fill-opacity" dur="2s" repeatCount="indefinite" values="0.0;0.0"/>
      <animate attributeName="d" dur="2s" repeatCount="indefinite" values="M155.8 235.0 Q155.6 227.05 157.6 217.9 159.55 208.8 164.55 199.05 169.55 189.25 178.3 179.35 187.0 169.45 200.3 159.9 213.6 150.35 232.2 141.7 250.75 133.05 275.45 125.75 300.15 118.5 331.7 113.1 363.25 107.7 402.4 104.7 402.4 111.75 402.4 118.8 L403.45 118.7 403.45 129.65 402.4 129.75 402.4 136.8 403.5 136.7 403.5 234.35 155.8 235.0;M24.95 139.5 Q24.75 131.55 26.75 122.4 28.7 113.3 33.7 103.55 38.7 93.75 47.45 83.85 56.15 73.95 69.45 64.4 82.75 54.85 101.35 46.2 119.9 37.55 144.55 30.25 169.2 22.9 199.05 16.25 228.95 9.6 272.0 5.7 271.55 16.3 271.55 23.3 L272.6 23.2 272.6 34.15 271.55 34.25 271.55 41.3 272.65 41.2 272.65 138.85 24.95 139.5"/>
    </path>
  </g>
</svg>
