<?xml version="1.0" encoding="UTF-8" standalone="no"?>
<svg xmlns:xlink="http://www.w3.org/1999/xlink" height="141.3px" width="271.0px" xmlns="http://www.w3.org/2000/svg">
  <g transform="matrix(1.0, 0.0, 0.0, 1.0, -1.65, 1.8)">
    <path d="M24.95 139.5 L272.65 138.85 272.65 41.2 271.55 41.3 271.55 34.25 272.6 34.15 272.6 23.2 271.55 23.3 Q271.55 16.3 272.0 5.7 228.95 9.6 199.05 16.25 169.2 22.9 144.55 30.25 119.9 37.55 101.35 46.2 82.75 54.85 69.45 64.4 56.15 73.95 47.45 83.85 38.7 93.75 33.7 103.55 28.7 113.3 26.75 122.4 24.75 131.55 24.95 139.5" fill="#244fc4" fill-rule="evenodd" stroke="none">
      <animate attributeName="fill" dur="2s" repeatCount="indefinite" values="#244fc4;#244fc5"/>
      <animate attributeName="fill-opacity" dur="2s" repeatCount="indefinite" values="1.0;1.0"/>
      <animate attributeName="d" dur="2s" repeatCount="indefinite" values="M24.95 139.5 L272.65 138.85 272.65 41.2 271.55 41.3 271.55 34.25 272.6 34.15 272.6 23.2 271.55 23.3 Q271.55 16.3 272.0 5.7 228.95 9.6 199.05 16.25 169.2 22.9 144.55 30.25 119.9 37.55 101.35 46.2 82.75 54.85 69.45 64.4 56.15 73.95 47.45 83.85 38.7 93.75 33.7 103.55 28.7 113.3 26.75 122.4 24.75 131.55 24.95 139.5;M1.65 132.0 L249.35 131.35 249.35 33.7 248.25 33.8 248.25 26.75 249.3 26.65 249.3 15.7 248.25 15.8 Q248.25 8.8 248.7 -1.8 205.65 2.1 175.75 8.75 145.9 15.4 121.25 22.75 96.6 30.05 78.05 38.7 59.45 47.35 46.15 56.9 32.85 66.45 24.15 76.35 15.4 86.25 10.4 96.05 5.4 105.8 3.45 114.9 1.45 124.05 1.65 132.0"/>
    </path>
    <path d="M24.95 139.5 Q24.75 131.55 26.75 122.4 28.7 113.3 33.7 103.55 38.7 93.75 47.45 83.85 56.15 73.95 69.45 64.4 82.75 54.85 101.35 46.2 119.9 37.55 144.55 30.25 169.2 22.9 199.05 16.25 228.95 9.6 272.0 5.7 271.55 16.3 271.55 23.3 L272.6 23.2 272.6 34.15 271.55 34.25 271.55 41.3 272.65 41.2 272.65 138.85 24.95 139.5" fill="none" stroke="#000000" stroke-linecap="round" stroke-linejoin="round" stroke-opacity="0.0" stroke-width="1.0">
      <animate attributeName="stroke" dur="2s" repeatCount="indefinite" values="#000000;#000001"/>
      <animate attributeName="stroke-width" dur="2s" repeatCount="indefinite" values="0.0;0.0"/>
      <animate attributeName="fill-opacity" dur="2s" repeatCount="indefinite" values="0.0;0.0"/>
      <animate attributeName="d" dur="2s" repeatCount="indefinite" values="M24.95 139.5 Q24.75 131.55 26.75 122.4 28.7 113.3 33.7 103.55 38.7 93.75 47.45 83.85 56.15 73.95 69.45 64.4 82.75 54.85 101.35 46.2 119.9 37.55 144.55 30.25 169.2 22.9 199.05 16.25 228.95 9.6 272.0 5.7 271.55 16.3 271.55 23.3 L272.6 23.2 272.6 34.15 271.55 34.25 271.55 41.3 272.65 41.2 272.65 138.85 24.95 139.5;M1.65 132.0 Q1.45 124.05 3.45 114.9 5.4 105.8 10.4 96.05 15.4 86.25 24.15 76.35 32.85 66.45 46.15 56.9 59.45 47.35 78.05 38.7 96.6 30.05 121.25 22.75 145.9 15.4 175.75 8.75 205.65 2.1 248.7 -1.8 248.25 8.8 248.25 15.8 L249.3 15.7 249.3 26.65 248.25 26.75 248.25 33.8 249.35 33.7 249.35 131.35 1.65 132.0"/>
    </path>
  </g>
</svg>
