<?xml version="1.0" encoding="UTF-8" standalone="no"?>
<svg xmlns:xlink="http://www.w3.org/1999/xlink" height="143.3px" width="263.45px" xmlns="http://www.w3.org/2000/svg">
  <g transform="matrix(1.0, 0.0, 0.0, 1.0, 13.2, 9.05)">
    <path d="M15.8 129.65 L29.95 129.75 Q29.65 121.6 32.0 112.4 34.35 103.15 40.35 93.45 46.35 83.75 57.0 74.05 67.65 64.4 84.05 55.35 100.4 46.25 123.45 38.35 146.55 30.4 177.35 24.2 208.1 18.0 247.65 14.0 L247.65 7.7 Q209.05 11.0 178.35 16.35 147.6 21.7 123.9 28.65 100.15 35.6 82.6 43.75 65.05 51.9 52.9 60.75 40.7 69.65 33.0 78.75 25.3 87.9 21.3 96.85 17.3 105.8 16.1 114.1 14.95 122.4 15.8 129.65" fill="#ffffff" fill-rule="evenodd" stroke="none">
      <animate attributeName="fill" dur="2s" repeatCount="indefinite" values="#ffffff;#ffffff"/>
      <animate attributeName="fill-opacity" dur="2s" repeatCount="indefinite" values="1.0;1.0"/>
      <animate attributeName="d" dur="2s" repeatCount="indefinite" values="M15.8 129.65 L29.95 129.75 Q29.65 121.6 32.0 112.4 34.35 103.15 40.35 93.45 46.35 83.75 57.0 74.05 67.65 64.4 84.05 55.35 100.4 46.25 123.45 38.35 146.55 30.4 177.35 24.2 208.1 18.0 247.65 14.0 L247.65 7.7 Q209.05 11.0 178.35 16.35 147.6 21.7 123.9 28.65 100.15 35.6 82.6 43.75 65.05 51.9 52.9 60.75 40.7 69.65 33.0 78.75 25.3 87.9 21.3 96.85 17.3 105.8 16.1 114.1 14.95 122.4 15.8 129.65;M-12.75 134.15 L3.3 134.25 Q2.95 124.7 5.6 113.9 8.25 103.0 15.1 91.65 21.9 80.25 34.0 68.85 46.05 57.5 64.65 46.9 83.2 36.2 109.35 26.95 135.55 17.6 170.5 10.35 205.4 3.05 250.25 -1.65 L250.25 -9.05 Q206.45 -5.2 171.65 1.1 136.75 7.4 109.9 15.55 82.9 23.7 63.0 33.3 43.1 42.85 29.35 53.25 15.5 63.65 6.75 74.35 -2.0 85.1 -6.5 95.6 -11.05 106.1 -12.4 115.9 -13.75 125.6 -12.75 134.15"/>
    </path>
    <path d="M15.8 129.65 Q14.95 122.4 16.1 114.1 17.3 105.8 21.3 96.85 25.3 87.9 33.0 78.75 40.7 69.65 52.9 60.75 65.05 51.9 82.6 43.75 100.15 35.6 123.9 28.65 147.6 21.7 178.35 16.35 209.05 11.0 247.65 7.7 L247.65 14.0 Q208.1 18.0 177.35 24.2 146.55 30.4 123.45 38.35 100.4 46.25 84.05 55.35 67.65 64.4 57.0 74.05 46.35 83.75 40.35 93.45 34.35 103.15 32.0 112.4 29.65 121.6 29.95 129.75 L15.8 129.65" fill="none" stroke="#000000" stroke-linecap="round" stroke-linejoin="round" stroke-opacity="0.0" stroke-width="1.0">
      <animate attributeName="stroke" dur="2s" repeatCount="indefinite" values="#000000;#000001"/>
      <animate attributeName="stroke-width" dur="2s" repeatCount="indefinite" values="0.0;0.0"/>
      <animate attributeName="fill-opacity" dur="2s" repeatCount="indefinite" values="0.0;0.0"/>
      <animate attributeName="d" dur="2s" repeatCount="indefinite" values="M15.8 129.65 Q14.95 122.4 16.1 114.1 17.3 105.8 21.3 96.85 25.3 87.9 33.0 78.75 40.7 69.65 52.9 60.75 65.05 51.9 82.6 43.75 100.15 35.6 123.9 28.65 147.6 21.7 178.35 16.35 209.05 11.0 247.65 7.7 L247.65 14.0 Q208.1 18.0 177.35 24.2 146.55 30.4 123.45 38.35 100.4 46.25 84.05 55.35 67.65 64.4 57.0 74.05 46.35 83.75 40.35 93.45 34.35 103.15 32.0 112.4 29.65 121.6 29.95 129.75 L15.8 129.65;M-12.75 134.15 Q-13.75 125.6 -12.4 115.9 -11.05 106.1 -6.5 95.6 -2.0 85.1 6.75 74.35 15.5 63.65 29.35 53.25 43.1 42.85 63.0 33.3 82.9 23.7 109.9 15.55 136.75 7.4 171.65 1.1 206.45 -5.2 250.25 -9.05 L250.25 -1.65 Q205.4 3.05 170.5 10.35 135.55 17.6 109.35 26.95 83.2 36.2 64.65 46.9 46.05 57.5 34.0 68.85 21.9 80.25 15.1 91.65 8.25 103.0 5.6 113.9 2.95 124.7 3.3 134.25 L-12.75 134.15"/>
    </path>
  </g>
</svg>
