<?xml version="1.0" encoding="UTF-8" standalone="no"?>
<svg xmlns:xlink="http://www.w3.org/1999/xlink" height="148.2px" width="256.25px" xmlns="http://www.w3.org/2000/svg">
  <g transform="matrix(1.0, 0.0, 0.0, 1.0, -1.65, 1.8)">
    <path d="M1.65 132.0 L249.35 131.35 249.35 33.7 248.25 33.8 248.25 26.75 249.3 26.65 249.3 15.7 248.25 15.8 Q248.25 8.8 248.7 -1.8 205.65 2.1 175.75 8.75 145.9 15.4 121.25 22.75 96.6 30.05 78.05 38.7 59.45 47.35 46.15 56.9 32.85 66.45 24.15 76.35 15.4 86.25 10.4 96.05 5.4 105.8 3.45 114.9 1.45 124.05 1.65 132.0" fill="#244fc4" fill-rule="evenodd" stroke="none">
      <animate attributeName="fill" dur="2s" repeatCount="indefinite" values="#244fc4;#244fc5"/>
      <animate attributeName="fill-opacity" dur="2s" repeatCount="indefinite" values="1.0;1.0"/>
      <animate attributeName="d" dur="2s" repeatCount="indefinite" values="M1.65 132.0 L249.35 131.35 249.35 33.7 248.25 33.8 248.25 26.75 249.3 26.65 249.3 15.7 248.25 15.8 Q248.25 8.8 248.7 -1.8 205.65 2.1 175.75 8.75 145.9 15.4 121.25 22.75 96.6 30.05 78.05 38.7 59.45 47.35 46.15 56.9 32.85 66.45 24.15 76.35 15.4 86.25 10.4 96.05 5.4 105.8 3.45 114.9 1.45 124.05 1.65 132.0;M10.2 146.4 L257.9 145.75 257.9 48.1 256.8 48.2 256.8 41.15 257.85 41.05 257.85 30.1 256.8 30.2 Q256.8 23.2 257.25 12.6 214.2 16.5 184.3 23.15 154.45 29.8 129.8 37.15 105.15 44.45 86.6 53.1 68.0 61.75 54.7 71.3 41.4 80.85 32.7 90.75 23.95 100.65 18.95 110.45 13.95 120.2 12.0 129.3 10.0 138.45 10.2 146.4"/>
    </path>
    <path d="M1.65 132.0 Q1.45 124.05 3.45 114.9 5.4 105.8 10.4 96.05 15.4 86.25 24.15 76.35 32.85 66.45 46.15 56.9 59.45 47.35 78.05 38.7 96.6 30.05 121.25 22.75 145.9 15.4 175.75 8.75 205.65 2.1 248.7 -1.8 248.25 8.8 248.25 15.8 L249.3 15.7 249.3 26.65 248.25 26.75 248.25 33.8 249.35 33.7 249.35 131.35 1.65 132.0" fill="none" stroke="#000000" stroke-linecap="round" stroke-linejoin="round" stroke-opacity="0.0" stroke-width="1.0">
      <animate attributeName="stroke" dur="2s" repeatCount="indefinite" values="#000000;#000001"/>
      <animate attributeName="stroke-width" dur="2s" repeatCount="indefinite" values="0.0;0.0"/>
      <animate attributeName="fill-opacity" dur="2s" repeatCount="indefinite" values="0.0;0.0"/>
      <animate attributeName="d" dur="2s" repeatCount="indefinite" values="M1.65 132.0 Q1.45 124.05 3.45 114.9 5.4 105.8 10.4 96.05 15.4 86.25 24.15 76.35 32.85 66.45 46.15 56.9 59.45 47.35 78.05 38.7 96.6 30.05 121.25 22.75 145.9 15.4 175.75 8.75 205.65 2.1 248.7 -1.8 248.25 8.8 248.25 15.8 L249.3 15.7 249.3 26.65 248.25 26.75 248.25 33.8 249.35 33.7 249.35 131.35 1.65 132.0;M10.2 146.4 Q10.0 138.45 12.0 129.3 13.95 120.2 18.95 110.45 23.95 100.65 32.7 90.75 41.4 80.85 54.7 71.3 68.0 61.75 86.6 53.1 105.15 44.45 129.8 37.15 154.45 29.8 184.3 23.15 214.2 16.5 257.25 12.6 256.8 23.2 256.8 30.2 L257.85 30.1 257.85 41.05 256.8 41.15 256.8 48.2 257.9 48.1 257.9 145.75 10.2 146.4"/>
    </path>
  </g>
</svg>
