<?xml version="1.0" encoding="UTF-8" standalone="no"?>
<svg xmlns:xlink="http://www.w3.org/1999/xlink" height="155.0px" width="271.55px" xmlns="http://www.w3.org/2000/svg">
  <g transform="matrix(1.0, 0.0, 0.0, 1.0, 13.2, 9.05)">
    <path d="M-12.75 134.15 L3.3 134.25 Q2.95 124.7 5.6 113.9 8.25 103.0 15.1 91.65 21.9 80.25 34.0 68.85 46.05 57.5 64.65 46.9 83.2 36.2 109.35 26.95 135.55 17.6 170.5 10.35 205.4 3.05 250.25 -1.65 L250.25 -9.05 Q206.45 -5.2 171.65 1.1 136.75 7.4 109.9 15.55 82.9 23.7 63.0 33.3 43.1 42.85 29.35 53.25 15.5 63.65 6.75 74.35 -2.0 85.1 -6.5 95.6 -11.05 106.1 -12.4 115.9 -13.75 125.6 -12.75 134.15" fill="#ffffff" fill-rule="evenodd" stroke="none">
      <animate attributeName="fill" dur="2s" repeatCount="indefinite" values="#ffffff;#ffffff"/>
      <animate attributeName="fill-opacity" dur="2s" repeatCount="indefinite" values="1.0;0.0"/>
      <animate attributeName="d" dur="2s" repeatCount="indefinite" values="M-12.75 134.15 L3.3 134.25 Q2.95 124.7 5.6 113.9 8.25 103.0 15.1 91.65 21.9 80.25 34.0 68.85 46.05 57.5 64.65 46.9 83.2 36.2 109.35 26.95 135.55 17.6 170.5 10.35 205.4 3.05 250.25 -1.65 L250.25 -9.05 Q206.45 -5.2 171.65 1.1 136.75 7.4 109.9 15.55 82.9 23.7 63.0 33.3 43.1 42.85 29.35 53.25 15.5 63.65 6.75 74.35 -2.0 85.1 -6.5 95.6 -11.05 106.1 -12.4 115.9 -13.75 125.6 -12.75 134.15;M-4.65 145.85 L11.4 145.95 Q11.05 136.4 13.7 125.6 16.35 114.7 23.2 103.35 30.0 91.95 42.1 80.55 54.15 69.2 72.75 58.6 91.3 47.9 117.45 38.65 143.65 29.3 178.6 22.05 213.5 14.75 258.35 10.05 L258.35 2.65 Q214.55 6.5 179.75 12.8 144.85 19.1 118.0 27.25 91.0 35.4 71.1 45.0 51.2 54.55 37.45 64.95 23.6 75.35 14.85 86.05 6.1 96.8 1.6 107.3 -2.95 117.8 -4.3 127.6 -5.65 137.3 -4.65 145.85"/>
    </path>
    <path d="M-12.75 134.15 Q-13.75 125.6 -12.4 115.9 -11.05 106.1 -6.5 95.6 -2.0 85.1 6.75 74.35 15.5 63.65 29.35 53.25 43.1 42.85 63.0 33.3 82.9 23.7 109.9 15.55 136.75 7.4 171.65 1.1 206.45 -5.2 250.25 -9.05 L250.25 -1.65 Q205.4 3.05 170.5 10.35 135.55 17.6 109.35 26.95 83.2 36.2 64.65 46.9 46.05 57.5 34.0 68.85 21.9 80.25 15.1 91.65 8.25 103.0 5.6 113.9 2.95 124.7 3.3 134.25 L-12.75 134.15" fill="none" stroke="#000000" stroke-linecap="round" stroke-linejoin="round" stroke-opacity="0.0" stroke-width="1.0">
      <animate attributeName="stroke" dur="2s" repeatCount="indefinite" values="#000000;#000001"/>
      <animate attributeName="stroke-width" dur="2s" repeatCount="indefinite" values="0.0;0.0"/>
      <animate attributeName="fill-opacity" dur="2s" repeatCount="indefinite" values="0.0;0.0"/>
      <animate attributeName="d" dur="2s" repeatCount="indefinite" values="M-12.75 134.15 Q-13.75 125.6 -12.4 115.9 -11.05 106.1 -6.5 95.6 -2.0 85.1 6.75 74.35 15.5 63.65 29.35 53.25 43.1 42.85 63.0 33.3 82.9 23.7 109.9 15.55 136.75 7.4 171.65 1.1 206.45 -5.2 250.25 -9.05 L250.25 -1.65 Q205.4 3.05 170.5 10.35 135.55 17.6 109.35 26.95 83.2 36.2 64.65 46.9 46.05 57.5 34.0 68.85 21.9 80.25 15.1 91.65 8.25 103.0 5.6 113.9 2.95 124.7 3.3 134.25 L-12.75 134.15;M-4.65 145.85 Q-5.65 137.3 -4.3 127.6 -2.95 117.8 1.6 107.3 6.1 96.8 14.85 86.05 23.6 75.35 37.45 64.95 51.2 54.55 71.1 45.0 91.0 35.4 118.0 27.25 144.85 19.1 179.75 12.8 214.55 6.5 258.35 2.65 L258.35 10.05 Q213.5 14.75 178.6 22.05 143.65 29.3 117.45 38.65 91.3 47.9 72.75 58.6 54.15 69.2 42.1 80.55 30.0 91.95 23.2 103.35 16.35 114.7 13.7 125.6 11.05 136.4 11.4 145.95 L-4.65 145.85"/>
    </path>
  </g>
</svg>
