<?xml version="1.0" encoding="UTF-8" standalone="no"?>
<svg xmlns:xlink="http://www.w3.org/1999/xlink" height="6.4px" width="53.2px" xmlns="http://www.w3.org/2000/svg">
  <g transform="matrix(1.0, 0.0, 0.0, 1.0, -0.85, -0.2)">
    <path d="M0.85 5.5 Q3.3 5.7 5.7 5.85 L8.6 5.15 11.7 3.7 12.1 3.35 18.45 5.35 23.65 6.35 Q26.65 6.75 29.15 6.45 23.9 5.1 20.2 3.3 16.4 1.55 14.85 0.2 L11.35 2.55 Q9.4 3.65 6.9 4.45 L0.85 5.5" fill="#287dd0" fill-rule="evenodd" stroke="none">
      <animate attributeName="fill" dur="2s" repeatCount="indefinite" values="#287dd0;#287dd1"/>
      <animate attributeName="fill-opacity" dur="2s" repeatCount="indefinite" values="1.0;1.0"/>
      <animate attributeName="d" dur="2s" repeatCount="indefinite" values="M0.85 5.5 Q3.3 5.7 5.7 5.85 L8.6 5.15 11.7 3.7 12.1 3.35 18.45 5.35 23.65 6.35 Q26.65 6.75 29.15 6.45 23.9 5.1 20.2 3.3 16.4 1.55 14.85 0.2 L11.35 2.55 Q9.4 3.65 6.9 4.45 L0.85 5.5;M25.9 5.45 Q28.55 6.2 31.6 6.05 L37.15 5.2 41.45 3.95 43.15 3.35 44.85 4.35 49.1 6.0 Q51.6 6.2 54.05 6.4 48.85 5.1 45.15 3.3 41.35 1.55 39.85 0.2 L36.35 2.55 Q34.45 3.65 31.9 4.45 L25.9 5.45"/>
    </path>
    <path d="M0.85 5.5 L6.9 4.45 Q9.4 3.65 11.35 2.55 L14.85 0.2 Q16.4 1.55 20.2 3.3 23.9 5.1 29.15 6.45 26.65 6.75 23.65 6.35 L18.45 5.35 12.1 3.35 11.7 3.7 8.6 5.15 5.7 5.85 Q3.3 5.7 0.85 5.5" fill="none" stroke="#000000" stroke-linecap="round" stroke-linejoin="round" stroke-opacity="0.0" stroke-width="1.0">
      <animate attributeName="stroke" dur="2s" repeatCount="indefinite" values="#000000;#000001"/>
      <animate attributeName="stroke-width" dur="2s" repeatCount="indefinite" values="0.0;0.0"/>
      <animate attributeName="fill-opacity" dur="2s" repeatCount="indefinite" values="0.0;0.0"/>
      <animate attributeName="d" dur="2s" repeatCount="indefinite" values="M0.85 5.5 L6.9 4.45 Q9.4 3.65 11.35 2.55 L14.85 0.2 Q16.4 1.55 20.2 3.3 23.9 5.1 29.15 6.45 26.65 6.75 23.65 6.35 L18.45 5.35 12.1 3.35 11.7 3.7 8.6 5.15 5.7 5.85 Q3.3 5.7 0.85 5.5;M25.9 5.45 L31.9 4.45 Q34.45 3.65 36.35 2.55 L39.85 0.2 Q41.35 1.55 45.15 3.3 48.85 5.1 54.05 6.4 51.6 6.2 49.1 6.0 L44.85 4.35 43.15 3.35 41.45 3.95 37.15 5.2 31.6 6.05 Q28.55 6.2 25.9 5.45"/>
    </path>
  </g>
</svg>
