<?xml version="1.0" encoding="UTF-8" standalone="no"?>
<svg xmlns:xlink="http://www.w3.org/1999/xlink" height="198.5px" width="296.4px" xmlns="http://www.w3.org/2000/svg">
  <g transform="matrix(1.0, 0.0, 0.0, 1.0, 21.25, -83.2)">
    <path d="M-13.4 121.9 Q-12.05 130.4 -6.3 140.05 -0.65 149.7 8.3 159.95 17.3 170.2 28.6 180.7 39.9 191.15 52.55 201.45 65.15 211.7 78.2 221.35 91.2 231.0 103.6 239.55 L126.75 255.2 145.75 267.4 158.6 275.35 163.3 278.2 273.65 278.2 273.65 277.6 272.15 277.6 272.15 277.55 275.15 277.55 273.4 106.45 272.75 96.0 272.45 96.0 272.45 95.9 272.75 96.0 271.65 83.2 245.15 83.2 226.7 83.2 214.45 83.2 206.45 83.2 200.85 83.2 195.9 83.2 189.6 83.2 180.1 83.2 165.65 83.2 144.3 83.2 114.2 83.2 73.55 83.2 Q47.95 83.25 30.6 86.05 13.2 88.85 3.1 94.0 -7.05 99.15 -10.95 106.25 -14.8 113.3 -13.4 121.9" fill="#244fc4" fill-rule="evenodd" stroke="none">
      <animate attributeName="fill" dur="2s" repeatCount="indefinite" values="#244fc4;#244fc5"/>
      <animate attributeName="fill-opacity" dur="2s" repeatCount="indefinite" values="1.0;1.0"/>
      <animate attributeName="d" dur="2s" repeatCount="indefinite" values="M-13.4 121.9 Q-12.05 130.4 -6.3 140.05 -0.65 149.7 8.3 159.95 17.3 170.2 28.6 180.7 39.9 191.15 52.55 201.45 65.15 211.7 78.2 221.35 91.2 231.0 103.6 239.55 L126.75 255.2 145.75 267.4 158.6 275.35 163.3 278.2 273.65 278.2 273.65 277.6 272.15 277.6 272.15 277.55 275.15 277.55 273.4 106.45 272.75 96.0 272.45 96.0 272.45 95.9 272.75 96.0 271.65 83.2 245.15 83.2 226.7 83.2 214.45 83.2 206.45 83.2 200.85 83.2 195.9 83.2 189.6 83.2 180.1 83.2 165.65 83.2 144.3 83.2 114.2 83.2 73.55 83.2 Q47.95 83.25 30.6 86.05 13.2 88.85 3.1 94.0 -7.05 99.15 -10.95 106.25 -14.8 113.3 -13.4 121.9;M-20.9 122.55 Q-19.5 131.25 -13.6 141.05 -7.8 150.85 1.4 161.3 10.6 171.75 22.2 182.45 33.75 193.1 46.75 203.55 59.7 214.0 73.05 223.8 86.4 233.65 99.15 242.35 L122.9 258.3 142.4 270.7 155.6 278.8 160.4 281.7 273.6 281.7 273.6 281.1 272.05 281.1 272.05 281.05 275.15 281.05 273.35 106.85 272.65 96.25 272.35 96.25 272.4 96.1 272.65 96.25 271.55 83.2 244.4 83.2 225.45 83.2 212.85 83.2 204.65 83.2 198.95 83.2 193.85 83.2 187.35 83.2 177.65 83.2 162.8 83.2 140.9 83.2 110.05 83.2 68.3 83.2 Q42.05 83.25 24.25 86.1 6.4 88.95 -3.95 94.2 -14.35 99.4 -18.35 106.65 -22.3 113.8 -20.9 122.55"/>
    </path>
    <path d="M-13.4 121.9 Q-14.8 113.3 -10.95 106.25 -7.05 99.15 3.1 94.0 13.2 88.85 30.6 86.05 47.95 83.25 73.55 83.2 L114.2 83.2 144.3 83.2 165.65 83.2 180.1 83.2 189.6 83.2 195.9 83.2 200.85 83.2 206.45 83.2 214.45 83.2 226.7 83.2 245.15 83.2 271.65 83.2 272.75 96.0 272.45 95.9 272.45 96.0 272.75 96.0 273.4 106.45 275.15 277.55 272.15 277.55 272.15 277.6 273.65 277.6 273.65 278.2 163.3 278.2 158.6 275.35 145.75 267.4 126.75 255.2 103.6 239.55 Q91.2 231.0 78.2 221.35 65.15 211.7 52.55 201.45 39.9 191.15 28.6 180.7 17.3 170.2 8.3 159.95 -0.65 149.7 -6.3 140.05 -12.05 130.4 -13.4 121.9" fill="none" stroke="#000000" stroke-linecap="round" stroke-linejoin="round" stroke-opacity="0.0" stroke-width="1.0">
      <animate attributeName="stroke" dur="2s" repeatCount="indefinite" values="#000000;#000001"/>
      <animate attributeName="stroke-width" dur="2s" repeatCount="indefinite" values="0.0;0.0"/>
      <animate attributeName="fill-opacity" dur="2s" repeatCount="indefinite" values="0.0;0.0"/>
      <animate attributeName="d" dur="2s" repeatCount="indefinite" values="M-13.4 121.9 Q-14.8 113.3 -10.95 106.25 -7.05 99.15 3.1 94.0 13.2 88.85 30.6 86.05 47.95 83.25 73.55 83.2 L114.2 83.2 144.3 83.2 165.65 83.2 180.1 83.2 189.6 83.2 195.9 83.2 200.85 83.2 206.45 83.2 214.45 83.2 226.7 83.2 245.15 83.2 271.65 83.2 272.75 96.0 272.45 95.9 272.45 96.0 272.75 96.0 273.4 106.45 275.15 277.55 272.15 277.55 272.15 277.6 273.65 277.6 273.65 278.2 163.3 278.2 158.6 275.35 145.75 267.4 126.75 255.2 103.6 239.55 Q91.2 231.0 78.2 221.35 65.15 211.7 52.55 201.45 39.9 191.15 28.6 180.7 17.3 170.2 8.3 159.95 -0.65 149.7 -6.3 140.05 -12.05 130.4 -13.4 121.9;M-20.9 122.55 Q-22.3 113.8 -18.35 106.65 -14.35 99.4 -3.95 94.2 6.4 88.95 24.25 86.1 42.05 83.25 68.3 83.2 L110.05 83.2 140.9 83.2 162.8 83.2 177.65 83.2 187.35 83.2 193.85 83.2 198.95 83.2 204.65 83.2 212.85 83.2 225.45 83.2 244.4 83.2 271.55 83.2 272.65 96.25 272.4 96.1 272.35 96.25 272.65 96.25 273.35 106.85 275.15 281.05 272.05 281.05 272.05 281.1 273.6 281.1 273.6 281.7 160.4 281.7 155.6 278.8 142.4 270.7 122.9 258.3 99.15 242.35 Q86.4 233.65 73.05 223.8 59.7 214.0 46.75 203.55 33.75 193.1 22.2 182.45 10.6 171.75 1.4 161.3 -7.8 150.85 -13.6 141.05 -19.5 131.25 -20.9 122.55"/>
    </path>
  </g>
</svg>
