<?xml version="1.0" encoding="UTF-8" standalone="no"?>
<svg xmlns:xlink="http://www.w3.org/1999/xlink" height="184.5px" width="274.55px" xmlns="http://www.w3.org/2000/svg">
  <g transform="matrix(1.0, 0.0, 0.0, 1.0, 4.5, -89.2)">
    <path d="M-4.1 123.95 Q-2.8 131.8 2.65 140.7 8.15 149.5 16.8 159.0 25.4 168.45 36.25 178.15 47.15 187.85 59.35 197.35 71.45 206.85 84.0 215.8 96.5 224.65 108.45 232.6 120.35 240.55 130.7 247.1 L157.1 263.65 169.45 271.05 173.95 273.65 176.05 273.7 159.75 264.0 133.8 247.75 Q123.7 241.35 112.15 233.6 L88.35 217.25 Q76.2 208.55 64.35 199.3 52.5 190.05 41.95 180.7 31.35 171.25 22.95 162.05 14.55 152.8 9.2 144.2 3.9 135.5 2.6 127.9 1.3 120.25 4.95 114.0 8.6 107.7 18.05 103.2 27.55 98.65 43.85 96.3 60.05 93.9 84.0 94.05 L125.0 94.4 154.35 94.6 174.25 94.75 186.95 94.85 194.65 94.9 199.6 94.95 203.95 94.95 209.95 95.05 219.85 95.1 235.85 95.25 270.05 95.5 270.0 90.65 236.75 90.35 220.95 90.25 210.7 90.15 204.3 90.1 199.95 90.1 195.9 90.05 190.4 90.0 181.65 89.95 167.95 89.85 147.55 89.7 118.65 89.45 79.5 89.2 Q54.9 89.05 38.2 91.45 21.5 93.9 11.75 98.55 2.0 103.2 -1.7 109.65 -5.5 116.05 -4.1 123.95" fill="#ffffff" fill-rule="evenodd" stroke="none">
      <animate attributeName="fill" dur="2s" repeatCount="indefinite" values="#ffffff;#ffffff"/>
      <animate attributeName="fill-opacity" dur="2s" repeatCount="indefinite" values="1.0;1.0"/>
      <animate attributeName="d" dur="2s" repeatCount="indefinite" values="M-4.1 123.95 Q-2.8 131.8 2.65 140.7 8.15 149.5 16.8 159.0 25.4 168.45 36.25 178.15 47.15 187.85 59.35 197.35 71.45 206.85 84.0 215.8 96.5 224.65 108.45 232.6 120.35 240.55 130.7 247.1 L157.1 263.65 169.45 271.05 173.95 273.65 176.05 273.7 159.75 264.0 133.8 247.75 Q123.7 241.35 112.15 233.6 L88.35 217.25 Q76.2 208.55 64.35 199.3 52.5 190.05 41.95 180.7 31.35 171.25 22.95 162.05 14.55 152.8 9.2 144.2 3.9 135.5 2.6 127.9 1.3 120.25 4.95 114.0 8.6 107.7 18.05 103.2 27.55 98.65 43.85 96.3 60.05 93.9 84.0 94.05 L125.0 94.4 154.35 94.6 174.25 94.75 186.95 94.85 194.65 94.9 199.6 94.95 203.95 94.95 209.95 95.05 219.85 95.1 235.85 95.25 270.05 95.5 270.0 90.65 236.75 90.35 220.95 90.25 210.7 90.15 204.3 90.1 199.95 90.1 195.9 90.05 190.4 90.0 181.65 89.95 167.95 89.85 147.55 89.7 118.65 89.45 79.5 89.2 Q54.9 89.05 38.2 91.45 21.5 93.9 11.75 98.55 2.0 103.2 -1.7 109.65 -5.5 116.05 -4.1 123.95;M0.35 124.8 Q1.65 132.4 7.0 140.95 12.4 149.45 20.9 158.55 29.4 167.65 40.05 176.95 50.75 186.25 62.75 195.35 74.7 204.45 87.0 213.0 99.3 221.5 111.05 229.1 122.75 236.7 132.95 242.95 L158.9 258.8 171.05 265.85 175.5 268.35 177.55 268.35 161.5 259.1 136.0 243.55 Q125.35 236.8 114.7 230.05 L91.3 214.4 Q79.35 206.1 67.7 197.2 56.05 188.35 45.65 179.35 35.25 170.3 26.95 161.45 18.7 152.6 13.45 144.3 8.25 135.95 6.95 128.6 5.7 121.2 9.25 115.1 12.85 109.0 22.15 104.55 31.5 100.1 47.5 97.7 63.45 95.3 87.0 95.25 L127.35 95.25 156.2 95.25 175.8 95.25 188.3 95.25 195.85 95.25 200.7 95.25 205.0 95.25 210.9 95.25 220.65 95.25 236.4 95.25 270.0 95.25 269.95 90.55 237.25 90.55 221.7 90.55 211.65 90.55 205.35 90.55 201.05 90.55 197.05 90.55 191.65 90.55 183.05 90.55 169.6 90.55 149.5 90.55 121.1 90.55 82.6 90.55 Q58.4 90.6 41.95 93.05 25.55 95.55 15.95 100.1 6.35 104.7 2.7 110.95 -1.0 117.2 0.35 124.8"/>
    </path>
    <path d="M-4.1 123.95 Q-5.5 116.05 -1.7 109.65 2.0 103.2 11.75 98.55 21.5 93.9 38.2 91.45 54.9 89.05 79.5 89.2 L118.65 89.45 147.55 89.7 167.95 89.85 181.65 89.95 190.4 90.0 195.9 90.05 199.95 90.1 204.3 90.1 210.7 90.15 220.95 90.25 236.75 90.35 270.0 90.65 270.05 95.5 235.85 95.25 219.85 95.1 209.95 95.05 203.95 94.95 199.6 94.95 194.65 94.9 186.95 94.85 174.25 94.75 154.35 94.6 125.0 94.4 84.0 94.05 Q60.05 93.9 43.85 96.3 27.55 98.65 18.05 103.2 8.6 107.7 4.95 114.0 1.3 120.25 2.6 127.9 3.9 135.5 9.2 144.2 14.55 152.8 22.95 162.05 31.35 171.25 41.95 180.7 52.5 190.05 64.35 199.3 76.2 208.55 88.35 217.25 L112.15 233.6 Q123.7 241.35 133.8 247.75 L159.75 264.0 176.05 273.7 173.95 273.65 169.45 271.05 157.1 263.65 130.7 247.1 Q120.35 240.55 108.45 232.6 96.5 224.65 84.0 215.8 71.45 206.85 59.35 197.35 47.15 187.85 36.25 178.15 25.4 168.45 16.8 159.0 8.15 149.5 2.65 140.7 -2.8 131.8 -4.1 123.95" fill="none" stroke="#000000" stroke-linecap="round" stroke-linejoin="round" stroke-opacity="0.0" stroke-width="1.0">
      <animate attributeName="stroke" dur="2s" repeatCount="indefinite" values="#000000;#000001"/>
      <animate attributeName="stroke-width" dur="2s" repeatCount="indefinite" values="0.0;0.0"/>
      <animate attributeName="fill-opacity" dur="2s" repeatCount="indefinite" values="0.0;0.0"/>
      <animate attributeName="d" dur="2s" repeatCount="indefinite" values="M-4.1 123.95 Q-5.5 116.05 -1.7 109.65 2.0 103.2 11.75 98.55 21.5 93.9 38.2 91.45 54.9 89.05 79.5 89.2 L118.65 89.45 147.55 89.7 167.95 89.85 181.65 89.95 190.4 90.0 195.9 90.05 199.95 90.1 204.3 90.1 210.7 90.15 220.95 90.25 236.75 90.35 270.0 90.65 270.05 95.5 235.85 95.25 219.85 95.1 209.95 95.05 203.95 94.95 199.6 94.95 194.65 94.9 186.95 94.85 174.25 94.75 154.35 94.6 125.0 94.4 84.0 94.05 Q60.05 93.9 43.85 96.3 27.55 98.65 18.05 103.2 8.6 107.7 4.95 114.0 1.3 120.25 2.6 127.9 3.9 135.5 9.2 144.2 14.55 152.8 22.95 162.05 31.35 171.25 41.95 180.7 52.5 190.05 64.35 199.3 76.2 208.55 88.35 217.25 L112.15 233.6 Q123.7 241.35 133.8 247.75 L159.75 264.0 176.05 273.7 173.95 273.65 169.45 271.05 157.1 263.65 130.7 247.1 Q120.35 240.55 108.45 232.6 96.5 224.65 84.0 215.8 71.45 206.85 59.35 197.35 47.15 187.85 36.25 178.15 25.4 168.45 16.8 159.0 8.15 149.5 2.65 140.7 -2.8 131.8 -4.1 123.95;M0.35 124.8 Q-1.0 117.2 2.7 110.95 6.35 104.7 15.95 100.1 25.55 95.55 41.95 93.05 58.4 90.6 82.6 90.55 L121.1 90.55 149.5 90.55 169.6 90.55 183.05 90.55 191.65 90.55 197.05 90.55 201.05 90.55 205.35 90.55 211.65 90.55 221.7 90.55 237.25 90.55 269.95 90.55 270.0 95.25 236.4 95.25 220.65 95.25 210.9 95.25 205.0 95.25 200.7 95.25 195.85 95.25 188.3 95.25 175.8 95.25 156.2 95.25 127.35 95.25 87.0 95.25 Q63.45 95.3 47.5 97.7 31.5 100.1 22.15 104.55 12.85 109.0 9.25 115.1 5.7 121.2 6.95 128.6 8.25 135.95 13.45 144.3 18.7 152.6 26.95 161.45 35.25 170.3 45.65 179.35 56.05 188.35 67.7 197.2 79.35 206.1 91.3 214.4 L114.7 230.05 Q125.35 236.8 136.0 243.55 L161.5 259.1 177.55 268.35 175.5 268.35 171.05 265.85 158.9 258.8 132.95 242.95 Q122.75 236.7 111.05 229.1 99.3 221.5 87.0 213.0 74.7 204.45 62.75 195.35 50.75 186.25 40.05 176.95 29.4 167.65 20.9 158.55 12.4 149.45 7.0 140.95 1.65 132.4 0.35 124.8"/>
    </path>
  </g>
</svg>
