<?xml version="1.0" encoding="UTF-8" standalone="no"?>
<svg xmlns:xlink="http://www.w3.org/1999/xlink" height="170.75px" width="260.2px" xmlns="http://www.w3.org/2000/svg">
  <g transform="matrix(1.0, 0.0, 0.0, 1.0, -10.85, -97.55)">
    <path d="M12.1 118.45 Q9.5 125.1 12.35 133.2 15.15 141.3 22.25 150.35 29.35 159.4 39.55 168.95 49.75 178.5 61.95 188.05 74.1 197.6 87.15 206.75 100.15 215.9 112.85 224.15 125.55 232.4 136.9 239.25 146.9 245.25 156.85 251.2 L183.9 267.0 190.35 267.1 185.45 264.4 163.8 251.6 144.45 240.0 Q133.5 233.3 121.15 225.3 108.65 216.85 96.15 208.45 83.45 199.55 71.65 190.25 59.75 180.95 49.9 171.7 40.0 162.4 33.1 153.6 26.15 144.85 23.45 137.0 20.7 129.1 23.2 122.6 25.7 116.15 34.55 111.5 43.4 106.8 59.75 104.4 76.05 102.05 100.9 102.35 L140.5 102.95 168.75 103.4 187.85 103.65 199.85 103.85 206.75 103.95 210.8 104.0 214.0 104.05 218.55 104.1 226.35 104.25 271.0 104.9 271.05 106.55 271.05 100.25 223.55 99.55 214.8 99.4 209.6 99.35 205.9 99.3 201.45 99.2 194.1 99.1 181.65 98.9 161.95 98.65 132.8 98.2 92.1 97.6 Q66.45 97.25 49.65 99.7 32.9 102.15 23.8 107.0 14.65 111.8 12.1 118.45" fill="#ffffff" fill-rule="evenodd" stroke="none">
      <animate attributeName="fill" dur="2s" repeatCount="indefinite" values="#ffffff;#ffffff"/>
      <animate attributeName="fill-opacity" dur="2s" repeatCount="indefinite" values="1.0;1.0"/>
      <animate attributeName="d" dur="2s" repeatCount="indefinite" values="M12.1 118.45 Q9.5 125.1 12.35 133.2 15.15 141.3 22.25 150.35 29.35 159.4 39.55 168.95 49.75 178.5 61.95 188.05 74.1 197.6 87.15 206.75 100.15 215.9 112.85 224.15 125.55 232.4 136.9 239.25 146.9 245.25 156.85 251.2 L183.9 267.0 190.35 267.1 185.45 264.4 163.8 251.6 144.45 240.0 Q133.5 233.3 121.15 225.3 108.65 216.85 96.15 208.45 83.45 199.55 71.65 190.25 59.75 180.95 49.9 171.7 40.0 162.4 33.1 153.6 26.15 144.85 23.45 137.0 20.7 129.1 23.2 122.6 25.7 116.15 34.55 111.5 43.4 106.8 59.75 104.4 76.05 102.05 100.9 102.35 L140.5 102.95 168.75 103.4 187.85 103.65 199.85 103.85 206.75 103.95 210.8 104.0 214.0 104.05 218.55 104.1 226.35 104.25 271.0 104.9 271.05 106.55 271.05 100.25 223.55 99.55 214.8 99.4 209.6 99.35 205.9 99.3 201.45 99.2 194.1 99.1 181.65 98.9 161.95 98.65 132.8 98.2 92.1 97.6 Q66.45 97.25 49.65 99.7 32.9 102.15 23.8 107.0 14.65 111.8 12.1 118.45;M22.5 122.3 Q20.0 129.0 22.75 137.05 25.45 145.1 32.25 154.05 39.05 163.0 48.85 172.4 58.65 181.8 70.35 191.15 82.0 200.55 94.5 209.5 107.0 218.45 119.2 226.5 130.75 233.9 142.25 241.25 153.05 248.0 161.4 252.9 L187.35 268.3 193.55 268.3 188.85 265.65 168.1 253.2 149.5 241.9 Q138.3 234.7 127.15 227.55 115.25 219.7 103.15 211.05 91.0 202.35 79.65 193.2 68.25 184.1 58.75 175.0 49.25 165.85 42.65 157.15 36.0 148.5 33.4 140.65 30.75 132.85 33.15 126.3 35.55 119.8 44.05 115.0 52.55 110.2 68.2 107.55 83.85 104.95 107.7 104.9 L145.7 104.9 172.85 104.9 191.15 104.9 202.65 104.9 209.3 104.9 213.2 104.9 216.25 104.9 220.6 104.9 228.1 104.9 270.95 104.9 271.0 106.55 271.0 100.25 225.4 100.25 217.0 100.25 212.05 100.25 208.5 100.25 204.2 100.25 197.15 100.25 185.2 100.25 166.3 100.25 138.35 100.25 99.25 100.25 Q74.65 100.3 58.55 103.0 42.45 105.7 33.7 110.65 24.95 115.6 22.5 122.3"/>
    </path>
    <path d="M12.1 118.45 Q14.65 111.8 23.8 107.0 32.9 102.15 49.65 99.7 66.45 97.25 92.1 97.6 L132.8 98.2 161.95 98.65 181.65 98.9 194.1 99.1 201.45 99.2 205.9 99.3 209.6 99.35 214.8 99.4 223.55 99.55 271.05 100.25 271.05 106.55 271.0 104.9 226.35 104.25 218.55 104.1 214.0 104.05 210.8 104.0 206.75 103.95 199.85 103.85 187.85 103.65 168.75 103.4 140.5 102.95 100.9 102.35 Q76.05 102.05 59.75 104.4 43.4 106.8 34.55 111.5 25.7 116.15 23.2 122.6 20.7 129.1 23.45 137.0 26.15 144.85 33.1 153.6 40.0 162.4 49.9 171.7 59.75 180.95 71.65 190.25 83.45 199.55 96.15 208.45 108.65 216.85 121.15 225.3 133.5 233.3 144.45 240.0 L163.8 251.6 185.45 264.4 190.35 267.1 183.9 267.0 156.85 251.2 Q146.9 245.25 136.9 239.25 125.55 232.4 112.85 224.15 100.15 215.9 87.15 206.75 74.1 197.6 61.95 188.05 49.75 178.5 39.55 168.95 29.35 159.4 22.25 150.35 15.15 141.3 12.35 133.2 9.5 125.1 12.1 118.45" fill="none" stroke="#000000" stroke-linecap="round" stroke-linejoin="round" stroke-opacity="0.0" stroke-width="1.0">
      <animate attributeName="stroke" dur="2s" repeatCount="indefinite" values="#000000;#000001"/>
      <animate attributeName="stroke-width" dur="2s" repeatCount="indefinite" values="0.0;0.0"/>
      <animate attributeName="fill-opacity" dur="2s" repeatCount="indefinite" values="0.0;0.0"/>
      <animate attributeName="d" dur="2s" repeatCount="indefinite" values="M12.1 118.45 Q14.65 111.8 23.8 107.0 32.9 102.15 49.65 99.7 66.45 97.25 92.1 97.6 L132.8 98.2 161.95 98.65 181.65 98.9 194.1 99.1 201.45 99.2 205.9 99.3 209.6 99.35 214.8 99.4 223.55 99.55 271.05 100.25 271.05 106.55 271.0 104.9 226.35 104.25 218.55 104.1 214.0 104.05 210.8 104.0 206.75 103.95 199.85 103.85 187.85 103.65 168.75 103.4 140.5 102.95 100.9 102.35 Q76.05 102.05 59.75 104.4 43.4 106.8 34.55 111.5 25.7 116.15 23.2 122.6 20.7 129.1 23.45 137.0 26.15 144.85 33.1 153.6 40.0 162.4 49.9 171.7 59.75 180.95 71.65 190.25 83.45 199.55 96.15 208.45 108.65 216.85 121.15 225.3 133.5 233.3 144.45 240.0 L163.8 251.6 185.45 264.4 190.35 267.1 183.9 267.0 156.85 251.2 Q146.9 245.25 136.9 239.25 125.55 232.4 112.85 224.15 100.15 215.9 87.15 206.75 74.1 197.6 61.95 188.05 49.75 178.5 39.55 168.95 29.35 159.4 22.25 150.35 15.15 141.3 12.35 133.2 9.5 125.1 12.1 118.45;M22.5 122.3 Q24.95 115.6 33.7 110.65 42.45 105.7 58.55 103.0 74.65 100.3 99.25 100.25 L138.35 100.25 166.3 100.25 185.2 100.25 197.15 100.25 204.2 100.25 208.5 100.25 212.05 100.25 217.0 100.25 225.4 100.25 271.0 100.25 271.0 106.55 270.95 104.9 228.1 104.9 220.6 104.9 216.25 104.9 213.2 104.9 209.3 104.9 202.65 104.9 191.15 104.9 172.85 104.9 145.7 104.9 107.7 104.9 Q83.85 104.95 68.2 107.55 52.55 110.2 44.05 115.0 35.55 119.8 33.15 126.3 30.75 132.85 33.4 140.65 36.0 148.5 42.65 157.15 49.25 165.85 58.75 175.0 68.25 184.1 79.65 193.2 91.0 202.35 103.15 211.05 115.25 219.7 127.15 227.55 138.3 234.7 149.5 241.9 L168.1 253.2 188.85 265.65 193.55 268.3 187.35 268.3 161.4 252.9 Q153.05 248.0 142.25 241.25 130.75 233.9 119.2 226.5 107.0 218.45 94.5 209.5 82.0 200.55 70.35 191.15 58.65 181.8 48.85 172.4 39.05 163.0 32.25 154.05 25.45 145.1 22.75 137.05 20.0 129.0 22.5 122.3"/>
    </path>
  </g>
</svg>
