<?xml version="1.0" encoding="UTF-8" standalone="no"?>
<svg xmlns:xlink="http://www.w3.org/1999/xlink" height="440.35px" width="639.2px" xmlns="http://www.w3.org/2000/svg">
  <g transform="matrix(1.0, 0.0, 0.0, 1.0, 316.4, 430.4)">
    <path d="M-316.4 -194.95 Q-293.25 -192.95 -310.2 4.0 L313.8 5.95 317.9 -427.3 Q244.7 -429.5 172.3 -430.2 27.55 -431.6 31.9 -424.2 L55.25 -384.85 Q61.25 -374.4 69.7 -365.3 78.15 -356.2 86.9 -348.6 L103.65 -334.1 Q111.55 -327.25 117.7 -320.55 123.75 -313.85 126.95 -306.55 130.05 -299.3 129.25 -290.8 128.45 -282.35 122.6 -271.95 112.8 -255.45 100.05 -242.85 87.35 -230.3 72.55 -221.1 57.75 -211.95 41.8 -205.75 25.8 -199.55 9.6 -195.75 -6.7 -192.0 -22.4 -190.15 L-52.25 -187.95 Q-66.4 -187.6 -78.25 -188.2 L-98.6 -189.85 Q-105.1 -190.9 -111.55 -191.95 -116.8 -193.25 -121.0 -195.5 L-129.2 -200.0 Q-133.1 -202.25 -137.4 -203.6 -141.75 -204.95 -147.1 -204.45 -152.5 -203.85 -157.85 -202.05 L-168.8 -198.15 Q-174.45 -196.05 -180.75 -194.55 -187.1 -193.05 -194.55 -192.95 L-316.4 -194.95" fill="#244fc4" fill-rule="evenodd" stroke="none">
      <animate attributeName="fill" dur="2s" repeatCount="indefinite" values="#244fc4;#244fc5"/>
      <animate attributeName="fill-opacity" dur="2s" repeatCount="indefinite" values="1.0;1.0"/>
      <animate attributeName="d" dur="2s" repeatCount="indefinite" values="M-316.4 -194.95 Q-293.25 -192.95 -310.2 4.0 L313.8 5.95 317.9 -427.3 Q244.7 -429.5 172.3 -430.2 27.55 -431.6 31.9 -424.2 L55.25 -384.85 Q61.25 -374.4 69.7 -365.3 78.15 -356.2 86.9 -348.6 L103.65 -334.1 Q111.55 -327.25 117.7 -320.55 123.75 -313.85 126.95 -306.55 130.05 -299.3 129.25 -290.8 128.45 -282.35 122.6 -271.95 112.8 -255.45 100.05 -242.85 87.35 -230.3 72.55 -221.1 57.75 -211.95 41.8 -205.75 25.8 -199.55 9.6 -195.75 -6.7 -192.0 -22.4 -190.15 L-52.25 -187.95 Q-66.4 -187.6 -78.25 -188.2 L-98.6 -189.85 Q-105.1 -190.9 -111.55 -191.95 -116.8 -193.25 -121.0 -195.5 L-129.2 -200.0 Q-133.1 -202.25 -137.4 -203.6 -141.75 -204.95 -147.1 -204.45 -152.5 -203.85 -157.85 -202.05 L-168.8 -198.15 Q-174.45 -196.05 -180.75 -194.55 -187.1 -193.05 -194.55 -192.95 L-316.4 -194.95;M-312.55 -190.95 Q-289.4 -188.95 -307.2 8.0 L316.8 9.95 322.8 -423.3 Q249.6 -425.5 177.2 -426.2 32.45 -427.6 36.75 -420.2 L59.95 -380.85 Q65.9 -370.4 74.3 -361.3 82.75 -352.2 91.45 -344.6 L108.1 -330.1 Q116.0 -323.25 122.1 -316.55 128.15 -309.85 131.3 -302.55 134.4 -295.3 133.55 -286.8 132.7 -278.35 126.8 -267.95 116.95 -251.45 104.15 -238.85 91.4 -226.3 76.55 -217.1 61.7 -207.95 45.7 -201.75 29.7 -195.55 13.45 -191.75 -2.85 -188.0 -18.55 -186.15 L-48.4 -183.95 Q-62.55 -183.6 -74.4 -184.2 L-94.75 -185.85 Q-103.3 -186.9 -107.7 -187.95 -112.95 -189.25 -117.15 -191.5 L-125.3 -196.0 Q-129.2 -198.25 -133.5 -199.6 -137.8 -200.95 -143.2 -200.45 -148.6 -199.85 -153.95 -198.05 L-164.9 -194.15 Q-170.55 -192.05 -176.9 -190.55 -183.25 -189.05 -190.7 -188.95 L-312.55 -190.95"/>
    </path>
    <path d="M-316.4 -194.95 L-194.55 -192.95 Q-187.1 -193.05 -180.75 -194.55 -174.45 -196.05 -168.8 -198.15 L-157.85 -202.05 Q-152.5 -203.85 -147.1 -204.45 -141.75 -204.95 -137.4 -203.6 -133.1 -202.25 -129.2 -200.0 L-121.0 -195.5 Q-116.8 -193.25 -111.55 -191.95 -105.1 -190.9 -98.6 -189.85 L-78.25 -188.2 Q-66.4 -187.6 -52.25 -187.95 L-22.4 -190.15 Q-6.7 -192.0 9.6 -195.75 25.8 -199.55 41.8 -205.75 57.75 -211.95 72.55 -221.1 87.35 -230.3 100.05 -242.85 112.8 -255.45 122.6 -271.95 128.45 -282.35 129.25 -290.8 130.05 -299.3 126.95 -306.55 123.75 -313.85 117.7 -320.55 111.55 -327.25 103.65 -334.1 L86.9 -348.6 Q78.15 -356.2 69.7 -365.3 61.25 -374.4 55.25 -384.85 L31.9 -424.2 Q27.55 -431.6 172.3 -430.2 244.7 -429.5 317.9 -427.3 L313.8 5.95 -310.2 4.0 Q-293.25 -192.95 -316.4 -194.95" fill="none" stroke="#000000" stroke-linecap="round" stroke-linejoin="round" stroke-opacity="0.0" stroke-width="1.0">
      <animate attributeName="stroke" dur="2s" repeatCount="indefinite" values="#000000;#000001"/>
      <animate attributeName="stroke-width" dur="2s" repeatCount="indefinite" values="0.0;0.0"/>
      <animate attributeName="fill-opacity" dur="2s" repeatCount="indefinite" values="0.0;0.0"/>
      <animate attributeName="d" dur="2s" repeatCount="indefinite" values="M-316.4 -194.95 L-194.55 -192.95 Q-187.1 -193.05 -180.75 -194.55 -174.45 -196.05 -168.8 -198.15 L-157.85 -202.05 Q-152.5 -203.85 -147.1 -204.45 -141.75 -204.95 -137.4 -203.6 -133.1 -202.25 -129.2 -200.0 L-121.0 -195.5 Q-116.8 -193.25 -111.55 -191.95 -105.1 -190.9 -98.6 -189.85 L-78.25 -188.2 Q-66.4 -187.6 -52.25 -187.95 L-22.4 -190.15 Q-6.7 -192.0 9.6 -195.75 25.8 -199.55 41.8 -205.75 57.75 -211.95 72.55 -221.1 87.35 -230.3 100.05 -242.85 112.8 -255.45 122.6 -271.95 128.45 -282.35 129.25 -290.8 130.05 -299.3 126.95 -306.55 123.75 -313.85 117.7 -320.55 111.55 -327.25 103.65 -334.1 L86.9 -348.6 Q78.15 -356.2 69.7 -365.3 61.25 -374.4 55.25 -384.85 L31.9 -424.2 Q27.55 -431.6 172.3 -430.2 244.7 -429.5 317.9 -427.3 L313.8 5.95 -310.2 4.0 Q-293.25 -192.95 -316.4 -194.95;M-312.55 -190.95 L-190.7 -188.95 Q-183.25 -189.05 -176.9 -190.55 -170.55 -192.05 -164.9 -194.15 L-153.95 -198.05 Q-148.6 -199.85 -143.2 -200.45 -137.8 -200.95 -133.5 -199.6 -129.2 -198.25 -125.3 -196.0 L-117.15 -191.5 Q-112.95 -189.25 -107.7 -187.95 -103.3 -186.9 -94.75 -185.85 L-74.4 -184.2 Q-62.55 -183.6 -48.4 -183.95 L-18.55 -186.15 Q-2.85 -188.0 13.45 -191.75 29.7 -195.55 45.7 -201.75 61.7 -207.95 76.55 -217.1 91.4 -226.3 104.15 -238.85 116.95 -251.45 126.8 -267.95 132.7 -278.35 133.55 -286.8 134.4 -295.3 131.3 -302.55 128.15 -309.85 122.1 -316.55 116.0 -323.25 108.1 -330.1 L91.45 -344.6 Q82.75 -352.2 74.3 -361.3 65.9 -370.4 59.95 -380.85 L36.75 -420.2 Q32.45 -427.6 177.2 -426.2 249.6 -425.5 322.8 -423.3 L316.8 9.95 -307.2 8.0 Q-289.4 -188.95 -312.55 -190.95"/>
    </path>
  </g>
</svg>
