<?xml version="1.0" encoding="UTF-8" standalone="no"?>
<svg xmlns:xlink="http://www.w3.org/1999/xlink" height="124.6px" width="480.05px" xmlns="http://www.w3.org/2000/svg">
  <g transform="matrix(1.0, 0.0, 0.0, 1.0, 305.35, 285.5)">
    <path d="M-305.35 -175.0 L-304.45 -168.2 -250.8 -168.65 -250.75 -168.4 -238.65 -168.55 -219.45 -168.7 -201.85 -168.85 -187.5 -168.95 -177.9 -169.05 Q-172.0 -169.15 -167.7 -170.15 -163.5 -171.2 -160.25 -172.8 -157.1 -174.4 -154.2 -176.05 -151.15 -177.55 -148.1 -179.05 -144.85 -180.35 -140.6 -180.85 -135.35 -181.4 -130.85 -180.1 -126.4 -178.8 -122.15 -176.55 L-113.4 -172.15 Q-108.85 -169.95 -103.4 -168.65 -99.35 -167.75 -91.0 -167.0 L-71.0 -166.05 Q-59.35 -165.8 -45.2 -166.3 L-15.3 -168.45 Q0.45 -170.15 16.9 -173.2 33.35 -176.25 49.65 -181.05 65.95 -185.85 81.2 -192.7 96.45 -199.55 109.8 -208.8 123.1 -218.05 133.65 -229.95 144.2 -241.9 151.05 -256.8 154.45 -264.75 155.25 -271.85 156.0 -278.95 154.5 -285.5 154.75 -280.45 153.7 -275.05 152.65 -269.65 150.1 -263.8 143.25 -248.9 132.55 -236.95 121.8 -225.0 108.2 -215.8 94.6 -206.55 78.95 -199.7 63.3 -192.85 46.6 -188.05 29.9 -183.2 12.95 -180.15 -3.95 -177.1 -20.15 -175.4 L-50.85 -173.25 Q-65.4 -172.75 -77.35 -173.0 L-97.8 -173.95 Q-106.3 -174.7 -110.4 -175.6 -115.8 -176.85 -120.35 -179.05 L-129.1 -183.5 Q-133.35 -185.75 -137.8 -187.05 -142.3 -188.35 -147.6 -187.8 -151.85 -187.25 -155.05 -186.0 -158.25 -184.65 -161.15 -183.0 -164.2 -181.35 -167.2 -179.75 -170.45 -178.15 -174.65 -177.1 -178.95 -176.1 -184.85 -176.0 L-195.75 -175.9 -212.05 -175.75 -231.6 -175.6 -252.35 -175.4 -272.15 -175.25 -288.9 -175.1 -300.5 -175.0 -304.7 -174.95 -304.85 -174.95 -304.85 -175.0 -305.35 -175.0" fill="#ffffff" fill-rule="evenodd" stroke="none">
      <animate attributeName="fill" dur="2s" repeatCount="indefinite" values="#ffffff;#ffffff"/>
      <animate attributeName="fill-opacity" dur="2s" repeatCount="indefinite" values="1.0;1.0"/>
      <animate attributeName="d" dur="2s" repeatCount="indefinite" values="M-305.35 -175.0 L-304.45 -168.2 -250.8 -168.65 -250.75 -168.4 -238.65 -168.55 -219.45 -168.7 -201.85 -168.85 -187.5 -168.95 -177.9 -169.05 Q-172.0 -169.15 -167.7 -170.15 -163.5 -171.2 -160.25 -172.8 -157.1 -174.4 -154.2 -176.05 -151.15 -177.55 -148.1 -179.05 -144.85 -180.35 -140.6 -180.85 -135.35 -181.4 -130.85 -180.1 -126.4 -178.8 -122.15 -176.55 L-113.4 -172.15 Q-108.85 -169.95 -103.4 -168.65 -99.35 -167.75 -91.0 -167.0 L-71.0 -166.05 Q-59.35 -165.8 -45.2 -166.3 L-15.3 -168.45 Q0.45 -170.15 16.9 -173.2 33.35 -176.25 49.65 -181.05 65.95 -185.85 81.2 -192.7 96.45 -199.55 109.8 -208.8 123.1 -218.05 133.65 -229.95 144.2 -241.9 151.05 -256.8 154.45 -264.75 155.25 -271.85 156.0 -278.95 154.5 -285.5 154.75 -280.45 153.7 -275.05 152.65 -269.65 150.1 -263.8 143.25 -248.9 132.55 -236.95 121.8 -225.0 108.2 -215.8 94.6 -206.55 78.95 -199.7 63.3 -192.85 46.6 -188.05 29.9 -183.2 12.95 -180.15 -3.95 -177.1 -20.15 -175.4 L-50.85 -173.25 Q-65.4 -172.75 -77.35 -173.0 L-97.8 -173.95 Q-106.3 -174.7 -110.4 -175.6 -115.8 -176.85 -120.35 -179.05 L-129.1 -183.5 Q-133.35 -185.75 -137.8 -187.05 -142.3 -188.35 -147.6 -187.8 -151.85 -187.25 -155.05 -186.0 -158.25 -184.65 -161.15 -183.0 -164.2 -181.35 -167.2 -179.75 -170.45 -178.15 -174.65 -177.1 -178.95 -176.1 -184.85 -176.0 L-195.75 -175.9 -212.05 -175.75 -231.6 -175.6 -252.35 -175.4 -272.15 -175.25 -288.9 -175.1 -300.5 -175.0 -304.7 -174.95 -304.85 -174.95 -304.85 -175.0 -305.35 -175.0;M-299.85 -172.0 L-299.85 -165.2 -246.2 -165.2 -246.2 -164.95 -234.1 -164.95 -214.9 -164.95 -197.3 -164.95 -182.95 -164.95 -173.35 -164.95 Q-167.4 -165.0 -163.0 -166.0 -158.65 -167.0 -155.2 -168.55 -151.8 -170.1 -148.7 -171.75 -145.6 -173.4 -142.2 -174.7 -138.8 -175.95 -134.5 -176.45 -129.15 -176.95 -124.85 -175.6 -120.55 -174.25 -116.65 -172.0 L-108.5 -167.5 Q-104.25 -165.25 -99.0 -163.95 -95.05 -163.0 -86.8 -162.2 L-66.95 -161.05 Q-55.35 -160.7 -41.15 -161.1 L-11.0 -163.0 Q4.95 -164.55 21.8 -167.45 38.65 -170.35 55.6 -175.05 72.55 -179.7 88.7 -186.45 104.85 -193.15 119.45 -202.3 134.0 -211.4 146.15 -223.25 158.3 -235.1 167.15 -249.95 171.65 -257.85 173.4 -264.95 175.15 -272.05 174.5 -278.6 174.1 -273.55 172.3 -268.15 170.5 -262.75 167.15 -256.95 158.3 -242.1 146.0 -230.25 133.65 -218.4 118.8 -209.3 103.95 -200.15 87.4 -193.45 70.85 -186.7 53.5 -182.05 36.15 -177.35 18.8 -174.45 1.5 -171.55 -14.9 -170.0 L-45.85 -168.1 Q-60.45 -167.7 -72.35 -168.05 L-92.65 -169.2 Q-101.05 -170.0 -105.0 -170.95 -110.25 -172.25 -114.5 -174.5 L-122.65 -179.0 Q-126.55 -181.25 -130.85 -182.6 -135.15 -183.95 -140.5 -183.45 -144.8 -182.95 -148.2 -181.7 -151.6 -180.4 -154.7 -178.75 -157.8 -177.1 -161.2 -175.55 -164.65 -174.0 -169.0 -173.0 -173.4 -172.0 -179.35 -171.95 L-190.25 -171.95 -206.55 -171.95 -226.1 -171.95 -246.85 -171.95 -266.65 -171.95 -283.4 -171.95 -295.0 -171.95 -299.2 -171.95 -299.35 -171.95 -299.35 -172.0 -299.85 -172.0"/>
    </path>
    <path d="M-305.35 -175.0 L-304.85 -175.0 -304.85 -174.95 -304.7 -174.95 -300.5 -175.0 -288.9 -175.1 -272.15 -175.25 -252.35 -175.4 -231.6 -175.6 -212.05 -175.75 -195.75 -175.9 -184.85 -176.0 Q-178.95 -176.1 -174.65 -177.1 -170.45 -178.15 -167.2 -179.75 -164.2 -181.35 -161.15 -183.0 -158.25 -184.65 -155.05 -186.0 -151.85 -187.25 -147.6 -187.8 -142.3 -188.35 -137.8 -187.05 -133.35 -185.75 -129.1 -183.5 L-120.35 -179.05 Q-115.8 -176.85 -110.4 -175.6 -106.3 -174.7 -97.8 -173.95 L-77.35 -173.0 Q-65.4 -172.75 -50.85 -173.25 L-20.15 -175.4 Q-3.95 -177.1 12.95 -180.15 29.9 -183.2 46.6 -188.05 63.3 -192.85 78.95 -199.7 94.6 -206.55 108.2 -215.8 121.8 -225.0 132.55 -236.95 143.25 -248.9 150.1 -263.8 152.65 -269.65 153.7 -275.05 154.75 -280.45 154.5 -285.5 156.0 -278.95 155.25 -271.85 154.45 -264.75 151.05 -256.8 144.2 -241.9 133.65 -229.95 123.1 -218.05 109.8 -208.8 96.45 -199.55 81.2 -192.7 65.95 -185.85 49.65 -181.05 33.35 -176.25 16.9 -173.2 0.45 -170.15 -15.3 -168.45 L-45.2 -166.3 Q-59.35 -165.8 -71.0 -166.05 L-91.0 -167.0 Q-99.35 -167.75 -103.4 -168.65 -108.85 -169.95 -113.4 -172.15 L-122.15 -176.55 Q-126.4 -178.8 -130.85 -180.1 -135.35 -181.4 -140.6 -180.85 -144.85 -180.35 -148.1 -179.05 -151.15 -177.55 -154.2 -176.05 -157.1 -174.4 -160.25 -172.8 -163.5 -171.2 -167.7 -170.15 -172.0 -169.15 -177.9 -169.05 L-187.5 -168.95 -201.85 -168.85 -219.45 -168.7 -238.65 -168.55 -250.75 -168.4 -250.8 -168.65 -304.45 -168.2 -305.35 -175.0" fill="none" stroke="#000000" stroke-linecap="round" stroke-linejoin="round" stroke-opacity="0.0" stroke-width="1.0">
      <animate attributeName="stroke" dur="2s" repeatCount="indefinite" values="#000000;#000001"/>
      <animate attributeName="stroke-width" dur="2s" repeatCount="indefinite" values="0.0;0.0"/>
      <animate attributeName="fill-opacity" dur="2s" repeatCount="indefinite" values="0.0;0.0"/>
      <animate attributeName="d" dur="2s" repeatCount="indefinite" values="M-305.35 -175.0 L-304.85 -175.0 -304.85 -174.95 -304.7 -174.95 -300.5 -175.0 -288.9 -175.1 -272.15 -175.25 -252.35 -175.4 -231.6 -175.6 -212.05 -175.75 -195.75 -175.9 -184.85 -176.0 Q-178.95 -176.1 -174.65 -177.1 -170.45 -178.15 -167.2 -179.75 -164.2 -181.35 -161.15 -183.0 -158.25 -184.65 -155.05 -186.0 -151.85 -187.25 -147.6 -187.8 -142.3 -188.35 -137.8 -187.05 -133.35 -185.75 -129.1 -183.5 L-120.35 -179.05 Q-115.8 -176.85 -110.4 -175.6 -106.3 -174.7 -97.8 -173.95 L-77.35 -173.0 Q-65.4 -172.75 -50.85 -173.25 L-20.15 -175.4 Q-3.95 -177.1 12.95 -180.15 29.9 -183.2 46.6 -188.05 63.3 -192.85 78.95 -199.7 94.6 -206.55 108.2 -215.8 121.8 -225.0 132.55 -236.95 143.25 -248.9 150.1 -263.8 152.65 -269.65 153.7 -275.05 154.75 -280.45 154.5 -285.5 156.0 -278.95 155.25 -271.85 154.45 -264.75 151.05 -256.8 144.2 -241.9 133.65 -229.95 123.1 -218.05 109.8 -208.8 96.45 -199.55 81.2 -192.7 65.95 -185.85 49.65 -181.05 33.35 -176.25 16.9 -173.2 0.45 -170.15 -15.3 -168.45 L-45.2 -166.3 Q-59.35 -165.8 -71.0 -166.05 L-91.0 -167.0 Q-99.35 -167.75 -103.4 -168.65 -108.85 -169.95 -113.4 -172.15 L-122.15 -176.55 Q-126.4 -178.8 -130.85 -180.1 -135.35 -181.4 -140.6 -180.85 -144.85 -180.35 -148.1 -179.05 -151.15 -177.55 -154.2 -176.05 -157.1 -174.4 -160.25 -172.8 -163.5 -171.2 -167.7 -170.15 -172.0 -169.15 -177.9 -169.05 L-187.5 -168.95 -201.85 -168.85 -219.45 -168.7 -238.65 -168.55 -250.75 -168.4 -250.8 -168.65 -304.45 -168.2 -305.35 -175.0;M-299.85 -172.0 L-299.35 -172.0 -299.35 -171.95 -299.2 -171.95 -295.0 -171.95 -283.4 -171.95 -266.65 -171.95 -246.85 -171.95 -226.1 -171.95 -206.55 -171.95 -190.25 -171.95 -179.35 -171.95 Q-173.4 -172.0 -169.0 -173.0 -164.65 -174.0 -161.2 -175.55 -157.8 -177.1 -154.7 -178.75 -151.6 -180.4 -148.2 -181.7 -144.8 -182.95 -140.5 -183.45 -135.15 -183.95 -130.85 -182.6 -126.55 -181.25 -122.65 -179.0 L-114.5 -174.5 Q-110.25 -172.25 -105.0 -170.95 -101.05 -170.0 -92.65 -169.2 L-72.35 -168.05 Q-60.45 -167.7 -45.85 -168.1 L-14.9 -170.0 Q1.5 -171.55 18.8 -174.45 36.15 -177.35 53.5 -182.05 70.85 -186.7 87.4 -193.45 103.95 -200.15 118.8 -209.3 133.65 -218.4 146.0 -230.25 158.3 -242.1 167.15 -256.95 170.5 -262.75 172.3 -268.15 174.1 -273.55 174.5 -278.6 175.15 -272.05 173.4 -264.95 171.65 -257.85 167.15 -249.95 158.3 -235.1 146.15 -223.25 134.0 -211.4 119.45 -202.3 104.85 -193.15 88.7 -186.45 72.55 -179.7 55.6 -175.05 38.65 -170.35 21.8 -167.45 4.95 -164.55 -11.0 -163.0 L-41.15 -161.1 Q-55.35 -160.7 -66.95 -161.05 L-86.8 -162.2 Q-95.05 -163.0 -99.0 -163.95 -104.25 -165.25 -108.5 -167.5 L-116.65 -172.0 Q-120.55 -174.25 -124.85 -175.6 -129.15 -176.95 -134.5 -176.45 -138.8 -175.95 -142.2 -174.7 -145.6 -173.4 -148.7 -171.75 -151.8 -170.1 -155.2 -168.55 -158.65 -167.0 -163.0 -166.0 -167.4 -165.0 -173.35 -164.95 L-182.95 -164.95 -197.3 -164.95 -214.9 -164.95 -234.1 -164.95 -246.2 -164.95 -246.2 -165.2 -299.85 -165.2 -299.85 -172.0"/>
    </path>
  </g>
</svg>
