<?xml version="1.0" encoding="UTF-8" standalone="no"?>
<svg xmlns:xlink="http://www.w3.org/1999/xlink" height="240.45px" width="463.75px" xmlns="http://www.w3.org/2000/svg">
  <g transform="matrix(1.0, 0.0, 0.0, 1.0, 305.1, 412.35)">
    <path d="M-305.1 -186.0 L-305.0 -180.95 -304.5 -180.95 -304.5 -181.0 -304.35 -181.0 -300.25 -181.0 -288.85 -181.0 -272.45 -181.0 -253.0 -181.0 -232.6 -181.0 -213.35 -181.0 -197.3 -181.0 -186.5 -181.0 Q-180.55 -181.05 -176.15 -182.05 L-173.25 -182.8 -168.85 -184.4 -168.65 -184.5 -168.45 -184.6 -164.35 -186.55 -162.05 -187.8 -159.75 -188.9 -155.8 -190.6 -155.6 -190.7 -152.0 -191.75 -147.95 -192.5 Q-142.65 -193.0 -138.3 -191.65 L-134.05 -190.05 -130.0 -188.0 -121.7 -183.5 -117.15 -181.5 -112.1 -180.0 Q-107.65 -178.95 -98.3 -177.9 L-94.9 -177.5 -77.7 -176.3 -77.3 -176.25 -76.5 -176.25 -75.7 -176.2 -74.85 -176.15 -74.05 -176.15 -50.25 -175.9 -46.55 -176.0 -42.6 -176.1 -13.55 -178.1 -13.0 -178.15 Q4.55 -180.0 22.7 -183.75 40.8 -187.55 58.4 -193.75 L87.95 -206.85 91.95 -209.15 Q107.85 -218.3 121.1 -230.9 134.3 -243.45 143.7 -260.0 149.25 -270.4 150.2 -279.5 L150.25 -279.85 150.45 -285.25 Q150.25 -290.75 148.65 -295.85 L148.5 -296.35 148.35 -296.9 Q145.55 -305.2 139.95 -313.15 134.3 -321.1 126.9 -329.2 L111.05 -345.95 Q102.6 -354.6 94.25 -364.35 85.9 -374.05 78.5 -385.3 76.6 -388.15 74.8 -392.25 73.25 -395.9 72.1 -400.3 L71.95 -400.8 71.8 -401.35 71.6 -402.2 70.6 -408.0 Q70.35 -409.8 70.25 -411.7 L70.25 -412.25 56.0 -412.35 56.1 -411.7 Q57.2 -405.0 59.25 -399.65 61.35 -394.0 63.85 -390.3 71.25 -379.05 79.6 -369.35 87.95 -359.6 96.4 -350.95 L112.25 -334.2 Q119.65 -326.1 125.3 -318.15 130.9 -310.2 133.7 -301.9 136.55 -293.6 135.55 -284.5 134.6 -275.35 129.05 -265.0 119.65 -248.5 106.95 -235.9 94.25 -223.3 79.2 -214.15 64.1 -205.0 47.65 -198.75 31.15 -192.55 14.3 -188.75 -2.6 -185.0 -18.95 -183.15 L-50.1 -181.0 Q-64.95 -180.6 -77.25 -181.2 L-98.45 -182.85 Q-107.35 -183.95 -111.75 -185.0 -117.05 -186.3 -121.35 -188.55 L-129.65 -193.0 Q-133.6 -195.25 -137.95 -196.6 -142.3 -197.95 -147.6 -197.5 -151.9 -197.0 -155.25 -195.7 -158.65 -194.45 -161.7 -192.8 -164.75 -191.15 -168.1 -189.6 -171.5 -188.05 -175.8 -187.05 -180.2 -186.0 -186.1 -186.0 L-196.95 -186.0 -213.15 -186.0 -232.55 -186.0 -253.1 -186.0 -272.7 -186.0 -289.3 -186.0 -300.8 -186.0 -304.45 -186.0 -305.1 -186.0" fill="#ffffff" fill-rule="evenodd" stroke="none">
      <animate attributeName="fill" dur="2s" repeatCount="indefinite" values="#ffffff;#ffffff"/>
      <animate attributeName="fill-opacity" dur="2s" repeatCount="indefinite" values="1.0;1.0"/>
      <animate attributeName="d" dur="2s" repeatCount="indefinite" values="M-305.1 -186.0 L-305.0 -180.95 -304.5 -180.95 -304.5 -181.0 -304.35 -181.0 -300.25 -181.0 -288.85 -181.0 -272.45 -181.0 -253.0 -181.0 -232.6 -181.0 -213.35 -181.0 -197.3 -181.0 -186.5 -181.0 Q-180.55 -181.05 -176.15 -182.05 L-173.25 -182.8 -168.85 -184.4 -168.65 -184.5 -168.45 -184.6 -164.35 -186.55 -162.05 -187.8 -159.75 -188.9 -155.8 -190.6 -155.6 -190.7 -152.0 -191.75 -147.95 -192.5 Q-142.65 -193.0 -138.3 -191.65 L-134.05 -190.05 -130.0 -188.0 -121.7 -183.5 -117.15 -181.5 -112.1 -180.0 Q-107.65 -178.95 -98.3 -177.9 L-94.9 -177.5 -77.7 -176.3 -77.3 -176.25 -76.5 -176.25 -75.7 -176.2 -74.85 -176.15 -74.05 -176.15 -50.25 -175.9 -46.55 -176.0 -42.6 -176.1 -13.55 -178.1 -13.0 -178.15 Q4.55 -180.0 22.7 -183.75 40.8 -187.55 58.4 -193.75 L87.95 -206.85 91.95 -209.15 Q107.85 -218.3 121.1 -230.9 134.3 -243.45 143.7 -260.0 149.25 -270.4 150.2 -279.5 L150.25 -279.85 150.45 -285.25 Q150.25 -290.75 148.65 -295.85 L148.5 -296.35 148.35 -296.9 Q145.55 -305.2 139.95 -313.15 134.3 -321.1 126.9 -329.2 L111.05 -345.95 Q102.6 -354.6 94.25 -364.35 85.9 -374.05 78.5 -385.3 76.6 -388.15 74.8 -392.25 73.25 -395.9 72.1 -400.3 L71.95 -400.8 71.8 -401.35 71.6 -402.2 70.6 -408.0 Q70.35 -409.8 70.25 -411.7 L70.25 -412.25 56.0 -412.35 56.1 -411.7 Q57.2 -405.0 59.25 -399.65 61.35 -394.0 63.85 -390.3 71.25 -379.05 79.6 -369.35 87.95 -359.6 96.4 -350.95 L112.25 -334.2 Q119.65 -326.1 125.3 -318.15 130.9 -310.2 133.7 -301.9 136.55 -293.6 135.55 -284.5 134.6 -275.35 129.05 -265.0 119.65 -248.5 106.95 -235.9 94.25 -223.3 79.2 -214.15 64.1 -205.0 47.65 -198.75 31.15 -192.55 14.3 -188.75 -2.6 -185.0 -18.95 -183.15 L-50.1 -181.0 Q-64.95 -180.6 -77.25 -181.2 L-98.45 -182.85 Q-107.35 -183.95 -111.75 -185.0 -117.05 -186.3 -121.35 -188.55 L-129.65 -193.0 Q-133.6 -195.25 -137.95 -196.6 -142.3 -197.95 -147.6 -197.5 -151.9 -197.0 -155.25 -195.7 -158.65 -194.45 -161.7 -192.8 -164.75 -191.15 -168.1 -189.6 -171.5 -188.05 -175.8 -187.05 -180.2 -186.0 -186.1 -186.0 L-196.95 -186.0 -213.15 -186.0 -232.55 -186.0 -253.1 -186.0 -272.7 -186.0 -289.3 -186.0 -300.8 -186.0 -304.45 -186.0 -305.1 -186.0;M-299.85 -182.0 L-299.85 -176.95 -299.35 -176.95 -299.35 -177.0 -299.2 -177.0 -295.1 -177.0 -283.7 -177.0 -267.3 -177.0 -247.85 -177.0 -227.45 -177.0 -208.2 -177.0 -192.15 -177.0 -181.35 -177.0 Q-175.4 -177.05 -171.0 -178.05 L-168.05 -178.8 -163.6 -180.4 -163.4 -180.5 -163.2 -180.6 -159.05 -182.55 -156.7 -183.8 -154.4 -184.9 -150.4 -186.6 -150.2 -186.7 -146.55 -187.75 -142.5 -188.5 Q-137.15 -189.0 -132.85 -187.65 L-128.65 -186.05 -124.65 -184.0 -116.5 -179.5 -112.0 -177.5 -107.0 -176.0 Q-102.6 -174.95 -93.25 -173.9 L-89.9 -173.5 -72.7 -172.3 -72.3 -172.25 -71.5 -172.25 -70.7 -172.2 -69.85 -172.15 -69.05 -172.15 -45.25 -171.9 -41.55 -172.0 -37.6 -172.1 -8.5 -174.1 -7.95 -174.15 Q9.65 -176.0 27.9 -179.75 46.15 -183.55 63.9 -189.75 L93.85 -202.85 97.9 -205.15 Q114.1 -214.3 127.7 -226.9 141.3 -239.45 151.15 -256.0 157.05 -266.4 158.25 -275.5 L158.3 -275.85 158.65 -281.25 Q158.65 -286.75 157.2 -291.85 L157.05 -292.35 156.9 -292.9 Q154.35 -301.2 149.0 -309.15 143.6 -317.1 136.4 -325.2 L121.05 -341.95 Q112.9 -350.6 104.8 -360.35 96.75 -370.05 89.65 -381.3 87.85 -384.15 86.2 -388.25 84.75 -391.9 83.7 -396.3 L83.6 -396.8 83.45 -397.35 83.3 -398.2 82.45 -404.0 Q82.35 -405.85 82.25 -407.7 L82.2 -408.25 68.0 -408.35 68.1 -407.7 Q68.95 -401.0 70.85 -395.65 72.8 -390.0 75.15 -386.3 82.25 -375.05 90.3 -365.35 98.4 -355.6 106.55 -346.95 L121.9 -330.2 Q129.1 -322.1 134.5 -314.15 139.85 -306.2 142.4 -297.9 145.0 -289.6 143.75 -280.5 142.55 -271.35 136.65 -261.0 126.8 -244.5 113.7 -231.9 100.65 -219.3 85.3 -210.15 69.95 -201.0 53.3 -194.75 36.65 -188.55 19.65 -184.75 2.65 -181.0 -13.75 -179.15 L-44.95 -177.0 Q-59.8 -176.6 -72.1 -177.2 L-93.25 -178.85 Q-102.1 -179.95 -106.5 -181.0 -111.75 -182.3 -116.0 -184.55 L-124.15 -189.0 Q-128.05 -191.25 -132.35 -192.6 -136.65 -193.95 -142.0 -193.5 -146.3 -193.0 -149.7 -191.7 -153.1 -190.45 -156.2 -188.8 -159.3 -187.15 -162.7 -185.6 -166.15 -184.05 -170.5 -183.05 -174.9 -182.0 -180.85 -182.0 L-191.7 -182.0 -207.9 -182.0 -227.3 -182.0 -247.85 -182.0 -267.45 -182.0 -284.05 -182.0 -295.55 -182.0 -299.2 -182.0 -299.85 -182.0"/>
    </path>
    <path d="M-305.1 -186.0 L-304.45 -186.0 -300.8 -186.0 -289.3 -186.0 -272.7 -186.0 -253.1 -186.0 -232.55 -186.0 -213.15 -186.0 -196.95 -186.0 -186.1 -186.0 Q-180.2 -186.0 -175.8 -187.05 -171.5 -188.05 -168.1 -189.6 -164.75 -191.15 -161.7 -192.8 -158.65 -194.45 -155.25 -195.7 -151.9 -197.0 -147.6 -197.5 -142.3 -197.95 -137.95 -196.6 -133.6 -195.25 -129.65 -193.0 L-121.35 -188.55 Q-117.05 -186.3 -111.75 -185.0 -107.35 -183.95 -98.45 -182.85 L-77.25 -181.2 Q-64.95 -180.6 -50.1 -181.0 L-18.95 -183.15 Q-2.6 -185.0 14.3 -188.75 31.15 -192.55 47.65 -198.75 64.1 -205.0 79.2 -214.15 94.25 -223.3 106.95 -235.9 119.65 -248.5 129.05 -265.0 134.6 -275.35 135.55 -284.5 136.55 -293.6 133.7 -301.9 130.9 -310.2 125.3 -318.15 119.65 -326.1 112.25 -334.2 L96.4 -350.95 Q87.95 -359.6 79.6 -369.35 71.25 -379.05 63.85 -390.3 61.35 -394.0 59.25 -399.65 57.2 -405.0 56.1 -411.7 L56.0 -412.35 70.25 -412.25 70.25 -411.7 Q70.35 -409.8 70.6 -408.0 L71.6 -402.2 71.8 -401.35 71.95 -400.8 72.1 -400.3 Q73.25 -395.9 74.8 -392.25 76.6 -388.15 78.5 -385.3 85.9 -374.05 94.25 -364.35 102.6 -354.6 111.05 -345.95 L126.9 -329.2 Q134.3 -321.1 139.95 -313.15 145.55 -305.2 148.35 -296.9 L148.5 -296.35 148.65 -295.85 Q150.25 -290.75 150.45 -285.25 L150.25 -279.85 150.2 -279.5 Q149.25 -270.4 143.7 -260.0 134.3 -243.45 121.1 -230.9 107.85 -218.3 91.95 -209.15 L87.95 -206.85 58.4 -193.75 Q40.8 -187.55 22.7 -183.75 4.55 -180.0 -13.0 -178.15 L-13.55 -178.1 -42.6 -176.1 -46.55 -176.0 -50.25 -175.9 -74.05 -176.15 -74.85 -176.15 -75.7 -176.2 -76.5 -176.25 -77.3 -176.25 -77.7 -176.3 -94.9 -177.5 -98.3 -177.9 Q-107.65 -178.95 -112.1 -180.0 L-117.15 -181.5 -121.7 -183.5 -130.0 -188.0 -134.05 -190.05 -138.3 -191.65 Q-142.65 -193.0 -147.95 -192.5 L-152.0 -191.75 -155.6 -190.7 -155.8 -190.6 -159.75 -188.9 -162.05 -187.8 -164.35 -186.55 -168.45 -184.6 -168.65 -184.5 -168.85 -184.4 -173.25 -182.8 -176.15 -182.05 Q-180.55 -181.05 -186.5 -181.0 L-197.3 -181.0 -213.35 -181.0 -232.6 -181.0 -253.0 -181.0 -272.45 -181.0 -288.85 -181.0 -300.25 -181.0 -304.35 -181.0 -304.5 -181.0 -304.5 -180.95 -305.0 -180.95 -305.1 -186.0" fill="none" stroke="#000000" stroke-linecap="round" stroke-linejoin="round" stroke-opacity="0.0" stroke-width="1.0">
      <animate attributeName="stroke" dur="2s" repeatCount="indefinite" values="#000000;#000001"/>
      <animate attributeName="stroke-width" dur="2s" repeatCount="indefinite" values="0.0;0.0"/>
      <animate attributeName="fill-opacity" dur="2s" repeatCount="indefinite" values="0.0;0.0"/>
      <animate attributeName="d" dur="2s" repeatCount="indefinite" values="M-305.1 -186.0 L-304.45 -186.0 -300.8 -186.0 -289.3 -186.0 -272.7 -186.0 -253.1 -186.0 -232.55 -186.0 -213.15 -186.0 -196.95 -186.0 -186.1 -186.0 Q-180.2 -186.0 -175.8 -187.05 -171.5 -188.05 -168.1 -189.6 -164.75 -191.15 -161.7 -192.8 -158.65 -194.45 -155.25 -195.7 -151.9 -197.0 -147.6 -197.5 -142.3 -197.95 -137.95 -196.6 -133.6 -195.25 -129.65 -193.0 L-121.35 -188.55 Q-117.05 -186.3 -111.75 -185.0 -107.35 -183.95 -98.45 -182.85 L-77.25 -181.2 Q-64.95 -180.6 -50.1 -181.0 L-18.95 -183.15 Q-2.6 -185.0 14.3 -188.75 31.15 -192.55 47.65 -198.75 64.1 -205.0 79.2 -214.15 94.25 -223.3 106.95 -235.9 119.65 -248.5 129.05 -265.0 134.6 -275.35 135.55 -284.5 136.55 -293.6 133.7 -301.9 130.9 -310.2 125.3 -318.15 119.65 -326.1 112.25 -334.2 L96.4 -350.95 Q87.95 -359.6 79.6 -369.35 71.25 -379.05 63.85 -390.3 61.35 -394.0 59.25 -399.65 57.2 -405.0 56.1 -411.7 L56.0 -412.35 70.25 -412.25 70.25 -411.7 Q70.35 -409.8 70.6 -408.0 L71.6 -402.2 71.8 -401.35 71.95 -400.8 72.1 -400.3 Q73.25 -395.9 74.8 -392.25 76.6 -388.15 78.5 -385.3 85.9 -374.05 94.25 -364.35 102.6 -354.6 111.05 -345.95 L126.9 -329.2 Q134.3 -321.1 139.95 -313.15 145.55 -305.2 148.35 -296.9 L148.5 -296.35 148.65 -295.85 Q150.25 -290.75 150.45 -285.25 L150.25 -279.85 150.2 -279.5 Q149.25 -270.4 143.7 -260.0 134.3 -243.45 121.1 -230.9 107.85 -218.3 91.95 -209.15 L87.95 -206.85 58.4 -193.75 Q40.8 -187.55 22.7 -183.75 4.55 -180.0 -13.0 -178.15 L-13.55 -178.1 -42.6 -176.1 -46.55 -176.0 -50.25 -175.9 -74.05 -176.15 -74.85 -176.15 -75.7 -176.2 -76.5 -176.25 -77.3 -176.25 -77.7 -176.3 -94.9 -177.5 -98.3 -177.9 Q-107.65 -178.95 -112.1 -180.0 L-117.15 -181.5 -121.7 -183.5 -130.0 -188.0 -134.05 -190.05 -138.3 -191.65 Q-142.65 -193.0 -147.95 -192.5 L-152.0 -191.75 -155.6 -190.7 -155.8 -190.6 -159.75 -188.9 -162.05 -187.8 -164.35 -186.55 -168.45 -184.6 -168.65 -184.5 -168.85 -184.4 -173.25 -182.8 -176.15 -182.05 Q-180.55 -181.05 -186.5 -181.0 L-197.3 -181.0 -213.35 -181.0 -232.6 -181.0 -253.0 -181.0 -272.45 -181.0 -288.85 -181.0 -300.25 -181.0 -304.35 -181.0 -304.5 -181.0 -304.5 -180.95 -305.0 -180.95 -305.1 -186.0;M-299.85 -182.0 L-299.2 -182.0 -295.55 -182.0 -284.05 -182.0 -267.45 -182.0 -247.85 -182.0 -227.3 -182.0 -207.9 -182.0 -191.7 -182.0 -180.85 -182.0 Q-174.9 -182.0 -170.5 -183.05 -166.15 -184.05 -162.7 -185.6 -159.3 -187.15 -156.2 -188.8 -153.1 -190.45 -149.7 -191.7 -146.3 -193.0 -142.0 -193.5 -136.65 -193.95 -132.35 -192.6 -128.05 -191.25 -124.15 -189.0 L-116.0 -184.55 Q-111.75 -182.3 -106.5 -181.0 -102.1 -179.95 -93.25 -178.85 L-72.1 -177.2 Q-59.8 -176.6 -44.95 -177.0 L-13.75 -179.15 Q2.65 -181.0 19.65 -184.75 36.65 -188.55 53.3 -194.75 69.95 -201.0 85.3 -210.15 100.65 -219.3 113.7 -231.9 126.8 -244.5 136.65 -261.0 142.55 -271.35 143.75 -280.5 145.0 -289.6 142.4 -297.9 139.85 -306.2 134.5 -314.15 129.1 -322.1 121.9 -330.2 L106.55 -346.95 Q98.4 -355.6 90.3 -365.35 82.25 -375.05 75.15 -386.3 72.8 -390.0 70.85 -395.65 68.95 -401.0 68.1 -407.7 L68.0 -408.35 82.2 -408.25 82.25 -407.7 Q82.35 -405.85 82.45 -404.0 L83.3 -398.2 83.45 -397.35 83.6 -396.8 83.7 -396.3 Q84.75 -391.9 86.2 -388.25 87.85 -384.15 89.65 -381.3 96.75 -370.05 104.8 -360.35 112.9 -350.6 121.05 -341.95 L136.4 -325.2 Q143.6 -317.1 149.0 -309.15 154.35 -301.2 156.9 -292.9 L157.05 -292.35 157.2 -291.85 Q158.65 -286.75 158.65 -281.25 L158.3 -275.85 158.25 -275.5 Q157.05 -266.4 151.15 -256.0 141.3 -239.45 127.7 -226.9 114.1 -214.3 97.9 -205.15 L93.85 -202.85 63.9 -189.75 Q46.15 -183.55 27.9 -179.75 9.65 -176.0 -7.95 -174.15 L-8.5 -174.1 -37.6 -172.1 -41.55 -172.0 -45.25 -171.9 -69.05 -172.15 -69.85 -172.15 -70.7 -172.2 -71.5 -172.25 -72.3 -172.25 -72.7 -172.3 -89.9 -173.5 -93.25 -173.9 Q-102.6 -174.95 -107.0 -176.0 L-112.0 -177.5 -116.5 -179.5 -124.65 -184.0 -128.65 -186.05 -132.85 -187.65 Q-137.15 -189.0 -142.5 -188.5 L-146.55 -187.75 -150.2 -186.7 -150.4 -186.6 -154.4 -184.9 -156.7 -183.8 -159.05 -182.55 -163.2 -180.6 -163.4 -180.5 -163.6 -180.4 -168.05 -178.8 -171.0 -178.05 Q-175.4 -177.05 -181.35 -177.0 L-192.15 -177.0 -208.2 -177.0 -227.45 -177.0 -247.85 -177.0 -267.3 -177.0 -283.7 -177.0 -295.1 -177.0 -299.2 -177.0 -299.35 -177.0 -299.35 -176.95 -299.85 -176.95 -299.85 -182.0"/>
    </path>
  </g>
</svg>
