<?xml version="1.0" encoding="UTF-8" standalone="no"?>
<svg xmlns:xlink="http://www.w3.org/1999/xlink" height="8.15px" width="13.7px" xmlns="http://www.w3.org/2000/svg">
  <g transform="matrix(1.0, 0.0, 0.0, 1.0, 0.5, 36.4)">
    <path d="M-0.45 -34.2 L-0.4 -28.7 Q3.3 -29.65 6.25 -29.65 9.75 -29.35 13.2 -29.05 10.1 -32.05 7.8 -32.9 5.45 -33.75 3.65 -34.75 L0.8 -36.05 -0.3 -36.4 -0.45 -34.2" fill="#e82900" fill-rule="evenodd" stroke="none">
      <animate attributeName="fill" dur="2s" repeatCount="indefinite" values="#e82900;#e82901"/>
      <animate attributeName="fill-opacity" dur="2s" repeatCount="indefinite" values="1.0;1.0"/>
      <animate attributeName="d" dur="2s" repeatCount="indefinite" values="M-0.45 -34.2 L-0.4 -28.7 Q3.3 -29.65 6.25 -29.65 9.75 -29.35 13.2 -29.05 10.1 -32.05 7.8 -32.9 5.45 -33.75 3.65 -34.75 L0.8 -36.05 -0.3 -36.4 -0.45 -34.2;M-0.45 -34.2 L-0.4 -28.7 Q2.8 -27.75 5.95 -28.7 9.15 -29.6 12.95 -32.45 10.3 -32.55 7.7 -32.6 5.3 -33.1 3.5 -34.0 L0.7 -35.6 -0.3 -36.4 -0.45 -34.2"/>
    </path>
    <path d="M-0.45 -34.2 L-0.3 -36.4 0.8 -36.05 3.65 -34.75 Q5.45 -33.75 7.8 -32.9 10.1 -32.05 13.2 -29.05 9.75 -29.35 6.25 -29.65 3.3 -29.65 -0.4 -28.7 L-0.45 -34.2" fill="none" stroke="#000000" stroke-linecap="round" stroke-linejoin="round" stroke-opacity="0.0" stroke-width="1.0">
      <animate attributeName="stroke" dur="2s" repeatCount="indefinite" values="#000000;#000001"/>
      <animate attributeName="stroke-width" dur="2s" repeatCount="indefinite" values="0.0;0.0"/>
      <animate attributeName="fill-opacity" dur="2s" repeatCount="indefinite" values="0.0;0.0"/>
      <animate attributeName="d" dur="2s" repeatCount="indefinite" values="M-0.45 -34.2 L-0.3 -36.4 0.8 -36.05 3.65 -34.75 Q5.45 -33.75 7.8 -32.9 10.1 -32.05 13.2 -29.05 9.75 -29.35 6.25 -29.65 3.3 -29.65 -0.4 -28.7 L-0.45 -34.2;M-0.45 -34.2 L-0.3 -36.4 0.7 -35.6 3.5 -34.0 Q5.3 -33.1 7.7 -32.6 10.3 -32.55 12.95 -32.45 9.15 -29.6 5.95 -28.7 2.8 -27.75 -0.4 -28.7 L-0.45 -34.2"/>
    </path>
  </g>
</svg>
