<?xml version="1.0" encoding="UTF-8" standalone="no"?>
<svg xmlns:xlink="http://www.w3.org/1999/xlink" height="54.4px" width="156.15px" xmlns="http://www.w3.org/2000/svg">
  <g transform="matrix(1.0, 0.0, 0.0, 1.0, -1.9, 3.75)">
    <path d="M10.65 12.3 L67.9 27.0 13.3 31.4 77.9 34.5 Q62.85 47.15 47.7 46.15 56.15 48.7 84.35 43.95 112.5 39.15 132.75 44.0 L158.05 29.35 Q110.65 8.65 59.05 -3.75 76.85 4.8 89.4 19.35 L30.8 13.8 10.65 12.3" fill="#000000" fill-opacity="0.2" fill-rule="evenodd" stroke="none">
      <animate attributeName="fill" dur="2s" repeatCount="indefinite" values="#000000;#000001"/>
      <animate attributeName="fill-opacity" dur="2s" repeatCount="indefinite" values="0.2;0.2"/>
      <animate attributeName="d" dur="2s" repeatCount="indefinite" values="M10.65 12.3 L67.9 27.0 13.3 31.4 77.9 34.5 Q62.85 47.15 47.7 46.15 56.15 48.7 84.35 43.95 112.5 39.15 132.75 44.0 L158.05 29.35 Q110.65 8.65 59.05 -3.75 76.85 4.8 89.4 19.35 L30.8 13.8 10.65 12.3;M1.9 5.55 L67.9 27.0 13.55 38.15 77.9 34.5 Q56.6 47.15 51.7 50.65 56.15 48.7 81.95 46.1 112.5 42.95 132.75 44.0 L158.05 29.35 Q109.05 14.65 60.05 0.0 74.75 9.7 89.4 19.35 L29.8 11.55 1.9 5.55"/>
    </path>
    <path d="M10.65 12.3 L30.8 13.8 89.4 19.35 Q76.85 4.8 59.05 -3.75 110.65 8.65 158.05 29.35 L132.75 44.0 Q112.5 39.15 84.35 43.95 56.15 48.7 47.7 46.15 62.85 47.15 77.9 34.5 L13.3 31.4 67.9 27.0 10.65 12.3" fill="none" stroke="#000000" stroke-linecap="round" stroke-linejoin="round" stroke-opacity="0.0" stroke-width="1.0">
      <animate attributeName="stroke" dur="2s" repeatCount="indefinite" values="#000000;#000001"/>
      <animate attributeName="stroke-width" dur="2s" repeatCount="indefinite" values="0.0;0.0"/>
      <animate attributeName="fill-opacity" dur="2s" repeatCount="indefinite" values="0.0;0.0"/>
      <animate attributeName="d" dur="2s" repeatCount="indefinite" values="M10.65 12.3 L30.8 13.8 89.4 19.35 Q76.85 4.8 59.05 -3.75 110.65 8.65 158.05 29.35 L132.75 44.0 Q112.5 39.15 84.35 43.95 56.15 48.7 47.7 46.15 62.85 47.15 77.9 34.5 L13.3 31.4 67.9 27.0 10.65 12.3;M1.9 5.55 L29.8 11.55 89.4 19.35 Q74.75 9.7 60.05 0.0 109.05 14.65 158.05 29.35 L132.75 44.0 Q112.5 42.95 81.95 46.1 56.15 48.7 51.7 50.65 56.6 47.15 77.9 34.5 L13.55 38.15 67.9 27.0 1.9 5.55"/>
    </path>
  </g>
</svg>
