<?xml version="1.0" encoding="UTF-8" standalone="no"?>
<svg xmlns:xlink="http://www.w3.org/1999/xlink" height="17.45px" width="78.8px" xmlns="http://www.w3.org/2000/svg">
  <g transform="matrix(1.0, 0.0, 0.0, 1.0, 37.75, 0.1)">
    <path d="M-27.9 8.6 Q-27.9 11.35 -19.25 13.25 -10.6 15.15 1.6 15.2 13.85 15.15 22.5 13.25 31.2 11.35 31.2 8.6 31.2 5.9 22.5 4.0 13.85 2.1 1.6 2.1 -10.6 2.1 -19.25 4.0 -27.9 5.9 -27.9 8.6" fill="#000000" fill-opacity="0.3019608" fill-rule="evenodd" stroke="none">
      <animate attributeName="fill" dur="2s" repeatCount="indefinite" values="#000000;#000001"/>
      <animate attributeName="fill-opacity" dur="2s" repeatCount="indefinite" values="0.3019608;0.3019608"/>
      <animate attributeName="d" dur="2s" repeatCount="indefinite" values="M-27.9 8.6 Q-27.9 11.35 -19.25 13.25 -10.6 15.15 1.6 15.2 13.85 15.15 22.5 13.25 31.2 11.35 31.2 8.6 31.2 5.9 22.5 4.0 13.85 2.1 1.6 2.1 -10.6 2.1 -19.25 4.0 -27.9 5.9 -27.9 8.6;M-37.75 8.6 Q-37.75 12.25 -26.2 14.8 -14.65 17.35 1.6 17.35 17.9 17.35 29.45 14.8 41.05 12.25 41.05 8.6 41.05 5.0 29.45 2.45 17.9 -0.1 1.6 -0.1 -14.65 -0.1 -26.2 2.45 -37.75 5.0 -37.75 8.6"/>
    </path>
    <path d="M-27.9 8.6 Q-27.9 5.9 -19.25 4.0 -10.6 2.1 1.6 2.1 13.85 2.1 22.5 4.0 31.2 5.9 31.2 8.6 31.2 11.35 22.5 13.25 13.85 15.15 1.6 15.2 -10.6 15.15 -19.25 13.25 -27.9 11.35 -27.9 8.6" fill="none" stroke="#000000" stroke-linecap="round" stroke-linejoin="round" stroke-opacity="0.0" stroke-width="1.0">
      <animate attributeName="stroke" dur="2s" repeatCount="indefinite" values="#000000;#000001"/>
      <animate attributeName="stroke-width" dur="2s" repeatCount="indefinite" values="0.0;0.0"/>
      <animate attributeName="fill-opacity" dur="2s" repeatCount="indefinite" values="0.0;0.0"/>
      <animate attributeName="d" dur="2s" repeatCount="indefinite" values="M-27.9 8.6 Q-27.9 5.9 -19.25 4.0 -10.6 2.1 1.6 2.1 13.85 2.1 22.5 4.0 31.2 5.9 31.2 8.6 31.2 11.35 22.5 13.25 13.85 15.15 1.6 15.2 -10.6 15.15 -19.25 13.25 -27.9 11.35 -27.9 8.6;M-37.75 8.6 Q-37.75 5.0 -26.2 2.45 -14.65 -0.1 1.6 -0.1 17.9 -0.1 29.45 2.45 41.05 5.0 41.05 8.6 41.05 12.25 29.45 14.8 17.9 17.35 1.6 17.35 -14.65 17.35 -26.2 14.8 -37.75 12.25 -37.75 8.6"/>
    </path>
  </g>
</svg>
