<?xml version="1.0" encoding="UTF-8" standalone="no"?>
<svg xmlns:xlink="http://www.w3.org/1999/xlink" height="400.0px" width="612.4px" xmlns="http://www.w3.org/2000/svg">
  <g transform="matrix(1.0, 0.0, 0.0, 1.0, 311.45, 400.0)">
    <path d="M-311.45 0.0 L-311.0 0.0 -272.0 0.0 -272.0 0.0 -271.7 0.0 -271.7 0.0 -262.2 0.0 -262.15 0.0 -255.8 0.0 -255.85 0.0 -255.75 0.0 -255.75 0.0 -228.65 0.0 -228.65 0.0 -228.65 0.0 -228.65 0.0 -205.65 0.0 -205.6 0.0 -205.65 0.0 298.35 -0.45 300.95 -0.45 300.95 -400.0 300.0 -399.95 300.0 -400.0 299.5 -399.95 299.5 -399.95 299.5 -399.9 299.2 -399.9 299.2 -399.9 298.9 -399.9 298.0 -399.8 297.9 -399.8 297.4 -399.8 297.3 -399.8 296.95 -399.8 292.6 -399.65 292.45 -399.65 290.15 -399.55 279.15 -399.35 278.8 -399.35 276.25 -399.35 256.95 -399.1 256.2 -399.1 253.2 -399.1 249.1 -399.05 248.2 -399.05 249.7 -399.1 251.15 -399.1 252.55 -399.1 273.65 -399.35 275.0 -399.35 276.3 -399.35 289.0 -399.65 289.2 -399.65 291.55 -399.7 297.1 -399.9 297.15 -399.9 299.0 -399.95 299.0 -400.0 298.45 -400.0 296.7 -399.95 296.6 -399.95 293.75 -399.9 291.35 -399.85 278.7 -399.65 276.35 -399.65 255.05 -399.35 252.9 -399.35 224.15 -399.1 222.1 -399.1 187.1 -399.0 185.4 -398.4 Q174.1 -394.6 162.45 -389.7 L160.95 -389.1 Q149.15 -384.1 137.9 -378.25 L136.5 -377.55 Q125.35 -371.65 115.5 -365.0 L114.15 -364.1 Q104.5 -357.45 96.95 -350.3 L95.85 -349.2 Q88.6 -342.0 84.35 -334.4 L83.6 -333.0 Q79.75 -325.5 79.5 -317.75 L79.5 -315.9 Q79.8 -308.35 84.35 -300.65 L85.3 -299.05 Q90.4 -291.25 100.75 -283.45 L102.15 -282.45 Q113.2 -274.35 130.65 -266.45 L132.05 -265.85 Q150.2 -257.75 175.9 -250.0 L177.15 -249.6 Q192.65 -244.8 200.35 -238.75 L201.4 -237.85 Q208.3 -231.95 208.75 -225.05 L208.75 -223.55 Q208.5 -216.8 203.0 -209.3 L201.95 -207.9 Q195.8 -200.2 184.9 -191.9 L183.55 -190.9 Q172.15 -182.25 156.55 -173.2 L155.05 -172.3 Q139.05 -163.2 119.65 -153.75 L118.25 -153.05 Q98.5 -143.5 76.1 -133.8 L74.8 -133.2 Q52.2 -123.5 27.8 -113.85 L26.7 -113.45 Q2.1 -103.75 -23.4 -94.3 L-24.3 -94.0 Q-49.9 -84.5 -75.6 -75.5 L-76.3 -75.3 Q-102.05 -66.25 -126.85 -57.9 L-127.45 -57.7 -175.45 -41.9 -175.85 -41.8 Q-199.0 -34.3 -219.4 -27.9 L-219.7 -27.8 Q-240.1 -21.4 -256.75 -16.3 L-256.85 -16.3 -285.85 -7.5 -285.95 -7.5 -304.6 -1.95 -304.7 -1.95 -311.45 0.0" fill="#244fc4" fill-rule="evenodd" stroke="none">
      <animate attributeName="fill" dur="2s" repeatCount="indefinite" values="#244fc4;#244fc5"/>
      <animate attributeName="fill-opacity" dur="2s" repeatCount="indefinite" values="1.0;1.0"/>
      <animate attributeName="d" dur="2s" repeatCount="indefinite" values="M-311.45 0.0 L-311.0 0.0 -272.0 0.0 -272.0 0.0 -271.7 0.0 -271.7 0.0 -262.2 0.0 -262.15 0.0 -255.8 0.0 -255.85 0.0 -255.75 0.0 -255.75 0.0 -228.65 0.0 -228.65 0.0 -228.65 0.0 -228.65 0.0 -205.65 0.0 -205.6 0.0 -205.65 0.0 298.35 -0.45 300.95 -0.45 300.95 -400.0 300.0 -399.95 300.0 -400.0 299.5 -399.95 299.5 -399.95 299.5 -399.9 299.2 -399.9 299.2 -399.9 298.9 -399.9 298.0 -399.8 297.9 -399.8 297.4 -399.8 297.3 -399.8 296.95 -399.8 292.6 -399.65 292.45 -399.65 290.15 -399.55 279.15 -399.35 278.8 -399.35 276.25 -399.35 256.95 -399.1 256.2 -399.1 253.2 -399.1 249.1 -399.05 248.2 -399.05 249.7 -399.1 251.15 -399.1 252.55 -399.1 273.65 -399.35 275.0 -399.35 276.3 -399.35 289.0 -399.65 289.2 -399.65 291.55 -399.7 297.1 -399.9 297.15 -399.9 299.0 -399.95 299.0 -400.0 298.45 -400.0 296.7 -399.95 296.6 -399.95 293.75 -399.9 291.35 -399.85 278.7 -399.65 276.35 -399.65 255.05 -399.35 252.9 -399.35 224.15 -399.1 222.1 -399.1 187.1 -399.0 185.4 -398.4 Q174.1 -394.6 162.45 -389.7 L160.95 -389.1 Q149.15 -384.1 137.9 -378.25 L136.5 -377.55 Q125.35 -371.65 115.5 -365.0 L114.15 -364.1 Q104.5 -357.45 96.95 -350.3 L95.85 -349.2 Q88.6 -342.0 84.35 -334.4 L83.6 -333.0 Q79.75 -325.5 79.5 -317.75 L79.5 -315.9 Q79.8 -308.35 84.35 -300.65 L85.3 -299.05 Q90.4 -291.25 100.75 -283.45 L102.15 -282.45 Q113.2 -274.35 130.65 -266.45 L132.05 -265.85 Q150.2 -257.75 175.9 -250.0 L177.15 -249.6 Q192.65 -244.8 200.35 -238.75 L201.4 -237.85 Q208.3 -231.95 208.75 -225.05 L208.75 -223.55 Q208.5 -216.8 203.0 -209.3 L201.95 -207.9 Q195.8 -200.2 184.9 -191.9 L183.55 -190.9 Q172.15 -182.25 156.55 -173.2 L155.05 -172.3 Q139.05 -163.2 119.65 -153.75 L118.25 -153.05 Q98.5 -143.5 76.1 -133.8 L74.8 -133.2 Q52.2 -123.5 27.8 -113.85 L26.7 -113.45 Q2.1 -103.75 -23.4 -94.3 L-24.3 -94.0 Q-49.9 -84.5 -75.6 -75.5 L-76.3 -75.3 Q-102.05 -66.25 -126.85 -57.9 L-127.45 -57.7 -175.45 -41.9 -175.85 -41.8 Q-199.0 -34.3 -219.4 -27.9 L-219.7 -27.8 Q-240.1 -21.4 -256.75 -16.3 L-256.85 -16.3 -285.85 -7.5 -285.95 -7.5 -304.6 -1.95 -304.7 -1.95 -311.45 0.0;M-300.95 0.0 L-300.95 0.0 -262.35 0.0 -262.35 0.0 -262.15 0.0 -262.15 0.0 -252.55 0.0 -252.55 0.0 -246.35 0.0 -246.35 0.0 -246.25 0.0 -246.3 0.0 -219.55 0.0 -219.55 0.0 -219.55 0.0 -219.55 0.0 -196.9 0.0 -196.9 0.0 -197.0 0.0 300.95 -0.45 300.95 -3.05 300.95 -397.8 300.95 -398.7 300.95 -398.7 300.95 -399.2 300.95 -399.2 300.95 -399.2 300.95 -399.5 300.95 -399.5 300.95 -400.0 300.0 -399.95 300.0 -400.0 299.5 -399.95 299.5 -399.9 299.2 -399.9 295.0 -399.75 294.8 -399.75 292.6 -399.65 281.95 -399.35 281.65 -399.35 279.15 -399.35 260.5 -399.1 259.8 -399.1 256.95 -399.1 253.0 -399.05 252.1 -399.05 250.6 -399.05 249.1 -399.05 250.55 -399.1 271.4 -399.35 272.8 -399.35 274.1 -399.35 286.75 -399.55 286.95 -399.55 289.2 -399.65 294.65 -399.8 294.65 -399.8 296.55 -399.9 296.55 -399.9 297.15 -399.9 299.0 -399.95 299.0 -400.0 296.25 -399.95 293.85 -399.9 281.4 -399.65 279.05 -399.65 258.0 -399.35 255.85 -399.35 227.5 -399.1 225.45 -399.1 190.85 -399.0 189.05 -399.0 Q177.85 -395.2 166.3 -390.35 L164.8 -389.7 Q153.25 -384.8 142.1 -379.0 L140.7 -378.25 Q129.7 -372.45 119.95 -365.9 L118.65 -365.0 Q109.1 -358.45 101.6 -351.4 L100.45 -350.3 Q93.25 -343.25 88.85 -335.8 L88.05 -334.4 Q84.0 -327.1 83.4 -319.55 L83.3 -317.75 Q83.05 -310.05 87.2 -302.2 L88.05 -300.65 Q92.7 -292.55 102.8 -284.45 L104.15 -283.45 Q114.9 -275.2 132.15 -267.05 L133.55 -266.45 Q151.35 -258.25 176.85 -250.4 L178.05 -250.0 Q193.2 -245.35 201.05 -239.55 L202.05 -238.75 Q209.05 -233.1 210.1 -226.55 L210.3 -225.05 Q210.65 -218.25 205.6 -210.7 L204.65 -209.3 Q198.9 -201.45 188.25 -193.0 L186.9 -191.9 Q175.85 -183.2 160.5 -174.1 L159.0 -173.2 Q143.35 -164.0 124.15 -154.45 L122.75 -153.75 Q103.35 -144.15 81.25 -134.4 L79.95 -133.8 Q57.7 -124.05 33.65 -114.35 L32.45 -113.85 Q8.25 -104.15 -16.95 -94.65 L-17.85 -94.3 Q-43.1 -84.8 -68.45 -75.8 L-69.15 -75.5 Q-94.5 -66.45 -118.95 -58.1 L-119.55 -57.9 -166.9 -42.0 -167.3 -41.9 Q-188.75 -34.95 -210.2 -28.0 L-210.5 -27.9 Q-228.9 -22.1 -247.3 -16.3 L-247.4 -16.3 -275.9 -7.5 -276.0 -7.5 -294.35 -1.95 -294.45 -1.95 -300.95 0.0"/>
    </path>
    <path d="M249.1 -399.05 L251.15 -399.05 256.2 -399.1 256.95 -399.1 278.8 -399.35 279.15 -399.35 292.45 -399.65 292.6 -399.65 297.15 -399.8 299.2 -399.9 299.3 -399.9 299.5 -399.9 299.5 -399.95 299.0 -399.95 297.1 -399.9 289.0 -399.65 274.1 -399.35 250.55 -399.1 249.1 -399.05" fill="#ffffff" fill-rule="evenodd" stroke="none">
      <animate attributeName="fill" dur="2s" repeatCount="indefinite" values="#ffffff;#244fc5"/>
      <animate attributeName="fill-opacity" dur="2s" repeatCount="indefinite" values="1.0;1.0"/>
      <animate attributeName="d" dur="2s" repeatCount="indefinite" values="M249.1 -399.05 L251.15 -399.05 256.2 -399.1 256.95 -399.1 278.8 -399.35 279.15 -399.35 292.45 -399.65 292.6 -399.65 297.15 -399.8 299.2 -399.9 299.3 -399.9 299.5 -399.9 299.5 -399.95 299.0 -399.95 297.1 -399.9 289.0 -399.65 274.1 -399.35 250.55 -399.1 249.1 -399.05;M258.75 -399.25 L260.05 -399.25 263.75 -399.25 264.25 -399.25 278.5 -399.45 278.7 -399.45 287.45 -399.65 287.45 -399.65 290.35 -399.75 291.65 -399.8 291.7 -399.8 291.7 -399.8 291.7 -399.8 291.3 -399.8 290.05 -399.75 284.5 -399.65 274.85 -399.5 259.7 -399.25 258.75 -399.25"/>
    </path>
    <path d="M258.05 -399.25 L258.75 -399.25 260.05 -399.25 260.95 -399.25 258.05 -399.25 M274.6 -399.45 L274.6 -399.45 274.7 -399.45 275.65 -399.5 276.35 -399.5 275.45 -399.5 275.2 -399.5 274.6 -399.45 M277.85 -399.55 L278.35 -399.55 279.0 -399.55 278.85 -399.55 277.85 -399.55 M286.65 -399.7 L286.65 -399.7 286.65 -399.7 288.05 -399.7 Q288.15 -399.7 288.2 -399.7 L287.35 -399.7 286.65 -399.7" fill="#244fc4" fill-rule="evenodd" stroke="none">
      <animate attributeName="fill" dur="2s" repeatCount="indefinite" values="#244fc4;#ffffff"/>
      <animate attributeName="fill-opacity" dur="2s" repeatCount="indefinite" values="1.0;1.0"/>
      <animate attributeName="d" dur="2s" repeatCount="indefinite" values="M258.05 -399.25 L258.75 -399.25 260.05 -399.25 260.95 -399.25 258.05 -399.25 M274.6 -399.45 L274.6 -399.45 274.7 -399.45 275.65 -399.5 276.35 -399.5 275.45 -399.5 275.2 -399.5 274.6 -399.45 M277.85 -399.55 L278.35 -399.55 279.0 -399.55 278.85 -399.55 277.85 -399.55 M286.65 -399.7 L286.65 -399.7 286.65 -399.7 288.05 -399.7 Q288.15 -399.7 288.2 -399.7 L287.35 -399.7 286.65 -399.7;M258.75 -399.25 L260.05 -399.25 291.7 -399.8 275.65 -399.5 258.75 -399.25 M258.75 -399.25 L259.15 -399.25 260.05 -399.25 279.35 -399.55 291.6 -399.8 275.65 -399.5 271.25 -399.4 258.75 -399.25 M258.75 -399.25 L260.05 -399.25 291.7 -399.8 275.65 -399.5 258.75 -399.25 M258.75 -399.25 L259.05 -399.25 260.05 -399.25 290.35 -399.75 Q291.05 -399.75 290.55 -399.8 L273.8 -399.5 258.75 -399.25"/>
    </path>
    <path d="M278.35 -399.55 L278.35 -399.55 278.45 -399.55 278.85 -399.55 279.0 -399.55 279.85 -399.55 279.15 -399.55 278.35 -399.55 M286.65 -399.7 L286.65 -399.7 286.75 -399.7 287.35 -399.7 288.2 -399.7 287.45 -399.7 286.65 -399.7" fill="#ffffff" fill-rule="evenodd" stroke="none">
      <animate attributeName="fill" dur="2s" repeatCount="indefinite" values="#ffffff;#ffffff"/>
      <animate attributeName="fill-opacity" dur="2s" repeatCount="indefinite" values="1.0;1.0"/>
      <animate attributeName="d" dur="2s" repeatCount="indefinite" values="M278.35 -399.55 L278.35 -399.55 278.45 -399.55 278.85 -399.55 279.0 -399.55 279.85 -399.55 279.15 -399.55 278.35 -399.55 M286.65 -399.7 L286.65 -399.7 286.75 -399.7 287.35 -399.7 288.2 -399.7 287.45 -399.7 286.65 -399.7;M258.75 -399.25 L259.05 -399.25 260.05 -399.25 269.5 -399.35 272.7 -399.45 290.55 -399.8 275.65 -399.5 258.75 -399.25 M258.75 -399.25 L259.05 -399.25 260.05 -399.25 273.3 -399.45 291.05 -399.8 275.65 -399.5 258.75 -399.25"/>
    </path>
    <path d="M-311.45 0.0 L-304.7 -1.95 -304.6 -1.95 -285.95 -7.5 -285.85 -7.5 -256.85 -16.3 -256.75 -16.3 Q-240.1 -21.4 -219.7 -27.8 L-219.4 -27.9 Q-199.0 -34.3 -175.85 -41.8 L-175.45 -41.9 -127.45 -57.7 -126.85 -57.9 Q-102.05 -66.25 -76.3 -75.3 L-75.6 -75.5 Q-49.9 -84.5 -24.3 -94.0 L-23.4 -94.3 Q2.1 -103.75 26.7 -113.45 L27.8 -113.85 Q52.2 -123.5 74.8 -133.2 L76.1 -133.8 Q98.5 -143.5 118.25 -153.05 L119.65 -153.75 Q139.05 -163.2 155.05 -172.3 L156.55 -173.2 Q172.15 -182.25 183.55 -190.9 L184.9 -191.9 Q195.8 -200.2 201.95 -207.9 L203.0 -209.3 Q208.5 -216.8 208.75 -223.55 L208.75 -225.05 Q208.3 -231.95 201.4 -237.85 L200.35 -238.75 Q192.65 -244.8 177.15 -249.6 L175.9 -250.0 Q150.2 -257.75 132.05 -265.85 L130.65 -266.45 Q113.2 -274.35 102.15 -282.45 L100.75 -283.45 Q90.4 -291.25 85.3 -299.05 L84.35 -300.65 Q79.8 -308.35 79.5 -315.9 L79.5 -317.75 Q79.75 -325.5 83.6 -333.0 L84.35 -334.4 Q88.6 -342.0 95.85 -349.2 L96.95 -350.3 Q104.5 -357.45 114.15 -364.1 L115.5 -365.0 Q125.35 -371.65 136.5 -377.55 L137.9 -378.25 Q149.15 -384.1 160.95 -389.1 L162.45 -389.7 Q174.1 -394.6 185.4 -398.4 L187.1 -399.0 222.1 -399.1 224.15 -399.1 252.9 -399.35 255.05 -399.35 276.35 -399.65 278.7 -399.65 291.35 -399.85 293.75 -399.9 296.6 -399.95 296.7 -399.95 298.45 -400.0 299.0 -400.0 299.0 -399.95 297.15 -399.9 297.1 -399.9 291.55 -399.7 289.2 -399.65 289.0 -399.65 276.3 -399.35 275.0 -399.35 273.65 -399.35 252.55 -399.1 251.15 -399.1 249.7 -399.1 248.2 -399.05 249.1 -399.05 253.2 -399.1 256.2 -399.1 256.95 -399.1 276.25 -399.35 278.8 -399.35 279.15 -399.35 290.15 -399.55 292.45 -399.65 292.6 -399.65 296.95 -399.8 297.3 -399.8 297.4 -399.8 297.9 -399.8 298.0 -399.8 298.9 -399.9 299.2 -399.9 299.2 -399.9 299.5 -399.9 299.5 -399.95 299.5 -399.95 300.0 -400.0 300.0 -399.95 300.95 -400.0 300.95 -0.45 298.35 -0.45 -205.65 0.0 -205.6 0.0 -205.65 0.0 -228.65 0.0 -228.65 0.0 -228.65 0.0 -228.65 0.0 -255.75 0.0 -255.75 0.0 -255.85 0.0 -255.8 0.0 -262.15 0.0 -262.2 0.0 -271.7 0.0 -271.7 0.0 -272.0 0.0 -272.0 0.0 -311.0 0.0 -311.45 0.0 M248.2 -399.05 L249.0 -399.1 261.5 -399.2 269.65 -399.3 273.65 -399.35 274.9 -399.35 274.9 -399.35 274.1 -399.35 271.2 -399.35 264.1 -399.25 252.35 -399.1 250.55 -399.1 249.1 -399.05 248.3 -399.05 248.2 -399.05 M249.1 -399.05 L250.55 -399.1 274.1 -399.35 289.0 -399.65 297.1 -399.9 299.0 -399.95 299.5 -399.95 299.5 -399.9 299.3 -399.9 299.2 -399.9 297.15 -399.8 292.6 -399.65 292.45 -399.65 279.15 -399.35 278.8 -399.35 256.95 -399.1 256.2 -399.1 251.15 -399.05 249.1 -399.05 M258.05 -399.25 L260.95 -399.25 260.05 -399.25 258.75 -399.25 258.05 -399.25 258.75 -399.25 259.35 -399.25 260.95 -399.25 258.05 -399.25 M274.6 -399.45 L275.2 -399.5 275.45 -399.5 276.35 -399.5 275.65 -399.5 274.7 -399.45 274.6 -399.45 274.6 -399.45 275.55 -399.5 276.35 -399.5 276.2 -399.5 275.2 -399.5 274.7 -399.45 274.7 -399.45 274.6 -399.45 M277.85 -399.55 L278.85 -399.55 279.0 -399.55 278.35 -399.55 277.85 -399.55 278.35 -399.55 278.85 -399.55 277.85 -399.55 277.85 -399.55 M278.35 -399.55 L279.15 -399.55 279.85 -399.55 279.0 -399.55 278.85 -399.55 278.45 -399.55 278.35 -399.55 278.35 -399.55 M286.65 -399.7 L287.35 -399.7 288.2 -399.7 Q288.15 -399.7 288.05 -399.7 L286.65 -399.7 286.65 -399.7 286.65 -399.7 287.45 -399.7 288.2 -399.7 287.35 -399.7 286.75 -399.7 286.65 -399.7 286.65 -399.7" fill="none" stroke="#000000" stroke-linecap="round" stroke-linejoin="round" stroke-opacity="0.0" stroke-width="1.0">
      <animate attributeName="stroke" dur="2s" repeatCount="indefinite" values="#000000;#000001"/>
      <animate attributeName="stroke-width" dur="2s" repeatCount="indefinite" values="0.0;0.0"/>
      <animate attributeName="fill-opacity" dur="2s" repeatCount="indefinite" values="0.0;0.0"/>
      <animate attributeName="d" dur="2s" repeatCount="indefinite" values="M-311.45 0.0 L-304.7 -1.95 -304.6 -1.95 -285.95 -7.5 -285.85 -7.5 -256.85 -16.3 -256.75 -16.3 Q-240.1 -21.4 -219.7 -27.8 L-219.4 -27.9 Q-199.0 -34.3 -175.85 -41.8 L-175.45 -41.9 -127.45 -57.7 -126.85 -57.9 Q-102.05 -66.25 -76.3 -75.3 L-75.6 -75.5 Q-49.9 -84.5 -24.3 -94.0 L-23.4 -94.3 Q2.1 -103.75 26.7 -113.45 L27.8 -113.85 Q52.2 -123.5 74.8 -133.2 L76.1 -133.8 Q98.5 -143.5 118.25 -153.05 L119.65 -153.75 Q139.05 -163.2 155.05 -172.3 L156.55 -173.2 Q172.15 -182.25 183.55 -190.9 L184.9 -191.9 Q195.8 -200.2 201.95 -207.9 L203.0 -209.3 Q208.5 -216.8 208.75 -223.55 L208.75 -225.05 Q208.3 -231.95 201.4 -237.85 L200.35 -238.75 Q192.65 -244.8 177.15 -249.6 L175.9 -250.0 Q150.2 -257.75 132.05 -265.85 L130.65 -266.45 Q113.2 -274.35 102.15 -282.45 L100.75 -283.45 Q90.4 -291.25 85.3 -299.05 L84.35 -300.65 Q79.8 -308.35 79.5 -315.9 L79.5 -317.75 Q79.75 -325.5 83.6 -333.0 L84.35 -334.4 Q88.6 -342.0 95.85 -349.2 L96.95 -350.3 Q104.5 -357.45 114.15 -364.1 L115.5 -365.0 Q125.35 -371.65 136.5 -377.55 L137.9 -378.25 Q149.15 -384.1 160.95 -389.1 L162.45 -389.7 Q174.1 -394.6 185.4 -398.4 L187.1 -399.0 222.1 -399.1 224.15 -399.1 252.9 -399.35 255.05 -399.35 276.35 -399.65 278.7 -399.65 291.35 -399.85 293.75 -399.9 296.6 -399.95 296.7 -399.95 298.45 -400.0 299.0 -400.0 299.0 -399.95 297.15 -399.9 297.1 -399.9 291.55 -399.7 289.2 -399.65 289.0 -399.65 276.3 -399.35 275.0 -399.35 273.65 -399.35 252.55 -399.1 251.15 -399.1 249.7 -399.1 248.2 -399.05 249.1 -399.05 253.2 -399.1 256.2 -399.1 256.95 -399.1 276.25 -399.35 278.8 -399.35 279.15 -399.35 290.15 -399.55 292.45 -399.65 292.6 -399.65 296.95 -399.8 297.3 -399.8 297.4 -399.8 297.9 -399.8 298.0 -399.8 298.9 -399.9 299.2 -399.9 299.2 -399.9 299.5 -399.9 299.5 -399.95 299.5 -399.95 300.0 -400.0 300.0 -399.95 300.95 -400.0 300.95 -0.45 298.35 -0.45 -205.65 0.0 -205.6 0.0 -205.65 0.0 -228.65 0.0 -228.65 0.0 -228.65 0.0 -228.65 0.0 -255.75 0.0 -255.75 0.0 -255.85 0.0 -255.8 0.0 -262.15 0.0 -262.2 0.0 -271.7 0.0 -271.7 0.0 -272.0 0.0 -272.0 0.0 -311.0 0.0 -311.45 0.0 M248.2 -399.05 L249.0 -399.1 261.5 -399.2 269.65 -399.3 273.65 -399.35 274.9 -399.35 274.9 -399.35 274.1 -399.35 271.2 -399.35 264.1 -399.25 252.35 -399.1 250.55 -399.1 249.1 -399.05 248.3 -399.05 248.2 -399.05 M249.1 -399.05 L250.55 -399.1 274.1 -399.35 289.0 -399.65 297.1 -399.9 299.0 -399.95 299.5 -399.95 299.5 -399.9 299.3 -399.9 299.2 -399.9 297.15 -399.8 292.6 -399.65 292.45 -399.65 279.15 -399.35 278.8 -399.35 256.95 -399.1 256.2 -399.1 251.15 -399.05 249.1 -399.05 M258.05 -399.25 L260.95 -399.25 260.05 -399.25 258.75 -399.25 258.05 -399.25 258.75 -399.25 259.35 -399.25 260.95 -399.25 258.05 -399.25 M274.6 -399.45 L275.2 -399.5 275.45 -399.5 276.35 -399.5 275.65 -399.5 274.7 -399.45 274.6 -399.45 274.6 -399.45 275.55 -399.5 276.35 -399.5 276.2 -399.5 275.2 -399.5 274.7 -399.45 274.7 -399.45 274.6 -399.45 M277.85 -399.55 L278.85 -399.55 279.0 -399.55 278.35 -399.55 277.85 -399.55 278.35 -399.55 278.85 -399.55 277.85 -399.55 277.85 -399.55 M278.35 -399.55 L279.15 -399.55 279.85 -399.55 279.0 -399.55 278.85 -399.55 278.45 -399.55 278.35 -399.55 278.35 -399.55 M286.65 -399.7 L287.35 -399.7 288.2 -399.7 Q288.15 -399.7 288.05 -399.7 L286.65 -399.7 286.65 -399.7 286.65 -399.7 287.45 -399.7 288.2 -399.7 287.35 -399.7 286.75 -399.7 286.65 -399.7 286.65 -399.7;M-300.95 0.0 L-294.45 -1.95 -294.35 -1.95 -276.0 -7.5 -275.9 -7.5 -247.4 -16.3 -247.3 -16.3 Q-228.9 -22.1 -210.5 -27.9 L-210.2 -28.0 Q-188.75 -34.95 -167.3 -41.9 L-166.9 -42.0 -119.55 -57.9 -118.95 -58.1 Q-94.5 -66.45 -69.15 -75.5 L-68.45 -75.8 Q-43.1 -84.8 -17.85 -94.3 L-16.95 -94.65 Q8.25 -104.15 32.45 -113.85 L33.65 -114.35 Q57.7 -124.05 79.95 -133.8 L81.25 -134.4 Q103.35 -144.15 122.75 -153.75 L124.15 -154.45 Q143.35 -164.0 159.0 -173.2 L160.5 -174.1 Q175.85 -183.2 186.9 -191.9 L188.25 -193.0 Q198.9 -201.45 204.65 -209.3 L205.6 -210.7 Q210.65 -218.25 210.3 -225.05 L210.1 -226.55 Q209.05 -233.1 202.05 -238.75 L201.05 -239.55 Q193.2 -245.35 178.05 -250.0 L176.85 -250.4 Q151.35 -258.25 133.55 -266.45 L132.15 -267.05 Q114.9 -275.2 104.15 -283.45 L102.8 -284.45 Q92.7 -292.55 88.05 -300.65 L87.2 -302.2 Q83.05 -310.05 83.3 -317.75 L83.4 -319.55 Q84.0 -327.1 88.05 -334.4 L88.85 -335.8 Q93.25 -343.25 100.45 -350.3 L101.6 -351.4 Q109.1 -358.45 118.65 -365.0 L119.95 -365.9 Q129.7 -372.45 140.7 -378.25 L142.1 -379.0 Q153.25 -384.8 164.8 -389.7 L166.3 -390.35 Q177.85 -395.2 189.05 -399.0 L190.85 -399.0 225.45 -399.1 227.5 -399.1 255.85 -399.35 258.0 -399.35 279.05 -399.65 281.4 -399.65 293.85 -399.9 296.25 -399.95 299.0 -400.0 299.0 -399.95 297.15 -399.9 296.55 -399.9 296.55 -399.9 294.65 -399.8 294.65 -399.8 289.2 -399.65 286.95 -399.55 286.75 -399.55 274.1 -399.35 272.8 -399.35 271.4 -399.35 250.55 -399.1 249.1 -399.05 250.6 -399.05 252.1 -399.05 253.0 -399.05 256.95 -399.1 259.8 -399.1 260.5 -399.1 279.15 -399.35 281.65 -399.35 281.95 -399.35 292.6 -399.65 294.8 -399.75 295.0 -399.75 299.2 -399.9 299.5 -399.9 299.5 -399.95 300.0 -400.0 300.0 -399.95 300.95 -400.0 300.95 -399.5 300.95 -399.5 300.95 -399.2 300.95 -399.2 300.95 -399.2 300.95 -398.7 300.95 -398.7 300.95 -397.8 300.95 -3.05 300.95 -0.45 -197.0 0.0 -196.9 0.0 -196.9 0.0 -219.55 0.0 -219.55 0.0 -219.55 0.0 -219.55 0.0 -246.3 0.0 -246.25 0.0 -246.35 0.0 -246.35 0.0 -252.55 0.0 -252.55 0.0 -262.15 0.0 -262.15 0.0 -262.35 0.0 -262.35 0.0 -300.95 0.0 -300.95 0.0 M249.1 -399.05 L250.55 -399.1 274.1 -399.35 289.2 -399.65 296.8 -399.9 299.0 -399.95 299.5 -399.9 298.25 -399.85 292.6 -399.65 279.15 -399.35 256.95 -399.1 253.4 -399.1 250.75 -399.05 249.1 -399.05 249.1 -399.05 M258.75 -399.25 L259.7 -399.25 274.85 -399.5 284.5 -399.65 290.05 -399.75 291.3 -399.8 291.7 -399.8 291.7 -399.8 291.7 -399.8 291.65 -399.8 290.35 -399.75 287.45 -399.65 287.45 -399.65 278.7 -399.45 278.5 -399.45 264.25 -399.25 263.75 -399.25 260.05 -399.25 258.75 -399.25 M258.75 -399.25 L275.65 -399.5 291.7 -399.8 260.05 -399.25 258.75 -399.25 275.65 -399.5 291.7 -399.8 260.05 -399.25 258.75 -399.25 M258.75 -399.25 L271.25 -399.4 275.65 -399.5 291.6 -399.8 279.35 -399.55 260.05 -399.25 259.15 -399.25 258.75 -399.25 275.65 -399.5 290.75 -399.8 290.35 -399.75 269.9 -399.35 260.05 -399.25 258.75 -399.25 258.75 -399.25 M258.75 -399.25 L275.65 -399.5 291.7 -399.8 260.05 -399.25 258.75 -399.25 275.15 -399.5 291.7 -399.8 260.05 -399.25 258.75 -399.25 M258.75 -399.25 L275.65 -399.5 290.55 -399.8 272.7 -399.45 269.5 -399.35 260.05 -399.25 259.05 -399.25 258.75 -399.25 M258.75 -399.25 L273.8 -399.5 290.55 -399.8 Q291.05 -399.75 290.35 -399.75 L260.05 -399.25 259.05 -399.25 258.75 -399.25 275.65 -399.5 291.05 -399.8 273.3 -399.45 260.05 -399.25 259.05 -399.25 258.75 -399.25"/>
    </path>
  </g>
</svg>
