<?xml version="1.0" encoding="UTF-8" standalone="no"?>
<svg xmlns:xlink="http://www.w3.org/1999/xlink" height="399.0px" width="476.5px" xmlns="http://www.w3.org/2000/svg">
  <g transform="matrix(1.0, 0.0, 0.0, 1.0, 228.15, 399.0)">
    <path d="M-228.15 0.0 L-228.05 0.0 -221.35 -2.2 Q-211.85 -5.35 -202.35 -8.45 L-173.25 -18.25 Q-156.4 -24.0 -136.0 -31.2 -115.65 -38.35 -92.75 -46.7 -69.9 -55.05 -45.5 -64.35 -21.15 -73.6 3.7 -83.6 28.55 -93.55 52.8 -104.0 77.05 -114.45 99.7 -125.05 122.35 -135.7 142.45 -146.3 162.45 -156.9 178.85 -167.2 195.25 -177.5 207.0 -187.3 218.7 -197.1 224.75 -206.15 230.75 -215.15 230.1 -223.2 229.4 -231.2 220.95 -237.95 212.55 -244.75 195.3 -250.0 169.0 -258.05 150.65 -266.45 132.35 -274.85 121.15 -283.45 109.95 -292.05 104.85 -300.65 99.75 -309.3 99.95 -317.75 100.15 -326.25 104.6 -334.4 109.05 -342.6 116.9 -350.3 124.65 -357.95 134.9 -365.0 145.15 -372.05 156.85 -378.25 168.55 -384.5 180.85 -389.7 193.15 -394.95 205.0 -399.0 L212.0 -399.0 Q200.1 -394.95 187.85 -389.7 175.55 -384.5 163.85 -378.25 152.15 -372.05 141.9 -365.0 131.65 -357.95 123.85 -350.3 116.05 -342.6 111.6 -334.4 107.15 -326.25 106.95 -317.75 106.75 -309.3 111.85 -300.65 116.9 -292.05 128.15 -283.45 139.35 -274.85 157.65 -266.45 176.0 -258.05 202.3 -250.0 219.5 -244.75 228.1 -237.95 236.7 -231.2 237.75 -223.2 238.75 -215.15 233.2 -206.15 227.6 -197.1 216.4 -187.3 205.25 -177.5 189.5 -167.2 173.7 -156.9 154.4 -146.3 135.0 -135.7 113.05 -125.05 91.1 -114.45 67.6 -104.0 44.1 -93.55 20.0 -83.6 -4.15 -73.6 -27.8 -64.35 -51.5 -55.05 -73.75 -46.7 -96.0 -38.35 -115.8 -31.2 L-152.05 -18.25 -180.4 -8.45 -198.85 -2.2 -205.4 0.0 -228.15 0.0" fill="#ffffff" fill-rule="evenodd" stroke="none">
      <animate attributeName="fill" dur="2s" repeatCount="indefinite" values="#ffffff;#ffffff"/>
      <animate attributeName="fill-opacity" dur="2s" repeatCount="indefinite" values="1.0;1.0"/>
      <animate attributeName="d" dur="2s" repeatCount="indefinite" values="M-228.15 0.0 L-228.05 0.0 -221.35 -2.2 Q-211.85 -5.35 -202.35 -8.45 L-173.25 -18.25 Q-156.4 -24.0 -136.0 -31.2 -115.65 -38.35 -92.75 -46.7 -69.9 -55.05 -45.5 -64.35 -21.15 -73.6 3.7 -83.6 28.55 -93.55 52.8 -104.0 77.05 -114.45 99.7 -125.05 122.35 -135.7 142.45 -146.3 162.45 -156.9 178.85 -167.2 195.25 -177.5 207.0 -187.3 218.7 -197.1 224.75 -206.15 230.75 -215.15 230.1 -223.2 229.4 -231.2 220.95 -237.95 212.55 -244.75 195.3 -250.0 169.0 -258.05 150.65 -266.45 132.35 -274.85 121.15 -283.45 109.95 -292.05 104.85 -300.65 99.75 -309.3 99.95 -317.75 100.15 -326.25 104.6 -334.4 109.05 -342.6 116.9 -350.3 124.65 -357.95 134.9 -365.0 145.15 -372.05 156.85 -378.25 168.55 -384.5 180.85 -389.7 193.15 -394.95 205.0 -399.0 L212.0 -399.0 Q200.1 -394.95 187.85 -389.7 175.55 -384.5 163.85 -378.25 152.15 -372.05 141.9 -365.0 131.65 -357.95 123.85 -350.3 116.05 -342.6 111.6 -334.4 107.15 -326.25 106.95 -317.75 106.75 -309.3 111.85 -300.65 116.9 -292.05 128.15 -283.45 139.35 -274.85 157.65 -266.45 176.0 -258.05 202.3 -250.0 219.5 -244.75 228.1 -237.95 236.7 -231.2 237.75 -223.2 238.75 -215.15 233.2 -206.15 227.6 -197.1 216.4 -187.3 205.25 -177.5 189.5 -167.2 173.7 -156.9 154.4 -146.3 135.0 -135.7 113.05 -125.05 91.1 -114.45 67.6 -104.0 44.1 -93.55 20.0 -83.6 -4.15 -73.6 -27.8 -64.35 -51.5 -55.05 -73.75 -46.7 -96.0 -38.35 -115.8 -31.2 L-152.05 -18.25 -180.4 -8.45 -198.85 -2.2 -205.4 0.0 -228.15 0.0;M-219.65 0.0 L-219.55 0.0 -212.85 -2.2 Q-206.15 -4.35 -193.8 -8.45 L-164.6 -18.25 Q-145.9 -24.75 -127.25 -31.2 -105.55 -38.95 -83.85 -46.7 -60.9 -55.05 -36.45 -64.35 -12.0 -73.6 12.9 -83.6 37.85 -93.55 62.2 -104.0 86.55 -114.45 109.3 -125.05 132.05 -135.7 152.2 -146.3 172.35 -156.9 188.8 -167.2 205.3 -177.5 217.15 -187.3 228.95 -197.1 235.05 -206.15 241.15 -215.15 240.55 -223.2 239.95 -231.2 231.55 -237.95 223.2 -244.75 206.0 -250.0 179.75 -258.05 161.5 -266.45 143.25 -274.85 132.1 -283.45 121.0 -292.05 116.0 -300.65 111.0 -309.3 111.25 -317.75 111.5 -326.25 116.0 -334.4 120.55 -342.6 128.45 -350.3 136.3 -357.95 146.6 -365.0 156.9 -372.05 168.65 -378.25 180.45 -384.5 192.75 -389.7 205.1 -394.95 217.0 -399.0 L224.0 -399.0 Q212.05 -394.95 199.75 -389.7 187.45 -384.5 175.65 -378.25 163.9 -372.05 153.6 -365.0 143.3 -357.95 135.4 -350.3 127.55 -342.6 123.0 -334.4 118.5 -326.25 118.25 -317.75 118.0 -309.3 123.0 -300.65 127.95 -292.05 139.1 -283.45 150.25 -274.85 168.5 -266.45 186.75 -258.05 213.0 -250.0 230.15 -244.75 238.7 -237.95 247.25 -231.2 248.2 -223.2 249.15 -215.15 243.5 -206.15 237.85 -197.1 226.55 -187.3 215.3 -177.5 199.45 -167.2 183.6 -156.9 164.15 -146.3 144.7 -135.7 122.65 -125.05 100.6 -114.45 77.0 -104.0 53.4 -93.55 29.2 -83.6 5.0 -73.6 -18.75 -64.35 -42.5 -55.05 -64.85 -46.7 -85.95 -38.95 -107.05 -31.2 L-143.4 -18.25 -171.85 -8.45 -190.35 -2.2 -196.9 0.0 -219.65 0.0"/>
    </path>
    <path d="M-228.15 0.0 L-205.4 0.0 -198.85 -2.2 -180.4 -8.45 -152.05 -18.25 -115.8 -31.2 Q-96.0 -38.35 -73.75 -46.7 -51.5 -55.05 -27.8 -64.35 -4.15 -73.6 20.0 -83.6 44.1 -93.55 67.6 -104.0 91.1 -114.45 113.05 -125.05 135.0 -135.7 154.4 -146.3 173.7 -156.9 189.5 -167.2 205.25 -177.5 216.4 -187.3 227.6 -197.1 233.2 -206.15 238.75 -215.15 237.75 -223.2 236.7 -231.2 228.1 -237.95 219.5 -244.75 202.3 -250.0 176.0 -258.05 157.65 -266.45 139.35 -274.85 128.15 -283.45 116.9 -292.05 111.85 -300.65 106.75 -309.3 106.95 -317.75 107.15 -326.25 111.6 -334.4 116.05 -342.6 123.85 -350.3 131.65 -357.95 141.9 -365.0 152.15 -372.05 163.85 -378.25 175.55 -384.5 187.85 -389.7 200.1 -394.95 212.0 -399.0 L205.0 -399.0 Q193.15 -394.95 180.85 -389.7 168.55 -384.5 156.85 -378.25 145.15 -372.05 134.9 -365.0 124.65 -357.95 116.9 -350.3 109.05 -342.6 104.6 -334.4 100.15 -326.25 99.95 -317.75 99.75 -309.3 104.85 -300.65 109.95 -292.05 121.15 -283.45 132.35 -274.85 150.65 -266.45 169.0 -258.05 195.3 -250.0 212.55 -244.75 220.95 -237.95 229.4 -231.2 230.1 -223.2 230.75 -215.15 224.75 -206.15 218.7 -197.1 207.0 -187.3 195.25 -177.5 178.85 -167.2 162.45 -156.9 142.45 -146.3 122.35 -135.7 99.7 -125.05 77.05 -114.45 52.8 -104.0 28.55 -93.55 3.7 -83.6 -21.15 -73.6 -45.5 -64.35 -69.9 -55.05 -92.75 -46.7 -115.65 -38.35 -136.0 -31.2 -156.4 -24.0 -173.25 -18.25 L-202.35 -8.45 Q-211.85 -5.35 -221.35 -2.2 L-228.05 0.0 -228.15 0.0" fill="none" stroke="#000000" stroke-linecap="round" stroke-linejoin="round" stroke-opacity="0.0" stroke-width="1.0">
      <animate attributeName="stroke" dur="2s" repeatCount="indefinite" values="#000000;#000001"/>
      <animate attributeName="stroke-width" dur="2s" repeatCount="indefinite" values="0.0;0.0"/>
      <animate attributeName="fill-opacity" dur="2s" repeatCount="indefinite" values="0.0;0.0"/>
      <animate attributeName="d" dur="2s" repeatCount="indefinite" values="M-228.15 0.0 L-205.4 0.0 -198.85 -2.2 -180.4 -8.45 -152.05 -18.25 -115.8 -31.2 Q-96.0 -38.35 -73.75 -46.7 -51.5 -55.05 -27.8 -64.35 -4.15 -73.6 20.0 -83.6 44.1 -93.55 67.6 -104.0 91.1 -114.45 113.05 -125.05 135.0 -135.7 154.4 -146.3 173.7 -156.9 189.5 -167.2 205.25 -177.5 216.4 -187.3 227.6 -197.1 233.2 -206.15 238.75 -215.15 237.75 -223.2 236.7 -231.2 228.1 -237.95 219.5 -244.75 202.3 -250.0 176.0 -258.05 157.65 -266.45 139.35 -274.85 128.15 -283.45 116.9 -292.05 111.85 -300.65 106.75 -309.3 106.95 -317.75 107.15 -326.25 111.6 -334.4 116.05 -342.6 123.85 -350.3 131.65 -357.95 141.9 -365.0 152.15 -372.05 163.85 -378.25 175.55 -384.5 187.85 -389.7 200.1 -394.95 212.0 -399.0 L205.0 -399.0 Q193.15 -394.95 180.85 -389.7 168.55 -384.5 156.85 -378.25 145.15 -372.05 134.9 -365.0 124.65 -357.95 116.9 -350.3 109.05 -342.6 104.6 -334.4 100.15 -326.25 99.95 -317.75 99.75 -309.3 104.85 -300.65 109.95 -292.05 121.15 -283.45 132.35 -274.85 150.65 -266.45 169.0 -258.05 195.3 -250.0 212.55 -244.75 220.95 -237.95 229.4 -231.2 230.1 -223.2 230.75 -215.15 224.75 -206.15 218.7 -197.1 207.0 -187.3 195.25 -177.5 178.85 -167.2 162.45 -156.9 142.45 -146.3 122.35 -135.7 99.7 -125.05 77.05 -114.45 52.8 -104.0 28.55 -93.55 3.7 -83.6 -21.15 -73.6 -45.5 -64.35 -69.9 -55.05 -92.75 -46.7 -115.65 -38.35 -136.0 -31.2 -156.4 -24.0 -173.25 -18.25 L-202.35 -8.45 Q-211.85 -5.35 -221.35 -2.2 L-228.05 0.0 -228.15 0.0;M-219.65 0.0 L-196.9 0.0 -190.35 -2.2 -171.85 -8.45 -143.4 -18.25 -107.05 -31.2 Q-85.95 -38.95 -64.85 -46.7 -42.5 -55.05 -18.75 -64.35 5.0 -73.6 29.2 -83.6 53.4 -93.55 77.0 -104.0 100.6 -114.45 122.65 -125.05 144.7 -135.7 164.15 -146.3 183.6 -156.9 199.45 -167.2 215.3 -177.5 226.55 -187.3 237.85 -197.1 243.5 -206.15 249.15 -215.15 248.2 -223.2 247.25 -231.2 238.7 -237.95 230.15 -244.75 213.0 -250.0 186.75 -258.05 168.5 -266.45 150.25 -274.85 139.1 -283.45 127.95 -292.05 123.0 -300.65 118.0 -309.3 118.25 -317.75 118.5 -326.25 123.0 -334.4 127.55 -342.6 135.4 -350.3 143.3 -357.95 153.6 -365.0 163.9 -372.05 175.65 -378.25 187.45 -384.5 199.75 -389.7 212.05 -394.95 224.0 -399.0 L217.0 -399.0 Q205.1 -394.95 192.75 -389.7 180.45 -384.5 168.65 -378.25 156.9 -372.05 146.6 -365.0 136.3 -357.95 128.45 -350.3 120.55 -342.6 116.0 -334.4 111.5 -326.25 111.25 -317.75 111.0 -309.3 116.0 -300.65 121.0 -292.05 132.1 -283.45 143.25 -274.85 161.5 -266.45 179.75 -258.05 206.0 -250.0 223.2 -244.75 231.55 -237.95 239.95 -231.2 240.55 -223.2 241.15 -215.15 235.05 -206.15 228.95 -197.1 217.15 -187.3 205.3 -177.5 188.8 -167.2 172.35 -156.9 152.2 -146.3 132.05 -135.7 109.3 -125.05 86.55 -114.45 62.2 -104.0 37.85 -93.55 12.9 -83.6 -12.0 -73.6 -36.45 -64.35 -60.9 -55.05 -83.85 -46.7 -105.55 -38.95 -127.25 -31.2 -145.9 -24.75 -164.6 -18.25 L-193.8 -8.45 Q-206.15 -4.35 -212.85 -2.2 L-219.55 0.0 -219.65 0.0"/>
    </path>
  </g>
</svg>
