<?xml version="1.0" encoding="UTF-8" standalone="no"?>
<svg xmlns:xlink="http://www.w3.org/1999/xlink" height="399.0px" width="497.15px" xmlns="http://www.w3.org/2000/svg">
  <g transform="matrix(1.0, 0.0, 0.0, 1.0, 267.3, 399.0)">
    <path d="M-267.3 0.0 L-267.15 0.0 -260.2 -2.2 -240.25 -8.45 -209.6 -18.25 Q-190.0 -24.75 -170.45 -31.2 -149.0 -38.35 -124.85 -46.7 -100.75 -55.05 -75.05 -64.35 -49.3 -73.6 -23.05 -83.6 3.15 -93.55 28.85 -104.0 54.55 -114.45 78.65 -125.05 102.75 -135.7 124.15 -146.3 145.55 -156.9 163.2 -167.2 180.85 -177.5 193.65 -187.3 206.5 -197.1 213.45 -206.15 220.35 -215.15 220.35 -223.2 220.3 -231.2 212.25 -237.95 204.2 -244.75 187.05 -250.0 160.8 -258.05 142.55 -266.45 124.3 -274.85 113.15 -283.45 102.0 -292.05 97.0 -300.65 92.05 -309.3 92.3 -317.75 92.5 -326.25 97.05 -334.4 101.55 -342.6 109.45 -350.3 117.35 -357.95 127.6 -365.0 137.9 -372.05 149.7 -378.25 161.45 -384.5 173.8 -389.7 186.1 -394.95 198.05 -399.0 L202.05 -399.0 Q190.1 -394.95 177.8 -389.7 165.45 -384.5 153.7 -378.25 141.9 -372.05 131.6 -365.0 121.35 -357.95 113.45 -350.3 105.55 -342.6 101.05 -334.4 96.5 -326.25 96.3 -317.75 96.05 -309.3 101.0 -300.65 106.0 -292.05 117.15 -283.45 128.3 -274.85 146.55 -266.45 164.8 -258.05 191.05 -250.0 208.2 -244.75 216.4 -237.95 224.6 -231.2 224.85 -223.2 225.15 -215.15 218.55 -206.15 211.95 -197.1 199.55 -187.3 187.15 -177.5 170.0 -167.2 152.8 -156.9 131.95 -146.3 111.05 -135.7 87.55 -125.05 64.0 -114.45 38.85 -104.0 13.75 -93.55 -11.95 -83.6 -37.65 -73.6 -62.85 -64.35 -88.0 -55.05 -111.65 -46.7 -135.3 -38.35 -156.3 -31.2 L-194.7 -18.25 -224.75 -8.45 -244.3 -2.2 -251.25 0.0 -267.3 0.0" fill="#ffffff" fill-rule="evenodd" stroke="none">
      <animate attributeName="fill" dur="2s" repeatCount="indefinite" values="#ffffff;#ffffff"/>
      <animate attributeName="fill-opacity" dur="2s" repeatCount="indefinite" values="1.0;1.0"/>
      <animate attributeName="d" dur="2s" repeatCount="indefinite" values="M-267.3 0.0 L-267.15 0.0 -260.2 -2.2 -240.25 -8.45 -209.6 -18.25 Q-190.0 -24.75 -170.45 -31.2 -149.0 -38.35 -124.85 -46.7 -100.75 -55.05 -75.05 -64.35 -49.3 -73.6 -23.05 -83.6 3.15 -93.55 28.85 -104.0 54.55 -114.45 78.65 -125.05 102.75 -135.7 124.15 -146.3 145.55 -156.9 163.2 -167.2 180.85 -177.5 193.65 -187.3 206.5 -197.1 213.45 -206.15 220.35 -215.15 220.35 -223.2 220.3 -231.2 212.25 -237.95 204.2 -244.75 187.05 -250.0 160.8 -258.05 142.55 -266.45 124.3 -274.85 113.15 -283.45 102.0 -292.05 97.0 -300.65 92.05 -309.3 92.3 -317.75 92.5 -326.25 97.05 -334.4 101.55 -342.6 109.45 -350.3 117.35 -357.95 127.6 -365.0 137.9 -372.05 149.7 -378.25 161.45 -384.5 173.8 -389.7 186.1 -394.95 198.05 -399.0 L202.05 -399.0 Q190.1 -394.95 177.8 -389.7 165.45 -384.5 153.7 -378.25 141.9 -372.05 131.6 -365.0 121.35 -357.95 113.45 -350.3 105.55 -342.6 101.05 -334.4 96.5 -326.25 96.3 -317.75 96.05 -309.3 101.0 -300.65 106.0 -292.05 117.15 -283.45 128.3 -274.85 146.55 -266.45 164.8 -258.05 191.05 -250.0 208.2 -244.75 216.4 -237.95 224.6 -231.2 224.85 -223.2 225.15 -215.15 218.55 -206.15 211.95 -197.1 199.55 -187.3 187.15 -177.5 170.0 -167.2 152.8 -156.9 131.95 -146.3 111.05 -135.7 87.55 -125.05 64.0 -114.45 38.85 -104.0 13.75 -93.55 -11.95 -83.6 -37.65 -73.6 -62.85 -64.35 -88.0 -55.05 -111.65 -46.7 -135.3 -38.35 -156.3 -31.2 L-194.7 -18.25 -224.75 -8.45 -244.3 -2.2 -251.25 0.0 -267.3 0.0;M-262.3 0.0 L-262.15 0.0 -255.2 -2.2 -235.25 -8.45 -204.6 -18.25 Q-186.9 -24.0 -165.45 -31.2 -144.0 -38.35 -119.85 -46.7 -95.75 -55.05 -70.05 -64.35 -44.3 -73.6 -18.05 -83.6 8.15 -93.55 33.85 -104.0 59.55 -114.45 83.65 -125.05 107.75 -135.7 129.15 -146.3 150.55 -156.9 168.2 -167.2 185.85 -177.5 198.65 -187.3 211.5 -197.1 218.45 -206.15 225.35 -215.15 225.35 -223.2 225.3 -231.2 217.25 -237.95 209.2 -244.75 192.05 -250.0 165.8 -258.05 147.55 -266.45 129.3 -274.85 118.15 -283.45 107.0 -292.05 102.0 -300.65 97.05 -309.3 97.3 -317.75 97.5 -326.25 102.05 -334.4 106.55 -342.6 114.45 -350.3 122.35 -357.95 132.6 -365.0 142.9 -372.05 154.7 -378.25 166.45 -384.5 178.8 -389.7 191.1 -394.95 203.05 -399.0 L207.05 -399.0 Q195.1 -394.95 182.8 -389.7 170.45 -384.5 158.7 -378.25 146.9 -372.05 136.6 -365.0 126.35 -357.95 118.45 -350.3 110.55 -342.6 106.05 -334.4 101.5 -326.25 101.3 -317.75 101.05 -309.3 106.0 -300.65 111.0 -292.05 122.15 -283.45 133.3 -274.85 151.55 -266.45 169.8 -258.05 196.05 -250.0 213.2 -244.75 221.4 -237.95 229.6 -231.2 229.85 -223.2 230.15 -215.15 223.55 -206.15 216.95 -197.1 204.55 -187.3 192.15 -177.5 175.0 -167.2 157.8 -156.9 136.95 -146.3 116.05 -135.7 92.55 -125.05 69.0 -114.45 43.85 -104.0 18.75 -93.55 -6.95 -83.6 -32.65 -73.6 -57.85 -64.35 -83.0 -55.05 -106.65 -46.7 -129.0 -38.95 -151.3 -31.2 L-189.7 -18.25 -219.75 -8.45 -239.3 -2.2 -246.25 0.0 -262.3 0.0"/>
    </path>
    <path d="M-267.3 0.0 L-251.25 0.0 -244.3 -2.2 -224.75 -8.45 -194.7 -18.25 -156.3 -31.2 Q-135.3 -38.35 -111.65 -46.7 -88.0 -55.05 -62.85 -64.35 -37.65 -73.6 -11.95 -83.6 13.75 -93.55 38.85 -104.0 64.0 -114.45 87.55 -125.05 111.05 -135.7 131.95 -146.3 152.8 -156.9 170.0 -167.2 187.15 -177.5 199.55 -187.3 211.95 -197.1 218.55 -206.15 225.15 -215.15 224.85 -223.2 224.6 -231.2 216.4 -237.95 208.2 -244.75 191.05 -250.0 164.8 -258.05 146.55 -266.45 128.3 -274.85 117.15 -283.45 106.0 -292.05 101.0 -300.65 96.05 -309.3 96.3 -317.75 96.5 -326.25 101.05 -334.4 105.55 -342.6 113.45 -350.3 121.35 -357.95 131.6 -365.0 141.9 -372.05 153.7 -378.25 165.45 -384.5 177.8 -389.7 190.1 -394.95 202.05 -399.0 L198.05 -399.0 Q186.1 -394.95 173.8 -389.7 161.45 -384.5 149.7 -378.25 137.9 -372.05 127.6 -365.0 117.35 -357.95 109.45 -350.3 101.55 -342.6 97.05 -334.4 92.5 -326.25 92.3 -317.75 92.05 -309.3 97.0 -300.65 102.0 -292.05 113.15 -283.45 124.3 -274.85 142.55 -266.45 160.8 -258.05 187.05 -250.0 204.2 -244.75 212.25 -237.95 220.3 -231.2 220.35 -223.2 220.35 -215.15 213.45 -206.15 206.5 -197.1 193.65 -187.3 180.85 -177.5 163.2 -167.2 145.55 -156.9 124.15 -146.3 102.75 -135.7 78.65 -125.05 54.55 -114.45 28.85 -104.0 3.15 -93.55 -23.05 -83.6 -49.3 -73.6 -75.05 -64.35 -100.75 -55.05 -124.85 -46.7 -149.0 -38.35 -170.45 -31.2 -190.0 -24.75 -209.6 -18.25 L-240.25 -8.45 -260.2 -2.2 -267.15 0.0 -267.3 0.0" fill="none" stroke="#000000" stroke-linecap="round" stroke-linejoin="round" stroke-opacity="0.0" stroke-width="1.0">
      <animate attributeName="stroke" dur="2s" repeatCount="indefinite" values="#000000;#000001"/>
      <animate attributeName="stroke-width" dur="2s" repeatCount="indefinite" values="0.0;0.0"/>
      <animate attributeName="fill-opacity" dur="2s" repeatCount="indefinite" values="0.0;0.0"/>
      <animate attributeName="d" dur="2s" repeatCount="indefinite" values="M-267.3 0.0 L-251.25 0.0 -244.3 -2.2 -224.75 -8.45 -194.7 -18.25 -156.3 -31.2 Q-135.3 -38.35 -111.65 -46.7 -88.0 -55.05 -62.85 -64.35 -37.65 -73.6 -11.95 -83.6 13.75 -93.55 38.85 -104.0 64.0 -114.45 87.55 -125.05 111.05 -135.7 131.95 -146.3 152.8 -156.9 170.0 -167.2 187.15 -177.5 199.55 -187.3 211.95 -197.1 218.55 -206.15 225.15 -215.15 224.85 -223.2 224.6 -231.2 216.4 -237.95 208.2 -244.75 191.05 -250.0 164.8 -258.05 146.55 -266.45 128.3 -274.85 117.15 -283.45 106.0 -292.05 101.0 -300.65 96.05 -309.3 96.3 -317.75 96.5 -326.25 101.05 -334.4 105.55 -342.6 113.45 -350.3 121.35 -357.95 131.6 -365.0 141.9 -372.05 153.7 -378.25 165.45 -384.5 177.8 -389.7 190.1 -394.95 202.05 -399.0 L198.05 -399.0 Q186.1 -394.95 173.8 -389.7 161.45 -384.5 149.7 -378.25 137.9 -372.05 127.6 -365.0 117.35 -357.95 109.45 -350.3 101.55 -342.6 97.05 -334.4 92.5 -326.25 92.3 -317.75 92.05 -309.3 97.0 -300.65 102.0 -292.05 113.15 -283.45 124.3 -274.85 142.55 -266.45 160.8 -258.05 187.05 -250.0 204.2 -244.75 212.25 -237.95 220.3 -231.2 220.35 -223.2 220.35 -215.15 213.45 -206.15 206.5 -197.1 193.65 -187.3 180.85 -177.5 163.2 -167.2 145.55 -156.9 124.15 -146.3 102.75 -135.7 78.65 -125.05 54.55 -114.45 28.85 -104.0 3.15 -93.55 -23.05 -83.6 -49.3 -73.6 -75.05 -64.35 -100.75 -55.05 -124.85 -46.7 -149.0 -38.35 -170.45 -31.2 -190.0 -24.75 -209.6 -18.25 L-240.25 -8.45 -260.2 -2.2 -267.15 0.0 -267.3 0.0;M-262.3 0.0 L-246.25 0.0 -239.3 -2.2 -219.75 -8.45 -189.7 -18.25 -151.3 -31.2 Q-129.0 -38.95 -106.65 -46.7 -83.0 -55.05 -57.85 -64.35 -32.65 -73.6 -6.95 -83.6 18.75 -93.55 43.85 -104.0 69.0 -114.45 92.55 -125.05 116.05 -135.7 136.95 -146.3 157.8 -156.9 175.0 -167.2 192.15 -177.5 204.55 -187.3 216.95 -197.1 223.55 -206.15 230.15 -215.15 229.85 -223.2 229.6 -231.2 221.4 -237.95 213.2 -244.75 196.05 -250.0 169.8 -258.05 151.55 -266.45 133.3 -274.85 122.15 -283.45 111.0 -292.05 106.0 -300.65 101.05 -309.3 101.3 -317.75 101.5 -326.25 106.05 -334.4 110.55 -342.6 118.45 -350.3 126.35 -357.95 136.6 -365.0 146.9 -372.05 158.7 -378.25 170.45 -384.5 182.8 -389.7 195.1 -394.95 207.05 -399.0 L203.05 -399.0 Q191.1 -394.95 178.8 -389.7 166.45 -384.5 154.7 -378.25 142.9 -372.05 132.6 -365.0 122.35 -357.95 114.45 -350.3 106.55 -342.6 102.05 -334.4 97.5 -326.25 97.3 -317.75 97.05 -309.3 102.0 -300.65 107.0 -292.05 118.15 -283.45 129.3 -274.85 147.55 -266.45 165.8 -258.05 192.05 -250.0 209.2 -244.75 217.25 -237.95 225.3 -231.2 225.35 -223.2 225.35 -215.15 218.45 -206.15 211.5 -197.1 198.65 -187.3 185.85 -177.5 168.2 -167.2 150.55 -156.9 129.15 -146.3 107.75 -135.7 83.65 -125.05 59.55 -114.45 33.85 -104.0 8.15 -93.55 -18.05 -83.6 -44.3 -73.6 -70.05 -64.35 -95.75 -55.05 -119.85 -46.7 -144.0 -38.35 -165.45 -31.2 -186.9 -24.0 -204.6 -18.25 L-235.25 -8.45 -255.2 -2.2 -262.15 0.0 -262.3 0.0"/>
    </path>
  </g>
</svg>
