<?xml version="1.0" encoding="UTF-8" standalone="no"?>
<svg xmlns:xlink="http://www.w3.org/1999/xlink" height="6.3px" width="31.05px" xmlns="http://www.w3.org/2000/svg">
  <g transform="matrix(1.0, 0.0, 0.0, 1.0, -25.9, -0.2)">
    <path d="M25.9 5.45 Q28.55 6.2 31.6 6.05 L37.15 5.2 41.45 3.95 43.15 3.35 44.85 4.35 49.1 6.0 54.05 6.4 Q48.85 5.1 45.15 3.3 41.35 1.55 39.85 0.2 L36.35 2.55 Q34.45 3.65 31.9 4.45 L25.9 5.45" fill="#287dd0" fill-rule="evenodd" stroke="none">
      <animate attributeName="fill" dur="2s" repeatCount="indefinite" values="#287dd0;#246ec3"/>
      <animate attributeName="fill-opacity" dur="2s" repeatCount="indefinite" values="1.0;1.0"/>
      <animate attributeName="d" dur="2s" repeatCount="indefinite" values="M25.9 5.45 Q28.55 6.2 31.6 6.05 L37.15 5.2 41.45 3.95 43.15 3.35 44.85 4.35 49.1 6.0 54.05 6.4 Q48.85 5.1 45.15 3.3 41.35 1.55 39.85 0.2 L36.35 2.55 Q34.45 3.65 31.9 4.45 L25.9 5.45;M48.0 3.35 Q48.9 3.4 49.8 3.4 L51.6 3.3 52.95 3.2 53.5 3.15 54.05 3.25 55.4 3.4 56.95 3.4 Q55.55 3.25 54.15 3.15 53.3 3.0 52.45 2.85 L51.35 3.1 Q50.6 3.2 49.9 3.25 L48.0 3.35"/>
    </path>
    <path d="M25.9 5.45 L31.9 4.45 Q34.45 3.65 36.35 2.55 L39.85 0.2 Q41.35 1.55 45.15 3.3 48.85 5.1 54.05 6.4 L49.1 6.0 44.85 4.35 43.15 3.35 41.45 3.95 37.15 5.2 31.6 6.05 Q28.55 6.2 25.9 5.45" fill="none" stroke="#000000" stroke-linecap="round" stroke-linejoin="round" stroke-opacity="0.0" stroke-width="1.0">
      <animate attributeName="stroke" dur="2s" repeatCount="indefinite" values="#000000;#000001"/>
      <animate attributeName="stroke-width" dur="2s" repeatCount="indefinite" values="0.0;0.0"/>
      <animate attributeName="fill-opacity" dur="2s" repeatCount="indefinite" values="0.0;0.0"/>
      <animate attributeName="d" dur="2s" repeatCount="indefinite" values="M25.9 5.45 L31.9 4.45 Q34.45 3.65 36.35 2.55 L39.85 0.2 Q41.35 1.55 45.15 3.3 48.85 5.1 54.05 6.4 L49.1 6.0 44.85 4.35 43.15 3.35 41.45 3.95 37.15 5.2 31.6 6.05 Q28.55 6.2 25.9 5.45;M48.0 3.35 L49.9 3.25 Q50.6 3.2 51.35 3.1 L52.45 2.85 Q53.3 3.0 54.15 3.15 55.55 3.25 56.95 3.4 L55.4 3.4 54.05 3.25 53.5 3.15 52.95 3.2 51.6 3.3 49.8 3.4 Q48.9 3.4 48.0 3.35"/>
    </path>
  </g>
</svg>
