<?xml version="1.0" encoding="UTF-8" standalone="no"?>
<svg xmlns:xlink="http://www.w3.org/1999/xlink" height="288.5px" width="592.5px" xmlns="http://www.w3.org/2000/svg">
  <g transform="matrix(1.0, 0.0, 0.0, 1.0, 294.75, 331.75)">
    <path d="M-283.7 -244.5 Q-283.45 -238.6 -280.7 -229.85 -277.9 -221.1 -272.6 -210.25 -267.4 -199.45 -259.6 -187.35 -251.9 -175.25 -241.7 -162.65 -231.55 -150.1 -219.0 -137.8 -206.45 -125.6 -191.5 -114.4 -176.55 -103.3 -159.3 -94.05 -142.1 -84.85 -122.5 -78.3 -102.95 -71.8 -81.15 -68.75 -59.35 -65.7 -35.3 -67.0 -18.4 -68.0 -5.75 -71.45 6.9 -74.9 16.2 -80.2 25.4 -85.5 32.15 -92.1 38.85 -98.7 43.9 -105.9 48.95 -113.1 53.2 -120.4 57.45 -127.7 61.75 -134.4 66.0 -141.15 71.2 -146.75 76.4 -152.35 83.3 -156.2 90.3 -160.05 99.85 -161.55 112.85 -163.55 127.15 -167.25 141.5 -171.05 156.3 -176.1 171.0 -181.2 185.4 -187.2 199.75 -193.25 212.9 -199.9 226.0 -206.55 237.05 -213.35 248.15 -220.25 256.3 -226.9 264.45 -233.6 268.9 -239.65 273.35 -245.8 273.2 -251.0 272.9 -256.85 266.9 -262.65 260.9 -268.4 250.1 -274.0 239.25 -279.6 224.5 -284.8 209.75 -290.1 191.95 -294.85 174.1 -299.65 154.2 -303.85 134.2 -308.05 113.0 -311.45 91.75 -314.9 70.15 -317.4 L27.4 -321.45 -13.45 -323.35 Q-33.2 -323.7 -50.6 -322.75 -75.55 -321.3 -100.05 -318.4 -124.65 -315.5 -147.75 -311.2 -170.9 -306.9 -191.45 -301.4 -212.05 -296.0 -229.05 -289.55 -246.05 -283.15 -258.4 -275.85 -270.7 -268.6 -277.3 -260.7 -283.95 -252.85 -283.7 -244.5 M-294.25 -244.6 Q-294.0 -238.35 -291.05 -228.95 -288.2 -219.6 -282.6 -208.05 -277.1 -196.45 -268.95 -183.5 -260.9 -170.55 -250.15 -157.15 -239.5 -143.7 -226.25 -130.55 -213.1 -117.45 -197.4 -105.5 -181.75 -93.6 -163.6 -83.7 -145.5 -73.85 -124.95 -66.8 -104.4 -59.8 -81.5 -56.55 -58.65 -53.3 -33.4 -54.6 -15.7 -55.7 -2.4 -59.35 10.85 -63.05 20.6 -68.7 30.3 -74.35 37.35 -81.35 44.45 -88.4 49.7 -96.1 55.0 -103.85 59.45 -111.6 63.9 -119.1 68.35 -126.6 72.9 -133.85 78.35 -139.75 83.75 -145.8 91.05 -149.85 98.3 -154.0 108.35 -155.55 122.05 -157.7 137.1 -161.65 152.1 -165.65 167.6 -171.05 183.05 -176.45 198.15 -182.9 213.2 -189.35 227.0 -196.45 240.75 -203.55 252.4 -210.85 264.05 -218.15 272.6 -225.25 281.15 -232.4 285.85 -238.9 290.5 -245.5 290.35 -251.05 290.0 -257.3 283.7 -263.45 277.4 -269.65 266.05 -275.65 254.65 -281.6 239.15 -287.25 223.65 -292.85 205.0 -298.0 186.25 -303.15 165.3 -307.6 144.35 -312.1 122.05 -315.8 99.55 -319.0 77.1 -322.2 L32.2 -326.6 -10.65 -328.65 Q-31.4 -329.05 -49.7 -328.0 -72.45 -326.1 -95.2 -324.2 -117.8 -321.65 -139.45 -318.0 -161.1 -314.3 -180.95 -309.6 -200.8 -304.9 -218.15 -299.35 -235.55 -293.8 -249.65 -287.45 -263.75 -281.15 -273.8 -274.2 -283.9 -267.3 -289.15 -259.85 -294.5 -252.45 -294.25 -244.6" fill="#ffffff" fill-rule="evenodd" stroke="none">
      <animate attributeName="fill" dur="2s" repeatCount="indefinite" values="#ffffff;#ffffff"/>
      <animate attributeName="fill-opacity" dur="2s" repeatCount="indefinite" values="1.0;1.0"/>
      <animate attributeName="d" dur="2s" repeatCount="indefinite" values="M-283.7 -244.5 Q-283.45 -238.6 -280.7 -229.85 -277.9 -221.1 -272.6 -210.25 -267.4 -199.45 -259.6 -187.35 -251.9 -175.25 -241.7 -162.65 -231.55 -150.1 -219.0 -137.8 -206.45 -125.6 -191.5 -114.4 -176.55 -103.3 -159.3 -94.05 -142.1 -84.85 -122.5 -78.3 -102.95 -71.8 -81.15 -68.75 -59.35 -65.7 -35.3 -67.0 -18.4 -68.0 -5.75 -71.45 6.9 -74.9 16.2 -80.2 25.4 -85.5 32.15 -92.1 38.85 -98.7 43.9 -105.9 48.95 -113.1 53.2 -120.4 57.45 -127.7 61.75 -134.4 66.0 -141.15 71.2 -146.75 76.4 -152.35 83.3 -156.2 90.3 -160.05 99.85 -161.55 112.85 -163.55 127.15 -167.25 141.5 -171.05 156.3 -176.1 171.0 -181.2 185.4 -187.2 199.75 -193.25 212.9 -199.9 226.0 -206.55 237.05 -213.35 248.15 -220.25 256.3 -226.9 264.45 -233.6 268.9 -239.65 273.35 -245.8 273.2 -251.0 272.9 -256.85 266.9 -262.65 260.9 -268.4 250.1 -274.0 239.25 -279.6 224.5 -284.8 209.75 -290.1 191.95 -294.85 174.1 -299.65 154.2 -303.85 134.2 -308.05 113.0 -311.45 91.75 -314.9 70.15 -317.4 L27.4 -321.45 -13.45 -323.35 Q-33.2 -323.7 -50.6 -322.75 -75.55 -321.3 -100.05 -318.4 -124.65 -315.5 -147.75 -311.2 -170.9 -306.9 -191.45 -301.4 -212.05 -296.0 -229.05 -289.55 -246.05 -283.15 -258.4 -275.85 -270.7 -268.6 -277.3 -260.7 -283.95 -252.85 -283.7 -244.5 M-294.25 -244.6 Q-294.0 -238.35 -291.05 -228.95 -288.2 -219.6 -282.6 -208.05 -277.1 -196.45 -268.95 -183.5 -260.9 -170.55 -250.15 -157.15 -239.5 -143.7 -226.25 -130.55 -213.1 -117.45 -197.4 -105.5 -181.75 -93.6 -163.6 -83.7 -145.5 -73.85 -124.95 -66.8 -104.4 -59.8 -81.5 -56.55 -58.65 -53.3 -33.4 -54.6 -15.7 -55.7 -2.4 -59.35 10.85 -63.05 20.6 -68.7 30.3 -74.35 37.35 -81.35 44.45 -88.4 49.7 -96.1 55.0 -103.85 59.45 -111.6 63.9 -119.1 68.35 -126.6 72.9 -133.85 78.35 -139.75 83.75 -145.8 91.05 -149.85 98.3 -154.0 108.35 -155.55 122.05 -157.7 137.1 -161.65 152.1 -165.65 167.6 -171.05 183.05 -176.45 198.15 -182.9 213.2 -189.35 227.0 -196.45 240.75 -203.55 252.4 -210.85 264.05 -218.15 272.6 -225.25 281.15 -232.4 285.85 -238.9 290.5 -245.5 290.35 -251.05 290.0 -257.3 283.7 -263.45 277.4 -269.65 266.05 -275.65 254.65 -281.6 239.15 -287.25 223.65 -292.85 205.0 -298.0 186.25 -303.15 165.3 -307.6 144.35 -312.1 122.05 -315.8 99.55 -319.0 77.1 -322.2 L32.2 -326.6 -10.65 -328.65 Q-31.4 -329.05 -49.7 -328.0 -72.45 -326.1 -95.2 -324.2 -117.8 -321.65 -139.45 -318.0 -161.1 -314.3 -180.95 -309.6 -200.8 -304.9 -218.15 -299.35 -235.55 -293.8 -249.65 -287.45 -263.75 -281.15 -273.8 -274.2 -283.9 -267.3 -289.15 -259.85 -294.5 -252.45 -294.25 -244.6;M-284.0 -243.2 Q-283.65 -237.0 -280.7 -227.8 -277.7 -218.6 -272.15 -207.2 -266.65 -195.85 -258.55 -183.15 -250.5 -170.4 -239.95 -157.2 -229.4 -144.0 -216.45 -131.1 -203.5 -118.25 -188.15 -106.5 -172.8 -94.8 -155.15 -85.1 -137.5 -75.4 -117.55 -68.55 -97.6 -61.7 -75.45 -58.5 -53.3 -55.3 -28.95 -56.65 -11.8 -57.7 0.95 -61.35 13.7 -64.95 23.0 -70.55 32.25 -76.1 38.95 -83.05 45.65 -89.95 50.65 -97.55 55.65 -105.1 59.8 -112.8 63.95 -120.45 68.2 -127.5 72.4 -134.6 77.55 -140.5 82.7 -146.35 89.65 -150.4 96.65 -154.45 106.3 -156.05 119.45 -158.15 133.9 -162.05 148.35 -166.0 163.25 -171.35 178.1 -176.65 192.55 -183.0 207.0 -189.35 220.2 -196.35 233.35 -203.3 244.45 -210.5 255.55 -217.7 263.7 -224.7 271.85 -231.75 276.25 -238.15 280.65 -244.6 280.4 -250.05 280.0 -256.2 273.8 -262.3 267.6 -268.35 256.55 -274.25 245.45 -280.1 230.4 -285.6 215.35 -291.15 197.2 -296.15 179.05 -301.2 158.75 -305.6 138.45 -310.0 116.85 -313.6 95.25 -317.2 73.3 -319.85 L29.9 -324.1 -11.55 -326.1 Q-31.55 -326.45 -49.2 -325.45 -74.45 -323.95 -99.25 -320.9 -124.1 -317.8 -147.45 -313.3 -170.8 -308.8 -191.55 -303.05 -212.35 -297.35 -229.45 -290.55 -246.55 -283.8 -258.95 -276.15 -271.3 -268.55 -277.85 -260.25 -284.4 -251.95 -284.0 -243.2 M-294.7 -243.35 Q-294.35 -236.75 -291.2 -226.9 -288.1 -217.05 -282.25 -204.9 -276.45 -192.7 -267.95 -179.1 -259.5 -165.5 -248.4 -151.4 -237.35 -137.25 -223.7 -123.45 -210.1 -109.7 -193.95 -97.15 -177.85 -84.6 -159.3 -74.2 -140.75 -63.85 -119.8 -56.45 -98.85 -49.1 -75.6 -45.7 -52.35 -42.25 -26.8 -43.65 -8.85 -44.75 4.55 -48.6 17.95 -52.5 27.7 -58.45 37.45 -64.4 44.45 -71.75 51.5 -79.15 56.7 -87.25 61.95 -95.4 66.3 -103.55 70.65 -111.75 75.05 -119.3 79.5 -126.9 84.9 -133.15 90.3 -139.45 97.6 -143.75 104.9 -148.1 115.05 -149.75 128.9 -152.0 144.05 -156.15 159.2 -160.35 174.8 -166.0 190.4 -171.7 205.55 -178.5 220.7 -185.25 234.55 -192.7 248.4 -200.15 260.05 -207.85 271.7 -215.5 280.25 -223.0 288.8 -230.5 293.4 -237.35 298.0 -244.25 297.75 -250.1 297.3 -256.65 290.8 -263.15 284.3 -269.65 272.65 -275.95 261.0 -282.2 245.2 -288.15 229.4 -294.05 210.35 -299.45 191.3 -304.85 169.95 -309.55 148.65 -314.25 125.95 -318.15 103.3 -322.0 80.25 -324.9 L34.7 -329.5 -8.8 -331.65 Q-29.8 -332.05 -48.35 -331.0 -71.5 -329.65 -94.4 -327.0 -117.25 -324.3 -139.15 -320.45 -161.0 -316.55 -181.05 -311.65 -201.1 -306.7 -218.6 -300.85 -236.1 -295.0 -250.3 -288.35 -264.45 -281.75 -274.55 -274.45 -284.65 -267.15 -289.85 -259.35 -295.1 -251.55 -294.7 -243.35"/>
    </path>
    <path d="M-294.25 -244.6 Q-294.5 -252.45 -289.15 -259.85 -283.9 -267.3 -273.8 -274.2 -263.75 -281.15 -249.65 -287.45 -235.55 -293.8 -218.15 -299.35 -200.8 -304.9 -180.95 -309.6 -161.1 -314.3 -139.45 -318.0 -117.8 -321.65 -95.2 -324.2 -72.45 -326.1 -49.7 -328.0 -31.4 -329.05 -10.65 -328.65 L32.2 -326.6 77.1 -322.2 Q99.55 -319.0 122.05 -315.8 144.35 -312.1 165.3 -307.6 186.25 -303.15 205.0 -298.0 223.65 -292.85 239.15 -287.25 254.65 -281.6 266.05 -275.65 277.4 -269.65 283.7 -263.45 290.0 -257.3 290.35 -251.05 290.5 -245.5 285.85 -238.9 281.15 -232.4 272.6 -225.25 264.05 -218.15 252.4 -210.85 240.75 -203.55 227.0 -196.45 213.2 -189.35 198.15 -182.9 183.05 -176.45 167.6 -171.05 152.1 -165.65 137.1 -161.65 122.05 -157.7 108.35 -155.55 98.3 -154.0 91.05 -149.85 83.75 -145.8 78.35 -139.75 72.9 -133.85 68.35 -126.6 63.9 -119.1 59.45 -111.6 55.0 -103.85 49.7 -96.1 44.45 -88.4 37.35 -81.35 30.3 -74.35 20.6 -68.7 10.85 -63.05 -2.4 -59.35 -15.7 -55.7 -33.4 -54.6 -58.65 -53.3 -81.5 -56.55 -104.4 -59.8 -124.95 -66.8 -145.5 -73.85 -163.6 -83.7 -181.75 -93.6 -197.4 -105.5 -213.1 -117.45 -226.25 -130.55 -239.5 -143.7 -250.15 -157.15 -260.9 -170.55 -268.95 -183.5 -277.1 -196.45 -282.6 -208.05 -288.2 -219.6 -291.05 -228.95 -294.0 -238.35 -294.25 -244.6 M-283.7 -244.5 Q-283.95 -252.85 -277.3 -260.7 -270.7 -268.6 -258.4 -275.85 -246.05 -283.15 -229.05 -289.55 -212.05 -296.0 -191.45 -301.4 -170.9 -306.9 -147.75 -311.2 -124.65 -315.5 -100.05 -318.4 -75.55 -321.3 -50.6 -322.75 -33.2 -323.7 -13.45 -323.35 L27.4 -321.45 70.15 -317.4 Q91.75 -314.9 113.0 -311.45 134.2 -308.05 154.2 -303.85 174.1 -299.65 191.95 -294.85 209.75 -290.1 224.5 -284.8 239.25 -279.6 250.1 -274.0 260.9 -268.4 266.9 -262.65 272.9 -256.85 273.2 -251.0 273.35 -245.8 268.9 -239.65 264.45 -233.6 256.3 -226.9 248.15 -220.25 237.05 -213.35 226.0 -206.55 212.9 -199.9 199.75 -193.25 185.4 -187.2 171.0 -181.2 156.3 -176.1 141.5 -171.05 127.15 -167.25 112.85 -163.55 99.85 -161.55 90.3 -160.05 83.3 -156.2 76.4 -152.35 71.2 -146.75 66.0 -141.15 61.75 -134.4 57.45 -127.7 53.2 -120.4 48.95 -113.1 43.9 -105.9 38.85 -98.7 32.15 -92.1 25.4 -85.5 16.2 -80.2 6.9 -74.9 -5.75 -71.45 -18.4 -68.0 -35.3 -67.0 -59.35 -65.7 -81.15 -68.75 -102.95 -71.8 -122.5 -78.3 -142.1 -84.85 -159.3 -94.05 -176.55 -103.3 -191.5 -114.4 -206.45 -125.6 -219.0 -137.8 -231.55 -150.1 -241.7 -162.65 -251.9 -175.25 -259.6 -187.35 -267.4 -199.45 -272.6 -210.25 -277.9 -221.1 -280.7 -229.85 -283.45 -238.6 -283.7 -244.5" fill="none" stroke="#000000" stroke-linecap="round" stroke-linejoin="round" stroke-opacity="0.0" stroke-width="1.0">
      <animate attributeName="stroke" dur="2s" repeatCount="indefinite" values="#000000;#000001"/>
      <animate attributeName="stroke-width" dur="2s" repeatCount="indefinite" values="0.0;0.0"/>
      <animate attributeName="fill-opacity" dur="2s" repeatCount="indefinite" values="0.0;0.0"/>
      <animate attributeName="d" dur="2s" repeatCount="indefinite" values="M-294.25 -244.6 Q-294.5 -252.45 -289.15 -259.85 -283.9 -267.3 -273.8 -274.2 -263.75 -281.15 -249.65 -287.45 -235.55 -293.8 -218.15 -299.35 -200.8 -304.9 -180.95 -309.6 -161.1 -314.3 -139.45 -318.0 -117.8 -321.65 -95.2 -324.2 -72.45 -326.1 -49.7 -328.0 -31.4 -329.05 -10.65 -328.65 L32.2 -326.6 77.1 -322.2 Q99.55 -319.0 122.05 -315.8 144.35 -312.1 165.3 -307.6 186.25 -303.15 205.0 -298.0 223.65 -292.85 239.15 -287.25 254.65 -281.6 266.05 -275.65 277.4 -269.65 283.7 -263.45 290.0 -257.3 290.35 -251.05 290.5 -245.5 285.85 -238.9 281.15 -232.4 272.6 -225.25 264.05 -218.15 252.4 -210.85 240.75 -203.55 227.0 -196.45 213.2 -189.35 198.15 -182.9 183.05 -176.45 167.6 -171.05 152.1 -165.65 137.1 -161.65 122.05 -157.7 108.35 -155.55 98.3 -154.0 91.05 -149.85 83.75 -145.8 78.35 -139.75 72.9 -133.85 68.35 -126.6 63.9 -119.1 59.45 -111.6 55.0 -103.85 49.7 -96.1 44.45 -88.4 37.35 -81.35 30.3 -74.35 20.6 -68.7 10.85 -63.05 -2.4 -59.35 -15.7 -55.7 -33.4 -54.6 -58.65 -53.3 -81.5 -56.55 -104.4 -59.8 -124.95 -66.8 -145.5 -73.85 -163.6 -83.7 -181.75 -93.6 -197.4 -105.5 -213.1 -117.45 -226.25 -130.55 -239.5 -143.7 -250.15 -157.15 -260.9 -170.55 -268.95 -183.5 -277.1 -196.45 -282.6 -208.05 -288.2 -219.6 -291.05 -228.95 -294.0 -238.35 -294.25 -244.6 M-283.7 -244.5 Q-283.95 -252.85 -277.3 -260.7 -270.7 -268.6 -258.4 -275.85 -246.05 -283.15 -229.05 -289.55 -212.05 -296.0 -191.45 -301.4 -170.9 -306.9 -147.75 -311.2 -124.65 -315.5 -100.05 -318.4 -75.55 -321.3 -50.6 -322.75 -33.2 -323.7 -13.45 -323.35 L27.4 -321.45 70.15 -317.4 Q91.75 -314.9 113.0 -311.45 134.2 -308.05 154.2 -303.85 174.1 -299.65 191.95 -294.85 209.75 -290.1 224.5 -284.8 239.25 -279.6 250.1 -274.0 260.9 -268.4 266.9 -262.65 272.9 -256.85 273.2 -251.0 273.35 -245.8 268.9 -239.65 264.45 -233.6 256.3 -226.9 248.15 -220.25 237.05 -213.35 226.0 -206.55 212.9 -199.9 199.75 -193.25 185.4 -187.2 171.0 -181.2 156.3 -176.1 141.5 -171.05 127.15 -167.25 112.85 -163.55 99.85 -161.55 90.3 -160.05 83.3 -156.2 76.4 -152.35 71.2 -146.75 66.0 -141.15 61.75 -134.4 57.45 -127.7 53.2 -120.4 48.95 -113.1 43.9 -105.9 38.85 -98.7 32.15 -92.1 25.4 -85.5 16.2 -80.2 6.9 -74.9 -5.75 -71.45 -18.4 -68.0 -35.3 -67.0 -59.35 -65.7 -81.15 -68.75 -102.95 -71.8 -122.5 -78.3 -142.1 -84.85 -159.3 -94.05 -176.55 -103.3 -191.5 -114.4 -206.45 -125.6 -219.0 -137.8 -231.55 -150.1 -241.7 -162.65 -251.9 -175.25 -259.6 -187.35 -267.4 -199.45 -272.6 -210.25 -277.9 -221.1 -280.7 -229.85 -283.45 -238.6 -283.7 -244.5;M-294.7 -243.35 Q-295.1 -251.55 -289.85 -259.35 -284.65 -267.15 -274.55 -274.45 -264.45 -281.75 -250.3 -288.35 -236.1 -295.0 -218.6 -300.85 -201.1 -306.7 -181.05 -311.65 -161.0 -316.55 -139.15 -320.45 -117.25 -324.3 -94.4 -327.0 -71.5 -329.65 -48.35 -331.0 -29.8 -332.05 -8.8 -331.65 L34.7 -329.5 80.25 -324.9 Q103.3 -322.0 125.95 -318.15 148.65 -314.25 169.95 -309.55 191.3 -304.85 210.35 -299.45 229.4 -294.05 245.2 -288.15 261.0 -282.2 272.65 -275.95 284.3 -269.65 290.8 -263.15 297.3 -256.65 297.75 -250.1 298.0 -244.25 293.4 -237.35 288.8 -230.5 280.25 -223.0 271.7 -215.5 260.05 -207.85 248.4 -200.15 234.55 -192.7 220.7 -185.25 205.55 -178.5 190.4 -171.7 174.8 -166.0 159.2 -160.35 144.05 -156.15 128.9 -152.0 115.05 -149.75 104.9 -148.1 97.6 -143.75 90.3 -139.45 84.9 -133.15 79.5 -126.9 75.05 -119.3 70.65 -111.75 66.3 -103.55 61.95 -95.4 56.7 -87.25 51.5 -79.15 44.45 -71.75 37.45 -64.4 27.7 -58.45 17.95 -52.5 4.55 -48.6 -8.85 -44.75 -26.8 -43.65 -52.35 -42.25 -75.6 -45.7 -98.85 -49.1 -119.8 -56.45 -140.75 -63.85 -159.3 -74.2 -177.85 -84.6 -193.95 -97.15 -210.1 -109.7 -223.7 -123.45 -237.35 -137.25 -248.4 -151.4 -259.5 -165.5 -267.95 -179.1 -276.45 -192.7 -282.25 -204.9 -288.1 -217.05 -291.2 -226.9 -294.35 -236.75 -294.7 -243.35 M-284.0 -243.2 Q-284.4 -251.95 -277.85 -260.25 -271.3 -268.55 -258.95 -276.15 -246.55 -283.8 -229.45 -290.55 -212.35 -297.35 -191.55 -303.05 -170.8 -308.8 -147.45 -313.3 -124.1 -317.8 -99.25 -320.9 -74.45 -323.95 -49.2 -325.45 -31.55 -326.45 -11.55 -326.1 L29.9 -324.1 73.3 -319.85 Q95.25 -317.2 116.85 -313.6 138.45 -310.0 158.75 -305.6 179.05 -301.2 197.2 -296.15 215.35 -291.15 230.4 -285.6 245.45 -280.1 256.55 -274.25 267.6 -268.35 273.8 -262.3 280.0 -256.2 280.4 -250.05 280.65 -244.6 276.25 -238.15 271.85 -231.75 263.7 -224.7 255.55 -217.7 244.45 -210.5 233.35 -203.3 220.2 -196.35 207.0 -189.35 192.55 -183.0 178.1 -176.65 163.25 -171.35 148.35 -166.0 133.9 -162.05 119.45 -158.15 106.3 -156.05 96.65 -154.45 89.65 -150.4 82.7 -146.35 77.55 -140.5 72.4 -134.6 68.2 -127.5 63.95 -120.45 59.8 -112.8 55.65 -105.1 50.65 -97.55 45.65 -89.95 38.95 -83.05 32.25 -76.1 23.0 -70.55 13.7 -64.95 0.95 -61.35 -11.8 -57.7 -28.95 -56.65 -53.3 -55.3 -75.45 -58.5 -97.6 -61.7 -117.55 -68.55 -137.5 -75.4 -155.15 -85.1 -172.8 -94.8 -188.15 -106.5 -203.5 -118.25 -216.45 -131.1 -229.4 -144.0 -239.95 -157.2 -250.5 -170.4 -258.55 -183.15 -266.65 -195.85 -272.15 -207.2 -277.7 -218.6 -280.7 -227.8 -283.65 -237.0 -284.0 -243.2"/>
    </path>
  </g>
</svg>
