<?xml version="1.0" encoding="UTF-8" standalone="no"?>
<svg xmlns:xlink="http://www.w3.org/1999/xlink" height="32.0px" width="47.05px" xmlns="http://www.w3.org/2000/svg">
  <g transform="matrix(1.0, 0.0, 0.0, 1.0, 23.5, 32.0)">
    <path d="M-23.5 -32.0 Q-17.5 -26.1 -14.65 -21.15 -11.8 -16.2 -11.15 -12.25 -10.5 -8.35 -11.05 -5.65 -11.6 -2.9 -12.45 -1.45 L-13.35 -0.05 -11.95 0.0 -8.95 -0.4 Q-7.25 -0.75 -5.95 -1.85 -4.65 -2.95 -4.6 -5.1 -2.05 -5.05 0.25 -3.95 2.45 -2.8 4.6 -1.65 6.65 -0.45 8.45 -0.05 10.4 -0.25 12.35 -0.4 L17.35 -1.85 Q19.55 -2.65 21.7 -3.4 L23.55 -4.15 23.25 -6.2 Q22.9 -8.2 21.5 -11.4 20.15 -14.55 17.2 -18.1 14.2 -21.65 9.05 -24.8 3.85 -27.95 -4.1 -29.95 -12.1 -31.95 -23.5 -32.0" fill="#000000" fill-rule="evenodd" stroke="none">
      <animate attributeName="fill" dur="2s" repeatCount="indefinite" values="#000000;#000001"/>
      <animate attributeName="fill-opacity" dur="2s" repeatCount="indefinite" values="1.0;1.0"/>
      <animate attributeName="d" dur="2s" repeatCount="indefinite" values="M-23.5 -32.0 Q-17.5 -26.1 -14.65 -21.15 -11.8 -16.2 -11.15 -12.25 -10.5 -8.35 -11.05 -5.65 -11.6 -2.9 -12.45 -1.45 L-13.35 -0.05 -11.95 0.0 -8.95 -0.4 Q-7.25 -0.75 -5.95 -1.85 -4.65 -2.95 -4.6 -5.1 -2.05 -5.05 0.25 -3.95 2.45 -2.8 4.6 -1.65 6.65 -0.45 8.45 -0.05 10.4 -0.25 12.35 -0.4 L17.35 -1.85 Q19.55 -2.65 21.7 -3.4 L23.55 -4.15 23.25 -6.2 Q22.9 -8.2 21.5 -11.4 20.15 -14.55 17.2 -18.1 14.2 -21.65 9.05 -24.8 3.85 -27.95 -4.1 -29.95 -12.1 -31.95 -23.5 -32.0;M-23.5 -32.0 Q-17.5 -26.1 -14.65 -21.15 -11.8 -16.2 -11.15 -12.25 -10.5 -8.35 -11.05 -5.65 -11.6 -2.9 -12.45 -1.45 L-13.35 -0.05 -11.95 0.0 -8.95 -0.4 Q-7.25 -0.75 -5.95 -1.85 -5.15 -2.4 -4.35 -2.95 -0.25 -0.05 1.15 -3.0 2.55 -6.0 5.75 -3.25 8.9 -0.55 9.35 -1.45 9.8 -2.35 12.15 -2.75 L17.2 -2.9 Q19.9 -2.7 21.7 -3.4 L23.55 -4.15 23.25 -6.2 Q22.9 -8.2 21.5 -11.4 20.15 -14.55 17.2 -18.1 14.2 -21.65 9.05 -24.8 3.85 -27.95 -4.1 -29.95 -12.1 -31.95 -23.5 -32.0"/>
    </path>
    <path d="M-23.5 -32.0 Q-12.1 -31.95 -4.1 -29.95 3.85 -27.95 9.05 -24.8 14.2 -21.65 17.2 -18.1 20.15 -14.55 21.5 -11.4 22.9 -8.2 23.25 -6.2 L23.55 -4.15 21.7 -3.4 Q19.55 -2.65 17.35 -1.85 L12.35 -0.4 Q10.4 -0.25 8.45 -0.05 6.65 -0.45 4.6 -1.65 2.45 -2.8 0.25 -3.95 -2.05 -5.05 -4.6 -5.1 -4.65 -2.95 -5.95 -1.85 -7.25 -0.75 -8.95 -0.4 L-11.95 0.0 -13.35 -0.05 -12.45 -1.45 Q-11.6 -2.9 -11.05 -5.65 -10.5 -8.35 -11.15 -12.25 -11.8 -16.2 -14.65 -21.15 -17.5 -26.1 -23.5 -32.0" fill="none" stroke="#000000" stroke-linecap="round" stroke-linejoin="round" stroke-opacity="0.0" stroke-width="1.0">
      <animate attributeName="stroke" dur="2s" repeatCount="indefinite" values="#000000;#000001"/>
      <animate attributeName="stroke-width" dur="2s" repeatCount="indefinite" values="0.0;0.0"/>
      <animate attributeName="fill-opacity" dur="2s" repeatCount="indefinite" values="0.0;0.0"/>
      <animate attributeName="d" dur="2s" repeatCount="indefinite" values="M-23.5 -32.0 Q-12.1 -31.95 -4.1 -29.95 3.85 -27.95 9.05 -24.8 14.2 -21.65 17.2 -18.1 20.15 -14.55 21.5 -11.4 22.9 -8.2 23.25 -6.2 L23.55 -4.15 21.7 -3.4 Q19.55 -2.65 17.35 -1.85 L12.35 -0.4 Q10.4 -0.25 8.45 -0.05 6.65 -0.45 4.6 -1.65 2.45 -2.8 0.25 -3.95 -2.05 -5.05 -4.6 -5.1 -4.65 -2.95 -5.95 -1.85 -7.25 -0.75 -8.95 -0.4 L-11.95 0.0 -13.35 -0.05 -12.45 -1.45 Q-11.6 -2.9 -11.05 -5.65 -10.5 -8.35 -11.15 -12.25 -11.8 -16.2 -14.65 -21.15 -17.5 -26.1 -23.5 -32.0;M-23.5 -32.0 Q-12.1 -31.95 -4.1 -29.95 3.85 -27.95 9.05 -24.8 14.2 -21.65 17.2 -18.1 20.15 -14.55 21.5 -11.4 22.9 -8.2 23.25 -6.2 L23.55 -4.15 21.7 -3.4 Q19.9 -2.7 17.2 -2.9 L12.15 -2.75 Q9.8 -2.35 9.35 -1.45 8.9 -0.55 5.75 -3.25 2.55 -6.0 1.15 -3.0 -0.25 -0.05 -4.35 -2.95 -5.15 -2.4 -5.95 -1.85 -7.25 -0.75 -8.95 -0.4 L-11.95 0.0 -13.35 -0.05 -12.45 -1.45 Q-11.6 -2.9 -11.05 -5.65 -10.5 -8.35 -11.15 -12.25 -11.8 -16.2 -14.65 -21.15 -17.5 -26.1 -23.5 -32.0"/>
    </path>
  </g>
</svg>
