<?xml version="1.0" encoding="UTF-8" standalone="no"?>
<svg xmlns:xlink="http://www.w3.org/1999/xlink" height="10.6px" width="17.4px" xmlns="http://www.w3.org/2000/svg">
  <g transform="matrix(1.0, 0.0, 0.0, 1.0, 12.95, -7.6)">
    <path d="M-0.95 15.5 Q-0.9 16.15 -0.35 16.6 L1.0 17.4 2.6 17.9 3.9 18.15 4.45 18.2 4.2 17.5 3.5 15.95 2.4 14.35 Q1.8 13.6 1.15 13.45 0.45 13.25 -0.3 14.05 -1.0 14.9 -0.95 15.5" fill="#0f3675" fill-rule="evenodd" stroke="none">
      <animate attributeName="fill" dur="2s" repeatCount="indefinite" values="#0f3675;#1e43a7"/>
      <animate attributeName="fill-opacity" dur="2s" repeatCount="indefinite" values="1.0;0.0"/>
      <animate attributeName="d" dur="2s" repeatCount="indefinite" values="M-0.95 15.5 Q-0.9 16.15 -0.35 16.6 L1.0 17.4 2.6 17.9 3.9 18.15 4.45 18.2 4.2 17.5 3.5 15.95 2.4 14.35 Q1.8 13.6 1.15 13.45 0.45 13.25 -0.3 14.05 -1.0 14.9 -0.95 15.5;M-12.95 9.7 Q-12.9 10.35 -12.35 10.8 L-11.0 11.6 -9.4 12.1 -8.1 12.35 -7.55 12.4 -7.8 11.7 -8.5 10.15 -9.6 8.55 Q-10.2 7.8 -10.85 7.65 -11.55 7.45 -12.3 8.25 -13.0 9.1 -12.95 9.7"/>
    </path>
    <path d="M-0.95 15.5 Q-1.0 14.9 -0.3 14.05 0.45 13.25 1.15 13.45 1.8 13.6 2.4 14.35 L3.5 15.95 4.2 17.5 4.45 18.2 3.9 18.15 2.6 17.9 1.0 17.4 -0.35 16.6 Q-0.9 16.15 -0.95 15.5" fill="none" stroke="#000000" stroke-linecap="round" stroke-linejoin="round" stroke-opacity="0.0" stroke-width="1.0">
      <animate attributeName="stroke" dur="2s" repeatCount="indefinite" values="#000000;#000001"/>
      <animate attributeName="stroke-width" dur="2s" repeatCount="indefinite" values="0.0;0.0"/>
      <animate attributeName="fill-opacity" dur="2s" repeatCount="indefinite" values="0.0;0.0"/>
      <animate attributeName="d" dur="2s" repeatCount="indefinite" values="M-0.95 15.5 Q-1.0 14.9 -0.3 14.05 0.45 13.25 1.15 13.45 1.8 13.6 2.4 14.35 L3.5 15.95 4.2 17.5 4.45 18.2 3.9 18.15 2.6 17.9 1.0 17.4 -0.35 16.6 Q-0.9 16.15 -0.95 15.5;M-12.95 9.7 Q-13.0 9.1 -12.3 8.25 -11.55 7.45 -10.85 7.65 -10.2 7.8 -9.6 8.55 L-8.5 10.15 -7.8 11.7 -7.55 12.4 -8.1 12.35 -9.4 12.1 -11.0 11.6 -12.35 10.8 Q-12.9 10.35 -12.95 9.7"/>
    </path>
  </g>
</svg>
