<?xml version="1.0" encoding="UTF-8" standalone="no"?>
<svg xmlns:xlink="http://www.w3.org/1999/xlink" height="2.3px" width="4.3px" xmlns="http://www.w3.org/2000/svg">
  <g transform="matrix(1.0, 0.0, 0.0, 1.0, 1.15, 1.15)">
    <path d="M-1.15 0.0 Q-1.15 0.5 -0.8 0.8 -0.5 1.15 0.0 1.15 L0.8 0.85 1.15 0.0 0.85 -0.8 Q0.5 -1.15 0.0 -1.15 -0.5 -1.15 -0.8 -0.8 -1.15 -0.5 -1.15 0.0" fill="#ffffff" fill-rule="evenodd" stroke="none">
      <animate attributeName="fill" dur="2s" repeatCount="indefinite" values="#ffffff;#ffffff"/>
      <animate attributeName="fill-opacity" dur="2s" repeatCount="indefinite" values="1.0;1.0"/>
      <animate attributeName="d" dur="2s" repeatCount="indefinite" values="M-1.15 0.0 Q-1.15 0.5 -0.8 0.8 -0.5 1.15 0.0 1.15 L0.8 0.85 1.15 0.0 0.85 -0.8 Q0.5 -1.15 0.0 -1.15 -0.5 -1.15 -0.8 -0.8 -1.15 -0.5 -1.15 0.0;M0.85 0.0 Q0.85 0.5 1.2 0.8 1.5 1.15 2.0 1.15 L2.8 0.85 3.15 0.0 2.85 -0.8 Q2.5 -1.15 2.0 -1.15 1.5 -1.15 1.2 -0.8 0.85 -0.5 0.85 0.0"/>
    </path>
    <path d="M-1.15 0.0 Q-1.15 -0.5 -0.8 -0.8 -0.5 -1.15 0.0 -1.15 0.5 -1.15 0.85 -0.8 L1.15 0.0 0.8 0.85 0.0 1.15 Q-0.5 1.15 -0.8 0.8 -1.15 0.5 -1.15 0.0" fill="none" stroke="#000000" stroke-linecap="round" stroke-linejoin="round" stroke-opacity="0.0" stroke-width="1.0">
      <animate attributeName="stroke" dur="2s" repeatCount="indefinite" values="#000000;#000001"/>
      <animate attributeName="stroke-width" dur="2s" repeatCount="indefinite" values="0.0;0.0"/>
      <animate attributeName="fill-opacity" dur="2s" repeatCount="indefinite" values="0.0;0.0"/>
      <animate attributeName="d" dur="2s" repeatCount="indefinite" values="M-1.15 0.0 Q-1.15 -0.5 -0.8 -0.8 -0.5 -1.15 0.0 -1.15 0.5 -1.15 0.85 -0.8 L1.15 0.0 0.8 0.85 0.0 1.15 Q-0.5 1.15 -0.8 0.8 -1.15 0.5 -1.15 0.0;M0.85 0.0 Q0.85 -0.5 1.2 -0.8 1.5 -1.15 2.0 -1.15 2.5 -1.15 2.85 -0.8 L3.15 0.0 2.8 0.85 2.0 1.15 Q1.5 1.15 1.2 0.8 0.85 0.5 0.85 0.0"/>
    </path>
  </g>
</svg>
