<?xml version="1.0" encoding="UTF-8" standalone="no"?>
<svg xmlns:xlink="http://www.w3.org/1999/xlink" height="13.6px" width="4.95px" xmlns="http://www.w3.org/2000/svg">
  <g transform="matrix(1.0, 0.0, 0.0, 1.0, -5.65, -4.6)">
    <path d="M5.7 16.3 L5.7 17.65 5.75 18.2 6.4 17.8 7.8 16.85 9.2 15.5 Q9.8 14.75 9.85 14.05 9.85 13.35 8.95 12.8 8.0 12.25 7.4 12.4 6.8 12.55 6.45 13.2 6.2 13.95 5.95 14.65 5.8 15.5 5.7 16.3" fill="#0f3675" fill-rule="evenodd" stroke="none">
      <animate attributeName="fill" dur="2s" repeatCount="indefinite" values="#0f3675;#1e43a7"/>
      <animate attributeName="fill-opacity" dur="2s" repeatCount="indefinite" values="1.0;0.0"/>
      <animate attributeName="d" dur="2s" repeatCount="indefinite" values="M5.7 16.3 L5.7 17.65 5.75 18.2 6.4 17.8 7.8 16.85 9.2 15.5 Q9.8 14.75 9.85 14.05 9.85 13.35 8.95 12.8 8.0 12.25 7.4 12.4 6.8 12.55 6.45 13.2 6.2 13.95 5.95 14.65 5.8 15.5 5.7 16.3;M6.45 8.55 L6.45 9.9 6.5 10.45 7.15 10.05 8.55 9.1 9.95 7.75 Q10.55 7.0 10.6 6.3 10.6 5.6 9.7 5.05 8.75 4.5 8.15 4.65 7.55 4.8 7.2 5.45 6.85 6.05 6.7 6.9 6.5 7.75 6.45 8.55"/>
    </path>
    <path d="M5.7 16.3 Q5.8 15.5 5.95 14.65 6.2 13.95 6.45 13.2 6.8 12.55 7.4 12.4 8.0 12.25 8.95 12.8 9.85 13.35 9.85 14.05 9.8 14.75 9.2 15.5 L7.8 16.85 6.4 17.8 5.75 18.2 5.7 17.65 5.7 16.3" fill="none" stroke="#000000" stroke-linecap="round" stroke-linejoin="round" stroke-opacity="0.0" stroke-width="1.0">
      <animate attributeName="stroke" dur="2s" repeatCount="indefinite" values="#000000;#000001"/>
      <animate attributeName="stroke-width" dur="2s" repeatCount="indefinite" values="0.0;0.0"/>
      <animate attributeName="fill-opacity" dur="2s" repeatCount="indefinite" values="0.0;0.0"/>
      <animate attributeName="d" dur="2s" repeatCount="indefinite" values="M5.7 16.3 Q5.8 15.5 5.95 14.65 6.2 13.95 6.45 13.2 6.8 12.55 7.4 12.4 8.0 12.25 8.95 12.8 9.85 13.35 9.85 14.05 9.8 14.75 9.2 15.5 L7.8 16.85 6.4 17.8 5.75 18.2 5.7 17.65 5.7 16.3;M6.45 8.55 Q6.5 7.75 6.7 6.9 6.85 6.05 7.2 5.45 7.55 4.8 8.15 4.65 8.75 4.5 9.7 5.05 10.6 5.6 10.6 6.3 10.55 7.0 9.95 7.75 L8.55 9.1 7.15 10.05 6.5 10.45 6.45 9.9 6.45 8.55"/>
    </path>
  </g>
</svg>
