<?xml version="1.0" encoding="UTF-8" standalone="no"?>
<svg xmlns:xlink="http://www.w3.org/1999/xlink" height="4.1px" width="16.75px" xmlns="http://www.w3.org/2000/svg">
  <g transform="matrix(1.0, 0.0, 0.0, 1.0, -7.5, -15.15)">
    <path d="M7.5 18.25 L8.25 18.5 9.85 19.0 11.8 19.25 13.3 18.9 Q13.85 18.45 13.75 17.4 13.6 16.3 13.1 15.95 12.55 15.55 11.85 15.7 11.15 15.8 10.4 16.2 9.6 16.55 9.0 17.05 L7.95 17.85 7.5 18.25" fill="#0f3675" fill-rule="evenodd" stroke="none">
      <animate attributeName="fill" dur="2s" repeatCount="indefinite" values="#0f3675;#1e43a7"/>
      <animate attributeName="fill-opacity" dur="2s" repeatCount="indefinite" values="1.0;0.0"/>
      <animate attributeName="d" dur="2s" repeatCount="indefinite" values="M7.5 18.25 L8.25 18.5 9.85 19.0 11.8 19.25 13.3 18.9 Q13.85 18.45 13.75 17.4 13.6 16.3 13.1 15.95 12.55 15.55 11.85 15.7 11.15 15.8 10.4 16.2 9.6 16.55 9.0 17.05 L7.95 17.85 7.5 18.25;M18.0 17.75 L18.75 18.0 20.35 18.5 22.3 18.75 23.8 18.4 Q24.35 17.95 24.25 16.9 24.1 15.8 23.6 15.45 23.05 15.05 22.35 15.2 21.65 15.3 20.9 15.7 20.2 16.15 19.5 16.55 L18.45 17.35 18.0 17.75"/>
    </path>
    <path d="M7.5 18.25 L7.95 17.85 9.0 17.05 Q9.6 16.55 10.4 16.2 11.15 15.8 11.85 15.7 12.55 15.55 13.1 15.95 13.6 16.3 13.75 17.4 13.85 18.45 13.3 18.9 L11.8 19.25 9.85 19.0 8.25 18.5 7.5 18.25" fill="none" stroke="#000000" stroke-linecap="round" stroke-linejoin="round" stroke-opacity="0.0" stroke-width="1.0">
      <animate attributeName="stroke" dur="2s" repeatCount="indefinite" values="#000000;#000001"/>
      <animate attributeName="stroke-width" dur="2s" repeatCount="indefinite" values="0.0;0.0"/>
      <animate attributeName="fill-opacity" dur="2s" repeatCount="indefinite" values="0.0;0.0"/>
      <animate attributeName="d" dur="2s" repeatCount="indefinite" values="M7.5 18.25 L7.95 17.85 9.0 17.05 Q9.6 16.55 10.4 16.2 11.15 15.8 11.85 15.7 12.55 15.55 13.1 15.95 13.6 16.3 13.75 17.4 13.85 18.45 13.3 18.9 L11.8 19.25 9.85 19.0 8.25 18.5 7.5 18.25;M18.0 17.75 L18.45 17.35 19.5 16.55 Q20.2 16.15 20.9 15.7 21.65 15.3 22.35 15.2 23.05 15.05 23.6 15.45 24.1 15.8 24.25 16.9 24.35 17.95 23.8 18.4 L22.3 18.75 20.35 18.5 18.75 18.0 18.0 17.75"/>
    </path>
  </g>
</svg>
