<?xml version="1.0" encoding="UTF-8" standalone="no"?>
<svg xmlns:xlink="http://www.w3.org/1999/xlink" height="8.1px" width="17.4px" xmlns="http://www.w3.org/2000/svg">
  <g transform="matrix(1.0, 0.0, 0.0, 1.0, 12.95, -7.6)">
    <path d="M-0.95 13.0 Q-0.9 13.65 -0.35 14.1 L1.0 14.9 2.6 15.4 3.9 15.65 4.45 15.7 4.2 15.0 3.5 13.45 2.4 11.85 Q1.8 11.1 1.15 10.95 0.45 10.75 -0.3 11.55 -1.0 12.4 -0.95 13.0" fill="#246ec2" fill-rule="evenodd" stroke="none">
      <animate attributeName="fill" dur="2s" repeatCount="indefinite" values="#246ec2;#1e43a7"/>
      <animate attributeName="fill-opacity" dur="2s" repeatCount="indefinite" values="1.0;0.0"/>
      <animate attributeName="d" dur="2s" repeatCount="indefinite" values="M-0.95 13.0 Q-0.9 13.65 -0.35 14.1 L1.0 14.9 2.6 15.4 3.9 15.65 4.45 15.7 4.2 15.0 3.5 13.45 2.4 11.85 Q1.8 11.1 1.15 10.95 0.45 10.75 -0.3 11.55 -1.0 12.4 -0.95 13.0;M-12.95 9.7 Q-12.9 10.35 -12.35 10.8 L-11.0 11.6 -9.4 12.1 -8.1 12.35 -7.55 12.4 -7.8 11.7 -8.5 10.15 -9.6 8.55 Q-10.2 7.8 -10.85 7.65 -11.55 7.45 -12.3 8.25 -13.0 9.1 -12.95 9.7"/>
    </path>
    <path d="M-0.95 13.0 Q-1.0 12.4 -0.3 11.55 0.45 10.75 1.15 10.95 1.8 11.1 2.4 11.85 L3.5 13.45 4.2 15.0 4.45 15.7 3.9 15.65 2.6 15.4 1.0 14.9 -0.35 14.1 Q-0.9 13.65 -0.95 13.0" fill="none" stroke="#000000" stroke-linecap="round" stroke-linejoin="round" stroke-opacity="0.0" stroke-width="1.0">
      <animate attributeName="stroke" dur="2s" repeatCount="indefinite" values="#000000;#000001"/>
      <animate attributeName="stroke-width" dur="2s" repeatCount="indefinite" values="0.0;0.0"/>
      <animate attributeName="fill-opacity" dur="2s" repeatCount="indefinite" values="0.0;0.0"/>
      <animate attributeName="d" dur="2s" repeatCount="indefinite" values="M-0.95 13.0 Q-1.0 12.4 -0.3 11.55 0.45 10.75 1.15 10.95 1.8 11.1 2.4 11.85 L3.5 13.45 4.2 15.0 4.45 15.7 3.9 15.65 2.6 15.4 1.0 14.9 -0.35 14.1 Q-0.9 13.65 -0.95 13.0;M-12.95 9.7 Q-13.0 9.1 -12.3 8.25 -11.55 7.45 -10.85 7.65 -10.2 7.8 -9.6 8.55 L-8.5 10.15 -7.8 11.7 -7.55 12.4 -8.1 12.35 -9.4 12.1 -11.0 11.6 -12.35 10.8 Q-12.9 10.35 -12.95 9.7"/>
    </path>
  </g>
</svg>
