<?xml version="1.0" encoding="UTF-8" standalone="no"?>
<svg xmlns:xlink="http://www.w3.org/1999/xlink" height="11.1px" width="4.95px" xmlns="http://www.w3.org/2000/svg">
  <g transform="matrix(1.0, 0.0, 0.0, 1.0, -5.65, -4.6)">
    <path d="M5.7 13.8 L5.7 15.15 5.75 15.7 6.4 15.3 7.8 14.35 9.2 13.0 Q9.8 12.25 9.85 11.55 9.85 10.85 8.95 10.3 8.0 9.75 7.4 9.9 6.8 10.05 6.45 10.7 6.2 11.45 5.95 12.15 5.8 13.0 5.7 13.8" fill="#1e43a6" fill-rule="evenodd" stroke="none">
      <animate attributeName="fill" dur="2s" repeatCount="indefinite" values="#1e43a6;#1e43a7"/>
      <animate attributeName="fill-opacity" dur="2s" repeatCount="indefinite" values="1.0;0.0"/>
      <animate attributeName="d" dur="2s" repeatCount="indefinite" values="M5.7 13.8 L5.7 15.15 5.75 15.7 6.4 15.3 7.8 14.35 9.2 13.0 Q9.8 12.25 9.85 11.55 9.85 10.85 8.95 10.3 8.0 9.75 7.4 9.9 6.8 10.05 6.45 10.7 6.2 11.45 5.95 12.15 5.8 13.0 5.7 13.8;M6.45 8.55 L6.45 9.9 6.5 10.45 7.15 10.05 8.55 9.1 9.95 7.75 Q10.55 7.0 10.6 6.3 10.6 5.6 9.7 5.05 8.75 4.5 8.15 4.65 7.55 4.8 7.2 5.45 6.85 6.05 6.7 6.9 6.5 7.75 6.45 8.55"/>
    </path>
    <path d="M5.7 13.8 Q5.8 13.0 5.95 12.15 6.2 11.45 6.45 10.7 6.8 10.05 7.4 9.9 8.0 9.75 8.95 10.3 9.85 10.85 9.85 11.55 9.8 12.25 9.2 13.0 L7.8 14.35 6.4 15.3 5.75 15.7 5.7 15.15 5.7 13.8" fill="none" stroke="#000000" stroke-linecap="round" stroke-linejoin="round" stroke-opacity="0.0" stroke-width="1.0">
      <animate attributeName="stroke" dur="2s" repeatCount="indefinite" values="#000000;#000001"/>
      <animate attributeName="stroke-width" dur="2s" repeatCount="indefinite" values="0.0;0.0"/>
      <animate attributeName="fill-opacity" dur="2s" repeatCount="indefinite" values="0.0;0.0"/>
      <animate attributeName="d" dur="2s" repeatCount="indefinite" values="M5.7 13.8 Q5.8 13.0 5.95 12.15 6.2 11.45 6.45 10.7 6.8 10.05 7.4 9.9 8.0 9.75 8.95 10.3 9.85 10.85 9.85 11.55 9.8 12.25 9.2 13.0 L7.8 14.35 6.4 15.3 5.75 15.7 5.7 15.15 5.7 13.8;M6.45 8.55 Q6.5 7.75 6.7 6.9 6.85 6.05 7.2 5.45 7.55 4.8 8.15 4.65 8.75 4.5 9.7 5.05 10.6 5.6 10.6 6.3 10.55 7.0 9.95 7.75 L8.55 9.1 7.15 10.05 6.5 10.45 6.45 9.9 6.45 8.55"/>
    </path>
  </g>
</svg>
