<?xml version="1.0" encoding="UTF-8" standalone="no"?>
<svg xmlns:xlink="http://www.w3.org/1999/xlink" height="74.35px" width="53.95px" xmlns="http://www.w3.org/2000/svg">
  <g transform="matrix(1.0, 0.0, 0.0, 1.0, 26.95, 51.85)">
    <path d="M-2.1 21.65 L0.25 20.7 2.2 22.25 0.7 17.0 -1.2 16.95 -2.1 21.65 M-26.7 -22.25 Q-26.1 -7.1 -17.6 4.65 -9.1 16.35 0.05 17.0 0.15 17.0 0.25 17.0 9.55 16.3 17.85 4.65 26.2 -7.1 26.75 -22.25 26.45 -36.85 18.95 -44.2 11.4 -51.6 0.05 -51.6 -11.3 -51.55 -18.85 -44.2 -26.4 -36.85 -26.7 -22.25" fill="#ff0000" fill-rule="evenodd" stroke="none">
      <animate attributeName="fill" dur="2s" repeatCount="indefinite" values="#ff0000;#ff0001"/>
      <animate attributeName="fill-opacity" dur="2s" repeatCount="indefinite" values="1.0;1.0"/>
      <animate attributeName="d" dur="2s" repeatCount="indefinite" values="M-2.1 21.65 L0.25 20.7 2.2 22.25 0.7 17.0 -1.2 16.95 -2.1 21.65 M-26.7 -22.25 Q-26.1 -7.1 -17.6 4.65 -9.1 16.35 0.05 17.0 0.15 17.0 0.25 17.0 9.55 16.3 17.85 4.65 26.2 -7.1 26.75 -22.25 26.45 -36.85 18.95 -44.2 11.4 -51.6 0.05 -51.6 -11.3 -51.55 -18.85 -44.2 -26.4 -36.85 -26.7 -22.25;M-2.1 21.65 L0.25 20.7 2.2 22.25 0.7 17.0 -1.2 16.95 -2.1 21.65 M-2.25 -48.7 Q-3.35 -46.6 -1.1 -28.0 1.1 -9.4 -1.05 3.5 -3.25 16.35 0.05 17.0 0.15 17.0 0.25 17.0 3.1 16.3 2.35 6.6 1.6 -3.1 2.75 -23.5 2.2 -35.75 3.35 -43.1 4.45 -50.45 1.7 -50.6 -1.1 -50.8 -2.25 -48.7"/>
    </path>
    <path d="M-26.7 -22.25 Q-26.4 -36.85 -18.85 -44.2 -11.3 -51.55 0.05 -51.6 11.4 -51.6 18.95 -44.2 26.45 -36.85 26.75 -22.25 26.2 -7.1 17.85 4.65 9.55 16.3 0.25 17.0 L0.7 17.0 2.2 22.25 Q-0.9 21.2 -2.1 21.65 L-1.2 16.95 Q-0.6 16.95 0.05 17.0 -9.1 16.35 -17.6 4.65 -26.1 -7.1 -26.7 -22.25 -26.4 -36.85 -18.85 -44.2 -11.3 -51.55 0.05 -51.6 11.4 -51.6 18.95 -44.2 26.45 -36.85 26.75 -22.25 26.2 -7.1 17.85 4.65 9.55 16.3 0.25 17.0 0.15 17.0 0.05 17.0 -9.1 16.35 -17.6 4.65 -26.1 -7.1 -26.7 -22.25 M-2.1 21.65 L-1.2 16.95 0.7 17.0 2.2 22.25 0.25 20.7 -2.1 21.65" fill="none" stroke="#000000" stroke-linecap="round" stroke-linejoin="round" stroke-width="0.55">
      <animate attributeName="stroke" dur="2s" repeatCount="indefinite" values="#000000;#000001"/>
      <animate attributeName="stroke-width" dur="2s" repeatCount="indefinite" values="0.55;0.55"/>
      <animate attributeName="fill-opacity" dur="2s" repeatCount="indefinite" values="1.0;1.0"/>
      <animate attributeName="d" dur="2s" repeatCount="indefinite" values="M-26.7 -22.25 Q-26.4 -36.85 -18.85 -44.2 -11.3 -51.55 0.05 -51.6 11.4 -51.6 18.95 -44.2 26.45 -36.85 26.75 -22.25 26.2 -7.1 17.85 4.65 9.55 16.3 0.25 17.0 L0.7 17.0 2.2 22.25 Q-0.9 21.2 -2.1 21.65 L-1.2 16.95 Q-0.6 16.95 0.05 17.0 -9.1 16.35 -17.6 4.65 -26.1 -7.1 -26.7 -22.25 -26.4 -36.85 -18.85 -44.2 -11.3 -51.55 0.05 -51.6 11.4 -51.6 18.95 -44.2 26.45 -36.85 26.75 -22.25 26.2 -7.1 17.85 4.65 9.55 16.3 0.25 17.0 0.15 17.0 0.05 17.0 -9.1 16.35 -17.6 4.65 -26.1 -7.1 -26.7 -22.25 M-2.1 21.65 L-1.2 16.95 0.7 17.0 2.2 22.25 0.25 20.7 -2.1 21.65;M-2.25 -48.7 Q-1.1 -50.8 1.7 -50.6 4.45 -50.45 3.35 -43.1 2.2 -35.75 2.75 -23.5 1.6 -3.1 2.35 6.6 3.1 16.3 0.25 17.0 0.45 17.0 0.7 17.0 L2.2 22.25 0.25 20.7 Q-1.65 19.3 -1.2 16.95 L0.05 17.0 Q-3.25 16.35 -1.05 3.5 1.1 -9.4 -1.1 -28.0 -3.35 -46.6 -2.25 -48.7 -1.1 -50.8 1.7 -50.6 4.45 -50.45 3.35 -43.1 2.2 -35.75 2.75 -23.5 1.6 -3.1 2.35 6.6 3.1 16.3 0.25 17.0 0.15 17.0 0.05 17.0 -3.25 16.35 -1.05 3.5 1.1 -9.4 -1.1 -28.0 -3.35 -46.6 -2.25 -48.7 M-2.1 21.65 L-1.2 16.95 0.7 17.0 2.2 22.25 0.25 20.7 -2.1 21.65"/>
    </path>
  </g>
</svg>
