<?xml version="1.0" encoding="UTF-8" standalone="no"?>
<svg xmlns:xlink="http://www.w3.org/1999/xlink" height="408.15px" width="609.55px" xmlns="http://www.w3.org/2000/svg">
  <g transform="matrix(1.0, 0.0, 0.0, 1.0, 4.2, 4.55)">
    <path d="M0.75 48.05 L0.75 351.2 Q1.35 357.55 7.7 358.15 L592.95 358.15 Q599.3 357.55 599.9 351.2 L599.9 48.05 Q599.3 41.65 592.95 41.05 L7.7 41.05 Q1.35 41.65 0.75 48.05 M-4.2 2.4 L-4.2 396.15 Q-3.6 402.5 2.75 403.1 L30.9 403.15 104.6 403.2 207.75 403.3 324.15 403.4 437.75 403.5 595.9 403.6 Q603.0 403.1 604.35 399.05 605.65 395.0 605.3 394.5 L604.85 2.4 Q604.35 -3.95 597.9 -4.55 L2.75 -4.55 Q-3.6 -3.95 -4.2 2.4" fill="#ffffff" fill-rule="evenodd" stroke="none">
      <animate attributeName="fill" dur="2s" repeatCount="indefinite" values="#ffffff;#ffffff"/>
      <animate attributeName="fill-opacity" dur="2s" repeatCount="indefinite" values="1.0;1.0"/>
      <animate attributeName="d" dur="2s" repeatCount="indefinite" values="M0.75 48.05 L0.75 351.2 Q1.35 357.55 7.7 358.15 L592.95 358.15 Q599.3 357.55 599.9 351.2 L599.9 48.05 Q599.3 41.65 592.95 41.05 L7.7 41.05 Q1.35 41.65 0.75 48.05 M-4.2 2.4 L-4.2 396.15 Q-3.6 402.5 2.75 403.1 L30.9 403.15 104.6 403.2 207.75 403.3 324.15 403.4 437.75 403.5 595.9 403.6 Q603.0 403.1 604.35 399.05 605.65 395.0 605.3 394.5 L604.85 2.4 Q604.35 -3.95 597.9 -4.55 L2.75 -4.55 Q-3.6 -3.95 -4.2 2.4;M0.75 8.05 L0.75 391.2 Q1.35 397.55 7.7 398.15 L592.95 398.15 Q599.3 397.55 599.9 391.2 L599.9 8.05 Q599.3 1.65 592.95 1.05 L7.7 1.05 Q1.35 1.65 0.75 8.05 M-4.2 2.4 L-4.2 396.15 Q-3.6 402.5 2.75 403.1 L30.9 403.15 104.6 403.2 207.75 403.3 324.15 403.4 437.75 403.5 595.9 403.6 Q603.0 403.1 604.35 399.05 605.65 395.0 605.3 394.5 L604.85 2.4 Q604.35 -3.95 597.9 -4.55 L2.75 -4.55 Q-3.6 -3.95 -4.2 2.4"/>
    </path>
    <path d="M-4.2 2.4 Q-3.6 -3.95 2.75 -4.55 L597.9 -4.55 Q604.35 -3.95 604.85 2.4 L605.3 394.5 Q605.65 395.0 604.35 399.05 603.0 403.1 595.9 403.6 L437.75 403.5 324.15 403.4 207.75 403.3 104.6 403.2 30.9 403.15 2.75 403.1 Q-3.6 402.5 -4.2 396.15 L-4.2 2.4 M0.75 48.05 Q1.35 41.65 7.7 41.05 L592.95 41.05 Q599.3 41.65 599.9 48.05 L599.9 351.2 Q599.3 357.55 592.95 358.15 L7.7 358.15 Q1.35 357.55 0.75 351.2 L0.75 48.05" fill="none" stroke="#000000" stroke-linecap="round" stroke-linejoin="round" stroke-opacity="0.0" stroke-width="1.0">
      <animate attributeName="stroke" dur="2s" repeatCount="indefinite" values="#000000;#000001"/>
      <animate attributeName="stroke-width" dur="2s" repeatCount="indefinite" values="0.0;0.0"/>
      <animate attributeName="fill-opacity" dur="2s" repeatCount="indefinite" values="0.0;0.0"/>
      <animate attributeName="d" dur="2s" repeatCount="indefinite" values="M-4.2 2.4 Q-3.6 -3.95 2.75 -4.55 L597.9 -4.55 Q604.35 -3.95 604.85 2.4 L605.3 394.5 Q605.65 395.0 604.35 399.05 603.0 403.1 595.9 403.6 L437.75 403.5 324.15 403.4 207.75 403.3 104.6 403.2 30.9 403.15 2.75 403.1 Q-3.6 402.5 -4.2 396.15 L-4.2 2.4 M0.75 48.05 Q1.35 41.65 7.7 41.05 L592.95 41.05 Q599.3 41.65 599.9 48.05 L599.9 351.2 Q599.3 357.55 592.95 358.15 L7.7 358.15 Q1.35 357.55 0.75 351.2 L0.75 48.05;M-4.2 2.4 Q-3.6 -3.95 2.75 -4.55 L597.9 -4.55 Q604.35 -3.95 604.85 2.4 L605.3 394.5 Q605.65 395.0 604.35 399.05 603.0 403.1 595.9 403.6 L437.75 403.5 324.15 403.4 207.75 403.3 104.6 403.2 30.9 403.15 2.75 403.1 Q-3.6 402.5 -4.2 396.15 L-4.2 2.4 M0.75 8.05 Q1.35 1.65 7.7 1.05 L592.95 1.05 Q599.3 1.65 599.9 8.05 L599.9 391.2 Q599.3 397.55 592.95 398.15 L7.7 398.15 Q1.35 397.55 0.75 391.2 L0.75 8.05"/>
    </path>
  </g>
</svg>
