<?xml version="1.0" encoding="UTF-8" standalone="no"?>
<svg xmlns:xlink="http://www.w3.org/1999/xlink" height="50.6px" width="25.2px" xmlns="http://www.w3.org/2000/svg">
  <g transform="matrix(1.0, 0.0, 0.0, 1.0, 13.1, 56.05)">
    <path d="M-9.25 -28.7 Q-9.7 -27.3 -8.65 -27.45 L-7.25 -28.0 -4.85 -23.75 -5.35 -16.55 -5.6 -15.95 -7.1 -13.5 Q-7.3 -11.7 -6.0 -13.25 L-5.55 -13.95 -5.55 -13.25 -5.35 -12.7 Q-4.9 -12.25 -4.15 -13.4 L-3.4 -21.2 -2.1 -18.95 -2.45 -16.1 -2.4 -15.55 Q-2.05 -14.85 -1.25 -16.05 L-1.1 -17.0 -0.9 -16.65 Q-0.2 -16.35 0.2 -16.95 L0.5 -17.55 0.4 -18.2 -3.25 -24.8 -2.45 -35.55 Q-2.65 -36.8 -3.8 -35.65 L-4.2 -34.05 Q-4.8 -35.05 -5.45 -34.25 L-5.55 -32.95 -4.25 -31.15 -4.7 -27.5 -7.15 -31.85 Q-7.65 -32.15 -8.15 -29.65 L-9.25 -28.7 M-12.5 -36.9 L-8.55 -7.55 -7.75 -8.3 -7.4 -8.6 -7.0 -9.25 -5.9 -10.0 -5.4 -10.1 -3.25 -11.75 Q-2.85 -11.75 -2.5 -12.0 L-2.4 -12.1 -2.0 -12.4 -1.6 -12.75 -0.3 -13.7 0.35 -14.1 0.35 -14.1 4.0 -16.6 7.35 -18.6 8.05 -19.1 Q9.15 -20.0 10.25 -20.85 L10.75 -20.85 10.85 -21.0 12.1 -21.85 12.0 -23.05 9.45 -56.05 8.85 -55.55 -12.5 -36.9 M-1.95 -28.6 L-1.95 -28.55 -0.2 -27.65 -0.2 -27.65 -1.45 -25.2 0.7 -25.5 Q0.2 -24.2 -0.3 -22.95 2.75 -20.75 6.25 -24.55 9.75 -28.35 9.5 -34.4 9.65 -40.7 6.85 -41.6 4.05 -42.55 0.65 -39.05 -2.75 -35.6 -0.15 -30.6 L-1.95 -28.6 M2.25 -35.25 Q0.8 -30.5 2.8 -30.9 5.05 -32.3 4.85 -38.5 3.4 -38.15 2.25 -35.25 M2.75 -28.8 Q1.95 -25.75 3.95 -25.1 6.15 -25.2 6.6 -28.4 L5.1 -31.05 Q3.25 -30.8 2.75 -28.8" fill="#000000" fill-rule="evenodd" stroke="none">
      <animate attributeName="fill" dur="2s" repeatCount="indefinite" values="#000000;#000001"/>
      <animate attributeName="fill-opacity" dur="2s" repeatCount="indefinite" values="1.0;1.0"/>
      <animate attributeName="d" dur="2s" repeatCount="indefinite" values="M-9.25 -28.7 Q-9.7 -27.3 -8.65 -27.45 L-7.25 -28.0 -4.85 -23.75 -5.35 -16.55 -5.6 -15.95 -7.1 -13.5 Q-7.3 -11.7 -6.0 -13.25 L-5.55 -13.95 -5.55 -13.25 -5.35 -12.7 Q-4.9 -12.25 -4.15 -13.4 L-3.4 -21.2 -2.1 -18.95 -2.45 -16.1 -2.4 -15.55 Q-2.05 -14.85 -1.25 -16.05 L-1.1 -17.0 -0.9 -16.65 Q-0.2 -16.35 0.2 -16.95 L0.5 -17.55 0.4 -18.2 -3.25 -24.8 -2.45 -35.55 Q-2.65 -36.8 -3.8 -35.65 L-4.2 -34.05 Q-4.8 -35.05 -5.45 -34.25 L-5.55 -32.95 -4.25 -31.15 -4.7 -27.5 -7.15 -31.85 Q-7.65 -32.15 -8.15 -29.65 L-9.25 -28.7 M-12.5 -36.9 L-8.55 -7.55 -7.75 -8.3 -7.4 -8.6 -7.0 -9.25 -5.9 -10.0 -5.4 -10.1 -3.25 -11.75 Q-2.85 -11.75 -2.5 -12.0 L-2.4 -12.1 -2.0 -12.4 -1.6 -12.75 -0.3 -13.7 0.35 -14.1 0.35 -14.1 4.0 -16.6 7.35 -18.6 8.05 -19.1 Q9.15 -20.0 10.25 -20.85 L10.75 -20.85 10.85 -21.0 12.1 -21.85 12.0 -23.05 9.45 -56.05 8.85 -55.55 -12.5 -36.9 M-1.95 -28.6 L-1.95 -28.55 -0.2 -27.65 -0.2 -27.65 -1.45 -25.2 0.7 -25.5 Q0.2 -24.2 -0.3 -22.95 2.75 -20.75 6.25 -24.55 9.75 -28.35 9.5 -34.4 9.65 -40.7 6.85 -41.6 4.05 -42.55 0.65 -39.05 -2.75 -35.6 -0.15 -30.6 L-1.95 -28.6 M2.25 -35.25 Q0.8 -30.5 2.8 -30.9 5.05 -32.3 4.85 -38.5 3.4 -38.15 2.25 -35.25 M2.75 -28.8 Q1.95 -25.75 3.95 -25.1 6.15 -25.2 6.6 -28.4 L5.1 -31.05 Q3.25 -30.8 2.75 -28.8;M-10.35 -29.0 Q-10.9 -27.65 -9.8 -27.75 L-8.35 -28.25 -6.25 -23.95 -7.2 -16.8 -7.45 -16.2 -9.15 -13.75 Q-9.45 -12.0 -8.05 -13.5 L-7.55 -14.2 -7.65 -13.45 -7.45 -12.9 Q-7.0 -12.45 -6.2 -13.55 L-5.0 -21.35 -3.85 -19.0 -4.3 -16.2 -4.35 -15.65 Q-4.0 -14.95 -3.15 -16.15 L-2.95 -17.05 -2.75 -16.7 Q-2.1 -16.35 -1.65 -16.95 L-1.3 -17.55 -1.35 -18.2 -4.6 -24.9 -3.15 -35.65 Q-3.25 -36.9 -4.45 -35.8 L-4.95 -34.2 Q-5.5 -35.25 -6.2 -34.45 L-6.4 -33.15 -5.2 -31.3 -5.9 -27.65 -8.05 -32.1 Q-8.5 -32.45 -9.15 -29.95 L-10.35 -29.0 M-13.1 -37.35 L-10.9 -6.55 -10.8 -5.45 -10.5 -5.95 -10.0 -6.7 -9.25 -7.65 -8.95 -8.05 -6.5 -9.95 Q-6.2 -10.15 -5.9 -10.35 L-5.7 -10.45 -5.4 -10.6 -5.15 -11.0 -3.4 -11.6 -2.9 -12.25 -2.9 -12.25 1.3 -14.25 5.0 -16.0 5.8 -16.8 Q6.95 -17.55 8.0 -18.4 L8.4 -18.7 8.6 -18.8 9.6 -19.6 10.55 -20.4 10.05 -54.9 10.05 -55.75 -13.1 -37.35 M-3.05 -28.65 L-1.4 -27.7 -1.4 -27.65 -2.75 -25.3 -0.6 -25.5 -1.75 -22.95 Q1.15 -20.7 4.85 -24.35 8.55 -28.0 8.75 -34.05 9.3 -40.35 6.55 -41.4 3.8 -42.45 0.2 -39.05 -3.4 -35.7 -2.5 -31.9 -2.3 -31.85 -3.05 -28.65 L-3.05 -28.65 M1.55 -35.2 Q-0.2 -30.45 1.85 -30.8 4.15 -32.1 4.35 -38.35 2.9 -38.05 1.55 -35.2 M1.65 -28.7 Q0.65 -25.7 2.6 -24.95 4.8 -25.0 5.45 -28.15 L4.15 -30.9 Q2.25 -30.7 1.65 -28.7"/>
    </path>
    <path d="M-9.25 -28.7 Q-9.7 -27.3 -8.65 -27.45 L-7.25 -28.0 -4.85 -23.75 -5.35 -16.55 -5.6 -15.95 -7.1 -13.5 Q-7.3 -11.7 -6.0 -13.25 L-5.55 -13.95 -5.55 -13.25 -5.35 -12.7 Q-4.9 -12.25 -4.15 -13.4 L-3.4 -21.2 -2.1 -18.95 -2.45 -16.1 -2.4 -15.55 Q-2.05 -14.85 -1.25 -16.05 L-1.1 -17.0 -0.9 -16.65 Q-0.2 -16.35 0.2 -16.95 L0.5 -17.55 0.4 -18.2 -3.25 -24.8 -2.45 -35.55 Q-2.65 -36.8 -3.8 -35.65 L-4.2 -34.05 Q-4.8 -35.05 -5.45 -34.25 L-5.55 -32.95 -4.25 -31.15 -4.7 -27.5 -7.15 -31.85 Q-7.65 -32.15 -8.15 -29.65 L-9.25 -28.7 M2.25 -35.25 Q0.8 -30.5 2.8 -30.9 5.05 -32.3 4.85 -38.5 3.4 -38.15 2.25 -35.25 M-1.95 -28.6 L-1.95 -28.55 -0.2 -27.65 -1.45 -25.2 0.7 -25.5 -0.3 -22.95 Q2.75 -20.75 6.25 -24.55 9.75 -28.35 9.5 -34.4 9.65 -40.7 6.85 -41.6 4.05 -42.55 0.65 -39.05 -2.75 -35.6 -0.15 -30.6 L-1.95 -28.6 M2.75 -28.8 Q1.95 -25.75 3.95 -25.1 6.15 -25.2 6.6 -28.4 L5.1 -31.05 Q3.25 -30.8 2.75 -28.8" fill="#ebebeb" fill-rule="evenodd" stroke="none">
      <animate attributeName="fill" dur="2s" repeatCount="indefinite" values="#ebebeb;#cccccd"/>
      <animate attributeName="fill-opacity" dur="2s" repeatCount="indefinite" values="1.0;1.0"/>
      <animate attributeName="d" dur="2s" repeatCount="indefinite" values="M-9.25 -28.7 Q-9.7 -27.3 -8.65 -27.45 L-7.25 -28.0 -4.85 -23.75 -5.35 -16.55 -5.6 -15.95 -7.1 -13.5 Q-7.3 -11.7 -6.0 -13.25 L-5.55 -13.95 -5.55 -13.25 -5.35 -12.7 Q-4.9 -12.25 -4.15 -13.4 L-3.4 -21.2 -2.1 -18.95 -2.45 -16.1 -2.4 -15.55 Q-2.05 -14.85 -1.25 -16.05 L-1.1 -17.0 -0.9 -16.65 Q-0.2 -16.35 0.2 -16.95 L0.5 -17.55 0.4 -18.2 -3.25 -24.8 -2.45 -35.55 Q-2.65 -36.8 -3.8 -35.65 L-4.2 -34.05 Q-4.8 -35.05 -5.45 -34.25 L-5.55 -32.95 -4.25 -31.15 -4.7 -27.5 -7.15 -31.85 Q-7.65 -32.15 -8.15 -29.65 L-9.25 -28.7 M2.25 -35.25 Q0.8 -30.5 2.8 -30.9 5.05 -32.3 4.85 -38.5 3.4 -38.15 2.25 -35.25 M-1.95 -28.6 L-1.95 -28.55 -0.2 -27.65 -1.45 -25.2 0.7 -25.5 -0.3 -22.95 Q2.75 -20.75 6.25 -24.55 9.75 -28.35 9.5 -34.4 9.65 -40.7 6.85 -41.6 4.05 -42.55 0.65 -39.05 -2.75 -35.6 -0.15 -30.6 L-1.95 -28.6 M2.75 -28.8 Q1.95 -25.75 3.95 -25.1 6.15 -25.2 6.6 -28.4 L5.1 -31.05 Q3.25 -30.8 2.75 -28.8;M-10.35 -29.0 Q-10.9 -27.65 -9.8 -27.75 L-8.35 -28.25 -6.25 -23.95 -7.2 -16.8 -7.45 -16.2 -9.15 -13.75 Q-9.45 -12.0 -8.05 -13.5 L-7.55 -14.2 -7.65 -13.45 -7.45 -12.9 Q-7.0 -12.45 -6.2 -13.55 L-5.0 -21.35 -3.85 -19.0 -4.3 -16.2 -4.35 -15.65 Q-4.0 -14.95 -3.15 -16.15 L-2.95 -17.05 -2.75 -16.7 Q-2.1 -16.35 -1.65 -16.95 L-1.3 -17.55 -1.35 -18.2 -4.6 -24.9 -3.15 -35.65 Q-3.25 -36.9 -4.45 -35.8 L-4.95 -34.2 Q-5.5 -35.25 -6.2 -34.45 L-6.4 -33.15 -5.2 -31.3 -5.9 -27.65 -8.05 -32.1 Q-8.5 -32.45 -9.15 -29.95 L-10.35 -29.0 M1.55 -35.2 Q-0.2 -30.45 1.85 -30.8 4.15 -32.1 4.35 -38.35 2.9 -38.05 1.55 -35.2 M-3.05 -28.65 L-3.05 -28.65 -1.4 -27.65 -2.75 -25.3 -0.6 -25.5 -1.75 -22.95 Q1.15 -20.7 4.85 -24.35 8.55 -28.0 8.75 -34.05 9.3 -40.35 6.55 -41.4 3.8 -42.45 0.2 -39.05 -3.4 -35.7 -1.15 -30.6 L-3.05 -28.65 M1.65 -28.7 Q0.65 -25.7 2.6 -24.95 4.8 -25.0 5.45 -28.15 L4.15 -30.9 Q2.25 -30.7 1.65 -28.7"/>
    </path>
    <path d="M-12.5 -36.9 L8.85 -55.55 9.45 -56.05 12.0 -23.05 12.1 -21.85 10.85 -21.0 10.75 -20.85 10.25 -20.85 Q9.15 -20.0 8.05 -19.1 L7.35 -18.6 4.0 -16.6 0.35 -14.1 0.35 -14.1 -0.3 -13.7 -1.6 -12.75 -2.0 -12.4 -2.4 -12.1 -2.5 -12.0 Q-2.85 -11.75 -3.25 -11.75 L-5.4 -10.1 -5.9 -10.0 -7.0 -9.25 -7.4 -8.6 -7.75 -8.3 -8.55 -7.55 -12.5 -36.9 M-9.25 -28.7 L-8.15 -29.65 Q-7.65 -32.15 -7.15 -31.85 L-4.7 -27.5 -4.25 -31.15 -5.55 -32.95 -5.45 -34.25 Q-4.8 -35.05 -4.2 -34.05 L-3.8 -35.65 Q-2.65 -36.8 -2.45 -35.55 L-3.25 -24.8 0.4 -18.2 0.5 -17.55 0.2 -16.95 Q-0.2 -16.35 -0.9 -16.65 L-1.1 -17.0 -1.25 -16.05 Q-2.05 -14.85 -2.4 -15.55 L-2.45 -16.1 -2.1 -18.95 -3.4 -21.2 -4.15 -13.4 Q-4.9 -12.25 -5.35 -12.7 L-5.55 -13.25 -5.55 -13.95 -6.0 -13.25 Q-7.3 -11.7 -7.1 -13.5 L-5.6 -15.95 -5.35 -16.55 -4.85 -23.75 -7.25 -28.0 -8.65 -27.45 Q-9.7 -27.3 -9.25 -28.7 L-8.15 -29.65 Q-7.65 -32.15 -7.15 -31.85 L-4.7 -27.5 -4.25 -31.15 -5.55 -32.95 -5.45 -34.25 Q-4.8 -35.05 -4.2 -34.05 L-3.8 -35.65 Q-2.65 -36.8 -2.45 -35.55 L-3.25 -24.8 0.4 -18.2 0.5 -17.55 0.2 -16.95 Q-0.2 -16.35 -0.9 -16.65 L-1.1 -17.0 -1.25 -16.05 Q-2.05 -14.85 -2.4 -15.55 L-2.45 -16.1 -2.1 -18.95 -3.4 -21.2 -4.15 -13.4 Q-4.9 -12.25 -5.35 -12.7 L-5.55 -13.25 -5.55 -13.95 -6.0 -13.25 Q-7.3 -11.7 -7.1 -13.5 L-5.6 -15.95 -5.35 -16.55 -4.85 -23.75 -7.25 -28.0 -8.65 -27.45 Q-9.7 -27.3 -9.25 -28.7 M-1.95 -28.6 L-0.15 -30.6 Q-2.75 -35.6 0.65 -39.05 4.05 -42.55 6.85 -41.6 9.65 -40.7 9.5 -34.4 9.75 -28.35 6.25 -24.55 2.75 -20.75 -0.3 -22.95 0.2 -24.2 0.7 -25.5 L-1.45 -25.2 -0.2 -27.65 -0.2 -27.65 -1.95 -28.55 -1.95 -28.6 -0.15 -30.6 Q-2.75 -35.6 0.65 -39.05 4.05 -42.55 6.85 -41.6 9.65 -40.7 9.5 -34.4 9.75 -28.35 6.25 -24.55 2.75 -20.75 -0.3 -22.95 L0.7 -25.5 -1.45 -25.2 -0.2 -27.65 -1.95 -28.55 -1.95 -28.6 M2.25 -35.25 Q3.4 -38.15 4.85 -38.5 5.05 -32.3 2.8 -30.9 0.8 -30.5 2.25 -35.25 3.4 -38.15 4.85 -38.5 5.05 -32.3 2.8 -30.9 0.8 -30.5 2.25 -35.25 M2.75 -28.8 Q3.25 -30.8 5.1 -31.05 L6.6 -28.4 Q6.15 -25.2 3.95 -25.1 1.95 -25.75 2.75 -28.8 3.25 -30.8 5.1 -31.05 L6.6 -28.4 Q6.15 -25.2 3.95 -25.1 1.95 -25.75 2.75 -28.8" fill="none" stroke="#000000" stroke-linecap="round" stroke-linejoin="round" stroke-opacity="0.0" stroke-width="1.0">
      <animate attributeName="stroke" dur="2s" repeatCount="indefinite" values="#000000;#000001"/>
      <animate attributeName="stroke-width" dur="2s" repeatCount="indefinite" values="0.0;0.0"/>
      <animate attributeName="fill-opacity" dur="2s" repeatCount="indefinite" values="0.0;0.0"/>
      <animate attributeName="d" dur="2s" repeatCount="indefinite" values="M-12.5 -36.9 L8.85 -55.55 9.45 -56.05 12.0 -23.05 12.1 -21.85 10.85 -21.0 10.75 -20.85 10.25 -20.85 Q9.15 -20.0 8.05 -19.1 L7.35 -18.6 4.0 -16.6 0.35 -14.1 0.35 -14.1 -0.3 -13.7 -1.6 -12.75 -2.0 -12.4 -2.4 -12.1 -2.5 -12.0 Q-2.85 -11.75 -3.25 -11.75 L-5.4 -10.1 -5.9 -10.0 -7.0 -9.25 -7.4 -8.6 -7.75 -8.3 -8.55 -7.55 -12.5 -36.9 M-9.25 -28.7 L-8.15 -29.65 Q-7.65 -32.15 -7.15 -31.85 L-4.7 -27.5 -4.25 -31.15 -5.55 -32.95 -5.45 -34.25 Q-4.8 -35.05 -4.2 -34.05 L-3.8 -35.65 Q-2.65 -36.8 -2.45 -35.55 L-3.25 -24.8 0.4 -18.2 0.5 -17.55 0.2 -16.95 Q-0.2 -16.35 -0.9 -16.65 L-1.1 -17.0 -1.25 -16.05 Q-2.05 -14.85 -2.4 -15.55 L-2.45 -16.1 -2.1 -18.95 -3.4 -21.2 -4.15 -13.4 Q-4.9 -12.25 -5.35 -12.7 L-5.55 -13.25 -5.55 -13.95 -6.0 -13.25 Q-7.3 -11.7 -7.1 -13.5 L-5.6 -15.95 -5.35 -16.55 -4.85 -23.75 -7.25 -28.0 -8.65 -27.45 Q-9.7 -27.3 -9.25 -28.7 L-8.15 -29.65 Q-7.65 -32.15 -7.15 -31.85 L-4.7 -27.5 -4.25 -31.15 -5.55 -32.95 -5.45 -34.25 Q-4.8 -35.05 -4.2 -34.05 L-3.8 -35.65 Q-2.65 -36.8 -2.45 -35.55 L-3.25 -24.8 0.4 -18.2 0.5 -17.55 0.2 -16.95 Q-0.2 -16.35 -0.9 -16.65 L-1.1 -17.0 -1.25 -16.05 Q-2.05 -14.85 -2.4 -15.55 L-2.45 -16.1 -2.1 -18.95 -3.4 -21.2 -4.15 -13.4 Q-4.9 -12.25 -5.35 -12.7 L-5.55 -13.25 -5.55 -13.95 -6.0 -13.25 Q-7.3 -11.7 -7.1 -13.5 L-5.6 -15.95 -5.35 -16.55 -4.85 -23.75 -7.25 -28.0 -8.65 -27.45 Q-9.7 -27.3 -9.25 -28.7 M-1.95 -28.6 L-0.15 -30.6 Q-2.75 -35.6 0.65 -39.05 4.05 -42.55 6.85 -41.6 9.65 -40.7 9.5 -34.4 9.75 -28.35 6.25 -24.55 2.75 -20.75 -0.3 -22.95 0.2 -24.2 0.7 -25.5 L-1.45 -25.2 -0.2 -27.65 -0.2 -27.65 -1.95 -28.55 -1.95 -28.6 -0.15 -30.6 Q-2.75 -35.6 0.65 -39.05 4.05 -42.55 6.85 -41.6 9.65 -40.7 9.5 -34.4 9.75 -28.35 6.25 -24.55 2.75 -20.75 -0.3 -22.95 L0.7 -25.5 -1.45 -25.2 -0.2 -27.65 -1.95 -28.55 -1.95 -28.6 M2.25 -35.25 Q3.4 -38.15 4.85 -38.5 5.05 -32.3 2.8 -30.9 0.8 -30.5 2.25 -35.25 3.4 -38.15 4.85 -38.5 5.05 -32.3 2.8 -30.9 0.8 -30.5 2.25 -35.25 M2.75 -28.8 Q3.25 -30.8 5.1 -31.05 L6.6 -28.4 Q6.15 -25.2 3.95 -25.1 1.95 -25.75 2.75 -28.8 3.25 -30.8 5.1 -31.05 L6.6 -28.4 Q6.15 -25.2 3.95 -25.1 1.95 -25.75 2.75 -28.8;M-13.1 -37.35 L10.05 -55.75 10.05 -54.9 10.55 -20.4 9.6 -19.6 8.6 -18.8 8.4 -18.7 8.0 -18.4 Q6.95 -17.55 5.8 -16.8 L5.0 -16.0 1.3 -14.25 -2.9 -12.25 -2.9 -12.25 -3.4 -11.6 -5.15 -11.0 -5.4 -10.6 -5.7 -10.45 -5.9 -10.35 Q-6.2 -10.15 -6.5 -9.95 L-8.95 -8.05 -9.25 -7.65 -10.0 -6.7 -10.5 -5.95 -10.8 -5.45 -10.9 -6.55 -13.1 -37.35 M-10.35 -29.0 L-9.15 -29.95 Q-8.5 -32.45 -8.05 -32.1 L-5.9 -27.65 -5.2 -31.3 -6.4 -33.15 -6.2 -34.45 Q-5.5 -35.25 -4.95 -34.2 L-4.45 -35.8 Q-3.25 -36.9 -3.15 -35.65 L-4.6 -24.9 -1.35 -18.2 -1.3 -17.55 -1.65 -16.95 Q-2.1 -16.35 -2.75 -16.7 L-2.95 -17.05 -3.15 -16.15 Q-4.0 -14.95 -4.35 -15.65 L-4.3 -16.2 -3.85 -19.0 -5.0 -21.35 -6.2 -13.55 Q-7.0 -12.45 -7.45 -12.9 L-7.65 -13.45 -7.55 -14.2 -8.05 -13.5 Q-9.45 -12.0 -9.15 -13.75 L-7.45 -16.2 -7.2 -16.8 -6.25 -23.95 -8.35 -28.25 -9.8 -27.75 Q-10.9 -27.65 -10.35 -29.0 L-9.15 -29.95 Q-8.5 -32.45 -8.05 -32.1 L-5.9 -27.65 -5.2 -31.3 -6.4 -33.15 -6.2 -34.45 Q-5.5 -35.25 -4.95 -34.2 L-4.45 -35.8 Q-3.25 -36.9 -3.15 -35.65 L-4.6 -24.9 -1.35 -18.2 -1.3 -17.55 -1.65 -16.95 Q-2.1 -16.35 -2.75 -16.7 L-2.95 -17.05 -3.15 -16.15 Q-4.0 -14.95 -4.35 -15.65 L-4.3 -16.2 -3.85 -19.0 -5.0 -21.35 -6.2 -13.55 Q-7.0 -12.45 -7.45 -12.9 L-7.65 -13.45 -7.55 -14.2 -8.05 -13.5 Q-9.45 -12.0 -9.15 -13.75 L-7.45 -16.2 -7.2 -16.8 -6.25 -23.95 -8.35 -28.25 -9.8 -27.75 Q-10.9 -27.65 -10.35 -29.0 M-3.05 -28.65 L-3.05 -28.65 Q-2.3 -31.85 -2.5 -31.9 -3.4 -35.7 0.2 -39.05 3.8 -42.45 6.55 -41.4 9.3 -40.35 8.75 -34.05 8.55 -28.0 4.85 -24.35 1.15 -20.7 -1.75 -22.95 L-0.6 -25.5 -2.75 -25.3 -1.4 -27.65 -1.4 -27.7 -3.05 -28.65 -1.15 -30.6 Q-3.4 -35.7 0.2 -39.05 3.8 -42.45 6.55 -41.4 9.3 -40.35 8.75 -34.05 8.55 -28.0 4.85 -24.35 1.15 -20.7 -1.75 -22.95 L-0.6 -25.5 -2.75 -25.3 -1.4 -27.65 -3.05 -28.65 -3.05 -28.65 M1.55 -35.2 Q2.9 -38.05 4.35 -38.35 4.15 -32.1 1.85 -30.8 -0.2 -30.45 1.55 -35.2 2.9 -38.05 4.35 -38.35 4.15 -32.1 1.85 -30.8 -0.2 -30.45 1.55 -35.2 M1.65 -28.7 Q2.25 -30.7 4.15 -30.9 L5.45 -28.15 Q4.8 -25.0 2.6 -24.95 0.65 -25.7 1.65 -28.7 2.25 -30.7 4.15 -30.9 L5.45 -28.15 Q4.8 -25.0 2.6 -24.95 0.65 -25.7 1.65 -28.7"/>
    </path>
  </g>
</svg>
