<?xml version="1.0" encoding="UTF-8" standalone="no"?>
<svg xmlns:xlink="http://www.w3.org/1999/xlink" height="21.85px" width="21.1px" xmlns="http://www.w3.org/2000/svg">
  <g transform="matrix(1.0, 0.0, 0.0, 1.0, 10.55, 21.85)">
    <path d="M-10.55 -7.55 L-10.55 -7.45 -9.55 0.0 Q-9.45 0.05 -9.3 -0.65 L-8.95 -2.75 Q-8.2 -4.9 -7.4 -5.15 L-6.9 -5.1 Q-6.1 -5.05 -4.85 -1.1 L-4.8 -1.05 -4.65 -1.55 -4.65 -1.65 Q-5.0 -5.55 -4.95 -8.05 -4.85 -8.95 -4.8 -9.8 -4.35 -11.05 -3.7 -10.0 L-3.7 -9.9 -3.1 -8.15 -2.6 -5.55 -2.6 -5.45 Q-1.95 -7.5 -1.35 -9.5 L-0.9 -10.3 Q-0.35 -11.05 1.75 -9.9 L2.45 -9.45 2.45 -9.85 2.4 -11.1 Q2.95 -13.0 5.15 -11.4 L5.7 -13.45 Q6.35 -15.35 6.95 -17.2 7.6 -18.8 8.0 -19.2 L8.5 -19.05 Q9.2 -18.45 10.55 -15.75 L10.3 -18.55 10.2 -20.15 10.2 -20.45 10.2 -21.05 10.1 -21.85 8.85 -21.0 8.75 -20.85 8.25 -20.85 Q6.25 -19.1 3.85 -17.65 L2.0 -16.6 Q0.75 -15.9 -0.45 -15.0 L-1.65 -14.1 -3.55 -12.75 -3.75 -12.65 Q-4.1 -12.35 -4.4 -12.1 L-4.4 -12.0 -4.5 -12.0 Q-4.85 -11.75 -5.25 -11.75 L-7.0 -10.4 -7.4 -10.1 -7.5 -10.1 -7.9 -10.0 -8.8 -9.35 -9.0 -9.25 -9.3 -8.7 -9.4 -8.6 -10.55 -7.55" fill="#000000" fill-rule="evenodd" stroke="none">
      <animate attributeName="fill" dur="2s" repeatCount="indefinite" values="#000000;#000001"/>
      <animate attributeName="fill-opacity" dur="2s" repeatCount="indefinite" values="1.0;1.0"/>
      <animate attributeName="d" dur="2s" repeatCount="indefinite" values="M-10.55 -7.55 L-10.55 -7.45 -9.55 0.0 Q-9.45 0.05 -9.3 -0.65 L-8.95 -2.75 Q-8.2 -4.9 -7.4 -5.15 L-6.9 -5.1 Q-6.1 -5.05 -4.85 -1.1 L-4.8 -1.05 -4.65 -1.55 -4.65 -1.65 Q-5.0 -5.55 -4.95 -8.05 -4.85 -8.95 -4.8 -9.8 -4.35 -11.05 -3.7 -10.0 L-3.7 -9.9 -3.1 -8.15 -2.6 -5.55 -2.6 -5.45 Q-1.95 -7.5 -1.35 -9.5 L-0.9 -10.3 Q-0.35 -11.05 1.75 -9.9 L2.45 -9.45 2.45 -9.85 2.4 -11.1 Q2.95 -13.0 5.15 -11.4 L5.7 -13.45 Q6.35 -15.35 6.95 -17.2 7.6 -18.8 8.0 -19.2 L8.5 -19.05 Q9.2 -18.45 10.55 -15.75 L10.3 -18.55 10.2 -20.15 10.2 -20.45 10.2 -21.05 10.1 -21.85 8.85 -21.0 8.75 -20.85 8.25 -20.85 Q6.25 -19.1 3.85 -17.65 L2.0 -16.6 Q0.75 -15.9 -0.45 -15.0 L-1.65 -14.1 -3.55 -12.75 -3.75 -12.65 Q-4.1 -12.35 -4.4 -12.1 L-4.4 -12.0 -4.5 -12.0 Q-4.85 -11.75 -5.25 -11.75 L-7.0 -10.4 -7.4 -10.1 -7.5 -10.1 -7.9 -10.0 -8.8 -9.35 -9.0 -9.25 -9.3 -8.7 -9.4 -8.6 -10.55 -7.55;M-10.55 -7.55 L-10.55 -7.55 -7.75 -1.5 Q-7.6 -1.15 -7.45 -0.8 L-7.5 -2.7 Q-7.4 -4.3 -6.9 -5.1 L-6.55 -4.95 Q-5.65 -4.4 -3.95 -1.85 L-3.95 -1.85 -3.65 -2.25 -3.65 -2.35 Q-5.15 -7.05 -4.4 -7.95 -4.0 -9.7 -3.65 -9.35 -3.3 -9.0 -3.1 -8.15 L-3.0 -8.05 -1.7 -7.3 0.2 -6.1 0.1 -6.25 Q-1.5 -9.8 0.35 -9.0 L0.25 -9.85 Q1.35 -9.9 2.45 -9.95 L2.4 -10.75 2.4 -11.1 2.9 -11.85 Q3.75 -12.6 5.9 -12.65 L7.55 -12.55 Q7.35 -15.45 8.1 -15.95 9.15 -15.9 10.15 -15.9 L10.55 -15.75 Q10.4 -17.55 10.3 -19.35 L10.1 -21.85 8.85 -21.0 8.75 -20.85 8.25 -20.85 7.55 -20.25 6.6 -19.55 6.4 -19.4 6.1 -19.15 Q4.2 -17.75 2.0 -16.6 L0.5 -15.65 Q-0.6 -14.85 -1.65 -14.1 L-2.75 -13.35 -4.4 -12.1 -4.5 -12.0 Q-4.8 -11.8 -5.15 -11.75 L-5.25 -11.75 -5.35 -11.65 Q-5.6 -11.45 -5.85 -11.3 L-7.4 -10.1 -7.8 -10.0 -7.9 -10.0 -8.2 -9.8 -9.0 -9.25 -9.1 -9.05 -9.4 -8.6 -9.55 -8.5 -10.55 -7.55"/>
    </path>
    <path d="M-10.55 -7.55 L-9.4 -8.6 -9.3 -8.7 -9.0 -9.25 -8.8 -9.35 -7.9 -10.0 -7.5 -10.1 -7.4 -10.1 -7.0 -10.4 -5.25 -11.75 Q-4.85 -11.75 -4.5 -12.0 L-4.4 -12.0 -4.4 -12.1 Q-4.1 -12.35 -3.75 -12.65 L-3.55 -12.75 -1.65 -14.1 -0.45 -15.0 Q0.75 -15.9 2.0 -16.6 L3.85 -17.65 Q6.25 -19.1 8.25 -20.85 L8.75 -20.85 8.85 -21.0 10.1 -21.85 10.2 -21.05 10.2 -20.45 10.2 -20.15 10.3 -18.55 10.55 -15.75 Q9.2 -18.45 8.5 -19.05 L8.0 -19.2 Q7.6 -18.8 6.95 -17.2 6.35 -15.35 5.7 -13.45 L5.15 -11.4 Q2.95 -13.0 2.4 -11.1 L2.45 -9.85 2.45 -9.45 1.75 -9.9 Q-0.35 -11.05 -0.9 -10.3 L-1.35 -9.5 Q-1.95 -7.5 -2.6 -5.45 L-2.6 -5.55 -3.1 -8.15 -3.7 -9.9 -3.7 -10.0 Q-4.35 -11.05 -4.8 -9.8 -4.85 -8.95 -4.95 -8.05 -5.0 -5.55 -4.65 -1.65 L-4.65 -1.55 -4.8 -1.05 -4.85 -1.1 Q-6.1 -5.05 -6.9 -5.1 L-7.4 -5.15 Q-8.2 -4.9 -8.95 -2.75 L-9.3 -0.65 Q-9.45 0.05 -9.55 0.0 L-10.55 -7.45 -10.55 -7.55" fill="none" stroke="#000000" stroke-linecap="round" stroke-linejoin="round" stroke-opacity="0.0" stroke-width="1.0">
      <animate attributeName="stroke" dur="2s" repeatCount="indefinite" values="#000000;#000001"/>
      <animate attributeName="stroke-width" dur="2s" repeatCount="indefinite" values="0.0;0.0"/>
      <animate attributeName="fill-opacity" dur="2s" repeatCount="indefinite" values="0.0;0.0"/>
      <animate attributeName="d" dur="2s" repeatCount="indefinite" values="M-10.55 -7.55 L-9.4 -8.6 -9.3 -8.7 -9.0 -9.25 -8.8 -9.35 -7.9 -10.0 -7.5 -10.1 -7.4 -10.1 -7.0 -10.4 -5.25 -11.75 Q-4.85 -11.75 -4.5 -12.0 L-4.4 -12.0 -4.4 -12.1 Q-4.1 -12.35 -3.75 -12.65 L-3.55 -12.75 -1.65 -14.1 -0.45 -15.0 Q0.75 -15.9 2.0 -16.6 L3.85 -17.65 Q6.25 -19.1 8.25 -20.85 L8.75 -20.85 8.85 -21.0 10.1 -21.85 10.2 -21.05 10.2 -20.45 10.2 -20.15 10.3 -18.55 10.55 -15.75 Q9.2 -18.45 8.5 -19.05 L8.0 -19.2 Q7.6 -18.8 6.95 -17.2 6.35 -15.35 5.7 -13.45 L5.15 -11.4 Q2.95 -13.0 2.4 -11.1 L2.45 -9.85 2.45 -9.45 1.75 -9.9 Q-0.35 -11.05 -0.9 -10.3 L-1.35 -9.5 Q-1.95 -7.5 -2.6 -5.45 L-2.6 -5.55 -3.1 -8.15 -3.7 -9.9 -3.7 -10.0 Q-4.35 -11.05 -4.8 -9.8 -4.85 -8.95 -4.95 -8.05 -5.0 -5.55 -4.65 -1.65 L-4.65 -1.55 -4.8 -1.05 -4.85 -1.1 Q-6.1 -5.05 -6.9 -5.1 L-7.4 -5.15 Q-8.2 -4.9 -8.95 -2.75 L-9.3 -0.65 Q-9.45 0.05 -9.55 0.0 L-10.55 -7.45 -10.55 -7.55;M-10.55 -7.55 L-9.55 -8.5 -9.4 -8.6 -9.1 -9.05 -9.0 -9.25 -8.2 -9.8 -7.9 -10.0 -7.8 -10.0 -7.4 -10.1 -5.85 -11.3 Q-5.6 -11.45 -5.35 -11.65 L-5.25 -11.75 -5.15 -11.75 Q-4.8 -11.8 -4.5 -12.0 L-4.4 -12.1 -2.75 -13.35 -1.65 -14.1 Q-0.6 -14.85 0.5 -15.65 L2.0 -16.6 Q4.2 -17.75 6.1 -19.15 L6.4 -19.4 6.6 -19.55 7.55 -20.25 8.25 -20.85 8.75 -20.85 8.85 -21.0 10.1 -21.85 10.3 -19.35 Q10.4 -17.55 10.55 -15.75 L10.15 -15.9 Q9.15 -15.9 8.1 -15.95 7.35 -15.45 7.55 -12.55 L5.9 -12.65 Q3.75 -12.6 2.9 -11.85 L2.4 -11.1 2.4 -10.75 2.45 -9.95 Q1.35 -9.9 0.25 -9.85 L0.35 -9.0 Q-1.5 -9.8 0.1 -6.25 L0.2 -6.1 -1.7 -7.3 -3.0 -8.05 -3.1 -8.15 Q-3.3 -9.0 -3.65 -9.35 -4.0 -9.7 -4.4 -7.95 -5.15 -7.05 -3.65 -2.35 L-3.65 -2.25 -3.95 -1.85 -3.95 -1.85 Q-5.65 -4.4 -6.55 -4.95 L-6.9 -5.1 Q-7.4 -4.3 -7.5 -2.7 L-7.45 -0.8 Q-7.6 -1.15 -7.75 -1.5 L-10.55 -7.55 -10.55 -7.55"/>
    </path>
  </g>
</svg>
