<?xml version="1.0" encoding="UTF-8" standalone="no"?>
<svg xmlns:xlink="http://www.w3.org/1999/xlink" height="51.2px" width="26.3px" xmlns="http://www.w3.org/2000/svg">
  <g transform="matrix(1.0, 0.0, 0.0, 1.0, 12.5, 56.05)">
    <path d="M-9.25 -28.7 Q-9.7 -27.3 -8.65 -27.45 L-7.25 -28.0 -4.85 -23.75 -5.35 -16.55 -5.6 -15.95 -7.1 -13.5 Q-7.3 -11.7 -6.0 -13.25 L-5.55 -13.95 -5.55 -13.25 -5.35 -12.7 Q-4.9 -12.25 -4.15 -13.4 L-3.4 -21.2 -2.1 -18.95 -2.45 -16.1 -2.4 -15.55 Q-2.05 -14.85 -1.25 -16.05 L-1.1 -17.0 -0.9 -16.65 Q-0.2 -16.35 0.2 -16.95 L0.5 -17.55 0.4 -18.2 -3.25 -24.8 -2.45 -35.55 Q-2.65 -36.8 -3.8 -35.65 L-4.2 -34.05 Q-4.8 -35.05 -5.45 -34.25 L-5.55 -32.95 -4.25 -31.15 -4.7 -27.5 -7.15 -31.85 Q-7.65 -32.15 -8.15 -29.65 L-9.25 -28.7 M-12.5 -36.9 L-12.5 -36.9 -8.7 -8.6 -5.55 -10.8 -4.6 -11.35 Q-2.3 -12.65 0.25 -13.5 L0.85 -13.55 1.35 -13.7 Q2.3 -13.95 3.25 -14.35 L3.5 -14.75 Q4.0 -14.7 4.3 -14.95 L4.6 -15.5 Q5.85 -16.05 6.9 -16.8 L9.8 -18.95 9.9 -19.15 10.0 -19.2 10.2 -19.25 12.2 -20.6 12.05 -22.5 9.45 -56.05 7.25 -54.15 -12.5 -36.9 M-1.95 -28.6 L-1.95 -28.55 -0.2 -27.65 -1.45 -25.2 0.7 -25.5 -0.3 -22.95 Q2.75 -20.75 6.25 -24.55 9.75 -28.35 9.5 -34.4 9.65 -40.7 6.85 -41.6 4.05 -42.55 0.65 -39.05 -2.75 -35.6 -0.15 -30.6 L-1.95 -28.6 M2.25 -35.25 Q0.8 -30.5 2.8 -30.9 5.05 -32.3 4.85 -38.5 3.4 -38.15 2.25 -35.25 M2.75 -28.8 Q1.95 -25.75 3.95 -25.1 6.15 -25.2 6.6 -28.4 L5.1 -31.05 Q3.25 -30.8 2.75 -28.8" fill="#000000" fill-rule="evenodd" stroke="none">
      <animate attributeName="fill" dur="2s" repeatCount="indefinite" values="#000000;#000001"/>
      <animate attributeName="fill-opacity" dur="2s" repeatCount="indefinite" values="1.0;1.0"/>
      <animate attributeName="d" dur="2s" repeatCount="indefinite" values="M-9.25 -28.7 Q-9.7 -27.3 -8.65 -27.45 L-7.25 -28.0 -4.85 -23.75 -5.35 -16.55 -5.6 -15.95 -7.1 -13.5 Q-7.3 -11.7 -6.0 -13.25 L-5.55 -13.95 -5.55 -13.25 -5.35 -12.7 Q-4.9 -12.25 -4.15 -13.4 L-3.4 -21.2 -2.1 -18.95 -2.45 -16.1 -2.4 -15.55 Q-2.05 -14.85 -1.25 -16.05 L-1.1 -17.0 -0.9 -16.65 Q-0.2 -16.35 0.2 -16.95 L0.5 -17.55 0.4 -18.2 -3.25 -24.8 -2.45 -35.55 Q-2.65 -36.8 -3.8 -35.65 L-4.2 -34.05 Q-4.8 -35.05 -5.45 -34.25 L-5.55 -32.95 -4.25 -31.15 -4.7 -27.5 -7.15 -31.85 Q-7.65 -32.15 -8.15 -29.65 L-9.25 -28.7 M-12.5 -36.9 L-12.5 -36.9 -8.7 -8.6 -5.55 -10.8 -4.6 -11.35 Q-2.3 -12.65 0.25 -13.5 L0.85 -13.55 1.35 -13.7 Q2.3 -13.95 3.25 -14.35 L3.5 -14.75 Q4.0 -14.7 4.3 -14.95 L4.6 -15.5 Q5.85 -16.05 6.9 -16.8 L9.8 -18.95 9.9 -19.15 10.0 -19.2 10.2 -19.25 12.2 -20.6 12.05 -22.5 9.45 -56.05 7.25 -54.15 -12.5 -36.9 M-1.95 -28.6 L-1.95 -28.55 -0.2 -27.65 -1.45 -25.2 0.7 -25.5 -0.3 -22.95 Q2.75 -20.75 6.25 -24.55 9.75 -28.35 9.5 -34.4 9.65 -40.7 6.85 -41.6 4.05 -42.55 0.65 -39.05 -2.75 -35.6 -0.15 -30.6 L-1.95 -28.6 M2.25 -35.25 Q0.8 -30.5 2.8 -30.9 5.05 -32.3 4.85 -38.5 3.4 -38.15 2.25 -35.25 M2.75 -28.8 Q1.95 -25.75 3.95 -25.1 6.15 -25.2 6.6 -28.4 L5.1 -31.05 Q3.25 -30.8 2.75 -28.8;M-8.4 -29.55 Q-8.8 -28.2 -7.7 -28.25 L-6.35 -28.65 -3.75 -24.2 -3.85 -17.1 -4.05 -16.55 -5.45 -14.15 Q-5.55 -12.4 -4.35 -13.8 L-3.9 -14.5 -3.9 -13.8 -3.7 -13.25 Q-3.2 -12.75 -2.5 -13.8 L-2.15 -21.55 -0.7 -19.15 -0.9 -16.35 -0.85 -15.8 Q-0.45 -15.1 0.25 -16.25 L0.4 -17.15 0.6 -16.8 Q1.3 -16.4 1.7 -17.0 L1.95 -17.55 1.85 -18.25 -2.15 -25.15 -1.95 -35.8 Q-2.2 -37.1 -3.3 -36.05 L-3.6 -34.45 Q-4.25 -35.5 -4.9 -34.75 L-4.9 -33.5 -3.5 -31.55 -3.8 -27.95 -6.45 -32.5 Q-7.0 -32.85 -7.35 -30.4 L-8.4 -29.55 M-12.1 -38.05 L-12.1 -37.95 -6.7 -8.75 -6.0 -4.85 -4.95 -5.7 Q-2.65 -7.25 -0.4 -8.8 L0.0 -9.1 0.35 -9.5 Q1.4 -9.75 2.3 -10.15 L2.7 -10.35 Q2.95 -10.5 3.2 -10.6 L3.8 -10.95 Q5.1 -11.75 6.4 -12.5 L9.55 -14.7 9.75 -14.8 10.15 -15.0 10.25 -15.1 12.15 -16.5 13.8 -17.7 9.35 -52.3 8.95 -55.3 -12.1 -38.05 M-1.1 -28.85 L-1.1 -28.8 0.7 -27.75 -0.4 -25.4 1.75 -25.5 0.9 -23.0 Q4.05 -20.6 7.35 -24.05 10.65 -27.5 10.1 -33.6 9.95 -39.9 7.1 -41.05 4.2 -42.25 1.0 -39.05 -2.2 -35.9 0.6 -30.65 L-1.1 -28.85 M2.8 -35.1 Q1.6 -30.45 3.6 -30.7 5.75 -31.9 5.2 -38.1 3.8 -37.9 2.8 -35.1 M3.65 -28.6 Q3.0 -25.6 5.05 -24.8 7.2 -24.7 7.5 -27.85 L5.9 -30.65 Q4.05 -30.55 3.65 -28.6"/>
    </path>
    <path d="M-9.25 -28.7 Q-9.7 -27.3 -8.65 -27.45 L-7.25 -28.0 -4.85 -23.75 -5.35 -16.55 -5.6 -15.95 -7.1 -13.5 Q-7.3 -11.7 -6.0 -13.25 L-5.55 -13.95 -5.55 -13.25 -5.35 -12.7 Q-4.9 -12.25 -4.15 -13.4 L-3.4 -21.2 -2.1 -18.95 -2.45 -16.1 -2.4 -15.55 Q-2.05 -14.85 -1.25 -16.05 L-1.1 -17.0 -0.9 -16.65 Q-0.2 -16.35 0.2 -16.95 L0.5 -17.55 0.4 -18.2 -3.25 -24.8 -2.45 -35.55 Q-2.65 -36.8 -3.8 -35.65 L-4.2 -34.05 Q-4.8 -35.05 -5.45 -34.25 L-5.55 -32.95 -4.25 -31.15 -4.7 -27.5 -7.15 -31.85 Q-7.65 -32.15 -8.15 -29.65 L-9.25 -28.7 M2.25 -35.25 Q0.8 -30.5 2.8 -30.9 5.05 -32.3 4.85 -38.5 3.4 -38.15 2.25 -35.25 M-1.95 -28.6 L-1.95 -28.55 -0.2 -27.65 -1.45 -25.2 0.7 -25.5 -0.3 -22.95 Q2.75 -20.75 6.25 -24.55 9.75 -28.35 9.5 -34.4 9.65 -40.7 6.85 -41.6 4.05 -42.55 0.65 -39.05 -2.75 -35.6 -0.15 -30.6 L-1.95 -28.6 M2.75 -28.8 Q1.95 -25.75 3.95 -25.1 6.15 -25.2 6.6 -28.4 L5.1 -31.05 Q3.25 -30.8 2.75 -28.8" fill="#ebebeb" fill-rule="evenodd" stroke="none">
      <animate attributeName="fill" dur="2s" repeatCount="indefinite" values="#ebebeb;#ffffff"/>
      <animate attributeName="fill-opacity" dur="2s" repeatCount="indefinite" values="1.0;1.0"/>
      <animate attributeName="d" dur="2s" repeatCount="indefinite" values="M-9.25 -28.7 Q-9.7 -27.3 -8.65 -27.45 L-7.25 -28.0 -4.85 -23.75 -5.35 -16.55 -5.6 -15.95 -7.1 -13.5 Q-7.3 -11.7 -6.0 -13.25 L-5.55 -13.95 -5.55 -13.25 -5.35 -12.7 Q-4.9 -12.25 -4.15 -13.4 L-3.4 -21.2 -2.1 -18.95 -2.45 -16.1 -2.4 -15.55 Q-2.05 -14.85 -1.25 -16.05 L-1.1 -17.0 -0.9 -16.65 Q-0.2 -16.35 0.2 -16.95 L0.5 -17.55 0.4 -18.2 -3.25 -24.8 -2.45 -35.55 Q-2.65 -36.8 -3.8 -35.65 L-4.2 -34.05 Q-4.8 -35.05 -5.45 -34.25 L-5.55 -32.95 -4.25 -31.15 -4.7 -27.5 -7.15 -31.85 Q-7.65 -32.15 -8.15 -29.65 L-9.25 -28.7 M2.25 -35.25 Q0.8 -30.5 2.8 -30.9 5.05 -32.3 4.85 -38.5 3.4 -38.15 2.25 -35.25 M-1.95 -28.6 L-1.95 -28.55 -0.2 -27.65 -1.45 -25.2 0.7 -25.5 -0.3 -22.95 Q2.75 -20.75 6.25 -24.55 9.75 -28.35 9.5 -34.4 9.65 -40.7 6.85 -41.6 4.05 -42.55 0.65 -39.05 -2.75 -35.6 -0.15 -30.6 L-1.95 -28.6 M2.75 -28.8 Q1.95 -25.75 3.95 -25.1 6.15 -25.2 6.6 -28.4 L5.1 -31.05 Q3.25 -30.8 2.75 -28.8;M-8.4 -29.55 Q-8.8 -28.2 -7.7 -28.25 L-6.35 -28.65 -3.75 -24.2 -3.85 -17.1 -4.05 -16.55 -5.45 -14.15 Q-5.55 -12.4 -4.35 -13.8 L-3.9 -14.5 -3.9 -13.8 -3.7 -13.25 Q-3.2 -12.75 -2.5 -13.8 L-2.15 -21.55 -0.7 -19.15 -0.9 -16.35 -0.85 -15.8 Q-0.45 -15.1 0.25 -16.25 L0.4 -17.15 0.6 -16.8 Q1.3 -16.4 1.7 -17.0 L1.95 -17.55 1.85 -18.25 -2.15 -25.15 -1.95 -35.8 Q-2.2 -37.1 -3.3 -36.05 L-3.6 -34.45 Q-4.25 -35.5 -4.9 -34.75 L-4.9 -33.5 -3.5 -31.55 -3.8 -27.95 -6.45 -32.5 Q-7.0 -32.85 -7.35 -30.4 L-8.4 -29.55 M2.8 -35.1 Q1.6 -30.45 3.6 -30.7 5.75 -31.9 5.2 -38.1 3.8 -37.9 2.8 -35.1 M-1.1 -28.85 L-1.1 -28.8 0.7 -27.75 -0.4 -25.4 1.75 -25.5 0.9 -23.0 Q4.05 -20.6 7.35 -24.05 10.65 -27.5 10.1 -33.6 9.95 -39.9 7.1 -41.05 4.2 -42.25 1.0 -39.05 -2.2 -35.9 0.6 -30.65 L-1.1 -28.85 M3.65 -28.6 Q3.0 -25.6 5.05 -24.8 7.2 -24.7 7.5 -27.85 L5.9 -30.65 Q4.05 -30.55 3.65 -28.6"/>
    </path>
    <path d="M-12.5 -36.9 L7.25 -54.15 9.45 -56.05 12.05 -22.5 12.2 -20.6 10.2 -19.25 10.0 -19.2 9.9 -19.15 9.8 -18.95 6.9 -16.8 Q5.85 -16.05 4.6 -15.5 L4.3 -14.95 Q4.0 -14.7 3.5 -14.75 L3.25 -14.35 Q2.3 -13.95 1.35 -13.7 L0.85 -13.55 0.25 -13.5 Q-2.3 -12.65 -4.6 -11.35 L-5.55 -10.8 -8.7 -8.6 -12.5 -36.9 -12.5 -36.9 M-9.25 -28.7 L-8.15 -29.65 Q-7.65 -32.15 -7.15 -31.85 L-4.7 -27.5 -4.25 -31.15 -5.55 -32.95 -5.45 -34.25 Q-4.8 -35.05 -4.2 -34.05 L-3.8 -35.65 Q-2.65 -36.8 -2.45 -35.55 L-3.25 -24.8 0.4 -18.2 0.5 -17.55 0.2 -16.95 Q-0.2 -16.35 -0.9 -16.65 L-1.1 -17.0 -1.25 -16.05 Q-2.05 -14.85 -2.4 -15.55 L-2.45 -16.1 -2.1 -18.95 -3.4 -21.2 -4.15 -13.4 Q-4.9 -12.25 -5.35 -12.7 L-5.55 -13.25 -5.55 -13.95 -6.0 -13.25 Q-7.3 -11.7 -7.1 -13.5 L-5.6 -15.95 -5.35 -16.55 -4.85 -23.75 -7.25 -28.0 -8.65 -27.45 Q-9.7 -27.3 -9.25 -28.7 L-8.15 -29.65 Q-7.65 -32.15 -7.15 -31.85 L-4.7 -27.5 -4.25 -31.15 -5.55 -32.95 -5.45 -34.25 Q-4.8 -35.05 -4.2 -34.05 L-3.8 -35.65 Q-2.65 -36.8 -2.45 -35.55 L-3.25 -24.8 0.4 -18.2 0.5 -17.55 0.2 -16.95 Q-0.2 -16.35 -0.9 -16.65 L-1.1 -17.0 -1.25 -16.05 Q-2.05 -14.85 -2.4 -15.55 L-2.45 -16.1 -2.1 -18.95 -3.4 -21.2 -4.15 -13.4 Q-4.9 -12.25 -5.35 -12.7 L-5.55 -13.25 -5.55 -13.95 -6.0 -13.25 Q-7.3 -11.7 -7.1 -13.5 L-5.6 -15.95 -5.35 -16.55 -4.85 -23.75 -7.25 -28.0 -8.65 -27.45 Q-9.7 -27.3 -9.25 -28.7 M-1.95 -28.6 L-0.15 -30.6 Q-2.75 -35.6 0.65 -39.05 4.05 -42.55 6.85 -41.6 9.65 -40.7 9.5 -34.4 9.75 -28.35 6.25 -24.55 2.75 -20.75 -0.3 -22.95 L0.7 -25.5 -1.45 -25.2 -0.2 -27.65 -1.95 -28.55 -1.95 -28.6 -0.15 -30.6 Q-2.75 -35.6 0.65 -39.05 4.05 -42.55 6.85 -41.6 9.65 -40.7 9.5 -34.4 9.75 -28.35 6.25 -24.55 2.75 -20.75 -0.3 -22.95 L0.7 -25.5 -1.45 -25.2 -0.2 -27.65 -1.95 -28.55 -1.95 -28.6 M2.25 -35.25 Q3.4 -38.15 4.85 -38.5 5.05 -32.3 2.8 -30.9 0.8 -30.5 2.25 -35.25 3.4 -38.15 4.85 -38.5 5.05 -32.3 2.8 -30.9 0.8 -30.5 2.25 -35.25 M2.75 -28.8 Q3.25 -30.8 5.1 -31.05 L6.6 -28.4 Q6.15 -25.2 3.95 -25.1 1.95 -25.75 2.75 -28.8 3.25 -30.8 5.1 -31.05 L6.6 -28.4 Q6.15 -25.2 3.95 -25.1 1.95 -25.75 2.75 -28.8" fill="none" stroke="#000000" stroke-linecap="round" stroke-linejoin="round" stroke-opacity="0.0" stroke-width="1.0">
      <animate attributeName="stroke" dur="2s" repeatCount="indefinite" values="#000000;#000001"/>
      <animate attributeName="stroke-width" dur="2s" repeatCount="indefinite" values="0.0;0.0"/>
      <animate attributeName="fill-opacity" dur="2s" repeatCount="indefinite" values="0.0;0.0"/>
      <animate attributeName="d" dur="2s" repeatCount="indefinite" values="M-12.5 -36.9 L7.25 -54.15 9.45 -56.05 12.05 -22.5 12.2 -20.6 10.2 -19.25 10.0 -19.2 9.9 -19.15 9.8 -18.95 6.9 -16.8 Q5.85 -16.05 4.6 -15.5 L4.3 -14.95 Q4.0 -14.7 3.5 -14.75 L3.25 -14.35 Q2.3 -13.95 1.35 -13.7 L0.85 -13.55 0.25 -13.5 Q-2.3 -12.65 -4.6 -11.35 L-5.55 -10.8 -8.7 -8.6 -12.5 -36.9 -12.5 -36.9 M-9.25 -28.7 L-8.15 -29.65 Q-7.65 -32.15 -7.15 -31.85 L-4.7 -27.5 -4.25 -31.15 -5.55 -32.95 -5.45 -34.25 Q-4.8 -35.05 -4.2 -34.05 L-3.8 -35.65 Q-2.65 -36.8 -2.45 -35.55 L-3.25 -24.8 0.4 -18.2 0.5 -17.55 0.2 -16.95 Q-0.2 -16.35 -0.9 -16.65 L-1.1 -17.0 -1.25 -16.05 Q-2.05 -14.85 -2.4 -15.55 L-2.45 -16.1 -2.1 -18.95 -3.4 -21.2 -4.15 -13.4 Q-4.9 -12.25 -5.35 -12.7 L-5.55 -13.25 -5.55 -13.95 -6.0 -13.25 Q-7.3 -11.7 -7.1 -13.5 L-5.6 -15.95 -5.35 -16.55 -4.85 -23.75 -7.25 -28.0 -8.65 -27.45 Q-9.7 -27.3 -9.25 -28.7 L-8.15 -29.65 Q-7.65 -32.15 -7.15 -31.85 L-4.7 -27.5 -4.25 -31.15 -5.55 -32.95 -5.45 -34.25 Q-4.8 -35.05 -4.2 -34.05 L-3.8 -35.65 Q-2.65 -36.8 -2.45 -35.55 L-3.25 -24.8 0.4 -18.2 0.5 -17.55 0.2 -16.95 Q-0.2 -16.35 -0.9 -16.65 L-1.1 -17.0 -1.25 -16.05 Q-2.05 -14.85 -2.4 -15.55 L-2.45 -16.1 -2.1 -18.95 -3.4 -21.2 -4.15 -13.4 Q-4.9 -12.25 -5.35 -12.7 L-5.55 -13.25 -5.55 -13.95 -6.0 -13.25 Q-7.3 -11.7 -7.1 -13.5 L-5.6 -15.95 -5.35 -16.55 -4.85 -23.75 -7.25 -28.0 -8.65 -27.45 Q-9.7 -27.3 -9.25 -28.7 M-1.95 -28.6 L-0.15 -30.6 Q-2.75 -35.6 0.65 -39.05 4.05 -42.55 6.85 -41.6 9.65 -40.7 9.5 -34.4 9.75 -28.35 6.25 -24.55 2.75 -20.75 -0.3 -22.95 L0.7 -25.5 -1.45 -25.2 -0.2 -27.65 -1.95 -28.55 -1.95 -28.6 -0.15 -30.6 Q-2.75 -35.6 0.65 -39.05 4.05 -42.55 6.85 -41.6 9.65 -40.7 9.5 -34.4 9.75 -28.35 6.25 -24.55 2.75 -20.75 -0.3 -22.95 L0.7 -25.5 -1.45 -25.2 -0.2 -27.65 -1.95 -28.55 -1.95 -28.6 M2.25 -35.25 Q3.4 -38.15 4.85 -38.5 5.05 -32.3 2.8 -30.9 0.8 -30.5 2.25 -35.25 3.4 -38.15 4.85 -38.5 5.05 -32.3 2.8 -30.9 0.8 -30.5 2.25 -35.25 M2.75 -28.8 Q3.25 -30.8 5.1 -31.05 L6.6 -28.4 Q6.15 -25.2 3.95 -25.1 1.95 -25.75 2.75 -28.8 3.25 -30.8 5.1 -31.05 L6.6 -28.4 Q6.15 -25.2 3.95 -25.1 1.95 -25.75 2.75 -28.8;M-12.1 -38.05 L8.95 -55.3 9.35 -52.3 13.8 -17.7 12.15 -16.5 10.25 -15.1 10.15 -15.0 9.75 -14.8 9.55 -14.7 6.4 -12.5 Q5.1 -11.75 3.8 -10.95 L3.2 -10.6 Q2.95 -10.5 2.7 -10.35 L2.3 -10.15 Q1.4 -9.75 0.35 -9.5 L0.0 -9.1 -0.4 -8.8 Q-2.65 -7.25 -4.95 -5.7 L-6.0 -4.85 -6.7 -8.75 -12.1 -37.95 -12.1 -38.05 M-8.4 -29.55 L-7.35 -30.4 Q-7.0 -32.85 -6.45 -32.5 L-3.8 -27.95 -3.5 -31.55 -4.9 -33.5 -4.9 -34.75 Q-4.25 -35.5 -3.6 -34.45 L-3.3 -36.05 Q-2.2 -37.1 -1.95 -35.8 L-2.15 -25.15 1.85 -18.25 1.95 -17.55 1.7 -17.0 Q1.3 -16.4 0.6 -16.8 L0.4 -17.15 0.25 -16.25 Q-0.45 -15.1 -0.85 -15.8 L-0.9 -16.35 -0.7 -19.15 -2.15 -21.55 -2.5 -13.8 Q-3.2 -12.75 -3.7 -13.25 L-3.9 -13.8 -3.9 -14.5 -4.35 -13.8 Q-5.55 -12.4 -5.45 -14.15 L-4.05 -16.55 -3.85 -17.1 -3.75 -24.2 -6.35 -28.65 -7.7 -28.25 Q-8.8 -28.2 -8.4 -29.55 L-7.35 -30.4 Q-7.0 -32.85 -6.45 -32.5 L-3.8 -27.95 -3.5 -31.55 -4.9 -33.5 -4.9 -34.75 Q-4.25 -35.5 -3.6 -34.45 L-3.3 -36.05 Q-2.2 -37.1 -1.95 -35.8 L-2.15 -25.15 1.85 -18.25 1.95 -17.55 1.7 -17.0 Q1.3 -16.4 0.6 -16.8 L0.4 -17.15 0.25 -16.25 Q-0.45 -15.1 -0.85 -15.8 L-0.9 -16.35 -0.7 -19.15 -2.15 -21.55 -2.5 -13.8 Q-3.2 -12.75 -3.7 -13.25 L-3.9 -13.8 -3.9 -14.5 -4.35 -13.8 Q-5.55 -12.4 -5.45 -14.15 L-4.05 -16.55 -3.85 -17.1 -3.75 -24.2 -6.35 -28.65 -7.7 -28.25 Q-8.8 -28.2 -8.4 -29.55 M-1.1 -28.85 L0.6 -30.65 Q-2.2 -35.9 1.0 -39.05 4.2 -42.25 7.1 -41.05 9.95 -39.9 10.1 -33.6 10.65 -27.5 7.35 -24.05 4.05 -20.6 0.9 -23.0 L1.75 -25.5 -0.4 -25.4 0.7 -27.75 -1.1 -28.8 -1.1 -28.85 0.6 -30.65 Q-2.2 -35.9 1.0 -39.05 4.2 -42.25 7.1 -41.05 9.95 -39.9 10.1 -33.6 10.65 -27.5 7.35 -24.05 4.05 -20.6 0.9 -23.0 L1.75 -25.5 -0.4 -25.4 0.7 -27.75 -1.1 -28.8 -1.1 -28.85 M2.8 -35.1 Q3.8 -37.9 5.2 -38.1 5.75 -31.9 3.6 -30.7 1.6 -30.45 2.8 -35.1 3.8 -37.9 5.2 -38.1 5.75 -31.9 3.6 -30.7 1.6 -30.45 2.8 -35.1 M3.65 -28.6 Q4.05 -30.55 5.9 -30.65 L7.5 -27.85 Q7.2 -24.7 5.05 -24.8 3.0 -25.6 3.65 -28.6 4.05 -30.55 5.9 -30.65 L7.5 -27.85 Q7.2 -24.7 5.05 -24.8 3.0 -25.6 3.65 -28.6"/>
    </path>
  </g>
</svg>
