<?xml version="1.0" encoding="UTF-8" standalone="no"?>
<svg xmlns:xlink="http://www.w3.org/1999/xlink" height="47.2px" width="47.2px" xmlns="http://www.w3.org/2000/svg">
  <g transform="matrix(1.0, 0.0, 0.0, 1.0, 23.6, 23.6)">
    <path d="M-3.75 0.0 Q-3.75 -1.55 -2.65 -2.65 -1.55 -3.75 0.0 -3.75 1.55 -3.75 2.65 -2.65 3.75 -1.55 3.75 0.0 3.75 1.55 2.65 2.65 1.55 3.75 0.0 3.75 -1.55 3.75 -2.65 2.65 -3.75 1.55 -3.75 0.0 -3.75 -1.55 -2.65 -2.65 -1.55 -3.75 0.0 -3.75 1.55 -3.75 2.65 -2.65 3.75 -1.55 3.75 0.0 3.75 1.55 2.65 2.65 1.55 3.75 0.0 3.75 -1.55 3.75 -2.65 2.65 -3.75 1.55 -3.75 0.0" fill="none" stroke="#ffffff" stroke-linecap="round" stroke-linejoin="round" stroke-width="2.0">
      <animate attributeName="stroke" dur="2s" repeatCount="indefinite" values="#ffffff;#ffffff"/>
      <animate attributeName="stroke-width" dur="2s" repeatCount="indefinite" values="2.0;2.0"/>
      <animate attributeName="fill-opacity" dur="2s" repeatCount="indefinite" values="1.0;0.0"/>
      <animate attributeName="d" dur="2s" repeatCount="indefinite" values="M-3.75 0.0 Q-3.75 -1.55 -2.65 -2.65 -1.55 -3.75 0.0 -3.75 1.55 -3.75 2.65 -2.65 3.75 -1.55 3.75 0.0 3.75 1.55 2.65 2.65 1.55 3.75 0.0 3.75 -1.55 3.75 -2.65 2.65 -3.75 1.55 -3.75 0.0 -3.75 -1.55 -2.65 -2.65 -1.55 -3.75 0.0 -3.75 1.55 -3.75 2.65 -2.65 3.75 -1.55 3.75 0.0 3.75 1.55 2.65 2.65 1.55 3.75 0.0 3.75 -1.55 3.75 -2.65 2.65 -3.75 1.55 -3.75 0.0;M-22.6 0.0 Q-22.6 -9.35 -15.95 -15.95 -9.35 -22.6 0.0 -22.6 9.35 -22.6 16.0 -15.95 22.6 -9.35 22.6 0.0 22.6 9.35 16.0 16.0 9.35 22.6 0.0 22.6 -9.35 22.6 -15.95 16.0 -22.6 9.35 -22.6 0.0 -22.6 -9.35 -15.95 -15.95 -9.35 -22.6 0.0 -22.6 9.35 -22.6 16.0 -15.95 22.6 -9.35 22.6 0.0 22.6 9.35 16.0 16.0 9.35 22.6 0.0 22.6 -9.35 22.6 -15.95 16.0 -22.6 9.35 -22.6 0.0"/>
    </path>
  </g>
</svg>
