<?xml version="1.0" encoding="UTF-8" standalone="no"?>
<svg xmlns:xlink="http://www.w3.org/1999/xlink" height="4.65px" width="265.4px" xmlns="http://www.w3.org/2000/svg">
  <g transform="matrix(1.0, 0.0, 0.0, 1.0, 130.4, 0.0)">
    <path d="M-130.4 4.35 L-119.7 4.35 -104.1 4.35 -85.2 4.4 -64.65 4.45 -44.1 4.5 -25.3 4.6 -9.8 4.6 0.75 4.65 4.6 4.65 -6.4 0.65 -8.1 1.1 -12.5 2.0 -18.35 2.9 -24.55 3.35 -31.45 2.55 Q-34.3 1.85 -35.85 1.1 L-37.4 0.35 -40.4 1.25 Q-43.35 2.1 -48.05 2.95 L-58.05 3.85 -67.75 3.0 -74.7 1.5 -77.4 0.65 -79.65 1.15 -85.45 2.15 -93.2 3.2 -101.4 3.65 Q-105.8 3.15 -110.2 2.7 -113.8 1.85 -115.6 0.95 L-117.4 0.0 -119.15 1.1 Q-120.85 2.15 -123.75 3.2 -126.7 4.25 -130.4 4.35" fill="#244fc4" fill-rule="evenodd" stroke="none">
      <animate attributeName="fill" dur="2s" repeatCount="indefinite" values="#244fc4;#244fc5"/>
      <animate attributeName="fill-opacity" dur="2s" repeatCount="indefinite" values="1.0;1.0"/>
      <animate attributeName="d" dur="2s" repeatCount="indefinite" values="M-130.4 4.35 L-119.7 4.35 -104.1 4.35 -85.2 4.4 -64.65 4.45 -44.1 4.5 -25.3 4.6 -9.8 4.6 0.75 4.65 4.6 4.65 -6.4 0.65 -8.1 1.1 -12.5 2.0 -18.35 2.9 -24.55 3.35 -31.45 2.55 Q-34.3 1.85 -35.85 1.1 L-37.4 0.35 -40.4 1.25 Q-43.35 2.1 -48.05 2.95 L-58.05 3.85 -67.75 3.0 -74.7 1.5 -77.4 0.65 -79.65 1.15 -85.45 2.15 -93.2 3.2 -101.4 3.65 Q-105.8 3.15 -110.2 2.7 -113.8 1.85 -115.6 0.95 L-117.4 0.0 -119.15 1.1 Q-120.85 2.15 -123.75 3.2 -126.7 4.25 -130.4 4.35;M0.0 4.35 L10.7 4.35 26.3 4.35 45.2 4.4 65.75 4.45 86.3 4.5 105.1 4.6 120.6 4.6 131.15 4.65 135.0 4.65 124.0 0.65 122.3 1.1 117.9 2.0 112.05 2.9 105.85 3.35 98.95 2.55 Q96.75 1.8 94.55 1.1 L93.0 0.35 90.0 1.25 Q86.15 2.1 82.35 2.95 L72.35 3.85 62.65 3.0 55.7 1.5 53.0 0.65 50.75 1.15 44.95 2.15 37.2 3.2 29.0 3.65 Q23.75 3.6 20.2 2.7 16.6 1.85 14.8 0.95 L13.0 0.0 11.25 1.1 Q9.55 2.15 6.65 3.2 3.7 4.25 0.0 4.35"/>
    </path>
    <path d="M-130.4 4.35 Q-126.7 4.25 -123.75 3.2 -120.85 2.15 -119.15 1.1 L-117.4 0.0 -115.6 0.95 Q-113.8 1.85 -110.2 2.7 -105.8 3.15 -101.4 3.65 L-93.2 3.2 -85.45 2.15 -79.65 1.15 -77.4 0.65 -74.7 1.5 -67.75 3.0 -58.05 3.85 -48.05 2.95 Q-43.35 2.1 -40.4 1.25 L-37.4 0.35 -35.85 1.1 Q-34.3 1.85 -31.45 2.55 L-24.55 3.35 -18.35 2.9 -12.5 2.0 -8.1 1.1 -6.4 0.65 4.6 4.65 0.75 4.65 -9.8 4.6 -25.3 4.6 -44.1 4.5 -64.65 4.45 -85.2 4.4 -104.1 4.35 -119.7 4.35 -130.4 4.35" fill="none" stroke="#000000" stroke-linecap="round" stroke-linejoin="round" stroke-opacity="0.0" stroke-width="1.0">
      <animate attributeName="stroke" dur="2s" repeatCount="indefinite" values="#000000;#000001"/>
      <animate attributeName="stroke-width" dur="2s" repeatCount="indefinite" values="0.0;0.0"/>
      <animate attributeName="fill-opacity" dur="2s" repeatCount="indefinite" values="0.0;0.0"/>
      <animate attributeName="d" dur="2s" repeatCount="indefinite" values="M-130.4 4.35 Q-126.7 4.25 -123.75 3.2 -120.85 2.15 -119.15 1.1 L-117.4 0.0 -115.6 0.95 Q-113.8 1.85 -110.2 2.7 -105.8 3.15 -101.4 3.65 L-93.2 3.2 -85.45 2.15 -79.65 1.15 -77.4 0.65 -74.7 1.5 -67.75 3.0 -58.05 3.85 -48.05 2.95 Q-43.35 2.1 -40.4 1.25 L-37.4 0.35 -35.85 1.1 Q-34.3 1.85 -31.45 2.55 L-24.55 3.35 -18.35 2.9 -12.5 2.0 -8.1 1.1 -6.4 0.65 4.6 4.65 0.75 4.65 -9.8 4.6 -25.3 4.6 -44.1 4.5 -64.65 4.45 -85.2 4.4 -104.1 4.35 -119.7 4.35 -130.4 4.35;M0.0 4.35 Q3.7 4.25 6.65 3.2 9.55 2.15 11.25 1.1 L13.0 0.0 14.8 0.95 Q16.6 1.85 20.2 2.7 23.75 3.6 29.0 3.65 L37.2 3.2 44.95 2.15 50.75 1.15 53.0 0.65 55.7 1.5 62.65 3.0 72.35 3.85 82.35 2.95 Q86.15 2.1 90.0 1.25 L93.0 0.35 94.55 1.1 Q96.75 1.8 98.95 2.55 L105.85 3.35 112.05 2.9 117.9 2.0 122.3 1.1 124.0 0.65 135.0 4.65 131.15 4.65 120.6 4.6 105.1 4.6 86.3 4.5 65.75 4.45 45.2 4.4 26.3 4.35 10.7 4.35 0.0 4.35"/>
    </path>
  </g>
</svg>
