<?xml version="1.0" encoding="UTF-8" standalone="no"?>
<svg xmlns:xlink="http://www.w3.org/1999/xlink" height="9.9px" width="8.75px" xmlns="http://www.w3.org/2000/svg">
  <g transform="matrix(1.0, 0.0, 0.0, 1.0, 0.7, 12.25)">
    <path d="M-0.35 -4.85 Q-0.9 -3.75 0.0 -2.85 0.95 -2.0 2.0 -2.6 3.1 -3.15 4.15 -4.55 L6.1 -7.45 7.55 -10.1 8.05 -11.25 6.9 -10.65 4.35 -9.15 Q2.85 -8.2 1.5 -7.1 0.2 -5.95 -0.35 -4.85" fill="#425c0a" fill-rule="evenodd" stroke="none">
      <animate attributeName="fill" dur="2s" repeatCount="indefinite" values="#425c0a;#425c0b"/>
      <animate attributeName="fill-opacity" dur="2s" repeatCount="indefinite" values="1.0;1.0"/>
      <animate attributeName="d" dur="2s" repeatCount="indefinite" values="M-0.35 -4.85 Q-0.9 -3.75 0.0 -2.85 0.95 -2.0 2.0 -2.6 3.1 -3.15 4.15 -4.55 L6.1 -7.45 7.55 -10.1 8.05 -11.25 6.9 -10.65 4.35 -9.15 Q2.85 -8.2 1.5 -7.1 0.2 -5.95 -0.35 -4.85;M-0.7 -3.85 Q-0.65 -2.85 0.45 -2.65 1.5 -2.5 2.05 -3.4 2.6 -4.3 2.8 -5.75 L3.0 -8.65 2.95 -11.2 2.85 -12.25 2.25 -11.3 0.95 -9.05 Q0.3 -7.65 -0.3 -6.3 -0.75 -4.9 -0.7 -3.85"/>
    </path>
    <path d="M-0.35 -4.85 Q0.2 -5.95 1.5 -7.1 2.85 -8.2 4.35 -9.15 L6.9 -10.65 8.05 -11.25 7.55 -10.1 6.1 -7.45 4.15 -4.55 Q3.1 -3.15 2.0 -2.6 0.95 -2.0 0.0 -2.85 -0.9 -3.75 -0.35 -4.85" fill="none" stroke="#000000" stroke-linecap="round" stroke-linejoin="round" stroke-opacity="0.0" stroke-width="1.0">
      <animate attributeName="stroke" dur="2s" repeatCount="indefinite" values="#000000;#000001"/>
      <animate attributeName="stroke-width" dur="2s" repeatCount="indefinite" values="0.0;0.0"/>
      <animate attributeName="fill-opacity" dur="2s" repeatCount="indefinite" values="0.0;0.0"/>
      <animate attributeName="d" dur="2s" repeatCount="indefinite" values="M-0.35 -4.85 Q0.2 -5.95 1.5 -7.1 2.85 -8.2 4.35 -9.15 L6.9 -10.65 8.05 -11.25 7.55 -10.1 6.1 -7.45 4.15 -4.55 Q3.1 -3.15 2.0 -2.6 0.95 -2.0 0.0 -2.85 -0.9 -3.75 -0.35 -4.85;M-0.7 -3.85 Q-0.75 -4.9 -0.3 -6.3 0.3 -7.65 0.95 -9.05 L2.25 -11.3 2.85 -12.25 2.95 -11.2 3.0 -8.65 2.8 -5.75 Q2.6 -4.3 2.05 -3.4 1.5 -2.5 0.45 -2.65 -0.65 -2.85 -0.7 -3.85"/>
    </path>
  </g>
</svg>
