<?xml version="1.0" encoding="UTF-8" standalone="no"?>
<svg xmlns:xlink="http://www.w3.org/1999/xlink" height="4.55px" width="12.6px" xmlns="http://www.w3.org/2000/svg">
  <g transform="matrix(1.0, 0.0, 0.0, 1.0, 11.9, 8.2)">
    <path d="M-11.9 -6.15 L-9.8 -5.45 -5.3 -4.15 Q-3.1 -3.9 -0.9 -3.65 0.9 -3.75 0.7 -5.2 0.4 -6.35 -0.95 -6.85 -2.55 -7.05 -4.15 -7.25 L-7.7 -6.95 -10.65 -6.45 -11.9 -6.15" fill="#425c0a" fill-rule="evenodd" stroke="none">
      <animate attributeName="fill" dur="2s" repeatCount="indefinite" values="#425c0a;#425c0b"/>
      <animate attributeName="fill-opacity" dur="2s" repeatCount="indefinite" values="1.0;1.0"/>
      <animate attributeName="d" dur="2s" repeatCount="indefinite" values="M-11.9 -6.15 L-9.8 -5.45 -5.3 -4.15 Q-3.1 -3.9 -0.9 -3.65 0.9 -3.75 0.7 -5.2 0.4 -6.35 -0.95 -6.85 -2.55 -7.05 -4.15 -7.25 L-7.7 -6.95 -10.65 -6.45 -11.9 -6.15;M-11.05 -8.1 L-9.45 -7.05 -5.9 -4.95 Q-3.8 -3.9 -2.1 -3.65 -0.35 -3.45 0.15 -4.9 0.45 -6.1 -0.55 -6.8 -1.55 -7.5 -3.3 -7.8 L-6.75 -8.15 -9.75 -8.15 -11.05 -8.1"/>
    </path>
    <path d="M-11.9 -6.15 L-10.65 -6.45 -7.7 -6.95 -4.15 -7.25 Q-2.55 -7.05 -0.95 -6.85 0.4 -6.35 0.7 -5.2 0.9 -3.75 -0.9 -3.65 -3.1 -3.9 -5.3 -4.15 L-9.8 -5.45 -11.9 -6.15" fill="none" stroke="#000000" stroke-linecap="round" stroke-linejoin="round" stroke-opacity="0.0" stroke-width="1.0">
      <animate attributeName="stroke" dur="2s" repeatCount="indefinite" values="#000000;#000001"/>
      <animate attributeName="stroke-width" dur="2s" repeatCount="indefinite" values="0.0;0.0"/>
      <animate attributeName="fill-opacity" dur="2s" repeatCount="indefinite" values="0.0;0.0"/>
      <animate attributeName="d" dur="2s" repeatCount="indefinite" values="M-11.9 -6.15 L-10.65 -6.45 -7.7 -6.95 -4.15 -7.25 Q-2.55 -7.05 -0.95 -6.85 0.4 -6.35 0.7 -5.2 0.9 -3.75 -0.9 -3.65 -3.1 -3.9 -5.3 -4.15 L-9.8 -5.45 -11.9 -6.15;M-11.05 -8.1 L-9.75 -8.15 -6.75 -8.15 -3.3 -7.8 Q-1.55 -7.5 -0.55 -6.8 0.45 -6.1 0.15 -4.9 -0.35 -3.45 -2.1 -3.65 -3.8 -3.9 -5.9 -4.95 L-9.45 -7.05 -11.05 -8.1"/>
    </path>
  </g>
</svg>
