<?xml version="1.0" encoding="UTF-8" standalone="no"?>
<svg xmlns:xlink="http://www.w3.org/1999/xlink" height="15.55px" width="16.65px" xmlns="http://www.w3.org/2000/svg">
  <g transform="matrix(1.0, 0.0, 0.0, 1.0, 11.8, 19.35)">
    <path d="M-11.8 -11.35 Q-11.7 -10.7 -10.75 -10.25 -9.55 -10.1 -8.35 -9.95 -9.1 -8.85 -9.3 -7.85 -9.5 -6.85 -9.0 -6.4 L-7.45 -6.45 Q-6.45 -6.9 -5.4 -8.05 -5.2 -6.55 -4.6 -5.6 -4.05 -4.7 -3.35 -4.7 -2.65 -4.85 -2.2 -5.85 -1.8 -6.8 -1.8 -8.25 -0.7 -7.55 0.25 -7.35 1.2 -7.2 1.7 -7.7 2.05 -8.2 1.8 -9.0 1.55 -9.85 0.8 -10.7 2.0 -11.0 2.8 -11.5 3.55 -12.1 3.5 -12.7 3.45 -13.4 2.45 -13.8 L0.0 -14.1 Q0.8 -15.3 1.0 -16.25 1.2 -17.25 0.75 -17.65 L-0.85 -17.6 Q-1.9 -17.15 -2.9 -16.0 -3.1 -17.55 -3.65 -18.45 -4.25 -19.4 -5.0 -19.35 -5.7 -19.2 -6.05 -18.25 -6.5 -17.3 -6.45 -15.8 -7.6 -16.55 -8.6 -16.7 -9.55 -16.85 -10.0 -16.35 -10.4 -15.9 -10.1 -15.05 -9.85 -14.3 -9.1 -13.45 -10.35 -13.1 -11.1 -12.55 -11.9 -12.0 -11.8 -11.35" fill="#eb4a82" fill-rule="evenodd" stroke="none">
      <animate attributeName="fill" dur="2s" repeatCount="indefinite" values="#eb4a82;#eb4a83"/>
      <animate attributeName="fill-opacity" dur="2s" repeatCount="indefinite" values="1.0;1.0"/>
      <animate attributeName="d" dur="2s" repeatCount="indefinite" values="M-11.8 -11.35 Q-11.7 -10.7 -10.75 -10.25 -9.55 -10.1 -8.35 -9.95 -9.1 -8.85 -9.3 -7.85 -9.5 -6.85 -9.0 -6.4 L-7.45 -6.45 Q-6.45 -6.9 -5.4 -8.05 -5.2 -6.55 -4.6 -5.6 -4.05 -4.7 -3.35 -4.7 -2.65 -4.85 -2.2 -5.85 -1.8 -6.8 -1.8 -8.25 -0.7 -7.55 0.25 -7.35 1.2 -7.2 1.7 -7.7 2.05 -8.2 1.8 -9.0 1.55 -9.85 0.8 -10.7 2.0 -11.0 2.8 -11.5 3.55 -12.1 3.5 -12.7 3.45 -13.4 2.45 -13.8 L0.0 -14.1 Q0.8 -15.3 1.0 -16.25 1.2 -17.25 0.75 -17.65 L-0.85 -17.6 Q-1.9 -17.15 -2.9 -16.0 -3.1 -17.55 -3.65 -18.45 -4.25 -19.4 -5.0 -19.35 -5.7 -19.2 -6.05 -18.25 -6.5 -17.3 -6.45 -15.8 -7.6 -16.55 -8.6 -16.7 -9.55 -16.85 -10.0 -16.35 -10.4 -15.9 -10.1 -15.05 -9.85 -14.3 -9.1 -13.45 -10.35 -13.1 -11.1 -12.55 -11.9 -12.0 -11.8 -11.35;M-10.5 -11.4 Q-10.45 -10.7 -9.55 -10.2 -8.6 -9.7 -7.15 -9.6 -7.75 -8.6 -8.3 -7.6 -8.55 -6.65 -8.1 -6.15 L-6.55 -6.0 Q-5.5 -6.35 -4.4 -7.35 -4.3 -5.85 -3.8 -4.85 -3.3 -3.85 -2.6 -3.8 -1.9 -3.85 -1.4 -4.8 -0.9 -5.7 -0.8 -7.15 0.25 -6.3 1.2 -6.0 2.15 -5.75 2.65 -6.2 3.05 -6.65 2.85 -7.45 2.7 -8.3 2.0 -9.25 3.25 -9.4 4.05 -9.85 4.85 -10.35 4.85 -10.95 4.85 -11.65 3.9 -12.15 L1.5 -12.75 Q2.4 -13.8 2.65 -14.75 2.95 -15.7 2.5 -16.2 L0.9 -16.35 Q-0.15 -16.0 -1.25 -15.0 -1.3 -16.55 -1.8 -17.5 -2.3 -18.5 -3.05 -18.55 -3.75 -18.5 -4.2 -17.6 -4.7 -16.65 -4.8 -15.2 -5.85 -16.05 -6.85 -16.35 -7.6 -16.25 -8.3 -16.15 -8.7 -15.75 -8.5 -14.9 -8.05 -14.0 -7.65 -13.15 -8.7 -12.8 -9.7 -12.5 -10.5 -12.05 -10.5 -11.4"/>
    </path>
    <path d="M-11.8 -11.35 Q-11.9 -12.0 -11.1 -12.55 -10.35 -13.1 -9.1 -13.45 -9.85 -14.3 -10.1 -15.05 -10.4 -15.9 -10.0 -16.35 -9.55 -16.85 -8.6 -16.7 -7.6 -16.55 -6.45 -15.8 -6.5 -17.3 -6.05 -18.25 -5.7 -19.2 -5.0 -19.35 -4.25 -19.4 -3.65 -18.45 -3.1 -17.55 -2.9 -16.0 -1.9 -17.15 -0.85 -17.6 L0.75 -17.65 Q1.2 -17.25 1.0 -16.25 0.8 -15.3 0.0 -14.1 L2.45 -13.8 Q3.45 -13.4 3.5 -12.7 3.55 -12.1 2.8 -11.5 2.0 -11.0 0.8 -10.7 1.55 -9.85 1.8 -9.0 2.05 -8.2 1.7 -7.7 1.2 -7.2 0.25 -7.35 -0.7 -7.55 -1.8 -8.25 -1.8 -6.8 -2.2 -5.85 -2.65 -4.85 -3.35 -4.7 -4.05 -4.7 -4.6 -5.6 -5.2 -6.55 -5.4 -8.05 -6.45 -6.9 -7.45 -6.45 L-9.0 -6.4 Q-9.5 -6.85 -9.3 -7.85 -9.1 -8.85 -8.35 -9.95 -9.55 -10.1 -10.75 -10.25 -11.7 -10.7 -11.8 -11.35" fill="none" stroke="#000000" stroke-linecap="round" stroke-linejoin="round" stroke-opacity="0.0" stroke-width="1.0">
      <animate attributeName="stroke" dur="2s" repeatCount="indefinite" values="#000000;#000001"/>
      <animate attributeName="stroke-width" dur="2s" repeatCount="indefinite" values="0.0;0.0"/>
      <animate attributeName="fill-opacity" dur="2s" repeatCount="indefinite" values="0.0;0.0"/>
      <animate attributeName="d" dur="2s" repeatCount="indefinite" values="M-11.8 -11.35 Q-11.9 -12.0 -11.1 -12.55 -10.35 -13.1 -9.1 -13.45 -9.85 -14.3 -10.1 -15.05 -10.4 -15.9 -10.0 -16.35 -9.55 -16.85 -8.6 -16.7 -7.6 -16.55 -6.45 -15.8 -6.5 -17.3 -6.05 -18.25 -5.7 -19.2 -5.0 -19.35 -4.25 -19.4 -3.65 -18.45 -3.1 -17.55 -2.9 -16.0 -1.9 -17.15 -0.85 -17.6 L0.75 -17.65 Q1.2 -17.25 1.0 -16.25 0.8 -15.3 0.0 -14.1 L2.45 -13.8 Q3.45 -13.4 3.5 -12.7 3.55 -12.1 2.8 -11.5 2.0 -11.0 0.8 -10.7 1.55 -9.85 1.8 -9.0 2.05 -8.2 1.7 -7.7 1.2 -7.2 0.25 -7.35 -0.7 -7.55 -1.8 -8.25 -1.8 -6.8 -2.2 -5.85 -2.65 -4.85 -3.35 -4.7 -4.05 -4.7 -4.6 -5.6 -5.2 -6.55 -5.4 -8.05 -6.45 -6.9 -7.45 -6.45 L-9.0 -6.4 Q-9.5 -6.85 -9.3 -7.85 -9.1 -8.85 -8.35 -9.95 -9.55 -10.1 -10.75 -10.25 -11.7 -10.7 -11.8 -11.35;M-10.5 -11.4 Q-10.5 -12.05 -9.7 -12.5 -8.7 -12.8 -7.65 -13.15 -8.05 -14.0 -8.5 -14.9 -8.7 -15.75 -8.3 -16.15 -7.6 -16.25 -6.85 -16.35 -5.85 -16.05 -4.8 -15.2 -4.7 -16.65 -4.2 -17.6 -3.75 -18.5 -3.05 -18.55 -2.3 -18.5 -1.8 -17.5 -1.3 -16.55 -1.25 -15.0 -0.15 -16.0 0.9 -16.35 L2.5 -16.2 Q2.95 -15.7 2.65 -14.75 2.4 -13.8 1.5 -12.75 L3.9 -12.15 Q4.85 -11.65 4.85 -10.95 4.85 -10.35 4.05 -9.85 3.25 -9.4 2.0 -9.25 2.7 -8.3 2.85 -7.45 3.05 -6.65 2.65 -6.2 2.15 -5.75 1.2 -6.0 0.25 -6.3 -0.8 -7.15 -0.9 -5.7 -1.4 -4.8 -1.9 -3.85 -2.6 -3.8 -3.3 -3.85 -3.8 -4.85 -4.3 -5.85 -4.4 -7.35 -5.5 -6.35 -6.55 -6.0 L-8.1 -6.15 Q-8.55 -6.65 -8.3 -7.6 -7.75 -8.6 -7.15 -9.6 -8.6 -9.7 -9.55 -10.2 -10.45 -10.7 -10.5 -11.4"/>
    </path>
  </g>
</svg>
