<?xml version="1.0" encoding="UTF-8" standalone="no"?>
<svg xmlns:xlink="http://www.w3.org/1999/xlink" height="7.45px" width="17.75px" xmlns="http://www.w3.org/2000/svg">
  <g transform="matrix(1.0, 0.0, 0.0, 1.0, -4.7, 14.15)">
    <path d="M4.9 -11.3 Q5.8 -9.3 8.2 -8.85 10.75 -8.95 13.3 -9.0 16.1 -9.65 18.2 -10.6 20.3 -11.65 20.8 -12.55 L18.95 -12.95 14.5 -13.7 9.5 -14.15 Q7.0 -14.2 5.65 -13.55 4.25 -12.95 4.9 -11.3" fill="#425c0a" fill-rule="evenodd" stroke="none">
      <animate attributeName="fill" dur="2s" repeatCount="indefinite" values="#425c0a;#425c0b"/>
      <animate attributeName="fill-opacity" dur="2s" repeatCount="indefinite" values="1.0;1.0"/>
      <animate attributeName="d" dur="2s" repeatCount="indefinite" values="M4.9 -11.3 Q5.8 -9.3 8.2 -8.85 10.75 -8.95 13.3 -9.0 16.1 -9.65 18.2 -10.6 20.3 -11.65 20.8 -12.55 L18.95 -12.95 14.5 -13.7 9.5 -14.15 Q7.0 -14.2 5.65 -13.55 4.25 -12.95 4.9 -11.3;M6.7 -10.8 Q7.1 -8.65 9.35 -7.7 11.55 -6.75 14.35 -6.7 16.95 -6.95 19.5 -7.15 21.75 -7.7 22.45 -8.45 L20.75 -9.25 16.6 -10.95 11.85 -12.55 Q9.85 -12.7 7.9 -12.85 6.45 -12.55 6.7 -10.8"/>
    </path>
    <path d="M4.9 -11.3 Q4.25 -12.95 5.65 -13.55 7.0 -14.2 9.5 -14.15 L14.5 -13.7 18.95 -12.95 20.8 -12.55 Q20.3 -11.65 18.2 -10.6 16.1 -9.65 13.3 -9.0 10.75 -8.95 8.2 -8.85 5.8 -9.3 4.9 -11.3" fill="none" stroke="#000000" stroke-linecap="round" stroke-linejoin="round" stroke-opacity="0.0" stroke-width="1.0">
      <animate attributeName="stroke" dur="2s" repeatCount="indefinite" values="#000000;#000001"/>
      <animate attributeName="stroke-width" dur="2s" repeatCount="indefinite" values="0.0;0.0"/>
      <animate attributeName="fill-opacity" dur="2s" repeatCount="indefinite" values="0.0;0.0"/>
      <animate attributeName="d" dur="2s" repeatCount="indefinite" values="M4.9 -11.3 Q4.25 -12.95 5.65 -13.55 7.0 -14.2 9.5 -14.15 L14.5 -13.7 18.95 -12.95 20.8 -12.55 Q20.3 -11.65 18.2 -10.6 16.1 -9.65 13.3 -9.0 10.75 -8.95 8.2 -8.85 5.8 -9.3 4.9 -11.3;M6.7 -10.8 Q6.45 -12.55 7.9 -12.85 9.85 -12.7 11.85 -12.55 L16.6 -10.95 20.75 -9.25 22.45 -8.45 Q21.75 -7.7 19.5 -7.15 16.95 -6.95 14.35 -6.7 11.55 -6.75 9.35 -7.7 7.1 -8.65 6.7 -10.8"/>
    </path>
  </g>
</svg>
