<?xml version="1.0" encoding="UTF-8" standalone="no"?>
<svg xmlns:xlink="http://www.w3.org/1999/xlink" height="5.0px" width="5.5px" xmlns="http://www.w3.org/2000/svg">
  <g transform="matrix(1.0, 0.0, 0.0, 1.0, 6.5, 14.3)">
    <path d="M-5.15 -11.4 Q-5.15 -10.5 -4.55 -9.95 -3.95 -9.35 -3.1 -9.3 -2.2 -9.35 -1.65 -9.9 -1.05 -10.5 -1.0 -11.4 -1.05 -12.25 -1.6 -12.85 -2.2 -13.45 -3.1 -13.45 -3.95 -13.45 -4.55 -12.85 -5.15 -12.25 -5.15 -11.4" fill="#527312" fill-rule="evenodd" stroke="none">
      <animate attributeName="fill" dur="2s" repeatCount="indefinite" values="#527312;#527313"/>
      <animate attributeName="fill-opacity" dur="2s" repeatCount="indefinite" values="1.0;1.0"/>
      <animate attributeName="d" dur="2s" repeatCount="indefinite" values="M-5.15 -11.4 Q-5.15 -10.5 -4.55 -9.95 -3.95 -9.35 -3.1 -9.3 -2.2 -9.35 -1.65 -9.9 -1.05 -10.5 -1.0 -11.4 -1.05 -12.25 -1.6 -12.85 -2.2 -13.45 -3.1 -13.45 -3.95 -13.45 -4.55 -12.85 -5.15 -12.25 -5.15 -11.4;M-6.5 -12.0 Q-6.45 -11.1 -5.8 -10.6 -5.15 -10.1 -4.3 -10.15 -3.4 -10.3 -2.9 -10.9 -2.35 -11.55 -2.35 -12.45 -2.5 -13.3 -3.1 -13.85 -3.75 -14.4 -4.6 -14.25 -5.45 -14.15 -6.0 -13.5 -6.55 -12.85 -6.5 -12.0"/>
    </path>
    <path d="M-5.15 -11.4 Q-5.15 -12.25 -4.55 -12.85 -3.95 -13.45 -3.1 -13.45 -2.2 -13.45 -1.6 -12.85 -1.05 -12.25 -1.0 -11.4 -1.05 -10.5 -1.65 -9.9 -2.2 -9.35 -3.1 -9.3 -3.95 -9.35 -4.55 -9.95 -5.15 -10.5 -5.15 -11.4" fill="none" stroke="#000000" stroke-linecap="round" stroke-linejoin="round" stroke-opacity="0.0" stroke-width="1.0">
      <animate attributeName="stroke" dur="2s" repeatCount="indefinite" values="#000000;#000001"/>
      <animate attributeName="stroke-width" dur="2s" repeatCount="indefinite" values="0.0;0.0"/>
      <animate attributeName="fill-opacity" dur="2s" repeatCount="indefinite" values="0.0;0.0"/>
      <animate attributeName="d" dur="2s" repeatCount="indefinite" values="M-5.15 -11.4 Q-5.15 -12.25 -4.55 -12.85 -3.95 -13.45 -3.1 -13.45 -2.2 -13.45 -1.6 -12.85 -1.05 -12.25 -1.0 -11.4 -1.05 -10.5 -1.65 -9.9 -2.2 -9.35 -3.1 -9.3 -3.95 -9.35 -4.55 -9.95 -5.15 -10.5 -5.15 -11.4;M-6.5 -12.0 Q-6.55 -12.85 -6.0 -13.5 -5.45 -14.15 -4.6 -14.25 -3.75 -14.4 -3.1 -13.85 -2.5 -13.3 -2.35 -12.45 -2.35 -11.55 -2.9 -10.9 -3.4 -10.3 -4.3 -10.15 -5.15 -10.1 -5.8 -10.6 -6.45 -11.1 -6.5 -12.0"/>
    </path>
  </g>
</svg>
