<?xml version="1.0" encoding="UTF-8" standalone="no"?>
<svg xmlns:xlink="http://www.w3.org/1999/xlink" height="11.35px" width="9.9px" xmlns="http://www.w3.org/2000/svg">
  <g transform="matrix(1.0, 0.0, 0.0, 1.0, 4.8, 5.6)">
    <path d="M-4.45 -4.2 L-4.45 4.15 Q-4.45 4.7 -4.1 5.05 L-3.25 5.4 3.2 4.45 Q3.7 4.45 4.05 4.1 4.25 3.65 4.45 3.2 4.35 -0.35 4.25 -3.85 4.2 -4.1 3.4 -4.35 L1.5 -4.8 -0.35 -5.1 -3.15 -5.25 -4.45 -4.2" fill="#f3e016" fill-rule="evenodd" stroke="none">
      <animate attributeName="fill" dur="2s" repeatCount="indefinite" values="#f3e016;#f3e017"/>
      <animate attributeName="fill-opacity" dur="2s" repeatCount="indefinite" values="1.0;1.0"/>
      <animate attributeName="d" dur="2s" repeatCount="indefinite" values="M-4.45 -4.2 L-4.45 4.15 Q-4.45 4.7 -4.1 5.05 L-3.25 5.4 3.2 4.45 Q3.7 4.45 4.05 4.1 4.25 3.65 4.45 3.2 4.35 -0.35 4.25 -3.85 4.2 -4.1 3.4 -4.35 L1.5 -4.8 -0.35 -5.1 -3.15 -5.25 -4.45 -4.2;M-4.45 -4.2 L-4.45 4.15 Q-4.45 4.7 -4.1 5.05 L-3.25 5.4 3.2 4.45 Q3.7 4.45 4.05 4.1 4.4 3.75 4.65 2.4 4.9 1.0 4.65 -1.45 4.4 -3.95 3.5 -4.25 L1.5 -4.8 -0.35 -5.1 -3.15 -5.25 -4.45 -4.2"/>
    </path>
    <path d="M-4.45 -4.2 L-3.15 -5.25 -0.35 -5.1 1.5 -4.8 3.4 -4.35 Q4.2 -4.1 4.25 -3.85 4.35 -0.35 4.45 3.2 4.25 3.65 4.05 4.1 3.7 4.45 3.2 4.45 L-3.25 5.4 -4.1 5.05 Q-4.45 4.7 -4.45 4.15 L-4.45 -4.2 -3.15 -5.25 -0.35 -5.1 1.5 -4.8 3.4 -4.35 Q4.2 -4.1 4.25 -3.85 4.35 -0.35 4.45 3.2 4.25 3.65 4.05 4.1 3.7 4.45 3.2 4.45 L-3.25 5.4 -4.1 5.05 Q-4.45 4.7 -4.45 4.15 L-4.45 -4.2" fill="none" stroke="#000000" stroke-linecap="round" stroke-linejoin="round" stroke-width="0.75">
      <animate attributeName="stroke" dur="2s" repeatCount="indefinite" values="#000000;#000001"/>
      <animate attributeName="stroke-width" dur="2s" repeatCount="indefinite" values="0.75;0.75"/>
      <animate attributeName="fill-opacity" dur="2s" repeatCount="indefinite" values="1.0;1.0"/>
      <animate attributeName="d" dur="2s" repeatCount="indefinite" values="M-4.45 -4.2 L-3.15 -5.25 -0.35 -5.1 1.5 -4.8 3.4 -4.35 Q4.2 -4.1 4.25 -3.85 4.35 -0.35 4.45 3.2 4.25 3.65 4.05 4.1 3.7 4.45 3.2 4.45 L-3.25 5.4 -4.1 5.05 Q-4.45 4.7 -4.45 4.15 L-4.45 -4.2 -3.15 -5.25 -0.35 -5.1 1.5 -4.8 3.4 -4.35 Q4.2 -4.1 4.25 -3.85 4.35 -0.35 4.45 3.2 4.25 3.65 4.05 4.1 3.7 4.45 3.2 4.45 L-3.25 5.4 -4.1 5.05 Q-4.45 4.7 -4.45 4.15 L-4.45 -4.2;M-4.45 -4.2 L-3.15 -5.25 -0.35 -5.1 1.5 -4.8 3.5 -4.25 Q4.4 -3.95 4.65 -1.45 4.9 1.0 4.65 2.4 4.4 3.75 4.05 4.1 3.7 4.45 3.2 4.45 L-3.25 5.4 -4.1 5.05 Q-4.45 4.7 -4.45 4.15 L-4.45 -4.2 -3.15 -5.25 -0.35 -5.1 1.5 -4.8 3.5 -4.25 Q4.4 -3.95 4.65 -1.45 4.9 1.0 4.65 2.4 4.4 3.75 4.05 4.1 3.7 4.45 3.2 4.45 L-3.25 5.4 -4.1 5.05 Q-4.45 4.7 -4.45 4.15 L-4.45 -4.2"/>
    </path>
  </g>
</svg>
