<?xml version="1.0" encoding="UTF-8" standalone="no"?>
<svg xmlns:xlink="http://www.w3.org/1999/xlink" height="11.2px" width="10.9px" xmlns="http://www.w3.org/2000/svg">
  <g transform="matrix(1.0, 0.0, 0.0, 1.0, 0.8, 20.7)">
    <path d="M-0.65 -14.9 Q-0.2 -14.0 1.75 -14.7 3.9 -14.8 6.05 -14.85 7.75 -14.65 9.45 -14.45 10.5 -14.6 9.9 -15.95 9.25 -17.35 7.4 -16.45 5.5 -15.6 3.3 -16.0 1.6 -16.1 -0.05 -16.15 -1.15 -15.85 -0.65 -14.9" fill="#000000" fill-rule="evenodd" stroke="none">
      <animate attributeName="fill" dur="2s" repeatCount="indefinite" values="#000000;#000001"/>
      <animate attributeName="fill-opacity" dur="2s" repeatCount="indefinite" values="1.0;1.0"/>
      <animate attributeName="d" dur="2s" repeatCount="indefinite" values="M-0.65 -14.9 Q-0.2 -14.0 1.75 -14.7 3.9 -14.8 6.05 -14.85 7.75 -14.65 9.45 -14.45 10.5 -14.6 9.9 -15.95 9.25 -17.35 7.4 -16.45 5.5 -15.6 3.3 -16.0 1.6 -16.1 -0.05 -16.15 -1.15 -15.85 -0.65 -14.9;M-0.65 -13.8 Q0.0 -11.5 1.85 -10.35 3.7 -9.15 5.95 -9.65 8.2 -10.3 9.3 -12.2 10.4 -14.1 9.85 -16.4 9.25 -18.7 7.4 -19.85 5.5 -21.05 3.25 -20.55 1.05 -19.95 -0.05 -18.05 -1.15 -16.15 -0.65 -13.8"/>
    </path>
    <path d="M-0.65 -14.9 Q-1.15 -15.85 -0.05 -16.15 1.6 -16.1 3.3 -16.0 5.5 -15.6 7.4 -16.45 9.25 -17.35 9.9 -15.95 10.5 -14.6 9.45 -14.45 7.75 -14.65 6.05 -14.85 3.9 -14.8 1.75 -14.7 -0.2 -14.0 -0.65 -14.9" fill="none" stroke="#000000" stroke-linecap="round" stroke-linejoin="round" stroke-opacity="0.0" stroke-width="1.0">
      <animate attributeName="stroke" dur="2s" repeatCount="indefinite" values="#000000;#000001"/>
      <animate attributeName="stroke-width" dur="2s" repeatCount="indefinite" values="0.0;0.0"/>
      <animate attributeName="fill-opacity" dur="2s" repeatCount="indefinite" values="0.0;0.0"/>
      <animate attributeName="d" dur="2s" repeatCount="indefinite" values="M-0.65 -14.9 Q-1.15 -15.85 -0.05 -16.15 1.6 -16.1 3.3 -16.0 5.5 -15.6 7.4 -16.45 9.25 -17.35 9.9 -15.95 10.5 -14.6 9.45 -14.45 7.75 -14.65 6.05 -14.85 3.9 -14.8 1.75 -14.7 -0.2 -14.0 -0.65 -14.9;M-0.65 -13.8 Q-1.15 -16.15 -0.05 -18.05 1.05 -19.95 3.25 -20.55 5.5 -21.05 7.4 -19.85 9.25 -18.7 9.85 -16.4 10.4 -14.1 9.3 -12.2 8.2 -10.3 5.95 -9.65 3.7 -9.15 1.85 -10.35 0.0 -11.5 -0.65 -13.8"/>
    </path>
  </g>
</svg>
