<?xml version="1.0" encoding="UTF-8" standalone="no"?>
<svg xmlns:xlink="http://www.w3.org/1999/xlink" height="221.2px" width="538.05px" xmlns="http://www.w3.org/2000/svg">
  <g transform="matrix(1.0, 0.0, 0.0, 1.0, 269.0, 110.6)">
    <path d="M-243.0 -36.8 Q-242.05 -19.05 -225.3 4.0 -208.6 26.9 -179.8 48.15 -151.05 69.3 -113.8 81.75 -81.0 92.7 -44.5 91.35 L-34.7 90.75 Q-2.2 87.45 15.35 76.45 32.85 65.45 43.6 51.8 L46.2 48.5 Q55.8 36.7 66.45 26.7 78.6 15.25 100.35 11.1 L131.45 6.65 Q151.55 3.75 173.75 -1.5 195.9 -6.75 213.1 -15.5 230.2 -24.2 235.15 -37.5 238.7 -50.8 226.3 -60.7 223.4 -62.65 220.5 -64.6 209.05 -71.35 193.1 -76.55 182.75 -79.95 170.6 -82.7 155.75 -86.1 140.65 -88.7 124.25 -91.6 107.55 -93.55 75.5 -97.45 53.5 -98.85 L30.55 -100.2 10.1 -100.55 Q-9.75 -100.75 -41.05 -99.75 -72.3 -98.8 -107.3 -95.45 -132.65 -93.05 -155.8 -88.75 L-173.4 -85.2 Q-181.75 -83.35 -189.2 -81.1 -204.4 -76.65 -216.1 -70.7 -220.15 -68.65 -223.75 -66.45 -243.1 -54.65 -243.0 -36.8 M-255.5 -38.45 Q-254.5 -19.75 -236.85 4.45 -219.25 28.6 -189.0 50.9 -158.75 73.2 -119.5 86.3 -85.0 97.8 -46.55 96.4 L-36.2 95.8 Q-2.0 92.3 16.45 80.75 34.9 69.15 46.15 54.75 L48.9 51.3 Q59.0 38.85 70.2 28.3 83.0 16.3 105.9 11.95 L138.65 7.25 Q159.8 4.2 183.2 -1.35 206.5 -6.9 224.6 -16.05 242.6 -25.25 247.8 -39.25 251.55 -53.2 238.5 -63.65 235.8 -65.75 232.4 -67.75 220.3 -74.85 203.55 -80.35 192.7 -83.95 179.85 -86.8 164.2 -90.4 148.35 -93.15 131.05 -96.15 113.5 -98.2 79.75 -102.3 56.6 -103.8 L32.45 -105.25 10.9 -105.6 Q-9.95 -105.75 -42.9 -104.75 -75.8 -103.75 -112.65 -100.25 -139.3 -97.7 -163.7 -93.2 L-182.25 -89.45 Q-191.0 -87.5 -198.85 -85.15 -214.85 -80.4 -227.15 -74.15 -231.2 -71.9 -235.25 -69.7 -255.6 -57.25 -255.5 -38.45" fill="#ffffff" fill-rule="evenodd" stroke="none">
      <animate attributeName="fill" dur="2s" repeatCount="indefinite" values="#ffffff;#ffffff"/>
      <animate attributeName="fill-opacity" dur="2s" repeatCount="indefinite" values="1.0;1.0"/>
      <animate attributeName="d" dur="2s" repeatCount="indefinite" values="M-243.0 -36.8 Q-242.05 -19.05 -225.3 4.0 -208.6 26.9 -179.8 48.15 -151.05 69.3 -113.8 81.75 -81.0 92.7 -44.5 91.35 L-34.7 90.75 Q-2.2 87.45 15.35 76.45 32.85 65.45 43.6 51.8 L46.2 48.5 Q55.8 36.7 66.45 26.7 78.6 15.25 100.35 11.1 L131.45 6.65 Q151.55 3.75 173.75 -1.5 195.9 -6.75 213.1 -15.5 230.2 -24.2 235.15 -37.5 238.7 -50.8 226.3 -60.7 223.4 -62.65 220.5 -64.6 209.05 -71.35 193.1 -76.55 182.75 -79.95 170.6 -82.7 155.75 -86.1 140.65 -88.7 124.25 -91.6 107.55 -93.55 75.5 -97.45 53.5 -98.85 L30.55 -100.2 10.1 -100.55 Q-9.75 -100.75 -41.05 -99.75 -72.3 -98.8 -107.3 -95.45 -132.65 -93.05 -155.8 -88.75 L-173.4 -85.2 Q-181.75 -83.35 -189.2 -81.1 -204.4 -76.65 -216.1 -70.7 -220.15 -68.65 -223.75 -66.45 -243.1 -54.65 -243.0 -36.8 M-255.5 -38.45 Q-254.5 -19.75 -236.85 4.45 -219.25 28.6 -189.0 50.9 -158.75 73.2 -119.5 86.3 -85.0 97.8 -46.55 96.4 L-36.2 95.8 Q-2.0 92.3 16.45 80.75 34.9 69.15 46.15 54.75 L48.9 51.3 Q59.0 38.85 70.2 28.3 83.0 16.3 105.9 11.95 L138.65 7.25 Q159.8 4.2 183.2 -1.35 206.5 -6.9 224.6 -16.05 242.6 -25.25 247.8 -39.25 251.55 -53.2 238.5 -63.65 235.8 -65.75 232.4 -67.75 220.3 -74.85 203.55 -80.35 192.7 -83.95 179.85 -86.8 164.2 -90.4 148.35 -93.15 131.05 -96.15 113.5 -98.2 79.75 -102.3 56.6 -103.8 L32.45 -105.25 10.9 -105.6 Q-9.95 -105.75 -42.9 -104.75 -75.8 -103.75 -112.65 -100.25 -139.3 -97.7 -163.7 -93.2 L-182.25 -89.45 Q-191.0 -87.5 -198.85 -85.15 -214.85 -80.4 -227.15 -74.15 -231.2 -71.9 -235.25 -69.7 -255.6 -57.25 -255.5 -38.45;M-255.5 -35.25 Q-253.4 -15.85 -234.2 9.35 -215.0 34.45 -183.1 57.65 -151.15 80.8 -110.65 94.4 -75.0 106.4 -36.1 104.95 L-25.65 104.3 Q8.9 100.65 26.95 88.65 45.05 76.6 55.7 61.65 L58.3 58.05 Q67.85 45.15 78.65 34.15 90.95 21.65 113.9 17.15 L146.9 12.25 Q168.15 9.1 191.6 3.3 214.95 -2.45 232.75 -11.95 250.5 -21.5 255.05 -36.05 258.05 -50.6 244.25 -61.4 241.4 -63.65 237.85 -65.7 225.2 -73.1 207.85 -78.8 196.65 -82.5 183.5 -85.5 167.45 -89.2 151.2 -92.1 133.5 -95.25 115.55 -97.4 81.1 -101.6 57.5 -103.15 L32.95 -104.65 11.1 -105.05 Q-10.1 -105.2 -43.45 -104.15 -76.8 -103.15 -114.0 -99.45 -140.9 -96.85 -165.4 -92.15 L-183.95 -88.25 Q-192.75 -86.2 -200.6 -83.75 -216.55 -78.85 -228.7 -72.4 -232.9 -70.15 -236.65 -67.7 -256.6 -54.85 -255.5 -35.25 M-268.95 -37.1 Q-266.75 -16.65 -246.55 9.85 -226.35 36.25 -192.75 60.7 -159.15 85.1 -116.5 99.4 -78.95 112.0 -38.0 110.45 L-27.0 109.8 Q9.35 105.95 28.35 93.3 47.4 80.65 58.6 64.9 L61.35 61.1 Q71.4 47.5 82.75 35.95 95.7 22.8 119.9 18.05 L154.6 12.9 Q177.0 9.6 201.7 3.5 226.25 -2.55 245.0 -12.6 263.7 -22.65 268.45 -37.95 271.65 -53.25 257.1 -64.65 254.1 -67.0 250.4 -69.15 237.05 -76.9 218.8 -82.95 207.0 -86.85 193.15 -90.0 176.25 -93.9 159.15 -96.95 140.5 -100.25 121.6 -102.5 85.35 -106.95 60.55 -108.6 L34.65 -110.15 11.65 -110.55 Q-10.65 -110.75 -45.75 -109.65 -80.85 -108.55 -120.0 -104.7 -148.3 -101.95 -174.1 -97.0 L-193.65 -92.9 Q-202.9 -90.75 -211.15 -88.15 -227.95 -83.0 -240.75 -76.15 -245.15 -73.8 -249.1 -71.25 -270.1 -57.7 -268.95 -37.1"/>
    </path>
    <path d="M-255.5 -38.45 Q-255.6 -57.25 -235.25 -69.7 -231.2 -71.9 -227.15 -74.15 -214.85 -80.4 -198.85 -85.15 -191.0 -87.5 -182.25 -89.45 L-163.7 -93.2 Q-139.3 -97.7 -112.65 -100.25 -75.8 -103.75 -42.9 -104.75 -9.95 -105.75 10.9 -105.6 L32.45 -105.25 56.6 -103.8 Q79.75 -102.3 113.5 -98.2 131.05 -96.15 148.35 -93.15 164.2 -90.4 179.85 -86.8 192.7 -83.95 203.55 -80.35 220.3 -74.85 232.4 -67.75 235.8 -65.75 238.5 -63.65 251.55 -53.2 247.8 -39.25 242.6 -25.25 224.6 -16.05 206.5 -6.9 183.2 -1.35 159.8 4.2 138.65 7.25 L105.9 11.95 Q83.0 16.3 70.2 28.3 59.0 38.85 48.9 51.3 L46.15 54.75 Q34.9 69.15 16.45 80.75 -2.0 92.3 -36.2 95.8 L-46.55 96.4 Q-85.0 97.8 -119.5 86.3 -158.75 73.2 -189.0 50.9 -219.25 28.6 -236.85 4.45 -254.5 -19.75 -255.5 -38.45 M-243.0 -36.8 Q-243.1 -54.65 -223.75 -66.45 -220.15 -68.65 -216.1 -70.7 -204.4 -76.65 -189.2 -81.1 -181.75 -83.35 -173.4 -85.2 L-155.8 -88.75 Q-132.65 -93.05 -107.3 -95.45 -72.3 -98.8 -41.05 -99.75 -9.75 -100.75 10.1 -100.55 L30.55 -100.2 53.5 -98.85 Q75.5 -97.45 107.55 -93.55 124.25 -91.6 140.65 -88.7 155.75 -86.1 170.6 -82.7 182.75 -79.95 193.1 -76.55 209.05 -71.35 220.5 -64.6 223.4 -62.65 226.3 -60.7 238.7 -50.8 235.15 -37.5 230.2 -24.2 213.1 -15.5 195.9 -6.75 173.75 -1.5 151.55 3.75 131.45 6.65 L100.35 11.1 Q78.6 15.25 66.45 26.7 55.8 36.7 46.2 48.5 L43.6 51.8 Q32.85 65.45 15.35 76.45 -2.2 87.45 -34.7 90.75 L-44.5 91.35 Q-81.0 92.7 -113.8 81.75 -151.05 69.3 -179.8 48.15 -208.6 26.9 -225.3 4.0 -242.05 -19.05 -243.0 -36.8" fill="none" stroke="#000000" stroke-linecap="round" stroke-linejoin="round" stroke-opacity="0.0" stroke-width="1.0">
      <animate attributeName="stroke" dur="2s" repeatCount="indefinite" values="#000000;#000001"/>
      <animate attributeName="stroke-width" dur="2s" repeatCount="indefinite" values="0.0;0.0"/>
      <animate attributeName="fill-opacity" dur="2s" repeatCount="indefinite" values="0.0;0.0"/>
      <animate attributeName="d" dur="2s" repeatCount="indefinite" values="M-255.5 -38.45 Q-255.6 -57.25 -235.25 -69.7 -231.2 -71.9 -227.15 -74.15 -214.85 -80.4 -198.85 -85.15 -191.0 -87.5 -182.25 -89.45 L-163.7 -93.2 Q-139.3 -97.7 -112.65 -100.25 -75.8 -103.75 -42.9 -104.75 -9.95 -105.75 10.9 -105.6 L32.45 -105.25 56.6 -103.8 Q79.75 -102.3 113.5 -98.2 131.05 -96.15 148.35 -93.15 164.2 -90.4 179.85 -86.8 192.7 -83.95 203.55 -80.35 220.3 -74.85 232.4 -67.75 235.8 -65.75 238.5 -63.65 251.55 -53.2 247.8 -39.25 242.6 -25.25 224.6 -16.05 206.5 -6.9 183.2 -1.35 159.8 4.2 138.65 7.25 L105.9 11.95 Q83.0 16.3 70.2 28.3 59.0 38.85 48.9 51.3 L46.15 54.75 Q34.9 69.15 16.45 80.75 -2.0 92.3 -36.2 95.8 L-46.55 96.4 Q-85.0 97.8 -119.5 86.3 -158.75 73.2 -189.0 50.9 -219.25 28.6 -236.85 4.45 -254.5 -19.75 -255.5 -38.45 M-243.0 -36.8 Q-243.1 -54.65 -223.75 -66.45 -220.15 -68.65 -216.1 -70.7 -204.4 -76.65 -189.2 -81.1 -181.75 -83.35 -173.4 -85.2 L-155.8 -88.75 Q-132.65 -93.05 -107.3 -95.45 -72.3 -98.8 -41.05 -99.75 -9.75 -100.75 10.1 -100.55 L30.55 -100.2 53.5 -98.85 Q75.5 -97.45 107.55 -93.55 124.25 -91.6 140.65 -88.7 155.75 -86.1 170.6 -82.7 182.75 -79.95 193.1 -76.55 209.05 -71.35 220.5 -64.6 223.4 -62.65 226.3 -60.7 238.7 -50.8 235.15 -37.5 230.2 -24.2 213.1 -15.5 195.9 -6.75 173.75 -1.5 151.55 3.75 131.45 6.65 L100.35 11.1 Q78.6 15.25 66.45 26.7 55.8 36.7 46.2 48.5 L43.6 51.8 Q32.85 65.45 15.35 76.45 -2.2 87.45 -34.7 90.75 L-44.5 91.35 Q-81.0 92.7 -113.8 81.75 -151.05 69.3 -179.8 48.15 -208.6 26.9 -225.3 4.0 -242.05 -19.05 -243.0 -36.8;M-268.95 -37.1 Q-270.1 -57.7 -249.1 -71.25 -245.15 -73.8 -240.75 -76.15 -227.95 -83.0 -211.15 -88.15 -202.9 -90.75 -193.65 -92.9 L-174.1 -97.0 Q-148.3 -101.95 -120.0 -104.7 -80.85 -108.55 -45.75 -109.65 -10.65 -110.75 11.65 -110.55 L34.65 -110.15 60.55 -108.6 Q85.35 -106.95 121.6 -102.5 140.5 -100.25 159.15 -96.95 176.25 -93.9 193.15 -90.0 207.0 -86.85 218.8 -82.95 237.05 -76.9 250.4 -69.15 254.1 -67.0 257.1 -64.65 271.65 -53.25 268.45 -37.95 263.7 -22.65 245.0 -12.6 226.25 -2.55 201.7 3.5 177.0 9.6 154.6 12.9 L119.9 18.05 Q95.7 22.8 82.75 35.95 71.4 47.5 61.35 61.1 L58.6 64.9 Q47.4 80.65 28.35 93.3 9.35 105.95 -27.0 109.8 L-38.0 110.45 Q-78.95 112.0 -116.5 99.4 -159.15 85.1 -192.75 60.7 -226.35 36.25 -246.55 9.85 -266.75 -16.65 -268.95 -37.1 M-255.5 -35.25 Q-256.6 -54.85 -236.65 -67.7 -232.9 -70.15 -228.7 -72.4 -216.55 -78.85 -200.6 -83.75 -192.75 -86.2 -183.95 -88.25 L-165.4 -92.15 Q-140.9 -96.85 -114.0 -99.45 -76.8 -103.15 -43.45 -104.15 -10.1 -105.2 11.1 -105.05 L32.95 -104.65 57.5 -103.15 Q81.1 -101.6 115.55 -97.4 133.5 -95.25 151.2 -92.1 167.45 -89.2 183.5 -85.5 196.65 -82.5 207.85 -78.8 225.2 -73.1 237.85 -65.7 241.4 -63.65 244.25 -61.4 258.05 -50.6 255.05 -36.05 250.5 -21.5 232.75 -11.95 214.95 -2.45 191.6 3.3 168.15 9.1 146.9 12.25 L113.9 17.15 Q90.95 21.65 78.65 34.15 67.85 45.15 58.3 58.05 L55.7 61.65 Q45.05 76.6 26.95 88.65 8.9 100.65 -25.65 104.3 L-36.1 104.95 Q-75.0 106.4 -110.65 94.4 -151.15 80.8 -183.1 57.65 -215.0 34.45 -234.2 9.35 -253.4 -15.85 -255.5 -35.25"/>
    </path>
  </g>
</svg>
