<?xml version="1.0" encoding="UTF-8" standalone="no"?>
<svg xmlns:xlink="http://www.w3.org/1999/xlink" height="97.0px" width="97.0px" xmlns="http://www.w3.org/2000/svg">
  <g transform="matrix(1.0, 0.0, 0.0, 1.0, 52.05, 28.1)">
    <path d="M-42.65 31.1 L-42.65 31.1 -42.65 31.15 Q-38.55 44.7 -28.3 52.55 L-23.65 55.6 Q-10.7 63.0 4.4 60.1 L7.2 59.45 Q20.75 55.35 28.55 45.15 L31.65 40.45 Q38.95 27.6 35.5 9.65 31.65 -3.2 22.3 -10.85 19.6 -13.05 16.5 -14.8 4.2 -21.8 -10.1 -19.5 L-14.3 -18.7 Q-27.9 -14.6 -35.7 -4.35 L-38.75 0.3 Q-46.75 14.4 -42.65 31.1 M-52.05 20.4 Q-51.55 41.0 -37.85 54.7 -24.15 68.35 -3.55 68.9 17.05 68.35 30.75 54.7 44.4 41.0 44.95 20.4 44.4 -0.2 30.75 -13.9 17.05 -27.6 -3.55 -28.1 -24.15 -27.6 -37.85 -13.9 -51.55 -0.2 -52.05 20.4" fill="#ee3f1a" fill-rule="evenodd" stroke="none">
      <animate attributeName="fill" dur="2s" repeatCount="indefinite" values="#ee3f1a;#ee3f1b"/>
      <animate attributeName="fill-opacity" dur="2s" repeatCount="indefinite" values="1.0;1.0"/>
      <animate attributeName="d" dur="2s" repeatCount="indefinite" values="M-42.65 31.1 L-42.65 31.1 -42.65 31.15 Q-38.55 44.7 -28.3 52.55 L-23.65 55.6 Q-10.7 63.0 4.4 60.1 L7.2 59.45 Q20.75 55.35 28.55 45.15 L31.65 40.45 Q38.95 27.6 35.5 9.65 31.65 -3.2 22.3 -10.85 19.6 -13.05 16.5 -14.8 4.2 -21.8 -10.1 -19.5 L-14.3 -18.7 Q-27.9 -14.6 -35.7 -4.35 L-38.75 0.3 Q-46.75 14.4 -42.65 31.1 M-52.05 20.4 Q-51.55 41.0 -37.85 54.7 -24.15 68.35 -3.55 68.9 17.05 68.35 30.75 54.7 44.4 41.0 44.95 20.4 44.4 -0.2 30.75 -13.9 17.05 -27.6 -3.55 -28.1 -24.15 -27.6 -37.85 -13.9 -51.55 -0.2 -52.05 20.4;M-4.95 20.8 L-4.85 20.9 -4.85 20.9 Q-4.55 21.3 -4.25 21.65 L-4.05 21.75 Q-3.6 21.8 -3.15 21.8 L-3.05 21.8 Q-2.55 21.55 -2.25 21.1 L-2.15 20.9 Q-1.95 20.5 -2.1 19.9 -2.45 19.5 -2.8 19.15 -2.9 19.1 -3.0 19.05 -3.45 19.0 -3.9 19.0 L-4.0 19.05 Q-4.55 19.2 -4.8 19.65 L-4.9 19.85 Q-4.95 20.35 -4.95 20.8 M-5.25 20.4 Q-5.25 21.1 -4.75 21.65 -4.25 22.1 -3.5 22.15 -2.8 22.1 -2.3 21.65 -1.8 21.1 -1.75 20.4 -1.8 19.65 -2.3 19.15 -2.8 18.65 -3.5 18.65 -4.25 18.65 -4.75 19.15 -5.25 19.65 -5.25 20.4"/>
    </path>
    <path d="M-40.75 30.55 L-40.75 30.55 Q-36.65 44.05 -26.2 51.6 L-22.65 53.85 Q-9.25 61.45 6.6 57.55 L7.0 57.45 Q21.65 52.85 29.2 40.65 L29.9 39.45 Q37.5 26.1 33.6 10.2 L33.4 9.65 32.95 8.25 Q28.2 -5.25 16.7 -12.35 L15.5 -13.05 Q2.15 -20.7 -14.1 -16.7 -28.8 -12.05 -37.0 1.3 -44.65 14.7 -40.7 30.6 L-40.75 30.55 M-42.65 31.1 L-42.65 31.1 -42.65 31.15 Q-38.55 44.7 -28.3 52.55 L-23.65 55.6 Q-10.7 63.0 4.4 60.1 L7.2 59.45 Q20.75 55.35 28.55 45.15 L31.65 40.45 Q38.95 27.6 35.5 9.65 31.65 -3.2 22.3 -10.85 19.6 -13.05 16.5 -14.8 4.2 -21.8 -10.1 -19.5 L-14.3 -18.7 Q-27.9 -14.6 -35.7 -4.35 L-38.75 0.3 Q-46.75 14.4 -42.65 31.1" fill="#ffffff" fill-rule="evenodd" stroke="none">
      <animate attributeName="fill" dur="2s" repeatCount="indefinite" values="#ffffff;#ffffff"/>
      <animate attributeName="fill-opacity" dur="2s" repeatCount="indefinite" values="1.0;1.0"/>
      <animate attributeName="d" dur="2s" repeatCount="indefinite" values="M-40.75 30.55 L-40.75 30.55 Q-36.65 44.05 -26.2 51.6 L-22.65 53.85 Q-9.25 61.45 6.6 57.55 L7.0 57.45 Q21.65 52.85 29.2 40.65 L29.9 39.45 Q37.5 26.1 33.6 10.2 L33.4 9.65 32.95 8.25 Q28.2 -5.25 16.7 -12.35 L15.5 -13.05 Q2.15 -20.7 -14.1 -16.7 -28.8 -12.05 -37.0 1.3 -44.65 14.7 -40.7 30.6 L-40.75 30.55 M-42.65 31.1 L-42.65 31.1 -42.65 31.15 Q-38.55 44.7 -28.3 52.55 L-23.65 55.6 Q-10.7 63.0 4.4 60.1 L7.2 59.45 Q20.75 55.35 28.55 45.15 L31.65 40.45 Q38.95 27.6 35.5 9.65 31.65 -3.2 22.3 -10.85 19.6 -13.05 16.5 -14.8 4.2 -21.8 -10.1 -19.5 L-14.3 -18.7 Q-27.9 -14.6 -35.7 -4.35 L-38.75 0.3 Q-46.75 14.4 -42.65 31.1;M-4.85 20.75 L-4.8 20.85 Q-4.5 21.25 -4.2 21.6 L-4.1 21.7 Q-3.6 21.75 -3.15 21.75 L-3.15 21.75 Q-2.6 21.55 -2.3 21.1 L-2.3 21.1 Q-2.05 20.6 -2.2 20.05 L-2.2 20.05 -2.15 20.05 Q-2.35 19.45 -2.85 19.2 L-2.85 19.2 Q-3.4 19.1 -3.9 19.05 -4.45 19.2 -4.7 19.8 -5.0 20.25 -4.85 20.75 L-4.85 20.75 M-4.95 20.8 L-4.85 20.9 -4.85 20.9 Q-4.55 21.3 -4.25 21.65 L-4.05 21.75 Q-3.6 21.8 -3.15 21.8 L-3.05 21.8 Q-2.55 21.55 -2.25 21.1 L-2.15 20.9 Q-1.95 20.5 -2.1 19.9 -2.45 19.5 -2.8 19.15 -2.9 19.1 -3.0 19.05 -3.45 19.0 -3.9 19.0 L-4.0 19.05 Q-4.55 19.2 -4.8 19.65 L-4.9 19.85 Q-4.95 20.35 -4.95 20.8"/>
    </path>
    <path d="M-52.05 20.4 Q-51.55 -0.2 -37.85 -13.9 -24.15 -27.6 -3.55 -28.1 17.05 -27.6 30.75 -13.9 44.4 -0.2 44.95 20.4 44.4 41.0 30.75 54.7 17.05 68.35 -3.55 68.9 -24.15 68.35 -37.85 54.7 -51.55 41.0 -52.05 20.4 M-42.65 31.1 Q-46.75 14.4 -38.75 0.3 L-35.7 -4.35 Q-27.9 -14.6 -14.3 -18.7 L-10.1 -19.5 Q4.2 -21.8 16.5 -14.8 19.6 -13.05 22.3 -10.85 31.65 -3.2 35.5 9.65 38.95 27.6 31.65 40.45 L28.55 45.15 Q20.75 55.35 7.2 59.45 L4.4 60.1 Q-10.7 63.0 -23.65 55.6 L-28.3 52.55 Q-38.55 44.7 -42.65 31.15 L-42.65 31.1 -42.65 31.1 Q-46.75 14.4 -38.75 0.3 L-35.7 -4.35 Q-27.9 -14.6 -14.3 -18.7 L-10.1 -19.5 Q4.2 -21.8 16.5 -14.8 19.6 -13.05 22.3 -10.85 31.65 -3.2 35.5 9.65 38.95 27.6 31.65 40.45 L28.55 45.15 Q20.75 55.35 7.2 59.45 L4.4 60.1 Q-10.7 63.0 -23.65 55.6 L-28.3 52.55 Q-38.55 44.7 -42.65 31.15 L-42.65 31.1 -42.65 31.1 M-40.75 30.55 L-40.7 30.6 Q-44.65 14.7 -37.0 1.3 -28.8 -12.05 -14.1 -16.7 2.15 -20.7 15.5 -13.05 L16.7 -12.35 Q28.2 -5.25 32.95 8.25 L33.4 9.65 33.6 10.2 Q37.5 26.1 29.9 39.45 L29.2 40.65 Q21.65 52.85 7.0 57.45 L6.6 57.55 Q-9.25 61.45 -22.65 53.85 L-26.2 51.6 Q-36.65 44.05 -40.75 30.55 L-40.75 30.55" fill="none" stroke="#000000" stroke-linecap="round" stroke-linejoin="round" stroke-opacity="0.0" stroke-width="1.0">
      <animate attributeName="stroke" dur="2s" repeatCount="indefinite" values="#000000;#000001"/>
      <animate attributeName="stroke-width" dur="2s" repeatCount="indefinite" values="0.0;0.0"/>
      <animate attributeName="fill-opacity" dur="2s" repeatCount="indefinite" values="0.0;0.0"/>
      <animate attributeName="d" dur="2s" repeatCount="indefinite" values="M-52.05 20.4 Q-51.55 -0.2 -37.85 -13.9 -24.15 -27.6 -3.55 -28.1 17.05 -27.6 30.75 -13.9 44.4 -0.2 44.95 20.4 44.4 41.0 30.75 54.7 17.05 68.35 -3.55 68.9 -24.15 68.35 -37.85 54.7 -51.55 41.0 -52.05 20.4 M-42.65 31.1 Q-46.75 14.4 -38.75 0.3 L-35.7 -4.35 Q-27.9 -14.6 -14.3 -18.7 L-10.1 -19.5 Q4.2 -21.8 16.5 -14.8 19.6 -13.05 22.3 -10.85 31.65 -3.2 35.5 9.65 38.95 27.6 31.65 40.45 L28.55 45.15 Q20.75 55.35 7.2 59.45 L4.4 60.1 Q-10.7 63.0 -23.65 55.6 L-28.3 52.55 Q-38.55 44.7 -42.65 31.15 L-42.65 31.1 -42.65 31.1 Q-46.75 14.4 -38.75 0.3 L-35.7 -4.35 Q-27.9 -14.6 -14.3 -18.7 L-10.1 -19.5 Q4.2 -21.8 16.5 -14.8 19.6 -13.05 22.3 -10.85 31.65 -3.2 35.5 9.65 38.95 27.6 31.65 40.45 L28.55 45.15 Q20.75 55.35 7.2 59.45 L4.4 60.1 Q-10.7 63.0 -23.65 55.6 L-28.3 52.55 Q-38.55 44.7 -42.65 31.15 L-42.65 31.1 -42.65 31.1 M-40.75 30.55 L-40.7 30.6 Q-44.65 14.7 -37.0 1.3 -28.8 -12.05 -14.1 -16.7 2.15 -20.7 15.5 -13.05 L16.7 -12.35 Q28.2 -5.25 32.95 8.25 L33.4 9.65 33.6 10.2 Q37.5 26.1 29.9 39.45 L29.2 40.65 Q21.65 52.85 7.0 57.45 L6.6 57.55 Q-9.25 61.45 -22.65 53.85 L-26.2 51.6 Q-36.65 44.05 -40.75 30.55 L-40.75 30.55;M-5.25 20.4 Q-5.25 19.65 -4.75 19.15 -4.25 18.65 -3.5 18.65 -2.8 18.65 -2.3 19.15 -1.8 19.65 -1.75 20.4 -1.8 21.1 -2.3 21.65 -2.8 22.1 -3.5 22.15 -4.25 22.1 -4.75 21.65 -5.25 21.1 -5.25 20.4 M-4.95 20.8 Q-4.95 20.35 -4.9 19.85 L-4.8 19.65 Q-4.55 19.2 -4.0 19.05 L-3.9 19.0 Q-3.45 19.0 -3.0 19.05 -2.9 19.1 -2.8 19.15 -2.45 19.5 -2.1 19.9 -1.95 20.5 -2.15 20.9 L-2.25 21.1 Q-2.55 21.55 -3.05 21.8 L-3.15 21.8 Q-3.6 21.8 -4.05 21.75 L-4.25 21.65 Q-4.55 21.3 -4.85 20.9 L-4.85 20.9 -4.95 20.8 Q-4.95 20.35 -4.9 19.85 L-4.8 19.65 Q-4.55 19.2 -4.0 19.05 L-3.9 19.0 Q-3.45 19.0 -3.0 19.05 -2.9 19.1 -2.8 19.15 -2.45 19.5 -2.1 19.9 -1.95 20.5 -2.15 20.9 L-2.25 21.1 Q-2.55 21.55 -3.05 21.8 L-3.15 21.8 Q-3.6 21.8 -4.05 21.75 L-4.25 21.65 Q-4.55 21.3 -4.85 20.9 L-4.85 20.9 -4.95 20.8 M-4.85 20.75 L-4.85 20.75 Q-5.0 20.25 -4.7 19.8 -4.45 19.2 -3.9 19.05 -3.4 19.1 -2.85 19.2 L-2.85 19.2 Q-2.35 19.45 -2.15 20.05 L-2.2 20.05 -2.2 20.05 Q-2.05 20.6 -2.3 21.1 L-2.3 21.1 Q-2.6 21.55 -3.15 21.75 L-3.15 21.75 Q-3.6 21.75 -4.1 21.7 L-4.2 21.6 Q-4.5 21.25 -4.8 20.85 L-4.85 20.75"/>
    </path>
  </g>
</svg>
