<?xml version="1.0" encoding="UTF-8" standalone="no"?>
<svg xmlns:xlink="http://www.w3.org/1999/xlink" height="830.2px" width="830.2px" xmlns="http://www.w3.org/2000/svg">
  <g transform="matrix(1.0, 0.0, 0.0, 1.0, 415.1, 415.1)">
    <path d="M-415.1 0.0 Q-415.1 171.95 -293.55 293.5 -171.95 415.1 0.0 415.1 171.95 415.1 293.5 293.5 415.1 171.95 415.1 0.0 415.1 -171.95 293.5 -293.55 171.95 -415.1 0.0 -415.1 -171.95 -415.1 -293.55 -293.55 -415.1 -171.95 -415.1 0.0" fill="#000000" fill-rule="evenodd" stroke="none">
      <animate attributeName="fill" dur="2s" repeatCount="indefinite" values="#000000;#000001"/>
      <animate attributeName="fill-opacity" dur="2s" repeatCount="indefinite" values="1.0;1.0"/>
      <animate attributeName="d" dur="2s" repeatCount="indefinite" values="M-415.1 0.0 Q-415.1 171.95 -293.55 293.5 -171.95 415.1 0.0 415.1 171.95 415.1 293.5 293.5 415.1 171.95 415.1 0.0 415.1 -171.95 293.5 -293.55 171.95 -415.1 0.0 -415.1 -171.95 -415.1 -293.55 -293.55 -415.1 -171.95 -415.1 0.0;M-4.95 0.0 Q-5.0 2.05 -3.5 3.5 -2.05 4.95 0.0 5.0 2.1 4.95 3.55 3.5 5.0 2.05 5.0 0.0 5.0 -2.1 3.55 -3.55 2.1 -5.0 0.0 -5.0 -2.05 -5.0 -3.5 -3.55 -5.0 -2.1 -4.95 0.0"/>
    </path>
    <path d="M-415.1 0.0 Q-415.1 -171.95 -293.55 -293.55 -171.95 -415.1 0.0 -415.1 171.95 -415.1 293.5 -293.55 415.1 -171.95 415.1 0.0 415.1 171.95 293.5 293.5 171.95 415.1 0.0 415.1 -171.95 415.1 -293.55 293.5 -415.1 171.95 -415.1 0.0" fill="none" stroke="#000000" stroke-linecap="round" stroke-linejoin="round" stroke-opacity="0.0" stroke-width="1.0">
      <animate attributeName="stroke" dur="2s" repeatCount="indefinite" values="#000000;#000001"/>
      <animate attributeName="stroke-width" dur="2s" repeatCount="indefinite" values="0.0;0.0"/>
      <animate attributeName="fill-opacity" dur="2s" repeatCount="indefinite" values="0.0;0.0"/>
      <animate attributeName="d" dur="2s" repeatCount="indefinite" values="M-415.1 0.0 Q-415.1 -171.95 -293.55 -293.55 -171.95 -415.1 0.0 -415.1 171.95 -415.1 293.5 -293.55 415.1 -171.95 415.1 0.0 415.1 171.95 293.5 293.5 171.95 415.1 0.0 415.1 -171.95 415.1 -293.55 293.5 -415.1 171.95 -415.1 0.0;M-4.95 0.0 Q-5.0 -2.1 -3.5 -3.55 -2.05 -5.0 0.0 -5.0 2.1 -5.0 3.55 -3.55 5.0 -2.1 5.0 0.0 5.0 2.05 3.55 3.5 2.1 4.95 0.0 5.0 -2.05 4.95 -3.5 3.5 -5.0 2.05 -4.95 0.0"/>
    </path>
  </g>
</svg>
