<?xml version="1.0" encoding="UTF-8" standalone="no"?>
<svg xmlns:xlink="http://www.w3.org/1999/xlink" height="732.5px" width="732.5px" xmlns="http://www.w3.org/2000/svg">
  <g transform="matrix(1.0, 0.0, 0.0, 1.0, 366.25, 366.25)">
    <path d="M-2.15 0.0 Q-2.15 0.9 -1.5 1.55 -0.9 2.15 0.0 2.15 0.9 2.15 1.55 1.55 2.15 0.9 2.15 0.0 2.15 -0.9 1.55 -1.5 0.9 -2.15 0.0 -2.15 -0.9 -2.15 -1.5 -1.5 -2.15 -0.9 -2.15 0.0" fill="#006666" fill-rule="evenodd" stroke="none">
      <animate attributeName="fill" dur="2s" repeatCount="indefinite" values="#006666;#006667"/>
      <animate attributeName="fill-opacity" dur="2s" repeatCount="indefinite" values="1.0;1.0"/>
      <animate attributeName="d" dur="2s" repeatCount="indefinite" values="M-2.15 0.0 Q-2.15 0.9 -1.5 1.55 -0.9 2.15 0.0 2.15 0.9 2.15 1.55 1.55 2.15 0.9 2.15 0.0 2.15 -0.9 1.55 -1.5 0.9 -2.15 0.0 -2.15 -0.9 -2.15 -1.5 -1.5 -2.15 -0.9 -2.15 0.0;M-366.25 0.0 Q-366.3 150.95 -258.65 258.6 -151.0 366.25 0.0 366.25 150.95 366.25 258.6 258.6 366.2 150.95 366.25 0.0 366.2 -151.0 258.6 -258.6 150.95 -366.25 0.0 -366.25 -151.0 -366.25 -258.65 -258.6 -366.3 -151.0 -366.25 0.0"/>
    </path>
    <path d="M-2.15 0.0 Q-2.15 -0.9 -1.5 -1.5 -0.9 -2.15 0.0 -2.15 0.9 -2.15 1.55 -1.5 2.15 -0.9 2.15 0.0 2.15 0.9 1.55 1.55 0.9 2.15 0.0 2.15 -0.9 2.15 -1.5 1.55 -2.15 0.9 -2.15 0.0" fill="none" stroke="#000000" stroke-linecap="round" stroke-linejoin="round" stroke-opacity="0.0" stroke-width="1.0">
      <animate attributeName="stroke" dur="2s" repeatCount="indefinite" values="#000000;#000001"/>
      <animate attributeName="stroke-width" dur="2s" repeatCount="indefinite" values="0.0;0.0"/>
      <animate attributeName="fill-opacity" dur="2s" repeatCount="indefinite" values="0.0;0.0"/>
      <animate attributeName="d" dur="2s" repeatCount="indefinite" values="M-2.15 0.0 Q-2.15 -0.9 -1.5 -1.5 -0.9 -2.15 0.0 -2.15 0.9 -2.15 1.55 -1.5 2.15 -0.9 2.15 0.0 2.15 0.9 1.55 1.55 0.9 2.15 0.0 2.15 -0.9 2.15 -1.5 1.55 -2.15 0.9 -2.15 0.0;M-366.25 0.0 Q-366.3 -151.0 -258.65 -258.6 -151.0 -366.25 0.0 -366.25 150.95 -366.25 258.6 -258.6 366.2 -151.0 366.25 0.0 366.2 150.95 258.6 258.6 150.95 366.25 0.0 366.25 -151.0 366.25 -258.65 258.6 -366.3 150.95 -366.25 0.0"/>
    </path>
  </g>
</svg>
