<?xml version="1.0" encoding="UTF-8" standalone="no"?>
<svg xmlns:xlink="http://www.w3.org/1999/xlink" height="38.55px" width="176.75px" xmlns="http://www.w3.org/2000/svg">
  <g transform="matrix(1.0, 0.0, 0.0, 1.0, 108.7, 10.0)">
    <path d="M-108.55 7.1 Q-106.05 15.3 -72.35 21.9 -38.7 28.5 -7.5 28.55 23.75 28.55 45.9 22.9 68.05 17.3 68.05 9.3 68.05 1.2 45.9 -4.45 23.75 -10.05 -7.5 -10.0 -38.7 -10.0 -74.9 -5.55 -111.05 -1.1 -108.55 7.1" fill="#000000" fill-opacity="0.2901961" fill-rule="evenodd" stroke="none">
      <animate attributeName="fill" dur="2s" repeatCount="indefinite" values="#000000;#000001"/>
      <animate attributeName="fill-opacity" dur="2s" repeatCount="indefinite" values="0.2901961;0.2901961"/>
      <animate attributeName="d" dur="2s" repeatCount="indefinite" values="M-108.55 7.1 Q-106.05 15.3 -72.35 21.9 -38.7 28.5 -7.5 28.55 23.75 28.55 45.9 22.9 68.05 17.3 68.05 9.3 68.05 1.2 45.9 -4.45 23.75 -10.05 -7.5 -10.0 -38.7 -10.0 -74.9 -5.55 -111.05 -1.1 -108.55 7.1;M-81.15 8.0 Q-78.7 15.15 -56.1 20.2 -33.55 25.2 -7.45 25.2 18.65 25.2 37.15 20.15 55.65 15.15 55.65 8.0 55.65 0.8 37.15 -4.25 18.65 -9.25 -7.45 -9.25 -33.55 -9.25 -58.6 -4.2 -83.65 0.8 -81.15 8.0"/>
    </path>
    <path d="M-108.55 7.1 Q-111.05 -1.1 -74.9 -5.55 -38.7 -10.0 -7.5 -10.0 23.75 -10.05 45.9 -4.45 68.05 1.2 68.05 9.3 68.05 17.3 45.9 22.9 23.75 28.55 -7.5 28.55 -38.7 28.5 -72.35 21.9 -106.05 15.3 -108.55 7.1" fill="none" stroke="#000000" stroke-linecap="round" stroke-linejoin="round" stroke-opacity="0.0" stroke-width="1.0">
      <animate attributeName="stroke" dur="2s" repeatCount="indefinite" values="#000000;#000001"/>
      <animate attributeName="stroke-width" dur="2s" repeatCount="indefinite" values="0.0;0.0"/>
      <animate attributeName="fill-opacity" dur="2s" repeatCount="indefinite" values="0.0;0.0"/>
      <animate attributeName="d" dur="2s" repeatCount="indefinite" values="M-108.55 7.1 Q-111.05 -1.1 -74.9 -5.55 -38.7 -10.0 -7.5 -10.0 23.75 -10.05 45.9 -4.45 68.05 1.2 68.05 9.3 68.05 17.3 45.9 22.9 23.75 28.55 -7.5 28.55 -38.7 28.5 -72.35 21.9 -106.05 15.3 -108.55 7.1;M-81.15 8.0 Q-83.65 0.8 -58.6 -4.2 -33.55 -9.25 -7.45 -9.25 18.65 -9.25 37.15 -4.25 55.65 0.8 55.65 8.0 55.65 15.15 37.15 20.15 18.65 25.2 -7.45 25.2 -33.55 25.2 -56.1 20.2 -78.7 15.15 -81.15 8.0"/>
    </path>
  </g>
</svg>
