<?xml version="1.0" encoding="UTF-8" standalone="no"?>
<svg xmlns:xlink="http://www.w3.org/1999/xlink" height="9.35px" width="9.55px" xmlns="http://www.w3.org/2000/svg">
  <g transform="matrix(1.0, 0.0, 0.0, 1.0, -7.5, -2.3)">
    <path d="M8.0 5.95 Q8.0 8.45 9.1 10.1 10.15 11.75 11.45 10.8 12.95 9.35 14.45 7.9 16.1 6.0 16.5 5.95 16.9 5.9 15.1 4.6 13.25 3.3 8.6 2.8 8.0 3.45 8.0 5.95" fill="#ff7f00" fill-rule="evenodd" stroke="none">
      <animate attributeName="fill" dur="2s" repeatCount="indefinite" values="#ff7f00;#ff7f01"/>
      <animate attributeName="fill-opacity" dur="2s" repeatCount="indefinite" values="1.0;1.0"/>
      <animate attributeName="d" dur="2s" repeatCount="indefinite" values="M8.0 5.95 Q8.0 8.45 9.1 10.1 10.15 11.75 11.45 10.8 12.95 9.35 14.45 7.9 16.1 6.0 16.5 5.95 16.9 5.9 15.1 4.6 13.25 3.3 8.6 2.8 8.0 3.45 8.0 5.95;M8.0 5.95 Q8.0 8.45 9.1 10.1 10.15 11.75 11.45 10.8 12.7 9.8 14.2 7.2 15.7 4.55 15.75 3.55 15.85 2.55 14.55 2.95 11.55 2.85 8.6 2.8 8.0 3.45 8.0 5.95"/>
    </path>
    <path d="M8.0 5.95 Q8.0 3.45 8.6 2.8 13.25 3.3 15.1 4.6 16.9 5.9 16.5 5.95 16.1 6.0 14.45 7.9 12.95 9.35 11.45 10.8 10.15 11.75 9.1 10.1 8.0 8.45 8.0 5.95 8.0 3.45 8.6 2.8 13.25 3.3 15.1 4.6 16.9 5.9 16.5 5.95 16.1 6.0 14.45 7.9 12.95 9.35 11.45 10.8 10.15 11.75 9.1 10.1 8.0 8.45 8.0 5.95" fill="none" stroke="#000000" stroke-linecap="round" stroke-linejoin="round" stroke-width="1.0">
      <animate attributeName="stroke" dur="2s" repeatCount="indefinite" values="#000000;#000001"/>
      <animate attributeName="stroke-width" dur="2s" repeatCount="indefinite" values="1.0;1.0"/>
      <animate attributeName="fill-opacity" dur="2s" repeatCount="indefinite" values="1.0;1.0"/>
      <animate attributeName="d" dur="2s" repeatCount="indefinite" values="M8.0 5.95 Q8.0 3.45 8.6 2.8 13.25 3.3 15.1 4.6 16.9 5.9 16.5 5.95 16.1 6.0 14.45 7.9 12.95 9.35 11.45 10.8 10.15 11.75 9.1 10.1 8.0 8.45 8.0 5.95 8.0 3.45 8.6 2.8 13.25 3.3 15.1 4.6 16.9 5.9 16.5 5.95 16.1 6.0 14.45 7.9 12.95 9.35 11.45 10.8 10.15 11.75 9.1 10.1 8.0 8.45 8.0 5.95;M8.0 5.95 Q8.0 3.45 8.6 2.8 11.55 2.85 14.55 2.95 15.85 2.55 15.75 3.55 15.7 4.55 14.2 7.2 12.7 9.8 11.45 10.8 10.15 11.75 9.1 10.1 8.0 8.45 8.0 5.95 8.0 3.45 8.6 2.8 11.55 2.85 14.55 2.95 15.85 2.55 15.75 3.55 15.7 4.55 14.2 7.2 12.7 9.8 11.45 10.8 10.15 11.75 9.1 10.1 8.0 8.45 8.0 5.95"/>
    </path>
  </g>
</svg>
