<?xml version="1.0" encoding="UTF-8" standalone="no"?>
<svg xmlns:xlink="http://www.w3.org/1999/xlink" height="10.7px" width="11.5px" xmlns="http://www.w3.org/2000/svg">
  <g transform="matrix(1.0, 0.0, 0.0, 1.0, 3.25, -1.15)">
    <path d="M-1.55 6.35 Q0.95 7.3 1.95 9.0 2.9 10.7 4.2 11.25 5.5 11.75 6.6 10.1 7.7 8.4 7.75 5.9 7.7 3.4 3.65 2.5 1.8 4.95 -1.15 5.2 -4.15 5.4 -1.55 6.35" fill="#ff7f00" fill-rule="evenodd" stroke="none">
      <animate attributeName="fill" dur="2s" repeatCount="indefinite" values="#ff7f00;#ff7f01"/>
      <animate attributeName="fill-opacity" dur="2s" repeatCount="indefinite" values="1.0;1.0"/>
      <animate attributeName="d" dur="2s" repeatCount="indefinite" values="M-1.55 6.35 Q0.95 7.3 1.95 9.0 2.9 10.7 4.2 11.25 5.5 11.75 6.6 10.1 7.7 8.4 7.75 5.9 7.7 3.4 3.65 2.5 1.8 4.95 -1.15 5.2 -4.15 5.4 -1.55 6.35;M-1.4 5.2 Q0.95 7.1 1.95 8.9 2.9 10.7 4.2 11.25 5.5 11.75 6.6 10.1 7.7 8.4 7.75 5.9 7.7 3.4 3.75 1.65 2.0 3.2 -0.9 3.25 -3.85 3.25 -1.4 5.2"/>
    </path>
    <path d="M-1.55 6.35 Q-4.15 5.4 -1.15 5.2 1.8 4.95 3.65 2.5 7.7 3.4 7.75 5.9 7.7 8.4 6.6 10.1 5.5 11.75 4.2 11.25 2.9 10.7 1.95 9.0 0.95 7.3 -1.55 6.35 -4.15 5.4 -1.15 5.2 1.8 4.95 3.65 2.5 7.7 3.4 7.75 5.9 7.7 8.4 6.6 10.1 5.5 11.75 4.2 11.25 2.9 10.7 1.95 9.0 0.95 7.3 -1.55 6.35" fill="none" stroke="#000000" stroke-linecap="round" stroke-linejoin="round" stroke-width="1.0">
      <animate attributeName="stroke" dur="2s" repeatCount="indefinite" values="#000000;#000001"/>
      <animate attributeName="stroke-width" dur="2s" repeatCount="indefinite" values="1.0;1.0"/>
      <animate attributeName="fill-opacity" dur="2s" repeatCount="indefinite" values="1.0;1.0"/>
      <animate attributeName="d" dur="2s" repeatCount="indefinite" values="M-1.55 6.35 Q-4.15 5.4 -1.15 5.2 1.8 4.95 3.65 2.5 7.7 3.4 7.75 5.9 7.7 8.4 6.6 10.1 5.5 11.75 4.2 11.25 2.9 10.7 1.95 9.0 0.95 7.3 -1.55 6.35 -4.15 5.4 -1.15 5.2 1.8 4.95 3.65 2.5 7.7 3.4 7.75 5.9 7.7 8.4 6.6 10.1 5.5 11.75 4.2 11.25 2.9 10.7 1.95 9.0 0.95 7.3 -1.55 6.35;M-1.4 5.2 Q-3.85 3.25 -0.9 3.25 2.0 3.2 3.75 1.65 7.7 3.4 7.75 5.9 7.7 8.4 6.6 10.1 5.5 11.75 4.2 11.25 2.9 10.7 1.95 8.9 0.95 7.1 -1.4 5.2 -3.85 3.25 -0.9 3.25 2.0 3.2 3.75 1.65 7.7 3.4 7.75 5.9 7.7 8.4 6.6 10.1 5.5 11.75 4.2 11.25 2.9 10.7 1.95 8.9 0.95 7.1 -1.4 5.2"/>
    </path>
  </g>
</svg>
