<?xml version="1.0" encoding="UTF-8" standalone="no"?>
<svg xmlns:xlink="http://www.w3.org/1999/xlink" height="89.15px" width="78.25px" xmlns="http://www.w3.org/2000/svg">
  <g transform="matrix(1.0, 0.0, 0.0, 1.0, 39.1, 44.55)">
    <path d="M-25.2 -30.35 L38.9 -30.35 38.9 44.6 -25.2 44.6 -25.2 -30.35" fill="#f7c7ae" fill-rule="evenodd" stroke="none"/>
    <path d="M-24.3 44.05 L-25.2 17.75 -2.45 17.75 Q0.5 23.65 6.7 23.65 13.2 23.65 16.15 17.75 L39.15 17.75 39.15 44.05 38.0 44.05 Q35.35 36.95 25.3 36.95 14.65 36.95 12.6 44.05 L1.1 44.05 Q-1.6 36.95 -11.6 36.95 -21.65 36.95 -24.3 44.05" fill="#152664" fill-rule="evenodd" stroke="none"/>
    <path d="M-25.5 29.25 L-25.5 18.35 -2.75 18.35 Q1.1 24.25 6.7 24.25 12.6 24.25 16.45 18.35 L39.15 18.35 39.15 29.25 -25.5 29.25" fill="#8bcfdf" fill-rule="evenodd" stroke="none"/>
    <path d="M-12.2 37.25 Q-22.55 37.25 -25.2 44.6 L-25.5 44.6 -25.5 29.25 39.15 29.25 39.15 44.6 38.9 44.6 Q36.2 37.25 25.6 37.25 15.25 37.25 12.6 44.6 L1.1 44.6 Q-1.6 37.25 -12.2 37.25" fill="#19519d" fill-rule="evenodd" stroke="none"/>
    <path d="M-25.2 44.6 Q-22.55 37.25 -12.2 37.25 -1.6 37.25 1.1 44.6 L-25.2 44.6" fill="#000000" fill-rule="evenodd" stroke="none"/>
    <path d="M25.6 37.25 Q36.2 37.25 38.9 44.6 L12.6 44.6 Q15.25 37.25 25.6 37.25" fill="#000000" fill-rule="evenodd" stroke="none"/>
    <path d="M38.9 -30.65 L38.9 -13.55 Q10.25 15.4 -25.2 -13.25 L-25.5 -30.65 38.9 -30.65" fill="#152664" fill-rule="evenodd" stroke="none"/>
    <path d="M38.9 -30.35 L38.9 -13.85 Q11.7 13.6 -25.2 -13.85 L-25.5 -30.65 38.9 -30.35" fill="#19519d" fill-rule="evenodd" stroke="none"/>
    <path d="M-25.2 -13.85 Q11.7 -3.5 38.9 -14.7 10.25 -1.45 -25.2 -13.85" fill="#152664" fill-rule="evenodd" stroke="none"/>
    <path d="M-9.25 18.05 L-9.25 32.8 -12.8 32.8 -12.8 18.05 -9.25 18.05" fill="#19519d" fill-rule="evenodd" stroke="none"/>
    <path d="M24.4 18.05 L24.4 32.8 21.15 32.8 21.15 18.05 24.4 18.05" fill="#19519d" fill-rule="evenodd" stroke="none"/>
    <path d="M-9.25 24.55 Q-9.25 29.25 -4.25 29.25 -1.0 29.25 -9.85 29.55 L-9.25 24.55" fill="#19519d" fill-rule="evenodd" stroke="none"/>
    <path d="M21.15 24.85 L21.75 29.85 Q12.6 29.25 16.15 29.25 21.15 29.25 21.15 24.85" fill="#19519d" fill-rule="evenodd" stroke="none"/>
    <path d="M-12.8 24.55 L-12.2 29.55 Q-21.05 29.25 -17.8 29.25 -12.8 29.25 -12.8 24.55" fill="#19519d" fill-rule="evenodd" stroke="none"/>
    <path d="M24.4 24.85 Q24.7 29.25 29.7 29.25 32.95 29.25 24.1 29.85 L24.4 24.85" fill="#19519d" fill-rule="evenodd" stroke="none"/>
    <path d="M-25.5 -30.65 L-25.5 44.3 -39.1 27.5 -39.1 -44.25 -25.5 -30.65" fill="#caa08b" fill-rule="evenodd" stroke="none"/>
    <path d="M-25.5 34.6 L-39.1 18.05 -39.1 1.8 -25.5 17.75 -25.5 34.6" fill="#152664" fill-rule="evenodd" stroke="none"/>
    <path d="M-39.1 27.2 L-39.1 12.75 -25.5 28.95 -25.5 44.3 -39.1 27.2" fill="#193f77" fill-rule="evenodd" stroke="none"/>
    <path d="M-25.5 18.35 L-25.5 28.95 -39.1 12.75 -39.1 2.4 -25.5 18.35" fill="#77a9cf" fill-rule="evenodd" stroke="none"/>
    <path d="M-25.5 -13.55 L-39.1 -28.0 -39.1 -44.25 -25.5 -30.65 -25.5 -13.55" fill="#152664" fill-rule="evenodd" stroke="none"/>
    <path d="M-25.5 -14.1 L-39.1 -28.6 -39.1 -44.25 -25.5 -30.65 -25.5 -14.1" fill="#193f77" fill-rule="evenodd" stroke="none"/>
    <path d="M-28.75 32.5 L-27.55 21.9 -27.0 23.35 -28.15 34.0 -28.45 33.4 -28.75 32.5" fill="#000000" fill-rule="evenodd" stroke="none"/>
    <path d="M-28.45 24.55 Q-26.7 26.9 -27.25 30.75 -27.25 35.15 -28.75 32.2 L-28.45 24.55" fill="#f7c7ae" fill-rule="evenodd" stroke="none"/>
    <path d="M-28.15 24.25 L-27.85 25.45 Q-28.15 26.0 -28.15 25.45 L-28.45 24.25 Q-28.15 23.95 -28.15 24.25" fill="#f7c7ae" fill-rule="evenodd" stroke="none"/>
    <path d="M-28.75 32.2 L-30.8 28.1 -31.4 21.0 -29.05 23.65 -28.45 24.55 -28.75 32.2" fill="#77a9cf" fill-rule="evenodd" stroke="none"/>
    <path d="M-26.1 22.2 L-26.1 24.85 Q-26.1 25.15 -26.4 25.15 L-28.15 21.6 Q-28.45 21.3 -28.45 20.4 L-28.45 18.95 -28.15 18.65 -26.1 22.2" fill="#000000" fill-rule="evenodd" stroke="none"/>
    <path d="M-25.5 -30.65 L-39.1 -44.25 18.8 -44.55 38.9 -30.65 -25.5 -30.65" fill="#1962ac" fill-rule="evenodd" stroke="none"/>
    <path d="M-9.85 9.4 Q-9.4 10.3 0.05 13.1 9.65 15.85 23.55 9.55" fill="none" stroke="#000000" stroke-linecap="round" stroke-linejoin="round" stroke-width="0.5"/>
  </g>
</svg>
