<?xml version="1.0" encoding="UTF-8" standalone="no"?>
<svg xmlns:xlink="http://www.w3.org/1999/xlink" height="39.4px" width="47.1px" xmlns="http://www.w3.org/2000/svg">
  <g transform="matrix(1.0, 0.0, 0.0, 1.0, 23.55, 19.7)">
    <path d="M-7.55 -19.05 L-7.75 -19.7 Q-2.25 -17.95 2.9 -17.65 L7.05 -18.45 12.6 -19.35 Q10.6 -16.4 12.2 -16.25 L15.5 -16.6 Q19.3 -17.3 20.25 -10.15 L19.5 -10.7 Q18.4 -11.45 17.6 -11.3 L16.55 -10.95 16.75 -10.85 20.25 -7.7 Q23.5 -4.6 23.55 -0.65 L22.85 -1.45 Q21.35 -2.95 19.85 -2.85 L17.9 -2.55 18.2 -2.35 19.95 0.45 Q21.6 3.4 19.75 9.25 L19.55 8.35 Q18.75 5.45 17.65 4.75 16.4 3.95 16.3 4.1 L16.4 4.75 16.05 8.45 Q15.55 12.55 11.35 17.9 L11.35 17.55 Q11.2 12.35 9.85 11.1 8.45 9.75 8.25 10.0 L8.2 10.6 7.65 12.55 Q7.05 14.3 4.9 15.65 L3.25 16.5 Q1.95 11.9 0.55 12.25 -0.1 12.4 -0.6 12.85 L-1.85 14.5 -2.9 16.7 -3.15 16.35 -4.55 14.8 Q-6.05 13.15 -7.45 13.45 -7.75 13.5 -7.95 13.85 -8.7 14.95 -8.4 19.3 L-9.05 18.65 Q-12.7 15.05 -12.75 13.6 -12.8 12.0 -12.45 12.05 L-13.95 12.4 -14.5 12.8 Q-15.35 13.65 -15.6 16.15 L-16.05 15.5 Q-18.6 11.55 -18.45 7.55 -18.3 3.2 -18.05 2.85 -18.05 2.6 -19.15 2.65 -19.55 2.7 -20.2 3.25 -21.25 4.15 -22.9 6.6 L-22.9 6.2 Q-23.15 1.3 -21.5 -1.35 -19.8 -4.1 -19.2 -5.7 -19.95 -6.35 -20.9 -5.5 L-22.25 -3.75 -22.15 -4.4 Q-21.55 -7.65 -20.0 -8.95 L-19.05 -9.55 Q-18.3 -9.85 -17.75 -10.2 -16.35 -11.05 -15.9 -12.2 -16.1 -14.05 -17.3 -13.5 L-19.8 -12.4 Q-19.85 -15.0 -18.35 -16.2 L-17.15 -16.9 Q-14.5 -17.95 -14.0 -17.85 L-9.45 -17.5 -8.3 -17.6 Q-7.35 -17.95 -7.55 -19.05" fill="#ffffff" fill-rule="evenodd" stroke="none"/>
    <path d="M-7.55 -19.05 Q-7.35 -17.95 -8.3 -17.6 -7.9 -18.15 -8.35 -19.3 L-7.55 -19.05 M-18.35 -16.2 Q-19.85 -15.0 -19.8 -12.4 L-17.3 -13.5 Q-16.1 -14.05 -15.9 -12.2 -16.35 -11.05 -17.75 -10.2 -16.85 -10.9 -16.5 -11.8 -16.7 -13.65 -17.9 -13.1 L-20.4 -12.0 Q-20.45 -15.1 -18.35 -16.2 M-20.0 -8.95 Q-21.55 -7.65 -22.15 -4.4 L-22.85 -3.35 Q-22.2 -7.7 -20.0 -8.95 M-20.9 -5.5 Q-19.95 -6.35 -19.2 -5.7 -19.8 -4.1 -21.5 -1.35 -23.15 1.3 -22.9 6.2 L-23.5 7.05 Q-23.8 1.8 -22.1 -0.95 -20.4 -3.7 -19.8 -5.3 -20.3 -5.75 -20.9 -5.5 M-20.2 3.25 Q-19.55 2.7 -19.15 2.65 -18.05 2.6 -18.05 2.85 -18.3 3.2 -18.45 7.55 -18.6 11.55 -16.05 15.5 L-16.2 16.55 Q-19.2 12.3 -19.05 7.95 -18.9 3.6 -18.65 3.25 L-19.75 3.1 -20.2 3.25 M-14.5 12.8 L-13.95 12.4 -12.45 12.05 Q-12.8 12.0 -12.75 13.6 -12.7 15.05 -9.05 18.65 L-9.0 19.7 Q-13.3 15.6 -13.35 14.0 -13.4 12.4 -13.05 12.45 L-14.5 12.8 M-7.95 13.85 Q-7.75 13.5 -7.45 13.45 -6.05 13.15 -4.55 14.8 L-3.15 16.35 -3.5 17.1 Q-3.6 16.8 -5.15 15.2 -6.6 13.6 -7.95 13.85 M-0.6 12.85 Q-0.1 12.4 0.55 12.25 1.95 11.9 3.25 16.5 L4.9 15.65 2.65 16.9 Q1.35 12.3 -0.05 12.65 L-0.6 12.85 M8.2 10.6 L8.25 10.0 Q8.45 9.75 9.85 11.1 11.2 12.35 11.35 17.55 L10.75 18.3 Q10.65 12.8 9.25 11.5 L8.2 10.6 M16.4 4.75 L16.3 4.1 Q16.4 3.95 17.65 4.75 18.75 5.45 19.55 8.35 L19.15 9.65 Q18.3 5.95 17.05 5.15 L16.4 4.75 M18.2 -2.35 L17.9 -2.55 19.85 -2.85 Q21.35 -2.95 22.85 -1.45 L22.95 -0.25 Q21.1 -2.6 19.25 -2.45 L18.2 -2.35 M16.75 -10.85 L16.55 -10.95 17.6 -11.3 Q18.4 -11.45 19.5 -10.7 L19.65 -9.75 Q18.05 -11.1 17.0 -10.9 L16.75 -10.85" fill="#540a4e" fill-rule="evenodd" stroke="none"/>
  </g>
</svg>
