<?xml version="1.0" encoding="UTF-8" standalone="no"?>
<svg xmlns:xlink="http://www.w3.org/1999/xlink" height="223.8px" width="592.35px" xmlns="http://www.w3.org/2000/svg">
  <g transform="matrix(1.0, 0.0, 0.0, 1.0, 296.15, 81.6)">
    <path d="M296.1 110.35 L-54.3 124.85 -123.95 80.75 231.0 74.65 296.1 110.35" fill="#cacaca" fill-rule="evenodd" stroke="none"/>
    <path d="M295.9 110.2 L296.2 127.7 -54.5 142.2 -54.4 124.7 295.9 110.2" fill="#b3b3b3" fill-rule="evenodd" stroke="none"/>
    <path d="M-124.3 97.4 L-123.65 80.55 Q-89.0 102.65 -54.4 124.7 L-54.5 142.2 -124.3 97.4" fill="#8d8d8d" fill-rule="evenodd" stroke="none"/>
    <path d="M114.5 -76.15 L124.25 109.05 -53.85 115.2 -48.8 -81.3 114.5 -76.15" fill="#b3b3b3" fill-rule="evenodd" stroke="none"/>
    <path d="M-48.85 -81.6 L-53.9 115.65 Q-68.95 105.15 -84.05 94.6 L-78.05 -58.15 -48.85 -81.6" fill="#8d8d8d" fill-rule="evenodd" stroke="none"/>
    <path d="M-76.75 -40.3 L-75.35 -77.45 -51.95 -77.45 -52.95 -40.3 -76.75 -40.3" fill="#acaca7" fill-rule="evenodd" stroke="none"/>
    <path d="M-92.8 -74.35 L-95.3 -38.2 -118.0 -39.1 -116.5 -76.15 -92.8 -74.35" fill="#8d8d8d" fill-rule="evenodd" stroke="none"/>
    <path d="M-75.35 -78.1 L-76.1 -40.6 -95.1 -38.05 -92.8 -74.4 -75.35 -78.1" fill="#b3b3b3" fill-rule="evenodd" stroke="none"/>
    <path d="M-75.65 -40.55 L-52.95 -40.3 -81.55 31.1 -78.75 -39.95 -75.65 -40.55" fill="#807f7f" fill-rule="evenodd" stroke="none"/>
    <path d="M-61.25 81.1 L-64.85 107.8 -76.9 99.95 -75.2 82.3 -61.25 81.1" fill="#807f7f" fill-rule="evenodd" stroke="none"/>
    <path d="M271.9 103.35 L146.4 107.35 123.45 89.1 122.85 81.85 228.4 79.35 271.9 103.35" fill="#000000" fill-rule="evenodd" stroke="none"/>
    <path d="M-150.1 125.65 L-147.15 82.15 -130.0 82.0 -132.65 125.7 -150.1 125.65" fill="#b3b3b3" fill-rule="evenodd" stroke="none"/>
    <path d="M-155.6 79.6 L-147.15 82.1 -150.1 125.8 -158.55 121.2 -155.6 79.6" fill="#8d8d8d" fill-rule="evenodd" stroke="none"/>
    <path d="M-147.15 82.1 L-130.0 82.0 -147.6 88.45 -147.15 82.1" fill="#8d8d8d" fill-rule="evenodd" stroke="none"/>
    <path d="M-165.95 76.55 L-164.25 53.9 -149.7 59.9 -151.3 82.65 -165.95 76.55" fill="#000000" fill-rule="evenodd" stroke="none"/>
    <path d="M-60.45 60.1 L-61.15 82.55 -151.7 82.55 -150.2 59.9 -60.45 60.1" fill="#c00000" fill-rule="evenodd" stroke="none"/>
    <path d="M-60.25 60.0 L-149.95 60.0 -164.6 53.6 -77.45 53.6 -60.25 60.0" fill="#ff0000" fill-rule="evenodd" stroke="none"/>
    <path d="M-153.45 60.1 L-155.05 82.55 -285.0 82.55 -282.15 59.9 -153.45 60.1" fill="#c00000" fill-rule="evenodd" stroke="none"/>
    <path d="M-153.2 60.0 L-281.85 60.0 -296.15 53.6 -170.15 53.6 -153.2 60.0" fill="#ff0000" fill-rule="evenodd" stroke="none"/>
    <path d="M-93.3 117.7 L-91.75 101.2 -76.4 100.0 -64.85 107.8 -81.55 107.4 -82.35 124.2 -133.75 125.3 -132.75 116.7 -93.3 117.7" fill="#000000" fill-opacity="0.2" fill-rule="evenodd" stroke="none"/>
    <path d="M-202.15 119.05 L-158.95 119.45 -152.15 125.95 -202.6 126.55 -202.15 119.05" fill="#000000" fill-opacity="0.2" fill-rule="evenodd" stroke="none"/>
  </g>
</svg>
