<?xml version="1.0" encoding="UTF-8" standalone="no"?>
<svg xmlns:xlink="http://www.w3.org/1999/xlink" height="158.75px" width="159.1px" xmlns="http://www.w3.org/2000/svg">
  <g transform="matrix(1.0, 0.0, 0.0, 1.0, 44.2, 55.9)">
    <path d="M60.85 -31.0 L60.9 -25.4 59.5 -23.95 58.7 -55.9 74.75 -39.9 74.0 -38.25 60.25 -54.2 60.25 -53.95 60.85 -31.0 M-1.6 -31.0 L-1.7 -25.2 -3.15 -23.7 -3.05 -43.7 13.0 -55.7 12.2 -54.05 -1.55 -42.0 -1.6 -31.0" fill="#8d8d8d" fill-rule="evenodd" stroke="none"/>
    <path d="M73.8 -37.95 L74.75 -25.75 61.0 -25.75 73.8 -37.95 M12.2 -54.05 L12.15 -25.75 -1.6 -25.75 12.2 -54.05" fill="#ff0000" fill-rule="evenodd" stroke="none"/>
    <path d="M60.25 -53.95 L73.8 -37.95 61.0 -25.75 60.85 -31.0 60.25 -53.95 M-1.6 -25.75 L-1.6 -31.0 -1.55 -42.0 12.2 -54.05 -1.6 -25.75" fill="#c00000" fill-rule="evenodd" stroke="none"/>
    <path d="M106.8 61.85 L112.2 96.05 -40.75 100.6 -38.55 60.7 106.8 61.85" fill="#000000" fill-rule="evenodd" stroke="none"/>
    <path d="M-44.2 102.85 L-40.75 100.6 112.2 96.05 106.8 63.45 106.85 63.4 107.0 63.15 108.75 60.25 114.9 97.35 -44.2 102.85" fill="#cdc5cd" fill-rule="evenodd" stroke="none"/>
    <path d="M-44.2 102.85 L-41.15 58.65 108.75 60.1 107.0 63.15 106.85 63.4 106.8 63.45 -38.55 62.3 -40.75 100.6 -44.2 102.85" fill="#8d8d8d" fill-rule="evenodd" stroke="none"/>
  </g>
</svg>
