<?xml version="1.0" encoding="UTF-8" standalone="no"?>
<svg xmlns:xlink="http://www.w3.org/1999/xlink" height="49.6px" width="61.55px" xmlns="http://www.w3.org/2000/svg">
  <g transform="matrix(1.0, 0.0, 0.0, 1.0, 30.75, 34.05)">
    <path d="M-13.2 14.6 L-12.65 15.05 -13.2 15.05 -13.2 14.6" fill="#8bd3e5" fill-rule="evenodd" stroke="none"/>
    <path d="M-30.75 -33.55 L-12.65 -19.05 -12.65 15.05 -13.2 14.6 -30.75 0.55 -30.75 -33.55" fill="#339900" fill-rule="evenodd" stroke="none"/>
    <path d="M-30.75 -33.55 L10.3 -34.05 30.8 -19.05 30.8 15.05 -12.65 15.05 -12.65 -19.05 -30.75 -33.55" fill="#33cc00" fill-rule="evenodd" stroke="none"/>
    <path d="M7.3 15.55 L7.3 -18.55 -10.75 -33.55 -5.25 -33.55 12.3 -19.05 12.3 15.55 7.3 15.55" fill="#ffff00" fill-rule="evenodd" stroke="none"/>
    <path d="M-20.75 -25.5 L-24.2 -28.05 18.35 -28.05 22.3 -25.5 -20.75 -25.5" fill="#ffff00" fill-rule="evenodd" stroke="none"/>
    <path d="M-20.75 -25.5 L-20.75 8.1 -24.2 6.05 -24.2 -28.05 -20.75 -25.5" fill="#d7d200" fill-rule="evenodd" stroke="none"/>
  </g>
</svg>
