<?xml version="1.0" encoding="UTF-8" standalone="no"?>
<svg xmlns:xlink="http://www.w3.org/1999/xlink" height="49.6px" width="61.55px" xmlns="http://www.w3.org/2000/svg">
  <g transform="matrix(1.0, 0.0, 0.0, 1.0, 30.75, 34.05)">
    <path d="M-30.75 -33.55 L10.3 -34.05 30.8 -19.05 30.8 15.05 -12.65 15.05 -12.65 -19.05 -30.75 -33.55" fill="#ffff00" fill-rule="evenodd" stroke="none"/>
    <path d="M-13.2 14.6 L-12.65 15.05 -13.2 15.05 -13.2 14.6" fill="#ff9900" fill-rule="evenodd" stroke="none"/>
    <path d="M-30.75 -33.55 L-12.65 -19.05 -12.65 15.05 -13.2 14.6 -30.75 0.55 -30.75 -33.55" fill="#ffcc00" fill-rule="evenodd" stroke="none"/>
    <path d="M22.35 -25.5 L4.5 -25.5 12.35 -19.05 12.35 15.55 7.35 15.55 7.35 -18.5 -1.05 -25.5 -20.75 -25.5 -20.75 8.1 -24.2 6.05 -24.2 -28.0 -4.05 -28.0 -10.7 -33.55 -5.2 -33.55 1.45 -28.0 18.35 -28.0 22.35 -25.5" fill="#0066cc" fill-rule="evenodd" stroke="none"/>
  </g>
</svg>
