<?xml version="1.0" encoding="UTF-8" standalone="no"?>
<svg xmlns:xlink="http://www.w3.org/1999/xlink" height="104.65px" width="81.7px" xmlns="http://www.w3.org/2000/svg">
  <g transform="matrix(1.0, 0.0, 0.0, 1.0, 40.85, 52.3)">
    <path d="M-7.4 -45.15 L-6.65 -46.3 2.8 -46.3 3.9 -45.15 -7.4 -45.15" fill="#fec758" fill-rule="evenodd" stroke="none"/>
    <path d="M6.25 -45.15 L6.95 -46.3 16.45 -46.3 17.55 -45.15 6.25 -45.15" fill="#fec758" fill-rule="evenodd" stroke="none"/>
    <path d="M27.45 -45.9 L33.55 -50.35 38.7 -42.35 33.4 -38.2 27.45 -45.9" fill="#ed9742" fill-rule="evenodd" stroke="none"/>
    <path d="M30.55 -14.5 L40.65 -14.5 40.65 26.45 30.55 26.45 30.55 -14.5" fill="#f7dbc6" fill-rule="evenodd" stroke="none"/>
    <path d="M-40.15 -30.3 L30.6 -30.3 30.6 52.35 -40.15 52.35 -40.15 -30.3" fill="#fdc8ae" fill-rule="evenodd" stroke="none"/>
    <path d="M30.55 41.95 L30.55 52.35 -39.95 52.35 -39.95 41.95 30.55 41.95" fill="#000000" fill-rule="evenodd" stroke="none"/>
    <path d="M15.5 43.75 Q4.6 44.3 1.5 51.7 L-10.95 51.7 Q-14.05 44.3 -24.95 43.75 -35.8 44.3 -38.9 51.7 L-40.2 51.7 -40.2 22.9 -15.0 22.9 Q-11.75 28.95 -4.75 29.3 2.3 28.95 5.5 22.9 L30.65 22.9 30.65 51.7 29.45 51.7 Q26.35 44.3 15.5 43.75" fill="#730001" fill-rule="evenodd" stroke="none"/>
    <path d="M30.75 23.55 L30.75 52.35 30.5 52.35 Q27.25 44.95 16.1 44.4 4.9 44.95 1.7 52.35 L-11.15 52.35 Q-14.4 44.95 -25.55 44.4 -36.75 44.95 -39.95 52.35 L-40.25 52.35 -40.15 23.55 -15.3 23.55 Q-13.1 28.9 -4.75 29.8 3.5 28.9 5.8 23.55 L30.75 23.55" fill="#920f74" fill-rule="evenodd" stroke="none"/>
    <path d="M-25.15 21.55 Q-21.85 21.85 -21.5 25.15 -21.85 28.45 -25.15 28.75 -27.25 28.7 -28.25 26.95 -29.3 28.7 -31.4 28.75 -33.3 28.7 -34.35 27.2 -35.4 28.7 -37.35 28.75 -39.0 28.7 -40.05 27.55 L-40.15 22.9 Q-39.1 21.6 -37.35 21.55 -35.4 21.6 -34.35 23.15 -33.3 21.65 -31.4 21.55 -29.3 21.65 -28.25 23.35 -27.2 21.65 -25.15 21.55" fill="#540a4e" fill-rule="evenodd" stroke="none"/>
    <path d="M30.55 22.65 L30.75 27.85 30.2 27.2 Q29.15 28.7 27.2 28.75 25.5 28.7 24.45 27.45 23.4 28.7 21.65 28.75 18.35 28.45 18.05 25.15 18.35 21.85 21.65 21.55 23.4 21.6 24.45 22.85 25.5 21.6 27.2 21.55 29.15 21.6 30.2 23.15 L30.55 22.65" fill="#540a4e" fill-rule="evenodd" stroke="none"/>
    <path d="M-25.15 20.45 Q-21.85 20.75 -21.5 24.05 -21.85 27.35 -25.15 27.65 -27.25 27.6 -28.25 25.85 -29.3 27.6 -31.4 27.65 -33.3 27.6 -34.35 26.1 -35.4 27.6 -37.35 27.65 -39.0 27.65 -40.05 26.45 L-40.15 21.8 Q-39.1 20.5 -37.35 20.45 -35.4 20.5 -34.35 22.05 -33.3 20.5 -31.4 20.45 -29.3 20.55 -28.25 22.25 -27.2 20.55 -25.15 20.45" fill="#540a4e" fill-rule="evenodd" stroke="none"/>
    <path d="M30.5 21.6 L30.65 26.6 30.2 26.1 Q29.15 27.6 27.2 27.65 25.5 27.6 24.45 26.35 23.4 27.6 21.65 27.65 18.35 27.35 18.05 24.05 18.35 20.75 21.65 20.45 23.4 20.5 24.45 21.75 25.5 20.5 27.2 20.45 29.15 20.5 30.2 22.05 L30.5 21.6" fill="#540a4e" fill-rule="evenodd" stroke="none"/>
    <path d="M-25.15 21.0 Q-21.85 21.3 -21.5 24.6 -21.8 27.9 -25.15 28.2 -27.2 28.15 -28.25 26.4 -29.3 28.15 -31.35 28.2 -33.3 28.15 -34.35 26.65 -35.4 28.15 -37.35 28.2 -39.0 28.15 -40.05 27.0 L-40.15 22.35 Q-39.1 21.05 -37.35 21.0 -35.4 21.05 -34.35 22.6 -33.3 21.1 -31.35 21.0 -29.3 21.1 -28.25 22.8 -27.2 21.1 -25.15 21.0" fill="#ffffff" fill-rule="evenodd" stroke="none"/>
    <path d="M30.6 22.1 L30.65 27.2 30.2 26.65 Q29.15 28.15 27.2 28.2 25.5 28.15 24.45 26.9 23.4 28.15 21.65 28.2 18.35 27.9 18.05 24.6 18.35 21.3 21.65 21.0 23.4 21.05 24.45 22.3 25.5 21.05 27.2 21.0 29.15 21.05 30.2 22.6 L30.6 22.1" fill="#ffffff" fill-rule="evenodd" stroke="none"/>
    <path d="M30.25 -26.75 L30.35 -7.9 Q28.45 -9.6 26.8 -8.05 L25.1 -6.1 Q24.65 -6.65 21.9 -7.95 19.15 -9.2 19.5 -4.5 15.1 -7.0 15.05 -8.0 15.0 -8.95 15.3 -8.9 L13.8 -8.7 Q12.45 -8.4 12.1 -6.45 10.55 -7.55 9.95 -8.85 8.85 -7.2 6.3 -5.4 6.15 -8.7 4.75 -9.5 L3.1 -10.15 Q3.25 -10.0 2.45 -8.6 1.7 -7.2 -2.0 -6.2 -4.05 -10.05 -6.05 -8.35 L-8.25 -6.1 Q-8.7 -6.65 -11.45 -7.95 -14.2 -9.2 -13.85 -4.5 -18.25 -7.0 -18.3 -8.0 -18.35 -8.95 -18.05 -8.9 L-19.55 -8.7 Q-20.9 -8.4 -21.25 -6.45 -22.75 -7.55 -23.4 -8.85 -24.5 -7.2 -27.05 -5.4 -27.15 -8.7 -28.6 -9.5 L-30.25 -10.15 Q-30.05 -10.0 -30.85 -8.6 -31.65 -7.2 -35.3 -6.2 -37.6 -10.25 -39.7 -8.15 L-40.05 -27.05 -35.7 -26.8 -31.45 -27.25 -25.8 -27.8 Q-27.65 -26.2 -26.5 -26.0 L-23.6 -26.05 Q-20.35 -27.0 -19.55 -26.85 L-14.95 -26.7 Q-12.3 -26.6 -13.2 -28.0 -7.6 -26.95 -2.35 -26.8 L1.9 -27.25 7.55 -27.8 Q5.65 -26.2 6.85 -26.0 L9.75 -26.05 Q13.0 -27.0 13.75 -26.85 L18.4 -26.7 Q21.05 -26.6 20.15 -28.0 L30.25 -26.75" fill="#540a4e" fill-rule="evenodd" stroke="none"/>
    <path d="M20.3 -28.7 L30.3 -27.45 30.5 -8.6 Q28.6 -10.3 27.0 -8.75 L25.25 -6.8 Q24.8 -7.35 22.05 -8.65 19.3 -9.9 19.65 -5.2 15.25 -7.7 15.2 -8.7 15.15 -9.65 15.5 -9.6 L13.95 -9.4 Q12.6 -9.1 12.25 -7.15 10.75 -8.25 10.1 -9.55 9.0 -7.9 6.45 -6.1 6.35 -9.4 4.9 -10.2 3.45 -11.0 3.25 -10.85 3.45 -10.7 2.65 -9.3 1.85 -7.9 -1.8 -6.9 -3.85 -10.75 -5.9 -9.05 L-8.1 -6.8 Q-8.55 -7.35 -11.3 -8.65 -14.05 -9.9 -13.7 -5.2 -18.1 -7.7 -18.15 -8.7 -18.2 -9.65 -17.85 -9.6 L-19.35 -9.4 Q-20.7 -9.1 -21.05 -7.15 -22.6 -8.25 -23.25 -9.55 -24.3 -7.9 -26.9 -6.1 -27.0 -9.4 -28.45 -10.2 -29.85 -11.0 -30.05 -10.85 -29.9 -10.7 -30.7 -9.3 -31.5 -7.9 -35.15 -6.9 -36.3 -9.4 -37.6 -9.45 -38.9 -9.5 -39.9 -8.55 L-40.85 -27.85 -35.55 -27.5 -31.3 -27.95 -25.65 -28.5 Q-27.5 -26.9 -26.35 -26.7 L-23.4 -26.75 -19.4 -27.55 -14.8 -27.4 Q-12.1 -27.3 -13.05 -28.7 -7.4 -27.65 -2.2 -27.5 L2.05 -27.95 7.7 -28.5 Q5.85 -26.9 7.0 -26.7 L9.9 -26.75 Q13.15 -27.7 13.95 -27.55 L18.55 -27.4 Q21.2 -27.3 20.3 -28.7" fill="#ffffff" fill-rule="evenodd" stroke="none"/>
    <path d="M40.85 -27.5 L40.35 -10.2 Q40.5 -10.05 39.7 -8.65 38.9 -7.25 35.25 -6.3 34.1 -8.75 32.8 -8.8 31.5 -8.9 30.5 -7.9 L29.55 -27.25 34.85 -26.85 40.85 -27.5" fill="#540a4e" fill-rule="evenodd" stroke="none"/>
    <path d="M40.8 -28.35 L40.3 -11.05 Q40.45 -10.9 39.65 -9.5 38.85 -8.1 35.2 -7.15 34.05 -9.6 32.75 -9.65 31.45 -9.75 30.45 -8.75 L29.5 -28.1 34.8 -27.7 40.8 -28.35" fill="#ffffff" fill-rule="evenodd" stroke="none"/>
    <path d="M40.75 -30.25 L40.75 -18.95 30.2 -11.55 -2.55 -11.55 Q-23.7 -11.25 -32.2 -11.4 L-40.4 -11.55 -40.4 -30.25 -2.5 -30.5 -2.5 -30.25 40.75 -30.25" fill="#9b761b" fill-rule="evenodd" stroke="none"/>
    <path d="M-26.55 -30.55 L-26.75 -30.55 -26.65 -30.45 -26.55 -30.55 M30.7 -52.25 L30.6 -12.0 1.9 -12.0 -27.0 -12.0 -40.15 -12.0 -40.25 -52.1 -28.55 -40.4 -16.7 -52.25 -4.85 -40.4 7.0 -52.25 18.85 -40.4 30.7 -52.25 M19.8 -30.55 L19.85 -30.5 19.9 -30.55 19.8 -30.55" fill="#edb329" fill-rule="evenodd" stroke="none"/>
    <path d="M33.5 -41.05 L36.2 -52.0 38.65 -41.85 40.8 -51.65 40.75 -19.55 34.0 -14.7 30.55 -12.25 30.5 -52.3 33.5 -41.05 M33.95 -31.95 L33.95 -31.85 34.0 -31.95 33.95 -31.95" fill="#edb329" fill-rule="evenodd" stroke="none"/>
    <path d="M30.45 52.35 L30.7 23.55 40.65 18.55 40.65 45.4 30.45 52.35" fill="#a5218c" fill-rule="evenodd" stroke="none"/>
    <path d="M37.65 16.6 Q39.3 15.8 40.15 16.9 L40.65 15.95 40.5 21.4 40.45 21.4 40.45 22.5 40.15 22.25 Q39.3 24.3 37.65 25.25 L35.3 25.15 Q34.4 26.9 32.95 27.75 L30.55 27.6 30.55 21.85 Q31.45 20.0 32.95 19.1 L35.3 19.2 Q36.2 17.45 37.65 16.6" fill="#540a4e" fill-rule="evenodd" stroke="none"/>
    <path d="M40.65 21.8 L40.3 21.45 Q39.4 23.45 37.7 24.35 L35.3 24.25 Q34.4 25.95 32.9 26.8 L30.5 26.65 30.5 22.1 Q31.4 20.4 32.9 19.55 L35.3 19.65 Q36.2 17.95 37.7 17.15 39.4 16.35 40.3 17.4 L40.7 16.65 40.65 21.8" fill="#ffffff" fill-rule="evenodd" stroke="none"/>
    <path d="M34.2 32.55 L38.15 41.1 Q34.05 42.55 31.9 38.8 30.45 34.75 34.2 32.55" fill="#fdc8ae" fill-rule="evenodd" stroke="none"/>
    <path d="M32.9 32.3 Q33.6 31.85 34.15 32.45 34.6 33.15 34.0 33.7 33.3 34.15 32.75 33.55 32.3 32.85 32.9 32.3" fill="#fdc8ae" fill-rule="evenodd" stroke="none"/>
    <path d="M-35.05 -46.9 L-28.95 -51.35 -23.25 -45.7 -28.55 -40.45 -35.05 -46.9" fill="#ed9742" fill-rule="evenodd" stroke="none"/>
    <path d="M-11.4 -46.9 L-5.3 -51.35 0.4 -45.7 -4.9 -40.45 -11.4 -46.9" fill="#ed9742" fill-rule="evenodd" stroke="none"/>
    <path d="M12.55 -46.6 L18.65 -51.05 24.35 -45.4 19.05 -40.15 12.55 -46.6" fill="#ed9742" fill-rule="evenodd" stroke="none"/>
  </g>
</svg>
