<?xml version="1.0" encoding="UTF-8" standalone="no"?>
<svg xmlns:xlink="http://www.w3.org/1999/xlink" height="58.1px" width="48.95px" xmlns="http://www.w3.org/2000/svg">
  <g transform="matrix(1.0, 0.0, 0.0, 1.0, 24.5, 29.05)">
    <path d="M-18.4 -20.9 L24.35 -20.9 24.35 29.05 -18.4 29.05 -18.4 -20.9" fill="#f7c7ae" fill-rule="evenodd" stroke="none"/>
    <path d="M24.2 11.25 L24.2 28.65 23.65 28.65 Q21.75 24.2 15.2 23.85 8.65 24.2 6.75 28.65 L-0.75 28.65 Q-2.65 24.2 -9.2 23.85 -15.8 24.2 -17.65 28.65 L-18.6 28.65 -18.6 11.25 -3.2 11.25 Q-1.25 14.9 3.0 15.1 7.25 14.9 9.2 11.25 L24.2 11.25" fill="#891009" fill-rule="evenodd" stroke="none"/>
    <path d="M24.45 11.65 L24.45 21.0 -18.45 20.9 -18.45 11.65 -3.4 11.65 Q-1.35 15.3 3.0 15.5 7.35 15.3 9.4 11.65 L24.45 11.65" fill="#fb0f0c" fill-rule="evenodd" stroke="none"/>
    <path d="M24.45 20.95 L24.45 29.05 24.3 29.05 Q22.35 24.55 15.6 24.25 8.8 24.55 6.9 29.05 L-0.85 29.05 Q-2.8 24.55 -9.6 24.25 -16.35 24.55 -18.3 29.05 L-18.45 29.05 -18.45 20.9 24.45 20.95" fill="#19519d" fill-rule="evenodd" stroke="none"/>
    <path d="M-9.6 24.2 Q-2.85 24.55 -0.9 29.0 L-18.3 29.0 Q-16.35 24.55 -9.6 24.2" fill="#000000" fill-rule="evenodd" stroke="none"/>
    <path d="M15.55 24.2 Q22.3 24.55 24.25 29.0 L6.85 29.0 Q8.8 24.55 15.55 24.2" fill="#000000" fill-rule="evenodd" stroke="none"/>
    <path d="M-8.85 5.55 Q-8.55 6.2 -1.85 8.15 4.9 10.1 14.75 5.65" fill="none" stroke="#000000" stroke-linecap="round" stroke-linejoin="round" stroke-width="0.5"/>
    <path d="M24.35 -21.05 L24.35 -9.6 Q12.85 -4.05 3.15 -4.35 -6.5 -4.65 -12.4 -6.95 -18.25 -9.25 -18.4 -9.55 L-18.55 -21.05 24.35 -21.05" fill="#3b2912" fill-rule="evenodd" stroke="none"/>
    <path d="M24.35 -20.9 L24.35 -9.85 Q12.65 -4.9 3.0 -5.2 -6.7 -5.5 -12.45 -7.55 -18.25 -9.55 -18.4 -9.85 L-18.55 -21.05 24.35 -20.9" fill="#5a3d1b" fill-rule="evenodd" stroke="none"/>
    <path d="M-14.7 -9.0 Q-14.45 -8.8 -8.25 -7.35 -2.1 -5.9 6.7 -5.8 15.45 -5.65 23.6 -9.35 16.1 -4.95 7.3 -5.1 -1.55 -5.25 -7.95 -7.0 -14.4 -8.75 -14.7 -9.0" fill="#3b2912" fill-rule="evenodd" stroke="none"/>
    <path d="M-13.2 -12.6 Q-10.35 -11.5 -1.65 -9.1 10.4 -5.8 23.5 -9.6 15.6 -5.95 6.9 -7.05 -1.85 -8.15 -8.05 -10.55 L-13.2 -12.6" fill="#3b2912" fill-rule="evenodd" stroke="none"/>
    <path d="M-12.85 -15.6 Q-10.15 -14.3 -1.55 -11.15 10.2 -6.85 23.5 -9.6 15.4 -6.6 6.8 -8.4 -1.8 -10.2 -7.8 -13.1 L-12.85 -15.6" fill="#3b2912" fill-rule="evenodd" stroke="none"/>
    <path d="M-13.1 -20.25 Q-12.75 -19.9 -7.45 -16.9 -1.95 -13.75 6.4 -11.15 14.75 -8.5 23.5 -9.8 15.2 -7.6 6.8 -10.3 -1.55 -12.95 -7.25 -16.45 -12.7 -19.85 -13.1 -20.25" fill="#3b2912" fill-rule="evenodd" stroke="none"/>
    <path d="M-24.5 -29.05 L-18.5 -21.0 -18.5 29.0 -24.5 17.25 -24.5 -29.05" fill="#c9a08b" fill-rule="evenodd" stroke="none"/>
    <path d="M-18.5 11.15 L-18.45 28.65 -24.5 16.9 -24.5 -0.55 -18.5 11.15" fill="#891009" fill-rule="evenodd" stroke="none"/>
    <path d="M-24.5 17.2 L-24.5 9.15 -18.5 20.9 -18.5 28.95 -24.5 17.2" fill="#194181" fill-rule="evenodd" stroke="none"/>
    <path d="M-24.5 9.2 L-24.5 -0.15 -18.5 11.6 -18.5 20.95 -24.5 9.2" fill="#cb1009" fill-rule="evenodd" stroke="none"/>
    <path d="M-18.5 -9.65 Q-18.65 -10.3 -19.65 -10.9 -20.6 -11.55 -20.7 -4.6 -21.25 -9.6 -21.6 -8.45 L-22.0 -6.8 Q-21.95 -6.0 -22.45 -1.85 -22.95 2.25 -24.5 -0.15 L-24.5 -11.1 -24.5 -23.3 -24.5 -29.05 -18.5 -21.05 -18.5 -9.65" fill="#20160a" fill-rule="evenodd" stroke="none"/>
    <path d="M-18.5 -9.95 Q-18.65 -10.55 -19.65 -11.6 -20.65 -12.6 -20.8 -6.6 -21.3 -10.65 -21.65 -9.25 L-22.0 -7.4 Q-21.95 -6.6 -22.45 -2.6 -22.95 1.4 -24.5 -1.05 L-24.5 -11.65 -24.5 -23.45 -24.5 -29.05 -18.5 -21.05 -18.5 -9.95" fill="#3d2913" fill-rule="evenodd" stroke="none"/>
    <path d="M-19.55 17.55 Q-19.45 20.3 -20.0 20.05 -20.6 19.2 -20.8 16.35 L-19.55 17.55" fill="#e4b49d" fill-rule="evenodd" stroke="none"/>
    <path d="M-19.4 18.35 Q-19.4 18.85 -19.55 18.65 L-19.65 17.85 -19.55 17.55 Q-19.4 17.85 -19.4 18.35" fill="#e4b49d" fill-rule="evenodd" stroke="none"/>
    <path d="M-24.5 -28.95 L14.8 -29.0 24.35 -21.05 -18.5 -21.05 -24.5 -28.95" fill="#684720" fill-rule="evenodd" stroke="none"/>
  </g>
</svg>
