<?xml version="1.0" encoding="UTF-8" standalone="no"?>
<svg xmlns:xlink="http://www.w3.org/1999/xlink" height="58.15px" width="48.95px" xmlns="http://www.w3.org/2000/svg">
  <g transform="matrix(1.0, 0.0, 0.0, 1.0, 24.5, 29.1)">
    <path d="M-18.4 -20.9 L24.35 -20.9 24.35 29.05 -18.4 29.05 -18.4 -20.9" fill="#f7c7ae" fill-rule="evenodd" stroke="none"/>
    <path d="M24.2 11.25 L24.2 28.65 23.65 28.65 Q21.75 24.2 15.2 23.85 8.65 24.2 6.75 28.65 L-0.75 28.65 Q-2.65 24.2 -9.2 23.85 -15.8 24.2 -17.65 28.65 L-18.6 28.65 -18.6 11.25 -3.2 11.25 Q-1.25 14.9 3.0 15.1 7.25 14.9 9.2 11.25 L24.2 11.25" fill="#247126" fill-rule="evenodd" stroke="none"/>
    <path d="M24.45 11.6 L24.45 20.95 -18.45 20.85 -18.45 11.6 -3.4 11.6 Q-1.35 15.25 3.0 15.45 7.35 15.25 9.4 11.6 L24.45 11.6" fill="#2f982f" fill-rule="evenodd" stroke="none"/>
    <path d="M24.45 20.95 L24.45 29.05 24.3 29.05 Q22.35 24.55 15.6 24.25 8.8 24.55 6.9 29.05 L-0.85 29.05 Q-2.8 24.55 -9.6 24.25 -16.35 24.55 -18.3 29.05 L-18.45 29.05 -18.45 20.9 24.45 20.95" fill="#8a634a" fill-rule="evenodd" stroke="none"/>
    <path d="M-9.55 24.2 Q-2.8 24.55 -0.85 29.0 L-18.25 29.0 Q-16.3 24.55 -9.55 24.2" fill="#000000" fill-rule="evenodd" stroke="none"/>
    <path d="M15.6 24.2 Q22.35 24.55 24.3 29.0 L6.9 29.0 Q8.85 24.55 15.6 24.2" fill="#000000" fill-rule="evenodd" stroke="none"/>
    <path d="M-8.8 5.55 Q-8.5 6.2 -1.8 8.15 4.95 10.1 14.8 5.65" fill="none" stroke="#000000" stroke-linecap="round" stroke-linejoin="round" stroke-width="0.5"/>
    <path d="M-24.5 -29.1 L-18.5 -21.05 -18.5 28.95 -24.5 17.2 -24.5 -29.1" fill="#c9a08b" fill-rule="evenodd" stroke="none"/>
    <path d="M-18.5 11.1 L-18.45 28.6 -24.5 16.85 -24.5 -0.6 -18.5 11.1" fill="#1d6121" fill-rule="evenodd" stroke="none"/>
    <path d="M-24.5 17.15 L-24.5 9.1 -18.5 20.85 -18.5 28.9 -24.5 17.15" fill="#674a37" fill-rule="evenodd" stroke="none"/>
    <path d="M-24.5 9.2 L-24.5 -0.15 -18.5 11.6 -18.5 20.95 -24.5 9.2" fill="#29812c" fill-rule="evenodd" stroke="none"/>
    <path d="M-19.5 17.55 Q-19.4 20.3 -19.95 20.05 -20.55 19.2 -20.75 16.35 L-19.5 17.55" fill="#e4b49d" fill-rule="evenodd" stroke="none"/>
    <path d="M-19.4 18.3 Q-19.4 18.8 -19.55 18.6 L-19.65 17.8 -19.55 17.5 Q-19.4 17.8 -19.4 18.3" fill="#e4b49d" fill-rule="evenodd" stroke="none"/>
  </g>
</svg>
