<?xml version="1.0" encoding="UTF-8" standalone="no"?>
<svg xmlns:xlink="http://www.w3.org/1999/xlink" height="28.0px" width="49.15px" xmlns="http://www.w3.org/2000/svg">
  <g transform="matrix(1.0, 0.0, 0.0, 1.0, 24.6, 29.4)">
    <path d="M-24.6 -15.7 L-24.6 -29.4 -16.85 -21.05 -16.85 -9.8 Q-20.9 -8.35 -22.75 -11.7 -24.6 -15.1 -24.6 -15.7" fill="#d6a82b" fill-rule="evenodd" stroke="none"/>
    <path d="M-24.6 -16.8 L-24.6 -29.4 -16.85 -20.95 -16.85 -10.05 Q-21.15 -9.05 -22.9 -12.6 -24.65 -16.15 -24.6 -16.8" fill="#e1bd48" fill-rule="evenodd" stroke="none"/>
    <path d="M-22.4 -12.35 L-21.25 -10.75 -21.4 -8.05 Q-21.5 -5.55 -21.9 -3.3 -22.35 -1.05 -23.15 -1.5 -23.85 -7.3 -23.2 -9.85 L-22.4 -12.35" fill="#d6a82b" fill-rule="evenodd" stroke="none"/>
    <path d="M-22.2 -12.25 L-21.35 -11.05 -21.7 -6.3 Q-22.0 -2.15 -23.1 -2.05 -23.65 -7.4 -23.0 -9.85 L-22.2 -12.25" fill="#e1bd48" fill-rule="evenodd" stroke="none"/>
    <path d="M-23.05 -13.5 Q-22.95 -14.8 -22.55 -14.2 L-21.0 -11.55 Q-20.6 -10.75 -20.6 -9.35 -20.75 -8.05 -21.15 -8.6 L-22.65 -11.25 Q-23.1 -12.1 -23.05 -13.5" fill="#196233" fill-rule="evenodd" stroke="none"/>
    <path d="M-19.5 -11.65 Q-20.7 -13.45 -21.2 -13.15 L-21.75 -12.7 -21.3 -13.6 Q-20.85 -14.25 -19.5 -11.65" fill="#d6a82b" fill-rule="evenodd" stroke="none"/>
    <path d="M-19.4 -13.15 Q-20.6 -14.9 -21.1 -14.6 -21.65 -14.35 -21.65 -14.15 L-21.2 -15.05 Q-20.75 -15.7 -19.4 -13.15" fill="#d6a82b" fill-rule="evenodd" stroke="none"/>
    <path d="M-19.2 -14.55 Q-20.4 -16.3 -20.9 -16.0 -21.45 -15.75 -21.45 -15.55 L-21.0 -16.45 Q-20.55 -17.1 -19.2 -14.55" fill="#d6a82b" fill-rule="evenodd" stroke="none"/>
    <path d="M-19.1 -16.0 Q-20.3 -17.75 -20.8 -17.45 L-21.35 -17.0 -20.9 -17.9 Q-20.45 -18.55 -19.1 -16.0" fill="#d6a82b" fill-rule="evenodd" stroke="none"/>
    <path d="M-18.95 -17.45 Q-20.15 -19.2 -20.65 -18.9 L-21.2 -18.45 -20.75 -19.35 Q-20.3 -20.0 -18.95 -17.45" fill="#d6a82b" fill-rule="evenodd" stroke="none"/>
    <path d="M-21.75 -13.35 L-22.05 -15.55 Q-22.4 -17.7 -23.4 -20.65 -22.15 -17.7 -21.95 -15.6 L-21.75 -13.35" fill="#d6a82b" fill-rule="evenodd" stroke="none"/>
    <path d="M-21.7 -14.65 L-22.0 -16.85 Q-22.35 -19.0 -23.35 -21.95 -22.1 -19.0 -21.9 -16.9 L-21.7 -14.65" fill="#d6a82b" fill-rule="evenodd" stroke="none"/>
    <path d="M-21.6 -16.05 L-21.9 -18.3 Q-22.25 -20.4 -23.25 -23.35 -22.0 -20.4 -21.75 -18.3 L-21.6 -16.05" fill="#d6a82b" fill-rule="evenodd" stroke="none"/>
    <path d="M-21.4 -17.45 L-21.7 -19.7 Q-22.05 -21.8 -23.05 -24.75 -21.8 -21.8 -21.55 -19.7 L-21.4 -17.45" fill="#d6a82b" fill-rule="evenodd" stroke="none"/>
    <path d="M-21.35 -18.8 L-21.65 -21.05 Q-22.0 -23.15 -23.0 -26.1 -21.75 -23.15 -21.5 -21.05 L-21.35 -18.8" fill="#d6a82b" fill-rule="evenodd" stroke="none"/>
    <path d="M24.45 -21.05 L24.45 -9.95 Q13.35 -4.6 4.0 -4.9 -5.3 -5.2 -10.95 -7.4 -16.65 -9.6 -16.8 -9.9 L-16.9 -21.05 24.45 -21.05" fill="#d6a82b" fill-rule="evenodd" stroke="none"/>
    <path d="M24.45 -20.95 L24.45 -10.2 Q13.15 -5.4 3.85 -5.7 -5.45 -6.0 -11.05 -7.95 -16.65 -9.95 -16.8 -10.2 L-16.9 -21.05 24.45 -20.95" fill="#f5d458" fill-rule="evenodd" stroke="none"/>
    <path d="M4.2 -9.35 L2.75 -10.9 Q1.15 -12.3 -2.95 -13.0 1.8 -12.75 3.1 -11.15 4.35 -9.55 4.2 -9.35" fill="#d6a82b" fill-rule="evenodd" stroke="none"/>
    <path d="M4.2 -11.1 L2.75 -12.65 Q1.15 -14.05 -2.95 -14.75 1.8 -14.5 3.1 -12.9 4.35 -11.3 4.2 -11.1" fill="#d6a82b" fill-rule="evenodd" stroke="none"/>
    <path d="M4.2 -12.6 L2.75 -14.15 Q1.15 -15.55 -2.95 -16.25 1.8 -16.0 3.1 -14.4 4.35 -12.8 4.2 -12.6" fill="#d6a82b" fill-rule="evenodd" stroke="none"/>
    <path d="M4.2 -14.25 L2.75 -15.8 Q1.15 -17.2 -2.95 -17.9 1.8 -17.65 3.1 -16.05 4.35 -14.45 4.2 -14.25" fill="#d6a82b" fill-rule="evenodd" stroke="none"/>
    <path d="M4.2 -15.9 L2.75 -17.45 Q1.15 -18.85 -2.95 -19.55 1.8 -19.3 3.1 -17.7 4.35 -16.1 4.2 -15.9" fill="#d6a82b" fill-rule="evenodd" stroke="none"/>
    <path d="M6.1 -11.15 Q7.4 -12.75 12.1 -13.0 8.0 -12.3 6.45 -10.9 L4.95 -9.35 Q4.8 -9.55 6.1 -11.15" fill="#d6a82b" fill-rule="evenodd" stroke="none"/>
    <path d="M6.1 -12.9 Q7.4 -14.5 12.1 -14.75 8.0 -14.05 6.45 -12.65 L4.95 -11.1 Q4.8 -11.3 6.1 -12.9" fill="#d6a82b" fill-rule="evenodd" stroke="none"/>
    <path d="M6.1 -14.4 Q7.4 -16.0 12.1 -16.25 8.0 -15.55 6.45 -14.15 L4.95 -12.6 Q4.8 -12.8 6.1 -14.4" fill="#d6a82b" fill-rule="evenodd" stroke="none"/>
    <path d="M6.1 -16.05 Q7.4 -17.65 12.1 -17.9 8.0 -17.2 6.45 -15.8 L4.95 -14.25 Q4.8 -14.45 6.1 -16.05" fill="#d6a82b" fill-rule="evenodd" stroke="none"/>
    <path d="M6.1 -17.7 Q7.4 -19.3 12.1 -19.55 8.0 -18.85 6.45 -17.45 L4.95 -15.9 Q4.8 -16.1 6.1 -17.7" fill="#d6a82b" fill-rule="evenodd" stroke="none"/>
    <path d="M3.05 -19.05 Q2.0 -20.15 -0.75 -21.05 L0.45 -21.05 Q2.75 -20.2 3.45 -19.05 L4.0 -17.85 3.05 -19.05" fill="#d6a82b" fill-rule="evenodd" stroke="none"/>
    <path d="M3.3 -20.95 L4.15 -19.45 2.7 -20.95 3.3 -20.95" fill="#d6a82b" fill-rule="evenodd" stroke="none"/>
    <path d="M8.5 -21.05 L9.65 -21.0 Q7.0 -20.1 5.95 -19.05 L4.95 -17.9 Q4.85 -17.95 5.5 -19.1 6.2 -20.2 8.5 -21.05" fill="#d6a82b" fill-rule="evenodd" stroke="none"/>
    <path d="M14.0 -29.3 L24.55 -20.8 -16.8 -20.8 -24.6 -29.4 14.0 -29.3" fill="#f2dc6f" fill-rule="evenodd" stroke="none"/>
    <path d="M4.65 -19.75 L2.4 -20.95 Q0.15 -22.1 -4.15 -22.65 0.5 -22.45 2.6 -21.2 L4.65 -19.75" fill="#d6a82b" fill-rule="evenodd" stroke="none"/>
    <path d="M3.9 -21.1 L1.65 -22.3 Q-0.6 -23.45 -4.9 -24.0 -0.25 -23.8 1.85 -22.55 L3.9 -21.1" fill="#d6a82b" fill-rule="evenodd" stroke="none"/>
    <path d="M5.45 -19.75 Q5.2 -19.9 5.6 -21.2 5.95 -22.45 10.4 -22.65 6.85 -22.1 6.05 -20.95 5.3 -19.85 5.45 -19.75" fill="#d6a82b" fill-rule="evenodd" stroke="none"/>
    <path d="M4.55 -21.1 Q4.3 -21.25 4.7 -22.55 5.05 -23.8 9.5 -24.0 5.95 -23.45 5.15 -22.3 4.4 -21.2 4.55 -21.1" fill="#d6a82b" fill-rule="evenodd" stroke="none"/>
    <path d="M2.9 -22.55 L0.65 -23.75 Q-1.6 -24.9 -5.9 -25.45 -1.25 -25.25 0.85 -24.0 L2.9 -22.55" fill="#d6a82b" fill-rule="evenodd" stroke="none"/>
    <path d="M1.9 -23.75 L-0.35 -24.95 Q-2.6 -26.1 -6.9 -26.65 -2.25 -26.45 -0.15 -25.2 L1.9 -23.75" fill="#d6a82b" fill-rule="evenodd" stroke="none"/>
    <path d="M1.3 -25.1 L-0.95 -26.3 Q-3.2 -27.45 -7.5 -28.0 -2.85 -27.8 -0.75 -26.55 L1.3 -25.1" fill="#d6a82b" fill-rule="evenodd" stroke="none"/>
    <path d="M0.25 -26.5 L-2.0 -27.7 Q-4.25 -28.85 -8.55 -29.4 -3.9 -29.2 -1.8 -27.95 L0.25 -26.5" fill="#d6a82b" fill-rule="evenodd" stroke="none"/>
    <path d="M-3.0 -29.4 Q-0.5 -28.0 -0.6 -27.75 -0.6 -28.0 -3.8 -29.4 L-3.0 -29.4" fill="#d6a82b" fill-rule="evenodd" stroke="none"/>
    <path d="M3.75 -22.55 Q3.5 -22.7 3.9 -24.0 4.25 -25.25 8.7 -25.45 5.15 -24.9 4.35 -23.75 3.6 -22.65 3.75 -22.55" fill="#d6a82b" fill-rule="evenodd" stroke="none"/>
    <path d="M2.85 -23.75 Q2.6 -23.9 3.0 -25.2 3.35 -26.45 7.8 -26.65 4.25 -26.1 3.45 -24.95 2.7 -23.85 2.85 -23.75" fill="#d6a82b" fill-rule="evenodd" stroke="none"/>
    <path d="M1.8 -25.1 Q1.55 -25.25 1.95 -26.55 2.3 -27.8 6.75 -28.0 3.2 -27.45 2.4 -26.3 1.65 -25.2 1.8 -25.1" fill="#d6a82b" fill-rule="evenodd" stroke="none"/>
    <path d="M1.1 -26.5 Q0.85 -26.65 1.25 -27.95 1.6 -29.2 6.05 -29.4 2.5 -28.85 1.7 -27.7 0.95 -26.6 1.1 -26.5" fill="#d6a82b" fill-rule="evenodd" stroke="none"/>
    <path d="M0.35 -29.4 L1.15 -29.35 Q-0.15 -28.0 0.1 -27.75 -0.25 -28.0 0.35 -29.4" fill="#d6a82b" fill-rule="evenodd" stroke="none"/>
  </g>
</svg>
