<?xml version="1.0" encoding="UTF-8" standalone="no"?>
<svg xmlns:xlink="http://www.w3.org/1999/xlink" height="61.7px" width="48.1px" xmlns="http://www.w3.org/2000/svg">
  <g transform="matrix(1.0, 0.0, 0.0, 1.0, 24.05, 30.85)">
    <path d="M-16.15 -27.1 L-19.7 -22.55 -22.8 -25.0 -19.75 -29.7 -16.15 -27.1" fill="#ec9742" fill-rule="evenodd" stroke="none"/>
    <path d="M-18.0 -8.6 L-18.0 15.55 -23.95 15.55 -23.95 -8.6 -18.0 -8.6" fill="#f1dac6" fill-rule="evenodd" stroke="none"/>
    <path d="M23.7 -17.9 L23.7 30.8 -18.0 30.8 -18.0 -17.9 23.7 -17.9" fill="#f7c7ae" fill-rule="evenodd" stroke="none"/>
    <path d="M23.55 30.8 L-18.0 30.8 -18.0 24.7 23.55 24.7 23.55 30.8" fill="#000000" fill-rule="evenodd" stroke="none"/>
    <path d="M22.95 30.45 Q21.1 26.05 14.7 25.75 8.3 26.05 6.5 30.45 L-0.85 30.45 Q-2.7 26.05 -9.1 25.75 -15.5 26.05 -17.35 30.45 L-18.05 30.45 -18.05 13.45 -3.25 13.45 Q-1.3 17.0 2.8 17.2 6.95 17.0 8.85 13.45 L23.7 13.45 23.7 30.45 22.95 30.45" fill="#730a08" fill-rule="evenodd" stroke="none"/>
    <path d="M23.75 30.85 L23.55 30.85 Q21.7 26.45 15.1 26.15 8.5 26.45 6.6 30.85 L-0.95 30.85 Q-2.85 26.45 -9.45 26.15 -16.05 26.45 -17.95 30.85 L-18.1 30.85 -18.1 13.85 -3.4 13.85 Q-2.05 17.0 2.8 17.55 7.75 17.0 9.05 13.85 L23.65 13.85 23.75 30.85" fill="#921273" fill-rule="evenodd" stroke="none"/>
    <path d="M23.6 16.2 Q23.0 16.85 22.05 16.9 20.9 16.85 20.25 15.95 19.65 16.85 18.5 16.9 17.3 16.85 16.65 15.85 16.05 16.85 14.85 16.9 12.9 16.7 12.7 14.8 12.9 12.85 14.85 12.65 16.05 12.7 16.65 13.7 17.3 12.7 18.5 12.65 19.65 12.7 20.25 13.6 20.9 12.7 22.05 12.65 23.05 12.7 23.7 13.45 L23.6 16.2" fill="#540a4e" fill-rule="evenodd" stroke="none"/>
    <path d="M-10.6 14.8 Q-10.8 16.7 -12.75 16.9 -13.75 16.85 -14.35 16.15 -15.0 16.85 -16.0 16.9 -17.15 16.85 -17.75 15.95 L-18.1 16.35 -18.0 13.3 -17.75 13.6 Q-17.15 12.7 -16.0 12.65 -15.0 12.7 -14.35 13.4 -13.75 12.7 -12.75 12.65 -10.8 12.85 -10.6 14.8" fill="#540a4e" fill-rule="evenodd" stroke="none"/>
    <path d="M23.6 15.55 Q23.0 16.25 22.05 16.25 20.9 16.2 20.25 15.3 19.65 16.2 18.5 16.25 17.3 16.2 16.65 15.2 16.05 16.2 14.85 16.25 12.9 16.05 12.7 14.15 12.9 12.2 14.85 12.0 16.05 12.05 16.65 13.05 17.3 12.05 18.5 12.0 19.65 12.05 20.25 12.95 20.9 12.05 22.05 12.0 23.05 12.05 23.7 12.8 L23.6 15.55" fill="#540a4e" fill-rule="evenodd" stroke="none"/>
    <path d="M-10.65 14.15 Q-10.8 16.05 -12.75 16.25 -13.8 16.2 -14.4 15.5 -15.0 16.2 -16.05 16.25 -17.15 16.2 -17.8 15.3 L-18.05 15.65 -18.0 12.7 -17.8 12.95 Q-17.15 12.05 -16.05 12.0 -15.0 12.05 -14.4 12.75 -13.8 12.05 -12.75 12.0 -10.8 12.2 -10.65 14.15" fill="#540a4e" fill-rule="evenodd" stroke="none"/>
    <path d="M23.65 15.85 Q23.0 16.6 22.05 16.6 20.9 16.55 20.25 15.65 19.65 16.55 18.5 16.6 17.3 16.55 16.65 15.55 16.05 16.55 14.85 16.6 12.9 16.4 12.7 14.5 12.9 12.55 14.85 12.35 16.05 12.4 16.65 13.4 17.3 12.4 18.5 12.35 19.65 12.4 20.25 13.3 20.9 12.4 22.05 12.35 23.05 12.4 23.7 13.15 L23.65 15.85" fill="#ffffff" fill-rule="evenodd" stroke="none"/>
    <path d="M-10.6 14.5 Q-10.8 16.4 -12.75 16.6 -13.75 16.55 -14.4 15.85 -15.0 16.55 -16.0 16.6 -17.15 16.55 -17.8 15.65 L-18.05 16.0 -18.0 13.0 -17.8 13.3 Q-17.15 12.4 -16.0 12.35 -15.0 12.4 -14.4 13.1 -13.75 12.4 -12.75 12.35 -10.8 12.55 -10.6 14.5" fill="#ffffff" fill-rule="evenodd" stroke="none"/>
    <path d="M11.85 11.8 Q12.2 12.75 13.65 13.4 15.15 14.0 15.55 16.8 14.45 15.0 13.75 15.65 L15.15 18.2 Q16.15 19.85 15.95 22.9 14.4 20.65 13.75 20.6 L13.1 20.7 13.35 23.45 Q13.4 26.05 11.65 28.5 10.65 25.3 9.8 26.1 L9.95 27.0 Q9.95 27.95 7.4 30.4 7.6 25.8 6.0 27.05 4.4 28.3 4.15 28.85 L2.9 26.65 Q1.7 25.0 0.55 28.75 -1.6 27.8 -2.05 26.4 L-2.4 24.9 -3.35 25.55 Q-4.15 26.3 -4.25 29.55 -6.7 26.4 -7.0 24.0 L-7.15 21.45 Q-7.75 20.65 -9.2 24.45 -10.3 21.0 -9.3 19.25 -8.3 17.5 -8.1 17.5 L-9.25 17.3 Q-10.35 17.25 -11.45 18.65 -11.4 16.3 -9.5 14.5 -7.6 12.65 -7.3 12.55 -7.45 11.95 -9.5 13.0 -8.95 8.8 -6.7 9.2 L-4.75 9.4 Q-3.8 9.35 -4.95 7.6 L0.75 8.6 Q3.75 8.4 7.0 7.4 6.5 8.75 8.0 8.7 L10.7 8.5 12.55 9.05 Q14.15 9.65 14.15 11.7 L12.65 11.05 Q11.95 10.75 11.85 11.8" fill="#540a4e" fill-rule="evenodd" stroke="none"/>
    <path d="M11.5 11.55 Q11.85 12.5 13.3 13.15 14.8 13.75 15.2 16.55 14.1 14.75 13.4 15.4 13.75 16.35 14.8 17.95 15.8 19.6 15.6 22.65 14.05 20.4 13.4 20.35 L12.75 20.45 13.0 23.2 Q13.05 25.8 11.3 28.25 10.3 25.05 9.45 25.85 L9.6 26.75 Q9.6 27.7 7.05 30.15 7.25 25.55 5.65 26.8 4.05 28.05 3.8 28.6 L2.55 26.4 Q1.35 24.75 0.2 28.5 -1.95 27.55 -2.4 26.15 L-2.75 24.65 Q-2.85 24.5 -3.7 25.3 -4.55 26.05 -4.6 29.3 -7.05 26.15 -7.35 23.75 L-7.5 21.2 Q-8.1 20.4 -9.55 24.2 -10.65 20.75 -9.65 19.0 -8.65 17.25 -8.45 17.25 L-9.6 17.05 Q-10.7 17.0 -11.8 18.4 -11.75 16.05 -9.85 14.25 L-7.65 12.3 Q-7.8 11.7 -9.85 12.75 -9.3 8.55 -7.05 8.95 L-5.1 9.15 Q-4.15 9.1 -5.3 7.35 L0.4 8.35 Q3.4 8.15 6.65 7.15 6.15 8.5 7.65 8.45 L10.35 8.25 12.2 8.8 Q13.8 9.4 13.8 11.45 L12.3 10.8 Q11.6 10.5 11.5 11.55" fill="#ffffff" fill-rule="evenodd" stroke="none"/>
    <path d="M23.4 -4.85 Q22.15 -6.1 20.8 -3.7 17.05 -5.35 17.8 -6.05 L16.85 -5.65 Q16.0 -5.15 15.95 -3.2 14.4 -4.3 13.8 -5.25 13.4 -4.5 12.5 -3.85 11.45 -5.75 10.6 -5.3 10.8 -5.3 10.8 -4.75 10.75 -4.2 8.15 -2.7 8.35 -5.5 6.75 -4.75 L4.85 -3.65 3.55 -4.95 Q2.35 -5.95 1.15 -3.7 -2.6 -5.35 -1.85 -6.05 L-2.8 -5.65 Q-3.65 -5.15 -3.7 -3.2 L-5.85 -5.25 Q-6.25 -4.5 -7.15 -3.85 -8.2 -5.75 -9.05 -5.3 -8.85 -5.3 -8.85 -4.75 -8.9 -4.2 -11.5 -2.7 -11.3 -5.5 -12.9 -4.75 L-14.8 -3.65 -15.8 -4.8 -17.9 -4.7 -17.85 -15.8 -11.9 -16.55 Q-12.4 -15.75 -10.85 -15.8 L-8.1 -15.9 -5.75 -15.4 -4.05 -15.35 Q-3.35 -15.5 -4.45 -16.45 L1.4 -15.85 7.75 -16.55 Q7.2 -15.75 8.8 -15.8 L11.5 -15.9 13.9 -15.4 15.6 -15.35 Q16.3 -15.5 15.2 -16.45 L21.05 -15.85 23.6 -16.0 23.4 -4.85" fill="#540a4e" fill-rule="evenodd" stroke="none"/>
    <path d="M23.5 -5.1 Q22.2 -6.65 20.7 -4.1 16.95 -5.75 17.7 -6.45 L16.75 -6.05 Q15.9 -5.55 15.85 -3.6 14.3 -4.7 13.7 -5.65 13.3 -4.9 12.4 -4.25 11.35 -6.15 10.5 -5.7 10.7 -5.7 10.7 -5.15 10.65 -4.6 8.05 -3.1 8.25 -5.9 6.65 -5.15 5.0 -4.35 4.75 -4.05 L3.45 -5.35 Q2.25 -6.35 1.05 -4.1 -2.7 -5.75 -1.95 -6.45 L-2.9 -6.05 Q-3.75 -5.55 -3.8 -3.6 -5.3 -4.7 -5.95 -5.65 -6.35 -4.9 -7.25 -4.25 -8.3 -6.15 -9.15 -5.7 L-8.95 -5.15 Q-9.0 -4.6 -11.6 -3.1 -11.4 -5.9 -13.0 -5.15 L-14.9 -4.05 -15.9 -5.2 -18.0 -5.1 -17.85 -16.2 -12.0 -16.95 Q-12.5 -16.15 -10.95 -16.15 L-8.2 -16.3 -5.85 -15.8 -4.15 -15.75 Q-3.45 -15.9 -4.55 -16.85 L1.3 -16.25 7.65 -16.95 Q7.1 -16.15 8.7 -16.15 L11.4 -16.3 13.8 -15.8 15.5 -15.75 Q16.2 -15.9 15.1 -16.85 L20.95 -16.25 24.05 -16.45 23.5 -5.1" fill="#ffffff" fill-rule="evenodd" stroke="none"/>
    <path d="M-24.05 -16.25 L-20.55 -15.85 -17.4 -16.1 -17.95 -4.7 Q-19.25 -6.25 -20.75 -3.75 -24.5 -5.4 -23.75 -6.05 L-24.05 -16.25" fill="#540a4e" fill-rule="evenodd" stroke="none"/>
    <path d="M-24.05 -16.75 L-20.55 -16.35 -17.4 -16.6 -17.95 -5.2 Q-19.25 -6.75 -20.75 -4.25 -24.5 -5.9 -23.75 -6.55 L-24.05 -16.75" fill="#ffffff" fill-rule="evenodd" stroke="none"/>
    <path d="M19.0 -6.7 L1.5 -6.85 1.5 -6.8 -17.8 -6.8 -24.0 -11.2 -24.0 -17.85 1.5 -17.85 1.5 -18.0 23.8 -17.85 23.8 -6.8 19.0 -6.7" fill="#9b761d" fill-rule="evenodd" stroke="none"/>
    <path d="M15.75 -18.0 L15.8 -18.05 15.65 -18.05 15.75 -18.0 M23.75 -30.75 L23.7 -7.15 15.95 -7.15 -1.05 -7.15 -18.0 -7.15 -18.05 -30.85 -11.05 -23.85 -4.1 -30.85 2.9 -23.85 9.85 -30.85 16.85 -23.85 23.75 -30.75" fill="#ecb328" fill-rule="evenodd" stroke="none"/>
    <path d="M-24.05 -30.45 L-22.75 -24.7 -21.35 -30.65 -19.75 -24.25 -17.95 -30.85 -18.0 -7.25 -20.05 -8.7 -24.0 -11.55 -24.05 -30.45 M-20.0 -18.8 L-20.0 -18.85 -20.05 -18.85 -20.0 -18.8" fill="#ecb328" fill-rule="evenodd" stroke="none"/>
    <path d="M-17.95 30.8 L-23.95 26.75 -23.95 10.9 Q-21.0 12.4 -18.1 13.85 L-17.95 30.8" fill="#a52085" fill-rule="evenodd" stroke="none"/>
    <path d="M-19.4 11.2 Q-18.55 11.75 -18.0 12.85 L-18.0 16.25 -19.4 16.3 Q-20.3 15.8 -20.8 14.75 L-22.2 14.8 Q-23.15 14.25 -23.65 13.05 L-23.85 13.2 -23.95 9.35 -23.65 9.9 Q-23.15 9.25 -22.2 9.75 -21.3 10.2 -20.8 11.25 L-19.4 11.2" fill="#540a4e" fill-rule="evenodd" stroke="none"/>
    <path d="M-17.95 13.0 L-17.95 15.65 -19.35 15.7 Q-20.25 15.25 -20.8 14.25 L-22.2 14.3 Q-23.2 13.75 -23.7 12.6 L-23.9 12.75 -23.95 9.75 -23.7 10.2 Q-23.2 9.55 -22.2 10.05 -21.3 10.5 -20.8 11.5 L-19.35 11.45 Q-18.5 11.95 -17.95 13.0" fill="#ffffff" fill-rule="evenodd" stroke="none"/>
    <path d="M-20.15 19.15 Q-17.95 20.45 -18.8 22.85 -20.1 25.05 -22.5 24.2 L-20.15 19.15" fill="#f7c7ae" fill-rule="evenodd" stroke="none"/>
    <path d="M-20.05 19.85 Q-20.4 19.5 -20.15 19.1 L-19.4 19.0 Q-19.05 19.35 -19.3 19.75 L-20.05 19.85" fill="#f7c7ae" fill-rule="evenodd" stroke="none"/>
    <path d="M20.65 -27.7 L16.8 -23.85 13.7 -26.95 17.05 -30.3 20.65 -27.7" fill="#ec9742" fill-rule="evenodd" stroke="none"/>
    <path d="M6.7 -27.7 L2.85 -23.85 -0.25 -26.95 3.1 -30.3 6.7 -27.7" fill="#ec9742" fill-rule="evenodd" stroke="none"/>
    <path d="M-7.4 -27.55 L-11.25 -23.7 -14.35 -26.8 -11.0 -30.15 -7.4 -27.55" fill="#ec9742" fill-rule="evenodd" stroke="none"/>
    <path d="M6.45 9.5 Q6.35 9.8 3.95 10.8 1.6 11.75 -1.9 9.55" fill="none" stroke="#000000" stroke-linecap="round" stroke-linejoin="round" stroke-width="0.5"/>
  </g>
</svg>
