<?xml version="1.0" encoding="UTF-8" standalone="no"?>
<svg xmlns:xlink="http://www.w3.org/1999/xlink" height="3.2px" width="8.5px" xmlns="http://www.w3.org/2000/svg">
  <g transform="matrix(1.0, 0.0, 0.0, 1.0, 4.25, 1.6)">
    <path d="M-4.25 0.85 L-4.25 -0.85 Q-4.25 -1.35 -3.55 -1.6 -3.05 -1.6 -2.8 -0.85 L-2.8 0.85 Q-2.8 1.35 -3.55 1.6 -4.0 1.6 -4.25 0.85" fill="#000000" fill-rule="evenodd" stroke="none"/>
    <path d="M-3.55 -0.35 L-4.0 -0.35 -4.0 -1.1 -3.55 -1.1 -3.55 -0.35" fill="#ffffff" fill-rule="evenodd" stroke="none"/>
    <path d="M2.8 0.85 L2.8 -0.85 Q2.8 -1.35 3.55 -1.6 4.05 -1.6 4.25 -0.85 L4.25 0.85 Q4.25 1.35 3.55 1.6 3.05 1.6 2.8 0.85" fill="#000000" fill-rule="evenodd" stroke="none"/>
    <path d="M3.55 -0.35 L3.05 -0.35 3.05 -1.1 3.55 -1.1 3.55 -0.35" fill="#ffffff" fill-rule="evenodd" stroke="none"/>
  </g>
</svg>
