<?xml version="1.0" encoding="UTF-8" standalone="no"?>
<svg xmlns:xlink="http://www.w3.org/1999/xlink" height="3.35px" width="4.4px" xmlns="http://www.w3.org/2000/svg">
  <g transform="matrix(1.0, 0.0, 0.0, 1.0, 2.2, 1.7)">
    <path d="M2.2 0.95 Q2.1 1.6 1.35 1.65 0.55 1.6 0.5 0.95 L0.5 -1.0 Q0.55 -1.65 1.35 -1.7 2.1 -1.65 2.2 -1.0 L2.2 0.95" fill="#000000" fill-rule="evenodd" stroke="none"/>
    <path d="M1.85 -0.55 L1.6 -0.3 Q1.35 -0.35 1.35 -0.55 L1.35 -1.1 1.6 -1.3 1.85 -1.1 1.85 -0.55" fill="#ffffff" fill-rule="evenodd" stroke="none"/>
    <path d="M-0.5 0.95 Q-0.6 1.6 -1.35 1.65 -2.15 1.6 -2.2 0.95 L-2.2 -1.0 Q-2.15 -1.65 -1.35 -1.7 -0.6 -1.65 -0.5 -1.0 L-0.5 0.95" fill="#000000" fill-rule="evenodd" stroke="none"/>
    <path d="M-0.8 -0.55 Q-0.85 -0.35 -1.05 -0.3 L-1.3 -0.55 -1.3 -1.1 -1.05 -1.3 Q-0.85 -1.3 -0.8 -1.1 L-0.8 -0.55" fill="#ffffff" fill-rule="evenodd" stroke="none"/>
  </g>
</svg>
