<?xml version="1.0" encoding="UTF-8" standalone="no"?>
<svg xmlns:xlink="http://www.w3.org/1999/xlink" height="39.6px" width="33.8px" xmlns="http://www.w3.org/2000/svg">
  <g transform="matrix(1.0, 0.0, 0.0, 1.0, 16.9, 40.05)">
    <path d="M-16.9 -8.75 L-16.9 -40.05 -11.75 -33.9 -11.75 -0.45 -16.9 -8.75" fill="#caa08b" fill-rule="evenodd" stroke="none"/>
    <path d="M-12.0 -12.4 L-12.0 -0.65 -16.9 -9.0 -16.9 -20.0 -12.0 -12.4" fill="#ffffff" fill-rule="evenodd" stroke="none"/>
    <path d="M-16.45 -16.3 L-16.9 -16.8 -16.9 -18.0 -16.45 -17.55 -16.45 -16.3" fill="#ce690e" fill-rule="evenodd" stroke="none"/>
    <path d="M-16.2 -17.55 L-16.2 -17.3 -16.9 -18.5 -16.9 -18.75 -16.2 -17.55" fill="#ce690e" fill-rule="evenodd" stroke="none"/>
    <path d="M-15.7 -15.1 L-16.2 -15.55 -16.2 -16.8 -15.7 -16.3 -15.7 -15.1" fill="#ce690e" fill-rule="evenodd" stroke="none"/>
    <path d="M-15.2 -16.3 L-15.2 -16.05 -16.2 -17.3 -16.2 -17.55 -15.2 -16.3" fill="#ce690e" fill-rule="evenodd" stroke="none"/>
    <path d="M-15.2 -16.8 L-15.2 -16.55 -16.2 -17.8 -16.2 -18.0 -15.2 -16.8" fill="#ce690e" fill-rule="evenodd" stroke="none"/>
    <path d="M-14.95 -13.6 L-15.2 -14.35 -15.2 -15.55 -14.95 -15.1 -14.95 -13.6" fill="#ce690e" fill-rule="evenodd" stroke="none"/>
    <path d="M-14.45 -15.1 L-14.45 -14.85 -15.2 -16.05 -15.2 -16.3 -14.45 -15.1" fill="#ce690e" fill-rule="evenodd" stroke="none"/>
    <path d="M-14.2 -12.4 L-14.45 -13.1 -14.45 -14.35 -14.2 -13.85 -14.2 -12.4" fill="#ce690e" fill-rule="evenodd" stroke="none"/>
    <path d="M-13.25 -11.2 L-13.75 -11.65 -13.75 -13.1 -13.25 -12.65 -13.25 -11.2" fill="#ce690e" fill-rule="evenodd" stroke="none"/>
    <path d="M-13.0 -10.95 L-13.25 -10.95 -13.25 -14.1 -13.0 -13.85 -13.0 -10.95" fill="#ce690e" fill-rule="evenodd" stroke="none"/>
    <path d="M-12.5 -9.75 L-12.75 -10.45 -12.75 -11.9 -12.5 -11.2 -12.5 -9.75" fill="#ce690e" fill-rule="evenodd" stroke="none"/>
    <path d="M-12.0 -11.2 L-12.0 -10.95 -12.75 -12.15 -12.75 -12.4 -12.0 -11.2" fill="#ce690e" fill-rule="evenodd" stroke="none"/>
    <path d="M-11.75 -11.65 L-11.75 -11.45 -12.75 -12.9 -12.75 -13.1 -11.75 -11.65" fill="#ce690e" fill-rule="evenodd" stroke="none"/>
    <path d="M-16.45 -13.35 L-16.9 -13.85 -16.9 -15.1 -16.45 -14.6 -16.45 -13.35" fill="#ce690e" fill-rule="evenodd" stroke="none"/>
    <path d="M-16.2 -14.6 L-16.2 -14.35 -16.9 -15.55 -16.9 -15.8 -16.2 -14.6" fill="#ce690e" fill-rule="evenodd" stroke="none"/>
    <path d="M-16.2 -15.1 L-16.2 -14.85 -16.9 -16.05 -16.9 -16.3 -16.2 -15.1" fill="#ce690e" fill-rule="evenodd" stroke="none"/>
    <path d="M-15.7 -12.15 L-16.2 -12.65 -16.2 -13.85 -15.7 -13.35 -15.7 -12.15" fill="#ce690e" fill-rule="evenodd" stroke="none"/>
    <path d="M-15.2 -13.35 L-15.2 -13.1 -16.2 -14.35 -16.2 -14.6 -15.2 -13.35" fill="#ce690e" fill-rule="evenodd" stroke="none"/>
    <path d="M-15.2 -13.85 L-15.2 -13.6 -16.2 -14.85 -16.2 -15.1 -15.2 -13.85" fill="#ce690e" fill-rule="evenodd" stroke="none"/>
    <path d="M-14.95 -10.7 L-15.2 -11.45 -15.2 -12.65 -14.95 -12.15 -14.95 -10.7" fill="#ce690e" fill-rule="evenodd" stroke="none"/>
    <path d="M-14.45 -12.65 L-14.45 -12.4 -15.2 -13.6 -15.2 -13.85 -14.45 -12.65" fill="#ce690e" fill-rule="evenodd" stroke="none"/>
    <path d="M-14.2 -9.5 L-14.45 -10.0 -14.45 -11.45 -14.2 -10.95 -14.2 -9.5" fill="#ce690e" fill-rule="evenodd" stroke="none"/>
    <path d="M-13.25 -8.05 L-13.75 -8.75 -13.75 -10.2 -13.25 -9.5 -13.25 -8.05" fill="#ce690e" fill-rule="evenodd" stroke="none"/>
    <path d="M-13.0 -7.8 L-13.25 -8.05 -13.25 -10.95 -13.0 -10.95 -13.0 -7.8" fill="#ce690e" fill-rule="evenodd" stroke="none"/>
    <path d="M-12.75 -9.5 L-12.75 -9.25 -13.75 -10.45 -13.75 -10.7 -12.75 -9.5" fill="#ce690e" fill-rule="evenodd" stroke="none"/>
    <path d="M-12.75 -10.0 L-12.75 -9.75 -13.75 -11.2 -13.75 -11.45 -12.75 -10.0" fill="#ce690e" fill-rule="evenodd" stroke="none"/>
    <path d="M-12.5 -6.8 L-12.75 -7.3 -12.75 -8.75 -12.5 -8.25 -12.5 -6.8" fill="#ce690e" fill-rule="evenodd" stroke="none"/>
    <path d="M-16.9 -8.75 L-16.9 -13.85 -11.75 -5.8 -11.75 -0.45 -16.9 -8.75" fill="#890c08" fill-rule="evenodd" stroke="none"/>
    <path d="M-16.2 -15.8 L-16.45 -16.05 -16.45 -17.3 -16.2 -17.05 -16.2 -15.8" fill="#cf8c11" fill-rule="evenodd" stroke="none"/>
    <path d="M-16.45 -18.0 L-16.45 -17.55 -16.9 -18.0 -16.9 -18.5 -16.45 -18.0" fill="#cf8c11" fill-rule="evenodd" stroke="none"/>
    <path d="M-16.45 -18.5 L-16.45 -18.0 -16.9 -18.75 -16.9 -19.0 -16.45 -18.5" fill="#cf8c11" fill-rule="evenodd" stroke="none"/>
    <path d="M-16.45 -19.0 L-16.45 -18.75 -16.9 -19.25 -16.9 -19.75 -16.45 -19.0" fill="#cf8c11" fill-rule="evenodd" stroke="none"/>
    <path d="M-15.45 -14.6 L-15.7 -14.85 -15.7 -16.05 -15.45 -15.8 -15.45 -14.6" fill="#cf8c11" fill-rule="evenodd" stroke="none"/>
    <path d="M-15.2 -14.35 L-15.45 -14.6 -15.45 -15.8 -15.2 -15.55 -15.2 -14.35" fill="#cf8c11" fill-rule="evenodd" stroke="none"/>
    <path d="M-15.7 -16.8 L-15.7 -16.3 -16.2 -16.8 -16.2 -17.3 -15.7 -16.8" fill="#cf8c11" fill-rule="evenodd" stroke="none"/>
    <path d="M-15.7 -17.3 L-15.7 -16.8 -16.2 -17.55 -16.2 -17.8 -15.7 -17.3" fill="#cf8c11" fill-rule="evenodd" stroke="none"/>
    <path d="M-15.7 -18.0 L-15.7 -17.55 -16.2 -18.0 -16.2 -18.5 -15.7 -18.0" fill="#cf8c11" fill-rule="evenodd" stroke="none"/>
    <path d="M-14.7 -13.6 L-14.95 -13.6 -14.95 -15.1 -14.7 -14.85 -14.7 -13.6" fill="#cf8c11" fill-rule="evenodd" stroke="none"/>
    <path d="M-14.45 -13.1 L-14.7 -13.1 -14.7 -14.6 -14.45 -14.35 -14.45 -13.1" fill="#cf8c11" fill-rule="evenodd" stroke="none"/>
    <path d="M-14.95 -15.55 L-14.95 -15.1 -15.2 -15.55 -15.2 -16.05 -14.95 -15.55" fill="#cf8c11" fill-rule="evenodd" stroke="none"/>
    <path d="M-14.95 -16.05 L-14.95 -15.55 -15.2 -16.3 -15.2 -16.55 -14.95 -16.05" fill="#cf8c11" fill-rule="evenodd" stroke="none"/>
    <path d="M-14.95 -16.8 L-14.95 -16.3 -15.2 -16.8 -15.2 -17.3 -14.95 -16.8" fill="#cf8c11" fill-rule="evenodd" stroke="none"/>
    <path d="M-14.0 -12.15 L-14.2 -12.4 -14.2 -13.85 -14.0 -13.6 -14.0 -12.15" fill="#cf8c11" fill-rule="evenodd" stroke="none"/>
    <path d="M-13.75 -11.9 L-14.0 -12.15 -14.0 -13.6 -13.75 -13.35 -13.75 -11.9" fill="#cf8c11" fill-rule="evenodd" stroke="none"/>
    <path d="M-14.2 -14.35 L-14.2 -13.85 -14.45 -14.35 -14.45 -14.85 -14.2 -14.35" fill="#cf8c11" fill-rule="evenodd" stroke="none"/>
    <path d="M-14.2 -14.85 L-14.2 -14.35 -14.45 -15.1 -14.45 -15.35 -14.2 -14.85" fill="#cf8c11" fill-rule="evenodd" stroke="none"/>
    <path d="M-14.2 -15.35 L-14.2 -15.1 -14.45 -15.55 -14.45 -16.05 -14.2 -15.35" fill="#cf8c11" fill-rule="evenodd" stroke="none"/>
    <path d="M-12.75 -10.45 L-13.0 -10.7 -13.0 -11.9 -12.75 -11.9 -12.75 -10.45" fill="#cf8c11" fill-rule="evenodd" stroke="none"/>
    <path d="M-13.25 -12.9 L-13.25 -12.65 -13.75 -13.1 -13.75 -13.6 -13.25 -12.9" fill="#cf8c11" fill-rule="evenodd" stroke="none"/>
    <path d="M-13.25 -13.6 L-13.25 -13.1 -13.75 -13.6 -13.75 -14.1 -13.25 -13.6" fill="#cf8c11" fill-rule="evenodd" stroke="none"/>
    <path d="M-13.25 -14.1 L-13.25 -13.6 -13.75 -14.35 -13.75 -14.85 -13.25 -14.1" fill="#cf8c11" fill-rule="evenodd" stroke="none"/>
    <path d="M-13.0 -13.35 L-13.25 -13.35 -13.25 -13.6 -13.0 -13.35" fill="#a94c0e" fill-rule="evenodd" stroke="none"/>
    <path d="M-13.0 -12.65 L-13.25 -12.9 -13.0 -12.9 -13.0 -12.65" fill="#a94c0e" fill-rule="evenodd" stroke="none"/>
    <path d="M-12.25 -9.75 L-12.5 -9.75 -12.5 -11.2 -12.25 -10.95 -12.25 -9.75" fill="#cf8c11" fill-rule="evenodd" stroke="none"/>
    <path d="M-12.0 -9.25 L-12.25 -9.5 -12.25 -10.95 -12.0 -10.7 -12.0 -9.25" fill="#cf8c11" fill-rule="evenodd" stroke="none"/>
    <path d="M-12.5 -11.65 L-12.5 -11.2 -12.75 -11.9 -12.75 -12.15 -12.5 -11.65" fill="#cf8c11" fill-rule="evenodd" stroke="none"/>
    <path d="M-12.5 -12.15 L-12.5 -11.9 -12.75 -12.4 -12.75 -12.9 -12.5 -12.15" fill="#cf8c11" fill-rule="evenodd" stroke="none"/>
    <path d="M-12.5 -12.9 L-12.5 -12.4 -12.75 -13.1 -12.75 -13.35 -12.5 -12.9" fill="#cf8c11" fill-rule="evenodd" stroke="none"/>
    <path d="M-16.2 -12.9 L-16.45 -13.1 -16.45 -14.35 -16.2 -14.1 -16.2 -12.9" fill="#cf8c11" fill-rule="evenodd" stroke="none"/>
    <path d="M-16.45 -15.1 L-16.45 -14.6 -16.9 -15.1 -16.9 -15.55 -16.45 -15.1" fill="#cf8c11" fill-rule="evenodd" stroke="none"/>
    <path d="M-16.45 -15.55 L-16.45 -15.1 -16.9 -15.8 -16.9 -16.05 -16.45 -15.55" fill="#cf8c11" fill-rule="evenodd" stroke="none"/>
    <path d="M-16.45 -16.3 L-16.45 -15.8 -16.9 -16.3 -16.9 -16.8 -16.45 -16.3" fill="#cf8c11" fill-rule="evenodd" stroke="none"/>
    <path d="M-15.45 -11.65 L-15.7 -11.9 -15.7 -13.1 -15.45 -12.9 -15.45 -11.65" fill="#cf8c11" fill-rule="evenodd" stroke="none"/>
    <path d="M-15.2 -11.45 L-15.45 -11.45 -15.45 -12.9 -15.2 -12.65 -15.2 -11.45" fill="#cf8c11" fill-rule="evenodd" stroke="none"/>
    <path d="M-15.7 -13.85 L-15.7 -13.35 -16.2 -13.85 -16.2 -14.35 -15.7 -13.85" fill="#cf8c11" fill-rule="evenodd" stroke="none"/>
    <path d="M-15.7 -14.35 L-15.7 -13.85 -16.2 -14.6 -16.2 -14.85 -15.7 -14.35" fill="#cf8c11" fill-rule="evenodd" stroke="none"/>
    <path d="M-15.7 -15.1 L-15.7 -14.6 -16.2 -15.1 -16.2 -15.55 -15.7 -15.1" fill="#cf8c11" fill-rule="evenodd" stroke="none"/>
    <path d="M-14.7 -10.7 L-14.95 -10.7 -14.95 -12.15 -14.7 -11.9 -14.7 -10.7" fill="#cf8c11" fill-rule="evenodd" stroke="none"/>
    <path d="M-14.45 -10.0 L-14.7 -10.2 -14.7 -11.65 -14.45 -11.45 -14.45 -10.0" fill="#cf8c11" fill-rule="evenodd" stroke="none"/>
    <path d="M-14.95 -12.65 L-14.95 -12.15 -15.2 -12.65 -15.2 -13.1 -14.95 -12.65" fill="#cf8c11" fill-rule="evenodd" stroke="none"/>
    <path d="M-14.95 -13.1 L-14.95 -12.65 -15.2 -13.35 -15.2 -13.6 -14.95 -13.1" fill="#cf8c11" fill-rule="evenodd" stroke="none"/>
    <path d="M-14.95 -13.6 L-14.95 -13.35 -15.2 -13.85 -15.2 -14.35 -14.95 -13.6" fill="#cf8c11" fill-rule="evenodd" stroke="none"/>
    <path d="M-14.0 -9.25 L-14.2 -9.5 -14.2 -10.95 -14.0 -10.7 -14.0 -9.25" fill="#cf8c11" fill-rule="evenodd" stroke="none"/>
    <path d="M-13.75 -9.0 L-14.0 -9.25 -14.0 -10.7 -13.75 -10.45 -13.75 -9.0" fill="#cf8c11" fill-rule="evenodd" stroke="none"/>
    <path d="M-14.2 -11.2 L-14.2 -10.95 -14.45 -11.45 -14.45 -11.9 -14.2 -11.2" fill="#cf8c11" fill-rule="evenodd" stroke="none"/>
    <path d="M-14.2 -11.9 L-14.2 -11.45 -14.45 -11.9 -14.45 -12.4 -14.2 -11.9" fill="#cf8c11" fill-rule="evenodd" stroke="none"/>
    <path d="M-14.2 -12.4 L-14.2 -11.9 -14.45 -12.65 -14.45 -13.1 -14.2 -12.4" fill="#cf8c11" fill-rule="evenodd" stroke="none"/>
    <path d="M-12.75 -7.3 L-13.0 -7.55 -13.0 -9.0 -12.75 -8.75 -12.75 -7.3" fill="#cf8c11" fill-rule="evenodd" stroke="none"/>
    <path d="M-13.25 -10.0 L-13.25 -9.5 -13.75 -10.2 -13.75 -10.45 -13.25 -10.0" fill="#cf8c11" fill-rule="evenodd" stroke="none"/>
    <path d="M-13.25 -10.45 L-13.25 -10.2 -13.75 -10.7 -13.75 -11.2 -13.25 -10.45" fill="#cf8c11" fill-rule="evenodd" stroke="none"/>
    <path d="M-13.25 -11.2 L-13.25 -10.7 -13.75 -11.45 -13.75 -11.65 -13.25 -11.2" fill="#cf8c11" fill-rule="evenodd" stroke="none"/>
    <path d="M-13.0 -10.2 L-13.25 -10.45 -13.0 -10.45 -13.0 -10.2" fill="#a94c0e" fill-rule="evenodd" stroke="none"/>
    <path d="M-13.0 -9.75 L-13.25 -9.75 -13.25 -10.0 -13.0 -10.0 -13.0 -9.75" fill="#a94c0e" fill-rule="evenodd" stroke="none"/>
    <path d="M-12.25 -6.55 L-12.5 -6.8 -12.5 -8.25 -12.25 -8.05 -12.25 -6.55" fill="#cf8c11" fill-rule="evenodd" stroke="none"/>
    <path d="M-12.0 -6.3 L-12.25 -6.55 -12.25 -8.05 -12.0 -7.8 -12.0 -6.3" fill="#cf8c11" fill-rule="evenodd" stroke="none"/>
    <path d="M-12.5 -8.5 L-12.5 -8.25 -12.75 -8.75 -12.75 -9.25 -12.5 -8.5" fill="#cf8c11" fill-rule="evenodd" stroke="none"/>
    <path d="M-12.5 -9.25 L-12.5 -8.75 -12.75 -9.5 -12.75 -9.75 -12.5 -9.25" fill="#cf8c11" fill-rule="evenodd" stroke="none"/>
    <path d="M-12.5 -9.75 L-12.5 -9.5 -12.75 -10.0 -12.75 -10.45 -12.5 -9.75" fill="#cf8c11" fill-rule="evenodd" stroke="none"/>
    <path d="M-12.75 -8.05 Q-12.5 -6.8 -13.0 -6.3 L-13.75 -8.5 -12.75 -8.05" fill="#caa08b" fill-rule="evenodd" stroke="none"/>
    <path d="M-12.5 -7.3 L-12.75 -7.8 -12.5 -8.05 -12.5 -7.3" fill="#caa08b" fill-rule="evenodd" stroke="none"/>
    <path d="M-16.45 -32.45 L-16.9 -30.25 -16.9 -40.05 -12.0 -33.9 -12.0 -28.8 -11.75 -28.8 Q-11.75 -28.55 -12.0 -28.55 L-12.5 -25.15 Q-12.75 -27.35 -13.25 -28.3 L-14.0 -27.1 -14.2 -30.25 -14.7 -27.1 -15.45 -30.0 -15.95 -28.55 -16.45 -32.45" fill="#393939" fill-rule="evenodd" stroke="none"/>
    <path d="M16.65 -0.65 L-12.0 -0.65 -12.0 -34.15 16.65 -34.15 16.65 -0.65" fill="#fdc8ae" fill-rule="evenodd" stroke="none"/>
    <path d="M16.9 -12.65 L16.9 -0.9 16.15 -0.9 Q14.9 -4.1 10.5 -4.1 5.6 -4.1 4.85 -0.9 L-0.3 -0.9 Q-1.5 -4.1 -5.9 -4.1 -10.8 -4.1 -11.5 -0.9 L-12.0 -0.9 -12.0 -12.65 -2.0 -12.65 Q-0.8 -10.0 2.15 -10.0 5.1 -10.0 6.35 -12.65 L16.9 -12.65" fill="#ffffff" fill-rule="evenodd" stroke="none"/>
    <path d="M16.65 -6.05 L16.65 -0.65 Q15.4 -3.85 10.75 -3.85 6.1 -3.85 4.85 -0.65 L-0.3 -0.65 Q-1.5 -3.85 -6.15 -3.85 -10.8 -3.85 -12.0 -0.65 L-12.25 -0.65 -12.25 -6.05 16.65 -6.05" fill="#890c08" fill-rule="evenodd" stroke="none"/>
    <path d="M-6.15 -3.85 Q-1.5 -3.85 -0.3 -0.65 L-12.0 -0.65 Q-10.8 -3.85 -6.15 -3.85" fill="#000000" fill-rule="evenodd" stroke="none"/>
    <path d="M4.85 -0.65 Q6.1 -3.85 10.75 -3.85 15.4 -3.85 16.65 -0.65 L4.85 -0.65" fill="#000000" fill-rule="evenodd" stroke="none"/>
    <path d="M-10.8 -9.25 L-12.0 -9.25 -12.0 -10.45 -10.8 -10.45 -10.8 -9.25" fill="#ff7f00" fill-rule="evenodd" stroke="none"/>
    <path d="M-10.3 -9.25 L-10.8 -9.25 -10.8 -10.45 -10.3 -10.45 -10.3 -9.25" fill="#f9a613" fill-rule="evenodd" stroke="none"/>
    <path d="M-10.05 -9.25 L-10.3 -9.25 -10.3 -12.15 -10.05 -12.15 -10.05 -9.25" fill="#ff7f00" fill-rule="evenodd" stroke="none"/>
    <path d="M-9.55 -9.25 L-10.05 -9.25 -10.05 -10.45 -9.55 -10.45 -9.55 -9.25" fill="#f9a613" fill-rule="evenodd" stroke="none"/>
    <path d="M-9.55 -9.25 L-9.8 -9.25 -9.8 -12.15 -9.55 -12.15 -9.55 -9.25" fill="#ff7f00" fill-rule="evenodd" stroke="none"/>
    <path d="M-9.05 -9.25 L-9.55 -9.25 -9.55 -10.45 -9.05 -10.45 -9.05 -9.25" fill="#f9a613" fill-rule="evenodd" stroke="none"/>
    <path d="M-10.8 -10.95 L-10.8 -10.45 -12.0 -10.45 -12.0 -10.95 -10.8 -10.95" fill="#f9a613" fill-rule="evenodd" stroke="none"/>
    <path d="M-9.05 -11.2 L-9.05 -10.95 -12.0 -10.95 -12.0 -11.2 -9.05 -11.2" fill="#ff7f00" fill-rule="evenodd" stroke="none"/>
    <path d="M-10.8 -11.65 L-10.8 -11.2 -12.0 -11.2 -12.0 -11.65 -10.8 -11.65" fill="#f9a613" fill-rule="evenodd" stroke="none"/>
    <path d="M-10.8 -12.15 L-10.8 -11.65 -12.0 -11.65 -12.0 -12.15 -10.8 -12.15" fill="#f9a613" fill-rule="evenodd" stroke="none"/>
    <path d="M-10.05 -10.95 L-10.3 -10.95 -10.3 -11.2 -10.05 -11.2 -10.05 -10.95" fill="#d15e12" fill-rule="evenodd" stroke="none"/>
    <path d="M-9.55 -10.95 L-9.8 -10.95 -9.8 -11.2 -9.55 -11.2 -9.55 -10.95" fill="#d15e12" fill-rule="evenodd" stroke="none"/>
    <path d="M-7.6 -9.25 L-9.05 -9.25 -9.05 -10.45 -7.6 -10.45 -7.6 -9.25" fill="#ff7f00" fill-rule="evenodd" stroke="none"/>
    <path d="M-7.35 -9.25 L-7.6 -9.25 -7.6 -10.45 -7.35 -10.45 -7.35 -9.25" fill="#f9a613" fill-rule="evenodd" stroke="none"/>
    <path d="M-7.1 -9.25 L-7.35 -9.25 -7.35 -12.15 -7.1 -12.15 -7.1 -9.25" fill="#ff7f00" fill-rule="evenodd" stroke="none"/>
    <path d="M-6.6 -9.25 L-7.1 -9.25 -7.1 -10.45 -6.6 -10.45 -6.6 -9.25" fill="#f9a613" fill-rule="evenodd" stroke="none"/>
    <path d="M-6.35 -9.25 L-6.6 -9.25 -6.6 -12.15 -6.35 -12.15 -6.35 -9.25" fill="#ff7f00" fill-rule="evenodd" stroke="none"/>
    <path d="M-6.15 -9.25 L-6.35 -9.25 -6.35 -10.45 -6.15 -10.45 -6.15 -9.25" fill="#f9a613" fill-rule="evenodd" stroke="none"/>
    <path d="M-7.6 -10.95 L-7.6 -10.45 -9.05 -10.45 -9.05 -10.95 -7.6 -10.95" fill="#f9a613" fill-rule="evenodd" stroke="none"/>
    <path d="M-6.15 -11.2 L-6.15 -10.95 -9.05 -10.95 -9.05 -11.2 -6.15 -11.2" fill="#ff7f00" fill-rule="evenodd" stroke="none"/>
    <path d="M-7.6 -11.65 L-7.6 -11.2 -9.05 -11.2 -9.05 -11.65 -7.6 -11.65" fill="#f9a613" fill-rule="evenodd" stroke="none"/>
    <path d="M-7.6 -12.15 L-7.6 -11.65 -9.05 -11.65 -9.05 -12.15 -7.6 -12.15" fill="#f9a613" fill-rule="evenodd" stroke="none"/>
    <path d="M-7.1 -10.95 L-7.35 -10.95 -7.35 -11.2 -7.1 -11.2 -7.1 -10.95" fill="#d15e12" fill-rule="evenodd" stroke="none"/>
    <path d="M-6.35 -10.95 L-6.6 -10.95 -6.6 -11.2 -6.35 -11.2 -6.35 -10.95" fill="#d15e12" fill-rule="evenodd" stroke="none"/>
    <path d="M-4.65 -9.25 L-6.15 -9.25 -6.15 -10.45 -4.65 -10.45 -4.65 -9.25" fill="#ff7f00" fill-rule="evenodd" stroke="none"/>
    <path d="M-4.2 -9.25 L-4.65 -9.25 -4.65 -10.45 -4.2 -10.45 -4.2 -9.25" fill="#f9a613" fill-rule="evenodd" stroke="none"/>
    <path d="M-3.95 -9.25 L-4.2 -9.25 -4.2 -12.15 -3.95 -12.15 -3.95 -9.25" fill="#ff7f00" fill-rule="evenodd" stroke="none"/>
    <path d="M-3.7 -9.25 L-3.95 -9.25 -3.95 -10.45 -3.7 -10.45 -3.7 -9.25" fill="#f9a613" fill-rule="evenodd" stroke="none"/>
    <path d="M-3.45 -9.25 L-3.7 -9.25 -3.7 -12.15 -3.45 -12.15 -3.45 -9.25" fill="#ff7f00" fill-rule="evenodd" stroke="none"/>
    <path d="M-2.95 -9.25 L-3.45 -9.25 -3.45 -10.45 -2.95 -10.45 -2.95 -9.25" fill="#f9a613" fill-rule="evenodd" stroke="none"/>
    <path d="M-4.65 -10.95 L-4.65 -10.45 -6.15 -10.45 -6.15 -10.95 -4.65 -10.95" fill="#f9a613" fill-rule="evenodd" stroke="none"/>
    <path d="M-2.95 -11.2 L-2.95 -10.95 -6.15 -10.95 -6.15 -11.2 -2.95 -11.2" fill="#ff7f00" fill-rule="evenodd" stroke="none"/>
    <path d="M-4.65 -11.65 L-4.65 -11.2 -6.15 -11.2 -6.15 -11.65 -4.65 -11.65" fill="#f9a613" fill-rule="evenodd" stroke="none"/>
    <path d="M-4.65 -12.15 L-4.65 -11.65 -6.15 -11.65 -6.15 -12.15 -4.65 -12.15" fill="#f9a613" fill-rule="evenodd" stroke="none"/>
    <path d="M-3.95 -10.95 L-4.2 -10.95 -4.2 -11.2 -3.95 -11.2 -3.95 -10.95" fill="#d15e12" fill-rule="evenodd" stroke="none"/>
    <path d="M-3.45 -10.95 L-3.7 -10.95 -3.7 -11.2 -3.45 -11.2 -3.45 -10.95" fill="#d15e12" fill-rule="evenodd" stroke="none"/>
    <path d="M-1.75 -9.25 L-2.95 -9.25 -2.95 -10.45 -1.75 -10.45 -1.75 -9.25" fill="#ff7f00" fill-rule="evenodd" stroke="none"/>
    <path d="M-1.25 -9.25 L-1.75 -9.25 -1.75 -10.45 -1.25 -10.45 -1.25 -9.25" fill="#f9a613" fill-rule="evenodd" stroke="none"/>
    <path d="M-1.0 -9.25 L-1.25 -9.25 -1.25 -12.15 -1.0 -12.15 -1.0 -9.25" fill="#ff7f00" fill-rule="evenodd" stroke="none"/>
    <path d="M-0.55 -9.25 L-1.0 -9.25 -1.0 -10.45 -0.55 -10.45 -0.55 -9.25" fill="#f9a613" fill-rule="evenodd" stroke="none"/>
    <path d="M-0.05 -9.25 L-0.55 -9.25 -0.55 -10.45 -0.05 -10.45 -0.05 -9.25" fill="#f9a613" fill-rule="evenodd" stroke="none"/>
    <path d="M-1.75 -10.95 L-1.75 -10.45 -2.95 -10.45 -2.95 -10.95 -1.75 -10.95" fill="#f9a613" fill-rule="evenodd" stroke="none"/>
    <path d="M-0.05 -11.2 L-0.05 -10.95 -2.95 -10.95 -2.95 -11.2 -0.05 -11.2" fill="#ff7f00" fill-rule="evenodd" stroke="none"/>
    <path d="M-1.75 -11.65 L-1.75 -11.2 -2.95 -11.2 -2.95 -11.65 -1.75 -11.65" fill="#f9a613" fill-rule="evenodd" stroke="none"/>
    <path d="M-1.75 -12.15 L-1.75 -11.65 -2.95 -11.65 -2.95 -12.15 -1.75 -12.15" fill="#f9a613" fill-rule="evenodd" stroke="none"/>
    <path d="M-1.0 -10.95 L-1.25 -10.95 -1.25 -11.2 -1.0 -11.2 -1.0 -10.95" fill="#d15e12" fill-rule="evenodd" stroke="none"/>
    <path d="M1.45 -9.25 L-0.05 -9.25 -0.05 -10.45 1.45 -10.45 1.45 -9.25" fill="#ff7f00" fill-rule="evenodd" stroke="none"/>
    <path d="M1.9 -9.25 L1.45 -9.25 1.45 -10.45 1.9 -10.45 1.9 -9.25" fill="#f9a613" fill-rule="evenodd" stroke="none"/>
    <path d="M2.4 -9.25 L1.9 -9.25 1.9 -10.45 2.4 -10.45 2.4 -9.25" fill="#f9a613" fill-rule="evenodd" stroke="none"/>
    <path d="M2.65 -9.25 L2.4 -9.25 2.4 -12.15 2.65 -12.15 2.65 -9.25" fill="#ff7f00" fill-rule="evenodd" stroke="none"/>
    <path d="M3.15 -9.25 L2.65 -9.25 2.65 -10.45 3.15 -10.45 3.15 -9.25" fill="#f9a613" fill-rule="evenodd" stroke="none"/>
    <path d="M1.45 -10.95 L1.45 -10.45 -0.05 -10.45 -0.05 -10.95 1.45 -10.95" fill="#f9a613" fill-rule="evenodd" stroke="none"/>
    <path d="M3.15 -11.2 L3.15 -10.95 -0.05 -10.95 -0.05 -11.2 3.15 -11.2" fill="#ff7f00" fill-rule="evenodd" stroke="none"/>
    <path d="M1.45 -11.65 L1.45 -11.2 -0.05 -11.2 -0.05 -11.65 1.45 -11.65" fill="#f9a613" fill-rule="evenodd" stroke="none"/>
    <path d="M1.45 -12.15 L1.45 -11.65 -0.05 -11.65 -0.05 -12.15 1.45 -12.15" fill="#f9a613" fill-rule="evenodd" stroke="none"/>
    <path d="M2.65 -10.95 L2.4 -10.95 2.4 -11.2 2.65 -11.2 2.65 -10.95" fill="#d15e12" fill-rule="evenodd" stroke="none"/>
    <path d="M4.35 -9.25 L3.15 -9.25 3.15 -10.45 4.35 -10.45 4.35 -9.25" fill="#ff7f00" fill-rule="evenodd" stroke="none"/>
    <path d="M4.85 -9.25 L4.35 -9.25 4.35 -10.45 4.85 -10.45 4.85 -9.25" fill="#f9a613" fill-rule="evenodd" stroke="none"/>
    <path d="M5.1 -9.25 L4.85 -9.25 4.85 -12.15 5.1 -12.15 5.1 -9.25" fill="#ff7f00" fill-rule="evenodd" stroke="none"/>
    <path d="M5.35 -9.25 L5.1 -9.25 5.1 -10.45 5.35 -10.45 5.35 -9.25" fill="#f9a613" fill-rule="evenodd" stroke="none"/>
    <path d="M5.6 -9.25 L5.35 -9.25 5.35 -12.15 5.6 -12.15 5.6 -9.25" fill="#ff7f00" fill-rule="evenodd" stroke="none"/>
    <path d="M6.1 -9.25 L5.6 -9.25 5.6 -10.45 6.1 -10.45 6.1 -9.25" fill="#f9a613" fill-rule="evenodd" stroke="none"/>
    <path d="M4.35 -10.95 L4.35 -10.45 3.15 -10.45 3.15 -10.95 4.35 -10.95" fill="#f9a613" fill-rule="evenodd" stroke="none"/>
    <path d="M6.1 -11.2 L6.1 -10.95 3.15 -10.95 3.15 -11.2 6.1 -11.2" fill="#ff7f00" fill-rule="evenodd" stroke="none"/>
    <path d="M4.35 -11.65 L4.35 -11.2 3.15 -11.2 3.15 -11.65 4.35 -11.65" fill="#f9a613" fill-rule="evenodd" stroke="none"/>
    <path d="M4.35 -12.15 L4.35 -11.65 3.15 -11.65 3.15 -12.15 4.35 -12.15" fill="#f9a613" fill-rule="evenodd" stroke="none"/>
    <path d="M5.1 -10.95 L4.85 -10.95 4.85 -11.2 5.1 -11.2 5.1 -10.95" fill="#d15e12" fill-rule="evenodd" stroke="none"/>
    <path d="M5.6 -10.95 L5.35 -10.95 5.35 -11.2 5.6 -11.2 5.6 -10.95" fill="#d15e12" fill-rule="evenodd" stroke="none"/>
    <path d="M-10.8 -6.05 L-12.0 -6.05 -12.0 -7.55 -10.8 -7.55 -10.8 -6.05" fill="#ff7f00" fill-rule="evenodd" stroke="none"/>
    <path d="M-10.3 -6.05 L-10.8 -6.05 -10.8 -7.55 -10.3 -7.55 -10.3 -6.05" fill="#f9a613" fill-rule="evenodd" stroke="none"/>
    <path d="M-10.05 -6.05 L-10.3 -6.05 -10.3 -9.25 -10.05 -9.25 -10.05 -6.05" fill="#ff7f00" fill-rule="evenodd" stroke="none"/>
    <path d="M-9.55 -6.05 L-10.05 -6.05 -10.05 -7.55 -9.55 -7.55 -9.55 -6.05" fill="#f9a613" fill-rule="evenodd" stroke="none"/>
    <path d="M-9.55 -6.05 L-9.8 -6.05 -9.8 -9.25 -9.55 -9.25 -9.55 -6.05" fill="#ff7f00" fill-rule="evenodd" stroke="none"/>
    <path d="M-9.05 -6.05 L-9.55 -6.05 -9.55 -7.55 -9.05 -7.55 -9.05 -6.05" fill="#f9a613" fill-rule="evenodd" stroke="none"/>
    <path d="M-10.8 -7.8 L-10.8 -7.55 -12.0 -7.55 -12.0 -7.8 -10.8 -7.8" fill="#f9a613" fill-rule="evenodd" stroke="none"/>
    <path d="M-9.05 -8.05 L-9.05 -7.8 -12.0 -7.8 -12.0 -8.05 -9.05 -8.05" fill="#ff7f00" fill-rule="evenodd" stroke="none"/>
    <path d="M-10.8 -8.5 L-10.8 -8.05 -12.0 -8.05 -12.0 -8.5 -10.8 -8.5" fill="#f9a613" fill-rule="evenodd" stroke="none"/>
    <path d="M-9.05 -8.75 L-9.05 -8.5 -12.0 -8.5 -12.0 -8.75 -9.05 -8.75" fill="#ff7f00" fill-rule="evenodd" stroke="none"/>
    <path d="M-10.8 -9.25 L-10.8 -8.75 -12.0 -8.75 -12.0 -9.25 -10.8 -9.25" fill="#f9a613" fill-rule="evenodd" stroke="none"/>
    <path d="M-10.05 -8.5 L-10.3 -8.5 -10.3 -8.75 -10.05 -8.75 -10.05 -8.5" fill="#d15e12" fill-rule="evenodd" stroke="none"/>
    <path d="M-9.55 -8.5 L-9.8 -8.5 -9.8 -8.75 -9.55 -8.75 -9.55 -8.5" fill="#d15e12" fill-rule="evenodd" stroke="none"/>
    <path d="M-10.05 -7.8 L-10.3 -7.8 -10.3 -8.05 -10.05 -8.05 -10.05 -7.8" fill="#d15e12" fill-rule="evenodd" stroke="none"/>
    <path d="M-9.55 -7.8 L-9.8 -7.8 -9.8 -8.05 -9.55 -8.05 -9.55 -7.8" fill="#d15e12" fill-rule="evenodd" stroke="none"/>
    <path d="M-7.6 -6.05 L-9.05 -6.05 -9.05 -7.55 -7.6 -7.55 -7.6 -6.05" fill="#ff7f00" fill-rule="evenodd" stroke="none"/>
    <path d="M-7.35 -6.05 L-7.6 -6.05 -7.6 -7.55 -7.35 -7.55 -7.35 -6.05" fill="#f9a613" fill-rule="evenodd" stroke="none"/>
    <path d="M-7.1 -6.05 L-7.35 -6.05 -7.35 -9.25 -7.1 -9.25 -7.1 -6.05" fill="#ff7f00" fill-rule="evenodd" stroke="none"/>
    <path d="M-6.6 -6.05 L-7.1 -6.05 -7.1 -7.55 -6.6 -7.55 -6.6 -6.05" fill="#f9a613" fill-rule="evenodd" stroke="none"/>
    <path d="M-6.35 -6.05 L-6.6 -6.05 -6.6 -9.25 -6.35 -9.25 -6.35 -6.05" fill="#ff7f00" fill-rule="evenodd" stroke="none"/>
    <path d="M-6.15 -6.05 L-6.35 -6.05 -6.35 -7.55 -6.15 -7.55 -6.15 -6.05" fill="#f9a613" fill-rule="evenodd" stroke="none"/>
    <path d="M-7.6 -7.8 L-7.6 -7.55 -9.05 -7.55 -9.05 -7.8 -7.6 -7.8" fill="#f9a613" fill-rule="evenodd" stroke="none"/>
    <path d="M-6.15 -8.05 L-6.15 -7.8 -9.05 -7.8 -9.05 -8.05 -6.15 -8.05" fill="#ff7f00" fill-rule="evenodd" stroke="none"/>
    <path d="M-7.6 -8.5 L-7.6 -8.05 -9.05 -8.05 -9.05 -8.5 -7.6 -8.5" fill="#f9a613" fill-rule="evenodd" stroke="none"/>
    <path d="M-5.9 -8.75 L-5.9 -8.5 -9.05 -8.5 -9.05 -8.75 -5.9 -8.75" fill="#ff7f00" fill-rule="evenodd" stroke="none"/>
    <path d="M-7.6 -9.25 L-7.6 -8.75 -9.05 -8.75 -9.05 -9.25 -7.6 -9.25" fill="#f9a613" fill-rule="evenodd" stroke="none"/>
    <path d="M-7.1 -8.5 L-7.35 -8.5 -7.35 -8.75 -7.1 -8.75 -7.1 -8.5" fill="#d15e12" fill-rule="evenodd" stroke="none"/>
    <path d="M-6.35 -8.5 L-6.6 -8.5 -6.6 -8.75 -6.35 -8.75 -6.35 -8.5" fill="#d15e12" fill-rule="evenodd" stroke="none"/>
    <path d="M-7.1 -7.8 L-7.35 -7.8 -7.35 -8.05 -7.1 -8.05 -7.1 -7.8" fill="#d15e12" fill-rule="evenodd" stroke="none"/>
    <path d="M-6.35 -7.8 L-6.6 -7.8 -6.6 -8.05 -6.35 -8.05 -6.35 -7.8" fill="#d15e12" fill-rule="evenodd" stroke="none"/>
    <path d="M-4.65 -6.05 L-6.15 -6.05 -6.15 -7.55 -4.65 -7.55 -4.65 -6.05" fill="#ff7f00" fill-rule="evenodd" stroke="none"/>
    <path d="M-4.2 -6.05 L-4.65 -6.05 -4.65 -7.55 -4.2 -7.55 -4.2 -6.05" fill="#f9a613" fill-rule="evenodd" stroke="none"/>
    <path d="M-3.95 -6.05 L-4.2 -6.05 -4.2 -9.25 -3.95 -9.25 -3.95 -6.05" fill="#ff7f00" fill-rule="evenodd" stroke="none"/>
    <path d="M-3.7 -6.05 L-3.95 -6.05 -3.95 -7.55 -3.7 -7.55 -3.7 -6.05" fill="#f9a613" fill-rule="evenodd" stroke="none"/>
    <path d="M-3.45 -6.05 L-3.7 -6.05 -3.7 -9.25 -3.45 -9.25 -3.45 -6.05" fill="#ff7f00" fill-rule="evenodd" stroke="none"/>
    <path d="M-2.95 -6.05 L-3.45 -6.05 -3.45 -7.55 -2.95 -7.55 -2.95 -6.05" fill="#f9a613" fill-rule="evenodd" stroke="none"/>
    <path d="M-4.65 -7.8 L-4.65 -7.55 -6.15 -7.55 -6.15 -7.8 -4.65 -7.8" fill="#f9a613" fill-rule="evenodd" stroke="none"/>
    <path d="M-2.95 -8.05 L-2.95 -7.8 -6.15 -7.8 -6.15 -8.05 -2.95 -8.05" fill="#ff7f00" fill-rule="evenodd" stroke="none"/>
    <path d="M-4.65 -8.5 L-4.65 -8.05 -6.15 -8.05 -6.15 -8.5 -4.65 -8.5" fill="#f9a613" fill-rule="evenodd" stroke="none"/>
    <path d="M-2.95 -8.75 L-2.95 -8.5 -6.15 -8.5 -6.15 -8.75 -2.95 -8.75" fill="#ff7f00" fill-rule="evenodd" stroke="none"/>
    <path d="M-4.65 -9.25 L-4.65 -8.75 -6.15 -8.75 -6.15 -9.25 -4.65 -9.25" fill="#f9a613" fill-rule="evenodd" stroke="none"/>
    <path d="M-3.95 -8.5 L-4.2 -8.5 -4.2 -8.75 -3.95 -8.75 -3.95 -8.5" fill="#d15e12" fill-rule="evenodd" stroke="none"/>
    <path d="M-3.45 -8.5 L-3.7 -8.5 -3.7 -8.75 -3.45 -8.75 -3.45 -8.5" fill="#d15e12" fill-rule="evenodd" stroke="none"/>
    <path d="M-3.95 -7.8 L-4.2 -7.8 -4.2 -8.05 -3.95 -8.05 -3.95 -7.8" fill="#d15e12" fill-rule="evenodd" stroke="none"/>
    <path d="M-3.45 -7.8 L-3.7 -7.8 -3.7 -8.05 -3.45 -8.05 -3.45 -7.8" fill="#d15e12" fill-rule="evenodd" stroke="none"/>
    <path d="M-1.75 -6.05 L-2.95 -6.05 -2.95 -7.55 -1.75 -7.55 -1.75 -6.05" fill="#ff7f00" fill-rule="evenodd" stroke="none"/>
    <path d="M-1.25 -6.05 L-1.75 -6.05 -1.75 -7.55 -1.25 -7.55 -1.25 -6.05" fill="#f9a613" fill-rule="evenodd" stroke="none"/>
    <path d="M-1.0 -6.05 L-1.25 -6.05 -1.25 -9.25 -1.0 -9.25 -1.0 -6.05" fill="#ff7f00" fill-rule="evenodd" stroke="none"/>
    <path d="M-0.55 -6.05 L-1.0 -6.05 -1.0 -7.55 -0.55 -7.55 -0.55 -6.05" fill="#f9a613" fill-rule="evenodd" stroke="none"/>
    <path d="M-0.05 -6.05 L-0.55 -6.05 -0.55 -7.55 -0.05 -7.55 -0.05 -6.05" fill="#f9a613" fill-rule="evenodd" stroke="none"/>
    <path d="M-1.75 -7.8 L-1.75 -7.55 -2.95 -7.55 -2.95 -7.8 -1.75 -7.8" fill="#f9a613" fill-rule="evenodd" stroke="none"/>
    <path d="M-0.05 -8.05 L-0.05 -7.8 -2.95 -7.8 -2.95 -8.05 -0.05 -8.05" fill="#ff7f00" fill-rule="evenodd" stroke="none"/>
    <path d="M-1.75 -8.5 L-1.75 -8.05 -2.95 -8.05 -2.95 -8.5 -1.75 -8.5" fill="#f9a613" fill-rule="evenodd" stroke="none"/>
    <path d="M0.2 -8.75 L0.2 -8.5 -2.95 -8.5 -2.95 -8.75 0.2 -8.75" fill="#ff7f00" fill-rule="evenodd" stroke="none"/>
    <path d="M-1.75 -9.25 L-1.75 -8.75 -2.95 -8.75 -2.95 -9.25 -1.75 -9.25" fill="#f9a613" fill-rule="evenodd" stroke="none"/>
    <path d="M-1.0 -8.5 L-1.25 -8.5 -1.25 -8.75 -1.0 -8.75 -1.0 -8.5" fill="#d15e12" fill-rule="evenodd" stroke="none"/>
    <path d="M-1.0 -7.8 L-1.25 -7.8 -1.25 -8.05 -1.0 -8.05 -1.0 -7.8" fill="#d15e12" fill-rule="evenodd" stroke="none"/>
    <path d="M1.45 -6.05 L-0.05 -6.05 -0.05 -7.55 1.45 -7.55 1.45 -6.05" fill="#ff7f00" fill-rule="evenodd" stroke="none"/>
    <path d="M1.9 -6.05 L1.45 -6.05 1.45 -7.55 1.9 -7.55 1.9 -6.05" fill="#f9a613" fill-rule="evenodd" stroke="none"/>
    <path d="M2.4 -6.05 L1.9 -6.05 1.9 -7.55 2.4 -7.55 2.4 -6.05" fill="#f9a613" fill-rule="evenodd" stroke="none"/>
    <path d="M2.65 -6.05 L2.4 -6.05 2.4 -9.25 2.65 -9.25 2.65 -6.05" fill="#ff7f00" fill-rule="evenodd" stroke="none"/>
    <path d="M3.15 -6.05 L2.65 -6.05 2.65 -7.55 3.15 -7.55 3.15 -6.05" fill="#f9a613" fill-rule="evenodd" stroke="none"/>
    <path d="M1.45 -7.8 L1.45 -7.55 -0.05 -7.55 -0.05 -7.8 1.45 -7.8" fill="#f9a613" fill-rule="evenodd" stroke="none"/>
    <path d="M3.15 -8.05 L3.15 -7.8 -0.05 -7.8 -0.05 -8.05 3.15 -8.05" fill="#ff7f00" fill-rule="evenodd" stroke="none"/>
    <path d="M1.45 -8.5 L1.45 -8.05 -0.05 -8.05 -0.05 -8.5 1.45 -8.5" fill="#f9a613" fill-rule="evenodd" stroke="none"/>
    <path d="M3.15 -8.75 L3.15 -8.5 -0.05 -8.5 -0.05 -8.75 3.15 -8.75" fill="#ff7f00" fill-rule="evenodd" stroke="none"/>
    <path d="M1.45 -9.25 L1.45 -8.75 -0.05 -8.75 -0.05 -9.25 1.45 -9.25" fill="#f9a613" fill-rule="evenodd" stroke="none"/>
    <path d="M2.65 -8.5 L2.4 -8.5 2.4 -8.75 2.65 -8.75 2.65 -8.5" fill="#d15e12" fill-rule="evenodd" stroke="none"/>
    <path d="M2.65 -7.8 L2.4 -7.8 2.4 -8.05 2.65 -8.05 2.65 -7.8" fill="#d15e12" fill-rule="evenodd" stroke="none"/>
    <path d="M4.35 -6.05 L3.15 -6.05 3.15 -7.55 4.35 -7.55 4.35 -6.05" fill="#ff7f00" fill-rule="evenodd" stroke="none"/>
    <path d="M4.85 -6.05 L4.35 -6.05 4.35 -7.55 4.85 -7.55 4.85 -6.05" fill="#f9a613" fill-rule="evenodd" stroke="none"/>
    <path d="M5.1 -6.05 L4.85 -6.05 4.85 -9.25 5.1 -9.25 5.1 -6.05" fill="#ff7f00" fill-rule="evenodd" stroke="none"/>
    <path d="M5.35 -6.05 L5.1 -6.05 5.1 -7.55 5.35 -7.55 5.35 -6.05" fill="#f9a613" fill-rule="evenodd" stroke="none"/>
    <path d="M5.6 -6.05 L5.35 -6.05 5.35 -9.25 5.6 -9.25 5.6 -6.05" fill="#ff7f00" fill-rule="evenodd" stroke="none"/>
    <path d="M6.1 -6.05 L5.6 -6.05 5.6 -7.55 6.1 -7.55 6.1 -6.05" fill="#f9a613" fill-rule="evenodd" stroke="none"/>
    <path d="M4.35 -7.8 L4.35 -7.55 3.15 -7.55 3.15 -7.8 4.35 -7.8" fill="#f9a613" fill-rule="evenodd" stroke="none"/>
    <path d="M6.1 -8.05 L6.1 -7.8 3.15 -7.8 3.15 -8.05 6.1 -8.05" fill="#ff7f00" fill-rule="evenodd" stroke="none"/>
    <path d="M4.35 -8.5 L4.35 -8.05 3.15 -8.05 3.15 -8.5 4.35 -8.5" fill="#f9a613" fill-rule="evenodd" stroke="none"/>
    <path d="M6.1 -8.75 L6.1 -8.5 3.15 -8.5 3.15 -8.75 6.1 -8.75" fill="#ff7f00" fill-rule="evenodd" stroke="none"/>
    <path d="M4.35 -9.25 L4.35 -8.75 3.15 -8.75 3.15 -9.25 4.35 -9.25" fill="#f9a613" fill-rule="evenodd" stroke="none"/>
    <path d="M5.1 -8.5 L4.85 -8.5 4.85 -8.75 5.1 -8.75 5.1 -8.5" fill="#d15e12" fill-rule="evenodd" stroke="none"/>
    <path d="M5.6 -8.5 L5.35 -8.5 5.35 -8.75 5.6 -8.75 5.6 -8.5" fill="#d15e12" fill-rule="evenodd" stroke="none"/>
    <path d="M5.1 -7.8 L4.85 -7.8 4.85 -8.05 5.1 -8.05 5.1 -7.8" fill="#d15e12" fill-rule="evenodd" stroke="none"/>
    <path d="M5.6 -7.8 L5.35 -7.8 5.35 -8.05 5.6 -8.05 5.6 -7.8" fill="#d15e12" fill-rule="evenodd" stroke="none"/>
    <path d="M7.55 -9.25 L6.1 -9.25 6.1 -10.45 7.55 -10.45 7.55 -9.25" fill="#ff7f00" fill-rule="evenodd" stroke="none"/>
    <path d="M7.8 -9.25 L7.55 -9.25 7.55 -10.45 7.8 -10.45 7.8 -9.25" fill="#f9a613" fill-rule="evenodd" stroke="none"/>
    <path d="M8.05 -9.25 L7.8 -9.25 7.8 -12.15 8.05 -12.15 8.05 -9.25" fill="#ff7f00" fill-rule="evenodd" stroke="none"/>
    <path d="M8.55 -9.25 L8.05 -9.25 8.05 -10.45 8.55 -10.45 8.55 -9.25" fill="#f9a613" fill-rule="evenodd" stroke="none"/>
    <path d="M8.8 -9.25 L8.55 -9.25 8.55 -12.15 8.8 -12.15 8.8 -9.25" fill="#ff7f00" fill-rule="evenodd" stroke="none"/>
    <path d="M9.05 -9.25 L8.8 -9.25 8.8 -10.45 9.05 -10.45 9.05 -9.25" fill="#f9a613" fill-rule="evenodd" stroke="none"/>
    <path d="M7.55 -10.95 L7.55 -10.45 6.1 -10.45 6.1 -10.95 7.55 -10.95" fill="#f9a613" fill-rule="evenodd" stroke="none"/>
    <path d="M9.05 -11.2 L9.05 -10.95 6.1 -10.95 6.1 -11.2 9.05 -11.2" fill="#ff7f00" fill-rule="evenodd" stroke="none"/>
    <path d="M7.55 -11.65 L7.55 -11.2 6.1 -11.2 6.1 -11.65 7.55 -11.65" fill="#f9a613" fill-rule="evenodd" stroke="none"/>
    <path d="M7.55 -12.15 L7.55 -11.65 6.1 -11.65 6.1 -12.15 7.55 -12.15" fill="#f9a613" fill-rule="evenodd" stroke="none"/>
    <path d="M8.05 -10.95 L7.8 -10.95 7.8 -11.2 8.05 -11.2 8.05 -10.95" fill="#d15e12" fill-rule="evenodd" stroke="none"/>
    <path d="M8.8 -10.95 L8.55 -10.95 8.55 -11.2 8.8 -11.2 8.8 -10.95" fill="#d15e12" fill-rule="evenodd" stroke="none"/>
    <path d="M10.5 -9.25 L9.05 -9.25 9.05 -10.45 10.5 -10.45 10.5 -9.25" fill="#ff7f00" fill-rule="evenodd" stroke="none"/>
    <path d="M11.0 -9.25 L10.5 -9.25 10.5 -10.45 11.0 -10.45 11.0 -9.25" fill="#f9a613" fill-rule="evenodd" stroke="none"/>
    <path d="M11.5 -9.25 L11.0 -9.25 11.0 -10.45 11.5 -10.45 11.5 -9.25" fill="#f9a613" fill-rule="evenodd" stroke="none"/>
    <path d="M11.75 -9.25 L11.5 -9.25 11.5 -12.15 11.75 -12.15 11.75 -9.25" fill="#ff7f00" fill-rule="evenodd" stroke="none"/>
    <path d="M12.2 -9.25 L11.75 -9.25 11.75 -10.45 12.2 -10.45 12.2 -9.25" fill="#f9a613" fill-rule="evenodd" stroke="none"/>
    <path d="M10.5 -10.95 L10.5 -10.45 9.05 -10.45 9.05 -10.95 10.5 -10.95" fill="#f9a613" fill-rule="evenodd" stroke="none"/>
    <path d="M12.2 -11.2 L12.2 -10.95 9.05 -10.95 9.05 -11.2 12.2 -11.2" fill="#ff7f00" fill-rule="evenodd" stroke="none"/>
    <path d="M10.5 -11.65 L10.5 -11.2 9.05 -11.2 9.05 -11.65 10.5 -11.65" fill="#f9a613" fill-rule="evenodd" stroke="none"/>
    <path d="M10.5 -12.15 L10.5 -11.65 9.05 -11.65 9.05 -12.15 10.5 -12.15" fill="#f9a613" fill-rule="evenodd" stroke="none"/>
    <path d="M11.75 -10.95 L11.5 -10.95 11.5 -11.2 11.75 -11.2 11.75 -10.95" fill="#d15e12" fill-rule="evenodd" stroke="none"/>
    <path d="M13.45 -9.25 L12.2 -9.25 12.2 -10.45 13.45 -10.45 13.45 -9.25" fill="#ff7f00" fill-rule="evenodd" stroke="none"/>
    <path d="M13.95 -9.25 L13.45 -9.25 13.45 -10.45 13.95 -10.45 13.95 -9.25" fill="#f9a613" fill-rule="evenodd" stroke="none"/>
    <path d="M14.2 -9.25 L13.95 -9.25 13.95 -12.15 14.2 -12.15 14.2 -9.25" fill="#ff7f00" fill-rule="evenodd" stroke="none"/>
    <path d="M14.65 -9.25 L14.2 -9.25 14.2 -10.45 14.65 -10.45 14.65 -9.25" fill="#f9a613" fill-rule="evenodd" stroke="none"/>
    <path d="M14.65 -9.25 L14.45 -9.25 14.45 -12.15 14.65 -12.15 14.65 -9.25" fill="#ff7f00" fill-rule="evenodd" stroke="none"/>
    <path d="M15.15 -9.25 L14.65 -9.25 14.65 -10.45 15.15 -10.45 15.15 -9.25" fill="#f9a613" fill-rule="evenodd" stroke="none"/>
    <path d="M13.45 -10.95 L13.45 -10.45 12.2 -10.45 12.2 -10.95 13.45 -10.95" fill="#f9a613" fill-rule="evenodd" stroke="none"/>
    <path d="M15.15 -11.2 L15.15 -10.95 12.2 -10.95 12.2 -11.2 15.15 -11.2" fill="#ff7f00" fill-rule="evenodd" stroke="none"/>
    <path d="M13.45 -11.65 L13.45 -11.2 12.2 -11.2 12.2 -11.65 13.45 -11.65" fill="#f9a613" fill-rule="evenodd" stroke="none"/>
    <path d="M13.45 -12.15 L13.45 -11.65 12.2 -11.65 12.2 -12.15 13.45 -12.15" fill="#f9a613" fill-rule="evenodd" stroke="none"/>
    <path d="M14.2 -10.95 L13.95 -10.95 13.95 -11.2 14.2 -11.2 14.2 -10.95" fill="#d15e12" fill-rule="evenodd" stroke="none"/>
    <path d="M16.65 -9.25 L15.15 -9.25 15.15 -10.45 16.65 -10.45 16.65 -9.25" fill="#ff7f00" fill-rule="evenodd" stroke="none"/>
    <path d="M16.65 -10.45 L15.15 -10.45 15.15 -10.95 16.65 -10.95 16.65 -10.45" fill="#f9a613" fill-rule="evenodd" stroke="none"/>
    <path d="M16.65 -10.95 L15.15 -10.95 15.15 -11.2 16.65 -11.2 16.65 -10.95" fill="#ff7f00" fill-rule="evenodd" stroke="none"/>
    <path d="M16.65 -11.2 L15.15 -11.2 15.15 -11.65 16.65 -11.65 16.65 -11.2" fill="#f9a613" fill-rule="evenodd" stroke="none"/>
    <path d="M16.65 -11.65 L15.15 -11.65 15.15 -12.15 16.65 -12.15 16.65 -11.65" fill="#f9a613" fill-rule="evenodd" stroke="none"/>
    <path d="M7.55 -6.05 L6.1 -6.05 6.1 -7.55 7.55 -7.55 7.55 -6.05" fill="#ff7f00" fill-rule="evenodd" stroke="none"/>
    <path d="M7.8 -6.05 L7.55 -6.05 7.55 -7.55 7.8 -7.55 7.8 -6.05" fill="#f9a613" fill-rule="evenodd" stroke="none"/>
    <path d="M8.05 -6.05 L7.8 -6.05 7.8 -9.25 8.05 -9.25 8.05 -6.05" fill="#ff7f00" fill-rule="evenodd" stroke="none"/>
    <path d="M8.55 -6.05 L8.05 -6.05 8.05 -7.55 8.55 -7.55 8.55 -6.05" fill="#f9a613" fill-rule="evenodd" stroke="none"/>
    <path d="M8.8 -6.05 L8.55 -6.05 8.55 -9.25 8.8 -9.25 8.8 -6.05" fill="#ff7f00" fill-rule="evenodd" stroke="none"/>
    <path d="M9.05 -6.05 L8.8 -6.05 8.8 -7.55 9.05 -7.55 9.05 -6.05" fill="#f9a613" fill-rule="evenodd" stroke="none"/>
    <path d="M7.55 -7.8 L7.55 -7.55 6.1 -7.55 6.1 -7.8 7.55 -7.8" fill="#f9a613" fill-rule="evenodd" stroke="none"/>
    <path d="M9.05 -8.05 L9.05 -7.8 6.1 -7.8 6.1 -8.05 9.05 -8.05" fill="#ff7f00" fill-rule="evenodd" stroke="none"/>
    <path d="M7.55 -8.5 L7.55 -8.05 6.1 -8.05 6.1 -8.5 7.55 -8.5" fill="#f9a613" fill-rule="evenodd" stroke="none"/>
    <path d="M9.3 -8.75 L9.3 -8.5 6.1 -8.5 6.1 -8.75 9.3 -8.75" fill="#ff7f00" fill-rule="evenodd" stroke="none"/>
    <path d="M7.55 -9.25 L7.55 -8.75 6.1 -8.75 6.1 -9.25 7.55 -9.25" fill="#f9a613" fill-rule="evenodd" stroke="none"/>
    <path d="M8.05 -8.5 L7.8 -8.5 7.8 -8.75 8.05 -8.75 8.05 -8.5" fill="#d15e12" fill-rule="evenodd" stroke="none"/>
    <path d="M8.8 -8.5 L8.55 -8.5 8.55 -8.75 8.8 -8.75 8.8 -8.5" fill="#d15e12" fill-rule="evenodd" stroke="none"/>
    <path d="M8.05 -7.8 L7.8 -7.8 7.8 -8.05 8.05 -8.05 8.05 -7.8" fill="#d15e12" fill-rule="evenodd" stroke="none"/>
    <path d="M8.8 -7.8 L8.55 -7.8 8.55 -8.05 8.8 -8.05 8.8 -7.8" fill="#d15e12" fill-rule="evenodd" stroke="none"/>
    <path d="M10.5 -6.05 L9.05 -6.05 9.05 -7.55 10.5 -7.55 10.5 -6.05" fill="#ff7f00" fill-rule="evenodd" stroke="none"/>
    <path d="M11.0 -6.05 L10.5 -6.05 10.5 -7.55 11.0 -7.55 11.0 -6.05" fill="#f9a613" fill-rule="evenodd" stroke="none"/>
    <path d="M11.5 -6.05 L11.0 -6.05 11.0 -7.55 11.5 -7.55 11.5 -6.05" fill="#f9a613" fill-rule="evenodd" stroke="none"/>
    <path d="M11.75 -6.05 L11.5 -6.05 11.5 -9.25 11.75 -9.25 11.75 -6.05" fill="#ff7f00" fill-rule="evenodd" stroke="none"/>
    <path d="M12.2 -6.05 L11.75 -6.05 11.75 -7.55 12.2 -7.55 12.2 -6.05" fill="#f9a613" fill-rule="evenodd" stroke="none"/>
    <path d="M10.5 -7.8 L10.5 -7.55 9.05 -7.55 9.05 -7.8 10.5 -7.8" fill="#f9a613" fill-rule="evenodd" stroke="none"/>
    <path d="M12.2 -8.05 L12.2 -7.8 9.05 -7.8 9.05 -8.05 12.2 -8.05" fill="#ff7f00" fill-rule="evenodd" stroke="none"/>
    <path d="M10.5 -8.5 L10.5 -8.05 9.05 -8.05 9.05 -8.5 10.5 -8.5" fill="#f9a613" fill-rule="evenodd" stroke="none"/>
    <path d="M12.2 -8.75 L12.2 -8.5 9.05 -8.5 9.05 -8.75 12.2 -8.75" fill="#ff7f00" fill-rule="evenodd" stroke="none"/>
    <path d="M10.5 -9.25 L10.5 -8.75 9.05 -8.75 9.05 -9.25 10.5 -9.25" fill="#f9a613" fill-rule="evenodd" stroke="none"/>
    <path d="M11.75 -8.5 L11.5 -8.5 11.5 -8.75 11.75 -8.75 11.75 -8.5" fill="#d15e12" fill-rule="evenodd" stroke="none"/>
    <path d="M11.75 -7.8 L11.5 -7.8 11.5 -8.05 11.75 -8.05 11.75 -7.8" fill="#d15e12" fill-rule="evenodd" stroke="none"/>
    <path d="M13.45 -6.05 L12.2 -6.05 12.2 -7.55 13.45 -7.55 13.45 -6.05" fill="#ff7f00" fill-rule="evenodd" stroke="none"/>
    <path d="M13.95 -6.05 L13.45 -6.05 13.45 -7.55 13.95 -7.55 13.95 -6.05" fill="#f9a613" fill-rule="evenodd" stroke="none"/>
    <path d="M14.2 -6.05 L13.95 -6.05 13.95 -9.25 14.2 -9.25 14.2 -6.05" fill="#ff7f00" fill-rule="evenodd" stroke="none"/>
    <path d="M14.65 -6.05 L14.2 -6.05 14.2 -7.55 14.65 -7.55 14.65 -6.05" fill="#f9a613" fill-rule="evenodd" stroke="none"/>
    <path d="M14.65 -6.05 L14.45 -6.05 14.45 -9.25 14.65 -9.25 14.65 -6.05" fill="#ff7f00" fill-rule="evenodd" stroke="none"/>
    <path d="M15.15 -6.05 L14.65 -6.05 14.65 -7.55 15.15 -7.55 15.15 -6.05" fill="#f9a613" fill-rule="evenodd" stroke="none"/>
    <path d="M13.45 -7.8 L13.45 -7.55 12.2 -7.55 12.2 -7.8 13.45 -7.8" fill="#f9a613" fill-rule="evenodd" stroke="none"/>
    <path d="M15.15 -8.05 L15.15 -7.8 12.2 -7.8 12.2 -8.05 15.15 -8.05" fill="#ff7f00" fill-rule="evenodd" stroke="none"/>
    <path d="M13.45 -8.5 L13.45 -8.05 12.2 -8.05 12.2 -8.5 13.45 -8.5" fill="#f9a613" fill-rule="evenodd" stroke="none"/>
    <path d="M15.15 -8.75 L15.15 -8.5 12.2 -8.5 12.2 -8.75 15.15 -8.75" fill="#ff7f00" fill-rule="evenodd" stroke="none"/>
    <path d="M13.45 -9.25 L13.45 -8.75 12.2 -8.75 12.2 -9.25 13.45 -9.25" fill="#f9a613" fill-rule="evenodd" stroke="none"/>
    <path d="M14.2 -8.5 L13.95 -8.5 13.95 -8.75 14.2 -8.75 14.2 -8.5" fill="#d15e12" fill-rule="evenodd" stroke="none"/>
    <path d="M14.2 -7.8 L13.95 -7.8 13.95 -8.05 14.2 -8.05 14.2 -7.8" fill="#d15e12" fill-rule="evenodd" stroke="none"/>
    <path d="M16.65 -6.05 L15.15 -6.05 15.15 -7.55 16.65 -7.55 16.65 -6.05" fill="#ff7f00" fill-rule="evenodd" stroke="none"/>
    <path d="M16.65 -7.55 L15.15 -7.55 15.15 -7.8 16.65 -7.8 16.65 -7.55" fill="#f9a613" fill-rule="evenodd" stroke="none"/>
    <path d="M16.65 -7.8 L15.15 -7.8 15.15 -8.05 16.65 -8.05 16.65 -7.8" fill="#ff7f00" fill-rule="evenodd" stroke="none"/>
    <path d="M16.65 -8.05 L15.15 -8.05 15.15 -8.5 16.65 -8.5 16.65 -8.05" fill="#f9a613" fill-rule="evenodd" stroke="none"/>
    <path d="M16.65 -8.5 L15.15 -8.5 15.15 -8.75 16.65 -8.75 16.65 -8.5" fill="#ff7f00" fill-rule="evenodd" stroke="none"/>
    <path d="M16.65 -8.75 L15.15 -8.75 15.15 -9.25 16.65 -9.25 16.65 -8.75" fill="#f9a613" fill-rule="evenodd" stroke="none"/>
    <path d="M2.15 -9.5 Q-1.0 -9.5 -2.25 -12.15 L6.8 -12.15 Q5.35 -9.5 2.15 -9.5" fill="#ffffff" fill-rule="evenodd" stroke="none"/>
    <path d="M6.8 -14.6 Q6.8 -9.75 2.15 -9.75 -2.5 -9.75 -2.5 -14.6 -2.5 -19.25 2.15 -19.25 6.8 -19.25 6.8 -14.6" fill="#fdc8ae" fill-rule="evenodd" stroke="none"/>
    <path d="M-7.1 -12.15 L-7.1 -5.8 -8.85 -5.8 -8.85 -12.15 -7.1 -12.15" fill="#890c08" fill-rule="evenodd" stroke="none"/>
    <path d="M12.95 -12.15 L12.95 -5.8 11.5 -5.8 11.5 -12.15 12.95 -12.15" fill="#890c08" fill-rule="evenodd" stroke="none"/>
    <path d="M16.65 -34.15 L16.65 -28.8 14.9 -24.4 12.2 -27.35 11.0 -23.9 6.6 -26.35 5.35 -21.7 3.15 -26.6 0.45 -22.9 -0.55 -27.1 -2.7 -23.9 -6.35 -26.85 Q-8.1 -23.65 -9.8 -22.7 -8.85 -24.15 -12.0 -28.8 L-12.0 -34.15 16.65 -34.15" fill="#4d4d4d" fill-rule="evenodd" stroke="none"/>
    <path d="M-16.9 -40.05 L9.5 -40.05 16.65 -34.15 -12.0 -34.15 -16.9 -40.05" fill="#645c58" fill-rule="evenodd" stroke="none"/>
  </g>
</svg>
