<?xml version="1.0" encoding="UTF-8" standalone="no"?>
<svg xmlns:xlink="http://www.w3.org/1999/xlink" height="390.45px" width="730.95px" xmlns="http://www.w3.org/2000/svg">
  <g transform="matrix(1.0, 0.0, 0.0, 1.0, 393.35, 187.7)">
    <path d="M121.95 -154.55 Q104.95 -143.9 57.05 -128.45 53.25 -127.7 47.35 -133.25 41.45 -138.75 35.6 -145.3 29.7 -151.85 26.05 -154.3 23.25 -155.75 -1.6 -158.25 -26.5 -160.75 -65.0 -161.5 -103.5 -162.2 -147.25 -158.25 -190.95 -154.3 -231.5 -142.8 -253.65 -136.5 -272.35 -127.1 L-279.7 -123.2 Q-291.0 -116.9 -300.95 -109.35 -326.4 -88.4 -331.1 -62.05 -335.8 -35.7 -328.25 -8.75 -320.7 18.15 -309.35 40.7 L-291.45 76.7 Q-284.6 90.6 -281.45 104.3 -278.25 118.0 -285.5 130.35 -292.45 142.2 -315.2 151.75 L261.6 151.75 261.6 -162.2 131.85 -162.2 Q128.5 -158.65 121.95 -154.55 M20.35 -77.6 L41.6 -76.3 Q62.0 -74.95 91.75 -71.3 121.55 -67.7 150.5 -61.05 179.5 -54.4 197.5 -43.9 215.5 -33.4 212.35 -18.3 208.45 -5.7 193.1 2.55 177.7 10.8 157.5 15.75 137.25 20.75 118.85 23.45 L90.35 27.7 Q70.5 31.6 59.85 42.4 49.25 53.2 40.0 66.15 30.8 79.1 15.15 89.5 -0.45 99.9 -30.3 103.05 -68.85 106.25 -103.8 94.5 -138.8 82.75 -166.4 62.7 -194.0 42.65 -210.6 20.95 -227.2 -0.8 -229.0 -17.6 -229.95 -34.5 -212.7 -45.65 -195.45 -56.8 -167.15 -63.4 -138.85 -69.95 -106.65 -73.1 -74.5 -76.25 -45.7 -77.15 -16.85 -78.05 1.45 -77.9 L20.35 -77.6 M337.6 -187.25 L337.6 202.75 -393.35 202.75 -393.35 -183.2 -391.35 -183.2 Q-387.25 -168.15 -383.1 -181.15 L-382.4 -183.2 -357.35 -183.2 -357.35 -185.8 -298.85 -186.8 -234.75 -187.2 -146.05 -187.7 337.6 -187.25" fill="#000000" fill-opacity="0.3019608" fill-rule="evenodd" stroke="none"/>
  </g>
</svg>
