<?xml version="1.0" encoding="UTF-8" standalone="no"?>
<svg xmlns:xlink="http://www.w3.org/1999/xlink" height="221.2px" width="538.05px" xmlns="http://www.w3.org/2000/svg">
  <g transform="matrix(1.0, 0.0, 0.0, 1.0, 269.0, 110.6)">
    <path d="M34.65 -110.15 L60.55 -108.6 Q85.35 -106.95 121.6 -102.5 140.5 -100.25 159.15 -96.95 176.25 -93.9 193.15 -90.0 207.0 -86.85 218.8 -82.95 237.05 -76.9 250.4 -69.15 254.1 -67.0 257.1 -64.65 271.65 -53.25 268.45 -37.95 263.7 -22.65 245.0 -12.6 226.25 -2.55 201.7 3.5 177.0 9.6 154.6 12.9 L119.9 18.05 Q95.7 22.8 82.75 35.95 71.4 47.5 61.35 61.1 L58.6 64.9 Q47.4 80.65 28.35 93.3 9.35 105.95 -27.0 109.8 L-38.0 110.45 Q-78.95 112.0 -116.5 99.4 -159.15 85.1 -192.75 60.7 -226.35 36.25 -246.55 9.85 -266.75 -16.65 -268.95 -37.1 -270.1 -57.7 -249.1 -71.25 -245.15 -73.8 -240.75 -76.15 -227.95 -83.0 -211.15 -88.15 -202.9 -90.75 -193.65 -92.9 L-174.1 -97.0 Q-148.3 -101.95 -120.0 -104.7 -80.85 -108.55 -45.75 -109.65 -10.65 -110.75 11.65 -110.55 L34.65 -110.15 M32.95 -104.65 L11.1 -105.05 Q-10.1 -105.2 -43.45 -104.15 -76.8 -103.15 -114.0 -99.45 -140.9 -96.85 -165.4 -92.15 L-183.95 -88.25 Q-192.75 -86.2 -200.6 -83.75 -216.55 -78.85 -228.7 -72.4 -232.9 -70.15 -236.65 -67.7 -256.6 -54.85 -255.5 -35.25 -253.4 -15.85 -234.2 9.35 -215.0 34.45 -183.1 57.65 -151.15 80.8 -110.65 94.4 -75.0 106.4 -36.1 104.95 L-25.65 104.3 Q8.9 100.65 26.95 88.65 45.05 76.6 55.7 61.65 L58.3 58.05 Q67.85 45.15 78.65 34.15 90.95 21.65 113.9 17.15 L146.9 12.25 Q168.15 9.1 191.6 3.3 214.95 -2.45 232.75 -11.95 250.5 -21.5 255.05 -36.05 258.05 -50.6 244.25 -61.4 241.4 -63.65 237.85 -65.7 225.2 -73.1 207.85 -78.8 196.65 -82.5 183.5 -85.5 167.45 -89.2 151.2 -92.1 133.5 -95.25 115.55 -97.4 81.1 -101.6 57.5 -103.15 L32.95 -104.65" fill="#ffffff" fill-rule="evenodd" stroke="none"/>
  </g>
</svg>
