<?xml version="1.0" encoding="UTF-8" standalone="no"?>
<svg xmlns:xlink="http://www.w3.org/1999/xlink" height="359.3px" width="654.8px" xmlns="http://www.w3.org/2000/svg">
  <g transform="matrix(1.0, 0.0, 0.0, 1.0, 442.0, 192.2)">
    <path d="M121.75 -156.55 Q104.75 -145.9 56.85 -130.45 53.05 -129.7 47.15 -135.25 41.25 -140.75 35.4 -147.3 29.5 -153.85 25.85 -156.3 23.05 -157.75 -1.8 -160.25 -26.7 -162.75 -65.2 -163.5 -103.7 -164.2 -147.45 -160.25 -191.15 -156.3 -231.7 -144.8 -272.25 -133.3 -301.15 -111.35 -326.6 -90.4 -331.3 -64.05 -336.0 -37.7 -328.45 -10.75 -320.9 16.15 -309.55 38.7 L-291.65 74.7 Q-284.8 88.6 -281.65 102.3 -278.45 116.0 -285.7 128.35 -292.95 140.7 -317.35 150.55 -341.8 160.4 -390.15 166.7 -422.25 169.95 -433.45 146.15 -444.65 122.35 -441.15 82.1 -437.65 41.85 -425.6 -4.35 -413.55 -50.55 -399.15 -92.2 -384.75 -133.8 -374.2 -160.3 L-363.15 -187.7 20.85 -192.2 37.05 -191.95 73.45 -190.0 Q94.4 -188.35 111.85 -184.6 129.25 -180.8 134.0 -174.05 138.8 -167.25 121.75 -156.55 M20.35 -77.6 L41.6 -76.3 Q62.0 -74.95 91.75 -71.3 107.25 -69.4 122.6 -66.7 136.65 -64.25 150.5 -61.05 161.9 -58.45 171.6 -55.2 186.55 -50.3 197.5 -43.9 200.55 -42.1 203.05 -40.2 214.95 -30.85 212.35 -18.3 208.45 -5.7 193.1 2.55 177.7 10.8 157.5 15.75 137.25 20.75 118.85 23.45 L90.35 27.7 Q70.5 31.6 59.85 42.4 50.55 51.9 42.25 63.05 L40.0 66.15 Q30.8 79.1 15.15 89.5 -0.45 99.9 -30.3 103.05 L-39.3 103.6 Q-72.95 104.85 -103.8 94.5 -138.8 82.75 -166.4 62.7 -194.0 42.65 -210.6 20.95 -227.2 -0.8 -229.0 -17.6 -229.95 -34.5 -212.7 -45.65 -209.45 -47.75 -205.85 -49.65 -195.35 -55.3 -181.5 -59.5 -174.75 -61.65 -167.15 -63.4 L-151.1 -66.75 Q-129.9 -70.85 -106.65 -73.1 -74.5 -76.25 -45.7 -77.15 -16.85 -78.05 1.45 -77.9 L20.35 -77.6" fill="#000000" fill-opacity="0.3019608" fill-rule="evenodd" stroke="none"/>
  </g>
</svg>
