<?xml version="1.0" encoding="UTF-8" standalone="no"?>
<svg xmlns:xlink="http://www.w3.org/1999/xlink" height="370.3px" width="637.8px" xmlns="http://www.w3.org/2000/svg">
  <g transform="matrix(1.0, 0.0, 0.0, 1.0, 457.75, 200.15)">
    <path d="M47.0 -199.9 L83.15 -197.95 Q103.85 -196.3 120.75 -192.55 137.6 -188.75 141.35 -182.0 145.15 -175.2 126.6 -164.5 108.05 -153.85 57.9 -138.4 54.0 -137.65 48.9 -143.2 43.8 -148.7 38.9 -155.25 33.95 -161.8 30.65 -164.25 28.05 -165.7 3.6 -168.2 -20.95 -170.7 -59.35 -171.45 -97.75 -172.15 -142.05 -168.2 -186.35 -164.25 -228.55 -152.75 -256.5 -145.15 -279.95 -132.95 -292.0 -126.75 -302.85 -119.3 -331.35 -98.35 -339.85 -72.0 -347.65 -47.8 -345.2 -23.1 L-438.35 -23.1 Q-421.65 -63.4 -403.6 -100.15 -388.4 -131.15 -376.55 -153.75 L-368.8 -168.25 -353.8 -195.65 30.85 -200.15 47.0 -199.9 M33.8 -68.3 Q51.2 -67.15 76.65 -64.0 L103.0 -60.1 Q115.0 -57.95 126.85 -55.25 136.55 -53.0 144.85 -50.25 157.65 -46.05 167.0 -40.6 L171.7 -37.45 Q181.9 -29.45 179.65 -18.75 176.35 -8.0 163.25 -0.9 150.05 6.1 132.8 10.35 115.5 14.6 99.8 16.95 L75.45 20.55 Q58.45 23.9 49.4 33.15 41.4 41.25 34.35 50.75 L32.45 53.4 Q24.55 64.45 11.2 73.35 -2.15 82.25 -27.6 84.95 L-35.35 85.4 Q-64.1 86.5 -90.4 77.65 -120.3 67.6 -143.9 50.45 -167.5 33.35 -181.65 14.8 -195.85 -3.8 -197.35 -18.15 -198.2 -32.6 -183.45 -42.1 L-177.6 -45.55 Q-168.6 -50.35 -156.8 -53.95 -151.05 -55.75 -144.55 -57.25 L-130.8 -60.15 Q-112.7 -63.6 -92.85 -65.55 -65.4 -68.25 -40.8 -69.0 -16.15 -69.8 -0.5 -69.65 L15.65 -69.4 33.8 -68.3 M-430.3 -12.1 L-337.2 -12.1 -336.3 -7.7 Q-331.65 14.3 -324.2 33.4 L-320.8 41.75 -305.3 77.75 Q-299.4 91.65 -297.2 105.35 -294.9 119.05 -303.0 131.4 -311.1 143.75 -336.15 153.6 -361.3 163.45 -410.05 169.75 -442.35 173.0 -451.95 149.2 -461.55 125.4 -455.3 85.15 -449.1 44.9 -433.9 -1.3 L-430.3 -12.1" fill="#000000" fill-opacity="0.3019608" fill-rule="evenodd" stroke="none"/>
  </g>
</svg>
