<?xml version="1.0" encoding="UTF-8" standalone="no"?>
<svg xmlns:xlink="http://www.w3.org/1999/xlink" height="51.1px" width="59.4px" xmlns="http://www.w3.org/2000/svg">
  <g transform="matrix(1.0, 0.0, 0.0, 1.0, 14.6, 25.7)">
    <path d="M7.25 9.25 L7.95 12.3 7.8 12.3 Q7.3 12.4 3.9 10.25 1.95 9.05 1.45 10.9 L2.05 7.45 Q4.7 10.2 5.95 10.35 7.1 10.5 7.25 9.25" fill="#648e4c" fill-rule="evenodd" stroke="none"/>
    <path d="M22.5 -1.25 Q23.3 2.75 21.15 3.2 18.9 3.65 18.15 -0.35 17.25 -4.4 19.5 -4.85 21.7 -5.3 22.5 -1.25 M6.45 2.85 L6.0 3.8 Q6.0 4.45 7.05 7.7 L7.25 9.25 Q7.1 10.5 5.95 10.35 4.7 10.2 2.05 7.45 L1.95 7.35 0.6 5.85 -3.45 0.7 Q-3.9 0.0 -2.55 0.05 L0.35 0.6 Q3.35 0.8 4.5 1.35 5.55 1.85 6.45 2.85 M39.7 -8.1 Q42.0 -7.3 40.65 -3.1 39.3 1.15 36.95 0.4 34.7 -0.3 36.05 -4.6 37.45 -8.85 39.7 -8.1" fill="#000000" fill-rule="evenodd" stroke="none"/>
    <path d="M39.95 2.65 Q38.0 9.75 35.75 11.1 35.95 8.8 34.75 5.95 L34.35 5.15 35.2 5.25 37.3 5.05 39.95 2.65 M21.75 8.3 L21.95 8.25 20.7 10.65 Q19.5 13.5 19.7 15.8 18.25 14.95 16.75 12.05 L16.6 11.65 Q18.15 11.15 21.0 8.85 L21.75 8.3" fill="#ffffff" fill-rule="evenodd" stroke="none"/>
    <path d="M22.5 -1.25 Q21.7 -5.3 19.5 -4.85 17.25 -4.4 18.15 -0.35 18.9 3.65 21.15 3.2 23.3 2.75 22.5 -1.25 M-11.85 25.4 Q-11.2 15.3 -12.75 7.55 -14.45 1.0 -14.55 -1.6 -15.25 -20.55 -8.4 -24.15 -3.9 -26.85 0.0 -24.8 4.2 -22.65 9.6 -14.1 12.2 -9.9 15.15 -8.45 21.5 -13.5 30.2 -11.75 34.65 -13.8 37.25 -13.95 39.0 -14.05 41.25 -13.15 45.85 -11.4 44.45 -5.4 43.4 -1.0 39.95 2.65 L37.3 5.05 35.2 5.25 34.35 5.15 31.7 4.9 Q26.55 4.75 21.75 8.3 L21.0 8.85 Q18.15 11.15 16.6 11.65 L16.0 11.8 15.95 11.8 Q12.15 12.2 8.2 5.55 7.4 3.9 6.45 2.85 5.55 1.85 4.5 1.35 3.35 0.8 0.35 0.6 L-2.55 0.05 Q-3.9 0.0 -3.45 0.7 L0.6 5.85 1.95 7.35 -11.85 25.4 M15.15 -8.45 L14.2 -7.7 15.15 -8.45 M39.7 -8.1 Q37.45 -8.85 36.05 -4.6 34.7 -0.3 36.95 0.4 39.3 1.15 40.65 -3.1 42.0 -7.3 39.7 -8.1 M-9.75 -5.85 Q-6.75 -1.35 -2.55 0.05 -6.75 -1.35 -9.75 -5.85" fill="#4c8335" fill-rule="evenodd" stroke="none"/>
    <path d="M-11.85 25.4 Q-11.2 15.3 -12.75 7.55 -14.45 1.0 -14.55 -1.6 -15.25 -20.55 -8.4 -24.15 -3.9 -26.85 0.0 -24.8 4.2 -22.65 9.6 -14.1 12.2 -9.9 15.15 -8.45 21.5 -13.5 30.2 -11.75 34.65 -13.8 37.25 -13.95 39.0 -14.05 41.25 -13.15 45.85 -11.4 44.45 -5.4 43.4 -1.0 39.95 2.65 38.0 9.75 35.75 11.1 35.95 8.8 34.75 5.95 L34.35 5.15 31.7 4.9 Q26.55 4.75 21.75 8.3 L21.0 8.85 Q18.15 11.15 16.6 11.65 L16.0 11.8 15.95 11.8 Q12.15 12.2 8.2 5.55 7.4 3.9 6.45 2.85 5.55 1.85 4.5 1.35 3.35 0.8 0.35 0.6 L-2.55 0.05 Q-6.75 -1.35 -9.75 -5.85 M21.95 8.25 L20.7 10.65 Q19.5 13.5 19.7 15.8 18.25 14.95 16.75 12.05 L16.6 11.65 M7.25 9.25 L7.95 12.3 7.8 12.3 Q7.3 12.4 3.9 10.25 1.95 9.05 1.45 10.9 L1.25 11.8 M14.2 -7.7 L15.15 -8.45 M39.95 2.65 L37.3 5.05 35.2 5.25 34.35 5.15" fill="none" stroke="#000000" stroke-linecap="round" stroke-linejoin="round" stroke-width="0.05"/>
  </g>
</svg>
