<?xml version="1.0" encoding="UTF-8" standalone="no"?>
<svg xmlns:xlink="http://www.w3.org/1999/xlink" height="123.45px" width="109.95px" xmlns="http://www.w3.org/2000/svg">
  <g transform="matrix(1.0, 0.0, 0.0, 1.0, 12.85, 42.35)">
    <path d="M1.25 -41.95 L1.45 -42.35 97.1 -28.35 97.1 -27.85 84.4 40.5 84.05 41.45 -2.85 81.05 -3.5 81.1 -3.5 80.0 -3.45 80.0 1.25 -41.95" fill="#000000" fill-rule="evenodd" stroke="none"/>
    <path d="M-3.5 80.0 L-12.85 18.95 -11.25 -15.4 1.25 -41.95 -3.45 80.0 -3.5 80.0" fill="#5c5c5c" fill-rule="evenodd" stroke="none"/>
    <path d="M45.3 -5.4 L47.35 -3.0 Q49.4 -0.8 51.15 2.75 52.9 6.4 52.75 10.2 52.45 14.15 48.15 17.5 44.0 20.85 33.85 22.75 40.65 16.85 43.4 11.8 46.25 6.7 46.55 2.9 46.85 -1.1 46.1 -3.15 L45.3 -5.4" fill="#666666" fill-rule="evenodd" stroke="none"/>
  </g>
</svg>
