<?xml version="1.0" encoding="UTF-8" standalone="no"?>
<svg xmlns:xlink="http://www.w3.org/1999/xlink" height="123.45px" width="109.9px" xmlns="http://www.w3.org/2000/svg">
  <g transform="matrix(1.0, 0.0, 0.0, 1.0, 12.85, 42.35)">
    <path d="M1.25 -42.0 L1.45 -42.35 97.05 -28.35 97.05 -27.85 84.4 40.5 84.05 41.45 -2.85 81.05 -3.5 81.1 -3.5 79.95 -3.45 79.95 1.25 -42.0" fill="#000000" fill-rule="evenodd" stroke="none"/>
    <path d="M-3.5 79.95 L-12.85 18.95 -11.25 -15.4 1.25 -42.0 -3.45 79.95 -3.5 79.95" fill="#5c5c5c" fill-rule="evenodd" stroke="none"/>
    <path d="M48.1 17.5 Q52.45 14.15 52.75 10.2 52.9 6.4 51.15 2.75 49.4 -0.8 47.35 -3.0 L45.25 -5.4 Q45.45 -5.35 46.05 -3.15 46.85 -1.1 46.55 2.9 46.25 6.7 43.35 11.8 40.65 16.85 33.8 22.75 44.0 20.85 48.1 17.5" fill="#666666" fill-rule="evenodd" stroke="none"/>
  </g>
</svg>
