<?xml version="1.0" encoding="UTF-8" standalone="no"?>
<svg xmlns:xlink="http://www.w3.org/1999/xlink" height="109.35px" width="112.65px" xmlns="http://www.w3.org/2000/svg">
  <g transform="matrix(1.0, 0.0, 0.0, 1.0, 104.0, 39.3)">
    <path d="M-11.35 -33.8 L-10.4 -32.55 1.8 -11.45 8.65 -9.3 6.65 8.65 1.5 23.45 -9.95 69.65 -10.05 69.65 -11.35 -33.8" fill="#5c5c5c" fill-rule="evenodd" stroke="none"/>
    <path d="M-11.35 -33.8 L-10.05 69.65 -9.95 69.65 -10.05 70.05 -10.5 69.95 -93.1 42.6 -93.2 42.2 -104.0 -39.3 -11.35 -33.8" fill="#000000" fill-rule="evenodd" stroke="none"/>
    <path d="M-63.05 -0.5 L-61.55 -2.3 -62.15 -0.65 Q-62.75 0.9 -62.5 3.85 -62.25 6.65 -60.1 10.45 -58.1 14.25 -53.05 18.6 -60.6 17.2 -63.65 14.7 -66.85 12.2 -67.1 9.3 -67.2 6.45 -65.9 3.75 -64.6 1.15 -63.05 -0.5" fill="#666666" fill-rule="evenodd" stroke="none"/>
  </g>
</svg>
