<?xml version="1.0" encoding="UTF-8" standalone="no"?>
<svg xmlns:xlink="http://www.w3.org/1999/xlink" height="66.8px" width="20.0px" xmlns="http://www.w3.org/2000/svg">
  <g transform="matrix(1.0, 0.0, 0.0, 1.0, 10.0, 4.8)">
    <path d="M7.05 -1.95 Q10.0 1.0 10.0 5.2 10.0 8.2 8.5 10.5 L7.05 12.25 Q4.2 15.2 0.0 15.2 L-1.0 15.15 Q-4.55 14.85 -7.1 12.25 -10.0 9.35 -10.0 5.2 -10.0 1.0 -7.1 -1.95 -4.15 -4.8 0.0 -4.8 4.2 -4.8 7.05 -1.95" fill="#ff0000" fill-opacity="0.3019608" fill-rule="evenodd" stroke="none"/>
    <path d="M7.05 44.85 Q10.0 47.8 10.0 52.0 10.0 56.15 7.05 59.05 4.2 62.0 0.0 62.0 -4.15 62.0 -7.1 59.05 -10.0 56.15 -10.0 52.0 -10.0 47.8 -7.1 44.85 -4.15 42.0 0.0 42.0 4.2 42.0 7.05 44.85" fill="#00cc00" fill-opacity="0.3019608" fill-rule="evenodd" stroke="none"/>
    <path d="M7.0 35.65 Q4.15 38.6 0.0 38.6 -4.2 38.6 -7.15 35.65 -10.05 32.75 -10.0 28.6 -10.05 24.4 -7.15 21.45 -4.2 18.6 0.0 18.6 4.15 18.6 7.0 21.45 9.95 24.4 10.0 28.6 9.95 32.75 7.0 35.65" fill="#ffff00" fill-rule="evenodd" stroke="none"/>
  </g>
</svg>
