<?xml version="1.0" encoding="UTF-8" standalone="no"?>
<svg xmlns:xlink="http://www.w3.org/1999/xlink" height="390.0px" width="730.95px" xmlns="http://www.w3.org/2000/svg">
  <g transform="matrix(1.0, 0.0, 0.0, 1.0, 393.35, 187.25)">
    <path d="M261.6 -87.2 Q263.0 -88.05 264.65 -90.6 265.7 -92.3 265.0 -96.0 L264.75 -96.75 264.0 -97.0 264.0 -98.0 264.75 -98.25 265.0 -99.0 265.0 -100.0 265.0 -112.0 265.0 -113.0 265.0 -114.0 265.0 -122.0 265.0 -123.0 265.0 -127.0 265.0 -128.0 265.0 -133.0 265.0 -134.0 265.0 -138.0 265.0 -139.0 265.0 -151.0 265.1 -152.0 Q268.4 -167.4 253.0 -164.0 L252.0 -164.0 220.0 -164.0 219.0 -164.0 210.0 -164.0 209.0 -164.0 200.0 -164.0 199.0 -164.0 184.0 -164.0 183.0 -164.05 Q179.15 -164.5 178.1 -162.2 L-333.35 -160.2 -334.55 -56.9 Q-335.45 46.85 -334.0 49.15 -334.0 48.65 -333.8 48.6 L-333.35 48.4 -333.35 53.2 -335.0 53.0 -335.0 66.0 -335.0 67.0 -335.0 69.0 -335.0 70.0 -335.0 99.0 -335.0 100.0 -335.0 113.0 -335.0 114.0 -335.0 115.0 -335.0 116.0 -335.0 121.0 -335.0 122.0 -335.0 124.0 -335.0 125.0 -335.0 126.0 -335.0 134.0 -335.0 135.0 -335.0 143.0 -335.0 144.0 Q-338.5 158.5 -325.0 156.1 L-324.0 156.0 -316.0 156.0 -315.0 156.0 -310.0 156.0 -309.0 156.0 -308.0 156.0 -262.0 156.0 -261.0 156.0 -225.1 154.5 -225.0 153.0 -225.2 151.75 261.6 151.75 261.6 -87.2 M337.6 -187.25 L337.6 202.75 -393.35 202.75 -393.35 -183.2 -391.35 -183.2 Q-387.25 -168.15 -383.1 -181.15 L-382.4 -183.2 -357.35 -183.2 -357.35 -185.8 337.6 -187.25" fill="#000000" fill-opacity="0.3019608" fill-rule="evenodd" stroke="none"/>
    <path d="M78.7 -46.1 Q79.9 -48.0 81.95 -49.55 L82.0 -49.55 Q81.15 -50.6 81.15 -51.7 81.15 -55.0 88.45 -57.35 95.8 -59.7 106.15 -59.7 116.5 -59.7 123.8 -57.35 131.15 -55.0 131.15 -51.7 131.15 -50.25 129.7 -48.95 135.15 -46.15 135.15 -42.45 L135.05 -41.3 Q136.25 -41.0 137.3 -40.4 139.65 -39.05 139.65 -37.2 139.65 -35.35 137.3 -34.05 134.95 -32.7 131.65 -32.7 128.35 -32.7 126.0 -34.05 L125.65 -34.25 Q120.15 -32.35 113.2 -31.85 L116.7 -29.7 Q125.45 -29.6 131.7 -25.6 138.15 -21.5 138.15 -15.7 138.15 -9.9 131.7 -5.8 126.25 -2.35 118.95 -1.8 L118.45 -1.3 117.25 -0.2 Q125.7 -0.2 131.65 4.05 137.65 8.3 137.65 14.3 137.65 20.3 131.65 24.55 125.7 28.75 117.3 28.8 L120.65 30.95 Q126.65 35.65 126.65 42.3 126.65 48.95 120.65 53.6 115.5 57.6 108.6 58.2 L108.65 59.3 Q108.65 65.3 99.55 69.55 90.5 73.8 77.65 73.8 64.8 73.8 55.7 69.55 49.1 66.45 47.35 62.45 42.65 64.3 36.15 64.3 29.3 64.3 24.45 62.25 19.65 60.2 19.65 57.3 19.65 54.4 24.45 52.35 L24.75 52.25 Q22.65 50.7 22.65 48.8 22.65 45.9 27.45 43.85 31.15 42.3 36.1 41.9 35.5 41.0 35.2 40.0 29.65 42.3 22.15 42.3 13.85 42.3 8.0 39.5 2.15 36.75 2.15 32.8 2.15 28.9 7.8 26.15 8.35 23.05 11.15 20.7 14.7 17.8 19.65 17.8 L23.0 18.2 Q27.65 16.8 33.65 16.8 L41.55 17.5 Q44.45 16.4 47.95 16.3 47.65 15.6 47.65 14.8 47.65 11.5 53.2 9.15 58.8 6.8 66.65 6.8 L72.65 7.2 Q70.15 4.55 70.15 1.3 70.15 -3.65 75.85 -7.2 80.05 -9.8 85.6 -10.45 L85.2 -13.25 Q83.9 -14.4 83.45 -15.7 L83.15 -15.7 Q74.25 -15.7 67.95 -19.25 61.65 -22.75 61.65 -27.7 61.65 -31.05 64.55 -33.75 62.15 -35.7 62.15 -38.2 62.15 -41.5 66.4 -43.85 70.65 -46.2 76.65 -46.2 L78.7 -46.1 M178.1 -162.2 Q179.15 -164.5 183.0 -164.05 L184.0 -164.0 199.0 -164.0 200.0 -164.0 209.0 -164.0 210.0 -164.0 219.0 -164.0 220.0 -164.0 252.0 -164.0 253.0 -164.0 Q268.4 -167.4 265.1 -152.0 L265.0 -151.0 265.0 -139.0 265.0 -138.0 265.0 -134.0 265.0 -133.0 265.0 -128.0 265.0 -127.0 265.0 -123.0 265.0 -122.0 265.0 -114.0 265.0 -113.0 265.0 -112.0 265.0 -100.0 265.0 -99.0 264.75 -98.25 264.0 -98.0 264.0 -97.0 264.75 -96.75 265.0 -96.0 Q265.7 -92.3 264.65 -90.6 263.0 -88.05 261.6 -87.2 260.45 -86.55 235.95 -100.75 225.7 -106.8 202.7 -116.85 L181.75 -125.8 Q180.05 -128.0 178.35 -143.65 176.7 -158.8 177.45 -160.85 L178.0 -161.0 178.0 -162.0 178.1 -162.2 M-225.2 151.75 L-225.0 153.0 -225.1 154.5 -261.0 156.0 -262.0 156.0 -308.0 156.0 -309.0 156.0 -310.0 156.0 -315.0 156.0 -316.0 156.0 -324.0 156.0 -325.0 156.1 Q-338.5 158.5 -335.0 144.0 L-335.0 143.0 -335.0 135.0 -335.0 134.0 -335.0 126.0 -335.0 125.0 -335.0 124.0 -335.0 122.0 -335.0 121.0 -335.0 116.0 -335.0 115.0 -335.0 114.0 -335.0 113.0 -335.0 100.0 -335.0 99.0 -335.0 70.0 -335.0 69.0 -335.0 67.0 -335.0 66.0 -335.0 53.0 -333.35 53.2 Q-331.8 53.75 -331.95 56.0 L-332.0 57.0 Q-331.75 60.25 -328.05 60.5 L-328.0 61.0 Q-325.55 62.55 -321.0 62.5 L-321.0 63.0 Q-319.35 64.7 -320.8 65.4 L-321.0 66.0 Q-321.0 66.5 -321.25 66.85 -322.05 67.95 -324.0 68.0 -320.3 68.3 -320.5 71.95 L-321.0 72.0 -321.25 72.75 -323.0 74.0 -323.0 75.0 -323.0 76.0 Q-322.75 84.75 -320.15 91.05 -320.0 91.5 -320.0 92.0 -313.15 91.65 -313.5 97.95 L-314.0 98.0 Q-314.0 98.5 -314.25 98.75 L-315.0 99.0 Q-315.0 99.5 -315.15 99.55 L-318.0 100.0 -318.0 101.0 -318.0 102.0 Q-315.4 106.9 -313.2 112.1 L-313.0 113.0 Q-308.25 108.5 -305.6 113.8 -305.5 114.0 -305.0 114.0 L-305.0 113.0 -304.0 113.0 -304.0 112.0 -302.0 112.0 -301.0 112.0 Q-300.0 114.0 -299.15 116.05 L-299.0 117.0 -299.0 118.0 -292.0 118.0 -291.0 118.0 Q-283.95 119.4 -289.2 123.75 L-290.0 124.0 -290.0 126.0 -290.0 127.0 Q-287.8 127.3 -287.95 130.0 L-288.0 131.0 Q-286.45 134.45 -284.25 137.2 -284.0 137.5 -284.0 138.0 -281.0 144.15 -278.3 137.7 -278.05 137.05 -277.6 138.2 -276.95 139.95 -276.0 141.0 L-275.0 141.0 -259.0 138.1 -258.0 138.0 -258.0 137.0 Q-253.95 128.15 -247.95 136.05 L-246.0 136.0 -244.0 136.0 Q-241.25 134.75 -240.5 131.1 L-240.0 131.0 -239.0 130.95 Q-228.3 130.3 -223.0 135.0 L-223.15 135.95 Q-226.4 144.25 -225.2 151.75 M-324.6 -97.8 L-324.0 -98.0 Q-320.5 -110.05 -307.0 -111.95 L-306.0 -112.0 -306.0 -113.0 -295.05 -112.5 -295.0 -112.0 Q-286.55 -109.95 -284.15 -101.95 L-284.0 -101.0 Q-281.05 -99.95 -279.9 -97.55 -277.75 -93.15 -290.0 -92.0 -290.0 -91.5 -290.25 -91.3 L-301.0 -82.0 -301.95 -81.85 Q-318.8 -76.8 -326.0 -88.0 L-323.85 -89.75 -323.0 -90.0 Q-322.5 -90.5 -322.2 -91.1 L-322.0 -92.0 -323.0 -92.05 Q-327.65 -92.35 -328.0 -97.0 -325.3 -96.3 -324.6 -97.8 M-220.65 -71.55 Q-198.0 -104.35 -158.8 -109.8 -119.65 -115.3 -27.05 -97.9 65.5 -80.5 40.15 -34.45 -20.85 -29.4 -20.85 -15.2 -20.85 0.95 -30.55 12.35 L-33.75 15.75 Q-15.45 40.0 -17.45 59.85 -19.6 81.3 -33.45 90.85 -47.35 100.4 -73.65 94.35 -84.95 91.75 -93.5 88.3 -130.9 97.75 -137.5 89.9 -144.15 82.0 -157.1 77.9 -170.05 73.8 -180.2 70.15 -190.35 66.5 -190.85 62.2 -191.35 57.9 -204.25 57.65 -209.8 53.15 -226.55 30.6 -243.35 8.05 -243.35 -15.35 -243.35 -38.75 -220.65 -71.55" fill="#000000" fill-rule="evenodd" stroke="none"/>
  </g>
</svg>
