<?xml version="1.0" encoding="UTF-8" standalone="no"?>
<svg xmlns:xlink="http://www.w3.org/1999/xlink" height="189.6px" width="59.8px" xmlns="http://www.w3.org/2000/svg">
  <g transform="matrix(1.0, 0.0, 0.0, 1.0, 26.45, 116.7)">
    <path d="M5.4 11.0 Q7.4 -0.35 2.85 -17.85 -1.95 -34.85 -0.2 -32.8 1.6 -30.75 5.35 -11.75 8.25 6.85 6.5 14.8 4.75 22.7 4.25 22.5 L5.45 26.0 Q6.45 29.15 5.35 31.5 4.55 28.0 4.15 27.35 L2.0 32.9 1.6 27.7 -1.4 30.9 Q-1.55 28.15 0.45 25.55 L2.75 22.75 Q3.4 22.35 5.4 11.0" fill="#7c4806" fill-rule="evenodd" stroke="none"/>
    <path d="M5.4 11.0 Q3.4 22.35 2.75 22.75 L0.45 25.55 Q-1.55 28.15 -1.4 30.9 L1.6 27.7 2.0 32.9 4.15 27.35 Q4.55 28.0 5.35 31.5 6.45 29.15 5.45 26.0 L4.25 22.5 Q4.75 22.7 6.5 14.8 8.25 6.85 5.35 -11.75 1.6 -30.75 -0.2 -32.8 -1.95 -34.85 2.85 -17.85 7.4 -0.35 5.4 11.0 Z" fill="none" stroke="#000000" stroke-linecap="round" stroke-linejoin="round" stroke-width="1.0"/>
    <path d="M14.4 -94.8 L20.95 -68.55 21.75 6.55 Q22.1 7.1 23.05 11.85 24.0 16.6 21.75 19.05 21.45 21.7 21.55 29.4 L21.85 44.1 22.05 51.55 26.15 60.9 18.0 64.35 15.8 60.9 15.9 49.65 15.95 28.0 15.8 14.05 13.75 3.65 10.2 -11.4 8.3 -19.05 -5.1 -18.75 Q-5.05 -18.25 -6.35 -10.05 -7.7 -1.85 -11.35 7.8 -10.9 11.85 -10.7 22.35 L-10.45 42.2 -10.4 52.15 -8.85 60.9 -13.85 63.4 -17.8 58.85 -17.8 49.85 -17.95 32.4 Q-18.1 23.4 -18.55 20.9 -20.95 13.45 -19.5 11.25 -18.0 9.1 -17.6 9.35 L-20.1 -39.05 -13.85 -93.4 -5.75 -105.6 -5.75 -116.2 9.9 -116.2 11.0 -104.95 14.4 -94.8" fill="#73420d" fill-rule="evenodd" stroke="none"/>
    <path d="M14.4 -94.8 L20.95 -68.55 21.75 6.55 Q22.1 7.1 23.05 11.85 24.0 16.6 21.75 19.05 21.45 21.7 21.55 29.4 L21.85 44.1 22.05 51.55 26.15 60.9 18.0 64.35 15.8 60.9 15.9 49.65 15.95 28.0 15.8 14.05 13.75 3.65 10.2 -11.4 8.3 -19.05 -5.1 -18.75 Q-5.05 -18.25 -6.35 -10.05 -7.7 -1.85 -11.35 7.8 -10.9 11.85 -10.7 22.35 L-10.45 42.2 -10.4 52.15 -8.85 60.9 -13.85 63.4 -17.8 58.85 -17.8 49.85 -17.95 32.4 Q-18.1 23.4 -18.55 20.9 -20.95 13.45 -19.5 11.25 -18.0 9.1 -17.6 9.35 L-20.1 -39.05 -13.85 -93.4 -5.75 -105.6 -5.75 -116.2 9.9 -116.2 11.0 -104.95 14.4 -94.8 Z" fill="none" stroke="#000000" stroke-linecap="round" stroke-linejoin="round" stroke-width="1.0"/>
    <path d="M-9.7 -20.75 L14.75 -20.7 Q-0.4 -14.5 -9.7 -20.75" fill="#73420d" fill-rule="evenodd" stroke="none"/>
    <path d="M-9.7 -20.75 Q-0.4 -14.5 14.75 -20.7" fill="none" stroke="#000000" stroke-linecap="round" stroke-linejoin="round" stroke-width="1.0"/>
    <path d="M-9.05 59.45 Q-7.05 60.4 -9.55 63.6 -10.65 65.45 -10.1 66.55 -9.6 67.65 -12.8 70.35 -17.5 73.4 -20.0 72.8 -22.55 72.25 -22.6 71.9 -22.95 71.4 -21.0 68.65 L-26.45 70.05 Q-24.35 62.0 -21.0 60.2 -17.65 58.45 -17.3 58.8 L-14.05 58.6 Q-11.1 58.5 -9.05 59.45" fill="#000000" fill-rule="evenodd" stroke="none"/>
    <path d="M28.5 69.0 L30.9 72.0 Q30.8 72.3 27.6 72.8 24.45 73.35 19.7 70.3 16.5 67.6 17.0 66.5 17.5 65.4 16.45 63.55 13.95 60.35 15.95 59.4 17.95 58.45 20.95 58.55 L24.2 58.75 Q24.55 58.4 27.9 60.15 31.2 61.95 33.35 70.0 L28.5 69.0" fill="#000000" fill-rule="evenodd" stroke="none"/>
  </g>
</svg>
