<?xml version="1.0" encoding="UTF-8" standalone="no"?>
<svg xmlns:xlink="http://www.w3.org/1999/xlink" height="8.95px" width="45.1px" xmlns="http://www.w3.org/2000/svg">
  <g transform="matrix(1.0, 0.0, 0.0, 1.0, 26.5, 31.95)">
    <path d="M-14.2 -27.45 Q-14.2 -27.15 -17.15 -25.15 -20.15 -23.15 -26.0 -23.6 -24.55 -28.4 -19.25 -30.0 -13.95 -31.6 -13.25 -31.45 L-14.2 -27.45" fill="#73420d" fill-rule="evenodd" stroke="none"/>
    <path d="M-13.25 -31.45 Q-13.95 -31.6 -19.25 -30.0 -24.55 -28.4 -26.0 -23.6 -20.15 -23.15 -17.15 -25.15 -14.2 -27.15 -14.2 -27.45" fill="none" stroke="#000000" stroke-linecap="round" stroke-linejoin="round" stroke-width="1.0"/>
    <path d="M5.35 -31.45 Q6.05 -31.6 11.35 -30.0 16.65 -28.4 18.1 -23.6 12.25 -23.15 9.25 -25.15 6.3 -27.15 6.3 -27.45 L5.35 -31.45" fill="#73420d" fill-rule="evenodd" stroke="none"/>
    <path d="M5.35 -31.45 Q6.05 -31.6 11.35 -30.0 16.65 -28.4 18.1 -23.6 12.25 -23.15 9.25 -25.15 6.3 -27.15 6.3 -27.45" fill="none" stroke="#000000" stroke-linecap="round" stroke-linejoin="round" stroke-width="1.0"/>
  </g>
</svg>
