<?xml version="1.0" encoding="UTF-8" standalone="no"?>
<svg xmlns:xlink="http://www.w3.org/1999/xlink" height="8.75px" width="16.75px" xmlns="http://www.w3.org/2000/svg">
  <g transform="matrix(1.0, 0.0, 0.0, 1.0, 8.35, 4.35)">
    <path d="M-7.85 0.0 Q-7.5 -3.5 -4.0 -3.85 -0.45 -3.5 -0.1 0.0 -0.45 3.55 -4.0 3.9 -7.5 3.55 -7.85 0.0" fill="#ff7f00" fill-rule="evenodd" stroke="none"/>
    <path d="M-7.85 0.0 Q-7.5 -3.5 -4.0 -3.85 -0.45 -3.5 -0.1 0.0 -0.45 3.55 -4.0 3.9 -7.5 3.55 -7.85 0.0 Z" fill="none" stroke="#000000" stroke-linecap="round" stroke-linejoin="round" stroke-width="1.0"/>
    <path d="M-2.95 -0.05 Q-3.05 1.05 -4.15 1.15 -5.25 1.05 -5.35 -0.05 -5.25 -1.15 -4.15 -1.25 -3.05 -1.15 -2.95 -0.05" fill="#000000" fill-rule="evenodd" stroke="none"/>
    <path d="M0.15 0.0 Q0.5 -3.5 4.0 -3.85 7.55 -3.5 7.9 0.0 7.55 3.55 4.0 3.9 0.5 3.55 0.15 0.0" fill="#ff7f00" fill-rule="evenodd" stroke="none"/>
    <path d="M0.15 0.0 Q0.5 -3.5 4.0 -3.85 7.55 -3.5 7.9 0.0 7.55 3.55 4.0 3.9 0.5 3.55 0.15 0.0 Z" fill="none" stroke="#000000" stroke-linecap="round" stroke-linejoin="round" stroke-width="1.0"/>
    <path d="M5.05 -0.05 Q4.95 1.05 3.85 1.15 2.75 1.05 2.65 -0.05 2.75 -1.15 3.85 -1.25 4.95 -1.15 5.05 -0.05" fill="#000000" fill-rule="evenodd" stroke="none"/>
  </g>
</svg>
