<?xml version="1.0" encoding="UTF-8" standalone="no"?>
<svg xmlns:xlink="http://www.w3.org/1999/xlink" height="56.8px" width="48.1px" xmlns="http://www.w3.org/2000/svg">
  <g transform="matrix(1.0, 0.0, 0.0, 1.0, 21.7, 102.05)">
    <path d="M-10.85 -101.35 L-9.7 -101.55 -6.3 -100.2 Q-5.0 -99.5 -4.65 -92.7 L-4.7 -80.9 -5.2 -66.15 Q-6.05 -51.7 -7.05 -47.9 -8.6 -45.3 -13.45 -45.75 -18.15 -46.2 -20.9 -48.6 -22.65 -51.9 -19.1 -62.2 -15.5 -72.6 -12.3 -78.4 L-11.4 -80.35 Q-9.5 -85.25 -10.25 -89.0 -11.1 -93.5 -12.25 -93.65 L-14.1 -93.05 Q-14.35 -100.25 -10.85 -101.35 -13.3 -99.9 -13.6 -97.0 L-13.75 -93.75 Q-12.25 -97.85 -9.9 -99.05 -7.55 -100.35 -7.25 -100.2 -8.25 -101.1 -10.85 -101.35" fill="#ff7f00" fill-rule="evenodd" stroke="none"/>
    <path d="M-10.85 -101.35 Q-8.25 -101.1 -7.25 -100.2 -7.55 -100.35 -9.9 -99.05 -12.25 -97.85 -13.75 -93.75 L-13.6 -97.0 Q-13.3 -99.9 -10.85 -101.35" fill="#e66500" fill-rule="evenodd" stroke="none"/>
    <path d="M-21.0 -49.3 Q-22.2 -50.4 -19.65 -59.95 -17.05 -69.85 -12.8 -75.2 -14.9 -64.35 -12.15 -55.3 -9.45 -46.35 -8.9 -47.25 -9.45 -45.6 -12.9 -46.0 L-13.95 -46.15 -14.7 -46.2 Q-15.95 -46.3 -17.1 -46.95 L-18.2 -47.35 -18.45 -47.6 Q-19.4 -47.65 -20.1 -48.6 -20.65 -48.7 -21.0 -49.3" fill="#e66500" fill-rule="evenodd" stroke="none"/>
    <path d="M-4.7 -81.2 L-4.65 -93.0 Q-5.0 -99.8 -6.3 -100.5 L-9.7 -101.85 -10.85 -101.65 Q-14.35 -100.55 -14.1 -93.35 L-12.25 -93.95 Q-11.1 -93.8 -10.25 -89.3 -9.5 -85.55 -11.4 -80.65 L-12.3 -78.7 Q-15.5 -72.9 -19.1 -62.5 -22.65 -52.2 -20.9 -48.9 -18.15 -46.5 -13.45 -46.05 -8.6 -45.6 -7.05 -48.2 -6.05 -52.0 -5.2 -66.45 L-4.7 -81.2 Z" fill="none" stroke="#000000" stroke-linecap="round" stroke-linejoin="round" stroke-width="0.4"/>
    <path d="M13.95 -100.85 L12.7 -101.05 9.3 -99.6 Q8.05 -98.85 7.95 -92.05 7.95 -86.45 8.25 -80.25 L9.25 -65.45 Q10.45 -51.1 11.65 -47.3 13.25 -44.75 18.2 -45.35 22.95 -46.0 25.65 -48.45 27.4 -51.8 23.45 -62.0 19.5 -72.25 16.1 -78.0 L15.1 -79.95 Q13.0 -84.75 13.7 -88.55 14.4 -93.05 15.6 -93.25 L17.5 -92.7 Q17.55 -99.9 13.95 -100.85 16.45 -99.55 16.8 -96.65 L17.15 -93.4 Q15.5 -97.45 13.05 -98.6 L10.3 -99.65 Q11.3 -100.55 13.95 -100.85" fill="#ff7f00" fill-rule="evenodd" stroke="none"/>
    <path d="M13.95 -100.85 Q11.3 -100.55 10.3 -99.65 L13.05 -98.6 Q15.5 -97.45 17.15 -93.4 L16.8 -96.65 Q16.45 -99.55 13.95 -100.85" fill="#e66500" fill-rule="evenodd" stroke="none"/>
    <path d="M25.8 -49.1 Q27.0 -50.25 24.1 -59.75 21.15 -69.55 16.75 -74.75 19.1 -63.95 16.65 -54.85 14.15 -45.8 13.6 -46.7 14.15 -45.05 17.65 -45.55 L18.7 -45.75 19.45 -45.8 Q20.75 -45.95 21.9 -46.6 L23.0 -47.05 Q23.2 -47.1 23.3 -47.3 24.25 -47.4 24.8 -48.4 25.45 -48.5 25.8 -49.1" fill="#e66500" fill-rule="evenodd" stroke="none"/>
    <path d="M8.25 -80.55 Q7.95 -86.75 7.95 -92.35 8.05 -99.15 9.3 -99.9 L12.7 -101.35 13.95 -101.15 Q17.55 -100.2 17.5 -93.0 L15.6 -93.55 Q14.4 -93.35 13.7 -88.85 13.0 -85.05 15.1 -80.25 L16.1 -78.3 Q19.5 -72.55 23.45 -62.3 27.4 -52.1 25.65 -48.75 22.95 -46.3 18.2 -45.65 13.25 -45.05 11.65 -47.6 10.45 -51.4 9.25 -65.75 L8.25 -80.55 Z" fill="none" stroke="#000000" stroke-linecap="round" stroke-linejoin="round" stroke-width="0.4"/>
  </g>
</svg>
