<?xml version="1.0" encoding="UTF-8" standalone="no"?>
<svg xmlns:xlink="http://www.w3.org/1999/xlink" height="54.75px" width="42.2px" xmlns="http://www.w3.org/2000/svg">
  <g transform="matrix(1.0, 0.0, 0.0, 1.0, 21.1, 27.4)">
    <path d="M15.3 11.95 L15.15 12.1 18.35 17.9 Q20.7 22.35 20.6 25.2 L18.25 22.2 16.15 19.7 17.65 26.25 13.0 21.2 13.0 21.25 13.55 26.85 8.2 16.0 6.6 16.6 -20.6 -26.9 -13.2 -20.4 Q-6.25 -14.15 2.15 -5.25 10.55 3.7 15.3 11.95" fill="#4c8335" fill-rule="evenodd" stroke="none"/>
    <path d="M15.3 11.95 Q10.55 3.7 2.15 -5.25 -6.25 -14.15 -13.2 -20.4 L-20.6 -26.9 6.6 16.6 8.2 16.0 13.55 26.85 13.0 21.25 13.0 21.2 17.65 26.25 16.15 19.7 18.25 22.2 20.6 25.2 Q20.7 22.35 18.35 17.9 L15.15 12.1 15.3 11.95 Z" fill="none" stroke="#000000" stroke-linecap="round" stroke-linejoin="round" stroke-width="1.0"/>
  </g>
</svg>
