<?xml version="1.0" encoding="UTF-8" standalone="no"?>
<svg xmlns:xlink="http://www.w3.org/1999/xlink" height="195.35px" width="129.55px" xmlns="http://www.w3.org/2000/svg">
  <g transform="matrix(1.0, 0.0, 0.0, 1.0, 63.45, 92.35)">
    <path d="M-37.7 -12.35 Q-29.35 -14.95 -31.8 -23.35 -35.5 -28.55 -40.95 -30.6 -46.1 -32.1 -48.7 -28.7 -51.3 -25.3 -50.6 -21.75 -49.35 -19.45 -48.55 -19.3 -42.95 -19.3 -42.45 -16.45 -42.0 -13.45 -42.45 -13.05 -41.75 -12.35 -37.7 -12.35" fill="#ff7f00" fill-rule="evenodd" stroke="none"/>
    <path d="M-37.7 -12.35 Q-41.75 -12.35 -42.45 -13.05 -42.0 -13.45 -42.45 -16.45 -42.95 -19.3 -48.55 -19.3 -49.35 -19.45 -50.6 -21.75 -51.3 -25.3 -48.7 -28.7 -46.1 -32.1 -40.95 -30.6 -35.5 -28.55 -31.8 -23.35 -29.35 -14.95 -37.7 -12.35 Z" fill="none" stroke="#000000" stroke-linecap="round" stroke-linejoin="round" stroke-width="1.0"/>
    <path d="M-41.7 -13.25 L-36.55 -13.0 Q-32.75 -14.75 -31.25 -19.0 -30.85 -23.05 -34.1 -25.8 -37.35 -28.5 -37.75 -28.65 -37.1 -28.4 -36.0 -23.9 -34.9 -19.4 -41.7 -13.25" fill="#e66500" fill-rule="evenodd" stroke="none"/>
    <path d="M62.05 9.55 L60.85 8.3 60.85 8.25 62.05 9.55" fill="#4c8335" fill-rule="evenodd" stroke="none"/>
    <path d="M15.3 96.5 L-13.35 95.8 -20.75 78.85 23.05 77.1 15.3 96.5" fill="#4c8335" fill-rule="evenodd" stroke="none"/>
    <path d="M15.3 96.5 L23.05 77.1 -20.75 78.85 -13.35 95.8 15.3 96.5 Z" fill="none" stroke="#000000" stroke-linecap="round" stroke-linejoin="round" stroke-width="1.0"/>
    <path d="M-61.2 23.05 L-53.85 30.05 Q-46.9 36.8 -38.15 46.5 -29.35 56.2 -23.5 65.4 -17.7 74.65 -19.5 79.9 -20.8 83.15 -19.65 87.35 -18.5 91.6 -15.5 93.8 -12.85 95.9 -14.35 97.25 L-16.35 98.65 -37.9 101.8 -40.0 100.75 -49.2 102.5 -48.45 100.05 -62.25 99.35 -54.1 97.75 -37.75 94.6 -25.15 92.3 Q-49.2 78.65 -56.5 62.7 -63.8 46.75 -62.85 35.2 -61.9 23.6 -61.2 23.05" fill="#4c8335" fill-rule="evenodd" stroke="none"/>
    <path d="M-61.2 23.05 Q-61.9 23.6 -62.85 35.2 -63.8 46.75 -56.5 62.7 -49.2 78.65 -25.15 92.3 L-37.75 94.6 -54.1 97.75 -62.25 99.35 -48.45 100.05 -49.2 102.5 -40.0 100.75 -37.9 101.8 -16.35 98.65 -14.35 97.25 Q-12.85 95.9 -15.5 93.8 -18.5 91.6 -19.65 87.35 -20.8 83.15 -19.5 79.9 -17.7 74.65 -23.5 65.4 -29.35 56.2 -38.15 46.5 -46.9 36.8 -53.85 30.05 L-61.2 23.05 Z" fill="none" stroke="#000000" stroke-linecap="round" stroke-linejoin="round" stroke-width="1.0"/>
    <path d="M62.95 23.05 Q63.65 23.6 64.6 35.2 65.5 46.75 58.2 62.7 50.9 78.65 26.9 92.3 L39.5 94.6 55.85 97.75 64.0 99.35 50.2 100.05 50.9 102.5 41.75 100.75 39.6 101.8 18.05 98.65 Q17.65 98.6 16.1 97.25 14.6 95.9 17.2 93.8 20.25 91.6 21.4 87.35 22.5 83.15 21.25 79.9 19.45 74.65 25.25 65.4 31.1 56.2 39.85 46.5 48.65 36.8 55.6 30.05 L62.95 23.05" fill="#4c8335" fill-rule="evenodd" stroke="none"/>
    <path d="M62.95 23.05 Q63.65 23.6 64.6 35.2 65.5 46.75 58.2 62.7 50.9 78.65 26.9 92.3 L39.5 94.6 55.85 97.75 64.0 99.35 50.2 100.05 50.9 102.5 41.75 100.75 39.6 101.8 18.05 98.65 Q17.65 98.6 16.1 97.25 14.6 95.9 17.2 93.8 20.25 91.6 21.4 87.35 22.5 83.15 21.25 79.9 19.45 74.65 25.25 65.4 31.1 56.2 39.85 46.5 48.65 36.8 55.6 30.05 L62.95 23.05 Z" fill="none" stroke="#000000" stroke-linecap="round" stroke-linejoin="round" stroke-width="1.0"/>
    <path d="M39.0 -27.4 Q48.25 -16.5 56.1 -2.15 63.95 12.2 65.6 29.4 65.35 49.95 55.55 61.1 45.75 72.3 32.7 76.85 19.65 81.4 9.7 82.15 L-0.8 82.7 -13.7 80.95 Q-25.8 79.0 -39.55 72.0 -53.3 65.0 -59.05 50.2 -66.2 27.85 -57.8 6.7 -49.45 -14.5 -29.05 -36.3 -15.2 -51.85 -9.75 -64.15 -4.3 -76.4 -3.5 -83.55 -2.75 -90.7 -3.05 -90.85 L9.45 -91.85 Q9.3 -91.5 9.9 -83.9 10.45 -76.3 13.55 -65.55 16.6 -54.85 23.95 -45.15 L39.0 -27.4" fill="#4c8335" fill-rule="evenodd" stroke="none"/>
    <path d="M39.0 -27.4 L23.95 -45.15 Q16.6 -54.85 13.55 -65.55 10.45 -76.3 9.9 -83.9 9.3 -91.5 9.45 -91.85 L-3.05 -90.85 Q-2.75 -90.7 -3.5 -83.55 -4.3 -76.4 -9.75 -64.15 -15.2 -51.85 -29.05 -36.3 -49.45 -14.5 -57.8 6.7 -66.2 27.85 -59.05 50.2 -53.3 65.0 -39.55 72.0 -25.8 79.0 -13.7 80.95 L-0.8 82.7 9.7 82.15 Q19.65 81.4 32.7 76.85 45.75 72.3 55.55 61.1 65.35 49.95 65.6 29.4 63.95 12.2 56.1 -2.15 48.25 -16.5 39.0 -27.4 Z" fill="none" stroke="#000000" stroke-linecap="round" stroke-linejoin="round" stroke-width="1.0"/>
    <path d="M48.75 0.7 Q55.25 14.1 55.75 33.3 55.7 51.5 47.4 61.7 39.05 71.95 27.9 76.4 16.75 80.9 8.25 81.9 L-0.75 82.75 -10.05 81.85 Q-18.8 80.75 -29.95 75.85 -41.15 70.95 -48.75 59.8 -56.35 48.6 -54.45 28.7 -51.65 15.4 -48.2 7.2 -44.75 -1.0 -39.95 -7.8 L-28.5 -23.6 Q-19.6 -36.95 -14.3 -42.9 -9.05 -48.85 2.5 -49.1 12.25 -48.85 17.9 -40.5 23.55 -32.15 32.5 -22.1 42.25 -12.7 48.75 0.7" fill="#f3e016" fill-rule="evenodd" stroke="none"/>
    <path d="M48.75 0.7 Q42.25 -12.7 32.5 -22.1 23.55 -32.15 17.9 -40.5 12.25 -48.85 2.5 -49.1 -9.05 -48.85 -14.3 -42.9 -19.6 -36.95 -28.5 -23.6 L-39.95 -7.8 Q-44.75 -1.0 -48.2 7.2 -51.65 15.4 -54.45 28.7 -56.35 48.6 -48.75 59.8 -41.15 70.95 -29.95 75.85 -18.8 80.75 -10.05 81.85 L-0.75 82.75 8.25 81.9 Q16.75 80.9 27.9 76.4 39.05 71.95 47.4 61.7 55.7 51.5 55.75 33.3 55.25 14.1 48.75 0.7 Z" fill="none" stroke="#000000" stroke-linecap="round" stroke-linejoin="round" stroke-width="1.0"/>
    <path d="M0.25 45.25 Q0.7 47.8 -0.15 48.4 -1.15 48.55 -1.75 46.1 -2.25 43.55 -1.4 42.95 -0.4 42.8 0.25 45.25" fill="#000000" fill-rule="evenodd" stroke="none"/>
  </g>
</svg>
