<?xml version="1.0" encoding="UTF-8" standalone="no"?>
<svg xmlns:xlink="http://www.w3.org/1999/xlink" height="36.55px" width="46.05px" xmlns="http://www.w3.org/2000/svg">
  <g transform="matrix(1.0, 0.0, 0.0, 1.0, 21.35, 48.4)">
    <path d="M-11.6 -15.15 L-13.6 -17.15 Q-15.35 -19.0 -15.95 -21.4 -16.0 -23.7 -13.65 -25.1 L-10.95 -26.55 Q-11.3 -27.25 -9.95 -32.6 -8.65 -37.95 -1.65 -39.25 3.2 -39.35 5.7 -36.0 8.25 -32.6 9.15 -29.05 L10.0 -25.25 12.2 -24.45 Q14.15 -23.6 15.15 -21.0 15.65 -18.25 13.95 -16.4 L12.0 -14.5 -11.6 -15.15" fill="#4c8335" fill-rule="evenodd" stroke="none"/>
    <path d="M-11.6 -15.15 L-13.6 -17.15 Q-15.35 -19.0 -15.95 -21.4 -16.0 -23.7 -13.65 -25.1 L-10.95 -26.55 Q-11.3 -27.25 -9.95 -32.6 -8.65 -37.95 -1.65 -39.25 3.2 -39.35 5.7 -36.0 8.25 -32.6 9.15 -29.05 L10.0 -25.25 12.2 -24.45 Q14.15 -23.6 15.15 -21.0 15.65 -18.25 13.95 -16.4 L12.0 -14.5" fill="none" stroke="#000000" stroke-linecap="round" stroke-linejoin="round" stroke-width="1.0"/>
    <path d="M22.25 -25.05 L24.15 -25.05 24.2 -25.1 Q22.55 -22.2 19.0 -22.05 L17.75 -22.35 18.95 -22.1 Q22.5 -22.2 24.15 -25.05 22.5 -22.2 18.95 -22.1 L17.75 -22.35 14.55 -23.5 Q8.95 -26.25 8.2 -33.05 L7.95 -33.3 7.7 -33.5 Q6.0 -34.7 1.75 -35.65 L-4.95 -34.85 Q-5.8 -28.35 -11.2 -25.7 L-14.4 -24.55 -15.6 -24.3 Q-19.2 -24.4 -20.85 -27.25 -19.2 -24.4 -15.6 -24.3 L-14.4 -24.55 -15.65 -24.25 Q-19.25 -24.4 -20.85 -27.3 L-20.85 -27.25 -18.9 -27.25 -10.4 -31.75 -9.6 -35.45 -9.55 -35.7 -9.5 -35.7 -9.45 -35.7 Q-10.15 -44.4 -0.5 -47.6 L2.2 -47.9 4.85 -47.35 7.15 -46.15 7.95 -45.6 Q11.7 -42.9 12.65 -39.05 13.6 -35.3 13.25 -34.75 13.6 -35.3 12.65 -39.05 11.7 -42.9 7.95 -45.6 L7.15 -46.15 7.95 -45.6 Q11.7 -42.9 12.7 -39.05 13.5 -35.8 13.35 -34.95 L13.3 -34.75 13.25 -34.75 13.05 -34.75 13.2 -34.65 Q13.05 -34.6 12.95 -34.75 L12.9 -34.8 12.9 -34.85 12.9 -34.8 12.9 -34.75 12.9 -34.8 12.9 -34.85 12.9 -34.8 12.95 -34.75 Q13.05 -34.6 13.2 -34.65 L13.25 -34.65 Q13.1 -34.55 12.95 -34.75 L12.9 -34.75 12.9 -33.5 12.9 -33.25 13.75 -29.55 22.25 -25.05 M-4.4 -35.7 L-4.6 -35.5 -4.9 -35.25 -4.95 -34.85 -4.9 -35.25 -4.6 -35.5 -4.4 -35.7" fill="#6e4f30" fill-rule="evenodd" stroke="none"/>
    <path d="M24.15 -25.05 L24.2 -25.1 22.25 -25.05 13.75 -29.55 12.9 -33.25 12.9 -33.5 12.9 -34.75 12.9 -34.8 12.9 -34.85 12.9 -34.8 12.95 -34.75 Q13.05 -34.6 13.2 -34.65 M13.25 -34.75 Q13.6 -35.3 12.65 -39.05 11.7 -42.9 7.95 -45.6 L7.15 -46.15 4.85 -47.35 2.2 -47.9 M-9.55 -35.7 L-9.6 -35.45 -10.4 -31.75 -18.9 -27.25 M-20.85 -27.25 Q-19.2 -24.4 -15.6 -24.3 L-14.4 -24.55 -11.2 -25.7 Q-5.8 -28.35 -4.95 -34.85 L-4.9 -35.25 -4.6 -35.5 -4.4 -35.7 M17.75 -22.35 L14.55 -23.5 Q8.95 -26.25 8.2 -33.05 L7.95 -33.3 7.7 -33.5 Q6.0 -34.7 1.75 -35.65 L-4.95 -34.85 M24.15 -25.05 Q22.5 -22.2 18.95 -22.1 L17.75 -22.35 M-9.5 -35.7 Q-10.2 -44.45 -0.55 -47.6 L2.2 -47.9 M-20.85 -27.25 L-20.85 -27.3 -18.9 -27.25" fill="none" stroke="#000000" stroke-linecap="round" stroke-linejoin="round" stroke-width="1.0"/>
    <path d="M12.4 -20.45 Q11.9 -17.0 12.65 -15.3 13.45 -13.6 13.6 -13.6 L6.25 -13.1 -7.0 -12.45 -12.9 -12.7 Q-11.55 -13.95 -12.25 -17.35 L-13.15 -21.25 12.4 -20.45" fill="#4c8335" fill-rule="evenodd" stroke="none"/>
    <path d="M-13.15 -21.25 L-12.25 -17.35 Q-11.55 -13.95 -12.9 -12.7 L-7.0 -12.45 6.25 -13.1 13.6 -13.6 Q13.45 -13.6 12.65 -15.3 11.9 -17.0 12.4 -20.45" fill="none" stroke="#000000" stroke-linecap="round" stroke-linejoin="round" stroke-width="1.0"/>
    <path d="M-8.6 -32.2 L-11.3 -27.2 Q-13.6 -29.6 -11.8 -36.1 L-9.1 -41.1 -7.7 -39.45 Q-3.6 -39.5 -8.6 -32.2" fill="#6e4f30" fill-rule="evenodd" stroke="none"/>
    <path d="M-9.1 -41.1 L-11.8 -36.1 Q-13.6 -29.6 -11.3 -27.2 L-8.6 -32.2" fill="none" stroke="#000000" stroke-linecap="round" stroke-linejoin="round" stroke-width="1.0"/>
    <path d="M11.25 -42.7 L13.45 -37.5 Q14.55 -30.8 12.05 -28.65 L9.85 -33.9 Q11.75 -33.8 11.7 -38.3 L11.25 -42.7" fill="#6e4f30" fill-rule="evenodd" stroke="none"/>
    <path d="M11.25 -42.7 L13.45 -37.5 Q14.55 -30.8 12.05 -28.65 L9.85 -33.9" fill="none" stroke="#000000" stroke-linecap="round" stroke-linejoin="round" stroke-width="1.0"/>
  </g>
</svg>
