<?xml version="1.0" encoding="UTF-8" standalone="no"?>
<svg xmlns:xlink="http://www.w3.org/1999/xlink" height="14.5px" width="26.55px" xmlns="http://www.w3.org/2000/svg">
  <g transform="matrix(1.0, 0.0, 0.0, 1.0, 13.4, 7.35)">
    <path d="M3.95 -4.25 L1.55 -2.1 Q-1.5 -0.65 -4.7 -4.7 -4.45 -2.0 -4.7 1.45 1.15 6.05 3.95 1.8 L3.95 -4.25" fill="#6e4f30" fill-rule="evenodd" stroke="none"/>
    <path d="M3.95 -4.25 L3.95 1.8 Q1.15 6.05 -4.7 1.45 -4.45 -2.0 -4.7 -4.7 -1.5 -0.65 1.55 -2.1 L3.95 -4.25 Z" fill="none" stroke="#000000" stroke-linecap="round" stroke-linejoin="round" stroke-width="1.0"/>
    <path d="M-1.8 0.0 Q-2.25 4.3 -7.0 4.7 -11.8 4.3 -12.25 0.0 -11.8 -4.3 -7.0 -4.7 -2.25 -4.3 -1.8 0.0" fill="#ffffff" fill-rule="evenodd" stroke="none"/>
    <path d="M-1.8 0.0 Q-2.25 4.3 -7.0 4.7 -11.8 4.3 -12.25 0.0 -11.8 -4.3 -7.0 -4.7 -2.25 -4.3 -1.8 0.0 Z" fill="none" stroke="#000000" stroke-linecap="round" stroke-linejoin="round" stroke-width="1.0"/>
    <path d="M1.85 0.0 Q2.3 -4.3 7.1 -4.7 11.85 -4.3 12.3 0.0 11.85 4.3 7.1 4.7 2.3 4.3 1.85 0.0" fill="#ffffff" fill-rule="evenodd" stroke="none"/>
    <path d="M1.85 0.0 Q2.3 4.3 7.1 4.7 11.85 4.3 12.3 0.0 11.85 -4.3 7.1 -4.7 2.3 -4.3 1.85 0.0 Z" fill="none" stroke="#000000" stroke-linecap="round" stroke-linejoin="round" stroke-width="1.0"/>
    <path d="M-5.85 0.3 Q-5.95 1.55 -7.2 1.65 -8.45 1.55 -8.55 0.3 -8.45 -0.95 -7.2 -1.05 -5.95 -0.95 -5.85 0.3" fill="#000000" fill-rule="evenodd" stroke="none"/>
    <path d="M8.5 0.2 Q8.35 1.4 7.15 1.55 5.95 1.4 5.85 0.2 5.95 -1.0 7.15 -1.1 8.35 -1.0 8.5 0.2" fill="#000000" fill-rule="evenodd" stroke="none"/>
    <path d="M-11.25 0.0 Q-11.1 5.1 -6.65 5.0 -2.7 5.2 -2.8 -0.1 -3.25 -4.9 -7.0 -4.85 -11.45 -5.1 -11.25 0.0 M-12.9 -0.35 Q-12.9 -6.8 -7.2 -6.7 -1.35 -6.45 -1.15 -0.05 -0.85 6.7 -6.9 6.65 -12.6 6.4 -12.9 -0.35" fill="#6e4f30" fill-rule="evenodd" stroke="none"/>
    <path d="M-12.9 -0.35 Q-12.6 6.4 -6.9 6.65 -0.85 6.7 -1.15 -0.05 -1.35 -6.45 -7.2 -6.7 -12.9 -6.8 -12.9 -0.35 M-11.25 0.0 Q-11.45 -5.1 -7.0 -4.85 -3.25 -4.9 -2.8 -0.1 -2.7 5.2 -6.65 5.0 -11.1 5.1 -11.25 0.0" fill="none" stroke="#000000" stroke-linecap="round" stroke-linejoin="round" stroke-width="1.0"/>
    <path d="M1.25 -0.95 Q1.85 -7.3 7.35 -6.8 13.0 -6.1 12.65 0.3 12.35 7.05 6.5 6.5 1.0 5.8 1.25 -0.95 M2.85 -0.45 Q2.5 4.65 6.85 4.9 10.6 5.4 11.0 0.1 11.05 -4.7 7.35 -5.0 3.15 -5.55 2.85 -0.45" fill="#6e4f30" fill-rule="evenodd" stroke="none"/>
    <path d="M2.85 -0.45 Q3.15 -5.55 7.35 -5.0 11.05 -4.7 11.0 0.1 10.6 5.4 6.85 4.9 2.5 4.65 2.85 -0.45 M1.25 -0.95 Q1.0 5.8 6.5 6.5 12.35 7.05 12.65 0.3 13.0 -6.1 7.35 -6.8 1.85 -7.3 1.25 -0.95" fill="none" stroke="#000000" stroke-linecap="round" stroke-linejoin="round" stroke-width="1.0"/>
  </g>
</svg>
