<?xml version="1.0" encoding="UTF-8" standalone="no"?>
<svg xmlns:xlink="http://www.w3.org/1999/xlink" height="9.55px" width="26.55px" xmlns="http://www.w3.org/2000/svg">
  <g transform="matrix(1.0, 0.0, 0.0, 1.0, 13.4, 4.25)">
    <path d="M3.95 -3.3 L1.55 -1.15 Q-1.5 0.3 -4.7 -3.75 -4.45 -1.05 -4.7 2.4 1.15 7.0 3.95 2.75 L3.95 -3.3" fill="#6e4f30" fill-rule="evenodd" stroke="none"/>
    <path d="M3.95 -3.3 L3.95 2.75 Q1.15 7.0 -4.7 2.4 -4.45 -1.05 -4.7 -3.75 -1.5 0.3 1.55 -1.15 L3.95 -3.3 Z" fill="none" stroke="#000000" stroke-linecap="round" stroke-linejoin="round" stroke-width="1.0"/>
    <path d="M-1.15 0.55 Q-0.8 4.85 -6.9 4.8 -12.6 4.65 -12.9 0.35 -12.9 -3.7 -7.2 -3.65 -1.35 -3.5 -1.15 0.55" fill="#6e4f30" fill-rule="evenodd" stroke="none"/>
    <path d="M-1.15 0.55 Q-1.35 -3.5 -7.2 -3.65 -12.9 -3.7 -12.9 0.35 -12.6 4.65 -6.9 4.8 -0.8 4.85 -1.15 0.55 Z" fill="none" stroke="#000000" stroke-linecap="round" stroke-linejoin="round" stroke-width="1.0"/>
    <path d="M1.25 0.0 Q1.85 -4.0 7.35 -3.7 13.0 -3.25 12.65 0.8 12.35 5.1 6.45 4.75 1.0 4.3 1.25 0.0" fill="#6e4f30" fill-rule="evenodd" stroke="none"/>
    <path d="M1.25 0.0 Q1.0 4.3 6.45 4.75 12.35 5.1 12.65 0.8 13.0 -3.25 7.35 -3.7 1.85 -4.0 1.25 0.0 Z" fill="none" stroke="#000000" stroke-linecap="round" stroke-linejoin="round" stroke-width="1.0"/>
  </g>
</svg>
