<?xml version="1.0" encoding="UTF-8" standalone="no"?>
<svg xmlns:xlink="http://www.w3.org/1999/xlink" height="28.8px" width="47.85px" xmlns="http://www.w3.org/2000/svg">
  <g transform="matrix(1.0, 0.0, 0.0, 1.0, 23.25, 26.45)">
    <path d="M-17.5 -4.75 L-14.05 -3.6 Q-14.7 -3.15 -15.35 1.85 -18.1 -3.9 -17.5 -4.75" fill="#ffffff" fill-rule="evenodd" stroke="none"/>
    <path d="M-17.5 -4.75 Q-18.1 -3.9 -15.35 1.85 -14.7 -3.15 -14.05 -3.6" fill="none" stroke="#000000" stroke-linecap="round" stroke-linejoin="round" stroke-width="1.0"/>
    <path d="M-4.3 -24.2 L1.95 -23.55 -0.1 -3.0 -0.8 -3.0 -8.8 -3.05 Q-14.35 -2.95 -18.5 -5.65 -22.65 -8.3 -22.75 -16.8 -22.25 -23.85 -17.85 -25.2 L-9.0 -25.5 Q-4.6 -24.45 -4.3 -24.2" fill="#4c8335" fill-rule="evenodd" stroke="none"/>
    <path d="M-4.3 -24.2 Q-4.6 -24.45 -9.0 -25.5 L-17.85 -25.2 Q-22.25 -23.85 -22.75 -16.8 -22.65 -8.3 -18.5 -5.65 -14.35 -2.95 -8.8 -3.05 L-0.8 -3.0 -0.1 -3.0" fill="none" stroke="#000000" stroke-linecap="round" stroke-linejoin="round" stroke-width="1.0"/>
    <path d="M-15.8 -19.2 Q-13.9 -19.95 -11.9 -15.75 -9.75 -11.65 -12.95 -9.05 -16.45 -7.65 -16.9 -12.45 -17.4 -17.2 -15.8 -19.2" fill="#000000" fill-rule="evenodd" stroke="none"/>
    <path d="M14.4 -4.0 L17.95 -5.05 Q18.5 -4.2 15.6 1.5 15.05 -3.55 14.4 -4.0" fill="#ffffff" fill-rule="evenodd" stroke="none"/>
    <path d="M17.95 -5.05 Q18.5 -4.2 15.6 1.5 15.05 -3.55 14.4 -4.0" fill="none" stroke="#000000" stroke-linecap="round" stroke-linejoin="round" stroke-width="1.0"/>
    <path d="M7.65 -24.3 L12.2 -25.15 Q16.4 -25.75 20.4 -24.45 24.4 -23.1 24.1 -17.2 22.1 -4.9 15.4 -3.9 L1.2 -3.2 0.0 -3.0 -1.55 -23.65 7.65 -24.3" fill="#4c8335" fill-rule="evenodd" stroke="none"/>
    <path d="M0.0 -3.0 L1.2 -3.2 15.4 -3.9 Q22.1 -4.9 24.1 -17.2 24.4 -23.1 20.4 -24.45 16.4 -25.75 12.2 -25.15 L7.65 -24.3" fill="none" stroke="#000000" stroke-linecap="round" stroke-linejoin="round" stroke-width="1.0"/>
    <path d="M14.4 -18.95 Q15.9 -16.95 15.3 -12.15 14.75 -7.4 11.25 -8.85 8.1 -11.55 10.35 -15.65 12.5 -19.7 14.4 -18.95" fill="#000000" fill-rule="evenodd" stroke="none"/>
  </g>
</svg>
