<?xml version="1.0" encoding="UTF-8" standalone="no"?>
<svg xmlns:xlink="http://www.w3.org/1999/xlink" height="28.7px" width="47.75px" xmlns="http://www.w3.org/2000/svg">
  <g transform="matrix(1.0, 0.0, 0.0, 1.0, 23.4, 26.9)">
    <path d="M-14.4 -4.1 Q-15.05 -3.65 -15.7 1.3 -18.4 -4.45 -17.8 -5.3 L-14.4 -4.1" fill="#ffffff" fill-rule="evenodd" stroke="none"/>
    <path d="M-17.8 -5.3 Q-18.4 -4.45 -15.7 1.3 -15.05 -3.65 -14.4 -4.1" fill="none" stroke="#000000" stroke-linecap="round" stroke-linejoin="round" stroke-width="1.0"/>
    <path d="M-4.3 -24.55 L1.95 -23.85 -0.4 -3.3 -1.1 -3.35 -9.1 -3.5 Q-14.65 -3.45 -18.75 -6.15 -22.9 -8.9 -22.9 -17.4 -22.25 -24.45 -17.8 -25.75 -13.35 -27.0 -8.95 -25.9 L-4.3 -24.55" fill="#4c8335" fill-rule="evenodd" stroke="none"/>
    <path d="M-4.3 -24.55 L-8.95 -25.9 Q-13.35 -27.0 -17.8 -25.75 -22.25 -24.45 -22.9 -17.4 -22.9 -8.9 -18.75 -6.15 -14.65 -3.45 -9.1 -3.5 L-1.1 -3.35 -0.4 -3.3" fill="none" stroke="#000000" stroke-linecap="round" stroke-linejoin="round" stroke-width="1.0"/>
    <path d="M-15.9 -19.75 Q-13.95 -20.45 -11.95 -16.2 -9.9 -12.1 -13.15 -9.5 -16.7 -8.25 -17.05 -13.0 -17.45 -17.75 -15.9 -19.75" fill="#000000" fill-rule="evenodd" stroke="none"/>
    <path d="M17.95 -5.75 Q18.55 -4.9 15.75 0.85 15.1 -4.15 14.45 -4.6 L17.95 -5.75" fill="#ffffff" fill-rule="evenodd" stroke="none"/>
    <path d="M17.95 -5.75 Q18.55 -4.9 15.75 0.85 15.1 -4.15 14.45 -4.6" fill="none" stroke="#000000" stroke-linecap="round" stroke-linejoin="round" stroke-width="1.0"/>
    <path d="M7.25 -24.75 L11.8 -25.7 Q15.9 -26.45 19.95 -25.15 24.0 -23.9 23.85 -18.0 22.05 -5.7 15.4 -4.5 L1.25 -3.5 -1.45 -3.3 -1.95 -23.85 7.25 -24.75" fill="#4c8335" fill-rule="evenodd" stroke="none"/>
    <path d="M-1.45 -3.3 L1.25 -3.5 15.4 -4.5 Q22.05 -5.7 23.85 -18.0 24.0 -23.9 19.95 -25.15 15.9 -26.45 11.8 -25.7 L7.25 -24.75" fill="none" stroke="#000000" stroke-linecap="round" stroke-linejoin="round" stroke-width="1.0"/>
    <path d="M14.05 -19.55 Q15.6 -17.55 15.1 -12.8 14.7 -8.05 11.15 -9.4 7.95 -12.05 10.1 -16.1 12.15 -20.3 14.05 -19.55" fill="#000000" fill-rule="evenodd" stroke="none"/>
  </g>
</svg>
