<?xml version="1.0" encoding="UTF-8" standalone="no"?>
<svg xmlns:xlink="http://www.w3.org/1999/xlink" height="28.55px" width="47.5px" xmlns="http://www.w3.org/2000/svg">
  <g transform="matrix(1.0, 0.0, 0.0, 1.0, 23.35, 27.8)">
    <path d="M-18.5 -6.5 L-15.15 -5.05 Q-15.85 -4.65 -16.9 0.25 -19.15 -5.7 -18.5 -6.5" fill="#ffffff" fill-rule="evenodd" stroke="none"/>
    <path d="M-18.5 -6.5 Q-19.15 -5.7 -16.9 0.25 -15.85 -4.65 -15.15 -5.05" fill="none" stroke="#000000" stroke-linecap="round" stroke-linejoin="round" stroke-width="1.0"/>
    <path d="M-3.75 -24.7 L2.45 -23.55 -1.35 -3.25 -2.05 -3.35 -10.0 -4.05 Q-15.55 -4.4 -19.45 -7.45 -23.4 -10.45 -22.75 -18.95 -21.65 -25.85 -17.1 -26.9 -12.55 -27.85 -8.3 -26.45 -4.05 -25.0 -3.75 -24.7" fill="#4c8335" fill-rule="evenodd" stroke="none"/>
    <path d="M-3.75 -24.7 Q-4.05 -25.0 -8.3 -26.45 -12.55 -27.85 -17.1 -26.9 -21.65 -25.85 -22.75 -18.95 -23.4 -10.45 -19.45 -7.45 -15.55 -4.4 -10.0 -4.05 L-2.05 -3.35 -1.35 -3.25" fill="none" stroke="#000000" stroke-linecap="round" stroke-linejoin="round" stroke-width="1.0"/>
    <path d="M-15.6 -20.75 Q-13.65 -21.3 -11.95 -16.95 -10.2 -12.7 -13.6 -10.4 -17.2 -9.3 -17.25 -14.15 -17.35 -18.9 -15.6 -20.75" fill="#000000" fill-rule="evenodd" stroke="none"/>
    <path d="M15.1 -5.45 L18.5 -6.85 Q19.15 -6.05 16.8 -0.15 15.75 -5.05 15.1 -5.45" fill="#ffffff" fill-rule="evenodd" stroke="none"/>
    <path d="M18.5 -6.85 Q19.15 -6.05 16.8 -0.15 15.75 -5.05 15.1 -5.45" fill="none" stroke="#000000" stroke-linecap="round" stroke-linejoin="round" stroke-width="1.0"/>
    <path d="M6.65 -25.1 L11.1 -26.3 Q15.15 -27.35 19.3 -26.35 23.4 -25.35 23.65 -19.45 22.65 -7.05 16.1 -5.4 9.55 -3.85 2.05 -3.5 L-2.05 -3.2 -2.5 -23.6 6.65 -25.1" fill="#4c8335" fill-rule="evenodd" stroke="none"/>
    <path d="M-2.05 -3.2 L2.05 -3.5 Q9.55 -3.85 16.1 -5.4 22.65 -7.05 23.65 -19.45 23.4 -25.35 19.3 -26.35 15.15 -27.35 11.1 -26.3 L6.65 -25.1" fill="none" stroke="#000000" stroke-linecap="round" stroke-linejoin="round" stroke-width="1.0"/>
    <path d="M13.75 -20.4 Q15.45 -18.5 15.25 -13.7 15.1 -8.95 11.5 -10.05 8.15 -12.45 10.0 -16.7 11.75 -21.0 13.75 -20.4" fill="#000000" fill-rule="evenodd" stroke="none"/>
  </g>
</svg>
