<?xml version="1.0" encoding="UTF-8" standalone="no"?>
<svg xmlns:xlink="http://www.w3.org/1999/xlink" height="6.35px" width="6.35px" xmlns="http://www.w3.org/2000/svg">
  <g transform="matrix(1.0, 0.0, 0.0, 1.0, 3.65, 16.3)">
    <path d="M-3.25 -13.6 Q-3.2 -12.25 -2.35 -11.35 -1.45 -10.45 -0.1 -10.4 1.2 -10.45 2.05 -11.3 1.15 -10.05 -0.5 -9.95 -1.85 -10.0 -2.7 -10.9 -3.6 -11.8 -3.65 -13.15 -3.6 -14.55 -2.65 -15.45 -3.25 -14.65 -3.25 -13.6" fill="#c3c3c3" fill-rule="evenodd" stroke="none"/>
    <path d="M-0.5 -16.3 Q0.85 -16.25 1.75 -15.35 2.65 -14.5 2.7 -13.15 2.65 -12.1 2.05 -11.25 1.2 -10.45 -0.1 -10.4 -1.45 -10.45 -2.3 -11.35 -3.2 -12.25 -3.25 -13.6 -3.2 -14.65 -2.65 -15.45 -1.75 -16.25 -0.5 -16.3" fill="#ffffff" fill-rule="evenodd" stroke="none"/>
    <path d="M0.3 -12.85 L1.4 -12.5 1.4 -10.8 -1.05 -12.15 0.3 -12.85" fill="#ec6829" fill-rule="evenodd" stroke="none"/>
    <path d="M1.8 -13.6 Q1.8 -13.2 1.4 -13.2 1.05 -13.2 1.0 -13.6 1.05 -13.95 1.4 -14.0 L1.8 -13.6" fill="#000000" fill-rule="evenodd" stroke="none"/>
    <path d="M-0.45 -13.6 Q-0.45 -13.2 -0.85 -13.2 L-1.25 -13.6 -0.85 -14.0 Q-0.45 -13.95 -0.45 -13.6" fill="#000000" fill-rule="evenodd" stroke="none"/>
  </g>
</svg>
