<?xml version="1.0" encoding="UTF-8" standalone="no"?>
<svg xmlns:xlink="http://www.w3.org/1999/xlink" height="58.25px" width="127.95px" xmlns="http://www.w3.org/2000/svg">
  <g transform="matrix(1.0, 0.0, 0.0, 1.0, 64.65, 28.85)">
    <path d="M-41.6 -28.85 L-19.95 -23.1 -43.9 -20.8 -64.65 -26.75 -41.6 -28.85" fill="#77787a" fill-rule="evenodd" stroke="none"/>
    <path d="M-43.5 -15.1 L-62.45 -21.85 -60.7 -16.35 -43.6 -9.5 -43.5 -9.45 -23.35 -12.55 -23.25 -12.8 -24.75 -8.0 -30.85 -6.6 -30.95 -6.55 -31.15 -6.4 -31.4 -6.4 -31.55 -6.35 -39.0 -4.55 -45.1 -5.8 -45.2 5.95 -49.2 6.85 -53.95 5.1 -54.25 -7.55 -60.0 -8.75 -64.65 -26.75 -43.05 -20.9 -19.95 -23.1 -21.65 -17.8 -43.5 -15.1" fill="#000000" fill-rule="evenodd" stroke="none"/>
    <path d="M-43.6 -9.5 L-60.7 -16.35 -62.45 -21.85 -43.5 -15.1 -43.6 -9.5" fill="#ffffff" fill-rule="evenodd" stroke="none"/>
    <path d="M50.8 16.95 Q34.95 28.5 17.95 29.35 1.0 30.15 -30.75 19.35 -40.55 16.0 -50.85 11.8 L-59.05 8.35 -64.1 -14.55 63.3 5.55 Q58.75 11.15 50.8 16.95" fill="#24643c" fill-rule="evenodd" stroke="none"/>
    <path d="M42.75 -10.45 Q60.6 -4.75 63.3 5.55 53.0 6.35 38.05 6.05 8.2 5.5 -15.2 0.2 -24.6 -1.65 -64.1 -14.55 L2.1 -20.5 42.75 -10.45" fill="#768f35" fill-rule="evenodd" stroke="none"/>
    <path d="M-32.35 -19.2 L15.8 -22.05 17.65 -12.9 -33.25 -8.1 -32.35 -19.2" fill="#d67c54" fill-rule="evenodd" stroke="none"/>
    <path d="M-33.25 -8.1 L-40.45 -10.0 -39.15 -20.6 -32.35 -19.2 -33.25 -8.1" fill="#a94a28" fill-rule="evenodd" stroke="none"/>
    <path d="M-39.15 -20.6 L5.65 -23.15 15.8 -21.9 -32.35 -19.2 -39.15 -20.6" fill="#d67c54" fill-rule="evenodd" stroke="none"/>
    <path d="M35.25 -8.5 Q2.0 -2.25 -3.95 -1.85 -7.65 -1.6 -20.85 -4.8 L-33.3 -8.15 17.8 -12.8 35.25 -8.5" fill="#24643c" fill-rule="evenodd" stroke="none"/>
  </g>
</svg>
