<?xml version="1.0" encoding="UTF-8" standalone="no"?>
<svg xmlns:xlink="http://www.w3.org/1999/xlink" height="57.7px" width="126.65px" xmlns="http://www.w3.org/2000/svg">
  <g transform="matrix(1.0, 0.0, 0.0, 1.0, 63.35, 28.85)">
    <path d="M-40.6 -28.85 L-19.05 -23.25 -42.95 -20.9 -63.35 -26.8 -40.6 -28.85" fill="#666666" fill-rule="evenodd" stroke="none"/>
    <path d="M-42.4 -9.65 L-22.6 -12.6 -23.8 -8.2 -30.0 -6.7 -30.55 -6.7 -37.95 -4.95 -44.15 -6.1 -44.15 5.7 -48.0 6.6 -53.0 4.8 -53.3 -7.9 -58.9 -8.75 -63.35 -26.8 -42.1 -20.9 -19.05 -23.25 -20.85 -17.95 -42.4 -15.25 -61.25 -22.05 -59.5 -16.45 -42.4 -9.65" fill="#000000" fill-rule="evenodd" stroke="none"/>
    <path d="M-42.4 -15.25 L-42.4 -9.65 -59.5 -16.45 -61.25 -22.05 -42.4 -15.25" fill="#ffffff" fill-rule="evenodd" stroke="none"/>
    <path d="M-42.4 -15.25 L-42.4 -9.65" fill="none" stroke="#000000" stroke-linecap="round" stroke-linejoin="round" stroke-width="0.05"/>
    <path d="M18.45 28.75 Q-8.45 30.2 -57.75 8.05 L-63.05 -14.7 63.3 5.1 Q45.3 27.55 18.45 28.75" fill="#7c0c08" fill-rule="evenodd" stroke="none"/>
    <path d="M42.95 -10.55 Q60.65 -4.95 63.3 5.1 22.55 8.35 -14.35 -0.2 L-39.45 -7.3 -63.05 -14.7 2.8 -20.6 Q35.55 -12.9 42.95 -10.55" fill="#ab0c0a" fill-rule="evenodd" stroke="none"/>
    <path d="M18.15 -12.9 L-32.35 -8.2 -31.45 -19.1 16.35 -22.05 18.15 -12.9" fill="#cc6635" fill-rule="evenodd" stroke="none"/>
    <path d="M-38.25 -20.6 L-31.45 -19.1 -32.35 -8.2 -39.45 -10.25 -38.25 -20.6" fill="#99330c" fill-rule="evenodd" stroke="none"/>
    <path d="M16.35 -22.05 L-31.45 -19.1 -38.25 -20.6 6.35 -23.25 16.35 -22.05" fill="#cc6635" fill-rule="evenodd" stroke="none"/>
    <path d="M35.55 -8.75 Q2.8 -2.55 -3.1 -2.0 -9.0 -1.7 -32.35 -8.5 L18.75 -12.9 35.55 -8.75" fill="#7c0c08" fill-rule="evenodd" stroke="none"/>
  </g>
</svg>
