<?xml version="1.0" encoding="UTF-8" standalone="no"?>
<svg xmlns:xlink="http://www.w3.org/1999/xlink" height="8.55px" width="15.65px" xmlns="http://www.w3.org/2000/svg">
  <g transform="matrix(1.0, 0.0, 0.0, 1.0, 7.85, 4.3)">
    <path d="M6.65 -4.1 L3.95 -1.65 7.35 -2.65 4.1 -0.4 7.65 -1.2 Q3.4 1.4 -2.5 3.05 L-7.7 4.15 -5.8 -1.55 Q0.45 -0.4 6.65 -4.1" fill="#4c8335" fill-rule="evenodd" stroke="none"/>
    <path d="M-7.7 4.1 L-2.55 3.05 Q3.4 1.4 7.65 -1.2 L4.1 -0.45 7.35 -2.65 3.95 -1.65 6.6 -4.15 Q0.45 -0.45 -5.8 -1.6" fill="none" stroke="#000000" stroke-linecap="round" stroke-linejoin="round" stroke-width="0.30000000000000004"/>
    <path d="M-2.8 -2.05 Q-0.8 -3.75 1.0 -1.8 1.7 0.0 1.35 1.8 0.9 3.4 -0.3 3.6 L-2.1 3.35 -2.75 2.7 Q-1.8 1.1 -2.45 0.0 L-3.3 -1.2 -2.8 -2.05" fill="#ff7f00" fill-rule="evenodd" stroke="none"/>
    <path d="M-2.8 -2.05 L-3.3 -1.2 -2.45 0.0 Q-1.8 1.1 -2.75 2.7 L-2.1 3.35 -0.3 3.6 Q0.9 3.4 1.35 1.8 1.7 0.0 1.0 -1.8 -0.8 -3.75 -2.8 -2.05 Z" fill="none" stroke="#000000" stroke-linecap="round" stroke-linejoin="round" stroke-width="0.30000000000000004"/>
    <path d="M-3.15 -1.25 Q-3.2 -1.9 -1.7 -2.25 -1.05 -1.9 -0.95 -0.75 -1.75 2.9 -2.55 2.8 L-2.05 1.6 Q-1.8 0.4 -3.15 -1.25" fill="#e66500" fill-rule="evenodd" stroke="none"/>
  </g>
</svg>
