<?xml version="1.0" encoding="UTF-8" standalone="no"?>
<svg xmlns:xlink="http://www.w3.org/1999/xlink" height="59.5px" width="50.55px" xmlns="http://www.w3.org/2000/svg">
  <g transform="matrix(1.0, 0.0, 0.0, 1.0, 85.3, 46.1)">
    <path d="M-49.9 -42.25 Q-45.95 -39.15 -44.65 -41.35 -44.25 -40.05 -44.7 -39.4 -47.3 -38.1 -50.1 -40.65 -52.15 -42.55 -51.25 -42.6 L-49.9 -42.25" fill="#6e4f30" fill-rule="evenodd" stroke="none"/>
    <path d="M-49.9 -42.25 Q-45.95 -39.15 -44.65 -41.35 -44.25 -40.05 -44.7 -39.4 -47.3 -38.1 -50.1 -40.65 -52.15 -42.55 -51.25 -42.6 L-49.9 -42.25 Z" fill="none" stroke="#000000" stroke-linecap="round" stroke-linejoin="round" stroke-width="0.30000000000000004"/>
    <path d="M-54.0 -21.8 L-57.15 -12.45 -79.55 11.15 -85.15 8.75 -80.95 7.05 -83.1 2.45 -78.6 1.5 -80.25 -3.5 -75.8 -2.8 -75.7 -7.9 -71.55 -6.6 -71.3 -12.35 -65.95 -11.15 -66.55 -15.05 -61.9 -14.0 -63.45 -17.8 -59.2 -16.7 -60.45 -20.45 -56.9 -19.9 -57.75 -22.95 -55.8 -22.95 -57.55 -26.1 -55.8 -27.15 -58.0 -28.9 -55.9 -30.5 -54.0 -21.8" fill="#fbde46" fill-rule="evenodd" stroke="none"/>
    <path d="M-54.0 -21.8 L-57.15 -12.45 -79.55 11.15 -85.15 8.75 -80.95 7.05 -83.1 2.45 -78.6 1.5 -80.25 -3.5 -75.8 -2.8 -75.7 -7.9 -71.55 -6.6 -71.3 -12.35 -65.95 -11.15 -66.55 -15.05 -61.9 -14.0 -63.45 -17.8 -59.2 -16.7 -60.45 -20.45 -56.9 -19.9 -57.75 -22.95 -55.8 -22.95 -57.55 -26.1 -55.8 -27.15 -58.0 -28.9 -55.9 -30.5 -54.0 -21.8 Z" fill="none" stroke="#000000" stroke-linecap="round" stroke-linejoin="round" stroke-width="0.30000000000000004"/>
    <path d="M-45.25 -12.25 Q-40.9 -7.4 -38.85 0.2 L-68.35 13.25 -81.5 10.5 Q-79.5 1.45 -74.2 -4.25 -72.4 -6.2 -60.6 -15.7 -57.2 -18.7 -56.25 -22.9 L-55.6 -29.0 -53.7 -32.65 Q-51.55 -35.85 -50.1 -33.6 -50.95 -32.65 -50.15 -26.8 -49.15 -19.35 -45.25 -12.25" fill="#4c8335" fill-rule="evenodd" stroke="none"/>
    <path d="M-45.25 -12.25 Q-40.45 -6.55 -39.1 0.3 L-68.35 13.25 -81.5 10.5 Q-79.5 1.45 -74.2 -4.25 -72.4 -6.2 -60.6 -15.7 -57.2 -18.7 -56.25 -22.9 L-55.6 -29.0 -53.7 -32.65 Q-51.55 -35.85 -50.1 -33.6 -50.95 -32.65 -50.15 -26.8 -49.15 -19.35 -45.25 -12.25 Z" fill="none" stroke="#000000" stroke-linecap="round" stroke-linejoin="round" stroke-width="0.30000000000000004"/>
    <path d="M-49.35 -13.55 Q-47.35 -13.55 -46.25 -11.65 -44.35 -8.2 -41.95 -5.95 -38.35 -2.7 -37.35 8.3 L-68.75 13.2 Q-66.6 -0.85 -59.65 -5.15 -57.5 -6.6 -53.95 -10.65 -51.45 -13.55 -49.35 -13.55" fill="#f3e016" fill-rule="evenodd" stroke="none"/>
    <path d="M-49.35 -13.55 Q-51.45 -13.55 -54.0 -10.65 -57.5 -6.6 -59.7 -5.2 -66.6 -0.85 -68.8 13.2 L-37.35 8.3 Q-38.35 -2.7 -41.95 -5.95 -44.35 -8.2 -46.25 -11.65 -47.35 -13.55 -49.35 -13.55 Z" fill="none" stroke="#000000" stroke-linecap="round" stroke-linejoin="round" stroke-width="0.30000000000000004"/>
    <path d="M-51.05 -42.35 L-55.65 -30.5 -58.6 -32.55 Q-57.25 -33.25 -56.0 -34.0 L-59.2 -35.95 -56.75 -37.1 -59.2 -40.0 -56.3 -39.95 Q-56.9 -40.35 -56.85 -41.05 L-56.75 -42.65 Q-55.3 -41.05 -55.35 -42.25 L-55.5 -43.15 Q-55.5 -44.25 -54.6 -45.2 -54.6 -42.85 -53.45 -43.8 L-53.25 -44.1 Q-52.75 -44.5 -51.15 -44.5 -52.2 -43.6 -51.75 -42.85 -51.5 -42.55 -51.05 -42.35" fill="#fbde46" fill-rule="evenodd" stroke="none"/>
    <path d="M-51.05 -42.35 L-55.65 -30.5 -58.6 -32.55 Q-57.25 -33.25 -56.0 -34.0 L-59.2 -35.95 -56.75 -37.1 -59.2 -40.0 -56.3 -39.95 Q-56.9 -40.35 -56.85 -41.05 L-56.75 -42.65 Q-55.3 -41.05 -55.35 -42.25 L-55.5 -43.15 Q-55.5 -44.25 -54.6 -45.2 -54.6 -42.85 -53.45 -43.8 L-53.25 -44.1 Q-52.75 -44.5 -51.15 -44.5 -52.2 -43.6 -51.75 -42.85 -51.5 -42.55 -51.05 -42.35 Z" fill="none" stroke="#000000" stroke-linecap="round" stroke-linejoin="round" stroke-width="0.30000000000000004"/>
    <path d="M-56.9 -34.95 Q-57.05 -42.05 -54.55 -43.3 -51.4 -45.2 -47.9 -39.6 -44.95 -34.85 -41.3 -34.85 -41.1 -33.5 -41.85 -32.35 -43.3 -29.95 -48.0 -30.4 L-48.55 -33.15 -55.85 -24.95 Q-55.6 -28.7 -56.15 -31.55 L-56.9 -34.95" fill="#4c8335" fill-rule="evenodd" stroke="none"/>
    <path d="M-55.85 -24.95 Q-55.6 -28.7 -56.15 -31.55 L-56.9 -34.95 Q-57.05 -42.05 -54.6 -43.35 -51.45 -45.2 -47.9 -39.65 -44.95 -34.85 -41.3 -34.85 -41.1 -33.5 -41.85 -32.35 -43.3 -29.95 -48.05 -30.4 L-48.6 -33.15" fill="none" stroke="#000000" stroke-linecap="round" stroke-linejoin="round" stroke-width="0.30000000000000004"/>
    <path d="M-50.7 -30.05 L-49.9 -32.9 -46.8 -31.2 -48.5 -31.25 Q-50.35 -31.15 -50.7 -30.05" fill="#628c4c" fill-rule="evenodd" stroke="none"/>
    <path d="M-50.7 -30.05 Q-50.35 -31.15 -48.5 -31.25 L-46.8 -31.2 -49.9 -32.9" fill="none" stroke="#000000" stroke-linecap="round" stroke-linejoin="round" stroke-width="0.30000000000000004"/>
    <path d="M-43.35 -28.9 L-44.2 -26.1 -45.75 -29.25 -43.35 -28.9" fill="#ffffff" fill-rule="evenodd" stroke="none"/>
    <path d="M-43.35 -28.9 L-44.2 -26.1 -45.75 -29.25" fill="none" stroke="#000000" stroke-linecap="round" stroke-linejoin="round" stroke-width="0.30000000000000004"/>
    <path d="M-39.05 -30.65 L-36.7 -30.95 Q-37.4 -28.35 -38.2 -27.8 L-39.05 -30.65" fill="#ffffff" fill-rule="evenodd" stroke="none"/>
    <path d="M-39.05 -30.65 L-38.2 -27.8 Q-37.4 -28.35 -36.7 -30.95" fill="none" stroke="#000000" stroke-linecap="round" stroke-linejoin="round" stroke-width="0.30000000000000004"/>
    <path d="M-51.55 -33.5 Q-53.6 -34.35 -55.05 -36.55 L-46.2 -35.05 Q-43.95 -37.1 -40.25 -36.3 -37.8 -37.45 -36.2 -36.85 -34.5 -36.2 -35.0 -33.9 -35.55 -31.75 -37.65 -30.1 L-39.7 -30.1 Q-41.8 -30.15 -43.7 -28.65 -45.0 -27.6 -45.7 -27.75 -47.05 -28.0 -48.8 -30.95 -49.65 -32.7 -51.55 -33.5" fill="#4c8335" fill-rule="evenodd" stroke="none"/>
    <path d="M-46.2 -35.1 Q-43.95 -37.1 -40.25 -36.3 -37.8 -37.45 -36.2 -36.85 -34.5 -36.2 -35.0 -33.95 -35.55 -31.75 -37.65 -30.1 L-39.7 -30.1 Q-41.8 -30.15 -43.7 -28.65 -45.0 -27.65 -45.75 -27.75 -47.05 -28.0 -48.8 -30.95 -49.65 -32.7 -51.55 -33.5 -53.6 -34.35 -55.05 -36.55" fill="none" stroke="#000000" stroke-linecap="round" stroke-linejoin="round" stroke-width="0.30000000000000004"/>
    <path d="M-43.1 -32.4 Q-42.9 -30.9 -43.65 -30.8 -44.4 -30.55 -44.75 -32.1 -45.05 -33.5 -44.25 -33.75 -43.4 -33.85 -43.1 -32.4" fill="#000000" fill-rule="evenodd" stroke="none"/>
    <path d="M-36.45 -33.1 Q-36.85 -31.55 -37.8 -31.8 -38.55 -32.1 -38.15 -33.65 -37.6 -35.2 -36.75 -34.95 -35.9 -34.65 -36.45 -33.1" fill="#000000" fill-rule="evenodd" stroke="none"/>
    <path d="M-68.75 -3.35 L-64.7 -6.25 Q-60.85 1.05 -54.55 4.25 L-57.65 3.65 -54.75 6.25 -58.15 4.85 -55.25 7.8 Q-59.55 5.7 -64.6 0.95 L-68.75 -3.35" fill="#4c8335" fill-rule="evenodd" stroke="none"/>
    <path d="M-68.8 -3.35 L-64.6 0.95 Q-59.55 5.7 -55.25 7.8 L-58.15 4.85 -54.75 6.2 -57.7 3.6 -54.6 4.2 Q-60.85 1.05 -64.7 -6.25" fill="none" stroke="#000000" stroke-linecap="round" stroke-linejoin="round" stroke-width="0.30000000000000004"/>
    <path d="M-55.2 -40.1 Q-55.5 -36.4 -59.2 -36.0 -60.4 -36.1 -60.9 -37.15 -56.95 -36.6 -56.85 -40.2 -57.05 -39.8 -57.3 -41.6 -57.5 -42.9 -56.65 -44.25 -55.75 -45.75 -54.2 -45.95 -50.2 -46.2 -49.65 -42.3 -51.35 -43.3 -53.45 -41.9 -55.0 -40.8 -55.2 -40.1" fill="#6e4f30" fill-rule="evenodd" stroke="none"/>
    <path d="M-55.2 -40.1 Q-55.0 -40.8 -53.45 -41.9 -51.35 -43.3 -49.65 -42.3 -50.2 -46.2 -54.2 -45.95 -55.75 -45.75 -56.65 -44.25 -57.5 -42.9 -57.3 -41.6 -57.05 -39.8 -56.85 -40.2 -56.95 -36.6 -60.9 -37.15 -60.4 -36.1 -59.2 -36.0 -55.5 -36.4 -55.2 -40.1 Z" fill="none" stroke="#000000" stroke-linecap="round" stroke-linejoin="round" stroke-width="0.30000000000000004"/>
    <path d="M-52.45 -41.35 L-52.7 -39.75 Q-56.05 -40.1 -57.35 -42.0 L-57.15 -43.6 -55.9 -42.35 Q-54.35 -41.15 -52.45 -41.35" fill="#6e4f30" fill-rule="evenodd" stroke="none"/>
    <path d="M-52.45 -41.35 Q-54.35 -41.15 -55.9 -42.35 L-57.15 -43.6 -57.35 -42.0 Q-56.05 -40.1 -52.7 -39.75 L-52.45 -41.35 Z" fill="none" stroke="#000000" stroke-linecap="round" stroke-linejoin="round" stroke-width="0.30000000000000004"/>
  </g>
</svg>
