<?xml version="1.0" encoding="UTF-8" standalone="no"?>
<svg xmlns:xlink="http://www.w3.org/1999/xlink" height="3.7px" width="7.05px" xmlns="http://www.w3.org/2000/svg">
  <g transform="matrix(1.0, 0.0, 0.0, 1.0, 3.55, 1.6)">
    <path d="M2.85 0.1 Q3.15 1.25 1.95 1.45 0.75 1.65 0.45 0.35 0.2 -0.85 1.4 -1.05 2.65 -1.15 2.85 0.1 Z" fill="none" stroke="#000000" stroke-linecap="round" stroke-linejoin="round" stroke-width="0.25"/>
    <path d="M-0.05 0.3 Q-0.05 1.9 -1.7 2.0 -3.45 2.05 -3.45 0.3 -3.45 -1.35 -1.75 -1.35 -0.05 -1.35 -0.05 0.3" fill="#6e4f30" fill-rule="evenodd" stroke="none"/>
    <path d="M-0.05 0.3 Q-0.05 -1.35 -1.75 -1.35 -3.45 -1.35 -3.45 0.3 -3.45 2.05 -1.7 2.0 -0.05 1.9 -0.05 0.3 Z" fill="none" stroke="#000000" stroke-linecap="round" stroke-linejoin="round" stroke-width="0.2"/>
    <path d="M1.35 -1.5 Q3.05 -1.65 3.35 -0.05 3.7 1.65 1.95 1.8 0.3 1.95 -0.05 0.3 -0.3 -1.3 1.35 -1.5" fill="#6e4f30" fill-rule="evenodd" stroke="none"/>
    <path d="M1.35 -1.5 Q-0.3 -1.3 -0.05 0.3 0.3 1.95 1.95 1.8 3.7 1.65 3.35 -0.05 3.05 -1.65 1.35 -1.5 Z" fill="none" stroke="#000000" stroke-linecap="round" stroke-linejoin="round" stroke-width="0.2"/>
  </g>
</svg>
