<?xml version="1.0" encoding="UTF-8" standalone="no"?>
<svg xmlns:xlink="http://www.w3.org/1999/xlink" height="7.15px" width="7.45px" xmlns="http://www.w3.org/2000/svg">
  <g transform="matrix(1.0, 0.0, 0.0, 1.0, 68.1, 5.45)">
    <path d="M-65.6 1.55 Q-68.65 0.6 -67.75 -2.5 -66.4 -4.4 -64.4 -5.15 -62.5 -5.7 -61.55 -4.45 -60.6 -3.2 -60.85 -1.9 -61.3 -1.05 -61.6 -1.0 -63.65 -1.0 -63.85 0.05 L-63.85 1.3 -65.6 1.55" fill="#ff7f00" fill-rule="evenodd" stroke="none"/>
    <path d="M-65.6 1.55 L-63.85 1.3 -63.85 0.05 Q-63.65 -1.0 -61.6 -1.0 -61.3 -1.05 -60.85 -1.9 -60.6 -3.2 -61.55 -4.45 -62.5 -5.7 -64.4 -5.15 -66.4 -4.4 -67.75 -2.5 -68.65 0.6 -65.6 1.55 Z" fill="none" stroke="#000000" stroke-linecap="round" stroke-linejoin="round" stroke-width="0.30000000000000004"/>
    <path d="M-64.1 1.2 L-66.0 1.3 Q-67.4 0.65 -67.95 -0.9 -68.1 -2.4 -66.9 -3.4 L-65.55 -4.45 -66.2 -2.7 Q-66.6 -1.05 -64.1 1.2" fill="#e66500" fill-rule="evenodd" stroke="none"/>
  </g>
</svg>
