<?xml version="1.0" encoding="UTF-8" standalone="no"?>
<svg xmlns:xlink="http://www.w3.org/1999/xlink" height="16.7px" width="20.45px" xmlns="http://www.w3.org/2000/svg">
  <g transform="matrix(1.0, 0.0, 0.0, 1.0, -643.45, -383.55)">
    <path d="M647.75 398.55 Q645.15 396.8 645.15 393.95 645.15 390.2 648.45 387.55 651.65 385.0 655.6 385.25 658.5 385.45 660.4 387.25 662.2 389.05 662.2 391.5 662.2 395.05 659.9 396.95" fill="none" stroke="#000000" stroke-linecap="round" stroke-linejoin="round" stroke-width="3.45"/>
    <path d="M654.0 395.9 L645.1 391.25 646.4 388.75 655.3 393.4 654.0 395.9" fill="#000000" fill-rule="evenodd" stroke="none"/>
    <path d="M653.25 393.45 L660.85 386.95 662.7 389.1 655.05 395.55 653.25 393.45" fill="#000000" fill-rule="evenodd" stroke="none"/>
    <path d="M656.25 394.65 Q656.25 396.65 654.3 396.65 652.3 396.65 652.3 394.65 652.3 392.7 654.3 392.7 656.25 392.7 656.25 394.65" fill="#000000" fill-rule="evenodd" stroke="none"/>
  </g>
</svg>
