<?xml version="1.0" encoding="UTF-8" standalone="no"?>
<svg xmlns:xlink="http://www.w3.org/1999/xlink" height="64.7px" width="37.2px" xmlns="http://www.w3.org/2000/svg">
  <g transform="matrix(1.0, 0.0, 0.0, 1.0, 73.6, 48.75)">
    <path d="M-62.8 -12.5 Q-62.1 -13.65 -60.6 -17.7 -58.65 -21.1 -55.1 -20.85 -53.35 -20.75 -56.3 -12.25 -58.05 -7.45 -57.15 -5.7 -55.2 -1.95 -54.65 5.3 L-54.1 13.95 -66.85 15.8 -71.6 15.25 Q-70.5 9.4 -67.65 0.55 L-62.8 -12.5" fill="#73420d" fill-rule="evenodd" stroke="none"/>
    <path d="M-67.65 0.55 Q-70.5 9.4 -71.6 15.2 L-66.85 15.75 -54.1 13.95 -54.65 5.25 Q-55.2 -1.95 -57.15 -5.7 -58.05 -7.5 -56.3 -12.25 -53.35 -20.75 -55.1 -20.9 -58.65 -21.1 -60.6 -17.75 -62.1 -13.65 -62.8 -12.5 L-67.65 0.55 Z" fill="none" stroke="#000000" stroke-linecap="round" stroke-linejoin="round" stroke-width="0.4"/>
    <path d="M-60.45 -5.4 L-60.95 0.8 Q-61.6 6.85 -62.25 8.4 -63.15 9.45 -65.85 9.1 -68.5 8.75 -70.0 7.65 -70.95 6.2 -68.8 2.0 -66.65 -2.25 -64.75 -4.6 L-64.2 -5.4 -60.45 -5.4" fill="#ff7f00" fill-rule="evenodd" stroke="none"/>
    <path d="M-64.2 -5.4 L-64.75 -4.6 Q-66.65 -2.25 -68.8 2.0 -70.95 6.2 -70.0 7.65 -68.5 8.75 -65.85 9.1 -63.15 9.45 -62.25 8.4 -61.6 6.85 -60.95 0.8 L-60.45 -5.4" fill="none" stroke="#000000" stroke-linecap="round" stroke-linejoin="round" stroke-width="0.4"/>
    <path d="M-68.6 5.6 L-67.85 1.15 Q-67.05 -2.85 -64.45 -4.6 -66.15 0.2 -65.1 4.35 -64.05 8.5 -63.8 8.7 L-65.95 8.0 Q-67.85 7.25 -68.6 5.6" fill="#e66500" fill-rule="evenodd" stroke="none"/>
    <path d="M-67.4 4.45 Q-67.0 7.0 -65.35 7.9 L-63.45 8.75 Q-63.95 9.2 -66.9 8.7 -69.85 8.25 -70.15 6.7 -69.75 4.2 -67.65 -1.25 L-65.3 -7.3 -66.4 -2.7 Q-67.35 1.45 -67.4 4.45" fill="#e66500" fill-rule="evenodd" stroke="none"/>
    <path d="M-56.45 -15.1 L-56.05 -17.3 Q-54.0 -14.1 -50.9 -12.85 -52.45 -12.75 -56.45 -15.1" fill="#73420d" fill-rule="evenodd" stroke="none"/>
    <path d="M-56.45 -15.1 Q-52.45 -12.75 -50.9 -12.85 -54.0 -14.1 -56.05 -17.3" fill="none" stroke="#000000" stroke-linecap="round" stroke-linejoin="round" stroke-width="0.4"/>
    <path d="M-57.75 -19.85 L-53.1 -19.6 Q-50.05 -15.05 -50.8 -12.85 -52.9 -13.4 -55.5 -16.7 L-57.75 -19.85" fill="#fd3e36" fill-rule="evenodd" stroke="none"/>
    <path d="M-57.75 -19.85 L-55.5 -16.7 Q-52.9 -13.4 -50.8 -12.85 -50.05 -15.05 -53.1 -19.6 L-57.75 -19.85 Z" fill="none" stroke="#000000" stroke-linecap="round" stroke-linejoin="round" stroke-width="0.4"/>
    <path d="M-44.35 -39.05 Q-45.5 -32.95 -48.25 -31.65 -50.8 -30.5 -53.35 -30.15 L-55.4 -30.1 -54.25 -31.85 -52.2 -32.15 Q-49.95 -32.7 -48.7 -33.6 -47.2 -34.75 -46.8 -39.25 -51.9 -38.9 -51.9 -40.15 -51.95 -41.0 -49.95 -41.25 L-48.0 -41.4 Q-51.4 -41.7 -51.35 -42.9 -51.35 -43.6 -49.45 -43.75 L-47.55 -43.75 -50.2 -44.35 Q-52.75 -45.1 -52.6 -45.85 -52.5 -46.8 -48.9 -46.95 -45.35 -47.15 -44.4 -46.1 -43.25 -44.85 -44.35 -39.05" fill="#ecc39f" fill-rule="evenodd" stroke="none"/>
    <path d="M-54.25 -31.85 L-52.2 -32.15 Q-49.95 -32.7 -48.7 -33.6 -47.2 -34.75 -46.8 -39.25 -51.9 -38.9 -51.9 -40.15 -51.95 -41.0 -49.95 -41.25 L-48.0 -41.4 Q-51.4 -41.7 -51.35 -42.9 -51.35 -43.6 -49.45 -43.75 L-47.55 -43.75 -50.2 -44.35 Q-52.75 -45.1 -52.6 -45.85 -52.5 -46.8 -48.9 -46.95 -45.35 -47.15 -44.4 -46.1 -43.25 -44.85 -44.35 -39.05 -45.5 -32.95 -48.25 -31.65 -50.8 -30.5 -53.35 -30.15 L-55.4 -30.1" fill="none" stroke="#000000" stroke-linecap="round" stroke-linejoin="round" stroke-width="0.4"/>
    <path d="M-50.35 -29.85 Q-47.6 -26.4 -47.6 -25.45 -45.4 -21.05 -42.2 -18.25 -41.55 -17.8 -38.5 -17.4 -37.55 -16.15 -36.95 -13.5 -36.3 -10.85 -36.8 -9.8 -37.55 -8.25 -41.8 -7.6 -49.95 -6.4 -50.9 -7.6 -51.55 -8.45 -51.7 -11.65 -51.8 -14.8 -52.35 -15.2 -56.75 -18.75 -57.8 -20.0 L-62.4 -13.3 Q-60.75 -16.5 -62.4 -21.25 -63.9 -25.2 -61.1 -27.3 -61.25 -30.6 -60.6 -31.55 -59.6 -32.95 -55.7 -33.0 -53.7 -33.0 -52.75 -32.4 L-50.35 -29.85" fill="#73420d" fill-rule="evenodd" stroke="none"/>
    <path d="M-57.8 -20.05 Q-56.75 -18.75 -52.35 -15.25 -51.8 -14.8 -51.7 -11.65 -51.55 -8.45 -50.9 -7.6 -49.95 -6.4 -41.8 -7.6 -37.55 -8.25 -36.85 -9.85 -36.3 -10.85 -36.95 -13.55 -37.55 -16.15 -38.55 -17.4 -41.55 -17.8 -42.25 -18.25 -45.4 -21.05 -47.65 -25.5 -47.65 -26.4 -50.35 -29.85 L-52.8 -32.4 Q-53.7 -33.0 -55.7 -33.0 -59.6 -32.95 -60.6 -31.55 -61.3 -30.6 -61.1 -27.3 -63.9 -25.2 -62.45 -21.25 -60.75 -16.5 -62.45 -13.3" fill="none" stroke="#000000" stroke-linecap="round" stroke-linejoin="round" stroke-width="0.4"/>
    <path d="M-67.45 -47.5 Q-66.5 -48.65 -62.2 -48.55 -57.95 -48.35 -58.0 -47.4 -58.05 -45.8 -63.75 -44.9 L-61.6 -44.95 Q-59.45 -44.85 -59.4 -43.95 -59.3 -42.45 -63.2 -42.15 L-61.05 -42.05 Q-58.8 -41.75 -58.75 -40.85 -58.6 -39.45 -64.0 -39.7 L-63.2 -36.05 Q-61.7 -32.2 -58.45 -31.35 -57.3 -30.15 -59.05 -29.65 -63.4 -29.9 -66.25 -38.1 -68.85 -45.8 -67.45 -47.5" fill="#ecc39f" fill-rule="evenodd" stroke="none"/>
    <path d="M-67.45 -47.5 Q-68.85 -45.8 -66.25 -38.1 -63.4 -29.9 -59.05 -29.65 -57.3 -30.15 -58.45 -31.35 -61.7 -32.2 -63.2 -36.05 L-64.0 -39.7 Q-58.6 -39.45 -58.75 -40.85 -58.8 -41.75 -61.05 -42.05 L-63.2 -42.15 Q-59.3 -42.45 -59.4 -43.95 -59.45 -44.85 -61.6 -44.95 L-63.75 -44.9 Q-58.05 -45.8 -58.0 -47.4 -57.95 -48.35 -62.2 -48.55 -66.5 -48.65 -67.45 -47.5 Z" fill="none" stroke="#000000" stroke-linecap="round" stroke-linejoin="round" stroke-width="0.4"/>
    <path d="M-65.35 10.25 Q-65.45 6.95 -61.0 8.5 -58.75 9.25 -56.45 10.75 -56.95 11.65 -58.6 11.75 L-56.55 12.35 Q-66.25 15.9 -65.4 10.65 L-65.35 10.45 -65.35 10.25" fill="#000000" fill-rule="evenodd" stroke="none"/>
    <path d="M-65.9 -3.25 Q-67.05 0.55 -69.9 4.05 -69.95 4.7 -67.45 7.05 L-64.9 9.3 -65.05 12.0 Q-68.05 11.4 -70.95 8.4 -73.7 5.6 -73.35 4.5 -72.4 1.5 -69.45 -4.8 -68.85 -7.35 -68.05 -9.3 -67.6 -10.4 -65.15 -10.85 L-62.85 -11.15 -65.9 -3.25" fill="#73420d" fill-rule="evenodd" stroke="none"/>
    <path d="M-65.9 -3.3 Q-67.05 0.55 -69.9 4.05 -69.95 4.7 -67.45 7.05 L-64.9 9.25 -65.05 12.0 Q-68.05 11.4 -71.0 8.35 -73.7 5.55 -73.35 4.5 -72.4 1.5 -69.45 -4.8 -68.85 -7.35 -68.05 -9.3 -67.6 -10.4 -65.15 -10.85 L-62.85 -11.15" fill="none" stroke="#000000" stroke-linecap="round" stroke-linejoin="round" stroke-width="0.4"/>
  </g>
</svg>
