<?xml version="1.0" encoding="UTF-8" standalone="no"?>
<svg xmlns:xlink="http://www.w3.org/1999/xlink" height="8.2px" width="20.0px" xmlns="http://www.w3.org/2000/svg">
  <g transform="matrix(1.0, 0.0, 0.0, 1.0, 14.4, 3.15)">
    <path d="M2.2 -2.25 Q5.2 -1.05 5.4 1.2 L2.2 1.5 2.2 -2.25" fill="#73420d" fill-rule="evenodd" stroke="none"/>
    <path d="M2.2 -2.25 Q5.2 -1.05 5.4 1.2 L2.2 1.5" fill="none" stroke="#000000" stroke-linecap="round" stroke-linejoin="round" stroke-width="0.4"/>
    <path d="M-0.1 0.0 Q-0.1 2.9 -2.0 2.9 -3.85 2.9 -3.85 0.0 -3.85 -2.95 -2.0 -2.95 -0.1 -2.95 -0.1 0.0" fill="#fd923b" fill-rule="evenodd" stroke="none"/>
    <path d="M-0.1 0.0 Q-0.1 2.9 -2.0 2.9 -3.85 2.9 -3.85 0.0 -3.85 -2.95 -2.0 -2.95 -0.1 -2.95 -0.1 0.0 Z" fill="none" stroke="#000000" stroke-linecap="round" stroke-linejoin="round" stroke-width="0.4"/>
    <path d="M-1.5 0.0 Q-1.5 0.6 -2.1 0.6 -2.65 0.6 -2.65 0.0 -2.65 -0.6 -2.1 -0.6 -1.5 -0.6 -1.5 0.0" fill="#000000" fill-rule="evenodd" stroke="none"/>
    <path d="M3.85 0.0 Q3.85 2.9 1.95 2.9 0.0 2.9 0.0 0.0 0.0 -2.95 1.95 -2.95 3.85 -2.95 3.85 0.0" fill="#fd923b" fill-rule="evenodd" stroke="none"/>
    <path d="M3.85 0.0 Q3.85 2.9 1.95 2.9 0.0 2.9 0.0 0.0 0.0 -2.95 1.95 -2.95 3.85 -2.95 3.85 0.0 Z" fill="none" stroke="#000000" stroke-linecap="round" stroke-linejoin="round" stroke-width="0.4"/>
    <path d="M2.45 0.0 Q2.45 0.6 1.9 0.6 1.3 0.6 1.3 0.0 1.3 -0.6 1.9 -0.6 2.45 -0.6 2.45 0.0" fill="#000000" fill-rule="evenodd" stroke="none"/>
    <path d="M-7.95 1.2 Q-10.15 4.2 -13.95 4.9 -14.8 2.65 -12.45 0.25 L-9.95 -1.7 -7.95 1.2" fill="#73420d" fill-rule="evenodd" stroke="none"/>
    <path d="M-10.0 -1.7 L-12.45 0.2 Q-14.8 2.6 -13.95 4.85 -10.15 4.2 -7.95 1.2" fill="none" stroke="#000000" stroke-linecap="round" stroke-linejoin="round" stroke-width="0.4"/>
  </g>
</svg>
