<?xml version="1.0" encoding="UTF-8" standalone="no"?>
<svg xmlns:xlink="http://www.w3.org/1999/xlink" height="4.85px" width="21.55px" xmlns="http://www.w3.org/2000/svg">
  <g transform="matrix(1.0, 0.0, 0.0, 1.0, 16.2, 2.55)">
    <path d="M3.5 0.65 L3.2 0.8 Q2.6 1.1 3.45 0.55 L3.5 0.65" fill="#905b22" fill-rule="evenodd" stroke="none"/>
    <path d="M1.4 -2.3 Q5.25 -2.7 5.15 -0.4 L3.5 0.65 3.45 0.55 1.4 -2.3" fill="#73420d" fill-rule="evenodd" stroke="none"/>
    <path d="M1.4 -2.3 Q5.25 -2.7 5.15 -0.4 L3.5 0.65 3.2 0.8 M3.45 1.5 Q3.0 2.1 2.0 2.1 0.1 2.1 0.05 0.2 -0.15 2.1 -1.95 2.1 -3.8 2.1 -3.85 0.2" fill="none" stroke="#000000" stroke-linecap="round" stroke-linejoin="round" stroke-width="0.4"/>
    <path d="M-11.85 -2.0 L-8.7 -1.9 -9.05 1.65 Q-12.6 2.55 -15.95 0.6 -15.2 -1.65 -11.85 -2.0" fill="#73420d" fill-rule="evenodd" stroke="none"/>
    <path d="M-8.65 -1.9 L-11.85 -2.0 Q-15.15 -1.65 -16.0 0.65 -12.6 2.55 -9.0 1.6" fill="none" stroke="#000000" stroke-linecap="round" stroke-linejoin="round" stroke-width="0.4"/>
  </g>
</svg>
