<?xml version="1.0" encoding="UTF-8" standalone="no"?>
<svg xmlns:xlink="http://www.w3.org/1999/xlink" height="23.0px" width="12.5px" xmlns="http://www.w3.org/2000/svg">
  <g transform="matrix(1.0, 0.0, 0.0, 1.0, 65.75, 14.45)">
    <path d="M-56.75 -12.3 L-56.0 -11.95 Q-55.4 -11.55 -55.7 -10.05 -55.9 -7.65 -54.65 -0.75 -53.45 6.15 -53.45 7.55 -54.35 8.5 -55.2 8.35 -55.1 7.8 -55.55 2.25 -56.0 -3.35 -57.9 -7.35 -57.4 -11.8 -56.75 -12.3" fill="#ff7000" fill-rule="evenodd" stroke="none"/>
    <path d="M-56.75 -12.3 L-56.0 -11.95 Q-55.4 -11.55 -55.7 -10.05 -55.9 -7.65 -54.65 -0.75 -53.45 6.15 -53.45 7.55 -54.35 8.5 -55.2 8.35 -55.1 7.8 -55.55 2.25 -56.0 -3.35 -57.9 -7.35 -57.4 -11.8 -56.75 -12.3 Z" fill="none" stroke="#000000" stroke-linecap="round" stroke-linejoin="round" stroke-width="0.4"/>
    <path d="M-63.6 -14.2 Q-65.0 -13.65 -65.2 -12.45 L-65.35 -11.1 Q-64.45 -12.75 -63.1 -13.2 L-61.6 -13.6 Q-62.15 -14.0 -63.6 -14.2 L-62.95 -14.25 -61.05 -13.55 Q-60.35 -13.2 -60.25 -10.35 L-60.45 -5.4 -64.2 -5.4 Q-63.05 -7.35 -63.45 -9.0 -63.85 -10.9 -64.5 -11.0 L-65.55 -10.8 Q-65.6 -13.85 -63.6 -14.2" fill="#ff7f00" fill-rule="evenodd" stroke="none"/>
    <path d="M-63.6 -14.2 Q-62.15 -14.0 -61.6 -13.6 L-63.1 -13.2 Q-64.45 -12.75 -65.35 -11.1 L-65.2 -12.45 Q-65.0 -13.65 -63.6 -14.2" fill="#e66500" fill-rule="evenodd" stroke="none"/>
    <path d="M-63.6 -14.2 Q-65.6 -13.85 -65.55 -10.8 L-64.5 -11.0 Q-63.85 -10.9 -63.45 -9.0 -63.05 -7.35 -64.2 -5.4 M-60.45 -5.4 L-60.25 -10.35 Q-60.35 -13.2 -61.05 -13.55 L-62.95 -14.25 -63.6 -14.2 Z" fill="none" stroke="#000000" stroke-linecap="round" stroke-linejoin="round" stroke-width="0.4"/>
  </g>
</svg>
