<?xml version="1.0" encoding="UTF-8" standalone="no"?>
<svg xmlns:xlink="http://www.w3.org/1999/xlink" height="66.75px" width="44.7px" xmlns="http://www.w3.org/2000/svg">
  <g transform="matrix(1.0, 0.0, 0.0, 1.0, 36.25, 33.35)">
    <path d="M-23.45 -9.1 L-23.55 -5.85 Q-23.85 -1.95 -24.8 1.65 -27.7 13.1 -35.35 16.7 -37.7 11.05 -33.95 1.25 -30.5 -7.8 -26.55 -10.25 L-23.45 -9.1" fill="#b6b5b4" fill-rule="evenodd" stroke="none"/>
    <path d="M1.15 -24.8 L5.65 -21.7 1.8 -18.45 1.15 -24.8" fill="#f07e4b" fill-rule="evenodd" stroke="none"/>
    <path d="M-9.5 32.1 Q-12.45 29.15 -5.5 27.55 L2.1 26.5 0.75 28.35 5.85 27.0 3.9 29.5 8.45 28.15 Q4.7 33.55 -2.75 33.4 L-9.5 32.1" fill="#f07e4b" fill-rule="evenodd" stroke="none"/>
    <path d="M-18.7 30.9 Q-21.95 30.65 -25.3 29.15 -32.1 26.05 -33.15 19.5 L-29.65 22.65 -30.3 19.6 -26.3 23.0 -26.7 20.8 Q-12.4 28.7 -18.7 30.9" fill="#f07e4b" fill-rule="evenodd" stroke="none"/>
    <path d="M-24.35 -12.85 Q-30.05 -5.45 -30.05 4.8 -30.05 15.25 -24.3 22.6 -18.45 30.0 -10.35 30.0 -4.2 30.0 0.9 25.55 -4.9 33.0 -13.2 33.0 -21.3 33.0 -27.15 25.65 -32.9 18.35 -32.9 7.9 -32.9 -5.3 -24.35 -12.85" fill="#c8c8c5" fill-rule="evenodd" stroke="none"/>
    <path d="M-13.2 -17.25 Q-5.0 -17.25 0.8 -9.95 6.6 -2.55 6.6 7.9 6.6 18.15 0.9 25.55 -4.2 30.0 -10.35 30.0 -18.45 30.0 -24.3 22.6 -30.05 15.25 -30.05 4.8 -30.05 -5.45 -24.35 -12.85 -19.3 -17.25 -13.2 -17.25" fill="#ffffff" fill-rule="evenodd" stroke="none"/>
    <path d="M-20.55 -25.5 Q-22.1 -20.45 -19.6 -15.7 -17.2 -10.95 -12.05 -9.4 -7.3 -7.85 -2.65 -10.05 -7.9 -6.15 -14.15 -8.1 -19.25 -9.7 -21.75 -14.4 -24.25 -19.15 -22.6 -24.3 -20.95 -29.6 -15.85 -32.1 -19.25 -29.55 -20.55 -25.5" fill="#c8c8c5" fill-rule="evenodd" stroke="none"/>
    <path d="M-6.4 -32.75 Q-1.3 -31.15 1.2 -26.45 3.6 -21.7 2.05 -16.55 0.75 -12.6 -2.65 -10.05 -7.3 -7.85 -12.05 -9.4 -17.2 -10.95 -19.6 -15.7 -22.1 -20.45 -20.55 -25.5 -19.25 -29.55 -15.85 -32.1 -11.2 -34.25 -6.4 -32.75" fill="#ffffff" fill-rule="evenodd" stroke="none"/>
  </g>
</svg>
