<?xml version="1.0" encoding="UTF-8" standalone="no"?>
<svg xmlns:xlink="http://www.w3.org/1999/xlink" height="338.1px" width="314.75px" xmlns="http://www.w3.org/2000/svg">
  <g transform="matrix(1.0, 0.0, 0.0, 1.0, 311.8, 169.05)">
    <path d="M1.6 -127.6 L2.95 25.0 0.25 26.65 -6.05 -129.8 1.6 -127.6" fill="#545454" fill-rule="evenodd" stroke="none"/>
    <path d="M-12.9 -129.15 L-6.05 -129.8 0.25 26.65 -3.6 25.15 -12.9 -129.15" fill="#000000" fill-rule="evenodd" stroke="none"/>
    <path d="M-90.65 -126.5 L-71.55 -126.2 -70.9 -89.05 -90.65 -88.15 -90.65 -126.5 M-54.0 -126.4 L-38.9 -126.95 -38.4 -94.35 -24.25 -96.25 -24.25 -67.15 -38.35 -62.95 -38.1 -94.05 -53.75 -91.8 -54.0 -126.4 M-24.4 -127.85 L-11.55 -129.0 -11.55 -100.3 -23.35 -96.95 -24.4 -127.85 M0.0 -101.75 L0.0 -75.15 -10.8 -71.45 -9.75 -99.95 0.0 -101.75 M-54.65 -58.45 L-71.65 -54.15 -70.9 -89.05 -70.9 -88.45 -54.65 -90.65 -54.65 -58.45 M-91.75 -49.55 L-112.8 -45.3 -112.8 -86.1 -90.65 -87.25 -91.75 -49.55 M-138.2 -40.85 L-164.5 -37.0 -164.5 -84.0 -196.95 -83.1 -198.7 -33.1 -235.65 -30.15 -235.65 -86.95 -196.95 -83.7 -196.95 -135.4 -165.65 -131.65 -165.65 -84.9 -137.9 -85.2 -138.2 -40.85 M-281.1 -90.2 L-281.1 -148.95 Q-257.8 -144.6 -235.65 -141.05 L-235.65 -87.55 -281.1 -90.2 M-136.75 -129.0 L-112.8 -127.4 -112.8 -86.35 -136.75 -85.55 -136.75 -129.0" fill="#000000" fill-rule="evenodd" stroke="none"/>
    <path d="M-90.65 -126.5 L-90.65 -88.15 -70.9 -89.05 -71.55 -126.2 -54.0 -126.4 -53.75 -91.8 -38.1 -94.05 -38.35 -62.95 -54.65 -58.45 -54.65 -90.65 -70.9 -88.45 -70.9 -89.05 -71.65 -54.15 -91.75 -49.55 -90.65 -87.25 -112.8 -86.1 -112.8 -45.3 -138.2 -40.85 -137.9 -85.2 -165.65 -84.9 -165.65 -131.65 -136.75 -129.0 -136.75 -85.55 -112.8 -86.35 -112.8 -127.4 -90.65 -126.5 M-38.9 -126.95 L-24.4 -127.85 -23.35 -96.95 -11.55 -100.3 -11.55 -129.0 -11.55 -129.5 0.0 -130.35 0.0 -101.75 -9.75 -99.95 -10.8 -71.45 -24.25 -67.15 -24.25 -96.25 -38.4 -94.35 -38.9 -126.95 M-164.5 -37.0 L-166.25 -36.75 -185.1 -34.5 -198.75 -32.35 -198.7 -33.1 -196.95 -83.1 -164.5 -84.0 -164.5 -37.0 M-235.65 -30.15 L-235.65 -29.7 -281.1 -22.6 -281.1 -90.2 -235.65 -87.55 -235.65 -141.05 -235.65 -141.6 -196.95 -135.4 -196.95 -83.7 -235.65 -86.95 -235.65 -30.15" fill="#ffffff" fill-rule="evenodd" stroke="none"/>
    <path d="M-280.5 -164.35 L-277.55 165.5 -283.45 169.05 -297.05 -169.05 -280.5 -164.35" fill="#545454" fill-rule="evenodd" stroke="none"/>
    <path d="M-311.8 -167.6 L-297.05 -169.05 -283.45 169.05 -291.75 165.8 -311.8 -167.6" fill="#000000" fill-rule="evenodd" stroke="none"/>
  </g>
</svg>
