<?xml version="1.0" encoding="UTF-8" standalone="no"?>
<svg xmlns:xlink="http://www.w3.org/1999/xlink" height="60.25px" width="42.65px" xmlns="http://www.w3.org/2000/svg">
  <g transform="matrix(1.0, 0.0, 0.0, 1.0, 338.15, 81.95)">
    <path d="M-317.15 -66.0 L-324.8 -38.25 Q-324.5 -27.3 -332.8 -21.7 -348.7 -48.6 -317.15 -66.0" fill="#cfa67c" fill-rule="evenodd" stroke="none"/>
    <path d="M-315.05 -67.45 Q-310.95 -31.15 -325.1 -22.3 -324.5 -32.35 -331.3 -36.75 L-315.05 -67.45" fill="#cfa67c" fill-rule="evenodd" stroke="none"/>
    <path d="M-314.45 -69.25 Q-290.85 -36.15 -325.1 -35.0 -352.25 -34.1 -314.45 -69.25" fill="#e7b98a" fill-rule="evenodd" stroke="none"/>
    <path d="M-316.85 -65.7 Q-325.7 -84.0 -309.75 -75.15 -301.2 -70.15 -304.45 -65.1 -307.7 -66.3 -308.25 -66.0 -306.8 -62.75 -307.1 -62.45 L-310.35 -61.25 Q-312.7 -61.0 -316.85 -65.7" fill="#e7b98a" fill-rule="evenodd" stroke="none"/>
    <path d="M-308.85 -66.6 Q-305.9 -66.6 -304.75 -70.7 L-297.35 -54.5 -308.85 -66.6" fill="#ff7f00" fill-rule="evenodd" stroke="none"/>
    <path d="M-308.55 -66.6 L-300.0 -55.65 Q-305.6 -51.55 -308.25 -55.65 -315.65 -67.2 -308.55 -66.6" fill="#ff7f00" fill-rule="evenodd" stroke="none"/>
    <path d="M-298.8 -31.75 Q-305.0 -29.95 -329.8 -28.8 L-329.55 -38.25 -300.6 -39.7 Q-297.05 -40.0 -295.85 -36.45 -294.4 -33.2 -298.8 -31.75" fill="#545454" fill-rule="evenodd" stroke="none"/>
    <path d="M-324.8 -33.5 Q-324.8 -29.4 -329.25 -28.8 -334.25 -28.2 -334.25 -33.2 -334.25 -38.25 -329.25 -38.25 -324.8 -38.25 -324.8 -33.5" fill="#000000" fill-rule="evenodd" stroke="none"/>
    <path d="M-320.95 -37.95 Q-320.95 -46.8 -315.95 -39.7 -311.2 -32.65 -317.4 -30.25 -317.15 -39.4 -320.95 -37.95" fill="#cc6600" fill-rule="evenodd" stroke="none"/>
    <path d="M-322.75 -37.95 Q-321.25 -46.5 -317.7 -38.85 -313.9 -31.15 -320.4 -29.95 -318.6 -38.85 -322.75 -37.95" fill="#e67300" fill-rule="evenodd" stroke="none"/>
    <path d="M-324.5 -37.95 Q-321.85 -46.5 -319.5 -38.25 -316.85 -29.95 -323.35 -29.7 -320.4 -38.25 -324.5 -37.95" fill="#ff7f00" fill-rule="evenodd" stroke="none"/>
    <path d="M-310.05 -39.15 Q-309.75 -48.0 -305.0 -40.6 -300.3 -33.5 -306.5 -31.45 -306.2 -40.6 -310.05 -39.15" fill="#cc6600" fill-rule="evenodd" stroke="none"/>
    <path d="M-311.8 -39.15 Q-310.35 -47.7 -306.8 -40.0 -302.95 -32.05 -309.15 -30.85 -307.7 -40.0 -311.8 -39.15" fill="#e67300" fill-rule="evenodd" stroke="none"/>
    <path d="M-313.6 -39.15 Q-310.65 -47.4 -308.25 -39.15 -305.9 -30.85 -312.4 -30.85 -309.45 -39.4 -313.6 -39.15" fill="#ff7f00" fill-rule="evenodd" stroke="none"/>
    <path d="M-314.2 -77.2 L-317.7 -76.9 Q-317.7 -78.7 -322.45 -81.95 -317.4 -81.05 -314.2 -77.2" fill="#cfa67c" fill-rule="evenodd" stroke="none"/>
    <path d="M-315.65 -77.5 Q-318.6 -77.2 -318.9 -75.75 -321.85 -78.7 -325.1 -79.6 -320.1 -80.15 -315.65 -77.5" fill="#cfa67c" fill-rule="evenodd" stroke="none"/>
  </g>
</svg>
