<?xml version="1.0" encoding="UTF-8" standalone="no"?>
<svg xmlns:xlink="http://www.w3.org/1999/xlink" height="33.4px" width="23.65px" xmlns="http://www.w3.org/2000/svg">
  <g transform="matrix(1.0, 0.0, 0.0, 1.0, 25.75, 22.65)">
    <path d="M-8.45 -14.45 L-18.3 10.75 -24.45 6.45 -18.95 3.3 -25.75 -0.75 -20.5 -3.25 -21.3 -4.1 -23.25 -6.3 -25.75 -9.4 -22.7 -8.85 -20.9 -9.0 -19.55 -9.3 Q-21.2 -10.5 -22.15 -12.45 -23.05 -14.45 -23.25 -16.75 -21.75 -15.0 -20.5 -14.5 L-18.45 -14.1 -17.65 -14.2 -17.95 -15.7 Q-18.1 -17.1 -17.85 -19.05 -17.55 -21.0 -16.1 -22.65 -16.05 -20.2 -15.4 -19.1 -14.8 -18.0 -14.2 -17.75 -13.55 -17.45 -13.5 -17.5 L-13.05 -18.2 -11.3 -19.7 Q-10.05 -20.55 -7.8 -21.2 L-2.1 -21.85 Q-5.0 -20.5 -6.35 -19.15 -7.8 -17.85 -8.2 -16.8 L-8.55 -15.1 -8.45 -14.45" fill="#f7df15" fill-rule="evenodd" stroke="none"/>
    <path d="M-8.45 -14.45 L-18.3 10.75 -24.45 6.45 -18.95 3.3 -25.75 -0.75 -20.5 -3.25 -21.3 -4.1 -23.25 -6.3 -25.75 -9.4 -22.7 -8.85 -20.9 -9.0 -19.55 -9.3 Q-21.2 -10.5 -22.15 -12.45 -23.05 -14.45 -23.25 -16.75 -21.75 -15.0 -20.5 -14.5 L-18.45 -14.1 -17.65 -14.2 -17.95 -15.7 Q-18.1 -17.1 -17.85 -19.05 -17.55 -21.0 -16.1 -22.65 -16.05 -20.2 -15.4 -19.1 -14.8 -18.0 -14.2 -17.75 -13.55 -17.45 -13.5 -17.5 L-13.05 -18.2 -11.3 -19.7 Q-10.05 -20.55 -7.8 -21.2 L-2.1 -21.85 Q-5.0 -20.5 -6.35 -19.15 -7.8 -17.85 -8.2 -16.8 L-8.55 -15.1 -8.45 -14.45 Z" fill="none" stroke="#2d4e1f" stroke-linecap="round" stroke-linejoin="round" stroke-width="0.05"/>
  </g>
</svg>
