<?xml version="1.0" encoding="UTF-8" standalone="no"?>
<svg xmlns:xlink="http://www.w3.org/1999/xlink" height="51.1px" width="59.3px" xmlns="http://www.w3.org/2000/svg">
  <g transform="matrix(1.0, 0.0, 0.0, 1.0, 14.6, 25.7)">
    <path d="M7.25 9.3 L7.35 9.25 7.4 9.35 7.25 9.3" fill="#648e4c" fill-rule="evenodd" stroke="none"/>
    <path d="M6.6 7.9 Q5.1 7.45 3.45 5.3 L2.1 3.2 3.6 4.1 Q5.25 5.4 6.6 7.9 M36.0 0.95 Q37.35 -3.25 39.65 -2.55 41.95 -1.8 40.6 2.45 39.15 6.65 36.9 5.9 34.55 5.15 36.0 0.95 M21.05 8.75 Q18.85 9.2 18.05 5.15 17.25 1.15 19.4 0.7 21.55 0.25 22.45 4.3 23.25 8.3 21.05 8.75" fill="#000000" fill-rule="evenodd" stroke="none"/>
    <path d="M39.85 8.2 Q37.95 15.25 35.7 16.65 35.9 14.35 34.7 11.5 L34.3 10.7 35.15 10.8 37.25 10.55 39.85 8.2 M21.75 13.75 L21.85 13.75 20.6 16.15 Q19.4 19.0 19.6 21.3 18.2 20.45 16.7 17.05 18.35 16.5 20.9 14.4 L21.75 13.75" fill="#ffffff" fill-rule="evenodd" stroke="none"/>
    <path d="M17.5 -4.6 Q15.9 -3.75 14.45 -2.45 15.9 -3.75 17.5 -4.6 22.9 -7.7 30.15 -6.2 34.55 -8.25 37.2 -8.4 38.9 -8.5 41.2 -7.6 45.75 -5.85 44.35 0.1 43.35 4.5 39.85 8.2 L37.25 10.55 35.15 10.8 34.3 10.7 31.65 10.45 Q26.5 10.3 21.75 13.75 L20.9 14.4 Q18.35 16.5 16.7 17.05 L15.4 17.25 Q12.0 16.85 7.4 9.35 L7.35 9.25 7.25 9.3 Q3.05 8.7 2.0 11.6 L1.9 10.0 -11.85 25.4 Q-11.2 15.3 -12.75 7.55 -14.45 1.0 -14.55 -1.6 -15.25 -20.55 -8.4 -24.15 -3.9 -26.85 0.0 -24.8 4.2 -22.65 9.6 -14.1 13.8 -7.35 16.8 -5.1 L17.5 -4.6 M6.6 7.9 L7.1 8.85 7.35 9.25 7.1 8.85 6.6 7.9 Q5.25 5.4 3.6 4.1 L2.1 3.2 3.45 5.3 Q5.1 7.45 6.6 7.9 M-9.75 -5.85 Q-5.8 0.05 -0.15 2.2 L2.1 3.2 -0.15 2.2 Q-5.8 0.05 -9.75 -5.85 M21.05 8.75 Q23.25 8.3 22.45 4.3 21.55 0.25 19.4 0.7 17.25 1.15 18.05 5.15 18.85 9.2 21.05 8.75 M36.0 0.95 Q34.55 5.15 36.9 5.9 39.15 6.65 40.6 2.45 41.95 -1.8 39.65 -2.55 37.35 -3.25 36.0 0.95" fill="#4c8335" fill-rule="evenodd" stroke="none"/>
    <path d="M14.45 -2.45 Q15.9 -3.75 17.5 -4.6 L16.8 -5.1 Q13.8 -7.35 9.6 -14.1 4.2 -22.65 0.0 -24.8 -3.9 -26.85 -8.4 -24.15 -15.25 -20.55 -14.55 -1.6 -14.45 1.0 -12.75 7.55 -11.2 15.3 -11.85 25.4 M2.0 11.6 Q3.05 8.7 7.25 9.3 M7.35 9.25 L7.1 8.85 6.6 7.9 Q5.25 5.4 3.6 4.1 L2.1 3.2 -0.15 2.2 Q-5.8 0.05 -9.75 -5.85 M17.5 -4.6 Q22.9 -7.7 30.15 -6.2 34.55 -8.25 37.2 -8.4 38.9 -8.5 41.2 -7.6 45.75 -5.85 44.35 0.1 43.35 4.5 39.85 8.2 37.95 15.25 35.7 16.65 35.9 14.35 34.7 11.5 L34.3 10.7 31.65 10.45 Q26.5 10.3 21.75 13.75 L20.9 14.4 Q18.35 16.5 16.7 17.05 L15.4 17.25 Q12.0 16.85 7.4 9.35 L7.25 9.3 M21.85 13.75 L20.6 16.15 Q19.4 19.0 19.6 21.3 18.2 20.45 16.7 17.05 M39.85 8.2 L37.25 10.55 35.15 10.8 34.3 10.7 M7.4 9.35 L7.35 9.25" fill="none" stroke="#000000" stroke-linecap="round" stroke-linejoin="round" stroke-width="0.05"/>
  </g>
</svg>
