<?xml version="1.0" encoding="UTF-8" standalone="no"?>
<svg xmlns:xlink="http://www.w3.org/1999/xlink" height="51.1px" width="59.05px" xmlns="http://www.w3.org/2000/svg">
  <g transform="matrix(1.0, 0.0, 0.0, 1.0, 14.6, 25.7)">
    <path d="M2.25 -2.05 L2.05 -2.05 0.95 -2.15 2.25 -2.05 M6.5 7.8 L6.3 6.4 6.65 7.85 6.5 7.8 M5.0 0.1 L4.2 -1.0 3.95 -1.25 3.05 -1.85 3.65 -1.65 5.35 -0.45 5.0 0.1 M39.25 0.8 L40.35 -0.35 39.85 0.2 39.25 0.8" fill="#648e4c" fill-rule="evenodd" stroke="none"/>
    <path d="M0.95 -2.15 L2.05 -2.05 2.25 -2.05 3.0 -1.9 2.25 -2.05 2.35 -2.05 3.0 -1.9 3.05 -1.85 3.95 -1.25 4.2 -1.0 5.0 0.1 5.1 0.35 Q6.0 2.2 6.0 3.8 L6.3 6.4 6.5 7.8 6.5 7.85 Q6.65 10.8 4.85 10.6 3.85 10.45 0.5 6.85 L-1.1 4.95 -5.7 -1.35 Q-6.1 -1.95 -5.45 -2.2 L-5.3 -2.15 -0.75 -2.05 0.85 -2.15 0.95 -2.15 M19.5 -6.85 Q21.7 -7.3 22.5 -3.25 23.3 0.75 21.15 1.2 18.9 1.65 18.15 -2.35 17.25 -6.4 19.5 -6.85 M36.05 -6.6 Q37.45 -10.85 39.7 -10.1 42.0 -9.3 40.65 -5.1 39.3 -0.85 36.95 -1.6 34.7 -2.3 36.05 -6.6" fill="#000000" fill-rule="evenodd" stroke="none"/>
    <path d="M15.65 8.55 Q18.35 8.45 20.7 6.6 L21.6 5.95 20.7 7.65 Q19.5 10.5 19.7 12.8 18.25 11.95 16.75 10.05 L15.65 8.55 M34.55 2.95 L34.85 3.0 34.9 3.0 37.0 2.8 37.35 2.5 39.25 0.8 39.85 0.2 Q37.9 7.8 35.75 9.1 35.95 6.8 34.75 3.45 L34.55 3.0 34.55 2.95 M34.55 3.0 L34.85 3.0 34.55 3.0" fill="#ffffff" fill-rule="evenodd" stroke="none"/>
    <path d="M0.95 -2.15 L0.85 -2.15 -0.75 -2.05 -5.3 -2.15 -5.45 -2.2 Q-6.1 -1.95 -5.7 -1.35 L-1.1 4.95 0.5 6.85 Q3.85 10.45 4.85 10.6 6.65 10.8 6.5 7.85 L6.5 7.8 6.65 7.85 Q7.6 12.15 6.8 12.3 6.55 12.35 3.0 10.8 1.4 10.05 0.8 11.5 0.0 10.85 -6.0 18.05 L-11.85 25.4 Q-11.2 15.3 -12.75 7.55 -14.45 1.0 -14.55 -1.6 -15.25 -20.55 -8.4 -24.15 -3.9 -26.85 0.0 -24.8 4.2 -22.65 9.6 -14.1 11.45 -11.1 15.35 -10.15 22.25 -15.55 29.9 -14.0 34.35 -16.05 36.95 -16.2 38.65 -16.3 40.95 -15.4 45.55 -13.65 44.1 -7.65 L44.1 -7.5 44.05 -7.35 44.0 -7.2 43.95 -7.05 43.9 -6.9 40.35 -0.35 39.25 0.8 37.35 2.5 37.0 2.8 34.9 3.0 34.85 3.0 34.55 2.95 32.7 2.8 31.6 2.65 31.4 2.65 Q26.35 2.5 21.6 5.95 L20.7 6.6 Q18.35 8.45 15.65 8.55 11.1 8.75 7.85 3.3 6.7 0.9 5.35 -0.45 L3.65 -1.65 3.05 -1.85 3.0 -1.9 2.35 -2.05 2.25 -2.05 0.95 -2.15 M13.85 -8.95 L15.35 -10.15 13.85 -8.95 M19.5 -6.85 Q17.25 -6.4 18.15 -2.35 18.9 1.65 21.15 1.2 23.3 0.75 22.5 -3.25 21.7 -7.3 19.5 -6.85 M36.05 -6.6 Q34.7 -2.3 36.95 -1.6 39.3 -0.85 40.65 -5.1 42.0 -9.3 39.7 -10.1 37.45 -10.85 36.05 -6.6 M-10.1 -6.1 Q-8.0 -2.95 -5.45 -2.2 -8.0 -2.95 -10.1 -6.1" fill="#4c8335" fill-rule="evenodd" stroke="none"/>
    <path d="M0.95 -2.15 L0.85 -2.15 -0.75 -2.05 -5.3 -2.15 -5.45 -2.2 Q-8.0 -2.95 -10.1 -6.1 M4.2 -1.0 L3.95 -1.25 M3.05 -1.85 L3.0 -1.9 2.25 -2.05 0.95 -2.15 M3.05 -1.85 L3.65 -1.65 5.35 -0.45 Q6.7 0.9 7.85 3.3 11.1 8.75 15.65 8.55 18.35 8.45 20.7 6.6 L21.6 5.95 Q26.35 2.5 31.4 2.65 L31.6 2.65 32.7 2.8 M34.85 3.0 L34.9 3.0 37.0 2.8 37.35 2.5 39.25 0.8 40.35 -0.35 43.9 -6.9 43.95 -7.05 44.0 -7.2 44.05 -7.35 44.1 -7.5 44.1 -7.65 Q45.55 -13.65 40.95 -15.4 38.65 -16.3 36.95 -16.2 34.35 -16.05 29.9 -14.0 22.25 -15.55 15.35 -10.15 L13.85 -8.95 M-11.85 25.4 Q-11.2 15.3 -12.75 7.55 -14.45 1.0 -14.55 -1.6 -15.25 -20.55 -8.4 -24.15 -3.9 -26.85 0.0 -24.8 4.2 -22.65 9.6 -14.1 11.45 -11.1 15.35 -10.15 M34.85 3.0 L34.55 3.0 34.75 3.45 Q35.95 6.8 35.75 9.1 37.9 7.8 39.85 0.2 M34.55 3.0 L34.55 2.95 M34.55 3.0 L32.7 2.8 M21.6 5.95 L20.7 7.65 Q19.5 10.5 19.7 12.8 18.25 11.95 16.75 10.05 L15.65 8.55 M6.65 7.85 Q7.6 12.15 6.8 12.3 6.55 12.35 3.0 10.8 1.4 10.05 0.8 11.5 L0.5 12.85 M6.65 7.85 L6.3 6.4" fill="none" stroke="#000000" stroke-linecap="round" stroke-linejoin="round" stroke-width="0.05"/>
  </g>
</svg>
