<?xml version="1.0" encoding="UTF-8" standalone="no"?>
<svg xmlns:xlink="http://www.w3.org/1999/xlink" height="9.35px" width="15.65px" xmlns="http://www.w3.org/2000/svg">
  <g transform="matrix(1.0, 0.0, 0.0, 1.0, 0.0, 0.0)">
    <path d="M15.55 3.95 Q15.85 5.85 15.1 7.3 14.4 8.7 13.05 9.0 11.65 9.2 10.55 8.1 9.4 6.95 9.05 5.05 8.75 3.15 9.45 1.75 10.15 0.3 11.5 0.0 12.9 -0.15 14.05 0.95 15.15 2.05 15.55 3.95" fill="#ffffff" fill-rule="evenodd" stroke="none"/>
    <path d="M15.55 3.95 Q15.85 5.85 15.1 7.3 14.4 8.7 13.05 9.0 11.65 9.2 10.55 8.1 9.4 6.95 9.05 5.05 8.75 3.15 9.45 1.75 10.15 0.3 11.5 0.0 12.9 -0.15 14.05 0.95 15.15 2.05 15.55 3.95 Z" fill="none" stroke="#223c17" stroke-linecap="round" stroke-linejoin="round" stroke-width="0.05"/>
    <path d="M12.35 4.35 L12.2 5.1 11.6 5.5 Q10.7 5.55 10.45 4.65 10.4 4.25 10.6 3.9 L11.25 3.5 Q11.65 3.45 11.95 3.7 12.25 3.9 12.35 4.35" fill="#000000" fill-rule="evenodd" stroke="none"/>
    <path d="M6.6 5.15 Q6.4 7.05 5.35 8.25 4.3 9.45 2.9 9.35 1.5 9.2 0.7 7.85 -0.15 6.45 0.0 4.55 0.2 2.6 1.25 1.4 2.3 0.2 3.7 0.3 5.1 0.45 5.9 1.85 6.7 3.2 6.6 5.15" fill="#ffffff" fill-rule="evenodd" stroke="none"/>
    <path d="M6.6 5.15 Q6.4 7.05 5.35 8.25 4.3 9.45 2.9 9.35 1.5 9.2 0.7 7.85 -0.15 6.45 0.0 4.55 0.2 2.6 1.25 1.4 2.3 0.2 3.7 0.3 5.1 0.45 5.9 1.85 6.7 3.2 6.6 5.15 Z" fill="none" stroke="#223c17" stroke-linecap="round" stroke-linejoin="round" stroke-width="0.05"/>
    <path d="M3.35 5.0 Q3.15 5.9 2.3 5.9 L1.65 5.55 1.45 4.8 Q1.6 3.9 2.5 3.9 2.9 3.95 3.1 4.25 L3.35 5.0" fill="#000000" fill-rule="evenodd" stroke="none"/>
  </g>
</svg>
