<?xml version="1.0" encoding="UTF-8" standalone="no"?>
<svg xmlns:xlink="http://www.w3.org/1999/xlink" height="36.65px" width="19.25px" xmlns="http://www.w3.org/2000/svg">
  <g transform="matrix(1.0, 0.0, 0.0, 1.0, 9.65, 18.3)">
    <path d="M-9.25 -16.6 L1.25 -17.9 Q1.6 -4.4 5.15 3.65 8.4 11.0 9.2 11.85 L4.15 7.75 6.95 15.5 2.05 9.45 4.4 17.95 Q-2.45 7.05 -5.85 -4.3 -9.25 -15.7 -9.25 -16.6" fill="#4c8335" fill-rule="evenodd" stroke="none"/>
    <path d="M-9.25 -16.6 Q-9.25 -15.7 -5.85 -4.3 -2.45 7.05 4.4 17.95 L2.05 9.45 6.95 15.5 4.15 7.75 9.2 11.85 Q8.4 11.0 5.15 3.65 1.6 -4.4 1.25 -17.9" fill="none" stroke="#000000" stroke-linecap="round" stroke-linejoin="round" stroke-width="0.8"/>
  </g>
</svg>
