<?xml version="1.0" encoding="UTF-8" standalone="no"?>
<svg xmlns:xlink="http://www.w3.org/1999/xlink" height="3.5px" width="3.5px" xmlns="http://www.w3.org/2000/svg">
  <g transform="matrix(1.0, 0.0, 0.0, 1.0, 5.25, -18.65)">
    <path d="M-4.35 21.65 L-5.0 20.75 Q-5.15 20.15 -4.85 19.6 -4.6 19.1 -3.95 18.95 L-2.85 19.05 Q-2.3 19.35 -2.1 20.0 -2.0 20.6 -2.25 21.1 L-3.15 21.8 -4.35 21.65" fill="url(#gradient0)" fill-rule="evenodd" stroke="none"/>
    <path d="M-2.1 20.0 Q-2.3 19.4 -2.8 19.15 L-3.9 19.0 Q-4.5 19.15 -4.8 19.65 -5.1 20.15 -4.95 20.8 L-4.25 21.65 -3.15 21.8 -2.25 21.1 Q-1.95 20.6 -2.1 20.0 M-1.75 20.4 Q-1.8 21.1 -2.3 21.65 -2.8 22.1 -3.5 22.15 -4.25 22.1 -4.75 21.65 -5.25 21.1 -5.25 20.4 -5.25 19.65 -4.75 19.15 -4.25 18.65 -3.5 18.65 -2.8 18.65 -2.3 19.15 -1.8 19.65 -1.75 20.4" fill="#ee3f1a" fill-rule="evenodd" stroke="none"/>
    <path d="M-2.1 20.0 Q-1.95 20.6 -2.25 21.1 L-3.15 21.8 -4.25 21.65 -4.95 20.8 Q-5.1 20.15 -4.8 19.65 -4.5 19.15 -3.9 19.0 L-2.8 19.15 Q-2.3 19.4 -2.1 20.0 M-2.3 21.1 Q-2.05 20.6 -2.2 20.05 L-2.15 20.05 Q-2.35 19.45 -2.85 19.2 L-3.9 19.05 Q-4.45 19.2 -4.7 19.7 -5.0 20.2 -4.85 20.75 L-4.2 21.6 -3.15 21.75 Q-2.6 21.55 -2.3 21.1" fill="#ffffff" fill-rule="evenodd" stroke="none"/>
  </g>
  <defs>
    <linearGradient gradientTransform="matrix(0.0018, -5.0E-4, 5.0E-4, 0.0018, -3.6, 20.4)" gradientUnits="userSpaceOnUse" id="gradient0" spreadMethod="pad" x1="-819.2" x2="819.2">
      <stop offset="0.0" stop-color="#ffffff"/>
      <stop offset="1.0" stop-color="#8bd3e5"/>
    </linearGradient>
  </defs>
</svg>
