<?xml version="1.0" encoding="UTF-8" standalone="no"?>
<svg xmlns:xlink="http://www.w3.org/1999/xlink" height="58.4px" width="58.4px" xmlns="http://www.w3.org/2000/svg">
  <g transform="matrix(1.0, 0.0, 0.0, 1.0, 29.2, 29.2)">
    <path d="M23.35 -17.5 Q27.15 -12.65 28.5 -6.4 29.15 -3.35 29.15 -0.05 29.15 7.4 25.9 13.45 23.9 17.3 20.6 20.6 14.6 26.55 6.95 28.35 L0.0 29.1 -3.85 28.9 Q-13.5 27.75 -20.65 20.6 -22.9 18.35 -24.55 15.85 -28.9 9.25 -29.15 0.95 L-29.2 -0.05 Q-29.2 -11.95 -20.9 -20.4 L-20.65 -20.65 Q-13.55 -27.75 -4.0 -28.95 L0.0 -29.2 Q5.0 -29.2 9.45 -27.7 15.6 -25.65 20.6 -20.65 L23.35 -17.5" fill="#ffffff" fill-rule="evenodd" stroke="none"/>
    <path d="M-28.5 6.95 Q-29.2 4.3 -29.2 0.6 -26.75 -5.1 -24.9 -6.65 L-18.0 0.3 Q-19.3 6.95 -18.75 13.2 L-26.25 13.0 Q-27.6 10.25 -28.5 6.95 M-4.2 -28.95 L-4.2 -29.0 -4.2 -28.85 Q-7.6 -26.7 -9.4 -23.7 -15.5 -22.05 -20.2 -18.5 L-20.85 -20.25 -20.85 -20.55 -20.75 -20.55 -20.65 -20.65 Q-13.65 -27.7 -4.2 -28.95 M7.1 28.6 L7.05 28.6 7.1 28.6 M13.4 21.4 Q10.95 25.15 7.7 28.1 L7.3 28.2 7.05 28.45 0.05 29.2 -3.75 29.0 Q-6.95 25.45 -7.65 20.9 L-7.65 20.85 Q-2.1 19.8 3.7 16.35 L3.85 16.45 3.9 16.4 3.9 16.25 3.85 16.25 Q8.2 19.45 13.25 21.05 13.5 21.1 13.4 21.4 M28.55 -6.3 Q29.2 -3.25 29.2 0.05 29.2 7.45 26.0 13.55 L24.15 13.55 23.35 13.55 23.35 13.4 23.45 13.05 Q24.45 7.5 24.35 2.0 27.8 -1.45 28.55 -6.3 M-2.0 -16.75 Q4.45 -17.4 10.85 -16.05 14.05 -10.0 15.3 -4.45 L15.35 -4.45 15.5 -4.4 15.5 -4.25 15.45 -4.1 4.95 3.75 4.8 3.8 4.7 3.7 4.65 3.6 4.7 3.5 Q-0.3 -0.85 -6.45 -4.65 -4.95 -10.95 -2.0 -16.75 M16.15 -21.9 L16.0 -21.95 Q13.25 -25.15 9.75 -27.5 L9.75 -27.55 Q15.75 -25.45 20.7 -20.55 L23.45 -17.45 Q20.15 -20.25 16.15 -21.9" fill="#000000" fill-rule="evenodd" stroke="none"/>
  </g>
</svg>
