<?xml version="1.0" encoding="UTF-8" standalone="no"?>
<svg xmlns:xlink="http://www.w3.org/1999/xlink" height="17.05px" width="18.05px" xmlns="http://www.w3.org/2000/svg">
  <g transform="matrix(1.0, 0.0, 0.0, 1.0, 10.1, 8.05)">
    <path d="M-1.1 0.0 L5.9 0.0 5.9 2.0 -1.1 2.0 -1.1 9.0 -3.1 9.0 -3.1 2.0 -10.1 2.0 -10.1 0.0 -3.1 0.0 -3.1 -7.0 -1.1 -7.0 -1.1 0.0" fill="#682f0c" fill-opacity="0.39215687" fill-rule="evenodd" stroke="none"/>
    <path d="M-1.05 -8.05 L0.95 -8.05 0.95 -1.05 7.95 -1.05 7.95 0.95 0.95 0.95 0.95 7.95 -1.05 7.95 -1.05 0.95 -8.05 0.95 -8.05 -1.05 -1.05 -1.05 -1.05 -8.05" fill="#ff181b" fill-rule="evenodd" stroke="none"/>
  </g>
</svg>
