<?xml version="1.0" encoding="UTF-8" standalone="no"?>
<svg xmlns:xlink="http://www.w3.org/1999/xlink" height="17.65px" width="28.85px" xmlns="http://www.w3.org/2000/svg">
  <g transform="matrix(1.0, 0.0, 0.0, 1.0, 0.5, 0.5)">
    <path d="M10.45 9.85 L7.95 9.35 4.3 8.35 Q2.5 7.75 1.65 7.15 0.8 6.55 1.65 6.05 3.8 4.85 6.65 4.9 9.45 4.95 11.9 5.85 9.85 4.9 8.5 3.7 7.2 2.45 7.0 1.45 6.85 0.45 8.25 0.1 10.0 -0.25 12.1 0.7 14.2 1.6 16.4 3.3 L20.7 6.9 24.4 10.6 26.9 11.75 27.85 12.15 27.4 12.2 26.2 12.55 27.75 14.35 26.45 13.95 24.05 13.2 17.55 14.95 10.45 16.3 4.9 16.6 2.3 15.9 Q0.95 15.3 0.3 14.35 -0.35 13.45 0.45 12.3 0.65 11.95 1.95 11.15 3.25 10.35 5.55 9.85 7.6 9.4 10.45 9.85 L11.2 9.95 10.45 9.85" fill="#ffffff" fill-rule="evenodd" stroke="none"/>
    <path d="M10.45 9.85 Q7.6 9.4 5.55 9.85 3.25 10.35 1.95 11.15 0.65 11.95 0.45 12.3 -0.35 13.45 0.3 14.35 0.95 15.3 2.3 15.9 L4.9 16.6 10.45 16.3 17.55 14.95 24.05 13.2 26.45 13.95 27.75 14.35 26.2 12.55 27.4 12.2 27.85 12.15 26.9 11.75 24.4 10.6 20.7 6.9 16.4 3.3 Q14.2 1.6 12.1 0.7 10.0 -0.25 8.25 0.1 6.85 0.45 7.0 1.45 7.2 2.45 8.5 3.7 9.85 4.9 11.9 5.85 9.45 4.95 6.65 4.9 3.8 4.85 1.65 6.05 0.8 6.55 1.65 7.15 2.5 7.75 4.3 8.35 L7.95 9.35 10.45 9.85 11.2 9.95" fill="none" stroke="#000000" stroke-linecap="round" stroke-linejoin="round" stroke-width="1.0"/>
  </g>
</svg>
