<?xml version="1.0" encoding="UTF-8" standalone="no"?>
<svg xmlns:xlink="http://www.w3.org/1999/xlink" height="68.05px" width="90.45px" xmlns="http://www.w3.org/2000/svg">
  <g transform="matrix(1.0, 0.0, 0.0, 1.0, 0.5, 0.5)">
    <path d="M87.7 23.7 Q90.45 33.25 88.9 40.55 87.4 47.85 82.65 53.05 77.9 58.2 70.95 61.4 63.95 64.6 55.7 66.0 L39.0 67.0 Q30.55 66.65 22.85 64.75 15.15 62.85 9.25 59.5 3.3 56.2 0.15 51.55 -0.7 41.9 2.85 33.2 6.45 24.45 13.65 17.45 20.85 10.4 30.75 5.9 40.65 1.45 52.4 0.3 64.2 -0.85 76.95 2.2 84.95 14.15 87.7 23.7" fill="#ffffff" fill-rule="evenodd" stroke="none"/>
    <path d="M87.7 23.7 Q84.95 14.15 76.95 2.2 64.2 -0.85 52.4 0.3 40.65 1.45 30.75 5.9 20.85 10.4 13.65 17.45 6.45 24.45 2.85 33.2 -0.7 41.9 0.15 51.55 3.3 56.2 9.25 59.5 15.15 62.85 22.85 64.75 30.55 66.65 39.0 67.0 L55.7 66.0 Q63.95 64.6 70.95 61.4 77.9 58.2 82.65 53.05 87.4 47.85 88.9 40.55 90.45 33.25 87.7 23.7 Z" fill="none" stroke="#000000" stroke-linecap="round" stroke-linejoin="round" stroke-width="1.0"/>
  </g>
</svg>
