<?xml version="1.0" encoding="UTF-8" standalone="no"?>
<svg xmlns:xlink="http://www.w3.org/1999/xlink" height="45.45px" width="53.45px" xmlns="http://www.w3.org/2000/svg">
  <g transform="matrix(1.0, 0.0, 0.0, 1.0, 0.6, 0.4)">
    <path d="M52.3 0.15 L41.8 18.1 40.7 19.35 32.85 24.3 40.7 19.35 38.25 21.9 38.3 21.9 38.35 21.9 45.5 16.6 Q36.8 23.35 36.0 24.05 33.95 25.85 32.9 24.35 L32.85 24.3 32.6 24.0 Q26.25 26.35 26.25 26.55 L26.25 26.6 25.6 28.15 19.5 28.15 18.5 28.15 18.5 28.4 15.4 29.1 14.55 30.75 12.35 34.8 9.05 39.55 Q7.2 41.9 5.0 43.3 2.8 44.75 0.6 44.45 -0.1 44.05 -0.05 42.25 0.05 40.4 0.7 37.6 1.5 34.4 2.45 31.8 3.65 28.5 4.95 26.05 6.3 23.45 7.75 21.75 10.9 18.35 15.4 15.4 19.95 12.4 24.85 10.05 29.8 7.7 34.7 5.8 L43.5 2.7 49.85 0.8 52.3 0.15 M26.25 26.6 L19.5 28.15 26.25 26.6" fill="#ffffff" fill-rule="evenodd" stroke="none"/>
    <path d="M40.7 19.35 L47.85 14.8 M18.5 28.4 L15.4 29.1 14.55 30.75 12.35 34.8 9.05 39.55 Q7.2 41.9 5.0 43.3 2.8 44.75 0.6 44.45 -0.1 44.05 -0.05 42.25 0.05 40.4 0.7 37.6 1.5 34.4 2.45 31.8 3.65 28.5 4.95 26.05 6.3 23.45 7.75 21.75 10.9 18.35 15.4 15.4 19.95 12.4 24.85 10.05 29.8 7.7 34.7 5.8 L43.5 2.7 49.85 0.8 52.3 0.15 M32.85 24.3 L40.7 19.35 M32.85 24.3 L27.45 26.6 26.25 27.1 26.25 26.6 27.45 26.6 M19.5 28.15 L18.5 28.4 M19.5 28.15 L26.25 26.6 M26.25 26.55 L26.25 26.6" fill="none" stroke="#000000" stroke-linecap="round" stroke-linejoin="round" stroke-width="1.1500000000000001"/>
  </g>
</svg>
