<?xml version="1.0" encoding="UTF-8" standalone="no"?>
<svg xmlns:xlink="http://www.w3.org/1999/xlink" height="28.0px" width="37.75px" xmlns="http://www.w3.org/2000/svg">
  <g transform="matrix(1.0, 0.0, 0.0, 1.0, 18.85, 14.0)">
    <path d="M13.6 -8.65 Q12.9 -7.6 10.75 -6.15 L6.1 -3.35 1.75 -1.05 -0.2 -0.1 1.75 -0.25 6.5 -0.4 12.1 -0.25 Q14.95 -0.1 16.85 0.5 18.8 1.05 18.9 2.15 18.9 3.3 16.9 4.1 14.9 4.9 11.9 5.4 L5.9 6.25 0.9 6.65 -1.2 6.8 0.65 6.85 5.1 7.15 10.3 7.8 Q12.9 8.25 14.6 8.95 16.25 9.7 16.1 10.75 15.9 11.6 13.85 12.2 L8.6 13.2 1.65 13.8 -5.75 14.0 -12.3 13.9 -15.05 13.4 -17.4 12.6 -18.4 12.15 -18.6 10.8 -18.85 7.4 -18.7 2.9 Q-18.45 0.5 -17.75 -1.7 L-15.95 -3.9 -12.15 -7.95 -7.95 -11.9 -4.95 -13.95 Q-3.35 -14.25 -3.35 -13.1 -3.3 -11.9 -4.1 -10.15 -4.85 -8.4 -5.65 -7.0 L-6.5 -5.55 -4.45 -6.35 0.55 -8.0 6.75 -9.55 12.45 -9.95 Q14.3 -9.7 13.6 -8.65" fill="#0a3277" fill-rule="evenodd" stroke="none"/>
    <path d="M-5.75 5.4 Q-5.6 7.8 -5.85 9.5 L-6.2 11.25 -7.65 11.25 -11.0 11.1 -14.5 10.65 Q-16.1 10.3 -16.55 9.65 -17.0 8.7 -16.8 7.15 L-16.25 4.05 -15.55 1.85 -14.25 0.15 -12.3 -1.75 -11.25 -2.6 Q-8.35 -1.45 -7.1 0.75 -5.9 3.0 -5.75 5.4" fill="#0a50a1" fill-rule="evenodd" stroke="none"/>
  </g>
</svg>
