<?xml version="1.0" encoding="UTF-8" standalone="no"?>
<svg xmlns:xlink="http://www.w3.org/1999/xlink" height="64.2px" width="46.75px" xmlns="http://www.w3.org/2000/svg">
  <g transform="matrix(1.0, 0.0, 0.0, 1.0, 0.5, 0.5)">
    <path d="M0.0 55.15 Q9.45 51.5 14.75 46.45 20.05 41.45 20.55 35.35 21.1 29.25 16.25 22.35 13.45 18.3 13.5 14.35 13.55 10.4 16.05 7.2 18.5 3.95 22.9 2.0 27.3 0.05 33.25 0.0 37.3 0.05 40.1 1.8 42.95 3.5 44.4 6.2 45.85 8.95 45.75 12.0 40.8 14.05 38.55 15.7 36.25 17.4 35.95 18.75 35.6 20.1 36.4 21.15 37.2 22.2 38.35 22.95 L40.2 24.3 Q40.9 24.9 40.4 25.25 L37.45 27.35 Q36.0 28.55 34.7 30.55 33.4 32.6 32.5 35.9 31.6 39.25 31.3 44.4 31.2 47.15 32.0 50.35 32.8 53.6 33.95 56.5 L36.0 61.3 36.95 63.2 0.0 55.15" fill="#ffffff" fill-rule="evenodd" stroke="none"/>
    <path d="M36.95 63.2 L36.0 61.3 33.95 56.5 Q32.8 53.6 32.0 50.35 31.2 47.15 31.3 44.4 31.6 39.25 32.5 35.9 33.4 32.6 34.7 30.55 36.0 28.55 37.45 27.35 L40.4 25.25 Q40.9 24.9 40.2 24.3 L38.35 22.95 Q37.2 22.2 36.4 21.15 35.6 20.1 35.95 18.75 36.25 17.4 38.55 15.7 40.8 14.05 45.75 12.0 45.85 8.95 44.4 6.2 42.95 3.5 40.1 1.8 37.3 0.05 33.25 0.0 27.3 0.05 22.9 2.0 18.5 3.95 16.05 7.2 13.55 10.4 13.5 14.35 13.45 18.3 16.25 22.35 21.1 29.25 20.55 35.35 20.05 41.45 14.75 46.45 9.45 51.5 0.0 55.15" fill="none" stroke="#000000" stroke-linecap="round" stroke-linejoin="round" stroke-width="1.0"/>
  </g>
</svg>
