<?xml version="1.0" encoding="UTF-8" standalone="no"?>
<svg xmlns:xlink="http://www.w3.org/1999/xlink" height="11.55px" width="42.95px" xmlns="http://www.w3.org/2000/svg">
  <g transform="matrix(1.0, 0.0, 0.0, 1.0, 21.45, 5.8)">
    <path d="M-15.1 -5.1 L-5.6 -0.95 Q-12.45 3.0 -15.9 4.3 -19.35 5.6 -20.35 5.1 -21.35 4.55 -20.7 2.95 -20.1 1.4 -18.8 -0.45 L-16.3 -3.7 -15.1 -5.1" fill="#ffffff" fill-rule="evenodd" stroke="none"/>
    <path d="M-15.1 -5.1 L-16.3 -3.7 -18.8 -0.45 Q-20.1 1.4 -20.7 2.95 -21.35 4.55 -20.35 5.1 -19.35 5.6 -15.9 4.3 -12.45 3.0 -5.6 -0.95" fill="none" stroke="#000000" stroke-linecap="round" stroke-linejoin="round" stroke-width="1.0"/>
    <path d="M-5.25 -1.15 L2.05 -0.65 Q0.7 2.6 -0.4 3.55 -1.55 4.5 -2.45 3.95 L-4.0 2.2 -4.95 -0.05 -5.25 -1.15" fill="#ffffff" fill-rule="evenodd" stroke="none"/>
    <path d="M-5.25 -1.15 L-4.95 -0.05 -4.0 2.2 -2.45 3.95 Q-1.55 4.5 -0.4 3.55 0.7 2.6 2.05 -0.65" fill="none" stroke="#000000" stroke-linecap="round" stroke-linejoin="round" stroke-width="1.0"/>
    <path d="M3.75 -1.3 L15.75 -5.3 17.1 -3.9 19.4 -0.65 Q20.6 1.2 20.95 2.75 21.3 4.35 19.95 4.85 18.65 5.35 14.8 4.0 10.95 2.7 3.75 -1.3" fill="#ffffff" fill-rule="evenodd" stroke="none"/>
    <path d="M15.75 -5.3 L17.1 -3.9 19.4 -0.65 Q20.6 1.2 20.95 2.75 21.3 4.35 19.95 4.85 18.65 5.35 14.8 4.0 10.95 2.7 3.75 -1.3" fill="none" stroke="#000000" stroke-linecap="round" stroke-linejoin="round" stroke-width="1.0"/>
  </g>
</svg>
