<?xml version="1.0" encoding="UTF-8" standalone="no"?>
<svg xmlns:xlink="http://www.w3.org/1999/xlink" height="27.65px" width="28.6px" xmlns="http://www.w3.org/2000/svg">
  <g transform="matrix(1.0, 0.0, 0.0, 1.0, 14.3, 13.85)">
    <path d="M13.8 9.3 L11.9 9.3 7.65 9.3 3.15 9.6 Q1.15 9.8 0.6 10.3 L1.85 12.25 2.3 13.3 1.3 12.7 -0.8 11.6 Q-2.0 11.05 -2.9 11.0 L-5.85 10.95 -10.0 11.4 Q-12.15 11.85 -13.4 13.15 L-13.75 10.75 -13.8 7.75 -13.65 5.25 -13.55 4.15 -11.05 -12.35 -7.2 -13.35 -7.6 -11.8 -8.55 -8.05 -9.65 -3.25 -10.5 1.25 Q-10.8 3.3 -10.7 4.3 L-6.45 4.55 -0.15 5.8 6.45 7.35 11.65 8.75 13.8 9.3" fill="#ff4200" fill-rule="evenodd" stroke="none"/>
    <path d="M13.8 9.3 L11.9 9.3 7.65 9.3 3.15 9.6 Q1.15 9.8 0.6 10.3 L1.85 12.25 2.3 13.3 1.3 12.7 -0.8 11.6 Q-2.0 11.05 -2.9 11.0 L-5.85 10.95 -10.0 11.4 Q-12.15 11.85 -13.4 13.15 L-13.75 10.75 -13.8 7.75 -13.65 5.25 -13.55 4.15 -11.05 -12.35 -7.2 -13.35 -7.6 -11.8 -8.55 -8.05 -9.65 -3.25 -10.5 1.25 Q-10.8 3.3 -10.7 4.3 L-6.45 4.55 -0.15 5.8 6.45 7.35 11.65 8.75 13.8 9.3 Z" fill="none" stroke="#000000" stroke-linecap="round" stroke-linejoin="round" stroke-width="1.0"/>
  </g>
</svg>
