<?xml version="1.0" encoding="UTF-8" standalone="no"?>
<svg xmlns:xlink="http://www.w3.org/1999/xlink" height="17.8px" width="29.5px" xmlns="http://www.w3.org/2000/svg">
  <g transform="matrix(1.0, 0.0, 0.0, 1.0, 13.7, 12.15)">
    <path d="M12.1 -3.3 L0.6 1.45 -10.05 -3.05 0.7 -7.25 Q6.05 -5.1 12.1 -3.3" fill="#8d1008" fill-rule="evenodd" stroke="none"/>
    <path d="M11.5 -2.55 Q9.15 -1.65 6.55 1.4 3.65 4.7 0.85 5.15 -1.85 4.7 -4.4 1.55 -6.8 -1.5 -9.75 -2.55 L0.8 1.05 11.5 -2.55" fill="#fa420f" fill-rule="evenodd" stroke="none"/>
    <path d="M11.5 -2.55 L0.8 1.05 -9.75 -2.55 Q-6.8 -1.5 -4.4 1.55 -1.85 4.7 0.85 5.15 3.65 4.7 6.55 1.4 9.15 -1.65 11.5 -2.55 L11.95 -2.7" fill="none" stroke="#000000" stroke-linecap="round" stroke-linejoin="round" stroke-width="1.0"/>
    <path d="M15.3 -4.55 Q13.05 -3.0 8.15 -4.65 3.25 -6.25 0.85 -5.45 -1.2 -6.2 -5.85 -4.6 L-13.2 -4.4 Q-5.6 -4.75 -3.2 -7.45 -0.75 -10.15 -0.95 -10.55 -0.85 -11.2 1.45 -11.65 3.5 -10.95 3.3 -10.55 3.15 -10.15 5.8 -7.35 8.4 -4.6 15.3 -4.55" fill="#fa420f" fill-rule="evenodd" stroke="none"/>
    <path d="M15.3 -4.55 Q8.4 -4.6 5.8 -7.35 3.15 -10.15 3.3 -10.55 3.5 -10.95 1.45 -11.65 -0.85 -11.2 -0.95 -10.55 -0.75 -10.15 -3.2 -7.45 -5.6 -4.75 -13.2 -4.4 L-5.85 -4.6 Q-1.2 -6.2 0.85 -5.45 3.25 -6.25 8.15 -4.65 13.05 -3.0 15.3 -4.55 Z" fill="none" stroke="#000000" stroke-linecap="round" stroke-linejoin="round" stroke-width="1.0"/>
  </g>
</svg>
