<?xml version="1.0" encoding="UTF-8" standalone="no"?>
<svg xmlns:xlink="http://www.w3.org/1999/xlink" height="72.75px" width="80.2px" xmlns="http://www.w3.org/2000/svg">
  <g transform="matrix(1.0, 0.0, 0.0, 1.0, 40.1, 42.95)">
    <path d="M22.95 -22.05 Q31.5 -14.05 35.4 -7.6 39.3 -1.1 39.6 3.95 39.85 9.05 37.45 12.95 35.0 16.8 30.9 19.6 26.85 22.4 22.05 24.3 17.25 26.15 12.7 27.25 L4.9 28.85 0.65 29.3 -3.6 28.7 -11.3 26.8 Q-15.8 25.45 -20.65 23.35 -25.45 21.25 -29.7 18.25 -33.95 15.25 -36.65 11.25 -39.35 7.25 -39.6 2.15 -39.85 -2.95 -36.7 -9.2 -33.55 -15.5 -26.05 -23.05 L-25.5 -23.9 -15.25 -27.2 -7.5 -41.85 Q-0.45 -44.55 6.6 -40.5 L10.85 -27.75 21.95 -23.7 22.95 -22.05" fill="#ffffff" fill-rule="evenodd" stroke="none"/>
    <path d="M-26.05 -23.05 Q-33.55 -15.5 -36.7 -9.2 -39.85 -2.95 -39.6 2.15 -39.35 7.25 -36.65 11.25 -33.95 15.25 -29.7 18.25 -25.45 21.25 -20.65 23.35 -15.8 25.45 -11.3 26.8 L-3.6 28.7 0.65 29.3 4.9 28.85 12.7 27.25 Q17.25 26.15 22.05 24.3 26.85 22.4 30.9 19.6 35.0 16.8 37.45 12.95 39.85 9.05 39.6 3.95 39.3 -1.1 35.4 -7.6 31.5 -14.05 22.95 -22.05" fill="none" stroke="#000000" stroke-linecap="round" stroke-linejoin="round" stroke-width="1.0"/>
  </g>
</svg>
