<?xml version="1.0" encoding="UTF-8" standalone="no"?>
<svg xmlns:xlink="http://www.w3.org/1999/xlink" height="50.1px" width="86.0px" xmlns="http://www.w3.org/2000/svg">
  <g transform="matrix(1.0, 0.0, 0.0, 1.0, 42.0, 24.45)">
    <path d="M-1.85 -22.55 L-30.5 25.15 Q-31.05 24.9 -35.4 19.25 -39.7 13.6 -41.5 5.15 -41.55 -0.55 -31.95 -6.95 -22.35 -13.3 -12.5 -17.8 L-1.85 -22.55" fill="#ffffff" fill-rule="evenodd" stroke="none"/>
    <path d="M-30.5 25.15 Q-31.05 24.9 -35.4 19.25 -39.7 13.6 -41.5 5.15 -41.55 -0.55 -31.95 -6.95 -22.35 -13.3 -12.5 -17.8 L-1.85 -22.55" fill="none" stroke="#000000" stroke-linecap="round" stroke-linejoin="round" stroke-width="1.0"/>
    <path d="M3.85 -23.95 L14.5 -19.2 Q24.35 -14.7 33.95 -8.35 43.55 -1.95 43.5 3.75 41.7 12.2 37.4 17.85 33.05 23.5 32.5 23.75 L3.85 -23.95" fill="#ffffff" fill-rule="evenodd" stroke="none"/>
    <path d="M32.5 23.75 Q33.05 23.5 37.4 17.85 41.7 12.2 43.5 3.75 43.55 -1.95 33.95 -8.35 24.35 -14.7 14.5 -19.2 L3.85 -23.95" fill="none" stroke="#000000" stroke-linecap="round" stroke-linejoin="round" stroke-width="1.0"/>
  </g>
</svg>
