<?xml version="1.0" encoding="UTF-8" standalone="no"?>
<svg xmlns:xlink="http://www.w3.org/1999/xlink" height="22.1px" width="32.7px" xmlns="http://www.w3.org/2000/svg">
  <g transform="matrix(1.0, 0.0, 0.0, 1.0, 16.8, 20.85)">
    <path d="M-16.3 -10.45 L-10.05 -14.5 Q-4.05 -18.1 3.35 -18.15 10.75 -18.2 15.4 -8.35 7.25 1.7 0.05 0.65 -7.15 -0.45 -11.65 -5.15 -16.15 -9.85 -16.3 -10.45" fill="#9c5715" fill-rule="evenodd" stroke="none"/>
    <path d="M-16.3 -10.45 Q-16.15 -9.85 -11.65 -5.15 -7.15 -0.45 0.05 0.65 7.25 1.7 15.4 -8.35 10.75 -18.2 3.35 -18.15 -4.05 -18.1 -10.05 -14.5 L-16.3 -10.45 Z" fill="none" stroke="#000000" stroke-linecap="round" stroke-linejoin="round" stroke-width="1.0"/>
    <path d="M-12.45 -11.55 L-7.4 -16.0 Q-2.6 -19.9 3.3 -20.35 9.25 -20.8 12.9 -11.05 7.0 -2.5 1.25 -3.05 -4.5 -3.75 -8.4 -7.35 -12.3 -11.05 -12.45 -11.55" fill="#fb0f0c" fill-rule="evenodd" stroke="none"/>
    <path d="M-12.45 -11.55 Q-12.3 -11.05 -8.4 -7.35 -4.5 -3.75 1.25 -3.05 7.0 -2.5 12.9 -11.05 9.25 -20.8 3.3 -20.35 -2.6 -19.9 -7.4 -16.0 L-12.45 -11.55 Z" fill="none" stroke="#000000" stroke-linecap="round" stroke-linejoin="round" stroke-width="1.0"/>
  </g>
</svg>
