<?xml version="1.0" encoding="UTF-8" standalone="no"?>
<svg xmlns:xlink="http://www.w3.org/1999/xlink" height="22.1px" width="32.7px" xmlns="http://www.w3.org/2000/svg">
  <g transform="matrix(1.0, 0.0, 0.0, 1.0, 16.8, 15.85)">
    <path d="M-16.3 -5.45 L-10.05 -9.5 Q-4.05 -13.1 3.35 -13.15 10.75 -13.2 15.4 -3.35 7.25 6.7 0.05 5.65 -7.15 4.55 -11.65 -0.15 -16.15 -4.85 -16.3 -5.45" fill="#9c5715" fill-rule="evenodd" stroke="none"/>
    <path d="M-16.3 -5.45 Q-16.15 -4.85 -11.65 -0.15 -7.15 4.55 0.05 5.65 7.25 6.7 15.4 -3.35 10.75 -13.2 3.35 -13.15 -4.05 -13.1 -10.05 -9.5 L-16.3 -5.45 Z" fill="none" stroke="#000000" stroke-linecap="round" stroke-linejoin="round" stroke-width="1.0"/>
    <path d="M-12.45 -6.55 L-7.4 -11.0 Q-2.6 -14.9 3.3 -15.35 9.25 -15.8 12.9 -6.05 7.0 2.5 1.25 1.95 -4.5 1.25 -8.4 -2.35 -12.3 -6.05 -12.45 -6.55" fill="#fb0f0c" fill-rule="evenodd" stroke="none"/>
    <path d="M-12.45 -6.55 Q-12.3 -6.05 -8.4 -2.35 -4.5 1.25 1.25 1.95 7.0 2.5 12.9 -6.05 9.25 -15.8 3.3 -15.35 -2.6 -14.9 -7.4 -11.0 L-12.45 -6.55 Z" fill="none" stroke="#000000" stroke-linecap="round" stroke-linejoin="round" stroke-width="1.0"/>
  </g>
</svg>
