<?xml version="1.0" encoding="UTF-8" standalone="no"?>
<svg xmlns:xlink="http://www.w3.org/1999/xlink" height="22.1px" width="32.7px" xmlns="http://www.w3.org/2000/svg">
  <g transform="matrix(1.0, 0.0, 0.0, 1.0, 16.8, 14.85)">
    <path d="M-16.3 -4.45 L-10.05 -8.5 Q-4.05 -12.1 3.35 -12.15 10.75 -12.2 15.4 -2.35 7.25 7.7 0.05 6.65 -7.15 5.55 -11.65 0.85 -16.15 -3.85 -16.3 -4.45" fill="#9c5715" fill-rule="evenodd" stroke="none"/>
    <path d="M-16.3 -4.45 Q-16.15 -3.85 -11.65 0.85 -7.15 5.55 0.05 6.65 7.25 7.7 15.4 -2.35 10.75 -12.2 3.35 -12.15 -4.05 -12.1 -10.05 -8.5 L-16.3 -4.45 Z" fill="none" stroke="#000000" stroke-linecap="round" stroke-linejoin="round" stroke-width="1.0"/>
    <path d="M-12.45 -5.55 L-7.4 -10.0 Q-2.6 -13.9 3.3 -14.35 9.25 -14.8 12.9 -5.05 7.0 3.5 1.25 2.95 -4.5 2.25 -8.4 -1.35 -12.3 -5.05 -12.45 -5.55" fill="#fb0f0c" fill-rule="evenodd" stroke="none"/>
    <path d="M-12.45 -5.55 Q-12.3 -5.05 -8.4 -1.35 -4.5 2.25 1.25 2.95 7.0 3.5 12.9 -5.05 9.25 -14.8 3.3 -14.35 -2.6 -13.9 -7.4 -10.0 L-12.45 -5.55 Z" fill="none" stroke="#000000" stroke-linecap="round" stroke-linejoin="round" stroke-width="1.0"/>
  </g>
</svg>
