<?xml version="1.0" encoding="UTF-8" standalone="no"?>
<svg xmlns:xlink="http://www.w3.org/1999/xlink" height="16.75px" width="29.5px" xmlns="http://www.w3.org/2000/svg">
  <g transform="matrix(1.0, 0.0, 0.0, 1.0, 13.75, 12.5)">
    <path d="M0.4 -1.3 L9.0 -3.1 Q6.65 -2.5 4.95 0.3 3.15 3.35 0.55 3.75 -2.05 3.3 -4.2 0.05 -5.9 -2.55 -8.3 -3.35 L0.4 -1.3" fill="#fa420f" fill-rule="evenodd" stroke="none"/>
    <path d="M0.4 -1.3 L-8.3 -3.35 Q-5.9 -2.55 -4.2 0.05 -2.05 3.3 0.55 3.75 3.15 3.35 4.95 0.3 6.65 -2.5 9.0 -3.1 L0.4 -1.3 M9.0 -3.1 L9.3 -3.15 M-8.3 -3.35 L-9.55 -3.65" fill="none" stroke="#000000" stroke-linecap="round" stroke-linejoin="round" stroke-width="1.0"/>
    <path d="M15.25 -4.9 Q12.9 -3.05 7.75 -2.1 2.6 -1.2 0.9 0.6 -0.6 -1.15 -5.5 -2.05 -10.45 -3.0 -13.25 -4.75 -5.65 -5.1 -3.25 -7.8 -0.8 -10.5 -1.0 -10.9 -0.95 -11.55 1.4 -12.0 3.45 -11.3 3.25 -10.9 3.1 -10.5 5.75 -7.7 8.35 -4.95 15.25 -4.9" fill="#fa420f" fill-rule="evenodd" stroke="none"/>
    <path d="M15.25 -4.9 Q8.35 -4.95 5.75 -7.7 3.1 -10.5 3.25 -10.9 3.45 -11.3 1.4 -12.0 -0.95 -11.55 -1.0 -10.9 -0.8 -10.5 -3.25 -7.8 -5.65 -5.1 -13.25 -4.75 -10.45 -3.0 -5.5 -2.05 -0.6 -1.15 0.9 0.6 2.6 -1.2 7.75 -2.1 12.9 -3.05 15.25 -4.9 Z" fill="none" stroke="#000000" stroke-linecap="round" stroke-linejoin="round" stroke-width="1.0"/>
  </g>
</svg>
