<?xml version="1.0" encoding="UTF-8" standalone="no"?>
<svg xmlns:xlink="http://www.w3.org/1999/xlink" height="16.75px" width="29.5px" xmlns="http://www.w3.org/2000/svg">
  <g transform="matrix(1.0, 0.0, 0.0, 1.0, 13.7, 12.3)">
    <path d="M-8.9 -3.45 L0.85 -6.9 10.55 -3.35 0.8 0.25 -8.9 -3.45" fill="#8d1008" fill-rule="evenodd" stroke="none"/>
    <path d="M0.7 -1.1 L9.3 -2.9 Q6.95 -2.3 5.25 0.5 3.45 3.55 0.85 3.95 -1.75 3.5 -3.9 0.25 -5.6 -2.35 -8.0 -3.15 L0.7 -1.1" fill="#fa420f" fill-rule="evenodd" stroke="none"/>
    <path d="M0.7 -1.1 L-8.0 -3.15 Q-5.6 -2.35 -3.9 0.25 -1.75 3.5 0.85 3.95 3.45 3.55 5.25 0.5 6.95 -2.3 9.3 -2.9 L0.7 -1.1 M9.3 -2.9 L9.6 -2.95 M-8.0 -3.15 L-9.25 -3.45" fill="none" stroke="#000000" stroke-linecap="round" stroke-linejoin="round" stroke-width="1.0"/>
    <path d="M15.3 -4.7 Q12.95 -3.0 7.8 -3.15 2.65 -3.25 0.95 -1.6 -0.55 -3.2 -5.45 -3.1 -10.4 -2.95 -13.2 -4.55 -5.6 -4.9 -3.2 -7.6 -0.75 -10.3 -0.95 -10.7 -0.9 -11.35 1.45 -11.8 3.5 -11.1 3.3 -10.7 3.15 -10.3 5.8 -7.5 8.4 -4.75 15.3 -4.7" fill="#fa420f" fill-rule="evenodd" stroke="none"/>
    <path d="M15.3 -4.7 Q8.4 -4.75 5.8 -7.5 3.15 -10.3 3.3 -10.7 3.5 -11.1 1.45 -11.8 -0.9 -11.35 -0.95 -10.7 -0.75 -10.3 -3.2 -7.6 -5.6 -4.9 -13.2 -4.55 -10.4 -2.95 -5.45 -3.1 -0.55 -3.2 0.95 -1.6 2.65 -3.25 7.8 -3.15 12.95 -3.0 15.3 -4.7 Z" fill="none" stroke="#000000" stroke-linecap="round" stroke-linejoin="round" stroke-width="1.0"/>
  </g>
</svg>
