<?xml version="1.0" encoding="UTF-8" standalone="no"?>
<svg xmlns:xlink="http://www.w3.org/1999/xlink" height="16.75px" width="29.5px" xmlns="http://www.w3.org/2000/svg">
  <g transform="matrix(1.0, 0.0, 0.0, 1.0, 13.7, 12.2)">
    <path d="M-10.15 -3.35 L0.6 -6.8 11.3 -3.25 0.5 0.35 -10.15 -3.35" fill="#8d1008" fill-rule="evenodd" stroke="none"/>
    <path d="M0.8 0.0 L9.7 -3.15 Q7.35 -2.2 5.55 0.55 3.5 3.65 0.85 4.05 -1.8 3.65 -4.05 0.55 -6.1 -2.3 -8.7 -3.25 L0.8 0.0" fill="#fa420f" fill-rule="evenodd" stroke="none"/>
    <path d="M0.8 0.0 L-8.7 -3.25 Q-6.1 -2.3 -4.05 0.55 -1.8 3.65 0.85 4.05 3.5 3.65 5.55 0.55 7.35 -2.2 9.7 -3.15 L0.8 0.0 M9.7 -3.15 L10.25 -3.35 M-8.7 -3.25 L-9.2 -3.45" fill="none" stroke="#000000" stroke-linecap="round" stroke-linejoin="round" stroke-width="1.0"/>
    <path d="M15.3 -4.6 Q12.95 -3.0 7.75 -3.8 2.55 -4.55 0.85 -3.0 -0.7 -4.5 -5.55 -3.75 -10.4 -2.95 -13.2 -4.45 -5.6 -4.8 -3.2 -7.5 -0.75 -10.2 -0.95 -10.6 -0.85 -11.25 1.45 -11.7 3.5 -11.0 3.3 -10.6 3.15 -10.2 5.8 -7.4 8.4 -4.65 15.3 -4.6" fill="#fa420f" fill-rule="evenodd" stroke="none"/>
    <path d="M15.3 -4.6 Q8.4 -4.65 5.8 -7.4 3.15 -10.2 3.3 -10.6 3.5 -11.0 1.45 -11.7 -0.85 -11.25 -0.95 -10.6 -0.75 -10.2 -3.2 -7.5 -5.6 -4.8 -13.2 -4.45 -10.4 -2.95 -5.55 -3.75 -0.7 -4.5 0.85 -3.0 2.55 -4.55 7.75 -3.8 12.95 -3.0 15.3 -4.6 Z" fill="none" stroke="#000000" stroke-linecap="round" stroke-linejoin="round" stroke-width="1.0"/>
  </g>
</svg>
