<?xml version="1.0" encoding="UTF-8" standalone="no"?>
<svg xmlns:xlink="http://www.w3.org/1999/xlink" height="17.8px" width="29.5px" xmlns="http://www.w3.org/2000/svg">
  <g transform="matrix(1.0, 0.0, 0.0, 1.0, 14.35, 62.5)">
    <path d="M11.45 -53.65 L-0.05 -48.9 -10.7 -53.4 0.05 -57.6 Q5.4 -55.45 11.45 -53.65" fill="#8d1008" fill-rule="evenodd" stroke="none"/>
    <path d="M-10.4 -52.9 L0.15 -49.3 10.85 -52.9 Q8.5 -52.0 5.9 -48.95 3.0 -45.65 0.2 -45.2 -2.5 -45.65 -5.05 -48.8 -7.45 -51.85 -10.4 -52.9" fill="#fa420f" fill-rule="evenodd" stroke="none"/>
    <path d="M-10.4 -52.9 Q-7.45 -51.85 -5.05 -48.8 -2.5 -45.65 0.2 -45.2 3.0 -45.65 5.9 -48.95 8.5 -52.0 10.85 -52.9 L0.15 -49.3 -10.4 -52.9 M10.85 -52.9 L11.3 -53.05" fill="none" stroke="#000000" stroke-linecap="round" stroke-linejoin="round" stroke-width="1.0"/>
    <path d="M14.65 -54.9 Q12.4 -53.35 7.5 -55.0 2.6 -56.6 0.2 -55.8 -1.85 -56.55 -6.5 -54.95 L-13.85 -54.75 Q-6.25 -55.1 -3.85 -57.8 -1.4 -60.5 -1.6 -60.9 -1.5 -61.55 0.8 -62.0 2.85 -61.3 2.65 -60.9 2.5 -60.5 5.15 -57.7 7.75 -54.95 14.65 -54.9" fill="#fa420f" fill-rule="evenodd" stroke="none"/>
    <path d="M14.65 -54.9 Q7.75 -54.95 5.15 -57.7 2.5 -60.5 2.65 -60.9 2.85 -61.3 0.8 -62.0 -1.5 -61.55 -1.6 -60.9 -1.4 -60.5 -3.85 -57.8 -6.25 -55.1 -13.85 -54.75 L-6.5 -54.95 Q-1.85 -56.55 0.2 -55.8 2.6 -56.6 7.5 -55.0 12.4 -53.35 14.65 -54.9 Z" fill="none" stroke="#000000" stroke-linecap="round" stroke-linejoin="round" stroke-width="1.0"/>
  </g>
</svg>
