<?xml version="1.0" encoding="UTF-8" standalone="no"?>
<svg xmlns:xlink="http://www.w3.org/1999/xlink" height="48.7px" width="90.95px" xmlns="http://www.w3.org/2000/svg">
  <g transform="matrix(1.0, 0.0, 0.0, 1.0, 45.45, 23.95)">
    <path d="M-5.3 -23.45 L-33.95 24.25 Q-34.5 24.0 -38.85 18.35 -43.15 12.7 -44.95 4.25 -45.0 -1.45 -35.4 -7.85 -25.8 -14.2 -15.95 -18.7 L-5.3 -23.45" fill="#ffffff" fill-rule="evenodd" stroke="none"/>
    <path d="M-33.95 24.25 Q-34.5 24.0 -38.85 18.35 -43.15 12.7 -44.95 4.25 -45.0 -1.45 -35.4 -7.85 -25.8 -14.2 -15.95 -18.7 L-5.3 -23.45" fill="none" stroke="#000000" stroke-linecap="round" stroke-linejoin="round" stroke-width="1.0"/>
    <path d="M34.0 24.25 L5.35 -23.45 16.0 -18.7 Q25.85 -14.2 35.45 -7.85 45.05 -1.45 45.0 4.25 43.2 12.7 38.9 18.35 34.55 24.0 34.0 24.25" fill="#ffffff" fill-rule="evenodd" stroke="none"/>
    <path d="M34.0 24.25 Q34.55 24.0 38.9 18.35 43.2 12.7 45.0 4.25 45.05 -1.45 35.45 -7.85 25.85 -14.2 16.0 -18.7 L5.35 -23.45" fill="none" stroke="#000000" stroke-linecap="round" stroke-linejoin="round" stroke-width="1.0"/>
  </g>
</svg>
