<?xml version="1.0" encoding="UTF-8" standalone="no"?>
<svg xmlns:xlink="http://www.w3.org/1999/xlink" height="14.35px" width="37.5px" xmlns="http://www.w3.org/2000/svg">
  <g transform="matrix(1.0, 0.0, 0.0, 1.0, -30.5, -10.75)">
    <path d="M50.95 20.2 L43.15 19.2 40.5 20.85 31.0 18.3 32.15 17.2 34.9 14.8 Q36.5 13.4 38.1 12.35 39.75 11.3 40.8 11.25 L43.75 11.9 49.0 13.65 55.25 15.9 Q58.5 17.1 61.3 18.25 L65.8 20.25 Q67.5 21.1 67.5 21.4 L64.95 21.7 58.8 21.15 50.95 20.2" fill="#ff4200" fill-rule="evenodd" stroke="none"/>
    <path d="M50.95 20.2 L43.15 19.2 40.5 20.85 31.0 18.3 32.15 17.2 34.9 14.8 Q36.5 13.4 38.1 12.35 39.75 11.3 40.8 11.25 L43.75 11.9 49.0 13.65 55.25 15.9 Q58.5 17.1 61.3 18.25 L65.8 20.25 Q67.5 21.1 67.5 21.4 L64.95 21.7 58.8 21.15 50.95 20.2 Z" fill="none" stroke="#000000" stroke-linecap="round" stroke-linejoin="round" stroke-width="1.0"/>
    <path d="M53.75 20.9 Q53.3 21.6 51.3 22.25 L46.85 23.4 42.55 24.25 40.65 24.6 32.05 18.9 34.15 18.95 36.6 19.0 39.25 19.5 42.6 19.05 47.75 18.8 Q50.35 19.15 52.1 19.85 53.85 20.55 53.75 20.9" fill="#ff4200" fill-rule="evenodd" stroke="none"/>
    <path d="M53.75 20.9 Q53.85 20.55 52.1 19.85 50.35 19.15 47.75 18.8 L42.6 19.05 39.25 19.5 36.6 19.0 34.15 18.95 32.05 18.9 40.65 24.6 42.55 24.25 46.85 23.4 51.3 22.25 Q53.3 21.6 53.75 20.9 Z" fill="none" stroke="#000000" stroke-linecap="round" stroke-linejoin="round" stroke-width="1.0"/>
  </g>
</svg>
