<?xml version="1.0" encoding="UTF-8" standalone="no"?>
<svg xmlns:xlink="http://www.w3.org/1999/xlink" height="189.6px" width="59.8px" xmlns="http://www.w3.org/2000/svg">
  <g transform="matrix(1.0, 0.0, 0.0, 1.0, 29.6, 56.0)">
    <path d="M2.25 71.7 Q4.25 60.35 -0.3 42.85 -5.1 25.85 -3.35 27.9 -1.55 29.95 2.2 48.95 5.1 67.55 3.35 75.5 1.6 83.4 1.1 83.2 L2.3 86.7 Q3.3 89.85 2.2 92.2 1.4 88.7 1.0 88.05 L-1.15 93.6 -1.55 88.4 -4.55 91.6 Q-4.7 88.85 -2.7 86.25 L-0.4 83.45 Q0.25 83.05 2.25 71.7" fill="#7c4806" fill-rule="evenodd" stroke="none"/>
    <path d="M2.25 71.7 Q0.25 83.05 -0.4 83.45 L-2.7 86.25 Q-4.7 88.85 -4.55 91.6 L-1.55 88.4 -1.15 93.6 1.0 88.05 Q1.4 88.7 2.2 92.2 3.3 89.85 2.3 86.7 L1.1 83.2 Q1.6 83.4 3.35 75.5 5.1 67.55 2.2 48.95 -1.55 29.95 -3.35 27.9 -5.1 25.85 -0.3 42.85 4.25 60.35 2.25 71.7 Z" fill="none" stroke="#000000" stroke-linecap="round" stroke-linejoin="round" stroke-width="1.0"/>
    <path d="M11.25 -34.1 L17.8 -7.85 18.6 67.25 Q18.95 67.8 19.9 72.55 20.85 77.3 18.6 79.75 18.3 82.4 18.4 90.1 L18.7 104.8 18.9 112.25 23.0 121.6 14.85 125.05 12.65 121.6 12.75 110.35 12.8 88.7 12.65 74.75 10.6 64.35 7.05 49.3 5.15 41.65 -8.25 41.95 Q-8.2 42.45 -9.5 50.65 -10.85 58.85 -14.5 68.5 -14.05 72.55 -13.85 83.05 L-13.6 102.9 -13.55 112.85 -12.0 121.6 -17.0 124.1 -20.95 119.55 -20.95 110.55 -21.1 93.1 Q-21.25 84.1 -21.7 81.6 -24.1 74.15 -22.65 71.95 -21.15 69.8 -20.75 70.05 L-23.25 21.65 -17.0 -32.7 -8.9 -44.9 -8.9 -55.5 6.75 -55.5 7.85 -44.25 11.25 -34.1" fill="#73420d" fill-rule="evenodd" stroke="none"/>
    <path d="M11.25 -34.1 L17.8 -7.85 18.6 67.25 Q18.95 67.8 19.9 72.55 20.85 77.3 18.6 79.75 18.3 82.4 18.4 90.1 L18.7 104.8 18.9 112.25 23.0 121.6 14.85 125.05 12.65 121.6 12.75 110.35 12.8 88.7 12.65 74.75 10.6 64.35 7.05 49.3 5.15 41.65 -8.25 41.95 Q-8.2 42.45 -9.5 50.65 -10.85 58.85 -14.5 68.5 -14.05 72.55 -13.85 83.05 L-13.6 102.9 -13.55 112.85 -12.0 121.6 -17.0 124.1 -20.95 119.55 -20.95 110.55 -21.1 93.1 Q-21.25 84.1 -21.7 81.6 -24.1 74.15 -22.65 71.95 -21.15 69.8 -20.75 70.05 L-23.25 21.65 -17.0 -32.7 -8.9 -44.9 -8.9 -55.5 6.75 -55.5 7.85 -44.25 11.25 -34.1 Z" fill="none" stroke="#000000" stroke-linecap="round" stroke-linejoin="round" stroke-width="1.0"/>
    <path d="M11.6 40.0 Q-3.55 46.2 -12.85 39.95 L11.6 40.0" fill="#73420d" fill-rule="evenodd" stroke="none"/>
    <path d="M-12.85 39.95 Q-3.55 46.2 11.6 40.0" fill="none" stroke="#000000" stroke-linecap="round" stroke-linejoin="round" stroke-width="1.0"/>
    <path d="M-12.2 120.15 Q-10.2 121.1 -12.7 124.3 -13.8 126.15 -13.25 127.25 -12.75 128.35 -15.95 131.05 -20.65 134.1 -23.15 133.5 -25.7 132.95 -25.75 132.6 -26.1 132.1 -24.15 129.35 L-29.6 130.75 Q-27.5 122.7 -24.15 120.9 -20.8 119.15 -20.45 119.5 L-17.2 119.3 Q-14.25 119.2 -12.2 120.15" fill="#000000" fill-rule="evenodd" stroke="none"/>
    <path d="M25.35 129.7 L27.75 132.7 Q27.65 133.0 24.45 133.5 21.3 134.05 16.55 131.0 13.35 128.3 13.85 127.2 14.35 126.1 13.3 124.25 10.8 121.05 12.8 120.1 14.8 119.15 17.8 119.25 L21.05 119.45 Q21.4 119.1 24.75 120.85 28.05 122.65 30.2 130.7 L25.35 129.7" fill="#000000" fill-rule="evenodd" stroke="none"/>
  </g>
</svg>
