<?xml version="1.0" encoding="UTF-8" standalone="no"?>
<svg xmlns:xlink="http://www.w3.org/1999/xlink" height="55.8px" width="46.6px" xmlns="http://www.w3.org/2000/svg">
  <g transform="matrix(1.0, 0.0, 0.0, 1.0, 21.15, 50.85)">
    <path d="M-11.15 -4.5 L-6.75 -8.5 Q-2.5 -12.0 2.9 -12.5 8.35 -13.0 12.25 -4.5 6.75 4.95 1.4 4.4 -3.95 3.85 -7.5 -0.05 L-11.15 -4.5" fill="#73420d" fill-rule="evenodd" stroke="none"/>
    <path d="M-11.15 -4.5 L-7.5 -0.05 Q-3.95 3.85 1.4 4.4 6.75 4.95 12.25 -4.5 8.35 -13.0 2.9 -12.5 -2.5 -12.0 -6.75 -8.5 L-11.15 -4.5 Z" fill="none" stroke="#000000" stroke-linecap="round" stroke-linejoin="round" stroke-width="1.0"/>
    <path d="M-8.35 -5.65 L-4.85 -9.9 Q-1.5 -13.65 2.85 -14.4 7.15 -15.15 10.3 -6.65 6.45 1.3 2.15 1.1 -2.15 0.85 -5.15 -2.15 L-8.35 -5.65" fill="#fb0f0c" fill-rule="evenodd" stroke="none"/>
    <path d="M-8.35 -5.65 L-5.15 -2.15 Q-2.15 0.85 2.15 1.1 6.45 1.3 10.3 -6.65 7.15 -15.15 2.85 -14.4 -1.5 -13.65 -4.85 -9.9 L-8.35 -5.65 Z" fill="none" stroke="#000000" stroke-linecap="round" stroke-linejoin="round" stroke-width="1.0"/>
    <path d="M23.6 -3.8 Q21.05 0.6 9.6 -2.2 -1.95 -5.0 -7.6 -2.5 -13.3 0.0 -16.4 -0.2 -20.65 -1.7 -20.65 -8.2 -20.6 -14.7 -19.4 -17.2 -18.05 -19.1 -14.55 -21.2 L-10.65 -23.45 -10.9 -26.45 -11.15 -32.95 Q-11.2 -38.25 -10.6 -43.0 -10.05 -47.75 -9.2 -49.0 -8.0 -50.15 -3.45 -50.3 L5.65 -49.95 Q10.2 -49.4 11.4 -48.55 12.35 -47.25 12.8 -41.35 L13.45 -29.75 13.6 -23.7 18.15 -21.5 Q22.2 -19.45 23.9 -17.55 26.1 -8.2 23.6 -3.8" fill="#73420d" fill-rule="evenodd" stroke="none"/>
    <path d="M23.6 -3.8 Q21.05 0.6 9.6 -2.2 -1.95 -5.0 -7.6 -2.5 -13.3 0.0 -16.4 -0.2 -20.65 -1.7 -20.65 -8.2 -20.6 -14.7 -19.4 -17.2 -18.05 -19.1 -14.55 -21.2 L-10.65 -23.45 -10.9 -26.45 -11.15 -32.95 Q-11.2 -38.25 -10.6 -43.0 -10.05 -47.75 -9.2 -49.0 -8.0 -50.15 -3.45 -50.3 L5.65 -49.95 Q10.2 -49.4 11.4 -48.55 12.35 -47.25 12.8 -41.35 L13.45 -29.75 13.6 -23.7 18.15 -21.5 Q22.2 -19.45 23.9 -17.55 26.1 -8.2 23.6 -3.8 Z" fill="none" stroke="#000000" stroke-linecap="round" stroke-linejoin="round" stroke-width="1.0"/>
  </g>
</svg>
