<?xml version="1.0" encoding="UTF-8" standalone="no"?>
<svg xmlns:xlink="http://www.w3.org/1999/xlink" height="20.9px" width="32.8px" xmlns="http://www.w3.org/2000/svg">
  <g transform="matrix(1.0, 0.0, 0.0, 1.0, 15.55, 9.7)">
    <path d="M-10.0 -3.8 Q-10.8 -2.75 -10.9 -1.45 L-5.15 4.15 Q-2.15 7.15 2.15 7.4 6.25 7.6 11.95 -3.0 13.2 -4.55 16.75 -2.75 6.75 11.25 1.4 10.7 -3.95 10.15 -7.5 6.25 L-15.05 -2.55 Q-13.6 -1.55 -10.0 -3.8" fill="#73420d" fill-rule="evenodd" stroke="none"/>
    <path d="M-10.0 -3.8 Q-8.9 -5.45 -6.3 -6.55 -2.05 -8.4 3.1 -9.1 8.25 -9.85 12.45 -4.0 L11.95 -3.0 Q6.25 7.6 2.15 7.4 -2.15 7.15 -5.15 4.15 L-10.9 -1.45 Q-10.8 -2.75 -10.0 -3.8" fill="#fb0f0c" fill-rule="evenodd" stroke="none"/>
    <path d="M11.95 -3.0 L12.45 -4.0 Q8.25 -9.85 3.1 -9.1 -2.05 -8.4 -6.3 -6.55 -8.9 -5.45 -10.0 -3.8 -10.8 -2.75 -10.9 -1.45 L-5.15 4.15 Q-2.15 7.15 2.15 7.4 6.25 7.6 11.95 -3.0 13.2 -4.55 16.75 -2.75 6.75 11.25 1.4 10.7 -3.95 10.15 -7.5 6.25 L-15.05 -2.55 Q-13.6 -1.55 -10.0 -3.8" fill="none" stroke="#000000" stroke-linecap="round" stroke-linejoin="round" stroke-width="1.0"/>
  </g>
</svg>
