<?xml version="1.0" encoding="UTF-8" standalone="no"?>
<svg xmlns:xlink="http://www.w3.org/1999/xlink" height="58.2px" width="16.5px" xmlns="http://www.w3.org/2000/svg">
  <g transform="matrix(1.0, 0.0, 0.0, 1.0, 0.5, 0.5)">
    <path d="M6.6 54.7 Q5.85 53.55 6.05 51.85 6.25 50.2 8.0 48.4 7.75 45.25 6.85 40.8 L4.7 31.2 2.35 20.95 Q1.2 15.85 0.55 11.45 -0.15 7.1 0.05 4.1 0.2 1.1 1.65 0.2 3.1 -0.55 4.7 1.6 6.35 3.75 7.9 8.0 9.5 12.25 10.9 17.7 12.25 23.1 13.25 28.9 14.2 34.7 14.6 39.95 15.0 45.2 14.65 49.05 15.75 51.25 15.45 53.4 15.1 55.55 13.4 57.2 L6.6 54.7" fill="#7c4806" fill-rule="evenodd" stroke="none"/>
    <path d="M6.6 54.7 Q5.85 53.55 6.05 51.85 6.25 50.2 8.0 48.4 7.75 45.25 6.85 40.8 L4.7 31.2 2.35 20.95 Q1.2 15.85 0.55 11.45 -0.15 7.1 0.05 4.1 0.2 1.1 1.65 0.2 3.1 -0.55 4.7 1.6 6.35 3.75 7.9 8.0 9.5 12.25 10.9 17.7 12.25 23.1 13.25 28.9 14.2 34.7 14.6 39.95 15.0 45.2 14.65 49.05 15.75 51.25 15.45 53.4 15.1 55.55 13.4 57.2" fill="none" stroke="#000000" stroke-linecap="round" stroke-linejoin="round" stroke-width="1.0"/>
  </g>
</svg>
