<?xml version="1.0" encoding="UTF-8" standalone="no"?>
<svg xmlns:xlink="http://www.w3.org/1999/xlink" height="53.3px" width="13.85px" xmlns="http://www.w3.org/2000/svg">
  <g transform="matrix(1.0, 0.0, 0.0, 1.0, 0.5, 0.5)">
    <path d="M0.6 52.3 L0.5 52.05 0.05 50.6 Q-0.15 49.8 0.2 48.65 L0.85 45.5 1.95 39.4 3.25 31.85 4.55 24.35 5.65 18.4 Q6.1 16.0 6.3 15.5 L7.35 12.55 7.7 9.9 7.95 6.4 Q8.2 4.2 9.4 2.8 10.55 1.35 11.65 0.7 L12.85 0.0 11.8 21.25 9.4 29.55 Q8.25 33.95 7.65 38.7 7.05 43.4 7.55 48.25 7.45 49.25 6.95 50.2 L6.0 52.05 5.9 52.3 0.6 52.3" fill="#7c4806" fill-rule="evenodd" stroke="none"/>
    <path d="M0.6 52.3 L0.5 52.05 0.05 50.6 Q-0.15 49.8 0.2 48.65 L0.85 45.5 1.95 39.4 3.25 31.85 4.55 24.35 5.65 18.4 Q6.1 16.0 6.3 15.5 L7.35 12.55 7.7 9.9 7.95 6.4 Q8.2 4.2 9.4 2.8 10.55 1.35 11.65 0.7 L12.85 0.0 M11.8 21.25 L9.4 29.55 Q8.25 33.95 7.65 38.7 7.05 43.4 7.55 48.25 7.45 49.25 6.95 50.2 L6.0 52.05 5.9 52.3" fill="none" stroke="#000000" stroke-linecap="round" stroke-linejoin="round" stroke-width="1.0"/>
  </g>
</svg>
