<?xml version="1.0" encoding="UTF-8" standalone="no"?>
<svg xmlns:xlink="http://www.w3.org/1999/xlink" height="85.75px" width="64.4px" xmlns="http://www.w3.org/2000/svg">
  <g transform="matrix(1.0, 0.0, 0.0, 1.0, 0.5, 0.5)">
    <path d="M22.95 68.0 L23.75 63.5 Q25.95 66.75 28.35 68.75 L32.5 71.6 34.3 72.5 33.15 72.4 29.5 71.25 Q27.0 70.3 22.95 68.0" fill="#7c4806" fill-rule="evenodd" stroke="none"/>
    <path d="M22.95 68.0 Q27.0 70.3 29.5 71.25 L33.15 72.4 34.3 72.5 32.5 71.6 28.35 68.75 Q25.95 66.75 23.75 63.5" fill="none" stroke="#000000" stroke-linecap="round" stroke-linejoin="round" stroke-width="1.0"/>
    <path d="M29.8 58.85 L30.75 60.35 32.7 64.0 Q33.8 66.2 34.4 68.45 35.0 70.75 34.5 72.5 31.9 71.7 29.35 69.5 26.85 67.3 24.8 64.7 L21.55 60.25 20.3 58.3 29.8 58.85" fill="#ff0000" fill-rule="evenodd" stroke="none"/>
    <path d="M29.8 58.85 L20.3 58.3 21.55 60.25 24.8 64.7 Q26.85 67.3 29.35 69.5 31.9 71.7 34.5 72.5 35.0 70.75 34.4 68.45 33.8 66.2 32.7 64.0 L30.75 60.35 29.8 58.85 Z" fill="none" stroke="#000000" stroke-linecap="round" stroke-linejoin="round" stroke-width="1.0"/>
    <path d="M31.35 45.6 L32.5 38.75 34.35 39.05 Q36.15 39.35 38.55 40.2 40.95 41.05 42.85 42.75 44.8 44.45 45.1 47.15 L38.25 47.65 Q35.15 47.25 33.25 46.45 L31.35 45.6" fill="#7c4806" fill-rule="evenodd" stroke="none"/>
    <path d="M32.5 38.75 L34.35 39.05 Q36.15 39.35 38.55 40.2 40.95 41.05 42.85 42.75 44.8 44.45 45.1 47.15 L38.25 47.65 Q35.15 47.25 33.25 46.45 L31.35 45.6" fill="none" stroke="#000000" stroke-linecap="round" stroke-linejoin="round" stroke-width="1.0"/>
    <path d="M27.5 33.9 L28.7 33.75 31.65 33.25 35.3 32.15 Q37.2 31.5 38.7 30.4 39.85 29.45 40.65 27.6 L41.85 23.75 42.5 20.35 42.7 18.9 41.1 18.95 37.5 18.95 33.95 18.4 Q32.4 17.95 32.3 17.0 32.35 16.0 33.5 15.5 34.65 14.95 36.2 14.75 L38.9 14.55 40.15 14.5 39.1 14.4 36.75 13.9 34.4 13.0 Q33.4 12.4 33.35 11.5 33.45 10.6 34.6 10.2 35.75 9.8 37.25 9.7 L39.9 9.65 40.9 9.7 39.45 9.4 35.85 8.55 Q33.8 8.0 32.3 7.25 30.8 6.45 30.85 5.5 31.0 4.7 32.5 4.2 33.95 3.65 36.15 3.35 L40.65 3.15 44.85 3.65 Q46.7 4.05 47.5 4.9 48.25 5.8 48.4 8.65 48.6 11.5 48.15 15.35 47.75 19.2 46.7 23.1 45.6 27.0 43.9 30.05 42.15 33.1 39.7 34.3 35.55 36.15 32.3 36.85 L27.15 37.55 25.2 37.55 27.5 33.9" fill="#e7b98a" fill-rule="evenodd" stroke="none"/>
    <path d="M27.5 33.9 L28.7 33.75 31.65 33.25 35.3 32.15 Q37.2 31.5 38.7 30.4 39.85 29.45 40.65 27.6 L41.85 23.75 42.5 20.35 42.7 18.9 41.1 18.95 37.5 18.95 33.95 18.4 Q32.4 17.95 32.3 17.0 32.35 16.0 33.5 15.5 34.65 14.95 36.2 14.75 L38.9 14.55 40.15 14.5 39.1 14.4 36.75 13.9 34.4 13.0 Q33.4 12.4 33.35 11.5 33.45 10.6 34.6 10.2 35.75 9.8 37.25 9.7 L39.9 9.65 40.9 9.7 39.45 9.4 35.85 8.55 Q33.8 8.0 32.3 7.25 30.8 6.45 30.85 5.5 31.0 4.7 32.5 4.2 33.95 3.65 36.15 3.35 L40.65 3.15 44.85 3.65 Q46.7 4.05 47.5 4.9 48.25 5.8 48.4 8.65 48.6 11.5 48.15 15.35 47.75 19.2 46.7 23.1 45.6 27.0 43.9 30.05 42.15 33.1 39.7 34.3 35.55 36.15 32.3 36.85 L27.15 37.55 25.2 37.55" fill="none" stroke="#000000" stroke-linecap="round" stroke-linejoin="round" stroke-width="1.0"/>
    <path d="M10.9 71.6 Q12.65 68.25 12.85 65.4 13.05 62.55 12.4 60.1 L10.85 55.45 Q9.95 53.3 9.6 51.25 9.25 49.25 10.05 47.25 10.85 45.25 13.55 43.2 13.35 40.35 13.45 38.2 13.6 36.05 14.6 34.6 15.55 33.15 17.95 32.4 20.3 31.65 24.55 31.6 L28.05 31.85 Q29.4 32.1 30.4 32.8 L32.55 34.75 35.45 38.0 38.3 41.9 39.45 43.95 40.0 45.25 41.0 46.9 43.65 52.05 Q44.9 54.2 46.75 56.4 48.6 58.55 51.95 61.5 52.65 62.0 54.2 62.1 L57.25 62.45 Q58.8 62.6 59.45 63.25 60.4 64.55 61.25 66.65 62.1 68.75 62.65 71.15 63.25 73.5 63.35 75.55 63.5 77.6 62.95 78.75 61.75 80.9 59.0 81.85 56.3 82.75 52.75 83.25 L45.15 84.35 38.35 84.7 Q35.4 84.55 34.25 83.25 33.35 81.95 33.05 79.65 32.8 77.4 32.7 74.9 L32.4 70.45 Q32.2 68.45 31.35 67.7 L28.75 65.75 24.55 62.3 Q22.25 60.25 20.3 58.0 L10.9 71.6" fill="#7c4806" fill-rule="evenodd" stroke="none"/>
    <path d="M20.3 58.0 Q22.25 60.25 24.55 62.3 L28.75 65.75 31.35 67.7 Q32.2 68.45 32.4 70.45 L32.7 74.9 Q32.8 77.4 33.05 79.65 33.35 81.95 34.25 83.25 35.4 84.55 38.35 84.7 L45.15 84.35 52.75 83.25 Q56.3 82.75 59.0 81.85 61.75 80.9 62.95 78.75 63.5 77.6 63.35 75.55 63.25 73.5 62.65 71.15 62.1 68.75 61.25 66.65 60.4 64.55 59.45 63.25 58.8 62.6 57.25 62.45 L54.2 62.1 Q52.65 62.0 51.95 61.5 48.6 58.55 46.75 56.4 44.9 54.2 43.65 52.05 L41.0 46.9 40.0 45.25 39.45 43.95 38.3 41.9 35.45 38.0 32.55 34.75 30.4 32.8 Q29.4 32.1 28.05 31.85 L24.55 31.6 Q20.3 31.65 17.95 32.4 15.55 33.15 14.6 34.6 13.6 36.05 13.45 38.2 13.35 40.35 13.55 43.2 10.85 45.25 10.05 47.25 9.25 49.25 9.6 51.25 9.95 53.3 10.85 55.45 L12.4 60.1 Q13.05 62.55 12.85 65.4 12.65 68.25 10.9 71.6" fill="none" stroke="#000000" stroke-linecap="round" stroke-linejoin="round" stroke-width="1.0"/>
    <path d="M14.95 40.9 L17.4 47.65 16.4 48.4 13.55 50.0 Q11.7 50.9 9.2 51.45 L3.75 51.85 Q3.55 49.6 4.6 47.8 5.65 46.05 7.35 44.75 9.05 43.4 10.8 42.55 12.5 41.7 13.7 41.3 L14.95 40.9" fill="#7c4806" fill-rule="evenodd" stroke="none"/>
    <path d="M14.95 40.9 L13.7 41.3 Q12.5 41.7 10.8 42.55 9.05 43.4 7.35 44.75 5.65 46.05 4.6 47.8 3.55 49.6 3.75 51.85 L9.2 51.45 Q11.7 50.9 13.55 50.0 L16.4 48.4 17.4 47.65" fill="none" stroke="#000000" stroke-linecap="round" stroke-linejoin="round" stroke-width="1.0"/>
    <path d="M13.9 0.2 L18.15 1.05 Q19.8 1.6 19.8 2.4 19.7 3.6 17.95 4.5 L13.9 6.1 9.9 7.05 8.05 7.4 9.45 7.3 12.5 7.3 15.6 7.8 Q16.9 8.3 17.05 9.35 17.05 10.45 15.9 11.15 14.75 11.85 13.2 12.25 L10.5 12.8 9.25 12.95 10.65 12.95 13.75 13.2 16.85 14.0 Q18.25 14.55 18.4 15.65 18.4 16.7 16.8 17.25 L13.1 17.95 9.35 18.1 7.65 18.05 7.8 19.55 8.55 23.2 Q9.1 25.4 10.35 27.8 11.6 30.2 13.7 32.1 15.8 34.05 19.0 34.9 L19.45 35.55 Q19.85 36.2 19.7 37.0 19.5 37.85 17.8 38.35 14.4 38.1 11.65 35.6 8.9 33.15 6.75 29.3 4.6 25.45 3.15 21.1 1.65 16.75 0.85 12.75 0.1 8.7 0.0 5.8 -0.05 2.95 0.65 2.05 1.5 1.05 3.7 0.6 L8.6 0.0 13.9 0.2" fill="#e7b98a" fill-rule="evenodd" stroke="none"/>
    <path d="M13.9 0.2 L8.6 0.0 3.7 0.6 Q1.5 1.05 0.65 2.05 -0.05 2.95 0.0 5.8 0.1 8.7 0.85 12.75 1.65 16.75 3.15 21.1 4.6 25.45 6.75 29.3 8.9 33.15 11.65 35.6 14.4 38.1 17.8 38.35 19.5 37.85 19.7 37.0 19.85 36.2 19.45 35.55 L19.0 34.9 Q15.8 34.05 13.7 32.1 11.6 30.2 10.35 27.8 9.1 25.4 8.55 23.2 L7.8 19.55 7.65 18.05 9.35 18.1 13.1 17.95 16.8 17.25 Q18.4 16.7 18.4 15.65 18.25 14.55 16.85 14.0 L13.75 13.2 10.65 12.95 9.25 12.95 10.5 12.8 13.2 12.25 Q14.75 11.85 15.9 11.15 17.05 10.45 17.05 9.35 16.9 8.3 15.6 7.8 L12.5 7.3 9.45 7.3 8.05 7.4 9.9 7.05 13.9 6.1 17.95 4.5 Q19.7 3.6 19.8 2.4 19.8 1.6 18.15 1.05 L13.9 0.2 Z" fill="none" stroke="#000000" stroke-linecap="round" stroke-linejoin="round" stroke-width="1.0"/>
  </g>
</svg>
