<?xml version="1.0" encoding="UTF-8" standalone="no"?>
<svg xmlns:xlink="http://www.w3.org/1999/xlink" height="38.85px" width="32.2px" xmlns="http://www.w3.org/2000/svg">
  <g transform="matrix(1.0, 0.0, 0.0, 1.0, 16.45, 50.7)">
    <path d="M-0.65 -42.4 L-4.6 -38.55 -4.35 -43.8 Q-4.05 -48.45 -3.0 -50.2 L-0.65 -42.4" fill="#f3e016" fill-rule="evenodd" stroke="none"/>
    <path d="M-4.6 -38.55 L-4.35 -43.8 Q-4.05 -48.45 -3.0 -50.2 L-0.65 -42.4" fill="none" stroke="#000000" stroke-linecap="round" stroke-linejoin="round" stroke-width="1.0"/>
    <path d="M-3.7 -39.0 L-1.75 -43.35 Q0.15 -47.25 3.2 -48.5 0.35 -39.75 0.45 -39.1 L-3.7 -39.0" fill="#f3e016" fill-rule="evenodd" stroke="none"/>
    <path d="M-3.7 -39.0 L-1.75 -43.35 Q0.15 -47.25 3.2 -48.5 0.35 -39.75 0.45 -39.1" fill="none" stroke="#000000" stroke-linecap="round" stroke-linejoin="round" stroke-width="1.0"/>
    <path d="M-11.6 -15.15 L-13.6 -17.15 Q-15.35 -19.0 -15.95 -21.4 -16.0 -23.7 -13.65 -25.1 L-10.95 -26.55 Q-11.3 -27.25 -9.95 -32.6 -8.65 -37.95 -1.65 -39.25 3.2 -39.35 5.7 -36.0 8.25 -32.6 9.15 -29.05 L10.0 -25.25 12.2 -24.45 Q14.15 -23.6 15.15 -21.0 15.65 -18.25 13.95 -16.4 L12.0 -14.5 -11.6 -15.15" fill="#4c8335" fill-rule="evenodd" stroke="none"/>
    <path d="M-11.6 -15.15 L-13.6 -17.15 Q-15.35 -19.0 -15.95 -21.4 -16.0 -23.7 -13.65 -25.1 L-10.95 -26.55 Q-11.3 -27.25 -9.95 -32.6 -8.65 -37.95 -1.65 -39.25 3.2 -39.35 5.7 -36.0 8.25 -32.6 9.15 -29.05 L10.0 -25.25 12.2 -24.45 Q14.15 -23.6 15.15 -21.0 15.65 -18.25 13.95 -16.4 L12.0 -14.5" fill="none" stroke="#000000" stroke-linecap="round" stroke-linejoin="round" stroke-width="1.0"/>
    <path d="M-13.15 -21.25 L12.4 -20.45 Q11.9 -17.0 12.65 -15.3 13.45 -13.6 13.6 -13.6 L6.25 -13.1 -7.0 -12.45 -12.9 -12.7 Q-11.55 -13.95 -12.25 -17.35 L-13.15 -21.25" fill="#4c8335" fill-rule="evenodd" stroke="none"/>
    <path d="M-13.15 -21.25 L-12.25 -17.35 Q-11.55 -13.95 -12.9 -12.7 L-7.0 -12.45 6.25 -13.1 13.6 -13.6 Q13.45 -13.6 12.65 -15.3 11.9 -17.0 12.4 -20.45" fill="none" stroke="#000000" stroke-linecap="round" stroke-linejoin="round" stroke-width="1.0"/>
  </g>
</svg>
