<?xml version="1.0" encoding="UTF-8" standalone="no"?>
<svg xmlns:xlink="http://www.w3.org/1999/xlink" height="29.05px" width="50.2px" xmlns="http://www.w3.org/2000/svg">
  <g transform="matrix(1.0, 0.0, 0.0, 1.0, 24.5, 25.25)">
    <path d="M-17.6 -3.05 L-14.05 -2.25 Q-14.65 -1.75 -14.8 3.3 -18.1 -2.15 -17.6 -3.05" fill="#ffffff" fill-rule="evenodd" stroke="none"/>
    <path d="M-17.6 -3.05 Q-18.1 -2.15 -14.8 3.3 -14.65 -1.75 -14.05 -2.25" fill="none" stroke="#000000" stroke-linecap="round" stroke-linejoin="round" stroke-width="1.0"/>
    <path d="M-6.35 -23.75 L-0.05 -23.75 -0.05 -3.05 -0.75 -3.0 -8.7 -2.25 Q-14.25 -1.6 -18.65 -3.85 -23.05 -6.1 -24.0 -14.55 -24.2 -21.6 -19.9 -23.4 -15.6 -25.2 -11.15 -24.6 L-6.35 -23.75" fill="#4c8335" fill-rule="evenodd" stroke="none"/>
    <path d="M-6.35 -23.75 L-11.15 -24.6 Q-15.6 -25.2 -19.9 -23.4 -24.2 -21.6 -24.0 -14.55 -23.05 -6.1 -18.65 -3.85 -14.25 -1.6 -8.7 -2.25 L-0.75 -3.0 -0.05 -3.05" fill="none" stroke="#000000" stroke-linecap="round" stroke-linejoin="round" stroke-width="1.0"/>
    <path d="M-17.3 -17.7 Q-15.45 -18.6 -13.0 -14.65 -10.5 -10.75 -13.4 -7.85 -16.8 -6.15 -17.7 -10.85 -18.65 -15.55 -17.3 -17.7" fill="#000000" fill-rule="evenodd" stroke="none"/>
    <path d="M14.4 -2.95 L18.0 -3.75 Q18.5 -2.85 15.2 2.6 15.0 -2.45 14.4 -2.95" fill="#ffffff" fill-rule="evenodd" stroke="none"/>
    <path d="M18.0 -3.75 Q18.5 -2.85 15.2 2.6 15.0 -2.45 14.4 -2.95" fill="none" stroke="#000000" stroke-linecap="round" stroke-linejoin="round" stroke-width="1.0"/>
    <path d="M9.2 -23.75 L13.8 -24.25 Q18.0 -24.6 21.9 -22.95 25.8 -21.3 25.1 -15.45 22.15 -3.35 15.4 -2.8 8.7 -2.3 1.2 -3.15 L-0.05 -3.05 -0.05 -23.75 9.2 -23.75" fill="#4c8335" fill-rule="evenodd" stroke="none"/>
    <path d="M-0.05 -3.05 L1.2 -3.15 Q8.7 -2.3 15.4 -2.8 22.15 -3.35 25.1 -15.45 25.8 -21.3 21.9 -22.95 18.0 -24.6 13.8 -24.25 L9.2 -23.75" fill="none" stroke="#000000" stroke-linecap="round" stroke-linejoin="round" stroke-width="1.0"/>
    <path d="M15.55 -17.95 Q16.9 -15.8 15.95 -11.1 15.05 -6.4 11.65 -8.1 8.75 -11.0 11.25 -14.9 13.7 -18.85 15.55 -17.95" fill="#000000" fill-rule="evenodd" stroke="none"/>
  </g>
</svg>
