<?xml version="1.0" encoding="UTF-8" standalone="no"?>
<svg xmlns:xlink="http://www.w3.org/1999/xlink" height="28.9px" width="48.7px" xmlns="http://www.w3.org/2000/svg">
  <g transform="matrix(1.0, 0.0, 0.0, 1.0, 23.7, 26.05)">
    <path d="M-14.05 -3.15 Q-14.7 -2.65 -15.15 2.35 -18.1 -3.3 -17.55 -4.15 L-14.05 -3.15" fill="#ffffff" fill-rule="evenodd" stroke="none"/>
    <path d="M-17.55 -4.15 Q-18.1 -3.3 -15.15 2.35 -14.7 -2.65 -14.05 -3.15" fill="none" stroke="#000000" stroke-linecap="round" stroke-linejoin="round" stroke-width="1.0"/>
    <path d="M-5.0 -24.05 L1.3 -23.65 -0.05 -3.0 -0.75 -3.0 -8.75 -2.75 Q-14.3 -2.5 -18.55 -5.05 -22.8 -7.55 -23.2 -16.05 -22.95 -23.1 -18.5 -24.6 -14.1 -26.1 -9.7 -25.25 -5.3 -24.35 -5.0 -24.05" fill="#4c8335" fill-rule="evenodd" stroke="none"/>
    <path d="M-5.0 -24.05 Q-5.3 -24.35 -9.7 -25.25 -14.1 -26.1 -18.5 -24.6 -22.95 -23.1 -23.2 -16.05 -22.8 -7.55 -18.55 -5.05 -14.3 -2.5 -8.75 -2.75 L-0.75 -3.0 -0.05 -3.0" fill="none" stroke="#000000" stroke-linecap="round" stroke-linejoin="round" stroke-width="1.0"/>
    <path d="M-16.25 -18.75 Q-14.35 -19.55 -12.15 -15.4 -9.9 -11.35 -13.0 -8.65 -16.55 -7.2 -17.1 -11.9 -17.75 -16.7 -16.25 -18.75" fill="#000000" fill-rule="evenodd" stroke="none"/>
    <path d="M18.2 -4.9 Q18.75 -4.05 15.8 1.6 15.3 -3.4 14.65 -3.9 L18.2 -4.9" fill="#ffffff" fill-rule="evenodd" stroke="none"/>
    <path d="M18.2 -4.9 Q18.75 -4.05 15.8 1.6 15.3 -3.4 14.65 -3.9" fill="none" stroke="#000000" stroke-linecap="round" stroke-linejoin="round" stroke-width="1.0"/>
    <path d="M8.05 -24.25 L12.6 -25.05 Q16.75 -25.7 20.8 -24.3 24.8 -22.9 24.5 -17.0 22.35 -4.75 15.65 -3.75 L1.45 -3.15 -0.85 -3.0 -1.15 -23.65 8.05 -24.25" fill="#4c8335" fill-rule="evenodd" stroke="none"/>
    <path d="M-0.85 -3.0 L1.45 -3.15 15.65 -3.75 Q22.35 -4.75 24.5 -17.0 24.8 -22.9 20.8 -24.3 16.75 -25.7 12.6 -25.05 L8.05 -24.25" fill="none" stroke="#000000" stroke-linecap="round" stroke-linejoin="round" stroke-width="1.0"/>
    <path d="M14.8 -18.95 Q16.25 -16.9 15.65 -12.1 15.05 -7.35 11.55 -8.85 8.5 -11.55 10.7 -15.6 12.85 -19.7 14.8 -18.95" fill="#000000" fill-rule="evenodd" stroke="none"/>
  </g>
</svg>
