<?xml version="1.0" encoding="UTF-8" standalone="no"?>
<svg xmlns:xlink="http://www.w3.org/1999/xlink" height="17.4px" width="31.0px" xmlns="http://www.w3.org/2000/svg">
  <g transform="matrix(1.0, 0.0, 0.0, 1.0, 12.15, 88.85)">
    <path d="M14.7 -86.75 L18.35 -87.55 Q8.7 -71.4 3.6 -71.95 -1.5 -72.5 -4.9 -76.4 -8.3 -80.3 -11.65 -86.4 -10.55 -87.65 -8.8 -87.95 -3.85 -81.1 -1.35 -78.45 1.3 -75.75 4.85 -75.55 8.35 -75.4 14.7 -86.75" fill="#4c8335" fill-rule="evenodd" stroke="none"/>
    <path d="M12.8 -88.0 Q13.25 -86.8 15.1 -87.5 L14.7 -86.75 Q13.15 -86.55 12.8 -88.0 13.15 -86.55 14.7 -86.75 8.35 -75.4 4.85 -75.55 1.3 -75.75 -1.35 -78.45 -3.85 -81.1 -8.8 -87.95 L-9.2 -88.55 -8.7 -87.95 Q-7.55 -88.2 -6.05 -87.95 -2.3 -87.4 0.15 -88.35 L4.45 -88.15 9.25 -87.6 Q10.3 -86.85 12.8 -88.0 M-8.7 -87.95 L-8.8 -87.95 -8.7 -87.95" fill="#fb0f0c" fill-rule="evenodd" stroke="none"/>
    <path d="M14.7 -86.75 L15.1 -87.5 Q13.25 -86.8 12.8 -88.0 13.15 -86.55 14.7 -86.75 L18.35 -87.55 Q8.7 -71.4 3.6 -71.95 -1.5 -72.5 -4.9 -76.4 -8.3 -80.3 -11.65 -86.4 -10.55 -87.65 -8.8 -87.95 L-8.7 -87.95 Q-7.55 -88.2 -6.05 -87.95 -2.3 -87.4 0.15 -88.35 L4.45 -88.15 9.25 -87.6 Q10.3 -86.85 12.8 -88.0 M14.7 -86.75 Q8.35 -75.4 4.85 -75.55 1.3 -75.75 -1.35 -78.45 -3.85 -81.1 -8.8 -87.95" fill="none" stroke="#000000" stroke-linecap="round" stroke-linejoin="round" stroke-width="1.0"/>
  </g>
</svg>
