<?xml version="1.0" encoding="UTF-8" standalone="no"?>
<svg xmlns:xlink="http://www.w3.org/1999/xlink" height="88.9px" width="74.25px" xmlns="http://www.w3.org/2000/svg">
  <g transform="matrix(1.0, 0.0, 0.0, 1.0, 5.5, 0.5)">
    <path d="M23.65 0.0 Q25.7 0.85 29.0 1.4 L36.2 2.9 Q40.05 3.8 43.9 5.7 47.75 7.6 51.0 11.2 54.2 14.8 56.1 20.7 58.05 26.65 58.1 35.55 58.05 43.6 55.9 49.3 53.75 55.0 50.25 58.75 46.7 62.55 42.6 64.8 38.45 67.05 34.45 68.25 L27.3 69.9 22.6 70.7 36.6 72.7 49.75 74.55 60.75 76.75 Q65.55 78.0 68.25 79.7 L65.9 79.75 62.9 80.0 60.25 80.3 59.2 80.4 60.0 81.05 Q60.85 81.8 61.95 83.85 L60.05 83.65 58.0 83.7 54.8 84.0 Q56.8 85.0 57.85 85.85 L59.8 87.9 48.45 86.95 35.95 85.4 23.6 83.3 Q17.6 82.1 12.6 80.5 7.6 78.95 4.3 77.0 1.0 75.05 0.0 72.65 4.1 71.1 7.9 69.1 11.65 67.1 14.3 64.85 17.0 62.65 17.85 60.5 18.7 58.4 17.05 56.6 15.45 54.9 12.45 53.0 L-5.5 47.05 -3.05 41.7 Q17.2 26.15 23.65 0.0" fill="#4c8335" fill-rule="evenodd" stroke="none"/>
    <path d="M12.45 53.0 Q15.45 54.9 17.05 56.6 18.7 58.4 17.85 60.5 17.0 62.65 14.3 64.85 11.65 67.1 7.9 69.1 4.1 71.1 0.0 72.65 1.0 75.05 4.3 77.0 7.6 78.95 12.6 80.5 17.6 82.1 23.6 83.3 L35.95 85.4 48.45 86.95 59.8 87.9 57.85 85.85 Q56.8 85.0 54.8 84.0 L58.0 83.7 60.05 83.65 61.95 83.85 Q60.85 81.8 60.0 81.05 L59.2 80.4 60.25 80.3 62.9 80.0 65.9 79.75 68.25 79.7 Q65.55 78.0 60.75 76.75 L49.75 74.55 36.6 72.7 22.6 70.7 27.3 69.9 34.45 68.25 Q38.45 67.05 42.6 64.8 46.7 62.55 50.25 58.75 53.75 55.0 55.9 49.3 58.05 43.6 58.1 35.55 58.05 26.65 56.1 20.7 54.2 14.8 51.0 11.2 47.75 7.6 43.9 5.7 40.05 3.8 36.2 2.9 L29.0 1.4 Q25.7 0.85 23.65 0.0" fill="none" stroke="#2d4e1f" stroke-linecap="round" stroke-linejoin="round" stroke-width="1.0"/>
  </g>
</svg>
