<?xml version="1.0" encoding="UTF-8" standalone="no"?>
<svg xmlns:xlink="http://www.w3.org/1999/xlink" height="36.95px" width="30.25px" xmlns="http://www.w3.org/2000/svg">
  <g transform="matrix(1.0, 0.0, 0.0, 1.0, 0.5, 0.5)">
    <path d="M10.25 10.8 L10.55 10.5 11.55 9.4 Q15.1 5.4 18.35 0.65 L18.75 0.0 Q33.1 13.4 28.7 28.15 L22.9 29.4 19.3 30.25 Q15.65 31.1 11.55 32.3 L10.55 32.6 0.0 35.95 0.0 19.75 1.05 19.0 5.4 15.45 8.8 12.3 9.55 11.55 10.25 10.8" fill="#4c8335" fill-rule="evenodd" stroke="none"/>
    <path d="M18.35 0.65 Q15.1 5.4 11.55 9.4 L10.55 10.5 10.25 10.8 8.4 0.3 18.35 0.65 M9.55 11.55 L8.8 12.3 5.4 15.45 1.05 19.0 0.75 10.65 9.55 11.55" fill="#f7df15" fill-rule="evenodd" stroke="none"/>
    <path d="M10.25 10.8 L10.55 10.5 11.55 9.4 Q15.1 5.4 18.35 0.65 L8.4 0.3 10.25 10.8 9.55 11.55 8.8 12.3 5.4 15.45 1.05 19.0 0.0 19.75 M0.0 35.95 L10.55 32.6 11.55 32.3 Q15.65 31.1 19.3 30.25 L22.9 29.4 28.7 28.15 M18.75 0.0 L18.35 0.65 M1.05 19.0 L0.75 10.65 9.55 11.55" fill="none" stroke="#223c17" stroke-linecap="round" stroke-linejoin="round" stroke-width="1.0"/>
  </g>
</svg>
