<?xml version="1.0" encoding="UTF-8" standalone="no"?>
<svg xmlns:xlink="http://www.w3.org/1999/xlink" height="21.15px" width="53.65px" xmlns="http://www.w3.org/2000/svg">
  <g transform="matrix(1.0, 0.0, 0.0, 1.0, 0.5, 0.5)">
    <path d="M49.3 1.4 L50.6 0.45 Q55.7 8.55 50.6 16.65 L50.25 16.75 Q41.75 19.05 34.15 19.75 26.6 20.4 20.35 20.0 L9.55 18.75 2.5 17.1 0.0 16.3 3.45 16.3 12.6 15.45 19.25 14.25 25.6 12.6 32.65 10.25 34.1 9.65 Q37.35 8.3 40.7 6.6 45.05 4.4 49.3 1.4" fill="#4c8335" fill-rule="evenodd" stroke="none"/>
    <path d="M19.25 14.25 L24.35 6.7 32.65 10.25 25.6 12.6 19.25 14.25 M34.1 9.65 L37.7 0.0 49.3 1.4 Q45.05 4.4 40.7 6.6 37.35 8.3 34.1 9.65" fill="#f7df15" fill-rule="evenodd" stroke="none"/>
    <path d="M49.3 1.4 L50.6 0.45 M50.6 16.65 L50.25 16.75 Q41.75 19.05 34.15 19.75 26.6 20.4 20.35 20.0 L9.55 18.75 2.5 17.1 0.0 16.3 3.45 16.3 12.6 15.45 19.25 14.25 24.35 6.7 32.65 10.25 34.1 9.65 37.7 0.0 49.3 1.4 Q45.05 4.4 40.7 6.6 37.35 8.3 34.1 9.65 M19.25 14.25 L25.6 12.6 32.65 10.25" fill="none" stroke="#223c17" stroke-linecap="round" stroke-linejoin="round" stroke-width="1.0"/>
  </g>
</svg>
