<?xml version="1.0" encoding="UTF-8" standalone="no"?>
<svg xmlns:xlink="http://www.w3.org/1999/xlink" height="58.35px" width="66.5px" xmlns="http://www.w3.org/2000/svg">
  <g transform="matrix(1.0, 0.0, 0.0, 1.0, 0.5, 0.5)">
    <path d="M22.0 10.4 L9.5 42.5 1.65 37.0 8.65 33.0 0.0 27.85 6.65 24.65 5.65 23.6 3.2 20.8 0.0 16.85 3.9 17.55 6.15 17.35 7.9 17.0 Q5.8 15.45 4.6 12.95 3.45 10.45 3.15 7.5 5.1 9.7 6.7 10.35 8.35 11.0 9.3 10.9 L10.3 10.75 9.95 8.85 Q9.7 7.05 10.05 4.6 10.45 2.1 12.3 0.0 12.35 3.1 13.15 4.5 13.95 5.9 14.7 6.25 L15.55 6.55 16.15 5.65 Q16.8 4.85 18.35 3.75 19.95 2.65 22.8 1.85 25.7 1.0 30.1 1.0 26.4 2.75 24.65 4.45 22.85 6.1 22.3 7.45 21.8 8.8 21.85 9.6 L22.0 10.4" fill="#f7df15" fill-rule="evenodd" stroke="none"/>
    <path d="M22.0 10.4 L9.5 42.5 1.65 37.0 8.65 33.0 0.0 27.85 6.65 24.65 5.65 23.6 3.2 20.8 0.0 16.85 3.9 17.55 6.15 17.35 7.9 17.0 Q5.8 15.45 4.6 12.95 3.45 10.45 3.15 7.5 5.1 9.7 6.7 10.35 8.35 11.0 9.3 10.9 L10.3 10.75 9.95 8.85 Q9.7 7.05 10.05 4.6 10.45 2.1 12.3 0.0 12.35 3.1 13.15 4.5 13.95 5.9 14.7 6.25 L15.55 6.55 16.15 5.65 Q16.8 4.85 18.35 3.75 19.95 2.65 22.8 1.85 25.7 1.0 30.1 1.0 26.4 2.75 24.65 4.45 22.85 6.1 22.3 7.45 21.8 8.8 21.85 9.6 L22.0 10.4 Z" fill="none" stroke="#2d4e1f" stroke-linecap="round" stroke-linejoin="round" stroke-width="1.0"/>
    <path d="M9.05 57.35 Q9.4 51.1 9.1 46.8 8.8 42.45 8.15 39.5 L7.0 34.4 Q6.45 32.25 6.35 30.35 L6.4 24.45 Q6.55 21.1 7.15 17.75 7.8 14.35 9.1 11.7 10.35 9.0 12.5 7.85 15.35 6.05 18.1 6.3 20.8 6.5 23.8 9.25 26.8 12.0 30.45 17.85 32.95 21.95 35.2 24.8 37.5 27.65 40.5 29.2 43.55 30.7 48.25 30.8 L48.3 32.25 Q48.35 33.6 47.75 35.6 47.1 37.55 45.3 39.4 43.45 41.25 39.8 42.25 L30.15 42.7 28.65 35.35 9.05 57.35" fill="#4c8335" fill-rule="evenodd" stroke="none"/>
    <path d="M9.05 57.35 Q9.4 51.1 9.1 46.8 8.8 42.45 8.15 39.5 L7.0 34.4 Q6.45 32.25 6.35 30.35 L6.4 24.45 Q6.55 21.1 7.15 17.75 7.8 14.35 9.1 11.7 10.35 9.0 12.5 7.85 15.35 6.05 18.1 6.3 20.8 6.5 23.8 9.25 26.8 12.0 30.45 17.85 32.95 21.95 35.2 24.8 37.5 27.65 40.5 29.2 43.55 30.7 48.25 30.8 L48.3 32.25 Q48.35 33.6 47.75 35.6 47.1 37.55 45.3 39.4 43.45 41.25 39.8 42.25 L30.15 42.7 28.65 35.35" fill="none" stroke="#2d4e1f" stroke-linecap="round" stroke-linejoin="round" stroke-width="1.0"/>
    <path d="M25.1 35.95 L33.5 40.6 32.1 40.4 Q30.75 40.25 28.85 40.35 26.95 40.45 25.25 41.15 23.6 41.9 22.9 43.6 L25.1 35.95" fill="#4c8335" fill-rule="evenodd" stroke="none"/>
    <path d="M22.9 43.6 Q23.6 41.9 25.25 41.15 26.95 40.45 28.85 40.35 30.75 40.25 32.1 40.4 L33.5 40.6 25.1 35.95" fill="none" stroke="#2d4e1f" stroke-linecap="round" stroke-linejoin="round" stroke-width="0.05"/>
    <path d="M42.75 46.75 L42.1 47.9 40.95 50.7 Q40.4 52.45 40.5 54.3 39.65 53.7 38.9 52.4 L37.55 49.55 36.65 46.95 36.35 45.85 42.75 46.75" fill="#ffffff" fill-rule="evenodd" stroke="none"/>
    <path d="M42.75 46.75 L42.1 47.9 40.95 50.7 Q40.4 52.45 40.5 54.3 39.65 53.7 38.9 52.4 L37.55 49.55 36.65 46.95 36.35 45.85" fill="none" stroke="#2d4e1f" stroke-linecap="round" stroke-linejoin="round" stroke-width="0.05"/>
    <path d="M54.3 42.05 L57.3 41.65 60.75 41.15 60.4 42.25 59.55 44.75 59.5 44.85 58.15 47.7 57.3 48.9 56.55 49.6 Q56.7 47.75 56.15 46.0 L55.7 44.75 54.95 43.2 54.3 42.05" fill="#ffffff" fill-rule="evenodd" stroke="none"/>
    <path d="M54.3 42.05 L54.95 43.2 55.7 44.75 56.15 46.0 Q56.7 47.75 56.55 49.6 L57.3 48.9 58.15 47.7 59.5 44.85 59.55 44.75 60.4 42.25 60.75 41.15 57.3 41.65 54.3 42.05 Z" fill="none" stroke="#2d4e1f" stroke-linecap="round" stroke-linejoin="round" stroke-width="0.05"/>
    <path d="M35.1 30.0 Q38.4 27.1 42.3 26.4 L51.0 26.75 Q54.25 25.3 56.25 24.85 L59.55 24.6 62.05 25.35 Q64.35 26.25 65.1 28.35 65.85 30.4 65.25 33.05 64.6 35.75 62.8 38.5 60.95 41.2 58.15 43.5 L56.05 43.75 52.5 43.4 Q50.4 43.25 47.7 44.05 45.0 44.85 41.8 47.35 L39.15 49.3 Q37.85 50.1 36.25 49.85 34.7 49.65 32.7 47.65 30.65 45.65 27.95 41.2 26.55 38.35 25.15 37.05 23.75 35.7 22.25 35.05 L19.05 33.6 Q17.35 32.85 15.4 31.2 13.4 29.5 11.1 26.1 L35.1 30.0" fill="#4c8335" fill-rule="evenodd" stroke="none"/>
    <path d="M35.1 30.0 Q38.4 27.1 42.3 26.4 L51.0 26.75 Q54.25 25.3 56.25 24.85 L59.55 24.6 62.05 25.35 Q64.35 26.25 65.1 28.35 65.85 30.4 65.25 33.05 64.6 35.75 62.8 38.5 60.95 41.2 58.15 43.5 L56.05 43.75 52.5 43.4 Q50.4 43.25 47.7 44.05 45.0 44.85 41.8 47.35 L39.15 49.3 Q37.85 50.1 36.25 49.85 34.7 49.65 32.7 47.65 30.65 45.65 27.95 41.2 26.55 38.35 25.15 37.05 23.75 35.7 22.25 35.05 L19.05 33.6 Q17.35 32.85 15.4 31.2 13.4 29.5 11.1 26.1" fill="none" stroke="#2d4e1f" stroke-linecap="round" stroke-linejoin="round" stroke-width="1.0"/>
    <path d="M43.3 37.25 Q43.65 38.95 43.25 40.25 42.9 41.5 41.95 41.7 41.0 41.85 40.15 40.85 39.3 39.85 38.95 38.15 38.6 36.45 39.0 35.15 39.4 33.9 40.3 33.65 41.25 33.5 42.1 34.55 42.95 35.55 43.3 37.25" fill="#000000" fill-rule="evenodd" stroke="none"/>
    <path d="M61.75 32.2 Q62.05 33.6 61.45 35.4 60.85 37.2 59.85 38.15 58.8 39.15 57.8 38.9 56.85 38.55 56.6 37.1 56.3 35.7 56.9 33.9 57.5 32.1 58.5 31.15 59.55 30.15 60.55 30.4 61.5 30.75 61.75 32.2" fill="#000000" fill-rule="evenodd" stroke="none"/>
  </g>
</svg>
