<?xml version="1.0" encoding="UTF-8" standalone="no"?>
<svg xmlns:xlink="http://www.w3.org/1999/xlink" height="195.35px" width="129.55px" xmlns="http://www.w3.org/2000/svg">
  <g transform="matrix(1.0, 0.0, 0.0, 1.0, 64.15, 71.75)">
    <path d="M60.15 28.9 L60.15 28.85 61.35 30.15 60.15 28.9" fill="#4c8335" fill-rule="evenodd" stroke="none"/>
    <path d="M14.6 117.1 L-14.05 116.4 -21.45 99.45 22.35 97.7 14.6 117.1" fill="#4c8335" fill-rule="evenodd" stroke="none"/>
    <path d="M14.6 117.1 L22.35 97.7 -21.45 99.45 -14.05 116.4 14.6 117.1 Z" fill="none" stroke="#000000" stroke-linecap="round" stroke-linejoin="round" stroke-width="1.0"/>
    <path d="M-61.9 43.65 L-54.55 50.65 Q-47.6 57.4 -38.85 67.1 -30.05 76.8 -24.2 86.0 -18.4 95.25 -20.2 100.5 -21.5 103.75 -20.35 107.95 -19.2 112.2 -16.2 114.4 -13.55 116.5 -15.05 117.85 L-17.05 119.25 -38.6 122.4 -40.7 121.35 -49.9 123.1 -49.15 120.65 -62.95 119.95 -54.8 118.35 -38.45 115.2 -25.85 112.9 Q-49.9 99.25 -57.2 83.3 -64.5 67.35 -63.55 55.8 -62.6 44.2 -61.9 43.65" fill="#4c8335" fill-rule="evenodd" stroke="none"/>
    <path d="M-61.9 43.65 Q-62.6 44.2 -63.55 55.8 -64.5 67.35 -57.2 83.3 -49.9 99.25 -25.85 112.9 L-38.45 115.2 -54.8 118.35 -62.95 119.95 -49.15 120.65 -49.9 123.1 -40.7 121.35 -38.6 122.4 -17.05 119.25 -15.05 117.85 Q-13.55 116.5 -16.2 114.4 -19.2 112.2 -20.35 107.95 -21.5 103.75 -20.2 100.5 -18.4 95.25 -24.2 86.0 -30.05 76.8 -38.85 67.1 -47.6 57.4 -54.55 50.65 L-61.9 43.65 Z" fill="none" stroke="#000000" stroke-linecap="round" stroke-linejoin="round" stroke-width="1.0"/>
    <path d="M62.25 43.65 Q62.95 44.2 63.9 55.8 64.8 67.35 57.5 83.3 50.2 99.25 26.2 112.9 L38.8 115.2 55.15 118.35 63.3 119.95 49.5 120.65 50.2 123.1 41.05 121.35 38.9 122.4 17.35 119.25 15.4 117.85 Q13.9 116.5 16.5 114.4 19.55 112.2 20.7 107.95 21.8 103.75 20.55 100.5 18.75 95.25 24.55 86.0 30.4 76.8 39.15 67.1 47.95 57.4 54.9 50.65 L62.25 43.65" fill="#4c8335" fill-rule="evenodd" stroke="none"/>
    <path d="M62.25 43.65 Q62.95 44.2 63.9 55.8 64.8 67.35 57.5 83.3 50.2 99.25 26.2 112.9 L38.8 115.2 55.15 118.35 63.3 119.95 49.5 120.65 50.2 123.1 41.05 121.35 38.9 122.4 17.35 119.25 15.4 117.85 Q13.9 116.5 16.5 114.4 19.55 112.2 20.7 107.95 21.8 103.75 20.55 100.5 18.75 95.25 24.55 86.0 30.4 76.8 39.15 67.1 47.95 57.4 54.9 50.65 L62.25 43.65 Z" fill="none" stroke="#000000" stroke-linecap="round" stroke-linejoin="round" stroke-width="1.0"/>
    <path d="M8.75 -71.25 Q8.6 -70.9 9.2 -63.3 9.75 -55.7 12.85 -44.95 15.9 -34.25 23.25 -24.55 L38.3 -6.8 Q47.55 4.1 55.4 18.45 63.25 32.8 64.9 50.0 64.65 70.55 54.85 81.7 45.05 92.9 32.0 97.45 18.95 102.0 9.0 102.75 L-1.5 103.3 -14.4 101.55 Q-26.5 99.6 -40.25 92.6 -54.0 85.6 -59.75 70.8 -66.9 48.45 -58.5 27.3 -50.15 6.1 -29.75 -15.7 -15.9 -31.25 -10.45 -43.55 -5.0 -55.8 -4.2 -62.95 -3.45 -70.1 -3.75 -70.25 L8.75 -71.25" fill="#4c8335" fill-rule="evenodd" stroke="none"/>
    <path d="M8.75 -71.25 L-3.75 -70.25 Q-3.45 -70.1 -4.2 -62.95 -5.0 -55.8 -10.45 -43.55 -15.9 -31.25 -29.75 -15.7 -50.15 6.1 -58.5 27.3 -66.9 48.45 -59.75 70.8 -54.0 85.6 -40.25 92.6 -26.5 99.6 -14.4 101.55 L-1.5 103.3 9.0 102.75 Q18.95 102.0 32.0 97.45 45.05 92.9 54.85 81.7 64.65 70.55 64.9 50.0 63.25 32.8 55.4 18.45 47.55 4.1 38.3 -6.8 L23.25 -24.55 Q15.9 -34.25 12.85 -44.95 9.75 -55.7 9.2 -63.3 8.6 -70.9 8.75 -71.25 Z" fill="none" stroke="#000000" stroke-linecap="round" stroke-linejoin="round" stroke-width="1.0"/>
    <path d="M1.8 -28.5 Q11.55 -28.25 17.2 -19.9 22.85 -11.55 31.8 -1.5 41.55 7.9 48.05 21.3 54.55 34.7 55.05 53.9 55.0 72.1 46.7 82.3 38.35 92.55 27.2 97.0 16.05 101.5 7.55 102.5 L-1.45 103.35 -10.75 102.45 Q-19.5 101.35 -30.65 96.45 -41.85 91.55 -49.45 80.4 -57.05 69.2 -55.15 49.3 -52.35 36.0 -48.9 27.8 -45.45 19.6 -40.65 12.8 L-29.2 -3.0 Q-20.3 -16.35 -15.0 -22.3 -9.75 -28.25 1.8 -28.5" fill="#f3e016" fill-rule="evenodd" stroke="none"/>
    <path d="M1.8 -28.5 Q-9.75 -28.25 -15.0 -22.3 -20.3 -16.35 -29.2 -3.0 L-40.65 12.8 Q-45.45 19.6 -48.9 27.8 -52.35 36.0 -55.15 49.3 -57.05 69.2 -49.45 80.4 -41.85 91.55 -30.65 96.45 -19.5 101.35 -10.75 102.45 L-1.45 103.35 7.55 102.5 Q16.05 101.5 27.2 97.0 38.35 92.55 46.7 82.3 55.0 72.1 55.05 53.9 54.55 34.7 48.05 21.3 41.55 7.9 31.8 -1.5 22.85 -11.55 17.2 -19.9 11.55 -28.25 1.8 -28.5 Z" fill="none" stroke="#000000" stroke-linecap="round" stroke-linejoin="round" stroke-width="1.0"/>
    <path d="M-0.45 65.85 Q0.0 68.4 -0.85 69.0 -1.85 69.15 -2.45 66.7 -2.95 64.15 -2.1 63.55 -1.1 63.4 -0.45 65.85" fill="#000000" fill-rule="evenodd" stroke="none"/>
  </g>
</svg>
