<?xml version="1.0" encoding="UTF-8" standalone="no"?>
<svg xmlns:xlink="http://www.w3.org/1999/xlink" height="130.3px" width="160.0px" xmlns="http://www.w3.org/2000/svg">
  <g transform="matrix(1.0, 0.0, 0.0, 1.0, 15.0, 125.1)">
    <path d="M8.8 -106.3 Q-14.5 -88.35 -14.5 -62.5 -14.5 -31.8 16.9 -12.9 10.05 -4.15 0.1 0.15 L9.1 3.6 Q27.45 7.65 40.8 -3.25 51.95 -0.45 65.0 -0.45 97.9 -0.45 121.2 -18.45 144.5 -36.75 144.5 -62.5 144.5 -88.0 121.2 -106.3 97.9 -124.6 65.0 -124.6 32.05 -124.6 8.8 -106.3" fill="#ffffff" fill-rule="evenodd" stroke="none"/>
    <path d="M8.8 -106.3 Q32.05 -124.6 65.0 -124.6 97.9 -124.6 121.2 -106.3 144.5 -88.0 144.5 -62.5 144.5 -36.75 121.2 -18.45 97.9 -0.45 65.0 -0.45 51.95 -0.45 40.8 -3.25 27.45 7.65 9.1 3.6 L0.1 0.15 Q10.05 -4.15 16.9 -12.9 -14.5 -31.8 -14.5 -62.5 -14.5 -88.35 8.8 -106.3 Z" fill="none" stroke="#000000" stroke-linecap="round" stroke-linejoin="round" stroke-width="1.0"/>
  </g>
</svg>
