<?xml version="1.0" encoding="UTF-8" standalone="no"?>
<svg xmlns:xlink="http://www.w3.org/1999/xlink" height="61.95px" width="69.4px" xmlns="http://www.w3.org/2000/svg">
  <g transform="matrix(1.0, 0.0, 0.0, 1.0, 34.7, 30.95)">
    <path d="M1.1 -29.6 L7.3 -30.8 7.35 -30.8 7.5 -30.75 7.6 -30.75 7.4 -30.85 11.25 -30.75 19.25 -27.7 19.05 -27.75 19.3 -27.65 18.8 -27.8 15.0 -27.9 14.95 -27.9 14.25 -27.8 9.15 -26.8 8.95 -26.75 8.75 -26.7 2.9 -25.55 2.1 -25.5 1.95 -25.45 1.1 -25.4 1.0 -25.4 0.75 -25.35 -3.1 -24.45 -7.4 -22.45 Q-10.3 -20.8 -14.35 -19.3 L-14.6 -19.2 -15.1 -19.05 -15.3 -18.95 -18.75 -18.1 -21.65 -17.6 -22.55 -17.55 -26.35 -17.45 -27.1 -17.55 -24.65 12.6 -32.3 9.7 -34.7 -20.45 -34.5 -20.35 -33.35 -20.3 -30.15 -20.45 -29.4 -20.5 -29.3 -20.5 Q-26.5 -20.8 -22.7 -21.95 L-21.6 -22.35 -15.35 -25.2 -14.55 -25.65 Q-12.9 -26.6 -10.95 -27.2 L-10.7 -27.35 -6.6 -28.3 -6.55 -28.3 -5.55 -28.4 -4.9 -28.4 -4.8 -28.45 -4.75 -28.45 0.75 -29.5 1.1 -29.6 M24.4 -21.0 L24.05 -21.1 20.45 -21.35 12.85 -24.2 13.0 -24.2 16.75 -23.9 22.9 -21.55 24.2 -21.05 24.4 -21.0 M18.55 -16.5 L18.45 -16.55 21.0 -16.3 29.15 -13.25 28.9 -13.3 29.3 -13.15 26.1 -13.6 18.5 -16.5 18.55 -16.5 M22.45 -7.2 L22.0 -7.35 22.1 -7.35 22.25 -7.3 22.7 -7.15 23.4 -6.9 31.05 -4.05 30.15 -4.3 31.1 -3.95 29.6 -4.4 22.0 -7.3 22.45 -7.2 M30.15 -4.3 L23.45 -6.85 22.7 -7.15 23.45 -6.85 30.15 -4.3 M8.65 17.75 L9.25 18.05 9.35 18.1 13.45 19.6 Q18.35 21.35 21.9 23.65 23.9 25.15 24.95 27.05 26.0 28.95 28.05 30.95 L28.0 30.95 28.05 31.0 20.4 28.15 Q18.35 26.15 17.3 24.2 16.25 22.3 14.3 20.8 11.8 19.25 8.75 17.9 L2.05 15.4 Q-3.5 12.75 -10.85 8.2 L-11.0 8.15 -11.4 7.95 -9.75 8.6 -4.3 10.65 Q-3.7 10.85 -3.25 11.1 L-1.2 12.35 8.65 17.75" fill="#7f0000" fill-rule="evenodd" stroke="none"/>
    <path d="M24.4 -21.0 L24.05 -21.1 20.45 -21.35 12.85 -24.2 13.0 -24.2 M24.2 -21.05 L24.4 -21.0 24.65 -20.9 M30.15 -4.3 L31.1 -3.95 29.6 -4.4 22.0 -7.3 22.45 -7.2 M22.7 -7.15 L23.45 -6.85 30.15 -4.3" fill="none" stroke="#000000" stroke-linecap="round" stroke-linejoin="round" stroke-opacity="0.003921569" stroke-width="0.05"/>
    <path d="M20.2 -27.15 Q21.95 -25.85 20.45 -21.35 27.25 -21.35 27.0 -17.9 26.8 -14.45 26.1 -13.65 27.2 -14.0 30.25 -12.65 33.35 -11.35 29.6 -4.45 36.0 -2.35 34.4 1.15 32.8 4.7 30.45 5.9 L24.9 8.25 20.8 9.8 27.25 15.8 Q28.2 16.55 30.35 21.5 32.55 26.45 28.0 30.95 25.95 28.95 24.9 27.05 23.85 25.15 21.9 23.65 19.6 22.15 16.3 20.75 13.0 19.35 10.4 18.5 4.55 16.0 -3.25 11.1 -6.85 9.2 -13.8 9.95 -18.8 10.55 -24.7 12.6 L-27.1 -17.55 Q-26.85 -17.3 -21.7 -17.65 -18.9 -17.9 -15.1 -19.05 -10.25 -20.8 -6.95 -22.75 -3.6 -24.7 1.0 -25.4 L2.05 -25.5 2.9 -25.55 8.75 -26.7 14.95 -27.9 Q18.45 -28.45 20.2 -27.15" fill="#e40000" fill-rule="evenodd" stroke="none"/>
  </g>
</svg>
