<?xml version="1.0" encoding="UTF-8" standalone="no"?>
<svg xmlns:xlink="http://www.w3.org/1999/xlink" height="53.9px" width="53.9px" xmlns="http://www.w3.org/2000/svg">
  <g transform="matrix(1.0, 0.0, 0.0, 1.0, 26.95, 26.95)">
    <path d="M18.0 -18.0 Q25.45 -10.55 25.45 0.0 L25.2 3.8 Q24.05 11.9 18.0 18.0 10.55 25.45 0.0 25.45 -10.55 25.45 -18.0 18.0 -24.1 11.9 -25.2 3.8 L-25.45 0.0 Q-25.45 -10.55 -18.0 -18.0 -10.55 -25.45 0.0 -25.45 10.55 -25.45 18.0 -18.0" fill="#ffffff" fill-opacity="0.0" fill-rule="evenodd" stroke="none"/>
    <path d="M18.0 -18.0 Q25.45 -10.55 25.45 0.0 L25.2 3.8 Q24.05 11.9 18.0 18.0 10.55 25.45 0.0 25.45 -10.55 25.45 -18.0 18.0 -24.1 11.9 -25.2 3.8 L-25.45 0.0 Q-25.45 -10.55 -18.0 -18.0 -10.55 -25.45 0.0 -25.45 10.55 -25.45 18.0 -18.0 Z" fill="none" stroke="#ffff00" stroke-linecap="round" stroke-linejoin="round" stroke-width="3.0"/>
  </g>
</svg>
