<?xml version="1.0" encoding="UTF-8" standalone="no"?>
<svg xmlns:xlink="http://www.w3.org/1999/xlink" height="231.5px" width="78.75px" xmlns="http://www.w3.org/2000/svg">
  <g transform="matrix(1.0, 0.0, 0.0, 1.0, 37.35, 101.25)">
    <path d="M2.1 8.9 Q5.85 8.8 7.95 10.6 3.6 12.95 2.4 25.7 1.15 38.5 1.35 50.75 L1.7 63.95 Q2.2 64.15 3.35 69.1 4.55 74.2 0.55 81.45 -0.15 76.75 -0.35 72.3 -0.55 75.5 -0.15 79.3 0.2 83.1 -0.2 83.8 -3.75 79.15 -4.15 74.1 -4.55 69.0 -2.15 65.45 -1.6 61.25 -1.6 50.05 -1.55 38.85 -0.9 27.0 -0.25 15.15 2.1 8.9" fill="#ffffff" fill-rule="evenodd" stroke="none"/>
    <path d="M2.1 8.9 Q-0.25 15.15 -0.9 27.0 -1.55 38.85 -1.6 50.05 -1.6 61.25 -2.15 65.45 -4.55 69.0 -4.15 74.1 -3.75 79.15 -0.2 83.8 0.2 83.1 -0.15 79.3 -0.55 75.5 -0.35 72.3 -0.15 76.75 0.55 81.45 4.55 74.2 3.35 69.1 2.2 64.15 1.7 63.95 L1.35 50.75 Q1.15 38.5 2.4 25.7 3.6 12.95 7.95 10.6 5.85 8.8 2.1 8.9 Z" fill="none" stroke="#000000" stroke-linecap="round" stroke-linejoin="round" stroke-width="1.0"/>
    <path d="M18.3 119.4 L13.95 122.6 Q9.75 125.7 5.35 127.8 1.0 129.9 0.3 127.15 1.6 118.3 8.25 116.55 14.9 114.75 15.85 115.15 L13.8 102.5 Q11.9 90.65 10.1 77.85 8.25 65.0 8.35 61.2 8.75 57.75 11.35 49.85 13.9 41.9 16.45 34.9 L19.2 27.5 -15.2 28.25 -13.35 34.2 -9.75 46.3 -7.15 55.65 Q-6.55 59.95 -8.1 64.9 L-9.9 70.15 -22.35 109.1 Q-21.65 109.45 -17.15 114.25 -12.7 119.05 -12.65 124.95 -21.4 124.45 -24.4 115.75 -23.55 122.3 -24.95 125.15 -26.25 128.0 -26.55 127.9 -27.25 127.65 -31.8 123.65 -36.35 119.8 -36.85 115.85 -36.35 112.75 -31.25 100.45 L-21.1 75.7 Q-16.0 63.35 -15.5 59.9 -15.65 56.6 -19.95 45.15 L-28.5 22.3 Q-32.8 10.8 -32.95 7.35 -31.9 2.95 -26.25 -0.75 -20.7 -4.4 -19.9 -4.65 L-20.5 -53.4 1.05 -86.35 4.4 -100.75 18.85 -97.7 21.4 -87.55 38.1 -54.05 29.25 -2.0 39.1 11.5 34.5 23.1 Q30.15 33.9 25.7 45.65 21.25 57.4 20.65 60.8 20.45 64.5 21.95 79.1 23.4 93.75 25.0 107.5 L26.7 122.15 Q26.8 122.85 23.4 126.55 20.15 130.25 12.75 129.65 10.9 127.8 14.35 123.75 17.25 120.3 18.3 119.4 L18.55 119.1 18.3 119.4" fill="#ffffff" fill-rule="evenodd" stroke="none"/>
    <path d="M18.3 119.4 Q17.25 120.3 14.35 123.75 10.9 127.8 12.75 129.65 20.15 130.25 23.4 126.55 26.8 122.85 26.7 122.15 L25.0 107.5 Q23.4 93.75 21.95 79.1 20.45 64.5 20.65 60.8 21.25 57.4 25.7 45.65 30.15 33.9 34.5 23.1 L39.1 11.5 29.25 -2.0 38.1 -54.05 21.4 -87.55 18.85 -97.7 4.4 -100.75 1.05 -86.35 -20.5 -53.4 -19.9 -4.65 Q-20.7 -4.4 -26.25 -0.75 -31.9 2.95 -32.95 7.35 -32.8 10.8 -28.5 22.3 L-19.95 45.15 Q-15.65 56.6 -15.5 59.9 -16.0 63.35 -21.1 75.7 L-31.25 100.45 Q-36.35 112.75 -36.85 115.85 -36.35 119.8 -31.8 123.65 -27.25 127.65 -26.55 127.9 -26.25 128.0 -24.95 125.15 -23.55 122.3 -24.4 115.75 -21.4 124.45 -12.65 124.95 -12.7 119.05 -17.15 114.25 -21.65 109.45 -22.35 109.1 L-9.9 70.15 -8.1 64.9 Q-6.55 59.95 -7.15 55.65 L-9.75 46.3 -13.35 34.2 -15.2 28.25 19.2 27.5 16.45 34.9 Q13.9 41.9 11.35 49.85 8.75 57.75 8.35 61.2 8.25 65.0 10.1 77.85 11.9 90.65 13.8 102.5 L15.85 115.15 Q14.9 114.75 8.25 116.55 1.6 118.3 0.3 127.15 1.0 129.9 5.35 127.8 9.75 125.7 13.95 122.6 L18.3 119.4 18.55 119.1" fill="none" stroke="#000000" stroke-linecap="round" stroke-linejoin="round" stroke-width="1.0"/>
    <path d="M31.5 -22.1 Q31.2 -21.25 30.0 -14.35 28.75 -7.45 29.7 -4.3 31.35 -1.7 35.05 3.15 38.7 7.9 39.1 11.6 38.85 14.35 35.4 22.7 L28.5 38.65 24.8 46.8 16.15 38.15 17.65 33.5 Q18.9 29.15 18.55 24.55 17.45 19.7 13.3 11.55 9.1 3.35 7.45 -2.15 7.0 -8.15 13.35 -17.6 19.75 -27.1 23.2 -28.3 26.1 -28.2 28.7 -25.4 L31.5 -22.1" fill="#9c5715" fill-rule="evenodd" stroke="none"/>
    <path d="M31.5 -22.1 L28.7 -25.4 Q26.1 -28.2 23.2 -28.3 19.75 -27.1 13.35 -17.6 7.0 -8.15 7.45 -2.15 9.1 3.35 13.3 11.55 17.45 19.7 18.55 24.55 18.9 29.15 17.65 33.5 L16.15 38.15 24.8 46.8 28.5 38.65 35.4 22.7 Q38.85 14.35 39.1 11.6 38.7 7.9 35.05 3.15 31.35 -1.7 29.7 -4.3 28.75 -7.45 30.0 -14.35 31.2 -21.25 31.5 -22.1 Z" fill="none" stroke="#000000" stroke-linecap="round" stroke-linejoin="round" stroke-width="1.0"/>
    <path d="M21.5 -87.15 L27.0 -79.45 Q32.1 -71.95 36.75 -62.9 39.7 -59.35 40.9 -56.55 40.95 -53.25 40.15 -48.15 39.3 -43.05 39.25 -38.15 39.6 -30.5 40.3 -24.45 41.1 -18.35 40.4 -15.0 L35.15 0.6 31.35 10.95 33.85 18.15 Q35.95 24.7 35.45 28.45 33.55 34.15 30.65 37.05 L27.45 40.0 28.8 33.45 Q29.85 27.45 29.0 24.4 28.75 30.85 25.25 33.8 L21.1 36.65 20.1 32.85 Q19.2 29.3 19.9 24.85 20.95 20.35 23.25 16.5 L25.7 12.45 27.05 -1.15 29.4 -26.95 Q30.45 -40.2 30.0 -42.9 27.65 -48.15 27.0 -48.15 L21.5 -87.15" fill="#ffffff" fill-rule="evenodd" stroke="none"/>
    <path d="M20.15 -96.8 L21.4 -87.3 21.5 -87.15 27.0 -79.45 Q32.1 -71.95 36.75 -62.9 39.7 -59.35 40.9 -56.55 40.95 -53.25 40.15 -48.15 39.3 -43.05 39.25 -38.15 39.6 -30.5 40.3 -24.45 41.1 -18.35 40.4 -15.0 L35.15 0.6 31.35 10.95 33.85 18.15 Q35.95 24.7 35.45 28.45 33.55 34.15 30.65 37.05 L27.45 40.0 28.8 33.45 Q29.85 27.45 29.0 24.4 28.75 30.85 25.25 33.8 L21.1 36.65 20.1 32.85 Q19.2 29.3 19.9 24.85 20.95 20.35 23.25 16.5 L25.7 12.45 27.05 -1.15 29.4 -26.95 Q30.45 -40.2 30.0 -42.9 27.65 -48.15 27.0 -48.15" fill="none" stroke="#000000" stroke-linecap="round" stroke-linejoin="round" stroke-width="1.0"/>
    <path d="M20.45 20.25 Q19.8 27.6 14.5 32.15 9.35 36.7 1.9 36.5 -5.4 35.8 -10.0 30.5 -14.55 25.35 -14.25 17.95 -13.6 10.6 -8.35 6.0 -3.15 1.45 4.2 1.8 11.6 2.4 16.15 7.65 20.7 12.85 20.45 20.25" fill="#f4c0d7" fill-rule="evenodd" stroke="none"/>
    <path d="M20.45 20.25 Q19.8 27.6 14.5 32.15 9.35 36.7 1.9 36.5 -5.4 35.8 -10.0 30.5 -14.55 25.35 -14.25 17.95 -13.6 10.6 -8.35 6.0 -3.15 1.45 4.2 1.8 11.6 2.4 16.15 7.65 20.7 12.85 20.45 20.25 Z" fill="none" stroke="#000000" stroke-linecap="round" stroke-linejoin="round" stroke-width="1.0"/>
    <path d="M-3.0 8.65 L-1.75 12.3 Q-2.25 13.35 -5.6 17.6 -9.0 21.8 -9.25 17.35 -8.65 12.0 -5.95 10.25 -3.35 8.55 -3.0 8.65" fill="#f4c0d7" fill-rule="evenodd" stroke="none"/>
    <path d="M-3.0 8.65 Q-3.35 8.55 -5.95 10.25 -8.65 12.0 -9.25 17.35 -9.0 21.8 -5.6 17.6 -2.25 13.35 -1.75 12.3" fill="none" stroke="#000000" stroke-linecap="round" stroke-linejoin="round" stroke-width="1.0"/>
    <path d="M-5.15 23.4 L-3.9 27.05 Q-4.4 28.1 -7.75 32.35 -11.15 36.55 -11.4 32.1 -10.8 26.75 -8.1 25.0 -5.5 23.3 -5.15 23.4" fill="#f4c0d7" fill-rule="evenodd" stroke="none"/>
    <path d="M-5.15 23.4 Q-5.5 23.3 -8.1 25.0 -10.8 26.75 -11.4 32.1 -11.15 36.55 -7.75 32.35 -4.4 28.1 -3.9 27.05" fill="none" stroke="#000000" stroke-linecap="round" stroke-linejoin="round" stroke-width="1.0"/>
    <path d="M9.15 12.75 L10.85 9.3 Q11.25 9.2 13.65 11.25 16.0 13.35 15.95 18.7 15.1 23.1 12.3 18.45 9.5 13.8 9.15 12.75" fill="#f4c0d7" fill-rule="evenodd" stroke="none"/>
    <path d="M10.85 9.3 Q11.25 9.2 13.65 11.25 16.0 13.35 15.95 18.7 15.1 23.1 12.3 18.45 9.5 13.8 9.15 12.75" fill="none" stroke="#000000" stroke-linecap="round" stroke-linejoin="round" stroke-width="1.0"/>
    <path d="M8.7 26.45 L10.4 23.0 Q10.8 22.9 13.2 24.95 15.55 27.05 15.5 32.4 14.65 36.8 11.85 32.15 9.05 27.5 8.7 26.45" fill="#f4c0d7" fill-rule="evenodd" stroke="none"/>
    <path d="M10.4 23.0 Q10.8 22.9 13.2 24.95 15.55 27.05 15.5 32.4 14.65 36.8 11.85 32.15 9.05 27.5 8.7 26.45" fill="none" stroke="#000000" stroke-linecap="round" stroke-linejoin="round" stroke-width="1.0"/>
    <path d="M19.7 -76.6 L20.5 -82.65 21.15 -87.15 25.5 -81.7 Q29.45 -76.6 32.65 -70.95 L37.9 -60.95 32.2 -60.3 Q27.15 -59.85 24.25 -61.2 22.0 -63.25 20.8 -68.8 19.6 -74.4 19.7 -76.6" fill="#9c5715" fill-rule="evenodd" stroke="none"/>
    <path d="M19.7 -76.6 Q19.6 -74.4 20.8 -68.8 22.0 -63.25 24.25 -61.2 27.15 -59.85 32.2 -60.3 L37.9 -60.95 32.65 -70.95 Q29.45 -76.6 25.5 -81.7 L21.15 -87.15 20.5 -82.65 19.7 -76.6 Z" fill="none" stroke="#000000" stroke-linecap="round" stroke-linejoin="round" stroke-width="1.0"/>
    <path d="M-0.2 -85.05 L2.65 -75.75 Q5.15 -67.3 6.1 -62.25 6.75 -54.65 4.65 -45.0 3.6 -41.3 -2.9 -34.85 -9.45 -28.4 -15.8 -23.15 L-22.6 -17.55 -20.55 -53.25 -0.2 -85.05" fill="#9c5715" fill-rule="evenodd" stroke="none"/>
    <path d="M-0.2 -85.05 L2.65 -75.75 Q5.15 -67.3 6.1 -62.25 6.75 -54.65 4.65 -45.0 3.6 -41.3 -2.9 -34.85 -9.45 -28.4 -15.8 -23.15 L-22.6 -17.55 -20.55 -53.25 -0.2 -85.05 Z" fill="none" stroke="#000000" stroke-linecap="round" stroke-linejoin="round" stroke-width="1.0"/>
    <path d="M0.15 -85.6 L-11.0 -49.35 Q-11.8 -49.05 -14.55 -44.55 -15.1 -42.25 -15.85 -29.9 L-16.9 -5.7 -17.35 7.0 -15.35 11.7 Q-13.5 16.25 -12.7 23.5 -12.75 28.05 -15.95 32.65 L-19.7 37.55 -21.5 32.15 Q-23.05 27.2 -22.5 23.0 -24.7 27.8 -24.05 32.75 L-23.05 37.95 -25.7 33.65 Q-28.15 29.7 -29.15 26.25 -30.15 18.9 -27.45 13.35 L-24.2 7.45 -25.95 -2.7 -28.55 -18.3 Q-28.95 -22.85 -27.3 -31.55 -25.75 -40.25 -23.7 -48.8 L-23.25 -58.5 Q-22.4 -60.65 -20.0 -62.95 -17.75 -65.3 -15.55 -68.45 -10.15 -76.45 -4.75 -81.25 L0.15 -85.6" fill="#9c5715" fill-rule="evenodd" stroke="none"/>
    <path d="M3.5 -96.55 L1.05 -86.25 0.15 -85.6 M-11.0 -49.35 Q-11.8 -49.05 -14.55 -44.55 -15.1 -42.25 -15.85 -29.9 L-16.9 -5.7 -17.35 7.0 -15.35 11.7 Q-13.5 16.25 -12.7 23.5 -12.75 28.05 -15.95 32.65 L-19.7 37.55 -21.5 32.15 Q-23.05 27.2 -22.5 23.0 -24.7 27.8 -24.05 32.75 L-23.05 37.95 -25.7 33.65 Q-28.15 29.7 -29.15 26.25 -30.15 18.9 -27.45 13.35 L-24.2 7.45 -25.95 -2.7 -28.55 -18.3 Q-28.95 -22.85 -27.3 -31.55 -25.75 -40.25 -23.7 -48.8 L-23.25 -58.5 Q-22.4 -60.65 -20.0 -62.95 -17.75 -65.3 -15.55 -68.45 -10.15 -76.45 -4.75 -81.25 L0.15 -85.6" fill="none" stroke="#000000" stroke-linecap="round" stroke-linejoin="round" stroke-width="1.0"/>
  </g>
</svg>
