<?xml version="1.0" encoding="UTF-8" standalone="no"?>
<svg xmlns:xlink="http://www.w3.org/1999/xlink" height="72.5px" width="66.9px" xmlns="http://www.w3.org/2000/svg">
  <g transform="matrix(1.0, 0.0, 0.0, 1.0, 32.25, 62.9)">
    <path d="M8.4 -38.0 L15.55 -40.95 Q21.85 -43.6 23.1 -44.9 23.45 -46.75 23.35 -52.8 L23.25 -59.7 28.55 -51.55 Q33.2 -44.25 34.15 -41.1 33.85 -39.4 27.95 -36.0 21.9 -32.6 15.85 -29.7 L9.35 -26.65 8.4 -38.0" fill="#e6b98a" fill-rule="evenodd" stroke="none"/>
    <path d="M8.4 -38.0 L15.55 -40.95 Q21.85 -43.6 23.1 -44.9 23.45 -46.75 23.35 -52.8 L23.25 -59.7 28.55 -51.55 Q33.2 -44.25 34.15 -41.1 33.85 -39.4 27.95 -36.0 21.9 -32.6 15.85 -29.7 L9.35 -26.65" fill="none" stroke="#000000" stroke-linecap="round" stroke-linejoin="round" stroke-width="1.0"/>
    <path d="M-9.05 -27.85 L-14.85 -31.85 -25.6 -39.8 Q-31.05 -43.95 -31.75 -45.4 -31.3 -48.1 -25.35 -54.85 L-18.45 -62.4 -19.7 -55.65 Q-20.75 -49.65 -20.3 -47.7 -18.85 -46.15 -13.1 -42.75 -7.4 -39.3 -6.6 -38.95 L-9.05 -27.85" fill="#e6b98a" fill-rule="evenodd" stroke="none"/>
    <path d="M-6.6 -38.95 Q-7.4 -39.3 -13.1 -42.75 -18.85 -46.15 -20.3 -47.7 -20.75 -49.65 -19.7 -55.65 L-18.45 -62.4 -25.35 -54.85 Q-31.3 -48.1 -31.75 -45.4 -31.05 -43.95 -25.6 -39.8 L-14.85 -31.85 -9.05 -27.85" fill="none" stroke="#000000" stroke-linecap="round" stroke-linejoin="round" stroke-width="1.0"/>
    <path d="M8.25 -38.5 L13.05 5.15 -3.15 7.15 -21.05 3.45 -18.55 -7.2 -13.4 -27.6 Q-10.6 -38.1 -9.0 -40.4 -6.05 -42.4 0.65 -40.65 L8.25 -38.5" fill="#ffffff" fill-rule="evenodd" stroke="none"/>
    <path d="M8.25 -38.5 L13.05 5.15 -3.15 7.15 -21.05 3.45 -18.55 -7.2 -13.4 -27.6 Q-10.6 -38.1 -9.0 -40.4 -6.05 -42.4 0.65 -40.65 L8.25 -38.5 Z" fill="none" stroke="#000000" stroke-linecap="round" stroke-linejoin="round" stroke-width="1.0"/>
    <path d="M-14.75 9.1 L-18.75 -6.85 -15.45 -20.1 -3.7 -8.65 -3.8 7.6 Q-3.8 6.9 -14.75 9.1" fill="#9c5715" fill-rule="evenodd" stroke="none"/>
    <path d="M-18.75 -6.85 L-15.45 -20.1 -3.7 -8.65 -3.8 7.6 Q-3.8 6.9 -14.75 9.1" fill="none" stroke="#000000" stroke-linecap="round" stroke-linejoin="round" stroke-width="1.0"/>
    <path d="M9.85 -15.65 L5.15 -15.45 Q0.8 -15.45 -1.9 -18.5 -3.8 -22.75 -1.5 -31.1 0.65 -39.5 1.15 -40.45 L8.15 -38.6 9.85 -15.65" fill="#9c5715" fill-rule="evenodd" stroke="none"/>
    <path d="M9.85 -15.65 L5.15 -15.45 Q0.8 -15.45 -1.9 -18.5 -3.8 -22.75 -1.5 -31.1 0.65 -39.5 1.15 -40.45 L8.15 -38.6 9.85 -15.65 Z" fill="none" stroke="#000000" stroke-linecap="round" stroke-linejoin="round" stroke-width="1.0"/>
    <path d="M8.4 -30.2 L12.95 -28.95 Q17.15 -27.7 21.25 -25.55 25.45 -23.35 25.75 -20.5 19.3 -20.1 15.25 -21.4 11.15 -22.8 11.05 -23.0 L8.4 -30.2" fill="#9c5715" fill-rule="evenodd" stroke="none"/>
    <path d="M8.4 -30.2 L12.95 -28.95 Q17.15 -27.7 21.25 -25.55 25.45 -23.35 25.75 -20.5 19.3 -20.1 15.25 -21.4 11.15 -22.8 11.05 -23.0" fill="none" stroke="#000000" stroke-linecap="round" stroke-linejoin="round" stroke-width="1.0"/>
    <path d="M-14.2 -25.5 Q-13.95 -25.3 -16.8 -23.95 -19.6 -22.6 -28.95 -23.05 -28.65 -25.9 -24.45 -28.05 -20.3 -30.2 -16.1 -31.5 L-11.6 -32.7 -14.2 -25.5" fill="#ffffff" fill-rule="evenodd" stroke="none"/>
    <path d="M-11.6 -32.7 L-16.1 -31.5 Q-20.3 -30.2 -24.45 -28.05 -28.65 -25.9 -28.95 -23.05 -19.6 -22.6 -16.8 -23.95 -13.95 -25.3 -14.2 -25.5" fill="none" stroke="#000000" stroke-linecap="round" stroke-linejoin="round" stroke-width="1.0"/>
  </g>
</svg>
