<?xml version="1.0" encoding="UTF-8" standalone="no"?>
<svg xmlns:xlink="http://www.w3.org/1999/xlink" height="10.0px" width="26.75px" xmlns="http://www.w3.org/2000/svg">
  <g transform="matrix(1.0, 0.0, 0.0, 1.0, 13.35, 5.0)">
    <path d="M-12.85 0.0 Q-12.45 -4.1 -8.35 -4.5 -4.25 -4.1 -3.85 0.0 -4.25 4.1 -8.35 4.5 -12.45 4.1 -12.85 0.0" fill="#f4c0d7" fill-rule="evenodd" stroke="none"/>
    <path d="M-12.85 0.0 Q-12.45 -4.1 -8.35 -4.5 -4.25 -4.1 -3.85 0.0 -4.25 4.1 -8.35 4.5 -12.45 4.1 -12.85 0.0 Z" fill="none" stroke="#000000" stroke-linecap="round" stroke-linejoin="round" stroke-width="1.0"/>
    <path d="M3.9 0.0 Q4.3 -4.1 8.4 -4.5 12.5 -4.1 12.9 0.0 12.5 4.1 8.4 4.5 4.3 4.1 3.9 0.0" fill="#f4c0d7" fill-rule="evenodd" stroke="none"/>
    <path d="M3.9 0.0 Q4.3 -4.1 8.4 -4.5 12.5 -4.1 12.9 0.0 12.5 4.1 8.4 4.5 4.3 4.1 3.9 0.0 Z" fill="none" stroke="#000000" stroke-linecap="round" stroke-linejoin="round" stroke-width="1.0"/>
    <path d="M-6.15 0.0 Q-6.25 1.15 -7.4 1.25 -8.6 1.15 -8.7 0.0 -8.6 -1.2 -7.4 -1.3 -6.25 -1.2 -6.15 0.0" fill="#000000" fill-rule="evenodd" stroke="none"/>
    <path d="M9.35 0.0 Q9.25 1.15 8.1 1.25 6.9 1.15 6.8 0.0 6.9 -1.2 8.1 -1.3 9.25 -1.2 9.35 0.0" fill="#000000" fill-rule="evenodd" stroke="none"/>
  </g>
</svg>
