<?xml version="1.0" encoding="UTF-8" standalone="no"?>
<svg xmlns:xlink="http://www.w3.org/1999/xlink" height="26.7px" width="51.35px" xmlns="http://www.w3.org/2000/svg">
  <g transform="matrix(1.0, 0.0, 0.0, 1.0, 26.35, 22.7)">
    <path d="M-20.7 -4.45 L-12.5 -6.8 -12.55 -2.35 Q-12.6 1.65 -13.45 2.7 L-17.3 3.2 Q-20.0 3.15 -21.05 2.05 -21.7 0.7 -21.3 -1.7 L-20.7 -4.45" fill="#fcfca8" fill-rule="evenodd" stroke="none"/>
    <path d="M-20.7 -4.45 L-21.3 -1.7 Q-21.7 0.7 -21.05 2.05 -20.0 3.15 -17.3 3.2 L-13.45 2.7 Q-12.6 1.65 -12.55 -2.35 L-12.5 -6.8" fill="none" stroke="#000000" stroke-linecap="round" stroke-linejoin="round" stroke-width="1.0"/>
    <path d="M13.15 -2.7 L19.55 -8.35 21.4 -4.3 Q23.05 -0.7 22.8 0.6 21.95 1.55 19.5 2.7 17.0 3.8 15.65 3.35 14.45 2.35 13.8 0.0 13.1 -2.4 13.15 -2.7" fill="#fcfca8" fill-rule="evenodd" stroke="none"/>
    <path d="M13.15 -2.7 Q13.1 -2.4 13.8 0.0 14.45 2.35 15.65 3.35 17.0 3.8 19.5 2.7 21.95 1.55 22.8 0.6 23.05 -0.7 21.4 -4.3 L19.55 -8.35" fill="none" stroke="#000000" stroke-linecap="round" stroke-linejoin="round" stroke-width="1.0"/>
    <path d="M11.8 -18.8 L16.05 -20.5 Q19.95 -21.95 22.55 -21.1 24.55 -19.55 24.5 -15.1 24.4 -10.65 23.55 -8.3 22.45 -6.2 18.8 -4.1 15.05 -2.0 13.45 -1.85 11.75 -2.25 7.2 -4.4 2.55 -6.55 -0.45 -6.9 L11.8 -18.8" fill="#ffffff" fill-rule="evenodd" stroke="none"/>
    <path d="M-0.45 -6.9 Q2.55 -6.55 7.2 -4.4 11.75 -2.25 13.45 -1.85 15.05 -2.0 18.8 -4.1 22.45 -6.2 23.55 -8.3 24.4 -10.65 24.5 -15.1 24.55 -19.55 22.55 -21.1 19.95 -21.95 16.05 -20.5 L11.8 -18.8" fill="none" stroke="#000000" stroke-linecap="round" stroke-linejoin="round" stroke-width="1.0"/>
    <path d="M11.2 -7.15 Q10.3 -7.8 10.7 -9.7 11.1 -11.65 11.85 -13.0 14.55 -16.05 17.55 -15.2 19.95 -13.2 17.75 -8.95 16.25 -7.1 14.25 -6.8 12.2 -6.65 11.2 -7.15" fill="#f4c0d7" fill-rule="evenodd" stroke="none"/>
    <path d="M11.2 -7.15 Q10.3 -7.8 10.7 -9.7 11.1 -11.65 11.85 -13.0 14.55 -16.05 17.55 -15.2 19.95 -13.2 17.75 -8.95 16.25 -7.1 14.25 -6.8 12.2 -6.65 11.2 -7.15 Z" fill="none" stroke="#000000" stroke-linecap="round" stroke-linejoin="round" stroke-width="1.0"/>
    <path d="M-0.45 -6.95 L-10.05 -5.3 Q-16.55 -3.8 -19.7 -3.35 -22.5 -3.3 -24.2 -6.8 -25.95 -10.35 -25.85 -15.35 -25.6 -18.7 -24.2 -20.35 -22.9 -22.0 -22.05 -22.2 L-16.75 -21.7 -12.2 -20.95 -0.45 -6.95" fill="#9c5715" fill-rule="evenodd" stroke="none"/>
    <path d="M-12.2 -20.95 L-16.75 -21.7 -22.05 -22.2 Q-22.9 -22.0 -24.2 -20.35 -25.6 -18.7 -25.85 -15.35 -25.95 -10.35 -24.2 -6.8 -22.5 -3.3 -19.7 -3.35 -16.55 -3.8 -10.05 -5.3 L-0.45 -6.95" fill="none" stroke="#000000" stroke-linecap="round" stroke-linejoin="round" stroke-width="1.0"/>
    <path d="M-19.85 -8.4 Q-20.9 -8.5 -21.6 -10.35 -22.25 -12.2 -22.2 -13.75 -22.05 -15.35 -20.95 -16.95 -19.8 -18.65 -18.55 -18.6 -15.45 -18.1 -15.15 -13.3 -15.5 -10.9 -17.1 -9.65 -18.7 -8.5 -19.85 -8.4" fill="#f4c0d7" fill-rule="evenodd" stroke="none"/>
    <path d="M-19.85 -8.4 Q-20.9 -8.5 -21.6 -10.35 -22.25 -12.2 -22.2 -13.75 -22.05 -15.35 -20.95 -16.95 -19.8 -18.65 -18.55 -18.6 -15.45 -18.1 -15.15 -13.3 -15.5 -10.9 -17.1 -9.65 -18.7 -8.5 -19.85 -8.4 Z" fill="none" stroke="#000000" stroke-linecap="round" stroke-linejoin="round" stroke-width="1.0"/>
  </g>
</svg>
