<?xml version="1.0" encoding="UTF-8" standalone="no"?>
<svg xmlns:xlink="http://www.w3.org/1999/xlink" height="147.0px" width="147.0px" xmlns="http://www.w3.org/2000/svg">
  <g transform="matrix(1.0, 0.0, 0.0, 1.0, 73.5, 73.5)">
    <path d="M-73.5 0.0 L-73.5 0.5 Q-73.2 10.5 -70.8 19.45 -68.25 28.9 -63.45 37.1 -58.8 45.1 -51.95 51.95 L-51.75 52.15 Q-44.8 59.1 -36.6 63.8 -28.3 68.55 -18.85 70.95 -9.95 73.25 0.0 73.5 10.25 73.25 19.4 70.8 28.85 68.3 37.1 63.5 45.1 58.8 51.95 51.95 L52.15 51.75 Q59.1 44.8 63.8 36.6 68.55 28.35 70.95 18.85 73.25 9.95 73.5 0.0 L73.5 -0.4 Q73.2 -10.5 70.8 -19.45 68.25 -28.9 63.45 -37.15 58.8 -45.1 51.95 -51.95 L51.65 -52.25 Q44.65 -59.2 36.45 -63.85 28.25 -68.55 18.8 -71.0 9.95 -73.25 0.0 -73.5 L-0.5 -73.5 Q-10.6 -73.2 -19.55 -70.8 -28.95 -68.25 -37.15 -63.45 -45.1 -58.8 -51.95 -51.95 L-52.15 -51.7 Q-59.15 -44.7 -63.8 -36.55 -68.55 -28.3 -71.0 -18.8 -73.25 -9.95 -73.5 0.0" fill="#000000" fill-rule="evenodd" stroke="none">
      <animate attributeName="fill" dur="2s" repeatCount="indefinite" values="#000000;#000001"/>
      <animate attributeName="fill-opacity" dur="2s" repeatCount="indefinite" values="1.0;1.0"/>
      <animate attributeName="d" dur="2s" repeatCount="indefinite" values="M-73.5 0.0 L-73.5 0.5 Q-73.2 10.5 -70.8 19.45 -68.25 28.9 -63.45 37.1 -58.8 45.1 -51.95 51.95 L-51.75 52.15 Q-44.8 59.1 -36.6 63.8 -28.3 68.55 -18.85 70.95 -9.95 73.25 0.0 73.5 10.25 73.25 19.4 70.8 28.85 68.3 37.1 63.5 45.1 58.8 51.95 51.95 L52.15 51.75 Q59.1 44.8 63.8 36.6 68.55 28.35 70.95 18.85 73.25 9.95 73.5 0.0 L73.5 -0.4 Q73.2 -10.5 70.8 -19.45 68.25 -28.9 63.45 -37.15 58.8 -45.1 51.95 -51.95 L51.65 -52.25 Q44.65 -59.2 36.45 -63.85 28.25 -68.55 18.8 -71.0 9.95 -73.25 0.0 -73.5 L-0.5 -73.5 Q-10.6 -73.2 -19.55 -70.8 -28.95 -68.25 -37.15 -63.45 -45.1 -58.8 -51.95 -51.95 L-52.15 -51.7 Q-59.15 -44.7 -63.8 -36.55 -68.55 -28.3 -71.0 -18.8 -73.25 -9.95 -73.5 0.0;M-73.35 0.0 L-73.35 0.0 Q-65.0 7.6 -56.7 15.2 -60.1 25.95 -63.5 36.65 -52.65 39.05 -41.8 41.4 L-41.5 41.5 Q-39.1 52.5 -36.7 63.5 -25.95 60.05 -15.2 56.65 -7.6 65.0 0.0 73.35 7.6 65.0 15.2 56.65 25.95 60.1 36.65 63.5 39.05 52.65 41.4 41.8 L41.5 41.5 Q52.5 39.05 63.5 36.65 60.05 25.9 56.65 15.2 64.95 7.65 73.25 0.1 L73.35 0.0 Q65.0 -7.6 56.65 -15.2 60.1 -25.95 63.5 -36.7 52.7 -39.05 41.9 -41.4 L41.5 -41.5 Q39.05 -52.5 36.65 -63.5 25.9 -60.1 15.2 -56.7 7.65 -65.0 0.1 -73.25 L0.0 -73.35 Q-7.6 -65.0 -15.2 -56.7 -25.95 -60.1 -36.7 -63.5 -39.05 -52.65 -41.4 -41.8 L-41.5 -41.5 Q-52.5 -39.1 -63.5 -36.7 -60.1 -25.95 -56.7 -15.2 -65.05 -7.6 -73.35 0.0"/>
    </path>
    <path d="M-73.5 0.0 Q-73.25 -9.95 -71.0 -18.8 -68.55 -28.3 -63.8 -36.55 -59.15 -44.7 -52.15 -51.7 L-51.95 -51.95 Q-45.1 -58.8 -37.15 -63.45 -28.95 -68.25 -19.55 -70.8 -10.6 -73.2 -0.5 -73.5 L0.0 -73.5 Q9.95 -73.25 18.8 -71.0 28.25 -68.55 36.45 -63.85 44.65 -59.2 51.65 -52.25 L51.95 -51.95 Q58.8 -45.1 63.45 -37.15 68.25 -28.9 70.8 -19.45 73.2 -10.5 73.5 -0.4 L73.5 0.0 Q73.25 9.95 70.95 18.85 68.55 28.35 63.8 36.6 59.1 44.8 52.15 51.75 L51.95 51.95 Q45.1 58.8 37.1 63.5 28.85 68.3 19.4 70.8 10.25 73.25 0.0 73.5 -9.95 73.25 -18.85 70.95 -28.3 68.55 -36.6 63.8 -44.8 59.1 -51.75 52.15 L-51.95 51.95 Q-58.8 45.1 -63.45 37.1 -68.25 28.9 -70.8 19.45 -73.2 10.5 -73.5 0.5 L-73.5 0.0" fill="none" stroke="#000000" stroke-linecap="round" stroke-linejoin="round" stroke-opacity="0.0" stroke-width="1.0">
      <animate attributeName="stroke" dur="2s" repeatCount="indefinite" values="#000000;#000001"/>
      <animate attributeName="stroke-width" dur="2s" repeatCount="indefinite" values="0.0;0.0"/>
      <animate attributeName="fill-opacity" dur="2s" repeatCount="indefinite" values="0.0;0.0"/>
      <animate attributeName="d" dur="2s" repeatCount="indefinite" values="M-73.5 0.0 Q-73.25 -9.95 -71.0 -18.8 -68.55 -28.3 -63.8 -36.55 -59.15 -44.7 -52.15 -51.7 L-51.95 -51.95 Q-45.1 -58.8 -37.15 -63.45 -28.95 -68.25 -19.55 -70.8 -10.6 -73.2 -0.5 -73.5 L0.0 -73.5 Q9.95 -73.25 18.8 -71.0 28.25 -68.55 36.45 -63.85 44.65 -59.2 51.65 -52.25 L51.95 -51.95 Q58.8 -45.1 63.45 -37.15 68.25 -28.9 70.8 -19.45 73.2 -10.5 73.5 -0.4 L73.5 0.0 Q73.25 9.95 70.95 18.85 68.55 28.35 63.8 36.6 59.1 44.8 52.15 51.75 L51.95 51.95 Q45.1 58.8 37.1 63.5 28.85 68.3 19.4 70.8 10.25 73.25 0.0 73.5 -9.95 73.25 -18.85 70.95 -28.3 68.55 -36.6 63.8 -44.8 59.1 -51.75 52.15 L-51.95 51.95 Q-58.8 45.1 -63.45 37.1 -68.25 28.9 -70.8 19.45 -73.2 10.5 -73.5 0.5 L-73.5 0.0;M-73.35 0.0 Q-65.05 -7.6 -56.7 -15.2 -60.1 -25.95 -63.5 -36.7 -52.5 -39.1 -41.5 -41.5 L-41.4 -41.8 Q-39.05 -52.65 -36.7 -63.5 -25.95 -60.1 -15.2 -56.7 -7.6 -65.0 0.0 -73.35 L0.1 -73.25 Q7.65 -65.0 15.2 -56.7 25.9 -60.1 36.65 -63.5 39.05 -52.5 41.5 -41.5 L41.9 -41.4 Q52.7 -39.05 63.5 -36.7 60.1 -25.95 56.65 -15.2 65.0 -7.6 73.35 0.0 L73.25 0.1 Q64.95 7.65 56.65 15.2 60.05 25.9 63.5 36.65 52.5 39.05 41.5 41.5 L41.4 41.8 Q39.05 52.65 36.65 63.5 25.95 60.1 15.2 56.65 7.6 65.0 0.0 73.35 -7.6 65.0 -15.2 56.65 -25.95 60.05 -36.7 63.5 -39.1 52.5 -41.5 41.5 L-41.8 41.4 Q-52.65 39.05 -63.5 36.65 -60.1 25.95 -56.7 15.2 -65.0 7.6 -73.35 0.0 L-73.35 0.0"/>
    </path>
  </g>
</svg>
