<?xml version="1.0" encoding="UTF-8" standalone="no"?>
<svg xmlns:xlink="http://www.w3.org/1999/xlink" height="148.25px" width="152.05px" xmlns="http://www.w3.org/2000/svg">
  <g transform="matrix(1.0, 0.0, 0.0, 1.0, 76.0, 74.1)">
    <path d="M-76.0 21.25 L-75.9 21.25 Q-53.15 24.75 -30.45 28.2 -31.7 45.35 -32.95 62.45 L-33.8 74.15 Q-16.85 58.5 0.05 42.9 8.55 50.8 17.05 58.65 25.45 66.4 33.85 74.15 32.15 51.15 30.5 28.2 L41.7 26.5 Q58.9 23.85 76.05 21.25 57.05 8.2 38.05 -4.8 L38.05 -4.8 Q49.55 -24.8 61.0 -44.75 44.6 -39.75 28.25 -34.75 L16.95 -31.25 Q8.5 -52.7 0.05 -74.1 -4.2 -63.35 -8.4 -52.65 -12.65 -41.95 -16.9 -31.25 -38.95 -38.0 -60.95 -44.75 L-55.4 -35.05 Q-46.7 -19.9 -38.0 -4.8 -57.0 8.25 -76.0 21.25" fill="#000000" fill-rule="evenodd" stroke="none">
      <animate attributeName="fill" dur="2s" repeatCount="indefinite" values="#000000;#000001"/>
      <animate attributeName="fill-opacity" dur="2s" repeatCount="indefinite" values="1.0;1.0"/>
      <animate attributeName="d" dur="2s" repeatCount="indefinite" values="M-76.0 21.25 L-75.9 21.25 Q-53.15 24.75 -30.45 28.2 -31.7 45.35 -32.95 62.45 L-33.8 74.15 Q-16.85 58.5 0.05 42.9 8.55 50.8 17.05 58.65 25.45 66.4 33.85 74.15 32.15 51.15 30.5 28.2 L41.7 26.5 Q58.9 23.85 76.05 21.25 57.05 8.2 38.05 -4.8 L38.05 -4.8 Q49.55 -24.8 61.0 -44.75 44.6 -39.75 28.25 -34.75 L16.95 -31.25 Q8.5 -52.7 0.05 -74.1 -4.2 -63.35 -8.4 -52.65 -12.65 -41.95 -16.9 -31.25 -38.95 -38.0 -60.95 -44.75 L-55.4 -35.05 Q-46.7 -19.9 -38.0 -4.8 -57.0 8.25 -76.0 21.25;M-73.5 0.0 L-73.5 0.0 Q-73.05 17.8 -66.15 32.2 -60.9 43.05 -51.95 51.95 L-45.7 57.55 Q-32.8 67.9 -16.3 71.6 -8.55 73.3 0.0 73.5 8.6 73.3 16.4 71.55 33.0 67.85 46.0 57.35 L51.95 51.95 Q61.05 42.85 66.3 31.7 73.05 17.5 73.5 0.0 L73.5 0.0 Q73.05 -17.75 66.15 -32.1 60.9 -43.0 51.95 -51.95 L45.8 -57.5 Q32.85 -67.95 16.25 -71.6 8.5 -73.3 0.0 -73.5 -8.75 -73.25 -16.7 -71.45 -33.2 -67.75 -46.15 -57.25 L-51.95 -51.95 Q-61.1 -42.85 -66.35 -31.7 -73.05 -17.5 -73.5 0.0"/>
    </path>
    <path d="M-76.0 21.25 Q-57.0 8.25 -38.0 -4.8 -46.7 -19.9 -55.4 -35.05 L-60.95 -44.75 Q-38.95 -38.0 -16.9 -31.25 -12.65 -41.95 -8.4 -52.65 -4.2 -63.35 0.05 -74.1 8.5 -52.7 16.95 -31.25 L28.25 -34.75 Q44.6 -39.75 61.0 -44.75 49.55 -24.8 38.05 -4.8 L38.05 -4.8 Q57.05 8.2 76.05 21.25 58.9 23.85 41.7 26.5 L30.5 28.2 Q32.15 51.15 33.85 74.15 25.45 66.4 17.05 58.65 8.55 50.8 0.05 42.9 -16.85 58.5 -33.8 74.15 L-32.95 62.45 Q-31.7 45.35 -30.45 28.2 -53.15 24.75 -75.9 21.25 L-76.0 21.25" fill="none" stroke="#000000" stroke-linecap="round" stroke-linejoin="round" stroke-opacity="0.0" stroke-width="1.0">
      <animate attributeName="stroke" dur="2s" repeatCount="indefinite" values="#000000;#000001"/>
      <animate attributeName="stroke-width" dur="2s" repeatCount="indefinite" values="0.0;0.0"/>
      <animate attributeName="fill-opacity" dur="2s" repeatCount="indefinite" values="0.0;0.0"/>
      <animate attributeName="d" dur="2s" repeatCount="indefinite" values="M-76.0 21.25 Q-57.0 8.25 -38.0 -4.8 -46.7 -19.9 -55.4 -35.05 L-60.95 -44.75 Q-38.95 -38.0 -16.9 -31.25 -12.65 -41.95 -8.4 -52.65 -4.2 -63.35 0.05 -74.1 8.5 -52.7 16.95 -31.25 L28.25 -34.75 Q44.6 -39.75 61.0 -44.75 49.55 -24.8 38.05 -4.8 L38.05 -4.8 Q57.05 8.2 76.05 21.25 58.9 23.85 41.7 26.5 L30.5 28.2 Q32.15 51.15 33.85 74.15 25.45 66.4 17.05 58.65 8.55 50.8 0.05 42.9 -16.85 58.5 -33.8 74.15 L-32.95 62.45 Q-31.7 45.35 -30.45 28.2 -53.15 24.75 -75.9 21.25 L-76.0 21.25;M-73.5 0.0 Q-73.05 -17.5 -66.35 -31.7 -61.1 -42.85 -51.95 -51.95 L-46.15 -57.25 Q-33.2 -67.75 -16.7 -71.45 -8.75 -73.25 0.0 -73.5 8.5 -73.3 16.25 -71.6 32.85 -67.95 45.8 -57.5 L51.95 -51.95 Q60.9 -43.0 66.15 -32.1 73.05 -17.75 73.5 0.0 L73.5 0.0 Q73.05 17.5 66.3 31.7 61.05 42.85 51.95 51.95 L46.0 57.35 Q33.0 67.85 16.4 71.55 8.6 73.3 0.0 73.5 -8.55 73.3 -16.3 71.6 -32.8 67.9 -45.7 57.55 L-51.95 51.95 Q-60.9 43.05 -66.15 32.2 -73.05 17.8 -73.5 0.0 L-73.5 0.0"/>
    </path>
  </g>
</svg>
