<?xml version="1.0" encoding="UTF-8" standalone="no"?>
<svg xmlns:xlink="http://www.w3.org/1999/xlink" height="151.15px" width="158.9px" xmlns="http://www.w3.org/2000/svg">
  <g transform="matrix(1.0, 0.0, 0.0, 1.0, 79.45, 75.55)">
    <path d="M-73.5 0.0 L-73.5 0.4 Q-72.75 25.4 -59.2 43.65 -55.95 48.0 -51.95 51.95 -39.2 64.75 -22.45 69.95 -12.0 73.2 0.0 73.5 12.3 73.2 22.95 69.8 39.4 64.55 51.95 51.95 56.2 47.7 59.6 43.0 72.85 24.85 73.5 0.0 L73.5 -0.2 Q72.8 -25.2 59.3 -43.45 56.0 -47.9 51.95 -51.95 39.25 -64.7 22.55 -69.9 12.05 -73.2 0.0 -73.5 -12.3 -73.2 -22.95 -69.8 -39.4 -64.55 -51.95 -51.95 -56.2 -47.7 -59.6 -43.0 -72.85 -24.85 -73.5 0.0" fill="#000000" fill-rule="evenodd" stroke="none">
      <animate attributeName="fill" dur="2s" repeatCount="indefinite" values="#000000;#000001"/>
      <animate attributeName="fill-opacity" dur="2s" repeatCount="indefinite" values="1.0;1.0"/>
      <animate attributeName="d" dur="2s" repeatCount="indefinite" values="M-73.5 0.0 L-73.5 0.4 Q-72.75 25.4 -59.2 43.65 -55.95 48.0 -51.95 51.95 -39.2 64.75 -22.45 69.95 -12.0 73.2 0.0 73.5 12.3 73.2 22.95 69.8 39.4 64.55 51.95 51.95 56.2 47.7 59.6 43.0 72.85 24.85 73.5 0.0 L73.5 -0.2 Q72.8 -25.2 59.3 -43.45 56.0 -47.9 51.95 -51.95 39.25 -64.7 22.55 -69.9 12.05 -73.2 0.0 -73.5 -12.3 -73.2 -22.95 -69.8 -39.4 -64.55 -51.95 -51.95 -56.2 -47.7 -59.6 -43.0 -72.85 -24.85 -73.5 0.0;M-79.45 -17.8 L-79.45 -17.8 Q-59.55 1.55 -39.7 20.9 -40.85 27.55 -42.0 34.2 -45.55 54.9 -49.1 75.6 -36.85 69.15 -24.6 62.7 -12.3 56.25 0.0 49.8 18.3 59.4 36.6 69.0 42.85 72.3 49.1 75.6 44.4 48.25 39.75 20.9 L39.75 20.9 Q59.6 1.55 79.45 -17.8 72.75 -18.8 66.05 -19.8 45.3 -22.8 24.55 -25.8 18.4 -38.25 12.3 -50.65 6.15 -63.1 0.0 -75.55 -9.15 -57.0 -18.3 -38.5 -21.45 -32.15 -24.55 -25.8 -52.0 -21.8 -79.45 -17.8"/>
    </path>
    <path d="M-73.5 0.0 Q-72.85 -24.85 -59.6 -43.0 -56.2 -47.7 -51.95 -51.95 -39.4 -64.55 -22.95 -69.8 -12.3 -73.2 0.0 -73.5 12.05 -73.2 22.55 -69.9 39.25 -64.7 51.95 -51.95 56.0 -47.9 59.3 -43.45 72.8 -25.2 73.5 -0.2 L73.5 0.0 Q72.85 24.85 59.6 43.0 56.2 47.7 51.95 51.95 39.4 64.55 22.95 69.8 12.3 73.2 0.0 73.5 -12.0 73.2 -22.45 69.95 -39.2 64.75 -51.95 51.95 -55.95 48.0 -59.2 43.65 -72.75 25.4 -73.5 0.4 L-73.5 0.0" fill="none" stroke="#000000" stroke-linecap="round" stroke-linejoin="round" stroke-opacity="0.0" stroke-width="1.0">
      <animate attributeName="stroke" dur="2s" repeatCount="indefinite" values="#000000;#000001"/>
      <animate attributeName="stroke-width" dur="2s" repeatCount="indefinite" values="0.0;0.0"/>
      <animate attributeName="fill-opacity" dur="2s" repeatCount="indefinite" values="0.0;0.0"/>
      <animate attributeName="d" dur="2s" repeatCount="indefinite" values="M-73.5 0.0 Q-72.85 -24.85 -59.6 -43.0 -56.2 -47.7 -51.95 -51.95 -39.4 -64.55 -22.95 -69.8 -12.3 -73.2 0.0 -73.5 12.05 -73.2 22.55 -69.9 39.25 -64.7 51.95 -51.95 56.0 -47.9 59.3 -43.45 72.8 -25.2 73.5 -0.2 L73.5 0.0 Q72.85 24.85 59.6 43.0 56.2 47.7 51.95 51.95 39.4 64.55 22.95 69.8 12.3 73.2 0.0 73.5 -12.0 73.2 -22.45 69.95 -39.2 64.75 -51.95 51.95 -55.95 48.0 -59.2 43.65 -72.75 25.4 -73.5 0.4 L-73.5 0.0;M-79.45 -17.8 Q-52.0 -21.8 -24.55 -25.8 -21.45 -32.15 -18.3 -38.5 -9.15 -57.0 0.0 -75.55 6.15 -63.1 12.3 -50.65 18.4 -38.25 24.55 -25.8 45.3 -22.8 66.05 -19.8 72.75 -18.8 79.45 -17.8 59.6 1.55 39.75 20.9 L39.75 20.9 Q44.4 48.25 49.1 75.6 42.85 72.3 36.6 69.0 18.3 59.4 0.0 49.8 -12.3 56.25 -24.6 62.7 -36.85 69.15 -49.1 75.6 -45.55 54.9 -42.0 34.2 -40.85 27.55 -39.7 20.9 -59.55 1.55 -79.45 -17.8 L-79.45 -17.8"/>
    </path>
  </g>
</svg>
