<?xml version="1.0" encoding="UTF-8" standalone="no"?>
<svg xmlns:xlink="http://www.w3.org/1999/xlink" height="152.3px" width="160.1px" xmlns="http://www.w3.org/2000/svg">
  <g transform="matrix(1.0, 0.0, 0.0, 1.0, 80.05, 76.15)">
    <path d="M-80.05 -18.0 Q-72.05 5.45 -64.05 28.85 -62.25 34.65 -60.45 40.45 -54.95 58.3 -49.45 76.15 -37.05 75.95 -24.65 75.75 -12.3 75.55 0.0 75.35 18.45 75.65 36.9 75.95 43.2 76.05 49.5 76.15 56.8 52.5 64.05 28.85 72.05 5.4 80.05 -18.0 75.1 -21.45 70.2 -24.9 54.9 -35.7 39.6 -46.45 29.7 -53.85 19.8 -61.25 9.9 -68.7 0.0 -76.15 -14.75 -65.1 -29.45 -54.05 -34.5 -50.25 -39.55 -46.45 -59.8 -32.2 -80.05 -18.0" fill="#000000" fill-rule="evenodd" stroke="none">
      <animate attributeName="fill" dur="2s" repeatCount="indefinite" values="#000000;#000001"/>
      <animate attributeName="fill-opacity" dur="2s" repeatCount="indefinite" values="1.0;1.0"/>
      <animate attributeName="d" dur="2s" repeatCount="indefinite" values="M-80.05 -18.0 Q-72.05 5.45 -64.05 28.85 -62.25 34.65 -60.45 40.45 -54.95 58.3 -49.45 76.15 -37.05 75.95 -24.65 75.75 -12.3 75.55 0.0 75.35 18.45 75.65 36.9 75.95 43.2 76.05 49.5 76.15 56.8 52.5 64.05 28.85 72.05 5.4 80.05 -18.0 75.1 -21.45 70.2 -24.9 54.9 -35.7 39.6 -46.45 29.7 -53.85 19.8 -61.25 9.9 -68.7 0.0 -76.15 -14.75 -65.1 -29.45 -54.05 -34.5 -50.25 -39.55 -46.45 -59.8 -32.2 -80.05 -18.0;M-73.5 0.0 Q-72.85 25.2 -59.2 43.55 -55.95 47.95 -51.95 51.95 -39.25 64.7 -22.55 69.9 -12.05 73.2 0.0 73.5 12.25 73.2 22.85 69.8 39.35 64.55 51.95 51.95 56.2 47.7 59.6 43.05 72.85 24.85 73.5 -0.1 72.8 -25.2 59.3 -43.45 56.0 -47.9 51.95 -51.95 39.25 -64.7 22.55 -69.9 12.05 -73.2 0.0 -73.5 -12.3 -73.2 -22.95 -69.8 -39.4 -64.55 -51.95 -51.95 -56.2 -47.7 -59.6 -43.0 -72.85 -24.85 -73.5 0.0"/>
    </path>
    <path d="M-80.05 -18.0 Q-59.8 -32.2 -39.55 -46.45 -34.5 -50.25 -29.45 -54.05 -14.75 -65.1 0.0 -76.15 9.9 -68.7 19.8 -61.25 29.7 -53.85 39.6 -46.45 54.9 -35.7 70.2 -24.9 75.1 -21.45 80.05 -18.0 72.05 5.4 64.05 28.85 56.8 52.5 49.5 76.15 43.2 76.05 36.9 75.95 18.45 75.65 0.0 75.35 -12.3 75.55 -24.65 75.75 -37.05 75.95 -49.45 76.15 -54.95 58.3 -60.45 40.45 -62.25 34.65 -64.05 28.85 -72.05 5.45 -80.05 -18.0" fill="none" stroke="#000000" stroke-linecap="round" stroke-linejoin="round" stroke-opacity="0.0" stroke-width="1.0">
      <animate attributeName="stroke" dur="2s" repeatCount="indefinite" values="#000000;#000001"/>
      <animate attributeName="stroke-width" dur="2s" repeatCount="indefinite" values="0.0;0.0"/>
      <animate attributeName="fill-opacity" dur="2s" repeatCount="indefinite" values="0.0;0.0"/>
      <animate attributeName="d" dur="2s" repeatCount="indefinite" values="M-80.05 -18.0 Q-59.8 -32.2 -39.55 -46.45 -34.5 -50.25 -29.45 -54.05 -14.75 -65.1 0.0 -76.15 9.9 -68.7 19.8 -61.25 29.7 -53.85 39.6 -46.45 54.9 -35.7 70.2 -24.9 75.1 -21.45 80.05 -18.0 72.05 5.4 64.05 28.85 56.8 52.5 49.5 76.15 43.2 76.05 36.9 75.95 18.45 75.65 0.0 75.35 -12.3 75.55 -24.65 75.75 -37.05 75.95 -49.45 76.15 -54.95 58.3 -60.45 40.45 -62.25 34.65 -64.05 28.85 -72.05 5.45 -80.05 -18.0;M-73.5 0.0 Q-72.85 -24.85 -59.6 -43.0 -56.2 -47.7 -51.95 -51.95 -39.4 -64.55 -22.95 -69.8 -12.3 -73.2 0.0 -73.5 12.05 -73.2 22.55 -69.9 39.25 -64.7 51.95 -51.95 56.0 -47.9 59.3 -43.45 72.8 -25.2 73.5 -0.1 72.85 24.85 59.6 43.05 56.2 47.7 51.95 51.95 39.35 64.55 22.85 69.8 12.25 73.2 0.0 73.5 -12.05 73.2 -22.55 69.9 -39.25 64.7 -51.95 51.95 -55.95 47.95 -59.2 43.55 -72.85 25.2 -73.5 0.0"/>
    </path>
  </g>
</svg>
