<?xml version="1.0" encoding="UTF-8" standalone="no"?>
<svg xmlns:xlink="http://www.w3.org/1999/xlink" height="152.0px" width="152.0px" xmlns="http://www.w3.org/2000/svg">
  <g transform="matrix(1.0, 0.0, 0.0, 1.0, 76.7, 76.0)">
    <path d="M-9.0 0.0 Q-9.0 3.75 -6.4 6.35 -3.75 9.0 0.0 9.0 3.7 9.0 6.35 6.35 9.0 3.75 9.0 0.0 9.0 -3.75 6.35 -6.35 3.7 -9.0 0.0 -9.0 -3.75 -9.0 -6.4 -6.35 -9.0 -3.75 -9.0 0.0" fill="#ffffff" fill-opacity="0.2901961" fill-rule="evenodd" stroke="none">
      <animate attributeName="fill" dur="2s" repeatCount="indefinite" values="#ffffff;#ffffff"/>
      <animate attributeName="fill-opacity" dur="2s" repeatCount="indefinite" values="0.2901961;1.0"/>
      <animate attributeName="d" dur="2s" repeatCount="indefinite" values="M-9.0 0.0 Q-9.0 3.75 -6.4 6.35 -3.75 9.0 0.0 9.0 3.7 9.0 6.35 6.35 9.0 3.75 9.0 0.0 9.0 -3.75 6.35 -6.35 3.7 -9.0 0.0 -9.0 -3.75 -9.0 -6.4 -6.35 -9.0 -3.75 -9.0 0.0;M-76.7 0.0 Q-76.7 31.5 -54.55 53.65 -32.25 75.95 -0.7 76.0 30.9 75.95 53.15 53.65 75.35 31.5 75.3 0.0 75.35 -31.55 53.15 -53.8 30.9 -76.0 -0.7 -76.0 -32.25 -76.0 -54.55 -53.8 -76.7 -31.55 -76.7 0.0"/>
    </path>
    <path d="M-9.0 0.0 Q-9.0 -3.75 -6.4 -6.35 -3.75 -9.0 0.0 -9.0 3.7 -9.0 6.35 -6.35 9.0 -3.75 9.0 0.0 9.0 3.75 6.35 6.35 3.7 9.0 0.0 9.0 -3.75 9.0 -6.4 6.35 -9.0 3.75 -9.0 0.0" fill="none" stroke="#000000" stroke-linecap="round" stroke-linejoin="round" stroke-opacity="0.0" stroke-width="1.0">
      <animate attributeName="stroke" dur="2s" repeatCount="indefinite" values="#000000;#000001"/>
      <animate attributeName="stroke-width" dur="2s" repeatCount="indefinite" values="0.0;0.0"/>
      <animate attributeName="fill-opacity" dur="2s" repeatCount="indefinite" values="0.0;0.0"/>
      <animate attributeName="d" dur="2s" repeatCount="indefinite" values="M-9.0 0.0 Q-9.0 -3.75 -6.4 -6.35 -3.75 -9.0 0.0 -9.0 3.7 -9.0 6.35 -6.35 9.0 -3.75 9.0 0.0 9.0 3.75 6.35 6.35 3.7 9.0 0.0 9.0 -3.75 9.0 -6.4 6.35 -9.0 3.75 -9.0 0.0;M-76.7 0.0 Q-76.7 -31.55 -54.55 -53.8 -32.25 -76.0 -0.7 -76.0 30.9 -76.0 53.15 -53.8 75.35 -31.55 75.3 0.0 75.35 31.5 53.15 53.65 30.9 75.95 -0.7 76.0 -32.25 75.95 -54.55 53.65 -76.7 31.5 -76.7 0.0"/>
    </path>
  </g>
</svg>
