<?xml version="1.0" encoding="UTF-8" standalone="no"?>
<svg xmlns:xlink="http://www.w3.org/1999/xlink" height="34.35px" width="34.1px" xmlns="http://www.w3.org/2000/svg">
  <g transform="matrix(1.0, 0.0, 0.0, 1.0, 17.05, 16.4)">
    <path d="M-16.65 12.15 Q-15.5 14.95 -12.6 16.0 L-6.4 15.85 Q-1.05 13.45 -0.75 8.55 L-0.7 8.55 -0.7 -4.0 11.2 -7.55 11.2 -2.7 Q8.85 -3.15 6.4 -2.2 3.1 -0.9 1.65 1.8 0.15 4.5 1.15 7.35 2.25 10.1 5.15 11.1 8.05 12.15 11.4 11.0 16.75 8.6 17.05 3.7 L17.05 -16.4 -6.6 -10.05 -6.6 2.15 Q-8.95 1.75 -11.4 2.65 -14.65 3.95 -16.15 6.65 -17.65 9.3 -16.65 12.15" fill="#ffffff" fill-rule="evenodd" stroke="none">
      <animate attributeName="fill" dur="2s" repeatCount="indefinite" values="#ffffff;#ffffff"/>
      <animate attributeName="fill-opacity" dur="2s" repeatCount="indefinite" values="1.0;1.0"/>
      <animate attributeName="d" dur="2s" repeatCount="indefinite" values="M-16.65 12.15 Q-15.5 14.95 -12.6 16.0 L-6.4 15.85 Q-1.05 13.45 -0.75 8.55 L-0.7 8.55 -0.7 -4.0 11.2 -7.55 11.2 -2.7 Q8.85 -3.15 6.4 -2.2 3.1 -0.9 1.65 1.8 0.15 4.5 1.15 7.35 2.25 10.1 5.15 11.1 8.05 12.15 11.4 11.0 16.75 8.6 17.05 3.7 L17.05 -16.4 -6.6 -10.05 -6.6 2.15 Q-8.95 1.75 -11.4 2.65 -14.65 3.95 -16.15 6.65 -17.65 9.3 -16.65 12.15;M-16.65 12.55 Q-15.5 15.3 -12.6 16.35 L-6.4 16.2 Q-1.05 13.8 -0.75 8.9 L-0.7 8.9 -0.7 -2.4 11.2 -1.2 11.2 3.65 Q8.85 3.25 6.4 4.15 3.1 5.45 1.65 8.15 0.15 10.8 1.15 13.65 2.25 16.45 5.15 17.5 8.3 17.4 11.4 17.35 16.75 14.95 17.05 10.05 L17.05 -7.65 -6.6 -10.15 -6.6 2.5 Q-8.95 2.1 -11.4 3.0 -14.65 4.3 -16.15 7.0 -17.65 9.65 -16.65 12.55"/>
    </path>
    <path d="M-16.65 12.15 Q-17.65 9.3 -16.15 6.65 -14.65 3.95 -11.4 2.65 -8.95 1.75 -6.6 2.15 L-6.6 -10.05 17.05 -16.4 17.05 3.7 Q16.75 8.6 11.4 11.0 8.05 12.15 5.15 11.1 2.25 10.1 1.15 7.35 0.15 4.5 1.65 1.8 3.1 -0.9 6.4 -2.2 8.85 -3.15 11.2 -2.7 L11.2 -7.55 -0.7 -4.0 -0.7 8.55 -0.75 8.55 Q-1.05 13.45 -6.4 15.85 L-12.6 16.0 Q-15.5 14.95 -16.65 12.15" fill="none" stroke="#000000" stroke-linecap="round" stroke-linejoin="round" stroke-opacity="0.0" stroke-width="1.0">
      <animate attributeName="stroke" dur="2s" repeatCount="indefinite" values="#000000;#000001"/>
      <animate attributeName="stroke-width" dur="2s" repeatCount="indefinite" values="0.0;0.0"/>
      <animate attributeName="fill-opacity" dur="2s" repeatCount="indefinite" values="0.0;0.0"/>
      <animate attributeName="d" dur="2s" repeatCount="indefinite" values="M-16.65 12.15 Q-17.65 9.3 -16.15 6.65 -14.65 3.95 -11.4 2.65 -8.95 1.75 -6.6 2.15 L-6.6 -10.05 17.05 -16.4 17.05 3.7 Q16.75 8.6 11.4 11.0 8.05 12.15 5.15 11.1 2.25 10.1 1.15 7.35 0.15 4.5 1.65 1.8 3.1 -0.9 6.4 -2.2 8.85 -3.15 11.2 -2.7 L11.2 -7.55 -0.7 -4.0 -0.7 8.55 -0.75 8.55 Q-1.05 13.45 -6.4 15.85 L-12.6 16.0 Q-15.5 14.95 -16.65 12.15;M-16.65 12.55 Q-17.65 9.65 -16.15 7.0 -14.65 4.3 -11.4 3.0 -8.95 2.1 -6.6 2.5 L-6.6 -10.15 17.05 -7.65 17.05 10.05 Q16.75 14.95 11.4 17.35 8.3 17.4 5.15 17.5 2.25 16.45 1.15 13.65 0.15 10.8 1.65 8.15 3.1 5.45 6.4 4.15 8.85 3.25 11.2 3.65 L11.2 -1.2 -0.7 -2.4 -0.7 8.9 -0.75 8.9 Q-1.05 13.8 -6.4 16.2 L-12.6 16.35 Q-15.5 15.3 -16.65 12.55"/>
    </path>
  </g>
</svg>
