<?xml version="1.0" encoding="UTF-8" standalone="no"?>
<svg xmlns:xlink="http://www.w3.org/1999/xlink" height="33.9px" width="34.15px" xmlns="http://www.w3.org/2000/svg">
  <g transform="matrix(1.0, 0.0, 0.0, 1.0, 17.05, 15.95)">
    <path d="M-16.65 12.55 Q-15.5 15.3 -12.6 16.35 L-6.4 16.2 Q-1.05 13.8 -0.75 8.9 L-0.7 8.9 -0.7 -2.4 11.2 -1.2 11.2 3.65 Q8.85 3.25 6.4 4.15 3.1 5.45 1.65 8.15 0.15 10.8 1.15 13.65 2.25 16.45 5.15 17.5 L11.4 17.35 Q16.75 14.95 17.05 10.05 L17.05 -7.65 -6.6 -10.15 -6.6 2.5 Q-8.95 2.1 -11.4 3.0 -14.65 4.3 -16.15 7.0 -17.65 9.65 -16.65 12.55" fill="#ffffff" fill-rule="evenodd" stroke="none">
      <animate attributeName="fill" dur="2s" repeatCount="indefinite" values="#ffffff;#ffffff"/>
      <animate attributeName="fill-opacity" dur="2s" repeatCount="indefinite" values="1.0;1.0"/>
      <animate attributeName="d" dur="2s" repeatCount="indefinite" values="M-16.65 12.55 Q-15.5 15.3 -12.6 16.35 L-6.4 16.2 Q-1.05 13.8 -0.75 8.9 L-0.7 8.9 -0.7 -2.4 11.2 -1.2 11.2 3.65 Q8.85 3.25 6.4 4.15 3.1 5.45 1.65 8.15 0.15 10.8 1.15 13.65 2.25 16.45 5.15 17.5 L11.4 17.35 Q16.75 14.95 17.05 10.05 L17.05 -7.65 -6.6 -10.15 -6.6 2.5 Q-8.95 2.1 -11.4 3.0 -14.65 4.3 -16.15 7.0 -17.65 9.65 -16.65 12.55;M-16.65 7.5 Q-15.5 10.2 -12.55 11.25 L-6.35 11.1 Q-1.0 8.75 -0.7 3.85 L-0.7 3.85 -0.7 -7.05 11.25 -3.15 11.25 1.7 Q8.9 1.3 6.45 2.2 3.15 3.5 1.7 6.2 0.2 8.85 1.15 11.7 2.25 14.5 5.2 15.55 L11.45 15.4 Q16.8 13.0 17.1 8.05 L17.1 -8.85 -6.55 -15.95 -6.55 -2.6 Q-8.9 -3.0 -11.35 -2.1 -14.65 -0.8 -16.15 1.95 -17.6 4.6 -16.65 7.5"/>
    </path>
    <path d="M-16.65 12.55 Q-17.65 9.65 -16.15 7.0 -14.65 4.3 -11.4 3.0 -8.95 2.1 -6.6 2.5 L-6.6 -10.15 17.05 -7.65 17.05 10.05 Q16.75 14.95 11.4 17.35 L5.15 17.5 Q2.25 16.45 1.15 13.65 0.15 10.8 1.65 8.15 3.1 5.45 6.4 4.15 8.85 3.25 11.2 3.65 L11.2 -1.2 -0.7 -2.4 -0.7 8.9 -0.75 8.9 Q-1.05 13.8 -6.4 16.2 L-12.6 16.35 Q-15.5 15.3 -16.65 12.55" fill="none" stroke="#000000" stroke-linecap="round" stroke-linejoin="round" stroke-opacity="0.0" stroke-width="1.0">
      <animate attributeName="stroke" dur="2s" repeatCount="indefinite" values="#000000;#000001"/>
      <animate attributeName="stroke-width" dur="2s" repeatCount="indefinite" values="0.0;0.0"/>
      <animate attributeName="fill-opacity" dur="2s" repeatCount="indefinite" values="0.0;0.0"/>
      <animate attributeName="d" dur="2s" repeatCount="indefinite" values="M-16.65 12.55 Q-17.65 9.65 -16.15 7.0 -14.65 4.3 -11.4 3.0 -8.95 2.1 -6.6 2.5 L-6.6 -10.15 17.05 -7.65 17.05 10.05 Q16.75 14.95 11.4 17.35 L5.15 17.5 Q2.25 16.45 1.15 13.65 0.15 10.8 1.65 8.15 3.1 5.45 6.4 4.15 8.85 3.25 11.2 3.65 L11.2 -1.2 -0.7 -2.4 -0.7 8.9 -0.75 8.9 Q-1.05 13.8 -6.4 16.2 L-12.6 16.35 Q-15.5 15.3 -16.65 12.55;M-16.65 7.5 Q-17.6 4.6 -16.15 1.95 -14.65 -0.8 -11.35 -2.1 -8.9 -3.0 -6.55 -2.6 L-6.55 -15.95 17.1 -8.85 17.1 8.05 Q16.8 13.0 11.45 15.4 L5.2 15.55 Q2.25 14.5 1.15 11.7 0.2 8.85 1.7 6.2 3.15 3.5 6.45 2.2 8.9 1.3 11.25 1.7 L11.25 -3.15 -0.7 -7.05 -0.7 3.85 -0.7 3.85 Q-1.0 8.75 -6.35 11.1 L-12.55 11.25 Q-15.5 10.2 -16.65 7.5"/>
    </path>
  </g>
</svg>
