<?xml version="1.0" encoding="UTF-8" standalone="no"?>
<svg xmlns:xlink="http://www.w3.org/1999/xlink" height="34.4px" width="34.1px" xmlns="http://www.w3.org/2000/svg">
  <g transform="matrix(1.0, 0.0, 0.0, 1.0, 17.05, 17.95)">
    <path d="M-16.65 12.15 Q-15.5 14.95 -12.6 16.0 L-6.4 15.85 Q-1.05 13.45 -0.75 8.55 L-0.7 8.55 -0.7 -4.0 11.2 -7.55 11.2 -2.7 Q8.85 -3.15 6.4 -2.2 3.1 -0.9 1.65 1.8 0.15 4.5 1.15 7.35 2.25 10.1 5.15 11.1 8.05 12.15 11.4 11.0 16.75 8.6 17.05 3.7 L17.05 -16.4 -6.6 -10.05 -6.6 2.15 Q-8.95 1.75 -11.4 2.65 -14.65 3.95 -16.15 6.65 -17.65 9.3 -16.65 12.15" fill="#ffffff" fill-rule="evenodd" stroke="none">
      <animate attributeName="fill" dur="2s" repeatCount="indefinite" values="#ffffff;#ffffff"/>
      <animate attributeName="fill-opacity" dur="2s" repeatCount="indefinite" values="1.0;1.0"/>
      <animate attributeName="d" dur="2s" repeatCount="indefinite" values="M-16.65 12.15 Q-15.5 14.95 -12.6 16.0 L-6.4 15.85 Q-1.05 13.45 -0.75 8.55 L-0.7 8.55 -0.7 -4.0 11.2 -7.55 11.2 -2.7 Q8.85 -3.15 6.4 -2.2 3.1 -0.9 1.65 1.8 0.15 4.5 1.15 7.35 2.25 10.1 5.15 11.1 8.05 12.15 11.4 11.0 16.75 8.6 17.05 3.7 L17.05 -16.4 -6.6 -10.05 -6.6 2.15 Q-8.95 1.75 -11.4 2.65 -14.65 3.95 -16.15 6.65 -17.65 9.3 -16.65 12.15;M-16.65 4.75 Q-15.5 7.5 -12.6 8.55 L-6.4 8.4 Q-1.05 6.0 -0.75 1.1 L-0.7 1.1 -0.7 -10.2 11.2 -9.0 11.2 -4.15 Q8.85 -4.55 6.4 -3.65 3.1 -2.35 1.65 0.35 0.15 3.0 1.15 5.85 2.25 8.65 5.15 9.7 8.3 9.6 11.4 9.55 16.75 7.15 17.05 2.25 L17.05 -15.45 -6.6 -17.95 -6.6 -5.3 Q-8.95 -5.7 -11.4 -4.8 -14.65 -3.5 -16.15 -0.8 -17.65 1.85 -16.65 4.75"/>
    </path>
    <path d="M-16.65 12.15 Q-17.65 9.3 -16.15 6.65 -14.65 3.95 -11.4 2.65 -8.95 1.75 -6.6 2.15 L-6.6 -10.05 17.05 -16.4 17.05 3.7 Q16.75 8.6 11.4 11.0 8.05 12.15 5.15 11.1 2.25 10.1 1.15 7.35 0.15 4.5 1.65 1.8 3.1 -0.9 6.4 -2.2 8.85 -3.15 11.2 -2.7 L11.2 -7.55 -0.7 -4.0 -0.7 8.55 -0.75 8.55 Q-1.05 13.45 -6.4 15.85 L-12.6 16.0 Q-15.5 14.95 -16.65 12.15" fill="none" stroke="#000000" stroke-linecap="round" stroke-linejoin="round" stroke-opacity="0.0" stroke-width="1.0">
      <animate attributeName="stroke" dur="2s" repeatCount="indefinite" values="#000000;#000001"/>
      <animate attributeName="stroke-width" dur="2s" repeatCount="indefinite" values="0.0;0.0"/>
      <animate attributeName="fill-opacity" dur="2s" repeatCount="indefinite" values="0.0;0.0"/>
      <animate attributeName="d" dur="2s" repeatCount="indefinite" values="M-16.65 12.15 Q-17.65 9.3 -16.15 6.65 -14.65 3.95 -11.4 2.65 -8.95 1.75 -6.6 2.15 L-6.6 -10.05 17.05 -16.4 17.05 3.7 Q16.75 8.6 11.4 11.0 8.05 12.15 5.15 11.1 2.25 10.1 1.15 7.35 0.15 4.5 1.65 1.8 3.1 -0.9 6.4 -2.2 8.85 -3.15 11.2 -2.7 L11.2 -7.55 -0.7 -4.0 -0.7 8.55 -0.75 8.55 Q-1.05 13.45 -6.4 15.85 L-12.6 16.0 Q-15.5 14.95 -16.65 12.15;M-16.65 4.75 Q-17.65 1.85 -16.15 -0.8 -14.65 -3.5 -11.4 -4.8 -8.95 -5.7 -6.6 -5.3 L-6.6 -17.95 17.05 -15.45 17.05 2.25 Q16.75 7.15 11.4 9.55 8.3 9.6 5.15 9.7 2.25 8.65 1.15 5.85 0.15 3.0 1.65 0.35 3.1 -2.35 6.4 -3.65 8.85 -4.55 11.2 -4.15 L11.2 -9.0 -0.7 -10.2 -0.7 1.1 -0.75 1.1 Q-1.05 6.0 -6.4 8.4 L-12.6 8.55 Q-15.5 7.5 -16.65 4.75"/>
    </path>
  </g>
</svg>
