<?xml version="1.0" encoding="UTF-8" standalone="no"?>
<svg xmlns:xlink="http://www.w3.org/1999/xlink" height="33.95px" width="34.15px" xmlns="http://www.w3.org/2000/svg">
  <g transform="matrix(1.0, 0.0, 0.0, 1.0, 17.05, 17.95)">
    <path d="M-16.65 4.75 Q-15.5 7.5 -12.6 8.55 L-6.4 8.4 Q-1.05 6.0 -0.75 1.1 L-0.7 1.1 -0.7 -10.2 11.2 -9.0 11.2 -4.15 Q8.85 -4.55 6.4 -3.65 3.1 -2.35 1.65 0.35 0.15 3.0 1.15 5.85 2.25 8.65 5.15 9.7 L11.4 9.55 Q16.75 7.15 17.05 2.25 L17.05 -15.45 -6.6 -17.95 -6.6 -5.3 Q-8.95 -5.7 -11.4 -4.8 -14.65 -3.5 -16.15 -0.8 -17.65 1.85 -16.65 4.75" fill="#ffffff" fill-rule="evenodd" stroke="none">
      <animate attributeName="fill" dur="2s" repeatCount="indefinite" values="#ffffff;#ffffff"/>
      <animate attributeName="fill-opacity" dur="2s" repeatCount="indefinite" values="1.0;1.0"/>
      <animate attributeName="d" dur="2s" repeatCount="indefinite" values="M-16.65 4.75 Q-15.5 7.5 -12.6 8.55 L-6.4 8.4 Q-1.05 6.0 -0.75 1.1 L-0.7 1.1 -0.7 -10.2 11.2 -9.0 11.2 -4.15 Q8.85 -4.55 6.4 -3.65 3.1 -2.35 1.65 0.35 0.15 3.0 1.15 5.85 2.25 8.65 5.15 9.7 L11.4 9.55 Q16.75 7.15 17.05 2.25 L17.05 -15.45 -6.6 -17.95 -6.6 -5.3 Q-8.95 -5.7 -11.4 -4.8 -14.65 -3.5 -16.15 -0.8 -17.65 1.85 -16.65 4.75;M-16.65 7.5 Q-15.5 10.2 -12.55 11.25 L-6.35 11.1 Q-1.0 8.75 -0.7 3.85 L-0.7 3.85 -0.7 -7.05 11.25 -3.15 11.25 1.7 Q8.9 1.3 6.45 2.2 3.15 3.5 1.7 6.2 0.2 8.85 1.15 11.7 2.25 14.5 5.2 15.55 L11.45 15.4 Q16.8 13.0 17.1 8.05 L17.1 -8.85 -6.55 -15.95 -6.55 -2.6 Q-8.9 -3.0 -11.35 -2.1 -14.65 -0.8 -16.15 1.95 -17.6 4.6 -16.65 7.5"/>
    </path>
    <path d="M-16.65 4.75 Q-17.65 1.85 -16.15 -0.8 -14.65 -3.5 -11.4 -4.8 -8.95 -5.7 -6.6 -5.3 L-6.6 -17.95 17.05 -15.45 17.05 2.25 Q16.75 7.15 11.4 9.55 L5.15 9.7 Q2.25 8.65 1.15 5.85 0.15 3.0 1.65 0.35 3.1 -2.35 6.4 -3.65 8.85 -4.55 11.2 -4.15 L11.2 -9.0 -0.7 -10.2 -0.7 1.1 -0.75 1.1 Q-1.05 6.0 -6.4 8.4 L-12.6 8.55 Q-15.5 7.5 -16.65 4.75" fill="none" stroke="#000000" stroke-linecap="round" stroke-linejoin="round" stroke-opacity="0.0" stroke-width="1.0">
      <animate attributeName="stroke" dur="2s" repeatCount="indefinite" values="#000000;#000001"/>
      <animate attributeName="stroke-width" dur="2s" repeatCount="indefinite" values="0.0;0.0"/>
      <animate attributeName="fill-opacity" dur="2s" repeatCount="indefinite" values="0.0;0.0"/>
      <animate attributeName="d" dur="2s" repeatCount="indefinite" values="M-16.65 4.75 Q-17.65 1.85 -16.15 -0.8 -14.65 -3.5 -11.4 -4.8 -8.95 -5.7 -6.6 -5.3 L-6.6 -17.95 17.05 -15.45 17.05 2.25 Q16.75 7.15 11.4 9.55 L5.15 9.7 Q2.25 8.65 1.15 5.85 0.15 3.0 1.65 0.35 3.1 -2.35 6.4 -3.65 8.85 -4.55 11.2 -4.15 L11.2 -9.0 -0.7 -10.2 -0.7 1.1 -0.75 1.1 Q-1.05 6.0 -6.4 8.4 L-12.6 8.55 Q-15.5 7.5 -16.65 4.75;M-16.65 7.5 Q-17.6 4.6 -16.15 1.95 -14.65 -0.8 -11.35 -2.1 -8.9 -3.0 -6.55 -2.6 L-6.55 -15.95 17.1 -8.85 17.1 8.05 Q16.8 13.0 11.45 15.4 L5.2 15.55 Q2.25 14.5 1.15 11.7 0.2 8.85 1.7 6.2 3.15 3.5 6.45 2.2 8.9 1.3 11.25 1.7 L11.25 -3.15 -0.7 -7.05 -0.7 3.85 -0.7 3.85 Q-1.0 8.75 -6.35 11.1 L-12.55 11.25 Q-15.5 10.2 -16.65 7.5"/>
    </path>
  </g>
</svg>
