<?xml version="1.0" encoding="UTF-8" standalone="no"?>
<svg xmlns:xlink="http://www.w3.org/1999/xlink" height="32.85px" width="34.15px" xmlns="http://www.w3.org/2000/svg">
  <g transform="matrix(1.0, 0.0, 0.0, 1.0, 17.05, 16.4)">
    <path d="M-16.65 7.5 Q-15.5 10.2 -12.55 11.25 L-6.35 11.1 Q-1.0 8.75 -0.7 3.85 L-0.7 3.85 -0.7 -7.05 11.25 -3.15 11.25 1.7 Q8.9 1.3 6.45 2.2 3.15 3.5 1.7 6.2 0.2 8.85 1.15 11.7 2.25 14.5 5.2 15.55 8.35 15.45 11.45 15.4 16.8 13.0 17.1 8.05 L17.1 -8.85 -6.55 -15.95 -6.55 -2.6 Q-8.9 -3.0 -11.35 -2.1 -14.65 -0.8 -16.15 1.95 -17.6 4.6 -16.65 7.5" fill="#ffffff" fill-rule="evenodd" stroke="none">
      <animate attributeName="fill" dur="2s" repeatCount="indefinite" values="#ffffff;#ffffff"/>
      <animate attributeName="fill-opacity" dur="2s" repeatCount="indefinite" values="1.0;1.0"/>
      <animate attributeName="d" dur="2s" repeatCount="indefinite" values="M-16.65 7.5 Q-15.5 10.2 -12.55 11.25 L-6.35 11.1 Q-1.0 8.75 -0.7 3.85 L-0.7 3.85 -0.7 -7.05 11.25 -3.15 11.25 1.7 Q8.9 1.3 6.45 2.2 3.15 3.5 1.7 6.2 0.2 8.85 1.15 11.7 2.25 14.5 5.2 15.55 8.35 15.45 11.45 15.4 16.8 13.0 17.1 8.05 L17.1 -8.85 -6.55 -15.95 -6.55 -2.6 Q-8.9 -3.0 -11.35 -2.1 -14.65 -0.8 -16.15 1.95 -17.6 4.6 -16.65 7.5;M-16.65 12.15 Q-15.5 14.95 -12.6 16.0 L-6.4 15.85 Q-1.05 13.45 -0.75 8.55 L-0.7 8.55 -0.7 -4.0 11.2 -7.55 11.2 -2.7 Q8.85 -3.15 6.4 -2.2 3.1 -0.9 1.65 1.8 0.15 4.5 1.15 7.35 2.25 10.1 5.15 11.1 8.05 12.15 11.4 11.0 16.75 8.6 17.05 3.7 L17.05 -16.4 -6.6 -10.05 -6.6 2.15 Q-8.95 1.75 -11.4 2.65 -14.65 3.95 -16.15 6.65 -17.65 9.3 -16.65 12.15"/>
    </path>
    <path d="M-16.65 7.5 Q-17.6 4.6 -16.15 1.95 -14.65 -0.8 -11.35 -2.1 -8.9 -3.0 -6.55 -2.6 L-6.55 -15.95 17.1 -8.85 17.1 8.05 Q16.8 13.0 11.45 15.4 8.35 15.45 5.2 15.55 2.25 14.5 1.15 11.7 0.2 8.85 1.7 6.2 3.15 3.5 6.45 2.2 8.9 1.3 11.25 1.7 L11.25 -3.15 -0.7 -7.05 -0.7 3.85 -0.7 3.85 Q-1.0 8.75 -6.35 11.1 L-12.55 11.25 Q-15.5 10.2 -16.65 7.5" fill="none" stroke="#000000" stroke-linecap="round" stroke-linejoin="round" stroke-opacity="0.0" stroke-width="1.0">
      <animate attributeName="stroke" dur="2s" repeatCount="indefinite" values="#000000;#000001"/>
      <animate attributeName="stroke-width" dur="2s" repeatCount="indefinite" values="0.0;0.0"/>
      <animate attributeName="fill-opacity" dur="2s" repeatCount="indefinite" values="0.0;0.0"/>
      <animate attributeName="d" dur="2s" repeatCount="indefinite" values="M-16.65 7.5 Q-17.6 4.6 -16.15 1.95 -14.65 -0.8 -11.35 -2.1 -8.9 -3.0 -6.55 -2.6 L-6.55 -15.95 17.1 -8.85 17.1 8.05 Q16.8 13.0 11.45 15.4 8.35 15.45 5.2 15.55 2.25 14.5 1.15 11.7 0.2 8.85 1.7 6.2 3.15 3.5 6.45 2.2 8.9 1.3 11.25 1.7 L11.25 -3.15 -0.7 -7.05 -0.7 3.85 -0.7 3.85 Q-1.0 8.75 -6.35 11.1 L-12.55 11.25 Q-15.5 10.2 -16.65 7.5;M-16.65 12.15 Q-17.65 9.3 -16.15 6.65 -14.65 3.95 -11.4 2.65 -8.95 1.75 -6.6 2.15 L-6.6 -10.05 17.05 -16.4 17.05 3.7 Q16.75 8.6 11.4 11.0 8.05 12.15 5.15 11.1 2.25 10.1 1.15 7.35 0.15 4.5 1.65 1.8 3.1 -0.9 6.4 -2.2 8.85 -3.15 11.2 -2.7 L11.2 -7.55 -0.7 -4.0 -0.7 8.55 -0.75 8.55 Q-1.05 13.45 -6.4 15.85 L-12.6 16.0 Q-15.5 14.95 -16.65 12.15"/>
    </path>
  </g>
</svg>
