<?xml version="1.0" encoding="UTF-8" standalone="no"?>
<svg xmlns:xlink="http://www.w3.org/1999/xlink" height="46.6px" width="24.6px" xmlns="http://www.w3.org/2000/svg">
  <g transform="matrix(1.0, 0.0, 0.0, 1.0, 0.5, 0.5)">
    <path d="M13.35 0.0 Q13.35 8.5 14.85 15.45 16.35 22.4 18.35 27.45 20.4 32.5 21.95 35.25 L23.6 38.0 17.1 32.6 20.6 42.5 14.4 34.8 14.6 35.7 15.45 39.0 17.4 45.6 Q13.9 40.45 11.1 34.55 8.3 28.65 6.2 22.85 4.15 17.05 2.75 12.25 1.35 7.45 0.7 4.6 L0.0 1.65 13.35 0.0" fill="#4c8335" fill-rule="evenodd" stroke="none"/>
    <path d="M0.0 1.65 L0.7 4.6 Q1.35 7.45 2.75 12.25 4.15 17.05 6.2 22.85 8.3 28.65 11.1 34.55 13.9 40.45 17.4 45.6 L15.45 39.0 14.6 35.7 14.4 34.8 20.6 42.5 17.1 32.6 23.6 38.0 21.95 35.25 Q20.4 32.5 18.35 27.45 16.35 22.4 14.85 15.45 13.35 8.5 13.35 0.0" fill="none" stroke="#2d4e1f" stroke-linecap="round" stroke-linejoin="round" stroke-width="1.0"/>
  </g>
</svg>
