<?xml version="1.0" encoding="UTF-8" standalone="no"?>
<svg xmlns:xlink="http://www.w3.org/1999/xlink" height="204.4px" width="64.5px" xmlns="http://www.w3.org/2000/svg">
  <g transform="matrix(1.0, 0.0, 0.0, 1.0, 28.75, 121.05)">
    <path d="M5.55 16.65 Q7.75 4.4 2.85 -14.5 -2.35 -32.8 -0.45 -30.6 1.5 -28.4 5.5 -7.9 8.65 12.15 6.75 20.75 4.85 29.25 4.35 29.05 L5.65 32.8 Q6.7 36.2 5.5 38.75 4.65 34.95 4.25 34.25 L1.9 40.25 1.5 34.65 -1.75 38.1 Q-1.9 35.1 0.25 32.3 L2.7 29.3 Q3.4 28.85 5.55 16.65" fill="#7c4806" fill-rule="evenodd" stroke="none"/>
    <path d="M5.55 16.65 Q3.4 28.85 2.7 29.3 L0.25 32.3 Q-1.9 35.1 -1.75 38.1 L1.5 34.65 1.9 40.25 4.25 34.25 Q4.65 34.95 5.5 38.75 6.7 36.2 5.65 32.8 L4.35 29.05 Q4.85 29.25 6.75 20.75 8.65 12.15 5.5 -7.9 1.5 -28.4 -0.45 -30.6 -2.35 -32.8 2.85 -14.5 7.75 4.4 5.55 16.65 Z" fill="none" stroke="#000000" stroke-linecap="round" stroke-linejoin="round" stroke-width="1.0"/>
    <path d="M15.3 -97.5 L22.35 -69.2 23.2 11.8 Q23.6 12.4 24.6 17.5 25.65 22.65 23.2 25.25 22.9 28.15 23.0 36.45 L23.3 52.3 23.55 60.3 27.95 70.4 19.15 74.1 16.8 70.4 16.9 58.25 16.95 34.9 16.8 19.9 14.6 8.65 10.75 -7.55 8.7 -15.8 -5.75 -15.5 Q-5.7 -14.95 -7.1 -6.1 -8.55 2.75 -12.5 13.15 -12.0 17.5 -11.8 28.85 L-11.5 50.25 -11.45 60.95 -9.8 70.4 -15.15 73.1 -19.45 68.2 -19.45 58.5 -19.6 39.65 Q-19.75 29.95 -20.25 27.25 -22.85 19.25 -21.25 16.85 -19.65 14.55 -19.2 14.8 L-21.9 -37.4 -15.15 -96.0 -6.45 -109.15 -6.45 -120.55 10.45 -120.55 11.6 -108.45 15.3 -97.5" fill="#73420d" fill-rule="evenodd" stroke="none"/>
    <path d="M15.3 -97.5 L22.35 -69.2 23.2 11.8 Q23.6 12.4 24.6 17.5 25.65 22.65 23.2 25.25 22.9 28.15 23.0 36.45 L23.3 52.3 23.55 60.3 27.95 70.4 19.15 74.1 16.8 70.4 16.9 58.25 16.95 34.9 16.8 19.9 14.6 8.65 10.75 -7.55 8.7 -15.8 -5.75 -15.5 Q-5.7 -14.95 -7.1 -6.1 -8.55 2.75 -12.5 13.15 -12.0 17.5 -11.8 28.85 L-11.5 50.25 -11.45 60.95 -9.8 70.4 -15.15 73.1 -19.45 68.2 -19.45 58.5 -19.6 39.65 Q-19.75 29.95 -20.25 27.25 -22.85 19.25 -21.25 16.85 -19.65 14.55 -19.2 14.8 L-21.9 -37.4 -15.15 -96.0 -6.45 -109.15 -6.45 -120.55 10.45 -120.55 11.6 -108.45 15.3 -97.5 Z" fill="none" stroke="#000000" stroke-linecap="round" stroke-linejoin="round" stroke-width="1.0"/>
    <path d="M-10.75 -17.6 L15.65 -17.55 Q-0.7 -10.9 -10.75 -17.6" fill="#73420d" fill-rule="evenodd" stroke="none"/>
    <path d="M-10.75 -17.6 Q-0.7 -10.9 15.65 -17.55" fill="none" stroke="#000000" stroke-linecap="round" stroke-linejoin="round" stroke-width="1.0"/>
    <path d="M-10.0 68.85 Q-7.85 69.9 -10.55 73.35 -11.7 75.35 -11.1 76.5 -10.6 77.7 -14.05 80.6 -19.1 83.9 -21.8 83.25 -24.55 82.65 -24.6 82.3 -25.0 81.75 -22.85 78.8 L-28.75 80.3 Q-26.5 71.6 -22.85 69.7 -19.25 67.8 -18.9 68.15 L-15.4 67.95 Q-12.2 67.85 -10.0 68.85" fill="#000000" fill-rule="evenodd" stroke="none"/>
    <path d="M30.5 79.15 L33.1 82.4 Q33.0 82.75 29.55 83.25 26.15 83.85 21.0 80.55 17.55 77.65 18.1 76.45 18.65 75.3 17.5 73.3 14.8 69.85 16.95 68.8 19.15 67.8 22.35 67.9 L25.85 68.1 Q26.25 67.75 29.85 69.65 33.4 71.55 35.75 80.25 L30.5 79.15" fill="#000000" fill-rule="evenodd" stroke="none"/>
  </g>
</svg>
