<?xml version="1.0" encoding="UTF-8" standalone="no"?>
<svg xmlns:xlink="http://www.w3.org/1999/xlink" height="57.5px" width="46.65px" xmlns="http://www.w3.org/2000/svg">
  <g transform="matrix(1.0, 0.0, 0.0, 1.0, 21.15, 50.85)">
    <path d="M-11.15 -2.8 L-6.75 -6.8 Q-2.5 -10.3 2.9 -10.8 8.35 -11.3 12.25 -2.8 6.75 6.65 1.4 6.1 -3.95 5.55 -7.5 1.65 L-11.15 -2.8" fill="#73420d" fill-rule="evenodd" stroke="none"/>
    <path d="M-11.15 -2.8 L-7.5 1.65 Q-3.95 5.55 1.4 6.1 6.75 6.65 12.25 -2.8 8.35 -11.3 2.9 -10.8 -2.5 -10.3 -6.75 -6.8 L-11.15 -2.8 Z" fill="none" stroke="#000000" stroke-linecap="round" stroke-linejoin="round" stroke-width="1.0"/>
    <path d="M-8.35 -3.95 L-4.85 -8.2 Q-1.5 -11.95 2.85 -12.7 7.15 -13.45 10.3 -4.95 6.45 3.0 2.15 2.8 -2.15 2.55 -5.15 -0.45 L-8.35 -3.95" fill="#fb0f0c" fill-rule="evenodd" stroke="none"/>
    <path d="M-8.35 -3.95 L-5.15 -0.45 Q-2.15 2.55 2.15 2.8 6.45 3.0 10.3 -4.95 7.15 -13.45 2.85 -12.7 -1.5 -11.95 -4.85 -8.2 L-8.35 -3.95 Z" fill="none" stroke="#000000" stroke-linecap="round" stroke-linejoin="round" stroke-width="1.0"/>
    <path d="M23.5 -3.3 Q20.65 0.8 9.5 -2.85 -1.7 -6.55 -7.5 -3.25 -13.3 0.0 -16.4 -0.2 -20.65 -1.7 -20.65 -8.2 -20.6 -14.7 -19.4 -17.2 -18.05 -19.1 -14.55 -21.2 L-10.65 -23.45 -10.9 -26.45 -11.15 -32.95 Q-11.2 -38.25 -10.6 -43.0 -10.05 -47.75 -9.2 -49.0 -8.0 -50.15 -3.45 -50.3 L5.65 -49.95 Q10.2 -49.4 11.4 -48.55 12.35 -47.25 12.8 -41.35 L13.45 -29.75 13.6 -23.7 18.15 -21.5 Q22.2 -19.45 23.9 -17.55 26.3 -7.4 23.5 -3.3" fill="#73420d" fill-rule="evenodd" stroke="none"/>
    <path d="M23.5 -3.3 Q26.3 -7.4 23.9 -17.55 22.2 -19.45 18.15 -21.5 L13.6 -23.7 13.45 -29.75 12.8 -41.35 Q12.35 -47.25 11.4 -48.55 10.2 -49.4 5.65 -49.95 L-3.45 -50.3 Q-8.0 -50.15 -9.2 -49.0 -10.05 -47.75 -10.6 -43.0 -11.2 -38.25 -11.15 -32.95 L-10.9 -26.45 -10.65 -23.45 -14.55 -21.2 Q-18.05 -19.1 -19.4 -17.2 -20.6 -14.7 -20.65 -8.2 -20.65 -1.7 -16.4 -0.2 -13.3 0.0 -7.5 -3.25 -1.7 -6.55 9.5 -2.85 20.65 0.8 23.5 -3.3 Z" fill="none" stroke="#000000" stroke-linecap="round" stroke-linejoin="round" stroke-width="1.0"/>
  </g>
</svg>
