<?xml version="1.0" encoding="UTF-8" standalone="no"?>
<svg xmlns:xlink="http://www.w3.org/1999/xlink" height="22.4px" width="24.4px" xmlns="http://www.w3.org/2000/svg">
  <g transform="matrix(1.0, 0.0, 0.0, 1.0, 11.5, 14.45)">
    <path d="M-11.0 -2.7 Q-10.8 -3.25 -6.6 -7.2 -2.35 -11.15 3.05 -11.75 8.5 -12.3 12.4 -2.7 6.9 8.0 1.55 7.4 -3.8 6.8 -7.35 2.35 -10.9 -2.05 -11.0 -2.7" fill="#73420d" fill-rule="evenodd" stroke="none"/>
    <path d="M-11.0 -2.7 Q-10.9 -2.05 -7.35 2.35 -3.8 6.8 1.55 7.4 6.9 8.0 12.4 -2.7 8.5 -12.3 3.05 -11.75 -2.35 -11.15 -6.6 -7.2 -10.8 -3.25 -11.0 -2.7 Z" fill="none" stroke="#000000" stroke-linecap="round" stroke-linejoin="round" stroke-width="1.0"/>
    <path d="M-8.2 -4.0 L-4.7 -8.8 Q-1.35 -13.05 3.0 -13.9 7.3 -14.75 10.45 -5.1 6.6 3.9 2.3 3.65 -2.0 3.4 -5.0 0.0 -8.05 -3.45 -8.2 -4.0" fill="#fb0f0c" fill-rule="evenodd" stroke="none"/>
    <path d="M-8.2 -4.0 Q-8.05 -3.45 -5.0 0.0 -2.0 3.4 2.3 3.65 6.6 3.9 10.45 -5.1 7.3 -14.75 3.0 -13.9 -1.35 -13.05 -4.7 -8.8 L-8.2 -4.0 Z" fill="none" stroke="#000000" stroke-linecap="round" stroke-linejoin="round" stroke-width="1.0"/>
  </g>
</svg>
