<?xml version="1.0" encoding="UTF-8" standalone="no"?>
<svg xmlns:xlink="http://www.w3.org/1999/xlink" height="35.55px" width="10.85px" xmlns="http://www.w3.org/2000/svg">
  <g transform="matrix(1.0, 0.0, 0.0, 1.0, 5.45, 17.75)">
    <path d="M0.05 -17.25 L4.05 -16.85 4.25 -16.7 4.9 -16.7 4.1 -14.25 1.9 17.3 -4.95 16.4 -3.45 14.6 Q-2.05 12.95 -1.55 11.4 -1.25 10.1 -0.85 4.8 L-0.05 -5.45 0.35 -10.8 Q-0.05 -10.8 -0.45 -15.0 L0.05 -17.25" fill="#73420d" fill-rule="evenodd" stroke="none"/>
    <path d="M0.05 -17.25 L-0.45 -15.0 Q-0.05 -10.8 0.35 -10.8 L-0.05 -5.45 -0.85 4.8 Q-1.25 10.1 -1.55 11.4 -2.05 12.95 -3.45 14.6 L-4.95 16.4 1.9 17.3 4.1 -14.25 4.9 -16.7" fill="none" stroke="#000000" stroke-linecap="round" stroke-linejoin="round" stroke-width="1.0"/>
  </g>
</svg>
