<?xml version="1.0" encoding="UTF-8" standalone="no"?>
<svg xmlns:xlink="http://www.w3.org/1999/xlink" height="66.8px" width="12.35px" xmlns="http://www.w3.org/2000/svg">
  <g transform="matrix(1.0, 0.0, 0.0, 1.0, 0.5, 0.5)">
    <path d="M8.75 44.4 Q10.05 38.95 10.35 31.6 10.7 24.2 9.05 15.4 7.35 6.6 7.1 2.9 6.85 -0.8 7.5 0.2 8.15 1.25 9.15 6.7 10.15 12.15 10.95 21.7 11.65 31.2 11.1 37.75 10.55 44.3 9.45 48.25 8.35 52.2 7.45 53.95 L6.45 55.7 6.75 56.75 7.3 59.25 Q7.55 60.75 7.45 62.25 7.4 63.75 6.65 64.75 L6.25 61.9 5.85 60.5 3.15 65.8 3.3 60.6 2.15 61.65 0.0 63.5 Q-0.05 62.15 0.65 60.85 1.35 59.5 2.35 58.35 L4.1 56.5 4.9 55.8 6.2 52.8 Q7.45 49.8 8.75 44.4" fill="#7c4806" fill-rule="evenodd" stroke="none"/>
    <path d="M8.75 44.4 Q7.45 49.8 6.2 52.8 L4.9 55.8 4.1 56.5 2.35 58.35 Q1.35 59.5 0.65 60.85 -0.05 62.15 0.0 63.5 L2.15 61.65 3.3 60.6 3.15 65.8 5.85 60.5 6.25 61.9 6.65 64.75 Q7.4 63.75 7.45 62.25 7.55 60.75 7.3 59.25 L6.75 56.75 6.45 55.7 7.45 53.95 Q8.35 52.2 9.45 48.25 10.55 44.3 11.1 37.75 11.65 31.2 10.95 21.7 10.15 12.15 9.15 6.7 8.15 1.25 7.5 0.2 6.85 -0.8 7.1 2.9 7.35 6.6 9.05 15.4 10.7 24.2 10.35 31.6 10.05 38.95 8.75 44.4 Z" fill="none" stroke="#000000" stroke-linecap="round" stroke-linejoin="round" stroke-width="1.0"/>
  </g>
</svg>
