<?xml version="1.0" encoding="UTF-8" standalone="no"?>
<svg xmlns:xlink="http://www.w3.org/1999/xlink" height="168.65px" width="207.5px" xmlns="http://www.w3.org/2000/svg">
  <g transform="matrix(1.0, 0.0, 0.0, 1.0, 92.8, 77.3)">
    <path d="M63.65 -50.3 Q73.2 -49.9 80.15 -44.1 87.55 -37.8 87.6 -29.0 87.55 -24.5 87.9 -20.7 94.8 -18.15 102.2 -11.95 114.7 -1.4 114.7 13.55 114.7 20.55 111.95 26.6 112.75 29.75 112.75 33.2 112.75 45.75 102.25 54.65 100.0 56.5 97.6 58.0 92.9 67.65 83.45 75.6 64.9 91.35 38.55 91.35 14.9 91.35 -2.5 78.65 -9.7 82.3 -18.65 82.35 -31.7 82.35 -40.95 74.55 -48.05 68.55 -49.65 60.65 -50.15 58.25 -50.15 55.75 L-50.05 53.6 -53.05 53.7 Q-69.55 53.65 -81.2 43.85 -92.8 34.0 -92.8 20.1 -92.8 6.2 -81.2 -3.65 -75.3 -8.6 -68.2 -11.0 L-69.35 -11.95 Q-77.35 -18.7 -77.3 -28.15 -77.35 -37.7 -69.35 -44.4 -61.4 -51.1 -50.15 -51.1 -45.8 -51.1 -41.9 -50.1 -37.8 -56.85 -30.9 -62.65 -13.55 -77.3 10.95 -77.3 25.0 -77.3 36.7 -72.5 45.35 -68.9 52.75 -62.65 59.55 -56.95 63.65 -50.3" fill="#010101" fill-opacity="0.0" fill-rule="evenodd" stroke="none"/>
  </g>
</svg>
