<?xml version="1.0" encoding="UTF-8" standalone="no"?>
<svg xmlns:xlink="http://www.w3.org/1999/xlink" height="17.85px" width="21.25px" xmlns="http://www.w3.org/2000/svg">
  <g transform="matrix(1.0, 0.0, 0.0, 1.0, 0.0, 0.0)">
    <path d="M18.1 6.2 Q20.05 9.25 21.25 14.7 L17.7 13.85 15.0 13.35 16.45 15.05 17.6 16.6 18.1 17.3 17.2 17.6 14.55 17.85 10.45 17.0 Q8.05 16.15 5.0 14.0 1.7 11.55 0.65 9.55 -0.35 7.55 0.2 6.0 0.7 4.45 2.15 3.3 3.6 2.15 5.25 1.45 6.9 0.7 8.1 0.35 L9.35 0.0 10.8 0.25 Q12.15 0.5 14.15 1.85 16.2 3.15 18.1 6.2" fill="#000000" fill-rule="evenodd" stroke="none"/>
  </g>
</svg>
