<?xml version="1.0" encoding="UTF-8" standalone="no"?>
<svg xmlns:xlink="http://www.w3.org/1999/xlink" height="31.5px" width="24.0px" xmlns="http://www.w3.org/2000/svg">
  <g transform="matrix(1.0, 0.0, 0.0, 1.0, 11.25, 18.75)">
    <path d="M-1.6 -9.0 L-2.35 -9.2 Q-10.0 -12.35 -7.9 -18.75 -0.05 -17.65 -1.2 -9.15 L-1.6 -9.0" fill="#1b7d29" fill-rule="evenodd" stroke="none"/>
    <path d="M-5.7 -8.9 L-6.2 -8.65 Q-8.75 -4.75 -1.45 -8.9 L-1.6 -9.0 -1.2 -9.15 Q4.05 -11.95 7.6 -9.45 10.2 -7.5 11.55 -2.85 10.5 -5.5 8.65 -8.45 11.35 6.25 5.45 -0.65 6.05 4.65 3.85 7.95 L2.55 9.8 Q2.3 8.8 1.75 8.75 -4.0 13.3 -8.95 8.1 L-9.0 8.1 Q-10.25 6.2 -10.8 3.5 -12.0 -2.2 -9.85 -5.8 -8.4 -8.25 -5.7 -8.9 M2.95 11.4 L2.95 11.35 3.0 11.35 2.95 11.4" fill="#de1b08" fill-rule="evenodd" stroke="none"/>
    <path d="M-1.6 -9.0 L-1.45 -8.9 Q-8.75 -4.75 -6.2 -8.65 L-5.7 -8.9 -3.3 -9.25 -2.35 -9.2 -1.6 -9.0 M-9.0 8.1 L-8.95 8.1 Q-4.0 13.3 1.75 8.75 2.3 8.8 2.55 9.8 L3.85 7.95 Q6.05 4.65 5.45 -0.65 11.35 6.25 8.65 -8.45 10.5 -5.5 11.55 -2.85 12.65 0.0 12.75 2.5 12.95 6.4 10.7 8.95 8.9 11.05 6.2 11.65 3.85 12.2 3.0 11.35 L2.95 11.35 2.95 11.4 Q-5.05 15.25 -9.0 8.1" fill="#c11707" fill-rule="evenodd" stroke="none"/>
  </g>
</svg>
