<?xml version="1.0" encoding="UTF-8" standalone="no"?>
<svg xmlns:xlink="http://www.w3.org/1999/xlink" height="59.2px" width="59.05px" xmlns="http://www.w3.org/2000/svg">
  <g transform="matrix(1.0, 0.0, 0.0, 1.0, 24.9, 27.45)">
    <path d="M34.15 -7.25 L34.15 22.9 29.2 22.75 Q26.35 22.9 22.3 23.95 17.35 25.55 13.95 27.35 10.5 29.2 5.8 29.7 L5.0 29.7 4.5 29.75 -1.6 30.7 -8.0 31.7 Q-11.35 32.0 -12.9 30.65 -14.4 29.25 -12.6 24.95 -19.25 24.7 -18.75 21.25 -18.25 17.8 -17.5 17.05 -18.6 17.35 -21.5 15.9 -24.4 14.5 -20.2 7.75 -26.3 5.4 -24.45 2.0 -22.6 -1.45 -20.25 -2.55 L-14.6 -4.7 -10.5 -6.1 -16.3 -12.35 Q-17.15 -13.1 -18.9 -18.1 -20.65 -23.1 -15.85 -27.45 -14.0 -25.4 -13.1 -23.45 -12.25 -21.5 -10.45 -19.95 -8.35 -18.35 -5.25 -16.85 L0.4 -14.4 Q5.85 -11.7 13.15 -6.5 16.35 -4.55 22.9 -4.95 27.95 -5.3 34.15 -7.25" fill="#2d8e27" fill-rule="evenodd" stroke="none"/>
  </g>
</svg>
