<?xml version="1.0" encoding="UTF-8" standalone="no"?>
<svg xmlns:xlink="http://www.w3.org/1999/xlink" height="22.1px" width="14.05px" xmlns="http://www.w3.org/2000/svg">
  <g transform="matrix(1.0, 0.0, 0.0, 1.0, 0.0, 0.0)">
    <path d="M12.6 1.1 Q14.0 2.45 14.05 4.95 14.15 7.45 13.45 10.35 L11.8 15.9 10.1 20.25 9.3 22.0 8.65 21.55 7.35 20.0 Q6.6 18.85 6.2 16.95 L5.7 19.4 5.3 22.1 Q4.35 21.8 3.1 19.5 1.85 17.2 0.9 13.9 0.0 10.6 0.0 7.4 0.05 4.2 1.65 2.1 3.25 0.0 7.05 0.1 L7.75 0.2 8.15 0.1 Q11.25 -0.3 12.6 1.1" fill="#000000" fill-rule="evenodd" stroke="none"/>
  </g>
</svg>
