<?xml version="1.0" encoding="UTF-8" standalone="no"?>
<svg xmlns:xlink="http://www.w3.org/1999/xlink" height="120.0px" width="40.7px" xmlns="http://www.w3.org/2000/svg">
  <g transform="matrix(1.0, 0.0, 0.0, 1.0, 0.5, 0.5)">
    <path d="M37.6 6.55 L36.1 12.25 34.4 17.45 Q32.75 22.05 32.15 24.45 31.55 26.85 31.8 28.15 32.0 29.45 32.75 30.75 L34.4 34.3 Q35.35 36.6 36.25 41.05 37.2 45.5 37.75 53.1 L38.7 64.95 39.45 74.0 39.7 81.9 Q39.7 85.75 39.3 90.15 L37.9 100.3 Q37.0 105.3 34.15 109.0 31.35 112.7 27.4 115.1 23.45 117.45 19.15 118.4 L10.95 118.85 Q7.05 118.35 4.35 116.4 1.65 114.4 0.95 110.9 -0.35 103.25 0.1 95.1 0.6 87.0 2.15 78.25 L5.5 60.1 Q6.9 53.0 8.75 47.1 10.6 41.15 12.4 36.85 L15.35 30.15 16.6 27.75 17.25 25.95 18.9 21.8 Q19.9 19.35 21.2 17.0 22.15 15.1 23.1 12.2 24.1 9.3 25.65 6.4 27.2 3.5 29.85 1.65 32.55 -0.2 36.9 0.0 38.0 0.1 38.1 1.95 38.2 3.8 37.6 6.55" fill="#7c4806" fill-rule="evenodd" stroke="none"/>
    <path d="M37.6 6.55 Q38.2 3.8 38.1 1.95 38.0 0.1 36.9 0.0 32.55 -0.2 29.85 1.65 27.2 3.5 25.65 6.4 24.1 9.3 23.1 12.2 22.15 15.1 21.2 17.0 19.9 19.35 18.9 21.8 L17.25 25.95 16.6 27.75 15.35 30.15 12.4 36.85 Q10.6 41.15 8.75 47.1 6.9 53.0 5.5 60.1 L2.15 78.25 Q0.6 87.0 0.1 95.1 -0.35 103.25 0.95 110.9 1.65 114.4 4.35 116.4 7.05 118.35 10.95 118.85 L19.15 118.4 Q23.45 117.45 27.4 115.1 31.35 112.7 34.15 109.0 37.0 105.3 37.9 100.3 L39.3 90.15 Q39.7 85.75 39.7 81.9 L39.45 74.0 38.7 64.95 37.75 53.1 Q37.2 45.5 36.25 41.05 35.35 36.6 34.4 34.3 L32.75 30.75 Q32.0 29.45 31.8 28.15 31.55 26.85 32.15 24.45 32.75 22.05 34.4 17.45 L36.1 12.25 37.6 6.55 Z" fill="none" stroke="#000000" stroke-linecap="round" stroke-linejoin="round" stroke-width="1.0"/>
  </g>
</svg>
