<?xml version="1.0" encoding="UTF-8" standalone="no"?>
<svg xmlns:xlink="http://www.w3.org/1999/xlink" height="2.55px" width="9.65px" xmlns="http://www.w3.org/2000/svg">
  <g transform="matrix(1.0, 0.0, 0.0, 1.0, -4.25, -4.65)">
    <path d="M6.65 5.85 L6.3 6.7 5.45 7.05 Q4.95 7.05 4.6 6.7 4.25 6.4 4.25 5.85 4.25 5.35 4.6 5.0 4.95 4.65 5.45 4.65 5.95 4.65 6.3 5.0 6.65 5.35 6.65 5.85" fill="#000000" fill-rule="evenodd" stroke="none"/>
    <path d="M13.9 6.0 L13.55 6.85 12.7 7.2 Q12.2 7.2 11.85 6.85 11.5 6.55 11.5 6.0 11.5 5.5 11.85 5.15 12.2 4.8 12.7 4.8 13.2 4.8 13.55 5.15 13.9 5.5 13.9 6.0" fill="#000000" fill-rule="evenodd" stroke="none"/>
  </g>
</svg>
