<?xml version="1.0" encoding="UTF-8" standalone="no"?>
<svg xmlns:xlink="http://www.w3.org/1999/xlink" height="9.75px" width="9.55px" xmlns="http://www.w3.org/2000/svg">
  <g transform="matrix(1.0, 0.0, 0.0, 1.0, -7.5, -1.9)">
    <path d="M9.1 10.1 Q8.0 8.45 8.0 5.95 8.0 3.45 8.6 2.8 L11.25 2.7 Q13.25 3.3 15.1 4.6 16.9 5.9 16.5 5.95 16.1 6.0 14.45 7.9 L11.45 10.8 Q10.15 11.75 9.1 10.1" fill="#ff7f00" fill-rule="evenodd" stroke="none"/>
    <path d="M9.1 10.1 Q8.0 8.45 8.0 5.95 8.0 3.45 8.6 2.8 L11.25 2.7 Q13.25 3.3 15.1 4.6 16.9 5.9 16.5 5.95 16.1 6.0 14.45 7.9 L11.45 10.8 Q10.15 11.75 9.1 10.1 Z" fill="none" stroke="#000000" stroke-linecap="round" stroke-linejoin="round" stroke-width="1.0"/>
  </g>
</svg>
