<?xml version="1.0" encoding="UTF-8" standalone="no"?>
<svg xmlns:xlink="http://www.w3.org/1999/xlink" height="85.75px" width="65.1px" xmlns="http://www.w3.org/2000/svg">
  <g transform="matrix(1.0, 0.0, 0.0, 1.0, 20.55, 62.95)">
    <path d="M2.6 3.1 L2.7 -1.4 Q5.35 1.45 8.05 3.0 10.7 4.5 12.6 5.1 L14.5 5.75 13.3 5.8 9.6 5.25 Q6.95 4.75 2.6 3.1" fill="#7c4806" fill-rule="evenodd" stroke="none"/>
    <path d="M2.6 3.1 Q6.95 4.75 9.6 5.25 L13.3 5.8 14.5 5.75 12.6 5.1 Q10.7 4.5 8.05 3.0 5.35 1.45 2.7 -1.4" fill="none" stroke="#000000" stroke-linecap="round" stroke-linejoin="round" stroke-width="1.0"/>
    <path d="M7.85 -6.95 L9.0 -5.65 11.5 -2.4 13.9 1.7 Q14.9 3.85 14.65 5.65 12.0 5.3 9.15 3.55 L3.85 -0.4 -0.05 -4.3 -1.55 -6.0 7.85 -6.95" fill="#ff0000" fill-rule="evenodd" stroke="none"/>
    <path d="M7.85 -6.95 L-1.55 -6.0 -0.05 -4.3 3.85 -0.4 9.15 3.55 Q12.0 5.3 14.65 5.65 14.9 3.85 13.9 1.7 L11.5 -2.4 9.0 -5.65 7.85 -6.95 Z" fill="none" stroke="#000000" stroke-linecap="round" stroke-linejoin="round" stroke-width="1.0"/>
    <path d="M12.0 -16.85 L13.15 -23.7 15.0 -23.4 19.2 -22.25 Q21.6 -21.4 23.5 -19.7 25.45 -18.0 25.75 -15.3 L18.9 -14.8 Q15.8 -15.2 13.9 -16.0 L12.0 -16.85" fill="#7c4806" fill-rule="evenodd" stroke="none"/>
    <path d="M13.15 -23.7 L15.0 -23.4 19.2 -22.25 Q21.6 -21.4 23.5 -19.7 25.45 -18.0 25.75 -15.3 L18.9 -14.8 Q15.8 -15.2 13.9 -16.0 L12.0 -16.85" fill="none" stroke="#000000" stroke-linecap="round" stroke-linejoin="round" stroke-width="1.0"/>
    <path d="M8.15 -28.55 L9.35 -28.7 12.3 -29.2 Q14.05 -29.6 15.95 -30.3 17.85 -30.95 19.35 -32.05 20.5 -33.0 21.3 -34.85 L22.5 -38.7 23.15 -42.1 23.35 -43.55 21.75 -43.5 18.15 -43.5 14.6 -44.05 Q13.05 -44.5 12.95 -45.45 13.0 -46.45 14.15 -46.95 15.3 -47.5 16.85 -47.7 L19.55 -47.9 20.8 -47.95 19.75 -48.05 17.4 -48.55 Q16.05 -48.85 15.05 -49.45 14.05 -50.05 14.0 -50.95 14.1 -51.85 15.25 -52.25 L17.9 -52.75 20.55 -52.8 21.55 -52.75 20.1 -53.05 16.5 -53.9 Q14.45 -54.45 12.95 -55.2 11.45 -56.0 11.5 -56.95 11.65 -57.75 13.15 -58.25 L16.8 -59.1 21.3 -59.3 25.5 -58.8 Q27.35 -58.4 28.15 -57.55 28.9 -56.65 29.05 -53.8 29.25 -50.95 28.8 -47.1 28.4 -43.25 27.35 -39.35 26.25 -35.45 24.55 -32.4 22.8 -29.35 20.35 -28.15 16.2 -26.3 12.95 -25.6 L7.8 -24.9 5.85 -24.9 8.15 -28.55" fill="#e7b98a" fill-rule="evenodd" stroke="none"/>
    <path d="M8.15 -28.55 L9.35 -28.7 12.3 -29.2 Q14.05 -29.6 15.95 -30.3 17.85 -30.95 19.35 -32.05 20.5 -33.0 21.3 -34.85 L22.5 -38.7 23.15 -42.1 23.35 -43.55 21.75 -43.5 18.15 -43.5 14.6 -44.05 Q13.05 -44.5 12.95 -45.45 13.0 -46.45 14.15 -46.95 15.3 -47.5 16.85 -47.7 L19.55 -47.9 20.8 -47.95 19.75 -48.05 17.4 -48.55 Q16.05 -48.85 15.05 -49.45 14.05 -50.05 14.0 -50.95 14.1 -51.85 15.25 -52.25 L17.9 -52.75 20.55 -52.8 21.55 -52.75 20.1 -53.05 16.5 -53.9 Q14.45 -54.45 12.95 -55.2 11.45 -56.0 11.5 -56.95 11.65 -57.75 13.15 -58.25 L16.8 -59.1 21.3 -59.3 25.5 -58.8 Q27.35 -58.4 28.15 -57.55 28.9 -56.65 29.05 -53.8 29.25 -50.95 28.8 -47.1 28.4 -43.25 27.35 -39.35 26.25 -35.45 24.55 -32.4 22.8 -29.35 20.35 -28.15 16.2 -26.3 12.95 -25.6 L7.8 -24.9 5.85 -24.9" fill="none" stroke="#000000" stroke-linecap="round" stroke-linejoin="round" stroke-width="1.0"/>
    <path d="M-20.05 -4.3 Q-10.8 -4.6 -10.45 -5.85 L-9.75 -8.15 Q-9.4 -9.15 -9.75 -11.2 -10.1 -13.2 -9.3 -15.2 -8.5 -17.2 -5.8 -19.25 L-5.9 -24.25 Q-5.75 -26.4 -4.75 -27.85 -3.8 -29.3 -1.4 -30.05 0.95 -30.8 5.2 -30.85 L8.7 -30.6 Q10.05 -30.35 11.05 -29.65 L13.2 -27.7 16.1 -24.45 18.95 -20.55 20.1 -18.5 20.65 -17.2 Q20.9 -16.6 21.65 -15.55 L24.3 -10.4 Q25.55 -8.25 27.4 -6.05 29.25 -3.9 32.6 -0.95 33.3 -0.45 34.85 -0.35 L37.9 0.0 Q39.45 0.15 40.1 0.8 41.05 2.1 41.9 4.2 L43.3 8.7 Q43.9 11.05 44.0 13.1 44.15 15.15 43.6 16.3 42.4 18.45 39.65 19.4 L33.4 20.8 25.8 21.9 19.0 22.25 Q16.05 22.1 14.9 20.8 14.0 19.5 13.7 17.2 13.45 14.95 13.35 12.45 L13.05 8.0 Q12.85 6.0 12.0 5.25 L9.4 3.3 5.2 -0.15 0.95 -4.45 -5.15 4.35 -6.95 1.15 -20.05 -4.3" fill="#7c4806" fill-rule="evenodd" stroke="none"/>
    <path d="M0.95 -4.45 L5.2 -0.15 9.4 3.3 12.0 5.25 Q12.85 6.0 13.05 8.0 L13.35 12.45 Q13.45 14.95 13.7 17.2 14.0 19.5 14.9 20.8 16.05 22.1 19.0 22.25 L25.8 21.9 33.4 20.8 39.65 19.4 Q42.4 18.45 43.6 16.3 44.15 15.15 44.0 13.1 43.9 11.05 43.3 8.7 L41.9 4.2 Q41.05 2.1 40.1 0.8 39.45 0.15 37.9 0.0 L34.85 -0.35 Q33.3 -0.45 32.6 -0.95 29.25 -3.9 27.4 -6.05 25.55 -8.25 24.3 -10.4 L21.65 -15.55 Q20.9 -16.6 20.65 -17.2 L20.1 -18.5 18.95 -20.55 16.1 -24.45 13.2 -27.7 11.05 -29.65 Q10.05 -30.35 8.7 -30.6 L5.2 -30.85 Q0.95 -30.8 -1.4 -30.05 -3.8 -29.3 -4.75 -27.85 -5.75 -26.4 -5.9 -24.25 L-5.8 -19.25 Q-8.5 -17.2 -9.3 -15.2 -10.1 -13.2 -9.75 -11.2 -9.4 -9.15 -9.75 -8.15 L-10.45 -5.85 Q-10.8 -4.6 -20.05 -4.3" fill="none" stroke="#000000" stroke-linecap="round" stroke-linejoin="round" stroke-width="1.0"/>
    <path d="M-4.4 -21.55 L-1.95 -14.8 -2.95 -14.05 Q-3.95 -13.35 -5.8 -12.45 -7.65 -11.55 -10.15 -11.0 L-15.6 -10.6 Q-15.8 -12.85 -14.75 -14.65 -13.7 -16.4 -12.0 -17.7 L-8.55 -19.9 -5.65 -21.15 -4.4 -21.55" fill="#7c4806" fill-rule="evenodd" stroke="none"/>
    <path d="M-4.4 -21.55 L-5.65 -21.15 -8.55 -19.9 -12.0 -17.7 Q-13.7 -16.4 -14.75 -14.65 -15.8 -12.85 -15.6 -10.6 L-10.15 -11.0 Q-7.65 -11.55 -5.8 -12.45 -3.95 -13.35 -2.95 -14.05 L-1.95 -14.8" fill="none" stroke="#000000" stroke-linecap="round" stroke-linejoin="round" stroke-width="1.0"/>
    <path d="M-5.45 -62.25 L-1.2 -61.4 Q0.45 -60.85 0.45 -60.05 0.35 -58.85 -1.4 -57.95 -3.15 -57.0 -5.45 -56.35 L-9.45 -55.4 -11.3 -55.05 -9.9 -55.15 -6.85 -55.15 -3.75 -54.65 Q-2.45 -54.15 -2.3 -53.1 -2.3 -52.0 -3.45 -51.3 -4.6 -50.6 -6.15 -50.2 L-8.85 -49.65 -10.1 -49.5 -8.7 -49.5 -5.6 -49.25 -2.5 -48.45 Q-1.1 -47.9 -0.95 -46.8 -0.95 -45.75 -2.55 -45.2 L-6.25 -44.5 -10.0 -44.35 -11.7 -44.4 -11.55 -42.9 -10.8 -39.25 Q-10.25 -37.05 -9.0 -34.65 -7.75 -32.25 -5.65 -30.35 -3.55 -28.4 -0.35 -27.55 L0.1 -26.9 Q0.5 -26.25 0.35 -25.45 0.15 -24.6 -1.55 -24.1 -4.95 -24.35 -7.7 -26.85 -10.45 -29.3 -12.6 -33.15 -14.75 -37.0 -16.2 -41.35 -17.7 -45.7 -18.5 -49.7 -19.25 -53.75 -19.35 -56.65 -19.4 -59.5 -18.7 -60.4 -17.85 -61.4 -15.65 -61.85 L-10.75 -62.45 -5.45 -62.25" fill="#e7b98a" fill-rule="evenodd" stroke="none"/>
    <path d="M-5.45 -62.25 L-10.75 -62.45 -15.65 -61.85 Q-17.85 -61.4 -18.7 -60.4 -19.4 -59.5 -19.35 -56.65 -19.25 -53.75 -18.5 -49.7 -17.7 -45.7 -16.2 -41.35 -14.75 -37.0 -12.6 -33.15 -10.45 -29.3 -7.7 -26.85 -4.95 -24.35 -1.55 -24.1 0.15 -24.6 0.35 -25.45 0.5 -26.25 0.1 -26.9 L-0.35 -27.55 Q-3.55 -28.4 -5.65 -30.35 -7.75 -32.25 -9.0 -34.65 -10.25 -37.05 -10.8 -39.25 L-11.55 -42.9 -11.7 -44.4 -10.0 -44.35 -6.25 -44.5 -2.55 -45.2 Q-0.95 -45.75 -0.95 -46.8 -1.1 -47.9 -2.5 -48.45 L-5.6 -49.25 -8.7 -49.5 -10.1 -49.5 -8.85 -49.65 -6.15 -50.2 Q-4.6 -50.6 -3.45 -51.3 -2.3 -52.0 -2.3 -53.1 -2.45 -54.15 -3.75 -54.65 L-6.85 -55.15 -9.9 -55.15 -11.3 -55.05 -9.45 -55.4 -5.45 -56.35 Q-3.15 -57.0 -1.4 -57.95 0.35 -58.85 0.45 -60.05 0.45 -60.85 -1.2 -61.4 L-5.45 -62.25 Z" fill="none" stroke="#000000" stroke-linecap="round" stroke-linejoin="round" stroke-width="1.0"/>
  </g>
</svg>
