<?xml version="1.0" encoding="UTF-8" standalone="no"?>
<svg xmlns:xlink="http://www.w3.org/1999/xlink" height="12.8px" width="16.7px" xmlns="http://www.w3.org/2000/svg">
  <g transform="matrix(1.0, 0.0, 0.0, 1.0, 0.5, 0.5)">
    <path d="M7.75 5.9 Q7.7 8.4 6.6 10.1 5.5 11.75 3.85 11.8 2.2 11.75 1.15 10.1 0.05 8.45 0.0 5.9 0.05 3.4 1.15 1.75 2.2 0.05 3.85 0.0 5.5 0.05 6.6 1.75 7.7 3.4 7.75 5.9" fill="#ff7f00" fill-rule="evenodd" stroke="none"/>
    <path d="M7.75 5.9 Q7.7 8.4 6.6 10.1 5.5 11.75 3.85 11.8 2.2 11.75 1.15 10.1 0.05 8.45 0.0 5.9 0.05 3.4 1.15 1.75 2.2 0.05 3.85 0.0 5.5 0.05 6.6 1.75 7.7 3.4 7.75 5.9 Z" fill="none" stroke="#000000" stroke-linecap="round" stroke-linejoin="round" stroke-width="1.0"/>
    <path d="M6.65 5.85 L6.3 6.7 5.45 7.05 Q4.95 7.05 4.6 6.7 4.25 6.4 4.25 5.85 4.25 5.35 4.6 5.0 4.95 4.65 5.45 4.65 5.95 4.65 6.3 5.0 6.65 5.35 6.65 5.85" fill="#000000" fill-rule="evenodd" stroke="none"/>
    <path d="M15.7 5.9 Q15.65 8.4 14.55 10.1 13.45 11.75 11.8 11.8 10.15 11.75 9.1 10.1 8.0 8.45 7.95 5.9 8.0 3.4 9.1 1.75 10.15 0.05 11.8 0.0 13.45 0.05 14.55 1.75 15.65 3.4 15.7 5.9" fill="#ff7f00" fill-rule="evenodd" stroke="none"/>
    <path d="M15.7 5.9 Q15.65 8.4 14.55 10.1 13.45 11.75 11.8 11.8 10.15 11.75 9.1 10.1 8.0 8.45 7.95 5.9 8.0 3.4 9.1 1.75 10.15 0.05 11.8 0.0 13.45 0.05 14.55 1.75 15.65 3.4 15.7 5.9 Z" fill="none" stroke="#000000" stroke-linecap="round" stroke-linejoin="round" stroke-width="1.0"/>
    <path d="M14.7 5.85 Q14.7 6.35 14.35 6.7 14.05 7.05 13.5 7.05 13.0 7.05 12.65 6.7 12.3 6.4 12.3 5.85 12.3 5.35 12.65 5.0 13.0 4.65 13.5 4.65 14.0 4.65 14.35 5.0 14.7 5.35 14.7 5.85" fill="#000000" fill-rule="evenodd" stroke="none"/>
  </g>
</svg>
