<?xml version="1.0" encoding="UTF-8" standalone="no"?>
<svg xmlns:xlink="http://www.w3.org/1999/xlink" height="10.4px" width="25.55px" xmlns="http://www.w3.org/2000/svg">
  <g transform="matrix(1.0, 0.0, 0.0, 1.0, 12.75, 5.2)">
    <path d="M-1.8 0.0 Q-2.25 4.3 -7.0 4.7 -11.8 4.3 -12.25 0.0 -11.8 -4.3 -7.0 -4.7 -2.25 -4.3 -1.8 0.0" fill="#ffffff" fill-rule="evenodd" stroke="none"/>
    <path d="M-1.8 0.0 Q-2.25 4.3 -7.0 4.7 -11.8 4.3 -12.25 0.0 -11.8 -4.3 -7.0 -4.7 -2.25 -4.3 -1.8 0.0 Z" fill="none" stroke="#000000" stroke-linecap="round" stroke-linejoin="round" stroke-width="1.0"/>
    <path d="M1.85 0.0 Q2.3 -4.3 7.1 -4.7 11.85 -4.3 12.3 0.0 11.85 4.3 7.1 4.7 2.3 4.3 1.85 0.0" fill="#ffffff" fill-rule="evenodd" stroke="none"/>
    <path d="M1.85 0.0 Q2.3 4.3 7.1 4.7 11.85 4.3 12.3 0.0 11.85 -4.3 7.1 -4.7 2.3 -4.3 1.85 0.0 Z" fill="none" stroke="#000000" stroke-linecap="round" stroke-linejoin="round" stroke-width="1.0"/>
    <path d="M-5.85 0.3 Q-5.95 1.55 -7.2 1.65 -8.45 1.55 -8.55 0.3 -8.45 -0.95 -7.2 -1.05 -5.95 -0.95 -5.85 0.3" fill="#000000" fill-rule="evenodd" stroke="none"/>
    <path d="M8.5 0.2 Q8.35 1.4 7.15 1.55 5.95 1.4 5.85 0.2 5.95 -1.0 7.15 -1.1 8.35 -1.0 8.5 0.2" fill="#000000" fill-rule="evenodd" stroke="none"/>
  </g>
</svg>
