<?xml version="1.0" encoding="UTF-8" standalone="no"?>
<svg xmlns:xlink="http://www.w3.org/1999/xlink" height="12.95px" width="21.1px" xmlns="http://www.w3.org/2000/svg">
  <g transform="matrix(1.0, 0.0, 0.0, 1.0, 1.8, 1.7)">
    <path d="M0.2 0.75 Q0.25 0.95 0.3 1.15 4.4 7.6 8.65 8.15 12.95 8.85 17.4 3.55 17.45 3.35 17.5 3.15 L17.35 2.85 16.95 2.7 Q16.75 2.7 16.65 2.9 12.65 7.65 8.8 7.2 4.9 6.55 1.15 0.6 1.0 0.4 0.8 0.35 L0.45 0.45 0.2 0.75" fill="#000000" fill-rule="evenodd" stroke="none">
      <animate attributeName="fill" dur="2s" repeatCount="indefinite" values="#000000;#000001"/>
      <animate attributeName="fill-opacity" dur="2s" repeatCount="indefinite" values="1.0;1.0"/>
      <animate attributeName="d" dur="2s" repeatCount="indefinite" values="M0.2 0.75 Q0.25 0.95 0.3 1.15 4.4 7.6 8.65 8.15 12.95 8.85 17.4 3.55 17.45 3.35 17.5 3.15 L17.35 2.85 16.95 2.7 Q16.75 2.7 16.65 2.9 12.65 7.65 8.8 7.2 4.9 6.55 1.15 0.6 1.0 0.4 0.8 0.35 L0.45 0.45 0.2 0.75;M-1.3 1.5 Q-2.9 2.5 0.75 6.7 4.35 10.85 8.8 11.2 13.25 11.5 16.8 8.7 20.3 5.9 18.9 4.45 L17.4 2.55 17.15 1.85 Q17.0 1.55 15.5 0.75 14.0 -0.1 10.45 -1.15 6.9 -2.25 3.95 -1.1 2.35 -0.5 0.8 0.05 L0.45 0.35 -1.3 1.5"/>
    </path>
    <path d="M0.2 0.75 L0.45 0.45 0.8 0.35 Q1.0 0.4 1.15 0.6 4.9 6.55 8.8 7.2 12.65 7.65 16.65 2.9 16.75 2.7 16.95 2.7 L17.35 2.85 17.5 3.15 Q17.45 3.35 17.4 3.55 12.95 8.85 8.65 8.15 4.4 7.6 0.3 1.15 0.25 0.95 0.2 0.75" fill="none" stroke="#000000" stroke-linecap="round" stroke-linejoin="round" stroke-opacity="0.0" stroke-width="1.0">
      <animate attributeName="stroke" dur="2s" repeatCount="indefinite" values="#000000;#000001"/>
      <animate attributeName="stroke-width" dur="2s" repeatCount="indefinite" values="0.0;0.0"/>
      <animate attributeName="fill-opacity" dur="2s" repeatCount="indefinite" values="0.0;0.0"/>
      <animate attributeName="d" dur="2s" repeatCount="indefinite" values="M0.2 0.75 L0.45 0.45 0.8 0.35 Q1.0 0.4 1.15 0.6 4.9 6.55 8.8 7.2 12.65 7.65 16.65 2.9 16.75 2.7 16.95 2.7 L17.35 2.85 17.5 3.15 Q17.45 3.35 17.4 3.55 12.95 8.85 8.65 8.15 4.4 7.6 0.3 1.15 0.25 0.95 0.2 0.75;M-1.3 1.5 L0.45 0.35 0.8 0.05 Q2.35 -0.5 3.95 -1.1 6.9 -2.25 10.45 -1.15 14.0 -0.1 15.5 0.75 17.0 1.55 17.15 1.85 L17.4 2.55 18.9 4.45 Q20.3 5.9 16.8 8.7 13.25 11.5 8.8 11.2 4.35 10.85 0.75 6.7 -2.9 2.5 -1.3 1.5"/>
    </path>
  </g>
</svg>
