<?xml version="1.0" encoding="UTF-8" standalone="no"?>
<svg xmlns:xlink="http://www.w3.org/1999/xlink" height="76.95px" width="76.95px" xmlns="http://www.w3.org/2000/svg">
  <g transform="matrix(1.0, 0.0, 0.0, 1.0, 42.05, 18.1)">
    <path d="M-5.0 20.75 L-5.0 20.75 Q-4.65 21.2 -4.35 21.65 L-4.25 21.65 Q-3.75 21.75 -3.25 21.8 L-3.25 21.8 -3.15 21.8 Q-2.7 21.45 -2.25 21.1 -2.0 20.65 -2.1 20.1 L-2.1 20.1 -2.1 20.0 Q-2.3 19.35 -2.85 19.05 -3.35 19.0 -3.85 18.95 L-3.85 18.95 -3.95 18.95 Q-4.6 19.1 -4.85 19.6 L-4.85 19.7 Q-5.15 20.2 -5.0 20.75 L-5.0 20.75" fill="url(#gradient0)" fill-rule="evenodd" stroke="none">
      <animate attributeName="d" dur="2s" repeatCount="indefinite" values="M-5.0 20.75 L-5.0 20.75 Q-4.65 21.2 -4.35 21.65 L-4.25 21.65 Q-3.75 21.75 -3.25 21.8 L-3.25 21.8 -3.15 21.8 Q-2.7 21.45 -2.25 21.1 -2.0 20.65 -2.1 20.1 L-2.1 20.1 -2.1 20.0 Q-2.3 19.35 -2.85 19.05 -3.35 19.0 -3.85 18.95 L-3.85 18.95 -3.95 18.95 Q-4.6 19.1 -4.85 19.6 L-4.85 19.7 Q-5.15 20.2 -5.0 20.75 L-5.0 20.75;M-40.75 30.55 L-40.65 30.85 Q-36.05 45.6 -23.8 53.15 L-22.65 53.85 Q-9.25 61.45 6.65 57.55 L6.6 57.55 9.8 56.45 Q23.05 51.4 29.9 39.45 37.5 26.1 33.6 10.2 L33.6 10.25 33.05 8.45 Q28.1 -5.9 15.5 -13.05 2.15 -20.7 -13.75 -16.75 L-13.7 -16.8 -15.55 -16.2 Q-29.15 -11.45 -36.3 0.15 L-37.0 1.3 Q-44.65 14.7 -40.7 30.6 L-40.75 30.55"/>
    </path>
    <path d="M-5.0 20.75 L-5.0 20.75 Q-5.15 20.2 -4.85 19.7 L-4.85 19.6 Q-4.6 19.1 -3.95 18.95 L-3.85 18.95 -3.85 18.95 Q-3.35 19.0 -2.85 19.05 -2.3 19.35 -2.1 20.0 L-2.1 20.1 -2.1 20.1 Q-2.0 20.65 -2.25 21.1 -2.7 21.45 -3.15 21.8 L-3.25 21.8 -3.25 21.8 Q-3.75 21.75 -4.25 21.65 L-4.35 21.65 Q-4.65 21.2 -5.0 20.75 L-5.0 20.75" fill="none" stroke="#000000" stroke-linecap="round" stroke-linejoin="round" stroke-opacity="0.0" stroke-width="1.0">
      <animate attributeName="stroke" dur="2s" repeatCount="indefinite" values="#000000;#000001"/>
      <animate attributeName="stroke-width" dur="2s" repeatCount="indefinite" values="0.0;0.0"/>
      <animate attributeName="fill-opacity" dur="2s" repeatCount="indefinite" values="0.0;0.0"/>
      <animate attributeName="d" dur="2s" repeatCount="indefinite" values="M-5.0 20.75 L-5.0 20.75 Q-5.15 20.2 -4.85 19.7 L-4.85 19.6 Q-4.6 19.1 -3.95 18.95 L-3.85 18.95 -3.85 18.95 Q-3.35 19.0 -2.85 19.05 -2.3 19.35 -2.1 20.0 L-2.1 20.1 -2.1 20.1 Q-2.0 20.65 -2.25 21.1 -2.7 21.45 -3.15 21.8 L-3.25 21.8 -3.25 21.8 Q-3.75 21.75 -4.25 21.65 L-4.35 21.65 Q-4.65 21.2 -5.0 20.75 L-5.0 20.75;M-40.75 30.55 L-40.7 30.6 Q-44.65 14.7 -37.0 1.3 L-36.3 0.15 Q-29.15 -11.45 -15.55 -16.2 L-13.7 -16.8 -13.75 -16.75 Q2.15 -20.7 15.5 -13.05 28.1 -5.9 33.05 8.45 L33.6 10.25 33.6 10.2 Q37.5 26.1 29.9 39.45 23.05 51.4 9.8 56.45 L6.6 57.55 6.65 57.55 Q-9.25 61.45 -22.65 53.85 L-23.8 53.15 Q-36.05 45.6 -40.65 30.85 L-40.75 30.55"/>
    </path>
  </g>
  <defs>
    <linearGradient gradientTransform="matrix(0.0018, -5.0E-4, 5.0E-4, 0.0018, -3.6, 20.4)" gradientUnits="userSpaceOnUse" id="gradient0" spreadMethod="pad" x1="-819.2" x2="819.2">
      <animateTransform additive="replace" attributeName="gradientTransform" dur="2s" from="1" repeatCount="indefinite" to="1" type="scale"/>
      <animateTransform additive="sum" attributeName="gradientTransform" dur="2s" from="-3.6 20.4" repeatCount="indefinite" to="-3.55 20.4" type="translate"/>
      <animateTransform additive="sum" attributeName="gradientTransform" dur="2s" from="-15.4993" repeatCount="indefinite" to="-15.3155" type="rotate"/>
      <animateTransform additive="sum" attributeName="gradientTransform" dur="2s" from="0.0019 0.0019" repeatCount="indefinite" to="0.0482 0.0482" type="scale"/>
      <animateTransform additive="sum" attributeName="gradientTransform" dur="2s" from="0.0" repeatCount="indefinite" to="0.0" type="skewX"/>
      <stop offset="0.0" stop-color="#ffffff">
        <animate attributeName="offset" dur="2s" repeatCount="indefinite" values="0.0;0.0"/>
        <animate attributeName="stop-color" dur="2s" repeatCount="indefinite" values="#ffffff;#ffffff"/>
        <animate attributeName="stop-opacity" dur="2s" repeatCount="indefinite" values="1.0;1.0"/>
      </stop>
      <stop offset="1.0" stop-color="#8bd3e5">
        <animate attributeName="offset" dur="2s" repeatCount="indefinite" values="1.0;1.0"/>
        <animate attributeName="stop-color" dur="2s" repeatCount="indefinite" values="#8bd3e5;#8bd3e6"/>
        <animate attributeName="stop-opacity" dur="2s" repeatCount="indefinite" values="1.0;1.0"/>
      </stop>
    </linearGradient>
  </defs>
</svg>
