<?xml version="1.0" encoding="UTF-8" standalone="no"?>
<svg xmlns:xlink="http://www.w3.org/1999/xlink" height="39.35px" width="180.9px" xmlns="http://www.w3.org/2000/svg">
  <g transform="matrix(1.0, 0.0, 0.0, 1.0, 108.7, 10.8)">
    <path d="M-65.55 7.95 Q-65.55 15.8 -45.35 21.25 -25.15 26.75 3.3 26.75 31.8 26.75 52.0 21.25 72.2 15.8 72.2 8.0 72.2 0.1 52.0 -5.35 31.8 -10.85 3.3 -10.8 -25.15 -10.85 -45.35 -5.35 -65.55 0.15 -65.55 7.95" fill="#000000" fill-opacity="0.2901961" fill-rule="evenodd" stroke="none">
      <animate attributeName="fill" dur="2s" repeatCount="indefinite" values="#000000;#000001"/>
      <animate attributeName="fill-opacity" dur="2s" repeatCount="indefinite" values="0.2901961;0.2901961"/>
      <animate attributeName="d" dur="2s" repeatCount="indefinite" values="M-65.55 7.95 Q-65.55 15.8 -45.35 21.25 -25.15 26.75 3.3 26.75 31.8 26.75 52.0 21.25 72.2 15.8 72.2 8.0 72.2 0.1 52.0 -5.35 31.8 -10.85 3.3 -10.8 -25.15 -10.85 -45.35 -5.35 -65.55 0.15 -65.55 7.95;M-108.55 7.1 Q-106.05 15.3 -72.35 21.9 -38.7 28.5 -7.5 28.55 23.75 28.55 45.9 22.9 68.05 17.3 68.05 9.3 68.05 1.2 45.9 -4.45 23.75 -10.05 -7.5 -10.0 -38.7 -10.0 -74.9 -5.55 -111.05 -1.1 -108.55 7.1"/>
    </path>
    <path d="M-65.55 7.95 Q-65.55 0.15 -45.35 -5.35 -25.15 -10.85 3.3 -10.8 31.8 -10.85 52.0 -5.35 72.2 0.1 72.2 8.0 72.2 15.8 52.0 21.25 31.8 26.75 3.3 26.75 -25.15 26.75 -45.35 21.25 -65.55 15.8 -65.55 7.95" fill="none" stroke="#000000" stroke-linecap="round" stroke-linejoin="round" stroke-opacity="0.0" stroke-width="1.0">
      <animate attributeName="stroke" dur="2s" repeatCount="indefinite" values="#000000;#000001"/>
      <animate attributeName="stroke-width" dur="2s" repeatCount="indefinite" values="0.0;0.0"/>
      <animate attributeName="fill-opacity" dur="2s" repeatCount="indefinite" values="0.0;0.0"/>
      <animate attributeName="d" dur="2s" repeatCount="indefinite" values="M-65.55 7.95 Q-65.55 0.15 -45.35 -5.35 -25.15 -10.85 3.3 -10.8 31.8 -10.85 52.0 -5.35 72.2 0.1 72.2 8.0 72.2 15.8 52.0 21.25 31.8 26.75 3.3 26.75 -25.15 26.75 -45.35 21.25 -65.55 15.8 -65.55 7.95;M-108.55 7.1 Q-111.05 -1.1 -74.9 -5.55 -38.7 -10.0 -7.5 -10.0 23.75 -10.05 45.9 -4.45 68.05 1.2 68.05 9.3 68.05 17.3 45.9 22.9 23.75 28.55 -7.5 28.55 -38.7 28.5 -72.35 21.9 -106.05 15.3 -108.55 7.1"/>
    </path>
  </g>
</svg>
