<?xml version="1.0" encoding="UTF-8" standalone="no"?>
<svg xmlns:xlink="http://www.w3.org/1999/xlink" height="76.55px" width="176.55px" xmlns="http://www.w3.org/2000/svg">
  <g transform="matrix(1.0, 0.0, 0.0, 1.0, -68.85, 76.4)">
    <path d="M69.2 -10.1 L69.2 -10.1 69.2 -10.05 69.4 -10.05 69.4 -10.05 69.55 -10.1 69.6 -10.1 69.8 -10.1 70.2 -10.2 70.45 -10.2 70.95 -10.2 71.25 -10.2 81.7 -8.7 82.7 -8.6 Q113.5 0.6 171.35 0.1 L178.95 -0.05 Q195.6 -0.95 212.25 -1.85 214.8 -2.15 217.35 -2.4 243.4 -5.35 243.75 -10.5 243.95 -12.95 243.5 -15.3 241.65 -24.8 229.5 -33.0 225.75 -35.4 222.05 -37.8 210.5 -44.85 198.5 -49.7 192.35 -52.2 186.55 -53.95 169.45 -59.0 155.0 -57.5 L151.85 -57.05 Q143.3 -55.55 134.0 -50.8 L133.8 -50.7 Q128.55 -48.0 121.75 -43.45 118.0 -40.9 113.8 -37.8 L111.4 -36.0 Q105.2 -31.5 99.05 -27.0 L93.75 -23.15 Q81.95 -15.05 72.3 -10.95 L72.2 -10.9 72.0 -10.9 71.9 -10.8 71.7 -10.8 71.5 -10.8 71.2 -10.7 71.1 -10.7 70.75 -10.55 70.75 -10.55 70.55 -10.55 70.55 -10.55 70.0 -10.35 69.7 -10.3 69.65 -10.3 69.6 -10.25 69.5 -10.2 69.4 -10.2 69.35 -10.15 69.25 -10.1 69.2 -10.1" fill="#ff0000" fill-rule="evenodd" stroke="none">
      <animate attributeName="fill" dur="2s" repeatCount="indefinite" values="#ff0000;#ff0001"/>
      <animate attributeName="fill-opacity" dur="2s" repeatCount="indefinite" values="1.0;1.0"/>
      <animate attributeName="d" dur="2s" repeatCount="indefinite" values="M69.2 -10.1 L69.2 -10.1 69.2 -10.05 69.4 -10.05 69.4 -10.05 69.55 -10.1 69.6 -10.1 69.8 -10.1 70.2 -10.2 70.45 -10.2 70.95 -10.2 71.25 -10.2 81.7 -8.7 82.7 -8.6 Q113.5 0.6 171.35 0.1 L178.95 -0.05 Q195.6 -0.95 212.25 -1.85 214.8 -2.15 217.35 -2.4 243.4 -5.35 243.75 -10.5 243.95 -12.95 243.5 -15.3 241.65 -24.8 229.5 -33.0 225.75 -35.4 222.05 -37.8 210.5 -44.85 198.5 -49.7 192.35 -52.2 186.55 -53.95 169.45 -59.0 155.0 -57.5 L151.85 -57.05 Q143.3 -55.55 134.0 -50.8 L133.8 -50.7 Q128.55 -48.0 121.75 -43.45 118.0 -40.9 113.8 -37.8 L111.4 -36.0 Q105.2 -31.5 99.05 -27.0 L93.75 -23.15 Q81.95 -15.05 72.3 -10.95 L72.2 -10.9 72.0 -10.9 71.9 -10.8 71.7 -10.8 71.5 -10.8 71.2 -10.7 71.1 -10.7 70.75 -10.55 70.75 -10.55 70.55 -10.55 70.55 -10.55 70.0 -10.35 69.7 -10.3 69.65 -10.3 69.6 -10.25 69.5 -10.2 69.4 -10.2 69.35 -10.15 69.25 -10.1 69.2 -10.1;M68.85 -10.1 L69.05 -10.05 69.05 -10.05 69.2 -10.1 69.3 -10.1 69.4 -10.1 69.45 -10.1 69.65 -10.15 70.1 -10.25 70.4 -10.25 70.9 -10.25 71.2 -10.25 82.4 -9.05 83.5 -8.75 Q116.5 -0.5 178.9 -3.95 L187.1 -4.7 Q203.9 -6.65 221.35 -12.9 224.0 -13.85 226.35 -15.0 240.9 -22.1 244.35 -36.85 244.75 -39.35 245.15 -41.85 246.7 -57.35 237.6 -65.0 234.25 -67.8 229.45 -69.55 217.05 -74.1 202.0 -75.65 195.25 -76.05 188.5 -76.4 167.95 -76.65 154.35 -72.85 L150.9 -71.8 Q136.5 -66.9 131.0 -64.45 L130.8 -64.35 Q125.3 -61.95 117.8 -56.55 112.45 -52.7 109.45 -49.65 L107.3 -47.15 Q104.5 -43.25 96.05 -35.55 L91.4 -30.0 Q77.55 -13.85 72.0 -11.15 L71.9 -11.05 71.8 -11.0 71.6 -11.0 71.5 -10.9 71.35 -10.85 70.95 -10.75 70.85 -10.75 70.45 -10.6 70.4 -10.6 70.3 -10.6 70.2 -10.6 69.65 -10.35 69.35 -10.3 69.3 -10.3 69.25 -10.25 69.15 -10.2 69.05 -10.2 69.0 -10.15 68.9 -10.1 68.85 -10.1"/>
    </path>
    <path d="M69.2 -10.1 L69.25 -10.1 69.35 -10.15 69.4 -10.2 69.5 -10.2 69.6 -10.25 69.65 -10.3 69.7 -10.3 70.0 -10.35 70.55 -10.55 70.55 -10.55 70.75 -10.55 70.75 -10.55 71.1 -10.7 71.2 -10.7 71.5 -10.8 71.7 -10.8 71.9 -10.8 72.0 -10.9 72.2 -10.9 72.3 -10.95 Q81.95 -15.05 93.75 -23.15 L99.05 -27.0 Q105.2 -31.5 111.4 -36.0 L113.8 -37.8 Q118.0 -40.9 121.75 -43.45 128.55 -48.0 133.8 -50.7 L134.0 -50.8 Q143.3 -55.55 151.85 -57.05 L155.0 -57.5 Q169.45 -59.0 186.55 -53.95 192.35 -52.2 198.5 -49.7 210.5 -44.85 222.05 -37.8 225.75 -35.4 229.5 -33.0 241.65 -24.8 243.5 -15.3 243.95 -12.95 243.75 -10.5 243.4 -5.35 217.35 -2.4 214.8 -2.15 212.25 -1.85 195.6 -0.95 178.95 -0.05 L171.35 0.1 Q113.5 0.6 82.7 -8.6 L81.7 -8.7 71.25 -10.2 70.95 -10.2 70.45 -10.2 70.2 -10.2 69.8 -10.1 69.6 -10.1 69.55 -10.1 69.4 -10.05 69.4 -10.05 69.2 -10.05 69.2 -10.1 69.2 -10.1" fill="none" stroke="#000000" stroke-linecap="round" stroke-linejoin="round" stroke-opacity="0.0" stroke-width="1.0">
      <animate attributeName="stroke" dur="2s" repeatCount="indefinite" values="#000000;#000001"/>
      <animate attributeName="stroke-width" dur="2s" repeatCount="indefinite" values="0.0;0.0"/>
      <animate attributeName="fill-opacity" dur="2s" repeatCount="indefinite" values="0.0;0.0"/>
      <animate attributeName="d" dur="2s" repeatCount="indefinite" values="M69.2 -10.1 L69.25 -10.1 69.35 -10.15 69.4 -10.2 69.5 -10.2 69.6 -10.25 69.65 -10.3 69.7 -10.3 70.0 -10.35 70.55 -10.55 70.55 -10.55 70.75 -10.55 70.75 -10.55 71.1 -10.7 71.2 -10.7 71.5 -10.8 71.7 -10.8 71.9 -10.8 72.0 -10.9 72.2 -10.9 72.3 -10.95 Q81.95 -15.05 93.75 -23.15 L99.05 -27.0 Q105.2 -31.5 111.4 -36.0 L113.8 -37.8 Q118.0 -40.9 121.75 -43.45 128.55 -48.0 133.8 -50.7 L134.0 -50.8 Q143.3 -55.55 151.85 -57.05 L155.0 -57.5 Q169.45 -59.0 186.55 -53.95 192.35 -52.2 198.5 -49.7 210.5 -44.85 222.05 -37.8 225.75 -35.4 229.5 -33.0 241.65 -24.8 243.5 -15.3 243.95 -12.95 243.75 -10.5 243.4 -5.35 217.35 -2.4 214.8 -2.15 212.25 -1.85 195.6 -0.95 178.95 -0.05 L171.35 0.1 Q113.5 0.6 82.7 -8.6 L81.7 -8.7 71.25 -10.2 70.95 -10.2 70.45 -10.2 70.2 -10.2 69.8 -10.1 69.6 -10.1 69.55 -10.1 69.4 -10.05 69.4 -10.05 69.2 -10.05 69.2 -10.1 69.2 -10.1;M68.85 -10.1 L68.9 -10.1 69.0 -10.15 69.05 -10.2 69.15 -10.2 69.25 -10.25 69.3 -10.3 69.35 -10.3 69.65 -10.35 70.2 -10.6 70.3 -10.6 70.4 -10.6 70.45 -10.6 70.85 -10.75 70.95 -10.75 71.35 -10.85 71.5 -10.9 71.6 -11.0 71.8 -11.0 71.9 -11.05 72.0 -11.15 Q77.55 -13.85 91.4 -30.0 L96.05 -35.55 Q104.5 -43.25 107.3 -47.15 L109.45 -49.65 Q112.45 -52.7 117.8 -56.55 125.3 -61.95 130.8 -64.35 L131.0 -64.45 Q136.5 -66.9 150.9 -71.8 L154.35 -72.85 Q167.95 -76.65 188.5 -76.4 195.25 -76.05 202.0 -75.65 217.05 -74.1 229.45 -69.55 234.25 -67.8 237.6 -65.0 246.7 -57.35 245.15 -41.85 244.75 -39.35 244.35 -36.85 240.9 -22.1 226.35 -15.0 224.0 -13.85 221.35 -12.9 203.9 -6.65 187.1 -4.7 L178.9 -3.95 Q116.5 -0.5 83.5 -8.75 L82.4 -9.05 71.2 -10.25 70.9 -10.25 70.4 -10.25 70.1 -10.25 69.65 -10.15 69.45 -10.1 69.4 -10.1 69.3 -10.1 69.2 -10.1 69.05 -10.05 69.05 -10.05 68.85 -10.1"/>
    </path>
  </g>
</svg>
