<?xml version="1.0" encoding="UTF-8" standalone="no"?>
<svg xmlns:xlink="http://www.w3.org/1999/xlink" height="110.65px" width="177.45px" xmlns="http://www.w3.org/2000/svg">
  <g transform="matrix(1.0, 0.0, 0.0, 1.0, -67.9, 113.6)">
    <path d="M68.85 -10.1 L68.85 -10.1 68.85 -10.05 68.95 -10.05 69.05 -10.05 69.2 -10.1 69.3 -10.1 69.45 -10.1 69.95 -10.25 70.1 -10.25 70.7 -10.25 70.9 -10.25 81.3 -9.15 82.4 -9.05 Q113.25 -1.05 170.45 -3.5 L178.9 -3.95 Q194.15 -4.8 209.9 -9.25 215.6 -10.85 221.35 -12.9 235.35 -17.9 241.2 -28.5 244.4 -34.35 245.15 -41.85 246.55 -55.95 239.15 -63.55 235.4 -67.35 229.45 -69.55 214.7 -75.0 196.2 -76.1 L188.5 -76.4 Q167.1 -76.7 153.25 -72.55 L150.9 -71.8 Q136.5 -66.9 131.0 -64.45 129.1 -63.5 127.2 -62.55 123.0 -60.25 117.8 -56.55 115.65 -54.95 113.55 -53.35 109.25 -49.85 107.3 -47.15 L104.3 -43.6 Q101.25 -40.3 96.05 -35.55 L93.6 -32.55 Q77.8 -13.85 71.9 -11.05 L71.8 -11.0 71.6 -11.0 71.5 -10.9 71.35 -10.85 70.85 -10.75 70.4 -10.6 70.4 -10.6 70.2 -10.6 70.2 -10.6 69.65 -10.35 69.45 -10.3 69.35 -10.3 69.3 -10.3 69.25 -10.25 69.15 -10.2 69.05 -10.2 69.0 -10.15 68.9 -10.1 68.85 -10.1" fill="#ff0000" fill-rule="evenodd" stroke="none">
      <animate attributeName="fill" dur="2s" repeatCount="indefinite" values="#ff0000;#ff0001"/>
      <animate attributeName="fill-opacity" dur="2s" repeatCount="indefinite" values="1.0;1.0"/>
      <animate attributeName="d" dur="2s" repeatCount="indefinite" values="M68.85 -10.1 L68.85 -10.1 68.85 -10.05 68.95 -10.05 69.05 -10.05 69.2 -10.1 69.3 -10.1 69.45 -10.1 69.95 -10.25 70.1 -10.25 70.7 -10.25 70.9 -10.25 81.3 -9.15 82.4 -9.05 Q113.25 -1.05 170.45 -3.5 L178.9 -3.95 Q194.15 -4.8 209.9 -9.25 215.6 -10.85 221.35 -12.9 235.35 -17.9 241.2 -28.5 244.4 -34.35 245.15 -41.85 246.55 -55.95 239.15 -63.55 235.4 -67.35 229.45 -69.55 214.7 -75.0 196.2 -76.1 L188.5 -76.4 Q167.1 -76.7 153.25 -72.55 L150.9 -71.8 Q136.5 -66.9 131.0 -64.45 129.1 -63.5 127.2 -62.55 123.0 -60.25 117.8 -56.55 115.65 -54.95 113.55 -53.35 109.25 -49.85 107.3 -47.15 L104.3 -43.6 Q101.25 -40.3 96.05 -35.55 L93.6 -32.55 Q77.8 -13.85 71.9 -11.05 L71.8 -11.0 71.6 -11.0 71.5 -10.9 71.35 -10.85 70.85 -10.75 70.4 -10.6 70.4 -10.6 70.2 -10.6 70.2 -10.6 69.65 -10.35 69.45 -10.3 69.35 -10.3 69.3 -10.3 69.25 -10.25 69.15 -10.2 69.05 -10.2 69.0 -10.15 68.9 -10.1 68.85 -10.1;M67.9 -10.0 L68.0 -9.95 68.0 -9.95 68.1 -10.0 68.2 -10.05 68.35 -10.1 68.45 -10.1 68.55 -10.15 69.1 -10.35 69.25 -10.35 69.85 -10.5 70.1 -10.5 81.4 -11.05 82.55 -10.95 Q116.5 -7.85 177.45 -20.8 L186.45 -23.15 Q202.1 -27.95 217.25 -37.65 223.2 -41.5 227.25 -46.15 236.5 -56.75 236.05 -71.6 235.8 -79.85 232.65 -86.5 227.65 -97.05 215.3 -103.4 209.85 -106.2 203.85 -108.25 187.75 -113.7 167.8 -113.6 L159.3 -113.35 Q137.5 -112.1 122.2 -104.7 L119.8 -103.5 Q107.25 -97.25 100.7 -91.4 98.8 -89.65 97.4 -87.95 93.05 -82.65 90.8 -77.4 89.7 -74.75 89.15 -72.1 88.1 -67.15 87.4 -62.7 L86.65 -57.6 Q85.95 -52.35 85.65 -45.1 L85.5 -41.1 Q76.65 -15.65 70.85 -11.5 L70.75 -11.4 70.65 -11.3 70.45 -11.3 70.25 -11.2 69.75 -10.95 69.3 -10.75 69.3 -10.75 69.2 -10.7 69.1 -10.7 68.6 -10.4 68.35 -10.3 68.25 -10.2 68.25 -10.2 68.25 -10.2 68.15 -10.15 68.05 -10.05 68.05 -10.05 67.95 -10.0 67.9 -10.0"/>
    </path>
    <path d="M68.85 -10.1 L68.9 -10.1 69.0 -10.15 69.05 -10.2 69.15 -10.2 69.25 -10.25 69.3 -10.3 69.35 -10.3 69.45 -10.3 69.65 -10.35 70.2 -10.6 70.2 -10.6 70.4 -10.6 70.4 -10.6 70.85 -10.75 71.35 -10.85 71.5 -10.9 71.6 -11.0 71.8 -11.0 71.9 -11.05 Q77.8 -13.85 93.6 -32.55 L96.05 -35.55 Q101.25 -40.3 104.3 -43.6 L107.3 -47.15 Q109.25 -49.85 113.55 -53.35 115.65 -54.95 117.8 -56.55 123.0 -60.25 127.2 -62.55 129.1 -63.5 131.0 -64.45 136.5 -66.9 150.9 -71.8 L153.25 -72.55 Q167.1 -76.7 188.5 -76.4 L196.2 -76.1 Q214.7 -75.0 229.45 -69.55 235.4 -67.35 239.15 -63.55 246.55 -55.95 245.15 -41.85 244.4 -34.35 241.2 -28.5 235.35 -17.9 221.35 -12.9 215.6 -10.85 209.9 -9.25 194.15 -4.8 178.9 -3.95 L170.45 -3.5 Q113.25 -1.05 82.4 -9.05 L81.3 -9.15 70.9 -10.25 70.7 -10.25 70.1 -10.25 69.95 -10.25 69.45 -10.1 69.3 -10.1 69.2 -10.1 69.05 -10.05 68.95 -10.05 68.85 -10.05 68.85 -10.1 68.85 -10.1" fill="none" stroke="#000000" stroke-linecap="round" stroke-linejoin="round" stroke-opacity="0.0" stroke-width="1.0">
      <animate attributeName="stroke" dur="2s" repeatCount="indefinite" values="#000000;#000001"/>
      <animate attributeName="stroke-width" dur="2s" repeatCount="indefinite" values="0.0;0.0"/>
      <animate attributeName="fill-opacity" dur="2s" repeatCount="indefinite" values="0.0;0.0"/>
      <animate attributeName="d" dur="2s" repeatCount="indefinite" values="M68.85 -10.1 L68.9 -10.1 69.0 -10.15 69.05 -10.2 69.15 -10.2 69.25 -10.25 69.3 -10.3 69.35 -10.3 69.45 -10.3 69.65 -10.35 70.2 -10.6 70.2 -10.6 70.4 -10.6 70.4 -10.6 70.85 -10.75 71.35 -10.85 71.5 -10.9 71.6 -11.0 71.8 -11.0 71.9 -11.05 Q77.8 -13.85 93.6 -32.55 L96.05 -35.55 Q101.25 -40.3 104.3 -43.6 L107.3 -47.15 Q109.25 -49.85 113.55 -53.35 115.65 -54.95 117.8 -56.55 123.0 -60.25 127.2 -62.55 129.1 -63.5 131.0 -64.45 136.5 -66.9 150.9 -71.8 L153.25 -72.55 Q167.1 -76.7 188.5 -76.4 L196.2 -76.1 Q214.7 -75.0 229.45 -69.55 235.4 -67.35 239.15 -63.55 246.55 -55.95 245.15 -41.85 244.4 -34.35 241.2 -28.5 235.35 -17.9 221.35 -12.9 215.6 -10.85 209.9 -9.25 194.15 -4.8 178.9 -3.95 L170.45 -3.5 Q113.25 -1.05 82.4 -9.05 L81.3 -9.15 70.9 -10.25 70.7 -10.25 70.1 -10.25 69.95 -10.25 69.45 -10.1 69.3 -10.1 69.2 -10.1 69.05 -10.05 68.95 -10.05 68.85 -10.05 68.85 -10.1 68.85 -10.1;M67.9 -10.0 L67.95 -10.0 68.05 -10.05 68.05 -10.05 68.15 -10.15 68.25 -10.2 68.25 -10.2 68.25 -10.2 68.35 -10.3 68.6 -10.4 69.1 -10.7 69.2 -10.7 69.3 -10.75 69.3 -10.75 69.75 -10.95 70.25 -11.2 70.45 -11.3 70.65 -11.3 70.75 -11.4 70.85 -11.5 Q76.65 -15.65 85.5 -41.1 L85.65 -45.1 Q85.95 -52.35 86.65 -57.6 L87.4 -62.7 Q88.1 -67.15 89.15 -72.1 89.7 -74.75 90.8 -77.4 93.05 -82.65 97.4 -87.95 98.8 -89.65 100.7 -91.4 107.25 -97.25 119.8 -103.5 L122.2 -104.7 Q137.5 -112.1 159.3 -113.35 L167.8 -113.6 Q187.75 -113.7 203.85 -108.25 209.85 -106.2 215.3 -103.4 227.65 -97.05 232.65 -86.5 235.8 -79.85 236.05 -71.6 236.5 -56.75 227.25 -46.15 223.2 -41.5 217.25 -37.65 202.1 -27.95 186.45 -23.15 L177.45 -20.8 Q116.5 -7.85 82.55 -10.95 L81.4 -11.05 70.1 -10.5 69.85 -10.5 69.25 -10.35 69.1 -10.35 68.55 -10.15 68.45 -10.1 68.35 -10.1 68.2 -10.05 68.1 -10.0 68.0 -9.95 68.0 -9.95 67.9 -10.0"/>
    </path>
  </g>
</svg>
