<?xml version="1.0" encoding="UTF-8" standalone="no"?>
<svg xmlns:xlink="http://www.w3.org/1999/xlink" height="151.55px" width="169.65px" xmlns="http://www.w3.org/2000/svg">
  <g transform="matrix(1.0, 0.0, 0.0, 1.0, -66.4, 159.85)">
    <path d="M67.9 -10.0 L67.9 -10.0 67.9 -9.95 68.0 -9.95 68.1 -10.0 68.2 -10.05 68.45 -10.1 69.1 -10.35 69.45 -10.4 69.85 -10.5 79.5 -10.95 81.4 -11.05 Q106.0 -8.6 145.2 -14.8 160.25 -17.15 177.45 -20.8 187.25 -22.9 196.85 -26.85 207.15 -31.15 217.25 -37.65 224.35 -42.25 228.75 -48.0 236.45 -58.0 236.05 -71.6 235.65 -84.45 228.3 -93.3 223.35 -99.25 215.3 -103.4 200.1 -111.25 180.7 -113.05 L167.8 -113.6 Q150.35 -113.55 136.6 -109.95 128.8 -107.9 122.2 -104.7 103.95 -95.95 97.4 -87.95 92.6 -82.15 90.4 -76.35 89.6 -74.2 89.15 -72.1 87.45 -64.25 86.65 -57.6 85.75 -50.95 85.5 -41.1 82.3 -31.85 79.5 -25.4 74.45 -13.95 70.75 -11.4 L70.55 -11.3 70.45 -11.3 69.3 -10.75 69.2 -10.7 69.1 -10.7 69.0 -10.6 68.6 -10.4 68.55 -10.4 68.35 -10.3 68.25 -10.2 68.15 -10.15 68.05 -10.15 67.9 -10.0" fill="#ff0000" fill-rule="evenodd" stroke="none">
      <animate attributeName="fill" dur="2s" repeatCount="indefinite" values="#ff0000;#ff0001"/>
      <animate attributeName="fill-opacity" dur="2s" repeatCount="indefinite" values="1.0;1.0"/>
      <animate attributeName="d" dur="2s" repeatCount="indefinite" values="M67.9 -10.0 L67.9 -10.0 67.9 -9.95 68.0 -9.95 68.1 -10.0 68.2 -10.05 68.45 -10.1 69.1 -10.35 69.45 -10.4 69.85 -10.5 79.5 -10.95 81.4 -11.05 Q106.0 -8.6 145.2 -14.8 160.25 -17.15 177.45 -20.8 187.25 -22.9 196.85 -26.85 207.15 -31.15 217.25 -37.65 224.35 -42.25 228.75 -48.0 236.45 -58.0 236.05 -71.6 235.65 -84.45 228.3 -93.3 223.35 -99.25 215.3 -103.4 200.1 -111.25 180.7 -113.05 L167.8 -113.6 Q150.35 -113.55 136.6 -109.95 128.8 -107.9 122.2 -104.7 103.95 -95.95 97.4 -87.95 92.6 -82.15 90.4 -76.35 89.6 -74.2 89.15 -72.1 87.45 -64.25 86.65 -57.6 85.75 -50.95 85.5 -41.1 82.3 -31.85 79.5 -25.4 74.45 -13.95 70.75 -11.4 L70.55 -11.3 70.45 -11.3 69.3 -10.75 69.2 -10.7 69.1 -10.7 69.0 -10.6 68.6 -10.4 68.55 -10.4 68.35 -10.3 68.25 -10.2 68.15 -10.15 68.05 -10.15 67.9 -10.0;M66.4 -8.85 L66.6 -8.9 66.65 -8.9 66.75 -8.95 66.85 -8.95 66.95 -9.05 67.25 -9.15 67.95 -9.4 68.35 -9.5 68.75 -9.5 79.95 -8.45 82.15 -8.35 Q116.1 -7.6 157.1 -15.85 179.85 -20.45 194.9 -27.05 207.85 -32.75 215.15 -39.95 224.9 -49.6 229.45 -62.55 232.25 -70.6 233.05 -79.9 234.25 -93.85 226.75 -108.0 221.1 -118.6 210.55 -129.3 203.35 -136.6 195.8 -142.15 177.5 -155.65 157.15 -158.8 L142.0 -159.8 Q122.85 -159.2 108.2 -148.4 101.7 -143.65 96.15 -136.05 87.55 -124.35 81.15 -105.85 78.8 -99.0 76.7 -91.2 75.95 -88.35 75.2 -85.5 72.95 -76.8 71.3 -69.2 69.0 -58.4 67.9 -49.8 66.4 -38.05 67.2 -30.35 68.25 -20.55 69.25 -10.8 L69.25 -10.45 69.25 -10.45 67.9 -9.8 67.8 -9.7 67.8 -9.7 67.6 -9.65 67.1 -9.3 67.1 -9.3 66.85 -9.25 66.75 -9.15 66.65 -9.1 66.55 -9.05 66.4 -8.85"/>
    </path>
    <path d="M67.9 -10.0 L68.05 -10.15 68.15 -10.15 68.25 -10.2 68.35 -10.3 68.55 -10.4 68.6 -10.4 69.0 -10.6 69.1 -10.7 69.2 -10.7 69.3 -10.75 70.45 -11.3 70.55 -11.3 70.75 -11.4 Q74.45 -13.95 79.5 -25.4 82.3 -31.85 85.5 -41.1 85.75 -50.95 86.65 -57.6 87.45 -64.25 89.15 -72.1 89.6 -74.2 90.4 -76.35 92.6 -82.15 97.4 -87.95 103.95 -95.95 122.2 -104.7 128.8 -107.9 136.6 -109.95 150.35 -113.55 167.8 -113.6 L180.7 -113.05 Q200.1 -111.25 215.3 -103.4 223.35 -99.25 228.3 -93.3 235.65 -84.45 236.05 -71.6 236.45 -58.0 228.75 -48.0 224.35 -42.25 217.25 -37.65 207.15 -31.15 196.85 -26.85 187.25 -22.9 177.45 -20.8 160.25 -17.15 145.2 -14.8 106.0 -8.6 81.4 -11.05 L79.5 -10.95 69.85 -10.5 69.45 -10.4 69.1 -10.35 68.45 -10.1 68.2 -10.05 68.1 -10.0 68.0 -9.95 67.9 -9.95 67.9 -10.0 67.9 -10.0" fill="none" stroke="#000000" stroke-linecap="round" stroke-linejoin="round" stroke-opacity="0.0" stroke-width="1.0">
      <animate attributeName="stroke" dur="2s" repeatCount="indefinite" values="#000000;#000001"/>
      <animate attributeName="stroke-width" dur="2s" repeatCount="indefinite" values="0.0;0.0"/>
      <animate attributeName="fill-opacity" dur="2s" repeatCount="indefinite" values="0.0;0.0"/>
      <animate attributeName="d" dur="2s" repeatCount="indefinite" values="M67.9 -10.0 L68.05 -10.15 68.15 -10.15 68.25 -10.2 68.35 -10.3 68.55 -10.4 68.6 -10.4 69.0 -10.6 69.1 -10.7 69.2 -10.7 69.3 -10.75 70.45 -11.3 70.55 -11.3 70.75 -11.4 Q74.45 -13.95 79.5 -25.4 82.3 -31.85 85.5 -41.1 85.75 -50.95 86.65 -57.6 87.45 -64.25 89.15 -72.1 89.6 -74.2 90.4 -76.35 92.6 -82.15 97.4 -87.95 103.95 -95.95 122.2 -104.7 128.8 -107.9 136.6 -109.95 150.35 -113.55 167.8 -113.6 L180.7 -113.05 Q200.1 -111.25 215.3 -103.4 223.35 -99.25 228.3 -93.3 235.65 -84.45 236.05 -71.6 236.45 -58.0 228.75 -48.0 224.35 -42.25 217.25 -37.65 207.15 -31.15 196.85 -26.85 187.25 -22.9 177.45 -20.8 160.25 -17.15 145.2 -14.8 106.0 -8.6 81.4 -11.05 L79.5 -10.95 69.85 -10.5 69.45 -10.4 69.1 -10.35 68.45 -10.1 68.2 -10.05 68.1 -10.0 68.0 -9.95 67.9 -9.95 67.9 -10.0 67.9 -10.0;M66.4 -8.85 L66.55 -9.05 66.65 -9.1 66.75 -9.15 66.85 -9.25 67.1 -9.3 67.1 -9.3 67.6 -9.65 67.8 -9.7 67.8 -9.7 67.9 -9.8 69.25 -10.45 69.25 -10.45 69.25 -10.8 Q68.25 -20.55 67.2 -30.35 66.4 -38.05 67.9 -49.8 69.0 -58.4 71.3 -69.2 72.95 -76.8 75.2 -85.5 75.95 -88.35 76.7 -91.2 78.8 -99.0 81.15 -105.85 87.55 -124.35 96.15 -136.05 101.7 -143.65 108.2 -148.4 122.85 -159.2 142.0 -159.8 L157.15 -158.8 Q177.5 -155.65 195.8 -142.15 203.35 -136.6 210.55 -129.3 221.1 -118.6 226.75 -108.0 234.25 -93.85 233.05 -79.9 232.25 -70.6 229.45 -62.55 224.9 -49.6 215.15 -39.95 207.85 -32.75 194.9 -27.05 179.85 -20.45 157.1 -15.85 116.1 -7.6 82.15 -8.35 L79.95 -8.45 68.75 -9.5 68.35 -9.5 67.95 -9.4 67.25 -9.15 66.95 -9.05 66.85 -8.95 66.75 -8.95 66.65 -8.9 66.6 -8.9 66.4 -8.85"/>
    </path>
  </g>
</svg>
